  0
SECTION
  2
HEADER
  9
$ACADVER
  1
AC1009
  9
$FILLMODE
 70
 0
  9
$SPLFRAME
 70
 1
  9
$EXTMIN
 10
0
 20
0
 30
0.0
  9
$EXTMAX
 10
41.6667
 20
41.6667
 30
0.0
  0
ENDSEC
  0
SECTION
  2
TABLES
  0
TABLE
  2
LAYER
 70
1
  0
LAYER
  2
0
 70
     0
 62
     7
  6
CONTINUOUS
  0
ENDTAB
  0
ENDSEC
  0
SECTION
  2
ENTITIES
  0
POLYLINE
  8
0
 62
     7
 66
     1
 10
0
 20
0
 30
0.0
 70
     1
 40
0
 41
0
  0
VERTEX
  8
0
 10
7.02468
 20
3.55583
 30
0.0
 40
0
 41
0
  0
VERTEX
  8
0
 10
3.29531
 20
3.56976
 30
0.0
 40
0
 41
0
  0
VERTEX
  8
0
 10
3.29531
 20
10.3937
 30
0.0
 40
0
 41
0
  0
VERTEX
  8
0
 10
3.34386
 20
10.3937
 30
0.0
 40
0
 41
0
  0
VERTEX
  8
0
 10
3.34386
 20
10.5566
 30
0.0
 40
0
 41
0
  0
VERTEX
  8
0
 10
7.02468
 20
10.5566
 30
0.0
 40
0
 41
0
  0
VERTEX
  8
0
 10
7.02468
 20
3.55583
 30
0.0
 40
0
 41
0
  0
SEQEND
 8
0
  0
POLYLINE
  8
0
 62
     7
 66
     1
 10
0
 20
0
 30
0.0
 70
     1
 40
0.15
 41
0.15
  0
VERTEX
  8
0
 10
7.02468
 20
3.55583
 30
0.0
 40
0.00208333
 41
0.00208333
  0
VERTEX
  8
0
 10
3.29531
 20
3.56976
 30
0.0
 40
0.00208333
 41
0.00208333
  0
VERTEX
  8
0
 10
3.29531
 20
10.3937
 30
0.0
 40
0.00208333
 41
0.00208333
  0
VERTEX
  8
0
 10
3.34386
 20
10.3937
 30
0.0
 40
0.00208333
 41
0.00208333
  0
VERTEX
  8
0
 10
3.34386
 20
10.5566
 30
0.0
 40
0.00208333
 41
0.00208333
  0
VERTEX
  8
0
 10
7.02468
 20
10.5566
 30
0.0
 40
0.00208333
 41
0.00208333
  0
VERTEX
  8
0
 10
7.02468
 20
3.55583
 30
0.0
 40
0.00208333
 41
0.00208333
  0
SEQEND
 8
0
  0
POLYLINE
  8
0
 62
     7
 66
     1
 10
0
 20
0
 30
0.0
 70
     1
 40
0
 41
0
  0
VERTEX
  8
0
 10
3.13553
 20
10.3937
 30
0.0
 40
0
 41
0
  0
VERTEX
  8
0
 10
3.20156
 20
10.3937
 30
0.0
 40
0
 41
0
  0
VERTEX
  8
0
 10
3.20156
 20
6.10596
 30
0.0
 40
0
 41
0
  0
VERTEX
  8
0
 10
0.780436
 20
6.10596
 30
0.0
 40
0
 41
0
  0
VERTEX
  8
0
 10
0.780436
 20
10.5566
 30
0.0
 40
0
 41
0
  0
VERTEX
  8
0
 10
3.13553
 20
10.5566
 30
0.0
 40
0
 41
0
  0
VERTEX
  8
0
 10
3.13553
 20
10.3937
 30
0.0
 40
0
 41
0
  0
SEQEND
 8
0
  0
POLYLINE
  8
0
 62
     7
 66
     1
 10
0
 20
0
 30
0.0
 70
     1
 40
0.15
 41
0.15
  0
VERTEX
  8
0
 10
3.13553
 20
10.3937
 30
0.0
 40
0.00208333
 41
0.00208333
  0
VERTEX
  8
0
 10
3.20156
 20
10.3937
 30
0.0
 40
0.00208333
 41
0.00208333
  0
VERTEX
  8
0
 10
3.20156
 20
6.10596
 30
0.0
 40
0.00208333
 41
0.00208333
  0
VERTEX
  8
0
 10
0.780436
 20
6.10596
 30
0.0
 40
0.00208333
 41
0.00208333
  0
VERTEX
  8
0
 10
0.780436
 20
10.5566
 30
0.0
 40
0.00208333
 41
0.00208333
  0
VERTEX
  8
0
 10
3.13553
 20
10.5566
 30
0.0
 40
0.00208333
 41
0.00208333
  0
VERTEX
  8
0
 10
3.13553
 20
10.3937
 30
0.0
 40
0.00208333
 41
0.00208333
  0
SEQEND
 8
0
  0
POLYLINE
  8
0
 62
     7
 66
     1
 10
0
 20
0
 30
0.0
 70
     1
 40
0
 41
0
  0
VERTEX
  8
0
 10
3.20156
 20
3.56976
 30
0.0
 40
0
 41
0
  0
VERTEX
  8
0
 10
0.780436
 20
3.56976
 30
0.0
 40
0
 41
0
  0
VERTEX
  8
0
 10
0.780436
 20
5.66803
 30
0.0
 40
0
 41
0
  0
VERTEX
  8
0
 10
1.11833
 20
5.66803
 30
0.0
 40
0
 41
0
  0
VERTEX
  8
0
 10
1.11833
 20
6.00179
 30
0.0
 40
0
 41
0
  0
VERTEX
  8
0
 10
3.20156
 20
6.00179
 30
0.0
 40
0
 41
0
  0
VERTEX
  8
0
 10
3.20156
 20
3.56976
 30
0.0
 40
0
 41
0
  0
SEQEND
 8
0
  0
POLYLINE
  8
0
 62
     7
 66
     1
 10
0
 20
0
 30
0.0
 70
     1
 40
0.15
 41
0.15
  0
VERTEX
  8
0
 10
3.20156
 20
3.56976
 30
0.0
 40
0.00208333
 41
0.00208333
  0
VERTEX
  8
0
 10
0.780436
 20
3.56976
 30
0.0
 40
0.00208333
 41
0.00208333
  0
VERTEX
  8
0
 10
0.780436
 20
5.66803
 30
0.0
 40
0.00208333
 41
0.00208333
  0
VERTEX
  8
0
 10
1.11833
 20
5.66803
 30
0.0
 40
0.00208333
 41
0.00208333
  0
VERTEX
  8
0
 10
1.11833
 20
6.00179
 30
0.0
 40
0.00208333
 41
0.00208333
  0
VERTEX
  8
0
 10
3.20156
 20
6.00179
 30
0.0
 40
0.00208333
 41
0.00208333
  0
VERTEX
  8
0
 10
3.20156
 20
3.56976
 30
0.0
 40
0.00208333
 41
0.00208333
  0
SEQEND
 8
0
  0
POLYLINE
  8
0
 62
     7
 66
     1
 10
0
 20
0
 30
0.0
 70
     1
 40
0
 41
0
  0
VERTEX
  8
0
 10
0.864367
 20
3.43419
 30
0.0
 40
0
 41
0
  0
VERTEX
  8
0
 10
2.63857
 20
3.43419
 30
0.0
 40
0
 41
0
  0
VERTEX
  8
0
 10
2.63857
 20
1.93311
 30
0.0
 40
0
 41
0
  0
VERTEX
  8
0
 10
0.864367
 20
1.93311
 30
0.0
 40
0
 41
0
  0
VERTEX
  8
0
 10
0.864367
 20
3.43419
 30
0.0
 40
0
 41
0
  0
SEQEND
 8
0
  0
POLYLINE
  8
0
 62
     7
 66
     1
 10
0
 20
0
 30
0.0
 70
     1
 40
0.15
 41
0.15
  0
VERTEX
  8
0
 10
0.864367
 20
3.43419
 30
0.0
 40
0.00208333
 41
0.00208333
  0
VERTEX
  8
0
 10
2.63857
 20
3.43419
 30
0.0
 40
0.00208333
 41
0.00208333
  0
VERTEX
  8
0
 10
2.63857
 20
1.93311
 30
0.0
 40
0.00208333
 41
0.00208333
  0
VERTEX
  8
0
 10
0.864367
 20
1.93311
 30
0.0
 40
0.00208333
 41
0.00208333
  0
VERTEX
  8
0
 10
0.864367
 20
3.43419
 30
0.0
 40
0.00208333
 41
0.00208333
  0
SEQEND
 8
0
  0
POLYLINE
  8
0
 62
     7
 66
     1
 10
0
 20
0
 30
0.0
 70
     1
 40
0
 41
0
  0
VERTEX
  8
0
 10
7.02468
 20
0.226887
 30
0.0
 40
0
 41
0
  0
VERTEX
  8
0
 10
4.96593
 20
0.226887
 30
0.0
 40
0
 41
0
  0
VERTEX
  8
0
 10
4.96593
 20
1.75136
 30
0.0
 40
0
 41
0
  0
VERTEX
  8
0
 10
5.27647
 20
1.75136
 30
0.0
 40
0
 41
0
  0
VERTEX
  8
0
 10
5.27647
 20
2.18604
 30
0.0
 40
0
 41
0
  0
VERTEX
  8
0
 10
4.96289
 20
2.18604
 30
0.0
 40
0
 41
0
  0
VERTEX
  8
0
 10
4.96289
 20
3.55583
 30
0.0
 40
0
 41
0
  0
VERTEX
  8
0
 10
7.02468
 20
3.55583
 30
0.0
 40
0
 41
0
  0
VERTEX
  8
0
 10
7.02468
 20
0.226887
 30
0.0
 40
0
 41
0
  0
SEQEND
 8
0
  0
POLYLINE
  8
0
 62
     7
 66
     1
 10
0
 20
0
 30
0.0
 70
     1
 40
0.15
 41
0.15
  0
VERTEX
  8
0
 10
7.02468
 20
0.226887
 30
0.0
 40
0.00208333
 41
0.00208333
  0
VERTEX
  8
0
 10
4.96593
 20
0.226887
 30
0.0
 40
0.00208333
 41
0.00208333
  0
VERTEX
  8
0
 10
4.96593
 20
1.75136
 30
0.0
 40
0.00208333
 41
0.00208333
  0
VERTEX
  8
0
 10
5.27647
 20
1.75136
 30
0.0
 40
0.00208333
 41
0.00208333
  0
VERTEX
  8
0
 10
5.27647
 20
2.18604
 30
0.0
 40
0.00208333
 41
0.00208333
  0
VERTEX
  8
0
 10
4.96289
 20
2.18604
 30
0.0
 40
0.00208333
 41
0.00208333
  0
VERTEX
  8
0
 10
4.96289
 20
3.55583
 30
0.0
 40
0.00208333
 41
0.00208333
  0
VERTEX
  8
0
 10
7.02468
 20
3.55583
 30
0.0
 40
0.00208333
 41
0.00208333
  0
VERTEX
  8
0
 10
7.02468
 20
0.226887
 30
0.0
 40
0.00208333
 41
0.00208333
  0
SEQEND
 8
0
  0
POLYLINE
  8
0
 62
     7
 66
     1
 10
0
 20
0
 30
0.0
 70
     1
 40
0
 41
0
  0
VERTEX
  8
0
 10
2.77126
 20
1.85813
 30
0.0
 40
0
 41
0
  0
VERTEX
  8
0
 10
2.77126
 20
3.47601
 30
0.0
 40
0
 41
0
  0
VERTEX
  8
0
 10
3.29531
 20
3.47601
 30
0.0
 40
0
 41
0
  0
VERTEX
  8
0
 10
3.29531
 20
3.55583
 30
0.0
 40
0
 41
0
  0
VERTEX
  8
0
 10
4.83789
 20
3.55583
 30
0.0
 40
0
 41
0
  0
VERTEX
  8
0
 10
4.83789
 20
1.85813
 30
0.0
 40
0
 41
0
  0
VERTEX
  8
0
 10
2.77126
 20
1.85813
 30
0.0
 40
0
 41
0
  0
SEQEND
 8
0
  0
POLYLINE
  8
0
 62
     7
 66
     1
 10
0
 20
0
 30
0.0
 70
     1
 40
0.15
 41
0.15
  0
VERTEX
  8
0
 10
2.77126
 20
1.85813
 30
0.0
 40
0.00208333
 41
0.00208333
  0
VERTEX
  8
0
 10
2.77126
 20
3.47601
 30
0.0
 40
0.00208333
 41
0.00208333
  0
VERTEX
  8
0
 10
3.29531
 20
3.47601
 30
0.0
 40
0.00208333
 41
0.00208333
  0
VERTEX
  8
0
 10
3.29531
 20
3.55583
 30
0.0
 40
0.00208333
 41
0.00208333
  0
VERTEX
  8
0
 10
4.83789
 20
3.55583
 30
0.0
 40
0.00208333
 41
0.00208333
  0
VERTEX
  8
0
 10
4.83789
 20
1.85813
 30
0.0
 40
0.00208333
 41
0.00208333
  0
VERTEX
  8
0
 10
2.77126
 20
1.85813
 30
0.0
 40
0.00208333
 41
0.00208333
  0
SEQEND
 8
0
  0
POLYLINE
  8
0
 62
     7
 66
     1
 10
0
 20
0
 30
0.0
 70
     1
 40
0
 41
0
  0
VERTEX
  8
0
 10
7.0976
 20
11.015
 30
0.0
 40
0
 41
0
  0
VERTEX
  8
0
 10
4.74929
 20
11.015
 30
0.0
 40
0
 41
0
  0
VERTEX
  8
0
 10
4.75971
 20
12.5698
 30
0.0
 40
0
 41
0
  0
VERTEX
  8
0
 10
7.0976
 20
12.5698
 30
0.0
 40
0
 41
0
  0
VERTEX
  8
0
 10
7.0976
 20
11.015
 30
0.0
 40
0
 41
0
  0
SEQEND
 8
0
  0
POLYLINE
  8
0
 62
     0
 66
     1
 10
0
 20
0
 30
0.0
 70
     1
 40
0.15
 41
0.15
  0
VERTEX
  8
0
 10
7.0976
 20
11.015
 30
0.0
 40
0.00208333
 41
0.00208333
  0
VERTEX
  8
0
 10
4.74929
 20
11.015
 30
0.0
 40
0.00208333
 41
0.00208333
  0
VERTEX
  8
0
 10
4.75971
 20
12.5698
 30
0.0
 40
0.00208333
 41
0.00208333
  0
VERTEX
  8
0
 10
7.0976
 20
12.5698
 30
0.0
 40
0.00208333
 41
0.00208333
  0
VERTEX
  8
0
 10
7.0976
 20
11.015
 30
0.0
 40
0.00208333
 41
0.00208333
  0
SEQEND
 8
0
  0
POLYLINE
  8
0
 62
     7
 66
     1
 10
0
 20
0
 30
0.0
 70
     1
 40
0
 41
0
  0
VERTEX
  8
0
 10
7.0976
 20
12.5698
 30
0.0
 40
0
 41
0
  0
VERTEX
  8
0
 10
4.75971
 20
12.5698
 30
0.0
 40
0
 41
0
  0
VERTEX
  8
0
 10
4.75906
 20
13.8815
 30
0.0
 40
0
 41
0
  0
VERTEX
  8
0
 10
7.0976
 20
13.8815
 30
0.0
 40
0
 41
0
  0
VERTEX
  8
0
 10
7.0976
 20
12.5698
 30
0.0
 40
0
 41
0
  0
SEQEND
 8
0
  0
POLYLINE
  8
0
 62
     7
 66
     1
 10
0
 20
0
 30
0.0
 70
     1
 40
0.15
 41
0.15
  0
VERTEX
  8
0
 10
7.0976
 20
12.5698
 30
0.0
 40
0.00208333
 41
0.00208333
  0
VERTEX
  8
0
 10
4.75971
 20
12.5698
 30
0.0
 40
0.00208333
 41
0.00208333
  0
VERTEX
  8
0
 10
4.75906
 20
13.8815
 30
0.0
 40
0.00208333
 41
0.00208333
  0
VERTEX
  8
0
 10
7.0976
 20
13.8815
 30
0.0
 40
0.00208333
 41
0.00208333
  0
VERTEX
  8
0
 10
7.0976
 20
12.5698
 30
0.0
 40
0.00208333
 41
0.00208333
  0
SEQEND
 8
0
  0
POLYLINE
  8
0
 62
     0
 66
     1
 10
0
 20
0
 30
0.0
 70
     1
 40
0
 41
0
  0
VERTEX
  8
0
 10
0.583333
 20
11.0852
 30
0.0
 40
0
 41
0
  0
VERTEX
  8
0
 10
1.86774
 20
11.0852
 30
0.0
 40
0
 41
0
  0
VERTEX
  8
0
 10
1.86774
 20
10.5566
 30
0.0
 40
0
 41
0
  0
VERTEX
  8
0
 10
0.780436
 20
10.5566
 30
0.0
 40
0
 41
0
  0
VERTEX
  8
0
 10
0.583333
 20
11.0852
 30
0.0
 40
0
 41
0
  0
SEQEND
 8
0
  0
POLYLINE
  8
0
 62
     0
 66
     1
 10
0
 20
0
 30
0.0
 70
     1
 40
0.15
 41
0.15
  0
VERTEX
  8
0
 10
0.583333
 20
11.0852
 30
0.0
 40
0.00208333
 41
0.00208333
  0
VERTEX
  8
0
 10
1.86774
 20
11.0852
 30
0.0
 40
0.00208333
 41
0.00208333
  0
VERTEX
  8
0
 10
1.86774
 20
10.5566
 30
0.0
 40
0.00208333
 41
0.00208333
  0
VERTEX
  8
0
 10
0.780436
 20
10.5566
 30
0.0
 40
0.00208333
 41
0.00208333
  0
VERTEX
  8
0
 10
0.583333
 20
11.0852
 30
0.0
 40
0.00208333
 41
0.00208333
  0
SEQEND
 8
0
  0
POLYLINE
  8
0
 62
     0
 66
     1
 10
0
 20
0
 30
0.0
 70
     1
 40
0
 41
0
  0
VERTEX
  8
0
 10
7.43093
 20
11.015
 30
0.0
 40
0
 41
0
  0
VERTEX
  8
0
 10
7.43093
 20
0.00813803
 30
0.0
 40
0
 41
0
  0
VERTEX
  8
0
 10
7.02468
 20
0.226887
 30
0.0
 40
0
 41
0
  0
VERTEX
  8
0
 10
7.02468
 20
10.5566
 30
0.0
 40
0
 41
0
  0
VERTEX
  8
0
 10
7.43093
 20
11.015
 30
0.0
 40
0
 41
0
  0
SEQEND
 8
0
  0
POLYLINE
  8
0
 62
     0
 66
     1
 10
0
 20
0
 30
0.0
 70
     1
 40
0.15
 41
0.15
  0
VERTEX
  8
0
 10
7.43093
 20
11.015
 30
0.0
 40
0.00208333
 41
0.00208333
  0
VERTEX
  8
0
 10
7.43093
 20
0.00813803
 30
0.0
 40
0.00208333
 41
0.00208333
  0
VERTEX
  8
0
 10
7.02468
 20
0.226887
 30
0.0
 40
0.00208333
 41
0.00208333
  0
VERTEX
  8
0
 10
7.02468
 20
10.5566
 30
0.0
 40
0.00208333
 41
0.00208333
  0
VERTEX
  8
0
 10
7.43093
 20
11.015
 30
0.0
 40
0.00208333
 41
0.00208333
  0
SEQEND
 8
0
  0
POLYLINE
  8
0
 62
     7
 66
     1
 10
0
 20
0
 30
0.0
 70
     1
 40
0
 41
0
  0
VERTEX
  8
0
 10
7.02468
 20
10.2528
 30
0.0
 40
0
 41
0
  0
VERTEX
  8
0
 10
7.43093
 20
10.2528
 30
0.0
 40
0
 41
0
  0
VERTEX
  8
0
 10
7.43093
 20
8.97467
 30
0.0
 40
0
 41
0
  0
VERTEX
  8
0
 10
7.02468
 20
8.97467
 30
0.0
 40
0
 41
0
  0
VERTEX
  8
0
 10
7.02468
 20
10.2528
 30
0.0
 40
0
 41
0
  0
SEQEND
 8
0
  0
POLYLINE
  8
0
 62
     0
 66
     1
 10
0
 20
0
 30
0.0
 70
     1
 40
0.75
 41
0.75
  0
VERTEX
  8
0
 10
7.02468
 20
10.2528
 30
0.0
 40
0.0104167
 41
0.0104167
  0
VERTEX
  8
0
 10
7.43093
 20
10.2528
 30
0.0
 40
0.0104167
 41
0.0104167
  0
VERTEX
  8
0
 10
7.43093
 20
8.97467
 30
0.0
 40
0.0104167
 41
0.0104167
  0
VERTEX
  8
0
 10
7.02468
 20
8.97467
 30
0.0
 40
0.0104167
 41
0.0104167
  0
VERTEX
  8
0
 10
7.02468
 20
10.2528
 30
0.0
 40
0.0104167
 41
0.0104167
  0
SEQEND
 8
0
  0
POLYLINE
  8
0
 62
     7
 66
     1
 10
0
 20
0
 30
0.0
 70
     1
 40
0
 41
0
  0
VERTEX
  8
0
 10
7.02468
 20
10.2528
 30
0.0
 40
0
 41
0
  0
VERTEX
  8
0
 10
7.43093
 20
10.2528
 30
0.0
 40
0
 41
0
  0
VERTEX
  8
0
 10
7.43093
 20
8.97467
 30
0.0
 40
0
 41
0
  0
VERTEX
  8
0
 10
7.02468
 20
8.97467
 30
0.0
 40
0
 41
0
  0
VERTEX
  8
0
 10
7.02468
 20
10.2528
 30
0.0
 40
0
 41
0
  0
SEQEND
 8
0
  0
POLYLINE
  8
0
 62
     0
 66
     1
 10
0
 20
0
 30
0.0
 70
     1
 40
0.75
 41
0.75
  0
VERTEX
  8
0
 10
7.02468
 20
10.2528
 30
0.0
 40
0.0104167
 41
0.0104167
  0
VERTEX
  8
0
 10
7.43093
 20
10.2528
 30
0.0
 40
0.0104167
 41
0.0104167
  0
VERTEX
  8
0
 10
7.43093
 20
8.97467
 30
0.0
 40
0.0104167
 41
0.0104167
  0
VERTEX
  8
0
 10
7.02468
 20
8.97467
 30
0.0
 40
0.0104167
 41
0.0104167
  0
VERTEX
  8
0
 10
7.02468
 20
10.2528
 30
0.0
 40
0.0104167
 41
0.0104167
  0
SEQEND
 8
0
  0
POLYLINE
  8
0
 62
     0
 66
     1
 10
0
 20
0
 30
0.0
 40
0.75
 41
0.75
  0
VERTEX
  8
0
 10
7.22781
 20
10.1747
 30
0.0
 40
0.0104167
 41
0.0104167
  0
VERTEX
  8
0
 10
7.22781
 20
9.05279
 30
0.0
 40
0.0104167
 41
0.0104167
  0
SEQEND
 8
0
  0
POLYLINE
  8
0
 62
     0
 66
     1
 10
0
 20
0
 30
0.0
 40
0.75
 41
0.75
  0
VERTEX
  8
0
 10
7.43093
 20
10.1747
 30
0.0
 40
0.0104167
 41
0.0104167
  0
VERTEX
  8
0
 10
7.02468
 20
10.1747
 30
0.0
 40
0.0104167
 41
0.0104167
  0
SEQEND
 8
0
  0
POLYLINE
  8
0
 62
     0
 66
     1
 10
0
 20
0
 30
0.0
 40
0.75
 41
0.75
  0
VERTEX
  8
0
 10
7.43093
 20
9.05279
 30
0.0
 40
0.0104167
 41
0.0104167
  0
VERTEX
  8
0
 10
7.02468
 20
9.05279
 30
0.0
 40
0.0104167
 41
0.0104167
  0
SEQEND
 8
0
  0
POLYLINE
  8
0
 62
     7
 66
     1
 10
0
 20
0
 30
0.0
 70
     1
 40
0
 41
0
  0
VERTEX
  8
0
 10
7.02468
 20
2.67393
 30
0.0
 40
0
 41
0
  0
VERTEX
  8
0
 10
7.43093
 20
2.67393
 30
0.0
 40
0
 41
0
  0
VERTEX
  8
0
 10
7.43093
 20
1.44689
 30
0.0
 40
0
 41
0
  0
VERTEX
  8
0
 10
7.02468
 20
1.44689
 30
0.0
 40
0
 41
0
  0
VERTEX
  8
0
 10
7.02468
 20
2.67393
 30
0.0
 40
0
 41
0
  0
SEQEND
 8
0
  0
POLYLINE
  8
0
 62
     0
 66
     1
 10
0
 20
0
 30
0.0
 70
     1
 40
0.75
 41
0.75
  0
VERTEX
  8
0
 10
7.02468
 20
2.67393
 30
0.0
 40
0.0104167
 41
0.0104167
  0
VERTEX
  8
0
 10
7.43093
 20
2.67393
 30
0.0
 40
0.0104167
 41
0.0104167
  0
VERTEX
  8
0
 10
7.43093
 20
1.44689
 30
0.0
 40
0.0104167
 41
0.0104167
  0
VERTEX
  8
0
 10
7.02468
 20
1.44689
 30
0.0
 40
0.0104167
 41
0.0104167
  0
VERTEX
  8
0
 10
7.02468
 20
2.67393
 30
0.0
 40
0.0104167
 41
0.0104167
  0
SEQEND
 8
0
  0
POLYLINE
  8
0
 62
     7
 66
     1
 10
0
 20
0
 30
0.0
 70
     1
 40
0
 41
0
  0
VERTEX
  8
0
 10
7.02468
 20
2.67393
 30
0.0
 40
0
 41
0
  0
VERTEX
  8
0
 10
7.43093
 20
2.67393
 30
0.0
 40
0
 41
0
  0
VERTEX
  8
0
 10
7.43093
 20
1.44689
 30
0.0
 40
0
 41
0
  0
VERTEX
  8
0
 10
7.02468
 20
1.44689
 30
0.0
 40
0
 41
0
  0
VERTEX
  8
0
 10
7.02468
 20
2.67393
 30
0.0
 40
0
 41
0
  0
SEQEND
 8
0
  0
POLYLINE
  8
0
 62
     0
 66
     1
 10
0
 20
0
 30
0.0
 70
     1
 40
0.75
 41
0.75
  0
VERTEX
  8
0
 10
7.02468
 20
2.67393
 30
0.0
 40
0.0104167
 41
0.0104167
  0
VERTEX
  8
0
 10
7.43093
 20
2.67393
 30
0.0
 40
0.0104167
 41
0.0104167
  0
VERTEX
  8
0
 10
7.43093
 20
1.44689
 30
0.0
 40
0.0104167
 41
0.0104167
  0
VERTEX
  8
0
 10
7.02468
 20
1.44689
 30
0.0
 40
0.0104167
 41
0.0104167
  0
VERTEX
  8
0
 10
7.02468
 20
2.67393
 30
0.0
 40
0.0104167
 41
0.0104167
  0
SEQEND
 8
0
  0
POLYLINE
  8
0
 62
     0
 66
     1
 10
0
 20
0
 30
0.0
 40
0.75
 41
0.75
  0
VERTEX
  8
0
 10
7.22781
 20
2.59581
 30
0.0
 40
0.0104167
 41
0.0104167
  0
VERTEX
  8
0
 10
7.22781
 20
1.52501
 30
0.0
 40
0.0104167
 41
0.0104167
  0
SEQEND
 8
0
  0
POLYLINE
  8
0
 62
     0
 66
     1
 10
0
 20
0
 30
0.0
 40
0.75
 41
0.75
  0
VERTEX
  8
0
 10
7.43093
 20
2.59581
 30
0.0
 40
0.0104167
 41
0.0104167
  0
VERTEX
  8
0
 10
7.02468
 20
2.59581
 30
0.0
 40
0.0104167
 41
0.0104167
  0
SEQEND
 8
0
  0
POLYLINE
  8
0
 62
     0
 66
     1
 10
0
 20
0
 30
0.0
 40
0.75
 41
0.75
  0
VERTEX
  8
0
 10
7.43093
 20
1.52501
 30
0.0
 40
0.0104167
 41
0.0104167
  0
VERTEX
  8
0
 10
7.02468
 20
1.52501
 30
0.0
 40
0.0104167
 41
0.0104167
  0
SEQEND
 8
0
  0
POLYLINE
  8
0
 62
     7
 66
     1
 10
0
 20
0
 30
0.0
 70
     1
 40
0
 41
0
  0
VERTEX
  8
0
 10
7.02468
 20
1.44689
 30
0.0
 40
0
 41
0
  0
VERTEX
  8
0
 10
7.43093
 20
1.44689
 30
0.0
 40
0
 41
0
  0
VERTEX
  8
0
 10
7.43093
 20
0.960124
 30
0.0
 40
0
 41
0
  0
VERTEX
  8
0
 10
7.02468
 20
0.960124
 30
0.0
 40
0
 41
0
  0
VERTEX
  8
0
 10
7.02468
 20
1.44689
 30
0.0
 40
0
 41
0
  0
SEQEND
 8
0
  0
POLYLINE
  8
0
 62
     0
 66
     1
 10
0
 20
0
 30
0.0
 70
     1
 40
0.75
 41
0.75
  0
VERTEX
  8
0
 10
7.02468
 20
1.44689
 30
0.0
 40
0.0104167
 41
0.0104167
  0
VERTEX
  8
0
 10
7.43093
 20
1.44689
 30
0.0
 40
0.0104167
 41
0.0104167
  0
VERTEX
  8
0
 10
7.43093
 20
0.960124
 30
0.0
 40
0.0104167
 41
0.0104167
  0
VERTEX
  8
0
 10
7.02468
 20
0.960124
 30
0.0
 40
0.0104167
 41
0.0104167
  0
VERTEX
  8
0
 10
7.02468
 20
1.44689
 30
0.0
 40
0.0104167
 41
0.0104167
  0
SEQEND
 8
0
  0
POLYLINE
  8
0
 62
     7
 66
     1
 10
0
 20
0
 30
0.0
 70
     1
 40
0
 41
0
  0
VERTEX
  8
0
 10
7.02468
 20
1.44689
 30
0.0
 40
0
 41
0
  0
VERTEX
  8
0
 10
7.43093
 20
1.44689
 30
0.0
 40
0
 41
0
  0
VERTEX
  8
0
 10
7.43093
 20
0.960124
 30
0.0
 40
0
 41
0
  0
VERTEX
  8
0
 10
7.02468
 20
0.960124
 30
0.0
 40
0
 41
0
  0
VERTEX
  8
0
 10
7.02468
 20
1.44689
 30
0.0
 40
0
 41
0
  0
SEQEND
 8
0
  0
POLYLINE
  8
0
 62
     0
 66
     1
 10
0
 20
0
 30
0.0
 70
     1
 40
0.75
 41
0.75
  0
VERTEX
  8
0
 10
7.02468
 20
1.44689
 30
0.0
 40
0.0104167
 41
0.0104167
  0
VERTEX
  8
0
 10
7.43093
 20
1.44689
 30
0.0
 40
0.0104167
 41
0.0104167
  0
VERTEX
  8
0
 10
7.43093
 20
0.960124
 30
0.0
 40
0.0104167
 41
0.0104167
  0
VERTEX
  8
0
 10
7.02468
 20
0.960124
 30
0.0
 40
0.0104167
 41
0.0104167
  0
VERTEX
  8
0
 10
7.02468
 20
1.44689
 30
0.0
 40
0.0104167
 41
0.0104167
  0
SEQEND
 8
0
  0
POLYLINE
  8
0
 62
     0
 66
     1
 10
0
 20
0
 30
0.0
 40
0.75
 41
0.75
  0
VERTEX
  8
0
 10
7.22781
 20
1.36876
 30
0.0
 40
0.0104167
 41
0.0104167
  0
VERTEX
  8
0
 10
7.22781
 20
1.03825
 30
0.0
 40
0.0104167
 41
0.0104167
  0
SEQEND
 8
0
  0
POLYLINE
  8
0
 62
     0
 66
     1
 10
0
 20
0
 30
0.0
 40
0.75
 41
0.75
  0
VERTEX
  8
0
 10
7.43093
 20
1.36876
 30
0.0
 40
0.0104167
 41
0.0104167
  0
VERTEX
  8
0
 10
7.02468
 20
1.36876
 30
0.0
 40
0.0104167
 41
0.0104167
  0
SEQEND
 8
0
  0
POLYLINE
  8
0
 62
     0
 66
     1
 10
0
 20
0
 30
0.0
 40
0.75
 41
0.75
  0
VERTEX
  8
0
 10
7.43093
 20
1.03825
 30
0.0
 40
0.0104167
 41
0.0104167
  0
VERTEX
  8
0
 10
7.02468
 20
1.03825
 30
0.0
 40
0.0104167
 41
0.0104167
  0
SEQEND
 8
0
  0
POLYLINE
  8
0
 62
     7
 66
     1
 10
0
 20
0
 30
0.0
 70
     1
 40
0
 41
0
  0
VERTEX
  8
0
 10
7.02468
 20
6.09196
 30
0.0
 40
0
 41
0
  0
VERTEX
  8
0
 10
7.43093
 20
6.09196
 30
0.0
 40
0
 41
0
  0
VERTEX
  8
0
 10
7.43093
 20
4.83322
 30
0.0
 40
0
 41
0
  0
VERTEX
  8
0
 10
7.02468
 20
4.83322
 30
0.0
 40
0
 41
0
  0
VERTEX
  8
0
 10
7.02468
 20
6.09196
 30
0.0
 40
0
 41
0
  0
SEQEND
 8
0
  0
POLYLINE
  8
0
 62
     0
 66
     1
 10
0
 20
0
 30
0.0
 70
     1
 40
0.75
 41
0.75
  0
VERTEX
  8
0
 10
7.02468
 20
6.09196
 30
0.0
 40
0.0104167
 41
0.0104167
  0
VERTEX
  8
0
 10
7.43093
 20
6.09196
 30
0.0
 40
0.0104167
 41
0.0104167
  0
VERTEX
  8
0
 10
7.43093
 20
4.83322
 30
0.0
 40
0.0104167
 41
0.0104167
  0
VERTEX
  8
0
 10
7.02468
 20
4.83322
 30
0.0
 40
0.0104167
 41
0.0104167
  0
VERTEX
  8
0
 10
7.02468
 20
6.09196
 30
0.0
 40
0.0104167
 41
0.0104167
  0
SEQEND
 8
0
  0
POLYLINE
  8
0
 62
     7
 66
     1
 10
0
 20
0
 30
0.0
 70
     1
 40
0
 41
0
  0
VERTEX
  8
0
 10
7.02468
 20
6.09196
 30
0.0
 40
0
 41
0
  0
VERTEX
  8
0
 10
7.43093
 20
6.09196
 30
0.0
 40
0
 41
0
  0
VERTEX
  8
0
 10
7.43093
 20
4.83322
 30
0.0
 40
0
 41
0
  0
VERTEX
  8
0
 10
7.02468
 20
4.83322
 30
0.0
 40
0
 41
0
  0
VERTEX
  8
0
 10
7.02468
 20
6.09196
 30
0.0
 40
0
 41
0
  0
SEQEND
 8
0
  0
POLYLINE
  8
0
 62
     0
 66
     1
 10
0
 20
0
 30
0.0
 70
     1
 40
0.75
 41
0.75
  0
VERTEX
  8
0
 10
7.02468
 20
6.09196
 30
0.0
 40
0.0104167
 41
0.0104167
  0
VERTEX
  8
0
 10
7.43093
 20
6.09196
 30
0.0
 40
0.0104167
 41
0.0104167
  0
VERTEX
  8
0
 10
7.43093
 20
4.83322
 30
0.0
 40
0.0104167
 41
0.0104167
  0
VERTEX
  8
0
 10
7.02468
 20
4.83322
 30
0.0
 40
0.0104167
 41
0.0104167
  0
VERTEX
  8
0
 10
7.02468
 20
6.09196
 30
0.0
 40
0.0104167
 41
0.0104167
  0
SEQEND
 8
0
  0
POLYLINE
  8
0
 62
     0
 66
     1
 10
0
 20
0
 30
0.0
 40
0.75
 41
0.75
  0
VERTEX
  8
0
 10
7.22781
 20
6.01383
 30
0.0
 40
0.0104167
 41
0.0104167
  0
VERTEX
  8
0
 10
7.22781
 20
4.91135
 30
0.0
 40
0.0104167
 41
0.0104167
  0
SEQEND
 8
0
  0
POLYLINE
  8
0
 62
     0
 66
     1
 10
0
 20
0
 30
0.0
 40
0.75
 41
0.75
  0
VERTEX
  8
0
 10
7.43093
 20
6.01383
 30
0.0
 40
0.0104167
 41
0.0104167
  0
VERTEX
  8
0
 10
7.02468
 20
6.01383
 30
0.0
 40
0.0104167
 41
0.0104167
  0
SEQEND
 8
0
  0
POLYLINE
  8
0
 62
     0
 66
     1
 10
0
 20
0
 30
0.0
 40
0.75
 41
0.75
  0
VERTEX
  8
0
 10
7.43093
 20
4.91135
 30
0.0
 40
0.0104167
 41
0.0104167
  0
VERTEX
  8
0
 10
7.02468
 20
4.91135
 30
0.0
 40
0.0104167
 41
0.0104167
  0
SEQEND
 8
0
  0
POLYLINE
  8
0
 62
     0
 66
     1
 10
0
 20
0
 30
0.0
 70
     1
 40
0
 41
0
  0
VERTEX
  8
0
 10
7.43093
 20
0.00813803
 30
0.0
 40
0
 41
0
  0
VERTEX
  8
0
 10
4.74718
 20
0.00813803
 30
0.0
 40
0
 41
0
  0
VERTEX
  8
0
 10
4.96593
 20
0.226887
 30
0.0
 40
0
 41
0
  0
VERTEX
  8
0
 10
7.02468
 20
0.226887
 30
0.0
 40
0
 41
0
  0
VERTEX
  8
0
 10
7.43093
 20
0.00813803
 30
0.0
 40
0
 41
0
  0
SEQEND
 8
0
  0
POLYLINE
  8
0
 62
     0
 66
     1
 10
0
 20
0
 30
0.0
 70
     1
 40
0.15
 41
0.15
  0
VERTEX
  8
0
 10
7.43093
 20
0.00813803
 30
0.0
 40
0.00208333
 41
0.00208333
  0
VERTEX
  8
0
 10
4.74718
 20
0.00813803
 30
0.0
 40
0.00208333
 41
0.00208333
  0
VERTEX
  8
0
 10
4.96593
 20
0.226887
 30
0.0
 40
0.00208333
 41
0.00208333
  0
VERTEX
  8
0
 10
7.02468
 20
0.226887
 30
0.0
 40
0.00208333
 41
0.00208333
  0
VERTEX
  8
0
 10
7.43093
 20
0.00813803
 30
0.0
 40
0.00208333
 41
0.00208333
  0
SEQEND
 8
0
  0
POLYLINE
  8
0
 62
     0
 66
     1
 10
0
 20
0
 30
0.0
 70
     1
 40
0
 41
0
  0
VERTEX
  8
0
 10
4.74718
 20
0.00813803
 30
0.0
 40
0
 41
0
  0
VERTEX
  8
0
 10
4.74718
 20
1.6524
 30
0.0
 40
0
 41
0
  0
VERTEX
  8
0
 10
4.96593
 20
1.85813
 30
0.0
 40
0
 41
0
  0
VERTEX
  8
0
 10
4.96593
 20
0.226887
 30
0.0
 40
0
 41
0
  0
VERTEX
  8
0
 10
4.74718
 20
0.00813803
 30
0.0
 40
0
 41
0
  0
SEQEND
 8
0
  0
POLYLINE
  8
0
 62
     0
 66
     1
 10
0
 20
0
 30
0.0
 70
     1
 40
0.15
 41
0.15
  0
VERTEX
  8
0
 10
4.74718
 20
0.00813803
 30
0.0
 40
0.00208333
 41
0.00208333
  0
VERTEX
  8
0
 10
4.74718
 20
1.6524
 30
0.0
 40
0.00208333
 41
0.00208333
  0
VERTEX
  8
0
 10
4.96593
 20
1.85813
 30
0.0
 40
0.00208333
 41
0.00208333
  0
VERTEX
  8
0
 10
4.96593
 20
0.226887
 30
0.0
 40
0.00208333
 41
0.00208333
  0
VERTEX
  8
0
 10
4.74718
 20
0.00813803
 30
0.0
 40
0.00208333
 41
0.00208333
  0
SEQEND
 8
0
  0
POLYLINE
  8
0
 62
     0
 66
     1
 10
0
 20
0
 30
0.0
 70
     1
 40
0
 41
0
  0
VERTEX
  8
0
 10
3.13553
 20
11.015
 30
0.0
 40
0
 41
0
  0
VERTEX
  8
0
 10
3.34386
 20
11.015
 30
0.0
 40
0
 41
0
  0
VERTEX
  8
0
 10
3.34386
 20
10.3937
 30
0.0
 40
0
 41
0
  0
VERTEX
  8
0
 10
3.13553
 20
10.3937
 30
0.0
 40
0
 41
0
  0
VERTEX
  8
0
 10
3.13553
 20
11.015
 30
0.0
 40
0
 41
0
  0
SEQEND
 8
0
  0
POLYLINE
  8
0
 62
     0
 66
     1
 10
0
 20
0
 30
0.0
 70
     1
 40
0.15
 41
0.15
  0
VERTEX
  8
0
 10
3.13553
 20
11.015
 30
0.0
 40
0.00208333
 41
0.00208333
  0
VERTEX
  8
0
 10
3.34386
 20
11.015
 30
0.0
 40
0.00208333
 41
0.00208333
  0
VERTEX
  8
0
 10
3.34386
 20
10.3937
 30
0.0
 40
0.00208333
 41
0.00208333
  0
VERTEX
  8
0
 10
3.13553
 20
10.3937
 30
0.0
 40
0.00208333
 41
0.00208333
  0
VERTEX
  8
0
 10
3.13553
 20
11.015
 30
0.0
 40
0.00208333
 41
0.00208333
  0
SEQEND
 8
0
  0
POLYLINE
  8
0
 62
     0
 66
     1
 10
0
 20
0
 30
0.0
 70
     1
 40
0
 41
0
  0
VERTEX
  8
0
 10
3.29531
 20
3.47601
 30
0.0
 40
0
 41
0
  0
VERTEX
  8
0
 10
3.29531
 20
10.3937
 30
0.0
 40
0
 41
0
  0
VERTEX
  8
0
 10
3.20156
 20
10.3937
 30
0.0
 40
0
 41
0
  0
VERTEX
  8
0
 10
3.20156
 20
3.56976
 30
0.0
 40
0
 41
0
  0
VERTEX
  8
0
 10
3.29531
 20
3.47601
 30
0.0
 40
0
 41
0
  0
SEQEND
 8
0
  0
POLYLINE
  8
0
 62
     0
 66
     1
 10
0
 20
0
 30
0.0
 70
     1
 40
0.15
 41
0.15
  0
VERTEX
  8
0
 10
3.29531
 20
3.47601
 30
0.0
 40
0.00208333
 41
0.00208333
  0
VERTEX
  8
0
 10
3.29531
 20
10.3937
 30
0.0
 40
0.00208333
 41
0.00208333
  0
VERTEX
  8
0
 10
3.20156
 20
10.3937
 30
0.0
 40
0.00208333
 41
0.00208333
  0
VERTEX
  8
0
 10
3.20156
 20
3.56976
 30
0.0
 40
0.00208333
 41
0.00208333
  0
VERTEX
  8
0
 10
3.29531
 20
3.47601
 30
0.0
 40
0.00208333
 41
0.00208333
  0
SEQEND
 8
0
  0
POLYLINE
  8
0
 62
     7
 66
     1
 10
0
 20
0
 30
0.0
 70
     1
 40
0
 41
0
  0
VERTEX
  8
0
 10
3.20156
 20
5.14561
 30
0.0
 40
0
 41
0
  0
VERTEX
  8
0
 10
3.29531
 20
5.14561
 30
0.0
 40
0
 41
0
  0
VERTEX
  8
0
 10
3.29531
 20
4.29269
 30
0.0
 40
0
 41
0
  0
VERTEX
  8
0
 10
3.20156
 20
4.29269
 30
0.0
 40
0
 41
0
  0
VERTEX
  8
0
 10
3.20156
 20
5.14561
 30
0.0
 40
0
 41
0
  0
SEQEND
 8
0
  0
POLYLINE
  8
0
 62
     0
 66
     1
 10
0
 20
0
 30
0.0
 70
     1
 40
0.75
 41
0.75
  0
VERTEX
  8
0
 10
3.20156
 20
5.14561
 30
0.0
 40
0.0104167
 41
0.0104167
  0
VERTEX
  8
0
 10
3.29531
 20
5.14561
 30
0.0
 40
0.0104167
 41
0.0104167
  0
VERTEX
  8
0
 10
3.29531
 20
4.29269
 30
0.0
 40
0.0104167
 41
0.0104167
  0
VERTEX
  8
0
 10
3.20156
 20
4.29269
 30
0.0
 40
0.0104167
 41
0.0104167
  0
VERTEX
  8
0
 10
3.20156
 20
5.14561
 30
0.0
 40
0.0104167
 41
0.0104167
  0
SEQEND
 8
0
  0
POLYLINE
  8
0
 62
     7
 66
     1
 10
0
 20
0
 30
0.0
 70
     1
 40
0
 41
0
  0
VERTEX
  8
0
 10
3.20156
 20
5.14561
 30
0.0
 40
0
 41
0
  0
VERTEX
  8
0
 10
3.29531
 20
5.14561
 30
0.0
 40
0
 41
0
  0
VERTEX
  8
0
 10
3.29531
 20
4.29269
 30
0.0
 40
0
 41
0
  0
VERTEX
  8
0
 10
3.20156
 20
4.29269
 30
0.0
 40
0
 41
0
  0
VERTEX
  8
0
 10
3.20156
 20
5.14561
 30
0.0
 40
0
 41
0
  0
SEQEND
 8
0
  0
POLYLINE
  8
0
 62
     0
 66
     1
 10
0
 20
0
 30
0.0
 70
     1
 40
0.75
 41
0.75
  0
VERTEX
  8
0
 10
3.20156
 20
5.14561
 30
0.0
 40
0.0104167
 41
0.0104167
  0
VERTEX
  8
0
 10
3.29531
 20
5.14561
 30
0.0
 40
0.0104167
 41
0.0104167
  0
VERTEX
  8
0
 10
3.29531
 20
4.29269
 30
0.0
 40
0.0104167
 41
0.0104167
  0
VERTEX
  8
0
 10
3.20156
 20
4.29269
 30
0.0
 40
0.0104167
 41
0.0104167
  0
VERTEX
  8
0
 10
3.20156
 20
5.14561
 30
0.0
 40
0.0104167
 41
0.0104167
  0
SEQEND
 8
0
  0
POLYLINE
  8
0
 62
     0
 66
     1
 10
0
 20
0
 30
0.0
 70
     1
 40
0.75
 41
0.75
  0
VERTEX
  8
0
 10
3.29531
 20
4.29269
 30
0.0
 40
0.0104167
 41
0.0104167
  0
VERTEX
  8
0
 10
3.34526
 20
4.29269
 30
0.0
 40
0.0104167
 41
0.0104167
  0
VERTEX
  8
0
 10
3.49517
 20
4.30604
 30
0.0
 40
0.0104167
 41
0.0104167
  0
VERTEX
  8
0
 10
3.66846
 20
4.34603
 30
0.0
 40
0.0104167
 41
0.0104167
  0
VERTEX
  8
0
 10
3.81506
 20
4.41265
 30
0.0
 40
0.0104167
 41
0.0104167
  0
VERTEX
  8
0
 10
3.93494
 20
4.50597
 30
0.0
 40
0.0104167
 41
0.0104167
  0
VERTEX
  8
0
 10
4.02826
 20
4.62592
 30
0.0
 40
0.0104167
 41
0.0104167
  0
VERTEX
  8
0
 10
4.09489
 20
4.77251
 30
0.0
 40
0.0104167
 41
0.0104167
  0
VERTEX
  8
0
 10
4.13488
 20
4.94575
 30
0.0
 40
0.0104167
 41
0.0104167
  0
VERTEX
  8
0
 10
4.14822
 20
5.09565
 30
0.0
 40
0.0104167
 41
0.0104167
  0
VERTEX
  8
0
 10
4.14822
 20
5.14561
 30
0.0
 40
0.0104167
 41
0.0104167
  0
VERTEX
  8
0
 10
3.29531
 20
5.14561
 30
0.0
 40
0.0104167
 41
0.0104167
  0
VERTEX
  8
0
 10
3.29531
 20
4.29269
 30
0.0
 40
0.0104167
 41
0.0104167
  0
SEQEND
 8
0
  0
POLYLINE
  8
0
 62
     7
 66
     1
 10
0
 20
0
 30
0.0
 70
     1
 40
0
 41
0
  0
VERTEX
  8
0
 10
3.20156
 20
7.68397
 30
0.0
 40
0
 41
0
  0
VERTEX
  8
0
 10
3.29531
 20
7.68397
 30
0.0
 40
0
 41
0
  0
VERTEX
  8
0
 10
3.29531
 20
6.7455
 30
0.0
 40
0
 41
0
  0
VERTEX
  8
0
 10
3.20156
 20
6.7455
 30
0.0
 40
0
 41
0
  0
VERTEX
  8
0
 10
3.20156
 20
7.68397
 30
0.0
 40
0
 41
0
  0
SEQEND
 8
0
  0
POLYLINE
  8
0
 62
     0
 66
     1
 10
0
 20
0
 30
0.0
 70
     1
 40
0.75
 41
0.75
  0
VERTEX
  8
0
 10
3.20156
 20
7.68397
 30
0.0
 40
0.0104167
 41
0.0104167
  0
VERTEX
  8
0
 10
3.29531
 20
7.68397
 30
0.0
 40
0.0104167
 41
0.0104167
  0
VERTEX
  8
0
 10
3.29531
 20
6.7455
 30
0.0
 40
0.0104167
 41
0.0104167
  0
VERTEX
  8
0
 10
3.20156
 20
6.7455
 30
0.0
 40
0.0104167
 41
0.0104167
  0
VERTEX
  8
0
 10
3.20156
 20
7.68397
 30
0.0
 40
0.0104167
 41
0.0104167
  0
SEQEND
 8
0
  0
POLYLINE
  8
0
 62
     7
 66
     1
 10
0
 20
0
 30
0.0
 70
     1
 40
0
 41
0
  0
VERTEX
  8
0
 10
3.20156
 20
7.68397
 30
0.0
 40
0
 41
0
  0
VERTEX
  8
0
 10
3.29531
 20
7.68397
 30
0.0
 40
0
 41
0
  0
VERTEX
  8
0
 10
3.29531
 20
6.7455
 30
0.0
 40
0
 41
0
  0
VERTEX
  8
0
 10
3.20156
 20
6.7455
 30
0.0
 40
0
 41
0
  0
VERTEX
  8
0
 10
3.20156
 20
7.68397
 30
0.0
 40
0
 41
0
  0
SEQEND
 8
0
  0
POLYLINE
  8
0
 62
     7
 66
     1
 10
0
 20
0
 30
0.0
 70
     1
 40
0.75
 41
0.75
  0
VERTEX
  8
0
 10
3.20156
 20
7.68397
 30
0.0
 40
0.0104167
 41
0.0104167
  0
VERTEX
  8
0
 10
3.29531
 20
7.68397
 30
0.0
 40
0.0104167
 41
0.0104167
  0
VERTEX
  8
0
 10
3.29531
 20
6.7455
 30
0.0
 40
0.0104167
 41
0.0104167
  0
VERTEX
  8
0
 10
3.20156
 20
6.7455
 30
0.0
 40
0.0104167
 41
0.0104167
  0
VERTEX
  8
0
 10
3.20156
 20
7.68397
 30
0.0
 40
0.0104167
 41
0.0104167
  0
SEQEND
 8
0
  0
POLYLINE
  8
0
 62
     7
 66
     1
 10
0
 20
0
 30
0.0
 70
     1
 40
0
 41
0
  0
VERTEX
  8
0
 10
3.11822
 20
8.1531
 30
0.0
 40
0
 41
0
  0
VERTEX
  8
0
 10
3.15989
 20
8.1531
 30
0.0
 40
0
 41
0
  0
VERTEX
  8
0
 10
3.15989
 20
7.21468
 30
0.0
 40
0
 41
0
  0
VERTEX
  8
0
 10
3.11822
 20
7.21468
 30
0.0
 40
0
 41
0
  0
VERTEX
  8
0
 10
3.11822
 20
8.1531
 30
0.0
 40
0
 41
0
  0
SEQEND
 8
0
  0
POLYLINE
  8
0
 62
     0
 66
     1
 10
0
 20
0
 30
0.0
 70
     1
 40
0.75
 41
0.75
  0
VERTEX
  8
0
 10
3.11822
 20
8.1531
 30
0.0
 40
0.0104167
 41
0.0104167
  0
VERTEX
  8
0
 10
3.15989
 20
8.1531
 30
0.0
 40
0.0104167
 41
0.0104167
  0
VERTEX
  8
0
 10
3.15989
 20
7.21468
 30
0.0
 40
0.0104167
 41
0.0104167
  0
VERTEX
  8
0
 10
3.11822
 20
7.21468
 30
0.0
 40
0.0104167
 41
0.0104167
  0
VERTEX
  8
0
 10
3.11822
 20
8.1531
 30
0.0
 40
0.0104167
 41
0.0104167
  0
SEQEND
 8
0
  0
POLYLINE
  8
0
 62
     7
 66
     1
 10
0
 20
0
 30
0.0
 70
     1
 40
0
 41
0
  0
VERTEX
  8
0
 10
3.20156
 20
10.3931
 30
0.0
 40
0
 41
0
  0
VERTEX
  8
0
 10
3.29531
 20
10.3931
 30
0.0
 40
0
 41
0
  0
VERTEX
  8
0
 10
3.29531
 20
9.44249
 30
0.0
 40
0
 41
0
  0
VERTEX
  8
0
 10
3.20156
 20
9.44249
 30
0.0
 40
0
 41
0
  0
VERTEX
  8
0
 10
3.20156
 20
10.3931
 30
0.0
 40
0
 41
0
  0
SEQEND
 8
0
  0
POLYLINE
  8
0
 62
     0
 66
     1
 10
0
 20
0
 30
0.0
 70
     1
 40
0.75
 41
0.75
  0
VERTEX
  8
0
 10
3.20156
 20
10.3931
 30
0.0
 40
0.0104167
 41
0.0104167
  0
VERTEX
  8
0
 10
3.29531
 20
10.3931
 30
0.0
 40
0.0104167
 41
0.0104167
  0
VERTEX
  8
0
 10
3.29531
 20
9.44249
 30
0.0
 40
0.0104167
 41
0.0104167
  0
VERTEX
  8
0
 10
3.20156
 20
9.44249
 30
0.0
 40
0.0104167
 41
0.0104167
  0
VERTEX
  8
0
 10
3.20156
 20
10.3931
 30
0.0
 40
0.0104167
 41
0.0104167
  0
SEQEND
 8
0
  0
POLYLINE
  8
0
 62
     7
 66
     1
 10
0
 20
0
 30
0.0
 70
     1
 40
0
 41
0
  0
VERTEX
  8
0
 10
3.20156
 20
10.3931
 30
0.0
 40
0
 41
0
  0
VERTEX
  8
0
 10
3.29531
 20
10.3931
 30
0.0
 40
0
 41
0
  0
VERTEX
  8
0
 10
3.29531
 20
9.44249
 30
0.0
 40
0
 41
0
  0
VERTEX
  8
0
 10
3.20156
 20
9.44249
 30
0.0
 40
0
 41
0
  0
VERTEX
  8
0
 10
3.20156
 20
10.3931
 30
0.0
 40
0
 41
0
  0
SEQEND
 8
0
  0
POLYLINE
  8
0
 62
     7
 66
     1
 10
0
 20
0
 30
0.0
 70
     1
 40
0.75
 41
0.75
  0
VERTEX
  8
0
 10
3.20156
 20
10.3931
 30
0.0
 40
0.0104167
 41
0.0104167
  0
VERTEX
  8
0
 10
3.29531
 20
10.3931
 30
0.0
 40
0.0104167
 41
0.0104167
  0
VERTEX
  8
0
 10
3.29531
 20
9.44249
 30
0.0
 40
0.0104167
 41
0.0104167
  0
VERTEX
  8
0
 10
3.20156
 20
9.44249
 30
0.0
 40
0.0104167
 41
0.0104167
  0
VERTEX
  8
0
 10
3.20156
 20
10.3931
 30
0.0
 40
0.0104167
 41
0.0104167
  0
SEQEND
 8
0
  0
POLYLINE
  8
0
 62
     7
 66
     1
 10
0
 20
0
 30
0.0
 70
     1
 40
0
 41
0
  0
VERTEX
  8
0
 10
3.11822
 20
9.91781
 30
0.0
 40
0
 41
0
  0
VERTEX
  8
0
 10
3.15989
 20
9.91781
 30
0.0
 40
0
 41
0
  0
VERTEX
  8
0
 10
3.15989
 20
8.96718
 30
0.0
 40
0
 41
0
  0
VERTEX
  8
0
 10
3.11822
 20
8.96718
 30
0.0
 40
0
 41
0
  0
VERTEX
  8
0
 10
3.11822
 20
9.91781
 30
0.0
 40
0
 41
0
  0
SEQEND
 8
0
  0
POLYLINE
  8
0
 62
     0
 66
     1
 10
0
 20
0
 30
0.0
 70
     1
 40
0.75
 41
0.75
  0
VERTEX
  8
0
 10
3.11822
 20
9.91781
 30
0.0
 40
0.0104167
 41
0.0104167
  0
VERTEX
  8
0
 10
3.15989
 20
9.91781
 30
0.0
 40
0.0104167
 41
0.0104167
  0
VERTEX
  8
0
 10
3.15989
 20
8.96718
 30
0.0
 40
0.0104167
 41
0.0104167
  0
VERTEX
  8
0
 10
3.11822
 20
8.96718
 30
0.0
 40
0.0104167
 41
0.0104167
  0
VERTEX
  8
0
 10
3.11822
 20
9.91781
 30
0.0
 40
0.0104167
 41
0.0104167
  0
SEQEND
 8
0
  0
POLYLINE
  8
0
 62
     0
 66
     1
 10
0
 20
0
 30
0.0
 70
     1
 40
0
 41
0
  0
VERTEX
  8
0
 10
1.11833
 20
6.10596
 30
0.0
 40
0
 41
0
  0
VERTEX
  8
0
 10
3.29531
 20
6.10596
 30
0.0
 40
0
 41
0
  0
VERTEX
  8
0
 10
3.29531
 20
6.00179
 30
0.0
 40
0
 41
0
  0
VERTEX
  8
0
 10
1.11833
 20
6.00179
 30
0.0
 40
0
 41
0
  0
VERTEX
  8
0
 10
1.11833
 20
6.10596
 30
0.0
 40
0
 41
0
  0
SEQEND
 8
0
  0
POLYLINE
  8
0
 62
     0
 66
     1
 10
0
 20
0
 30
0.0
 70
     1
 40
0.15
 41
0.15
  0
VERTEX
  8
0
 10
1.11833
 20
6.10596
 30
0.0
 40
0.00208333
 41
0.00208333
  0
VERTEX
  8
0
 10
3.29531
 20
6.10596
 30
0.0
 40
0.00208333
 41
0.00208333
  0
VERTEX
  8
0
 10
3.29531
 20
6.00179
 30
0.0
 40
0.00208333
 41
0.00208333
  0
VERTEX
  8
0
 10
1.11833
 20
6.00179
 30
0.0
 40
0.00208333
 41
0.00208333
  0
VERTEX
  8
0
 10
1.11833
 20
6.10596
 30
0.0
 40
0.00208333
 41
0.00208333
  0
SEQEND
 8
0
  0
POLYLINE
  8
0
 62
     0
 66
     1
 10
0
 20
0
 30
0.0
 70
     1
 40
0
 41
0
  0
VERTEX
  8
0
 10
0.583333
 20
6.10596
 30
0.0
 40
0
 41
0
  0
VERTEX
  8
0
 10
1.11833
 20
6.10596
 30
0.0
 40
0
 41
0
  0
VERTEX
  8
0
 10
1.11833
 20
5.66803
 30
0.0
 40
0
 41
0
  0
VERTEX
  8
0
 10
0.583333
 20
5.66803
 30
0.0
 40
0
 41
0
  0
VERTEX
  8
0
 10
0.583333
 20
6.10596
 30
0.0
 40
0
 41
0
  0
SEQEND
 8
0
  0
POLYLINE
  8
0
 62
     0
 66
     1
 10
0
 20
0
 30
0.0
 70
     1
 40
0.15
 41
0.15
  0
VERTEX
  8
0
 10
0.583333
 20
6.10596
 30
0.0
 40
0.00208333
 41
0.00208333
  0
VERTEX
  8
0
 10
1.11833
 20
6.10596
 30
0.0
 40
0.00208333
 41
0.00208333
  0
VERTEX
  8
0
 10
1.11833
 20
5.66803
 30
0.0
 40
0.00208333
 41
0.00208333
  0
VERTEX
  8
0
 10
0.583333
 20
5.66803
 30
0.0
 40
0.00208333
 41
0.00208333
  0
VERTEX
  8
0
 10
0.583333
 20
6.10596
 30
0.0
 40
0.00208333
 41
0.00208333
  0
SEQEND
 8
0
  0
POLYLINE
  8
0
 62
     0
 66
     1
 10
0
 20
0
 30
0.0
 70
     1
 40
0
 41
0
  0
VERTEX
  8
0
 10
0.864367
 20
1.93311
 30
0.0
 40
0
 41
0
  0
VERTEX
  8
0
 10
0.864367
 20
3.47601
 30
0.0
 40
0
 41
0
  0
VERTEX
  8
0
 10
0.583333
 20
3.47601
 30
0.0
 40
0
 41
0
  0
VERTEX
  8
0
 10
0.583333
 20
1.6524
 30
0.0
 40
0
 41
0
  0
VERTEX
  8
0
 10
0.864367
 20
1.93311
 30
0.0
 40
0
 41
0
  0
SEQEND
 8
0
  0
POLYLINE
  8
0
 62
     0
 66
     1
 10
0
 20
0
 30
0.0
 70
     1
 40
0.15
 41
0.15
  0
VERTEX
  8
0
 10
0.864367
 20
1.93311
 30
0.0
 40
0.00208333
 41
0.00208333
  0
VERTEX
  8
0
 10
0.864367
 20
3.47601
 30
0.0
 40
0.00208333
 41
0.00208333
  0
VERTEX
  8
0
 10
0.583333
 20
3.47601
 30
0.0
 40
0.00208333
 41
0.00208333
  0
VERTEX
  8
0
 10
0.583333
 20
1.6524
 30
0.0
 40
0.00208333
 41
0.00208333
  0
VERTEX
  8
0
 10
0.864367
 20
1.93311
 30
0.0
 40
0.00208333
 41
0.00208333
  0
SEQEND
 8
0
  0
POLYLINE
  8
0
 62
     0
 66
     1
 10
0
 20
0
 30
0.0
 70
     1
 40
0
 41
0
  0
VERTEX
  8
0
 10
0.780436
 20
3.47601
 30
0.0
 40
0
 41
0
  0
VERTEX
  8
0
 10
0.780436
 20
10.5566
 30
0.0
 40
0
 41
0
  0
VERTEX
  8
0
 10
0.583333
 20
11.0852
 30
0.0
 40
0
 41
0
  0
VERTEX
  8
0
 10
0.583333
 20
3.47601
 30
0.0
 40
0
 41
0
  0
VERTEX
  8
0
 10
0.780436
 20
3.47601
 30
0.0
 40
0
 41
0
  0
SEQEND
 8
0
  0
POLYLINE
  8
0
 62
     0
 66
     1
 10
0
 20
0
 30
0.0
 70
     1
 40
0.15
 41
0.15
  0
VERTEX
  8
0
 10
0.780436
 20
3.47601
 30
0.0
 40
0.00208333
 41
0.00208333
  0
VERTEX
  8
0
 10
0.780436
 20
10.5566
 30
0.0
 40
0.00208333
 41
0.00208333
  0
VERTEX
  8
0
 10
0.583333
 20
11.0852
 30
0.0
 40
0.00208333
 41
0.00208333
  0
VERTEX
  8
0
 10
0.583333
 20
3.47601
 30
0.0
 40
0.00208333
 41
0.00208333
  0
VERTEX
  8
0
 10
0.780436
 20
3.47601
 30
0.0
 40
0.00208333
 41
0.00208333
  0
SEQEND
 8
0
  0
POLYLINE
  8
0
 62
     0
 66
     1
 10
0
 20
0
 30
0.0
 70
     1
 40
0
 41
0
  0
VERTEX
  8
0
 10
4.96593
 20
1.85813
 30
0.0
 40
0
 41
0
  0
VERTEX
  8
0
 10
2.77126
 20
1.85813
 30
0.0
 40
0
 41
0
  0
VERTEX
  8
0
 10
2.77126
 20
1.6524
 30
0.0
 40
0
 41
0
  0
VERTEX
  8
0
 10
4.74718
 20
1.6524
 30
0.0
 40
0
 41
0
  0
VERTEX
  8
0
 10
4.96593
 20
1.85813
 30
0.0
 40
0
 41
0
  0
SEQEND
 8
0
  0
POLYLINE
  8
0
 62
     0
 66
     1
 10
0
 20
0
 30
0.0
 70
     1
 40
0.15
 41
0.15
  0
VERTEX
  8
0
 10
4.96593
 20
1.85813
 30
0.0
 40
0.00208333
 41
0.00208333
  0
VERTEX
  8
0
 10
2.77126
 20
1.85813
 30
0.0
 40
0.00208333
 41
0.00208333
  0
VERTEX
  8
0
 10
2.77126
 20
1.6524
 30
0.0
 40
0.00208333
 41
0.00208333
  0
VERTEX
  8
0
 10
4.74718
 20
1.6524
 30
0.0
 40
0.00208333
 41
0.00208333
  0
VERTEX
  8
0
 10
4.96593
 20
1.85813
 30
0.0
 40
0.00208333
 41
0.00208333
  0
SEQEND
 8
0
  0
POLYLINE
  8
0
 62
     7
 66
     1
 10
0
 20
0
 30
0.0
 70
     1
 40
0
 41
0
  0
VERTEX
  8
0
 10
3.75603
 20
1.85813
 30
0.0
 40
0
 41
0
  0
VERTEX
  8
0
 10
4.70697
 20
1.85813
 30
0.0
 40
0
 41
0
  0
VERTEX
  8
0
 10
4.70697
 20
1.6524
 30
0.0
 40
0
 41
0
  0
VERTEX
  8
0
 10
3.75603
 20
1.6524
 30
0.0
 40
0
 41
0
  0
VERTEX
  8
0
 10
3.75603
 20
1.85813
 30
0.0
 40
0
 41
0
  0
SEQEND
 8
0
  0
POLYLINE
  8
0
 62
     0
 66
     1
 10
0
 20
0
 30
0.0
 70
     1
 40
0.75
 41
0.75
  0
VERTEX
  8
0
 10
3.75603
 20
1.85813
 30
0.0
 40
0.0104167
 41
0.0104167
  0
VERTEX
  8
0
 10
4.70697
 20
1.85813
 30
0.0
 40
0.0104167
 41
0.0104167
  0
VERTEX
  8
0
 10
4.70697
 20
1.6524
 30
0.0
 40
0.0104167
 41
0.0104167
  0
VERTEX
  8
0
 10
3.75603
 20
1.6524
 30
0.0
 40
0.0104167
 41
0.0104167
  0
VERTEX
  8
0
 10
3.75603
 20
1.85813
 30
0.0
 40
0.0104167
 41
0.0104167
  0
SEQEND
 8
0
  0
POLYLINE
  8
0
 62
     7
 66
     1
 10
0
 20
0
 30
0.0
 70
     1
 40
0
 41
0
  0
VERTEX
  8
0
 10
3.75603
 20
1.85813
 30
0.0
 40
0
 41
0
  0
VERTEX
  8
0
 10
4.70697
 20
1.85813
 30
0.0
 40
0
 41
0
  0
VERTEX
  8
0
 10
4.70697
 20
1.6524
 30
0.0
 40
0
 41
0
  0
VERTEX
  8
0
 10
3.75603
 20
1.6524
 30
0.0
 40
0
 41
0
  0
VERTEX
  8
0
 10
3.75603
 20
1.85813
 30
0.0
 40
0
 41
0
  0
SEQEND
 8
0
  0
POLYLINE
  8
0
 62
     0
 66
     1
 10
0
 20
0
 30
0.0
 70
     1
 40
0.75
 41
0.75
  0
VERTEX
  8
0
 10
3.75603
 20
1.85813
 30
0.0
 40
0.0104167
 41
0.0104167
  0
VERTEX
  8
0
 10
4.70697
 20
1.85813
 30
0.0
 40
0.0104167
 41
0.0104167
  0
VERTEX
  8
0
 10
4.70697
 20
1.6524
 30
0.0
 40
0.0104167
 41
0.0104167
  0
VERTEX
  8
0
 10
3.75603
 20
1.6524
 30
0.0
 40
0.0104167
 41
0.0104167
  0
VERTEX
  8
0
 10
3.75603
 20
1.85813
 30
0.0
 40
0.0104167
 41
0.0104167
  0
SEQEND
 8
0
  0
POLYLINE
  8
0
 62
     0
 66
     1
 10
0
 20
0
 30
0.0
 70
     1
 40
0.75
 41
0.75
  0
VERTEX
  8
0
 10
3.75603
 20
1.6524
 30
0.0
 40
0.0104167
 41
0.0104167
  0
VERTEX
  8
0
 10
3.75603
 20
1.59668
 30
0.0
 40
0.0104167
 41
0.0104167
  0
VERTEX
  8
0
 10
3.77083
 20
1.42953
 30
0.0
 40
0.0104167
 41
0.0104167
  0
VERTEX
  8
0
 10
3.81543
 20
1.23638
 30
0.0
 40
0.0104167
 41
0.0104167
  0
VERTEX
  8
0
 10
3.88971
 20
1.07297
 30
0.0
 40
0.0104167
 41
0.0104167
  0
VERTEX
  8
0
 10
3.99376
 20
0.939236
 30
0.0
 40
0.0104167
 41
0.0104167
  0
VERTEX
  8
0
 10
4.1275
 20
0.835178
 30
0.0
 40
0.0104167
 41
0.0104167
  0
VERTEX
  8
0
 10
4.2909
 20
0.760906
 30
0.0
 40
0.0104167
 41
0.0104167
  0
VERTEX
  8
0
 10
4.48406
 20
0.716308
 30
0.0
 40
0.0104167
 41
0.0104167
  0
VERTEX
  8
0
 10
4.65121
 20
0.701443
 30
0.0
 40
0.0104167
 41
0.0104167
  0
VERTEX
  8
0
 10
4.70697
 20
0.701443
 30
0.0
 40
0.0104167
 41
0.0104167
  0
VERTEX
  8
0
 10
4.70697
 20
1.6524
 30
0.0
 40
0.0104167
 41
0.0104167
  0
VERTEX
  8
0
 10
3.75603
 20
1.6524
 30
0.0
 40
0.0104167
 41
0.0104167
  0
SEQEND
 8
0
  0
POLYLINE
  8
0
 62
     0
 66
     1
 10
0
 20
0
 30
0.0
 70
     1
 40
0
 41
0
  0
VERTEX
  8
0
 10
2.77126
 20
1.93311
 30
0.0
 40
0
 41
0
  0
VERTEX
  8
0
 10
0.864367
 20
1.93311
 30
0.0
 40
0
 41
0
  0
VERTEX
  8
0
 10
0.583333
 20
1.6524
 30
0.0
 40
0
 41
0
  0
VERTEX
  8
0
 10
2.77126
 20
1.6524
 30
0.0
 40
0
 41
0
  0
VERTEX
  8
0
 10
2.77126
 20
1.93311
 30
0.0
 40
0
 41
0
  0
SEQEND
 8
0
  0
POLYLINE
  8
0
 62
     0
 66
     1
 10
0
 20
0
 30
0.0
 70
     1
 40
0.15
 41
0.15
  0
VERTEX
  8
0
 10
2.77126
 20
1.93311
 30
0.0
 40
0.00208333
 41
0.00208333
  0
VERTEX
  8
0
 10
0.864367
 20
1.93311
 30
0.0
 40
0.00208333
 41
0.00208333
  0
VERTEX
  8
0
 10
0.583333
 20
1.6524
 30
0.0
 40
0.00208333
 41
0.00208333
  0
VERTEX
  8
0
 10
2.77126
 20
1.6524
 30
0.0
 40
0.00208333
 41
0.00208333
  0
VERTEX
  8
0
 10
2.77126
 20
1.93311
 30
0.0
 40
0.00208333
 41
0.00208333
  0
SEQEND
 8
0
  0
POLYLINE
  8
0
 62
     0
 66
     1
 10
0
 20
0
 30
0.0
 70
     1
 40
0
 41
0
  0
VERTEX
  8
0
 10
3.29531
 20
3.47601
 30
0.0
 40
0
 41
0
  0
VERTEX
  8
0
 10
2.77126
 20
3.47601
 30
0.0
 40
0
 41
0
  0
VERTEX
  8
0
 10
2.77126
 20
3.56976
 30
0.0
 40
0
 41
0
  0
VERTEX
  8
0
 10
3.20156
 20
3.56976
 30
0.0
 40
0
 41
0
  0
VERTEX
  8
0
 10
3.29531
 20
3.47601
 30
0.0
 40
0
 41
0
  0
SEQEND
 8
0
  0
POLYLINE
  8
0
 62
     0
 66
     1
 10
0
 20
0
 30
0.0
 70
     1
 40
0.15
 41
0.15
  0
VERTEX
  8
0
 10
3.29531
 20
3.47601
 30
0.0
 40
0.00208333
 41
0.00208333
  0
VERTEX
  8
0
 10
2.77126
 20
3.47601
 30
0.0
 40
0.00208333
 41
0.00208333
  0
VERTEX
  8
0
 10
2.77126
 20
3.56976
 30
0.0
 40
0.00208333
 41
0.00208333
  0
VERTEX
  8
0
 10
3.20156
 20
3.56976
 30
0.0
 40
0.00208333
 41
0.00208333
  0
VERTEX
  8
0
 10
3.29531
 20
3.47601
 30
0.0
 40
0.00208333
 41
0.00208333
  0
SEQEND
 8
0
  0
POLYLINE
  8
0
 62
     0
 66
     1
 10
0
 20
0
 30
0.0
 70
     1
 40
0
 41
0
  0
VERTEX
  8
0
 10
0.583333
 20
3.56976
 30
0.0
 40
0
 41
0
  0
VERTEX
  8
0
 10
2.77126
 20
3.56976
 30
0.0
 40
0
 41
0
  0
VERTEX
  8
0
 10
2.77126
 20
3.43419
 30
0.0
 40
0
 41
0
  0
VERTEX
  8
0
 10
0.583333
 20
3.43419
 30
0.0
 40
0
 41
0
  0
VERTEX
  8
0
 10
0.583333
 20
3.56976
 30
0.0
 40
0
 41
0
  0
SEQEND
 8
0
  0
POLYLINE
  8
0
 62
     0
 66
     1
 10
0
 20
0
 30
0.0
 70
     1
 40
0.15
 41
0.15
  0
VERTEX
  8
0
 10
0.583333
 20
3.56976
 30
0.0
 40
0.00208333
 41
0.00208333
  0
VERTEX
  8
0
 10
2.77126
 20
3.56976
 30
0.0
 40
0.00208333
 41
0.00208333
  0
VERTEX
  8
0
 10
2.77126
 20
3.43419
 30
0.0
 40
0.00208333
 41
0.00208333
  0
VERTEX
  8
0
 10
0.583333
 20
3.43419
 30
0.0
 40
0.00208333
 41
0.00208333
  0
VERTEX
  8
0
 10
0.583333
 20
3.56976
 30
0.0
 40
0.00208333
 41
0.00208333
  0
SEQEND
 8
0
  0
POLYLINE
  8
0
 62
     7
 66
     1
 10
0
 20
0
 30
0.0
 70
     1
 40
0
 41
0
  0
VERTEX
  8
0
 10
1.73438
 20
3.56976
 30
0.0
 40
0
 41
0
  0
VERTEX
  8
0
 10
2.56136
 20
3.56976
 30
0.0
 40
0
 41
0
  0
VERTEX
  8
0
 10
2.56136
 20
3.43419
 30
0.0
 40
0
 41
0
  0
VERTEX
  8
0
 10
1.73438
 20
3.43419
 30
0.0
 40
0
 41
0
  0
VERTEX
  8
0
 10
1.73438
 20
3.56976
 30
0.0
 40
0
 41
0
  0
SEQEND
 8
0
  0
POLYLINE
  8
0
 62
     0
 66
     1
 10
0
 20
0
 30
0.0
 70
     1
 40
0.75
 41
0.75
  0
VERTEX
  8
0
 10
1.73438
 20
3.56976
 30
0.0
 40
0.0104167
 41
0.0104167
  0
VERTEX
  8
0
 10
2.56136
 20
3.56976
 30
0.0
 40
0.0104167
 41
0.0104167
  0
VERTEX
  8
0
 10
2.56136
 20
3.43419
 30
0.0
 40
0.0104167
 41
0.0104167
  0
VERTEX
  8
0
 10
1.73438
 20
3.43419
 30
0.0
 40
0.0104167
 41
0.0104167
  0
VERTEX
  8
0
 10
1.73438
 20
3.56976
 30
0.0
 40
0.0104167
 41
0.0104167
  0
SEQEND
 8
0
  0
POLYLINE
  8
0
 62
     7
 66
     1
 10
0
 20
0
 30
0.0
 70
     1
 40
0
 41
0
  0
VERTEX
  8
0
 10
1.73438
 20
3.56976
 30
0.0
 40
0
 41
0
  0
VERTEX
  8
0
 10
2.56136
 20
3.56976
 30
0.0
 40
0
 41
0
  0
VERTEX
  8
0
 10
2.56136
 20
3.43419
 30
0.0
 40
0
 41
0
  0
VERTEX
  8
0
 10
1.73438
 20
3.43419
 30
0.0
 40
0
 41
0
  0
VERTEX
  8
0
 10
1.73438
 20
3.56976
 30
0.0
 40
0
 41
0
  0
SEQEND
 8
0
  0
POLYLINE
  8
0
 62
     0
 66
     1
 10
0
 20
0
 30
0.0
 70
     1
 40
0.75
 41
0.75
  0
VERTEX
  8
0
 10
1.73438
 20
3.56976
 30
0.0
 40
0.0104167
 41
0.0104167
  0
VERTEX
  8
0
 10
2.56136
 20
3.56976
 30
0.0
 40
0.0104167
 41
0.0104167
  0
VERTEX
  8
0
 10
2.56136
 20
3.43419
 30
0.0
 40
0.0104167
 41
0.0104167
  0
VERTEX
  8
0
 10
1.73438
 20
3.43419
 30
0.0
 40
0.0104167
 41
0.0104167
  0
VERTEX
  8
0
 10
1.73438
 20
3.56976
 30
0.0
 40
0.0104167
 41
0.0104167
  0
SEQEND
 8
0
  0
POLYLINE
  8
0
 62
     0
 66
     1
 10
0
 20
0
 30
0.0
 70
     1
 40
0.75
 41
0.75
  0
VERTEX
  8
0
 10
1.73438
 20
3.56976
 30
0.0
 40
0.0104167
 41
0.0104167
  0
VERTEX
  8
0
 10
1.73438
 20
3.61828
 30
0.0
 40
0.0104167
 41
0.0104167
  0
VERTEX
  8
0
 10
1.74729
 20
3.76361
 30
0.0
 40
0.0104167
 41
0.0104167
  0
VERTEX
  8
0
 10
1.78603
 20
3.93158
 30
0.0
 40
0.0104167
 41
0.0104167
  0
VERTEX
  8
0
 10
1.85064
 20
4.07374
 30
0.0
 40
0.0104167
 41
0.0104167
  0
VERTEX
  8
0
 10
1.94108
 20
4.19006
 30
0.0
 40
0.0104167
 41
0.0104167
  0
VERTEX
  8
0
 10
2.0574
 20
4.28049
 30
0.0
 40
0.0104167
 41
0.0104167
  0
VERTEX
  8
0
 10
2.19954
 20
4.34511
 30
0.0
 40
0.0104167
 41
0.0104167
  0
VERTEX
  8
0
 10
2.36751
 20
4.38385
 30
0.0
 40
0.0104167
 41
0.0104167
  0
VERTEX
  8
0
 10
2.51286
 20
4.39675
 30
0.0
 40
0.0104167
 41
0.0104167
  0
VERTEX
  8
0
 10
2.56136
 20
4.39675
 30
0.0
 40
0.0104167
 41
0.0104167
  0
VERTEX
  8
0
 10
2.56136
 20
3.56976
 30
0.0
 40
0.0104167
 41
0.0104167
  0
VERTEX
  8
0
 10
1.73438
 20
3.56976
 30
0.0
 40
0.0104167
 41
0.0104167
  0
SEQEND
 8
0
  0
POLYLINE
  8
0
 62
     0
 66
     1
 10
0
 20
0
 30
0.0
 70
     1
 40
0
 41
0
  0
VERTEX
  8
0
 10
2.63857
 20
3.56976
 30
0.0
 40
0
 41
0
  0
VERTEX
  8
0
 10
2.77126
 20
3.56976
 30
0.0
 40
0
 41
0
  0
VERTEX
  8
0
 10
2.77126
 20
1.6524
 30
0.0
 40
0
 41
0
  0
VERTEX
  8
0
 10
2.63857
 20
1.6524
 30
0.0
 40
0
 41
0
  0
VERTEX
  8
0
 10
2.63857
 20
3.56976
 30
0.0
 40
0
 41
0
  0
SEQEND
 8
0
  0
POLYLINE
  8
0
 62
     0
 66
     1
 10
0
 20
0
 30
0.0
 70
     1
 40
0.15
 41
0.15
  0
VERTEX
  8
0
 10
2.63857
 20
3.56976
 30
0.0
 40
0.00208333
 41
0.00208333
  0
VERTEX
  8
0
 10
2.77126
 20
3.56976
 30
0.0
 40
0.00208333
 41
0.00208333
  0
VERTEX
  8
0
 10
2.77126
 20
1.6524
 30
0.0
 40
0.00208333
 41
0.00208333
  0
VERTEX
  8
0
 10
2.63857
 20
1.6524
 30
0.0
 40
0.00208333
 41
0.00208333
  0
VERTEX
  8
0
 10
2.63857
 20
3.56976
 30
0.0
 40
0.00208333
 41
0.00208333
  0
SEQEND
 8
0
  0
POLYLINE
  8
0
 62
     0
 66
     1
 10
0
 20
0
 30
0.0
 70
     1
 40
0
 41
0
  0
VERTEX
  8
0
 10
4.83789
 20
2.18604
 30
0.0
 40
0
 41
0
  0
VERTEX
  8
0
 10
5.27647
 20
2.18604
 30
0.0
 40
0
 41
0
  0
VERTEX
  8
0
 10
5.27647
 20
1.75136
 30
0.0
 40
0
 41
0
  0
VERTEX
  8
0
 10
4.83789
 20
1.75136
 30
0.0
 40
0
 41
0
  0
VERTEX
  8
0
 10
4.83789
 20
2.18604
 30
0.0
 40
0
 41
0
  0
SEQEND
 8
0
  0
POLYLINE
  8
0
 62
     0
 66
     1
 10
0
 20
0
 30
0.0
 70
     1
 40
0.15
 41
0.15
  0
VERTEX
  8
0
 10
4.83789
 20
2.18604
 30
0.0
 40
0.00208333
 41
0.00208333
  0
VERTEX
  8
0
 10
5.27647
 20
2.18604
 30
0.0
 40
0.00208333
 41
0.00208333
  0
VERTEX
  8
0
 10
5.27647
 20
1.75136
 30
0.0
 40
0.00208333
 41
0.00208333
  0
VERTEX
  8
0
 10
4.83789
 20
1.75136
 30
0.0
 40
0.00208333
 41
0.00208333
  0
VERTEX
  8
0
 10
4.83789
 20
2.18604
 30
0.0
 40
0.00208333
 41
0.00208333
  0
SEQEND
 8
0
  0
POLYLINE
  8
0
 62
     0
 66
     1
 10
0
 20
0
 30
0.0
 70
     1
 40
0
 41
0
  0
VERTEX
  8
0
 10
4.83789
 20
3.55583
 30
0.0
 40
0
 41
0
  0
VERTEX
  8
0
 10
4.96289
 20
3.55583
 30
0.0
 40
0
 41
0
  0
VERTEX
  8
0
 10
4.96289
 20
2.18604
 30
0.0
 40
0
 41
0
  0
VERTEX
  8
0
 10
4.83789
 20
2.18604
 30
0.0
 40
0
 41
0
  0
VERTEX
  8
0
 10
4.83789
 20
3.55583
 30
0.0
 40
0
 41
0
  0
SEQEND
 8
0
  0
POLYLINE
  8
0
 62
     0
 66
     1
 10
0
 20
0
 30
0.0
 70
     1
 40
0.15
 41
0.15
  0
VERTEX
  8
0
 10
4.83789
 20
3.55583
 30
0.0
 40
0.00208333
 41
0.00208333
  0
VERTEX
  8
0
 10
4.96289
 20
3.55583
 30
0.0
 40
0.00208333
 41
0.00208333
  0
VERTEX
  8
0
 10
4.96289
 20
2.18604
 30
0.0
 40
0.00208333
 41
0.00208333
  0
VERTEX
  8
0
 10
4.83789
 20
2.18604
 30
0.0
 40
0.00208333
 41
0.00208333
  0
VERTEX
  8
0
 10
4.83789
 20
3.55583
 30
0.0
 40
0.00208333
 41
0.00208333
  0
SEQEND
 8
0
  0
POLYLINE
  8
0
 62
     0
 66
     1
 10
0
 20
0
 30
0.0
 70
     1
 40
0
 41
0
  0
VERTEX
  8
0
 10
7.43093
 20
11.015
 30
0.0
 40
0
 41
0
  0
VERTEX
  8
0
 10
7.43093
 20
14.2251
 30
0.0
 40
0
 41
0
  0
VERTEX
  8
0
 10
7.0976
 20
13.8815
 30
0.0
 40
0
 41
0
  0
VERTEX
  8
0
 10
7.0976
 20
11.015
 30
0.0
 40
0
 41
0
  0
VERTEX
  8
0
 10
7.43093
 20
11.015
 30
0.0
 40
0
 41
0
  0
SEQEND
 8
0
  0
POLYLINE
  8
0
 62
     0
 66
     1
 10
0
 20
0
 30
0.0
 70
     1
 40
0.15
 41
0.15
  0
VERTEX
  8
0
 10
7.43093
 20
11.015
 30
0.0
 40
0.00208333
 41
0.00208333
  0
VERTEX
  8
0
 10
7.43093
 20
14.2251
 30
0.0
 40
0.00208333
 41
0.00208333
  0
VERTEX
  8
0
 10
7.0976
 20
13.8815
 30
0.0
 40
0.00208333
 41
0.00208333
  0
VERTEX
  8
0
 10
7.0976
 20
11.015
 30
0.0
 40
0.00208333
 41
0.00208333
  0
VERTEX
  8
0
 10
7.43093
 20
11.015
 30
0.0
 40
0.00208333
 41
0.00208333
  0
SEQEND
 8
0
  0
POLYLINE
  8
0
 62
     7
 66
     1
 10
0
 20
0
 30
0.0
 70
     1
 40
0
 41
0
  0
VERTEX
  8
0
 10
7.0976
 20
12.93
 30
0.0
 40
0
 41
0
  0
VERTEX
  8
0
 10
7.43093
 20
12.93
 30
0.0
 40
0
 41
0
  0
VERTEX
  8
0
 10
7.43093
 20
11.9959
 30
0.0
 40
0
 41
0
  0
VERTEX
  8
0
 10
7.0976
 20
11.9959
 30
0.0
 40
0
 41
0
  0
VERTEX
  8
0
 10
7.0976
 20
12.93
 30
0.0
 40
0
 41
0
  0
SEQEND
 8
0
  0
POLYLINE
  8
0
 62
     0
 66
     1
 10
0
 20
0
 30
0.0
 70
     1
 40
0.75
 41
0.75
  0
VERTEX
  8
0
 10
7.0976
 20
12.93
 30
0.0
 40
0.0104167
 41
0.0104167
  0
VERTEX
  8
0
 10
7.43093
 20
12.93
 30
0.0
 40
0.0104167
 41
0.0104167
  0
VERTEX
  8
0
 10
7.43093
 20
11.9959
 30
0.0
 40
0.0104167
 41
0.0104167
  0
VERTEX
  8
0
 10
7.0976
 20
11.9959
 30
0.0
 40
0.0104167
 41
0.0104167
  0
VERTEX
  8
0
 10
7.0976
 20
12.93
 30
0.0
 40
0.0104167
 41
0.0104167
  0
SEQEND
 8
0
  0
POLYLINE
  8
0
 62
     7
 66
     1
 10
0
 20
0
 30
0.0
 70
     1
 40
0
 41
0
  0
VERTEX
  8
0
 10
7.0976
 20
12.93
 30
0.0
 40
0
 41
0
  0
VERTEX
  8
0
 10
7.43093
 20
12.93
 30
0.0
 40
0
 41
0
  0
VERTEX
  8
0
 10
7.43093
 20
11.9959
 30
0.0
 40
0
 41
0
  0
VERTEX
  8
0
 10
7.0976
 20
11.9959
 30
0.0
 40
0
 41
0
  0
VERTEX
  8
0
 10
7.0976
 20
12.93
 30
0.0
 40
0
 41
0
  0
SEQEND
 8
0
  0
POLYLINE
  8
0
 62
     0
 66
     1
 10
0
 20
0
 30
0.0
 70
     1
 40
0.75
 41
0.75
  0
VERTEX
  8
0
 10
7.0976
 20
12.93
 30
0.0
 40
0.0104167
 41
0.0104167
  0
VERTEX
  8
0
 10
7.43093
 20
12.93
 30
0.0
 40
0.0104167
 41
0.0104167
  0
VERTEX
  8
0
 10
7.43093
 20
11.9959
 30
0.0
 40
0.0104167
 41
0.0104167
  0
VERTEX
  8
0
 10
7.0976
 20
11.9959
 30
0.0
 40
0.0104167
 41
0.0104167
  0
VERTEX
  8
0
 10
7.0976
 20
12.93
 30
0.0
 40
0.0104167
 41
0.0104167
  0
SEQEND
 8
0
  0
POLYLINE
  8
0
 62
     0
 66
     1
 10
0
 20
0
 30
0.0
 40
0.75
 41
0.75
  0
VERTEX
  8
0
 10
7.26426
 20
12.0741
 30
0.0
 40
0.0104167
 41
0.0104167
  0
VERTEX
  8
0
 10
7.26426
 20
12.8519
 30
0.0
 40
0.0104167
 41
0.0104167
  0
SEQEND
 8
0
  0
POLYLINE
  8
0
 62
     0
 66
     1
 10
0
 20
0
 30
0.0
 40
0.75
 41
0.75
  0
VERTEX
  8
0
 10
7.43093
 20
12.0741
 30
0.0
 40
0.0104167
 41
0.0104167
  0
VERTEX
  8
0
 10
7.0976
 20
12.0741
 30
0.0
 40
0.0104167
 41
0.0104167
  0
SEQEND
 8
0
  0
POLYLINE
  8
0
 62
     0
 66
     1
 10
0
 20
0
 30
0.0
 40
0.75
 41
0.75
  0
VERTEX
  8
0
 10
7.43093
 20
12.8519
 30
0.0
 40
0.0104167
 41
0.0104167
  0
VERTEX
  8
0
 10
7.0976
 20
12.8519
 30
0.0
 40
0.0104167
 41
0.0104167
  0
SEQEND
 8
0
  0
POLYLINE
  8
0
 62
     0
 66
     1
 10
0
 20
0
 30
0.0
 70
     1
 40
0
 41
0
  0
VERTEX
  8
0
 10
7.43093
 20
14.2251
 30
0.0
 40
0
 41
0
  0
VERTEX
  8
0
 10
4.64447
 20
14.2251
 30
0.0
 40
0
 41
0
  0
VERTEX
  8
0
 10
4.75906
 20
13.8815
 30
0.0
 40
0
 41
0
  0
VERTEX
  8
0
 10
7.0976
 20
13.8815
 30
0.0
 40
0
 41
0
  0
VERTEX
  8
0
 10
7.43093
 20
14.2251
 30
0.0
 40
0
 41
0
  0
SEQEND
 8
0
  0
POLYLINE
  8
0
 62
     0
 66
     1
 10
0
 20
0
 30
0.0
 70
     1
 40
0.15
 41
0.15
  0
VERTEX
  8
0
 10
7.43093
 20
14.2251
 30
0.0
 40
0.00208333
 41
0.00208333
  0
VERTEX
  8
0
 10
4.64447
 20
14.2251
 30
0.0
 40
0.00208333
 41
0.00208333
  0
VERTEX
  8
0
 10
4.75906
 20
13.8815
 30
0.0
 40
0.00208333
 41
0.00208333
  0
VERTEX
  8
0
 10
7.0976
 20
13.8815
 30
0.0
 40
0.00208333
 41
0.00208333
  0
VERTEX
  8
0
 10
7.43093
 20
14.2251
 30
0.0
 40
0.00208333
 41
0.00208333
  0
SEQEND
 8
0
  0
POLYLINE
  8
0
 62
     7
 66
     1
 10
0
 20
0
 30
0.0
 70
     1
 40
0
 41
0
  0
VERTEX
  8
0
 10
5.46929
 20
14.2251
 30
0.0
 40
0
 41
0
  0
VERTEX
  8
0
 10
6.73178
 20
14.2251
 30
0.0
 40
0
 41
0
  0
VERTEX
  8
0
 10
6.73178
 20
13.8815
 30
0.0
 40
0
 41
0
  0
VERTEX
  8
0
 10
5.46929
 20
13.8815
 30
0.0
 40
0
 41
0
  0
VERTEX
  8
0
 10
5.46929
 20
14.2251
 30
0.0
 40
0
 41
0
  0
SEQEND
 8
0
  0
POLYLINE
  8
0
 62
     0
 66
     1
 10
0
 20
0
 30
0.0
 70
     1
 40
0.75
 41
0.75
  0
VERTEX
  8
0
 10
5.46929
 20
14.2251
 30
0.0
 40
0.0104167
 41
0.0104167
  0
VERTEX
  8
0
 10
6.73178
 20
14.2251
 30
0.0
 40
0.0104167
 41
0.0104167
  0
VERTEX
  8
0
 10
6.73178
 20
13.8815
 30
0.0
 40
0.0104167
 41
0.0104167
  0
VERTEX
  8
0
 10
5.46929
 20
13.8815
 30
0.0
 40
0.0104167
 41
0.0104167
  0
VERTEX
  8
0
 10
5.46929
 20
14.2251
 30
0.0
 40
0.0104167
 41
0.0104167
  0
SEQEND
 8
0
  0
POLYLINE
  8
0
 62
     7
 66
     1
 10
0
 20
0
 30
0.0
 70
     1
 40
0
 41
0
  0
VERTEX
  8
0
 10
5.46929
 20
14.2251
 30
0.0
 40
0
 41
0
  0
VERTEX
  8
0
 10
6.73178
 20
14.2251
 30
0.0
 40
0
 41
0
  0
VERTEX
  8
0
 10
6.73178
 20
13.8815
 30
0.0
 40
0
 41
0
  0
VERTEX
  8
0
 10
5.46929
 20
13.8815
 30
0.0
 40
0
 41
0
  0
VERTEX
  8
0
 10
5.46929
 20
14.2251
 30
0.0
 40
0
 41
0
  0
SEQEND
 8
0
  0
POLYLINE
  8
0
 62
     0
 66
     1
 10
0
 20
0
 30
0.0
 70
     1
 40
0.75
 41
0.75
  0
VERTEX
  8
0
 10
5.46929
 20
14.2251
 30
0.0
 40
0.0104167
 41
0.0104167
  0
VERTEX
  8
0
 10
6.73178
 20
14.2251
 30
0.0
 40
0.0104167
 41
0.0104167
  0
VERTEX
  8
0
 10
6.73178
 20
13.8815
 30
0.0
 40
0.0104167
 41
0.0104167
  0
VERTEX
  8
0
 10
5.46929
 20
13.8815
 30
0.0
 40
0.0104167
 41
0.0104167
  0
VERTEX
  8
0
 10
5.46929
 20
14.2251
 30
0.0
 40
0.0104167
 41
0.0104167
  0
SEQEND
 8
0
  0
POLYLINE
  8
0
 62
     0
 66
     1
 10
0
 20
0
 30
0.0
 40
0.75
 41
0.75
  0
VERTEX
  8
0
 10
6.65365
 20
14.0533
 30
0.0
 40
0.0104167
 41
0.0104167
  0
VERTEX
  8
0
 10
5.54742
 20
14.0533
 30
0.0
 40
0.0104167
 41
0.0104167
  0
SEQEND
 8
0
  0
POLYLINE
  8
0
 62
     0
 66
     1
 10
0
 20
0
 30
0.0
 40
0.75
 41
0.75
  0
VERTEX
  8
0
 10
6.65365
 20
14.2251
 30
0.0
 40
0.0104167
 41
0.0104167
  0
VERTEX
  8
0
 10
6.65365
 20
13.8815
 30
0.0
 40
0.0104167
 41
0.0104167
  0
SEQEND
 8
0
  0
POLYLINE
  8
0
 62
     0
 66
     1
 10
0
 20
0
 30
0.0
 40
0.75
 41
0.75
  0
VERTEX
  8
0
 10
5.54742
 20
14.2251
 30
0.0
 40
0.0104167
 41
0.0104167
  0
VERTEX
  8
0
 10
5.54742
 20
13.8815
 30
0.0
 40
0.0104167
 41
0.0104167
  0
SEQEND
 8
0
  0
POLYLINE
  8
0
 62
     0
 66
     1
 10
0
 20
0
 30
0.0
 70
     1
 40
0
 41
0
  0
VERTEX
  8
0
 10
1.86774
 20
10.5566
 30
0.0
 40
0
 41
0
  0
VERTEX
  8
0
 10
7.02468
 20
10.5566
 30
0.0
 40
0
 41
0
  0
VERTEX
  8
0
 10
7.43093
 20
11.015
 30
0.0
 40
0
 41
0
  0
VERTEX
  8
0
 10
1.86774
 20
11.015
 30
0.0
 40
0
 41
0
  0
VERTEX
  8
0
 10
1.86774
 20
10.5566
 30
0.0
 40
0
 41
0
  0
SEQEND
 8
0
  0
POLYLINE
  8
0
 62
     0
 66
     1
 10
0
 20
0
 30
0.0
 70
     1
 40
0.15
 41
0.15
  0
VERTEX
  8
0
 10
1.86774
 20
10.5566
 30
0.0
 40
0.00208333
 41
0.00208333
  0
VERTEX
  8
0
 10
7.02468
 20
10.5566
 30
0.0
 40
0.00208333
 41
0.00208333
  0
VERTEX
  8
0
 10
7.43093
 20
11.015
 30
0.0
 40
0.00208333
 41
0.00208333
  0
VERTEX
  8
0
 10
1.86774
 20
11.015
 30
0.0
 40
0.00208333
 41
0.00208333
  0
VERTEX
  8
0
 10
1.86774
 20
10.5566
 30
0.0
 40
0.00208333
 41
0.00208333
  0
SEQEND
 8
0
  0
POLYLINE
  8
0
 62
     7
 66
     1
 10
0
 20
0
 30
0.0
 70
     1
 40
0
 41
0
  0
VERTEX
  8
0
 10
5.62408
 20
11.015
 30
0.0
 40
0
 41
0
  0
VERTEX
  8
0
 10
6.58074
 20
11.015
 30
0.0
 40
0
 41
0
  0
VERTEX
  8
0
 10
6.58074
 20
10.5566
 30
0.0
 40
0
 41
0
  0
VERTEX
  8
0
 10
5.62408
 20
10.5566
 30
0.0
 40
0
 41
0
  0
VERTEX
  8
0
 10
5.62408
 20
11.015
 30
0.0
 40
0
 41
0
  0
SEQEND
 8
0
  0
POLYLINE
  8
0
 62
     0
 66
     1
 10
0
 20
0
 30
0.0
 70
     1
 40
0.75
 41
0.75
  0
VERTEX
  8
0
 10
5.62408
 20
11.015
 30
0.0
 40
0.0104167
 41
0.0104167
  0
VERTEX
  8
0
 10
6.58074
 20
11.015
 30
0.0
 40
0.0104167
 41
0.0104167
  0
VERTEX
  8
0
 10
6.58074
 20
10.5566
 30
0.0
 40
0.0104167
 41
0.0104167
  0
VERTEX
  8
0
 10
5.62408
 20
10.5566
 30
0.0
 40
0.0104167
 41
0.0104167
  0
VERTEX
  8
0
 10
5.62408
 20
11.015
 30
0.0
 40
0.0104167
 41
0.0104167
  0
SEQEND
 8
0
  0
POLYLINE
  8
0
 62
     7
 66
     1
 10
0
 20
0
 30
0.0
 70
     1
 40
0
 41
0
  0
VERTEX
  8
0
 10
5.62408
 20
11.015
 30
0.0
 40
0
 41
0
  0
VERTEX
  8
0
 10
6.58074
 20
11.015
 30
0.0
 40
0
 41
0
  0
VERTEX
  8
0
 10
6.58074
 20
10.5566
 30
0.0
 40
0
 41
0
  0
VERTEX
  8
0
 10
5.62408
 20
10.5566
 30
0.0
 40
0
 41
0
  0
VERTEX
  8
0
 10
5.62408
 20
11.015
 30
0.0
 40
0
 41
0
  0
SEQEND
 8
0
  0
POLYLINE
  8
0
 62
     0
 66
     1
 10
0
 20
0
 30
0.0
 70
     1
 40
0.75
 41
0.75
  0
VERTEX
  8
0
 10
5.62408
 20
11.015
 30
0.0
 40
0.0104167
 41
0.0104167
  0
VERTEX
  8
0
 10
6.58074
 20
11.015
 30
0.0
 40
0.0104167
 41
0.0104167
  0
VERTEX
  8
0
 10
6.58074
 20
10.5566
 30
0.0
 40
0.0104167
 41
0.0104167
  0
VERTEX
  8
0
 10
5.62408
 20
10.5566
 30
0.0
 40
0.0104167
 41
0.0104167
  0
VERTEX
  8
0
 10
5.62408
 20
11.015
 30
0.0
 40
0.0104167
 41
0.0104167
  0
SEQEND
 8
0
  0
POLYLINE
  8
0
 62
     0
 66
     1
 10
0
 20
0
 30
0.0
 70
     1
 40
0.75
 41
0.75
  0
VERTEX
  8
0
 10
5.62408
 20
11.015
 30
0.0
 40
0.0104167
 41
0.0104167
  0
VERTEX
  8
0
 10
5.62408
 20
11.0711
 30
0.0
 40
0.0104167
 41
0.0104167
  0
VERTEX
  8
0
 10
5.639
 20
11.2392
 30
0.0
 40
0.0104167
 41
0.0104167
  0
VERTEX
  8
0
 10
5.68381
 20
11.4335
 30
0.0
 40
0.0104167
 41
0.0104167
  0
VERTEX
  8
0
 10
5.75857
 20
11.598
 30
0.0
 40
0.0104167
 41
0.0104167
  0
VERTEX
  8
0
 10
5.86322
 20
11.7325
 30
0.0
 40
0.0104167
 41
0.0104167
  0
VERTEX
  8
0
 10
5.99772
 20
11.8372
 30
0.0
 40
0.0104167
 41
0.0104167
  0
VERTEX
  8
0
 10
6.16217
 20
11.9119
 30
0.0
 40
0.0104167
 41
0.0104167
  0
VERTEX
  8
0
 10
6.3565
 20
11.9568
 30
0.0
 40
0.0104167
 41
0.0104167
  0
VERTEX
  8
0
 10
6.52463
 20
11.9717
 30
0.0
 40
0.0104167
 41
0.0104167
  0
VERTEX
  8
0
 10
6.58074
 20
11.9717
 30
0.0
 40
0.0104167
 41
0.0104167
  0
VERTEX
  8
0
 10
6.58074
 20
11.015
 30
0.0
 40
0.0104167
 41
0.0104167
  0
VERTEX
  8
0
 10
5.62408
 20
11.015
 30
0.0
 40
0.0104167
 41
0.0104167
  0
SEQEND
 8
0
  0
POLYLINE
  8
0
 62
     7
 66
     1
 10
0
 20
0
 30
0.0
 70
     1
 40
0
 41
0
  0
VERTEX
  8
0
 10
1.8725
 20
11.015
 30
0.0
 40
0
 41
0
  0
VERTEX
  8
0
 10
3.12804
 20
11.015
 30
0.0
 40
0
 41
0
  0
VERTEX
  8
0
 10
3.12804
 20
10.5566
 30
0.0
 40
0
 41
0
  0
VERTEX
  8
0
 10
1.8725
 20
10.5566
 30
0.0
 40
0
 41
0
  0
VERTEX
  8
0
 10
1.8725
 20
11.015
 30
0.0
 40
0
 41
0
  0
SEQEND
 8
0
  0
POLYLINE
  8
0
 62
     0
 66
     1
 10
0
 20
0
 30
0.0
 70
     1
 40
0.75
 41
0.75
  0
VERTEX
  8
0
 10
1.8725
 20
11.015
 30
0.0
 40
0.0104167
 41
0.0104167
  0
VERTEX
  8
0
 10
3.12804
 20
11.015
 30
0.0
 40
0.0104167
 41
0.0104167
  0
VERTEX
  8
0
 10
3.12804
 20
10.5566
 30
0.0
 40
0.0104167
 41
0.0104167
  0
VERTEX
  8
0
 10
1.8725
 20
10.5566
 30
0.0
 40
0.0104167
 41
0.0104167
  0
VERTEX
  8
0
 10
1.8725
 20
11.015
 30
0.0
 40
0.0104167
 41
0.0104167
  0
SEQEND
 8
0
  0
POLYLINE
  8
0
 62
     7
 66
     1
 10
0
 20
0
 30
0.0
 70
     1
 40
0
 41
0
  0
VERTEX
  8
0
 10
1.8725
 20
11.015
 30
0.0
 40
0
 41
0
  0
VERTEX
  8
0
 10
3.12804
 20
11.015
 30
0.0
 40
0
 41
0
  0
VERTEX
  8
0
 10
3.12804
 20
10.5566
 30
0.0
 40
0
 41
0
  0
VERTEX
  8
0
 10
1.8725
 20
10.5566
 30
0.0
 40
0
 41
0
  0
VERTEX
  8
0
 10
1.8725
 20
11.015
 30
0.0
 40
0
 41
0
  0
SEQEND
 8
0
  0
POLYLINE
  8
0
 62
     0
 66
     1
 10
0
 20
0
 30
0.0
 70
     1
 40
0.75
 41
0.75
  0
VERTEX
  8
0
 10
1.8725
 20
11.015
 30
0.0
 40
0.0104167
 41
0.0104167
  0
VERTEX
  8
0
 10
3.12804
 20
11.015
 30
0.0
 40
0.0104167
 41
0.0104167
  0
VERTEX
  8
0
 10
3.12804
 20
10.5566
 30
0.0
 40
0.0104167
 41
0.0104167
  0
VERTEX
  8
0
 10
1.8725
 20
10.5566
 30
0.0
 40
0.0104167
 41
0.0104167
  0
VERTEX
  8
0
 10
1.8725
 20
11.015
 30
0.0
 40
0.0104167
 41
0.0104167
  0
SEQEND
 8
0
  0
POLYLINE
  8
0
 62
     0
 66
     1
 10
0
 20
0
 30
0.0
 40
0.75
 41
0.75
  0
VERTEX
  8
0
 10
1.95063
 20
10.7858
 30
0.0
 40
0.0104167
 41
0.0104167
  0
VERTEX
  8
0
 10
3.04992
 20
10.7858
 30
0.0
 40
0.0104167
 41
0.0104167
  0
SEQEND
 8
0
  0
POLYLINE
  8
0
 62
     0
 66
     1
 10
0
 20
0
 30
0.0
 40
0.75
 41
0.75
  0
VERTEX
  8
0
 10
1.95063
 20
10.5566
 30
0.0
 40
0.0104167
 41
0.0104167
  0
VERTEX
  8
0
 10
1.95063
 20
11.015
 30
0.0
 40
0.0104167
 41
0.0104167
  0
SEQEND
 8
0
  0
POLYLINE
  8
0
 62
     0
 66
     1
 10
0
 20
0
 30
0.0
 40
0.75
 41
0.75
  0
VERTEX
  8
0
 10
3.04992
 20
10.5566
 30
0.0
 40
0.0104167
 41
0.0104167
  0
VERTEX
  8
0
 10
3.04992
 20
11.015
 30
0.0
 40
0.0104167
 41
0.0104167
  0
SEQEND
 8
0
  0
POLYLINE
  8
0
 62
     7
 66
     1
 10
0
 20
0
 30
0.0
 70
     1
 40
0
 41
0
  0
VERTEX
  8
0
 10
3.35124
 20
11.015
 30
0.0
 40
0
 41
0
  0
VERTEX
  8
0
 10
4.63678
 20
11.015
 30
0.0
 40
0
 41
0
  0
VERTEX
  8
0
 10
4.63678
 20
10.5566
 30
0.0
 40
0
 41
0
  0
VERTEX
  8
0
 10
3.35124
 20
10.5566
 30
0.0
 40
0
 41
0
  0
VERTEX
  8
0
 10
3.35124
 20
11.015
 30
0.0
 40
0
 41
0
  0
SEQEND
 8
0
  0
POLYLINE
  8
0
 62
     0
 66
     1
 10
0
 20
0
 30
0.0
 70
     1
 40
0.75
 41
0.75
  0
VERTEX
  8
0
 10
3.35124
 20
11.015
 30
0.0
 40
0.0104167
 41
0.0104167
  0
VERTEX
  8
0
 10
4.63678
 20
11.015
 30
0.0
 40
0.0104167
 41
0.0104167
  0
VERTEX
  8
0
 10
4.63678
 20
10.5566
 30
0.0
 40
0.0104167
 41
0.0104167
  0
VERTEX
  8
0
 10
3.35124
 20
10.5566
 30
0.0
 40
0.0104167
 41
0.0104167
  0
VERTEX
  8
0
 10
3.35124
 20
11.015
 30
0.0
 40
0.0104167
 41
0.0104167
  0
SEQEND
 8
0
  0
POLYLINE
  8
0
 62
     7
 66
     1
 10
0
 20
0
 30
0.0
 70
     1
 40
0
 41
0
  0
VERTEX
  8
0
 10
3.35124
 20
11.015
 30
0.0
 40
0
 41
0
  0
VERTEX
  8
0
 10
4.63678
 20
11.015
 30
0.0
 40
0
 41
0
  0
VERTEX
  8
0
 10
4.63678
 20
10.5566
 30
0.0
 40
0
 41
0
  0
VERTEX
  8
0
 10
3.35124
 20
10.5566
 30
0.0
 40
0
 41
0
  0
VERTEX
  8
0
 10
3.35124
 20
11.015
 30
0.0
 40
0
 41
0
  0
SEQEND
 8
0
  0
POLYLINE
  8
0
 62
     0
 66
     1
 10
0
 20
0
 30
0.0
 70
     1
 40
0.75
 41
0.75
  0
VERTEX
  8
0
 10
3.35124
 20
11.015
 30
0.0
 40
0.0104167
 41
0.0104167
  0
VERTEX
  8
0
 10
4.63678
 20
11.015
 30
0.0
 40
0.0104167
 41
0.0104167
  0
VERTEX
  8
0
 10
4.63678
 20
10.5566
 30
0.0
 40
0.0104167
 41
0.0104167
  0
VERTEX
  8
0
 10
3.35124
 20
10.5566
 30
0.0
 40
0.0104167
 41
0.0104167
  0
VERTEX
  8
0
 10
3.35124
 20
11.015
 30
0.0
 40
0.0104167
 41
0.0104167
  0
SEQEND
 8
0
  0
POLYLINE
  8
0
 62
     0
 66
     1
 10
0
 20
0
 30
0.0
 40
0.75
 41
0.75
  0
VERTEX
  8
0
 10
3.42936
 20
10.7858
 30
0.0
 40
0.0104167
 41
0.0104167
  0
VERTEX
  8
0
 10
4.55865
 20
10.7858
 30
0.0
 40
0.0104167
 41
0.0104167
  0
SEQEND
 8
0
  0
POLYLINE
  8
0
 62
     0
 66
     1
 10
0
 20
0
 30
0.0
 40
0.75
 41
0.75
  0
VERTEX
  8
0
 10
3.42936
 20
10.5566
 30
0.0
 40
0.0104167
 41
0.0104167
  0
VERTEX
  8
0
 10
3.42936
 20
11.015
 30
0.0
 40
0.0104167
 41
0.0104167
  0
SEQEND
 8
0
  0
POLYLINE
  8
0
 62
     0
 66
     1
 10
0
 20
0
 30
0.0
 40
0.75
 41
0.75
  0
VERTEX
  8
0
 10
4.55865
 20
10.5566
 30
0.0
 40
0.0104167
 41
0.0104167
  0
VERTEX
  8
0
 10
4.55865
 20
11.015
 30
0.0
 40
0.0104167
 41
0.0104167
  0
SEQEND
 8
0
  0
POLYLINE
  8
0
 62
     0
 66
     1
 10
0
 20
0
 30
0.0
 70
     1
 40
0
 41
0
  0
VERTEX
  8
0
 10
4.64447
 20
14.2251
 30
0.0
 40
0
 41
0
  0
VERTEX
  8
0
 10
4.64447
 20
10.5566
 30
0.0
 40
0
 41
0
  0
VERTEX
  8
0
 10
4.75906
 20
10.5566
 30
0.0
 40
0
 41
0
  0
VERTEX
  8
0
 10
4.75906
 20
13.8815
 30
0.0
 40
0
 41
0
  0
VERTEX
  8
0
 10
4.64447
 20
14.2251
 30
0.0
 40
0
 41
0
  0
SEQEND
 8
0
  0
POLYLINE
  8
0
 62
     0
 66
     1
 10
0
 20
0
 30
0.0
 70
     1
 40
0.15
 41
0.15
  0
VERTEX
  8
0
 10
4.64447
 20
14.2251
 30
0.0
 40
0.00208333
 41
0.00208333
  0
VERTEX
  8
0
 10
4.64447
 20
10.5566
 30
0.0
 40
0.00208333
 41
0.00208333
  0
VERTEX
  8
0
 10
4.75906
 20
10.5566
 30
0.0
 40
0.00208333
 41
0.00208333
  0
VERTEX
  8
0
 10
4.75906
 20
13.8815
 30
0.0
 40
0.00208333
 41
0.00208333
  0
VERTEX
  8
0
 10
4.64447
 20
14.2251
 30
0.0
 40
0.00208333
 41
0.00208333
  0
SEQEND
 8
0
  0
POLYLINE
  8
0
 62
     7
 66
     1
 10
0
 20
0
 30
0.0
 70
     1
 40
0
 41
0
  0
VERTEX
  8
0
 10
4.64447
 20
13.8703
 30
0.0
 40
0
 41
0
  0
VERTEX
  8
0
 10
4.75906
 20
13.8703
 30
0.0
 40
0
 41
0
  0
VERTEX
  8
0
 10
4.75906
 20
11.0178
 30
0.0
 40
0
 41
0
  0
VERTEX
  8
0
 10
4.64447
 20
11.0178
 30
0.0
 40
0
 41
0
  0
VERTEX
  8
0
 10
4.64447
 20
13.8703
 30
0.0
 40
0
 41
0
  0
SEQEND
 8
0
  0
POLYLINE
  8
0
 62
     0
 66
     1
 10
0
 20
0
 30
0.0
 70
     1
 40
0.75
 41
0.75
  0
VERTEX
  8
0
 10
4.64447
 20
13.8703
 30
0.0
 40
0.0104167
 41
0.0104167
  0
VERTEX
  8
0
 10
4.75906
 20
13.8703
 30
0.0
 40
0.0104167
 41
0.0104167
  0
VERTEX
  8
0
 10
4.75906
 20
11.0178
 30
0.0
 40
0.0104167
 41
0.0104167
  0
VERTEX
  8
0
 10
4.64447
 20
11.0178
 30
0.0
 40
0.0104167
 41
0.0104167
  0
VERTEX
  8
0
 10
4.64447
 20
13.8703
 30
0.0
 40
0.0104167
 41
0.0104167
  0
SEQEND
 8
0
  0
POLYLINE
  8
0
 62
     7
 66
     1
 10
0
 20
0
 30
0.0
 70
     1
 40
0
 41
0
  0
VERTEX
  8
0
 10
4.64447
 20
13.8703
 30
0.0
 40
0
 41
0
  0
VERTEX
  8
0
 10
4.75906
 20
13.8703
 30
0.0
 40
0
 41
0
  0
VERTEX
  8
0
 10
4.75906
 20
11.0178
 30
0.0
 40
0
 41
0
  0
VERTEX
  8
0
 10
4.64447
 20
11.0178
 30
0.0
 40
0
 41
0
  0
VERTEX
  8
0
 10
4.64447
 20
13.8703
 30
0.0
 40
0
 41
0
  0
SEQEND
 8
0
  0
POLYLINE
  8
0
 62
     0
 66
     1
 10
0
 20
0
 30
0.0
 70
     1
 40
0.75
 41
0.75
  0
VERTEX
  8
0
 10
4.64447
 20
13.8703
 30
0.0
 40
0.0104167
 41
0.0104167
  0
VERTEX
  8
0
 10
4.75906
 20
13.8703
 30
0.0
 40
0.0104167
 41
0.0104167
  0
VERTEX
  8
0
 10
4.75906
 20
11.0178
 30
0.0
 40
0.0104167
 41
0.0104167
  0
VERTEX
  8
0
 10
4.64447
 20
11.0178
 30
0.0
 40
0.0104167
 41
0.0104167
  0
VERTEX
  8
0
 10
4.64447
 20
13.8703
 30
0.0
 40
0.0104167
 41
0.0104167
  0
SEQEND
 8
0
  0
POLYLINE
  8
0
 62
     0
 66
     1
 10
0
 20
0
 30
0.0
 40
0.75
 41
0.75
  0
VERTEX
  8
0
 10
4.70176
 20
13.7922
 30
0.0
 40
0.0104167
 41
0.0104167
  0
VERTEX
  8
0
 10
4.70176
 20
11.0959
 30
0.0
 40
0.0104167
 41
0.0104167
  0
SEQEND
 8
0
  0
POLYLINE
  8
0
 62
     0
 66
     1
 10
0
 20
0
 30
0.0
 40
0.75
 41
0.75
  0
VERTEX
  8
0
 10
4.64447
 20
13.7922
 30
0.0
 40
0.0104167
 41
0.0104167
  0
VERTEX
  8
0
 10
4.75906
 20
13.7922
 30
0.0
 40
0.0104167
 41
0.0104167
  0
SEQEND
 8
0
  0
POLYLINE
  8
0
 62
     0
 66
     1
 10
0
 20
0
 30
0.0
 40
0.75
 41
0.75
  0
VERTEX
  8
0
 10
4.64447
 20
11.0959
 30
0.0
 40
0.0104167
 41
0.0104167
  0
VERTEX
  8
0
 10
4.75906
 20
11.0959
 30
0.0
 40
0.0104167
 41
0.0104167
  0
SEQEND
 8
0
  0
POLYLINE
  8
0
 62
     7
 66
     1
 10
0
 20
0
 30
0.0
 70
     1
 40
0
 41
0
  0
VERTEX
  8
0
 10
1.48768
 20
6.0006
 30
0.0
 40
0
 41
0
  0
VERTEX
  8
0
 10
2.09978
 20
6.0006
 30
0.0
 40
0
 41
0
  0
VERTEX
  8
0
 10
2.09978
 20
5.53315
 30
0.0
 40
0
 41
0
  0
VERTEX
  8
0
 10
1.48768
 20
5.53315
 30
0.0
 40
0
 41
0
  0
VERTEX
  8
0
 10
1.48768
 20
6.0006
 30
0.0
 40
0
 41
0
  0
SEQEND
 8
0
  0
POLYLINE
  8
0
 62
     0
 66
     1
 10
0
 20
0
 30
0.0
 70
     1
 40
0.75
 41
0.75
  0
VERTEX
  8
0
 10
1.48768
 20
6.0006
 30
0.0
 40
0.0104167
 41
0.0104167
  0
VERTEX
  8
0
 10
2.09978
 20
6.0006
 30
0.0
 40
0.0104167
 41
0.0104167
  0
VERTEX
  8
0
 10
2.09978
 20
5.53315
 30
0.0
 40
0.0104167
 41
0.0104167
  0
VERTEX
  8
0
 10
1.48768
 20
5.53315
 30
0.0
 40
0.0104167
 41
0.0104167
  0
VERTEX
  8
0
 10
1.48768
 20
6.0006
 30
0.0
 40
0.0104167
 41
0.0104167
  0
SEQEND
 8
0
  0
POLYLINE
  8
0
 62
     7
 66
     1
 10
0
 20
0
 30
0.0
 70
     1
 40
0
 41
0
  0
VERTEX
  8
0
 10
1.53874
 20
5.89958
 30
0.0
 40
0
 41
0
  0
VERTEX
  8
0
 10
2.04878
 20
5.89958
 30
0.0
 40
0
 41
0
  0
VERTEX
  8
0
 10
2.04878
 20
5.57449
 30
0.0
 40
0
 41
0
  0
VERTEX
  8
0
 10
1.53874
 20
5.57449
 30
0.0
 40
0
 41
0
  0
VERTEX
  8
0
 10
1.53874
 20
5.89958
 30
0.0
 40
0
 41
0
  0
SEQEND
 8
0
  0
POLYLINE
  8
0
 62
     0
 66
     1
 10
0
 20
0
 30
0.0
 70
     1
 40
0.75
 41
0.75
  0
VERTEX
  8
0
 10
1.53874
 20
5.89958
 30
0.0
 40
0.0104167
 41
0.0104167
  0
VERTEX
  8
0
 10
2.04878
 20
5.89958
 30
0.0
 40
0.0104167
 41
0.0104167
  0
VERTEX
  8
0
 10
2.04878
 20
5.57449
 30
0.0
 40
0.0104167
 41
0.0104167
  0
VERTEX
  8
0
 10
1.53874
 20
5.57449
 30
0.0
 40
0.0104167
 41
0.0104167
  0
VERTEX
  8
0
 10
1.53874
 20
5.89958
 30
0.0
 40
0.0104167
 41
0.0104167
  0
SEQEND
 8
0
  0
POLYLINE
  8
0
 62
     7
 66
     1
 10
0
 20
0
 30
0.0
 70
     1
 40
0
 41
0
  0
VERTEX
  8
0
 10
1.83018
 20
5.74972
 30
0.0
 40
0
 41
0
  0
VERTEX
  8
0
 10
1.83018
 20
5.74333
 30
0.0
 40
0
 41
0
  0
VERTEX
  8
0
 10
1.8195
 20
5.72396
 30
0.0
 40
0
 41
0
  0
VERTEX
  8
0
 10
1.80012
 20
5.71326
 30
0.0
 40
0
 41
0
  0
VERTEX
  8
0
 10
1.79372
 20
5.71326
 30
0.0
 40
0
 41
0
  0
VERTEX
  8
0
 10
1.78728
 20
5.71326
 30
0.0
 40
0
 41
0
  0
VERTEX
  8
0
 10
1.7679
 20
5.72396
 30
0.0
 40
0
 41
0
  0
VERTEX
  8
0
 10
1.75726
 20
5.74333
 30
0.0
 40
0
 41
0
  0
VERTEX
  8
0
 10
1.75726
 20
5.74972
 30
0.0
 40
0
 41
0
  0
VERTEX
  8
0
 10
1.75726
 20
5.75618
 30
0.0
 40
0
 41
0
  0
VERTEX
  8
0
 10
1.7679
 20
5.77556
 30
0.0
 40
0
 41
0
  0
VERTEX
  8
0
 10
1.78728
 20
5.78618
 30
0.0
 40
0
 41
0
  0
VERTEX
  8
0
 10
1.79372
 20
5.78618
 30
0.0
 40
0
 41
0
  0
VERTEX
  8
0
 10
1.80012
 20
5.78618
 30
0.0
 40
0
 41
0
  0
VERTEX
  8
0
 10
1.8195
 20
5.77556
 30
0.0
 40
0
 41
0
  0
VERTEX
  8
0
 10
1.83018
 20
5.75618
 30
0.0
 40
0
 41
0
  0
VERTEX
  8
0
 10
1.83018
 20
5.74972
 30
0.0
 40
0
 41
0
  0
SEQEND
 8
0
  0
POLYLINE
  8
0
 62
     0
 66
     1
 10
0
 20
0
 30
0.0
 70
     1
 40
0.6
 41
0.6
  0
VERTEX
  8
0
 10
1.83018
 20
5.74972
 30
0.0
 40
0.00833333
 41
0.00833333
  0
VERTEX
  8
0
 10
1.83018
 20
5.74333
 30
0.0
 40
0.00833333
 41
0.00833333
  0
VERTEX
  8
0
 10
1.8195
 20
5.72396
 30
0.0
 40
0.00833333
 41
0.00833333
  0
VERTEX
  8
0
 10
1.80012
 20
5.71326
 30
0.0
 40
0.00833333
 41
0.00833333
  0
VERTEX
  8
0
 10
1.79372
 20
5.71326
 30
0.0
 40
0.00833333
 41
0.00833333
  0
VERTEX
  8
0
 10
1.78728
 20
5.71326
 30
0.0
 40
0.00833333
 41
0.00833333
  0
VERTEX
  8
0
 10
1.7679
 20
5.72396
 30
0.0
 40
0.00833333
 41
0.00833333
  0
VERTEX
  8
0
 10
1.75726
 20
5.74333
 30
0.0
 40
0.00833333
 41
0.00833333
  0
VERTEX
  8
0
 10
1.75726
 20
5.74972
 30
0.0
 40
0.00833333
 41
0.00833333
  0
VERTEX
  8
0
 10
1.75726
 20
5.75618
 30
0.0
 40
0.00833333
 41
0.00833333
  0
VERTEX
  8
0
 10
1.7679
 20
5.77556
 30
0.0
 40
0.00833333
 41
0.00833333
  0
VERTEX
  8
0
 10
1.78728
 20
5.78618
 30
0.0
 40
0.00833333
 41
0.00833333
  0
VERTEX
  8
0
 10
1.79372
 20
5.78618
 30
0.0
 40
0.00833333
 41
0.00833333
  0
VERTEX
  8
0
 10
1.80012
 20
5.78618
 30
0.0
 40
0.00833333
 41
0.00833333
  0
VERTEX
  8
0
 10
1.8195
 20
5.77556
 30
0.0
 40
0.00833333
 41
0.00833333
  0
VERTEX
  8
0
 10
1.83018
 20
5.75618
 30
0.0
 40
0.00833333
 41
0.00833333
  0
VERTEX
  8
0
 10
1.83018
 20
5.74972
 30
0.0
 40
0.00833333
 41
0.00833333
  0
SEQEND
 8
0
  0
POLYLINE
  8
0
 62
     7
 66
     1
 10
0
 20
0
 30
0.0
 70
     1
 40
0
 41
0
  0
VERTEX
  8
0
 10
1.81456
 20
5.74972
 30
0.0
 40
0
 41
0
  0
VERTEX
  8
0
 10
1.81456
 20
5.7461
 30
0.0
 40
0
 41
0
  0
VERTEX
  8
0
 10
1.80843
 20
5.73503
 30
0.0
 40
0
 41
0
  0
VERTEX
  8
0
 10
1.79736
 20
5.72889
 30
0.0
 40
0
 41
0
  0
VERTEX
  8
0
 10
1.79372
 20
5.72889
 30
0.0
 40
0
 41
0
  0
VERTEX
  8
0
 10
1.79004
 20
5.72889
 30
0.0
 40
0
 41
0
  0
VERTEX
  8
0
 10
1.77897
 20
5.73503
 30
0.0
 40
0
 41
0
  0
VERTEX
  8
0
 10
1.77289
 20
5.7461
 30
0.0
 40
0
 41
0
  0
VERTEX
  8
0
 10
1.77289
 20
5.74972
 30
0.0
 40
0
 41
0
  0
VERTEX
  8
0
 10
1.77289
 20
5.75342
 30
0.0
 40
0
 41
0
  0
VERTEX
  8
0
 10
1.77897
 20
5.76449
 30
0.0
 40
0
 41
0
  0
VERTEX
  8
0
 10
1.79004
 20
5.77056
 30
0.0
 40
0
 41
0
  0
VERTEX
  8
0
 10
1.79372
 20
5.77056
 30
0.0
 40
0
 41
0
  0
VERTEX
  8
0
 10
1.79736
 20
5.77056
 30
0.0
 40
0
 41
0
  0
VERTEX
  8
0
 10
1.80843
 20
5.76449
 30
0.0
 40
0
 41
0
  0
VERTEX
  8
0
 10
1.81456
 20
5.75342
 30
0.0
 40
0
 41
0
  0
VERTEX
  8
0
 10
1.81456
 20
5.74972
 30
0.0
 40
0
 41
0
  0
SEQEND
 8
0
  0
POLYLINE
  8
0
 62
     0
 66
     1
 10
0
 20
0
 30
0.0
 70
     1
 40
0.6
 41
0.6
  0
VERTEX
  8
0
 10
1.81456
 20
5.74972
 30
0.0
 40
0.00833333
 41
0.00833333
  0
VERTEX
  8
0
 10
1.81456
 20
5.7461
 30
0.0
 40
0.00833333
 41
0.00833333
  0
VERTEX
  8
0
 10
1.80843
 20
5.73503
 30
0.0
 40
0.00833333
 41
0.00833333
  0
VERTEX
  8
0
 10
1.79736
 20
5.72889
 30
0.0
 40
0.00833333
 41
0.00833333
  0
VERTEX
  8
0
 10
1.79372
 20
5.72889
 30
0.0
 40
0.00833333
 41
0.00833333
  0
VERTEX
  8
0
 10
1.79004
 20
5.72889
 30
0.0
 40
0.00833333
 41
0.00833333
  0
VERTEX
  8
0
 10
1.77897
 20
5.73503
 30
0.0
 40
0.00833333
 41
0.00833333
  0
VERTEX
  8
0
 10
1.77289
 20
5.7461
 30
0.0
 40
0.00833333
 41
0.00833333
  0
VERTEX
  8
0
 10
1.77289
 20
5.74972
 30
0.0
 40
0.00833333
 41
0.00833333
  0
VERTEX
  8
0
 10
1.77289
 20
5.75342
 30
0.0
 40
0.00833333
 41
0.00833333
  0
VERTEX
  8
0
 10
1.77897
 20
5.76449
 30
0.0
 40
0.00833333
 41
0.00833333
  0
VERTEX
  8
0
 10
1.79004
 20
5.77056
 30
0.0
 40
0.00833333
 41
0.00833333
  0
VERTEX
  8
0
 10
1.79372
 20
5.77056
 30
0.0
 40
0.00833333
 41
0.00833333
  0
VERTEX
  8
0
 10
1.79736
 20
5.77056
 30
0.0
 40
0.00833333
 41
0.00833333
  0
VERTEX
  8
0
 10
1.80843
 20
5.76449
 30
0.0
 40
0.00833333
 41
0.00833333
  0
VERTEX
  8
0
 10
1.81456
 20
5.75342
 30
0.0
 40
0.00833333
 41
0.00833333
  0
VERTEX
  8
0
 10
1.81456
 20
5.74972
 30
0.0
 40
0.00833333
 41
0.00833333
  0
SEQEND
 8
0
  0
POLYLINE
  8
0
 62
     7
 66
     1
 10
0
 20
0
 30
0.0
 70
     1
 40
0
 41
0
  0
VERTEX
  8
0
 10
1.76313
 20
5.96164
 30
0.0
 40
0
 41
0
  0
VERTEX
  8
0
 10
1.82563
 20
5.96164
 30
0.0
 40
0
 41
0
  0
VERTEX
  8
0
 10
1.82563
 20
5.81581
 30
0.0
 40
0
 41
0
  0
VERTEX
  8
0
 10
1.76313
 20
5.81581
 30
0.0
 40
0
 41
0
  0
VERTEX
  8
0
 10
1.76313
 20
5.96164
 30
0.0
 40
0
 41
0
  0
SEQEND
 8
0
  0
POLYLINE
  8
0
 62
     0
 66
     1
 10
0
 20
0
 30
0.0
 70
     1
 40
0.75
 41
0.75
  0
VERTEX
  8
0
 10
1.76313
 20
5.96164
 30
0.0
 40
0.0104167
 41
0.0104167
  0
VERTEX
  8
0
 10
1.82563
 20
5.96164
 30
0.0
 40
0.0104167
 41
0.0104167
  0
VERTEX
  8
0
 10
1.82563
 20
5.81581
 30
0.0
 40
0.0104167
 41
0.0104167
  0
VERTEX
  8
0
 10
1.76313
 20
5.81581
 30
0.0
 40
0.0104167
 41
0.0104167
  0
VERTEX
  8
0
 10
1.76313
 20
5.96164
 30
0.0
 40
0.0104167
 41
0.0104167
  0
SEQEND
 8
0
  0
POLYLINE
  8
0
 62
     7
 66
     1
 10
0
 20
0
 30
0.0
 70
     1
 40
0
 41
0
  0
VERTEX
  8
0
 10
2.16601
 20
6.00108
 30
0.0
 40
0
 41
0
  0
VERTEX
  8
0
 10
2.77924
 20
6.00108
 30
0.0
 40
0
 41
0
  0
VERTEX
  8
0
 10
2.77924
 20
5.37608
 30
0.0
 40
0
 41
0
  0
VERTEX
  8
0
 10
2.16601
 20
5.37608
 30
0.0
 40
0
 41
0
  0
VERTEX
  8
0
 10
2.16601
 20
6.00108
 30
0.0
 40
0
 41
0
  0
SEQEND
 8
0
  0
POLYLINE
  8
0
 62
     0
 66
     1
 10
0
 20
0
 30
0.0
 70
     1
 40
0.7359
 41
0.7359
  0
VERTEX
  8
0
 10
2.16601
 20
6.00108
 30
0.0
 40
0.0102208
 41
0.0102208
  0
VERTEX
  8
0
 10
2.77924
 20
6.00108
 30
0.0
 40
0.0102208
 41
0.0102208
  0
VERTEX
  8
0
 10
2.77924
 20
5.37608
 30
0.0
 40
0.0102208
 41
0.0102208
  0
VERTEX
  8
0
 10
2.16601
 20
5.37608
 30
0.0
 40
0.0102208
 41
0.0102208
  0
VERTEX
  8
0
 10
2.16601
 20
6.00108
 30
0.0
 40
0.0102208
 41
0.0102208
  0
SEQEND
 8
0
  0
POLYLINE
  8
0
 62
     0
 66
     1
 10
0
 20
0
 30
0.0
 40
0.7359
 41
0.7359
  0
VERTEX
  8
0
 10
2.16601
 20
6.00108
 30
0.0
 40
0.0102208
 41
0.0102208
  0
VERTEX
  8
0
 10
2.4726
 20
5.574
 30
0.0
 40
0.0102208
 41
0.0102208
  0
VERTEX
  8
0
 10
2.4726
 20
5.78444
 30
0.0
 40
0.0102208
 41
0.0102208
  0
VERTEX
  8
0
 10
2.77924
 20
5.37608
 30
0.0
 40
0.0102208
 41
0.0102208
  0
SEQEND
 8
0
  0
POLYLINE
  8
0
 62
     0
 66
     1
 10
0
 20
0
 30
0.0
 40
0.7359
 41
0.7359
  0
VERTEX
  8
0
 10
2.19358
 20
5.38238
 30
0.0
 40
0.0102208
 41
0.0102208
  0
VERTEX
  8
0
 10
2.75163
 20
5.38238
 30
0.0
 40
0.0102208
 41
0.0102208
  0
SEQEND
 8
0
  0
POLYLINE
  8
0
 62
     7
 66
     1
 10
0
 20
0
 30
0.0
 70
     1
 40
0
 41
0
  0
VERTEX
  8
0
 10
2.16601
 20
6.00108
 30
0.0
 40
0
 41
0
  0
VERTEX
  8
0
 10
2.77924
 20
6.00108
 30
0.0
 40
0
 41
0
  0
VERTEX
  8
0
 10
2.77924
 20
5.37608
 30
0.0
 40
0
 41
0
  0
VERTEX
  8
0
 10
2.16601
 20
5.37608
 30
0.0
 40
0
 41
0
  0
VERTEX
  8
0
 10
2.16601
 20
6.00108
 30
0.0
 40
0
 41
0
  0
SEQEND
 8
0
  0
POLYLINE
  8
0
 62
     0
 66
     1
 10
0
 20
0
 30
0.0
 70
     1
 40
0.7359
 41
0.7359
  0
VERTEX
  8
0
 10
2.16601
 20
6.00108
 30
0.0
 40
0.0102208
 41
0.0102208
  0
VERTEX
  8
0
 10
2.77924
 20
6.00108
 30
0.0
 40
0.0102208
 41
0.0102208
  0
VERTEX
  8
0
 10
2.77924
 20
5.37608
 30
0.0
 40
0.0102208
 41
0.0102208
  0
VERTEX
  8
0
 10
2.16601
 20
5.37608
 30
0.0
 40
0.0102208
 41
0.0102208
  0
VERTEX
  8
0
 10
2.16601
 20
6.00108
 30
0.0
 40
0.0102208
 41
0.0102208
  0
SEQEND
 8
0
  0
POLYLINE
  8
0
 62
     0
 66
     1
 10
0
 20
0
 30
0.0
 40
0.7359
 41
0.7359
  0
VERTEX
  8
0
 10
2.17111
 20
5.99588
 30
0.0
 40
0.0102208
 41
0.0102208
  0
VERTEX
  8
0
 10
2.47771
 20
5.57058
 30
0.0
 40
0.0102208
 41
0.0102208
  0
VERTEX
  8
0
 10
2.47771
 20
5.78375
 30
0.0
 40
0.0102208
 41
0.0102208
  0
VERTEX
  8
0
 10
2.78435
 20
5.37196
 30
0.0
 40
0.0102208
 41
0.0102208
  0
SEQEND
 8
0
  0
POLYLINE
  8
0
 62
     7
 66
     1
 10
0
 20
0
 30
0.0
 70
     1
 40
0
 41
0
  0
VERTEX
  8
0
 10
2.22526
 20
5.38857
 30
0.0
 40
0
 41
0
  0
VERTEX
  8
0
 10
2.73019
 20
5.38857
 30
0.0
 40
0
 41
0
  0
VERTEX
  8
0
 10
2.73019
 20
5.37088
 30
0.0
 40
0
 41
0
  0
VERTEX
  8
0
 10
2.22526
 20
5.37088
 30
0.0
 40
0
 41
0
  0
VERTEX
  8
0
 10
2.22526
 20
5.38857
 30
0.0
 40
0
 41
0
  0
SEQEND
 8
0
  0
POLYLINE
  8
0
 62
     0
 66
     1
 10
0
 20
0
 30
0.0
 70
     1
 40
0.7359
 41
0.7359
  0
VERTEX
  8
0
 10
2.22526
 20
5.38857
 30
0.0
 40
0.0102208
 41
0.0102208
  0
VERTEX
  8
0
 10
2.73019
 20
5.38857
 30
0.0
 40
0.0102208
 41
0.0102208
  0
VERTEX
  8
0
 10
2.73019
 20
5.37088
 30
0.0
 40
0.0102208
 41
0.0102208
  0
VERTEX
  8
0
 10
2.22526
 20
5.37088
 30
0.0
 40
0.0102208
 41
0.0102208
  0
VERTEX
  8
0
 10
2.22526
 20
5.38857
 30
0.0
 40
0.0102208
 41
0.0102208
  0
SEQEND
 8
0
  0
POLYLINE
  8
0
 62
     7
 66
     1
 10
0
 20
0
 30
0.0
 70
     1
 40
0
 41
0
  0
VERTEX
  8
0
 10
0.864312
 20
2.54953
 30
0.0
 40
0
 41
0
  0
VERTEX
  8
0
 10
2.63986
 20
2.54953
 30
0.0
 40
0
 41
0
  0
VERTEX
  8
0
 10
2.63986
 20
1.9344
 30
0.0
 40
0
 41
0
  0
VERTEX
  8
0
 10
0.864312
 20
1.9344
 30
0.0
 40
0
 41
0
  0
VERTEX
  8
0
 10
0.864312
 20
2.54953
 30
0.0
 40
0
 41
0
  0
SEQEND
 8
0
  0
POLYLINE
  8
0
 62
     0
 66
     1
 10
0
 20
0
 30
0.0
 70
     1
 40
0.75
 41
0.75
  0
VERTEX
  8
0
 10
0.864312
 20
2.54953
 30
0.0
 40
0.0104167
 41
0.0104167
  0
VERTEX
  8
0
 10
2.63986
 20
2.54953
 30
0.0
 40
0.0104167
 41
0.0104167
  0
VERTEX
  8
0
 10
2.63986
 20
1.9344
 30
0.0
 40
0.0104167
 41
0.0104167
  0
VERTEX
  8
0
 10
0.864312
 20
1.9344
 30
0.0
 40
0.0104167
 41
0.0104167
  0
VERTEX
  8
0
 10
0.864312
 20
2.54953
 30
0.0
 40
0.0104167
 41
0.0104167
  0
SEQEND
 8
0
  0
POLYLINE
  8
0
 62
     253
 66
     1
 10
0
 20
0
 30
0.0
 40
0.375
 41
0.375
  0
VERTEX
  8
0
 10
2.63986
 20
1.97542
 30
0.0
 40
0.00520833
 41
0.00520833
  0
VERTEX
  8
0
 10
0.864312
 20
1.97542
 30
0.0
 40
0.00520833
 41
0.00520833
  0
SEQEND
 8
0
  0
POLYLINE
  8
0
 62
     253
 66
     1
 10
0
 20
0
 30
0.0
 40
0.375
 41
0.375
  0
VERTEX
  8
0
 10
2.63986
 20
2.01644
 30
0.0
 40
0.00520833
 41
0.00520833
  0
VERTEX
  8
0
 10
0.864312
 20
2.01644
 30
0.0
 40
0.00520833
 41
0.00520833
  0
SEQEND
 8
0
  0
POLYLINE
  8
0
 62
     253
 66
     1
 10
0
 20
0
 30
0.0
 40
0.375
 41
0.375
  0
VERTEX
  8
0
 10
2.63986
 20
2.05746
 30
0.0
 40
0.00520833
 41
0.00520833
  0
VERTEX
  8
0
 10
0.864312
 20
2.05746
 30
0.0
 40
0.00520833
 41
0.00520833
  0
SEQEND
 8
0
  0
POLYLINE
  8
0
 62
     253
 66
     1
 10
0
 20
0
 30
0.0
 40
0.375
 41
0.375
  0
VERTEX
  8
0
 10
2.63986
 20
2.09842
 30
0.0
 40
0.00520833
 41
0.00520833
  0
VERTEX
  8
0
 10
0.864312
 20
2.09842
 30
0.0
 40
0.00520833
 41
0.00520833
  0
SEQEND
 8
0
  0
POLYLINE
  8
0
 62
     253
 66
     1
 10
0
 20
0
 30
0.0
 40
0.375
 41
0.375
  0
VERTEX
  8
0
 10
2.63986
 20
2.13943
 30
0.0
 40
0.00520833
 41
0.00520833
  0
VERTEX
  8
0
 10
0.864312
 20
2.13943
 30
0.0
 40
0.00520833
 41
0.00520833
  0
SEQEND
 8
0
  0
POLYLINE
  8
0
 62
     253
 66
     1
 10
0
 20
0
 30
0.0
 40
0.375
 41
0.375
  0
VERTEX
  8
0
 10
2.63986
 20
2.18044
 30
0.0
 40
0.00520833
 41
0.00520833
  0
VERTEX
  8
0
 10
0.864312
 20
2.18044
 30
0.0
 40
0.00520833
 41
0.00520833
  0
SEQEND
 8
0
  0
POLYLINE
  8
0
 62
     253
 66
     1
 10
0
 20
0
 30
0.0
 40
0.375
 41
0.375
  0
VERTEX
  8
0
 10
2.63986
 20
2.22146
 30
0.0
 40
0.00520833
 41
0.00520833
  0
VERTEX
  8
0
 10
0.864312
 20
2.22146
 30
0.0
 40
0.00520833
 41
0.00520833
  0
SEQEND
 8
0
  0
POLYLINE
  8
0
 62
     253
 66
     1
 10
0
 20
0
 30
0.0
 40
0.375
 41
0.375
  0
VERTEX
  8
0
 10
2.63986
 20
2.26247
 30
0.0
 40
0.00520833
 41
0.00520833
  0
VERTEX
  8
0
 10
0.864312
 20
2.26247
 30
0.0
 40
0.00520833
 41
0.00520833
  0
SEQEND
 8
0
  0
POLYLINE
  8
0
 62
     253
 66
     1
 10
0
 20
0
 30
0.0
 40
0.375
 41
0.375
  0
VERTEX
  8
0
 10
2.63986
 20
2.30344
 30
0.0
 40
0.00520833
 41
0.00520833
  0
VERTEX
  8
0
 10
0.864312
 20
2.30344
 30
0.0
 40
0.00520833
 41
0.00520833
  0
SEQEND
 8
0
  0
POLYLINE
  8
0
 62
     253
 66
     1
 10
0
 20
0
 30
0.0
 40
0.375
 41
0.375
  0
VERTEX
  8
0
 10
2.63986
 20
2.34446
 30
0.0
 40
0.00520833
 41
0.00520833
  0
VERTEX
  8
0
 10
0.864312
 20
2.34446
 30
0.0
 40
0.00520833
 41
0.00520833
  0
SEQEND
 8
0
  0
POLYLINE
  8
0
 62
     253
 66
     1
 10
0
 20
0
 30
0.0
 40
0.375
 41
0.375
  0
VERTEX
  8
0
 10
2.63986
 20
2.38547
 30
0.0
 40
0.00520833
 41
0.00520833
  0
VERTEX
  8
0
 10
0.864312
 20
2.38547
 30
0.0
 40
0.00520833
 41
0.00520833
  0
SEQEND
 8
0
  0
POLYLINE
  8
0
 62
     253
 66
     1
 10
0
 20
0
 30
0.0
 40
0.375
 41
0.375
  0
VERTEX
  8
0
 10
2.63986
 20
2.42649
 30
0.0
 40
0.00520833
 41
0.00520833
  0
VERTEX
  8
0
 10
0.864312
 20
2.42649
 30
0.0
 40
0.00520833
 41
0.00520833
  0
SEQEND
 8
0
  0
POLYLINE
  8
0
 62
     253
 66
     1
 10
0
 20
0
 30
0.0
 40
0.375
 41
0.375
  0
VERTEX
  8
0
 10
2.63986
 20
2.4675
 30
0.0
 40
0.00520833
 41
0.00520833
  0
VERTEX
  8
0
 10
0.864312
 20
2.4675
 30
0.0
 40
0.00520833
 41
0.00520833
  0
SEQEND
 8
0
  0
POLYLINE
  8
0
 62
     253
 66
     1
 10
0
 20
0
 30
0.0
 40
0.375
 41
0.375
  0
VERTEX
  8
0
 10
2.63986
 20
2.50846
 30
0.0
 40
0.00520833
 41
0.00520833
  0
VERTEX
  8
0
 10
0.864312
 20
2.50846
 30
0.0
 40
0.00520833
 41
0.00520833
  0
SEQEND
 8
0
  0
POLYLINE
  8
0
 62
     7
 66
     1
 10
0
 20
0
 30
0.0
 70
     1
 40
0
 41
0
  0
VERTEX
  8
0
 10
0.864367
 20
2.96744
 30
0.0
 40
0
 41
0
  0
VERTEX
  8
0
 10
2.63965
 20
2.96744
 30
0.0
 40
0
 41
0
  0
VERTEX
  8
0
 10
2.63965
 20
2.55078
 30
0.0
 40
0
 41
0
  0
VERTEX
  8
0
 10
0.864367
 20
2.55078
 30
0.0
 40
0
 41
0
  0
VERTEX
  8
0
 10
0.864367
 20
2.96744
 30
0.0
 40
0
 41
0
  0
SEQEND
 8
0
  0
POLYLINE
  8
0
 62
     0
 66
     1
 10
0
 20
0
 30
0.0
 70
     1
 40
0.75
 41
0.75
  0
VERTEX
  8
0
 10
0.864367
 20
2.96744
 30
0.0
 40
0.0104167
 41
0.0104167
  0
VERTEX
  8
0
 10
2.63965
 20
2.96744
 30
0.0
 40
0.0104167
 41
0.0104167
  0
VERTEX
  8
0
 10
2.63965
 20
2.55078
 30
0.0
 40
0.0104167
 41
0.0104167
  0
VERTEX
  8
0
 10
0.864367
 20
2.55078
 30
0.0
 40
0.0104167
 41
0.0104167
  0
VERTEX
  8
0
 10
0.864367
 20
2.96744
 30
0.0
 40
0.0104167
 41
0.0104167
  0
SEQEND
 8
0
  0
POLYLINE
  8
0
 62
     253
 66
     1
 10
0
 20
0
 30
0.0
 40
0.375
 41
0.375
  0
VERTEX
  8
0
 10
2.63965
 20
2.59244
 30
0.0
 40
0.00520833
 41
0.00520833
  0
VERTEX
  8
0
 10
0.864312
 20
2.59244
 30
0.0
 40
0.00520833
 41
0.00520833
  0
SEQEND
 8
0
  0
POLYLINE
  8
0
 62
     253
 66
     1
 10
0
 20
0
 30
0.0
 40
0.375
 41
0.375
  0
VERTEX
  8
0
 10
2.63965
 20
2.63411
 30
0.0
 40
0.00520833
 41
0.00520833
  0
VERTEX
  8
0
 10
0.864312
 20
2.63411
 30
0.0
 40
0.00520833
 41
0.00520833
  0
SEQEND
 8
0
  0
POLYLINE
  8
0
 62
     253
 66
     1
 10
0
 20
0
 30
0.0
 40
0.375
 41
0.375
  0
VERTEX
  8
0
 10
2.63965
 20
2.67578
 30
0.0
 40
0.00520833
 41
0.00520833
  0
VERTEX
  8
0
 10
0.864312
 20
2.67578
 30
0.0
 40
0.00520833
 41
0.00520833
  0
SEQEND
 8
0
  0
POLYLINE
  8
0
 62
     253
 66
     1
 10
0
 20
0
 30
0.0
 40
0.375
 41
0.375
  0
VERTEX
  8
0
 10
2.63965
 20
2.71744
 30
0.0
 40
0.00520833
 41
0.00520833
  0
VERTEX
  8
0
 10
0.864312
 20
2.71744
 30
0.0
 40
0.00520833
 41
0.00520833
  0
SEQEND
 8
0
  0
POLYLINE
  8
0
 62
     253
 66
     1
 10
0
 20
0
 30
0.0
 40
0.375
 41
0.375
  0
VERTEX
  8
0
 10
2.63965
 20
2.75911
 30
0.0
 40
0.00520833
 41
0.00520833
  0
VERTEX
  8
0
 10
0.864312
 20
2.75911
 30
0.0
 40
0.00520833
 41
0.00520833
  0
SEQEND
 8
0
  0
POLYLINE
  8
0
 62
     253
 66
     1
 10
0
 20
0
 30
0.0
 40
0.375
 41
0.375
  0
VERTEX
  8
0
 10
2.63965
 20
2.80078
 30
0.0
 40
0.00520833
 41
0.00520833
  0
VERTEX
  8
0
 10
0.864312
 20
2.80078
 30
0.0
 40
0.00520833
 41
0.00520833
  0
SEQEND
 8
0
  0
POLYLINE
  8
0
 62
     253
 66
     1
 10
0
 20
0
 30
0.0
 40
0.375
 41
0.375
  0
VERTEX
  8
0
 10
2.63965
 20
2.84244
 30
0.0
 40
0.00520833
 41
0.00520833
  0
VERTEX
  8
0
 10
0.864312
 20
2.84244
 30
0.0
 40
0.00520833
 41
0.00520833
  0
SEQEND
 8
0
  0
POLYLINE
  8
0
 62
     253
 66
     1
 10
0
 20
0
 30
0.0
 40
0.375
 41
0.375
  0
VERTEX
  8
0
 10
2.63965
 20
2.88411
 30
0.0
 40
0.00520833
 41
0.00520833
  0
VERTEX
  8
0
 10
0.864312
 20
2.88411
 30
0.0
 40
0.00520833
 41
0.00520833
  0
SEQEND
 8
0
  0
POLYLINE
  8
0
 62
     253
 66
     1
 10
0
 20
0
 30
0.0
 40
0.375
 41
0.375
  0
VERTEX
  8
0
 10
2.63965
 20
2.92578
 30
0.0
 40
0.00520833
 41
0.00520833
  0
VERTEX
  8
0
 10
0.864312
 20
2.92578
 30
0.0
 40
0.00520833
 41
0.00520833
  0
SEQEND
 8
0
  0
POLYLINE
  8
0
 62
     7
 66
     1
 10
0
 20
0
 30
0.0
 70
     1
 40
0
 41
0
  0
VERTEX
  8
0
 10
1.72672
 20
3.37999
 30
0.0
 40
0
 41
0
  0
VERTEX
  8
0
 10
2.58431
 20
3.37999
 30
0.0
 40
0
 41
0
  0
VERTEX
  8
0
 10
2.58431
 20
2.96875
 30
0.0
 40
0
 41
0
  0
VERTEX
  8
0
 10
1.72672
 20
2.96875
 30
0.0
 40
0
 41
0
  0
VERTEX
  8
0
 10
1.72672
 20
3.37999
 30
0.0
 40
0
 41
0
  0
SEQEND
 8
0
  0
POLYLINE
  8
0
 62
     0
 66
     1
 10
0
 20
0
 30
0.0
 70
     1
 40
0.75
 41
0.75
  0
VERTEX
  8
0
 10
1.72672
 20
3.37999
 30
0.0
 40
0.0104167
 41
0.0104167
  0
VERTEX
  8
0
 10
2.58431
 20
3.37999
 30
0.0
 40
0.0104167
 41
0.0104167
  0
VERTEX
  8
0
 10
2.58431
 20
2.96875
 30
0.0
 40
0.0104167
 41
0.0104167
  0
VERTEX
  8
0
 10
1.72672
 20
2.96875
 30
0.0
 40
0.0104167
 41
0.0104167
  0
VERTEX
  8
0
 10
1.72672
 20
3.37999
 30
0.0
 40
0.0104167
 41
0.0104167
  0
SEQEND
 8
0
  0
POLYLINE
  8
0
 62
     253
 66
     1
 10
0
 20
0
 30
0.0
 40
0.375
 41
0.375
  0
VERTEX
  8
0
 10
2.58431
 20
3.00988
 30
0.0
 40
0.00520833
 41
0.00520833
  0
VERTEX
  8
0
 10
1.72672
 20
3.00988
 30
0.0
 40
0.00520833
 41
0.00520833
  0
SEQEND
 8
0
  0
POLYLINE
  8
0
 62
     253
 66
     1
 10
0
 20
0
 30
0.0
 40
0.375
 41
0.375
  0
VERTEX
  8
0
 10
2.58431
 20
3.051
 30
0.0
 40
0.00520833
 41
0.00520833
  0
VERTEX
  8
0
 10
1.72672
 20
3.051
 30
0.0
 40
0.00520833
 41
0.00520833
  0
SEQEND
 8
0
  0
POLYLINE
  8
0
 62
     253
 66
     1
 10
0
 20
0
 30
0.0
 40
0.375
 41
0.375
  0
VERTEX
  8
0
 10
2.58431
 20
3.09212
 30
0.0
 40
0.00520833
 41
0.00520833
  0
VERTEX
  8
0
 10
1.72672
 20
3.09212
 30
0.0
 40
0.00520833
 41
0.00520833
  0
SEQEND
 8
0
  0
POLYLINE
  8
0
 62
     253
 66
     1
 10
0
 20
0
 30
0.0
 40
0.375
 41
0.375
  0
VERTEX
  8
0
 10
2.58431
 20
3.13325
 30
0.0
 40
0.00520833
 41
0.00520833
  0
VERTEX
  8
0
 10
1.72672
 20
3.13325
 30
0.0
 40
0.00520833
 41
0.00520833
  0
SEQEND
 8
0
  0
POLYLINE
  8
0
 62
     253
 66
     1
 10
0
 20
0
 30
0.0
 40
0.375
 41
0.375
  0
VERTEX
  8
0
 10
2.58431
 20
3.17437
 30
0.0
 40
0.00520833
 41
0.00520833
  0
VERTEX
  8
0
 10
1.72672
 20
3.17437
 30
0.0
 40
0.00520833
 41
0.00520833
  0
SEQEND
 8
0
  0
POLYLINE
  8
0
 62
     253
 66
     1
 10
0
 20
0
 30
0.0
 40
0.375
 41
0.375
  0
VERTEX
  8
0
 10
2.58431
 20
3.2155
 30
0.0
 40
0.00520833
 41
0.00520833
  0
VERTEX
  8
0
 10
1.72672
 20
3.2155
 30
0.0
 40
0.00520833
 41
0.00520833
  0
SEQEND
 8
0
  0
POLYLINE
  8
0
 62
     253
 66
     1
 10
0
 20
0
 30
0.0
 40
0.375
 41
0.375
  0
VERTEX
  8
0
 10
2.58431
 20
3.25663
 30
0.0
 40
0.00520833
 41
0.00520833
  0
VERTEX
  8
0
 10
1.72672
 20
3.25663
 30
0.0
 40
0.00520833
 41
0.00520833
  0
SEQEND
 8
0
  0
POLYLINE
  8
0
 62
     253
 66
     1
 10
0
 20
0
 30
0.0
 40
0.375
 41
0.375
  0
VERTEX
  8
0
 10
2.58431
 20
3.29775
 30
0.0
 40
0.00520833
 41
0.00520833
  0
VERTEX
  8
0
 10
1.72672
 20
3.29775
 30
0.0
 40
0.00520833
 41
0.00520833
  0
SEQEND
 8
0
  0
POLYLINE
  8
0
 62
     253
 66
     1
 10
0
 20
0
 30
0.0
 40
0.375
 41
0.375
  0
VERTEX
  8
0
 10
2.58431
 20
3.33892
 30
0.0
 40
0.00520833
 41
0.00520833
  0
VERTEX
  8
0
 10
1.72672
 20
3.33892
 30
0.0
 40
0.00520833
 41
0.00520833
  0
SEQEND
 8
0
  0
POLYLINE
  8
0
 62
     7
 66
     1
 10
0
 20
0
 30
0.0
 70
     1
 40
0
 41
0
  0
VERTEX
  8
0
 10
0.926594
 20
3.37397
 30
0.0
 40
0
 41
0
  0
VERTEX
  8
0
 10
1.39492
 20
3.37397
 30
0.0
 40
0
 41
0
  0
VERTEX
  8
0
 10
1.39492
 20
3.02914
 30
0.0
 40
0
 41
0
  0
VERTEX
  8
0
 10
0.926594
 20
3.02914
 30
0.0
 40
0
 41
0
  0
VERTEX
  8
0
 10
0.926594
 20
3.37397
 30
0.0
 40
0
 41
0
  0
SEQEND
 8
0
  0
POLYLINE
  8
0
 62
     0
 66
     1
 10
0
 20
0
 30
0.0
 70
     1
 40
0.561975
 41
0.561975
  0
VERTEX
  8
0
 10
0.926594
 20
3.37397
 30
0.0
 40
0.00780521
 41
0.00780521
  0
VERTEX
  8
0
 10
1.39492
 20
3.37397
 30
0.0
 40
0.00780521
 41
0.00780521
  0
VERTEX
  8
0
 10
1.39492
 20
3.02914
 30
0.0
 40
0.00780521
 41
0.00780521
  0
VERTEX
  8
0
 10
0.926594
 20
3.02914
 30
0.0
 40
0.00780521
 41
0.00780521
  0
VERTEX
  8
0
 10
0.926594
 20
3.37397
 30
0.0
 40
0.00780521
 41
0.00780521
  0
SEQEND
 8
0
  0
POLYLINE
  8
0
 62
     0
 66
     1
 10
0
 20
0
 30
0.0
 40
0.561975
 41
0.561975
  0
VERTEX
  8
0
 10
0.926594
 20
3.02914
 30
0.0
 40
0.00780521
 41
0.00780521
  0
VERTEX
  8
0
 10
1.23649
 20
3.20156
 30
0.0
 40
0.00780521
 41
0.00780521
  0
VERTEX
  8
0
 10
1.09364
 20
3.20156
 30
0.0
 40
0.00780521
 41
0.00780521
  0
VERTEX
  8
0
 10
1.39492
 20
3.37397
 30
0.0
 40
0.00780521
 41
0.00780521
  0
SEQEND
 8
0
  0
POLYLINE
  8
0
 62
     7
 66
     1
 10
0
 20
0
 30
0.0
 70
     1
 40
0
 41
0
  0
VERTEX
  8
0
 10
1.2577
 20
3.63861
 30
0.0
 40
0
 41
0
  0
VERTEX
  8
0
 10
1.3744
 20
3.63861
 30
0.0
 40
0
 41
0
  0
VERTEX
  8
0
 10
1.3744
 20
3.57503
 30
0.0
 40
0
 41
0
  0
VERTEX
  8
0
 10
1.2577
 20
3.57503
 30
0.0
 40
0
 41
0
  0
VERTEX
  8
0
 10
1.2577
 20
3.63861
 30
0.0
 40
0
 41
0
  0
SEQEND
 8
0
  0
POLYLINE
  8
0
 62
     0
 66
     1
 10
0
 20
0
 30
0.0
 70
     1
 40
0.75
 41
0.75
  0
VERTEX
  8
0
 10
1.2577
 20
3.63861
 30
0.0
 40
0.0104167
 41
0.0104167
  0
VERTEX
  8
0
 10
1.3744
 20
3.63861
 30
0.0
 40
0.0104167
 41
0.0104167
  0
VERTEX
  8
0
 10
1.3744
 20
3.57503
 30
0.0
 40
0.0104167
 41
0.0104167
  0
VERTEX
  8
0
 10
1.2577
 20
3.57503
 30
0.0
 40
0.0104167
 41
0.0104167
  0
VERTEX
  8
0
 10
1.2577
 20
3.63861
 30
0.0
 40
0.0104167
 41
0.0104167
  0
SEQEND
 8
0
  0
POLYLINE
  8
0
 62
     7
 66
     1
 10
0
 20
0
 30
0.0
 70
     1
 40
0
 41
0
  0
VERTEX
  8
0
 10
1.1129
 20
3.63861
 30
0.0
 40
0
 41
0
  0
VERTEX
  8
0
 10
1.2296
 20
3.63861
 30
0.0
 40
0
 41
0
  0
VERTEX
  8
0
 10
1.2296
 20
3.57503
 30
0.0
 40
0
 41
0
  0
VERTEX
  8
0
 10
1.1129
 20
3.57503
 30
0.0
 40
0
 41
0
  0
VERTEX
  8
0
 10
1.1129
 20
3.63861
 30
0.0
 40
0
 41
0
  0
SEQEND
 8
0
  0
POLYLINE
  8
0
 62
     0
 66
     1
 10
0
 20
0
 30
0.0
 70
     1
 40
0.75
 41
0.75
  0
VERTEX
  8
0
 10
1.1129
 20
3.63861
 30
0.0
 40
0.0104167
 41
0.0104167
  0
VERTEX
  8
0
 10
1.2296
 20
3.63861
 30
0.0
 40
0.0104167
 41
0.0104167
  0
VERTEX
  8
0
 10
1.2296
 20
3.57503
 30
0.0
 40
0.0104167
 41
0.0104167
  0
VERTEX
  8
0
 10
1.1129
 20
3.57503
 30
0.0
 40
0.0104167
 41
0.0104167
  0
VERTEX
  8
0
 10
1.1129
 20
3.63861
 30
0.0
 40
0.0104167
 41
0.0104167
  0
SEQEND
 8
0
  0
POLYLINE
  8
0
 62
     7
 66
     1
 10
0
 20
0
 30
0.0
 70
     1
 40
0
 41
0
  0
VERTEX
  8
0
 10
1.07856
 20
3.63861
 30
0.0
 40
0
 41
0
  0
VERTEX
  8
0
 10
1.11399
 20
3.63861
 30
0.0
 40
0
 41
0
  0
VERTEX
  8
0
 10
1.11399
 20
3.57503
 30
0.0
 40
0
 41
0
  0
VERTEX
  8
0
 10
1.07856
 20
3.57503
 30
0.0
 40
0
 41
0
  0
VERTEX
  8
0
 10
1.07856
 20
3.63861
 30
0.0
 40
0
 41
0
  0
SEQEND
 8
0
  0
POLYLINE
  8
0
 62
     0
 66
     1
 10
0
 20
0
 30
0.0
 70
     1
 40
0.75
 41
0.75
  0
VERTEX
  8
0
 10
1.07856
 20
3.63861
 30
0.0
 40
0.0104167
 41
0.0104167
  0
VERTEX
  8
0
 10
1.11399
 20
3.63861
 30
0.0
 40
0.0104167
 41
0.0104167
  0
VERTEX
  8
0
 10
1.11399
 20
3.57503
 30
0.0
 40
0.0104167
 41
0.0104167
  0
VERTEX
  8
0
 10
1.07856
 20
3.57503
 30
0.0
 40
0.0104167
 41
0.0104167
  0
VERTEX
  8
0
 10
1.07856
 20
3.63861
 30
0.0
 40
0.0104167
 41
0.0104167
  0
SEQEND
 8
0
  0
POLYLINE
  8
0
 62
     7
 66
     1
 10
0
 20
0
 30
0.0
 70
     1
 40
0
 41
0
  0
VERTEX
  8
0
 10
1.3744
 20
3.63861
 30
0.0
 40
0
 41
0
  0
VERTEX
  8
0
 10
1.40771
 20
3.63861
 30
0.0
 40
0
 41
0
  0
VERTEX
  8
0
 10
1.40771
 20
3.57503
 30
0.0
 40
0
 41
0
  0
VERTEX
  8
0
 10
1.3744
 20
3.57503
 30
0.0
 40
0
 41
0
  0
VERTEX
  8
0
 10
1.3744
 20
3.63861
 30
0.0
 40
0
 41
0
  0
SEQEND
 8
0
  0
POLYLINE
  8
0
 62
     0
 66
     1
 10
0
 20
0
 30
0.0
 70
     1
 40
0.75
 41
0.75
  0
VERTEX
  8
0
 10
1.3744
 20
3.63861
 30
0.0
 40
0.0104167
 41
0.0104167
  0
VERTEX
  8
0
 10
1.40771
 20
3.63861
 30
0.0
 40
0.0104167
 41
0.0104167
  0
VERTEX
  8
0
 10
1.40771
 20
3.57503
 30
0.0
 40
0.0104167
 41
0.0104167
  0
VERTEX
  8
0
 10
1.3744
 20
3.57503
 30
0.0
 40
0.0104167
 41
0.0104167
  0
VERTEX
  8
0
 10
1.3744
 20
3.63861
 30
0.0
 40
0.0104167
 41
0.0104167
  0
SEQEND
 8
0
  0
POLYLINE
  8
0
 62
     7
 66
     1
 10
0
 20
0
 30
0.0
 70
     1
 40
0
 41
0
  0
VERTEX
  8
0
 10
1.2577
 20
3.65836
 30
0.0
 40
0
 41
0
  0
VERTEX
  8
0
 10
1.2577
 20
3.66471
 30
0.0
 40
0
 41
0
  0
VERTEX
  8
0
 10
1.26134
 20
3.68365
 30
0.0
 40
0
 41
0
  0
VERTEX
  8
0
 10
1.27121
 20
3.70606
 30
0.0
 40
0
 41
0
  0
VERTEX
  8
0
 10
1.27436
 20
3.71044
 30
0.0
 40
0
 41
0
  0
VERTEX
  8
0
 10
1.27539
 20
3.71203
 30
0.0
 40
0
 41
0
  0
VERTEX
  8
0
 10
1.28559
 20
3.72667
 30
0.0
 40
0
 41
0
  0
VERTEX
  8
0
 10
1.28586
 20
3.72819
 30
0.0
 40
0
 41
0
  0
VERTEX
  8
0
 10
1.28635
 20
3.73107
 30
0.0
 40
0
 41
0
  0
VERTEX
  8
0
 10
1.28217
 20
3.74761
 30
0.0
 40
0
 41
0
  0
VERTEX
  8
0
 10
1.26552
 20
3.76047
 30
0.0
 40
0
 41
0
  0
VERTEX
  8
0
 10
1.25982
 20
3.7615
 30
0.0
 40
0
 41
0
  0
VERTEX
  8
0
 10
1.25852
 20
3.76178
 30
0.0
 40
0
 41
0
  0
VERTEX
  8
0
 10
1.24696
 20
3.76253
 30
0.0
 40
0
 41
0
  0
VERTEX
  8
0
 10
1.24311
 20
3.76253
 30
0.0
 40
0
 41
0
  0
VERTEX
  8
0
 10
1.24419
 20
3.76253
 30
0.0
 40
0
 41
0
  0
VERTEX
  8
0
 10
1.24002
 20
3.76253
 30
0.0
 40
0
 41
0
  0
VERTEX
  8
0
 10
1.22879
 20
3.76178
 30
0.0
 40
0
 41
0
  0
VERTEX
  8
0
 10
1.22748
 20
3.7615
 30
0.0
 40
0
 41
0
  0
VERTEX
  8
0
 10
1.22173
 20
3.76047
 30
0.0
 40
0
 41
0
  0
VERTEX
  8
0
 10
1.20508
 20
3.74761
 30
0.0
 40
0
 41
0
  0
VERTEX
  8
0
 10
1.2009
 20
3.73107
 30
0.0
 40
0
 41
0
  0
VERTEX
  8
0
 10
1.20144
 20
3.72819
 30
0.0
 40
0
 41
0
  0
VERTEX
  8
0
 10
1.20171
 20
3.72667
 30
0.0
 40
0
 41
0
  0
VERTEX
  8
0
 10
1.21186
 20
3.71203
 30
0.0
 40
0
 41
0
  0
VERTEX
  8
0
 10
1.21294
 20
3.71044
 30
0.0
 40
0
 41
0
  0
VERTEX
  8
0
 10
1.21604
 20
3.70606
 30
0.0
 40
0
 41
0
  0
VERTEX
  8
0
 10
1.22591
 20
3.68365
 30
0.0
 40
0
 41
0
  0
VERTEX
  8
0
 10
1.2296
 20
3.66471
 30
0.0
 40
0
 41
0
  0
VERTEX
  8
0
 10
1.2296
 20
3.65836
 30
0.0
 40
0
 41
0
  0
SEQEND
 8
0
  0
POLYLINE
  8
0
 62
     0
 66
     1
 10
0
 20
0
 30
0.0
 40
0.75
 41
0.75
  0
VERTEX
  8
0
 10
1.2577
 20
3.65836
 30
0.0
 40
0.0104167
 41
0.0104167
  0
VERTEX
  8
0
 10
1.2577
 20
3.66471
 30
0.0
 40
0.0104167
 41
0.0104167
  0
VERTEX
  8
0
 10
1.26134
 20
3.68365
 30
0.0
 40
0.0104167
 41
0.0104167
  0
VERTEX
  8
0
 10
1.27121
 20
3.70606
 30
0.0
 40
0.0104167
 41
0.0104167
  0
VERTEX
  8
0
 10
1.27436
 20
3.71044
 30
0.0
 40
0.0104167
 41
0.0104167
  0
VERTEX
  8
0
 10
1.27539
 20
3.71203
 30
0.0
 40
0.0104167
 41
0.0104167
  0
VERTEX
  8
0
 10
1.28559
 20
3.72667
 30
0.0
 40
0.0104167
 41
0.0104167
  0
VERTEX
  8
0
 10
1.28586
 20
3.72819
 30
0.0
 40
0.0104167
 41
0.0104167
  0
VERTEX
  8
0
 10
1.28635
 20
3.73107
 30
0.0
 40
0.0104167
 41
0.0104167
  0
VERTEX
  8
0
 10
1.28217
 20
3.74761
 30
0.0
 40
0.0104167
 41
0.0104167
  0
VERTEX
  8
0
 10
1.26552
 20
3.76047
 30
0.0
 40
0.0104167
 41
0.0104167
  0
VERTEX
  8
0
 10
1.25982
 20
3.7615
 30
0.0
 40
0.0104167
 41
0.0104167
  0
VERTEX
  8
0
 10
1.25852
 20
3.76178
 30
0.0
 40
0.0104167
 41
0.0104167
  0
VERTEX
  8
0
 10
1.24696
 20
3.76253
 30
0.0
 40
0.0104167
 41
0.0104167
  0
VERTEX
  8
0
 10
1.24311
 20
3.76253
 30
0.0
 40
0.0104167
 41
0.0104167
  0
VERTEX
  8
0
 10
1.24419
 20
3.76253
 30
0.0
 40
0.0104167
 41
0.0104167
  0
VERTEX
  8
0
 10
1.24002
 20
3.76253
 30
0.0
 40
0.0104167
 41
0.0104167
  0
VERTEX
  8
0
 10
1.22879
 20
3.76178
 30
0.0
 40
0.0104167
 41
0.0104167
  0
VERTEX
  8
0
 10
1.22748
 20
3.7615
 30
0.0
 40
0.0104167
 41
0.0104167
  0
VERTEX
  8
0
 10
1.22173
 20
3.76047
 30
0.0
 40
0.0104167
 41
0.0104167
  0
VERTEX
  8
0
 10
1.20508
 20
3.74761
 30
0.0
 40
0.0104167
 41
0.0104167
  0
VERTEX
  8
0
 10
1.2009
 20
3.73107
 30
0.0
 40
0.0104167
 41
0.0104167
  0
VERTEX
  8
0
 10
1.20144
 20
3.72819
 30
0.0
 40
0.0104167
 41
0.0104167
  0
VERTEX
  8
0
 10
1.20171
 20
3.72667
 30
0.0
 40
0.0104167
 41
0.0104167
  0
VERTEX
  8
0
 10
1.21186
 20
3.71203
 30
0.0
 40
0.0104167
 41
0.0104167
  0
VERTEX
  8
0
 10
1.21294
 20
3.71044
 30
0.0
 40
0.0104167
 41
0.0104167
  0
VERTEX
  8
0
 10
1.21604
 20
3.70606
 30
0.0
 40
0.0104167
 41
0.0104167
  0
VERTEX
  8
0
 10
1.22591
 20
3.68365
 30
0.0
 40
0.0104167
 41
0.0104167
  0
VERTEX
  8
0
 10
1.2296
 20
3.66471
 30
0.0
 40
0.0104167
 41
0.0104167
  0
VERTEX
  8
0
 10
1.2296
 20
3.65836
 30
0.0
 40
0.0104167
 41
0.0104167
  0
SEQEND
 8
0
  0
POLYLINE
  8
0
 62
     7
 66
     1
 10
0
 20
0
 30
0.0
 70
     1
 40
0
 41
0
  0
VERTEX
  8
0
 10
1.28586
 20
3.72922
 30
0.0
 40
0
 41
0
  0
VERTEX
  8
0
 10
1.28559
 20
3.72976
 30
0.0
 40
0
 41
0
  0
VERTEX
  8
0
 10
1.27371
 20
3.7399
 30
0.0
 40
0
 41
0
  0
VERTEX
  8
0
 10
1.24995
 20
3.74903
 30
0.0
 40
0
 41
0
  0
VERTEX
  8
0
 10
1.24208
 20
3.74903
 30
0.0
 40
0
 41
0
  0
VERTEX
  8
0
 10
1.23579
 20
3.74881
 30
0.0
 40
0
 41
0
  0
VERTEX
  8
0
 10
1.21316
 20
3.73953
 30
0.0
 40
0
 41
0
  0
VERTEX
  8
0
 10
1.20193
 20
3.72976
 30
0.0
 40
0
 41
0
  0
VERTEX
  8
0
 10
1.20144
 20
3.72922
 30
0.0
 40
0
 41
0
  0
SEQEND
 8
0
  0
POLYLINE
  8
0
 62
     0
 66
     1
 10
0
 20
0
 30
0.0
 40
0.75
 41
0.75
  0
VERTEX
  8
0
 10
1.28586
 20
3.72922
 30
0.0
 40
0.0104167
 41
0.0104167
  0
VERTEX
  8
0
 10
1.28559
 20
3.72976
 30
0.0
 40
0.0104167
 41
0.0104167
  0
VERTEX
  8
0
 10
1.27371
 20
3.7399
 30
0.0
 40
0.0104167
 41
0.0104167
  0
VERTEX
  8
0
 10
1.24995
 20
3.74903
 30
0.0
 40
0.0104167
 41
0.0104167
  0
VERTEX
  8
0
 10
1.24208
 20
3.74903
 30
0.0
 40
0.0104167
 41
0.0104167
  0
VERTEX
  8
0
 10
1.23579
 20
3.74881
 30
0.0
 40
0.0104167
 41
0.0104167
  0
VERTEX
  8
0
 10
1.21316
 20
3.73953
 30
0.0
 40
0.0104167
 41
0.0104167
  0
VERTEX
  8
0
 10
1.20193
 20
3.72976
 30
0.0
 40
0.0104167
 41
0.0104167
  0
VERTEX
  8
0
 10
1.20144
 20
3.72922
 30
0.0
 40
0.0104167
 41
0.0104167
  0
SEQEND
 8
0
  0
POLYLINE
  8
0
 62
     7
 66
     1
 10
0
 20
0
 30
0.0
 70
     1
 40
0
 41
0
  0
VERTEX
  8
0
 10
1.2577
 20
3.57503
 30
0.0
 40
0
 41
0
  0
VERTEX
  8
0
 10
1.2296
 20
3.57503
 30
0.0
 40
0
 41
0
  0
VERTEX
  8
0
 10
1.2296
 20
3.65836
 30
0.0
 40
0
 41
0
  0
VERTEX
  8
0
 10
1.2366
 20
3.65836
 30
0.0
 40
0
 41
0
  0
VERTEX
  8
0
 10
1.25239
 20
3.65836
 30
0.0
 40
0
 41
0
  0
VERTEX
  8
0
 10
1.2577
 20
3.65836
 30
0.0
 40
0
 41
0
  0
VERTEX
  8
0
 10
1.2577
 20
3.63753
 30
0.0
 40
0
 41
0
  0
VERTEX
  8
0
 10
1.2577
 20
3.59065
 30
0.0
 40
0
 41
0
  0
VERTEX
  8
0
 10
1.2577
 20
3.57503
 30
0.0
 40
0
 41
0
  0
SEQEND
 8
0
  0
POLYLINE
  8
0
 62
     0
 66
     1
 10
0
 20
0
 30
0.0
 70
     1
 40
0.75
 41
0.75
  0
VERTEX
  8
0
 10
1.2577
 20
3.57503
 30
0.0
 40
0.0104167
 41
0.0104167
  0
VERTEX
  8
0
 10
1.2296
 20
3.57503
 30
0.0
 40
0.0104167
 41
0.0104167
  0
VERTEX
  8
0
 10
1.2296
 20
3.65836
 30
0.0
 40
0.0104167
 41
0.0104167
  0
VERTEX
  8
0
 10
1.2366
 20
3.65836
 30
0.0
 40
0.0104167
 41
0.0104167
  0
VERTEX
  8
0
 10
1.25239
 20
3.65836
 30
0.0
 40
0.0104167
 41
0.0104167
  0
VERTEX
  8
0
 10
1.2577
 20
3.65836
 30
0.0
 40
0.0104167
 41
0.0104167
  0
VERTEX
  8
0
 10
1.2577
 20
3.63753
 30
0.0
 40
0.0104167
 41
0.0104167
  0
VERTEX
  8
0
 10
1.2577
 20
3.59065
 30
0.0
 40
0.0104167
 41
0.0104167
  0
VERTEX
  8
0
 10
1.2577
 20
3.57503
 30
0.0
 40
0.0104167
 41
0.0104167
  0
SEQEND
 8
0
  0
POLYLINE
  8
0
 62
     7
 66
     1
 10
0
 20
0
 30
0.0
 70
     1
 40
0
 41
0
  0
VERTEX
  8
0
 10
1.3744
 20
3.60736
 30
0.0
 40
0
 41
0
  0
VERTEX
  8
0
 10
1.37115
 20
3.60618
 30
0.0
 40
0
 41
0
  0
VERTEX
  8
0
 10
1.36149
 20
3.60226
 30
0.0
 40
0
 41
0
  0
VERTEX
  8
0
 10
1.35878
 20
3.60107
 30
0.0
 40
0
 41
0
  0
VERTEX
  8
0
 10
1.35878
 20
3.60107
 30
0.0
 40
0
 41
0
  0
VERTEX
  8
0
 10
1.35878
 20
3.60254
 30
0.0
 40
0
 41
0
  0
VERTEX
  8
0
 10
1.35878
 20
3.60682
 30
0.0
 40
0
 41
0
  0
VERTEX
  8
0
 10
1.35878
 20
3.61117
 30
0.0
 40
0
 41
0
  0
VERTEX
  8
0
 10
1.35878
 20
3.61257
 30
0.0
 40
0
 41
0
  0
VERTEX
  8
0
 10
1.35878
 20
3.61257
 30
0.0
 40
0
 41
0
  0
VERTEX
  8
0
 10
1.36111
 20
3.61193
 30
0.0
 40
0
 41
0
  0
VERTEX
  8
0
 10
1.37109
 20
3.60856
 30
0.0
 40
0
 41
0
  0
VERTEX
  8
0
 10
1.3744
 20
3.60736
 30
0.0
 40
0
 41
0
  0
SEQEND
 8
0
  0
POLYLINE
  8
0
 62
     0
 66
     1
 10
0
 20
0
 30
0.0
 70
     1
 40
0.75
 41
0.75
  0
VERTEX
  8
0
 10
1.3744
 20
3.60736
 30
0.0
 40
0.0104167
 41
0.0104167
  0
VERTEX
  8
0
 10
1.37115
 20
3.60618
 30
0.0
 40
0.0104167
 41
0.0104167
  0
VERTEX
  8
0
 10
1.36149
 20
3.60226
 30
0.0
 40
0.0104167
 41
0.0104167
  0
VERTEX
  8
0
 10
1.35878
 20
3.60107
 30
0.0
 40
0.0104167
 41
0.0104167
  0
VERTEX
  8
0
 10
1.35878
 20
3.60107
 30
0.0
 40
0.0104167
 41
0.0104167
  0
VERTEX
  8
0
 10
1.35878
 20
3.60254
 30
0.0
 40
0.0104167
 41
0.0104167
  0
VERTEX
  8
0
 10
1.35878
 20
3.60682
 30
0.0
 40
0.0104167
 41
0.0104167
  0
VERTEX
  8
0
 10
1.35878
 20
3.61117
 30
0.0
 40
0.0104167
 41
0.0104167
  0
VERTEX
  8
0
 10
1.35878
 20
3.61257
 30
0.0
 40
0.0104167
 41
0.0104167
  0
VERTEX
  8
0
 10
1.35878
 20
3.61257
 30
0.0
 40
0.0104167
 41
0.0104167
  0
VERTEX
  8
0
 10
1.36111
 20
3.61193
 30
0.0
 40
0.0104167
 41
0.0104167
  0
VERTEX
  8
0
 10
1.37109
 20
3.60856
 30
0.0
 40
0.0104167
 41
0.0104167
  0
VERTEX
  8
0
 10
1.3744
 20
3.60736
 30
0.0
 40
0.0104167
 41
0.0104167
  0
SEQEND
 8
0
  0
POLYLINE
  8
0
 62
     7
 66
     1
 10
0
 20
0
 30
0.0
 70
     1
 40
0
 41
0
  0
VERTEX
  8
0
 10
1.11399
 20
3.60736
 30
0.0
 40
0
 41
0
  0
VERTEX
  8
0
 10
1.11719
 20
3.60618
 30
0.0
 40
0
 41
0
  0
VERTEX
  8
0
 10
1.12684
 20
3.60226
 30
0.0
 40
0
 41
0
  0
VERTEX
  8
0
 10
1.12961
 20
3.60107
 30
0.0
 40
0
 41
0
  0
VERTEX
  8
0
 10
1.12961
 20
3.60107
 30
0.0
 40
0
 41
0
  0
VERTEX
  8
0
 10
1.12961
 20
3.60254
 30
0.0
 40
0
 41
0
  0
VERTEX
  8
0
 10
1.12961
 20
3.60682
 30
0.0
 40
0
 41
0
  0
VERTEX
  8
0
 10
1.12961
 20
3.61117
 30
0.0
 40
0
 41
0
  0
VERTEX
  8
0
 10
1.12961
 20
3.61257
 30
0.0
 40
0
 41
0
  0
VERTEX
  8
0
 10
1.12961
 20
3.61257
 30
0.0
 40
0
 41
0
  0
VERTEX
  8
0
 10
1.12723
 20
3.61193
 30
0.0
 40
0
 41
0
  0
VERTEX
  8
0
 10
1.11724
 20
3.60856
 30
0.0
 40
0
 41
0
  0
VERTEX
  8
0
 10
1.11399
 20
3.60736
 30
0.0
 40
0
 41
0
  0
SEQEND
 8
0
  0
POLYLINE
  8
0
 62
     0
 66
     1
 10
0
 20
0
 30
0.0
 70
     1
 40
0.75
 41
0.75
  0
VERTEX
  8
0
 10
1.11399
 20
3.60736
 30
0.0
 40
0.0104167
 41
0.0104167
  0
VERTEX
  8
0
 10
1.11719
 20
3.60618
 30
0.0
 40
0.0104167
 41
0.0104167
  0
VERTEX
  8
0
 10
1.12684
 20
3.60226
 30
0.0
 40
0.0104167
 41
0.0104167
  0
VERTEX
  8
0
 10
1.12961
 20
3.60107
 30
0.0
 40
0.0104167
 41
0.0104167
  0
VERTEX
  8
0
 10
1.12961
 20
3.60107
 30
0.0
 40
0.0104167
 41
0.0104167
  0
VERTEX
  8
0
 10
1.12961
 20
3.60254
 30
0.0
 40
0.0104167
 41
0.0104167
  0
VERTEX
  8
0
 10
1.12961
 20
3.60682
 30
0.0
 40
0.0104167
 41
0.0104167
  0
VERTEX
  8
0
 10
1.12961
 20
3.61117
 30
0.0
 40
0.0104167
 41
0.0104167
  0
VERTEX
  8
0
 10
1.12961
 20
3.61257
 30
0.0
 40
0.0104167
 41
0.0104167
  0
VERTEX
  8
0
 10
1.12961
 20
3.61257
 30
0.0
 40
0.0104167
 41
0.0104167
  0
VERTEX
  8
0
 10
1.12723
 20
3.61193
 30
0.0
 40
0.0104167
 41
0.0104167
  0
VERTEX
  8
0
 10
1.11724
 20
3.60856
 30
0.0
 40
0.0104167
 41
0.0104167
  0
VERTEX
  8
0
 10
1.11399
 20
3.60736
 30
0.0
 40
0.0104167
 41
0.0104167
  0
SEQEND
 8
0
  0
POLYLINE
  8
0
 62
     7
 66
     1
 10
0
 20
0
 30
0.0
 70
     1
 40
0
 41
0
  0
VERTEX
  8
0
 10
0.819282
 20
5.30414
 30
0.0
 40
0
 41
0
  0
VERTEX
  8
0
 10
1.00657
 20
5.30414
 30
0.0
 40
0
 41
0
  0
VERTEX
  8
0
 10
1.00657
 20
4.88758
 30
0.0
 40
0
 41
0
  0
VERTEX
  8
0
 10
0.819282
 20
4.88758
 30
0.0
 40
0
 41
0
  0
VERTEX
  8
0
 10
0.819282
 20
5.30414
 30
0.0
 40
0
 41
0
  0
SEQEND
 8
0
  0
POLYLINE
  8
0
 62
     0
 66
     1
 10
0
 20
0
 30
0.0
 70
     1
 40
0.75
 41
0.75
  0
VERTEX
  8
0
 10
0.819282
 20
5.30414
 30
0.0
 40
0.0104167
 41
0.0104167
  0
VERTEX
  8
0
 10
0.819282
 20
4.88758
 30
0.0
 40
0.0104167
 41
0.0104167
  0
VERTEX
  8
0
 10
1.00657
 20
4.88758
 30
0.0
 40
0.0104167
 41
0.0104167
  0
VERTEX
  8
0
 10
1.00657
 20
5.30414
 30
0.0
 40
0.0104167
 41
0.0104167
  0
VERTEX
  8
0
 10
0.819282
 20
5.30414
 30
0.0
 40
0.0104167
 41
0.0104167
  0
SEQEND
 8
0
  0
POLYLINE
  8
0
 62
     7
 66
     1
 10
0
 20
0
 30
0.0
 70
     1
 40
0
 41
0
  0
VERTEX
  8
0
 10
1.27485
 20
5.30414
 30
0.0
 40
0
 41
0
  0
VERTEX
  8
0
 10
1.27485
 20
5.30414
 30
0.0
 40
0
 41
0
  0
VERTEX
  8
0
 10
1.28657
 20
5.30425
 30
0.0
 40
0
 41
0
  0
VERTEX
  8
0
 10
1.31755
 20
5.30263
 30
0.0
 40
0
 41
0
  0
VERTEX
  8
0
 10
1.36138
 20
5.2965
 30
0.0
 40
0
 41
0
  0
VERTEX
  8
0
 10
1.41163
 20
5.2831
 30
0.0
 40
0
 41
0
  0
VERTEX
  8
0
 10
1.46186
 20
5.25956
 30
0.0
 40
0
 41
0
  0
VERTEX
  8
0
 10
1.50569
 20
5.2231
 30
0.0
 40
0
 41
0
  0
VERTEX
  8
0
 10
1.53668
 20
5.1709
 30
0.0
 40
0
 41
0
  0
VERTEX
  8
0
 10
1.54844
 20
5.11783
 30
0.0
 40
0
 41
0
  0
VERTEX
  8
0
 10
1.54844
 20
5.10015
 30
0.0
 40
0
 41
0
  0
VERTEX
  8
0
 10
1.54844
 20
5.08187
 30
0.0
 40
0
 41
0
  0
VERTEX
  8
0
 10
1.53668
 20
5.02701
 30
0.0
 40
0
 41
0
  0
VERTEX
  8
0
 10
1.50569
 20
4.97293
 30
0.0
 40
0
 41
0
  0
VERTEX
  8
0
 10
1.46186
 20
4.93511
 30
0.0
 40
0
 41
0
  0
VERTEX
  8
0
 10
1.41163
 20
4.91069
 30
0.0
 40
0
 41
0
  0
VERTEX
  8
0
 10
1.36138
 20
4.89671
 30
0.0
 40
0
 41
0
  0
VERTEX
  8
0
 10
1.31755
 20
4.89031
 30
0.0
 40
0
 41
0
  0
VERTEX
  8
0
 10
1.28657
 20
4.88857
 30
0.0
 40
0
 41
0
  0
VERTEX
  8
0
 10
1.27485
 20
4.88861
 30
0.0
 40
0
 41
0
  0
VERTEX
  8
0
 10
1.27485
 20
4.88861
 30
0.0
 40
0
 41
0
  0
VERTEX
  8
0
 10
1.00657
 20
4.88758
 30
0.0
 40
0
 41
0
  0
VERTEX
  8
0
 10
1.00657
 20
5.30414
 30
0.0
 40
0
 41
0
  0
VERTEX
  8
0
 10
1.27485
 20
5.30414
 30
0.0
 40
0
 41
0
  0
SEQEND
 8
0
  0
POLYLINE
  8
0
 62
     0
 66
     1
 10
0
 20
0
 30
0.0
 70
     1
 40
0.75
 41
0.75
  0
VERTEX
  8
0
 10
1.27485
 20
5.30414
 30
0.0
 40
0.0104167
 41
0.0104167
  0
VERTEX
  8
0
 10
1.27485
 20
5.30414
 30
0.0
 40
0.0104167
 41
0.0104167
  0
VERTEX
  8
0
 10
1.28657
 20
5.30425
 30
0.0
 40
0.0104167
 41
0.0104167
  0
VERTEX
  8
0
 10
1.31755
 20
5.30263
 30
0.0
 40
0.0104167
 41
0.0104167
  0
VERTEX
  8
0
 10
1.36138
 20
5.2965
 30
0.0
 40
0.0104167
 41
0.0104167
  0
VERTEX
  8
0
 10
1.41163
 20
5.2831
 30
0.0
 40
0.0104167
 41
0.0104167
  0
VERTEX
  8
0
 10
1.46186
 20
5.25956
 30
0.0
 40
0.0104167
 41
0.0104167
  0
VERTEX
  8
0
 10
1.50569
 20
5.2231
 30
0.0
 40
0.0104167
 41
0.0104167
  0
VERTEX
  8
0
 10
1.53668
 20
5.1709
 30
0.0
 40
0.0104167
 41
0.0104167
  0
VERTEX
  8
0
 10
1.54844
 20
5.11783
 30
0.0
 40
0.0104167
 41
0.0104167
  0
VERTEX
  8
0
 10
1.54844
 20
5.10015
 30
0.0
 40
0.0104167
 41
0.0104167
  0
VERTEX
  8
0
 10
1.54844
 20
5.08187
 30
0.0
 40
0.0104167
 41
0.0104167
  0
VERTEX
  8
0
 10
1.53668
 20
5.02701
 30
0.0
 40
0.0104167
 41
0.0104167
  0
VERTEX
  8
0
 10
1.50569
 20
4.97293
 30
0.0
 40
0.0104167
 41
0.0104167
  0
VERTEX
  8
0
 10
1.46186
 20
4.93511
 30
0.0
 40
0.0104167
 41
0.0104167
  0
VERTEX
  8
0
 10
1.41163
 20
4.91069
 30
0.0
 40
0.0104167
 41
0.0104167
  0
VERTEX
  8
0
 10
1.36138
 20
4.89671
 30
0.0
 40
0.0104167
 41
0.0104167
  0
VERTEX
  8
0
 10
1.31755
 20
4.89031
 30
0.0
 40
0.0104167
 41
0.0104167
  0
VERTEX
  8
0
 10
1.28657
 20
4.88857
 30
0.0
 40
0.0104167
 41
0.0104167
  0
VERTEX
  8
0
 10
1.27485
 20
4.88861
 30
0.0
 40
0.0104167
 41
0.0104167
  0
VERTEX
  8
0
 10
1.27485
 20
4.88861
 30
0.0
 40
0.0104167
 41
0.0104167
  0
VERTEX
  8
0
 10
1.00657
 20
4.88758
 30
0.0
 40
0.0104167
 41
0.0104167
  0
VERTEX
  8
0
 10
1.00657
 20
5.30414
 30
0.0
 40
0.0104167
 41
0.0104167
  0
VERTEX
  8
0
 10
1.27485
 20
5.30414
 30
0.0
 40
0.0104167
 41
0.0104167
  0
SEQEND
 8
0
  0
POLYLINE
  8
0
 62
     7
 66
     1
 10
0
 20
0
 30
0.0
 70
     1
 40
0
 41
0
  0
VERTEX
  8
0
 10
0.897136
 20
5.12896
 30
0.0
 40
0
 41
0
  0
VERTEX
  8
0
 10
0.928657
 20
5.12896
 30
0.0
 40
0
 41
0
  0
VERTEX
  8
0
 10
0.928657
 20
5.06278
 30
0.0
 40
0
 41
0
  0
VERTEX
  8
0
 10
0.897136
 20
5.06278
 30
0.0
 40
0
 41
0
  0
VERTEX
  8
0
 10
0.897136
 20
5.12896
 30
0.0
 40
0
 41
0
  0
SEQEND
 8
0
  0
POLYLINE
  8
0
 62
     0
 66
     1
 10
0
 20
0
 30
0.0
 70
     1
 40
0.75
 41
0.75
  0
VERTEX
  8
0
 10
0.897136
 20
5.12896
 30
0.0
 40
0.0104167
 41
0.0104167
  0
VERTEX
  8
0
 10
0.897136
 20
5.06278
 30
0.0
 40
0.0104167
 41
0.0104167
  0
VERTEX
  8
0
 10
0.928657
 20
5.06278
 30
0.0
 40
0.0104167
 41
0.0104167
  0
VERTEX
  8
0
 10
0.928657
 20
5.12896
 30
0.0
 40
0.0104167
 41
0.0104167
  0
VERTEX
  8
0
 10
0.897136
 20
5.12896
 30
0.0
 40
0.0104167
 41
0.0104167
  0
SEQEND
 8
0
  0
POLYLINE
  8
0
 62
     7
 66
     1
 10
0
 20
0
 30
0.0
 70
     1
 40
0
 41
0
  0
VERTEX
  8
0
 10
2.78435
 20
6.00108
 30
0.0
 40
0
 41
0
  0
VERTEX
  8
0
 10
3.19943
 20
6.00108
 30
0.0
 40
0
 41
0
  0
VERTEX
  8
0
 10
3.19943
 20
5.37608
 30
0.0
 40
0
 41
0
  0
VERTEX
  8
0
 10
2.78435
 20
5.37608
 30
0.0
 40
0
 41
0
  0
VERTEX
  8
0
 10
2.78435
 20
6.00108
 30
0.0
 40
0
 41
0
  0
SEQEND
 8
0
  0
POLYLINE
  8
0
 62
     0
 66
     1
 10
0
 20
0
 30
0.0
 70
     1
 40
0.75
 41
0.75
  0
VERTEX
  8
0
 10
2.78435
 20
6.00108
 30
0.0
 40
0.0104167
 41
0.0104167
  0
VERTEX
  8
0
 10
3.19943
 20
6.00108
 30
0.0
 40
0.0104167
 41
0.0104167
  0
VERTEX
  8
0
 10
3.19943
 20
5.37608
 30
0.0
 40
0.0104167
 41
0.0104167
  0
VERTEX
  8
0
 10
2.78435
 20
5.37608
 30
0.0
 40
0.0104167
 41
0.0104167
  0
VERTEX
  8
0
 10
2.78435
 20
6.00108
 30
0.0
 40
0.0104167
 41
0.0104167
  0
SEQEND
 8
0
  0
POLYLINE
  8
0
 62
     7
 66
     1
 10
0
 20
0
 30
0.0
 70
     1
 40
0
 41
0
  0
VERTEX
  8
0
 10
3.01812
 20
6.70888
 30
0.0
 40
0
 41
0
  0
VERTEX
  8
0
 10
3.20161
 20
6.70888
 30
0.0
 40
0
 41
0
  0
VERTEX
  8
0
 10
3.20161
 20
6.10607
 30
0.0
 40
0
 41
0
  0
VERTEX
  8
0
 10
3.01812
 20
6.10607
 30
0.0
 40
0
 41
0
  0
VERTEX
  8
0
 10
3.01812
 20
6.70888
 30
0.0
 40
0
 41
0
  0
SEQEND
 8
0
  0
POLYLINE
  8
0
 62
     0
 66
     1
 10
0
 20
0
 30
0.0
 70
     1
 40
1.32127
 41
1.32127
  0
VERTEX
  8
0
 10
3.01812
 20
6.70888
 30
0.0
 40
0.018351
 41
0.018351
  0
VERTEX
  8
0
 10
3.20161
 20
6.70888
 30
0.0
 40
0.018351
 41
0.018351
  0
VERTEX
  8
0
 10
3.20161
 20
6.10607
 30
0.0
 40
0.018351
 41
0.018351
  0
VERTEX
  8
0
 10
3.01812
 20
6.10607
 30
0.0
 40
0.018351
 41
0.018351
  0
VERTEX
  8
0
 10
3.01812
 20
6.70888
 30
0.0
 40
0.018351
 41
0.018351
  0
SEQEND
 8
0
  0
POLYLINE
  8
0
 62
     7
 66
     1
 10
0
 20
0
 30
0.0
 70
     1
 40
0
 41
0
  0
VERTEX
  8
0
 10
2.07422
 20
6.70899
 30
0.0
 40
0
 41
0
  0
VERTEX
  8
0
 10
3.01812
 20
6.70899
 30
0.0
 40
0
 41
0
  0
VERTEX
  8
0
 10
3.01812
 20
6.10622
 30
0.0
 40
0
 41
0
  0
VERTEX
  8
0
 10
2.07422
 20
6.10622
 30
0.0
 40
0
 41
0
  0
VERTEX
  8
0
 10
2.07422
 20
6.70899
 30
0.0
 40
0
 41
0
  0
SEQEND
 8
0
  0
POLYLINE
  8
0
 62
     0
 66
     1
 10
0
 20
0
 30
0.0
 70
     1
 40
0.75
 41
0.75
  0
VERTEX
  8
0
 10
2.07422
 20
6.70899
 30
0.0
 40
0.0104167
 41
0.0104167
  0
VERTEX
  8
0
 10
3.01812
 20
6.70899
 30
0.0
 40
0.0104167
 41
0.0104167
  0
VERTEX
  8
0
 10
3.01812
 20
6.10622
 30
0.0
 40
0.0104167
 41
0.0104167
  0
VERTEX
  8
0
 10
2.07422
 20
6.10622
 30
0.0
 40
0.0104167
 41
0.0104167
  0
VERTEX
  8
0
 10
2.07422
 20
6.70899
 30
0.0
 40
0.0104167
 41
0.0104167
  0
SEQEND
 8
0
  0
POLYLINE
  8
0
 62
     253
 66
     1
 10
0
 20
0
 30
0.0
 40
0.75
 41
0.75
  0
VERTEX
  8
0
 10
3.01812
 20
6.40761
 30
0.0
 40
0.0104167
 41
0.0104167
  0
VERTEX
  8
0
 10
2.07422
 20
6.40761
 30
0.0
 40
0.0104167
 41
0.0104167
  0
SEQEND
 8
0
  0
POLYLINE
  8
0
 62
     7
 66
     1
 10
0
 20
0
 30
0.0
 70
     1
 40
0
 41
0
  0
VERTEX
  8
0
 10
1.65381
 20
6.70942
 30
0.0
 40
0
 41
0
  0
VERTEX
  8
0
 10
2.07422
 20
6.70942
 30
0.0
 40
0
 41
0
  0
VERTEX
  8
0
 10
2.07422
 20
6.10639
 30
0.0
 40
0
 41
0
  0
VERTEX
  8
0
 10
1.65381
 20
6.10639
 30
0.0
 40
0
 41
0
  0
VERTEX
  8
0
 10
1.65381
 20
6.70942
 30
0.0
 40
0
 41
0
  0
SEQEND
 8
0
  0
POLYLINE
  8
0
 62
     0
 66
     1
 10
0
 20
0
 30
0.0
 70
     1
 40
0.75
 41
0.75
  0
VERTEX
  8
0
 10
1.65381
 20
6.70942
 30
0.0
 40
0.0104167
 41
0.0104167
  0
VERTEX
  8
0
 10
2.07422
 20
6.70942
 30
0.0
 40
0.0104167
 41
0.0104167
  0
VERTEX
  8
0
 10
2.07422
 20
6.10639
 30
0.0
 40
0.0104167
 41
0.0104167
  0
VERTEX
  8
0
 10
1.65381
 20
6.10639
 30
0.0
 40
0.0104167
 41
0.0104167
  0
VERTEX
  8
0
 10
1.65381
 20
6.70942
 30
0.0
 40
0.0104167
 41
0.0104167
  0
SEQEND
 8
0
  0
POLYLINE
  8
0
 62
     7
 66
     1
 10
0
 20
0
 30
0.0
 70
     1
 40
0
 41
0
  0
VERTEX
  8
0
 10
0.827528
 20
6.70882
 30
0.0
 40
0
 41
0
  0
VERTEX
  8
0
 10
1.65375
 20
6.70882
 30
0.0
 40
0
 41
0
  0
VERTEX
  8
0
 10
1.65375
 20
6.10607
 30
0.0
 40
0
 41
0
  0
VERTEX
  8
0
 10
0.827528
 20
6.10607
 30
0.0
 40
0
 41
0
  0
VERTEX
  8
0
 10
0.827528
 20
6.70882
 30
0.0
 40
0
 41
0
  0
SEQEND
 8
0
  0
POLYLINE
  8
0
 62
     0
 66
     1
 10
0
 20
0
 30
0.0
 70
     1
 40
0.75
 41
0.75
  0
VERTEX
  8
0
 10
0.827528
 20
6.70882
 30
0.0
 40
0.0104167
 41
0.0104167
  0
VERTEX
  8
0
 10
1.65375
 20
6.70882
 30
0.0
 40
0.0104167
 41
0.0104167
  0
VERTEX
  8
0
 10
1.65375
 20
6.10607
 30
0.0
 40
0.0104167
 41
0.0104167
  0
VERTEX
  8
0
 10
0.827528
 20
6.10607
 30
0.0
 40
0.0104167
 41
0.0104167
  0
VERTEX
  8
0
 10
0.827528
 20
6.70882
 30
0.0
 40
0.0104167
 41
0.0104167
  0
SEQEND
 8
0
  0
POLYLINE
  8
0
 62
     253
 66
     1
 10
0
 20
0
 30
0.0
 40
0.75
 41
0.75
  0
VERTEX
  8
0
 10
1.65375
 20
6.40744
 30
0.0
 40
0.0104167
 41
0.0104167
  0
VERTEX
  8
0
 10
0.827474
 20
6.40744
 30
0.0
 40
0.0104167
 41
0.0104167
  0
SEQEND
 8
0
  0
POLYLINE
  8
0
 62
     7
 66
     1
 10
0
 20
0
 30
0.0
 70
     1
 40
0
 41
0
  0
VERTEX
  8
0
 10
2.77636
 20
3.47504
 30
0.0
 40
0
 41
0
  0
VERTEX
  8
0
 10
3.29178
 20
3.47504
 30
0.0
 40
0
 41
0
  0
VERTEX
  8
0
 10
3.29178
 20
3.41476
 30
0.0
 40
0
 41
0
  0
VERTEX
  8
0
 10
2.77636
 20
3.41476
 30
0.0
 40
0
 41
0
  0
VERTEX
  8
0
 10
2.77636
 20
3.47504
 30
0.0
 40
0
 41
0
  0
SEQEND
 8
0
  0
POLYLINE
  8
0
 62
     0
 66
     1
 10
0
 20
0
 30
0.0
 70
     1
 40
0.434175
 41
0.434175
  0
VERTEX
  8
0
 10
2.77636
 20
3.47504
 30
0.0
 40
0.00603021
 41
0.00603021
  0
VERTEX
  8
0
 10
2.77636
 20
3.41476
 30
0.0
 40
0.00603021
 41
0.00603021
  0
VERTEX
  8
0
 10
3.29178
 20
3.41476
 30
0.0
 40
0.00603021
 41
0.00603021
  0
VERTEX
  8
0
 10
3.29178
 20
3.47504
 30
0.0
 40
0.00603021
 41
0.00603021
  0
VERTEX
  8
0
 10
2.77636
 20
3.47504
 30
0.0
 40
0.00603021
 41
0.00603021
  0
SEQEND
 8
0
  0
POLYLINE
  8
0
 62
     7
 66
     1
 10
0
 20
0
 30
0.0
 70
     1
 40
0
 41
0
  0
VERTEX
  8
0
 10
2.77208
 20
3.41476
 30
0.0
 40
0
 41
0
  0
VERTEX
  8
0
 10
3.38238
 20
3.41476
 30
0.0
 40
0
 41
0
  0
VERTEX
  8
0
 10
3.38238
 20
2.88465
 30
0.0
 40
0
 41
0
  0
VERTEX
  8
0
 10
2.77208
 20
2.88465
 30
0.0
 40
0
 41
0
  0
VERTEX
  8
0
 10
2.77208
 20
3.41476
 30
0.0
 40
0
 41
0
  0
SEQEND
 8
0
  0
POLYLINE
  8
0
 62
     0
 66
     1
 10
0
 20
0
 30
0.0
 70
     1
 40
0.75
 41
0.75
  0
VERTEX
  8
0
 10
2.77208
 20
3.41476
 30
0.0
 40
0.0104167
 41
0.0104167
  0
VERTEX
  8
0
 10
2.77208
 20
2.88465
 30
0.0
 40
0.0104167
 41
0.0104167
  0
VERTEX
  8
0
 10
3.38238
 20
2.88465
 30
0.0
 40
0.0104167
 41
0.0104167
  0
VERTEX
  8
0
 10
3.38238
 20
3.41476
 30
0.0
 40
0.0104167
 41
0.0104167
  0
VERTEX
  8
0
 10
2.77208
 20
3.41476
 30
0.0
 40
0.0104167
 41
0.0104167
  0
SEQEND
 8
0
  0
POLYLINE
  8
0
 62
     7
 66
     1
 10
0
 20
0
 30
0.0
 70
     1
 40
0
 41
0
  0
VERTEX
  8
0
 10
2.77192
 20
2.88465
 30
0.0
 40
0
 41
0
  0
VERTEX
  8
0
 10
3.38286
 20
2.88465
 30
0.0
 40
0
 41
0
  0
VERTEX
  8
0
 10
3.38286
 20
1.85926
 30
0.0
 40
0
 41
0
  0
VERTEX
  8
0
 10
2.77192
 20
1.85926
 30
0.0
 40
0
 41
0
  0
VERTEX
  8
0
 10
2.77192
 20
2.88465
 30
0.0
 40
0
 41
0
  0
SEQEND
 8
0
  0
POLYLINE
  8
0
 62
     0
 66
     1
 10
0
 20
0
 30
0.0
 70
     1
 40
0.75
 41
0.75
  0
VERTEX
  8
0
 10
2.77192
 20
2.88465
 30
0.0
 40
0.0104167
 41
0.0104167
  0
VERTEX
  8
0
 10
2.77192
 20
1.85926
 30
0.0
 40
0.0104167
 41
0.0104167
  0
VERTEX
  8
0
 10
3.38286
 20
1.85926
 30
0.0
 40
0.0104167
 41
0.0104167
  0
VERTEX
  8
0
 10
3.38286
 20
2.88465
 30
0.0
 40
0.0104167
 41
0.0104167
  0
VERTEX
  8
0
 10
2.77192
 20
2.88465
 30
0.0
 40
0.0104167
 41
0.0104167
  0
SEQEND
 8
0
  0
POLYLINE
  8
0
 62
     253
 66
     1
 10
0
 20
0
 30
0.0
 40
0.75
 41
0.75
  0
VERTEX
  8
0
 10
3.07736
 20
1.85926
 30
0.0
 40
0.0104167
 41
0.0104167
  0
VERTEX
  8
0
 10
3.07736
 20
2.8846
 30
0.0
 40
0.0104167
 41
0.0104167
  0
SEQEND
 8
0
  0
POLYLINE
  8
0
 62
     7
 66
     1
 10
0
 20
0
 30
0.0
 70
     1
 40
0
 41
0
  0
VERTEX
  8
0
 10
6.8641
 20
0.852431
 30
0.0
 40
0
 41
0
  0
VERTEX
  8
0
 10
7.02463
 20
0.852431
 30
0.0
 40
0
 41
0
  0
VERTEX
  8
0
 10
7.02463
 20
0.227431
 30
0.0
 40
0
 41
0
  0
VERTEX
  8
0
 10
6.8641
 20
0.227431
 30
0.0
 40
0
 41
0
  0
VERTEX
  8
0
 10
6.8641
 20
0.852431
 30
0.0
 40
0
 41
0
  0
SEQEND
 8
0
  0
POLYLINE
  8
0
 62
     0
 66
     1
 10
0
 20
0
 30
0.0
 70
     1
 40
1.15605
 41
1.15605
  0
VERTEX
  8
0
 10
6.8641
 20
0.852431
 30
0.0
 40
0.0160562
 41
0.0160562
  0
VERTEX
  8
0
 10
7.02463
 20
0.852431
 30
0.0
 40
0.0160562
 41
0.0160562
  0
VERTEX
  8
0
 10
7.02463
 20
0.227431
 30
0.0
 40
0.0160562
 41
0.0160562
  0
VERTEX
  8
0
 10
6.8641
 20
0.227431
 30
0.0
 40
0.0160562
 41
0.0160562
  0
VERTEX
  8
0
 10
6.8641
 20
0.852431
 30
0.0
 40
0.0160562
 41
0.0160562
  0
SEQEND
 8
0
  0
POLYLINE
  8
0
 62
     7
 66
     1
 10
0
 20
0
 30
0.0
 70
     1
 40
0
 41
0
  0
VERTEX
  8
0
 10
6.22547
 20
0.852431
 30
0.0
 40
0
 41
0
  0
VERTEX
  8
0
 10
6.8641
 20
0.852431
 30
0.0
 40
0
 41
0
  0
VERTEX
  8
0
 10
6.8641
 20
0.227431
 30
0.0
 40
0
 41
0
  0
VERTEX
  8
0
 10
6.22547
 20
0.227431
 30
0.0
 40
0
 41
0
  0
VERTEX
  8
0
 10
6.22547
 20
0.852431
 30
0.0
 40
0
 41
0
  0
SEQEND
 8
0
  0
POLYLINE
  8
0
 62
     0
 66
     1
 10
0
 20
0
 30
0.0
 70
     1
 40
0.76635
 41
0.76635
  0
VERTEX
  8
0
 10
6.22547
 20
0.852432
 30
0.0
 40
0.0106437
 41
0.0106437
  0
VERTEX
  8
0
 10
6.8641
 20
0.852432
 30
0.0
 40
0.0106437
 41
0.0106437
  0
VERTEX
  8
0
 10
6.8641
 20
0.227431
 30
0.0
 40
0.0106437
 41
0.0106437
  0
VERTEX
  8
0
 10
6.22547
 20
0.227431
 30
0.0
 40
0.0106437
 41
0.0106437
  0
VERTEX
  8
0
 10
6.22547
 20
0.852432
 30
0.0
 40
0.0106437
 41
0.0106437
  0
SEQEND
 8
0
  0
POLYLINE
  8
0
 62
     0
 66
     1
 10
0
 20
0
 30
0.0
 40
0.76635
 41
0.76635
  0
VERTEX
  8
0
 10
6.8641
 20
0.227431
 30
0.0
 40
0.0106437
 41
0.0106437
  0
VERTEX
  8
0
 10
6.54476
 20
0.613878
 30
0.0
 40
0.0106437
 41
0.0106437
  0
VERTEX
  8
0
 10
6.54476
 20
0.426378
 30
0.0
 40
0.0106437
 41
0.0106437
  0
VERTEX
  8
0
 10
6.22547
 20
0.813857
 30
0.0
 40
0.0106437
 41
0.0106437
  0
SEQEND
 8
0
  0
POLYLINE
  8
0
 62
     7
 66
     1
 10
0
 20
0
 30
0.0
 70
     1
 40
0
 41
0
  0
VERTEX
  8
0
 10
6.22547
 20
0.852431
 30
0.0
 40
0
 41
0
  0
VERTEX
  8
0
 10
6.8641
 20
0.852431
 30
0.0
 40
0
 41
0
  0
VERTEX
  8
0
 10
6.8641
 20
0.810764
 30
0.0
 40
0
 41
0
  0
VERTEX
  8
0
 10
6.22547
 20
0.810764
 30
0.0
 40
0
 41
0
  0
VERTEX
  8
0
 10
6.22547
 20
0.852431
 30
0.0
 40
0
 41
0
  0
SEQEND
 8
0
  0
POLYLINE
  8
0
 62
     0
 66
     1
 10
0
 20
0
 30
0.0
 70
     1
 40
0.76635
 41
0.76635
  0
VERTEX
  8
0
 10
6.22547
 20
0.852432
 30
0.0
 40
0.0106437
 41
0.0106437
  0
VERTEX
  8
0
 10
6.8641
 20
0.852432
 30
0.0
 40
0.0106437
 41
0.0106437
  0
VERTEX
  8
0
 10
6.8641
 20
0.810764
 30
0.0
 40
0.0106437
 41
0.0106437
  0
VERTEX
  8
0
 10
6.22547
 20
0.810764
 30
0.0
 40
0.0106437
 41
0.0106437
  0
VERTEX
  8
0
 10
6.22547
 20
0.852432
 30
0.0
 40
0.0106437
 41
0.0106437
  0
SEQEND
 8
0
  0
POLYLINE
  8
0
 62
     7
 66
     1
 10
0
 20
0
 30
0.0
 70
     1
 40
0
 41
0
  0
VERTEX
  8
0
 10
6.22547
 20
0.227431
 30
0.0
 40
0
 41
0
  0
VERTEX
  8
0
 10
6.22547
 20
0.852919
 30
0.0
 40
0
 41
0
  0
VERTEX
  8
0
 10
5.59119
 20
0.852919
 30
0.0
 40
0
 41
0
  0
VERTEX
  8
0
 10
5.59119
 20
3.5274
 30
0.0
 40
0
 41
0
  0
VERTEX
  8
0
 10
4.96588
 20
3.5274
 30
0.0
 40
0
 41
0
  0
VERTEX
  8
0
 10
4.96289
 20
2.18604
 30
0.0
 40
0
 41
0
  0
VERTEX
  8
0
 10
5.27642
 20
2.18604
 30
0.0
 40
0
 41
0
  0
VERTEX
  8
0
 10
5.27642
 20
1.75136
 30
0.0
 40
0
 41
0
  0
VERTEX
  8
0
 10
4.96674
 20
1.75136
 30
0.0
 40
0
 41
0
  0
VERTEX
  8
0
 10
4.96588
 20
0.226887
 30
0.0
 40
0
 41
0
  0
VERTEX
  8
0
 10
6.22547
 20
0.227431
 30
0.0
 40
0
 41
0
  0
SEQEND
 8
0
  0
POLYLINE
  8
0
 62
     0
 66
     1
 10
0
 20
0
 30
0.0
 70
     1
 40
0.75
 41
0.75
  0
VERTEX
  8
0
 10
6.22547
 20
0.227431
 30
0.0
 40
0.0104167
 41
0.0104167
  0
VERTEX
  8
0
 10
6.22547
 20
0.852919
 30
0.0
 40
0.0104167
 41
0.0104167
  0
VERTEX
  8
0
 10
5.59119
 20
0.852919
 30
0.0
 40
0.0104167
 41
0.0104167
  0
VERTEX
  8
0
 10
5.59119
 20
3.5274
 30
0.0
 40
0.0104167
 41
0.0104167
  0
VERTEX
  8
0
 10
4.96588
 20
3.5274
 30
0.0
 40
0.0104167
 41
0.0104167
  0
VERTEX
  8
0
 10
4.96289
 20
2.18604
 30
0.0
 40
0.0104167
 41
0.0104167
  0
VERTEX
  8
0
 10
5.27642
 20
2.18604
 30
0.0
 40
0.0104167
 41
0.0104167
  0
VERTEX
  8
0
 10
5.27642
 20
1.75136
 30
0.0
 40
0.0104167
 41
0.0104167
  0
VERTEX
  8
0
 10
4.96674
 20
1.75136
 30
0.0
 40
0.0104167
 41
0.0104167
  0
VERTEX
  8
0
 10
4.96588
 20
0.226887
 30
0.0
 40
0.0104167
 41
0.0104167
  0
VERTEX
  8
0
 10
6.22547
 20
0.227431
 30
0.0
 40
0.0104167
 41
0.0104167
  0
SEQEND
 8
0
  0
POLYLINE
  8
0
 62
     7
 66
     1
 10
0
 20
0
 30
0.0
 70
     1
 40
0
 41
0
  0
VERTEX
  8
0
 10
4.96619
 20
3.5274
 30
0.0
 40
0
 41
0
  0
VERTEX
  8
0
 10
5.59119
 20
3.5274
 30
0.0
 40
0
 41
0
  0
VERTEX
  8
0
 10
5.59119
 20
2.92974
 30
0.0
 40
0
 41
0
  0
VERTEX
  8
0
 10
4.96619
 20
2.92974
 30
0.0
 40
0
 41
0
  0
VERTEX
  8
0
 10
4.96619
 20
3.5274
 30
0.0
 40
0
 41
0
  0
SEQEND
 8
0
  0
POLYLINE
  8
0
 62
     0
 66
     1
 10
0
 20
0
 30
0.0
 70
     1
 40
0.717225
 41
0.717225
  0
VERTEX
  8
0
 10
4.96619
 20
3.5274
 30
0.0
 40
0.00996146
 41
0.00996146
  0
VERTEX
  8
0
 10
4.96619
 20
2.92974
 30
0.0
 40
0.00996146
 41
0.00996146
  0
VERTEX
  8
0
 10
5.59119
 20
2.92974
 30
0.0
 40
0.00996146
 41
0.00996146
  0
VERTEX
  8
0
 10
5.59119
 20
3.5274
 30
0.0
 40
0.00996146
 41
0.00996146
  0
VERTEX
  8
0
 10
4.96619
 20
3.5274
 30
0.0
 40
0.00996146
 41
0.00996146
  0
SEQEND
 8
0
  0
POLYLINE
  8
0
 62
     0
 66
     1
 10
0
 20
0
 30
0.0
 40
0.717225
 41
0.717225
  0
VERTEX
  8
0
 10
4.96619
 20
2.92974
 30
0.0
 40
0.00996146
 41
0.00996146
  0
VERTEX
  8
0
 10
5.37142
 20
3.22857
 30
0.0
 40
0.00996146
 41
0.00996146
  0
VERTEX
  8
0
 10
5.16308
 20
3.22857
 30
0.0
 40
0.00996146
 41
0.00996146
  0
VERTEX
  8
0
 10
5.59119
 20
3.5274
 30
0.0
 40
0.00996146
 41
0.00996146
  0
SEQEND
 8
0
  0
POLYLINE
  8
0
 62
     0
 66
     1
 10
0
 20
0
 30
0.0
 40
0.717225
 41
0.717225
  0
VERTEX
  8
0
 10
5.58703
 20
3.02935
 30
0.0
 40
0.00996146
 41
0.00996146
  0
VERTEX
  8
0
 10
5.58703
 20
3.42578
 30
0.0
 40
0.00996146
 41
0.00996146
  0
SEQEND
 8
0
  0
POLYLINE
  8
0
 62
     7
 66
     1
 10
0
 20
0
 30
0.0
 70
     1
 40
0
 41
0
  0
VERTEX
  8
0
 10
5.10644
 20
2.51432
 30
0.0
 40
0
 41
0
  0
VERTEX
  8
0
 10
5.52696
 20
2.51432
 30
0.0
 40
0
 41
0
  0
VERTEX
  8
0
 10
5.52696
 20
2.32476
 30
0.0
 40
0
 41
0
  0
VERTEX
  8
0
 10
5.10644
 20
2.32476
 30
0.0
 40
0
 41
0
  0
VERTEX
  8
0
 10
5.10644
 20
2.51432
 30
0.0
 40
0
 41
0
  0
SEQEND
 8
0
  0
POLYLINE
  8
0
 62
     0
 66
     1
 10
0
 20
0
 30
0.0
 70
     1
 40
0.75
 41
0.75
  0
VERTEX
  8
0
 10
5.10644
 20
2.51432
 30
0.0
 40
0.0104167
 41
0.0104167
  0
VERTEX
  8
0
 10
5.10644
 20
2.32476
 30
0.0
 40
0.0104167
 41
0.0104167
  0
VERTEX
  8
0
 10
5.52696
 20
2.32476
 30
0.0
 40
0.0104167
 41
0.0104167
  0
VERTEX
  8
0
 10
5.52696
 20
2.51432
 30
0.0
 40
0.0104167
 41
0.0104167
  0
VERTEX
  8
0
 10
5.10644
 20
2.51432
 30
0.0
 40
0.0104167
 41
0.0104167
  0
SEQEND
 8
0
  0
POLYLINE
  8
0
 62
     7
 66
     1
 10
0
 20
0
 30
0.0
 70
     1
 40
0
 41
0
  0
VERTEX
  8
0
 10
5.10747
 20
2.89361
 30
0.0
 40
0
 41
0
  0
VERTEX
  8
0
 10
5.52789
 20
2.89361
 30
0.0
 40
0
 41
0
  0
VERTEX
  8
0
 10
5.52789
 20
2.54275
 30
0.0
 40
0
 41
0
  0
VERTEX
  8
0
 10
5.10747
 20
2.54275
 30
0.0
 40
0
 41
0
  0
VERTEX
  8
0
 10
5.10747
 20
2.89361
 30
0.0
 40
0
 41
0
  0
SEQEND
 8
0
  0
POLYLINE
  8
0
 62
     0
 66
     1
 10
0
 20
0
 30
0.0
 70
     1
 40
0.75
 41
0.75
  0
VERTEX
  8
0
 10
5.10747
 20
2.89361
 30
0.0
 40
0.0104167
 41
0.0104167
  0
VERTEX
  8
0
 10
5.10747
 20
2.54275
 30
0.0
 40
0.0104167
 41
0.0104167
  0
VERTEX
  8
0
 10
5.52789
 20
2.54275
 30
0.0
 40
0.0104167
 41
0.0104167
  0
VERTEX
  8
0
 10
5.52789
 20
2.89361
 30
0.0
 40
0.0104167
 41
0.0104167
  0
VERTEX
  8
0
 10
5.10747
 20
2.89361
 30
0.0
 40
0.0104167
 41
0.0104167
  0
SEQEND
 8
0
  0
POLYLINE
  8
0
 62
     7
 66
     1
 10
0
 20
0
 30
0.0
 70
     1
 40
0
 41
0
  0
VERTEX
  8
0
 10
5.31332
 20
2.456
 30
0.0
 40
0
 41
0
  0
VERTEX
  8
0
 10
5.31972
 20
2.456
 30
0.0
 40
0
 41
0
  0
VERTEX
  8
0
 10
5.33908
 20
2.44536
 30
0.0
 40
0
 41
0
  0
VERTEX
  8
0
 10
5.34978
 20
2.426
 30
0.0
 40
0
 41
0
  0
VERTEX
  8
0
 10
5.34978
 20
2.41954
 30
0.0
 40
0
 41
0
  0
VERTEX
  8
0
 10
5.34978
 20
2.41314
 30
0.0
 40
0
 41
0
  0
VERTEX
  8
0
 10
5.33908
 20
2.39378
 30
0.0
 40
0
 41
0
  0
VERTEX
  8
0
 10
5.31972
 20
2.38308
 30
0.0
 40
0
 41
0
  0
VERTEX
  8
0
 10
5.31332
 20
2.38308
 30
0.0
 40
0
 41
0
  0
VERTEX
  8
0
 10
5.30686
 20
2.38308
 30
0.0
 40
0
 41
0
  0
VERTEX
  8
0
 10
5.28749
 20
2.39378
 30
0.0
 40
0
 41
0
  0
VERTEX
  8
0
 10
5.27686
 20
2.41314
 30
0.0
 40
0
 41
0
  0
VERTEX
  8
0
 10
5.27686
 20
2.41954
 30
0.0
 40
0
 41
0
  0
VERTEX
  8
0
 10
5.27686
 20
2.426
 30
0.0
 40
0
 41
0
  0
VERTEX
  8
0
 10
5.28749
 20
2.44536
 30
0.0
 40
0
 41
0
  0
VERTEX
  8
0
 10
5.30686
 20
2.456
 30
0.0
 40
0
 41
0
  0
VERTEX
  8
0
 10
5.31332
 20
2.456
 30
0.0
 40
0
 41
0
  0
SEQEND
 8
0
  0
POLYLINE
  8
0
 62
     0
 66
     1
 10
0
 20
0
 30
0.0
 70
     1
 40
0.6
 41
0.6
  0
VERTEX
  8
0
 10
5.31332
 20
2.456
 30
0.0
 40
0.00833333
 41
0.00833333
  0
VERTEX
  8
0
 10
5.31972
 20
2.456
 30
0.0
 40
0.00833333
 41
0.00833333
  0
VERTEX
  8
0
 10
5.33908
 20
2.44536
 30
0.0
 40
0.00833333
 41
0.00833333
  0
VERTEX
  8
0
 10
5.34978
 20
2.426
 30
0.0
 40
0.00833333
 41
0.00833333
  0
VERTEX
  8
0
 10
5.34978
 20
2.41954
 30
0.0
 40
0.00833333
 41
0.00833333
  0
VERTEX
  8
0
 10
5.34978
 20
2.41314
 30
0.0
 40
0.00833333
 41
0.00833333
  0
VERTEX
  8
0
 10
5.33908
 20
2.39378
 30
0.0
 40
0.00833333
 41
0.00833333
  0
VERTEX
  8
0
 10
5.31972
 20
2.38308
 30
0.0
 40
0.00833333
 41
0.00833333
  0
VERTEX
  8
0
 10
5.31332
 20
2.38308
 30
0.0
 40
0.00833333
 41
0.00833333
  0
VERTEX
  8
0
 10
5.30686
 20
2.38308
 30
0.0
 40
0.00833333
 41
0.00833333
  0
VERTEX
  8
0
 10
5.28749
 20
2.39378
 30
0.0
 40
0.00833333
 41
0.00833333
  0
VERTEX
  8
0
 10
5.27686
 20
2.41314
 30
0.0
 40
0.00833333
 41
0.00833333
  0
VERTEX
  8
0
 10
5.27686
 20
2.41954
 30
0.0
 40
0.00833333
 41
0.00833333
  0
VERTEX
  8
0
 10
5.27686
 20
2.426
 30
0.0
 40
0.00833333
 41
0.00833333
  0
VERTEX
  8
0
 10
5.28749
 20
2.44536
 30
0.0
 40
0.00833333
 41
0.00833333
  0
VERTEX
  8
0
 10
5.30686
 20
2.456
 30
0.0
 40
0.00833333
 41
0.00833333
  0
VERTEX
  8
0
 10
5.31332
 20
2.456
 30
0.0
 40
0.00833333
 41
0.00833333
  0
SEQEND
 8
0
  0
POLYLINE
  8
0
 62
     7
 66
     1
 10
0
 20
0
 30
0.0
 70
     1
 40
0
 41
0
  0
VERTEX
  8
0
 10
5.31332
 20
2.74989
 30
0.0
 40
0
 41
0
  0
VERTEX
  8
0
 10
5.31972
 20
2.74989
 30
0.0
 40
0
 41
0
  0
VERTEX
  8
0
 10
5.33908
 20
2.73926
 30
0.0
 40
0
 41
0
  0
VERTEX
  8
0
 10
5.34978
 20
2.71989
 30
0.0
 40
0
 41
0
  0
VERTEX
  8
0
 10
5.34978
 20
2.71343
 30
0.0
 40
0
 41
0
  0
VERTEX
  8
0
 10
5.34978
 20
2.70703
 30
0.0
 40
0
 41
0
  0
VERTEX
  8
0
 10
5.33908
 20
2.68767
 30
0.0
 40
0
 41
0
  0
VERTEX
  8
0
 10
5.31972
 20
2.67697
 30
0.0
 40
0
 41
0
  0
VERTEX
  8
0
 10
5.31332
 20
2.67697
 30
0.0
 40
0
 41
0
  0
VERTEX
  8
0
 10
5.30686
 20
2.67697
 30
0.0
 40
0
 41
0
  0
VERTEX
  8
0
 10
5.28749
 20
2.68767
 30
0.0
 40
0
 41
0
  0
VERTEX
  8
0
 10
5.27686
 20
2.70703
 30
0.0
 40
0
 41
0
  0
VERTEX
  8
0
 10
5.27686
 20
2.71343
 30
0.0
 40
0
 41
0
  0
VERTEX
  8
0
 10
5.27686
 20
2.71989
 30
0.0
 40
0
 41
0
  0
VERTEX
  8
0
 10
5.28749
 20
2.73926
 30
0.0
 40
0
 41
0
  0
VERTEX
  8
0
 10
5.30686
 20
2.74989
 30
0.0
 40
0
 41
0
  0
VERTEX
  8
0
 10
5.31332
 20
2.74989
 30
0.0
 40
0
 41
0
  0
SEQEND
 8
0
  0
POLYLINE
  8
0
 62
     0
 66
     1
 10
0
 20
0
 30
0.0
 70
     1
 40
0.6
 41
0.6
  0
VERTEX
  8
0
 10
5.31332
 20
2.74989
 30
0.0
 40
0.00833333
 41
0.00833333
  0
VERTEX
  8
0
 10
5.31972
 20
2.74989
 30
0.0
 40
0.00833333
 41
0.00833333
  0
VERTEX
  8
0
 10
5.33908
 20
2.73926
 30
0.0
 40
0.00833333
 41
0.00833333
  0
VERTEX
  8
0
 10
5.34978
 20
2.71989
 30
0.0
 40
0.00833333
 41
0.00833333
  0
VERTEX
  8
0
 10
5.34978
 20
2.71343
 30
0.0
 40
0.00833333
 41
0.00833333
  0
VERTEX
  8
0
 10
5.34978
 20
2.70703
 30
0.0
 40
0.00833333
 41
0.00833333
  0
VERTEX
  8
0
 10
5.33908
 20
2.68767
 30
0.0
 40
0.00833333
 41
0.00833333
  0
VERTEX
  8
0
 10
5.31972
 20
2.67697
 30
0.0
 40
0.00833333
 41
0.00833333
  0
VERTEX
  8
0
 10
5.31332
 20
2.67697
 30
0.0
 40
0.00833333
 41
0.00833333
  0
VERTEX
  8
0
 10
5.30686
 20
2.67697
 30
0.0
 40
0.00833333
 41
0.00833333
  0
VERTEX
  8
0
 10
5.28749
 20
2.68767
 30
0.0
 40
0.00833333
 41
0.00833333
  0
VERTEX
  8
0
 10
5.27686
 20
2.70703
 30
0.0
 40
0.00833333
 41
0.00833333
  0
VERTEX
  8
0
 10
5.27686
 20
2.71343
 30
0.0
 40
0.00833333
 41
0.00833333
  0
VERTEX
  8
0
 10
5.27686
 20
2.71989
 30
0.0
 40
0.00833333
 41
0.00833333
  0
VERTEX
  8
0
 10
5.28749
 20
2.73926
 30
0.0
 40
0.00833333
 41
0.00833333
  0
VERTEX
  8
0
 10
5.30686
 20
2.74989
 30
0.0
 40
0.00833333
 41
0.00833333
  0
VERTEX
  8
0
 10
5.31332
 20
2.74989
 30
0.0
 40
0.00833333
 41
0.00833333
  0
SEQEND
 8
0
  0
POLYLINE
  8
0
 62
     7
 66
     1
 10
0
 20
0
 30
0.0
 70
     1
 40
0
 41
0
  0
VERTEX
  8
0
 10
5.31332
 20
2.44038
 30
0.0
 40
0
 41
0
  0
VERTEX
  8
0
 10
5.31694
 20
2.44038
 30
0.0
 40
0
 41
0
  0
VERTEX
  8
0
 10
5.32801
 20
2.43431
 30
0.0
 40
0
 41
0
  0
VERTEX
  8
0
 10
5.33415
 20
2.42324
 30
0.0
 40
0
 41
0
  0
VERTEX
  8
0
 10
5.33415
 20
2.41954
 30
0.0
 40
0
 41
0
  0
VERTEX
  8
0
 10
5.33415
 20
2.4159
 30
0.0
 40
0
 41
0
  0
VERTEX
  8
0
 10
5.32801
 20
2.40483
 30
0.0
 40
0
 41
0
  0
VERTEX
  8
0
 10
5.31694
 20
2.39871
 30
0.0
 40
0
 41
0
  0
VERTEX
  8
0
 10
5.31332
 20
2.39871
 30
0.0
 40
0
 41
0
  0
VERTEX
  8
0
 10
5.30963
 20
2.39871
 30
0.0
 40
0
 41
0
  0
VERTEX
  8
0
 10
5.29856
 20
2.40483
 30
0.0
 40
0
 41
0
  0
VERTEX
  8
0
 10
5.29249
 20
2.4159
 30
0.0
 40
0
 41
0
  0
VERTEX
  8
0
 10
5.29249
 20
2.41954
 30
0.0
 40
0
 41
0
  0
VERTEX
  8
0
 10
5.29249
 20
2.42324
 30
0.0
 40
0
 41
0
  0
VERTEX
  8
0
 10
5.29856
 20
2.43431
 30
0.0
 40
0
 41
0
  0
VERTEX
  8
0
 10
5.30963
 20
2.44038
 30
0.0
 40
0
 41
0
  0
VERTEX
  8
0
 10
5.31332
 20
2.44038
 30
0.0
 40
0
 41
0
  0
SEQEND
 8
0
  0
POLYLINE
  8
0
 62
     0
 66
     1
 10
0
 20
0
 30
0.0
 70
     1
 40
0.6
 41
0.6
  0
VERTEX
  8
0
 10
5.31332
 20
2.44038
 30
0.0
 40
0.00833333
 41
0.00833333
  0
VERTEX
  8
0
 10
5.31694
 20
2.44038
 30
0.0
 40
0.00833333
 41
0.00833333
  0
VERTEX
  8
0
 10
5.32801
 20
2.43431
 30
0.0
 40
0.00833333
 41
0.00833333
  0
VERTEX
  8
0
 10
5.33415
 20
2.42324
 30
0.0
 40
0.00833333
 41
0.00833333
  0
VERTEX
  8
0
 10
5.33415
 20
2.41954
 30
0.0
 40
0.00833333
 41
0.00833333
  0
VERTEX
  8
0
 10
5.33415
 20
2.4159
 30
0.0
 40
0.00833333
 41
0.00833333
  0
VERTEX
  8
0
 10
5.32801
 20
2.40483
 30
0.0
 40
0.00833333
 41
0.00833333
  0
VERTEX
  8
0
 10
5.31694
 20
2.39871
 30
0.0
 40
0.00833333
 41
0.00833333
  0
VERTEX
  8
0
 10
5.31332
 20
2.39871
 30
0.0
 40
0.00833333
 41
0.00833333
  0
VERTEX
  8
0
 10
5.30963
 20
2.39871
 30
0.0
 40
0.00833333
 41
0.00833333
  0
VERTEX
  8
0
 10
5.29856
 20
2.40483
 30
0.0
 40
0.00833333
 41
0.00833333
  0
VERTEX
  8
0
 10
5.29249
 20
2.4159
 30
0.0
 40
0.00833333
 41
0.00833333
  0
VERTEX
  8
0
 10
5.29249
 20
2.41954
 30
0.0
 40
0.00833333
 41
0.00833333
  0
VERTEX
  8
0
 10
5.29249
 20
2.42324
 30
0.0
 40
0.00833333
 41
0.00833333
  0
VERTEX
  8
0
 10
5.29856
 20
2.43431
 30
0.0
 40
0.00833333
 41
0.00833333
  0
VERTEX
  8
0
 10
5.30963
 20
2.44038
 30
0.0
 40
0.00833333
 41
0.00833333
  0
VERTEX
  8
0
 10
5.31332
 20
2.44038
 30
0.0
 40
0.00833333
 41
0.00833333
  0
SEQEND
 8
0
  0
POLYLINE
  8
0
 62
     7
 66
     1
 10
0
 20
0
 30
0.0
 70
     1
 40
0
 41
0
  0
VERTEX
  8
0
 10
5.31332
 20
2.73426
 30
0.0
 40
0
 41
0
  0
VERTEX
  8
0
 10
5.31694
 20
2.73426
 30
0.0
 40
0
 41
0
  0
VERTEX
  8
0
 10
5.32801
 20
2.72819
 30
0.0
 40
0
 41
0
  0
VERTEX
  8
0
 10
5.33415
 20
2.71712
 30
0.0
 40
0
 41
0
  0
VERTEX
  8
0
 10
5.33415
 20
2.71343
 30
0.0
 40
0
 41
0
  0
VERTEX
  8
0
 10
5.33415
 20
2.70979
 30
0.0
 40
0
 41
0
  0
VERTEX
  8
0
 10
5.32801
 20
2.69874
 30
0.0
 40
0
 41
0
  0
VERTEX
  8
0
 10
5.31694
 20
2.6926
 30
0.0
 40
0
 41
0
  0
VERTEX
  8
0
 10
5.31332
 20
2.6926
 30
0.0
 40
0
 41
0
  0
VERTEX
  8
0
 10
5.30963
 20
2.6926
 30
0.0
 40
0
 41
0
  0
VERTEX
  8
0
 10
5.29856
 20
2.69874
 30
0.0
 40
0
 41
0
  0
VERTEX
  8
0
 10
5.29249
 20
2.70979
 30
0.0
 40
0
 41
0
  0
VERTEX
  8
0
 10
5.29249
 20
2.71343
 30
0.0
 40
0
 41
0
  0
VERTEX
  8
0
 10
5.29249
 20
2.71712
 30
0.0
 40
0
 41
0
  0
VERTEX
  8
0
 10
5.29856
 20
2.72819
 30
0.0
 40
0
 41
0
  0
VERTEX
  8
0
 10
5.30963
 20
2.73426
 30
0.0
 40
0
 41
0
  0
VERTEX
  8
0
 10
5.31332
 20
2.73426
 30
0.0
 40
0
 41
0
  0
SEQEND
 8
0
  0
POLYLINE
  8
0
 62
     0
 66
     1
 10
0
 20
0
 30
0.0
 70
     1
 40
0.6
 41
0.6
  0
VERTEX
  8
0
 10
5.31332
 20
2.73426
 30
0.0
 40
0.00833333
 41
0.00833333
  0
VERTEX
  8
0
 10
5.31694
 20
2.73426
 30
0.0
 40
0.00833333
 41
0.00833333
  0
VERTEX
  8
0
 10
5.32801
 20
2.72819
 30
0.0
 40
0.00833333
 41
0.00833333
  0
VERTEX
  8
0
 10
5.33415
 20
2.71712
 30
0.0
 40
0.00833333
 41
0.00833333
  0
VERTEX
  8
0
 10
5.33415
 20
2.71343
 30
0.0
 40
0.00833333
 41
0.00833333
  0
VERTEX
  8
0
 10
5.33415
 20
2.70979
 30
0.0
 40
0.00833333
 41
0.00833333
  0
VERTEX
  8
0
 10
5.32801
 20
2.69874
 30
0.0
 40
0.00833333
 41
0.00833333
  0
VERTEX
  8
0
 10
5.31694
 20
2.6926
 30
0.0
 40
0.00833333
 41
0.00833333
  0
VERTEX
  8
0
 10
5.31332
 20
2.6926
 30
0.0
 40
0.00833333
 41
0.00833333
  0
VERTEX
  8
0
 10
5.30963
 20
2.6926
 30
0.0
 40
0.00833333
 41
0.00833333
  0
VERTEX
  8
0
 10
5.29856
 20
2.69874
 30
0.0
 40
0.00833333
 41
0.00833333
  0
VERTEX
  8
0
 10
5.29249
 20
2.70979
 30
0.0
 40
0.00833333
 41
0.00833333
  0
VERTEX
  8
0
 10
5.29249
 20
2.71343
 30
0.0
 40
0.00833333
 41
0.00833333
  0
VERTEX
  8
0
 10
5.29249
 20
2.71712
 30
0.0
 40
0.00833333
 41
0.00833333
  0
VERTEX
  8
0
 10
5.29856
 20
2.72819
 30
0.0
 40
0.00833333
 41
0.00833333
  0
VERTEX
  8
0
 10
5.30963
 20
2.73426
 30
0.0
 40
0.00833333
 41
0.00833333
  0
VERTEX
  8
0
 10
5.31332
 20
2.73426
 30
0.0
 40
0.00833333
 41
0.00833333
  0
SEQEND
 8
0
  0
POLYLINE
  8
0
 62
     7
 66
     1
 10
0
 20
0
 30
0.0
 70
     1
 40
0
 41
0
  0
VERTEX
  8
0
 10
5.05007
 20
2.64318
 30
0.0
 40
0
 41
0
  0
VERTEX
  8
0
 10
5.1959
 20
2.64318
 30
0.0
 40
0
 41
0
  0
VERTEX
  8
0
 10
5.1959
 20
2.58068
 30
0.0
 40
0
 41
0
  0
VERTEX
  8
0
 10
5.05007
 20
2.58068
 30
0.0
 40
0
 41
0
  0
VERTEX
  8
0
 10
5.05007
 20
2.64318
 30
0.0
 40
0
 41
0
  0
SEQEND
 8
0
  0
POLYLINE
  8
0
 62
     0
 66
     1
 10
0
 20
0
 30
0.0
 70
     1
 40
0.75
 41
0.75
  0
VERTEX
  8
0
 10
5.05007
 20
2.64318
 30
0.0
 40
0.0104167
 41
0.0104167
  0
VERTEX
  8
0
 10
5.05007
 20
2.58068
 30
0.0
 40
0.0104167
 41
0.0104167
  0
VERTEX
  8
0
 10
5.1959
 20
2.58068
 30
0.0
 40
0.0104167
 41
0.0104167
  0
VERTEX
  8
0
 10
5.1959
 20
2.64318
 30
0.0
 40
0.0104167
 41
0.0104167
  0
VERTEX
  8
0
 10
5.05007
 20
2.64318
 30
0.0
 40
0.0104167
 41
0.0104167
  0
SEQEND
 8
0
  0
POLYLINE
  8
0
 62
     7
 66
     1
 10
0
 20
0
 30
0.0
 70
     1
 40
0
 41
0
  0
VERTEX
  8
0
 10
4.96946
 20
1.75
 30
0.0
 40
0
 41
0
  0
VERTEX
  8
0
 10
5.588
 20
1.75
 30
0.0
 40
0
 41
0
  0
VERTEX
  8
0
 10
5.588
 20
1.23345
 30
0.0
 40
0
 41
0
  0
VERTEX
  8
0
 10
4.96946
 20
1.23345
 30
0.0
 40
0
 41
0
  0
VERTEX
  8
0
 10
4.96946
 20
1.75
 30
0.0
 40
0
 41
0
  0
SEQEND
 8
0
  0
POLYLINE
  8
0
 62
     0
 66
     1
 10
0
 20
0
 30
0.0
 70
     1
 40
0.75
 41
0.75
  0
VERTEX
  8
0
 10
4.96946
 20
1.75
 30
0.0
 40
0.0104167
 41
0.0104167
  0
VERTEX
  8
0
 10
4.96946
 20
1.23345
 30
0.0
 40
0.0104167
 41
0.0104167
  0
VERTEX
  8
0
 10
5.588
 20
1.23345
 30
0.0
 40
0.0104167
 41
0.0104167
  0
VERTEX
  8
0
 10
5.588
 20
1.75
 30
0.0
 40
0.0104167
 41
0.0104167
  0
VERTEX
  8
0
 10
4.96946
 20
1.75
 30
0.0
 40
0.0104167
 41
0.0104167
  0
SEQEND
 8
0
  0
POLYLINE
  8
0
 62
     7
 66
     1
 10
0
 20
0
 30
0.0
 70
     1
 40
0
 41
0
  0
VERTEX
  8
0
 10
5.125
 20
1.44422
 30
0.0
 40
0
 41
0
  0
VERTEX
  8
0
 10
5.13308
 20
1.44422
 30
0.0
 40
0
 41
0
  0
VERTEX
  8
0
 10
5.15739
 20
1.43772
 30
0.0
 40
0
 41
0
  0
VERTEX
  8
0
 10
5.18392
 20
1.41982
 30
0.0
 40
0
 41
0
  0
VERTEX
  8
0
 10
5.20176
 20
1.39333
 30
0.0
 40
0
 41
0
  0
VERTEX
  8
0
 10
5.20833
 20
1.36903
 30
0.0
 40
0
 41
0
  0
VERTEX
  8
0
 10
5.20833
 20
1.36089
 30
0.0
 40
0
 41
0
  0
VERTEX
  8
0
 10
5.20833
 20
1.35281
 30
0.0
 40
0
 41
0
  0
VERTEX
  8
0
 10
5.20176
 20
1.32845
 30
0.0
 40
0
 41
0
  0
VERTEX
  8
0
 10
5.18392
 20
1.30198
 30
0.0
 40
0
 41
0
  0
VERTEX
  8
0
 10
5.15739
 20
1.28413
 30
0.0
 40
0
 41
0
  0
VERTEX
  8
0
 10
5.13308
 20
1.27756
 30
0.0
 40
0
 41
0
  0
VERTEX
  8
0
 10
5.125
 20
1.27756
 30
0.0
 40
0
 41
0
  0
VERTEX
  8
0
 10
5.11686
 20
1.27756
 30
0.0
 40
0
 41
0
  0
VERTEX
  8
0
 10
5.0925
 20
1.28413
 30
0.0
 40
0
 41
0
  0
VERTEX
  8
0
 10
5.06603
 20
1.30198
 30
0.0
 40
0
 41
0
  0
VERTEX
  8
0
 10
5.04818
 20
1.32845
 30
0.0
 40
0
 41
0
  0
VERTEX
  8
0
 10
5.04167
 20
1.35281
 30
0.0
 40
0
 41
0
  0
VERTEX
  8
0
 10
5.04167
 20
1.36089
 30
0.0
 40
0
 41
0
  0
VERTEX
  8
0
 10
5.04167
 20
1.36903
 30
0.0
 40
0
 41
0
  0
VERTEX
  8
0
 10
5.04818
 20
1.39333
 30
0.0
 40
0
 41
0
  0
VERTEX
  8
0
 10
5.06603
 20
1.41982
 30
0.0
 40
0
 41
0
  0
VERTEX
  8
0
 10
5.0925
 20
1.43772
 30
0.0
 40
0
 41
0
  0
VERTEX
  8
0
 10
5.11686
 20
1.44422
 30
0.0
 40
0
 41
0
  0
VERTEX
  8
0
 10
5.125
 20
1.44422
 30
0.0
 40
0
 41
0
  0
SEQEND
 8
0
  0
POLYLINE
  8
0
 62
     0
 66
     1
 10
0
 20
0
 30
0.0
 70
     1
 40
0.75
 41
0.75
  0
VERTEX
  8
0
 10
5.125
 20
1.44422
 30
0.0
 40
0.0104167
 41
0.0104167
  0
VERTEX
  8
0
 10
5.13308
 20
1.44422
 30
0.0
 40
0.0104167
 41
0.0104167
  0
VERTEX
  8
0
 10
5.15739
 20
1.43772
 30
0.0
 40
0.0104167
 41
0.0104167
  0
VERTEX
  8
0
 10
5.18392
 20
1.41982
 30
0.0
 40
0.0104167
 41
0.0104167
  0
VERTEX
  8
0
 10
5.20176
 20
1.39333
 30
0.0
 40
0.0104167
 41
0.0104167
  0
VERTEX
  8
0
 10
5.20833
 20
1.36903
 30
0.0
 40
0.0104167
 41
0.0104167
  0
VERTEX
  8
0
 10
5.20833
 20
1.36089
 30
0.0
 40
0.0104167
 41
0.0104167
  0
VERTEX
  8
0
 10
5.20833
 20
1.35281
 30
0.0
 40
0.0104167
 41
0.0104167
  0
VERTEX
  8
0
 10
5.20176
 20
1.32845
 30
0.0
 40
0.0104167
 41
0.0104167
  0
VERTEX
  8
0
 10
5.18392
 20
1.30198
 30
0.0
 40
0.0104167
 41
0.0104167
  0
VERTEX
  8
0
 10
5.15739
 20
1.28413
 30
0.0
 40
0.0104167
 41
0.0104167
  0
VERTEX
  8
0
 10
5.13308
 20
1.27756
 30
0.0
 40
0.0104167
 41
0.0104167
  0
VERTEX
  8
0
 10
5.125
 20
1.27756
 30
0.0
 40
0.0104167
 41
0.0104167
  0
VERTEX
  8
0
 10
5.11686
 20
1.27756
 30
0.0
 40
0.0104167
 41
0.0104167
  0
VERTEX
  8
0
 10
5.0925
 20
1.28413
 30
0.0
 40
0.0104167
 41
0.0104167
  0
VERTEX
  8
0
 10
5.06603
 20
1.30198
 30
0.0
 40
0.0104167
 41
0.0104167
  0
VERTEX
  8
0
 10
5.04818
 20
1.32845
 30
0.0
 40
0.0104167
 41
0.0104167
  0
VERTEX
  8
0
 10
5.04167
 20
1.35281
 30
0.0
 40
0.0104167
 41
0.0104167
  0
VERTEX
  8
0
 10
5.04167
 20
1.36089
 30
0.0
 40
0.0104167
 41
0.0104167
  0
VERTEX
  8
0
 10
5.04167
 20
1.36903
 30
0.0
 40
0.0104167
 41
0.0104167
  0
VERTEX
  8
0
 10
5.04818
 20
1.39333
 30
0.0
 40
0.0104167
 41
0.0104167
  0
VERTEX
  8
0
 10
5.06603
 20
1.41982
 30
0.0
 40
0.0104167
 41
0.0104167
  0
VERTEX
  8
0
 10
5.0925
 20
1.43772
 30
0.0
 40
0.0104167
 41
0.0104167
  0
VERTEX
  8
0
 10
5.11686
 20
1.44422
 30
0.0
 40
0.0104167
 41
0.0104167
  0
VERTEX
  8
0
 10
5.125
 20
1.44422
 30
0.0
 40
0.0104167
 41
0.0104167
  0
SEQEND
 8
0
  0
POLYLINE
  8
0
 62
     7
 66
     1
 10
0
 20
0
 30
0.0
 70
     1
 40
0
 41
0
  0
VERTEX
  8
0
 10
5.125
 20
1.70367
 30
0.0
 40
0
 41
0
  0
VERTEX
  8
0
 10
5.13308
 20
1.70367
 30
0.0
 40
0
 41
0
  0
VERTEX
  8
0
 10
5.15739
 20
1.69715
 30
0.0
 40
0
 41
0
  0
VERTEX
  8
0
 10
5.18392
 20
1.67925
 30
0.0
 40
0
 41
0
  0
VERTEX
  8
0
 10
5.20176
 20
1.65278
 30
0.0
 40
0
 41
0
  0
VERTEX
  8
0
 10
5.20833
 20
1.62847
 30
0.0
 40
0
 41
0
  0
VERTEX
  8
0
 10
5.20833
 20
1.62033
 30
0.0
 40
0
 41
0
  0
VERTEX
  8
0
 10
5.20833
 20
1.61225
 30
0.0
 40
0
 41
0
  0
VERTEX
  8
0
 10
5.20176
 20
1.58789
 30
0.0
 40
0
 41
0
  0
VERTEX
  8
0
 10
5.18392
 20
1.56142
 30
0.0
 40
0
 41
0
  0
VERTEX
  8
0
 10
5.15739
 20
1.54357
 30
0.0
 40
0
 41
0
  0
VERTEX
  8
0
 10
5.13308
 20
1.537
 30
0.0
 40
0
 41
0
  0
VERTEX
  8
0
 10
5.125
 20
1.537
 30
0.0
 40
0
 41
0
  0
VERTEX
  8
0
 10
5.11686
 20
1.537
 30
0.0
 40
0
 41
0
  0
VERTEX
  8
0
 10
5.0925
 20
1.54357
 30
0.0
 40
0
 41
0
  0
VERTEX
  8
0
 10
5.06603
 20
1.56142
 30
0.0
 40
0
 41
0
  0
VERTEX
  8
0
 10
5.04818
 20
1.58789
 30
0.0
 40
0
 41
0
  0
VERTEX
  8
0
 10
5.04167
 20
1.61225
 30
0.0
 40
0
 41
0
  0
VERTEX
  8
0
 10
5.04167
 20
1.62033
 30
0.0
 40
0
 41
0
  0
VERTEX
  8
0
 10
5.04167
 20
1.62847
 30
0.0
 40
0
 41
0
  0
VERTEX
  8
0
 10
5.04818
 20
1.65278
 30
0.0
 40
0
 41
0
  0
VERTEX
  8
0
 10
5.06603
 20
1.67925
 30
0.0
 40
0
 41
0
  0
VERTEX
  8
0
 10
5.0925
 20
1.69715
 30
0.0
 40
0
 41
0
  0
VERTEX
  8
0
 10
5.11686
 20
1.70367
 30
0.0
 40
0
 41
0
  0
VERTEX
  8
0
 10
5.125
 20
1.70367
 30
0.0
 40
0
 41
0
  0
SEQEND
 8
0
  0
POLYLINE
  8
0
 62
     0
 66
     1
 10
0
 20
0
 30
0.0
 70
     1
 40
0.75
 41
0.75
  0
VERTEX
  8
0
 10
5.125
 20
1.70367
 30
0.0
 40
0.0104167
 41
0.0104167
  0
VERTEX
  8
0
 10
5.13308
 20
1.70367
 30
0.0
 40
0.0104167
 41
0.0104167
  0
VERTEX
  8
0
 10
5.15739
 20
1.69715
 30
0.0
 40
0.0104167
 41
0.0104167
  0
VERTEX
  8
0
 10
5.18392
 20
1.67925
 30
0.0
 40
0.0104167
 41
0.0104167
  0
VERTEX
  8
0
 10
5.20176
 20
1.65278
 30
0.0
 40
0.0104167
 41
0.0104167
  0
VERTEX
  8
0
 10
5.20833
 20
1.62847
 30
0.0
 40
0.0104167
 41
0.0104167
  0
VERTEX
  8
0
 10
5.20833
 20
1.62033
 30
0.0
 40
0.0104167
 41
0.0104167
  0
VERTEX
  8
0
 10
5.20833
 20
1.61225
 30
0.0
 40
0.0104167
 41
0.0104167
  0
VERTEX
  8
0
 10
5.20176
 20
1.58789
 30
0.0
 40
0.0104167
 41
0.0104167
  0
VERTEX
  8
0
 10
5.18392
 20
1.56142
 30
0.0
 40
0.0104167
 41
0.0104167
  0
VERTEX
  8
0
 10
5.15739
 20
1.54357
 30
0.0
 40
0.0104167
 41
0.0104167
  0
VERTEX
  8
0
 10
5.13308
 20
1.537
 30
0.0
 40
0.0104167
 41
0.0104167
  0
VERTEX
  8
0
 10
5.125
 20
1.537
 30
0.0
 40
0.0104167
 41
0.0104167
  0
VERTEX
  8
0
 10
5.11686
 20
1.537
 30
0.0
 40
0.0104167
 41
0.0104167
  0
VERTEX
  8
0
 10
5.0925
 20
1.54357
 30
0.0
 40
0.0104167
 41
0.0104167
  0
VERTEX
  8
0
 10
5.06603
 20
1.56142
 30
0.0
 40
0.0104167
 41
0.0104167
  0
VERTEX
  8
0
 10
5.04818
 20
1.58789
 30
0.0
 40
0.0104167
 41
0.0104167
  0
VERTEX
  8
0
 10
5.04167
 20
1.61225
 30
0.0
 40
0.0104167
 41
0.0104167
  0
VERTEX
  8
0
 10
5.04167
 20
1.62033
 30
0.0
 40
0.0104167
 41
0.0104167
  0
VERTEX
  8
0
 10
5.04167
 20
1.62847
 30
0.0
 40
0.0104167
 41
0.0104167
  0
VERTEX
  8
0
 10
5.04818
 20
1.65278
 30
0.0
 40
0.0104167
 41
0.0104167
  0
VERTEX
  8
0
 10
5.06603
 20
1.67925
 30
0.0
 40
0.0104167
 41
0.0104167
  0
VERTEX
  8
0
 10
5.0925
 20
1.69715
 30
0.0
 40
0.0104167
 41
0.0104167
  0
VERTEX
  8
0
 10
5.11686
 20
1.70367
 30
0.0
 40
0.0104167
 41
0.0104167
  0
VERTEX
  8
0
 10
5.125
 20
1.70367
 30
0.0
 40
0.0104167
 41
0.0104167
  0
SEQEND
 8
0
  0
POLYLINE
  8
0
 62
     7
 66
     1
 10
0
 20
0
 30
0.0
 70
     1
 40
0
 41
0
  0
VERTEX
  8
0
 10
5.43365
 20
1.44422
 30
0.0
 40
0
 41
0
  0
VERTEX
  8
0
 10
5.44174
 20
1.44422
 30
0.0
 40
0
 41
0
  0
VERTEX
  8
0
 10
5.46604
 20
1.43772
 30
0.0
 40
0
 41
0
  0
VERTEX
  8
0
 10
5.49257
 20
1.41982
 30
0.0
 40
0
 41
0
  0
VERTEX
  8
0
 10
5.51042
 20
1.39333
 30
0.0
 40
0
 41
0
  0
VERTEX
  8
0
 10
5.51699
 20
1.36903
 30
0.0
 40
0
 41
0
  0
VERTEX
  8
0
 10
5.51699
 20
1.36089
 30
0.0
 40
0
 41
0
  0
VERTEX
  8
0
 10
5.51699
 20
1.35281
 30
0.0
 40
0
 41
0
  0
VERTEX
  8
0
 10
5.51042
 20
1.32845
 30
0.0
 40
0
 41
0
  0
VERTEX
  8
0
 10
5.49257
 20
1.30198
 30
0.0
 40
0
 41
0
  0
VERTEX
  8
0
 10
5.46604
 20
1.28413
 30
0.0
 40
0
 41
0
  0
VERTEX
  8
0
 10
5.44174
 20
1.27756
 30
0.0
 40
0
 41
0
  0
VERTEX
  8
0
 10
5.43365
 20
1.27756
 30
0.0
 40
0
 41
0
  0
VERTEX
  8
0
 10
5.42551
 20
1.27756
 30
0.0
 40
0
 41
0
  0
VERTEX
  8
0
 10
5.40115
 20
1.28413
 30
0.0
 40
0
 41
0
  0
VERTEX
  8
0
 10
5.37468
 20
1.30198
 30
0.0
 40
0
 41
0
  0
VERTEX
  8
0
 10
5.35682
 20
1.32845
 30
0.0
 40
0
 41
0
  0
VERTEX
  8
0
 10
5.35032
 20
1.35281
 30
0.0
 40
0
 41
0
  0
VERTEX
  8
0
 10
5.35032
 20
1.36089
 30
0.0
 40
0
 41
0
  0
VERTEX
  8
0
 10
5.35032
 20
1.36903
 30
0.0
 40
0
 41
0
  0
VERTEX
  8
0
 10
5.35682
 20
1.39333
 30
0.0
 40
0
 41
0
  0
VERTEX
  8
0
 10
5.37468
 20
1.41982
 30
0.0
 40
0
 41
0
  0
VERTEX
  8
0
 10
5.40115
 20
1.43772
 30
0.0
 40
0
 41
0
  0
VERTEX
  8
0
 10
5.42551
 20
1.44422
 30
0.0
 40
0
 41
0
  0
VERTEX
  8
0
 10
5.43365
 20
1.44422
 30
0.0
 40
0
 41
0
  0
SEQEND
 8
0
  0
POLYLINE
  8
0
 62
     0
 66
     1
 10
0
 20
0
 30
0.0
 70
     1
 40
0.75
 41
0.75
  0
VERTEX
  8
0
 10
5.43365
 20
1.44422
 30
0.0
 40
0.0104167
 41
0.0104167
  0
VERTEX
  8
0
 10
5.44174
 20
1.44422
 30
0.0
 40
0.0104167
 41
0.0104167
  0
VERTEX
  8
0
 10
5.46604
 20
1.43772
 30
0.0
 40
0.0104167
 41
0.0104167
  0
VERTEX
  8
0
 10
5.49257
 20
1.41982
 30
0.0
 40
0.0104167
 41
0.0104167
  0
VERTEX
  8
0
 10
5.51042
 20
1.39333
 30
0.0
 40
0.0104167
 41
0.0104167
  0
VERTEX
  8
0
 10
5.51699
 20
1.36903
 30
0.0
 40
0.0104167
 41
0.0104167
  0
VERTEX
  8
0
 10
5.51699
 20
1.36089
 30
0.0
 40
0.0104167
 41
0.0104167
  0
VERTEX
  8
0
 10
5.51699
 20
1.35281
 30
0.0
 40
0.0104167
 41
0.0104167
  0
VERTEX
  8
0
 10
5.51042
 20
1.32845
 30
0.0
 40
0.0104167
 41
0.0104167
  0
VERTEX
  8
0
 10
5.49257
 20
1.30198
 30
0.0
 40
0.0104167
 41
0.0104167
  0
VERTEX
  8
0
 10
5.46604
 20
1.28413
 30
0.0
 40
0.0104167
 41
0.0104167
  0
VERTEX
  8
0
 10
5.44174
 20
1.27756
 30
0.0
 40
0.0104167
 41
0.0104167
  0
VERTEX
  8
0
 10
5.43365
 20
1.27756
 30
0.0
 40
0.0104167
 41
0.0104167
  0
VERTEX
  8
0
 10
5.42551
 20
1.27756
 30
0.0
 40
0.0104167
 41
0.0104167
  0
VERTEX
  8
0
 10
5.40115
 20
1.28413
 30
0.0
 40
0.0104167
 41
0.0104167
  0
VERTEX
  8
0
 10
5.37468
 20
1.30198
 30
0.0
 40
0.0104167
 41
0.0104167
  0
VERTEX
  8
0
 10
5.35682
 20
1.32845
 30
0.0
 40
0.0104167
 41
0.0104167
  0
VERTEX
  8
0
 10
5.35032
 20
1.35281
 30
0.0
 40
0.0104167
 41
0.0104167
  0
VERTEX
  8
0
 10
5.35032
 20
1.36089
 30
0.0
 40
0.0104167
 41
0.0104167
  0
VERTEX
  8
0
 10
5.35032
 20
1.36903
 30
0.0
 40
0.0104167
 41
0.0104167
  0
VERTEX
  8
0
 10
5.35682
 20
1.39333
 30
0.0
 40
0.0104167
 41
0.0104167
  0
VERTEX
  8
0
 10
5.37468
 20
1.41982
 30
0.0
 40
0.0104167
 41
0.0104167
  0
VERTEX
  8
0
 10
5.40115
 20
1.43772
 30
0.0
 40
0.0104167
 41
0.0104167
  0
VERTEX
  8
0
 10
5.42551
 20
1.44422
 30
0.0
 40
0.0104167
 41
0.0104167
  0
VERTEX
  8
0
 10
5.43365
 20
1.44422
 30
0.0
 40
0.0104167
 41
0.0104167
  0
SEQEND
 8
0
  0
POLYLINE
  8
0
 62
     7
 66
     1
 10
0
 20
0
 30
0.0
 70
     1
 40
0
 41
0
  0
VERTEX
  8
0
 10
5.43365
 20
1.70367
 30
0.0
 40
0
 41
0
  0
VERTEX
  8
0
 10
5.44174
 20
1.70367
 30
0.0
 40
0
 41
0
  0
VERTEX
  8
0
 10
5.46604
 20
1.69715
 30
0.0
 40
0
 41
0
  0
VERTEX
  8
0
 10
5.49257
 20
1.67925
 30
0.0
 40
0
 41
0
  0
VERTEX
  8
0
 10
5.51042
 20
1.65278
 30
0.0
 40
0
 41
0
  0
VERTEX
  8
0
 10
5.51699
 20
1.62847
 30
0.0
 40
0
 41
0
  0
VERTEX
  8
0
 10
5.51699
 20
1.62033
 30
0.0
 40
0
 41
0
  0
VERTEX
  8
0
 10
5.51699
 20
1.61225
 30
0.0
 40
0
 41
0
  0
VERTEX
  8
0
 10
5.51042
 20
1.58789
 30
0.0
 40
0
 41
0
  0
VERTEX
  8
0
 10
5.49257
 20
1.56142
 30
0.0
 40
0
 41
0
  0
VERTEX
  8
0
 10
5.46604
 20
1.54357
 30
0.0
 40
0
 41
0
  0
VERTEX
  8
0
 10
5.44174
 20
1.537
 30
0.0
 40
0
 41
0
  0
VERTEX
  8
0
 10
5.43365
 20
1.537
 30
0.0
 40
0
 41
0
  0
VERTEX
  8
0
 10
5.42551
 20
1.537
 30
0.0
 40
0
 41
0
  0
VERTEX
  8
0
 10
5.40115
 20
1.54357
 30
0.0
 40
0
 41
0
  0
VERTEX
  8
0
 10
5.37468
 20
1.56142
 30
0.0
 40
0
 41
0
  0
VERTEX
  8
0
 10
5.35682
 20
1.58789
 30
0.0
 40
0
 41
0
  0
VERTEX
  8
0
 10
5.35032
 20
1.61225
 30
0.0
 40
0
 41
0
  0
VERTEX
  8
0
 10
5.35032
 20
1.62033
 30
0.0
 40
0
 41
0
  0
VERTEX
  8
0
 10
5.35032
 20
1.62847
 30
0.0
 40
0
 41
0
  0
VERTEX
  8
0
 10
5.35682
 20
1.65278
 30
0.0
 40
0
 41
0
  0
VERTEX
  8
0
 10
5.37468
 20
1.67925
 30
0.0
 40
0
 41
0
  0
VERTEX
  8
0
 10
5.40115
 20
1.69715
 30
0.0
 40
0
 41
0
  0
VERTEX
  8
0
 10
5.42551
 20
1.70367
 30
0.0
 40
0
 41
0
  0
VERTEX
  8
0
 10
5.43365
 20
1.70367
 30
0.0
 40
0
 41
0
  0
SEQEND
 8
0
  0
POLYLINE
  8
0
 62
     0
 66
     1
 10
0
 20
0
 30
0.0
 70
     1
 40
0.75
 41
0.75
  0
VERTEX
  8
0
 10
5.43365
 20
1.70367
 30
0.0
 40
0.0104167
 41
0.0104167
  0
VERTEX
  8
0
 10
5.44174
 20
1.70367
 30
0.0
 40
0.0104167
 41
0.0104167
  0
VERTEX
  8
0
 10
5.46604
 20
1.69715
 30
0.0
 40
0.0104167
 41
0.0104167
  0
VERTEX
  8
0
 10
5.49257
 20
1.67925
 30
0.0
 40
0.0104167
 41
0.0104167
  0
VERTEX
  8
0
 10
5.51042
 20
1.65278
 30
0.0
 40
0.0104167
 41
0.0104167
  0
VERTEX
  8
0
 10
5.51699
 20
1.62847
 30
0.0
 40
0.0104167
 41
0.0104167
  0
VERTEX
  8
0
 10
5.51699
 20
1.62033
 30
0.0
 40
0.0104167
 41
0.0104167
  0
VERTEX
  8
0
 10
5.51699
 20
1.61225
 30
0.0
 40
0.0104167
 41
0.0104167
  0
VERTEX
  8
0
 10
5.51042
 20
1.58789
 30
0.0
 40
0.0104167
 41
0.0104167
  0
VERTEX
  8
0
 10
5.49257
 20
1.56142
 30
0.0
 40
0.0104167
 41
0.0104167
  0
VERTEX
  8
0
 10
5.46604
 20
1.54357
 30
0.0
 40
0.0104167
 41
0.0104167
  0
VERTEX
  8
0
 10
5.44174
 20
1.537
 30
0.0
 40
0.0104167
 41
0.0104167
  0
VERTEX
  8
0
 10
5.43365
 20
1.537
 30
0.0
 40
0.0104167
 41
0.0104167
  0
VERTEX
  8
0
 10
5.42551
 20
1.537
 30
0.0
 40
0.0104167
 41
0.0104167
  0
VERTEX
  8
0
 10
5.40115
 20
1.54357
 30
0.0
 40
0.0104167
 41
0.0104167
  0
VERTEX
  8
0
 10
5.37468
 20
1.56142
 30
0.0
 40
0.0104167
 41
0.0104167
  0
VERTEX
  8
0
 10
5.35682
 20
1.58789
 30
0.0
 40
0.0104167
 41
0.0104167
  0
VERTEX
  8
0
 10
5.35032
 20
1.61225
 30
0.0
 40
0.0104167
 41
0.0104167
  0
VERTEX
  8
0
 10
5.35032
 20
1.62033
 30
0.0
 40
0.0104167
 41
0.0104167
  0
VERTEX
  8
0
 10
5.35032
 20
1.62847
 30
0.0
 40
0.0104167
 41
0.0104167
  0
VERTEX
  8
0
 10
5.35682
 20
1.65278
 30
0.0
 40
0.0104167
 41
0.0104167
  0
VERTEX
  8
0
 10
5.37468
 20
1.67925
 30
0.0
 40
0.0104167
 41
0.0104167
  0
VERTEX
  8
0
 10
5.40115
 20
1.69715
 30
0.0
 40
0.0104167
 41
0.0104167
  0
VERTEX
  8
0
 10
5.42551
 20
1.70367
 30
0.0
 40
0.0104167
 41
0.0104167
  0
VERTEX
  8
0
 10
5.43365
 20
1.70367
 30
0.0
 40
0.0104167
 41
0.0104167
  0
SEQEND
 8
0
  0
POLYLINE
  8
0
 62
     0
 66
     1
 10
0
 20
0
 30
0.0
 70
     1
 40
0.75
 41
0.75
  0
VERTEX
  8
0
 10
4.96371
 20
1.75157
 30
0.0
 40
0.0104167
 41
0.0104167
  0
VERTEX
  8
0
 10
5.27642
 20
1.75142
 30
0.0
 40
0.0104167
 41
0.0104167
  0
VERTEX
  8
0
 10
5.27642
 20
0.509494
 30
0.0
 40
0.0104167
 41
0.0104167
  0
VERTEX
  8
0
 10
6.22537
 20
0.509494
 30
0.0
 40
0.0104167
 41
0.0104167
  0
VERTEX
  8
0
 10
6.22547
 20
0.227431
 30
0.0
 40
0.0104167
 41
0.0104167
  0
VERTEX
  8
0
 10
4.96593
 20
0.226887
 30
0.0
 40
0.0104167
 41
0.0104167
  0
VERTEX
  8
0
 10
4.96371
 20
1.75157
 30
0.0
 40
0.0104167
 41
0.0104167
  0
SEQEND
 8
0
  0
POLYLINE
  8
0
 62
     0
 66
     1
 10
0
 20
0
 30
0.0
 70
     1
 40
0.75
 41
0.75
  0
VERTEX
  8
0
 10
4.96436
 20
3.52865
 30
0.0
 40
0.0104167
 41
0.0104167
  0
VERTEX
  8
0
 10
4.96436
 20
2.18604
 30
0.0
 40
0.0104167
 41
0.0104167
  0
VERTEX
  8
0
 10
5.27686
 20
2.18604
 30
0.0
 40
0.0104167
 41
0.0104167
  0
VERTEX
  8
0
 10
5.27686
 20
3.52865
 30
0.0
 40
0.0104167
 41
0.0104167
  0
VERTEX
  8
0
 10
4.96436
 20
3.52865
 30
0.0
 40
0.0104167
 41
0.0104167
  0
SEQEND
 8
0
  0
ENDSEC
  0
EOF
