  0
SECTION
  2
HEADER
  9
$ACADVER
  1
AC1009
  9
$FILLMODE
 70
 0
  9
$SPLFRAME
 70
 1
  9
$EXTMIN
 10
0
 20
0
 30
0.0
  9
$EXTMAX
 10
41.6667
 20
41.6667
 30
0.0
  0
ENDSEC
  0
SECTION
  2
TABLES
  0
TABLE
  2
LAYER
 70
1
  0
LAYER
  2
0
 70
     0
 62
     7
  6
CONTINUOUS
  0
ENDTAB
  0
ENDSEC
  0
SECTION
  2
ENTITIES
  0
POLYLINE
  8
0
 62
     7
 66
     1
 10
0
 20
0
 30
0.0
 70
     1
 40
0
 41
0
  0
VERTEX
  8
0
 10
6.94217
 20
0.859321
 30
0.0
 40
0
 41
0
  0
VERTEX
  8
0
 10
6.94125
 20
0.00694444
 30
0.0
 40
0
 41
0
  0
VERTEX
  8
0
 10
5.06478
 20
0.00694444
 30
0.0
 40
0
 41
0
  0
VERTEX
  8
0
 10
5.06478
 20
0.859321
 30
0.0
 40
0
 41
0
  0
VERTEX
  8
0
 10
6.94217
 20
0.859321
 30
0.0
 40
0
 41
0
  0
SEQEND
 8
0
  0
POLYLINE
  8
0
 62
     0
 66
     1
 10
0
 20
0
 30
0.0
 70
     1
 40
0.15
 41
0.15
  0
VERTEX
  8
0
 10
6.94217
 20
0.859321
 30
0.0
 40
0.00208333
 41
0.00208333
  0
VERTEX
  8
0
 10
6.94125
 20
0.00694444
 30
0.0
 40
0.00208333
 41
0.00208333
  0
VERTEX
  8
0
 10
5.06478
 20
0.00694444
 30
0.0
 40
0.00208333
 41
0.00208333
  0
VERTEX
  8
0
 10
5.06478
 20
0.859321
 30
0.0
 40
0.00208333
 41
0.00208333
  0
VERTEX
  8
0
 10
6.94217
 20
0.859321
 30
0.0
 40
0.00208333
 41
0.00208333
  0
SEQEND
 8
0
  0
TEXT
  8
0
 62
     0
 10
5.49099
 20
0.433143
 30
0.0
 40
0.34375
  1
ULK
 50
0
  0
TEXT
  8
0
 62
     0
 10
6.1686
 20
0.433143
 30
0.0
 40
0.34375
  1
O
 50
0
  0
TEXT
  8
0
 62
     0
 10
6.4309
 20
0.433143
 30
0.0
 40
0.34375
  1
TILA
 50
0
  0
POLYLINE
  8
0
 62
     7
 66
     1
 10
0
 20
0
 30
0.0
 70
     1
 40
0
 41
0
  0
VERTEX
  8
0
 10
1.74544
 20
6.23682
 30
0.0
 40
0
 41
0
  0
VERTEX
  8
0
 10
3.07699
 20
6.23682
 30
0.0
 40
0
 41
0
  0
VERTEX
  8
0
 10
3.07699
 20
4.54318
 30
0.0
 40
0
 41
0
  0
VERTEX
  8
0
 10
1.74544
 20
4.54318
 30
0.0
 40
0
 41
0
  0
VERTEX
  8
0
 10
1.74544
 20
6.23682
 30
0.0
 40
0
 41
0
  0
SEQEND
 8
0
  0
POLYLINE
  8
0
 62
     7
 66
     1
 10
0
 20
0
 30
0.0
 70
     1
 40
0.15
 41
0.15
  0
VERTEX
  8
0
 10
1.74544
 20
6.23682
 30
0.0
 40
0.00208333
 41
0.00208333
  0
VERTEX
  8
0
 10
3.07699
 20
6.23682
 30
0.0
 40
0.00208333
 41
0.00208333
  0
VERTEX
  8
0
 10
3.07699
 20
4.54318
 30
0.0
 40
0.00208333
 41
0.00208333
  0
VERTEX
  8
0
 10
1.74544
 20
4.54318
 30
0.0
 40
0.00208333
 41
0.00208333
  0
VERTEX
  8
0
 10
1.74544
 20
6.23682
 30
0.0
 40
0.00208333
 41
0.00208333
  0
SEQEND
 8
0
  0
TEXT
  8
0
 62
     0
 10
2.03032
 20
5.69004
 30
0.0
 40
0.34375
  1
UNDEFINED
 50
0
  0
POLYLINE
  8
0
 62
     7
 66
     1
 10
0
 20
0
 30
0.0
 70
     1
 40
0
 41
0
  0
VERTEX
  8
0
 10
5.20019
 20
2.46099
 30
0.0
 40
0
 41
0
  0
VERTEX
  8
0
 10
6.9349
 20
2.46099
 30
0.0
 40
0
 41
0
  0
VERTEX
  8
0
 10
6.9349
 20
1.14621
 30
0.0
 40
0
 41
0
  0
VERTEX
  8
0
 10
5.20019
 20
1.14621
 30
0.0
 40
0
 41
0
  0
VERTEX
  8
0
 10
5.20019
 20
2.46099
 30
0.0
 40
0
 41
0
  0
SEQEND
 8
0
  0
POLYLINE
  8
0
 62
     7
 66
     1
 10
0
 20
0
 30
0.0
 70
     1
 40
0.15
 41
0.15
  0
VERTEX
  8
0
 10
5.20019
 20
2.46099
 30
0.0
 40
0.00208333
 41
0.00208333
  0
VERTEX
  8
0
 10
6.9349
 20
2.46099
 30
0.0
 40
0.00208333
 41
0.00208333
  0
VERTEX
  8
0
 10
6.9349
 20
1.14621
 30
0.0
 40
0.00208333
 41
0.00208333
  0
VERTEX
  8
0
 10
5.20019
 20
1.14621
 30
0.0
 40
0.00208333
 41
0.00208333
  0
VERTEX
  8
0
 10
5.20019
 20
2.46099
 30
0.0
 40
0.00208333
 41
0.00208333
  0
SEQEND
 8
0
  0
TEXT
  8
0
 62
     0
 10
6.00719
 20
1.37019
 30
0.0
 40
0.34375
  1
TK
 50
0
  0
POLYLINE
  8
0
 62
     7
 66
     1
 10
0
 20
0
 30
0.0
 70
     1
 40
0
 41
0
  0
VERTEX
  8
0
 10
3.19065
 20
6.23682
 30
0.0
 40
0
 41
0
  0
VERTEX
  8
0
 10
5.06478
 20
6.23682
 30
0.0
 40
0
 41
0
  0
VERTEX
  8
0
 10
5.06478
 20
4.54318
 30
0.0
 40
0
 41
0
  0
VERTEX
  8
0
 10
3.19065
 20
4.54318
 30
0.0
 40
0
 41
0
  0
VERTEX
  8
0
 10
3.19065
 20
6.23682
 30
0.0
 40
0
 41
0
  0
SEQEND
 8
0
  0
POLYLINE
  8
0
 62
     7
 66
     1
 10
0
 20
0
 30
0.0
 70
     1
 40
0.15
 41
0.15
  0
VERTEX
  8
0
 10
3.19065
 20
6.23682
 30
0.0
 40
0.00208333
 41
0.00208333
  0
VERTEX
  8
0
 10
5.06478
 20
6.23682
 30
0.0
 40
0.00208333
 41
0.00208333
  0
VERTEX
  8
0
 10
5.06478
 20
4.54318
 30
0.0
 40
0.00208333
 41
0.00208333
  0
VERTEX
  8
0
 10
3.19065
 20
4.54318
 30
0.0
 40
0.00208333
 41
0.00208333
  0
VERTEX
  8
0
 10
3.19065
 20
6.23682
 30
0.0
 40
0.00208333
 41
0.00208333
  0
SEQEND
 8
0
  0
TEXT
  8
0
 62
     0
 10
4.20346
 20
5.22401
 30
0.0
 40
0.34375
  1
PH
 50
0
  0
POLYLINE
  8
0
 62
     7
 66
     1
 10
0
 20
0
 30
0.0
 70
     1
 40
0
 41
0
  0
VERTEX
  8
0
 10
1.74544
 20
4.40776
 30
0.0
 40
0
 41
0
  0
VERTEX
  8
0
 10
5.06478
 20
4.40776
 30
0.0
 40
0
 41
0
  0
VERTEX
  8
0
 10
5.06478
 20
1.14621
 30
0.0
 40
0
 41
0
  0
VERTEX
  8
0
 10
1.74544
 20
1.14621
 30
0.0
 40
0
 41
0
  0
VERTEX
  8
0
 10
1.74544
 20
4.40776
 30
0.0
 40
0
 41
0
  0
SEQEND
 8
0
  0
POLYLINE
  8
0
 62
     7
 66
     1
 10
0
 20
0
 30
0.0
 70
     1
 40
0.15
 41
0.15
  0
VERTEX
  8
0
 10
1.74544
 20
4.40776
 30
0.0
 40
0.00208333
 41
0.00208333
  0
VERTEX
  8
0
 10
5.06478
 20
4.40776
 30
0.0
 40
0.00208333
 41
0.00208333
  0
VERTEX
  8
0
 10
5.06478
 20
1.14621
 30
0.0
 40
0.00208333
 41
0.00208333
  0
VERTEX
  8
0
 10
1.74544
 20
1.14621
 30
0.0
 40
0.00208333
 41
0.00208333
  0
VERTEX
  8
0
 10
1.74544
 20
4.40776
 30
0.0
 40
0.00208333
 41
0.00208333
  0
SEQEND
 8
0
  0
TEXT
  8
0
 62
     0
 10
3.13482
 20
2.7325
 30
0.0
 40
0.34375
  1
MH
 50
0
  0
POLYLINE
  8
0
 62
     7
 66
     1
 10
0
 20
0
 30
0.0
 70
     1
 40
0
 41
0
  0
VERTEX
  8
0
 10
1.74544
 20
10.7382
 30
0.0
 40
0
 41
0
  0
VERTEX
  8
0
 10
5.18907
 20
10.7382
 30
0.0
 40
0
 41
0
  0
VERTEX
  8
0
 10
5.18907
 20
6.37224
 30
0.0
 40
0
 41
0
  0
VERTEX
  8
0
 10
1.74544
 20
6.37224
 30
0.0
 40
0
 41
0
  0
VERTEX
  8
0
 10
1.74544
 20
10.7382
 30
0.0
 40
0
 41
0
  0
SEQEND
 8
0
  0
POLYLINE
  8
0
 62
     7
 66
     1
 10
0
 20
0
 30
0.0
 70
     1
 40
0.15
 41
0.15
  0
VERTEX
  8
0
 10
1.74544
 20
10.7382
 30
0.0
 40
0.00208333
 41
0.00208333
  0
VERTEX
  8
0
 10
5.18907
 20
10.7382
 30
0.0
 40
0.00208333
 41
0.00208333
  0
VERTEX
  8
0
 10
5.18907
 20
6.37224
 30
0.0
 40
0.00208333
 41
0.00208333
  0
VERTEX
  8
0
 10
1.74544
 20
6.37224
 30
0.0
 40
0.00208333
 41
0.00208333
  0
VERTEX
  8
0
 10
1.74544
 20
10.7382
 30
0.0
 40
0.00208333
 41
0.00208333
  0
SEQEND
 8
0
  0
TEXT
  8
0
 62
     0
 10
3.14697
 20
8.50185
 30
0.0
 40
0.34375
  1
OH
 50
0
  0
POLYLINE
  8
0
 62
     7
 66
     1
 10
0
 20
0
 30
0.0
 70
     1
 40
0
 41
0
  0
VERTEX
  8
0
 10
6.00092
 20
7.29372
 30
0.0
 40
0
 41
0
  0
VERTEX
  8
0
 10
6.9349
 20
7.29372
 30
0.0
 40
0
 41
0
  0
VERTEX
  8
0
 10
6.9349
 20
2.5964
 30
0.0
 40
0
 41
0
  0
VERTEX
  8
0
 10
5.20019
 20
2.5964
 30
0.0
 40
0
 41
0
  0
VERTEX
  8
0
 10
5.20019
 20
6.37224
 30
0.0
 40
0
 41
0
  0
VERTEX
  8
0
 10
5.18907
 20
6.37224
 30
0.0
 40
0
 41
0
  0
VERTEX
  8
0
 10
5.18907
 20
7.34153
 30
0.0
 40
0
 41
0
  0
VERTEX
  8
0
 10
6.00092
 20
7.34153
 30
0.0
 40
0
 41
0
  0
VERTEX
  8
0
 10
6.00092
 20
7.29372
 30
0.0
 40
0
 41
0
  0
SEQEND
 8
0
  0
POLYLINE
  8
0
 62
     7
 66
     1
 10
0
 20
0
 30
0.0
 70
     1
 40
0.15
 41
0.15
  0
VERTEX
  8
0
 10
6.00092
 20
7.29372
 30
0.0
 40
0.00208333
 41
0.00208333
  0
VERTEX
  8
0
 10
6.9349
 20
7.29372
 30
0.0
 40
0.00208333
 41
0.00208333
  0
VERTEX
  8
0
 10
6.9349
 20
2.5964
 30
0.0
 40
0.00208333
 41
0.00208333
  0
VERTEX
  8
0
 10
5.20019
 20
2.5964
 30
0.0
 40
0.00208333
 41
0.00208333
  0
VERTEX
  8
0
 10
5.20019
 20
6.37224
 30
0.0
 40
0.00208333
 41
0.00208333
  0
VERTEX
  8
0
 10
5.18907
 20
6.37224
 30
0.0
 40
0.00208333
 41
0.00208333
  0
VERTEX
  8
0
 10
5.18907
 20
7.34153
 30
0.0
 40
0.00208333
 41
0.00208333
  0
VERTEX
  8
0
 10
6.00092
 20
7.34153
 30
0.0
 40
0.00208333
 41
0.00208333
  0
VERTEX
  8
0
 10
6.00092
 20
7.29372
 30
0.0
 40
0.00208333
 41
0.00208333
  0
SEQEND
 8
0
  0
TEXT
  8
0
 62
     0
 10
5.65894
 20
4.57049
 30
0.0
 40
0.34375
  1
ET
 50
0
  0
POLYLINE
  8
0
 62
     7
 66
     1
 10
0
 20
0
 30
0.0
 70
     1
 40
0
 41
0
  0
VERTEX
  8
0
 10
6.9349
 20
7.42914
 30
0.0
 40
0
 41
0
  0
VERTEX
  8
0
 10
6.00092
 20
7.42914
 30
0.0
 40
0
 41
0
  0
VERTEX
  8
0
 10
6.00092
 20
7.34153
 30
0.0
 40
0
 41
0
  0
VERTEX
  8
0
 10
5.18907
 20
7.34153
 30
0.0
 40
0
 41
0
  0
VERTEX
  8
0
 10
5.18907
 20
10.7382
 30
0.0
 40
0
 41
0
  0
VERTEX
  8
0
 10
6.9349
 20
10.7382
 30
0.0
 40
0
 41
0
  0
VERTEX
  8
0
 10
6.9349
 20
7.42914
 30
0.0
 40
0
 41
0
  0
SEQEND
 8
0
  0
POLYLINE
  8
0
 62
     7
 66
     1
 10
0
 20
0
 30
0.0
 70
     1
 40
0.15
 41
0.15
  0
VERTEX
  8
0
 10
6.9349
 20
7.42914
 30
0.0
 40
0.00208333
 41
0.00208333
  0
VERTEX
  8
0
 10
6.00092
 20
7.42914
 30
0.0
 40
0.00208333
 41
0.00208333
  0
VERTEX
  8
0
 10
6.00092
 20
7.34153
 30
0.0
 40
0.00208333
 41
0.00208333
  0
VERTEX
  8
0
 10
5.18907
 20
7.34153
 30
0.0
 40
0.00208333
 41
0.00208333
  0
VERTEX
  8
0
 10
5.18907
 20
10.7382
 30
0.0
 40
0.00208333
 41
0.00208333
  0
VERTEX
  8
0
 10
6.9349
 20
10.7382
 30
0.0
 40
0.00208333
 41
0.00208333
  0
VERTEX
  8
0
 10
6.9349
 20
7.42914
 30
0.0
 40
0.00208333
 41
0.00208333
  0
SEQEND
 8
0
  0
TEXT
  8
0
 62
     0
 10
5.5994
 20
8.94011
 30
0.0
 40
0.34375
  1
KK
 50
0
  0
POLYLINE
  8
0
 62
     0
 66
     1
 10
0
 20
0
 30
0.0
 70
     1
 40
0
 41
0
  0
VERTEX
  8
0
 10
1.51801
 20
11.0119
 30
0.0
 40
0
 41
0
  0
VERTEX
  8
0
 10
7.13781
 20
11.0119
 30
0.0
 40
0
 41
0
  0
VERTEX
  8
0
 10
6.9349
 20
10.7382
 30
0.0
 40
0
 41
0
  0
VERTEX
  8
0
 10
1.74544
 20
10.7382
 30
0.0
 40
0
 41
0
  0
VERTEX
  8
0
 10
1.51801
 20
11.0119
 30
0.0
 40
0
 41
0
  0
SEQEND
 8
0
  0
POLYLINE
  8
0
 62
     0
 66
     1
 10
0
 20
0
 30
0.0
 70
     1
 40
0.15
 41
0.15
  0
VERTEX
  8
0
 10
1.51801
 20
11.0119
 30
0.0
 40
0.00208333
 41
0.00208333
  0
VERTEX
  8
0
 10
7.13781
 20
11.0119
 30
0.0
 40
0.00208333
 41
0.00208333
  0
VERTEX
  8
0
 10
6.9349
 20
10.7382
 30
0.0
 40
0.00208333
 41
0.00208333
  0
VERTEX
  8
0
 10
1.74544
 20
10.7382
 30
0.0
 40
0.00208333
 41
0.00208333
  0
VERTEX
  8
0
 10
1.51801
 20
11.0119
 30
0.0
 40
0.00208333
 41
0.00208333
  0
SEQEND
 8
0
  0
POLYLINE
  8
0
 62
     7
 66
     1
 10
0
 20
0
 30
0.0
 70
     1
 40
0
 41
0
  0
VERTEX
  8
0
 10
5.26719
 20
11.0119
 30
0.0
 40
0
 41
0
  0
VERTEX
  8
0
 10
6.09706
 20
11.0119
 30
0.0
 40
0
 41
0
  0
VERTEX
  8
0
 10
6.09706
 20
10.7382
 30
0.0
 40
0
 41
0
  0
VERTEX
  8
0
 10
5.26719
 20
10.7382
 30
0.0
 40
0
 41
0
  0
VERTEX
  8
0
 10
5.26719
 20
11.0119
 30
0.0
 40
0
 41
0
  0
SEQEND
 8
0
  0
POLYLINE
  8
0
 62
     0
 66
     1
 10
0
 20
0
 30
0.0
 70
     1
 40
0.75
 41
0.75
  0
VERTEX
  8
0
 10
5.26719
 20
11.0119
 30
0.0
 40
0.0104167
 41
0.0104167
  0
VERTEX
  8
0
 10
6.09706
 20
11.0119
 30
0.0
 40
0.0104167
 41
0.0104167
  0
VERTEX
  8
0
 10
6.09706
 20
10.7382
 30
0.0
 40
0.0104167
 41
0.0104167
  0
VERTEX
  8
0
 10
5.26719
 20
10.7382
 30
0.0
 40
0.0104167
 41
0.0104167
  0
VERTEX
  8
0
 10
5.26719
 20
11.0119
 30
0.0
 40
0.0104167
 41
0.0104167
  0
SEQEND
 8
0
  0
POLYLINE
  8
0
 62
     7
 66
     1
 10
0
 20
0
 30
0.0
 70
     1
 40
0
 41
0
  0
VERTEX
  8
0
 10
5.26719
 20
11.0119
 30
0.0
 40
0
 41
0
  0
VERTEX
  8
0
 10
6.09706
 20
11.0119
 30
0.0
 40
0
 41
0
  0
VERTEX
  8
0
 10
6.09706
 20
10.7382
 30
0.0
 40
0
 41
0
  0
VERTEX
  8
0
 10
5.26719
 20
10.7382
 30
0.0
 40
0
 41
0
  0
VERTEX
  8
0
 10
5.26719
 20
11.0119
 30
0.0
 40
0
 41
0
  0
SEQEND
 8
0
  0
POLYLINE
  8
0
 62
     0
 66
     1
 10
0
 20
0
 30
0.0
 70
     1
 40
0.75
 41
0.75
  0
VERTEX
  8
0
 10
5.26719
 20
11.0119
 30
0.0
 40
0.0104167
 41
0.0104167
  0
VERTEX
  8
0
 10
6.09706
 20
11.0119
 30
0.0
 40
0.0104167
 41
0.0104167
  0
VERTEX
  8
0
 10
6.09706
 20
10.7382
 30
0.0
 40
0.0104167
 41
0.0104167
  0
VERTEX
  8
0
 10
5.26719
 20
10.7382
 30
0.0
 40
0.0104167
 41
0.0104167
  0
VERTEX
  8
0
 10
5.26719
 20
11.0119
 30
0.0
 40
0.0104167
 41
0.0104167
  0
SEQEND
 8
0
  0
POLYLINE
  8
0
 62
     0
 66
     1
 10
0
 20
0
 30
0.0
 70
     1
 40
0.75
 41
0.75
  0
VERTEX
  8
0
 10
5.26719
 20
11.0119
 30
0.0
 40
0.0104167
 41
0.0104167
  0
VERTEX
  8
0
 10
5.26719
 20
11.0606
 30
0.0
 40
0.0104167
 41
0.0104167
  0
VERTEX
  8
0
 10
5.28017
 20
11.2065
 30
0.0
 40
0.0104167
 41
0.0104167
  0
VERTEX
  8
0
 10
5.31907
 20
11.3751
 30
0.0
 40
0.0104167
 41
0.0104167
  0
VERTEX
  8
0
 10
5.3839
 20
11.5177
 30
0.0
 40
0.0104167
 41
0.0104167
  0
VERTEX
  8
0
 10
5.47467
 20
11.6344
 30
0.0
 40
0.0104167
 41
0.0104167
  0
VERTEX
  8
0
 10
5.59136
 20
11.7252
 30
0.0
 40
0.0104167
 41
0.0104167
  0
VERTEX
  8
0
 10
5.734
 20
11.79
 30
0.0
 40
0.0104167
 41
0.0104167
  0
VERTEX
  8
0
 10
5.90256
 20
11.8289
 30
0.0
 40
0.0104167
 41
0.0104167
  0
VERTEX
  8
0
 10
6.04839
 20
11.8418
 30
0.0
 40
0.0104167
 41
0.0104167
  0
VERTEX
  8
0
 10
6.09706
 20
11.8418
 30
0.0
 40
0.0104167
 41
0.0104167
  0
VERTEX
  8
0
 10
6.09706
 20
11.0119
 30
0.0
 40
0.0104167
 41
0.0104167
  0
VERTEX
  8
0
 10
5.26719
 20
11.0119
 30
0.0
 40
0.0104167
 41
0.0104167
  0
SEQEND
 8
0
  0
POLYLINE
  8
0
 62
     7
 66
     1
 10
0
 20
0
 30
0.0
 70
     1
 40
0
 41
0
  0
VERTEX
  8
0
 10
2.56967
 20
11.0119
 30
0.0
 40
0
 41
0
  0
VERTEX
  8
0
 10
4.71365
 20
11.0119
 30
0.0
 40
0
 41
0
  0
VERTEX
  8
0
 10
4.71365
 20
10.7382
 30
0.0
 40
0
 41
0
  0
VERTEX
  8
0
 10
2.56967
 20
10.7382
 30
0.0
 40
0
 41
0
  0
VERTEX
  8
0
 10
2.56967
 20
11.0119
 30
0.0
 40
0
 41
0
  0
SEQEND
 8
0
  0
POLYLINE
  8
0
 62
     0
 66
     1
 10
0
 20
0
 30
0.0
 70
     1
 40
0.75
 41
0.75
  0
VERTEX
  8
0
 10
2.56967
 20
11.0119
 30
0.0
 40
0.0104167
 41
0.0104167
  0
VERTEX
  8
0
 10
4.71365
 20
11.0119
 30
0.0
 40
0.0104167
 41
0.0104167
  0
VERTEX
  8
0
 10
4.71365
 20
10.7382
 30
0.0
 40
0.0104167
 41
0.0104167
  0
VERTEX
  8
0
 10
2.56967
 20
10.7382
 30
0.0
 40
0.0104167
 41
0.0104167
  0
VERTEX
  8
0
 10
2.56967
 20
11.0119
 30
0.0
 40
0.0104167
 41
0.0104167
  0
SEQEND
 8
0
  0
POLYLINE
  8
0
 62
     7
 66
     1
 10
0
 20
0
 30
0.0
 70
     1
 40
0
 41
0
  0
VERTEX
  8
0
 10
2.56967
 20
11.0119
 30
0.0
 40
0
 41
0
  0
VERTEX
  8
0
 10
4.71365
 20
11.0119
 30
0.0
 40
0
 41
0
  0
VERTEX
  8
0
 10
4.71365
 20
10.7382
 30
0.0
 40
0
 41
0
  0
VERTEX
  8
0
 10
2.56967
 20
10.7382
 30
0.0
 40
0
 41
0
  0
VERTEX
  8
0
 10
2.56967
 20
11.0119
 30
0.0
 40
0
 41
0
  0
SEQEND
 8
0
  0
POLYLINE
  8
0
 62
     0
 66
     1
 10
0
 20
0
 30
0.0
 70
     1
 40
0.75
 41
0.75
  0
VERTEX
  8
0
 10
2.56967
 20
11.0119
 30
0.0
 40
0.0104167
 41
0.0104167
  0
VERTEX
  8
0
 10
4.71365
 20
11.0119
 30
0.0
 40
0.0104167
 41
0.0104167
  0
VERTEX
  8
0
 10
4.71365
 20
10.7382
 30
0.0
 40
0.0104167
 41
0.0104167
  0
VERTEX
  8
0
 10
2.56967
 20
10.7382
 30
0.0
 40
0.0104167
 41
0.0104167
  0
VERTEX
  8
0
 10
2.56967
 20
11.0119
 30
0.0
 40
0.0104167
 41
0.0104167
  0
SEQEND
 8
0
  0
POLYLINE
  8
0
 62
     0
 66
     1
 10
0
 20
0
 30
0.0
 40
0.75
 41
0.75
  0
VERTEX
  8
0
 10
2.64779
 20
10.8751
 30
0.0
 40
0.0104167
 41
0.0104167
  0
VERTEX
  8
0
 10
4.63553
 20
10.8751
 30
0.0
 40
0.0104167
 41
0.0104167
  0
SEQEND
 8
0
  0
POLYLINE
  8
0
 62
     0
 66
     1
 10
0
 20
0
 30
0.0
 40
0.75
 41
0.75
  0
VERTEX
  8
0
 10
2.64779
 20
11.012
 30
0.0
 40
0.0104167
 41
0.0104167
  0
VERTEX
  8
0
 10
2.64779
 20
10.7382
 30
0.0
 40
0.0104167
 41
0.0104167
  0
SEQEND
 8
0
  0
POLYLINE
  8
0
 62
     0
 66
     1
 10
0
 20
0
 30
0.0
 40
0.75
 41
0.75
  0
VERTEX
  8
0
 10
4.63553
 20
11.012
 30
0.0
 40
0.0104167
 41
0.0104167
  0
VERTEX
  8
0
 10
4.63553
 20
10.7382
 30
0.0
 40
0.0104167
 41
0.0104167
  0
SEQEND
 8
0
  0
POLYLINE
  8
0
 62
     0
 66
     1
 10
0
 20
0
 30
0.0
 70
     1
 40
0
 41
0
  0
VERTEX
  8
0
 10
7.13781
 20
11.0119
 30
0.0
 40
0
 41
0
  0
VERTEX
  8
0
 10
7.13781
 20
0.859321
 30
0.0
 40
0
 41
0
  0
VERTEX
  8
0
 10
6.9349
 20
1.14621
 30
0.0
 40
0
 41
0
  0
VERTEX
  8
0
 10
6.9349
 20
10.7382
 30
0.0
 40
0
 41
0
  0
VERTEX
  8
0
 10
7.13781
 20
11.0119
 30
0.0
 40
0
 41
0
  0
SEQEND
 8
0
  0
POLYLINE
  8
0
 62
     0
 66
     1
 10
0
 20
0
 30
0.0
 70
     1
 40
0.15
 41
0.15
  0
VERTEX
  8
0
 10
7.13781
 20
11.0119
 30
0.0
 40
0.00208333
 41
0.00208333
  0
VERTEX
  8
0
 10
7.13781
 20
0.859321
 30
0.0
 40
0.00208333
 41
0.00208333
  0
VERTEX
  8
0
 10
6.9349
 20
1.14621
 30
0.0
 40
0.00208333
 41
0.00208333
  0
VERTEX
  8
0
 10
6.9349
 20
10.7382
 30
0.0
 40
0.00208333
 41
0.00208333
  0
VERTEX
  8
0
 10
7.13781
 20
11.0119
 30
0.0
 40
0.00208333
 41
0.00208333
  0
SEQEND
 8
0
  0
POLYLINE
  8
0
 62
     0
 66
     1
 10
0
 20
0
 30
0.0
 70
     1
 40
0
 41
0
  0
VERTEX
  8
0
 10
7.13781
 20
0.859321
 30
0.0
 40
0
 41
0
  0
VERTEX
  8
0
 10
1.51801
 20
0.859321
 30
0.0
 40
0
 41
0
  0
VERTEX
  8
0
 10
1.74544
 20
1.14621
 30
0.0
 40
0
 41
0
  0
VERTEX
  8
0
 10
6.9349
 20
1.14621
 30
0.0
 40
0
 41
0
  0
VERTEX
  8
0
 10
7.13781
 20
0.859321
 30
0.0
 40
0
 41
0
  0
SEQEND
 8
0
  0
POLYLINE
  8
0
 62
     0
 66
     1
 10
0
 20
0
 30
0.0
 70
     1
 40
0.15
 41
0.15
  0
VERTEX
  8
0
 10
7.13781
 20
0.859321
 30
0.0
 40
0.00208333
 41
0.00208333
  0
VERTEX
  8
0
 10
1.51801
 20
0.859321
 30
0.0
 40
0.00208333
 41
0.00208333
  0
VERTEX
  8
0
 10
1.74544
 20
1.14621
 30
0.0
 40
0.00208333
 41
0.00208333
  0
VERTEX
  8
0
 10
6.9349
 20
1.14621
 30
0.0
 40
0.00208333
 41
0.00208333
  0
VERTEX
  8
0
 10
7.13781
 20
0.859321
 30
0.0
 40
0.00208333
 41
0.00208333
  0
SEQEND
 8
0
  0
POLYLINE
  8
0
 62
     7
 66
     1
 10
0
 20
0
 30
0.0
 70
     1
 40
0
 41
0
  0
VERTEX
  8
0
 10
5.23594
 20
1.14621
 30
0.0
 40
0
 41
0
  0
VERTEX
  8
0
 10
6.01383
 20
1.14621
 30
0.0
 40
0
 41
0
  0
VERTEX
  8
0
 10
6.01383
 20
0.859321
 30
0.0
 40
0
 41
0
  0
VERTEX
  8
0
 10
5.23594
 20
0.859321
 30
0.0
 40
0
 41
0
  0
VERTEX
  8
0
 10
5.23594
 20
1.14621
 30
0.0
 40
0
 41
0
  0
SEQEND
 8
0
  0
POLYLINE
  8
0
 62
     0
 66
     1
 10
0
 20
0
 30
0.0
 70
     1
 40
0.75
 41
0.75
  0
VERTEX
  8
0
 10
5.23594
 20
1.14621
 30
0.0
 40
0.0104167
 41
0.0104167
  0
VERTEX
  8
0
 10
6.01383
 20
1.14621
 30
0.0
 40
0.0104167
 41
0.0104167
  0
VERTEX
  8
0
 10
6.01383
 20
0.859321
 30
0.0
 40
0.0104167
 41
0.0104167
  0
VERTEX
  8
0
 10
5.23594
 20
0.859321
 30
0.0
 40
0.0104167
 41
0.0104167
  0
VERTEX
  8
0
 10
5.23594
 20
1.14621
 30
0.0
 40
0.0104167
 41
0.0104167
  0
SEQEND
 8
0
  0
POLYLINE
  8
0
 62
     7
 66
     1
 10
0
 20
0
 30
0.0
 70
     1
 40
0
 41
0
  0
VERTEX
  8
0
 10
5.23594
 20
1.14621
 30
0.0
 40
0
 41
0
  0
VERTEX
  8
0
 10
6.01383
 20
1.14621
 30
0.0
 40
0
 41
0
  0
VERTEX
  8
0
 10
6.01383
 20
0.859321
 30
0.0
 40
0
 41
0
  0
VERTEX
  8
0
 10
5.23594
 20
0.859321
 30
0.0
 40
0
 41
0
  0
VERTEX
  8
0
 10
5.23594
 20
1.14621
 30
0.0
 40
0
 41
0
  0
SEQEND
 8
0
  0
POLYLINE
  8
0
 62
     0
 66
     1
 10
0
 20
0
 30
0.0
 70
     1
 40
0.75
 41
0.75
  0
VERTEX
  8
0
 10
5.23594
 20
1.14621
 30
0.0
 40
0.0104167
 41
0.0104167
  0
VERTEX
  8
0
 10
6.01383
 20
1.14621
 30
0.0
 40
0.0104167
 41
0.0104167
  0
VERTEX
  8
0
 10
6.01383
 20
0.859321
 30
0.0
 40
0.0104167
 41
0.0104167
  0
VERTEX
  8
0
 10
5.23594
 20
0.859321
 30
0.0
 40
0.0104167
 41
0.0104167
  0
VERTEX
  8
0
 10
5.23594
 20
1.14621
 30
0.0
 40
0.0104167
 41
0.0104167
  0
SEQEND
 8
0
  0
POLYLINE
  8
0
 62
     0
 66
     1
 10
0
 20
0
 30
0.0
 70
     1
 40
0.75
 41
0.75
  0
VERTEX
  8
0
 10
6.01383
 20
0.859321
 30
0.0
 40
0.0104167
 41
0.0104167
  0
VERTEX
  8
0
 10
6.01383
 20
0.813747
 30
0.0
 40
0.0104167
 41
0.0104167
  0
VERTEX
  8
0
 10
6.00163
 20
0.677029
 30
0.0
 40
0.0104167
 41
0.0104167
  0
VERTEX
  8
0
 10
5.96517
 20
0.518989
 30
0.0
 40
0.0104167
 41
0.0104167
  0
VERTEX
  8
0
 10
5.9044
 20
0.385308
 30
0.0
 40
0.0104167
 41
0.0104167
  0
VERTEX
  8
0
 10
5.81933
 20
0.275933
 30
0.0
 40
0.0104167
 41
0.0104167
  0
VERTEX
  8
0
 10
5.70996
 20
0.190864
 30
0.0
 40
0.0104167
 41
0.0104167
  0
VERTEX
  8
0
 10
5.57628
 20
0.1301
 30
0.0
 40
0.0104167
 41
0.0104167
  0
VERTEX
  8
0
 10
5.41824
 20
0.0936415
 30
0.0
 40
0.0104167
 41
0.0104167
  0
VERTEX
  8
0
 10
5.28153
 20
0.0814344
 30
0.0
 40
0.0104167
 41
0.0104167
  0
VERTEX
  8
0
 10
5.23594
 20
0.0814344
 30
0.0
 40
0.0104167
 41
0.0104167
  0
VERTEX
  8
0
 10
5.23594
 20
0.859321
 30
0.0
 40
0.0104167
 41
0.0104167
  0
VERTEX
  8
0
 10
6.01383
 20
0.859321
 30
0.0
 40
0.0104167
 41
0.0104167
  0
SEQEND
 8
0
  0
POLYLINE
  8
0
 62
     7
 66
     1
 10
0
 20
0
 30
0.0
 70
     1
 40
0
 41
0
  0
VERTEX
  8
0
 10
2.58854
 20
1.14621
 30
0.0
 40
0
 41
0
  0
VERTEX
  8
0
 10
4.1269
 20
1.14621
 30
0.0
 40
0
 41
0
  0
VERTEX
  8
0
 10
4.1269
 20
0.859321
 30
0.0
 40
0
 41
0
  0
VERTEX
  8
0
 10
2.58854
 20
0.859321
 30
0.0
 40
0
 41
0
  0
VERTEX
  8
0
 10
2.58854
 20
1.14621
 30
0.0
 40
0
 41
0
  0
SEQEND
 8
0
  0
POLYLINE
  8
0
 62
     0
 66
     1
 10
0
 20
0
 30
0.0
 70
     1
 40
0.75
 41
0.75
  0
VERTEX
  8
0
 10
2.58854
 20
1.14621
 30
0.0
 40
0.0104167
 41
0.0104167
  0
VERTEX
  8
0
 10
4.1269
 20
1.14621
 30
0.0
 40
0.0104167
 41
0.0104167
  0
VERTEX
  8
0
 10
4.1269
 20
0.859321
 30
0.0
 40
0.0104167
 41
0.0104167
  0
VERTEX
  8
0
 10
2.58854
 20
0.859321
 30
0.0
 40
0.0104167
 41
0.0104167
  0
VERTEX
  8
0
 10
2.58854
 20
1.14621
 30
0.0
 40
0.0104167
 41
0.0104167
  0
SEQEND
 8
0
  0
POLYLINE
  8
0
 62
     7
 66
     1
 10
0
 20
0
 30
0.0
 70
     1
 40
0
 41
0
  0
VERTEX
  8
0
 10
2.58854
 20
1.14621
 30
0.0
 40
0
 41
0
  0
VERTEX
  8
0
 10
4.1269
 20
1.14621
 30
0.0
 40
0
 41
0
  0
VERTEX
  8
0
 10
4.1269
 20
0.859321
 30
0.0
 40
0
 41
0
  0
VERTEX
  8
0
 10
2.58854
 20
0.859321
 30
0.0
 40
0
 41
0
  0
VERTEX
  8
0
 10
2.58854
 20
1.14621
 30
0.0
 40
0
 41
0
  0
SEQEND
 8
0
  0
POLYLINE
  8
0
 62
     0
 66
     1
 10
0
 20
0
 30
0.0
 70
     1
 40
0.75
 41
0.75
  0
VERTEX
  8
0
 10
2.58854
 20
1.14621
 30
0.0
 40
0.0104167
 41
0.0104167
  0
VERTEX
  8
0
 10
4.1269
 20
1.14621
 30
0.0
 40
0.0104167
 41
0.0104167
  0
VERTEX
  8
0
 10
4.1269
 20
0.859321
 30
0.0
 40
0.0104167
 41
0.0104167
  0
VERTEX
  8
0
 10
2.58854
 20
0.859321
 30
0.0
 40
0.0104167
 41
0.0104167
  0
VERTEX
  8
0
 10
2.58854
 20
1.14621
 30
0.0
 40
0.0104167
 41
0.0104167
  0
SEQEND
 8
0
  0
POLYLINE
  8
0
 62
     0
 66
     1
 10
0
 20
0
 30
0.0
 40
0.75
 41
0.75
  0
VERTEX
  8
0
 10
4.04878
 20
1.00277
 30
0.0
 40
0.0104167
 41
0.0104167
  0
VERTEX
  8
0
 10
2.66667
 20
1.00277
 30
0.0
 40
0.0104167
 41
0.0104167
  0
SEQEND
 8
0
  0
POLYLINE
  8
0
 62
     0
 66
     1
 10
0
 20
0
 30
0.0
 40
0.75
 41
0.75
  0
VERTEX
  8
0
 10
4.04878
 20
0.859321
 30
0.0
 40
0.0104167
 41
0.0104167
  0
VERTEX
  8
0
 10
4.04878
 20
1.14621
 30
0.0
 40
0.0104167
 41
0.0104167
  0
SEQEND
 8
0
  0
POLYLINE
  8
0
 62
     0
 66
     1
 10
0
 20
0
 30
0.0
 40
0.75
 41
0.75
  0
VERTEX
  8
0
 10
2.66667
 20
0.859321
 30
0.0
 40
0.0104167
 41
0.0104167
  0
VERTEX
  8
0
 10
2.66667
 20
1.14621
 30
0.0
 40
0.0104167
 41
0.0104167
  0
SEQEND
 8
0
  0
POLYLINE
  8
0
 62
     0
 66
     1
 10
0
 20
0
 30
0.0
 70
     1
 40
0
 41
0
  0
VERTEX
  8
0
 10
1.51801
 20
0.859321
 30
0.0
 40
0
 41
0
  0
VERTEX
  8
0
 10
1.51801
 20
11.0119
 30
0.0
 40
0
 41
0
  0
VERTEX
  8
0
 10
1.74544
 20
10.7382
 30
0.0
 40
0
 41
0
  0
VERTEX
  8
0
 10
1.74544
 20
1.14621
 30
0.0
 40
0
 41
0
  0
VERTEX
  8
0
 10
1.51801
 20
0.859321
 30
0.0
 40
0
 41
0
  0
SEQEND
 8
0
  0
POLYLINE
  8
0
 62
     0
 66
     1
 10
0
 20
0
 30
0.0
 70
     1
 40
0.15
 41
0.15
  0
VERTEX
  8
0
 10
1.51801
 20
0.859321
 30
0.0
 40
0.00208333
 41
0.00208333
  0
VERTEX
  8
0
 10
1.51801
 20
11.0119
 30
0.0
 40
0.00208333
 41
0.00208333
  0
VERTEX
  8
0
 10
1.74544
 20
10.7382
 30
0.0
 40
0.00208333
 41
0.00208333
  0
VERTEX
  8
0
 10
1.74544
 20
1.14621
 30
0.0
 40
0.00208333
 41
0.00208333
  0
VERTEX
  8
0
 10
1.51801
 20
0.859321
 30
0.0
 40
0.00208333
 41
0.00208333
  0
SEQEND
 8
0
  0
POLYLINE
  8
0
 62
     0
 66
     1
 10
0
 20
0
 30
0.0
 70
     1
 40
0
 41
0
  0
VERTEX
  8
0
 10
5.06478
 20
0.859321
 30
0.0
 40
0
 41
0
  0
VERTEX
  8
0
 10
5.06478
 20
6.23682
 30
0.0
 40
0
 41
0
  0
VERTEX
  8
0
 10
5.20019
 20
6.37224
 30
0.0
 40
0
 41
0
  0
VERTEX
  8
0
 10
5.20019
 20
0.859321
 30
0.0
 40
0
 41
0
  0
VERTEX
  8
0
 10
5.06478
 20
0.859321
 30
0.0
 40
0
 41
0
  0
SEQEND
 8
0
  0
POLYLINE
  8
0
 62
     0
 66
     1
 10
0
 20
0
 30
0.0
 70
     1
 40
0.15
 41
0.15
  0
VERTEX
  8
0
 10
5.06478
 20
0.859321
 30
0.0
 40
0.00208333
 41
0.00208333
  0
VERTEX
  8
0
 10
5.06478
 20
6.23682
 30
0.0
 40
0.00208333
 41
0.00208333
  0
VERTEX
  8
0
 10
5.20019
 20
6.37224
 30
0.0
 40
0.00208333
 41
0.00208333
  0
VERTEX
  8
0
 10
5.20019
 20
0.859321
 30
0.0
 40
0.00208333
 41
0.00208333
  0
VERTEX
  8
0
 10
5.06478
 20
0.859321
 30
0.0
 40
0.00208333
 41
0.00208333
  0
SEQEND
 8
0
  0
POLYLINE
  8
0
 62
     7
 66
     1
 10
0
 20
0
 30
0.0
 70
     1
 40
0
 41
0
  0
VERTEX
  8
0
 10
5.06478
 20
4.37185
 30
0.0
 40
0
 41
0
  0
VERTEX
  8
0
 10
5.20019
 20
4.37185
 30
0.0
 40
0
 41
0
  0
VERTEX
  8
0
 10
5.20019
 20
3.53808
 30
0.0
 40
0
 41
0
  0
VERTEX
  8
0
 10
5.06478
 20
3.53808
 30
0.0
 40
0
 41
0
  0
VERTEX
  8
0
 10
5.06478
 20
4.37185
 30
0.0
 40
0
 41
0
  0
SEQEND
 8
0
  0
POLYLINE
  8
0
 62
     0
 66
     1
 10
0
 20
0
 30
0.0
 70
     1
 40
0.75
 41
0.75
  0
VERTEX
  8
0
 10
5.06478
 20
4.37185
 30
0.0
 40
0.0104167
 41
0.0104167
  0
VERTEX
  8
0
 10
5.20019
 20
4.37185
 30
0.0
 40
0.0104167
 41
0.0104167
  0
VERTEX
  8
0
 10
5.20019
 20
3.53808
 30
0.0
 40
0.0104167
 41
0.0104167
  0
VERTEX
  8
0
 10
5.06478
 20
3.53808
 30
0.0
 40
0.0104167
 41
0.0104167
  0
VERTEX
  8
0
 10
5.06478
 20
4.37185
 30
0.0
 40
0.0104167
 41
0.0104167
  0
SEQEND
 8
0
  0
POLYLINE
  8
0
 62
     7
 66
     1
 10
0
 20
0
 30
0.0
 70
     1
 40
0
 41
0
  0
VERTEX
  8
0
 10
5.06478
 20
4.37185
 30
0.0
 40
0
 41
0
  0
VERTEX
  8
0
 10
5.20019
 20
4.37185
 30
0.0
 40
0
 41
0
  0
VERTEX
  8
0
 10
5.20019
 20
3.53808
 30
0.0
 40
0
 41
0
  0
VERTEX
  8
0
 10
5.06478
 20
3.53808
 30
0.0
 40
0
 41
0
  0
VERTEX
  8
0
 10
5.06478
 20
4.37185
 30
0.0
 40
0
 41
0
  0
SEQEND
 8
0
  0
POLYLINE
  8
0
 62
     0
 66
     1
 10
0
 20
0
 30
0.0
 70
     1
 40
0.75
 41
0.75
  0
VERTEX
  8
0
 10
5.06478
 20
4.37185
 30
0.0
 40
0.0104167
 41
0.0104167
  0
VERTEX
  8
0
 10
5.20019
 20
4.37185
 30
0.0
 40
0.0104167
 41
0.0104167
  0
VERTEX
  8
0
 10
5.20019
 20
3.53808
 30
0.0
 40
0.0104167
 41
0.0104167
  0
VERTEX
  8
0
 10
5.06478
 20
3.53808
 30
0.0
 40
0.0104167
 41
0.0104167
  0
VERTEX
  8
0
 10
5.06478
 20
4.37185
 30
0.0
 40
0.0104167
 41
0.0104167
  0
SEQEND
 8
0
  0
POLYLINE
  8
0
 62
     0
 66
     1
 10
0
 20
0
 30
0.0
 70
     1
 40
0.75
 41
0.75
  0
VERTEX
  8
0
 10
5.06478
 20
3.53808
 30
0.0
 40
0.0104167
 41
0.0104167
  0
VERTEX
  8
0
 10
5.0159
 20
3.53808
 30
0.0
 40
0.0104167
 41
0.0104167
  0
VERTEX
  8
0
 10
4.86936
 20
3.55117
 30
0.0
 40
0.0104167
 41
0.0104167
  0
VERTEX
  8
0
 10
4.69997
 20
3.59022
 30
0.0
 40
0.0104167
 41
0.0104167
  0
VERTEX
  8
0
 10
4.55669
 20
3.65539
 30
0.0
 40
0.0104167
 41
0.0104167
  0
VERTEX
  8
0
 10
4.43946
 20
3.74658
 30
0.0
 40
0.0104167
 41
0.0104167
  0
VERTEX
  8
0
 10
4.34825
 20
3.86382
 30
0.0
 40
0.0104167
 41
0.0104167
  0
VERTEX
  8
0
 10
4.28315
 20
4.00711
 30
0.0
 40
0.0104167
 41
0.0104167
  0
VERTEX
  8
0
 10
4.24408
 20
4.17649
 30
0.0
 40
0.0104167
 41
0.0104167
  0
VERTEX
  8
0
 10
4.23107
 20
4.32303
 30
0.0
 40
0.0104167
 41
0.0104167
  0
VERTEX
  8
0
 10
4.23107
 20
4.37185
 30
0.0
 40
0.0104167
 41
0.0104167
  0
VERTEX
  8
0
 10
5.06478
 20
4.37185
 30
0.0
 40
0.0104167
 41
0.0104167
  0
VERTEX
  8
0
 10
5.06478
 20
3.53808
 30
0.0
 40
0.0104167
 41
0.0104167
  0
SEQEND
 8
0
  0
POLYLINE
  8
0
 62
     7
 66
     1
 10
0
 20
0
 30
0.0
 70
     1
 40
0
 41
0
  0
VERTEX
  8
0
 10
5.06478
 20
5.68582
 30
0.0
 40
0
 41
0
  0
VERTEX
  8
0
 10
5.20019
 20
5.68582
 30
0.0
 40
0
 41
0
  0
VERTEX
  8
0
 10
5.20019
 20
5.03217
 30
0.0
 40
0
 41
0
  0
VERTEX
  8
0
 10
5.06478
 20
5.03217
 30
0.0
 40
0
 41
0
  0
VERTEX
  8
0
 10
5.06478
 20
5.68582
 30
0.0
 40
0
 41
0
  0
SEQEND
 8
0
  0
POLYLINE
  8
0
 62
     0
 66
     1
 10
0
 20
0
 30
0.0
 70
     1
 40
0.75
 41
0.75
  0
VERTEX
  8
0
 10
5.06478
 20
5.68582
 30
0.0
 40
0.0104167
 41
0.0104167
  0
VERTEX
  8
0
 10
5.20019
 20
5.68582
 30
0.0
 40
0.0104167
 41
0.0104167
  0
VERTEX
  8
0
 10
5.20019
 20
5.03217
 30
0.0
 40
0.0104167
 41
0.0104167
  0
VERTEX
  8
0
 10
5.06478
 20
5.03217
 30
0.0
 40
0.0104167
 41
0.0104167
  0
VERTEX
  8
0
 10
5.06478
 20
5.68582
 30
0.0
 40
0.0104167
 41
0.0104167
  0
SEQEND
 8
0
  0
POLYLINE
  8
0
 62
     7
 66
     1
 10
0
 20
0
 30
0.0
 70
     1
 40
0
 41
0
  0
VERTEX
  8
0
 10
5.06478
 20
5.68582
 30
0.0
 40
0
 41
0
  0
VERTEX
  8
0
 10
5.20019
 20
5.68582
 30
0.0
 40
0
 41
0
  0
VERTEX
  8
0
 10
5.20019
 20
5.03217
 30
0.0
 40
0
 41
0
  0
VERTEX
  8
0
 10
5.06478
 20
5.03217
 30
0.0
 40
0
 41
0
  0
VERTEX
  8
0
 10
5.06478
 20
5.68582
 30
0.0
 40
0
 41
0
  0
SEQEND
 8
0
  0
POLYLINE
  8
0
 62
     0
 66
     1
 10
0
 20
0
 30
0.0
 70
     1
 40
0.75
 41
0.75
  0
VERTEX
  8
0
 10
5.06478
 20
5.68582
 30
0.0
 40
0.0104167
 41
0.0104167
  0
VERTEX
  8
0
 10
5.20019
 20
5.68582
 30
0.0
 40
0.0104167
 41
0.0104167
  0
VERTEX
  8
0
 10
5.20019
 20
5.03217
 30
0.0
 40
0.0104167
 41
0.0104167
  0
VERTEX
  8
0
 10
5.06478
 20
5.03217
 30
0.0
 40
0.0104167
 41
0.0104167
  0
VERTEX
  8
0
 10
5.06478
 20
5.68582
 30
0.0
 40
0.0104167
 41
0.0104167
  0
SEQEND
 8
0
  0
POLYLINE
  8
0
 62
     0
 66
     1
 10
0
 20
0
 30
0.0
 70
     1
 40
0.75
 41
0.75
  0
VERTEX
  8
0
 10
5.20019
 20
5.03217
 30
0.0
 40
0.0104167
 41
0.0104167
  0
VERTEX
  8
0
 10
5.23844
 20
5.03217
 30
0.0
 40
0.0104167
 41
0.0104167
  0
VERTEX
  8
0
 10
5.35335
 20
5.04243
 30
0.0
 40
0.0104167
 41
0.0104167
  0
VERTEX
  8
0
 10
5.48617
 20
5.07303
 30
0.0
 40
0.0104167
 41
0.0104167
  0
VERTEX
  8
0
 10
5.59847
 20
5.12414
 30
0.0
 40
0.0104167
 41
0.0104167
  0
VERTEX
  8
0
 10
5.69043
 20
5.19558
 30
0.0
 40
0.0104167
 41
0.0104167
  0
VERTEX
  8
0
 10
5.76188
 20
5.28754
 30
0.0
 40
0.0104167
 41
0.0104167
  0
VERTEX
  8
0
 10
5.81299
 20
5.39985
 30
0.0
 40
0.0104167
 41
0.0104167
  0
VERTEX
  8
0
 10
5.84358
 20
5.53267
 30
0.0
 40
0.0104167
 41
0.0104167
  0
VERTEX
  8
0
 10
5.85385
 20
5.64757
 30
0.0
 40
0.0104167
 41
0.0104167
  0
VERTEX
  8
0
 10
5.85385
 20
5.68582
 30
0.0
 40
0.0104167
 41
0.0104167
  0
VERTEX
  8
0
 10
5.20019
 20
5.68582
 30
0.0
 40
0.0104167
 41
0.0104167
  0
VERTEX
  8
0
 10
5.20019
 20
5.03217
 30
0.0
 40
0.0104167
 41
0.0104167
  0
SEQEND
 8
0
  0
POLYLINE
  8
0
 62
     0
 66
     1
 10
0
 20
0
 30
0.0
 70
     1
 40
0
 41
0
  0
VERTEX
  8
0
 10
5.06478
 20
6.23682
 30
0.0
 40
0
 41
0
  0
VERTEX
  8
0
 10
1.51801
 20
6.23682
 30
0.0
 40
0
 41
0
  0
VERTEX
  8
0
 10
1.51801
 20
6.37224
 30
0.0
 40
0
 41
0
  0
VERTEX
  8
0
 10
5.20019
 20
6.37224
 30
0.0
 40
0
 41
0
  0
VERTEX
  8
0
 10
5.06478
 20
6.23682
 30
0.0
 40
0
 41
0
  0
SEQEND
 8
0
  0
POLYLINE
  8
0
 62
     0
 66
     1
 10
0
 20
0
 30
0.0
 70
     1
 40
0.15
 41
0.15
  0
VERTEX
  8
0
 10
5.06478
 20
6.23682
 30
0.0
 40
0.00208333
 41
0.00208333
  0
VERTEX
  8
0
 10
1.51801
 20
6.23682
 30
0.0
 40
0.00208333
 41
0.00208333
  0
VERTEX
  8
0
 10
1.51801
 20
6.37224
 30
0.0
 40
0.00208333
 41
0.00208333
  0
VERTEX
  8
0
 10
5.20019
 20
6.37224
 30
0.0
 40
0.00208333
 41
0.00208333
  0
VERTEX
  8
0
 10
5.06478
 20
6.23682
 30
0.0
 40
0.00208333
 41
0.00208333
  0
SEQEND
 8
0
  0
POLYLINE
  8
0
 62
     0
 66
     1
 10
0
 20
0
 30
0.0
 70
     1
 40
0
 41
0
  0
VERTEX
  8
0
 10
1.51801
 20
4.54318
 30
0.0
 40
0
 41
0
  0
VERTEX
  8
0
 10
5.20019
 20
4.54318
 30
0.0
 40
0
 41
0
  0
VERTEX
  8
0
 10
5.20019
 20
4.40776
 30
0.0
 40
0
 41
0
  0
VERTEX
  8
0
 10
1.51801
 20
4.40776
 30
0.0
 40
0
 41
0
  0
VERTEX
  8
0
 10
1.51801
 20
4.54318
 30
0.0
 40
0
 41
0
  0
SEQEND
 8
0
  0
POLYLINE
  8
0
 62
     0
 66
     1
 10
0
 20
0
 30
0.0
 70
     1
 40
0.15
 41
0.15
  0
VERTEX
  8
0
 10
1.51801
 20
4.54318
 30
0.0
 40
0.00208333
 41
0.00208333
  0
VERTEX
  8
0
 10
5.20019
 20
4.54318
 30
0.0
 40
0.00208333
 41
0.00208333
  0
VERTEX
  8
0
 10
5.20019
 20
4.40776
 30
0.0
 40
0.00208333
 41
0.00208333
  0
VERTEX
  8
0
 10
1.51801
 20
4.40776
 30
0.0
 40
0.00208333
 41
0.00208333
  0
VERTEX
  8
0
 10
1.51801
 20
4.54318
 30
0.0
 40
0.00208333
 41
0.00208333
  0
SEQEND
 8
0
  0
POLYLINE
  8
0
 62
     0
 66
     1
 10
0
 20
0
 30
0.0
 70
     1
 40
0
 41
0
  0
VERTEX
  8
0
 10
3.07699
 20
6.37224
 30
0.0
 40
0
 41
0
  0
VERTEX
  8
0
 10
3.19065
 20
6.37224
 30
0.0
 40
0
 41
0
  0
VERTEX
  8
0
 10
3.19065
 20
4.40776
 30
0.0
 40
0
 41
0
  0
VERTEX
  8
0
 10
3.07699
 20
4.40776
 30
0.0
 40
0
 41
0
  0
VERTEX
  8
0
 10
3.07699
 20
6.37224
 30
0.0
 40
0
 41
0
  0
SEQEND
 8
0
  0
POLYLINE
  8
0
 62
     0
 66
     1
 10
0
 20
0
 30
0.0
 70
     1
 40
0.15
 41
0.15
  0
VERTEX
  8
0
 10
3.07699
 20
6.37224
 30
0.0
 40
0.00208333
 41
0.00208333
  0
VERTEX
  8
0
 10
3.19065
 20
6.37224
 30
0.0
 40
0.00208333
 41
0.00208333
  0
VERTEX
  8
0
 10
3.19065
 20
4.40776
 30
0.0
 40
0.00208333
 41
0.00208333
  0
VERTEX
  8
0
 10
3.07699
 20
4.40776
 30
0.0
 40
0.00208333
 41
0.00208333
  0
VERTEX
  8
0
 10
3.07699
 20
6.37224
 30
0.0
 40
0.00208333
 41
0.00208333
  0
SEQEND
 8
0
  0
POLYLINE
  8
0
 62
     7
 66
     1
 10
0
 20
0
 30
0.0
 70
     1
 40
0
 41
0
  0
VERTEX
  8
0
 10
3.07699
 20
6.21619
 30
0.0
 40
0
 41
0
  0
VERTEX
  8
0
 10
3.19065
 20
6.21619
 30
0.0
 40
0
 41
0
  0
VERTEX
  8
0
 10
3.19065
 20
5.58963
 30
0.0
 40
0
 41
0
  0
VERTEX
  8
0
 10
3.07699
 20
5.58963
 30
0.0
 40
0
 41
0
  0
VERTEX
  8
0
 10
3.07699
 20
6.21619
 30
0.0
 40
0
 41
0
  0
SEQEND
 8
0
  0
POLYLINE
  8
0
 62
     0
 66
     1
 10
0
 20
0
 30
0.0
 70
     1
 40
0.75
 41
0.75
  0
VERTEX
  8
0
 10
3.07699
 20
6.21619
 30
0.0
 40
0.0104167
 41
0.0104167
  0
VERTEX
  8
0
 10
3.19065
 20
6.21619
 30
0.0
 40
0.0104167
 41
0.0104167
  0
VERTEX
  8
0
 10
3.19065
 20
5.58963
 30
0.0
 40
0.0104167
 41
0.0104167
  0
VERTEX
  8
0
 10
3.07699
 20
5.58963
 30
0.0
 40
0.0104167
 41
0.0104167
  0
VERTEX
  8
0
 10
3.07699
 20
6.21619
 30
0.0
 40
0.0104167
 41
0.0104167
  0
SEQEND
 8
0
  0
POLYLINE
  8
0
 62
     7
 66
     1
 10
0
 20
0
 30
0.0
 70
     1
 40
0
 41
0
  0
VERTEX
  8
0
 10
3.07699
 20
6.21619
 30
0.0
 40
0
 41
0
  0
VERTEX
  8
0
 10
3.19065
 20
6.21619
 30
0.0
 40
0
 41
0
  0
VERTEX
  8
0
 10
3.19065
 20
5.58963
 30
0.0
 40
0
 41
0
  0
VERTEX
  8
0
 10
3.07699
 20
5.58963
 30
0.0
 40
0
 41
0
  0
VERTEX
  8
0
 10
3.07699
 20
6.21619
 30
0.0
 40
0
 41
0
  0
SEQEND
 8
0
  0
POLYLINE
  8
0
 62
     0
 66
     1
 10
0
 20
0
 30
0.0
 70
     1
 40
0.75
 41
0.75
  0
VERTEX
  8
0
 10
3.07699
 20
6.21619
 30
0.0
 40
0.0104167
 41
0.0104167
  0
VERTEX
  8
0
 10
3.19065
 20
6.21619
 30
0.0
 40
0.0104167
 41
0.0104167
  0
VERTEX
  8
0
 10
3.19065
 20
5.58963
 30
0.0
 40
0.0104167
 41
0.0104167
  0
VERTEX
  8
0
 10
3.07699
 20
5.58963
 30
0.0
 40
0.0104167
 41
0.0104167
  0
VERTEX
  8
0
 10
3.07699
 20
6.21619
 30
0.0
 40
0.0104167
 41
0.0104167
  0
SEQEND
 8
0
  0
POLYLINE
  8
0
 62
     0
 66
     1
 10
0
 20
0
 30
0.0
 70
     1
 40
0.75
 41
0.75
  0
VERTEX
  8
0
 10
3.19065
 20
5.58963
 30
0.0
 40
0.0104167
 41
0.0104167
  0
VERTEX
  8
0
 10
3.22732
 20
5.58963
 30
0.0
 40
0.0104167
 41
0.0104167
  0
VERTEX
  8
0
 10
3.33746
 20
5.59944
 30
0.0
 40
0.0104167
 41
0.0104167
  0
VERTEX
  8
0
 10
3.46474
 20
5.62879
 30
0.0
 40
0.0104167
 41
0.0104167
  0
VERTEX
  8
0
 10
3.57243
 20
5.67779
 30
0.0
 40
0.0104167
 41
0.0104167
  0
VERTEX
  8
0
 10
3.66054
 20
5.74631
 30
0.0
 40
0.0104167
 41
0.0104167
  0
VERTEX
  8
0
 10
3.72906
 20
5.83442
 30
0.0
 40
0.0104167
 41
0.0104167
  0
VERTEX
  8
0
 10
3.778
 20
5.94211
 30
0.0
 40
0.0104167
 41
0.0104167
  0
VERTEX
  8
0
 10
3.80735
 20
6.06939
 30
0.0
 40
0.0104167
 41
0.0104167
  0
VERTEX
  8
0
 10
3.81717
 20
6.17953
 30
0.0
 40
0.0104167
 41
0.0104167
  0
VERTEX
  8
0
 10
3.81717
 20
6.21619
 30
0.0
 40
0.0104167
 41
0.0104167
  0
VERTEX
  8
0
 10
3.19065
 20
6.21619
 30
0.0
 40
0.0104167
 41
0.0104167
  0
VERTEX
  8
0
 10
3.19065
 20
5.58963
 30
0.0
 40
0.0104167
 41
0.0104167
  0
SEQEND
 8
0
  0
POLYLINE
  8
0
 62
     0
 66
     1
 10
0
 20
0
 30
0.0
 70
     1
 40
0
 41
0
  0
VERTEX
  8
0
 10
5.06478
 20
2.5964
 30
0.0
 40
0
 41
0
  0
VERTEX
  8
0
 10
7.13781
 20
2.5964
 30
0.0
 40
0
 41
0
  0
VERTEX
  8
0
 10
7.13781
 20
2.46099
 30
0.0
 40
0
 41
0
  0
VERTEX
  8
0
 10
5.06478
 20
2.46099
 30
0.0
 40
0
 41
0
  0
VERTEX
  8
0
 10
5.06478
 20
2.5964
 30
0.0
 40
0
 41
0
  0
SEQEND
 8
0
  0
POLYLINE
  8
0
 62
     0
 66
     1
 10
0
 20
0
 30
0.0
 70
     1
 40
0.15
 41
0.15
  0
VERTEX
  8
0
 10
5.06478
 20
2.5964
 30
0.0
 40
0.00208333
 41
0.00208333
  0
VERTEX
  8
0
 10
7.13781
 20
2.5964
 30
0.0
 40
0.00208333
 41
0.00208333
  0
VERTEX
  8
0
 10
7.13781
 20
2.46099
 30
0.0
 40
0.00208333
 41
0.00208333
  0
VERTEX
  8
0
 10
5.06478
 20
2.46099
 30
0.0
 40
0.00208333
 41
0.00208333
  0
VERTEX
  8
0
 10
5.06478
 20
2.5964
 30
0.0
 40
0.00208333
 41
0.00208333
  0
SEQEND
 8
0
  0
POLYLINE
  8
0
 62
     7
 66
     1
 10
0
 20
0
 30
0.0
 70
     1
 40
0
 41
0
  0
VERTEX
  8
0
 10
5.21918
 20
2.5964
 30
0.0
 40
0
 41
0
  0
VERTEX
  8
0
 10
6.05658
 20
2.5964
 30
0.0
 40
0
 41
0
  0
VERTEX
  8
0
 10
6.05658
 20
2.46099
 30
0.0
 40
0
 41
0
  0
VERTEX
  8
0
 10
5.21918
 20
2.46099
 30
0.0
 40
0
 41
0
  0
VERTEX
  8
0
 10
5.21918
 20
2.5964
 30
0.0
 40
0
 41
0
  0
SEQEND
 8
0
  0
POLYLINE
  8
0
 62
     0
 66
     1
 10
0
 20
0
 30
0.0
 70
     1
 40
0.75
 41
0.75
  0
VERTEX
  8
0
 10
5.21918
 20
2.5964
 30
0.0
 40
0.0104167
 41
0.0104167
  0
VERTEX
  8
0
 10
6.05658
 20
2.5964
 30
0.0
 40
0.0104167
 41
0.0104167
  0
VERTEX
  8
0
 10
6.05658
 20
2.46099
 30
0.0
 40
0.0104167
 41
0.0104167
  0
VERTEX
  8
0
 10
5.21918
 20
2.46099
 30
0.0
 40
0.0104167
 41
0.0104167
  0
VERTEX
  8
0
 10
5.21918
 20
2.5964
 30
0.0
 40
0.0104167
 41
0.0104167
  0
SEQEND
 8
0
  0
POLYLINE
  8
0
 62
     7
 66
     1
 10
0
 20
0
 30
0.0
 70
     1
 40
0
 41
0
  0
VERTEX
  8
0
 10
5.21918
 20
2.5964
 30
0.0
 40
0
 41
0
  0
VERTEX
  8
0
 10
6.05658
 20
2.5964
 30
0.0
 40
0
 41
0
  0
VERTEX
  8
0
 10
6.05658
 20
2.46099
 30
0.0
 40
0
 41
0
  0
VERTEX
  8
0
 10
5.21918
 20
2.46099
 30
0.0
 40
0
 41
0
  0
VERTEX
  8
0
 10
5.21918
 20
2.5964
 30
0.0
 40
0
 41
0
  0
SEQEND
 8
0
  0
POLYLINE
  8
0
 62
     0
 66
     1
 10
0
 20
0
 30
0.0
 70
     1
 40
0.75
 41
0.75
  0
VERTEX
  8
0
 10
5.21918
 20
2.5964
 30
0.0
 40
0.0104167
 41
0.0104167
  0
VERTEX
  8
0
 10
6.05658
 20
2.5964
 30
0.0
 40
0.0104167
 41
0.0104167
  0
VERTEX
  8
0
 10
6.05658
 20
2.46099
 30
0.0
 40
0.0104167
 41
0.0104167
  0
VERTEX
  8
0
 10
5.21918
 20
2.46099
 30
0.0
 40
0.0104167
 41
0.0104167
  0
VERTEX
  8
0
 10
5.21918
 20
2.5964
 30
0.0
 40
0.0104167
 41
0.0104167
  0
SEQEND
 8
0
  0
POLYLINE
  8
0
 62
     0
 66
     1
 10
0
 20
0
 30
0.0
 70
     1
 40
0.75
 41
0.75
  0
VERTEX
  8
0
 10
6.05658
 20
2.46099
 30
0.0
 40
0.0104167
 41
0.0104167
  0
VERTEX
  8
0
 10
6.05658
 20
2.41194
 30
0.0
 40
0.0104167
 41
0.0104167
  0
VERTEX
  8
0
 10
6.04346
 20
2.26476
 30
0.0
 40
0.0104167
 41
0.0104167
  0
VERTEX
  8
0
 10
6.00424
 20
2.09467
 30
0.0
 40
0.0104167
 41
0.0104167
  0
VERTEX
  8
0
 10
5.93881
 20
1.95074
 30
0.0
 40
0.0104167
 41
0.0104167
  0
VERTEX
  8
0
 10
5.84722
 20
1.83296
 30
0.0
 40
0.0104167
 41
0.0104167
  0
VERTEX
  8
0
 10
5.72944
 20
1.74137
 30
0.0
 40
0.0104167
 41
0.0104167
  0
VERTEX
  8
0
 10
5.5855
 20
1.67594
 30
0.0
 40
0.0104167
 41
0.0104167
  0
VERTEX
  8
0
 10
5.41542
 20
1.63672
 30
0.0
 40
0.0104167
 41
0.0104167
  0
VERTEX
  8
0
 10
5.26824
 20
1.62358
 30
0.0
 40
0.0104167
 41
0.0104167
  0
VERTEX
  8
0
 10
5.21918
 20
1.62358
 30
0.0
 40
0.0104167
 41
0.0104167
  0
VERTEX
  8
0
 10
5.21918
 20
2.46099
 30
0.0
 40
0.0104167
 41
0.0104167
  0
VERTEX
  8
0
 10
6.05658
 20
2.46099
 30
0.0
 40
0.0104167
 41
0.0104167
  0
SEQEND
 8
0
  0
POLYLINE
  8
0
 62
     0
 66
     1
 10
0
 20
0
 30
0.0
 70
     1
 40
0
 41
0
  0
VERTEX
  8
0
 10
6.00092
 20
7.42914
 30
0.0
 40
0
 41
0
  0
VERTEX
  8
0
 10
7.13781
 20
7.42914
 30
0.0
 40
0
 41
0
  0
VERTEX
  8
0
 10
7.13781
 20
7.29372
 30
0.0
 40
0
 41
0
  0
VERTEX
  8
0
 10
6.00092
 20
7.29372
 30
0.0
 40
0
 41
0
  0
VERTEX
  8
0
 10
6.00092
 20
7.42914
 30
0.0
 40
0
 41
0
  0
SEQEND
 8
0
  0
POLYLINE
  8
0
 62
     0
 66
     1
 10
0
 20
0
 30
0.0
 70
     1
 40
0.15
 41
0.15
  0
VERTEX
  8
0
 10
6.00092
 20
7.42914
 30
0.0
 40
0.00208333
 41
0.00208333
  0
VERTEX
  8
0
 10
7.13781
 20
7.42914
 30
0.0
 40
0.00208333
 41
0.00208333
  0
VERTEX
  8
0
 10
7.13781
 20
7.29372
 30
0.0
 40
0.00208333
 41
0.00208333
  0
VERTEX
  8
0
 10
6.00092
 20
7.29372
 30
0.0
 40
0.00208333
 41
0.00208333
  0
VERTEX
  8
0
 10
6.00092
 20
7.42914
 30
0.0
 40
0.00208333
 41
0.00208333
  0
SEQEND
 8
0
  0
POLYLINE
  8
0
 62
     0
 66
     1
 10
0
 20
0
 30
0.0
 70
     1
 40
0
 41
0
  0
VERTEX
  8
0
 10
5.12543
 20
9.09631
 30
0.0
 40
0
 41
0
  0
VERTEX
  8
0
 10
5.26085
 20
9.09631
 30
0.0
 40
0
 41
0
  0
VERTEX
  8
0
 10
5.26085
 20
7.31592
 30
0.0
 40
0
 41
0
  0
VERTEX
  8
0
 10
5.12543
 20
7.31592
 30
0.0
 40
0
 41
0
  0
VERTEX
  8
0
 10
5.12543
 20
9.09631
 30
0.0
 40
0
 41
0
  0
SEQEND
 8
0
  0
POLYLINE
  8
0
 62
     0
 66
     1
 10
0
 20
0
 30
0.0
 70
     1
 40
0.15
 41
0.15
  0
VERTEX
  8
0
 10
5.12543
 20
9.09631
 30
0.0
 40
0.00208333
 41
0.00208333
  0
VERTEX
  8
0
 10
5.26085
 20
9.09631
 30
0.0
 40
0.00208333
 41
0.00208333
  0
VERTEX
  8
0
 10
5.26085
 20
7.31592
 30
0.0
 40
0.00208333
 41
0.00208333
  0
VERTEX
  8
0
 10
5.12543
 20
7.31592
 30
0.0
 40
0.00208333
 41
0.00208333
  0
VERTEX
  8
0
 10
5.12543
 20
9.09631
 30
0.0
 40
0.00208333
 41
0.00208333
  0
SEQEND
 8
0
  0
POLYLINE
  8
0
 62
     7
 66
     1
 10
0
 20
0
 30
0.0
 70
     1
 40
0
 41
0
  0
VERTEX
  8
0
 10
4.37549
 20
4.99094
 30
0.0
 40
0
 41
0
  0
VERTEX
  8
0
 10
5.00049
 20
4.99094
 30
0.0
 40
0
 41
0
  0
VERTEX
  8
0
 10
5.00049
 20
4.54617
 30
0.0
 40
0
 41
0
  0
VERTEX
  8
0
 10
4.37549
 20
4.54617
 30
0.0
 40
0
 41
0
  0
VERTEX
  8
0
 10
4.37549
 20
4.99094
 30
0.0
 40
0
 41
0
  0
SEQEND
 8
0
  0
POLYLINE
  8
0
 62
     0
 66
     1
 10
0
 20
0
 30
0.0
 70
     1
 40
0.75
 41
0.75
  0
VERTEX
  8
0
 10
4.37549
 20
4.99094
 30
0.0
 40
0.0104167
 41
0.0104167
  0
VERTEX
  8
0
 10
5.00049
 20
4.99094
 30
0.0
 40
0.0104167
 41
0.0104167
  0
VERTEX
  8
0
 10
5.00049
 20
4.54617
 30
0.0
 40
0.0104167
 41
0.0104167
  0
VERTEX
  8
0
 10
4.37549
 20
4.54617
 30
0.0
 40
0.0104167
 41
0.0104167
  0
VERTEX
  8
0
 10
4.37549
 20
4.99094
 30
0.0
 40
0.0104167
 41
0.0104167
  0
SEQEND
 8
0
  0
POLYLINE
  8
0
 62
     7
 66
     1
 10
0
 20
0
 30
0.0
 70
     1
 40
0
 41
0
  0
VERTEX
  8
0
 10
4.42757
 20
4.95167
 30
0.0
 40
0
 41
0
  0
VERTEX
  8
0
 10
4.9484
 20
4.95167
 30
0.0
 40
0
 41
0
  0
VERTEX
  8
0
 10
4.9484
 20
4.64719
 30
0.0
 40
0
 41
0
  0
VERTEX
  8
0
 10
4.42757
 20
4.64719
 30
0.0
 40
0
 41
0
  0
VERTEX
  8
0
 10
4.42757
 20
4.95167
 30
0.0
 40
0
 41
0
  0
SEQEND
 8
0
  0
POLYLINE
  8
0
 62
     0
 66
     1
 10
0
 20
0
 30
0.0
 70
     1
 40
0.75
 41
0.75
  0
VERTEX
  8
0
 10
4.42757
 20
4.95167
 30
0.0
 40
0.0104167
 41
0.0104167
  0
VERTEX
  8
0
 10
4.9484
 20
4.95167
 30
0.0
 40
0.0104167
 41
0.0104167
  0
VERTEX
  8
0
 10
4.9484
 20
4.64719
 30
0.0
 40
0.0104167
 41
0.0104167
  0
VERTEX
  8
0
 10
4.42757
 20
4.64719
 30
0.0
 40
0.0104167
 41
0.0104167
  0
VERTEX
  8
0
 10
4.42757
 20
4.95167
 30
0.0
 40
0.0104167
 41
0.0104167
  0
SEQEND
 8
0
  0
POLYLINE
  8
0
 62
     7
 66
     1
 10
0
 20
0
 30
0.0
 70
     1
 40
0
 41
0
  0
VERTEX
  8
0
 10
4.65153
 20
4.78483
 30
0.0
 40
0
 41
0
  0
VERTEX
  8
0
 10
4.65153
 20
4.79129
 30
0.0
 40
0
 41
0
  0
VERTEX
  8
0
 10
4.66217
 20
4.81065
 30
0.0
 40
0
 41
0
  0
VERTEX
  8
0
 10
4.68153
 20
4.82129
 30
0.0
 40
0
 41
0
  0
VERTEX
  8
0
 10
4.68799
 20
4.82129
 30
0.0
 40
0
 41
0
  0
VERTEX
  8
0
 10
4.69439
 20
4.82129
 30
0.0
 40
0
 41
0
  0
VERTEX
  8
0
 10
4.71376
 20
4.81065
 30
0.0
 40
0
 41
0
  0
VERTEX
  8
0
 10
4.72444
 20
4.79129
 30
0.0
 40
0
 41
0
  0
VERTEX
  8
0
 10
4.72444
 20
4.78483
 30
0.0
 40
0
 41
0
  0
VERTEX
  8
0
 10
4.72444
 20
4.77843
 30
0.0
 40
0
 41
0
  0
VERTEX
  8
0
 10
4.71376
 20
4.75906
 30
0.0
 40
0
 41
0
  0
VERTEX
  8
0
 10
4.69439
 20
4.74837
 30
0.0
 40
0
 41
0
  0
VERTEX
  8
0
 10
4.68799
 20
4.74837
 30
0.0
 40
0
 41
0
  0
VERTEX
  8
0
 10
4.68153
 20
4.74837
 30
0.0
 40
0
 41
0
  0
VERTEX
  8
0
 10
4.66217
 20
4.75906
 30
0.0
 40
0
 41
0
  0
VERTEX
  8
0
 10
4.65153
 20
4.77843
 30
0.0
 40
0
 41
0
  0
VERTEX
  8
0
 10
4.65153
 20
4.78483
 30
0.0
 40
0
 41
0
  0
SEQEND
 8
0
  0
POLYLINE
  8
0
 62
     0
 66
     1
 10
0
 20
0
 30
0.0
 70
     1
 40
0.6
 41
0.6
  0
VERTEX
  8
0
 10
4.65153
 20
4.78483
 30
0.0
 40
0.00833333
 41
0.00833333
  0
VERTEX
  8
0
 10
4.65153
 20
4.79129
 30
0.0
 40
0.00833333
 41
0.00833333
  0
VERTEX
  8
0
 10
4.66217
 20
4.81065
 30
0.0
 40
0.00833333
 41
0.00833333
  0
VERTEX
  8
0
 10
4.68153
 20
4.82129
 30
0.0
 40
0.00833333
 41
0.00833333
  0
VERTEX
  8
0
 10
4.68799
 20
4.82129
 30
0.0
 40
0.00833333
 41
0.00833333
  0
VERTEX
  8
0
 10
4.69439
 20
4.82129
 30
0.0
 40
0.00833333
 41
0.00833333
  0
VERTEX
  8
0
 10
4.71376
 20
4.81065
 30
0.0
 40
0.00833333
 41
0.00833333
  0
VERTEX
  8
0
 10
4.72444
 20
4.79129
 30
0.0
 40
0.00833333
 41
0.00833333
  0
VERTEX
  8
0
 10
4.72444
 20
4.78483
 30
0.0
 40
0.00833333
 41
0.00833333
  0
VERTEX
  8
0
 10
4.72444
 20
4.77843
 30
0.0
 40
0.00833333
 41
0.00833333
  0
VERTEX
  8
0
 10
4.71376
 20
4.75906
 30
0.0
 40
0.00833333
 41
0.00833333
  0
VERTEX
  8
0
 10
4.69439
 20
4.74837
 30
0.0
 40
0.00833333
 41
0.00833333
  0
VERTEX
  8
0
 10
4.68799
 20
4.74837
 30
0.0
 40
0.00833333
 41
0.00833333
  0
VERTEX
  8
0
 10
4.68153
 20
4.74837
 30
0.0
 40
0.00833333
 41
0.00833333
  0
VERTEX
  8
0
 10
4.66217
 20
4.75906
 30
0.0
 40
0.00833333
 41
0.00833333
  0
VERTEX
  8
0
 10
4.65153
 20
4.77843
 30
0.0
 40
0.00833333
 41
0.00833333
  0
VERTEX
  8
0
 10
4.65153
 20
4.78483
 30
0.0
 40
0.00833333
 41
0.00833333
  0
SEQEND
 8
0
  0
POLYLINE
  8
0
 62
     7
 66
     1
 10
0
 20
0
 30
0.0
 70
     1
 40
0
 41
0
  0
VERTEX
  8
0
 10
4.66715
 20
4.78483
 30
0.0
 40
0
 41
0
  0
VERTEX
  8
0
 10
4.66715
 20
4.78851
 30
0.0
 40
0
 41
0
  0
VERTEX
  8
0
 10
4.67324
 20
4.79958
 30
0.0
 40
0
 41
0
  0
VERTEX
  8
0
 10
4.68431
 20
4.80567
 30
0.0
 40
0
 41
0
  0
VERTEX
  8
0
 10
4.68799
 20
4.80567
 30
0.0
 40
0
 41
0
  0
VERTEX
  8
0
 10
4.69162
 20
4.80567
 30
0.0
 40
0
 41
0
  0
VERTEX
  8
0
 10
4.70269
 20
4.79958
 30
0.0
 40
0
 41
0
  0
VERTEX
  8
0
 10
4.70882
 20
4.78851
 30
0.0
 40
0
 41
0
  0
VERTEX
  8
0
 10
4.70882
 20
4.78483
 30
0.0
 40
0
 41
0
  0
VERTEX
  8
0
 10
4.70882
 20
4.78119
 30
0.0
 40
0
 41
0
  0
VERTEX
  8
0
 10
4.70269
 20
4.77013
 30
0.0
 40
0
 41
0
  0
VERTEX
  8
0
 10
4.69162
 20
4.764
 30
0.0
 40
0
 41
0
  0
VERTEX
  8
0
 10
4.68799
 20
4.764
 30
0.0
 40
0
 41
0
  0
VERTEX
  8
0
 10
4.68431
 20
4.764
 30
0.0
 40
0
 41
0
  0
VERTEX
  8
0
 10
4.67324
 20
4.77013
 30
0.0
 40
0
 41
0
  0
VERTEX
  8
0
 10
4.66715
 20
4.78119
 30
0.0
 40
0
 41
0
  0
VERTEX
  8
0
 10
4.66715
 20
4.78483
 30
0.0
 40
0
 41
0
  0
SEQEND
 8
0
  0
POLYLINE
  8
0
 62
     0
 66
     1
 10
0
 20
0
 30
0.0
 70
     1
 40
0.6
 41
0.6
  0
VERTEX
  8
0
 10
4.66715
 20
4.78483
 30
0.0
 40
0.00833333
 41
0.00833333
  0
VERTEX
  8
0
 10
4.66715
 20
4.78851
 30
0.0
 40
0.00833333
 41
0.00833333
  0
VERTEX
  8
0
 10
4.67324
 20
4.79958
 30
0.0
 40
0.00833333
 41
0.00833333
  0
VERTEX
  8
0
 10
4.68431
 20
4.80567
 30
0.0
 40
0.00833333
 41
0.00833333
  0
VERTEX
  8
0
 10
4.68799
 20
4.80567
 30
0.0
 40
0.00833333
 41
0.00833333
  0
VERTEX
  8
0
 10
4.69162
 20
4.80567
 30
0.0
 40
0.00833333
 41
0.00833333
  0
VERTEX
  8
0
 10
4.70269
 20
4.79958
 30
0.0
 40
0.00833333
 41
0.00833333
  0
VERTEX
  8
0
 10
4.70882
 20
4.78851
 30
0.0
 40
0.00833333
 41
0.00833333
  0
VERTEX
  8
0
 10
4.70882
 20
4.78483
 30
0.0
 40
0.00833333
 41
0.00833333
  0
VERTEX
  8
0
 10
4.70882
 20
4.78119
 30
0.0
 40
0.00833333
 41
0.00833333
  0
VERTEX
  8
0
 10
4.70269
 20
4.77013
 30
0.0
 40
0.00833333
 41
0.00833333
  0
VERTEX
  8
0
 10
4.69162
 20
4.764
 30
0.0
 40
0.00833333
 41
0.00833333
  0
VERTEX
  8
0
 10
4.68799
 20
4.764
 30
0.0
 40
0.00833333
 41
0.00833333
  0
VERTEX
  8
0
 10
4.68431
 20
4.764
 30
0.0
 40
0.00833333
 41
0.00833333
  0
VERTEX
  8
0
 10
4.67324
 20
4.77013
 30
0.0
 40
0.00833333
 41
0.00833333
  0
VERTEX
  8
0
 10
4.66715
 20
4.78119
 30
0.0
 40
0.00833333
 41
0.00833333
  0
VERTEX
  8
0
 10
4.66715
 20
4.78483
 30
0.0
 40
0.00833333
 41
0.00833333
  0
SEQEND
 8
0
  0
POLYLINE
  8
0
 62
     7
 66
     1
 10
0
 20
0
 30
0.0
 70
     1
 40
0
 41
0
  0
VERTEX
  8
0
 10
4.65674
 20
4.72906
 30
0.0
 40
0
 41
0
  0
VERTEX
  8
0
 10
4.71924
 20
4.72906
 30
0.0
 40
0
 41
0
  0
VERTEX
  8
0
 10
4.71924
 20
4.58322
 30
0.0
 40
0
 41
0
  0
VERTEX
  8
0
 10
4.65674
 20
4.58322
 30
0.0
 40
0
 41
0
  0
VERTEX
  8
0
 10
4.65674
 20
4.72906
 30
0.0
 40
0
 41
0
  0
SEQEND
 8
0
  0
POLYLINE
  8
0
 62
     0
 66
     1
 10
0
 20
0
 30
0.0
 70
     1
 40
0.75
 41
0.75
  0
VERTEX
  8
0
 10
4.65674
 20
4.72906
 30
0.0
 40
0.0104167
 41
0.0104167
  0
VERTEX
  8
0
 10
4.71924
 20
4.72906
 30
0.0
 40
0.0104167
 41
0.0104167
  0
VERTEX
  8
0
 10
4.71924
 20
4.58322
 30
0.0
 40
0.0104167
 41
0.0104167
  0
VERTEX
  8
0
 10
4.65674
 20
4.58322
 30
0.0
 40
0.0104167
 41
0.0104167
  0
VERTEX
  8
0
 10
4.65674
 20
4.72906
 30
0.0
 40
0.0104167
 41
0.0104167
  0
SEQEND
 8
0
  0
POLYLINE
  8
0
 62
     7
 66
     1
 10
0
 20
0
 30
0.0
 70
     1
 40
0
 41
0
  0
VERTEX
  8
0
 10
6.30583
 20
4.98346
 30
0.0
 40
0
 41
0
  0
VERTEX
  8
0
 10
6.93083
 20
4.98346
 30
0.0
 40
0
 41
0
  0
VERTEX
  8
0
 10
6.93083
 20
4.35846
 30
0.0
 40
0
 41
0
  0
VERTEX
  8
0
 10
6.30583
 20
4.35846
 30
0.0
 40
0
 41
0
  0
VERTEX
  8
0
 10
6.30583
 20
4.98346
 30
0.0
 40
0
 41
0
  0
SEQEND
 8
0
  0
POLYLINE
  8
0
 62
     0
 66
     1
 10
0
 20
0
 30
0.0
 70
     1
 40
0.75
 41
0.75
  0
VERTEX
  8
0
 10
6.30583
 20
4.98346
 30
0.0
 40
0.0104167
 41
0.0104167
  0
VERTEX
  8
0
 10
6.30583
 20
4.35846
 30
0.0
 40
0.0104167
 41
0.0104167
  0
VERTEX
  8
0
 10
6.93083
 20
4.35846
 30
0.0
 40
0.0104167
 41
0.0104167
  0
VERTEX
  8
0
 10
6.93083
 20
4.98346
 30
0.0
 40
0.0104167
 41
0.0104167
  0
VERTEX
  8
0
 10
6.30583
 20
4.98346
 30
0.0
 40
0.0104167
 41
0.0104167
  0
SEQEND
 8
0
  0
POLYLINE
  8
0
 62
     253
 66
     1
 10
0
 20
0
 30
0.0
 40
0.75
 41
0.75
  0
VERTEX
  8
0
 10
6.61833
 20
4.98346
 30
0.0
 40
0.0104167
 41
0.0104167
  0
VERTEX
  8
0
 10
6.61833
 20
4.35846
 30
0.0
 40
0.0104167
 41
0.0104167
  0
SEQEND
 8
0
  0
POLYLINE
  8
0
 62
     7
 66
     1
 10
0
 20
0
 30
0.0
 70
     1
 40
0
 41
0
  0
VERTEX
  8
0
 10
6.30583
 20
4.35846
 30
0.0
 40
0
 41
0
  0
VERTEX
  8
0
 10
6.93083
 20
4.35846
 30
0.0
 40
0
 41
0
  0
VERTEX
  8
0
 10
6.93083
 20
3.73346
 30
0.0
 40
0
 41
0
  0
VERTEX
  8
0
 10
6.30583
 20
3.73346
 30
0.0
 40
0
 41
0
  0
VERTEX
  8
0
 10
6.30583
 20
4.35846
 30
0.0
 40
0
 41
0
  0
SEQEND
 8
0
  0
POLYLINE
  8
0
 62
     0
 66
     1
 10
0
 20
0
 30
0.0
 70
     1
 40
0.75
 41
0.75
  0
VERTEX
  8
0
 10
6.30583
 20
4.35846
 30
0.0
 40
0.0104167
 41
0.0104167
  0
VERTEX
  8
0
 10
6.30583
 20
3.73346
 30
0.0
 40
0.0104167
 41
0.0104167
  0
VERTEX
  8
0
 10
6.93083
 20
3.73346
 30
0.0
 40
0.0104167
 41
0.0104167
  0
VERTEX
  8
0
 10
6.93083
 20
4.35846
 30
0.0
 40
0.0104167
 41
0.0104167
  0
VERTEX
  8
0
 10
6.30583
 20
4.35846
 30
0.0
 40
0.0104167
 41
0.0104167
  0
SEQEND
 8
0
  0
POLYLINE
  8
0
 62
     253
 66
     1
 10
0
 20
0
 30
0.0
 40
0.75
 41
0.75
  0
VERTEX
  8
0
 10
6.61833
 20
4.35846
 30
0.0
 40
0.0104167
 41
0.0104167
  0
VERTEX
  8
0
 10
6.61833
 20
3.73346
 30
0.0
 40
0.0104167
 41
0.0104167
  0
SEQEND
 8
0
  0
POLYLINE
  8
0
 62
     7
 66
     1
 10
0
 20
0
 30
0.0
 70
     1
 40
0
 41
0
  0
VERTEX
  8
0
 10
4.52208
 20
6.23161
 30
0.0
 40
0
 41
0
  0
VERTEX
  8
0
 10
4.93864
 20
6.23161
 30
0.0
 40
0
 41
0
  0
VERTEX
  8
0
 10
4.93864
 20
6.04432
 30
0.0
 40
0
 41
0
  0
VERTEX
  8
0
 10
4.52208
 20
6.04432
 30
0.0
 40
0
 41
0
  0
VERTEX
  8
0
 10
4.52208
 20
6.23161
 30
0.0
 40
0
 41
0
  0
SEQEND
 8
0
  0
POLYLINE
  8
0
 62
     0
 66
     1
 10
0
 20
0
 30
0.0
 70
     1
 40
0.75
 41
0.75
  0
VERTEX
  8
0
 10
4.52208
 20
6.23161
 30
0.0
 40
0.0104167
 41
0.0104167
  0
VERTEX
  8
0
 10
4.93864
 20
6.23161
 30
0.0
 40
0.0104167
 41
0.0104167
  0
VERTEX
  8
0
 10
4.93864
 20
6.04432
 30
0.0
 40
0.0104167
 41
0.0104167
  0
VERTEX
  8
0
 10
4.52208
 20
6.04432
 30
0.0
 40
0.0104167
 41
0.0104167
  0
VERTEX
  8
0
 10
4.52208
 20
6.23161
 30
0.0
 40
0.0104167
 41
0.0104167
  0
SEQEND
 8
0
  0
POLYLINE
  8
0
 62
     7
 66
     1
 10
0
 20
0
 30
0.0
 70
     1
 40
0
 41
0
  0
VERTEX
  8
0
 10
4.93864
 20
5.77604
 30
0.0
 40
0
 41
0
  0
VERTEX
  8
0
 10
4.93864
 20
5.77604
 30
0.0
 40
0
 41
0
  0
VERTEX
  8
0
 10
4.93869
 20
5.76432
 30
0.0
 40
0
 41
0
  0
VERTEX
  8
0
 10
4.93707
 20
5.73335
 30
0.0
 40
0
 41
0
  0
VERTEX
  8
0
 10
4.93093
 20
5.68951
 30
0.0
 40
0
 41
0
  0
VERTEX
  8
0
 10
4.91749
 20
5.63926
 30
0.0
 40
0
 41
0
  0
VERTEX
  8
0
 10
4.89393
 20
5.58903
 30
0.0
 40
0
 41
0
  0
VERTEX
  8
0
 10
4.85747
 20
5.54519
 30
0.0
 40
0
 41
0
  0
VERTEX
  8
0
 10
4.80528
 20
5.51421
 30
0.0
 40
0
 41
0
  0
VERTEX
  8
0
 10
4.75222
 20
5.50244
 30
0.0
 40
0
 41
0
  0
VERTEX
  8
0
 10
4.7346
 20
5.50244
 30
0.0
 40
0
 41
0
  0
VERTEX
  8
0
 10
4.71625
 20
5.50244
 30
0.0
 40
0
 41
0
  0
VERTEX
  8
0
 10
4.6614
 20
5.51421
 30
0.0
 40
0
 41
0
  0
VERTEX
  8
0
 10
4.60736
 20
5.54519
 30
0.0
 40
0
 41
0
  0
VERTEX
  8
0
 10
4.56956
 20
5.58903
 30
0.0
 40
0
 41
0
  0
VERTEX
  8
0
 10
4.54508
 20
5.63926
 30
0.0
 40
0
 41
0
  0
VERTEX
  8
0
 10
4.53108
 20
5.68951
 30
0.0
 40
0
 41
0
  0
VERTEX
  8
0
 10
4.52468
 20
5.73335
 30
0.0
 40
0
 41
0
  0
VERTEX
  8
0
 10
4.52294
 20
5.76432
 30
0.0
 40
0
 41
0
  0
VERTEX
  8
0
 10
4.52306
 20
5.77604
 30
0.0
 40
0
 41
0
  0
VERTEX
  8
0
 10
4.52306
 20
5.77604
 30
0.0
 40
0
 41
0
  0
VERTEX
  8
0
 10
4.52203
 20
6.04432
 30
0.0
 40
0
 41
0
  0
VERTEX
  8
0
 10
4.93864
 20
6.04432
 30
0.0
 40
0
 41
0
  0
VERTEX
  8
0
 10
4.93864
 20
5.77604
 30
0.0
 40
0
 41
0
  0
SEQEND
 8
0
  0
POLYLINE
  8
0
 62
     0
 66
     1
 10
0
 20
0
 30
0.0
 70
     1
 40
0.75
 41
0.75
  0
VERTEX
  8
0
 10
4.93864
 20
5.77604
 30
0.0
 40
0.0104167
 41
0.0104167
  0
VERTEX
  8
0
 10
4.93864
 20
5.77604
 30
0.0
 40
0.0104167
 41
0.0104167
  0
VERTEX
  8
0
 10
4.93869
 20
5.76432
 30
0.0
 40
0.0104167
 41
0.0104167
  0
VERTEX
  8
0
 10
4.93707
 20
5.73335
 30
0.0
 40
0.0104167
 41
0.0104167
  0
VERTEX
  8
0
 10
4.93093
 20
5.68951
 30
0.0
 40
0.0104167
 41
0.0104167
  0
VERTEX
  8
0
 10
4.91749
 20
5.63926
 30
0.0
 40
0.0104167
 41
0.0104167
  0
VERTEX
  8
0
 10
4.89393
 20
5.58903
 30
0.0
 40
0.0104167
 41
0.0104167
  0
VERTEX
  8
0
 10
4.85747
 20
5.54519
 30
0.0
 40
0.0104167
 41
0.0104167
  0
VERTEX
  8
0
 10
4.80528
 20
5.51421
 30
0.0
 40
0.0104167
 41
0.0104167
  0
VERTEX
  8
0
 10
4.75222
 20
5.50244
 30
0.0
 40
0.0104167
 41
0.0104167
  0
VERTEX
  8
0
 10
4.7346
 20
5.50244
 30
0.0
 40
0.0104167
 41
0.0104167
  0
VERTEX
  8
0
 10
4.71625
 20
5.50244
 30
0.0
 40
0.0104167
 41
0.0104167
  0
VERTEX
  8
0
 10
4.6614
 20
5.51421
 30
0.0
 40
0.0104167
 41
0.0104167
  0
VERTEX
  8
0
 10
4.60736
 20
5.54519
 30
0.0
 40
0.0104167
 41
0.0104167
  0
VERTEX
  8
0
 10
4.56956
 20
5.58903
 30
0.0
 40
0.0104167
 41
0.0104167
  0
VERTEX
  8
0
 10
4.54508
 20
5.63926
 30
0.0
 40
0.0104167
 41
0.0104167
  0
VERTEX
  8
0
 10
4.53108
 20
5.68951
 30
0.0
 40
0.0104167
 41
0.0104167
  0
VERTEX
  8
0
 10
4.52468
 20
5.73335
 30
0.0
 40
0.0104167
 41
0.0104167
  0
VERTEX
  8
0
 10
4.52294
 20
5.76432
 30
0.0
 40
0.0104167
 41
0.0104167
  0
VERTEX
  8
0
 10
4.52306
 20
5.77604
 30
0.0
 40
0.0104167
 41
0.0104167
  0
VERTEX
  8
0
 10
4.52306
 20
5.77604
 30
0.0
 40
0.0104167
 41
0.0104167
  0
VERTEX
  8
0
 10
4.52203
 20
6.04432
 30
0.0
 40
0.0104167
 41
0.0104167
  0
VERTEX
  8
0
 10
4.93864
 20
6.04432
 30
0.0
 40
0.0104167
 41
0.0104167
  0
VERTEX
  8
0
 10
4.93864
 20
5.77604
 30
0.0
 40
0.0104167
 41
0.0104167
  0
SEQEND
 8
0
  0
POLYLINE
  8
0
 62
     7
 66
     1
 10
0
 20
0
 30
0.0
 70
     1
 40
0
 41
0
  0
VERTEX
  8
0
 10
4.69721
 20
6.15375
 30
0.0
 40
0
 41
0
  0
VERTEX
  8
0
 10
4.76346
 20
6.15375
 30
0.0
 40
0
 41
0
  0
VERTEX
  8
0
 10
4.76346
 20
6.12218
 30
0.0
 40
0
 41
0
  0
VERTEX
  8
0
 10
4.69721
 20
6.12218
 30
0.0
 40
0
 41
0
  0
VERTEX
  8
0
 10
4.69721
 20
6.15375
 30
0.0
 40
0
 41
0
  0
SEQEND
 8
0
  0
POLYLINE
  8
0
 62
     0
 66
     1
 10
0
 20
0
 30
0.0
 70
     1
 40
0.75
 41
0.75
  0
VERTEX
  8
0
 10
4.69721
 20
6.15375
 30
0.0
 40
0.0104167
 41
0.0104167
  0
VERTEX
  8
0
 10
4.76346
 20
6.15375
 30
0.0
 40
0.0104167
 41
0.0104167
  0
VERTEX
  8
0
 10
4.76346
 20
6.12218
 30
0.0
 40
0.0104167
 41
0.0104167
  0
VERTEX
  8
0
 10
4.69721
 20
6.12218
 30
0.0
 40
0.0104167
 41
0.0104167
  0
VERTEX
  8
0
 10
4.69721
 20
6.15375
 30
0.0
 40
0.0104167
 41
0.0104167
  0
SEQEND
 8
0
  0
POLYLINE
  8
0
 62
     7
 66
     1
 10
0
 20
0
 30
0.0
 70
     1
 40
0
 41
0
  0
VERTEX
  8
0
 10
3.85113
 20
6.23682
 30
0.0
 40
0
 41
0
  0
VERTEX
  8
0
 10
4.42339
 20
6.23682
 30
0.0
 40
0
 41
0
  0
VERTEX
  8
0
 10
4.42339
 20
5.65261
 30
0.0
 40
0
 41
0
  0
VERTEX
  8
0
 10
3.85113
 20
5.65261
 30
0.0
 40
0
 41
0
  0
VERTEX
  8
0
 10
3.85113
 20
6.23682
 30
0.0
 40
0
 41
0
  0
SEQEND
 8
0
  0
POLYLINE
  8
0
 62
     0
 66
     1
 10
0
 20
0
 30
0.0
 70
     1
 40
0.686775
 41
0.686775
  0
VERTEX
  8
0
 10
3.85113
 20
6.23682
 30
0.0
 40
0.00953854
 41
0.00953854
  0
VERTEX
  8
0
 10
4.42339
 20
6.23682
 30
0.0
 40
0.00953854
 41
0.00953854
  0
VERTEX
  8
0
 10
4.42339
 20
5.65261
 30
0.0
 40
0.00953854
 41
0.00953854
  0
VERTEX
  8
0
 10
3.85113
 20
5.65261
 30
0.0
 40
0.00953854
 41
0.00953854
  0
VERTEX
  8
0
 10
3.85113
 20
6.23682
 30
0.0
 40
0.00953854
 41
0.00953854
  0
SEQEND
 8
0
  0
POLYLINE
  8
0
 62
     0
 66
     1
 10
0
 20
0
 30
0.0
 40
0.686775
 41
0.686775
  0
VERTEX
  8
0
 10
3.85113
 20
6.23682
 30
0.0
 40
0.00953854
 41
0.00953854
  0
VERTEX
  8
0
 10
4.13824
 20
5.84928
 30
0.0
 40
0.00953854
 41
0.00953854
  0
VERTEX
  8
0
 10
4.13824
 20
6.0479
 30
0.0
 40
0.00953854
 41
0.00953854
  0
VERTEX
  8
0
 10
4.42247
 20
5.65261
 30
0.0
 40
0.00953854
 41
0.00953854
  0
SEQEND
 8
0
  0
POLYLINE
  8
0
 62
     7
 66
     1
 10
0
 20
0
 30
0.0
 70
     1
 40
0
 41
0
  0
VERTEX
  8
0
 10
3.5619
 20
4.61199
 30
0.0
 40
0
 41
0
  0
VERTEX
  8
0
 10
3.67854
 20
4.61199
 30
0.0
 40
0
 41
0
  0
VERTEX
  8
0
 10
3.67854
 20
4.54844
 30
0.0
 40
0
 41
0
  0
VERTEX
  8
0
 10
3.5619
 20
4.54844
 30
0.0
 40
0
 41
0
  0
VERTEX
  8
0
 10
3.5619
 20
4.61199
 30
0.0
 40
0
 41
0
  0
SEQEND
 8
0
  0
POLYLINE
  8
0
 62
     0
 66
     1
 10
0
 20
0
 30
0.0
 70
     1
 40
0.75
 41
0.75
  0
VERTEX
  8
0
 10
3.5619
 20
4.61199
 30
0.0
 40
0.0104167
 41
0.0104167
  0
VERTEX
  8
0
 10
3.67854
 20
4.61199
 30
0.0
 40
0.0104167
 41
0.0104167
  0
VERTEX
  8
0
 10
3.67854
 20
4.54844
 30
0.0
 40
0.0104167
 41
0.0104167
  0
VERTEX
  8
0
 10
3.5619
 20
4.54844
 30
0.0
 40
0.0104167
 41
0.0104167
  0
VERTEX
  8
0
 10
3.5619
 20
4.61199
 30
0.0
 40
0.0104167
 41
0.0104167
  0
SEQEND
 8
0
  0
POLYLINE
  8
0
 62
     7
 66
     1
 10
0
 20
0
 30
0.0
 70
     1
 40
0
 41
0
  0
VERTEX
  8
0
 10
3.4171
 20
4.61199
 30
0.0
 40
0
 41
0
  0
VERTEX
  8
0
 10
3.53375
 20
4.61199
 30
0.0
 40
0
 41
0
  0
VERTEX
  8
0
 10
3.53375
 20
4.54844
 30
0.0
 40
0
 41
0
  0
VERTEX
  8
0
 10
3.4171
 20
4.54844
 30
0.0
 40
0
 41
0
  0
VERTEX
  8
0
 10
3.4171
 20
4.61199
 30
0.0
 40
0
 41
0
  0
SEQEND
 8
0
  0
POLYLINE
  8
0
 62
     0
 66
     1
 10
0
 20
0
 30
0.0
 70
     1
 40
0.75
 41
0.75
  0
VERTEX
  8
0
 10
3.4171
 20
4.61199
 30
0.0
 40
0.0104167
 41
0.0104167
  0
VERTEX
  8
0
 10
3.53375
 20
4.61199
 30
0.0
 40
0.0104167
 41
0.0104167
  0
VERTEX
  8
0
 10
3.53375
 20
4.54844
 30
0.0
 40
0.0104167
 41
0.0104167
  0
VERTEX
  8
0
 10
3.4171
 20
4.54844
 30
0.0
 40
0.0104167
 41
0.0104167
  0
VERTEX
  8
0
 10
3.4171
 20
4.61199
 30
0.0
 40
0.0104167
 41
0.0104167
  0
SEQEND
 8
0
  0
POLYLINE
  8
0
 62
     7
 66
     1
 10
0
 20
0
 30
0.0
 70
     1
 40
0
 41
0
  0
VERTEX
  8
0
 10
3.38271
 20
4.61199
 30
0.0
 40
0
 41
0
  0
VERTEX
  8
0
 10
3.41812
 20
4.61199
 30
0.0
 40
0
 41
0
  0
VERTEX
  8
0
 10
3.41812
 20
4.54844
 30
0.0
 40
0
 41
0
  0
VERTEX
  8
0
 10
3.38271
 20
4.54844
 30
0.0
 40
0
 41
0
  0
VERTEX
  8
0
 10
3.38271
 20
4.61199
 30
0.0
 40
0
 41
0
  0
SEQEND
 8
0
  0
POLYLINE
  8
0
 62
     0
 66
     1
 10
0
 20
0
 30
0.0
 70
     1
 40
0.75
 41
0.75
  0
VERTEX
  8
0
 10
3.38271
 20
4.61199
 30
0.0
 40
0.0104167
 41
0.0104167
  0
VERTEX
  8
0
 10
3.41812
 20
4.61199
 30
0.0
 40
0.0104167
 41
0.0104167
  0
VERTEX
  8
0
 10
3.41812
 20
4.54844
 30
0.0
 40
0.0104167
 41
0.0104167
  0
VERTEX
  8
0
 10
3.38271
 20
4.54844
 30
0.0
 40
0.0104167
 41
0.0104167
  0
VERTEX
  8
0
 10
3.38271
 20
4.61199
 30
0.0
 40
0.0104167
 41
0.0104167
  0
SEQEND
 8
0
  0
POLYLINE
  8
0
 62
     7
 66
     1
 10
0
 20
0
 30
0.0
 70
     1
 40
0
 41
0
  0
VERTEX
  8
0
 10
3.67854
 20
4.61199
 30
0.0
 40
0
 41
0
  0
VERTEX
  8
0
 10
3.71186
 20
4.61199
 30
0.0
 40
0
 41
0
  0
VERTEX
  8
0
 10
3.71186
 20
4.54844
 30
0.0
 40
0
 41
0
  0
VERTEX
  8
0
 10
3.67854
 20
4.54844
 30
0.0
 40
0
 41
0
  0
VERTEX
  8
0
 10
3.67854
 20
4.61199
 30
0.0
 40
0
 41
0
  0
SEQEND
 8
0
  0
POLYLINE
  8
0
 62
     0
 66
     1
 10
0
 20
0
 30
0.0
 70
     1
 40
0.75
 41
0.75
  0
VERTEX
  8
0
 10
3.67854
 20
4.61199
 30
0.0
 40
0.0104167
 41
0.0104167
  0
VERTEX
  8
0
 10
3.71186
 20
4.61199
 30
0.0
 40
0.0104167
 41
0.0104167
  0
VERTEX
  8
0
 10
3.71186
 20
4.54844
 30
0.0
 40
0.0104167
 41
0.0104167
  0
VERTEX
  8
0
 10
3.67854
 20
4.54844
 30
0.0
 40
0.0104167
 41
0.0104167
  0
VERTEX
  8
0
 10
3.67854
 20
4.61199
 30
0.0
 40
0.0104167
 41
0.0104167
  0
SEQEND
 8
0
  0
POLYLINE
  8
0
 62
     7
 66
     1
 10
0
 20
0
 30
0.0
 70
     1
 40
0
 41
0
  0
VERTEX
  8
0
 10
3.5619
 20
4.63178
 30
0.0
 40
0
 41
0
  0
VERTEX
  8
0
 10
3.5619
 20
4.63813
 30
0.0
 40
0
 41
0
  0
VERTEX
  8
0
 10
3.56549
 20
4.65707
 30
0.0
 40
0
 41
0
  0
VERTEX
  8
0
 10
3.57542
 20
4.67947
 30
0.0
 40
0
 41
0
  0
VERTEX
  8
0
 10
3.57856
 20
4.68386
 30
0.0
 40
0
 41
0
  0
VERTEX
  8
0
 10
3.57958
 20
4.68544
 30
0.0
 40
0
 41
0
  0
VERTEX
  8
0
 10
3.58974
 20
4.70003
 30
0.0
 40
0
 41
0
  0
VERTEX
  8
0
 10
3.59
 20
4.70156
 30
0.0
 40
0
 41
0
  0
VERTEX
  8
0
 10
3.5905
 20
4.70443
 30
0.0
 40
0
 41
0
  0
VERTEX
  8
0
 10
3.58632
 20
4.72097
 30
0.0
 40
0
 41
0
  0
VERTEX
  8
0
 10
3.56967
 20
4.73383
 30
0.0
 40
0
 41
0
  0
VERTEX
  8
0
 10
3.56396
 20
4.73486
 30
0.0
 40
0
 41
0
  0
VERTEX
  8
0
 10
3.56267
 20
4.73514
 30
0.0
 40
0
 41
0
  0
VERTEX
  8
0
 10
3.55111
 20
4.73594
 30
0.0
 40
0
 41
0
  0
VERTEX
  8
0
 10
3.54731
 20
4.73594
 30
0.0
 40
0
 41
0
  0
VERTEX
  8
0
 10
3.54833
 20
4.73594
 30
0.0
 40
0
 41
0
  0
VERTEX
  8
0
 10
3.54417
 20
4.73594
 30
0.0
 40
0
 41
0
  0
VERTEX
  8
0
 10
3.53299
 20
4.73514
 30
0.0
 40
0
 41
0
  0
VERTEX
  8
0
 10
3.53168
 20
4.73486
 30
0.0
 40
0
 41
0
  0
VERTEX
  8
0
 10
3.52593
 20
4.73383
 30
0.0
 40
0
 41
0
  0
VERTEX
  8
0
 10
3.50922
 20
4.72097
 30
0.0
 40
0
 41
0
  0
VERTEX
  8
0
 10
3.5051
 20
4.70443
 30
0.0
 40
0
 41
0
  0
VERTEX
  8
0
 10
3.50564
 20
4.70156
 30
0.0
 40
0
 41
0
  0
VERTEX
  8
0
 10
3.50586
 20
4.70003
 30
0.0
 40
0
 41
0
  0
VERTEX
  8
0
 10
3.516
 20
4.68544
 30
0.0
 40
0
 41
0
  0
VERTEX
  8
0
 10
3.51708
 20
4.68386
 30
0.0
 40
0
 41
0
  0
VERTEX
  8
0
 10
3.52018
 20
4.67947
 30
0.0
 40
0
 41
0
  0
VERTEX
  8
0
 10
3.53006
 20
4.65707
 30
0.0
 40
0
 41
0
  0
VERTEX
  8
0
 10
3.53375
 20
4.63813
 30
0.0
 40
0
 41
0
  0
VERTEX
  8
0
 10
3.53375
 20
4.63178
 30
0.0
 40
0
 41
0
  0
SEQEND
 8
0
  0
POLYLINE
  8
0
 62
     0
 66
     1
 10
0
 20
0
 30
0.0
 40
0.75
 41
0.75
  0
VERTEX
  8
0
 10
3.5619
 20
4.63178
 30
0.0
 40
0.0104167
 41
0.0104167
  0
VERTEX
  8
0
 10
3.5619
 20
4.63813
 30
0.0
 40
0.0104167
 41
0.0104167
  0
VERTEX
  8
0
 10
3.56549
 20
4.65707
 30
0.0
 40
0.0104167
 41
0.0104167
  0
VERTEX
  8
0
 10
3.57542
 20
4.67947
 30
0.0
 40
0.0104167
 41
0.0104167
  0
VERTEX
  8
0
 10
3.57856
 20
4.68386
 30
0.0
 40
0.0104167
 41
0.0104167
  0
VERTEX
  8
0
 10
3.57958
 20
4.68544
 30
0.0
 40
0.0104167
 41
0.0104167
  0
VERTEX
  8
0
 10
3.58974
 20
4.70003
 30
0.0
 40
0.0104167
 41
0.0104167
  0
VERTEX
  8
0
 10
3.59
 20
4.70156
 30
0.0
 40
0.0104167
 41
0.0104167
  0
VERTEX
  8
0
 10
3.5905
 20
4.70443
 30
0.0
 40
0.0104167
 41
0.0104167
  0
VERTEX
  8
0
 10
3.58632
 20
4.72097
 30
0.0
 40
0.0104167
 41
0.0104167
  0
VERTEX
  8
0
 10
3.56967
 20
4.73383
 30
0.0
 40
0.0104167
 41
0.0104167
  0
VERTEX
  8
0
 10
3.56396
 20
4.73486
 30
0.0
 40
0.0104167
 41
0.0104167
  0
VERTEX
  8
0
 10
3.56267
 20
4.73514
 30
0.0
 40
0.0104167
 41
0.0104167
  0
VERTEX
  8
0
 10
3.55111
 20
4.73594
 30
0.0
 40
0.0104167
 41
0.0104167
  0
VERTEX
  8
0
 10
3.54731
 20
4.73594
 30
0.0
 40
0.0104167
 41
0.0104167
  0
VERTEX
  8
0
 10
3.54833
 20
4.73594
 30
0.0
 40
0.0104167
 41
0.0104167
  0
VERTEX
  8
0
 10
3.54417
 20
4.73594
 30
0.0
 40
0.0104167
 41
0.0104167
  0
VERTEX
  8
0
 10
3.53299
 20
4.73514
 30
0.0
 40
0.0104167
 41
0.0104167
  0
VERTEX
  8
0
 10
3.53168
 20
4.73486
 30
0.0
 40
0.0104167
 41
0.0104167
  0
VERTEX
  8
0
 10
3.52593
 20
4.73383
 30
0.0
 40
0.0104167
 41
0.0104167
  0
VERTEX
  8
0
 10
3.50922
 20
4.72097
 30
0.0
 40
0.0104167
 41
0.0104167
  0
VERTEX
  8
0
 10
3.5051
 20
4.70443
 30
0.0
 40
0.0104167
 41
0.0104167
  0
VERTEX
  8
0
 10
3.50564
 20
4.70156
 30
0.0
 40
0.0104167
 41
0.0104167
  0
VERTEX
  8
0
 10
3.50586
 20
4.70003
 30
0.0
 40
0.0104167
 41
0.0104167
  0
VERTEX
  8
0
 10
3.516
 20
4.68544
 30
0.0
 40
0.0104167
 41
0.0104167
  0
VERTEX
  8
0
 10
3.51708
 20
4.68386
 30
0.0
 40
0.0104167
 41
0.0104167
  0
VERTEX
  8
0
 10
3.52018
 20
4.67947
 30
0.0
 40
0.0104167
 41
0.0104167
  0
VERTEX
  8
0
 10
3.53006
 20
4.65707
 30
0.0
 40
0.0104167
 41
0.0104167
  0
VERTEX
  8
0
 10
3.53375
 20
4.63813
 30
0.0
 40
0.0104167
 41
0.0104167
  0
VERTEX
  8
0
 10
3.53375
 20
4.63178
 30
0.0
 40
0.0104167
 41
0.0104167
  0
SEQEND
 8
0
  0
POLYLINE
  8
0
 62
     7
 66
     1
 10
0
 20
0
 30
0.0
 70
     1
 40
0
 41
0
  0
VERTEX
  8
0
 10
3.59
 20
4.70258
 30
0.0
 40
0
 41
0
  0
VERTEX
  8
0
 10
3.58974
 20
4.70313
 30
0.0
 40
0
 41
0
  0
VERTEX
  8
0
 10
3.5779
 20
4.71332
 30
0.0
 40
0
 41
0
  0
VERTEX
  8
0
 10
3.55414
 20
4.72239
 30
0.0
 40
0
 41
0
  0
VERTEX
  8
0
 10
3.54628
 20
4.72239
 30
0.0
 40
0
 41
0
  0
VERTEX
  8
0
 10
3.53999
 20
4.72217
 30
0.0
 40
0
 41
0
  0
VERTEX
  8
0
 10
3.51731
 20
4.71289
 30
0.0
 40
0
 41
0
  0
VERTEX
  8
0
 10
3.50612
 20
4.70313
 30
0.0
 40
0
 41
0
  0
VERTEX
  8
0
 10
3.50564
 20
4.70258
 30
0.0
 40
0
 41
0
  0
SEQEND
 8
0
  0
POLYLINE
  8
0
 62
     0
 66
     1
 10
0
 20
0
 30
0.0
 40
0.75
 41
0.75
  0
VERTEX
  8
0
 10
3.59
 20
4.70258
 30
0.0
 40
0.0104167
 41
0.0104167
  0
VERTEX
  8
0
 10
3.58974
 20
4.70313
 30
0.0
 40
0.0104167
 41
0.0104167
  0
VERTEX
  8
0
 10
3.5779
 20
4.71332
 30
0.0
 40
0.0104167
 41
0.0104167
  0
VERTEX
  8
0
 10
3.55414
 20
4.72239
 30
0.0
 40
0.0104167
 41
0.0104167
  0
VERTEX
  8
0
 10
3.54628
 20
4.72239
 30
0.0
 40
0.0104167
 41
0.0104167
  0
VERTEX
  8
0
 10
3.53999
 20
4.72217
 30
0.0
 40
0.0104167
 41
0.0104167
  0
VERTEX
  8
0
 10
3.51731
 20
4.71289
 30
0.0
 40
0.0104167
 41
0.0104167
  0
VERTEX
  8
0
 10
3.50612
 20
4.70313
 30
0.0
 40
0.0104167
 41
0.0104167
  0
VERTEX
  8
0
 10
3.50564
 20
4.70258
 30
0.0
 40
0.0104167
 41
0.0104167
  0
SEQEND
 8
0
  0
POLYLINE
  8
0
 62
     7
 66
     1
 10
0
 20
0
 30
0.0
 70
     1
 40
0
 41
0
  0
VERTEX
  8
0
 10
3.5619
 20
4.54844
 30
0.0
 40
0
 41
0
  0
VERTEX
  8
0
 10
3.53375
 20
4.54844
 30
0.0
 40
0
 41
0
  0
VERTEX
  8
0
 10
3.53375
 20
4.63178
 30
0.0
 40
0
 41
0
  0
VERTEX
  8
0
 10
3.54075
 20
4.63178
 30
0.0
 40
0
 41
0
  0
VERTEX
  8
0
 10
3.55658
 20
4.63178
 30
0.0
 40
0
 41
0
  0
VERTEX
  8
0
 10
3.5619
 20
4.63178
 30
0.0
 40
0
 41
0
  0
VERTEX
  8
0
 10
3.5619
 20
4.61094
 30
0.0
 40
0
 41
0
  0
VERTEX
  8
0
 10
3.5619
 20
4.56407
 30
0.0
 40
0
 41
0
  0
VERTEX
  8
0
 10
3.5619
 20
4.54844
 30
0.0
 40
0
 41
0
  0
SEQEND
 8
0
  0
POLYLINE
  8
0
 62
     0
 66
     1
 10
0
 20
0
 30
0.0
 70
     1
 40
0.75
 41
0.75
  0
VERTEX
  8
0
 10
3.5619
 20
4.54844
 30
0.0
 40
0.0104167
 41
0.0104167
  0
VERTEX
  8
0
 10
3.53375
 20
4.54844
 30
0.0
 40
0.0104167
 41
0.0104167
  0
VERTEX
  8
0
 10
3.53375
 20
4.63178
 30
0.0
 40
0.0104167
 41
0.0104167
  0
VERTEX
  8
0
 10
3.54075
 20
4.63178
 30
0.0
 40
0.0104167
 41
0.0104167
  0
VERTEX
  8
0
 10
3.55658
 20
4.63178
 30
0.0
 40
0.0104167
 41
0.0104167
  0
VERTEX
  8
0
 10
3.5619
 20
4.63178
 30
0.0
 40
0.0104167
 41
0.0104167
  0
VERTEX
  8
0
 10
3.5619
 20
4.61094
 30
0.0
 40
0.0104167
 41
0.0104167
  0
VERTEX
  8
0
 10
3.5619
 20
4.56407
 30
0.0
 40
0.0104167
 41
0.0104167
  0
VERTEX
  8
0
 10
3.5619
 20
4.54844
 30
0.0
 40
0.0104167
 41
0.0104167
  0
SEQEND
 8
0
  0
POLYLINE
  8
0
 62
     7
 66
     1
 10
0
 20
0
 30
0.0
 70
     1
 40
0
 41
0
  0
VERTEX
  8
0
 10
3.67854
 20
4.58074
 30
0.0
 40
0
 41
0
  0
VERTEX
  8
0
 10
3.67529
 20
4.57954
 30
0.0
 40
0
 41
0
  0
VERTEX
  8
0
 10
3.66564
 20
4.57568
 30
0.0
 40
0
 41
0
  0
VERTEX
  8
0
 10
3.66292
 20
4.57449
 30
0.0
 40
0
 41
0
  0
VERTEX
  8
0
 10
3.66292
 20
4.57449
 30
0.0
 40
0
 41
0
  0
VERTEX
  8
0
 10
3.66292
 20
4.57596
 30
0.0
 40
0
 41
0
  0
VERTEX
  8
0
 10
3.66292
 20
4.58024
 30
0.0
 40
0
 41
0
  0
VERTEX
  8
0
 10
3.66292
 20
4.58453
 30
0.0
 40
0
 41
0
  0
VERTEX
  8
0
 10
3.66292
 20
4.58594
 30
0.0
 40
0
 41
0
  0
VERTEX
  8
0
 10
3.66292
 20
4.58594
 30
0.0
 40
0
 41
0
  0
VERTEX
  8
0
 10
3.66525
 20
4.58529
 30
0.0
 40
0
 41
0
  0
VERTEX
  8
0
 10
3.67524
 20
4.58192
 30
0.0
 40
0
 41
0
  0
VERTEX
  8
0
 10
3.67854
 20
4.58074
 30
0.0
 40
0
 41
0
  0
SEQEND
 8
0
  0
POLYLINE
  8
0
 62
     0
 66
     1
 10
0
 20
0
 30
0.0
 70
     1
 40
0.75
 41
0.75
  0
VERTEX
  8
0
 10
3.67854
 20
4.58074
 30
0.0
 40
0.0104167
 41
0.0104167
  0
VERTEX
  8
0
 10
3.67529
 20
4.57954
 30
0.0
 40
0.0104167
 41
0.0104167
  0
VERTEX
  8
0
 10
3.66564
 20
4.57568
 30
0.0
 40
0.0104167
 41
0.0104167
  0
VERTEX
  8
0
 10
3.66292
 20
4.57449
 30
0.0
 40
0.0104167
 41
0.0104167
  0
VERTEX
  8
0
 10
3.66292
 20
4.57449
 30
0.0
 40
0.0104167
 41
0.0104167
  0
VERTEX
  8
0
 10
3.66292
 20
4.57596
 30
0.0
 40
0.0104167
 41
0.0104167
  0
VERTEX
  8
0
 10
3.66292
 20
4.58024
 30
0.0
 40
0.0104167
 41
0.0104167
  0
VERTEX
  8
0
 10
3.66292
 20
4.58453
 30
0.0
 40
0.0104167
 41
0.0104167
  0
VERTEX
  8
0
 10
3.66292
 20
4.58594
 30
0.0
 40
0.0104167
 41
0.0104167
  0
VERTEX
  8
0
 10
3.66292
 20
4.58594
 30
0.0
 40
0.0104167
 41
0.0104167
  0
VERTEX
  8
0
 10
3.66525
 20
4.58529
 30
0.0
 40
0.0104167
 41
0.0104167
  0
VERTEX
  8
0
 10
3.67524
 20
4.58192
 30
0.0
 40
0.0104167
 41
0.0104167
  0
VERTEX
  8
0
 10
3.67854
 20
4.58074
 30
0.0
 40
0.0104167
 41
0.0104167
  0
SEQEND
 8
0
  0
POLYLINE
  8
0
 62
     7
 66
     1
 10
0
 20
0
 30
0.0
 70
     1
 40
0
 41
0
  0
VERTEX
  8
0
 10
3.41812
 20
4.58074
 30
0.0
 40
0
 41
0
  0
VERTEX
  8
0
 10
3.42133
 20
4.57954
 30
0.0
 40
0
 41
0
  0
VERTEX
  8
0
 10
3.43099
 20
4.57568
 30
0.0
 40
0
 41
0
  0
VERTEX
  8
0
 10
3.43375
 20
4.57449
 30
0.0
 40
0
 41
0
  0
VERTEX
  8
0
 10
3.43375
 20
4.57449
 30
0.0
 40
0
 41
0
  0
VERTEX
  8
0
 10
3.43375
 20
4.57596
 30
0.0
 40
0
 41
0
  0
VERTEX
  8
0
 10
3.43375
 20
4.58024
 30
0.0
 40
0
 41
0
  0
VERTEX
  8
0
 10
3.43375
 20
4.58453
 30
0.0
 40
0
 41
0
  0
VERTEX
  8
0
 10
3.43375
 20
4.58594
 30
0.0
 40
0
 41
0
  0
VERTEX
  8
0
 10
3.43375
 20
4.58594
 30
0.0
 40
0
 41
0
  0
VERTEX
  8
0
 10
3.43138
 20
4.58529
 30
0.0
 40
0
 41
0
  0
VERTEX
  8
0
 10
3.42139
 20
4.58192
 30
0.0
 40
0
 41
0
  0
VERTEX
  8
0
 10
3.41812
 20
4.58074
 30
0.0
 40
0
 41
0
  0
SEQEND
 8
0
  0
POLYLINE
  8
0
 62
     0
 66
     1
 10
0
 20
0
 30
0.0
 70
     1
 40
0.75
 41
0.75
  0
VERTEX
  8
0
 10
3.41812
 20
4.58074
 30
0.0
 40
0.0104167
 41
0.0104167
  0
VERTEX
  8
0
 10
3.42133
 20
4.57954
 30
0.0
 40
0.0104167
 41
0.0104167
  0
VERTEX
  8
0
 10
3.43099
 20
4.57568
 30
0.0
 40
0.0104167
 41
0.0104167
  0
VERTEX
  8
0
 10
3.43375
 20
4.57449
 30
0.0
 40
0.0104167
 41
0.0104167
  0
VERTEX
  8
0
 10
3.43375
 20
4.57449
 30
0.0
 40
0.0104167
 41
0.0104167
  0
VERTEX
  8
0
 10
3.43375
 20
4.57596
 30
0.0
 40
0.0104167
 41
0.0104167
  0
VERTEX
  8
0
 10
3.43375
 20
4.58024
 30
0.0
 40
0.0104167
 41
0.0104167
  0
VERTEX
  8
0
 10
3.43375
 20
4.58453
 30
0.0
 40
0.0104167
 41
0.0104167
  0
VERTEX
  8
0
 10
3.43375
 20
4.58594
 30
0.0
 40
0.0104167
 41
0.0104167
  0
VERTEX
  8
0
 10
3.43375
 20
4.58594
 30
0.0
 40
0.0104167
 41
0.0104167
  0
VERTEX
  8
0
 10
3.43138
 20
4.58529
 30
0.0
 40
0.0104167
 41
0.0104167
  0
VERTEX
  8
0
 10
3.42139
 20
4.58192
 30
0.0
 40
0.0104167
 41
0.0104167
  0
VERTEX
  8
0
 10
3.41812
 20
4.58074
 30
0.0
 40
0.0104167
 41
0.0104167
  0
SEQEND
 8
0
  0
POLYLINE
  8
0
 62
     0
 66
     1
 10
0
 20
0
 30
0.0
 40
1.35
 41
1.35
  0
VERTEX
  8
0
 10
3.19065
 20
5.44928
 30
0.0
 40
0.01875
 41
0.01875
  0
VERTEX
  8
0
 10
4.10238
 20
5.44928
 30
0.0
 40
0.01875
 41
0.01875
  0
VERTEX
  8
0
 10
4.10238
 20
4.54324
 30
0.0
 40
0.01875
 41
0.01875
  0
SEQEND
 8
0
  0
POLYLINE
  8
0
 62
     7
 66
     1
 10
0
 20
0
 30
0.0
 70
     1
 40
0
 41
0
  0
VERTEX
  8
0
 10
1.80974
 20
6.12056
 30
0.0
 40
0
 41
0
  0
VERTEX
  8
0
 10
2.13715
 20
6.12056
 30
0.0
 40
0
 41
0
  0
VERTEX
  8
0
 10
2.13715
 20
5.61714
 30
0.0
 40
0
 41
0
  0
VERTEX
  8
0
 10
1.80974
 20
5.61714
 30
0.0
 40
0
 41
0
  0
VERTEX
  8
0
 10
1.80974
 20
6.12056
 30
0.0
 40
0
 41
0
  0
SEQEND
 8
0
  0
POLYLINE
  8
0
 62
     0
 66
     1
 10
0
 20
0
 30
0.0
 70
     1
 40
0.60405
 41
0.60405
  0
VERTEX
  8
0
 10
1.80974
 20
6.12056
 30
0.0
 40
0.00838958
 41
0.00838958
  0
VERTEX
  8
0
 10
1.80974
 20
5.61714
 30
0.0
 40
0.00838958
 41
0.00838958
  0
VERTEX
  8
0
 10
2.13715
 20
5.61714
 30
0.0
 40
0.00838958
 41
0.00838958
  0
VERTEX
  8
0
 10
2.13715
 20
6.12056
 30
0.0
 40
0.00838958
 41
0.00838958
  0
VERTEX
  8
0
 10
1.80974
 20
6.12056
 30
0.0
 40
0.00838958
 41
0.00838958
  0
SEQEND
 8
0
  0
POLYLINE
  8
0
 62
     0
 66
     1
 10
0
 20
0
 30
0.0
 40
0.60405
 41
0.60405
  0
VERTEX
  8
0
 10
2.13715
 20
5.61714
 30
0.0
 40
0.00838958
 41
0.00838958
  0
VERTEX
  8
0
 10
1.97347
 20
5.95019
 30
0.0
 40
0.00838958
 41
0.00838958
  0
VERTEX
  8
0
 10
1.97347
 20
5.79671
 30
0.0
 40
0.00838958
 41
0.00838958
  0
VERTEX
  8
0
 10
1.80974
 20
6.12056
 30
0.0
 40
0.00838958
 41
0.00838958
  0
SEQEND
 8
0
  0
POLYLINE
  8
0
 62
     7
 66
     1
 10
0
 20
0
 30
0.0
 70
     1
 40
0
 41
0
  0
VERTEX
  8
0
 10
1.74544
 20
5.07904
 30
0.0
 40
0
 41
0
  0
VERTEX
  8
0
 10
3.07574
 20
5.07904
 30
0.0
 40
0
 41
0
  0
VERTEX
  8
0
 10
3.07574
 20
4.54324
 30
0.0
 40
0
 41
0
  0
VERTEX
  8
0
 10
1.74544
 20
4.54324
 30
0.0
 40
0
 41
0
  0
VERTEX
  8
0
 10
1.74544
 20
5.07904
 30
0.0
 40
0
 41
0
  0
SEQEND
 8
0
  0
POLYLINE
  8
0
 62
     0
 66
     1
 10
0
 20
0
 30
0.0
 70
     1
 40
0.75
 41
0.75
  0
VERTEX
  8
0
 10
1.74544
 20
5.07904
 30
0.0
 40
0.0104167
 41
0.0104167
  0
VERTEX
  8
0
 10
3.07574
 20
5.07904
 30
0.0
 40
0.0104167
 41
0.0104167
  0
VERTEX
  8
0
 10
3.07574
 20
4.54324
 30
0.0
 40
0.0104167
 41
0.0104167
  0
VERTEX
  8
0
 10
1.74544
 20
4.54324
 30
0.0
 40
0.0104167
 41
0.0104167
  0
VERTEX
  8
0
 10
1.74544
 20
5.07904
 30
0.0
 40
0.0104167
 41
0.0104167
  0
SEQEND
 8
0
  0
POLYLINE
  8
0
 62
     253
 66
     1
 10
0
 20
0
 30
0.0
 40
0.375
 41
0.375
  0
VERTEX
  8
0
 10
3.07574
 20
4.57894
 30
0.0
 40
0.00520833
 41
0.00520833
  0
VERTEX
  8
0
 10
1.74539
 20
4.57894
 30
0.0
 40
0.00520833
 41
0.00520833
  0
SEQEND
 8
0
  0
POLYLINE
  8
0
 62
     253
 66
     1
 10
0
 20
0
 30
0.0
 40
0.375
 41
0.375
  0
VERTEX
  8
0
 10
3.07574
 20
4.61464
 30
0.0
 40
0.00520833
 41
0.00520833
  0
VERTEX
  8
0
 10
1.74539
 20
4.61464
 30
0.0
 40
0.00520833
 41
0.00520833
  0
SEQEND
 8
0
  0
POLYLINE
  8
0
 62
     253
 66
     1
 10
0
 20
0
 30
0.0
 40
0.375
 41
0.375
  0
VERTEX
  8
0
 10
3.07574
 20
4.65039
 30
0.0
 40
0.00520833
 41
0.00520833
  0
VERTEX
  8
0
 10
1.74539
 20
4.65039
 30
0.0
 40
0.00520833
 41
0.00520833
  0
SEQEND
 8
0
  0
POLYLINE
  8
0
 62
     253
 66
     1
 10
0
 20
0
 30
0.0
 40
0.375
 41
0.375
  0
VERTEX
  8
0
 10
3.07574
 20
4.68608
 30
0.0
 40
0.00520833
 41
0.00520833
  0
VERTEX
  8
0
 10
1.74539
 20
4.68608
 30
0.0
 40
0.00520833
 41
0.00520833
  0
SEQEND
 8
0
  0
POLYLINE
  8
0
 62
     253
 66
     1
 10
0
 20
0
 30
0.0
 40
0.375
 41
0.375
  0
VERTEX
  8
0
 10
3.07574
 20
4.72185
 30
0.0
 40
0.00520833
 41
0.00520833
  0
VERTEX
  8
0
 10
1.74539
 20
4.72185
 30
0.0
 40
0.00520833
 41
0.00520833
  0
SEQEND
 8
0
  0
POLYLINE
  8
0
 62
     253
 66
     1
 10
0
 20
0
 30
0.0
 40
0.375
 41
0.375
  0
VERTEX
  8
0
 10
3.07574
 20
4.75754
 30
0.0
 40
0.00520833
 41
0.00520833
  0
VERTEX
  8
0
 10
1.74539
 20
4.75754
 30
0.0
 40
0.00520833
 41
0.00520833
  0
SEQEND
 8
0
  0
POLYLINE
  8
0
 62
     253
 66
     1
 10
0
 20
0
 30
0.0
 40
0.375
 41
0.375
  0
VERTEX
  8
0
 10
3.07574
 20
4.79329
 30
0.0
 40
0.00520833
 41
0.00520833
  0
VERTEX
  8
0
 10
1.74539
 20
4.79329
 30
0.0
 40
0.00520833
 41
0.00520833
  0
SEQEND
 8
0
  0
POLYLINE
  8
0
 62
     253
 66
     1
 10
0
 20
0
 30
0.0
 40
0.375
 41
0.375
  0
VERTEX
  8
0
 10
3.07574
 20
4.829
 30
0.0
 40
0.00520833
 41
0.00520833
  0
VERTEX
  8
0
 10
1.74539
 20
4.829
 30
0.0
 40
0.00520833
 41
0.00520833
  0
SEQEND
 8
0
  0
POLYLINE
  8
0
 62
     253
 66
     1
 10
0
 20
0
 30
0.0
 40
0.375
 41
0.375
  0
VERTEX
  8
0
 10
3.07574
 20
4.86475
 30
0.0
 40
0.00520833
 41
0.00520833
  0
VERTEX
  8
0
 10
1.74539
 20
4.86475
 30
0.0
 40
0.00520833
 41
0.00520833
  0
SEQEND
 8
0
  0
POLYLINE
  8
0
 62
     253
 66
     1
 10
0
 20
0
 30
0.0
 40
0.375
 41
0.375
  0
VERTEX
  8
0
 10
3.07574
 20
4.90044
 30
0.0
 40
0.00520833
 41
0.00520833
  0
VERTEX
  8
0
 10
1.74539
 20
4.90044
 30
0.0
 40
0.00520833
 41
0.00520833
  0
SEQEND
 8
0
  0
POLYLINE
  8
0
 62
     253
 66
     1
 10
0
 20
0
 30
0.0
 40
0.375
 41
0.375
  0
VERTEX
  8
0
 10
3.07574
 20
4.93614
 30
0.0
 40
0.00520833
 41
0.00520833
  0
VERTEX
  8
0
 10
1.74539
 20
4.93614
 30
0.0
 40
0.00520833
 41
0.00520833
  0
SEQEND
 8
0
  0
POLYLINE
  8
0
 62
     253
 66
     1
 10
0
 20
0
 30
0.0
 40
0.375
 41
0.375
  0
VERTEX
  8
0
 10
3.07574
 20
4.9719
 30
0.0
 40
0.00520833
 41
0.00520833
  0
VERTEX
  8
0
 10
1.74539
 20
4.9719
 30
0.0
 40
0.00520833
 41
0.00520833
  0
SEQEND
 8
0
  0
POLYLINE
  8
0
 62
     253
 66
     1
 10
0
 20
0
 30
0.0
 40
0.375
 41
0.375
  0
VERTEX
  8
0
 10
3.07574
 20
5.0076
 30
0.0
 40
0.00520833
 41
0.00520833
  0
VERTEX
  8
0
 10
1.74539
 20
5.0076
 30
0.0
 40
0.00520833
 41
0.00520833
  0
SEQEND
 8
0
  0
POLYLINE
  8
0
 62
     253
 66
     1
 10
0
 20
0
 30
0.0
 40
0.375
 41
0.375
  0
VERTEX
  8
0
 10
3.07574
 20
5.04335
 30
0.0
 40
0.00520833
 41
0.00520833
  0
VERTEX
  8
0
 10
1.74539
 20
5.04335
 30
0.0
 40
0.00520833
 41
0.00520833
  0
SEQEND
 8
0
  0
POLYLINE
  8
0
 62
     7
 66
     1
 10
0
 20
0
 30
0.0
 70
     1
 40
0
 41
0
  0
VERTEX
  8
0
 10
1.74539
 20
5.39757
 30
0.0
 40
0
 41
0
  0
VERTEX
  8
0
 10
3.07574
 20
5.39757
 30
0.0
 40
0
 41
0
  0
VERTEX
  8
0
 10
3.07574
 20
5.07904
 30
0.0
 40
0
 41
0
  0
VERTEX
  8
0
 10
1.74539
 20
5.07904
 30
0.0
 40
0
 41
0
  0
VERTEX
  8
0
 10
1.74539
 20
5.39757
 30
0.0
 40
0
 41
0
  0
SEQEND
 8
0
  0
POLYLINE
  8
0
 62
     0
 66
     1
 10
0
 20
0
 30
0.0
 70
     1
 40
0.75
 41
0.75
  0
VERTEX
  8
0
 10
1.74539
 20
5.39757
 30
0.0
 40
0.0104167
 41
0.0104167
  0
VERTEX
  8
0
 10
3.07574
 20
5.39757
 30
0.0
 40
0.0104167
 41
0.0104167
  0
VERTEX
  8
0
 10
3.07574
 20
5.07904
 30
0.0
 40
0.0104167
 41
0.0104167
  0
VERTEX
  8
0
 10
1.74539
 20
5.07904
 30
0.0
 40
0.0104167
 41
0.0104167
  0
VERTEX
  8
0
 10
1.74539
 20
5.39757
 30
0.0
 40
0.0104167
 41
0.0104167
  0
SEQEND
 8
0
  0
POLYLINE
  8
0
 62
     253
 66
     1
 10
0
 20
0
 30
0.0
 40
0.375
 41
0.375
  0
VERTEX
  8
0
 10
3.07574
 20
5.11089
 30
0.0
 40
0.00520833
 41
0.00520833
  0
VERTEX
  8
0
 10
1.74539
 20
5.11089
 30
0.0
 40
0.00520833
 41
0.00520833
  0
SEQEND
 8
0
  0
POLYLINE
  8
0
 62
     253
 66
     1
 10
0
 20
0
 30
0.0
 40
0.375
 41
0.375
  0
VERTEX
  8
0
 10
3.07574
 20
5.14274
 30
0.0
 40
0.00520833
 41
0.00520833
  0
VERTEX
  8
0
 10
1.74539
 20
5.14274
 30
0.0
 40
0.00520833
 41
0.00520833
  0
SEQEND
 8
0
  0
POLYLINE
  8
0
 62
     253
 66
     1
 10
0
 20
0
 30
0.0
 40
0.375
 41
0.375
  0
VERTEX
  8
0
 10
3.07574
 20
5.17458
 30
0.0
 40
0.00520833
 41
0.00520833
  0
VERTEX
  8
0
 10
1.74539
 20
5.17458
 30
0.0
 40
0.00520833
 41
0.00520833
  0
SEQEND
 8
0
  0
POLYLINE
  8
0
 62
     253
 66
     1
 10
0
 20
0
 30
0.0
 40
0.375
 41
0.375
  0
VERTEX
  8
0
 10
3.07574
 20
5.20649
 30
0.0
 40
0.00520833
 41
0.00520833
  0
VERTEX
  8
0
 10
1.74539
 20
5.20649
 30
0.0
 40
0.00520833
 41
0.00520833
  0
SEQEND
 8
0
  0
POLYLINE
  8
0
 62
     253
 66
     1
 10
0
 20
0
 30
0.0
 40
0.375
 41
0.375
  0
VERTEX
  8
0
 10
3.07574
 20
5.23833
 30
0.0
 40
0.00520833
 41
0.00520833
  0
VERTEX
  8
0
 10
1.74539
 20
5.23833
 30
0.0
 40
0.00520833
 41
0.00520833
  0
SEQEND
 8
0
  0
POLYLINE
  8
0
 62
     253
 66
     1
 10
0
 20
0
 30
0.0
 40
0.375
 41
0.375
  0
VERTEX
  8
0
 10
3.07574
 20
5.27018
 30
0.0
 40
0.00520833
 41
0.00520833
  0
VERTEX
  8
0
 10
1.74539
 20
5.27018
 30
0.0
 40
0.00520833
 41
0.00520833
  0
SEQEND
 8
0
  0
POLYLINE
  8
0
 62
     253
 66
     1
 10
0
 20
0
 30
0.0
 40
0.375
 41
0.375
  0
VERTEX
  8
0
 10
3.07574
 20
5.30203
 30
0.0
 40
0.00520833
 41
0.00520833
  0
VERTEX
  8
0
 10
1.74539
 20
5.30203
 30
0.0
 40
0.00520833
 41
0.00520833
  0
SEQEND
 8
0
  0
POLYLINE
  8
0
 62
     253
 66
     1
 10
0
 20
0
 30
0.0
 40
0.375
 41
0.375
  0
VERTEX
  8
0
 10
3.07574
 20
5.33388
 30
0.0
 40
0.00520833
 41
0.00520833
  0
VERTEX
  8
0
 10
1.74539
 20
5.33388
 30
0.0
 40
0.00520833
 41
0.00520833
  0
SEQEND
 8
0
  0
POLYLINE
  8
0
 62
     253
 66
     1
 10
0
 20
0
 30
0.0
 40
0.375
 41
0.375
  0
VERTEX
  8
0
 10
3.07574
 20
5.36572
 30
0.0
 40
0.00520833
 41
0.00520833
  0
VERTEX
  8
0
 10
1.74539
 20
5.36572
 30
0.0
 40
0.00520833
 41
0.00520833
  0
SEQEND
 8
0
  0
POLYLINE
  8
0
 62
     7
 66
     1
 10
0
 20
0
 30
0.0
 70
     1
 40
0
 41
0
  0
VERTEX
  8
0
 10
2.3724
 20
5.69015
 30
0.0
 40
0
 41
0
  0
VERTEX
  8
0
 10
3.07699
 20
5.69015
 30
0.0
 40
0
 41
0
  0
VERTEX
  8
0
 10
3.07699
 20
5.40483
 30
0.0
 40
0
 41
0
  0
VERTEX
  8
0
 10
2.3724
 20
5.40483
 30
0.0
 40
0
 41
0
  0
VERTEX
  8
0
 10
2.3724
 20
5.69015
 30
0.0
 40
0
 41
0
  0
SEQEND
 8
0
  0
POLYLINE
  8
0
 62
     0
 66
     1
 10
0
 20
0
 30
0.0
 70
     1
 40
0.75
 41
0.75
  0
VERTEX
  8
0
 10
2.3724
 20
5.69015
 30
0.0
 40
0.0104167
 41
0.0104167
  0
VERTEX
  8
0
 10
3.07699
 20
5.69015
 30
0.0
 40
0.0104167
 41
0.0104167
  0
VERTEX
  8
0
 10
3.07699
 20
5.40483
 30
0.0
 40
0.0104167
 41
0.0104167
  0
VERTEX
  8
0
 10
2.3724
 20
5.40483
 30
0.0
 40
0.0104167
 41
0.0104167
  0
VERTEX
  8
0
 10
2.3724
 20
5.69015
 30
0.0
 40
0.0104167
 41
0.0104167
  0
SEQEND
 8
0
  0
POLYLINE
  8
0
 62
     253
 66
     1
 10
0
 20
0
 30
0.0
 40
0.375
 41
0.375
  0
VERTEX
  8
0
 10
3.07699
 20
5.43338
 30
0.0
 40
0.00520833
 41
0.00520833
  0
VERTEX
  8
0
 10
2.37235
 20
5.43338
 30
0.0
 40
0.00520833
 41
0.00520833
  0
SEQEND
 8
0
  0
POLYLINE
  8
0
 62
     253
 66
     1
 10
0
 20
0
 30
0.0
 40
0.375
 41
0.375
  0
VERTEX
  8
0
 10
3.07699
 20
5.46192
 30
0.0
 40
0.00520833
 41
0.00520833
  0
VERTEX
  8
0
 10
2.37235
 20
5.46192
 30
0.0
 40
0.00520833
 41
0.00520833
  0
SEQEND
 8
0
  0
POLYLINE
  8
0
 62
     253
 66
     1
 10
0
 20
0
 30
0.0
 40
0.375
 41
0.375
  0
VERTEX
  8
0
 10
3.07699
 20
5.49046
 30
0.0
 40
0.00520833
 41
0.00520833
  0
VERTEX
  8
0
 10
2.37235
 20
5.49046
 30
0.0
 40
0.00520833
 41
0.00520833
  0
SEQEND
 8
0
  0
POLYLINE
  8
0
 62
     253
 66
     1
 10
0
 20
0
 30
0.0
 40
0.375
 41
0.375
  0
VERTEX
  8
0
 10
3.07699
 20
5.51899
 30
0.0
 40
0.00520833
 41
0.00520833
  0
VERTEX
  8
0
 10
2.37235
 20
5.51899
 30
0.0
 40
0.00520833
 41
0.00520833
  0
SEQEND
 8
0
  0
POLYLINE
  8
0
 62
     253
 66
     1
 10
0
 20
0
 30
0.0
 40
0.375
 41
0.375
  0
VERTEX
  8
0
 10
3.07699
 20
5.54747
 30
0.0
 40
0.00520833
 41
0.00520833
  0
VERTEX
  8
0
 10
2.37235
 20
5.54747
 30
0.0
 40
0.00520833
 41
0.00520833
  0
SEQEND
 8
0
  0
POLYLINE
  8
0
 62
     253
 66
     1
 10
0
 20
0
 30
0.0
 40
0.375
 41
0.375
  0
VERTEX
  8
0
 10
3.07699
 20
5.57601
 30
0.0
 40
0.00520833
 41
0.00520833
  0
VERTEX
  8
0
 10
2.37235
 20
5.57601
 30
0.0
 40
0.00520833
 41
0.00520833
  0
SEQEND
 8
0
  0
POLYLINE
  8
0
 62
     253
 66
     1
 10
0
 20
0
 30
0.0
 40
0.375
 41
0.375
  0
VERTEX
  8
0
 10
3.07699
 20
5.60454
 30
0.0
 40
0.00520833
 41
0.00520833
  0
VERTEX
  8
0
 10
2.37235
 20
5.60454
 30
0.0
 40
0.00520833
 41
0.00520833
  0
SEQEND
 8
0
  0
POLYLINE
  8
0
 62
     253
 66
     1
 10
0
 20
0
 30
0.0
 40
0.375
 41
0.375
  0
VERTEX
  8
0
 10
3.07699
 20
5.63308
 30
0.0
 40
0.00520833
 41
0.00520833
  0
VERTEX
  8
0
 10
2.37235
 20
5.63308
 30
0.0
 40
0.00520833
 41
0.00520833
  0
SEQEND
 8
0
  0
POLYLINE
  8
0
 62
     253
 66
     1
 10
0
 20
0
 30
0.0
 40
0.375
 41
0.375
  0
VERTEX
  8
0
 10
3.07699
 20
5.66162
 30
0.0
 40
0.00520833
 41
0.00520833
  0
VERTEX
  8
0
 10
2.37235
 20
5.66162
 30
0.0
 40
0.00520833
 41
0.00520833
  0
SEQEND
 8
0
  0
POLYLINE
  8
0
 62
     7
 66
     1
 10
0
 20
0
 30
0.0
 70
     1
 40
0
 41
0
  0
VERTEX
  8
0
 10
6.3099
 20
2.46094
 30
0.0
 40
0
 41
0
  0
VERTEX
  8
0
 10
6.9349
 20
2.46094
 30
0.0
 40
0
 41
0
  0
VERTEX
  8
0
 10
6.9349
 20
1.92606
 30
0.0
 40
0
 41
0
  0
VERTEX
  8
0
 10
6.3099
 20
1.92606
 30
0.0
 40
0
 41
0
  0
VERTEX
  8
0
 10
6.3099
 20
2.46094
 30
0.0
 40
0
 41
0
  0
SEQEND
 8
0
  0
POLYLINE
  8
0
 62
     0
 66
     1
 10
0
 20
0
 30
0.0
 70
     1
 40
0.75
 41
0.75
  0
VERTEX
  8
0
 10
6.3099
 20
2.46094
 30
0.0
 40
0.0104167
 41
0.0104167
  0
VERTEX
  8
0
 10
6.3099
 20
1.92606
 30
0.0
 40
0.0104167
 41
0.0104167
  0
VERTEX
  8
0
 10
6.9349
 20
1.92606
 30
0.0
 40
0.0104167
 41
0.0104167
  0
VERTEX
  8
0
 10
6.9349
 20
2.46094
 30
0.0
 40
0.0104167
 41
0.0104167
  0
VERTEX
  8
0
 10
6.3099
 20
2.46094
 30
0.0
 40
0.0104167
 41
0.0104167
  0
SEQEND
 8
0
  0
POLYLINE
  8
0
 62
     7
 66
     1
 10
0
 20
0
 30
0.0
 70
     1
 40
0
 41
0
  0
VERTEX
  8
0
 10
6.30442
 20
10.7324
 30
0.0
 40
0
 41
0
  0
VERTEX
  8
0
 10
6.93485
 20
10.7324
 30
0.0
 40
0
 41
0
  0
VERTEX
  8
0
 10
6.93485
 20
10.6041
 30
0.0
 40
0
 41
0
  0
VERTEX
  8
0
 10
6.30442
 20
10.6041
 30
0.0
 40
0
 41
0
  0
VERTEX
  8
0
 10
6.30442
 20
10.7324
 30
0.0
 40
0
 41
0
  0
SEQEND
 8
0
  0
POLYLINE
  8
0
 62
     0
 66
     1
 10
0
 20
0
 30
0.0
 70
     1
 40
0.923775
 41
0.923775
  0
VERTEX
  8
0
 10
6.30442
 20
10.7324
 30
0.0
 40
0.0128302
 41
0.0128302
  0
VERTEX
  8
0
 10
6.30442
 20
10.6041
 30
0.0
 40
0.0128302
 41
0.0128302
  0
VERTEX
  8
0
 10
6.93485
 20
10.6041
 30
0.0
 40
0.0128302
 41
0.0128302
  0
VERTEX
  8
0
 10
6.93485
 20
10.7324
 30
0.0
 40
0.0128302
 41
0.0128302
  0
VERTEX
  8
0
 10
6.30442
 20
10.7324
 30
0.0
 40
0.0128302
 41
0.0128302
  0
SEQEND
 8
0
  0
POLYLINE
  8
0
 62
     7
 66
     1
 10
0
 20
0
 30
0.0
 70
     1
 40
0
 41
0
  0
VERTEX
  8
0
 10
6.30615
 20
10.6041
 30
0.0
 40
0
 41
0
  0
VERTEX
  8
0
 10
6.93115
 20
10.6041
 30
0.0
 40
0
 41
0
  0
VERTEX
  8
0
 10
6.93115
 20
10.0058
 30
0.0
 40
0
 41
0
  0
VERTEX
  8
0
 10
6.30615
 20
10.0058
 30
0.0
 40
0
 41
0
  0
VERTEX
  8
0
 10
6.30615
 20
10.6041
 30
0.0
 40
0
 41
0
  0
SEQEND
 8
0
  0
POLYLINE
  8
0
 62
     0
 66
     1
 10
0
 20
0
 30
0.0
 70
     1
 40
0.717975
 41
0.717975
  0
VERTEX
  8
0
 10
6.30615
 20
10.6041
 30
0.0
 40
0.00997188
 41
0.00997188
  0
VERTEX
  8
0
 10
6.30615
 20
10.0058
 30
0.0
 40
0.00997188
 41
0.00997188
  0
VERTEX
  8
0
 10
6.93115
 20
10.0058
 30
0.0
 40
0.00997188
 41
0.00997188
  0
VERTEX
  8
0
 10
6.93115
 20
10.6041
 30
0.0
 40
0.00997188
 41
0.00997188
  0
VERTEX
  8
0
 10
6.30615
 20
10.6041
 30
0.0
 40
0.00997188
 41
0.00997188
  0
SEQEND
 8
0
  0
POLYLINE
  8
0
 62
     0
 66
     1
 10
0
 20
0
 30
0.0
 40
0.717975
 41
0.717975
  0
VERTEX
  8
0
 10
6.93115
 20
10.6041
 30
0.0
 40
0.00997188
 41
0.00997188
  0
VERTEX
  8
0
 10
6.54471
 20
10.3049
 30
0.0
 40
0.00997188
 41
0.00997188
  0
VERTEX
  8
0
 10
6.73221
 20
10.3049
 30
0.0
 40
0.00997188
 41
0.00997188
  0
VERTEX
  8
0
 10
6.34472
 20
10.0058
 30
0.0
 40
0.00997188
 41
0.00997188
  0
SEQEND
 8
0
  0
POLYLINE
  8
0
 62
     7
 66
     1
 10
0
 20
0
 30
0.0
 70
     1
 40
0
 41
0
  0
VERTEX
  8
0
 10
6.30615
 20
10.6041
 30
0.0
 40
0
 41
0
  0
VERTEX
  8
0
 10
6.34782
 20
10.6041
 30
0.0
 40
0
 41
0
  0
VERTEX
  8
0
 10
6.34782
 20
10.0058
 30
0.0
 40
0
 41
0
  0
VERTEX
  8
0
 10
6.30615
 20
10.0058
 30
0.0
 40
0
 41
0
  0
VERTEX
  8
0
 10
6.30615
 20
10.6041
 30
0.0
 40
0
 41
0
  0
SEQEND
 8
0
  0
POLYLINE
  8
0
 62
     0
 66
     1
 10
0
 20
0
 30
0.0
 70
     1
 40
0.717975
 41
0.717975
  0
VERTEX
  8
0
 10
6.30615
 20
10.6041
 30
0.0
 40
0.00997188
 41
0.00997188
  0
VERTEX
  8
0
 10
6.30615
 20
10.0058
 30
0.0
 40
0.00997188
 41
0.00997188
  0
VERTEX
  8
0
 10
6.34782
 20
10.0058
 30
0.0
 40
0.00997188
 41
0.00997188
  0
VERTEX
  8
0
 10
6.34782
 20
10.6041
 30
0.0
 40
0.00997188
 41
0.00997188
  0
VERTEX
  8
0
 10
6.30615
 20
10.6041
 30
0.0
 40
0.00997188
 41
0.00997188
  0
SEQEND
 8
0
  0
POLYLINE
  8
0
 62
     7
 66
     1
 10
0
 20
0
 30
0.0
 70
     1
 40
0
 41
0
  0
VERTEX
  8
0
 10
6.30875
 20
10.0058
 30
0.0
 40
0
 41
0
  0
VERTEX
  8
0
 10
6.93375
 20
10.0058
 30
0.0
 40
0
 41
0
  0
VERTEX
  8
0
 10
6.93375
 20
7.42822
 30
0.0
 40
0
 41
0
  0
VERTEX
  8
0
 10
6.30875
 20
7.42822
 30
0.0
 40
0
 41
0
  0
VERTEX
  8
0
 10
6.30875
 20
10.0058
 30
0.0
 40
0
 41
0
  0
SEQEND
 8
0
  0
POLYLINE
  8
0
 62
     0
 66
     1
 10
0
 20
0
 30
0.0
 70
     1
 40
0.75
 41
0.75
  0
VERTEX
  8
0
 10
6.30875
 20
10.0058
 30
0.0
 40
0.0104167
 41
0.0104167
  0
VERTEX
  8
0
 10
6.30875
 20
7.42822
 30
0.0
 40
0.0104167
 41
0.0104167
  0
VERTEX
  8
0
 10
6.93375
 20
7.42822
 30
0.0
 40
0.0104167
 41
0.0104167
  0
VERTEX
  8
0
 10
6.93375
 20
10.0058
 30
0.0
 40
0.0104167
 41
0.0104167
  0
VERTEX
  8
0
 10
6.30875
 20
10.0058
 30
0.0
 40
0.0104167
 41
0.0104167
  0
SEQEND
 8
0
  0
POLYLINE
  8
0
 62
     7
 66
     1
 10
0
 20
0
 30
0.0
 70
     1
 40
0
 41
0
  0
VERTEX
  8
0
 10
6.30875
 20
8.76671
 30
0.0
 40
0
 41
0
  0
VERTEX
  8
0
 10
6.93375
 20
8.76671
 30
0.0
 40
0
 41
0
  0
VERTEX
  8
0
 10
6.93375
 20
8.22021
 30
0.0
 40
0
 41
0
  0
VERTEX
  8
0
 10
6.30875
 20
8.22021
 30
0.0
 40
0
 41
0
  0
VERTEX
  8
0
 10
6.30875
 20
8.76671
 30
0.0
 40
0
 41
0
  0
SEQEND
 8
0
  0
POLYLINE
  8
0
 62
     0
 66
     1
 10
0
 20
0
 30
0.0
 70
     1
 40
0.6558
 41
0.6558
  0
VERTEX
  8
0
 10
6.30875
 20
8.76671
 30
0.0
 40
0.00910833
 41
0.00910833
  0
VERTEX
  8
0
 10
6.30875
 20
8.22021
 30
0.0
 40
0.00910833
 41
0.00910833
  0
VERTEX
  8
0
 10
6.93375
 20
8.22021
 30
0.0
 40
0.00910833
 41
0.00910833
  0
VERTEX
  8
0
 10
6.93375
 20
8.76671
 30
0.0
 40
0.00910833
 41
0.00910833
  0
VERTEX
  8
0
 10
6.30875
 20
8.76671
 30
0.0
 40
0.00910833
 41
0.00910833
  0
SEQEND
 8
0
  0
POLYLINE
  8
0
 62
     0
 66
     1
 10
0
 20
0
 30
0.0
 40
0.6558
 41
0.6558
  0
VERTEX
  8
0
 10
6.93375
 20
8.76671
 30
0.0
 40
0.00910833
 41
0.00910833
  0
VERTEX
  8
0
 10
6.51921
 20
8.49251
 30
0.0
 40
0.00910833
 41
0.00910833
  0
VERTEX
  8
0
 10
6.73167
 20
8.49251
 30
0.0
 40
0.00910833
 41
0.00910833
  0
VERTEX
  8
0
 10
6.30875
 20
8.22108
 30
0.0
 40
0.00910833
 41
0.00910833
  0
SEQEND
 8
0
  0
POLYLINE
  8
0
 62
     7
 66
     1
 10
0
 20
0
 30
0.0
 70
     1
 40
0
 41
0
  0
VERTEX
  8
0
 10
6.35097
 20
8.16635
 30
0.0
 40
0
 41
0
  0
VERTEX
  8
0
 10
6.76725
 20
8.16635
 30
0.0
 40
0
 41
0
  0
VERTEX
  8
0
 10
6.76725
 20
7.86757
 30
0.0
 40
0
 41
0
  0
VERTEX
  8
0
 10
6.35097
 20
7.86757
 30
0.0
 40
0
 41
0
  0
VERTEX
  8
0
 10
6.35097
 20
8.16635
 30
0.0
 40
0
 41
0
  0
SEQEND
 8
0
  0
POLYLINE
  8
0
 62
     0
 66
     1
 10
0
 20
0
 30
0.0
 70
     1
 40
0.75
 41
0.75
  0
VERTEX
  8
0
 10
6.35097
 20
8.16635
 30
0.0
 40
0.0104167
 41
0.0104167
  0
VERTEX
  8
0
 10
6.35097
 20
7.86757
 30
0.0
 40
0.0104167
 41
0.0104167
  0
VERTEX
  8
0
 10
6.76725
 20
7.86757
 30
0.0
 40
0.0104167
 41
0.0104167
  0
VERTEX
  8
0
 10
6.76725
 20
8.16635
 30
0.0
 40
0.0104167
 41
0.0104167
  0
VERTEX
  8
0
 10
6.35097
 20
8.16635
 30
0.0
 40
0.0104167
 41
0.0104167
  0
SEQEND
 8
0
  0
POLYLINE
  8
0
 62
     7
 66
     1
 10
0
 20
0
 30
0.0
 70
     1
 40
0
 41
0
  0
VERTEX
  8
0
 10
6.35004
 20
7.8361
 30
0.0
 40
0
 41
0
  0
VERTEX
  8
0
 10
6.76622
 20
7.8361
 30
0.0
 40
0
 41
0
  0
VERTEX
  8
0
 10
6.76622
 20
7.53749
 30
0.0
 40
0
 41
0
  0
VERTEX
  8
0
 10
6.35004
 20
7.53749
 30
0.0
 40
0
 41
0
  0
VERTEX
  8
0
 10
6.35004
 20
7.8361
 30
0.0
 40
0
 41
0
  0
SEQEND
 8
0
  0
POLYLINE
  8
0
 62
     0
 66
     1
 10
0
 20
0
 30
0.0
 70
     1
 40
0.75
 41
0.75
  0
VERTEX
  8
0
 10
6.35004
 20
7.8361
 30
0.0
 40
0.0104167
 41
0.0104167
  0
VERTEX
  8
0
 10
6.35004
 20
7.53749
 30
0.0
 40
0.0104167
 41
0.0104167
  0
VERTEX
  8
0
 10
6.76622
 20
7.53749
 30
0.0
 40
0.0104167
 41
0.0104167
  0
VERTEX
  8
0
 10
6.76622
 20
7.8361
 30
0.0
 40
0.0104167
 41
0.0104167
  0
VERTEX
  8
0
 10
6.35004
 20
7.8361
 30
0.0
 40
0.0104167
 41
0.0104167
  0
SEQEND
 8
0
  0
POLYLINE
  8
0
 62
     7
 66
     1
 10
0
 20
0
 30
0.0
 70
     1
 40
0
 41
0
  0
VERTEX
  8
0
 10
6.56288
 20
7.97581
 30
0.0
 40
0
 41
0
  0
VERTEX
  8
0
 10
6.55643
 20
7.97581
 30
0.0
 40
0
 41
0
  0
VERTEX
  8
0
 10
6.53706
 20
7.98649
 30
0.0
 40
0
 41
0
  0
VERTEX
  8
0
 10
6.52642
 20
8.00586
 30
0.0
 40
0
 41
0
  0
VERTEX
  8
0
 10
6.52642
 20
8.01226
 30
0.0
 40
0
 41
0
  0
VERTEX
  8
0
 10
6.52642
 20
8.01872
 30
0.0
 40
0
 41
0
  0
VERTEX
  8
0
 10
6.53706
 20
8.03808
 30
0.0
 40
0
 41
0
  0
VERTEX
  8
0
 10
6.55643
 20
8.04872
 30
0.0
 40
0
 41
0
  0
VERTEX
  8
0
 10
6.56288
 20
8.04872
 30
0.0
 40
0
 41
0
  0
VERTEX
  8
0
 10
6.56928
 20
8.04872
 30
0.0
 40
0
 41
0
  0
VERTEX
  8
0
 10
6.58865
 20
8.03808
 30
0.0
 40
0
 41
0
  0
VERTEX
  8
0
 10
6.59933
 20
8.01872
 30
0.0
 40
0
 41
0
  0
VERTEX
  8
0
 10
6.59933
 20
8.01226
 30
0.0
 40
0
 41
0
  0
VERTEX
  8
0
 10
6.59933
 20
8.00586
 30
0.0
 40
0
 41
0
  0
VERTEX
  8
0
 10
6.58865
 20
7.98649
 30
0.0
 40
0
 41
0
  0
VERTEX
  8
0
 10
6.56928
 20
7.97581
 30
0.0
 40
0
 41
0
  0
VERTEX
  8
0
 10
6.56288
 20
7.97581
 30
0.0
 40
0
 41
0
  0
SEQEND
 8
0
  0
POLYLINE
  8
0
 62
     0
 66
     1
 10
0
 20
0
 30
0.0
 70
     1
 40
0.6
 41
0.6
  0
VERTEX
  8
0
 10
6.56288
 20
7.97581
 30
0.0
 40
0.00833333
 41
0.00833333
  0
VERTEX
  8
0
 10
6.55643
 20
7.97581
 30
0.0
 40
0.00833333
 41
0.00833333
  0
VERTEX
  8
0
 10
6.53706
 20
7.98649
 30
0.0
 40
0.00833333
 41
0.00833333
  0
VERTEX
  8
0
 10
6.52642
 20
8.00586
 30
0.0
 40
0.00833333
 41
0.00833333
  0
VERTEX
  8
0
 10
6.52642
 20
8.01226
 30
0.0
 40
0.00833333
 41
0.00833333
  0
VERTEX
  8
0
 10
6.52642
 20
8.01872
 30
0.0
 40
0.00833333
 41
0.00833333
  0
VERTEX
  8
0
 10
6.53706
 20
8.03808
 30
0.0
 40
0.00833333
 41
0.00833333
  0
VERTEX
  8
0
 10
6.55643
 20
8.04872
 30
0.0
 40
0.00833333
 41
0.00833333
  0
VERTEX
  8
0
 10
6.56288
 20
8.04872
 30
0.0
 40
0.00833333
 41
0.00833333
  0
VERTEX
  8
0
 10
6.56928
 20
8.04872
 30
0.0
 40
0.00833333
 41
0.00833333
  0
VERTEX
  8
0
 10
6.58865
 20
8.03808
 30
0.0
 40
0.00833333
 41
0.00833333
  0
VERTEX
  8
0
 10
6.59933
 20
8.01872
 30
0.0
 40
0.00833333
 41
0.00833333
  0
VERTEX
  8
0
 10
6.59933
 20
8.01226
 30
0.0
 40
0.00833333
 41
0.00833333
  0
VERTEX
  8
0
 10
6.59933
 20
8.00586
 30
0.0
 40
0.00833333
 41
0.00833333
  0
VERTEX
  8
0
 10
6.58865
 20
7.98649
 30
0.0
 40
0.00833333
 41
0.00833333
  0
VERTEX
  8
0
 10
6.56928
 20
7.97581
 30
0.0
 40
0.00833333
 41
0.00833333
  0
VERTEX
  8
0
 10
6.56288
 20
7.97581
 30
0.0
 40
0.00833333
 41
0.00833333
  0
SEQEND
 8
0
  0
POLYLINE
  8
0
 62
     7
 66
     1
 10
0
 20
0
 30
0.0
 70
     1
 40
0
 41
0
  0
VERTEX
  8
0
 10
6.56288
 20
7.65614
 30
0.0
 40
0
 41
0
  0
VERTEX
  8
0
 10
6.55643
 20
7.65614
 30
0.0
 40
0
 41
0
  0
VERTEX
  8
0
 10
6.53706
 20
7.66683
 30
0.0
 40
0
 41
0
  0
VERTEX
  8
0
 10
6.52642
 20
7.68619
 30
0.0
 40
0
 41
0
  0
VERTEX
  8
0
 10
6.52642
 20
7.6926
 30
0.0
 40
0
 41
0
  0
VERTEX
  8
0
 10
6.52642
 20
7.69906
 30
0.0
 40
0
 41
0
  0
VERTEX
  8
0
 10
6.53706
 20
7.71843
 30
0.0
 40
0
 41
0
  0
VERTEX
  8
0
 10
6.55643
 20
7.72906
 30
0.0
 40
0
 41
0
  0
VERTEX
  8
0
 10
6.56288
 20
7.72906
 30
0.0
 40
0
 41
0
  0
VERTEX
  8
0
 10
6.56928
 20
7.72906
 30
0.0
 40
0
 41
0
  0
VERTEX
  8
0
 10
6.58865
 20
7.71843
 30
0.0
 40
0
 41
0
  0
VERTEX
  8
0
 10
6.59933
 20
7.69906
 30
0.0
 40
0
 41
0
  0
VERTEX
  8
0
 10
6.59933
 20
7.6926
 30
0.0
 40
0
 41
0
  0
VERTEX
  8
0
 10
6.59933
 20
7.68619
 30
0.0
 40
0
 41
0
  0
VERTEX
  8
0
 10
6.58865
 20
7.66683
 30
0.0
 40
0
 41
0
  0
VERTEX
  8
0
 10
6.56928
 20
7.65614
 30
0.0
 40
0
 41
0
  0
VERTEX
  8
0
 10
6.56288
 20
7.65614
 30
0.0
 40
0
 41
0
  0
SEQEND
 8
0
  0
POLYLINE
  8
0
 62
     0
 66
     1
 10
0
 20
0
 30
0.0
 70
     1
 40
0.6
 41
0.6
  0
VERTEX
  8
0
 10
6.56288
 20
7.65614
 30
0.0
 40
0.00833333
 41
0.00833333
  0
VERTEX
  8
0
 10
6.55643
 20
7.65614
 30
0.0
 40
0.00833333
 41
0.00833333
  0
VERTEX
  8
0
 10
6.53706
 20
7.66683
 30
0.0
 40
0.00833333
 41
0.00833333
  0
VERTEX
  8
0
 10
6.52642
 20
7.68619
 30
0.0
 40
0.00833333
 41
0.00833333
  0
VERTEX
  8
0
 10
6.52642
 20
7.6926
 30
0.0
 40
0.00833333
 41
0.00833333
  0
VERTEX
  8
0
 10
6.52642
 20
7.69906
 30
0.0
 40
0.00833333
 41
0.00833333
  0
VERTEX
  8
0
 10
6.53706
 20
7.71843
 30
0.0
 40
0.00833333
 41
0.00833333
  0
VERTEX
  8
0
 10
6.55643
 20
7.72906
 30
0.0
 40
0.00833333
 41
0.00833333
  0
VERTEX
  8
0
 10
6.56288
 20
7.72906
 30
0.0
 40
0.00833333
 41
0.00833333
  0
VERTEX
  8
0
 10
6.56928
 20
7.72906
 30
0.0
 40
0.00833333
 41
0.00833333
  0
VERTEX
  8
0
 10
6.58865
 20
7.71843
 30
0.0
 40
0.00833333
 41
0.00833333
  0
VERTEX
  8
0
 10
6.59933
 20
7.69906
 30
0.0
 40
0.00833333
 41
0.00833333
  0
VERTEX
  8
0
 10
6.59933
 20
7.6926
 30
0.0
 40
0.00833333
 41
0.00833333
  0
VERTEX
  8
0
 10
6.59933
 20
7.68619
 30
0.0
 40
0.00833333
 41
0.00833333
  0
VERTEX
  8
0
 10
6.58865
 20
7.66683
 30
0.0
 40
0.00833333
 41
0.00833333
  0
VERTEX
  8
0
 10
6.56928
 20
7.65614
 30
0.0
 40
0.00833333
 41
0.00833333
  0
VERTEX
  8
0
 10
6.56288
 20
7.65614
 30
0.0
 40
0.00833333
 41
0.00833333
  0
SEQEND
 8
0
  0
POLYLINE
  8
0
 62
     7
 66
     1
 10
0
 20
0
 30
0.0
 70
     1
 40
0
 41
0
  0
VERTEX
  8
0
 10
6.56288
 20
7.99143
 30
0.0
 40
0
 41
0
  0
VERTEX
  8
0
 10
6.55919
 20
7.99143
 30
0.0
 40
0
 41
0
  0
VERTEX
  8
0
 10
6.54812
 20
7.99756
 30
0.0
 40
0
 41
0
  0
VERTEX
  8
0
 10
6.54204
 20
8.00862
 30
0.0
 40
0
 41
0
  0
VERTEX
  8
0
 10
6.54204
 20
8.01226
 30
0.0
 40
0
 41
0
  0
VERTEX
  8
0
 10
6.54204
 20
8.01594
 30
0.0
 40
0
 41
0
  0
VERTEX
  8
0
 10
6.54812
 20
8.02701
 30
0.0
 40
0
 41
0
  0
VERTEX
  8
0
 10
6.55919
 20
8.0331
 30
0.0
 40
0
 41
0
  0
VERTEX
  8
0
 10
6.56288
 20
8.0331
 30
0.0
 40
0
 41
0
  0
VERTEX
  8
0
 10
6.56651
 20
8.0331
 30
0.0
 40
0
 41
0
  0
VERTEX
  8
0
 10
6.57758
 20
8.02701
 30
0.0
 40
0
 41
0
  0
VERTEX
  8
0
 10
6.58371
 20
8.01594
 30
0.0
 40
0
 41
0
  0
VERTEX
  8
0
 10
6.58371
 20
8.01226
 30
0.0
 40
0
 41
0
  0
VERTEX
  8
0
 10
6.58371
 20
8.00862
 30
0.0
 40
0
 41
0
  0
VERTEX
  8
0
 10
6.57758
 20
7.99756
 30
0.0
 40
0
 41
0
  0
VERTEX
  8
0
 10
6.56651
 20
7.99143
 30
0.0
 40
0
 41
0
  0
VERTEX
  8
0
 10
6.56288
 20
7.99143
 30
0.0
 40
0
 41
0
  0
SEQEND
 8
0
  0
POLYLINE
  8
0
 62
     0
 66
     1
 10
0
 20
0
 30
0.0
 70
     1
 40
0.6
 41
0.6
  0
VERTEX
  8
0
 10
6.56288
 20
7.99143
 30
0.0
 40
0.00833333
 41
0.00833333
  0
VERTEX
  8
0
 10
6.55919
 20
7.99143
 30
0.0
 40
0.00833333
 41
0.00833333
  0
VERTEX
  8
0
 10
6.54812
 20
7.99756
 30
0.0
 40
0.00833333
 41
0.00833333
  0
VERTEX
  8
0
 10
6.54204
 20
8.00862
 30
0.0
 40
0.00833333
 41
0.00833333
  0
VERTEX
  8
0
 10
6.54204
 20
8.01226
 30
0.0
 40
0.00833333
 41
0.00833333
  0
VERTEX
  8
0
 10
6.54204
 20
8.01594
 30
0.0
 40
0.00833333
 41
0.00833333
  0
VERTEX
  8
0
 10
6.54812
 20
8.02701
 30
0.0
 40
0.00833333
 41
0.00833333
  0
VERTEX
  8
0
 10
6.55919
 20
8.0331
 30
0.0
 40
0.00833333
 41
0.00833333
  0
VERTEX
  8
0
 10
6.56288
 20
8.0331
 30
0.0
 40
0.00833333
 41
0.00833333
  0
VERTEX
  8
0
 10
6.56651
 20
8.0331
 30
0.0
 40
0.00833333
 41
0.00833333
  0
VERTEX
  8
0
 10
6.57758
 20
8.02701
 30
0.0
 40
0.00833333
 41
0.00833333
  0
VERTEX
  8
0
 10
6.58371
 20
8.01594
 30
0.0
 40
0.00833333
 41
0.00833333
  0
VERTEX
  8
0
 10
6.58371
 20
8.01226
 30
0.0
 40
0.00833333
 41
0.00833333
  0
VERTEX
  8
0
 10
6.58371
 20
8.00862
 30
0.0
 40
0.00833333
 41
0.00833333
  0
VERTEX
  8
0
 10
6.57758
 20
7.99756
 30
0.0
 40
0.00833333
 41
0.00833333
  0
VERTEX
  8
0
 10
6.56651
 20
7.99143
 30
0.0
 40
0.00833333
 41
0.00833333
  0
VERTEX
  8
0
 10
6.56288
 20
7.99143
 30
0.0
 40
0.00833333
 41
0.00833333
  0
SEQEND
 8
0
  0
POLYLINE
  8
0
 62
     7
 66
     1
 10
0
 20
0
 30
0.0
 70
     1
 40
0
 41
0
  0
VERTEX
  8
0
 10
6.56288
 20
7.67176
 30
0.0
 40
0
 41
0
  0
VERTEX
  8
0
 10
6.55919
 20
7.67176
 30
0.0
 40
0
 41
0
  0
VERTEX
  8
0
 10
6.54812
 20
7.6779
 30
0.0
 40
0
 41
0
  0
VERTEX
  8
0
 10
6.54204
 20
7.68896
 30
0.0
 40
0
 41
0
  0
VERTEX
  8
0
 10
6.54204
 20
7.6926
 30
0.0
 40
0
 41
0
  0
VERTEX
  8
0
 10
6.54204
 20
7.69629
 30
0.0
 40
0
 41
0
  0
VERTEX
  8
0
 10
6.54812
 20
7.70736
 30
0.0
 40
0
 41
0
  0
VERTEX
  8
0
 10
6.55919
 20
7.71343
 30
0.0
 40
0
 41
0
  0
VERTEX
  8
0
 10
6.56288
 20
7.71343
 30
0.0
 40
0
 41
0
  0
VERTEX
  8
0
 10
6.56651
 20
7.71343
 30
0.0
 40
0
 41
0
  0
VERTEX
  8
0
 10
6.57758
 20
7.70736
 30
0.0
 40
0
 41
0
  0
VERTEX
  8
0
 10
6.58371
 20
7.69629
 30
0.0
 40
0
 41
0
  0
VERTEX
  8
0
 10
6.58371
 20
7.6926
 30
0.0
 40
0
 41
0
  0
VERTEX
  8
0
 10
6.58371
 20
7.68896
 30
0.0
 40
0
 41
0
  0
VERTEX
  8
0
 10
6.57758
 20
7.6779
 30
0.0
 40
0
 41
0
  0
VERTEX
  8
0
 10
6.56651
 20
7.67176
 30
0.0
 40
0
 41
0
  0
VERTEX
  8
0
 10
6.56288
 20
7.67176
 30
0.0
 40
0
 41
0
  0
SEQEND
 8
0
  0
POLYLINE
  8
0
 62
     0
 66
     1
 10
0
 20
0
 30
0.0
 70
     1
 40
0.6
 41
0.6
  0
VERTEX
  8
0
 10
6.56288
 20
7.67176
 30
0.0
 40
0.00833333
 41
0.00833333
  0
VERTEX
  8
0
 10
6.55919
 20
7.67176
 30
0.0
 40
0.00833333
 41
0.00833333
  0
VERTEX
  8
0
 10
6.54812
 20
7.6779
 30
0.0
 40
0.00833333
 41
0.00833333
  0
VERTEX
  8
0
 10
6.54204
 20
7.68896
 30
0.0
 40
0.00833333
 41
0.00833333
  0
VERTEX
  8
0
 10
6.54204
 20
7.6926
 30
0.0
 40
0.00833333
 41
0.00833333
  0
VERTEX
  8
0
 10
6.54204
 20
7.69629
 30
0.0
 40
0.00833333
 41
0.00833333
  0
VERTEX
  8
0
 10
6.54812
 20
7.70736
 30
0.0
 40
0.00833333
 41
0.00833333
  0
VERTEX
  8
0
 10
6.55919
 20
7.71343
 30
0.0
 40
0.00833333
 41
0.00833333
  0
VERTEX
  8
0
 10
6.56288
 20
7.71343
 30
0.0
 40
0.00833333
 41
0.00833333
  0
VERTEX
  8
0
 10
6.56651
 20
7.71343
 30
0.0
 40
0.00833333
 41
0.00833333
  0
VERTEX
  8
0
 10
6.57758
 20
7.70736
 30
0.0
 40
0.00833333
 41
0.00833333
  0
VERTEX
  8
0
 10
6.58371
 20
7.69629
 30
0.0
 40
0.00833333
 41
0.00833333
  0
VERTEX
  8
0
 10
6.58371
 20
7.6926
 30
0.0
 40
0.00833333
 41
0.00833333
  0
VERTEX
  8
0
 10
6.58371
 20
7.68896
 30
0.0
 40
0.00833333
 41
0.00833333
  0
VERTEX
  8
0
 10
6.57758
 20
7.6779
 30
0.0
 40
0.00833333
 41
0.00833333
  0
VERTEX
  8
0
 10
6.56651
 20
7.67176
 30
0.0
 40
0.00833333
 41
0.00833333
  0
VERTEX
  8
0
 10
6.56288
 20
7.67176
 30
0.0
 40
0.00833333
 41
0.00833333
  0
SEQEND
 8
0
  0
POLYLINE
  8
0
 62
     7
 66
     1
 10
0
 20
0
 30
0.0
 70
     1
 40
0
 41
0
  0
VERTEX
  8
0
 10
6.67817
 20
7.88331
 30
0.0
 40
0
 41
0
  0
VERTEX
  8
0
 10
6.824
 20
7.88331
 30
0.0
 40
0
 41
0
  0
VERTEX
  8
0
 10
6.824
 20
7.82081
 30
0.0
 40
0
 41
0
  0
VERTEX
  8
0
 10
6.67817
 20
7.82081
 30
0.0
 40
0
 41
0
  0
VERTEX
  8
0
 10
6.67817
 20
7.88331
 30
0.0
 40
0
 41
0
  0
SEQEND
 8
0
  0
POLYLINE
  8
0
 62
     0
 66
     1
 10
0
 20
0
 30
0.0
 70
     1
 40
0.75
 41
0.75
  0
VERTEX
  8
0
 10
6.67817
 20
7.88331
 30
0.0
 40
0.0104167
 41
0.0104167
  0
VERTEX
  8
0
 10
6.67817
 20
7.82081
 30
0.0
 40
0.0104167
 41
0.0104167
  0
VERTEX
  8
0
 10
6.824
 20
7.82081
 30
0.0
 40
0.0104167
 41
0.0104167
  0
VERTEX
  8
0
 10
6.824
 20
7.88331
 30
0.0
 40
0.0104167
 41
0.0104167
  0
VERTEX
  8
0
 10
6.67817
 20
7.88331
 30
0.0
 40
0.0104167
 41
0.0104167
  0
SEQEND
 8
0
  0
POLYLINE
  8
0
 62
     7
 66
     1
 10
0
 20
0
 30
0.0
 70
     1
 40
0
 41
0
  0
VERTEX
  8
0
 10
6.31668
 20
9.28831
 30
0.0
 40
0
 41
0
  0
VERTEX
  8
0
 10
6.91292
 20
9.28831
 30
0.0
 40
0
 41
0
  0
VERTEX
  8
0
 10
6.91292
 20
8.78478
 30
0.0
 40
0
 41
0
  0
VERTEX
  8
0
 10
6.31668
 20
8.78478
 30
0.0
 40
0
 41
0
  0
VERTEX
  8
0
 10
6.31668
 20
9.28831
 30
0.0
 40
0
 41
0
  0
SEQEND
 8
0
  0
POLYLINE
  8
0
 62
     0
 66
     1
 10
0
 20
0
 30
0.0
 70
     1
 40
0.75
 41
0.75
  0
VERTEX
  8
0
 10
6.31668
 20
9.28831
 30
0.0
 40
0.0104167
 41
0.0104167
  0
VERTEX
  8
0
 10
6.31668
 20
8.78478
 30
0.0
 40
0.0104167
 41
0.0104167
  0
VERTEX
  8
0
 10
6.91292
 20
8.78478
 30
0.0
 40
0.0104167
 41
0.0104167
  0
VERTEX
  8
0
 10
6.91292
 20
9.28831
 30
0.0
 40
0.0104167
 41
0.0104167
  0
VERTEX
  8
0
 10
6.31668
 20
9.28831
 30
0.0
 40
0.0104167
 41
0.0104167
  0
SEQEND
 8
0
  0
POLYLINE
  8
0
 62
     7
 66
     1
 10
0
 20
0
 30
0.0
 70
     1
 40
0
 41
0
  0
VERTEX
  8
0
 10
6.76357
 20
9.08117
 30
0.0
 40
0
 41
0
  0
VERTEX
  8
0
 10
6.75543
 20
9.08117
 30
0.0
 40
0
 41
0
  0
VERTEX
  8
0
 10
6.73107
 20
9.08772
 30
0.0
 40
0
 41
0
  0
VERTEX
  8
0
 10
6.70458
 20
9.10558
 30
0.0
 40
0
 41
0
  0
VERTEX
  8
0
 10
6.68674
 20
9.13211
 30
0.0
 40
0
 41
0
  0
VERTEX
  8
0
 10
6.68024
 20
9.15642
 30
0.0
 40
0
 41
0
  0
VERTEX
  8
0
 10
6.68024
 20
9.1645
 30
0.0
 40
0
 41
0
  0
VERTEX
  8
0
 10
6.68024
 20
9.17264
 30
0.0
 40
0
 41
0
  0
VERTEX
  8
0
 10
6.68674
 20
9.19694
 30
0.0
 40
0
 41
0
  0
VERTEX
  8
0
 10
6.70458
 20
9.22342
 30
0.0
 40
0
 41
0
  0
VERTEX
  8
0
 10
6.73107
 20
9.24132
 30
0.0
 40
0
 41
0
  0
VERTEX
  8
0
 10
6.75543
 20
9.24783
 30
0.0
 40
0
 41
0
  0
VERTEX
  8
0
 10
6.76357
 20
9.24783
 30
0.0
 40
0
 41
0
  0
VERTEX
  8
0
 10
6.77165
 20
9.24783
 30
0.0
 40
0
 41
0
  0
VERTEX
  8
0
 10
6.79596
 20
9.24132
 30
0.0
 40
0
 41
0
  0
VERTEX
  8
0
 10
6.82249
 20
9.22342
 30
0.0
 40
0
 41
0
  0
VERTEX
  8
0
 10
6.84033
 20
9.19694
 30
0.0
 40
0
 41
0
  0
VERTEX
  8
0
 10
6.8469
 20
9.17264
 30
0.0
 40
0
 41
0
  0
VERTEX
  8
0
 10
6.8469
 20
9.1645
 30
0.0
 40
0
 41
0
  0
VERTEX
  8
0
 10
6.8469
 20
9.15642
 30
0.0
 40
0
 41
0
  0
VERTEX
  8
0
 10
6.84033
 20
9.13211
 30
0.0
 40
0
 41
0
  0
VERTEX
  8
0
 10
6.82249
 20
9.10558
 30
0.0
 40
0
 41
0
  0
VERTEX
  8
0
 10
6.79596
 20
9.08772
 30
0.0
 40
0
 41
0
  0
VERTEX
  8
0
 10
6.77165
 20
9.08117
 30
0.0
 40
0
 41
0
  0
VERTEX
  8
0
 10
6.76357
 20
9.08117
 30
0.0
 40
0
 41
0
  0
SEQEND
 8
0
  0
POLYLINE
  8
0
 62
     0
 66
     1
 10
0
 20
0
 30
0.0
 70
     1
 40
0.75
 41
0.75
  0
VERTEX
  8
0
 10
6.76357
 20
9.08117
 30
0.0
 40
0.0104167
 41
0.0104167
  0
VERTEX
  8
0
 10
6.75543
 20
9.08117
 30
0.0
 40
0.0104167
 41
0.0104167
  0
VERTEX
  8
0
 10
6.73107
 20
9.08772
 30
0.0
 40
0.0104167
 41
0.0104167
  0
VERTEX
  8
0
 10
6.70458
 20
9.10558
 30
0.0
 40
0.0104167
 41
0.0104167
  0
VERTEX
  8
0
 10
6.68674
 20
9.13211
 30
0.0
 40
0.0104167
 41
0.0104167
  0
VERTEX
  8
0
 10
6.68024
 20
9.15642
 30
0.0
 40
0.0104167
 41
0.0104167
  0
VERTEX
  8
0
 10
6.68024
 20
9.1645
 30
0.0
 40
0.0104167
 41
0.0104167
  0
VERTEX
  8
0
 10
6.68024
 20
9.17264
 30
0.0
 40
0.0104167
 41
0.0104167
  0
VERTEX
  8
0
 10
6.68674
 20
9.19694
 30
0.0
 40
0.0104167
 41
0.0104167
  0
VERTEX
  8
0
 10
6.70458
 20
9.22342
 30
0.0
 40
0.0104167
 41
0.0104167
  0
VERTEX
  8
0
 10
6.73107
 20
9.24132
 30
0.0
 40
0.0104167
 41
0.0104167
  0
VERTEX
  8
0
 10
6.75543
 20
9.24783
 30
0.0
 40
0.0104167
 41
0.0104167
  0
VERTEX
  8
0
 10
6.76357
 20
9.24783
 30
0.0
 40
0.0104167
 41
0.0104167
  0
VERTEX
  8
0
 10
6.77165
 20
9.24783
 30
0.0
 40
0.0104167
 41
0.0104167
  0
VERTEX
  8
0
 10
6.79596
 20
9.24132
 30
0.0
 40
0.0104167
 41
0.0104167
  0
VERTEX
  8
0
 10
6.82249
 20
9.22342
 30
0.0
 40
0.0104167
 41
0.0104167
  0
VERTEX
  8
0
 10
6.84033
 20
9.19694
 30
0.0
 40
0.0104167
 41
0.0104167
  0
VERTEX
  8
0
 10
6.8469
 20
9.17264
 30
0.0
 40
0.0104167
 41
0.0104167
  0
VERTEX
  8
0
 10
6.8469
 20
9.1645
 30
0.0
 40
0.0104167
 41
0.0104167
  0
VERTEX
  8
0
 10
6.8469
 20
9.15642
 30
0.0
 40
0.0104167
 41
0.0104167
  0
VERTEX
  8
0
 10
6.84033
 20
9.13211
 30
0.0
 40
0.0104167
 41
0.0104167
  0
VERTEX
  8
0
 10
6.82249
 20
9.10558
 30
0.0
 40
0.0104167
 41
0.0104167
  0
VERTEX
  8
0
 10
6.79596
 20
9.08772
 30
0.0
 40
0.0104167
 41
0.0104167
  0
VERTEX
  8
0
 10
6.77165
 20
9.08117
 30
0.0
 40
0.0104167
 41
0.0104167
  0
VERTEX
  8
0
 10
6.76357
 20
9.08117
 30
0.0
 40
0.0104167
 41
0.0104167
  0
SEQEND
 8
0
  0
POLYLINE
  8
0
 62
     7
 66
     1
 10
0
 20
0
 30
0.0
 70
     1
 40
0
 41
0
  0
VERTEX
  8
0
 10
6.76357
 20
8.82801
 30
0.0
 40
0
 41
0
  0
VERTEX
  8
0
 10
6.75543
 20
8.82801
 30
0.0
 40
0
 41
0
  0
VERTEX
  8
0
 10
6.73107
 20
8.83458
 30
0.0
 40
0
 41
0
  0
VERTEX
  8
0
 10
6.70458
 20
8.85243
 30
0.0
 40
0
 41
0
  0
VERTEX
  8
0
 10
6.68674
 20
8.87896
 30
0.0
 40
0
 41
0
  0
VERTEX
  8
0
 10
6.68024
 20
8.90326
 30
0.0
 40
0
 41
0
  0
VERTEX
  8
0
 10
6.68024
 20
8.91135
 30
0.0
 40
0
 41
0
  0
VERTEX
  8
0
 10
6.68024
 20
8.91949
 30
0.0
 40
0
 41
0
  0
VERTEX
  8
0
 10
6.68674
 20
8.94379
 30
0.0
 40
0
 41
0
  0
VERTEX
  8
0
 10
6.70458
 20
8.97026
 30
0.0
 40
0
 41
0
  0
VERTEX
  8
0
 10
6.73107
 20
8.98817
 30
0.0
 40
0
 41
0
  0
VERTEX
  8
0
 10
6.75543
 20
8.99468
 30
0.0
 40
0
 41
0
  0
VERTEX
  8
0
 10
6.76357
 20
8.99468
 30
0.0
 40
0
 41
0
  0
VERTEX
  8
0
 10
6.77165
 20
8.99468
 30
0.0
 40
0
 41
0
  0
VERTEX
  8
0
 10
6.79596
 20
8.98817
 30
0.0
 40
0
 41
0
  0
VERTEX
  8
0
 10
6.82249
 20
8.97026
 30
0.0
 40
0
 41
0
  0
VERTEX
  8
0
 10
6.84033
 20
8.94379
 30
0.0
 40
0
 41
0
  0
VERTEX
  8
0
 10
6.8469
 20
8.91949
 30
0.0
 40
0
 41
0
  0
VERTEX
  8
0
 10
6.8469
 20
8.91135
 30
0.0
 40
0
 41
0
  0
VERTEX
  8
0
 10
6.8469
 20
8.90326
 30
0.0
 40
0
 41
0
  0
VERTEX
  8
0
 10
6.84033
 20
8.87896
 30
0.0
 40
0
 41
0
  0
VERTEX
  8
0
 10
6.82249
 20
8.85243
 30
0.0
 40
0
 41
0
  0
VERTEX
  8
0
 10
6.79596
 20
8.83458
 30
0.0
 40
0
 41
0
  0
VERTEX
  8
0
 10
6.77165
 20
8.82801
 30
0.0
 40
0
 41
0
  0
VERTEX
  8
0
 10
6.76357
 20
8.82801
 30
0.0
 40
0
 41
0
  0
SEQEND
 8
0
  0
POLYLINE
  8
0
 62
     0
 66
     1
 10
0
 20
0
 30
0.0
 70
     1
 40
0.75
 41
0.75
  0
VERTEX
  8
0
 10
6.76357
 20
8.82801
 30
0.0
 40
0.0104167
 41
0.0104167
  0
VERTEX
  8
0
 10
6.75543
 20
8.82801
 30
0.0
 40
0.0104167
 41
0.0104167
  0
VERTEX
  8
0
 10
6.73107
 20
8.83458
 30
0.0
 40
0.0104167
 41
0.0104167
  0
VERTEX
  8
0
 10
6.70458
 20
8.85243
 30
0.0
 40
0.0104167
 41
0.0104167
  0
VERTEX
  8
0
 10
6.68674
 20
8.87896
 30
0.0
 40
0.0104167
 41
0.0104167
  0
VERTEX
  8
0
 10
6.68024
 20
8.90326
 30
0.0
 40
0.0104167
 41
0.0104167
  0
VERTEX
  8
0
 10
6.68024
 20
8.91135
 30
0.0
 40
0.0104167
 41
0.0104167
  0
VERTEX
  8
0
 10
6.68024
 20
8.91949
 30
0.0
 40
0.0104167
 41
0.0104167
  0
VERTEX
  8
0
 10
6.68674
 20
8.94379
 30
0.0
 40
0.0104167
 41
0.0104167
  0
VERTEX
  8
0
 10
6.70458
 20
8.97026
 30
0.0
 40
0.0104167
 41
0.0104167
  0
VERTEX
  8
0
 10
6.73107
 20
8.98817
 30
0.0
 40
0.0104167
 41
0.0104167
  0
VERTEX
  8
0
 10
6.75543
 20
8.99468
 30
0.0
 40
0.0104167
 41
0.0104167
  0
VERTEX
  8
0
 10
6.76357
 20
8.99468
 30
0.0
 40
0.0104167
 41
0.0104167
  0
VERTEX
  8
0
 10
6.77165
 20
8.99468
 30
0.0
 40
0.0104167
 41
0.0104167
  0
VERTEX
  8
0
 10
6.79596
 20
8.98817
 30
0.0
 40
0.0104167
 41
0.0104167
  0
VERTEX
  8
0
 10
6.82249
 20
8.97026
 30
0.0
 40
0.0104167
 41
0.0104167
  0
VERTEX
  8
0
 10
6.84033
 20
8.94379
 30
0.0
 40
0.0104167
 41
0.0104167
  0
VERTEX
  8
0
 10
6.8469
 20
8.91949
 30
0.0
 40
0.0104167
 41
0.0104167
  0
VERTEX
  8
0
 10
6.8469
 20
8.91135
 30
0.0
 40
0.0104167
 41
0.0104167
  0
VERTEX
  8
0
 10
6.8469
 20
8.90326
 30
0.0
 40
0.0104167
 41
0.0104167
  0
VERTEX
  8
0
 10
6.84033
 20
8.87896
 30
0.0
 40
0.0104167
 41
0.0104167
  0
VERTEX
  8
0
 10
6.82249
 20
8.85243
 30
0.0
 40
0.0104167
 41
0.0104167
  0
VERTEX
  8
0
 10
6.79596
 20
8.83458
 30
0.0
 40
0.0104167
 41
0.0104167
  0
VERTEX
  8
0
 10
6.77165
 20
8.82801
 30
0.0
 40
0.0104167
 41
0.0104167
  0
VERTEX
  8
0
 10
6.76357
 20
8.82801
 30
0.0
 40
0.0104167
 41
0.0104167
  0
SEQEND
 8
0
  0
POLYLINE
  8
0
 62
     7
 66
     1
 10
0
 20
0
 30
0.0
 70
     1
 40
0
 41
0
  0
VERTEX
  8
0
 10
6.46565
 20
9.08117
 30
0.0
 40
0
 41
0
  0
VERTEX
  8
0
 10
6.45751
 20
9.08117
 30
0.0
 40
0
 41
0
  0
VERTEX
  8
0
 10
6.43321
 20
9.08772
 30
0.0
 40
0
 41
0
  0
VERTEX
  8
0
 10
6.40674
 20
9.10558
 30
0.0
 40
0
 41
0
  0
VERTEX
  8
0
 10
6.38883
 20
9.13211
 30
0.0
 40
0
 41
0
  0
VERTEX
  8
0
 10
6.38232
 20
9.15642
 30
0.0
 40
0
 41
0
  0
VERTEX
  8
0
 10
6.38232
 20
9.1645
 30
0.0
 40
0
 41
0
  0
VERTEX
  8
0
 10
6.38232
 20
9.17264
 30
0.0
 40
0
 41
0
  0
VERTEX
  8
0
 10
6.38883
 20
9.19694
 30
0.0
 40
0
 41
0
  0
VERTEX
  8
0
 10
6.40674
 20
9.22342
 30
0.0
 40
0
 41
0
  0
VERTEX
  8
0
 10
6.43321
 20
9.24132
 30
0.0
 40
0
 41
0
  0
VERTEX
  8
0
 10
6.45751
 20
9.24783
 30
0.0
 40
0
 41
0
  0
VERTEX
  8
0
 10
6.46565
 20
9.24783
 30
0.0
 40
0
 41
0
  0
VERTEX
  8
0
 10
6.47374
 20
9.24783
 30
0.0
 40
0
 41
0
  0
VERTEX
  8
0
 10
6.49804
 20
9.24132
 30
0.0
 40
0
 41
0
  0
VERTEX
  8
0
 10
6.52458
 20
9.22342
 30
0.0
 40
0
 41
0
  0
VERTEX
  8
0
 10
6.54243
 20
9.19694
 30
0.0
 40
0
 41
0
  0
VERTEX
  8
0
 10
6.54899
 20
9.17264
 30
0.0
 40
0
 41
0
  0
VERTEX
  8
0
 10
6.54899
 20
9.1645
 30
0.0
 40
0
 41
0
  0
VERTEX
  8
0
 10
6.54899
 20
9.15642
 30
0.0
 40
0
 41
0
  0
VERTEX
  8
0
 10
6.54243
 20
9.13211
 30
0.0
 40
0
 41
0
  0
VERTEX
  8
0
 10
6.52458
 20
9.10558
 30
0.0
 40
0
 41
0
  0
VERTEX
  8
0
 10
6.49804
 20
9.08772
 30
0.0
 40
0
 41
0
  0
VERTEX
  8
0
 10
6.47374
 20
9.08117
 30
0.0
 40
0
 41
0
  0
VERTEX
  8
0
 10
6.46565
 20
9.08117
 30
0.0
 40
0
 41
0
  0
SEQEND
 8
0
  0
POLYLINE
  8
0
 62
     0
 66
     1
 10
0
 20
0
 30
0.0
 70
     1
 40
0.75
 41
0.75
  0
VERTEX
  8
0
 10
6.46565
 20
9.08117
 30
0.0
 40
0.0104167
 41
0.0104167
  0
VERTEX
  8
0
 10
6.45751
 20
9.08117
 30
0.0
 40
0.0104167
 41
0.0104167
  0
VERTEX
  8
0
 10
6.43321
 20
9.08772
 30
0.0
 40
0.0104167
 41
0.0104167
  0
VERTEX
  8
0
 10
6.40674
 20
9.10558
 30
0.0
 40
0.0104167
 41
0.0104167
  0
VERTEX
  8
0
 10
6.38883
 20
9.13211
 30
0.0
 40
0.0104167
 41
0.0104167
  0
VERTEX
  8
0
 10
6.38232
 20
9.15642
 30
0.0
 40
0.0104167
 41
0.0104167
  0
VERTEX
  8
0
 10
6.38232
 20
9.1645
 30
0.0
 40
0.0104167
 41
0.0104167
  0
VERTEX
  8
0
 10
6.38232
 20
9.17264
 30
0.0
 40
0.0104167
 41
0.0104167
  0
VERTEX
  8
0
 10
6.38883
 20
9.19694
 30
0.0
 40
0.0104167
 41
0.0104167
  0
VERTEX
  8
0
 10
6.40674
 20
9.22342
 30
0.0
 40
0.0104167
 41
0.0104167
  0
VERTEX
  8
0
 10
6.43321
 20
9.24132
 30
0.0
 40
0.0104167
 41
0.0104167
  0
VERTEX
  8
0
 10
6.45751
 20
9.24783
 30
0.0
 40
0.0104167
 41
0.0104167
  0
VERTEX
  8
0
 10
6.46565
 20
9.24783
 30
0.0
 40
0.0104167
 41
0.0104167
  0
VERTEX
  8
0
 10
6.47374
 20
9.24783
 30
0.0
 40
0.0104167
 41
0.0104167
  0
VERTEX
  8
0
 10
6.49804
 20
9.24132
 30
0.0
 40
0.0104167
 41
0.0104167
  0
VERTEX
  8
0
 10
6.52458
 20
9.22342
 30
0.0
 40
0.0104167
 41
0.0104167
  0
VERTEX
  8
0
 10
6.54243
 20
9.19694
 30
0.0
 40
0.0104167
 41
0.0104167
  0
VERTEX
  8
0
 10
6.54899
 20
9.17264
 30
0.0
 40
0.0104167
 41
0.0104167
  0
VERTEX
  8
0
 10
6.54899
 20
9.1645
 30
0.0
 40
0.0104167
 41
0.0104167
  0
VERTEX
  8
0
 10
6.54899
 20
9.15642
 30
0.0
 40
0.0104167
 41
0.0104167
  0
VERTEX
  8
0
 10
6.54243
 20
9.13211
 30
0.0
 40
0.0104167
 41
0.0104167
  0
VERTEX
  8
0
 10
6.52458
 20
9.10558
 30
0.0
 40
0.0104167
 41
0.0104167
  0
VERTEX
  8
0
 10
6.49804
 20
9.08772
 30
0.0
 40
0.0104167
 41
0.0104167
  0
VERTEX
  8
0
 10
6.47374
 20
9.08117
 30
0.0
 40
0.0104167
 41
0.0104167
  0
VERTEX
  8
0
 10
6.46565
 20
9.08117
 30
0.0
 40
0.0104167
 41
0.0104167
  0
SEQEND
 8
0
  0
POLYLINE
  8
0
 62
     7
 66
     1
 10
0
 20
0
 30
0.0
 70
     1
 40
0
 41
0
  0
VERTEX
  8
0
 10
6.46565
 20
8.82801
 30
0.0
 40
0
 41
0
  0
VERTEX
  8
0
 10
6.45751
 20
8.82801
 30
0.0
 40
0
 41
0
  0
VERTEX
  8
0
 10
6.43321
 20
8.83458
 30
0.0
 40
0
 41
0
  0
VERTEX
  8
0
 10
6.40674
 20
8.85243
 30
0.0
 40
0
 41
0
  0
VERTEX
  8
0
 10
6.38883
 20
8.87896
 30
0.0
 40
0
 41
0
  0
VERTEX
  8
0
 10
6.38232
 20
8.90326
 30
0.0
 40
0
 41
0
  0
VERTEX
  8
0
 10
6.38232
 20
8.91135
 30
0.0
 40
0
 41
0
  0
VERTEX
  8
0
 10
6.38232
 20
8.91949
 30
0.0
 40
0
 41
0
  0
VERTEX
  8
0
 10
6.38883
 20
8.94379
 30
0.0
 40
0
 41
0
  0
VERTEX
  8
0
 10
6.40674
 20
8.97026
 30
0.0
 40
0
 41
0
  0
VERTEX
  8
0
 10
6.43321
 20
8.98817
 30
0.0
 40
0
 41
0
  0
VERTEX
  8
0
 10
6.45751
 20
8.99468
 30
0.0
 40
0
 41
0
  0
VERTEX
  8
0
 10
6.46565
 20
8.99468
 30
0.0
 40
0
 41
0
  0
VERTEX
  8
0
 10
6.47374
 20
8.99468
 30
0.0
 40
0
 41
0
  0
VERTEX
  8
0
 10
6.49804
 20
8.98817
 30
0.0
 40
0
 41
0
  0
VERTEX
  8
0
 10
6.52458
 20
8.97026
 30
0.0
 40
0
 41
0
  0
VERTEX
  8
0
 10
6.54243
 20
8.94379
 30
0.0
 40
0
 41
0
  0
VERTEX
  8
0
 10
6.54899
 20
8.91949
 30
0.0
 40
0
 41
0
  0
VERTEX
  8
0
 10
6.54899
 20
8.91135
 30
0.0
 40
0
 41
0
  0
VERTEX
  8
0
 10
6.54899
 20
8.90326
 30
0.0
 40
0
 41
0
  0
VERTEX
  8
0
 10
6.54243
 20
8.87896
 30
0.0
 40
0
 41
0
  0
VERTEX
  8
0
 10
6.52458
 20
8.85243
 30
0.0
 40
0
 41
0
  0
VERTEX
  8
0
 10
6.49804
 20
8.83458
 30
0.0
 40
0
 41
0
  0
VERTEX
  8
0
 10
6.47374
 20
8.82801
 30
0.0
 40
0
 41
0
  0
VERTEX
  8
0
 10
6.46565
 20
8.82801
 30
0.0
 40
0
 41
0
  0
SEQEND
 8
0
  0
POLYLINE
  8
0
 62
     0
 66
     1
 10
0
 20
0
 30
0.0
 70
     1
 40
0.75
 41
0.75
  0
VERTEX
  8
0
 10
6.46565
 20
8.82801
 30
0.0
 40
0.0104167
 41
0.0104167
  0
VERTEX
  8
0
 10
6.45751
 20
8.82801
 30
0.0
 40
0.0104167
 41
0.0104167
  0
VERTEX
  8
0
 10
6.43321
 20
8.83458
 30
0.0
 40
0.0104167
 41
0.0104167
  0
VERTEX
  8
0
 10
6.40674
 20
8.85243
 30
0.0
 40
0.0104167
 41
0.0104167
  0
VERTEX
  8
0
 10
6.38883
 20
8.87896
 30
0.0
 40
0.0104167
 41
0.0104167
  0
VERTEX
  8
0
 10
6.38232
 20
8.90326
 30
0.0
 40
0.0104167
 41
0.0104167
  0
VERTEX
  8
0
 10
6.38232
 20
8.91135
 30
0.0
 40
0.0104167
 41
0.0104167
  0
VERTEX
  8
0
 10
6.38232
 20
8.91949
 30
0.0
 40
0.0104167
 41
0.0104167
  0
VERTEX
  8
0
 10
6.38883
 20
8.94379
 30
0.0
 40
0.0104167
 41
0.0104167
  0
VERTEX
  8
0
 10
6.40674
 20
8.97026
 30
0.0
 40
0.0104167
 41
0.0104167
  0
VERTEX
  8
0
 10
6.43321
 20
8.98817
 30
0.0
 40
0.0104167
 41
0.0104167
  0
VERTEX
  8
0
 10
6.45751
 20
8.99468
 30
0.0
 40
0.0104167
 41
0.0104167
  0
VERTEX
  8
0
 10
6.46565
 20
8.99468
 30
0.0
 40
0.0104167
 41
0.0104167
  0
VERTEX
  8
0
 10
6.47374
 20
8.99468
 30
0.0
 40
0.0104167
 41
0.0104167
  0
VERTEX
  8
0
 10
6.49804
 20
8.98817
 30
0.0
 40
0.0104167
 41
0.0104167
  0
VERTEX
  8
0
 10
6.52458
 20
8.97026
 30
0.0
 40
0.0104167
 41
0.0104167
  0
VERTEX
  8
0
 10
6.54243
 20
8.94379
 30
0.0
 40
0.0104167
 41
0.0104167
  0
VERTEX
  8
0
 10
6.54899
 20
8.91949
 30
0.0
 40
0.0104167
 41
0.0104167
  0
VERTEX
  8
0
 10
6.54899
 20
8.91135
 30
0.0
 40
0.0104167
 41
0.0104167
  0
VERTEX
  8
0
 10
6.54899
 20
8.90326
 30
0.0
 40
0.0104167
 41
0.0104167
  0
VERTEX
  8
0
 10
6.54243
 20
8.87896
 30
0.0
 40
0.0104167
 41
0.0104167
  0
VERTEX
  8
0
 10
6.52458
 20
8.85243
 30
0.0
 40
0.0104167
 41
0.0104167
  0
VERTEX
  8
0
 10
6.49804
 20
8.83458
 30
0.0
 40
0.0104167
 41
0.0104167
  0
VERTEX
  8
0
 10
6.47374
 20
8.82801
 30
0.0
 40
0.0104167
 41
0.0104167
  0
VERTEX
  8
0
 10
6.46565
 20
8.82801
 30
0.0
 40
0.0104167
 41
0.0104167
  0
SEQEND
 8
0
  0
POLYLINE
  8
0
 62
     0
 66
     1
 10
0
 20
0
 30
0.0
 70
     1
 40
0.75
 41
0.75
  0
VERTEX
  8
0
 10
6.62061
 20
10.0058
 30
0.0
 40
0.0104167
 41
0.0104167
  0
VERTEX
  8
0
 10
6.62061
 20
7.43088
 30
0.0
 40
0.0104167
 41
0.0104167
  0
VERTEX
  8
0
 10
6.93311
 20
7.43088
 30
0.0
 40
0.0104167
 41
0.0104167
  0
VERTEX
  8
0
 10
6.93311
 20
10.0058
 30
0.0
 40
0.0104167
 41
0.0104167
  0
VERTEX
  8
0
 10
6.62061
 20
10.0058
 30
0.0
 40
0.0104167
 41
0.0104167
  0
SEQEND
 8
0
  0
POLYLINE
  8
0
 62
     7
 66
     1
 10
0
 20
0
 30
0.0
 70
     1
 40
0
 41
0
  0
VERTEX
  8
0
 10
6.30583
 20
3.7391
 30
0.0
 40
0
 41
0
  0
VERTEX
  8
0
 10
6.93083
 20
3.7391
 30
0.0
 40
0
 41
0
  0
VERTEX
  8
0
 10
6.93083
 20
2.5964
 30
0.0
 40
0
 41
0
  0
VERTEX
  8
0
 10
6.30583
 20
2.5964
 30
0.0
 40
0
 41
0
  0
VERTEX
  8
0
 10
6.30583
 20
3.7391
 30
0.0
 40
0
 41
0
  0
SEQEND
 8
0
  0
POLYLINE
  8
0
 62
     0
 66
     1
 10
0
 20
0
 30
0.0
 70
     1
 40
0.75
 41
0.75
  0
VERTEX
  8
0
 10
6.30583
 20
3.7391
 30
0.0
 40
0.0104167
 41
0.0104167
  0
VERTEX
  8
0
 10
6.30583
 20
2.5964
 30
0.0
 40
0.0104167
 41
0.0104167
  0
VERTEX
  8
0
 10
6.93083
 20
2.5964
 30
0.0
 40
0.0104167
 41
0.0104167
  0
VERTEX
  8
0
 10
6.93083
 20
3.7391
 30
0.0
 40
0.0104167
 41
0.0104167
  0
VERTEX
  8
0
 10
6.30583
 20
3.7391
 30
0.0
 40
0.0104167
 41
0.0104167
  0
SEQEND
 8
0
  0
POLYLINE
  8
0
 62
     253
 66
     1
 10
0
 20
0
 30
0.0
 40
0.75
 41
0.75
  0
VERTEX
  8
0
 10
6.61833
 20
3.7391
 30
0.0
 40
0.0104167
 41
0.0104167
  0
VERTEX
  8
0
 10
6.61833
 20
2.59636
 30
0.0
 40
0.0104167
 41
0.0104167
  0
SEQEND
 8
0
  0
POLYLINE
  8
0
 62
     7
 66
     1
 10
0
 20
0
 30
0.0
 70
     1
 40
0
 41
0
  0
VERTEX
  8
0
 10
1.67253
 20
11.9134
 30
0.0
 40
0
 41
0
  0
VERTEX
  8
0
 10
1.74544
 20
11.9134
 30
0.0
 40
0
 41
0
  0
VERTEX
  8
0
 10
1.74544
 20
11.0119
 30
0.0
 40
0
 41
0
  0
VERTEX
  8
0
 10
1.67253
 20
11.0119
 30
0.0
 40
0
 41
0
  0
VERTEX
  8
0
 10
1.67253
 20
11.9134
 30
0.0
 40
0
 41
0
  0
SEQEND
 8
0
  0
POLYLINE
  8
0
 62
     0
 66
     1
 10
0
 20
0
 30
0.0
 70
     1
 40
0.15
 41
0.15
  0
VERTEX
  8
0
 10
1.67253
 20
11.9134
 30
0.0
 40
0.00208333
 41
0.00208333
  0
VERTEX
  8
0
 10
1.74544
 20
11.9134
 30
0.0
 40
0.00208333
 41
0.00208333
  0
VERTEX
  8
0
 10
1.74544
 20
11.0119
 30
0.0
 40
0.00208333
 41
0.00208333
  0
VERTEX
  8
0
 10
1.67253
 20
11.0119
 30
0.0
 40
0.00208333
 41
0.00208333
  0
VERTEX
  8
0
 10
1.67253
 20
11.9134
 30
0.0
 40
0.00208333
 41
0.00208333
  0
SEQEND
 8
0
  0
POLYLINE
  8
0
 62
     7
 66
     1
 10
0
 20
0
 30
0.0
 70
     1
 40
0
 41
0
  0
VERTEX
  8
0
 10
7.00331
 20
11.9134
 30
0.0
 40
0
 41
0
  0
VERTEX
  8
0
 10
7.07622
 20
11.9134
 30
0.0
 40
0
 41
0
  0
VERTEX
  8
0
 10
7.07622
 20
11.0119
 30
0.0
 40
0
 41
0
  0
VERTEX
  8
0
 10
7.00331
 20
11.0119
 30
0.0
 40
0
 41
0
  0
VERTEX
  8
0
 10
7.00331
 20
11.9134
 30
0.0
 40
0
 41
0
  0
SEQEND
 8
0
  0
POLYLINE
  8
0
 62
     0
 66
     1
 10
0
 20
0
 30
0.0
 70
     1
 40
0.15
 41
0.15
  0
VERTEX
  8
0
 10
7.00331
 20
11.9134
 30
0.0
 40
0.00208333
 41
0.00208333
  0
VERTEX
  8
0
 10
7.07622
 20
11.9134
 30
0.0
 40
0.00208333
 41
0.00208333
  0
VERTEX
  8
0
 10
7.07622
 20
11.0119
 30
0.0
 40
0.00208333
 41
0.00208333
  0
VERTEX
  8
0
 10
7.00331
 20
11.0119
 30
0.0
 40
0.00208333
 41
0.00208333
  0
VERTEX
  8
0
 10
7.00331
 20
11.9134
 30
0.0
 40
0.00208333
 41
0.00208333
  0
SEQEND
 8
0
  0
POLYLINE
  8
0
 62
     7
 66
     1
 10
0
 20
0
 30
0.0
 70
     1
 40
0
 41
0
  0
VERTEX
  8
0
 10
6.94217
 20
0.859321
 30
0.0
 40
0
 41
0
  0
VERTEX
  8
0
 10
7.01508
 20
0.859321
 30
0.0
 40
0
 41
0
  0
VERTEX
  8
0
 10
7.01508
 20
0.00694444
 30
0.0
 40
0
 41
0
  0
VERTEX
  8
0
 10
6.94217
 20
0.00694444
 30
0.0
 40
0
 41
0
  0
VERTEX
  8
0
 10
6.94217
 20
0.859321
 30
0.0
 40
0
 41
0
  0
SEQEND
 8
0
  0
POLYLINE
  8
0
 62
     0
 66
     1
 10
0
 20
0
 30
0.0
 70
     1
 40
0.15
 41
0.15
  0
VERTEX
  8
0
 10
6.94217
 20
0.859321
 30
0.0
 40
0.00208333
 41
0.00208333
  0
VERTEX
  8
0
 10
7.01508
 20
0.859321
 30
0.0
 40
0.00208333
 41
0.00208333
  0
VERTEX
  8
0
 10
7.01508
 20
0.00694444
 30
0.0
 40
0.00208333
 41
0.00208333
  0
VERTEX
  8
0
 10
6.94217
 20
0.00694444
 30
0.0
 40
0.00208333
 41
0.00208333
  0
VERTEX
  8
0
 10
6.94217
 20
0.859321
 30
0.0
 40
0.00208333
 41
0.00208333
  0
SEQEND
 8
0
  0
POLYLINE
  8
0
 62
     0
 66
     1
 10
0
 20
0
 30
0.0
 70
     1
 40
0
 41
0
  0
VERTEX
  8
0
 10
6.94125
 20
0.0910915
 30
0.0
 40
0
 41
0
  0
VERTEX
  8
0
 10
7.01508
 20
0.0910915
 30
0.0
 40
0
 41
0
  0
VERTEX
  8
0
 10
7.01508
 20
0.00694444
 30
0.0
 40
0
 41
0
  0
VERTEX
  8
0
 10
6.94125
 20
0.00694444
 30
0.0
 40
0
 41
0
  0
VERTEX
  8
0
 10
6.94125
 20
0.0910915
 30
0.0
 40
0
 41
0
  0
SEQEND
 8
0
  0
POLYLINE
  8
0
 62
     0
 66
     1
 10
0
 20
0
 30
0.0
 70
     1
 40
0
 41
0
  0
VERTEX
  8
0
 10
7.00054
 20
11.0851
 30
0.0
 40
0
 41
0
  0
VERTEX
  8
0
 10
7.07622
 20
11.0851
 30
0.0
 40
0
 41
0
  0
VERTEX
  8
0
 10
7.07622
 20
11.0119
 30
0.0
 40
0
 41
0
  0
VERTEX
  8
0
 10
7.00054
 20
11.0119
 30
0.0
 40
0
 41
0
  0
VERTEX
  8
0
 10
7.00054
 20
11.0851
 30
0.0
 40
0
 41
0
  0
SEQEND
 8
0
  0
POLYLINE
  8
0
 62
     0
 66
     1
 10
0
 20
0
 30
0.0
 70
     1
 40
0
 41
0
  0
VERTEX
  8
0
 10
1.67253
 20
11.0924
 30
0.0
 40
0
 41
0
  0
VERTEX
  8
0
 10
1.74333
 20
11.0924
 30
0.0
 40
0
 41
0
  0
VERTEX
  8
0
 10
1.74333
 20
11.0119
 30
0.0
 40
0
 41
0
  0
VERTEX
  8
0
 10
1.67253
 20
11.0119
 30
0.0
 40
0
 41
0
  0
VERTEX
  8
0
 10
1.67253
 20
11.0924
 30
0.0
 40
0
 41
0
  0
SEQEND
 8
0
  0
POLYLINE
  8
0
 62
     7
 66
     1
 10
0
 20
0
 30
0.0
 70
     1
 40
0
 41
0
  0
VERTEX
  8
0
 10
6.8035
 20
1.81988
 30
0.0
 40
0
 41
0
  0
VERTEX
  8
0
 10
6.93707
 20
1.81988
 30
0.0
 40
0
 41
0
  0
VERTEX
  8
0
 10
6.93707
 20
1.20459
 30
0.0
 40
0
 41
0
  0
VERTEX
  8
0
 10
6.8035
 20
1.20459
 30
0.0
 40
0
 41
0
  0
VERTEX
  8
0
 10
6.8035
 20
1.81988
 30
0.0
 40
0
 41
0
  0
SEQEND
 8
0
  0
POLYLINE
  8
0
 62
     0
 66
     1
 10
0
 20
0
 30
0.0
 70
     1
 40
0.7383
 41
0.7383
  0
VERTEX
  8
0
 10
6.8035
 20
1.81988
 30
0.0
 40
0.0102542
 41
0.0102542
  0
VERTEX
  8
0
 10
6.8035
 20
1.20459
 30
0.0
 40
0.0102542
 41
0.0102542
  0
VERTEX
  8
0
 10
6.93707
 20
1.20459
 30
0.0
 40
0.0102542
 41
0.0102542
  0
VERTEX
  8
0
 10
6.93707
 20
1.81988
 30
0.0
 40
0.0102542
 41
0.0102542
  0
VERTEX
  8
0
 10
6.8035
 20
1.81988
 30
0.0
 40
0.0102542
 41
0.0102542
  0
SEQEND
 8
0
  0
POLYLINE
  8
0
 62
     0
 66
     1
 10
0
 20
0
 30
0.0
 40
0.7383
 41
0.7383
  0
VERTEX
  8
0
 10
6.93707
 20
1.81988
 30
0.0
 40
0.0102542
 41
0.0102542
  0
VERTEX
  8
0
 10
6.84847
 20
1.51118
 30
0.0
 40
0.0102542
 41
0.0102542
  0
VERTEX
  8
0
 10
6.89388
 20
1.51118
 30
0.0
 40
0.0102542
 41
0.0102542
  0
VERTEX
  8
0
 10
6.8035
 20
1.20562
 30
0.0
 40
0.0102542
 41
0.0102542
  0
SEQEND
 8
0
  0
POLYLINE
  8
0
 62
     7
 66
     1
 10
0
 20
0
 30
0.0
 70
     1
 40
0
 41
0
  0
VERTEX
  8
0
 10
6.3099
 20
6.75803
 30
0.0
 40
0
 41
0
  0
VERTEX
  8
0
 10
6.9349
 20
6.75803
 30
0.0
 40
0
 41
0
  0
VERTEX
  8
0
 10
6.9349
 20
6.16644
 30
0.0
 40
0
 41
0
  0
VERTEX
  8
0
 10
6.3099
 20
6.16644
 30
0.0
 40
0
 41
0
  0
VERTEX
  8
0
 10
6.3099
 20
6.75803
 30
0.0
 40
0
 41
0
  0
SEQEND
 8
0
  0
POLYLINE
  8
0
 62
     0
 66
     1
 10
0
 20
0
 30
0.0
 70
     1
 40
0.75
 41
0.75
  0
VERTEX
  8
0
 10
6.3099
 20
6.75803
 30
0.0
 40
0.0104167
 41
0.0104167
  0
VERTEX
  8
0
 10
6.3099
 20
6.16644
 30
0.0
 40
0.0104167
 41
0.0104167
  0
VERTEX
  8
0
 10
6.9349
 20
6.16644
 30
0.0
 40
0.0104167
 41
0.0104167
  0
VERTEX
  8
0
 10
6.9349
 20
6.75803
 30
0.0
 40
0.0104167
 41
0.0104167
  0
VERTEX
  8
0
 10
6.3099
 20
6.75803
 30
0.0
 40
0.0104167
 41
0.0104167
  0
SEQEND
 8
0
  0
POLYLINE
  8
0
 62
     7
 66
     1
 10
0
 20
0
 30
0.0
 70
     1
 40
0
 41
0
  0
VERTEX
  8
0
 10
6.3099
 20
6.1665
 30
0.0
 40
0
 41
0
  0
VERTEX
  8
0
 10
6.9349
 20
6.1665
 30
0.0
 40
0
 41
0
  0
VERTEX
  8
0
 10
6.9349
 20
5.57497
 30
0.0
 40
0
 41
0
  0
VERTEX
  8
0
 10
6.3099
 20
5.57497
 30
0.0
 40
0
 41
0
  0
VERTEX
  8
0
 10
6.3099
 20
6.1665
 30
0.0
 40
0
 41
0
  0
SEQEND
 8
0
  0
POLYLINE
  8
0
 62
     0
 66
     1
 10
0
 20
0
 30
0.0
 70
     1
 40
0.75
 41
0.75
  0
VERTEX
  8
0
 10
6.3099
 20
6.1665
 30
0.0
 40
0.0104167
 41
0.0104167
  0
VERTEX
  8
0
 10
6.3099
 20
5.57497
 30
0.0
 40
0.0104167
 41
0.0104167
  0
VERTEX
  8
0
 10
6.9349
 20
5.57497
 30
0.0
 40
0.0104167
 41
0.0104167
  0
VERTEX
  8
0
 10
6.9349
 20
6.1665
 30
0.0
 40
0.0104167
 41
0.0104167
  0
VERTEX
  8
0
 10
6.3099
 20
6.1665
 30
0.0
 40
0.0104167
 41
0.0104167
  0
SEQEND
 8
0
  0
POLYLINE
  8
0
 62
     7
 66
     1
 10
0
 20
0
 30
0.0
 70
     1
 40
0
 41
0
  0
VERTEX
  8
0
 10
6.3099
 20
5.57497
 30
0.0
 40
0
 41
0
  0
VERTEX
  8
0
 10
6.9349
 20
5.57497
 30
0.0
 40
0
 41
0
  0
VERTEX
  8
0
 10
6.9349
 20
4.98346
 30
0.0
 40
0
 41
0
  0
VERTEX
  8
0
 10
6.3099
 20
4.98346
 30
0.0
 40
0
 41
0
  0
VERTEX
  8
0
 10
6.3099
 20
5.57497
 30
0.0
 40
0
 41
0
  0
SEQEND
 8
0
  0
POLYLINE
  8
0
 62
     0
 66
     1
 10
0
 20
0
 30
0.0
 70
     1
 40
0.75
 41
0.75
  0
VERTEX
  8
0
 10
6.3099
 20
5.57497
 30
0.0
 40
0.0104167
 41
0.0104167
  0
VERTEX
  8
0
 10
6.3099
 20
4.98346
 30
0.0
 40
0.0104167
 41
0.0104167
  0
VERTEX
  8
0
 10
6.9349
 20
4.98346
 30
0.0
 40
0.0104167
 41
0.0104167
  0
VERTEX
  8
0
 10
6.9349
 20
5.57497
 30
0.0
 40
0.0104167
 41
0.0104167
  0
VERTEX
  8
0
 10
6.3099
 20
5.57497
 30
0.0
 40
0.0104167
 41
0.0104167
  0
SEQEND
 8
0
  0
POLYLINE
  8
0
 62
     7
 66
     1
 10
0
 20
0
 30
0.0
 70
     1
 40
0
 41
0
  0
VERTEX
  8
0
 10
6.30811
 20
7.28944
 30
0.0
 40
0
 41
0
  0
VERTEX
  8
0
 10
6.93311
 20
7.28944
 30
0.0
 40
0
 41
0
  0
VERTEX
  8
0
 10
6.93311
 20
6.75803
 30
0.0
 40
0
 41
0
  0
VERTEX
  8
0
 10
6.30811
 20
6.75803
 30
0.0
 40
0
 41
0
  0
VERTEX
  8
0
 10
6.30811
 20
7.28944
 30
0.0
 40
0
 41
0
  0
SEQEND
 8
0
  0
POLYLINE
  8
0
 62
     0
 66
     1
 10
0
 20
0
 30
0.0
 70
     1
 40
0.637725
 41
0.637725
  0
VERTEX
  8
0
 10
6.30811
 20
7.28944
 30
0.0
 40
0.00885729
 41
0.00885729
  0
VERTEX
  8
0
 10
6.30811
 20
6.75803
 30
0.0
 40
0.00885729
 41
0.00885729
  0
VERTEX
  8
0
 10
6.93311
 20
6.75803
 30
0.0
 40
0.00885729
 41
0.00885729
  0
VERTEX
  8
0
 10
6.93311
 20
7.28944
 30
0.0
 40
0.00885729
 41
0.00885729
  0
VERTEX
  8
0
 10
6.30811
 20
7.28944
 30
0.0
 40
0.00885729
 41
0.00885729
  0
SEQEND
 8
0
  0
POLYLINE
  8
0
 62
     0
 66
     1
 10
0
 20
0
 30
0.0
 40
0.637725
 41
0.637725
  0
VERTEX
  8
0
 10
6.93311
 20
7.28944
 30
0.0
 40
0.00885729
 41
0.00885729
  0
VERTEX
  8
0
 10
6.5185
 20
7.02285
 30
0.0
 40
0.00885729
 41
0.00885729
  0
VERTEX
  8
0
 10
6.73101
 20
7.02285
 30
0.0
 40
0.00885729
 41
0.00885729
  0
VERTEX
  8
0
 10
6.30811
 20
6.7589
 30
0.0
 40
0.00885729
 41
0.00885729
  0
SEQEND
 8
0
  0
ENDSEC
  0
EOF
