<?xml version="1.0"?>
<svg xmlns="http://www.w3.org/2000/svg" xmlns:xlink="http://www.w3.org/1999/xlink" height="938.2000350952148" version="1.1" width="1393.4100341796875" id="temp" viewBox="0 0 1393.4100341796875 938.2000350952148"><defs/><g id="Model" class="Model v1-1"><g class="Floor"><g id="Floor-1" class="Floorplan Floor-1"><g id="3d956504-fb5d-488c-8689-c75fe9caa3db" fill="#ffffff" stroke="#000000" style="fill-opacity: 1; stroke-opacity: 1; stroke-width: 0.2;" class="Space Outdoor Balcony"><polygon points="1260.38,241.68 1376.41,241.68 1376.41,800.50 1260.38,800.50 1260.38,241.68 "/><g transform="matrix(1,0,0,1,1260.3803,241.6798)" class="Dimension"><g transform="matrix(1,0,0,1,0,0)" style="display: none;" class="Visual"><g id="mark1" fill="#000000" stroke="none" transform="matrix(1,0,0,1,58.0173,0)" style="fill-opacity: 1; pointer-events: visible;" class="DimensionMark"><polygon points="-5,5,0,0,5,5"/></g><g id="mark2" fill="#000000" stroke="none" transform="matrix(1,0,0,1,116.0346,279.4112)" style="fill-opacity: 1; pointer-events: visible;" class="DimensionMark"><polygon points="-5,-5,0,0,-5,5"/></g><g id="mark3" fill="#000000" stroke="none" transform="matrix(1,0,0,1,58.0173,558.8223)" style="fill-opacity: 1; pointer-events: visible;" class="DimensionMark"><polygon points="-5,-5,0,0,5,-5"/></g><g id="mark4" fill="#000000" stroke="none" transform="matrix(1,0,0,1,0,279.4112)" style="fill-opacity: 1; pointer-events: visible;" class="DimensionMark"><polygon points="5,5,0,0,5,-5"/></g></g><g transform="matrix(0,1,-1,0,83.7651,197.2433)" class="SpaceDimensionsLabel"><g id="NameLabel" style="display: block;" class="TextLabel NameLabel"><text x="0" y="0em" fill="#000000" stroke="none" style="font-family: Verdana; font-size: 33px; fill-opacity: 1; cursor: default;">PARVEKE</text></g><g id="DimensionMeasureLabel" transform="matrix(1,0,0,1,-64.1093,79.8125)" style="display: none;" class="TextLabel DimensionMeasureLabel"><text x="31.6796875" y="-1.2em" fill="#000000" stroke="none" style="font-family: Verdana; font-size: 33px; fill-opacity: 1; cursor: default;">3'10" x 18'4"</text><text x="0" y="0em" fill="#000000" stroke="none" style="font-family: Verdana; font-size: 33px; fill-opacity: 1; cursor: default;">1.16 m x 5.59 m</text></g></g></g></g><g id="1e602ba8-28f2-4719-bef3-8d3474be394a" fill="#ffffff" stroke="#ffffff" style="fill-opacity: 1; stroke-opacity: 1; stroke-width: 0.2;" class="Space Entry Lobby"><polygon points="723.68,822.50 590.39,822.50 590.39,518.21 723.68,518.21 "/><g transform="matrix(1,0,0,1,590.3925,518.2071)" class="Dimension"><g transform="matrix(1,0,0,1,0,0)" style="display: none;" class="Visual"><g id="mark1" fill="#000000" stroke="none" transform="matrix(1,0,0,1,66.6428,0)" style="fill-opacity: 1; pointer-events: visible;" class="DimensionMark"><polygon points="-5,5,0,0,5,5"/></g><g id="mark2" fill="#000000" stroke="none" transform="matrix(1,0,0,1,133.2857,152.1476)" style="fill-opacity: 1; pointer-events: visible;" class="DimensionMark"><polygon points="-5,-5,0,0,-5,5"/></g><g id="mark3" fill="#000000" stroke="none" transform="matrix(1,0,0,1,66.6428,304.2951)" style="fill-opacity: 1; pointer-events: visible;" class="DimensionMark"><polygon points="-5,-5,0,0,5,-5"/></g><g id="mark4" fill="#000000" stroke="none" transform="matrix(1,0,0,1,0,152.1476)" style="fill-opacity: 1; pointer-events: visible;" class="DimensionMark"><polygon points="5,5,0,0,5,-5"/></g></g><g transform="matrix(1,0,0,1,49.8906,152.1475)" class="SpaceDimensionsLabel"><g id="NameLabel" style="display: block;" class="TextLabel NameLabel"><text x="0" y="0em" fill="#000000" stroke="none" style="font-family: Verdana; font-size: 33px; fill-opacity: 1; cursor: default;">ET</text></g><g id="DimensionMeasureLabel" transform="matrix(1,0,0,1,-119.0703,80.2969)" style="display: none;" class="TextLabel DimensionMeasureLabel"><text x="42.171875" y="-1.2em" fill="#000000" stroke="none" style="font-family: Verdana; font-size: 33px; fill-opacity: 1; cursor: default;">4'4" x 10'0"</text><text x="0" y="0em" fill="#000000" stroke="none" style="font-family: Verdana; font-size: 33px; fill-opacity: 1; cursor: default;">1.33 m x 3.04 m</text></g></g></g></g><g id="cbb738d3-f130-48a6-b84e-5096b7f604b5" fill="#ffffff" stroke="#ffffff" style="fill-opacity: 1; stroke-opacity: 1; stroke-width: 0.2;" class="Space LivingRoom"><polygon points="723.68,518.21 186.50,518.21 186.50,152.30 723.68,152.30 "/><g transform="matrix(1,0,0,1,186.4979,152.2959)" class="Dimension"><g transform="matrix(1,0,0,1,0,0)" style="display: none;" class="Visual"><g id="mark1" fill="#000000" stroke="none" transform="matrix(1,0,0,1,268.5901,0)" style="fill-opacity: 1; pointer-events: visible;" class="DimensionMark"><polygon points="-5,5,0,0,5,5"/></g><g id="mark2" fill="#000000" stroke="none" transform="matrix(1,0,0,1,537.1802,182.9556)" style="fill-opacity: 1; pointer-events: visible;" class="DimensionMark"><polygon points="-5,-5,0,0,-5,5"/></g><g id="mark3" fill="#000000" stroke="none" transform="matrix(1,0,0,1,268.5901,365.9112)" style="fill-opacity: 1; pointer-events: visible;" class="DimensionMark"><polygon points="-5,-5,0,0,5,-5"/></g><g id="mark4" fill="#000000" stroke="none" transform="matrix(1,0,0,1,0,182.9556)" style="fill-opacity: 1; pointer-events: visible;" class="DimensionMark"><polygon points="5,5,0,0,5,-5"/></g></g><g transform="matrix(1,0,0,1,254.9789,188.1907)" class="SpaceDimensionsLabel"><g id="NameLabel" style="display: block;" class="TextLabel NameLabel"><text x="0" y="0em" fill="#000000" stroke="none" style="font-family: Verdana; font-size: 33px; fill-opacity: 1; cursor: default;">OH</text></g><g id="DimensionMeasureLabel" transform="matrix(1,0,0,1,-114.6094,79.4844)" style="display: none;" class="TextLabel DimensionMeasureLabel"><text x="31.6875" y="-1.2em" fill="#000000" stroke="none" style="font-family: Verdana; font-size: 33px; fill-opacity: 1; cursor: default;">17'7" x 12'0"</text><text x="0" y="0em" fill="#000000" stroke="none" style="font-family: Verdana; font-size: 33px; fill-opacity: 1; cursor: default;">5.37 m x 3.66 m</text></g></g></g></g><g id="66eb7404-b022-4fee-9165-fea013cfcd19" fill="#ffffff" stroke="#ffffff" style="fill-opacity: 1; stroke-opacity: 1; stroke-width: 0.2;" class="Space Bedroom"><polygon points="1242.38,822.50 735.68,822.50 735.68,533.21 1242.38,533.21 "/><g transform="matrix(1,0,0,1,735.6782,533.2071)" class="Dimension"><g transform="matrix(1,0,0,1,0,0)" style="display: none;" class="Visual"><g id="mark1" fill="#000000" stroke="none" transform="matrix(1,0,0,1,253.3511,0)" style="fill-opacity: 1; pointer-events: visible;" class="DimensionMark"><polygon points="-5,5,0,0,5,5"/></g><g id="mark2" fill="#000000" stroke="none" transform="matrix(1,0,0,1,506.7022,144.6476)" style="fill-opacity: 1; pointer-events: visible;" class="DimensionMark"><polygon points="-5,-5,0,0,-5,5"/></g><g id="mark3" fill="#000000" stroke="none" transform="matrix(1,0,0,1,253.3511,289.2951)" style="fill-opacity: 1; pointer-events: visible;" class="DimensionMark"><polygon points="-5,-5,0,0,5,-5"/></g><g id="mark4" fill="#000000" stroke="none" transform="matrix(1,0,0,1,0,144.6476)" style="fill-opacity: 1; pointer-events: visible;" class="DimensionMark"><polygon points="5,5,0,0,5,-5"/></g></g><g transform="matrix(1,0,0,1,257.877,157.3201)" class="SpaceDimensionsLabel"><g id="NameLabel" style="display: block;" class="TextLabel NameLabel"><text x="0" y="0em" fill="#000000" stroke="none" style="font-family: Verdana; font-size: 33px; fill-opacity: 1; cursor: default;">MH</text></g><g id="DimensionMeasureLabel" transform="matrix(1,0,0,1,-113.6641,79.8125)" style="display: none;" class="TextLabel DimensionMeasureLabel"><text x="42.171875" y="-1.2em" fill="#000000" stroke="none" style="font-family: Verdana; font-size: 33px; fill-opacity: 1; cursor: default;">16'7" x 9'6"</text><text x="0" y="0em" fill="#000000" stroke="none" style="font-family: Verdana; font-size: 33px; fill-opacity: 1; cursor: default;">5.07 m x 2.89 m</text></g></g></g></g><g id="8114d5e9-caed-47e1-ba68-0d2d3d1a3af6" fill="#ffffff" stroke="#ffffff" style="fill-opacity: 1; stroke-opacity: 1; stroke-width: 0.2;" class="Space Bedroom"><polygon points="1242.38,518.21 740.68,518.21 740.68,241.68 1242.38,241.68 "/><g transform="matrix(1,0,0,1,740.6782,241.6798)" class="Dimension"><g transform="matrix(1,0,0,1,0,0)" style="display: none;" class="Visual"><g id="mark1" fill="#000000" stroke="none" transform="matrix(1,0,0,1,250.8511,0)" style="fill-opacity: 1; pointer-events: visible;" class="DimensionMark"><polygon points="-5,5,0,0,5,5"/></g><g id="mark2" fill="#000000" stroke="none" transform="matrix(1,0,0,1,501.7022,138.2636)" style="fill-opacity: 1; pointer-events: visible;" class="DimensionMark"><polygon points="-5,-5,0,0,-5,5"/></g><g id="mark3" fill="#000000" stroke="none" transform="matrix(1,0,0,1,250.8511,276.5272)" style="fill-opacity: 1; pointer-events: visible;" class="DimensionMark"><polygon points="-5,-5,0,0,5,-5"/></g><g id="mark4" fill="#000000" stroke="none" transform="matrix(1,0,0,1,0,138.2636)" style="fill-opacity: 1; pointer-events: visible;" class="DimensionMark"><polygon points="5,5,0,0,5,-5"/></g></g><g transform="matrix(1,0,0,1,254.4718,151.8414)" class="SpaceDimensionsLabel"><g id="NameLabel" style="display: block;" class="TextLabel NameLabel"><text x="0" y="0em" fill="#000000" stroke="none" style="font-family: Verdana; font-size: 33px; fill-opacity: 1; cursor: default;">MH</text></g><g id="DimensionMeasureLabel" transform="matrix(1,0,0,1,-113.6719,80.2969)" style="display: none;" class="TextLabel DimensionMeasureLabel"><text x="42.171875" y="-1.2em" fill="#000000" stroke="none" style="font-family: Verdana; font-size: 33px; fill-opacity: 1; cursor: default;">16'6" x 9'1"</text><text x="0" y="0em" fill="#000000" stroke="none" style="font-family: Verdana; font-size: 33px; fill-opacity: 1; cursor: default;">5.02 m x 2.77 m</text></g></g></g></g><g id="4bf029be-6ab7-4489-a725-4b12bdcb46d0" fill="#ffffff" stroke="#ffffff" style="fill-opacity: 1; stroke-opacity: 1; stroke-width: 0.2;" class="Space Kitchen"><polygon points="370.48,690.26 579.39,690.26 579.39,822.50 186.50,822.50 186.50,533.21 370.48,533.21 "/><g transform="matrix(1,0,0,1,186.4979,533.2071)" class="Dimension"><g transform="matrix(1,0,0,1,0,0)" style="display: none;" class="Visual"><g id="mark1" fill="#000000" stroke="none" transform="matrix(1,0,0,1,183.985,0)" style="fill-opacity: 1; pointer-events: visible;" class="DimensionMark"><polygon points="-5,5,0,0,5,5"/></g><g id="mark2" fill="#000000" stroke="none" transform="matrix(1,0,0,1,392.8946,157.0578)" style="fill-opacity: 1; pointer-events: visible;" class="DimensionMark"><polygon points="-5,-5,0,0,-5,5"/></g><g id="mark3" fill="#000000" stroke="none" transform="matrix(1,0,0,1,183.985,289.2951)" style="fill-opacity: 1; pointer-events: visible;" class="DimensionMark"><polygon points="-5,-5,0,0,5,-5"/></g><g id="mark4" fill="#000000" stroke="none" transform="matrix(1,0,0,1,0,157.0578)" style="fill-opacity: 1; pointer-events: visible;" class="DimensionMark"><polygon points="5,5,0,0,5,-5"/></g></g><g transform="matrix(1,0,0,1,86.0668,129.937)" class="SpaceDimensionsLabel"><g id="NameLabel" style="display: block;" class="TextLabel NameLabel"><text x="0" y="0em" fill="#000000" stroke="none" style="font-family: Verdana; font-size: 33px; fill-opacity: 1; cursor: default;">K</text></g><g id="DimensionMeasureLabel" transform="matrix(1,0,0,1,-128.3359,80.2969)" style="display: none;" class="TextLabel DimensionMeasureLabel"><text x="31.6875" y="-1.2em" fill="#000000" stroke="none" style="font-family: Verdana; font-size: 33px; fill-opacity: 1; cursor: default;">12'11" x 9'6"</text><text x="0" y="0em" fill="#000000" stroke="none" style="font-family: Verdana; font-size: 33px; fill-opacity: 1; cursor: default;">3.93 m x 2.89 m</text></g></g></g></g><g id="4a2085dd-f13f-4996-9b5a-8ef35f327b00" fill="#ffffff" stroke="#ffffff" style="fill-opacity: 1; stroke-opacity: 1; stroke-width: 0.2;" class="Space Bath"><polygon points="579.39,680.26 398.69,680.26 398.69,533.21 579.39,533.21 "/><g transform="matrix(1,0,0,1,398.6931,533.2071)" class="Dimension"><g transform="matrix(1,0,0,1,0,0)" style="display: none;" class="Visual"><g id="mark1" fill="#000000" stroke="none" transform="matrix(1,0,0,1,90.3497,0)" style="fill-opacity: 1; pointer-events: visible;" class="DimensionMark"><polygon points="-5,5,0,0,5,5"/></g><g id="mark2" fill="#000000" stroke="none" transform="matrix(1,0,0,1,180.6994,73.5289)" style="fill-opacity: 1; pointer-events: visible;" class="DimensionMark"><polygon points="-5,-5,0,0,-5,5"/></g><g id="mark3" fill="#000000" stroke="none" transform="matrix(1,0,0,1,90.3497,147.0578)" style="fill-opacity: 1; pointer-events: visible;" class="DimensionMark"><polygon points="-5,-5,0,0,5,-5"/></g><g id="mark4" fill="#000000" stroke="none" transform="matrix(1,0,0,1,0,73.5289)" style="fill-opacity: 1; pointer-events: visible;" class="DimensionMark"><polygon points="5,5,0,0,5,-5"/></g></g><g transform="matrix(1,0,0,1,91.3282,64.1057)" class="SpaceDimensionsLabel"><g id="NameLabel" style="display: block;" class="TextLabel NameLabel"><text x="0" y="0em" fill="#000000" stroke="none" style="font-family: Verdana; font-size: 33px; fill-opacity: 1; cursor: default;">KPH</text></g><g id="DimensionMeasureLabel" transform="matrix(1,0,0,1,-106.1953,80.2969)" style="display: none;" class="TextLabel DimensionMeasureLabel"><text x="31.6875" y="-1.2em" fill="#000000" stroke="none" style="font-family: Verdana; font-size: 33px; fill-opacity: 1; cursor: default;">5'11" x 4'10"</text><text x="0" y="0em" fill="#000000" stroke="none" style="font-family: Verdana; font-size: 33px; fill-opacity: 1; cursor: default;">1.81 m x 1.47 m</text></g></g></g></g><g id="Wall" fill="#000000" stroke="#000000" style="fill-opacity: 1; stroke-opacity: 1; stroke-width: 0.2;" class="Wall External"><polygon points="186.50,152.30 723.68,152.30 758.68,113.30 152.50,113.30 "/><g id="Window" fill="#f0f0ff" stroke="#000000" style="fill-opacity: 1; stroke-width: 1; stroke-opacity: 1;" class="Window Regular"><polygon points="190.63,152.30 720.60,152.30 720.60,113.30 190.63,113.30 "/><g id="Glass" class="Glass"><polygon points="190.63,152.30 720.60,152.30 720.60,113.30 190.63,113.30 "/></g><g id="Panel" class="Panel"><line x1="198.13090379270358" x2="713.0976024366842" y1="132.7958587000054" y2="132.79585870000525"/><line x1="198.13090379270358" x2="198.13090379270358" y1="152.2958587000054" y2="113.2958587000054"/><line x1="713.0976024366842" x2="713.0976024366842" y1="152.29585870000525" y2="113.29585870000525"/></g></g></g><g id="Wall" fill="#000000" stroke="#000000" style="fill-opacity: 1; stroke-opacity: 1; stroke-width: 0.2;" class="Wall External"><polygon points="723.68,152.30 723.68,241.68 758.68,206.68 758.68,113.30 "/></g><g id="Wall" fill="#000000" stroke="#000000" style="fill-opacity: 1; stroke-opacity: 1; stroke-width: 0.2;" class="Wall External"><polygon points="723.68,241.68 1242.38,241.68 1260.38,206.68 758.68,206.68 "/></g><g id="Wall" fill="#000000" stroke="#000000" style="fill-opacity: 1; stroke-opacity: 1; stroke-width: 0.2;" class="Wall External"><polygon points="1242.38,241.68 1242.38,822.50 1260.38,843.50 1260.38,206.68 "/><g id="Window" fill="#f0f0ff" stroke="#000000" style="fill-opacity: 1; stroke-width: 1; stroke-opacity: 1;" class="Window Regular"><polygon points="1242.38,244.37 1242.38,421.55 1260.38,421.55 1260.38,244.37 "/><g id="Glass" class="Glass"><polygon points="1242.38,244.37 1242.38,421.55 1260.38,421.55 1260.38,244.37 "/></g><g id="Panel" class="Panel"><line x1="1251.3803306116433" x2="1251.3803306116433" y1="251.87191637906554" y2="414.05084694683376"/><line x1="1242.3803306116433" x2="1260.3803306116433" y1="251.87191637906554" y2="251.87191637906554"/><line x1="1242.3803306116433" x2="1260.3803306116433" y1="414.05084694683376" y2="414.05084694683376"/></g></g><g id="Window" fill="#f0f0ff" stroke="#000000" style="fill-opacity: 1; stroke-width: 1; stroke-opacity: 1;" class="Window Regular"><polygon points="1242.38,619.45 1242.38,794.60 1260.38,794.60 1260.38,619.45 "/><g id="Glass" class="Glass"><polygon points="1242.38,619.45 1242.38,794.60 1260.38,794.60 1260.38,619.45 "/></g><g id="Panel" class="Panel"><line x1="1251.3803306116433" x2="1251.3803306116433" y1="626.945005456316" y2="787.099808262105"/><line x1="1242.3803306116433" x2="1260.3803306116433" y1="626.945005456316" y2="626.945005456316"/><line x1="1242.3803306116433" x2="1260.3803306116433" y1="787.099808262105" y2="787.099808262105"/></g></g><g id="Door" fill="#ffffff" stroke="#000000" style="fill-opacity: 1; stroke-width: 1; stroke-opacity: 1;" class="Door Swing Beside"><polygon points="1242.38,535.61 1242.38,613.29 1260.38,613.29 1260.38,535.61 "/><g id="Threshold" class="Threshold"><polygon points="1242.38,535.61 1242.38,613.29 1260.38,613.29 1260.38,535.61 "/></g><g id="Panel" fill="none" style="" class="Panel Left Positive"><g id="PanelArea" fill="none" stroke="none" style="" class="PanelArea"><polygon points="1242.38,535.61 1242.38,613.29 1260.38,613.29 1260.38,535.61 "/></g><path d="M1260.38,613.29 q77.68,0.00 77.68,-77.68 l-77.68,0.00Z"/></g></g><g id="Door" fill="#ffffff" stroke="#000000" style="fill-opacity: 1; stroke-width: 1; stroke-opacity: 1;" class="Door Swing Beside"><polygon points="1242.38,426.95 1242.38,505.04 1260.38,505.04 1260.38,426.95 "/><g id="Threshold" class="Threshold"><polygon points="1242.38,426.95 1242.38,505.04 1260.38,505.04 1260.38,426.95 "/></g><g id="Panel" fill="none" style="" class="Panel Right Positive"><g id="PanelArea" fill="none" stroke="none" style="" class="PanelArea"><polygon points="1242.38,426.95 1242.38,505.04 1260.38,505.04 1260.38,426.95 "/></g><path d="M1260.38,426.95 q78.09,0.00 78.09,78.09 l-78.09,0.00Z"/></g></g></g><g id="Wall" fill="#000000" stroke="#000000" style="fill-opacity: 1; stroke-opacity: 1; stroke-width: 0.2;" class="Wall External"><polygon points="1260.38,843.50 152.50,843.50 186.50,822.50 1242.38,822.50 "/><g id="Door" fill="#ffffff" stroke="#000000" style="fill-opacity: 1; stroke-width: 1; stroke-opacity: 1;" class="Door Swing Opposite"><polygon points="698.41,843.50 603.71,843.50 603.71,822.50 698.41,822.50 "/><g id="Threshold" class="Threshold"><polygon points="698.41,843.50 603.71,843.50 603.71,822.50 698.41,822.50 "/></g><g id="Panel" fill="none" style="" class="Panel Left Negative"><g id="PanelArea" fill="none" stroke="none" style="" class="PanelArea"><polygon points="698.41,843.50 603.71,843.50 603.71,822.50 698.41,822.50 "/></g><path d="M698.41,843.50 q0.00,94.70 -94.70,94.70 l0.00,-94.70Z"/></g><g id="Panel" fill="none" style="" class="Panel Right Positive"><g id="PanelArea" fill="none" stroke="none" style="" class="PanelArea"><polygon points="698.41,843.50 603.71,843.50 603.71,822.50 698.41,822.50 "/></g><path d="M698.41,822.50 q0.00,-94.70 -94.70,-94.70 l0.00,94.70Z"/></g></g></g><g id="Wall" fill="#000000" stroke="#000000" style="fill-opacity: 1; stroke-opacity: 1; stroke-width: 0.2;" class="Wall External"><polygon points="186.50,822.50 186.50,152.30 152.50,113.30 152.50,843.50 "/><g id="Window" fill="#f0f0ff" stroke="#000000" style="fill-opacity: 1; stroke-width: 1; stroke-opacity: 1;" class="Window Regular"><polygon points="186.50,760.64 186.50,535.68 152.50,535.68 152.50,760.64 "/><g id="Glass" class="Glass"><polygon points="186.50,760.64 186.50,535.68 152.50,535.68 152.50,760.64 "/></g><g id="Panel" class="Panel"><line x1="169.4979174266349" x2="169.49791742663487" y1="753.1373454046603" y2="543.1805439515667"/><line x1="186.4979174266349" x2="152.4979174266349" y1="753.1373454046603" y2="753.1373454046603"/><line x1="186.49791742663487" x2="152.49791742663487" y1="543.1805439515666" y2="543.1805439515666"/></g></g></g><g id="Wall" fill="#000000" stroke="#000000" style="fill-opacity: 1; stroke-opacity: 1; stroke-width: 0.2;" class="Wall"><polygon points="723.68,241.68 723.68,533.21 740.68,533.21 740.68,241.68 "/><g id="Door" fill="#ffffff" stroke="#000000" style="fill-opacity: 1; stroke-width: 1; stroke-opacity: 1;" class="Door Swing Beside"><polygon points="723.68,438.52 723.68,514.07 740.68,514.07 740.68,438.52 "/><g id="Threshold" class="Threshold"><polygon points="723.68,438.52 723.68,514.07 740.68,514.07 740.68,438.52 "/></g><g id="Panel" fill="none" style="" class="Panel Right Positive"><g id="PanelArea" fill="none" stroke="none" style="" class="PanelArea"><polygon points="723.68,438.52 723.68,514.07 740.68,514.07 740.68,438.52 "/></g><path d="M740.68,438.52 q75.55,0.00 75.55,75.55 l-75.55,0.00Z"/></g></g></g><g id="Wall" fill="#000000" stroke="#000000" style="fill-opacity: 1; stroke-opacity: 1; stroke-width: 0.2;" class="Wall"><polygon points="740.68,518.21 1260.38,518.21 1260.38,533.21 723.68,533.21 "/></g><g id="Wall" fill="#000000" stroke="#000000" style="fill-opacity: 1; stroke-opacity: 1; stroke-width: 0.2;" class="Wall"><polygon points="590.39,518.21 590.39,843.50 579.39,843.50 579.39,533.21 "/><g id="Door" fill="#ffffff" stroke="#000000" style="fill-opacity: 1; stroke-width: 1; stroke-opacity: 1;" class="Door Swing Beside"><polygon points="590.39,694.03 590.39,761.05 579.39,761.05 579.39,694.03 "/><g id="Threshold" class="Threshold"><polygon points="590.39,694.03 590.39,761.05 579.39,761.05 579.39,694.03 "/></g><g id="Panel" fill="none" style="" class="Panel Left Negative"><g id="PanelArea" fill="none" stroke="none" style="" class="PanelArea"><polygon points="590.39,694.03 590.39,761.05 579.39,761.05 579.39,694.03 "/></g><path d="M590.39,694.03 q67.02,0.00 67.02,67.02 l-67.02,0.00Z"/></g></g><g id="Door" fill="#ffffff" stroke="#000000" style="fill-opacity: 1; stroke-width: 1; stroke-opacity: 1;" class="Door Swing Beside"><polygon points="590.39,550.29 590.39,618.49 579.39,618.49 579.39,550.29 "/><g id="Threshold" class="Threshold"><polygon points="590.39,550.29 590.39,618.49 579.39,618.49 579.39,550.29 "/></g><g id="Panel" fill="none" style="" class="Panel Right Negative"><g id="PanelArea" fill="none" stroke="none" style="" class="PanelArea"><polygon points="590.39,550.29 590.39,618.49 579.39,618.49 579.39,550.29 "/></g><path d="M590.39,618.49 q68.20,0.00 68.20,-68.20 l-68.20,0.00Z"/></g></g></g><g id="Wall" fill="#000000" stroke="#000000" style="fill-opacity: 1; stroke-opacity: 1; stroke-width: 0.2;" class="Wall"><polygon points="370.48,518.21 370.48,690.26 398.69,680.26 398.69,533.21 "/></g><g id="Wall" fill="#000000" stroke="#000000" style="fill-opacity: 1; stroke-opacity: 1; stroke-width: 0.2;" class="Wall"><polygon points="370.48,690.26 590.39,690.26 590.39,680.26 398.69,680.26 "/></g><g id="Wall" fill="#000000" stroke="#000000" style="fill-opacity: 1; stroke-opacity: 1; stroke-width: 0.2;" class="Wall"><polygon points="590.39,518.21 370.48,518.21 398.69,533.21 579.39,533.21 "/></g><g id="Wall" fill="#000000" stroke="#000000" style="fill-opacity: 1; stroke-opacity: 1; stroke-width: 0.2;" class="Wall"><polygon points="381.48,518.21 152.50,518.21 152.50,533.21 381.48,533.21 "/><g id="Door" fill="#ffffff" stroke="#000000" style="fill-opacity: 1; stroke-width: 1; stroke-opacity: 1;" class="Door None Beside"><polygon points="369.68,518.21 283.13,518.21 283.13,533.21 369.68,533.21 "/><g id="Threshold" stroke="#ffffff" style="" class="Threshold"><polygon points="369.68,518.21 283.13,518.21 283.13,533.21 369.68,533.21 "/></g></g></g><g id="Wall" fill="#000000" stroke="#000000" style="fill-opacity: 1; stroke-opacity: 1; stroke-width: 0.2;" class="Wall"><polygon points="723.68,533.21 723.68,843.50 735.68,843.50 735.68,533.21 "/><g id="Door" fill="#ffffff" stroke="#000000" style="fill-opacity: 1; stroke-width: 1; stroke-opacity: 1;" class="Door Swing Beside"><polygon points="723.68,537.48 723.68,609.85 735.68,609.85 735.68,537.48 "/><g id="Threshold" class="Threshold"><polygon points="723.68,537.48 723.68,609.85 735.68,609.85 735.68,537.48 "/></g><g id="Panel" fill="none" style="" class="Panel Left Positive"><g id="PanelArea" fill="none" stroke="none" style="" class="PanelArea"><polygon points="723.68,537.48 723.68,609.85 735.68,609.85 735.68,537.48 "/></g><path d="M735.68,609.85 q72.37,0.00 72.37,-72.37 l-72.37,0.00Z"/></g></g></g><g id="Wall" fill="#000000" stroke="#000000" style="fill-opacity: 1; stroke-opacity: 1; stroke-width: 0.2;" class="Wall"><polygon points="1260.38,843.50 1393.41,843.50 1393.41,800.50 1260.38,800.50 "/></g><g id="Railing" fill="#ffffff" stroke="#000000" style="fill-opacity: 1; stroke-opacity: 1; stroke-width: 0.2;" class="Railing"><polygon points="1393.41,800.50 1393.41,241.68 1376.41,241.68 1376.41,800.50 " style="stroke-dasharray: 0;"/></g><g id="Wall" fill="#000000" stroke="#000000" style="fill-opacity: 1; stroke-opacity: 1; stroke-width: 0.2;" class="Wall"><polygon points="1260.38,206.68 1393.41,206.68 1393.41,241.68 1260.38,241.68 "/></g><g class="FixedFurniture ElectricalAppliance Refrigerator" fill="#ffffff" stroke="#000000" transform="matrix(-1,0,0,-1,246.498,822.4553)" style="fill-opacity: 1; stroke-opacity: 1;">
        <g class="BoundaryPolygon">
            <polygon points="0,0 60,0 60,60 0,60"/>
        </g>
        <g class="electricitySign" fill="none">
            <path d="M0,0,30,37.1v-18L60,56.3"/>
        </g>
        <g class="Doors">
            <rect y="56" width="60" height="4"/>
        </g>
        <g class="Direction" fill-opacity="0.9" style="display: none;">
            <polygon points="32.009 55.197 32.009 44.581 29 44.581 29 55.197 25.197 55.197 30.5 60 35.803 55.197 32.009 55.197" fill="#444444"/>
        </g> 
        <g class="Name" fill-opacity="0.9" style="display: none;">
            <text transform="translate(3 12)" font-size="12" font-family="Verdana, Sans-Serif">REF</text>
        </g>
        <desc>Width:60 Height:170 Depth:60 Elevation:0</desc>
    </g><g class="FixedFurniture BaseCabinet" fill="#ffffff" stroke="#000000" transform="matrix(-1,0,0,-1,526.868,822.4553)" style="fill-opacity: 1; stroke-opacity: 1;">
        <g class="BoundaryPolygon">
            <polygon points="0.00,0.00 280.37,0.00 280.37,60.00 0.00,60.00 "/>
        </g>
        <g class="Direction" fill-opacity="0.9" style="display: none;">
            <polygon points="149.57,55.20 149.57,44.58 146.56,44.58 146.56,55.20 142.76,55.20 148.06,60.00 153.37,55.20 149.57,55.20 " fill="#444444"/>
        </g> 
        <g class="Name" fill-opacity="0.9" style="display: none;">
            <text transform="translate(3 12)" font-size="12" font-family="Verdana, Sans-Serif">CB</text>
        </g>
        <desc>Width:60 Height:90 Depth:60 Elevation:0</desc>
    </g><g class="FixedFurniture DoubleSink" fill="#ffffff" stroke="#000000" transform="matrix(-1,0,0,-1,363.8767,822.5021)" style="fill-opacity: 1; stroke-opacity: 1;">
        <g class="BoundaryPolygon" fill="none" stroke="none">
            <polygon points="0.00,0.00 74.49,0.00 74.49,60.00 0.00,60.00 "/>
        </g>
        <g class="InnerPolygonLeft">
            <polygon points="5.32,9.90 35.65,9.90 35.65,54.90 5.32,54.90 "/>
        </g>
        <g class="InnerPolygonRight">
            <polygon points="38.84,10.00 69.17,10.00 69.17,55.00 38.84,55.00 "/>
        </g>
        <g class="OuterDrain" stroke-width="0.8">
            <circle cx="20.962331922331767" cy="32.5" r="3.5"/>
            <circle cx="53.41670368025658" cy="32.5" r="3.5"/>
        </g>
        <g class="InnerDrain" stroke-width="0.8">
            <circle cx="20.962331922331767" cy="32.5" r="2"/>
            <circle cx="53.41670368025658" cy="32.5" r="2"/>
        </g>
        <g class="Faucet">
            <polygon points="34.05,4.90 40.05,4.90 40.05,18.90 34.05,18.90 "/>
        </g>
        <g class="Direction" fill-opacity="0.9" style="display: none;">
            <polygon points="38.85,54.70 38.85,44.08 35.84,44.08 35.84,54.70 32.04,54.70 37.34,60.00 42.64,54.70 38.85,54.70 " fill="#444444"/>
        </g> 
        <g class="Name" fill-opacity="0.9" style="display: none;">
            <text transform="translate(3 12)" font-size="12" font-family="Verdana, Sans-Serif">DSINK</text>
        </g>
        <desc>Width:70 Height:90 Depth:60 Elevation:0</desc>
    </g><g class="FixedFurniture ElectricalAppliance IntegratedStove" fill="#ffffff" stroke="#000000" transform="matrix(-1,0,0,-1,451.1166,822.5022)" style="fill-opacity: 1; stroke-opacity: 1;">
        <g class="BoundaryPolygon" fill="none" stroke="none">
            <polygon points="0.00,0.00 53.72,0.00 53.72,60.00 0.00,60.00 "/>
        </g>
        <g class="InnerPolygon">
            <polygon points="2.00,2.00 51.93,2.00 51.93,58.00 2.00,58.00 "/>
        </g>
        <g class="OuterCircle">
            <circle cx="14.326603155773885" cy="16" r="8"/>
            <circle cx="39.398158678378195" cy="16" r="8"/>
            <circle cx="14.326603155773885" cy="44" r="8"/>
            <circle cx="39.398158678378195" cy="44" r="8"/>
        </g>
        <g class="Direction" fill-opacity="0.9" style="display: none;">
            <polygon points="28.66,55.20 28.66,44.58 25.65,44.58 25.65,55.20 21.85,55.20 27.15,60.00 32.46,55.20 28.66,55.20 " fill="#444444"/>
        </g> 
        <g class="Name" fill-opacity="0.9" style="display: none;">
            <text transform="translate(3 12)" font-size="12" font-family="Verdana, Sans-Serif">INT_STOVE</text>
        </g>
        <desc>Width:60 Height:90 Depth:30 Elevation:0</desc>
    </g><g class="FixedFurniture ElectricalAppliance SpaceForAppliance2" fill="#ffffff" stroke="#000000" stroke-dasharray="4,4" transform="matrix(-0.7735,0,0,-1,525.907,822.4554)" style="fill-opacity: 1; stroke-opacity: 1;">
	    <g class="BoundaryPolygon"> 
		    <polygon points="0,0 60,0 60,60 0,60"/>
		</g>	
	    <g class="electricitySign" fill="none">
            <path d="M0,0,30.1,39.8V19.4L59.9,60"/>
		</g>
        <g class="Direction" fill-opacity="0.9" style="display: none;">
            <polygon points="32.009 55.197 32.009 44.581 29 44.581 29 55.197 25.197 55.197 30.5 60 35.803 55.197 32.009 55.197" fill="#444444"/>
        </g> 
        <g class="Name" fill-opacity="0.9" stroke-dasharray="none" style="display: none;">
            <text transform="translate(3 12)" font-size="12" font-family="Verdana, Sans-Serif">SFA</text>
        </g>
        <desc>Width:60 Height:90 Depth:60 Elevation:0</desc>
	</g><g class="FixedFurniture WallCabinet" fill="#ffffff" stroke="#000000" transform="matrix(-1,0,0,-1,527.1079,822.4553)" style="fill-opacity: 0.7; stroke-opacity: 1;">	
        <g class="BoundaryPolygon">
            <polygon points="0.00,0.00 280.61,0.00 280.61,30.00 0.00,30.00 "/>
        </g>
        <g class="Direction" fill-opacity="0.9" style="display: none;">
            <polygon points="149.70,25.20 149.70,14.58 146.69,14.58 146.69,25.20 142.89,25.20 148.19,30.00 153.49,25.20 149.70,25.20 " fill="#444444"/>
        </g> 
        <g class="Name" fill-opacity="0.9" style="display: none;">
            <text transform="translate(3 12)" font-size="12" font-family="Verdana, Sans-Serif">UC</text>
        </g>
        <desc>Width:60 Height:60 Depth:30 Elevation:140</desc>
    </g><g class="FixedFurniture ShowerCab" fill="#ffffff" stroke="#000000" transform="matrix(0.903,0,0,0.9497,398.6931,533.4444)" style="fill-opacity: 1; stroke-opacity: 1;">
	    <g class="BoundaryPolygon" fill="none" stroke="none"> 
		    <polygon points="0,0 85,0 85,85 0,85"/>
		</g>
        <g class="InnerPolygon">
            <path d="M85,.1,0,0,.1,85l42.7-.1h0c34.4-.7,41.3-16.7,41.8-41.7h0Z"/>
		    <polyline points="42.7 84.8 42.7 83.3 42.7 83.3 1.6 83.4 1.5 1.4 83.4 1.5 83 43.1 83 43.1 84.6 43.1"/>
        </g>
        <g class="Name" fill-opacity="0.9" style="display: none;">
            <text transform="translate(3 12)" font-size="12" font-family="Verdana, Sans-Serif">SC</text>
        </g>
        <desc>Width:85 Height:180 Depth:85 Elevation:0</desc>
	</g><g class="FixedFurniture Shower" fill="#ffffff" stroke="#000000" transform="matrix(1,0,0,1,416.5524,533.4444)" style="fill-opacity: 1; stroke-opacity: 1;"> 
	    <g class="BoundaryPolygon" fill="none" stroke="none">
            <polygon points="0,0 32,0 32,19 0,19"/>
        </g>
        <g class="InnerPolygon"> 
			<rect x="3.7" y="0.5" width="11.2" height="6.1"/>
			<rect x="17.6" y="0.5" width="11.2" height="6.1"/>
			<rect x="28.7" y="0.5" width="3.4" height="6.1"/>
			<rect x="0.5" y="0.5" width="3.2" height="6.1"/>
			<path d="M14.9,8.5c0,1.5-0.4,3.3-1.6,5    c-0.4,0.6-1,1.1-1.1,1.7c-0.2,1.1,0.3,2.8,2.5,3.2c0.5,0.1,1.3,0.1,1.6,0.1h-0.1c0.3,0,1.1,0,1.6-0.1c2.2-0.4,2.7-2.1,2.5-3.2    c-0.1-0.6-0.7-1.1-1.1-1.7c-1.2-1.7-1.6-3.5-1.6-5"/>
			<path d="M12.2,15.3c0.1,0.2,1.6,1.9,4.2,1.9 c2.4-0.1,3.7-1.7,3.9-1.9"/>
			<path d="M14.9,0.5h2.7v8c-0.9,0-1.8,0-2.7,0l0,0 C14.9,5.9,14.9,3.2,14.9,0.5z"/>
		</g>
	    <g class="Indicator"> 
			<path d="M3.7,3.6C5,3.1,5.2,3,5.2,3 c0,1.1,0,0,0,1.1C5.2,4.1,5.1,4.1,3.7,3.6"/>
			<path d="M28.7,3.6 C27.4,3.1,27.2,3,27.2,3c0,1.1,0,0,0,1.1C27.2,4.1,27.3,4.1,28.7,3.6"/>	
		</g>
        <desc>Width:32 Height:97 Depth:19 Elevation:135</desc>
	</g><g class="FixedFurniture ElectricalAppliance SpaceForAppliance2" fill="#ffffff" stroke="#000000" stroke-dasharray="4,4" transform="matrix(0,-1,1,0,398.7869,680.2649)" style="fill-opacity: 1; stroke-opacity: 1;">
	    <g class="BoundaryPolygon"> 
		    <polygon points="0,0 60,0 60,60 0,60"/>
		</g>	
	    <g class="electricitySign" fill="none">
            <path d="M0,0,30.1,39.8V19.4L59.9,60"/>
		</g>
        <g class="Direction" fill-opacity="0.9" style="display: none;">
            <polygon points="32.009 55.197 32.009 44.581 29 44.581 29 55.197 25.197 55.197 30.5 60 35.803 55.197 32.009 55.197" fill="#444444"/>
        </g> 
        <g class="Name" fill-opacity="0.9" stroke-dasharray="none" style="display: none;">
            <text transform="translate(3 12)" font-size="12" font-family="Verdana, Sans-Serif">SFA</text>
        </g>
        <desc>Width:60 Height:90 Depth:60 Elevation:0</desc>
	</g><g id="FixedFurnitureSet" transform="matrix(-1,0,0,-1,517.1977,680.1711)" class="FixedFurnitureSet" fill="#ffffff" stroke="#000000" style="fill-opacity: 0.4; stroke-opacity: 0.4;"><g class="FixedFurniture BaseCabinet" fill="#ffffff" stroke="#000000" transform="matrix(1,0,0,1,0,0)" style="fill-opacity: 1; stroke-opacity: 1;">
        <g class="BoundaryPolygon">
            <polygon points="0.00,0.00 47.14,0.00 47.14,39.25 0.00,39.25 "/>
        </g>
        <g class="Direction" fill-opacity="0.9" style="display: none;">
            <polygon points="25.15,36.11 25.15,25.49 22.14,25.49 22.14,36.11 18.33,36.11 23.64,40.91 28.94,36.11 25.15,36.11 " fill="#444444"/>
        </g> 
        <g class="Name" fill-opacity="0.9" style="display: none;">
            <text transform="translate(3 12)" font-size="12" font-family="Verdana, Sans-Serif">CB</text>
        </g>
        <desc>Width:60 Height:5 Depth:60 Elevation:105</desc>
    </g><g class="FixedFurniture Sink" fill="#ffffff" stroke="#000000" transform="matrix(1,0,0,1,0,0)" style="fill-opacity: 1; stroke-opacity: 1;">
        <g class="BoundaryPolygon" fill="none" stroke="none">
        <polygon points="0.00,0.00 47.14,0.00 47.14,39.25 0.00,39.25 "/>
        </g>
        <g class="InnerPolygon">
            <polygon points="3.93,9.70 43.21,9.70 43.21,35.79 3.93,35.79 "/>
        </g>
        <g class="OuterDrain" stroke-width="0.8">
            <circle cx="23.56826740819574" cy="21.065762429337397" r="3.5"/>
        </g>
        <g class="InnerDrain" stroke-width="0.8">
            <circle cx="23.56826740819574" cy="21.065762429337397" r="2"/>
        </g>
        <g class="Faucet">
            <polygon points="21.21,3.27 27.21,3.27 27.21,17.27 21.21,17.27 "/>
        </g>
        <g class="Direction" fill-opacity="0.9" style="display: none;">
            <polygon points="25.15,36.11 25.15,25.49 22.14,25.49 22.14,36.11 18.33,36.11 23.64,40.91 28.94,36.11 25.15,36.11 " fill="#444444"/>
        </g> 
        <g class="Name" fill-opacity="0.9" style="display: none;">
            <text transform="translate(3 12)" font-size="12" font-family="Verdana, Sans-Serif">SINK</text>
        </g>
        <desc>Width:60 Height:90 Depth:60 Elevation:0</desc>
    </g></g><g class="FixedFurniture Toilet" fill="#ffffff" stroke="#000000" transform="matrix(-1,0,0,-1,567.6908,680.2648)" style="fill-opacity: 1; stroke-opacity: 1;">
	   <g class="BoundaryPolygon" fill="none" stroke="none"> 
            <polygon points="0,0 41,0 41,71 0,71"/>
		</g>
        <g class="InnerPolygon">
            <rect x="0.502" y="0.5" width="39.989" height="17.98"/>
            <path d="M40.491,44.237S41.619,70.5,20.907,70.5C-.523,70.5.6,44.237.6,44.237L.5,18.48H40.491Z"/>
            <rect x="17.318" y="7.975" width="6.357" height="3.03"/>
        </g>
        <desc>Width:41 Height:85 Depth:71 Elevation:0</desc>
    </g><g id="FixedFurnitureSet" transform="matrix(0,-1,1,0,736.0219,822.5022)" class="FixedFurnitureSet" fill="#ffffff" stroke="#000000" style="fill-opacity: 0.4; stroke-opacity: 0.4;"><g class="FixedFurniture Closet" fill="#ffffff" stroke="#000000" transform="matrix(1,0,0,1,0,0)" style="fill-opacity: 1; stroke-opacity: 1;">
        <g class="BoundaryPolygon">
            <polygon points="0.00,0.00 48.88,0.00 48.88,60.00 0.00,60.00 "/>
        </g>
        <g class="Direction" fill-opacity="0.9" style="display: none;">
            <polygon points="25.67,54.70 25.67,44.08 22.66,44.08 22.66,54.70 18.86,54.70 24.16,60.00 29.46,54.70 25.67,54.70 " fill="#444444"/>
        </g> 
        <g class="Name" fill-opacity="0.9" style="display: none;">
            <text transform="translate(3 12)" font-size="12" font-family="Verdana, Sans-Serif">CL</text>
        </g>
        <desc>Width:60 Height:200 Depth:60 Elevation:0</desc>
    </g><g class="FixedFurniture Closet" fill="#ffffff" stroke="#000000" transform="matrix(1,0,0,1,48.8826,0)" style="fill-opacity: 1; stroke-opacity: 1;">
        <g class="BoundaryPolygon">
            <polygon points="0.00,0.00 48.88,0.00 48.88,60.00 0.00,60.00 "/>
        </g>
        <g class="Direction" fill-opacity="0.9" style="display: none;">
            <polygon points="25.67,54.70 25.67,44.08 22.66,44.08 22.66,54.70 18.86,54.70 24.16,60.00 29.46,54.70 25.67,54.70 " fill="#444444"/>
        </g> 
        <g class="Name" fill-opacity="0.9" style="display: none;">
            <text transform="translate(3 12)" font-size="12" font-family="Verdana, Sans-Serif">CL</text>
        </g>
        <desc>Width:60 Height:200 Depth:60 Elevation:0</desc>
    </g><g class="FixedFurniture Closet" fill="#ffffff" stroke="#000000" transform="matrix(1,0,0,1,97.7653,0)" style="fill-opacity: 1; stroke-opacity: 1;">
        <g class="BoundaryPolygon">
            <polygon points="0.00,0.00 48.88,0.00 48.88,60.00 0.00,60.00 "/>
        </g>
        <g class="Direction" fill-opacity="0.9" style="display: none;">
            <polygon points="25.67,54.70 25.67,44.08 22.66,44.08 22.66,54.70 18.86,54.70 24.16,60.00 29.46,54.70 25.67,54.70 " fill="#444444"/>
        </g> 
        <g class="Name" fill-opacity="0.9" style="display: none;">
            <text transform="translate(3 12)" font-size="12" font-family="Verdana, Sans-Serif">CL</text>
        </g>
        <desc>Width:60 Height:200 Depth:60 Elevation:0</desc>
    </g><g class="FixedFurniture Closet" fill="#ffffff" stroke="#000000" transform="matrix(1,0,0,1,146.6479,0)" style="fill-opacity: 1; stroke-opacity: 1;">
        <g class="BoundaryPolygon">
            <polygon points="0.00,0.00 48.88,0.00 48.88,60.00 0.00,60.00 "/>
        </g>
        <g class="Direction" fill-opacity="0.9" style="display: none;">
            <polygon points="25.67,54.70 25.67,44.08 22.66,44.08 22.66,54.70 18.86,54.70 24.16,60.00 29.46,54.70 25.67,54.70 " fill="#444444"/>
        </g> 
        <g class="Name" fill-opacity="0.9" style="display: none;">
            <text transform="translate(3 12)" font-size="12" font-family="Verdana, Sans-Serif">CL</text>
        </g>
        <desc>Width:60 Height:200 Depth:60 Elevation:0</desc>
    </g></g><g id="FixedFurnitureSet" transform="matrix(0,-1,1,0,740.7719,419.3921)" class="FixedFurnitureSet" fill="#ffffff" stroke="#000000" style="fill-opacity: 0.4; stroke-opacity: 0.4;"><g class="FixedFurniture Closet" fill="#ffffff" stroke="#000000" transform="matrix(1,0,0,1,0,0)" style="fill-opacity: 1; stroke-opacity: 1;">
        <g class="BoundaryPolygon">
            <polygon points="0.00,0.00 59.24,0.00 59.24,60.00 0.00,60.00 "/>
        </g>
        <g class="Direction" fill-opacity="0.9" style="display: none;">
            <polygon points="31.11,54.70 31.11,44.08 28.10,44.08 28.10,54.70 24.30,54.70 29.60,60.00 34.90,54.70 31.11,54.70 " fill="#444444"/>
        </g> 
        <g class="Name" fill-opacity="0.9" style="display: none;">
            <text transform="translate(3 12)" font-size="12" font-family="Verdana, Sans-Serif">CL</text>
        </g>
        <desc>Width:60 Height:200 Depth:60 Elevation:0</desc>
    </g><g class="FixedFurniture Closet" fill="#ffffff" stroke="#000000" transform="matrix(1,0,0,1,59.2362,0)" style="fill-opacity: 1; stroke-opacity: 1;">
        <g class="BoundaryPolygon">
            <polygon points="0.00,0.00 59.24,0.00 59.24,60.00 0.00,60.00 "/>
        </g>
        <g class="Direction" fill-opacity="0.9" style="display: none;">
            <polygon points="31.11,54.70 31.11,44.08 28.10,44.08 28.10,54.70 24.30,54.70 29.60,60.00 34.90,54.70 31.11,54.70 " fill="#444444"/>
        </g> 
        <g class="Name" fill-opacity="0.9" style="display: none;">
            <text transform="translate(3 12)" font-size="12" font-family="Verdana, Sans-Serif">CL</text>
        </g>
        <desc>Width:60 Height:200 Depth:60 Elevation:0</desc>
    </g><g class="FixedFurniture Closet" fill="#ffffff" stroke="#000000" transform="matrix(1,0,0,1,118.4723,0)" style="fill-opacity: 1; stroke-opacity: 1;">
        <g class="BoundaryPolygon">
            <polygon points="0.00,0.00 59.24,0.00 59.24,60.00 0.00,60.00 "/>
        </g>
        <g class="Direction" fill-opacity="0.9" style="display: none;">
            <polygon points="31.11,54.70 31.11,44.08 28.10,44.08 28.10,54.70 24.30,54.70 29.60,60.00 34.90,54.70 31.11,54.70 " fill="#444444"/>
        </g> 
        <g class="Name" fill-opacity="0.9" style="display: none;">
            <text transform="translate(3 12)" font-size="12" font-family="Verdana, Sans-Serif">CL</text>
        </g>
        <desc>Width:60 Height:200 Depth:60 Elevation:0</desc>
     </g></g><g id="Column" fill="#000000" stroke="none" style="fill-opacity: 1;" class="Column Rectangle"><polygon points="579.39,533.44 567.69,533.44 567.69,547.47 579.39,547.47 "/></g><g class="FixedFurniture WallCabinet" fill="#ffffff" stroke="#000000" transform="matrix(-1,0,0,-1,579.3925,680.1087)" style="fill-opacity: 0.7; stroke-opacity: 1;">	
        <g class="BoundaryPolygon">
            <polygon points="0.00,0.00 120.82,0.00 120.82,22.32 0.00,22.32 "/>
        </g>
        <g class="Direction" fill-opacity="0.9" style="display: none;">
            <polygon points="64.46,18.74 64.46,8.13 61.45,8.13 61.45,18.74 57.64,18.74 62.95,23.55 68.25,18.74 64.46,18.74 " fill="#444444"/>
        </g> 
        <g class="Name" fill-opacity="0.9" style="display: none;">
            <text transform="translate(3 12)" font-size="12" font-family="Verdana, Sans-Serif">UC</text>
        </g>
        <desc>Width:60 Height:60 Depth:30 Elevation:140</desc>
    </g><g class="FixedFurniture Closet" fill="#ffffff" stroke="#000000" transform="matrix(-1,0,0,-1,579.3925,822.4552)" style="fill-opacity: 1; stroke-opacity: 1;">
        <g class="BoundaryPolygon">
            <polygon points="0.00,0.00 52.85,0.00 52.85,60.00 0.00,60.00 "/>
        </g>
        <g class="Direction" fill-opacity="0.9" style="display: none;">
            <polygon points="27.76,54.70 27.76,44.08 24.75,44.08 24.75,54.70 20.94,54.70 26.25,60.00 31.55,54.70 27.76,54.70 " fill="#444444"/>
        </g> 
        <g class="Name" fill-opacity="0.9" style="display: none;">
            <text transform="translate(3 12)" font-size="12" font-family="Verdana, Sans-Serif">CL</text>
        </g>
        <desc>Width:60 Height:200 Depth:60 Elevation:0</desc>
     </g><g fill="#0000ff" stroke="#0000ff" style="display: none;" class="SelectionControls"><g style="display: none;" class="rotateControl"><circle cx="466.85181742663485" cy="276.75218370000533" r="5" style="stroke : none; fill-opacity: 0.5; cursor:crosshair"/></g><g style="display: none;" class="ResizeNControl"><circle cx="0" cy="0" r="5" style="stroke : none; fill-opacity: 0.5"/></g><g style="display: none;" class="ResizeNEControl"><circle cx="0" cy="0" r="5" style="stroke : none; fill-opacity: 0.5"/></g><g style="display: none;" class="ResizeEControl"><circle cx="0" cy="0" r="5" style="stroke : none; fill-opacity: 0.5"/></g><g style="display: none;" class="ResizeSEControl"><circle cx="0" cy="0" r="5" style="stroke : none; fill-opacity: 0.5"/></g><g style="display: none;" class="ResizeSControl"><circle cx="0" cy="0" r="5" style="stroke : none; fill-opacity: 0.5"/></g><g style="display: none;" class="ResizeSWControl"><circle cx="0" cy="0" r="5" style="stroke : none; fill-opacity: 0.5"/></g><g style="display: none;" class="ResizeWControl"><circle cx="0" cy="0" r="5" style="stroke : none; fill-opacity: 0.5"/></g><g style="display: none;" class="ResizeNWControl"><circle cx="0" cy="0" r="5" style="stroke : none; fill-opacity: 0.5"/></g><g style="display: none;" class="removeControl"><polygon style="stroke : none; fill-opacity: 0.1" points="441.48,306.75 492.23,306.75 492.23,347.46 441.48,347.46 "/></g><g style="display: none;" class="copyPasteControl"><polygon style="stroke : none; fill-opacity: 0.1"/></g><g style="display: none;" class="translateControl"><polygon style="stroke : none; fill-opacity: 0.1; cursor:move" points="441.48,306.75 492.23,306.75 492.23,347.46 441.48,347.46 "/></g></g><g fill="#0000ff" stroke="#0000ff" style="display: none;" class="SelectionControls"><polygon fill="none" stroke="#0000ff" style="" points="186.50,152.30 723.68,152.30 723.68,518.21 186.50,518.21 "/><g style="display: none;" class="rotateControl"><circle cx="455.0880053172599" cy="122.29585870000534" r="5" style="stroke : none; fill-opacity: 0.5; cursor:crosshair"/></g><g style="display: none;" class="ResizeNControl"><circle cx="0" cy="0" r="5" style="stroke : none; fill-opacity: 0.5"/></g><g style="display: none;" class="ResizeNEControl"><circle cx="0" cy="0" r="5" style="stroke : none; fill-opacity: 0.5"/></g><g style="display: none;" class="ResizeEControl"><circle cx="0" cy="0" r="5" style="stroke : none; fill-opacity: 0.5"/></g><g style="display: none;" class="ResizeSEControl"><circle cx="0" cy="0" r="5" style="stroke : none; fill-opacity: 0.5"/></g><g style="display: none;" class="ResizeSControl"><circle cx="0" cy="0" r="5" style="stroke : none; fill-opacity: 0.5"/></g><g style="display: none;" class="ResizeSWControl"><circle cx="0" cy="0" r="5" style="stroke : none; fill-opacity: 0.5"/></g><g style="display: none;" class="ResizeWControl"><circle cx="0" cy="0" r="5" style="stroke : none; fill-opacity: 0.5"/></g><g style="display: none;" class="ResizeNWControl"><circle cx="0" cy="0" r="5" style="stroke : none; fill-opacity: 0.5"/></g><g style="display: none;" class="removeControl"><polygon style="stroke : none; fill-opacity: 0.1"/></g><g style="display: none;" class="copyPasteControl"><polygon style="stroke : none; fill-opacity: 0.1"/></g><g style="display: none;" class="translateControl"><polygon style="stroke : none; fill-opacity: 0.1; cursor:move"/></g></g></g></g></g></svg>
