  0
SECTION
  2
HEADER
  9
$ACADVER
  1
AC1009
  9
$FILLMODE
 70
 0
  9
$SPLFRAME
 70
 1
  9
$EXTMIN
 10
0
 20
0
 30
0.0
  9
$EXTMAX
 10
41.6667
 20
41.6667
 30
0.0
  0
ENDSEC
  0
SECTION
  2
TABLES
  0
TABLE
  2
LAYER
 70
1
  0
LAYER
  2
0
 70
     0
 62
     7
  6
CONTINUOUS
  0
ENDTAB
  0
ENDSEC
  0
SECTION
  2
ENTITIES
  0
POLYLINE
  8
0
 62
     7
 66
     1
 10
0
 20
0
 30
0.0
 70
     1
 40
0
 41
0
  0
VERTEX
  8
0
 10
13.129
 20
7.26025
 30
0.0
 40
0
 41
0
  0
VERTEX
  8
0
 10
14.3376
 20
7.26025
 30
0.0
 40
0
 41
0
  0
VERTEX
  8
0
 10
14.3376
 20
1.43924
 30
0.0
 40
0
 41
0
  0
VERTEX
  8
0
 10
13.129
 20
1.43924
 30
0.0
 40
0
 41
0
  0
VERTEX
  8
0
 10
13.129
 20
7.26025
 30
0.0
 40
0
 41
0
  0
SEQEND
 8
0
  0
POLYLINE
  8
0
 62
     0
 66
     1
 10
0
 20
0
 30
0.0
 70
     1
 40
0.15
 41
0.15
  0
VERTEX
  8
0
 10
13.129
 20
7.26025
 30
0.0
 40
0.00208333
 41
0.00208333
  0
VERTEX
  8
0
 10
14.3376
 20
7.26025
 30
0.0
 40
0.00208333
 41
0.00208333
  0
VERTEX
  8
0
 10
14.3376
 20
1.43924
 30
0.0
 40
0.00208333
 41
0.00208333
  0
VERTEX
  8
0
 10
13.129
 20
1.43924
 30
0.0
 40
0.00208333
 41
0.00208333
  0
VERTEX
  8
0
 10
13.129
 20
7.26025
 30
0.0
 40
0.00208333
 41
0.00208333
  0
SEQEND
 8
0
  0
TEXT
  8
0
 62
     0
 10
14.0015
 20
5.20567
 30
0.0
 40
0.34375
  1
P
 50
270
  0
TEXT
  8
0
 62
     0
 10
14.0015
 20
5.00667
 30
0.0
 40
0.34375
  1
ARVEKE
 50
270
  0
POLYLINE
  8
0
 62
     7
 66
     1
 10
0
 20
0
 30
0.0
 70
     1
 40
0
 41
0
  0
VERTEX
  8
0
 10
6.1499
 20
4.37978
 30
0.0
 40
0
 41
0
  0
VERTEX
  8
0
 10
7.53836
 20
4.37978
 30
0.0
 40
0
 41
0
  0
VERTEX
  8
0
 10
7.53836
 20
1.21007
 30
0.0
 40
0
 41
0
  0
VERTEX
  8
0
 10
6.1499
 20
1.21007
 30
0.0
 40
0
 41
0
  0
VERTEX
  8
0
 10
6.1499
 20
4.37978
 30
0.0
 40
0
 41
0
  0
SEQEND
 8
0
  0
POLYLINE
  8
0
 62
     7
 66
     1
 10
0
 20
0
 30
0.0
 70
     1
 40
0.15
 41
0.15
  0
VERTEX
  8
0
 10
6.1499
 20
4.37978
 30
0.0
 40
0.00208333
 41
0.00208333
  0
VERTEX
  8
0
 10
7.53836
 20
4.37978
 30
0.0
 40
0.00208333
 41
0.00208333
  0
VERTEX
  8
0
 10
7.53836
 20
1.21007
 30
0.0
 40
0.00208333
 41
0.00208333
  0
VERTEX
  8
0
 10
6.1499
 20
1.21007
 30
0.0
 40
0.00208333
 41
0.00208333
  0
VERTEX
  8
0
 10
6.1499
 20
4.37978
 30
0.0
 40
0.00208333
 41
0.00208333
  0
SEQEND
 8
0
  0
TEXT
  8
0
 62
     0
 10
6.66961
 20
2.79492
 30
0.0
 40
0.34375
  1
ET
 50
0
  0
POLYLINE
  8
0
 62
     7
 66
     1
 10
0
 20
0
 30
0.0
 70
     1
 40
0
 41
0
  0
VERTEX
  8
0
 10
1.94271
 20
8.19129
 30
0.0
 40
0
 41
0
  0
VERTEX
  8
0
 10
7.53836
 20
8.19129
 30
0.0
 40
0
 41
0
  0
VERTEX
  8
0
 10
7.53836
 20
4.37978
 30
0.0
 40
0
 41
0
  0
VERTEX
  8
0
 10
1.94271
 20
4.37978
 30
0.0
 40
0
 41
0
  0
VERTEX
  8
0
 10
1.94271
 20
8.19129
 30
0.0
 40
0
 41
0
  0
SEQEND
 8
0
  0
POLYLINE
  8
0
 62
     7
 66
     1
 10
0
 20
0
 30
0.0
 70
     1
 40
0.15
 41
0.15
  0
VERTEX
  8
0
 10
1.94271
 20
8.19129
 30
0.0
 40
0.00208333
 41
0.00208333
  0
VERTEX
  8
0
 10
7.53836
 20
8.19129
 30
0.0
 40
0.00208333
 41
0.00208333
  0
VERTEX
  8
0
 10
7.53836
 20
4.37978
 30
0.0
 40
0.00208333
 41
0.00208333
  0
VERTEX
  8
0
 10
1.94271
 20
4.37978
 30
0.0
 40
0.00208333
 41
0.00208333
  0
VERTEX
  8
0
 10
1.94271
 20
8.19129
 30
0.0
 40
0.00208333
 41
0.00208333
  0
SEQEND
 8
0
  0
TEXT
  8
0
 62
     0
 10
4.59872
 20
6.23104
 30
0.0
 40
0.34375
  1
OH
 50
0
  0
POLYLINE
  8
0
 62
     7
 66
     1
 10
0
 20
0
 30
0.0
 70
     1
 40
0
 41
0
  0
VERTEX
  8
0
 10
7.66336
 20
4.22353
 30
0.0
 40
0
 41
0
  0
VERTEX
  8
0
 10
12.9415
 20
4.22353
 30
0.0
 40
0
 41
0
  0
VERTEX
  8
0
 10
12.9415
 20
1.21007
 30
0.0
 40
0
 41
0
  0
VERTEX
  8
0
 10
7.66336
 20
1.21007
 30
0.0
 40
0
 41
0
  0
VERTEX
  8
0
 10
7.66336
 20
4.22353
 30
0.0
 40
0
 41
0
  0
SEQEND
 8
0
  0
POLYLINE
  8
0
 62
     7
 66
     1
 10
0
 20
0
 30
0.0
 70
     1
 40
0.15
 41
0.15
  0
VERTEX
  8
0
 10
7.66336
 20
4.22353
 30
0.0
 40
0.00208333
 41
0.00208333
  0
VERTEX
  8
0
 10
12.9415
 20
4.22353
 30
0.0
 40
0.00208333
 41
0.00208333
  0
VERTEX
  8
0
 10
12.9415
 20
1.21007
 30
0.0
 40
0.00208333
 41
0.00208333
  0
VERTEX
  8
0
 10
7.66336
 20
1.21007
 30
0.0
 40
0.00208333
 41
0.00208333
  0
VERTEX
  8
0
 10
7.66336
 20
4.22353
 30
0.0
 40
0.00208333
 41
0.00208333
  0
SEQEND
 8
0
  0
TEXT
  8
0
 62
     0
 10
10.3495
 20
2.58479
 30
0.0
 40
0.34375
  1
MH
 50
0
  0
POLYLINE
  8
0
 62
     7
 66
     1
 10
0
 20
0
 30
0.0
 70
     1
 40
0
 41
0
  0
VERTEX
  8
0
 10
7.71544
 20
7.26025
 30
0.0
 40
0
 41
0
  0
VERTEX
  8
0
 10
12.9415
 20
7.26025
 30
0.0
 40
0
 41
0
  0
VERTEX
  8
0
 10
12.9415
 20
4.37978
 30
0.0
 40
0
 41
0
  0
VERTEX
  8
0
 10
7.71544
 20
4.37978
 30
0.0
 40
0
 41
0
  0
VERTEX
  8
0
 10
7.71544
 20
7.26025
 30
0.0
 40
0
 41
0
  0
SEQEND
 8
0
  0
POLYLINE
  8
0
 62
     7
 66
     1
 10
0
 20
0
 30
0.0
 70
     1
 40
0.15
 41
0.15
  0
VERTEX
  8
0
 10
7.71544
 20
7.26025
 30
0.0
 40
0.00208333
 41
0.00208333
  0
VERTEX
  8
0
 10
12.9415
 20
7.26025
 30
0.0
 40
0.00208333
 41
0.00208333
  0
VERTEX
  8
0
 10
12.9415
 20
4.37978
 30
0.0
 40
0.00208333
 41
0.00208333
  0
VERTEX
  8
0
 10
7.71544
 20
4.37978
 30
0.0
 40
0.00208333
 41
0.00208333
  0
VERTEX
  8
0
 10
7.71544
 20
7.26025
 30
0.0
 40
0.00208333
 41
0.00208333
  0
SEQEND
 8
0
  0
TEXT
  8
0
 62
     0
 10
10.3661
 20
5.6786
 30
0.0
 40
0.34375
  1
MH
 50
0
  0
POLYLINE
  8
0
 62
     7
 66
     1
 10
0
 20
0
 30
0.0
 70
     1
 40
0
 41
0
  0
VERTEX
  8
0
 10
3.85915
 20
2.58757
 30
0.0
 40
0
 41
0
  0
VERTEX
  8
0
 10
6.03532
 20
2.58757
 30
0.0
 40
0
 41
0
  0
VERTEX
  8
0
 10
6.03532
 20
1.21007
 30
0.0
 40
0
 41
0
  0
VERTEX
  8
0
 10
1.94271
 20
1.21007
 30
0.0
 40
0
 41
0
  0
VERTEX
  8
0
 10
1.94271
 20
4.22353
 30
0.0
 40
0
 41
0
  0
VERTEX
  8
0
 10
3.85915
 20
4.22353
 30
0.0
 40
0
 41
0
  0
VERTEX
  8
0
 10
3.85915
 20
2.58757
 30
0.0
 40
0
 41
0
  0
SEQEND
 8
0
  0
POLYLINE
  8
0
 62
     7
 66
     1
 10
0
 20
0
 30
0.0
 70
     1
 40
0.15
 41
0.15
  0
VERTEX
  8
0
 10
3.85915
 20
2.58757
 30
0.0
 40
0.00208333
 41
0.00208333
  0
VERTEX
  8
0
 10
6.03532
 20
2.58757
 30
0.0
 40
0.00208333
 41
0.00208333
  0
VERTEX
  8
0
 10
6.03532
 20
1.21007
 30
0.0
 40
0.00208333
 41
0.00208333
  0
VERTEX
  8
0
 10
1.94271
 20
1.21007
 30
0.0
 40
0.00208333
 41
0.00208333
  0
VERTEX
  8
0
 10
1.94271
 20
4.22353
 30
0.0
 40
0.00208333
 41
0.00208333
  0
VERTEX
  8
0
 10
3.85915
 20
4.22353
 30
0.0
 40
0.00208333
 41
0.00208333
  0
VERTEX
  8
0
 10
3.85915
 20
2.58757
 30
0.0
 40
0.00208333
 41
0.00208333
  0
SEQEND
 8
0
  0
TEXT
  8
0
 62
     0
 10
2.83922
 20
2.87003
 30
0.0
 40
0.34375
  1
K
 50
0
  0
POLYLINE
  8
0
 62
     7
 66
     1
 10
0
 20
0
 30
0.0
 70
     1
 40
0
 41
0
  0
VERTEX
  8
0
 10
4.153
 20
4.22353
 30
0.0
 40
0
 41
0
  0
VERTEX
  8
0
 10
6.03532
 20
4.22353
 30
0.0
 40
0
 41
0
  0
VERTEX
  8
0
 10
6.03532
 20
2.69174
 30
0.0
 40
0
 41
0
  0
VERTEX
  8
0
 10
4.153
 20
2.69174
 30
0.0
 40
0
 41
0
  0
VERTEX
  8
0
 10
4.153
 20
4.22353
 30
0.0
 40
0
 41
0
  0
SEQEND
 8
0
  0
POLYLINE
  8
0
 62
     7
 66
     1
 10
0
 20
0
 30
0.0
 70
     1
 40
0.15
 41
0.15
  0
VERTEX
  8
0
 10
4.153
 20
4.22353
 30
0.0
 40
0.00208333
 41
0.00208333
  0
VERTEX
  8
0
 10
6.03532
 20
4.22353
 30
0.0
 40
0.00208333
 41
0.00208333
  0
VERTEX
  8
0
 10
6.03532
 20
2.69174
 30
0.0
 40
0.00208333
 41
0.00208333
  0
VERTEX
  8
0
 10
4.153
 20
2.69174
 30
0.0
 40
0.00208333
 41
0.00208333
  0
VERTEX
  8
0
 10
4.153
 20
4.22353
 30
0.0
 40
0.00208333
 41
0.00208333
  0
SEQEND
 8
0
  0
TEXT
  8
0
 62
     0
 10
5.10439
 20
3.55576
 30
0.0
 40
0.34375
  1
KPH
 50
0
  0
POLYLINE
  8
0
 62
     0
 66
     1
 10
0
 20
0
 30
0.0
 70
     1
 40
0
 41
0
  0
VERTEX
  8
0
 10
1.94271
 20
8.19129
 30
0.0
 40
0
 41
0
  0
VERTEX
  8
0
 10
7.53836
 20
8.19129
 30
0.0
 40
0
 41
0
  0
VERTEX
  8
0
 10
7.90294
 20
8.59754
 30
0.0
 40
0
 41
0
  0
VERTEX
  8
0
 10
1.58854
 20
8.59754
 30
0.0
 40
0
 41
0
  0
VERTEX
  8
0
 10
1.94271
 20
8.19129
 30
0.0
 40
0
 41
0
  0
SEQEND
 8
0
  0
POLYLINE
  8
0
 62
     0
 66
     1
 10
0
 20
0
 30
0.0
 70
     1
 40
0.15
 41
0.15
  0
VERTEX
  8
0
 10
1.94271
 20
8.19129
 30
0.0
 40
0.00208333
 41
0.00208333
  0
VERTEX
  8
0
 10
7.53836
 20
8.19129
 30
0.0
 40
0.00208333
 41
0.00208333
  0
VERTEX
  8
0
 10
7.90294
 20
8.59754
 30
0.0
 40
0.00208333
 41
0.00208333
  0
VERTEX
  8
0
 10
1.58854
 20
8.59754
 30
0.0
 40
0.00208333
 41
0.00208333
  0
VERTEX
  8
0
 10
1.94271
 20
8.19129
 30
0.0
 40
0.00208333
 41
0.00208333
  0
SEQEND
 8
0
  0
POLYLINE
  8
0
 62
     7
 66
     1
 10
0
 20
0
 30
0.0
 70
     1
 40
0
 41
0
  0
VERTEX
  8
0
 10
1.98574
 20
8.59754
 30
0.0
 40
0
 41
0
  0
VERTEX
  8
0
 10
7.50624
 20
8.59754
 30
0.0
 40
0
 41
0
  0
VERTEX
  8
0
 10
7.50624
 20
8.19129
 30
0.0
 40
0
 41
0
  0
VERTEX
  8
0
 10
1.98574
 20
8.19129
 30
0.0
 40
0
 41
0
  0
VERTEX
  8
0
 10
1.98574
 20
8.59754
 30
0.0
 40
0
 41
0
  0
SEQEND
 8
0
  0
POLYLINE
  8
0
 62
     0
 66
     1
 10
0
 20
0
 30
0.0
 70
     1
 40
0.75
 41
0.75
  0
VERTEX
  8
0
 10
1.98574
 20
8.59754
 30
0.0
 40
0.0104167
 41
0.0104167
  0
VERTEX
  8
0
 10
7.50624
 20
8.59754
 30
0.0
 40
0.0104167
 41
0.0104167
  0
VERTEX
  8
0
 10
7.50624
 20
8.19129
 30
0.0
 40
0.0104167
 41
0.0104167
  0
VERTEX
  8
0
 10
1.98574
 20
8.19129
 30
0.0
 40
0.0104167
 41
0.0104167
  0
VERTEX
  8
0
 10
1.98574
 20
8.59754
 30
0.0
 40
0.0104167
 41
0.0104167
  0
SEQEND
 8
0
  0
POLYLINE
  8
0
 62
     7
 66
     1
 10
0
 20
0
 30
0.0
 70
     1
 40
0
 41
0
  0
VERTEX
  8
0
 10
1.98574
 20
8.59754
 30
0.0
 40
0
 41
0
  0
VERTEX
  8
0
 10
7.50624
 20
8.59754
 30
0.0
 40
0
 41
0
  0
VERTEX
  8
0
 10
7.50624
 20
8.19129
 30
0.0
 40
0
 41
0
  0
VERTEX
  8
0
 10
1.98574
 20
8.19129
 30
0.0
 40
0
 41
0
  0
VERTEX
  8
0
 10
1.98574
 20
8.59754
 30
0.0
 40
0
 41
0
  0
SEQEND
 8
0
  0
POLYLINE
  8
0
 62
     0
 66
     1
 10
0
 20
0
 30
0.0
 70
     1
 40
0.75
 41
0.75
  0
VERTEX
  8
0
 10
1.98574
 20
8.59754
 30
0.0
 40
0.0104167
 41
0.0104167
  0
VERTEX
  8
0
 10
7.50624
 20
8.59754
 30
0.0
 40
0.0104167
 41
0.0104167
  0
VERTEX
  8
0
 10
7.50624
 20
8.19129
 30
0.0
 40
0.0104167
 41
0.0104167
  0
VERTEX
  8
0
 10
1.98574
 20
8.19129
 30
0.0
 40
0.0104167
 41
0.0104167
  0
VERTEX
  8
0
 10
1.98574
 20
8.59754
 30
0.0
 40
0.0104167
 41
0.0104167
  0
SEQEND
 8
0
  0
POLYLINE
  8
0
 62
     0
 66
     1
 10
0
 20
0
 30
0.0
 40
0.75
 41
0.75
  0
VERTEX
  8
0
 10
2.06386
 20
8.39447
 30
0.0
 40
0.0104167
 41
0.0104167
  0
VERTEX
  8
0
 10
7.42811
 20
8.39447
 30
0.0
 40
0.0104167
 41
0.0104167
  0
SEQEND
 8
0
  0
POLYLINE
  8
0
 62
     0
 66
     1
 10
0
 20
0
 30
0.0
 40
0.75
 41
0.75
  0
VERTEX
  8
0
 10
2.06386
 20
8.19135
 30
0.0
 40
0.0104167
 41
0.0104167
  0
VERTEX
  8
0
 10
2.06386
 20
8.5976
 30
0.0
 40
0.0104167
 41
0.0104167
  0
SEQEND
 8
0
  0
POLYLINE
  8
0
 62
     0
 66
     1
 10
0
 20
0
 30
0.0
 40
0.75
 41
0.75
  0
VERTEX
  8
0
 10
7.42811
 20
8.19135
 30
0.0
 40
0.0104167
 41
0.0104167
  0
VERTEX
  8
0
 10
7.42811
 20
8.5976
 30
0.0
 40
0.0104167
 41
0.0104167
  0
SEQEND
 8
0
  0
POLYLINE
  8
0
 62
     0
 66
     1
 10
0
 20
0
 30
0.0
 70
     1
 40
0
 41
0
  0
VERTEX
  8
0
 10
7.53836
 20
8.19129
 30
0.0
 40
0
 41
0
  0
VERTEX
  8
0
 10
7.53836
 20
7.26025
 30
0.0
 40
0
 41
0
  0
VERTEX
  8
0
 10
7.90294
 20
7.62483
 30
0.0
 40
0
 41
0
  0
VERTEX
  8
0
 10
7.90294
 20
8.59754
 30
0.0
 40
0
 41
0
  0
VERTEX
  8
0
 10
7.53836
 20
8.19129
 30
0.0
 40
0
 41
0
  0
SEQEND
 8
0
  0
POLYLINE
  8
0
 62
     0
 66
     1
 10
0
 20
0
 30
0.0
 70
     1
 40
0.15
 41
0.15
  0
VERTEX
  8
0
 10
7.53836
 20
8.19129
 30
0.0
 40
0.00208333
 41
0.00208333
  0
VERTEX
  8
0
 10
7.53836
 20
7.26025
 30
0.0
 40
0.00208333
 41
0.00208333
  0
VERTEX
  8
0
 10
7.90294
 20
7.62483
 30
0.0
 40
0.00208333
 41
0.00208333
  0
VERTEX
  8
0
 10
7.90294
 20
8.59754
 30
0.0
 40
0.00208333
 41
0.00208333
  0
VERTEX
  8
0
 10
7.53836
 20
8.19129
 30
0.0
 40
0.00208333
 41
0.00208333
  0
SEQEND
 8
0
  0
POLYLINE
  8
0
 62
     0
 66
     1
 10
0
 20
0
 30
0.0
 70
     1
 40
0
 41
0
  0
VERTEX
  8
0
 10
7.53836
 20
7.26025
 30
0.0
 40
0
 41
0
  0
VERTEX
  8
0
 10
12.9415
 20
7.26025
 30
0.0
 40
0
 41
0
  0
VERTEX
  8
0
 10
13.129
 20
7.62483
 30
0.0
 40
0
 41
0
  0
VERTEX
  8
0
 10
7.90294
 20
7.62483
 30
0.0
 40
0
 41
0
  0
VERTEX
  8
0
 10
7.53836
 20
7.26025
 30
0.0
 40
0
 41
0
  0
SEQEND
 8
0
  0
POLYLINE
  8
0
 62
     0
 66
     1
 10
0
 20
0
 30
0.0
 70
     1
 40
0.15
 41
0.15
  0
VERTEX
  8
0
 10
7.53836
 20
7.26025
 30
0.0
 40
0.00208333
 41
0.00208333
  0
VERTEX
  8
0
 10
12.9415
 20
7.26025
 30
0.0
 40
0.00208333
 41
0.00208333
  0
VERTEX
  8
0
 10
13.129
 20
7.62483
 30
0.0
 40
0.00208333
 41
0.00208333
  0
VERTEX
  8
0
 10
7.90294
 20
7.62483
 30
0.0
 40
0.00208333
 41
0.00208333
  0
VERTEX
  8
0
 10
7.53836
 20
7.26025
 30
0.0
 40
0.00208333
 41
0.00208333
  0
SEQEND
 8
0
  0
POLYLINE
  8
0
 62
     0
 66
     1
 10
0
 20
0
 30
0.0
 70
     1
 40
0
 41
0
  0
VERTEX
  8
0
 10
12.9415
 20
7.26025
 30
0.0
 40
0
 41
0
  0
VERTEX
  8
0
 10
12.9415
 20
1.21007
 30
0.0
 40
0
 41
0
  0
VERTEX
  8
0
 10
13.129
 20
0.991319
 30
0.0
 40
0
 41
0
  0
VERTEX
  8
0
 10
13.129
 20
7.62483
 30
0.0
 40
0
 41
0
  0
VERTEX
  8
0
 10
12.9415
 20
7.26025
 30
0.0
 40
0
 41
0
  0
SEQEND
 8
0
  0
POLYLINE
  8
0
 62
     0
 66
     1
 10
0
 20
0
 30
0.0
 70
     1
 40
0.15
 41
0.15
  0
VERTEX
  8
0
 10
12.9415
 20
7.26025
 30
0.0
 40
0.00208333
 41
0.00208333
  0
VERTEX
  8
0
 10
12.9415
 20
1.21007
 30
0.0
 40
0.00208333
 41
0.00208333
  0
VERTEX
  8
0
 10
13.129
 20
0.991319
 30
0.0
 40
0.00208333
 41
0.00208333
  0
VERTEX
  8
0
 10
13.129
 20
7.62483
 30
0.0
 40
0.00208333
 41
0.00208333
  0
VERTEX
  8
0
 10
12.9415
 20
7.26025
 30
0.0
 40
0.00208333
 41
0.00208333
  0
SEQEND
 8
0
  0
POLYLINE
  8
0
 62
     7
 66
     1
 10
0
 20
0
 30
0.0
 70
     1
 40
0
 41
0
  0
VERTEX
  8
0
 10
12.9415
 20
7.23226
 30
0.0
 40
0
 41
0
  0
VERTEX
  8
0
 10
13.129
 20
7.23226
 30
0.0
 40
0
 41
0
  0
VERTEX
  8
0
 10
13.129
 20
5.38661
 30
0.0
 40
0
 41
0
  0
VERTEX
  8
0
 10
12.9415
 20
5.38661
 30
0.0
 40
0
 41
0
  0
VERTEX
  8
0
 10
12.9415
 20
7.23226
 30
0.0
 40
0
 41
0
  0
SEQEND
 8
0
  0
POLYLINE
  8
0
 62
     0
 66
     1
 10
0
 20
0
 30
0.0
 70
     1
 40
0.75
 41
0.75
  0
VERTEX
  8
0
 10
12.9415
 20
7.23226
 30
0.0
 40
0.0104167
 41
0.0104167
  0
VERTEX
  8
0
 10
13.129
 20
7.23226
 30
0.0
 40
0.0104167
 41
0.0104167
  0
VERTEX
  8
0
 10
13.129
 20
5.38661
 30
0.0
 40
0.0104167
 41
0.0104167
  0
VERTEX
  8
0
 10
12.9415
 20
5.38661
 30
0.0
 40
0.0104167
 41
0.0104167
  0
VERTEX
  8
0
 10
12.9415
 20
7.23226
 30
0.0
 40
0.0104167
 41
0.0104167
  0
SEQEND
 8
0
  0
POLYLINE
  8
0
 62
     7
 66
     1
 10
0
 20
0
 30
0.0
 70
     1
 40
0
 41
0
  0
VERTEX
  8
0
 10
12.9415
 20
7.23226
 30
0.0
 40
0
 41
0
  0
VERTEX
  8
0
 10
13.129
 20
7.23226
 30
0.0
 40
0
 41
0
  0
VERTEX
  8
0
 10
13.129
 20
5.38661
 30
0.0
 40
0
 41
0
  0
VERTEX
  8
0
 10
12.9415
 20
5.38661
 30
0.0
 40
0
 41
0
  0
VERTEX
  8
0
 10
12.9415
 20
7.23226
 30
0.0
 40
0
 41
0
  0
SEQEND
 8
0
  0
POLYLINE
  8
0
 62
     0
 66
     1
 10
0
 20
0
 30
0.0
 70
     1
 40
0.75
 41
0.75
  0
VERTEX
  8
0
 10
12.9415
 20
7.23226
 30
0.0
 40
0.0104167
 41
0.0104167
  0
VERTEX
  8
0
 10
13.129
 20
7.23226
 30
0.0
 40
0.0104167
 41
0.0104167
  0
VERTEX
  8
0
 10
13.129
 20
5.38661
 30
0.0
 40
0.0104167
 41
0.0104167
  0
VERTEX
  8
0
 10
12.9415
 20
5.38661
 30
0.0
 40
0.0104167
 41
0.0104167
  0
VERTEX
  8
0
 10
12.9415
 20
7.23226
 30
0.0
 40
0.0104167
 41
0.0104167
  0
SEQEND
 8
0
  0
POLYLINE
  8
0
 62
     0
 66
     1
 10
0
 20
0
 30
0.0
 40
0.75
 41
0.75
  0
VERTEX
  8
0
 10
13.0352
 20
7.15414
 30
0.0
 40
0.0104167
 41
0.0104167
  0
VERTEX
  8
0
 10
13.0352
 20
5.46474
 30
0.0
 40
0.0104167
 41
0.0104167
  0
SEQEND
 8
0
  0
POLYLINE
  8
0
 62
     0
 66
     1
 10
0
 20
0
 30
0.0
 40
0.75
 41
0.75
  0
VERTEX
  8
0
 10
12.9415
 20
7.15414
 30
0.0
 40
0.0104167
 41
0.0104167
  0
VERTEX
  8
0
 10
13.129
 20
7.15414
 30
0.0
 40
0.0104167
 41
0.0104167
  0
SEQEND
 8
0
  0
POLYLINE
  8
0
 62
     0
 66
     1
 10
0
 20
0
 30
0.0
 40
0.75
 41
0.75
  0
VERTEX
  8
0
 10
12.9415
 20
5.46474
 30
0.0
 40
0.0104167
 41
0.0104167
  0
VERTEX
  8
0
 10
13.129
 20
5.46474
 30
0.0
 40
0.0104167
 41
0.0104167
  0
SEQEND
 8
0
  0
POLYLINE
  8
0
 62
     7
 66
     1
 10
0
 20
0
 30
0.0
 70
     1
 40
0
 41
0
  0
VERTEX
  8
0
 10
12.9415
 20
3.32519
 30
0.0
 40
0
 41
0
  0
VERTEX
  8
0
 10
13.129
 20
3.32519
 30
0.0
 40
0
 41
0
  0
VERTEX
  8
0
 10
13.129
 20
1.50071
 30
0.0
 40
0
 41
0
  0
VERTEX
  8
0
 10
12.9415
 20
1.50071
 30
0.0
 40
0
 41
0
  0
VERTEX
  8
0
 10
12.9415
 20
3.32519
 30
0.0
 40
0
 41
0
  0
SEQEND
 8
0
  0
POLYLINE
  8
0
 62
     0
 66
     1
 10
0
 20
0
 30
0.0
 70
     1
 40
0.75
 41
0.75
  0
VERTEX
  8
0
 10
12.9415
 20
3.32519
 30
0.0
 40
0.0104167
 41
0.0104167
  0
VERTEX
  8
0
 10
13.129
 20
3.32519
 30
0.0
 40
0.0104167
 41
0.0104167
  0
VERTEX
  8
0
 10
13.129
 20
1.50071
 30
0.0
 40
0.0104167
 41
0.0104167
  0
VERTEX
  8
0
 10
12.9415
 20
1.50071
 30
0.0
 40
0.0104167
 41
0.0104167
  0
VERTEX
  8
0
 10
12.9415
 20
3.32519
 30
0.0
 40
0.0104167
 41
0.0104167
  0
SEQEND
 8
0
  0
POLYLINE
  8
0
 62
     7
 66
     1
 10
0
 20
0
 30
0.0
 70
     1
 40
0
 41
0
  0
VERTEX
  8
0
 10
12.9415
 20
3.32519
 30
0.0
 40
0
 41
0
  0
VERTEX
  8
0
 10
13.129
 20
3.32519
 30
0.0
 40
0
 41
0
  0
VERTEX
  8
0
 10
13.129
 20
1.50071
 30
0.0
 40
0
 41
0
  0
VERTEX
  8
0
 10
12.9415
 20
1.50071
 30
0.0
 40
0
 41
0
  0
VERTEX
  8
0
 10
12.9415
 20
3.32519
 30
0.0
 40
0
 41
0
  0
SEQEND
 8
0
  0
POLYLINE
  8
0
 62
     0
 66
     1
 10
0
 20
0
 30
0.0
 70
     1
 40
0.75
 41
0.75
  0
VERTEX
  8
0
 10
12.9415
 20
3.32519
 30
0.0
 40
0.0104167
 41
0.0104167
  0
VERTEX
  8
0
 10
13.129
 20
3.32519
 30
0.0
 40
0.0104167
 41
0.0104167
  0
VERTEX
  8
0
 10
13.129
 20
1.50071
 30
0.0
 40
0.0104167
 41
0.0104167
  0
VERTEX
  8
0
 10
12.9415
 20
1.50071
 30
0.0
 40
0.0104167
 41
0.0104167
  0
VERTEX
  8
0
 10
12.9415
 20
3.32519
 30
0.0
 40
0.0104167
 41
0.0104167
  0
SEQEND
 8
0
  0
POLYLINE
  8
0
 62
     0
 66
     1
 10
0
 20
0
 30
0.0
 40
0.75
 41
0.75
  0
VERTEX
  8
0
 10
13.0352
 20
3.24713
 30
0.0
 40
0.0104167
 41
0.0104167
  0
VERTEX
  8
0
 10
13.0352
 20
1.57883
 30
0.0
 40
0.0104167
 41
0.0104167
  0
SEQEND
 8
0
  0
POLYLINE
  8
0
 62
     0
 66
     1
 10
0
 20
0
 30
0.0
 40
0.75
 41
0.75
  0
VERTEX
  8
0
 10
12.9415
 20
3.24713
 30
0.0
 40
0.0104167
 41
0.0104167
  0
VERTEX
  8
0
 10
13.129
 20
3.24713
 30
0.0
 40
0.0104167
 41
0.0104167
  0
SEQEND
 8
0
  0
POLYLINE
  8
0
 62
     0
 66
     1
 10
0
 20
0
 30
0.0
 40
0.75
 41
0.75
  0
VERTEX
  8
0
 10
12.9415
 20
1.57883
 30
0.0
 40
0.0104167
 41
0.0104167
  0
VERTEX
  8
0
 10
13.129
 20
1.57883
 30
0.0
 40
0.0104167
 41
0.0104167
  0
SEQEND
 8
0
  0
POLYLINE
  8
0
 62
     7
 66
     1
 10
0
 20
0
 30
0.0
 70
     1
 40
0
 41
0
  0
VERTEX
  8
0
 10
12.9415
 20
4.19851
 30
0.0
 40
0
 41
0
  0
VERTEX
  8
0
 10
13.129
 20
4.19851
 30
0.0
 40
0
 41
0
  0
VERTEX
  8
0
 10
13.129
 20
3.38932
 30
0.0
 40
0
 41
0
  0
VERTEX
  8
0
 10
12.9415
 20
3.38932
 30
0.0
 40
0
 41
0
  0
VERTEX
  8
0
 10
12.9415
 20
4.19851
 30
0.0
 40
0
 41
0
  0
SEQEND
 8
0
  0
POLYLINE
  8
0
 62
     0
 66
     1
 10
0
 20
0
 30
0.0
 70
     1
 40
0.75
 41
0.75
  0
VERTEX
  8
0
 10
12.9415
 20
4.19851
 30
0.0
 40
0.0104167
 41
0.0104167
  0
VERTEX
  8
0
 10
13.129
 20
4.19851
 30
0.0
 40
0.0104167
 41
0.0104167
  0
VERTEX
  8
0
 10
13.129
 20
3.38932
 30
0.0
 40
0.0104167
 41
0.0104167
  0
VERTEX
  8
0
 10
12.9415
 20
3.38932
 30
0.0
 40
0.0104167
 41
0.0104167
  0
VERTEX
  8
0
 10
12.9415
 20
4.19851
 30
0.0
 40
0.0104167
 41
0.0104167
  0
SEQEND
 8
0
  0
POLYLINE
  8
0
 62
     7
 66
     1
 10
0
 20
0
 30
0.0
 70
     1
 40
0
 41
0
  0
VERTEX
  8
0
 10
12.9415
 20
4.19851
 30
0.0
 40
0
 41
0
  0
VERTEX
  8
0
 10
13.129
 20
4.19851
 30
0.0
 40
0
 41
0
  0
VERTEX
  8
0
 10
13.129
 20
3.38932
 30
0.0
 40
0
 41
0
  0
VERTEX
  8
0
 10
12.9415
 20
3.38932
 30
0.0
 40
0
 41
0
  0
VERTEX
  8
0
 10
12.9415
 20
4.19851
 30
0.0
 40
0
 41
0
  0
SEQEND
 8
0
  0
POLYLINE
  8
0
 62
     0
 66
     1
 10
0
 20
0
 30
0.0
 70
     1
 40
0.75
 41
0.75
  0
VERTEX
  8
0
 10
12.9415
 20
4.19851
 30
0.0
 40
0.0104167
 41
0.0104167
  0
VERTEX
  8
0
 10
13.129
 20
4.19851
 30
0.0
 40
0.0104167
 41
0.0104167
  0
VERTEX
  8
0
 10
13.129
 20
3.38932
 30
0.0
 40
0.0104167
 41
0.0104167
  0
VERTEX
  8
0
 10
12.9415
 20
3.38932
 30
0.0
 40
0.0104167
 41
0.0104167
  0
VERTEX
  8
0
 10
12.9415
 20
4.19851
 30
0.0
 40
0.0104167
 41
0.0104167
  0
SEQEND
 8
0
  0
POLYLINE
  8
0
 62
     0
 66
     1
 10
0
 20
0
 30
0.0
 70
     1
 40
0.75
 41
0.75
  0
VERTEX
  8
0
 10
13.129
 20
3.38932
 30
0.0
 40
0.0104167
 41
0.0104167
  0
VERTEX
  8
0
 10
13.1763
 20
3.38932
 30
0.0
 40
0.0104167
 41
0.0104167
  0
VERTEX
  8
0
 10
13.3186
 20
3.40201
 30
0.0
 40
0.0104167
 41
0.0104167
  0
VERTEX
  8
0
 10
13.483
 20
3.43994
 30
0.0
 40
0.0104167
 41
0.0104167
  0
VERTEX
  8
0
 10
13.622
 20
3.50315
 30
0.0
 40
0.0104167
 41
0.0104167
  0
VERTEX
  8
0
 10
13.7358
 20
3.59164
 30
0.0
 40
0.0104167
 41
0.0104167
  0
VERTEX
  8
0
 10
13.8243
 20
3.70546
 30
0.0
 40
0.0104167
 41
0.0104167
  0
VERTEX
  8
0
 10
13.8875
 20
3.84451
 30
0.0
 40
0.0104167
 41
0.0104167
  0
VERTEX
  8
0
 10
13.9254
 20
4.0089
 30
0.0
 40
0.0104167
 41
0.0104167
  0
VERTEX
  8
0
 10
13.9382
 20
4.15115
 30
0.0
 40
0.0104167
 41
0.0104167
  0
VERTEX
  8
0
 10
13.9382
 20
4.19851
 30
0.0
 40
0.0104167
 41
0.0104167
  0
VERTEX
  8
0
 10
13.129
 20
4.19851
 30
0.0
 40
0.0104167
 41
0.0104167
  0
VERTEX
  8
0
 10
13.129
 20
3.38932
 30
0.0
 40
0.0104167
 41
0.0104167
  0
SEQEND
 8
0
  0
POLYLINE
  8
0
 62
     7
 66
     1
 10
0
 20
0
 30
0.0
 70
     1
 40
0
 41
0
  0
VERTEX
  8
0
 10
12.9415
 20
5.3304
 30
0.0
 40
0
 41
0
  0
VERTEX
  8
0
 10
13.129
 20
5.3304
 30
0.0
 40
0
 41
0
  0
VERTEX
  8
0
 10
13.129
 20
4.51693
 30
0.0
 40
0
 41
0
  0
VERTEX
  8
0
 10
12.9415
 20
4.51693
 30
0.0
 40
0
 41
0
  0
VERTEX
  8
0
 10
12.9415
 20
5.3304
 30
0.0
 40
0
 41
0
  0
SEQEND
 8
0
  0
POLYLINE
  8
0
 62
     0
 66
     1
 10
0
 20
0
 30
0.0
 70
     1
 40
0.75
 41
0.75
  0
VERTEX
  8
0
 10
12.9415
 20
5.3304
 30
0.0
 40
0.0104167
 41
0.0104167
  0
VERTEX
  8
0
 10
13.129
 20
5.3304
 30
0.0
 40
0.0104167
 41
0.0104167
  0
VERTEX
  8
0
 10
13.129
 20
4.51693
 30
0.0
 40
0.0104167
 41
0.0104167
  0
VERTEX
  8
0
 10
12.9415
 20
4.51693
 30
0.0
 40
0.0104167
 41
0.0104167
  0
VERTEX
  8
0
 10
12.9415
 20
5.3304
 30
0.0
 40
0.0104167
 41
0.0104167
  0
SEQEND
 8
0
  0
POLYLINE
  8
0
 62
     7
 66
     1
 10
0
 20
0
 30
0.0
 70
     1
 40
0
 41
0
  0
VERTEX
  8
0
 10
12.9415
 20
5.3304
 30
0.0
 40
0
 41
0
  0
VERTEX
  8
0
 10
13.129
 20
5.3304
 30
0.0
 40
0
 41
0
  0
VERTEX
  8
0
 10
13.129
 20
4.51693
 30
0.0
 40
0
 41
0
  0
VERTEX
  8
0
 10
12.9415
 20
4.51693
 30
0.0
 40
0
 41
0
  0
VERTEX
  8
0
 10
12.9415
 20
5.3304
 30
0.0
 40
0
 41
0
  0
SEQEND
 8
0
  0
POLYLINE
  8
0
 62
     0
 66
     1
 10
0
 20
0
 30
0.0
 70
     1
 40
0.75
 41
0.75
  0
VERTEX
  8
0
 10
12.9415
 20
5.3304
 30
0.0
 40
0.0104167
 41
0.0104167
  0
VERTEX
  8
0
 10
13.129
 20
5.3304
 30
0.0
 40
0.0104167
 41
0.0104167
  0
VERTEX
  8
0
 10
13.129
 20
4.51693
 30
0.0
 40
0.0104167
 41
0.0104167
  0
VERTEX
  8
0
 10
12.9415
 20
4.51693
 30
0.0
 40
0.0104167
 41
0.0104167
  0
VERTEX
  8
0
 10
12.9415
 20
5.3304
 30
0.0
 40
0.0104167
 41
0.0104167
  0
SEQEND
 8
0
  0
POLYLINE
  8
0
 62
     0
 66
     1
 10
0
 20
0
 30
0.0
 70
     1
 40
0.75
 41
0.75
  0
VERTEX
  8
0
 10
13.129
 20
5.3304
 30
0.0
 40
0.0104167
 41
0.0104167
  0
VERTEX
  8
0
 10
13.1766
 20
5.3304
 30
0.0
 40
0.0104167
 41
0.0104167
  0
VERTEX
  8
0
 10
13.3196
 20
5.31771
 30
0.0
 40
0.0104167
 41
0.0104167
  0
VERTEX
  8
0
 10
13.4848
 20
5.27957
 30
0.0
 40
0.0104167
 41
0.0104167
  0
VERTEX
  8
0
 10
13.6246
 20
5.21604
 30
0.0
 40
0.0104167
 41
0.0104167
  0
VERTEX
  8
0
 10
13.739
 20
5.12706
 30
0.0
 40
0.0104167
 41
0.0104167
  0
VERTEX
  8
0
 10
13.828
 20
5.01264
 30
0.0
 40
0.0104167
 41
0.0104167
  0
VERTEX
  8
0
 10
13.8915
 20
4.87283
 30
0.0
 40
0.0104167
 41
0.0104167
  0
VERTEX
  8
0
 10
13.9296
 20
4.70763
 30
0.0
 40
0.0104167
 41
0.0104167
  0
VERTEX
  8
0
 10
13.9424
 20
4.56461
 30
0.0
 40
0.0104167
 41
0.0104167
  0
VERTEX
  8
0
 10
13.9424
 20
4.51693
 30
0.0
 40
0.0104167
 41
0.0104167
  0
VERTEX
  8
0
 10
13.129
 20
4.51693
 30
0.0
 40
0.0104167
 41
0.0104167
  0
VERTEX
  8
0
 10
13.129
 20
5.3304
 30
0.0
 40
0.0104167
 41
0.0104167
  0
SEQEND
 8
0
  0
POLYLINE
  8
0
 62
     0
 66
     1
 10
0
 20
0
 30
0.0
 70
     1
 40
0
 41
0
  0
VERTEX
  8
0
 10
13.129
 20
0.991319
 30
0.0
 40
0
 41
0
  0
VERTEX
  8
0
 10
1.58854
 20
0.991319
 30
0.0
 40
0
 41
0
  0
VERTEX
  8
0
 10
1.94271
 20
1.21007
 30
0.0
 40
0
 41
0
  0
VERTEX
  8
0
 10
12.9415
 20
1.21007
 30
0.0
 40
0
 41
0
  0
VERTEX
  8
0
 10
13.129
 20
0.991319
 30
0.0
 40
0
 41
0
  0
SEQEND
 8
0
  0
POLYLINE
  8
0
 62
     0
 66
     1
 10
0
 20
0
 30
0.0
 70
     1
 40
0.15
 41
0.15
  0
VERTEX
  8
0
 10
13.129
 20
0.991319
 30
0.0
 40
0.00208333
 41
0.00208333
  0
VERTEX
  8
0
 10
1.58854
 20
0.991319
 30
0.0
 40
0.00208333
 41
0.00208333
  0
VERTEX
  8
0
 10
1.94271
 20
1.21007
 30
0.0
 40
0.00208333
 41
0.00208333
  0
VERTEX
  8
0
 10
12.9415
 20
1.21007
 30
0.0
 40
0.00208333
 41
0.00208333
  0
VERTEX
  8
0
 10
13.129
 20
0.991319
 30
0.0
 40
0.00208333
 41
0.00208333
  0
SEQEND
 8
0
  0
POLYLINE
  8
0
 62
     7
 66
     1
 10
0
 20
0
 30
0.0
 70
     1
 40
0
 41
0
  0
VERTEX
  8
0
 10
6.28863
 20
1.21007
 30
0.0
 40
0
 41
0
  0
VERTEX
  8
0
 10
7.27513
 20
1.21007
 30
0.0
 40
0
 41
0
  0
VERTEX
  8
0
 10
7.27513
 20
0.991319
 30
0.0
 40
0
 41
0
  0
VERTEX
  8
0
 10
6.28863
 20
0.991319
 30
0.0
 40
0
 41
0
  0
VERTEX
  8
0
 10
6.28863
 20
1.21007
 30
0.0
 40
0
 41
0
  0
SEQEND
 8
0
  0
POLYLINE
  8
0
 62
     0
 66
     1
 10
0
 20
0
 30
0.0
 70
     1
 40
0.75
 41
0.75
  0
VERTEX
  8
0
 10
6.28863
 20
1.21007
 30
0.0
 40
0.0104167
 41
0.0104167
  0
VERTEX
  8
0
 10
7.27513
 20
1.21007
 30
0.0
 40
0.0104167
 41
0.0104167
  0
VERTEX
  8
0
 10
7.27513
 20
0.991319
 30
0.0
 40
0.0104167
 41
0.0104167
  0
VERTEX
  8
0
 10
6.28863
 20
0.991319
 30
0.0
 40
0.0104167
 41
0.0104167
  0
VERTEX
  8
0
 10
6.28863
 20
1.21007
 30
0.0
 40
0.0104167
 41
0.0104167
  0
SEQEND
 8
0
  0
POLYLINE
  8
0
 62
     7
 66
     1
 10
0
 20
0
 30
0.0
 70
     1
 40
0
 41
0
  0
VERTEX
  8
0
 10
6.28863
 20
1.21007
 30
0.0
 40
0
 41
0
  0
VERTEX
  8
0
 10
7.27513
 20
1.21007
 30
0.0
 40
0
 41
0
  0
VERTEX
  8
0
 10
7.27513
 20
0.991319
 30
0.0
 40
0
 41
0
  0
VERTEX
  8
0
 10
6.28863
 20
0.991319
 30
0.0
 40
0
 41
0
  0
VERTEX
  8
0
 10
6.28863
 20
1.21007
 30
0.0
 40
0
 41
0
  0
SEQEND
 8
0
  0
POLYLINE
  8
0
 62
     0
 66
     1
 10
0
 20
0
 30
0.0
 70
     1
 40
0.75
 41
0.75
  0
VERTEX
  8
0
 10
6.28863
 20
1.21007
 30
0.0
 40
0.0104167
 41
0.0104167
  0
VERTEX
  8
0
 10
7.27513
 20
1.21007
 30
0.0
 40
0.0104167
 41
0.0104167
  0
VERTEX
  8
0
 10
7.27513
 20
0.991319
 30
0.0
 40
0.0104167
 41
0.0104167
  0
VERTEX
  8
0
 10
6.28863
 20
0.991319
 30
0.0
 40
0.0104167
 41
0.0104167
  0
VERTEX
  8
0
 10
6.28863
 20
1.21007
 30
0.0
 40
0.0104167
 41
0.0104167
  0
SEQEND
 8
0
  0
POLYLINE
  8
0
 62
     0
 66
     1
 10
0
 20
0
 30
0.0
 70
     1
 40
0.75
 41
0.75
  0
VERTEX
  8
0
 10
7.27513
 20
0.991319
 30
0.0
 40
0.0104167
 41
0.0104167
  0
VERTEX
  8
0
 10
7.27513
 20
0.933539
 30
0.0
 40
0.0104167
 41
0.0104167
  0
VERTEX
  8
0
 10
7.25965
 20
0.760146
 30
0.0
 40
0.0104167
 41
0.0104167
  0
VERTEX
  8
0
 10
7.21343
 20
0.559787
 30
0.0
 40
0.0104167
 41
0.0104167
  0
VERTEX
  8
0
 10
7.13639
 20
0.390246
 30
0.0
 40
0.0104167
 41
0.0104167
  0
VERTEX
  8
0
 10
7.02849
 20
0.251519
 30
0.0
 40
0.0104167
 41
0.0104167
  0
VERTEX
  8
0
 10
6.88976
 20
0.143608
 30
0.0
 40
0.0104167
 41
0.0104167
  0
VERTEX
  8
0
 10
6.72021
 20
0.066569
 30
0.0
 40
0.0104167
 41
0.0104167
  0
VERTEX
  8
0
 10
6.51981
 20
0.020345
 30
0.0
 40
0.0104167
 41
0.0104167
  0
VERTEX
  8
0
 10
6.3464
 20
0.00488282
 30
0.0
 40
0.0104167
 41
0.0104167
  0
VERTEX
  8
0
 10
6.28863
 20
0.00488282
 30
0.0
 40
0.0104167
 41
0.0104167
  0
VERTEX
  8
0
 10
6.28863
 20
0.991319
 30
0.0
 40
0.0104167
 41
0.0104167
  0
VERTEX
  8
0
 10
7.27513
 20
0.991319
 30
0.0
 40
0.0104167
 41
0.0104167
  0
SEQEND
 8
0
  0
POLYLINE
  8
0
 62
     0
 66
     1
 10
0
 20
0
 30
0.0
 70
     1
 40
0.75
 41
0.75
  0
VERTEX
  8
0
 10
7.27513
 20
1.21007
 30
0.0
 40
0.0104167
 41
0.0104167
  0
VERTEX
  8
0
 10
7.27513
 20
1.2679
 30
0.0
 40
0.0104167
 41
0.0104167
  0
VERTEX
  8
0
 10
7.25965
 20
1.44129
 30
0.0
 40
0.0104167
 41
0.0104167
  0
VERTEX
  8
0
 10
7.21343
 20
1.64165
 30
0.0
 40
0.0104167
 41
0.0104167
  0
VERTEX
  8
0
 10
7.13639
 20
1.81119
 30
0.0
 40
0.0104167
 41
0.0104167
  0
VERTEX
  8
0
 10
7.02849
 20
1.94993
 30
0.0
 40
0.0104167
 41
0.0104167
  0
VERTEX
  8
0
 10
6.88976
 20
2.05783
 30
0.0
 40
0.0104167
 41
0.0104167
  0
VERTEX
  8
0
 10
6.72021
 20
2.13487
 30
0.0
 40
0.0104167
 41
0.0104167
  0
VERTEX
  8
0
 10
6.51981
 20
2.1811
 30
0.0
 40
0.0104167
 41
0.0104167
  0
VERTEX
  8
0
 10
6.3464
 20
2.1965
 30
0.0
 40
0.0104167
 41
0.0104167
  0
VERTEX
  8
0
 10
6.28863
 20
2.1965
 30
0.0
 40
0.0104167
 41
0.0104167
  0
VERTEX
  8
0
 10
6.28863
 20
1.21007
 30
0.0
 40
0.0104167
 41
0.0104167
  0
VERTEX
  8
0
 10
7.27513
 20
1.21007
 30
0.0
 40
0.0104167
 41
0.0104167
  0
SEQEND
 8
0
  0
POLYLINE
  8
0
 62
     0
 66
     1
 10
0
 20
0
 30
0.0
 70
     1
 40
0
 41
0
  0
VERTEX
  8
0
 10
1.94271
 20
1.21007
 30
0.0
 40
0
 41
0
  0
VERTEX
  8
0
 10
1.94271
 20
8.19129
 30
0.0
 40
0
 41
0
  0
VERTEX
  8
0
 10
1.58854
 20
8.59754
 30
0.0
 40
0
 41
0
  0
VERTEX
  8
0
 10
1.58854
 20
0.991319
 30
0.0
 40
0
 41
0
  0
VERTEX
  8
0
 10
1.94271
 20
1.21007
 30
0.0
 40
0
 41
0
  0
SEQEND
 8
0
  0
POLYLINE
  8
0
 62
     0
 66
     1
 10
0
 20
0
 30
0.0
 70
     1
 40
0.15
 41
0.15
  0
VERTEX
  8
0
 10
1.94271
 20
1.21007
 30
0.0
 40
0.00208333
 41
0.00208333
  0
VERTEX
  8
0
 10
1.94271
 20
8.19129
 30
0.0
 40
0.00208333
 41
0.00208333
  0
VERTEX
  8
0
 10
1.58854
 20
8.59754
 30
0.0
 40
0.00208333
 41
0.00208333
  0
VERTEX
  8
0
 10
1.58854
 20
0.991319
 30
0.0
 40
0.00208333
 41
0.00208333
  0
VERTEX
  8
0
 10
1.94271
 20
1.21007
 30
0.0
 40
0.00208333
 41
0.00208333
  0
SEQEND
 8
0
  0
POLYLINE
  8
0
 62
     7
 66
     1
 10
0
 20
0
 30
0.0
 70
     1
 40
0
 41
0
  0
VERTEX
  8
0
 10
1.58854
 20
4.19775
 30
0.0
 40
0
 41
0
  0
VERTEX
  8
0
 10
1.94271
 20
4.19775
 30
0.0
 40
0
 41
0
  0
VERTEX
  8
0
 10
1.94271
 20
1.85444
 30
0.0
 40
0
 41
0
  0
VERTEX
  8
0
 10
1.58854
 20
1.85444
 30
0.0
 40
0
 41
0
  0
VERTEX
  8
0
 10
1.58854
 20
4.19775
 30
0.0
 40
0
 41
0
  0
SEQEND
 8
0
  0
POLYLINE
  8
0
 62
     0
 66
     1
 10
0
 20
0
 30
0.0
 70
     1
 40
0.75
 41
0.75
  0
VERTEX
  8
0
 10
1.58854
 20
4.19775
 30
0.0
 40
0.0104167
 41
0.0104167
  0
VERTEX
  8
0
 10
1.94271
 20
4.19775
 30
0.0
 40
0.0104167
 41
0.0104167
  0
VERTEX
  8
0
 10
1.94271
 20
1.85444
 30
0.0
 40
0.0104167
 41
0.0104167
  0
VERTEX
  8
0
 10
1.58854
 20
1.85444
 30
0.0
 40
0.0104167
 41
0.0104167
  0
VERTEX
  8
0
 10
1.58854
 20
4.19775
 30
0.0
 40
0.0104167
 41
0.0104167
  0
SEQEND
 8
0
  0
POLYLINE
  8
0
 62
     7
 66
     1
 10
0
 20
0
 30
0.0
 70
     1
 40
0
 41
0
  0
VERTEX
  8
0
 10
1.58854
 20
4.19775
 30
0.0
 40
0
 41
0
  0
VERTEX
  8
0
 10
1.94271
 20
4.19775
 30
0.0
 40
0
 41
0
  0
VERTEX
  8
0
 10
1.94271
 20
1.85444
 30
0.0
 40
0
 41
0
  0
VERTEX
  8
0
 10
1.58854
 20
1.85444
 30
0.0
 40
0
 41
0
  0
VERTEX
  8
0
 10
1.58854
 20
4.19775
 30
0.0
 40
0
 41
0
  0
SEQEND
 8
0
  0
POLYLINE
  8
0
 62
     0
 66
     1
 10
0
 20
0
 30
0.0
 70
     1
 40
0.75
 41
0.75
  0
VERTEX
  8
0
 10
1.58854
 20
4.19775
 30
0.0
 40
0.0104167
 41
0.0104167
  0
VERTEX
  8
0
 10
1.94271
 20
4.19775
 30
0.0
 40
0.0104167
 41
0.0104167
  0
VERTEX
  8
0
 10
1.94271
 20
1.85444
 30
0.0
 40
0.0104167
 41
0.0104167
  0
VERTEX
  8
0
 10
1.58854
 20
1.85444
 30
0.0
 40
0.0104167
 41
0.0104167
  0
VERTEX
  8
0
 10
1.58854
 20
4.19775
 30
0.0
 40
0.0104167
 41
0.0104167
  0
SEQEND
 8
0
  0
POLYLINE
  8
0
 62
     0
 66
     1
 10
0
 20
0
 30
0.0
 40
0.75
 41
0.75
  0
VERTEX
  8
0
 10
1.76563
 20
1.93261
 30
0.0
 40
0.0104167
 41
0.0104167
  0
VERTEX
  8
0
 10
1.76563
 20
4.11963
 30
0.0
 40
0.0104167
 41
0.0104167
  0
SEQEND
 8
0
  0
POLYLINE
  8
0
 62
     0
 66
     1
 10
0
 20
0
 30
0.0
 40
0.75
 41
0.75
  0
VERTEX
  8
0
 10
1.94271
 20
1.93261
 30
0.0
 40
0.0104167
 41
0.0104167
  0
VERTEX
  8
0
 10
1.58854
 20
1.93261
 30
0.0
 40
0.0104167
 41
0.0104167
  0
SEQEND
 8
0
  0
POLYLINE
  8
0
 62
     0
 66
     1
 10
0
 20
0
 30
0.0
 40
0.75
 41
0.75
  0
VERTEX
  8
0
 10
1.94271
 20
4.11963
 30
0.0
 40
0.0104167
 41
0.0104167
  0
VERTEX
  8
0
 10
1.58854
 20
4.11963
 30
0.0
 40
0.0104167
 41
0.0104167
  0
SEQEND
 8
0
  0
POLYLINE
  8
0
 62
     0
 66
     1
 10
0
 20
0
 30
0.0
 70
     1
 40
0
 41
0
  0
VERTEX
  8
0
 10
7.53836
 20
7.26025
 30
0.0
 40
0
 41
0
  0
VERTEX
  8
0
 10
7.71544
 20
7.26025
 30
0.0
 40
0
 41
0
  0
VERTEX
  8
0
 10
7.71544
 20
4.22353
 30
0.0
 40
0
 41
0
  0
VERTEX
  8
0
 10
7.53836
 20
4.22353
 30
0.0
 40
0
 41
0
  0
VERTEX
  8
0
 10
7.53836
 20
7.26025
 30
0.0
 40
0
 41
0
  0
SEQEND
 8
0
  0
POLYLINE
  8
0
 62
     0
 66
     1
 10
0
 20
0
 30
0.0
 70
     1
 40
0.15
 41
0.15
  0
VERTEX
  8
0
 10
7.53836
 20
7.26025
 30
0.0
 40
0.00208333
 41
0.00208333
  0
VERTEX
  8
0
 10
7.71544
 20
7.26025
 30
0.0
 40
0.00208333
 41
0.00208333
  0
VERTEX
  8
0
 10
7.71544
 20
4.22353
 30
0.0
 40
0.00208333
 41
0.00208333
  0
VERTEX
  8
0
 10
7.53836
 20
4.22353
 30
0.0
 40
0.00208333
 41
0.00208333
  0
VERTEX
  8
0
 10
7.53836
 20
7.26025
 30
0.0
 40
0.00208333
 41
0.00208333
  0
SEQEND
 8
0
  0
POLYLINE
  8
0
 62
     7
 66
     1
 10
0
 20
0
 30
0.0
 70
     1
 40
0
 41
0
  0
VERTEX
  8
0
 10
7.53836
 20
5.20985
 30
0.0
 40
0
 41
0
  0
VERTEX
  8
0
 10
7.71544
 20
5.20985
 30
0.0
 40
0
 41
0
  0
VERTEX
  8
0
 10
7.71544
 20
4.4229
 30
0.0
 40
0
 41
0
  0
VERTEX
  8
0
 10
7.53836
 20
4.4229
 30
0.0
 40
0
 41
0
  0
VERTEX
  8
0
 10
7.53836
 20
5.20985
 30
0.0
 40
0
 41
0
  0
SEQEND
 8
0
  0
POLYLINE
  8
0
 62
     0
 66
     1
 10
0
 20
0
 30
0.0
 70
     1
 40
0.75
 41
0.75
  0
VERTEX
  8
0
 10
7.53836
 20
5.20985
 30
0.0
 40
0.0104167
 41
0.0104167
  0
VERTEX
  8
0
 10
7.71544
 20
5.20985
 30
0.0
 40
0.0104167
 41
0.0104167
  0
VERTEX
  8
0
 10
7.71544
 20
4.4229
 30
0.0
 40
0.0104167
 41
0.0104167
  0
VERTEX
  8
0
 10
7.53836
 20
4.4229
 30
0.0
 40
0.0104167
 41
0.0104167
  0
VERTEX
  8
0
 10
7.53836
 20
5.20985
 30
0.0
 40
0.0104167
 41
0.0104167
  0
SEQEND
 8
0
  0
POLYLINE
  8
0
 62
     7
 66
     1
 10
0
 20
0
 30
0.0
 70
     1
 40
0
 41
0
  0
VERTEX
  8
0
 10
7.53836
 20
5.20985
 30
0.0
 40
0
 41
0
  0
VERTEX
  8
0
 10
7.71544
 20
5.20985
 30
0.0
 40
0
 41
0
  0
VERTEX
  8
0
 10
7.71544
 20
4.4229
 30
0.0
 40
0
 41
0
  0
VERTEX
  8
0
 10
7.53836
 20
4.4229
 30
0.0
 40
0
 41
0
  0
VERTEX
  8
0
 10
7.53836
 20
5.20985
 30
0.0
 40
0
 41
0
  0
SEQEND
 8
0
  0
POLYLINE
  8
0
 62
     0
 66
     1
 10
0
 20
0
 30
0.0
 70
     1
 40
0.75
 41
0.75
  0
VERTEX
  8
0
 10
7.53836
 20
5.20985
 30
0.0
 40
0.0104167
 41
0.0104167
  0
VERTEX
  8
0
 10
7.71544
 20
5.20985
 30
0.0
 40
0.0104167
 41
0.0104167
  0
VERTEX
  8
0
 10
7.71544
 20
4.4229
 30
0.0
 40
0.0104167
 41
0.0104167
  0
VERTEX
  8
0
 10
7.53836
 20
4.4229
 30
0.0
 40
0.0104167
 41
0.0104167
  0
VERTEX
  8
0
 10
7.53836
 20
5.20985
 30
0.0
 40
0.0104167
 41
0.0104167
  0
SEQEND
 8
0
  0
POLYLINE
  8
0
 62
     0
 66
     1
 10
0
 20
0
 30
0.0
 70
     1
 40
0.75
 41
0.75
  0
VERTEX
  8
0
 10
7.71544
 20
5.20985
 30
0.0
 40
0.0104167
 41
0.0104167
  0
VERTEX
  8
0
 10
7.7615
 20
5.20985
 30
0.0
 40
0.0104167
 41
0.0104167
  0
VERTEX
  8
0
 10
7.89985
 20
5.1976
 30
0.0
 40
0.0104167
 41
0.0104167
  0
VERTEX
  8
0
 10
8.05968
 20
5.16069
 30
0.0
 40
0.0104167
 41
0.0104167
  0
VERTEX
  8
0
 10
8.19493
 20
5.09924
 30
0.0
 40
0.0104167
 41
0.0104167
  0
VERTEX
  8
0
 10
8.30561
 20
5.01313
 30
0.0
 40
0.0104167
 41
0.0104167
  0
VERTEX
  8
0
 10
8.39171
 20
4.90246
 30
0.0
 40
0.0104167
 41
0.0104167
  0
VERTEX
  8
0
 10
8.45318
 20
4.76719
 30
0.0
 40
0.0104167
 41
0.0104167
  0
VERTEX
  8
0
 10
8.49007
 20
4.60736
 30
0.0
 40
0.0104167
 41
0.0104167
  0
VERTEX
  8
0
 10
8.50239
 20
4.46903
 30
0.0
 40
0.0104167
 41
0.0104167
  0
VERTEX
  8
0
 10
8.50239
 20
4.4229
 30
0.0
 40
0.0104167
 41
0.0104167
  0
VERTEX
  8
0
 10
7.71544
 20
4.4229
 30
0.0
 40
0.0104167
 41
0.0104167
  0
VERTEX
  8
0
 10
7.71544
 20
5.20985
 30
0.0
 40
0.0104167
 41
0.0104167
  0
SEQEND
 8
0
  0
POLYLINE
  8
0
 62
     0
 66
     1
 10
0
 20
0
 30
0.0
 70
     1
 40
0
 41
0
  0
VERTEX
  8
0
 10
7.71544
 20
4.37978
 30
0.0
 40
0
 41
0
  0
VERTEX
  8
0
 10
13.129
 20
4.37978
 30
0.0
 40
0
 41
0
  0
VERTEX
  8
0
 10
13.129
 20
4.22353
 30
0.0
 40
0
 41
0
  0
VERTEX
  8
0
 10
7.53836
 20
4.22353
 30
0.0
 40
0
 41
0
  0
VERTEX
  8
0
 10
7.71544
 20
4.37978
 30
0.0
 40
0
 41
0
  0
SEQEND
 8
0
  0
POLYLINE
  8
0
 62
     0
 66
     1
 10
0
 20
0
 30
0.0
 70
     1
 40
0.15
 41
0.15
  0
VERTEX
  8
0
 10
7.71544
 20
4.37978
 30
0.0
 40
0.00208333
 41
0.00208333
  0
VERTEX
  8
0
 10
13.129
 20
4.37978
 30
0.0
 40
0.00208333
 41
0.00208333
  0
VERTEX
  8
0
 10
13.129
 20
4.22353
 30
0.0
 40
0.00208333
 41
0.00208333
  0
VERTEX
  8
0
 10
7.53836
 20
4.22353
 30
0.0
 40
0.00208333
 41
0.00208333
  0
VERTEX
  8
0
 10
7.71544
 20
4.37978
 30
0.0
 40
0.00208333
 41
0.00208333
  0
SEQEND
 8
0
  0
POLYLINE
  8
0
 62
     0
 66
     1
 10
0
 20
0
 30
0.0
 70
     1
 40
0
 41
0
  0
VERTEX
  8
0
 10
6.1499
 20
4.37978
 30
0.0
 40
0
 41
0
  0
VERTEX
  8
0
 10
6.1499
 20
0.991319
 30
0.0
 40
0
 41
0
  0
VERTEX
  8
0
 10
6.03532
 20
0.991319
 30
0.0
 40
0
 41
0
  0
VERTEX
  8
0
 10
6.03532
 20
4.22353
 30
0.0
 40
0
 41
0
  0
VERTEX
  8
0
 10
6.1499
 20
4.37978
 30
0.0
 40
0
 41
0
  0
SEQEND
 8
0
  0
POLYLINE
  8
0
 62
     0
 66
     1
 10
0
 20
0
 30
0.0
 70
     1
 40
0.15
 41
0.15
  0
VERTEX
  8
0
 10
6.1499
 20
4.37978
 30
0.0
 40
0.00208333
 41
0.00208333
  0
VERTEX
  8
0
 10
6.1499
 20
0.991319
 30
0.0
 40
0.00208333
 41
0.00208333
  0
VERTEX
  8
0
 10
6.03532
 20
0.991319
 30
0.0
 40
0.00208333
 41
0.00208333
  0
VERTEX
  8
0
 10
6.03532
 20
4.22353
 30
0.0
 40
0.00208333
 41
0.00208333
  0
VERTEX
  8
0
 10
6.1499
 20
4.37978
 30
0.0
 40
0.00208333
 41
0.00208333
  0
SEQEND
 8
0
  0
POLYLINE
  8
0
 62
     7
 66
     1
 10
0
 20
0
 30
0.0
 70
     1
 40
0
 41
0
  0
VERTEX
  8
0
 10
6.03532
 20
2.54829
 30
0.0
 40
0
 41
0
  0
VERTEX
  8
0
 10
6.1499
 20
2.54829
 30
0.0
 40
0
 41
0
  0
VERTEX
  8
0
 10
6.1499
 20
1.85015
 30
0.0
 40
0
 41
0
  0
VERTEX
  8
0
 10
6.03532
 20
1.85015
 30
0.0
 40
0
 41
0
  0
VERTEX
  8
0
 10
6.03532
 20
2.54829
 30
0.0
 40
0
 41
0
  0
SEQEND
 8
0
  0
POLYLINE
  8
0
 62
     0
 66
     1
 10
0
 20
0
 30
0.0
 70
     1
 40
0.75
 41
0.75
  0
VERTEX
  8
0
 10
6.03532
 20
2.54829
 30
0.0
 40
0.0104167
 41
0.0104167
  0
VERTEX
  8
0
 10
6.1499
 20
2.54829
 30
0.0
 40
0.0104167
 41
0.0104167
  0
VERTEX
  8
0
 10
6.1499
 20
1.85015
 30
0.0
 40
0.0104167
 41
0.0104167
  0
VERTEX
  8
0
 10
6.03532
 20
1.85015
 30
0.0
 40
0.0104167
 41
0.0104167
  0
VERTEX
  8
0
 10
6.03532
 20
2.54829
 30
0.0
 40
0.0104167
 41
0.0104167
  0
SEQEND
 8
0
  0
POLYLINE
  8
0
 62
     7
 66
     1
 10
0
 20
0
 30
0.0
 70
     1
 40
0
 41
0
  0
VERTEX
  8
0
 10
6.03532
 20
2.54829
 30
0.0
 40
0
 41
0
  0
VERTEX
  8
0
 10
6.1499
 20
2.54829
 30
0.0
 40
0
 41
0
  0
VERTEX
  8
0
 10
6.1499
 20
1.85015
 30
0.0
 40
0
 41
0
  0
VERTEX
  8
0
 10
6.03532
 20
1.85015
 30
0.0
 40
0
 41
0
  0
VERTEX
  8
0
 10
6.03532
 20
2.54829
 30
0.0
 40
0
 41
0
  0
SEQEND
 8
0
  0
POLYLINE
  8
0
 62
     0
 66
     1
 10
0
 20
0
 30
0.0
 70
     1
 40
0.75
 41
0.75
  0
VERTEX
  8
0
 10
6.03532
 20
2.54829
 30
0.0
 40
0.0104167
 41
0.0104167
  0
VERTEX
  8
0
 10
6.1499
 20
2.54829
 30
0.0
 40
0.0104167
 41
0.0104167
  0
VERTEX
  8
0
 10
6.1499
 20
1.85015
 30
0.0
 40
0.0104167
 41
0.0104167
  0
VERTEX
  8
0
 10
6.03532
 20
1.85015
 30
0.0
 40
0.0104167
 41
0.0104167
  0
VERTEX
  8
0
 10
6.03532
 20
2.54829
 30
0.0
 40
0.0104167
 41
0.0104167
  0
SEQEND
 8
0
  0
POLYLINE
  8
0
 62
     0
 66
     1
 10
0
 20
0
 30
0.0
 70
     1
 40
0.75
 41
0.75
  0
VERTEX
  8
0
 10
6.1499
 20
2.54829
 30
0.0
 40
0.0104167
 41
0.0104167
  0
VERTEX
  8
0
 10
6.19075
 20
2.54829
 30
0.0
 40
0.0104167
 41
0.0104167
  0
VERTEX
  8
0
 10
6.31347
 20
2.53737
 30
0.0
 40
0.0104167
 41
0.0104167
  0
VERTEX
  8
0
 10
6.45529
 20
2.50467
 30
0.0
 40
0.0104167
 41
0.0104167
  0
VERTEX
  8
0
 10
6.57531
 20
2.45014
 30
0.0
 40
0.0104167
 41
0.0104167
  0
VERTEX
  8
0
 10
6.67344
 20
2.37381
 30
0.0
 40
0.0104167
 41
0.0104167
  0
VERTEX
  8
0
 10
6.74983
 20
2.27561
 30
0.0
 40
0.0104167
 41
0.0104167
  0
VERTEX
  8
0
 10
6.80436
 20
2.1556
 30
0.0
 40
0.0104167
 41
0.0104167
  0
VERTEX
  8
0
 10
6.83708
 20
2.01383
 30
0.0
 40
0.0104167
 41
0.0104167
  0
VERTEX
  8
0
 10
6.84804
 20
1.89111
 30
0.0
 40
0.0104167
 41
0.0104167
  0
VERTEX
  8
0
 10
6.84804
 20
1.85015
 30
0.0
 40
0.0104167
 41
0.0104167
  0
VERTEX
  8
0
 10
6.1499
 20
1.85015
 30
0.0
 40
0.0104167
 41
0.0104167
  0
VERTEX
  8
0
 10
6.1499
 20
2.54829
 30
0.0
 40
0.0104167
 41
0.0104167
  0
SEQEND
 8
0
  0
POLYLINE
  8
0
 62
     7
 66
     1
 10
0
 20
0
 30
0.0
 70
     1
 40
0
 41
0
  0
VERTEX
  8
0
 10
6.03532
 20
4.04557
 30
0.0
 40
0
 41
0
  0
VERTEX
  8
0
 10
6.1499
 20
4.04557
 30
0.0
 40
0
 41
0
  0
VERTEX
  8
0
 10
6.1499
 20
3.33518
 30
0.0
 40
0
 41
0
  0
VERTEX
  8
0
 10
6.03532
 20
3.33518
 30
0.0
 40
0
 41
0
  0
VERTEX
  8
0
 10
6.03532
 20
4.04557
 30
0.0
 40
0
 41
0
  0
SEQEND
 8
0
  0
POLYLINE
  8
0
 62
     0
 66
     1
 10
0
 20
0
 30
0.0
 70
     1
 40
0.75
 41
0.75
  0
VERTEX
  8
0
 10
6.03532
 20
4.04557
 30
0.0
 40
0.0104167
 41
0.0104167
  0
VERTEX
  8
0
 10
6.1499
 20
4.04557
 30
0.0
 40
0.0104167
 41
0.0104167
  0
VERTEX
  8
0
 10
6.1499
 20
3.33518
 30
0.0
 40
0.0104167
 41
0.0104167
  0
VERTEX
  8
0
 10
6.03532
 20
3.33518
 30
0.0
 40
0.0104167
 41
0.0104167
  0
VERTEX
  8
0
 10
6.03532
 20
4.04557
 30
0.0
 40
0.0104167
 41
0.0104167
  0
SEQEND
 8
0
  0
POLYLINE
  8
0
 62
     7
 66
     1
 10
0
 20
0
 30
0.0
 70
     1
 40
0
 41
0
  0
VERTEX
  8
0
 10
6.03532
 20
4.04557
 30
0.0
 40
0
 41
0
  0
VERTEX
  8
0
 10
6.1499
 20
4.04557
 30
0.0
 40
0
 41
0
  0
VERTEX
  8
0
 10
6.1499
 20
3.33518
 30
0.0
 40
0
 41
0
  0
VERTEX
  8
0
 10
6.03532
 20
3.33518
 30
0.0
 40
0
 41
0
  0
VERTEX
  8
0
 10
6.03532
 20
4.04557
 30
0.0
 40
0
 41
0
  0
SEQEND
 8
0
  0
POLYLINE
  8
0
 62
     0
 66
     1
 10
0
 20
0
 30
0.0
 70
     1
 40
0.75
 41
0.75
  0
VERTEX
  8
0
 10
6.03532
 20
4.04557
 30
0.0
 40
0.0104167
 41
0.0104167
  0
VERTEX
  8
0
 10
6.1499
 20
4.04557
 30
0.0
 40
0.0104167
 41
0.0104167
  0
VERTEX
  8
0
 10
6.1499
 20
3.33518
 30
0.0
 40
0.0104167
 41
0.0104167
  0
VERTEX
  8
0
 10
6.03532
 20
3.33518
 30
0.0
 40
0.0104167
 41
0.0104167
  0
VERTEX
  8
0
 10
6.03532
 20
4.04557
 30
0.0
 40
0.0104167
 41
0.0104167
  0
SEQEND
 8
0
  0
POLYLINE
  8
0
 62
     0
 66
     1
 10
0
 20
0
 30
0.0
 70
     1
 40
0.75
 41
0.75
  0
VERTEX
  8
0
 10
6.1499
 20
3.33518
 30
0.0
 40
0.0104167
 41
0.0104167
  0
VERTEX
  8
0
 10
6.19151
 20
3.33518
 30
0.0
 40
0.0104167
 41
0.0104167
  0
VERTEX
  8
0
 10
6.31635
 20
3.34631
 30
0.0
 40
0.0104167
 41
0.0104167
  0
VERTEX
  8
0
 10
6.46067
 20
3.37961
 30
0.0
 40
0.0104167
 41
0.0104167
  0
VERTEX
  8
0
 10
6.58279
 20
3.43511
 30
0.0
 40
0.0104167
 41
0.0104167
  0
VERTEX
  8
0
 10
6.68267
 20
3.51281
 30
0.0
 40
0.0104167
 41
0.0104167
  0
VERTEX
  8
0
 10
6.76036
 20
3.61268
 30
0.0
 40
0.0104167
 41
0.0104167
  0
VERTEX
  8
0
 10
6.81586
 20
3.73481
 30
0.0
 40
0.0104167
 41
0.0104167
  0
VERTEX
  8
0
 10
6.84918
 20
3.87912
 30
0.0
 40
0.0104167
 41
0.0104167
  0
VERTEX
  8
0
 10
6.86029
 20
4.00396
 30
0.0
 40
0.0104167
 41
0.0104167
  0
VERTEX
  8
0
 10
6.86029
 20
4.04557
 30
0.0
 40
0.0104167
 41
0.0104167
  0
VERTEX
  8
0
 10
6.1499
 20
4.04557
 30
0.0
 40
0.0104167
 41
0.0104167
  0
VERTEX
  8
0
 10
6.1499
 20
3.33518
 30
0.0
 40
0.0104167
 41
0.0104167
  0
SEQEND
 8
0
  0
POLYLINE
  8
0
 62
     0
 66
     1
 10
0
 20
0
 30
0.0
 70
     1
 40
0
 41
0
  0
VERTEX
  8
0
 10
3.85915
 20
4.37978
 30
0.0
 40
0
 41
0
  0
VERTEX
  8
0
 10
3.85915
 20
2.58757
 30
0.0
 40
0
 41
0
  0
VERTEX
  8
0
 10
4.153
 20
2.69174
 30
0.0
 40
0
 41
0
  0
VERTEX
  8
0
 10
4.153
 20
4.22353
 30
0.0
 40
0
 41
0
  0
VERTEX
  8
0
 10
3.85915
 20
4.37978
 30
0.0
 40
0
 41
0
  0
SEQEND
 8
0
  0
POLYLINE
  8
0
 62
     0
 66
     1
 10
0
 20
0
 30
0.0
 70
     1
 40
0.15
 41
0.15
  0
VERTEX
  8
0
 10
3.85915
 20
4.37978
 30
0.0
 40
0.00208333
 41
0.00208333
  0
VERTEX
  8
0
 10
3.85915
 20
2.58757
 30
0.0
 40
0.00208333
 41
0.00208333
  0
VERTEX
  8
0
 10
4.153
 20
2.69174
 30
0.0
 40
0.00208333
 41
0.00208333
  0
VERTEX
  8
0
 10
4.153
 20
4.22353
 30
0.0
 40
0.00208333
 41
0.00208333
  0
VERTEX
  8
0
 10
3.85915
 20
4.37978
 30
0.0
 40
0.00208333
 41
0.00208333
  0
SEQEND
 8
0
  0
POLYLINE
  8
0
 62
     0
 66
     1
 10
0
 20
0
 30
0.0
 70
     1
 40
0
 41
0
  0
VERTEX
  8
0
 10
3.85915
 20
2.58757
 30
0.0
 40
0
 41
0
  0
VERTEX
  8
0
 10
6.1499
 20
2.58757
 30
0.0
 40
0
 41
0
  0
VERTEX
  8
0
 10
6.1499
 20
2.69174
 30
0.0
 40
0
 41
0
  0
VERTEX
  8
0
 10
4.153
 20
2.69174
 30
0.0
 40
0
 41
0
  0
VERTEX
  8
0
 10
3.85915
 20
2.58757
 30
0.0
 40
0
 41
0
  0
SEQEND
 8
0
  0
POLYLINE
  8
0
 62
     0
 66
     1
 10
0
 20
0
 30
0.0
 70
     1
 40
0.15
 41
0.15
  0
VERTEX
  8
0
 10
3.85915
 20
2.58757
 30
0.0
 40
0.00208333
 41
0.00208333
  0
VERTEX
  8
0
 10
6.1499
 20
2.58757
 30
0.0
 40
0.00208333
 41
0.00208333
  0
VERTEX
  8
0
 10
6.1499
 20
2.69174
 30
0.0
 40
0.00208333
 41
0.00208333
  0
VERTEX
  8
0
 10
4.153
 20
2.69174
 30
0.0
 40
0.00208333
 41
0.00208333
  0
VERTEX
  8
0
 10
3.85915
 20
2.58757
 30
0.0
 40
0.00208333
 41
0.00208333
  0
SEQEND
 8
0
  0
POLYLINE
  8
0
 62
     0
 66
     1
 10
0
 20
0
 30
0.0
 70
     1
 40
0
 41
0
  0
VERTEX
  8
0
 10
6.1499
 20
4.37978
 30
0.0
 40
0
 41
0
  0
VERTEX
  8
0
 10
3.85915
 20
4.37978
 30
0.0
 40
0
 41
0
  0
VERTEX
  8
0
 10
4.153
 20
4.22353
 30
0.0
 40
0
 41
0
  0
VERTEX
  8
0
 10
6.03532
 20
4.22353
 30
0.0
 40
0
 41
0
  0
VERTEX
  8
0
 10
6.1499
 20
4.37978
 30
0.0
 40
0
 41
0
  0
SEQEND
 8
0
  0
POLYLINE
  8
0
 62
     0
 66
     1
 10
0
 20
0
 30
0.0
 70
     1
 40
0.15
 41
0.15
  0
VERTEX
  8
0
 10
6.1499
 20
4.37978
 30
0.0
 40
0.00208333
 41
0.00208333
  0
VERTEX
  8
0
 10
3.85915
 20
4.37978
 30
0.0
 40
0.00208333
 41
0.00208333
  0
VERTEX
  8
0
 10
4.153
 20
4.22353
 30
0.0
 40
0.00208333
 41
0.00208333
  0
VERTEX
  8
0
 10
6.03532
 20
4.22353
 30
0.0
 40
0.00208333
 41
0.00208333
  0
VERTEX
  8
0
 10
6.1499
 20
4.37978
 30
0.0
 40
0.00208333
 41
0.00208333
  0
SEQEND
 8
0
  0
POLYLINE
  8
0
 62
     0
 66
     1
 10
0
 20
0
 30
0.0
 70
     1
 40
0
 41
0
  0
VERTEX
  8
0
 10
1.58854
 20
4.37978
 30
0.0
 40
0
 41
0
  0
VERTEX
  8
0
 10
3.97374
 20
4.37978
 30
0.0
 40
0
 41
0
  0
VERTEX
  8
0
 10
3.97374
 20
4.22353
 30
0.0
 40
0
 41
0
  0
VERTEX
  8
0
 10
1.58854
 20
4.22353
 30
0.0
 40
0
 41
0
  0
VERTEX
  8
0
 10
1.58854
 20
4.37978
 30
0.0
 40
0
 41
0
  0
SEQEND
 8
0
  0
POLYLINE
  8
0
 62
     0
 66
     1
 10
0
 20
0
 30
0.0
 70
     1
 40
0.15
 41
0.15
  0
VERTEX
  8
0
 10
1.58854
 20
4.37978
 30
0.0
 40
0.00208333
 41
0.00208333
  0
VERTEX
  8
0
 10
3.97374
 20
4.37978
 30
0.0
 40
0.00208333
 41
0.00208333
  0
VERTEX
  8
0
 10
3.97374
 20
4.22353
 30
0.0
 40
0.00208333
 41
0.00208333
  0
VERTEX
  8
0
 10
1.58854
 20
4.22353
 30
0.0
 40
0.00208333
 41
0.00208333
  0
VERTEX
  8
0
 10
1.58854
 20
4.37978
 30
0.0
 40
0.00208333
 41
0.00208333
  0
SEQEND
 8
0
  0
POLYLINE
  8
0
 62
     7
 66
     1
 10
0
 20
0
 30
0.0
 70
     1
 40
0
 41
0
  0
VERTEX
  8
0
 10
2.94928
 20
4.37978
 30
0.0
 40
0
 41
0
  0
VERTEX
  8
0
 10
3.85086
 20
4.37978
 30
0.0
 40
0
 41
0
  0
VERTEX
  8
0
 10
3.85086
 20
4.22353
 30
0.0
 40
0
 41
0
  0
VERTEX
  8
0
 10
2.94928
 20
4.22353
 30
0.0
 40
0
 41
0
  0
VERTEX
  8
0
 10
2.94928
 20
4.37978
 30
0.0
 40
0
 41
0
  0
SEQEND
 8
0
  0
POLYLINE
  8
0
 62
     0
 66
     1
 10
0
 20
0
 30
0.0
 70
     1
 40
0.75
 41
0.75
  0
VERTEX
  8
0
 10
2.94928
 20
4.37978
 30
0.0
 40
0.0104167
 41
0.0104167
  0
VERTEX
  8
0
 10
3.85086
 20
4.37978
 30
0.0
 40
0.0104167
 41
0.0104167
  0
VERTEX
  8
0
 10
3.85086
 20
4.22353
 30
0.0
 40
0.0104167
 41
0.0104167
  0
VERTEX
  8
0
 10
2.94928
 20
4.22353
 30
0.0
 40
0.0104167
 41
0.0104167
  0
VERTEX
  8
0
 10
2.94928
 20
4.37978
 30
0.0
 40
0.0104167
 41
0.0104167
  0
SEQEND
 8
0
  0
POLYLINE
  8
0
 62
     7
 66
     1
 10
0
 20
0
 30
0.0
 70
     1
 40
0
 41
0
  0
VERTEX
  8
0
 10
2.94928
 20
4.37978
 30
0.0
 40
0
 41
0
  0
VERTEX
  8
0
 10
3.85086
 20
4.37978
 30
0.0
 40
0
 41
0
  0
VERTEX
  8
0
 10
3.85086
 20
4.22353
 30
0.0
 40
0
 41
0
  0
VERTEX
  8
0
 10
2.94928
 20
4.22353
 30
0.0
 40
0
 41
0
  0
VERTEX
  8
0
 10
2.94928
 20
4.37978
 30
0.0
 40
0
 41
0
  0
SEQEND
 8
0
  0
POLYLINE
  8
0
 62
     7
 66
     1
 10
0
 20
0
 30
0.0
 70
     1
 40
0.75
 41
0.75
  0
VERTEX
  8
0
 10
2.94928
 20
4.37978
 30
0.0
 40
0.0104167
 41
0.0104167
  0
VERTEX
  8
0
 10
3.85086
 20
4.37978
 30
0.0
 40
0.0104167
 41
0.0104167
  0
VERTEX
  8
0
 10
3.85086
 20
4.22353
 30
0.0
 40
0.0104167
 41
0.0104167
  0
VERTEX
  8
0
 10
2.94928
 20
4.22353
 30
0.0
 40
0.0104167
 41
0.0104167
  0
VERTEX
  8
0
 10
2.94928
 20
4.37978
 30
0.0
 40
0.0104167
 41
0.0104167
  0
SEQEND
 8
0
  0
POLYLINE
  8
0
 62
     0
 66
     1
 10
0
 20
0
 30
0.0
 70
     1
 40
0
 41
0
  0
VERTEX
  8
0
 10
7.53836
 20
4.22353
 30
0.0
 40
0
 41
0
  0
VERTEX
  8
0
 10
7.66336
 20
4.22353
 30
0.0
 40
0
 41
0
  0
VERTEX
  8
0
 10
7.66336
 20
0.991319
 30
0.0
 40
0
 41
0
  0
VERTEX
  8
0
 10
7.53836
 20
0.991319
 30
0.0
 40
0
 41
0
  0
VERTEX
  8
0
 10
7.53836
 20
4.22353
 30
0.0
 40
0
 41
0
  0
SEQEND
 8
0
  0
POLYLINE
  8
0
 62
     0
 66
     1
 10
0
 20
0
 30
0.0
 70
     1
 40
0.15
 41
0.15
  0
VERTEX
  8
0
 10
7.53836
 20
4.22353
 30
0.0
 40
0.00208333
 41
0.00208333
  0
VERTEX
  8
0
 10
7.66336
 20
4.22353
 30
0.0
 40
0.00208333
 41
0.00208333
  0
VERTEX
  8
0
 10
7.66336
 20
0.991319
 30
0.0
 40
0.00208333
 41
0.00208333
  0
VERTEX
  8
0
 10
7.53836
 20
0.991319
 30
0.0
 40
0.00208333
 41
0.00208333
  0
VERTEX
  8
0
 10
7.53836
 20
4.22353
 30
0.0
 40
0.00208333
 41
0.00208333
  0
SEQEND
 8
0
  0
POLYLINE
  8
0
 62
     7
 66
     1
 10
0
 20
0
 30
0.0
 70
     1
 40
0
 41
0
  0
VERTEX
  8
0
 10
7.53836
 20
4.17904
 30
0.0
 40
0
 41
0
  0
VERTEX
  8
0
 10
7.66336
 20
4.17904
 30
0.0
 40
0
 41
0
  0
VERTEX
  8
0
 10
7.66336
 20
3.42518
 30
0.0
 40
0
 41
0
  0
VERTEX
  8
0
 10
7.53836
 20
3.42518
 30
0.0
 40
0
 41
0
  0
VERTEX
  8
0
 10
7.53836
 20
4.17904
 30
0.0
 40
0
 41
0
  0
SEQEND
 8
0
  0
POLYLINE
  8
0
 62
     0
 66
     1
 10
0
 20
0
 30
0.0
 70
     1
 40
0.75
 41
0.75
  0
VERTEX
  8
0
 10
7.53836
 20
4.17904
 30
0.0
 40
0.0104167
 41
0.0104167
  0
VERTEX
  8
0
 10
7.66336
 20
4.17904
 30
0.0
 40
0.0104167
 41
0.0104167
  0
VERTEX
  8
0
 10
7.66336
 20
3.42518
 30
0.0
 40
0.0104167
 41
0.0104167
  0
VERTEX
  8
0
 10
7.53836
 20
3.42518
 30
0.0
 40
0.0104167
 41
0.0104167
  0
VERTEX
  8
0
 10
7.53836
 20
4.17904
 30
0.0
 40
0.0104167
 41
0.0104167
  0
SEQEND
 8
0
  0
POLYLINE
  8
0
 62
     7
 66
     1
 10
0
 20
0
 30
0.0
 70
     1
 40
0
 41
0
  0
VERTEX
  8
0
 10
7.53836
 20
4.17904
 30
0.0
 40
0
 41
0
  0
VERTEX
  8
0
 10
7.66336
 20
4.17904
 30
0.0
 40
0
 41
0
  0
VERTEX
  8
0
 10
7.66336
 20
3.42518
 30
0.0
 40
0
 41
0
  0
VERTEX
  8
0
 10
7.53836
 20
3.42518
 30
0.0
 40
0
 41
0
  0
VERTEX
  8
0
 10
7.53836
 20
4.17904
 30
0.0
 40
0
 41
0
  0
SEQEND
 8
0
  0
POLYLINE
  8
0
 62
     0
 66
     1
 10
0
 20
0
 30
0.0
 70
     1
 40
0.75
 41
0.75
  0
VERTEX
  8
0
 10
7.53836
 20
4.17904
 30
0.0
 40
0.0104167
 41
0.0104167
  0
VERTEX
  8
0
 10
7.66336
 20
4.17904
 30
0.0
 40
0.0104167
 41
0.0104167
  0
VERTEX
  8
0
 10
7.66336
 20
3.42518
 30
0.0
 40
0.0104167
 41
0.0104167
  0
VERTEX
  8
0
 10
7.53836
 20
3.42518
 30
0.0
 40
0.0104167
 41
0.0104167
  0
VERTEX
  8
0
 10
7.53836
 20
4.17904
 30
0.0
 40
0.0104167
 41
0.0104167
  0
SEQEND
 8
0
  0
POLYLINE
  8
0
 62
     0
 66
     1
 10
0
 20
0
 30
0.0
 70
     1
 40
0.75
 41
0.75
  0
VERTEX
  8
0
 10
7.66336
 20
3.42518
 30
0.0
 40
0.0104167
 41
0.0104167
  0
VERTEX
  8
0
 10
7.70751
 20
3.42518
 30
0.0
 40
0.0104167
 41
0.0104167
  0
VERTEX
  8
0
 10
7.84
 20
3.43701
 30
0.0
 40
0.0104167
 41
0.0104167
  0
VERTEX
  8
0
 10
7.99311
 20
3.47233
 30
0.0
 40
0.0104167
 41
0.0104167
  0
VERTEX
  8
0
 10
8.12272
 20
3.53119
 30
0.0
 40
0.0104167
 41
0.0104167
  0
VERTEX
  8
0
 10
8.22874
 20
3.61367
 30
0.0
 40
0.0104167
 41
0.0104167
  0
VERTEX
  8
0
 10
8.31114
 20
3.71967
 30
0.0
 40
0.0104167
 41
0.0104167
  0
VERTEX
  8
0
 10
8.37007
 20
3.84924
 30
0.0
 40
0.0104167
 41
0.0104167
  0
VERTEX
  8
0
 10
8.40539
 20
4.00239
 30
0.0
 40
0.0104167
 41
0.0104167
  0
VERTEX
  8
0
 10
8.41721
 20
4.13488
 30
0.0
 40
0.0104167
 41
0.0104167
  0
VERTEX
  8
0
 10
8.41721
 20
4.17904
 30
0.0
 40
0.0104167
 41
0.0104167
  0
VERTEX
  8
0
 10
7.66336
 20
4.17904
 30
0.0
 40
0.0104167
 41
0.0104167
  0
VERTEX
  8
0
 10
7.66336
 20
3.42518
 30
0.0
 40
0.0104167
 41
0.0104167
  0
SEQEND
 8
0
  0
POLYLINE
  8
0
 62
     0
 66
     1
 10
0
 20
0
 30
0.0
 70
     1
 40
0
 41
0
  0
VERTEX
  8
0
 10
13.129
 20
1.43924
 30
0.0
 40
0
 41
0
  0
VERTEX
  8
0
 10
14.5147
 20
1.43924
 30
0.0
 40
0
 41
0
  0
VERTEX
  8
0
 10
14.5147
 20
0.991319
 30
0.0
 40
0
 41
0
  0
VERTEX
  8
0
 10
13.129
 20
0.991319
 30
0.0
 40
0
 41
0
  0
VERTEX
  8
0
 10
13.129
 20
1.43924
 30
0.0
 40
0
 41
0
  0
SEQEND
 8
0
  0
POLYLINE
  8
0
 62
     0
 66
     1
 10
0
 20
0
 30
0.0
 70
     1
 40
0.15
 41
0.15
  0
VERTEX
  8
0
 10
13.129
 20
1.43924
 30
0.0
 40
0.00208333
 41
0.00208333
  0
VERTEX
  8
0
 10
14.5147
 20
1.43924
 30
0.0
 40
0.00208333
 41
0.00208333
  0
VERTEX
  8
0
 10
14.5147
 20
0.991319
 30
0.0
 40
0.00208333
 41
0.00208333
  0
VERTEX
  8
0
 10
13.129
 20
0.991319
 30
0.0
 40
0.00208333
 41
0.00208333
  0
VERTEX
  8
0
 10
13.129
 20
1.43924
 30
0.0
 40
0.00208333
 41
0.00208333
  0
SEQEND
 8
0
  0
POLYLINE
  8
0
 62
     7
 66
     1
 10
0
 20
0
 30
0.0
 70
     1
 40
0
 41
0
  0
VERTEX
  8
0
 10
14.3376
 20
7.26025
 30
0.0
 40
0
 41
0
  0
VERTEX
  8
0
 10
14.5147
 20
7.26025
 30
0.0
 40
0
 41
0
  0
VERTEX
  8
0
 10
14.5147
 20
1.43924
 30
0.0
 40
0
 41
0
  0
VERTEX
  8
0
 10
14.3376
 20
1.43924
 30
0.0
 40
0
 41
0
  0
VERTEX
  8
0
 10
14.3376
 20
7.26025
 30
0.0
 40
0
 41
0
  0
SEQEND
 8
0
  0
POLYLINE
  8
0
 62
     0
 66
     1
 10
0
 20
0
 30
0.0
 70
     1
 40
0.15
 41
0.15
  0
VERTEX
  8
0
 10
14.3376
 20
7.26025
 30
0.0
 40
0.00208333
 41
0.00208333
  0
VERTEX
  8
0
 10
14.5147
 20
7.26025
 30
0.0
 40
0.00208333
 41
0.00208333
  0
VERTEX
  8
0
 10
14.5147
 20
1.43924
 30
0.0
 40
0.00208333
 41
0.00208333
  0
VERTEX
  8
0
 10
14.3376
 20
1.43924
 30
0.0
 40
0.00208333
 41
0.00208333
  0
VERTEX
  8
0
 10
14.3376
 20
7.26025
 30
0.0
 40
0.00208333
 41
0.00208333
  0
SEQEND
 8
0
  0
POLYLINE
  8
0
 62
     0
 66
     1
 10
0
 20
0
 30
0.0
 70
     1
 40
0
 41
0
  0
VERTEX
  8
0
 10
13.129
 20
7.62483
 30
0.0
 40
0
 41
0
  0
VERTEX
  8
0
 10
14.5147
 20
7.62483
 30
0.0
 40
0
 41
0
  0
VERTEX
  8
0
 10
14.5147
 20
7.26025
 30
0.0
 40
0
 41
0
  0
VERTEX
  8
0
 10
13.129
 20
7.26025
 30
0.0
 40
0
 41
0
  0
VERTEX
  8
0
 10
13.129
 20
7.62483
 30
0.0
 40
0
 41
0
  0
SEQEND
 8
0
  0
POLYLINE
  8
0
 62
     0
 66
     1
 10
0
 20
0
 30
0.0
 70
     1
 40
0.15
 41
0.15
  0
VERTEX
  8
0
 10
13.129
 20
7.62483
 30
0.0
 40
0.00208333
 41
0.00208333
  0
VERTEX
  8
0
 10
14.5147
 20
7.62483
 30
0.0
 40
0.00208333
 41
0.00208333
  0
VERTEX
  8
0
 10
14.5147
 20
7.26025
 30
0.0
 40
0.00208333
 41
0.00208333
  0
VERTEX
  8
0
 10
13.129
 20
7.26025
 30
0.0
 40
0.00208333
 41
0.00208333
  0
VERTEX
  8
0
 10
13.129
 20
7.62483
 30
0.0
 40
0.00208333
 41
0.00208333
  0
SEQEND
 8
0
  0
POLYLINE
  8
0
 62
     7
 66
     1
 10
0
 20
0
 30
0.0
 70
     1
 40
0
 41
0
  0
VERTEX
  8
0
 10
1.94271
 20
1.83556
 30
0.0
 40
0
 41
0
  0
VERTEX
  8
0
 10
2.56771
 20
1.83556
 30
0.0
 40
0
 41
0
  0
VERTEX
  8
0
 10
2.56771
 20
1.21056
 30
0.0
 40
0
 41
0
  0
VERTEX
  8
0
 10
1.94271
 20
1.21056
 30
0.0
 40
0
 41
0
  0
VERTEX
  8
0
 10
1.94271
 20
1.83556
 30
0.0
 40
0
 41
0
  0
SEQEND
 8
0
  0
POLYLINE
  8
0
 62
     0
 66
     1
 10
0
 20
0
 30
0.0
 70
     1
 40
0.75
 41
0.75
  0
VERTEX
  8
0
 10
1.94271
 20
1.83556
 30
0.0
 40
0.0104167
 41
0.0104167
  0
VERTEX
  8
0
 10
2.56771
 20
1.83556
 30
0.0
 40
0.0104167
 41
0.0104167
  0
VERTEX
  8
0
 10
2.56771
 20
1.21056
 30
0.0
 40
0.0104167
 41
0.0104167
  0
VERTEX
  8
0
 10
1.94271
 20
1.21056
 30
0.0
 40
0.0104167
 41
0.0104167
  0
VERTEX
  8
0
 10
1.94271
 20
1.83556
 30
0.0
 40
0.0104167
 41
0.0104167
  0
SEQEND
 8
0
  0
POLYLINE
  8
0
 62
     0
 66
     1
 10
0
 20
0
 30
0.0
 40
0.75
 41
0.75
  0
VERTEX
  8
0
 10
2.56771
 20
1.21056
 30
0.0
 40
0.0104167
 41
0.0104167
  0
VERTEX
  8
0
 10
2.25521
 20
1.597
 30
0.0
 40
0.0104167
 41
0.0104167
  0
VERTEX
  8
0
 10
2.25521
 20
1.4095
 30
0.0
 40
0.0104167
 41
0.0104167
  0
VERTEX
  8
0
 10
1.94271
 20
1.79699
 30
0.0
 40
0.0104167
 41
0.0104167
  0
SEQEND
 8
0
  0
POLYLINE
  8
0
 62
     7
 66
     1
 10
0
 20
0
 30
0.0
 70
     1
 40
0
 41
0
  0
VERTEX
  8
0
 10
1.94271
 20
1.83556
 30
0.0
 40
0
 41
0
  0
VERTEX
  8
0
 10
2.56771
 20
1.83556
 30
0.0
 40
0
 41
0
  0
VERTEX
  8
0
 10
2.56771
 20
1.79389
 30
0.0
 40
0
 41
0
  0
VERTEX
  8
0
 10
1.94271
 20
1.79389
 30
0.0
 40
0
 41
0
  0
VERTEX
  8
0
 10
1.94271
 20
1.83556
 30
0.0
 40
0
 41
0
  0
SEQEND
 8
0
  0
POLYLINE
  8
0
 62
     0
 66
     1
 10
0
 20
0
 30
0.0
 70
     1
 40
0.75
 41
0.75
  0
VERTEX
  8
0
 10
1.94271
 20
1.83556
 30
0.0
 40
0.0104167
 41
0.0104167
  0
VERTEX
  8
0
 10
2.56771
 20
1.83556
 30
0.0
 40
0.0104167
 41
0.0104167
  0
VERTEX
  8
0
 10
2.56771
 20
1.79389
 30
0.0
 40
0.0104167
 41
0.0104167
  0
VERTEX
  8
0
 10
1.94271
 20
1.79389
 30
0.0
 40
0.0104167
 41
0.0104167
  0
VERTEX
  8
0
 10
1.94271
 20
1.83556
 30
0.0
 40
0.0104167
 41
0.0104167
  0
SEQEND
 8
0
  0
POLYLINE
  8
0
 62
     7
 66
     1
 10
0
 20
0
 30
0.0
 70
     1
 40
0
 41
0
  0
VERTEX
  8
0
 10
2.56771
 20
1.83556
 30
0.0
 40
0
 41
0
  0
VERTEX
  8
0
 10
5.48822
 20
1.83556
 30
0.0
 40
0
 41
0
  0
VERTEX
  8
0
 10
5.48822
 20
1.21056
 30
0.0
 40
0
 41
0
  0
VERTEX
  8
0
 10
2.56771
 20
1.21056
 30
0.0
 40
0
 41
0
  0
VERTEX
  8
0
 10
2.56771
 20
1.83556
 30
0.0
 40
0
 41
0
  0
SEQEND
 8
0
  0
POLYLINE
  8
0
 62
     0
 66
     1
 10
0
 20
0
 30
0.0
 70
     1
 40
0.75
 41
0.75
  0
VERTEX
  8
0
 10
2.56771
 20
1.83556
 30
0.0
 40
0.0104167
 41
0.0104167
  0
VERTEX
  8
0
 10
5.48822
 20
1.83556
 30
0.0
 40
0.0104167
 41
0.0104167
  0
VERTEX
  8
0
 10
5.48822
 20
1.21056
 30
0.0
 40
0.0104167
 41
0.0104167
  0
VERTEX
  8
0
 10
2.56771
 20
1.21056
 30
0.0
 40
0.0104167
 41
0.0104167
  0
VERTEX
  8
0
 10
2.56771
 20
1.83556
 30
0.0
 40
0.0104167
 41
0.0104167
  0
SEQEND
 8
0
  0
POLYLINE
  8
0
 62
     7
 66
     1
 10
0
 20
0
 30
0.0
 70
     1
 40
0
 41
0
  0
VERTEX
  8
0
 10
3.41906
 20
1.7819
 30
0.0
 40
0
 41
0
  0
VERTEX
  8
0
 10
3.73497
 20
1.7819
 30
0.0
 40
0
 41
0
  0
VERTEX
  8
0
 10
3.73497
 20
1.31315
 30
0.0
 40
0
 41
0
  0
VERTEX
  8
0
 10
3.41906
 20
1.31315
 30
0.0
 40
0
 41
0
  0
VERTEX
  8
0
 10
3.41906
 20
1.7819
 30
0.0
 40
0
 41
0
  0
SEQEND
 8
0
  0
POLYLINE
  8
0
 62
     0
 66
     1
 10
0
 20
0
 30
0.0
 70
     1
 40
0.75
 41
0.75
  0
VERTEX
  8
0
 10
3.41906
 20
1.7819
 30
0.0
 40
0.0104167
 41
0.0104167
  0
VERTEX
  8
0
 10
3.73497
 20
1.7819
 30
0.0
 40
0.0104167
 41
0.0104167
  0
VERTEX
  8
0
 10
3.73497
 20
1.31315
 30
0.0
 40
0.0104167
 41
0.0104167
  0
VERTEX
  8
0
 10
3.41906
 20
1.31315
 30
0.0
 40
0.0104167
 41
0.0104167
  0
VERTEX
  8
0
 10
3.41906
 20
1.7819
 30
0.0
 40
0.0104167
 41
0.0104167
  0
SEQEND
 8
0
  0
POLYLINE
  8
0
 62
     7
 66
     1
 10
0
 20
0
 30
0.0
 70
     1
 40
0
 41
0
  0
VERTEX
  8
0
 10
3.06988
 20
1.78299
 30
0.0
 40
0
 41
0
  0
VERTEX
  8
0
 10
3.38579
 20
1.78299
 30
0.0
 40
0
 41
0
  0
VERTEX
  8
0
 10
3.38579
 20
1.31424
 30
0.0
 40
0
 41
0
  0
VERTEX
  8
0
 10
3.06988
 20
1.31424
 30
0.0
 40
0
 41
0
  0
VERTEX
  8
0
 10
3.06988
 20
1.78299
 30
0.0
 40
0
 41
0
  0
SEQEND
 8
0
  0
POLYLINE
  8
0
 62
     0
 66
     1
 10
0
 20
0
 30
0.0
 70
     1
 40
0.75
 41
0.75
  0
VERTEX
  8
0
 10
3.06988
 20
1.78299
 30
0.0
 40
0.0104167
 41
0.0104167
  0
VERTEX
  8
0
 10
3.38579
 20
1.78299
 30
0.0
 40
0.0104167
 41
0.0104167
  0
VERTEX
  8
0
 10
3.38579
 20
1.31424
 30
0.0
 40
0.0104167
 41
0.0104167
  0
VERTEX
  8
0
 10
3.06988
 20
1.31424
 30
0.0
 40
0.0104167
 41
0.0104167
  0
VERTEX
  8
0
 10
3.06988
 20
1.78299
 30
0.0
 40
0.0104167
 41
0.0104167
  0
SEQEND
 8
0
  0
POLYLINE
  8
0
 62
     7
 66
     1
 10
0
 20
0
 30
0.0
 70
     1
 40
0
 41
0
  0
VERTEX
  8
0
 10
3.5356
 20
1.54861
 30
0.0
 40
0
 41
0
  0
VERTEX
  8
0
 10
3.5356
 20
1.55507
 30
0.0
 40
0
 41
0
  0
VERTEX
  8
0
 10
3.54622
 20
1.57443
 30
0.0
 40
0
 41
0
  0
VERTEX
  8
0
 10
3.5656
 20
1.58507
 30
0.0
 40
0
 41
0
  0
VERTEX
  8
0
 10
3.57206
 20
1.58507
 30
0.0
 40
0
 41
0
  0
VERTEX
  8
0
 10
3.57844
 20
1.58507
 30
0.0
 40
0
 41
0
  0
VERTEX
  8
0
 10
3.59782
 20
1.57443
 30
0.0
 40
0
 41
0
  0
VERTEX
  8
0
 10
3.60851
 20
1.55507
 30
0.0
 40
0
 41
0
  0
VERTEX
  8
0
 10
3.60851
 20
1.54861
 30
0.0
 40
0
 41
0
  0
VERTEX
  8
0
 10
3.60851
 20
1.54221
 30
0.0
 40
0
 41
0
  0
VERTEX
  8
0
 10
3.59782
 20
1.52285
 30
0.0
 40
0
 41
0
  0
VERTEX
  8
0
 10
3.57844
 20
1.51215
 30
0.0
 40
0
 41
0
  0
VERTEX
  8
0
 10
3.57206
 20
1.51215
 30
0.0
 40
0
 41
0
  0
VERTEX
  8
0
 10
3.5656
 20
1.51215
 30
0.0
 40
0
 41
0
  0
VERTEX
  8
0
 10
3.54622
 20
1.52285
 30
0.0
 40
0
 41
0
  0
VERTEX
  8
0
 10
3.5356
 20
1.54221
 30
0.0
 40
0
 41
0
  0
VERTEX
  8
0
 10
3.5356
 20
1.54861
 30
0.0
 40
0
 41
0
  0
SEQEND
 8
0
  0
POLYLINE
  8
0
 62
     0
 66
     1
 10
0
 20
0
 30
0.0
 70
     1
 40
0.6
 41
0.6
  0
VERTEX
  8
0
 10
3.5356
 20
1.54861
 30
0.0
 40
0.00833333
 41
0.00833333
  0
VERTEX
  8
0
 10
3.5356
 20
1.55507
 30
0.0
 40
0.00833333
 41
0.00833333
  0
VERTEX
  8
0
 10
3.54622
 20
1.57443
 30
0.0
 40
0.00833333
 41
0.00833333
  0
VERTEX
  8
0
 10
3.5656
 20
1.58507
 30
0.0
 40
0.00833333
 41
0.00833333
  0
VERTEX
  8
0
 10
3.57206
 20
1.58507
 30
0.0
 40
0.00833333
 41
0.00833333
  0
VERTEX
  8
0
 10
3.57844
 20
1.58507
 30
0.0
 40
0.00833333
 41
0.00833333
  0
VERTEX
  8
0
 10
3.59782
 20
1.57443
 30
0.0
 40
0.00833333
 41
0.00833333
  0
VERTEX
  8
0
 10
3.60851
 20
1.55507
 30
0.0
 40
0.00833333
 41
0.00833333
  0
VERTEX
  8
0
 10
3.60851
 20
1.54861
 30
0.0
 40
0.00833333
 41
0.00833333
  0
VERTEX
  8
0
 10
3.60851
 20
1.54221
 30
0.0
 40
0.00833333
 41
0.00833333
  0
VERTEX
  8
0
 10
3.59782
 20
1.52285
 30
0.0
 40
0.00833333
 41
0.00833333
  0
VERTEX
  8
0
 10
3.57844
 20
1.51215
 30
0.0
 40
0.00833333
 41
0.00833333
  0
VERTEX
  8
0
 10
3.57206
 20
1.51215
 30
0.0
 40
0.00833333
 41
0.00833333
  0
VERTEX
  8
0
 10
3.5656
 20
1.51215
 30
0.0
 40
0.00833333
 41
0.00833333
  0
VERTEX
  8
0
 10
3.54622
 20
1.52285
 30
0.0
 40
0.00833333
 41
0.00833333
  0
VERTEX
  8
0
 10
3.5356
 20
1.54221
 30
0.0
 40
0.00833333
 41
0.00833333
  0
VERTEX
  8
0
 10
3.5356
 20
1.54861
 30
0.0
 40
0.00833333
 41
0.00833333
  0
SEQEND
 8
0
  0
POLYLINE
  8
0
 62
     7
 66
     1
 10
0
 20
0
 30
0.0
 70
     1
 40
0
 41
0
  0
VERTEX
  8
0
 10
3.19749
 20
1.54861
 30
0.0
 40
0
 41
0
  0
VERTEX
  8
0
 10
3.19749
 20
1.55507
 30
0.0
 40
0
 41
0
  0
VERTEX
  8
0
 10
3.20811
 20
1.57443
 30
0.0
 40
0
 41
0
  0
VERTEX
  8
0
 10
3.22749
 20
1.58507
 30
0.0
 40
0
 41
0
  0
VERTEX
  8
0
 10
3.23394
 20
1.58507
 30
0.0
 40
0
 41
0
  0
VERTEX
  8
0
 10
3.24035
 20
1.58507
 30
0.0
 40
0
 41
0
  0
VERTEX
  8
0
 10
3.25971
 20
1.57443
 30
0.0
 40
0
 41
0
  0
VERTEX
  8
0
 10
3.2704
 20
1.55507
 30
0.0
 40
0
 41
0
  0
VERTEX
  8
0
 10
3.2704
 20
1.54861
 30
0.0
 40
0
 41
0
  0
VERTEX
  8
0
 10
3.2704
 20
1.54221
 30
0.0
 40
0
 41
0
  0
VERTEX
  8
0
 10
3.25971
 20
1.52285
 30
0.0
 40
0
 41
0
  0
VERTEX
  8
0
 10
3.24035
 20
1.51215
 30
0.0
 40
0
 41
0
  0
VERTEX
  8
0
 10
3.23394
 20
1.51215
 30
0.0
 40
0
 41
0
  0
VERTEX
  8
0
 10
3.22749
 20
1.51215
 30
0.0
 40
0
 41
0
  0
VERTEX
  8
0
 10
3.20811
 20
1.52285
 30
0.0
 40
0
 41
0
  0
VERTEX
  8
0
 10
3.19749
 20
1.54221
 30
0.0
 40
0
 41
0
  0
VERTEX
  8
0
 10
3.19749
 20
1.54861
 30
0.0
 40
0
 41
0
  0
SEQEND
 8
0
  0
POLYLINE
  8
0
 62
     0
 66
     1
 10
0
 20
0
 30
0.0
 70
     1
 40
0.6
 41
0.6
  0
VERTEX
  8
0
 10
3.19749
 20
1.54861
 30
0.0
 40
0.00833333
 41
0.00833333
  0
VERTEX
  8
0
 10
3.19749
 20
1.55507
 30
0.0
 40
0.00833333
 41
0.00833333
  0
VERTEX
  8
0
 10
3.20811
 20
1.57443
 30
0.0
 40
0.00833333
 41
0.00833333
  0
VERTEX
  8
0
 10
3.22749
 20
1.58507
 30
0.0
 40
0.00833333
 41
0.00833333
  0
VERTEX
  8
0
 10
3.23394
 20
1.58507
 30
0.0
 40
0.00833333
 41
0.00833333
  0
VERTEX
  8
0
 10
3.24035
 20
1.58507
 30
0.0
 40
0.00833333
 41
0.00833333
  0
VERTEX
  8
0
 10
3.25971
 20
1.57443
 30
0.0
 40
0.00833333
 41
0.00833333
  0
VERTEX
  8
0
 10
3.2704
 20
1.55507
 30
0.0
 40
0.00833333
 41
0.00833333
  0
VERTEX
  8
0
 10
3.2704
 20
1.54861
 30
0.0
 40
0.00833333
 41
0.00833333
  0
VERTEX
  8
0
 10
3.2704
 20
1.54221
 30
0.0
 40
0.00833333
 41
0.00833333
  0
VERTEX
  8
0
 10
3.25971
 20
1.52285
 30
0.0
 40
0.00833333
 41
0.00833333
  0
VERTEX
  8
0
 10
3.24035
 20
1.51215
 30
0.0
 40
0.00833333
 41
0.00833333
  0
VERTEX
  8
0
 10
3.23394
 20
1.51215
 30
0.0
 40
0.00833333
 41
0.00833333
  0
VERTEX
  8
0
 10
3.22749
 20
1.51215
 30
0.0
 40
0.00833333
 41
0.00833333
  0
VERTEX
  8
0
 10
3.20811
 20
1.52285
 30
0.0
 40
0.00833333
 41
0.00833333
  0
VERTEX
  8
0
 10
3.19749
 20
1.54221
 30
0.0
 40
0.00833333
 41
0.00833333
  0
VERTEX
  8
0
 10
3.19749
 20
1.54861
 30
0.0
 40
0.00833333
 41
0.00833333
  0
SEQEND
 8
0
  0
POLYLINE
  8
0
 62
     7
 66
     1
 10
0
 20
0
 30
0.0
 70
     1
 40
0
 41
0
  0
VERTEX
  8
0
 10
3.55122
 20
1.54861
 30
0.0
 40
0
 41
0
  0
VERTEX
  8
0
 10
3.55122
 20
1.55231
 30
0.0
 40
0
 41
0
  0
VERTEX
  8
0
 10
3.55729
 20
1.56338
 30
0.0
 40
0
 41
0
  0
VERTEX
  8
0
 10
3.56836
 20
1.56944
 30
0.0
 40
0
 41
0
  0
VERTEX
  8
0
 10
3.57206
 20
1.56944
 30
0.0
 40
0
 41
0
  0
VERTEX
  8
0
 10
3.57568
 20
1.56944
 30
0.0
 40
0
 41
0
  0
VERTEX
  8
0
 10
3.58675
 20
1.56338
 30
0.0
 40
0
 41
0
  0
VERTEX
  8
0
 10
3.59289
 20
1.55231
 30
0.0
 40
0
 41
0
  0
VERTEX
  8
0
 10
3.59289
 20
1.54861
 30
0.0
 40
0
 41
0
  0
VERTEX
  8
0
 10
3.59289
 20
1.54497
 30
0.0
 40
0
 41
0
  0
VERTEX
  8
0
 10
3.58675
 20
1.5339
 30
0.0
 40
0
 41
0
  0
VERTEX
  8
0
 10
3.57568
 20
1.52778
 30
0.0
 40
0
 41
0
  0
VERTEX
  8
0
 10
3.57206
 20
1.52778
 30
0.0
 40
0
 41
0
  0
VERTEX
  8
0
 10
3.56836
 20
1.52778
 30
0.0
 40
0
 41
0
  0
VERTEX
  8
0
 10
3.55729
 20
1.5339
 30
0.0
 40
0
 41
0
  0
VERTEX
  8
0
 10
3.55122
 20
1.54497
 30
0.0
 40
0
 41
0
  0
VERTEX
  8
0
 10
3.55122
 20
1.54861
 30
0.0
 40
0
 41
0
  0
SEQEND
 8
0
  0
POLYLINE
  8
0
 62
     0
 66
     1
 10
0
 20
0
 30
0.0
 70
     1
 40
0.6
 41
0.6
  0
VERTEX
  8
0
 10
3.55122
 20
1.54861
 30
0.0
 40
0.00833333
 41
0.00833333
  0
VERTEX
  8
0
 10
3.55122
 20
1.55231
 30
0.0
 40
0.00833333
 41
0.00833333
  0
VERTEX
  8
0
 10
3.55729
 20
1.56338
 30
0.0
 40
0.00833333
 41
0.00833333
  0
VERTEX
  8
0
 10
3.56836
 20
1.56944
 30
0.0
 40
0.00833333
 41
0.00833333
  0
VERTEX
  8
0
 10
3.57206
 20
1.56944
 30
0.0
 40
0.00833333
 41
0.00833333
  0
VERTEX
  8
0
 10
3.57568
 20
1.56944
 30
0.0
 40
0.00833333
 41
0.00833333
  0
VERTEX
  8
0
 10
3.58675
 20
1.56338
 30
0.0
 40
0.00833333
 41
0.00833333
  0
VERTEX
  8
0
 10
3.59289
 20
1.55231
 30
0.0
 40
0.00833333
 41
0.00833333
  0
VERTEX
  8
0
 10
3.59289
 20
1.54861
 30
0.0
 40
0.00833333
 41
0.00833333
  0
VERTEX
  8
0
 10
3.59289
 20
1.54497
 30
0.0
 40
0.00833333
 41
0.00833333
  0
VERTEX
  8
0
 10
3.58675
 20
1.5339
 30
0.0
 40
0.00833333
 41
0.00833333
  0
VERTEX
  8
0
 10
3.57568
 20
1.52778
 30
0.0
 40
0.00833333
 41
0.00833333
  0
VERTEX
  8
0
 10
3.57206
 20
1.52778
 30
0.0
 40
0.00833333
 41
0.00833333
  0
VERTEX
  8
0
 10
3.56836
 20
1.52778
 30
0.0
 40
0.00833333
 41
0.00833333
  0
VERTEX
  8
0
 10
3.55729
 20
1.5339
 30
0.0
 40
0.00833333
 41
0.00833333
  0
VERTEX
  8
0
 10
3.55122
 20
1.54497
 30
0.0
 40
0.00833333
 41
0.00833333
  0
VERTEX
  8
0
 10
3.55122
 20
1.54861
 30
0.0
 40
0.00833333
 41
0.00833333
  0
SEQEND
 8
0
  0
POLYLINE
  8
0
 62
     7
 66
     1
 10
0
 20
0
 30
0.0
 70
     1
 40
0
 41
0
  0
VERTEX
  8
0
 10
3.21311
 20
1.54861
 30
0.0
 40
0
 41
0
  0
VERTEX
  8
0
 10
3.21311
 20
1.55231
 30
0.0
 40
0
 41
0
  0
VERTEX
  8
0
 10
3.21918
 20
1.56338
 30
0.0
 40
0
 41
0
  0
VERTEX
  8
0
 10
3.23025
 20
1.56944
 30
0.0
 40
0
 41
0
  0
VERTEX
  8
0
 10
3.23394
 20
1.56944
 30
0.0
 40
0
 41
0
  0
VERTEX
  8
0
 10
3.23757
 20
1.56944
 30
0.0
 40
0
 41
0
  0
VERTEX
  8
0
 10
3.24864
 20
1.56338
 30
0.0
 40
0
 41
0
  0
VERTEX
  8
0
 10
3.25478
 20
1.55231
 30
0.0
 40
0
 41
0
  0
VERTEX
  8
0
 10
3.25478
 20
1.54861
 30
0.0
 40
0
 41
0
  0
VERTEX
  8
0
 10
3.25478
 20
1.54497
 30
0.0
 40
0
 41
0
  0
VERTEX
  8
0
 10
3.24864
 20
1.5339
 30
0.0
 40
0
 41
0
  0
VERTEX
  8
0
 10
3.23757
 20
1.52778
 30
0.0
 40
0
 41
0
  0
VERTEX
  8
0
 10
3.23394
 20
1.52778
 30
0.0
 40
0
 41
0
  0
VERTEX
  8
0
 10
3.23025
 20
1.52778
 30
0.0
 40
0
 41
0
  0
VERTEX
  8
0
 10
3.21918
 20
1.5339
 30
0.0
 40
0
 41
0
  0
VERTEX
  8
0
 10
3.21311
 20
1.54497
 30
0.0
 40
0
 41
0
  0
VERTEX
  8
0
 10
3.21311
 20
1.54861
 30
0.0
 40
0
 41
0
  0
SEQEND
 8
0
  0
POLYLINE
  8
0
 62
     0
 66
     1
 10
0
 20
0
 30
0.0
 70
     1
 40
0.6
 41
0.6
  0
VERTEX
  8
0
 10
3.21311
 20
1.54861
 30
0.0
 40
0.00833333
 41
0.00833333
  0
VERTEX
  8
0
 10
3.21311
 20
1.55231
 30
0.0
 40
0.00833333
 41
0.00833333
  0
VERTEX
  8
0
 10
3.21918
 20
1.56338
 30
0.0
 40
0.00833333
 41
0.00833333
  0
VERTEX
  8
0
 10
3.23025
 20
1.56944
 30
0.0
 40
0.00833333
 41
0.00833333
  0
VERTEX
  8
0
 10
3.23394
 20
1.56944
 30
0.0
 40
0.00833333
 41
0.00833333
  0
VERTEX
  8
0
 10
3.23757
 20
1.56944
 30
0.0
 40
0.00833333
 41
0.00833333
  0
VERTEX
  8
0
 10
3.24864
 20
1.56338
 30
0.0
 40
0.00833333
 41
0.00833333
  0
VERTEX
  8
0
 10
3.25478
 20
1.55231
 30
0.0
 40
0.00833333
 41
0.00833333
  0
VERTEX
  8
0
 10
3.25478
 20
1.54861
 30
0.0
 40
0.00833333
 41
0.00833333
  0
VERTEX
  8
0
 10
3.25478
 20
1.54497
 30
0.0
 40
0.00833333
 41
0.00833333
  0
VERTEX
  8
0
 10
3.24864
 20
1.5339
 30
0.0
 40
0.00833333
 41
0.00833333
  0
VERTEX
  8
0
 10
3.23757
 20
1.52778
 30
0.0
 40
0.00833333
 41
0.00833333
  0
VERTEX
  8
0
 10
3.23394
 20
1.52778
 30
0.0
 40
0.00833333
 41
0.00833333
  0
VERTEX
  8
0
 10
3.23025
 20
1.52778
 30
0.0
 40
0.00833333
 41
0.00833333
  0
VERTEX
  8
0
 10
3.21918
 20
1.5339
 30
0.0
 40
0.00833333
 41
0.00833333
  0
VERTEX
  8
0
 10
3.21311
 20
1.54497
 30
0.0
 40
0.00833333
 41
0.00833333
  0
VERTEX
  8
0
 10
3.21311
 20
1.54861
 30
0.0
 40
0.00833333
 41
0.00833333
  0
SEQEND
 8
0
  0
POLYLINE
  8
0
 62
     7
 66
     1
 10
0
 20
0
 30
0.0
 70
     1
 40
0
 41
0
  0
VERTEX
  8
0
 10
3.37321
 20
1.4069
 30
0.0
 40
0
 41
0
  0
VERTEX
  8
0
 10
3.43571
 20
1.4069
 30
0.0
 40
0
 41
0
  0
VERTEX
  8
0
 10
3.43571
 20
1.26107
 30
0.0
 40
0
 41
0
  0
VERTEX
  8
0
 10
3.37321
 20
1.26107
 30
0.0
 40
0
 41
0
  0
VERTEX
  8
0
 10
3.37321
 20
1.4069
 30
0.0
 40
0
 41
0
  0
SEQEND
 8
0
  0
POLYLINE
  8
0
 62
     0
 66
     1
 10
0
 20
0
 30
0.0
 70
     1
 40
0.75
 41
0.75
  0
VERTEX
  8
0
 10
3.37321
 20
1.4069
 30
0.0
 40
0.0104167
 41
0.0104167
  0
VERTEX
  8
0
 10
3.43571
 20
1.4069
 30
0.0
 40
0.0104167
 41
0.0104167
  0
VERTEX
  8
0
 10
3.43571
 20
1.26107
 30
0.0
 40
0.0104167
 41
0.0104167
  0
VERTEX
  8
0
 10
3.37321
 20
1.26107
 30
0.0
 40
0.0104167
 41
0.0104167
  0
VERTEX
  8
0
 10
3.37321
 20
1.4069
 30
0.0
 40
0.0104167
 41
0.0104167
  0
SEQEND
 8
0
  0
POLYLINE
  8
0
 62
     7
 66
     1
 10
0
 20
0
 30
0.0
 70
     1
 40
0
 41
0
  0
VERTEX
  8
0
 10
4.15821
 20
1.81424
 30
0.0
 40
0
 41
0
  0
VERTEX
  8
0
 10
4.67828
 20
1.81424
 30
0.0
 40
0
 41
0
  0
VERTEX
  8
0
 10
4.67828
 20
1.2309
 30
0.0
 40
0
 41
0
  0
VERTEX
  8
0
 10
4.15821
 20
1.2309
 30
0.0
 40
0
 41
0
  0
VERTEX
  8
0
 10
4.15821
 20
1.81424
 30
0.0
 40
0
 41
0
  0
SEQEND
 8
0
  0
POLYLINE
  8
0
 62
     0
 66
     1
 10
0
 20
0
 30
0.0
 70
     1
 40
0.75
 41
0.75
  0
VERTEX
  8
0
 10
4.15821
 20
1.81424
 30
0.0
 40
0.0104167
 41
0.0104167
  0
VERTEX
  8
0
 10
4.67828
 20
1.81424
 30
0.0
 40
0.0104167
 41
0.0104167
  0
VERTEX
  8
0
 10
4.67828
 20
1.2309
 30
0.0
 40
0.0104167
 41
0.0104167
  0
VERTEX
  8
0
 10
4.15821
 20
1.2309
 30
0.0
 40
0.0104167
 41
0.0104167
  0
VERTEX
  8
0
 10
4.15821
 20
1.81424
 30
0.0
 40
0.0104167
 41
0.0104167
  0
SEQEND
 8
0
  0
POLYLINE
  8
0
 62
     7
 66
     1
 10
0
 20
0
 30
0.0
 70
     1
 40
0
 41
0
  0
VERTEX
  8
0
 10
4.46658
 20
1.37674
 30
0.0
 40
0
 41
0
  0
VERTEX
  8
0
 10
4.46658
 20
1.38487
 30
0.0
 40
0
 41
0
  0
VERTEX
  8
0
 10
4.4731
 20
1.40918
 30
0.0
 40
0
 41
0
  0
VERTEX
  8
0
 10
4.49094
 20
1.43565
 30
0.0
 40
0
 41
0
  0
VERTEX
  8
0
 10
4.51742
 20
1.45356
 30
0.0
 40
0
 41
0
  0
VERTEX
  8
0
 10
4.54178
 20
1.46007
 30
0.0
 40
0
 41
0
  0
VERTEX
  8
0
 10
4.54992
 20
1.46007
 30
0.0
 40
0
 41
0
  0
VERTEX
  8
0
 10
4.558
 20
1.46007
 30
0.0
 40
0
 41
0
  0
VERTEX
  8
0
 10
4.58231
 20
1.45356
 30
0.0
 40
0
 41
0
  0
VERTEX
  8
0
 10
4.60883
 20
1.43565
 30
0.0
 40
0
 41
0
  0
VERTEX
  8
0
 10
4.62668
 20
1.40918
 30
0.0
 40
0
 41
0
  0
VERTEX
  8
0
 10
4.63325
 20
1.38487
 30
0.0
 40
0
 41
0
  0
VERTEX
  8
0
 10
4.63325
 20
1.37674
 30
0.0
 40
0
 41
0
  0
VERTEX
  8
0
 10
4.63325
 20
1.36865
 30
0.0
 40
0
 41
0
  0
VERTEX
  8
0
 10
4.62668
 20
1.34429
 30
0.0
 40
0
 41
0
  0
VERTEX
  8
0
 10
4.60883
 20
1.31782
 30
0.0
 40
0
 41
0
  0
VERTEX
  8
0
 10
4.58231
 20
1.29997
 30
0.0
 40
0
 41
0
  0
VERTEX
  8
0
 10
4.558
 20
1.2934
 30
0.0
 40
0
 41
0
  0
VERTEX
  8
0
 10
4.54992
 20
1.2934
 30
0.0
 40
0
 41
0
  0
VERTEX
  8
0
 10
4.54178
 20
1.2934
 30
0.0
 40
0
 41
0
  0
VERTEX
  8
0
 10
4.51742
 20
1.29997
 30
0.0
 40
0
 41
0
  0
VERTEX
  8
0
 10
4.49094
 20
1.31782
 30
0.0
 40
0
 41
0
  0
VERTEX
  8
0
 10
4.4731
 20
1.34429
 30
0.0
 40
0
 41
0
  0
VERTEX
  8
0
 10
4.46658
 20
1.36865
 30
0.0
 40
0
 41
0
  0
VERTEX
  8
0
 10
4.46658
 20
1.37674
 30
0.0
 40
0
 41
0
  0
SEQEND
 8
0
  0
POLYLINE
  8
0
 62
     0
 66
     1
 10
0
 20
0
 30
0.0
 70
     1
 40
0.75
 41
0.75
  0
VERTEX
  8
0
 10
4.46658
 20
1.37674
 30
0.0
 40
0.0104167
 41
0.0104167
  0
VERTEX
  8
0
 10
4.46658
 20
1.38487
 30
0.0
 40
0.0104167
 41
0.0104167
  0
VERTEX
  8
0
 10
4.4731
 20
1.40918
 30
0.0
 40
0.0104167
 41
0.0104167
  0
VERTEX
  8
0
 10
4.49094
 20
1.43565
 30
0.0
 40
0.0104167
 41
0.0104167
  0
VERTEX
  8
0
 10
4.51742
 20
1.45356
 30
0.0
 40
0.0104167
 41
0.0104167
  0
VERTEX
  8
0
 10
4.54178
 20
1.46007
 30
0.0
 40
0.0104167
 41
0.0104167
  0
VERTEX
  8
0
 10
4.54992
 20
1.46007
 30
0.0
 40
0.0104167
 41
0.0104167
  0
VERTEX
  8
0
 10
4.558
 20
1.46007
 30
0.0
 40
0.0104167
 41
0.0104167
  0
VERTEX
  8
0
 10
4.58231
 20
1.45356
 30
0.0
 40
0.0104167
 41
0.0104167
  0
VERTEX
  8
0
 10
4.60883
 20
1.43565
 30
0.0
 40
0.0104167
 41
0.0104167
  0
VERTEX
  8
0
 10
4.62668
 20
1.40918
 30
0.0
 40
0.0104167
 41
0.0104167
  0
VERTEX
  8
0
 10
4.63325
 20
1.38487
 30
0.0
 40
0.0104167
 41
0.0104167
  0
VERTEX
  8
0
 10
4.63325
 20
1.37674
 30
0.0
 40
0.0104167
 41
0.0104167
  0
VERTEX
  8
0
 10
4.63325
 20
1.36865
 30
0.0
 40
0.0104167
 41
0.0104167
  0
VERTEX
  8
0
 10
4.62668
 20
1.34429
 30
0.0
 40
0.0104167
 41
0.0104167
  0
VERTEX
  8
0
 10
4.60883
 20
1.31782
 30
0.0
 40
0.0104167
 41
0.0104167
  0
VERTEX
  8
0
 10
4.58231
 20
1.29997
 30
0.0
 40
0.0104167
 41
0.0104167
  0
VERTEX
  8
0
 10
4.558
 20
1.2934
 30
0.0
 40
0.0104167
 41
0.0104167
  0
VERTEX
  8
0
 10
4.54992
 20
1.2934
 30
0.0
 40
0.0104167
 41
0.0104167
  0
VERTEX
  8
0
 10
4.54178
 20
1.2934
 30
0.0
 40
0.0104167
 41
0.0104167
  0
VERTEX
  8
0
 10
4.51742
 20
1.29997
 30
0.0
 40
0.0104167
 41
0.0104167
  0
VERTEX
  8
0
 10
4.49094
 20
1.31782
 30
0.0
 40
0.0104167
 41
0.0104167
  0
VERTEX
  8
0
 10
4.4731
 20
1.34429
 30
0.0
 40
0.0104167
 41
0.0104167
  0
VERTEX
  8
0
 10
4.46658
 20
1.36865
 30
0.0
 40
0.0104167
 41
0.0104167
  0
VERTEX
  8
0
 10
4.46658
 20
1.37674
 30
0.0
 40
0.0104167
 41
0.0104167
  0
SEQEND
 8
0
  0
POLYLINE
  8
0
 62
     7
 66
     1
 10
0
 20
0
 30
0.0
 70
     1
 40
0
 41
0
  0
VERTEX
  8
0
 10
4.2054
 20
1.37674
 30
0.0
 40
0
 41
0
  0
VERTEX
  8
0
 10
4.2054
 20
1.38487
 30
0.0
 40
0
 41
0
  0
VERTEX
  8
0
 10
4.21192
 20
1.40918
 30
0.0
 40
0
 41
0
  0
VERTEX
  8
0
 10
4.22982
 20
1.43565
 30
0.0
 40
0
 41
0
  0
VERTEX
  8
0
 10
4.25629
 20
1.45356
 30
0.0
 40
0
 41
0
  0
VERTEX
  8
0
 10
4.2806
 20
1.46007
 30
0.0
 40
0
 41
0
  0
VERTEX
  8
0
 10
4.28874
 20
1.46007
 30
0.0
 40
0
 41
0
  0
VERTEX
  8
0
 10
4.29682
 20
1.46007
 30
0.0
 40
0
 41
0
  0
VERTEX
  8
0
 10
4.32113
 20
1.45356
 30
0.0
 40
0
 41
0
  0
VERTEX
  8
0
 10
4.34765
 20
1.43565
 30
0.0
 40
0
 41
0
  0
VERTEX
  8
0
 10
4.3655
 20
1.40918
 30
0.0
 40
0
 41
0
  0
VERTEX
  8
0
 10
4.37207
 20
1.38487
 30
0.0
 40
0
 41
0
  0
VERTEX
  8
0
 10
4.37207
 20
1.37674
 30
0.0
 40
0
 41
0
  0
VERTEX
  8
0
 10
4.37207
 20
1.36865
 30
0.0
 40
0
 41
0
  0
VERTEX
  8
0
 10
4.3655
 20
1.34429
 30
0.0
 40
0
 41
0
  0
VERTEX
  8
0
 10
4.34765
 20
1.31782
 30
0.0
 40
0
 41
0
  0
VERTEX
  8
0
 10
4.32113
 20
1.29997
 30
0.0
 40
0
 41
0
  0
VERTEX
  8
0
 10
4.29682
 20
1.2934
 30
0.0
 40
0
 41
0
  0
VERTEX
  8
0
 10
4.28874
 20
1.2934
 30
0.0
 40
0
 41
0
  0
VERTEX
  8
0
 10
4.2806
 20
1.2934
 30
0.0
 40
0
 41
0
  0
VERTEX
  8
0
 10
4.25629
 20
1.29997
 30
0.0
 40
0
 41
0
  0
VERTEX
  8
0
 10
4.22982
 20
1.31782
 30
0.0
 40
0
 41
0
  0
VERTEX
  8
0
 10
4.21192
 20
1.34429
 30
0.0
 40
0
 41
0
  0
VERTEX
  8
0
 10
4.2054
 20
1.36865
 30
0.0
 40
0
 41
0
  0
VERTEX
  8
0
 10
4.2054
 20
1.37674
 30
0.0
 40
0
 41
0
  0
SEQEND
 8
0
  0
POLYLINE
  8
0
 62
     0
 66
     1
 10
0
 20
0
 30
0.0
 70
     1
 40
0.75
 41
0.75
  0
VERTEX
  8
0
 10
4.2054
 20
1.37674
 30
0.0
 40
0.0104167
 41
0.0104167
  0
VERTEX
  8
0
 10
4.2054
 20
1.38487
 30
0.0
 40
0.0104167
 41
0.0104167
  0
VERTEX
  8
0
 10
4.21192
 20
1.40918
 30
0.0
 40
0.0104167
 41
0.0104167
  0
VERTEX
  8
0
 10
4.22982
 20
1.43565
 30
0.0
 40
0.0104167
 41
0.0104167
  0
VERTEX
  8
0
 10
4.25629
 20
1.45356
 30
0.0
 40
0.0104167
 41
0.0104167
  0
VERTEX
  8
0
 10
4.2806
 20
1.46007
 30
0.0
 40
0.0104167
 41
0.0104167
  0
VERTEX
  8
0
 10
4.28874
 20
1.46007
 30
0.0
 40
0.0104167
 41
0.0104167
  0
VERTEX
  8
0
 10
4.29682
 20
1.46007
 30
0.0
 40
0.0104167
 41
0.0104167
  0
VERTEX
  8
0
 10
4.32113
 20
1.45356
 30
0.0
 40
0.0104167
 41
0.0104167
  0
VERTEX
  8
0
 10
4.34765
 20
1.43565
 30
0.0
 40
0.0104167
 41
0.0104167
  0
VERTEX
  8
0
 10
4.3655
 20
1.40918
 30
0.0
 40
0.0104167
 41
0.0104167
  0
VERTEX
  8
0
 10
4.37207
 20
1.38487
 30
0.0
 40
0.0104167
 41
0.0104167
  0
VERTEX
  8
0
 10
4.37207
 20
1.37674
 30
0.0
 40
0.0104167
 41
0.0104167
  0
VERTEX
  8
0
 10
4.37207
 20
1.36865
 30
0.0
 40
0.0104167
 41
0.0104167
  0
VERTEX
  8
0
 10
4.3655
 20
1.34429
 30
0.0
 40
0.0104167
 41
0.0104167
  0
VERTEX
  8
0
 10
4.34765
 20
1.31782
 30
0.0
 40
0.0104167
 41
0.0104167
  0
VERTEX
  8
0
 10
4.32113
 20
1.29997
 30
0.0
 40
0.0104167
 41
0.0104167
  0
VERTEX
  8
0
 10
4.29682
 20
1.2934
 30
0.0
 40
0.0104167
 41
0.0104167
  0
VERTEX
  8
0
 10
4.28874
 20
1.2934
 30
0.0
 40
0.0104167
 41
0.0104167
  0
VERTEX
  8
0
 10
4.2806
 20
1.2934
 30
0.0
 40
0.0104167
 41
0.0104167
  0
VERTEX
  8
0
 10
4.25629
 20
1.29997
 30
0.0
 40
0.0104167
 41
0.0104167
  0
VERTEX
  8
0
 10
4.22982
 20
1.31782
 30
0.0
 40
0.0104167
 41
0.0104167
  0
VERTEX
  8
0
 10
4.21192
 20
1.34429
 30
0.0
 40
0.0104167
 41
0.0104167
  0
VERTEX
  8
0
 10
4.2054
 20
1.36865
 30
0.0
 40
0.0104167
 41
0.0104167
  0
VERTEX
  8
0
 10
4.2054
 20
1.37674
 30
0.0
 40
0.0104167
 41
0.0104167
  0
SEQEND
 8
0
  0
POLYLINE
  8
0
 62
     7
 66
     1
 10
0
 20
0
 30
0.0
 70
     1
 40
0
 41
0
  0
VERTEX
  8
0
 10
4.46658
 20
1.6684
 30
0.0
 40
0
 41
0
  0
VERTEX
  8
0
 10
4.46658
 20
1.67654
 30
0.0
 40
0
 41
0
  0
VERTEX
  8
0
 10
4.4731
 20
1.70085
 30
0.0
 40
0
 41
0
  0
VERTEX
  8
0
 10
4.49094
 20
1.72732
 30
0.0
 40
0
 41
0
  0
VERTEX
  8
0
 10
4.51742
 20
1.74522
 30
0.0
 40
0
 41
0
  0
VERTEX
  8
0
 10
4.54178
 20
1.75174
 30
0.0
 40
0
 41
0
  0
VERTEX
  8
0
 10
4.54992
 20
1.75174
 30
0.0
 40
0
 41
0
  0
VERTEX
  8
0
 10
4.558
 20
1.75174
 30
0.0
 40
0
 41
0
  0
VERTEX
  8
0
 10
4.58231
 20
1.74522
 30
0.0
 40
0
 41
0
  0
VERTEX
  8
0
 10
4.60883
 20
1.72732
 30
0.0
 40
0
 41
0
  0
VERTEX
  8
0
 10
4.62668
 20
1.70085
 30
0.0
 40
0
 41
0
  0
VERTEX
  8
0
 10
4.63325
 20
1.67654
 30
0.0
 40
0
 41
0
  0
VERTEX
  8
0
 10
4.63325
 20
1.6684
 30
0.0
 40
0
 41
0
  0
VERTEX
  8
0
 10
4.63325
 20
1.66032
 30
0.0
 40
0
 41
0
  0
VERTEX
  8
0
 10
4.62668
 20
1.63596
 30
0.0
 40
0
 41
0
  0
VERTEX
  8
0
 10
4.60883
 20
1.60949
 30
0.0
 40
0
 41
0
  0
VERTEX
  8
0
 10
4.58231
 20
1.59164
 30
0.0
 40
0
 41
0
  0
VERTEX
  8
0
 10
4.558
 20
1.58507
 30
0.0
 40
0
 41
0
  0
VERTEX
  8
0
 10
4.54992
 20
1.58507
 30
0.0
 40
0
 41
0
  0
VERTEX
  8
0
 10
4.54178
 20
1.58507
 30
0.0
 40
0
 41
0
  0
VERTEX
  8
0
 10
4.51742
 20
1.59164
 30
0.0
 40
0
 41
0
  0
VERTEX
  8
0
 10
4.49094
 20
1.60949
 30
0.0
 40
0
 41
0
  0
VERTEX
  8
0
 10
4.4731
 20
1.63596
 30
0.0
 40
0
 41
0
  0
VERTEX
  8
0
 10
4.46658
 20
1.66032
 30
0.0
 40
0
 41
0
  0
VERTEX
  8
0
 10
4.46658
 20
1.6684
 30
0.0
 40
0
 41
0
  0
SEQEND
 8
0
  0
POLYLINE
  8
0
 62
     0
 66
     1
 10
0
 20
0
 30
0.0
 70
     1
 40
0.75
 41
0.75
  0
VERTEX
  8
0
 10
4.46658
 20
1.6684
 30
0.0
 40
0.0104167
 41
0.0104167
  0
VERTEX
  8
0
 10
4.46658
 20
1.67654
 30
0.0
 40
0.0104167
 41
0.0104167
  0
VERTEX
  8
0
 10
4.4731
 20
1.70085
 30
0.0
 40
0.0104167
 41
0.0104167
  0
VERTEX
  8
0
 10
4.49094
 20
1.72732
 30
0.0
 40
0.0104167
 41
0.0104167
  0
VERTEX
  8
0
 10
4.51742
 20
1.74522
 30
0.0
 40
0.0104167
 41
0.0104167
  0
VERTEX
  8
0
 10
4.54178
 20
1.75174
 30
0.0
 40
0.0104167
 41
0.0104167
  0
VERTEX
  8
0
 10
4.54992
 20
1.75174
 30
0.0
 40
0.0104167
 41
0.0104167
  0
VERTEX
  8
0
 10
4.558
 20
1.75174
 30
0.0
 40
0.0104167
 41
0.0104167
  0
VERTEX
  8
0
 10
4.58231
 20
1.74522
 30
0.0
 40
0.0104167
 41
0.0104167
  0
VERTEX
  8
0
 10
4.60883
 20
1.72732
 30
0.0
 40
0.0104167
 41
0.0104167
  0
VERTEX
  8
0
 10
4.62668
 20
1.70085
 30
0.0
 40
0.0104167
 41
0.0104167
  0
VERTEX
  8
0
 10
4.63325
 20
1.67654
 30
0.0
 40
0.0104167
 41
0.0104167
  0
VERTEX
  8
0
 10
4.63325
 20
1.6684
 30
0.0
 40
0.0104167
 41
0.0104167
  0
VERTEX
  8
0
 10
4.63325
 20
1.66032
 30
0.0
 40
0.0104167
 41
0.0104167
  0
VERTEX
  8
0
 10
4.62668
 20
1.63596
 30
0.0
 40
0.0104167
 41
0.0104167
  0
VERTEX
  8
0
 10
4.60883
 20
1.60949
 30
0.0
 40
0.0104167
 41
0.0104167
  0
VERTEX
  8
0
 10
4.58231
 20
1.59164
 30
0.0
 40
0.0104167
 41
0.0104167
  0
VERTEX
  8
0
 10
4.558
 20
1.58507
 30
0.0
 40
0.0104167
 41
0.0104167
  0
VERTEX
  8
0
 10
4.54992
 20
1.58507
 30
0.0
 40
0.0104167
 41
0.0104167
  0
VERTEX
  8
0
 10
4.54178
 20
1.58507
 30
0.0
 40
0.0104167
 41
0.0104167
  0
VERTEX
  8
0
 10
4.51742
 20
1.59164
 30
0.0
 40
0.0104167
 41
0.0104167
  0
VERTEX
  8
0
 10
4.49094
 20
1.60949
 30
0.0
 40
0.0104167
 41
0.0104167
  0
VERTEX
  8
0
 10
4.4731
 20
1.63596
 30
0.0
 40
0.0104167
 41
0.0104167
  0
VERTEX
  8
0
 10
4.46658
 20
1.66032
 30
0.0
 40
0.0104167
 41
0.0104167
  0
VERTEX
  8
0
 10
4.46658
 20
1.6684
 30
0.0
 40
0.0104167
 41
0.0104167
  0
SEQEND
 8
0
  0
POLYLINE
  8
0
 62
     7
 66
     1
 10
0
 20
0
 30
0.0
 70
     1
 40
0
 41
0
  0
VERTEX
  8
0
 10
4.2054
 20
1.6684
 30
0.0
 40
0
 41
0
  0
VERTEX
  8
0
 10
4.2054
 20
1.67654
 30
0.0
 40
0
 41
0
  0
VERTEX
  8
0
 10
4.21192
 20
1.70085
 30
0.0
 40
0
 41
0
  0
VERTEX
  8
0
 10
4.22982
 20
1.72732
 30
0.0
 40
0
 41
0
  0
VERTEX
  8
0
 10
4.25629
 20
1.74522
 30
0.0
 40
0
 41
0
  0
VERTEX
  8
0
 10
4.2806
 20
1.75174
 30
0.0
 40
0
 41
0
  0
VERTEX
  8
0
 10
4.28874
 20
1.75174
 30
0.0
 40
0
 41
0
  0
VERTEX
  8
0
 10
4.29682
 20
1.75174
 30
0.0
 40
0
 41
0
  0
VERTEX
  8
0
 10
4.32113
 20
1.74522
 30
0.0
 40
0
 41
0
  0
VERTEX
  8
0
 10
4.34765
 20
1.72732
 30
0.0
 40
0
 41
0
  0
VERTEX
  8
0
 10
4.3655
 20
1.70085
 30
0.0
 40
0
 41
0
  0
VERTEX
  8
0
 10
4.37207
 20
1.67654
 30
0.0
 40
0
 41
0
  0
VERTEX
  8
0
 10
4.37207
 20
1.6684
 30
0.0
 40
0
 41
0
  0
VERTEX
  8
0
 10
4.37207
 20
1.66032
 30
0.0
 40
0
 41
0
  0
VERTEX
  8
0
 10
4.3655
 20
1.63596
 30
0.0
 40
0
 41
0
  0
VERTEX
  8
0
 10
4.34765
 20
1.60949
 30
0.0
 40
0
 41
0
  0
VERTEX
  8
0
 10
4.32113
 20
1.59164
 30
0.0
 40
0
 41
0
  0
VERTEX
  8
0
 10
4.29682
 20
1.58507
 30
0.0
 40
0
 41
0
  0
VERTEX
  8
0
 10
4.28874
 20
1.58507
 30
0.0
 40
0
 41
0
  0
VERTEX
  8
0
 10
4.2806
 20
1.58507
 30
0.0
 40
0
 41
0
  0
VERTEX
  8
0
 10
4.25629
 20
1.59164
 30
0.0
 40
0
 41
0
  0
VERTEX
  8
0
 10
4.22982
 20
1.60949
 30
0.0
 40
0
 41
0
  0
VERTEX
  8
0
 10
4.21192
 20
1.63596
 30
0.0
 40
0
 41
0
  0
VERTEX
  8
0
 10
4.2054
 20
1.66032
 30
0.0
 40
0
 41
0
  0
VERTEX
  8
0
 10
4.2054
 20
1.6684
 30
0.0
 40
0
 41
0
  0
SEQEND
 8
0
  0
POLYLINE
  8
0
 62
     0
 66
     1
 10
0
 20
0
 30
0.0
 70
     1
 40
0.75
 41
0.75
  0
VERTEX
  8
0
 10
4.2054
 20
1.6684
 30
0.0
 40
0.0104167
 41
0.0104167
  0
VERTEX
  8
0
 10
4.2054
 20
1.67654
 30
0.0
 40
0.0104167
 41
0.0104167
  0
VERTEX
  8
0
 10
4.21192
 20
1.70085
 30
0.0
 40
0.0104167
 41
0.0104167
  0
VERTEX
  8
0
 10
4.22982
 20
1.72732
 30
0.0
 40
0.0104167
 41
0.0104167
  0
VERTEX
  8
0
 10
4.25629
 20
1.74522
 30
0.0
 40
0.0104167
 41
0.0104167
  0
VERTEX
  8
0
 10
4.2806
 20
1.75174
 30
0.0
 40
0.0104167
 41
0.0104167
  0
VERTEX
  8
0
 10
4.28874
 20
1.75174
 30
0.0
 40
0.0104167
 41
0.0104167
  0
VERTEX
  8
0
 10
4.29682
 20
1.75174
 30
0.0
 40
0.0104167
 41
0.0104167
  0
VERTEX
  8
0
 10
4.32113
 20
1.74522
 30
0.0
 40
0.0104167
 41
0.0104167
  0
VERTEX
  8
0
 10
4.34765
 20
1.72732
 30
0.0
 40
0.0104167
 41
0.0104167
  0
VERTEX
  8
0
 10
4.3655
 20
1.70085
 30
0.0
 40
0.0104167
 41
0.0104167
  0
VERTEX
  8
0
 10
4.37207
 20
1.67654
 30
0.0
 40
0.0104167
 41
0.0104167
  0
VERTEX
  8
0
 10
4.37207
 20
1.6684
 30
0.0
 40
0.0104167
 41
0.0104167
  0
VERTEX
  8
0
 10
4.37207
 20
1.66032
 30
0.0
 40
0.0104167
 41
0.0104167
  0
VERTEX
  8
0
 10
4.3655
 20
1.63596
 30
0.0
 40
0.0104167
 41
0.0104167
  0
VERTEX
  8
0
 10
4.34765
 20
1.60949
 30
0.0
 40
0.0104167
 41
0.0104167
  0
VERTEX
  8
0
 10
4.32113
 20
1.59164
 30
0.0
 40
0.0104167
 41
0.0104167
  0
VERTEX
  8
0
 10
4.29682
 20
1.58507
 30
0.0
 40
0.0104167
 41
0.0104167
  0
VERTEX
  8
0
 10
4.28874
 20
1.58507
 30
0.0
 40
0.0104167
 41
0.0104167
  0
VERTEX
  8
0
 10
4.2806
 20
1.58507
 30
0.0
 40
0.0104167
 41
0.0104167
  0
VERTEX
  8
0
 10
4.25629
 20
1.59164
 30
0.0
 40
0.0104167
 41
0.0104167
  0
VERTEX
  8
0
 10
4.22982
 20
1.60949
 30
0.0
 40
0.0104167
 41
0.0104167
  0
VERTEX
  8
0
 10
4.21192
 20
1.63596
 30
0.0
 40
0.0104167
 41
0.0104167
  0
VERTEX
  8
0
 10
4.2054
 20
1.66032
 30
0.0
 40
0.0104167
 41
0.0104167
  0
VERTEX
  8
0
 10
4.2054
 20
1.6684
 30
0.0
 40
0.0104167
 41
0.0104167
  0
SEQEND
 8
0
  0
POLYLINE
  8
0
 62
     7
 66
     1
 10
0
 20
0
 30
0.0
 70
     1
 40
0
 41
0
  0
VERTEX
  8
0
 10
4.99474
 20
1.83556
 30
0.0
 40
0
 41
0
  0
VERTEX
  8
0
 10
5.47819
 20
1.83556
 30
0.0
 40
0
 41
0
  0
VERTEX
  8
0
 10
5.47819
 20
1.21056
 30
0.0
 40
0
 41
0
  0
VERTEX
  8
0
 10
4.99474
 20
1.21056
 30
0.0
 40
0
 41
0
  0
VERTEX
  8
0
 10
4.99474
 20
1.83556
 30
0.0
 40
0
 41
0
  0
SEQEND
 8
0
  0
POLYLINE
  8
0
 62
     0
 66
     1
 10
0
 20
0
 30
0.0
 70
     1
 40
0.580125
 41
0.580125
  0
VERTEX
  8
0
 10
4.99474
 20
1.83556
 30
0.0
 40
0.00805729
 41
0.00805729
  0
VERTEX
  8
0
 10
5.47819
 20
1.83556
 30
0.0
 40
0.00805729
 41
0.00805729
  0
VERTEX
  8
0
 10
5.47819
 20
1.21056
 30
0.0
 40
0.00805729
 41
0.00805729
  0
VERTEX
  8
0
 10
4.99474
 20
1.21056
 30
0.0
 40
0.00805729
 41
0.00805729
  0
VERTEX
  8
0
 10
4.99474
 20
1.83556
 30
0.0
 40
0.00805729
 41
0.00805729
  0
SEQEND
 8
0
  0
POLYLINE
  8
0
 62
     0
 66
     1
 10
0
 20
0
 30
0.0
 40
0.580125
 41
0.580125
  0
VERTEX
  8
0
 10
5.47819
 20
1.21056
 30
0.0
 40
0.00805729
 41
0.00805729
  0
VERTEX
  8
0
 10
5.23568
 20
1.62511
 30
0.0
 40
0.00805729
 41
0.00805729
  0
VERTEX
  8
0
 10
5.23568
 20
1.4126
 30
0.0
 40
0.00805729
 41
0.00805729
  0
VERTEX
  8
0
 10
4.99556
 20
1.83556
 30
0.0
 40
0.00805729
 41
0.00805729
  0
SEQEND
 8
0
  0
POLYLINE
  8
0
 62
     0
 66
     1
 10
0
 20
0
 30
0.0
 70
     1
 40
0.75
 41
0.75
  0
VERTEX
  8
0
 10
2.56771
 20
1.52306
 30
0.0
 40
0.0104167
 41
0.0104167
  0
VERTEX
  8
0
 10
5.49072
 20
1.52306
 30
0.0
 40
0.0104167
 41
0.0104167
  0
VERTEX
  8
0
 10
5.49072
 20
1.21056
 30
0.0
 40
0.0104167
 41
0.0104167
  0
VERTEX
  8
0
 10
2.56771
 20
1.21056
 30
0.0
 40
0.0104167
 41
0.0104167
  0
VERTEX
  8
0
 10
2.56771
 20
1.52306
 30
0.0
 40
0.0104167
 41
0.0104167
  0
SEQEND
 8
0
  0
POLYLINE
  8
0
 62
     7
 66
     1
 10
0
 20
0
 30
0.0
 70
     1
 40
0
 41
0
  0
VERTEX
  8
0
 10
4.95258
 20
4.22006
 30
0.0
 40
0
 41
0
  0
VERTEX
  8
0
 10
4.15306
 20
4.22108
 30
0.0
 40
0
 41
0
  0
VERTEX
  8
0
 10
4.15397
 20
3.38021
 30
0.0
 40
0
 41
0
  0
VERTEX
  8
0
 10
4.55567
 20
3.38118
 30
0.0
 40
0
 41
0
  0
VERTEX
  8
0
 10
4.58306
 20
3.38178
 30
0.0
 40
0
 41
0
  0
VERTEX
  8
0
 10
4.66525
 20
3.39079
 30
0.0
 40
0
 41
0
  0
VERTEX
  8
0
 10
4.75293
 20
3.41379
 30
0.0
 40
0
 41
0
  0
VERTEX
  8
0
 10
4.82096
 20
3.44954
 30
0.0
 40
0
 41
0
  0
VERTEX
  8
0
 10
4.87181
 20
3.49729
 30
0.0
 40
0
 41
0
  0
VERTEX
  8
0
 10
4.90767
 20
3.55632
 30
0.0
 40
0
 41
0
  0
VERTEX
  8
0
 10
4.93088
 20
3.62587
 30
0.0
 40
0
 41
0
  0
VERTEX
  8
0
 10
4.94385
 20
3.70524
 30
0.0
 40
0
 41
0
  0
VERTEX
  8
0
 10
4.9484
 20
3.7716
 30
0.0
 40
0
 41
0
  0
VERTEX
  8
0
 10
4.94883
 20
3.79368
 30
0.0
 40
0
 41
0
  0
VERTEX
  8
0
 10
4.95258
 20
4.22006
 30
0.0
 40
0
 41
0
  0
SEQEND
 8
0
  0
POLYLINE
  8
0
 62
     0
 66
     1
 10
0
 20
0
 30
0.0
 70
     1
 40
0.67725
 41
0.67725
  0
VERTEX
  8
0
 10
4.95258
 20
4.22006
 30
0.0
 40
0.00940625
 41
0.00940625
  0
VERTEX
  8
0
 10
4.15306
 20
4.22108
 30
0.0
 40
0.00940625
 41
0.00940625
  0
VERTEX
  8
0
 10
4.15397
 20
3.38021
 30
0.0
 40
0.00940625
 41
0.00940625
  0
VERTEX
  8
0
 10
4.55567
 20
3.38118
 30
0.0
 40
0.00940625
 41
0.00940625
  0
VERTEX
  8
0
 10
4.58306
 20
3.38178
 30
0.0
 40
0.00940625
 41
0.00940625
  0
VERTEX
  8
0
 10
4.66525
 20
3.39079
 30
0.0
 40
0.00940625
 41
0.00940625
  0
VERTEX
  8
0
 10
4.75293
 20
3.41379
 30
0.0
 40
0.00940625
 41
0.00940625
  0
VERTEX
  8
0
 10
4.82096
 20
3.44954
 30
0.0
 40
0.00940625
 41
0.00940625
  0
VERTEX
  8
0
 10
4.87181
 20
3.49729
 30
0.0
 40
0.00940625
 41
0.00940625
  0
VERTEX
  8
0
 10
4.90767
 20
3.55632
 30
0.0
 40
0.00940625
 41
0.00940625
  0
VERTEX
  8
0
 10
4.93088
 20
3.62587
 30
0.0
 40
0.00940625
 41
0.00940625
  0
VERTEX
  8
0
 10
4.94385
 20
3.70524
 30
0.0
 40
0.00940625
 41
0.00940625
  0
VERTEX
  8
0
 10
4.9484
 20
3.7716
 30
0.0
 40
0.00940625
 41
0.00940625
  0
VERTEX
  8
0
 10
4.94883
 20
3.79368
 30
0.0
 40
0.00940625
 41
0.00940625
  0
VERTEX
  8
0
 10
4.95258
 20
4.22006
 30
0.0
 40
0.00940625
 41
0.00940625
  0
SEQEND
 8
0
  0
POLYLINE
  8
0
 62
     7
 66
     1
 10
0
 20
0
 30
0.0
 70
     1
 40
0
 41
0
  0
VERTEX
  8
0
 10
4.55469
 20
3.38217
 30
0.0
 40
0
 41
0
  0
VERTEX
  8
0
 10
4.55469
 20
3.39703
 30
0.0
 40
0
 41
0
  0
VERTEX
  8
0
 10
4.16808
 20
3.396
 30
0.0
 40
0
 41
0
  0
VERTEX
  8
0
 10
4.16715
 20
4.20719
 30
0.0
 40
0
 41
0
  0
VERTEX
  8
0
 10
4.93756
 20
4.20622
 30
0.0
 40
0
 41
0
  0
VERTEX
  8
0
 10
4.93375
 20
3.79471
 30
0.0
 40
0
 41
0
  0
VERTEX
  8
0
 10
4.94883
 20
3.79471
 30
0.0
 40
0
 41
0
  0
SEQEND
 8
0
  0
POLYLINE
  8
0
 62
     0
 66
     1
 10
0
 20
0
 30
0.0
 40
0.67725
 41
0.67725
  0
VERTEX
  8
0
 10
4.55469
 20
3.38217
 30
0.0
 40
0.00940625
 41
0.00940625
  0
VERTEX
  8
0
 10
4.55469
 20
3.39703
 30
0.0
 40
0.00940625
 41
0.00940625
  0
VERTEX
  8
0
 10
4.16808
 20
3.396
 30
0.0
 40
0.00940625
 41
0.00940625
  0
VERTEX
  8
0
 10
4.16715
 20
4.20719
 30
0.0
 40
0.00940625
 41
0.00940625
  0
VERTEX
  8
0
 10
4.93756
 20
4.20622
 30
0.0
 40
0.00940625
 41
0.00940625
  0
VERTEX
  8
0
 10
4.93375
 20
3.79471
 30
0.0
 40
0.00940625
 41
0.00940625
  0
VERTEX
  8
0
 10
4.94883
 20
3.79471
 30
0.0
 40
0.00940625
 41
0.00940625
  0
SEQEND
 8
0
  0
POLYLINE
  8
0
 62
     7
 66
     1
 10
0
 20
0
 30
0.0
 70
     1
 40
0
 41
0
  0
VERTEX
  8
0
 10
4.37761
 20
4.21588
 30
0.0
 40
0
 41
0
  0
VERTEX
  8
0
 10
4.49431
 20
4.21588
 30
0.0
 40
0
 41
0
  0
VERTEX
  8
0
 10
4.49431
 20
4.15229
 30
0.0
 40
0
 41
0
  0
VERTEX
  8
0
 10
4.37761
 20
4.15229
 30
0.0
 40
0
 41
0
  0
VERTEX
  8
0
 10
4.37761
 20
4.21588
 30
0.0
 40
0
 41
0
  0
SEQEND
 8
0
  0
POLYLINE
  8
0
 62
     0
 66
     1
 10
0
 20
0
 30
0.0
 70
     1
 40
0.75
 41
0.75
  0
VERTEX
  8
0
 10
4.37761
 20
4.21588
 30
0.0
 40
0.0104167
 41
0.0104167
  0
VERTEX
  8
0
 10
4.49431
 20
4.21588
 30
0.0
 40
0.0104167
 41
0.0104167
  0
VERTEX
  8
0
 10
4.49431
 20
4.15229
 30
0.0
 40
0.0104167
 41
0.0104167
  0
VERTEX
  8
0
 10
4.37761
 20
4.15229
 30
0.0
 40
0.0104167
 41
0.0104167
  0
VERTEX
  8
0
 10
4.37761
 20
4.21588
 30
0.0
 40
0.0104167
 41
0.0104167
  0
SEQEND
 8
0
  0
POLYLINE
  8
0
 62
     7
 66
     1
 10
0
 20
0
 30
0.0
 70
     1
 40
0
 41
0
  0
VERTEX
  8
0
 10
4.5224
 20
4.21588
 30
0.0
 40
0
 41
0
  0
VERTEX
  8
0
 10
4.63911
 20
4.21588
 30
0.0
 40
0
 41
0
  0
VERTEX
  8
0
 10
4.63911
 20
4.15229
 30
0.0
 40
0
 41
0
  0
VERTEX
  8
0
 10
4.5224
 20
4.15229
 30
0.0
 40
0
 41
0
  0
VERTEX
  8
0
 10
4.5224
 20
4.21588
 30
0.0
 40
0
 41
0
  0
SEQEND
 8
0
  0
POLYLINE
  8
0
 62
     0
 66
     1
 10
0
 20
0
 30
0.0
 70
     1
 40
0.75
 41
0.75
  0
VERTEX
  8
0
 10
4.5224
 20
4.21588
 30
0.0
 40
0.0104167
 41
0.0104167
  0
VERTEX
  8
0
 10
4.63911
 20
4.21588
 30
0.0
 40
0.0104167
 41
0.0104167
  0
VERTEX
  8
0
 10
4.63911
 20
4.15229
 30
0.0
 40
0.0104167
 41
0.0104167
  0
VERTEX
  8
0
 10
4.5224
 20
4.15229
 30
0.0
 40
0.0104167
 41
0.0104167
  0
VERTEX
  8
0
 10
4.5224
 20
4.21588
 30
0.0
 40
0.0104167
 41
0.0104167
  0
SEQEND
 8
0
  0
POLYLINE
  8
0
 62
     7
 66
     1
 10
0
 20
0
 30
0.0
 70
     1
 40
0
 41
0
  0
VERTEX
  8
0
 10
4.63803
 20
4.21588
 30
0.0
 40
0
 41
0
  0
VERTEX
  8
0
 10
4.67344
 20
4.21588
 30
0.0
 40
0
 41
0
  0
VERTEX
  8
0
 10
4.67344
 20
4.15229
 30
0.0
 40
0
 41
0
  0
VERTEX
  8
0
 10
4.63803
 20
4.15229
 30
0.0
 40
0
 41
0
  0
VERTEX
  8
0
 10
4.63803
 20
4.21588
 30
0.0
 40
0
 41
0
  0
SEQEND
 8
0
  0
POLYLINE
  8
0
 62
     0
 66
     1
 10
0
 20
0
 30
0.0
 70
     1
 40
0.75
 41
0.75
  0
VERTEX
  8
0
 10
4.63803
 20
4.21588
 30
0.0
 40
0.0104167
 41
0.0104167
  0
VERTEX
  8
0
 10
4.67344
 20
4.21588
 30
0.0
 40
0.0104167
 41
0.0104167
  0
VERTEX
  8
0
 10
4.67344
 20
4.15229
 30
0.0
 40
0.0104167
 41
0.0104167
  0
VERTEX
  8
0
 10
4.63803
 20
4.15229
 30
0.0
 40
0.0104167
 41
0.0104167
  0
VERTEX
  8
0
 10
4.63803
 20
4.21588
 30
0.0
 40
0.0104167
 41
0.0104167
  0
SEQEND
 8
0
  0
POLYLINE
  8
0
 62
     7
 66
     1
 10
0
 20
0
 30
0.0
 70
     1
 40
0
 41
0
  0
VERTEX
  8
0
 10
4.34429
 20
4.21588
 30
0.0
 40
0
 41
0
  0
VERTEX
  8
0
 10
4.37761
 20
4.21588
 30
0.0
 40
0
 41
0
  0
VERTEX
  8
0
 10
4.37761
 20
4.15229
 30
0.0
 40
0
 41
0
  0
VERTEX
  8
0
 10
4.34429
 20
4.15229
 30
0.0
 40
0
 41
0
  0
VERTEX
  8
0
 10
4.34429
 20
4.21588
 30
0.0
 40
0
 41
0
  0
SEQEND
 8
0
  0
POLYLINE
  8
0
 62
     0
 66
     1
 10
0
 20
0
 30
0.0
 70
     1
 40
0.75
 41
0.75
  0
VERTEX
  8
0
 10
4.34429
 20
4.21588
 30
0.0
 40
0.0104167
 41
0.0104167
  0
VERTEX
  8
0
 10
4.37761
 20
4.21588
 30
0.0
 40
0.0104167
 41
0.0104167
  0
VERTEX
  8
0
 10
4.37761
 20
4.15229
 30
0.0
 40
0.0104167
 41
0.0104167
  0
VERTEX
  8
0
 10
4.34429
 20
4.15229
 30
0.0
 40
0.0104167
 41
0.0104167
  0
VERTEX
  8
0
 10
4.34429
 20
4.21588
 30
0.0
 40
0.0104167
 41
0.0104167
  0
SEQEND
 8
0
  0
POLYLINE
  8
0
 62
     7
 66
     1
 10
0
 20
0
 30
0.0
 70
     1
 40
0
 41
0
  0
VERTEX
  8
0
 10
4.49431
 20
4.13254
 30
0.0
 40
0
 41
0
  0
VERTEX
  8
0
 10
4.49431
 20
4.12625
 30
0.0
 40
0
 41
0
  0
VERTEX
  8
0
 10
4.49061
 20
4.10732
 30
0.0
 40
0
 41
0
  0
VERTEX
  8
0
 10
4.48074
 20
4.0849
 30
0.0
 40
0
 41
0
  0
VERTEX
  8
0
 10
4.47765
 20
4.08046
 30
0.0
 40
0
 41
0
  0
VERTEX
  8
0
 10
4.47657
 20
4.07889
 30
0.0
 40
0
 41
0
  0
VERTEX
  8
0
 10
4.46642
 20
4.06429
 30
0.0
 40
0
 41
0
  0
VERTEX
  8
0
 10
4.46615
 20
4.06272
 30
0.0
 40
0
 41
0
  0
VERTEX
  8
0
 10
4.4656
 20
4.0599
 30
0.0
 40
0
 41
0
  0
VERTEX
  8
0
 10
4.46978
 20
4.04335
 30
0.0
 40
0
 41
0
  0
VERTEX
  8
0
 10
4.48643
 20
4.03049
 30
0.0
 40
0
 41
0
  0
VERTEX
  8
0
 10
4.49219
 20
4.0294
 30
0.0
 40
0
 41
0
  0
VERTEX
  8
0
 10
4.49349
 20
4.02919
 30
0.0
 40
0
 41
0
  0
VERTEX
  8
0
 10
4.50504
 20
4.02838
 30
0.0
 40
0
 41
0
  0
VERTEX
  8
0
 10
4.5089
 20
4.02838
 30
0.0
 40
0
 41
0
  0
VERTEX
  8
0
 10
4.50782
 20
4.02838
 30
0.0
 40
0
 41
0
  0
VERTEX
  8
0
 10
4.51199
 20
4.02838
 30
0.0
 40
0
 41
0
  0
VERTEX
  8
0
 10
4.52322
 20
4.02919
 30
0.0
 40
0
 41
0
  0
VERTEX
  8
0
 10
4.52453
 20
4.0294
 30
0.0
 40
0
 41
0
  0
VERTEX
  8
0
 10
4.53022
 20
4.03049
 30
0.0
 40
0
 41
0
  0
VERTEX
  8
0
 10
4.54688
 20
4.04335
 30
0.0
 40
0
 41
0
  0
VERTEX
  8
0
 10
4.55106
 20
4.0599
 30
0.0
 40
0
 41
0
  0
VERTEX
  8
0
 10
4.55057
 20
4.06272
 30
0.0
 40
0
 41
0
  0
VERTEX
  8
0
 10
4.55029
 20
4.06429
 30
0.0
 40
0
 41
0
  0
VERTEX
  8
0
 10
4.5401
 20
4.07889
 30
0.0
 40
0
 41
0
  0
VERTEX
  8
0
 10
4.53907
 20
4.08046
 30
0.0
 40
0
 41
0
  0
VERTEX
  8
0
 10
4.53592
 20
4.0849
 30
0.0
 40
0
 41
0
  0
VERTEX
  8
0
 10
4.52604
 20
4.10732
 30
0.0
 40
0
 41
0
  0
VERTEX
  8
0
 10
4.5224
 20
4.12625
 30
0.0
 40
0
 41
0
  0
VERTEX
  8
0
 10
4.5224
 20
4.13254
 30
0.0
 40
0
 41
0
  0
SEQEND
 8
0
  0
POLYLINE
  8
0
 62
     0
 66
     1
 10
0
 20
0
 30
0.0
 40
0.75
 41
0.75
  0
VERTEX
  8
0
 10
4.49431
 20
4.13254
 30
0.0
 40
0.0104167
 41
0.0104167
  0
VERTEX
  8
0
 10
4.49431
 20
4.12625
 30
0.0
 40
0.0104167
 41
0.0104167
  0
VERTEX
  8
0
 10
4.49061
 20
4.10732
 30
0.0
 40
0.0104167
 41
0.0104167
  0
VERTEX
  8
0
 10
4.48074
 20
4.0849
 30
0.0
 40
0.0104167
 41
0.0104167
  0
VERTEX
  8
0
 10
4.47765
 20
4.08046
 30
0.0
 40
0.0104167
 41
0.0104167
  0
VERTEX
  8
0
 10
4.47657
 20
4.07889
 30
0.0
 40
0.0104167
 41
0.0104167
  0
VERTEX
  8
0
 10
4.46642
 20
4.06429
 30
0.0
 40
0.0104167
 41
0.0104167
  0
VERTEX
  8
0
 10
4.46615
 20
4.06272
 30
0.0
 40
0.0104167
 41
0.0104167
  0
VERTEX
  8
0
 10
4.4656
 20
4.0599
 30
0.0
 40
0.0104167
 41
0.0104167
  0
VERTEX
  8
0
 10
4.46978
 20
4.04335
 30
0.0
 40
0.0104167
 41
0.0104167
  0
VERTEX
  8
0
 10
4.48643
 20
4.03049
 30
0.0
 40
0.0104167
 41
0.0104167
  0
VERTEX
  8
0
 10
4.49219
 20
4.0294
 30
0.0
 40
0.0104167
 41
0.0104167
  0
VERTEX
  8
0
 10
4.49349
 20
4.02919
 30
0.0
 40
0.0104167
 41
0.0104167
  0
VERTEX
  8
0
 10
4.50504
 20
4.02838
 30
0.0
 40
0.0104167
 41
0.0104167
  0
VERTEX
  8
0
 10
4.5089
 20
4.02838
 30
0.0
 40
0.0104167
 41
0.0104167
  0
VERTEX
  8
0
 10
4.50782
 20
4.02838
 30
0.0
 40
0.0104167
 41
0.0104167
  0
VERTEX
  8
0
 10
4.51199
 20
4.02838
 30
0.0
 40
0.0104167
 41
0.0104167
  0
VERTEX
  8
0
 10
4.52322
 20
4.02919
 30
0.0
 40
0.0104167
 41
0.0104167
  0
VERTEX
  8
0
 10
4.52453
 20
4.0294
 30
0.0
 40
0.0104167
 41
0.0104167
  0
VERTEX
  8
0
 10
4.53022
 20
4.03049
 30
0.0
 40
0.0104167
 41
0.0104167
  0
VERTEX
  8
0
 10
4.54688
 20
4.04335
 30
0.0
 40
0.0104167
 41
0.0104167
  0
VERTEX
  8
0
 10
4.55106
 20
4.0599
 30
0.0
 40
0.0104167
 41
0.0104167
  0
VERTEX
  8
0
 10
4.55057
 20
4.06272
 30
0.0
 40
0.0104167
 41
0.0104167
  0
VERTEX
  8
0
 10
4.55029
 20
4.06429
 30
0.0
 40
0.0104167
 41
0.0104167
  0
VERTEX
  8
0
 10
4.5401
 20
4.07889
 30
0.0
 40
0.0104167
 41
0.0104167
  0
VERTEX
  8
0
 10
4.53907
 20
4.08046
 30
0.0
 40
0.0104167
 41
0.0104167
  0
VERTEX
  8
0
 10
4.53592
 20
4.0849
 30
0.0
 40
0.0104167
 41
0.0104167
  0
VERTEX
  8
0
 10
4.52604
 20
4.10732
 30
0.0
 40
0.0104167
 41
0.0104167
  0
VERTEX
  8
0
 10
4.5224
 20
4.12625
 30
0.0
 40
0.0104167
 41
0.0104167
  0
VERTEX
  8
0
 10
4.5224
 20
4.13254
 30
0.0
 40
0.0104167
 41
0.0104167
  0
SEQEND
 8
0
  0
POLYLINE
  8
0
 62
     7
 66
     1
 10
0
 20
0
 30
0.0
 70
     1
 40
0
 41
0
  0
VERTEX
  8
0
 10
4.46615
 20
4.06168
 30
0.0
 40
0
 41
0
  0
VERTEX
  8
0
 10
4.46642
 20
4.06119
 30
0.0
 40
0
 41
0
  0
VERTEX
  8
0
 10
4.47825
 20
4.05106
 30
0.0
 40
0
 41
0
  0
VERTEX
  8
0
 10
4.50201
 20
4.04189
 30
0.0
 40
0
 41
0
  0
VERTEX
  8
0
 10
4.50993
 20
4.04189
 30
0.0
 40
0
 41
0
  0
VERTEX
  8
0
 10
4.51617
 20
4.04215
 30
0.0
 40
0
 41
0
  0
VERTEX
  8
0
 10
4.53879
 20
4.05143
 30
0.0
 40
0
 41
0
  0
VERTEX
  8
0
 10
4.55003
 20
4.06119
 30
0.0
 40
0
 41
0
  0
VERTEX
  8
0
 10
4.55057
 20
4.06168
 30
0.0
 40
0
 41
0
  0
SEQEND
 8
0
  0
POLYLINE
  8
0
 62
     0
 66
     1
 10
0
 20
0
 30
0.0
 40
0.75
 41
0.75
  0
VERTEX
  8
0
 10
4.46615
 20
4.06168
 30
0.0
 40
0.0104167
 41
0.0104167
  0
VERTEX
  8
0
 10
4.46642
 20
4.06119
 30
0.0
 40
0.0104167
 41
0.0104167
  0
VERTEX
  8
0
 10
4.47825
 20
4.05106
 30
0.0
 40
0.0104167
 41
0.0104167
  0
VERTEX
  8
0
 10
4.50201
 20
4.04189
 30
0.0
 40
0.0104167
 41
0.0104167
  0
VERTEX
  8
0
 10
4.50993
 20
4.04189
 30
0.0
 40
0.0104167
 41
0.0104167
  0
VERTEX
  8
0
 10
4.51617
 20
4.04215
 30
0.0
 40
0.0104167
 41
0.0104167
  0
VERTEX
  8
0
 10
4.53879
 20
4.05143
 30
0.0
 40
0.0104167
 41
0.0104167
  0
VERTEX
  8
0
 10
4.55003
 20
4.06119
 30
0.0
 40
0.0104167
 41
0.0104167
  0
VERTEX
  8
0
 10
4.55057
 20
4.06168
 30
0.0
 40
0.0104167
 41
0.0104167
  0
SEQEND
 8
0
  0
POLYLINE
  8
0
 62
     7
 66
     1
 10
0
 20
0
 30
0.0
 70
     1
 40
0
 41
0
  0
VERTEX
  8
0
 10
4.49431
 20
4.21588
 30
0.0
 40
0
 41
0
  0
VERTEX
  8
0
 10
4.5224
 20
4.21588
 30
0.0
 40
0
 41
0
  0
VERTEX
  8
0
 10
4.5224
 20
4.13254
 30
0.0
 40
0
 41
0
  0
VERTEX
  8
0
 10
4.51535
 20
4.13254
 30
0.0
 40
0
 41
0
  0
VERTEX
  8
0
 10
4.49957
 20
4.13254
 30
0.0
 40
0
 41
0
  0
VERTEX
  8
0
 10
4.49431
 20
4.13254
 30
0.0
 40
0
 41
0
  0
VERTEX
  8
0
 10
4.49431
 20
4.15338
 30
0.0
 40
0
 41
0
  0
VERTEX
  8
0
 10
4.49431
 20
4.20025
 30
0.0
 40
0
 41
0
  0
VERTEX
  8
0
 10
4.49431
 20
4.21588
 30
0.0
 40
0
 41
0
  0
SEQEND
 8
0
  0
POLYLINE
  8
0
 62
     0
 66
     1
 10
0
 20
0
 30
0.0
 70
     1
 40
0.75
 41
0.75
  0
VERTEX
  8
0
 10
4.49431
 20
4.21588
 30
0.0
 40
0.0104167
 41
0.0104167
  0
VERTEX
  8
0
 10
4.5224
 20
4.21588
 30
0.0
 40
0.0104167
 41
0.0104167
  0
VERTEX
  8
0
 10
4.5224
 20
4.13254
 30
0.0
 40
0.0104167
 41
0.0104167
  0
VERTEX
  8
0
 10
4.51535
 20
4.13254
 30
0.0
 40
0.0104167
 41
0.0104167
  0
VERTEX
  8
0
 10
4.49957
 20
4.13254
 30
0.0
 40
0.0104167
 41
0.0104167
  0
VERTEX
  8
0
 10
4.49431
 20
4.13254
 30
0.0
 40
0.0104167
 41
0.0104167
  0
VERTEX
  8
0
 10
4.49431
 20
4.15338
 30
0.0
 40
0.0104167
 41
0.0104167
  0
VERTEX
  8
0
 10
4.49431
 20
4.20025
 30
0.0
 40
0.0104167
 41
0.0104167
  0
VERTEX
  8
0
 10
4.49431
 20
4.21588
 30
0.0
 40
0.0104167
 41
0.0104167
  0
SEQEND
 8
0
  0
POLYLINE
  8
0
 62
     7
 66
     1
 10
0
 20
0
 30
0.0
 70
     1
 40
0
 41
0
  0
VERTEX
  8
0
 10
4.37761
 20
4.18354
 30
0.0
 40
0
 41
0
  0
VERTEX
  8
0
 10
4.38081
 20
4.18479
 30
0.0
 40
0
 41
0
  0
VERTEX
  8
0
 10
4.39046
 20
4.18864
 30
0.0
 40
0
 41
0
  0
VERTEX
  8
0
 10
4.39324
 20
4.18983
 30
0.0
 40
0
 41
0
  0
VERTEX
  8
0
 10
4.39324
 20
4.18983
 30
0.0
 40
0
 41
0
  0
VERTEX
  8
0
 10
4.39324
 20
4.18842
 30
0.0
 40
0
 41
0
  0
VERTEX
  8
0
 10
4.39324
 20
4.18408
 30
0.0
 40
0
 41
0
  0
VERTEX
  8
0
 10
4.39324
 20
4.17979
 30
0.0
 40
0
 41
0
  0
VERTEX
  8
0
 10
4.39324
 20
4.17833
 30
0.0
 40
0
 41
0
  0
VERTEX
  8
0
 10
4.39324
 20
4.17833
 30
0.0
 40
0
 41
0
  0
VERTEX
  8
0
 10
4.39085
 20
4.17899
 30
0.0
 40
0
 41
0
  0
VERTEX
  8
0
 10
4.38086
 20
4.1824
 30
0.0
 40
0
 41
0
  0
VERTEX
  8
0
 10
4.37761
 20
4.18354
 30
0.0
 40
0
 41
0
  0
SEQEND
 8
0
  0
POLYLINE
  8
0
 62
     0
 66
     1
 10
0
 20
0
 30
0.0
 70
     1
 40
0.75
 41
0.75
  0
VERTEX
  8
0
 10
4.37761
 20
4.18354
 30
0.0
 40
0.0104167
 41
0.0104167
  0
VERTEX
  8
0
 10
4.38081
 20
4.18479
 30
0.0
 40
0.0104167
 41
0.0104167
  0
VERTEX
  8
0
 10
4.39046
 20
4.18864
 30
0.0
 40
0.0104167
 41
0.0104167
  0
VERTEX
  8
0
 10
4.39324
 20
4.18983
 30
0.0
 40
0.0104167
 41
0.0104167
  0
VERTEX
  8
0
 10
4.39324
 20
4.18983
 30
0.0
 40
0.0104167
 41
0.0104167
  0
VERTEX
  8
0
 10
4.39324
 20
4.18842
 30
0.0
 40
0.0104167
 41
0.0104167
  0
VERTEX
  8
0
 10
4.39324
 20
4.18408
 30
0.0
 40
0.0104167
 41
0.0104167
  0
VERTEX
  8
0
 10
4.39324
 20
4.17979
 30
0.0
 40
0.0104167
 41
0.0104167
  0
VERTEX
  8
0
 10
4.39324
 20
4.17833
 30
0.0
 40
0.0104167
 41
0.0104167
  0
VERTEX
  8
0
 10
4.39324
 20
4.17833
 30
0.0
 40
0.0104167
 41
0.0104167
  0
VERTEX
  8
0
 10
4.39085
 20
4.17899
 30
0.0
 40
0.0104167
 41
0.0104167
  0
VERTEX
  8
0
 10
4.38086
 20
4.1824
 30
0.0
 40
0.0104167
 41
0.0104167
  0
VERTEX
  8
0
 10
4.37761
 20
4.18354
 30
0.0
 40
0.0104167
 41
0.0104167
  0
SEQEND
 8
0
  0
POLYLINE
  8
0
 62
     7
 66
     1
 10
0
 20
0
 30
0.0
 70
     1
 40
0
 41
0
  0
VERTEX
  8
0
 10
4.63803
 20
4.18354
 30
0.0
 40
0
 41
0
  0
VERTEX
  8
0
 10
4.63476
 20
4.18479
 30
0.0
 40
0
 41
0
  0
VERTEX
  8
0
 10
4.62511
 20
4.18864
 30
0.0
 40
0
 41
0
  0
VERTEX
  8
0
 10
4.6224
 20
4.18983
 30
0.0
 40
0
 41
0
  0
VERTEX
  8
0
 10
4.6224
 20
4.18983
 30
0.0
 40
0
 41
0
  0
VERTEX
  8
0
 10
4.6224
 20
4.18842
 30
0.0
 40
0
 41
0
  0
VERTEX
  8
0
 10
4.6224
 20
4.18408
 30
0.0
 40
0
 41
0
  0
VERTEX
  8
0
 10
4.6224
 20
4.17979
 30
0.0
 40
0
 41
0
  0
VERTEX
  8
0
 10
4.6224
 20
4.17833
 30
0.0
 40
0
 41
0
  0
VERTEX
  8
0
 10
4.6224
 20
4.17833
 30
0.0
 40
0
 41
0
  0
VERTEX
  8
0
 10
4.62472
 20
4.17899
 30
0.0
 40
0
 41
0
  0
VERTEX
  8
0
 10
4.63471
 20
4.1824
 30
0.0
 40
0
 41
0
  0
VERTEX
  8
0
 10
4.63803
 20
4.18354
 30
0.0
 40
0
 41
0
  0
SEQEND
 8
0
  0
POLYLINE
  8
0
 62
     0
 66
     1
 10
0
 20
0
 30
0.0
 70
     1
 40
0.75
 41
0.75
  0
VERTEX
  8
0
 10
4.63803
 20
4.18354
 30
0.0
 40
0.0104167
 41
0.0104167
  0
VERTEX
  8
0
 10
4.63476
 20
4.18479
 30
0.0
 40
0.0104167
 41
0.0104167
  0
VERTEX
  8
0
 10
4.62511
 20
4.18864
 30
0.0
 40
0.0104167
 41
0.0104167
  0
VERTEX
  8
0
 10
4.6224
 20
4.18983
 30
0.0
 40
0.0104167
 41
0.0104167
  0
VERTEX
  8
0
 10
4.6224
 20
4.18983
 30
0.0
 40
0.0104167
 41
0.0104167
  0
VERTEX
  8
0
 10
4.6224
 20
4.18842
 30
0.0
 40
0.0104167
 41
0.0104167
  0
VERTEX
  8
0
 10
4.6224
 20
4.18408
 30
0.0
 40
0.0104167
 41
0.0104167
  0
VERTEX
  8
0
 10
4.6224
 20
4.17979
 30
0.0
 40
0.0104167
 41
0.0104167
  0
VERTEX
  8
0
 10
4.6224
 20
4.17833
 30
0.0
 40
0.0104167
 41
0.0104167
  0
VERTEX
  8
0
 10
4.6224
 20
4.17833
 30
0.0
 40
0.0104167
 41
0.0104167
  0
VERTEX
  8
0
 10
4.62472
 20
4.17899
 30
0.0
 40
0.0104167
 41
0.0104167
  0
VERTEX
  8
0
 10
4.63471
 20
4.1824
 30
0.0
 40
0.0104167
 41
0.0104167
  0
VERTEX
  8
0
 10
4.63803
 20
4.18354
 30
0.0
 40
0.0104167
 41
0.0104167
  0
SEQEND
 8
0
  0
POLYLINE
  8
0
 62
     7
 66
     1
 10
0
 20
0
 30
0.0
 70
     1
 40
0
 41
0
  0
VERTEX
  8
0
 10
4.15403
 20
3.31668
 30
0.0
 40
0
 41
0
  0
VERTEX
  8
0
 10
4.77903
 20
3.31668
 30
0.0
 40
0
 41
0
  0
VERTEX
  8
0
 10
4.77903
 20
2.69168
 30
0.0
 40
0
 41
0
  0
VERTEX
  8
0
 10
4.15403
 20
2.69168
 30
0.0
 40
0
 41
0
  0
VERTEX
  8
0
 10
4.15403
 20
3.31668
 30
0.0
 40
0
 41
0
  0
SEQEND
 8
0
  0
POLYLINE
  8
0
 62
     0
 66
     1
 10
0
 20
0
 30
0.0
 70
     1
 40
0.75
 41
0.75
  0
VERTEX
  8
0
 10
4.15403
 20
3.31668
 30
0.0
 40
0.0104167
 41
0.0104167
  0
VERTEX
  8
0
 10
4.15403
 20
2.69168
 30
0.0
 40
0.0104167
 41
0.0104167
  0
VERTEX
  8
0
 10
4.77903
 20
2.69168
 30
0.0
 40
0.0104167
 41
0.0104167
  0
VERTEX
  8
0
 10
4.77903
 20
3.31668
 30
0.0
 40
0.0104167
 41
0.0104167
  0
VERTEX
  8
0
 10
4.15403
 20
3.31668
 30
0.0
 40
0.0104167
 41
0.0104167
  0
SEQEND
 8
0
  0
POLYLINE
  8
0
 62
     0
 66
     1
 10
0
 20
0
 30
0.0
 40
0.75
 41
0.75
  0
VERTEX
  8
0
 10
4.15403
 20
2.69168
 30
0.0
 40
0.0104167
 41
0.0104167
  0
VERTEX
  8
0
 10
4.56863
 20
3.00521
 30
0.0
 40
0.0104167
 41
0.0104167
  0
VERTEX
  8
0
 10
4.35612
 20
3.00521
 30
0.0
 40
0.0104167
 41
0.0104167
  0
VERTEX
  8
0
 10
4.77903
 20
3.31565
 30
0.0
 40
0.0104167
 41
0.0104167
  0
SEQEND
 8
0
  0
POLYLINE
  8
0
 62
     7
 66
     1
 10
0
 20
0
 30
0.0
 70
     1
 40
0
 41
0
  0
VERTEX
  8
0
 10
4.89643
 20
3.10151
 30
0.0
 40
0
 41
0
  0
VERTEX
  8
0
 10
5.38747
 20
3.10151
 30
0.0
 40
0
 41
0
  0
VERTEX
  8
0
 10
5.38747
 20
2.69265
 30
0.0
 40
0
 41
0
  0
VERTEX
  8
0
 10
4.89643
 20
2.69265
 30
0.0
 40
0
 41
0
  0
VERTEX
  8
0
 10
4.89643
 20
3.10151
 30
0.0
 40
0
 41
0
  0
SEQEND
 8
0
  0
POLYLINE
  8
0
 62
     0
 66
     1
 10
0
 20
0
 30
0.0
 70
     1
 40
0.75
 41
0.75
  0
VERTEX
  8
0
 10
4.89643
 20
3.10151
 30
0.0
 40
0.0104167
 41
0.0104167
  0
VERTEX
  8
0
 10
5.38747
 20
3.10151
 30
0.0
 40
0.0104167
 41
0.0104167
  0
VERTEX
  8
0
 10
5.38747
 20
2.69265
 30
0.0
 40
0.0104167
 41
0.0104167
  0
VERTEX
  8
0
 10
4.89643
 20
2.69265
 30
0.0
 40
0.0104167
 41
0.0104167
  0
VERTEX
  8
0
 10
4.89643
 20
3.10151
 30
0.0
 40
0.0104167
 41
0.0104167
  0
SEQEND
 8
0
  0
POLYLINE
  8
0
 62
     7
 66
     1
 10
0
 20
0
 30
0.0
 70
     1
 40
0
 41
0
  0
VERTEX
  8
0
 10
4.93739
 20
3.06549
 30
0.0
 40
0
 41
0
  0
VERTEX
  8
0
 10
5.34651
 20
3.06549
 30
0.0
 40
0
 41
0
  0
VERTEX
  8
0
 10
5.34651
 20
2.79372
 30
0.0
 40
0
 41
0
  0
VERTEX
  8
0
 10
4.93739
 20
2.79372
 30
0.0
 40
0
 41
0
  0
VERTEX
  8
0
 10
4.93739
 20
3.06549
 30
0.0
 40
0
 41
0
  0
SEQEND
 8
0
  0
POLYLINE
  8
0
 62
     0
 66
     1
 10
0
 20
0
 30
0.0
 70
     1
 40
0.75
 41
0.75
  0
VERTEX
  8
0
 10
4.93739
 20
3.06549
 30
0.0
 40
0.0104167
 41
0.0104167
  0
VERTEX
  8
0
 10
5.34651
 20
3.06549
 30
0.0
 40
0.0104167
 41
0.0104167
  0
VERTEX
  8
0
 10
5.34651
 20
2.79372
 30
0.0
 40
0.0104167
 41
0.0104167
  0
VERTEX
  8
0
 10
4.93739
 20
2.79372
 30
0.0
 40
0.0104167
 41
0.0104167
  0
VERTEX
  8
0
 10
4.93739
 20
3.06549
 30
0.0
 40
0.0104167
 41
0.0104167
  0
SEQEND
 8
0
  0
POLYLINE
  8
0
 62
     7
 66
     1
 10
0
 20
0
 30
0.0
 70
     1
 40
0
 41
0
  0
VERTEX
  8
0
 10
5.10553
 20
2.91211
 30
0.0
 40
0
 41
0
  0
VERTEX
  8
0
 10
5.10553
 20
2.91857
 30
0.0
 40
0
 41
0
  0
VERTEX
  8
0
 10
5.11615
 20
2.93793
 30
0.0
 40
0
 41
0
  0
VERTEX
  8
0
 10
5.13553
 20
2.94857
 30
0.0
 40
0
 41
0
  0
VERTEX
  8
0
 10
5.14199
 20
2.94857
 30
0.0
 40
0
 41
0
  0
VERTEX
  8
0
 10
5.14839
 20
2.94857
 30
0.0
 40
0
 41
0
  0
VERTEX
  8
0
 10
5.16775
 20
2.93793
 30
0.0
 40
0
 41
0
  0
VERTEX
  8
0
 10
5.17844
 20
2.91857
 30
0.0
 40
0
 41
0
  0
VERTEX
  8
0
 10
5.17844
 20
2.91211
 30
0.0
 40
0
 41
0
  0
VERTEX
  8
0
 10
5.17844
 20
2.90571
 30
0.0
 40
0
 41
0
  0
VERTEX
  8
0
 10
5.16775
 20
2.88633
 30
0.0
 40
0
 41
0
  0
VERTEX
  8
0
 10
5.14839
 20
2.87565
 30
0.0
 40
0
 41
0
  0
VERTEX
  8
0
 10
5.14199
 20
2.87565
 30
0.0
 40
0
 41
0
  0
VERTEX
  8
0
 10
5.13553
 20
2.87565
 30
0.0
 40
0
 41
0
  0
VERTEX
  8
0
 10
5.11615
 20
2.88633
 30
0.0
 40
0
 41
0
  0
VERTEX
  8
0
 10
5.10553
 20
2.90571
 30
0.0
 40
0
 41
0
  0
VERTEX
  8
0
 10
5.10553
 20
2.91211
 30
0.0
 40
0
 41
0
  0
SEQEND
 8
0
  0
POLYLINE
  8
0
 62
     0
 66
     1
 10
0
 20
0
 30
0.0
 70
     1
 40
0.6
 41
0.6
  0
VERTEX
  8
0
 10
5.10553
 20
2.91211
 30
0.0
 40
0.00833333
 41
0.00833333
  0
VERTEX
  8
0
 10
5.10553
 20
2.91857
 30
0.0
 40
0.00833333
 41
0.00833333
  0
VERTEX
  8
0
 10
5.11615
 20
2.93793
 30
0.0
 40
0.00833333
 41
0.00833333
  0
VERTEX
  8
0
 10
5.13553
 20
2.94857
 30
0.0
 40
0.00833333
 41
0.00833333
  0
VERTEX
  8
0
 10
5.14199
 20
2.94857
 30
0.0
 40
0.00833333
 41
0.00833333
  0
VERTEX
  8
0
 10
5.14839
 20
2.94857
 30
0.0
 40
0.00833333
 41
0.00833333
  0
VERTEX
  8
0
 10
5.16775
 20
2.93793
 30
0.0
 40
0.00833333
 41
0.00833333
  0
VERTEX
  8
0
 10
5.17844
 20
2.91857
 30
0.0
 40
0.00833333
 41
0.00833333
  0
VERTEX
  8
0
 10
5.17844
 20
2.91211
 30
0.0
 40
0.00833333
 41
0.00833333
  0
VERTEX
  8
0
 10
5.17844
 20
2.90571
 30
0.0
 40
0.00833333
 41
0.00833333
  0
VERTEX
  8
0
 10
5.16775
 20
2.88633
 30
0.0
 40
0.00833333
 41
0.00833333
  0
VERTEX
  8
0
 10
5.14839
 20
2.87565
 30
0.0
 40
0.00833333
 41
0.00833333
  0
VERTEX
  8
0
 10
5.14199
 20
2.87565
 30
0.0
 40
0.00833333
 41
0.00833333
  0
VERTEX
  8
0
 10
5.13553
 20
2.87565
 30
0.0
 40
0.00833333
 41
0.00833333
  0
VERTEX
  8
0
 10
5.11615
 20
2.88633
 30
0.0
 40
0.00833333
 41
0.00833333
  0
VERTEX
  8
0
 10
5.10553
 20
2.90571
 30
0.0
 40
0.00833333
 41
0.00833333
  0
VERTEX
  8
0
 10
5.10553
 20
2.91211
 30
0.0
 40
0.00833333
 41
0.00833333
  0
SEQEND
 8
0
  0
POLYLINE
  8
0
 62
     7
 66
     1
 10
0
 20
0
 30
0.0
 70
     1
 40
0
 41
0
  0
VERTEX
  8
0
 10
5.12115
 20
2.91211
 30
0.0
 40
0
 41
0
  0
VERTEX
  8
0
 10
5.12115
 20
2.91581
 30
0.0
 40
0
 41
0
  0
VERTEX
  8
0
 10
5.12722
 20
2.92686
 30
0.0
 40
0
 41
0
  0
VERTEX
  8
0
 10
5.13829
 20
2.93294
 30
0.0
 40
0
 41
0
  0
VERTEX
  8
0
 10
5.14199
 20
2.93294
 30
0.0
 40
0
 41
0
  0
VERTEX
  8
0
 10
5.14561
 20
2.93294
 30
0.0
 40
0
 41
0
  0
VERTEX
  8
0
 10
5.15668
 20
2.92686
 30
0.0
 40
0
 41
0
  0
VERTEX
  8
0
 10
5.16282
 20
2.91581
 30
0.0
 40
0
 41
0
  0
VERTEX
  8
0
 10
5.16282
 20
2.91211
 30
0.0
 40
0
 41
0
  0
VERTEX
  8
0
 10
5.16282
 20
2.90847
 30
0.0
 40
0
 41
0
  0
VERTEX
  8
0
 10
5.15668
 20
2.8974
 30
0.0
 40
0
 41
0
  0
VERTEX
  8
0
 10
5.14561
 20
2.89128
 30
0.0
 40
0
 41
0
  0
VERTEX
  8
0
 10
5.14199
 20
2.89128
 30
0.0
 40
0
 41
0
  0
VERTEX
  8
0
 10
5.13829
 20
2.89128
 30
0.0
 40
0
 41
0
  0
VERTEX
  8
0
 10
5.12722
 20
2.8974
 30
0.0
 40
0
 41
0
  0
VERTEX
  8
0
 10
5.12115
 20
2.90847
 30
0.0
 40
0
 41
0
  0
VERTEX
  8
0
 10
5.12115
 20
2.91211
 30
0.0
 40
0
 41
0
  0
SEQEND
 8
0
  0
POLYLINE
  8
0
 62
     0
 66
     1
 10
0
 20
0
 30
0.0
 70
     1
 40
0.6
 41
0.6
  0
VERTEX
  8
0
 10
5.12115
 20
2.91211
 30
0.0
 40
0.00833333
 41
0.00833333
  0
VERTEX
  8
0
 10
5.12115
 20
2.91581
 30
0.0
 40
0.00833333
 41
0.00833333
  0
VERTEX
  8
0
 10
5.12722
 20
2.92686
 30
0.0
 40
0.00833333
 41
0.00833333
  0
VERTEX
  8
0
 10
5.13829
 20
2.93294
 30
0.0
 40
0.00833333
 41
0.00833333
  0
VERTEX
  8
0
 10
5.14199
 20
2.93294
 30
0.0
 40
0.00833333
 41
0.00833333
  0
VERTEX
  8
0
 10
5.14561
 20
2.93294
 30
0.0
 40
0.00833333
 41
0.00833333
  0
VERTEX
  8
0
 10
5.15668
 20
2.92686
 30
0.0
 40
0.00833333
 41
0.00833333
  0
VERTEX
  8
0
 10
5.16282
 20
2.91581
 30
0.0
 40
0.00833333
 41
0.00833333
  0
VERTEX
  8
0
 10
5.16282
 20
2.91211
 30
0.0
 40
0.00833333
 41
0.00833333
  0
VERTEX
  8
0
 10
5.16282
 20
2.90847
 30
0.0
 40
0.00833333
 41
0.00833333
  0
VERTEX
  8
0
 10
5.15668
 20
2.8974
 30
0.0
 40
0.00833333
 41
0.00833333
  0
VERTEX
  8
0
 10
5.14561
 20
2.89128
 30
0.0
 40
0.00833333
 41
0.00833333
  0
VERTEX
  8
0
 10
5.14199
 20
2.89128
 30
0.0
 40
0.00833333
 41
0.00833333
  0
VERTEX
  8
0
 10
5.13829
 20
2.89128
 30
0.0
 40
0.00833333
 41
0.00833333
  0
VERTEX
  8
0
 10
5.12722
 20
2.8974
 30
0.0
 40
0.00833333
 41
0.00833333
  0
VERTEX
  8
0
 10
5.12115
 20
2.90847
 30
0.0
 40
0.00833333
 41
0.00833333
  0
VERTEX
  8
0
 10
5.12115
 20
2.91211
 30
0.0
 40
0.00833333
 41
0.00833333
  0
SEQEND
 8
0
  0
POLYLINE
  8
0
 62
     7
 66
     1
 10
0
 20
0
 30
0.0
 70
     1
 40
0
 41
0
  0
VERTEX
  8
0
 10
5.10406
 20
2.87256
 30
0.0
 40
0
 41
0
  0
VERTEX
  8
0
 10
5.16656
 20
2.87256
 30
0.0
 40
0
 41
0
  0
VERTEX
  8
0
 10
5.16656
 20
2.72672
 30
0.0
 40
0
 41
0
  0
VERTEX
  8
0
 10
5.10406
 20
2.72672
 30
0.0
 40
0
 41
0
  0
VERTEX
  8
0
 10
5.10406
 20
2.87256
 30
0.0
 40
0
 41
0
  0
SEQEND
 8
0
  0
POLYLINE
  8
0
 62
     0
 66
     1
 10
0
 20
0
 30
0.0
 70
     1
 40
0.75
 41
0.75
  0
VERTEX
  8
0
 10
5.10406
 20
2.87256
 30
0.0
 40
0.0104167
 41
0.0104167
  0
VERTEX
  8
0
 10
5.16656
 20
2.87256
 30
0.0
 40
0.0104167
 41
0.0104167
  0
VERTEX
  8
0
 10
5.16656
 20
2.72672
 30
0.0
 40
0.0104167
 41
0.0104167
  0
VERTEX
  8
0
 10
5.10406
 20
2.72672
 30
0.0
 40
0.0104167
 41
0.0104167
  0
VERTEX
  8
0
 10
5.10406
 20
2.87256
 30
0.0
 40
0.0104167
 41
0.0104167
  0
SEQEND
 8
0
  0
POLYLINE
  8
0
 62
     7
 66
     1
 10
0
 20
0
 30
0.0
 70
     1
 40
0
 41
0
  0
VERTEX
  8
0
 10
5.49164
 20
2.88417
 30
0.0
 40
0
 41
0
  0
VERTEX
  8
0
 10
5.90821
 20
2.88417
 30
0.0
 40
0
 41
0
  0
VERTEX
  8
0
 10
5.90821
 20
2.69689
 30
0.0
 40
0
 41
0
  0
VERTEX
  8
0
 10
5.49164
 20
2.69689
 30
0.0
 40
0
 41
0
  0
VERTEX
  8
0
 10
5.49164
 20
2.88417
 30
0.0
 40
0
 41
0
  0
SEQEND
 8
0
  0
POLYLINE
  8
0
 62
     0
 66
     1
 10
0
 20
0
 30
0.0
 70
     1
 40
0.75
 41
0.75
  0
VERTEX
  8
0
 10
5.49164
 20
2.88417
 30
0.0
 40
0.0104167
 41
0.0104167
  0
VERTEX
  8
0
 10
5.90821
 20
2.88417
 30
0.0
 40
0.0104167
 41
0.0104167
  0
VERTEX
  8
0
 10
5.90821
 20
2.69689
 30
0.0
 40
0.0104167
 41
0.0104167
  0
VERTEX
  8
0
 10
5.49164
 20
2.69689
 30
0.0
 40
0.0104167
 41
0.0104167
  0
VERTEX
  8
0
 10
5.49164
 20
2.88417
 30
0.0
 40
0.0104167
 41
0.0104167
  0
SEQEND
 8
0
  0
POLYLINE
  8
0
 62
     7
 66
     1
 10
0
 20
0
 30
0.0
 70
     1
 40
0
 41
0
  0
VERTEX
  8
0
 10
5.49164
 20
3.1525
 30
0.0
 40
0
 41
0
  0
VERTEX
  8
0
 10
5.49164
 20
3.1525
 30
0.0
 40
0
 41
0
  0
VERTEX
  8
0
 10
5.49154
 20
3.16428
 30
0.0
 40
0
 41
0
  0
VERTEX
  8
0
 10
5.49317
 20
3.19526
 30
0.0
 40
0
 41
0
  0
VERTEX
  8
0
 10
5.49929
 20
3.2391
 30
0.0
 40
0
 41
0
  0
VERTEX
  8
0
 10
5.51275
 20
3.28928
 30
0.0
 40
0
 41
0
  0
VERTEX
  8
0
 10
5.53629
 20
3.33951
 30
0.0
 40
0
 41
0
  0
VERTEX
  8
0
 10
5.57275
 20
3.38336
 30
0.0
 40
0
 41
0
  0
VERTEX
  8
0
 10
5.62489
 20
3.41433
 30
0.0
 40
0
 41
0
  0
VERTEX
  8
0
 10
5.67796
 20
3.42606
 30
0.0
 40
0
 41
0
  0
VERTEX
  8
0
 10
5.69564
 20
3.42606
 30
0.0
 40
0
 41
0
  0
VERTEX
  8
0
 10
5.71392
 20
3.42606
 30
0.0
 40
0
 41
0
  0
VERTEX
  8
0
 10
5.76878
 20
3.41433
 30
0.0
 40
0
 41
0
  0
VERTEX
  8
0
 10
5.82286
 20
3.38336
 30
0.0
 40
0
 41
0
  0
VERTEX
  8
0
 10
5.86068
 20
3.33951
 30
0.0
 40
0
 41
0
  0
VERTEX
  8
0
 10
5.8851
 20
3.28928
 30
0.0
 40
0
 41
0
  0
VERTEX
  8
0
 10
5.89908
 20
3.2391
 30
0.0
 40
0
 41
0
  0
VERTEX
  8
0
 10
5.90549
 20
3.19526
 30
0.0
 40
0
 41
0
  0
VERTEX
  8
0
 10
5.90722
 20
3.16428
 30
0.0
 40
0
 41
0
  0
VERTEX
  8
0
 10
5.90717
 20
3.1525
 30
0.0
 40
0
 41
0
  0
VERTEX
  8
0
 10
5.90717
 20
3.1525
 30
0.0
 40
0
 41
0
  0
VERTEX
  8
0
 10
5.90826
 20
2.88417
 30
0.0
 40
0
 41
0
  0
VERTEX
  8
0
 10
5.49164
 20
2.88417
 30
0.0
 40
0
 41
0
  0
VERTEX
  8
0
 10
5.49164
 20
3.1525
 30
0.0
 40
0
 41
0
  0
SEQEND
 8
0
  0
POLYLINE
  8
0
 62
     0
 66
     1
 10
0
 20
0
 30
0.0
 70
     1
 40
0.75
 41
0.75
  0
VERTEX
  8
0
 10
5.49164
 20
3.1525
 30
0.0
 40
0.0104167
 41
0.0104167
  0
VERTEX
  8
0
 10
5.49164
 20
3.1525
 30
0.0
 40
0.0104167
 41
0.0104167
  0
VERTEX
  8
0
 10
5.49154
 20
3.16428
 30
0.0
 40
0.0104167
 41
0.0104167
  0
VERTEX
  8
0
 10
5.49317
 20
3.19526
 30
0.0
 40
0.0104167
 41
0.0104167
  0
VERTEX
  8
0
 10
5.49929
 20
3.2391
 30
0.0
 40
0.0104167
 41
0.0104167
  0
VERTEX
  8
0
 10
5.51275
 20
3.28928
 30
0.0
 40
0.0104167
 41
0.0104167
  0
VERTEX
  8
0
 10
5.53629
 20
3.33951
 30
0.0
 40
0.0104167
 41
0.0104167
  0
VERTEX
  8
0
 10
5.57275
 20
3.38336
 30
0.0
 40
0.0104167
 41
0.0104167
  0
VERTEX
  8
0
 10
5.62489
 20
3.41433
 30
0.0
 40
0.0104167
 41
0.0104167
  0
VERTEX
  8
0
 10
5.67796
 20
3.42606
 30
0.0
 40
0.0104167
 41
0.0104167
  0
VERTEX
  8
0
 10
5.69564
 20
3.42606
 30
0.0
 40
0.0104167
 41
0.0104167
  0
VERTEX
  8
0
 10
5.71392
 20
3.42606
 30
0.0
 40
0.0104167
 41
0.0104167
  0
VERTEX
  8
0
 10
5.76878
 20
3.41433
 30
0.0
 40
0.0104167
 41
0.0104167
  0
VERTEX
  8
0
 10
5.82286
 20
3.38336
 30
0.0
 40
0.0104167
 41
0.0104167
  0
VERTEX
  8
0
 10
5.86068
 20
3.33951
 30
0.0
 40
0.0104167
 41
0.0104167
  0
VERTEX
  8
0
 10
5.8851
 20
3.28928
 30
0.0
 40
0.0104167
 41
0.0104167
  0
VERTEX
  8
0
 10
5.89908
 20
3.2391
 30
0.0
 40
0.0104167
 41
0.0104167
  0
VERTEX
  8
0
 10
5.90549
 20
3.19526
 30
0.0
 40
0.0104167
 41
0.0104167
  0
VERTEX
  8
0
 10
5.90722
 20
3.16428
 30
0.0
 40
0.0104167
 41
0.0104167
  0
VERTEX
  8
0
 10
5.90717
 20
3.1525
 30
0.0
 40
0.0104167
 41
0.0104167
  0
VERTEX
  8
0
 10
5.90717
 20
3.1525
 30
0.0
 40
0.0104167
 41
0.0104167
  0
VERTEX
  8
0
 10
5.90826
 20
2.88417
 30
0.0
 40
0.0104167
 41
0.0104167
  0
VERTEX
  8
0
 10
5.49164
 20
2.88417
 30
0.0
 40
0.0104167
 41
0.0104167
  0
VERTEX
  8
0
 10
5.49164
 20
3.1525
 30
0.0
 40
0.0104167
 41
0.0104167
  0
SEQEND
 8
0
  0
POLYLINE
  8
0
 62
     7
 66
     1
 10
0
 20
0
 30
0.0
 70
     1
 40
0
 41
0
  0
VERTEX
  8
0
 10
5.66683
 20
2.80632
 30
0.0
 40
0
 41
0
  0
VERTEX
  8
0
 10
5.73307
 20
2.80632
 30
0.0
 40
0
 41
0
  0
VERTEX
  8
0
 10
5.73307
 20
2.77474
 30
0.0
 40
0
 41
0
  0
VERTEX
  8
0
 10
5.66683
 20
2.77474
 30
0.0
 40
0
 41
0
  0
VERTEX
  8
0
 10
5.66683
 20
2.80632
 30
0.0
 40
0
 41
0
  0
SEQEND
 8
0
  0
POLYLINE
  8
0
 62
     0
 66
     1
 10
0
 20
0
 30
0.0
 70
     1
 40
0.75
 41
0.75
  0
VERTEX
  8
0
 10
5.66683
 20
2.80632
 30
0.0
 40
0.0104167
 41
0.0104167
  0
VERTEX
  8
0
 10
5.73307
 20
2.80632
 30
0.0
 40
0.0104167
 41
0.0104167
  0
VERTEX
  8
0
 10
5.73307
 20
2.77474
 30
0.0
 40
0.0104167
 41
0.0104167
  0
VERTEX
  8
0
 10
5.66683
 20
2.77474
 30
0.0
 40
0.0104167
 41
0.0104167
  0
VERTEX
  8
0
 10
5.66683
 20
2.80632
 30
0.0
 40
0.0104167
 41
0.0104167
  0
SEQEND
 8
0
  0
POLYLINE
  8
0
 62
     7
 66
     1
 10
0
 20
0
 30
0.0
 70
     1
 40
0
 41
0
  0
VERTEX
  8
0
 10
7.66689
 20
1.71924
 30
0.0
 40
0
 41
0
  0
VERTEX
  8
0
 10
8.29189
 20
1.71924
 30
0.0
 40
0
 41
0
  0
VERTEX
  8
0
 10
8.29189
 20
1.21007
 30
0.0
 40
0
 41
0
  0
VERTEX
  8
0
 10
7.66689
 20
1.21007
 30
0.0
 40
0
 41
0
  0
VERTEX
  8
0
 10
7.66689
 20
1.71924
 30
0.0
 40
0
 41
0
  0
SEQEND
 8
0
  0
POLYLINE
  8
0
 62
     0
 66
     1
 10
0
 20
0
 30
0.0
 70
     1
 40
0.75
 41
0.75
  0
VERTEX
  8
0
 10
7.66689
 20
1.71924
 30
0.0
 40
0.0104167
 41
0.0104167
  0
VERTEX
  8
0
 10
7.66689
 20
1.21007
 30
0.0
 40
0.0104167
 41
0.0104167
  0
VERTEX
  8
0
 10
8.29189
 20
1.21007
 30
0.0
 40
0.0104167
 41
0.0104167
  0
VERTEX
  8
0
 10
8.29189
 20
1.71924
 30
0.0
 40
0.0104167
 41
0.0104167
  0
VERTEX
  8
0
 10
7.66689
 20
1.71924
 30
0.0
 40
0.0104167
 41
0.0104167
  0
SEQEND
 8
0
  0
POLYLINE
  8
0
 62
     7
 66
     1
 10
0
 20
0
 30
0.0
 70
     1
 40
0
 41
0
  0
VERTEX
  8
0
 10
7.66689
 20
2.2284
 30
0.0
 40
0
 41
0
  0
VERTEX
  8
0
 10
8.29189
 20
2.2284
 30
0.0
 40
0
 41
0
  0
VERTEX
  8
0
 10
8.29189
 20
1.71924
 30
0.0
 40
0
 41
0
  0
VERTEX
  8
0
 10
7.66689
 20
1.71924
 30
0.0
 40
0
 41
0
  0
VERTEX
  8
0
 10
7.66689
 20
2.2284
 30
0.0
 40
0
 41
0
  0
SEQEND
 8
0
  0
POLYLINE
  8
0
 62
     0
 66
     1
 10
0
 20
0
 30
0.0
 70
     1
 40
0.75
 41
0.75
  0
VERTEX
  8
0
 10
7.66689
 20
2.2284
 30
0.0
 40
0.0104167
 41
0.0104167
  0
VERTEX
  8
0
 10
7.66689
 20
1.71924
 30
0.0
 40
0.0104167
 41
0.0104167
  0
VERTEX
  8
0
 10
8.29189
 20
1.71924
 30
0.0
 40
0.0104167
 41
0.0104167
  0
VERTEX
  8
0
 10
8.29189
 20
2.2284
 30
0.0
 40
0.0104167
 41
0.0104167
  0
VERTEX
  8
0
 10
7.66689
 20
2.2284
 30
0.0
 40
0.0104167
 41
0.0104167
  0
SEQEND
 8
0
  0
POLYLINE
  8
0
 62
     7
 66
     1
 10
0
 20
0
 30
0.0
 70
     1
 40
0
 41
0
  0
VERTEX
  8
0
 10
7.66689
 20
2.73757
 30
0.0
 40
0
 41
0
  0
VERTEX
  8
0
 10
8.29189
 20
2.73757
 30
0.0
 40
0
 41
0
  0
VERTEX
  8
0
 10
8.29189
 20
2.22846
 30
0.0
 40
0
 41
0
  0
VERTEX
  8
0
 10
7.66689
 20
2.22846
 30
0.0
 40
0
 41
0
  0
VERTEX
  8
0
 10
7.66689
 20
2.73757
 30
0.0
 40
0
 41
0
  0
SEQEND
 8
0
  0
POLYLINE
  8
0
 62
     0
 66
     1
 10
0
 20
0
 30
0.0
 70
     1
 40
0.75
 41
0.75
  0
VERTEX
  8
0
 10
7.66689
 20
2.73757
 30
0.0
 40
0.0104167
 41
0.0104167
  0
VERTEX
  8
0
 10
7.66689
 20
2.22846
 30
0.0
 40
0.0104167
 41
0.0104167
  0
VERTEX
  8
0
 10
8.29189
 20
2.22846
 30
0.0
 40
0.0104167
 41
0.0104167
  0
VERTEX
  8
0
 10
8.29189
 20
2.73757
 30
0.0
 40
0.0104167
 41
0.0104167
  0
VERTEX
  8
0
 10
7.66689
 20
2.73757
 30
0.0
 40
0.0104167
 41
0.0104167
  0
SEQEND
 8
0
  0
POLYLINE
  8
0
 62
     7
 66
     1
 10
0
 20
0
 30
0.0
 70
     1
 40
0
 41
0
  0
VERTEX
  8
0
 10
7.66689
 20
3.24681
 30
0.0
 40
0
 41
0
  0
VERTEX
  8
0
 10
8.29189
 20
3.24681
 30
0.0
 40
0
 41
0
  0
VERTEX
  8
0
 10
8.29189
 20
2.73762
 30
0.0
 40
0
 41
0
  0
VERTEX
  8
0
 10
7.66689
 20
2.73762
 30
0.0
 40
0
 41
0
  0
VERTEX
  8
0
 10
7.66689
 20
3.24681
 30
0.0
 40
0
 41
0
  0
SEQEND
 8
0
  0
POLYLINE
  8
0
 62
     0
 66
     1
 10
0
 20
0
 30
0.0
 70
     1
 40
0.75
 41
0.75
  0
VERTEX
  8
0
 10
7.66689
 20
3.24681
 30
0.0
 40
0.0104167
 41
0.0104167
  0
VERTEX
  8
0
 10
7.66689
 20
2.73762
 30
0.0
 40
0.0104167
 41
0.0104167
  0
VERTEX
  8
0
 10
8.29189
 20
2.73762
 30
0.0
 40
0.0104167
 41
0.0104167
  0
VERTEX
  8
0
 10
8.29189
 20
3.24681
 30
0.0
 40
0.0104167
 41
0.0104167
  0
VERTEX
  8
0
 10
7.66689
 20
3.24681
 30
0.0
 40
0.0104167
 41
0.0104167
  0
SEQEND
 8
0
  0
POLYLINE
  8
0
 62
     7
 66
     1
 10
0
 20
0
 30
0.0
 70
     1
 40
0
 41
0
  0
VERTEX
  8
0
 10
7.71636
 20
6.02621
 30
0.0
 40
0
 41
0
  0
VERTEX
  8
0
 10
8.34136
 20
6.02621
 30
0.0
 40
0
 41
0
  0
VERTEX
  8
0
 10
8.34136
 20
5.40913
 30
0.0
 40
0
 41
0
  0
VERTEX
  8
0
 10
7.71636
 20
5.40913
 30
0.0
 40
0
 41
0
  0
VERTEX
  8
0
 10
7.71636
 20
6.02621
 30
0.0
 40
0
 41
0
  0
SEQEND
 8
0
  0
POLYLINE
  8
0
 62
     0
 66
     1
 10
0
 20
0
 30
0.0
 70
     1
 40
0.75
 41
0.75
  0
VERTEX
  8
0
 10
7.71636
 20
6.02621
 30
0.0
 40
0.0104167
 41
0.0104167
  0
VERTEX
  8
0
 10
7.71636
 20
5.40913
 30
0.0
 40
0.0104167
 41
0.0104167
  0
VERTEX
  8
0
 10
8.34136
 20
5.40913
 30
0.0
 40
0.0104167
 41
0.0104167
  0
VERTEX
  8
0
 10
8.34136
 20
6.02621
 30
0.0
 40
0.0104167
 41
0.0104167
  0
VERTEX
  8
0
 10
7.71636
 20
6.02621
 30
0.0
 40
0.0104167
 41
0.0104167
  0
SEQEND
 8
0
  0
POLYLINE
  8
0
 62
     7
 66
     1
 10
0
 20
0
 30
0.0
 70
     1
 40
0
 41
0
  0
VERTEX
  8
0
 10
7.71636
 20
6.64324
 30
0.0
 40
0
 41
0
  0
VERTEX
  8
0
 10
8.34136
 20
6.64324
 30
0.0
 40
0
 41
0
  0
VERTEX
  8
0
 10
8.34136
 20
6.02615
 30
0.0
 40
0
 41
0
  0
VERTEX
  8
0
 10
7.71636
 20
6.02615
 30
0.0
 40
0
 41
0
  0
VERTEX
  8
0
 10
7.71636
 20
6.64324
 30
0.0
 40
0
 41
0
  0
SEQEND
 8
0
  0
POLYLINE
  8
0
 62
     0
 66
     1
 10
0
 20
0
 30
0.0
 70
     1
 40
0.75
 41
0.75
  0
VERTEX
  8
0
 10
7.71636
 20
6.64324
 30
0.0
 40
0.0104167
 41
0.0104167
  0
VERTEX
  8
0
 10
7.71636
 20
6.02615
 30
0.0
 40
0.0104167
 41
0.0104167
  0
VERTEX
  8
0
 10
8.34136
 20
6.02615
 30
0.0
 40
0.0104167
 41
0.0104167
  0
VERTEX
  8
0
 10
8.34136
 20
6.64324
 30
0.0
 40
0.0104167
 41
0.0104167
  0
VERTEX
  8
0
 10
7.71636
 20
6.64324
 30
0.0
 40
0.0104167
 41
0.0104167
  0
SEQEND
 8
0
  0
POLYLINE
  8
0
 62
     7
 66
     1
 10
0
 20
0
 30
0.0
 70
     1
 40
0
 41
0
  0
VERTEX
  8
0
 10
7.71636
 20
7.26025
 30
0.0
 40
0
 41
0
  0
VERTEX
  8
0
 10
8.34136
 20
7.26025
 30
0.0
 40
0
 41
0
  0
VERTEX
  8
0
 10
8.34136
 20
6.64318
 30
0.0
 40
0
 41
0
  0
VERTEX
  8
0
 10
7.71636
 20
6.64318
 30
0.0
 40
0
 41
0
  0
VERTEX
  8
0
 10
7.71636
 20
7.26025
 30
0.0
 40
0
 41
0
  0
SEQEND
 8
0
  0
POLYLINE
  8
0
 62
     0
 66
     1
 10
0
 20
0
 30
0.0
 70
     1
 40
0.75
 41
0.75
  0
VERTEX
  8
0
 10
7.71636
 20
7.26025
 30
0.0
 40
0.0104167
 41
0.0104167
  0
VERTEX
  8
0
 10
7.71636
 20
6.64318
 30
0.0
 40
0.0104167
 41
0.0104167
  0
VERTEX
  8
0
 10
8.34136
 20
6.64318
 30
0.0
 40
0.0104167
 41
0.0104167
  0
VERTEX
  8
0
 10
8.34136
 20
7.26025
 30
0.0
 40
0.0104167
 41
0.0104167
  0
VERTEX
  8
0
 10
7.71636
 20
7.26025
 30
0.0
 40
0.0104167
 41
0.0104167
  0
SEQEND
 8
0
  0
POLYLINE
  8
0
 62
     0
 66
     1
 10
0
 20
0
 30
0.0
 70
     1
 40
0
 41
0
  0
VERTEX
  8
0
 10
5.91342
 20
4.22114
 30
0.0
 40
0
 41
0
  0
VERTEX
  8
0
 10
6.03532
 20
4.22114
 30
0.0
 40
0
 41
0
  0
VERTEX
  8
0
 10
6.03532
 20
4.07497
 30
0.0
 40
0
 41
0
  0
VERTEX
  8
0
 10
5.91342
 20
4.07497
 30
0.0
 40
0
 41
0
  0
VERTEX
  8
0
 10
5.91342
 20
4.22114
 30
0.0
 40
0
 41
0
  0
SEQEND
 8
0
  0
POLYLINE
  8
0
 62
     0
 66
     1
 10
0
 20
0
 30
0.0
 70
     1
 40
0.75
 41
0.75
  0
VERTEX
  8
0
 10
4.77681
 20
2.92583
 30
0.0
 40
0.0104167
 41
0.0104167
  0
VERTEX
  8
0
 10
6.03532
 20
2.92583
 30
0.0
 40
0.0104167
 41
0.0104167
  0
VERTEX
  8
0
 10
6.03532
 20
2.69331
 30
0.0
 40
0.0104167
 41
0.0104167
  0
VERTEX
  8
0
 10
4.77681
 20
2.69331
 30
0.0
 40
0.0104167
 41
0.0104167
  0
VERTEX
  8
0
 10
4.77681
 20
2.92583
 30
0.0
 40
0.0104167
 41
0.0104167
  0
SEQEND
 8
0
  0
POLYLINE
  8
0
 62
     7
 66
     1
 10
0
 20
0
 30
0.0
 70
     1
 40
0
 41
0
  0
VERTEX
  8
0
 10
5.48481
 20
1.83556
 30
0.0
 40
0
 41
0
  0
VERTEX
  8
0
 10
6.03532
 20
1.83556
 30
0.0
 40
0
 41
0
  0
VERTEX
  8
0
 10
6.03532
 20
1.21056
 30
0.0
 40
0
 41
0
  0
VERTEX
  8
0
 10
5.48481
 20
1.21056
 30
0.0
 40
0
 41
0
  0
VERTEX
  8
0
 10
5.48481
 20
1.83556
 30
0.0
 40
0
 41
0
  0
SEQEND
 8
0
  0
POLYLINE
  8
0
 62
     0
 66
     1
 10
0
 20
0
 30
0.0
 70
     1
 40
0.75
 41
0.75
  0
VERTEX
  8
0
 10
5.48481
 20
1.83556
 30
0.0
 40
0.0104167
 41
0.0104167
  0
VERTEX
  8
0
 10
6.03532
 20
1.83556
 30
0.0
 40
0.0104167
 41
0.0104167
  0
VERTEX
  8
0
 10
6.03532
 20
1.21056
 30
0.0
 40
0.0104167
 41
0.0104167
  0
VERTEX
  8
0
 10
5.48481
 20
1.21056
 30
0.0
 40
0.0104167
 41
0.0104167
  0
VERTEX
  8
0
 10
5.48481
 20
1.83556
 30
0.0
 40
0.0104167
 41
0.0104167
  0
SEQEND
 8
0
  0
ENDSEC
  0
EOF
