  0
SECTION
  2
HEADER
  9
$ACADVER
  1
AC1009
  9
$FILLMODE
 70
 0
  9
$SPLFRAME
 70
 1
  9
$EXTMIN
 10
0
 20
0
 30
0.0
  9
$EXTMAX
 10
41.6667
 20
41.6667
 30
0.0
  0
ENDSEC
  0
SECTION
  2
TABLES
  0
TABLE
  2
LAYER
 70
1
  0
LAYER
  2
0
 70
     0
 62
     7
  6
CONTINUOUS
  0
ENDTAB
  0
ENDSEC
  0
SECTION
  2
ENTITIES
  0
POLYLINE
  8
0
 62
     7
 66
     1
 10
0
 20
0
 30
0.0
 70
     1
 40
0
 41
0
  0
VERTEX
  8
0
 10
2.17301
 20
9.40912
 30
0.0
 40
0
 41
0
  0
VERTEX
  8
0
 10
3.11344
 20
9.40912
 30
0.0
 40
0
 41
0
  0
VERTEX
  8
0
 10
3.11344
 20
9.05057
 30
0.0
 40
0
 41
0
  0
VERTEX
  8
0
 10
2.17301
 20
9.05057
 30
0.0
 40
0
 41
0
  0
VERTEX
  8
0
 10
2.17301
 20
9.40912
 30
0.0
 40
0
 41
0
  0
SEQEND
 8
0
  0
POLYLINE
  8
0
 62
     0
 66
     1
 10
0
 20
0
 30
0.0
 70
     1
 40
0.15
 41
0.15
  0
VERTEX
  8
0
 10
2.17301
 20
9.40912
 30
0.0
 40
0.00208333
 41
0.00208333
  0
VERTEX
  8
0
 10
3.11344
 20
9.40912
 30
0.0
 40
0.00208333
 41
0.00208333
  0
VERTEX
  8
0
 10
3.11344
 20
9.05057
 30
0.0
 40
0.00208333
 41
0.00208333
  0
VERTEX
  8
0
 10
2.17301
 20
9.05057
 30
0.0
 40
0.00208333
 41
0.00208333
  0
VERTEX
  8
0
 10
2.17301
 20
9.40912
 30
0.0
 40
0.00208333
 41
0.00208333
  0
SEQEND
 8
0
  0
TEXT
  8
0
 62
     0
 10
2.35236
 20
9.22985
 30
0.0
 40
0.34375
  1
ULK
 50
0
  0
TEXT
  8
0
 62
     0
 10
3.02996
 20
9.22985
 30
0.0
 40
0.34375
  1
O
 50
0
  0
TEXT
  8
0
 62
     0
 10
3.29228
 20
9.22985
 30
0.0
 40
0.34375
  1
TILA
 50
0
  0
POLYLINE
  8
0
 62
     7
 66
     1
 10
0
 20
0
 30
0.0
 70
     1
 40
0
 41
0
  0
VERTEX
  8
0
 10
0.647407
 20
5.33203
 30
0.0
 40
0
 41
0
  0
VERTEX
  8
0
 10
3.30012
 20
5.33203
 30
0.0
 40
0
 41
0
  0
VERTEX
  8
0
 10
3.30012
 20
3.72569
 30
0.0
 40
0
 41
0
  0
VERTEX
  8
0
 10
0.647407
 20
3.72569
 30
0.0
 40
0
 41
0
  0
VERTEX
  8
0
 10
0.647407
 20
5.33203
 30
0.0
 40
0
 41
0
  0
SEQEND
 8
0
  0
POLYLINE
  8
0
 62
     7
 66
     1
 10
0
 20
0
 30
0.0
 70
     1
 40
0.15
 41
0.15
  0
VERTEX
  8
0
 10
0.647407
 20
5.33203
 30
0.0
 40
0.00208333
 41
0.00208333
  0
VERTEX
  8
0
 10
3.30012
 20
5.33203
 30
0.0
 40
0.00208333
 41
0.00208333
  0
VERTEX
  8
0
 10
3.30012
 20
3.72569
 30
0.0
 40
0.00208333
 41
0.00208333
  0
VERTEX
  8
0
 10
0.647407
 20
3.72569
 30
0.0
 40
0.00208333
 41
0.00208333
  0
VERTEX
  8
0
 10
0.647407
 20
5.33203
 30
0.0
 40
0.00208333
 41
0.00208333
  0
SEQEND
 8
0
  0
TEXT
  8
0
 62
     0
 10
1.97115
 20
4.68307
 30
0.0
 40
0.34375
  1
K
 50
0
  0
POLYLINE
  8
0
 62
     7
 66
     1
 10
0
 20
0
 30
0.0
 70
     1
 40
0
 41
0
  0
VERTEX
  8
0
 10
5.05062
 20
4.38069
 30
0.0
 40
0
 41
0
  0
VERTEX
  8
0
 10
3.30012
 20
4.38069
 30
0.0
 40
0
 41
0
  0
VERTEX
  8
0
 10
3.30012
 20
5.33203
 30
0.0
 40
0
 41
0
  0
VERTEX
  8
0
 10
0.647407
 20
5.33203
 30
0.0
 40
0
 41
0
  0
VERTEX
  8
0
 10
0.647407
 20
8.65474
 30
0.0
 40
0
 41
0
  0
VERTEX
  8
0
 10
5.05062
 20
8.65474
 30
0.0
 40
0
 41
0
  0
VERTEX
  8
0
 10
5.05062
 20
4.38069
 30
0.0
 40
0
 41
0
  0
SEQEND
 8
0
  0
POLYLINE
  8
0
 62
     7
 66
     1
 10
0
 20
0
 30
0.0
 70
     1
 40
0.15
 41
0.15
  0
VERTEX
  8
0
 10
5.05062
 20
4.38069
 30
0.0
 40
0.00208333
 41
0.00208333
  0
VERTEX
  8
0
 10
3.30012
 20
4.38069
 30
0.0
 40
0.00208333
 41
0.00208333
  0
VERTEX
  8
0
 10
3.30012
 20
5.33203
 30
0.0
 40
0.00208333
 41
0.00208333
  0
VERTEX
  8
0
 10
0.647407
 20
5.33203
 30
0.0
 40
0.00208333
 41
0.00208333
  0
VERTEX
  8
0
 10
0.647407
 20
8.65474
 30
0.0
 40
0.00208333
 41
0.00208333
  0
VERTEX
  8
0
 10
5.05062
 20
8.65474
 30
0.0
 40
0.00208333
 41
0.00208333
  0
VERTEX
  8
0
 10
5.05062
 20
4.38069
 30
0.0
 40
0.00208333
 41
0.00208333
  0
SEQEND
 8
0
  0
TEXT
  8
0
 62
     0
 10
2.84338
 20
6.85071
 30
0.0
 40
0.34375
  1
AH
 50
0
  0
POLYLINE
  8
0
 62
     7
 66
     1
 10
0
 20
0
 30
0.0
 70
     1
 40
0
 41
0
  0
VERTEX
  8
0
 10
5.05062
 20
1.1059
 30
0.0
 40
0
 41
0
  0
VERTEX
  8
0
 10
2.96718
 20
1.1059
 30
0.0
 40
0
 41
0
  0
VERTEX
  8
0
 10
2.96718
 20
3.62153
 30
0.0
 40
0
 41
0
  0
VERTEX
  8
0
 10
3.43207
 20
3.62153
 30
0.0
 40
0
 41
0
  0
VERTEX
  8
0
 10
3.43207
 20
4.30778
 30
0.0
 40
0
 41
0
  0
VERTEX
  8
0
 10
5.05062
 20
4.30778
 30
0.0
 40
0
 41
0
  0
VERTEX
  8
0
 10
5.05062
 20
1.1059
 30
0.0
 40
0
 41
0
  0
SEQEND
 8
0
  0
POLYLINE
  8
0
 62
     7
 66
     1
 10
0
 20
0
 30
0.0
 70
     1
 40
0.15
 41
0.15
  0
VERTEX
  8
0
 10
5.05062
 20
1.1059
 30
0.0
 40
0.00208333
 41
0.00208333
  0
VERTEX
  8
0
 10
2.96718
 20
1.1059
 30
0.0
 40
0.00208333
 41
0.00208333
  0
VERTEX
  8
0
 10
2.96718
 20
3.62153
 30
0.0
 40
0.00208333
 41
0.00208333
  0
VERTEX
  8
0
 10
3.43207
 20
3.62153
 30
0.0
 40
0.00208333
 41
0.00208333
  0
VERTEX
  8
0
 10
3.43207
 20
4.30778
 30
0.0
 40
0.00208333
 41
0.00208333
  0
VERTEX
  8
0
 10
5.05062
 20
4.30778
 30
0.0
 40
0.00208333
 41
0.00208333
  0
VERTEX
  8
0
 10
5.05062
 20
1.1059
 30
0.0
 40
0.00208333
 41
0.00208333
  0
SEQEND
 8
0
  0
TEXT
  8
0
 62
     0
 10
3.48122
 20
1.83979
 30
0.0
 40
0.34375
  1
ET
 50
0
  0
POLYLINE
  8
0
 62
     7
 66
     1
 10
0
 20
0
 30
0.0
 70
     1
 40
0
 41
0
  0
VERTEX
  8
0
 10
0.778537
 20
3.62369
 30
0.0
 40
0
 41
0
  0
VERTEX
  8
0
 10
2.8526
 20
3.62369
 30
0.0
 40
0
 41
0
  0
VERTEX
  8
0
 10
2.8526
 20
1.1059
 30
0.0
 40
0
 41
0
  0
VERTEX
  8
0
 10
0.778537
 20
1.1059
 30
0.0
 40
0
 41
0
  0
VERTEX
  8
0
 10
0.778537
 20
3.62369
 30
0.0
 40
0
 41
0
  0
SEQEND
 8
0
  0
POLYLINE
  8
0
 62
     7
 66
     1
 10
0
 20
0
 30
0.0
 70
     1
 40
0.15
 41
0.15
  0
VERTEX
  8
0
 10
0.778537
 20
3.62369
 30
0.0
 40
0.00208333
 41
0.00208333
  0
VERTEX
  8
0
 10
2.8526
 20
3.62369
 30
0.0
 40
0.00208333
 41
0.00208333
  0
VERTEX
  8
0
 10
2.8526
 20
1.1059
 30
0.0
 40
0.00208333
 41
0.00208333
  0
VERTEX
  8
0
 10
0.778537
 20
1.1059
 30
0.0
 40
0.00208333
 41
0.00208333
  0
VERTEX
  8
0
 10
0.778537
 20
3.62369
 30
0.0
 40
0.00208333
 41
0.00208333
  0
SEQEND
 8
0
  0
TEXT
  8
0
 62
     0
 10
1.67275
 20
2.3529
 30
0.0
 40
0.34375
  1
KH
 50
0
  0
POLYLINE
  8
0
 62
     0
 66
     1
 10
0
 20
0
 30
0.0
 70
     1
 40
0
 41
0
  0
VERTEX
  8
0
 10
0.351454
 20
9.05057
 30
0.0
 40
0
 41
0
  0
VERTEX
  8
0
 10
5.24854
 20
9.05057
 30
0.0
 40
0
 41
0
  0
VERTEX
  8
0
 10
5.05062
 20
8.65474
 30
0.0
 40
0
 41
0
  0
VERTEX
  8
0
 10
0.647407
 20
8.65474
 30
0.0
 40
0
 41
0
  0
VERTEX
  8
0
 10
0.351454
 20
9.05057
 30
0.0
 40
0
 41
0
  0
SEQEND
 8
0
  0
POLYLINE
  8
0
 62
     0
 66
     1
 10
0
 20
0
 30
0.0
 70
     1
 40
0.15
 41
0.15
  0
VERTEX
  8
0
 10
0.351454
 20
9.05057
 30
0.0
 40
0.00208333
 41
0.00208333
  0
VERTEX
  8
0
 10
5.24854
 20
9.05057
 30
0.0
 40
0.00208333
 41
0.00208333
  0
VERTEX
  8
0
 10
5.05062
 20
8.65474
 30
0.0
 40
0.00208333
 41
0.00208333
  0
VERTEX
  8
0
 10
0.647407
 20
8.65474
 30
0.0
 40
0.00208333
 41
0.00208333
  0
VERTEX
  8
0
 10
0.351454
 20
9.05057
 30
0.0
 40
0.00208333
 41
0.00208333
  0
SEQEND
 8
0
  0
POLYLINE
  8
0
 62
     7
 66
     1
 10
0
 20
0
 30
0.0
 70
     1
 40
0
 41
0
  0
VERTEX
  8
0
 10
2.2054
 20
9.05057
 30
0.0
 40
0
 41
0
  0
VERTEX
  8
0
 10
3.09185
 20
9.05057
 30
0.0
 40
0
 41
0
  0
VERTEX
  8
0
 10
3.09185
 20
8.65474
 30
0.0
 40
0
 41
0
  0
VERTEX
  8
0
 10
2.2054
 20
8.65474
 30
0.0
 40
0
 41
0
  0
VERTEX
  8
0
 10
2.2054
 20
9.05057
 30
0.0
 40
0
 41
0
  0
SEQEND
 8
0
  0
POLYLINE
  8
0
 62
     0
 66
     1
 10
0
 20
0
 30
0.0
 70
     1
 40
0.75
 41
0.75
  0
VERTEX
  8
0
 10
2.2054
 20
9.05057
 30
0.0
 40
0.0104167
 41
0.0104167
  0
VERTEX
  8
0
 10
3.09185
 20
9.05057
 30
0.0
 40
0.0104167
 41
0.0104167
  0
VERTEX
  8
0
 10
3.09185
 20
8.65474
 30
0.0
 40
0.0104167
 41
0.0104167
  0
VERTEX
  8
0
 10
2.2054
 20
8.65474
 30
0.0
 40
0.0104167
 41
0.0104167
  0
VERTEX
  8
0
 10
2.2054
 20
9.05057
 30
0.0
 40
0.0104167
 41
0.0104167
  0
SEQEND
 8
0
  0
POLYLINE
  8
0
 62
     7
 66
     1
 10
0
 20
0
 30
0.0
 70
     1
 40
0
 41
0
  0
VERTEX
  8
0
 10
2.2054
 20
9.05057
 30
0.0
 40
0
 41
0
  0
VERTEX
  8
0
 10
3.09185
 20
9.05057
 30
0.0
 40
0
 41
0
  0
VERTEX
  8
0
 10
3.09185
 20
8.65474
 30
0.0
 40
0
 41
0
  0
VERTEX
  8
0
 10
2.2054
 20
8.65474
 30
0.0
 40
0
 41
0
  0
VERTEX
  8
0
 10
2.2054
 20
9.05057
 30
0.0
 40
0
 41
0
  0
SEQEND
 8
0
  0
POLYLINE
  8
0
 62
     0
 66
     1
 10
0
 20
0
 30
0.0
 70
     1
 40
0.75
 41
0.75
  0
VERTEX
  8
0
 10
2.2054
 20
9.05057
 30
0.0
 40
0.0104167
 41
0.0104167
  0
VERTEX
  8
0
 10
3.09185
 20
9.05057
 30
0.0
 40
0.0104167
 41
0.0104167
  0
VERTEX
  8
0
 10
3.09185
 20
8.65474
 30
0.0
 40
0.0104167
 41
0.0104167
  0
VERTEX
  8
0
 10
2.2054
 20
8.65474
 30
0.0
 40
0.0104167
 41
0.0104167
  0
VERTEX
  8
0
 10
2.2054
 20
9.05057
 30
0.0
 40
0.0104167
 41
0.0104167
  0
SEQEND
 8
0
  0
POLYLINE
  8
0
 62
     0
 66
     1
 10
0
 20
0
 30
0.0
 70
     1
 40
0.75
 41
0.75
  0
VERTEX
  8
0
 10
2.2054
 20
8.65474
 30
0.0
 40
0.0104167
 41
0.0104167
  0
VERTEX
  8
0
 10
2.2054
 20
8.60281
 30
0.0
 40
0.0104167
 41
0.0104167
  0
VERTEX
  8
0
 10
2.21924
 20
8.447
 30
0.0
 40
0.0104167
 41
0.0104167
  0
VERTEX
  8
0
 10
2.26079
 20
8.26693
 30
0.0
 40
0.0104167
 41
0.0104167
  0
VERTEX
  8
0
 10
2.33003
 20
8.11458
 30
0.0
 40
0.0104167
 41
0.0104167
  0
VERTEX
  8
0
 10
2.42703
 20
7.9899
 30
0.0
 40
0.0104167
 41
0.0104167
  0
VERTEX
  8
0
 10
2.55165
 20
7.89296
 30
0.0
 40
0.0104167
 41
0.0104167
  0
VERTEX
  8
0
 10
2.704
 20
7.82374
 30
0.0
 40
0.0104167
 41
0.0104167
  0
VERTEX
  8
0
 10
2.88406
 20
7.78217
 30
0.0
 40
0.0104167
 41
0.0104167
  0
VERTEX
  8
0
 10
3.03988
 20
7.76828
 30
0.0
 40
0.0104167
 41
0.0104167
  0
VERTEX
  8
0
 10
3.09185
 20
7.76828
 30
0.0
 40
0.0104167
 41
0.0104167
  0
VERTEX
  8
0
 10
3.09185
 20
8.65474
 30
0.0
 40
0.0104167
 41
0.0104167
  0
VERTEX
  8
0
 10
2.2054
 20
8.65474
 30
0.0
 40
0.0104167
 41
0.0104167
  0
SEQEND
 8
0
  0
POLYLINE
  8
0
 62
     7
 66
     1
 10
0
 20
0
 30
0.0
 70
     1
 40
0
 41
0
  0
VERTEX
  8
0
 10
1.28885
 20
9.05057
 30
0.0
 40
0
 41
0
  0
VERTEX
  8
0
 10
2.08263
 20
9.05057
 30
0.0
 40
0
 41
0
  0
VERTEX
  8
0
 10
2.08263
 20
8.65474
 30
0.0
 40
0
 41
0
  0
VERTEX
  8
0
 10
1.28885
 20
8.65474
 30
0.0
 40
0
 41
0
  0
VERTEX
  8
0
 10
1.28885
 20
9.05057
 30
0.0
 40
0
 41
0
  0
SEQEND
 8
0
  0
POLYLINE
  8
0
 62
     0
 66
     1
 10
0
 20
0
 30
0.0
 70
     1
 40
0.75
 41
0.75
  0
VERTEX
  8
0
 10
1.28885
 20
9.05057
 30
0.0
 40
0.0104167
 41
0.0104167
  0
VERTEX
  8
0
 10
2.08263
 20
9.05057
 30
0.0
 40
0.0104167
 41
0.0104167
  0
VERTEX
  8
0
 10
2.08263
 20
8.65474
 30
0.0
 40
0.0104167
 41
0.0104167
  0
VERTEX
  8
0
 10
1.28885
 20
8.65474
 30
0.0
 40
0.0104167
 41
0.0104167
  0
VERTEX
  8
0
 10
1.28885
 20
9.05057
 30
0.0
 40
0.0104167
 41
0.0104167
  0
SEQEND
 8
0
  0
POLYLINE
  8
0
 62
     7
 66
     1
 10
0
 20
0
 30
0.0
 70
     1
 40
0
 41
0
  0
VERTEX
  8
0
 10
1.28885
 20
9.05057
 30
0.0
 40
0
 41
0
  0
VERTEX
  8
0
 10
2.08263
 20
9.05057
 30
0.0
 40
0
 41
0
  0
VERTEX
  8
0
 10
2.08263
 20
8.65474
 30
0.0
 40
0
 41
0
  0
VERTEX
  8
0
 10
1.28885
 20
8.65474
 30
0.0
 40
0
 41
0
  0
VERTEX
  8
0
 10
1.28885
 20
9.05057
 30
0.0
 40
0
 41
0
  0
SEQEND
 8
0
  0
POLYLINE
  8
0
 62
     0
 66
     1
 10
0
 20
0
 30
0.0
 70
     1
 40
0.75
 41
0.75
  0
VERTEX
  8
0
 10
1.28885
 20
9.05057
 30
0.0
 40
0.0104167
 41
0.0104167
  0
VERTEX
  8
0
 10
2.08263
 20
9.05057
 30
0.0
 40
0.0104167
 41
0.0104167
  0
VERTEX
  8
0
 10
2.08263
 20
8.65474
 30
0.0
 40
0.0104167
 41
0.0104167
  0
VERTEX
  8
0
 10
1.28885
 20
8.65474
 30
0.0
 40
0.0104167
 41
0.0104167
  0
VERTEX
  8
0
 10
1.28885
 20
9.05057
 30
0.0
 40
0.0104167
 41
0.0104167
  0
SEQEND
 8
0
  0
POLYLINE
  8
0
 62
     0
 66
     1
 10
0
 20
0
 30
0.0
 40
0.75
 41
0.75
  0
VERTEX
  8
0
 10
1.36702
 20
8.85265
 30
0.0
 40
0.0104167
 41
0.0104167
  0
VERTEX
  8
0
 10
2.0045
 20
8.85265
 30
0.0
 40
0.0104167
 41
0.0104167
  0
SEQEND
 8
0
  0
POLYLINE
  8
0
 62
     0
 66
     1
 10
0
 20
0
 30
0.0
 40
0.75
 41
0.75
  0
VERTEX
  8
0
 10
1.36702
 20
9.05057
 30
0.0
 40
0.0104167
 41
0.0104167
  0
VERTEX
  8
0
 10
1.36702
 20
8.65474
 30
0.0
 40
0.0104167
 41
0.0104167
  0
SEQEND
 8
0
  0
POLYLINE
  8
0
 62
     0
 66
     1
 10
0
 20
0
 30
0.0
 40
0.75
 41
0.75
  0
VERTEX
  8
0
 10
2.0045
 20
9.05057
 30
0.0
 40
0.0104167
 41
0.0104167
  0
VERTEX
  8
0
 10
2.0045
 20
8.65474
 30
0.0
 40
0.0104167
 41
0.0104167
  0
SEQEND
 8
0
  0
POLYLINE
  8
0
 62
     7
 66
     1
 10
0
 20
0
 30
0.0
 70
     1
 40
0
 41
0
  0
VERTEX
  8
0
 10
3.20096
 20
9.05057
 30
0.0
 40
0
 41
0
  0
VERTEX
  8
0
 10
4.78022
 20
9.05057
 30
0.0
 40
0
 41
0
  0
VERTEX
  8
0
 10
4.78022
 20
8.65474
 30
0.0
 40
0
 41
0
  0
VERTEX
  8
0
 10
3.20096
 20
8.65474
 30
0.0
 40
0
 41
0
  0
VERTEX
  8
0
 10
3.20096
 20
9.05057
 30
0.0
 40
0
 41
0
  0
SEQEND
 8
0
  0
POLYLINE
  8
0
 62
     0
 66
     1
 10
0
 20
0
 30
0.0
 70
     1
 40
0.75
 41
0.75
  0
VERTEX
  8
0
 10
3.20096
 20
9.05057
 30
0.0
 40
0.0104167
 41
0.0104167
  0
VERTEX
  8
0
 10
4.78022
 20
9.05057
 30
0.0
 40
0.0104167
 41
0.0104167
  0
VERTEX
  8
0
 10
4.78022
 20
8.65474
 30
0.0
 40
0.0104167
 41
0.0104167
  0
VERTEX
  8
0
 10
3.20096
 20
8.65474
 30
0.0
 40
0.0104167
 41
0.0104167
  0
VERTEX
  8
0
 10
3.20096
 20
9.05057
 30
0.0
 40
0.0104167
 41
0.0104167
  0
SEQEND
 8
0
  0
POLYLINE
  8
0
 62
     7
 66
     1
 10
0
 20
0
 30
0.0
 70
     1
 40
0
 41
0
  0
VERTEX
  8
0
 10
3.20096
 20
9.05057
 30
0.0
 40
0
 41
0
  0
VERTEX
  8
0
 10
4.78022
 20
9.05057
 30
0.0
 40
0
 41
0
  0
VERTEX
  8
0
 10
4.78022
 20
8.65474
 30
0.0
 40
0
 41
0
  0
VERTEX
  8
0
 10
3.20096
 20
8.65474
 30
0.0
 40
0
 41
0
  0
VERTEX
  8
0
 10
3.20096
 20
9.05057
 30
0.0
 40
0
 41
0
  0
SEQEND
 8
0
  0
POLYLINE
  8
0
 62
     0
 66
     1
 10
0
 20
0
 30
0.0
 70
     1
 40
0.75
 41
0.75
  0
VERTEX
  8
0
 10
3.20096
 20
9.05057
 30
0.0
 40
0.0104167
 41
0.0104167
  0
VERTEX
  8
0
 10
4.78022
 20
9.05057
 30
0.0
 40
0.0104167
 41
0.0104167
  0
VERTEX
  8
0
 10
4.78022
 20
8.65474
 30
0.0
 40
0.0104167
 41
0.0104167
  0
VERTEX
  8
0
 10
3.20096
 20
8.65474
 30
0.0
 40
0.0104167
 41
0.0104167
  0
VERTEX
  8
0
 10
3.20096
 20
9.05057
 30
0.0
 40
0.0104167
 41
0.0104167
  0
SEQEND
 8
0
  0
POLYLINE
  8
0
 62
     0
 66
     1
 10
0
 20
0
 30
0.0
 40
0.75
 41
0.75
  0
VERTEX
  8
0
 10
3.27908
 20
8.85265
 30
0.0
 40
0.0104167
 41
0.0104167
  0
VERTEX
  8
0
 10
4.7021
 20
8.85265
 30
0.0
 40
0.0104167
 41
0.0104167
  0
SEQEND
 8
0
  0
POLYLINE
  8
0
 62
     0
 66
     1
 10
0
 20
0
 30
0.0
 40
0.75
 41
0.75
  0
VERTEX
  8
0
 10
3.27908
 20
9.05057
 30
0.0
 40
0.0104167
 41
0.0104167
  0
VERTEX
  8
0
 10
3.27908
 20
8.65474
 30
0.0
 40
0.0104167
 41
0.0104167
  0
SEQEND
 8
0
  0
POLYLINE
  8
0
 62
     0
 66
     1
 10
0
 20
0
 30
0.0
 40
0.75
 41
0.75
  0
VERTEX
  8
0
 10
4.7021
 20
9.05057
 30
0.0
 40
0.0104167
 41
0.0104167
  0
VERTEX
  8
0
 10
4.7021
 20
8.65474
 30
0.0
 40
0.0104167
 41
0.0104167
  0
SEQEND
 8
0
  0
POLYLINE
  8
0
 62
     0
 66
     1
 10
0
 20
0
 30
0.0
 70
     1
 40
0
 41
0
  0
VERTEX
  8
0
 10
5.24854
 20
9.05057
 30
0.0
 40
0
 41
0
  0
VERTEX
  8
0
 10
5.24854
 20
0.907986
 30
0.0
 40
0
 41
0
  0
VERTEX
  8
0
 10
5.05062
 20
1.1059
 30
0.0
 40
0
 41
0
  0
VERTEX
  8
0
 10
5.05062
 20
8.65474
 30
0.0
 40
0
 41
0
  0
VERTEX
  8
0
 10
5.24854
 20
9.05057
 30
0.0
 40
0
 41
0
  0
SEQEND
 8
0
  0
POLYLINE
  8
0
 62
     0
 66
     1
 10
0
 20
0
 30
0.0
 70
     1
 40
0.15
 41
0.15
  0
VERTEX
  8
0
 10
5.24854
 20
9.05057
 30
0.0
 40
0.00208333
 41
0.00208333
  0
VERTEX
  8
0
 10
5.24854
 20
0.907986
 30
0.0
 40
0.00208333
 41
0.00208333
  0
VERTEX
  8
0
 10
5.05062
 20
1.1059
 30
0.0
 40
0.00208333
 41
0.00208333
  0
VERTEX
  8
0
 10
5.05062
 20
8.65474
 30
0.0
 40
0.00208333
 41
0.00208333
  0
VERTEX
  8
0
 10
5.24854
 20
9.05057
 30
0.0
 40
0.00208333
 41
0.00208333
  0
SEQEND
 8
0
  0
POLYLINE
  8
0
 62
     0
 66
     1
 10
0
 20
0
 30
0.0
 70
     1
 40
0
 41
0
  0
VERTEX
  8
0
 10
5.24854
 20
0.907986
 30
0.0
 40
0
 41
0
  0
VERTEX
  8
0
 10
0.351454
 20
0.907986
 30
0.0
 40
0
 41
0
  0
VERTEX
  8
0
 10
0.778537
 20
1.1059
 30
0.0
 40
0
 41
0
  0
VERTEX
  8
0
 10
5.05062
 20
1.1059
 30
0.0
 40
0
 41
0
  0
VERTEX
  8
0
 10
5.24854
 20
0.907986
 30
0.0
 40
0
 41
0
  0
SEQEND
 8
0
  0
POLYLINE
  8
0
 62
     0
 66
     1
 10
0
 20
0
 30
0.0
 70
     1
 40
0.15
 41
0.15
  0
VERTEX
  8
0
 10
5.24854
 20
0.907986
 30
0.0
 40
0.00208333
 41
0.00208333
  0
VERTEX
  8
0
 10
0.351454
 20
0.907986
 30
0.0
 40
0.00208333
 41
0.00208333
  0
VERTEX
  8
0
 10
0.778537
 20
1.1059
 30
0.0
 40
0.00208333
 41
0.00208333
  0
VERTEX
  8
0
 10
5.05062
 20
1.1059
 30
0.0
 40
0.00208333
 41
0.00208333
  0
VERTEX
  8
0
 10
5.24854
 20
0.907986
 30
0.0
 40
0.00208333
 41
0.00208333
  0
SEQEND
 8
0
  0
POLYLINE
  8
0
 62
     7
 66
     1
 10
0
 20
0
 30
0.0
 70
     1
 40
0
 41
0
  0
VERTEX
  8
0
 10
3.42176
 20
1.1059
 30
0.0
 40
0
 41
0
  0
VERTEX
  8
0
 10
4.32656
 20
1.1059
 30
0.0
 40
0
 41
0
  0
VERTEX
  8
0
 10
4.32656
 20
0.907986
 30
0.0
 40
0
 41
0
  0
VERTEX
  8
0
 10
3.42176
 20
0.907986
 30
0.0
 40
0
 41
0
  0
VERTEX
  8
0
 10
3.42176
 20
1.1059
 30
0.0
 40
0
 41
0
  0
SEQEND
 8
0
  0
POLYLINE
  8
0
 62
     0
 66
     1
 10
0
 20
0
 30
0.0
 70
     1
 40
0.75
 41
0.75
  0
VERTEX
  8
0
 10
3.42176
 20
1.1059
 30
0.0
 40
0.0104167
 41
0.0104167
  0
VERTEX
  8
0
 10
4.32656
 20
1.1059
 30
0.0
 40
0.0104167
 41
0.0104167
  0
VERTEX
  8
0
 10
4.32656
 20
0.907986
 30
0.0
 40
0.0104167
 41
0.0104167
  0
VERTEX
  8
0
 10
3.42176
 20
0.907986
 30
0.0
 40
0.0104167
 41
0.0104167
  0
VERTEX
  8
0
 10
3.42176
 20
1.1059
 30
0.0
 40
0.0104167
 41
0.0104167
  0
SEQEND
 8
0
  0
POLYLINE
  8
0
 62
     7
 66
     1
 10
0
 20
0
 30
0.0
 70
     1
 40
0
 41
0
  0
VERTEX
  8
0
 10
3.42176
 20
1.1059
 30
0.0
 40
0
 41
0
  0
VERTEX
  8
0
 10
4.32656
 20
1.1059
 30
0.0
 40
0
 41
0
  0
VERTEX
  8
0
 10
4.32656
 20
0.907986
 30
0.0
 40
0
 41
0
  0
VERTEX
  8
0
 10
3.42176
 20
0.907986
 30
0.0
 40
0
 41
0
  0
VERTEX
  8
0
 10
3.42176
 20
1.1059
 30
0.0
 40
0
 41
0
  0
SEQEND
 8
0
  0
POLYLINE
  8
0
 62
     0
 66
     1
 10
0
 20
0
 30
0.0
 70
     1
 40
0.75
 41
0.75
  0
VERTEX
  8
0
 10
3.42176
 20
1.1059
 30
0.0
 40
0.0104167
 41
0.0104167
  0
VERTEX
  8
0
 10
4.32656
 20
1.1059
 30
0.0
 40
0.0104167
 41
0.0104167
  0
VERTEX
  8
0
 10
4.32656
 20
0.907986
 30
0.0
 40
0.0104167
 41
0.0104167
  0
VERTEX
  8
0
 10
3.42176
 20
0.907986
 30
0.0
 40
0.0104167
 41
0.0104167
  0
VERTEX
  8
0
 10
3.42176
 20
1.1059
 30
0.0
 40
0.0104167
 41
0.0104167
  0
SEQEND
 8
0
  0
POLYLINE
  8
0
 62
     0
 66
     1
 10
0
 20
0
 30
0.0
 70
     1
 40
0.75
 41
0.75
  0
VERTEX
  8
0
 10
3.42176
 20
0.907986
 30
0.0
 40
0.0104167
 41
0.0104167
  0
VERTEX
  8
0
 10
3.42176
 20
0.854981
 30
0.0
 40
0.0104167
 41
0.0104167
  0
VERTEX
  8
0
 10
3.43587
 20
0.695964
 30
0.0
 40
0.0104167
 41
0.0104167
  0
VERTEX
  8
0
 10
3.47831
 20
0.512153
 30
0.0
 40
0.0104167
 41
0.0104167
  0
VERTEX
  8
0
 10
3.54899
 20
0.356663
 30
0.0
 40
0.0104167
 41
0.0104167
  0
VERTEX
  8
0
 10
3.64794
 20
0.229438
 30
0.0
 40
0.0104167
 41
0.0104167
  0
VERTEX
  8
0
 10
3.77518
 20
0.13048
 30
0.0
 40
0.0104167
 41
0.0104167
  0
VERTEX
  8
0
 10
3.93067
 20
0.0597874
 30
0.0
 40
0.0104167
 41
0.0104167
  0
VERTEX
  8
0
 10
4.11447
 20
0.0173611
 30
0.0
 40
0.0104167
 41
0.0104167
  0
VERTEX
  8
0
 10
4.27349
 20
0.00320096
 30
0.0
 40
0.0104167
 41
0.0104167
  0
VERTEX
  8
0
 10
4.32656
 20
0.00320096
 30
0.0
 40
0.0104167
 41
0.0104167
  0
VERTEX
  8
0
 10
4.32656
 20
0.907986
 30
0.0
 40
0.0104167
 41
0.0104167
  0
VERTEX
  8
0
 10
3.42176
 20
0.907986
 30
0.0
 40
0.0104167
 41
0.0104167
  0
SEQEND
 8
0
  0
POLYLINE
  8
0
 62
     0
 66
     1
 10
0
 20
0
 30
0.0
 70
     1
 40
0
 41
0
  0
VERTEX
  8
0
 10
0.351454
 20
0.907986
 30
0.0
 40
0
 41
0
  0
VERTEX
  8
0
 10
0.351454
 20
3.72569
 30
0.0
 40
0
 41
0
  0
VERTEX
  8
0
 10
0.778537
 20
3.72569
 30
0.0
 40
0
 41
0
  0
VERTEX
  8
0
 10
0.778537
 20
1.1059
 30
0.0
 40
0
 41
0
  0
VERTEX
  8
0
 10
0.351454
 20
0.907986
 30
0.0
 40
0
 41
0
  0
SEQEND
 8
0
  0
POLYLINE
  8
0
 62
     0
 66
     1
 10
0
 20
0
 30
0.0
 70
     1
 40
0.15
 41
0.15
  0
VERTEX
  8
0
 10
0.351454
 20
0.907986
 30
0.0
 40
0.00208333
 41
0.00208333
  0
VERTEX
  8
0
 10
0.351454
 20
3.72569
 30
0.0
 40
0.00208333
 41
0.00208333
  0
VERTEX
  8
0
 10
0.778537
 20
3.72569
 30
0.0
 40
0.00208333
 41
0.00208333
  0
VERTEX
  8
0
 10
0.778537
 20
1.1059
 30
0.0
 40
0.00208333
 41
0.00208333
  0
VERTEX
  8
0
 10
0.351454
 20
0.907986
 30
0.0
 40
0.00208333
 41
0.00208333
  0
SEQEND
 8
0
  0
POLYLINE
  8
0
 62
     0
 66
     1
 10
0
 20
0
 30
0.0
 70
     1
 40
0
 41
0
  0
VERTEX
  8
0
 10
0.351454
 20
3.72569
 30
0.0
 40
0
 41
0
  0
VERTEX
  8
0
 10
0.351454
 20
9.05057
 30
0.0
 40
0
 41
0
  0
VERTEX
  8
0
 10
0.647407
 20
8.65474
 30
0.0
 40
0
 41
0
  0
VERTEX
  8
0
 10
0.647407
 20
3.72569
 30
0.0
 40
0
 41
0
  0
VERTEX
  8
0
 10
0.351454
 20
3.72569
 30
0.0
 40
0
 41
0
  0
SEQEND
 8
0
  0
POLYLINE
  8
0
 62
     0
 66
     1
 10
0
 20
0
 30
0.0
 70
     1
 40
0.15
 41
0.15
  0
VERTEX
  8
0
 10
0.351454
 20
3.72569
 30
0.0
 40
0.00208333
 41
0.00208333
  0
VERTEX
  8
0
 10
0.351454
 20
9.05057
 30
0.0
 40
0.00208333
 41
0.00208333
  0
VERTEX
  8
0
 10
0.647407
 20
8.65474
 30
0.0
 40
0.00208333
 41
0.00208333
  0
VERTEX
  8
0
 10
0.647407
 20
3.72569
 30
0.0
 40
0.00208333
 41
0.00208333
  0
VERTEX
  8
0
 10
0.351454
 20
3.72569
 30
0.0
 40
0.00208333
 41
0.00208333
  0
SEQEND
 8
0
  0
POLYLINE
  8
0
 62
     0
 66
     1
 10
0
 20
0
 30
0.0
 70
     1
 40
0
 41
0
  0
VERTEX
  8
0
 10
2.8526
 20
3.72569
 30
0.0
 40
0
 41
0
  0
VERTEX
  8
0
 10
2.96718
 20
3.72569
 30
0.0
 40
0
 41
0
  0
VERTEX
  8
0
 10
2.96718
 20
0.907986
 30
0.0
 40
0
 41
0
  0
VERTEX
  8
0
 10
2.8526
 20
0.907986
 30
0.0
 40
0
 41
0
  0
VERTEX
  8
0
 10
2.8526
 20
3.72569
 30
0.0
 40
0
 41
0
  0
SEQEND
 8
0
  0
POLYLINE
  8
0
 62
     0
 66
     1
 10
0
 20
0
 30
0.0
 70
     1
 40
0.15
 41
0.15
  0
VERTEX
  8
0
 10
2.8526
 20
3.72569
 30
0.0
 40
0.00208333
 41
0.00208333
  0
VERTEX
  8
0
 10
2.96718
 20
3.72569
 30
0.0
 40
0.00208333
 41
0.00208333
  0
VERTEX
  8
0
 10
2.96718
 20
0.907986
 30
0.0
 40
0.00208333
 41
0.00208333
  0
VERTEX
  8
0
 10
2.8526
 20
0.907986
 30
0.0
 40
0.00208333
 41
0.00208333
  0
VERTEX
  8
0
 10
2.8526
 20
3.72569
 30
0.0
 40
0.00208333
 41
0.00208333
  0
SEQEND
 8
0
  0
POLYLINE
  8
0
 62
     7
 66
     1
 10
0
 20
0
 30
0.0
 70
     1
 40
0
 41
0
  0
VERTEX
  8
0
 10
2.8526
 20
3.20811
 30
0.0
 40
0
 41
0
  0
VERTEX
  8
0
 10
2.96718
 20
3.20811
 30
0.0
 40
0
 41
0
  0
VERTEX
  8
0
 10
2.96718
 20
2.36822
 30
0.0
 40
0
 41
0
  0
VERTEX
  8
0
 10
2.8526
 20
2.36822
 30
0.0
 40
0
 41
0
  0
VERTEX
  8
0
 10
2.8526
 20
3.20811
 30
0.0
 40
0
 41
0
  0
SEQEND
 8
0
  0
POLYLINE
  8
0
 62
     0
 66
     1
 10
0
 20
0
 30
0.0
 70
     1
 40
0.75
 41
0.75
  0
VERTEX
  8
0
 10
2.8526
 20
3.20811
 30
0.0
 40
0.0104167
 41
0.0104167
  0
VERTEX
  8
0
 10
2.96718
 20
3.20811
 30
0.0
 40
0.0104167
 41
0.0104167
  0
VERTEX
  8
0
 10
2.96718
 20
2.36822
 30
0.0
 40
0.0104167
 41
0.0104167
  0
VERTEX
  8
0
 10
2.8526
 20
2.36822
 30
0.0
 40
0.0104167
 41
0.0104167
  0
VERTEX
  8
0
 10
2.8526
 20
3.20811
 30
0.0
 40
0.0104167
 41
0.0104167
  0
SEQEND
 8
0
  0
POLYLINE
  8
0
 62
     7
 66
     1
 10
0
 20
0
 30
0.0
 70
     1
 40
0
 41
0
  0
VERTEX
  8
0
 10
2.8526
 20
3.20811
 30
0.0
 40
0
 41
0
  0
VERTEX
  8
0
 10
2.96718
 20
3.20811
 30
0.0
 40
0
 41
0
  0
VERTEX
  8
0
 10
2.96718
 20
2.36822
 30
0.0
 40
0
 41
0
  0
VERTEX
  8
0
 10
2.8526
 20
2.36822
 30
0.0
 40
0
 41
0
  0
VERTEX
  8
0
 10
2.8526
 20
3.20811
 30
0.0
 40
0
 41
0
  0
SEQEND
 8
0
  0
POLYLINE
  8
0
 62
     0
 66
     1
 10
0
 20
0
 30
0.0
 70
     1
 40
0.75
 41
0.75
  0
VERTEX
  8
0
 10
2.8526
 20
3.20811
 30
0.0
 40
0.0104167
 41
0.0104167
  0
VERTEX
  8
0
 10
2.96718
 20
3.20811
 30
0.0
 40
0.0104167
 41
0.0104167
  0
VERTEX
  8
0
 10
2.96718
 20
2.36822
 30
0.0
 40
0.0104167
 41
0.0104167
  0
VERTEX
  8
0
 10
2.8526
 20
2.36822
 30
0.0
 40
0.0104167
 41
0.0104167
  0
VERTEX
  8
0
 10
2.8526
 20
3.20811
 30
0.0
 40
0.0104167
 41
0.0104167
  0
SEQEND
 8
0
  0
POLYLINE
  8
0
 62
     0
 66
     1
 10
0
 20
0
 30
0.0
 70
     1
 40
0.75
 41
0.75
  0
VERTEX
  8
0
 10
2.96718
 20
3.20811
 30
0.0
 40
0.0104167
 41
0.0104167
  0
VERTEX
  8
0
 10
3.01639
 20
3.20811
 30
0.0
 40
0.0104167
 41
0.0104167
  0
VERTEX
  8
0
 10
3.16401
 20
3.19504
 30
0.0
 40
0.0104167
 41
0.0104167
  0
VERTEX
  8
0
 10
3.33464
 20
3.15565
 30
0.0
 40
0.0104167
 41
0.0104167
  0
VERTEX
  8
0
 10
3.47894
 20
3.09
 30
0.0
 40
0.0104167
 41
0.0104167
  0
VERTEX
  8
0
 10
3.59706
 20
2.99815
 30
0.0
 40
0.0104167
 41
0.0104167
  0
VERTEX
  8
0
 10
3.68896
 20
2.88004
 30
0.0
 40
0.0104167
 41
0.0104167
  0
VERTEX
  8
0
 10
3.75456
 20
2.73568
 30
0.0
 40
0.0104167
 41
0.0104167
  0
VERTEX
  8
0
 10
3.79394
 20
2.56511
 30
0.0
 40
0.0104167
 41
0.0104167
  0
VERTEX
  8
0
 10
3.80707
 20
2.41749
 30
0.0
 40
0.0104167
 41
0.0104167
  0
VERTEX
  8
0
 10
3.80707
 20
2.36822
 30
0.0
 40
0.0104167
 41
0.0104167
  0
VERTEX
  8
0
 10
2.96718
 20
2.36822
 30
0.0
 40
0.0104167
 41
0.0104167
  0
VERTEX
  8
0
 10
2.96718
 20
3.20811
 30
0.0
 40
0.0104167
 41
0.0104167
  0
SEQEND
 8
0
  0
POLYLINE
  8
0
 62
     0
 66
     1
 10
0
 20
0
 30
0.0
 70
     1
 40
0
 41
0
  0
VERTEX
  8
0
 10
0.683431
 20
3.72569
 30
0.0
 40
0
 41
0
  0
VERTEX
  8
0
 10
2.96718
 20
3.72569
 30
0.0
 40
0
 41
0
  0
VERTEX
  8
0
 10
2.96718
 20
3.62369
 30
0.0
 40
0
 41
0
  0
VERTEX
  8
0
 10
0.683431
 20
3.62369
 30
0.0
 40
0
 41
0
  0
VERTEX
  8
0
 10
0.683431
 20
3.72569
 30
0.0
 40
0
 41
0
  0
SEQEND
 8
0
  0
POLYLINE
  8
0
 62
     0
 66
     1
 10
0
 20
0
 30
0.0
 70
     1
 40
0.15
 41
0.15
  0
VERTEX
  8
0
 10
0.683431
 20
3.72569
 30
0.0
 40
0.00208333
 41
0.00208333
  0
VERTEX
  8
0
 10
2.96718
 20
3.72569
 30
0.0
 40
0.00208333
 41
0.00208333
  0
VERTEX
  8
0
 10
2.96718
 20
3.62369
 30
0.0
 40
0.00208333
 41
0.00208333
  0
VERTEX
  8
0
 10
0.683431
 20
3.62369
 30
0.0
 40
0.00208333
 41
0.00208333
  0
VERTEX
  8
0
 10
0.683431
 20
3.72569
 30
0.0
 40
0.00208333
 41
0.00208333
  0
SEQEND
 8
0
  0
POLYLINE
  8
0
 62
     0
 66
     1
 10
0
 20
0
 30
0.0
 70
     1
 40
0
 41
0
  0
VERTEX
  8
0
 10
2.96718
 20
3.72569
 30
0.0
 40
0
 41
0
  0
VERTEX
  8
0
 10
3.30012
 20
3.72569
 30
0.0
 40
0
 41
0
  0
VERTEX
  8
0
 10
3.43207
 20
3.62153
 30
0.0
 40
0
 41
0
  0
VERTEX
  8
0
 10
2.96718
 20
3.62153
 30
0.0
 40
0
 41
0
  0
VERTEX
  8
0
 10
2.96718
 20
3.72569
 30
0.0
 40
0
 41
0
  0
SEQEND
 8
0
  0
POLYLINE
  8
0
 62
     0
 66
     1
 10
0
 20
0
 30
0.0
 70
     1
 40
0.15
 41
0.15
  0
VERTEX
  8
0
 10
2.96718
 20
3.72569
 30
0.0
 40
0.00208333
 41
0.00208333
  0
VERTEX
  8
0
 10
3.30012
 20
3.72569
 30
0.0
 40
0.00208333
 41
0.00208333
  0
VERTEX
  8
0
 10
3.43207
 20
3.62153
 30
0.0
 40
0.00208333
 41
0.00208333
  0
VERTEX
  8
0
 10
2.96718
 20
3.62153
 30
0.0
 40
0.00208333
 41
0.00208333
  0
VERTEX
  8
0
 10
2.96718
 20
3.72569
 30
0.0
 40
0.00208333
 41
0.00208333
  0
SEQEND
 8
0
  0
POLYLINE
  8
0
 62
     0
 66
     1
 10
0
 20
0
 30
0.0
 70
     1
 40
0
 41
0
  0
VERTEX
  8
0
 10
3.43207
 20
3.62153
 30
0.0
 40
0
 41
0
  0
VERTEX
  8
0
 10
3.43207
 20
4.30778
 30
0.0
 40
0
 41
0
  0
VERTEX
  8
0
 10
3.30012
 20
4.38069
 30
0.0
 40
0
 41
0
  0
VERTEX
  8
0
 10
3.30012
 20
3.72569
 30
0.0
 40
0
 41
0
  0
VERTEX
  8
0
 10
3.43207
 20
3.62153
 30
0.0
 40
0
 41
0
  0
SEQEND
 8
0
  0
POLYLINE
  8
0
 62
     0
 66
     1
 10
0
 20
0
 30
0.0
 70
     1
 40
0.15
 41
0.15
  0
VERTEX
  8
0
 10
3.43207
 20
3.62153
 30
0.0
 40
0.00208333
 41
0.00208333
  0
VERTEX
  8
0
 10
3.43207
 20
4.30778
 30
0.0
 40
0.00208333
 41
0.00208333
  0
VERTEX
  8
0
 10
3.30012
 20
4.38069
 30
0.0
 40
0.00208333
 41
0.00208333
  0
VERTEX
  8
0
 10
3.30012
 20
3.72569
 30
0.0
 40
0.00208333
 41
0.00208333
  0
VERTEX
  8
0
 10
3.43207
 20
3.62153
 30
0.0
 40
0.00208333
 41
0.00208333
  0
SEQEND
 8
0
  0
POLYLINE
  8
0
 62
     0
 66
     1
 10
0
 20
0
 30
0.0
 70
     1
 40
0
 41
0
  0
VERTEX
  8
0
 10
3.30012
 20
4.38069
 30
0.0
 40
0
 41
0
  0
VERTEX
  8
0
 10
5.24854
 20
4.38069
 30
0.0
 40
0
 41
0
  0
VERTEX
  8
0
 10
5.24854
 20
4.30778
 30
0.0
 40
0
 41
0
  0
VERTEX
  8
0
 10
3.43207
 20
4.30778
 30
0.0
 40
0
 41
0
  0
VERTEX
  8
0
 10
3.30012
 20
4.38069
 30
0.0
 40
0
 41
0
  0
SEQEND
 8
0
  0
POLYLINE
  8
0
 62
     0
 66
     1
 10
0
 20
0
 30
0.0
 70
     1
 40
0.15
 41
0.15
  0
VERTEX
  8
0
 10
3.30012
 20
4.38069
 30
0.0
 40
0.00208333
 41
0.00208333
  0
VERTEX
  8
0
 10
5.24854
 20
4.38069
 30
0.0
 40
0.00208333
 41
0.00208333
  0
VERTEX
  8
0
 10
5.24854
 20
4.30778
 30
0.0
 40
0.00208333
 41
0.00208333
  0
VERTEX
  8
0
 10
3.43207
 20
4.30778
 30
0.0
 40
0.00208333
 41
0.00208333
  0
VERTEX
  8
0
 10
3.30012
 20
4.38069
 30
0.0
 40
0.00208333
 41
0.00208333
  0
SEQEND
 8
0
  0
POLYLINE
  8
0
 62
     7
 66
     1
 10
0
 20
0
 30
0.0
 70
     1
 40
0
 41
0
  0
VERTEX
  8
0
 10
3.4605
 20
4.38069
 30
0.0
 40
0
 41
0
  0
VERTEX
  8
0
 10
4.35633
 20
4.38069
 30
0.0
 40
0
 41
0
  0
VERTEX
  8
0
 10
4.35633
 20
4.30778
 30
0.0
 40
0
 41
0
  0
VERTEX
  8
0
 10
3.4605
 20
4.30778
 30
0.0
 40
0
 41
0
  0
VERTEX
  8
0
 10
3.4605
 20
4.38069
 30
0.0
 40
0
 41
0
  0
SEQEND
 8
0
  0
POLYLINE
  8
0
 62
     0
 66
     1
 10
0
 20
0
 30
0.0
 70
     1
 40
0.75
 41
0.75
  0
VERTEX
  8
0
 10
3.4605
 20
4.38069
 30
0.0
 40
0.0104167
 41
0.0104167
  0
VERTEX
  8
0
 10
4.35633
 20
4.38069
 30
0.0
 40
0.0104167
 41
0.0104167
  0
VERTEX
  8
0
 10
4.35633
 20
4.30778
 30
0.0
 40
0.0104167
 41
0.0104167
  0
VERTEX
  8
0
 10
3.4605
 20
4.30778
 30
0.0
 40
0.0104167
 41
0.0104167
  0
VERTEX
  8
0
 10
3.4605
 20
4.38069
 30
0.0
 40
0.0104167
 41
0.0104167
  0
SEQEND
 8
0
  0
POLYLINE
  8
0
 62
     7
 66
     1
 10
0
 20
0
 30
0.0
 70
     1
 40
0
 41
0
  0
VERTEX
  8
0
 10
3.4605
 20
4.38069
 30
0.0
 40
0
 41
0
  0
VERTEX
  8
0
 10
4.35633
 20
4.38069
 30
0.0
 40
0
 41
0
  0
VERTEX
  8
0
 10
4.35633
 20
4.30778
 30
0.0
 40
0
 41
0
  0
VERTEX
  8
0
 10
3.4605
 20
4.30778
 30
0.0
 40
0
 41
0
  0
VERTEX
  8
0
 10
3.4605
 20
4.38069
 30
0.0
 40
0
 41
0
  0
SEQEND
 8
0
  0
POLYLINE
  8
0
 62
     7
 66
     1
 10
0
 20
0
 30
0.0
 70
     1
 40
0.75
 41
0.75
  0
VERTEX
  8
0
 10
3.4605
 20
4.38069
 30
0.0
 40
0.0104167
 41
0.0104167
  0
VERTEX
  8
0
 10
4.35633
 20
4.38069
 30
0.0
 40
0.0104167
 41
0.0104167
  0
VERTEX
  8
0
 10
4.35633
 20
4.30778
 30
0.0
 40
0.0104167
 41
0.0104167
  0
VERTEX
  8
0
 10
3.4605
 20
4.30778
 30
0.0
 40
0.0104167
 41
0.0104167
  0
VERTEX
  8
0
 10
3.4605
 20
4.38069
 30
0.0
 40
0.0104167
 41
0.0104167
  0
SEQEND
 8
0
  0
POLYLINE
  8
0
 62
     7
 66
     1
 10
0
 20
0
 30
0.0
 70
     1
 40
0
 41
0
  0
VERTEX
  8
0
 10
1.2953
 20
1.40087
 30
0.0
 40
0
 41
0
  0
VERTEX
  8
0
 10
1.71186
 20
1.40087
 30
0.0
 40
0
 41
0
  0
VERTEX
  8
0
 10
1.71186
 20
1.2136
 30
0.0
 40
0
 41
0
  0
VERTEX
  8
0
 10
1.2953
 20
1.2136
 30
0.0
 40
0
 41
0
  0
VERTEX
  8
0
 10
1.2953
 20
1.40087
 30
0.0
 40
0
 41
0
  0
SEQEND
 8
0
  0
POLYLINE
  8
0
 62
     0
 66
     1
 10
0
 20
0
 30
0.0
 70
     1
 40
0.75
 41
0.75
  0
VERTEX
  8
0
 10
1.2953
 20
1.40087
 30
0.0
 40
0.0104167
 41
0.0104167
  0
VERTEX
  8
0
 10
1.71186
 20
1.40087
 30
0.0
 40
0.0104167
 41
0.0104167
  0
VERTEX
  8
0
 10
1.71186
 20
1.2136
 30
0.0
 40
0.0104167
 41
0.0104167
  0
VERTEX
  8
0
 10
1.2953
 20
1.2136
 30
0.0
 40
0.0104167
 41
0.0104167
  0
VERTEX
  8
0
 10
1.2953
 20
1.40087
 30
0.0
 40
0.0104167
 41
0.0104167
  0
SEQEND
 8
0
  0
POLYLINE
  8
0
 62
     7
 66
     1
 10
0
 20
0
 30
0.0
 70
     1
 40
0
 41
0
  0
VERTEX
  8
0
 10
1.2953
 20
1.66917
 30
0.0
 40
0
 41
0
  0
VERTEX
  8
0
 10
1.2953
 20
1.66917
 30
0.0
 40
0
 41
0
  0
VERTEX
  8
0
 10
1.29519
 20
1.68093
 30
0.0
 40
0
 41
0
  0
VERTEX
  8
0
 10
1.29682
 20
1.71192
 30
0.0
 40
0
 41
0
  0
VERTEX
  8
0
 10
1.30295
 20
1.75575
 30
0.0
 40
0
 41
0
  0
VERTEX
  8
0
 10
1.31641
 20
1.80599
 30
0.0
 40
0
 41
0
  0
VERTEX
  8
0
 10
1.33995
 20
1.85622
 30
0.0
 40
0
 41
0
  0
VERTEX
  8
0
 10
1.37641
 20
1.90007
 30
0.0
 40
0
 41
0
  0
VERTEX
  8
0
 10
1.42854
 20
1.93104
 30
0.0
 40
0
 41
0
  0
VERTEX
  8
0
 10
1.48161
 20
1.94276
 30
0.0
 40
0
 41
0
  0
VERTEX
  8
0
 10
1.49929
 20
1.94276
 30
0.0
 40
0
 41
0
  0
VERTEX
  8
0
 10
1.51758
 20
1.94276
 30
0.0
 40
0
 41
0
  0
VERTEX
  8
0
 10
1.57243
 20
1.93104
 30
0.0
 40
0
 41
0
  0
VERTEX
  8
0
 10
1.62651
 20
1.90007
 30
0.0
 40
0
 41
0
  0
VERTEX
  8
0
 10
1.66433
 20
1.85622
 30
0.0
 40
0
 41
0
  0
VERTEX
  8
0
 10
1.68875
 20
1.80599
 30
0.0
 40
0
 41
0
  0
VERTEX
  8
0
 10
1.70275
 20
1.75575
 30
0.0
 40
0
 41
0
  0
VERTEX
  8
0
 10
1.70915
 20
1.71192
 30
0.0
 40
0
 41
0
  0
VERTEX
  8
0
 10
1.71089
 20
1.68093
 30
0.0
 40
0
 41
0
  0
VERTEX
  8
0
 10
1.71083
 20
1.66917
 30
0.0
 40
0
 41
0
  0
VERTEX
  8
0
 10
1.71083
 20
1.66917
 30
0.0
 40
0
 41
0
  0
VERTEX
  8
0
 10
1.71192
 20
1.40087
 30
0.0
 40
0
 41
0
  0
VERTEX
  8
0
 10
1.2953
 20
1.40087
 30
0.0
 40
0
 41
0
  0
VERTEX
  8
0
 10
1.2953
 20
1.66917
 30
0.0
 40
0
 41
0
  0
SEQEND
 8
0
  0
POLYLINE
  8
0
 62
     0
 66
     1
 10
0
 20
0
 30
0.0
 70
     1
 40
0.75
 41
0.75
  0
VERTEX
  8
0
 10
1.2953
 20
1.66917
 30
0.0
 40
0.0104167
 41
0.0104167
  0
VERTEX
  8
0
 10
1.2953
 20
1.66917
 30
0.0
 40
0.0104167
 41
0.0104167
  0
VERTEX
  8
0
 10
1.29519
 20
1.68093
 30
0.0
 40
0.0104167
 41
0.0104167
  0
VERTEX
  8
0
 10
1.29682
 20
1.71192
 30
0.0
 40
0.0104167
 41
0.0104167
  0
VERTEX
  8
0
 10
1.30295
 20
1.75575
 30
0.0
 40
0.0104167
 41
0.0104167
  0
VERTEX
  8
0
 10
1.31641
 20
1.80599
 30
0.0
 40
0.0104167
 41
0.0104167
  0
VERTEX
  8
0
 10
1.33995
 20
1.85622
 30
0.0
 40
0.0104167
 41
0.0104167
  0
VERTEX
  8
0
 10
1.37641
 20
1.90007
 30
0.0
 40
0.0104167
 41
0.0104167
  0
VERTEX
  8
0
 10
1.42854
 20
1.93104
 30
0.0
 40
0.0104167
 41
0.0104167
  0
VERTEX
  8
0
 10
1.48161
 20
1.94276
 30
0.0
 40
0.0104167
 41
0.0104167
  0
VERTEX
  8
0
 10
1.49929
 20
1.94276
 30
0.0
 40
0.0104167
 41
0.0104167
  0
VERTEX
  8
0
 10
1.51758
 20
1.94276
 30
0.0
 40
0.0104167
 41
0.0104167
  0
VERTEX
  8
0
 10
1.57243
 20
1.93104
 30
0.0
 40
0.0104167
 41
0.0104167
  0
VERTEX
  8
0
 10
1.62651
 20
1.90007
 30
0.0
 40
0.0104167
 41
0.0104167
  0
VERTEX
  8
0
 10
1.66433
 20
1.85622
 30
0.0
 40
0.0104167
 41
0.0104167
  0
VERTEX
  8
0
 10
1.68875
 20
1.80599
 30
0.0
 40
0.0104167
 41
0.0104167
  0
VERTEX
  8
0
 10
1.70275
 20
1.75575
 30
0.0
 40
0.0104167
 41
0.0104167
  0
VERTEX
  8
0
 10
1.70915
 20
1.71192
 30
0.0
 40
0.0104167
 41
0.0104167
  0
VERTEX
  8
0
 10
1.71089
 20
1.68093
 30
0.0
 40
0.0104167
 41
0.0104167
  0
VERTEX
  8
0
 10
1.71083
 20
1.66917
 30
0.0
 40
0.0104167
 41
0.0104167
  0
VERTEX
  8
0
 10
1.71083
 20
1.66917
 30
0.0
 40
0.0104167
 41
0.0104167
  0
VERTEX
  8
0
 10
1.71192
 20
1.40087
 30
0.0
 40
0.0104167
 41
0.0104167
  0
VERTEX
  8
0
 10
1.2953
 20
1.40087
 30
0.0
 40
0.0104167
 41
0.0104167
  0
VERTEX
  8
0
 10
1.2953
 20
1.66917
 30
0.0
 40
0.0104167
 41
0.0104167
  0
SEQEND
 8
0
  0
POLYLINE
  8
0
 62
     7
 66
     1
 10
0
 20
0
 30
0.0
 70
     1
 40
0
 41
0
  0
VERTEX
  8
0
 10
1.47049
 20
1.32302
 30
0.0
 40
0
 41
0
  0
VERTEX
  8
0
 10
1.53668
 20
1.32302
 30
0.0
 40
0
 41
0
  0
VERTEX
  8
0
 10
1.53668
 20
1.29145
 30
0.0
 40
0
 41
0
  0
VERTEX
  8
0
 10
1.47049
 20
1.29145
 30
0.0
 40
0
 41
0
  0
VERTEX
  8
0
 10
1.47049
 20
1.32302
 30
0.0
 40
0
 41
0
  0
SEQEND
 8
0
  0
POLYLINE
  8
0
 62
     0
 66
     1
 10
0
 20
0
 30
0.0
 70
     1
 40
0.75
 41
0.75
  0
VERTEX
  8
0
 10
1.47049
 20
1.32302
 30
0.0
 40
0.0104167
 41
0.0104167
  0
VERTEX
  8
0
 10
1.53668
 20
1.32302
 30
0.0
 40
0.0104167
 41
0.0104167
  0
VERTEX
  8
0
 10
1.53668
 20
1.29145
 30
0.0
 40
0.0104167
 41
0.0104167
  0
VERTEX
  8
0
 10
1.47049
 20
1.29145
 30
0.0
 40
0.0104167
 41
0.0104167
  0
VERTEX
  8
0
 10
1.47049
 20
1.32302
 30
0.0
 40
0.0104167
 41
0.0104167
  0
SEQEND
 8
0
  0
POLYLINE
  8
0
 62
     7
 66
     1
 10
0
 20
0
 30
0.0
 70
     1
 40
0
 41
0
  0
VERTEX
  8
0
 10
1.89714
 20
1.92312
 30
0.0
 40
0
 41
0
  0
VERTEX
  8
0
 10
1.92318
 20
1.92312
 30
0.0
 40
0
 41
0
  0
VERTEX
  8
0
 10
1.92318
 20
1.10596
 30
0.0
 40
0
 41
0
  0
VERTEX
  8
0
 10
1.89714
 20
1.10596
 30
0.0
 40
0
 41
0
  0
VERTEX
  8
0
 10
1.89714
 20
1.92312
 30
0.0
 40
0
 41
0
  0
SEQEND
 8
0
  0
POLYLINE
  8
0
 62
     0
 66
     1
 10
0
 20
0
 30
0.0
 70
     1
 40
0.75
 41
0.75
  0
VERTEX
  8
0
 10
1.89714
 20
1.92312
 30
0.0
 40
0.0104167
 41
0.0104167
  0
VERTEX
  8
0
 10
1.92318
 20
1.92312
 30
0.0
 40
0.0104167
 41
0.0104167
  0
VERTEX
  8
0
 10
1.92318
 20
1.10596
 30
0.0
 40
0.0104167
 41
0.0104167
  0
VERTEX
  8
0
 10
1.89714
 20
1.10596
 30
0.0
 40
0.0104167
 41
0.0104167
  0
VERTEX
  8
0
 10
1.89714
 20
1.92312
 30
0.0
 40
0.0104167
 41
0.0104167
  0
SEQEND
 8
0
  0
POLYLINE
  8
0
 62
     7
 66
     1
 10
0
 20
0
 30
0.0
 70
     1
 40
0
 41
0
  0
VERTEX
  8
0
 10
1.89714
 20
1.92312
 30
0.0
 40
0
 41
0
  0
VERTEX
  8
0
 10
1.92318
 20
1.92312
 30
0.0
 40
0
 41
0
  0
VERTEX
  8
0
 10
1.92318
 20
1.10596
 30
0.0
 40
0
 41
0
  0
VERTEX
  8
0
 10
1.89714
 20
1.10596
 30
0.0
 40
0
 41
0
  0
VERTEX
  8
0
 10
1.89714
 20
1.92312
 30
0.0
 40
0
 41
0
  0
SEQEND
 8
0
  0
POLYLINE
  8
0
 62
     0
 66
     1
 10
0
 20
0
 30
0.0
 70
     1
 40
0.75
 41
0.75
  0
VERTEX
  8
0
 10
1.89714
 20
1.92312
 30
0.0
 40
0.0104167
 41
0.0104167
  0
VERTEX
  8
0
 10
1.92318
 20
1.92312
 30
0.0
 40
0.0104167
 41
0.0104167
  0
VERTEX
  8
0
 10
1.92318
 20
1.10596
 30
0.0
 40
0.0104167
 41
0.0104167
  0
VERTEX
  8
0
 10
1.89714
 20
1.10596
 30
0.0
 40
0.0104167
 41
0.0104167
  0
VERTEX
  8
0
 10
1.89714
 20
1.92312
 30
0.0
 40
0.0104167
 41
0.0104167
  0
SEQEND
 8
0
  0
POLYLINE
  8
0
 62
     7
 66
     1
 10
0
 20
0
 30
0.0
 70
     1
 40
0
 41
0
  0
VERTEX
  8
0
 10
2.3999
 20
1.1747
 30
0.0
 40
0
 41
0
  0
VERTEX
  8
0
 10
2.51654
 20
1.1747
 30
0.0
 40
0
 41
0
  0
VERTEX
  8
0
 10
2.51654
 20
1.11117
 30
0.0
 40
0
 41
0
  0
VERTEX
  8
0
 10
2.3999
 20
1.11117
 30
0.0
 40
0
 41
0
  0
VERTEX
  8
0
 10
2.3999
 20
1.1747
 30
0.0
 40
0
 41
0
  0
SEQEND
 8
0
  0
POLYLINE
  8
0
 62
     0
 66
     1
 10
0
 20
0
 30
0.0
 70
     1
 40
0.75
 41
0.75
  0
VERTEX
  8
0
 10
2.3999
 20
1.1747
 30
0.0
 40
0.0104167
 41
0.0104167
  0
VERTEX
  8
0
 10
2.51654
 20
1.1747
 30
0.0
 40
0.0104167
 41
0.0104167
  0
VERTEX
  8
0
 10
2.51654
 20
1.11117
 30
0.0
 40
0.0104167
 41
0.0104167
  0
VERTEX
  8
0
 10
2.3999
 20
1.11117
 30
0.0
 40
0.0104167
 41
0.0104167
  0
VERTEX
  8
0
 10
2.3999
 20
1.1747
 30
0.0
 40
0.0104167
 41
0.0104167
  0
SEQEND
 8
0
  0
POLYLINE
  8
0
 62
     7
 66
     1
 10
0
 20
0
 30
0.0
 70
     1
 40
0
 41
0
  0
VERTEX
  8
0
 10
2.2551
 20
1.1747
 30
0.0
 40
0
 41
0
  0
VERTEX
  8
0
 10
2.37175
 20
1.1747
 30
0.0
 40
0
 41
0
  0
VERTEX
  8
0
 10
2.37175
 20
1.11117
 30
0.0
 40
0
 41
0
  0
VERTEX
  8
0
 10
2.2551
 20
1.11117
 30
0.0
 40
0
 41
0
  0
VERTEX
  8
0
 10
2.2551
 20
1.1747
 30
0.0
 40
0
 41
0
  0
SEQEND
 8
0
  0
POLYLINE
  8
0
 62
     0
 66
     1
 10
0
 20
0
 30
0.0
 70
     1
 40
0.75
 41
0.75
  0
VERTEX
  8
0
 10
2.2551
 20
1.1747
 30
0.0
 40
0.0104167
 41
0.0104167
  0
VERTEX
  8
0
 10
2.37175
 20
1.1747
 30
0.0
 40
0.0104167
 41
0.0104167
  0
VERTEX
  8
0
 10
2.37175
 20
1.11117
 30
0.0
 40
0.0104167
 41
0.0104167
  0
VERTEX
  8
0
 10
2.2551
 20
1.11117
 30
0.0
 40
0.0104167
 41
0.0104167
  0
VERTEX
  8
0
 10
2.2551
 20
1.1747
 30
0.0
 40
0.0104167
 41
0.0104167
  0
SEQEND
 8
0
  0
POLYLINE
  8
0
 62
     7
 66
     1
 10
0
 20
0
 30
0.0
 70
     1
 40
0
 41
0
  0
VERTEX
  8
0
 10
2.22071
 20
1.1747
 30
0.0
 40
0
 41
0
  0
VERTEX
  8
0
 10
2.25612
 20
1.1747
 30
0.0
 40
0
 41
0
  0
VERTEX
  8
0
 10
2.25612
 20
1.11117
 30
0.0
 40
0
 41
0
  0
VERTEX
  8
0
 10
2.22071
 20
1.11117
 30
0.0
 40
0
 41
0
  0
VERTEX
  8
0
 10
2.22071
 20
1.1747
 30
0.0
 40
0
 41
0
  0
SEQEND
 8
0
  0
POLYLINE
  8
0
 62
     0
 66
     1
 10
0
 20
0
 30
0.0
 70
     1
 40
0.75
 41
0.75
  0
VERTEX
  8
0
 10
2.22071
 20
1.1747
 30
0.0
 40
0.0104167
 41
0.0104167
  0
VERTEX
  8
0
 10
2.25612
 20
1.1747
 30
0.0
 40
0.0104167
 41
0.0104167
  0
VERTEX
  8
0
 10
2.25612
 20
1.11117
 30
0.0
 40
0.0104167
 41
0.0104167
  0
VERTEX
  8
0
 10
2.22071
 20
1.11117
 30
0.0
 40
0.0104167
 41
0.0104167
  0
VERTEX
  8
0
 10
2.22071
 20
1.1747
 30
0.0
 40
0.0104167
 41
0.0104167
  0
SEQEND
 8
0
  0
POLYLINE
  8
0
 62
     7
 66
     1
 10
0
 20
0
 30
0.0
 70
     1
 40
0
 41
0
  0
VERTEX
  8
0
 10
2.51654
 20
1.1747
 30
0.0
 40
0
 41
0
  0
VERTEX
  8
0
 10
2.54986
 20
1.1747
 30
0.0
 40
0
 41
0
  0
VERTEX
  8
0
 10
2.54986
 20
1.11117
 30
0.0
 40
0
 41
0
  0
VERTEX
  8
0
 10
2.51654
 20
1.11117
 30
0.0
 40
0
 41
0
  0
VERTEX
  8
0
 10
2.51654
 20
1.1747
 30
0.0
 40
0
 41
0
  0
SEQEND
 8
0
  0
POLYLINE
  8
0
 62
     0
 66
     1
 10
0
 20
0
 30
0.0
 70
     1
 40
0.75
 41
0.75
  0
VERTEX
  8
0
 10
2.51654
 20
1.1747
 30
0.0
 40
0.0104167
 41
0.0104167
  0
VERTEX
  8
0
 10
2.54986
 20
1.1747
 30
0.0
 40
0.0104167
 41
0.0104167
  0
VERTEX
  8
0
 10
2.54986
 20
1.11117
 30
0.0
 40
0.0104167
 41
0.0104167
  0
VERTEX
  8
0
 10
2.51654
 20
1.11117
 30
0.0
 40
0.0104167
 41
0.0104167
  0
VERTEX
  8
0
 10
2.51654
 20
1.1747
 30
0.0
 40
0.0104167
 41
0.0104167
  0
SEQEND
 8
0
  0
POLYLINE
  8
0
 62
     7
 66
     1
 10
0
 20
0
 30
0.0
 70
     1
 40
0
 41
0
  0
VERTEX
  8
0
 10
2.3999
 20
1.1945
 30
0.0
 40
0
 41
0
  0
VERTEX
  8
0
 10
2.3999
 20
1.20085
 30
0.0
 40
0
 41
0
  0
VERTEX
  8
0
 10
2.40349
 20
1.21978
 30
0.0
 40
0
 41
0
  0
VERTEX
  8
0
 10
2.41342
 20
1.24219
 30
0.0
 40
0
 41
0
  0
VERTEX
  8
0
 10
2.41656
 20
1.24658
 30
0.0
 40
0
 41
0
  0
VERTEX
  8
0
 10
2.41758
 20
1.24816
 30
0.0
 40
0
 41
0
  0
VERTEX
  8
0
 10
2.42774
 20
1.26275
 30
0.0
 40
0
 41
0
  0
VERTEX
  8
0
 10
2.428
 20
1.26427
 30
0.0
 40
0
 41
0
  0
VERTEX
  8
0
 10
2.4285
 20
1.26714
 30
0.0
 40
0
 41
0
  0
VERTEX
  8
0
 10
2.42432
 20
1.28369
 30
0.0
 40
0
 41
0
  0
VERTEX
  8
0
 10
2.40767
 20
1.2966
 30
0.0
 40
0
 41
0
  0
VERTEX
  8
0
 10
2.40196
 20
1.29763
 30
0.0
 40
0
 41
0
  0
VERTEX
  8
0
 10
2.40067
 20
1.29791
 30
0.0
 40
0
 41
0
  0
VERTEX
  8
0
 10
2.38911
 20
1.29867
 30
0.0
 40
0
 41
0
  0
VERTEX
  8
0
 10
2.38531
 20
1.29867
 30
0.0
 40
0
 41
0
  0
VERTEX
  8
0
 10
2.38633
 20
1.29867
 30
0.0
 40
0
 41
0
  0
VERTEX
  8
0
 10
2.38217
 20
1.29867
 30
0.0
 40
0
 41
0
  0
VERTEX
  8
0
 10
2.37099
 20
1.29791
 30
0.0
 40
0
 41
0
  0
VERTEX
  8
0
 10
2.36968
 20
1.29763
 30
0.0
 40
0
 41
0
  0
VERTEX
  8
0
 10
2.36393
 20
1.2966
 30
0.0
 40
0
 41
0
  0
VERTEX
  8
0
 10
2.34722
 20
1.28369
 30
0.0
 40
0
 41
0
  0
VERTEX
  8
0
 10
2.3431
 20
1.26714
 30
0.0
 40
0
 41
0
  0
VERTEX
  8
0
 10
2.34364
 20
1.26427
 30
0.0
 40
0
 41
0
  0
VERTEX
  8
0
 10
2.34386
 20
1.26275
 30
0.0
 40
0
 41
0
  0
VERTEX
  8
0
 10
2.354
 20
1.24816
 30
0.0
 40
0
 41
0
  0
VERTEX
  8
0
 10
2.35508
 20
1.24658
 30
0.0
 40
0
 41
0
  0
VERTEX
  8
0
 10
2.35818
 20
1.24219
 30
0.0
 40
0
 41
0
  0
VERTEX
  8
0
 10
2.36806
 20
1.21978
 30
0.0
 40
0
 41
0
  0
VERTEX
  8
0
 10
2.37175
 20
1.20085
 30
0.0
 40
0
 41
0
  0
VERTEX
  8
0
 10
2.37175
 20
1.1945
 30
0.0
 40
0
 41
0
  0
SEQEND
 8
0
  0
POLYLINE
  8
0
 62
     0
 66
     1
 10
0
 20
0
 30
0.0
 40
0.75
 41
0.75
  0
VERTEX
  8
0
 10
2.3999
 20
1.1945
 30
0.0
 40
0.0104167
 41
0.0104167
  0
VERTEX
  8
0
 10
2.3999
 20
1.20085
 30
0.0
 40
0.0104167
 41
0.0104167
  0
VERTEX
  8
0
 10
2.40349
 20
1.21978
 30
0.0
 40
0.0104167
 41
0.0104167
  0
VERTEX
  8
0
 10
2.41342
 20
1.24219
 30
0.0
 40
0.0104167
 41
0.0104167
  0
VERTEX
  8
0
 10
2.41656
 20
1.24658
 30
0.0
 40
0.0104167
 41
0.0104167
  0
VERTEX
  8
0
 10
2.41758
 20
1.24816
 30
0.0
 40
0.0104167
 41
0.0104167
  0
VERTEX
  8
0
 10
2.42774
 20
1.26275
 30
0.0
 40
0.0104167
 41
0.0104167
  0
VERTEX
  8
0
 10
2.428
 20
1.26427
 30
0.0
 40
0.0104167
 41
0.0104167
  0
VERTEX
  8
0
 10
2.4285
 20
1.26714
 30
0.0
 40
0.0104167
 41
0.0104167
  0
VERTEX
  8
0
 10
2.42432
 20
1.28369
 30
0.0
 40
0.0104167
 41
0.0104167
  0
VERTEX
  8
0
 10
2.40767
 20
1.2966
 30
0.0
 40
0.0104167
 41
0.0104167
  0
VERTEX
  8
0
 10
2.40196
 20
1.29763
 30
0.0
 40
0.0104167
 41
0.0104167
  0
VERTEX
  8
0
 10
2.40067
 20
1.29791
 30
0.0
 40
0.0104167
 41
0.0104167
  0
VERTEX
  8
0
 10
2.38911
 20
1.29867
 30
0.0
 40
0.0104167
 41
0.0104167
  0
VERTEX
  8
0
 10
2.38531
 20
1.29867
 30
0.0
 40
0.0104167
 41
0.0104167
  0
VERTEX
  8
0
 10
2.38633
 20
1.29867
 30
0.0
 40
0.0104167
 41
0.0104167
  0
VERTEX
  8
0
 10
2.38217
 20
1.29867
 30
0.0
 40
0.0104167
 41
0.0104167
  0
VERTEX
  8
0
 10
2.37099
 20
1.29791
 30
0.0
 40
0.0104167
 41
0.0104167
  0
VERTEX
  8
0
 10
2.36968
 20
1.29763
 30
0.0
 40
0.0104167
 41
0.0104167
  0
VERTEX
  8
0
 10
2.36393
 20
1.2966
 30
0.0
 40
0.0104167
 41
0.0104167
  0
VERTEX
  8
0
 10
2.34722
 20
1.28369
 30
0.0
 40
0.0104167
 41
0.0104167
  0
VERTEX
  8
0
 10
2.3431
 20
1.26714
 30
0.0
 40
0.0104167
 41
0.0104167
  0
VERTEX
  8
0
 10
2.34364
 20
1.26427
 30
0.0
 40
0.0104167
 41
0.0104167
  0
VERTEX
  8
0
 10
2.34386
 20
1.26275
 30
0.0
 40
0.0104167
 41
0.0104167
  0
VERTEX
  8
0
 10
2.354
 20
1.24816
 30
0.0
 40
0.0104167
 41
0.0104167
  0
VERTEX
  8
0
 10
2.35508
 20
1.24658
 30
0.0
 40
0.0104167
 41
0.0104167
  0
VERTEX
  8
0
 10
2.35818
 20
1.24219
 30
0.0
 40
0.0104167
 41
0.0104167
  0
VERTEX
  8
0
 10
2.36806
 20
1.21978
 30
0.0
 40
0.0104167
 41
0.0104167
  0
VERTEX
  8
0
 10
2.37175
 20
1.20085
 30
0.0
 40
0.0104167
 41
0.0104167
  0
VERTEX
  8
0
 10
2.37175
 20
1.1945
 30
0.0
 40
0.0104167
 41
0.0104167
  0
SEQEND
 8
0
  0
POLYLINE
  8
0
 62
     7
 66
     1
 10
0
 20
0
 30
0.0
 70
     1
 40
0
 41
0
  0
VERTEX
  8
0
 10
2.428
 20
1.2653
 30
0.0
 40
0
 41
0
  0
VERTEX
  8
0
 10
2.42774
 20
1.26584
 30
0.0
 40
0
 41
0
  0
VERTEX
  8
0
 10
2.4159
 20
1.27604
 30
0.0
 40
0
 41
0
  0
VERTEX
  8
0
 10
2.39214
 20
1.2851
 30
0.0
 40
0
 41
0
  0
VERTEX
  8
0
 10
2.38428
 20
1.2851
 30
0.0
 40
0
 41
0
  0
VERTEX
  8
0
 10
2.37799
 20
1.28488
 30
0.0
 40
0
 41
0
  0
VERTEX
  8
0
 10
2.35531
 20
1.27561
 30
0.0
 40
0
 41
0
  0
VERTEX
  8
0
 10
2.34412
 20
1.26584
 30
0.0
 40
0
 41
0
  0
VERTEX
  8
0
 10
2.34364
 20
1.2653
 30
0.0
 40
0
 41
0
  0
SEQEND
 8
0
  0
POLYLINE
  8
0
 62
     0
 66
     1
 10
0
 20
0
 30
0.0
 40
0.75
 41
0.75
  0
VERTEX
  8
0
 10
2.428
 20
1.2653
 30
0.0
 40
0.0104167
 41
0.0104167
  0
VERTEX
  8
0
 10
2.42774
 20
1.26584
 30
0.0
 40
0.0104167
 41
0.0104167
  0
VERTEX
  8
0
 10
2.4159
 20
1.27604
 30
0.0
 40
0.0104167
 41
0.0104167
  0
VERTEX
  8
0
 10
2.39214
 20
1.2851
 30
0.0
 40
0.0104167
 41
0.0104167
  0
VERTEX
  8
0
 10
2.38428
 20
1.2851
 30
0.0
 40
0.0104167
 41
0.0104167
  0
VERTEX
  8
0
 10
2.37799
 20
1.28488
 30
0.0
 40
0.0104167
 41
0.0104167
  0
VERTEX
  8
0
 10
2.35531
 20
1.27561
 30
0.0
 40
0.0104167
 41
0.0104167
  0
VERTEX
  8
0
 10
2.34412
 20
1.26584
 30
0.0
 40
0.0104167
 41
0.0104167
  0
VERTEX
  8
0
 10
2.34364
 20
1.2653
 30
0.0
 40
0.0104167
 41
0.0104167
  0
SEQEND
 8
0
  0
POLYLINE
  8
0
 62
     7
 66
     1
 10
0
 20
0
 30
0.0
 70
     1
 40
0
 41
0
  0
VERTEX
  8
0
 10
2.3999
 20
1.11117
 30
0.0
 40
0
 41
0
  0
VERTEX
  8
0
 10
2.37175
 20
1.11117
 30
0.0
 40
0
 41
0
  0
VERTEX
  8
0
 10
2.37175
 20
1.1945
 30
0.0
 40
0
 41
0
  0
VERTEX
  8
0
 10
2.37875
 20
1.1945
 30
0.0
 40
0
 41
0
  0
VERTEX
  8
0
 10
2.39458
 20
1.1945
 30
0.0
 40
0
 41
0
  0
VERTEX
  8
0
 10
2.3999
 20
1.1945
 30
0.0
 40
0
 41
0
  0
VERTEX
  8
0
 10
2.3999
 20
1.17367
 30
0.0
 40
0
 41
0
  0
VERTEX
  8
0
 10
2.3999
 20
1.12679
 30
0.0
 40
0
 41
0
  0
VERTEX
  8
0
 10
2.3999
 20
1.11117
 30
0.0
 40
0
 41
0
  0
SEQEND
 8
0
  0
POLYLINE
  8
0
 62
     0
 66
     1
 10
0
 20
0
 30
0.0
 70
     1
 40
0.75
 41
0.75
  0
VERTEX
  8
0
 10
2.3999
 20
1.11117
 30
0.0
 40
0.0104167
 41
0.0104167
  0
VERTEX
  8
0
 10
2.37175
 20
1.11117
 30
0.0
 40
0.0104167
 41
0.0104167
  0
VERTEX
  8
0
 10
2.37175
 20
1.1945
 30
0.0
 40
0.0104167
 41
0.0104167
  0
VERTEX
  8
0
 10
2.37875
 20
1.1945
 30
0.0
 40
0.0104167
 41
0.0104167
  0
VERTEX
  8
0
 10
2.39458
 20
1.1945
 30
0.0
 40
0.0104167
 41
0.0104167
  0
VERTEX
  8
0
 10
2.3999
 20
1.1945
 30
0.0
 40
0.0104167
 41
0.0104167
  0
VERTEX
  8
0
 10
2.3999
 20
1.17367
 30
0.0
 40
0.0104167
 41
0.0104167
  0
VERTEX
  8
0
 10
2.3999
 20
1.12679
 30
0.0
 40
0.0104167
 41
0.0104167
  0
VERTEX
  8
0
 10
2.3999
 20
1.11117
 30
0.0
 40
0.0104167
 41
0.0104167
  0
SEQEND
 8
0
  0
POLYLINE
  8
0
 62
     7
 66
     1
 10
0
 20
0
 30
0.0
 70
     1
 40
0
 41
0
  0
VERTEX
  8
0
 10
2.51654
 20
1.14345
 30
0.0
 40
0
 41
0
  0
VERTEX
  8
0
 10
2.51329
 20
1.14225
 30
0.0
 40
0
 41
0
  0
VERTEX
  8
0
 10
2.50364
 20
1.1384
 30
0.0
 40
0
 41
0
  0
VERTEX
  8
0
 10
2.50092
 20
1.13721
 30
0.0
 40
0
 41
0
  0
VERTEX
  8
0
 10
2.50092
 20
1.13721
 30
0.0
 40
0
 41
0
  0
VERTEX
  8
0
 10
2.50092
 20
1.13867
 30
0.0
 40
0
 41
0
  0
VERTEX
  8
0
 10
2.50092
 20
1.14296
 30
0.0
 40
0
 41
0
  0
VERTEX
  8
0
 10
2.50092
 20
1.14724
 30
0.0
 40
0
 41
0
  0
VERTEX
  8
0
 10
2.50092
 20
1.14865
 30
0.0
 40
0
 41
0
  0
VERTEX
  8
0
 10
2.50092
 20
1.14865
 30
0.0
 40
0
 41
0
  0
VERTEX
  8
0
 10
2.50325
 20
1.148
 30
0.0
 40
0
 41
0
  0
VERTEX
  8
0
 10
2.51324
 20
1.14464
 30
0.0
 40
0
 41
0
  0
VERTEX
  8
0
 10
2.51654
 20
1.14345
 30
0.0
 40
0
 41
0
  0
SEQEND
 8
0
  0
POLYLINE
  8
0
 62
     0
 66
     1
 10
0
 20
0
 30
0.0
 70
     1
 40
0.75
 41
0.75
  0
VERTEX
  8
0
 10
2.51654
 20
1.14345
 30
0.0
 40
0.0104167
 41
0.0104167
  0
VERTEX
  8
0
 10
2.51329
 20
1.14225
 30
0.0
 40
0.0104167
 41
0.0104167
  0
VERTEX
  8
0
 10
2.50364
 20
1.1384
 30
0.0
 40
0.0104167
 41
0.0104167
  0
VERTEX
  8
0
 10
2.50092
 20
1.13721
 30
0.0
 40
0.0104167
 41
0.0104167
  0
VERTEX
  8
0
 10
2.50092
 20
1.13721
 30
0.0
 40
0.0104167
 41
0.0104167
  0
VERTEX
  8
0
 10
2.50092
 20
1.13867
 30
0.0
 40
0.0104167
 41
0.0104167
  0
VERTEX
  8
0
 10
2.50092
 20
1.14296
 30
0.0
 40
0.0104167
 41
0.0104167
  0
VERTEX
  8
0
 10
2.50092
 20
1.14724
 30
0.0
 40
0.0104167
 41
0.0104167
  0
VERTEX
  8
0
 10
2.50092
 20
1.14865
 30
0.0
 40
0.0104167
 41
0.0104167
  0
VERTEX
  8
0
 10
2.50092
 20
1.14865
 30
0.0
 40
0.0104167
 41
0.0104167
  0
VERTEX
  8
0
 10
2.50325
 20
1.148
 30
0.0
 40
0.0104167
 41
0.0104167
  0
VERTEX
  8
0
 10
2.51324
 20
1.14464
 30
0.0
 40
0.0104167
 41
0.0104167
  0
VERTEX
  8
0
 10
2.51654
 20
1.14345
 30
0.0
 40
0.0104167
 41
0.0104167
  0
SEQEND
 8
0
  0
POLYLINE
  8
0
 62
     7
 66
     1
 10
0
 20
0
 30
0.0
 70
     1
 40
0
 41
0
  0
VERTEX
  8
0
 10
2.25612
 20
1.14345
 30
0.0
 40
0
 41
0
  0
VERTEX
  8
0
 10
2.25933
 20
1.14225
 30
0.0
 40
0
 41
0
  0
VERTEX
  8
0
 10
2.26899
 20
1.1384
 30
0.0
 40
0
 41
0
  0
VERTEX
  8
0
 10
2.27175
 20
1.13721
 30
0.0
 40
0
 41
0
  0
VERTEX
  8
0
 10
2.27175
 20
1.13721
 30
0.0
 40
0
 41
0
  0
VERTEX
  8
0
 10
2.27175
 20
1.13867
 30
0.0
 40
0
 41
0
  0
VERTEX
  8
0
 10
2.27175
 20
1.14296
 30
0.0
 40
0
 41
0
  0
VERTEX
  8
0
 10
2.27175
 20
1.14724
 30
0.0
 40
0
 41
0
  0
VERTEX
  8
0
 10
2.27175
 20
1.14865
 30
0.0
 40
0
 41
0
  0
VERTEX
  8
0
 10
2.27175
 20
1.14865
 30
0.0
 40
0
 41
0
  0
VERTEX
  8
0
 10
2.26938
 20
1.148
 30
0.0
 40
0
 41
0
  0
VERTEX
  8
0
 10
2.25939
 20
1.14464
 30
0.0
 40
0
 41
0
  0
VERTEX
  8
0
 10
2.25612
 20
1.14345
 30
0.0
 40
0
 41
0
  0
SEQEND
 8
0
  0
POLYLINE
  8
0
 62
     0
 66
     1
 10
0
 20
0
 30
0.0
 70
     1
 40
0.75
 41
0.75
  0
VERTEX
  8
0
 10
2.25612
 20
1.14345
 30
0.0
 40
0.0104167
 41
0.0104167
  0
VERTEX
  8
0
 10
2.25933
 20
1.14225
 30
0.0
 40
0.0104167
 41
0.0104167
  0
VERTEX
  8
0
 10
2.26899
 20
1.1384
 30
0.0
 40
0.0104167
 41
0.0104167
  0
VERTEX
  8
0
 10
2.27175
 20
1.13721
 30
0.0
 40
0.0104167
 41
0.0104167
  0
VERTEX
  8
0
 10
2.27175
 20
1.13721
 30
0.0
 40
0.0104167
 41
0.0104167
  0
VERTEX
  8
0
 10
2.27175
 20
1.13867
 30
0.0
 40
0.0104167
 41
0.0104167
  0
VERTEX
  8
0
 10
2.27175
 20
1.14296
 30
0.0
 40
0.0104167
 41
0.0104167
  0
VERTEX
  8
0
 10
2.27175
 20
1.14724
 30
0.0
 40
0.0104167
 41
0.0104167
  0
VERTEX
  8
0
 10
2.27175
 20
1.14865
 30
0.0
 40
0.0104167
 41
0.0104167
  0
VERTEX
  8
0
 10
2.27175
 20
1.14865
 30
0.0
 40
0.0104167
 41
0.0104167
  0
VERTEX
  8
0
 10
2.26938
 20
1.148
 30
0.0
 40
0.0104167
 41
0.0104167
  0
VERTEX
  8
0
 10
2.25939
 20
1.14464
 30
0.0
 40
0.0104167
 41
0.0104167
  0
VERTEX
  8
0
 10
2.25612
 20
1.14345
 30
0.0
 40
0.0104167
 41
0.0104167
  0
SEQEND
 8
0
  0
POLYLINE
  8
0
 62
     7
 66
     1
 10
0
 20
0
 30
0.0
 70
     1
 40
0
 41
0
  0
VERTEX
  8
0
 10
0.780761
 20
3.62364
 30
0.0
 40
0
 41
0
  0
VERTEX
  8
0
 10
1.40576
 20
3.62364
 30
0.0
 40
0
 41
0
  0
VERTEX
  8
0
 10
1.40576
 20
2.96115
 30
0.0
 40
0
 41
0
  0
VERTEX
  8
0
 10
0.780761
 20
2.96115
 30
0.0
 40
0
 41
0
  0
VERTEX
  8
0
 10
0.780761
 20
3.62364
 30
0.0
 40
0
 41
0
  0
SEQEND
 8
0
  0
POLYLINE
  8
0
 62
     0
 66
     1
 10
0
 20
0
 30
0.0
 70
     1
 40
0.795
 41
0.795
  0
VERTEX
  8
0
 10
0.780761
 20
3.62364
 30
0.0
 40
0.0110417
 41
0.0110417
  0
VERTEX
  8
0
 10
0.780761
 20
2.96115
 30
0.0
 40
0.0110417
 41
0.0110417
  0
VERTEX
  8
0
 10
1.40576
 20
2.96115
 30
0.0
 40
0.0110417
 41
0.0110417
  0
VERTEX
  8
0
 10
1.40576
 20
3.62364
 30
0.0
 40
0.0110417
 41
0.0110417
  0
VERTEX
  8
0
 10
0.780761
 20
3.62364
 30
0.0
 40
0.0110417
 41
0.0110417
  0
SEQEND
 8
0
  0
POLYLINE
  8
0
 62
     0
 66
     1
 10
0
 20
0
 30
0.0
 40
0.795
 41
0.795
  0
VERTEX
  8
0
 10
0.780761
 20
2.96115
 30
0.0
 40
0.0110417
 41
0.0110417
  0
VERTEX
  8
0
 10
1.19537
 20
3.29351
 30
0.0
 40
0.0110417
 41
0.0110417
  0
VERTEX
  8
0
 10
0.982856
 20
3.29351
 30
0.0
 40
0.0110417
 41
0.0110417
  0
VERTEX
  8
0
 10
1.40576
 20
3.62256
 30
0.0
 40
0.0110417
 41
0.0110417
  0
SEQEND
 8
0
  0
POLYLINE
  8
0
 62
     7
 66
     1
 10
0
 20
0
 30
0.0
 70
     1
 40
0
 41
0
  0
VERTEX
  8
0
 10
0.778483
 20
2.88889
 30
0.0
 40
0
 41
0
  0
VERTEX
  8
0
 10
1.18305
 20
2.88889
 30
0.0
 40
0
 41
0
  0
VERTEX
  8
0
 10
1.18305
 20
2.26389
 30
0.0
 40
0
 41
0
  0
VERTEX
  8
0
 10
0.778483
 20
2.26389
 30
0.0
 40
0
 41
0
  0
VERTEX
  8
0
 10
0.778483
 20
2.88889
 30
0.0
 40
0
 41
0
  0
SEQEND
 8
0
  0
POLYLINE
  8
0
 62
     0
 66
     1
 10
0
 20
0
 30
0.0
 70
     1
 40
0.75
 41
0.75
  0
VERTEX
  8
0
 10
0.778483
 20
2.88889
 30
0.0
 40
0.0104167
 41
0.0104167
  0
VERTEX
  8
0
 10
0.778483
 20
2.26389
 30
0.0
 40
0.0104167
 41
0.0104167
  0
VERTEX
  8
0
 10
1.18305
 20
2.26389
 30
0.0
 40
0.0104167
 41
0.0104167
  0
VERTEX
  8
0
 10
1.18305
 20
2.88889
 30
0.0
 40
0.0104167
 41
0.0104167
  0
VERTEX
  8
0
 10
0.778483
 20
2.88889
 30
0.0
 40
0.0104167
 41
0.0104167
  0
SEQEND
 8
0
  0
POLYLINE
  8
0
 62
     7
 66
     1
 10
0
 20
0
 30
0.0
 70
     1
 40
0
 41
0
  0
VERTEX
  8
0
 10
0.879557
 20
2.83681
 30
0.0
 40
0
 41
0
  0
VERTEX
  8
0
 10
1.14735
 20
2.83681
 30
0.0
 40
0
 41
0
  0
VERTEX
  8
0
 10
1.14735
 20
2.31597
 30
0.0
 40
0
 41
0
  0
VERTEX
  8
0
 10
0.879557
 20
2.31597
 30
0.0
 40
0
 41
0
  0
VERTEX
  8
0
 10
0.879557
 20
2.83681
 30
0.0
 40
0
 41
0
  0
SEQEND
 8
0
  0
POLYLINE
  8
0
 62
     0
 66
     1
 10
0
 20
0
 30
0.0
 70
     1
 40
0.75
 41
0.75
  0
VERTEX
  8
0
 10
0.879557
 20
2.83681
 30
0.0
 40
0.0104167
 41
0.0104167
  0
VERTEX
  8
0
 10
0.879557
 20
2.31597
 30
0.0
 40
0.0104167
 41
0.0104167
  0
VERTEX
  8
0
 10
1.14735
 20
2.31597
 30
0.0
 40
0.0104167
 41
0.0104167
  0
VERTEX
  8
0
 10
1.14735
 20
2.83681
 30
0.0
 40
0.0104167
 41
0.0104167
  0
VERTEX
  8
0
 10
0.879557
 20
2.83681
 30
0.0
 40
0.0104167
 41
0.0104167
  0
SEQEND
 8
0
  0
POLYLINE
  8
0
 62
     7
 66
     1
 10
0
 20
0
 30
0.0
 70
     1
 40
0
 41
0
  0
VERTEX
  8
0
 10
0.99566
 20
2.61285
 30
0.0
 40
0
 41
0
  0
VERTEX
  8
0
 10
1.00206
 20
2.61285
 30
0.0
 40
0
 41
0
  0
VERTEX
  8
0
 10
1.02143
 20
2.60221
 30
0.0
 40
0
 41
0
  0
VERTEX
  8
0
 10
1.03212
 20
2.58285
 30
0.0
 40
0
 41
0
  0
VERTEX
  8
0
 10
1.03212
 20
2.57639
 30
0.0
 40
0
 41
0
  0
VERTEX
  8
0
 10
1.03212
 20
2.56999
 30
0.0
 40
0
 41
0
  0
VERTEX
  8
0
 10
1.02143
 20
2.55063
 30
0.0
 40
0
 41
0
  0
VERTEX
  8
0
 10
1.00206
 20
2.53993
 30
0.0
 40
0
 41
0
  0
VERTEX
  8
0
 10
0.99566
 20
2.53993
 30
0.0
 40
0
 41
0
  0
VERTEX
  8
0
 10
0.989204
 20
2.53993
 30
0.0
 40
0
 41
0
  0
VERTEX
  8
0
 10
0.969835
 20
2.55063
 30
0.0
 40
0
 41
0
  0
VERTEX
  8
0
 10
0.959201
 20
2.56999
 30
0.0
 40
0
 41
0
  0
VERTEX
  8
0
 10
0.959201
 20
2.57639
 30
0.0
 40
0
 41
0
  0
VERTEX
  8
0
 10
0.959201
 20
2.58285
 30
0.0
 40
0
 41
0
  0
VERTEX
  8
0
 10
0.969835
 20
2.60221
 30
0.0
 40
0
 41
0
  0
VERTEX
  8
0
 10
0.989204
 20
2.61285
 30
0.0
 40
0
 41
0
  0
VERTEX
  8
0
 10
0.99566
 20
2.61285
 30
0.0
 40
0
 41
0
  0
SEQEND
 8
0
  0
POLYLINE
  8
0
 62
     0
 66
     1
 10
0
 20
0
 30
0.0
 70
     1
 40
0.6
 41
0.6
  0
VERTEX
  8
0
 10
0.99566
 20
2.61285
 30
0.0
 40
0.00833333
 41
0.00833333
  0
VERTEX
  8
0
 10
1.00206
 20
2.61285
 30
0.0
 40
0.00833333
 41
0.00833333
  0
VERTEX
  8
0
 10
1.02143
 20
2.60221
 30
0.0
 40
0.00833333
 41
0.00833333
  0
VERTEX
  8
0
 10
1.03212
 20
2.58285
 30
0.0
 40
0.00833333
 41
0.00833333
  0
VERTEX
  8
0
 10
1.03212
 20
2.57639
 30
0.0
 40
0.00833333
 41
0.00833333
  0
VERTEX
  8
0
 10
1.03212
 20
2.56999
 30
0.0
 40
0.00833333
 41
0.00833333
  0
VERTEX
  8
0
 10
1.02143
 20
2.55063
 30
0.0
 40
0.00833333
 41
0.00833333
  0
VERTEX
  8
0
 10
1.00206
 20
2.53993
 30
0.0
 40
0.00833333
 41
0.00833333
  0
VERTEX
  8
0
 10
0.99566
 20
2.53993
 30
0.0
 40
0.00833333
 41
0.00833333
  0
VERTEX
  8
0
 10
0.989204
 20
2.53993
 30
0.0
 40
0.00833333
 41
0.00833333
  0
VERTEX
  8
0
 10
0.969835
 20
2.55063
 30
0.0
 40
0.00833333
 41
0.00833333
  0
VERTEX
  8
0
 10
0.959201
 20
2.56999
 30
0.0
 40
0.00833333
 41
0.00833333
  0
VERTEX
  8
0
 10
0.959201
 20
2.57639
 30
0.0
 40
0.00833333
 41
0.00833333
  0
VERTEX
  8
0
 10
0.959201
 20
2.58285
 30
0.0
 40
0.00833333
 41
0.00833333
  0
VERTEX
  8
0
 10
0.969835
 20
2.60221
 30
0.0
 40
0.00833333
 41
0.00833333
  0
VERTEX
  8
0
 10
0.989204
 20
2.61285
 30
0.0
 40
0.00833333
 41
0.00833333
  0
VERTEX
  8
0
 10
0.99566
 20
2.61285
 30
0.0
 40
0.00833333
 41
0.00833333
  0
SEQEND
 8
0
  0
POLYLINE
  8
0
 62
     7
 66
     1
 10
0
 20
0
 30
0.0
 70
     1
 40
0
 41
0
  0
VERTEX
  8
0
 10
0.99566
 20
2.59722
 30
0.0
 40
0
 41
0
  0
VERTEX
  8
0
 10
0.999295
 20
2.59722
 30
0.0
 40
0
 41
0
  0
VERTEX
  8
0
 10
1.01036
 20
2.59115
 30
0.0
 40
0
 41
0
  0
VERTEX
  8
0
 10
1.01649
 20
2.58008
 30
0.0
 40
0
 41
0
  0
VERTEX
  8
0
 10
1.01649
 20
2.57639
 30
0.0
 40
0
 41
0
  0
VERTEX
  8
0
 10
1.01649
 20
2.57275
 30
0.0
 40
0
 41
0
  0
VERTEX
  8
0
 10
1.01036
 20
2.56168
 30
0.0
 40
0
 41
0
  0
VERTEX
  8
0
 10
0.999295
 20
2.55556
 30
0.0
 40
0
 41
0
  0
VERTEX
  8
0
 10
0.99566
 20
2.55556
 30
0.0
 40
0
 41
0
  0
VERTEX
  8
0
 10
0.991971
 20
2.55556
 30
0.0
 40
0
 41
0
  0
VERTEX
  8
0
 10
0.980903
 20
2.56168
 30
0.0
 40
0
 41
0
  0
VERTEX
  8
0
 10
0.974826
 20
2.57275
 30
0.0
 40
0
 41
0
  0
VERTEX
  8
0
 10
0.974826
 20
2.57639
 30
0.0
 40
0
 41
0
  0
VERTEX
  8
0
 10
0.974826
 20
2.58008
 30
0.0
 40
0
 41
0
  0
VERTEX
  8
0
 10
0.980903
 20
2.59115
 30
0.0
 40
0
 41
0
  0
VERTEX
  8
0
 10
0.991971
 20
2.59722
 30
0.0
 40
0
 41
0
  0
VERTEX
  8
0
 10
0.99566
 20
2.59722
 30
0.0
 40
0
 41
0
  0
SEQEND
 8
0
  0
POLYLINE
  8
0
 62
     0
 66
     1
 10
0
 20
0
 30
0.0
 70
     1
 40
0.6
 41
0.6
  0
VERTEX
  8
0
 10
0.99566
 20
2.59722
 30
0.0
 40
0.00833333
 41
0.00833333
  0
VERTEX
  8
0
 10
0.999295
 20
2.59722
 30
0.0
 40
0.00833333
 41
0.00833333
  0
VERTEX
  8
0
 10
1.01036
 20
2.59115
 30
0.0
 40
0.00833333
 41
0.00833333
  0
VERTEX
  8
0
 10
1.01649
 20
2.58008
 30
0.0
 40
0.00833333
 41
0.00833333
  0
VERTEX
  8
0
 10
1.01649
 20
2.57639
 30
0.0
 40
0.00833333
 41
0.00833333
  0
VERTEX
  8
0
 10
1.01649
 20
2.57275
 30
0.0
 40
0.00833333
 41
0.00833333
  0
VERTEX
  8
0
 10
1.01036
 20
2.56168
 30
0.0
 40
0.00833333
 41
0.00833333
  0
VERTEX
  8
0
 10
0.999295
 20
2.55556
 30
0.0
 40
0.00833333
 41
0.00833333
  0
VERTEX
  8
0
 10
0.99566
 20
2.55556
 30
0.0
 40
0.00833333
 41
0.00833333
  0
VERTEX
  8
0
 10
0.991971
 20
2.55556
 30
0.0
 40
0.00833333
 41
0.00833333
  0
VERTEX
  8
0
 10
0.980903
 20
2.56168
 30
0.0
 40
0.00833333
 41
0.00833333
  0
VERTEX
  8
0
 10
0.974826
 20
2.57275
 30
0.0
 40
0.00833333
 41
0.00833333
  0
VERTEX
  8
0
 10
0.974826
 20
2.57639
 30
0.0
 40
0.00833333
 41
0.00833333
  0
VERTEX
  8
0
 10
0.974826
 20
2.58008
 30
0.0
 40
0.00833333
 41
0.00833333
  0
VERTEX
  8
0
 10
0.980903
 20
2.59115
 30
0.0
 40
0.00833333
 41
0.00833333
  0
VERTEX
  8
0
 10
0.991971
 20
2.59722
 30
0.0
 40
0.00833333
 41
0.00833333
  0
VERTEX
  8
0
 10
0.99566
 20
2.59722
 30
0.0
 40
0.00833333
 41
0.00833333
  0
SEQEND
 8
0
  0
POLYLINE
  8
0
 62
     7
 66
     1
 10
0
 20
0
 30
0.0
 70
     1
 40
0
 41
0
  0
VERTEX
  8
0
 10
0.812229
 20
2.60764
 30
0.0
 40
0
 41
0
  0
VERTEX
  8
0
 10
0.958062
 20
2.60764
 30
0.0
 40
0
 41
0
  0
VERTEX
  8
0
 10
0.958062
 20
2.54514
 30
0.0
 40
0
 41
0
  0
VERTEX
  8
0
 10
0.812229
 20
2.54514
 30
0.0
 40
0
 41
0
  0
VERTEX
  8
0
 10
0.812229
 20
2.60764
 30
0.0
 40
0
 41
0
  0
SEQEND
 8
0
  0
POLYLINE
  8
0
 62
     0
 66
     1
 10
0
 20
0
 30
0.0
 70
     1
 40
0.75
 41
0.75
  0
VERTEX
  8
0
 10
0.812229
 20
2.60764
 30
0.0
 40
0.0104167
 41
0.0104167
  0
VERTEX
  8
0
 10
0.812229
 20
2.54514
 30
0.0
 40
0.0104167
 41
0.0104167
  0
VERTEX
  8
0
 10
0.958062
 20
2.54514
 30
0.0
 40
0.0104167
 41
0.0104167
  0
VERTEX
  8
0
 10
0.958062
 20
2.60764
 30
0.0
 40
0.0104167
 41
0.0104167
  0
VERTEX
  8
0
 10
0.812229
 20
2.60764
 30
0.0
 40
0.0104167
 41
0.0104167
  0
SEQEND
 8
0
  0
POLYLINE
  8
0
 62
     0
 66
     1
 10
0
 20
0
 30
0.0
 70
     1
 40
0.75
 41
0.75
  0
VERTEX
  8
0
 10
0.778483
 20
2.88889
 30
0.0
 40
0.0104167
 41
0.0104167
  0
VERTEX
  8
0
 10
0.778483
 20
2.26389
 30
0.0
 40
0.0104167
 41
0.0104167
  0
VERTEX
  8
0
 10
0.978896
 20
2.26389
 30
0.0
 40
0.0104167
 41
0.0104167
  0
VERTEX
  8
0
 10
0.978896
 20
2.88889
 30
0.0
 40
0.0104167
 41
0.0104167
  0
VERTEX
  8
0
 10
0.778483
 20
2.88889
 30
0.0
 40
0.0104167
 41
0.0104167
  0
SEQEND
 8
0
  0
POLYLINE
  8
0
 62
     7
 66
     1
 10
0
 20
0
 30
0.0
 70
     1
 40
0
 41
0
  0
VERTEX
  8
0
 10
0.688531
 20
4.35129
 30
0.0
 40
0
 41
0
  0
VERTEX
  8
0
 10
2.61019
 20
4.35129
 30
0.0
 40
0
 41
0
  0
VERTEX
  8
0
 10
2.61019
 20
3.72629
 30
0.0
 40
0
 41
0
  0
VERTEX
  8
0
 10
0.688531
 20
3.72629
 30
0.0
 40
0
 41
0
  0
VERTEX
  8
0
 10
0.688531
 20
4.35129
 30
0.0
 40
0
 41
0
  0
SEQEND
 8
0
  0
POLYLINE
  8
0
 62
     0
 66
     1
 10
0
 20
0
 30
0.0
 70
     1
 40
0.75
 41
0.75
  0
VERTEX
  8
0
 10
0.688531
 20
4.35129
 30
0.0
 40
0.0104167
 41
0.0104167
  0
VERTEX
  8
0
 10
2.61019
 20
4.35129
 30
0.0
 40
0.0104167
 41
0.0104167
  0
VERTEX
  8
0
 10
2.61019
 20
3.72629
 30
0.0
 40
0.0104167
 41
0.0104167
  0
VERTEX
  8
0
 10
0.688531
 20
3.72629
 30
0.0
 40
0.0104167
 41
0.0104167
  0
VERTEX
  8
0
 10
0.688531
 20
4.35129
 30
0.0
 40
0.0104167
 41
0.0104167
  0
SEQEND
 8
0
  0
POLYLINE
  8
0
 62
     7
 66
     1
 10
0
 20
0
 30
0.0
 70
     1
 40
0
 41
0
  0
VERTEX
  8
0
 10
0.6486
 20
4.35075
 30
0.0
 40
0
 41
0
  0
VERTEX
  8
0
 10
0.689779
 20
4.35075
 30
0.0
 40
0
 41
0
  0
VERTEX
  8
0
 10
0.689779
 20
3.72575
 30
0.0
 40
0
 41
0
  0
VERTEX
  8
0
 10
0.6486
 20
3.72575
 30
0.0
 40
0
 41
0
  0
VERTEX
  8
0
 10
0.6486
 20
4.35075
 30
0.0
 40
0
 41
0
  0
SEQEND
 8
0
  0
POLYLINE
  8
0
 62
     0
 66
     1
 10
0
 20
0
 30
0.0
 70
     1
 40
0.296625
 41
0.296625
  0
VERTEX
  8
0
 10
0.6486
 20
4.35075
 30
0.0
 40
0.00411979
 41
0.00411979
  0
VERTEX
  8
0
 10
0.689779
 20
4.35075
 30
0.0
 40
0.00411979
 41
0.00411979
  0
VERTEX
  8
0
 10
0.689779
 20
3.72575
 30
0.0
 40
0.00411979
 41
0.00411979
  0
VERTEX
  8
0
 10
0.6486
 20
3.72575
 30
0.0
 40
0.00411979
 41
0.00411979
  0
VERTEX
  8
0
 10
0.6486
 20
4.35075
 30
0.0
 40
0.00411979
 41
0.00411979
  0
SEQEND
 8
0
  0
POLYLINE
  8
0
 62
     7
 66
     1
 10
0
 20
0
 30
0.0
 70
     1
 40
0
 41
0
  0
VERTEX
  8
0
 10
2.61019
 20
4.35161
 30
0.0
 40
0
 41
0
  0
VERTEX
  8
0
 10
3.25732
 20
4.35161
 30
0.0
 40
0
 41
0
  0
VERTEX
  8
0
 10
3.25732
 20
3.72661
 30
0.0
 40
0
 41
0
  0
VERTEX
  8
0
 10
2.61019
 20
3.72661
 30
0.0
 40
0
 41
0
  0
VERTEX
  8
0
 10
2.61019
 20
4.35161
 30
0.0
 40
0
 41
0
  0
SEQEND
 8
0
  0
POLYLINE
  8
0
 62
     0
 66
     1
 10
0
 20
0
 30
0.0
 70
     1
 40
0.77655
 41
0.77655
  0
VERTEX
  8
0
 10
2.61019
 20
4.35161
 30
0.0
 40
0.0107854
 41
0.0107854
  0
VERTEX
  8
0
 10
3.25732
 20
4.35161
 30
0.0
 40
0.0107854
 41
0.0107854
  0
VERTEX
  8
0
 10
3.25732
 20
3.72661
 30
0.0
 40
0.0107854
 41
0.0107854
  0
VERTEX
  8
0
 10
2.61019
 20
3.72661
 30
0.0
 40
0.0107854
 41
0.0107854
  0
VERTEX
  8
0
 10
2.61019
 20
4.35161
 30
0.0
 40
0.0107854
 41
0.0107854
  0
SEQEND
 8
0
  0
POLYLINE
  8
0
 62
     0
 66
     1
 10
0
 20
0
 30
0.0
 40
0.77655
 41
0.77655
  0
VERTEX
  8
0
 10
3.25732
 20
3.72661
 30
0.0
 40
0.0107854
 41
0.0107854
  0
VERTEX
  8
0
 10
2.93375
 20
4.11307
 30
0.0
 40
0.0107854
 41
0.0107854
  0
VERTEX
  8
0
 10
2.93375
 20
3.92557
 30
0.0
 40
0.0107854
 41
0.0107854
  0
VERTEX
  8
0
 10
2.61019
 20
4.3131
 30
0.0
 40
0.0107854
 41
0.0107854
  0
SEQEND
 8
0
  0
POLYLINE
  8
0
 62
     7
 66
     1
 10
0
 20
0
 30
0.0
 70
     1
 40
0
 41
0
  0
VERTEX
  8
0
 10
2.61019
 20
4.35161
 30
0.0
 40
0
 41
0
  0
VERTEX
  8
0
 10
3.25732
 20
4.35161
 30
0.0
 40
0
 41
0
  0
VERTEX
  8
0
 10
3.25732
 20
4.30994
 30
0.0
 40
0
 41
0
  0
VERTEX
  8
0
 10
2.61019
 20
4.30994
 30
0.0
 40
0
 41
0
  0
VERTEX
  8
0
 10
2.61019
 20
4.35161
 30
0.0
 40
0
 41
0
  0
SEQEND
 8
0
  0
POLYLINE
  8
0
 62
     0
 66
     1
 10
0
 20
0
 30
0.0
 70
     1
 40
0.77655
 41
0.77655
  0
VERTEX
  8
0
 10
2.61019
 20
4.35161
 30
0.0
 40
0.0107854
 41
0.0107854
  0
VERTEX
  8
0
 10
3.25732
 20
4.35161
 30
0.0
 40
0.0107854
 41
0.0107854
  0
VERTEX
  8
0
 10
3.25732
 20
4.30994
 30
0.0
 40
0.0107854
 41
0.0107854
  0
VERTEX
  8
0
 10
2.61019
 20
4.30994
 30
0.0
 40
0.0107854
 41
0.0107854
  0
VERTEX
  8
0
 10
2.61019
 20
4.35161
 30
0.0
 40
0.0107854
 41
0.0107854
  0
SEQEND
 8
0
  0
POLYLINE
  8
0
 62
     7
 66
     1
 10
0
 20
0
 30
0.0
 70
     1
 40
0
 41
0
  0
VERTEX
  8
0
 10
3.25717
 20
4.35064
 30
0.0
 40
0
 41
0
  0
VERTEX
  8
0
 10
3.30012
 20
4.35064
 30
0.0
 40
0
 41
0
  0
VERTEX
  8
0
 10
3.30012
 20
3.72564
 30
0.0
 40
0
 41
0
  0
VERTEX
  8
0
 10
3.25717
 20
3.72564
 30
0.0
 40
0
 41
0
  0
VERTEX
  8
0
 10
3.25717
 20
4.35064
 30
0.0
 40
0
 41
0
  0
SEQEND
 8
0
  0
POLYLINE
  8
0
 62
     0
 66
     1
 10
0
 20
0
 30
0.0
 70
     1
 40
0.309
 41
0.309
  0
VERTEX
  8
0
 10
3.25717
 20
4.35064
 30
0.0
 40
0.00429167
 41
0.00429167
  0
VERTEX
  8
0
 10
3.30012
 20
4.35064
 30
0.0
 40
0.00429167
 41
0.00429167
  0
VERTEX
  8
0
 10
3.30012
 20
3.72564
 30
0.0
 40
0.00429167
 41
0.00429167
  0
VERTEX
  8
0
 10
3.25717
 20
3.72564
 30
0.0
 40
0.00429167
 41
0.00429167
  0
VERTEX
  8
0
 10
3.25717
 20
4.35064
 30
0.0
 40
0.00429167
 41
0.00429167
  0
SEQEND
 8
0
  0
POLYLINE
  8
0
 62
     7
 66
     1
 10
0
 20
0
 30
0.0
 70
     1
 40
0
 41
0
  0
VERTEX
  8
0
 10
4.42372
 20
2.17969
 30
0.0
 40
0
 41
0
  0
VERTEX
  8
0
 10
5.04872
 20
2.17969
 30
0.0
 40
0
 41
0
  0
VERTEX
  8
0
 10
5.04872
 20
1.10596
 30
0.0
 40
0
 41
0
  0
VERTEX
  8
0
 10
4.42372
 20
1.10596
 30
0.0
 40
0
 41
0
  0
VERTEX
  8
0
 10
4.42372
 20
2.17969
 30
0.0
 40
0
 41
0
  0
SEQEND
 8
0
  0
POLYLINE
  8
0
 62
     0
 66
     1
 10
0
 20
0
 30
0.0
 70
     1
 40
0.75
 41
0.75
  0
VERTEX
  8
0
 10
4.42372
 20
2.17969
 30
0.0
 40
0.0104167
 41
0.0104167
  0
VERTEX
  8
0
 10
4.42372
 20
1.10596
 30
0.0
 40
0.0104167
 41
0.0104167
  0
VERTEX
  8
0
 10
5.04872
 20
1.10596
 30
0.0
 40
0.0104167
 41
0.0104167
  0
VERTEX
  8
0
 10
5.04872
 20
2.17969
 30
0.0
 40
0.0104167
 41
0.0104167
  0
VERTEX
  8
0
 10
4.42372
 20
2.17969
 30
0.0
 40
0.0104167
 41
0.0104167
  0
SEQEND
 8
0
  0
POLYLINE
  8
0
 62
     253
 66
     1
 10
0
 20
0
 30
0.0
 40
0.75
 41
0.75
  0
VERTEX
  8
0
 10
4.73622
 20
2.17969
 30
0.0
 40
0.0104167
 41
0.0104167
  0
VERTEX
  8
0
 10
4.73622
 20
1.10596
 30
0.0
 40
0.0104167
 41
0.0104167
  0
SEQEND
 8
0
  0
POLYLINE
  8
0
 62
     7
 66
     1
 10
0
 20
0
 30
0.0
 70
     1
 40
0
 41
0
  0
VERTEX
  8
0
 10
4.42372
 20
2.70221
 30
0.0
 40
0
 41
0
  0
VERTEX
  8
0
 10
5.04872
 20
2.70221
 30
0.0
 40
0
 41
0
  0
VERTEX
  8
0
 10
5.04872
 20
2.17969
 30
0.0
 40
0
 41
0
  0
VERTEX
  8
0
 10
4.42372
 20
2.17969
 30
0.0
 40
0
 41
0
  0
VERTEX
  8
0
 10
4.42372
 20
2.70221
 30
0.0
 40
0
 41
0
  0
SEQEND
 8
0
  0
POLYLINE
  8
0
 62
     0
 66
     1
 10
0
 20
0
 30
0.0
 70
     1
 40
0.75
 41
0.75
  0
VERTEX
  8
0
 10
4.42372
 20
2.70221
 30
0.0
 40
0.0104167
 41
0.0104167
  0
VERTEX
  8
0
 10
4.42372
 20
2.17969
 30
0.0
 40
0.0104167
 41
0.0104167
  0
VERTEX
  8
0
 10
5.04872
 20
2.17969
 30
0.0
 40
0.0104167
 41
0.0104167
  0
VERTEX
  8
0
 10
5.04872
 20
2.70221
 30
0.0
 40
0.0104167
 41
0.0104167
  0
VERTEX
  8
0
 10
4.42372
 20
2.70221
 30
0.0
 40
0.0104167
 41
0.0104167
  0
SEQEND
 8
0
  0
POLYLINE
  8
0
 62
     7
 66
     1
 10
0
 20
0
 30
0.0
 70
     1
 40
0
 41
0
  0
VERTEX
  8
0
 10
4.42372
 20
3.21246
 30
0.0
 40
0
 41
0
  0
VERTEX
  8
0
 10
5.04872
 20
3.21246
 30
0.0
 40
0
 41
0
  0
VERTEX
  8
0
 10
5.04872
 20
2.70226
 30
0.0
 40
0
 41
0
  0
VERTEX
  8
0
 10
4.42372
 20
2.70226
 30
0.0
 40
0
 41
0
  0
VERTEX
  8
0
 10
4.42372
 20
3.21246
 30
0.0
 40
0
 41
0
  0
SEQEND
 8
0
  0
POLYLINE
  8
0
 62
     0
 66
     1
 10
0
 20
0
 30
0.0
 70
     1
 40
0.75
 41
0.75
  0
VERTEX
  8
0
 10
4.42372
 20
3.21246
 30
0.0
 40
0.0104167
 41
0.0104167
  0
VERTEX
  8
0
 10
4.42372
 20
2.70226
 30
0.0
 40
0.0104167
 41
0.0104167
  0
VERTEX
  8
0
 10
5.04872
 20
2.70226
 30
0.0
 40
0.0104167
 41
0.0104167
  0
VERTEX
  8
0
 10
5.04872
 20
3.21246
 30
0.0
 40
0.0104167
 41
0.0104167
  0
VERTEX
  8
0
 10
4.42372
 20
3.21246
 30
0.0
 40
0.0104167
 41
0.0104167
  0
SEQEND
 8
0
  0
POLYLINE
  8
0
 62
     253
 66
     1
 10
0
 20
0
 30
0.0
 40
0.75
 41
0.75
  0
VERTEX
  8
0
 10
4.73622
 20
3.21246
 30
0.0
 40
0.0104167
 41
0.0104167
  0
VERTEX
  8
0
 10
4.73622
 20
2.70221
 30
0.0
 40
0.0104167
 41
0.0104167
  0
SEQEND
 8
0
  0
POLYLINE
  8
0
 62
     7
 66
     1
 10
0
 20
0
 30
0.0
 70
     1
 40
0
 41
0
  0
VERTEX
  8
0
 10
4.42372
 20
4.30664
 30
0.0
 40
0
 41
0
  0
VERTEX
  8
0
 10
5.04872
 20
4.30664
 30
0.0
 40
0
 41
0
  0
VERTEX
  8
0
 10
5.04872
 20
3.75956
 30
0.0
 40
0
 41
0
  0
VERTEX
  8
0
 10
4.42372
 20
3.75956
 30
0.0
 40
0
 41
0
  0
VERTEX
  8
0
 10
4.42372
 20
4.30664
 30
0.0
 40
0
 41
0
  0
SEQEND
 8
0
  0
POLYLINE
  8
0
 62
     0
 66
     1
 10
0
 20
0
 30
0.0
 70
     1
 40
0.75
 41
0.75
  0
VERTEX
  8
0
 10
4.42372
 20
4.30664
 30
0.0
 40
0.0104167
 41
0.0104167
  0
VERTEX
  8
0
 10
4.42372
 20
3.75956
 30
0.0
 40
0.0104167
 41
0.0104167
  0
VERTEX
  8
0
 10
5.04872
 20
3.75956
 30
0.0
 40
0.0104167
 41
0.0104167
  0
VERTEX
  8
0
 10
5.04872
 20
4.30664
 30
0.0
 40
0.0104167
 41
0.0104167
  0
VERTEX
  8
0
 10
4.42372
 20
4.30664
 30
0.0
 40
0.0104167
 41
0.0104167
  0
SEQEND
 8
0
  0
POLYLINE
  8
0
 62
     7
 66
     1
 10
0
 20
0
 30
0.0
 70
     1
 40
0
 41
0
  0
VERTEX
  8
0
 10
4.42372
 20
3.75956
 30
0.0
 40
0
 41
0
  0
VERTEX
  8
0
 10
5.04872
 20
3.75956
 30
0.0
 40
0
 41
0
  0
VERTEX
  8
0
 10
5.04872
 20
3.21246
 30
0.0
 40
0
 41
0
  0
VERTEX
  8
0
 10
4.42372
 20
3.21246
 30
0.0
 40
0
 41
0
  0
VERTEX
  8
0
 10
4.42372
 20
3.75956
 30
0.0
 40
0
 41
0
  0
SEQEND
 8
0
  0
POLYLINE
  8
0
 62
     0
 66
     1
 10
0
 20
0
 30
0.0
 70
     1
 40
0.75
 41
0.75
  0
VERTEX
  8
0
 10
4.42372
 20
3.75956
 30
0.0
 40
0.0104167
 41
0.0104167
  0
VERTEX
  8
0
 10
4.42372
 20
3.21246
 30
0.0
 40
0.0104167
 41
0.0104167
  0
VERTEX
  8
0
 10
5.04872
 20
3.21246
 30
0.0
 40
0.0104167
 41
0.0104167
  0
VERTEX
  8
0
 10
5.04872
 20
3.75956
 30
0.0
 40
0.0104167
 41
0.0104167
  0
VERTEX
  8
0
 10
4.42372
 20
3.75956
 30
0.0
 40
0.0104167
 41
0.0104167
  0
SEQEND
 8
0
  0
POLYLINE
  8
0
 62
     7
 66
     1
 10
0
 20
0
 30
0.0
 70
     1
 40
0
 41
0
  0
VERTEX
  8
0
 10
2.20167
 20
4.33046
 30
0.0
 40
0
 41
0
  0
VERTEX
  8
0
 10
2.49333
 20
4.33046
 30
0.0
 40
0
 41
0
  0
VERTEX
  8
0
 10
2.49333
 20
3.74713
 30
0.0
 40
0
 41
0
  0
VERTEX
  8
0
 10
2.20167
 20
3.74713
 30
0.0
 40
0
 41
0
  0
VERTEX
  8
0
 10
2.20167
 20
4.33046
 30
0.0
 40
0
 41
0
  0
SEQEND
 8
0
  0
POLYLINE
  8
0
 62
     0
 66
     1
 10
0
 20
0
 30
0.0
 70
     1
 40
0.75
 41
0.75
  0
VERTEX
  8
0
 10
2.20167
 20
4.33046
 30
0.0
 40
0.0104167
 41
0.0104167
  0
VERTEX
  8
0
 10
2.49333
 20
4.33046
 30
0.0
 40
0.0104167
 41
0.0104167
  0
VERTEX
  8
0
 10
2.49333
 20
3.74713
 30
0.0
 40
0.0104167
 41
0.0104167
  0
VERTEX
  8
0
 10
2.20167
 20
3.74713
 30
0.0
 40
0.0104167
 41
0.0104167
  0
VERTEX
  8
0
 10
2.20167
 20
4.33046
 30
0.0
 40
0.0104167
 41
0.0104167
  0
SEQEND
 8
0
  0
POLYLINE
  8
0
 62
     7
 66
     1
 10
0
 20
0
 30
0.0
 70
     1
 40
0
 41
0
  0
VERTEX
  8
0
 10
2.43083
 20
4.18463
 30
0.0
 40
0
 41
0
  0
VERTEX
  8
0
 10
2.43083
 20
4.17654
 30
0.0
 40
0
 41
0
  0
VERTEX
  8
0
 10
2.42426
 20
4.15224
 30
0.0
 40
0
 41
0
  0
VERTEX
  8
0
 10
2.40642
 20
4.12571
 30
0.0
 40
0
 41
0
  0
VERTEX
  8
0
 10
2.37993
 20
4.10786
 30
0.0
 40
0
 41
0
  0
VERTEX
  8
0
 10
2.35558
 20
4.10129
 30
0.0
 40
0
 41
0
  0
VERTEX
  8
0
 10
2.3475
 20
4.10129
 30
0.0
 40
0
 41
0
  0
VERTEX
  8
0
 10
2.33936
 20
4.10129
 30
0.0
 40
0
 41
0
  0
VERTEX
  8
0
 10
2.31506
 20
4.10786
 30
0.0
 40
0
 41
0
  0
VERTEX
  8
0
 10
2.28857
 20
4.12571
 30
0.0
 40
0
 41
0
  0
VERTEX
  8
0
 10
2.27067
 20
4.15224
 30
0.0
 40
0
 41
0
  0
VERTEX
  8
0
 10
2.26417
 20
4.17654
 30
0.0
 40
0
 41
0
  0
VERTEX
  8
0
 10
2.26417
 20
4.18463
 30
0.0
 40
0
 41
0
  0
VERTEX
  8
0
 10
2.26417
 20
4.19276
 30
0.0
 40
0
 41
0
  0
VERTEX
  8
0
 10
2.27067
 20
4.21707
 30
0.0
 40
0
 41
0
  0
VERTEX
  8
0
 10
2.28857
 20
4.24354
 30
0.0
 40
0
 41
0
  0
VERTEX
  8
0
 10
2.31506
 20
4.26144
 30
0.0
 40
0
 41
0
  0
VERTEX
  8
0
 10
2.33936
 20
4.26796
 30
0.0
 40
0
 41
0
  0
VERTEX
  8
0
 10
2.3475
 20
4.26796
 30
0.0
 40
0
 41
0
  0
VERTEX
  8
0
 10
2.35558
 20
4.26796
 30
0.0
 40
0
 41
0
  0
VERTEX
  8
0
 10
2.37993
 20
4.26144
 30
0.0
 40
0
 41
0
  0
VERTEX
  8
0
 10
2.40642
 20
4.24354
 30
0.0
 40
0
 41
0
  0
VERTEX
  8
0
 10
2.42426
 20
4.21707
 30
0.0
 40
0
 41
0
  0
VERTEX
  8
0
 10
2.43083
 20
4.19276
 30
0.0
 40
0
 41
0
  0
VERTEX
  8
0
 10
2.43083
 20
4.18463
 30
0.0
 40
0
 41
0
  0
SEQEND
 8
0
  0
POLYLINE
  8
0
 62
     0
 66
     1
 10
0
 20
0
 30
0.0
 70
     1
 40
0.75
 41
0.75
  0
VERTEX
  8
0
 10
2.43083
 20
4.18463
 30
0.0
 40
0.0104167
 41
0.0104167
  0
VERTEX
  8
0
 10
2.43083
 20
4.17654
 30
0.0
 40
0.0104167
 41
0.0104167
  0
VERTEX
  8
0
 10
2.42426
 20
4.15224
 30
0.0
 40
0.0104167
 41
0.0104167
  0
VERTEX
  8
0
 10
2.40642
 20
4.12571
 30
0.0
 40
0.0104167
 41
0.0104167
  0
VERTEX
  8
0
 10
2.37993
 20
4.10786
 30
0.0
 40
0.0104167
 41
0.0104167
  0
VERTEX
  8
0
 10
2.35558
 20
4.10129
 30
0.0
 40
0.0104167
 41
0.0104167
  0
VERTEX
  8
0
 10
2.3475
 20
4.10129
 30
0.0
 40
0.0104167
 41
0.0104167
  0
VERTEX
  8
0
 10
2.33936
 20
4.10129
 30
0.0
 40
0.0104167
 41
0.0104167
  0
VERTEX
  8
0
 10
2.31506
 20
4.10786
 30
0.0
 40
0.0104167
 41
0.0104167
  0
VERTEX
  8
0
 10
2.28857
 20
4.12571
 30
0.0
 40
0.0104167
 41
0.0104167
  0
VERTEX
  8
0
 10
2.27067
 20
4.15224
 30
0.0
 40
0.0104167
 41
0.0104167
  0
VERTEX
  8
0
 10
2.26417
 20
4.17654
 30
0.0
 40
0.0104167
 41
0.0104167
  0
VERTEX
  8
0
 10
2.26417
 20
4.18463
 30
0.0
 40
0.0104167
 41
0.0104167
  0
VERTEX
  8
0
 10
2.26417
 20
4.19276
 30
0.0
 40
0.0104167
 41
0.0104167
  0
VERTEX
  8
0
 10
2.27067
 20
4.21707
 30
0.0
 40
0.0104167
 41
0.0104167
  0
VERTEX
  8
0
 10
2.28857
 20
4.24354
 30
0.0
 40
0.0104167
 41
0.0104167
  0
VERTEX
  8
0
 10
2.31506
 20
4.26144
 30
0.0
 40
0.0104167
 41
0.0104167
  0
VERTEX
  8
0
 10
2.33936
 20
4.26796
 30
0.0
 40
0.0104167
 41
0.0104167
  0
VERTEX
  8
0
 10
2.3475
 20
4.26796
 30
0.0
 40
0.0104167
 41
0.0104167
  0
VERTEX
  8
0
 10
2.35558
 20
4.26796
 30
0.0
 40
0.0104167
 41
0.0104167
  0
VERTEX
  8
0
 10
2.37993
 20
4.26144
 30
0.0
 40
0.0104167
 41
0.0104167
  0
VERTEX
  8
0
 10
2.40642
 20
4.24354
 30
0.0
 40
0.0104167
 41
0.0104167
  0
VERTEX
  8
0
 10
2.42426
 20
4.21707
 30
0.0
 40
0.0104167
 41
0.0104167
  0
VERTEX
  8
0
 10
2.43083
 20
4.19276
 30
0.0
 40
0.0104167
 41
0.0104167
  0
VERTEX
  8
0
 10
2.43083
 20
4.18463
 30
0.0
 40
0.0104167
 41
0.0104167
  0
SEQEND
 8
0
  0
POLYLINE
  8
0
 62
     7
 66
     1
 10
0
 20
0
 30
0.0
 70
     1
 40
0
 41
0
  0
VERTEX
  8
0
 10
2.43083
 20
3.89399
 30
0.0
 40
0
 41
0
  0
VERTEX
  8
0
 10
2.43083
 20
3.8859
 30
0.0
 40
0
 41
0
  0
VERTEX
  8
0
 10
2.42426
 20
3.8616
 30
0.0
 40
0
 41
0
  0
VERTEX
  8
0
 10
2.40642
 20
3.83507
 30
0.0
 40
0
 41
0
  0
VERTEX
  8
0
 10
2.37993
 20
3.81722
 30
0.0
 40
0
 41
0
  0
VERTEX
  8
0
 10
2.35558
 20
3.81065
 30
0.0
 40
0
 41
0
  0
VERTEX
  8
0
 10
2.3475
 20
3.81065
 30
0.0
 40
0
 41
0
  0
VERTEX
  8
0
 10
2.33936
 20
3.81065
 30
0.0
 40
0
 41
0
  0
VERTEX
  8
0
 10
2.31506
 20
3.81722
 30
0.0
 40
0
 41
0
  0
VERTEX
  8
0
 10
2.28857
 20
3.83507
 30
0.0
 40
0
 41
0
  0
VERTEX
  8
0
 10
2.27067
 20
3.8616
 30
0.0
 40
0
 41
0
  0
VERTEX
  8
0
 10
2.26417
 20
3.8859
 30
0.0
 40
0
 41
0
  0
VERTEX
  8
0
 10
2.26417
 20
3.89399
 30
0.0
 40
0
 41
0
  0
VERTEX
  8
0
 10
2.26417
 20
3.90213
 30
0.0
 40
0
 41
0
  0
VERTEX
  8
0
 10
2.27067
 20
3.92649
 30
0.0
 40
0
 41
0
  0
VERTEX
  8
0
 10
2.28857
 20
3.95296
 30
0.0
 40
0
 41
0
  0
VERTEX
  8
0
 10
2.31506
 20
3.97081
 30
0.0
 40
0
 41
0
  0
VERTEX
  8
0
 10
2.33936
 20
3.97732
 30
0.0
 40
0
 41
0
  0
VERTEX
  8
0
 10
2.3475
 20
3.97732
 30
0.0
 40
0
 41
0
  0
VERTEX
  8
0
 10
2.35558
 20
3.97732
 30
0.0
 40
0
 41
0
  0
VERTEX
  8
0
 10
2.37993
 20
3.97081
 30
0.0
 40
0
 41
0
  0
VERTEX
  8
0
 10
2.40642
 20
3.95296
 30
0.0
 40
0
 41
0
  0
VERTEX
  8
0
 10
2.42426
 20
3.92649
 30
0.0
 40
0
 41
0
  0
VERTEX
  8
0
 10
2.43083
 20
3.90213
 30
0.0
 40
0
 41
0
  0
VERTEX
  8
0
 10
2.43083
 20
3.89399
 30
0.0
 40
0
 41
0
  0
SEQEND
 8
0
  0
POLYLINE
  8
0
 62
     0
 66
     1
 10
0
 20
0
 30
0.0
 70
     1
 40
0.75
 41
0.75
  0
VERTEX
  8
0
 10
2.43083
 20
3.89399
 30
0.0
 40
0.0104167
 41
0.0104167
  0
VERTEX
  8
0
 10
2.43083
 20
3.8859
 30
0.0
 40
0.0104167
 41
0.0104167
  0
VERTEX
  8
0
 10
2.42426
 20
3.8616
 30
0.0
 40
0.0104167
 41
0.0104167
  0
VERTEX
  8
0
 10
2.40642
 20
3.83507
 30
0.0
 40
0.0104167
 41
0.0104167
  0
VERTEX
  8
0
 10
2.37993
 20
3.81722
 30
0.0
 40
0.0104167
 41
0.0104167
  0
VERTEX
  8
0
 10
2.35558
 20
3.81065
 30
0.0
 40
0.0104167
 41
0.0104167
  0
VERTEX
  8
0
 10
2.3475
 20
3.81065
 30
0.0
 40
0.0104167
 41
0.0104167
  0
VERTEX
  8
0
 10
2.33936
 20
3.81065
 30
0.0
 40
0.0104167
 41
0.0104167
  0
VERTEX
  8
0
 10
2.31506
 20
3.81722
 30
0.0
 40
0.0104167
 41
0.0104167
  0
VERTEX
  8
0
 10
2.28857
 20
3.83507
 30
0.0
 40
0.0104167
 41
0.0104167
  0
VERTEX
  8
0
 10
2.27067
 20
3.8616
 30
0.0
 40
0.0104167
 41
0.0104167
  0
VERTEX
  8
0
 10
2.26417
 20
3.8859
 30
0.0
 40
0.0104167
 41
0.0104167
  0
VERTEX
  8
0
 10
2.26417
 20
3.89399
 30
0.0
 40
0.0104167
 41
0.0104167
  0
VERTEX
  8
0
 10
2.26417
 20
3.90213
 30
0.0
 40
0.0104167
 41
0.0104167
  0
VERTEX
  8
0
 10
2.27067
 20
3.92649
 30
0.0
 40
0.0104167
 41
0.0104167
  0
VERTEX
  8
0
 10
2.28857
 20
3.95296
 30
0.0
 40
0.0104167
 41
0.0104167
  0
VERTEX
  8
0
 10
2.31506
 20
3.97081
 30
0.0
 40
0.0104167
 41
0.0104167
  0
VERTEX
  8
0
 10
2.33936
 20
3.97732
 30
0.0
 40
0.0104167
 41
0.0104167
  0
VERTEX
  8
0
 10
2.3475
 20
3.97732
 30
0.0
 40
0.0104167
 41
0.0104167
  0
VERTEX
  8
0
 10
2.35558
 20
3.97732
 30
0.0
 40
0.0104167
 41
0.0104167
  0
VERTEX
  8
0
 10
2.37993
 20
3.97081
 30
0.0
 40
0.0104167
 41
0.0104167
  0
VERTEX
  8
0
 10
2.40642
 20
3.95296
 30
0.0
 40
0.0104167
 41
0.0104167
  0
VERTEX
  8
0
 10
2.42426
 20
3.92649
 30
0.0
 40
0.0104167
 41
0.0104167
  0
VERTEX
  8
0
 10
2.43083
 20
3.90213
 30
0.0
 40
0.0104167
 41
0.0104167
  0
VERTEX
  8
0
 10
2.43083
 20
3.89399
 30
0.0
 40
0.0104167
 41
0.0104167
  0
SEQEND
 8
0
  0
POLYLINE
  8
0
 62
     7
 66
     1
 10
0
 20
0
 30
0.0
 70
     1
 40
0
 41
0
  0
VERTEX
  8
0
 10
1.61778
 20
4.35064
 30
0.0
 40
0
 41
0
  0
VERTEX
  8
0
 10
2.08083
 20
4.35064
 30
0.0
 40
0
 41
0
  0
VERTEX
  8
0
 10
2.08083
 20
3.72564
 30
0.0
 40
0
 41
0
  0
VERTEX
  8
0
 10
1.61778
 20
3.72564
 30
0.0
 40
0
 41
0
  0
VERTEX
  8
0
 10
1.61778
 20
4.35064
 30
0.0
 40
0
 41
0
  0
SEQEND
 8
0
  0
POLYLINE
  8
0
 62
     0
 66
     1
 10
0
 20
0
 30
0.0
 70
     1
 40
0.555675
 41
0.555675
  0
VERTEX
  8
0
 10
1.61778
 20
4.35064
 30
0.0
 40
0.00771771
 41
0.00771771
  0
VERTEX
  8
0
 10
2.08083
 20
4.35064
 30
0.0
 40
0.00771771
 41
0.00771771
  0
VERTEX
  8
0
 10
2.08083
 20
3.72564
 30
0.0
 40
0.00771771
 41
0.00771771
  0
VERTEX
  8
0
 10
1.61778
 20
3.72564
 30
0.0
 40
0.00771771
 41
0.00771771
  0
VERTEX
  8
0
 10
1.61778
 20
4.35064
 30
0.0
 40
0.00771771
 41
0.00771771
  0
SEQEND
 8
0
  0
POLYLINE
  8
0
 62
     0
 66
     1
 10
0
 20
0
 30
0.0
 40
0.555675
 41
0.555675
  0
VERTEX
  8
0
 10
1.61778
 20
4.35064
 30
0.0
 40
0.00771771
 41
0.00771771
  0
VERTEX
  8
0
 10
1.85004
 20
3.93608
 30
0.0
 40
0.00771771
 41
0.00771771
  0
VERTEX
  8
0
 10
1.85004
 20
4.14854
 30
0.0
 40
0.00771771
 41
0.00771771
  0
VERTEX
  8
0
 10
2.08008
 20
3.72564
 30
0.0
 40
0.00771771
 41
0.00771771
  0
SEQEND
 8
0
  0
POLYLINE
  8
0
 62
     7
 66
     1
 10
0
 20
0
 30
0.0
 70
     1
 40
0
 41
0
  0
VERTEX
  8
0
 10
1.14985
 20
4.29611
 30
0.0
 40
0
 41
0
  0
VERTEX
  8
0
 10
1.57525
 20
4.29611
 30
0.0
 40
0
 41
0
  0
VERTEX
  8
0
 10
1.57525
 20
3.82736
 30
0.0
 40
0
 41
0
  0
VERTEX
  8
0
 10
1.14985
 20
3.82736
 30
0.0
 40
0
 41
0
  0
VERTEX
  8
0
 10
1.14985
 20
4.29611
 30
0.0
 40
0
 41
0
  0
SEQEND
 8
0
  0
POLYLINE
  8
0
 62
     0
 66
     1
 10
0
 20
0
 30
0.0
 70
     1
 40
0.75
 41
0.75
  0
VERTEX
  8
0
 10
1.14985
 20
4.29611
 30
0.0
 40
0.0104167
 41
0.0104167
  0
VERTEX
  8
0
 10
1.57525
 20
4.29611
 30
0.0
 40
0.0104167
 41
0.0104167
  0
VERTEX
  8
0
 10
1.57525
 20
3.82736
 30
0.0
 40
0.0104167
 41
0.0104167
  0
VERTEX
  8
0
 10
1.14985
 20
3.82736
 30
0.0
 40
0.0104167
 41
0.0104167
  0
VERTEX
  8
0
 10
1.14985
 20
4.29611
 30
0.0
 40
0.0104167
 41
0.0104167
  0
SEQEND
 8
0
  0
POLYLINE
  8
0
 62
     7
 66
     1
 10
0
 20
0
 30
0.0
 70
     1
 40
0
 41
0
  0
VERTEX
  8
0
 10
1.32606
 20
4.06174
 30
0.0
 40
0
 41
0
  0
VERTEX
  8
0
 10
1.32606
 20
4.06819
 30
0.0
 40
0
 41
0
  0
VERTEX
  8
0
 10
1.3367
 20
4.08757
 30
0.0
 40
0
 41
0
  0
VERTEX
  8
0
 10
1.35607
 20
4.09819
 30
0.0
 40
0
 41
0
  0
VERTEX
  8
0
 10
1.36252
 20
4.09819
 30
0.0
 40
0
 41
0
  0
VERTEX
  8
0
 10
1.36892
 20
4.09819
 30
0.0
 40
0
 41
0
  0
VERTEX
  8
0
 10
1.38829
 20
4.08757
 30
0.0
 40
0
 41
0
  0
VERTEX
  8
0
 10
1.39899
 20
4.06819
 30
0.0
 40
0
 41
0
  0
VERTEX
  8
0
 10
1.39899
 20
4.06174
 30
0.0
 40
0
 41
0
  0
VERTEX
  8
0
 10
1.39899
 20
4.05533
 30
0.0
 40
0
 41
0
  0
VERTEX
  8
0
 10
1.38829
 20
4.03597
 30
0.0
 40
0
 41
0
  0
VERTEX
  8
0
 10
1.36892
 20
4.02528
 30
0.0
 40
0
 41
0
  0
VERTEX
  8
0
 10
1.36252
 20
4.02528
 30
0.0
 40
0
 41
0
  0
VERTEX
  8
0
 10
1.35607
 20
4.02528
 30
0.0
 40
0
 41
0
  0
VERTEX
  8
0
 10
1.3367
 20
4.03597
 30
0.0
 40
0
 41
0
  0
VERTEX
  8
0
 10
1.32606
 20
4.05533
 30
0.0
 40
0
 41
0
  0
VERTEX
  8
0
 10
1.32606
 20
4.06174
 30
0.0
 40
0
 41
0
  0
SEQEND
 8
0
  0
POLYLINE
  8
0
 62
     0
 66
     1
 10
0
 20
0
 30
0.0
 70
     1
 40
0.6
 41
0.6
  0
VERTEX
  8
0
 10
1.32606
 20
4.06174
 30
0.0
 40
0.00833333
 41
0.00833333
  0
VERTEX
  8
0
 10
1.32606
 20
4.06819
 30
0.0
 40
0.00833333
 41
0.00833333
  0
VERTEX
  8
0
 10
1.3367
 20
4.08757
 30
0.0
 40
0.00833333
 41
0.00833333
  0
VERTEX
  8
0
 10
1.35607
 20
4.09819
 30
0.0
 40
0.00833333
 41
0.00833333
  0
VERTEX
  8
0
 10
1.36252
 20
4.09819
 30
0.0
 40
0.00833333
 41
0.00833333
  0
VERTEX
  8
0
 10
1.36892
 20
4.09819
 30
0.0
 40
0.00833333
 41
0.00833333
  0
VERTEX
  8
0
 10
1.38829
 20
4.08757
 30
0.0
 40
0.00833333
 41
0.00833333
  0
VERTEX
  8
0
 10
1.39899
 20
4.06819
 30
0.0
 40
0.00833333
 41
0.00833333
  0
VERTEX
  8
0
 10
1.39899
 20
4.06174
 30
0.0
 40
0.00833333
 41
0.00833333
  0
VERTEX
  8
0
 10
1.39899
 20
4.05533
 30
0.0
 40
0.00833333
 41
0.00833333
  0
VERTEX
  8
0
 10
1.38829
 20
4.03597
 30
0.0
 40
0.00833333
 41
0.00833333
  0
VERTEX
  8
0
 10
1.36892
 20
4.02528
 30
0.0
 40
0.00833333
 41
0.00833333
  0
VERTEX
  8
0
 10
1.36252
 20
4.02528
 30
0.0
 40
0.00833333
 41
0.00833333
  0
VERTEX
  8
0
 10
1.35607
 20
4.02528
 30
0.0
 40
0.00833333
 41
0.00833333
  0
VERTEX
  8
0
 10
1.3367
 20
4.03597
 30
0.0
 40
0.00833333
 41
0.00833333
  0
VERTEX
  8
0
 10
1.32606
 20
4.05533
 30
0.0
 40
0.00833333
 41
0.00833333
  0
VERTEX
  8
0
 10
1.32606
 20
4.06174
 30
0.0
 40
0.00833333
 41
0.00833333
  0
SEQEND
 8
0
  0
POLYLINE
  8
0
 62
     7
 66
     1
 10
0
 20
0
 30
0.0
 70
     1
 40
0
 41
0
  0
VERTEX
  8
0
 10
1.34169
 20
4.06174
 30
0.0
 40
0
 41
0
  0
VERTEX
  8
0
 10
1.34169
 20
4.06543
 30
0.0
 40
0
 41
0
  0
VERTEX
  8
0
 10
1.34777
 20
4.0765
 30
0.0
 40
0
 41
0
  0
VERTEX
  8
0
 10
1.35883
 20
4.08257
 30
0.0
 40
0
 41
0
  0
VERTEX
  8
0
 10
1.36252
 20
4.08257
 30
0.0
 40
0
 41
0
  0
VERTEX
  8
0
 10
1.36616
 20
4.08257
 30
0.0
 40
0
 41
0
  0
VERTEX
  8
0
 10
1.37723
 20
4.0765
 30
0.0
 40
0
 41
0
  0
VERTEX
  8
0
 10
1.38336
 20
4.06543
 30
0.0
 40
0
 41
0
  0
VERTEX
  8
0
 10
1.38336
 20
4.06174
 30
0.0
 40
0
 41
0
  0
VERTEX
  8
0
 10
1.38336
 20
4.05811
 30
0.0
 40
0
 41
0
  0
VERTEX
  8
0
 10
1.37723
 20
4.04704
 30
0.0
 40
0
 41
0
  0
VERTEX
  8
0
 10
1.36616
 20
4.0409
 30
0.0
 40
0
 41
0
  0
VERTEX
  8
0
 10
1.36252
 20
4.0409
 30
0.0
 40
0
 41
0
  0
VERTEX
  8
0
 10
1.35883
 20
4.0409
 30
0.0
 40
0
 41
0
  0
VERTEX
  8
0
 10
1.34777
 20
4.04704
 30
0.0
 40
0
 41
0
  0
VERTEX
  8
0
 10
1.34169
 20
4.05811
 30
0.0
 40
0
 41
0
  0
VERTEX
  8
0
 10
1.34169
 20
4.06174
 30
0.0
 40
0
 41
0
  0
SEQEND
 8
0
  0
POLYLINE
  8
0
 62
     0
 66
     1
 10
0
 20
0
 30
0.0
 70
     1
 40
0.6
 41
0.6
  0
VERTEX
  8
0
 10
1.34169
 20
4.06174
 30
0.0
 40
0.00833333
 41
0.00833333
  0
VERTEX
  8
0
 10
1.34169
 20
4.06543
 30
0.0
 40
0.00833333
 41
0.00833333
  0
VERTEX
  8
0
 10
1.34777
 20
4.0765
 30
0.0
 40
0.00833333
 41
0.00833333
  0
VERTEX
  8
0
 10
1.35883
 20
4.08257
 30
0.0
 40
0.00833333
 41
0.00833333
  0
VERTEX
  8
0
 10
1.36252
 20
4.08257
 30
0.0
 40
0.00833333
 41
0.00833333
  0
VERTEX
  8
0
 10
1.36616
 20
4.08257
 30
0.0
 40
0.00833333
 41
0.00833333
  0
VERTEX
  8
0
 10
1.37723
 20
4.0765
 30
0.0
 40
0.00833333
 41
0.00833333
  0
VERTEX
  8
0
 10
1.38336
 20
4.06543
 30
0.0
 40
0.00833333
 41
0.00833333
  0
VERTEX
  8
0
 10
1.38336
 20
4.06174
 30
0.0
 40
0.00833333
 41
0.00833333
  0
VERTEX
  8
0
 10
1.38336
 20
4.05811
 30
0.0
 40
0.00833333
 41
0.00833333
  0
VERTEX
  8
0
 10
1.37723
 20
4.04704
 30
0.0
 40
0.00833333
 41
0.00833333
  0
VERTEX
  8
0
 10
1.36616
 20
4.0409
 30
0.0
 40
0.00833333
 41
0.00833333
  0
VERTEX
  8
0
 10
1.36252
 20
4.0409
 30
0.0
 40
0.00833333
 41
0.00833333
  0
VERTEX
  8
0
 10
1.35883
 20
4.0409
 30
0.0
 40
0.00833333
 41
0.00833333
  0
VERTEX
  8
0
 10
1.34777
 20
4.04704
 30
0.0
 40
0.00833333
 41
0.00833333
  0
VERTEX
  8
0
 10
1.34169
 20
4.05811
 30
0.0
 40
0.00833333
 41
0.00833333
  0
VERTEX
  8
0
 10
1.34169
 20
4.06174
 30
0.0
 40
0.00833333
 41
0.00833333
  0
SEQEND
 8
0
  0
POLYLINE
  8
0
 62
     7
 66
     1
 10
0
 20
0
 30
0.0
 70
     1
 40
0
 41
0
  0
VERTEX
  8
0
 10
1.32557
 20
3.92421
 30
0.0
 40
0
 41
0
  0
VERTEX
  8
0
 10
1.38807
 20
3.92421
 30
0.0
 40
0
 41
0
  0
VERTEX
  8
0
 10
1.38807
 20
3.77838
 30
0.0
 40
0
 41
0
  0
VERTEX
  8
0
 10
1.32557
 20
3.77838
 30
0.0
 40
0
 41
0
  0
VERTEX
  8
0
 10
1.32557
 20
3.92421
 30
0.0
 40
0
 41
0
  0
SEQEND
 8
0
  0
POLYLINE
  8
0
 62
     0
 66
     1
 10
0
 20
0
 30
0.0
 70
     1
 40
0.75
 41
0.75
  0
VERTEX
  8
0
 10
1.32557
 20
3.92421
 30
0.0
 40
0.0104167
 41
0.0104167
  0
VERTEX
  8
0
 10
1.38807
 20
3.92421
 30
0.0
 40
0.0104167
 41
0.0104167
  0
VERTEX
  8
0
 10
1.38807
 20
3.77838
 30
0.0
 40
0.0104167
 41
0.0104167
  0
VERTEX
  8
0
 10
1.32557
 20
3.77838
 30
0.0
 40
0.0104167
 41
0.0104167
  0
VERTEX
  8
0
 10
1.32557
 20
3.92421
 30
0.0
 40
0.0104167
 41
0.0104167
  0
SEQEND
 8
0
  0
POLYLINE
  8
0
 62
     0
 66
     1
 10
0
 20
0
 30
0.0
 70
     1
 40
0.75
 41
0.75
  0
VERTEX
  8
0
 10
0.689779
 20
4.03944
 30
0.0
 40
0.0104167
 41
0.0104167
  0
VERTEX
  8
0
 10
2.60656
 20
4.03944
 30
0.0
 40
0.0104167
 41
0.0104167
  0
VERTEX
  8
0
 10
2.60656
 20
3.72694
 30
0.0
 40
0.0104167
 41
0.0104167
  0
VERTEX
  8
0
 10
0.689779
 20
3.72694
 30
0.0
 40
0.0104167
 41
0.0104167
  0
VERTEX
  8
0
 10
0.689779
 20
4.03944
 30
0.0
 40
0.0104167
 41
0.0104167
  0
SEQEND
 8
0
  0
POLYLINE
  8
0
 62
     7
 66
     1
 10
0
 20
0
 30
0.0
 70
     1
 40
0
 41
0
  0
VERTEX
  8
0
 10
2.17301
 20
9.05057
 30
0.0
 40
0
 41
0
  0
VERTEX
  8
0
 10
2.17301
 20
9.40912
 30
0.0
 40
0
 41
0
  0
VERTEX
  8
0
 10
2.1001
 20
9.48204
 30
0.0
 40
0
 41
0
  0
VERTEX
  8
0
 10
2.1001
 20
9.05057
 30
0.0
 40
0
 41
0
  0
VERTEX
  8
0
 10
2.17301
 20
9.05057
 30
0.0
 40
0
 41
0
  0
SEQEND
 8
0
  0
POLYLINE
  8
0
 62
     0
 66
     1
 10
0
 20
0
 30
0.0
 70
     1
 40
0.15
 41
0.15
  0
VERTEX
  8
0
 10
2.17301
 20
9.05057
 30
0.0
 40
0.00208333
 41
0.00208333
  0
VERTEX
  8
0
 10
2.17301
 20
9.40912
 30
0.0
 40
0.00208333
 41
0.00208333
  0
VERTEX
  8
0
 10
2.1001
 20
9.48204
 30
0.0
 40
0.00208333
 41
0.00208333
  0
VERTEX
  8
0
 10
2.1001
 20
9.05057
 30
0.0
 40
0.00208333
 41
0.00208333
  0
VERTEX
  8
0
 10
2.17301
 20
9.05057
 30
0.0
 40
0.00208333
 41
0.00208333
  0
SEQEND
 8
0
  0
POLYLINE
  8
0
 62
     7
 66
     1
 10
0
 20
0
 30
0.0
 70
     1
 40
0
 41
0
  0
VERTEX
  8
0
 10
2.17301
 20
9.40912
 30
0.0
 40
0
 41
0
  0
VERTEX
  8
0
 10
3.11344
 20
9.40912
 30
0.0
 40
0
 41
0
  0
VERTEX
  8
0
 10
3.18636
 20
9.48204
 30
0.0
 40
0
 41
0
  0
VERTEX
  8
0
 10
2.1001
 20
9.48204
 30
0.0
 40
0
 41
0
  0
VERTEX
  8
0
 10
2.17301
 20
9.40912
 30
0.0
 40
0
 41
0
  0
SEQEND
 8
0
  0
POLYLINE
  8
0
 62
     0
 66
     1
 10
0
 20
0
 30
0.0
 70
     1
 40
0.15
 41
0.15
  0
VERTEX
  8
0
 10
2.17301
 20
9.40912
 30
0.0
 40
0.00208333
 41
0.00208333
  0
VERTEX
  8
0
 10
3.11344
 20
9.40912
 30
0.0
 40
0.00208333
 41
0.00208333
  0
VERTEX
  8
0
 10
3.18636
 20
9.48204
 30
0.0
 40
0.00208333
 41
0.00208333
  0
VERTEX
  8
0
 10
2.1001
 20
9.48204
 30
0.0
 40
0.00208333
 41
0.00208333
  0
VERTEX
  8
0
 10
2.17301
 20
9.40912
 30
0.0
 40
0.00208333
 41
0.00208333
  0
SEQEND
 8
0
  0
POLYLINE
  8
0
 62
     7
 66
     1
 10
0
 20
0
 30
0.0
 70
     1
 40
0
 41
0
  0
VERTEX
  8
0
 10
3.11344
 20
9.40912
 30
0.0
 40
0
 41
0
  0
VERTEX
  8
0
 10
3.11344
 20
9.05057
 30
0.0
 40
0
 41
0
  0
VERTEX
  8
0
 10
3.18636
 20
9.05057
 30
0.0
 40
0
 41
0
  0
VERTEX
  8
0
 10
3.18636
 20
9.48204
 30
0.0
 40
0
 41
0
  0
VERTEX
  8
0
 10
3.11344
 20
9.40912
 30
0.0
 40
0
 41
0
  0
SEQEND
 8
0
  0
POLYLINE
  8
0
 62
     0
 66
     1
 10
0
 20
0
 30
0.0
 70
     1
 40
0.15
 41
0.15
  0
VERTEX
  8
0
 10
3.11344
 20
9.40912
 30
0.0
 40
0.00208333
 41
0.00208333
  0
VERTEX
  8
0
 10
3.11344
 20
9.05057
 30
0.0
 40
0.00208333
 41
0.00208333
  0
VERTEX
  8
0
 10
3.18636
 20
9.05057
 30
0.0
 40
0.00208333
 41
0.00208333
  0
VERTEX
  8
0
 10
3.18636
 20
9.48204
 30
0.0
 40
0.00208333
 41
0.00208333
  0
VERTEX
  8
0
 10
3.11344
 20
9.40912
 30
0.0
 40
0.00208333
 41
0.00208333
  0
SEQEND
 8
0
  0
ENDSEC
  0
EOF
