  0
SECTION
  2
HEADER
  9
$ACADVER
  1
AC1009
  9
$FILLMODE
 70
 0
  9
$SPLFRAME
 70
 1
  9
$EXTMIN
 10
0
 20
0
 30
0.0
  9
$EXTMAX
 10
41.6667
 20
41.6667
 30
0.0
  0
ENDSEC
  0
SECTION
  2
TABLES
  0
TABLE
  2
LAYER
 70
1
  0
LAYER
  2
0
 70
     0
 62
     7
  6
CONTINUOUS
  0
ENDTAB
  0
ENDSEC
  0
SECTION
  2
ENTITIES
  0
POLYLINE
  8
0
 62
     7
 66
     1
 10
0
 20
0
 30
0.0
 70
     1
 40
0
 41
0
  0
VERTEX
  8
0
 10
2.37093
 20
9.42746
 30
0.0
 40
0
 41
0
  0
VERTEX
  8
0
 10
0.777615
 20
9.42746
 30
0.0
 40
0
 41
0
  0
VERTEX
  8
0
 10
0.777615
 20
13.0312
 30
0.0
 40
0
 41
0
  0
VERTEX
  8
0
 10
2.37093
 20
13.0312
 30
0.0
 40
0
 41
0
  0
VERTEX
  8
0
 10
2.37093
 20
9.41487
 30
0.0
 40
0
 41
0
  0
VERTEX
  8
0
 10
2.37093
 20
9.42746
 30
0.0
 40
0
 41
0
  0
SEQEND
 8
0
  0
POLYLINE
  8
0
 62
     0
 66
     1
 10
0
 20
0
 30
0.0
 70
     1
 40
0.15
 41
0.15
  0
VERTEX
  8
0
 10
2.37093
 20
9.42746
 30
0.0
 40
0.00208333
 41
0.00208333
  0
VERTEX
  8
0
 10
0.777615
 20
9.42746
 30
0.0
 40
0.00208333
 41
0.00208333
  0
VERTEX
  8
0
 10
0.777615
 20
13.0312
 30
0.0
 40
0.00208333
 41
0.00208333
  0
VERTEX
  8
0
 10
2.37093
 20
13.0312
 30
0.0
 40
0.00208333
 41
0.00208333
  0
VERTEX
  8
0
 10
2.37093
 20
9.41487
 30
0.0
 40
0.00208333
 41
0.00208333
  0
VERTEX
  8
0
 10
2.37093
 20
9.42746
 30
0.0
 40
0.00208333
 41
0.00208333
  0
SEQEND
 8
0
  0
POLYLINE
  8
0
 62
     7
 66
     1
 10
0
 20
0
 30
0.0
 70
     1
 40
0
 41
0
  0
VERTEX
  8
0
 10
0.965115
 20
9.03233
 30
0.0
 40
0
 41
0
  0
VERTEX
  8
0
 10
4.05387
 20
9.03233
 30
0.0
 40
0
 41
0
  0
VERTEX
  8
0
 10
4.05387
 20
5.25082
 30
0.0
 40
0
 41
0
  0
VERTEX
  8
0
 10
0.965115
 20
5.25082
 30
0.0
 40
0
 41
0
  0
VERTEX
  8
0
 10
0.965115
 20
9.03233
 30
0.0
 40
0
 41
0
  0
SEQEND
 8
0
  0
POLYLINE
  8
0
 62
     7
 66
     1
 10
0
 20
0
 30
0.0
 70
     1
 40
0.15
 41
0.15
  0
VERTEX
  8
0
 10
0.965115
 20
9.03233
 30
0.0
 40
0.00208333
 41
0.00208333
  0
VERTEX
  8
0
 10
4.05387
 20
9.03233
 30
0.0
 40
0.00208333
 41
0.00208333
  0
VERTEX
  8
0
 10
4.05387
 20
5.25082
 30
0.0
 40
0.00208333
 41
0.00208333
  0
VERTEX
  8
0
 10
0.965115
 20
5.25082
 30
0.0
 40
0.00208333
 41
0.00208333
  0
VERTEX
  8
0
 10
0.965115
 20
9.03233
 30
0.0
 40
0.00208333
 41
0.00208333
  0
SEQEND
 8
0
  0
POLYLINE
  8
0
 62
     7
 66
     1
 10
0
 20
0
 30
0.0
 70
     1
 40
0
 41
0
  0
VERTEX
  8
0
 10
9.07075
 20
8.07497
 30
0.0
 40
0
 41
0
  0
VERTEX
  8
0
 10
9.07146
 20
8.07497
 30
0.0
 40
0
 41
0
  0
VERTEX
  8
0
 10
9.06104
 20
1.28369
 30
0.0
 40
0
 41
0
  0
VERTEX
  8
0
 10
7.47396
 20
1.28369
 30
0.0
 40
0
 41
0
  0
VERTEX
  8
0
 10
7.47396
 20
5.25082
 30
0.0
 40
0
 41
0
  0
VERTEX
  8
0
 10
7.19476
 20
5.25082
 30
0.0
 40
0
 41
0
  0
VERTEX
  8
0
 10
7.19476
 20
7.44738
 30
0.0
 40
0
 41
0
  0
VERTEX
  8
0
 10
6.55208
 20
7.98611
 30
0.0
 40
0
 41
0
  0
VERTEX
  8
0
 10
6.55251
 20
7.98633
 30
0.0
 40
0
 41
0
  0
VERTEX
  8
0
 10
5.0625
 20
7.986
 30
0.0
 40
0
 41
0
  0
VERTEX
  8
0
 10
4.05387
 20
7.986
 30
0.0
 40
0
 41
0
  0
VERTEX
  8
0
 10
4.05387
 20
9.03233
 30
0.0
 40
0
 41
0
  0
VERTEX
  8
0
 10
9.07075
 20
9.03233
 30
0.0
 40
0
 41
0
  0
VERTEX
  8
0
 10
9.07075
 20
8.07497
 30
0.0
 40
0
 41
0
  0
SEQEND
 8
0
  0
POLYLINE
  8
0
 62
     7
 66
     1
 10
0
 20
0
 30
0.0
 70
     1
 40
0.15
 41
0.15
  0
VERTEX
  8
0
 10
9.07075
 20
8.07497
 30
0.0
 40
0.00208333
 41
0.00208333
  0
VERTEX
  8
0
 10
9.07146
 20
8.07497
 30
0.0
 40
0.00208333
 41
0.00208333
  0
VERTEX
  8
0
 10
9.06104
 20
1.28369
 30
0.0
 40
0.00208333
 41
0.00208333
  0
VERTEX
  8
0
 10
7.47396
 20
1.28369
 30
0.0
 40
0.00208333
 41
0.00208333
  0
VERTEX
  8
0
 10
7.47396
 20
5.25082
 30
0.0
 40
0.00208333
 41
0.00208333
  0
VERTEX
  8
0
 10
7.19476
 20
5.25082
 30
0.0
 40
0.00208333
 41
0.00208333
  0
VERTEX
  8
0
 10
7.19476
 20
7.44738
 30
0.0
 40
0.00208333
 41
0.00208333
  0
VERTEX
  8
0
 10
6.55208
 20
7.98611
 30
0.0
 40
0.00208333
 41
0.00208333
  0
VERTEX
  8
0
 10
6.55251
 20
7.98633
 30
0.0
 40
0.00208333
 41
0.00208333
  0
VERTEX
  8
0
 10
5.0625
 20
7.986
 30
0.0
 40
0.00208333
 41
0.00208333
  0
VERTEX
  8
0
 10
4.05387
 20
7.986
 30
0.0
 40
0.00208333
 41
0.00208333
  0
VERTEX
  8
0
 10
4.05387
 20
9.03233
 30
0.0
 40
0.00208333
 41
0.00208333
  0
VERTEX
  8
0
 10
9.07075
 20
9.03233
 30
0.0
 40
0.00208333
 41
0.00208333
  0
VERTEX
  8
0
 10
9.07075
 20
8.07497
 30
0.0
 40
0.00208333
 41
0.00208333
  0
SEQEND
 8
0
  0
POLYLINE
  8
0
 62
     7
 66
     1
 10
0
 20
0
 30
0.0
 70
     1
 40
0
 41
0
  0
VERTEX
  8
0
 10
9.07146
 20
10.1372
 30
0.0
 40
0
 41
0
  0
VERTEX
  8
0
 10
9.07075
 20
10.1372
 30
0.0
 40
0
 41
0
  0
VERTEX
  8
0
 10
9.07075
 20
9.03233
 30
0.0
 40
0
 41
0
  0
VERTEX
  8
0
 10
0.965115
 20
9.03233
 30
0.0
 40
0
 41
0
  0
VERTEX
  8
0
 10
0.965115
 20
9.04204
 30
0.0
 40
0
 41
0
  0
VERTEX
  8
0
 10
2.3904
 20
9.04204
 30
0.0
 40
0
 41
0
  0
VERTEX
  8
0
 10
7.50825
 20
9.03233
 30
0.0
 40
0
 41
0
  0
VERTEX
  8
0
 10
7.50846
 20
9.16374
 30
0.0
 40
0
 41
0
  0
VERTEX
  8
0
 10
2.52718
 20
9.17329
 30
0.0
 40
0
 41
0
  0
VERTEX
  8
0
 10
2.52718
 20
12.9597
 30
0.0
 40
0
 41
0
  0
VERTEX
  8
0
 10
9.07146
 20
12.9597
 30
0.0
 40
0
 41
0
  0
VERTEX
  8
0
 10
9.07146
 20
10.1372
 30
0.0
 40
0
 41
0
  0
SEQEND
 8
0
  0
POLYLINE
  8
0
 62
     7
 66
     1
 10
0
 20
0
 30
0.0
 70
     1
 40
0.15
 41
0.15
  0
VERTEX
  8
0
 10
9.07146
 20
10.1372
 30
0.0
 40
0.00208333
 41
0.00208333
  0
VERTEX
  8
0
 10
9.07075
 20
10.1372
 30
0.0
 40
0.00208333
 41
0.00208333
  0
VERTEX
  8
0
 10
9.07075
 20
9.03233
 30
0.0
 40
0.00208333
 41
0.00208333
  0
VERTEX
  8
0
 10
0.965115
 20
9.03233
 30
0.0
 40
0.00208333
 41
0.00208333
  0
VERTEX
  8
0
 10
0.965115
 20
9.04204
 30
0.0
 40
0.00208333
 41
0.00208333
  0
VERTEX
  8
0
 10
2.3904
 20
9.04204
 30
0.0
 40
0.00208333
 41
0.00208333
  0
VERTEX
  8
0
 10
7.50825
 20
9.03233
 30
0.0
 40
0.00208333
 41
0.00208333
  0
VERTEX
  8
0
 10
7.50846
 20
9.16374
 30
0.0
 40
0.00208333
 41
0.00208333
  0
VERTEX
  8
0
 10
2.52718
 20
9.17329
 30
0.0
 40
0.00208333
 41
0.00208333
  0
VERTEX
  8
0
 10
2.52718
 20
12.9597
 30
0.0
 40
0.00208333
 41
0.00208333
  0
VERTEX
  8
0
 10
9.07146
 20
12.9597
 30
0.0
 40
0.00208333
 41
0.00208333
  0
VERTEX
  8
0
 10
9.07146
 20
10.1372
 30
0.0
 40
0.00208333
 41
0.00208333
  0
SEQEND
 8
0
  0
POLYLINE
  8
0
 62
     7
 66
     1
 10
0
 20
0
 30
0.0
 70
     1
 40
0
 41
0
  0
VERTEX
  8
0
 10
9.07146
 20
8.07497
 30
0.0
 40
0
 41
0
  0
VERTEX
  8
0
 10
9.1645
 20
8.07497
 30
0.0
 40
0
 41
0
  0
VERTEX
  8
0
 10
9.1645
 20
9.03233
 30
0.0
 40
0
 41
0
  0
VERTEX
  8
0
 10
13.1886
 20
9.03233
 30
0.0
 40
0
 41
0
  0
VERTEX
  8
0
 10
13.1886
 20
5.2385
 30
0.0
 40
0
 41
0
  0
VERTEX
  8
0
 10
9.07146
 20
5.2385
 30
0.0
 40
0
 41
0
  0
VERTEX
  8
0
 10
9.07146
 20
8.07497
 30
0.0
 40
0
 41
0
  0
SEQEND
 8
0
  0
POLYLINE
  8
0
 62
     7
 66
     1
 10
0
 20
0
 30
0.0
 70
     1
 40
0.15
 41
0.15
  0
VERTEX
  8
0
 10
9.07146
 20
8.07497
 30
0.0
 40
0.00208333
 41
0.00208333
  0
VERTEX
  8
0
 10
9.1645
 20
8.07497
 30
0.0
 40
0.00208333
 41
0.00208333
  0
VERTEX
  8
0
 10
9.1645
 20
9.03233
 30
0.0
 40
0.00208333
 41
0.00208333
  0
VERTEX
  8
0
 10
13.1886
 20
9.03233
 30
0.0
 40
0.00208333
 41
0.00208333
  0
VERTEX
  8
0
 10
13.1886
 20
5.2385
 30
0.0
 40
0.00208333
 41
0.00208333
  0
VERTEX
  8
0
 10
9.07146
 20
5.2385
 30
0.0
 40
0.00208333
 41
0.00208333
  0
VERTEX
  8
0
 10
9.07146
 20
8.07497
 30
0.0
 40
0.00208333
 41
0.00208333
  0
SEQEND
 8
0
  0
POLYLINE
  8
0
 62
     7
 66
     1
 10
0
 20
0
 30
0.0
 70
     1
 40
0
 41
0
  0
VERTEX
  8
0
 10
13.1886
 20
9.17817
 30
0.0
 40
0
 41
0
  0
VERTEX
  8
0
 10
9.1645
 20
9.17817
 30
0.0
 40
0
 41
0
  0
VERTEX
  8
0
 10
9.1645
 20
10.1372
 30
0.0
 40
0
 41
0
  0
VERTEX
  8
0
 10
9.07146
 20
10.1372
 30
0.0
 40
0
 41
0
  0
VERTEX
  8
0
 10
9.07146
 20
12.9597
 30
0.0
 40
0
 41
0
  0
VERTEX
  8
0
 10
13.1886
 20
12.9597
 30
0.0
 40
0
 41
0
  0
VERTEX
  8
0
 10
13.1886
 20
9.17817
 30
0.0
 40
0
 41
0
  0
SEQEND
 8
0
  0
POLYLINE
  8
0
 62
     7
 66
     1
 10
0
 20
0
 30
0.0
 70
     1
 40
0.15
 41
0.15
  0
VERTEX
  8
0
 10
13.1886
 20
9.17817
 30
0.0
 40
0.00208333
 41
0.00208333
  0
VERTEX
  8
0
 10
9.1645
 20
9.17817
 30
0.0
 40
0.00208333
 41
0.00208333
  0
VERTEX
  8
0
 10
9.1645
 20
10.1372
 30
0.0
 40
0.00208333
 41
0.00208333
  0
VERTEX
  8
0
 10
9.07146
 20
10.1372
 30
0.0
 40
0.00208333
 41
0.00208333
  0
VERTEX
  8
0
 10
9.07146
 20
12.9597
 30
0.0
 40
0.00208333
 41
0.00208333
  0
VERTEX
  8
0
 10
13.1886
 20
12.9597
 30
0.0
 40
0.00208333
 41
0.00208333
  0
VERTEX
  8
0
 10
13.1886
 20
9.17817
 30
0.0
 40
0.00208333
 41
0.00208333
  0
SEQEND
 8
0
  0
POLYLINE
  8
0
 62
     7
 66
     1
 10
0
 20
0
 30
0.0
 70
     1
 40
0
 41
0
  0
VERTEX
  8
0
 10
9.15853
 20
4.13921
 30
0.0
 40
0
 41
0
  0
VERTEX
  8
0
 10
9.15853
 20
5.08225
 30
0.0
 40
0
 41
0
  0
VERTEX
  8
0
 10
13.1886
 20
5.08225
 30
0.0
 40
0
 41
0
  0
VERTEX
  8
0
 10
13.1886
 20
1.28369
 30
0.0
 40
0
 41
0
  0
VERTEX
  8
0
 10
9.06104
 20
1.28369
 30
0.0
 40
0
 41
0
  0
VERTEX
  8
0
 10
9.06478
 20
4.13921
 30
0.0
 40
0
 41
0
  0
VERTEX
  8
0
 10
9.15853
 20
4.13921
 30
0.0
 40
0
 41
0
  0
SEQEND
 8
0
  0
POLYLINE
  8
0
 62
     7
 66
     1
 10
0
 20
0
 30
0.0
 70
     1
 40
0.15
 41
0.15
  0
VERTEX
  8
0
 10
9.15853
 20
4.13921
 30
0.0
 40
0.00208333
 41
0.00208333
  0
VERTEX
  8
0
 10
9.15853
 20
5.08225
 30
0.0
 40
0.00208333
 41
0.00208333
  0
VERTEX
  8
0
 10
13.1886
 20
5.08225
 30
0.0
 40
0.00208333
 41
0.00208333
  0
VERTEX
  8
0
 10
13.1886
 20
1.28369
 30
0.0
 40
0.00208333
 41
0.00208333
  0
VERTEX
  8
0
 10
9.06104
 20
1.28369
 30
0.0
 40
0.00208333
 41
0.00208333
  0
VERTEX
  8
0
 10
9.06478
 20
4.13921
 30
0.0
 40
0.00208333
 41
0.00208333
  0
VERTEX
  8
0
 10
9.15853
 20
4.13921
 30
0.0
 40
0.00208333
 41
0.00208333
  0
SEQEND
 8
0
  0
POLYLINE
  8
0
 62
     7
 66
     1
 10
0
 20
0
 30
0.0
 70
     1
 40
0
 41
0
  0
VERTEX
  8
0
 10
7.11143
 20
7.40853
 30
0.0
 40
0
 41
0
  0
VERTEX
  8
0
 10
7.11143
 20
5.25082
 30
0.0
 40
0
 41
0
  0
VERTEX
  8
0
 10
5.14583
 20
5.25082
 30
0.0
 40
0
 41
0
  0
VERTEX
  8
0
 10
5.14583
 20
7.90267
 30
0.0
 40
0
 41
0
  0
VERTEX
  8
0
 10
6.52208
 20
7.903
 30
0.0
 40
0
 41
0
  0
VERTEX
  8
0
 10
7.11143
 20
7.40853
 30
0.0
 40
0
 41
0
  0
SEQEND
 8
0
  0
POLYLINE
  8
0
 62
     7
 66
     1
 10
0
 20
0
 30
0.0
 70
     1
 40
0.15
 41
0.15
  0
VERTEX
  8
0
 10
7.11143
 20
7.40853
 30
0.0
 40
0.00208333
 41
0.00208333
  0
VERTEX
  8
0
 10
7.11143
 20
5.25082
 30
0.0
 40
0.00208333
 41
0.00208333
  0
VERTEX
  8
0
 10
5.14583
 20
5.25082
 30
0.0
 40
0.00208333
 41
0.00208333
  0
VERTEX
  8
0
 10
5.14583
 20
7.90267
 30
0.0
 40
0.00208333
 41
0.00208333
  0
VERTEX
  8
0
 10
6.52208
 20
7.903
 30
0.0
 40
0.00208333
 41
0.00208333
  0
VERTEX
  8
0
 10
7.11143
 20
7.40853
 30
0.0
 40
0.00208333
 41
0.00208333
  0
SEQEND
 8
0
  0
POLYLINE
  8
0
 62
     7
 66
     1
 10
0
 20
0
 30
0.0
 70
     1
 40
0
 41
0
  0
VERTEX
  8
0
 10
4.13721
 20
7.90267
 30
0.0
 40
0
 41
0
  0
VERTEX
  8
0
 10
5.0625
 20
7.90267
 30
0.0
 40
0
 41
0
  0
VERTEX
  8
0
 10
5.0625
 20
5.63411
 30
0.0
 40
0
 41
0
  0
VERTEX
  8
0
 10
4.13721
 20
5.63411
 30
0.0
 40
0
 41
0
  0
VERTEX
  8
0
 10
4.13721
 20
7.90267
 30
0.0
 40
0
 41
0
  0
SEQEND
 8
0
  0
POLYLINE
  8
0
 62
     7
 66
     1
 10
0
 20
0
 30
0.0
 70
     1
 40
0.15
 41
0.15
  0
VERTEX
  8
0
 10
4.13721
 20
7.90267
 30
0.0
 40
0.00208333
 41
0.00208333
  0
VERTEX
  8
0
 10
5.0625
 20
7.90267
 30
0.0
 40
0.00208333
 41
0.00208333
  0
VERTEX
  8
0
 10
5.0625
 20
5.63411
 30
0.0
 40
0.00208333
 41
0.00208333
  0
VERTEX
  8
0
 10
4.13721
 20
5.63411
 30
0.0
 40
0.00208333
 41
0.00208333
  0
VERTEX
  8
0
 10
4.13721
 20
7.90267
 30
0.0
 40
0.00208333
 41
0.00208333
  0
SEQEND
 8
0
  0
POLYLINE
  8
0
 62
     0
 66
     1
 10
0
 20
0
 30
0.0
 70
     1
 40
0
 41
0
  0
VERTEX
  8
0
 10
2.52718
 20
12.9597
 30
0.0
 40
0
 41
0
  0
VERTEX
  8
0
 10
13.1886
 20
12.9597
 30
0.0
 40
0
 41
0
  0
VERTEX
  8
0
 10
13.5269
 20
13.2231
 30
0.0
 40
0
 41
0
  0
VERTEX
  8
0
 10
2.37093
 20
13.2231
 30
0.0
 40
0
 41
0
  0
VERTEX
  8
0
 10
2.52718
 20
12.9597
 30
0.0
 40
0
 41
0
  0
SEQEND
 8
0
  0
POLYLINE
  8
0
 62
     0
 66
     1
 10
0
 20
0
 30
0.0
 70
     1
 40
0.15
 41
0.15
  0
VERTEX
  8
0
 10
2.52718
 20
12.9597
 30
0.0
 40
0.00208333
 41
0.00208333
  0
VERTEX
  8
0
 10
13.1886
 20
12.9597
 30
0.0
 40
0.00208333
 41
0.00208333
  0
VERTEX
  8
0
 10
13.5269
 20
13.2231
 30
0.0
 40
0.00208333
 41
0.00208333
  0
VERTEX
  8
0
 10
2.37093
 20
13.2231
 30
0.0
 40
0.00208333
 41
0.00208333
  0
VERTEX
  8
0
 10
2.52718
 20
12.9597
 30
0.0
 40
0.00208333
 41
0.00208333
  0
SEQEND
 8
0
  0
POLYLINE
  8
0
 62
     7
 66
     1
 10
0
 20
0
 30
0.0
 70
     1
 40
0
 41
0
  0
VERTEX
  8
0
 10
6.02165
 20
13.2231
 30
0.0
 40
0
 41
0
  0
VERTEX
  8
0
 10
8.18468
 20
13.2231
 30
0.0
 40
0
 41
0
  0
VERTEX
  8
0
 10
8.18468
 20
12.9597
 30
0.0
 40
0
 41
0
  0
VERTEX
  8
0
 10
6.02165
 20
12.9597
 30
0.0
 40
0
 41
0
  0
VERTEX
  8
0
 10
6.02165
 20
13.2231
 30
0.0
 40
0
 41
0
  0
SEQEND
 8
0
  0
POLYLINE
  8
0
 62
     0
 66
     1
 10
0
 20
0
 30
0.0
 70
     1
 40
0.75
 41
0.75
  0
VERTEX
  8
0
 10
6.02165
 20
13.2231
 30
0.0
 40
0.0104167
 41
0.0104167
  0
VERTEX
  8
0
 10
8.18468
 20
13.2231
 30
0.0
 40
0.0104167
 41
0.0104167
  0
VERTEX
  8
0
 10
8.18468
 20
12.9597
 30
0.0
 40
0.0104167
 41
0.0104167
  0
VERTEX
  8
0
 10
6.02165
 20
12.9597
 30
0.0
 40
0.0104167
 41
0.0104167
  0
VERTEX
  8
0
 10
6.02165
 20
13.2231
 30
0.0
 40
0.0104167
 41
0.0104167
  0
SEQEND
 8
0
  0
POLYLINE
  8
0
 62
     7
 66
     1
 10
0
 20
0
 30
0.0
 70
     1
 40
0
 41
0
  0
VERTEX
  8
0
 10
6.02165
 20
13.2231
 30
0.0
 40
0
 41
0
  0
VERTEX
  8
0
 10
8.18468
 20
13.2231
 30
0.0
 40
0
 41
0
  0
VERTEX
  8
0
 10
8.18468
 20
12.9597
 30
0.0
 40
0
 41
0
  0
VERTEX
  8
0
 10
6.02165
 20
12.9597
 30
0.0
 40
0
 41
0
  0
VERTEX
  8
0
 10
6.02165
 20
13.2231
 30
0.0
 40
0
 41
0
  0
SEQEND
 8
0
  0
POLYLINE
  8
0
 62
     0
 66
     1
 10
0
 20
0
 30
0.0
 70
     1
 40
0.75
 41
0.75
  0
VERTEX
  8
0
 10
6.02165
 20
13.2231
 30
0.0
 40
0.0104167
 41
0.0104167
  0
VERTEX
  8
0
 10
8.18468
 20
13.2231
 30
0.0
 40
0.0104167
 41
0.0104167
  0
VERTEX
  8
0
 10
8.18468
 20
12.9597
 30
0.0
 40
0.0104167
 41
0.0104167
  0
VERTEX
  8
0
 10
6.02165
 20
12.9597
 30
0.0
 40
0.0104167
 41
0.0104167
  0
VERTEX
  8
0
 10
6.02165
 20
13.2231
 30
0.0
 40
0.0104167
 41
0.0104167
  0
SEQEND
 8
0
  0
POLYLINE
  8
0
 62
     0
 66
     1
 10
0
 20
0
 30
0.0
 40
0.75
 41
0.75
  0
VERTEX
  8
0
 10
6.09978
 20
13.0914
 30
0.0
 40
0.0104167
 41
0.0104167
  0
VERTEX
  8
0
 10
8.10656
 20
13.0914
 30
0.0
 40
0.0104167
 41
0.0104167
  0
SEQEND
 8
0
  0
POLYLINE
  8
0
 62
     0
 66
     1
 10
0
 20
0
 30
0.0
 40
0.75
 41
0.75
  0
VERTEX
  8
0
 10
6.09978
 20
12.9597
 30
0.0
 40
0.0104167
 41
0.0104167
  0
VERTEX
  8
0
 10
6.09978
 20
13.2231
 30
0.0
 40
0.0104167
 41
0.0104167
  0
SEQEND
 8
0
  0
POLYLINE
  8
0
 62
     0
 66
     1
 10
0
 20
0
 30
0.0
 40
0.75
 41
0.75
  0
VERTEX
  8
0
 10
8.10656
 20
12.9597
 30
0.0
 40
0.0104167
 41
0.0104167
  0
VERTEX
  8
0
 10
8.10656
 20
13.2231
 30
0.0
 40
0.0104167
 41
0.0104167
  0
SEQEND
 8
0
  0
POLYLINE
  8
0
 62
     0
 66
     1
 10
0
 20
0
 30
0.0
 70
     1
 40
0
 41
0
  0
VERTEX
  8
0
 10
13.1886
 20
12.9597
 30
0.0
 40
0
 41
0
  0
VERTEX
  8
0
 10
13.1886
 20
1.28369
 30
0.0
 40
0
 41
0
  0
VERTEX
  8
0
 10
13.5269
 20
0.971192
 30
0.0
 40
0
 41
0
  0
VERTEX
  8
0
 10
13.5269
 20
13.2231
 30
0.0
 40
0
 41
0
  0
VERTEX
  8
0
 10
13.1886
 20
12.9597
 30
0.0
 40
0
 41
0
  0
SEQEND
 8
0
  0
POLYLINE
  8
0
 62
     0
 66
     1
 10
0
 20
0
 30
0.0
 70
     1
 40
0.15
 41
0.15
  0
VERTEX
  8
0
 10
13.1886
 20
12.9597
 30
0.0
 40
0.00208333
 41
0.00208333
  0
VERTEX
  8
0
 10
13.1886
 20
1.28369
 30
0.0
 40
0.00208333
 41
0.00208333
  0
VERTEX
  8
0
 10
13.5269
 20
0.971192
 30
0.0
 40
0.00208333
 41
0.00208333
  0
VERTEX
  8
0
 10
13.5269
 20
13.2231
 30
0.0
 40
0.00208333
 41
0.00208333
  0
VERTEX
  8
0
 10
13.1886
 20
12.9597
 30
0.0
 40
0.00208333
 41
0.00208333
  0
SEQEND
 8
0
  0
POLYLINE
  8
0
 62
     7
 66
     1
 10
0
 20
0
 30
0.0
 70
     1
 40
0
 41
0
  0
VERTEX
  8
0
 10
13.1886
 20
4.43978
 30
0.0
 40
0
 41
0
  0
VERTEX
  8
0
 10
13.5269
 20
4.43978
 30
0.0
 40
0
 41
0
  0
VERTEX
  8
0
 10
13.5269
 20
1.33697
 30
0.0
 40
0
 41
0
  0
VERTEX
  8
0
 10
13.1886
 20
1.33697
 30
0.0
 40
0
 41
0
  0
VERTEX
  8
0
 10
13.1886
 20
4.43978
 30
0.0
 40
0
 41
0
  0
SEQEND
 8
0
  0
POLYLINE
  8
0
 62
     0
 66
     1
 10
0
 20
0
 30
0.0
 70
     1
 40
0.75
 41
0.75
  0
VERTEX
  8
0
 10
13.1886
 20
4.43978
 30
0.0
 40
0.0104167
 41
0.0104167
  0
VERTEX
  8
0
 10
13.5269
 20
4.43978
 30
0.0
 40
0.0104167
 41
0.0104167
  0
VERTEX
  8
0
 10
13.5269
 20
1.33697
 30
0.0
 40
0.0104167
 41
0.0104167
  0
VERTEX
  8
0
 10
13.1886
 20
1.33697
 30
0.0
 40
0.0104167
 41
0.0104167
  0
VERTEX
  8
0
 10
13.1886
 20
4.43978
 30
0.0
 40
0.0104167
 41
0.0104167
  0
SEQEND
 8
0
  0
POLYLINE
  8
0
 62
     7
 66
     1
 10
0
 20
0
 30
0.0
 70
     1
 40
0
 41
0
  0
VERTEX
  8
0
 10
13.1886
 20
4.43978
 30
0.0
 40
0
 41
0
  0
VERTEX
  8
0
 10
13.5269
 20
4.43978
 30
0.0
 40
0
 41
0
  0
VERTEX
  8
0
 10
13.5269
 20
1.33697
 30
0.0
 40
0
 41
0
  0
VERTEX
  8
0
 10
13.1886
 20
1.33697
 30
0.0
 40
0
 41
0
  0
VERTEX
  8
0
 10
13.1886
 20
4.43978
 30
0.0
 40
0
 41
0
  0
SEQEND
 8
0
  0
POLYLINE
  8
0
 62
     0
 66
     1
 10
0
 20
0
 30
0.0
 70
     1
 40
0.75
 41
0.75
  0
VERTEX
  8
0
 10
13.1886
 20
4.43978
 30
0.0
 40
0.0104167
 41
0.0104167
  0
VERTEX
  8
0
 10
13.5269
 20
4.43978
 30
0.0
 40
0.0104167
 41
0.0104167
  0
VERTEX
  8
0
 10
13.5269
 20
1.33697
 30
0.0
 40
0.0104167
 41
0.0104167
  0
VERTEX
  8
0
 10
13.1886
 20
1.33697
 30
0.0
 40
0.0104167
 41
0.0104167
  0
VERTEX
  8
0
 10
13.1886
 20
4.43978
 30
0.0
 40
0.0104167
 41
0.0104167
  0
SEQEND
 8
0
  0
POLYLINE
  8
0
 62
     0
 66
     1
 10
0
 20
0
 30
0.0
 40
0.75
 41
0.75
  0
VERTEX
  8
0
 10
13.3578
 20
4.36165
 30
0.0
 40
0.0104167
 41
0.0104167
  0
VERTEX
  8
0
 10
13.3578
 20
1.4151
 30
0.0
 40
0.0104167
 41
0.0104167
  0
SEQEND
 8
0
  0
POLYLINE
  8
0
 62
     0
 66
     1
 10
0
 20
0
 30
0.0
 40
0.75
 41
0.75
  0
VERTEX
  8
0
 10
13.1886
 20
4.36165
 30
0.0
 40
0.0104167
 41
0.0104167
  0
VERTEX
  8
0
 10
13.5269
 20
4.36165
 30
0.0
 40
0.0104167
 41
0.0104167
  0
SEQEND
 8
0
  0
POLYLINE
  8
0
 62
     0
 66
     1
 10
0
 20
0
 30
0.0
 40
0.75
 41
0.75
  0
VERTEX
  8
0
 10
13.1886
 20
1.4151
 30
0.0
 40
0.0104167
 41
0.0104167
  0
VERTEX
  8
0
 10
13.5269
 20
1.4151
 30
0.0
 40
0.0104167
 41
0.0104167
  0
SEQEND
 8
0
  0
POLYLINE
  8
0
 62
     7
 66
     1
 10
0
 20
0
 30
0.0
 70
     1
 40
0
 41
0
  0
VERTEX
  8
0
 10
13.1886
 20
8.3826
 30
0.0
 40
0
 41
0
  0
VERTEX
  8
0
 10
13.5269
 20
8.3826
 30
0.0
 40
0
 41
0
  0
VERTEX
  8
0
 10
13.5269
 20
5.26269
 30
0.0
 40
0
 41
0
  0
VERTEX
  8
0
 10
13.1886
 20
5.26269
 30
0.0
 40
0
 41
0
  0
VERTEX
  8
0
 10
13.1886
 20
8.3826
 30
0.0
 40
0
 41
0
  0
SEQEND
 8
0
  0
POLYLINE
  8
0
 62
     0
 66
     1
 10
0
 20
0
 30
0.0
 70
     1
 40
0.75
 41
0.75
  0
VERTEX
  8
0
 10
13.1886
 20
8.3826
 30
0.0
 40
0.0104167
 41
0.0104167
  0
VERTEX
  8
0
 10
13.5269
 20
8.3826
 30
0.0
 40
0.0104167
 41
0.0104167
  0
VERTEX
  8
0
 10
13.5269
 20
5.26269
 30
0.0
 40
0.0104167
 41
0.0104167
  0
VERTEX
  8
0
 10
13.1886
 20
5.26269
 30
0.0
 40
0.0104167
 41
0.0104167
  0
VERTEX
  8
0
 10
13.1886
 20
8.3826
 30
0.0
 40
0.0104167
 41
0.0104167
  0
SEQEND
 8
0
  0
POLYLINE
  8
0
 62
     7
 66
     1
 10
0
 20
0
 30
0.0
 70
     1
 40
0
 41
0
  0
VERTEX
  8
0
 10
13.1886
 20
8.3826
 30
0.0
 40
0
 41
0
  0
VERTEX
  8
0
 10
13.5269
 20
8.3826
 30
0.0
 40
0
 41
0
  0
VERTEX
  8
0
 10
13.5269
 20
5.26269
 30
0.0
 40
0
 41
0
  0
VERTEX
  8
0
 10
13.1886
 20
5.26269
 30
0.0
 40
0
 41
0
  0
VERTEX
  8
0
 10
13.1886
 20
8.3826
 30
0.0
 40
0
 41
0
  0
SEQEND
 8
0
  0
POLYLINE
  8
0
 62
     0
 66
     1
 10
0
 20
0
 30
0.0
 70
     1
 40
0.75
 41
0.75
  0
VERTEX
  8
0
 10
13.1886
 20
8.3826
 30
0.0
 40
0.0104167
 41
0.0104167
  0
VERTEX
  8
0
 10
13.5269
 20
8.3826
 30
0.0
 40
0.0104167
 41
0.0104167
  0
VERTEX
  8
0
 10
13.5269
 20
5.26269
 30
0.0
 40
0.0104167
 41
0.0104167
  0
VERTEX
  8
0
 10
13.1886
 20
5.26269
 30
0.0
 40
0.0104167
 41
0.0104167
  0
VERTEX
  8
0
 10
13.1886
 20
8.3826
 30
0.0
 40
0.0104167
 41
0.0104167
  0
SEQEND
 8
0
  0
POLYLINE
  8
0
 62
     0
 66
     1
 10
0
 20
0
 30
0.0
 40
0.75
 41
0.75
  0
VERTEX
  8
0
 10
13.3578
 20
8.30447
 30
0.0
 40
0.0104167
 41
0.0104167
  0
VERTEX
  8
0
 10
13.3578
 20
5.34082
 30
0.0
 40
0.0104167
 41
0.0104167
  0
SEQEND
 8
0
  0
POLYLINE
  8
0
 62
     0
 66
     1
 10
0
 20
0
 30
0.0
 40
0.75
 41
0.75
  0
VERTEX
  8
0
 10
13.1886
 20
8.30447
 30
0.0
 40
0.0104167
 41
0.0104167
  0
VERTEX
  8
0
 10
13.5269
 20
8.30447
 30
0.0
 40
0.0104167
 41
0.0104167
  0
SEQEND
 8
0
  0
POLYLINE
  8
0
 62
     0
 66
     1
 10
0
 20
0
 30
0.0
 40
0.75
 41
0.75
  0
VERTEX
  8
0
 10
13.1886
 20
5.34082
 30
0.0
 40
0.0104167
 41
0.0104167
  0
VERTEX
  8
0
 10
13.5269
 20
5.34082
 30
0.0
 40
0.0104167
 41
0.0104167
  0
SEQEND
 8
0
  0
POLYLINE
  8
0
 62
     7
 66
     1
 10
0
 20
0
 30
0.0
 70
     1
 40
0
 41
0
  0
VERTEX
  8
0
 10
13.1886
 20
12.1341
 30
0.0
 40
0
 41
0
  0
VERTEX
  8
0
 10
13.5269
 20
12.1341
 30
0.0
 40
0
 41
0
  0
VERTEX
  8
0
 10
13.5269
 20
9.23568
 30
0.0
 40
0
 41
0
  0
VERTEX
  8
0
 10
13.1886
 20
9.23568
 30
0.0
 40
0
 41
0
  0
VERTEX
  8
0
 10
13.1886
 20
12.1341
 30
0.0
 40
0
 41
0
  0
SEQEND
 8
0
  0
POLYLINE
  8
0
 62
     0
 66
     1
 10
0
 20
0
 30
0.0
 70
     1
 40
0.75
 41
0.75
  0
VERTEX
  8
0
 10
13.1886
 20
12.1341
 30
0.0
 40
0.0104167
 41
0.0104167
  0
VERTEX
  8
0
 10
13.5269
 20
12.1341
 30
0.0
 40
0.0104167
 41
0.0104167
  0
VERTEX
  8
0
 10
13.5269
 20
9.23568
 30
0.0
 40
0.0104167
 41
0.0104167
  0
VERTEX
  8
0
 10
13.1886
 20
9.23568
 30
0.0
 40
0.0104167
 41
0.0104167
  0
VERTEX
  8
0
 10
13.1886
 20
12.1341
 30
0.0
 40
0.0104167
 41
0.0104167
  0
SEQEND
 8
0
  0
POLYLINE
  8
0
 62
     7
 66
     1
 10
0
 20
0
 30
0.0
 70
     1
 40
0
 41
0
  0
VERTEX
  8
0
 10
13.1886
 20
12.1341
 30
0.0
 40
0
 41
0
  0
VERTEX
  8
0
 10
13.5269
 20
12.1341
 30
0.0
 40
0
 41
0
  0
VERTEX
  8
0
 10
13.5269
 20
9.23568
 30
0.0
 40
0
 41
0
  0
VERTEX
  8
0
 10
13.1886
 20
9.23568
 30
0.0
 40
0
 41
0
  0
VERTEX
  8
0
 10
13.1886
 20
12.1341
 30
0.0
 40
0
 41
0
  0
SEQEND
 8
0
  0
POLYLINE
  8
0
 62
     0
 66
     1
 10
0
 20
0
 30
0.0
 70
     1
 40
0.75
 41
0.75
  0
VERTEX
  8
0
 10
13.1886
 20
12.1341
 30
0.0
 40
0.0104167
 41
0.0104167
  0
VERTEX
  8
0
 10
13.5269
 20
12.1341
 30
0.0
 40
0.0104167
 41
0.0104167
  0
VERTEX
  8
0
 10
13.5269
 20
9.23568
 30
0.0
 40
0.0104167
 41
0.0104167
  0
VERTEX
  8
0
 10
13.1886
 20
9.23568
 30
0.0
 40
0.0104167
 41
0.0104167
  0
VERTEX
  8
0
 10
13.1886
 20
12.1341
 30
0.0
 40
0.0104167
 41
0.0104167
  0
SEQEND
 8
0
  0
POLYLINE
  8
0
 62
     0
 66
     1
 10
0
 20
0
 30
0.0
 40
0.75
 41
0.75
  0
VERTEX
  8
0
 10
13.3578
 20
12.056
 30
0.0
 40
0.0104167
 41
0.0104167
  0
VERTEX
  8
0
 10
13.3578
 20
9.31381
 30
0.0
 40
0.0104167
 41
0.0104167
  0
SEQEND
 8
0
  0
POLYLINE
  8
0
 62
     0
 66
     1
 10
0
 20
0
 30
0.0
 40
0.75
 41
0.75
  0
VERTEX
  8
0
 10
13.1886
 20
12.056
 30
0.0
 40
0.0104167
 41
0.0104167
  0
VERTEX
  8
0
 10
13.5269
 20
12.056
 30
0.0
 40
0.0104167
 41
0.0104167
  0
SEQEND
 8
0
  0
POLYLINE
  8
0
 62
     0
 66
     1
 10
0
 20
0
 30
0.0
 40
0.75
 41
0.75
  0
VERTEX
  8
0
 10
13.1886
 20
9.31381
 30
0.0
 40
0.0104167
 41
0.0104167
  0
VERTEX
  8
0
 10
13.5269
 20
9.31381
 30
0.0
 40
0.0104167
 41
0.0104167
  0
SEQEND
 8
0
  0
POLYLINE
  8
0
 62
     0
 66
     1
 10
0
 20
0
 30
0.0
 70
     1
 40
0
 41
0
  0
VERTEX
  8
0
 10
13.1886
 20
1.28369
 30
0.0
 40
0
 41
0
  0
VERTEX
  8
0
 10
7.47396
 20
1.28369
 30
0.0
 40
0
 41
0
  0
VERTEX
  8
0
 10
7.20313
 20
0.971192
 30
0.0
 40
0
 41
0
  0
VERTEX
  8
0
 10
13.5269
 20
0.971192
 30
0.0
 40
0
 41
0
  0
VERTEX
  8
0
 10
13.1886
 20
1.28369
 30
0.0
 40
0
 41
0
  0
SEQEND
 8
0
  0
POLYLINE
  8
0
 62
     0
 66
     1
 10
0
 20
0
 30
0.0
 70
     1
 40
0.15
 41
0.15
  0
VERTEX
  8
0
 10
13.1886
 20
1.28369
 30
0.0
 40
0.00208333
 41
0.00208333
  0
VERTEX
  8
0
 10
7.47396
 20
1.28369
 30
0.0
 40
0.00208333
 41
0.00208333
  0
VERTEX
  8
0
 10
7.20313
 20
0.971192
 30
0.0
 40
0.00208333
 41
0.00208333
  0
VERTEX
  8
0
 10
13.5269
 20
0.971192
 30
0.0
 40
0.00208333
 41
0.00208333
  0
VERTEX
  8
0
 10
13.1886
 20
1.28369
 30
0.0
 40
0.00208333
 41
0.00208333
  0
SEQEND
 8
0
  0
POLYLINE
  8
0
 62
     7
 66
     1
 10
0
 20
0
 30
0.0
 70
     1
 40
0
 41
0
  0
VERTEX
  8
0
 10
8.01367
 20
1.28369
 30
0.0
 40
0
 41
0
  0
VERTEX
  8
0
 10
8.97532
 20
1.28369
 30
0.0
 40
0
 41
0
  0
VERTEX
  8
0
 10
8.97532
 20
0.971192
 30
0.0
 40
0
 41
0
  0
VERTEX
  8
0
 10
8.01367
 20
0.971192
 30
0.0
 40
0
 41
0
  0
VERTEX
  8
0
 10
8.01367
 20
1.28369
 30
0.0
 40
0
 41
0
  0
SEQEND
 8
0
  0
POLYLINE
  8
0
 62
     0
 66
     1
 10
0
 20
0
 30
0.0
 70
     1
 40
0.75
 41
0.75
  0
VERTEX
  8
0
 10
8.01367
 20
1.28369
 30
0.0
 40
0.0104167
 41
0.0104167
  0
VERTEX
  8
0
 10
8.97532
 20
1.28369
 30
0.0
 40
0.0104167
 41
0.0104167
  0
VERTEX
  8
0
 10
8.97532
 20
0.971192
 30
0.0
 40
0.0104167
 41
0.0104167
  0
VERTEX
  8
0
 10
8.01367
 20
0.971192
 30
0.0
 40
0.0104167
 41
0.0104167
  0
VERTEX
  8
0
 10
8.01367
 20
1.28369
 30
0.0
 40
0.0104167
 41
0.0104167
  0
SEQEND
 8
0
  0
POLYLINE
  8
0
 62
     7
 66
     1
 10
0
 20
0
 30
0.0
 70
     1
 40
0
 41
0
  0
VERTEX
  8
0
 10
8.01367
 20
1.28369
 30
0.0
 40
0
 41
0
  0
VERTEX
  8
0
 10
8.97532
 20
1.28369
 30
0.0
 40
0
 41
0
  0
VERTEX
  8
0
 10
8.97532
 20
0.971192
 30
0.0
 40
0
 41
0
  0
VERTEX
  8
0
 10
8.01367
 20
0.971192
 30
0.0
 40
0
 41
0
  0
VERTEX
  8
0
 10
8.01367
 20
1.28369
 30
0.0
 40
0
 41
0
  0
SEQEND
 8
0
  0
POLYLINE
  8
0
 62
     0
 66
     1
 10
0
 20
0
 30
0.0
 70
     1
 40
0.75
 41
0.75
  0
VERTEX
  8
0
 10
8.01367
 20
1.28369
 30
0.0
 40
0.0104167
 41
0.0104167
  0
VERTEX
  8
0
 10
8.97532
 20
1.28369
 30
0.0
 40
0.0104167
 41
0.0104167
  0
VERTEX
  8
0
 10
8.97532
 20
0.971192
 30
0.0
 40
0.0104167
 41
0.0104167
  0
VERTEX
  8
0
 10
8.01367
 20
0.971192
 30
0.0
 40
0.0104167
 41
0.0104167
  0
VERTEX
  8
0
 10
8.01367
 20
1.28369
 30
0.0
 40
0.0104167
 41
0.0104167
  0
SEQEND
 8
0
  0
POLYLINE
  8
0
 62
     0
 66
     1
 10
0
 20
0
 30
0.0
 70
     1
 40
0.75
 41
0.75
  0
VERTEX
  8
0
 10
8.97532
 20
1.28369
 30
0.0
 40
0.0104167
 41
0.0104167
  0
VERTEX
  8
0
 10
8.97532
 20
1.34006
 30
0.0
 40
0.0104167
 41
0.0104167
  0
VERTEX
  8
0
 10
8.96029
 20
1.50911
 30
0.0
 40
0.0104167
 41
0.0104167
  0
VERTEX
  8
0
 10
8.91521
 20
1.70443
 30
0.0
 40
0.0104167
 41
0.0104167
  0
VERTEX
  8
0
 10
8.84006
 20
1.86974
 30
0.0
 40
0.0104167
 41
0.0104167
  0
VERTEX
  8
0
 10
8.73486
 20
2.00499
 30
0.0
 40
0.0104167
 41
0.0104167
  0
VERTEX
  8
0
 10
8.59961
 20
2.11019
 30
0.0
 40
0.0104167
 41
0.0104167
  0
VERTEX
  8
0
 10
8.43435
 20
2.18533
 30
0.0
 40
0.0104167
 41
0.0104167
  0
VERTEX
  8
0
 10
8.23904
 20
2.23042
 30
0.0
 40
0.0104167
 41
0.0104167
  0
VERTEX
  8
0
 10
8.06999
 20
2.24539
 30
0.0
 40
0.0104167
 41
0.0104167
  0
VERTEX
  8
0
 10
8.01367
 20
2.24539
 30
0.0
 40
0.0104167
 41
0.0104167
  0
VERTEX
  8
0
 10
8.01367
 20
1.28369
 30
0.0
 40
0.0104167
 41
0.0104167
  0
VERTEX
  8
0
 10
8.97532
 20
1.28369
 30
0.0
 40
0.0104167
 41
0.0104167
  0
SEQEND
 8
0
  0
POLYLINE
  8
0
 62
     0
 66
     1
 10
0
 20
0
 30
0.0
 70
     1
 40
0.75
 41
0.75
  0
VERTEX
  8
0
 10
8.97532
 20
0.971192
 30
0.0
 40
0.0104167
 41
0.0104167
  0
VERTEX
  8
0
 10
8.97532
 20
0.914876
 30
0.0
 40
0.0104167
 41
0.0104167
  0
VERTEX
  8
0
 10
8.96029
 20
0.745822
 30
0.0
 40
0.0104167
 41
0.0104167
  0
VERTEX
  8
0
 10
8.91521
 20
0.55051
 30
0.0
 40
0.0104167
 41
0.0104167
  0
VERTEX
  8
0
 10
8.84006
 20
0.3852
 30
0.0
 40
0.0104167
 41
0.0104167
  0
VERTEX
  8
0
 10
8.73486
 20
0.25
 30
0.0
 40
0.0104167
 41
0.0104167
  0
VERTEX
  8
0
 10
8.59961
 20
0.144803
 30
0.0
 40
0.0104167
 41
0.0104167
  0
VERTEX
  8
0
 10
8.43435
 20
0.0696615
 30
0.0
 40
0.0104167
 41
0.0104167
  0
VERTEX
  8
0
 10
8.23904
 20
0.0245768
 30
0.0
 40
0.0104167
 41
0.0104167
  0
VERTEX
  8
0
 10
8.06999
 20
0.00954861
 30
0.0
 40
0.0104167
 41
0.0104167
  0
VERTEX
  8
0
 10
8.01367
 20
0.00954861
 30
0.0
 40
0.0104167
 41
0.0104167
  0
VERTEX
  8
0
 10
8.01367
 20
0.971192
 30
0.0
 40
0.0104167
 41
0.0104167
  0
VERTEX
  8
0
 10
8.97532
 20
0.971192
 30
0.0
 40
0.0104167
 41
0.0104167
  0
SEQEND
 8
0
  0
POLYLINE
  8
0
 62
     0
 66
     1
 10
0
 20
0
 30
0.0
 70
     1
 40
0
 41
0
  0
VERTEX
  8
0
 10
7.47396
 20
1.28369
 30
0.0
 40
0
 41
0
  0
VERTEX
  8
0
 10
7.47396
 20
5.25082
 30
0.0
 40
0
 41
0
  0
VERTEX
  8
0
 10
7.20313
 20
4.97999
 30
0.0
 40
0
 41
0
  0
VERTEX
  8
0
 10
7.20313
 20
0.971192
 30
0.0
 40
0
 41
0
  0
VERTEX
  8
0
 10
7.47396
 20
1.28369
 30
0.0
 40
0
 41
0
  0
SEQEND
 8
0
  0
POLYLINE
  8
0
 62
     0
 66
     1
 10
0
 20
0
 30
0.0
 70
     1
 40
0.15
 41
0.15
  0
VERTEX
  8
0
 10
7.47396
 20
1.28369
 30
0.0
 40
0.00208333
 41
0.00208333
  0
VERTEX
  8
0
 10
7.47396
 20
5.25082
 30
0.0
 40
0.00208333
 41
0.00208333
  0
VERTEX
  8
0
 10
7.20313
 20
4.97999
 30
0.0
 40
0.00208333
 41
0.00208333
  0
VERTEX
  8
0
 10
7.20313
 20
0.971192
 30
0.0
 40
0.00208333
 41
0.00208333
  0
VERTEX
  8
0
 10
7.47396
 20
1.28369
 30
0.0
 40
0.00208333
 41
0.00208333
  0
SEQEND
 8
0
  0
POLYLINE
  8
0
 62
     0
 66
     1
 10
0
 20
0
 30
0.0
 70
     1
 40
0
 41
0
  0
VERTEX
  8
0
 10
7.47396
 20
5.25082
 30
0.0
 40
0
 41
0
  0
VERTEX
  8
0
 10
0.965115
 20
5.25082
 30
0.0
 40
0
 41
0
  0
VERTEX
  8
0
 10
0.631782
 20
4.97999
 30
0.0
 40
0
 41
0
  0
VERTEX
  8
0
 10
7.20313
 20
4.97999
 30
0.0
 40
0
 41
0
  0
VERTEX
  8
0
 10
7.47396
 20
5.25082
 30
0.0
 40
0
 41
0
  0
SEQEND
 8
0
  0
POLYLINE
  8
0
 62
     0
 66
     1
 10
0
 20
0
 30
0.0
 70
     1
 40
0.15
 41
0.15
  0
VERTEX
  8
0
 10
7.47396
 20
5.25082
 30
0.0
 40
0.00208333
 41
0.00208333
  0
VERTEX
  8
0
 10
0.965115
 20
5.25082
 30
0.0
 40
0.00208333
 41
0.00208333
  0
VERTEX
  8
0
 10
0.631782
 20
4.97999
 30
0.0
 40
0.00208333
 41
0.00208333
  0
VERTEX
  8
0
 10
7.20313
 20
4.97999
 30
0.0
 40
0.00208333
 41
0.00208333
  0
VERTEX
  8
0
 10
7.47396
 20
5.25082
 30
0.0
 40
0.00208333
 41
0.00208333
  0
SEQEND
 8
0
  0
POLYLINE
  8
0
 62
     0
 66
     1
 10
0
 20
0
 30
0.0
 70
     1
 40
0
 41
0
  0
VERTEX
  8
0
 10
0.965115
 20
5.25082
 30
0.0
 40
0
 41
0
  0
VERTEX
  8
0
 10
0.965115
 20
9.04204
 30
0.0
 40
0
 41
0
  0
VERTEX
  8
0
 10
0.631782
 20
9.42746
 30
0.0
 40
0
 41
0
  0
VERTEX
  8
0
 10
0.631782
 20
4.97999
 30
0.0
 40
0
 41
0
  0
VERTEX
  8
0
 10
0.965115
 20
5.25082
 30
0.0
 40
0
 41
0
  0
SEQEND
 8
0
  0
POLYLINE
  8
0
 62
     0
 66
     1
 10
0
 20
0
 30
0.0
 70
     1
 40
0.15
 41
0.15
  0
VERTEX
  8
0
 10
0.965115
 20
5.25082
 30
0.0
 40
0.00208333
 41
0.00208333
  0
VERTEX
  8
0
 10
0.965115
 20
9.04204
 30
0.0
 40
0.00208333
 41
0.00208333
  0
VERTEX
  8
0
 10
0.631782
 20
9.42746
 30
0.0
 40
0.00208333
 41
0.00208333
  0
VERTEX
  8
0
 10
0.631782
 20
4.97999
 30
0.0
 40
0.00208333
 41
0.00208333
  0
VERTEX
  8
0
 10
0.965115
 20
5.25082
 30
0.0
 40
0.00208333
 41
0.00208333
  0
SEQEND
 8
0
  0
POLYLINE
  8
0
 62
     7
 66
     1
 10
0
 20
0
 30
0.0
 70
     1
 40
0
 41
0
  0
VERTEX
  8
0
 10
0.631782
 20
8.53787
 30
0.0
 40
0
 41
0
  0
VERTEX
  8
0
 10
0.965115
 20
8.53787
 30
0.0
 40
0
 41
0
  0
VERTEX
  8
0
 10
0.965115
 20
5.9605
 30
0.0
 40
0
 41
0
  0
VERTEX
  8
0
 10
0.631782
 20
5.9605
 30
0.0
 40
0
 41
0
  0
VERTEX
  8
0
 10
0.631782
 20
8.53787
 30
0.0
 40
0
 41
0
  0
SEQEND
 8
0
  0
POLYLINE
  8
0
 62
     0
 66
     1
 10
0
 20
0
 30
0.0
 70
     1
 40
0.75
 41
0.75
  0
VERTEX
  8
0
 10
0.631782
 20
8.53787
 30
0.0
 40
0.0104167
 41
0.0104167
  0
VERTEX
  8
0
 10
0.965115
 20
8.53787
 30
0.0
 40
0.0104167
 41
0.0104167
  0
VERTEX
  8
0
 10
0.965115
 20
5.9605
 30
0.0
 40
0.0104167
 41
0.0104167
  0
VERTEX
  8
0
 10
0.631782
 20
5.9605
 30
0.0
 40
0.0104167
 41
0.0104167
  0
VERTEX
  8
0
 10
0.631782
 20
8.53787
 30
0.0
 40
0.0104167
 41
0.0104167
  0
SEQEND
 8
0
  0
POLYLINE
  8
0
 62
     7
 66
     1
 10
0
 20
0
 30
0.0
 70
     1
 40
0
 41
0
  0
VERTEX
  8
0
 10
0.631782
 20
8.53787
 30
0.0
 40
0
 41
0
  0
VERTEX
  8
0
 10
0.965115
 20
8.53787
 30
0.0
 40
0
 41
0
  0
VERTEX
  8
0
 10
0.965115
 20
5.9605
 30
0.0
 40
0
 41
0
  0
VERTEX
  8
0
 10
0.631782
 20
5.9605
 30
0.0
 40
0
 41
0
  0
VERTEX
  8
0
 10
0.631782
 20
8.53787
 30
0.0
 40
0
 41
0
  0
SEQEND
 8
0
  0
POLYLINE
  8
0
 62
     0
 66
     1
 10
0
 20
0
 30
0.0
 70
     1
 40
0.75
 41
0.75
  0
VERTEX
  8
0
 10
0.631782
 20
8.53787
 30
0.0
 40
0.0104167
 41
0.0104167
  0
VERTEX
  8
0
 10
0.965115
 20
8.53787
 30
0.0
 40
0.0104167
 41
0.0104167
  0
VERTEX
  8
0
 10
0.965115
 20
5.9605
 30
0.0
 40
0.0104167
 41
0.0104167
  0
VERTEX
  8
0
 10
0.631782
 20
5.9605
 30
0.0
 40
0.0104167
 41
0.0104167
  0
VERTEX
  8
0
 10
0.631782
 20
8.53787
 30
0.0
 40
0.0104167
 41
0.0104167
  0
SEQEND
 8
0
  0
POLYLINE
  8
0
 62
     0
 66
     1
 10
0
 20
0
 30
0.0
 40
0.75
 41
0.75
  0
VERTEX
  8
0
 10
0.798449
 20
6.03863
 30
0.0
 40
0.0104167
 41
0.0104167
  0
VERTEX
  8
0
 10
0.798449
 20
8.45975
 30
0.0
 40
0.0104167
 41
0.0104167
  0
SEQEND
 8
0
  0
POLYLINE
  8
0
 62
     0
 66
     1
 10
0
 20
0
 30
0.0
 40
0.75
 41
0.75
  0
VERTEX
  8
0
 10
0.965115
 20
6.03863
 30
0.0
 40
0.0104167
 41
0.0104167
  0
VERTEX
  8
0
 10
0.631782
 20
6.03863
 30
0.0
 40
0.0104167
 41
0.0104167
  0
SEQEND
 8
0
  0
POLYLINE
  8
0
 62
     0
 66
     1
 10
0
 20
0
 30
0.0
 40
0.75
 41
0.75
  0
VERTEX
  8
0
 10
0.965115
 20
8.45975
 30
0.0
 40
0.0104167
 41
0.0104167
  0
VERTEX
  8
0
 10
0.631782
 20
8.45975
 30
0.0
 40
0.0104167
 41
0.0104167
  0
SEQEND
 8
0
  0
POLYLINE
  8
0
 62
     0
 66
     1
 10
0
 20
0
 30
0.0
 70
     1
 40
0
 41
0
  0
VERTEX
  8
0
 10
0.965115
 20
9.04204
 30
0.0
 40
0
 41
0
  0
VERTEX
  8
0
 10
2.52718
 20
9.04204
 30
0.0
 40
0
 41
0
  0
VERTEX
  8
0
 10
2.37093
 20
9.42746
 30
0.0
 40
0
 41
0
  0
VERTEX
  8
0
 10
0.631782
 20
9.42746
 30
0.0
 40
0
 41
0
  0
VERTEX
  8
0
 10
0.965115
 20
9.04204
 30
0.0
 40
0
 41
0
  0
SEQEND
 8
0
  0
POLYLINE
  8
0
 62
     0
 66
     1
 10
0
 20
0
 30
0.0
 70
     1
 40
0.15
 41
0.15
  0
VERTEX
  8
0
 10
0.965115
 20
9.04204
 30
0.0
 40
0.00208333
 41
0.00208333
  0
VERTEX
  8
0
 10
2.52718
 20
9.04204
 30
0.0
 40
0.00208333
 41
0.00208333
  0
VERTEX
  8
0
 10
2.37093
 20
9.42746
 30
0.0
 40
0.00208333
 41
0.00208333
  0
VERTEX
  8
0
 10
0.631782
 20
9.42746
 30
0.0
 40
0.00208333
 41
0.00208333
  0
VERTEX
  8
0
 10
0.965115
 20
9.04204
 30
0.0
 40
0.00208333
 41
0.00208333
  0
SEQEND
 8
0
  0
POLYLINE
  8
0
 62
     0
 66
     1
 10
0
 20
0
 30
0.0
 70
     1
 40
0
 41
0
  0
VERTEX
  8
0
 10
2.52718
 20
9.04204
 30
0.0
 40
0
 41
0
  0
VERTEX
  8
0
 10
2.52718
 20
12.9597
 30
0.0
 40
0
 41
0
  0
VERTEX
  8
0
 10
2.37093
 20
13.2231
 30
0.0
 40
0
 41
0
  0
VERTEX
  8
0
 10
2.37093
 20
9.42746
 30
0.0
 40
0
 41
0
  0
VERTEX
  8
0
 10
2.52718
 20
9.04204
 30
0.0
 40
0
 41
0
  0
SEQEND
 8
0
  0
POLYLINE
  8
0
 62
     0
 66
     1
 10
0
 20
0
 30
0.0
 70
     1
 40
0.15
 41
0.15
  0
VERTEX
  8
0
 10
2.52718
 20
9.04204
 30
0.0
 40
0.00208333
 41
0.00208333
  0
VERTEX
  8
0
 10
2.52718
 20
12.9597
 30
0.0
 40
0.00208333
 41
0.00208333
  0
VERTEX
  8
0
 10
2.37093
 20
13.2231
 30
0.0
 40
0.00208333
 41
0.00208333
  0
VERTEX
  8
0
 10
2.37093
 20
9.42746
 30
0.0
 40
0.00208333
 41
0.00208333
  0
VERTEX
  8
0
 10
2.52718
 20
9.04204
 30
0.0
 40
0.00208333
 41
0.00208333
  0
SEQEND
 8
0
  0
POLYLINE
  8
0
 62
     7
 66
     1
 10
0
 20
0
 30
0.0
 70
     1
 40
0
 41
0
  0
VERTEX
  8
0
 10
2.37093
 20
10.3286
 30
0.0
 40
0
 41
0
  0
VERTEX
  8
0
 10
2.52718
 20
10.3286
 30
0.0
 40
0
 41
0
  0
VERTEX
  8
0
 10
2.52718
 20
9.45747
 30
0.0
 40
0
 41
0
  0
VERTEX
  8
0
 10
2.37093
 20
9.45747
 30
0.0
 40
0
 41
0
  0
VERTEX
  8
0
 10
2.37093
 20
10.3286
 30
0.0
 40
0
 41
0
  0
SEQEND
 8
0
  0
POLYLINE
  8
0
 62
     0
 66
     1
 10
0
 20
0
 30
0.0
 70
     1
 40
0.75
 41
0.75
  0
VERTEX
  8
0
 10
2.37093
 20
10.3286
 30
0.0
 40
0.0104167
 41
0.0104167
  0
VERTEX
  8
0
 10
2.52718
 20
10.3286
 30
0.0
 40
0.0104167
 41
0.0104167
  0
VERTEX
  8
0
 10
2.52718
 20
9.45747
 30
0.0
 40
0.0104167
 41
0.0104167
  0
VERTEX
  8
0
 10
2.37093
 20
9.45747
 30
0.0
 40
0.0104167
 41
0.0104167
  0
VERTEX
  8
0
 10
2.37093
 20
10.3286
 30
0.0
 40
0.0104167
 41
0.0104167
  0
SEQEND
 8
0
  0
POLYLINE
  8
0
 62
     7
 66
     1
 10
0
 20
0
 30
0.0
 70
     1
 40
0
 41
0
  0
VERTEX
  8
0
 10
2.37093
 20
10.3286
 30
0.0
 40
0
 41
0
  0
VERTEX
  8
0
 10
2.52718
 20
10.3286
 30
0.0
 40
0
 41
0
  0
VERTEX
  8
0
 10
2.52718
 20
9.45747
 30
0.0
 40
0
 41
0
  0
VERTEX
  8
0
 10
2.37093
 20
9.45747
 30
0.0
 40
0
 41
0
  0
VERTEX
  8
0
 10
2.37093
 20
10.3286
 30
0.0
 40
0
 41
0
  0
SEQEND
 8
0
  0
POLYLINE
  8
0
 62
     0
 66
     1
 10
0
 20
0
 30
0.0
 70
     1
 40
0.75
 41
0.75
  0
VERTEX
  8
0
 10
2.37093
 20
10.3286
 30
0.0
 40
0.0104167
 41
0.0104167
  0
VERTEX
  8
0
 10
2.52718
 20
10.3286
 30
0.0
 40
0.0104167
 41
0.0104167
  0
VERTEX
  8
0
 10
2.52718
 20
9.45747
 30
0.0
 40
0.0104167
 41
0.0104167
  0
VERTEX
  8
0
 10
2.37093
 20
9.45747
 30
0.0
 40
0.0104167
 41
0.0104167
  0
VERTEX
  8
0
 10
2.37093
 20
10.3286
 30
0.0
 40
0.0104167
 41
0.0104167
  0
SEQEND
 8
0
  0
POLYLINE
  8
0
 62
     0
 66
     1
 10
0
 20
0
 30
0.0
 70
     1
 40
0.75
 41
0.75
  0
VERTEX
  8
0
 10
2.37093
 20
10.3286
 30
0.0
 40
0.0104167
 41
0.0104167
  0
VERTEX
  8
0
 10
2.31988
 20
10.3286
 30
0.0
 40
0.0104167
 41
0.0104167
  0
VERTEX
  8
0
 10
2.16672
 20
10.3151
 30
0.0
 40
0.0104167
 41
0.0104167
  0
VERTEX
  8
0
 10
1.98975
 20
10.2742
 30
0.0
 40
0.0104167
 41
0.0104167
  0
VERTEX
  8
0
 10
1.84006
 20
10.2062
 30
0.0
 40
0.0104167
 41
0.0104167
  0
VERTEX
  8
0
 10
1.71756
 20
10.1108
 30
0.0
 40
0.0104167
 41
0.0104167
  0
VERTEX
  8
0
 10
1.62224
 20
9.98833
 30
0.0
 40
0.0104167
 41
0.0104167
  0
VERTEX
  8
0
 10
1.55419
 20
9.83865
 30
0.0
 40
0.0104167
 41
0.0104167
  0
VERTEX
  8
0
 10
1.51335
 20
9.66168
 30
0.0
 40
0.0104167
 41
0.0104167
  0
VERTEX
  8
0
 10
1.49978
 20
9.50851
 30
0.0
 40
0.0104167
 41
0.0104167
  0
VERTEX
  8
0
 10
1.49978
 20
9.45747
 30
0.0
 40
0.0104167
 41
0.0104167
  0
VERTEX
  8
0
 10
2.37093
 20
9.45747
 30
0.0
 40
0.0104167
 41
0.0104167
  0
VERTEX
  8
0
 10
2.37093
 20
10.3286
 30
0.0
 40
0.0104167
 41
0.0104167
  0
SEQEND
 8
0
  0
POLYLINE
  8
0
 62
     7
 66
     1
 10
0
 20
0
 30
0.0
 70
     1
 40
0
 41
0
  0
VERTEX
  8
0
 10
2.37093
 20
12.9346
 30
0.0
 40
0
 41
0
  0
VERTEX
  8
0
 10
2.52718
 20
12.9346
 30
0.0
 40
0
 41
0
  0
VERTEX
  8
0
 10
2.52718
 20
10.3506
 30
0.0
 40
0
 41
0
  0
VERTEX
  8
0
 10
2.37093
 20
10.3506
 30
0.0
 40
0
 41
0
  0
VERTEX
  8
0
 10
2.37093
 20
12.9346
 30
0.0
 40
0
 41
0
  0
SEQEND
 8
0
  0
POLYLINE
  8
0
 62
     0
 66
     1
 10
0
 20
0
 30
0.0
 70
     1
 40
0.75
 41
0.75
  0
VERTEX
  8
0
 10
2.37093
 20
12.9346
 30
0.0
 40
0.0104167
 41
0.0104167
  0
VERTEX
  8
0
 10
2.52718
 20
12.9346
 30
0.0
 40
0.0104167
 41
0.0104167
  0
VERTEX
  8
0
 10
2.52718
 20
10.3506
 30
0.0
 40
0.0104167
 41
0.0104167
  0
VERTEX
  8
0
 10
2.37093
 20
10.3506
 30
0.0
 40
0.0104167
 41
0.0104167
  0
VERTEX
  8
0
 10
2.37093
 20
12.9346
 30
0.0
 40
0.0104167
 41
0.0104167
  0
SEQEND
 8
0
  0
POLYLINE
  8
0
 62
     7
 66
     1
 10
0
 20
0
 30
0.0
 70
     1
 40
0
 41
0
  0
VERTEX
  8
0
 10
2.37093
 20
12.9346
 30
0.0
 40
0
 41
0
  0
VERTEX
  8
0
 10
2.52718
 20
12.9346
 30
0.0
 40
0
 41
0
  0
VERTEX
  8
0
 10
2.52718
 20
10.3506
 30
0.0
 40
0
 41
0
  0
VERTEX
  8
0
 10
2.37093
 20
10.3506
 30
0.0
 40
0
 41
0
  0
VERTEX
  8
0
 10
2.37093
 20
12.9346
 30
0.0
 40
0
 41
0
  0
SEQEND
 8
0
  0
POLYLINE
  8
0
 62
     0
 66
     1
 10
0
 20
0
 30
0.0
 70
     1
 40
0.75
 41
0.75
  0
VERTEX
  8
0
 10
2.37093
 20
12.9346
 30
0.0
 40
0.0104167
 41
0.0104167
  0
VERTEX
  8
0
 10
2.52718
 20
12.9346
 30
0.0
 40
0.0104167
 41
0.0104167
  0
VERTEX
  8
0
 10
2.52718
 20
10.3506
 30
0.0
 40
0.0104167
 41
0.0104167
  0
VERTEX
  8
0
 10
2.37093
 20
10.3506
 30
0.0
 40
0.0104167
 41
0.0104167
  0
VERTEX
  8
0
 10
2.37093
 20
12.9346
 30
0.0
 40
0.0104167
 41
0.0104167
  0
SEQEND
 8
0
  0
POLYLINE
  8
0
 62
     0
 66
     1
 10
0
 20
0
 30
0.0
 40
0.75
 41
0.75
  0
VERTEX
  8
0
 10
2.44906
 20
10.4287
 30
0.0
 40
0.0104167
 41
0.0104167
  0
VERTEX
  8
0
 10
2.44906
 20
12.8564
 30
0.0
 40
0.0104167
 41
0.0104167
  0
SEQEND
 8
0
  0
POLYLINE
  8
0
 62
     0
 66
     1
 10
0
 20
0
 30
0.0
 40
0.75
 41
0.75
  0
VERTEX
  8
0
 10
2.52718
 20
10.4287
 30
0.0
 40
0.0104167
 41
0.0104167
  0
VERTEX
  8
0
 10
2.37093
 20
10.4287
 30
0.0
 40
0.0104167
 41
0.0104167
  0
SEQEND
 8
0
  0
POLYLINE
  8
0
 62
     0
 66
     1
 10
0
 20
0
 30
0.0
 40
0.75
 41
0.75
  0
VERTEX
  8
0
 10
2.52718
 20
12.8564
 30
0.0
 40
0.0104167
 41
0.0104167
  0
VERTEX
  8
0
 10
2.37093
 20
12.8564
 30
0.0
 40
0.0104167
 41
0.0104167
  0
SEQEND
 8
0
  0
POLYLINE
  8
0
 62
     0
 66
     1
 10
0
 20
0
 30
0.0
 70
     1
 40
0
 41
0
  0
VERTEX
  8
0
 10
9.06478
 20
4.07671
 30
0.0
 40
0
 41
0
  0
VERTEX
  8
0
 10
9.06478
 20
5.2385
 30
0.0
 40
0
 41
0
  0
VERTEX
  8
0
 10
9.15853
 20
5.08225
 30
0.0
 40
0
 41
0
  0
VERTEX
  8
0
 10
9.15853
 20
4.13921
 30
0.0
 40
0
 41
0
  0
VERTEX
  8
0
 10
9.06478
 20
4.07671
 30
0.0
 40
0
 41
0
  0
SEQEND
 8
0
  0
POLYLINE
  8
0
 62
     0
 66
     1
 10
0
 20
0
 30
0.0
 70
     1
 40
0.15
 41
0.15
  0
VERTEX
  8
0
 10
9.06478
 20
4.07671
 30
0.0
 40
0.00208333
 41
0.00208333
  0
VERTEX
  8
0
 10
9.06478
 20
5.2385
 30
0.0
 40
0.00208333
 41
0.00208333
  0
VERTEX
  8
0
 10
9.15853
 20
5.08225
 30
0.0
 40
0.00208333
 41
0.00208333
  0
VERTEX
  8
0
 10
9.15853
 20
4.13921
 30
0.0
 40
0.00208333
 41
0.00208333
  0
VERTEX
  8
0
 10
9.06478
 20
4.07671
 30
0.0
 40
0.00208333
 41
0.00208333
  0
SEQEND
 8
0
  0
POLYLINE
  8
0
 62
     7
 66
     1
 10
0
 20
0
 30
0.0
 70
     1
 40
0
 41
0
  0
VERTEX
  8
0
 10
9.06478
 20
5.02892
 30
0.0
 40
0
 41
0
  0
VERTEX
  8
0
 10
9.15853
 20
5.02892
 30
0.0
 40
0
 41
0
  0
VERTEX
  8
0
 10
9.15853
 20
4.18549
 30
0.0
 40
0
 41
0
  0
VERTEX
  8
0
 10
9.06478
 20
4.18549
 30
0.0
 40
0
 41
0
  0
VERTEX
  8
0
 10
9.06478
 20
5.02892
 30
0.0
 40
0
 41
0
  0
SEQEND
 8
0
  0
POLYLINE
  8
0
 62
     0
 66
     1
 10
0
 20
0
 30
0.0
 70
     1
 40
0.75
 41
0.75
  0
VERTEX
  8
0
 10
9.06478
 20
5.02892
 30
0.0
 40
0.0104167
 41
0.0104167
  0
VERTEX
  8
0
 10
9.15853
 20
5.02892
 30
0.0
 40
0.0104167
 41
0.0104167
  0
VERTEX
  8
0
 10
9.15853
 20
4.18549
 30
0.0
 40
0.0104167
 41
0.0104167
  0
VERTEX
  8
0
 10
9.06478
 20
4.18549
 30
0.0
 40
0.0104167
 41
0.0104167
  0
VERTEX
  8
0
 10
9.06478
 20
5.02892
 30
0.0
 40
0.0104167
 41
0.0104167
  0
SEQEND
 8
0
  0
POLYLINE
  8
0
 62
     7
 66
     1
 10
0
 20
0
 30
0.0
 70
     1
 40
0
 41
0
  0
VERTEX
  8
0
 10
9.06478
 20
5.02892
 30
0.0
 40
0
 41
0
  0
VERTEX
  8
0
 10
9.15853
 20
5.02892
 30
0.0
 40
0
 41
0
  0
VERTEX
  8
0
 10
9.15853
 20
4.18549
 30
0.0
 40
0
 41
0
  0
VERTEX
  8
0
 10
9.06478
 20
4.18549
 30
0.0
 40
0
 41
0
  0
VERTEX
  8
0
 10
9.06478
 20
5.02892
 30
0.0
 40
0
 41
0
  0
SEQEND
 8
0
  0
POLYLINE
  8
0
 62
     0
 66
     1
 10
0
 20
0
 30
0.0
 70
     1
 40
0.75
 41
0.75
  0
VERTEX
  8
0
 10
9.06478
 20
5.02892
 30
0.0
 40
0.0104167
 41
0.0104167
  0
VERTEX
  8
0
 10
9.15853
 20
5.02892
 30
0.0
 40
0.0104167
 41
0.0104167
  0
VERTEX
  8
0
 10
9.15853
 20
4.18549
 30
0.0
 40
0.0104167
 41
0.0104167
  0
VERTEX
  8
0
 10
9.06478
 20
4.18549
 30
0.0
 40
0.0104167
 41
0.0104167
  0
VERTEX
  8
0
 10
9.06478
 20
5.02892
 30
0.0
 40
0.0104167
 41
0.0104167
  0
SEQEND
 8
0
  0
POLYLINE
  8
0
 62
     0
 66
     1
 10
0
 20
0
 30
0.0
 70
     1
 40
0.75
 41
0.75
  0
VERTEX
  8
0
 10
9.15853
 20
4.18549
 30
0.0
 40
0.0104167
 41
0.0104167
  0
VERTEX
  8
0
 10
9.2079
 20
4.18549
 30
0.0
 40
0.0104167
 41
0.0104167
  0
VERTEX
  8
0
 10
9.35618
 20
4.19868
 30
0.0
 40
0.0104167
 41
0.0104167
  0
VERTEX
  8
0
 10
9.5275
 20
4.23822
 30
0.0
 40
0.0104167
 41
0.0104167
  0
VERTEX
  8
0
 10
9.67247
 20
4.30414
 30
0.0
 40
0.0104167
 41
0.0104167
  0
VERTEX
  8
0
 10
9.79107
 20
4.39638
 30
0.0
 40
0.0104167
 41
0.0104167
  0
VERTEX
  8
0
 10
9.88331
 20
4.51497
 30
0.0
 40
0.0104167
 41
0.0104167
  0
VERTEX
  8
0
 10
9.94922
 20
4.65994
 30
0.0
 40
0.0104167
 41
0.0104167
  0
VERTEX
  8
0
 10
9.98876
 20
4.83128
 30
0.0
 40
0.0104167
 41
0.0104167
  0
VERTEX
  8
0
 10
10.002
 20
4.97954
 30
0.0
 40
0.0104167
 41
0.0104167
  0
VERTEX
  8
0
 10
10.002
 20
5.02892
 30
0.0
 40
0.0104167
 41
0.0104167
  0
VERTEX
  8
0
 10
9.15853
 20
5.02892
 30
0.0
 40
0.0104167
 41
0.0104167
  0
VERTEX
  8
0
 10
9.15853
 20
4.18549
 30
0.0
 40
0.0104167
 41
0.0104167
  0
SEQEND
 8
0
  0
POLYLINE
  8
0
 62
     0
 66
     1
 10
0
 20
0
 30
0.0
 70
     1
 40
0
 41
0
  0
VERTEX
  8
0
 10
9.15853
 20
5.08225
 30
0.0
 40
0
 41
0
  0
VERTEX
  8
0
 10
13.5269
 20
5.08225
 30
0.0
 40
0
 41
0
  0
VERTEX
  8
0
 10
13.5269
 20
5.2385
 30
0.0
 40
0
 41
0
  0
VERTEX
  8
0
 10
9.06478
 20
5.2385
 30
0.0
 40
0
 41
0
  0
VERTEX
  8
0
 10
9.15853
 20
5.08225
 30
0.0
 40
0
 41
0
  0
SEQEND
 8
0
  0
POLYLINE
  8
0
 62
     0
 66
     1
 10
0
 20
0
 30
0.0
 70
     1
 40
0.15
 41
0.15
  0
VERTEX
  8
0
 10
9.15853
 20
5.08225
 30
0.0
 40
0.00208333
 41
0.00208333
  0
VERTEX
  8
0
 10
13.5269
 20
5.08225
 30
0.0
 40
0.00208333
 41
0.00208333
  0
VERTEX
  8
0
 10
13.5269
 20
5.2385
 30
0.0
 40
0.00208333
 41
0.00208333
  0
VERTEX
  8
0
 10
9.06478
 20
5.2385
 30
0.0
 40
0.00208333
 41
0.00208333
  0
VERTEX
  8
0
 10
9.15853
 20
5.08225
 30
0.0
 40
0.00208333
 41
0.00208333
  0
SEQEND
 8
0
  0
POLYLINE
  8
0
 62
     0
 66
     1
 10
0
 20
0
 30
0.0
 70
     1
 40
0
 41
0
  0
VERTEX
  8
0
 10
9.07075
 20
9.17817
 30
0.0
 40
0
 41
0
  0
VERTEX
  8
0
 10
9.1645
 20
9.17817
 30
0.0
 40
0
 41
0
  0
VERTEX
  8
0
 10
9.1645
 20
8.07497
 30
0.0
 40
0
 41
0
  0
VERTEX
  8
0
 10
9.07075
 20
8.07497
 30
0.0
 40
0
 41
0
  0
VERTEX
  8
0
 10
9.07075
 20
9.17817
 30
0.0
 40
0
 41
0
  0
SEQEND
 8
0
  0
POLYLINE
  8
0
 62
     0
 66
     1
 10
0
 20
0
 30
0.0
 70
     1
 40
0.15
 41
0.15
  0
VERTEX
  8
0
 10
9.07075
 20
9.17817
 30
0.0
 40
0.00208333
 41
0.00208333
  0
VERTEX
  8
0
 10
9.1645
 20
9.17817
 30
0.0
 40
0.00208333
 41
0.00208333
  0
VERTEX
  8
0
 10
9.1645
 20
8.07497
 30
0.0
 40
0.00208333
 41
0.00208333
  0
VERTEX
  8
0
 10
9.07075
 20
8.07497
 30
0.0
 40
0.00208333
 41
0.00208333
  0
VERTEX
  8
0
 10
9.07075
 20
9.17817
 30
0.0
 40
0.00208333
 41
0.00208333
  0
SEQEND
 8
0
  0
POLYLINE
  8
0
 62
     7
 66
     1
 10
0
 20
0
 30
0.0
 70
     1
 40
0
 41
0
  0
VERTEX
  8
0
 10
9.07075
 20
8.96924
 30
0.0
 40
0
 41
0
  0
VERTEX
  8
0
 10
9.1645
 20
8.96924
 30
0.0
 40
0
 41
0
  0
VERTEX
  8
0
 10
9.1645
 20
8.11838
 30
0.0
 40
0
 41
0
  0
VERTEX
  8
0
 10
9.07075
 20
8.11838
 30
0.0
 40
0
 41
0
  0
VERTEX
  8
0
 10
9.07075
 20
8.96924
 30
0.0
 40
0
 41
0
  0
SEQEND
 8
0
  0
POLYLINE
  8
0
 62
     0
 66
     1
 10
0
 20
0
 30
0.0
 70
     1
 40
0.75
 41
0.75
  0
VERTEX
  8
0
 10
9.07075
 20
8.96924
 30
0.0
 40
0.0104167
 41
0.0104167
  0
VERTEX
  8
0
 10
9.1645
 20
8.96924
 30
0.0
 40
0.0104167
 41
0.0104167
  0
VERTEX
  8
0
 10
9.1645
 20
8.11838
 30
0.0
 40
0.0104167
 41
0.0104167
  0
VERTEX
  8
0
 10
9.07075
 20
8.11838
 30
0.0
 40
0.0104167
 41
0.0104167
  0
VERTEX
  8
0
 10
9.07075
 20
8.96924
 30
0.0
 40
0.0104167
 41
0.0104167
  0
SEQEND
 8
0
  0
POLYLINE
  8
0
 62
     7
 66
     1
 10
0
 20
0
 30
0.0
 70
     1
 40
0
 41
0
  0
VERTEX
  8
0
 10
9.07075
 20
8.96924
 30
0.0
 40
0
 41
0
  0
VERTEX
  8
0
 10
9.1645
 20
8.96924
 30
0.0
 40
0
 41
0
  0
VERTEX
  8
0
 10
9.1645
 20
8.11838
 30
0.0
 40
0
 41
0
  0
VERTEX
  8
0
 10
9.07075
 20
8.11838
 30
0.0
 40
0
 41
0
  0
VERTEX
  8
0
 10
9.07075
 20
8.96924
 30
0.0
 40
0
 41
0
  0
SEQEND
 8
0
  0
POLYLINE
  8
0
 62
     0
 66
     1
 10
0
 20
0
 30
0.0
 70
     1
 40
0.75
 41
0.75
  0
VERTEX
  8
0
 10
9.07075
 20
8.96924
 30
0.0
 40
0.0104167
 41
0.0104167
  0
VERTEX
  8
0
 10
9.1645
 20
8.96924
 30
0.0
 40
0.0104167
 41
0.0104167
  0
VERTEX
  8
0
 10
9.1645
 20
8.11838
 30
0.0
 40
0.0104167
 41
0.0104167
  0
VERTEX
  8
0
 10
9.07075
 20
8.11838
 30
0.0
 40
0.0104167
 41
0.0104167
  0
VERTEX
  8
0
 10
9.07075
 20
8.96924
 30
0.0
 40
0.0104167
 41
0.0104167
  0
SEQEND
 8
0
  0
POLYLINE
  8
0
 62
     0
 66
     1
 10
0
 20
0
 30
0.0
 70
     1
 40
0.75
 41
0.75
  0
VERTEX
  8
0
 10
9.1645
 20
8.11838
 30
0.0
 40
0.0104167
 41
0.0104167
  0
VERTEX
  8
0
 10
9.21431
 20
8.11838
 30
0.0
 40
0.0104167
 41
0.0104167
  0
VERTEX
  8
0
 10
9.36387
 20
8.13172
 30
0.0
 40
0.0104167
 41
0.0104167
  0
VERTEX
  8
0
 10
9.53674
 20
8.1716
 30
0.0
 40
0.0104167
 41
0.0104167
  0
VERTEX
  8
0
 10
9.68294
 20
8.23807
 30
0.0
 40
0.0104167
 41
0.0104167
  0
VERTEX
  8
0
 10
9.80257
 20
8.33111
 30
0.0
 40
0.0104167
 41
0.0104167
  0
VERTEX
  8
0
 10
9.89561
 20
8.45079
 30
0.0
 40
0.0104167
 41
0.0104167
  0
VERTEX
  8
0
 10
9.96208
 20
8.597
 30
0.0
 40
0.0104167
 41
0.0104167
  0
VERTEX
  8
0
 10
10.002
 20
8.76986
 30
0.0
 40
0.0104167
 41
0.0104167
  0
VERTEX
  8
0
 10
10.0153
 20
8.91943
 30
0.0
 40
0.0104167
 41
0.0104167
  0
VERTEX
  8
0
 10
10.0153
 20
8.96924
 30
0.0
 40
0.0104167
 41
0.0104167
  0
VERTEX
  8
0
 10
9.1645
 20
8.96924
 30
0.0
 40
0.0104167
 41
0.0104167
  0
VERTEX
  8
0
 10
9.1645
 20
8.11838
 30
0.0
 40
0.0104167
 41
0.0104167
  0
SEQEND
 8
0
  0
POLYLINE
  8
0
 62
     0
 66
     1
 10
0
 20
0
 30
0.0
 70
     1
 40
0
 41
0
  0
VERTEX
  8
0
 10
9.1645
 20
9.03233
 30
0.0
 40
0
 41
0
  0
VERTEX
  8
0
 10
13.5269
 20
9.03233
 30
0.0
 40
0
 41
0
  0
VERTEX
  8
0
 10
13.5269
 20
9.17817
 30
0.0
 40
0
 41
0
  0
VERTEX
  8
0
 10
9.07075
 20
9.17817
 30
0.0
 40
0
 41
0
  0
VERTEX
  8
0
 10
9.1645
 20
9.03233
 30
0.0
 40
0
 41
0
  0
SEQEND
 8
0
  0
POLYLINE
  8
0
 62
     0
 66
     1
 10
0
 20
0
 30
0.0
 70
     1
 40
0.15
 41
0.15
  0
VERTEX
  8
0
 10
9.1645
 20
9.03233
 30
0.0
 40
0.00208333
 41
0.00208333
  0
VERTEX
  8
0
 10
13.5269
 20
9.03233
 30
0.0
 40
0.00208333
 41
0.00208333
  0
VERTEX
  8
0
 10
13.5269
 20
9.17817
 30
0.0
 40
0.00208333
 41
0.00208333
  0
VERTEX
  8
0
 10
9.07075
 20
9.17817
 30
0.0
 40
0.00208333
 41
0.00208333
  0
VERTEX
  8
0
 10
9.1645
 20
9.03233
 30
0.0
 40
0.00208333
 41
0.00208333
  0
SEQEND
 8
0
  0
POLYLINE
  8
0
 62
     0
 66
     1
 10
0
 20
0
 30
0.0
 70
     1
 40
0
 41
0
  0
VERTEX
  8
0
 10
9.07075
 20
10.1372
 30
0.0
 40
0
 41
0
  0
VERTEX
  8
0
 10
9.1645
 20
10.1372
 30
0.0
 40
0
 41
0
  0
VERTEX
  8
0
 10
9.1645
 20
9.17817
 30
0.0
 40
0
 41
0
  0
VERTEX
  8
0
 10
9.07075
 20
9.17817
 30
0.0
 40
0
 41
0
  0
VERTEX
  8
0
 10
9.07075
 20
10.1372
 30
0.0
 40
0
 41
0
  0
SEQEND
 8
0
  0
POLYLINE
  8
0
 62
     0
 66
     1
 10
0
 20
0
 30
0.0
 70
     1
 40
0.15
 41
0.15
  0
VERTEX
  8
0
 10
9.07075
 20
10.1372
 30
0.0
 40
0.00208333
 41
0.00208333
  0
VERTEX
  8
0
 10
9.1645
 20
10.1372
 30
0.0
 40
0.00208333
 41
0.00208333
  0
VERTEX
  8
0
 10
9.1645
 20
9.17817
 30
0.0
 40
0.00208333
 41
0.00208333
  0
VERTEX
  8
0
 10
9.07075
 20
9.17817
 30
0.0
 40
0.00208333
 41
0.00208333
  0
VERTEX
  8
0
 10
9.07075
 20
10.1372
 30
0.0
 40
0.00208333
 41
0.00208333
  0
SEQEND
 8
0
  0
POLYLINE
  8
0
 62
     7
 66
     1
 10
0
 20
0
 30
0.0
 70
     1
 40
0
 41
0
  0
VERTEX
  8
0
 10
9.07075
 20
10.091
 30
0.0
 40
0
 41
0
  0
VERTEX
  8
0
 10
9.1645
 20
10.091
 30
0.0
 40
0
 41
0
  0
VERTEX
  8
0
 10
9.1645
 20
9.24539
 30
0.0
 40
0
 41
0
  0
VERTEX
  8
0
 10
9.07075
 20
9.24539
 30
0.0
 40
0
 41
0
  0
VERTEX
  8
0
 10
9.07075
 20
10.091
 30
0.0
 40
0
 41
0
  0
SEQEND
 8
0
  0
POLYLINE
  8
0
 62
     0
 66
     1
 10
0
 20
0
 30
0.0
 70
     1
 40
0.75
 41
0.75
  0
VERTEX
  8
0
 10
9.07075
 20
10.091
 30
0.0
 40
0.0104167
 41
0.0104167
  0
VERTEX
  8
0
 10
9.1645
 20
10.091
 30
0.0
 40
0.0104167
 41
0.0104167
  0
VERTEX
  8
0
 10
9.1645
 20
9.24539
 30
0.0
 40
0.0104167
 41
0.0104167
  0
VERTEX
  8
0
 10
9.07075
 20
9.24539
 30
0.0
 40
0.0104167
 41
0.0104167
  0
VERTEX
  8
0
 10
9.07075
 20
10.091
 30
0.0
 40
0.0104167
 41
0.0104167
  0
SEQEND
 8
0
  0
POLYLINE
  8
0
 62
     7
 66
     1
 10
0
 20
0
 30
0.0
 70
     1
 40
0
 41
0
  0
VERTEX
  8
0
 10
9.07075
 20
10.091
 30
0.0
 40
0
 41
0
  0
VERTEX
  8
0
 10
9.1645
 20
10.091
 30
0.0
 40
0
 41
0
  0
VERTEX
  8
0
 10
9.1645
 20
9.24539
 30
0.0
 40
0
 41
0
  0
VERTEX
  8
0
 10
9.07075
 20
9.24539
 30
0.0
 40
0
 41
0
  0
VERTEX
  8
0
 10
9.07075
 20
10.091
 30
0.0
 40
0
 41
0
  0
SEQEND
 8
0
  0
POLYLINE
  8
0
 62
     0
 66
     1
 10
0
 20
0
 30
0.0
 70
     1
 40
0.75
 41
0.75
  0
VERTEX
  8
0
 10
9.07075
 20
10.091
 30
0.0
 40
0.0104167
 41
0.0104167
  0
VERTEX
  8
0
 10
9.1645
 20
10.091
 30
0.0
 40
0.0104167
 41
0.0104167
  0
VERTEX
  8
0
 10
9.1645
 20
9.24539
 30
0.0
 40
0.0104167
 41
0.0104167
  0
VERTEX
  8
0
 10
9.07075
 20
9.24539
 30
0.0
 40
0.0104167
 41
0.0104167
  0
VERTEX
  8
0
 10
9.07075
 20
10.091
 30
0.0
 40
0.0104167
 41
0.0104167
  0
SEQEND
 8
0
  0
POLYLINE
  8
0
 62
     0
 66
     1
 10
0
 20
0
 30
0.0
 70
     1
 40
0.75
 41
0.75
  0
VERTEX
  8
0
 10
9.1645
 20
10.091
 30
0.0
 40
0.0104167
 41
0.0104167
  0
VERTEX
  8
0
 10
9.21403
 20
10.091
 30
0.0
 40
0.0104167
 41
0.0104167
  0
VERTEX
  8
0
 10
9.36268
 20
10.0778
 30
0.0
 40
0.0104167
 41
0.0104167
  0
VERTEX
  8
0
 10
9.53444
 20
10.0381
 30
0.0
 40
0.0104167
 41
0.0104167
  0
VERTEX
  8
0
 10
9.67974
 20
9.97211
 30
0.0
 40
0.0104167
 41
0.0104167
  0
VERTEX
  8
0
 10
9.79867
 20
9.87961
 30
0.0
 40
0.0104167
 41
0.0104167
  0
VERTEX
  8
0
 10
9.89117
 20
9.76069
 30
0.0
 40
0.0104167
 41
0.0104167
  0
VERTEX
  8
0
 10
9.95719
 20
9.6154
 30
0.0
 40
0.0104167
 41
0.0104167
  0
VERTEX
  8
0
 10
9.99685
 20
9.44362
 30
0.0
 40
0.0104167
 41
0.0104167
  0
VERTEX
  8
0
 10
10.0101
 20
9.29497
 30
0.0
 40
0.0104167
 41
0.0104167
  0
VERTEX
  8
0
 10
10.0101
 20
9.24539
 30
0.0
 40
0.0104167
 41
0.0104167
  0
VERTEX
  8
0
 10
9.1645
 20
9.24539
 30
0.0
 40
0.0104167
 41
0.0104167
  0
VERTEX
  8
0
 10
9.1645
 20
10.091
 30
0.0
 40
0.0104167
 41
0.0104167
  0
SEQEND
 8
0
  0
POLYLINE
  8
0
 62
     0
 66
     1
 10
0
 20
0
 30
0.0
 70
     1
 40
0
 41
0
  0
VERTEX
  8
0
 10
5.14583
 20
4.97999
 30
0.0
 40
0
 41
0
  0
VERTEX
  8
0
 10
5.14583
 20
7.90267
 30
0.0
 40
0
 41
0
  0
VERTEX
  8
0
 10
5.0625
 20
7.986
 30
0.0
 40
0
 41
0
  0
VERTEX
  8
0
 10
5.0625
 20
4.97999
 30
0.0
 40
0
 41
0
  0
VERTEX
  8
0
 10
5.14583
 20
4.97999
 30
0.0
 40
0
 41
0
  0
SEQEND
 8
0
  0
POLYLINE
  8
0
 62
     0
 66
     1
 10
0
 20
0
 30
0.0
 70
     1
 40
0.15
 41
0.15
  0
VERTEX
  8
0
 10
5.14583
 20
4.97999
 30
0.0
 40
0.00208333
 41
0.00208333
  0
VERTEX
  8
0
 10
5.14583
 20
7.90267
 30
0.0
 40
0.00208333
 41
0.00208333
  0
VERTEX
  8
0
 10
5.0625
 20
7.986
 30
0.0
 40
0.00208333
 41
0.00208333
  0
VERTEX
  8
0
 10
5.0625
 20
4.97999
 30
0.0
 40
0.00208333
 41
0.00208333
  0
VERTEX
  8
0
 10
5.14583
 20
4.97999
 30
0.0
 40
0.00208333
 41
0.00208333
  0
SEQEND
 8
0
  0
POLYLINE
  8
0
 62
     0
 66
     1
 10
0
 20
0
 30
0.0
 70
     1
 40
0
 41
0
  0
VERTEX
  8
0
 10
5.0625
 20
7.986
 30
0.0
 40
0
 41
0
  0
VERTEX
  8
0
 10
4.05387
 20
7.986
 30
0.0
 40
0
 41
0
  0
VERTEX
  8
0
 10
4.13721
 20
7.90267
 30
0.0
 40
0
 41
0
  0
VERTEX
  8
0
 10
5.0625
 20
7.90267
 30
0.0
 40
0
 41
0
  0
VERTEX
  8
0
 10
5.0625
 20
7.986
 30
0.0
 40
0
 41
0
  0
SEQEND
 8
0
  0
POLYLINE
  8
0
 62
     0
 66
     1
 10
0
 20
0
 30
0.0
 70
     1
 40
0.15
 41
0.15
  0
VERTEX
  8
0
 10
5.0625
 20
7.986
 30
0.0
 40
0.00208333
 41
0.00208333
  0
VERTEX
  8
0
 10
4.05387
 20
7.986
 30
0.0
 40
0.00208333
 41
0.00208333
  0
VERTEX
  8
0
 10
4.13721
 20
7.90267
 30
0.0
 40
0.00208333
 41
0.00208333
  0
VERTEX
  8
0
 10
5.0625
 20
7.90267
 30
0.0
 40
0.00208333
 41
0.00208333
  0
VERTEX
  8
0
 10
5.0625
 20
7.986
 30
0.0
 40
0.00208333
 41
0.00208333
  0
SEQEND
 8
0
  0
POLYLINE
  8
0
 62
     7
 66
     1
 10
0
 20
0
 30
0.0
 70
     1
 40
0
 41
0
  0
VERTEX
  8
0
 10
4.41758
 20
7.986
 30
0.0
 40
0
 41
0
  0
VERTEX
  8
0
 10
4.99029
 20
7.986
 30
0.0
 40
0
 41
0
  0
VERTEX
  8
0
 10
4.99029
 20
7.90267
 30
0.0
 40
0
 41
0
  0
VERTEX
  8
0
 10
4.41758
 20
7.90267
 30
0.0
 40
0
 41
0
  0
VERTEX
  8
0
 10
4.41758
 20
7.986
 30
0.0
 40
0
 41
0
  0
SEQEND
 8
0
  0
POLYLINE
  8
0
 62
     0
 66
     1
 10
0
 20
0
 30
0.0
 70
     1
 40
0.75
 41
0.75
  0
VERTEX
  8
0
 10
4.41758
 20
7.986
 30
0.0
 40
0.0104167
 41
0.0104167
  0
VERTEX
  8
0
 10
4.99029
 20
7.986
 30
0.0
 40
0.0104167
 41
0.0104167
  0
VERTEX
  8
0
 10
4.99029
 20
7.90267
 30
0.0
 40
0.0104167
 41
0.0104167
  0
VERTEX
  8
0
 10
4.41758
 20
7.90267
 30
0.0
 40
0.0104167
 41
0.0104167
  0
VERTEX
  8
0
 10
4.41758
 20
7.986
 30
0.0
 40
0.0104167
 41
0.0104167
  0
SEQEND
 8
0
  0
POLYLINE
  8
0
 62
     7
 66
     1
 10
0
 20
0
 30
0.0
 70
     1
 40
0
 41
0
  0
VERTEX
  8
0
 10
4.41758
 20
7.986
 30
0.0
 40
0
 41
0
  0
VERTEX
  8
0
 10
4.99029
 20
7.986
 30
0.0
 40
0
 41
0
  0
VERTEX
  8
0
 10
4.99029
 20
7.90267
 30
0.0
 40
0
 41
0
  0
VERTEX
  8
0
 10
4.41758
 20
7.90267
 30
0.0
 40
0
 41
0
  0
VERTEX
  8
0
 10
4.41758
 20
7.986
 30
0.0
 40
0
 41
0
  0
SEQEND
 8
0
  0
POLYLINE
  8
0
 62
     0
 66
     1
 10
0
 20
0
 30
0.0
 70
     1
 40
0.75
 41
0.75
  0
VERTEX
  8
0
 10
4.41758
 20
7.986
 30
0.0
 40
0.0104167
 41
0.0104167
  0
VERTEX
  8
0
 10
4.99029
 20
7.986
 30
0.0
 40
0.0104167
 41
0.0104167
  0
VERTEX
  8
0
 10
4.99029
 20
7.90267
 30
0.0
 40
0.0104167
 41
0.0104167
  0
VERTEX
  8
0
 10
4.41758
 20
7.90267
 30
0.0
 40
0.0104167
 41
0.0104167
  0
VERTEX
  8
0
 10
4.41758
 20
7.986
 30
0.0
 40
0.0104167
 41
0.0104167
  0
SEQEND
 8
0
  0
POLYLINE
  8
0
 62
     0
 66
     1
 10
0
 20
0
 30
0.0
 70
     1
 40
0.75
 41
0.75
  0
VERTEX
  8
0
 10
4.99029
 20
7.986
 30
0.0
 40
0.0104167
 41
0.0104167
  0
VERTEX
  8
0
 10
4.99029
 20
8.01958
 30
0.0
 40
0.0104167
 41
0.0104167
  0
VERTEX
  8
0
 10
4.98133
 20
8.12028
 30
0.0
 40
0.0104167
 41
0.0104167
  0
VERTEX
  8
0
 10
4.95449
 20
8.2366
 30
0.0
 40
0.0104167
 41
0.0104167
  0
VERTEX
  8
0
 10
4.90972
 20
8.33501
 30
0.0
 40
0.0104167
 41
0.0104167
  0
VERTEX
  8
0
 10
4.84711
 20
8.41558
 30
0.0
 40
0.0104167
 41
0.0104167
  0
VERTEX
  8
0
 10
4.76654
 20
8.47819
 30
0.0
 40
0.0104167
 41
0.0104167
  0
VERTEX
  8
0
 10
4.66813
 20
8.52294
 30
0.0
 40
0.0104167
 41
0.0104167
  0
VERTEX
  8
0
 10
4.55181
 20
8.54981
 30
0.0
 40
0.0104167
 41
0.0104167
  0
VERTEX
  8
0
 10
4.45111
 20
8.55871
 30
0.0
 40
0.0104167
 41
0.0104167
  0
VERTEX
  8
0
 10
4.41758
 20
8.55871
 30
0.0
 40
0.0104167
 41
0.0104167
  0
VERTEX
  8
0
 10
4.41758
 20
7.986
 30
0.0
 40
0.0104167
 41
0.0104167
  0
VERTEX
  8
0
 10
4.99029
 20
7.986
 30
0.0
 40
0.0104167
 41
0.0104167
  0
SEQEND
 8
0
  0
POLYLINE
  8
0
 62
     0
 66
     1
 10
0
 20
0
 30
0.0
 70
     1
 40
0
 41
0
  0
VERTEX
  8
0
 10
4.05387
 20
7.986
 30
0.0
 40
0
 41
0
  0
VERTEX
  8
0
 10
4.05387
 20
4.97999
 30
0.0
 40
0
 41
0
  0
VERTEX
  8
0
 10
4.13721
 20
4.97999
 30
0.0
 40
0
 41
0
  0
VERTEX
  8
0
 10
4.13721
 20
7.90267
 30
0.0
 40
0
 41
0
  0
VERTEX
  8
0
 10
4.05387
 20
7.986
 30
0.0
 40
0
 41
0
  0
SEQEND
 8
0
  0
POLYLINE
  8
0
 62
     0
 66
     1
 10
0
 20
0
 30
0.0
 70
     1
 40
0.15
 41
0.15
  0
VERTEX
  8
0
 10
4.05387
 20
7.986
 30
0.0
 40
0.00208333
 41
0.00208333
  0
VERTEX
  8
0
 10
4.05387
 20
4.97999
 30
0.0
 40
0.00208333
 41
0.00208333
  0
VERTEX
  8
0
 10
4.13721
 20
4.97999
 30
0.0
 40
0.00208333
 41
0.00208333
  0
VERTEX
  8
0
 10
4.13721
 20
7.90267
 30
0.0
 40
0.00208333
 41
0.00208333
  0
VERTEX
  8
0
 10
4.05387
 20
7.986
 30
0.0
 40
0.00208333
 41
0.00208333
  0
SEQEND
 8
0
  0
POLYLINE
  8
0
 62
     0
 66
     1
 10
0
 20
0
 30
0.0
 70
     1
 40
0
 41
0
  0
VERTEX
  8
0
 10
7.19476
 20
4.97999
 30
0.0
 40
0
 41
0
  0
VERTEX
  8
0
 10
7.19476
 20
7.44738
 30
0.0
 40
0
 41
0
  0
VERTEX
  8
0
 10
7.11143
 20
7.40853
 30
0.0
 40
0
 41
0
  0
VERTEX
  8
0
 10
7.11143
 20
4.97999
 30
0.0
 40
0
 41
0
  0
VERTEX
  8
0
 10
7.19476
 20
4.97999
 30
0.0
 40
0
 41
0
  0
SEQEND
 8
0
  0
POLYLINE
  8
0
 62
     0
 66
     1
 10
0
 20
0
 30
0.0
 70
     1
 40
0.15
 41
0.15
  0
VERTEX
  8
0
 10
7.19476
 20
4.97999
 30
0.0
 40
0.00208333
 41
0.00208333
  0
VERTEX
  8
0
 10
7.19476
 20
7.44738
 30
0.0
 40
0.00208333
 41
0.00208333
  0
VERTEX
  8
0
 10
7.11143
 20
7.40853
 30
0.0
 40
0.00208333
 41
0.00208333
  0
VERTEX
  8
0
 10
7.11143
 20
4.97999
 30
0.0
 40
0.00208333
 41
0.00208333
  0
VERTEX
  8
0
 10
7.19476
 20
4.97999
 30
0.0
 40
0.00208333
 41
0.00208333
  0
SEQEND
 8
0
  0
POLYLINE
  8
0
 62
     0
 66
     1
 10
0
 20
0
 30
0.0
 70
     1
 40
0
 41
0
  0
VERTEX
  8
0
 10
7.19476
 20
7.44738
 30
0.0
 40
0
 41
0
  0
VERTEX
  8
0
 10
6.55251
 20
7.98633
 30
0.0
 40
0
 41
0
  0
VERTEX
  8
0
 10
6.52208
 20
7.903
 30
0.0
 40
0
 41
0
  0
VERTEX
  8
0
 10
7.11143
 20
7.40853
 30
0.0
 40
0
 41
0
  0
VERTEX
  8
0
 10
7.19476
 20
7.44738
 30
0.0
 40
0
 41
0
  0
SEQEND
 8
0
  0
POLYLINE
  8
0
 62
     0
 66
     1
 10
0
 20
0
 30
0.0
 70
     1
 40
0.15
 41
0.15
  0
VERTEX
  8
0
 10
7.19476
 20
7.44738
 30
0.0
 40
0.00208333
 41
0.00208333
  0
VERTEX
  8
0
 10
6.55251
 20
7.98633
 30
0.0
 40
0.00208333
 41
0.00208333
  0
VERTEX
  8
0
 10
6.52208
 20
7.903
 30
0.0
 40
0.00208333
 41
0.00208333
  0
VERTEX
  8
0
 10
7.11143
 20
7.40853
 30
0.0
 40
0.00208333
 41
0.00208333
  0
VERTEX
  8
0
 10
7.19476
 20
7.44738
 30
0.0
 40
0.00208333
 41
0.00208333
  0
SEQEND
 8
0
  0
POLYLINE
  8
0
 62
     7
 66
     1
 10
0
 20
0
 30
0.0
 70
     1
 40
0
 41
0
  0
VERTEX
  8
0
 10
7.10747
 20
7.52061
 30
0.0
 40
0
 41
0
  0
VERTEX
  8
0
 10
6.60622
 20
7.94119
 30
0.0
 40
0
 41
0
  0
VERTEX
  8
0
 10
6.55274
 20
7.87739
 30
0.0
 40
0
 41
0
  0
VERTEX
  8
0
 10
7.05399
 20
7.45676
 30
0.0
 40
0
 41
0
  0
VERTEX
  8
0
 10
7.10747
 20
7.52061
 30
0.0
 40
0
 41
0
  0
SEQEND
 8
0
  0
POLYLINE
  8
0
 62
     0
 66
     1
 10
0
 20
0
 30
0.0
 70
     1
 40
0.75
 41
0.75
  0
VERTEX
  8
0
 10
7.10747
 20
7.52061
 30
0.0
 40
0.0104167
 41
0.0104167
  0
VERTEX
  8
0
 10
6.60622
 20
7.94119
 30
0.0
 40
0.0104167
 41
0.0104167
  0
VERTEX
  8
0
 10
6.55274
 20
7.87739
 30
0.0
 40
0.0104167
 41
0.0104167
  0
VERTEX
  8
0
 10
7.05399
 20
7.45676
 30
0.0
 40
0.0104167
 41
0.0104167
  0
VERTEX
  8
0
 10
7.10747
 20
7.52061
 30
0.0
 40
0.0104167
 41
0.0104167
  0
SEQEND
 8
0
  0
POLYLINE
  8
0
 62
     7
 66
     1
 10
0
 20
0
 30
0.0
 70
     1
 40
0
 41
0
  0
VERTEX
  8
0
 10
7.10747
 20
7.52061
 30
0.0
 40
0
 41
0
  0
VERTEX
  8
0
 10
6.60622
 20
7.94119
 30
0.0
 40
0
 41
0
  0
VERTEX
  8
0
 10
6.55274
 20
7.87739
 30
0.0
 40
0
 41
0
  0
VERTEX
  8
0
 10
7.05399
 20
7.45676
 30
0.0
 40
0
 41
0
  0
VERTEX
  8
0
 10
7.10747
 20
7.52061
 30
0.0
 40
0
 41
0
  0
SEQEND
 8
0
  0
POLYLINE
  8
0
 62
     0
 66
     1
 10
0
 20
0
 30
0.0
 70
     1
 40
0.75
 41
0.75
  0
VERTEX
  8
0
 10
7.10747
 20
7.52061
 30
0.0
 40
0.0104167
 41
0.0104167
  0
VERTEX
  8
0
 10
6.60622
 20
7.94119
 30
0.0
 40
0.0104167
 41
0.0104167
  0
VERTEX
  8
0
 10
6.55274
 20
7.87739
 30
0.0
 40
0.0104167
 41
0.0104167
  0
VERTEX
  8
0
 10
7.05399
 20
7.45676
 30
0.0
 40
0.0104167
 41
0.0104167
  0
VERTEX
  8
0
 10
7.10747
 20
7.52061
 30
0.0
 40
0.0104167
 41
0.0104167
  0
SEQEND
 8
0
  0
POLYLINE
  8
0
 62
     0
 66
     1
 10
0
 20
0
 30
0.0
 70
     1
 40
0.75
 41
0.75
  0
VERTEX
  8
0
 10
6.60622
 20
7.94119
 30
0.0
 40
0.0104167
 41
0.0104167
  0
VERTEX
  8
0
 10
6.63086
 20
7.9706
 30
0.0
 40
0.0104167
 41
0.0104167
  0
VERTEX
  8
0
 10
6.71257
 20
8.05219
 30
0.0
 40
0.0104167
 41
0.0104167
  0
VERTEX
  8
0
 10
6.82146
 20
8.13433
 30
0.0
 40
0.0104167
 41
0.0104167
  0
VERTEX
  8
0
 10
6.93289
 20
8.18767
 30
0.0
 40
0.0104167
 41
0.0104167
  0
VERTEX
  8
0
 10
7.04682
 20
8.21218
 30
0.0
 40
0.0104167
 41
0.0104167
  0
VERTEX
  8
0
 10
7.16331
 20
8.20785
 30
0.0
 40
0.0104167
 41
0.0104167
  0
VERTEX
  8
0
 10
7.28233
 20
8.17475
 30
0.0
 40
0.0104167
 41
0.0104167
  0
VERTEX
  8
0
 10
7.40386
 20
8.11279
 30
0.0
 40
0.0104167
 41
0.0104167
  0
VERTEX
  8
0
 10
7.49854
 20
8.04671
 30
0.0
 40
0.0104167
 41
0.0104167
  0
VERTEX
  8
0
 10
7.52794
 20
8.02203
 30
0.0
 40
0.0104167
 41
0.0104167
  0
VERTEX
  8
0
 10
7.10747
 20
7.52061
 30
0.0
 40
0.0104167
 41
0.0104167
  0
VERTEX
  8
0
 10
6.60622
 20
7.94119
 30
0.0
 40
0.0104167
 41
0.0104167
  0
SEQEND
 8
0
  0
POLYLINE
  8
0
 62
     0
 66
     1
 10
0
 20
0
 30
0.0
 70
     1
 40
0
 41
0
  0
VERTEX
  8
0
 10
6.55251
 20
7.98633
 30
0.0
 40
0
 41
0
  0
VERTEX
  8
0
 10
5.0625
 20
7.986
 30
0.0
 40
0
 41
0
  0
VERTEX
  8
0
 10
5.14583
 20
7.90267
 30
0.0
 40
0
 41
0
  0
VERTEX
  8
0
 10
6.52208
 20
7.903
 30
0.0
 40
0
 41
0
  0
VERTEX
  8
0
 10
6.55251
 20
7.98633
 30
0.0
 40
0
 41
0
  0
SEQEND
 8
0
  0
POLYLINE
  8
0
 62
     0
 66
     1
 10
0
 20
0
 30
0.0
 70
     1
 40
0.15
 41
0.15
  0
VERTEX
  8
0
 10
6.55251
 20
7.98633
 30
0.0
 40
0.00208333
 41
0.00208333
  0
VERTEX
  8
0
 10
5.0625
 20
7.986
 30
0.0
 40
0.00208333
 41
0.00208333
  0
VERTEX
  8
0
 10
5.14583
 20
7.90267
 30
0.0
 40
0.00208333
 41
0.00208333
  0
VERTEX
  8
0
 10
6.52208
 20
7.903
 30
0.0
 40
0.00208333
 41
0.00208333
  0
VERTEX
  8
0
 10
6.55251
 20
7.98633
 30
0.0
 40
0.00208333
 41
0.00208333
  0
SEQEND
 8
0
  0
POLYLINE
  8
0
 62
     0
 66
     1
 10
0
 20
0
 30
0.0
 70
     1
 40
0
 41
0
  0
VERTEX
  8
0
 10
2.3904
 20
9.04204
 30
0.0
 40
0
 41
0
  0
VERTEX
  8
0
 10
7.50825
 20
9.03233
 30
0.0
 40
0
 41
0
  0
VERTEX
  8
0
 10
7.50846
 20
9.16374
 30
0.0
 40
0
 41
0
  0
VERTEX
  8
0
 10
2.39063
 20
9.17329
 30
0.0
 40
0
 41
0
  0
VERTEX
  8
0
 10
2.3904
 20
9.04204
 30
0.0
 40
0
 41
0
  0
SEQEND
 8
0
  0
POLYLINE
  8
0
 62
     0
 66
     1
 10
0
 20
0
 30
0.0
 70
     1
 40
0.15
 41
0.15
  0
VERTEX
  8
0
 10
2.3904
 20
9.04204
 30
0.0
 40
0.00208333
 41
0.00208333
  0
VERTEX
  8
0
 10
7.50825
 20
9.03233
 30
0.0
 40
0.00208333
 41
0.00208333
  0
VERTEX
  8
0
 10
7.50846
 20
9.16374
 30
0.0
 40
0.00208333
 41
0.00208333
  0
VERTEX
  8
0
 10
2.39063
 20
9.17329
 30
0.0
 40
0.00208333
 41
0.00208333
  0
VERTEX
  8
0
 10
2.3904
 20
9.04204
 30
0.0
 40
0.00208333
 41
0.00208333
  0
SEQEND
 8
0
  0
POLYLINE
  8
0
 62
     7
 66
     1
 10
0
 20
0
 30
0.0
 70
     1
 40
0
 41
0
  0
VERTEX
  8
0
 10
2.53271
 20
9.04172
 30
0.0
 40
0
 41
0
  0
VERTEX
  8
0
 10
3.31793
 20
9.04025
 30
0.0
 40
0
 41
0
  0
VERTEX
  8
0
 10
3.31825
 20
9.17165
 30
0.0
 40
0
 41
0
  0
VERTEX
  8
0
 10
2.53293
 20
9.17307
 30
0.0
 40
0
 41
0
  0
VERTEX
  8
0
 10
2.53271
 20
9.04172
 30
0.0
 40
0
 41
0
  0
SEQEND
 8
0
  0
POLYLINE
  8
0
 62
     0
 66
     1
 10
0
 20
0
 30
0.0
 70
     1
 40
0.75
 41
0.75
  0
VERTEX
  8
0
 10
2.53271
 20
9.04172
 30
0.0
 40
0.0104167
 41
0.0104167
  0
VERTEX
  8
0
 10
3.31793
 20
9.04025
 30
0.0
 40
0.0104167
 41
0.0104167
  0
VERTEX
  8
0
 10
3.31825
 20
9.17165
 30
0.0
 40
0.0104167
 41
0.0104167
  0
VERTEX
  8
0
 10
2.53293
 20
9.17307
 30
0.0
 40
0.0104167
 41
0.0104167
  0
VERTEX
  8
0
 10
2.53271
 20
9.04172
 30
0.0
 40
0.0104167
 41
0.0104167
  0
SEQEND
 8
0
  0
POLYLINE
  8
0
 62
     7
 66
     1
 10
0
 20
0
 30
0.0
 70
     1
 40
0
 41
0
  0
VERTEX
  8
0
 10
2.53271
 20
9.04172
 30
0.0
 40
0
 41
0
  0
VERTEX
  8
0
 10
3.31793
 20
9.04025
 30
0.0
 40
0
 41
0
  0
VERTEX
  8
0
 10
3.31825
 20
9.17165
 30
0.0
 40
0
 41
0
  0
VERTEX
  8
0
 10
2.53293
 20
9.17307
 30
0.0
 40
0
 41
0
  0
VERTEX
  8
0
 10
2.53271
 20
9.04172
 30
0.0
 40
0
 41
0
  0
SEQEND
 8
0
  0
POLYLINE
  8
0
 62
     7
 66
     1
 10
0
 20
0
 30
0.0
 70
     1
 40
0.75
 41
0.75
  0
VERTEX
  8
0
 10
2.53271
 20
9.04172
 30
0.0
 40
0.0104167
 41
0.0104167
  0
VERTEX
  8
0
 10
3.31793
 20
9.04025
 30
0.0
 40
0.0104167
 41
0.0104167
  0
VERTEX
  8
0
 10
3.31825
 20
9.17165
 30
0.0
 40
0.0104167
 41
0.0104167
  0
VERTEX
  8
0
 10
2.53293
 20
9.17307
 30
0.0
 40
0.0104167
 41
0.0104167
  0
VERTEX
  8
0
 10
2.53271
 20
9.04172
 30
0.0
 40
0.0104167
 41
0.0104167
  0
SEQEND
 8
0
  0
POLYLINE
  8
0
 62
     7
 66
     1
 10
0
 20
0
 30
0.0
 70
     1
 40
0
 41
0
  0
VERTEX
  8
0
 10
2.53304
 20
9.17307
 30
0.0
 40
0
 41
0
  0
VERTEX
  8
0
 10
2.58458
 20
9.04161
 30
0.0
 40
0
 41
0
  0
VERTEX
  8
0
 10
2.63667
 20
9.1729
 30
0.0
 40
0
 41
0
  0
VERTEX
  8
0
 10
2.68821
 20
9.04144
 30
0.0
 40
0
 41
0
  0
VERTEX
  8
0
 10
2.74029
 20
9.17269
 30
0.0
 40
0
 41
0
  0
VERTEX
  8
0
 10
2.79189
 20
9.04124
 30
0.0
 40
0
 41
0
  0
VERTEX
  8
0
 10
2.84397
 20
9.17247
 30
0.0
 40
0
 41
0
  0
VERTEX
  8
0
 10
2.89551
 20
9.04113
 30
0.0
 40
0
 41
0
  0
VERTEX
  8
0
 10
2.9476
 20
9.17236
 30
0.0
 40
0
 41
0
  0
VERTEX
  8
0
 10
2.99918
 20
9.0409
 30
0.0
 40
0
 41
0
  0
VERTEX
  8
0
 10
3.05126
 20
9.17215
 30
0.0
 40
0
 41
0
  0
SEQEND
 8
0
  0
POLYLINE
  8
0
 62
     0
 66
     1
 10
0
 20
0
 30
0.0
 40
0.75
 41
0.75
  0
VERTEX
  8
0
 10
2.53304
 20
9.17307
 30
0.0
 40
0.0104167
 41
0.0104167
  0
VERTEX
  8
0
 10
2.58458
 20
9.04161
 30
0.0
 40
0.0104167
 41
0.0104167
  0
VERTEX
  8
0
 10
2.63667
 20
9.1729
 30
0.0
 40
0.0104167
 41
0.0104167
  0
VERTEX
  8
0
 10
2.68821
 20
9.04144
 30
0.0
 40
0.0104167
 41
0.0104167
  0
VERTEX
  8
0
 10
2.74029
 20
9.17269
 30
0.0
 40
0.0104167
 41
0.0104167
  0
VERTEX
  8
0
 10
2.79189
 20
9.04124
 30
0.0
 40
0.0104167
 41
0.0104167
  0
VERTEX
  8
0
 10
2.84397
 20
9.17247
 30
0.0
 40
0.0104167
 41
0.0104167
  0
VERTEX
  8
0
 10
2.89551
 20
9.04113
 30
0.0
 40
0.0104167
 41
0.0104167
  0
VERTEX
  8
0
 10
2.9476
 20
9.17236
 30
0.0
 40
0.0104167
 41
0.0104167
  0
VERTEX
  8
0
 10
2.99918
 20
9.0409
 30
0.0
 40
0.0104167
 41
0.0104167
  0
VERTEX
  8
0
 10
3.05126
 20
9.17215
 30
0.0
 40
0.0104167
 41
0.0104167
  0
SEQEND
 8
0
  0
POLYLINE
  8
0
 62
     0
 66
     1
 10
0
 20
0
 30
0.0
 70
     1
 40
0
 41
0
  0
VERTEX
  8
0
 10
4.06896
 20
5.63411
 30
0.0
 40
0
 41
0
  0
VERTEX
  8
0
 10
5.12728
 20
5.63411
 30
0.0
 40
0
 41
0
  0
VERTEX
  8
0
 10
5.12728
 20
5.25082
 30
0.0
 40
0
 41
0
  0
VERTEX
  8
0
 10
4.06896
 20
5.25082
 30
0.0
 40
0
 41
0
  0
VERTEX
  8
0
 10
4.06896
 20
5.63411
 30
0.0
 40
0
 41
0
  0
SEQEND
 8
0
  0
POLYLINE
  8
0
 62
     0
 66
     1
 10
0
 20
0
 30
0.0
 70
     1
 40
0.15
 41
0.15
  0
VERTEX
  8
0
 10
4.06896
 20
5.63411
 30
0.0
 40
0.00208333
 41
0.00208333
  0
VERTEX
  8
0
 10
5.12728
 20
5.63411
 30
0.0
 40
0.00208333
 41
0.00208333
  0
VERTEX
  8
0
 10
5.12728
 20
5.25082
 30
0.0
 40
0.00208333
 41
0.00208333
  0
VERTEX
  8
0
 10
4.06896
 20
5.25082
 30
0.0
 40
0.00208333
 41
0.00208333
  0
VERTEX
  8
0
 10
4.06896
 20
5.63411
 30
0.0
 40
0.00208333
 41
0.00208333
  0
SEQEND
 8
0
  0
POLYLINE
  8
0
 62
     0
 66
     1
 10
0
 20
0
 30
0.0
 70
     1
 40
0
 41
0
  0
VERTEX
  8
0
 10
0.631782
 20
13.2231
 30
0.0
 40
0
 41
0
  0
VERTEX
  8
0
 10
2.37093
 20
13.2231
 30
0.0
 40
0
 41
0
  0
VERTEX
  8
0
 10
2.37093
 20
13.0312
 30
0.0
 40
0
 41
0
  0
VERTEX
  8
0
 10
0.631782
 20
13.0312
 30
0.0
 40
0
 41
0
  0
VERTEX
  8
0
 10
0.631782
 20
13.2231
 30
0.0
 40
0
 41
0
  0
SEQEND
 8
0
  0
POLYLINE
  8
0
 62
     0
 66
     1
 10
0
 20
0
 30
0.0
 70
     1
 40
0.15
 41
0.15
  0
VERTEX
  8
0
 10
0.631782
 20
13.2231
 30
0.0
 40
0.00208333
 41
0.00208333
  0
VERTEX
  8
0
 10
2.37093
 20
13.2231
 30
0.0
 40
0.00208333
 41
0.00208333
  0
VERTEX
  8
0
 10
2.37093
 20
13.0312
 30
0.0
 40
0.00208333
 41
0.00208333
  0
VERTEX
  8
0
 10
0.631782
 20
13.0312
 30
0.0
 40
0.00208333
 41
0.00208333
  0
VERTEX
  8
0
 10
0.631782
 20
13.2231
 30
0.0
 40
0.00208333
 41
0.00208333
  0
SEQEND
 8
0
  0
POLYLINE
  8
0
 62
     0
 66
     1
 10
0
 20
0
 30
0.0
 70
     1
 40
0
 41
0
  0
VERTEX
  8
0
 10
9.06104
 20
1.28369
 30
0.0
 40
0
 41
0
  0
VERTEX
  8
0
 10
9.06293
 20
3.02756
 30
0.0
 40
0
 41
0
  0
VERTEX
  8
0
 10
9.12532
 20
2.96506
 30
0.0
 40
0
 41
0
  0
VERTEX
  8
0
 10
9.12354
 20
1.28364
 30
0.0
 40
0
 41
0
  0
VERTEX
  8
0
 10
9.06104
 20
1.28369
 30
0.0
 40
0
 41
0
  0
SEQEND
 8
0
  0
POLYLINE
  8
0
 62
     0
 66
     1
 10
0
 20
0
 30
0.0
 70
     1
 40
0.15
 41
0.15
  0
VERTEX
  8
0
 10
9.06104
 20
1.28369
 30
0.0
 40
0.00208333
 41
0.00208333
  0
VERTEX
  8
0
 10
9.06293
 20
3.02756
 30
0.0
 40
0.00208333
 41
0.00208333
  0
VERTEX
  8
0
 10
9.12532
 20
2.96506
 30
0.0
 40
0.00208333
 41
0.00208333
  0
VERTEX
  8
0
 10
9.12354
 20
1.28364
 30
0.0
 40
0.00208333
 41
0.00208333
  0
VERTEX
  8
0
 10
9.06104
 20
1.28369
 30
0.0
 40
0.00208333
 41
0.00208333
  0
SEQEND
 8
0
  0
POLYLINE
  8
0
 62
     0
 66
     1
 10
0
 20
0
 30
0.0
 70
     1
 40
0
 41
0
  0
VERTEX
  8
0
 10
9.06293
 20
3.02756
 30
0.0
 40
0
 41
0
  0
VERTEX
  8
0
 10
9.66596
 20
3.02756
 30
0.0
 40
0
 41
0
  0
VERTEX
  8
0
 10
9.72835
 20
2.96506
 30
0.0
 40
0
 41
0
  0
VERTEX
  8
0
 10
9.12532
 20
2.96506
 30
0.0
 40
0
 41
0
  0
VERTEX
  8
0
 10
9.06293
 20
3.02756
 30
0.0
 40
0
 41
0
  0
SEQEND
 8
0
  0
POLYLINE
  8
0
 62
     0
 66
     1
 10
0
 20
0
 30
0.0
 70
     1
 40
0.15
 41
0.15
  0
VERTEX
  8
0
 10
9.06293
 20
3.02756
 30
0.0
 40
0.00208333
 41
0.00208333
  0
VERTEX
  8
0
 10
9.66596
 20
3.02756
 30
0.0
 40
0.00208333
 41
0.00208333
  0
VERTEX
  8
0
 10
9.72835
 20
2.96506
 30
0.0
 40
0.00208333
 41
0.00208333
  0
VERTEX
  8
0
 10
9.12532
 20
2.96506
 30
0.0
 40
0.00208333
 41
0.00208333
  0
VERTEX
  8
0
 10
9.06293
 20
3.02756
 30
0.0
 40
0.00208333
 41
0.00208333
  0
SEQEND
 8
0
  0
POLYLINE
  8
0
 62
     0
 66
     1
 10
0
 20
0
 30
0.0
 70
     1
 40
0
 41
0
  0
VERTEX
  8
0
 10
9.72835
 20
2.96506
 30
0.0
 40
0
 41
0
  0
VERTEX
  8
0
 10
9.72894
 20
4.13921
 30
0.0
 40
0
 41
0
  0
VERTEX
  8
0
 10
9.66644
 20
4.07671
 30
0.0
 40
0
 41
0
  0
VERTEX
  8
0
 10
9.66596
 20
3.02756
 30
0.0
 40
0
 41
0
  0
VERTEX
  8
0
 10
9.72835
 20
2.96506
 30
0.0
 40
0
 41
0
  0
SEQEND
 8
0
  0
POLYLINE
  8
0
 62
     0
 66
     1
 10
0
 20
0
 30
0.0
 70
     1
 40
0.15
 41
0.15
  0
VERTEX
  8
0
 10
9.72835
 20
2.96506
 30
0.0
 40
0.00208333
 41
0.00208333
  0
VERTEX
  8
0
 10
9.72894
 20
4.13921
 30
0.0
 40
0.00208333
 41
0.00208333
  0
VERTEX
  8
0
 10
9.66644
 20
4.07671
 30
0.0
 40
0.00208333
 41
0.00208333
  0
VERTEX
  8
0
 10
9.66596
 20
3.02756
 30
0.0
 40
0.00208333
 41
0.00208333
  0
VERTEX
  8
0
 10
9.72835
 20
2.96506
 30
0.0
 40
0.00208333
 41
0.00208333
  0
SEQEND
 8
0
  0
POLYLINE
  8
0
 62
     0
 66
     1
 10
0
 20
0
 30
0.0
 70
     1
 40
0
 41
0
  0
VERTEX
  8
0
 10
9.72894
 20
4.13921
 30
0.0
 40
0
 41
0
  0
VERTEX
  8
0
 10
9.15853
 20
4.13921
 30
0.0
 40
0
 41
0
  0
VERTEX
  8
0
 10
9.06478
 20
4.07671
 30
0.0
 40
0
 41
0
  0
VERTEX
  8
0
 10
9.66644
 20
4.07671
 30
0.0
 40
0
 41
0
  0
VERTEX
  8
0
 10
9.72894
 20
4.13921
 30
0.0
 40
0
 41
0
  0
SEQEND
 8
0
  0
POLYLINE
  8
0
 62
     0
 66
     1
 10
0
 20
0
 30
0.0
 70
     1
 40
0.15
 41
0.15
  0
VERTEX
  8
0
 10
9.72894
 20
4.13921
 30
0.0
 40
0.00208333
 41
0.00208333
  0
VERTEX
  8
0
 10
9.15853
 20
4.13921
 30
0.0
 40
0.00208333
 41
0.00208333
  0
VERTEX
  8
0
 10
9.06478
 20
4.07671
 30
0.0
 40
0.00208333
 41
0.00208333
  0
VERTEX
  8
0
 10
9.66644
 20
4.07671
 30
0.0
 40
0.00208333
 41
0.00208333
  0
VERTEX
  8
0
 10
9.72894
 20
4.13921
 30
0.0
 40
0.00208333
 41
0.00208333
  0
SEQEND
 8
0
  0
POLYLINE
  8
0
 62
     7
 66
     1
 10
0
 20
0
 30
0.0
 70
     1
 40
0
 41
0
  0
VERTEX
  8
0
 10
0.631782
 20
13.0312
 30
0.0
 40
0
 41
0
  0
VERTEX
  8
0
 10
0.777615
 20
13.0312
 30
0.0
 40
0
 41
0
  0
VERTEX
  8
0
 10
0.777615
 20
9.42746
 30
0.0
 40
0
 41
0
  0
VERTEX
  8
0
 10
0.631782
 20
9.42746
 30
0.0
 40
0
 41
0
  0
VERTEX
  8
0
 10
0.631782
 20
13.0312
 30
0.0
 40
0
 41
0
  0
SEQEND
 8
0
  0
POLYLINE
  8
0
 62
     0
 66
     1
 10
0
 20
0
 30
0.0
 70
     1
 40
0.15
 41
0.15
  0
VERTEX
  8
0
 10
0.631782
 20
13.0312
 30
0.0
 40
0.00208333
 41
0.00208333
  0
VERTEX
  8
0
 10
0.777615
 20
13.0312
 30
0.0
 40
0.00208333
 41
0.00208333
  0
VERTEX
  8
0
 10
0.777615
 20
9.42746
 30
0.0
 40
0.00208333
 41
0.00208333
  0
VERTEX
  8
0
 10
0.631782
 20
9.42746
 30
0.0
 40
0.00208333
 41
0.00208333
  0
VERTEX
  8
0
 10
0.631782
 20
13.0312
 30
0.0
 40
0.00208333
 41
0.00208333
  0
SEQEND
 8
0
  0
POLYLINE
  8
0
 62
     7
 66
     1
 10
0
 20
0
 30
0.0
 70
     1
 40
0
 41
0
  0
VERTEX
  8
0
 10
4.139
 20
7.42757
 30
0.0
 40
0
 41
0
  0
VERTEX
  8
0
 10
4.58669
 20
7.42757
 30
0.0
 40
0
 41
0
  0
VERTEX
  8
0
 10
4.58669
 20
6.80257
 30
0.0
 40
0
 41
0
  0
VERTEX
  8
0
 10
4.139
 20
6.80257
 30
0.0
 40
0
 41
0
  0
VERTEX
  8
0
 10
4.139
 20
7.42757
 30
0.0
 40
0
 41
0
  0
SEQEND
 8
0
  0
POLYLINE
  8
0
 62
     0
 66
     1
 10
0
 20
0
 30
0.0
 70
     1
 40
0.75
 41
0.75
  0
VERTEX
  8
0
 10
4.139
 20
7.42757
 30
0.0
 40
0.0104167
 41
0.0104167
  0
VERTEX
  8
0
 10
4.139
 20
6.80257
 30
0.0
 40
0.0104167
 41
0.0104167
  0
VERTEX
  8
0
 10
4.58669
 20
6.80257
 30
0.0
 40
0.0104167
 41
0.0104167
  0
VERTEX
  8
0
 10
4.58669
 20
7.42757
 30
0.0
 40
0.0104167
 41
0.0104167
  0
VERTEX
  8
0
 10
4.139
 20
7.42757
 30
0.0
 40
0.0104167
 41
0.0104167
  0
SEQEND
 8
0
  0
POLYLINE
  8
0
 62
     7
 66
     1
 10
0
 20
0
 30
0.0
 70
     1
 40
0
 41
0
  0
VERTEX
  8
0
 10
4.24001
 20
7.37549
 30
0.0
 40
0
 41
0
  0
VERTEX
  8
0
 10
4.54719
 20
7.37549
 30
0.0
 40
0
 41
0
  0
VERTEX
  8
0
 10
4.54719
 20
6.85465
 30
0.0
 40
0
 41
0
  0
VERTEX
  8
0
 10
4.24001
 20
6.85465
 30
0.0
 40
0
 41
0
  0
VERTEX
  8
0
 10
4.24001
 20
7.37549
 30
0.0
 40
0
 41
0
  0
SEQEND
 8
0
  0
POLYLINE
  8
0
 62
     0
 66
     1
 10
0
 20
0
 30
0.0
 70
     1
 40
0.75
 41
0.75
  0
VERTEX
  8
0
 10
4.24001
 20
7.37549
 30
0.0
 40
0.0104167
 41
0.0104167
  0
VERTEX
  8
0
 10
4.24001
 20
6.85465
 30
0.0
 40
0.0104167
 41
0.0104167
  0
VERTEX
  8
0
 10
4.54719
 20
6.85465
 30
0.0
 40
0.0104167
 41
0.0104167
  0
VERTEX
  8
0
 10
4.54719
 20
7.37549
 30
0.0
 40
0.0104167
 41
0.0104167
  0
VERTEX
  8
0
 10
4.24001
 20
7.37549
 30
0.0
 40
0.0104167
 41
0.0104167
  0
SEQEND
 8
0
  0
POLYLINE
  8
0
 62
     7
 66
     1
 10
0
 20
0
 30
0.0
 70
     1
 40
0
 41
0
  0
VERTEX
  8
0
 10
4.37929
 20
7.15153
 30
0.0
 40
0
 41
0
  0
VERTEX
  8
0
 10
4.38569
 20
7.15153
 30
0.0
 40
0
 41
0
  0
VERTEX
  8
0
 10
4.40506
 20
7.1409
 30
0.0
 40
0
 41
0
  0
VERTEX
  8
0
 10
4.41575
 20
7.12153
 30
0.0
 40
0
 41
0
  0
VERTEX
  8
0
 10
4.41575
 20
7.11507
 30
0.0
 40
0
 41
0
  0
VERTEX
  8
0
 10
4.41575
 20
7.10867
 30
0.0
 40
0
 41
0
  0
VERTEX
  8
0
 10
4.40506
 20
7.08931
 30
0.0
 40
0
 41
0
  0
VERTEX
  8
0
 10
4.38569
 20
7.07861
 30
0.0
 40
0
 41
0
  0
VERTEX
  8
0
 10
4.37929
 20
7.07861
 30
0.0
 40
0
 41
0
  0
VERTEX
  8
0
 10
4.37283
 20
7.07861
 30
0.0
 40
0
 41
0
  0
VERTEX
  8
0
 10
4.35346
 20
7.08931
 30
0.0
 40
0
 41
0
  0
VERTEX
  8
0
 10
4.34283
 20
7.10867
 30
0.0
 40
0
 41
0
  0
VERTEX
  8
0
 10
4.34283
 20
7.11507
 30
0.0
 40
0
 41
0
  0
VERTEX
  8
0
 10
4.34283
 20
7.12153
 30
0.0
 40
0
 41
0
  0
VERTEX
  8
0
 10
4.35346
 20
7.1409
 30
0.0
 40
0
 41
0
  0
VERTEX
  8
0
 10
4.37283
 20
7.15153
 30
0.0
 40
0
 41
0
  0
VERTEX
  8
0
 10
4.37929
 20
7.15153
 30
0.0
 40
0
 41
0
  0
SEQEND
 8
0
  0
POLYLINE
  8
0
 62
     0
 66
     1
 10
0
 20
0
 30
0.0
 70
     1
 40
0.6
 41
0.6
  0
VERTEX
  8
0
 10
4.37929
 20
7.15153
 30
0.0
 40
0.00833333
 41
0.00833333
  0
VERTEX
  8
0
 10
4.38569
 20
7.15153
 30
0.0
 40
0.00833333
 41
0.00833333
  0
VERTEX
  8
0
 10
4.40506
 20
7.1409
 30
0.0
 40
0.00833333
 41
0.00833333
  0
VERTEX
  8
0
 10
4.41575
 20
7.12153
 30
0.0
 40
0.00833333
 41
0.00833333
  0
VERTEX
  8
0
 10
4.41575
 20
7.11507
 30
0.0
 40
0.00833333
 41
0.00833333
  0
VERTEX
  8
0
 10
4.41575
 20
7.10867
 30
0.0
 40
0.00833333
 41
0.00833333
  0
VERTEX
  8
0
 10
4.40506
 20
7.08931
 30
0.0
 40
0.00833333
 41
0.00833333
  0
VERTEX
  8
0
 10
4.38569
 20
7.07861
 30
0.0
 40
0.00833333
 41
0.00833333
  0
VERTEX
  8
0
 10
4.37929
 20
7.07861
 30
0.0
 40
0.00833333
 41
0.00833333
  0
VERTEX
  8
0
 10
4.37283
 20
7.07861
 30
0.0
 40
0.00833333
 41
0.00833333
  0
VERTEX
  8
0
 10
4.35346
 20
7.08931
 30
0.0
 40
0.00833333
 41
0.00833333
  0
VERTEX
  8
0
 10
4.34283
 20
7.10867
 30
0.0
 40
0.00833333
 41
0.00833333
  0
VERTEX
  8
0
 10
4.34283
 20
7.11507
 30
0.0
 40
0.00833333
 41
0.00833333
  0
VERTEX
  8
0
 10
4.34283
 20
7.12153
 30
0.0
 40
0.00833333
 41
0.00833333
  0
VERTEX
  8
0
 10
4.35346
 20
7.1409
 30
0.0
 40
0.00833333
 41
0.00833333
  0
VERTEX
  8
0
 10
4.37283
 20
7.15153
 30
0.0
 40
0.00833333
 41
0.00833333
  0
VERTEX
  8
0
 10
4.37929
 20
7.15153
 30
0.0
 40
0.00833333
 41
0.00833333
  0
SEQEND
 8
0
  0
POLYLINE
  8
0
 62
     7
 66
     1
 10
0
 20
0
 30
0.0
 70
     1
 40
0
 41
0
  0
VERTEX
  8
0
 10
4.37929
 20
7.1359
 30
0.0
 40
0
 41
0
  0
VERTEX
  8
0
 10
4.38292
 20
7.1359
 30
0.0
 40
0
 41
0
  0
VERTEX
  8
0
 10
4.39399
 20
7.12983
 30
0.0
 40
0
 41
0
  0
VERTEX
  8
0
 10
4.40012
 20
7.11876
 30
0.0
 40
0
 41
0
  0
VERTEX
  8
0
 10
4.40012
 20
7.11507
 30
0.0
 40
0
 41
0
  0
VERTEX
  8
0
 10
4.40012
 20
7.11143
 30
0.0
 40
0
 41
0
  0
VERTEX
  8
0
 10
4.39399
 20
7.10037
 30
0.0
 40
0
 41
0
  0
VERTEX
  8
0
 10
4.38292
 20
7.09424
 30
0.0
 40
0
 41
0
  0
VERTEX
  8
0
 10
4.37929
 20
7.09424
 30
0.0
 40
0
 41
0
  0
VERTEX
  8
0
 10
4.3756
 20
7.09424
 30
0.0
 40
0
 41
0
  0
VERTEX
  8
0
 10
4.36453
 20
7.10037
 30
0.0
 40
0
 41
0
  0
VERTEX
  8
0
 10
4.35846
 20
7.11143
 30
0.0
 40
0
 41
0
  0
VERTEX
  8
0
 10
4.35846
 20
7.11507
 30
0.0
 40
0
 41
0
  0
VERTEX
  8
0
 10
4.35846
 20
7.11876
 30
0.0
 40
0
 41
0
  0
VERTEX
  8
0
 10
4.36453
 20
7.12983
 30
0.0
 40
0
 41
0
  0
VERTEX
  8
0
 10
4.3756
 20
7.1359
 30
0.0
 40
0
 41
0
  0
VERTEX
  8
0
 10
4.37929
 20
7.1359
 30
0.0
 40
0
 41
0
  0
SEQEND
 8
0
  0
POLYLINE
  8
0
 62
     0
 66
     1
 10
0
 20
0
 30
0.0
 70
     1
 40
0.6
 41
0.6
  0
VERTEX
  8
0
 10
4.37929
 20
7.1359
 30
0.0
 40
0.00833333
 41
0.00833333
  0
VERTEX
  8
0
 10
4.38292
 20
7.1359
 30
0.0
 40
0.00833333
 41
0.00833333
  0
VERTEX
  8
0
 10
4.39399
 20
7.12983
 30
0.0
 40
0.00833333
 41
0.00833333
  0
VERTEX
  8
0
 10
4.40012
 20
7.11876
 30
0.0
 40
0.00833333
 41
0.00833333
  0
VERTEX
  8
0
 10
4.40012
 20
7.11507
 30
0.0
 40
0.00833333
 41
0.00833333
  0
VERTEX
  8
0
 10
4.40012
 20
7.11143
 30
0.0
 40
0.00833333
 41
0.00833333
  0
VERTEX
  8
0
 10
4.39399
 20
7.10037
 30
0.0
 40
0.00833333
 41
0.00833333
  0
VERTEX
  8
0
 10
4.38292
 20
7.09424
 30
0.0
 40
0.00833333
 41
0.00833333
  0
VERTEX
  8
0
 10
4.37929
 20
7.09424
 30
0.0
 40
0.00833333
 41
0.00833333
  0
VERTEX
  8
0
 10
4.3756
 20
7.09424
 30
0.0
 40
0.00833333
 41
0.00833333
  0
VERTEX
  8
0
 10
4.36453
 20
7.10037
 30
0.0
 40
0.00833333
 41
0.00833333
  0
VERTEX
  8
0
 10
4.35846
 20
7.11143
 30
0.0
 40
0.00833333
 41
0.00833333
  0
VERTEX
  8
0
 10
4.35846
 20
7.11507
 30
0.0
 40
0.00833333
 41
0.00833333
  0
VERTEX
  8
0
 10
4.35846
 20
7.11876
 30
0.0
 40
0.00833333
 41
0.00833333
  0
VERTEX
  8
0
 10
4.36453
 20
7.12983
 30
0.0
 40
0.00833333
 41
0.00833333
  0
VERTEX
  8
0
 10
4.3756
 20
7.1359
 30
0.0
 40
0.00833333
 41
0.00833333
  0
VERTEX
  8
0
 10
4.37929
 20
7.1359
 30
0.0
 40
0.00833333
 41
0.00833333
  0
SEQEND
 8
0
  0
POLYLINE
  8
0
 62
     7
 66
     1
 10
0
 20
0
 30
0.0
 70
     1
 40
0
 41
0
  0
VERTEX
  8
0
 10
4.17626
 20
7.14632
 30
0.0
 40
0
 41
0
  0
VERTEX
  8
0
 10
4.3221
 20
7.14632
 30
0.0
 40
0
 41
0
  0
VERTEX
  8
0
 10
4.3221
 20
7.08382
 30
0.0
 40
0
 41
0
  0
VERTEX
  8
0
 10
4.17626
 20
7.08382
 30
0.0
 40
0
 41
0
  0
VERTEX
  8
0
 10
4.17626
 20
7.14632
 30
0.0
 40
0
 41
0
  0
SEQEND
 8
0
  0
POLYLINE
  8
0
 62
     0
 66
     1
 10
0
 20
0
 30
0.0
 70
     1
 40
0.75
 41
0.75
  0
VERTEX
  8
0
 10
4.17626
 20
7.14632
 30
0.0
 40
0.0104167
 41
0.0104167
  0
VERTEX
  8
0
 10
4.17626
 20
7.08382
 30
0.0
 40
0.0104167
 41
0.0104167
  0
VERTEX
  8
0
 10
4.3221
 20
7.08382
 30
0.0
 40
0.0104167
 41
0.0104167
  0
VERTEX
  8
0
 10
4.3221
 20
7.14632
 30
0.0
 40
0.0104167
 41
0.0104167
  0
VERTEX
  8
0
 10
4.17626
 20
7.14632
 30
0.0
 40
0.0104167
 41
0.0104167
  0
SEQEND
 8
0
  0
POLYLINE
  8
0
 62
     7
 66
     1
 10
0
 20
0
 30
0.0
 70
     1
 40
0
 41
0
  0
VERTEX
  8
0
 10
5.62907
 20
7.90289
 30
0.0
 40
0
 41
0
  0
VERTEX
  8
0
 10
6.25407
 20
7.90289
 30
0.0
 40
0
 41
0
  0
VERTEX
  8
0
 10
6.25407
 20
7.4714
 30
0.0
 40
0
 41
0
  0
VERTEX
  8
0
 10
5.62907
 20
7.4714
 30
0.0
 40
0
 41
0
  0
VERTEX
  8
0
 10
5.62907
 20
7.90289
 30
0.0
 40
0
 41
0
  0
SEQEND
 8
0
  0
POLYLINE
  8
0
 62
     0
 66
     1
 10
0
 20
0
 30
0.0
 70
     1
 40
0.75
 41
0.75
  0
VERTEX
  8
0
 10
5.62907
 20
7.90289
 30
0.0
 40
0.0104167
 41
0.0104167
  0
VERTEX
  8
0
 10
6.25407
 20
7.90289
 30
0.0
 40
0.0104167
 41
0.0104167
  0
VERTEX
  8
0
 10
6.25407
 20
7.4714
 30
0.0
 40
0.0104167
 41
0.0104167
  0
VERTEX
  8
0
 10
5.62907
 20
7.4714
 30
0.0
 40
0.0104167
 41
0.0104167
  0
VERTEX
  8
0
 10
5.62907
 20
7.90289
 30
0.0
 40
0.0104167
 41
0.0104167
  0
SEQEND
 8
0
  0
POLYLINE
  8
0
 62
     7
 66
     1
 10
0
 20
0
 30
0.0
 70
     1
 40
0
 41
0
  0
VERTEX
  8
0
 10
5.68115
 20
7.80181
 30
0.0
 40
0
 41
0
  0
VERTEX
  8
0
 10
6.20199
 20
7.80181
 30
0.0
 40
0
 41
0
  0
VERTEX
  8
0
 10
6.20199
 20
7.50956
 30
0.0
 40
0
 41
0
  0
VERTEX
  8
0
 10
5.68115
 20
7.50956
 30
0.0
 40
0
 41
0
  0
VERTEX
  8
0
 10
5.68115
 20
7.80181
 30
0.0
 40
0
 41
0
  0
SEQEND
 8
0
  0
POLYLINE
  8
0
 62
     0
 66
     1
 10
0
 20
0
 30
0.0
 70
     1
 40
0.75
 41
0.75
  0
VERTEX
  8
0
 10
5.68115
 20
7.80181
 30
0.0
 40
0.0104167
 41
0.0104167
  0
VERTEX
  8
0
 10
6.20199
 20
7.80181
 30
0.0
 40
0.0104167
 41
0.0104167
  0
VERTEX
  8
0
 10
6.20199
 20
7.50956
 30
0.0
 40
0.0104167
 41
0.0104167
  0
VERTEX
  8
0
 10
5.68115
 20
7.50956
 30
0.0
 40
0.0104167
 41
0.0104167
  0
VERTEX
  8
0
 10
5.68115
 20
7.80181
 30
0.0
 40
0.0104167
 41
0.0104167
  0
SEQEND
 8
0
  0
POLYLINE
  8
0
 62
     7
 66
     1
 10
0
 20
0
 30
0.0
 70
     1
 40
0
 41
0
  0
VERTEX
  8
0
 10
5.97803
 20
7.67128
 30
0.0
 40
0
 41
0
  0
VERTEX
  8
0
 10
5.97803
 20
7.66487
 30
0.0
 40
0
 41
0
  0
VERTEX
  8
0
 10
5.96733
 20
7.64551
 30
0.0
 40
0
 41
0
  0
VERTEX
  8
0
 10
5.94797
 20
7.63482
 30
0.0
 40
0
 41
0
  0
VERTEX
  8
0
 10
5.94157
 20
7.63482
 30
0.0
 40
0
 41
0
  0
VERTEX
  8
0
 10
5.93511
 20
7.63482
 30
0.0
 40
0
 41
0
  0
VERTEX
  8
0
 10
5.91575
 20
7.64551
 30
0.0
 40
0
 41
0
  0
VERTEX
  8
0
 10
5.90511
 20
7.66487
 30
0.0
 40
0
 41
0
  0
VERTEX
  8
0
 10
5.90511
 20
7.67128
 30
0.0
 40
0
 41
0
  0
VERTEX
  8
0
 10
5.90511
 20
7.67774
 30
0.0
 40
0
 41
0
  0
VERTEX
  8
0
 10
5.91575
 20
7.6971
 30
0.0
 40
0
 41
0
  0
VERTEX
  8
0
 10
5.93511
 20
7.70774
 30
0.0
 40
0
 41
0
  0
VERTEX
  8
0
 10
5.94157
 20
7.70774
 30
0.0
 40
0
 41
0
  0
VERTEX
  8
0
 10
5.94797
 20
7.70774
 30
0.0
 40
0
 41
0
  0
VERTEX
  8
0
 10
5.96733
 20
7.6971
 30
0.0
 40
0
 41
0
  0
VERTEX
  8
0
 10
5.97803
 20
7.67774
 30
0.0
 40
0
 41
0
  0
VERTEX
  8
0
 10
5.97803
 20
7.67128
 30
0.0
 40
0
 41
0
  0
SEQEND
 8
0
  0
POLYLINE
  8
0
 62
     0
 66
     1
 10
0
 20
0
 30
0.0
 70
     1
 40
0.6
 41
0.6
  0
VERTEX
  8
0
 10
5.97803
 20
7.67128
 30
0.0
 40
0.00833333
 41
0.00833333
  0
VERTEX
  8
0
 10
5.97803
 20
7.66487
 30
0.0
 40
0.00833333
 41
0.00833333
  0
VERTEX
  8
0
 10
5.96733
 20
7.64551
 30
0.0
 40
0.00833333
 41
0.00833333
  0
VERTEX
  8
0
 10
5.94797
 20
7.63482
 30
0.0
 40
0.00833333
 41
0.00833333
  0
VERTEX
  8
0
 10
5.94157
 20
7.63482
 30
0.0
 40
0.00833333
 41
0.00833333
  0
VERTEX
  8
0
 10
5.93511
 20
7.63482
 30
0.0
 40
0.00833333
 41
0.00833333
  0
VERTEX
  8
0
 10
5.91575
 20
7.64551
 30
0.0
 40
0.00833333
 41
0.00833333
  0
VERTEX
  8
0
 10
5.90511
 20
7.66487
 30
0.0
 40
0.00833333
 41
0.00833333
  0
VERTEX
  8
0
 10
5.90511
 20
7.67128
 30
0.0
 40
0.00833333
 41
0.00833333
  0
VERTEX
  8
0
 10
5.90511
 20
7.67774
 30
0.0
 40
0.00833333
 41
0.00833333
  0
VERTEX
  8
0
 10
5.91575
 20
7.6971
 30
0.0
 40
0.00833333
 41
0.00833333
  0
VERTEX
  8
0
 10
5.93511
 20
7.70774
 30
0.0
 40
0.00833333
 41
0.00833333
  0
VERTEX
  8
0
 10
5.94157
 20
7.70774
 30
0.0
 40
0.00833333
 41
0.00833333
  0
VERTEX
  8
0
 10
5.94797
 20
7.70774
 30
0.0
 40
0.00833333
 41
0.00833333
  0
VERTEX
  8
0
 10
5.96733
 20
7.6971
 30
0.0
 40
0.00833333
 41
0.00833333
  0
VERTEX
  8
0
 10
5.97803
 20
7.67774
 30
0.0
 40
0.00833333
 41
0.00833333
  0
VERTEX
  8
0
 10
5.97803
 20
7.67128
 30
0.0
 40
0.00833333
 41
0.00833333
  0
SEQEND
 8
0
  0
POLYLINE
  8
0
 62
     7
 66
     1
 10
0
 20
0
 30
0.0
 70
     1
 40
0
 41
0
  0
VERTEX
  8
0
 10
5.9624
 20
7.67128
 30
0.0
 40
0
 41
0
  0
VERTEX
  8
0
 10
5.9624
 20
7.66764
 30
0.0
 40
0
 41
0
  0
VERTEX
  8
0
 10
5.95628
 20
7.65657
 30
0.0
 40
0
 41
0
  0
VERTEX
  8
0
 10
5.94521
 20
7.65044
 30
0.0
 40
0
 41
0
  0
VERTEX
  8
0
 10
5.94157
 20
7.65044
 30
0.0
 40
0
 41
0
  0
VERTEX
  8
0
 10
5.93788
 20
7.65044
 30
0.0
 40
0
 41
0
  0
VERTEX
  8
0
 10
5.92681
 20
7.65657
 30
0.0
 40
0
 41
0
  0
VERTEX
  8
0
 10
5.92074
 20
7.66764
 30
0.0
 40
0
 41
0
  0
VERTEX
  8
0
 10
5.92074
 20
7.67128
 30
0.0
 40
0
 41
0
  0
VERTEX
  8
0
 10
5.92074
 20
7.67497
 30
0.0
 40
0
 41
0
  0
VERTEX
  8
0
 10
5.92681
 20
7.68604
 30
0.0
 40
0
 41
0
  0
VERTEX
  8
0
 10
5.93788
 20
7.69211
 30
0.0
 40
0
 41
0
  0
VERTEX
  8
0
 10
5.94157
 20
7.69211
 30
0.0
 40
0
 41
0
  0
VERTEX
  8
0
 10
5.94521
 20
7.69211
 30
0.0
 40
0
 41
0
  0
VERTEX
  8
0
 10
5.95628
 20
7.68604
 30
0.0
 40
0
 41
0
  0
VERTEX
  8
0
 10
5.9624
 20
7.67497
 30
0.0
 40
0
 41
0
  0
VERTEX
  8
0
 10
5.9624
 20
7.67128
 30
0.0
 40
0
 41
0
  0
SEQEND
 8
0
  0
POLYLINE
  8
0
 62
     0
 66
     1
 10
0
 20
0
 30
0.0
 70
     1
 40
0.6
 41
0.6
  0
VERTEX
  8
0
 10
5.9624
 20
7.67128
 30
0.0
 40
0.00833333
 41
0.00833333
  0
VERTEX
  8
0
 10
5.9624
 20
7.66764
 30
0.0
 40
0.00833333
 41
0.00833333
  0
VERTEX
  8
0
 10
5.95628
 20
7.65657
 30
0.0
 40
0.00833333
 41
0.00833333
  0
VERTEX
  8
0
 10
5.94521
 20
7.65044
 30
0.0
 40
0.00833333
 41
0.00833333
  0
VERTEX
  8
0
 10
5.94157
 20
7.65044
 30
0.0
 40
0.00833333
 41
0.00833333
  0
VERTEX
  8
0
 10
5.93788
 20
7.65044
 30
0.0
 40
0.00833333
 41
0.00833333
  0
VERTEX
  8
0
 10
5.92681
 20
7.65657
 30
0.0
 40
0.00833333
 41
0.00833333
  0
VERTEX
  8
0
 10
5.92074
 20
7.66764
 30
0.0
 40
0.00833333
 41
0.00833333
  0
VERTEX
  8
0
 10
5.92074
 20
7.67128
 30
0.0
 40
0.00833333
 41
0.00833333
  0
VERTEX
  8
0
 10
5.92074
 20
7.67497
 30
0.0
 40
0.00833333
 41
0.00833333
  0
VERTEX
  8
0
 10
5.92681
 20
7.68604
 30
0.0
 40
0.00833333
 41
0.00833333
  0
VERTEX
  8
0
 10
5.93788
 20
7.69211
 30
0.0
 40
0.00833333
 41
0.00833333
  0
VERTEX
  8
0
 10
5.94157
 20
7.69211
 30
0.0
 40
0.00833333
 41
0.00833333
  0
VERTEX
  8
0
 10
5.94521
 20
7.69211
 30
0.0
 40
0.00833333
 41
0.00833333
  0
VERTEX
  8
0
 10
5.95628
 20
7.68604
 30
0.0
 40
0.00833333
 41
0.00833333
  0
VERTEX
  8
0
 10
5.9624
 20
7.67497
 30
0.0
 40
0.00833333
 41
0.00833333
  0
VERTEX
  8
0
 10
5.9624
 20
7.67128
 30
0.0
 40
0.00833333
 41
0.00833333
  0
SEQEND
 8
0
  0
POLYLINE
  8
0
 62
     7
 66
     1
 10
0
 20
0
 30
0.0
 70
     1
 40
0
 41
0
  0
VERTEX
  8
0
 10
5.91032
 20
7.86692
 30
0.0
 40
0
 41
0
  0
VERTEX
  8
0
 10
5.97282
 20
7.86692
 30
0.0
 40
0
 41
0
  0
VERTEX
  8
0
 10
5.97282
 20
7.72108
 30
0.0
 40
0
 41
0
  0
VERTEX
  8
0
 10
5.91032
 20
7.72108
 30
0.0
 40
0
 41
0
  0
VERTEX
  8
0
 10
5.91032
 20
7.86692
 30
0.0
 40
0
 41
0
  0
SEQEND
 8
0
  0
POLYLINE
  8
0
 62
     0
 66
     1
 10
0
 20
0
 30
0.0
 70
     1
 40
0.75
 41
0.75
  0
VERTEX
  8
0
 10
5.91032
 20
7.86692
 30
0.0
 40
0.0104167
 41
0.0104167
  0
VERTEX
  8
0
 10
5.97282
 20
7.86692
 30
0.0
 40
0.0104167
 41
0.0104167
  0
VERTEX
  8
0
 10
5.97282
 20
7.72108
 30
0.0
 40
0.0104167
 41
0.0104167
  0
VERTEX
  8
0
 10
5.91032
 20
7.72108
 30
0.0
 40
0.0104167
 41
0.0104167
  0
VERTEX
  8
0
 10
5.91032
 20
7.86692
 30
0.0
 40
0.0104167
 41
0.0104167
  0
SEQEND
 8
0
  0
POLYLINE
  8
0
 62
     7
 66
     1
 10
0
 20
0
 30
0.0
 70
     1
 40
0
 41
0
  0
VERTEX
  8
0
 10
9.07553
 20
10.7028
 30
0.0
 40
0
 41
0
  0
VERTEX
  8
0
 10
9.75771
 20
10.7028
 30
0.0
 40
0
 41
0
  0
VERTEX
  8
0
 10
9.75771
 20
10.1386
 30
0.0
 40
0
 41
0
  0
VERTEX
  8
0
 10
9.07553
 20
10.1386
 30
0.0
 40
0
 41
0
  0
VERTEX
  8
0
 10
9.07553
 20
10.7028
 30
0.0
 40
0
 41
0
  0
SEQEND
 8
0
  0
POLYLINE
  8
0
 62
     0
 66
     1
 10
0
 20
0
 30
0.0
 70
     1
 40
0.75
 41
0.75
  0
VERTEX
  8
0
 10
9.07553
 20
10.7028
 30
0.0
 40
0.0104167
 41
0.0104167
  0
VERTEX
  8
0
 10
9.07553
 20
10.1386
 30
0.0
 40
0.0104167
 41
0.0104167
  0
VERTEX
  8
0
 10
9.75771
 20
10.1386
 30
0.0
 40
0.0104167
 41
0.0104167
  0
VERTEX
  8
0
 10
9.75771
 20
10.7028
 30
0.0
 40
0.0104167
 41
0.0104167
  0
VERTEX
  8
0
 10
9.07553
 20
10.7028
 30
0.0
 40
0.0104167
 41
0.0104167
  0
SEQEND
 8
0
  0
POLYLINE
  8
0
 62
     7
 66
     1
 10
0
 20
0
 30
0.0
 70
     1
 40
0
 41
0
  0
VERTEX
  8
0
 10
9.07553
 20
11.2671
 30
0.0
 40
0
 41
0
  0
VERTEX
  8
0
 10
9.75771
 20
11.2671
 30
0.0
 40
0
 41
0
  0
VERTEX
  8
0
 10
9.75771
 20
10.7028
 30
0.0
 40
0
 41
0
  0
VERTEX
  8
0
 10
9.07553
 20
10.7028
 30
0.0
 40
0
 41
0
  0
VERTEX
  8
0
 10
9.07553
 20
11.2671
 30
0.0
 40
0
 41
0
  0
SEQEND
 8
0
  0
POLYLINE
  8
0
 62
     0
 66
     1
 10
0
 20
0
 30
0.0
 70
     1
 40
0.75
 41
0.75
  0
VERTEX
  8
0
 10
9.07553
 20
11.2671
 30
0.0
 40
0.0104167
 41
0.0104167
  0
VERTEX
  8
0
 10
9.07553
 20
10.7028
 30
0.0
 40
0.0104167
 41
0.0104167
  0
VERTEX
  8
0
 10
9.75771
 20
10.7028
 30
0.0
 40
0.0104167
 41
0.0104167
  0
VERTEX
  8
0
 10
9.75771
 20
11.2671
 30
0.0
 40
0.0104167
 41
0.0104167
  0
VERTEX
  8
0
 10
9.07553
 20
11.2671
 30
0.0
 40
0.0104167
 41
0.0104167
  0
SEQEND
 8
0
  0
POLYLINE
  8
0
 62
     7
 66
     1
 10
0
 20
0
 30
0.0
 70
     1
 40
0
 41
0
  0
VERTEX
  8
0
 10
9.07553
 20
11.8313
 30
0.0
 40
0
 41
0
  0
VERTEX
  8
0
 10
9.75771
 20
11.8313
 30
0.0
 40
0
 41
0
  0
VERTEX
  8
0
 10
9.75771
 20
11.267
 30
0.0
 40
0
 41
0
  0
VERTEX
  8
0
 10
9.07553
 20
11.267
 30
0.0
 40
0
 41
0
  0
VERTEX
  8
0
 10
9.07553
 20
11.8313
 30
0.0
 40
0
 41
0
  0
SEQEND
 8
0
  0
POLYLINE
  8
0
 62
     0
 66
     1
 10
0
 20
0
 30
0.0
 70
     1
 40
0.75
 41
0.75
  0
VERTEX
  8
0
 10
9.07553
 20
11.8313
 30
0.0
 40
0.0104167
 41
0.0104167
  0
VERTEX
  8
0
 10
9.07553
 20
11.267
 30
0.0
 40
0.0104167
 41
0.0104167
  0
VERTEX
  8
0
 10
9.75771
 20
11.267
 30
0.0
 40
0.0104167
 41
0.0104167
  0
VERTEX
  8
0
 10
9.75771
 20
11.8313
 30
0.0
 40
0.0104167
 41
0.0104167
  0
VERTEX
  8
0
 10
9.07553
 20
11.8313
 30
0.0
 40
0.0104167
 41
0.0104167
  0
SEQEND
 8
0
  0
POLYLINE
  8
0
 62
     7
 66
     1
 10
0
 20
0
 30
0.0
 70
     1
 40
0
 41
0
  0
VERTEX
  8
0
 10
9.07553
 20
12.3955
 30
0.0
 40
0
 41
0
  0
VERTEX
  8
0
 10
9.75771
 20
12.3955
 30
0.0
 40
0
 41
0
  0
VERTEX
  8
0
 10
9.75771
 20
11.8313
 30
0.0
 40
0
 41
0
  0
VERTEX
  8
0
 10
9.07553
 20
11.8313
 30
0.0
 40
0
 41
0
  0
VERTEX
  8
0
 10
9.07553
 20
12.3955
 30
0.0
 40
0
 41
0
  0
SEQEND
 8
0
  0
POLYLINE
  8
0
 62
     0
 66
     1
 10
0
 20
0
 30
0.0
 70
     1
 40
0.75
 41
0.75
  0
VERTEX
  8
0
 10
9.07553
 20
12.3955
 30
0.0
 40
0.0104167
 41
0.0104167
  0
VERTEX
  8
0
 10
9.07553
 20
11.8313
 30
0.0
 40
0.0104167
 41
0.0104167
  0
VERTEX
  8
0
 10
9.75771
 20
11.8313
 30
0.0
 40
0.0104167
 41
0.0104167
  0
VERTEX
  8
0
 10
9.75771
 20
12.3955
 30
0.0
 40
0.0104167
 41
0.0104167
  0
VERTEX
  8
0
 10
9.07553
 20
12.3955
 30
0.0
 40
0.0104167
 41
0.0104167
  0
SEQEND
 8
0
  0
POLYLINE
  8
0
 62
     7
 66
     1
 10
0
 20
0
 30
0.0
 70
     1
 40
0
 41
0
  0
VERTEX
  8
0
 10
9.07553
 20
12.9597
 30
0.0
 40
0
 41
0
  0
VERTEX
  8
0
 10
9.75771
 20
12.9597
 30
0.0
 40
0
 41
0
  0
VERTEX
  8
0
 10
9.75771
 20
12.3955
 30
0.0
 40
0
 41
0
  0
VERTEX
  8
0
 10
9.07553
 20
12.3955
 30
0.0
 40
0
 41
0
  0
VERTEX
  8
0
 10
9.07553
 20
12.9597
 30
0.0
 40
0
 41
0
  0
SEQEND
 8
0
  0
POLYLINE
  8
0
 62
     0
 66
     1
 10
0
 20
0
 30
0.0
 70
     1
 40
0.75
 41
0.75
  0
VERTEX
  8
0
 10
9.07553
 20
12.9597
 30
0.0
 40
0.0104167
 41
0.0104167
  0
VERTEX
  8
0
 10
9.07553
 20
12.3955
 30
0.0
 40
0.0104167
 41
0.0104167
  0
VERTEX
  8
0
 10
9.75771
 20
12.3955
 30
0.0
 40
0.0104167
 41
0.0104167
  0
VERTEX
  8
0
 10
9.75771
 20
12.9597
 30
0.0
 40
0.0104167
 41
0.0104167
  0
VERTEX
  8
0
 10
9.07553
 20
12.9597
 30
0.0
 40
0.0104167
 41
0.0104167
  0
SEQEND
 8
0
  0
POLYLINE
  8
0
 62
     7
 66
     1
 10
0
 20
0
 30
0.0
 70
     1
 40
0
 41
0
  0
VERTEX
  8
0
 10
9.06511
 20
4.13926
 30
0.0
 40
0
 41
0
  0
VERTEX
  8
0
 10
9.72825
 20
4.13926
 30
0.0
 40
0
 41
0
  0
VERTEX
  8
0
 10
9.72825
 20
3.02756
 30
0.0
 40
0
 41
0
  0
VERTEX
  8
0
 10
9.06511
 20
3.02756
 30
0.0
 40
0
 41
0
  0
VERTEX
  8
0
 10
9.06511
 20
4.13926
 30
0.0
 40
0
 41
0
  0
SEQEND
 8
0
  0
POLYLINE
  8
0
 62
     0
 66
     1
 10
0
 20
0
 30
0.0
 70
     1
 40
0.75
 41
0.75
  0
VERTEX
  8
0
 10
9.06511
 20
4.13926
 30
0.0
 40
0.0104167
 41
0.0104167
  0
VERTEX
  8
0
 10
9.06511
 20
3.02756
 30
0.0
 40
0.0104167
 41
0.0104167
  0
VERTEX
  8
0
 10
9.72825
 20
3.02756
 30
0.0
 40
0.0104167
 41
0.0104167
  0
VERTEX
  8
0
 10
9.72825
 20
4.13926
 30
0.0
 40
0.0104167
 41
0.0104167
  0
VERTEX
  8
0
 10
9.06511
 20
4.13926
 30
0.0
 40
0.0104167
 41
0.0104167
  0
SEQEND
 8
0
  0
POLYLINE
  8
0
 62
     7
 66
     1
 10
0
 20
0
 30
0.0
 70
     1
 40
0
 41
0
  0
VERTEX
  8
0
 10
9.06337
 20
3.02756
 30
0.0
 40
0
 41
0
  0
VERTEX
  8
0
 10
9.72889
 20
3.02756
 30
0.0
 40
0
 41
0
  0
VERTEX
  8
0
 10
9.72889
 20
1.95415
 30
0.0
 40
0
 41
0
  0
VERTEX
  8
0
 10
9.06337
 20
1.95415
 30
0.0
 40
0
 41
0
  0
VERTEX
  8
0
 10
9.06337
 20
3.02756
 30
0.0
 40
0
 41
0
  0
SEQEND
 8
0
  0
POLYLINE
  8
0
 62
     0
 66
     1
 10
0
 20
0
 30
0.0
 70
     1
 40
0.75
 41
0.75
  0
VERTEX
  8
0
 10
9.06337
 20
3.02756
 30
0.0
 40
0.0104167
 41
0.0104167
  0
VERTEX
  8
0
 10
9.06337
 20
1.95415
 30
0.0
 40
0.0104167
 41
0.0104167
  0
VERTEX
  8
0
 10
9.72889
 20
1.95415
 30
0.0
 40
0.0104167
 41
0.0104167
  0
VERTEX
  8
0
 10
9.72889
 20
3.02756
 30
0.0
 40
0.0104167
 41
0.0104167
  0
VERTEX
  8
0
 10
9.06337
 20
3.02756
 30
0.0
 40
0.0104167
 41
0.0104167
  0
SEQEND
 8
0
  0
POLYLINE
  8
0
 62
     253
 66
     1
 10
0
 20
0
 30
0.0
 40
0.75
 41
0.75
  0
VERTEX
  8
0
 10
9.39611
 20
1.95415
 30
0.0
 40
0.0104167
 41
0.0104167
  0
VERTEX
  8
0
 10
9.39611
 20
3.02756
 30
0.0
 40
0.0104167
 41
0.0104167
  0
SEQEND
 8
0
  0
POLYLINE
  8
0
 62
     7
 66
     1
 10
0
 20
0
 30
0.0
 70
     1
 40
0
 41
0
  0
VERTEX
  8
0
 10
9.06207
 20
1.95415
 30
0.0
 40
0
 41
0
  0
VERTEX
  8
0
 10
9.72999
 20
1.95415
 30
0.0
 40
0
 41
0
  0
VERTEX
  8
0
 10
9.72999
 20
1.28369
 30
0.0
 40
0
 41
0
  0
VERTEX
  8
0
 10
9.06207
 20
1.28369
 30
0.0
 40
0
 41
0
  0
VERTEX
  8
0
 10
9.06207
 20
1.95415
 30
0.0
 40
0
 41
0
  0
SEQEND
 8
0
  0
POLYLINE
  8
0
 62
     0
 66
     1
 10
0
 20
0
 30
0.0
 70
     1
 40
0.75
 41
0.75
  0
VERTEX
  8
0
 10
9.06207
 20
1.95415
 30
0.0
 40
0.0104167
 41
0.0104167
  0
VERTEX
  8
0
 10
9.06207
 20
1.28369
 30
0.0
 40
0.0104167
 41
0.0104167
  0
VERTEX
  8
0
 10
9.72999
 20
1.28369
 30
0.0
 40
0.0104167
 41
0.0104167
  0
VERTEX
  8
0
 10
9.72999
 20
1.95415
 30
0.0
 40
0.0104167
 41
0.0104167
  0
VERTEX
  8
0
 10
9.06207
 20
1.95415
 30
0.0
 40
0.0104167
 41
0.0104167
  0
SEQEND
 8
0
  0
POLYLINE
  8
0
 62
     253
 66
     1
 10
0
 20
0
 30
0.0
 40
0.75
 41
0.75
  0
VERTEX
  8
0
 10
9.396
 20
1.28369
 30
0.0
 40
0.0104167
 41
0.0104167
  0
VERTEX
  8
0
 10
9.396
 20
1.9541
 30
0.0
 40
0.0104167
 41
0.0104167
  0
SEQEND
 8
0
  0
POLYLINE
  8
0
 62
     7
 66
     1
 10
0
 20
0
 30
0.0
 70
     1
 40
0
 41
0
  0
VERTEX
  8
0
 10
9.07075
 20
8.0779
 30
0.0
 40
0
 41
0
  0
VERTEX
  8
0
 10
9.74983
 20
8.0779
 30
0.0
 40
0
 41
0
  0
VERTEX
  8
0
 10
9.74983
 20
7.18381
 30
0.0
 40
0
 41
0
  0
VERTEX
  8
0
 10
9.07075
 20
7.18381
 30
0.0
 40
0
 41
0
  0
VERTEX
  8
0
 10
9.07075
 20
8.0779
 30
0.0
 40
0
 41
0
  0
SEQEND
 8
0
  0
POLYLINE
  8
0
 62
     0
 66
     1
 10
0
 20
0
 30
0.0
 70
     1
 40
0.75
 41
0.75
  0
VERTEX
  8
0
 10
9.07075
 20
8.0779
 30
0.0
 40
0.0104167
 41
0.0104167
  0
VERTEX
  8
0
 10
9.07075
 20
7.18381
 30
0.0
 40
0.0104167
 41
0.0104167
  0
VERTEX
  8
0
 10
9.74983
 20
7.18381
 30
0.0
 40
0.0104167
 41
0.0104167
  0
VERTEX
  8
0
 10
9.74983
 20
8.0779
 30
0.0
 40
0.0104167
 41
0.0104167
  0
VERTEX
  8
0
 10
9.07075
 20
8.0779
 30
0.0
 40
0.0104167
 41
0.0104167
  0
SEQEND
 8
0
  0
POLYLINE
  8
0
 62
     7
 66
     1
 10
0
 20
0
 30
0.0
 70
     1
 40
0
 41
0
  0
VERTEX
  8
0
 10
4.05387
 20
7.98497
 30
0.0
 40
0
 41
0
  0
VERTEX
  8
0
 10
4.05322
 20
5.25082
 30
0.0
 40
0
 41
0
  0
VERTEX
  8
0
 10
1.59011
 20
5.25082
 30
0.0
 40
0
 41
0
  0
VERTEX
  8
0
 10
1.59011
 20
5.87657
 30
0.0
 40
0
 41
0
  0
VERTEX
  8
0
 10
3.01074
 20
5.87657
 30
0.0
 40
0
 41
0
  0
VERTEX
  8
0
 10
3.42492
 20
6.26232
 30
0.0
 40
0
 41
0
  0
VERTEX
  8
0
 10
3.42492
 20
7.98497
 30
0.0
 40
0
 41
0
  0
VERTEX
  8
0
 10
4.05387
 20
7.98497
 30
0.0
 40
0
 41
0
  0
SEQEND
 8
0
  0
POLYLINE
  8
0
 62
     0
 66
     1
 10
0
 20
0
 30
0.0
 70
     1
 40
0.75
 41
0.75
  0
VERTEX
  8
0
 10
4.05387
 20
7.98497
 30
0.0
 40
0.0104167
 41
0.0104167
  0
VERTEX
  8
0
 10
4.05322
 20
5.25082
 30
0.0
 40
0.0104167
 41
0.0104167
  0
VERTEX
  8
0
 10
1.59011
 20
5.25082
 30
0.0
 40
0.0104167
 41
0.0104167
  0
VERTEX
  8
0
 10
1.59011
 20
5.87657
 30
0.0
 40
0.0104167
 41
0.0104167
  0
VERTEX
  8
0
 10
3.01074
 20
5.87657
 30
0.0
 40
0.0104167
 41
0.0104167
  0
VERTEX
  8
0
 10
3.42492
 20
6.26232
 30
0.0
 40
0.0104167
 41
0.0104167
  0
VERTEX
  8
0
 10
3.42492
 20
7.98497
 30
0.0
 40
0.0104167
 41
0.0104167
  0
VERTEX
  8
0
 10
4.05387
 20
7.98497
 30
0.0
 40
0.0104167
 41
0.0104167
  0
SEQEND
 8
0
  0
POLYLINE
  8
0
 62
     7
 66
     1
 10
0
 20
0
 30
0.0
 70
     1
 40
0
 41
0
  0
VERTEX
  8
0
 10
3.85385
 20
5.82628
 30
0.0
 40
0
 41
0
  0
VERTEX
  8
0
 10
3.42719
 20
5.42844
 30
0.0
 40
0
 41
0
  0
VERTEX
  8
0
 10
3.0306
 20
5.85374
 30
0.0
 40
0
 41
0
  0
VERTEX
  8
0
 10
3.45725
 20
6.25157
 30
0.0
 40
0
 41
0
  0
VERTEX
  8
0
 10
3.85385
 20
5.82628
 30
0.0
 40
0
 41
0
  0
SEQEND
 8
0
  0
POLYLINE
  8
0
 62
     0
 66
     1
 10
0
 20
0
 30
0.0
 70
     1
 40
0.750026
 41
0.750026
  0
VERTEX
  8
0
 10
3.85385
 20
5.82628
 30
0.0
 40
0.010417
 41
0.010417
  0
VERTEX
  8
0
 10
3.42719
 20
5.42844
 30
0.0
 40
0.010417
 41
0.010417
  0
VERTEX
  8
0
 10
3.0306
 20
5.85374
 30
0.0
 40
0.010417
 41
0.010417
  0
VERTEX
  8
0
 10
3.45725
 20
6.25157
 30
0.0
 40
0.010417
 41
0.010417
  0
VERTEX
  8
0
 10
3.85385
 20
5.82628
 30
0.0
 40
0.010417
 41
0.010417
  0
SEQEND
 8
0
  0
POLYLINE
  8
0
 62
     7
 66
     1
 10
0
 20
0
 30
0.0
 70
     1
 40
0
 41
0
  0
VERTEX
  8
0
 10
3.58708
 20
5.77626
 30
0.0
 40
0
 41
0
  0
VERTEX
  8
0
 10
3.58154
 20
5.78222
 30
0.0
 40
0
 41
0
  0
VERTEX
  8
0
 10
3.56972
 20
5.80447
 30
0.0
 40
0
 41
0
  0
VERTEX
  8
0
 10
3.56472
 20
5.83604
 30
0.0
 40
0
 41
0
  0
VERTEX
  8
0
 10
3.57194
 20
5.86719
 30
0.0
 40
0
 41
0
  0
VERTEX
  8
0
 10
3.58529
 20
5.88857
 30
0.0
 40
0
 41
0
  0
VERTEX
  8
0
 10
3.59119
 20
5.89404
 30
0.0
 40
0
 41
0
  0
VERTEX
  8
0
 10
3.59711
 20
5.89958
 30
0.0
 40
0
 41
0
  0
VERTEX
  8
0
 10
3.61936
 20
5.9114
 30
0.0
 40
0
 41
0
  0
VERTEX
  8
0
 10
3.65093
 20
5.91639
 30
0.0
 40
0
 41
0
  0
VERTEX
  8
0
 10
3.68207
 20
5.90924
 30
0.0
 40
0
 41
0
  0
VERTEX
  8
0
 10
3.70344
 20
5.89589
 30
0.0
 40
0
 41
0
  0
VERTEX
  8
0
 10
3.70899
 20
5.88992
 30
0.0
 40
0
 41
0
  0
VERTEX
  8
0
 10
3.71446
 20
5.884
 30
0.0
 40
0
 41
0
  0
VERTEX
  8
0
 10
3.72629
 20
5.86176
 30
0.0
 40
0
 41
0
  0
VERTEX
  8
0
 10
3.73133
 20
5.83024
 30
0.0
 40
0
 41
0
  0
VERTEX
  8
0
 10
3.72412
 20
5.7991
 30
0.0
 40
0
 41
0
  0
VERTEX
  8
0
 10
3.71078
 20
5.77767
 30
0.0
 40
0
 41
0
  0
VERTEX
  8
0
 10
3.70486
 20
5.77214
 30
0.0
 40
0
 41
0
  0
VERTEX
  8
0
 10
3.69889
 20
5.76665
 30
0.0
 40
0
 41
0
  0
VERTEX
  8
0
 10
3.67665
 20
5.75483
 30
0.0
 40
0
 41
0
  0
VERTEX
  8
0
 10
3.64513
 20
5.74983
 30
0.0
 40
0
 41
0
  0
VERTEX
  8
0
 10
3.61399
 20
5.75706
 30
0.0
 40
0
 41
0
  0
VERTEX
  8
0
 10
3.59256
 20
5.77035
 30
0.0
 40
0
 41
0
  0
VERTEX
  8
0
 10
3.58708
 20
5.77626
 30
0.0
 40
0
 41
0
  0
SEQEND
 8
0
  0
POLYLINE
  8
0
 62
     0
 66
     1
 10
0
 20
0
 30
0.0
 70
     1
 40
0.750026
 41
0.750026
  0
VERTEX
  8
0
 10
3.58708
 20
5.77626
 30
0.0
 40
0.010417
 41
0.010417
  0
VERTEX
  8
0
 10
3.58154
 20
5.78222
 30
0.0
 40
0.010417
 41
0.010417
  0
VERTEX
  8
0
 10
3.56972
 20
5.80447
 30
0.0
 40
0.010417
 41
0.010417
  0
VERTEX
  8
0
 10
3.56472
 20
5.83604
 30
0.0
 40
0.010417
 41
0.010417
  0
VERTEX
  8
0
 10
3.57194
 20
5.86719
 30
0.0
 40
0.010417
 41
0.010417
  0
VERTEX
  8
0
 10
3.58529
 20
5.88857
 30
0.0
 40
0.010417
 41
0.010417
  0
VERTEX
  8
0
 10
3.59119
 20
5.89404
 30
0.0
 40
0.010417
 41
0.010417
  0
VERTEX
  8
0
 10
3.59711
 20
5.89958
 30
0.0
 40
0.010417
 41
0.010417
  0
VERTEX
  8
0
 10
3.61936
 20
5.9114
 30
0.0
 40
0.010417
 41
0.010417
  0
VERTEX
  8
0
 10
3.65093
 20
5.91639
 30
0.0
 40
0.010417
 41
0.010417
  0
VERTEX
  8
0
 10
3.68207
 20
5.90924
 30
0.0
 40
0.010417
 41
0.010417
  0
VERTEX
  8
0
 10
3.70344
 20
5.89589
 30
0.0
 40
0.010417
 41
0.010417
  0
VERTEX
  8
0
 10
3.70899
 20
5.88992
 30
0.0
 40
0.010417
 41
0.010417
  0
VERTEX
  8
0
 10
3.71446
 20
5.884
 30
0.0
 40
0.010417
 41
0.010417
  0
VERTEX
  8
0
 10
3.72629
 20
5.86176
 30
0.0
 40
0.010417
 41
0.010417
  0
VERTEX
  8
0
 10
3.73133
 20
5.83024
 30
0.0
 40
0.010417
 41
0.010417
  0
VERTEX
  8
0
 10
3.72412
 20
5.7991
 30
0.0
 40
0.010417
 41
0.010417
  0
VERTEX
  8
0
 10
3.71078
 20
5.77767
 30
0.0
 40
0.010417
 41
0.010417
  0
VERTEX
  8
0
 10
3.70486
 20
5.77214
 30
0.0
 40
0.010417
 41
0.010417
  0
VERTEX
  8
0
 10
3.69889
 20
5.76665
 30
0.0
 40
0.010417
 41
0.010417
  0
VERTEX
  8
0
 10
3.67665
 20
5.75483
 30
0.0
 40
0.010417
 41
0.010417
  0
VERTEX
  8
0
 10
3.64513
 20
5.74983
 30
0.0
 40
0.010417
 41
0.010417
  0
VERTEX
  8
0
 10
3.61399
 20
5.75706
 30
0.0
 40
0.010417
 41
0.010417
  0
VERTEX
  8
0
 10
3.59256
 20
5.77035
 30
0.0
 40
0.010417
 41
0.010417
  0
VERTEX
  8
0
 10
3.58708
 20
5.77626
 30
0.0
 40
0.010417
 41
0.010417
  0
SEQEND
 8
0
  0
POLYLINE
  8
0
 62
     7
 66
     1
 10
0
 20
0
 30
0.0
 70
     1
 40
0
 41
0
  0
VERTEX
  8
0
 10
3.37375
 20
5.57736
 30
0.0
 40
0
 41
0
  0
VERTEX
  8
0
 10
3.36822
 20
5.58333
 30
0.0
 40
0
 41
0
  0
VERTEX
  8
0
 10
3.35639
 20
5.60558
 30
0.0
 40
0
 41
0
  0
VERTEX
  8
0
 10
3.3514
 20
5.6371
 30
0.0
 40
0
 41
0
  0
VERTEX
  8
0
 10
3.35861
 20
5.66824
 30
0.0
 40
0
 41
0
  0
VERTEX
  8
0
 10
3.3719
 20
5.68961
 30
0.0
 40
0
 41
0
  0
VERTEX
  8
0
 10
3.37788
 20
5.69515
 30
0.0
 40
0
 41
0
  0
VERTEX
  8
0
 10
3.38379
 20
5.70068
 30
0.0
 40
0
 41
0
  0
VERTEX
  8
0
 10
3.40603
 20
5.71251
 30
0.0
 40
0
 41
0
  0
VERTEX
  8
0
 10
3.43761
 20
5.7175
 30
0.0
 40
0
 41
0
  0
VERTEX
  8
0
 10
3.46875
 20
5.71029
 30
0.0
 40
0
 41
0
  0
VERTEX
  8
0
 10
3.49013
 20
5.697
 30
0.0
 40
0
 41
0
  0
VERTEX
  8
0
 10
3.49567
 20
5.69103
 30
0.0
 40
0
 41
0
  0
VERTEX
  8
0
 10
3.50114
 20
5.68511
 30
0.0
 40
0
 41
0
  0
VERTEX
  8
0
 10
3.51297
 20
5.66287
 30
0.0
 40
0
 41
0
  0
VERTEX
  8
0
 10
3.51801
 20
5.63129
 30
0.0
 40
0
 41
0
  0
VERTEX
  8
0
 10
3.51079
 20
5.60015
 30
0.0
 40
0
 41
0
  0
VERTEX
  8
0
 10
3.49744
 20
5.57878
 30
0.0
 40
0
 41
0
  0
VERTEX
  8
0
 10
3.49154
 20
5.57324
 30
0.0
 40
0
 41
0
  0
VERTEX
  8
0
 10
3.48562
 20
5.56776
 30
0.0
 40
0
 41
0
  0
VERTEX
  8
0
 10
3.46332
 20
5.55593
 30
0.0
 40
0
 41
0
  0
VERTEX
  8
0
 10
3.43181
 20
5.55089
 30
0.0
 40
0
 41
0
  0
VERTEX
  8
0
 10
3.40067
 20
5.55811
 30
0.0
 40
0
 41
0
  0
VERTEX
  8
0
 10
3.37924
 20
5.57146
 30
0.0
 40
0
 41
0
  0
VERTEX
  8
0
 10
3.37375
 20
5.57736
 30
0.0
 40
0
 41
0
  0
SEQEND
 8
0
  0
POLYLINE
  8
0
 62
     0
 66
     1
 10
0
 20
0
 30
0.0
 70
     1
 40
0.750026
 41
0.750026
  0
VERTEX
  8
0
 10
3.37375
 20
5.57736
 30
0.0
 40
0.010417
 41
0.010417
  0
VERTEX
  8
0
 10
3.36822
 20
5.58333
 30
0.0
 40
0.010417
 41
0.010417
  0
VERTEX
  8
0
 10
3.35639
 20
5.60558
 30
0.0
 40
0.010417
 41
0.010417
  0
VERTEX
  8
0
 10
3.3514
 20
5.6371
 30
0.0
 40
0.010417
 41
0.010417
  0
VERTEX
  8
0
 10
3.35861
 20
5.66824
 30
0.0
 40
0.010417
 41
0.010417
  0
VERTEX
  8
0
 10
3.3719
 20
5.68961
 30
0.0
 40
0.010417
 41
0.010417
  0
VERTEX
  8
0
 10
3.37788
 20
5.69515
 30
0.0
 40
0.010417
 41
0.010417
  0
VERTEX
  8
0
 10
3.38379
 20
5.70068
 30
0.0
 40
0.010417
 41
0.010417
  0
VERTEX
  8
0
 10
3.40603
 20
5.71251
 30
0.0
 40
0.010417
 41
0.010417
  0
VERTEX
  8
0
 10
3.43761
 20
5.7175
 30
0.0
 40
0.010417
 41
0.010417
  0
VERTEX
  8
0
 10
3.46875
 20
5.71029
 30
0.0
 40
0.010417
 41
0.010417
  0
VERTEX
  8
0
 10
3.49013
 20
5.697
 30
0.0
 40
0.010417
 41
0.010417
  0
VERTEX
  8
0
 10
3.49565
 20
5.69103
 30
0.0
 40
0.010417
 41
0.010417
  0
VERTEX
  8
0
 10
3.50114
 20
5.68511
 30
0.0
 40
0.010417
 41
0.010417
  0
VERTEX
  8
0
 10
3.51297
 20
5.66287
 30
0.0
 40
0.010417
 41
0.010417
  0
VERTEX
  8
0
 10
3.51801
 20
5.63129
 30
0.0
 40
0.010417
 41
0.010417
  0
VERTEX
  8
0
 10
3.51079
 20
5.60015
 30
0.0
 40
0.010417
 41
0.010417
  0
VERTEX
  8
0
 10
3.49744
 20
5.57878
 30
0.0
 40
0.010417
 41
0.010417
  0
VERTEX
  8
0
 10
3.49154
 20
5.57324
 30
0.0
 40
0.010417
 41
0.010417
  0
VERTEX
  8
0
 10
3.48562
 20
5.56776
 30
0.0
 40
0.010417
 41
0.010417
  0
VERTEX
  8
0
 10
3.46332
 20
5.55593
 30
0.0
 40
0.010417
 41
0.010417
  0
VERTEX
  8
0
 10
3.43181
 20
5.55089
 30
0.0
 40
0.010417
 41
0.010417
  0
VERTEX
  8
0
 10
3.40067
 20
5.55811
 30
0.0
 40
0.010417
 41
0.010417
  0
VERTEX
  8
0
 10
3.37924
 20
5.57146
 30
0.0
 40
0.010417
 41
0.010417
  0
VERTEX
  8
0
 10
3.37375
 20
5.57736
 30
0.0
 40
0.010417
 41
0.010417
  0
SEQEND
 8
0
  0
POLYLINE
  8
0
 62
     7
 66
     1
 10
0
 20
0
 30
0.0
 70
     1
 40
0
 41
0
  0
VERTEX
  8
0
 10
3.38878
 20
5.98893
 30
0.0
 40
0
 41
0
  0
VERTEX
  8
0
 10
3.38325
 20
5.9949
 30
0.0
 40
0
 41
0
  0
VERTEX
  8
0
 10
3.37142
 20
6.01714
 30
0.0
 40
0
 41
0
  0
VERTEX
  8
0
 10
3.36643
 20
6.04872
 30
0.0
 40
0
 41
0
  0
VERTEX
  8
0
 10
3.37358
 20
6.07986
 30
0.0
 40
0
 41
0
  0
VERTEX
  8
0
 10
3.38693
 20
6.10124
 30
0.0
 40
0
 41
0
  0
VERTEX
  8
0
 10
3.3929
 20
6.10672
 30
0.0
 40
0
 41
0
  0
VERTEX
  8
0
 10
3.39882
 20
6.11225
 30
0.0
 40
0
 41
0
  0
VERTEX
  8
0
 10
3.42106
 20
6.12408
 30
0.0
 40
0
 41
0
  0
VERTEX
  8
0
 10
3.45258
 20
6.12907
 30
0.0
 40
0
 41
0
  0
VERTEX
  8
0
 10
3.48372
 20
6.1219
 30
0.0
 40
0
 41
0
  0
VERTEX
  8
0
 10
3.50515
 20
6.10856
 30
0.0
 40
0
 41
0
  0
VERTEX
  8
0
 10
3.51069
 20
6.1026
 30
0.0
 40
0
 41
0
  0
VERTEX
  8
0
 10
3.51617
 20
6.09668
 30
0.0
 40
0
 41
0
  0
VERTEX
  8
0
 10
3.528
 20
6.07443
 30
0.0
 40
0
 41
0
  0
VERTEX
  8
0
 10
3.53299
 20
6.04292
 30
0.0
 40
0
 41
0
  0
VERTEX
  8
0
 10
3.52582
 20
6.01178
 30
0.0
 40
0
 41
0
  0
VERTEX
  8
0
 10
3.51247
 20
5.99035
 30
0.0
 40
0
 41
0
  0
VERTEX
  8
0
 10
3.50657
 20
5.98481
 30
0.0
 40
0
 41
0
  0
VERTEX
  8
0
 10
3.5006
 20
5.97933
 30
0.0
 40
0
 41
0
  0
VERTEX
  8
0
 10
3.47835
 20
5.9675
 30
0.0
 40
0
 41
0
  0
VERTEX
  8
0
 10
3.44683
 20
5.96251
 30
0.0
 40
0
 41
0
  0
VERTEX
  8
0
 10
3.41569
 20
5.96972
 30
0.0
 40
0
 41
0
  0
VERTEX
  8
0
 10
3.39426
 20
5.98301
 30
0.0
 40
0
 41
0
  0
VERTEX
  8
0
 10
3.38878
 20
5.98893
 30
0.0
 40
0
 41
0
  0
SEQEND
 8
0
  0
POLYLINE
  8
0
 62
     0
 66
     1
 10
0
 20
0
 30
0.0
 70
     1
 40
0.750026
 41
0.750026
  0
VERTEX
  8
0
 10
3.38878
 20
5.98893
 30
0.0
 40
0.010417
 41
0.010417
  0
VERTEX
  8
0
 10
3.38325
 20
5.9949
 30
0.0
 40
0.010417
 41
0.010417
  0
VERTEX
  8
0
 10
3.37142
 20
6.01714
 30
0.0
 40
0.010417
 41
0.010417
  0
VERTEX
  8
0
 10
3.36643
 20
6.04872
 30
0.0
 40
0.010417
 41
0.010417
  0
VERTEX
  8
0
 10
3.37358
 20
6.07986
 30
0.0
 40
0.010417
 41
0.010417
  0
VERTEX
  8
0
 10
3.38693
 20
6.10124
 30
0.0
 40
0.010417
 41
0.010417
  0
VERTEX
  8
0
 10
3.3929
 20
6.10672
 30
0.0
 40
0.010417
 41
0.010417
  0
VERTEX
  8
0
 10
3.39882
 20
6.11225
 30
0.0
 40
0.010417
 41
0.010417
  0
VERTEX
  8
0
 10
3.42106
 20
6.12408
 30
0.0
 40
0.010417
 41
0.010417
  0
VERTEX
  8
0
 10
3.45258
 20
6.12907
 30
0.0
 40
0.010417
 41
0.010417
  0
VERTEX
  8
0
 10
3.48372
 20
6.1219
 30
0.0
 40
0.010417
 41
0.010417
  0
VERTEX
  8
0
 10
3.50515
 20
6.10856
 30
0.0
 40
0.010417
 41
0.010417
  0
VERTEX
  8
0
 10
3.51069
 20
6.1026
 30
0.0
 40
0.010417
 41
0.010417
  0
VERTEX
  8
0
 10
3.51617
 20
6.09668
 30
0.0
 40
0.010417
 41
0.010417
  0
VERTEX
  8
0
 10
3.528
 20
6.07443
 30
0.0
 40
0.010417
 41
0.010417
  0
VERTEX
  8
0
 10
3.53299
 20
6.04292
 30
0.0
 40
0.010417
 41
0.010417
  0
VERTEX
  8
0
 10
3.52582
 20
6.01178
 30
0.0
 40
0.010417
 41
0.010417
  0
VERTEX
  8
0
 10
3.51247
 20
5.99035
 30
0.0
 40
0.010417
 41
0.010417
  0
VERTEX
  8
0
 10
3.50657
 20
5.98481
 30
0.0
 40
0.010417
 41
0.010417
  0
VERTEX
  8
0
 10
3.5006
 20
5.97933
 30
0.0
 40
0.010417
 41
0.010417
  0
VERTEX
  8
0
 10
3.47835
 20
5.9675
 30
0.0
 40
0.010417
 41
0.010417
  0
VERTEX
  8
0
 10
3.44683
 20
5.96251
 30
0.0
 40
0.010417
 41
0.010417
  0
VERTEX
  8
0
 10
3.41569
 20
5.96972
 30
0.0
 40
0.010417
 41
0.010417
  0
VERTEX
  8
0
 10
3.39426
 20
5.98301
 30
0.0
 40
0.010417
 41
0.010417
  0
VERTEX
  8
0
 10
3.38878
 20
5.98893
 30
0.0
 40
0.010417
 41
0.010417
  0
SEQEND
 8
0
  0
POLYLINE
  8
0
 62
     7
 66
     1
 10
0
 20
0
 30
0.0
 70
     1
 40
0
 41
0
  0
VERTEX
  8
0
 10
3.17546
 20
5.79004
 30
0.0
 40
0
 41
0
  0
VERTEX
  8
0
 10
3.16992
 20
5.79601
 30
0.0
 40
0
 41
0
  0
VERTEX
  8
0
 10
3.1581
 20
5.81825
 30
0.0
 40
0
 41
0
  0
VERTEX
  8
0
 10
3.1531
 20
5.84978
 30
0.0
 40
0
 41
0
  0
VERTEX
  8
0
 10
3.16026
 20
5.88092
 30
0.0
 40
0
 41
0
  0
VERTEX
  8
0
 10
3.17361
 20
5.90229
 30
0.0
 40
0
 41
0
  0
VERTEX
  8
0
 10
3.17958
 20
5.90782
 30
0.0
 40
0
 41
0
  0
VERTEX
  8
0
 10
3.18549
 20
5.91336
 30
0.0
 40
0
 41
0
  0
VERTEX
  8
0
 10
3.20774
 20
5.92518
 30
0.0
 40
0
 41
0
  0
VERTEX
  8
0
 10
3.23926
 20
5.93018
 30
0.0
 40
0
 41
0
  0
VERTEX
  8
0
 10
3.2704
 20
5.92296
 30
0.0
 40
0
 41
0
  0
VERTEX
  8
0
 10
3.29183
 20
5.90967
 30
0.0
 40
0
 41
0
  0
VERTEX
  8
0
 10
3.29736
 20
5.90369
 30
0.0
 40
0
 41
0
  0
VERTEX
  8
0
 10
3.30285
 20
5.89779
 30
0.0
 40
0
 41
0
  0
VERTEX
  8
0
 10
3.31467
 20
5.87554
 30
0.0
 40
0
 41
0
  0
VERTEX
  8
0
 10
3.31967
 20
5.84397
 30
0.0
 40
0
 41
0
  0
VERTEX
  8
0
 10
3.31244
 20
5.81282
 30
0.0
 40
0
 41
0
  0
VERTEX
  8
0
 10
3.29915
 20
5.79144
 30
0.0
 40
0
 41
0
  0
VERTEX
  8
0
 10
3.29324
 20
5.78592
 30
0.0
 40
0
 41
0
  0
VERTEX
  8
0
 10
3.28733
 20
5.78043
 30
0.0
 40
0
 41
0
  0
VERTEX
  8
0
 10
3.26503
 20
5.76861
 30
0.0
 40
0
 41
0
  0
VERTEX
  8
0
 10
3.23351
 20
5.76357
 30
0.0
 40
0
 41
0
  0
VERTEX
  8
0
 10
3.20236
 20
5.77078
 30
0.0
 40
0
 41
0
  0
VERTEX
  8
0
 10
3.18093
 20
5.78413
 30
0.0
 40
0
 41
0
  0
VERTEX
  8
0
 10
3.17546
 20
5.79004
 30
0.0
 40
0
 41
0
  0
SEQEND
 8
0
  0
POLYLINE
  8
0
 62
     0
 66
     1
 10
0
 20
0
 30
0.0
 70
     1
 40
0.750026
 41
0.750026
  0
VERTEX
  8
0
 10
3.17546
 20
5.79004
 30
0.0
 40
0.010417
 41
0.010417
  0
VERTEX
  8
0
 10
3.16992
 20
5.79601
 30
0.0
 40
0.010417
 41
0.010417
  0
VERTEX
  8
0
 10
3.1581
 20
5.81825
 30
0.0
 40
0.010417
 41
0.010417
  0
VERTEX
  8
0
 10
3.1531
 20
5.84978
 30
0.0
 40
0.010417
 41
0.010417
  0
VERTEX
  8
0
 10
3.16026
 20
5.88092
 30
0.0
 40
0.010417
 41
0.010417
  0
VERTEX
  8
0
 10
3.17361
 20
5.90229
 30
0.0
 40
0.010417
 41
0.010417
  0
VERTEX
  8
0
 10
3.17958
 20
5.90782
 30
0.0
 40
0.010417
 41
0.010417
  0
VERTEX
  8
0
 10
3.18549
 20
5.91336
 30
0.0
 40
0.010417
 41
0.010417
  0
VERTEX
  8
0
 10
3.20774
 20
5.92518
 30
0.0
 40
0.010417
 41
0.010417
  0
VERTEX
  8
0
 10
3.23926
 20
5.93018
 30
0.0
 40
0.010417
 41
0.010417
  0
VERTEX
  8
0
 10
3.2704
 20
5.92296
 30
0.0
 40
0.010417
 41
0.010417
  0
VERTEX
  8
0
 10
3.29183
 20
5.90967
 30
0.0
 40
0.010417
 41
0.010417
  0
VERTEX
  8
0
 10
3.29736
 20
5.90369
 30
0.0
 40
0.010417
 41
0.010417
  0
VERTEX
  8
0
 10
3.30285
 20
5.89779
 30
0.0
 40
0.010417
 41
0.010417
  0
VERTEX
  8
0
 10
3.31467
 20
5.87554
 30
0.0
 40
0.010417
 41
0.010417
  0
VERTEX
  8
0
 10
3.31967
 20
5.84397
 30
0.0
 40
0.010417
 41
0.010417
  0
VERTEX
  8
0
 10
3.31244
 20
5.81282
 30
0.0
 40
0.010417
 41
0.010417
  0
VERTEX
  8
0
 10
3.29915
 20
5.79144
 30
0.0
 40
0.010417
 41
0.010417
  0
VERTEX
  8
0
 10
3.29324
 20
5.78592
 30
0.0
 40
0.010417
 41
0.010417
  0
VERTEX
  8
0
 10
3.28733
 20
5.78043
 30
0.0
 40
0.010417
 41
0.010417
  0
VERTEX
  8
0
 10
3.26503
 20
5.76861
 30
0.0
 40
0.010417
 41
0.010417
  0
VERTEX
  8
0
 10
3.23351
 20
5.76357
 30
0.0
 40
0.010417
 41
0.010417
  0
VERTEX
  8
0
 10
3.20236
 20
5.77078
 30
0.0
 40
0.010417
 41
0.010417
  0
VERTEX
  8
0
 10
3.18093
 20
5.78413
 30
0.0
 40
0.010417
 41
0.010417
  0
VERTEX
  8
0
 10
3.17546
 20
5.79004
 30
0.0
 40
0.010417
 41
0.010417
  0
SEQEND
 8
0
  0
POLYLINE
  8
0
 62
     7
 66
     1
 10
0
 20
0
 30
0.0
 70
     1
 40
0
 41
0
  0
VERTEX
  8
0
 10
3.56515
 20
7.08192
 30
0.0
 40
0
 41
0
  0
VERTEX
  8
0
 10
4.0339
 20
7.08192
 30
0.0
 40
0
 41
0
  0
VERTEX
  8
0
 10
4.0339
 20
6.72179
 30
0.0
 40
0
 41
0
  0
VERTEX
  8
0
 10
3.56515
 20
6.72179
 30
0.0
 40
0
 41
0
  0
VERTEX
  8
0
 10
3.56515
 20
7.08192
 30
0.0
 40
0
 41
0
  0
SEQEND
 8
0
  0
POLYLINE
  8
0
 62
     0
 66
     1
 10
0
 20
0
 30
0.0
 70
     1
 40
0.75
 41
0.75
  0
VERTEX
  8
0
 10
3.56515
 20
7.08192
 30
0.0
 40
0.0104167
 41
0.0104167
  0
VERTEX
  8
0
 10
3.56515
 20
6.72179
 30
0.0
 40
0.0104167
 41
0.0104167
  0
VERTEX
  8
0
 10
4.0339
 20
6.72179
 30
0.0
 40
0.0104167
 41
0.0104167
  0
VERTEX
  8
0
 10
4.0339
 20
7.08192
 30
0.0
 40
0.0104167
 41
0.0104167
  0
VERTEX
  8
0
 10
3.56515
 20
7.08192
 30
0.0
 40
0.0104167
 41
0.0104167
  0
SEQEND
 8
0
  0
POLYLINE
  8
0
 62
     7
 66
     1
 10
0
 20
0
 30
0.0
 70
     1
 40
0
 41
0
  0
VERTEX
  8
0
 10
3.56413
 20
6.68386
 30
0.0
 40
0
 41
0
  0
VERTEX
  8
0
 10
4.03288
 20
6.68386
 30
0.0
 40
0
 41
0
  0
VERTEX
  8
0
 10
4.03288
 20
6.32379
 30
0.0
 40
0
 41
0
  0
VERTEX
  8
0
 10
3.56413
 20
6.32379
 30
0.0
 40
0
 41
0
  0
VERTEX
  8
0
 10
3.56413
 20
6.68386
 30
0.0
 40
0
 41
0
  0
SEQEND
 8
0
  0
POLYLINE
  8
0
 62
     0
 66
     1
 10
0
 20
0
 30
0.0
 70
     1
 40
0.75
 41
0.75
  0
VERTEX
  8
0
 10
3.56413
 20
6.68386
 30
0.0
 40
0.0104167
 41
0.0104167
  0
VERTEX
  8
0
 10
3.56413
 20
6.32379
 30
0.0
 40
0.0104167
 41
0.0104167
  0
VERTEX
  8
0
 10
4.03288
 20
6.32379
 30
0.0
 40
0.0104167
 41
0.0104167
  0
VERTEX
  8
0
 10
4.03288
 20
6.68386
 30
0.0
 40
0.0104167
 41
0.0104167
  0
VERTEX
  8
0
 10
3.56413
 20
6.68386
 30
0.0
 40
0.0104167
 41
0.0104167
  0
SEQEND
 8
0
  0
POLYLINE
  8
0
 62
     7
 66
     1
 10
0
 20
0
 30
0.0
 70
     1
 40
0
 41
0
  0
VERTEX
  8
0
 10
3.7985
 20
6.85965
 30
0.0
 40
0
 41
0
  0
VERTEX
  8
0
 10
3.79204
 20
6.85965
 30
0.0
 40
0
 41
0
  0
VERTEX
  8
0
 10
3.77268
 20
6.87033
 30
0.0
 40
0
 41
0
  0
VERTEX
  8
0
 10
3.76204
 20
6.88971
 30
0.0
 40
0
 41
0
  0
VERTEX
  8
0
 10
3.76204
 20
6.89611
 30
0.0
 40
0
 41
0
  0
VERTEX
  8
0
 10
3.76204
 20
6.90256
 30
0.0
 40
0
 41
0
  0
VERTEX
  8
0
 10
3.77268
 20
6.92193
 30
0.0
 40
0
 41
0
  0
VERTEX
  8
0
 10
3.79204
 20
6.93257
 30
0.0
 40
0
 41
0
  0
VERTEX
  8
0
 10
3.7985
 20
6.93257
 30
0.0
 40
0
 41
0
  0
VERTEX
  8
0
 10
3.8049
 20
6.93257
 30
0.0
 40
0
 41
0
  0
VERTEX
  8
0
 10
3.82428
 20
6.92193
 30
0.0
 40
0
 41
0
  0
VERTEX
  8
0
 10
3.83496
 20
6.90256
 30
0.0
 40
0
 41
0
  0
VERTEX
  8
0
 10
3.83496
 20
6.89611
 30
0.0
 40
0
 41
0
  0
VERTEX
  8
0
 10
3.83496
 20
6.88971
 30
0.0
 40
0
 41
0
  0
VERTEX
  8
0
 10
3.82428
 20
6.87033
 30
0.0
 40
0
 41
0
  0
VERTEX
  8
0
 10
3.8049
 20
6.85965
 30
0.0
 40
0
 41
0
  0
VERTEX
  8
0
 10
3.7985
 20
6.85965
 30
0.0
 40
0
 41
0
  0
SEQEND
 8
0
  0
POLYLINE
  8
0
 62
     0
 66
     1
 10
0
 20
0
 30
0.0
 70
     1
 40
0.6
 41
0.6
  0
VERTEX
  8
0
 10
3.7985
 20
6.85965
 30
0.0
 40
0.00833333
 41
0.00833333
  0
VERTEX
  8
0
 10
3.79204
 20
6.85965
 30
0.0
 40
0.00833333
 41
0.00833333
  0
VERTEX
  8
0
 10
3.77268
 20
6.87033
 30
0.0
 40
0.00833333
 41
0.00833333
  0
VERTEX
  8
0
 10
3.76204
 20
6.88971
 30
0.0
 40
0.00833333
 41
0.00833333
  0
VERTEX
  8
0
 10
3.76204
 20
6.89611
 30
0.0
 40
0.00833333
 41
0.00833333
  0
VERTEX
  8
0
 10
3.76204
 20
6.90256
 30
0.0
 40
0.00833333
 41
0.00833333
  0
VERTEX
  8
0
 10
3.77268
 20
6.92193
 30
0.0
 40
0.00833333
 41
0.00833333
  0
VERTEX
  8
0
 10
3.79204
 20
6.93257
 30
0.0
 40
0.00833333
 41
0.00833333
  0
VERTEX
  8
0
 10
3.7985
 20
6.93257
 30
0.0
 40
0.00833333
 41
0.00833333
  0
VERTEX
  8
0
 10
3.8049
 20
6.93257
 30
0.0
 40
0.00833333
 41
0.00833333
  0
VERTEX
  8
0
 10
3.82428
 20
6.92193
 30
0.0
 40
0.00833333
 41
0.00833333
  0
VERTEX
  8
0
 10
3.83496
 20
6.90256
 30
0.0
 40
0.00833333
 41
0.00833333
  0
VERTEX
  8
0
 10
3.83496
 20
6.89611
 30
0.0
 40
0.00833333
 41
0.00833333
  0
VERTEX
  8
0
 10
3.83496
 20
6.88971
 30
0.0
 40
0.00833333
 41
0.00833333
  0
VERTEX
  8
0
 10
3.82428
 20
6.87033
 30
0.0
 40
0.00833333
 41
0.00833333
  0
VERTEX
  8
0
 10
3.8049
 20
6.85965
 30
0.0
 40
0.00833333
 41
0.00833333
  0
VERTEX
  8
0
 10
3.7985
 20
6.85965
 30
0.0
 40
0.00833333
 41
0.00833333
  0
SEQEND
 8
0
  0
POLYLINE
  8
0
 62
     7
 66
     1
 10
0
 20
0
 30
0.0
 70
     1
 40
0
 41
0
  0
VERTEX
  8
0
 10
3.7985
 20
6.47433
 30
0.0
 40
0
 41
0
  0
VERTEX
  8
0
 10
3.79204
 20
6.47433
 30
0.0
 40
0
 41
0
  0
VERTEX
  8
0
 10
3.77268
 20
6.48503
 30
0.0
 40
0
 41
0
  0
VERTEX
  8
0
 10
3.76204
 20
6.50439
 30
0.0
 40
0
 41
0
  0
VERTEX
  8
0
 10
3.76204
 20
6.51079
 30
0.0
 40
0
 41
0
  0
VERTEX
  8
0
 10
3.76204
 20
6.51725
 30
0.0
 40
0
 41
0
  0
VERTEX
  8
0
 10
3.77268
 20
6.53662
 30
0.0
 40
0
 41
0
  0
VERTEX
  8
0
 10
3.79204
 20
6.54725
 30
0.0
 40
0
 41
0
  0
VERTEX
  8
0
 10
3.7985
 20
6.54725
 30
0.0
 40
0
 41
0
  0
VERTEX
  8
0
 10
3.8049
 20
6.54725
 30
0.0
 40
0
 41
0
  0
VERTEX
  8
0
 10
3.82428
 20
6.53662
 30
0.0
 40
0
 41
0
  0
VERTEX
  8
0
 10
3.83496
 20
6.51725
 30
0.0
 40
0
 41
0
  0
VERTEX
  8
0
 10
3.83496
 20
6.51079
 30
0.0
 40
0
 41
0
  0
VERTEX
  8
0
 10
3.83496
 20
6.50439
 30
0.0
 40
0
 41
0
  0
VERTEX
  8
0
 10
3.82428
 20
6.48503
 30
0.0
 40
0
 41
0
  0
VERTEX
  8
0
 10
3.8049
 20
6.47433
 30
0.0
 40
0
 41
0
  0
VERTEX
  8
0
 10
3.7985
 20
6.47433
 30
0.0
 40
0
 41
0
  0
SEQEND
 8
0
  0
POLYLINE
  8
0
 62
     0
 66
     1
 10
0
 20
0
 30
0.0
 70
     1
 40
0.6
 41
0.6
  0
VERTEX
  8
0
 10
3.7985
 20
6.47433
 30
0.0
 40
0.00833333
 41
0.00833333
  0
VERTEX
  8
0
 10
3.79204
 20
6.47433
 30
0.0
 40
0.00833333
 41
0.00833333
  0
VERTEX
  8
0
 10
3.77268
 20
6.48503
 30
0.0
 40
0.00833333
 41
0.00833333
  0
VERTEX
  8
0
 10
3.76204
 20
6.50439
 30
0.0
 40
0.00833333
 41
0.00833333
  0
VERTEX
  8
0
 10
3.76204
 20
6.51079
 30
0.0
 40
0.00833333
 41
0.00833333
  0
VERTEX
  8
0
 10
3.76204
 20
6.51725
 30
0.0
 40
0.00833333
 41
0.00833333
  0
VERTEX
  8
0
 10
3.77268
 20
6.53662
 30
0.0
 40
0.00833333
 41
0.00833333
  0
VERTEX
  8
0
 10
3.79204
 20
6.54725
 30
0.0
 40
0.00833333
 41
0.00833333
  0
VERTEX
  8
0
 10
3.7985
 20
6.54725
 30
0.0
 40
0.00833333
 41
0.00833333
  0
VERTEX
  8
0
 10
3.8049
 20
6.54725
 30
0.0
 40
0.00833333
 41
0.00833333
  0
VERTEX
  8
0
 10
3.82428
 20
6.53662
 30
0.0
 40
0.00833333
 41
0.00833333
  0
VERTEX
  8
0
 10
3.83496
 20
6.51725
 30
0.0
 40
0.00833333
 41
0.00833333
  0
VERTEX
  8
0
 10
3.83496
 20
6.51079
 30
0.0
 40
0.00833333
 41
0.00833333
  0
VERTEX
  8
0
 10
3.83496
 20
6.50439
 30
0.0
 40
0.00833333
 41
0.00833333
  0
VERTEX
  8
0
 10
3.82428
 20
6.48503
 30
0.0
 40
0.00833333
 41
0.00833333
  0
VERTEX
  8
0
 10
3.8049
 20
6.47433
 30
0.0
 40
0.00833333
 41
0.00833333
  0
VERTEX
  8
0
 10
3.7985
 20
6.47433
 30
0.0
 40
0.00833333
 41
0.00833333
  0
SEQEND
 8
0
  0
POLYLINE
  8
0
 62
     7
 66
     1
 10
0
 20
0
 30
0.0
 70
     1
 40
0
 41
0
  0
VERTEX
  8
0
 10
3.7985
 20
6.87528
 30
0.0
 40
0
 41
0
  0
VERTEX
  8
0
 10
3.79482
 20
6.87528
 30
0.0
 40
0
 41
0
  0
VERTEX
  8
0
 10
3.78375
 20
6.8814
 30
0.0
 40
0
 41
0
  0
VERTEX
  8
0
 10
3.77767
 20
6.89247
 30
0.0
 40
0
 41
0
  0
VERTEX
  8
0
 10
3.77767
 20
6.89611
 30
0.0
 40
0
 41
0
  0
VERTEX
  8
0
 10
3.77767
 20
6.89979
 30
0.0
 40
0
 41
0
  0
VERTEX
  8
0
 10
3.78375
 20
6.91086
 30
0.0
 40
0
 41
0
  0
VERTEX
  8
0
 10
3.79482
 20
6.91694
 30
0.0
 40
0
 41
0
  0
VERTEX
  8
0
 10
3.7985
 20
6.91694
 30
0.0
 40
0
 41
0
  0
VERTEX
  8
0
 10
3.80214
 20
6.91694
 30
0.0
 40
0
 41
0
  0
VERTEX
  8
0
 10
3.81321
 20
6.91086
 30
0.0
 40
0
 41
0
  0
VERTEX
  8
0
 10
3.81933
 20
6.89979
 30
0.0
 40
0
 41
0
  0
VERTEX
  8
0
 10
3.81933
 20
6.89611
 30
0.0
 40
0
 41
0
  0
VERTEX
  8
0
 10
3.81933
 20
6.89247
 30
0.0
 40
0
 41
0
  0
VERTEX
  8
0
 10
3.81321
 20
6.8814
 30
0.0
 40
0
 41
0
  0
VERTEX
  8
0
 10
3.80214
 20
6.87528
 30
0.0
 40
0
 41
0
  0
VERTEX
  8
0
 10
3.7985
 20
6.87528
 30
0.0
 40
0
 41
0
  0
SEQEND
 8
0
  0
POLYLINE
  8
0
 62
     0
 66
     1
 10
0
 20
0
 30
0.0
 70
     1
 40
0.6
 41
0.6
  0
VERTEX
  8
0
 10
3.7985
 20
6.87528
 30
0.0
 40
0.00833333
 41
0.00833333
  0
VERTEX
  8
0
 10
3.79482
 20
6.87528
 30
0.0
 40
0.00833333
 41
0.00833333
  0
VERTEX
  8
0
 10
3.78375
 20
6.8814
 30
0.0
 40
0.00833333
 41
0.00833333
  0
VERTEX
  8
0
 10
3.77767
 20
6.89247
 30
0.0
 40
0.00833333
 41
0.00833333
  0
VERTEX
  8
0
 10
3.77767
 20
6.89611
 30
0.0
 40
0.00833333
 41
0.00833333
  0
VERTEX
  8
0
 10
3.77767
 20
6.89979
 30
0.0
 40
0.00833333
 41
0.00833333
  0
VERTEX
  8
0
 10
3.78375
 20
6.91086
 30
0.0
 40
0.00833333
 41
0.00833333
  0
VERTEX
  8
0
 10
3.79482
 20
6.91694
 30
0.0
 40
0.00833333
 41
0.00833333
  0
VERTEX
  8
0
 10
3.7985
 20
6.91694
 30
0.0
 40
0.00833333
 41
0.00833333
  0
VERTEX
  8
0
 10
3.80214
 20
6.91694
 30
0.0
 40
0.00833333
 41
0.00833333
  0
VERTEX
  8
0
 10
3.81321
 20
6.91086
 30
0.0
 40
0.00833333
 41
0.00833333
  0
VERTEX
  8
0
 10
3.81933
 20
6.89979
 30
0.0
 40
0.00833333
 41
0.00833333
  0
VERTEX
  8
0
 10
3.81933
 20
6.89611
 30
0.0
 40
0.00833333
 41
0.00833333
  0
VERTEX
  8
0
 10
3.81933
 20
6.89247
 30
0.0
 40
0.00833333
 41
0.00833333
  0
VERTEX
  8
0
 10
3.81321
 20
6.8814
 30
0.0
 40
0.00833333
 41
0.00833333
  0
VERTEX
  8
0
 10
3.80214
 20
6.87528
 30
0.0
 40
0.00833333
 41
0.00833333
  0
VERTEX
  8
0
 10
3.7985
 20
6.87528
 30
0.0
 40
0.00833333
 41
0.00833333
  0
SEQEND
 8
0
  0
POLYLINE
  8
0
 62
     7
 66
     1
 10
0
 20
0
 30
0.0
 70
     1
 40
0
 41
0
  0
VERTEX
  8
0
 10
3.7985
 20
6.48996
 30
0.0
 40
0
 41
0
  0
VERTEX
  8
0
 10
3.79482
 20
6.48996
 30
0.0
 40
0
 41
0
  0
VERTEX
  8
0
 10
3.78375
 20
6.4961
 30
0.0
 40
0
 41
0
  0
VERTEX
  8
0
 10
3.77767
 20
6.50717
 30
0.0
 40
0
 41
0
  0
VERTEX
  8
0
 10
3.77767
 20
6.51079
 30
0.0
 40
0
 41
0
  0
VERTEX
  8
0
 10
3.77767
 20
6.51449
 30
0.0
 40
0
 41
0
  0
VERTEX
  8
0
 10
3.78375
 20
6.52556
 30
0.0
 40
0
 41
0
  0
VERTEX
  8
0
 10
3.79482
 20
6.53163
 30
0.0
 40
0
 41
0
  0
VERTEX
  8
0
 10
3.7985
 20
6.53163
 30
0.0
 40
0
 41
0
  0
VERTEX
  8
0
 10
3.80214
 20
6.53163
 30
0.0
 40
0
 41
0
  0
VERTEX
  8
0
 10
3.81321
 20
6.52556
 30
0.0
 40
0
 41
0
  0
VERTEX
  8
0
 10
3.81933
 20
6.51449
 30
0.0
 40
0
 41
0
  0
VERTEX
  8
0
 10
3.81933
 20
6.51079
 30
0.0
 40
0
 41
0
  0
VERTEX
  8
0
 10
3.81933
 20
6.50717
 30
0.0
 40
0
 41
0
  0
VERTEX
  8
0
 10
3.81321
 20
6.4961
 30
0.0
 40
0
 41
0
  0
VERTEX
  8
0
 10
3.80214
 20
6.48996
 30
0.0
 40
0
 41
0
  0
VERTEX
  8
0
 10
3.7985
 20
6.48996
 30
0.0
 40
0
 41
0
  0
SEQEND
 8
0
  0
POLYLINE
  8
0
 62
     0
 66
     1
 10
0
 20
0
 30
0.0
 70
     1
 40
0.6
 41
0.6
  0
VERTEX
  8
0
 10
3.7985
 20
6.48996
 30
0.0
 40
0.00833333
 41
0.00833333
  0
VERTEX
  8
0
 10
3.79482
 20
6.48996
 30
0.0
 40
0.00833333
 41
0.00833333
  0
VERTEX
  8
0
 10
3.78375
 20
6.4961
 30
0.0
 40
0.00833333
 41
0.00833333
  0
VERTEX
  8
0
 10
3.77767
 20
6.50717
 30
0.0
 40
0.00833333
 41
0.00833333
  0
VERTEX
  8
0
 10
3.77767
 20
6.51079
 30
0.0
 40
0.00833333
 41
0.00833333
  0
VERTEX
  8
0
 10
3.77767
 20
6.51449
 30
0.0
 40
0.00833333
 41
0.00833333
  0
VERTEX
  8
0
 10
3.78375
 20
6.52556
 30
0.0
 40
0.00833333
 41
0.00833333
  0
VERTEX
  8
0
 10
3.79482
 20
6.53163
 30
0.0
 40
0.00833333
 41
0.00833333
  0
VERTEX
  8
0
 10
3.7985
 20
6.53163
 30
0.0
 40
0.00833333
 41
0.00833333
  0
VERTEX
  8
0
 10
3.80214
 20
6.53163
 30
0.0
 40
0.00833333
 41
0.00833333
  0
VERTEX
  8
0
 10
3.81321
 20
6.52556
 30
0.0
 40
0.00833333
 41
0.00833333
  0
VERTEX
  8
0
 10
3.81933
 20
6.51449
 30
0.0
 40
0.00833333
 41
0.00833333
  0
VERTEX
  8
0
 10
3.81933
 20
6.51079
 30
0.0
 40
0.00833333
 41
0.00833333
  0
VERTEX
  8
0
 10
3.81933
 20
6.50717
 30
0.0
 40
0.00833333
 41
0.00833333
  0
VERTEX
  8
0
 10
3.81321
 20
6.4961
 30
0.0
 40
0.00833333
 41
0.00833333
  0
VERTEX
  8
0
 10
3.80214
 20
6.48996
 30
0.0
 40
0.00833333
 41
0.00833333
  0
VERTEX
  8
0
 10
3.7985
 20
6.48996
 30
0.0
 40
0.00833333
 41
0.00833333
  0
SEQEND
 8
0
  0
POLYLINE
  8
0
 62
     7
 66
     1
 10
0
 20
0
 30
0.0
 70
     1
 40
0
 41
0
  0
VERTEX
  8
0
 10
3.94015
 20
6.74078
 30
0.0
 40
0
 41
0
  0
VERTEX
  8
0
 10
4.08599
 20
6.74078
 30
0.0
 40
0
 41
0
  0
VERTEX
  8
0
 10
4.08599
 20
6.67828
 30
0.0
 40
0
 41
0
  0
VERTEX
  8
0
 10
3.94015
 20
6.67828
 30
0.0
 40
0
 41
0
  0
VERTEX
  8
0
 10
3.94015
 20
6.74078
 30
0.0
 40
0
 41
0
  0
SEQEND
 8
0
  0
POLYLINE
  8
0
 62
     0
 66
     1
 10
0
 20
0
 30
0.0
 70
     1
 40
0.75
 41
0.75
  0
VERTEX
  8
0
 10
3.94015
 20
6.74078
 30
0.0
 40
0.0104167
 41
0.0104167
  0
VERTEX
  8
0
 10
3.94015
 20
6.67828
 30
0.0
 40
0.0104167
 41
0.0104167
  0
VERTEX
  8
0
 10
4.08599
 20
6.67828
 30
0.0
 40
0.0104167
 41
0.0104167
  0
VERTEX
  8
0
 10
4.08599
 20
6.74078
 30
0.0
 40
0.0104167
 41
0.0104167
  0
VERTEX
  8
0
 10
3.94015
 20
6.74078
 30
0.0
 40
0.0104167
 41
0.0104167
  0
SEQEND
 8
0
  0
POLYLINE
  8
0
 62
     7
 66
     1
 10
0
 20
0
 30
0.0
 70
     1
 40
0
 41
0
  0
VERTEX
  8
0
 10
3.42887
 20
7.77001
 30
0.0
 40
0
 41
0
  0
VERTEX
  8
0
 10
4.05387
 20
7.77001
 30
0.0
 40
0
 41
0
  0
VERTEX
  8
0
 10
4.05387
 20
7.14501
 30
0.0
 40
0
 41
0
  0
VERTEX
  8
0
 10
3.42887
 20
7.14501
 30
0.0
 40
0
 41
0
  0
VERTEX
  8
0
 10
3.42887
 20
7.77001
 30
0.0
 40
0
 41
0
  0
SEQEND
 8
0
  0
POLYLINE
  8
0
 62
     0
 66
     1
 10
0
 20
0
 30
0.0
 70
     1
 40
0.75
 41
0.75
  0
VERTEX
  8
0
 10
3.42887
 20
7.77001
 30
0.0
 40
0.0104167
 41
0.0104167
  0
VERTEX
  8
0
 10
3.42887
 20
7.14501
 30
0.0
 40
0.0104167
 41
0.0104167
  0
VERTEX
  8
0
 10
4.05387
 20
7.14501
 30
0.0
 40
0.0104167
 41
0.0104167
  0
VERTEX
  8
0
 10
4.05387
 20
7.77001
 30
0.0
 40
0.0104167
 41
0.0104167
  0
VERTEX
  8
0
 10
3.42887
 20
7.77001
 30
0.0
 40
0.0104167
 41
0.0104167
  0
SEQEND
 8
0
  0
POLYLINE
  8
0
 62
     0
 66
     1
 10
0
 20
0
 30
0.0
 40
0.75
 41
0.75
  0
VERTEX
  8
0
 10
4.05387
 20
7.77001
 30
0.0
 40
0.0104167
 41
0.0104167
  0
VERTEX
  8
0
 10
3.64865
 20
7.45751
 30
0.0
 40
0.0104167
 41
0.0104167
  0
VERTEX
  8
0
 10
3.85699
 20
7.45751
 30
0.0
 40
0.0104167
 41
0.0104167
  0
VERTEX
  8
0
 10
3.42887
 20
7.14501
 30
0.0
 40
0.0104167
 41
0.0104167
  0
SEQEND
 8
0
  0
POLYLINE
  8
0
 62
     0
 66
     1
 10
0
 20
0
 30
0.0
 40
0.75
 41
0.75
  0
VERTEX
  8
0
 10
3.433
 20
7.66585
 30
0.0
 40
0.0104167
 41
0.0104167
  0
VERTEX
  8
0
 10
3.433
 20
7.25131
 30
0.0
 40
0.0104167
 41
0.0104167
  0
SEQEND
 8
0
  0
POLYLINE
  8
0
 62
     0
 66
     1
 10
0
 20
0
 30
0.0
 70
     1
 40
0.75
 41
0.75
  0
VERTEX
  8
0
 10
1.59011
 20
5.25179
 30
0.0
 40
0.0104167
 41
0.0104167
  0
VERTEX
  8
0
 10
4.05387
 20
5.25087
 30
0.0
 40
0.0104167
 41
0.0104167
  0
VERTEX
  8
0
 10
4.05387
 20
7.98503
 30
0.0
 40
0.0104167
 41
0.0104167
  0
VERTEX
  8
0
 10
3.75114
 20
7.98503
 30
0.0
 40
0.0104167
 41
0.0104167
  0
VERTEX
  8
0
 10
3.75114
 20
6.10346
 30
0.0
 40
0.0104167
 41
0.0104167
  0
VERTEX
  8
0
 10
3.14762
 20
5.57058
 30
0.0
 40
0.0104167
 41
0.0104167
  0
VERTEX
  8
0
 10
1.59011
 20
5.57058
 30
0.0
 40
0.0104167
 41
0.0104167
  0
VERTEX
  8
0
 10
1.59011
 20
5.25179
 30
0.0
 40
0.0104167
 41
0.0104167
  0
SEQEND
 8
0
  0
POLYLINE
  8
0
 62
     7
 66
     1
 10
0
 20
0
 30
0.0
 70
     1
 40
0
 41
0
  0
VERTEX
  8
0
 10
4.42415
 20
5.82661
 30
0.0
 40
0
 41
0
  0
VERTEX
  8
0
 10
4.84071
 20
5.82661
 30
0.0
 40
0
 41
0
  0
VERTEX
  8
0
 10
4.84071
 20
5.63932
 30
0.0
 40
0
 41
0
  0
VERTEX
  8
0
 10
4.42415
 20
5.63932
 30
0.0
 40
0
 41
0
  0
VERTEX
  8
0
 10
4.42415
 20
5.82661
 30
0.0
 40
0
 41
0
  0
SEQEND
 8
0
  0
POLYLINE
  8
0
 62
     0
 66
     1
 10
0
 20
0
 30
0.0
 70
     1
 40
0.75
 41
0.75
  0
VERTEX
  8
0
 10
4.42415
 20
5.82661
 30
0.0
 40
0.0104167
 41
0.0104167
  0
VERTEX
  8
0
 10
4.84071
 20
5.82661
 30
0.0
 40
0.0104167
 41
0.0104167
  0
VERTEX
  8
0
 10
4.84071
 20
5.63932
 30
0.0
 40
0.0104167
 41
0.0104167
  0
VERTEX
  8
0
 10
4.42415
 20
5.63932
 30
0.0
 40
0.0104167
 41
0.0104167
  0
VERTEX
  8
0
 10
4.42415
 20
5.82661
 30
0.0
 40
0.0104167
 41
0.0104167
  0
SEQEND
 8
0
  0
POLYLINE
  8
0
 62
     7
 66
     1
 10
0
 20
0
 30
0.0
 70
     1
 40
0
 41
0
  0
VERTEX
  8
0
 10
4.42415
 20
6.09494
 30
0.0
 40
0
 41
0
  0
VERTEX
  8
0
 10
4.42415
 20
6.09494
 30
0.0
 40
0
 41
0
  0
VERTEX
  8
0
 10
4.42404
 20
6.10672
 30
0.0
 40
0
 41
0
  0
VERTEX
  8
0
 10
4.42567
 20
6.13769
 30
0.0
 40
0
 41
0
  0
VERTEX
  8
0
 10
4.43181
 20
6.18153
 30
0.0
 40
0
 41
0
  0
VERTEX
  8
0
 10
4.44526
 20
6.23172
 30
0.0
 40
0
 41
0
  0
VERTEX
  8
0
 10
4.46881
 20
6.28196
 30
0.0
 40
0
 41
0
  0
VERTEX
  8
0
 10
4.50526
 20
6.32579
 30
0.0
 40
0
 41
0
  0
VERTEX
  8
0
 10
4.5574
 20
6.35678
 30
0.0
 40
0
 41
0
  0
VERTEX
  8
0
 10
4.61046
 20
6.36849
 30
0.0
 40
0
 41
0
  0
VERTEX
  8
0
 10
4.62815
 20
6.36849
 30
0.0
 40
0
 41
0
  0
VERTEX
  8
0
 10
4.64643
 20
6.36849
 30
0.0
 40
0
 41
0
  0
VERTEX
  8
0
 10
4.70128
 20
6.35678
 30
0.0
 40
0
 41
0
  0
VERTEX
  8
0
 10
4.75537
 20
6.32579
 30
0.0
 40
0
 41
0
  0
VERTEX
  8
0
 10
4.79318
 20
6.28196
 30
0.0
 40
0
 41
0
  0
VERTEX
  8
0
 10
4.8176
 20
6.23172
 30
0.0
 40
0
 41
0
  0
VERTEX
  8
0
 10
4.8316
 20
6.18153
 30
0.0
 40
0
 41
0
  0
VERTEX
  8
0
 10
4.838
 20
6.13769
 30
0.0
 40
0
 41
0
  0
VERTEX
  8
0
 10
4.83974
 20
6.10672
 30
0.0
 40
0
 41
0
  0
VERTEX
  8
0
 10
4.83968
 20
6.09494
 30
0.0
 40
0
 41
0
  0
VERTEX
  8
0
 10
4.83968
 20
6.09494
 30
0.0
 40
0
 41
0
  0
VERTEX
  8
0
 10
4.84071
 20
5.82661
 30
0.0
 40
0
 41
0
  0
VERTEX
  8
0
 10
4.42415
 20
5.82661
 30
0.0
 40
0
 41
0
  0
VERTEX
  8
0
 10
4.42415
 20
6.09494
 30
0.0
 40
0
 41
0
  0
SEQEND
 8
0
  0
POLYLINE
  8
0
 62
     0
 66
     1
 10
0
 20
0
 30
0.0
 70
     1
 40
0.75
 41
0.75
  0
VERTEX
  8
0
 10
4.42415
 20
6.09494
 30
0.0
 40
0.0104167
 41
0.0104167
  0
VERTEX
  8
0
 10
4.42415
 20
6.09494
 30
0.0
 40
0.0104167
 41
0.0104167
  0
VERTEX
  8
0
 10
4.42404
 20
6.10672
 30
0.0
 40
0.0104167
 41
0.0104167
  0
VERTEX
  8
0
 10
4.42567
 20
6.13769
 30
0.0
 40
0.0104167
 41
0.0104167
  0
VERTEX
  8
0
 10
4.43181
 20
6.18153
 30
0.0
 40
0.0104167
 41
0.0104167
  0
VERTEX
  8
0
 10
4.44526
 20
6.23172
 30
0.0
 40
0.0104167
 41
0.0104167
  0
VERTEX
  8
0
 10
4.46881
 20
6.28196
 30
0.0
 40
0.0104167
 41
0.0104167
  0
VERTEX
  8
0
 10
4.50526
 20
6.32579
 30
0.0
 40
0.0104167
 41
0.0104167
  0
VERTEX
  8
0
 10
4.5574
 20
6.35678
 30
0.0
 40
0.0104167
 41
0.0104167
  0
VERTEX
  8
0
 10
4.61046
 20
6.36849
 30
0.0
 40
0.0104167
 41
0.0104167
  0
VERTEX
  8
0
 10
4.62815
 20
6.36849
 30
0.0
 40
0.0104167
 41
0.0104167
  0
VERTEX
  8
0
 10
4.64643
 20
6.36849
 30
0.0
 40
0.0104167
 41
0.0104167
  0
VERTEX
  8
0
 10
4.70128
 20
6.35678
 30
0.0
 40
0.0104167
 41
0.0104167
  0
VERTEX
  8
0
 10
4.75537
 20
6.32579
 30
0.0
 40
0.0104167
 41
0.0104167
  0
VERTEX
  8
0
 10
4.79318
 20
6.28196
 30
0.0
 40
0.0104167
 41
0.0104167
  0
VERTEX
  8
0
 10
4.8176
 20
6.23172
 30
0.0
 40
0.0104167
 41
0.0104167
  0
VERTEX
  8
0
 10
4.8316
 20
6.18153
 30
0.0
 40
0.0104167
 41
0.0104167
  0
VERTEX
  8
0
 10
4.838
 20
6.13769
 30
0.0
 40
0.0104167
 41
0.0104167
  0
VERTEX
  8
0
 10
4.83974
 20
6.10672
 30
0.0
 40
0.0104167
 41
0.0104167
  0
VERTEX
  8
0
 10
4.83968
 20
6.09494
 30
0.0
 40
0.0104167
 41
0.0104167
  0
VERTEX
  8
0
 10
4.83968
 20
6.09494
 30
0.0
 40
0.0104167
 41
0.0104167
  0
VERTEX
  8
0
 10
4.84071
 20
5.82661
 30
0.0
 40
0.0104167
 41
0.0104167
  0
VERTEX
  8
0
 10
4.42415
 20
5.82661
 30
0.0
 40
0.0104167
 41
0.0104167
  0
VERTEX
  8
0
 10
4.42415
 20
6.09494
 30
0.0
 40
0.0104167
 41
0.0104167
  0
SEQEND
 8
0
  0
POLYLINE
  8
0
 62
     7
 66
     1
 10
0
 20
0
 30
0.0
 70
     1
 40
0
 41
0
  0
VERTEX
  8
0
 10
4.59933
 20
5.74875
 30
0.0
 40
0
 41
0
  0
VERTEX
  8
0
 10
4.66553
 20
5.74875
 30
0.0
 40
0
 41
0
  0
VERTEX
  8
0
 10
4.66553
 20
5.71718
 30
0.0
 40
0
 41
0
  0
VERTEX
  8
0
 10
4.59933
 20
5.71718
 30
0.0
 40
0
 41
0
  0
VERTEX
  8
0
 10
4.59933
 20
5.74875
 30
0.0
 40
0
 41
0
  0
SEQEND
 8
0
  0
POLYLINE
  8
0
 62
     0
 66
     1
 10
0
 20
0
 30
0.0
 70
     1
 40
0.75
 41
0.75
  0
VERTEX
  8
0
 10
4.59933
 20
5.74875
 30
0.0
 40
0.0104167
 41
0.0104167
  0
VERTEX
  8
0
 10
4.66553
 20
5.74875
 30
0.0
 40
0.0104167
 41
0.0104167
  0
VERTEX
  8
0
 10
4.66553
 20
5.71718
 30
0.0
 40
0.0104167
 41
0.0104167
  0
VERTEX
  8
0
 10
4.59933
 20
5.71718
 30
0.0
 40
0.0104167
 41
0.0104167
  0
VERTEX
  8
0
 10
4.59933
 20
5.74875
 30
0.0
 40
0.0104167
 41
0.0104167
  0
SEQEND
 8
0
  0
POLYLINE
  8
0
 62
     0
 66
     1
 10
0
 20
0
 30
0.0
 70
     1
 40
0.75
 41
0.75
  0
VERTEX
  8
0
 10
4.33507
 20
5.94726
 30
0.0
 40
0.0104167
 41
0.0104167
  0
VERTEX
  8
0
 10
4.96007
 20
5.94726
 30
0.0
 40
0.0104167
 41
0.0104167
  0
VERTEX
  8
0
 10
4.96007
 20
5.63476
 30
0.0
 40
0.0104167
 41
0.0104167
  0
VERTEX
  8
0
 10
4.33507
 20
5.63476
 30
0.0
 40
0.0104167
 41
0.0104167
  0
VERTEX
  8
0
 10
4.33507
 20
5.94726
 30
0.0
 40
0.0104167
 41
0.0104167
  0
SEQEND
 8
0
  0
POLYLINE
  8
0
 62
     7
 66
     1
 10
0
 20
0
 30
0.0
 70
     1
 40
0
 41
0
  0
VERTEX
  8
0
 10
5.148
 20
6.00196
 30
0.0
 40
0
 41
0
  0
VERTEX
  8
0
 10
5.14714
 20
5.25082
 30
0.0
 40
0
 41
0
  0
VERTEX
  8
0
 10
5.91417
 20
5.25174
 30
0.0
 40
0
 41
0
  0
VERTEX
  8
0
 10
5.91325
 20
5.62901
 30
0.0
 40
0
 41
0
  0
VERTEX
  8
0
 10
5.91271
 20
5.65479
 30
0.0
 40
0
 41
0
  0
VERTEX
  8
0
 10
5.90451
 20
5.73199
 30
0.0
 40
0
 41
0
  0
VERTEX
  8
0
 10
5.88351
 20
5.8144
 30
0.0
 40
0
 41
0
  0
VERTEX
  8
0
 10
5.85086
 20
5.87831
 30
0.0
 40
0
 41
0
  0
VERTEX
  8
0
 10
5.80729
 20
5.92606
 30
0.0
 40
0
 41
0
  0
VERTEX
  8
0
 10
5.75347
 20
5.95975
 30
0.0
 40
0
 41
0
  0
VERTEX
  8
0
 10
5.69
 20
5.98156
 30
0.0
 40
0
 41
0
  0
VERTEX
  8
0
 10
5.61762
 20
5.99376
 30
0.0
 40
0
 41
0
  0
VERTEX
  8
0
 10
5.55713
 20
5.99799
 30
0.0
 40
0
 41
0
  0
VERTEX
  8
0
 10
5.53694
 20
5.99837
 30
0.0
 40
0
 41
0
  0
VERTEX
  8
0
 10
5.148
 20
6.00196
 30
0.0
 40
0
 41
0
  0
SEQEND
 8
0
  0
POLYLINE
  8
0
 62
     0
 66
     1
 10
0
 20
0
 30
0.0
 70
     1
 40
0.636225
 41
0.636225
  0
VERTEX
  8
0
 10
5.148
 20
6.00196
 30
0.0
 40
0.00883646
 41
0.00883646
  0
VERTEX
  8
0
 10
5.14714
 20
5.25082
 30
0.0
 40
0.00883646
 41
0.00883646
  0
VERTEX
  8
0
 10
5.91417
 20
5.25174
 30
0.0
 40
0.00883646
 41
0.00883646
  0
VERTEX
  8
0
 10
5.91325
 20
5.62901
 30
0.0
 40
0.00883646
 41
0.00883646
  0
VERTEX
  8
0
 10
5.91271
 20
5.65479
 30
0.0
 40
0.00883646
 41
0.00883646
  0
VERTEX
  8
0
 10
5.90451
 20
5.73199
 30
0.0
 40
0.00883646
 41
0.00883646
  0
VERTEX
  8
0
 10
5.88351
 20
5.8144
 30
0.0
 40
0.00883646
 41
0.00883646
  0
VERTEX
  8
0
 10
5.85086
 20
5.87831
 30
0.0
 40
0.00883646
 41
0.00883646
  0
VERTEX
  8
0
 10
5.80729
 20
5.92606
 30
0.0
 40
0.00883646
 41
0.00883646
  0
VERTEX
  8
0
 10
5.75347
 20
5.95975
 30
0.0
 40
0.00883646
 41
0.00883646
  0
VERTEX
  8
0
 10
5.69
 20
5.98156
 30
0.0
 40
0.00883646
 41
0.00883646
  0
VERTEX
  8
0
 10
5.61762
 20
5.99376
 30
0.0
 40
0.00883646
 41
0.00883646
  0
VERTEX
  8
0
 10
5.55713
 20
5.99799
 30
0.0
 40
0.00883646
 41
0.00883646
  0
VERTEX
  8
0
 10
5.53694
 20
5.99837
 30
0.0
 40
0.00883646
 41
0.00883646
  0
VERTEX
  8
0
 10
5.148
 20
6.00196
 30
0.0
 40
0.00883646
 41
0.00883646
  0
SEQEND
 8
0
  0
POLYLINE
  8
0
 62
     7
 66
     1
 10
0
 20
0
 30
0.0
 70
     1
 40
0
 41
0
  0
VERTEX
  8
0
 10
5.91233
 20
5.62815
 30
0.0
 40
0
 41
0
  0
VERTEX
  8
0
 10
5.89882
 20
5.62815
 30
0.0
 40
0
 41
0
  0
VERTEX
  8
0
 10
5.89974
 20
5.26497
 30
0.0
 40
0
 41
0
  0
VERTEX
  8
0
 10
5.15978
 20
5.26411
 30
0.0
 40
0
 41
0
  0
VERTEX
  8
0
 10
5.16064
 20
5.98779
 30
0.0
 40
0
 41
0
  0
VERTEX
  8
0
 10
5.53608
 20
5.98426
 30
0.0
 40
0
 41
0
  0
VERTEX
  8
0
 10
5.53608
 20
5.99837
 30
0.0
 40
0
 41
0
  0
SEQEND
 8
0
  0
POLYLINE
  8
0
 62
     0
 66
     1
 10
0
 20
0
 30
0.0
 40
0.636225
 41
0.636225
  0
VERTEX
  8
0
 10
5.91233
 20
5.62815
 30
0.0
 40
0.00883646
 41
0.00883646
  0
VERTEX
  8
0
 10
5.89882
 20
5.62815
 30
0.0
 40
0.00883646
 41
0.00883646
  0
VERTEX
  8
0
 10
5.89974
 20
5.26497
 30
0.0
 40
0.00883646
 41
0.00883646
  0
VERTEX
  8
0
 10
5.15978
 20
5.26411
 30
0.0
 40
0.00883646
 41
0.00883646
  0
VERTEX
  8
0
 10
5.16064
 20
5.98779
 30
0.0
 40
0.00883646
 41
0.00883646
  0
VERTEX
  8
0
 10
5.53608
 20
5.98426
 30
0.0
 40
0.00883646
 41
0.00883646
  0
VERTEX
  8
0
 10
5.53608
 20
5.99837
 30
0.0
 40
0.00883646
 41
0.00883646
  0
SEQEND
 8
0
  0
POLYLINE
  8
0
 62
     7
 66
     1
 10
0
 20
0
 30
0.0
 70
     1
 40
0
 41
0
  0
VERTEX
  8
0
 10
5.15104
 20
7.07844
 30
0.0
 40
0
 41
0
  0
VERTEX
  8
0
 10
5.33832
 20
7.07844
 30
0.0
 40
0
 41
0
  0
VERTEX
  8
0
 10
5.33832
 20
6.66189
 30
0.0
 40
0
 41
0
  0
VERTEX
  8
0
 10
5.15104
 20
6.66189
 30
0.0
 40
0
 41
0
  0
VERTEX
  8
0
 10
5.15104
 20
7.07844
 30
0.0
 40
0
 41
0
  0
SEQEND
 8
0
  0
POLYLINE
  8
0
 62
     0
 66
     1
 10
0
 20
0
 30
0.0
 70
     1
 40
0.75
 41
0.75
  0
VERTEX
  8
0
 10
5.15104
 20
7.07844
 30
0.0
 40
0.0104167
 41
0.0104167
  0
VERTEX
  8
0
 10
5.15104
 20
6.66189
 30
0.0
 40
0.0104167
 41
0.0104167
  0
VERTEX
  8
0
 10
5.33832
 20
6.66189
 30
0.0
 40
0.0104167
 41
0.0104167
  0
VERTEX
  8
0
 10
5.33832
 20
7.07844
 30
0.0
 40
0.0104167
 41
0.0104167
  0
VERTEX
  8
0
 10
5.15104
 20
7.07844
 30
0.0
 40
0.0104167
 41
0.0104167
  0
SEQEND
 8
0
  0
POLYLINE
  8
0
 62
     7
 66
     1
 10
0
 20
0
 30
0.0
 70
     1
 40
0
 41
0
  0
VERTEX
  8
0
 10
5.60667
 20
7.07844
 30
0.0
 40
0
 41
0
  0
VERTEX
  8
0
 10
5.60667
 20
7.07844
 30
0.0
 40
0
 41
0
  0
VERTEX
  8
0
 10
5.61838
 20
7.07856
 30
0.0
 40
0
 41
0
  0
VERTEX
  8
0
 10
5.64936
 20
7.07693
 30
0.0
 40
0
 41
0
  0
VERTEX
  8
0
 10
5.69319
 20
7.07081
 30
0.0
 40
0
 41
0
  0
VERTEX
  8
0
 10
5.74343
 20
7.05735
 30
0.0
 40
0
 41
0
  0
VERTEX
  8
0
 10
5.79362
 20
7.03381
 30
0.0
 40
0
 41
0
  0
VERTEX
  8
0
 10
5.83746
 20
6.99735
 30
0.0
 40
0
 41
0
  0
VERTEX
  8
0
 10
5.86843
 20
6.94521
 30
0.0
 40
0
 41
0
  0
VERTEX
  8
0
 10
5.88021
 20
6.89214
 30
0.0
 40
0
 41
0
  0
VERTEX
  8
0
 10
5.88021
 20
6.87446
 30
0.0
 40
0
 41
0
  0
VERTEX
  8
0
 10
5.88021
 20
6.85618
 30
0.0
 40
0
 41
0
  0
VERTEX
  8
0
 10
5.86843
 20
6.80132
 30
0.0
 40
0
 41
0
  0
VERTEX
  8
0
 10
5.83746
 20
6.74724
 30
0.0
 40
0
 41
0
  0
VERTEX
  8
0
 10
5.79362
 20
6.70942
 30
0.0
 40
0
 41
0
  0
VERTEX
  8
0
 10
5.74343
 20
6.685
 30
0.0
 40
0
 41
0
  0
VERTEX
  8
0
 10
5.69319
 20
6.67101
 30
0.0
 40
0
 41
0
  0
VERTEX
  8
0
 10
5.64936
 20
6.66461
 30
0.0
 40
0
 41
0
  0
VERTEX
  8
0
 10
5.61838
 20
6.66287
 30
0.0
 40
0
 41
0
  0
VERTEX
  8
0
 10
5.60667
 20
6.66292
 30
0.0
 40
0
 41
0
  0
VERTEX
  8
0
 10
5.60667
 20
6.66292
 30
0.0
 40
0
 41
0
  0
VERTEX
  8
0
 10
5.33832
 20
6.66189
 30
0.0
 40
0
 41
0
  0
VERTEX
  8
0
 10
5.33832
 20
7.07844
 30
0.0
 40
0
 41
0
  0
VERTEX
  8
0
 10
5.60667
 20
7.07844
 30
0.0
 40
0
 41
0
  0
SEQEND
 8
0
  0
POLYLINE
  8
0
 62
     0
 66
     1
 10
0
 20
0
 30
0.0
 70
     1
 40
0.75
 41
0.75
  0
VERTEX
  8
0
 10
5.60667
 20
7.07844
 30
0.0
 40
0.0104167
 41
0.0104167
  0
VERTEX
  8
0
 10
5.60667
 20
7.07844
 30
0.0
 40
0.0104167
 41
0.0104167
  0
VERTEX
  8
0
 10
5.61838
 20
7.07856
 30
0.0
 40
0.0104167
 41
0.0104167
  0
VERTEX
  8
0
 10
5.64936
 20
7.07693
 30
0.0
 40
0.0104167
 41
0.0104167
  0
VERTEX
  8
0
 10
5.69319
 20
7.07081
 30
0.0
 40
0.0104167
 41
0.0104167
  0
VERTEX
  8
0
 10
5.74343
 20
7.05735
 30
0.0
 40
0.0104167
 41
0.0104167
  0
VERTEX
  8
0
 10
5.79362
 20
7.03381
 30
0.0
 40
0.0104167
 41
0.0104167
  0
VERTEX
  8
0
 10
5.83746
 20
6.99735
 30
0.0
 40
0.0104167
 41
0.0104167
  0
VERTEX
  8
0
 10
5.86843
 20
6.94521
 30
0.0
 40
0.0104167
 41
0.0104167
  0
VERTEX
  8
0
 10
5.88021
 20
6.89214
 30
0.0
 40
0.0104167
 41
0.0104167
  0
VERTEX
  8
0
 10
5.88021
 20
6.87446
 30
0.0
 40
0.0104167
 41
0.0104167
  0
VERTEX
  8
0
 10
5.88021
 20
6.85618
 30
0.0
 40
0.0104167
 41
0.0104167
  0
VERTEX
  8
0
 10
5.86843
 20
6.80132
 30
0.0
 40
0.0104167
 41
0.0104167
  0
VERTEX
  8
0
 10
5.83746
 20
6.74724
 30
0.0
 40
0.0104167
 41
0.0104167
  0
VERTEX
  8
0
 10
5.79362
 20
6.70942
 30
0.0
 40
0.0104167
 41
0.0104167
  0
VERTEX
  8
0
 10
5.74343
 20
6.685
 30
0.0
 40
0.0104167
 41
0.0104167
  0
VERTEX
  8
0
 10
5.69319
 20
6.67101
 30
0.0
 40
0.0104167
 41
0.0104167
  0
VERTEX
  8
0
 10
5.64936
 20
6.66461
 30
0.0
 40
0.0104167
 41
0.0104167
  0
VERTEX
  8
0
 10
5.61838
 20
6.66287
 30
0.0
 40
0.0104167
 41
0.0104167
  0
VERTEX
  8
0
 10
5.60667
 20
6.66292
 30
0.0
 40
0.0104167
 41
0.0104167
  0
VERTEX
  8
0
 10
5.60667
 20
6.66292
 30
0.0
 40
0.0104167
 41
0.0104167
  0
VERTEX
  8
0
 10
5.33832
 20
6.66189
 30
0.0
 40
0.0104167
 41
0.0104167
  0
VERTEX
  8
0
 10
5.33832
 20
7.07844
 30
0.0
 40
0.0104167
 41
0.0104167
  0
VERTEX
  8
0
 10
5.60667
 20
7.07844
 30
0.0
 40
0.0104167
 41
0.0104167
  0
SEQEND
 8
0
  0
POLYLINE
  8
0
 62
     7
 66
     1
 10
0
 20
0
 30
0.0
 70
     1
 40
0
 41
0
  0
VERTEX
  8
0
 10
5.22894
 20
6.90326
 30
0.0
 40
0
 41
0
  0
VERTEX
  8
0
 10
5.26047
 20
6.90326
 30
0.0
 40
0
 41
0
  0
VERTEX
  8
0
 10
5.26047
 20
6.83708
 30
0.0
 40
0
 41
0
  0
VERTEX
  8
0
 10
5.22894
 20
6.83708
 30
0.0
 40
0
 41
0
  0
VERTEX
  8
0
 10
5.22894
 20
6.90326
 30
0.0
 40
0
 41
0
  0
SEQEND
 8
0
  0
POLYLINE
  8
0
 62
     0
 66
     1
 10
0
 20
0
 30
0.0
 70
     1
 40
0.75
 41
0.75
  0
VERTEX
  8
0
 10
5.22894
 20
6.90326
 30
0.0
 40
0.0104167
 41
0.0104167
  0
VERTEX
  8
0
 10
5.22894
 20
6.83708
 30
0.0
 40
0.0104167
 41
0.0104167
  0
VERTEX
  8
0
 10
5.26047
 20
6.83708
 30
0.0
 40
0.0104167
 41
0.0104167
  0
VERTEX
  8
0
 10
5.26047
 20
6.90326
 30
0.0
 40
0.0104167
 41
0.0104167
  0
VERTEX
  8
0
 10
5.22894
 20
6.90326
 30
0.0
 40
0.0104167
 41
0.0104167
  0
SEQEND
 8
0
  0
POLYLINE
  8
0
 62
     7
 66
     1
 10
0
 20
0
 30
0.0
 70
     1
 40
0
 41
0
  0
VERTEX
  8
0
 10
5.46474
 20
5.31961
 30
0.0
 40
0
 41
0
  0
VERTEX
  8
0
 10
5.58138
 20
5.31961
 30
0.0
 40
0
 41
0
  0
VERTEX
  8
0
 10
5.58138
 20
5.25603
 30
0.0
 40
0
 41
0
  0
VERTEX
  8
0
 10
5.46474
 20
5.25603
 30
0.0
 40
0
 41
0
  0
VERTEX
  8
0
 10
5.46474
 20
5.31961
 30
0.0
 40
0
 41
0
  0
SEQEND
 8
0
  0
POLYLINE
  8
0
 62
     0
 66
     1
 10
0
 20
0
 30
0.0
 70
     1
 40
0.75
 41
0.75
  0
VERTEX
  8
0
 10
5.46474
 20
5.31961
 30
0.0
 40
0.0104167
 41
0.0104167
  0
VERTEX
  8
0
 10
5.58138
 20
5.31961
 30
0.0
 40
0.0104167
 41
0.0104167
  0
VERTEX
  8
0
 10
5.58138
 20
5.25603
 30
0.0
 40
0.0104167
 41
0.0104167
  0
VERTEX
  8
0
 10
5.46474
 20
5.25603
 30
0.0
 40
0.0104167
 41
0.0104167
  0
VERTEX
  8
0
 10
5.46474
 20
5.31961
 30
0.0
 40
0.0104167
 41
0.0104167
  0
SEQEND
 8
0
  0
POLYLINE
  8
0
 62
     7
 66
     1
 10
0
 20
0
 30
0.0
 70
     1
 40
0
 41
0
  0
VERTEX
  8
0
 10
5.31993
 20
5.31961
 30
0.0
 40
0
 41
0
  0
VERTEX
  8
0
 10
5.43658
 20
5.31961
 30
0.0
 40
0
 41
0
  0
VERTEX
  8
0
 10
5.43658
 20
5.25603
 30
0.0
 40
0
 41
0
  0
VERTEX
  8
0
 10
5.31993
 20
5.25603
 30
0.0
 40
0
 41
0
  0
VERTEX
  8
0
 10
5.31993
 20
5.31961
 30
0.0
 40
0
 41
0
  0
SEQEND
 8
0
  0
POLYLINE
  8
0
 62
     0
 66
     1
 10
0
 20
0
 30
0.0
 70
     1
 40
0.75
 41
0.75
  0
VERTEX
  8
0
 10
5.31993
 20
5.31961
 30
0.0
 40
0.0104167
 41
0.0104167
  0
VERTEX
  8
0
 10
5.43658
 20
5.31961
 30
0.0
 40
0.0104167
 41
0.0104167
  0
VERTEX
  8
0
 10
5.43658
 20
5.25603
 30
0.0
 40
0.0104167
 41
0.0104167
  0
VERTEX
  8
0
 10
5.31993
 20
5.25603
 30
0.0
 40
0.0104167
 41
0.0104167
  0
VERTEX
  8
0
 10
5.31993
 20
5.31961
 30
0.0
 40
0.0104167
 41
0.0104167
  0
SEQEND
 8
0
  0
POLYLINE
  8
0
 62
     7
 66
     1
 10
0
 20
0
 30
0.0
 70
     1
 40
0
 41
0
  0
VERTEX
  8
0
 10
5.28554
 20
5.31961
 30
0.0
 40
0
 41
0
  0
VERTEX
  8
0
 10
5.32096
 20
5.31961
 30
0.0
 40
0
 41
0
  0
VERTEX
  8
0
 10
5.32096
 20
5.25603
 30
0.0
 40
0
 41
0
  0
VERTEX
  8
0
 10
5.28554
 20
5.25603
 30
0.0
 40
0
 41
0
  0
VERTEX
  8
0
 10
5.28554
 20
5.31961
 30
0.0
 40
0
 41
0
  0
SEQEND
 8
0
  0
POLYLINE
  8
0
 62
     0
 66
     1
 10
0
 20
0
 30
0.0
 70
     1
 40
0.75
 41
0.75
  0
VERTEX
  8
0
 10
5.28554
 20
5.31961
 30
0.0
 40
0.0104167
 41
0.0104167
  0
VERTEX
  8
0
 10
5.32096
 20
5.31961
 30
0.0
 40
0.0104167
 41
0.0104167
  0
VERTEX
  8
0
 10
5.32096
 20
5.25603
 30
0.0
 40
0.0104167
 41
0.0104167
  0
VERTEX
  8
0
 10
5.28554
 20
5.25603
 30
0.0
 40
0.0104167
 41
0.0104167
  0
VERTEX
  8
0
 10
5.28554
 20
5.31961
 30
0.0
 40
0.0104167
 41
0.0104167
  0
SEQEND
 8
0
  0
POLYLINE
  8
0
 62
     7
 66
     1
 10
0
 20
0
 30
0.0
 70
     1
 40
0
 41
0
  0
VERTEX
  8
0
 10
5.58138
 20
5.31961
 30
0.0
 40
0
 41
0
  0
VERTEX
  8
0
 10
5.61475
 20
5.31961
 30
0.0
 40
0
 41
0
  0
VERTEX
  8
0
 10
5.61475
 20
5.25603
 30
0.0
 40
0
 41
0
  0
VERTEX
  8
0
 10
5.58138
 20
5.25603
 30
0.0
 40
0
 41
0
  0
VERTEX
  8
0
 10
5.58138
 20
5.31961
 30
0.0
 40
0
 41
0
  0
SEQEND
 8
0
  0
POLYLINE
  8
0
 62
     0
 66
     1
 10
0
 20
0
 30
0.0
 70
     1
 40
0.75
 41
0.75
  0
VERTEX
  8
0
 10
5.58138
 20
5.31961
 30
0.0
 40
0.0104167
 41
0.0104167
  0
VERTEX
  8
0
 10
5.61475
 20
5.31961
 30
0.0
 40
0.0104167
 41
0.0104167
  0
VERTEX
  8
0
 10
5.61475
 20
5.25603
 30
0.0
 40
0.0104167
 41
0.0104167
  0
VERTEX
  8
0
 10
5.58138
 20
5.25603
 30
0.0
 40
0.0104167
 41
0.0104167
  0
VERTEX
  8
0
 10
5.58138
 20
5.31961
 30
0.0
 40
0.0104167
 41
0.0104167
  0
SEQEND
 8
0
  0
POLYLINE
  8
0
 62
     7
 66
     1
 10
0
 20
0
 30
0.0
 70
     1
 40
0
 41
0
  0
VERTEX
  8
0
 10
5.46474
 20
5.33936
 30
0.0
 40
0
 41
0
  0
VERTEX
  8
0
 10
5.46474
 20
5.34571
 30
0.0
 40
0
 41
0
  0
VERTEX
  8
0
 10
5.46837
 20
5.36464
 30
0.0
 40
0
 41
0
  0
VERTEX
  8
0
 10
5.47825
 20
5.38704
 30
0.0
 40
0
 41
0
  0
VERTEX
  8
0
 10
5.48139
 20
5.39144
 30
0.0
 40
0
 41
0
  0
VERTEX
  8
0
 10
5.48242
 20
5.39301
 30
0.0
 40
0
 41
0
  0
VERTEX
  8
0
 10
5.49257
 20
5.40767
 30
0.0
 40
0
 41
0
  0
VERTEX
  8
0
 10
5.49283
 20
5.40918
 30
0.0
 40
0
 41
0
  0
VERTEX
  8
0
 10
5.49333
 20
5.41206
 30
0.0
 40
0
 41
0
  0
VERTEX
  8
0
 10
5.48921
 20
5.4286
 30
0.0
 40
0
 41
0
  0
VERTEX
  8
0
 10
5.4725
 20
5.44146
 30
0.0
 40
0
 41
0
  0
VERTEX
  8
0
 10
5.46679
 20
5.44249
 30
0.0
 40
0
 41
0
  0
VERTEX
  8
0
 10
5.4655
 20
5.44276
 30
0.0
 40
0
 41
0
  0
VERTEX
  8
0
 10
5.45394
 20
5.44353
 30
0.0
 40
0
 41
0
  0
VERTEX
  8
0
 10
5.45014
 20
5.44353
 30
0.0
 40
0
 41
0
  0
VERTEX
  8
0
 10
5.45117
 20
5.44353
 30
0.0
 40
0
 41
0
  0
VERTEX
  8
0
 10
5.447
 20
5.44353
 30
0.0
 40
0
 41
0
  0
VERTEX
  8
0
 10
5.43582
 20
5.44276
 30
0.0
 40
0
 41
0
  0
VERTEX
  8
0
 10
5.43451
 20
5.44249
 30
0.0
 40
0
 41
0
  0
VERTEX
  8
0
 10
5.42876
 20
5.44146
 30
0.0
 40
0
 41
0
  0
VERTEX
  8
0
 10
5.41211
 20
5.4286
 30
0.0
 40
0
 41
0
  0
VERTEX
  8
0
 10
5.40793
 20
5.41206
 30
0.0
 40
0
 41
0
  0
VERTEX
  8
0
 10
5.40847
 20
5.40918
 30
0.0
 40
0
 41
0
  0
VERTEX
  8
0
 10
5.40869
 20
5.40767
 30
0.0
 40
0
 41
0
  0
VERTEX
  8
0
 10
5.41883
 20
5.39301
 30
0.0
 40
0
 41
0
  0
VERTEX
  8
0
 10
5.41992
 20
5.39144
 30
0.0
 40
0
 41
0
  0
VERTEX
  8
0
 10
5.42301
 20
5.38704
 30
0.0
 40
0
 41
0
  0
VERTEX
  8
0
 10
5.43294
 20
5.36464
 30
0.0
 40
0
 41
0
  0
VERTEX
  8
0
 10
5.43658
 20
5.34571
 30
0.0
 40
0
 41
0
  0
VERTEX
  8
0
 10
5.43658
 20
5.33936
 30
0.0
 40
0
 41
0
  0
SEQEND
 8
0
  0
POLYLINE
  8
0
 62
     0
 66
     1
 10
0
 20
0
 30
0.0
 40
0.75
 41
0.75
  0
VERTEX
  8
0
 10
5.46474
 20
5.33936
 30
0.0
 40
0.0104167
 41
0.0104167
  0
VERTEX
  8
0
 10
5.46474
 20
5.34571
 30
0.0
 40
0.0104167
 41
0.0104167
  0
VERTEX
  8
0
 10
5.46837
 20
5.36464
 30
0.0
 40
0.0104167
 41
0.0104167
  0
VERTEX
  8
0
 10
5.47825
 20
5.38704
 30
0.0
 40
0.0104167
 41
0.0104167
  0
VERTEX
  8
0
 10
5.48139
 20
5.39144
 30
0.0
 40
0.0104167
 41
0.0104167
  0
VERTEX
  8
0
 10
5.48242
 20
5.39301
 30
0.0
 40
0.0104167
 41
0.0104167
  0
VERTEX
  8
0
 10
5.49257
 20
5.40767
 30
0.0
 40
0.0104167
 41
0.0104167
  0
VERTEX
  8
0
 10
5.49283
 20
5.40918
 30
0.0
 40
0.0104167
 41
0.0104167
  0
VERTEX
  8
0
 10
5.49333
 20
5.41206
 30
0.0
 40
0.0104167
 41
0.0104167
  0
VERTEX
  8
0
 10
5.48921
 20
5.4286
 30
0.0
 40
0.0104167
 41
0.0104167
  0
VERTEX
  8
0
 10
5.4725
 20
5.44146
 30
0.0
 40
0.0104167
 41
0.0104167
  0
VERTEX
  8
0
 10
5.46679
 20
5.44249
 30
0.0
 40
0.0104167
 41
0.0104167
  0
VERTEX
  8
0
 10
5.4655
 20
5.44276
 30
0.0
 40
0.0104167
 41
0.0104167
  0
VERTEX
  8
0
 10
5.45394
 20
5.44353
 30
0.0
 40
0.0104167
 41
0.0104167
  0
VERTEX
  8
0
 10
5.45014
 20
5.44353
 30
0.0
 40
0.0104167
 41
0.0104167
  0
VERTEX
  8
0
 10
5.45117
 20
5.44353
 30
0.0
 40
0.0104167
 41
0.0104167
  0
VERTEX
  8
0
 10
5.447
 20
5.44353
 30
0.0
 40
0.0104167
 41
0.0104167
  0
VERTEX
  8
0
 10
5.43582
 20
5.44276
 30
0.0
 40
0.0104167
 41
0.0104167
  0
VERTEX
  8
0
 10
5.43451
 20
5.44249
 30
0.0
 40
0.0104167
 41
0.0104167
  0
VERTEX
  8
0
 10
5.42876
 20
5.44146
 30
0.0
 40
0.0104167
 41
0.0104167
  0
VERTEX
  8
0
 10
5.41211
 20
5.4286
 30
0.0
 40
0.0104167
 41
0.0104167
  0
VERTEX
  8
0
 10
5.40793
 20
5.41206
 30
0.0
 40
0.0104167
 41
0.0104167
  0
VERTEX
  8
0
 10
5.40847
 20
5.40918
 30
0.0
 40
0.0104167
 41
0.0104167
  0
VERTEX
  8
0
 10
5.40869
 20
5.40767
 30
0.0
 40
0.0104167
 41
0.0104167
  0
VERTEX
  8
0
 10
5.41883
 20
5.39301
 30
0.0
 40
0.0104167
 41
0.0104167
  0
VERTEX
  8
0
 10
5.41992
 20
5.39144
 30
0.0
 40
0.0104167
 41
0.0104167
  0
VERTEX
  8
0
 10
5.42301
 20
5.38704
 30
0.0
 40
0.0104167
 41
0.0104167
  0
VERTEX
  8
0
 10
5.43294
 20
5.36464
 30
0.0
 40
0.0104167
 41
0.0104167
  0
VERTEX
  8
0
 10
5.43658
 20
5.34571
 30
0.0
 40
0.0104167
 41
0.0104167
  0
VERTEX
  8
0
 10
5.43658
 20
5.33936
 30
0.0
 40
0.0104167
 41
0.0104167
  0
SEQEND
 8
0
  0
POLYLINE
  8
0
 62
     7
 66
     1
 10
0
 20
0
 30
0.0
 70
     1
 40
0
 41
0
  0
VERTEX
  8
0
 10
5.49283
 20
5.41021
 30
0.0
 40
0
 41
0
  0
VERTEX
  8
0
 10
5.49257
 20
5.41075
 30
0.0
 40
0
 41
0
  0
VERTEX
  8
0
 10
5.48074
 20
5.4209
 30
0.0
 40
0
 41
0
  0
VERTEX
  8
0
 10
5.45697
 20
5.43001
 30
0.0
 40
0
 41
0
  0
VERTEX
  8
0
 10
5.44911
 20
5.43001
 30
0.0
 40
0
 41
0
  0
VERTEX
  8
0
 10
5.44282
 20
5.42979
 30
0.0
 40
0
 41
0
  0
VERTEX
  8
0
 10
5.42014
 20
5.42051
 30
0.0
 40
0
 41
0
  0
VERTEX
  8
0
 10
5.40896
 20
5.41075
 30
0.0
 40
0
 41
0
  0
VERTEX
  8
0
 10
5.40847
 20
5.41021
 30
0.0
 40
0
 41
0
  0
SEQEND
 8
0
  0
POLYLINE
  8
0
 62
     0
 66
     1
 10
0
 20
0
 30
0.0
 40
0.75
 41
0.75
  0
VERTEX
  8
0
 10
5.49283
 20
5.41021
 30
0.0
 40
0.0104167
 41
0.0104167
  0
VERTEX
  8
0
 10
5.49257
 20
5.41075
 30
0.0
 40
0.0104167
 41
0.0104167
  0
VERTEX
  8
0
 10
5.48074
 20
5.4209
 30
0.0
 40
0.0104167
 41
0.0104167
  0
VERTEX
  8
0
 10
5.45697
 20
5.43001
 30
0.0
 40
0.0104167
 41
0.0104167
  0
VERTEX
  8
0
 10
5.44911
 20
5.43001
 30
0.0
 40
0.0104167
 41
0.0104167
  0
VERTEX
  8
0
 10
5.44282
 20
5.42979
 30
0.0
 40
0.0104167
 41
0.0104167
  0
VERTEX
  8
0
 10
5.42014
 20
5.42051
 30
0.0
 40
0.0104167
 41
0.0104167
  0
VERTEX
  8
0
 10
5.40896
 20
5.41075
 30
0.0
 40
0.0104167
 41
0.0104167
  0
VERTEX
  8
0
 10
5.40847
 20
5.41021
 30
0.0
 40
0.0104167
 41
0.0104167
  0
SEQEND
 8
0
  0
POLYLINE
  8
0
 62
     7
 66
     1
 10
0
 20
0
 30
0.0
 70
     1
 40
0
 41
0
  0
VERTEX
  8
0
 10
5.46474
 20
5.25603
 30
0.0
 40
0
 41
0
  0
VERTEX
  8
0
 10
5.43658
 20
5.25603
 30
0.0
 40
0
 41
0
  0
VERTEX
  8
0
 10
5.43658
 20
5.33936
 30
0.0
 40
0
 41
0
  0
VERTEX
  8
0
 10
5.44358
 20
5.33936
 30
0.0
 40
0
 41
0
  0
VERTEX
  8
0
 10
5.45942
 20
5.33936
 30
0.0
 40
0
 41
0
  0
VERTEX
  8
0
 10
5.46474
 20
5.33936
 30
0.0
 40
0
 41
0
  0
VERTEX
  8
0
 10
5.46474
 20
5.31853
 30
0.0
 40
0
 41
0
  0
VERTEX
  8
0
 10
5.46474
 20
5.27165
 30
0.0
 40
0
 41
0
  0
VERTEX
  8
0
 10
5.46474
 20
5.25603
 30
0.0
 40
0
 41
0
  0
SEQEND
 8
0
  0
POLYLINE
  8
0
 62
     0
 66
     1
 10
0
 20
0
 30
0.0
 70
     1
 40
0.75
 41
0.75
  0
VERTEX
  8
0
 10
5.46474
 20
5.25603
 30
0.0
 40
0.0104167
 41
0.0104167
  0
VERTEX
  8
0
 10
5.43658
 20
5.25603
 30
0.0
 40
0.0104167
 41
0.0104167
  0
VERTEX
  8
0
 10
5.43658
 20
5.33936
 30
0.0
 40
0.0104167
 41
0.0104167
  0
VERTEX
  8
0
 10
5.44358
 20
5.33936
 30
0.0
 40
0.0104167
 41
0.0104167
  0
VERTEX
  8
0
 10
5.45942
 20
5.33936
 30
0.0
 40
0.0104167
 41
0.0104167
  0
VERTEX
  8
0
 10
5.46474
 20
5.33936
 30
0.0
 40
0.0104167
 41
0.0104167
  0
VERTEX
  8
0
 10
5.46474
 20
5.31853
 30
0.0
 40
0.0104167
 41
0.0104167
  0
VERTEX
  8
0
 10
5.46474
 20
5.27165
 30
0.0
 40
0.0104167
 41
0.0104167
  0
VERTEX
  8
0
 10
5.46474
 20
5.25603
 30
0.0
 40
0.0104167
 41
0.0104167
  0
SEQEND
 8
0
  0
POLYLINE
  8
0
 62
     7
 66
     1
 10
0
 20
0
 30
0.0
 70
     1
 40
0
 41
0
  0
VERTEX
  8
0
 10
5.58138
 20
5.28836
 30
0.0
 40
0
 41
0
  0
VERTEX
  8
0
 10
5.57813
 20
5.28711
 30
0.0
 40
0
 41
0
  0
VERTEX
  8
0
 10
5.56847
 20
5.28326
 30
0.0
 40
0
 41
0
  0
VERTEX
  8
0
 10
5.56575
 20
5.28207
 30
0.0
 40
0
 41
0
  0
VERTEX
  8
0
 10
5.56575
 20
5.28207
 30
0.0
 40
0
 41
0
  0
VERTEX
  8
0
 10
5.56575
 20
5.28353
 30
0.0
 40
0
 41
0
  0
VERTEX
  8
0
 10
5.56575
 20
5.28782
 30
0.0
 40
0
 41
0
  0
VERTEX
  8
0
 10
5.56575
 20
5.29215
 30
0.0
 40
0
 41
0
  0
VERTEX
  8
0
 10
5.56575
 20
5.29357
 30
0.0
 40
0
 41
0
  0
VERTEX
  8
0
 10
5.56575
 20
5.29357
 30
0.0
 40
0
 41
0
  0
VERTEX
  8
0
 10
5.56808
 20
5.29292
 30
0.0
 40
0
 41
0
  0
VERTEX
  8
0
 10
5.57807
 20
5.28956
 30
0.0
 40
0
 41
0
  0
VERTEX
  8
0
 10
5.58138
 20
5.28836
 30
0.0
 40
0
 41
0
  0
SEQEND
 8
0
  0
POLYLINE
  8
0
 62
     0
 66
     1
 10
0
 20
0
 30
0.0
 70
     1
 40
0.75
 41
0.75
  0
VERTEX
  8
0
 10
5.58138
 20
5.28836
 30
0.0
 40
0.0104167
 41
0.0104167
  0
VERTEX
  8
0
 10
5.57813
 20
5.28711
 30
0.0
 40
0.0104167
 41
0.0104167
  0
VERTEX
  8
0
 10
5.56847
 20
5.28326
 30
0.0
 40
0.0104167
 41
0.0104167
  0
VERTEX
  8
0
 10
5.56575
 20
5.28207
 30
0.0
 40
0.0104167
 41
0.0104167
  0
VERTEX
  8
0
 10
5.56575
 20
5.28207
 30
0.0
 40
0.0104167
 41
0.0104167
  0
VERTEX
  8
0
 10
5.56575
 20
5.28353
 30
0.0
 40
0.0104167
 41
0.0104167
  0
VERTEX
  8
0
 10
5.56575
 20
5.28782
 30
0.0
 40
0.0104167
 41
0.0104167
  0
VERTEX
  8
0
 10
5.56575
 20
5.29215
 30
0.0
 40
0.0104167
 41
0.0104167
  0
VERTEX
  8
0
 10
5.56575
 20
5.29357
 30
0.0
 40
0.0104167
 41
0.0104167
  0
VERTEX
  8
0
 10
5.56575
 20
5.29357
 30
0.0
 40
0.0104167
 41
0.0104167
  0
VERTEX
  8
0
 10
5.56808
 20
5.29292
 30
0.0
 40
0.0104167
 41
0.0104167
  0
VERTEX
  8
0
 10
5.57807
 20
5.28956
 30
0.0
 40
0.0104167
 41
0.0104167
  0
VERTEX
  8
0
 10
5.58138
 20
5.28836
 30
0.0
 40
0.0104167
 41
0.0104167
  0
SEQEND
 8
0
  0
POLYLINE
  8
0
 62
     7
 66
     1
 10
0
 20
0
 30
0.0
 70
     1
 40
0
 41
0
  0
VERTEX
  8
0
 10
5.32096
 20
5.28836
 30
0.0
 40
0
 41
0
  0
VERTEX
  8
0
 10
5.32417
 20
5.28717
 30
0.0
 40
0
 41
0
  0
VERTEX
  8
0
 10
5.33382
 20
5.28326
 30
0.0
 40
0
 41
0
  0
VERTEX
  8
0
 10
5.33658
 20
5.28207
 30
0.0
 40
0
 41
0
  0
VERTEX
  8
0
 10
5.33658
 20
5.28207
 30
0.0
 40
0
 41
0
  0
VERTEX
  8
0
 10
5.33658
 20
5.28353
 30
0.0
 40
0
 41
0
  0
VERTEX
  8
0
 10
5.33658
 20
5.28782
 30
0.0
 40
0
 41
0
  0
VERTEX
  8
0
 10
5.33658
 20
5.29215
 30
0.0
 40
0
 41
0
  0
VERTEX
  8
0
 10
5.33658
 20
5.29357
 30
0.0
 40
0
 41
0
  0
VERTEX
  8
0
 10
5.33658
 20
5.29357
 30
0.0
 40
0
 41
0
  0
VERTEX
  8
0
 10
5.33421
 20
5.29292
 30
0.0
 40
0
 41
0
  0
VERTEX
  8
0
 10
5.32422
 20
5.28956
 30
0.0
 40
0
 41
0
  0
VERTEX
  8
0
 10
5.32096
 20
5.28836
 30
0.0
 40
0
 41
0
  0
SEQEND
 8
0
  0
POLYLINE
  8
0
 62
     0
 66
     1
 10
0
 20
0
 30
0.0
 70
     1
 40
0.75
 41
0.75
  0
VERTEX
  8
0
 10
5.32096
 20
5.28836
 30
0.0
 40
0.0104167
 41
0.0104167
  0
VERTEX
  8
0
 10
5.32417
 20
5.28717
 30
0.0
 40
0.0104167
 41
0.0104167
  0
VERTEX
  8
0
 10
5.33382
 20
5.28326
 30
0.0
 40
0.0104167
 41
0.0104167
  0
VERTEX
  8
0
 10
5.33658
 20
5.28207
 30
0.0
 40
0.0104167
 41
0.0104167
  0
VERTEX
  8
0
 10
5.33658
 20
5.28207
 30
0.0
 40
0.0104167
 41
0.0104167
  0
VERTEX
  8
0
 10
5.33658
 20
5.28353
 30
0.0
 40
0.0104167
 41
0.0104167
  0
VERTEX
  8
0
 10
5.33658
 20
5.28782
 30
0.0
 40
0.0104167
 41
0.0104167
  0
VERTEX
  8
0
 10
5.33658
 20
5.29215
 30
0.0
 40
0.0104167
 41
0.0104167
  0
VERTEX
  8
0
 10
5.33658
 20
5.29357
 30
0.0
 40
0.0104167
 41
0.0104167
  0
VERTEX
  8
0
 10
5.33658
 20
5.29357
 30
0.0
 40
0.0104167
 41
0.0104167
  0
VERTEX
  8
0
 10
5.33421
 20
5.29292
 30
0.0
 40
0.0104167
 41
0.0104167
  0
VERTEX
  8
0
 10
5.32422
 20
5.28956
 30
0.0
 40
0.0104167
 41
0.0104167
  0
VERTEX
  8
0
 10
5.32096
 20
5.28836
 30
0.0
 40
0.0104167
 41
0.0104167
  0
SEQEND
 8
0
  0
POLYLINE
  8
0
 62
     7
 66
     1
 10
0
 20
0
 30
0.0
 70
     1
 40
0
 41
0
  0
VERTEX
  8
0
 10
0.969564
 20
5.87614
 30
0.0
 40
0
 41
0
  0
VERTEX
  8
0
 10
1.59457
 20
5.87614
 30
0.0
 40
0
 41
0
  0
VERTEX
  8
0
 10
1.59457
 20
5.25114
 30
0.0
 40
0
 41
0
  0
VERTEX
  8
0
 10
0.969564
 20
5.25114
 30
0.0
 40
0
 41
0
  0
VERTEX
  8
0
 10
0.969564
 20
5.87614
 30
0.0
 40
0
 41
0
  0
SEQEND
 8
0
  0
POLYLINE
  8
0
 62
     0
 66
     1
 10
0
 20
0
 30
0.0
 70
     1
 40
0.75
 41
0.75
  0
VERTEX
  8
0
 10
0.969564
 20
5.87614
 30
0.0
 40
0.0104167
 41
0.0104167
  0
VERTEX
  8
0
 10
1.59457
 20
5.87614
 30
0.0
 40
0.0104167
 41
0.0104167
  0
VERTEX
  8
0
 10
1.59457
 20
5.25114
 30
0.0
 40
0.0104167
 41
0.0104167
  0
VERTEX
  8
0
 10
0.969564
 20
5.25114
 30
0.0
 40
0.0104167
 41
0.0104167
  0
VERTEX
  8
0
 10
0.969564
 20
5.87614
 30
0.0
 40
0.0104167
 41
0.0104167
  0
SEQEND
 8
0
  0
POLYLINE
  8
0
 62
     0
 66
     1
 10
0
 20
0
 30
0.0
 40
0.75
 41
0.75
  0
VERTEX
  8
0
 10
1.59457
 20
5.25114
 30
0.0
 40
0.0104167
 41
0.0104167
  0
VERTEX
  8
0
 10
1.28103
 20
5.66575
 30
0.0
 40
0.0104167
 41
0.0104167
  0
VERTEX
  8
0
 10
1.28103
 20
5.45324
 30
0.0
 40
0.0104167
 41
0.0104167
  0
VERTEX
  8
0
 10
0.970649
 20
5.87614
 30
0.0
 40
0.0104167
 41
0.0104167
  0
SEQEND
 8
0
  0
POLYLINE
  8
0
 62
     7
 66
     1
 10
0
 20
0
 30
0.0
 70
     1
 40
0
 41
0
  0
VERTEX
  8
0
 10
1.815
 20
9.04047
 30
0.0
 40
0
 41
0
  0
VERTEX
  8
0
 10
2.3189
 20
9.04047
 30
0.0
 40
0
 41
0
  0
VERTEX
  8
0
 10
2.3189
 20
8.48383
 30
0.0
 40
0
 41
0
  0
VERTEX
  8
0
 10
1.815
 20
8.48383
 30
0.0
 40
0
 41
0
  0
VERTEX
  8
0
 10
1.815
 20
9.04047
 30
0.0
 40
0
 41
0
  0
SEQEND
 8
0
  0
POLYLINE
  8
0
 62
     0
 66
     1
 10
0
 20
0
 30
0.0
 70
     1
 40
0.604725
 41
0.604725
  0
VERTEX
  8
0
 10
1.815
 20
9.04047
 30
0.0
 40
0.00839896
 41
0.00839896
  0
VERTEX
  8
0
 10
2.3189
 20
9.04047
 30
0.0
 40
0.00839896
 41
0.00839896
  0
VERTEX
  8
0
 10
2.3189
 20
8.48383
 30
0.0
 40
0.00839896
 41
0.00839896
  0
VERTEX
  8
0
 10
1.815
 20
8.48383
 30
0.0
 40
0.00839896
 41
0.00839896
  0
VERTEX
  8
0
 10
1.815
 20
9.04047
 30
0.0
 40
0.00839896
 41
0.00839896
  0
SEQEND
 8
0
  0
POLYLINE
  8
0
 62
     0
 66
     1
 10
0
 20
0
 30
0.0
 40
0.604725
 41
0.604725
  0
VERTEX
  8
0
 10
1.815
 20
9.04047
 30
0.0
 40
0.00839896
 41
0.00839896
  0
VERTEX
  8
0
 10
2.06694
 20
8.69629
 30
0.0
 40
0.00839896
 41
0.00839896
  0
VERTEX
  8
0
 10
2.06694
 20
8.86328
 30
0.0
 40
0.00839896
 41
0.00839896
  0
VERTEX
  8
0
 10
2.3189
 20
8.51818
 30
0.0
 40
0.00839896
 41
0.00839896
  0
SEQEND
 8
0
  0
POLYLINE
  8
0
 62
     7
 66
     1
 10
0
 20
0
 30
0.0
 70
     1
 40
0
 41
0
  0
VERTEX
  8
0
 10
1.815
 20
8.52094
 30
0.0
 40
0
 41
0
  0
VERTEX
  8
0
 10
2.3189
 20
8.52094
 30
0.0
 40
0
 41
0
  0
VERTEX
  8
0
 10
2.3189
 20
8.48383
 30
0.0
 40
0
 41
0
  0
VERTEX
  8
0
 10
1.815
 20
8.48383
 30
0.0
 40
0
 41
0
  0
VERTEX
  8
0
 10
1.815
 20
8.52094
 30
0.0
 40
0
 41
0
  0
SEQEND
 8
0
  0
POLYLINE
  8
0
 62
     0
 66
     1
 10
0
 20
0
 30
0.0
 70
     1
 40
0.604725
 41
0.604725
  0
VERTEX
  8
0
 10
1.815
 20
8.52094
 30
0.0
 40
0.00839896
 41
0.00839896
  0
VERTEX
  8
0
 10
2.3189
 20
8.52094
 30
0.0
 40
0.00839896
 41
0.00839896
  0
VERTEX
  8
0
 10
2.3189
 20
8.48383
 30
0.0
 40
0.00839896
 41
0.00839896
  0
VERTEX
  8
0
 10
1.815
 20
8.48383
 30
0.0
 40
0.00839896
 41
0.00839896
  0
VERTEX
  8
0
 10
1.815
 20
8.52094
 30
0.0
 40
0.00839896
 41
0.00839896
  0
SEQEND
 8
0
  0
POLYLINE
  8
0
 62
     7
 66
     1
 10
0
 20
0
 30
0.0
 70
     1
 40
0
 41
0
  0
VERTEX
  8
0
 10
1.31103
 20
9.04075
 30
0.0
 40
0
 41
0
  0
VERTEX
  8
0
 10
1.815
 20
9.04075
 30
0.0
 40
0
 41
0
  0
VERTEX
  8
0
 10
1.815
 20
8.48301
 30
0.0
 40
0
 41
0
  0
VERTEX
  8
0
 10
1.31103
 20
8.48301
 30
0.0
 40
0
 41
0
  0
VERTEX
  8
0
 10
1.31103
 20
9.04075
 30
0.0
 40
0
 41
0
  0
SEQEND
 8
0
  0
POLYLINE
  8
0
 62
     0
 66
     1
 10
0
 20
0
 30
0.0
 70
     1
 40
0.604725
 41
0.604725
  0
VERTEX
  8
0
 10
1.31103
 20
9.04075
 30
0.0
 40
0.00839896
 41
0.00839896
  0
VERTEX
  8
0
 10
1.815
 20
9.04075
 30
0.0
 40
0.00839896
 41
0.00839896
  0
VERTEX
  8
0
 10
1.815
 20
8.48301
 30
0.0
 40
0.00839896
 41
0.00839896
  0
VERTEX
  8
0
 10
1.31103
 20
8.48301
 30
0.0
 40
0.00839896
 41
0.00839896
  0
VERTEX
  8
0
 10
1.31103
 20
9.04075
 30
0.0
 40
0.00839896
 41
0.00839896
  0
SEQEND
 8
0
  0
POLYLINE
  8
0
 62
     0
 66
     1
 10
0
 20
0
 30
0.0
 40
0.604725
 41
0.604725
  0
VERTEX
  8
0
 10
1.31103
 20
9.04075
 30
0.0
 40
0.00839896
 41
0.00839896
  0
VERTEX
  8
0
 10
1.56304
 20
8.69586
 30
0.0
 40
0.00839896
 41
0.00839896
  0
VERTEX
  8
0
 10
1.56304
 20
8.86317
 30
0.0
 40
0.00839896
 41
0.00839896
  0
VERTEX
  8
0
 10
1.815
 20
8.51742
 30
0.0
 40
0.00839896
 41
0.00839896
  0
SEQEND
 8
0
  0
POLYLINE
  8
0
 62
     7
 66
     1
 10
0
 20
0
 30
0.0
 70
     1
 40
0
 41
0
  0
VERTEX
  8
0
 10
1.31103
 20
8.52018
 30
0.0
 40
0
 41
0
  0
VERTEX
  8
0
 10
1.815
 20
8.52018
 30
0.0
 40
0
 41
0
  0
VERTEX
  8
0
 10
1.815
 20
8.48301
 30
0.0
 40
0
 41
0
  0
VERTEX
  8
0
 10
1.31103
 20
8.48301
 30
0.0
 40
0
 41
0
  0
VERTEX
  8
0
 10
1.31103
 20
8.52018
 30
0.0
 40
0
 41
0
  0
SEQEND
 8
0
  0
POLYLINE
  8
0
 62
     0
 66
     1
 10
0
 20
0
 30
0.0
 70
     1
 40
0.604725
 41
0.604725
  0
VERTEX
  8
0
 10
1.31103
 20
8.52018
 30
0.0
 40
0.00839896
 41
0.00839896
  0
VERTEX
  8
0
 10
1.815
 20
8.52018
 30
0.0
 40
0.00839896
 41
0.00839896
  0
VERTEX
  8
0
 10
1.815
 20
8.48301
 30
0.0
 40
0.00839896
 41
0.00839896
  0
VERTEX
  8
0
 10
1.31103
 20
8.48301
 30
0.0
 40
0.00839896
 41
0.00839896
  0
VERTEX
  8
0
 10
1.31103
 20
8.52018
 30
0.0
 40
0.00839896
 41
0.00839896
  0
SEQEND
 8
0
  0
POLYLINE
  8
0
 62
     7
 66
     1
 10
0
 20
0
 30
0.0
 70
     1
 40
0
 41
0
  0
VERTEX
  8
0
 10
5.14876
 20
7.90192
 30
0.0
 40
0
 41
0
  0
VERTEX
  8
0
 10
5.62907
 20
7.90192
 30
0.0
 40
0
 41
0
  0
VERTEX
  8
0
 10
5.62907
 20
7.46962
 30
0.0
 40
0
 41
0
  0
VERTEX
  8
0
 10
5.14876
 20
7.46962
 30
0.0
 40
0
 41
0
  0
VERTEX
  8
0
 10
5.14876
 20
7.90192
 30
0.0
 40
0
 41
0
  0
SEQEND
 8
0
  0
POLYLINE
  8
0
 62
     0
 66
     1
 10
0
 20
0
 30
0.0
 70
     1
 40
0.75
 41
0.75
  0
VERTEX
  8
0
 10
5.14876
 20
7.90192
 30
0.0
 40
0.0104167
 41
0.0104167
  0
VERTEX
  8
0
 10
5.62907
 20
7.90192
 30
0.0
 40
0.0104167
 41
0.0104167
  0
VERTEX
  8
0
 10
5.62907
 20
7.46962
 30
0.0
 40
0.0104167
 41
0.0104167
  0
VERTEX
  8
0
 10
5.14876
 20
7.46962
 30
0.0
 40
0.0104167
 41
0.0104167
  0
VERTEX
  8
0
 10
5.14876
 20
7.90192
 30
0.0
 40
0.0104167
 41
0.0104167
  0
SEQEND
 8
0
  0
POLYLINE
  8
0
 62
     7
 66
     1
 10
0
 20
0
 30
0.0
 70
     1
 40
0
 41
0
  0
VERTEX
  8
0
 10
6.07622
 20
6.08078
 30
0.0
 40
0
 41
0
  0
VERTEX
  8
0
 10
6.07656
 20
6.08203
 30
0.0
 40
0
 41
0
  0
VERTEX
  8
0
 10
6.08518
 20
6.09289
 30
0.0
 40
0
 41
0
  0
VERTEX
  8
0
 10
6.08653
 20
6.09375
 30
0.0
 40
0
 41
0
  0
VERTEX
  8
0
 10
6.12067
 20
6.11931
 30
0.0
 40
0
 41
0
  0
VERTEX
  8
0
 10
6.2405
 20
6.17275
 30
0.0
 40
0
 41
0
  0
VERTEX
  8
0
 10
6.41433
 20
6.21528
 30
0.0
 40
0
 41
0
  0
VERTEX
  8
0
 10
6.5804
 20
6.23258
 30
0.0
 40
0
 41
0
  0
VERTEX
  8
0
 10
6.67865
 20
6.23583
 30
0.0
 40
0
 41
0
  0
VERTEX
  8
0
 10
6.71143
 20
6.23583
 30
0.0
 40
0
 41
0
  0
VERTEX
  8
0
 10
7.11149
 20
6.23583
 30
0.0
 40
0
 41
0
  0
VERTEX
  8
0
 10
7.11149
 20
6.21039
 30
0.0
 40
0
 41
0
  0
VERTEX
  8
0
 10
6.71283
 20
6.21039
 30
0.0
 40
0
 41
0
  0
VERTEX
  8
0
 10
6.69971
 20
6.21007
 30
0.0
 40
0
 41
0
  0
VERTEX
  8
0
 10
6.66038
 20
6.20942
 30
0.0
 40
0
 41
0
  0
VERTEX
  8
0
 10
6.59446
 20
6.20747
 30
0.0
 40
0
 41
0
  0
VERTEX
  8
0
 10
6.51828
 20
6.20247
 30
0.0
 40
0
 41
0
  0
VERTEX
  8
0
 10
6.43517
 20
6.19265
 30
0.0
 40
0
 41
0
  0
VERTEX
  8
0
 10
6.34831
 20
6.17589
 30
0.0
 40
0
 41
0
  0
VERTEX
  8
0
 10
6.26107
 20
6.15033
 30
0.0
 40
0
 41
0
  0
VERTEX
  8
0
 10
6.1766
 20
6.11399
 30
0.0
 40
0
 41
0
  0
VERTEX
  8
0
 10
6.11654
 20
6.07878
 30
0.0
 40
0
 41
0
  0
VERTEX
  8
0
 10
6.09819
 20
6.06489
 30
0.0
 40
0
 41
0
  0
VERTEX
  8
0
 10
6.0964
 20
6.06358
 30
0.0
 40
0
 41
0
  0
VERTEX
  8
0
 10
6.08453
 20
6.06819
 30
0.0
 40
0
 41
0
  0
VERTEX
  8
0
 10
6.07622
 20
6.07764
 30
0.0
 40
0
 41
0
  0
VERTEX
  8
0
 10
6.07622
 20
6.08078
 30
0.0
 40
0
 41
0
  0
SEQEND
 8
0
  0
POLYLINE
  8
0
 62
     0
 66
     1
 10
0
 20
0
 30
0.0
 70
     1
 40
0.750001
 41
0.750001
  0
VERTEX
  8
0
 10
6.07622
 20
6.08078
 30
0.0
 40
0.0104167
 41
0.0104167
  0
VERTEX
  8
0
 10
6.07656
 20
6.08203
 30
0.0
 40
0.0104167
 41
0.0104167
  0
VERTEX
  8
0
 10
6.08518
 20
6.09289
 30
0.0
 40
0.0104167
 41
0.0104167
  0
VERTEX
  8
0
 10
6.08653
 20
6.09375
 30
0.0
 40
0.0104167
 41
0.0104167
  0
VERTEX
  8
0
 10
6.12067
 20
6.11931
 30
0.0
 40
0.0104167
 41
0.0104167
  0
VERTEX
  8
0
 10
6.2405
 20
6.17275
 30
0.0
 40
0.0104167
 41
0.0104167
  0
VERTEX
  8
0
 10
6.41433
 20
6.21528
 30
0.0
 40
0.0104167
 41
0.0104167
  0
VERTEX
  8
0
 10
6.5804
 20
6.23258
 30
0.0
 40
0.0104167
 41
0.0104167
  0
VERTEX
  8
0
 10
6.67865
 20
6.23583
 30
0.0
 40
0.0104167
 41
0.0104167
  0
VERTEX
  8
0
 10
6.71143
 20
6.23583
 30
0.0
 40
0.0104167
 41
0.0104167
  0
VERTEX
  8
0
 10
7.11149
 20
6.23583
 30
0.0
 40
0.0104167
 41
0.0104167
  0
VERTEX
  8
0
 10
7.11149
 20
6.21039
 30
0.0
 40
0.0104167
 41
0.0104167
  0
VERTEX
  8
0
 10
6.71283
 20
6.21039
 30
0.0
 40
0.0104167
 41
0.0104167
  0
VERTEX
  8
0
 10
6.69971
 20
6.21007
 30
0.0
 40
0.0104167
 41
0.0104167
  0
VERTEX
  8
0
 10
6.66038
 20
6.20942
 30
0.0
 40
0.0104167
 41
0.0104167
  0
VERTEX
  8
0
 10
6.59446
 20
6.20747
 30
0.0
 40
0.0104167
 41
0.0104167
  0
VERTEX
  8
0
 10
6.51828
 20
6.20247
 30
0.0
 40
0.0104167
 41
0.0104167
  0
VERTEX
  8
0
 10
6.43517
 20
6.19265
 30
0.0
 40
0.0104167
 41
0.0104167
  0
VERTEX
  8
0
 10
6.34831
 20
6.17589
 30
0.0
 40
0.0104167
 41
0.0104167
  0
VERTEX
  8
0
 10
6.26107
 20
6.15033
 30
0.0
 40
0.0104167
 41
0.0104167
  0
VERTEX
  8
0
 10
6.1766
 20
6.11399
 30
0.0
 40
0.0104167
 41
0.0104167
  0
VERTEX
  8
0
 10
6.11654
 20
6.07878
 30
0.0
 40
0.0104167
 41
0.0104167
  0
VERTEX
  8
0
 10
6.09819
 20
6.06489
 30
0.0
 40
0.0104167
 41
0.0104167
  0
VERTEX
  8
0
 10
6.0964
 20
6.06358
 30
0.0
 40
0.0104167
 41
0.0104167
  0
VERTEX
  8
0
 10
6.08453
 20
6.06819
 30
0.0
 40
0.0104167
 41
0.0104167
  0
VERTEX
  8
0
 10
6.07622
 20
6.07764
 30
0.0
 40
0.0104167
 41
0.0104167
  0
VERTEX
  8
0
 10
6.07622
 20
6.08078
 30
0.0
 40
0.0104167
 41
0.0104167
  0
SEQEND
 8
0
  0
POLYLINE
  8
0
 62
     7
 66
     1
 10
0
 20
0
 30
0.0
 70
     1
 40
0
 41
0
  0
VERTEX
  8
0
 10
6.07411
 20
6.07026
 30
0.0
 40
0
 41
0
  0
VERTEX
  8
0
 10
6.07286
 20
6.06999
 30
0.0
 40
0
 41
0
  0
VERTEX
  8
0
 10
6.06201
 20
6.06315
 30
0.0
 40
0
 41
0
  0
VERTEX
  8
0
 10
6.06108
 20
6.06207
 30
0.0
 40
0
 41
0
  0
VERTEX
  8
0
 10
6.03657
 20
6.03614
 30
0.0
 40
0
 41
0
  0
VERTEX
  8
0
 10
5.9821
 20
5.94015
 30
0.0
 40
0
 41
0
  0
VERTEX
  8
0
 10
5.93956
 20
5.80263
 30
0.0
 40
0
 41
0
  0
VERTEX
  8
0
 10
5.92225
 20
5.67117
 30
0.0
 40
0
 41
0
  0
VERTEX
  8
0
 10
5.919
 20
5.59343
 30
0.0
 40
0
 41
0
  0
VERTEX
  8
0
 10
5.919
 20
5.56749
 30
0.0
 40
0
 41
0
  0
VERTEX
  8
0
 10
5.919
 20
5.25082
 30
0.0
 40
0
 41
0
  0
VERTEX
  8
0
 10
5.9445
 20
5.25082
 30
0.0
 40
0
 41
0
  0
VERTEX
  8
0
 10
5.9445
 20
5.56635
 30
0.0
 40
0
 41
0
  0
VERTEX
  8
0
 10
5.94476
 20
5.57676
 30
0.0
 40
0
 41
0
  0
VERTEX
  8
0
 10
5.94542
 20
5.60792
 30
0.0
 40
0
 41
0
  0
VERTEX
  8
0
 10
5.94743
 20
5.6601
 30
0.0
 40
0
 41
0
  0
VERTEX
  8
0
 10
5.95236
 20
5.72038
 30
0.0
 40
0
 41
0
  0
VERTEX
  8
0
 10
5.96224
 20
5.78614
 30
0.0
 40
0
 41
0
  0
VERTEX
  8
0
 10
5.97894
 20
5.85487
 30
0.0
 40
0
 41
0
  0
VERTEX
  8
0
 10
6.00456
 20
5.92393
 30
0.0
 40
0
 41
0
  0
VERTEX
  8
0
 10
6.0409
 20
5.99083
 30
0.0
 40
0
 41
0
  0
VERTEX
  8
0
 10
6.07639
 20
6.03863
 30
0.0
 40
0
 41
0
  0
VERTEX
  8
0
 10
6.09
 20
6.05285
 30
0.0
 40
0
 41
0
  0
VERTEX
  8
0
 10
6.09093
 20
6.05388
 30
0.0
 40
0
 41
0
  0
VERTEX
  8
0
 10
6.08669
 20
6.06369
 30
0.0
 40
0
 41
0
  0
VERTEX
  8
0
 10
6.07726
 20
6.07026
 30
0.0
 40
0
 41
0
  0
VERTEX
  8
0
 10
6.07411
 20
6.07026
 30
0.0
 40
0
 41
0
  0
SEQEND
 8
0
  0
POLYLINE
  8
0
 62
     0
 66
     1
 10
0
 20
0
 30
0.0
 70
     1
 40
0.75
 41
0.75
  0
VERTEX
  8
0
 10
6.07411
 20
6.07026
 30
0.0
 40
0.0104167
 41
0.0104167
  0
VERTEX
  8
0
 10
6.07286
 20
6.06999
 30
0.0
 40
0.0104167
 41
0.0104167
  0
VERTEX
  8
0
 10
6.06201
 20
6.06315
 30
0.0
 40
0.0104167
 41
0.0104167
  0
VERTEX
  8
0
 10
6.06108
 20
6.06207
 30
0.0
 40
0.0104167
 41
0.0104167
  0
VERTEX
  8
0
 10
6.03657
 20
6.03614
 30
0.0
 40
0.0104167
 41
0.0104167
  0
VERTEX
  8
0
 10
5.9821
 20
5.94015
 30
0.0
 40
0.0104167
 41
0.0104167
  0
VERTEX
  8
0
 10
5.93956
 20
5.80263
 30
0.0
 40
0.0104167
 41
0.0104167
  0
VERTEX
  8
0
 10
5.92225
 20
5.67117
 30
0.0
 40
0.0104167
 41
0.0104167
  0
VERTEX
  8
0
 10
5.919
 20
5.59343
 30
0.0
 40
0.0104167
 41
0.0104167
  0
VERTEX
  8
0
 10
5.919
 20
5.56749
 30
0.0
 40
0.0104167
 41
0.0104167
  0
VERTEX
  8
0
 10
5.919
 20
5.25082
 30
0.0
 40
0.0104167
 41
0.0104167
  0
VERTEX
  8
0
 10
5.9445
 20
5.25082
 30
0.0
 40
0.0104167
 41
0.0104167
  0
VERTEX
  8
0
 10
5.9445
 20
5.56635
 30
0.0
 40
0.0104167
 41
0.0104167
  0
VERTEX
  8
0
 10
5.94476
 20
5.57676
 30
0.0
 40
0.0104167
 41
0.0104167
  0
VERTEX
  8
0
 10
5.94542
 20
5.60792
 30
0.0
 40
0.0104167
 41
0.0104167
  0
VERTEX
  8
0
 10
5.94743
 20
5.6601
 30
0.0
 40
0.0104167
 41
0.0104167
  0
VERTEX
  8
0
 10
5.95236
 20
5.72038
 30
0.0
 40
0.0104167
 41
0.0104167
  0
VERTEX
  8
0
 10
5.96224
 20
5.78614
 30
0.0
 40
0.0104167
 41
0.0104167
  0
VERTEX
  8
0
 10
5.97894
 20
5.85487
 30
0.0
 40
0.0104167
 41
0.0104167
  0
VERTEX
  8
0
 10
6.00456
 20
5.92393
 30
0.0
 40
0.0104167
 41
0.0104167
  0
VERTEX
  8
0
 10
6.0409
 20
5.99083
 30
0.0
 40
0.0104167
 41
0.0104167
  0
VERTEX
  8
0
 10
6.07639
 20
6.03863
 30
0.0
 40
0.0104167
 41
0.0104167
  0
VERTEX
  8
0
 10
6.09
 20
6.05285
 30
0.0
 40
0.0104167
 41
0.0104167
  0
VERTEX
  8
0
 10
6.09093
 20
6.05388
 30
0.0
 40
0.0104167
 41
0.0104167
  0
VERTEX
  8
0
 10
6.08669
 20
6.06369
 30
0.0
 40
0.0104167
 41
0.0104167
  0
VERTEX
  8
0
 10
6.07726
 20
6.07026
 30
0.0
 40
0.0104167
 41
0.0104167
  0
VERTEX
  8
0
 10
6.07411
 20
6.07026
 30
0.0
 40
0.0104167
 41
0.0104167
  0
SEQEND
 8
0
  0
POLYLINE
  8
0
 62
     7
 66
     1
 10
0
 20
0
 30
0.0
 70
     1
 40
0
 41
0
  0
VERTEX
  8
0
 10
5.94786
 20
5.41932
 30
0.0
 40
0
 41
0
  0
VERTEX
  8
0
 10
6.26047
 20
5.41932
 30
0.0
 40
0
 41
0
  0
VERTEX
  8
0
 10
6.26047
 20
5.24886
 30
0.0
 40
0
 41
0
  0
VERTEX
  8
0
 10
5.94786
 20
5.24886
 30
0.0
 40
0
 41
0
  0
VERTEX
  8
0
 10
5.94786
 20
5.41932
 30
0.0
 40
0
 41
0
  0
SEQEND
 8
0
  0
POLYLINE
  8
0
 62
     0
 66
     1
 10
0
 20
0
 30
0.0
 70
     1
 40
0.37515
 41
0.37515
  0
VERTEX
  8
0
 10
5.94786
 20
5.41932
 30
0.0
 40
0.00521042
 41
0.00521042
  0
VERTEX
  8
0
 10
6.26047
 20
5.41932
 30
0.0
 40
0.00521042
 41
0.00521042
  0
VERTEX
  8
0
 10
6.26047
 20
5.24886
 30
0.0
 40
0.00521042
 41
0.00521042
  0
VERTEX
  8
0
 10
5.94786
 20
5.24886
 30
0.0
 40
0.00521042
 41
0.00521042
  0
VERTEX
  8
0
 10
5.94786
 20
5.41932
 30
0.0
 40
0.00521042
 41
0.00521042
  0
SEQEND
 8
0
  0
POLYLINE
  8
0
 62
     0
 66
     1
 10
0
 20
0
 30
0.0
 40
0.37515
 41
0.37515
  0
VERTEX
  8
0
 10
6.26047
 20
5.41932
 30
0.0
 40
0.00521042
 41
0.00521042
  0
VERTEX
  8
0
 10
6.0536
 20
5.3341
 30
0.0
 40
0.00521042
 41
0.00521042
  0
VERTEX
  8
0
 10
6.14899
 20
5.3341
 30
0.0
 40
0.00521042
 41
0.00521042
  0
VERTEX
  8
0
 10
5.94786
 20
5.24886
 30
0.0
 40
0.00521042
 41
0.00521042
  0
SEQEND
 8
0
  0
POLYLINE
  8
0
 62
     7
 66
     1
 10
0
 20
0
 30
0.0
 70
     1
 40
0
 41
0
  0
VERTEX
  8
0
 10
6.74235
 20
6.17269
 30
0.0
 40
0
 41
0
  0
VERTEX
  8
0
 10
7.11035
 20
6.17269
 30
0.0
 40
0
 41
0
  0
VERTEX
  8
0
 10
7.11035
 20
5.25082
 30
0.0
 40
0
 41
0
  0
VERTEX
  8
0
 10
6.74235
 20
5.25082
 30
0.0
 40
0
 41
0
  0
VERTEX
  8
0
 10
6.74235
 20
6.17269
 30
0.0
 40
0
 41
0
  0
SEQEND
 8
0
  0
POLYLINE
  8
0
 62
     0
 66
     1
 10
0
 20
0
 30
0.0
 70
     1
 40
0.75
 41
0.75
  0
VERTEX
  8
0
 10
6.74235
 20
6.17269
 30
0.0
 40
0.0104167
 41
0.0104167
  0
VERTEX
  8
0
 10
6.74235
 20
5.25082
 30
0.0
 40
0.0104167
 41
0.0104167
  0
VERTEX
  8
0
 10
7.11035
 20
5.25082
 30
0.0
 40
0.0104167
 41
0.0104167
  0
VERTEX
  8
0
 10
7.11035
 20
6.17269
 30
0.0
 40
0.0104167
 41
0.0104167
  0
VERTEX
  8
0
 10
6.74235
 20
6.17269
 30
0.0
 40
0.0104167
 41
0.0104167
  0
SEQEND
 8
0
  0
POLYLINE
  8
0
 62
     253
 66
     1
 10
0
 20
0
 30
0.0
 40
0.375
 41
0.375
  0
VERTEX
  8
0
 10
7.08583
 20
6.17269
 30
0.0
 40
0.00520833
 41
0.00520833
  0
VERTEX
  8
0
 10
7.08583
 20
5.25087
 30
0.0
 40
0.00520833
 41
0.00520833
  0
SEQEND
 8
0
  0
POLYLINE
  8
0
 62
     253
 66
     1
 10
0
 20
0
 30
0.0
 40
0.375
 41
0.375
  0
VERTEX
  8
0
 10
7.06131
 20
6.17269
 30
0.0
 40
0.00520833
 41
0.00520833
  0
VERTEX
  8
0
 10
7.06131
 20
5.25087
 30
0.0
 40
0.00520833
 41
0.00520833
  0
SEQEND
 8
0
  0
POLYLINE
  8
0
 62
     253
 66
     1
 10
0
 20
0
 30
0.0
 40
0.375
 41
0.375
  0
VERTEX
  8
0
 10
7.03674
 20
6.17269
 30
0.0
 40
0.00520833
 41
0.00520833
  0
VERTEX
  8
0
 10
7.03674
 20
5.25087
 30
0.0
 40
0.00520833
 41
0.00520833
  0
SEQEND
 8
0
  0
POLYLINE
  8
0
 62
     253
 66
     1
 10
0
 20
0
 30
0.0
 40
0.375
 41
0.375
  0
VERTEX
  8
0
 10
7.01221
 20
6.17269
 30
0.0
 40
0.00520833
 41
0.00520833
  0
VERTEX
  8
0
 10
7.01221
 20
5.25087
 30
0.0
 40
0.00520833
 41
0.00520833
  0
SEQEND
 8
0
  0
POLYLINE
  8
0
 62
     253
 66
     1
 10
0
 20
0
 30
0.0
 40
0.375
 41
0.375
  0
VERTEX
  8
0
 10
6.98768
 20
6.17269
 30
0.0
 40
0.00520833
 41
0.00520833
  0
VERTEX
  8
0
 10
6.98768
 20
5.25087
 30
0.0
 40
0.00520833
 41
0.00520833
  0
SEQEND
 8
0
  0
POLYLINE
  8
0
 62
     253
 66
     1
 10
0
 20
0
 30
0.0
 40
0.375
 41
0.375
  0
VERTEX
  8
0
 10
6.96317
 20
6.17269
 30
0.0
 40
0.00520833
 41
0.00520833
  0
VERTEX
  8
0
 10
6.96317
 20
5.25087
 30
0.0
 40
0.00520833
 41
0.00520833
  0
SEQEND
 8
0
  0
POLYLINE
  8
0
 62
     253
 66
     1
 10
0
 20
0
 30
0.0
 40
0.375
 41
0.375
  0
VERTEX
  8
0
 10
6.93864
 20
6.17269
 30
0.0
 40
0.00520833
 41
0.00520833
  0
VERTEX
  8
0
 10
6.93864
 20
5.25087
 30
0.0
 40
0.00520833
 41
0.00520833
  0
SEQEND
 8
0
  0
POLYLINE
  8
0
 62
     253
 66
     1
 10
0
 20
0
 30
0.0
 40
0.375
 41
0.375
  0
VERTEX
  8
0
 10
6.91407
 20
6.17269
 30
0.0
 40
0.00520833
 41
0.00520833
  0
VERTEX
  8
0
 10
6.91407
 20
5.25087
 30
0.0
 40
0.00520833
 41
0.00520833
  0
SEQEND
 8
0
  0
POLYLINE
  8
0
 62
     253
 66
     1
 10
0
 20
0
 30
0.0
 40
0.375
 41
0.375
  0
VERTEX
  8
0
 10
6.88954
 20
6.17269
 30
0.0
 40
0.00520833
 41
0.00520833
  0
VERTEX
  8
0
 10
6.88954
 20
5.25087
 30
0.0
 40
0.00520833
 41
0.00520833
  0
SEQEND
 8
0
  0
POLYLINE
  8
0
 62
     253
 66
     1
 10
0
 20
0
 30
0.0
 40
0.375
 41
0.375
  0
VERTEX
  8
0
 10
6.86501
 20
6.17269
 30
0.0
 40
0.00520833
 41
0.00520833
  0
VERTEX
  8
0
 10
6.86501
 20
5.25087
 30
0.0
 40
0.00520833
 41
0.00520833
  0
SEQEND
 8
0
  0
POLYLINE
  8
0
 62
     253
 66
     1
 10
0
 20
0
 30
0.0
 40
0.375
 41
0.375
  0
VERTEX
  8
0
 10
6.8405
 20
6.17269
 30
0.0
 40
0.00520833
 41
0.00520833
  0
VERTEX
  8
0
 10
6.8405
 20
5.25087
 30
0.0
 40
0.00520833
 41
0.00520833
  0
SEQEND
 8
0
  0
POLYLINE
  8
0
 62
     253
 66
     1
 10
0
 20
0
 30
0.0
 40
0.375
 41
0.375
  0
VERTEX
  8
0
 10
6.81597
 20
6.17269
 30
0.0
 40
0.00520833
 41
0.00520833
  0
VERTEX
  8
0
 10
6.81597
 20
5.25087
 30
0.0
 40
0.00520833
 41
0.00520833
  0
SEQEND
 8
0
  0
POLYLINE
  8
0
 62
     253
 66
     1
 10
0
 20
0
 30
0.0
 40
0.375
 41
0.375
  0
VERTEX
  8
0
 10
6.79139
 20
6.17269
 30
0.0
 40
0.00520833
 41
0.00520833
  0
VERTEX
  8
0
 10
6.79139
 20
5.25087
 30
0.0
 40
0.00520833
 41
0.00520833
  0
SEQEND
 8
0
  0
POLYLINE
  8
0
 62
     253
 66
     1
 10
0
 20
0
 30
0.0
 40
0.375
 41
0.375
  0
VERTEX
  8
0
 10
6.76687
 20
6.17269
 30
0.0
 40
0.00520833
 41
0.00520833
  0
VERTEX
  8
0
 10
6.76687
 20
5.25087
 30
0.0
 40
0.00520833
 41
0.00520833
  0
SEQEND
 8
0
  0
POLYLINE
  8
0
 62
     7
 66
     1
 10
0
 20
0
 30
0.0
 70
     1
 40
0
 41
0
  0
VERTEX
  8
0
 10
6.41108
 20
5.89111
 30
0.0
 40
0
 41
0
  0
VERTEX
  8
0
 10
6.74121
 20
5.89111
 30
0.0
 40
0
 41
0
  0
VERTEX
  8
0
 10
6.74121
 20
5.25087
 30
0.0
 40
0
 41
0
  0
VERTEX
  8
0
 10
6.41108
 20
5.25087
 30
0.0
 40
0
 41
0
  0
VERTEX
  8
0
 10
6.41108
 20
5.89111
 30
0.0
 40
0
 41
0
  0
SEQEND
 8
0
  0
POLYLINE
  8
0
 62
     0
 66
     1
 10
0
 20
0
 30
0.0
 70
     1
 40
0.75
 41
0.75
  0
VERTEX
  8
0
 10
6.41108
 20
5.89111
 30
0.0
 40
0.0104167
 41
0.0104167
  0
VERTEX
  8
0
 10
6.41108
 20
5.25087
 30
0.0
 40
0.0104167
 41
0.0104167
  0
VERTEX
  8
0
 10
6.74121
 20
5.25087
 30
0.0
 40
0.0104167
 41
0.0104167
  0
VERTEX
  8
0
 10
6.74121
 20
5.89111
 30
0.0
 40
0.0104167
 41
0.0104167
  0
VERTEX
  8
0
 10
6.41108
 20
5.89111
 30
0.0
 40
0.0104167
 41
0.0104167
  0
SEQEND
 8
0
  0
POLYLINE
  8
0
 62
     253
 66
     1
 10
0
 20
0
 30
0.0
 40
0.375
 41
0.375
  0
VERTEX
  8
0
 10
6.70822
 20
5.89111
 30
0.0
 40
0.00520833
 41
0.00520833
  0
VERTEX
  8
0
 10
6.70822
 20
5.25082
 30
0.0
 40
0.00520833
 41
0.00520833
  0
SEQEND
 8
0
  0
POLYLINE
  8
0
 62
     253
 66
     1
 10
0
 20
0
 30
0.0
 40
0.375
 41
0.375
  0
VERTEX
  8
0
 10
6.67518
 20
5.89111
 30
0.0
 40
0.00520833
 41
0.00520833
  0
VERTEX
  8
0
 10
6.67518
 20
5.25082
 30
0.0
 40
0.00520833
 41
0.00520833
  0
SEQEND
 8
0
  0
POLYLINE
  8
0
 62
     253
 66
     1
 10
0
 20
0
 30
0.0
 40
0.375
 41
0.375
  0
VERTEX
  8
0
 10
6.64219
 20
5.89111
 30
0.0
 40
0.00520833
 41
0.00520833
  0
VERTEX
  8
0
 10
6.64219
 20
5.25082
 30
0.0
 40
0.00520833
 41
0.00520833
  0
SEQEND
 8
0
  0
POLYLINE
  8
0
 62
     253
 66
     1
 10
0
 20
0
 30
0.0
 40
0.375
 41
0.375
  0
VERTEX
  8
0
 10
6.60915
 20
5.89111
 30
0.0
 40
0.00520833
 41
0.00520833
  0
VERTEX
  8
0
 10
6.60915
 20
5.25082
 30
0.0
 40
0.00520833
 41
0.00520833
  0
SEQEND
 8
0
  0
POLYLINE
  8
0
 62
     253
 66
     1
 10
0
 20
0
 30
0.0
 40
0.375
 41
0.375
  0
VERTEX
  8
0
 10
6.57617
 20
5.89111
 30
0.0
 40
0.00520833
 41
0.00520833
  0
VERTEX
  8
0
 10
6.57617
 20
5.25082
 30
0.0
 40
0.00520833
 41
0.00520833
  0
SEQEND
 8
0
  0
POLYLINE
  8
0
 62
     253
 66
     1
 10
0
 20
0
 30
0.0
 40
0.375
 41
0.375
  0
VERTEX
  8
0
 10
6.54313
 20
5.89111
 30
0.0
 40
0.00520833
 41
0.00520833
  0
VERTEX
  8
0
 10
6.54313
 20
5.25082
 30
0.0
 40
0.00520833
 41
0.00520833
  0
SEQEND
 8
0
  0
POLYLINE
  8
0
 62
     253
 66
     1
 10
0
 20
0
 30
0.0
 40
0.375
 41
0.375
  0
VERTEX
  8
0
 10
6.51014
 20
5.89111
 30
0.0
 40
0.00520833
 41
0.00520833
  0
VERTEX
  8
0
 10
6.51014
 20
5.25082
 30
0.0
 40
0.00520833
 41
0.00520833
  0
SEQEND
 8
0
  0
POLYLINE
  8
0
 62
     253
 66
     1
 10
0
 20
0
 30
0.0
 40
0.375
 41
0.375
  0
VERTEX
  8
0
 10
6.47715
 20
5.89111
 30
0.0
 40
0.00520833
 41
0.00520833
  0
VERTEX
  8
0
 10
6.47715
 20
5.25082
 30
0.0
 40
0.00520833
 41
0.00520833
  0
SEQEND
 8
0
  0
POLYLINE
  8
0
 62
     253
 66
     1
 10
0
 20
0
 30
0.0
 40
0.375
 41
0.375
  0
VERTEX
  8
0
 10
6.44412
 20
5.89111
 30
0.0
 40
0.00520833
 41
0.00520833
  0
VERTEX
  8
0
 10
6.44412
 20
5.25082
 30
0.0
 40
0.00520833
 41
0.00520833
  0
SEQEND
 8
0
  0
POLYLINE
  8
0
 62
     7
 66
     1
 10
0
 20
0
 30
0.0
 70
     1
 40
0
 41
0
  0
VERTEX
  8
0
 10
9.06907
 20
7.18381
 30
0.0
 40
0
 41
0
  0
VERTEX
  8
0
 10
9.74815
 20
7.18381
 30
0.0
 40
0
 41
0
  0
VERTEX
  8
0
 10
9.74815
 20
5.87869
 30
0.0
 40
0
 41
0
  0
VERTEX
  8
0
 10
9.06907
 20
5.87869
 30
0.0
 40
0
 41
0
  0
VERTEX
  8
0
 10
9.06907
 20
7.18381
 30
0.0
 40
0
 41
0
  0
SEQEND
 8
0
  0
POLYLINE
  8
0
 62
     0
 66
     1
 10
0
 20
0
 30
0.0
 70
     1
 40
0.75
 41
0.75
  0
VERTEX
  8
0
 10
9.06907
 20
7.18381
 30
0.0
 40
0.0104167
 41
0.0104167
  0
VERTEX
  8
0
 10
9.06907
 20
5.87869
 30
0.0
 40
0.0104167
 41
0.0104167
  0
VERTEX
  8
0
 10
9.74815
 20
5.87869
 30
0.0
 40
0.0104167
 41
0.0104167
  0
VERTEX
  8
0
 10
9.74815
 20
7.18381
 30
0.0
 40
0.0104167
 41
0.0104167
  0
VERTEX
  8
0
 10
9.06907
 20
7.18381
 30
0.0
 40
0.0104167
 41
0.0104167
  0
SEQEND
 8
0
  0
POLYLINE
  8
0
 62
     253
 66
     1
 10
0
 20
0
 30
0.0
 40
0.75
 41
0.75
  0
VERTEX
  8
0
 10
9.40858
 20
7.18381
 30
0.0
 40
0.0104167
 41
0.0104167
  0
VERTEX
  8
0
 10
9.40858
 20
5.87879
 30
0.0
 40
0.0104167
 41
0.0104167
  0
SEQEND
 8
0
  0
POLYLINE
  8
0
 62
     7
 66
     1
 10
0
 20
0
 30
0.0
 70
     1
 40
0
 41
0
  0
VERTEX
  8
0
 10
9.07146
 20
5.87869
 30
0.0
 40
0
 41
0
  0
VERTEX
  8
0
 10
9.75054
 20
5.87869
 30
0.0
 40
0
 41
0
  0
VERTEX
  8
0
 10
9.75054
 20
5.2385
 30
0.0
 40
0
 41
0
  0
VERTEX
  8
0
 10
9.07146
 20
5.2385
 30
0.0
 40
0
 41
0
  0
VERTEX
  8
0
 10
9.07146
 20
5.87869
 30
0.0
 40
0
 41
0
  0
SEQEND
 8
0
  0
POLYLINE
  8
0
 62
     0
 66
     1
 10
0
 20
0
 30
0.0
 70
     1
 40
0.75
 41
0.75
  0
VERTEX
  8
0
 10
9.07146
 20
5.87869
 30
0.0
 40
0.0104167
 41
0.0104167
  0
VERTEX
  8
0
 10
9.07146
 20
5.2385
 30
0.0
 40
0.0104167
 41
0.0104167
  0
VERTEX
  8
0
 10
9.75054
 20
5.2385
 30
0.0
 40
0.0104167
 41
0.0104167
  0
VERTEX
  8
0
 10
9.75054
 20
5.87869
 30
0.0
 40
0.0104167
 41
0.0104167
  0
VERTEX
  8
0
 10
9.07146
 20
5.87869
 30
0.0
 40
0.0104167
 41
0.0104167
  0
SEQEND
 8
0
  0
POLYLINE
  8
0
 62
     7
 66
     1
 10
0
 20
0
 30
0.0
 70
     1
 40
0
 41
0
  0
VERTEX
  8
0
 10
9.04264
 20
6.59571
 30
0.0
 40
0
 41
0
  0
VERTEX
  8
0
 10
9.06868
 20
6.59571
 30
0.0
 40
0
 41
0
  0
VERTEX
  8
0
 10
9.06868
 20
5.89208
 30
0.0
 40
0
 41
0
  0
VERTEX
  8
0
 10
9.04264
 20
5.89208
 30
0.0
 40
0
 41
0
  0
VERTEX
  8
0
 10
9.04264
 20
6.59571
 30
0.0
 40
0
 41
0
  0
SEQEND
 8
0
  0
POLYLINE
  8
0
 62
     0
 66
     1
 10
0
 20
0
 30
0.0
 70
     1
 40
0.75
 41
0.75
  0
VERTEX
  8
0
 10
9.04264
 20
6.59571
 30
0.0
 40
0.0104167
 41
0.0104167
  0
VERTEX
  8
0
 10
9.06868
 20
6.59571
 30
0.0
 40
0.0104167
 41
0.0104167
  0
VERTEX
  8
0
 10
9.06868
 20
5.89208
 30
0.0
 40
0.0104167
 41
0.0104167
  0
VERTEX
  8
0
 10
9.04264
 20
5.89208
 30
0.0
 40
0.0104167
 41
0.0104167
  0
VERTEX
  8
0
 10
9.04264
 20
6.59571
 30
0.0
 40
0.0104167
 41
0.0104167
  0
SEQEND
 8
0
  0
POLYLINE
  8
0
 62
     7
 66
     1
 10
0
 20
0
 30
0.0
 70
     1
 40
0
 41
0
  0
VERTEX
  8
0
 10
9.04264
 20
6.59571
 30
0.0
 40
0
 41
0
  0
VERTEX
  8
0
 10
9.06868
 20
6.59571
 30
0.0
 40
0
 41
0
  0
VERTEX
  8
0
 10
9.06868
 20
5.89208
 30
0.0
 40
0
 41
0
  0
VERTEX
  8
0
 10
9.04264
 20
5.89208
 30
0.0
 40
0
 41
0
  0
VERTEX
  8
0
 10
9.04264
 20
6.59571
 30
0.0
 40
0
 41
0
  0
SEQEND
 8
0
  0
POLYLINE
  8
0
 62
     0
 66
     1
 10
0
 20
0
 30
0.0
 70
     1
 40
0.75
 41
0.75
  0
VERTEX
  8
0
 10
9.04264
 20
6.59571
 30
0.0
 40
0.0104167
 41
0.0104167
  0
VERTEX
  8
0
 10
9.06868
 20
6.59571
 30
0.0
 40
0.0104167
 41
0.0104167
  0
VERTEX
  8
0
 10
9.06868
 20
5.89208
 30
0.0
 40
0.0104167
 41
0.0104167
  0
VERTEX
  8
0
 10
9.04264
 20
5.89208
 30
0.0
 40
0.0104167
 41
0.0104167
  0
VERTEX
  8
0
 10
9.04264
 20
6.59571
 30
0.0
 40
0.0104167
 41
0.0104167
  0
SEQEND
 8
0
  0
POLYLINE
  8
0
 62
     7
 66
     1
 10
0
 20
0
 30
0.0
 70
     1
 40
0
 41
0
  0
VERTEX
  8
0
 10
9.00808
 20
7.18528
 30
0.0
 40
0
 41
0
  0
VERTEX
  8
0
 10
9.03412
 20
7.18528
 30
0.0
 40
0
 41
0
  0
VERTEX
  8
0
 10
9.03412
 20
6.46317
 30
0.0
 40
0
 41
0
  0
VERTEX
  8
0
 10
9.00808
 20
6.46317
 30
0.0
 40
0
 41
0
  0
VERTEX
  8
0
 10
9.00808
 20
7.18528
 30
0.0
 40
0
 41
0
  0
SEQEND
 8
0
  0
POLYLINE
  8
0
 62
     0
 66
     1
 10
0
 20
0
 30
0.0
 70
     1
 40
0.75
 41
0.75
  0
VERTEX
  8
0
 10
9.00808
 20
7.18528
 30
0.0
 40
0.0104167
 41
0.0104167
  0
VERTEX
  8
0
 10
9.03412
 20
7.18528
 30
0.0
 40
0.0104167
 41
0.0104167
  0
VERTEX
  8
0
 10
9.03412
 20
6.46317
 30
0.0
 40
0.0104167
 41
0.0104167
  0
VERTEX
  8
0
 10
9.00808
 20
6.46317
 30
0.0
 40
0.0104167
 41
0.0104167
  0
VERTEX
  8
0
 10
9.00808
 20
7.18528
 30
0.0
 40
0.0104167
 41
0.0104167
  0
SEQEND
 8
0
  0
POLYLINE
  8
0
 62
     7
 66
     1
 10
0
 20
0
 30
0.0
 70
     1
 40
0
 41
0
  0
VERTEX
  8
0
 10
9.00808
 20
7.18528
 30
0.0
 40
0
 41
0
  0
VERTEX
  8
0
 10
9.03412
 20
7.18528
 30
0.0
 40
0
 41
0
  0
VERTEX
  8
0
 10
9.03412
 20
6.46317
 30
0.0
 40
0
 41
0
  0
VERTEX
  8
0
 10
9.00808
 20
6.46317
 30
0.0
 40
0
 41
0
  0
VERTEX
  8
0
 10
9.00808
 20
7.18528
 30
0.0
 40
0
 41
0
  0
SEQEND
 8
0
  0
POLYLINE
  8
0
 62
     0
 66
     1
 10
0
 20
0
 30
0.0
 70
     1
 40
0.75
 41
0.75
  0
VERTEX
  8
0
 10
9.00808
 20
7.18528
 30
0.0
 40
0.0104167
 41
0.0104167
  0
VERTEX
  8
0
 10
9.03412
 20
7.18528
 30
0.0
 40
0.0104167
 41
0.0104167
  0
VERTEX
  8
0
 10
9.03412
 20
6.46317
 30
0.0
 40
0.0104167
 41
0.0104167
  0
VERTEX
  8
0
 10
9.00808
 20
6.46317
 30
0.0
 40
0.0104167
 41
0.0104167
  0
VERTEX
  8
0
 10
9.00808
 20
7.18528
 30
0.0
 40
0.0104167
 41
0.0104167
  0
SEQEND
 8
0
  0
ENDSEC
  0
EOF
