  0
SECTION
  2
HEADER
  9
$ACADVER
  1
AC1009
  9
$FILLMODE
 70
 0
  9
$SPLFRAME
 70
 1
  9
$EXTMIN
 10
0
 20
0
 30
0.0
  9
$EXTMAX
 10
41.6667
 20
41.6667
 30
0.0
  0
ENDSEC
  0
SECTION
  2
TABLES
  0
TABLE
  2
LAYER
 70
1
  0
LAYER
  2
0
 70
     0
 62
     7
  6
CONTINUOUS
  0
ENDTAB
  0
ENDSEC
  0
SECTION
  2
ENTITIES
  0
POLYLINE
  8
0
 62
     7
 66
     1
 10
0
 20
0
 30
0.0
 70
     1
 40
0
 41
0
  0
VERTEX
  8
0
 10
3.5224
 20
5.5491
 30
0.0
 40
0
 41
0
  0
VERTEX
  8
0
 10
5.27447
 20
5.5491
 30
0.0
 40
0
 41
0
  0
VERTEX
  8
0
 10
5.27447
 20
4.34597
 30
0.0
 40
0
 41
0
  0
VERTEX
  8
0
 10
3.5224
 20
4.34597
 30
0.0
 40
0
 41
0
  0
VERTEX
  8
0
 10
3.5224
 20
5.5491
 30
0.0
 40
0
 41
0
  0
SEQEND
 8
0
  0
POLYLINE
  8
0
 62
     7
 66
     1
 10
0
 20
0
 30
0.0
 70
     1
 40
0.15
 41
0.15
  0
VERTEX
  8
0
 10
3.5224
 20
5.5491
 30
0.0
 40
0.00208333
 41
0.00208333
  0
VERTEX
  8
0
 10
5.27447
 20
5.5491
 30
0.0
 40
0.00208333
 41
0.00208333
  0
VERTEX
  8
0
 10
5.27447
 20
4.34597
 30
0.0
 40
0.00208333
 41
0.00208333
  0
VERTEX
  8
0
 10
3.5224
 20
4.34597
 30
0.0
 40
0.00208333
 41
0.00208333
  0
VERTEX
  8
0
 10
3.5224
 20
5.5491
 30
0.0
 40
0.00208333
 41
0.00208333
  0
SEQEND
 8
0
  0
TEXT
  8
0
 62
     0
 10
3.95506
 20
4.42821
 30
0.0
 40
0.34375
  1
WC/
 50
0
  0
POLYLINE
  8
0
 62
     7
 66
     1
 10
0
 20
0
 30
0.0
 70
     1
 40
0
 41
0
  0
VERTEX
  8
0
 10
3.5224
 20
4.34597
 30
0.0
 40
0
 41
0
  0
VERTEX
  8
0
 10
5.27447
 20
4.34597
 30
0.0
 40
0
 41
0
  0
VERTEX
  8
0
 10
5.27447
 20
2.98335
 30
0.0
 40
0
 41
0
  0
VERTEX
  8
0
 10
3.5224
 20
2.98335
 30
0.0
 40
0
 41
0
  0
VERTEX
  8
0
 10
3.5224
 20
4.34597
 30
0.0
 40
0
 41
0
  0
SEQEND
 8
0
  0
POLYLINE
  8
0
 62
     7
 66
     1
 10
0
 20
0
 30
0.0
 70
     1
 40
0.15
 41
0.15
  0
VERTEX
  8
0
 10
3.5224
 20
4.34597
 30
0.0
 40
0.00208333
 41
0.00208333
  0
VERTEX
  8
0
 10
5.27447
 20
4.34597
 30
0.0
 40
0.00208333
 41
0.00208333
  0
VERTEX
  8
0
 10
5.27447
 20
2.98335
 30
0.0
 40
0.00208333
 41
0.00208333
  0
VERTEX
  8
0
 10
3.5224
 20
2.98335
 30
0.0
 40
0.00208333
 41
0.00208333
  0
VERTEX
  8
0
 10
3.5224
 20
4.34597
 30
0.0
 40
0.00208333
 41
0.00208333
  0
SEQEND
 8
0
  0
TEXT
  8
0
 62
     0
 10
3.61681
 20
4.03624
 30
0.0
 40
0.34375
  1
PESUH
 50
0
  0
POLYLINE
  8
0
 62
     7
 66
     1
 10
0
 20
0
 30
0.0
 70
     1
 40
0
 41
0
  0
VERTEX
  8
0
 10
0.567165
 20
11.427
 30
0.0
 40
0
 41
0
  0
VERTEX
  8
0
 10
3.5281
 20
11.427
 30
0.0
 40
0
 41
0
  0
VERTEX
  8
0
 10
3.5281
 20
10.1728
 30
0.0
 40
0
 41
0
  0
VERTEX
  8
0
 10
0.567165
 20
10.1728
 30
0.0
 40
0
 41
0
  0
VERTEX
  8
0
 10
0.567165
 20
11.427
 30
0.0
 40
0
 41
0
  0
SEQEND
 8
0
  0
POLYLINE
  8
0
 62
     0
 66
     1
 10
0
 20
0
 30
0.0
 70
     1
 40
0.15
 41
0.15
  0
VERTEX
  8
0
 10
0.567165
 20
11.427
 30
0.0
 40
0.00208333
 41
0.00208333
  0
VERTEX
  8
0
 10
3.5281
 20
11.427
 30
0.0
 40
0.00208333
 41
0.00208333
  0
VERTEX
  8
0
 10
3.5281
 20
10.1728
 30
0.0
 40
0.00208333
 41
0.00208333
  0
VERTEX
  8
0
 10
0.567165
 20
10.1728
 30
0.0
 40
0.00208333
 41
0.00208333
  0
VERTEX
  8
0
 10
0.567165
 20
11.427
 30
0.0
 40
0.00208333
 41
0.00208333
  0
SEQEND
 8
0
  0
TEXT
  8
0
 62
     0
 10
2.04764
 20
10.7999
 30
0.0
 40
0.34375
  1
ULK
 50
0
  0
TEXT
  8
0
 62
     0
 10
2.72525
 20
10.7999
 30
0.0
 40
0.34375
  1
O
 50
0
  0
TEXT
  8
0
 62
     0
 10
2.98756
 20
10.7999
 30
0.0
 40
0.34375
  1
TILA
 50
0
  0
POLYLINE
  8
0
 62
     7
 66
     1
 10
0
 20
0
 30
0.0
 70
     1
 40
0
 41
0
  0
VERTEX
  8
0
 10
3.40782
 20
5.66368
 30
0.0
 40
0
 41
0
  0
VERTEX
  8
0
 10
2.27783
 20
5.66368
 30
0.0
 40
0
 41
0
  0
VERTEX
  8
0
 10
2.27783
 20
6.58513
 30
0.0
 40
0
 41
0
  0
VERTEX
  8
0
 10
0.633029
 20
6.58513
 30
0.0
 40
0
 41
0
  0
VERTEX
  8
0
 10
0.633029
 20
9.83951
 30
0.0
 40
0
 41
0
  0
VERTEX
  8
0
 10
3.40782
 20
9.83951
 30
0.0
 40
0
 41
0
  0
VERTEX
  8
0
 10
3.40782
 20
5.66368
 30
0.0
 40
0
 41
0
  0
SEQEND
 8
0
  0
POLYLINE
  8
0
 62
     7
 66
     1
 10
0
 20
0
 30
0.0
 70
     1
 40
0.15
 41
0.15
  0
VERTEX
  8
0
 10
3.40782
 20
5.66368
 30
0.0
 40
0.00208333
 41
0.00208333
  0
VERTEX
  8
0
 10
2.27783
 20
5.66368
 30
0.0
 40
0.00208333
 41
0.00208333
  0
VERTEX
  8
0
 10
2.27783
 20
6.58513
 30
0.0
 40
0.00208333
 41
0.00208333
  0
VERTEX
  8
0
 10
0.633029
 20
6.58513
 30
0.0
 40
0.00208333
 41
0.00208333
  0
VERTEX
  8
0
 10
0.633029
 20
9.83951
 30
0.0
 40
0.00208333
 41
0.00208333
  0
VERTEX
  8
0
 10
3.40782
 20
9.83951
 30
0.0
 40
0.00208333
 41
0.00208333
  0
VERTEX
  8
0
 10
3.40782
 20
5.66368
 30
0.0
 40
0.00208333
 41
0.00208333
  0
SEQEND
 8
0
  0
TEXT
  8
0
 62
     0
 10
1.83485
 20
7.73514
 30
0.0
 40
0.34375
  1
H
 50
0
  0
POLYLINE
  8
0
 62
     7
 66
     1
 10
0
 20
0
 30
0.0
 70
     1
 40
0
 41
0
  0
VERTEX
  8
0
 10
5.27447
 20
5.98492
 30
0.0
 40
0
 41
0
  0
VERTEX
  8
0
 10
4.97906
 20
5.98492
 30
0.0
 40
0
 41
0
  0
VERTEX
  8
0
 10
4.97906
 20
5.66368
 30
0.0
 40
0
 41
0
  0
VERTEX
  8
0
 10
3.40782
 20
5.66368
 30
0.0
 40
0
 41
0
  0
VERTEX
  8
0
 10
3.40782
 20
9.83951
 30
0.0
 40
0
 41
0
  0
VERTEX
  8
0
 10
5.27447
 20
9.83951
 30
0.0
 40
0
 41
0
  0
VERTEX
  8
0
 10
5.27447
 20
5.98492
 30
0.0
 40
0
 41
0
  0
SEQEND
 8
0
  0
POLYLINE
  8
0
 62
     7
 66
     1
 10
0
 20
0
 30
0.0
 70
     1
 40
0.15
 41
0.15
  0
VERTEX
  8
0
 10
5.27447
 20
5.98492
 30
0.0
 40
0.00208333
 41
0.00208333
  0
VERTEX
  8
0
 10
4.97906
 20
5.98492
 30
0.0
 40
0.00208333
 41
0.00208333
  0
VERTEX
  8
0
 10
4.97906
 20
5.66368
 30
0.0
 40
0.00208333
 41
0.00208333
  0
VERTEX
  8
0
 10
3.40782
 20
5.66368
 30
0.0
 40
0.00208333
 41
0.00208333
  0
VERTEX
  8
0
 10
3.40782
 20
9.83951
 30
0.0
 40
0.00208333
 41
0.00208333
  0
VERTEX
  8
0
 10
5.27447
 20
9.83951
 30
0.0
 40
0.00208333
 41
0.00208333
  0
VERTEX
  8
0
 10
5.27447
 20
5.98492
 30
0.0
 40
0.00208333
 41
0.00208333
  0
SEQEND
 8
0
  0
TEXT
  8
0
 62
     0
 10
3.82975
 20
7.08901
 30
0.0
 40
0.34375
  1
KK
 50
0
  0
POLYLINE
  8
0
 62
     7
 66
     1
 10
0
 20
0
 30
0.0
 70
     1
 40
0
 41
0
  0
VERTEX
  8
0
 10
2.27783
 20
5.66368
 30
0.0
 40
0
 41
0
  0
VERTEX
  8
0
 10
2.27289
 20
5.66368
 30
0.0
 40
0
 41
0
  0
VERTEX
  8
0
 10
2.27783
 20
5.17025
 30
0.0
 40
0
 41
0
  0
VERTEX
  8
0
 10
2.16325
 20
5.17025
 30
0.0
 40
0
 41
0
  0
VERTEX
  8
0
 10
2.16325
 20
4.27621
 30
0.0
 40
0
 41
0
  0
VERTEX
  8
0
 10
0.633029
 20
4.27621
 30
0.0
 40
0
 41
0
  0
VERTEX
  8
0
 10
0.633029
 20
6.58513
 30
0.0
 40
0
 41
0
  0
VERTEX
  8
0
 10
2.27783
 20
6.58513
 30
0.0
 40
0
 41
0
  0
VERTEX
  8
0
 10
2.27783
 20
5.66368
 30
0.0
 40
0
 41
0
  0
SEQEND
 8
0
  0
POLYLINE
  8
0
 62
     7
 66
     1
 10
0
 20
0
 30
0.0
 70
     1
 40
0.15
 41
0.15
  0
VERTEX
  8
0
 10
2.27783
 20
5.66368
 30
0.0
 40
0.00208333
 41
0.00208333
  0
VERTEX
  8
0
 10
2.27289
 20
5.66368
 30
0.0
 40
0.00208333
 41
0.00208333
  0
VERTEX
  8
0
 10
2.27783
 20
5.17025
 30
0.0
 40
0.00208333
 41
0.00208333
  0
VERTEX
  8
0
 10
2.16325
 20
5.17025
 30
0.0
 40
0.00208333
 41
0.00208333
  0
VERTEX
  8
0
 10
2.16325
 20
4.27621
 30
0.0
 40
0.00208333
 41
0.00208333
  0
VERTEX
  8
0
 10
0.633029
 20
4.27621
 30
0.0
 40
0.00208333
 41
0.00208333
  0
VERTEX
  8
0
 10
0.633029
 20
6.58513
 30
0.0
 40
0.00208333
 41
0.00208333
  0
VERTEX
  8
0
 10
2.27783
 20
6.58513
 30
0.0
 40
0.00208333
 41
0.00208333
  0
VERTEX
  8
0
 10
2.27783
 20
5.66368
 30
0.0
 40
0.00208333
 41
0.00208333
  0
SEQEND
 8
0
  0
TEXT
  8
0
 62
     0
 10
0.739303
 20
5.3325
 30
0.0
 40
0.34375
  1
ALK
 50
0
  0
TEXT
  8
0
 62
     0
 10
1.40031
 20
5.3325
 30
0.0
 40
0.34375
  1
OVI
 50
0
  0
POLYLINE
  8
0
 62
     7
 66
     1
 10
0
 20
0
 30
0.0
 70
     1
 40
0
 41
0
  0
VERTEX
  8
0
 10
3.40782
 20
5.66368
 30
0.0
 40
0
 41
0
  0
VERTEX
  8
0
 10
3.40625
 20
5.65972
 30
0.0
 40
0
 41
0
  0
VERTEX
  8
0
 10
3.40782
 20
2.69493
 30
0.0
 40
0
 41
0
  0
VERTEX
  8
0
 10
0.633029
 20
2.69493
 30
0.0
 40
0
 41
0
  0
VERTEX
  8
0
 10
0.633029
 20
4.16162
 30
0.0
 40
0
 41
0
  0
VERTEX
  8
0
 10
2.27783
 20
4.16162
 30
0.0
 40
0
 41
0
  0
VERTEX
  8
0
 10
2.27783
 20
5.17025
 30
0.0
 40
0
 41
0
  0
VERTEX
  8
0
 10
2.27289
 20
5.66368
 30
0.0
 40
0
 41
0
  0
VERTEX
  8
0
 10
3.40782
 20
5.66368
 30
0.0
 40
0
 41
0
  0
SEQEND
 8
0
  0
POLYLINE
  8
0
 62
     7
 66
     1
 10
0
 20
0
 30
0.0
 70
     1
 40
0.15
 41
0.15
  0
VERTEX
  8
0
 10
3.40782
 20
5.66368
 30
0.0
 40
0.00208333
 41
0.00208333
  0
VERTEX
  8
0
 10
3.40625
 20
5.65972
 30
0.0
 40
0.00208333
 41
0.00208333
  0
VERTEX
  8
0
 10
3.40782
 20
2.69493
 30
0.0
 40
0.00208333
 41
0.00208333
  0
VERTEX
  8
0
 10
0.633029
 20
2.69493
 30
0.0
 40
0.00208333
 41
0.00208333
  0
VERTEX
  8
0
 10
0.633029
 20
4.16162
 30
0.0
 40
0.00208333
 41
0.00208333
  0
VERTEX
  8
0
 10
2.27783
 20
4.16162
 30
0.0
 40
0.00208333
 41
0.00208333
  0
VERTEX
  8
0
 10
2.27783
 20
5.17025
 30
0.0
 40
0.00208333
 41
0.00208333
  0
VERTEX
  8
0
 10
2.27289
 20
5.66368
 30
0.0
 40
0.00208333
 41
0.00208333
  0
VERTEX
  8
0
 10
3.40782
 20
5.66368
 30
0.0
 40
0.00208333
 41
0.00208333
  0
SEQEND
 8
0
  0
TEXT
  8
0
 62
     0
 10
1.91492
 20
3.24672
 30
0.0
 40
0.34375
  1
ET
 50
0
  0
POLYLINE
  8
0
 62
     7
 66
     1
 10
0
 20
0
 30
0.0
 70
     1
 40
0
 41
0
  0
VERTEX
  8
0
 10
3.5224
 20
2.86876
 30
0.0
 40
0
 41
0
  0
VERTEX
  8
0
 10
5.27447
 20
2.86876
 30
0.0
 40
0
 41
0
  0
VERTEX
  8
0
 10
5.27447
 20
1.3144
 30
0.0
 40
0
 41
0
  0
VERTEX
  8
0
 10
3.5224
 20
1.3144
 30
0.0
 40
0
 41
0
  0
VERTEX
  8
0
 10
3.5224
 20
2.86876
 30
0.0
 40
0
 41
0
  0
SEQEND
 8
0
  0
POLYLINE
  8
0
 62
     7
 66
     1
 10
0
 20
0
 30
0.0
 70
     1
 40
0.15
 41
0.15
  0
VERTEX
  8
0
 10
3.5224
 20
2.86876
 30
0.0
 40
0.00208333
 41
0.00208333
  0
VERTEX
  8
0
 10
5.27447
 20
2.86876
 30
0.0
 40
0.00208333
 41
0.00208333
  0
VERTEX
  8
0
 10
5.27447
 20
1.3144
 30
0.0
 40
0.00208333
 41
0.00208333
  0
VERTEX
  8
0
 10
3.5224
 20
1.3144
 30
0.0
 40
0.00208333
 41
0.00208333
  0
VERTEX
  8
0
 10
3.5224
 20
2.86876
 30
0.0
 40
0.00208333
 41
0.00208333
  0
SEQEND
 8
0
  0
TEXT
  8
0
 62
     0
 10
4.2996
 20
2.09164
 30
0.0
 40
0.34375
  1
UNDEFINED
 50
0
  0
POLYLINE
  8
0
 62
     7
 66
     1
 10
0
 20
0
 30
0.0
 70
     1
 40
0
 41
0
  0
VERTEX
  8
0
 10
1.92779
 20
2.58035
 30
0.0
 40
0
 41
0
  0
VERTEX
  8
0
 10
3.40782
 20
2.58035
 30
0.0
 40
0
 41
0
  0
VERTEX
  8
0
 10
3.40782
 20
1.3144
 30
0.0
 40
0
 41
0
  0
VERTEX
  8
0
 10
1.92779
 20
1.3144
 30
0.0
 40
0
 41
0
  0
VERTEX
  8
0
 10
1.92779
 20
2.58035
 30
0.0
 40
0
 41
0
  0
SEQEND
 8
0
  0
POLYLINE
  8
0
 62
     7
 66
     1
 10
0
 20
0
 30
0.0
 70
     1
 40
0.15
 41
0.15
  0
VERTEX
  8
0
 10
1.92779
 20
2.58035
 30
0.0
 40
0.00208333
 41
0.00208333
  0
VERTEX
  8
0
 10
3.40782
 20
2.58035
 30
0.0
 40
0.00208333
 41
0.00208333
  0
VERTEX
  8
0
 10
3.40782
 20
1.3144
 30
0.0
 40
0.00208333
 41
0.00208333
  0
VERTEX
  8
0
 10
1.92779
 20
1.3144
 30
0.0
 40
0.00208333
 41
0.00208333
  0
VERTEX
  8
0
 10
1.92779
 20
2.58035
 30
0.0
 40
0.00208333
 41
0.00208333
  0
SEQEND
 8
0
  0
TEXT
  8
0
 62
     0
 10
2.08175
 20
1.55486
 30
0.0
 40
0.34375
  1
TK
 50
0
  0
POLYLINE
  8
0
 62
     7
 66
     1
 10
0
 20
0
 30
0.0
 70
     1
 40
0
 41
0
  0
VERTEX
  8
0
 10
0.633029
 20
2.58035
 30
0.0
 40
0
 41
0
  0
VERTEX
  8
0
 10
1.81321
 20
2.58035
 30
0.0
 40
0
 41
0
  0
VERTEX
  8
0
 10
1.81321
 20
1.3144
 30
0.0
 40
0
 41
0
  0
VERTEX
  8
0
 10
0.633029
 20
1.3144
 30
0.0
 40
0
 41
0
  0
VERTEX
  8
0
 10
0.633029
 20
2.58035
 30
0.0
 40
0
 41
0
  0
SEQEND
 8
0
  0
POLYLINE
  8
0
 62
     7
 66
     1
 10
0
 20
0
 30
0.0
 70
     1
 40
0.15
 41
0.15
  0
VERTEX
  8
0
 10
0.633029
 20
2.58035
 30
0.0
 40
0.00208333
 41
0.00208333
  0
VERTEX
  8
0
 10
1.81321
 20
2.58035
 30
0.0
 40
0.00208333
 41
0.00208333
  0
VERTEX
  8
0
 10
1.81321
 20
1.3144
 30
0.0
 40
0.00208333
 41
0.00208333
  0
VERTEX
  8
0
 10
0.633029
 20
1.3144
 30
0.0
 40
0.00208333
 41
0.00208333
  0
VERTEX
  8
0
 10
0.633029
 20
2.58035
 30
0.0
 40
0.00208333
 41
0.00208333
  0
SEQEND
 8
0
  0
TEXT
  8
0
 62
     0
 10
0.801539
 20
2.16462
 30
0.0
 40
0.34375
  1
VH
 50
0
  0
POLYLINE
  8
0
 62
     0
 66
     1
 10
0
 20
0
 30
0.0
 70
     1
 40
0
 41
0
  0
VERTEX
  8
0
 10
0.393446
 20
10.1728
 30
0.0
 40
0
 41
0
  0
VERTEX
  8
0
 10
5.51406
 20
10.1728
 30
0.0
 40
0
 41
0
  0
VERTEX
  8
0
 10
5.27447
 20
9.83951
 30
0.0
 40
0
 41
0
  0
VERTEX
  8
0
 10
0.633029
 20
9.83951
 30
0.0
 40
0
 41
0
  0
VERTEX
  8
0
 10
0.393446
 20
10.1728
 30
0.0
 40
0
 41
0
  0
SEQEND
 8
0
  0
POLYLINE
  8
0
 62
     0
 66
     1
 10
0
 20
0
 30
0.0
 70
     1
 40
0.15
 41
0.15
  0
VERTEX
  8
0
 10
0.393446
 20
10.1728
 30
0.0
 40
0.00208333
 41
0.00208333
  0
VERTEX
  8
0
 10
5.51406
 20
10.1728
 30
0.0
 40
0.00208333
 41
0.00208333
  0
VERTEX
  8
0
 10
5.27447
 20
9.83951
 30
0.0
 40
0.00208333
 41
0.00208333
  0
VERTEX
  8
0
 10
0.633029
 20
9.83951
 30
0.0
 40
0.00208333
 41
0.00208333
  0
VERTEX
  8
0
 10
0.393446
 20
10.1728
 30
0.0
 40
0.00208333
 41
0.00208333
  0
SEQEND
 8
0
  0
POLYLINE
  8
0
 62
     7
 66
     1
 10
0
 20
0
 30
0.0
 70
     1
 40
0
 41
0
  0
VERTEX
  8
0
 10
2.56179
 20
10.1728
 30
0.0
 40
0
 41
0
  0
VERTEX
  8
0
 10
3.4005
 20
10.1728
 30
0.0
 40
0
 41
0
  0
VERTEX
  8
0
 10
3.4005
 20
9.83951
 30
0.0
 40
0
 41
0
  0
VERTEX
  8
0
 10
2.56179
 20
9.83951
 30
0.0
 40
0
 41
0
  0
VERTEX
  8
0
 10
2.56179
 20
10.1728
 30
0.0
 40
0
 41
0
  0
SEQEND
 8
0
  0
POLYLINE
  8
0
 62
     0
 66
     1
 10
0
 20
0
 30
0.0
 70
     1
 40
0.75
 41
0.75
  0
VERTEX
  8
0
 10
2.56179
 20
10.1728
 30
0.0
 40
0.0104167
 41
0.0104167
  0
VERTEX
  8
0
 10
3.4005
 20
10.1728
 30
0.0
 40
0.0104167
 41
0.0104167
  0
VERTEX
  8
0
 10
3.4005
 20
9.83951
 30
0.0
 40
0.0104167
 41
0.0104167
  0
VERTEX
  8
0
 10
2.56179
 20
9.83951
 30
0.0
 40
0.0104167
 41
0.0104167
  0
VERTEX
  8
0
 10
2.56179
 20
10.1728
 30
0.0
 40
0.0104167
 41
0.0104167
  0
SEQEND
 8
0
  0
POLYLINE
  8
0
 62
     7
 66
     1
 10
0
 20
0
 30
0.0
 70
     1
 40
0
 41
0
  0
VERTEX
  8
0
 10
2.56179
 20
10.1728
 30
0.0
 40
0
 41
0
  0
VERTEX
  8
0
 10
3.4005
 20
10.1728
 30
0.0
 40
0
 41
0
  0
VERTEX
  8
0
 10
3.4005
 20
9.83951
 30
0.0
 40
0
 41
0
  0
VERTEX
  8
0
 10
2.56179
 20
9.83951
 30
0.0
 40
0
 41
0
  0
VERTEX
  8
0
 10
2.56179
 20
10.1728
 30
0.0
 40
0
 41
0
  0
SEQEND
 8
0
  0
POLYLINE
  8
0
 62
     0
 66
     1
 10
0
 20
0
 30
0.0
 70
     1
 40
0.75
 41
0.75
  0
VERTEX
  8
0
 10
2.56179
 20
10.1728
 30
0.0
 40
0.0104167
 41
0.0104167
  0
VERTEX
  8
0
 10
3.4005
 20
10.1728
 30
0.0
 40
0.0104167
 41
0.0104167
  0
VERTEX
  8
0
 10
3.4005
 20
9.83951
 30
0.0
 40
0.0104167
 41
0.0104167
  0
VERTEX
  8
0
 10
2.56179
 20
9.83951
 30
0.0
 40
0.0104167
 41
0.0104167
  0
VERTEX
  8
0
 10
2.56179
 20
10.1728
 30
0.0
 40
0.0104167
 41
0.0104167
  0
SEQEND
 8
0
  0
POLYLINE
  8
0
 62
     0
 66
     1
 10
0
 20
0
 30
0.0
 70
     1
 40
0.75
 41
0.75
  0
VERTEX
  8
0
 10
2.56179
 20
10.1728
 30
0.0
 40
0.0104167
 41
0.0104167
  0
VERTEX
  8
0
 10
2.56179
 20
10.222
 30
0.0
 40
0.0104167
 41
0.0104167
  0
VERTEX
  8
0
 10
2.57488
 20
10.3695
 30
0.0
 40
0.0104167
 41
0.0104167
  0
VERTEX
  8
0
 10
2.61421
 20
10.5398
 30
0.0
 40
0.0104167
 41
0.0104167
  0
VERTEX
  8
0
 10
2.67969
 20
10.684
 30
0.0
 40
0.0104167
 41
0.0104167
  0
VERTEX
  8
0
 10
2.77143
 20
10.8019
 30
0.0
 40
0.0104167
 41
0.0104167
  0
VERTEX
  8
0
 10
2.88938
 20
10.8937
 30
0.0
 40
0.0104167
 41
0.0104167
  0
VERTEX
  8
0
 10
3.03353
 20
10.9592
 30
0.0
 40
0.0104167
 41
0.0104167
  0
VERTEX
  8
0
 10
3.20389
 20
10.9985
 30
0.0
 40
0.0104167
 41
0.0104167
  0
VERTEX
  8
0
 10
3.35135
 20
11.0116
 30
0.0
 40
0.0104167
 41
0.0104167
  0
VERTEX
  8
0
 10
3.4005
 20
11.0116
 30
0.0
 40
0.0104167
 41
0.0104167
  0
VERTEX
  8
0
 10
3.4005
 20
10.1728
 30
0.0
 40
0.0104167
 41
0.0104167
  0
VERTEX
  8
0
 10
2.56179
 20
10.1728
 30
0.0
 40
0.0104167
 41
0.0104167
  0
SEQEND
 8
0
  0
POLYLINE
  8
0
 62
     7
 66
     1
 10
0
 20
0
 30
0.0
 70
     1
 40
0
 41
0
  0
VERTEX
  8
0
 10
0.854275
 20
10.1728
 30
0.0
 40
0
 41
0
  0
VERTEX
  8
0
 10
1.27165
 20
10.1728
 30
0.0
 40
0
 41
0
  0
VERTEX
  8
0
 10
1.27165
 20
9.83951
 30
0.0
 40
0
 41
0
  0
VERTEX
  8
0
 10
0.854275
 20
9.83951
 30
0.0
 40
0
 41
0
  0
VERTEX
  8
0
 10
0.854275
 20
10.1728
 30
0.0
 40
0
 41
0
  0
SEQEND
 8
0
  0
POLYLINE
  8
0
 62
     0
 66
     1
 10
0
 20
0
 30
0.0
 70
     1
 40
0.75
 41
0.75
  0
VERTEX
  8
0
 10
0.854275
 20
10.1728
 30
0.0
 40
0.0104167
 41
0.0104167
  0
VERTEX
  8
0
 10
1.27165
 20
10.1728
 30
0.0
 40
0.0104167
 41
0.0104167
  0
VERTEX
  8
0
 10
1.27165
 20
9.83951
 30
0.0
 40
0.0104167
 41
0.0104167
  0
VERTEX
  8
0
 10
0.854275
 20
9.83951
 30
0.0
 40
0.0104167
 41
0.0104167
  0
VERTEX
  8
0
 10
0.854275
 20
10.1728
 30
0.0
 40
0.0104167
 41
0.0104167
  0
SEQEND
 8
0
  0
POLYLINE
  8
0
 62
     7
 66
     1
 10
0
 20
0
 30
0.0
 70
     1
 40
0
 41
0
  0
VERTEX
  8
0
 10
0.854275
 20
10.1728
 30
0.0
 40
0
 41
0
  0
VERTEX
  8
0
 10
1.27165
 20
10.1728
 30
0.0
 40
0
 41
0
  0
VERTEX
  8
0
 10
1.27165
 20
9.83951
 30
0.0
 40
0
 41
0
  0
VERTEX
  8
0
 10
0.854275
 20
9.83951
 30
0.0
 40
0
 41
0
  0
VERTEX
  8
0
 10
0.854275
 20
10.1728
 30
0.0
 40
0
 41
0
  0
SEQEND
 8
0
  0
POLYLINE
  8
0
 62
     0
 66
     1
 10
0
 20
0
 30
0.0
 70
     1
 40
0.75
 41
0.75
  0
VERTEX
  8
0
 10
0.854275
 20
10.1728
 30
0.0
 40
0.0104167
 41
0.0104167
  0
VERTEX
  8
0
 10
1.27165
 20
10.1728
 30
0.0
 40
0.0104167
 41
0.0104167
  0
VERTEX
  8
0
 10
1.27165
 20
9.83951
 30
0.0
 40
0.0104167
 41
0.0104167
  0
VERTEX
  8
0
 10
0.854275
 20
9.83951
 30
0.0
 40
0.0104167
 41
0.0104167
  0
VERTEX
  8
0
 10
0.854275
 20
10.1728
 30
0.0
 40
0.0104167
 41
0.0104167
  0
SEQEND
 8
0
  0
POLYLINE
  8
0
 62
     0
 66
     1
 10
0
 20
0
 30
0.0
 40
0.75
 41
0.75
  0
VERTEX
  8
0
 10
0.932346
 20
10.0062
 30
0.0
 40
0.0104167
 41
0.0104167
  0
VERTEX
  8
0
 10
1.19358
 20
10.0062
 30
0.0
 40
0.0104167
 41
0.0104167
  0
SEQEND
 8
0
  0
POLYLINE
  8
0
 62
     0
 66
     1
 10
0
 20
0
 30
0.0
 40
0.75
 41
0.75
  0
VERTEX
  8
0
 10
0.932346
 20
10.1728
 30
0.0
 40
0.0104167
 41
0.0104167
  0
VERTEX
  8
0
 10
0.932346
 20
9.83951
 30
0.0
 40
0.0104167
 41
0.0104167
  0
SEQEND
 8
0
  0
POLYLINE
  8
0
 62
     0
 66
     1
 10
0
 20
0
 30
0.0
 40
0.75
 41
0.75
  0
VERTEX
  8
0
 10
1.19358
 20
10.1728
 30
0.0
 40
0.0104167
 41
0.0104167
  0
VERTEX
  8
0
 10
1.19358
 20
9.83951
 30
0.0
 40
0.0104167
 41
0.0104167
  0
SEQEND
 8
0
  0
POLYLINE
  8
0
 62
     7
 66
     1
 10
0
 20
0
 30
0.0
 70
     1
 40
0
 41
0
  0
VERTEX
  8
0
 10
1.27165
 20
10.1728
 30
0.0
 40
0
 41
0
  0
VERTEX
  8
0
 10
2.42258
 20
10.1728
 30
0.0
 40
0
 41
0
  0
VERTEX
  8
0
 10
2.42258
 20
9.83951
 30
0.0
 40
0
 41
0
  0
VERTEX
  8
0
 10
1.27165
 20
9.83951
 30
0.0
 40
0
 41
0
  0
VERTEX
  8
0
 10
1.27165
 20
10.1728
 30
0.0
 40
0
 41
0
  0
SEQEND
 8
0
  0
POLYLINE
  8
0
 62
     0
 66
     1
 10
0
 20
0
 30
0.0
 70
     1
 40
0.75
 41
0.75
  0
VERTEX
  8
0
 10
1.27165
 20
10.1728
 30
0.0
 40
0.0104167
 41
0.0104167
  0
VERTEX
  8
0
 10
2.42258
 20
10.1728
 30
0.0
 40
0.0104167
 41
0.0104167
  0
VERTEX
  8
0
 10
2.42258
 20
9.83951
 30
0.0
 40
0.0104167
 41
0.0104167
  0
VERTEX
  8
0
 10
1.27165
 20
9.83951
 30
0.0
 40
0.0104167
 41
0.0104167
  0
VERTEX
  8
0
 10
1.27165
 20
10.1728
 30
0.0
 40
0.0104167
 41
0.0104167
  0
SEQEND
 8
0
  0
POLYLINE
  8
0
 62
     7
 66
     1
 10
0
 20
0
 30
0.0
 70
     1
 40
0
 41
0
  0
VERTEX
  8
0
 10
1.27165
 20
10.1728
 30
0.0
 40
0
 41
0
  0
VERTEX
  8
0
 10
2.42258
 20
10.1728
 30
0.0
 40
0
 41
0
  0
VERTEX
  8
0
 10
2.42258
 20
9.83951
 30
0.0
 40
0
 41
0
  0
VERTEX
  8
0
 10
1.27165
 20
9.83951
 30
0.0
 40
0
 41
0
  0
VERTEX
  8
0
 10
1.27165
 20
10.1728
 30
0.0
 40
0
 41
0
  0
SEQEND
 8
0
  0
POLYLINE
  8
0
 62
     0
 66
     1
 10
0
 20
0
 30
0.0
 70
     1
 40
0.75
 41
0.75
  0
VERTEX
  8
0
 10
1.27165
 20
10.1728
 30
0.0
 40
0.0104167
 41
0.0104167
  0
VERTEX
  8
0
 10
2.42258
 20
10.1728
 30
0.0
 40
0.0104167
 41
0.0104167
  0
VERTEX
  8
0
 10
2.42258
 20
9.83951
 30
0.0
 40
0.0104167
 41
0.0104167
  0
VERTEX
  8
0
 10
1.27165
 20
9.83951
 30
0.0
 40
0.0104167
 41
0.0104167
  0
VERTEX
  8
0
 10
1.27165
 20
10.1728
 30
0.0
 40
0.0104167
 41
0.0104167
  0
SEQEND
 8
0
  0
POLYLINE
  8
0
 62
     0
 66
     1
 10
0
 20
0
 30
0.0
 40
0.75
 41
0.75
  0
VERTEX
  8
0
 10
1.34983
 20
10.0062
 30
0.0
 40
0.0104167
 41
0.0104167
  0
VERTEX
  8
0
 10
2.34451
 20
10.0062
 30
0.0
 40
0.0104167
 41
0.0104167
  0
SEQEND
 8
0
  0
POLYLINE
  8
0
 62
     0
 66
     1
 10
0
 20
0
 30
0.0
 40
0.75
 41
0.75
  0
VERTEX
  8
0
 10
1.34983
 20
10.1728
 30
0.0
 40
0.0104167
 41
0.0104167
  0
VERTEX
  8
0
 10
1.34983
 20
9.83951
 30
0.0
 40
0.0104167
 41
0.0104167
  0
SEQEND
 8
0
  0
POLYLINE
  8
0
 62
     0
 66
     1
 10
0
 20
0
 30
0.0
 40
0.75
 41
0.75
  0
VERTEX
  8
0
 10
2.34451
 20
10.1728
 30
0.0
 40
0.0104167
 41
0.0104167
  0
VERTEX
  8
0
 10
2.34451
 20
9.83951
 30
0.0
 40
0.0104167
 41
0.0104167
  0
SEQEND
 8
0
  0
POLYLINE
  8
0
 62
     7
 66
     1
 10
0
 20
0
 30
0.0
 70
     1
 40
0
 41
0
  0
VERTEX
  8
0
 10
3.72407
 20
10.1728
 30
0.0
 40
0
 41
0
  0
VERTEX
  8
0
 10
4.66813
 20
10.1728
 30
0.0
 40
0
 41
0
  0
VERTEX
  8
0
 10
4.66813
 20
9.83951
 30
0.0
 40
0
 41
0
  0
VERTEX
  8
0
 10
3.72407
 20
9.83951
 30
0.0
 40
0
 41
0
  0
VERTEX
  8
0
 10
3.72407
 20
10.1728
 30
0.0
 40
0
 41
0
  0
SEQEND
 8
0
  0
POLYLINE
  8
0
 62
     0
 66
     1
 10
0
 20
0
 30
0.0
 70
     1
 40
0.75
 41
0.75
  0
VERTEX
  8
0
 10
3.72407
 20
10.1728
 30
0.0
 40
0.0104167
 41
0.0104167
  0
VERTEX
  8
0
 10
4.66813
 20
10.1728
 30
0.0
 40
0.0104167
 41
0.0104167
  0
VERTEX
  8
0
 10
4.66813
 20
9.83951
 30
0.0
 40
0.0104167
 41
0.0104167
  0
VERTEX
  8
0
 10
3.72407
 20
9.83951
 30
0.0
 40
0.0104167
 41
0.0104167
  0
VERTEX
  8
0
 10
3.72407
 20
10.1728
 30
0.0
 40
0.0104167
 41
0.0104167
  0
SEQEND
 8
0
  0
POLYLINE
  8
0
 62
     7
 66
     1
 10
0
 20
0
 30
0.0
 70
     1
 40
0
 41
0
  0
VERTEX
  8
0
 10
3.72407
 20
10.1728
 30
0.0
 40
0
 41
0
  0
VERTEX
  8
0
 10
4.66813
 20
10.1728
 30
0.0
 40
0
 41
0
  0
VERTEX
  8
0
 10
4.66813
 20
9.83951
 30
0.0
 40
0
 41
0
  0
VERTEX
  8
0
 10
3.72407
 20
9.83951
 30
0.0
 40
0
 41
0
  0
VERTEX
  8
0
 10
3.72407
 20
10.1728
 30
0.0
 40
0
 41
0
  0
SEQEND
 8
0
  0
POLYLINE
  8
0
 62
     0
 66
     1
 10
0
 20
0
 30
0.0
 70
     1
 40
0.75
 41
0.75
  0
VERTEX
  8
0
 10
3.72407
 20
10.1728
 30
0.0
 40
0.0104167
 41
0.0104167
  0
VERTEX
  8
0
 10
4.66813
 20
10.1728
 30
0.0
 40
0.0104167
 41
0.0104167
  0
VERTEX
  8
0
 10
4.66813
 20
9.83951
 30
0.0
 40
0.0104167
 41
0.0104167
  0
VERTEX
  8
0
 10
3.72407
 20
9.83951
 30
0.0
 40
0.0104167
 41
0.0104167
  0
VERTEX
  8
0
 10
3.72407
 20
10.1728
 30
0.0
 40
0.0104167
 41
0.0104167
  0
SEQEND
 8
0
  0
POLYLINE
  8
0
 62
     0
 66
     1
 10
0
 20
0
 30
0.0
 40
0.75
 41
0.75
  0
VERTEX
  8
0
 10
3.80214
 20
10.0062
 30
0.0
 40
0.0104167
 41
0.0104167
  0
VERTEX
  8
0
 10
4.58996
 20
10.0062
 30
0.0
 40
0.0104167
 41
0.0104167
  0
SEQEND
 8
0
  0
POLYLINE
  8
0
 62
     0
 66
     1
 10
0
 20
0
 30
0.0
 40
0.75
 41
0.75
  0
VERTEX
  8
0
 10
3.80214
 20
10.1728
 30
0.0
 40
0.0104167
 41
0.0104167
  0
VERTEX
  8
0
 10
3.80214
 20
9.83951
 30
0.0
 40
0.0104167
 41
0.0104167
  0
SEQEND
 8
0
  0
POLYLINE
  8
0
 62
     0
 66
     1
 10
0
 20
0
 30
0.0
 40
0.75
 41
0.75
  0
VERTEX
  8
0
 10
4.58996
 20
10.1728
 30
0.0
 40
0.0104167
 41
0.0104167
  0
VERTEX
  8
0
 10
4.58996
 20
9.83951
 30
0.0
 40
0.0104167
 41
0.0104167
  0
SEQEND
 8
0
  0
POLYLINE
  8
0
 62
     0
 66
     1
 10
0
 20
0
 30
0.0
 70
     1
 40
0
 41
0
  0
VERTEX
  8
0
 10
5.51406
 20
10.1728
 30
0.0
 40
0
 41
0
  0
VERTEX
  8
0
 10
5.51406
 20
0.952636
 30
0.0
 40
0
 41
0
  0
VERTEX
  8
0
 10
5.27447
 20
1.3144
 30
0.0
 40
0
 41
0
  0
VERTEX
  8
0
 10
5.27447
 20
9.83951
 30
0.0
 40
0
 41
0
  0
VERTEX
  8
0
 10
5.51406
 20
10.1728
 30
0.0
 40
0
 41
0
  0
SEQEND
 8
0
  0
POLYLINE
  8
0
 62
     0
 66
     1
 10
0
 20
0
 30
0.0
 70
     1
 40
0.15
 41
0.15
  0
VERTEX
  8
0
 10
5.51406
 20
10.1728
 30
0.0
 40
0.00208333
 41
0.00208333
  0
VERTEX
  8
0
 10
5.51406
 20
0.952636
 30
0.0
 40
0.00208333
 41
0.00208333
  0
VERTEX
  8
0
 10
5.27447
 20
1.3144
 30
0.0
 40
0.00208333
 41
0.00208333
  0
VERTEX
  8
0
 10
5.27447
 20
9.83951
 30
0.0
 40
0.00208333
 41
0.00208333
  0
VERTEX
  8
0
 10
5.51406
 20
10.1728
 30
0.0
 40
0.00208333
 41
0.00208333
  0
SEQEND
 8
0
  0
POLYLINE
  8
0
 62
     0
 66
     1
 10
0
 20
0
 30
0.0
 70
     1
 40
0
 41
0
  0
VERTEX
  8
0
 10
5.51406
 20
0.952636
 30
0.0
 40
0
 41
0
  0
VERTEX
  8
0
 10
0.393446
 20
0.952636
 30
0.0
 40
0
 41
0
  0
VERTEX
  8
0
 10
0.633029
 20
1.3144
 30
0.0
 40
0
 41
0
  0
VERTEX
  8
0
 10
5.27447
 20
1.3144
 30
0.0
 40
0
 41
0
  0
VERTEX
  8
0
 10
5.51406
 20
0.952636
 30
0.0
 40
0
 41
0
  0
SEQEND
 8
0
  0
POLYLINE
  8
0
 62
     0
 66
     1
 10
0
 20
0
 30
0.0
 70
     1
 40
0.15
 41
0.15
  0
VERTEX
  8
0
 10
5.51406
 20
0.952636
 30
0.0
 40
0.00208333
 41
0.00208333
  0
VERTEX
  8
0
 10
0.393446
 20
0.952636
 30
0.0
 40
0.00208333
 41
0.00208333
  0
VERTEX
  8
0
 10
0.633029
 20
1.3144
 30
0.0
 40
0.00208333
 41
0.00208333
  0
VERTEX
  8
0
 10
5.27447
 20
1.3144
 30
0.0
 40
0.00208333
 41
0.00208333
  0
VERTEX
  8
0
 10
5.51406
 20
0.952636
 30
0.0
 40
0.00208333
 41
0.00208333
  0
SEQEND
 8
0
  0
POLYLINE
  8
0
 62
     7
 66
     1
 10
0
 20
0
 30
0.0
 70
     1
 40
0
 41
0
  0
VERTEX
  8
0
 10
2.36003
 20
1.3144
 30
0.0
 40
0
 41
0
  0
VERTEX
  8
0
 10
3.31082
 20
1.3144
 30
0.0
 40
0
 41
0
  0
VERTEX
  8
0
 10
3.31082
 20
0.952636
 30
0.0
 40
0
 41
0
  0
VERTEX
  8
0
 10
2.36003
 20
0.952636
 30
0.0
 40
0
 41
0
  0
VERTEX
  8
0
 10
2.36003
 20
1.3144
 30
0.0
 40
0
 41
0
  0
SEQEND
 8
0
  0
POLYLINE
  8
0
 62
     0
 66
     1
 10
0
 20
0
 30
0.0
 70
     1
 40
0.75
 41
0.75
  0
VERTEX
  8
0
 10
2.36003
 20
1.3144
 30
0.0
 40
0.0104167
 41
0.0104167
  0
VERTEX
  8
0
 10
3.31082
 20
1.3144
 30
0.0
 40
0.0104167
 41
0.0104167
  0
VERTEX
  8
0
 10
3.31082
 20
0.952636
 30
0.0
 40
0.0104167
 41
0.0104167
  0
VERTEX
  8
0
 10
2.36003
 20
0.952636
 30
0.0
 40
0.0104167
 41
0.0104167
  0
VERTEX
  8
0
 10
2.36003
 20
1.3144
 30
0.0
 40
0.0104167
 41
0.0104167
  0
SEQEND
 8
0
  0
POLYLINE
  8
0
 62
     7
 66
     1
 10
0
 20
0
 30
0.0
 70
     1
 40
0
 41
0
  0
VERTEX
  8
0
 10
2.36003
 20
1.3144
 30
0.0
 40
0
 41
0
  0
VERTEX
  8
0
 10
3.31082
 20
1.3144
 30
0.0
 40
0
 41
0
  0
VERTEX
  8
0
 10
3.31082
 20
0.952636
 30
0.0
 40
0
 41
0
  0
VERTEX
  8
0
 10
2.36003
 20
0.952636
 30
0.0
 40
0
 41
0
  0
VERTEX
  8
0
 10
2.36003
 20
1.3144
 30
0.0
 40
0
 41
0
  0
SEQEND
 8
0
  0
POLYLINE
  8
0
 62
     0
 66
     1
 10
0
 20
0
 30
0.0
 70
     1
 40
0.75
 41
0.75
  0
VERTEX
  8
0
 10
2.36003
 20
1.3144
 30
0.0
 40
0.0104167
 41
0.0104167
  0
VERTEX
  8
0
 10
3.31082
 20
1.3144
 30
0.0
 40
0.0104167
 41
0.0104167
  0
VERTEX
  8
0
 10
3.31082
 20
0.952636
 30
0.0
 40
0.0104167
 41
0.0104167
  0
VERTEX
  8
0
 10
2.36003
 20
0.952636
 30
0.0
 40
0.0104167
 41
0.0104167
  0
VERTEX
  8
0
 10
2.36003
 20
1.3144
 30
0.0
 40
0.0104167
 41
0.0104167
  0
SEQEND
 8
0
  0
POLYLINE
  8
0
 62
     0
 66
     1
 10
0
 20
0
 30
0.0
 70
     1
 40
0.75
 41
0.75
  0
VERTEX
  8
0
 10
2.36003
 20
0.952636
 30
0.0
 40
0.0104167
 41
0.0104167
  0
VERTEX
  8
0
 10
2.36003
 20
0.896972
 30
0.0
 40
0.0104167
 41
0.0104167
  0
VERTEX
  8
0
 10
2.37483
 20
0.729818
 30
0.0
 40
0.0104167
 41
0.0104167
  0
VERTEX
  8
0
 10
2.41943
 20
0.536675
 30
0.0
 40
0.0104167
 41
0.0104167
  0
VERTEX
  8
0
 10
2.49371
 20
0.373264
 30
0.0
 40
0.0104167
 41
0.0104167
  0
VERTEX
  8
0
 10
2.59771
 20
0.239529
 30
0.0
 40
0.0104167
 41
0.0104167
  0
VERTEX
  8
0
 10
2.73139
 20
0.135525
 30
0.0
 40
0.0104167
 41
0.0104167
  0
VERTEX
  8
0
 10
2.89481
 20
0.0612522
 30
0.0
 40
0.0104167
 41
0.0104167
  0
VERTEX
  8
0
 10
3.08794
 20
0.0166558
 30
0.0
 40
0.0104167
 41
0.0104167
  0
VERTEX
  8
0
 10
3.2551
 20
0.00179036
 30
0.0
 40
0.0104167
 41
0.0104167
  0
VERTEX
  8
0
 10
3.31082
 20
0.00179036
 30
0.0
 40
0.0104167
 41
0.0104167
  0
VERTEX
  8
0
 10
3.31082
 20
0.952636
 30
0.0
 40
0.0104167
 41
0.0104167
  0
VERTEX
  8
0
 10
2.36003
 20
0.952636
 30
0.0
 40
0.0104167
 41
0.0104167
  0
SEQEND
 8
0
  0
POLYLINE
  8
0
 62
     7
 66
     1
 10
0
 20
0
 30
0.0
 70
     1
 40
0
 41
0
  0
VERTEX
  8
0
 10
4.16075
 20
1.3144
 30
0.0
 40
0
 41
0
  0
VERTEX
  8
0
 10
4.53863
 20
1.3144
 30
0.0
 40
0
 41
0
  0
VERTEX
  8
0
 10
4.53863
 20
0.952636
 30
0.0
 40
0
 41
0
  0
VERTEX
  8
0
 10
4.16075
 20
0.952636
 30
0.0
 40
0
 41
0
  0
VERTEX
  8
0
 10
4.16075
 20
1.3144
 30
0.0
 40
0
 41
0
  0
SEQEND
 8
0
  0
POLYLINE
  8
0
 62
     0
 66
     1
 10
0
 20
0
 30
0.0
 70
     1
 40
0.75
 41
0.75
  0
VERTEX
  8
0
 10
4.16075
 20
1.3144
 30
0.0
 40
0.0104167
 41
0.0104167
  0
VERTEX
  8
0
 10
4.53863
 20
1.3144
 30
0.0
 40
0.0104167
 41
0.0104167
  0
VERTEX
  8
0
 10
4.53863
 20
0.952636
 30
0.0
 40
0.0104167
 41
0.0104167
  0
VERTEX
  8
0
 10
4.16075
 20
0.952636
 30
0.0
 40
0.0104167
 41
0.0104167
  0
VERTEX
  8
0
 10
4.16075
 20
1.3144
 30
0.0
 40
0.0104167
 41
0.0104167
  0
SEQEND
 8
0
  0
POLYLINE
  8
0
 62
     7
 66
     1
 10
0
 20
0
 30
0.0
 70
     1
 40
0
 41
0
  0
VERTEX
  8
0
 10
4.16075
 20
1.3144
 30
0.0
 40
0
 41
0
  0
VERTEX
  8
0
 10
4.53863
 20
1.3144
 30
0.0
 40
0
 41
0
  0
VERTEX
  8
0
 10
4.53863
 20
0.952636
 30
0.0
 40
0
 41
0
  0
VERTEX
  8
0
 10
4.16075
 20
0.952636
 30
0.0
 40
0
 41
0
  0
VERTEX
  8
0
 10
4.16075
 20
1.3144
 30
0.0
 40
0
 41
0
  0
SEQEND
 8
0
  0
POLYLINE
  8
0
 62
     0
 66
     1
 10
0
 20
0
 30
0.0
 70
     1
 40
0.75
 41
0.75
  0
VERTEX
  8
0
 10
4.16075
 20
1.3144
 30
0.0
 40
0.0104167
 41
0.0104167
  0
VERTEX
  8
0
 10
4.53863
 20
1.3144
 30
0.0
 40
0.0104167
 41
0.0104167
  0
VERTEX
  8
0
 10
4.53863
 20
0.952636
 30
0.0
 40
0.0104167
 41
0.0104167
  0
VERTEX
  8
0
 10
4.16075
 20
0.952636
 30
0.0
 40
0.0104167
 41
0.0104167
  0
VERTEX
  8
0
 10
4.16075
 20
1.3144
 30
0.0
 40
0.0104167
 41
0.0104167
  0
SEQEND
 8
0
  0
POLYLINE
  8
0
 62
     0
 66
     1
 10
0
 20
0
 30
0.0
 40
0.75
 41
0.75
  0
VERTEX
  8
0
 10
4.46056
 20
1.13352
 30
0.0
 40
0.0104167
 41
0.0104167
  0
VERTEX
  8
0
 10
4.23888
 20
1.13352
 30
0.0
 40
0.0104167
 41
0.0104167
  0
SEQEND
 8
0
  0
POLYLINE
  8
0
 62
     0
 66
     1
 10
0
 20
0
 30
0.0
 40
0.75
 41
0.75
  0
VERTEX
  8
0
 10
4.46056
 20
0.952636
 30
0.0
 40
0.0104167
 41
0.0104167
  0
VERTEX
  8
0
 10
4.46056
 20
1.31445
 30
0.0
 40
0.0104167
 41
0.0104167
  0
SEQEND
 8
0
  0
POLYLINE
  8
0
 62
     0
 66
     1
 10
0
 20
0
 30
0.0
 40
0.75
 41
0.75
  0
VERTEX
  8
0
 10
4.23888
 20
0.952636
 30
0.0
 40
0.0104167
 41
0.0104167
  0
VERTEX
  8
0
 10
4.23888
 20
1.31445
 30
0.0
 40
0.0104167
 41
0.0104167
  0
SEQEND
 8
0
  0
POLYLINE
  8
0
 62
     7
 66
     1
 10
0
 20
0
 30
0.0
 70
     1
 40
0
 41
0
  0
VERTEX
  8
0
 10
3.57622
 20
1.3144
 30
0.0
 40
0
 41
0
  0
VERTEX
  8
0
 10
4.16075
 20
1.3144
 30
0.0
 40
0
 41
0
  0
VERTEX
  8
0
 10
4.16075
 20
0.952636
 30
0.0
 40
0
 41
0
  0
VERTEX
  8
0
 10
3.57622
 20
0.952636
 30
0.0
 40
0
 41
0
  0
VERTEX
  8
0
 10
3.57622
 20
1.3144
 30
0.0
 40
0
 41
0
  0
SEQEND
 8
0
  0
POLYLINE
  8
0
 62
     0
 66
     1
 10
0
 20
0
 30
0.0
 70
     1
 40
0.75
 41
0.75
  0
VERTEX
  8
0
 10
3.57622
 20
1.3144
 30
0.0
 40
0.0104167
 41
0.0104167
  0
VERTEX
  8
0
 10
4.16075
 20
1.3144
 30
0.0
 40
0.0104167
 41
0.0104167
  0
VERTEX
  8
0
 10
4.16075
 20
0.952636
 30
0.0
 40
0.0104167
 41
0.0104167
  0
VERTEX
  8
0
 10
3.57622
 20
0.952636
 30
0.0
 40
0.0104167
 41
0.0104167
  0
VERTEX
  8
0
 10
3.57622
 20
1.3144
 30
0.0
 40
0.0104167
 41
0.0104167
  0
SEQEND
 8
0
  0
POLYLINE
  8
0
 62
     7
 66
     1
 10
0
 20
0
 30
0.0
 70
     1
 40
0
 41
0
  0
VERTEX
  8
0
 10
3.57622
 20
1.3144
 30
0.0
 40
0
 41
0
  0
VERTEX
  8
0
 10
4.16075
 20
1.3144
 30
0.0
 40
0
 41
0
  0
VERTEX
  8
0
 10
4.16075
 20
0.952636
 30
0.0
 40
0
 41
0
  0
VERTEX
  8
0
 10
3.57622
 20
0.952636
 30
0.0
 40
0
 41
0
  0
VERTEX
  8
0
 10
3.57622
 20
1.3144
 30
0.0
 40
0
 41
0
  0
SEQEND
 8
0
  0
POLYLINE
  8
0
 62
     0
 66
     1
 10
0
 20
0
 30
0.0
 70
     1
 40
0.75
 41
0.75
  0
VERTEX
  8
0
 10
3.57622
 20
1.3144
 30
0.0
 40
0.0104167
 41
0.0104167
  0
VERTEX
  8
0
 10
4.16075
 20
1.3144
 30
0.0
 40
0.0104167
 41
0.0104167
  0
VERTEX
  8
0
 10
4.16075
 20
0.952636
 30
0.0
 40
0.0104167
 41
0.0104167
  0
VERTEX
  8
0
 10
3.57622
 20
0.952636
 30
0.0
 40
0.0104167
 41
0.0104167
  0
VERTEX
  8
0
 10
3.57622
 20
1.3144
 30
0.0
 40
0.0104167
 41
0.0104167
  0
SEQEND
 8
0
  0
POLYLINE
  8
0
 62
     0
 66
     1
 10
0
 20
0
 30
0.0
 40
0.75
 41
0.75
  0
VERTEX
  8
0
 10
4.08263
 20
1.13352
 30
0.0
 40
0.0104167
 41
0.0104167
  0
VERTEX
  8
0
 10
3.6544
 20
1.13352
 30
0.0
 40
0.0104167
 41
0.0104167
  0
SEQEND
 8
0
  0
POLYLINE
  8
0
 62
     0
 66
     1
 10
0
 20
0
 30
0.0
 40
0.75
 41
0.75
  0
VERTEX
  8
0
 10
4.08263
 20
0.952636
 30
0.0
 40
0.0104167
 41
0.0104167
  0
VERTEX
  8
0
 10
4.08263
 20
1.31445
 30
0.0
 40
0.0104167
 41
0.0104167
  0
SEQEND
 8
0
  0
POLYLINE
  8
0
 62
     0
 66
     1
 10
0
 20
0
 30
0.0
 40
0.75
 41
0.75
  0
VERTEX
  8
0
 10
3.6544
 20
0.952636
 30
0.0
 40
0.0104167
 41
0.0104167
  0
VERTEX
  8
0
 10
3.6544
 20
1.31445
 30
0.0
 40
0.0104167
 41
0.0104167
  0
SEQEND
 8
0
  0
POLYLINE
  8
0
 62
     0
 66
     1
 10
0
 20
0
 30
0.0
 70
     1
 40
0
 41
0
  0
VERTEX
  8
0
 10
0.393446
 20
0.952636
 30
0.0
 40
0
 41
0
  0
VERTEX
  8
0
 10
0.393446
 20
10.1728
 30
0.0
 40
0
 41
0
  0
VERTEX
  8
0
 10
0.633029
 20
9.83951
 30
0.0
 40
0
 41
0
  0
VERTEX
  8
0
 10
0.633029
 20
1.3144
 30
0.0
 40
0
 41
0
  0
VERTEX
  8
0
 10
0.393446
 20
0.952636
 30
0.0
 40
0
 41
0
  0
SEQEND
 8
0
  0
POLYLINE
  8
0
 62
     0
 66
     1
 10
0
 20
0
 30
0.0
 70
     1
 40
0.15
 41
0.15
  0
VERTEX
  8
0
 10
0.393446
 20
0.952636
 30
0.0
 40
0.00208333
 41
0.00208333
  0
VERTEX
  8
0
 10
0.393446
 20
10.1728
 30
0.0
 40
0.00208333
 41
0.00208333
  0
VERTEX
  8
0
 10
0.633029
 20
9.83951
 30
0.0
 40
0.00208333
 41
0.00208333
  0
VERTEX
  8
0
 10
0.633029
 20
1.3144
 30
0.0
 40
0.00208333
 41
0.00208333
  0
VERTEX
  8
0
 10
0.393446
 20
0.952636
 30
0.0
 40
0.00208333
 41
0.00208333
  0
SEQEND
 8
0
  0
POLYLINE
  8
0
 62
     0
 66
     1
 10
0
 20
0
 30
0.0
 70
     1
 40
0
 41
0
  0
VERTEX
  8
0
 10
3.5224
 20
0.952636
 30
0.0
 40
0
 41
0
  0
VERTEX
  8
0
 10
3.5224
 20
5.5491
 30
0.0
 40
0
 41
0
  0
VERTEX
  8
0
 10
3.40782
 20
5.66368
 30
0.0
 40
0
 41
0
  0
VERTEX
  8
0
 10
3.40782
 20
0.952636
 30
0.0
 40
0
 41
0
  0
VERTEX
  8
0
 10
3.5224
 20
0.952636
 30
0.0
 40
0
 41
0
  0
SEQEND
 8
0
  0
POLYLINE
  8
0
 62
     0
 66
     1
 10
0
 20
0
 30
0.0
 70
     1
 40
0.15
 41
0.15
  0
VERTEX
  8
0
 10
3.5224
 20
0.952636
 30
0.0
 40
0.00208333
 41
0.00208333
  0
VERTEX
  8
0
 10
3.5224
 20
5.5491
 30
0.0
 40
0.00208333
 41
0.00208333
  0
VERTEX
  8
0
 10
3.40782
 20
5.66368
 30
0.0
 40
0.00208333
 41
0.00208333
  0
VERTEX
  8
0
 10
3.40782
 20
0.952636
 30
0.0
 40
0.00208333
 41
0.00208333
  0
VERTEX
  8
0
 10
3.5224
 20
0.952636
 30
0.0
 40
0.00208333
 41
0.00208333
  0
SEQEND
 8
0
  0
POLYLINE
  8
0
 62
     7
 66
     1
 10
0
 20
0
 30
0.0
 70
     1
 40
0
 41
0
  0
VERTEX
  8
0
 10
3.40782
 20
4.10433
 30
0.0
 40
0
 41
0
  0
VERTEX
  8
0
 10
3.5224
 20
4.10433
 30
0.0
 40
0
 41
0
  0
VERTEX
  8
0
 10
3.5224
 20
3.26129
 30
0.0
 40
0
 41
0
  0
VERTEX
  8
0
 10
3.40782
 20
3.26129
 30
0.0
 40
0
 41
0
  0
VERTEX
  8
0
 10
3.40782
 20
4.10433
 30
0.0
 40
0
 41
0
  0
SEQEND
 8
0
  0
POLYLINE
  8
0
 62
     0
 66
     1
 10
0
 20
0
 30
0.0
 70
     1
 40
0.75
 41
0.75
  0
VERTEX
  8
0
 10
3.40782
 20
4.10433
 30
0.0
 40
0.0104167
 41
0.0104167
  0
VERTEX
  8
0
 10
3.5224
 20
4.10433
 30
0.0
 40
0.0104167
 41
0.0104167
  0
VERTEX
  8
0
 10
3.5224
 20
3.26129
 30
0.0
 40
0.0104167
 41
0.0104167
  0
VERTEX
  8
0
 10
3.40782
 20
3.26129
 30
0.0
 40
0.0104167
 41
0.0104167
  0
VERTEX
  8
0
 10
3.40782
 20
4.10433
 30
0.0
 40
0.0104167
 41
0.0104167
  0
SEQEND
 8
0
  0
POLYLINE
  8
0
 62
     7
 66
     1
 10
0
 20
0
 30
0.0
 70
     1
 40
0
 41
0
  0
VERTEX
  8
0
 10
3.40782
 20
4.10433
 30
0.0
 40
0
 41
0
  0
VERTEX
  8
0
 10
3.5224
 20
4.10433
 30
0.0
 40
0
 41
0
  0
VERTEX
  8
0
 10
3.5224
 20
3.26129
 30
0.0
 40
0
 41
0
  0
VERTEX
  8
0
 10
3.40782
 20
3.26129
 30
0.0
 40
0
 41
0
  0
VERTEX
  8
0
 10
3.40782
 20
4.10433
 30
0.0
 40
0
 41
0
  0
SEQEND
 8
0
  0
POLYLINE
  8
0
 62
     0
 66
     1
 10
0
 20
0
 30
0.0
 70
     1
 40
0.75
 41
0.75
  0
VERTEX
  8
0
 10
3.40782
 20
4.10433
 30
0.0
 40
0.0104167
 41
0.0104167
  0
VERTEX
  8
0
 10
3.5224
 20
4.10433
 30
0.0
 40
0.0104167
 41
0.0104167
  0
VERTEX
  8
0
 10
3.5224
 20
3.26129
 30
0.0
 40
0.0104167
 41
0.0104167
  0
VERTEX
  8
0
 10
3.40782
 20
3.26129
 30
0.0
 40
0.0104167
 41
0.0104167
  0
VERTEX
  8
0
 10
3.40782
 20
4.10433
 30
0.0
 40
0.0104167
 41
0.0104167
  0
SEQEND
 8
0
  0
POLYLINE
  8
0
 62
     0
 66
     1
 10
0
 20
0
 30
0.0
 70
     1
 40
0.75
 41
0.75
  0
VERTEX
  8
0
 10
3.40782
 20
4.10433
 30
0.0
 40
0.0104167
 41
0.0104167
  0
VERTEX
  8
0
 10
3.3584
 20
4.10433
 30
0.0
 40
0.0104167
 41
0.0104167
  0
VERTEX
  8
0
 10
3.21024
 20
4.09119
 30
0.0
 40
0.0104167
 41
0.0104167
  0
VERTEX
  8
0
 10
3.03896
 20
4.05165
 30
0.0
 40
0.0104167
 41
0.0104167
  0
VERTEX
  8
0
 10
2.8941
 20
3.98579
 30
0.0
 40
0.0104167
 41
0.0104167
  0
VERTEX
  8
0
 10
2.7755
 20
3.89361
 30
0.0
 40
0.0104167
 41
0.0104167
  0
VERTEX
  8
0
 10
2.68332
 20
3.77501
 30
0.0
 40
0.0104167
 41
0.0104167
  0
VERTEX
  8
0
 10
2.61746
 20
3.63015
 30
0.0
 40
0.0104167
 41
0.0104167
  0
VERTEX
  8
0
 10
2.5779
 20
3.45888
 30
0.0
 40
0.0104167
 41
0.0104167
  0
VERTEX
  8
0
 10
2.56478
 20
3.31071
 30
0.0
 40
0.0104167
 41
0.0104167
  0
VERTEX
  8
0
 10
2.56478
 20
3.26129
 30
0.0
 40
0.0104167
 41
0.0104167
  0
VERTEX
  8
0
 10
3.40782
 20
3.26129
 30
0.0
 40
0.0104167
 41
0.0104167
  0
VERTEX
  8
0
 10
3.40782
 20
4.10433
 30
0.0
 40
0.0104167
 41
0.0104167
  0
SEQEND
 8
0
  0
POLYLINE
  8
0
 62
     0
 66
     1
 10
0
 20
0
 30
0.0
 70
     1
 40
0
 41
0
  0
VERTEX
  8
0
 10
3.5224
 20
5.5491
 30
0.0
 40
0
 41
0
  0
VERTEX
  8
0
 10
4.97906
 20
5.5491
 30
0.0
 40
0
 41
0
  0
VERTEX
  8
0
 10
4.97906
 20
5.66368
 30
0.0
 40
0
 41
0
  0
VERTEX
  8
0
 10
3.40782
 20
5.66368
 30
0.0
 40
0
 41
0
  0
VERTEX
  8
0
 10
3.5224
 20
5.5491
 30
0.0
 40
0
 41
0
  0
SEQEND
 8
0
  0
POLYLINE
  8
0
 62
     0
 66
     1
 10
0
 20
0
 30
0.0
 70
     1
 40
0.15
 41
0.15
  0
VERTEX
  8
0
 10
3.5224
 20
5.5491
 30
0.0
 40
0.00208333
 41
0.00208333
  0
VERTEX
  8
0
 10
4.97906
 20
5.5491
 30
0.0
 40
0.00208333
 41
0.00208333
  0
VERTEX
  8
0
 10
4.97906
 20
5.66368
 30
0.0
 40
0.00208333
 41
0.00208333
  0
VERTEX
  8
0
 10
3.40782
 20
5.66368
 30
0.0
 40
0.00208333
 41
0.00208333
  0
VERTEX
  8
0
 10
3.5224
 20
5.5491
 30
0.0
 40
0.00208333
 41
0.00208333
  0
SEQEND
 8
0
  0
POLYLINE
  8
0
 62
     0
 66
     1
 10
0
 20
0
 30
0.0
 70
     1
 40
0
 41
0
  0
VERTEX
  8
0
 10
4.97906
 20
5.98492
 30
0.0
 40
0
 41
0
  0
VERTEX
  8
0
 10
5.51406
 20
5.98492
 30
0.0
 40
0
 41
0
  0
VERTEX
  8
0
 10
5.51406
 20
5.5491
 30
0.0
 40
0
 41
0
  0
VERTEX
  8
0
 10
4.97906
 20
5.5491
 30
0.0
 40
0
 41
0
  0
VERTEX
  8
0
 10
4.97906
 20
5.98492
 30
0.0
 40
0
 41
0
  0
SEQEND
 8
0
  0
POLYLINE
  8
0
 62
     0
 66
     1
 10
0
 20
0
 30
0.0
 70
     1
 40
0.15
 41
0.15
  0
VERTEX
  8
0
 10
4.97906
 20
5.98492
 30
0.0
 40
0.00208333
 41
0.00208333
  0
VERTEX
  8
0
 10
5.51406
 20
5.98492
 30
0.0
 40
0.00208333
 41
0.00208333
  0
VERTEX
  8
0
 10
5.51406
 20
5.5491
 30
0.0
 40
0.00208333
 41
0.00208333
  0
VERTEX
  8
0
 10
4.97906
 20
5.5491
 30
0.0
 40
0.00208333
 41
0.00208333
  0
VERTEX
  8
0
 10
4.97906
 20
5.98492
 30
0.0
 40
0.00208333
 41
0.00208333
  0
SEQEND
 8
0
  0
POLYLINE
  8
0
 62
     0
 66
     1
 10
0
 20
0
 30
0.0
 70
     1
 40
0
 41
0
  0
VERTEX
  8
0
 10
0.393446
 20
2.69493
 30
0.0
 40
0
 41
0
  0
VERTEX
  8
0
 10
3.5224
 20
2.69493
 30
0.0
 40
0
 41
0
  0
VERTEX
  8
0
 10
3.5224
 20
2.58035
 30
0.0
 40
0
 41
0
  0
VERTEX
  8
0
 10
0.393446
 20
2.58035
 30
0.0
 40
0
 41
0
  0
VERTEX
  8
0
 10
0.393446
 20
2.69493
 30
0.0
 40
0
 41
0
  0
SEQEND
 8
0
  0
POLYLINE
  8
0
 62
     0
 66
     1
 10
0
 20
0
 30
0.0
 70
     1
 40
0.15
 41
0.15
  0
VERTEX
  8
0
 10
0.393446
 20
2.69493
 30
0.0
 40
0.00208333
 41
0.00208333
  0
VERTEX
  8
0
 10
3.5224
 20
2.69493
 30
0.0
 40
0.00208333
 41
0.00208333
  0
VERTEX
  8
0
 10
3.5224
 20
2.58035
 30
0.0
 40
0.00208333
 41
0.00208333
  0
VERTEX
  8
0
 10
0.393446
 20
2.58035
 30
0.0
 40
0.00208333
 41
0.00208333
  0
VERTEX
  8
0
 10
0.393446
 20
2.69493
 30
0.0
 40
0.00208333
 41
0.00208333
  0
SEQEND
 8
0
  0
POLYLINE
  8
0
 62
     7
 66
     1
 10
0
 20
0
 30
0.0
 70
     1
 40
0
 41
0
  0
VERTEX
  8
0
 10
2.3731
 20
2.69493
 30
0.0
 40
0
 41
0
  0
VERTEX
  8
0
 10
3.31739
 20
2.69493
 30
0.0
 40
0
 41
0
  0
VERTEX
  8
0
 10
3.31739
 20
2.58035
 30
0.0
 40
0
 41
0
  0
VERTEX
  8
0
 10
2.3731
 20
2.58035
 30
0.0
 40
0
 41
0
  0
VERTEX
  8
0
 10
2.3731
 20
2.69493
 30
0.0
 40
0
 41
0
  0
SEQEND
 8
0
  0
POLYLINE
  8
0
 62
     0
 66
     1
 10
0
 20
0
 30
0.0
 70
     1
 40
0.75
 41
0.75
  0
VERTEX
  8
0
 10
2.3731
 20
2.69493
 30
0.0
 40
0.0104167
 41
0.0104167
  0
VERTEX
  8
0
 10
3.31739
 20
2.69493
 30
0.0
 40
0.0104167
 41
0.0104167
  0
VERTEX
  8
0
 10
3.31739
 20
2.58035
 30
0.0
 40
0.0104167
 41
0.0104167
  0
VERTEX
  8
0
 10
2.3731
 20
2.58035
 30
0.0
 40
0.0104167
 41
0.0104167
  0
VERTEX
  8
0
 10
2.3731
 20
2.69493
 30
0.0
 40
0.0104167
 41
0.0104167
  0
SEQEND
 8
0
  0
POLYLINE
  8
0
 62
     7
 66
     1
 10
0
 20
0
 30
0.0
 70
     1
 40
0
 41
0
  0
VERTEX
  8
0
 10
2.3731
 20
2.69493
 30
0.0
 40
0
 41
0
  0
VERTEX
  8
0
 10
3.31739
 20
2.69493
 30
0.0
 40
0
 41
0
  0
VERTEX
  8
0
 10
3.31739
 20
2.58035
 30
0.0
 40
0
 41
0
  0
VERTEX
  8
0
 10
2.3731
 20
2.58035
 30
0.0
 40
0
 41
0
  0
VERTEX
  8
0
 10
2.3731
 20
2.69493
 30
0.0
 40
0
 41
0
  0
SEQEND
 8
0
  0
POLYLINE
  8
0
 62
     0
 66
     1
 10
0
 20
0
 30
0.0
 70
     1
 40
0.75
 41
0.75
  0
VERTEX
  8
0
 10
2.3731
 20
2.69493
 30
0.0
 40
0.0104167
 41
0.0104167
  0
VERTEX
  8
0
 10
3.31739
 20
2.69493
 30
0.0
 40
0.0104167
 41
0.0104167
  0
VERTEX
  8
0
 10
3.31739
 20
2.58035
 30
0.0
 40
0.0104167
 41
0.0104167
  0
VERTEX
  8
0
 10
2.3731
 20
2.58035
 30
0.0
 40
0.0104167
 41
0.0104167
  0
VERTEX
  8
0
 10
2.3731
 20
2.69493
 30
0.0
 40
0.0104167
 41
0.0104167
  0
SEQEND
 8
0
  0
POLYLINE
  8
0
 62
     0
 66
     1
 10
0
 20
0
 30
0.0
 70
     1
 40
0.75
 41
0.75
  0
VERTEX
  8
0
 10
2.3731
 20
2.58035
 30
0.0
 40
0.0104167
 41
0.0104167
  0
VERTEX
  8
0
 10
2.3731
 20
2.52507
 30
0.0
 40
0.0104167
 41
0.0104167
  0
VERTEX
  8
0
 10
2.38781
 20
2.35906
 30
0.0
 40
0.0104167
 41
0.0104167
  0
VERTEX
  8
0
 10
2.43207
 20
2.16726
 30
0.0
 40
0.0104167
 41
0.0104167
  0
VERTEX
  8
0
 10
2.50586
 20
2.00493
 30
0.0
 40
0.0104167
 41
0.0104167
  0
VERTEX
  8
0
 10
2.60915
 20
1.87218
 30
0.0
 40
0.0104167
 41
0.0104167
  0
VERTEX
  8
0
 10
2.74192
 20
1.76888
 30
0.0
 40
0.0104167
 41
0.0104167
  0
VERTEX
  8
0
 10
2.90424
 20
1.6951
 30
0.0
 40
0.0104167
 41
0.0104167
  0
VERTEX
  8
0
 10
3.09603
 20
1.65082
 30
0.0
 40
0.0104167
 41
0.0104167
  0
VERTEX
  8
0
 10
3.26204
 20
1.63607
 30
0.0
 40
0.0104167
 41
0.0104167
  0
VERTEX
  8
0
 10
3.31739
 20
1.63607
 30
0.0
 40
0.0104167
 41
0.0104167
  0
VERTEX
  8
0
 10
3.31739
 20
2.58035
 30
0.0
 40
0.0104167
 41
0.0104167
  0
VERTEX
  8
0
 10
2.3731
 20
2.58035
 30
0.0
 40
0.0104167
 41
0.0104167
  0
SEQEND
 8
0
  0
POLYLINE
  8
0
 62
     7
 66
     1
 10
0
 20
0
 30
0.0
 70
     1
 40
0
 41
0
  0
VERTEX
  8
0
 10
0.667481
 20
2.69493
 30
0.0
 40
0
 41
0
  0
VERTEX
  8
0
 10
1.39279
 20
2.69493
 30
0.0
 40
0
 41
0
  0
VERTEX
  8
0
 10
1.39279
 20
2.58035
 30
0.0
 40
0
 41
0
  0
VERTEX
  8
0
 10
0.667481
 20
2.58035
 30
0.0
 40
0
 41
0
  0
VERTEX
  8
0
 10
0.667481
 20
2.69493
 30
0.0
 40
0
 41
0
  0
SEQEND
 8
0
  0
POLYLINE
  8
0
 62
     0
 66
     1
 10
0
 20
0
 30
0.0
 70
     1
 40
0.75
 41
0.75
  0
VERTEX
  8
0
 10
0.667481
 20
2.69493
 30
0.0
 40
0.0104167
 41
0.0104167
  0
VERTEX
  8
0
 10
1.39279
 20
2.69493
 30
0.0
 40
0.0104167
 41
0.0104167
  0
VERTEX
  8
0
 10
1.39279
 20
2.58035
 30
0.0
 40
0.0104167
 41
0.0104167
  0
VERTEX
  8
0
 10
0.667481
 20
2.58035
 30
0.0
 40
0.0104167
 41
0.0104167
  0
VERTEX
  8
0
 10
0.667481
 20
2.69493
 30
0.0
 40
0.0104167
 41
0.0104167
  0
SEQEND
 8
0
  0
POLYLINE
  8
0
 62
     7
 66
     1
 10
0
 20
0
 30
0.0
 70
     1
 40
0
 41
0
  0
VERTEX
  8
0
 10
0.667481
 20
2.69493
 30
0.0
 40
0
 41
0
  0
VERTEX
  8
0
 10
1.39279
 20
2.69493
 30
0.0
 40
0
 41
0
  0
VERTEX
  8
0
 10
1.39279
 20
2.58035
 30
0.0
 40
0
 41
0
  0
VERTEX
  8
0
 10
0.667481
 20
2.58035
 30
0.0
 40
0
 41
0
  0
VERTEX
  8
0
 10
0.667481
 20
2.69493
 30
0.0
 40
0
 41
0
  0
SEQEND
 8
0
  0
POLYLINE
  8
0
 62
     0
 66
     1
 10
0
 20
0
 30
0.0
 70
     1
 40
0.75
 41
0.75
  0
VERTEX
  8
0
 10
0.667481
 20
2.69493
 30
0.0
 40
0.0104167
 41
0.0104167
  0
VERTEX
  8
0
 10
1.39279
 20
2.69493
 30
0.0
 40
0.0104167
 41
0.0104167
  0
VERTEX
  8
0
 10
1.39279
 20
2.58035
 30
0.0
 40
0.0104167
 41
0.0104167
  0
VERTEX
  8
0
 10
0.667481
 20
2.58035
 30
0.0
 40
0.0104167
 41
0.0104167
  0
VERTEX
  8
0
 10
0.667481
 20
2.69493
 30
0.0
 40
0.0104167
 41
0.0104167
  0
SEQEND
 8
0
  0
POLYLINE
  8
0
 62
     0
 66
     1
 10
0
 20
0
 30
0.0
 70
     1
 40
0.75
 41
0.75
  0
VERTEX
  8
0
 10
1.39279
 20
2.69493
 30
0.0
 40
0.0104167
 41
0.0104167
  0
VERTEX
  8
0
 10
1.39279
 20
2.73747
 30
0.0
 40
0.0104167
 41
0.0104167
  0
VERTEX
  8
0
 10
1.38146
 20
2.86496
 30
0.0
 40
0.0104167
 41
0.0104167
  0
VERTEX
  8
0
 10
1.34744
 20
3.01232
 30
0.0
 40
0.0104167
 41
0.0104167
  0
VERTEX
  8
0
 10
1.29074
 20
3.13699
 30
0.0
 40
0.0104167
 41
0.0104167
  0
VERTEX
  8
0
 10
1.21143
 20
3.23904
 30
0.0
 40
0.0104167
 41
0.0104167
  0
VERTEX
  8
0
 10
1.10938
 20
3.31836
 30
0.0
 40
0.0104167
 41
0.0104167
  0
VERTEX
  8
0
 10
0.9847
 20
3.37506
 30
0.0
 40
0.0104167
 41
0.0104167
  0
VERTEX
  8
0
 10
0.837349
 20
3.40907
 30
0.0
 40
0.0104167
 41
0.0104167
  0
VERTEX
  8
0
 10
0.709853
 20
3.42036
 30
0.0
 40
0.0104167
 41
0.0104167
  0
VERTEX
  8
0
 10
0.667372
 20
3.42036
 30
0.0
 40
0.0104167
 41
0.0104167
  0
VERTEX
  8
0
 10
0.667372
 20
2.69493
 30
0.0
 40
0.0104167
 41
0.0104167
  0
VERTEX
  8
0
 10
1.39279
 20
2.69493
 30
0.0
 40
0.0104167
 41
0.0104167
  0
SEQEND
 8
0
  0
POLYLINE
  8
0
 62
     0
 66
     1
 10
0
 20
0
 30
0.0
 70
     1
 40
0
 41
0
  0
VERTEX
  8
0
 10
1.81321
 20
2.69493
 30
0.0
 40
0
 41
0
  0
VERTEX
  8
0
 10
1.92779
 20
2.69493
 30
0.0
 40
0
 41
0
  0
VERTEX
  8
0
 10
1.92779
 20
0.952636
 30
0.0
 40
0
 41
0
  0
VERTEX
  8
0
 10
1.81321
 20
0.952636
 30
0.0
 40
0
 41
0
  0
VERTEX
  8
0
 10
1.81321
 20
2.69493
 30
0.0
 40
0
 41
0
  0
SEQEND
 8
0
  0
POLYLINE
  8
0
 62
     0
 66
     1
 10
0
 20
0
 30
0.0
 70
     1
 40
0.15
 41
0.15
  0
VERTEX
  8
0
 10
1.81321
 20
2.69493
 30
0.0
 40
0.00208333
 41
0.00208333
  0
VERTEX
  8
0
 10
1.92779
 20
2.69493
 30
0.0
 40
0.00208333
 41
0.00208333
  0
VERTEX
  8
0
 10
1.92779
 20
0.952636
 30
0.0
 40
0.00208333
 41
0.00208333
  0
VERTEX
  8
0
 10
1.81321
 20
0.952636
 30
0.0
 40
0.00208333
 41
0.00208333
  0
VERTEX
  8
0
 10
1.81321
 20
2.69493
 30
0.0
 40
0.00208333
 41
0.00208333
  0
SEQEND
 8
0
  0
POLYLINE
  8
0
 62
     0
 66
     1
 10
0
 20
0
 30
0.0
 70
     1
 40
0
 41
0
  0
VERTEX
  8
0
 10
0.393446
 20
4.16162
 30
0.0
 40
0
 41
0
  0
VERTEX
  8
0
 10
2.27783
 20
4.16162
 30
0.0
 40
0
 41
0
  0
VERTEX
  8
0
 10
2.16325
 20
4.27621
 30
0.0
 40
0
 41
0
  0
VERTEX
  8
0
 10
0.393446
 20
4.27621
 30
0.0
 40
0
 41
0
  0
VERTEX
  8
0
 10
0.393446
 20
4.16162
 30
0.0
 40
0
 41
0
  0
SEQEND
 8
0
  0
POLYLINE
  8
0
 62
     0
 66
     1
 10
0
 20
0
 30
0.0
 70
     1
 40
0.15
 41
0.15
  0
VERTEX
  8
0
 10
0.393446
 20
4.16162
 30
0.0
 40
0.00208333
 41
0.00208333
  0
VERTEX
  8
0
 10
2.27783
 20
4.16162
 30
0.0
 40
0.00208333
 41
0.00208333
  0
VERTEX
  8
0
 10
2.16325
 20
4.27621
 30
0.0
 40
0.00208333
 41
0.00208333
  0
VERTEX
  8
0
 10
0.393446
 20
4.27621
 30
0.0
 40
0.00208333
 41
0.00208333
  0
VERTEX
  8
0
 10
0.393446
 20
4.16162
 30
0.0
 40
0.00208333
 41
0.00208333
  0
SEQEND
 8
0
  0
POLYLINE
  8
0
 62
     0
 66
     1
 10
0
 20
0
 30
0.0
 70
     1
 40
0
 41
0
  0
VERTEX
  8
0
 10
2.27783
 20
4.16162
 30
0.0
 40
0
 41
0
  0
VERTEX
  8
0
 10
2.27783
 20
5.17025
 30
0.0
 40
0
 41
0
  0
VERTEX
  8
0
 10
2.16325
 20
5.17025
 30
0.0
 40
0
 41
0
  0
VERTEX
  8
0
 10
2.16325
 20
4.27621
 30
0.0
 40
0
 41
0
  0
VERTEX
  8
0
 10
2.27783
 20
4.16162
 30
0.0
 40
0
 41
0
  0
SEQEND
 8
0
  0
POLYLINE
  8
0
 62
     0
 66
     1
 10
0
 20
0
 30
0.0
 70
     1
 40
0.15
 41
0.15
  0
VERTEX
  8
0
 10
2.27783
 20
4.16162
 30
0.0
 40
0.00208333
 41
0.00208333
  0
VERTEX
  8
0
 10
2.27783
 20
5.17025
 30
0.0
 40
0.00208333
 41
0.00208333
  0
VERTEX
  8
0
 10
2.16325
 20
5.17025
 30
0.0
 40
0.00208333
 41
0.00208333
  0
VERTEX
  8
0
 10
2.16325
 20
4.27621
 30
0.0
 40
0.00208333
 41
0.00208333
  0
VERTEX
  8
0
 10
2.27783
 20
4.16162
 30
0.0
 40
0.00208333
 41
0.00208333
  0
SEQEND
 8
0
  0
POLYLINE
  8
0
 62
     0
 66
     1
 10
0
 20
0
 30
0.0
 70
     1
 40
0
 41
0
  0
VERTEX
  8
0
 10
3.40782
 20
2.98335
 30
0.0
 40
0
 41
0
  0
VERTEX
  8
0
 10
5.51406
 20
2.98335
 30
0.0
 40
0
 41
0
  0
VERTEX
  8
0
 10
5.51406
 20
2.86876
 30
0.0
 40
0
 41
0
  0
VERTEX
  8
0
 10
3.40782
 20
2.86876
 30
0.0
 40
0
 41
0
  0
VERTEX
  8
0
 10
3.40782
 20
2.98335
 30
0.0
 40
0
 41
0
  0
SEQEND
 8
0
  0
POLYLINE
  8
0
 62
     0
 66
     1
 10
0
 20
0
 30
0.0
 70
     1
 40
0.15
 41
0.15
  0
VERTEX
  8
0
 10
3.40782
 20
2.98335
 30
0.0
 40
0.00208333
 41
0.00208333
  0
VERTEX
  8
0
 10
5.51406
 20
2.98335
 30
0.0
 40
0.00208333
 41
0.00208333
  0
VERTEX
  8
0
 10
5.51406
 20
2.86876
 30
0.0
 40
0.00208333
 41
0.00208333
  0
VERTEX
  8
0
 10
3.40782
 20
2.86876
 30
0.0
 40
0.00208333
 41
0.00208333
  0
VERTEX
  8
0
 10
3.40782
 20
2.98335
 30
0.0
 40
0.00208333
 41
0.00208333
  0
SEQEND
 8
0
  0
POLYLINE
  8
0
 62
     7
 66
     1
 10
0
 20
0
 30
0.0
 70
     1
 40
0
 41
0
  0
VERTEX
  8
0
 10
3.64415
 20
2.98335
 30
0.0
 40
0
 41
0
  0
VERTEX
  8
0
 10
4.28782
 20
2.98335
 30
0.0
 40
0
 41
0
  0
VERTEX
  8
0
 10
4.28782
 20
2.86876
 30
0.0
 40
0
 41
0
  0
VERTEX
  8
0
 10
3.64415
 20
2.86876
 30
0.0
 40
0
 41
0
  0
VERTEX
  8
0
 10
3.64415
 20
2.98335
 30
0.0
 40
0
 41
0
  0
SEQEND
 8
0
  0
POLYLINE
  8
0
 62
     0
 66
     1
 10
0
 20
0
 30
0.0
 70
     1
 40
0.75
 41
0.75
  0
VERTEX
  8
0
 10
3.64415
 20
2.98335
 30
0.0
 40
0.0104167
 41
0.0104167
  0
VERTEX
  8
0
 10
4.28782
 20
2.98335
 30
0.0
 40
0.0104167
 41
0.0104167
  0
VERTEX
  8
0
 10
4.28782
 20
2.86876
 30
0.0
 40
0.0104167
 41
0.0104167
  0
VERTEX
  8
0
 10
3.64415
 20
2.86876
 30
0.0
 40
0.0104167
 41
0.0104167
  0
VERTEX
  8
0
 10
3.64415
 20
2.98335
 30
0.0
 40
0.0104167
 41
0.0104167
  0
SEQEND
 8
0
  0
POLYLINE
  8
0
 62
     7
 66
     1
 10
0
 20
0
 30
0.0
 70
     1
 40
0
 41
0
  0
VERTEX
  8
0
 10
3.64415
 20
2.98335
 30
0.0
 40
0
 41
0
  0
VERTEX
  8
0
 10
4.28782
 20
2.98335
 30
0.0
 40
0
 41
0
  0
VERTEX
  8
0
 10
4.28782
 20
2.86876
 30
0.0
 40
0
 41
0
  0
VERTEX
  8
0
 10
3.64415
 20
2.86876
 30
0.0
 40
0
 41
0
  0
VERTEX
  8
0
 10
3.64415
 20
2.98335
 30
0.0
 40
0
 41
0
  0
SEQEND
 8
0
  0
POLYLINE
  8
0
 62
     0
 66
     1
 10
0
 20
0
 30
0.0
 70
     1
 40
0.75
 41
0.75
  0
VERTEX
  8
0
 10
3.64415
 20
2.98335
 30
0.0
 40
0.0104167
 41
0.0104167
  0
VERTEX
  8
0
 10
4.28782
 20
2.98335
 30
0.0
 40
0.0104167
 41
0.0104167
  0
VERTEX
  8
0
 10
4.28782
 20
2.86876
 30
0.0
 40
0.0104167
 41
0.0104167
  0
VERTEX
  8
0
 10
3.64415
 20
2.86876
 30
0.0
 40
0.0104167
 41
0.0104167
  0
VERTEX
  8
0
 10
3.64415
 20
2.98335
 30
0.0
 40
0.0104167
 41
0.0104167
  0
SEQEND
 8
0
  0
POLYLINE
  8
0
 62
     0
 66
     1
 10
0
 20
0
 30
0.0
 70
     1
 40
0.75
 41
0.75
  0
VERTEX
  8
0
 10
3.64415
 20
2.98335
 30
0.0
 40
0.0104167
 41
0.0104167
  0
VERTEX
  8
0
 10
3.64415
 20
3.02111
 30
0.0
 40
0.0104167
 41
0.0104167
  0
VERTEX
  8
0
 10
3.65419
 20
3.13422
 30
0.0
 40
0.0104167
 41
0.0104167
  0
VERTEX
  8
0
 10
3.68435
 20
3.26497
 30
0.0
 40
0.0104167
 41
0.0104167
  0
VERTEX
  8
0
 10
3.73465
 20
3.3756
 30
0.0
 40
0.0104167
 41
0.0104167
  0
VERTEX
  8
0
 10
3.80507
 20
3.46615
 30
0.0
 40
0.0104167
 41
0.0104167
  0
VERTEX
  8
0
 10
3.89556
 20
3.53651
 30
0.0
 40
0.0104167
 41
0.0104167
  0
VERTEX
  8
0
 10
4.00618
 20
3.58681
 30
0.0
 40
0.0104167
 41
0.0104167
  0
VERTEX
  8
0
 10
4.13693
 20
3.61697
 30
0.0
 40
0.0104167
 41
0.0104167
  0
VERTEX
  8
0
 10
4.25006
 20
3.62701
 30
0.0
 40
0.0104167
 41
0.0104167
  0
VERTEX
  8
0
 10
4.28782
 20
3.62701
 30
0.0
 40
0.0104167
 41
0.0104167
  0
VERTEX
  8
0
 10
4.28782
 20
2.98335
 30
0.0
 40
0.0104167
 41
0.0104167
  0
VERTEX
  8
0
 10
3.64415
 20
2.98335
 30
0.0
 40
0.0104167
 41
0.0104167
  0
SEQEND
 8
0
  0
POLYLINE
  8
0
 62
     7
 66
     1
 10
0
 20
0
 30
0.0
 70
     1
 40
0
 41
0
  0
VERTEX
  8
0
 10
0.567165
 20
10.1728
 30
0.0
 40
0
 41
0
  0
VERTEX
  8
0
 10
0.567165
 20
11.427
 30
0.0
 40
0
 41
0
  0
VERTEX
  8
0
 10
0.452582
 20
11.4999
 30
0.0
 40
0
 41
0
  0
VERTEX
  8
0
 10
0.452582
 20
10.1728
 30
0.0
 40
0
 41
0
  0
VERTEX
  8
0
 10
0.567165
 20
10.1728
 30
0.0
 40
0
 41
0
  0
SEQEND
 8
0
  0
POLYLINE
  8
0
 62
     0
 66
     1
 10
0
 20
0
 30
0.0
 70
     1
 40
0.15
 41
0.15
  0
VERTEX
  8
0
 10
0.567165
 20
10.1728
 30
0.0
 40
0.00208333
 41
0.00208333
  0
VERTEX
  8
0
 10
0.567165
 20
11.427
 30
0.0
 40
0.00208333
 41
0.00208333
  0
VERTEX
  8
0
 10
0.452582
 20
11.4999
 30
0.0
 40
0.00208333
 41
0.00208333
  0
VERTEX
  8
0
 10
0.452582
 20
10.1728
 30
0.0
 40
0.00208333
 41
0.00208333
  0
VERTEX
  8
0
 10
0.567165
 20
10.1728
 30
0.0
 40
0.00208333
 41
0.00208333
  0
SEQEND
 8
0
  0
POLYLINE
  8
0
 62
     7
 66
     1
 10
0
 20
0
 30
0.0
 70
     1
 40
0
 41
0
  0
VERTEX
  8
0
 10
0.567165
 20
11.427
 30
0.0
 40
0
 41
0
  0
VERTEX
  8
0
 10
3.5281
 20
11.427
 30
0.0
 40
0
 41
0
  0
VERTEX
  8
0
 10
3.60101
 20
11.4999
 30
0.0
 40
0
 41
0
  0
VERTEX
  8
0
 10
0.452582
 20
11.4999
 30
0.0
 40
0
 41
0
  0
VERTEX
  8
0
 10
0.567165
 20
11.427
 30
0.0
 40
0
 41
0
  0
SEQEND
 8
0
  0
POLYLINE
  8
0
 62
     0
 66
     1
 10
0
 20
0
 30
0.0
 70
     1
 40
0.15
 41
0.15
  0
VERTEX
  8
0
 10
0.567165
 20
11.427
 30
0.0
 40
0.00208333
 41
0.00208333
  0
VERTEX
  8
0
 10
3.5281
 20
11.427
 30
0.0
 40
0.00208333
 41
0.00208333
  0
VERTEX
  8
0
 10
3.60101
 20
11.4999
 30
0.0
 40
0.00208333
 41
0.00208333
  0
VERTEX
  8
0
 10
0.452582
 20
11.4999
 30
0.0
 40
0.00208333
 41
0.00208333
  0
VERTEX
  8
0
 10
0.567165
 20
11.427
 30
0.0
 40
0.00208333
 41
0.00208333
  0
SEQEND
 8
0
  0
POLYLINE
  8
0
 62
     7
 66
     1
 10
0
 20
0
 30
0.0
 70
     1
 40
0
 41
0
  0
VERTEX
  8
0
 10
3.5281
 20
11.427
 30
0.0
 40
0
 41
0
  0
VERTEX
  8
0
 10
3.5281
 20
10.1728
 30
0.0
 40
0
 41
0
  0
VERTEX
  8
0
 10
3.60101
 20
10.1728
 30
0.0
 40
0
 41
0
  0
VERTEX
  8
0
 10
3.60101
 20
11.4999
 30
0.0
 40
0
 41
0
  0
VERTEX
  8
0
 10
3.5281
 20
11.427
 30
0.0
 40
0
 41
0
  0
SEQEND
 8
0
  0
POLYLINE
  8
0
 62
     0
 66
     1
 10
0
 20
0
 30
0.0
 70
     1
 40
0.15
 41
0.15
  0
VERTEX
  8
0
 10
3.5281
 20
11.427
 30
0.0
 40
0.00208333
 41
0.00208333
  0
VERTEX
  8
0
 10
3.5281
 20
10.1728
 30
0.0
 40
0.00208333
 41
0.00208333
  0
VERTEX
  8
0
 10
3.60101
 20
10.1728
 30
0.0
 40
0.00208333
 41
0.00208333
  0
VERTEX
  8
0
 10
3.60101
 20
11.4999
 30
0.0
 40
0.00208333
 41
0.00208333
  0
VERTEX
  8
0
 10
3.5281
 20
11.427
 30
0.0
 40
0.00208333
 41
0.00208333
  0
SEQEND
 8
0
  0
POLYLINE
  8
0
 62
     7
 66
     1
 10
0
 20
0
 30
0.0
 70
     1
 40
0
 41
0
  0
VERTEX
  8
0
 10
0.633083
 20
1.93994
 30
0.0
 40
0
 41
0
  0
VERTEX
  8
0
 10
1.81099
 20
1.93994
 30
0.0
 40
0
 41
0
  0
VERTEX
  8
0
 10
1.81099
 20
1.31494
 30
0.0
 40
0
 41
0
  0
VERTEX
  8
0
 10
0.633083
 20
1.31494
 30
0.0
 40
0
 41
0
  0
VERTEX
  8
0
 10
0.633083
 20
1.93994
 30
0.0
 40
0
 41
0
  0
SEQEND
 8
0
  0
POLYLINE
  8
0
 62
     0
 66
     1
 10
0
 20
0
 30
0.0
 70
     1
 40
0.75
 41
0.75
  0
VERTEX
  8
0
 10
0.633083
 20
1.93994
 30
0.0
 40
0.0104167
 41
0.0104167
  0
VERTEX
  8
0
 10
1.81099
 20
1.93994
 30
0.0
 40
0.0104167
 41
0.0104167
  0
VERTEX
  8
0
 10
1.81099
 20
1.31494
 30
0.0
 40
0.0104167
 41
0.0104167
  0
VERTEX
  8
0
 10
0.633083
 20
1.31494
 30
0.0
 40
0.0104167
 41
0.0104167
  0
VERTEX
  8
0
 10
0.633083
 20
1.93994
 30
0.0
 40
0.0104167
 41
0.0104167
  0
SEQEND
 8
0
  0
POLYLINE
  8
0
 62
     253
 66
     1
 10
0
 20
0
 30
0.0
 40
0.75
 41
0.75
  0
VERTEX
  8
0
 10
1.81099
 20
1.62744
 30
0.0
 40
0.0104167
 41
0.0104167
  0
VERTEX
  8
0
 10
0.633029
 20
1.62744
 30
0.0
 40
0.0104167
 41
0.0104167
  0
SEQEND
 8
0
  0
POLYLINE
  8
0
 62
     7
 66
     1
 10
0
 20
0
 30
0.0
 70
     1
 40
0
 41
0
  0
VERTEX
  8
0
 10
1.50142
 20
2.58117
 30
0.0
 40
0
 41
0
  0
VERTEX
  8
0
 10
1.81278
 20
2.58117
 30
0.0
 40
0
 41
0
  0
VERTEX
  8
0
 10
1.81278
 20
1.93994
 30
0.0
 40
0
 41
0
  0
VERTEX
  8
0
 10
1.50142
 20
1.93994
 30
0.0
 40
0
 41
0
  0
VERTEX
  8
0
 10
1.50142
 20
2.58117
 30
0.0
 40
0
 41
0
  0
SEQEND
 8
0
  0
POLYLINE
  8
0
 62
     0
 66
     1
 10
0
 20
0
 30
0.0
 70
     1
 40
0.75
 41
0.75
  0
VERTEX
  8
0
 10
1.50142
 20
2.58117
 30
0.0
 40
0.0104167
 41
0.0104167
  0
VERTEX
  8
0
 10
1.50142
 20
1.93994
 30
0.0
 40
0.0104167
 41
0.0104167
  0
VERTEX
  8
0
 10
1.81278
 20
1.93994
 30
0.0
 40
0.0104167
 41
0.0104167
  0
VERTEX
  8
0
 10
1.81278
 20
2.58117
 30
0.0
 40
0.0104167
 41
0.0104167
  0
VERTEX
  8
0
 10
1.50142
 20
2.58117
 30
0.0
 40
0.0104167
 41
0.0104167
  0
SEQEND
 8
0
  0
POLYLINE
  8
0
 62
     7
 66
     1
 10
0
 20
0
 30
0.0
 70
     1
 40
0
 41
0
  0
VERTEX
  8
0
 10
3.5224
 20
1.89453
 30
0.0
 40
0
 41
0
  0
VERTEX
  8
0
 10
5.27669
 20
1.89453
 30
0.0
 40
0
 41
0
  0
VERTEX
  8
0
 10
5.27669
 20
1.31445
 30
0.0
 40
0
 41
0
  0
VERTEX
  8
0
 10
3.5224
 20
1.31445
 30
0.0
 40
0
 41
0
  0
VERTEX
  8
0
 10
3.5224
 20
1.89453
 30
0.0
 40
0
 41
0
  0
SEQEND
 8
0
  0
POLYLINE
  8
0
 62
     0
 66
     1
 10
0
 20
0
 30
0.0
 70
     1
 40
0.75
 41
0.75
  0
VERTEX
  8
0
 10
3.5224
 20
1.89453
 30
0.0
 40
0.0104167
 41
0.0104167
  0
VERTEX
  8
0
 10
5.27669
 20
1.89453
 30
0.0
 40
0.0104167
 41
0.0104167
  0
VERTEX
  8
0
 10
5.27669
 20
1.31445
 30
0.0
 40
0.0104167
 41
0.0104167
  0
VERTEX
  8
0
 10
3.5224
 20
1.31445
 30
0.0
 40
0.0104167
 41
0.0104167
  0
VERTEX
  8
0
 10
3.5224
 20
1.89453
 30
0.0
 40
0.0104167
 41
0.0104167
  0
SEQEND
 8
0
  0
POLYLINE
  8
0
 62
     253
 66
     1
 10
0
 20
0
 30
0.0
 40
0.375
 41
0.375
  0
VERTEX
  8
0
 10
5.27669
 20
1.35308
 30
0.0
 40
0.00520833
 41
0.00520833
  0
VERTEX
  8
0
 10
3.5224
 20
1.35308
 30
0.0
 40
0.00520833
 41
0.00520833
  0
SEQEND
 8
0
  0
POLYLINE
  8
0
 62
     253
 66
     1
 10
0
 20
0
 30
0.0
 40
0.375
 41
0.375
  0
VERTEX
  8
0
 10
5.27669
 20
1.39176
 30
0.0
 40
0.00520833
 41
0.00520833
  0
VERTEX
  8
0
 10
3.5224
 20
1.39176
 30
0.0
 40
0.00520833
 41
0.00520833
  0
SEQEND
 8
0
  0
POLYLINE
  8
0
 62
     253
 66
     1
 10
0
 20
0
 30
0.0
 40
0.375
 41
0.375
  0
VERTEX
  8
0
 10
5.27669
 20
1.43044
 30
0.0
 40
0.00520833
 41
0.00520833
  0
VERTEX
  8
0
 10
3.5224
 20
1.43044
 30
0.0
 40
0.00520833
 41
0.00520833
  0
SEQEND
 8
0
  0
POLYLINE
  8
0
 62
     253
 66
     1
 10
0
 20
0
 30
0.0
 40
0.375
 41
0.375
  0
VERTEX
  8
0
 10
5.27669
 20
1.46913
 30
0.0
 40
0.00520833
 41
0.00520833
  0
VERTEX
  8
0
 10
3.5224
 20
1.46913
 30
0.0
 40
0.00520833
 41
0.00520833
  0
SEQEND
 8
0
  0
POLYLINE
  8
0
 62
     253
 66
     1
 10
0
 20
0
 30
0.0
 40
0.375
 41
0.375
  0
VERTEX
  8
0
 10
5.27669
 20
1.50782
 30
0.0
 40
0.00520833
 41
0.00520833
  0
VERTEX
  8
0
 10
3.5224
 20
1.50782
 30
0.0
 40
0.00520833
 41
0.00520833
  0
SEQEND
 8
0
  0
POLYLINE
  8
0
 62
     253
 66
     1
 10
0
 20
0
 30
0.0
 40
0.375
 41
0.375
  0
VERTEX
  8
0
 10
5.27669
 20
1.54644
 30
0.0
 40
0.00520833
 41
0.00520833
  0
VERTEX
  8
0
 10
3.5224
 20
1.54644
 30
0.0
 40
0.00520833
 41
0.00520833
  0
SEQEND
 8
0
  0
POLYLINE
  8
0
 62
     253
 66
     1
 10
0
 20
0
 30
0.0
 40
0.375
 41
0.375
  0
VERTEX
  8
0
 10
5.27669
 20
1.58512
 30
0.0
 40
0.00520833
 41
0.00520833
  0
VERTEX
  8
0
 10
3.5224
 20
1.58512
 30
0.0
 40
0.00520833
 41
0.00520833
  0
SEQEND
 8
0
  0
POLYLINE
  8
0
 62
     253
 66
     1
 10
0
 20
0
 30
0.0
 40
0.375
 41
0.375
  0
VERTEX
  8
0
 10
5.27669
 20
1.62381
 30
0.0
 40
0.00520833
 41
0.00520833
  0
VERTEX
  8
0
 10
3.5224
 20
1.62381
 30
0.0
 40
0.00520833
 41
0.00520833
  0
SEQEND
 8
0
  0
POLYLINE
  8
0
 62
     253
 66
     1
 10
0
 20
0
 30
0.0
 40
0.375
 41
0.375
  0
VERTEX
  8
0
 10
5.27669
 20
1.66249
 30
0.0
 40
0.00520833
 41
0.00520833
  0
VERTEX
  8
0
 10
3.5224
 20
1.66249
 30
0.0
 40
0.00520833
 41
0.00520833
  0
SEQEND
 8
0
  0
POLYLINE
  8
0
 62
     253
 66
     1
 10
0
 20
0
 30
0.0
 40
0.375
 41
0.375
  0
VERTEX
  8
0
 10
5.27669
 20
1.70117
 30
0.0
 40
0.00520833
 41
0.00520833
  0
VERTEX
  8
0
 10
3.5224
 20
1.70117
 30
0.0
 40
0.00520833
 41
0.00520833
  0
SEQEND
 8
0
  0
POLYLINE
  8
0
 62
     253
 66
     1
 10
0
 20
0
 30
0.0
 40
0.375
 41
0.375
  0
VERTEX
  8
0
 10
5.27669
 20
1.73981
 30
0.0
 40
0.00520833
 41
0.00520833
  0
VERTEX
  8
0
 10
3.5224
 20
1.73981
 30
0.0
 40
0.00520833
 41
0.00520833
  0
SEQEND
 8
0
  0
POLYLINE
  8
0
 62
     253
 66
     1
 10
0
 20
0
 30
0.0
 40
0.375
 41
0.375
  0
VERTEX
  8
0
 10
5.27669
 20
1.77849
 30
0.0
 40
0.00520833
 41
0.00520833
  0
VERTEX
  8
0
 10
3.5224
 20
1.77849
 30
0.0
 40
0.00520833
 41
0.00520833
  0
SEQEND
 8
0
  0
POLYLINE
  8
0
 62
     253
 66
     1
 10
0
 20
0
 30
0.0
 40
0.375
 41
0.375
  0
VERTEX
  8
0
 10
5.27669
 20
1.81717
 30
0.0
 40
0.00520833
 41
0.00520833
  0
VERTEX
  8
0
 10
3.5224
 20
1.81717
 30
0.0
 40
0.00520833
 41
0.00520833
  0
SEQEND
 8
0
  0
POLYLINE
  8
0
 62
     253
 66
     1
 10
0
 20
0
 30
0.0
 40
0.375
 41
0.375
  0
VERTEX
  8
0
 10
5.27669
 20
1.85585
 30
0.0
 40
0.00520833
 41
0.00520833
  0
VERTEX
  8
0
 10
3.5224
 20
1.85585
 30
0.0
 40
0.00520833
 41
0.00520833
  0
SEQEND
 8
0
  0
POLYLINE
  8
0
 62
     7
 66
     1
 10
0
 20
0
 30
0.0
 70
     1
 40
0
 41
0
  0
VERTEX
  8
0
 10
3.5224
 20
2.29557
 30
0.0
 40
0
 41
0
  0
VERTEX
  8
0
 10
5.27138
 20
2.29557
 30
0.0
 40
0
 41
0
  0
VERTEX
  8
0
 10
5.27138
 20
1.896
 30
0.0
 40
0
 41
0
  0
VERTEX
  8
0
 10
3.5224
 20
1.896
 30
0.0
 40
0
 41
0
  0
VERTEX
  8
0
 10
3.5224
 20
2.29557
 30
0.0
 40
0
 41
0
  0
SEQEND
 8
0
  0
POLYLINE
  8
0
 62
     0
 66
     1
 10
0
 20
0
 30
0.0
 70
     1
 40
0.75
 41
0.75
  0
VERTEX
  8
0
 10
3.5224
 20
2.29557
 30
0.0
 40
0.0104167
 41
0.0104167
  0
VERTEX
  8
0
 10
5.27138
 20
2.29557
 30
0.0
 40
0.0104167
 41
0.0104167
  0
VERTEX
  8
0
 10
5.27138
 20
1.896
 30
0.0
 40
0.0104167
 41
0.0104167
  0
VERTEX
  8
0
 10
3.5224
 20
1.896
 30
0.0
 40
0.0104167
 41
0.0104167
  0
VERTEX
  8
0
 10
3.5224
 20
2.29557
 30
0.0
 40
0.0104167
 41
0.0104167
  0
SEQEND
 8
0
  0
POLYLINE
  8
0
 62
     253
 66
     1
 10
0
 20
0
 30
0.0
 40
0.375
 41
0.375
  0
VERTEX
  8
0
 10
5.27138
 20
1.93593
 30
0.0
 40
0.00520833
 41
0.00520833
  0
VERTEX
  8
0
 10
3.5224
 20
1.93593
 30
0.0
 40
0.00520833
 41
0.00520833
  0
SEQEND
 8
0
  0
POLYLINE
  8
0
 62
     253
 66
     1
 10
0
 20
0
 30
0.0
 40
0.375
 41
0.375
  0
VERTEX
  8
0
 10
5.27138
 20
1.97586
 30
0.0
 40
0.00520833
 41
0.00520833
  0
VERTEX
  8
0
 10
3.5224
 20
1.97586
 30
0.0
 40
0.00520833
 41
0.00520833
  0
SEQEND
 8
0
  0
POLYLINE
  8
0
 62
     253
 66
     1
 10
0
 20
0
 30
0.0
 40
0.375
 41
0.375
  0
VERTEX
  8
0
 10
5.27138
 20
2.01585
 30
0.0
 40
0.00520833
 41
0.00520833
  0
VERTEX
  8
0
 10
3.5224
 20
2.01585
 30
0.0
 40
0.00520833
 41
0.00520833
  0
SEQEND
 8
0
  0
POLYLINE
  8
0
 62
     253
 66
     1
 10
0
 20
0
 30
0.0
 40
0.375
 41
0.375
  0
VERTEX
  8
0
 10
5.27138
 20
2.05578
 30
0.0
 40
0.00520833
 41
0.00520833
  0
VERTEX
  8
0
 10
3.5224
 20
2.05578
 30
0.0
 40
0.00520833
 41
0.00520833
  0
SEQEND
 8
0
  0
POLYLINE
  8
0
 62
     253
 66
     1
 10
0
 20
0
 30
0.0
 40
0.375
 41
0.375
  0
VERTEX
  8
0
 10
5.27138
 20
2.09576
 30
0.0
 40
0.00520833
 41
0.00520833
  0
VERTEX
  8
0
 10
3.5224
 20
2.09576
 30
0.0
 40
0.00520833
 41
0.00520833
  0
SEQEND
 8
0
  0
POLYLINE
  8
0
 62
     253
 66
     1
 10
0
 20
0
 30
0.0
 40
0.375
 41
0.375
  0
VERTEX
  8
0
 10
5.27138
 20
2.13569
 30
0.0
 40
0.00520833
 41
0.00520833
  0
VERTEX
  8
0
 10
3.5224
 20
2.13569
 30
0.0
 40
0.00520833
 41
0.00520833
  0
SEQEND
 8
0
  0
POLYLINE
  8
0
 62
     253
 66
     1
 10
0
 20
0
 30
0.0
 40
0.375
 41
0.375
  0
VERTEX
  8
0
 10
5.27138
 20
2.17567
 30
0.0
 40
0.00520833
 41
0.00520833
  0
VERTEX
  8
0
 10
3.5224
 20
2.17567
 30
0.0
 40
0.00520833
 41
0.00520833
  0
SEQEND
 8
0
  0
POLYLINE
  8
0
 62
     253
 66
     1
 10
0
 20
0
 30
0.0
 40
0.375
 41
0.375
  0
VERTEX
  8
0
 10
5.27138
 20
2.2156
 30
0.0
 40
0.00520833
 41
0.00520833
  0
VERTEX
  8
0
 10
3.5224
 20
2.2156
 30
0.0
 40
0.00520833
 41
0.00520833
  0
SEQEND
 8
0
  0
POLYLINE
  8
0
 62
     253
 66
     1
 10
0
 20
0
 30
0.0
 40
0.375
 41
0.375
  0
VERTEX
  8
0
 10
5.27138
 20
2.25558
 30
0.0
 40
0.00520833
 41
0.00520833
  0
VERTEX
  8
0
 10
3.5224
 20
2.25558
 30
0.0
 40
0.00520833
 41
0.00520833
  0
SEQEND
 8
0
  0
POLYLINE
  8
0
 62
     7
 66
     1
 10
0
 20
0
 30
0.0
 70
     1
 40
0
 41
0
  0
VERTEX
  8
0
 10
3.66743
 20
2.67085
 30
0.0
 40
0
 41
0
  0
VERTEX
  8
0
 10
4.33849
 20
2.67085
 30
0.0
 40
0
 41
0
  0
VERTEX
  8
0
 10
4.33849
 20
2.29699
 30
0.0
 40
0
 41
0
  0
VERTEX
  8
0
 10
3.66743
 20
2.29699
 30
0.0
 40
0
 41
0
  0
VERTEX
  8
0
 10
3.66743
 20
2.67085
 30
0.0
 40
0
 41
0
  0
SEQEND
 8
0
  0
POLYLINE
  8
0
 62
     0
 66
     1
 10
0
 20
0
 30
0.0
 70
     1
 40
0.75
 41
0.75
  0
VERTEX
  8
0
 10
3.66743
 20
2.67085
 30
0.0
 40
0.0104167
 41
0.0104167
  0
VERTEX
  8
0
 10
4.33849
 20
2.67085
 30
0.0
 40
0.0104167
 41
0.0104167
  0
VERTEX
  8
0
 10
4.33849
 20
2.29699
 30
0.0
 40
0.0104167
 41
0.0104167
  0
VERTEX
  8
0
 10
3.66743
 20
2.29699
 30
0.0
 40
0.0104167
 41
0.0104167
  0
VERTEX
  8
0
 10
3.66743
 20
2.67085
 30
0.0
 40
0.0104167
 41
0.0104167
  0
SEQEND
 8
0
  0
POLYLINE
  8
0
 62
     253
 66
     1
 10
0
 20
0
 30
0.0
 40
0.375
 41
0.375
  0
VERTEX
  8
0
 10
4.33849
 20
2.33436
 30
0.0
 40
0.00520833
 41
0.00520833
  0
VERTEX
  8
0
 10
3.66737
 20
2.33436
 30
0.0
 40
0.00520833
 41
0.00520833
  0
SEQEND
 8
0
  0
POLYLINE
  8
0
 62
     253
 66
     1
 10
0
 20
0
 30
0.0
 40
0.375
 41
0.375
  0
VERTEX
  8
0
 10
4.33849
 20
2.37181
 30
0.0
 40
0.00520833
 41
0.00520833
  0
VERTEX
  8
0
 10
3.66737
 20
2.37181
 30
0.0
 40
0.00520833
 41
0.00520833
  0
SEQEND
 8
0
  0
POLYLINE
  8
0
 62
     253
 66
     1
 10
0
 20
0
 30
0.0
 40
0.375
 41
0.375
  0
VERTEX
  8
0
 10
4.33849
 20
2.40918
 30
0.0
 40
0.00520833
 41
0.00520833
  0
VERTEX
  8
0
 10
3.66737
 20
2.40918
 30
0.0
 40
0.00520833
 41
0.00520833
  0
SEQEND
 8
0
  0
POLYLINE
  8
0
 62
     253
 66
     1
 10
0
 20
0
 30
0.0
 40
0.375
 41
0.375
  0
VERTEX
  8
0
 10
4.33849
 20
2.44656
 30
0.0
 40
0.00520833
 41
0.00520833
  0
VERTEX
  8
0
 10
3.66737
 20
2.44656
 30
0.0
 40
0.00520833
 41
0.00520833
  0
SEQEND
 8
0
  0
POLYLINE
  8
0
 62
     253
 66
     1
 10
0
 20
0
 30
0.0
 40
0.375
 41
0.375
  0
VERTEX
  8
0
 10
4.33849
 20
2.48394
 30
0.0
 40
0.00520833
 41
0.00520833
  0
VERTEX
  8
0
 10
3.66737
 20
2.48394
 30
0.0
 40
0.00520833
 41
0.00520833
  0
SEQEND
 8
0
  0
POLYLINE
  8
0
 62
     253
 66
     1
 10
0
 20
0
 30
0.0
 40
0.375
 41
0.375
  0
VERTEX
  8
0
 10
4.33849
 20
2.52132
 30
0.0
 40
0.00520833
 41
0.00520833
  0
VERTEX
  8
0
 10
3.66737
 20
2.52132
 30
0.0
 40
0.00520833
 41
0.00520833
  0
SEQEND
 8
0
  0
POLYLINE
  8
0
 62
     253
 66
     1
 10
0
 20
0
 30
0.0
 40
0.375
 41
0.375
  0
VERTEX
  8
0
 10
4.33849
 20
2.55871
 30
0.0
 40
0.00520833
 41
0.00520833
  0
VERTEX
  8
0
 10
3.66737
 20
2.55871
 30
0.0
 40
0.00520833
 41
0.00520833
  0
SEQEND
 8
0
  0
POLYLINE
  8
0
 62
     253
 66
     1
 10
0
 20
0
 30
0.0
 40
0.375
 41
0.375
  0
VERTEX
  8
0
 10
4.33849
 20
2.59614
 30
0.0
 40
0.00520833
 41
0.00520833
  0
VERTEX
  8
0
 10
3.66737
 20
2.59614
 30
0.0
 40
0.00520833
 41
0.00520833
  0
SEQEND
 8
0
  0
POLYLINE
  8
0
 62
     253
 66
     1
 10
0
 20
0
 30
0.0
 40
0.375
 41
0.375
  0
VERTEX
  8
0
 10
4.33849
 20
2.63351
 30
0.0
 40
0.00520833
 41
0.00520833
  0
VERTEX
  8
0
 10
3.66737
 20
2.63351
 30
0.0
 40
0.00520833
 41
0.00520833
  0
SEQEND
 8
0
  0
POLYLINE
  8
0
 62
     7
 66
     1
 10
0
 20
0
 30
0.0
 70
     1
 40
0
 41
0
  0
VERTEX
  8
0
 10
4.53489
 20
2.8284
 30
0.0
 40
0
 41
0
  0
VERTEX
  8
0
 10
5.044
 20
2.8284
 30
0.0
 40
0
 41
0
  0
VERTEX
  8
0
 10
5.044
 20
2.51085
 30
0.0
 40
0
 41
0
  0
VERTEX
  8
0
 10
4.53489
 20
2.51085
 30
0.0
 40
0
 41
0
  0
VERTEX
  8
0
 10
4.53489
 20
2.8284
 30
0.0
 40
0
 41
0
  0
SEQEND
 8
0
  0
POLYLINE
  8
0
 62
     0
 66
     1
 10
0
 20
0
 30
0.0
 70
     1
 40
0.61095
 41
0.61095
  0
VERTEX
  8
0
 10
4.53489
 20
2.8284
 30
0.0
 40
0.00848542
 41
0.00848542
  0
VERTEX
  8
0
 10
5.044
 20
2.8284
 30
0.0
 40
0.00848542
 41
0.00848542
  0
VERTEX
  8
0
 10
5.044
 20
2.51085
 30
0.0
 40
0.00848542
 41
0.00848542
  0
VERTEX
  8
0
 10
4.53489
 20
2.51085
 30
0.0
 40
0.00848542
 41
0.00848542
  0
VERTEX
  8
0
 10
4.53489
 20
2.8284
 30
0.0
 40
0.00848542
 41
0.00848542
  0
SEQEND
 8
0
  0
POLYLINE
  8
0
 62
     0
 66
     1
 10
0
 20
0
 30
0.0
 40
0.61095
 41
0.61095
  0
VERTEX
  8
0
 10
4.53489
 20
2.51085
 30
0.0
 40
0.00848542
 41
0.00848542
  0
VERTEX
  8
0
 10
4.87175
 20
2.66965
 30
0.0
 40
0.00848542
 41
0.00848542
  0
VERTEX
  8
0
 10
4.71647
 20
2.66965
 30
0.0
 40
0.00848542
 41
0.00848542
  0
VERTEX
  8
0
 10
5.044
 20
2.8284
 30
0.0
 40
0.00848542
 41
0.00848542
  0
SEQEND
 8
0
  0
POLYLINE
  8
0
 62
     7
 66
     1
 10
0
 20
0
 30
0.0
 70
     1
 40
0
 41
0
  0
VERTEX
  8
0
 10
4.63157
 20
3.66878
 30
0.0
 40
0
 41
0
  0
VERTEX
  8
0
 10
5.27311
 20
3.66878
 30
0.0
 40
0
 41
0
  0
VERTEX
  8
0
 10
5.27311
 20
3.04378
 30
0.0
 40
0
 41
0
  0
VERTEX
  8
0
 10
4.63157
 20
3.04378
 30
0.0
 40
0
 41
0
  0
VERTEX
  8
0
 10
4.63157
 20
3.66878
 30
0.0
 40
0
 41
0
  0
SEQEND
 8
0
  0
POLYLINE
  8
0
 62
     0
 66
     1
 10
0
 20
0
 30
0.0
 70
     1
 40
0.75
 41
0.75
  0
VERTEX
  8
0
 10
4.63157
 20
3.66878
 30
0.0
 40
0.0104167
 41
0.0104167
  0
VERTEX
  8
0
 10
4.63157
 20
3.04378
 30
0.0
 40
0.0104167
 41
0.0104167
  0
VERTEX
  8
0
 10
5.27311
 20
3.04378
 30
0.0
 40
0.0104167
 41
0.0104167
  0
VERTEX
  8
0
 10
5.27311
 20
3.66878
 30
0.0
 40
0.0104167
 41
0.0104167
  0
VERTEX
  8
0
 10
4.63157
 20
3.66878
 30
0.0
 40
0.0104167
 41
0.0104167
  0
SEQEND
 8
0
  0
POLYLINE
  8
0
 62
     0
 66
     1
 10
0
 20
0
 30
0.0
 40
0.75
 41
0.75
  0
VERTEX
  8
0
 10
5.27311
 20
3.66878
 30
0.0
 40
0.0104167
 41
0.0104167
  0
VERTEX
  8
0
 10
4.84754
 20
3.35519
 30
0.0
 40
0.0104167
 41
0.0104167
  0
VERTEX
  8
0
 10
5.06565
 20
3.35519
 30
0.0
 40
0.0104167
 41
0.0104167
  0
VERTEX
  8
0
 10
4.63157
 20
3.04482
 30
0.0
 40
0.0104167
 41
0.0104167
  0
SEQEND
 8
0
  0
POLYLINE
  8
0
 62
     7
 66
     1
 10
0
 20
0
 30
0.0
 70
     1
 40
0
 41
0
  0
VERTEX
  8
0
 10
4.80593
 20
4.34597
 30
0.0
 40
0
 41
0
  0
VERTEX
  8
0
 10
5.26736
 20
4.34597
 30
0.0
 40
0
 41
0
  0
VERTEX
  8
0
 10
5.26736
 20
3.70443
 30
0.0
 40
0
 41
0
  0
VERTEX
  8
0
 10
4.80593
 20
3.70443
 30
0.0
 40
0
 41
0
  0
VERTEX
  8
0
 10
4.80593
 20
4.34597
 30
0.0
 40
0
 41
0
  0
SEQEND
 8
0
  0
POLYLINE
  8
0
 62
     0
 66
     1
 10
0
 20
0
 30
0.0
 70
     1
 40
0.75
 41
0.75
  0
VERTEX
  8
0
 10
4.80593
 20
4.34597
 30
0.0
 40
0.0104167
 41
0.0104167
  0
VERTEX
  8
0
 10
4.80593
 20
3.70443
 30
0.0
 40
0.0104167
 41
0.0104167
  0
VERTEX
  8
0
 10
5.26736
 20
3.70443
 30
0.0
 40
0.0104167
 41
0.0104167
  0
VERTEX
  8
0
 10
5.26736
 20
4.34597
 30
0.0
 40
0.0104167
 41
0.0104167
  0
VERTEX
  8
0
 10
4.80593
 20
4.34597
 30
0.0
 40
0.0104167
 41
0.0104167
  0
SEQEND
 8
0
  0
POLYLINE
  8
0
 62
     7
 66
     1
 10
0
 20
0
 30
0.0
 70
     1
 40
0
 41
0
  0
VERTEX
  8
0
 10
4.84663
 20
4.29254
 30
0.0
 40
0
 41
0
  0
VERTEX
  8
0
 10
5.16635
 20
4.29254
 30
0.0
 40
0
 41
0
  0
VERTEX
  8
0
 10
5.16635
 20
3.75786
 30
0.0
 40
0
 41
0
  0
VERTEX
  8
0
 10
4.84663
 20
3.75786
 30
0.0
 40
0
 41
0
  0
VERTEX
  8
0
 10
4.84663
 20
4.29254
 30
0.0
 40
0
 41
0
  0
SEQEND
 8
0
  0
POLYLINE
  8
0
 62
     0
 66
     1
 10
0
 20
0
 30
0.0
 70
     1
 40
0.75
 41
0.75
  0
VERTEX
  8
0
 10
4.84663
 20
4.29254
 30
0.0
 40
0.0104167
 41
0.0104167
  0
VERTEX
  8
0
 10
4.84663
 20
3.75786
 30
0.0
 40
0.0104167
 41
0.0104167
  0
VERTEX
  8
0
 10
5.16635
 20
3.75786
 30
0.0
 40
0.0104167
 41
0.0104167
  0
VERTEX
  8
0
 10
5.16635
 20
4.29254
 30
0.0
 40
0.0104167
 41
0.0104167
  0
VERTEX
  8
0
 10
4.84663
 20
4.29254
 30
0.0
 40
0.0104167
 41
0.0104167
  0
SEQEND
 8
0
  0
POLYLINE
  8
0
 62
     7
 66
     1
 10
0
 20
0
 30
0.0
 70
     1
 40
0
 41
0
  0
VERTEX
  8
0
 10
5.01975
 20
3.98872
 30
0.0
 40
0
 41
0
  0
VERTEX
  8
0
 10
5.01329
 20
3.98872
 30
0.0
 40
0
 41
0
  0
VERTEX
  8
0
 10
4.99393
 20
3.9994
 30
0.0
 40
0
 41
0
  0
VERTEX
  8
0
 10
4.98329
 20
4.01878
 30
0.0
 40
0
 41
0
  0
VERTEX
  8
0
 10
4.98329
 20
4.02518
 30
0.0
 40
0
 41
0
  0
VERTEX
  8
0
 10
4.98329
 20
4.03163
 30
0.0
 40
0
 41
0
  0
VERTEX
  8
0
 10
4.99393
 20
4.051
 30
0.0
 40
0
 41
0
  0
VERTEX
  8
0
 10
5.01329
 20
4.06164
 30
0.0
 40
0
 41
0
  0
VERTEX
  8
0
 10
5.01975
 20
4.06164
 30
0.0
 40
0
 41
0
  0
VERTEX
  8
0
 10
5.02615
 20
4.06164
 30
0.0
 40
0
 41
0
  0
VERTEX
  8
0
 10
5.04551
 20
4.051
 30
0.0
 40
0
 41
0
  0
VERTEX
  8
0
 10
5.05621
 20
4.03163
 30
0.0
 40
0
 41
0
  0
VERTEX
  8
0
 10
5.05621
 20
4.02518
 30
0.0
 40
0
 41
0
  0
VERTEX
  8
0
 10
5.05621
 20
4.01878
 30
0.0
 40
0
 41
0
  0
VERTEX
  8
0
 10
5.04551
 20
3.9994
 30
0.0
 40
0
 41
0
  0
VERTEX
  8
0
 10
5.02615
 20
3.98872
 30
0.0
 40
0
 41
0
  0
VERTEX
  8
0
 10
5.01975
 20
3.98872
 30
0.0
 40
0
 41
0
  0
SEQEND
 8
0
  0
POLYLINE
  8
0
 62
     0
 66
     1
 10
0
 20
0
 30
0.0
 70
     1
 40
0.6
 41
0.6
  0
VERTEX
  8
0
 10
5.01975
 20
3.98872
 30
0.0
 40
0.00833333
 41
0.00833333
  0
VERTEX
  8
0
 10
5.01329
 20
3.98872
 30
0.0
 40
0.00833333
 41
0.00833333
  0
VERTEX
  8
0
 10
4.99393
 20
3.9994
 30
0.0
 40
0.00833333
 41
0.00833333
  0
VERTEX
  8
0
 10
4.98329
 20
4.01878
 30
0.0
 40
0.00833333
 41
0.00833333
  0
VERTEX
  8
0
 10
4.98329
 20
4.02518
 30
0.0
 40
0.00833333
 41
0.00833333
  0
VERTEX
  8
0
 10
4.98329
 20
4.03163
 30
0.0
 40
0.00833333
 41
0.00833333
  0
VERTEX
  8
0
 10
4.99393
 20
4.051
 30
0.0
 40
0.00833333
 41
0.00833333
  0
VERTEX
  8
0
 10
5.01329
 20
4.06164
 30
0.0
 40
0.00833333
 41
0.00833333
  0
VERTEX
  8
0
 10
5.01975
 20
4.06164
 30
0.0
 40
0.00833333
 41
0.00833333
  0
VERTEX
  8
0
 10
5.02615
 20
4.06164
 30
0.0
 40
0.00833333
 41
0.00833333
  0
VERTEX
  8
0
 10
5.04551
 20
4.051
 30
0.0
 40
0.00833333
 41
0.00833333
  0
VERTEX
  8
0
 10
5.05621
 20
4.03163
 30
0.0
 40
0.00833333
 41
0.00833333
  0
VERTEX
  8
0
 10
5.05621
 20
4.02518
 30
0.0
 40
0.00833333
 41
0.00833333
  0
VERTEX
  8
0
 10
5.05621
 20
4.01878
 30
0.0
 40
0.00833333
 41
0.00833333
  0
VERTEX
  8
0
 10
5.04551
 20
3.9994
 30
0.0
 40
0.00833333
 41
0.00833333
  0
VERTEX
  8
0
 10
5.02615
 20
3.98872
 30
0.0
 40
0.00833333
 41
0.00833333
  0
VERTEX
  8
0
 10
5.01975
 20
3.98872
 30
0.0
 40
0.00833333
 41
0.00833333
  0
SEQEND
 8
0
  0
POLYLINE
  8
0
 62
     7
 66
     1
 10
0
 20
0
 30
0.0
 70
     1
 40
0
 41
0
  0
VERTEX
  8
0
 10
5.01975
 20
4.00435
 30
0.0
 40
0
 41
0
  0
VERTEX
  8
0
 10
5.01606
 20
4.00435
 30
0.0
 40
0
 41
0
  0
VERTEX
  8
0
 10
5.00499
 20
4.01047
 30
0.0
 40
0
 41
0
  0
VERTEX
  8
0
 10
4.99892
 20
4.02154
 30
0.0
 40
0
 41
0
  0
VERTEX
  8
0
 10
4.99892
 20
4.02518
 30
0.0
 40
0
 41
0
  0
VERTEX
  8
0
 10
4.99892
 20
4.02886
 30
0.0
 40
0
 41
0
  0
VERTEX
  8
0
 10
5.00499
 20
4.03993
 30
0.0
 40
0
 41
0
  0
VERTEX
  8
0
 10
5.01606
 20
4.04601
 30
0.0
 40
0
 41
0
  0
VERTEX
  8
0
 10
5.01975
 20
4.04601
 30
0.0
 40
0
 41
0
  0
VERTEX
  8
0
 10
5.02339
 20
4.04601
 30
0.0
 40
0
 41
0
  0
VERTEX
  8
0
 10
5.03444
 20
4.03993
 30
0.0
 40
0
 41
0
  0
VERTEX
  8
0
 10
5.04058
 20
4.02886
 30
0.0
 40
0
 41
0
  0
VERTEX
  8
0
 10
5.04058
 20
4.02518
 30
0.0
 40
0
 41
0
  0
VERTEX
  8
0
 10
5.04058
 20
4.02154
 30
0.0
 40
0
 41
0
  0
VERTEX
  8
0
 10
5.03444
 20
4.01047
 30
0.0
 40
0
 41
0
  0
VERTEX
  8
0
 10
5.02339
 20
4.00435
 30
0.0
 40
0
 41
0
  0
VERTEX
  8
0
 10
5.01975
 20
4.00435
 30
0.0
 40
0
 41
0
  0
SEQEND
 8
0
  0
POLYLINE
  8
0
 62
     0
 66
     1
 10
0
 20
0
 30
0.0
 70
     1
 40
0.6
 41
0.6
  0
VERTEX
  8
0
 10
5.01975
 20
4.00435
 30
0.0
 40
0.00833333
 41
0.00833333
  0
VERTEX
  8
0
 10
5.01606
 20
4.00435
 30
0.0
 40
0.00833333
 41
0.00833333
  0
VERTEX
  8
0
 10
5.00499
 20
4.01047
 30
0.0
 40
0.00833333
 41
0.00833333
  0
VERTEX
  8
0
 10
4.99892
 20
4.02154
 30
0.0
 40
0.00833333
 41
0.00833333
  0
VERTEX
  8
0
 10
4.99892
 20
4.02518
 30
0.0
 40
0.00833333
 41
0.00833333
  0
VERTEX
  8
0
 10
4.99892
 20
4.02886
 30
0.0
 40
0.00833333
 41
0.00833333
  0
VERTEX
  8
0
 10
5.00499
 20
4.03993
 30
0.0
 40
0.00833333
 41
0.00833333
  0
VERTEX
  8
0
 10
5.01606
 20
4.04601
 30
0.0
 40
0.00833333
 41
0.00833333
  0
VERTEX
  8
0
 10
5.01975
 20
4.04601
 30
0.0
 40
0.00833333
 41
0.00833333
  0
VERTEX
  8
0
 10
5.02339
 20
4.04601
 30
0.0
 40
0.00833333
 41
0.00833333
  0
VERTEX
  8
0
 10
5.03444
 20
4.03993
 30
0.0
 40
0.00833333
 41
0.00833333
  0
VERTEX
  8
0
 10
5.04058
 20
4.02886
 30
0.0
 40
0.00833333
 41
0.00833333
  0
VERTEX
  8
0
 10
5.04058
 20
4.02518
 30
0.0
 40
0.00833333
 41
0.00833333
  0
VERTEX
  8
0
 10
5.04058
 20
4.02154
 30
0.0
 40
0.00833333
 41
0.00833333
  0
VERTEX
  8
0
 10
5.03444
 20
4.01047
 30
0.0
 40
0.00833333
 41
0.00833333
  0
VERTEX
  8
0
 10
5.02339
 20
4.00435
 30
0.0
 40
0.00833333
 41
0.00833333
  0
VERTEX
  8
0
 10
5.01975
 20
4.00435
 30
0.0
 40
0.00833333
 41
0.00833333
  0
SEQEND
 8
0
  0
POLYLINE
  8
0
 62
     7
 66
     1
 10
0
 20
0
 30
0.0
 70
     1
 40
0
 41
0
  0
VERTEX
  8
0
 10
5.08311
 20
4.05724
 30
0.0
 40
0
 41
0
  0
VERTEX
  8
0
 10
5.22894
 20
4.05724
 30
0.0
 40
0
 41
0
  0
VERTEX
  8
0
 10
5.22894
 20
3.99474
 30
0.0
 40
0
 41
0
  0
VERTEX
  8
0
 10
5.08311
 20
3.99474
 30
0.0
 40
0
 41
0
  0
VERTEX
  8
0
 10
5.08311
 20
4.05724
 30
0.0
 40
0
 41
0
  0
SEQEND
 8
0
  0
POLYLINE
  8
0
 62
     0
 66
     1
 10
0
 20
0
 30
0.0
 70
     1
 40
0.75
 41
0.75
  0
VERTEX
  8
0
 10
5.08311
 20
4.05724
 30
0.0
 40
0.0104167
 41
0.0104167
  0
VERTEX
  8
0
 10
5.08311
 20
3.99474
 30
0.0
 40
0.0104167
 41
0.0104167
  0
VERTEX
  8
0
 10
5.22894
 20
3.99474
 30
0.0
 40
0.0104167
 41
0.0104167
  0
VERTEX
  8
0
 10
5.22894
 20
4.05724
 30
0.0
 40
0.0104167
 41
0.0104167
  0
VERTEX
  8
0
 10
5.08311
 20
4.05724
 30
0.0
 40
0.0104167
 41
0.0104167
  0
SEQEND
 8
0
  0
POLYLINE
  8
0
 62
     7
 66
     1
 10
0
 20
0
 30
0.0
 70
     1
 40
0
 41
0
  0
VERTEX
  8
0
 10
4.61871
 20
5.54383
 30
0.0
 40
0
 41
0
  0
VERTEX
  8
0
 10
4.7354
 20
5.54383
 30
0.0
 40
0
 41
0
  0
VERTEX
  8
0
 10
4.7354
 20
5.48031
 30
0.0
 40
0
 41
0
  0
VERTEX
  8
0
 10
4.61871
 20
5.48031
 30
0.0
 40
0
 41
0
  0
VERTEX
  8
0
 10
4.61871
 20
5.54383
 30
0.0
 40
0
 41
0
  0
SEQEND
 8
0
  0
POLYLINE
  8
0
 62
     0
 66
     1
 10
0
 20
0
 30
0.0
 70
     1
 40
0.75
 41
0.75
  0
VERTEX
  8
0
 10
4.61871
 20
5.54383
 30
0.0
 40
0.0104167
 41
0.0104167
  0
VERTEX
  8
0
 10
4.7354
 20
5.54383
 30
0.0
 40
0.0104167
 41
0.0104167
  0
VERTEX
  8
0
 10
4.7354
 20
5.48031
 30
0.0
 40
0.0104167
 41
0.0104167
  0
VERTEX
  8
0
 10
4.61871
 20
5.48031
 30
0.0
 40
0.0104167
 41
0.0104167
  0
VERTEX
  8
0
 10
4.61871
 20
5.54383
 30
0.0
 40
0.0104167
 41
0.0104167
  0
SEQEND
 8
0
  0
POLYLINE
  8
0
 62
     7
 66
     1
 10
0
 20
0
 30
0.0
 70
     1
 40
0
 41
0
  0
VERTEX
  8
0
 10
4.76351
 20
5.54383
 30
0.0
 40
0
 41
0
  0
VERTEX
  8
0
 10
4.88021
 20
5.54383
 30
0.0
 40
0
 41
0
  0
VERTEX
  8
0
 10
4.88021
 20
5.48031
 30
0.0
 40
0
 41
0
  0
VERTEX
  8
0
 10
4.76351
 20
5.48031
 30
0.0
 40
0
 41
0
  0
VERTEX
  8
0
 10
4.76351
 20
5.54383
 30
0.0
 40
0
 41
0
  0
SEQEND
 8
0
  0
POLYLINE
  8
0
 62
     0
 66
     1
 10
0
 20
0
 30
0.0
 70
     1
 40
0.75
 41
0.75
  0
VERTEX
  8
0
 10
4.76351
 20
5.54383
 30
0.0
 40
0.0104167
 41
0.0104167
  0
VERTEX
  8
0
 10
4.88021
 20
5.54383
 30
0.0
 40
0.0104167
 41
0.0104167
  0
VERTEX
  8
0
 10
4.88021
 20
5.48031
 30
0.0
 40
0.0104167
 41
0.0104167
  0
VERTEX
  8
0
 10
4.76351
 20
5.48031
 30
0.0
 40
0.0104167
 41
0.0104167
  0
VERTEX
  8
0
 10
4.76351
 20
5.54383
 30
0.0
 40
0.0104167
 41
0.0104167
  0
SEQEND
 8
0
  0
POLYLINE
  8
0
 62
     7
 66
     1
 10
0
 20
0
 30
0.0
 70
     1
 40
0
 41
0
  0
VERTEX
  8
0
 10
4.87912
 20
5.54383
 30
0.0
 40
0
 41
0
  0
VERTEX
  8
0
 10
4.91456
 20
5.54383
 30
0.0
 40
0
 41
0
  0
VERTEX
  8
0
 10
4.91456
 20
5.48031
 30
0.0
 40
0
 41
0
  0
VERTEX
  8
0
 10
4.87912
 20
5.48031
 30
0.0
 40
0
 41
0
  0
VERTEX
  8
0
 10
4.87912
 20
5.54383
 30
0.0
 40
0
 41
0
  0
SEQEND
 8
0
  0
POLYLINE
  8
0
 62
     0
 66
     1
 10
0
 20
0
 30
0.0
 70
     1
 40
0.75
 41
0.75
  0
VERTEX
  8
0
 10
4.87912
 20
5.54383
 30
0.0
 40
0.0104167
 41
0.0104167
  0
VERTEX
  8
0
 10
4.91456
 20
5.54383
 30
0.0
 40
0.0104167
 41
0.0104167
  0
VERTEX
  8
0
 10
4.91456
 20
5.48031
 30
0.0
 40
0.0104167
 41
0.0104167
  0
VERTEX
  8
0
 10
4.87912
 20
5.48031
 30
0.0
 40
0.0104167
 41
0.0104167
  0
VERTEX
  8
0
 10
4.87912
 20
5.54383
 30
0.0
 40
0.0104167
 41
0.0104167
  0
SEQEND
 8
0
  0
POLYLINE
  8
0
 62
     7
 66
     1
 10
0
 20
0
 30
0.0
 70
     1
 40
0
 41
0
  0
VERTEX
  8
0
 10
4.58539
 20
5.54383
 30
0.0
 40
0
 41
0
  0
VERTEX
  8
0
 10
4.61871
 20
5.54383
 30
0.0
 40
0
 41
0
  0
VERTEX
  8
0
 10
4.61871
 20
5.48031
 30
0.0
 40
0
 41
0
  0
VERTEX
  8
0
 10
4.58539
 20
5.48031
 30
0.0
 40
0
 41
0
  0
VERTEX
  8
0
 10
4.58539
 20
5.54383
 30
0.0
 40
0
 41
0
  0
SEQEND
 8
0
  0
POLYLINE
  8
0
 62
     0
 66
     1
 10
0
 20
0
 30
0.0
 70
     1
 40
0.75
 41
0.75
  0
VERTEX
  8
0
 10
4.58539
 20
5.54383
 30
0.0
 40
0.0104167
 41
0.0104167
  0
VERTEX
  8
0
 10
4.61871
 20
5.54383
 30
0.0
 40
0.0104167
 41
0.0104167
  0
VERTEX
  8
0
 10
4.61871
 20
5.48031
 30
0.0
 40
0.0104167
 41
0.0104167
  0
VERTEX
  8
0
 10
4.58539
 20
5.48031
 30
0.0
 40
0.0104167
 41
0.0104167
  0
VERTEX
  8
0
 10
4.58539
 20
5.54383
 30
0.0
 40
0.0104167
 41
0.0104167
  0
SEQEND
 8
0
  0
POLYLINE
  8
0
 62
     7
 66
     1
 10
0
 20
0
 30
0.0
 70
     1
 40
0
 41
0
  0
VERTEX
  8
0
 10
4.7354
 20
5.4605
 30
0.0
 40
0
 41
0
  0
VERTEX
  8
0
 10
4.7354
 20
5.45421
 30
0.0
 40
0
 41
0
  0
VERTEX
  8
0
 10
4.73172
 20
5.43528
 30
0.0
 40
0
 41
0
  0
VERTEX
  8
0
 10
4.72185
 20
5.41287
 30
0.0
 40
0
 41
0
  0
VERTEX
  8
0
 10
4.71875
 20
5.40842
 30
0.0
 40
0
 41
0
  0
VERTEX
  8
0
 10
4.71767
 20
5.4069
 30
0.0
 40
0
 41
0
  0
VERTEX
  8
0
 10
4.70751
 20
5.39231
 30
0.0
 40
0
 41
0
  0
VERTEX
  8
0
 10
4.70725
 20
5.39074
 30
0.0
 40
0
 41
0
  0
VERTEX
  8
0
 10
4.70671
 20
5.38792
 30
0.0
 40
0
 41
0
  0
VERTEX
  8
0
 10
4.71089
 20
5.37136
 30
0.0
 40
0
 41
0
  0
VERTEX
  8
0
 10
4.72754
 20
5.35846
 30
0.0
 40
0
 41
0
  0
VERTEX
  8
0
 10
4.73329
 20
5.35742
 30
0.0
 40
0
 41
0
  0
VERTEX
  8
0
 10
4.7346
 20
5.35715
 30
0.0
 40
0
 41
0
  0
VERTEX
  8
0
 10
4.74615
 20
5.35633
 30
0.0
 40
0
 41
0
  0
VERTEX
  8
0
 10
4.75
 20
5.35633
 30
0.0
 40
0
 41
0
  0
VERTEX
  8
0
 10
4.74892
 20
5.35633
 30
0.0
 40
0
 41
0
  0
VERTEX
  8
0
 10
4.7531
 20
5.35633
 30
0.0
 40
0
 41
0
  0
VERTEX
  8
0
 10
4.76432
 20
5.35715
 30
0.0
 40
0
 41
0
  0
VERTEX
  8
0
 10
4.76563
 20
5.35742
 30
0.0
 40
0
 41
0
  0
VERTEX
  8
0
 10
4.77132
 20
5.35846
 30
0.0
 40
0
 41
0
  0
VERTEX
  8
0
 10
4.78797
 20
5.37136
 30
0.0
 40
0
 41
0
  0
VERTEX
  8
0
 10
4.79215
 20
5.38792
 30
0.0
 40
0
 41
0
  0
VERTEX
  8
0
 10
4.79167
 20
5.39074
 30
0.0
 40
0
 41
0
  0
VERTEX
  8
0
 10
4.79139
 20
5.39231
 30
0.0
 40
0
 41
0
  0
VERTEX
  8
0
 10
4.78119
 20
5.4069
 30
0.0
 40
0
 41
0
  0
VERTEX
  8
0
 10
4.78017
 20
5.40842
 30
0.0
 40
0
 41
0
  0
VERTEX
  8
0
 10
4.77701
 20
5.41287
 30
0.0
 40
0
 41
0
  0
VERTEX
  8
0
 10
4.76714
 20
5.43528
 30
0.0
 40
0
 41
0
  0
VERTEX
  8
0
 10
4.76351
 20
5.45421
 30
0.0
 40
0
 41
0
  0
VERTEX
  8
0
 10
4.76351
 20
5.4605
 30
0.0
 40
0
 41
0
  0
SEQEND
 8
0
  0
POLYLINE
  8
0
 62
     0
 66
     1
 10
0
 20
0
 30
0.0
 40
0.75
 41
0.75
  0
VERTEX
  8
0
 10
4.7354
 20
5.4605
 30
0.0
 40
0.0104167
 41
0.0104167
  0
VERTEX
  8
0
 10
4.7354
 20
5.45421
 30
0.0
 40
0.0104167
 41
0.0104167
  0
VERTEX
  8
0
 10
4.73172
 20
5.43528
 30
0.0
 40
0.0104167
 41
0.0104167
  0
VERTEX
  8
0
 10
4.72185
 20
5.41287
 30
0.0
 40
0.0104167
 41
0.0104167
  0
VERTEX
  8
0
 10
4.71875
 20
5.40842
 30
0.0
 40
0.0104167
 41
0.0104167
  0
VERTEX
  8
0
 10
4.71767
 20
5.4069
 30
0.0
 40
0.0104167
 41
0.0104167
  0
VERTEX
  8
0
 10
4.70751
 20
5.39231
 30
0.0
 40
0.0104167
 41
0.0104167
  0
VERTEX
  8
0
 10
4.70725
 20
5.39074
 30
0.0
 40
0.0104167
 41
0.0104167
  0
VERTEX
  8
0
 10
4.70671
 20
5.38792
 30
0.0
 40
0.0104167
 41
0.0104167
  0
VERTEX
  8
0
 10
4.71089
 20
5.37136
 30
0.0
 40
0.0104167
 41
0.0104167
  0
VERTEX
  8
0
 10
4.72754
 20
5.35846
 30
0.0
 40
0.0104167
 41
0.0104167
  0
VERTEX
  8
0
 10
4.73329
 20
5.35742
 30
0.0
 40
0.0104167
 41
0.0104167
  0
VERTEX
  8
0
 10
4.7346
 20
5.35715
 30
0.0
 40
0.0104167
 41
0.0104167
  0
VERTEX
  8
0
 10
4.74615
 20
5.35633
 30
0.0
 40
0.0104167
 41
0.0104167
  0
VERTEX
  8
0
 10
4.75
 20
5.35633
 30
0.0
 40
0.0104167
 41
0.0104167
  0
VERTEX
  8
0
 10
4.74892
 20
5.35633
 30
0.0
 40
0.0104167
 41
0.0104167
  0
VERTEX
  8
0
 10
4.7531
 20
5.35633
 30
0.0
 40
0.0104167
 41
0.0104167
  0
VERTEX
  8
0
 10
4.76432
 20
5.35715
 30
0.0
 40
0.0104167
 41
0.0104167
  0
VERTEX
  8
0
 10
4.76563
 20
5.35742
 30
0.0
 40
0.0104167
 41
0.0104167
  0
VERTEX
  8
0
 10
4.77132
 20
5.35846
 30
0.0
 40
0.0104167
 41
0.0104167
  0
VERTEX
  8
0
 10
4.78797
 20
5.37136
 30
0.0
 40
0.0104167
 41
0.0104167
  0
VERTEX
  8
0
 10
4.79215
 20
5.38792
 30
0.0
 40
0.0104167
 41
0.0104167
  0
VERTEX
  8
0
 10
4.79167
 20
5.39074
 30
0.0
 40
0.0104167
 41
0.0104167
  0
VERTEX
  8
0
 10
4.79139
 20
5.39231
 30
0.0
 40
0.0104167
 41
0.0104167
  0
VERTEX
  8
0
 10
4.78119
 20
5.4069
 30
0.0
 40
0.0104167
 41
0.0104167
  0
VERTEX
  8
0
 10
4.78017
 20
5.40842
 30
0.0
 40
0.0104167
 41
0.0104167
  0
VERTEX
  8
0
 10
4.77701
 20
5.41287
 30
0.0
 40
0.0104167
 41
0.0104167
  0
VERTEX
  8
0
 10
4.76714
 20
5.43528
 30
0.0
 40
0.0104167
 41
0.0104167
  0
VERTEX
  8
0
 10
4.76351
 20
5.45421
 30
0.0
 40
0.0104167
 41
0.0104167
  0
VERTEX
  8
0
 10
4.76351
 20
5.4605
 30
0.0
 40
0.0104167
 41
0.0104167
  0
SEQEND
 8
0
  0
POLYLINE
  8
0
 62
     7
 66
     1
 10
0
 20
0
 30
0.0
 70
     1
 40
0
 41
0
  0
VERTEX
  8
0
 10
4.70725
 20
5.38971
 30
0.0
 40
0
 41
0
  0
VERTEX
  8
0
 10
4.70751
 20
5.38921
 30
0.0
 40
0
 41
0
  0
VERTEX
  8
0
 10
4.71935
 20
5.37901
 30
0.0
 40
0
 41
0
  0
VERTEX
  8
0
 10
4.74311
 20
5.3699
 30
0.0
 40
0
 41
0
  0
VERTEX
  8
0
 10
4.75103
 20
5.3699
 30
0.0
 40
0
 41
0
  0
VERTEX
  8
0
 10
4.75726
 20
5.37017
 30
0.0
 40
0
 41
0
  0
VERTEX
  8
0
 10
4.77989
 20
5.37939
 30
0.0
 40
0
 41
0
  0
VERTEX
  8
0
 10
4.79113
 20
5.38921
 30
0.0
 40
0
 41
0
  0
VERTEX
  8
0
 10
4.79167
 20
5.38971
 30
0.0
 40
0
 41
0
  0
SEQEND
 8
0
  0
POLYLINE
  8
0
 62
     0
 66
     1
 10
0
 20
0
 30
0.0
 40
0.75
 41
0.75
  0
VERTEX
  8
0
 10
4.70725
 20
5.38971
 30
0.0
 40
0.0104167
 41
0.0104167
  0
VERTEX
  8
0
 10
4.70751
 20
5.38921
 30
0.0
 40
0.0104167
 41
0.0104167
  0
VERTEX
  8
0
 10
4.71935
 20
5.37901
 30
0.0
 40
0.0104167
 41
0.0104167
  0
VERTEX
  8
0
 10
4.74311
 20
5.3699
 30
0.0
 40
0.0104167
 41
0.0104167
  0
VERTEX
  8
0
 10
4.75103
 20
5.3699
 30
0.0
 40
0.0104167
 41
0.0104167
  0
VERTEX
  8
0
 10
4.75726
 20
5.37017
 30
0.0
 40
0.0104167
 41
0.0104167
  0
VERTEX
  8
0
 10
4.77989
 20
5.37939
 30
0.0
 40
0.0104167
 41
0.0104167
  0
VERTEX
  8
0
 10
4.79113
 20
5.38921
 30
0.0
 40
0.0104167
 41
0.0104167
  0
VERTEX
  8
0
 10
4.79167
 20
5.38971
 30
0.0
 40
0.0104167
 41
0.0104167
  0
SEQEND
 8
0
  0
POLYLINE
  8
0
 62
     7
 66
     1
 10
0
 20
0
 30
0.0
 70
     1
 40
0
 41
0
  0
VERTEX
  8
0
 10
4.7354
 20
5.54383
 30
0.0
 40
0
 41
0
  0
VERTEX
  8
0
 10
4.76351
 20
5.54383
 30
0.0
 40
0
 41
0
  0
VERTEX
  8
0
 10
4.76351
 20
5.4605
 30
0.0
 40
0
 41
0
  0
VERTEX
  8
0
 10
4.75646
 20
5.4605
 30
0.0
 40
0
 41
0
  0
VERTEX
  8
0
 10
4.74067
 20
5.4605
 30
0.0
 40
0
 41
0
  0
VERTEX
  8
0
 10
4.7354
 20
5.4605
 30
0.0
 40
0
 41
0
  0
VERTEX
  8
0
 10
4.7354
 20
5.48133
 30
0.0
 40
0
 41
0
  0
VERTEX
  8
0
 10
4.7354
 20
5.52821
 30
0.0
 40
0
 41
0
  0
VERTEX
  8
0
 10
4.7354
 20
5.54383
 30
0.0
 40
0
 41
0
  0
SEQEND
 8
0
  0
POLYLINE
  8
0
 62
     0
 66
     1
 10
0
 20
0
 30
0.0
 70
     1
 40
0.75
 41
0.75
  0
VERTEX
  8
0
 10
4.7354
 20
5.54383
 30
0.0
 40
0.0104167
 41
0.0104167
  0
VERTEX
  8
0
 10
4.76351
 20
5.54383
 30
0.0
 40
0.0104167
 41
0.0104167
  0
VERTEX
  8
0
 10
4.76351
 20
5.4605
 30
0.0
 40
0.0104167
 41
0.0104167
  0
VERTEX
  8
0
 10
4.75646
 20
5.4605
 30
0.0
 40
0.0104167
 41
0.0104167
  0
VERTEX
  8
0
 10
4.74067
 20
5.4605
 30
0.0
 40
0.0104167
 41
0.0104167
  0
VERTEX
  8
0
 10
4.7354
 20
5.4605
 30
0.0
 40
0.0104167
 41
0.0104167
  0
VERTEX
  8
0
 10
4.7354
 20
5.48133
 30
0.0
 40
0.0104167
 41
0.0104167
  0
VERTEX
  8
0
 10
4.7354
 20
5.52821
 30
0.0
 40
0.0104167
 41
0.0104167
  0
VERTEX
  8
0
 10
4.7354
 20
5.54383
 30
0.0
 40
0.0104167
 41
0.0104167
  0
SEQEND
 8
0
  0
POLYLINE
  8
0
 62
     7
 66
     1
 10
0
 20
0
 30
0.0
 70
     1
 40
0
 41
0
  0
VERTEX
  8
0
 10
4.61871
 20
5.51156
 30
0.0
 40
0
 41
0
  0
VERTEX
  8
0
 10
4.6219
 20
5.51281
 30
0.0
 40
0
 41
0
  0
VERTEX
  8
0
 10
4.63157
 20
5.51665
 30
0.0
 40
0
 41
0
  0
VERTEX
  8
0
 10
4.63433
 20
5.51779
 30
0.0
 40
0
 41
0
  0
VERTEX
  8
0
 10
4.63433
 20
5.51779
 30
0.0
 40
0
 41
0
  0
VERTEX
  8
0
 10
4.63433
 20
5.51639
 30
0.0
 40
0
 41
0
  0
VERTEX
  8
0
 10
4.63433
 20
5.5121
 30
0.0
 40
0
 41
0
  0
VERTEX
  8
0
 10
4.63433
 20
5.50782
 30
0.0
 40
0
 41
0
  0
VERTEX
  8
0
 10
4.63433
 20
5.50635
 30
0.0
 40
0
 41
0
  0
VERTEX
  8
0
 10
4.63433
 20
5.50635
 30
0.0
 40
0
 41
0
  0
VERTEX
  8
0
 10
4.63194
 20
5.507
 30
0.0
 40
0
 41
0
  0
VERTEX
  8
0
 10
4.62196
 20
5.51042
 30
0.0
 40
0
 41
0
  0
VERTEX
  8
0
 10
4.61871
 20
5.51156
 30
0.0
 40
0
 41
0
  0
SEQEND
 8
0
  0
POLYLINE
  8
0
 62
     0
 66
     1
 10
0
 20
0
 30
0.0
 70
     1
 40
0.75
 41
0.75
  0
VERTEX
  8
0
 10
4.61871
 20
5.51156
 30
0.0
 40
0.0104167
 41
0.0104167
  0
VERTEX
  8
0
 10
4.6219
 20
5.51281
 30
0.0
 40
0.0104167
 41
0.0104167
  0
VERTEX
  8
0
 10
4.63157
 20
5.51665
 30
0.0
 40
0.0104167
 41
0.0104167
  0
VERTEX
  8
0
 10
4.63433
 20
5.51779
 30
0.0
 40
0.0104167
 41
0.0104167
  0
VERTEX
  8
0
 10
4.63433
 20
5.51779
 30
0.0
 40
0.0104167
 41
0.0104167
  0
VERTEX
  8
0
 10
4.63433
 20
5.51639
 30
0.0
 40
0.0104167
 41
0.0104167
  0
VERTEX
  8
0
 10
4.63433
 20
5.5121
 30
0.0
 40
0.0104167
 41
0.0104167
  0
VERTEX
  8
0
 10
4.63433
 20
5.50782
 30
0.0
 40
0.0104167
 41
0.0104167
  0
VERTEX
  8
0
 10
4.63433
 20
5.50635
 30
0.0
 40
0.0104167
 41
0.0104167
  0
VERTEX
  8
0
 10
4.63433
 20
5.50635
 30
0.0
 40
0.0104167
 41
0.0104167
  0
VERTEX
  8
0
 10
4.63194
 20
5.507
 30
0.0
 40
0.0104167
 41
0.0104167
  0
VERTEX
  8
0
 10
4.62196
 20
5.51042
 30
0.0
 40
0.0104167
 41
0.0104167
  0
VERTEX
  8
0
 10
4.61871
 20
5.51156
 30
0.0
 40
0.0104167
 41
0.0104167
  0
SEQEND
 8
0
  0
POLYLINE
  8
0
 62
     7
 66
     1
 10
0
 20
0
 30
0.0
 70
     1
 40
0
 41
0
  0
VERTEX
  8
0
 10
4.87912
 20
5.51156
 30
0.0
 40
0
 41
0
  0
VERTEX
  8
0
 10
4.87587
 20
5.51281
 30
0.0
 40
0
 41
0
  0
VERTEX
  8
0
 10
4.86621
 20
5.51665
 30
0.0
 40
0
 41
0
  0
VERTEX
  8
0
 10
4.8635
 20
5.51779
 30
0.0
 40
0
 41
0
  0
VERTEX
  8
0
 10
4.8635
 20
5.51779
 30
0.0
 40
0
 41
0
  0
VERTEX
  8
0
 10
4.8635
 20
5.51639
 30
0.0
 40
0
 41
0
  0
VERTEX
  8
0
 10
4.8635
 20
5.5121
 30
0.0
 40
0
 41
0
  0
VERTEX
  8
0
 10
4.8635
 20
5.50782
 30
0.0
 40
0
 41
0
  0
VERTEX
  8
0
 10
4.8635
 20
5.50635
 30
0.0
 40
0
 41
0
  0
VERTEX
  8
0
 10
4.8635
 20
5.50635
 30
0.0
 40
0
 41
0
  0
VERTEX
  8
0
 10
4.86583
 20
5.507
 30
0.0
 40
0
 41
0
  0
VERTEX
  8
0
 10
4.87582
 20
5.51042
 30
0.0
 40
0
 41
0
  0
VERTEX
  8
0
 10
4.87912
 20
5.51156
 30
0.0
 40
0
 41
0
  0
SEQEND
 8
0
  0
POLYLINE
  8
0
 62
     0
 66
     1
 10
0
 20
0
 30
0.0
 70
     1
 40
0.75
 41
0.75
  0
VERTEX
  8
0
 10
4.87912
 20
5.51156
 30
0.0
 40
0.0104167
 41
0.0104167
  0
VERTEX
  8
0
 10
4.87587
 20
5.51281
 30
0.0
 40
0.0104167
 41
0.0104167
  0
VERTEX
  8
0
 10
4.86621
 20
5.51665
 30
0.0
 40
0.0104167
 41
0.0104167
  0
VERTEX
  8
0
 10
4.8635
 20
5.51779
 30
0.0
 40
0.0104167
 41
0.0104167
  0
VERTEX
  8
0
 10
4.8635
 20
5.51779
 30
0.0
 40
0.0104167
 41
0.0104167
  0
VERTEX
  8
0
 10
4.8635
 20
5.51639
 30
0.0
 40
0.0104167
 41
0.0104167
  0
VERTEX
  8
0
 10
4.8635
 20
5.5121
 30
0.0
 40
0.0104167
 41
0.0104167
  0
VERTEX
  8
0
 10
4.8635
 20
5.50782
 30
0.0
 40
0.0104167
 41
0.0104167
  0
VERTEX
  8
0
 10
4.8635
 20
5.50635
 30
0.0
 40
0.0104167
 41
0.0104167
  0
VERTEX
  8
0
 10
4.8635
 20
5.50635
 30
0.0
 40
0.0104167
 41
0.0104167
  0
VERTEX
  8
0
 10
4.86583
 20
5.507
 30
0.0
 40
0.0104167
 41
0.0104167
  0
VERTEX
  8
0
 10
4.87582
 20
5.51042
 30
0.0
 40
0.0104167
 41
0.0104167
  0
VERTEX
  8
0
 10
4.87912
 20
5.51156
 30
0.0
 40
0.0104167
 41
0.0104167
  0
SEQEND
 8
0
  0
POLYLINE
  8
0
 62
     7
 66
     1
 10
0
 20
0
 30
0.0
 70
     1
 40
0
 41
0
  0
VERTEX
  8
0
 10
3.73118
 20
5.52106
 30
0.0
 40
0
 41
0
  0
VERTEX
  8
0
 10
4.14774
 20
5.52106
 30
0.0
 40
0
 41
0
  0
VERTEX
  8
0
 10
4.14774
 20
5.33371
 30
0.0
 40
0
 41
0
  0
VERTEX
  8
0
 10
3.73118
 20
5.33371
 30
0.0
 40
0
 41
0
  0
VERTEX
  8
0
 10
3.73118
 20
5.52106
 30
0.0
 40
0
 41
0
  0
SEQEND
 8
0
  0
POLYLINE
  8
0
 62
     0
 66
     1
 10
0
 20
0
 30
0.0
 70
     1
 40
0.75
 41
0.75
  0
VERTEX
  8
0
 10
3.73118
 20
5.52106
 30
0.0
 40
0.0104167
 41
0.0104167
  0
VERTEX
  8
0
 10
4.14774
 20
5.52106
 30
0.0
 40
0.0104167
 41
0.0104167
  0
VERTEX
  8
0
 10
4.14774
 20
5.33371
 30
0.0
 40
0.0104167
 41
0.0104167
  0
VERTEX
  8
0
 10
3.73118
 20
5.33371
 30
0.0
 40
0.0104167
 41
0.0104167
  0
VERTEX
  8
0
 10
3.73118
 20
5.52106
 30
0.0
 40
0.0104167
 41
0.0104167
  0
SEQEND
 8
0
  0
POLYLINE
  8
0
 62
     7
 66
     1
 10
0
 20
0
 30
0.0
 70
     1
 40
0
 41
0
  0
VERTEX
  8
0
 10
4.14774
 20
5.06543
 30
0.0
 40
0
 41
0
  0
VERTEX
  8
0
 10
4.14774
 20
5.06543
 30
0.0
 40
0
 41
0
  0
VERTEX
  8
0
 10
4.14779
 20
5.05371
 30
0.0
 40
0
 41
0
  0
VERTEX
  8
0
 10
4.14615
 20
5.02274
 30
0.0
 40
0
 41
0
  0
VERTEX
  8
0
 10
4.14003
 20
4.97889
 30
0.0
 40
0
 41
0
  0
VERTEX
  8
0
 10
4.12663
 20
4.92865
 30
0.0
 40
0
 41
0
  0
VERTEX
  8
0
 10
4.10308
 20
4.87847
 30
0.0
 40
0
 41
0
  0
VERTEX
  8
0
 10
4.06662
 20
4.83464
 30
0.0
 40
0
 41
0
  0
VERTEX
  8
0
 10
4.01443
 20
4.80365
 30
0.0
 40
0
 41
0
  0
VERTEX
  8
0
 10
3.96137
 20
4.79189
 30
0.0
 40
0
 41
0
  0
VERTEX
  8
0
 10
3.94374
 20
4.79189
 30
0.0
 40
0
 41
0
  0
VERTEX
  8
0
 10
3.9254
 20
4.79189
 30
0.0
 40
0
 41
0
  0
VERTEX
  8
0
 10
3.87056
 20
4.80365
 30
0.0
 40
0
 41
0
  0
VERTEX
  8
0
 10
3.81646
 20
4.83464
 30
0.0
 40
0
 41
0
  0
VERTEX
  8
0
 10
3.77865
 20
4.87847
 30
0.0
 40
0
 41
0
  0
VERTEX
  8
0
 10
3.75424
 20
4.92865
 30
0.0
 40
0
 41
0
  0
VERTEX
  8
0
 10
3.74024
 20
4.97889
 30
0.0
 40
0
 41
0
  0
VERTEX
  8
0
 10
3.73383
 20
5.02274
 30
0.0
 40
0
 41
0
  0
VERTEX
  8
0
 10
3.7321
 20
5.05371
 30
0.0
 40
0
 41
0
  0
VERTEX
  8
0
 10
3.73221
 20
5.06543
 30
0.0
 40
0
 41
0
  0
VERTEX
  8
0
 10
3.73221
 20
5.06543
 30
0.0
 40
0
 41
0
  0
VERTEX
  8
0
 10
3.73118
 20
5.33371
 30
0.0
 40
0
 41
0
  0
VERTEX
  8
0
 10
4.14774
 20
5.33371
 30
0.0
 40
0
 41
0
  0
VERTEX
  8
0
 10
4.14774
 20
5.06543
 30
0.0
 40
0
 41
0
  0
SEQEND
 8
0
  0
POLYLINE
  8
0
 62
     0
 66
     1
 10
0
 20
0
 30
0.0
 70
     1
 40
0.75
 41
0.75
  0
VERTEX
  8
0
 10
4.14774
 20
5.06543
 30
0.0
 40
0.0104167
 41
0.0104167
  0
VERTEX
  8
0
 10
4.14774
 20
5.06543
 30
0.0
 40
0.0104167
 41
0.0104167
  0
VERTEX
  8
0
 10
4.14779
 20
5.05371
 30
0.0
 40
0.0104167
 41
0.0104167
  0
VERTEX
  8
0
 10
4.14615
 20
5.02274
 30
0.0
 40
0.0104167
 41
0.0104167
  0
VERTEX
  8
0
 10
4.14003
 20
4.97889
 30
0.0
 40
0.0104167
 41
0.0104167
  0
VERTEX
  8
0
 10
4.12663
 20
4.92865
 30
0.0
 40
0.0104167
 41
0.0104167
  0
VERTEX
  8
0
 10
4.10308
 20
4.87847
 30
0.0
 40
0.0104167
 41
0.0104167
  0
VERTEX
  8
0
 10
4.06662
 20
4.83464
 30
0.0
 40
0.0104167
 41
0.0104167
  0
VERTEX
  8
0
 10
4.01443
 20
4.80365
 30
0.0
 40
0.0104167
 41
0.0104167
  0
VERTEX
  8
0
 10
3.96137
 20
4.79189
 30
0.0
 40
0.0104167
 41
0.0104167
  0
VERTEX
  8
0
 10
3.94374
 20
4.79189
 30
0.0
 40
0.0104167
 41
0.0104167
  0
VERTEX
  8
0
 10
3.9254
 20
4.79189
 30
0.0
 40
0.0104167
 41
0.0104167
  0
VERTEX
  8
0
 10
3.87056
 20
4.80365
 30
0.0
 40
0.0104167
 41
0.0104167
  0
VERTEX
  8
0
 10
3.81646
 20
4.83464
 30
0.0
 40
0.0104167
 41
0.0104167
  0
VERTEX
  8
0
 10
3.77865
 20
4.87847
 30
0.0
 40
0.0104167
 41
0.0104167
  0
VERTEX
  8
0
 10
3.75424
 20
4.92865
 30
0.0
 40
0.0104167
 41
0.0104167
  0
VERTEX
  8
0
 10
3.74024
 20
4.97889
 30
0.0
 40
0.0104167
 41
0.0104167
  0
VERTEX
  8
0
 10
3.73383
 20
5.02274
 30
0.0
 40
0.0104167
 41
0.0104167
  0
VERTEX
  8
0
 10
3.7321
 20
5.05371
 30
0.0
 40
0.0104167
 41
0.0104167
  0
VERTEX
  8
0
 10
3.73221
 20
5.06543
 30
0.0
 40
0.0104167
 41
0.0104167
  0
VERTEX
  8
0
 10
3.73221
 20
5.06543
 30
0.0
 40
0.0104167
 41
0.0104167
  0
VERTEX
  8
0
 10
3.73118
 20
5.33371
 30
0.0
 40
0.0104167
 41
0.0104167
  0
VERTEX
  8
0
 10
4.14774
 20
5.33371
 30
0.0
 40
0.0104167
 41
0.0104167
  0
VERTEX
  8
0
 10
4.14774
 20
5.06543
 30
0.0
 40
0.0104167
 41
0.0104167
  0
SEQEND
 8
0
  0
POLYLINE
  8
0
 62
     7
 66
     1
 10
0
 20
0
 30
0.0
 70
     1
 40
0
 41
0
  0
VERTEX
  8
0
 10
3.90636
 20
5.44314
 30
0.0
 40
0
 41
0
  0
VERTEX
  8
0
 10
3.97254
 20
5.44314
 30
0.0
 40
0
 41
0
  0
VERTEX
  8
0
 10
3.97254
 20
5.41162
 30
0.0
 40
0
 41
0
  0
VERTEX
  8
0
 10
3.90636
 20
5.41162
 30
0.0
 40
0
 41
0
  0
VERTEX
  8
0
 10
3.90636
 20
5.44314
 30
0.0
 40
0
 41
0
  0
SEQEND
 8
0
  0
POLYLINE
  8
0
 62
     0
 66
     1
 10
0
 20
0
 30
0.0
 70
     1
 40
0.75
 41
0.75
  0
VERTEX
  8
0
 10
3.90636
 20
5.44314
 30
0.0
 40
0.0104167
 41
0.0104167
  0
VERTEX
  8
0
 10
3.97254
 20
5.44314
 30
0.0
 40
0.0104167
 41
0.0104167
  0
VERTEX
  8
0
 10
3.97254
 20
5.41162
 30
0.0
 40
0.0104167
 41
0.0104167
  0
VERTEX
  8
0
 10
3.90636
 20
5.41162
 30
0.0
 40
0.0104167
 41
0.0104167
  0
VERTEX
  8
0
 10
3.90636
 20
5.44314
 30
0.0
 40
0.0104167
 41
0.0104167
  0
SEQEND
 8
0
  0
POLYLINE
  8
0
 62
     7
 66
     1
 10
0
 20
0
 30
0.0
 70
     1
 40
0
 41
0
  0
VERTEX
  8
0
 10
0.633029
 20
4.15944
 30
0.0
 40
0
 41
0
  0
VERTEX
  8
0
 10
1.15994
 20
4.15944
 30
0.0
 40
0
 41
0
  0
VERTEX
  8
0
 10
1.15994
 20
3.53444
 30
0.0
 40
0
 41
0
  0
VERTEX
  8
0
 10
0.633029
 20
3.53444
 30
0.0
 40
0
 41
0
  0
VERTEX
  8
0
 10
0.633029
 20
4.15944
 30
0.0
 40
0
 41
0
  0
SEQEND
 8
0
  0
POLYLINE
  8
0
 62
     0
 66
     1
 10
0
 20
0
 30
0.0
 70
     1
 40
0.75
 41
0.75
  0
VERTEX
  8
0
 10
0.633029
 20
4.15944
 30
0.0
 40
0.0104167
 41
0.0104167
  0
VERTEX
  8
0
 10
1.15994
 20
4.15944
 30
0.0
 40
0.0104167
 41
0.0104167
  0
VERTEX
  8
0
 10
1.15994
 20
3.53444
 30
0.0
 40
0.0104167
 41
0.0104167
  0
VERTEX
  8
0
 10
0.633029
 20
3.53444
 30
0.0
 40
0.0104167
 41
0.0104167
  0
VERTEX
  8
0
 10
0.633029
 20
4.15944
 30
0.0
 40
0.0104167
 41
0.0104167
  0
SEQEND
 8
0
  0
POLYLINE
  8
0
 62
     7
 66
     1
 10
0
 20
0
 30
0.0
 70
     1
 40
0
 41
0
  0
VERTEX
  8
0
 10
1.15988
 20
4.16043
 30
0.0
 40
0
 41
0
  0
VERTEX
  8
0
 10
2.03429
 20
4.16043
 30
0.0
 40
0
 41
0
  0
VERTEX
  8
0
 10
2.03429
 20
3.85932
 30
0.0
 40
0
 41
0
  0
VERTEX
  8
0
 10
1.15988
 20
3.85932
 30
0.0
 40
0
 41
0
  0
VERTEX
  8
0
 10
1.15988
 20
4.16043
 30
0.0
 40
0
 41
0
  0
SEQEND
 8
0
  0
POLYLINE
  8
0
 62
     0
 66
     1
 10
0
 20
0
 30
0.0
 70
     1
 40
0.75
 41
0.75
  0
VERTEX
  8
0
 10
1.15988
 20
4.16043
 30
0.0
 40
0.0104167
 41
0.0104167
  0
VERTEX
  8
0
 10
2.03429
 20
4.16043
 30
0.0
 40
0.0104167
 41
0.0104167
  0
VERTEX
  8
0
 10
2.03429
 20
3.85932
 30
0.0
 40
0.0104167
 41
0.0104167
  0
VERTEX
  8
0
 10
1.15988
 20
3.85932
 30
0.0
 40
0.0104167
 41
0.0104167
  0
VERTEX
  8
0
 10
1.15988
 20
4.16043
 30
0.0
 40
0.0104167
 41
0.0104167
  0
SEQEND
 8
0
  0
POLYLINE
  8
0
 62
     7
 66
     1
 10
0
 20
0
 30
0.0
 70
     1
 40
0
 41
0
  0
VERTEX
  8
0
 10
3.41217
 20
6.29519
 30
0.0
 40
0
 41
0
  0
VERTEX
  8
0
 10
4.03717
 20
6.29519
 30
0.0
 40
0
 41
0
  0
VERTEX
  8
0
 10
4.03717
 20
5.66363
 30
0.0
 40
0
 41
0
  0
VERTEX
  8
0
 10
3.41217
 20
5.66363
 30
0.0
 40
0
 41
0
  0
VERTEX
  8
0
 10
3.41217
 20
6.29519
 30
0.0
 40
0
 41
0
  0
SEQEND
 8
0
  0
POLYLINE
  8
0
 62
     0
 66
     1
 10
0
 20
0
 30
0.0
 70
     1
 40
0.75
 41
0.75
  0
VERTEX
  8
0
 10
3.41217
 20
6.29519
 30
0.0
 40
0.0104167
 41
0.0104167
  0
VERTEX
  8
0
 10
4.03717
 20
6.29519
 30
0.0
 40
0.0104167
 41
0.0104167
  0
VERTEX
  8
0
 10
4.03717
 20
5.66363
 30
0.0
 40
0.0104167
 41
0.0104167
  0
VERTEX
  8
0
 10
3.41217
 20
5.66363
 30
0.0
 40
0.0104167
 41
0.0104167
  0
VERTEX
  8
0
 10
3.41217
 20
6.29519
 30
0.0
 40
0.0104167
 41
0.0104167
  0
SEQEND
 8
0
  0
POLYLINE
  8
0
 62
     0
 66
     1
 10
0
 20
0
 30
0.0
 40
0.75
 41
0.75
  0
VERTEX
  8
0
 10
4.03717
 20
5.66363
 30
0.0
 40
0.0104167
 41
0.0104167
  0
VERTEX
  8
0
 10
3.72467
 20
6.05414
 30
0.0
 40
0.0104167
 41
0.0104167
  0
VERTEX
  8
0
 10
3.72467
 20
5.86469
 30
0.0
 40
0.0104167
 41
0.0104167
  0
VERTEX
  8
0
 10
3.41217
 20
6.25629
 30
0.0
 40
0.0104167
 41
0.0104167
  0
SEQEND
 8
0
  0
POLYLINE
  8
0
 62
     7
 66
     1
 10
0
 20
0
 30
0.0
 70
     1
 40
0
 41
0
  0
VERTEX
  8
0
 10
3.41217
 20
6.29519
 30
0.0
 40
0
 41
0
  0
VERTEX
  8
0
 10
4.03717
 20
6.29519
 30
0.0
 40
0
 41
0
  0
VERTEX
  8
0
 10
4.03717
 20
6.2531
 30
0.0
 40
0
 41
0
  0
VERTEX
  8
0
 10
3.41217
 20
6.2531
 30
0.0
 40
0
 41
0
  0
VERTEX
  8
0
 10
3.41217
 20
6.29519
 30
0.0
 40
0
 41
0
  0
SEQEND
 8
0
  0
POLYLINE
  8
0
 62
     0
 66
     1
 10
0
 20
0
 30
0.0
 70
     1
 40
0.75
 41
0.75
  0
VERTEX
  8
0
 10
3.41217
 20
6.29519
 30
0.0
 40
0.0104167
 41
0.0104167
  0
VERTEX
  8
0
 10
4.03717
 20
6.29519
 30
0.0
 40
0.0104167
 41
0.0104167
  0
VERTEX
  8
0
 10
4.03717
 20
6.2531
 30
0.0
 40
0.0104167
 41
0.0104167
  0
VERTEX
  8
0
 10
3.41217
 20
6.2531
 30
0.0
 40
0.0104167
 41
0.0104167
  0
VERTEX
  8
0
 10
3.41217
 20
6.29519
 30
0.0
 40
0.0104167
 41
0.0104167
  0
SEQEND
 8
0
  0
POLYLINE
  8
0
 62
     7
 66
     1
 10
0
 20
0
 30
0.0
 70
     1
 40
0
 41
0
  0
VERTEX
  8
0
 10
4.03717
 20
5.66363
 30
0.0
 40
0
 41
0
  0
VERTEX
  8
0
 10
4.03717
 20
6.29656
 30
0.0
 40
0
 41
0
  0
VERTEX
  8
0
 10
4.65728
 20
6.29656
 30
0.0
 40
0
 41
0
  0
VERTEX
  8
0
 10
4.65728
 20
8.23118
 30
0.0
 40
0
 41
0
  0
VERTEX
  8
0
 10
5.27821
 20
8.23118
 30
0.0
 40
0
 41
0
  0
VERTEX
  8
0
 10
5.27821
 20
5.98492
 30
0.0
 40
0
 41
0
  0
VERTEX
  8
0
 10
4.97917
 20
5.98492
 30
0.0
 40
0
 41
0
  0
VERTEX
  8
0
 10
4.97917
 20
5.66363
 30
0.0
 40
0
 41
0
  0
VERTEX
  8
0
 10
4.03717
 20
5.66363
 30
0.0
 40
0
 41
0
  0
SEQEND
 8
0
  0
POLYLINE
  8
0
 62
     0
 66
     1
 10
0
 20
0
 30
0.0
 70
     1
 40
0.75
 41
0.75
  0
VERTEX
  8
0
 10
4.03717
 20
5.66363
 30
0.0
 40
0.0104167
 41
0.0104167
  0
VERTEX
  8
0
 10
4.03717
 20
6.29656
 30
0.0
 40
0.0104167
 41
0.0104167
  0
VERTEX
  8
0
 10
4.65728
 20
6.29656
 30
0.0
 40
0.0104167
 41
0.0104167
  0
VERTEX
  8
0
 10
4.65728
 20
8.23118
 30
0.0
 40
0.0104167
 41
0.0104167
  0
VERTEX
  8
0
 10
5.27821
 20
8.23118
 30
0.0
 40
0.0104167
 41
0.0104167
  0
VERTEX
  8
0
 10
5.27821
 20
5.98492
 30
0.0
 40
0.0104167
 41
0.0104167
  0
VERTEX
  8
0
 10
4.97917
 20
5.98492
 30
0.0
 40
0.0104167
 41
0.0104167
  0
VERTEX
  8
0
 10
4.97917
 20
5.66363
 30
0.0
 40
0.0104167
 41
0.0104167
  0
VERTEX
  8
0
 10
4.03717
 20
5.66363
 30
0.0
 40
0.0104167
 41
0.0104167
  0
SEQEND
 8
0
  0
POLYLINE
  8
0
 62
     0
 66
     1
 10
0
 20
0
 30
0.0
 70
     1
 40
0.75
 41
0.75
  0
VERTEX
  8
0
 10
4.03901
 20
5.98497
 30
0.0
 40
0.0104167
 41
0.0104167
  0
VERTEX
  8
0
 10
4.97911
 20
5.98497
 30
0.0
 40
0.0104167
 41
0.0104167
  0
VERTEX
  8
0
 10
4.97911
 20
5.66379
 30
0.0
 40
0.0104167
 41
0.0104167
  0
VERTEX
  8
0
 10
4.03901
 20
5.66379
 30
0.0
 40
0.0104167
 41
0.0104167
  0
VERTEX
  8
0
 10
4.03901
 20
5.98497
 30
0.0
 40
0.0104167
 41
0.0104167
  0
SEQEND
 8
0
  0
POLYLINE
  8
0
 62
     7
 66
     1
 10
0
 20
0
 30
0.0
 70
     1
 40
0
 41
0
  0
VERTEX
  8
0
 10
4.72325
 20
6.97401
 30
0.0
 40
0
 41
0
  0
VERTEX
  8
0
 10
5.14876
 20
6.97401
 30
0.0
 40
0
 41
0
  0
VERTEX
  8
0
 10
5.14876
 20
6.78586
 30
0.0
 40
0
 41
0
  0
VERTEX
  8
0
 10
4.72325
 20
6.78586
 30
0.0
 40
0
 41
0
  0
VERTEX
  8
0
 10
4.72325
 20
6.97401
 30
0.0
 40
0
 41
0
  0
SEQEND
 8
0
  0
POLYLINE
  8
0
 62
     0
 66
     1
 10
0
 20
0
 30
0.0
 70
     1
 40
0.75
 41
0.75
  0
VERTEX
  8
0
 10
4.72325
 20
6.97401
 30
0.0
 40
0.0104167
 41
0.0104167
  0
VERTEX
  8
0
 10
4.72325
 20
6.78586
 30
0.0
 40
0.0104167
 41
0.0104167
  0
VERTEX
  8
0
 10
5.14876
 20
6.78586
 30
0.0
 40
0.0104167
 41
0.0104167
  0
VERTEX
  8
0
 10
5.14876
 20
6.97401
 30
0.0
 40
0.0104167
 41
0.0104167
  0
VERTEX
  8
0
 10
4.72325
 20
6.97401
 30
0.0
 40
0.0104167
 41
0.0104167
  0
SEQEND
 8
0
  0
POLYLINE
  8
0
 62
     7
 66
     1
 10
0
 20
0
 30
0.0
 70
     1
 40
0
 41
0
  0
VERTEX
  8
0
 10
4.72222
 20
6.75765
 30
0.0
 40
0
 41
0
  0
VERTEX
  8
0
 10
5.14774
 20
6.75765
 30
0.0
 40
0
 41
0
  0
VERTEX
  8
0
 10
5.14774
 20
6.40972
 30
0.0
 40
0
 41
0
  0
VERTEX
  8
0
 10
4.72222
 20
6.40972
 30
0.0
 40
0
 41
0
  0
VERTEX
  8
0
 10
4.72222
 20
6.75765
 30
0.0
 40
0
 41
0
  0
SEQEND
 8
0
  0
POLYLINE
  8
0
 62
     0
 66
     1
 10
0
 20
0
 30
0.0
 70
     1
 40
0.75
 41
0.75
  0
VERTEX
  8
0
 10
4.72222
 20
6.75765
 30
0.0
 40
0.0104167
 41
0.0104167
  0
VERTEX
  8
0
 10
4.72222
 20
6.40972
 30
0.0
 40
0.0104167
 41
0.0104167
  0
VERTEX
  8
0
 10
5.14774
 20
6.40972
 30
0.0
 40
0.0104167
 41
0.0104167
  0
VERTEX
  8
0
 10
5.14774
 20
6.75765
 30
0.0
 40
0.0104167
 41
0.0104167
  0
VERTEX
  8
0
 10
4.72222
 20
6.75765
 30
0.0
 40
0.0104167
 41
0.0104167
  0
SEQEND
 8
0
  0
POLYLINE
  8
0
 62
     7
 66
     1
 10
0
 20
0
 30
0.0
 70
     1
 40
0
 41
0
  0
VERTEX
  8
0
 10
4.93892
 20
6.84347
 30
0.0
 40
0
 41
0
  0
VERTEX
  8
0
 10
4.93246
 20
6.84347
 30
0.0
 40
0
 41
0
  0
VERTEX
  8
0
 10
4.91308
 20
6.85417
 30
0.0
 40
0
 41
0
  0
VERTEX
  8
0
 10
4.90246
 20
6.87354
 30
0.0
 40
0
 41
0
  0
VERTEX
  8
0
 10
4.90246
 20
6.87993
 30
0.0
 40
0
 41
0
  0
VERTEX
  8
0
 10
4.90246
 20
6.88639
 30
0.0
 40
0
 41
0
  0
VERTEX
  8
0
 10
4.91308
 20
6.90576
 30
0.0
 40
0
 41
0
  0
VERTEX
  8
0
 10
4.93246
 20
6.91639
 30
0.0
 40
0
 41
0
  0
VERTEX
  8
0
 10
4.93892
 20
6.91639
 30
0.0
 40
0
 41
0
  0
VERTEX
  8
0
 10
4.94532
 20
6.91639
 30
0.0
 40
0
 41
0
  0
VERTEX
  8
0
 10
4.96468
 20
6.90576
 30
0.0
 40
0
 41
0
  0
VERTEX
  8
0
 10
4.97537
 20
6.88639
 30
0.0
 40
0
 41
0
  0
VERTEX
  8
0
 10
4.97537
 20
6.87993
 30
0.0
 40
0
 41
0
  0
VERTEX
  8
0
 10
4.97537
 20
6.87354
 30
0.0
 40
0
 41
0
  0
VERTEX
  8
0
 10
4.96468
 20
6.85417
 30
0.0
 40
0
 41
0
  0
VERTEX
  8
0
 10
4.94532
 20
6.84347
 30
0.0
 40
0
 41
0
  0
VERTEX
  8
0
 10
4.93892
 20
6.84347
 30
0.0
 40
0
 41
0
  0
SEQEND
 8
0
  0
POLYLINE
  8
0
 62
     0
 66
     1
 10
0
 20
0
 30
0.0
 70
     1
 40
0.6
 41
0.6
  0
VERTEX
  8
0
 10
4.93892
 20
6.84347
 30
0.0
 40
0.00833333
 41
0.00833333
  0
VERTEX
  8
0
 10
4.93246
 20
6.84347
 30
0.0
 40
0.00833333
 41
0.00833333
  0
VERTEX
  8
0
 10
4.91308
 20
6.85417
 30
0.0
 40
0.00833333
 41
0.00833333
  0
VERTEX
  8
0
 10
4.90246
 20
6.87354
 30
0.0
 40
0.00833333
 41
0.00833333
  0
VERTEX
  8
0
 10
4.90246
 20
6.87993
 30
0.0
 40
0.00833333
 41
0.00833333
  0
VERTEX
  8
0
 10
4.90246
 20
6.88639
 30
0.0
 40
0.00833333
 41
0.00833333
  0
VERTEX
  8
0
 10
4.91308
 20
6.90576
 30
0.0
 40
0.00833333
 41
0.00833333
  0
VERTEX
  8
0
 10
4.93246
 20
6.91639
 30
0.0
 40
0.00833333
 41
0.00833333
  0
VERTEX
  8
0
 10
4.93892
 20
6.91639
 30
0.0
 40
0.00833333
 41
0.00833333
  0
VERTEX
  8
0
 10
4.94532
 20
6.91639
 30
0.0
 40
0.00833333
 41
0.00833333
  0
VERTEX
  8
0
 10
4.96468
 20
6.90576
 30
0.0
 40
0.00833333
 41
0.00833333
  0
VERTEX
  8
0
 10
4.97537
 20
6.88639
 30
0.0
 40
0.00833333
 41
0.00833333
  0
VERTEX
  8
0
 10
4.97537
 20
6.87993
 30
0.0
 40
0.00833333
 41
0.00833333
  0
VERTEX
  8
0
 10
4.97537
 20
6.87354
 30
0.0
 40
0.00833333
 41
0.00833333
  0
VERTEX
  8
0
 10
4.96468
 20
6.85417
 30
0.0
 40
0.00833333
 41
0.00833333
  0
VERTEX
  8
0
 10
4.94532
 20
6.84347
 30
0.0
 40
0.00833333
 41
0.00833333
  0
VERTEX
  8
0
 10
4.93892
 20
6.84347
 30
0.0
 40
0.00833333
 41
0.00833333
  0
SEQEND
 8
0
  0
POLYLINE
  8
0
 62
     7
 66
     1
 10
0
 20
0
 30
0.0
 70
     1
 40
0
 41
0
  0
VERTEX
  8
0
 10
4.93892
 20
6.55192
 30
0.0
 40
0
 41
0
  0
VERTEX
  8
0
 10
4.93246
 20
6.55192
 30
0.0
 40
0
 41
0
  0
VERTEX
  8
0
 10
4.91308
 20
6.56261
 30
0.0
 40
0
 41
0
  0
VERTEX
  8
0
 10
4.90246
 20
6.58197
 30
0.0
 40
0
 41
0
  0
VERTEX
  8
0
 10
4.90246
 20
6.58838
 30
0.0
 40
0
 41
0
  0
VERTEX
  8
0
 10
4.90246
 20
6.59483
 30
0.0
 40
0
 41
0
  0
VERTEX
  8
0
 10
4.91308
 20
6.61421
 30
0.0
 40
0
 41
0
  0
VERTEX
  8
0
 10
4.93246
 20
6.62483
 30
0.0
 40
0
 41
0
  0
VERTEX
  8
0
 10
4.93892
 20
6.62483
 30
0.0
 40
0
 41
0
  0
VERTEX
  8
0
 10
4.94532
 20
6.62483
 30
0.0
 40
0
 41
0
  0
VERTEX
  8
0
 10
4.96468
 20
6.61421
 30
0.0
 40
0
 41
0
  0
VERTEX
  8
0
 10
4.97537
 20
6.59483
 30
0.0
 40
0
 41
0
  0
VERTEX
  8
0
 10
4.97537
 20
6.58838
 30
0.0
 40
0
 41
0
  0
VERTEX
  8
0
 10
4.97537
 20
6.58197
 30
0.0
 40
0
 41
0
  0
VERTEX
  8
0
 10
4.96468
 20
6.56261
 30
0.0
 40
0
 41
0
  0
VERTEX
  8
0
 10
4.94532
 20
6.55192
 30
0.0
 40
0
 41
0
  0
VERTEX
  8
0
 10
4.93892
 20
6.55192
 30
0.0
 40
0
 41
0
  0
SEQEND
 8
0
  0
POLYLINE
  8
0
 62
     0
 66
     1
 10
0
 20
0
 30
0.0
 70
     1
 40
0.6
 41
0.6
  0
VERTEX
  8
0
 10
4.93892
 20
6.55192
 30
0.0
 40
0.00833333
 41
0.00833333
  0
VERTEX
  8
0
 10
4.93246
 20
6.55192
 30
0.0
 40
0.00833333
 41
0.00833333
  0
VERTEX
  8
0
 10
4.91308
 20
6.56261
 30
0.0
 40
0.00833333
 41
0.00833333
  0
VERTEX
  8
0
 10
4.90246
 20
6.58197
 30
0.0
 40
0.00833333
 41
0.00833333
  0
VERTEX
  8
0
 10
4.90246
 20
6.58838
 30
0.0
 40
0.00833333
 41
0.00833333
  0
VERTEX
  8
0
 10
4.90246
 20
6.59483
 30
0.0
 40
0.00833333
 41
0.00833333
  0
VERTEX
  8
0
 10
4.91308
 20
6.61421
 30
0.0
 40
0.00833333
 41
0.00833333
  0
VERTEX
  8
0
 10
4.93246
 20
6.62483
 30
0.0
 40
0.00833333
 41
0.00833333
  0
VERTEX
  8
0
 10
4.93892
 20
6.62483
 30
0.0
 40
0.00833333
 41
0.00833333
  0
VERTEX
  8
0
 10
4.94532
 20
6.62483
 30
0.0
 40
0.00833333
 41
0.00833333
  0
VERTEX
  8
0
 10
4.96468
 20
6.61421
 30
0.0
 40
0.00833333
 41
0.00833333
  0
VERTEX
  8
0
 10
4.97537
 20
6.59483
 30
0.0
 40
0.00833333
 41
0.00833333
  0
VERTEX
  8
0
 10
4.97537
 20
6.58838
 30
0.0
 40
0.00833333
 41
0.00833333
  0
VERTEX
  8
0
 10
4.97537
 20
6.58197
 30
0.0
 40
0.00833333
 41
0.00833333
  0
VERTEX
  8
0
 10
4.96468
 20
6.56261
 30
0.0
 40
0.00833333
 41
0.00833333
  0
VERTEX
  8
0
 10
4.94532
 20
6.55192
 30
0.0
 40
0.00833333
 41
0.00833333
  0
VERTEX
  8
0
 10
4.93892
 20
6.55192
 30
0.0
 40
0.00833333
 41
0.00833333
  0
SEQEND
 8
0
  0
POLYLINE
  8
0
 62
     7
 66
     1
 10
0
 20
0
 30
0.0
 70
     1
 40
0
 41
0
  0
VERTEX
  8
0
 10
4.93892
 20
6.8591
 30
0.0
 40
0
 41
0
  0
VERTEX
  8
0
 10
4.93522
 20
6.8591
 30
0.0
 40
0
 41
0
  0
VERTEX
  8
0
 10
4.92415
 20
6.86524
 30
0.0
 40
0
 41
0
  0
VERTEX
  8
0
 10
4.91808
 20
6.87631
 30
0.0
 40
0
 41
0
  0
VERTEX
  8
0
 10
4.91808
 20
6.87993
 30
0.0
 40
0
 41
0
  0
VERTEX
  8
0
 10
4.91808
 20
6.88363
 30
0.0
 40
0
 41
0
  0
VERTEX
  8
0
 10
4.92415
 20
6.89469
 30
0.0
 40
0
 41
0
  0
VERTEX
  8
0
 10
4.93522
 20
6.90076
 30
0.0
 40
0
 41
0
  0
VERTEX
  8
0
 10
4.93892
 20
6.90076
 30
0.0
 40
0
 41
0
  0
VERTEX
  8
0
 10
4.94254
 20
6.90076
 30
0.0
 40
0
 41
0
  0
VERTEX
  8
0
 10
4.95361
 20
6.89469
 30
0.0
 40
0
 41
0
  0
VERTEX
  8
0
 10
4.95975
 20
6.88363
 30
0.0
 40
0
 41
0
  0
VERTEX
  8
0
 10
4.95975
 20
6.87993
 30
0.0
 40
0
 41
0
  0
VERTEX
  8
0
 10
4.95975
 20
6.87631
 30
0.0
 40
0
 41
0
  0
VERTEX
  8
0
 10
4.95361
 20
6.86524
 30
0.0
 40
0
 41
0
  0
VERTEX
  8
0
 10
4.94254
 20
6.8591
 30
0.0
 40
0
 41
0
  0
VERTEX
  8
0
 10
4.93892
 20
6.8591
 30
0.0
 40
0
 41
0
  0
SEQEND
 8
0
  0
POLYLINE
  8
0
 62
     0
 66
     1
 10
0
 20
0
 30
0.0
 70
     1
 40
0.6
 41
0.6
  0
VERTEX
  8
0
 10
4.93892
 20
6.8591
 30
0.0
 40
0.00833333
 41
0.00833333
  0
VERTEX
  8
0
 10
4.93522
 20
6.8591
 30
0.0
 40
0.00833333
 41
0.00833333
  0
VERTEX
  8
0
 10
4.92415
 20
6.86524
 30
0.0
 40
0.00833333
 41
0.00833333
  0
VERTEX
  8
0
 10
4.91808
 20
6.87631
 30
0.0
 40
0.00833333
 41
0.00833333
  0
VERTEX
  8
0
 10
4.91808
 20
6.87993
 30
0.0
 40
0.00833333
 41
0.00833333
  0
VERTEX
  8
0
 10
4.91808
 20
6.88363
 30
0.0
 40
0.00833333
 41
0.00833333
  0
VERTEX
  8
0
 10
4.92415
 20
6.89469
 30
0.0
 40
0.00833333
 41
0.00833333
  0
VERTEX
  8
0
 10
4.93522
 20
6.90076
 30
0.0
 40
0.00833333
 41
0.00833333
  0
VERTEX
  8
0
 10
4.93892
 20
6.90076
 30
0.0
 40
0.00833333
 41
0.00833333
  0
VERTEX
  8
0
 10
4.94254
 20
6.90076
 30
0.0
 40
0.00833333
 41
0.00833333
  0
VERTEX
  8
0
 10
4.95361
 20
6.89469
 30
0.0
 40
0.00833333
 41
0.00833333
  0
VERTEX
  8
0
 10
4.95975
 20
6.88363
 30
0.0
 40
0.00833333
 41
0.00833333
  0
VERTEX
  8
0
 10
4.95975
 20
6.87993
 30
0.0
 40
0.00833333
 41
0.00833333
  0
VERTEX
  8
0
 10
4.95975
 20
6.87631
 30
0.0
 40
0.00833333
 41
0.00833333
  0
VERTEX
  8
0
 10
4.95361
 20
6.86524
 30
0.0
 40
0.00833333
 41
0.00833333
  0
VERTEX
  8
0
 10
4.94254
 20
6.8591
 30
0.0
 40
0.00833333
 41
0.00833333
  0
VERTEX
  8
0
 10
4.93892
 20
6.8591
 30
0.0
 40
0.00833333
 41
0.00833333
  0
SEQEND
 8
0
  0
POLYLINE
  8
0
 62
     7
 66
     1
 10
0
 20
0
 30
0.0
 70
     1
 40
0
 41
0
  0
VERTEX
  8
0
 10
4.93892
 20
6.56754
 30
0.0
 40
0
 41
0
  0
VERTEX
  8
0
 10
4.93522
 20
6.56754
 30
0.0
 40
0
 41
0
  0
VERTEX
  8
0
 10
4.92415
 20
6.57368
 30
0.0
 40
0
 41
0
  0
VERTEX
  8
0
 10
4.91808
 20
6.58475
 30
0.0
 40
0
 41
0
  0
VERTEX
  8
0
 10
4.91808
 20
6.58838
 30
0.0
 40
0
 41
0
  0
VERTEX
  8
0
 10
4.91808
 20
6.59207
 30
0.0
 40
0
 41
0
  0
VERTEX
  8
0
 10
4.92415
 20
6.60314
 30
0.0
 40
0
 41
0
  0
VERTEX
  8
0
 10
4.93522
 20
6.60921
 30
0.0
 40
0
 41
0
  0
VERTEX
  8
0
 10
4.93892
 20
6.60921
 30
0.0
 40
0
 41
0
  0
VERTEX
  8
0
 10
4.94254
 20
6.60921
 30
0.0
 40
0
 41
0
  0
VERTEX
  8
0
 10
4.95361
 20
6.60314
 30
0.0
 40
0
 41
0
  0
VERTEX
  8
0
 10
4.95975
 20
6.59207
 30
0.0
 40
0
 41
0
  0
VERTEX
  8
0
 10
4.95975
 20
6.58838
 30
0.0
 40
0
 41
0
  0
VERTEX
  8
0
 10
4.95975
 20
6.58475
 30
0.0
 40
0
 41
0
  0
VERTEX
  8
0
 10
4.95361
 20
6.57368
 30
0.0
 40
0
 41
0
  0
VERTEX
  8
0
 10
4.94254
 20
6.56754
 30
0.0
 40
0
 41
0
  0
VERTEX
  8
0
 10
4.93892
 20
6.56754
 30
0.0
 40
0
 41
0
  0
SEQEND
 8
0
  0
POLYLINE
  8
0
 62
     0
 66
     1
 10
0
 20
0
 30
0.0
 70
     1
 40
0.6
 41
0.6
  0
VERTEX
  8
0
 10
4.93892
 20
6.56754
 30
0.0
 40
0.00833333
 41
0.00833333
  0
VERTEX
  8
0
 10
4.93522
 20
6.56754
 30
0.0
 40
0.00833333
 41
0.00833333
  0
VERTEX
  8
0
 10
4.92415
 20
6.57368
 30
0.0
 40
0.00833333
 41
0.00833333
  0
VERTEX
  8
0
 10
4.91808
 20
6.58475
 30
0.0
 40
0.00833333
 41
0.00833333
  0
VERTEX
  8
0
 10
4.91808
 20
6.58838
 30
0.0
 40
0.00833333
 41
0.00833333
  0
VERTEX
  8
0
 10
4.91808
 20
6.59207
 30
0.0
 40
0.00833333
 41
0.00833333
  0
VERTEX
  8
0
 10
4.92415
 20
6.60314
 30
0.0
 40
0.00833333
 41
0.00833333
  0
VERTEX
  8
0
 10
4.93522
 20
6.60921
 30
0.0
 40
0.00833333
 41
0.00833333
  0
VERTEX
  8
0
 10
4.93892
 20
6.60921
 30
0.0
 40
0.00833333
 41
0.00833333
  0
VERTEX
  8
0
 10
4.94254
 20
6.60921
 30
0.0
 40
0.00833333
 41
0.00833333
  0
VERTEX
  8
0
 10
4.95361
 20
6.60314
 30
0.0
 40
0.00833333
 41
0.00833333
  0
VERTEX
  8
0
 10
4.95975
 20
6.59207
 30
0.0
 40
0.00833333
 41
0.00833333
  0
VERTEX
  8
0
 10
4.95975
 20
6.58838
 30
0.0
 40
0.00833333
 41
0.00833333
  0
VERTEX
  8
0
 10
4.95975
 20
6.58475
 30
0.0
 40
0.00833333
 41
0.00833333
  0
VERTEX
  8
0
 10
4.95361
 20
6.57368
 30
0.0
 40
0.00833333
 41
0.00833333
  0
VERTEX
  8
0
 10
4.94254
 20
6.56754
 30
0.0
 40
0.00833333
 41
0.00833333
  0
VERTEX
  8
0
 10
4.93892
 20
6.56754
 30
0.0
 40
0.00833333
 41
0.00833333
  0
SEQEND
 8
0
  0
POLYLINE
  8
0
 62
     7
 66
     1
 10
0
 20
0
 30
0.0
 70
     1
 40
0
 41
0
  0
VERTEX
  8
0
 10
5.05886
 20
6.72006
 30
0.0
 40
0
 41
0
  0
VERTEX
  8
0
 10
5.20469
 20
6.72006
 30
0.0
 40
0
 41
0
  0
VERTEX
  8
0
 10
5.20469
 20
6.65756
 30
0.0
 40
0
 41
0
  0
VERTEX
  8
0
 10
5.05886
 20
6.65756
 30
0.0
 40
0
 41
0
  0
VERTEX
  8
0
 10
5.05886
 20
6.72006
 30
0.0
 40
0
 41
0
  0
SEQEND
 8
0
  0
POLYLINE
  8
0
 62
     0
 66
     1
 10
0
 20
0
 30
0.0
 70
     1
 40
0.75
 41
0.75
  0
VERTEX
  8
0
 10
5.05886
 20
6.72006
 30
0.0
 40
0.0104167
 41
0.0104167
  0
VERTEX
  8
0
 10
5.05886
 20
6.65756
 30
0.0
 40
0.0104167
 41
0.0104167
  0
VERTEX
  8
0
 10
5.20469
 20
6.65756
 30
0.0
 40
0.0104167
 41
0.0104167
  0
VERTEX
  8
0
 10
5.20469
 20
6.72006
 30
0.0
 40
0.0104167
 41
0.0104167
  0
VERTEX
  8
0
 10
5.05886
 20
6.72006
 30
0.0
 40
0.0104167
 41
0.0104167
  0
SEQEND
 8
0
  0
POLYLINE
  8
0
 62
     7
 66
     1
 10
0
 20
0
 30
0.0
 70
     1
 40
0
 41
0
  0
VERTEX
  8
0
 10
4.65771
 20
7.70643
 30
0.0
 40
0
 41
0
  0
VERTEX
  8
0
 10
5.27669
 20
7.70643
 30
0.0
 40
0
 41
0
  0
VERTEX
  8
0
 10
5.27669
 20
7.17144
 30
0.0
 40
0
 41
0
  0
VERTEX
  8
0
 10
4.65771
 20
7.17144
 30
0.0
 40
0
 41
0
  0
VERTEX
  8
0
 10
4.65771
 20
7.70643
 30
0.0
 40
0
 41
0
  0
SEQEND
 8
0
  0
POLYLINE
  8
0
 62
     0
 66
     1
 10
0
 20
0
 30
0.0
 70
     1
 40
0.75
 41
0.75
  0
VERTEX
  8
0
 10
4.65771
 20
7.70643
 30
0.0
 40
0.0104167
 41
0.0104167
  0
VERTEX
  8
0
 10
4.65771
 20
7.17144
 30
0.0
 40
0.0104167
 41
0.0104167
  0
VERTEX
  8
0
 10
5.27669
 20
7.17144
 30
0.0
 40
0.0104167
 41
0.0104167
  0
VERTEX
  8
0
 10
5.27669
 20
7.70643
 30
0.0
 40
0.0104167
 41
0.0104167
  0
VERTEX
  8
0
 10
4.65771
 20
7.70643
 30
0.0
 40
0.0104167
 41
0.0104167
  0
SEQEND
 8
0
  0
POLYLINE
  8
0
 62
     7
 66
     1
 10
0
 20
0
 30
0.0
 70
     1
 40
0
 41
0
  0
VERTEX
  8
0
 10
5.12099
 20
7.49061
 30
0.0
 40
0
 41
0
  0
VERTEX
  8
0
 10
5.11285
 20
7.49061
 30
0.0
 40
0
 41
0
  0
VERTEX
  8
0
 10
5.08854
 20
7.49718
 30
0.0
 40
0
 41
0
  0
VERTEX
  8
0
 10
5.06207
 20
7.51503
 30
0.0
 40
0
 41
0
  0
VERTEX
  8
0
 10
5.04417
 20
7.54156
 30
0.0
 40
0
 41
0
  0
VERTEX
  8
0
 10
5.03765
 20
7.56586
 30
0.0
 40
0
 41
0
  0
VERTEX
  8
0
 10
5.03765
 20
7.57394
 30
0.0
 40
0
 41
0
  0
VERTEX
  8
0
 10
5.03765
 20
7.58208
 30
0.0
 40
0
 41
0
  0
VERTEX
  8
0
 10
5.04417
 20
7.60644
 30
0.0
 40
0
 41
0
  0
VERTEX
  8
0
 10
5.06207
 20
7.63292
 30
0.0
 40
0
 41
0
  0
VERTEX
  8
0
 10
5.08854
 20
7.65076
 30
0.0
 40
0
 41
0
  0
VERTEX
  8
0
 10
5.11285
 20
7.65728
 30
0.0
 40
0
 41
0
  0
VERTEX
  8
0
 10
5.12099
 20
7.65728
 30
0.0
 40
0
 41
0
  0
VERTEX
  8
0
 10
5.12907
 20
7.65728
 30
0.0
 40
0
 41
0
  0
VERTEX
  8
0
 10
5.15343
 20
7.65076
 30
0.0
 40
0
 41
0
  0
VERTEX
  8
0
 10
5.1799
 20
7.63292
 30
0.0
 40
0
 41
0
  0
VERTEX
  8
0
 10
5.19775
 20
7.60644
 30
0.0
 40
0
 41
0
  0
VERTEX
  8
0
 10
5.20432
 20
7.58208
 30
0.0
 40
0
 41
0
  0
VERTEX
  8
0
 10
5.20432
 20
7.57394
 30
0.0
 40
0
 41
0
  0
VERTEX
  8
0
 10
5.20432
 20
7.56586
 30
0.0
 40
0
 41
0
  0
VERTEX
  8
0
 10
5.19775
 20
7.54156
 30
0.0
 40
0
 41
0
  0
VERTEX
  8
0
 10
5.1799
 20
7.51503
 30
0.0
 40
0
 41
0
  0
VERTEX
  8
0
 10
5.15343
 20
7.49718
 30
0.0
 40
0
 41
0
  0
VERTEX
  8
0
 10
5.12907
 20
7.49061
 30
0.0
 40
0
 41
0
  0
VERTEX
  8
0
 10
5.12099
 20
7.49061
 30
0.0
 40
0
 41
0
  0
SEQEND
 8
0
  0
POLYLINE
  8
0
 62
     0
 66
     1
 10
0
 20
0
 30
0.0
 70
     1
 40
0.75
 41
0.75
  0
VERTEX
  8
0
 10
5.12099
 20
7.49061
 30
0.0
 40
0.0104167
 41
0.0104167
  0
VERTEX
  8
0
 10
5.11285
 20
7.49061
 30
0.0
 40
0.0104167
 41
0.0104167
  0
VERTEX
  8
0
 10
5.08854
 20
7.49718
 30
0.0
 40
0.0104167
 41
0.0104167
  0
VERTEX
  8
0
 10
5.06207
 20
7.51503
 30
0.0
 40
0.0104167
 41
0.0104167
  0
VERTEX
  8
0
 10
5.04417
 20
7.54156
 30
0.0
 40
0.0104167
 41
0.0104167
  0
VERTEX
  8
0
 10
5.03765
 20
7.56586
 30
0.0
 40
0.0104167
 41
0.0104167
  0
VERTEX
  8
0
 10
5.03765
 20
7.57394
 30
0.0
 40
0.0104167
 41
0.0104167
  0
VERTEX
  8
0
 10
5.03765
 20
7.58208
 30
0.0
 40
0.0104167
 41
0.0104167
  0
VERTEX
  8
0
 10
5.04417
 20
7.60644
 30
0.0
 40
0.0104167
 41
0.0104167
  0
VERTEX
  8
0
 10
5.06207
 20
7.63292
 30
0.0
 40
0.0104167
 41
0.0104167
  0
VERTEX
  8
0
 10
5.08854
 20
7.65076
 30
0.0
 40
0.0104167
 41
0.0104167
  0
VERTEX
  8
0
 10
5.11285
 20
7.65728
 30
0.0
 40
0.0104167
 41
0.0104167
  0
VERTEX
  8
0
 10
5.12099
 20
7.65728
 30
0.0
 40
0.0104167
 41
0.0104167
  0
VERTEX
  8
0
 10
5.12907
 20
7.65728
 30
0.0
 40
0.0104167
 41
0.0104167
  0
VERTEX
  8
0
 10
5.15343
 20
7.65076
 30
0.0
 40
0.0104167
 41
0.0104167
  0
VERTEX
  8
0
 10
5.1799
 20
7.63292
 30
0.0
 40
0.0104167
 41
0.0104167
  0
VERTEX
  8
0
 10
5.19775
 20
7.60644
 30
0.0
 40
0.0104167
 41
0.0104167
  0
VERTEX
  8
0
 10
5.20432
 20
7.58208
 30
0.0
 40
0.0104167
 41
0.0104167
  0
VERTEX
  8
0
 10
5.20432
 20
7.57394
 30
0.0
 40
0.0104167
 41
0.0104167
  0
VERTEX
  8
0
 10
5.20432
 20
7.56586
 30
0.0
 40
0.0104167
 41
0.0104167
  0
VERTEX
  8
0
 10
5.19775
 20
7.54156
 30
0.0
 40
0.0104167
 41
0.0104167
  0
VERTEX
  8
0
 10
5.1799
 20
7.51503
 30
0.0
 40
0.0104167
 41
0.0104167
  0
VERTEX
  8
0
 10
5.15343
 20
7.49718
 30
0.0
 40
0.0104167
 41
0.0104167
  0
VERTEX
  8
0
 10
5.12907
 20
7.49061
 30
0.0
 40
0.0104167
 41
0.0104167
  0
VERTEX
  8
0
 10
5.12099
 20
7.49061
 30
0.0
 40
0.0104167
 41
0.0104167
  0
SEQEND
 8
0
  0
POLYLINE
  8
0
 62
     7
 66
     1
 10
0
 20
0
 30
0.0
 70
     1
 40
0
 41
0
  0
VERTEX
  8
0
 10
5.12099
 20
7.22233
 30
0.0
 40
0
 41
0
  0
VERTEX
  8
0
 10
5.11285
 20
7.22233
 30
0.0
 40
0
 41
0
  0
VERTEX
  8
0
 10
5.08854
 20
7.22889
 30
0.0
 40
0
 41
0
  0
VERTEX
  8
0
 10
5.06207
 20
7.24675
 30
0.0
 40
0
 41
0
  0
VERTEX
  8
0
 10
5.04417
 20
7.27322
 30
0.0
 40
0
 41
0
  0
VERTEX
  8
0
 10
5.03765
 20
7.29758
 30
0.0
 40
0
 41
0
  0
VERTEX
  8
0
 10
5.03765
 20
7.30567
 30
0.0
 40
0
 41
0
  0
VERTEX
  8
0
 10
5.03765
 20
7.31381
 30
0.0
 40
0
 41
0
  0
VERTEX
  8
0
 10
5.04417
 20
7.33811
 30
0.0
 40
0
 41
0
  0
VERTEX
  8
0
 10
5.06207
 20
7.36458
 30
0.0
 40
0
 41
0
  0
VERTEX
  8
0
 10
5.08854
 20
7.38249
 30
0.0
 40
0
 41
0
  0
VERTEX
  8
0
 10
5.11285
 20
7.389
 30
0.0
 40
0
 41
0
  0
VERTEX
  8
0
 10
5.12099
 20
7.389
 30
0.0
 40
0
 41
0
  0
VERTEX
  8
0
 10
5.12907
 20
7.389
 30
0.0
 40
0
 41
0
  0
VERTEX
  8
0
 10
5.15343
 20
7.38249
 30
0.0
 40
0
 41
0
  0
VERTEX
  8
0
 10
5.1799
 20
7.36458
 30
0.0
 40
0
 41
0
  0
VERTEX
  8
0
 10
5.19775
 20
7.33811
 30
0.0
 40
0
 41
0
  0
VERTEX
  8
0
 10
5.20432
 20
7.31381
 30
0.0
 40
0
 41
0
  0
VERTEX
  8
0
 10
5.20432
 20
7.30567
 30
0.0
 40
0
 41
0
  0
VERTEX
  8
0
 10
5.20432
 20
7.29758
 30
0.0
 40
0
 41
0
  0
VERTEX
  8
0
 10
5.19775
 20
7.27322
 30
0.0
 40
0
 41
0
  0
VERTEX
  8
0
 10
5.1799
 20
7.24675
 30
0.0
 40
0
 41
0
  0
VERTEX
  8
0
 10
5.15343
 20
7.22889
 30
0.0
 40
0
 41
0
  0
VERTEX
  8
0
 10
5.12907
 20
7.22233
 30
0.0
 40
0
 41
0
  0
VERTEX
  8
0
 10
5.12099
 20
7.22233
 30
0.0
 40
0
 41
0
  0
SEQEND
 8
0
  0
POLYLINE
  8
0
 62
     0
 66
     1
 10
0
 20
0
 30
0.0
 70
     1
 40
0.75
 41
0.75
  0
VERTEX
  8
0
 10
5.12099
 20
7.22233
 30
0.0
 40
0.0104167
 41
0.0104167
  0
VERTEX
  8
0
 10
5.11285
 20
7.22233
 30
0.0
 40
0.0104167
 41
0.0104167
  0
VERTEX
  8
0
 10
5.08854
 20
7.22889
 30
0.0
 40
0.0104167
 41
0.0104167
  0
VERTEX
  8
0
 10
5.06207
 20
7.24675
 30
0.0
 40
0.0104167
 41
0.0104167
  0
VERTEX
  8
0
 10
5.04417
 20
7.27322
 30
0.0
 40
0.0104167
 41
0.0104167
  0
VERTEX
  8
0
 10
5.03765
 20
7.29758
 30
0.0
 40
0.0104167
 41
0.0104167
  0
VERTEX
  8
0
 10
5.03765
 20
7.30567
 30
0.0
 40
0.0104167
 41
0.0104167
  0
VERTEX
  8
0
 10
5.03765
 20
7.31381
 30
0.0
 40
0.0104167
 41
0.0104167
  0
VERTEX
  8
0
 10
5.04417
 20
7.33811
 30
0.0
 40
0.0104167
 41
0.0104167
  0
VERTEX
  8
0
 10
5.06207
 20
7.36458
 30
0.0
 40
0.0104167
 41
0.0104167
  0
VERTEX
  8
0
 10
5.08854
 20
7.38249
 30
0.0
 40
0.0104167
 41
0.0104167
  0
VERTEX
  8
0
 10
5.11285
 20
7.389
 30
0.0
 40
0.0104167
 41
0.0104167
  0
VERTEX
  8
0
 10
5.12099
 20
7.389
 30
0.0
 40
0.0104167
 41
0.0104167
  0
VERTEX
  8
0
 10
5.12907
 20
7.389
 30
0.0
 40
0.0104167
 41
0.0104167
  0
VERTEX
  8
0
 10
5.15343
 20
7.38249
 30
0.0
 40
0.0104167
 41
0.0104167
  0
VERTEX
  8
0
 10
5.1799
 20
7.36458
 30
0.0
 40
0.0104167
 41
0.0104167
  0
VERTEX
  8
0
 10
5.19775
 20
7.33811
 30
0.0
 40
0.0104167
 41
0.0104167
  0
VERTEX
  8
0
 10
5.20432
 20
7.31381
 30
0.0
 40
0.0104167
 41
0.0104167
  0
VERTEX
  8
0
 10
5.20432
 20
7.30567
 30
0.0
 40
0.0104167
 41
0.0104167
  0
VERTEX
  8
0
 10
5.20432
 20
7.29758
 30
0.0
 40
0.0104167
 41
0.0104167
  0
VERTEX
  8
0
 10
5.19775
 20
7.27322
 30
0.0
 40
0.0104167
 41
0.0104167
  0
VERTEX
  8
0
 10
5.1799
 20
7.24675
 30
0.0
 40
0.0104167
 41
0.0104167
  0
VERTEX
  8
0
 10
5.15343
 20
7.22889
 30
0.0
 40
0.0104167
 41
0.0104167
  0
VERTEX
  8
0
 10
5.12907
 20
7.22233
 30
0.0
 40
0.0104167
 41
0.0104167
  0
VERTEX
  8
0
 10
5.12099
 20
7.22233
 30
0.0
 40
0.0104167
 41
0.0104167
  0
SEQEND
 8
0
  0
POLYLINE
  8
0
 62
     7
 66
     1
 10
0
 20
0
 30
0.0
 70
     1
 40
0
 41
0
  0
VERTEX
  8
0
 10
4.81218
 20
7.49061
 30
0.0
 40
0
 41
0
  0
VERTEX
  8
0
 10
4.80404
 20
7.49061
 30
0.0
 40
0
 41
0
  0
VERTEX
  8
0
 10
4.77968
 20
7.49718
 30
0.0
 40
0
 41
0
  0
VERTEX
  8
0
 10
4.75319
 20
7.51503
 30
0.0
 40
0
 41
0
  0
VERTEX
  8
0
 10
4.73535
 20
7.54156
 30
0.0
 40
0
 41
0
  0
VERTEX
  8
0
 10
4.72885
 20
7.56586
 30
0.0
 40
0
 41
0
  0
VERTEX
  8
0
 10
4.72885
 20
7.57394
 30
0.0
 40
0
 41
0
  0
VERTEX
  8
0
 10
4.72885
 20
7.58208
 30
0.0
 40
0
 41
0
  0
VERTEX
  8
0
 10
4.73535
 20
7.60644
 30
0.0
 40
0
 41
0
  0
VERTEX
  8
0
 10
4.75319
 20
7.63292
 30
0.0
 40
0
 41
0
  0
VERTEX
  8
0
 10
4.77968
 20
7.65076
 30
0.0
 40
0
 41
0
  0
VERTEX
  8
0
 10
4.80404
 20
7.65728
 30
0.0
 40
0
 41
0
  0
VERTEX
  8
0
 10
4.81218
 20
7.65728
 30
0.0
 40
0
 41
0
  0
VERTEX
  8
0
 10
4.82026
 20
7.65728
 30
0.0
 40
0
 41
0
  0
VERTEX
  8
0
 10
4.84457
 20
7.65076
 30
0.0
 40
0
 41
0
  0
VERTEX
  8
0
 10
4.8711
 20
7.63292
 30
0.0
 40
0
 41
0
  0
VERTEX
  8
0
 10
4.88894
 20
7.60644
 30
0.0
 40
0
 41
0
  0
VERTEX
  8
0
 10
4.89551
 20
7.58208
 30
0.0
 40
0
 41
0
  0
VERTEX
  8
0
 10
4.89551
 20
7.57394
 30
0.0
 40
0
 41
0
  0
VERTEX
  8
0
 10
4.89551
 20
7.56586
 30
0.0
 40
0
 41
0
  0
VERTEX
  8
0
 10
4.88894
 20
7.54156
 30
0.0
 40
0
 41
0
  0
VERTEX
  8
0
 10
4.8711
 20
7.51503
 30
0.0
 40
0
 41
0
  0
VERTEX
  8
0
 10
4.84457
 20
7.49718
 30
0.0
 40
0
 41
0
  0
VERTEX
  8
0
 10
4.82026
 20
7.49061
 30
0.0
 40
0
 41
0
  0
VERTEX
  8
0
 10
4.81218
 20
7.49061
 30
0.0
 40
0
 41
0
  0
SEQEND
 8
0
  0
POLYLINE
  8
0
 62
     0
 66
     1
 10
0
 20
0
 30
0.0
 70
     1
 40
0.75
 41
0.75
  0
VERTEX
  8
0
 10
4.81218
 20
7.49061
 30
0.0
 40
0.0104167
 41
0.0104167
  0
VERTEX
  8
0
 10
4.80404
 20
7.49061
 30
0.0
 40
0.0104167
 41
0.0104167
  0
VERTEX
  8
0
 10
4.77968
 20
7.49718
 30
0.0
 40
0.0104167
 41
0.0104167
  0
VERTEX
  8
0
 10
4.75319
 20
7.51503
 30
0.0
 40
0.0104167
 41
0.0104167
  0
VERTEX
  8
0
 10
4.73535
 20
7.54156
 30
0.0
 40
0.0104167
 41
0.0104167
  0
VERTEX
  8
0
 10
4.72885
 20
7.56586
 30
0.0
 40
0.0104167
 41
0.0104167
  0
VERTEX
  8
0
 10
4.72885
 20
7.57394
 30
0.0
 40
0.0104167
 41
0.0104167
  0
VERTEX
  8
0
 10
4.72885
 20
7.58208
 30
0.0
 40
0.0104167
 41
0.0104167
  0
VERTEX
  8
0
 10
4.73535
 20
7.60644
 30
0.0
 40
0.0104167
 41
0.0104167
  0
VERTEX
  8
0
 10
4.75319
 20
7.63292
 30
0.0
 40
0.0104167
 41
0.0104167
  0
VERTEX
  8
0
 10
4.77968
 20
7.65076
 30
0.0
 40
0.0104167
 41
0.0104167
  0
VERTEX
  8
0
 10
4.80404
 20
7.65728
 30
0.0
 40
0.0104167
 41
0.0104167
  0
VERTEX
  8
0
 10
4.81218
 20
7.65728
 30
0.0
 40
0.0104167
 41
0.0104167
  0
VERTEX
  8
0
 10
4.82026
 20
7.65728
 30
0.0
 40
0.0104167
 41
0.0104167
  0
VERTEX
  8
0
 10
4.84457
 20
7.65076
 30
0.0
 40
0.0104167
 41
0.0104167
  0
VERTEX
  8
0
 10
4.8711
 20
7.63292
 30
0.0
 40
0.0104167
 41
0.0104167
  0
VERTEX
  8
0
 10
4.88894
 20
7.60644
 30
0.0
 40
0.0104167
 41
0.0104167
  0
VERTEX
  8
0
 10
4.89551
 20
7.58208
 30
0.0
 40
0.0104167
 41
0.0104167
  0
VERTEX
  8
0
 10
4.89551
 20
7.57394
 30
0.0
 40
0.0104167
 41
0.0104167
  0
VERTEX
  8
0
 10
4.89551
 20
7.56586
 30
0.0
 40
0.0104167
 41
0.0104167
  0
VERTEX
  8
0
 10
4.88894
 20
7.54156
 30
0.0
 40
0.0104167
 41
0.0104167
  0
VERTEX
  8
0
 10
4.8711
 20
7.51503
 30
0.0
 40
0.0104167
 41
0.0104167
  0
VERTEX
  8
0
 10
4.84457
 20
7.49718
 30
0.0
 40
0.0104167
 41
0.0104167
  0
VERTEX
  8
0
 10
4.82026
 20
7.49061
 30
0.0
 40
0.0104167
 41
0.0104167
  0
VERTEX
  8
0
 10
4.81218
 20
7.49061
 30
0.0
 40
0.0104167
 41
0.0104167
  0
SEQEND
 8
0
  0
POLYLINE
  8
0
 62
     7
 66
     1
 10
0
 20
0
 30
0.0
 70
     1
 40
0
 41
0
  0
VERTEX
  8
0
 10
4.81218
 20
7.22233
 30
0.0
 40
0
 41
0
  0
VERTEX
  8
0
 10
4.80404
 20
7.22233
 30
0.0
 40
0
 41
0
  0
VERTEX
  8
0
 10
4.77968
 20
7.22889
 30
0.0
 40
0
 41
0
  0
VERTEX
  8
0
 10
4.75319
 20
7.24675
 30
0.0
 40
0
 41
0
  0
VERTEX
  8
0
 10
4.73535
 20
7.27322
 30
0.0
 40
0
 41
0
  0
VERTEX
  8
0
 10
4.72885
 20
7.29758
 30
0.0
 40
0
 41
0
  0
VERTEX
  8
0
 10
4.72885
 20
7.30567
 30
0.0
 40
0
 41
0
  0
VERTEX
  8
0
 10
4.72885
 20
7.31381
 30
0.0
 40
0
 41
0
  0
VERTEX
  8
0
 10
4.73535
 20
7.33811
 30
0.0
 40
0
 41
0
  0
VERTEX
  8
0
 10
4.75319
 20
7.36458
 30
0.0
 40
0
 41
0
  0
VERTEX
  8
0
 10
4.77968
 20
7.38249
 30
0.0
 40
0
 41
0
  0
VERTEX
  8
0
 10
4.80404
 20
7.389
 30
0.0
 40
0
 41
0
  0
VERTEX
  8
0
 10
4.81218
 20
7.389
 30
0.0
 40
0
 41
0
  0
VERTEX
  8
0
 10
4.82026
 20
7.389
 30
0.0
 40
0
 41
0
  0
VERTEX
  8
0
 10
4.84457
 20
7.38249
 30
0.0
 40
0
 41
0
  0
VERTEX
  8
0
 10
4.8711
 20
7.36458
 30
0.0
 40
0
 41
0
  0
VERTEX
  8
0
 10
4.88894
 20
7.33811
 30
0.0
 40
0
 41
0
  0
VERTEX
  8
0
 10
4.89551
 20
7.31381
 30
0.0
 40
0
 41
0
  0
VERTEX
  8
0
 10
4.89551
 20
7.30567
 30
0.0
 40
0
 41
0
  0
VERTEX
  8
0
 10
4.89551
 20
7.29758
 30
0.0
 40
0
 41
0
  0
VERTEX
  8
0
 10
4.88894
 20
7.27322
 30
0.0
 40
0
 41
0
  0
VERTEX
  8
0
 10
4.8711
 20
7.24675
 30
0.0
 40
0
 41
0
  0
VERTEX
  8
0
 10
4.84457
 20
7.22889
 30
0.0
 40
0
 41
0
  0
VERTEX
  8
0
 10
4.82026
 20
7.22233
 30
0.0
 40
0
 41
0
  0
VERTEX
  8
0
 10
4.81218
 20
7.22233
 30
0.0
 40
0
 41
0
  0
SEQEND
 8
0
  0
POLYLINE
  8
0
 62
     0
 66
     1
 10
0
 20
0
 30
0.0
 70
     1
 40
0.75
 41
0.75
  0
VERTEX
  8
0
 10
4.81218
 20
7.22233
 30
0.0
 40
0.0104167
 41
0.0104167
  0
VERTEX
  8
0
 10
4.80404
 20
7.22233
 30
0.0
 40
0.0104167
 41
0.0104167
  0
VERTEX
  8
0
 10
4.77968
 20
7.22889
 30
0.0
 40
0.0104167
 41
0.0104167
  0
VERTEX
  8
0
 10
4.75319
 20
7.24675
 30
0.0
 40
0.0104167
 41
0.0104167
  0
VERTEX
  8
0
 10
4.73535
 20
7.27322
 30
0.0
 40
0.0104167
 41
0.0104167
  0
VERTEX
  8
0
 10
4.72885
 20
7.29758
 30
0.0
 40
0.0104167
 41
0.0104167
  0
VERTEX
  8
0
 10
4.72885
 20
7.30567
 30
0.0
 40
0.0104167
 41
0.0104167
  0
VERTEX
  8
0
 10
4.72885
 20
7.31381
 30
0.0
 40
0.0104167
 41
0.0104167
  0
VERTEX
  8
0
 10
4.73535
 20
7.33811
 30
0.0
 40
0.0104167
 41
0.0104167
  0
VERTEX
  8
0
 10
4.75319
 20
7.36458
 30
0.0
 40
0.0104167
 41
0.0104167
  0
VERTEX
  8
0
 10
4.77968
 20
7.38249
 30
0.0
 40
0.0104167
 41
0.0104167
  0
VERTEX
  8
0
 10
4.80404
 20
7.389
 30
0.0
 40
0.0104167
 41
0.0104167
  0
VERTEX
  8
0
 10
4.81218
 20
7.389
 30
0.0
 40
0.0104167
 41
0.0104167
  0
VERTEX
  8
0
 10
4.82026
 20
7.389
 30
0.0
 40
0.0104167
 41
0.0104167
  0
VERTEX
  8
0
 10
4.84457
 20
7.38249
 30
0.0
 40
0.0104167
 41
0.0104167
  0
VERTEX
  8
0
 10
4.8711
 20
7.36458
 30
0.0
 40
0.0104167
 41
0.0104167
  0
VERTEX
  8
0
 10
4.88894
 20
7.33811
 30
0.0
 40
0.0104167
 41
0.0104167
  0
VERTEX
  8
0
 10
4.89551
 20
7.31381
 30
0.0
 40
0.0104167
 41
0.0104167
  0
VERTEX
  8
0
 10
4.89551
 20
7.30567
 30
0.0
 40
0.0104167
 41
0.0104167
  0
VERTEX
  8
0
 10
4.89551
 20
7.29758
 30
0.0
 40
0.0104167
 41
0.0104167
  0
VERTEX
  8
0
 10
4.88894
 20
7.27322
 30
0.0
 40
0.0104167
 41
0.0104167
  0
VERTEX
  8
0
 10
4.8711
 20
7.24675
 30
0.0
 40
0.0104167
 41
0.0104167
  0
VERTEX
  8
0
 10
4.84457
 20
7.22889
 30
0.0
 40
0.0104167
 41
0.0104167
  0
VERTEX
  8
0
 10
4.82026
 20
7.22233
 30
0.0
 40
0.0104167
 41
0.0104167
  0
VERTEX
  8
0
 10
4.81218
 20
7.22233
 30
0.0
 40
0.0104167
 41
0.0104167
  0
SEQEND
 8
0
  0
POLYLINE
  8
0
 62
     0
 66
     1
 10
0
 20
0
 30
0.0
 70
     1
 40
0.75
 41
0.75
  0
VERTEX
  8
0
 10
5.27881
 20
5.98497
 30
0.0
 40
0.0104167
 41
0.0104167
  0
VERTEX
  8
0
 10
4.97911
 20
5.98508
 30
0.0
 40
0.0104167
 41
0.0104167
  0
VERTEX
  8
0
 10
4.97911
 20
7.17051
 30
0.0
 40
0.0104167
 41
0.0104167
  0
VERTEX
  8
0
 10
4.8016
 20
7.17051
 30
0.0
 40
0.0104167
 41
0.0104167
  0
VERTEX
  8
0
 10
4.8016
 20
7.70606
 30
0.0
 40
0.0104167
 41
0.0104167
  0
VERTEX
  8
0
 10
4.95275
 20
7.70606
 30
0.0
 40
0.0104167
 41
0.0104167
  0
VERTEX
  8
0
 10
4.95275
 20
8.23292
 30
0.0
 40
0.0104167
 41
0.0104167
  0
VERTEX
  8
0
 10
5.27474
 20
8.23292
 30
0.0
 40
0.0104167
 41
0.0104167
  0
VERTEX
  8
0
 10
5.27881
 20
5.98497
 30
0.0
 40
0.0104167
 41
0.0104167
  0
SEQEND
 8
0
  0
POLYLINE
  8
0
 62
     0
 66
     1
 10
0
 20
0
 30
0.0
 70
     1
 40
0
 41
0
  0
VERTEX
  8
0
 10
3.42219
 20
11.4999
 30
0.0
 40
0
 41
0
  0
VERTEX
  8
0
 10
3.60101
 20
11.4999
 30
0.0
 40
0
 41
0
  0
VERTEX
  8
0
 10
3.60101
 20
11.3223
 30
0.0
 40
0
 41
0
  0
VERTEX
  8
0
 10
3.42219
 20
11.3223
 30
0.0
 40
0
 41
0
  0
VERTEX
  8
0
 10
3.42219
 20
11.4999
 30
0.0
 40
0
 41
0
  0
SEQEND
 8
0
  0
ENDSEC
  0
EOF
