  0
SECTION
  2
HEADER
  9
$ACADVER
  1
AC1009
  9
$FILLMODE
 70
 0
  9
$SPLFRAME
 70
 1
  9
$EXTMIN
 10
0
 20
0
 30
0.0
  9
$EXTMAX
 10
41.6667
 20
41.6667
 30
0.0
  0
ENDSEC
  0
SECTION
  2
TABLES
  0
TABLE
  2
LAYER
 70
1
  0
LAYER
  2
0
 70
     0
 62
     7
  6
CONTINUOUS
  0
ENDTAB
  0
ENDSEC
  0
SECTION
  2
ENTITIES
  0
POLYLINE
  8
0
 62
     7
 66
     1
 10
0
 20
0
 30
0.0
 70
     1
 40
0
 41
0
  0
VERTEX
  8
0
 10
11.0722
 20
1.11355
 30
0.0
 40
0
 41
0
  0
VERTEX
  8
0
 10
8.66689
 20
1.11355
 30
0.0
 40
0
 41
0
  0
VERTEX
  8
0
 10
8.66689
 20
1.43397
 30
0.0
 40
0
 41
0
  0
VERTEX
  8
0
 10
8.27647
 20
1.43397
 30
0.0
 40
0
 41
0
  0
VERTEX
  8
0
 10
8.27647
 20
3.60482
 30
0.0
 40
0
 41
0
  0
VERTEX
  8
0
 10
8.16862
 20
3.60482
 30
0.0
 40
0
 41
0
  0
VERTEX
  8
0
 10
8.16862
 20
5.13075
 30
0.0
 40
0
 41
0
  0
VERTEX
  8
0
 10
11.0722
 20
5.13075
 30
0.0
 40
0
 41
0
  0
VERTEX
  8
0
 10
11.0722
 20
1.11355
 30
0.0
 40
0
 41
0
  0
SEQEND
 8
0
  0
POLYLINE
  8
0
 62
     7
 66
     1
 10
0
 20
0
 30
0.0
 70
     1
 40
0.15
 41
0.15
  0
VERTEX
  8
0
 10
11.0722
 20
1.11355
 30
0.0
 40
0.00208333
 41
0.00208333
  0
VERTEX
  8
0
 10
8.66689
 20
1.11355
 30
0.0
 40
0.00208333
 41
0.00208333
  0
VERTEX
  8
0
 10
8.66689
 20
1.43397
 30
0.0
 40
0.00208333
 41
0.00208333
  0
VERTEX
  8
0
 10
8.27647
 20
1.43397
 30
0.0
 40
0.00208333
 41
0.00208333
  0
VERTEX
  8
0
 10
8.27647
 20
3.60482
 30
0.0
 40
0.00208333
 41
0.00208333
  0
VERTEX
  8
0
 10
8.16862
 20
3.60482
 30
0.0
 40
0.00208333
 41
0.00208333
  0
VERTEX
  8
0
 10
8.16862
 20
5.13075
 30
0.0
 40
0.00208333
 41
0.00208333
  0
VERTEX
  8
0
 10
11.0722
 20
5.13075
 30
0.0
 40
0.00208333
 41
0.00208333
  0
VERTEX
  8
0
 10
11.0722
 20
1.11355
 30
0.0
 40
0.00208333
 41
0.00208333
  0
SEQEND
 8
0
  0
TEXT
  8
0
 62
     0
 10
9.46058
 20
2.45236
 30
0.0
 40
0.34375
  1
KK
 50
0
  0
POLYLINE
  8
0
 62
     7
 66
     1
 10
0
 20
0
 30
0.0
 70
     1
 40
0
 41
0
  0
VERTEX
  8
0
 10
14.6431
 20
1.10113
 30
0.0
 40
0
 41
0
  0
VERTEX
  8
0
 10
13.1643
 20
1.10113
 30
0.0
 40
0
 41
0
  0
VERTEX
  8
0
 10
13.1643
 20
3.57747
 30
0.0
 40
0
 41
0
  0
VERTEX
  8
0
 10
11.073
 20
3.57747
 30
0.0
 40
0
 41
0
  0
VERTEX
  8
0
 10
11.073
 20
1.11355
 30
0.0
 40
0
 41
0
  0
VERTEX
  8
0
 10
11.0722
 20
1.11355
 30
0.0
 40
0
 41
0
  0
VERTEX
  8
0
 10
11.0722
 20
5.13075
 30
0.0
 40
0
 41
0
  0
VERTEX
  8
0
 10
14.6431
 20
5.13075
 30
0.0
 40
0
 41
0
  0
VERTEX
  8
0
 10
14.6431
 20
1.10113
 30
0.0
 40
0
 41
0
  0
SEQEND
 8
0
  0
POLYLINE
  8
0
 62
     7
 66
     1
 10
0
 20
0
 30
0.0
 70
     1
 40
0.15
 41
0.15
  0
VERTEX
  8
0
 10
14.6431
 20
1.10113
 30
0.0
 40
0.00208333
 41
0.00208333
  0
VERTEX
  8
0
 10
13.1643
 20
1.10113
 30
0.0
 40
0.00208333
 41
0.00208333
  0
VERTEX
  8
0
 10
13.1643
 20
3.57747
 30
0.0
 40
0.00208333
 41
0.00208333
  0
VERTEX
  8
0
 10
11.073
 20
3.57747
 30
0.0
 40
0.00208333
 41
0.00208333
  0
VERTEX
  8
0
 10
11.073
 20
1.11355
 30
0.0
 40
0.00208333
 41
0.00208333
  0
VERTEX
  8
0
 10
11.0722
 20
1.11355
 30
0.0
 40
0.00208333
 41
0.00208333
  0
VERTEX
  8
0
 10
11.0722
 20
5.13075
 30
0.0
 40
0.00208333
 41
0.00208333
  0
VERTEX
  8
0
 10
14.6431
 20
5.13075
 30
0.0
 40
0.00208333
 41
0.00208333
  0
VERTEX
  8
0
 10
14.6431
 20
1.10113
 30
0.0
 40
0.00208333
 41
0.00208333
  0
SEQEND
 8
0
  0
TEXT
  8
0
 62
     0
 10
13.4671
 20
2.45488
 30
0.0
 40
0.34375
  1
ET
 50
0
  0
POLYLINE
  8
0
 62
     7
 66
     1
 10
0
 20
0
 30
0.0
 70
     1
 40
0
 41
0
  0
VERTEX
  8
0
 10
8.16862
 20
1.43397
 30
0.0
 40
0
 41
0
  0
VERTEX
  8
0
 10
8.16824
 20
1.43397
 30
0.0
 40
0
 41
0
  0
VERTEX
  8
0
 10
8.16824
 20
1.11355
 30
0.0
 40
0
 41
0
  0
VERTEX
  8
0
 10
3.21332
 20
1.11355
 30
0.0
 40
0
 41
0
  0
VERTEX
  8
0
 10
3.21175
 20
1.12033
 30
0.0
 40
0
 41
0
  0
VERTEX
  8
0
 10
3.22217
 20
5.13075
 30
0.0
 40
0
 41
0
  0
VERTEX
  8
0
 10
8.16862
 20
5.13075
 30
0.0
 40
0
 41
0
  0
VERTEX
  8
0
 10
8.16862
 20
1.43397
 30
0.0
 40
0
 41
0
  0
SEQEND
 8
0
  0
POLYLINE
  8
0
 62
     7
 66
     1
 10
0
 20
0
 30
0.0
 70
     1
 40
0.15
 41
0.15
  0
VERTEX
  8
0
 10
8.16862
 20
1.43397
 30
0.0
 40
0.00208333
 41
0.00208333
  0
VERTEX
  8
0
 10
8.16824
 20
1.43397
 30
0.0
 40
0.00208333
 41
0.00208333
  0
VERTEX
  8
0
 10
8.16824
 20
1.11355
 30
0.0
 40
0.00208333
 41
0.00208333
  0
VERTEX
  8
0
 10
3.21332
 20
1.11355
 30
0.0
 40
0.00208333
 41
0.00208333
  0
VERTEX
  8
0
 10
3.21175
 20
1.12033
 30
0.0
 40
0.00208333
 41
0.00208333
  0
VERTEX
  8
0
 10
3.22217
 20
5.13075
 30
0.0
 40
0.00208333
 41
0.00208333
  0
VERTEX
  8
0
 10
8.16862
 20
5.13075
 30
0.0
 40
0.00208333
 41
0.00208333
  0
VERTEX
  8
0
 10
8.16862
 20
1.43397
 30
0.0
 40
0.00208333
 41
0.00208333
  0
SEQEND
 8
0
  0
TEXT
  8
0
 62
     0
 10
5.43881
 20
2.92167
 30
0.0
 40
0.34375
  1
OH
 50
0
  0
POLYLINE
  8
0
 62
     7
 66
     1
 10
0
 20
0
 30
0.0
 70
     1
 40
0
 41
0
  0
VERTEX
  8
0
 10
7.09304
 20
7.04519
 30
0.0
 40
0
 41
0
  0
VERTEX
  8
0
 10
7.09239
 20
7.04519
 30
0.0
 40
0
 41
0
  0
VERTEX
  8
0
 10
7.09239
 20
5.13075
 30
0.0
 40
0
 41
0
  0
VERTEX
  8
0
 10
6.06114
 20
5.13075
 30
0.0
 40
0
 41
0
  0
VERTEX
  8
0
 10
6.06114
 20
5.25331
 30
0.0
 40
0
 41
0
  0
VERTEX
  8
0
 10
3.22217
 20
5.25331
 30
0.0
 40
0
 41
0
  0
VERTEX
  8
0
 10
3.2296
 20
8.34636
 30
0.0
 40
0
 41
0
  0
VERTEX
  8
0
 10
7.09304
 20
8.34636
 30
0.0
 40
0
 41
0
  0
VERTEX
  8
0
 10
7.09304
 20
7.04519
 30
0.0
 40
0
 41
0
  0
SEQEND
 8
0
  0
POLYLINE
  8
0
 62
     7
 66
     1
 10
0
 20
0
 30
0.0
 70
     1
 40
0.15
 41
0.15
  0
VERTEX
  8
0
 10
7.09304
 20
7.04519
 30
0.0
 40
0.00208333
 41
0.00208333
  0
VERTEX
  8
0
 10
7.09239
 20
7.04519
 30
0.0
 40
0.00208333
 41
0.00208333
  0
VERTEX
  8
0
 10
7.09239
 20
5.13075
 30
0.0
 40
0.00208333
 41
0.00208333
  0
VERTEX
  8
0
 10
6.06114
 20
5.13075
 30
0.0
 40
0.00208333
 41
0.00208333
  0
VERTEX
  8
0
 10
6.06114
 20
5.25331
 30
0.0
 40
0.00208333
 41
0.00208333
  0
VERTEX
  8
0
 10
3.22217
 20
5.25331
 30
0.0
 40
0.00208333
 41
0.00208333
  0
VERTEX
  8
0
 10
3.2296
 20
8.34636
 30
0.0
 40
0.00208333
 41
0.00208333
  0
VERTEX
  8
0
 10
7.09304
 20
8.34636
 30
0.0
 40
0.00208333
 41
0.00208333
  0
VERTEX
  8
0
 10
7.09304
 20
7.04519
 30
0.0
 40
0.00208333
 41
0.00208333
  0
SEQEND
 8
0
  0
TEXT
  8
0
 62
     0
 10
4.84739
 20
6.67499
 30
0.0
 40
0.34375
  1
MH
 50
0
  0
POLYLINE
  8
0
 62
     7
 66
     1
 10
0
 20
0
 30
0.0
 70
     1
 40
0
 41
0
  0
VERTEX
  8
0
 10
13.1764
 20
5.8374
 30
0.0
 40
0
 41
0
  0
VERTEX
  8
0
 10
13.0706
 20
5.8374
 30
0.0
 40
0
 41
0
  0
VERTEX
  8
0
 10
13.0706
 20
5.23654
 30
0.0
 40
0
 41
0
  0
VERTEX
  8
0
 10
11.1816
 20
5.23654
 30
0.0
 40
0
 41
0
  0
VERTEX
  8
0
 10
11.1816
 20
8.34636
 30
0.0
 40
0
 41
0
  0
VERTEX
  8
0
 10
14.6431
 20
8.34636
 30
0.0
 40
0
 41
0
  0
VERTEX
  8
0
 10
14.6431
 20
5.13075
 30
0.0
 40
0
 41
0
  0
VERTEX
  8
0
 10
13.1764
 20
5.13075
 30
0.0
 40
0
 41
0
  0
VERTEX
  8
0
 10
13.1764
 20
5.8374
 30
0.0
 40
0
 41
0
  0
SEQEND
 8
0
  0
POLYLINE
  8
0
 62
     7
 66
     1
 10
0
 20
0
 30
0.0
 70
     1
 40
0.15
 41
0.15
  0
VERTEX
  8
0
 10
13.1764
 20
5.8374
 30
0.0
 40
0.00208333
 41
0.00208333
  0
VERTEX
  8
0
 10
13.0706
 20
5.8374
 30
0.0
 40
0.00208333
 41
0.00208333
  0
VERTEX
  8
0
 10
13.0706
 20
5.23654
 30
0.0
 40
0.00208333
 41
0.00208333
  0
VERTEX
  8
0
 10
11.1816
 20
5.23654
 30
0.0
 40
0.00208333
 41
0.00208333
  0
VERTEX
  8
0
 10
11.1816
 20
8.34636
 30
0.0
 40
0.00208333
 41
0.00208333
  0
VERTEX
  8
0
 10
14.6431
 20
8.34636
 30
0.0
 40
0.00208333
 41
0.00208333
  0
VERTEX
  8
0
 10
14.6431
 20
5.13075
 30
0.0
 40
0.00208333
 41
0.00208333
  0
VERTEX
  8
0
 10
13.1764
 20
5.13075
 30
0.0
 40
0.00208333
 41
0.00208333
  0
VERTEX
  8
0
 10
13.1764
 20
5.8374
 30
0.0
 40
0.00208333
 41
0.00208333
  0
SEQEND
 8
0
  0
TEXT
  8
0
 62
     0
 10
12.7753
 20
6.68965
 30
0.0
 40
0.34375
  1
MH
 50
0
  0
POLYLINE
  8
0
 62
     7
 66
     1
 10
0
 20
0
 30
0.0
 70
     1
 40
0
 41
0
  0
VERTEX
  8
0
 10
2.82781
 20
1.12033
 30
0.0
 40
0
 41
0
  0
VERTEX
  8
0
 10
0.9477
 20
1.12033
 30
0.0
 40
0
 41
0
  0
VERTEX
  8
0
 10
0.9477
 20
8.34874
 30
0.0
 40
0
 41
0
  0
VERTEX
  8
0
 10
2.84864
 20
8.34874
 30
0.0
 40
0
 41
0
  0
VERTEX
  8
0
 10
2.82781
 20
1.12033
 30
0.0
 40
0
 41
0
  0
SEQEND
 8
0
  0
POLYLINE
  8
0
 62
     0
 66
     1
 10
0
 20
0
 30
0.0
 70
     1
 40
0.15
 41
0.15
  0
VERTEX
  8
0
 10
2.82781
 20
1.12033
 30
0.0
 40
0.00208333
 41
0.00208333
  0
VERTEX
  8
0
 10
0.9477
 20
1.12033
 30
0.0
 40
0.00208333
 41
0.00208333
  0
VERTEX
  8
0
 10
0.9477
 20
8.34874
 30
0.0
 40
0.00208333
 41
0.00208333
  0
VERTEX
  8
0
 10
2.84864
 20
8.34874
 30
0.0
 40
0.00208333
 41
0.00208333
  0
VERTEX
  8
0
 10
2.82781
 20
1.12033
 30
0.0
 40
0.00208333
 41
0.00208333
  0
SEQEND
 8
0
  0
TEXT
  8
0
 62
     0
 10
1.69229
 20
3.03264
 30
0.0
 40
0.34375
  1
LA
 50
90
  0
TEXT
  8
0
 62
     0
 10
1.69229
 20
3.45719
 30
0.0
 40
0.34375
  1
SITET
 50
90
  0
TEXT
  8
0
 62
     0
 10
1.69229
 20
4.46607
 30
0.0
 40
0.34375
  1
TU P
 50
90
  0
TEXT
  8
0
 62
     0
 10
1.69229
 20
5.24926
 30
0.0
 40
0.34375
  1
ARVEKE
 50
90
  0
POLYLINE
  8
0
 62
     7
 66
     1
 10
0
 20
0
 30
0.0
 70
     1
 40
0
 41
0
  0
VERTEX
  8
0
 10
10.7183
 20
7.98269
 30
0.0
 40
0
 41
0
  0
VERTEX
  8
0
 10
11.0622
 20
7.98269
 30
0.0
 40
0
 41
0
  0
VERTEX
  8
0
 10
11.0622
 20
5.23654
 30
0.0
 40
0
 41
0
  0
VERTEX
  8
0
 10
8.85335
 20
5.23654
 30
0.0
 40
0
 41
0
  0
VERTEX
  8
0
 10
8.85335
 20
5.99875
 30
0.0
 40
0
 41
0
  0
VERTEX
  8
0
 10
8.85167
 20
5.99875
 30
0.0
 40
0
 41
0
  0
VERTEX
  8
0
 10
8.85167
 20
6.88894
 30
0.0
 40
0
 41
0
  0
VERTEX
  8
0
 10
8.85249
 20
6.88894
 30
0.0
 40
0
 41
0
  0
VERTEX
  8
0
 10
8.85249
 20
8.34636
 30
0.0
 40
0
 41
0
  0
VERTEX
  8
0
 10
10.7183
 20
8.34636
 30
0.0
 40
0
 41
0
  0
VERTEX
  8
0
 10
10.7183
 20
7.98269
 30
0.0
 40
0
 41
0
  0
SEQEND
 8
0
  0
POLYLINE
  8
0
 62
     7
 66
     1
 10
0
 20
0
 30
0.0
 70
     1
 40
0.15
 41
0.15
  0
VERTEX
  8
0
 10
10.7183
 20
7.98269
 30
0.0
 40
0.00208333
 41
0.00208333
  0
VERTEX
  8
0
 10
11.0622
 20
7.98269
 30
0.0
 40
0.00208333
 41
0.00208333
  0
VERTEX
  8
0
 10
11.0622
 20
5.23654
 30
0.0
 40
0.00208333
 41
0.00208333
  0
VERTEX
  8
0
 10
8.85335
 20
5.23654
 30
0.0
 40
0.00208333
 41
0.00208333
  0
VERTEX
  8
0
 10
8.85335
 20
5.99875
 30
0.0
 40
0.00208333
 41
0.00208333
  0
VERTEX
  8
0
 10
8.85167
 20
5.99875
 30
0.0
 40
0.00208333
 41
0.00208333
  0
VERTEX
  8
0
 10
8.85167
 20
6.88894
 30
0.0
 40
0.00208333
 41
0.00208333
  0
VERTEX
  8
0
 10
8.85249
 20
6.88894
 30
0.0
 40
0.00208333
 41
0.00208333
  0
VERTEX
  8
0
 10
8.85249
 20
8.34636
 30
0.0
 40
0.00208333
 41
0.00208333
  0
VERTEX
  8
0
 10
10.7183
 20
8.34636
 30
0.0
 40
0.00208333
 41
0.00208333
  0
VERTEX
  8
0
 10
10.7183
 20
7.98269
 30
0.0
 40
0.00208333
 41
0.00208333
  0
SEQEND
 8
0
  0
TEXT
  8
0
 62
     0
 10
9.70663
 20
6.68936
 30
0.0
 40
0.34375
  1
KH
 50
0
  0
POLYLINE
  8
0
 62
     7
 66
     1
 10
0
 20
0
 30
0.0
 70
     1
 40
0
 41
0
  0
VERTEX
  8
0
 10
8.73936
 20
5.99875
 30
0.0
 40
0
 41
0
  0
VERTEX
  8
0
 10
8.67626
 20
5.99875
 30
0.0
 40
0
 41
0
  0
VERTEX
  8
0
 10
8.67626
 20
5.287
 30
0.0
 40
0
 41
0
  0
VERTEX
  8
0
 10
7.24864
 20
5.287
 30
0.0
 40
0
 41
0
  0
VERTEX
  8
0
 10
7.24864
 20
6.88894
 30
0.0
 40
0
 41
0
  0
VERTEX
  8
0
 10
8.73936
 20
6.88894
 30
0.0
 40
0
 41
0
  0
VERTEX
  8
0
 10
8.73936
 20
5.99875
 30
0.0
 40
0
 41
0
  0
SEQEND
 8
0
  0
POLYLINE
  8
0
 62
     7
 66
     1
 10
0
 20
0
 30
0.0
 70
     1
 40
0.15
 41
0.15
  0
VERTEX
  8
0
 10
8.73936
 20
5.99875
 30
0.0
 40
0.00208333
 41
0.00208333
  0
VERTEX
  8
0
 10
8.67626
 20
5.99875
 30
0.0
 40
0.00208333
 41
0.00208333
  0
VERTEX
  8
0
 10
8.67626
 20
5.287
 30
0.0
 40
0.00208333
 41
0.00208333
  0
VERTEX
  8
0
 10
7.24864
 20
5.287
 30
0.0
 40
0.00208333
 41
0.00208333
  0
VERTEX
  8
0
 10
7.24864
 20
6.88894
 30
0.0
 40
0.00208333
 41
0.00208333
  0
VERTEX
  8
0
 10
8.73936
 20
6.88894
 30
0.0
 40
0.00208333
 41
0.00208333
  0
VERTEX
  8
0
 10
8.73936
 20
5.99875
 30
0.0
 40
0.00208333
 41
0.00208333
  0
SEQEND
 8
0
  0
TEXT
  8
0
 62
     0
 10
7.97074
 20
6.16692
 30
0.0
 40
0.34375
  1
UNDEFINED
 50
0
  0
POLYLINE
  8
0
 62
     7
 66
     1
 10
0
 20
0
 30
0.0
 70
     1
 40
0
 41
0
  0
VERTEX
  8
0
 10
7.20281
 20
8.34636
 30
0.0
 40
0
 41
0
  0
VERTEX
  8
0
 10
8.7399
 20
8.34636
 30
0.0
 40
0
 41
0
  0
VERTEX
  8
0
 10
8.7399
 20
7.04519
 30
0.0
 40
0
 41
0
  0
VERTEX
  8
0
 10
7.20281
 20
7.04519
 30
0.0
 40
0
 41
0
  0
VERTEX
  8
0
 10
7.20281
 20
8.34636
 30
0.0
 40
0
 41
0
  0
SEQEND
 8
0
  0
POLYLINE
  8
0
 62
     7
 66
     1
 10
0
 20
0
 30
0.0
 70
     1
 40
0.15
 41
0.15
  0
VERTEX
  8
0
 10
7.20281
 20
8.34636
 30
0.0
 40
0.00208333
 41
0.00208333
  0
VERTEX
  8
0
 10
8.7399
 20
8.34636
 30
0.0
 40
0.00208333
 41
0.00208333
  0
VERTEX
  8
0
 10
8.7399
 20
7.04519
 30
0.0
 40
0.00208333
 41
0.00208333
  0
VERTEX
  8
0
 10
7.20281
 20
7.04519
 30
0.0
 40
0.00208333
 41
0.00208333
  0
VERTEX
  8
0
 10
7.20281
 20
8.34636
 30
0.0
 40
0.00208333
 41
0.00208333
  0
SEQEND
 8
0
  0
TEXT
  8
0
 62
     0
 10
7.37772
 20
7.39849
 30
0.0
 40
0.34375
  1
VH
 50
0
  0
POLYLINE
  8
0
 62
     0
 66
     1
 10
0
 20
0
 30
0.0
 70
     1
 40
0
 41
0
  0
VERTEX
  8
0
 10
2.82781
 20
0.957303
 30
0.0
 40
0
 41
0
  0
VERTEX
  8
0
 10
11.2669
 20
0.957303
 30
0.0
 40
0
 41
0
  0
VERTEX
  8
0
 10
11.073
 20
1.11355
 30
0.0
 40
0
 41
0
  0
VERTEX
  8
0
 10
3.21175
 20
1.11355
 30
0.0
 40
0
 41
0
  0
VERTEX
  8
0
 10
2.82781
 20
0.957303
 30
0.0
 40
0
 41
0
  0
SEQEND
 8
0
  0
POLYLINE
  8
0
 62
     0
 66
     1
 10
0
 20
0
 30
0.0
 70
     1
 40
0.15
 41
0.15
  0
VERTEX
  8
0
 10
2.82781
 20
0.957303
 30
0.0
 40
0.00208333
 41
0.00208333
  0
VERTEX
  8
0
 10
11.2669
 20
0.957303
 30
0.0
 40
0.00208333
 41
0.00208333
  0
VERTEX
  8
0
 10
11.073
 20
1.11355
 30
0.0
 40
0.00208333
 41
0.00208333
  0
VERTEX
  8
0
 10
3.21175
 20
1.11355
 30
0.0
 40
0.00208333
 41
0.00208333
  0
VERTEX
  8
0
 10
2.82781
 20
0.957303
 30
0.0
 40
0.00208333
 41
0.00208333
  0
SEQEND
 8
0
  0
POLYLINE
  8
0
 62
     0
 66
     1
 10
0
 20
0
 30
0.0
 70
     1
 40
0
 41
0
  0
VERTEX
  8
0
 10
11.2669
 20
0.957303
 30
0.0
 40
0
 41
0
  0
VERTEX
  8
0
 10
11.2669
 20
3.34646
 30
0.0
 40
0
 41
0
  0
VERTEX
  8
0
 10
11.073
 20
3.57747
 30
0.0
 40
0
 41
0
  0
VERTEX
  8
0
 10
11.073
 20
1.11355
 30
0.0
 40
0
 41
0
  0
VERTEX
  8
0
 10
11.2669
 20
0.957303
 30
0.0
 40
0
 41
0
  0
SEQEND
 8
0
  0
POLYLINE
  8
0
 62
     0
 66
     1
 10
0
 20
0
 30
0.0
 70
     1
 40
0.15
 41
0.15
  0
VERTEX
  8
0
 10
11.2669
 20
0.957303
 30
0.0
 40
0.00208333
 41
0.00208333
  0
VERTEX
  8
0
 10
11.2669
 20
3.34646
 30
0.0
 40
0.00208333
 41
0.00208333
  0
VERTEX
  8
0
 10
11.073
 20
3.57747
 30
0.0
 40
0.00208333
 41
0.00208333
  0
VERTEX
  8
0
 10
11.073
 20
1.11355
 30
0.0
 40
0.00208333
 41
0.00208333
  0
VERTEX
  8
0
 10
11.2669
 20
0.957303
 30
0.0
 40
0.00208333
 41
0.00208333
  0
SEQEND
 8
0
  0
POLYLINE
  8
0
 62
     0
 66
     1
 10
0
 20
0
 30
0.0
 70
     1
 40
0
 41
0
  0
VERTEX
  8
0
 10
11.2669
 20
3.34646
 30
0.0
 40
0
 41
0
  0
VERTEX
  8
0
 10
12.9606
 20
3.34646
 30
0.0
 40
0
 41
0
  0
VERTEX
  8
0
 10
13.1643
 20
3.57747
 30
0.0
 40
0
 41
0
  0
VERTEX
  8
0
 10
11.073
 20
3.57747
 30
0.0
 40
0
 41
0
  0
VERTEX
  8
0
 10
11.2669
 20
3.34646
 30
0.0
 40
0
 41
0
  0
SEQEND
 8
0
  0
POLYLINE
  8
0
 62
     0
 66
     1
 10
0
 20
0
 30
0.0
 70
     1
 40
0.15
 41
0.15
  0
VERTEX
  8
0
 10
11.2669
 20
3.34646
 30
0.0
 40
0.00208333
 41
0.00208333
  0
VERTEX
  8
0
 10
12.9606
 20
3.34646
 30
0.0
 40
0.00208333
 41
0.00208333
  0
VERTEX
  8
0
 10
13.1643
 20
3.57747
 30
0.0
 40
0.00208333
 41
0.00208333
  0
VERTEX
  8
0
 10
11.073
 20
3.57747
 30
0.0
 40
0.00208333
 41
0.00208333
  0
VERTEX
  8
0
 10
11.2669
 20
3.34646
 30
0.0
 40
0.00208333
 41
0.00208333
  0
SEQEND
 8
0
  0
POLYLINE
  8
0
 62
     0
 66
     1
 10
0
 20
0
 30
0.0
 70
     1
 40
0
 41
0
  0
VERTEX
  8
0
 10
12.9606
 20
3.34646
 30
0.0
 40
0
 41
0
  0
VERTEX
  8
0
 10
12.9606
 20
0.944879
 30
0.0
 40
0
 41
0
  0
VERTEX
  8
0
 10
13.1643
 20
1.10113
 30
0.0
 40
0
 41
0
  0
VERTEX
  8
0
 10
13.1643
 20
3.57747
 30
0.0
 40
0
 41
0
  0
VERTEX
  8
0
 10
12.9606
 20
3.34646
 30
0.0
 40
0
 41
0
  0
SEQEND
 8
0
  0
POLYLINE
  8
0
 62
     0
 66
     1
 10
0
 20
0
 30
0.0
 70
     1
 40
0.15
 41
0.15
  0
VERTEX
  8
0
 10
12.9606
 20
3.34646
 30
0.0
 40
0.00208333
 41
0.00208333
  0
VERTEX
  8
0
 10
12.9606
 20
0.944879
 30
0.0
 40
0.00208333
 41
0.00208333
  0
VERTEX
  8
0
 10
13.1643
 20
1.10113
 30
0.0
 40
0.00208333
 41
0.00208333
  0
VERTEX
  8
0
 10
13.1643
 20
3.57747
 30
0.0
 40
0.00208333
 41
0.00208333
  0
VERTEX
  8
0
 10
12.9606
 20
3.34646
 30
0.0
 40
0.00208333
 41
0.00208333
  0
SEQEND
 8
0
  0
POLYLINE
  8
0
 62
     0
 66
     1
 10
0
 20
0
 30
0.0
 70
     1
 40
0
 41
0
  0
VERTEX
  8
0
 10
12.9606
 20
0.944879
 30
0.0
 40
0
 41
0
  0
VERTEX
  8
0
 10
15.1426
 20
0.944879
 30
0.0
 40
0
 41
0
  0
VERTEX
  8
0
 10
14.6431
 20
1.10113
 30
0.0
 40
0
 41
0
  0
VERTEX
  8
0
 10
13.1643
 20
1.10113
 30
0.0
 40
0
 41
0
  0
VERTEX
  8
0
 10
12.9606
 20
0.944879
 30
0.0
 40
0
 41
0
  0
SEQEND
 8
0
  0
POLYLINE
  8
0
 62
     0
 66
     1
 10
0
 20
0
 30
0.0
 70
     1
 40
0.15
 41
0.15
  0
VERTEX
  8
0
 10
12.9606
 20
0.944879
 30
0.0
 40
0.00208333
 41
0.00208333
  0
VERTEX
  8
0
 10
15.1426
 20
0.944879
 30
0.0
 40
0.00208333
 41
0.00208333
  0
VERTEX
  8
0
 10
14.6431
 20
1.10113
 30
0.0
 40
0.00208333
 41
0.00208333
  0
VERTEX
  8
0
 10
13.1643
 20
1.10113
 30
0.0
 40
0.00208333
 41
0.00208333
  0
VERTEX
  8
0
 10
12.9606
 20
0.944879
 30
0.0
 40
0.00208333
 41
0.00208333
  0
SEQEND
 8
0
  0
POLYLINE
  8
0
 62
     7
 66
     1
 10
0
 20
0
 30
0.0
 70
     1
 40
0
 41
0
  0
VERTEX
  8
0
 10
13.2132
 20
1.10113
 30
0.0
 40
0
 41
0
  0
VERTEX
  8
0
 10
14.1524
 20
1.10113
 30
0.0
 40
0
 41
0
  0
VERTEX
  8
0
 10
14.1524
 20
0.944879
 30
0.0
 40
0
 41
0
  0
VERTEX
  8
0
 10
13.2132
 20
0.944879
 30
0.0
 40
0
 41
0
  0
VERTEX
  8
0
 10
13.2132
 20
1.10113
 30
0.0
 40
0
 41
0
  0
SEQEND
 8
0
  0
POLYLINE
  8
0
 62
     0
 66
     1
 10
0
 20
0
 30
0.0
 70
     1
 40
0.75
 41
0.75
  0
VERTEX
  8
0
 10
13.2132
 20
1.10113
 30
0.0
 40
0.0104167
 41
0.0104167
  0
VERTEX
  8
0
 10
14.1524
 20
1.10113
 30
0.0
 40
0.0104167
 41
0.0104167
  0
VERTEX
  8
0
 10
14.1524
 20
0.944879
 30
0.0
 40
0.0104167
 41
0.0104167
  0
VERTEX
  8
0
 10
13.2132
 20
0.944879
 30
0.0
 40
0.0104167
 41
0.0104167
  0
VERTEX
  8
0
 10
13.2132
 20
1.10113
 30
0.0
 40
0.0104167
 41
0.0104167
  0
SEQEND
 8
0
  0
POLYLINE
  8
0
 62
     7
 66
     1
 10
0
 20
0
 30
0.0
 70
     1
 40
0
 41
0
  0
VERTEX
  8
0
 10
13.2132
 20
1.10113
 30
0.0
 40
0
 41
0
  0
VERTEX
  8
0
 10
14.1524
 20
1.10113
 30
0.0
 40
0
 41
0
  0
VERTEX
  8
0
 10
14.1524
 20
0.944879
 30
0.0
 40
0
 41
0
  0
VERTEX
  8
0
 10
13.2132
 20
0.944879
 30
0.0
 40
0
 41
0
  0
VERTEX
  8
0
 10
13.2132
 20
1.10113
 30
0.0
 40
0
 41
0
  0
SEQEND
 8
0
  0
POLYLINE
  8
0
 62
     0
 66
     1
 10
0
 20
0
 30
0.0
 70
     1
 40
0.75
 41
0.75
  0
VERTEX
  8
0
 10
13.2132
 20
1.10113
 30
0.0
 40
0.0104167
 41
0.0104167
  0
VERTEX
  8
0
 10
14.1524
 20
1.10113
 30
0.0
 40
0.0104167
 41
0.0104167
  0
VERTEX
  8
0
 10
14.1524
 20
0.944879
 30
0.0
 40
0.0104167
 41
0.0104167
  0
VERTEX
  8
0
 10
13.2132
 20
0.944879
 30
0.0
 40
0.0104167
 41
0.0104167
  0
VERTEX
  8
0
 10
13.2132
 20
1.10113
 30
0.0
 40
0.0104167
 41
0.0104167
  0
SEQEND
 8
0
  0
POLYLINE
  8
0
 62
     0
 66
     1
 10
0
 20
0
 30
0.0
 70
     1
 40
0.75
 41
0.75
  0
VERTEX
  8
0
 10
14.1524
 20
0.944879
 30
0.0
 40
0.0104167
 41
0.0104167
  0
VERTEX
  8
0
 10
14.1524
 20
0.889865
 30
0.0
 40
0.0104167
 41
0.0104167
  0
VERTEX
  8
0
 10
14.1376
 20
0.724772
 30
0.0
 40
0.0104167
 41
0.0104167
  0
VERTEX
  8
0
 10
14.0938
 20
0.534017
 30
0.0
 40
0.0104167
 41
0.0104167
  0
VERTEX
  8
0
 10
14.0203
 20
0.372613
 30
0.0
 40
0.0104167
 41
0.0104167
  0
VERTEX
  8
0
 10
13.9176
 20
0.24056
 30
0.0
 40
0.0104167
 41
0.0104167
  0
VERTEX
  8
0
 10
13.7855
 20
0.137858
 30
0.0
 40
0.0104167
 41
0.0104167
  0
VERTEX
  8
0
 10
13.6241
 20
0.0644532
 30
0.0
 40
0.0104167
 41
0.0104167
  0
VERTEX
  8
0
 10
13.4333
 20
0.0204536
 30
0.0
 40
0.0104167
 41
0.0104167
  0
VERTEX
  8
0
 10
13.2682
 20
0.00575088
 30
0.0
 40
0.0104167
 41
0.0104167
  0
VERTEX
  8
0
 10
13.2132
 20
0.00575088
 30
0.0
 40
0.0104167
 41
0.0104167
  0
VERTEX
  8
0
 10
13.2132
 20
0.944879
 30
0.0
 40
0.0104167
 41
0.0104167
  0
VERTEX
  8
0
 10
14.1524
 20
0.944879
 30
0.0
 40
0.0104167
 41
0.0104167
  0
SEQEND
 8
0
  0
POLYLINE
  8
0
 62
     0
 66
     1
 10
0
 20
0
 30
0.0
 70
     1
 40
0.75
 41
0.75
  0
VERTEX
  8
0
 10
14.1524
 20
1.10113
 30
0.0
 40
0.0104167
 41
0.0104167
  0
VERTEX
  8
0
 10
14.1524
 20
1.1562
 30
0.0
 40
0.0104167
 41
0.0104167
  0
VERTEX
  8
0
 10
14.1376
 20
1.32129
 30
0.0
 40
0.0104167
 41
0.0104167
  0
VERTEX
  8
0
 10
14.0938
 20
1.51204
 30
0.0
 40
0.0104167
 41
0.0104167
  0
VERTEX
  8
0
 10
14.0203
 20
1.6735
 30
0.0
 40
0.0104167
 41
0.0104167
  0
VERTEX
  8
0
 10
13.9176
 20
1.80556
 30
0.0
 40
0.0104167
 41
0.0104167
  0
VERTEX
  8
0
 10
13.7855
 20
1.90826
 30
0.0
 40
0.0104167
 41
0.0104167
  0
VERTEX
  8
0
 10
13.6241
 20
1.98167
 30
0.0
 40
0.0104167
 41
0.0104167
  0
VERTEX
  8
0
 10
13.4333
 20
2.02567
 30
0.0
 40
0.0104167
 41
0.0104167
  0
VERTEX
  8
0
 10
13.2682
 20
2.04031
 30
0.0
 40
0.0104167
 41
0.0104167
  0
VERTEX
  8
0
 10
13.2132
 20
2.04031
 30
0.0
 40
0.0104167
 41
0.0104167
  0
VERTEX
  8
0
 10
13.2132
 20
1.10113
 30
0.0
 40
0.0104167
 41
0.0104167
  0
VERTEX
  8
0
 10
14.1524
 20
1.10113
 30
0.0
 40
0.0104167
 41
0.0104167
  0
SEQEND
 8
0
  0
POLYLINE
  8
0
 62
     0
 66
     1
 10
0
 20
0
 30
0.0
 70
     1
 40
0
 41
0
  0
VERTEX
  8
0
 10
15.1426
 20
0.944879
 30
0.0
 40
0
 41
0
  0
VERTEX
  8
0
 10
15.1426
 20
8.50261
 30
0.0
 40
0
 41
0
  0
VERTEX
  8
0
 10
14.6431
 20
8.34636
 30
0.0
 40
0
 41
0
  0
VERTEX
  8
0
 10
14.6431
 20
1.10113
 30
0.0
 40
0
 41
0
  0
VERTEX
  8
0
 10
15.1426
 20
0.944879
 30
0.0
 40
0
 41
0
  0
SEQEND
 8
0
  0
POLYLINE
  8
0
 62
     0
 66
     1
 10
0
 20
0
 30
0.0
 70
     1
 40
0.15
 41
0.15
  0
VERTEX
  8
0
 10
15.1426
 20
0.944879
 30
0.0
 40
0.00208333
 41
0.00208333
  0
VERTEX
  8
0
 10
15.1426
 20
8.50261
 30
0.0
 40
0.00208333
 41
0.00208333
  0
VERTEX
  8
0
 10
14.6431
 20
8.34636
 30
0.0
 40
0.00208333
 41
0.00208333
  0
VERTEX
  8
0
 10
14.6431
 20
1.10113
 30
0.0
 40
0.00208333
 41
0.00208333
  0
VERTEX
  8
0
 10
15.1426
 20
0.944879
 30
0.0
 40
0.00208333
 41
0.00208333
  0
SEQEND
 8
0
  0
POLYLINE
  8
0
 62
     7
 66
     1
 10
0
 20
0
 30
0.0
 70
     1
 40
0
 41
0
  0
VERTEX
  8
0
 10
14.6431
 20
5.05018
 30
0.0
 40
0
 41
0
  0
VERTEX
  8
0
 10
15.1426
 20
5.05018
 30
0.0
 40
0
 41
0
  0
VERTEX
  8
0
 10
15.1426
 20
3.14811
 30
0.0
 40
0
 41
0
  0
VERTEX
  8
0
 10
14.6431
 20
3.14811
 30
0.0
 40
0
 41
0
  0
VERTEX
  8
0
 10
14.6431
 20
5.05018
 30
0.0
 40
0
 41
0
  0
SEQEND
 8
0
  0
POLYLINE
  8
0
 62
     0
 66
     1
 10
0
 20
0
 30
0.0
 70
     1
 40
0.75
 41
0.75
  0
VERTEX
  8
0
 10
14.6431
 20
5.05018
 30
0.0
 40
0.0104167
 41
0.0104167
  0
VERTEX
  8
0
 10
15.1426
 20
5.05018
 30
0.0
 40
0.0104167
 41
0.0104167
  0
VERTEX
  8
0
 10
15.1426
 20
3.14811
 30
0.0
 40
0.0104167
 41
0.0104167
  0
VERTEX
  8
0
 10
14.6431
 20
3.14811
 30
0.0
 40
0.0104167
 41
0.0104167
  0
VERTEX
  8
0
 10
14.6431
 20
5.05018
 30
0.0
 40
0.0104167
 41
0.0104167
  0
SEQEND
 8
0
  0
POLYLINE
  8
0
 62
     7
 66
     1
 10
0
 20
0
 30
0.0
 70
     1
 40
0
 41
0
  0
VERTEX
  8
0
 10
14.6431
 20
5.05018
 30
0.0
 40
0
 41
0
  0
VERTEX
  8
0
 10
15.1426
 20
5.05018
 30
0.0
 40
0
 41
0
  0
VERTEX
  8
0
 10
15.1426
 20
3.14811
 30
0.0
 40
0
 41
0
  0
VERTEX
  8
0
 10
14.6431
 20
3.14811
 30
0.0
 40
0
 41
0
  0
VERTEX
  8
0
 10
14.6431
 20
5.05018
 30
0.0
 40
0
 41
0
  0
SEQEND
 8
0
  0
POLYLINE
  8
0
 62
     0
 66
     1
 10
0
 20
0
 30
0.0
 70
     1
 40
0.75
 41
0.75
  0
VERTEX
  8
0
 10
14.6431
 20
5.05018
 30
0.0
 40
0.0104167
 41
0.0104167
  0
VERTEX
  8
0
 10
15.1426
 20
5.05018
 30
0.0
 40
0.0104167
 41
0.0104167
  0
VERTEX
  8
0
 10
15.1426
 20
3.14811
 30
0.0
 40
0.0104167
 41
0.0104167
  0
VERTEX
  8
0
 10
14.6431
 20
3.14811
 30
0.0
 40
0.0104167
 41
0.0104167
  0
VERTEX
  8
0
 10
14.6431
 20
5.05018
 30
0.0
 40
0.0104167
 41
0.0104167
  0
SEQEND
 8
0
  0
POLYLINE
  8
0
 62
     0
 66
     1
 10
0
 20
0
 30
0.0
 40
0.75
 41
0.75
  0
VERTEX
  8
0
 10
14.8929
 20
3.22624
 30
0.0
 40
0.0104167
 41
0.0104167
  0
VERTEX
  8
0
 10
14.8929
 20
4.97206
 30
0.0
 40
0.0104167
 41
0.0104167
  0
SEQEND
 8
0
  0
POLYLINE
  8
0
 62
     0
 66
     1
 10
0
 20
0
 30
0.0
 40
0.75
 41
0.75
  0
VERTEX
  8
0
 10
15.1428
 20
3.22624
 30
0.0
 40
0.0104167
 41
0.0104167
  0
VERTEX
  8
0
 10
14.6431
 20
3.22624
 30
0.0
 40
0.0104167
 41
0.0104167
  0
SEQEND
 8
0
  0
POLYLINE
  8
0
 62
     0
 66
     1
 10
0
 20
0
 30
0.0
 40
0.75
 41
0.75
  0
VERTEX
  8
0
 10
15.1428
 20
4.97206
 30
0.0
 40
0.0104167
 41
0.0104167
  0
VERTEX
  8
0
 10
14.6431
 20
4.97206
 30
0.0
 40
0.0104167
 41
0.0104167
  0
SEQEND
 8
0
  0
POLYLINE
  8
0
 62
     7
 66
     1
 10
0
 20
0
 30
0.0
 70
     1
 40
0
 41
0
  0
VERTEX
  8
0
 10
14.6431
 20
7.86063
 30
0.0
 40
0
 41
0
  0
VERTEX
  8
0
 10
15.1426
 20
7.86063
 30
0.0
 40
0
 41
0
  0
VERTEX
  8
0
 10
15.1426
 20
6.00553
 30
0.0
 40
0
 41
0
  0
VERTEX
  8
0
 10
14.6431
 20
6.00553
 30
0.0
 40
0
 41
0
  0
VERTEX
  8
0
 10
14.6431
 20
7.86063
 30
0.0
 40
0
 41
0
  0
SEQEND
 8
0
  0
POLYLINE
  8
0
 62
     0
 66
     1
 10
0
 20
0
 30
0.0
 70
     1
 40
0.75
 41
0.75
  0
VERTEX
  8
0
 10
14.6431
 20
7.86063
 30
0.0
 40
0.0104167
 41
0.0104167
  0
VERTEX
  8
0
 10
15.1426
 20
7.86063
 30
0.0
 40
0.0104167
 41
0.0104167
  0
VERTEX
  8
0
 10
15.1426
 20
6.00553
 30
0.0
 40
0.0104167
 41
0.0104167
  0
VERTEX
  8
0
 10
14.6431
 20
6.00553
 30
0.0
 40
0.0104167
 41
0.0104167
  0
VERTEX
  8
0
 10
14.6431
 20
7.86063
 30
0.0
 40
0.0104167
 41
0.0104167
  0
SEQEND
 8
0
  0
POLYLINE
  8
0
 62
     7
 66
     1
 10
0
 20
0
 30
0.0
 70
     1
 40
0
 41
0
  0
VERTEX
  8
0
 10
14.6431
 20
7.86063
 30
0.0
 40
0
 41
0
  0
VERTEX
  8
0
 10
15.1426
 20
7.86063
 30
0.0
 40
0
 41
0
  0
VERTEX
  8
0
 10
15.1426
 20
6.00553
 30
0.0
 40
0
 41
0
  0
VERTEX
  8
0
 10
14.6431
 20
6.00553
 30
0.0
 40
0
 41
0
  0
VERTEX
  8
0
 10
14.6431
 20
7.86063
 30
0.0
 40
0
 41
0
  0
SEQEND
 8
0
  0
POLYLINE
  8
0
 62
     0
 66
     1
 10
0
 20
0
 30
0.0
 70
     1
 40
0.75
 41
0.75
  0
VERTEX
  8
0
 10
14.6431
 20
7.86063
 30
0.0
 40
0.0104167
 41
0.0104167
  0
VERTEX
  8
0
 10
15.1426
 20
7.86063
 30
0.0
 40
0.0104167
 41
0.0104167
  0
VERTEX
  8
0
 10
15.1426
 20
6.00553
 30
0.0
 40
0.0104167
 41
0.0104167
  0
VERTEX
  8
0
 10
14.6431
 20
6.00553
 30
0.0
 40
0.0104167
 41
0.0104167
  0
VERTEX
  8
0
 10
14.6431
 20
7.86063
 30
0.0
 40
0.0104167
 41
0.0104167
  0
SEQEND
 8
0
  0
POLYLINE
  8
0
 62
     0
 66
     1
 10
0
 20
0
 30
0.0
 40
0.75
 41
0.75
  0
VERTEX
  8
0
 10
14.8929
 20
6.08361
 30
0.0
 40
0.0104167
 41
0.0104167
  0
VERTEX
  8
0
 10
14.8929
 20
7.78256
 30
0.0
 40
0.0104167
 41
0.0104167
  0
SEQEND
 8
0
  0
POLYLINE
  8
0
 62
     0
 66
     1
 10
0
 20
0
 30
0.0
 40
0.75
 41
0.75
  0
VERTEX
  8
0
 10
15.1428
 20
6.08361
 30
0.0
 40
0.0104167
 41
0.0104167
  0
VERTEX
  8
0
 10
14.6431
 20
6.08361
 30
0.0
 40
0.0104167
 41
0.0104167
  0
SEQEND
 8
0
  0
POLYLINE
  8
0
 62
     0
 66
     1
 10
0
 20
0
 30
0.0
 40
0.75
 41
0.75
  0
VERTEX
  8
0
 10
15.1428
 20
7.78256
 30
0.0
 40
0.0104167
 41
0.0104167
  0
VERTEX
  8
0
 10
14.6431
 20
7.78256
 30
0.0
 40
0.0104167
 41
0.0104167
  0
SEQEND
 8
0
  0
POLYLINE
  8
0
 62
     0
 66
     1
 10
0
 20
0
 30
0.0
 70
     1
 40
0
 41
0
  0
VERTEX
  8
0
 10
15.1426
 20
8.50261
 30
0.0
 40
0
 41
0
  0
VERTEX
  8
0
 10
2.84646
 20
8.50261
 30
0.0
 40
0
 41
0
  0
VERTEX
  8
0
 10
3.2296
 20
8.34636
 30
0.0
 40
0
 41
0
  0
VERTEX
  8
0
 10
14.6431
 20
8.34636
 30
0.0
 40
0
 41
0
  0
VERTEX
  8
0
 10
15.1426
 20
8.50261
 30
0.0
 40
0
 41
0
  0
SEQEND
 8
0
  0
POLYLINE
  8
0
 62
     0
 66
     1
 10
0
 20
0
 30
0.0
 70
     1
 40
0.15
 41
0.15
  0
VERTEX
  8
0
 10
15.1426
 20
8.50261
 30
0.0
 40
0.00208333
 41
0.00208333
  0
VERTEX
  8
0
 10
2.84646
 20
8.50261
 30
0.0
 40
0.00208333
 41
0.00208333
  0
VERTEX
  8
0
 10
3.2296
 20
8.34636
 30
0.0
 40
0.00208333
 41
0.00208333
  0
VERTEX
  8
0
 10
14.6431
 20
8.34636
 30
0.0
 40
0.00208333
 41
0.00208333
  0
VERTEX
  8
0
 10
15.1426
 20
8.50261
 30
0.0
 40
0.00208333
 41
0.00208333
  0
SEQEND
 8
0
  0
POLYLINE
  8
0
 62
     0
 66
     1
 10
0
 20
0
 30
0.0
 70
     1
 40
0
 41
0
  0
VERTEX
  8
0
 10
2.84646
 20
8.50261
 30
0.0
 40
0
 41
0
  0
VERTEX
  8
0
 10
2.82781
 20
0.957303
 30
0.0
 40
0
 41
0
  0
VERTEX
  8
0
 10
3.21175
 20
1.11355
 30
0.0
 40
0
 41
0
  0
VERTEX
  8
0
 10
3.2296
 20
8.34636
 30
0.0
 40
0
 41
0
  0
VERTEX
  8
0
 10
2.84646
 20
8.50261
 30
0.0
 40
0
 41
0
  0
SEQEND
 8
0
  0
POLYLINE
  8
0
 62
     0
 66
     1
 10
0
 20
0
 30
0.0
 70
     1
 40
0.15
 41
0.15
  0
VERTEX
  8
0
 10
2.84646
 20
8.50261
 30
0.0
 40
0.00208333
 41
0.00208333
  0
VERTEX
  8
0
 10
2.82781
 20
0.957303
 30
0.0
 40
0.00208333
 41
0.00208333
  0
VERTEX
  8
0
 10
3.21175
 20
1.11355
 30
0.0
 40
0.00208333
 41
0.00208333
  0
VERTEX
  8
0
 10
3.2296
 20
8.34636
 30
0.0
 40
0.00208333
 41
0.00208333
  0
VERTEX
  8
0
 10
2.84646
 20
8.50261
 30
0.0
 40
0.00208333
 41
0.00208333
  0
SEQEND
 8
0
  0
POLYLINE
  8
0
 62
     7
 66
     1
 10
0
 20
0
 30
0.0
 70
     1
 40
0
 41
0
  0
VERTEX
  8
0
 10
2.8425
 20
6.91564
 30
0.0
 40
0
 41
0
  0
VERTEX
  8
0
 10
2.83897
 20
5.47396
 30
0.0
 40
0
 41
0
  0
VERTEX
  8
0
 10
3.2225
 20
5.47293
 30
0.0
 40
0
 41
0
  0
VERTEX
  8
0
 10
3.22601
 20
6.91471
 30
0.0
 40
0
 41
0
  0
VERTEX
  8
0
 10
2.8425
 20
6.91564
 30
0.0
 40
0
 41
0
  0
SEQEND
 8
0
  0
POLYLINE
  8
0
 62
     0
 66
     1
 10
0
 20
0
 30
0.0
 70
     1
 40
0.75
 41
0.75
  0
VERTEX
  8
0
 10
2.8425
 20
6.91564
 30
0.0
 40
0.0104167
 41
0.0104167
  0
VERTEX
  8
0
 10
2.83897
 20
5.47396
 30
0.0
 40
0.0104167
 41
0.0104167
  0
VERTEX
  8
0
 10
3.2225
 20
5.47293
 30
0.0
 40
0.0104167
 41
0.0104167
  0
VERTEX
  8
0
 10
3.22601
 20
6.91471
 30
0.0
 40
0.0104167
 41
0.0104167
  0
VERTEX
  8
0
 10
2.8425
 20
6.91564
 30
0.0
 40
0.0104167
 41
0.0104167
  0
SEQEND
 8
0
  0
POLYLINE
  8
0
 62
     7
 66
     1
 10
0
 20
0
 30
0.0
 70
     1
 40
0
 41
0
  0
VERTEX
  8
0
 10
2.8425
 20
6.91564
 30
0.0
 40
0
 41
0
  0
VERTEX
  8
0
 10
2.83897
 20
5.47396
 30
0.0
 40
0
 41
0
  0
VERTEX
  8
0
 10
3.2225
 20
5.47293
 30
0.0
 40
0
 41
0
  0
VERTEX
  8
0
 10
3.22601
 20
6.91471
 30
0.0
 40
0
 41
0
  0
VERTEX
  8
0
 10
2.8425
 20
6.91564
 30
0.0
 40
0
 41
0
  0
SEQEND
 8
0
  0
POLYLINE
  8
0
 62
     0
 66
     1
 10
0
 20
0
 30
0.0
 70
     1
 40
0.75
 41
0.75
  0
VERTEX
  8
0
 10
2.8425
 20
6.91564
 30
0.0
 40
0.0104167
 41
0.0104167
  0
VERTEX
  8
0
 10
2.83897
 20
5.47396
 30
0.0
 40
0.0104167
 41
0.0104167
  0
VERTEX
  8
0
 10
3.2225
 20
5.47293
 30
0.0
 40
0.0104167
 41
0.0104167
  0
VERTEX
  8
0
 10
3.22601
 20
6.91471
 30
0.0
 40
0.0104167
 41
0.0104167
  0
VERTEX
  8
0
 10
2.8425
 20
6.91564
 30
0.0
 40
0.0104167
 41
0.0104167
  0
SEQEND
 8
0
  0
POLYLINE
  8
0
 62
     7
 66
     1
 10
0
 20
0
 30
0.0
 70
     1
 40
0
 41
0
  0
VERTEX
  8
0
 10
3.03413
 20
6.83703
 30
0.0
 40
0
 41
0
  0
VERTEX
  8
0
 10
3.03093
 20
5.55154
 30
0.0
 40
0
 41
0
  0
SEQEND
 8
0
  0
POLYLINE
  8
0
 62
     0
 66
     1
 10
0
 20
0
 30
0.0
 40
0.75
 41
0.75
  0
VERTEX
  8
0
 10
3.03413
 20
6.83703
 30
0.0
 40
0.0104167
 41
0.0104167
  0
VERTEX
  8
0
 10
3.03093
 20
5.55154
 30
0.0
 40
0.0104167
 41
0.0104167
  0
SEQEND
 8
0
  0
POLYLINE
  8
0
 62
     7
 66
     1
 10
0
 20
0
 30
0.0
 70
     1
 40
0
 41
0
  0
VERTEX
  8
0
 10
2.84233
 20
6.83746
 30
0.0
 40
0
 41
0
  0
VERTEX
  8
0
 10
3.22586
 20
6.83653
 30
0.0
 40
0
 41
0
  0
SEQEND
 8
0
  0
POLYLINE
  8
0
 62
     0
 66
     1
 10
0
 20
0
 30
0.0
 40
0.75
 41
0.75
  0
VERTEX
  8
0
 10
2.84233
 20
6.83746
 30
0.0
 40
0.0104167
 41
0.0104167
  0
VERTEX
  8
0
 10
3.22586
 20
6.83653
 30
0.0
 40
0.0104167
 41
0.0104167
  0
SEQEND
 8
0
  0
POLYLINE
  8
0
 62
     7
 66
     1
 10
0
 20
0
 30
0.0
 70
     1
 40
0
 41
0
  0
VERTEX
  8
0
 10
2.83914
 20
5.55203
 30
0.0
 40
0
 41
0
  0
VERTEX
  8
0
 10
3.22271
 20
5.55111
 30
0.0
 40
0
 41
0
  0
SEQEND
 8
0
  0
POLYLINE
  8
0
 62
     0
 66
     1
 10
0
 20
0
 30
0.0
 40
0.75
 41
0.75
  0
VERTEX
  8
0
 10
2.83914
 20
5.55203
 30
0.0
 40
0.0104167
 41
0.0104167
  0
VERTEX
  8
0
 10
3.22271
 20
5.55111
 30
0.0
 40
0.0104167
 41
0.0104167
  0
SEQEND
 8
0
  0
POLYLINE
  8
0
 62
     7
 66
     1
 10
0
 20
0
 30
0.0
 70
     1
 40
0
 41
0
  0
VERTEX
  8
0
 10
2.83447
 20
3.67219
 30
0.0
 40
0
 41
0
  0
VERTEX
  8
0
 10
2.83137
 20
2.38226
 30
0.0
 40
0
 41
0
  0
VERTEX
  8
0
 10
3.2149
 20
2.38135
 30
0.0
 40
0
 41
0
  0
VERTEX
  8
0
 10
3.21804
 20
3.67122
 30
0.0
 40
0
 41
0
  0
VERTEX
  8
0
 10
2.83447
 20
3.67219
 30
0.0
 40
0
 41
0
  0
SEQEND
 8
0
  0
POLYLINE
  8
0
 62
     0
 66
     1
 10
0
 20
0
 30
0.0
 70
     1
 40
0.75
 41
0.75
  0
VERTEX
  8
0
 10
2.83447
 20
3.67219
 30
0.0
 40
0.0104167
 41
0.0104167
  0
VERTEX
  8
0
 10
2.83137
 20
2.38226
 30
0.0
 40
0.0104167
 41
0.0104167
  0
VERTEX
  8
0
 10
3.2149
 20
2.38135
 30
0.0
 40
0.0104167
 41
0.0104167
  0
VERTEX
  8
0
 10
3.21804
 20
3.67122
 30
0.0
 40
0.0104167
 41
0.0104167
  0
VERTEX
  8
0
 10
2.83447
 20
3.67219
 30
0.0
 40
0.0104167
 41
0.0104167
  0
SEQEND
 8
0
  0
POLYLINE
  8
0
 62
     7
 66
     1
 10
0
 20
0
 30
0.0
 70
     1
 40
0
 41
0
  0
VERTEX
  8
0
 10
2.83447
 20
3.67219
 30
0.0
 40
0
 41
0
  0
VERTEX
  8
0
 10
2.83137
 20
2.38226
 30
0.0
 40
0
 41
0
  0
VERTEX
  8
0
 10
3.2149
 20
2.38135
 30
0.0
 40
0
 41
0
  0
VERTEX
  8
0
 10
3.21804
 20
3.67122
 30
0.0
 40
0
 41
0
  0
VERTEX
  8
0
 10
2.83447
 20
3.67219
 30
0.0
 40
0
 41
0
  0
SEQEND
 8
0
  0
POLYLINE
  8
0
 62
     0
 66
     1
 10
0
 20
0
 30
0.0
 70
     1
 40
0.75
 41
0.75
  0
VERTEX
  8
0
 10
2.83447
 20
3.67219
 30
0.0
 40
0.0104167
 41
0.0104167
  0
VERTEX
  8
0
 10
2.83137
 20
2.38226
 30
0.0
 40
0.0104167
 41
0.0104167
  0
VERTEX
  8
0
 10
3.2149
 20
2.38135
 30
0.0
 40
0.0104167
 41
0.0104167
  0
VERTEX
  8
0
 10
3.21804
 20
3.67122
 30
0.0
 40
0.0104167
 41
0.0104167
  0
VERTEX
  8
0
 10
2.83447
 20
3.67219
 30
0.0
 40
0.0104167
 41
0.0104167
  0
SEQEND
 8
0
  0
POLYLINE
  8
0
 62
     7
 66
     1
 10
0
 20
0
 30
0.0
 70
     1
 40
0
 41
0
  0
VERTEX
  8
0
 10
3.0261
 20
3.59364
 30
0.0
 40
0
 41
0
  0
VERTEX
  8
0
 10
3.02328
 20
2.45996
 30
0.0
 40
0
 41
0
  0
SEQEND
 8
0
  0
POLYLINE
  8
0
 62
     0
 66
     1
 10
0
 20
0
 30
0.0
 40
0.75
 41
0.75
  0
VERTEX
  8
0
 10
3.0261
 20
3.59364
 30
0.0
 40
0.0104167
 41
0.0104167
  0
VERTEX
  8
0
 10
3.02328
 20
2.45996
 30
0.0
 40
0.0104167
 41
0.0104167
  0
SEQEND
 8
0
  0
POLYLINE
  8
0
 62
     7
 66
     1
 10
0
 20
0
 30
0.0
 70
     1
 40
0
 41
0
  0
VERTEX
  8
0
 10
2.83431
 20
3.59407
 30
0.0
 40
0
 41
0
  0
VERTEX
  8
0
 10
3.21789
 20
3.59315
 30
0.0
 40
0
 41
0
  0
SEQEND
 8
0
  0
POLYLINE
  8
0
 62
     0
 66
     1
 10
0
 20
0
 30
0.0
 40
0.75
 41
0.75
  0
VERTEX
  8
0
 10
2.83431
 20
3.59407
 30
0.0
 40
0.0104167
 41
0.0104167
  0
VERTEX
  8
0
 10
3.21789
 20
3.59315
 30
0.0
 40
0.0104167
 41
0.0104167
  0
SEQEND
 8
0
  0
POLYLINE
  8
0
 62
     7
 66
     1
 10
0
 20
0
 30
0.0
 70
     1
 40
0
 41
0
  0
VERTEX
  8
0
 10
2.83154
 20
2.46044
 30
0.0
 40
0
 41
0
  0
VERTEX
  8
0
 10
3.21506
 20
2.45947
 30
0.0
 40
0
 41
0
  0
SEQEND
 8
0
  0
POLYLINE
  8
0
 62
     0
 66
     1
 10
0
 20
0
 30
0.0
 40
0.75
 41
0.75
  0
VERTEX
  8
0
 10
2.83154
 20
2.46044
 30
0.0
 40
0.0104167
 41
0.0104167
  0
VERTEX
  8
0
 10
3.21506
 20
2.45947
 30
0.0
 40
0.0104167
 41
0.0104167
  0
SEQEND
 8
0
  0
POLYLINE
  8
0
 62
     7
 66
     1
 10
0
 20
0
 30
0.0
 70
     1
 40
0
 41
0
  0
VERTEX
  8
0
 10
2.83697
 20
4.68696
 30
0.0
 40
0
 41
0
  0
VERTEX
  8
0
 10
2.83469
 20
3.75
 30
0.0
 40
0
 41
0
  0
VERTEX
  8
0
 10
3.21821
 20
3.74908
 30
0.0
 40
0
 41
0
  0
VERTEX
  8
0
 10
3.22054
 20
4.68604
 30
0.0
 40
0
 41
0
  0
VERTEX
  8
0
 10
2.83697
 20
4.68696
 30
0.0
 40
0
 41
0
  0
SEQEND
 8
0
  0
POLYLINE
  8
0
 62
     0
 66
     1
 10
0
 20
0
 30
0.0
 70
     1
 40
0.75
 41
0.75
  0
VERTEX
  8
0
 10
2.83697
 20
4.68696
 30
0.0
 40
0.0104167
 41
0.0104167
  0
VERTEX
  8
0
 10
2.83469
 20
3.75
 30
0.0
 40
0.0104167
 41
0.0104167
  0
VERTEX
  8
0
 10
3.21821
 20
3.74908
 30
0.0
 40
0.0104167
 41
0.0104167
  0
VERTEX
  8
0
 10
3.22054
 20
4.68604
 30
0.0
 40
0.0104167
 41
0.0104167
  0
VERTEX
  8
0
 10
2.83697
 20
4.68696
 30
0.0
 40
0.0104167
 41
0.0104167
  0
SEQEND
 8
0
  0
POLYLINE
  8
0
 62
     7
 66
     1
 10
0
 20
0
 30
0.0
 70
     1
 40
0
 41
0
  0
VERTEX
  8
0
 10
2.83697
 20
4.68696
 30
0.0
 40
0
 41
0
  0
VERTEX
  8
0
 10
2.83469
 20
3.75
 30
0.0
 40
0
 41
0
  0
VERTEX
  8
0
 10
3.21821
 20
3.74908
 30
0.0
 40
0
 41
0
  0
VERTEX
  8
0
 10
3.22054
 20
4.68604
 30
0.0
 40
0
 41
0
  0
VERTEX
  8
0
 10
2.83697
 20
4.68696
 30
0.0
 40
0
 41
0
  0
SEQEND
 8
0
  0
POLYLINE
  8
0
 62
     0
 66
     1
 10
0
 20
0
 30
0.0
 70
     1
 40
0.75
 41
0.75
  0
VERTEX
  8
0
 10
2.83697
 20
4.68696
 30
0.0
 40
0.0104167
 41
0.0104167
  0
VERTEX
  8
0
 10
2.83469
 20
3.75
 30
0.0
 40
0.0104167
 41
0.0104167
  0
VERTEX
  8
0
 10
3.21821
 20
3.74908
 30
0.0
 40
0.0104167
 41
0.0104167
  0
VERTEX
  8
0
 10
3.22054
 20
4.68604
 30
0.0
 40
0.0104167
 41
0.0104167
  0
VERTEX
  8
0
 10
2.83697
 20
4.68696
 30
0.0
 40
0.0104167
 41
0.0104167
  0
SEQEND
 8
0
  0
POLYLINE
  8
0
 62
     0
 66
     1
 10
0
 20
0
 30
0.0
 70
     1
 40
0.75
 41
0.75
  0
VERTEX
  8
0
 10
2.83469
 20
3.75
 30
0.0
 40
0.0104167
 41
0.0104167
  0
VERTEX
  8
0
 10
2.77979
 20
3.75017
 30
0.0
 40
0.0104167
 41
0.0104167
  0
VERTEX
  8
0
 10
2.61507
 20
3.76519
 30
0.0
 40
0.0104167
 41
0.0104167
  0
VERTEX
  8
0
 10
2.42486
 20
3.80957
 30
0.0
 40
0.0104167
 41
0.0104167
  0
VERTEX
  8
0
 10
2.264
 20
3.88319
 30
0.0
 40
0.0104167
 41
0.0104167
  0
VERTEX
  8
0
 10
2.13249
 20
3.986
 30
0.0
 40
0.0104167
 41
0.0104167
  0
VERTEX
  8
0
 10
2.03033
 20
4.118
 30
0.0
 40
0.0104167
 41
0.0104167
  0
VERTEX
  8
0
 10
1.95751
 20
4.27924
 30
0.0
 40
0.0104167
 41
0.0104167
  0
VERTEX
  8
0
 10
1.91407
 20
4.46967
 30
0.0
 40
0.0104167
 41
0.0104167
  0
VERTEX
  8
0
 10
1.89985
 20
4.63444
 30
0.0
 40
0.0104167
 41
0.0104167
  0
VERTEX
  8
0
 10
1.90001
 20
4.68929
 30
0.0
 40
0.0104167
 41
0.0104167
  0
VERTEX
  8
0
 10
2.83697
 20
4.68696
 30
0.0
 40
0.0104167
 41
0.0104167
  0
VERTEX
  8
0
 10
2.83469
 20
3.75
 30
0.0
 40
0.0104167
 41
0.0104167
  0
SEQEND
 8
0
  0
POLYLINE
  8
0
 62
     0
 66
     1
 10
0
 20
0
 30
0.0
 70
     1
 40
0.75
 41
0.75
  0
VERTEX
  8
0
 10
3.21821
 20
3.74908
 30
0.0
 40
0.0104167
 41
0.0104167
  0
VERTEX
  8
0
 10
3.27306
 20
3.74897
 30
0.0
 40
0.0104167
 41
0.0104167
  0
VERTEX
  8
0
 10
3.43782
 20
3.76318
 30
0.0
 40
0.0104167
 41
0.0104167
  0
VERTEX
  8
0
 10
3.62825
 20
3.80664
 30
0.0
 40
0.0104167
 41
0.0104167
  0
VERTEX
  8
0
 10
3.7895
 20
3.87944
 30
0.0
 40
0.0104167
 41
0.0104167
  0
VERTEX
  8
0
 10
3.9215
 20
3.98161
 30
0.0
 40
0.0104167
 41
0.0104167
  0
VERTEX
  8
0
 10
4.02431
 20
4.11312
 30
0.0
 40
0.0104167
 41
0.0104167
  0
VERTEX
  8
0
 10
4.09793
 20
4.27399
 30
0.0
 40
0.0104167
 41
0.0104167
  0
VERTEX
  8
0
 10
4.14231
 20
4.46419
 30
0.0
 40
0.0104167
 41
0.0104167
  0
VERTEX
  8
0
 10
4.15733
 20
4.6289
 30
0.0
 40
0.0104167
 41
0.0104167
  0
VERTEX
  8
0
 10
4.1575
 20
4.68375
 30
0.0
 40
0.0104167
 41
0.0104167
  0
VERTEX
  8
0
 10
3.22054
 20
4.68604
 30
0.0
 40
0.0104167
 41
0.0104167
  0
VERTEX
  8
0
 10
3.21821
 20
3.74908
 30
0.0
 40
0.0104167
 41
0.0104167
  0
SEQEND
 8
0
  0
POLYLINE
  8
0
 62
     0
 66
     1
 10
0
 20
0
 30
0.0
 70
     1
 40
0
 41
0
  0
VERTEX
  8
0
 10
3.22917
 20
8.50499
 30
0.0
 40
0
 41
0
  0
VERTEX
  8
0
 10
0.79145
 20
8.50499
 30
0.0
 40
0
 41
0
  0
VERTEX
  8
0
 10
0.9477
 20
8.34874
 30
0.0
 40
0
 41
0
  0
VERTEX
  8
0
 10
3.22917
 20
8.34874
 30
0.0
 40
0
 41
0
  0
VERTEX
  8
0
 10
3.22917
 20
8.50499
 30
0.0
 40
0
 41
0
  0
SEQEND
 8
0
  0
POLYLINE
  8
0
 62
     0
 66
     1
 10
0
 20
0
 30
0.0
 70
     1
 40
0.15
 41
0.15
  0
VERTEX
  8
0
 10
3.22917
 20
8.50499
 30
0.0
 40
0.00208333
 41
0.00208333
  0
VERTEX
  8
0
 10
0.79145
 20
8.50499
 30
0.0
 40
0.00208333
 41
0.00208333
  0
VERTEX
  8
0
 10
0.9477
 20
8.34874
 30
0.0
 40
0.00208333
 41
0.00208333
  0
VERTEX
  8
0
 10
3.22917
 20
8.34874
 30
0.0
 40
0.00208333
 41
0.00208333
  0
VERTEX
  8
0
 10
3.22917
 20
8.50499
 30
0.0
 40
0.00208333
 41
0.00208333
  0
SEQEND
 8
0
  0
POLYLINE
  8
0
 62
     0
 66
     1
 10
0
 20
0
 30
0.0
 70
     1
 40
0
 41
0
  0
VERTEX
  8
0
 10
0.79145
 20
8.50499
 30
0.0
 40
0
 41
0
  0
VERTEX
  8
0
 10
0.79145
 20
0.955946
 30
0.0
 40
0
 41
0
  0
VERTEX
  8
0
 10
0.9477
 20
1.12033
 30
0.0
 40
0
 41
0
  0
VERTEX
  8
0
 10
0.9477
 20
8.34874
 30
0.0
 40
0
 41
0
  0
VERTEX
  8
0
 10
0.79145
 20
8.50499
 30
0.0
 40
0
 41
0
  0
SEQEND
 8
0
  0
POLYLINE
  8
0
 62
     0
 66
     1
 10
0
 20
0
 30
0.0
 70
     1
 40
0.15
 41
0.15
  0
VERTEX
  8
0
 10
0.79145
 20
8.50499
 30
0.0
 40
0.00208333
 41
0.00208333
  0
VERTEX
  8
0
 10
0.79145
 20
0.955946
 30
0.0
 40
0.00208333
 41
0.00208333
  0
VERTEX
  8
0
 10
0.9477
 20
1.12033
 30
0.0
 40
0.00208333
 41
0.00208333
  0
VERTEX
  8
0
 10
0.9477
 20
8.34874
 30
0.0
 40
0.00208333
 41
0.00208333
  0
VERTEX
  8
0
 10
0.79145
 20
8.50499
 30
0.0
 40
0.00208333
 41
0.00208333
  0
SEQEND
 8
0
  0
POLYLINE
  8
0
 62
     7
 66
     1
 10
0
 20
0
 30
0.0
 70
     1
 40
0
 41
0
  0
VERTEX
  8
0
 10
0.79145
 20
8.32497
 30
0.0
 40
0
 41
0
  0
VERTEX
  8
0
 10
0.9477
 20
8.32497
 30
0.0
 40
0
 41
0
  0
VERTEX
  8
0
 10
0.9477
 20
1.15804
 30
0.0
 40
0
 41
0
  0
VERTEX
  8
0
 10
0.79145
 20
1.15804
 30
0.0
 40
0
 41
0
  0
VERTEX
  8
0
 10
0.79145
 20
8.32497
 30
0.0
 40
0
 41
0
  0
SEQEND
 8
0
  0
POLYLINE
  8
0
 62
     0
 66
     1
 10
0
 20
0
 30
0.0
 70
     1
 40
0.75
 41
0.75
  0
VERTEX
  8
0
 10
0.79145
 20
8.32497
 30
0.0
 40
0.0104167
 41
0.0104167
  0
VERTEX
  8
0
 10
0.9477
 20
8.32497
 30
0.0
 40
0.0104167
 41
0.0104167
  0
VERTEX
  8
0
 10
0.9477
 20
1.15804
 30
0.0
 40
0.0104167
 41
0.0104167
  0
VERTEX
  8
0
 10
0.79145
 20
1.15804
 30
0.0
 40
0.0104167
 41
0.0104167
  0
VERTEX
  8
0
 10
0.79145
 20
8.32497
 30
0.0
 40
0.0104167
 41
0.0104167
  0
SEQEND
 8
0
  0
POLYLINE
  8
0
 62
     7
 66
     1
 10
0
 20
0
 30
0.0
 70
     1
 40
0
 41
0
  0
VERTEX
  8
0
 10
0.79145
 20
8.32497
 30
0.0
 40
0
 41
0
  0
VERTEX
  8
0
 10
0.9477
 20
8.32497
 30
0.0
 40
0
 41
0
  0
VERTEX
  8
0
 10
0.9477
 20
1.15804
 30
0.0
 40
0
 41
0
  0
VERTEX
  8
0
 10
0.79145
 20
1.15804
 30
0.0
 40
0
 41
0
  0
VERTEX
  8
0
 10
0.79145
 20
8.32497
 30
0.0
 40
0
 41
0
  0
SEQEND
 8
0
  0
POLYLINE
  8
0
 62
     0
 66
     1
 10
0
 20
0
 30
0.0
 70
     1
 40
0.75
 41
0.75
  0
VERTEX
  8
0
 10
0.79145
 20
8.32497
 30
0.0
 40
0.0104167
 41
0.0104167
  0
VERTEX
  8
0
 10
0.9477
 20
8.32497
 30
0.0
 40
0.0104167
 41
0.0104167
  0
VERTEX
  8
0
 10
0.9477
 20
1.15804
 30
0.0
 40
0.0104167
 41
0.0104167
  0
VERTEX
  8
0
 10
0.79145
 20
1.15804
 30
0.0
 40
0.0104167
 41
0.0104167
  0
VERTEX
  8
0
 10
0.79145
 20
8.32497
 30
0.0
 40
0.0104167
 41
0.0104167
  0
SEQEND
 8
0
  0
POLYLINE
  8
0
 62
     0
 66
     1
 10
0
 20
0
 30
0.0
 40
0.75
 41
0.75
  0
VERTEX
  8
0
 10
0.869575
 20
8.2469
 30
0.0
 40
0.0104167
 41
0.0104167
  0
VERTEX
  8
0
 10
0.869575
 20
1.23617
 30
0.0
 40
0.0104167
 41
0.0104167
  0
SEQEND
 8
0
  0
POLYLINE
  8
0
 62
     0
 66
     1
 10
0
 20
0
 30
0.0
 40
0.75
 41
0.75
  0
VERTEX
  8
0
 10
0.79145
 20
8.2469
 30
0.0
 40
0.0104167
 41
0.0104167
  0
VERTEX
  8
0
 10
0.9477
 20
8.2469
 30
0.0
 40
0.0104167
 41
0.0104167
  0
SEQEND
 8
0
  0
POLYLINE
  8
0
 62
     0
 66
     1
 10
0
 20
0
 30
0.0
 40
0.75
 41
0.75
  0
VERTEX
  8
0
 10
0.79145
 20
1.23617
 30
0.0
 40
0.0104167
 41
0.0104167
  0
VERTEX
  8
0
 10
0.9477
 20
1.23617
 30
0.0
 40
0.0104167
 41
0.0104167
  0
SEQEND
 8
0
  0
POLYLINE
  8
0
 62
     0
 66
     1
 10
0
 20
0
 30
0.0
 70
     1
 40
0
 41
0
  0
VERTEX
  8
0
 10
0.79145
 20
0.955946
 30
0.0
 40
0
 41
0
  0
VERTEX
  8
0
 10
3.21332
 20
0.955946
 30
0.0
 40
0
 41
0
  0
VERTEX
  8
0
 10
3.21332
 20
1.12033
 30
0.0
 40
0
 41
0
  0
VERTEX
  8
0
 10
0.9477
 20
1.12033
 30
0.0
 40
0
 41
0
  0
VERTEX
  8
0
 10
0.79145
 20
0.955946
 30
0.0
 40
0
 41
0
  0
SEQEND
 8
0
  0
POLYLINE
  8
0
 62
     0
 66
     1
 10
0
 20
0
 30
0.0
 70
     1
 40
0.15
 41
0.15
  0
VERTEX
  8
0
 10
0.79145
 20
0.955946
 30
0.0
 40
0.00208333
 41
0.00208333
  0
VERTEX
  8
0
 10
3.21332
 20
0.955946
 30
0.0
 40
0.00208333
 41
0.00208333
  0
VERTEX
  8
0
 10
3.21332
 20
1.12033
 30
0.0
 40
0.00208333
 41
0.00208333
  0
VERTEX
  8
0
 10
0.9477
 20
1.12033
 30
0.0
 40
0.00208333
 41
0.00208333
  0
VERTEX
  8
0
 10
0.79145
 20
0.955946
 30
0.0
 40
0.00208333
 41
0.00208333
  0
SEQEND
 8
0
  0
POLYLINE
  8
0
 62
     0
 66
     1
 10
0
 20
0
 30
0.0
 70
     1
 40
0
 41
0
  0
VERTEX
  8
0
 10
8.16824
 20
1.43397
 30
0.0
 40
0
 41
0
  0
VERTEX
  8
0
 10
8.66689
 20
1.43397
 30
0.0
 40
0
 41
0
  0
VERTEX
  8
0
 10
8.66689
 20
0.957303
 30
0.0
 40
0
 41
0
  0
VERTEX
  8
0
 10
8.16824
 20
0.957303
 30
0.0
 40
0
 41
0
  0
VERTEX
  8
0
 10
8.16824
 20
1.43397
 30
0.0
 40
0
 41
0
  0
SEQEND
 8
0
  0
POLYLINE
  8
0
 62
     0
 66
     1
 10
0
 20
0
 30
0.0
 70
     1
 40
0.15
 41
0.15
  0
VERTEX
  8
0
 10
8.16824
 20
1.43397
 30
0.0
 40
0.00208333
 41
0.00208333
  0
VERTEX
  8
0
 10
8.66689
 20
1.43397
 30
0.0
 40
0.00208333
 41
0.00208333
  0
VERTEX
  8
0
 10
8.66689
 20
0.957303
 30
0.0
 40
0.00208333
 41
0.00208333
  0
VERTEX
  8
0
 10
8.16824
 20
0.957303
 30
0.0
 40
0.00208333
 41
0.00208333
  0
VERTEX
  8
0
 10
8.16824
 20
1.43397
 30
0.0
 40
0.00208333
 41
0.00208333
  0
SEQEND
 8
0
  0
POLYLINE
  8
0
 62
     0
 66
     1
 10
0
 20
0
 30
0.0
 70
     1
 40
0
 41
0
  0
VERTEX
  8
0
 10
8.16862
 20
3.60482
 30
0.0
 40
0
 41
0
  0
VERTEX
  8
0
 10
8.27647
 20
3.60482
 30
0.0
 40
0
 41
0
  0
VERTEX
  8
0
 10
8.27647
 20
1.43397
 30
0.0
 40
0
 41
0
  0
VERTEX
  8
0
 10
8.16862
 20
1.43397
 30
0.0
 40
0
 41
0
  0
VERTEX
  8
0
 10
8.16862
 20
3.60482
 30
0.0
 40
0
 41
0
  0
SEQEND
 8
0
  0
POLYLINE
  8
0
 62
     0
 66
     1
 10
0
 20
0
 30
0.0
 70
     1
 40
0.15
 41
0.15
  0
VERTEX
  8
0
 10
8.16862
 20
3.60482
 30
0.0
 40
0.00208333
 41
0.00208333
  0
VERTEX
  8
0
 10
8.27647
 20
3.60482
 30
0.0
 40
0.00208333
 41
0.00208333
  0
VERTEX
  8
0
 10
8.27647
 20
1.43397
 30
0.0
 40
0.00208333
 41
0.00208333
  0
VERTEX
  8
0
 10
8.16862
 20
1.43397
 30
0.0
 40
0.00208333
 41
0.00208333
  0
VERTEX
  8
0
 10
8.16862
 20
3.60482
 30
0.0
 40
0.00208333
 41
0.00208333
  0
SEQEND
 8
0
  0
POLYLINE
  8
0
 62
     0
 66
     1
 10
0
 20
0
 30
0.0
 70
     1
 40
0
 41
0
  0
VERTEX
  8
0
 10
2.83822
 20
5.25331
 30
0.0
 40
0
 41
0
  0
VERTEX
  8
0
 10
6.06114
 20
5.25331
 30
0.0
 40
0
 41
0
  0
VERTEX
  8
0
 10
6.06114
 20
5.13075
 30
0.0
 40
0
 41
0
  0
VERTEX
  8
0
 10
2.83822
 20
5.13075
 30
0.0
 40
0
 41
0
  0
VERTEX
  8
0
 10
2.83822
 20
5.25331
 30
0.0
 40
0
 41
0
  0
SEQEND
 8
0
  0
POLYLINE
  8
0
 62
     0
 66
     1
 10
0
 20
0
 30
0.0
 70
     1
 40
0.15
 41
0.15
  0
VERTEX
  8
0
 10
2.83822
 20
5.25331
 30
0.0
 40
0.00208333
 41
0.00208333
  0
VERTEX
  8
0
 10
6.06114
 20
5.25331
 30
0.0
 40
0.00208333
 41
0.00208333
  0
VERTEX
  8
0
 10
6.06114
 20
5.13075
 30
0.0
 40
0.00208333
 41
0.00208333
  0
VERTEX
  8
0
 10
2.83822
 20
5.13075
 30
0.0
 40
0.00208333
 41
0.00208333
  0
VERTEX
  8
0
 10
2.83822
 20
5.25331
 30
0.0
 40
0.00208333
 41
0.00208333
  0
SEQEND
 8
0
  0
POLYLINE
  8
0
 62
     0
 66
     1
 10
0
 20
0
 30
0.0
 70
     1
 40
0
 41
0
  0
VERTEX
  8
0
 10
7.09239
 20
5.13075
 30
0.0
 40
0
 41
0
  0
VERTEX
  8
0
 10
8.8374
 20
5.13075
 30
0.0
 40
0
 41
0
  0
VERTEX
  8
0
 10
8.8374
 20
5.287
 30
0.0
 40
0
 41
0
  0
VERTEX
  8
0
 10
7.24864
 20
5.287
 30
0.0
 40
0
 41
0
  0
VERTEX
  8
0
 10
7.09239
 20
5.13075
 30
0.0
 40
0
 41
0
  0
SEQEND
 8
0
  0
POLYLINE
  8
0
 62
     0
 66
     1
 10
0
 20
0
 30
0.0
 70
     1
 40
0.15
 41
0.15
  0
VERTEX
  8
0
 10
7.09239
 20
5.13075
 30
0.0
 40
0.00208333
 41
0.00208333
  0
VERTEX
  8
0
 10
8.8374
 20
5.13075
 30
0.0
 40
0.00208333
 41
0.00208333
  0
VERTEX
  8
0
 10
8.8374
 20
5.287
 30
0.0
 40
0.00208333
 41
0.00208333
  0
VERTEX
  8
0
 10
7.24864
 20
5.287
 30
0.0
 40
0.00208333
 41
0.00208333
  0
VERTEX
  8
0
 10
7.09239
 20
5.13075
 30
0.0
 40
0.00208333
 41
0.00208333
  0
SEQEND
 8
0
  0
POLYLINE
  8
0
 62
     0
 66
     1
 10
0
 20
0
 30
0.0
 70
     1
 40
0
 41
0
  0
VERTEX
  8
0
 10
8.8374
 20
5.13075
 30
0.0
 40
0
 41
0
  0
VERTEX
  8
0
 10
13.1764
 20
5.13075
 30
0.0
 40
0
 41
0
  0
VERTEX
  8
0
 10
13.0706
 20
5.23654
 30
0.0
 40
0
 41
0
  0
VERTEX
  8
0
 10
8.8374
 20
5.23654
 30
0.0
 40
0
 41
0
  0
VERTEX
  8
0
 10
8.8374
 20
5.13075
 30
0.0
 40
0
 41
0
  0
SEQEND
 8
0
  0
POLYLINE
  8
0
 62
     0
 66
     1
 10
0
 20
0
 30
0.0
 70
     1
 40
0.15
 41
0.15
  0
VERTEX
  8
0
 10
8.8374
 20
5.13075
 30
0.0
 40
0.00208333
 41
0.00208333
  0
VERTEX
  8
0
 10
13.1764
 20
5.13075
 30
0.0
 40
0.00208333
 41
0.00208333
  0
VERTEX
  8
0
 10
13.0706
 20
5.23654
 30
0.0
 40
0.00208333
 41
0.00208333
  0
VERTEX
  8
0
 10
8.8374
 20
5.23654
 30
0.0
 40
0.00208333
 41
0.00208333
  0
VERTEX
  8
0
 10
8.8374
 20
5.13075
 30
0.0
 40
0.00208333
 41
0.00208333
  0
SEQEND
 8
0
  0
POLYLINE
  8
0
 62
     7
 66
     1
 10
0
 20
0
 30
0.0
 70
     1
 40
0
 41
0
  0
VERTEX
  8
0
 10
9.53771
 20
5.23654
 30
0.0
 40
0
 41
0
  0
VERTEX
  8
0
 10
10.3574
 20
5.23654
 30
0.0
 40
0
 41
0
  0
VERTEX
  8
0
 10
10.3574
 20
5.13075
 30
0.0
 40
0
 41
0
  0
VERTEX
  8
0
 10
9.53771
 20
5.13075
 30
0.0
 40
0
 41
0
  0
VERTEX
  8
0
 10
9.53771
 20
5.23654
 30
0.0
 40
0
 41
0
  0
SEQEND
 8
0
  0
POLYLINE
  8
0
 62
     0
 66
     1
 10
0
 20
0
 30
0.0
 70
     1
 40
0.75
 41
0.75
  0
VERTEX
  8
0
 10
9.53771
 20
5.23654
 30
0.0
 40
0.0104167
 41
0.0104167
  0
VERTEX
  8
0
 10
10.3574
 20
5.23654
 30
0.0
 40
0.0104167
 41
0.0104167
  0
VERTEX
  8
0
 10
10.3574
 20
5.13075
 30
0.0
 40
0.0104167
 41
0.0104167
  0
VERTEX
  8
0
 10
9.53771
 20
5.13075
 30
0.0
 40
0.0104167
 41
0.0104167
  0
VERTEX
  8
0
 10
9.53771
 20
5.23654
 30
0.0
 40
0.0104167
 41
0.0104167
  0
SEQEND
 8
0
  0
POLYLINE
  8
0
 62
     7
 66
     1
 10
0
 20
0
 30
0.0
 70
     1
 40
0
 41
0
  0
VERTEX
  8
0
 10
9.53771
 20
5.23654
 30
0.0
 40
0
 41
0
  0
VERTEX
  8
0
 10
10.3574
 20
5.23654
 30
0.0
 40
0
 41
0
  0
VERTEX
  8
0
 10
10.3574
 20
5.13075
 30
0.0
 40
0
 41
0
  0
VERTEX
  8
0
 10
9.53771
 20
5.13075
 30
0.0
 40
0
 41
0
  0
VERTEX
  8
0
 10
9.53771
 20
5.23654
 30
0.0
 40
0
 41
0
  0
SEQEND
 8
0
  0
POLYLINE
  8
0
 62
     0
 66
     1
 10
0
 20
0
 30
0.0
 70
     1
 40
0.75
 41
0.75
  0
VERTEX
  8
0
 10
9.53771
 20
5.23654
 30
0.0
 40
0.0104167
 41
0.0104167
  0
VERTEX
  8
0
 10
10.3574
 20
5.23654
 30
0.0
 40
0.0104167
 41
0.0104167
  0
VERTEX
  8
0
 10
10.3574
 20
5.13075
 30
0.0
 40
0.0104167
 41
0.0104167
  0
VERTEX
  8
0
 10
9.53771
 20
5.13075
 30
0.0
 40
0.0104167
 41
0.0104167
  0
VERTEX
  8
0
 10
9.53771
 20
5.23654
 30
0.0
 40
0.0104167
 41
0.0104167
  0
SEQEND
 8
0
  0
POLYLINE
  8
0
 62
     0
 66
     1
 10
0
 20
0
 30
0.0
 70
     1
 40
0.75
 41
0.75
  0
VERTEX
  8
0
 10
9.53771
 20
5.13075
 30
0.0
 40
0.0104167
 41
0.0104167
  0
VERTEX
  8
0
 10
9.53771
 20
5.08274
 30
0.0
 40
0.0104167
 41
0.0104167
  0
VERTEX
  8
0
 10
9.55051
 20
4.93864
 30
0.0
 40
0.0104167
 41
0.0104167
  0
VERTEX
  8
0
 10
9.58892
 20
4.77208
 30
0.0
 40
0.0104167
 41
0.0104167
  0
VERTEX
  8
0
 10
9.65294
 20
4.63118
 30
0.0
 40
0.0104167
 41
0.0104167
  0
VERTEX
  8
0
 10
9.74262
 20
4.5159
 30
0.0
 40
0.0104167
 41
0.0104167
  0
VERTEX
  8
0
 10
9.85792
 20
4.42622
 30
0.0
 40
0.0104167
 41
0.0104167
  0
VERTEX
  8
0
 10
9.99881
 20
4.36219
 30
0.0
 40
0.0104167
 41
0.0104167
  0
VERTEX
  8
0
 10
10.1653
 20
4.32379
 30
0.0
 40
0.0104167
 41
0.0104167
  0
VERTEX
  8
0
 10
10.3094
 20
4.31093
 30
0.0
 40
0.0104167
 41
0.0104167
  0
VERTEX
  8
0
 10
10.3575
 20
4.31093
 30
0.0
 40
0.0104167
 41
0.0104167
  0
VERTEX
  8
0
 10
10.3575
 20
5.13075
 30
0.0
 40
0.0104167
 41
0.0104167
  0
VERTEX
  8
0
 10
9.53771
 20
5.13075
 30
0.0
 40
0.0104167
 41
0.0104167
  0
SEQEND
 8
0
  0
POLYLINE
  8
0
 62
     0
 66
     1
 10
0
 20
0
 30
0.0
 70
     1
 40
0
 41
0
  0
VERTEX
  8
0
 10
13.1764
 20
5.13075
 30
0.0
 40
0
 41
0
  0
VERTEX
  8
0
 10
13.1764
 20
5.8374
 30
0.0
 40
0
 41
0
  0
VERTEX
  8
0
 10
13.0706
 20
5.8374
 30
0.0
 40
0
 41
0
  0
VERTEX
  8
0
 10
13.0706
 20
5.23654
 30
0.0
 40
0
 41
0
  0
VERTEX
  8
0
 10
13.1764
 20
5.13075
 30
0.0
 40
0
 41
0
  0
SEQEND
 8
0
  0
POLYLINE
  8
0
 62
     0
 66
     1
 10
0
 20
0
 30
0.0
 70
     1
 40
0.15
 41
0.15
  0
VERTEX
  8
0
 10
13.1764
 20
5.13075
 30
0.0
 40
0.00208333
 41
0.00208333
  0
VERTEX
  8
0
 10
13.1764
 20
5.8374
 30
0.0
 40
0.00208333
 41
0.00208333
  0
VERTEX
  8
0
 10
13.0706
 20
5.8374
 30
0.0
 40
0.00208333
 41
0.00208333
  0
VERTEX
  8
0
 10
13.0706
 20
5.23654
 30
0.0
 40
0.00208333
 41
0.00208333
  0
VERTEX
  8
0
 10
13.1764
 20
5.13075
 30
0.0
 40
0.00208333
 41
0.00208333
  0
SEQEND
 8
0
  0
POLYLINE
  8
0
 62
     0
 66
     1
 10
0
 20
0
 30
0.0
 70
     1
 40
0
 41
0
  0
VERTEX
  8
0
 10
7.24864
 20
5.287
 30
0.0
 40
0
 41
0
  0
VERTEX
  8
0
 10
7.24864
 20
6.88894
 30
0.0
 40
0
 41
0
  0
VERTEX
  8
0
 10
7.09239
 20
7.04519
 30
0.0
 40
0
 41
0
  0
VERTEX
  8
0
 10
7.09239
 20
5.13075
 30
0.0
 40
0
 41
0
  0
VERTEX
  8
0
 10
7.24864
 20
5.287
 30
0.0
 40
0
 41
0
  0
SEQEND
 8
0
  0
POLYLINE
  8
0
 62
     0
 66
     1
 10
0
 20
0
 30
0.0
 70
     1
 40
0.15
 41
0.15
  0
VERTEX
  8
0
 10
7.24864
 20
5.287
 30
0.0
 40
0.00208333
 41
0.00208333
  0
VERTEX
  8
0
 10
7.24864
 20
6.88894
 30
0.0
 40
0.00208333
 41
0.00208333
  0
VERTEX
  8
0
 10
7.09239
 20
7.04519
 30
0.0
 40
0.00208333
 41
0.00208333
  0
VERTEX
  8
0
 10
7.09239
 20
5.13075
 30
0.0
 40
0.00208333
 41
0.00208333
  0
VERTEX
  8
0
 10
7.24864
 20
5.287
 30
0.0
 40
0.00208333
 41
0.00208333
  0
SEQEND
 8
0
  0
POLYLINE
  8
0
 62
     0
 66
     1
 10
0
 20
0
 30
0.0
 70
     1
 40
0
 41
0
  0
VERTEX
  8
0
 10
7.24864
 20
6.88894
 30
0.0
 40
0
 41
0
  0
VERTEX
  8
0
 10
8.85249
 20
6.88894
 30
0.0
 40
0
 41
0
  0
VERTEX
  8
0
 10
8.7399
 20
7.04519
 30
0.0
 40
0
 41
0
  0
VERTEX
  8
0
 10
7.09239
 20
7.04519
 30
0.0
 40
0
 41
0
  0
VERTEX
  8
0
 10
7.24864
 20
6.88894
 30
0.0
 40
0
 41
0
  0
SEQEND
 8
0
  0
POLYLINE
  8
0
 62
     0
 66
     1
 10
0
 20
0
 30
0.0
 70
     1
 40
0.15
 41
0.15
  0
VERTEX
  8
0
 10
7.24864
 20
6.88894
 30
0.0
 40
0.00208333
 41
0.00208333
  0
VERTEX
  8
0
 10
8.85249
 20
6.88894
 30
0.0
 40
0.00208333
 41
0.00208333
  0
VERTEX
  8
0
 10
8.7399
 20
7.04519
 30
0.0
 40
0.00208333
 41
0.00208333
  0
VERTEX
  8
0
 10
7.09239
 20
7.04519
 30
0.0
 40
0.00208333
 41
0.00208333
  0
VERTEX
  8
0
 10
7.24864
 20
6.88894
 30
0.0
 40
0.00208333
 41
0.00208333
  0
SEQEND
 8
0
  0
POLYLINE
  8
0
 62
     0
 66
     1
 10
0
 20
0
 30
0.0
 70
     1
 40
0
 41
0
  0
VERTEX
  8
0
 10
8.85249
 20
6.88894
 30
0.0
 40
0
 41
0
  0
VERTEX
  8
0
 10
8.85249
 20
8.50261
 30
0.0
 40
0
 41
0
  0
VERTEX
  8
0
 10
8.7399
 20
8.50261
 30
0.0
 40
0
 41
0
  0
VERTEX
  8
0
 10
8.7399
 20
7.04519
 30
0.0
 40
0
 41
0
  0
VERTEX
  8
0
 10
8.85249
 20
6.88894
 30
0.0
 40
0
 41
0
  0
SEQEND
 8
0
  0
POLYLINE
  8
0
 62
     0
 66
     1
 10
0
 20
0
 30
0.0
 70
     1
 40
0.15
 41
0.15
  0
VERTEX
  8
0
 10
8.85249
 20
6.88894
 30
0.0
 40
0.00208333
 41
0.00208333
  0
VERTEX
  8
0
 10
8.85249
 20
8.50261
 30
0.0
 40
0.00208333
 41
0.00208333
  0
VERTEX
  8
0
 10
8.7399
 20
8.50261
 30
0.0
 40
0.00208333
 41
0.00208333
  0
VERTEX
  8
0
 10
8.7399
 20
7.04519
 30
0.0
 40
0.00208333
 41
0.00208333
  0
VERTEX
  8
0
 10
8.85249
 20
6.88894
 30
0.0
 40
0.00208333
 41
0.00208333
  0
SEQEND
 8
0
  0
POLYLINE
  8
0
 62
     0
 66
     1
 10
0
 20
0
 30
0.0
 70
     1
 40
0
 41
0
  0
VERTEX
  8
0
 10
8.67626
 20
5.99875
 30
0.0
 40
0
 41
0
  0
VERTEX
  8
0
 10
8.85335
 20
5.99875
 30
0.0
 40
0
 41
0
  0
VERTEX
  8
0
 10
8.85335
 20
5.13075
 30
0.0
 40
0
 41
0
  0
VERTEX
  8
0
 10
8.67626
 20
5.13075
 30
0.0
 40
0
 41
0
  0
VERTEX
  8
0
 10
8.67626
 20
5.99875
 30
0.0
 40
0
 41
0
  0
SEQEND
 8
0
  0
POLYLINE
  8
0
 62
     0
 66
     1
 10
0
 20
0
 30
0.0
 70
     1
 40
0.15
 41
0.15
  0
VERTEX
  8
0
 10
8.67626
 20
5.99875
 30
0.0
 40
0.00208333
 41
0.00208333
  0
VERTEX
  8
0
 10
8.85335
 20
5.99875
 30
0.0
 40
0.00208333
 41
0.00208333
  0
VERTEX
  8
0
 10
8.85335
 20
5.13075
 30
0.0
 40
0.00208333
 41
0.00208333
  0
VERTEX
  8
0
 10
8.67626
 20
5.13075
 30
0.0
 40
0.00208333
 41
0.00208333
  0
VERTEX
  8
0
 10
8.67626
 20
5.99875
 30
0.0
 40
0.00208333
 41
0.00208333
  0
SEQEND
 8
0
  0
POLYLINE
  8
0
 62
     0
 66
     1
 10
0
 20
0
 30
0.0
 70
     1
 40
0
 41
0
  0
VERTEX
  8
0
 10
8.73936
 20
7.04519
 30
0.0
 40
0
 41
0
  0
VERTEX
  8
0
 10
8.85167
 20
7.04519
 30
0.0
 40
0
 41
0
  0
VERTEX
  8
0
 10
8.85167
 20
5.99875
 30
0.0
 40
0
 41
0
  0
VERTEX
  8
0
 10
8.73936
 20
5.99875
 30
0.0
 40
0
 41
0
  0
VERTEX
  8
0
 10
8.73936
 20
7.04519
 30
0.0
 40
0
 41
0
  0
SEQEND
 8
0
  0
POLYLINE
  8
0
 62
     0
 66
     1
 10
0
 20
0
 30
0.0
 70
     1
 40
0.15
 41
0.15
  0
VERTEX
  8
0
 10
8.73936
 20
7.04519
 30
0.0
 40
0.00208333
 41
0.00208333
  0
VERTEX
  8
0
 10
8.85167
 20
7.04519
 30
0.0
 40
0.00208333
 41
0.00208333
  0
VERTEX
  8
0
 10
8.85167
 20
5.99875
 30
0.0
 40
0.00208333
 41
0.00208333
  0
VERTEX
  8
0
 10
8.73936
 20
5.99875
 30
0.0
 40
0.00208333
 41
0.00208333
  0
VERTEX
  8
0
 10
8.73936
 20
7.04519
 30
0.0
 40
0.00208333
 41
0.00208333
  0
SEQEND
 8
0
  0
POLYLINE
  8
0
 62
     7
 66
     1
 10
0
 20
0
 30
0.0
 70
     1
 40
0
 41
0
  0
VERTEX
  8
0
 10
8.73936
 20
6.8374
 30
0.0
 40
0
 41
0
  0
VERTEX
  8
0
 10
8.85167
 20
6.8374
 30
0.0
 40
0
 41
0
  0
VERTEX
  8
0
 10
8.85167
 20
6.03396
 30
0.0
 40
0
 41
0
  0
VERTEX
  8
0
 10
8.73936
 20
6.03396
 30
0.0
 40
0
 41
0
  0
VERTEX
  8
0
 10
8.73936
 20
6.8374
 30
0.0
 40
0
 41
0
  0
SEQEND
 8
0
  0
POLYLINE
  8
0
 62
     0
 66
     1
 10
0
 20
0
 30
0.0
 70
     1
 40
0.75
 41
0.75
  0
VERTEX
  8
0
 10
8.73936
 20
6.8374
 30
0.0
 40
0.0104167
 41
0.0104167
  0
VERTEX
  8
0
 10
8.85167
 20
6.8374
 30
0.0
 40
0.0104167
 41
0.0104167
  0
VERTEX
  8
0
 10
8.85167
 20
6.03396
 30
0.0
 40
0.0104167
 41
0.0104167
  0
VERTEX
  8
0
 10
8.73936
 20
6.03396
 30
0.0
 40
0.0104167
 41
0.0104167
  0
VERTEX
  8
0
 10
8.73936
 20
6.8374
 30
0.0
 40
0.0104167
 41
0.0104167
  0
SEQEND
 8
0
  0
POLYLINE
  8
0
 62
     7
 66
     1
 10
0
 20
0
 30
0.0
 70
     1
 40
0
 41
0
  0
VERTEX
  8
0
 10
8.73936
 20
6.8374
 30
0.0
 40
0
 41
0
  0
VERTEX
  8
0
 10
8.85167
 20
6.8374
 30
0.0
 40
0
 41
0
  0
VERTEX
  8
0
 10
8.85167
 20
6.03396
 30
0.0
 40
0
 41
0
  0
VERTEX
  8
0
 10
8.73936
 20
6.03396
 30
0.0
 40
0
 41
0
  0
VERTEX
  8
0
 10
8.73936
 20
6.8374
 30
0.0
 40
0
 41
0
  0
SEQEND
 8
0
  0
POLYLINE
  8
0
 62
     0
 66
     1
 10
0
 20
0
 30
0.0
 70
     1
 40
0.75
 41
0.75
  0
VERTEX
  8
0
 10
8.73936
 20
6.8374
 30
0.0
 40
0.0104167
 41
0.0104167
  0
VERTEX
  8
0
 10
8.85167
 20
6.8374
 30
0.0
 40
0.0104167
 41
0.0104167
  0
VERTEX
  8
0
 10
8.85167
 20
6.03396
 30
0.0
 40
0.0104167
 41
0.0104167
  0
VERTEX
  8
0
 10
8.73936
 20
6.03396
 30
0.0
 40
0.0104167
 41
0.0104167
  0
VERTEX
  8
0
 10
8.73936
 20
6.8374
 30
0.0
 40
0.0104167
 41
0.0104167
  0
SEQEND
 8
0
  0
POLYLINE
  8
0
 62
     0
 66
     1
 10
0
 20
0
 30
0.0
 70
     1
 40
0.75
 41
0.75
  0
VERTEX
  8
0
 10
8.85167
 20
6.8374
 30
0.0
 40
0.0104167
 41
0.0104167
  0
VERTEX
  8
0
 10
8.89871
 20
6.8374
 30
0.0
 40
0.0104167
 41
0.0104167
  0
VERTEX
  8
0
 10
9.03993
 20
6.82487
 30
0.0
 40
0.0104167
 41
0.0104167
  0
VERTEX
  8
0
 10
9.20318
 20
6.78722
 30
0.0
 40
0.0104167
 41
0.0104167
  0
VERTEX
  8
0
 10
9.34125
 20
6.72444
 30
0.0
 40
0.0104167
 41
0.0104167
  0
VERTEX
  8
0
 10
9.45421
 20
6.63656
 30
0.0
 40
0.0104167
 41
0.0104167
  0
VERTEX
  8
0
 10
9.5421
 20
6.5236
 30
0.0
 40
0.0104167
 41
0.0104167
  0
VERTEX
  8
0
 10
9.60488
 20
6.38553
 30
0.0
 40
0.0104167
 41
0.0104167
  0
VERTEX
  8
0
 10
9.64253
 20
6.22228
 30
0.0
 40
0.0104167
 41
0.0104167
  0
VERTEX
  8
0
 10
9.65511
 20
6.08106
 30
0.0
 40
0.0104167
 41
0.0104167
  0
VERTEX
  8
0
 10
9.65511
 20
6.03396
 30
0.0
 40
0.0104167
 41
0.0104167
  0
VERTEX
  8
0
 10
8.85167
 20
6.03396
 30
0.0
 40
0.0104167
 41
0.0104167
  0
VERTEX
  8
0
 10
8.85167
 20
6.8374
 30
0.0
 40
0.0104167
 41
0.0104167
  0
SEQEND
 8
0
  0
POLYLINE
  8
0
 62
     0
 66
     1
 10
0
 20
0
 30
0.0
 70
     1
 40
0
 41
0
  0
VERTEX
  8
0
 10
7.09304
 20
8.50261
 30
0.0
 40
0
 41
0
  0
VERTEX
  8
0
 10
7.20281
 20
8.50261
 30
0.0
 40
0
 41
0
  0
VERTEX
  8
0
 10
7.20281
 20
6.88894
 30
0.0
 40
0
 41
0
  0
VERTEX
  8
0
 10
7.09304
 20
6.88894
 30
0.0
 40
0
 41
0
  0
VERTEX
  8
0
 10
7.09304
 20
8.50261
 30
0.0
 40
0
 41
0
  0
SEQEND
 8
0
  0
POLYLINE
  8
0
 62
     0
 66
     1
 10
0
 20
0
 30
0.0
 70
     1
 40
0.15
 41
0.15
  0
VERTEX
  8
0
 10
7.09304
 20
8.50261
 30
0.0
 40
0.00208333
 41
0.00208333
  0
VERTEX
  8
0
 10
7.20281
 20
8.50261
 30
0.0
 40
0.00208333
 41
0.00208333
  0
VERTEX
  8
0
 10
7.20281
 20
6.88894
 30
0.0
 40
0.00208333
 41
0.00208333
  0
VERTEX
  8
0
 10
7.09304
 20
6.88894
 30
0.0
 40
0.00208333
 41
0.00208333
  0
VERTEX
  8
0
 10
7.09304
 20
8.50261
 30
0.0
 40
0.00208333
 41
0.00208333
  0
SEQEND
 8
0
  0
POLYLINE
  8
0
 62
     7
 66
     1
 10
0
 20
0
 30
0.0
 70
     1
 40
0
 41
0
  0
VERTEX
  8
0
 10
7.09304
 20
7.92356
 30
0.0
 40
0
 41
0
  0
VERTEX
  8
0
 10
7.20281
 20
7.92356
 30
0.0
 40
0
 41
0
  0
VERTEX
  8
0
 10
7.20281
 20
7.09825
 30
0.0
 40
0
 41
0
  0
VERTEX
  8
0
 10
7.09304
 20
7.09825
 30
0.0
 40
0
 41
0
  0
VERTEX
  8
0
 10
7.09304
 20
7.92356
 30
0.0
 40
0
 41
0
  0
SEQEND
 8
0
  0
POLYLINE
  8
0
 62
     0
 66
     1
 10
0
 20
0
 30
0.0
 70
     1
 40
0.75
 41
0.75
  0
VERTEX
  8
0
 10
7.09304
 20
7.92356
 30
0.0
 40
0.0104167
 41
0.0104167
  0
VERTEX
  8
0
 10
7.20281
 20
7.92356
 30
0.0
 40
0.0104167
 41
0.0104167
  0
VERTEX
  8
0
 10
7.20281
 20
7.09825
 30
0.0
 40
0.0104167
 41
0.0104167
  0
VERTEX
  8
0
 10
7.09304
 20
7.09825
 30
0.0
 40
0.0104167
 41
0.0104167
  0
VERTEX
  8
0
 10
7.09304
 20
7.92356
 30
0.0
 40
0.0104167
 41
0.0104167
  0
SEQEND
 8
0
  0
POLYLINE
  8
0
 62
     7
 66
     1
 10
0
 20
0
 30
0.0
 70
     1
 40
0
 41
0
  0
VERTEX
  8
0
 10
7.09304
 20
7.92356
 30
0.0
 40
0
 41
0
  0
VERTEX
  8
0
 10
7.20281
 20
7.92356
 30
0.0
 40
0
 41
0
  0
VERTEX
  8
0
 10
7.20281
 20
7.09825
 30
0.0
 40
0
 41
0
  0
VERTEX
  8
0
 10
7.09304
 20
7.09825
 30
0.0
 40
0
 41
0
  0
VERTEX
  8
0
 10
7.09304
 20
7.92356
 30
0.0
 40
0
 41
0
  0
SEQEND
 8
0
  0
POLYLINE
  8
0
 62
     0
 66
     1
 10
0
 20
0
 30
0.0
 70
     1
 40
0.75
 41
0.75
  0
VERTEX
  8
0
 10
7.09304
 20
7.92356
 30
0.0
 40
0.0104167
 41
0.0104167
  0
VERTEX
  8
0
 10
7.20281
 20
7.92356
 30
0.0
 40
0.0104167
 41
0.0104167
  0
VERTEX
  8
0
 10
7.20281
 20
7.09825
 30
0.0
 40
0.0104167
 41
0.0104167
  0
VERTEX
  8
0
 10
7.09304
 20
7.09825
 30
0.0
 40
0.0104167
 41
0.0104167
  0
VERTEX
  8
0
 10
7.09304
 20
7.92356
 30
0.0
 40
0.0104167
 41
0.0104167
  0
SEQEND
 8
0
  0
POLYLINE
  8
0
 62
     0
 66
     1
 10
0
 20
0
 30
0.0
 70
     1
 40
0.75
 41
0.75
  0
VERTEX
  8
0
 10
7.09304
 20
7.09825
 30
0.0
 40
0.0104167
 41
0.0104167
  0
VERTEX
  8
0
 10
7.04465
 20
7.09825
 30
0.0
 40
0.0104167
 41
0.0104167
  0
VERTEX
  8
0
 10
6.89958
 20
7.11117
 30
0.0
 40
0.0104167
 41
0.0104167
  0
VERTEX
  8
0
 10
6.73193
 20
7.14985
 30
0.0
 40
0.0104167
 41
0.0104167
  0
VERTEX
  8
0
 10
6.59006
 20
7.21436
 30
0.0
 40
0.0104167
 41
0.0104167
  0
VERTEX
  8
0
 10
6.47401
 20
7.30458
 30
0.0
 40
0.0104167
 41
0.0104167
  0
VERTEX
  8
0
 10
6.38374
 20
7.42062
 30
0.0
 40
0.0104167
 41
0.0104167
  0
VERTEX
  8
0
 10
6.31922
 20
7.5625
 30
0.0
 40
0.0104167
 41
0.0104167
  0
VERTEX
  8
0
 10
6.28054
 20
7.73014
 30
0.0
 40
0.0104167
 41
0.0104167
  0
VERTEX
  8
0
 10
6.26768
 20
7.87522
 30
0.0
 40
0.0104167
 41
0.0104167
  0
VERTEX
  8
0
 10
6.26768
 20
7.92356
 30
0.0
 40
0.0104167
 41
0.0104167
  0
VERTEX
  8
0
 10
7.09304
 20
7.92356
 30
0.0
 40
0.0104167
 41
0.0104167
  0
VERTEX
  8
0
 10
7.09304
 20
7.09825
 30
0.0
 40
0.0104167
 41
0.0104167
  0
SEQEND
 8
0
  0
POLYLINE
  8
0
 62
     0
 66
     1
 10
0
 20
0
 30
0.0
 70
     1
 40
0
 41
0
  0
VERTEX
  8
0
 10
11.0622
 20
7.98269
 30
0.0
 40
0
 41
0
  0
VERTEX
  8
0
 10
11.1816
 20
7.98269
 30
0.0
 40
0
 41
0
  0
VERTEX
  8
0
 10
11.1816
 20
5.13075
 30
0.0
 40
0
 41
0
  0
VERTEX
  8
0
 10
11.0622
 20
5.13075
 30
0.0
 40
0
 41
0
  0
VERTEX
  8
0
 10
11.0622
 20
7.98269
 30
0.0
 40
0
 41
0
  0
SEQEND
 8
0
  0
POLYLINE
  8
0
 62
     0
 66
     1
 10
0
 20
0
 30
0.0
 70
     1
 40
0.15
 41
0.15
  0
VERTEX
  8
0
 10
11.0622
 20
7.98269
 30
0.0
 40
0.00208333
 41
0.00208333
  0
VERTEX
  8
0
 10
11.1816
 20
7.98269
 30
0.0
 40
0.00208333
 41
0.00208333
  0
VERTEX
  8
0
 10
11.1816
 20
5.13075
 30
0.0
 40
0.00208333
 41
0.00208333
  0
VERTEX
  8
0
 10
11.0622
 20
5.13075
 30
0.0
 40
0.00208333
 41
0.00208333
  0
VERTEX
  8
0
 10
11.0622
 20
7.98269
 30
0.0
 40
0.00208333
 41
0.00208333
  0
SEQEND
 8
0
  0
POLYLINE
  8
0
 62
     0
 66
     1
 10
0
 20
0
 30
0.0
 70
     1
 40
0
 41
0
  0
VERTEX
  8
0
 10
10.7183
 20
8.50261
 30
0.0
 40
0
 41
0
  0
VERTEX
  8
0
 10
11.1816
 20
8.50261
 30
0.0
 40
0
 41
0
  0
VERTEX
  8
0
 10
11.1816
 20
7.98269
 30
0.0
 40
0
 41
0
  0
VERTEX
  8
0
 10
10.7183
 20
7.98269
 30
0.0
 40
0
 41
0
  0
VERTEX
  8
0
 10
10.7183
 20
8.50261
 30
0.0
 40
0
 41
0
  0
SEQEND
 8
0
  0
POLYLINE
  8
0
 62
     0
 66
     1
 10
0
 20
0
 30
0.0
 70
     1
 40
0.15
 41
0.15
  0
VERTEX
  8
0
 10
10.7183
 20
8.50261
 30
0.0
 40
0.00208333
 41
0.00208333
  0
VERTEX
  8
0
 10
11.1816
 20
8.50261
 30
0.0
 40
0.00208333
 41
0.00208333
  0
VERTEX
  8
0
 10
11.1816
 20
7.98269
 30
0.0
 40
0.00208333
 41
0.00208333
  0
VERTEX
  8
0
 10
10.7183
 20
7.98269
 30
0.0
 40
0.00208333
 41
0.00208333
  0
VERTEX
  8
0
 10
10.7183
 20
8.50261
 30
0.0
 40
0.00208333
 41
0.00208333
  0
SEQEND
 8
0
  0
POLYLINE
  8
0
 62
     7
 66
     1
 10
0
 20
0
 30
0.0
 70
     1
 40
0
 41
0
  0
VERTEX
  8
0
 10
14.1839
 20
2.93326
 30
0.0
 40
0
 41
0
  0
VERTEX
  8
0
 10
14.6424
 20
2.93326
 30
0.0
 40
0
 41
0
  0
VERTEX
  8
0
 10
14.6424
 20
1.10118
 30
0.0
 40
0
 41
0
  0
VERTEX
  8
0
 10
14.1839
 20
1.10118
 30
0.0
 40
0
 41
0
  0
VERTEX
  8
0
 10
14.1839
 20
2.93326
 30
0.0
 40
0
 41
0
  0
SEQEND
 8
0
  0
POLYLINE
  8
0
 62
     0
 66
     1
 10
0
 20
0
 30
0.0
 70
     1
 40
0.75
 41
0.75
  0
VERTEX
  8
0
 10
14.1839
 20
2.93326
 30
0.0
 40
0.0104167
 41
0.0104167
  0
VERTEX
  8
0
 10
14.1839
 20
1.10118
 30
0.0
 40
0.0104167
 41
0.0104167
  0
VERTEX
  8
0
 10
14.6424
 20
1.10118
 30
0.0
 40
0.0104167
 41
0.0104167
  0
VERTEX
  8
0
 10
14.6424
 20
2.93326
 30
0.0
 40
0.0104167
 41
0.0104167
  0
VERTEX
  8
0
 10
14.1839
 20
2.93326
 30
0.0
 40
0.0104167
 41
0.0104167
  0
SEQEND
 8
0
  0
POLYLINE
  8
0
 62
     253
 66
     1
 10
0
 20
0
 30
0.0
 40
0.75
 41
0.75
  0
VERTEX
  8
0
 10
14.4131
 20
2.93326
 30
0.0
 40
0.0104167
 41
0.0104167
  0
VERTEX
  8
0
 10
14.4131
 20
1.10124
 30
0.0
 40
0.0104167
 41
0.0104167
  0
SEQEND
 8
0
  0
POLYLINE
  8
0
 62
     7
 66
     1
 10
0
 20
0
 30
0.0
 70
     1
 40
0
 41
0
  0
VERTEX
  8
0
 10
11.1817
 20
5.83197
 30
0.0
 40
0
 41
0
  0
VERTEX
  8
0
 10
11.7931
 20
5.83197
 30
0.0
 40
0
 41
0
  0
VERTEX
  8
0
 10
11.7931
 20
5.23801
 30
0.0
 40
0
 41
0
  0
VERTEX
  8
0
 10
11.1817
 20
5.23801
 30
0.0
 40
0
 41
0
  0
VERTEX
  8
0
 10
11.1817
 20
5.83197
 30
0.0
 40
0
 41
0
  0
SEQEND
 8
0
  0
POLYLINE
  8
0
 62
     0
 66
     1
 10
0
 20
0
 30
0.0
 70
     1
 40
0.75
 41
0.75
  0
VERTEX
  8
0
 10
11.1817
 20
5.83197
 30
0.0
 40
0.0104167
 41
0.0104167
  0
VERTEX
  8
0
 10
11.7931
 20
5.83197
 30
0.0
 40
0.0104167
 41
0.0104167
  0
VERTEX
  8
0
 10
11.7931
 20
5.23801
 30
0.0
 40
0.0104167
 41
0.0104167
  0
VERTEX
  8
0
 10
11.1817
 20
5.23801
 30
0.0
 40
0.0104167
 41
0.0104167
  0
VERTEX
  8
0
 10
11.1817
 20
5.83197
 30
0.0
 40
0.0104167
 41
0.0104167
  0
SEQEND
 8
0
  0
POLYLINE
  8
0
 62
     7
 66
     1
 10
0
 20
0
 30
0.0
 70
     1
 40
0
 41
0
  0
VERTEX
  8
0
 10
12.4004
 20
5.83599
 30
0.0
 40
0
 41
0
  0
VERTEX
  8
0
 10
13.0254
 20
5.83599
 30
0.0
 40
0
 41
0
  0
VERTEX
  8
0
 10
13.0254
 20
5.24251
 30
0.0
 40
0
 41
0
  0
VERTEX
  8
0
 10
12.4004
 20
5.24251
 30
0.0
 40
0
 41
0
  0
VERTEX
  8
0
 10
12.4004
 20
5.83599
 30
0.0
 40
0
 41
0
  0
SEQEND
 8
0
  0
POLYLINE
  8
0
 62
     0
 66
     1
 10
0
 20
0
 30
0.0
 70
     1
 40
0.75
 41
0.75
  0
VERTEX
  8
0
 10
12.4004
 20
5.83599
 30
0.0
 40
0.0104167
 41
0.0104167
  0
VERTEX
  8
0
 10
13.0254
 20
5.83599
 30
0.0
 40
0.0104167
 41
0.0104167
  0
VERTEX
  8
0
 10
13.0254
 20
5.24251
 30
0.0
 40
0.0104167
 41
0.0104167
  0
VERTEX
  8
0
 10
12.4004
 20
5.24251
 30
0.0
 40
0.0104167
 41
0.0104167
  0
VERTEX
  8
0
 10
12.4004
 20
5.83599
 30
0.0
 40
0.0104167
 41
0.0104167
  0
SEQEND
 8
0
  0
POLYLINE
  8
0
 62
     253
 66
     1
 10
0
 20
0
 30
0.0
 40
0.75
 41
0.75
  0
VERTEX
  8
0
 10
13.0254
 20
5.53928
 30
0.0
 40
0.0104167
 41
0.0104167
  0
VERTEX
  8
0
 10
12.4004
 20
5.53928
 30
0.0
 40
0.0104167
 41
0.0104167
  0
SEQEND
 8
0
  0
POLYLINE
  8
0
 62
     7
 66
     1
 10
0
 20
0
 30
0.0
 70
     1
 40
0
 41
0
  0
VERTEX
  8
0
 10
11.7955
 20
5.83464
 30
0.0
 40
0
 41
0
  0
VERTEX
  8
0
 10
12.3942
 20
5.83464
 30
0.0
 40
0
 41
0
  0
VERTEX
  8
0
 10
12.3942
 20
5.24115
 30
0.0
 40
0
 41
0
  0
VERTEX
  8
0
 10
11.7955
 20
5.24115
 30
0.0
 40
0
 41
0
  0
VERTEX
  8
0
 10
11.7955
 20
5.83464
 30
0.0
 40
0
 41
0
  0
SEQEND
 8
0
  0
POLYLINE
  8
0
 62
     0
 66
     1
 10
0
 20
0
 30
0.0
 70
     1
 40
0.75
 41
0.75
  0
VERTEX
  8
0
 10
11.7955
 20
5.83464
 30
0.0
 40
0.0104167
 41
0.0104167
  0
VERTEX
  8
0
 10
12.3942
 20
5.83464
 30
0.0
 40
0.0104167
 41
0.0104167
  0
VERTEX
  8
0
 10
12.3942
 20
5.24115
 30
0.0
 40
0.0104167
 41
0.0104167
  0
VERTEX
  8
0
 10
11.7955
 20
5.24115
 30
0.0
 40
0.0104167
 41
0.0104167
  0
VERTEX
  8
0
 10
11.7955
 20
5.83464
 30
0.0
 40
0.0104167
 41
0.0104167
  0
SEQEND
 8
0
  0
POLYLINE
  8
0
 62
     253
 66
     1
 10
0
 20
0
 30
0.0
 40
0.75
 41
0.75
  0
VERTEX
  8
0
 10
12.3942
 20
5.53792
 30
0.0
 40
0.0104167
 41
0.0104167
  0
VERTEX
  8
0
 10
11.7955
 20
5.53792
 30
0.0
 40
0.0104167
 41
0.0104167
  0
SEQEND
 8
0
  0
POLYLINE
  8
0
 62
     7
 66
     1
 10
0
 20
0
 30
0.0
 70
     1
 40
0
 41
0
  0
VERTEX
  8
0
 10
13.0257
 20
5.83599
 30
0.0
 40
0
 41
0
  0
VERTEX
  8
0
 10
13.0706
 20
5.83599
 30
0.0
 40
0
 41
0
  0
VERTEX
  8
0
 10
13.0706
 20
5.24333
 30
0.0
 40
0
 41
0
  0
VERTEX
  8
0
 10
13.0257
 20
5.24333
 30
0.0
 40
0
 41
0
  0
VERTEX
  8
0
 10
13.0257
 20
5.83599
 30
0.0
 40
0
 41
0
  0
SEQEND
 8
0
  0
POLYLINE
  8
0
 62
     0
 66
     1
 10
0
 20
0
 30
0.0
 70
     1
 40
0.32355
 41
0.32355
  0
VERTEX
  8
0
 10
13.0257
 20
5.83599
 30
0.0
 40
0.00449375
 41
0.00449375
  0
VERTEX
  8
0
 10
13.0706
 20
5.83599
 30
0.0
 40
0.00449375
 41
0.00449375
  0
VERTEX
  8
0
 10
13.0706
 20
5.24333
 30
0.0
 40
0.00449375
 41
0.00449375
  0
VERTEX
  8
0
 10
13.0257
 20
5.24333
 30
0.0
 40
0.00449375
 41
0.00449375
  0
VERTEX
  8
0
 10
13.0257
 20
5.83599
 30
0.0
 40
0.00449375
 41
0.00449375
  0
SEQEND
 8
0
  0
POLYLINE
  8
0
 62
     7
 66
     1
 10
0
 20
0
 30
0.0
 70
     1
 40
0
 41
0
  0
VERTEX
  8
0
 10
10.4557
 20
5.83496
 30
0.0
 40
0
 41
0
  0
VERTEX
  8
0
 10
11.0622
 20
5.83496
 30
0.0
 40
0
 41
0
  0
VERTEX
  8
0
 10
11.0622
 20
5.23654
 30
0.0
 40
0
 41
0
  0
VERTEX
  8
0
 10
10.4557
 20
5.23654
 30
0.0
 40
0
 41
0
  0
VERTEX
  8
0
 10
10.4557
 20
5.83496
 30
0.0
 40
0
 41
0
  0
SEQEND
 8
0
  0
POLYLINE
  8
0
 62
     0
 66
     1
 10
0
 20
0
 30
0.0
 70
     1
 40
0.75
 41
0.75
  0
VERTEX
  8
0
 10
10.4557
 20
5.83496
 30
0.0
 40
0.0104167
 41
0.0104167
  0
VERTEX
  8
0
 10
10.4557
 20
5.23654
 30
0.0
 40
0.0104167
 41
0.0104167
  0
VERTEX
  8
0
 10
11.0622
 20
5.23654
 30
0.0
 40
0.0104167
 41
0.0104167
  0
VERTEX
  8
0
 10
11.0622
 20
5.83496
 30
0.0
 40
0.0104167
 41
0.0104167
  0
VERTEX
  8
0
 10
10.4557
 20
5.83496
 30
0.0
 40
0.0104167
 41
0.0104167
  0
SEQEND
 8
0
  0
POLYLINE
  8
0
 62
     7
 66
     1
 10
0
 20
0
 30
0.0
 70
     1
 40
0
 41
0
  0
VERTEX
  8
0
 10
10.4638
 20
6.60861
 30
0.0
 40
0
 41
0
  0
VERTEX
  8
0
 10
11.0622
 20
6.60861
 30
0.0
 40
0
 41
0
  0
VERTEX
  8
0
 10
11.0622
 20
5.98361
 30
0.0
 40
0
 41
0
  0
VERTEX
  8
0
 10
10.4638
 20
5.98361
 30
0.0
 40
0
 41
0
  0
VERTEX
  8
0
 10
10.4638
 20
6.60861
 30
0.0
 40
0
 41
0
  0
SEQEND
 8
0
  0
POLYLINE
  8
0
 62
     0
 66
     1
 10
0
 20
0
 30
0.0
 70
     1
 40
0.75
 41
0.75
  0
VERTEX
  8
0
 10
10.4638
 20
6.60861
 30
0.0
 40
0.0104167
 41
0.0104167
  0
VERTEX
  8
0
 10
10.4638
 20
5.98361
 30
0.0
 40
0.0104167
 41
0.0104167
  0
VERTEX
  8
0
 10
11.0622
 20
5.98361
 30
0.0
 40
0.0104167
 41
0.0104167
  0
VERTEX
  8
0
 10
11.0622
 20
6.60861
 30
0.0
 40
0.0104167
 41
0.0104167
  0
VERTEX
  8
0
 10
10.4638
 20
6.60861
 30
0.0
 40
0.0104167
 41
0.0104167
  0
SEQEND
 8
0
  0
POLYLINE
  8
0
 62
     0
 66
     1
 10
0
 20
0
 30
0.0
 40
0.75
 41
0.75
  0
VERTEX
  8
0
 10
11.0622
 20
6.60861
 30
0.0
 40
0.0104167
 41
0.0104167
  0
VERTEX
  8
0
 10
10.6653
 20
6.29503
 30
0.0
 40
0.0104167
 41
0.0104167
  0
VERTEX
  8
0
 10
10.8687
 20
6.29503
 30
0.0
 40
0.0104167
 41
0.0104167
  0
VERTEX
  8
0
 10
10.4638
 20
5.98465
 30
0.0
 40
0.0104167
 41
0.0104167
  0
SEQEND
 8
0
  0
POLYLINE
  8
0
 62
     7
 66
     1
 10
0
 20
0
 30
0.0
 70
     1
 40
0
 41
0
  0
VERTEX
  8
0
 10
10.7184
 20
7.98269
 30
0.0
 40
0
 41
0
  0
VERTEX
  8
0
 10
10.7184
 20
7.44374
 30
0.0
 40
0
 41
0
  0
VERTEX
  8
0
 10
10.5438
 20
7.24311
 30
0.0
 40
0
 41
0
  0
VERTEX
  8
0
 10
10.5438
 20
6.75537
 30
0.0
 40
0
 41
0
  0
VERTEX
  8
0
 10
11.0594
 20
6.75537
 30
0.0
 40
0
 41
0
  0
VERTEX
  8
0
 10
11.0622
 20
7.98269
 30
0.0
 40
0
 41
0
  0
VERTEX
  8
0
 10
10.7184
 20
7.98269
 30
0.0
 40
0
 41
0
  0
SEQEND
 8
0
  0
POLYLINE
  8
0
 62
     0
 66
     1
 10
0
 20
0
 30
0.0
 70
     1
 40
0.75
 41
0.75
  0
VERTEX
  8
0
 10
10.7184
 20
7.98269
 30
0.0
 40
0.0104167
 41
0.0104167
  0
VERTEX
  8
0
 10
10.7184
 20
7.44374
 30
0.0
 40
0.0104167
 41
0.0104167
  0
VERTEX
  8
0
 10
10.5438
 20
7.24311
 30
0.0
 40
0.0104167
 41
0.0104167
  0
VERTEX
  8
0
 10
10.5438
 20
6.75537
 30
0.0
 40
0.0104167
 41
0.0104167
  0
VERTEX
  8
0
 10
11.0594
 20
6.75537
 30
0.0
 40
0.0104167
 41
0.0104167
  0
VERTEX
  8
0
 10
11.0622
 20
7.98269
 30
0.0
 40
0.0104167
 41
0.0104167
  0
VERTEX
  8
0
 10
10.7184
 20
7.98269
 30
0.0
 40
0.0104167
 41
0.0104167
  0
SEQEND
 8
0
  0
POLYLINE
  8
0
 62
     7
 66
     1
 10
0
 20
0
 30
0.0
 70
     1
 40
0
 41
0
  0
VERTEX
  8
0
 10
10.7871
 20
6.82368
 30
0.0
 40
0
 41
0
  0
VERTEX
  8
0
 10
10.7667
 20
6.82368
 30
0.0
 40
0
 41
0
  0
VERTEX
  8
0
 10
10.7055
 20
6.84256
 30
0.0
 40
0
 41
0
  0
VERTEX
  8
0
 10
10.6388
 20
6.89388
 30
0.0
 40
0
 41
0
  0
VERTEX
  8
0
 10
10.5939
 20
6.97006
 30
0.0
 40
0
 41
0
  0
VERTEX
  8
0
 10
10.5775
 20
7.03999
 30
0.0
 40
0
 41
0
  0
VERTEX
  8
0
 10
10.5775
 20
7.06326
 30
0.0
 40
0
 41
0
  0
VERTEX
  8
0
 10
10.5775
 20
7.08658
 30
0.0
 40
0
 41
0
  0
VERTEX
  8
0
 10
10.5939
 20
7.15653
 30
0.0
 40
0
 41
0
  0
VERTEX
  8
0
 10
10.6388
 20
7.23269
 30
0.0
 40
0
 41
0
  0
VERTEX
  8
0
 10
10.7055
 20
7.28401
 30
0.0
 40
0
 41
0
  0
VERTEX
  8
0
 10
10.7667
 20
7.30285
 30
0.0
 40
0
 41
0
  0
VERTEX
  8
0
 10
10.7871
 20
7.30285
 30
0.0
 40
0
 41
0
  0
VERTEX
  8
0
 10
10.8074
 20
7.30285
 30
0.0
 40
0
 41
0
  0
VERTEX
  8
0
 10
10.8686
 20
7.28401
 30
0.0
 40
0
 41
0
  0
VERTEX
  8
0
 10
10.9352
 20
7.23269
 30
0.0
 40
0
 41
0
  0
VERTEX
  8
0
 10
10.9801
 20
7.15653
 30
0.0
 40
0
 41
0
  0
VERTEX
  8
0
 10
10.9966
 20
7.08658
 30
0.0
 40
0
 41
0
  0
VERTEX
  8
0
 10
10.9966
 20
7.06326
 30
0.0
 40
0
 41
0
  0
VERTEX
  8
0
 10
10.9966
 20
7.03999
 30
0.0
 40
0
 41
0
  0
VERTEX
  8
0
 10
10.9801
 20
6.97006
 30
0.0
 40
0
 41
0
  0
VERTEX
  8
0
 10
10.9352
 20
6.89388
 30
0.0
 40
0
 41
0
  0
VERTEX
  8
0
 10
10.8686
 20
6.84256
 30
0.0
 40
0
 41
0
  0
VERTEX
  8
0
 10
10.8074
 20
6.82368
 30
0.0
 40
0
 41
0
  0
VERTEX
  8
0
 10
10.7871
 20
6.82368
 30
0.0
 40
0
 41
0
  0
SEQEND
 8
0
  0
POLYLINE
  8
0
 62
     0
 66
     1
 10
0
 20
0
 30
0.0
 70
     1
 40
0.75
 41
0.75
  0
VERTEX
  8
0
 10
10.7871
 20
6.82368
 30
0.0
 40
0.0104167
 41
0.0104167
  0
VERTEX
  8
0
 10
10.7667
 20
6.82368
 30
0.0
 40
0.0104167
 41
0.0104167
  0
VERTEX
  8
0
 10
10.7055
 20
6.84256
 30
0.0
 40
0.0104167
 41
0.0104167
  0
VERTEX
  8
0
 10
10.6388
 20
6.89388
 30
0.0
 40
0.0104167
 41
0.0104167
  0
VERTEX
  8
0
 10
10.5939
 20
6.97006
 30
0.0
 40
0.0104167
 41
0.0104167
  0
VERTEX
  8
0
 10
10.5775
 20
7.03999
 30
0.0
 40
0.0104167
 41
0.0104167
  0
VERTEX
  8
0
 10
10.5775
 20
7.06326
 30
0.0
 40
0.0104167
 41
0.0104167
  0
VERTEX
  8
0
 10
10.5775
 20
7.08658
 30
0.0
 40
0.0104167
 41
0.0104167
  0
VERTEX
  8
0
 10
10.5939
 20
7.15653
 30
0.0
 40
0.0104167
 41
0.0104167
  0
VERTEX
  8
0
 10
10.6388
 20
7.23269
 30
0.0
 40
0.0104167
 41
0.0104167
  0
VERTEX
  8
0
 10
10.7055
 20
7.28401
 30
0.0
 40
0.0104167
 41
0.0104167
  0
VERTEX
  8
0
 10
10.7667
 20
7.30285
 30
0.0
 40
0.0104167
 41
0.0104167
  0
VERTEX
  8
0
 10
10.7871
 20
7.30285
 30
0.0
 40
0.0104167
 41
0.0104167
  0
VERTEX
  8
0
 10
10.8074
 20
7.30285
 30
0.0
 40
0.0104167
 41
0.0104167
  0
VERTEX
  8
0
 10
10.8686
 20
7.28401
 30
0.0
 40
0.0104167
 41
0.0104167
  0
VERTEX
  8
0
 10
10.9352
 20
7.23269
 30
0.0
 40
0.0104167
 41
0.0104167
  0
VERTEX
  8
0
 10
10.9801
 20
7.15653
 30
0.0
 40
0.0104167
 41
0.0104167
  0
VERTEX
  8
0
 10
10.9966
 20
7.08658
 30
0.0
 40
0.0104167
 41
0.0104167
  0
VERTEX
  8
0
 10
10.9966
 20
7.06326
 30
0.0
 40
0.0104167
 41
0.0104167
  0
VERTEX
  8
0
 10
10.9966
 20
7.03999
 30
0.0
 40
0.0104167
 41
0.0104167
  0
VERTEX
  8
0
 10
10.9801
 20
6.97006
 30
0.0
 40
0.0104167
 41
0.0104167
  0
VERTEX
  8
0
 10
10.9352
 20
6.89388
 30
0.0
 40
0.0104167
 41
0.0104167
  0
VERTEX
  8
0
 10
10.8686
 20
6.84256
 30
0.0
 40
0.0104167
 41
0.0104167
  0
VERTEX
  8
0
 10
10.8074
 20
6.82368
 30
0.0
 40
0.0104167
 41
0.0104167
  0
VERTEX
  8
0
 10
10.7871
 20
6.82368
 30
0.0
 40
0.0104167
 41
0.0104167
  0
SEQEND
 8
0
  0
POLYLINE
  8
0
 62
     7
 66
     1
 10
0
 20
0
 30
0.0
 70
     1
 40
0
 41
0
  0
VERTEX
  8
0
 10
10.7871
 20
7.02681
 30
0.0
 40
0
 41
0
  0
VERTEX
  8
0
 10
10.7814
 20
7.02681
 30
0.0
 40
0
 41
0
  0
VERTEX
  8
0
 10
10.7645
 20
7.03749
 30
0.0
 40
0
 41
0
  0
VERTEX
  8
0
 10
10.7552
 20
7.05686
 30
0.0
 40
0
 41
0
  0
VERTEX
  8
0
 10
10.7552
 20
7.06326
 30
0.0
 40
0
 41
0
  0
VERTEX
  8
0
 10
10.7552
 20
7.06972
 30
0.0
 40
0
 41
0
  0
VERTEX
  8
0
 10
10.7645
 20
7.08908
 30
0.0
 40
0
 41
0
  0
VERTEX
  8
0
 10
10.7814
 20
7.09972
 30
0.0
 40
0
 41
0
  0
VERTEX
  8
0
 10
10.7871
 20
7.09972
 30
0.0
 40
0
 41
0
  0
VERTEX
  8
0
 10
10.7926
 20
7.09972
 30
0.0
 40
0
 41
0
  0
VERTEX
  8
0
 10
10.8096
 20
7.08908
 30
0.0
 40
0
 41
0
  0
VERTEX
  8
0
 10
10.8189
 20
7.06972
 30
0.0
 40
0
 41
0
  0
VERTEX
  8
0
 10
10.8189
 20
7.06326
 30
0.0
 40
0
 41
0
  0
VERTEX
  8
0
 10
10.8189
 20
7.05686
 30
0.0
 40
0
 41
0
  0
VERTEX
  8
0
 10
10.8096
 20
7.03749
 30
0.0
 40
0
 41
0
  0
VERTEX
  8
0
 10
10.7926
 20
7.02681
 30
0.0
 40
0
 41
0
  0
VERTEX
  8
0
 10
10.7871
 20
7.02681
 30
0.0
 40
0
 41
0
  0
SEQEND
 8
0
  0
POLYLINE
  8
0
 62
     0
 66
     1
 10
0
 20
0
 30
0.0
 70
     1
 40
0.75
 41
0.75
  0
VERTEX
  8
0
 10
10.7871
 20
7.02681
 30
0.0
 40
0.0104167
 41
0.0104167
  0
VERTEX
  8
0
 10
10.7814
 20
7.02681
 30
0.0
 40
0.0104167
 41
0.0104167
  0
VERTEX
  8
0
 10
10.7645
 20
7.03749
 30
0.0
 40
0.0104167
 41
0.0104167
  0
VERTEX
  8
0
 10
10.7552
 20
7.05686
 30
0.0
 40
0.0104167
 41
0.0104167
  0
VERTEX
  8
0
 10
10.7552
 20
7.06326
 30
0.0
 40
0.0104167
 41
0.0104167
  0
VERTEX
  8
0
 10
10.7552
 20
7.06972
 30
0.0
 40
0.0104167
 41
0.0104167
  0
VERTEX
  8
0
 10
10.7645
 20
7.08908
 30
0.0
 40
0.0104167
 41
0.0104167
  0
VERTEX
  8
0
 10
10.7814
 20
7.09972
 30
0.0
 40
0.0104167
 41
0.0104167
  0
VERTEX
  8
0
 10
10.7871
 20
7.09972
 30
0.0
 40
0.0104167
 41
0.0104167
  0
VERTEX
  8
0
 10
10.7926
 20
7.09972
 30
0.0
 40
0.0104167
 41
0.0104167
  0
VERTEX
  8
0
 10
10.8096
 20
7.08908
 30
0.0
 40
0.0104167
 41
0.0104167
  0
VERTEX
  8
0
 10
10.8189
 20
7.06972
 30
0.0
 40
0.0104167
 41
0.0104167
  0
VERTEX
  8
0
 10
10.8189
 20
7.06326
 30
0.0
 40
0.0104167
 41
0.0104167
  0
VERTEX
  8
0
 10
10.8189
 20
7.05686
 30
0.0
 40
0.0104167
 41
0.0104167
  0
VERTEX
  8
0
 10
10.8096
 20
7.03749
 30
0.0
 40
0.0104167
 41
0.0104167
  0
VERTEX
  8
0
 10
10.7926
 20
7.02681
 30
0.0
 40
0.0104167
 41
0.0104167
  0
VERTEX
  8
0
 10
10.7871
 20
7.02681
 30
0.0
 40
0.0104167
 41
0.0104167
  0
SEQEND
 8
0
  0
POLYLINE
  8
0
 62
     7
 66
     1
 10
0
 20
0
 30
0.0
 70
     1
 40
0
 41
0
  0
VERTEX
  8
0
 10
10.7871
 20
7.04243
 30
0.0
 40
0
 41
0
  0
VERTEX
  8
0
 10
10.7838
 20
7.04243
 30
0.0
 40
0
 41
0
  0
VERTEX
  8
0
 10
10.7741
 20
7.04856
 30
0.0
 40
0
 41
0
  0
VERTEX
  8
0
 10
10.7688
 20
7.05963
 30
0.0
 40
0
 41
0
  0
VERTEX
  8
0
 10
10.7688
 20
7.06326
 30
0.0
 40
0
 41
0
  0
VERTEX
  8
0
 10
10.7688
 20
7.06694
 30
0.0
 40
0
 41
0
  0
VERTEX
  8
0
 10
10.7741
 20
7.07801
 30
0.0
 40
0
 41
0
  0
VERTEX
  8
0
 10
10.7838
 20
7.0841
 30
0.0
 40
0
 41
0
  0
VERTEX
  8
0
 10
10.7871
 20
7.0841
 30
0.0
 40
0
 41
0
  0
VERTEX
  8
0
 10
10.7903
 20
7.0841
 30
0.0
 40
0
 41
0
  0
VERTEX
  8
0
 10
10.7999
 20
7.07801
 30
0.0
 40
0
 41
0
  0
VERTEX
  8
0
 10
10.8052
 20
7.06694
 30
0.0
 40
0
 41
0
  0
VERTEX
  8
0
 10
10.8052
 20
7.06326
 30
0.0
 40
0
 41
0
  0
VERTEX
  8
0
 10
10.8052
 20
7.05963
 30
0.0
 40
0
 41
0
  0
VERTEX
  8
0
 10
10.7999
 20
7.04856
 30
0.0
 40
0
 41
0
  0
VERTEX
  8
0
 10
10.7903
 20
7.04243
 30
0.0
 40
0
 41
0
  0
VERTEX
  8
0
 10
10.7871
 20
7.04243
 30
0.0
 40
0
 41
0
  0
SEQEND
 8
0
  0
POLYLINE
  8
0
 62
     0
 66
     1
 10
0
 20
0
 30
0.0
 70
     1
 40
0.75
 41
0.75
  0
VERTEX
  8
0
 10
10.7871
 20
7.04243
 30
0.0
 40
0.0104167
 41
0.0104167
  0
VERTEX
  8
0
 10
10.7838
 20
7.04243
 30
0.0
 40
0.0104167
 41
0.0104167
  0
VERTEX
  8
0
 10
10.7741
 20
7.04856
 30
0.0
 40
0.0104167
 41
0.0104167
  0
VERTEX
  8
0
 10
10.7688
 20
7.05963
 30
0.0
 40
0.0104167
 41
0.0104167
  0
VERTEX
  8
0
 10
10.7688
 20
7.06326
 30
0.0
 40
0.0104167
 41
0.0104167
  0
VERTEX
  8
0
 10
10.7688
 20
7.06694
 30
0.0
 40
0.0104167
 41
0.0104167
  0
VERTEX
  8
0
 10
10.7741
 20
7.07801
 30
0.0
 40
0.0104167
 41
0.0104167
  0
VERTEX
  8
0
 10
10.7838
 20
7.0841
 30
0.0
 40
0.0104167
 41
0.0104167
  0
VERTEX
  8
0
 10
10.7871
 20
7.0841
 30
0.0
 40
0.0104167
 41
0.0104167
  0
VERTEX
  8
0
 10
10.7903
 20
7.0841
 30
0.0
 40
0.0104167
 41
0.0104167
  0
VERTEX
  8
0
 10
10.7999
 20
7.07801
 30
0.0
 40
0.0104167
 41
0.0104167
  0
VERTEX
  8
0
 10
10.8052
 20
7.06694
 30
0.0
 40
0.0104167
 41
0.0104167
  0
VERTEX
  8
0
 10
10.8052
 20
7.06326
 30
0.0
 40
0.0104167
 41
0.0104167
  0
VERTEX
  8
0
 10
10.8052
 20
7.05963
 30
0.0
 40
0.0104167
 41
0.0104167
  0
VERTEX
  8
0
 10
10.7999
 20
7.04856
 30
0.0
 40
0.0104167
 41
0.0104167
  0
VERTEX
  8
0
 10
10.7903
 20
7.04243
 30
0.0
 40
0.0104167
 41
0.0104167
  0
VERTEX
  8
0
 10
10.7871
 20
7.04243
 30
0.0
 40
0.0104167
 41
0.0104167
  0
SEQEND
 8
0
  0
POLYLINE
  8
0
 62
     7
 66
     1
 10
0
 20
0
 30
0.0
 70
     1
 40
0
 41
0
  0
VERTEX
  8
0
 10
10.9055
 20
7.09451
 30
0.0
 40
0
 41
0
  0
VERTEX
  8
0
 10
11.033
 20
7.09451
 30
0.0
 40
0
 41
0
  0
VERTEX
  8
0
 10
11.033
 20
7.03201
 30
0.0
 40
0
 41
0
  0
VERTEX
  8
0
 10
10.9055
 20
7.03201
 30
0.0
 40
0
 41
0
  0
VERTEX
  8
0
 10
10.9055
 20
7.09451
 30
0.0
 40
0
 41
0
  0
SEQEND
 8
0
  0
POLYLINE
  8
0
 62
     0
 66
     1
 10
0
 20
0
 30
0.0
 70
     1
 40
0.75
 41
0.75
  0
VERTEX
  8
0
 10
10.9055
 20
7.09451
 30
0.0
 40
0.0104167
 41
0.0104167
  0
VERTEX
  8
0
 10
10.9055
 20
7.03201
 30
0.0
 40
0.0104167
 41
0.0104167
  0
VERTEX
  8
0
 10
11.033
 20
7.03201
 30
0.0
 40
0.0104167
 41
0.0104167
  0
VERTEX
  8
0
 10
11.033
 20
7.09451
 30
0.0
 40
0.0104167
 41
0.0104167
  0
VERTEX
  8
0
 10
10.9055
 20
7.09451
 30
0.0
 40
0.0104167
 41
0.0104167
  0
SEQEND
 8
0
  0
POLYLINE
  8
0
 62
     0
 66
     1
 10
0
 20
0
 30
0.0
 70
     1
 40
0.75
 41
0.75
  0
VERTEX
  8
0
 10
10.8766
 20
7.98269
 30
0.0
 40
0.0104167
 41
0.0104167
  0
VERTEX
  8
0
 10
10.8766
 20
6.75592
 30
0.0
 40
0.0104167
 41
0.0104167
  0
VERTEX
  8
0
 10
11.0622
 20
6.75592
 30
0.0
 40
0.0104167
 41
0.0104167
  0
VERTEX
  8
0
 10
11.0622
 20
7.98269
 30
0.0
 40
0.0104167
 41
0.0104167
  0
VERTEX
  8
0
 10
10.8766
 20
7.98269
 30
0.0
 40
0.0104167
 41
0.0104167
  0
SEQEND
 8
0
  0
POLYLINE
  8
0
 62
     7
 66
     1
 10
0
 20
0
 30
0.0
 70
     1
 40
0
 41
0
  0
VERTEX
  8
0
 10
8.98861
 20
8.3411
 30
0.0
 40
0
 41
0
  0
VERTEX
  8
0
 10
9.10525
 20
8.3411
 30
0.0
 40
0
 41
0
  0
VERTEX
  8
0
 10
9.10525
 20
8.27756
 30
0.0
 40
0
 41
0
  0
VERTEX
  8
0
 10
8.98861
 20
8.27756
 30
0.0
 40
0
 41
0
  0
VERTEX
  8
0
 10
8.98861
 20
8.3411
 30
0.0
 40
0
 41
0
  0
SEQEND
 8
0
  0
POLYLINE
  8
0
 62
     0
 66
     1
 10
0
 20
0
 30
0.0
 70
     1
 40
0.75
 41
0.75
  0
VERTEX
  8
0
 10
8.98861
 20
8.3411
 30
0.0
 40
0.0104167
 41
0.0104167
  0
VERTEX
  8
0
 10
9.10525
 20
8.3411
 30
0.0
 40
0.0104167
 41
0.0104167
  0
VERTEX
  8
0
 10
9.10525
 20
8.27756
 30
0.0
 40
0.0104167
 41
0.0104167
  0
VERTEX
  8
0
 10
8.98861
 20
8.27756
 30
0.0
 40
0.0104167
 41
0.0104167
  0
VERTEX
  8
0
 10
8.98861
 20
8.3411
 30
0.0
 40
0.0104167
 41
0.0104167
  0
SEQEND
 8
0
  0
POLYLINE
  8
0
 62
     7
 66
     1
 10
0
 20
0
 30
0.0
 70
     1
 40
0
 41
0
  0
VERTEX
  8
0
 10
9.1334
 20
8.3411
 30
0.0
 40
0
 41
0
  0
VERTEX
  8
0
 10
9.25006
 20
8.3411
 30
0.0
 40
0
 41
0
  0
VERTEX
  8
0
 10
9.25006
 20
8.27756
 30
0.0
 40
0
 41
0
  0
VERTEX
  8
0
 10
9.1334
 20
8.27756
 30
0.0
 40
0
 41
0
  0
VERTEX
  8
0
 10
9.1334
 20
8.3411
 30
0.0
 40
0
 41
0
  0
SEQEND
 8
0
  0
POLYLINE
  8
0
 62
     0
 66
     1
 10
0
 20
0
 30
0.0
 70
     1
 40
0.75
 41
0.75
  0
VERTEX
  8
0
 10
9.1334
 20
8.3411
 30
0.0
 40
0.0104167
 41
0.0104167
  0
VERTEX
  8
0
 10
9.25006
 20
8.3411
 30
0.0
 40
0.0104167
 41
0.0104167
  0
VERTEX
  8
0
 10
9.25006
 20
8.27756
 30
0.0
 40
0.0104167
 41
0.0104167
  0
VERTEX
  8
0
 10
9.1334
 20
8.27756
 30
0.0
 40
0.0104167
 41
0.0104167
  0
VERTEX
  8
0
 10
9.1334
 20
8.3411
 30
0.0
 40
0.0104167
 41
0.0104167
  0
SEQEND
 8
0
  0
POLYLINE
  8
0
 62
     7
 66
     1
 10
0
 20
0
 30
0.0
 70
     1
 40
0
 41
0
  0
VERTEX
  8
0
 10
9.24903
 20
8.3411
 30
0.0
 40
0
 41
0
  0
VERTEX
  8
0
 10
9.28444
 20
8.3411
 30
0.0
 40
0
 41
0
  0
VERTEX
  8
0
 10
9.28444
 20
8.27756
 30
0.0
 40
0
 41
0
  0
VERTEX
  8
0
 10
9.24903
 20
8.27756
 30
0.0
 40
0
 41
0
  0
VERTEX
  8
0
 10
9.24903
 20
8.3411
 30
0.0
 40
0
 41
0
  0
SEQEND
 8
0
  0
POLYLINE
  8
0
 62
     0
 66
     1
 10
0
 20
0
 30
0.0
 70
     1
 40
0.75
 41
0.75
  0
VERTEX
  8
0
 10
9.24903
 20
8.3411
 30
0.0
 40
0.0104167
 41
0.0104167
  0
VERTEX
  8
0
 10
9.28444
 20
8.3411
 30
0.0
 40
0.0104167
 41
0.0104167
  0
VERTEX
  8
0
 10
9.28444
 20
8.27756
 30
0.0
 40
0.0104167
 41
0.0104167
  0
VERTEX
  8
0
 10
9.24903
 20
8.27756
 30
0.0
 40
0.0104167
 41
0.0104167
  0
VERTEX
  8
0
 10
9.24903
 20
8.3411
 30
0.0
 40
0.0104167
 41
0.0104167
  0
SEQEND
 8
0
  0
POLYLINE
  8
0
 62
     7
 66
     1
 10
0
 20
0
 30
0.0
 70
     1
 40
0
 41
0
  0
VERTEX
  8
0
 10
8.95529
 20
8.3411
 30
0.0
 40
0
 41
0
  0
VERTEX
  8
0
 10
8.98861
 20
8.3411
 30
0.0
 40
0
 41
0
  0
VERTEX
  8
0
 10
8.98861
 20
8.27756
 30
0.0
 40
0
 41
0
  0
VERTEX
  8
0
 10
8.95529
 20
8.27756
 30
0.0
 40
0
 41
0
  0
VERTEX
  8
0
 10
8.95529
 20
8.3411
 30
0.0
 40
0
 41
0
  0
SEQEND
 8
0
  0
POLYLINE
  8
0
 62
     0
 66
     1
 10
0
 20
0
 30
0.0
 70
     1
 40
0.75
 41
0.75
  0
VERTEX
  8
0
 10
8.95529
 20
8.3411
 30
0.0
 40
0.0104167
 41
0.0104167
  0
VERTEX
  8
0
 10
8.98861
 20
8.3411
 30
0.0
 40
0.0104167
 41
0.0104167
  0
VERTEX
  8
0
 10
8.98861
 20
8.27756
 30
0.0
 40
0.0104167
 41
0.0104167
  0
VERTEX
  8
0
 10
8.95529
 20
8.27756
 30
0.0
 40
0.0104167
 41
0.0104167
  0
VERTEX
  8
0
 10
8.95529
 20
8.3411
 30
0.0
 40
0.0104167
 41
0.0104167
  0
SEQEND
 8
0
  0
POLYLINE
  8
0
 62
     7
 66
     1
 10
0
 20
0
 30
0.0
 70
     1
 40
0
 41
0
  0
VERTEX
  8
0
 10
9.10525
 20
8.25776
 30
0.0
 40
0
 41
0
  0
VERTEX
  8
0
 10
9.10525
 20
8.25146
 30
0.0
 40
0
 41
0
  0
VERTEX
  8
0
 10
9.10161
 20
8.23253
 30
0.0
 40
0
 41
0
  0
VERTEX
  8
0
 10
9.09169
 20
8.21013
 30
0.0
 40
0
 41
0
  0
VERTEX
  8
0
 10
9.0886
 20
8.20568
 30
0.0
 40
0
 41
0
  0
VERTEX
  8
0
 10
9.08751
 20
8.20415
 30
0.0
 40
0
 41
0
  0
VERTEX
  8
0
 10
9.07736
 20
8.18956
 30
0.0
 40
0
 41
0
  0
VERTEX
  8
0
 10
9.07715
 20
8.18799
 30
0.0
 40
0
 41
0
  0
VERTEX
  8
0
 10
9.07661
 20
8.18517
 30
0.0
 40
0
 41
0
  0
VERTEX
  8
0
 10
9.08078
 20
8.16862
 30
0.0
 40
0
 41
0
  0
VERTEX
  8
0
 10
9.09744
 20
8.15571
 30
0.0
 40
0
 41
0
  0
VERTEX
  8
0
 10
9.10319
 20
8.15462
 30
0.0
 40
0
 41
0
  0
VERTEX
  8
0
 10
9.10449
 20
8.1544
 30
0.0
 40
0
 41
0
  0
VERTEX
  8
0
 10
9.116
 20
8.1536
 30
0.0
 40
0
 41
0
  0
VERTEX
  8
0
 10
9.11985
 20
8.1536
 30
0.0
 40
0
 41
0
  0
VERTEX
  8
0
 10
9.11882
 20
8.1536
 30
0.0
 40
0
 41
0
  0
VERTEX
  8
0
 10
9.12294
 20
8.1536
 30
0.0
 40
0
 41
0
  0
VERTEX
  8
0
 10
9.13417
 20
8.1544
 30
0.0
 40
0
 41
0
  0
VERTEX
  8
0
 10
9.13547
 20
8.15462
 30
0.0
 40
0
 41
0
  0
VERTEX
  8
0
 10
9.14117
 20
8.15571
 30
0.0
 40
0
 41
0
  0
VERTEX
  8
0
 10
9.15788
 20
8.16862
 30
0.0
 40
0
 41
0
  0
VERTEX
  8
0
 10
9.162
 20
8.18517
 30
0.0
 40
0
 41
0
  0
VERTEX
  8
0
 10
9.16151
 20
8.18799
 30
0.0
 40
0
 41
0
  0
VERTEX
  8
0
 10
9.16124
 20
8.18956
 30
0.0
 40
0
 41
0
  0
VERTEX
  8
0
 10
9.1511
 20
8.20415
 30
0.0
 40
0
 41
0
  0
VERTEX
  8
0
 10
9.15007
 20
8.20568
 30
0.0
 40
0
 41
0
  0
VERTEX
  8
0
 10
9.14692
 20
8.21013
 30
0.0
 40
0
 41
0
  0
VERTEX
  8
0
 10
9.13704
 20
8.23253
 30
0.0
 40
0
 41
0
  0
VERTEX
  8
0
 10
9.1334
 20
8.25146
 30
0.0
 40
0
 41
0
  0
VERTEX
  8
0
 10
9.1334
 20
8.25776
 30
0.0
 40
0
 41
0
  0
SEQEND
 8
0
  0
POLYLINE
  8
0
 62
     0
 66
     1
 10
0
 20
0
 30
0.0
 40
0.75
 41
0.75
  0
VERTEX
  8
0
 10
9.10525
 20
8.25776
 30
0.0
 40
0.0104167
 41
0.0104167
  0
VERTEX
  8
0
 10
9.10525
 20
8.25146
 30
0.0
 40
0.0104167
 41
0.0104167
  0
VERTEX
  8
0
 10
9.10161
 20
8.23253
 30
0.0
 40
0.0104167
 41
0.0104167
  0
VERTEX
  8
0
 10
9.09169
 20
8.21013
 30
0.0
 40
0.0104167
 41
0.0104167
  0
VERTEX
  8
0
 10
9.0886
 20
8.20568
 30
0.0
 40
0.0104167
 41
0.0104167
  0
VERTEX
  8
0
 10
9.08751
 20
8.20415
 30
0.0
 40
0.0104167
 41
0.0104167
  0
VERTEX
  8
0
 10
9.07736
 20
8.18956
 30
0.0
 40
0.0104167
 41
0.0104167
  0
VERTEX
  8
0
 10
9.07715
 20
8.18799
 30
0.0
 40
0.0104167
 41
0.0104167
  0
VERTEX
  8
0
 10
9.07661
 20
8.18517
 30
0.0
 40
0.0104167
 41
0.0104167
  0
VERTEX
  8
0
 10
9.08078
 20
8.16862
 30
0.0
 40
0.0104167
 41
0.0104167
  0
VERTEX
  8
0
 10
9.09744
 20
8.15571
 30
0.0
 40
0.0104167
 41
0.0104167
  0
VERTEX
  8
0
 10
9.10319
 20
8.15462
 30
0.0
 40
0.0104167
 41
0.0104167
  0
VERTEX
  8
0
 10
9.10449
 20
8.1544
 30
0.0
 40
0.0104167
 41
0.0104167
  0
VERTEX
  8
0
 10
9.116
 20
8.1536
 30
0.0
 40
0.0104167
 41
0.0104167
  0
VERTEX
  8
0
 10
9.11985
 20
8.1536
 30
0.0
 40
0.0104167
 41
0.0104167
  0
VERTEX
  8
0
 10
9.11882
 20
8.1536
 30
0.0
 40
0.0104167
 41
0.0104167
  0
VERTEX
  8
0
 10
9.12294
 20
8.1536
 30
0.0
 40
0.0104167
 41
0.0104167
  0
VERTEX
  8
0
 10
9.13417
 20
8.1544
 30
0.0
 40
0.0104167
 41
0.0104167
  0
VERTEX
  8
0
 10
9.13547
 20
8.15462
 30
0.0
 40
0.0104167
 41
0.0104167
  0
VERTEX
  8
0
 10
9.14117
 20
8.15571
 30
0.0
 40
0.0104167
 41
0.0104167
  0
VERTEX
  8
0
 10
9.15788
 20
8.16862
 30
0.0
 40
0.0104167
 41
0.0104167
  0
VERTEX
  8
0
 10
9.162
 20
8.18517
 30
0.0
 40
0.0104167
 41
0.0104167
  0
VERTEX
  8
0
 10
9.16151
 20
8.18799
 30
0.0
 40
0.0104167
 41
0.0104167
  0
VERTEX
  8
0
 10
9.16124
 20
8.18956
 30
0.0
 40
0.0104167
 41
0.0104167
  0
VERTEX
  8
0
 10
9.1511
 20
8.20415
 30
0.0
 40
0.0104167
 41
0.0104167
  0
VERTEX
  8
0
 10
9.15007
 20
8.20568
 30
0.0
 40
0.0104167
 41
0.0104167
  0
VERTEX
  8
0
 10
9.14692
 20
8.21013
 30
0.0
 40
0.0104167
 41
0.0104167
  0
VERTEX
  8
0
 10
9.13704
 20
8.23253
 30
0.0
 40
0.0104167
 41
0.0104167
  0
VERTEX
  8
0
 10
9.1334
 20
8.25146
 30
0.0
 40
0.0104167
 41
0.0104167
  0
VERTEX
  8
0
 10
9.1334
 20
8.25776
 30
0.0
 40
0.0104167
 41
0.0104167
  0
SEQEND
 8
0
  0
POLYLINE
  8
0
 62
     7
 66
     1
 10
0
 20
0
 30
0.0
 70
     1
 40
0
 41
0
  0
VERTEX
  8
0
 10
9.07715
 20
8.18696
 30
0.0
 40
0
 41
0
  0
VERTEX
  8
0
 10
9.07736
 20
8.18647
 30
0.0
 40
0
 41
0
  0
VERTEX
  8
0
 10
9.08925
 20
8.17626
 30
0.0
 40
0
 41
0
  0
VERTEX
  8
0
 10
9.11296
 20
8.16715
 30
0.0
 40
0
 41
0
  0
VERTEX
  8
0
 10
9.12088
 20
8.16715
 30
0.0
 40
0
 41
0
  0
VERTEX
  8
0
 10
9.12711
 20
8.16743
 30
0.0
 40
0
 41
0
  0
VERTEX
  8
0
 10
9.14979
 20
8.17665
 30
0.0
 40
0
 41
0
  0
VERTEX
  8
0
 10
9.16097
 20
8.18647
 30
0.0
 40
0
 41
0
  0
VERTEX
  8
0
 10
9.16151
 20
8.18696
 30
0.0
 40
0
 41
0
  0
SEQEND
 8
0
  0
POLYLINE
  8
0
 62
     0
 66
     1
 10
0
 20
0
 30
0.0
 40
0.75
 41
0.75
  0
VERTEX
  8
0
 10
9.07715
 20
8.18696
 30
0.0
 40
0.0104167
 41
0.0104167
  0
VERTEX
  8
0
 10
9.07736
 20
8.18647
 30
0.0
 40
0.0104167
 41
0.0104167
  0
VERTEX
  8
0
 10
9.08925
 20
8.17626
 30
0.0
 40
0.0104167
 41
0.0104167
  0
VERTEX
  8
0
 10
9.11296
 20
8.16715
 30
0.0
 40
0.0104167
 41
0.0104167
  0
VERTEX
  8
0
 10
9.12088
 20
8.16715
 30
0.0
 40
0.0104167
 41
0.0104167
  0
VERTEX
  8
0
 10
9.12711
 20
8.16743
 30
0.0
 40
0.0104167
 41
0.0104167
  0
VERTEX
  8
0
 10
9.14979
 20
8.17665
 30
0.0
 40
0.0104167
 41
0.0104167
  0
VERTEX
  8
0
 10
9.16097
 20
8.18647
 30
0.0
 40
0.0104167
 41
0.0104167
  0
VERTEX
  8
0
 10
9.16151
 20
8.18696
 30
0.0
 40
0.0104167
 41
0.0104167
  0
SEQEND
 8
0
  0
POLYLINE
  8
0
 62
     7
 66
     1
 10
0
 20
0
 30
0.0
 70
     1
 40
0
 41
0
  0
VERTEX
  8
0
 10
9.10525
 20
8.3411
 30
0.0
 40
0
 41
0
  0
VERTEX
  8
0
 10
9.1334
 20
8.3411
 30
0.0
 40
0
 41
0
  0
VERTEX
  8
0
 10
9.1334
 20
8.25776
 30
0.0
 40
0
 41
0
  0
VERTEX
  8
0
 10
9.12636
 20
8.25776
 30
0.0
 40
0
 41
0
  0
VERTEX
  8
0
 10
9.11051
 20
8.25776
 30
0.0
 40
0
 41
0
  0
VERTEX
  8
0
 10
9.10525
 20
8.25776
 30
0.0
 40
0
 41
0
  0
VERTEX
  8
0
 10
9.10525
 20
8.2786
 30
0.0
 40
0
 41
0
  0
VERTEX
  8
0
 10
9.10525
 20
8.32547
 30
0.0
 40
0
 41
0
  0
VERTEX
  8
0
 10
9.10525
 20
8.3411
 30
0.0
 40
0
 41
0
  0
SEQEND
 8
0
  0
POLYLINE
  8
0
 62
     0
 66
     1
 10
0
 20
0
 30
0.0
 70
     1
 40
0.75
 41
0.75
  0
VERTEX
  8
0
 10
9.10525
 20
8.3411
 30
0.0
 40
0.0104167
 41
0.0104167
  0
VERTEX
  8
0
 10
9.1334
 20
8.3411
 30
0.0
 40
0.0104167
 41
0.0104167
  0
VERTEX
  8
0
 10
9.1334
 20
8.25776
 30
0.0
 40
0.0104167
 41
0.0104167
  0
VERTEX
  8
0
 10
9.12636
 20
8.25776
 30
0.0
 40
0.0104167
 41
0.0104167
  0
VERTEX
  8
0
 10
9.11051
 20
8.25776
 30
0.0
 40
0.0104167
 41
0.0104167
  0
VERTEX
  8
0
 10
9.10525
 20
8.25776
 30
0.0
 40
0.0104167
 41
0.0104167
  0
VERTEX
  8
0
 10
9.10525
 20
8.2786
 30
0.0
 40
0.0104167
 41
0.0104167
  0
VERTEX
  8
0
 10
9.10525
 20
8.32547
 30
0.0
 40
0.0104167
 41
0.0104167
  0
VERTEX
  8
0
 10
9.10525
 20
8.3411
 30
0.0
 40
0.0104167
 41
0.0104167
  0
SEQEND
 8
0
  0
POLYLINE
  8
0
 62
     7
 66
     1
 10
0
 20
0
 30
0.0
 70
     1
 40
0
 41
0
  0
VERTEX
  8
0
 10
8.98861
 20
8.30881
 30
0.0
 40
0
 41
0
  0
VERTEX
  8
0
 10
8.99181
 20
8.31006
 30
0.0
 40
0
 41
0
  0
VERTEX
  8
0
 10
9.00146
 20
8.31392
 30
0.0
 40
0
 41
0
  0
VERTEX
  8
0
 10
9.00424
 20
8.31506
 30
0.0
 40
0
 41
0
  0
VERTEX
  8
0
 10
9.00424
 20
8.31506
 30
0.0
 40
0
 41
0
  0
VERTEX
  8
0
 10
9.00424
 20
8.31364
 30
0.0
 40
0
 41
0
  0
VERTEX
  8
0
 10
9.00424
 20
8.30935
 30
0.0
 40
0
 41
0
  0
VERTEX
  8
0
 10
9.00424
 20
8.30507
 30
0.0
 40
0
 41
0
  0
VERTEX
  8
0
 10
9.00424
 20
8.3036
 30
0.0
 40
0
 41
0
  0
VERTEX
  8
0
 10
9.00424
 20
8.3036
 30
0.0
 40
0
 41
0
  0
VERTEX
  8
0
 10
9.00185
 20
8.30425
 30
0.0
 40
0
 41
0
  0
VERTEX
  8
0
 10
8.99186
 20
8.30767
 30
0.0
 40
0
 41
0
  0
VERTEX
  8
0
 10
8.98861
 20
8.30881
 30
0.0
 40
0
 41
0
  0
SEQEND
 8
0
  0
POLYLINE
  8
0
 62
     0
 66
     1
 10
0
 20
0
 30
0.0
 70
     1
 40
0.75
 41
0.75
  0
VERTEX
  8
0
 10
8.98861
 20
8.30881
 30
0.0
 40
0.0104167
 41
0.0104167
  0
VERTEX
  8
0
 10
8.99181
 20
8.31006
 30
0.0
 40
0.0104167
 41
0.0104167
  0
VERTEX
  8
0
 10
9.00146
 20
8.31392
 30
0.0
 40
0.0104167
 41
0.0104167
  0
VERTEX
  8
0
 10
9.00424
 20
8.31506
 30
0.0
 40
0.0104167
 41
0.0104167
  0
VERTEX
  8
0
 10
9.00424
 20
8.31506
 30
0.0
 40
0.0104167
 41
0.0104167
  0
VERTEX
  8
0
 10
9.00424
 20
8.31364
 30
0.0
 40
0.0104167
 41
0.0104167
  0
VERTEX
  8
0
 10
9.00424
 20
8.30935
 30
0.0
 40
0.0104167
 41
0.0104167
  0
VERTEX
  8
0
 10
9.00424
 20
8.30507
 30
0.0
 40
0.0104167
 41
0.0104167
  0
VERTEX
  8
0
 10
9.00424
 20
8.3036
 30
0.0
 40
0.0104167
 41
0.0104167
  0
VERTEX
  8
0
 10
9.00424
 20
8.3036
 30
0.0
 40
0.0104167
 41
0.0104167
  0
VERTEX
  8
0
 10
9.00185
 20
8.30425
 30
0.0
 40
0.0104167
 41
0.0104167
  0
VERTEX
  8
0
 10
8.99186
 20
8.30767
 30
0.0
 40
0.0104167
 41
0.0104167
  0
VERTEX
  8
0
 10
8.98861
 20
8.30881
 30
0.0
 40
0.0104167
 41
0.0104167
  0
SEQEND
 8
0
  0
POLYLINE
  8
0
 62
     7
 66
     1
 10
0
 20
0
 30
0.0
 70
     1
 40
0
 41
0
  0
VERTEX
  8
0
 10
9.24903
 20
8.30881
 30
0.0
 40
0
 41
0
  0
VERTEX
  8
0
 10
9.24576
 20
8.31006
 30
0.0
 40
0
 41
0
  0
VERTEX
  8
0
 10
9.23611
 20
8.31392
 30
0.0
 40
0
 41
0
  0
VERTEX
  8
0
 10
9.2334
 20
8.31506
 30
0.0
 40
0
 41
0
  0
VERTEX
  8
0
 10
9.2334
 20
8.31506
 30
0.0
 40
0
 41
0
  0
VERTEX
  8
0
 10
9.2334
 20
8.31364
 30
0.0
 40
0
 41
0
  0
VERTEX
  8
0
 10
9.2334
 20
8.30935
 30
0.0
 40
0
 41
0
  0
VERTEX
  8
0
 10
9.2334
 20
8.30507
 30
0.0
 40
0
 41
0
  0
VERTEX
  8
0
 10
9.2334
 20
8.3036
 30
0.0
 40
0
 41
0
  0
VERTEX
  8
0
 10
9.2334
 20
8.3036
 30
0.0
 40
0
 41
0
  0
VERTEX
  8
0
 10
9.23574
 20
8.30425
 30
0.0
 40
0
 41
0
  0
VERTEX
  8
0
 10
9.24571
 20
8.30767
 30
0.0
 40
0
 41
0
  0
VERTEX
  8
0
 10
9.24903
 20
8.30881
 30
0.0
 40
0
 41
0
  0
SEQEND
 8
0
  0
POLYLINE
  8
0
 62
     0
 66
     1
 10
0
 20
0
 30
0.0
 70
     1
 40
0.75
 41
0.75
  0
VERTEX
  8
0
 10
9.24903
 20
8.30881
 30
0.0
 40
0.0104167
 41
0.0104167
  0
VERTEX
  8
0
 10
9.24576
 20
8.31006
 30
0.0
 40
0.0104167
 41
0.0104167
  0
VERTEX
  8
0
 10
9.23611
 20
8.31392
 30
0.0
 40
0.0104167
 41
0.0104167
  0
VERTEX
  8
0
 10
9.2334
 20
8.31506
 30
0.0
 40
0.0104167
 41
0.0104167
  0
VERTEX
  8
0
 10
9.2334
 20
8.31506
 30
0.0
 40
0.0104167
 41
0.0104167
  0
VERTEX
  8
0
 10
9.2334
 20
8.31364
 30
0.0
 40
0.0104167
 41
0.0104167
  0
VERTEX
  8
0
 10
9.2334
 20
8.30935
 30
0.0
 40
0.0104167
 41
0.0104167
  0
VERTEX
  8
0
 10
9.2334
 20
8.30507
 30
0.0
 40
0.0104167
 41
0.0104167
  0
VERTEX
  8
0
 10
9.2334
 20
8.3036
 30
0.0
 40
0.0104167
 41
0.0104167
  0
VERTEX
  8
0
 10
9.2334
 20
8.3036
 30
0.0
 40
0.0104167
 41
0.0104167
  0
VERTEX
  8
0
 10
9.23574
 20
8.30425
 30
0.0
 40
0.0104167
 41
0.0104167
  0
VERTEX
  8
0
 10
9.24571
 20
8.30767
 30
0.0
 40
0.0104167
 41
0.0104167
  0
VERTEX
  8
0
 10
9.24903
 20
8.30881
 30
0.0
 40
0.0104167
 41
0.0104167
  0
SEQEND
 8
0
  0
POLYLINE
  8
0
 62
     7
 66
     1
 10
0
 20
0
 30
0.0
 70
     1
 40
0
 41
0
  0
VERTEX
  8
0
 10
9.83886
 20
8.3411
 30
0.0
 40
0
 41
0
  0
VERTEX
  8
0
 10
10.2554
 20
8.3411
 30
0.0
 40
0
 41
0
  0
VERTEX
  8
0
 10
10.2554
 20
8.15381
 30
0.0
 40
0
 41
0
  0
VERTEX
  8
0
 10
9.83886
 20
8.15381
 30
0.0
 40
0
 41
0
  0
VERTEX
  8
0
 10
9.83886
 20
8.3411
 30
0.0
 40
0
 41
0
  0
SEQEND
 8
0
  0
POLYLINE
  8
0
 62
     0
 66
     1
 10
0
 20
0
 30
0.0
 70
     1
 40
0.75
 41
0.75
  0
VERTEX
  8
0
 10
9.83886
 20
8.3411
 30
0.0
 40
0.0104167
 41
0.0104167
  0
VERTEX
  8
0
 10
10.2554
 20
8.3411
 30
0.0
 40
0.0104167
 41
0.0104167
  0
VERTEX
  8
0
 10
10.2554
 20
8.15381
 30
0.0
 40
0.0104167
 41
0.0104167
  0
VERTEX
  8
0
 10
9.83886
 20
8.15381
 30
0.0
 40
0.0104167
 41
0.0104167
  0
VERTEX
  8
0
 10
9.83886
 20
8.3411
 30
0.0
 40
0.0104167
 41
0.0104167
  0
SEQEND
 8
0
  0
POLYLINE
  8
0
 62
     7
 66
     1
 10
0
 20
0
 30
0.0
 70
     1
 40
0
 41
0
  0
VERTEX
  8
0
 10
10.2554
 20
7.88553
 30
0.0
 40
0
 41
0
  0
VERTEX
  8
0
 10
10.2554
 20
7.88553
 30
0.0
 40
0
 41
0
  0
VERTEX
  8
0
 10
10.2555
 20
7.87381
 30
0.0
 40
0
 41
0
  0
VERTEX
  8
0
 10
10.2538
 20
7.84283
 30
0.0
 40
0
 41
0
  0
VERTEX
  8
0
 10
10.2477
 20
7.79899
 30
0.0
 40
0
 41
0
  0
VERTEX
  8
0
 10
10.2343
 20
7.74875
 30
0.0
 40
0
 41
0
  0
VERTEX
  8
0
 10
10.2108
 20
7.69851
 30
0.0
 40
0
 41
0
  0
VERTEX
  8
0
 10
10.1743
 20
7.65468
 30
0.0
 40
0
 41
0
  0
VERTEX
  8
0
 10
10.1221
 20
7.62369
 30
0.0
 40
0
 41
0
  0
VERTEX
  8
0
 10
10.0691
 20
7.61193
 30
0.0
 40
0
 41
0
  0
VERTEX
  8
0
 10
10.0514
 20
7.61193
 30
0.0
 40
0
 41
0
  0
VERTEX
  8
0
 10
10.0331
 20
7.61193
 30
0.0
 40
0
 41
0
  0
VERTEX
  8
0
 10
9.97825
 20
7.62369
 30
0.0
 40
0
 41
0
  0
VERTEX
  8
0
 10
9.92421
 20
7.65468
 30
0.0
 40
0
 41
0
  0
VERTEX
  8
0
 10
9.88639
 20
7.69851
 30
0.0
 40
0
 41
0
  0
VERTEX
  8
0
 10
9.86193
 20
7.74875
 30
0.0
 40
0
 41
0
  0
VERTEX
  8
0
 10
9.84793
 20
7.79899
 30
0.0
 40
0
 41
0
  0
VERTEX
  8
0
 10
9.84153
 20
7.84283
 30
0.0
 40
0
 41
0
  0
VERTEX
  8
0
 10
9.83979
 20
7.87381
 30
0.0
 40
0
 41
0
  0
VERTEX
  8
0
 10
9.8399
 20
7.88553
 30
0.0
 40
0
 41
0
  0
VERTEX
  8
0
 10
9.8399
 20
7.88553
 30
0.0
 40
0
 41
0
  0
VERTEX
  8
0
 10
9.83886
 20
8.15381
 30
0.0
 40
0
 41
0
  0
VERTEX
  8
0
 10
10.2554
 20
8.15381
 30
0.0
 40
0
 41
0
  0
VERTEX
  8
0
 10
10.2554
 20
7.88553
 30
0.0
 40
0
 41
0
  0
SEQEND
 8
0
  0
POLYLINE
  8
0
 62
     0
 66
     1
 10
0
 20
0
 30
0.0
 70
     1
 40
0.75
 41
0.75
  0
VERTEX
  8
0
 10
10.2554
 20
7.88553
 30
0.0
 40
0.0104167
 41
0.0104167
  0
VERTEX
  8
0
 10
10.2554
 20
7.88553
 30
0.0
 40
0.0104167
 41
0.0104167
  0
VERTEX
  8
0
 10
10.2555
 20
7.87381
 30
0.0
 40
0.0104167
 41
0.0104167
  0
VERTEX
  8
0
 10
10.2538
 20
7.84283
 30
0.0
 40
0.0104167
 41
0.0104167
  0
VERTEX
  8
0
 10
10.2477
 20
7.79899
 30
0.0
 40
0.0104167
 41
0.0104167
  0
VERTEX
  8
0
 10
10.2343
 20
7.74875
 30
0.0
 40
0.0104167
 41
0.0104167
  0
VERTEX
  8
0
 10
10.2108
 20
7.69851
 30
0.0
 40
0.0104167
 41
0.0104167
  0
VERTEX
  8
0
 10
10.1743
 20
7.65468
 30
0.0
 40
0.0104167
 41
0.0104167
  0
VERTEX
  8
0
 10
10.1221
 20
7.62369
 30
0.0
 40
0.0104167
 41
0.0104167
  0
VERTEX
  8
0
 10
10.0691
 20
7.61193
 30
0.0
 40
0.0104167
 41
0.0104167
  0
VERTEX
  8
0
 10
10.0514
 20
7.61193
 30
0.0
 40
0.0104167
 41
0.0104167
  0
VERTEX
  8
0
 10
10.0331
 20
7.61193
 30
0.0
 40
0.0104167
 41
0.0104167
  0
VERTEX
  8
0
 10
9.97825
 20
7.62369
 30
0.0
 40
0.0104167
 41
0.0104167
  0
VERTEX
  8
0
 10
9.92421
 20
7.65468
 30
0.0
 40
0.0104167
 41
0.0104167
  0
VERTEX
  8
0
 10
9.88639
 20
7.69851
 30
0.0
 40
0.0104167
 41
0.0104167
  0
VERTEX
  8
0
 10
9.86193
 20
7.74875
 30
0.0
 40
0.0104167
 41
0.0104167
  0
VERTEX
  8
0
 10
9.84793
 20
7.79899
 30
0.0
 40
0.0104167
 41
0.0104167
  0
VERTEX
  8
0
 10
9.84153
 20
7.84283
 30
0.0
 40
0.0104167
 41
0.0104167
  0
VERTEX
  8
0
 10
9.83979
 20
7.87381
 30
0.0
 40
0.0104167
 41
0.0104167
  0
VERTEX
  8
0
 10
9.8399
 20
7.88553
 30
0.0
 40
0.0104167
 41
0.0104167
  0
VERTEX
  8
0
 10
9.8399
 20
7.88553
 30
0.0
 40
0.0104167
 41
0.0104167
  0
VERTEX
  8
0
 10
9.83886
 20
8.15381
 30
0.0
 40
0.0104167
 41
0.0104167
  0
VERTEX
  8
0
 10
10.2554
 20
8.15381
 30
0.0
 40
0.0104167
 41
0.0104167
  0
VERTEX
  8
0
 10
10.2554
 20
7.88553
 30
0.0
 40
0.0104167
 41
0.0104167
  0
SEQEND
 8
0
  0
POLYLINE
  8
0
 62
     7
 66
     1
 10
0
 20
0
 30
0.0
 70
     1
 40
0
 41
0
  0
VERTEX
  8
0
 10
10.0141
 20
8.26324
 30
0.0
 40
0
 41
0
  0
VERTEX
  8
0
 10
10.0803
 20
8.26324
 30
0.0
 40
0
 41
0
  0
VERTEX
  8
0
 10
10.0803
 20
8.23167
 30
0.0
 40
0
 41
0
  0
VERTEX
  8
0
 10
10.0141
 20
8.23167
 30
0.0
 40
0
 41
0
  0
VERTEX
  8
0
 10
10.0141
 20
8.26324
 30
0.0
 40
0
 41
0
  0
SEQEND
 8
0
  0
POLYLINE
  8
0
 62
     0
 66
     1
 10
0
 20
0
 30
0.0
 70
     1
 40
0.75
 41
0.75
  0
VERTEX
  8
0
 10
10.0141
 20
8.26324
 30
0.0
 40
0.0104167
 41
0.0104167
  0
VERTEX
  8
0
 10
10.0803
 20
8.26324
 30
0.0
 40
0.0104167
 41
0.0104167
  0
VERTEX
  8
0
 10
10.0803
 20
8.23167
 30
0.0
 40
0.0104167
 41
0.0104167
  0
VERTEX
  8
0
 10
10.0141
 20
8.23167
 30
0.0
 40
0.0104167
 41
0.0104167
  0
VERTEX
  8
0
 10
10.0141
 20
8.26324
 30
0.0
 40
0.0104167
 41
0.0104167
  0
SEQEND
 8
0
  0
POLYLINE
  8
0
 62
     7
 66
     1
 10
0
 20
0
 30
0.0
 70
     1
 40
0
 41
0
  0
VERTEX
  8
0
 10
8.12631
 20
8.34631
 30
0.0
 40
0
 41
0
  0
VERTEX
  8
0
 10
8.73953
 20
8.34631
 30
0.0
 40
0
 41
0
  0
VERTEX
  8
0
 10
8.73953
 20
7.05143
 30
0.0
 40
0
 41
0
  0
VERTEX
  8
0
 10
8.12631
 20
7.05143
 30
0.0
 40
0
 41
0
  0
VERTEX
  8
0
 10
8.12631
 20
8.34631
 30
0.0
 40
0
 41
0
  0
SEQEND
 8
0
  0
POLYLINE
  8
0
 62
     0
 66
     1
 10
0
 20
0
 30
0.0
 70
     1
 40
0.75
 41
0.75
  0
VERTEX
  8
0
 10
8.12631
 20
8.34631
 30
0.0
 40
0.0104167
 41
0.0104167
  0
VERTEX
  8
0
 10
8.12631
 20
7.05143
 30
0.0
 40
0.0104167
 41
0.0104167
  0
VERTEX
  8
0
 10
8.73953
 20
7.05143
 30
0.0
 40
0.0104167
 41
0.0104167
  0
VERTEX
  8
0
 10
8.73953
 20
8.34631
 30
0.0
 40
0.0104167
 41
0.0104167
  0
VERTEX
  8
0
 10
8.12631
 20
8.34631
 30
0.0
 40
0.0104167
 41
0.0104167
  0
SEQEND
 8
0
  0
POLYLINE
  8
0
 62
     253
 66
     1
 10
0
 20
0
 30
0.0
 40
0.75
 41
0.75
  0
VERTEX
  8
0
 10
8.43294
 20
8.34631
 30
0.0
 40
0.0104167
 41
0.0104167
  0
VERTEX
  8
0
 10
8.43294
 20
7.05138
 30
0.0
 40
0.0104167
 41
0.0104167
  0
SEQEND
 8
0
  0
POLYLINE
  8
0
 62
     7
 66
     1
 10
0
 20
0
 30
0.0
 70
     1
 40
0
 41
0
  0
VERTEX
  8
0
 10
7.20285
 20
8.34597
 30
0.0
 40
0
 41
0
  0
VERTEX
  8
0
 10
8.12587
 20
8.34597
 30
0.0
 40
0
 41
0
  0
VERTEX
  8
0
 10
8.12587
 20
8.00944
 30
0.0
 40
0
 41
0
  0
VERTEX
  8
0
 10
7.20285
 20
8.00944
 30
0.0
 40
0
 41
0
  0
VERTEX
  8
0
 10
7.20285
 20
8.34597
 30
0.0
 40
0
 41
0
  0
SEQEND
 8
0
  0
POLYLINE
  8
0
 62
     0
 66
     1
 10
0
 20
0
 30
0.0
 70
     1
 40
0.75
 41
0.75
  0
VERTEX
  8
0
 10
7.20285
 20
8.34597
 30
0.0
 40
0.0104167
 41
0.0104167
  0
VERTEX
  8
0
 10
8.12587
 20
8.34597
 30
0.0
 40
0.0104167
 41
0.0104167
  0
VERTEX
  8
0
 10
8.12587
 20
8.00944
 30
0.0
 40
0.0104167
 41
0.0104167
  0
VERTEX
  8
0
 10
7.20285
 20
8.00944
 30
0.0
 40
0.0104167
 41
0.0104167
  0
VERTEX
  8
0
 10
7.20285
 20
8.34597
 30
0.0
 40
0.0104167
 41
0.0104167
  0
SEQEND
 8
0
  0
POLYLINE
  8
0
 62
     7
 66
     1
 10
0
 20
0
 30
0.0
 70
     1
 40
0
 41
0
  0
VERTEX
  8
0
 10
7.24914
 20
6.889
 30
0.0
 40
0
 41
0
  0
VERTEX
  8
0
 10
7.84218
 20
6.889
 30
0.0
 40
0
 41
0
  0
VERTEX
  8
0
 10
7.84218
 20
5.28847
 30
0.0
 40
0
 41
0
  0
VERTEX
  8
0
 10
7.24914
 20
5.28847
 30
0.0
 40
0
 41
0
  0
VERTEX
  8
0
 10
7.24914
 20
6.889
 30
0.0
 40
0
 41
0
  0
SEQEND
 8
0
  0
POLYLINE
  8
0
 62
     0
 66
     1
 10
0
 20
0
 30
0.0
 70
     1
 40
0.75
 41
0.75
  0
VERTEX
  8
0
 10
7.24914
 20
6.889
 30
0.0
 40
0.0104167
 41
0.0104167
  0
VERTEX
  8
0
 10
7.24914
 20
5.28847
 30
0.0
 40
0.0104167
 41
0.0104167
  0
VERTEX
  8
0
 10
7.84218
 20
5.28847
 30
0.0
 40
0.0104167
 41
0.0104167
  0
VERTEX
  8
0
 10
7.84218
 20
6.889
 30
0.0
 40
0.0104167
 41
0.0104167
  0
VERTEX
  8
0
 10
7.24914
 20
6.889
 30
0.0
 40
0.0104167
 41
0.0104167
  0
SEQEND
 8
0
  0
POLYLINE
  8
0
 62
     253
 66
     1
 10
0
 20
0
 30
0.0
 40
0.375
 41
0.375
  0
VERTEX
  8
0
 10
7.28868
 20
5.28847
 30
0.0
 40
0.00520833
 41
0.00520833
  0
VERTEX
  8
0
 10
7.28868
 20
6.88894
 30
0.0
 40
0.00520833
 41
0.00520833
  0
SEQEND
 8
0
  0
POLYLINE
  8
0
 62
     253
 66
     1
 10
0
 20
0
 30
0.0
 40
0.375
 41
0.375
  0
VERTEX
  8
0
 10
7.32824
 20
5.28847
 30
0.0
 40
0.00520833
 41
0.00520833
  0
VERTEX
  8
0
 10
7.32824
 20
6.88894
 30
0.0
 40
0.00520833
 41
0.00520833
  0
SEQEND
 8
0
  0
POLYLINE
  8
0
 62
     253
 66
     1
 10
0
 20
0
 30
0.0
 40
0.375
 41
0.375
  0
VERTEX
  8
0
 10
7.36778
 20
5.28847
 30
0.0
 40
0.00520833
 41
0.00520833
  0
VERTEX
  8
0
 10
7.36778
 20
6.88894
 30
0.0
 40
0.00520833
 41
0.00520833
  0
SEQEND
 8
0
  0
POLYLINE
  8
0
 62
     253
 66
     1
 10
0
 20
0
 30
0.0
 40
0.375
 41
0.375
  0
VERTEX
  8
0
 10
7.40728
 20
5.28847
 30
0.0
 40
0.00520833
 41
0.00520833
  0
VERTEX
  8
0
 10
7.40728
 20
6.88894
 30
0.0
 40
0.00520833
 41
0.00520833
  0
SEQEND
 8
0
  0
POLYLINE
  8
0
 62
     253
 66
     1
 10
0
 20
0
 30
0.0
 40
0.375
 41
0.375
  0
VERTEX
  8
0
 10
7.44683
 20
5.28847
 30
0.0
 40
0.00520833
 41
0.00520833
  0
VERTEX
  8
0
 10
7.44683
 20
6.88894
 30
0.0
 40
0.00520833
 41
0.00520833
  0
SEQEND
 8
0
  0
POLYLINE
  8
0
 62
     253
 66
     1
 10
0
 20
0
 30
0.0
 40
0.375
 41
0.375
  0
VERTEX
  8
0
 10
7.48639
 20
5.28847
 30
0.0
 40
0.00520833
 41
0.00520833
  0
VERTEX
  8
0
 10
7.48639
 20
6.88894
 30
0.0
 40
0.00520833
 41
0.00520833
  0
SEQEND
 8
0
  0
POLYLINE
  8
0
 62
     253
 66
     1
 10
0
 20
0
 30
0.0
 40
0.375
 41
0.375
  0
VERTEX
  8
0
 10
7.52593
 20
5.28847
 30
0.0
 40
0.00520833
 41
0.00520833
  0
VERTEX
  8
0
 10
7.52593
 20
6.88894
 30
0.0
 40
0.00520833
 41
0.00520833
  0
SEQEND
 8
0
  0
POLYLINE
  8
0
 62
     253
 66
     1
 10
0
 20
0
 30
0.0
 40
0.375
 41
0.375
  0
VERTEX
  8
0
 10
7.56543
 20
5.28847
 30
0.0
 40
0.00520833
 41
0.00520833
  0
VERTEX
  8
0
 10
7.56543
 20
6.88894
 30
0.0
 40
0.00520833
 41
0.00520833
  0
SEQEND
 8
0
  0
POLYLINE
  8
0
 62
     253
 66
     1
 10
0
 20
0
 30
0.0
 40
0.375
 41
0.375
  0
VERTEX
  8
0
 10
7.60499
 20
5.28847
 30
0.0
 40
0.00520833
 41
0.00520833
  0
VERTEX
  8
0
 10
7.60499
 20
6.88894
 30
0.0
 40
0.00520833
 41
0.00520833
  0
SEQEND
 8
0
  0
POLYLINE
  8
0
 62
     253
 66
     1
 10
0
 20
0
 30
0.0
 40
0.375
 41
0.375
  0
VERTEX
  8
0
 10
7.64453
 20
5.28847
 30
0.0
 40
0.00520833
 41
0.00520833
  0
VERTEX
  8
0
 10
7.64453
 20
6.88894
 30
0.0
 40
0.00520833
 41
0.00520833
  0
SEQEND
 8
0
  0
POLYLINE
  8
0
 62
     253
 66
     1
 10
0
 20
0
 30
0.0
 40
0.375
 41
0.375
  0
VERTEX
  8
0
 10
7.68408
 20
5.28847
 30
0.0
 40
0.00520833
 41
0.00520833
  0
VERTEX
  8
0
 10
7.68408
 20
6.88894
 30
0.0
 40
0.00520833
 41
0.00520833
  0
SEQEND
 8
0
  0
POLYLINE
  8
0
 62
     253
 66
     1
 10
0
 20
0
 30
0.0
 40
0.375
 41
0.375
  0
VERTEX
  8
0
 10
7.72358
 20
5.28847
 30
0.0
 40
0.00520833
 41
0.00520833
  0
VERTEX
  8
0
 10
7.72358
 20
6.88894
 30
0.0
 40
0.00520833
 41
0.00520833
  0
SEQEND
 8
0
  0
POLYLINE
  8
0
 62
     253
 66
     1
 10
0
 20
0
 30
0.0
 40
0.375
 41
0.375
  0
VERTEX
  8
0
 10
7.76313
 20
5.28847
 30
0.0
 40
0.00520833
 41
0.00520833
  0
VERTEX
  8
0
 10
7.76313
 20
6.88894
 30
0.0
 40
0.00520833
 41
0.00520833
  0
SEQEND
 8
0
  0
POLYLINE
  8
0
 62
     253
 66
     1
 10
0
 20
0
 30
0.0
 40
0.375
 41
0.375
  0
VERTEX
  8
0
 10
7.80268
 20
5.28847
 30
0.0
 40
0.00520833
 41
0.00520833
  0
VERTEX
  8
0
 10
7.80268
 20
6.88894
 30
0.0
 40
0.00520833
 41
0.00520833
  0
SEQEND
 8
0
  0
POLYLINE
  8
0
 62
     7
 66
     1
 10
0
 20
0
 30
0.0
 70
     1
 40
0
 41
0
  0
VERTEX
  8
0
 10
7.84272
 20
6.889
 30
0.0
 40
0
 41
0
  0
VERTEX
  8
0
 10
8.1499
 20
6.889
 30
0.0
 40
0
 41
0
  0
VERTEX
  8
0
 10
8.1499
 20
5.28618
 30
0.0
 40
0
 41
0
  0
VERTEX
  8
0
 10
7.84272
 20
5.28618
 30
0.0
 40
0
 41
0
  0
VERTEX
  8
0
 10
7.84272
 20
6.889
 30
0.0
 40
0
 41
0
  0
SEQEND
 8
0
  0
POLYLINE
  8
0
 62
     0
 66
     1
 10
0
 20
0
 30
0.0
 70
     1
 40
0.75
 41
0.75
  0
VERTEX
  8
0
 10
7.84272
 20
6.889
 30
0.0
 40
0.0104167
 41
0.0104167
  0
VERTEX
  8
0
 10
7.84272
 20
5.28618
 30
0.0
 40
0.0104167
 41
0.0104167
  0
VERTEX
  8
0
 10
8.1499
 20
5.28618
 30
0.0
 40
0.0104167
 41
0.0104167
  0
VERTEX
  8
0
 10
8.1499
 20
6.889
 30
0.0
 40
0.0104167
 41
0.0104167
  0
VERTEX
  8
0
 10
7.84272
 20
6.889
 30
0.0
 40
0.0104167
 41
0.0104167
  0
SEQEND
 8
0
  0
POLYLINE
  8
0
 62
     253
 66
     1
 10
0
 20
0
 30
0.0
 40
0.375
 41
0.375
  0
VERTEX
  8
0
 10
7.87343
 20
5.28618
 30
0.0
 40
0.00520833
 41
0.00520833
  0
VERTEX
  8
0
 10
7.87343
 20
6.88894
 30
0.0
 40
0.00520833
 41
0.00520833
  0
SEQEND
 8
0
  0
POLYLINE
  8
0
 62
     253
 66
     1
 10
0
 20
0
 30
0.0
 40
0.375
 41
0.375
  0
VERTEX
  8
0
 10
7.90414
 20
5.28618
 30
0.0
 40
0.00520833
 41
0.00520833
  0
VERTEX
  8
0
 10
7.90414
 20
6.88894
 30
0.0
 40
0.00520833
 41
0.00520833
  0
SEQEND
 8
0
  0
POLYLINE
  8
0
 62
     253
 66
     1
 10
0
 20
0
 30
0.0
 40
0.375
 41
0.375
  0
VERTEX
  8
0
 10
7.93485
 20
5.28618
 30
0.0
 40
0.00520833
 41
0.00520833
  0
VERTEX
  8
0
 10
7.93485
 20
6.88894
 30
0.0
 40
0.00520833
 41
0.00520833
  0
SEQEND
 8
0
  0
POLYLINE
  8
0
 62
     253
 66
     1
 10
0
 20
0
 30
0.0
 40
0.375
 41
0.375
  0
VERTEX
  8
0
 10
7.96556
 20
5.28618
 30
0.0
 40
0.00520833
 41
0.00520833
  0
VERTEX
  8
0
 10
7.96556
 20
6.88894
 30
0.0
 40
0.00520833
 41
0.00520833
  0
SEQEND
 8
0
  0
POLYLINE
  8
0
 62
     253
 66
     1
 10
0
 20
0
 30
0.0
 40
0.375
 41
0.375
  0
VERTEX
  8
0
 10
7.99625
 20
5.28618
 30
0.0
 40
0.00520833
 41
0.00520833
  0
VERTEX
  8
0
 10
7.99625
 20
6.88894
 30
0.0
 40
0.00520833
 41
0.00520833
  0
SEQEND
 8
0
  0
POLYLINE
  8
0
 62
     253
 66
     1
 10
0
 20
0
 30
0.0
 40
0.375
 41
0.375
  0
VERTEX
  8
0
 10
8.02701
 20
5.28618
 30
0.0
 40
0.00520833
 41
0.00520833
  0
VERTEX
  8
0
 10
8.02701
 20
6.88894
 30
0.0
 40
0.00520833
 41
0.00520833
  0
SEQEND
 8
0
  0
POLYLINE
  8
0
 62
     253
 66
     1
 10
0
 20
0
 30
0.0
 40
0.375
 41
0.375
  0
VERTEX
  8
0
 10
8.05772
 20
5.28618
 30
0.0
 40
0.00520833
 41
0.00520833
  0
VERTEX
  8
0
 10
8.05772
 20
6.88894
 30
0.0
 40
0.00520833
 41
0.00520833
  0
SEQEND
 8
0
  0
POLYLINE
  8
0
 62
     253
 66
     1
 10
0
 20
0
 30
0.0
 40
0.375
 41
0.375
  0
VERTEX
  8
0
 10
8.08843
 20
5.28618
 30
0.0
 40
0.00520833
 41
0.00520833
  0
VERTEX
  8
0
 10
8.08843
 20
6.88894
 30
0.0
 40
0.00520833
 41
0.00520833
  0
SEQEND
 8
0
  0
POLYLINE
  8
0
 62
     253
 66
     1
 10
0
 20
0
 30
0.0
 40
0.375
 41
0.375
  0
VERTEX
  8
0
 10
8.11914
 20
5.28618
 30
0.0
 40
0.00520833
 41
0.00520833
  0
VERTEX
  8
0
 10
8.11914
 20
6.88894
 30
0.0
 40
0.00520833
 41
0.00520833
  0
SEQEND
 8
0
  0
POLYLINE
  8
0
 62
     7
 66
     1
 10
0
 20
0
 30
0.0
 70
     1
 40
0
 41
0
  0
VERTEX
  8
0
 10
8.33469
 20
5.773
 30
0.0
 40
0
 41
0
  0
VERTEX
  8
0
 10
8.59511
 20
5.773
 30
0.0
 40
0
 41
0
  0
VERTEX
  8
0
 10
8.59511
 20
5.35053
 30
0.0
 40
0
 41
0
  0
VERTEX
  8
0
 10
8.33469
 20
5.35053
 30
0.0
 40
0
 41
0
  0
VERTEX
  8
0
 10
8.33469
 20
5.773
 30
0.0
 40
0
 41
0
  0
SEQEND
 8
0
  0
POLYLINE
  8
0
 62
     0
 66
     1
 10
0
 20
0
 30
0.0
 70
     1
 40
0.507
 41
0.507
  0
VERTEX
  8
0
 10
8.33469
 20
5.773
 30
0.0
 40
0.00704167
 41
0.00704167
  0
VERTEX
  8
0
 10
8.33469
 20
5.35053
 30
0.0
 40
0.00704167
 41
0.00704167
  0
VERTEX
  8
0
 10
8.59511
 20
5.35053
 30
0.0
 40
0.00704167
 41
0.00704167
  0
VERTEX
  8
0
 10
8.59511
 20
5.773
 30
0.0
 40
0.00704167
 41
0.00704167
  0
VERTEX
  8
0
 10
8.33469
 20
5.773
 30
0.0
 40
0.00704167
 41
0.00704167
  0
SEQEND
 8
0
  0
POLYLINE
  8
0
 62
     0
 66
     1
 10
0
 20
0
 30
0.0
 40
0.507
 41
0.507
  0
VERTEX
  8
0
 10
8.33469
 20
5.773
 30
0.0
 40
0.00704167
 41
0.00704167
  0
VERTEX
  8
0
 10
8.4649
 20
5.49349
 30
0.0
 40
0.00704167
 41
0.00704167
  0
VERTEX
  8
0
 10
8.4649
 20
5.62235
 30
0.0
 40
0.00704167
 41
0.00704167
  0
VERTEX
  8
0
 10
8.59511
 20
5.35053
 30
0.0
 40
0.00704167
 41
0.00704167
  0
SEQEND
 8
0
  0
POLYLINE
  8
0
 62
     7
 66
     1
 10
0
 20
0
 30
0.0
 70
     1
 40
0
 41
0
  0
VERTEX
  8
0
 10
8.15001
 20
6.889
 30
0.0
 40
0
 41
0
  0
VERTEX
  8
0
 10
8.46544
 20
6.889
 30
0.0
 40
0
 41
0
  0
VERTEX
  8
0
 10
8.46544
 20
5.88618
 30
0.0
 40
0
 41
0
  0
VERTEX
  8
0
 10
8.15001
 20
5.88618
 30
0.0
 40
0
 41
0
  0
VERTEX
  8
0
 10
8.15001
 20
6.889
 30
0.0
 40
0
 41
0
  0
SEQEND
 8
0
  0
POLYLINE
  8
0
 62
     0
 66
     1
 10
0
 20
0
 30
0.0
 70
     1
 40
0.75
 41
0.75
  0
VERTEX
  8
0
 10
8.15001
 20
6.889
 30
0.0
 40
0.0104167
 41
0.0104167
  0
VERTEX
  8
0
 10
8.15001
 20
5.88618
 30
0.0
 40
0.0104167
 41
0.0104167
  0
VERTEX
  8
0
 10
8.46544
 20
5.88618
 30
0.0
 40
0.0104167
 41
0.0104167
  0
VERTEX
  8
0
 10
8.46544
 20
6.889
 30
0.0
 40
0.0104167
 41
0.0104167
  0
VERTEX
  8
0
 10
8.15001
 20
6.889
 30
0.0
 40
0.0104167
 41
0.0104167
  0
SEQEND
 8
0
  0
POLYLINE
  8
0
 62
     253
 66
     1
 10
0
 20
0
 30
0.0
 40
0.375
 41
0.375
  0
VERTEX
  8
0
 10
8.18158
 20
5.88618
 30
0.0
 40
0.00520833
 41
0.00520833
  0
VERTEX
  8
0
 10
8.18158
 20
6.889
 30
0.0
 40
0.00520833
 41
0.00520833
  0
SEQEND
 8
0
  0
POLYLINE
  8
0
 62
     253
 66
     1
 10
0
 20
0
 30
0.0
 40
0.375
 41
0.375
  0
VERTEX
  8
0
 10
8.21311
 20
5.88618
 30
0.0
 40
0.00520833
 41
0.00520833
  0
VERTEX
  8
0
 10
8.21311
 20
6.889
 30
0.0
 40
0.00520833
 41
0.00520833
  0
SEQEND
 8
0
  0
POLYLINE
  8
0
 62
     253
 66
     1
 10
0
 20
0
 30
0.0
 40
0.375
 41
0.375
  0
VERTEX
  8
0
 10
8.24468
 20
5.88618
 30
0.0
 40
0.00520833
 41
0.00520833
  0
VERTEX
  8
0
 10
8.24468
 20
6.889
 30
0.0
 40
0.00520833
 41
0.00520833
  0
SEQEND
 8
0
  0
POLYLINE
  8
0
 62
     253
 66
     1
 10
0
 20
0
 30
0.0
 40
0.375
 41
0.375
  0
VERTEX
  8
0
 10
8.27621
 20
5.88618
 30
0.0
 40
0.00520833
 41
0.00520833
  0
VERTEX
  8
0
 10
8.27621
 20
6.889
 30
0.0
 40
0.00520833
 41
0.00520833
  0
SEQEND
 8
0
  0
POLYLINE
  8
0
 62
     253
 66
     1
 10
0
 20
0
 30
0.0
 40
0.375
 41
0.375
  0
VERTEX
  8
0
 10
8.30778
 20
5.88618
 30
0.0
 40
0.00520833
 41
0.00520833
  0
VERTEX
  8
0
 10
8.30778
 20
6.889
 30
0.0
 40
0.00520833
 41
0.00520833
  0
SEQEND
 8
0
  0
POLYLINE
  8
0
 62
     253
 66
     1
 10
0
 20
0
 30
0.0
 40
0.375
 41
0.375
  0
VERTEX
  8
0
 10
8.33931
 20
5.88618
 30
0.0
 40
0.00520833
 41
0.00520833
  0
VERTEX
  8
0
 10
8.33931
 20
6.889
 30
0.0
 40
0.00520833
 41
0.00520833
  0
SEQEND
 8
0
  0
POLYLINE
  8
0
 62
     253
 66
     1
 10
0
 20
0
 30
0.0
 40
0.375
 41
0.375
  0
VERTEX
  8
0
 10
8.37082
 20
5.88618
 30
0.0
 40
0.00520833
 41
0.00520833
  0
VERTEX
  8
0
 10
8.37082
 20
6.889
 30
0.0
 40
0.00520833
 41
0.00520833
  0
SEQEND
 8
0
  0
POLYLINE
  8
0
 62
     253
 66
     1
 10
0
 20
0
 30
0.0
 40
0.375
 41
0.375
  0
VERTEX
  8
0
 10
8.4024
 20
5.88618
 30
0.0
 40
0.00520833
 41
0.00520833
  0
VERTEX
  8
0
 10
8.4024
 20
6.889
 30
0.0
 40
0.00520833
 41
0.00520833
  0
SEQEND
 8
0
  0
POLYLINE
  8
0
 62
     253
 66
     1
 10
0
 20
0
 30
0.0
 40
0.375
 41
0.375
  0
VERTEX
  8
0
 10
8.43392
 20
5.88618
 30
0.0
 40
0.00520833
 41
0.00520833
  0
VERTEX
  8
0
 10
8.43392
 20
6.889
 30
0.0
 40
0.00520833
 41
0.00520833
  0
SEQEND
 8
0
  0
POLYLINE
  8
0
 62
     7
 66
     1
 10
0
 20
0
 30
0.0
 70
     1
 40
0
 41
0
  0
VERTEX
  8
0
 10
12.408
 20
5.13178
 30
0.0
 40
0
 41
0
  0
VERTEX
  8
0
 10
13.9215
 20
5.13178
 30
0.0
 40
0
 41
0
  0
VERTEX
  8
0
 10
13.9215
 20
5.10574
 30
0.0
 40
0
 41
0
  0
VERTEX
  8
0
 10
12.408
 20
5.10574
 30
0.0
 40
0
 41
0
  0
VERTEX
  8
0
 10
12.408
 20
5.13178
 30
0.0
 40
0
 41
0
  0
SEQEND
 8
0
  0
POLYLINE
  8
0
 62
     0
 66
     1
 10
0
 20
0
 30
0.0
 70
     1
 40
0.75
 41
0.75
  0
VERTEX
  8
0
 10
12.408
 20
5.13178
 30
0.0
 40
0.0104167
 41
0.0104167
  0
VERTEX
  8
0
 10
12.408
 20
5.10574
 30
0.0
 40
0.0104167
 41
0.0104167
  0
VERTEX
  8
0
 10
13.9215
 20
5.10574
 30
0.0
 40
0.0104167
 41
0.0104167
  0
VERTEX
  8
0
 10
13.9215
 20
5.13178
 30
0.0
 40
0.0104167
 41
0.0104167
  0
VERTEX
  8
0
 10
12.408
 20
5.13178
 30
0.0
 40
0.0104167
 41
0.0104167
  0
SEQEND
 8
0
  0
POLYLINE
  8
0
 62
     7
 66
     1
 10
0
 20
0
 30
0.0
 70
     1
 40
0
 41
0
  0
VERTEX
  8
0
 10
12.408
 20
5.13178
 30
0.0
 40
0
 41
0
  0
VERTEX
  8
0
 10
13.9215
 20
5.13178
 30
0.0
 40
0
 41
0
  0
VERTEX
  8
0
 10
13.9215
 20
5.10574
 30
0.0
 40
0
 41
0
  0
VERTEX
  8
0
 10
12.408
 20
5.10574
 30
0.0
 40
0
 41
0
  0
VERTEX
  8
0
 10
12.408
 20
5.13178
 30
0.0
 40
0
 41
0
  0
SEQEND
 8
0
  0
POLYLINE
  8
0
 62
     0
 66
     1
 10
0
 20
0
 30
0.0
 70
     1
 40
0.75
 41
0.75
  0
VERTEX
  8
0
 10
12.408
 20
5.13178
 30
0.0
 40
0.0104167
 41
0.0104167
  0
VERTEX
  8
0
 10
12.408
 20
5.10574
 30
0.0
 40
0.0104167
 41
0.0104167
  0
VERTEX
  8
0
 10
13.9215
 20
5.10574
 30
0.0
 40
0.0104167
 41
0.0104167
  0
VERTEX
  8
0
 10
13.9215
 20
5.13178
 30
0.0
 40
0.0104167
 41
0.0104167
  0
VERTEX
  8
0
 10
12.408
 20
5.13178
 30
0.0
 40
0.0104167
 41
0.0104167
  0
SEQEND
 8
0
  0
POLYLINE
  8
0
 62
     7
 66
     1
 10
0
 20
0
 30
0.0
 70
     1
 40
0
 41
0
  0
VERTEX
  8
0
 10
5.53988
 20
5.28526
 30
0.0
 40
0
 41
0
  0
VERTEX
  8
0
 10
6.66407
 20
5.28526
 30
0.0
 40
0
 41
0
  0
VERTEX
  8
0
 10
6.66407
 20
5.25922
 30
0.0
 40
0
 41
0
  0
VERTEX
  8
0
 10
5.53988
 20
5.25922
 30
0.0
 40
0
 41
0
  0
VERTEX
  8
0
 10
5.53988
 20
5.28526
 30
0.0
 40
0
 41
0
  0
SEQEND
 8
0
  0
POLYLINE
  8
0
 62
     0
 66
     1
 10
0
 20
0
 30
0.0
 70
     1
 40
0.75
 41
0.75
  0
VERTEX
  8
0
 10
5.53988
 20
5.28526
 30
0.0
 40
0.0104167
 41
0.0104167
  0
VERTEX
  8
0
 10
5.53988
 20
5.25922
 30
0.0
 40
0.0104167
 41
0.0104167
  0
VERTEX
  8
0
 10
6.66407
 20
5.25922
 30
0.0
 40
0.0104167
 41
0.0104167
  0
VERTEX
  8
0
 10
6.66407
 20
5.28526
 30
0.0
 40
0.0104167
 41
0.0104167
  0
VERTEX
  8
0
 10
5.53988
 20
5.28526
 30
0.0
 40
0.0104167
 41
0.0104167
  0
SEQEND
 8
0
  0
POLYLINE
  8
0
 62
     7
 66
     1
 10
0
 20
0
 30
0.0
 70
     1
 40
0
 41
0
  0
VERTEX
  8
0
 10
5.53988
 20
5.28526
 30
0.0
 40
0
 41
0
  0
VERTEX
  8
0
 10
6.66407
 20
5.28526
 30
0.0
 40
0
 41
0
  0
VERTEX
  8
0
 10
6.66407
 20
5.25922
 30
0.0
 40
0
 41
0
  0
VERTEX
  8
0
 10
5.53988
 20
5.25922
 30
0.0
 40
0
 41
0
  0
VERTEX
  8
0
 10
5.53988
 20
5.28526
 30
0.0
 40
0
 41
0
  0
SEQEND
 8
0
  0
POLYLINE
  8
0
 62
     0
 66
     1
 10
0
 20
0
 30
0.0
 70
     1
 40
0.75
 41
0.75
  0
VERTEX
  8
0
 10
5.53988
 20
5.28526
 30
0.0
 40
0.0104167
 41
0.0104167
  0
VERTEX
  8
0
 10
5.53988
 20
5.25922
 30
0.0
 40
0.0104167
 41
0.0104167
  0
VERTEX
  8
0
 10
6.66407
 20
5.25922
 30
0.0
 40
0.0104167
 41
0.0104167
  0
VERTEX
  8
0
 10
6.66407
 20
5.28526
 30
0.0
 40
0.0104167
 41
0.0104167
  0
VERTEX
  8
0
 10
5.53988
 20
5.28526
 30
0.0
 40
0.0104167
 41
0.0104167
  0
SEQEND
 8
0
  0
POLYLINE
  8
0
 62
     7
 66
     1
 10
0
 20
0
 30
0.0
 70
     1
 40
0
 41
0
  0
VERTEX
  8
0
 10
10.4472
 20
3.57607
 30
0.0
 40
0
 41
0
  0
VERTEX
  8
0
 10
11.0722
 20
3.57607
 30
0.0
 40
0
 41
0
  0
VERTEX
  8
0
 10
11.0722
 20
3.04312
 30
0.0
 40
0
 41
0
  0
VERTEX
  8
0
 10
10.4472
 20
3.04312
 30
0.0
 40
0
 41
0
  0
VERTEX
  8
0
 10
10.4472
 20
3.57607
 30
0.0
 40
0
 41
0
  0
SEQEND
 8
0
  0
POLYLINE
  8
0
 62
     0
 66
     1
 10
0
 20
0
 30
0.0
 70
     1
 40
0.75
 41
0.75
  0
VERTEX
  8
0
 10
10.4472
 20
3.57607
 30
0.0
 40
0.0104167
 41
0.0104167
  0
VERTEX
  8
0
 10
10.4472
 20
3.04312
 30
0.0
 40
0.0104167
 41
0.0104167
  0
VERTEX
  8
0
 10
11.0722
 20
3.04312
 30
0.0
 40
0.0104167
 41
0.0104167
  0
VERTEX
  8
0
 10
11.0722
 20
3.57607
 30
0.0
 40
0.0104167
 41
0.0104167
  0
VERTEX
  8
0
 10
10.4472
 20
3.57607
 30
0.0
 40
0.0104167
 41
0.0104167
  0
SEQEND
 8
0
  0
POLYLINE
  8
0
 62
     7
 66
     1
 10
0
 20
0
 30
0.0
 70
     1
 40
0
 41
0
  0
VERTEX
  8
0
 10
10.4477
 20
3.04318
 30
0.0
 40
0
 41
0
  0
VERTEX
  8
0
 10
11.0727
 20
3.04318
 30
0.0
 40
0
 41
0
  0
VERTEX
  8
0
 10
11.0727
 20
2.43138
 30
0.0
 40
0
 41
0
  0
VERTEX
  8
0
 10
10.4477
 20
2.43138
 30
0.0
 40
0
 41
0
  0
VERTEX
  8
0
 10
10.4477
 20
3.04318
 30
0.0
 40
0
 41
0
  0
SEQEND
 8
0
  0
POLYLINE
  8
0
 62
     0
 66
     1
 10
0
 20
0
 30
0.0
 70
     1
 40
0.734175
 41
0.734175
  0
VERTEX
  8
0
 10
10.4477
 20
3.04318
 30
0.0
 40
0.0101969
 41
0.0101969
  0
VERTEX
  8
0
 10
10.4477
 20
2.43138
 30
0.0
 40
0.0101969
 41
0.0101969
  0
VERTEX
  8
0
 10
11.0727
 20
2.43138
 30
0.0
 40
0.0101969
 41
0.0101969
  0
VERTEX
  8
0
 10
11.0727
 20
3.04318
 30
0.0
 40
0.0101969
 41
0.0101969
  0
VERTEX
  8
0
 10
10.4477
 20
3.04318
 30
0.0
 40
0.0101969
 41
0.0101969
  0
SEQEND
 8
0
  0
POLYLINE
  8
0
 62
     0
 66
     1
 10
0
 20
0
 30
0.0
 40
0.734175
 41
0.734175
  0
VERTEX
  8
0
 10
11.0727
 20
3.04318
 30
0.0
 40
0.0101969
 41
0.0101969
  0
VERTEX
  8
0
 10
10.6862
 20
2.73725
 30
0.0
 40
0.0101969
 41
0.0101969
  0
VERTEX
  8
0
 10
10.8737
 20
2.73725
 30
0.0
 40
0.0101969
 41
0.0101969
  0
VERTEX
  8
0
 10
10.4862
 20
2.43138
 30
0.0
 40
0.0101969
 41
0.0101969
  0
SEQEND
 8
0
  0
POLYLINE
  8
0
 62
     7
 66
     1
 10
0
 20
0
 30
0.0
 70
     1
 40
0
 41
0
  0
VERTEX
  8
0
 10
10.4477
 20
3.04318
 30
0.0
 40
0
 41
0
  0
VERTEX
  8
0
 10
10.4894
 20
3.04318
 30
0.0
 40
0
 41
0
  0
VERTEX
  8
0
 10
10.4894
 20
2.43138
 30
0.0
 40
0
 41
0
  0
VERTEX
  8
0
 10
10.4477
 20
2.43138
 30
0.0
 40
0
 41
0
  0
VERTEX
  8
0
 10
10.4477
 20
3.04318
 30
0.0
 40
0
 41
0
  0
SEQEND
 8
0
  0
POLYLINE
  8
0
 62
     0
 66
     1
 10
0
 20
0
 30
0.0
 70
     1
 40
0.734175
 41
0.734175
  0
VERTEX
  8
0
 10
10.4477
 20
3.04318
 30
0.0
 40
0.0101969
 41
0.0101969
  0
VERTEX
  8
0
 10
10.4477
 20
2.43138
 30
0.0
 40
0.0101969
 41
0.0101969
  0
VERTEX
  8
0
 10
10.4894
 20
2.43138
 30
0.0
 40
0.0101969
 41
0.0101969
  0
VERTEX
  8
0
 10
10.4894
 20
3.04318
 30
0.0
 40
0.0101969
 41
0.0101969
  0
VERTEX
  8
0
 10
10.4477
 20
3.04318
 30
0.0
 40
0.0101969
 41
0.0101969
  0
SEQEND
 8
0
  0
POLYLINE
  8
0
 62
     7
 66
     1
 10
0
 20
0
 30
0.0
 70
     1
 40
0
 41
0
  0
VERTEX
  8
0
 10
10.4477
 20
2.43132
 30
0.0
 40
0
 41
0
  0
VERTEX
  8
0
 10
11.0727
 20
2.43132
 30
0.0
 40
0
 41
0
  0
VERTEX
  8
0
 10
11.0727
 20
1.8195
 30
0.0
 40
0
 41
0
  0
VERTEX
  8
0
 10
10.4477
 20
1.8195
 30
0.0
 40
0
 41
0
  0
VERTEX
  8
0
 10
10.4477
 20
2.43132
 30
0.0
 40
0
 41
0
  0
SEQEND
 8
0
  0
POLYLINE
  8
0
 62
     0
 66
     1
 10
0
 20
0
 30
0.0
 70
     1
 40
0.734175
 41
0.734175
  0
VERTEX
  8
0
 10
10.4477
 20
2.43132
 30
0.0
 40
0.0101969
 41
0.0101969
  0
VERTEX
  8
0
 10
10.4477
 20
1.8195
 30
0.0
 40
0.0101969
 41
0.0101969
  0
VERTEX
  8
0
 10
11.0727
 20
1.8195
 30
0.0
 40
0.0101969
 41
0.0101969
  0
VERTEX
  8
0
 10
11.0727
 20
2.43132
 30
0.0
 40
0.0101969
 41
0.0101969
  0
VERTEX
  8
0
 10
10.4477
 20
2.43132
 30
0.0
 40
0.0101969
 41
0.0101969
  0
SEQEND
 8
0
  0
POLYLINE
  8
0
 62
     0
 66
     1
 10
0
 20
0
 30
0.0
 40
0.734175
 41
0.734175
  0
VERTEX
  8
0
 10
11.0727
 20
2.43132
 30
0.0
 40
0.0101969
 41
0.0101969
  0
VERTEX
  8
0
 10
10.6862
 20
2.12543
 30
0.0
 40
0.0101969
 41
0.0101969
  0
VERTEX
  8
0
 10
10.8737
 20
2.12543
 30
0.0
 40
0.0101969
 41
0.0101969
  0
VERTEX
  8
0
 10
10.4862
 20
1.8195
 30
0.0
 40
0.0101969
 41
0.0101969
  0
SEQEND
 8
0
  0
POLYLINE
  8
0
 62
     7
 66
     1
 10
0
 20
0
 30
0.0
 70
     1
 40
0
 41
0
  0
VERTEX
  8
0
 10
10.4477
 20
2.43132
 30
0.0
 40
0
 41
0
  0
VERTEX
  8
0
 10
10.4894
 20
2.43132
 30
0.0
 40
0
 41
0
  0
VERTEX
  8
0
 10
10.4894
 20
1.8195
 30
0.0
 40
0
 41
0
  0
VERTEX
  8
0
 10
10.4477
 20
1.8195
 30
0.0
 40
0
 41
0
  0
VERTEX
  8
0
 10
10.4477
 20
2.43132
 30
0.0
 40
0
 41
0
  0
SEQEND
 8
0
  0
POLYLINE
  8
0
 62
     0
 66
     1
 10
0
 20
0
 30
0.0
 70
     1
 40
0.734175
 41
0.734175
  0
VERTEX
  8
0
 10
10.4477
 20
2.43132
 30
0.0
 40
0.0101969
 41
0.0101969
  0
VERTEX
  8
0
 10
10.4477
 20
1.8195
 30
0.0
 40
0.0101969
 41
0.0101969
  0
VERTEX
  8
0
 10
10.4894
 20
1.8195
 30
0.0
 40
0.0101969
 41
0.0101969
  0
VERTEX
  8
0
 10
10.4894
 20
2.43132
 30
0.0
 40
0.0101969
 41
0.0101969
  0
VERTEX
  8
0
 10
10.4477
 20
2.43132
 30
0.0
 40
0.0101969
 41
0.0101969
  0
SEQEND
 8
0
  0
POLYLINE
  8
0
 62
     7
 66
     1
 10
0
 20
0
 30
0.0
 70
     1
 40
0
 41
0
  0
VERTEX
  8
0
 10
10.4474
 20
1.8195
 30
0.0
 40
0
 41
0
  0
VERTEX
  8
0
 10
10.4474
 20
1.7366
 30
0.0
 40
0
 41
0
  0
VERTEX
  8
0
 10
8.88932
 20
1.7366
 30
0.0
 40
0
 41
0
  0
VERTEX
  8
0
 10
8.88932
 20
2.97564
 30
0.0
 40
0
 41
0
  0
VERTEX
  8
0
 10
8.27821
 20
2.97564
 30
0.0
 40
0
 41
0
  0
VERTEX
  8
0
 10
8.27653
 20
1.43392
 30
0.0
 40
0
 41
0
  0
VERTEX
  8
0
 10
8.66683
 20
1.43392
 30
0.0
 40
0
 41
0
  0
VERTEX
  8
0
 10
8.66683
 20
1.11464
 30
0.0
 40
0
 41
0
  0
VERTEX
  8
0
 10
11.073
 20
1.1135
 30
0.0
 40
0
 41
0
  0
VERTEX
  8
0
 10
11.0726
 20
1.8195
 30
0.0
 40
0
 41
0
  0
VERTEX
  8
0
 10
10.4474
 20
1.8195
 30
0.0
 40
0
 41
0
  0
SEQEND
 8
0
  0
POLYLINE
  8
0
 62
     0
 66
     1
 10
0
 20
0
 30
0.0
 70
     1
 40
0.75
 41
0.75
  0
VERTEX
  8
0
 10
10.4474
 20
1.8195
 30
0.0
 40
0.0104167
 41
0.0104167
  0
VERTEX
  8
0
 10
10.4474
 20
1.7366
 30
0.0
 40
0.0104167
 41
0.0104167
  0
VERTEX
  8
0
 10
8.88932
 20
1.7366
 30
0.0
 40
0.0104167
 41
0.0104167
  0
VERTEX
  8
0
 10
8.88932
 20
2.97564
 30
0.0
 40
0.0104167
 41
0.0104167
  0
VERTEX
  8
0
 10
8.27821
 20
2.97564
 30
0.0
 40
0.0104167
 41
0.0104167
  0
VERTEX
  8
0
 10
8.27653
 20
1.43392
 30
0.0
 40
0.0104167
 41
0.0104167
  0
VERTEX
  8
0
 10
8.66683
 20
1.43392
 30
0.0
 40
0.0104167
 41
0.0104167
  0
VERTEX
  8
0
 10
8.66683
 20
1.11464
 30
0.0
 40
0.0104167
 41
0.0104167
  0
VERTEX
  8
0
 10
11.073
 20
1.1135
 30
0.0
 40
0.0104167
 41
0.0104167
  0
VERTEX
  8
0
 10
11.0726
 20
1.8195
 30
0.0
 40
0.0104167
 41
0.0104167
  0
VERTEX
  8
0
 10
10.4474
 20
1.8195
 30
0.0
 40
0.0104167
 41
0.0104167
  0
SEQEND
 8
0
  0
POLYLINE
  8
0
 62
     7
 66
     1
 10
0
 20
0
 30
0.0
 70
     1
 40
0
 41
0
  0
VERTEX
  8
0
 10
10.2578
 20
1.62875
 30
0.0
 40
0
 41
0
  0
VERTEX
  8
0
 10
10.4423
 20
1.62875
 30
0.0
 40
0
 41
0
  0
VERTEX
  8
0
 10
10.4423
 20
1.22895
 30
0.0
 40
0
 41
0
  0
VERTEX
  8
0
 10
10.2578
 20
1.22895
 30
0.0
 40
0
 41
0
  0
VERTEX
  8
0
 10
10.2578
 20
1.62875
 30
0.0
 40
0
 41
0
  0
SEQEND
 8
0
  0
POLYLINE
  8
0
 62
     0
 66
     1
 10
0
 20
0
 30
0.0
 70
     1
 40
0.75
 41
0.75
  0
VERTEX
  8
0
 10
10.2578
 20
1.62875
 30
0.0
 40
0.0104167
 41
0.0104167
  0
VERTEX
  8
0
 10
10.4423
 20
1.62875
 30
0.0
 40
0.0104167
 41
0.0104167
  0
VERTEX
  8
0
 10
10.4423
 20
1.22895
 30
0.0
 40
0.0104167
 41
0.0104167
  0
VERTEX
  8
0
 10
10.2578
 20
1.22895
 30
0.0
 40
0.0104167
 41
0.0104167
  0
VERTEX
  8
0
 10
10.2578
 20
1.62875
 30
0.0
 40
0.0104167
 41
0.0104167
  0
SEQEND
 8
0
  0
POLYLINE
  8
0
 62
     7
 66
     1
 10
0
 20
0
 30
0.0
 70
     1
 40
0
 41
0
  0
VERTEX
  8
0
 10
9.88894
 20
1.62972
 30
0.0
 40
0
 41
0
  0
VERTEX
  8
0
 10
10.2302
 20
1.62972
 30
0.0
 40
0
 41
0
  0
VERTEX
  8
0
 10
10.2302
 20
1.22998
 30
0.0
 40
0
 41
0
  0
VERTEX
  8
0
 10
9.88894
 20
1.22998
 30
0.0
 40
0
 41
0
  0
VERTEX
  8
0
 10
9.88894
 20
1.62972
 30
0.0
 40
0
 41
0
  0
SEQEND
 8
0
  0
POLYLINE
  8
0
 62
     0
 66
     1
 10
0
 20
0
 30
0.0
 70
     1
 40
0.75
 41
0.75
  0
VERTEX
  8
0
 10
9.88894
 20
1.62972
 30
0.0
 40
0.0104167
 41
0.0104167
  0
VERTEX
  8
0
 10
10.2302
 20
1.62972
 30
0.0
 40
0.0104167
 41
0.0104167
  0
VERTEX
  8
0
 10
10.2302
 20
1.22998
 30
0.0
 40
0.0104167
 41
0.0104167
  0
VERTEX
  8
0
 10
9.88894
 20
1.22998
 30
0.0
 40
0.0104167
 41
0.0104167
  0
VERTEX
  8
0
 10
9.88894
 20
1.62972
 30
0.0
 40
0.0104167
 41
0.0104167
  0
SEQEND
 8
0
  0
POLYLINE
  8
0
 62
     7
 66
     1
 10
0
 20
0
 30
0.0
 70
     1
 40
0
 41
0
  0
VERTEX
  8
0
 10
10.3136
 20
1.42356
 30
0.0
 40
0
 41
0
  0
VERTEX
  8
0
 10
10.3136
 20
1.43001
 30
0.0
 40
0
 41
0
  0
VERTEX
  8
0
 10
10.3242
 20
1.44938
 30
0.0
 40
0
 41
0
  0
VERTEX
  8
0
 10
10.3436
 20
1.46001
 30
0.0
 40
0
 41
0
  0
VERTEX
  8
0
 10
10.35
 20
1.46001
 30
0.0
 40
0
 41
0
  0
VERTEX
  8
0
 10
10.3564
 20
1.46001
 30
0.0
 40
0
 41
0
  0
VERTEX
  8
0
 10
10.3758
 20
1.44938
 30
0.0
 40
0
 41
0
  0
VERTEX
  8
0
 10
10.3865
 20
1.43001
 30
0.0
 40
0
 41
0
  0
VERTEX
  8
0
 10
10.3865
 20
1.42356
 30
0.0
 40
0
 41
0
  0
VERTEX
  8
0
 10
10.3865
 20
1.41715
 30
0.0
 40
0
 41
0
  0
VERTEX
  8
0
 10
10.3758
 20
1.39779
 30
0.0
 40
0
 41
0
  0
VERTEX
  8
0
 10
10.3564
 20
1.3871
 30
0.0
 40
0
 41
0
  0
VERTEX
  8
0
 10
10.35
 20
1.3871
 30
0.0
 40
0
 41
0
  0
VERTEX
  8
0
 10
10.3436
 20
1.3871
 30
0.0
 40
0
 41
0
  0
VERTEX
  8
0
 10
10.3242
 20
1.39779
 30
0.0
 40
0
 41
0
  0
VERTEX
  8
0
 10
10.3136
 20
1.41715
 30
0.0
 40
0
 41
0
  0
VERTEX
  8
0
 10
10.3136
 20
1.42356
 30
0.0
 40
0
 41
0
  0
SEQEND
 8
0
  0
POLYLINE
  8
0
 62
     0
 66
     1
 10
0
 20
0
 30
0.0
 70
     1
 40
0.6
 41
0.6
  0
VERTEX
  8
0
 10
10.3136
 20
1.42356
 30
0.0
 40
0.00833333
 41
0.00833333
  0
VERTEX
  8
0
 10
10.3136
 20
1.43001
 30
0.0
 40
0.00833333
 41
0.00833333
  0
VERTEX
  8
0
 10
10.3242
 20
1.44938
 30
0.0
 40
0.00833333
 41
0.00833333
  0
VERTEX
  8
0
 10
10.3436
 20
1.46001
 30
0.0
 40
0.00833333
 41
0.00833333
  0
VERTEX
  8
0
 10
10.35
 20
1.46001
 30
0.0
 40
0.00833333
 41
0.00833333
  0
VERTEX
  8
0
 10
10.3564
 20
1.46001
 30
0.0
 40
0.00833333
 41
0.00833333
  0
VERTEX
  8
0
 10
10.3758
 20
1.44938
 30
0.0
 40
0.00833333
 41
0.00833333
  0
VERTEX
  8
0
 10
10.3865
 20
1.43001
 30
0.0
 40
0.00833333
 41
0.00833333
  0
VERTEX
  8
0
 10
10.3865
 20
1.42356
 30
0.0
 40
0.00833333
 41
0.00833333
  0
VERTEX
  8
0
 10
10.3865
 20
1.41715
 30
0.0
 40
0.00833333
 41
0.00833333
  0
VERTEX
  8
0
 10
10.3758
 20
1.39779
 30
0.0
 40
0.00833333
 41
0.00833333
  0
VERTEX
  8
0
 10
10.3564
 20
1.3871
 30
0.0
 40
0.00833333
 41
0.00833333
  0
VERTEX
  8
0
 10
10.35
 20
1.3871
 30
0.0
 40
0.00833333
 41
0.00833333
  0
VERTEX
  8
0
 10
10.3436
 20
1.3871
 30
0.0
 40
0.00833333
 41
0.00833333
  0
VERTEX
  8
0
 10
10.3242
 20
1.39779
 30
0.0
 40
0.00833333
 41
0.00833333
  0
VERTEX
  8
0
 10
10.3136
 20
1.41715
 30
0.0
 40
0.00833333
 41
0.00833333
  0
VERTEX
  8
0
 10
10.3136
 20
1.42356
 30
0.0
 40
0.00833333
 41
0.00833333
  0
SEQEND
 8
0
  0
POLYLINE
  8
0
 62
     7
 66
     1
 10
0
 20
0
 30
0.0
 70
     1
 40
0
 41
0
  0
VERTEX
  8
0
 10
10.0277
 20
1.42356
 30
0.0
 40
0
 41
0
  0
VERTEX
  8
0
 10
10.0277
 20
1.43001
 30
0.0
 40
0
 41
0
  0
VERTEX
  8
0
 10
10.0383
 20
1.44938
 30
0.0
 40
0
 41
0
  0
VERTEX
  8
0
 10
10.0577
 20
1.46001
 30
0.0
 40
0
 41
0
  0
VERTEX
  8
0
 10
10.0641
 20
1.46001
 30
0.0
 40
0
 41
0
  0
VERTEX
  8
0
 10
10.0705
 20
1.46001
 30
0.0
 40
0
 41
0
  0
VERTEX
  8
0
 10
10.0899
 20
1.44938
 30
0.0
 40
0
 41
0
  0
VERTEX
  8
0
 10
10.1006
 20
1.43001
 30
0.0
 40
0
 41
0
  0
VERTEX
  8
0
 10
10.1006
 20
1.42356
 30
0.0
 40
0
 41
0
  0
VERTEX
  8
0
 10
10.1006
 20
1.41715
 30
0.0
 40
0
 41
0
  0
VERTEX
  8
0
 10
10.0899
 20
1.39779
 30
0.0
 40
0
 41
0
  0
VERTEX
  8
0
 10
10.0705
 20
1.3871
 30
0.0
 40
0
 41
0
  0
VERTEX
  8
0
 10
10.0641
 20
1.3871
 30
0.0
 40
0
 41
0
  0
VERTEX
  8
0
 10
10.0577
 20
1.3871
 30
0.0
 40
0
 41
0
  0
VERTEX
  8
0
 10
10.0383
 20
1.39779
 30
0.0
 40
0
 41
0
  0
VERTEX
  8
0
 10
10.0277
 20
1.41715
 30
0.0
 40
0
 41
0
  0
VERTEX
  8
0
 10
10.0277
 20
1.42356
 30
0.0
 40
0
 41
0
  0
SEQEND
 8
0
  0
POLYLINE
  8
0
 62
     0
 66
     1
 10
0
 20
0
 30
0.0
 70
     1
 40
0.6
 41
0.6
  0
VERTEX
  8
0
 10
10.0277
 20
1.42356
 30
0.0
 40
0.00833333
 41
0.00833333
  0
VERTEX
  8
0
 10
10.0277
 20
1.43001
 30
0.0
 40
0.00833333
 41
0.00833333
  0
VERTEX
  8
0
 10
10.0383
 20
1.44938
 30
0.0
 40
0.00833333
 41
0.00833333
  0
VERTEX
  8
0
 10
10.0577
 20
1.46001
 30
0.0
 40
0.00833333
 41
0.00833333
  0
VERTEX
  8
0
 10
10.0641
 20
1.46001
 30
0.0
 40
0.00833333
 41
0.00833333
  0
VERTEX
  8
0
 10
10.0705
 20
1.46001
 30
0.0
 40
0.00833333
 41
0.00833333
  0
VERTEX
  8
0
 10
10.0899
 20
1.44938
 30
0.0
 40
0.00833333
 41
0.00833333
  0
VERTEX
  8
0
 10
10.1006
 20
1.43001
 30
0.0
 40
0.00833333
 41
0.00833333
  0
VERTEX
  8
0
 10
10.1006
 20
1.42356
 30
0.0
 40
0.00833333
 41
0.00833333
  0
VERTEX
  8
0
 10
10.1006
 20
1.41715
 30
0.0
 40
0.00833333
 41
0.00833333
  0
VERTEX
  8
0
 10
10.0899
 20
1.39779
 30
0.0
 40
0.00833333
 41
0.00833333
  0
VERTEX
  8
0
 10
10.0705
 20
1.3871
 30
0.0
 40
0.00833333
 41
0.00833333
  0
VERTEX
  8
0
 10
10.0641
 20
1.3871
 30
0.0
 40
0.00833333
 41
0.00833333
  0
VERTEX
  8
0
 10
10.0577
 20
1.3871
 30
0.0
 40
0.00833333
 41
0.00833333
  0
VERTEX
  8
0
 10
10.0383
 20
1.39779
 30
0.0
 40
0.00833333
 41
0.00833333
  0
VERTEX
  8
0
 10
10.0277
 20
1.41715
 30
0.0
 40
0.00833333
 41
0.00833333
  0
VERTEX
  8
0
 10
10.0277
 20
1.42356
 30
0.0
 40
0.00833333
 41
0.00833333
  0
SEQEND
 8
0
  0
POLYLINE
  8
0
 62
     7
 66
     1
 10
0
 20
0
 30
0.0
 70
     1
 40
0
 41
0
  0
VERTEX
  8
0
 10
10.3292
 20
1.42356
 30
0.0
 40
0
 41
0
  0
VERTEX
  8
0
 10
10.3292
 20
1.42725
 30
0.0
 40
0
 41
0
  0
VERTEX
  8
0
 10
10.3353
 20
1.43832
 30
0.0
 40
0
 41
0
  0
VERTEX
  8
0
 10
10.3464
 20
1.44439
 30
0.0
 40
0
 41
0
  0
VERTEX
  8
0
 10
10.35
 20
1.44439
 30
0.0
 40
0
 41
0
  0
VERTEX
  8
0
 10
10.3537
 20
1.44439
 30
0.0
 40
0
 41
0
  0
VERTEX
  8
0
 10
10.3648
 20
1.43832
 30
0.0
 40
0
 41
0
  0
VERTEX
  8
0
 10
10.3709
 20
1.42725
 30
0.0
 40
0
 41
0
  0
VERTEX
  8
0
 10
10.3709
 20
1.42356
 30
0.0
 40
0
 41
0
  0
VERTEX
  8
0
 10
10.3709
 20
1.41992
 30
0.0
 40
0
 41
0
  0
VERTEX
  8
0
 10
10.3648
 20
1.40886
 30
0.0
 40
0
 41
0
  0
VERTEX
  8
0
 10
10.3537
 20
1.40272
 30
0.0
 40
0
 41
0
  0
VERTEX
  8
0
 10
10.35
 20
1.40272
 30
0.0
 40
0
 41
0
  0
VERTEX
  8
0
 10
10.3464
 20
1.40272
 30
0.0
 40
0
 41
0
  0
VERTEX
  8
0
 10
10.3353
 20
1.40886
 30
0.0
 40
0
 41
0
  0
VERTEX
  8
0
 10
10.3292
 20
1.41992
 30
0.0
 40
0
 41
0
  0
VERTEX
  8
0
 10
10.3292
 20
1.42356
 30
0.0
 40
0
 41
0
  0
SEQEND
 8
0
  0
POLYLINE
  8
0
 62
     0
 66
     1
 10
0
 20
0
 30
0.0
 70
     1
 40
0.6
 41
0.6
  0
VERTEX
  8
0
 10
10.3292
 20
1.42356
 30
0.0
 40
0.00833333
 41
0.00833333
  0
VERTEX
  8
0
 10
10.3292
 20
1.42725
 30
0.0
 40
0.00833333
 41
0.00833333
  0
VERTEX
  8
0
 10
10.3353
 20
1.43832
 30
0.0
 40
0.00833333
 41
0.00833333
  0
VERTEX
  8
0
 10
10.3464
 20
1.44439
 30
0.0
 40
0.00833333
 41
0.00833333
  0
VERTEX
  8
0
 10
10.35
 20
1.44439
 30
0.0
 40
0.00833333
 41
0.00833333
  0
VERTEX
  8
0
 10
10.3537
 20
1.44439
 30
0.0
 40
0.00833333
 41
0.00833333
  0
VERTEX
  8
0
 10
10.3648
 20
1.43832
 30
0.0
 40
0.00833333
 41
0.00833333
  0
VERTEX
  8
0
 10
10.3709
 20
1.42725
 30
0.0
 40
0.00833333
 41
0.00833333
  0
VERTEX
  8
0
 10
10.3709
 20
1.42356
 30
0.0
 40
0.00833333
 41
0.00833333
  0
VERTEX
  8
0
 10
10.3709
 20
1.41992
 30
0.0
 40
0.00833333
 41
0.00833333
  0
VERTEX
  8
0
 10
10.3648
 20
1.40886
 30
0.0
 40
0.00833333
 41
0.00833333
  0
VERTEX
  8
0
 10
10.3537
 20
1.40272
 30
0.0
 40
0.00833333
 41
0.00833333
  0
VERTEX
  8
0
 10
10.35
 20
1.40272
 30
0.0
 40
0.00833333
 41
0.00833333
  0
VERTEX
  8
0
 10
10.3464
 20
1.40272
 30
0.0
 40
0.00833333
 41
0.00833333
  0
VERTEX
  8
0
 10
10.3353
 20
1.40886
 30
0.0
 40
0.00833333
 41
0.00833333
  0
VERTEX
  8
0
 10
10.3292
 20
1.41992
 30
0.0
 40
0.00833333
 41
0.00833333
  0
VERTEX
  8
0
 10
10.3292
 20
1.42356
 30
0.0
 40
0.00833333
 41
0.00833333
  0
SEQEND
 8
0
  0
POLYLINE
  8
0
 62
     7
 66
     1
 10
0
 20
0
 30
0.0
 70
     1
 40
0
 41
0
  0
VERTEX
  8
0
 10
10.0433
 20
1.42356
 30
0.0
 40
0
 41
0
  0
VERTEX
  8
0
 10
10.0433
 20
1.42725
 30
0.0
 40
0
 41
0
  0
VERTEX
  8
0
 10
10.0494
 20
1.43832
 30
0.0
 40
0
 41
0
  0
VERTEX
  8
0
 10
10.0604
 20
1.44439
 30
0.0
 40
0
 41
0
  0
VERTEX
  8
0
 10
10.0641
 20
1.44439
 30
0.0
 40
0
 41
0
  0
VERTEX
  8
0
 10
10.0678
 20
1.44439
 30
0.0
 40
0
 41
0
  0
VERTEX
  8
0
 10
10.0788
 20
1.43832
 30
0.0
 40
0
 41
0
  0
VERTEX
  8
0
 10
10.085
 20
1.42725
 30
0.0
 40
0
 41
0
  0
VERTEX
  8
0
 10
10.085
 20
1.42356
 30
0.0
 40
0
 41
0
  0
VERTEX
  8
0
 10
10.085
 20
1.41992
 30
0.0
 40
0
 41
0
  0
VERTEX
  8
0
 10
10.0788
 20
1.40886
 30
0.0
 40
0
 41
0
  0
VERTEX
  8
0
 10
10.0678
 20
1.40272
 30
0.0
 40
0
 41
0
  0
VERTEX
  8
0
 10
10.0641
 20
1.40272
 30
0.0
 40
0
 41
0
  0
VERTEX
  8
0
 10
10.0604
 20
1.40272
 30
0.0
 40
0
 41
0
  0
VERTEX
  8
0
 10
10.0494
 20
1.40886
 30
0.0
 40
0
 41
0
  0
VERTEX
  8
0
 10
10.0433
 20
1.41992
 30
0.0
 40
0
 41
0
  0
VERTEX
  8
0
 10
10.0433
 20
1.42356
 30
0.0
 40
0
 41
0
  0
SEQEND
 8
0
  0
POLYLINE
  8
0
 62
     0
 66
     1
 10
0
 20
0
 30
0.0
 70
     1
 40
0.6
 41
0.6
  0
VERTEX
  8
0
 10
10.0433
 20
1.42356
 30
0.0
 40
0.00833333
 41
0.00833333
  0
VERTEX
  8
0
 10
10.0433
 20
1.42725
 30
0.0
 40
0.00833333
 41
0.00833333
  0
VERTEX
  8
0
 10
10.0494
 20
1.43832
 30
0.0
 40
0.00833333
 41
0.00833333
  0
VERTEX
  8
0
 10
10.0604
 20
1.44439
 30
0.0
 40
0.00833333
 41
0.00833333
  0
VERTEX
  8
0
 10
10.0641
 20
1.44439
 30
0.0
 40
0.00833333
 41
0.00833333
  0
VERTEX
  8
0
 10
10.0678
 20
1.44439
 30
0.0
 40
0.00833333
 41
0.00833333
  0
VERTEX
  8
0
 10
10.0788
 20
1.43832
 30
0.0
 40
0.00833333
 41
0.00833333
  0
VERTEX
  8
0
 10
10.085
 20
1.42725
 30
0.0
 40
0.00833333
 41
0.00833333
  0
VERTEX
  8
0
 10
10.085
 20
1.42356
 30
0.0
 40
0.00833333
 41
0.00833333
  0
VERTEX
  8
0
 10
10.085
 20
1.41992
 30
0.0
 40
0.00833333
 41
0.00833333
  0
VERTEX
  8
0
 10
10.0788
 20
1.40886
 30
0.0
 40
0.00833333
 41
0.00833333
  0
VERTEX
  8
0
 10
10.0678
 20
1.40272
 30
0.0
 40
0.00833333
 41
0.00833333
  0
VERTEX
  8
0
 10
10.0641
 20
1.40272
 30
0.0
 40
0.00833333
 41
0.00833333
  0
VERTEX
  8
0
 10
10.0604
 20
1.40272
 30
0.0
 40
0.00833333
 41
0.00833333
  0
VERTEX
  8
0
 10
10.0494
 20
1.40886
 30
0.0
 40
0.00833333
 41
0.00833333
  0
VERTEX
  8
0
 10
10.0433
 20
1.41992
 30
0.0
 40
0.00833333
 41
0.00833333
  0
VERTEX
  8
0
 10
10.0433
 20
1.42356
 30
0.0
 40
0.00833333
 41
0.00833333
  0
SEQEND
 8
0
  0
POLYLINE
  8
0
 62
     7
 66
     1
 10
0
 20
0
 30
0.0
 70
     1
 40
0
 41
0
  0
VERTEX
  8
0
 10
10.1308
 20
1.31657
 30
0.0
 40
0
 41
0
  0
VERTEX
  8
0
 10
10.1933
 20
1.31657
 30
0.0
 40
0
 41
0
  0
VERTEX
  8
0
 10
10.1933
 20
1.17074
 30
0.0
 40
0
 41
0
  0
VERTEX
  8
0
 10
10.1308
 20
1.17074
 30
0.0
 40
0
 41
0
  0
VERTEX
  8
0
 10
10.1308
 20
1.31657
 30
0.0
 40
0
 41
0
  0
SEQEND
 8
0
  0
POLYLINE
  8
0
 62
     0
 66
     1
 10
0
 20
0
 30
0.0
 70
     1
 40
0.75
 41
0.75
  0
VERTEX
  8
0
 10
10.1308
 20
1.31657
 30
0.0
 40
0.0104167
 41
0.0104167
  0
VERTEX
  8
0
 10
10.1933
 20
1.31657
 30
0.0
 40
0.0104167
 41
0.0104167
  0
VERTEX
  8
0
 10
10.1933
 20
1.17074
 30
0.0
 40
0.0104167
 41
0.0104167
  0
VERTEX
  8
0
 10
10.1308
 20
1.17074
 30
0.0
 40
0.0104167
 41
0.0104167
  0
VERTEX
  8
0
 10
10.1308
 20
1.31657
 30
0.0
 40
0.0104167
 41
0.0104167
  0
SEQEND
 8
0
  0
POLYLINE
  8
0
 62
     7
 66
     1
 10
0
 20
0
 30
0.0
 70
     1
 40
0
 41
0
  0
VERTEX
  8
0
 10
9.21778
 20
1.73107
 30
0.0
 40
0
 41
0
  0
VERTEX
  8
0
 10
9.84278
 20
1.73107
 30
0.0
 40
0
 41
0
  0
VERTEX
  8
0
 10
9.84278
 20
1.1142
 30
0.0
 40
0
 41
0
  0
VERTEX
  8
0
 10
9.21778
 20
1.1142
 30
0.0
 40
0
 41
0
  0
VERTEX
  8
0
 10
9.21778
 20
1.73107
 30
0.0
 40
0
 41
0
  0
SEQEND
 8
0
  0
POLYLINE
  8
0
 62
     0
 66
     1
 10
0
 20
0
 30
0.0
 70
     1
 40
0.75
 41
0.75
  0
VERTEX
  8
0
 10
9.21778
 20
1.73107
 30
0.0
 40
0.0104167
 41
0.0104167
  0
VERTEX
  8
0
 10
9.84278
 20
1.73107
 30
0.0
 40
0.0104167
 41
0.0104167
  0
VERTEX
  8
0
 10
9.84278
 20
1.1142
 30
0.0
 40
0.0104167
 41
0.0104167
  0
VERTEX
  8
0
 10
9.21778
 20
1.1142
 30
0.0
 40
0.0104167
 41
0.0104167
  0
VERTEX
  8
0
 10
9.21778
 20
1.73107
 30
0.0
 40
0.0104167
 41
0.0104167
  0
SEQEND
 8
0
  0
POLYLINE
  8
0
 62
     0
 66
     1
 10
0
 20
0
 30
0.0
 40
0.75
 41
0.75
  0
VERTEX
  8
0
 10
9.84278
 20
1.1142
 30
0.0
 40
0.0104167
 41
0.0104167
  0
VERTEX
  8
0
 10
9.52924
 20
1.52339
 30
0.0
 40
0.0104167
 41
0.0104167
  0
VERTEX
  8
0
 10
9.52924
 20
1.31369
 30
0.0
 40
0.0104167
 41
0.0104167
  0
VERTEX
  8
0
 10
9.21881
 20
1.73107
 30
0.0
 40
0.0104167
 41
0.0104167
  0
SEQEND
 8
0
  0
POLYLINE
  8
0
 62
     7
 66
     1
 10
0
 20
0
 30
0.0
 70
     1
 40
0
 41
0
  0
VERTEX
  8
0
 10
8.28315
 20
2.65451
 30
0.0
 40
0
 41
0
  0
VERTEX
  8
0
 10
8.89063
 20
2.65451
 30
0.0
 40
0
 41
0
  0
VERTEX
  8
0
 10
8.89063
 20
2.05464
 30
0.0
 40
0
 41
0
  0
VERTEX
  8
0
 10
8.28315
 20
2.05464
 30
0.0
 40
0
 41
0
  0
VERTEX
  8
0
 10
8.28315
 20
2.65451
 30
0.0
 40
0
 41
0
  0
SEQEND
 8
0
  0
POLYLINE
  8
0
 62
     0
 66
     1
 10
0
 20
0
 30
0.0
 70
     1
 40
0.75
 41
0.75
  0
VERTEX
  8
0
 10
8.28315
 20
2.65451
 30
0.0
 40
0.0104167
 41
0.0104167
  0
VERTEX
  8
0
 10
8.28315
 20
2.05464
 30
0.0
 40
0.0104167
 41
0.0104167
  0
VERTEX
  8
0
 10
8.89063
 20
2.05464
 30
0.0
 40
0.0104167
 41
0.0104167
  0
VERTEX
  8
0
 10
8.89063
 20
2.65451
 30
0.0
 40
0.0104167
 41
0.0104167
  0
VERTEX
  8
0
 10
8.28315
 20
2.65451
 30
0.0
 40
0.0104167
 41
0.0104167
  0
SEQEND
 8
0
  0
POLYLINE
  8
0
 62
     7
 66
     1
 10
0
 20
0
 30
0.0
 70
     1
 40
0
 41
0
  0
VERTEX
  8
0
 10
8.43565
 20
2.28836
 30
0.0
 40
0
 41
0
  0
VERTEX
  8
0
 10
8.44374
 20
2.28836
 30
0.0
 40
0
 41
0
  0
VERTEX
  8
0
 10
8.46804
 20
2.28185
 30
0.0
 40
0
 41
0
  0
VERTEX
  8
0
 10
8.49457
 20
2.26394
 30
0.0
 40
0
 41
0
  0
VERTEX
  8
0
 10
8.51243
 20
2.23747
 30
0.0
 40
0
 41
0
  0
VERTEX
  8
0
 10
8.51899
 20
2.21317
 30
0.0
 40
0
 41
0
  0
VERTEX
  8
0
 10
8.51899
 20
2.20503
 30
0.0
 40
0
 41
0
  0
VERTEX
  8
0
 10
8.51899
 20
2.19694
 30
0.0
 40
0
 41
0
  0
VERTEX
  8
0
 10
8.51243
 20
2.17264
 30
0.0
 40
0
 41
0
  0
VERTEX
  8
0
 10
8.49457
 20
2.14611
 30
0.0
 40
0
 41
0
  0
VERTEX
  8
0
 10
8.46804
 20
2.12825
 30
0.0
 40
0
 41
0
  0
VERTEX
  8
0
 10
8.44374
 20
2.12169
 30
0.0
 40
0
 41
0
  0
VERTEX
  8
0
 10
8.43565
 20
2.12169
 30
0.0
 40
0
 41
0
  0
VERTEX
  8
0
 10
8.42751
 20
2.12169
 30
0.0
 40
0
 41
0
  0
VERTEX
  8
0
 10
8.40321
 20
2.12825
 30
0.0
 40
0
 41
0
  0
VERTEX
  8
0
 10
8.37674
 20
2.14611
 30
0.0
 40
0
 41
0
  0
VERTEX
  8
0
 10
8.35883
 20
2.17264
 30
0.0
 40
0
 41
0
  0
VERTEX
  8
0
 10
8.35232
 20
2.19694
 30
0.0
 40
0
 41
0
  0
VERTEX
  8
0
 10
8.35232
 20
2.20503
 30
0.0
 40
0
 41
0
  0
VERTEX
  8
0
 10
8.35232
 20
2.21317
 30
0.0
 40
0
 41
0
  0
VERTEX
  8
0
 10
8.35883
 20
2.23747
 30
0.0
 40
0
 41
0
  0
VERTEX
  8
0
 10
8.37674
 20
2.26394
 30
0.0
 40
0
 41
0
  0
VERTEX
  8
0
 10
8.40321
 20
2.28185
 30
0.0
 40
0
 41
0
  0
VERTEX
  8
0
 10
8.42751
 20
2.28836
 30
0.0
 40
0
 41
0
  0
VERTEX
  8
0
 10
8.43565
 20
2.28836
 30
0.0
 40
0
 41
0
  0
SEQEND
 8
0
  0
POLYLINE
  8
0
 62
     0
 66
     1
 10
0
 20
0
 30
0.0
 70
     1
 40
0.75
 41
0.75
  0
VERTEX
  8
0
 10
8.43565
 20
2.28836
 30
0.0
 40
0.0104167
 41
0.0104167
  0
VERTEX
  8
0
 10
8.44374
 20
2.28836
 30
0.0
 40
0.0104167
 41
0.0104167
  0
VERTEX
  8
0
 10
8.46804
 20
2.28185
 30
0.0
 40
0.0104167
 41
0.0104167
  0
VERTEX
  8
0
 10
8.49457
 20
2.26394
 30
0.0
 40
0.0104167
 41
0.0104167
  0
VERTEX
  8
0
 10
8.51243
 20
2.23747
 30
0.0
 40
0.0104167
 41
0.0104167
  0
VERTEX
  8
0
 10
8.51899
 20
2.21317
 30
0.0
 40
0.0104167
 41
0.0104167
  0
VERTEX
  8
0
 10
8.51899
 20
2.20503
 30
0.0
 40
0.0104167
 41
0.0104167
  0
VERTEX
  8
0
 10
8.51899
 20
2.19694
 30
0.0
 40
0.0104167
 41
0.0104167
  0
VERTEX
  8
0
 10
8.51243
 20
2.17264
 30
0.0
 40
0.0104167
 41
0.0104167
  0
VERTEX
  8
0
 10
8.49457
 20
2.14611
 30
0.0
 40
0.0104167
 41
0.0104167
  0
VERTEX
  8
0
 10
8.46804
 20
2.12825
 30
0.0
 40
0.0104167
 41
0.0104167
  0
VERTEX
  8
0
 10
8.44374
 20
2.12169
 30
0.0
 40
0.0104167
 41
0.0104167
  0
VERTEX
  8
0
 10
8.43565
 20
2.12169
 30
0.0
 40
0.0104167
 41
0.0104167
  0
VERTEX
  8
0
 10
8.42751
 20
2.12169
 30
0.0
 40
0.0104167
 41
0.0104167
  0
VERTEX
  8
0
 10
8.40321
 20
2.12825
 30
0.0
 40
0.0104167
 41
0.0104167
  0
VERTEX
  8
0
 10
8.37674
 20
2.14611
 30
0.0
 40
0.0104167
 41
0.0104167
  0
VERTEX
  8
0
 10
8.35883
 20
2.17264
 30
0.0
 40
0.0104167
 41
0.0104167
  0
VERTEX
  8
0
 10
8.35232
 20
2.19694
 30
0.0
 40
0.0104167
 41
0.0104167
  0
VERTEX
  8
0
 10
8.35232
 20
2.20503
 30
0.0
 40
0.0104167
 41
0.0104167
  0
VERTEX
  8
0
 10
8.35232
 20
2.21317
 30
0.0
 40
0.0104167
 41
0.0104167
  0
VERTEX
  8
0
 10
8.35883
 20
2.23747
 30
0.0
 40
0.0104167
 41
0.0104167
  0
VERTEX
  8
0
 10
8.37674
 20
2.26394
 30
0.0
 40
0.0104167
 41
0.0104167
  0
VERTEX
  8
0
 10
8.40321
 20
2.28185
 30
0.0
 40
0.0104167
 41
0.0104167
  0
VERTEX
  8
0
 10
8.42751
 20
2.28836
 30
0.0
 40
0.0104167
 41
0.0104167
  0
VERTEX
  8
0
 10
8.43565
 20
2.28836
 30
0.0
 40
0.0104167
 41
0.0104167
  0
SEQEND
 8
0
  0
POLYLINE
  8
0
 62
     7
 66
     1
 10
0
 20
0
 30
0.0
 70
     1
 40
0
 41
0
  0
VERTEX
  8
0
 10
8.43565
 20
2.58806
 30
0.0
 40
0
 41
0
  0
VERTEX
  8
0
 10
8.44374
 20
2.58806
 30
0.0
 40
0
 41
0
  0
VERTEX
  8
0
 10
8.46804
 20
2.58154
 30
0.0
 40
0
 41
0
  0
VERTEX
  8
0
 10
8.49457
 20
2.56364
 30
0.0
 40
0
 41
0
  0
VERTEX
  8
0
 10
8.51243
 20
2.53717
 30
0.0
 40
0
 41
0
  0
VERTEX
  8
0
 10
8.51899
 20
2.51286
 30
0.0
 40
0
 41
0
  0
VERTEX
  8
0
 10
8.51899
 20
2.50472
 30
0.0
 40
0
 41
0
  0
VERTEX
  8
0
 10
8.51899
 20
2.49664
 30
0.0
 40
0
 41
0
  0
VERTEX
  8
0
 10
8.51243
 20
2.47233
 30
0.0
 40
0
 41
0
  0
VERTEX
  8
0
 10
8.49457
 20
2.44581
 30
0.0
 40
0
 41
0
  0
VERTEX
  8
0
 10
8.46804
 20
2.42796
 30
0.0
 40
0
 41
0
  0
VERTEX
  8
0
 10
8.44374
 20
2.42139
 30
0.0
 40
0
 41
0
  0
VERTEX
  8
0
 10
8.43565
 20
2.42139
 30
0.0
 40
0
 41
0
  0
VERTEX
  8
0
 10
8.42751
 20
2.42139
 30
0.0
 40
0
 41
0
  0
VERTEX
  8
0
 10
8.40321
 20
2.42796
 30
0.0
 40
0
 41
0
  0
VERTEX
  8
0
 10
8.37674
 20
2.44581
 30
0.0
 40
0
 41
0
  0
VERTEX
  8
0
 10
8.35883
 20
2.47233
 30
0.0
 40
0
 41
0
  0
VERTEX
  8
0
 10
8.35232
 20
2.49664
 30
0.0
 40
0
 41
0
  0
VERTEX
  8
0
 10
8.35232
 20
2.50472
 30
0.0
 40
0
 41
0
  0
VERTEX
  8
0
 10
8.35232
 20
2.51286
 30
0.0
 40
0
 41
0
  0
VERTEX
  8
0
 10
8.35883
 20
2.53717
 30
0.0
 40
0
 41
0
  0
VERTEX
  8
0
 10
8.37674
 20
2.56364
 30
0.0
 40
0
 41
0
  0
VERTEX
  8
0
 10
8.40321
 20
2.58154
 30
0.0
 40
0
 41
0
  0
VERTEX
  8
0
 10
8.42751
 20
2.58806
 30
0.0
 40
0
 41
0
  0
VERTEX
  8
0
 10
8.43565
 20
2.58806
 30
0.0
 40
0
 41
0
  0
SEQEND
 8
0
  0
POLYLINE
  8
0
 62
     0
 66
     1
 10
0
 20
0
 30
0.0
 70
     1
 40
0.75
 41
0.75
  0
VERTEX
  8
0
 10
8.43565
 20
2.58806
 30
0.0
 40
0.0104167
 41
0.0104167
  0
VERTEX
  8
0
 10
8.44374
 20
2.58806
 30
0.0
 40
0.0104167
 41
0.0104167
  0
VERTEX
  8
0
 10
8.46804
 20
2.58154
 30
0.0
 40
0.0104167
 41
0.0104167
  0
VERTEX
  8
0
 10
8.49457
 20
2.56364
 30
0.0
 40
0.0104167
 41
0.0104167
  0
VERTEX
  8
0
 10
8.51243
 20
2.53717
 30
0.0
 40
0.0104167
 41
0.0104167
  0
VERTEX
  8
0
 10
8.51899
 20
2.51286
 30
0.0
 40
0.0104167
 41
0.0104167
  0
VERTEX
  8
0
 10
8.51899
 20
2.50472
 30
0.0
 40
0.0104167
 41
0.0104167
  0
VERTEX
  8
0
 10
8.51899
 20
2.49664
 30
0.0
 40
0.0104167
 41
0.0104167
  0
VERTEX
  8
0
 10
8.51243
 20
2.47233
 30
0.0
 40
0.0104167
 41
0.0104167
  0
VERTEX
  8
0
 10
8.49457
 20
2.44581
 30
0.0
 40
0.0104167
 41
0.0104167
  0
VERTEX
  8
0
 10
8.46804
 20
2.42796
 30
0.0
 40
0.0104167
 41
0.0104167
  0
VERTEX
  8
0
 10
8.44374
 20
2.42139
 30
0.0
 40
0.0104167
 41
0.0104167
  0
VERTEX
  8
0
 10
8.43565
 20
2.42139
 30
0.0
 40
0.0104167
 41
0.0104167
  0
VERTEX
  8
0
 10
8.42751
 20
2.42139
 30
0.0
 40
0.0104167
 41
0.0104167
  0
VERTEX
  8
0
 10
8.40321
 20
2.42796
 30
0.0
 40
0.0104167
 41
0.0104167
  0
VERTEX
  8
0
 10
8.37674
 20
2.44581
 30
0.0
 40
0.0104167
 41
0.0104167
  0
VERTEX
  8
0
 10
8.35883
 20
2.47233
 30
0.0
 40
0.0104167
 41
0.0104167
  0
VERTEX
  8
0
 10
8.35232
 20
2.49664
 30
0.0
 40
0.0104167
 41
0.0104167
  0
VERTEX
  8
0
 10
8.35232
 20
2.50472
 30
0.0
 40
0.0104167
 41
0.0104167
  0
VERTEX
  8
0
 10
8.35232
 20
2.51286
 30
0.0
 40
0.0104167
 41
0.0104167
  0
VERTEX
  8
0
 10
8.35883
 20
2.53717
 30
0.0
 40
0.0104167
 41
0.0104167
  0
VERTEX
  8
0
 10
8.37674
 20
2.56364
 30
0.0
 40
0.0104167
 41
0.0104167
  0
VERTEX
  8
0
 10
8.40321
 20
2.58154
 30
0.0
 40
0.0104167
 41
0.0104167
  0
VERTEX
  8
0
 10
8.42751
 20
2.58806
 30
0.0
 40
0.0104167
 41
0.0104167
  0
VERTEX
  8
0
 10
8.43565
 20
2.58806
 30
0.0
 40
0.0104167
 41
0.0104167
  0
SEQEND
 8
0
  0
POLYLINE
  8
0
 62
     7
 66
     1
 10
0
 20
0
 30
0.0
 70
     1
 40
0
 41
0
  0
VERTEX
  8
0
 10
8.73899
 20
2.28836
 30
0.0
 40
0
 41
0
  0
VERTEX
  8
0
 10
8.74707
 20
2.28836
 30
0.0
 40
0
 41
0
  0
VERTEX
  8
0
 10
8.77143
 20
2.28185
 30
0.0
 40
0
 41
0
  0
VERTEX
  8
0
 10
8.7979
 20
2.26394
 30
0.0
 40
0
 41
0
  0
VERTEX
  8
0
 10
8.81575
 20
2.23747
 30
0.0
 40
0
 41
0
  0
VERTEX
  8
0
 10
8.82232
 20
2.21317
 30
0.0
 40
0
 41
0
  0
VERTEX
  8
0
 10
8.82232
 20
2.20503
 30
0.0
 40
0
 41
0
  0
VERTEX
  8
0
 10
8.82232
 20
2.19694
 30
0.0
 40
0
 41
0
  0
VERTEX
  8
0
 10
8.81575
 20
2.17264
 30
0.0
 40
0
 41
0
  0
VERTEX
  8
0
 10
8.7979
 20
2.14611
 30
0.0
 40
0
 41
0
  0
VERTEX
  8
0
 10
8.77143
 20
2.12825
 30
0.0
 40
0
 41
0
  0
VERTEX
  8
0
 10
8.74707
 20
2.12169
 30
0.0
 40
0
 41
0
  0
VERTEX
  8
0
 10
8.73899
 20
2.12169
 30
0.0
 40
0
 41
0
  0
VERTEX
  8
0
 10
8.73085
 20
2.12169
 30
0.0
 40
0
 41
0
  0
VERTEX
  8
0
 10
8.70654
 20
2.12825
 30
0.0
 40
0
 41
0
  0
VERTEX
  8
0
 10
8.68007
 20
2.14611
 30
0.0
 40
0
 41
0
  0
VERTEX
  8
0
 10
8.66217
 20
2.17264
 30
0.0
 40
0
 41
0
  0
VERTEX
  8
0
 10
8.65565
 20
2.19694
 30
0.0
 40
0
 41
0
  0
VERTEX
  8
0
 10
8.65565
 20
2.20503
 30
0.0
 40
0
 41
0
  0
VERTEX
  8
0
 10
8.65565
 20
2.21317
 30
0.0
 40
0
 41
0
  0
VERTEX
  8
0
 10
8.66217
 20
2.23747
 30
0.0
 40
0
 41
0
  0
VERTEX
  8
0
 10
8.68007
 20
2.26394
 30
0.0
 40
0
 41
0
  0
VERTEX
  8
0
 10
8.70654
 20
2.28185
 30
0.0
 40
0
 41
0
  0
VERTEX
  8
0
 10
8.73085
 20
2.28836
 30
0.0
 40
0
 41
0
  0
VERTEX
  8
0
 10
8.73899
 20
2.28836
 30
0.0
 40
0
 41
0
  0
SEQEND
 8
0
  0
POLYLINE
  8
0
 62
     0
 66
     1
 10
0
 20
0
 30
0.0
 70
     1
 40
0.75
 41
0.75
  0
VERTEX
  8
0
 10
8.73899
 20
2.28836
 30
0.0
 40
0.0104167
 41
0.0104167
  0
VERTEX
  8
0
 10
8.74707
 20
2.28836
 30
0.0
 40
0.0104167
 41
0.0104167
  0
VERTEX
  8
0
 10
8.77143
 20
2.28185
 30
0.0
 40
0.0104167
 41
0.0104167
  0
VERTEX
  8
0
 10
8.7979
 20
2.26394
 30
0.0
 40
0.0104167
 41
0.0104167
  0
VERTEX
  8
0
 10
8.81575
 20
2.23747
 30
0.0
 40
0.0104167
 41
0.0104167
  0
VERTEX
  8
0
 10
8.82232
 20
2.21317
 30
0.0
 40
0.0104167
 41
0.0104167
  0
VERTEX
  8
0
 10
8.82232
 20
2.20503
 30
0.0
 40
0.0104167
 41
0.0104167
  0
VERTEX
  8
0
 10
8.82232
 20
2.19694
 30
0.0
 40
0.0104167
 41
0.0104167
  0
VERTEX
  8
0
 10
8.81575
 20
2.17264
 30
0.0
 40
0.0104167
 41
0.0104167
  0
VERTEX
  8
0
 10
8.7979
 20
2.14611
 30
0.0
 40
0.0104167
 41
0.0104167
  0
VERTEX
  8
0
 10
8.77143
 20
2.12825
 30
0.0
 40
0.0104167
 41
0.0104167
  0
VERTEX
  8
0
 10
8.74707
 20
2.12169
 30
0.0
 40
0.0104167
 41
0.0104167
  0
VERTEX
  8
0
 10
8.73899
 20
2.12169
 30
0.0
 40
0.0104167
 41
0.0104167
  0
VERTEX
  8
0
 10
8.73085
 20
2.12169
 30
0.0
 40
0.0104167
 41
0.0104167
  0
VERTEX
  8
0
 10
8.70654
 20
2.12825
 30
0.0
 40
0.0104167
 41
0.0104167
  0
VERTEX
  8
0
 10
8.68007
 20
2.14611
 30
0.0
 40
0.0104167
 41
0.0104167
  0
VERTEX
  8
0
 10
8.66217
 20
2.17264
 30
0.0
 40
0.0104167
 41
0.0104167
  0
VERTEX
  8
0
 10
8.65565
 20
2.19694
 30
0.0
 40
0.0104167
 41
0.0104167
  0
VERTEX
  8
0
 10
8.65565
 20
2.20503
 30
0.0
 40
0.0104167
 41
0.0104167
  0
VERTEX
  8
0
 10
8.65565
 20
2.21317
 30
0.0
 40
0.0104167
 41
0.0104167
  0
VERTEX
  8
0
 10
8.66217
 20
2.23747
 30
0.0
 40
0.0104167
 41
0.0104167
  0
VERTEX
  8
0
 10
8.68007
 20
2.26394
 30
0.0
 40
0.0104167
 41
0.0104167
  0
VERTEX
  8
0
 10
8.70654
 20
2.28185
 30
0.0
 40
0.0104167
 41
0.0104167
  0
VERTEX
  8
0
 10
8.73085
 20
2.28836
 30
0.0
 40
0.0104167
 41
0.0104167
  0
VERTEX
  8
0
 10
8.73899
 20
2.28836
 30
0.0
 40
0.0104167
 41
0.0104167
  0
SEQEND
 8
0
  0
POLYLINE
  8
0
 62
     7
 66
     1
 10
0
 20
0
 30
0.0
 70
     1
 40
0
 41
0
  0
VERTEX
  8
0
 10
8.73899
 20
2.58806
 30
0.0
 40
0
 41
0
  0
VERTEX
  8
0
 10
8.74707
 20
2.58806
 30
0.0
 40
0
 41
0
  0
VERTEX
  8
0
 10
8.77143
 20
2.58154
 30
0.0
 40
0
 41
0
  0
VERTEX
  8
0
 10
8.7979
 20
2.56364
 30
0.0
 40
0
 41
0
  0
VERTEX
  8
0
 10
8.81575
 20
2.53717
 30
0.0
 40
0
 41
0
  0
VERTEX
  8
0
 10
8.82232
 20
2.51286
 30
0.0
 40
0
 41
0
  0
VERTEX
  8
0
 10
8.82232
 20
2.50472
 30
0.0
 40
0
 41
0
  0
VERTEX
  8
0
 10
8.82232
 20
2.49664
 30
0.0
 40
0
 41
0
  0
VERTEX
  8
0
 10
8.81575
 20
2.47233
 30
0.0
 40
0
 41
0
  0
VERTEX
  8
0
 10
8.7979
 20
2.44581
 30
0.0
 40
0
 41
0
  0
VERTEX
  8
0
 10
8.77143
 20
2.42796
 30
0.0
 40
0
 41
0
  0
VERTEX
  8
0
 10
8.74707
 20
2.42139
 30
0.0
 40
0
 41
0
  0
VERTEX
  8
0
 10
8.73899
 20
2.42139
 30
0.0
 40
0
 41
0
  0
VERTEX
  8
0
 10
8.73085
 20
2.42139
 30
0.0
 40
0
 41
0
  0
VERTEX
  8
0
 10
8.70654
 20
2.42796
 30
0.0
 40
0
 41
0
  0
VERTEX
  8
0
 10
8.68007
 20
2.44581
 30
0.0
 40
0
 41
0
  0
VERTEX
  8
0
 10
8.66217
 20
2.47233
 30
0.0
 40
0
 41
0
  0
VERTEX
  8
0
 10
8.65565
 20
2.49664
 30
0.0
 40
0
 41
0
  0
VERTEX
  8
0
 10
8.65565
 20
2.50472
 30
0.0
 40
0
 41
0
  0
VERTEX
  8
0
 10
8.65565
 20
2.51286
 30
0.0
 40
0
 41
0
  0
VERTEX
  8
0
 10
8.66217
 20
2.53717
 30
0.0
 40
0
 41
0
  0
VERTEX
  8
0
 10
8.68007
 20
2.56364
 30
0.0
 40
0
 41
0
  0
VERTEX
  8
0
 10
8.70654
 20
2.58154
 30
0.0
 40
0
 41
0
  0
VERTEX
  8
0
 10
8.73085
 20
2.58806
 30
0.0
 40
0
 41
0
  0
VERTEX
  8
0
 10
8.73899
 20
2.58806
 30
0.0
 40
0
 41
0
  0
SEQEND
 8
0
  0
POLYLINE
  8
0
 62
     0
 66
     1
 10
0
 20
0
 30
0.0
 70
     1
 40
0.75
 41
0.75
  0
VERTEX
  8
0
 10
8.73899
 20
2.58806
 30
0.0
 40
0.0104167
 41
0.0104167
  0
VERTEX
  8
0
 10
8.74707
 20
2.58806
 30
0.0
 40
0.0104167
 41
0.0104167
  0
VERTEX
  8
0
 10
8.77143
 20
2.58154
 30
0.0
 40
0.0104167
 41
0.0104167
  0
VERTEX
  8
0
 10
8.7979
 20
2.56364
 30
0.0
 40
0.0104167
 41
0.0104167
  0
VERTEX
  8
0
 10
8.81575
 20
2.53717
 30
0.0
 40
0.0104167
 41
0.0104167
  0
VERTEX
  8
0
 10
8.82232
 20
2.51286
 30
0.0
 40
0.0104167
 41
0.0104167
  0
VERTEX
  8
0
 10
8.82232
 20
2.50472
 30
0.0
 40
0.0104167
 41
0.0104167
  0
VERTEX
  8
0
 10
8.82232
 20
2.49664
 30
0.0
 40
0.0104167
 41
0.0104167
  0
VERTEX
  8
0
 10
8.81575
 20
2.47233
 30
0.0
 40
0.0104167
 41
0.0104167
  0
VERTEX
  8
0
 10
8.7979
 20
2.44581
 30
0.0
 40
0.0104167
 41
0.0104167
  0
VERTEX
  8
0
 10
8.77143
 20
2.42796
 30
0.0
 40
0.0104167
 41
0.0104167
  0
VERTEX
  8
0
 10
8.74707
 20
2.42139
 30
0.0
 40
0.0104167
 41
0.0104167
  0
VERTEX
  8
0
 10
8.73899
 20
2.42139
 30
0.0
 40
0.0104167
 41
0.0104167
  0
VERTEX
  8
0
 10
8.73085
 20
2.42139
 30
0.0
 40
0.0104167
 41
0.0104167
  0
VERTEX
  8
0
 10
8.70654
 20
2.42796
 30
0.0
 40
0.0104167
 41
0.0104167
  0
VERTEX
  8
0
 10
8.68007
 20
2.44581
 30
0.0
 40
0.0104167
 41
0.0104167
  0
VERTEX
  8
0
 10
8.66217
 20
2.47233
 30
0.0
 40
0.0104167
 41
0.0104167
  0
VERTEX
  8
0
 10
8.65565
 20
2.49664
 30
0.0
 40
0.0104167
 41
0.0104167
  0
VERTEX
  8
0
 10
8.65565
 20
2.50472
 30
0.0
 40
0.0104167
 41
0.0104167
  0
VERTEX
  8
0
 10
8.65565
 20
2.51286
 30
0.0
 40
0.0104167
 41
0.0104167
  0
VERTEX
  8
0
 10
8.66217
 20
2.53717
 30
0.0
 40
0.0104167
 41
0.0104167
  0
VERTEX
  8
0
 10
8.68007
 20
2.56364
 30
0.0
 40
0.0104167
 41
0.0104167
  0
VERTEX
  8
0
 10
8.70654
 20
2.58154
 30
0.0
 40
0.0104167
 41
0.0104167
  0
VERTEX
  8
0
 10
8.73085
 20
2.58806
 30
0.0
 40
0.0104167
 41
0.0104167
  0
VERTEX
  8
0
 10
8.73899
 20
2.58806
 30
0.0
 40
0.0104167
 41
0.0104167
  0
SEQEND
 8
0
  0
POLYLINE
  8
0
 62
     7
 66
     1
 10
0
 20
0
 30
0.0
 70
     1
 40
0
 41
0
  0
VERTEX
  8
0
 10
8.27761
 20
3.60064
 30
0.0
 40
0
 41
0
  0
VERTEX
  8
0
 10
8.88917
 20
3.60064
 30
0.0
 40
0
 41
0
  0
VERTEX
  8
0
 10
8.88917
 20
2.97564
 30
0.0
 40
0
 41
0
  0
VERTEX
  8
0
 10
8.27761
 20
2.97564
 30
0.0
 40
0
 41
0
  0
VERTEX
  8
0
 10
8.27761
 20
3.60064
 30
0.0
 40
0
 41
0
  0
SEQEND
 8
0
  0
POLYLINE
  8
0
 62
     0
 66
     1
 10
0
 20
0
 30
0.0
 70
     1
 40
0.75
 41
0.75
  0
VERTEX
  8
0
 10
8.27761
 20
3.60064
 30
0.0
 40
0.0104167
 41
0.0104167
  0
VERTEX
  8
0
 10
8.27761
 20
2.97564
 30
0.0
 40
0.0104167
 41
0.0104167
  0
VERTEX
  8
0
 10
8.88917
 20
2.97564
 30
0.0
 40
0.0104167
 41
0.0104167
  0
VERTEX
  8
0
 10
8.88917
 20
3.60064
 30
0.0
 40
0.0104167
 41
0.0104167
  0
VERTEX
  8
0
 10
8.27761
 20
3.60064
 30
0.0
 40
0.0104167
 41
0.0104167
  0
SEQEND
 8
0
  0
POLYLINE
  8
0
 62
     0
 66
     1
 10
0
 20
0
 30
0.0
 40
0.75
 41
0.75
  0
VERTEX
  8
0
 10
8.27761
 20
2.97564
 30
0.0
 40
0.0104167
 41
0.0104167
  0
VERTEX
  8
0
 10
8.68326
 20
3.28922
 30
0.0
 40
0.0104167
 41
0.0104167
  0
VERTEX
  8
0
 10
8.47532
 20
3.28922
 30
0.0
 40
0.0104167
 41
0.0104167
  0
VERTEX
  8
0
 10
8.88917
 20
3.59961
 30
0.0
 40
0.0104167
 41
0.0104167
  0
SEQEND
 8
0
  0
POLYLINE
  8
0
 62
     0
 66
     1
 10
0
 20
0
 30
0.0
 70
     1
 40
0.75
 41
0.75
  0
VERTEX
  8
0
 10
8.27761
 20
2.97564
 30
0.0
 40
0.0104167
 41
0.0104167
  0
VERTEX
  8
0
 10
8.58425
 20
2.97564
 30
0.0
 40
0.0104167
 41
0.0104167
  0
VERTEX
  8
0
 10
8.58425
 20
2.65533
 30
0.0
 40
0.0104167
 41
0.0104167
  0
VERTEX
  8
0
 10
8.79258
 20
2.65533
 30
0.0
 40
0.0104167
 41
0.0104167
  0
VERTEX
  8
0
 10
8.79258
 20
2.05419
 30
0.0
 40
0.0104167
 41
0.0104167
  0
VERTEX
  8
0
 10
8.58524
 20
2.05419
 30
0.0
 40
0.0104167
 41
0.0104167
  0
VERTEX
  8
0
 10
8.58524
 20
1.43474
 30
0.0
 40
0.0104167
 41
0.0104167
  0
VERTEX
  8
0
 10
8.27647
 20
1.43392
 30
0.0
 40
0.0104167
 41
0.0104167
  0
VERTEX
  8
0
 10
8.27761
 20
2.97564
 30
0.0
 40
0.0104167
 41
0.0104167
  0
SEQEND
 8
0
  0
POLYLINE
  8
0
 62
     0
 66
     1
 10
0
 20
0
 30
0.0
 70
     1
 40
0.75
 41
0.75
  0
VERTEX
  8
0
 10
8.66689
 20
1.43392
 30
0.0
 40
0.0104167
 41
0.0104167
  0
VERTEX
  8
0
 10
10.7726
 20
1.43392
 30
0.0
 40
0.0104167
 41
0.0104167
  0
VERTEX
  8
0
 10
10.7726
 20
1.8189
 30
0.0
 40
0.0104167
 41
0.0104167
  0
VERTEX
  8
0
 10
11.0727
 20
1.81956
 30
0.0
 40
0.0104167
 41
0.0104167
  0
VERTEX
  8
0
 10
11.073
 20
1.1135
 30
0.0
 40
0.0104167
 41
0.0104167
  0
VERTEX
  8
0
 10
8.66607
 20
1.1135
 30
0.0
 40
0.0104167
 41
0.0104167
  0
VERTEX
  8
0
 10
8.66689
 20
1.43392
 30
0.0
 40
0.0104167
 41
0.0104167
  0
SEQEND
 8
0
  0
POLYLINE
  8
0
 62
     0
 66
     1
 10
0
 20
0
 30
0.0
 40
1.35
 41
1.35
  0
VERTEX
  8
0
 10
8.85562
 20
7.52968
 30
0.0
 40
0.01875
 41
0.01875
  0
VERTEX
  8
0
 10
9.69635
 20
7.52968
 30
0.0
 40
0.01875
 41
0.01875
  0
VERTEX
  8
0
 10
9.69635
 20
8.34343
 30
0.0
 40
0.01875
 41
0.01875
  0
SEQEND
 8
0
  0
ENDSEC
  0
EOF
