  0
SECTION
  2
HEADER
  9
$ACADVER
  1
AC1009
  9
$FILLMODE
 70
 0
  9
$SPLFRAME
 70
 1
  9
$EXTMIN
 10
0
 20
0
 30
0.0
  9
$EXTMAX
 10
41.6667
 20
41.6667
 30
0.0
  0
ENDSEC
  0
SECTION
  2
TABLES
  0
TABLE
  2
LAYER
 70
1
  0
LAYER
  2
0
 70
     0
 62
     7
  6
CONTINUOUS
  0
ENDTAB
  0
ENDSEC
  0
SECTION
  2
ENTITIES
  0
POLYLINE
  8
0
 62
     7
 66
     1
 10
0
 20
0
 30
0.0
 70
     1
 40
0
 41
0
  0
VERTEX
  8
0
 10
4.38678
 20
1.71121
 30
0.0
 40
0
 41
0
  0
VERTEX
  8
0
 10
4.38678
 20
0.0137261
 30
0.0
 40
0
 41
0
  0
VERTEX
  8
0
 10
5.86583
 20
0.0137261
 30
0.0
 40
0
 41
0
  0
VERTEX
  8
0
 10
5.86583
 20
0.0762261
 30
0.0
 40
0
 41
0
  0
VERTEX
  8
0
 10
7.02821
 20
0.0775825
 30
0.0
 40
0
 41
0
  0
VERTEX
  8
0
 10
7.02821
 20
1.71121
 30
0.0
 40
0
 41
0
  0
VERTEX
  8
0
 10
4.38678
 20
1.71121
 30
0.0
 40
0
 41
0
  0
SEQEND
 8
0
  0
POLYLINE
  8
0
 62
     0
 66
     1
 10
0
 20
0
 30
0.0
 70
     1
 40
0.15
 41
0.15
  0
VERTEX
  8
0
 10
4.38678
 20
1.71121
 30
0.0
 40
0.00208333
 41
0.00208333
  0
VERTEX
  8
0
 10
4.38678
 20
0.0137261
 30
0.0
 40
0.00208333
 41
0.00208333
  0
VERTEX
  8
0
 10
5.86583
 20
0.0137261
 30
0.0
 40
0.00208333
 41
0.00208333
  0
VERTEX
  8
0
 10
5.86583
 20
0.0762261
 30
0.0
 40
0.00208333
 41
0.00208333
  0
VERTEX
  8
0
 10
7.02821
 20
0.0775825
 30
0.0
 40
0.00208333
 41
0.00208333
  0
VERTEX
  8
0
 10
7.02821
 20
1.71121
 30
0.0
 40
0.00208333
 41
0.00208333
  0
VERTEX
  8
0
 10
4.38678
 20
1.71121
 30
0.0
 40
0.00208333
 41
0.00208333
  0
SEQEND
 8
0
  0
TEXT
  8
0
 62
     0
 10
5.23554
 20
0.862446
 30
0.0
 40
0.34375
  1
ULK
 50
0
  0
TEXT
  8
0
 62
     0
 10
5.91315
 20
0.862446
 30
0.0
 40
0.34375
  1
O
 50
0
  0
TEXT
  8
0
 62
     0
 10
6.17546
 20
0.862446
 30
0.0
 40
0.34375
  1
TILA
 50
0
  0
POLYLINE
  8
0
 62
     7
 66
     1
 10
0
 20
0
 30
0.0
 70
     1
 40
0
 41
0
  0
VERTEX
  8
0
 10
5.2079
 20
10.3088
 30
0.0
 40
0
 41
0
  0
VERTEX
  8
0
 10
5.31207
 20
10.3088
 30
0.0
 40
0
 41
0
  0
VERTEX
  8
0
 10
5.31207
 20
8.69228
 30
0.0
 40
0
 41
0
  0
VERTEX
  8
0
 10
5.2079
 20
8.69228
 30
0.0
 40
0
 41
0
  0
VERTEX
  8
0
 10
5.2079
 20
7.04807
 30
0.0
 40
0
 41
0
  0
VERTEX
  8
0
 10
4.17594
 20
7.04807
 30
0.0
 40
0
 41
0
  0
VERTEX
  8
0
 10
4.17594
 20
7.15224
 30
0.0
 40
0
 41
0
  0
VERTEX
  8
0
 10
0.963542
 20
7.15224
 30
0.0
 40
0
 41
0
  0
VERTEX
  8
0
 10
0.963542
 20
11.4457
 30
0.0
 40
0
 41
0
  0
VERTEX
  8
0
 10
5.2079
 20
11.4457
 30
0.0
 40
0
 41
0
  0
VERTEX
  8
0
 10
5.2079
 20
10.3088
 30
0.0
 40
0
 41
0
  0
SEQEND
 8
0
  0
POLYLINE
  8
0
 62
     7
 66
     1
 10
0
 20
0
 30
0.0
 70
     1
 40
0.15
 41
0.15
  0
VERTEX
  8
0
 10
5.2079
 20
10.3088
 30
0.0
 40
0.00208333
 41
0.00208333
  0
VERTEX
  8
0
 10
5.31207
 20
10.3088
 30
0.0
 40
0.00208333
 41
0.00208333
  0
VERTEX
  8
0
 10
5.31207
 20
8.69228
 30
0.0
 40
0.00208333
 41
0.00208333
  0
VERTEX
  8
0
 10
5.2079
 20
8.69228
 30
0.0
 40
0.00208333
 41
0.00208333
  0
VERTEX
  8
0
 10
5.2079
 20
7.04807
 30
0.0
 40
0.00208333
 41
0.00208333
  0
VERTEX
  8
0
 10
4.17594
 20
7.04807
 30
0.0
 40
0.00208333
 41
0.00208333
  0
VERTEX
  8
0
 10
4.17594
 20
7.15224
 30
0.0
 40
0.00208333
 41
0.00208333
  0
VERTEX
  8
0
 10
0.963542
 20
7.15224
 30
0.0
 40
0.00208333
 41
0.00208333
  0
VERTEX
  8
0
 10
0.963542
 20
11.4457
 30
0.0
 40
0.00208333
 41
0.00208333
  0
VERTEX
  8
0
 10
5.2079
 20
11.4457
 30
0.0
 40
0.00208333
 41
0.00208333
  0
VERTEX
  8
0
 10
5.2079
 20
10.3088
 30
0.0
 40
0.00208333
 41
0.00208333
  0
SEQEND
 8
0
  0
TEXT
  8
0
 62
     0
 10
2.79925
 20
9.05226
 30
0.0
 40
0.34375
  1
OH
 50
0
  0
POLYLINE
  8
0
 62
     7
 66
     1
 10
0
 20
0
 30
0.0
 70
     1
 40
0
 41
0
  0
VERTEX
  8
0
 10
7.80388
 20
5.81131
 30
0.0
 40
0
 41
0
  0
VERTEX
  8
0
 10
6.03543
 20
5.81131
 30
0.0
 40
0
 41
0
  0
VERTEX
  8
0
 10
6.03543
 20
3.29443
 30
0.0
 40
0
 41
0
  0
VERTEX
  8
0
 10
4.17594
 20
3.29443
 30
0.0
 40
0
 41
0
  0
VERTEX
  8
0
 10
4.17594
 20
7.04807
 30
0.0
 40
0
 41
0
  0
VERTEX
  8
0
 10
7.80388
 20
7.04807
 30
0.0
 40
0
 41
0
  0
VERTEX
  8
0
 10
7.80388
 20
5.81131
 30
0.0
 40
0
 41
0
  0
SEQEND
 8
0
  0
POLYLINE
  8
0
 62
     7
 66
     1
 10
0
 20
0
 30
0.0
 70
     1
 40
0.15
 41
0.15
  0
VERTEX
  8
0
 10
7.80388
 20
5.81131
 30
0.0
 40
0.00208333
 41
0.00208333
  0
VERTEX
  8
0
 10
6.03543
 20
5.81131
 30
0.0
 40
0.00208333
 41
0.00208333
  0
VERTEX
  8
0
 10
6.03543
 20
3.29443
 30
0.0
 40
0.00208333
 41
0.00208333
  0
VERTEX
  8
0
 10
4.17594
 20
3.29443
 30
0.0
 40
0.00208333
 41
0.00208333
  0
VERTEX
  8
0
 10
4.17594
 20
7.04807
 30
0.0
 40
0.00208333
 41
0.00208333
  0
VERTEX
  8
0
 10
7.80388
 20
7.04807
 30
0.0
 40
0.00208333
 41
0.00208333
  0
VERTEX
  8
0
 10
7.80388
 20
5.81131
 30
0.0
 40
0.00208333
 41
0.00208333
  0
SEQEND
 8
0
  0
TEXT
  8
0
 62
     0
 10
4.981
 20
4.97192
 30
0.0
 40
0.34375
  1
ET
 50
0
  0
POLYLINE
  8
0
 62
     7
 66
     1
 10
0
 20
0
 30
0.0
 70
     1
 40
0
 41
0
  0
VERTEX
  8
0
 10
8.27061
 20
9.57269
 30
0.0
 40
0
 41
0
  0
VERTEX
  8
0
 10
8.27149
 20
9.57269
 30
0.0
 40
0
 41
0
  0
VERTEX
  8
0
 10
8.27149
 20
7.15224
 30
0.0
 40
0
 41
0
  0
VERTEX
  8
0
 10
5.31207
 20
7.15224
 30
0.0
 40
0
 41
0
  0
VERTEX
  8
0
 10
5.31207
 20
11.4457
 30
0.0
 40
0
 41
0
  0
VERTEX
  8
0
 10
8.27061
 20
11.4457
 30
0.0
 40
0
 41
0
  0
VERTEX
  8
0
 10
8.27061
 20
9.57269
 30
0.0
 40
0
 41
0
  0
SEQEND
 8
0
  0
POLYLINE
  8
0
 62
     7
 66
     1
 10
0
 20
0
 30
0.0
 70
     1
 40
0.15
 41
0.15
  0
VERTEX
  8
0
 10
8.27061
 20
9.57269
 30
0.0
 40
0.00208333
 41
0.00208333
  0
VERTEX
  8
0
 10
8.27149
 20
9.57269
 30
0.0
 40
0.00208333
 41
0.00208333
  0
VERTEX
  8
0
 10
8.27149
 20
7.15224
 30
0.0
 40
0.00208333
 41
0.00208333
  0
VERTEX
  8
0
 10
5.31207
 20
7.15224
 30
0.0
 40
0.00208333
 41
0.00208333
  0
VERTEX
  8
0
 10
5.31207
 20
11.4457
 30
0.0
 40
0.00208333
 41
0.00208333
  0
VERTEX
  8
0
 10
8.27061
 20
11.4457
 30
0.0
 40
0.00208333
 41
0.00208333
  0
VERTEX
  8
0
 10
8.27061
 20
9.57269
 30
0.0
 40
0.00208333
 41
0.00208333
  0
SEQEND
 8
0
  0
TEXT
  8
0
 62
     0
 10
6.60669
 20
9.17747
 30
0.0
 40
0.34375
  1
K
 50
0
  0
POLYLINE
  8
0
 62
     7
 66
     1
 10
0
 20
0
 30
0.0
 70
     1
 40
0
 41
0
  0
VERTEX
  8
0
 10
0.853842
 20
11.779
 30
0.0
 40
0
 41
0
  0
VERTEX
  8
0
 10
0.853842
 20
13.2626
 30
0.0
 40
0
 41
0
  0
VERTEX
  8
0
 10
10.3729
 20
13.2531
 30
0.0
 40
0
 41
0
  0
VERTEX
  8
0
 10
10.3729
 20
11.779
 30
0.0
 40
0
 41
0
  0
VERTEX
  8
0
 10
0.853842
 20
11.779
 30
0.0
 40
0
 41
0
  0
SEQEND
 8
0
  0
POLYLINE
  8
0
 62
     0
 66
     1
 10
0
 20
0
 30
0.0
 70
     1
 40
0.15
 41
0.15
  0
VERTEX
  8
0
 10
0.853842
 20
11.779
 30
0.0
 40
0.00208333
 41
0.00208333
  0
VERTEX
  8
0
 10
0.853842
 20
13.2626
 30
0.0
 40
0.00208333
 41
0.00208333
  0
VERTEX
  8
0
 10
10.3729
 20
13.2531
 30
0.0
 40
0.00208333
 41
0.00208333
  0
VERTEX
  8
0
 10
10.3729
 20
11.779
 30
0.0
 40
0.00208333
 41
0.00208333
  0
VERTEX
  8
0
 10
0.853842
 20
11.779
 30
0.0
 40
0.00208333
 41
0.00208333
  0
SEQEND
 8
0
  0
TEXT
  8
0
 62
     0
 10
5.58776
 20
12.4229
 30
0.0
 40
0.34375
  1
TERA
 50
0
  0
TEXT
  8
0
 62
     0
 10
6.48915
 20
12.4229
 30
0.0
 40
0.34375
  1
S
 50
0
  0
TEXT
  8
0
 62
     0
 10
6.72035
 20
12.4229
 30
0.0
 40
0.34375
  1
SI
 50
0
  0
POLYLINE
  8
0
 62
     7
 66
     1
 10
0
 20
0
 30
0.0
 70
     1
 40
0
 41
0
  0
VERTEX
  8
0
 10
6.1396
 20
5.70714
 30
0.0
 40
0
 41
0
  0
VERTEX
  8
0
 10
10.2536
 20
5.70714
 30
0.0
 40
0
 41
0
  0
VERTEX
  8
0
 10
10.2536
 20
2.04454
 30
0.0
 40
0
 41
0
  0
VERTEX
  8
0
 10
6.1396
 20
2.04454
 30
0.0
 40
0
 41
0
  0
VERTEX
  8
0
 10
6.1396
 20
5.70714
 30
0.0
 40
0
 41
0
  0
SEQEND
 8
0
  0
POLYLINE
  8
0
 62
     7
 66
     1
 10
0
 20
0
 30
0.0
 70
     1
 40
0.15
 41
0.15
  0
VERTEX
  8
0
 10
6.1396
 20
5.70714
 30
0.0
 40
0.00208333
 41
0.00208333
  0
VERTEX
  8
0
 10
10.2536
 20
5.70714
 30
0.0
 40
0.00208333
 41
0.00208333
  0
VERTEX
  8
0
 10
10.2536
 20
2.04454
 30
0.0
 40
0.00208333
 41
0.00208333
  0
VERTEX
  8
0
 10
6.1396
 20
2.04454
 30
0.0
 40
0.00208333
 41
0.00208333
  0
VERTEX
  8
0
 10
6.1396
 20
5.70714
 30
0.0
 40
0.00208333
 41
0.00208333
  0
SEQEND
 8
0
  0
TEXT
  8
0
 62
     0
 10
8.16775
 20
3.71983
 30
0.0
 40
0.34375
  1
MH
 50
0
  0
POLYLINE
  8
0
 62
     7
 66
     1
 10
0
 20
0
 30
0.0
 70
     1
 40
0
 41
0
  0
VERTEX
  8
0
 10
0.963542
 20
5.70714
 30
0.0
 40
0
 41
0
  0
VERTEX
  8
0
 10
4.07178
 20
5.70714
 30
0.0
 40
0
 41
0
  0
VERTEX
  8
0
 10
4.07178
 20
2.04454
 30
0.0
 40
0
 41
0
  0
VERTEX
  8
0
 10
0.963542
 20
2.04454
 30
0.0
 40
0
 41
0
  0
VERTEX
  8
0
 10
0.963542
 20
5.70714
 30
0.0
 40
0
 41
0
  0
SEQEND
 8
0
  0
POLYLINE
  8
0
 62
     7
 66
     1
 10
0
 20
0
 30
0.0
 70
     1
 40
0.15
 41
0.15
  0
VERTEX
  8
0
 10
0.963542
 20
5.70714
 30
0.0
 40
0.00208333
 41
0.00208333
  0
VERTEX
  8
0
 10
4.07178
 20
5.70714
 30
0.0
 40
0.00208333
 41
0.00208333
  0
VERTEX
  8
0
 10
4.07178
 20
2.04454
 30
0.0
 40
0.00208333
 41
0.00208333
  0
VERTEX
  8
0
 10
0.963542
 20
2.04454
 30
0.0
 40
0.00208333
 41
0.00208333
  0
VERTEX
  8
0
 10
0.963542
 20
5.70714
 30
0.0
 40
0.00208333
 41
0.00208333
  0
SEQEND
 8
0
  0
TEXT
  8
0
 62
     0
 10
2.25769
 20
3.67361
 30
0.0
 40
0.34375
  1
MH
 50
0
  0
POLYLINE
  8
0
 62
     7
 66
     1
 10
0
 20
0
 30
0.0
 70
     1
 40
0
 41
0
  0
VERTEX
  8
0
 10
10.2536
 20
5.81131
 30
0.0
 40
0
 41
0
  0
VERTEX
  8
0
 10
7.90804
 20
5.81131
 30
0.0
 40
0
 41
0
  0
VERTEX
  8
0
 10
7.90804
 20
7.04807
 30
0.0
 40
0
 41
0
  0
VERTEX
  8
0
 10
8.37565
 20
7.04807
 30
0.0
 40
0
 41
0
  0
VERTEX
  8
0
 10
8.37565
 20
7.62299
 30
0.0
 40
0
 41
0
  0
VERTEX
  8
0
 10
10.2536
 20
7.62299
 30
0.0
 40
0
 41
0
  0
VERTEX
  8
0
 10
10.2536
 20
5.81131
 30
0.0
 40
0
 41
0
  0
SEQEND
 8
0
  0
POLYLINE
  8
0
 62
     7
 66
     1
 10
0
 20
0
 30
0.0
 70
     1
 40
0.15
 41
0.15
  0
VERTEX
  8
0
 10
10.2536
 20
5.81131
 30
0.0
 40
0.00208333
 41
0.00208333
  0
VERTEX
  8
0
 10
7.90804
 20
5.81131
 30
0.0
 40
0.00208333
 41
0.00208333
  0
VERTEX
  8
0
 10
7.90804
 20
7.04807
 30
0.0
 40
0.00208333
 41
0.00208333
  0
VERTEX
  8
0
 10
8.37565
 20
7.04807
 30
0.0
 40
0.00208333
 41
0.00208333
  0
VERTEX
  8
0
 10
8.37565
 20
7.62299
 30
0.0
 40
0.00208333
 41
0.00208333
  0
VERTEX
  8
0
 10
10.2536
 20
7.62299
 30
0.0
 40
0.00208333
 41
0.00208333
  0
VERTEX
  8
0
 10
10.2536
 20
5.81131
 30
0.0
 40
0.00208333
 41
0.00208333
  0
SEQEND
 8
0
  0
TEXT
  8
0
 62
     0
 10
8.84504
 20
6.48732
 30
0.0
 40
0.34375
  1
PKH
 50
0
  0
POLYLINE
  8
0
 62
     7
 66
     1
 10
0
 20
0
 30
0.0
 70
     1
 40
0
 41
0
  0
VERTEX
  8
0
 10
8.37565
 20
9.57269
 30
0.0
 40
0
 41
0
  0
VERTEX
  8
0
 10
10.2536
 20
9.57269
 30
0.0
 40
0
 41
0
  0
VERTEX
  8
0
 10
10.2536
 20
7.72715
 30
0.0
 40
0
 41
0
  0
VERTEX
  8
0
 10
8.37565
 20
7.72715
 30
0.0
 40
0
 41
0
  0
VERTEX
  8
0
 10
8.37565
 20
9.57269
 30
0.0
 40
0
 41
0
  0
SEQEND
 8
0
  0
POLYLINE
  8
0
 62
     7
 66
     1
 10
0
 20
0
 30
0.0
 70
     1
 40
0.15
 41
0.15
  0
VERTEX
  8
0
 10
8.37565
 20
9.57269
 30
0.0
 40
0.00208333
 41
0.00208333
  0
VERTEX
  8
0
 10
10.2536
 20
9.57269
 30
0.0
 40
0.00208333
 41
0.00208333
  0
VERTEX
  8
0
 10
10.2536
 20
7.72715
 30
0.0
 40
0.00208333
 41
0.00208333
  0
VERTEX
  8
0
 10
8.37565
 20
7.72715
 30
0.0
 40
0.00208333
 41
0.00208333
  0
VERTEX
  8
0
 10
8.37565
 20
9.57269
 30
0.0
 40
0.00208333
 41
0.00208333
  0
SEQEND
 8
0
  0
TEXT
  8
0
 62
     0
 10
9.15968
 20
8.52275
 30
0.0
 40
0.34375
  1
KH
 50
0
  0
POLYLINE
  8
0
 62
     7
 66
     1
 10
0
 20
0
 30
0.0
 70
     1
 40
0
 41
0
  0
VERTEX
  8
0
 10
8.41721
 20
11.4457
 30
0.0
 40
0
 41
0
  0
VERTEX
  8
0
 10
10.161
 20
11.4457
 30
0.0
 40
0
 41
0
  0
VERTEX
  8
0
 10
10.161
 20
9.72933
 30
0.0
 40
0
 41
0
  0
VERTEX
  8
0
 10
8.41721
 20
9.72933
 30
0.0
 40
0
 41
0
  0
VERTEX
  8
0
 10
8.41721
 20
11.4457
 30
0.0
 40
0
 41
0
  0
SEQEND
 8
0
  0
POLYLINE
  8
0
 62
     7
 66
     1
 10
0
 20
0
 30
0.0
 70
     1
 40
0.15
 41
0.15
  0
VERTEX
  8
0
 10
8.41721
 20
11.4457
 30
0.0
 40
0.00208333
 41
0.00208333
  0
VERTEX
  8
0
 10
10.161
 20
11.4457
 30
0.0
 40
0.00208333
 41
0.00208333
  0
VERTEX
  8
0
 10
10.161
 20
9.72933
 30
0.0
 40
0.00208333
 41
0.00208333
  0
VERTEX
  8
0
 10
8.41721
 20
9.72933
 30
0.0
 40
0.00208333
 41
0.00208333
  0
VERTEX
  8
0
 10
8.41721
 20
11.4457
 30
0.0
 40
0.00208333
 41
0.00208333
  0
SEQEND
 8
0
  0
TEXT
  8
0
 62
     0
 10
9.2891
 20
10.5875
 30
0.0
 40
0.34375
  1
UNDEFINED
 50
0
  0
POLYLINE
  8
0
 62
     7
 66
     1
 10
0
 20
0
 30
0.0
 70
     1
 40
0
 41
0
  0
VERTEX
  8
0
 10
4.17594
 20
3.19026
 30
0.0
 40
0
 41
0
  0
VERTEX
  8
0
 10
6.03543
 20
3.19026
 30
0.0
 40
0
 41
0
  0
VERTEX
  8
0
 10
6.03543
 20
2.04454
 30
0.0
 40
0
 41
0
  0
VERTEX
  8
0
 10
4.17594
 20
2.04454
 30
0.0
 40
0
 41
0
  0
VERTEX
  8
0
 10
4.17594
 20
3.19026
 30
0.0
 40
0
 41
0
  0
SEQEND
 8
0
  0
POLYLINE
  8
0
 62
     7
 66
     1
 10
0
 20
0
 30
0.0
 70
     1
 40
0.15
 41
0.15
  0
VERTEX
  8
0
 10
4.17594
 20
3.19026
 30
0.0
 40
0.00208333
 41
0.00208333
  0
VERTEX
  8
0
 10
6.03543
 20
3.19026
 30
0.0
 40
0.00208333
 41
0.00208333
  0
VERTEX
  8
0
 10
6.03543
 20
2.04454
 30
0.0
 40
0.00208333
 41
0.00208333
  0
VERTEX
  8
0
 10
4.17594
 20
2.04454
 30
0.0
 40
0.00208333
 41
0.00208333
  0
VERTEX
  8
0
 10
4.17594
 20
3.19026
 30
0.0
 40
0.00208333
 41
0.00208333
  0
SEQEND
 8
0
  0
TEXT
  8
0
 62
     0
 10
5.10571
 20
2.6174
 30
0.0
 40
0.34375
  1
TK
 50
0
  0
POLYLINE
  8
0
 62
     7
 66
     1
 10
0
 20
0
 30
0.0
 70
     1
 40
0
 41
0
  0
VERTEX
  8
0
 10
0.963542
 20
7.04807
 30
0.0
 40
0
 41
0
  0
VERTEX
  8
0
 10
2.64128
 20
7.04807
 30
0.0
 40
0
 41
0
  0
VERTEX
  8
0
 10
2.64128
 20
5.81131
 30
0.0
 40
0
 41
0
  0
VERTEX
  8
0
 10
0.963542
 20
5.81131
 30
0.0
 40
0
 41
0
  0
VERTEX
  8
0
 10
0.963542
 20
7.04807
 30
0.0
 40
0
 41
0
  0
SEQEND
 8
0
  0
POLYLINE
  8
0
 62
     7
 66
     1
 10
0
 20
0
 30
0.0
 70
     1
 40
0.15
 41
0.15
  0
VERTEX
  8
0
 10
0.963542
 20
7.04807
 30
0.0
 40
0.00208333
 41
0.00208333
  0
VERTEX
  8
0
 10
2.64128
 20
7.04807
 30
0.0
 40
0.00208333
 41
0.00208333
  0
VERTEX
  8
0
 10
2.64128
 20
5.81131
 30
0.0
 40
0.00208333
 41
0.00208333
  0
VERTEX
  8
0
 10
0.963542
 20
5.81131
 30
0.0
 40
0.00208333
 41
0.00208333
  0
VERTEX
  8
0
 10
0.963542
 20
7.04807
 30
0.0
 40
0.00208333
 41
0.00208333
  0
SEQEND
 8
0
  0
TEXT
  8
0
 62
     0
 10
1.82671
 20
6.06006
 30
0.0
 40
0.34375
  1
VH
 50
0
  0
POLYLINE
  8
0
 62
     7
 66
     1
 10
0
 20
0
 30
0.0
 70
     1
 40
0
 41
0
  0
VERTEX
  8
0
 10
2.74544
 20
7.04807
 30
0.0
 40
0
 41
0
  0
VERTEX
  8
0
 10
4.07178
 20
7.04807
 30
0.0
 40
0
 41
0
  0
VERTEX
  8
0
 10
4.07178
 20
5.81131
 30
0.0
 40
0
 41
0
  0
VERTEX
  8
0
 10
2.74544
 20
5.81131
 30
0.0
 40
0
 41
0
  0
VERTEX
  8
0
 10
2.74544
 20
7.04807
 30
0.0
 40
0
 41
0
  0
SEQEND
 8
0
  0
POLYLINE
  8
0
 62
     7
 66
     1
 10
0
 20
0
 30
0.0
 70
     1
 40
0.15
 41
0.15
  0
VERTEX
  8
0
 10
2.74544
 20
7.04807
 30
0.0
 40
0.00208333
 41
0.00208333
  0
VERTEX
  8
0
 10
4.07178
 20
7.04807
 30
0.0
 40
0.00208333
 41
0.00208333
  0
VERTEX
  8
0
 10
4.07178
 20
5.81131
 30
0.0
 40
0.00208333
 41
0.00208333
  0
VERTEX
  8
0
 10
2.74544
 20
5.81131
 30
0.0
 40
0.00208333
 41
0.00208333
  0
VERTEX
  8
0
 10
2.74544
 20
7.04807
 30
0.0
 40
0.00208333
 41
0.00208333
  0
SEQEND
 8
0
  0
TEXT
  8
0
 62
     0
 10
3.28382
 20
6.53958
 30
0.0
 40
0.34375
  1
WC
 50
0
  0
POLYLINE
  8
0
 62
     0
 66
     1
 10
0
 20
0
 30
0.0
 70
     1
 40
0
 41
0
  0
VERTEX
  8
0
 10
10.2536
 20
11.4457
 30
0.0
 40
0
 41
0
  0
VERTEX
  8
0
 10
10.2536
 20
2.04454
 30
0.0
 40
0
 41
0
  0
VERTEX
  8
0
 10
10.587
 20
1.71121
 30
0.0
 40
0
 41
0
  0
VERTEX
  8
0
 10
10.587
 20
11.779
 30
0.0
 40
0
 41
0
  0
VERTEX
  8
0
 10
10.2536
 20
11.4457
 30
0.0
 40
0
 41
0
  0
SEQEND
 8
0
  0
POLYLINE
  8
0
 62
     0
 66
     1
 10
0
 20
0
 30
0.0
 70
     1
 40
0.15
 41
0.15
  0
VERTEX
  8
0
 10
10.2536
 20
11.4457
 30
0.0
 40
0.00208333
 41
0.00208333
  0
VERTEX
  8
0
 10
10.2536
 20
2.04454
 30
0.0
 40
0.00208333
 41
0.00208333
  0
VERTEX
  8
0
 10
10.587
 20
1.71121
 30
0.0
 40
0.00208333
 41
0.00208333
  0
VERTEX
  8
0
 10
10.587
 20
11.779
 30
0.0
 40
0.00208333
 41
0.00208333
  0
VERTEX
  8
0
 10
10.2536
 20
11.4457
 30
0.0
 40
0.00208333
 41
0.00208333
  0
SEQEND
 8
0
  0
POLYLINE
  8
0
 62
     0
 66
     1
 10
0
 20
0
 30
0.0
 70
     1
 40
0
 41
0
  0
VERTEX
  8
0
 10
10.2536
 20
2.04454
 30
0.0
 40
0
 41
0
  0
VERTEX
  8
0
 10
0.963542
 20
2.04454
 30
0.0
 40
0
 41
0
  0
VERTEX
  8
0
 10
0.630208
 20
1.71121
 30
0.0
 40
0
 41
0
  0
VERTEX
  8
0
 10
10.587
 20
1.71121
 30
0.0
 40
0
 41
0
  0
VERTEX
  8
0
 10
10.2536
 20
2.04454
 30
0.0
 40
0
 41
0
  0
SEQEND
 8
0
  0
POLYLINE
  8
0
 62
     0
 66
     1
 10
0
 20
0
 30
0.0
 70
     1
 40
0.15
 41
0.15
  0
VERTEX
  8
0
 10
10.2536
 20
2.04454
 30
0.0
 40
0.00208333
 41
0.00208333
  0
VERTEX
  8
0
 10
0.963542
 20
2.04454
 30
0.0
 40
0.00208333
 41
0.00208333
  0
VERTEX
  8
0
 10
0.630208
 20
1.71121
 30
0.0
 40
0.00208333
 41
0.00208333
  0
VERTEX
  8
0
 10
10.587
 20
1.71121
 30
0.0
 40
0.00208333
 41
0.00208333
  0
VERTEX
  8
0
 10
10.2536
 20
2.04454
 30
0.0
 40
0.00208333
 41
0.00208333
  0
SEQEND
 8
0
  0
POLYLINE
  8
0
 62
     7
 66
     1
 10
0
 20
0
 30
0.0
 70
     1
 40
0
 41
0
  0
VERTEX
  8
0
 10
4.85471
 20
2.04454
 30
0.0
 40
0
 41
0
  0
VERTEX
  8
0
 10
5.79833
 20
2.04454
 30
0.0
 40
0
 41
0
  0
VERTEX
  8
0
 10
5.79833
 20
1.71121
 30
0.0
 40
0
 41
0
  0
VERTEX
  8
0
 10
4.85471
 20
1.71121
 30
0.0
 40
0
 41
0
  0
VERTEX
  8
0
 10
4.85471
 20
2.04454
 30
0.0
 40
0
 41
0
  0
SEQEND
 8
0
  0
POLYLINE
  8
0
 62
     0
 66
     1
 10
0
 20
0
 30
0.0
 70
     1
 40
0.75
 41
0.75
  0
VERTEX
  8
0
 10
4.85471
 20
2.04454
 30
0.0
 40
0.0104167
 41
0.0104167
  0
VERTEX
  8
0
 10
5.79833
 20
2.04454
 30
0.0
 40
0.0104167
 41
0.0104167
  0
VERTEX
  8
0
 10
5.79833
 20
1.71121
 30
0.0
 40
0.0104167
 41
0.0104167
  0
VERTEX
  8
0
 10
4.85471
 20
1.71121
 30
0.0
 40
0.0104167
 41
0.0104167
  0
VERTEX
  8
0
 10
4.85471
 20
2.04454
 30
0.0
 40
0.0104167
 41
0.0104167
  0
SEQEND
 8
0
  0
POLYLINE
  8
0
 62
     7
 66
     1
 10
0
 20
0
 30
0.0
 70
     1
 40
0
 41
0
  0
VERTEX
  8
0
 10
4.85471
 20
2.04454
 30
0.0
 40
0
 41
0
  0
VERTEX
  8
0
 10
5.79833
 20
2.04454
 30
0.0
 40
0
 41
0
  0
VERTEX
  8
0
 10
5.79833
 20
1.71121
 30
0.0
 40
0
 41
0
  0
VERTEX
  8
0
 10
4.85471
 20
1.71121
 30
0.0
 40
0
 41
0
  0
VERTEX
  8
0
 10
4.85471
 20
2.04454
 30
0.0
 40
0
 41
0
  0
SEQEND
 8
0
  0
POLYLINE
  8
0
 62
     0
 66
     1
 10
0
 20
0
 30
0.0
 70
     1
 40
0.75
 41
0.75
  0
VERTEX
  8
0
 10
4.85471
 20
2.04454
 30
0.0
 40
0.0104167
 41
0.0104167
  0
VERTEX
  8
0
 10
5.79833
 20
2.04454
 30
0.0
 40
0.0104167
 41
0.0104167
  0
VERTEX
  8
0
 10
5.79833
 20
1.71121
 30
0.0
 40
0.0104167
 41
0.0104167
  0
VERTEX
  8
0
 10
4.85471
 20
1.71121
 30
0.0
 40
0.0104167
 41
0.0104167
  0
VERTEX
  8
0
 10
4.85471
 20
2.04454
 30
0.0
 40
0.0104167
 41
0.0104167
  0
SEQEND
 8
0
  0
POLYLINE
  8
0
 62
     0
 66
     1
 10
0
 20
0
 30
0.0
 70
     1
 40
0.75
 41
0.75
  0
VERTEX
  8
0
 10
4.85471
 20
1.71121
 30
0.0
 40
0.0104167
 41
0.0104167
  0
VERTEX
  8
0
 10
4.85471
 20
1.65593
 30
0.0
 40
0.0104167
 41
0.0104167
  0
VERTEX
  8
0
 10
4.86942
 20
1.49007
 30
0.0
 40
0.0104167
 41
0.0104167
  0
VERTEX
  8
0
 10
4.91363
 20
1.29839
 30
0.0
 40
0.0104167
 41
0.0104167
  0
VERTEX
  8
0
 10
4.98736
 20
1.13623
 30
0.0
 40
0.0104167
 41
0.0104167
  0
VERTEX
  8
0
 10
5.0906
 20
1.00353
 30
0.0
 40
0.0104167
 41
0.0104167
  0
VERTEX
  8
0
 10
5.22325
 20
0.900282
 30
0.0
 40
0.0104167
 41
0.0104167
  0
VERTEX
  8
0
 10
5.38547
 20
0.826606
 30
0.0
 40
0.0104167
 41
0.0104167
  0
VERTEX
  8
0
 10
5.57715
 20
0.782335
 30
0.0
 40
0.0104167
 41
0.0104167
  0
VERTEX
  8
0
 10
5.743
 20
0.767578
 30
0.0
 40
0.0104167
 41
0.0104167
  0
VERTEX
  8
0
 10
5.79833
 20
0.767578
 30
0.0
 40
0.0104167
 41
0.0104167
  0
VERTEX
  8
0
 10
5.79833
 20
1.71121
 30
0.0
 40
0.0104167
 41
0.0104167
  0
VERTEX
  8
0
 10
4.85471
 20
1.71121
 30
0.0
 40
0.0104167
 41
0.0104167
  0
SEQEND
 8
0
  0
POLYLINE
  8
0
 62
     7
 66
     1
 10
0
 20
0
 30
0.0
 70
     1
 40
0
 41
0
  0
VERTEX
  8
0
 10
9.28331
 20
2.04454
 30
0.0
 40
0
 41
0
  0
VERTEX
  8
0
 10
9.61268
 20
2.04454
 30
0.0
 40
0
 41
0
  0
VERTEX
  8
0
 10
9.61268
 20
1.71121
 30
0.0
 40
0
 41
0
  0
VERTEX
  8
0
 10
9.28331
 20
1.71121
 30
0.0
 40
0
 41
0
  0
VERTEX
  8
0
 10
9.28331
 20
2.04454
 30
0.0
 40
0
 41
0
  0
SEQEND
 8
0
  0
POLYLINE
  8
0
 62
     0
 66
     1
 10
0
 20
0
 30
0.0
 70
     1
 40
0.75
 41
0.75
  0
VERTEX
  8
0
 10
9.28331
 20
2.04454
 30
0.0
 40
0.0104167
 41
0.0104167
  0
VERTEX
  8
0
 10
9.61268
 20
2.04454
 30
0.0
 40
0.0104167
 41
0.0104167
  0
VERTEX
  8
0
 10
9.61268
 20
1.71121
 30
0.0
 40
0.0104167
 41
0.0104167
  0
VERTEX
  8
0
 10
9.28331
 20
1.71121
 30
0.0
 40
0.0104167
 41
0.0104167
  0
VERTEX
  8
0
 10
9.28331
 20
2.04454
 30
0.0
 40
0.0104167
 41
0.0104167
  0
SEQEND
 8
0
  0
POLYLINE
  8
0
 62
     7
 66
     1
 10
0
 20
0
 30
0.0
 70
     1
 40
0
 41
0
  0
VERTEX
  8
0
 10
9.28331
 20
2.04454
 30
0.0
 40
0
 41
0
  0
VERTEX
  8
0
 10
9.61268
 20
2.04454
 30
0.0
 40
0
 41
0
  0
VERTEX
  8
0
 10
9.61268
 20
1.71121
 30
0.0
 40
0
 41
0
  0
VERTEX
  8
0
 10
9.28331
 20
1.71121
 30
0.0
 40
0
 41
0
  0
VERTEX
  8
0
 10
9.28331
 20
2.04454
 30
0.0
 40
0
 41
0
  0
SEQEND
 8
0
  0
POLYLINE
  8
0
 62
     0
 66
     1
 10
0
 20
0
 30
0.0
 70
     1
 40
0.75
 41
0.75
  0
VERTEX
  8
0
 10
9.28331
 20
2.04454
 30
0.0
 40
0.0104167
 41
0.0104167
  0
VERTEX
  8
0
 10
9.61268
 20
2.04454
 30
0.0
 40
0.0104167
 41
0.0104167
  0
VERTEX
  8
0
 10
9.61268
 20
1.71121
 30
0.0
 40
0.0104167
 41
0.0104167
  0
VERTEX
  8
0
 10
9.28331
 20
1.71121
 30
0.0
 40
0.0104167
 41
0.0104167
  0
VERTEX
  8
0
 10
9.28331
 20
2.04454
 30
0.0
 40
0.0104167
 41
0.0104167
  0
SEQEND
 8
0
  0
POLYLINE
  8
0
 62
     0
 66
     1
 10
0
 20
0
 30
0.0
 40
0.75
 41
0.75
  0
VERTEX
  8
0
 10
9.53456
 20
1.87788
 30
0.0
 40
0.0104167
 41
0.0104167
  0
VERTEX
  8
0
 10
9.36143
 20
1.87788
 30
0.0
 40
0.0104167
 41
0.0104167
  0
SEQEND
 8
0
  0
POLYLINE
  8
0
 62
     0
 66
     1
 10
0
 20
0
 30
0.0
 40
0.75
 41
0.75
  0
VERTEX
  8
0
 10
9.53456
 20
2.04454
 30
0.0
 40
0.0104167
 41
0.0104167
  0
VERTEX
  8
0
 10
9.53456
 20
1.71121
 30
0.0
 40
0.0104167
 41
0.0104167
  0
SEQEND
 8
0
  0
POLYLINE
  8
0
 62
     0
 66
     1
 10
0
 20
0
 30
0.0
 40
0.75
 41
0.75
  0
VERTEX
  8
0
 10
9.36143
 20
2.04454
 30
0.0
 40
0.0104167
 41
0.0104167
  0
VERTEX
  8
0
 10
9.36143
 20
1.71121
 30
0.0
 40
0.0104167
 41
0.0104167
  0
SEQEND
 8
0
  0
POLYLINE
  8
0
 62
     7
 66
     1
 10
0
 20
0
 30
0.0
 70
     1
 40
0
 41
0
  0
VERTEX
  8
0
 10
7.74311
 20
2.04454
 30
0.0
 40
0
 41
0
  0
VERTEX
  8
0
 10
9.28331
 20
2.04454
 30
0.0
 40
0
 41
0
  0
VERTEX
  8
0
 10
9.28331
 20
1.71121
 30
0.0
 40
0
 41
0
  0
VERTEX
  8
0
 10
7.74311
 20
1.71121
 30
0.0
 40
0
 41
0
  0
VERTEX
  8
0
 10
7.74311
 20
2.04454
 30
0.0
 40
0
 41
0
  0
SEQEND
 8
0
  0
POLYLINE
  8
0
 62
     0
 66
     1
 10
0
 20
0
 30
0.0
 70
     1
 40
0.75
 41
0.75
  0
VERTEX
  8
0
 10
7.74311
 20
2.04454
 30
0.0
 40
0.0104167
 41
0.0104167
  0
VERTEX
  8
0
 10
9.28331
 20
2.04454
 30
0.0
 40
0.0104167
 41
0.0104167
  0
VERTEX
  8
0
 10
9.28331
 20
1.71121
 30
0.0
 40
0.0104167
 41
0.0104167
  0
VERTEX
  8
0
 10
7.74311
 20
1.71121
 30
0.0
 40
0.0104167
 41
0.0104167
  0
VERTEX
  8
0
 10
7.74311
 20
2.04454
 30
0.0
 40
0.0104167
 41
0.0104167
  0
SEQEND
 8
0
  0
POLYLINE
  8
0
 62
     7
 66
     1
 10
0
 20
0
 30
0.0
 70
     1
 40
0
 41
0
  0
VERTEX
  8
0
 10
7.74311
 20
2.04454
 30
0.0
 40
0
 41
0
  0
VERTEX
  8
0
 10
9.28331
 20
2.04454
 30
0.0
 40
0
 41
0
  0
VERTEX
  8
0
 10
9.28331
 20
1.71121
 30
0.0
 40
0
 41
0
  0
VERTEX
  8
0
 10
7.74311
 20
1.71121
 30
0.0
 40
0
 41
0
  0
VERTEX
  8
0
 10
7.74311
 20
2.04454
 30
0.0
 40
0
 41
0
  0
SEQEND
 8
0
  0
POLYLINE
  8
0
 62
     0
 66
     1
 10
0
 20
0
 30
0.0
 70
     1
 40
0.75
 41
0.75
  0
VERTEX
  8
0
 10
7.74311
 20
2.04454
 30
0.0
 40
0.0104167
 41
0.0104167
  0
VERTEX
  8
0
 10
9.28331
 20
2.04454
 30
0.0
 40
0.0104167
 41
0.0104167
  0
VERTEX
  8
0
 10
9.28331
 20
1.71121
 30
0.0
 40
0.0104167
 41
0.0104167
  0
VERTEX
  8
0
 10
7.74311
 20
1.71121
 30
0.0
 40
0.0104167
 41
0.0104167
  0
VERTEX
  8
0
 10
7.74311
 20
2.04454
 30
0.0
 40
0.0104167
 41
0.0104167
  0
SEQEND
 8
0
  0
POLYLINE
  8
0
 62
     0
 66
     1
 10
0
 20
0
 30
0.0
 40
0.75
 41
0.75
  0
VERTEX
  8
0
 10
9.20518
 20
1.87788
 30
0.0
 40
0.0104167
 41
0.0104167
  0
VERTEX
  8
0
 10
7.82124
 20
1.87788
 30
0.0
 40
0.0104167
 41
0.0104167
  0
SEQEND
 8
0
  0
POLYLINE
  8
0
 62
     0
 66
     1
 10
0
 20
0
 30
0.0
 40
0.75
 41
0.75
  0
VERTEX
  8
0
 10
9.20518
 20
2.04454
 30
0.0
 40
0.0104167
 41
0.0104167
  0
VERTEX
  8
0
 10
9.20518
 20
1.71121
 30
0.0
 40
0.0104167
 41
0.0104167
  0
SEQEND
 8
0
  0
POLYLINE
  8
0
 62
     0
 66
     1
 10
0
 20
0
 30
0.0
 40
0.75
 41
0.75
  0
VERTEX
  8
0
 10
7.82124
 20
2.04454
 30
0.0
 40
0.0104167
 41
0.0104167
  0
VERTEX
  8
0
 10
7.82124
 20
1.71121
 30
0.0
 40
0.0104167
 41
0.0104167
  0
SEQEND
 8
0
  0
POLYLINE
  8
0
 62
     7
 66
     1
 10
0
 20
0
 30
0.0
 70
     1
 40
0
 41
0
  0
VERTEX
  8
0
 10
1.82281
 20
2.04454
 30
0.0
 40
0
 41
0
  0
VERTEX
  8
0
 10
3.33176
 20
2.04454
 30
0.0
 40
0
 41
0
  0
VERTEX
  8
0
 10
3.33176
 20
1.71121
 30
0.0
 40
0
 41
0
  0
VERTEX
  8
0
 10
1.82281
 20
1.71121
 30
0.0
 40
0
 41
0
  0
VERTEX
  8
0
 10
1.82281
 20
2.04454
 30
0.0
 40
0
 41
0
  0
SEQEND
 8
0
  0
POLYLINE
  8
0
 62
     0
 66
     1
 10
0
 20
0
 30
0.0
 70
     1
 40
0.75
 41
0.75
  0
VERTEX
  8
0
 10
1.82281
 20
2.04454
 30
0.0
 40
0.0104167
 41
0.0104167
  0
VERTEX
  8
0
 10
3.33176
 20
2.04454
 30
0.0
 40
0.0104167
 41
0.0104167
  0
VERTEX
  8
0
 10
3.33176
 20
1.71121
 30
0.0
 40
0.0104167
 41
0.0104167
  0
VERTEX
  8
0
 10
1.82281
 20
1.71121
 30
0.0
 40
0.0104167
 41
0.0104167
  0
VERTEX
  8
0
 10
1.82281
 20
2.04454
 30
0.0
 40
0.0104167
 41
0.0104167
  0
SEQEND
 8
0
  0
POLYLINE
  8
0
 62
     7
 66
     1
 10
0
 20
0
 30
0.0
 70
     1
 40
0
 41
0
  0
VERTEX
  8
0
 10
1.82281
 20
2.04454
 30
0.0
 40
0
 41
0
  0
VERTEX
  8
0
 10
3.33176
 20
2.04454
 30
0.0
 40
0
 41
0
  0
VERTEX
  8
0
 10
3.33176
 20
1.71121
 30
0.0
 40
0
 41
0
  0
VERTEX
  8
0
 10
1.82281
 20
1.71121
 30
0.0
 40
0
 41
0
  0
VERTEX
  8
0
 10
1.82281
 20
2.04454
 30
0.0
 40
0
 41
0
  0
SEQEND
 8
0
  0
POLYLINE
  8
0
 62
     0
 66
     1
 10
0
 20
0
 30
0.0
 70
     1
 40
0.75
 41
0.75
  0
VERTEX
  8
0
 10
1.82281
 20
2.04454
 30
0.0
 40
0.0104167
 41
0.0104167
  0
VERTEX
  8
0
 10
3.33176
 20
2.04454
 30
0.0
 40
0.0104167
 41
0.0104167
  0
VERTEX
  8
0
 10
3.33176
 20
1.71121
 30
0.0
 40
0.0104167
 41
0.0104167
  0
VERTEX
  8
0
 10
1.82281
 20
1.71121
 30
0.0
 40
0.0104167
 41
0.0104167
  0
VERTEX
  8
0
 10
1.82281
 20
2.04454
 30
0.0
 40
0.0104167
 41
0.0104167
  0
SEQEND
 8
0
  0
POLYLINE
  8
0
 62
     0
 66
     1
 10
0
 20
0
 30
0.0
 40
0.75
 41
0.75
  0
VERTEX
  8
0
 10
3.25369
 20
1.87788
 30
0.0
 40
0.0104167
 41
0.0104167
  0
VERTEX
  8
0
 10
1.90093
 20
1.87788
 30
0.0
 40
0.0104167
 41
0.0104167
  0
SEQEND
 8
0
  0
POLYLINE
  8
0
 62
     0
 66
     1
 10
0
 20
0
 30
0.0
 40
0.75
 41
0.75
  0
VERTEX
  8
0
 10
3.25369
 20
2.04454
 30
0.0
 40
0.0104167
 41
0.0104167
  0
VERTEX
  8
0
 10
3.25369
 20
1.71121
 30
0.0
 40
0.0104167
 41
0.0104167
  0
SEQEND
 8
0
  0
POLYLINE
  8
0
 62
     0
 66
     1
 10
0
 20
0
 30
0.0
 40
0.75
 41
0.75
  0
VERTEX
  8
0
 10
1.90093
 20
2.04454
 30
0.0
 40
0.0104167
 41
0.0104167
  0
VERTEX
  8
0
 10
1.90093
 20
1.71121
 30
0.0
 40
0.0104167
 41
0.0104167
  0
SEQEND
 8
0
  0
POLYLINE
  8
0
 62
     7
 66
     1
 10
0
 20
0
 30
0.0
 70
     1
 40
0
 41
0
  0
VERTEX
  8
0
 10
1.45779
 20
2.04454
 30
0.0
 40
0
 41
0
  0
VERTEX
  8
0
 10
1.82281
 20
2.04454
 30
0.0
 40
0
 41
0
  0
VERTEX
  8
0
 10
1.82281
 20
1.71121
 30
0.0
 40
0
 41
0
  0
VERTEX
  8
0
 10
1.45779
 20
1.71121
 30
0.0
 40
0
 41
0
  0
VERTEX
  8
0
 10
1.45779
 20
2.04454
 30
0.0
 40
0
 41
0
  0
SEQEND
 8
0
  0
POLYLINE
  8
0
 62
     0
 66
     1
 10
0
 20
0
 30
0.0
 70
     1
 40
0.75
 41
0.75
  0
VERTEX
  8
0
 10
1.45779
 20
2.04454
 30
0.0
 40
0.0104167
 41
0.0104167
  0
VERTEX
  8
0
 10
1.82281
 20
2.04454
 30
0.0
 40
0.0104167
 41
0.0104167
  0
VERTEX
  8
0
 10
1.82281
 20
1.71121
 30
0.0
 40
0.0104167
 41
0.0104167
  0
VERTEX
  8
0
 10
1.45779
 20
1.71121
 30
0.0
 40
0.0104167
 41
0.0104167
  0
VERTEX
  8
0
 10
1.45779
 20
2.04454
 30
0.0
 40
0.0104167
 41
0.0104167
  0
SEQEND
 8
0
  0
POLYLINE
  8
0
 62
     7
 66
     1
 10
0
 20
0
 30
0.0
 70
     1
 40
0
 41
0
  0
VERTEX
  8
0
 10
1.45779
 20
2.04454
 30
0.0
 40
0
 41
0
  0
VERTEX
  8
0
 10
1.82281
 20
2.04454
 30
0.0
 40
0
 41
0
  0
VERTEX
  8
0
 10
1.82281
 20
1.71121
 30
0.0
 40
0
 41
0
  0
VERTEX
  8
0
 10
1.45779
 20
1.71121
 30
0.0
 40
0
 41
0
  0
VERTEX
  8
0
 10
1.45779
 20
2.04454
 30
0.0
 40
0
 41
0
  0
SEQEND
 8
0
  0
POLYLINE
  8
0
 62
     0
 66
     1
 10
0
 20
0
 30
0.0
 70
     1
 40
0.75
 41
0.75
  0
VERTEX
  8
0
 10
1.45779
 20
2.04454
 30
0.0
 40
0.0104167
 41
0.0104167
  0
VERTEX
  8
0
 10
1.82281
 20
2.04454
 30
0.0
 40
0.0104167
 41
0.0104167
  0
VERTEX
  8
0
 10
1.82281
 20
1.71121
 30
0.0
 40
0.0104167
 41
0.0104167
  0
VERTEX
  8
0
 10
1.45779
 20
1.71121
 30
0.0
 40
0.0104167
 41
0.0104167
  0
VERTEX
  8
0
 10
1.45779
 20
2.04454
 30
0.0
 40
0.0104167
 41
0.0104167
  0
SEQEND
 8
0
  0
POLYLINE
  8
0
 62
     0
 66
     1
 10
0
 20
0
 30
0.0
 40
0.75
 41
0.75
  0
VERTEX
  8
0
 10
1.74468
 20
1.87788
 30
0.0
 40
0.0104167
 41
0.0104167
  0
VERTEX
  8
0
 10
1.53592
 20
1.87788
 30
0.0
 40
0.0104167
 41
0.0104167
  0
SEQEND
 8
0
  0
POLYLINE
  8
0
 62
     0
 66
     1
 10
0
 20
0
 30
0.0
 40
0.75
 41
0.75
  0
VERTEX
  8
0
 10
1.74468
 20
2.04454
 30
0.0
 40
0.0104167
 41
0.0104167
  0
VERTEX
  8
0
 10
1.74468
 20
1.71121
 30
0.0
 40
0.0104167
 41
0.0104167
  0
SEQEND
 8
0
  0
POLYLINE
  8
0
 62
     0
 66
     1
 10
0
 20
0
 30
0.0
 40
0.75
 41
0.75
  0
VERTEX
  8
0
 10
1.53592
 20
2.04454
 30
0.0
 40
0.0104167
 41
0.0104167
  0
VERTEX
  8
0
 10
1.53592
 20
1.71121
 30
0.0
 40
0.0104167
 41
0.0104167
  0
SEQEND
 8
0
  0
POLYLINE
  8
0
 62
     0
 66
     1
 10
0
 20
0
 30
0.0
 70
     1
 40
0
 41
0
  0
VERTEX
  8
0
 10
0.963542
 20
2.04454
 30
0.0
 40
0
 41
0
  0
VERTEX
  8
0
 10
0.963542
 20
11.4457
 30
0.0
 40
0
 41
0
  0
VERTEX
  8
0
 10
0.630208
 20
11.779
 30
0.0
 40
0
 41
0
  0
VERTEX
  8
0
 10
0.630208
 20
1.71121
 30
0.0
 40
0
 41
0
  0
VERTEX
  8
0
 10
0.963542
 20
2.04454
 30
0.0
 40
0
 41
0
  0
SEQEND
 8
0
  0
POLYLINE
  8
0
 62
     0
 66
     1
 10
0
 20
0
 30
0.0
 70
     1
 40
0.15
 41
0.15
  0
VERTEX
  8
0
 10
0.963542
 20
2.04454
 30
0.0
 40
0.00208333
 41
0.00208333
  0
VERTEX
  8
0
 10
0.963542
 20
11.4457
 30
0.0
 40
0.00208333
 41
0.00208333
  0
VERTEX
  8
0
 10
0.630208
 20
11.779
 30
0.0
 40
0.00208333
 41
0.00208333
  0
VERTEX
  8
0
 10
0.630208
 20
1.71121
 30
0.0
 40
0.00208333
 41
0.00208333
  0
VERTEX
  8
0
 10
0.963542
 20
2.04454
 30
0.0
 40
0.00208333
 41
0.00208333
  0
SEQEND
 8
0
  0
POLYLINE
  8
0
 62
     0
 66
     1
 10
0
 20
0
 30
0.0
 70
     1
 40
0
 41
0
  0
VERTEX
  8
0
 10
0.963542
 20
11.4457
 30
0.0
 40
0
 41
0
  0
VERTEX
  8
0
 10
10.2536
 20
11.4457
 30
0.0
 40
0
 41
0
  0
VERTEX
  8
0
 10
10.587
 20
11.779
 30
0.0
 40
0
 41
0
  0
VERTEX
  8
0
 10
0.630208
 20
11.779
 30
0.0
 40
0
 41
0
  0
VERTEX
  8
0
 10
0.963542
 20
11.4457
 30
0.0
 40
0
 41
0
  0
SEQEND
 8
0
  0
POLYLINE
  8
0
 62
     0
 66
     1
 10
0
 20
0
 30
0.0
 70
     1
 40
0.15
 41
0.15
  0
VERTEX
  8
0
 10
0.963542
 20
11.4457
 30
0.0
 40
0.00208333
 41
0.00208333
  0
VERTEX
  8
0
 10
10.2536
 20
11.4457
 30
0.0
 40
0.00208333
 41
0.00208333
  0
VERTEX
  8
0
 10
10.587
 20
11.779
 30
0.0
 40
0.00208333
 41
0.00208333
  0
VERTEX
  8
0
 10
0.630208
 20
11.779
 30
0.0
 40
0.00208333
 41
0.00208333
  0
VERTEX
  8
0
 10
0.963542
 20
11.4457
 30
0.0
 40
0.00208333
 41
0.00208333
  0
SEQEND
 8
0
  0
POLYLINE
  8
0
 62
     7
 66
     1
 10
0
 20
0
 30
0.0
 70
     1
 40
0
 41
0
  0
VERTEX
  8
0
 10
4.22428
 20
11.779
 30
0.0
 40
0
 41
0
  0
VERTEX
  8
0
 10
5.08479
 20
11.779
 30
0.0
 40
0
 41
0
  0
VERTEX
  8
0
 10
5.08479
 20
11.4457
 30
0.0
 40
0
 41
0
  0
VERTEX
  8
0
 10
4.22428
 20
11.4457
 30
0.0
 40
0
 41
0
  0
VERTEX
  8
0
 10
4.22428
 20
11.779
 30
0.0
 40
0
 41
0
  0
SEQEND
 8
0
  0
POLYLINE
  8
0
 62
     0
 66
     1
 10
0
 20
0
 30
0.0
 70
     1
 40
0.75
 41
0.75
  0
VERTEX
  8
0
 10
4.22428
 20
11.779
 30
0.0
 40
0.0104167
 41
0.0104167
  0
VERTEX
  8
0
 10
5.08479
 20
11.779
 30
0.0
 40
0.0104167
 41
0.0104167
  0
VERTEX
  8
0
 10
5.08479
 20
11.4457
 30
0.0
 40
0.0104167
 41
0.0104167
  0
VERTEX
  8
0
 10
4.22428
 20
11.4457
 30
0.0
 40
0.0104167
 41
0.0104167
  0
VERTEX
  8
0
 10
4.22428
 20
11.779
 30
0.0
 40
0.0104167
 41
0.0104167
  0
SEQEND
 8
0
  0
POLYLINE
  8
0
 62
     7
 66
     1
 10
0
 20
0
 30
0.0
 70
     1
 40
0
 41
0
  0
VERTEX
  8
0
 10
4.22428
 20
11.779
 30
0.0
 40
0
 41
0
  0
VERTEX
  8
0
 10
5.08479
 20
11.779
 30
0.0
 40
0
 41
0
  0
VERTEX
  8
0
 10
5.08479
 20
11.4457
 30
0.0
 40
0
 41
0
  0
VERTEX
  8
0
 10
4.22428
 20
11.4457
 30
0.0
 40
0
 41
0
  0
VERTEX
  8
0
 10
4.22428
 20
11.779
 30
0.0
 40
0
 41
0
  0
SEQEND
 8
0
  0
POLYLINE
  8
0
 62
     0
 66
     1
 10
0
 20
0
 30
0.0
 70
     1
 40
0.75
 41
0.75
  0
VERTEX
  8
0
 10
4.22428
 20
11.779
 30
0.0
 40
0.0104167
 41
0.0104167
  0
VERTEX
  8
0
 10
5.08479
 20
11.779
 30
0.0
 40
0.0104167
 41
0.0104167
  0
VERTEX
  8
0
 10
5.08479
 20
11.4457
 30
0.0
 40
0.0104167
 41
0.0104167
  0
VERTEX
  8
0
 10
4.22428
 20
11.4457
 30
0.0
 40
0.0104167
 41
0.0104167
  0
VERTEX
  8
0
 10
4.22428
 20
11.779
 30
0.0
 40
0.0104167
 41
0.0104167
  0
SEQEND
 8
0
  0
POLYLINE
  8
0
 62
     0
 66
     1
 10
0
 20
0
 30
0.0
 70
     1
 40
0.75
 41
0.75
  0
VERTEX
  8
0
 10
4.22428
 20
11.4457
 30
0.0
 40
0.0104167
 41
0.0104167
  0
VERTEX
  8
0
 10
4.22428
 20
11.3953
 30
0.0
 40
0.0104167
 41
0.0104167
  0
VERTEX
  8
0
 10
4.23768
 20
11.244
 30
0.0
 40
0.0104167
 41
0.0104167
  0
VERTEX
  8
0
 10
4.27806
 20
11.0692
 30
0.0
 40
0.0104167
 41
0.0104167
  0
VERTEX
  8
0
 10
4.34526
 20
10.9213
 30
0.0
 40
0.0104167
 41
0.0104167
  0
VERTEX
  8
0
 10
4.4394
 20
10.8003
 30
0.0
 40
0.0104167
 41
0.0104167
  0
VERTEX
  8
0
 10
4.56039
 20
10.7062
 30
0.0
 40
0.0104167
 41
0.0104167
  0
VERTEX
  8
0
 10
4.70828
 20
10.639
 30
0.0
 40
0.0104167
 41
0.0104167
  0
VERTEX
  8
0
 10
4.88308
 20
10.5986
 30
0.0
 40
0.0104167
 41
0.0104167
  0
VERTEX
  8
0
 10
5.03435
 20
10.5852
 30
0.0
 40
0.0104167
 41
0.0104167
  0
VERTEX
  8
0
 10
5.08479
 20
10.5852
 30
0.0
 40
0.0104167
 41
0.0104167
  0
VERTEX
  8
0
 10
5.08479
 20
11.4457
 30
0.0
 40
0.0104167
 41
0.0104167
  0
VERTEX
  8
0
 10
4.22428
 20
11.4457
 30
0.0
 40
0.0104167
 41
0.0104167
  0
SEQEND
 8
0
  0
POLYLINE
  8
0
 62
     0
 66
     1
 10
0
 20
0
 30
0.0
 70
     1
 40
0.75
 41
0.75
  0
VERTEX
  8
0
 10
4.22428
 20
11.779
 30
0.0
 40
0.0104167
 41
0.0104167
  0
VERTEX
  8
0
 10
4.22428
 20
11.8295
 30
0.0
 40
0.0104167
 41
0.0104167
  0
VERTEX
  8
0
 10
4.23768
 20
11.9807
 30
0.0
 40
0.0104167
 41
0.0104167
  0
VERTEX
  8
0
 10
4.27806
 20
12.1555
 30
0.0
 40
0.0104167
 41
0.0104167
  0
VERTEX
  8
0
 10
4.34526
 20
12.3034
 30
0.0
 40
0.0104167
 41
0.0104167
  0
VERTEX
  8
0
 10
4.4394
 20
12.4244
 30
0.0
 40
0.0104167
 41
0.0104167
  0
VERTEX
  8
0
 10
4.56039
 20
12.5186
 30
0.0
 40
0.0104167
 41
0.0104167
  0
VERTEX
  8
0
 10
4.70828
 20
12.5858
 30
0.0
 40
0.0104167
 41
0.0104167
  0
VERTEX
  8
0
 10
4.88308
 20
12.6261
 30
0.0
 40
0.0104167
 41
0.0104167
  0
VERTEX
  8
0
 10
5.03435
 20
12.6395
 30
0.0
 40
0.0104167
 41
0.0104167
  0
VERTEX
  8
0
 10
5.08479
 20
12.6395
 30
0.0
 40
0.0104167
 41
0.0104167
  0
VERTEX
  8
0
 10
5.08479
 20
11.779
 30
0.0
 40
0.0104167
 41
0.0104167
  0
VERTEX
  8
0
 10
4.22428
 20
11.779
 30
0.0
 40
0.0104167
 41
0.0104167
  0
SEQEND
 8
0
  0
POLYLINE
  8
0
 62
     7
 66
     1
 10
0
 20
0
 30
0.0
 70
     1
 40
0
 41
0
  0
VERTEX
  8
0
 10
2.23844
 20
11.779
 30
0.0
 40
0
 41
0
  0
VERTEX
  8
0
 10
4.20117
 20
11.779
 30
0.0
 40
0
 41
0
  0
VERTEX
  8
0
 10
4.20117
 20
11.4457
 30
0.0
 40
0
 41
0
  0
VERTEX
  8
0
 10
2.23844
 20
11.4457
 30
0.0
 40
0
 41
0
  0
VERTEX
  8
0
 10
2.23844
 20
11.779
 30
0.0
 40
0
 41
0
  0
SEQEND
 8
0
  0
POLYLINE
  8
0
 62
     0
 66
     1
 10
0
 20
0
 30
0.0
 70
     1
 40
0.75
 41
0.75
  0
VERTEX
  8
0
 10
2.23844
 20
11.779
 30
0.0
 40
0.0104167
 41
0.0104167
  0
VERTEX
  8
0
 10
4.20117
 20
11.779
 30
0.0
 40
0.0104167
 41
0.0104167
  0
VERTEX
  8
0
 10
4.20117
 20
11.4457
 30
0.0
 40
0.0104167
 41
0.0104167
  0
VERTEX
  8
0
 10
2.23844
 20
11.4457
 30
0.0
 40
0.0104167
 41
0.0104167
  0
VERTEX
  8
0
 10
2.23844
 20
11.779
 30
0.0
 40
0.0104167
 41
0.0104167
  0
SEQEND
 8
0
  0
POLYLINE
  8
0
 62
     7
 66
     1
 10
0
 20
0
 30
0.0
 70
     1
 40
0
 41
0
  0
VERTEX
  8
0
 10
2.23844
 20
11.779
 30
0.0
 40
0
 41
0
  0
VERTEX
  8
0
 10
4.20117
 20
11.779
 30
0.0
 40
0
 41
0
  0
VERTEX
  8
0
 10
4.20117
 20
11.4457
 30
0.0
 40
0
 41
0
  0
VERTEX
  8
0
 10
2.23844
 20
11.4457
 30
0.0
 40
0
 41
0
  0
VERTEX
  8
0
 10
2.23844
 20
11.779
 30
0.0
 40
0
 41
0
  0
SEQEND
 8
0
  0
POLYLINE
  8
0
 62
     0
 66
     1
 10
0
 20
0
 30
0.0
 70
     1
 40
0.75
 41
0.75
  0
VERTEX
  8
0
 10
2.23844
 20
11.779
 30
0.0
 40
0.0104167
 41
0.0104167
  0
VERTEX
  8
0
 10
4.20117
 20
11.779
 30
0.0
 40
0.0104167
 41
0.0104167
  0
VERTEX
  8
0
 10
4.20117
 20
11.4457
 30
0.0
 40
0.0104167
 41
0.0104167
  0
VERTEX
  8
0
 10
2.23844
 20
11.4457
 30
0.0
 40
0.0104167
 41
0.0104167
  0
VERTEX
  8
0
 10
2.23844
 20
11.779
 30
0.0
 40
0.0104167
 41
0.0104167
  0
SEQEND
 8
0
  0
POLYLINE
  8
0
 62
     0
 66
     1
 10
0
 20
0
 30
0.0
 40
0.75
 41
0.75
  0
VERTEX
  8
0
 10
2.31651
 20
11.6124
 30
0.0
 40
0.0104167
 41
0.0104167
  0
VERTEX
  8
0
 10
4.12299
 20
11.6124
 30
0.0
 40
0.0104167
 41
0.0104167
  0
SEQEND
 8
0
  0
POLYLINE
  8
0
 62
     0
 66
     1
 10
0
 20
0
 30
0.0
 40
0.75
 41
0.75
  0
VERTEX
  8
0
 10
2.31651
 20
11.4457
 30
0.0
 40
0.0104167
 41
0.0104167
  0
VERTEX
  8
0
 10
2.31651
 20
11.779
 30
0.0
 40
0.0104167
 41
0.0104167
  0
SEQEND
 8
0
  0
POLYLINE
  8
0
 62
     0
 66
     1
 10
0
 20
0
 30
0.0
 40
0.75
 41
0.75
  0
VERTEX
  8
0
 10
4.12299
 20
11.4457
 30
0.0
 40
0.0104167
 41
0.0104167
  0
VERTEX
  8
0
 10
4.12299
 20
11.779
 30
0.0
 40
0.0104167
 41
0.0104167
  0
SEQEND
 8
0
  0
POLYLINE
  8
0
 62
     7
 66
     1
 10
0
 20
0
 30
0.0
 70
     1
 40
0
 41
0
  0
VERTEX
  8
0
 10
1.91075
 20
11.779
 30
0.0
 40
0
 41
0
  0
VERTEX
  8
0
 10
2.23844
 20
11.779
 30
0.0
 40
0
 41
0
  0
VERTEX
  8
0
 10
2.23844
 20
11.4457
 30
0.0
 40
0
 41
0
  0
VERTEX
  8
0
 10
1.91075
 20
11.4457
 30
0.0
 40
0
 41
0
  0
VERTEX
  8
0
 10
1.91075
 20
11.779
 30
0.0
 40
0
 41
0
  0
SEQEND
 8
0
  0
POLYLINE
  8
0
 62
     0
 66
     1
 10
0
 20
0
 30
0.0
 70
     1
 40
0.75
 41
0.75
  0
VERTEX
  8
0
 10
1.91075
 20
11.779
 30
0.0
 40
0.0104167
 41
0.0104167
  0
VERTEX
  8
0
 10
2.23844
 20
11.779
 30
0.0
 40
0.0104167
 41
0.0104167
  0
VERTEX
  8
0
 10
2.23844
 20
11.4457
 30
0.0
 40
0.0104167
 41
0.0104167
  0
VERTEX
  8
0
 10
1.91075
 20
11.4457
 30
0.0
 40
0.0104167
 41
0.0104167
  0
VERTEX
  8
0
 10
1.91075
 20
11.779
 30
0.0
 40
0.0104167
 41
0.0104167
  0
SEQEND
 8
0
  0
POLYLINE
  8
0
 62
     7
 66
     1
 10
0
 20
0
 30
0.0
 70
     1
 40
0
 41
0
  0
VERTEX
  8
0
 10
1.91075
 20
11.779
 30
0.0
 40
0
 41
0
  0
VERTEX
  8
0
 10
2.23844
 20
11.779
 30
0.0
 40
0
 41
0
  0
VERTEX
  8
0
 10
2.23844
 20
11.4457
 30
0.0
 40
0
 41
0
  0
VERTEX
  8
0
 10
1.91075
 20
11.4457
 30
0.0
 40
0
 41
0
  0
VERTEX
  8
0
 10
1.91075
 20
11.779
 30
0.0
 40
0
 41
0
  0
SEQEND
 8
0
  0
POLYLINE
  8
0
 62
     0
 66
     1
 10
0
 20
0
 30
0.0
 70
     1
 40
0.75
 41
0.75
  0
VERTEX
  8
0
 10
1.91075
 20
11.779
 30
0.0
 40
0.0104167
 41
0.0104167
  0
VERTEX
  8
0
 10
2.23844
 20
11.779
 30
0.0
 40
0.0104167
 41
0.0104167
  0
VERTEX
  8
0
 10
2.23844
 20
11.4457
 30
0.0
 40
0.0104167
 41
0.0104167
  0
VERTEX
  8
0
 10
1.91075
 20
11.4457
 30
0.0
 40
0.0104167
 41
0.0104167
  0
VERTEX
  8
0
 10
1.91075
 20
11.779
 30
0.0
 40
0.0104167
 41
0.0104167
  0
SEQEND
 8
0
  0
POLYLINE
  8
0
 62
     0
 66
     1
 10
0
 20
0
 30
0.0
 40
0.75
 41
0.75
  0
VERTEX
  8
0
 10
1.98882
 20
11.6124
 30
0.0
 40
0.0104167
 41
0.0104167
  0
VERTEX
  8
0
 10
2.16026
 20
11.6124
 30
0.0
 40
0.0104167
 41
0.0104167
  0
SEQEND
 8
0
  0
POLYLINE
  8
0
 62
     0
 66
     1
 10
0
 20
0
 30
0.0
 40
0.75
 41
0.75
  0
VERTEX
  8
0
 10
1.98882
 20
11.4457
 30
0.0
 40
0.0104167
 41
0.0104167
  0
VERTEX
  8
0
 10
1.98882
 20
11.779
 30
0.0
 40
0.0104167
 41
0.0104167
  0
SEQEND
 8
0
  0
POLYLINE
  8
0
 62
     0
 66
     1
 10
0
 20
0
 30
0.0
 40
0.75
 41
0.75
  0
VERTEX
  8
0
 10
2.16026
 20
11.4457
 30
0.0
 40
0.0104167
 41
0.0104167
  0
VERTEX
  8
0
 10
2.16026
 20
11.779
 30
0.0
 40
0.0104167
 41
0.0104167
  0
SEQEND
 8
0
  0
POLYLINE
  8
0
 62
     7
 66
     1
 10
0
 20
0
 30
0.0
 70
     1
 40
0
 41
0
  0
VERTEX
  8
0
 10
7.20313
 20
11.779
 30
0.0
 40
0
 41
0
  0
VERTEX
  8
0
 10
7.55729
 20
11.779
 30
0.0
 40
0
 41
0
  0
VERTEX
  8
0
 10
7.55729
 20
11.4457
 30
0.0
 40
0
 41
0
  0
VERTEX
  8
0
 10
7.20313
 20
11.4457
 30
0.0
 40
0
 41
0
  0
VERTEX
  8
0
 10
7.20313
 20
11.779
 30
0.0
 40
0
 41
0
  0
SEQEND
 8
0
  0
POLYLINE
  8
0
 62
     0
 66
     1
 10
0
 20
0
 30
0.0
 70
     1
 40
0.75
 41
0.75
  0
VERTEX
  8
0
 10
7.20313
 20
11.779
 30
0.0
 40
0.0104167
 41
0.0104167
  0
VERTEX
  8
0
 10
7.55729
 20
11.779
 30
0.0
 40
0.0104167
 41
0.0104167
  0
VERTEX
  8
0
 10
7.55729
 20
11.4457
 30
0.0
 40
0.0104167
 41
0.0104167
  0
VERTEX
  8
0
 10
7.20313
 20
11.4457
 30
0.0
 40
0.0104167
 41
0.0104167
  0
VERTEX
  8
0
 10
7.20313
 20
11.779
 30
0.0
 40
0.0104167
 41
0.0104167
  0
SEQEND
 8
0
  0
POLYLINE
  8
0
 62
     7
 66
     1
 10
0
 20
0
 30
0.0
 70
     1
 40
0
 41
0
  0
VERTEX
  8
0
 10
7.20313
 20
11.779
 30
0.0
 40
0
 41
0
  0
VERTEX
  8
0
 10
7.55729
 20
11.779
 30
0.0
 40
0
 41
0
  0
VERTEX
  8
0
 10
7.55729
 20
11.4457
 30
0.0
 40
0
 41
0
  0
VERTEX
  8
0
 10
7.20313
 20
11.4457
 30
0.0
 40
0
 41
0
  0
VERTEX
  8
0
 10
7.20313
 20
11.779
 30
0.0
 40
0
 41
0
  0
SEQEND
 8
0
  0
POLYLINE
  8
0
 62
     0
 66
     1
 10
0
 20
0
 30
0.0
 70
     1
 40
0.75
 41
0.75
  0
VERTEX
  8
0
 10
7.20313
 20
11.779
 30
0.0
 40
0.0104167
 41
0.0104167
  0
VERTEX
  8
0
 10
7.55729
 20
11.779
 30
0.0
 40
0.0104167
 41
0.0104167
  0
VERTEX
  8
0
 10
7.55729
 20
11.4457
 30
0.0
 40
0.0104167
 41
0.0104167
  0
VERTEX
  8
0
 10
7.20313
 20
11.4457
 30
0.0
 40
0.0104167
 41
0.0104167
  0
VERTEX
  8
0
 10
7.20313
 20
11.779
 30
0.0
 40
0.0104167
 41
0.0104167
  0
SEQEND
 8
0
  0
POLYLINE
  8
0
 62
     0
 66
     1
 10
0
 20
0
 30
0.0
 40
0.75
 41
0.75
  0
VERTEX
  8
0
 10
7.28125
 20
11.6124
 30
0.0
 40
0.0104167
 41
0.0104167
  0
VERTEX
  8
0
 10
7.47917
 20
11.6124
 30
0.0
 40
0.0104167
 41
0.0104167
  0
SEQEND
 8
0
  0
POLYLINE
  8
0
 62
     0
 66
     1
 10
0
 20
0
 30
0.0
 40
0.75
 41
0.75
  0
VERTEX
  8
0
 10
7.28125
 20
11.4457
 30
0.0
 40
0.0104167
 41
0.0104167
  0
VERTEX
  8
0
 10
7.28125
 20
11.779
 30
0.0
 40
0.0104167
 41
0.0104167
  0
SEQEND
 8
0
  0
POLYLINE
  8
0
 62
     0
 66
     1
 10
0
 20
0
 30
0.0
 40
0.75
 41
0.75
  0
VERTEX
  8
0
 10
7.47917
 20
11.4457
 30
0.0
 40
0.0104167
 41
0.0104167
  0
VERTEX
  8
0
 10
7.47917
 20
11.779
 30
0.0
 40
0.0104167
 41
0.0104167
  0
SEQEND
 8
0
  0
POLYLINE
  8
0
 62
     7
 66
     1
 10
0
 20
0
 30
0.0
 70
     1
 40
0
 41
0
  0
VERTEX
  8
0
 10
5.65082
 20
11.779
 30
0.0
 40
0
 41
0
  0
VERTEX
  8
0
 10
7.20313
 20
11.779
 30
0.0
 40
0
 41
0
  0
VERTEX
  8
0
 10
7.20313
 20
11.4457
 30
0.0
 40
0
 41
0
  0
VERTEX
  8
0
 10
5.65082
 20
11.4457
 30
0.0
 40
0
 41
0
  0
VERTEX
  8
0
 10
5.65082
 20
11.779
 30
0.0
 40
0
 41
0
  0
SEQEND
 8
0
  0
POLYLINE
  8
0
 62
     0
 66
     1
 10
0
 20
0
 30
0.0
 70
     1
 40
0.75
 41
0.75
  0
VERTEX
  8
0
 10
5.65082
 20
11.779
 30
0.0
 40
0.0104167
 41
0.0104167
  0
VERTEX
  8
0
 10
7.20313
 20
11.779
 30
0.0
 40
0.0104167
 41
0.0104167
  0
VERTEX
  8
0
 10
7.20313
 20
11.4457
 30
0.0
 40
0.0104167
 41
0.0104167
  0
VERTEX
  8
0
 10
5.65082
 20
11.4457
 30
0.0
 40
0.0104167
 41
0.0104167
  0
VERTEX
  8
0
 10
5.65082
 20
11.779
 30
0.0
 40
0.0104167
 41
0.0104167
  0
SEQEND
 8
0
  0
POLYLINE
  8
0
 62
     7
 66
     1
 10
0
 20
0
 30
0.0
 70
     1
 40
0
 41
0
  0
VERTEX
  8
0
 10
5.65082
 20
11.779
 30
0.0
 40
0
 41
0
  0
VERTEX
  8
0
 10
7.20313
 20
11.779
 30
0.0
 40
0
 41
0
  0
VERTEX
  8
0
 10
7.20313
 20
11.4457
 30
0.0
 40
0
 41
0
  0
VERTEX
  8
0
 10
5.65082
 20
11.4457
 30
0.0
 40
0
 41
0
  0
VERTEX
  8
0
 10
5.65082
 20
11.779
 30
0.0
 40
0
 41
0
  0
SEQEND
 8
0
  0
POLYLINE
  8
0
 62
     0
 66
     1
 10
0
 20
0
 30
0.0
 70
     1
 40
0.75
 41
0.75
  0
VERTEX
  8
0
 10
5.65082
 20
11.779
 30
0.0
 40
0.0104167
 41
0.0104167
  0
VERTEX
  8
0
 10
7.20313
 20
11.779
 30
0.0
 40
0.0104167
 41
0.0104167
  0
VERTEX
  8
0
 10
7.20313
 20
11.4457
 30
0.0
 40
0.0104167
 41
0.0104167
  0
VERTEX
  8
0
 10
5.65082
 20
11.4457
 30
0.0
 40
0.0104167
 41
0.0104167
  0
VERTEX
  8
0
 10
5.65082
 20
11.779
 30
0.0
 40
0.0104167
 41
0.0104167
  0
SEQEND
 8
0
  0
POLYLINE
  8
0
 62
     0
 66
     1
 10
0
 20
0
 30
0.0
 40
0.75
 41
0.75
  0
VERTEX
  8
0
 10
5.72894
 20
11.6124
 30
0.0
 40
0.0104167
 41
0.0104167
  0
VERTEX
  8
0
 10
7.125
 20
11.6124
 30
0.0
 40
0.0104167
 41
0.0104167
  0
SEQEND
 8
0
  0
POLYLINE
  8
0
 62
     0
 66
     1
 10
0
 20
0
 30
0.0
 40
0.75
 41
0.75
  0
VERTEX
  8
0
 10
5.72894
 20
11.4457
 30
0.0
 40
0.0104167
 41
0.0104167
  0
VERTEX
  8
0
 10
5.72894
 20
11.779
 30
0.0
 40
0.0104167
 41
0.0104167
  0
SEQEND
 8
0
  0
POLYLINE
  8
0
 62
     0
 66
     1
 10
0
 20
0
 30
0.0
 40
0.75
 41
0.75
  0
VERTEX
  8
0
 10
7.125
 20
11.4457
 30
0.0
 40
0.0104167
 41
0.0104167
  0
VERTEX
  8
0
 10
7.125
 20
11.779
 30
0.0
 40
0.0104167
 41
0.0104167
  0
SEQEND
 8
0
  0
POLYLINE
  8
0
 62
     7
 66
     1
 10
0
 20
0
 30
0.0
 70
     1
 40
0
 41
0
  0
VERTEX
  8
0
 10
8.44428
 20
11.779
 30
0.0
 40
0
 41
0
  0
VERTEX
  8
0
 10
9.05333
 20
11.779
 30
0.0
 40
0
 41
0
  0
VERTEX
  8
0
 10
9.05333
 20
11.4457
 30
0.0
 40
0
 41
0
  0
VERTEX
  8
0
 10
8.44428
 20
11.4457
 30
0.0
 40
0
 41
0
  0
VERTEX
  8
0
 10
8.44428
 20
11.779
 30
0.0
 40
0
 41
0
  0
SEQEND
 8
0
  0
POLYLINE
  8
0
 62
     0
 66
     1
 10
0
 20
0
 30
0.0
 70
     1
 40
0.75
 41
0.75
  0
VERTEX
  8
0
 10
8.44428
 20
11.779
 30
0.0
 40
0.0104167
 41
0.0104167
  0
VERTEX
  8
0
 10
9.05333
 20
11.779
 30
0.0
 40
0.0104167
 41
0.0104167
  0
VERTEX
  8
0
 10
9.05333
 20
11.4457
 30
0.0
 40
0.0104167
 41
0.0104167
  0
VERTEX
  8
0
 10
8.44428
 20
11.4457
 30
0.0
 40
0.0104167
 41
0.0104167
  0
VERTEX
  8
0
 10
8.44428
 20
11.779
 30
0.0
 40
0.0104167
 41
0.0104167
  0
SEQEND
 8
0
  0
POLYLINE
  8
0
 62
     7
 66
     1
 10
0
 20
0
 30
0.0
 70
     1
 40
0
 41
0
  0
VERTEX
  8
0
 10
8.44428
 20
11.779
 30
0.0
 40
0
 41
0
  0
VERTEX
  8
0
 10
9.05333
 20
11.779
 30
0.0
 40
0
 41
0
  0
VERTEX
  8
0
 10
9.05333
 20
11.4457
 30
0.0
 40
0
 41
0
  0
VERTEX
  8
0
 10
8.44428
 20
11.4457
 30
0.0
 40
0
 41
0
  0
VERTEX
  8
0
 10
8.44428
 20
11.779
 30
0.0
 40
0
 41
0
  0
SEQEND
 8
0
  0
POLYLINE
  8
0
 62
     0
 66
     1
 10
0
 20
0
 30
0.0
 70
     1
 40
0.75
 41
0.75
  0
VERTEX
  8
0
 10
8.44428
 20
11.779
 30
0.0
 40
0.0104167
 41
0.0104167
  0
VERTEX
  8
0
 10
9.05333
 20
11.779
 30
0.0
 40
0.0104167
 41
0.0104167
  0
VERTEX
  8
0
 10
9.05333
 20
11.4457
 30
0.0
 40
0.0104167
 41
0.0104167
  0
VERTEX
  8
0
 10
8.44428
 20
11.4457
 30
0.0
 40
0.0104167
 41
0.0104167
  0
VERTEX
  8
0
 10
8.44428
 20
11.779
 30
0.0
 40
0.0104167
 41
0.0104167
  0
SEQEND
 8
0
  0
POLYLINE
  8
0
 62
     0
 66
     1
 10
0
 20
0
 30
0.0
 40
0.75
 41
0.75
  0
VERTEX
  8
0
 10
8.5224
 20
11.6124
 30
0.0
 40
0.0104167
 41
0.0104167
  0
VERTEX
  8
0
 10
8.97521
 20
11.6124
 30
0.0
 40
0.0104167
 41
0.0104167
  0
SEQEND
 8
0
  0
POLYLINE
  8
0
 62
     0
 66
     1
 10
0
 20
0
 30
0.0
 40
0.75
 41
0.75
  0
VERTEX
  8
0
 10
8.5224
 20
11.4457
 30
0.0
 40
0.0104167
 41
0.0104167
  0
VERTEX
  8
0
 10
8.5224
 20
11.779
 30
0.0
 40
0.0104167
 41
0.0104167
  0
SEQEND
 8
0
  0
POLYLINE
  8
0
 62
     0
 66
     1
 10
0
 20
0
 30
0.0
 40
0.75
 41
0.75
  0
VERTEX
  8
0
 10
8.97521
 20
11.4457
 30
0.0
 40
0.0104167
 41
0.0104167
  0
VERTEX
  8
0
 10
8.97521
 20
11.779
 30
0.0
 40
0.0104167
 41
0.0104167
  0
SEQEND
 8
0
  0
POLYLINE
  8
0
 62
     0
 66
     1
 10
0
 20
0
 30
0.0
 70
     1
 40
0
 41
0
  0
VERTEX
  8
0
 10
8.27061
 20
11.779
 30
0.0
 40
0
 41
0
  0
VERTEX
  8
0
 10
8.27061
 20
9.57269
 30
0.0
 40
0
 41
0
  0
VERTEX
  8
0
 10
8.41721
 20
9.72933
 30
0.0
 40
0
 41
0
  0
VERTEX
  8
0
 10
8.41721
 20
11.779
 30
0.0
 40
0
 41
0
  0
VERTEX
  8
0
 10
8.27061
 20
11.779
 30
0.0
 40
0
 41
0
  0
SEQEND
 8
0
  0
POLYLINE
  8
0
 62
     0
 66
     1
 10
0
 20
0
 30
0.0
 70
     1
 40
0.15
 41
0.15
  0
VERTEX
  8
0
 10
8.27061
 20
11.779
 30
0.0
 40
0.00208333
 41
0.00208333
  0
VERTEX
  8
0
 10
8.27061
 20
9.57269
 30
0.0
 40
0.00208333
 41
0.00208333
  0
VERTEX
  8
0
 10
8.41721
 20
9.72933
 30
0.0
 40
0.00208333
 41
0.00208333
  0
VERTEX
  8
0
 10
8.41721
 20
11.779
 30
0.0
 40
0.00208333
 41
0.00208333
  0
VERTEX
  8
0
 10
8.27061
 20
11.779
 30
0.0
 40
0.00208333
 41
0.00208333
  0
SEQEND
 8
0
  0
POLYLINE
  8
0
 62
     0
 66
     1
 10
0
 20
0
 30
0.0
 70
     1
 40
0
 41
0
  0
VERTEX
  8
0
 10
8.27061
 20
9.57269
 30
0.0
 40
0
 41
0
  0
VERTEX
  8
0
 10
10.587
 20
9.57269
 30
0.0
 40
0
 41
0
  0
VERTEX
  8
0
 10
10.587
 20
9.72933
 30
0.0
 40
0
 41
0
  0
VERTEX
  8
0
 10
8.41721
 20
9.72933
 30
0.0
 40
0
 41
0
  0
VERTEX
  8
0
 10
8.27061
 20
9.57269
 30
0.0
 40
0
 41
0
  0
SEQEND
 8
0
  0
POLYLINE
  8
0
 62
     0
 66
     1
 10
0
 20
0
 30
0.0
 70
     1
 40
0.15
 41
0.15
  0
VERTEX
  8
0
 10
8.27061
 20
9.57269
 30
0.0
 40
0.00208333
 41
0.00208333
  0
VERTEX
  8
0
 10
10.587
 20
9.57269
 30
0.0
 40
0.00208333
 41
0.00208333
  0
VERTEX
  8
0
 10
10.587
 20
9.72933
 30
0.0
 40
0.00208333
 41
0.00208333
  0
VERTEX
  8
0
 10
8.41721
 20
9.72933
 30
0.0
 40
0.00208333
 41
0.00208333
  0
VERTEX
  8
0
 10
8.27061
 20
9.57269
 30
0.0
 40
0.00208333
 41
0.00208333
  0
SEQEND
 8
0
  0
POLYLINE
  8
0
 62
     7
 66
     1
 10
0
 20
0
 30
0.0
 70
     1
 40
0
 41
0
  0
VERTEX
  8
0
 10
8.46989
 20
9.72933
 30
0.0
 40
0
 41
0
  0
VERTEX
  8
0
 10
9.11404
 20
9.72933
 30
0.0
 40
0
 41
0
  0
VERTEX
  8
0
 10
9.11404
 20
9.57269
 30
0.0
 40
0
 41
0
  0
VERTEX
  8
0
 10
8.46989
 20
9.57269
 30
0.0
 40
0
 41
0
  0
VERTEX
  8
0
 10
8.46989
 20
9.72933
 30
0.0
 40
0
 41
0
  0
SEQEND
 8
0
  0
POLYLINE
  8
0
 62
     0
 66
     1
 10
0
 20
0
 30
0.0
 70
     1
 40
0.75
 41
0.75
  0
VERTEX
  8
0
 10
8.46989
 20
9.72933
 30
0.0
 40
0.0104167
 41
0.0104167
  0
VERTEX
  8
0
 10
9.11404
 20
9.72933
 30
0.0
 40
0.0104167
 41
0.0104167
  0
VERTEX
  8
0
 10
9.11404
 20
9.57269
 30
0.0
 40
0.0104167
 41
0.0104167
  0
VERTEX
  8
0
 10
8.46989
 20
9.57269
 30
0.0
 40
0.0104167
 41
0.0104167
  0
VERTEX
  8
0
 10
8.46989
 20
9.72933
 30
0.0
 40
0.0104167
 41
0.0104167
  0
SEQEND
 8
0
  0
POLYLINE
  8
0
 62
     7
 66
     1
 10
0
 20
0
 30
0.0
 70
     1
 40
0
 41
0
  0
VERTEX
  8
0
 10
8.46989
 20
9.72933
 30
0.0
 40
0
 41
0
  0
VERTEX
  8
0
 10
9.11404
 20
9.72933
 30
0.0
 40
0
 41
0
  0
VERTEX
  8
0
 10
9.11404
 20
9.57269
 30
0.0
 40
0
 41
0
  0
VERTEX
  8
0
 10
8.46989
 20
9.57269
 30
0.0
 40
0
 41
0
  0
VERTEX
  8
0
 10
8.46989
 20
9.72933
 30
0.0
 40
0
 41
0
  0
SEQEND
 8
0
  0
POLYLINE
  8
0
 62
     0
 66
     1
 10
0
 20
0
 30
0.0
 70
     1
 40
0.75
 41
0.75
  0
VERTEX
  8
0
 10
8.46989
 20
9.72933
 30
0.0
 40
0.0104167
 41
0.0104167
  0
VERTEX
  8
0
 10
9.11404
 20
9.72933
 30
0.0
 40
0.0104167
 41
0.0104167
  0
VERTEX
  8
0
 10
9.11404
 20
9.57269
 30
0.0
 40
0.0104167
 41
0.0104167
  0
VERTEX
  8
0
 10
8.46989
 20
9.57269
 30
0.0
 40
0.0104167
 41
0.0104167
  0
VERTEX
  8
0
 10
8.46989
 20
9.72933
 30
0.0
 40
0.0104167
 41
0.0104167
  0
SEQEND
 8
0
  0
POLYLINE
  8
0
 62
     0
 66
     1
 10
0
 20
0
 30
0.0
 70
     1
 40
0.75
 41
0.75
  0
VERTEX
  8
0
 10
9.11404
 20
9.57269
 30
0.0
 40
0.0104167
 41
0.0104167
  0
VERTEX
  8
0
 10
9.11404
 20
9.535
 30
0.0
 40
0.0104167
 41
0.0104167
  0
VERTEX
  8
0
 10
9.10394
 20
9.42176
 30
0.0
 40
0.0104167
 41
0.0104167
  0
VERTEX
  8
0
 10
9.07379
 20
9.2909
 30
0.0
 40
0.0104167
 41
0.0104167
  0
VERTEX
  8
0
 10
9.02344
 20
9.18018
 30
0.0
 40
0.0104167
 41
0.0104167
  0
VERTEX
  8
0
 10
8.95301
 20
9.08957
 30
0.0
 40
0.0104167
 41
0.0104167
  0
VERTEX
  8
0
 10
8.86242
 20
9.0191
 30
0.0
 40
0.0104167
 41
0.0104167
  0
VERTEX
  8
0
 10
8.75168
 20
8.96881
 30
0.0
 40
0.0104167
 41
0.0104167
  0
VERTEX
  8
0
 10
8.62082
 20
8.93858
 30
0.0
 40
0.0104167
 41
0.0104167
  0
VERTEX
  8
0
 10
8.5076
 20
8.9285
 30
0.0
 40
0.0104167
 41
0.0104167
  0
VERTEX
  8
0
 10
8.46989
 20
8.9285
 30
0.0
 40
0.0104167
 41
0.0104167
  0
VERTEX
  8
0
 10
8.46989
 20
9.57269
 30
0.0
 40
0.0104167
 41
0.0104167
  0
VERTEX
  8
0
 10
9.11404
 20
9.57269
 30
0.0
 40
0.0104167
 41
0.0104167
  0
SEQEND
 8
0
  0
POLYLINE
  8
0
 62
     0
 66
     1
 10
0
 20
0
 30
0.0
 70
     1
 40
0
 41
0
  0
VERTEX
  8
0
 10
10.587
 20
5.81131
 30
0.0
 40
0
 41
0
  0
VERTEX
  8
0
 10
6.03543
 20
5.81131
 30
0.0
 40
0
 41
0
  0
VERTEX
  8
0
 10
6.1396
 20
5.70714
 30
0.0
 40
0
 41
0
  0
VERTEX
  8
0
 10
10.587
 20
5.70714
 30
0.0
 40
0
 41
0
  0
VERTEX
  8
0
 10
10.587
 20
5.81131
 30
0.0
 40
0
 41
0
  0
SEQEND
 8
0
  0
POLYLINE
  8
0
 62
     0
 66
     1
 10
0
 20
0
 30
0.0
 70
     1
 40
0.15
 41
0.15
  0
VERTEX
  8
0
 10
10.587
 20
5.81131
 30
0.0
 40
0.00208333
 41
0.00208333
  0
VERTEX
  8
0
 10
6.03543
 20
5.81131
 30
0.0
 40
0.00208333
 41
0.00208333
  0
VERTEX
  8
0
 10
6.1396
 20
5.70714
 30
0.0
 40
0.00208333
 41
0.00208333
  0
VERTEX
  8
0
 10
10.587
 20
5.70714
 30
0.0
 40
0.00208333
 41
0.00208333
  0
VERTEX
  8
0
 10
10.587
 20
5.81131
 30
0.0
 40
0.00208333
 41
0.00208333
  0
SEQEND
 8
0
  0
POLYLINE
  8
0
 62
     7
 66
     1
 10
0
 20
0
 30
0.0
 70
     1
 40
0
 41
0
  0
VERTEX
  8
0
 10
6.81332
 20
5.81131
 30
0.0
 40
0
 41
0
  0
VERTEX
  8
0
 10
7.66374
 20
5.81131
 30
0.0
 40
0
 41
0
  0
VERTEX
  8
0
 10
7.66374
 20
5.70714
 30
0.0
 40
0
 41
0
  0
VERTEX
  8
0
 10
6.81332
 20
5.70714
 30
0.0
 40
0
 41
0
  0
VERTEX
  8
0
 10
6.81332
 20
5.81131
 30
0.0
 40
0
 41
0
  0
SEQEND
 8
0
  0
POLYLINE
  8
0
 62
     0
 66
     1
 10
0
 20
0
 30
0.0
 70
     1
 40
0.75
 41
0.75
  0
VERTEX
  8
0
 10
6.81332
 20
5.81131
 30
0.0
 40
0.0104167
 41
0.0104167
  0
VERTEX
  8
0
 10
7.66374
 20
5.81131
 30
0.0
 40
0.0104167
 41
0.0104167
  0
VERTEX
  8
0
 10
7.66374
 20
5.70714
 30
0.0
 40
0.0104167
 41
0.0104167
  0
VERTEX
  8
0
 10
6.81332
 20
5.70714
 30
0.0
 40
0.0104167
 41
0.0104167
  0
VERTEX
  8
0
 10
6.81332
 20
5.81131
 30
0.0
 40
0.0104167
 41
0.0104167
  0
SEQEND
 8
0
  0
POLYLINE
  8
0
 62
     7
 66
     1
 10
0
 20
0
 30
0.0
 70
     1
 40
0
 41
0
  0
VERTEX
  8
0
 10
6.81332
 20
5.81131
 30
0.0
 40
0
 41
0
  0
VERTEX
  8
0
 10
7.66374
 20
5.81131
 30
0.0
 40
0
 41
0
  0
VERTEX
  8
0
 10
7.66374
 20
5.70714
 30
0.0
 40
0
 41
0
  0
VERTEX
  8
0
 10
6.81332
 20
5.70714
 30
0.0
 40
0
 41
0
  0
VERTEX
  8
0
 10
6.81332
 20
5.81131
 30
0.0
 40
0
 41
0
  0
SEQEND
 8
0
  0
POLYLINE
  8
0
 62
     0
 66
     1
 10
0
 20
0
 30
0.0
 70
     1
 40
0.75
 41
0.75
  0
VERTEX
  8
0
 10
6.81332
 20
5.81131
 30
0.0
 40
0.0104167
 41
0.0104167
  0
VERTEX
  8
0
 10
7.66374
 20
5.81131
 30
0.0
 40
0.0104167
 41
0.0104167
  0
VERTEX
  8
0
 10
7.66374
 20
5.70714
 30
0.0
 40
0.0104167
 41
0.0104167
  0
VERTEX
  8
0
 10
6.81332
 20
5.70714
 30
0.0
 40
0.0104167
 41
0.0104167
  0
VERTEX
  8
0
 10
6.81332
 20
5.81131
 30
0.0
 40
0.0104167
 41
0.0104167
  0
SEQEND
 8
0
  0
POLYLINE
  8
0
 62
     0
 66
     1
 10
0
 20
0
 30
0.0
 70
     1
 40
0.75
 41
0.75
  0
VERTEX
  8
0
 10
7.66374
 20
5.70714
 30
0.0
 40
0.0104167
 41
0.0104167
  0
VERTEX
  8
0
 10
7.66374
 20
5.65733
 30
0.0
 40
0.0104167
 41
0.0104167
  0
VERTEX
  8
0
 10
7.65044
 20
5.50782
 30
0.0
 40
0.0104167
 41
0.0104167
  0
VERTEX
  8
0
 10
7.61057
 20
5.33507
 30
0.0
 40
0.0104167
 41
0.0104167
  0
VERTEX
  8
0
 10
7.54411
 20
5.18886
 30
0.0
 40
0.0104167
 41
0.0104167
  0
VERTEX
  8
0
 10
7.45111
 20
5.06928
 30
0.0
 40
0.0104167
 41
0.0104167
  0
VERTEX
  8
0
 10
7.33149
 20
4.97624
 30
0.0
 40
0.0104167
 41
0.0104167
  0
VERTEX
  8
0
 10
7.18528
 20
4.90978
 30
0.0
 40
0.0104167
 41
0.0104167
  0
VERTEX
  8
0
 10
7.01253
 20
4.8699
 30
0.0
 40
0.0104167
 41
0.0104167
  0
VERTEX
  8
0
 10
6.86301
 20
4.85661
 30
0.0
 40
0.0104167
 41
0.0104167
  0
VERTEX
  8
0
 10
6.81321
 20
4.85661
 30
0.0
 40
0.0104167
 41
0.0104167
  0
VERTEX
  8
0
 10
6.81321
 20
5.70714
 30
0.0
 40
0.0104167
 41
0.0104167
  0
VERTEX
  8
0
 10
7.66374
 20
5.70714
 30
0.0
 40
0.0104167
 41
0.0104167
  0
SEQEND
 8
0
  0
POLYLINE
  8
0
 62
     0
 66
     1
 10
0
 20
0
 30
0.0
 70
     1
 40
0
 41
0
  0
VERTEX
  8
0
 10
6.03543
 20
5.81131
 30
0.0
 40
0
 41
0
  0
VERTEX
  8
0
 10
6.03543
 20
1.71121
 30
0.0
 40
0
 41
0
  0
VERTEX
  8
0
 10
6.1396
 20
1.71121
 30
0.0
 40
0
 41
0
  0
VERTEX
  8
0
 10
6.1396
 20
5.70714
 30
0.0
 40
0
 41
0
  0
VERTEX
  8
0
 10
6.03543
 20
5.81131
 30
0.0
 40
0
 41
0
  0
SEQEND
 8
0
  0
POLYLINE
  8
0
 62
     0
 66
     1
 10
0
 20
0
 30
0.0
 70
     1
 40
0.15
 41
0.15
  0
VERTEX
  8
0
 10
6.03543
 20
5.81131
 30
0.0
 40
0.00208333
 41
0.00208333
  0
VERTEX
  8
0
 10
6.03543
 20
1.71121
 30
0.0
 40
0.00208333
 41
0.00208333
  0
VERTEX
  8
0
 10
6.1396
 20
1.71121
 30
0.0
 40
0.00208333
 41
0.00208333
  0
VERTEX
  8
0
 10
6.1396
 20
5.70714
 30
0.0
 40
0.00208333
 41
0.00208333
  0
VERTEX
  8
0
 10
6.03543
 20
5.81131
 30
0.0
 40
0.00208333
 41
0.00208333
  0
SEQEND
 8
0
  0
POLYLINE
  8
0
 62
     0
 66
     1
 10
0
 20
0
 30
0.0
 70
     1
 40
0
 41
0
  0
VERTEX
  8
0
 10
0.630208
 20
7.04807
 30
0.0
 40
0
 41
0
  0
VERTEX
  8
0
 10
4.07178
 20
7.04807
 30
0.0
 40
0
 41
0
  0
VERTEX
  8
0
 10
4.17594
 20
7.15224
 30
0.0
 40
0
 41
0
  0
VERTEX
  8
0
 10
0.630208
 20
7.15224
 30
0.0
 40
0
 41
0
  0
VERTEX
  8
0
 10
0.630208
 20
7.04807
 30
0.0
 40
0
 41
0
  0
SEQEND
 8
0
  0
POLYLINE
  8
0
 62
     0
 66
     1
 10
0
 20
0
 30
0.0
 70
     1
 40
0.15
 41
0.15
  0
VERTEX
  8
0
 10
0.630208
 20
7.04807
 30
0.0
 40
0.00208333
 41
0.00208333
  0
VERTEX
  8
0
 10
4.07178
 20
7.04807
 30
0.0
 40
0.00208333
 41
0.00208333
  0
VERTEX
  8
0
 10
4.17594
 20
7.15224
 30
0.0
 40
0.00208333
 41
0.00208333
  0
VERTEX
  8
0
 10
0.630208
 20
7.15224
 30
0.0
 40
0.00208333
 41
0.00208333
  0
VERTEX
  8
0
 10
0.630208
 20
7.04807
 30
0.0
 40
0.00208333
 41
0.00208333
  0
SEQEND
 8
0
  0
POLYLINE
  8
0
 62
     0
 66
     1
 10
0
 20
0
 30
0.0
 70
     1
 40
0
 41
0
  0
VERTEX
  8
0
 10
4.07178
 20
7.04807
 30
0.0
 40
0
 41
0
  0
VERTEX
  8
0
 10
4.07178
 20
1.71121
 30
0.0
 40
0
 41
0
  0
VERTEX
  8
0
 10
4.17594
 20
1.71121
 30
0.0
 40
0
 41
0
  0
VERTEX
  8
0
 10
4.17594
 20
7.15224
 30
0.0
 40
0
 41
0
  0
VERTEX
  8
0
 10
4.07178
 20
7.04807
 30
0.0
 40
0
 41
0
  0
SEQEND
 8
0
  0
POLYLINE
  8
0
 62
     0
 66
     1
 10
0
 20
0
 30
0.0
 70
     1
 40
0.15
 41
0.15
  0
VERTEX
  8
0
 10
4.07178
 20
7.04807
 30
0.0
 40
0.00208333
 41
0.00208333
  0
VERTEX
  8
0
 10
4.07178
 20
1.71121
 30
0.0
 40
0.00208333
 41
0.00208333
  0
VERTEX
  8
0
 10
4.17594
 20
1.71121
 30
0.0
 40
0.00208333
 41
0.00208333
  0
VERTEX
  8
0
 10
4.17594
 20
7.15224
 30
0.0
 40
0.00208333
 41
0.00208333
  0
VERTEX
  8
0
 10
4.07178
 20
7.04807
 30
0.0
 40
0.00208333
 41
0.00208333
  0
SEQEND
 8
0
  0
POLYLINE
  8
0
 62
     7
 66
     1
 10
0
 20
0
 30
0.0
 70
     1
 40
0
 41
0
  0
VERTEX
  8
0
 10
4.07178
 20
5.65608
 30
0.0
 40
0
 41
0
  0
VERTEX
  8
0
 10
4.17594
 20
5.65608
 30
0.0
 40
0
 41
0
  0
VERTEX
  8
0
 10
4.17594
 20
4.79796
 30
0.0
 40
0
 41
0
  0
VERTEX
  8
0
 10
4.07178
 20
4.79796
 30
0.0
 40
0
 41
0
  0
VERTEX
  8
0
 10
4.07178
 20
5.65608
 30
0.0
 40
0
 41
0
  0
SEQEND
 8
0
  0
POLYLINE
  8
0
 62
     0
 66
     1
 10
0
 20
0
 30
0.0
 70
     1
 40
0.75
 41
0.75
  0
VERTEX
  8
0
 10
4.07178
 20
5.65608
 30
0.0
 40
0.0104167
 41
0.0104167
  0
VERTEX
  8
0
 10
4.17594
 20
5.65608
 30
0.0
 40
0.0104167
 41
0.0104167
  0
VERTEX
  8
0
 10
4.17594
 20
4.79796
 30
0.0
 40
0.0104167
 41
0.0104167
  0
VERTEX
  8
0
 10
4.07178
 20
4.79796
 30
0.0
 40
0.0104167
 41
0.0104167
  0
VERTEX
  8
0
 10
4.07178
 20
5.65608
 30
0.0
 40
0.0104167
 41
0.0104167
  0
SEQEND
 8
0
  0
POLYLINE
  8
0
 62
     7
 66
     1
 10
0
 20
0
 30
0.0
 70
     1
 40
0
 41
0
  0
VERTEX
  8
0
 10
4.07178
 20
5.65608
 30
0.0
 40
0
 41
0
  0
VERTEX
  8
0
 10
4.17594
 20
5.65608
 30
0.0
 40
0
 41
0
  0
VERTEX
  8
0
 10
4.17594
 20
4.79796
 30
0.0
 40
0
 41
0
  0
VERTEX
  8
0
 10
4.07178
 20
4.79796
 30
0.0
 40
0
 41
0
  0
VERTEX
  8
0
 10
4.07178
 20
5.65608
 30
0.0
 40
0
 41
0
  0
SEQEND
 8
0
  0
POLYLINE
  8
0
 62
     0
 66
     1
 10
0
 20
0
 30
0.0
 70
     1
 40
0.75
 41
0.75
  0
VERTEX
  8
0
 10
4.07178
 20
5.65608
 30
0.0
 40
0.0104167
 41
0.0104167
  0
VERTEX
  8
0
 10
4.17594
 20
5.65608
 30
0.0
 40
0.0104167
 41
0.0104167
  0
VERTEX
  8
0
 10
4.17594
 20
4.79796
 30
0.0
 40
0.0104167
 41
0.0104167
  0
VERTEX
  8
0
 10
4.07178
 20
4.79796
 30
0.0
 40
0.0104167
 41
0.0104167
  0
VERTEX
  8
0
 10
4.07178
 20
5.65608
 30
0.0
 40
0.0104167
 41
0.0104167
  0
SEQEND
 8
0
  0
POLYLINE
  8
0
 62
     0
 66
     1
 10
0
 20
0
 30
0.0
 70
     1
 40
0.75
 41
0.75
  0
VERTEX
  8
0
 10
4.07178
 20
4.79796
 30
0.0
 40
0.0104167
 41
0.0104167
  0
VERTEX
  8
0
 10
4.02149
 20
4.79796
 30
0.0
 40
0.0104167
 41
0.0104167
  0
VERTEX
  8
0
 10
3.87061
 20
4.81142
 30
0.0
 40
0.0104167
 41
0.0104167
  0
VERTEX
  8
0
 10
3.69629
 20
4.85161
 30
0.0
 40
0.0104167
 41
0.0104167
  0
VERTEX
  8
0
 10
3.54883
 20
4.91868
 30
0.0
 40
0.0104167
 41
0.0104167
  0
VERTEX
  8
0
 10
3.42817
 20
5.01253
 30
0.0
 40
0.0104167
 41
0.0104167
  0
VERTEX
  8
0
 10
3.33431
 20
5.13319
 30
0.0
 40
0.0104167
 41
0.0104167
  0
VERTEX
  8
0
 10
3.26725
 20
5.28071
 30
0.0
 40
0.0104167
 41
0.0104167
  0
VERTEX
  8
0
 10
3.22706
 20
5.45503
 30
0.0
 40
0.0104167
 41
0.0104167
  0
VERTEX
  8
0
 10
3.21365
 20
5.60585
 30
0.0
 40
0.0104167
 41
0.0104167
  0
VERTEX
  8
0
 10
3.21365
 20
5.65608
 30
0.0
 40
0.0104167
 41
0.0104167
  0
VERTEX
  8
0
 10
4.07178
 20
5.65608
 30
0.0
 40
0.0104167
 41
0.0104167
  0
VERTEX
  8
0
 10
4.07178
 20
4.79796
 30
0.0
 40
0.0104167
 41
0.0104167
  0
SEQEND
 8
0
  0
POLYLINE
  8
0
 62
     7
 66
     1
 10
0
 20
0
 30
0.0
 70
     1
 40
0
 41
0
  0
VERTEX
  8
0
 10
4.07178
 20
7.009
 30
0.0
 40
0
 41
0
  0
VERTEX
  8
0
 10
4.17594
 20
7.009
 30
0.0
 40
0
 41
0
  0
VERTEX
  8
0
 10
4.17594
 20
6.33132
 30
0.0
 40
0
 41
0
  0
VERTEX
  8
0
 10
4.07178
 20
6.33132
 30
0.0
 40
0
 41
0
  0
VERTEX
  8
0
 10
4.07178
 20
7.009
 30
0.0
 40
0
 41
0
  0
SEQEND
 8
0
  0
POLYLINE
  8
0
 62
     0
 66
     1
 10
0
 20
0
 30
0.0
 70
     1
 40
0.75
 41
0.75
  0
VERTEX
  8
0
 10
4.07178
 20
7.009
 30
0.0
 40
0.0104167
 41
0.0104167
  0
VERTEX
  8
0
 10
4.17594
 20
7.009
 30
0.0
 40
0.0104167
 41
0.0104167
  0
VERTEX
  8
0
 10
4.17594
 20
6.33132
 30
0.0
 40
0.0104167
 41
0.0104167
  0
VERTEX
  8
0
 10
4.07178
 20
6.33132
 30
0.0
 40
0.0104167
 41
0.0104167
  0
VERTEX
  8
0
 10
4.07178
 20
7.009
 30
0.0
 40
0.0104167
 41
0.0104167
  0
SEQEND
 8
0
  0
POLYLINE
  8
0
 62
     7
 66
     1
 10
0
 20
0
 30
0.0
 70
     1
 40
0
 41
0
  0
VERTEX
  8
0
 10
4.07178
 20
7.009
 30
0.0
 40
0
 41
0
  0
VERTEX
  8
0
 10
4.17594
 20
7.009
 30
0.0
 40
0
 41
0
  0
VERTEX
  8
0
 10
4.17594
 20
6.33132
 30
0.0
 40
0
 41
0
  0
VERTEX
  8
0
 10
4.07178
 20
6.33132
 30
0.0
 40
0
 41
0
  0
VERTEX
  8
0
 10
4.07178
 20
7.009
 30
0.0
 40
0
 41
0
  0
SEQEND
 8
0
  0
POLYLINE
  8
0
 62
     0
 66
     1
 10
0
 20
0
 30
0.0
 70
     1
 40
0.75
 41
0.75
  0
VERTEX
  8
0
 10
4.07178
 20
7.009
 30
0.0
 40
0.0104167
 41
0.0104167
  0
VERTEX
  8
0
 10
4.17594
 20
7.009
 30
0.0
 40
0.0104167
 41
0.0104167
  0
VERTEX
  8
0
 10
4.17594
 20
6.33132
 30
0.0
 40
0.0104167
 41
0.0104167
  0
VERTEX
  8
0
 10
4.07178
 20
6.33132
 30
0.0
 40
0.0104167
 41
0.0104167
  0
VERTEX
  8
0
 10
4.07178
 20
7.009
 30
0.0
 40
0.0104167
 41
0.0104167
  0
SEQEND
 8
0
  0
POLYLINE
  8
0
 62
     0
 66
     1
 10
0
 20
0
 30
0.0
 70
     1
 40
0.75
 41
0.75
  0
VERTEX
  8
0
 10
4.17594
 20
6.33132
 30
0.0
 40
0.0104167
 41
0.0104167
  0
VERTEX
  8
0
 10
4.21565
 20
6.33132
 30
0.0
 40
0.0104167
 41
0.0104167
  0
VERTEX
  8
0
 10
4.33479
 20
6.34196
 30
0.0
 40
0.0104167
 41
0.0104167
  0
VERTEX
  8
0
 10
4.47244
 20
6.37369
 30
0.0
 40
0.0104167
 41
0.0104167
  0
VERTEX
  8
0
 10
4.58897
 20
6.42665
 30
0.0
 40
0.0104167
 41
0.0104167
  0
VERTEX
  8
0
 10
4.68425
 20
6.50082
 30
0.0
 40
0.0104167
 41
0.0104167
  0
VERTEX
  8
0
 10
4.7584
 20
6.59608
 30
0.0
 40
0.0104167
 41
0.0104167
  0
VERTEX
  8
0
 10
4.81136
 20
6.71262
 30
0.0
 40
0.0104167
 41
0.0104167
  0
VERTEX
  8
0
 10
4.8431
 20
6.85026
 30
0.0
 40
0.0104167
 41
0.0104167
  0
VERTEX
  8
0
 10
4.85374
 20
6.9694
 30
0.0
 40
0.0104167
 41
0.0104167
  0
VERTEX
  8
0
 10
4.85374
 20
7.00911
 30
0.0
 40
0.0104167
 41
0.0104167
  0
VERTEX
  8
0
 10
4.17594
 20
7.00911
 30
0.0
 40
0.0104167
 41
0.0104167
  0
VERTEX
  8
0
 10
4.17594
 20
6.33132
 30
0.0
 40
0.0104167
 41
0.0104167
  0
SEQEND
 8
0
  0
POLYLINE
  8
0
 62
     0
 66
     1
 10
0
 20
0
 30
0.0
 70
     1
 40
0
 41
0
  0
VERTEX
  8
0
 10
0.630208
 20
5.81131
 30
0.0
 40
0
 41
0
  0
VERTEX
  8
0
 10
4.17594
 20
5.81131
 30
0.0
 40
0
 41
0
  0
VERTEX
  8
0
 10
4.17594
 20
5.70714
 30
0.0
 40
0
 41
0
  0
VERTEX
  8
0
 10
0.630208
 20
5.70714
 30
0.0
 40
0
 41
0
  0
VERTEX
  8
0
 10
0.630208
 20
5.81131
 30
0.0
 40
0
 41
0
  0
SEQEND
 8
0
  0
POLYLINE
  8
0
 62
     0
 66
     1
 10
0
 20
0
 30
0.0
 70
     1
 40
0.15
 41
0.15
  0
VERTEX
  8
0
 10
0.630208
 20
5.81131
 30
0.0
 40
0.00208333
 41
0.00208333
  0
VERTEX
  8
0
 10
4.17594
 20
5.81131
 30
0.0
 40
0.00208333
 41
0.00208333
  0
VERTEX
  8
0
 10
4.17594
 20
5.70714
 30
0.0
 40
0.00208333
 41
0.00208333
  0
VERTEX
  8
0
 10
0.630208
 20
5.70714
 30
0.0
 40
0.00208333
 41
0.00208333
  0
VERTEX
  8
0
 10
0.630208
 20
5.81131
 30
0.0
 40
0.00208333
 41
0.00208333
  0
SEQEND
 8
0
  0
POLYLINE
  8
0
 62
     7
 66
     1
 10
0
 20
0
 30
0.0
 70
     1
 40
0
 41
0
  0
VERTEX
  8
0
 10
1.79101
 20
5.81131
 30
0.0
 40
0
 41
0
  0
VERTEX
  8
0
 10
2.45492
 20
5.81131
 30
0.0
 40
0
 41
0
  0
VERTEX
  8
0
 10
2.45492
 20
5.70714
 30
0.0
 40
0
 41
0
  0
VERTEX
  8
0
 10
1.79101
 20
5.70714
 30
0.0
 40
0
 41
0
  0
VERTEX
  8
0
 10
1.79101
 20
5.81131
 30
0.0
 40
0
 41
0
  0
SEQEND
 8
0
  0
POLYLINE
  8
0
 62
     0
 66
     1
 10
0
 20
0
 30
0.0
 70
     1
 40
0.75
 41
0.75
  0
VERTEX
  8
0
 10
1.79101
 20
5.81131
 30
0.0
 40
0.0104167
 41
0.0104167
  0
VERTEX
  8
0
 10
2.45492
 20
5.81131
 30
0.0
 40
0.0104167
 41
0.0104167
  0
VERTEX
  8
0
 10
2.45492
 20
5.70714
 30
0.0
 40
0.0104167
 41
0.0104167
  0
VERTEX
  8
0
 10
1.79101
 20
5.70714
 30
0.0
 40
0.0104167
 41
0.0104167
  0
VERTEX
  8
0
 10
1.79101
 20
5.81131
 30
0.0
 40
0.0104167
 41
0.0104167
  0
SEQEND
 8
0
  0
POLYLINE
  8
0
 62
     7
 66
     1
 10
0
 20
0
 30
0.0
 70
     1
 40
0
 41
0
  0
VERTEX
  8
0
 10
1.79101
 20
5.81131
 30
0.0
 40
0
 41
0
  0
VERTEX
  8
0
 10
2.45492
 20
5.81131
 30
0.0
 40
0
 41
0
  0
VERTEX
  8
0
 10
2.45492
 20
5.70714
 30
0.0
 40
0
 41
0
  0
VERTEX
  8
0
 10
1.79101
 20
5.70714
 30
0.0
 40
0
 41
0
  0
VERTEX
  8
0
 10
1.79101
 20
5.81131
 30
0.0
 40
0
 41
0
  0
SEQEND
 8
0
  0
POLYLINE
  8
0
 62
     0
 66
     1
 10
0
 20
0
 30
0.0
 70
     1
 40
0.75
 41
0.75
  0
VERTEX
  8
0
 10
1.79101
 20
5.81131
 30
0.0
 40
0.0104167
 41
0.0104167
  0
VERTEX
  8
0
 10
2.45492
 20
5.81131
 30
0.0
 40
0.0104167
 41
0.0104167
  0
VERTEX
  8
0
 10
2.45492
 20
5.70714
 30
0.0
 40
0.0104167
 41
0.0104167
  0
VERTEX
  8
0
 10
1.79101
 20
5.70714
 30
0.0
 40
0.0104167
 41
0.0104167
  0
VERTEX
  8
0
 10
1.79101
 20
5.81131
 30
0.0
 40
0.0104167
 41
0.0104167
  0
SEQEND
 8
0
  0
POLYLINE
  8
0
 62
     0
 66
     1
 10
0
 20
0
 30
0.0
 70
     1
 40
0.75
 41
0.75
  0
VERTEX
  8
0
 10
2.45492
 20
5.70714
 30
0.0
 40
0.0104167
 41
0.0104167
  0
VERTEX
  8
0
 10
2.45492
 20
5.66824
 30
0.0
 40
0.0104167
 41
0.0104167
  0
VERTEX
  8
0
 10
2.4445
 20
5.55154
 30
0.0
 40
0.0104167
 41
0.0104167
  0
VERTEX
  8
0
 10
2.41342
 20
5.41672
 30
0.0
 40
0.0104167
 41
0.0104167
  0
VERTEX
  8
0
 10
2.36149
 20
5.30257
 30
0.0
 40
0.0104167
 41
0.0104167
  0
VERTEX
  8
0
 10
2.2889
 20
5.20921
 30
0.0
 40
0.0104167
 41
0.0104167
  0
VERTEX
  8
0
 10
2.19553
 20
5.13661
 30
0.0
 40
0.0104167
 41
0.0104167
  0
VERTEX
  8
0
 10
2.08137
 20
5.08469
 30
0.0
 40
0.0104167
 41
0.0104167
  0
VERTEX
  8
0
 10
1.94656
 20
5.0536
 30
0.0
 40
0.0104167
 41
0.0104167
  0
VERTEX
  8
0
 10
1.82986
 20
5.04318
 30
0.0
 40
0.0104167
 41
0.0104167
  0
VERTEX
  8
0
 10
1.79096
 20
5.04318
 30
0.0
 40
0.0104167
 41
0.0104167
  0
VERTEX
  8
0
 10
1.79096
 20
5.70714
 30
0.0
 40
0.0104167
 41
0.0104167
  0
VERTEX
  8
0
 10
2.45492
 20
5.70714
 30
0.0
 40
0.0104167
 41
0.0104167
  0
SEQEND
 8
0
  0
POLYLINE
  8
0
 62
     0
 66
     1
 10
0
 20
0
 30
0.0
 70
     1
 40
0
 41
0
  0
VERTEX
  8
0
 10
2.64128
 20
7.15224
 30
0.0
 40
0
 41
0
  0
VERTEX
  8
0
 10
2.74544
 20
7.15224
 30
0.0
 40
0
 41
0
  0
VERTEX
  8
0
 10
2.74544
 20
5.70714
 30
0.0
 40
0
 41
0
  0
VERTEX
  8
0
 10
2.64128
 20
5.70714
 30
0.0
 40
0
 41
0
  0
VERTEX
  8
0
 10
2.64128
 20
7.15224
 30
0.0
 40
0
 41
0
  0
SEQEND
 8
0
  0
POLYLINE
  8
0
 62
     0
 66
     1
 10
0
 20
0
 30
0.0
 70
     1
 40
0.15
 41
0.15
  0
VERTEX
  8
0
 10
2.64128
 20
7.15224
 30
0.0
 40
0.00208333
 41
0.00208333
  0
VERTEX
  8
0
 10
2.74544
 20
7.15224
 30
0.0
 40
0.00208333
 41
0.00208333
  0
VERTEX
  8
0
 10
2.74544
 20
5.70714
 30
0.0
 40
0.00208333
 41
0.00208333
  0
VERTEX
  8
0
 10
2.64128
 20
5.70714
 30
0.0
 40
0.00208333
 41
0.00208333
  0
VERTEX
  8
0
 10
2.64128
 20
7.15224
 30
0.0
 40
0.00208333
 41
0.00208333
  0
SEQEND
 8
0
  0
POLYLINE
  8
0
 62
     0
 66
     1
 10
0
 20
0
 30
0.0
 70
     1
 40
0
 41
0
  0
VERTEX
  8
0
 10
4.07178
 20
3.29443
 30
0.0
 40
0
 41
0
  0
VERTEX
  8
0
 10
6.1396
 20
3.29443
 30
0.0
 40
0
 41
0
  0
VERTEX
  8
0
 10
6.1396
 20
3.19026
 30
0.0
 40
0
 41
0
  0
VERTEX
  8
0
 10
4.07178
 20
3.19026
 30
0.0
 40
0
 41
0
  0
VERTEX
  8
0
 10
4.07178
 20
3.29443
 30
0.0
 40
0
 41
0
  0
SEQEND
 8
0
  0
POLYLINE
  8
0
 62
     0
 66
     1
 10
0
 20
0
 30
0.0
 70
     1
 40
0.15
 41
0.15
  0
VERTEX
  8
0
 10
4.07178
 20
3.29443
 30
0.0
 40
0.00208333
 41
0.00208333
  0
VERTEX
  8
0
 10
6.1396
 20
3.29443
 30
0.0
 40
0.00208333
 41
0.00208333
  0
VERTEX
  8
0
 10
6.1396
 20
3.19026
 30
0.0
 40
0.00208333
 41
0.00208333
  0
VERTEX
  8
0
 10
4.07178
 20
3.19026
 30
0.0
 40
0.00208333
 41
0.00208333
  0
VERTEX
  8
0
 10
4.07178
 20
3.29443
 30
0.0
 40
0.00208333
 41
0.00208333
  0
SEQEND
 8
0
  0
POLYLINE
  8
0
 62
     7
 66
     1
 10
0
 20
0
 30
0.0
 70
     1
 40
0
 41
0
  0
VERTEX
  8
0
 10
4.83301
 20
3.29443
 30
0.0
 40
0
 41
0
  0
VERTEX
  8
0
 10
5.79833
 20
3.29443
 30
0.0
 40
0
 41
0
  0
VERTEX
  8
0
 10
5.79833
 20
3.19026
 30
0.0
 40
0
 41
0
  0
VERTEX
  8
0
 10
4.83301
 20
3.19026
 30
0.0
 40
0
 41
0
  0
VERTEX
  8
0
 10
4.83301
 20
3.29443
 30
0.0
 40
0
 41
0
  0
SEQEND
 8
0
  0
POLYLINE
  8
0
 62
     0
 66
     1
 10
0
 20
0
 30
0.0
 70
     1
 40
0.75
 41
0.75
  0
VERTEX
  8
0
 10
4.83301
 20
3.29443
 30
0.0
 40
0.0104167
 41
0.0104167
  0
VERTEX
  8
0
 10
5.79833
 20
3.29443
 30
0.0
 40
0.0104167
 41
0.0104167
  0
VERTEX
  8
0
 10
5.79833
 20
3.19026
 30
0.0
 40
0.0104167
 41
0.0104167
  0
VERTEX
  8
0
 10
4.83301
 20
3.19026
 30
0.0
 40
0.0104167
 41
0.0104167
  0
VERTEX
  8
0
 10
4.83301
 20
3.29443
 30
0.0
 40
0.0104167
 41
0.0104167
  0
SEQEND
 8
0
  0
POLYLINE
  8
0
 62
     7
 66
     1
 10
0
 20
0
 30
0.0
 70
     1
 40
0
 41
0
  0
VERTEX
  8
0
 10
4.83301
 20
3.29443
 30
0.0
 40
0
 41
0
  0
VERTEX
  8
0
 10
5.79833
 20
3.29443
 30
0.0
 40
0
 41
0
  0
VERTEX
  8
0
 10
5.79833
 20
3.19026
 30
0.0
 40
0
 41
0
  0
VERTEX
  8
0
 10
4.83301
 20
3.19026
 30
0.0
 40
0
 41
0
  0
VERTEX
  8
0
 10
4.83301
 20
3.29443
 30
0.0
 40
0
 41
0
  0
SEQEND
 8
0
  0
POLYLINE
  8
0
 62
     0
 66
     1
 10
0
 20
0
 30
0.0
 70
     1
 40
0.75
 41
0.75
  0
VERTEX
  8
0
 10
4.83301
 20
3.29443
 30
0.0
 40
0.0104167
 41
0.0104167
  0
VERTEX
  8
0
 10
5.79833
 20
3.29443
 30
0.0
 40
0.0104167
 41
0.0104167
  0
VERTEX
  8
0
 10
5.79833
 20
3.19026
 30
0.0
 40
0.0104167
 41
0.0104167
  0
VERTEX
  8
0
 10
4.83301
 20
3.19026
 30
0.0
 40
0.0104167
 41
0.0104167
  0
VERTEX
  8
0
 10
4.83301
 20
3.29443
 30
0.0
 40
0.0104167
 41
0.0104167
  0
SEQEND
 8
0
  0
POLYLINE
  8
0
 62
     0
 66
     1
 10
0
 20
0
 30
0.0
 70
     1
 40
0.75
 41
0.75
  0
VERTEX
  8
0
 10
4.83301
 20
3.19026
 30
0.0
 40
0.0104167
 41
0.0104167
  0
VERTEX
  8
0
 10
4.83301
 20
3.13374
 30
0.0
 40
0.0104167
 41
0.0104167
  0
VERTEX
  8
0
 10
4.8481
 20
2.96403
 30
0.0
 40
0.0104167
 41
0.0104167
  0
VERTEX
  8
0
 10
4.89333
 20
2.76796
 30
0.0
 40
0.0104167
 41
0.0104167
  0
VERTEX
  8
0
 10
4.96875
 20
2.60206
 30
0.0
 40
0.0104167
 41
0.0104167
  0
VERTEX
  8
0
 10
5.07433
 20
2.46631
 30
0.0
 40
0.0104167
 41
0.0104167
  0
VERTEX
  8
0
 10
5.21007
 20
2.36074
 30
0.0
 40
0.0104167
 41
0.0104167
  0
VERTEX
  8
0
 10
5.37597
 20
2.28532
 30
0.0
 40
0.0104167
 41
0.0104167
  0
VERTEX
  8
0
 10
5.57206
 20
2.24007
 30
0.0
 40
0.0104167
 41
0.0104167
  0
VERTEX
  8
0
 10
5.74175
 20
2.22499
 30
0.0
 40
0.0104167
 41
0.0104167
  0
VERTEX
  8
0
 10
5.79833
 20
2.22499
 30
0.0
 40
0.0104167
 41
0.0104167
  0
VERTEX
  8
0
 10
5.79833
 20
3.19026
 30
0.0
 40
0.0104167
 41
0.0104167
  0
VERTEX
  8
0
 10
4.83301
 20
3.19026
 30
0.0
 40
0.0104167
 41
0.0104167
  0
SEQEND
 8
0
  0
POLYLINE
  8
0
 62
     0
 66
     1
 10
0
 20
0
 30
0.0
 70
     1
 40
0
 41
0
  0
VERTEX
  8
0
 10
5.2079
 20
11.779
 30
0.0
 40
0
 41
0
  0
VERTEX
  8
0
 10
5.31207
 20
11.779
 30
0.0
 40
0
 41
0
  0
VERTEX
  8
0
 10
5.31207
 20
10.3088
 30
0.0
 40
0
 41
0
  0
VERTEX
  8
0
 10
5.2079
 20
10.3088
 30
0.0
 40
0
 41
0
  0
VERTEX
  8
0
 10
5.2079
 20
11.779
 30
0.0
 40
0
 41
0
  0
SEQEND
 8
0
  0
POLYLINE
  8
0
 62
     0
 66
     1
 10
0
 20
0
 30
0.0
 70
     1
 40
0.15
 41
0.15
  0
VERTEX
  8
0
 10
5.2079
 20
11.779
 30
0.0
 40
0.00208333
 41
0.00208333
  0
VERTEX
  8
0
 10
5.31207
 20
11.779
 30
0.0
 40
0.00208333
 41
0.00208333
  0
VERTEX
  8
0
 10
5.31207
 20
10.3088
 30
0.0
 40
0.00208333
 41
0.00208333
  0
VERTEX
  8
0
 10
5.2079
 20
10.3088
 30
0.0
 40
0.00208333
 41
0.00208333
  0
VERTEX
  8
0
 10
5.2079
 20
11.779
 30
0.0
 40
0.00208333
 41
0.00208333
  0
SEQEND
 8
0
  0
POLYLINE
  8
0
 62
     0
 66
     1
 10
0
 20
0
 30
0.0
 70
     1
 40
0
 41
0
  0
VERTEX
  8
0
 10
5.2079
 20
8.69228
 30
0.0
 40
0
 41
0
  0
VERTEX
  8
0
 10
5.2079
 20
7.04807
 30
0.0
 40
0
 41
0
  0
VERTEX
  8
0
 10
5.31207
 20
7.15224
 30
0.0
 40
0
 41
0
  0
VERTEX
  8
0
 10
5.31207
 20
8.69228
 30
0.0
 40
0
 41
0
  0
VERTEX
  8
0
 10
5.2079
 20
8.69228
 30
0.0
 40
0
 41
0
  0
SEQEND
 8
0
  0
POLYLINE
  8
0
 62
     0
 66
     1
 10
0
 20
0
 30
0.0
 70
     1
 40
0.15
 41
0.15
  0
VERTEX
  8
0
 10
5.2079
 20
8.69228
 30
0.0
 40
0.00208333
 41
0.00208333
  0
VERTEX
  8
0
 10
5.2079
 20
7.04807
 30
0.0
 40
0.00208333
 41
0.00208333
  0
VERTEX
  8
0
 10
5.31207
 20
7.15224
 30
0.0
 40
0.00208333
 41
0.00208333
  0
VERTEX
  8
0
 10
5.31207
 20
8.69228
 30
0.0
 40
0.00208333
 41
0.00208333
  0
VERTEX
  8
0
 10
5.2079
 20
8.69228
 30
0.0
 40
0.00208333
 41
0.00208333
  0
SEQEND
 8
0
  0
POLYLINE
  8
0
 62
     0
 66
     1
 10
0
 20
0
 30
0.0
 70
     1
 40
0
 41
0
  0
VERTEX
  8
0
 10
5.2079
 20
7.04807
 30
0.0
 40
0
 41
0
  0
VERTEX
  8
0
 10
8.37565
 20
7.04807
 30
0.0
 40
0
 41
0
  0
VERTEX
  8
0
 10
8.27149
 20
7.15224
 30
0.0
 40
0
 41
0
  0
VERTEX
  8
0
 10
5.31207
 20
7.15224
 30
0.0
 40
0
 41
0
  0
VERTEX
  8
0
 10
5.2079
 20
7.04807
 30
0.0
 40
0
 41
0
  0
SEQEND
 8
0
  0
POLYLINE
  8
0
 62
     0
 66
     1
 10
0
 20
0
 30
0.0
 70
     1
 40
0.15
 41
0.15
  0
VERTEX
  8
0
 10
5.2079
 20
7.04807
 30
0.0
 40
0.00208333
 41
0.00208333
  0
VERTEX
  8
0
 10
8.37565
 20
7.04807
 30
0.0
 40
0.00208333
 41
0.00208333
  0
VERTEX
  8
0
 10
8.27149
 20
7.15224
 30
0.0
 40
0.00208333
 41
0.00208333
  0
VERTEX
  8
0
 10
5.31207
 20
7.15224
 30
0.0
 40
0.00208333
 41
0.00208333
  0
VERTEX
  8
0
 10
5.2079
 20
7.04807
 30
0.0
 40
0.00208333
 41
0.00208333
  0
SEQEND
 8
0
  0
POLYLINE
  8
0
 62
     7
 66
     1
 10
0
 20
0
 30
0.0
 70
     1
 40
0
 41
0
  0
VERTEX
  8
0
 10
5.33279
 20
7.15224
 30
0.0
 40
0
 41
0
  0
VERTEX
  8
0
 10
6.09261
 20
7.15224
 30
0.0
 40
0
 41
0
  0
VERTEX
  8
0
 10
6.09261
 20
7.04807
 30
0.0
 40
0
 41
0
  0
VERTEX
  8
0
 10
5.33279
 20
7.04807
 30
0.0
 40
0
 41
0
  0
VERTEX
  8
0
 10
5.33279
 20
7.15224
 30
0.0
 40
0
 41
0
  0
SEQEND
 8
0
  0
POLYLINE
  8
0
 62
     0
 66
     1
 10
0
 20
0
 30
0.0
 70
     1
 40
0.75
 41
0.75
  0
VERTEX
  8
0
 10
5.33279
 20
7.15224
 30
0.0
 40
0.0104167
 41
0.0104167
  0
VERTEX
  8
0
 10
6.09261
 20
7.15224
 30
0.0
 40
0.0104167
 41
0.0104167
  0
VERTEX
  8
0
 10
6.09261
 20
7.04807
 30
0.0
 40
0.0104167
 41
0.0104167
  0
VERTEX
  8
0
 10
5.33279
 20
7.04807
 30
0.0
 40
0.0104167
 41
0.0104167
  0
VERTEX
  8
0
 10
5.33279
 20
7.15224
 30
0.0
 40
0.0104167
 41
0.0104167
  0
SEQEND
 8
0
  0
POLYLINE
  8
0
 62
     7
 66
     1
 10
0
 20
0
 30
0.0
 70
     1
 40
0
 41
0
  0
VERTEX
  8
0
 10
5.33279
 20
7.15224
 30
0.0
 40
0
 41
0
  0
VERTEX
  8
0
 10
6.09261
 20
7.15224
 30
0.0
 40
0
 41
0
  0
VERTEX
  8
0
 10
6.09261
 20
7.04807
 30
0.0
 40
0
 41
0
  0
VERTEX
  8
0
 10
5.33279
 20
7.04807
 30
0.0
 40
0
 41
0
  0
VERTEX
  8
0
 10
5.33279
 20
7.15224
 30
0.0
 40
0
 41
0
  0
SEQEND
 8
0
  0
POLYLINE
  8
0
 62
     0
 66
     1
 10
0
 20
0
 30
0.0
 70
     1
 40
0.75
 41
0.75
  0
VERTEX
  8
0
 10
5.33279
 20
7.15224
 30
0.0
 40
0.0104167
 41
0.0104167
  0
VERTEX
  8
0
 10
6.09261
 20
7.15224
 30
0.0
 40
0.0104167
 41
0.0104167
  0
VERTEX
  8
0
 10
6.09261
 20
7.04807
 30
0.0
 40
0.0104167
 41
0.0104167
  0
VERTEX
  8
0
 10
5.33279
 20
7.04807
 30
0.0
 40
0.0104167
 41
0.0104167
  0
VERTEX
  8
0
 10
5.33279
 20
7.15224
 30
0.0
 40
0.0104167
 41
0.0104167
  0
SEQEND
 8
0
  0
POLYLINE
  8
0
 62
     0
 66
     1
 10
0
 20
0
 30
0.0
 70
     1
 40
0.75
 41
0.75
  0
VERTEX
  8
0
 10
6.09261
 20
7.15224
 30
0.0
 40
0.0104167
 41
0.0104167
  0
VERTEX
  8
0
 10
6.09261
 20
7.19678
 30
0.0
 40
0.0104167
 41
0.0104167
  0
VERTEX
  8
0
 10
6.08074
 20
7.33035
 30
0.0
 40
0.0104167
 41
0.0104167
  0
VERTEX
  8
0
 10
6.04508
 20
7.48469
 30
0.0
 40
0.0104167
 41
0.0104167
  0
VERTEX
  8
0
 10
5.98574
 20
7.61529
 30
0.0
 40
0.0104167
 41
0.0104167
  0
VERTEX
  8
0
 10
5.90261
 20
7.72211
 30
0.0
 40
0.0104167
 41
0.0104167
  0
VERTEX
  8
0
 10
5.79579
 20
7.80524
 30
0.0
 40
0.0104167
 41
0.0104167
  0
VERTEX
  8
0
 10
5.66521
 20
7.86458
 30
0.0
 40
0.0104167
 41
0.0104167
  0
VERTEX
  8
0
 10
5.51085
 20
7.90022
 30
0.0
 40
0.0104167
 41
0.0104167
  0
VERTEX
  8
0
 10
5.37728
 20
7.91206
 30
0.0
 40
0.0104167
 41
0.0104167
  0
VERTEX
  8
0
 10
5.33279
 20
7.91206
 30
0.0
 40
0.0104167
 41
0.0104167
  0
VERTEX
  8
0
 10
5.33279
 20
7.15224
 30
0.0
 40
0.0104167
 41
0.0104167
  0
VERTEX
  8
0
 10
6.09261
 20
7.15224
 30
0.0
 40
0.0104167
 41
0.0104167
  0
SEQEND
 8
0
  0
POLYLINE
  8
0
 62
     0
 66
     1
 10
0
 20
0
 30
0.0
 70
     1
 40
0
 41
0
  0
VERTEX
  8
0
 10
8.37565
 20
7.04807
 30
0.0
 40
0
 41
0
  0
VERTEX
  8
0
 10
8.37565
 20
9.72933
 30
0.0
 40
0
 41
0
  0
VERTEX
  8
0
 10
8.27149
 20
9.72933
 30
0.0
 40
0
 41
0
  0
VERTEX
  8
0
 10
8.27149
 20
7.15224
 30
0.0
 40
0
 41
0
  0
VERTEX
  8
0
 10
8.37565
 20
7.04807
 30
0.0
 40
0
 41
0
  0
SEQEND
 8
0
  0
POLYLINE
  8
0
 62
     0
 66
     1
 10
0
 20
0
 30
0.0
 70
     1
 40
0.15
 41
0.15
  0
VERTEX
  8
0
 10
8.37565
 20
7.04807
 30
0.0
 40
0.00208333
 41
0.00208333
  0
VERTEX
  8
0
 10
8.37565
 20
9.72933
 30
0.0
 40
0.00208333
 41
0.00208333
  0
VERTEX
  8
0
 10
8.27149
 20
9.72933
 30
0.0
 40
0.00208333
 41
0.00208333
  0
VERTEX
  8
0
 10
8.27149
 20
7.15224
 30
0.0
 40
0.00208333
 41
0.00208333
  0
VERTEX
  8
0
 10
8.37565
 20
7.04807
 30
0.0
 40
0.00208333
 41
0.00208333
  0
SEQEND
 8
0
  0
POLYLINE
  8
0
 62
     0
 66
     1
 10
0
 20
0
 30
0.0
 70
     1
 40
0
 41
0
  0
VERTEX
  8
0
 10
7.80388
 20
7.15224
 30
0.0
 40
0
 41
0
  0
VERTEX
  8
0
 10
7.90804
 20
7.15224
 30
0.0
 40
0
 41
0
  0
VERTEX
  8
0
 10
7.90804
 20
5.70714
 30
0.0
 40
0
 41
0
  0
VERTEX
  8
0
 10
7.80388
 20
5.70714
 30
0.0
 40
0
 41
0
  0
VERTEX
  8
0
 10
7.80388
 20
7.15224
 30
0.0
 40
0
 41
0
  0
SEQEND
 8
0
  0
POLYLINE
  8
0
 62
     0
 66
     1
 10
0
 20
0
 30
0.0
 70
     1
 40
0.15
 41
0.15
  0
VERTEX
  8
0
 10
7.80388
 20
7.15224
 30
0.0
 40
0.00208333
 41
0.00208333
  0
VERTEX
  8
0
 10
7.90804
 20
7.15224
 30
0.0
 40
0.00208333
 41
0.00208333
  0
VERTEX
  8
0
 10
7.90804
 20
5.70714
 30
0.0
 40
0.00208333
 41
0.00208333
  0
VERTEX
  8
0
 10
7.80388
 20
5.70714
 30
0.0
 40
0.00208333
 41
0.00208333
  0
VERTEX
  8
0
 10
7.80388
 20
7.15224
 30
0.0
 40
0.00208333
 41
0.00208333
  0
SEQEND
 8
0
  0
POLYLINE
  8
0
 62
     7
 66
     1
 10
0
 20
0
 30
0.0
 70
     1
 40
0
 41
0
  0
VERTEX
  8
0
 10
7.80388
 20
7.009
 30
0.0
 40
0
 41
0
  0
VERTEX
  8
0
 10
7.90804
 20
7.009
 30
0.0
 40
0
 41
0
  0
VERTEX
  8
0
 10
7.90804
 20
6.2276
 30
0.0
 40
0
 41
0
  0
VERTEX
  8
0
 10
7.80388
 20
6.2276
 30
0.0
 40
0
 41
0
  0
VERTEX
  8
0
 10
7.80388
 20
7.009
 30
0.0
 40
0
 41
0
  0
SEQEND
 8
0
  0
POLYLINE
  8
0
 62
     0
 66
     1
 10
0
 20
0
 30
0.0
 70
     1
 40
0.75
 41
0.75
  0
VERTEX
  8
0
 10
7.80388
 20
7.009
 30
0.0
 40
0.0104167
 41
0.0104167
  0
VERTEX
  8
0
 10
7.90804
 20
7.009
 30
0.0
 40
0.0104167
 41
0.0104167
  0
VERTEX
  8
0
 10
7.90804
 20
6.2276
 30
0.0
 40
0.0104167
 41
0.0104167
  0
VERTEX
  8
0
 10
7.80388
 20
6.2276
 30
0.0
 40
0.0104167
 41
0.0104167
  0
VERTEX
  8
0
 10
7.80388
 20
7.009
 30
0.0
 40
0.0104167
 41
0.0104167
  0
SEQEND
 8
0
  0
POLYLINE
  8
0
 62
     7
 66
     1
 10
0
 20
0
 30
0.0
 70
     1
 40
0
 41
0
  0
VERTEX
  8
0
 10
7.80388
 20
7.009
 30
0.0
 40
0
 41
0
  0
VERTEX
  8
0
 10
7.90804
 20
7.009
 30
0.0
 40
0
 41
0
  0
VERTEX
  8
0
 10
7.90804
 20
6.2276
 30
0.0
 40
0
 41
0
  0
VERTEX
  8
0
 10
7.80388
 20
6.2276
 30
0.0
 40
0
 41
0
  0
VERTEX
  8
0
 10
7.80388
 20
7.009
 30
0.0
 40
0
 41
0
  0
SEQEND
 8
0
  0
POLYLINE
  8
0
 62
     0
 66
     1
 10
0
 20
0
 30
0.0
 70
     1
 40
0.75
 41
0.75
  0
VERTEX
  8
0
 10
7.80388
 20
7.009
 30
0.0
 40
0.0104167
 41
0.0104167
  0
VERTEX
  8
0
 10
7.90804
 20
7.009
 30
0.0
 40
0.0104167
 41
0.0104167
  0
VERTEX
  8
0
 10
7.90804
 20
6.2276
 30
0.0
 40
0.0104167
 41
0.0104167
  0
VERTEX
  8
0
 10
7.80388
 20
6.2276
 30
0.0
 40
0.0104167
 41
0.0104167
  0
VERTEX
  8
0
 10
7.80388
 20
7.009
 30
0.0
 40
0.0104167
 41
0.0104167
  0
SEQEND
 8
0
  0
POLYLINE
  8
0
 62
     0
 66
     1
 10
0
 20
0
 30
0.0
 70
     1
 40
0.75
 41
0.75
  0
VERTEX
  8
0
 10
7.80388
 20
6.2276
 30
0.0
 40
0.0104167
 41
0.0104167
  0
VERTEX
  8
0
 10
7.75803
 20
6.2276
 30
0.0
 40
0.0104167
 41
0.0104167
  0
VERTEX
  8
0
 10
7.62067
 20
6.23986
 30
0.0
 40
0.0104167
 41
0.0104167
  0
VERTEX
  8
0
 10
7.46197
 20
6.27647
 30
0.0
 40
0.0104167
 41
0.0104167
  0
VERTEX
  8
0
 10
7.32764
 20
6.33751
 30
0.0
 40
0.0104167
 41
0.0104167
  0
VERTEX
  8
0
 10
7.21772
 20
6.42296
 30
0.0
 40
0.0104167
 41
0.0104167
  0
VERTEX
  8
0
 10
7.13226
 20
6.53288
 30
0.0
 40
0.0104167
 41
0.0104167
  0
VERTEX
  8
0
 10
7.07124
 20
6.66715
 30
0.0
 40
0.0104167
 41
0.0104167
  0
VERTEX
  8
0
 10
7.03461
 20
6.8259
 30
0.0
 40
0.0104167
 41
0.0104167
  0
VERTEX
  8
0
 10
7.0224
 20
6.96326
 30
0.0
 40
0.0104167
 41
0.0104167
  0
VERTEX
  8
0
 10
7.0224
 20
7.009
 30
0.0
 40
0.0104167
 41
0.0104167
  0
VERTEX
  8
0
 10
7.80388
 20
7.009
 30
0.0
 40
0.0104167
 41
0.0104167
  0
VERTEX
  8
0
 10
7.80388
 20
6.2276
 30
0.0
 40
0.0104167
 41
0.0104167
  0
SEQEND
 8
0
  0
POLYLINE
  8
0
 62
     0
 66
     1
 10
0
 20
0
 30
0.0
 70
     1
 40
0
 41
0
  0
VERTEX
  8
0
 10
8.27149
 20
7.72715
 30
0.0
 40
0
 41
0
  0
VERTEX
  8
0
 10
10.587
 20
7.72715
 30
0.0
 40
0
 41
0
  0
VERTEX
  8
0
 10
10.587
 20
7.62299
 30
0.0
 40
0
 41
0
  0
VERTEX
  8
0
 10
8.27149
 20
7.62299
 30
0.0
 40
0
 41
0
  0
VERTEX
  8
0
 10
8.27149
 20
7.72715
 30
0.0
 40
0
 41
0
  0
SEQEND
 8
0
  0
POLYLINE
  8
0
 62
     0
 66
     1
 10
0
 20
0
 30
0.0
 70
     1
 40
0.15
 41
0.15
  0
VERTEX
  8
0
 10
8.27149
 20
7.72715
 30
0.0
 40
0.00208333
 41
0.00208333
  0
VERTEX
  8
0
 10
10.587
 20
7.72715
 30
0.0
 40
0.00208333
 41
0.00208333
  0
VERTEX
  8
0
 10
10.587
 20
7.62299
 30
0.0
 40
0.00208333
 41
0.00208333
  0
VERTEX
  8
0
 10
8.27149
 20
7.62299
 30
0.0
 40
0.00208333
 41
0.00208333
  0
VERTEX
  8
0
 10
8.27149
 20
7.72715
 30
0.0
 40
0.00208333
 41
0.00208333
  0
SEQEND
 8
0
  0
POLYLINE
  8
0
 62
     7
 66
     1
 10
0
 20
0
 30
0.0
 70
     1
 40
0
 41
0
  0
VERTEX
  8
0
 10
8.40093
 20
7.72715
 30
0.0
 40
0
 41
0
  0
VERTEX
  8
0
 10
9.14388
 20
7.72715
 30
0.0
 40
0
 41
0
  0
VERTEX
  8
0
 10
9.14388
 20
7.62299
 30
0.0
 40
0
 41
0
  0
VERTEX
  8
0
 10
8.40093
 20
7.62299
 30
0.0
 40
0
 41
0
  0
VERTEX
  8
0
 10
8.40093
 20
7.72715
 30
0.0
 40
0
 41
0
  0
SEQEND
 8
0
  0
POLYLINE
  8
0
 62
     0
 66
     1
 10
0
 20
0
 30
0.0
 70
     1
 40
0.75
 41
0.75
  0
VERTEX
  8
0
 10
8.40093
 20
7.72715
 30
0.0
 40
0.0104167
 41
0.0104167
  0
VERTEX
  8
0
 10
9.14388
 20
7.72715
 30
0.0
 40
0.0104167
 41
0.0104167
  0
VERTEX
  8
0
 10
9.14388
 20
7.62299
 30
0.0
 40
0.0104167
 41
0.0104167
  0
VERTEX
  8
0
 10
8.40093
 20
7.62299
 30
0.0
 40
0.0104167
 41
0.0104167
  0
VERTEX
  8
0
 10
8.40093
 20
7.72715
 30
0.0
 40
0.0104167
 41
0.0104167
  0
SEQEND
 8
0
  0
POLYLINE
  8
0
 62
     7
 66
     1
 10
0
 20
0
 30
0.0
 70
     1
 40
0
 41
0
  0
VERTEX
  8
0
 10
8.40093
 20
7.72715
 30
0.0
 40
0
 41
0
  0
VERTEX
  8
0
 10
9.14388
 20
7.72715
 30
0.0
 40
0
 41
0
  0
VERTEX
  8
0
 10
9.14388
 20
7.62299
 30
0.0
 40
0
 41
0
  0
VERTEX
  8
0
 10
8.40093
 20
7.62299
 30
0.0
 40
0
 41
0
  0
VERTEX
  8
0
 10
8.40093
 20
7.72715
 30
0.0
 40
0
 41
0
  0
SEQEND
 8
0
  0
POLYLINE
  8
0
 62
     0
 66
     1
 10
0
 20
0
 30
0.0
 70
     1
 40
0.75
 41
0.75
  0
VERTEX
  8
0
 10
8.40093
 20
7.72715
 30
0.0
 40
0.0104167
 41
0.0104167
  0
VERTEX
  8
0
 10
9.14388
 20
7.72715
 30
0.0
 40
0.0104167
 41
0.0104167
  0
VERTEX
  8
0
 10
9.14388
 20
7.62299
 30
0.0
 40
0.0104167
 41
0.0104167
  0
VERTEX
  8
0
 10
8.40093
 20
7.62299
 30
0.0
 40
0.0104167
 41
0.0104167
  0
VERTEX
  8
0
 10
8.40093
 20
7.72715
 30
0.0
 40
0.0104167
 41
0.0104167
  0
SEQEND
 8
0
  0
POLYLINE
  8
0
 62
     0
 66
     1
 10
0
 20
0
 30
0.0
 70
     1
 40
0.75
 41
0.75
  0
VERTEX
  8
0
 10
9.14388
 20
7.62299
 30
0.0
 40
0.0104167
 41
0.0104167
  0
VERTEX
  8
0
 10
9.14388
 20
7.57949
 30
0.0
 40
0.0104167
 41
0.0104167
  0
VERTEX
  8
0
 10
9.13226
 20
7.44889
 30
0.0
 40
0.0104167
 41
0.0104167
  0
VERTEX
  8
0
 10
9.09744
 20
7.29801
 30
0.0
 40
0.0104167
 41
0.0104167
  0
VERTEX
  8
0
 10
9.03939
 20
7.17031
 30
0.0
 40
0.0104167
 41
0.0104167
  0
VERTEX
  8
0
 10
8.95811
 20
7.06581
 30
0.0
 40
0.0104167
 41
0.0104167
  0
VERTEX
  8
0
 10
8.85363
 20
6.98454
 30
0.0
 40
0.0104167
 41
0.0104167
  0
VERTEX
  8
0
 10
8.72592
 20
6.92649
 30
0.0
 40
0.0104167
 41
0.0104167
  0
VERTEX
  8
0
 10
8.57503
 20
6.89165
 30
0.0
 40
0.0104167
 41
0.0104167
  0
VERTEX
  8
0
 10
8.44444
 20
6.88004
 30
0.0
 40
0.0104167
 41
0.0104167
  0
VERTEX
  8
0
 10
8.40093
 20
6.88004
 30
0.0
 40
0.0104167
 41
0.0104167
  0
VERTEX
  8
0
 10
8.40093
 20
7.62299
 30
0.0
 40
0.0104167
 41
0.0104167
  0
VERTEX
  8
0
 10
9.14388
 20
7.62299
 30
0.0
 40
0.0104167
 41
0.0104167
  0
SEQEND
 8
0
  0
POLYLINE
  8
0
 62
     0
 66
     1
 10
0
 20
0
 30
0.0
 70
     1
 40
0
 41
0
  0
VERTEX
  8
0
 10
10.161
 20
11.4457
 30
0.0
 40
0
 41
0
  0
VERTEX
  8
0
 10
10.2652
 20
11.4457
 30
0.0
 40
0
 41
0
  0
VERTEX
  8
0
 10
10.2652
 20
9.72933
 30
0.0
 40
0
 41
0
  0
VERTEX
  8
0
 10
10.161
 20
9.72933
 30
0.0
 40
0
 41
0
  0
VERTEX
  8
0
 10
10.161
 20
11.4457
 30
0.0
 40
0
 41
0
  0
SEQEND
 8
0
  0
POLYLINE
  8
0
 62
     0
 66
     1
 10
0
 20
0
 30
0.0
 70
     1
 40
0.15
 41
0.15
  0
VERTEX
  8
0
 10
10.161
 20
11.4457
 30
0.0
 40
0.00208333
 41
0.00208333
  0
VERTEX
  8
0
 10
10.2652
 20
11.4457
 30
0.0
 40
0.00208333
 41
0.00208333
  0
VERTEX
  8
0
 10
10.2652
 20
9.72933
 30
0.0
 40
0.00208333
 41
0.00208333
  0
VERTEX
  8
0
 10
10.161
 20
9.72933
 30
0.0
 40
0.00208333
 41
0.00208333
  0
VERTEX
  8
0
 10
10.161
 20
11.4457
 30
0.0
 40
0.00208333
 41
0.00208333
  0
SEQEND
 8
0
  0
POLYLINE
  8
0
 62
     7
 66
     1
 10
0
 20
0
 30
0.0
 70
     1
 40
0
 41
0
  0
VERTEX
  8
0
 10
0.749675
 20
13.2626
 30
0.0
 40
0
 41
0
  0
VERTEX
  8
0
 10
0.853842
 20
13.2626
 30
0.0
 40
0
 41
0
  0
VERTEX
  8
0
 10
0.853842
 20
11.779
 30
0.0
 40
0
 41
0
  0
VERTEX
  8
0
 10
0.749675
 20
11.779
 30
0.0
 40
0
 41
0
  0
VERTEX
  8
0
 10
0.749675
 20
13.2626
 30
0.0
 40
0
 41
0
  0
SEQEND
 8
0
  0
POLYLINE
  8
0
 62
     0
 66
     1
 10
0
 20
0
 30
0.0
 70
     1
 40
0.15
 41
0.15
  0
VERTEX
  8
0
 10
0.749675
 20
13.2626
 30
0.0
 40
0.00208333
 41
0.00208333
  0
VERTEX
  8
0
 10
0.853842
 20
13.2626
 30
0.0
 40
0.00208333
 41
0.00208333
  0
VERTEX
  8
0
 10
0.853842
 20
11.779
 30
0.0
 40
0.00208333
 41
0.00208333
  0
VERTEX
  8
0
 10
0.749675
 20
11.779
 30
0.0
 40
0.00208333
 41
0.00208333
  0
VERTEX
  8
0
 10
0.749675
 20
13.2626
 30
0.0
 40
0.00208333
 41
0.00208333
  0
SEQEND
 8
0
  0
POLYLINE
  8
0
 62
     7
 66
     1
 10
0
 20
0
 30
0.0
 70
     1
 40
0
 41
0
  0
VERTEX
  8
0
 10
10.3729
 20
13.2531
 30
0.0
 40
0
 41
0
  0
VERTEX
  8
0
 10
10.4672
 20
13.2531
 30
0.0
 40
0
 41
0
  0
VERTEX
  8
0
 10
10.4672
 20
11.779
 30
0.0
 40
0
 41
0
  0
VERTEX
  8
0
 10
10.3729
 20
11.779
 30
0.0
 40
0
 41
0
  0
VERTEX
  8
0
 10
10.3729
 20
13.2531
 30
0.0
 40
0
 41
0
  0
SEQEND
 8
0
  0
POLYLINE
  8
0
 62
     0
 66
     1
 10
0
 20
0
 30
0.0
 70
     1
 40
0.15
 41
0.15
  0
VERTEX
  8
0
 10
10.3729
 20
13.2531
 30
0.0
 40
0.00208333
 41
0.00208333
  0
VERTEX
  8
0
 10
10.4672
 20
13.2531
 30
0.0
 40
0.00208333
 41
0.00208333
  0
VERTEX
  8
0
 10
10.4672
 20
11.779
 30
0.0
 40
0.00208333
 41
0.00208333
  0
VERTEX
  8
0
 10
10.3729
 20
11.779
 30
0.0
 40
0.00208333
 41
0.00208333
  0
VERTEX
  8
0
 10
10.3729
 20
13.2531
 30
0.0
 40
0.00208333
 41
0.00208333
  0
SEQEND
 8
0
  0
POLYLINE
  8
0
 62
     7
 66
     1
 10
0
 20
0
 30
0.0
 70
     1
 40
0
 41
0
  0
VERTEX
  8
0
 10
4.17649
 20
3.19026
 30
0.0
 40
0
 41
0
  0
VERTEX
  8
0
 10
4.80149
 20
3.19026
 30
0.0
 40
0
 41
0
  0
VERTEX
  8
0
 10
4.80149
 20
2.63775
 30
0.0
 40
0
 41
0
  0
VERTEX
  8
0
 10
4.17649
 20
2.63775
 30
0.0
 40
0
 41
0
  0
VERTEX
  8
0
 10
4.17649
 20
3.19026
 30
0.0
 40
0
 41
0
  0
SEQEND
 8
0
  0
POLYLINE
  8
0
 62
     0
 66
     1
 10
0
 20
0
 30
0.0
 70
     1
 40
0.75
 41
0.75
  0
VERTEX
  8
0
 10
4.17649
 20
3.19026
 30
0.0
 40
0.0104167
 41
0.0104167
  0
VERTEX
  8
0
 10
4.17649
 20
2.63775
 30
0.0
 40
0.0104167
 41
0.0104167
  0
VERTEX
  8
0
 10
4.80149
 20
2.63775
 30
0.0
 40
0.0104167
 41
0.0104167
  0
VERTEX
  8
0
 10
4.80149
 20
3.19026
 30
0.0
 40
0.0104167
 41
0.0104167
  0
VERTEX
  8
0
 10
4.17649
 20
3.19026
 30
0.0
 40
0.0104167
 41
0.0104167
  0
SEQEND
 8
0
  0
POLYLINE
  8
0
 62
     253
 66
     1
 10
0
 20
0
 30
0.0
 40
0.75
 41
0.75
  0
VERTEX
  8
0
 10
4.48899
 20
2.63775
 30
0.0
 40
0.0104167
 41
0.0104167
  0
VERTEX
  8
0
 10
4.48899
 20
3.19032
 30
0.0
 40
0.0104167
 41
0.0104167
  0
SEQEND
 8
0
  0
POLYLINE
  8
0
 62
     7
 66
     1
 10
0
 20
0
 30
0.0
 70
     1
 40
0
 41
0
  0
VERTEX
  8
0
 10
4.17649
 20
2.63775
 30
0.0
 40
0
 41
0
  0
VERTEX
  8
0
 10
4.80149
 20
2.63775
 30
0.0
 40
0
 41
0
  0
VERTEX
  8
0
 10
4.80149
 20
2.12142
 30
0.0
 40
0
 41
0
  0
VERTEX
  8
0
 10
4.17649
 20
2.12142
 30
0.0
 40
0
 41
0
  0
VERTEX
  8
0
 10
4.17649
 20
2.63775
 30
0.0
 40
0
 41
0
  0
SEQEND
 8
0
  0
POLYLINE
  8
0
 62
     0
 66
     1
 10
0
 20
0
 30
0.0
 70
     1
 40
0.75
 41
0.75
  0
VERTEX
  8
0
 10
4.17649
 20
2.63775
 30
0.0
 40
0.0104167
 41
0.0104167
  0
VERTEX
  8
0
 10
4.17649
 20
2.12142
 30
0.0
 40
0.0104167
 41
0.0104167
  0
VERTEX
  8
0
 10
4.80149
 20
2.12142
 30
0.0
 40
0.0104167
 41
0.0104167
  0
VERTEX
  8
0
 10
4.80149
 20
2.63775
 30
0.0
 40
0.0104167
 41
0.0104167
  0
VERTEX
  8
0
 10
4.17649
 20
2.63775
 30
0.0
 40
0.0104167
 41
0.0104167
  0
SEQEND
 8
0
  0
POLYLINE
  8
0
 62
     7
 66
     1
 10
0
 20
0
 30
0.0
 70
     1
 40
0
 41
0
  0
VERTEX
  8
0
 10
6.14008
 20
3.40315
 30
0.0
 40
0
 41
0
  0
VERTEX
  8
0
 10
6.76031
 20
3.40315
 30
0.0
 40
0
 41
0
  0
VERTEX
  8
0
 10
6.76031
 20
2.15315
 30
0.0
 40
0
 41
0
  0
VERTEX
  8
0
 10
6.14008
 20
2.15315
 30
0.0
 40
0
 41
0
  0
VERTEX
  8
0
 10
6.14008
 20
3.40315
 30
0.0
 40
0
 41
0
  0
SEQEND
 8
0
  0
POLYLINE
  8
0
 62
     0
 66
     1
 10
0
 20
0
 30
0.0
 70
     1
 40
0.75
 41
0.75
  0
VERTEX
  8
0
 10
6.14008
 20
3.40315
 30
0.0
 40
0.0104167
 41
0.0104167
  0
VERTEX
  8
0
 10
6.14008
 20
2.15315
 30
0.0
 40
0.0104167
 41
0.0104167
  0
VERTEX
  8
0
 10
6.76031
 20
2.15315
 30
0.0
 40
0.0104167
 41
0.0104167
  0
VERTEX
  8
0
 10
6.76031
 20
3.40315
 30
0.0
 40
0.0104167
 41
0.0104167
  0
VERTEX
  8
0
 10
6.14008
 20
3.40315
 30
0.0
 40
0.0104167
 41
0.0104167
  0
SEQEND
 8
0
  0
POLYLINE
  8
0
 62
     253
 66
     1
 10
0
 20
0
 30
0.0
 40
0.75
 41
0.75
  0
VERTEX
  8
0
 10
6.45019
 20
2.15315
 30
0.0
 40
0.0104167
 41
0.0104167
  0
VERTEX
  8
0
 10
6.45019
 20
3.40315
 30
0.0
 40
0.0104167
 41
0.0104167
  0
SEQEND
 8
0
  0
POLYLINE
  8
0
 62
     7
 66
     1
 10
0
 20
0
 30
0.0
 70
     1
 40
0
 41
0
  0
VERTEX
  8
0
 10
6.1396
 20
4.0345
 30
0.0
 40
0
 41
0
  0
VERTEX
  8
0
 10
6.75846
 20
4.0345
 30
0.0
 40
0
 41
0
  0
VERTEX
  8
0
 10
6.75846
 20
3.40315
 30
0.0
 40
0
 41
0
  0
VERTEX
  8
0
 10
6.1396
 20
3.40315
 30
0.0
 40
0
 41
0
  0
VERTEX
  8
0
 10
6.1396
 20
4.0345
 30
0.0
 40
0
 41
0
  0
SEQEND
 8
0
  0
POLYLINE
  8
0
 62
     0
 66
     1
 10
0
 20
0
 30
0.0
 70
     1
 40
0.75
 41
0.75
  0
VERTEX
  8
0
 10
6.1396
 20
4.0345
 30
0.0
 40
0.0104167
 41
0.0104167
  0
VERTEX
  8
0
 10
6.1396
 20
3.40315
 30
0.0
 40
0.0104167
 41
0.0104167
  0
VERTEX
  8
0
 10
6.75846
 20
3.40315
 30
0.0
 40
0.0104167
 41
0.0104167
  0
VERTEX
  8
0
 10
6.75846
 20
4.0345
 30
0.0
 40
0.0104167
 41
0.0104167
  0
VERTEX
  8
0
 10
6.1396
 20
4.0345
 30
0.0
 40
0.0104167
 41
0.0104167
  0
SEQEND
 8
0
  0
POLYLINE
  8
0
 62
     7
 66
     1
 10
0
 20
0
 30
0.0
 70
     1
 40
0
 41
0
  0
VERTEX
  8
0
 10
6.1396
 20
4.66585
 30
0.0
 40
0
 41
0
  0
VERTEX
  8
0
 10
6.75846
 20
4.66585
 30
0.0
 40
0
 41
0
  0
VERTEX
  8
0
 10
6.75846
 20
4.0345
 30
0.0
 40
0
 41
0
  0
VERTEX
  8
0
 10
6.1396
 20
4.0345
 30
0.0
 40
0
 41
0
  0
VERTEX
  8
0
 10
6.1396
 20
4.66585
 30
0.0
 40
0
 41
0
  0
SEQEND
 8
0
  0
POLYLINE
  8
0
 62
     0
 66
     1
 10
0
 20
0
 30
0.0
 70
     1
 40
0.75
 41
0.75
  0
VERTEX
  8
0
 10
6.1396
 20
4.66585
 30
0.0
 40
0.0104167
 41
0.0104167
  0
VERTEX
  8
0
 10
6.1396
 20
4.0345
 30
0.0
 40
0.0104167
 41
0.0104167
  0
VERTEX
  8
0
 10
6.75846
 20
4.0345
 30
0.0
 40
0.0104167
 41
0.0104167
  0
VERTEX
  8
0
 10
6.75846
 20
4.66585
 30
0.0
 40
0.0104167
 41
0.0104167
  0
VERTEX
  8
0
 10
6.1396
 20
4.66585
 30
0.0
 40
0.0104167
 41
0.0104167
  0
SEQEND
 8
0
  0
POLYLINE
  8
0
 62
     7
 66
     1
 10
0
 20
0
 30
0.0
 70
     1
 40
0
 41
0
  0
VERTEX
  8
0
 10
6.1396
 20
5.70714
 30
0.0
 40
0
 41
0
  0
VERTEX
  8
0
 10
6.7595
 20
5.70714
 30
0.0
 40
0
 41
0
  0
VERTEX
  8
0
 10
6.7595
 20
4.66797
 30
0.0
 40
0
 41
0
  0
VERTEX
  8
0
 10
6.1396
 20
4.66797
 30
0.0
 40
0
 41
0
  0
VERTEX
  8
0
 10
6.1396
 20
5.70714
 30
0.0
 40
0
 41
0
  0
SEQEND
 8
0
  0
POLYLINE
  8
0
 62
     0
 66
     1
 10
0
 20
0
 30
0.0
 70
     1
 40
0.75
 41
0.75
  0
VERTEX
  8
0
 10
6.1396
 20
5.70714
 30
0.0
 40
0.0104167
 41
0.0104167
  0
VERTEX
  8
0
 10
6.1396
 20
4.66797
 30
0.0
 40
0.0104167
 41
0.0104167
  0
VERTEX
  8
0
 10
6.7595
 20
4.66797
 30
0.0
 40
0.0104167
 41
0.0104167
  0
VERTEX
  8
0
 10
6.7595
 20
5.70714
 30
0.0
 40
0.0104167
 41
0.0104167
  0
VERTEX
  8
0
 10
6.1396
 20
5.70714
 30
0.0
 40
0.0104167
 41
0.0104167
  0
SEQEND
 8
0
  0
POLYLINE
  8
0
 62
     253
 66
     1
 10
0
 20
0
 30
0.0
 40
0.75
 41
0.75
  0
VERTEX
  8
0
 10
6.44954
 20
4.66797
 30
0.0
 40
0.0104167
 41
0.0104167
  0
VERTEX
  8
0
 10
6.44954
 20
5.70714
 30
0.0
 40
0.0104167
 41
0.0104167
  0
SEQEND
 8
0
  0
POLYLINE
  8
0
 62
     7
 66
     1
 10
0
 20
0
 30
0.0
 70
     1
 40
0
 41
0
  0
VERTEX
  8
0
 10
6.14031
 20
2.14871
 30
0.0
 40
0
 41
0
  0
VERTEX
  8
0
 10
6.68614
 20
2.14871
 30
0.0
 40
0
 41
0
  0
VERTEX
  8
0
 10
6.68614
 20
2.04454
 30
0.0
 40
0
 41
0
  0
VERTEX
  8
0
 10
6.14031
 20
2.04454
 30
0.0
 40
0
 41
0
  0
VERTEX
  8
0
 10
6.14031
 20
2.14871
 30
0.0
 40
0
 41
0
  0
SEQEND
 8
0
  0
POLYLINE
  8
0
 62
     0
 66
     1
 10
0
 20
0
 30
0.0
 70
     1
 40
0.75
 41
0.75
  0
VERTEX
  8
0
 10
6.14031
 20
2.14871
 30
0.0
 40
0.0104167
 41
0.0104167
  0
VERTEX
  8
0
 10
6.14031
 20
2.04454
 30
0.0
 40
0.0104167
 41
0.0104167
  0
VERTEX
  8
0
 10
6.68614
 20
2.04454
 30
0.0
 40
0.0104167
 41
0.0104167
  0
VERTEX
  8
0
 10
6.68614
 20
2.14871
 30
0.0
 40
0.0104167
 41
0.0104167
  0
VERTEX
  8
0
 10
6.14031
 20
2.14871
 30
0.0
 40
0.0104167
 41
0.0104167
  0
SEQEND
 8
0
  0
POLYLINE
  8
0
 62
     7
 66
     1
 10
0
 20
0
 30
0.0
 70
     1
 40
0
 41
0
  0
VERTEX
  8
0
 10
4.17725
 20
2.12061
 30
0.0
 40
0
 41
0
  0
VERTEX
  8
0
 10
4.7231
 20
2.12061
 30
0.0
 40
0
 41
0
  0
VERTEX
  8
0
 10
4.7231
 20
2.04454
 30
0.0
 40
0
 41
0
  0
VERTEX
  8
0
 10
4.17725
 20
2.04454
 30
0.0
 40
0
 41
0
  0
VERTEX
  8
0
 10
4.17725
 20
2.12061
 30
0.0
 40
0
 41
0
  0
SEQEND
 8
0
  0
POLYLINE
  8
0
 62
     0
 66
     1
 10
0
 20
0
 30
0.0
 70
     1
 40
0.54795
 41
0.54795
  0
VERTEX
  8
0
 10
4.17725
 20
2.12061
 30
0.0
 40
0.00761042
 41
0.00761042
  0
VERTEX
  8
0
 10
4.17725
 20
2.04454
 30
0.0
 40
0.00761042
 41
0.00761042
  0
VERTEX
  8
0
 10
4.7231
 20
2.04454
 30
0.0
 40
0.00761042
 41
0.00761042
  0
VERTEX
  8
0
 10
4.7231
 20
2.12061
 30
0.0
 40
0.00761042
 41
0.00761042
  0
VERTEX
  8
0
 10
4.17725
 20
2.12061
 30
0.0
 40
0.00761042
 41
0.00761042
  0
SEQEND
 8
0
  0
POLYLINE
  8
0
 62
     7
 66
     1
 10
0
 20
0
 30
0.0
 70
     1
 40
0
 41
0
  0
VERTEX
  8
0
 10
0.963596
 20
7.04807
 30
0.0
 40
0
 41
0
  0
VERTEX
  8
0
 10
2.64085
 20
7.04807
 30
0.0
 40
0
 41
0
  0
VERTEX
  8
0
 10
2.64085
 20
6.47775
 30
0.0
 40
0
 41
0
  0
VERTEX
  8
0
 10
0.963596
 20
6.47775
 30
0.0
 40
0
 41
0
  0
VERTEX
  8
0
 10
0.963596
 20
7.04807
 30
0.0
 40
0
 41
0
  0
SEQEND
 8
0
  0
POLYLINE
  8
0
 62
     0
 66
     1
 10
0
 20
0
 30
0.0
 70
     1
 40
0.75
 41
0.75
  0
VERTEX
  8
0
 10
0.963596
 20
7.04807
 30
0.0
 40
0.0104167
 41
0.0104167
  0
VERTEX
  8
0
 10
2.64085
 20
7.04807
 30
0.0
 40
0.0104167
 41
0.0104167
  0
VERTEX
  8
0
 10
2.64085
 20
6.47775
 30
0.0
 40
0.0104167
 41
0.0104167
  0
VERTEX
  8
0
 10
0.963596
 20
6.47775
 30
0.0
 40
0.0104167
 41
0.0104167
  0
VERTEX
  8
0
 10
0.963596
 20
7.04807
 30
0.0
 40
0.0104167
 41
0.0104167
  0
SEQEND
 8
0
  0
POLYLINE
  8
0
 62
     253
 66
     1
 10
0
 20
0
 30
0.0
 40
0.75
 41
0.75
  0
VERTEX
  8
0
 10
0.963596
 20
6.76292
 30
0.0
 40
0.0104167
 41
0.0104167
  0
VERTEX
  8
0
 10
2.6409
 20
6.76292
 30
0.0
 40
0.0104167
 41
0.0104167
  0
SEQEND
 8
0
  0
POLYLINE
  8
0
 62
     7
 66
     1
 10
0
 20
0
 30
0.0
 70
     1
 40
0
 41
0
  0
VERTEX
  8
0
 10
0.963596
 20
6.47775
 30
0.0
 40
0
 41
0
  0
VERTEX
  8
0
 10
1.51535
 20
6.47775
 30
0.0
 40
0
 41
0
  0
VERTEX
  8
0
 10
1.51535
 20
5.81401
 30
0.0
 40
0
 41
0
  0
VERTEX
  8
0
 10
0.963596
 20
5.81401
 30
0.0
 40
0
 41
0
  0
VERTEX
  8
0
 10
0.963596
 20
6.47775
 30
0.0
 40
0
 41
0
  0
SEQEND
 8
0
  0
POLYLINE
  8
0
 62
     0
 66
     1
 10
0
 20
0
 30
0.0
 70
     1
 40
0.75
 41
0.75
  0
VERTEX
  8
0
 10
0.963596
 20
6.47775
 30
0.0
 40
0.0104167
 41
0.0104167
  0
VERTEX
  8
0
 10
0.963596
 20
5.81401
 30
0.0
 40
0.0104167
 41
0.0104167
  0
VERTEX
  8
0
 10
1.51535
 20
5.81401
 30
0.0
 40
0.0104167
 41
0.0104167
  0
VERTEX
  8
0
 10
1.51535
 20
6.47775
 30
0.0
 40
0.0104167
 41
0.0104167
  0
VERTEX
  8
0
 10
0.963596
 20
6.47775
 30
0.0
 40
0.0104167
 41
0.0104167
  0
SEQEND
 8
0
  0
POLYLINE
  8
0
 62
     7
 66
     1
 10
0
 20
0
 30
0.0
 70
     1
 40
0
 41
0
  0
VERTEX
  8
0
 10
2.86931
 20
6.00379
 30
0.0
 40
0
 41
0
  0
VERTEX
  8
0
 10
3.28586
 20
6.00379
 30
0.0
 40
0
 41
0
  0
VERTEX
  8
0
 10
3.28586
 20
5.81651
 30
0.0
 40
0
 41
0
  0
VERTEX
  8
0
 10
2.86931
 20
5.81651
 30
0.0
 40
0
 41
0
  0
VERTEX
  8
0
 10
2.86931
 20
6.00379
 30
0.0
 40
0
 41
0
  0
SEQEND
 8
0
  0
POLYLINE
  8
0
 62
     0
 66
     1
 10
0
 20
0
 30
0.0
 70
     1
 40
0.75
 41
0.75
  0
VERTEX
  8
0
 10
2.86931
 20
6.00379
 30
0.0
 40
0.0104167
 41
0.0104167
  0
VERTEX
  8
0
 10
3.28586
 20
6.00379
 30
0.0
 40
0.0104167
 41
0.0104167
  0
VERTEX
  8
0
 10
3.28586
 20
5.81651
 30
0.0
 40
0.0104167
 41
0.0104167
  0
VERTEX
  8
0
 10
2.86931
 20
5.81651
 30
0.0
 40
0.0104167
 41
0.0104167
  0
VERTEX
  8
0
 10
2.86931
 20
6.00379
 30
0.0
 40
0.0104167
 41
0.0104167
  0
SEQEND
 8
0
  0
POLYLINE
  8
0
 62
     7
 66
     1
 10
0
 20
0
 30
0.0
 70
     1
 40
0
 41
0
  0
VERTEX
  8
0
 10
2.86931
 20
6.27214
 30
0.0
 40
0
 41
0
  0
VERTEX
  8
0
 10
2.86931
 20
6.27214
 30
0.0
 40
0
 41
0
  0
VERTEX
  8
0
 10
2.86919
 20
6.2839
 30
0.0
 40
0
 41
0
  0
VERTEX
  8
0
 10
2.87082
 20
6.31489
 30
0.0
 40
0
 41
0
  0
VERTEX
  8
0
 10
2.87696
 20
6.35872
 30
0.0
 40
0
 41
0
  0
VERTEX
  8
0
 10
2.8904
 20
6.4089
 30
0.0
 40
0
 41
0
  0
VERTEX
  8
0
 10
2.91396
 20
6.45915
 30
0.0
 40
0
 41
0
  0
VERTEX
  8
0
 10
2.95042
 20
6.50299
 30
0.0
 40
0
 41
0
  0
VERTEX
  8
0
 10
3.00261
 20
6.53396
 30
0.0
 40
0
 41
0
  0
VERTEX
  8
0
 10
3.05567
 20
6.54568
 30
0.0
 40
0
 41
0
  0
VERTEX
  8
0
 10
3.07335
 20
6.54568
 30
0.0
 40
0
 41
0
  0
VERTEX
  8
0
 10
3.09164
 20
6.54568
 30
0.0
 40
0
 41
0
  0
VERTEX
  8
0
 10
3.14649
 20
6.53396
 30
0.0
 40
0
 41
0
  0
VERTEX
  8
0
 10
3.20053
 20
6.50299
 30
0.0
 40
0
 41
0
  0
VERTEX
  8
0
 10
3.23833
 20
6.45915
 30
0.0
 40
0
 41
0
  0
VERTEX
  8
0
 10
3.26281
 20
6.4089
 30
0.0
 40
0
 41
0
  0
VERTEX
  8
0
 10
3.27681
 20
6.35872
 30
0.0
 40
0
 41
0
  0
VERTEX
  8
0
 10
3.28321
 20
6.31489
 30
0.0
 40
0
 41
0
  0
VERTEX
  8
0
 10
3.28494
 20
6.2839
 30
0.0
 40
0
 41
0
  0
VERTEX
  8
0
 10
3.28489
 20
6.27214
 30
0.0
 40
0
 41
0
  0
VERTEX
  8
0
 10
3.28489
 20
6.27214
 30
0.0
 40
0
 41
0
  0
VERTEX
  8
0
 10
3.28592
 20
6.00379
 30
0.0
 40
0
 41
0
  0
VERTEX
  8
0
 10
2.86931
 20
6.00379
 30
0.0
 40
0
 41
0
  0
VERTEX
  8
0
 10
2.86931
 20
6.27214
 30
0.0
 40
0
 41
0
  0
SEQEND
 8
0
  0
POLYLINE
  8
0
 62
     0
 66
     1
 10
0
 20
0
 30
0.0
 70
     1
 40
0.75
 41
0.75
  0
VERTEX
  8
0
 10
2.86931
 20
6.27214
 30
0.0
 40
0.0104167
 41
0.0104167
  0
VERTEX
  8
0
 10
2.86931
 20
6.27214
 30
0.0
 40
0.0104167
 41
0.0104167
  0
VERTEX
  8
0
 10
2.86919
 20
6.2839
 30
0.0
 40
0.0104167
 41
0.0104167
  0
VERTEX
  8
0
 10
2.87082
 20
6.31489
 30
0.0
 40
0.0104167
 41
0.0104167
  0
VERTEX
  8
0
 10
2.87696
 20
6.35872
 30
0.0
 40
0.0104167
 41
0.0104167
  0
VERTEX
  8
0
 10
2.8904
 20
6.4089
 30
0.0
 40
0.0104167
 41
0.0104167
  0
VERTEX
  8
0
 10
2.91396
 20
6.45915
 30
0.0
 40
0.0104167
 41
0.0104167
  0
VERTEX
  8
0
 10
2.95042
 20
6.50299
 30
0.0
 40
0.0104167
 41
0.0104167
  0
VERTEX
  8
0
 10
3.00261
 20
6.53396
 30
0.0
 40
0.0104167
 41
0.0104167
  0
VERTEX
  8
0
 10
3.05567
 20
6.54568
 30
0.0
 40
0.0104167
 41
0.0104167
  0
VERTEX
  8
0
 10
3.07335
 20
6.54568
 30
0.0
 40
0.0104167
 41
0.0104167
  0
VERTEX
  8
0
 10
3.09164
 20
6.54568
 30
0.0
 40
0.0104167
 41
0.0104167
  0
VERTEX
  8
0
 10
3.14649
 20
6.53396
 30
0.0
 40
0.0104167
 41
0.0104167
  0
VERTEX
  8
0
 10
3.20053
 20
6.50299
 30
0.0
 40
0.0104167
 41
0.0104167
  0
VERTEX
  8
0
 10
3.23833
 20
6.45915
 30
0.0
 40
0.0104167
 41
0.0104167
  0
VERTEX
  8
0
 10
3.26281
 20
6.4089
 30
0.0
 40
0.0104167
 41
0.0104167
  0
VERTEX
  8
0
 10
3.27681
 20
6.35872
 30
0.0
 40
0.0104167
 41
0.0104167
  0
VERTEX
  8
0
 10
3.28321
 20
6.31489
 30
0.0
 40
0.0104167
 41
0.0104167
  0
VERTEX
  8
0
 10
3.28494
 20
6.2839
 30
0.0
 40
0.0104167
 41
0.0104167
  0
VERTEX
  8
0
 10
3.28489
 20
6.27214
 30
0.0
 40
0.0104167
 41
0.0104167
  0
VERTEX
  8
0
 10
3.28489
 20
6.27214
 30
0.0
 40
0.0104167
 41
0.0104167
  0
VERTEX
  8
0
 10
3.28592
 20
6.00379
 30
0.0
 40
0.0104167
 41
0.0104167
  0
VERTEX
  8
0
 10
2.86931
 20
6.00379
 30
0.0
 40
0.0104167
 41
0.0104167
  0
VERTEX
  8
0
 10
2.86931
 20
6.27214
 30
0.0
 40
0.0104167
 41
0.0104167
  0
SEQEND
 8
0
  0
POLYLINE
  8
0
 62
     7
 66
     1
 10
0
 20
0
 30
0.0
 70
     1
 40
0
 41
0
  0
VERTEX
  8
0
 10
3.04449
 20
5.92594
 30
0.0
 40
0
 41
0
  0
VERTEX
  8
0
 10
3.11074
 20
5.92594
 30
0.0
 40
0
 41
0
  0
VERTEX
  8
0
 10
3.11074
 20
5.89442
 30
0.0
 40
0
 41
0
  0
VERTEX
  8
0
 10
3.04449
 20
5.89442
 30
0.0
 40
0
 41
0
  0
VERTEX
  8
0
 10
3.04449
 20
5.92594
 30
0.0
 40
0
 41
0
  0
SEQEND
 8
0
  0
POLYLINE
  8
0
 62
     0
 66
     1
 10
0
 20
0
 30
0.0
 70
     1
 40
0.75
 41
0.75
  0
VERTEX
  8
0
 10
3.04449
 20
5.92594
 30
0.0
 40
0.0104167
 41
0.0104167
  0
VERTEX
  8
0
 10
3.11074
 20
5.92594
 30
0.0
 40
0.0104167
 41
0.0104167
  0
VERTEX
  8
0
 10
3.11074
 20
5.89442
 30
0.0
 40
0.0104167
 41
0.0104167
  0
VERTEX
  8
0
 10
3.04449
 20
5.89442
 30
0.0
 40
0.0104167
 41
0.0104167
  0
VERTEX
  8
0
 10
3.04449
 20
5.92594
 30
0.0
 40
0.0104167
 41
0.0104167
  0
SEQEND
 8
0
  0
POLYLINE
  8
0
 62
     7
 66
     1
 10
0
 20
0
 30
0.0
 70
     1
 40
0
 41
0
  0
VERTEX
  8
0
 10
3.42339
 20
6.22125
 30
0.0
 40
0
 41
0
  0
VERTEX
  8
0
 10
3.94342
 20
6.22125
 30
0.0
 40
0
 41
0
  0
VERTEX
  8
0
 10
3.94342
 20
5.81131
 30
0.0
 40
0
 41
0
  0
VERTEX
  8
0
 10
3.42339
 20
5.81131
 30
0.0
 40
0
 41
0
  0
VERTEX
  8
0
 10
3.42339
 20
6.22125
 30
0.0
 40
0
 41
0
  0
SEQEND
 8
0
  0
POLYLINE
  8
0
 62
     0
 66
     1
 10
0
 20
0
 30
0.0
 70
     1
 40
0.75
 41
0.75
  0
VERTEX
  8
0
 10
3.42339
 20
6.22125
 30
0.0
 40
0.0104167
 41
0.0104167
  0
VERTEX
  8
0
 10
3.94342
 20
6.22125
 30
0.0
 40
0.0104167
 41
0.0104167
  0
VERTEX
  8
0
 10
3.94342
 20
5.81131
 30
0.0
 40
0.0104167
 41
0.0104167
  0
VERTEX
  8
0
 10
3.42339
 20
5.81131
 30
0.0
 40
0.0104167
 41
0.0104167
  0
VERTEX
  8
0
 10
3.42339
 20
6.22125
 30
0.0
 40
0.0104167
 41
0.0104167
  0
SEQEND
 8
0
  0
POLYLINE
  8
0
 62
     7
 66
     1
 10
0
 20
0
 30
0.0
 70
     1
 40
0
 41
0
  0
VERTEX
  8
0
 10
3.46674
 20
6.18494
 30
0.0
 40
0
 41
0
  0
VERTEX
  8
0
 10
3.90007
 20
6.18494
 30
0.0
 40
0
 41
0
  0
VERTEX
  8
0
 10
3.90007
 20
5.91238
 30
0.0
 40
0
 41
0
  0
VERTEX
  8
0
 10
3.46674
 20
5.91238
 30
0.0
 40
0
 41
0
  0
VERTEX
  8
0
 10
3.46674
 20
6.18494
 30
0.0
 40
0
 41
0
  0
SEQEND
 8
0
  0
POLYLINE
  8
0
 62
     0
 66
     1
 10
0
 20
0
 30
0.0
 70
     1
 40
0.75
 41
0.75
  0
VERTEX
  8
0
 10
3.46674
 20
6.18494
 30
0.0
 40
0.0104167
 41
0.0104167
  0
VERTEX
  8
0
 10
3.90007
 20
6.18494
 30
0.0
 40
0.0104167
 41
0.0104167
  0
VERTEX
  8
0
 10
3.90007
 20
5.91238
 30
0.0
 40
0.0104167
 41
0.0104167
  0
VERTEX
  8
0
 10
3.46674
 20
5.91238
 30
0.0
 40
0.0104167
 41
0.0104167
  0
VERTEX
  8
0
 10
3.46674
 20
6.18494
 30
0.0
 40
0.0104167
 41
0.0104167
  0
SEQEND
 8
0
  0
POLYLINE
  8
0
 62
     7
 66
     1
 10
0
 20
0
 30
0.0
 70
     1
 40
0
 41
0
  0
VERTEX
  8
0
 10
3.64697
 20
6.03131
 30
0.0
 40
0
 41
0
  0
VERTEX
  8
0
 10
3.64697
 20
6.03776
 30
0.0
 40
0
 41
0
  0
VERTEX
  8
0
 10
3.65761
 20
6.05713
 30
0.0
 40
0
 41
0
  0
VERTEX
  8
0
 10
3.67697
 20
6.06776
 30
0.0
 40
0
 41
0
  0
VERTEX
  8
0
 10
3.68343
 20
6.06776
 30
0.0
 40
0
 41
0
  0
VERTEX
  8
0
 10
3.68983
 20
6.06776
 30
0.0
 40
0
 41
0
  0
VERTEX
  8
0
 10
3.70921
 20
6.05713
 30
0.0
 40
0
 41
0
  0
VERTEX
  8
0
 10
3.71989
 20
6.03776
 30
0.0
 40
0
 41
0
  0
VERTEX
  8
0
 10
3.71989
 20
6.03131
 30
0.0
 40
0
 41
0
  0
VERTEX
  8
0
 10
3.71989
 20
6.0249
 30
0.0
 40
0
 41
0
  0
VERTEX
  8
0
 10
3.70921
 20
6.00553
 30
0.0
 40
0
 41
0
  0
VERTEX
  8
0
 10
3.68983
 20
5.99485
 30
0.0
 40
0
 41
0
  0
VERTEX
  8
0
 10
3.68343
 20
5.99485
 30
0.0
 40
0
 41
0
  0
VERTEX
  8
0
 10
3.67697
 20
5.99485
 30
0.0
 40
0
 41
0
  0
VERTEX
  8
0
 10
3.65761
 20
6.00553
 30
0.0
 40
0
 41
0
  0
VERTEX
  8
0
 10
3.64697
 20
6.0249
 30
0.0
 40
0
 41
0
  0
VERTEX
  8
0
 10
3.64697
 20
6.03131
 30
0.0
 40
0
 41
0
  0
SEQEND
 8
0
  0
POLYLINE
  8
0
 62
     0
 66
     1
 10
0
 20
0
 30
0.0
 70
     1
 40
0.6
 41
0.6
  0
VERTEX
  8
0
 10
3.64697
 20
6.03131
 30
0.0
 40
0.00833333
 41
0.00833333
  0
VERTEX
  8
0
 10
3.64697
 20
6.03776
 30
0.0
 40
0.00833333
 41
0.00833333
  0
VERTEX
  8
0
 10
3.65761
 20
6.05713
 30
0.0
 40
0.00833333
 41
0.00833333
  0
VERTEX
  8
0
 10
3.67697
 20
6.06776
 30
0.0
 40
0.00833333
 41
0.00833333
  0
VERTEX
  8
0
 10
3.68343
 20
6.06776
 30
0.0
 40
0.00833333
 41
0.00833333
  0
VERTEX
  8
0
 10
3.68983
 20
6.06776
 30
0.0
 40
0.00833333
 41
0.00833333
  0
VERTEX
  8
0
 10
3.70921
 20
6.05713
 30
0.0
 40
0.00833333
 41
0.00833333
  0
VERTEX
  8
0
 10
3.71989
 20
6.03776
 30
0.0
 40
0.00833333
 41
0.00833333
  0
VERTEX
  8
0
 10
3.71989
 20
6.03131
 30
0.0
 40
0.00833333
 41
0.00833333
  0
VERTEX
  8
0
 10
3.71989
 20
6.0249
 30
0.0
 40
0.00833333
 41
0.00833333
  0
VERTEX
  8
0
 10
3.70921
 20
6.00553
 30
0.0
 40
0.00833333
 41
0.00833333
  0
VERTEX
  8
0
 10
3.68983
 20
5.99485
 30
0.0
 40
0.00833333
 41
0.00833333
  0
VERTEX
  8
0
 10
3.68343
 20
5.99485
 30
0.0
 40
0.00833333
 41
0.00833333
  0
VERTEX
  8
0
 10
3.67697
 20
5.99485
 30
0.0
 40
0.00833333
 41
0.00833333
  0
VERTEX
  8
0
 10
3.65761
 20
6.00553
 30
0.0
 40
0.00833333
 41
0.00833333
  0
VERTEX
  8
0
 10
3.64697
 20
6.0249
 30
0.0
 40
0.00833333
 41
0.00833333
  0
VERTEX
  8
0
 10
3.64697
 20
6.03131
 30
0.0
 40
0.00833333
 41
0.00833333
  0
SEQEND
 8
0
  0
POLYLINE
  8
0
 62
     7
 66
     1
 10
0
 20
0
 30
0.0
 70
     1
 40
0
 41
0
  0
VERTEX
  8
0
 10
3.6626
 20
6.03131
 30
0.0
 40
0
 41
0
  0
VERTEX
  8
0
 10
3.6626
 20
6.035
 30
0.0
 40
0
 41
0
  0
VERTEX
  8
0
 10
3.66868
 20
6.04606
 30
0.0
 40
0
 41
0
  0
VERTEX
  8
0
 10
3.67974
 20
6.05214
 30
0.0
 40
0
 41
0
  0
VERTEX
  8
0
 10
3.68343
 20
6.05214
 30
0.0
 40
0
 41
0
  0
VERTEX
  8
0
 10
3.68707
 20
6.05214
 30
0.0
 40
0
 41
0
  0
VERTEX
  8
0
 10
3.69814
 20
6.04606
 30
0.0
 40
0
 41
0
  0
VERTEX
  8
0
 10
3.70426
 20
6.035
 30
0.0
 40
0
 41
0
  0
VERTEX
  8
0
 10
3.70426
 20
6.03131
 30
0.0
 40
0
 41
0
  0
VERTEX
  8
0
 10
3.70426
 20
6.02767
 30
0.0
 40
0
 41
0
  0
VERTEX
  8
0
 10
3.69814
 20
6.0166
 30
0.0
 40
0
 41
0
  0
VERTEX
  8
0
 10
3.68707
 20
6.01047
 30
0.0
 40
0
 41
0
  0
VERTEX
  8
0
 10
3.68343
 20
6.01047
 30
0.0
 40
0
 41
0
  0
VERTEX
  8
0
 10
3.67974
 20
6.01047
 30
0.0
 40
0
 41
0
  0
VERTEX
  8
0
 10
3.66868
 20
6.0166
 30
0.0
 40
0
 41
0
  0
VERTEX
  8
0
 10
3.6626
 20
6.02767
 30
0.0
 40
0
 41
0
  0
VERTEX
  8
0
 10
3.6626
 20
6.03131
 30
0.0
 40
0
 41
0
  0
SEQEND
 8
0
  0
POLYLINE
  8
0
 62
     0
 66
     1
 10
0
 20
0
 30
0.0
 70
     1
 40
0.6
 41
0.6
  0
VERTEX
  8
0
 10
3.6626
 20
6.03131
 30
0.0
 40
0.00833333
 41
0.00833333
  0
VERTEX
  8
0
 10
3.6626
 20
6.035
 30
0.0
 40
0.00833333
 41
0.00833333
  0
VERTEX
  8
0
 10
3.66868
 20
6.04606
 30
0.0
 40
0.00833333
 41
0.00833333
  0
VERTEX
  8
0
 10
3.67974
 20
6.05214
 30
0.0
 40
0.00833333
 41
0.00833333
  0
VERTEX
  8
0
 10
3.68343
 20
6.05214
 30
0.0
 40
0.00833333
 41
0.00833333
  0
VERTEX
  8
0
 10
3.68707
 20
6.05214
 30
0.0
 40
0.00833333
 41
0.00833333
  0
VERTEX
  8
0
 10
3.69814
 20
6.04606
 30
0.0
 40
0.00833333
 41
0.00833333
  0
VERTEX
  8
0
 10
3.70426
 20
6.035
 30
0.0
 40
0.00833333
 41
0.00833333
  0
VERTEX
  8
0
 10
3.70426
 20
6.03131
 30
0.0
 40
0.00833333
 41
0.00833333
  0
VERTEX
  8
0
 10
3.70426
 20
6.02767
 30
0.0
 40
0.00833333
 41
0.00833333
  0
VERTEX
  8
0
 10
3.69814
 20
6.0166
 30
0.0
 40
0.00833333
 41
0.00833333
  0
VERTEX
  8
0
 10
3.68707
 20
6.01047
 30
0.0
 40
0.00833333
 41
0.00833333
  0
VERTEX
  8
0
 10
3.68343
 20
6.01047
 30
0.0
 40
0.00833333
 41
0.00833333
  0
VERTEX
  8
0
 10
3.67974
 20
6.01047
 30
0.0
 40
0.00833333
 41
0.00833333
  0
VERTEX
  8
0
 10
3.66868
 20
6.0166
 30
0.0
 40
0.00833333
 41
0.00833333
  0
VERTEX
  8
0
 10
3.6626
 20
6.02767
 30
0.0
 40
0.00833333
 41
0.00833333
  0
VERTEX
  8
0
 10
3.6626
 20
6.03131
 30
0.0
 40
0.00833333
 41
0.00833333
  0
SEQEND
 8
0
  0
POLYLINE
  8
0
 62
     7
 66
     1
 10
0
 20
0
 30
0.0
 70
     1
 40
0
 41
0
  0
VERTEX
  8
0
 10
3.64697
 20
5.99132
 30
0.0
 40
0
 41
0
  0
VERTEX
  8
0
 10
3.70947
 20
5.99132
 30
0.0
 40
0
 41
0
  0
VERTEX
  8
0
 10
3.70947
 20
5.84549
 30
0.0
 40
0
 41
0
  0
VERTEX
  8
0
 10
3.64697
 20
5.84549
 30
0.0
 40
0
 41
0
  0
VERTEX
  8
0
 10
3.64697
 20
5.99132
 30
0.0
 40
0
 41
0
  0
SEQEND
 8
0
  0
POLYLINE
  8
0
 62
     0
 66
     1
 10
0
 20
0
 30
0.0
 70
     1
 40
0.75
 41
0.75
  0
VERTEX
  8
0
 10
3.64697
 20
5.99132
 30
0.0
 40
0.0104167
 41
0.0104167
  0
VERTEX
  8
0
 10
3.70947
 20
5.99132
 30
0.0
 40
0.0104167
 41
0.0104167
  0
VERTEX
  8
0
 10
3.70947
 20
5.84549
 30
0.0
 40
0.0104167
 41
0.0104167
  0
VERTEX
  8
0
 10
3.64697
 20
5.84549
 30
0.0
 40
0.0104167
 41
0.0104167
  0
VERTEX
  8
0
 10
3.64697
 20
5.99132
 30
0.0
 40
0.0104167
 41
0.0104167
  0
SEQEND
 8
0
  0
POLYLINE
  8
0
 62
     7
 66
     1
 10
0
 20
0
 30
0.0
 70
     1
 40
0
 41
0
  0
VERTEX
  8
0
 10
8.00043
 20
6.19694
 30
0.0
 40
0
 41
0
  0
VERTEX
  8
0
 10
9.17763
 20
6.19694
 30
0.0
 40
0
 41
0
  0
VERTEX
  8
0
 10
9.17763
 20
5.81164
 30
0.0
 40
0
 41
0
  0
VERTEX
  8
0
 10
8.00043
 20
5.81164
 30
0.0
 40
0
 41
0
  0
VERTEX
  8
0
 10
8.00043
 20
6.19694
 30
0.0
 40
0
 41
0
  0
SEQEND
 8
0
  0
POLYLINE
  8
0
 62
     0
 66
     1
 10
0
 20
0
 30
0.0
 70
     1
 40
0.75
 41
0.75
  0
VERTEX
  8
0
 10
8.00043
 20
6.19694
 30
0.0
 40
0.0104167
 41
0.0104167
  0
VERTEX
  8
0
 10
9.17763
 20
6.19694
 30
0.0
 40
0.0104167
 41
0.0104167
  0
VERTEX
  8
0
 10
9.17763
 20
5.81164
 30
0.0
 40
0.0104167
 41
0.0104167
  0
VERTEX
  8
0
 10
8.00043
 20
5.81164
 30
0.0
 40
0.0104167
 41
0.0104167
  0
VERTEX
  8
0
 10
8.00043
 20
6.19694
 30
0.0
 40
0.0104167
 41
0.0104167
  0
SEQEND
 8
0
  0
POLYLINE
  8
0
 62
     7
 66
     1
 10
0
 20
0
 30
0.0
 70
     1
 40
0
 41
0
  0
VERTEX
  8
0
 10
9.63872
 20
7.62294
 30
0.0
 40
0
 41
0
  0
VERTEX
  8
0
 10
10.2529
 20
7.62294
 30
0.0
 40
0
 41
0
  0
VERTEX
  8
0
 10
10.2529
 20
7.08513
 30
0.0
 40
0
 41
0
  0
VERTEX
  8
0
 10
9.63872
 20
7.08513
 30
0.0
 40
0
 41
0
  0
VERTEX
  8
0
 10
9.63872
 20
7.62294
 30
0.0
 40
0
 41
0
  0
SEQEND
 8
0
  0
POLYLINE
  8
0
 62
     0
 66
     1
 10
0
 20
0
 30
0.0
 70
     1
 40
0.645375
 41
0.645375
  0
VERTEX
  8
0
 10
9.63872
 20
7.62294
 30
0.0
 40
0.00896354
 41
0.00896354
  0
VERTEX
  8
0
 10
9.63872
 20
7.08513
 30
0.0
 40
0.00896354
 41
0.00896354
  0
VERTEX
  8
0
 10
10.2529
 20
7.08513
 30
0.0
 40
0.00896354
 41
0.00896354
  0
VERTEX
  8
0
 10
10.2529
 20
7.62294
 30
0.0
 40
0.00896354
 41
0.00896354
  0
VERTEX
  8
0
 10
9.63872
 20
7.62294
 30
0.0
 40
0.00896354
 41
0.00896354
  0
SEQEND
 8
0
  0
POLYLINE
  8
0
 62
     0
 66
     1
 10
0
 20
0
 30
0.0
 40
0.645375
 41
0.645375
  0
VERTEX
  8
0
 10
10.2529
 20
7.62294
 30
0.0
 40
0.00896354
 41
0.00896354
  0
VERTEX
  8
0
 10
9.84549
 20
7.35314
 30
0.0
 40
0.00896354
 41
0.00896354
  0
VERTEX
  8
0
 10
10.0543
 20
7.35314
 30
0.0
 40
0.00896354
 41
0.00896354
  0
VERTEX
  8
0
 10
9.63872
 20
7.08599
 30
0.0
 40
0.00896354
 41
0.00896354
  0
SEQEND
 8
0
  0
POLYLINE
  8
0
 62
     7
 66
     1
 10
0
 20
0
 30
0.0
 70
     1
 40
0
 41
0
  0
VERTEX
  8
0
 10
9.36849
 20
8.0989
 30
0.0
 40
0
 41
0
  0
VERTEX
  8
0
 10
10.1062
 20
8.0989
 30
0.0
 40
0
 41
0
  0
VERTEX
  8
0
 10
10.1062
 20
7.72775
 30
0.0
 40
0
 41
0
  0
VERTEX
  8
0
 10
9.36849
 20
7.72775
 30
0.0
 40
0
 41
0
  0
VERTEX
  8
0
 10
9.36849
 20
8.0989
 30
0.0
 40
0
 41
0
  0
SEQEND
 8
0
  0
POLYLINE
  8
0
 62
     0
 66
     1
 10
0
 20
0
 30
0.0
 70
     1
 40
0.75
 41
0.75
  0
VERTEX
  8
0
 10
9.36849
 20
8.0989
 30
0.0
 40
0.0104167
 41
0.0104167
  0
VERTEX
  8
0
 10
10.1062
 20
8.0989
 30
0.0
 40
0.0104167
 41
0.0104167
  0
VERTEX
  8
0
 10
10.1062
 20
7.72775
 30
0.0
 40
0.0104167
 41
0.0104167
  0
VERTEX
  8
0
 10
9.36849
 20
7.72775
 30
0.0
 40
0.0104167
 41
0.0104167
  0
VERTEX
  8
0
 10
9.36849
 20
8.0989
 30
0.0
 40
0.0104167
 41
0.0104167
  0
SEQEND
 8
0
  0
POLYLINE
  8
0
 62
     7
 66
     1
 10
0
 20
0
 30
0.0
 70
     1
 40
0
 41
0
  0
VERTEX
  8
0
 10
9.67563
 20
9.56743
 30
0.0
 40
0
 41
0
  0
VERTEX
  8
0
 10
9.79226
 20
9.56743
 30
0.0
 40
0
 41
0
  0
VERTEX
  8
0
 10
9.79226
 20
9.50385
 30
0.0
 40
0
 41
0
  0
VERTEX
  8
0
 10
9.67563
 20
9.50385
 30
0.0
 40
0
 41
0
  0
VERTEX
  8
0
 10
9.67563
 20
9.56743
 30
0.0
 40
0
 41
0
  0
SEQEND
 8
0
  0
POLYLINE
  8
0
 62
     0
 66
     1
 10
0
 20
0
 30
0.0
 70
     1
 40
0.75
 41
0.75
  0
VERTEX
  8
0
 10
9.67563
 20
9.56743
 30
0.0
 40
0.0104167
 41
0.0104167
  0
VERTEX
  8
0
 10
9.79226
 20
9.56743
 30
0.0
 40
0.0104167
 41
0.0104167
  0
VERTEX
  8
0
 10
9.79226
 20
9.50385
 30
0.0
 40
0.0104167
 41
0.0104167
  0
VERTEX
  8
0
 10
9.67563
 20
9.50385
 30
0.0
 40
0.0104167
 41
0.0104167
  0
VERTEX
  8
0
 10
9.67563
 20
9.56743
 30
0.0
 40
0.0104167
 41
0.0104167
  0
SEQEND
 8
0
  0
POLYLINE
  8
0
 62
     7
 66
     1
 10
0
 20
0
 30
0.0
 70
     1
 40
0
 41
0
  0
VERTEX
  8
0
 10
9.82042
 20
9.56743
 30
0.0
 40
0
 41
0
  0
VERTEX
  8
0
 10
9.93707
 20
9.56743
 30
0.0
 40
0
 41
0
  0
VERTEX
  8
0
 10
9.93707
 20
9.50385
 30
0.0
 40
0
 41
0
  0
VERTEX
  8
0
 10
9.82042
 20
9.50385
 30
0.0
 40
0
 41
0
  0
VERTEX
  8
0
 10
9.82042
 20
9.56743
 30
0.0
 40
0
 41
0
  0
SEQEND
 8
0
  0
POLYLINE
  8
0
 62
     0
 66
     1
 10
0
 20
0
 30
0.0
 70
     1
 40
0.75
 41
0.75
  0
VERTEX
  8
0
 10
9.82042
 20
9.56743
 30
0.0
 40
0.0104167
 41
0.0104167
  0
VERTEX
  8
0
 10
9.93707
 20
9.56743
 30
0.0
 40
0.0104167
 41
0.0104167
  0
VERTEX
  8
0
 10
9.93707
 20
9.50385
 30
0.0
 40
0.0104167
 41
0.0104167
  0
VERTEX
  8
0
 10
9.82042
 20
9.50385
 30
0.0
 40
0.0104167
 41
0.0104167
  0
VERTEX
  8
0
 10
9.82042
 20
9.56743
 30
0.0
 40
0.0104167
 41
0.0104167
  0
SEQEND
 8
0
  0
POLYLINE
  8
0
 62
     7
 66
     1
 10
0
 20
0
 30
0.0
 70
     1
 40
0
 41
0
  0
VERTEX
  8
0
 10
9.93604
 20
9.56743
 30
0.0
 40
0
 41
0
  0
VERTEX
  8
0
 10
9.97146
 20
9.56743
 30
0.0
 40
0
 41
0
  0
VERTEX
  8
0
 10
9.97146
 20
9.50385
 30
0.0
 40
0
 41
0
  0
VERTEX
  8
0
 10
9.93604
 20
9.50385
 30
0.0
 40
0
 41
0
  0
VERTEX
  8
0
 10
9.93604
 20
9.56743
 30
0.0
 40
0
 41
0
  0
SEQEND
 8
0
  0
POLYLINE
  8
0
 62
     0
 66
     1
 10
0
 20
0
 30
0.0
 70
     1
 40
0.75
 41
0.75
  0
VERTEX
  8
0
 10
9.93604
 20
9.56743
 30
0.0
 40
0.0104167
 41
0.0104167
  0
VERTEX
  8
0
 10
9.97146
 20
9.56743
 30
0.0
 40
0.0104167
 41
0.0104167
  0
VERTEX
  8
0
 10
9.97146
 20
9.50385
 30
0.0
 40
0.0104167
 41
0.0104167
  0
VERTEX
  8
0
 10
9.93604
 20
9.50385
 30
0.0
 40
0.0104167
 41
0.0104167
  0
VERTEX
  8
0
 10
9.93604
 20
9.56743
 30
0.0
 40
0.0104167
 41
0.0104167
  0
SEQEND
 8
0
  0
POLYLINE
  8
0
 62
     7
 66
     1
 10
0
 20
0
 30
0.0
 70
     1
 40
0
 41
0
  0
VERTEX
  8
0
 10
9.64225
 20
9.56743
 30
0.0
 40
0
 41
0
  0
VERTEX
  8
0
 10
9.67563
 20
9.56743
 30
0.0
 40
0
 41
0
  0
VERTEX
  8
0
 10
9.67563
 20
9.50385
 30
0.0
 40
0
 41
0
  0
VERTEX
  8
0
 10
9.64225
 20
9.50385
 30
0.0
 40
0
 41
0
  0
VERTEX
  8
0
 10
9.64225
 20
9.56743
 30
0.0
 40
0
 41
0
  0
SEQEND
 8
0
  0
POLYLINE
  8
0
 62
     0
 66
     1
 10
0
 20
0
 30
0.0
 70
     1
 40
0.75
 41
0.75
  0
VERTEX
  8
0
 10
9.64225
 20
9.56743
 30
0.0
 40
0.0104167
 41
0.0104167
  0
VERTEX
  8
0
 10
9.67563
 20
9.56743
 30
0.0
 40
0.0104167
 41
0.0104167
  0
VERTEX
  8
0
 10
9.67563
 20
9.50385
 30
0.0
 40
0.0104167
 41
0.0104167
  0
VERTEX
  8
0
 10
9.64225
 20
9.50385
 30
0.0
 40
0.0104167
 41
0.0104167
  0
VERTEX
  8
0
 10
9.64225
 20
9.56743
 30
0.0
 40
0.0104167
 41
0.0104167
  0
SEQEND
 8
0
  0
POLYLINE
  8
0
 62
     7
 66
     1
 10
0
 20
0
 30
0.0
 70
     1
 40
0
 41
0
  0
VERTEX
  8
0
 10
9.79226
 20
9.4841
 30
0.0
 40
0
 41
0
  0
VERTEX
  8
0
 10
9.79226
 20
9.47781
 30
0.0
 40
0
 41
0
  0
VERTEX
  8
0
 10
9.78857
 20
9.45888
 30
0.0
 40
0
 41
0
  0
VERTEX
  8
0
 10
9.77869
 20
9.43647
 30
0.0
 40
0
 41
0
  0
VERTEX
  8
0
 10
9.77561
 20
9.43201
 30
0.0
 40
0
 41
0
  0
VERTEX
  8
0
 10
9.77453
 20
9.43044
 30
0.0
 40
0
 41
0
  0
VERTEX
  8
0
 10
9.76437
 20
9.41585
 30
0.0
 40
0
 41
0
  0
VERTEX
  8
0
 10
9.76417
 20
9.41428
 30
0.0
 40
0
 41
0
  0
VERTEX
  8
0
 10
9.76361
 20
9.41146
 30
0.0
 40
0
 41
0
  0
VERTEX
  8
0
 10
9.76774
 20
9.39492
 30
0.0
 40
0
 41
0
  0
VERTEX
  8
0
 10
9.78444
 20
9.38206
 30
0.0
 40
0
 41
0
  0
VERTEX
  8
0
 10
9.79021
 20
9.38097
 30
0.0
 40
0
 41
0
  0
VERTEX
  8
0
 10
9.7915
 20
9.38075
 30
0.0
 40
0
 41
0
  0
VERTEX
  8
0
 10
9.803
 20
9.37993
 30
0.0
 40
0
 41
0
  0
VERTEX
  8
0
 10
9.80686
 20
9.37993
 30
0.0
 40
0
 41
0
  0
VERTEX
  8
0
 10
9.80583
 20
9.37993
 30
0.0
 40
0
 41
0
  0
VERTEX
  8
0
 10
9.80994
 20
9.37993
 30
0.0
 40
0
 41
0
  0
VERTEX
  8
0
 10
9.82118
 20
9.38075
 30
0.0
 40
0
 41
0
  0
VERTEX
  8
0
 10
9.82249
 20
9.38097
 30
0.0
 40
0
 41
0
  0
VERTEX
  8
0
 10
9.82818
 20
9.38206
 30
0.0
 40
0
 41
0
  0
VERTEX
  8
0
 10
9.84483
 20
9.39492
 30
0.0
 40
0
 41
0
  0
VERTEX
  8
0
 10
9.84901
 20
9.41146
 30
0.0
 40
0
 41
0
  0
VERTEX
  8
0
 10
9.84853
 20
9.41428
 30
0.0
 40
0
 41
0
  0
VERTEX
  8
0
 10
9.84825
 20
9.41585
 30
0.0
 40
0
 41
0
  0
VERTEX
  8
0
 10
9.83811
 20
9.43044
 30
0.0
 40
0
 41
0
  0
VERTEX
  8
0
 10
9.83708
 20
9.43201
 30
0.0
 40
0
 41
0
  0
VERTEX
  8
0
 10
9.83393
 20
9.43647
 30
0.0
 40
0
 41
0
  0
VERTEX
  8
0
 10
9.824
 20
9.45888
 30
0.0
 40
0
 41
0
  0
VERTEX
  8
0
 10
9.82042
 20
9.47781
 30
0.0
 40
0
 41
0
  0
VERTEX
  8
0
 10
9.82042
 20
9.4841
 30
0.0
 40
0
 41
0
  0
SEQEND
 8
0
  0
POLYLINE
  8
0
 62
     0
 66
     1
 10
0
 20
0
 30
0.0
 40
0.75
 41
0.75
  0
VERTEX
  8
0
 10
9.79226
 20
9.4841
 30
0.0
 40
0.0104167
 41
0.0104167
  0
VERTEX
  8
0
 10
9.79226
 20
9.47781
 30
0.0
 40
0.0104167
 41
0.0104167
  0
VERTEX
  8
0
 10
9.78857
 20
9.45888
 30
0.0
 40
0.0104167
 41
0.0104167
  0
VERTEX
  8
0
 10
9.77869
 20
9.43647
 30
0.0
 40
0.0104167
 41
0.0104167
  0
VERTEX
  8
0
 10
9.77561
 20
9.43201
 30
0.0
 40
0.0104167
 41
0.0104167
  0
VERTEX
  8
0
 10
9.77453
 20
9.43044
 30
0.0
 40
0.0104167
 41
0.0104167
  0
VERTEX
  8
0
 10
9.76437
 20
9.41585
 30
0.0
 40
0.0104167
 41
0.0104167
  0
VERTEX
  8
0
 10
9.76417
 20
9.41428
 30
0.0
 40
0.0104167
 41
0.0104167
  0
VERTEX
  8
0
 10
9.76361
 20
9.41146
 30
0.0
 40
0.0104167
 41
0.0104167
  0
VERTEX
  8
0
 10
9.76774
 20
9.39492
 30
0.0
 40
0.0104167
 41
0.0104167
  0
VERTEX
  8
0
 10
9.78444
 20
9.38206
 30
0.0
 40
0.0104167
 41
0.0104167
  0
VERTEX
  8
0
 10
9.79021
 20
9.38097
 30
0.0
 40
0.0104167
 41
0.0104167
  0
VERTEX
  8
0
 10
9.7915
 20
9.38075
 30
0.0
 40
0.0104167
 41
0.0104167
  0
VERTEX
  8
0
 10
9.803
 20
9.37993
 30
0.0
 40
0.0104167
 41
0.0104167
  0
VERTEX
  8
0
 10
9.80686
 20
9.37993
 30
0.0
 40
0.0104167
 41
0.0104167
  0
VERTEX
  8
0
 10
9.80583
 20
9.37993
 30
0.0
 40
0.0104167
 41
0.0104167
  0
VERTEX
  8
0
 10
9.80994
 20
9.37993
 30
0.0
 40
0.0104167
 41
0.0104167
  0
VERTEX
  8
0
 10
9.82118
 20
9.38075
 30
0.0
 40
0.0104167
 41
0.0104167
  0
VERTEX
  8
0
 10
9.82249
 20
9.38097
 30
0.0
 40
0.0104167
 41
0.0104167
  0
VERTEX
  8
0
 10
9.82818
 20
9.38206
 30
0.0
 40
0.0104167
 41
0.0104167
  0
VERTEX
  8
0
 10
9.84483
 20
9.39492
 30
0.0
 40
0.0104167
 41
0.0104167
  0
VERTEX
  8
0
 10
9.84901
 20
9.41146
 30
0.0
 40
0.0104167
 41
0.0104167
  0
VERTEX
  8
0
 10
9.84853
 20
9.41428
 30
0.0
 40
0.0104167
 41
0.0104167
  0
VERTEX
  8
0
 10
9.84825
 20
9.41585
 30
0.0
 40
0.0104167
 41
0.0104167
  0
VERTEX
  8
0
 10
9.83811
 20
9.43044
 30
0.0
 40
0.0104167
 41
0.0104167
  0
VERTEX
  8
0
 10
9.83708
 20
9.43201
 30
0.0
 40
0.0104167
 41
0.0104167
  0
VERTEX
  8
0
 10
9.83393
 20
9.43647
 30
0.0
 40
0.0104167
 41
0.0104167
  0
VERTEX
  8
0
 10
9.824
 20
9.45888
 30
0.0
 40
0.0104167
 41
0.0104167
  0
VERTEX
  8
0
 10
9.82042
 20
9.47781
 30
0.0
 40
0.0104167
 41
0.0104167
  0
VERTEX
  8
0
 10
9.82042
 20
9.4841
 30
0.0
 40
0.0104167
 41
0.0104167
  0
SEQEND
 8
0
  0
POLYLINE
  8
0
 62
     7
 66
     1
 10
0
 20
0
 30
0.0
 70
     1
 40
0
 41
0
  0
VERTEX
  8
0
 10
9.76417
 20
9.41325
 30
0.0
 40
0
 41
0
  0
VERTEX
  8
0
 10
9.76437
 20
9.41276
 30
0.0
 40
0
 41
0
  0
VERTEX
  8
0
 10
9.77626
 20
9.40261
 30
0.0
 40
0
 41
0
  0
VERTEX
  8
0
 10
9.79997
 20
9.39344
 30
0.0
 40
0
 41
0
  0
VERTEX
  8
0
 10
9.80789
 20
9.39344
 30
0.0
 40
0
 41
0
  0
VERTEX
  8
0
 10
9.81413
 20
9.39372
 30
0.0
 40
0
 41
0
  0
VERTEX
  8
0
 10
9.83681
 20
9.403
 30
0.0
 40
0
 41
0
  0
VERTEX
  8
0
 10
9.84799
 20
9.41276
 30
0.0
 40
0
 41
0
  0
VERTEX
  8
0
 10
9.84853
 20
9.41325
 30
0.0
 40
0
 41
0
  0
SEQEND
 8
0
  0
POLYLINE
  8
0
 62
     0
 66
     1
 10
0
 20
0
 30
0.0
 40
0.75
 41
0.75
  0
VERTEX
  8
0
 10
9.76417
 20
9.41325
 30
0.0
 40
0.0104167
 41
0.0104167
  0
VERTEX
  8
0
 10
9.76437
 20
9.41276
 30
0.0
 40
0.0104167
 41
0.0104167
  0
VERTEX
  8
0
 10
9.77626
 20
9.40261
 30
0.0
 40
0.0104167
 41
0.0104167
  0
VERTEX
  8
0
 10
9.79997
 20
9.39344
 30
0.0
 40
0.0104167
 41
0.0104167
  0
VERTEX
  8
0
 10
9.80789
 20
9.39344
 30
0.0
 40
0.0104167
 41
0.0104167
  0
VERTEX
  8
0
 10
9.81413
 20
9.39372
 30
0.0
 40
0.0104167
 41
0.0104167
  0
VERTEX
  8
0
 10
9.83681
 20
9.403
 30
0.0
 40
0.0104167
 41
0.0104167
  0
VERTEX
  8
0
 10
9.84799
 20
9.41276
 30
0.0
 40
0.0104167
 41
0.0104167
  0
VERTEX
  8
0
 10
9.84853
 20
9.41325
 30
0.0
 40
0.0104167
 41
0.0104167
  0
SEQEND
 8
0
  0
POLYLINE
  8
0
 62
     7
 66
     1
 10
0
 20
0
 30
0.0
 70
     1
 40
0
 41
0
  0
VERTEX
  8
0
 10
9.79226
 20
9.56743
 30
0.0
 40
0
 41
0
  0
VERTEX
  8
0
 10
9.82042
 20
9.56743
 30
0.0
 40
0
 41
0
  0
VERTEX
  8
0
 10
9.82042
 20
9.4841
 30
0.0
 40
0
 41
0
  0
VERTEX
  8
0
 10
9.81337
 20
9.4841
 30
0.0
 40
0
 41
0
  0
VERTEX
  8
0
 10
9.79753
 20
9.4841
 30
0.0
 40
0
 41
0
  0
VERTEX
  8
0
 10
9.79226
 20
9.4841
 30
0.0
 40
0
 41
0
  0
VERTEX
  8
0
 10
9.79226
 20
9.50493
 30
0.0
 40
0
 41
0
  0
VERTEX
  8
0
 10
9.79226
 20
9.55181
 30
0.0
 40
0
 41
0
  0
VERTEX
  8
0
 10
9.79226
 20
9.56743
 30
0.0
 40
0
 41
0
  0
SEQEND
 8
0
  0
POLYLINE
  8
0
 62
     0
 66
     1
 10
0
 20
0
 30
0.0
 70
     1
 40
0.75
 41
0.75
  0
VERTEX
  8
0
 10
9.79226
 20
9.56743
 30
0.0
 40
0.0104167
 41
0.0104167
  0
VERTEX
  8
0
 10
9.82042
 20
9.56743
 30
0.0
 40
0.0104167
 41
0.0104167
  0
VERTEX
  8
0
 10
9.82042
 20
9.4841
 30
0.0
 40
0.0104167
 41
0.0104167
  0
VERTEX
  8
0
 10
9.81337
 20
9.4841
 30
0.0
 40
0.0104167
 41
0.0104167
  0
VERTEX
  8
0
 10
9.79753
 20
9.4841
 30
0.0
 40
0.0104167
 41
0.0104167
  0
VERTEX
  8
0
 10
9.79226
 20
9.4841
 30
0.0
 40
0.0104167
 41
0.0104167
  0
VERTEX
  8
0
 10
9.79226
 20
9.50493
 30
0.0
 40
0.0104167
 41
0.0104167
  0
VERTEX
  8
0
 10
9.79226
 20
9.55181
 30
0.0
 40
0.0104167
 41
0.0104167
  0
VERTEX
  8
0
 10
9.79226
 20
9.56743
 30
0.0
 40
0.0104167
 41
0.0104167
  0
SEQEND
 8
0
  0
POLYLINE
  8
0
 62
     7
 66
     1
 10
0
 20
0
 30
0.0
 70
     1
 40
0
 41
0
  0
VERTEX
  8
0
 10
9.67563
 20
9.5351
 30
0.0
 40
0
 41
0
  0
VERTEX
  8
0
 10
9.67882
 20
9.53635
 30
0.0
 40
0
 41
0
  0
VERTEX
  8
0
 10
9.68847
 20
9.54021
 30
0.0
 40
0
 41
0
  0
VERTEX
  8
0
 10
9.69125
 20
9.54139
 30
0.0
 40
0
 41
0
  0
VERTEX
  8
0
 10
9.69125
 20
9.54139
 30
0.0
 40
0
 41
0
  0
VERTEX
  8
0
 10
9.69125
 20
9.53999
 30
0.0
 40
0
 41
0
  0
VERTEX
  8
0
 10
9.69125
 20
9.53564
 30
0.0
 40
0
 41
0
  0
VERTEX
  8
0
 10
9.69125
 20
9.53136
 30
0.0
 40
0
 41
0
  0
VERTEX
  8
0
 10
9.69125
 20
9.52989
 30
0.0
 40
0
 41
0
  0
VERTEX
  8
0
 10
9.69125
 20
9.52989
 30
0.0
 40
0
 41
0
  0
VERTEX
  8
0
 10
9.68886
 20
9.53054
 30
0.0
 40
0
 41
0
  0
VERTEX
  8
0
 10
9.67888
 20
9.53396
 30
0.0
 40
0
 41
0
  0
VERTEX
  8
0
 10
9.67563
 20
9.5351
 30
0.0
 40
0
 41
0
  0
SEQEND
 8
0
  0
POLYLINE
  8
0
 62
     0
 66
     1
 10
0
 20
0
 30
0.0
 70
     1
 40
0.75
 41
0.75
  0
VERTEX
  8
0
 10
9.67563
 20
9.5351
 30
0.0
 40
0.0104167
 41
0.0104167
  0
VERTEX
  8
0
 10
9.67882
 20
9.53635
 30
0.0
 40
0.0104167
 41
0.0104167
  0
VERTEX
  8
0
 10
9.68847
 20
9.54021
 30
0.0
 40
0.0104167
 41
0.0104167
  0
VERTEX
  8
0
 10
9.69125
 20
9.54139
 30
0.0
 40
0.0104167
 41
0.0104167
  0
VERTEX
  8
0
 10
9.69125
 20
9.54139
 30
0.0
 40
0.0104167
 41
0.0104167
  0
VERTEX
  8
0
 10
9.69125
 20
9.53999
 30
0.0
 40
0.0104167
 41
0.0104167
  0
VERTEX
  8
0
 10
9.69125
 20
9.53564
 30
0.0
 40
0.0104167
 41
0.0104167
  0
VERTEX
  8
0
 10
9.69125
 20
9.53136
 30
0.0
 40
0.0104167
 41
0.0104167
  0
VERTEX
  8
0
 10
9.69125
 20
9.52989
 30
0.0
 40
0.0104167
 41
0.0104167
  0
VERTEX
  8
0
 10
9.69125
 20
9.52989
 30
0.0
 40
0.0104167
 41
0.0104167
  0
VERTEX
  8
0
 10
9.68886
 20
9.53054
 30
0.0
 40
0.0104167
 41
0.0104167
  0
VERTEX
  8
0
 10
9.67888
 20
9.53396
 30
0.0
 40
0.0104167
 41
0.0104167
  0
VERTEX
  8
0
 10
9.67563
 20
9.5351
 30
0.0
 40
0.0104167
 41
0.0104167
  0
SEQEND
 8
0
  0
POLYLINE
  8
0
 62
     7
 66
     1
 10
0
 20
0
 30
0.0
 70
     1
 40
0
 41
0
  0
VERTEX
  8
0
 10
9.93604
 20
9.5351
 30
0.0
 40
0
 41
0
  0
VERTEX
  8
0
 10
9.93278
 20
9.53635
 30
0.0
 40
0
 41
0
  0
VERTEX
  8
0
 10
9.92313
 20
9.54021
 30
0.0
 40
0
 41
0
  0
VERTEX
  8
0
 10
9.92042
 20
9.54139
 30
0.0
 40
0
 41
0
  0
VERTEX
  8
0
 10
9.92042
 20
9.54139
 30
0.0
 40
0
 41
0
  0
VERTEX
  8
0
 10
9.92042
 20
9.53999
 30
0.0
 40
0
 41
0
  0
VERTEX
  8
0
 10
9.92042
 20
9.53564
 30
0.0
 40
0
 41
0
  0
VERTEX
  8
0
 10
9.92042
 20
9.53136
 30
0.0
 40
0
 41
0
  0
VERTEX
  8
0
 10
9.92042
 20
9.52989
 30
0.0
 40
0
 41
0
  0
VERTEX
  8
0
 10
9.92042
 20
9.52989
 30
0.0
 40
0
 41
0
  0
VERTEX
  8
0
 10
9.92275
 20
9.53054
 30
0.0
 40
0
 41
0
  0
VERTEX
  8
0
 10
9.93272
 20
9.53396
 30
0.0
 40
0
 41
0
  0
VERTEX
  8
0
 10
9.93604
 20
9.5351
 30
0.0
 40
0
 41
0
  0
SEQEND
 8
0
  0
POLYLINE
  8
0
 62
     0
 66
     1
 10
0
 20
0
 30
0.0
 70
     1
 40
0.75
 41
0.75
  0
VERTEX
  8
0
 10
9.93604
 20
9.5351
 30
0.0
 40
0.0104167
 41
0.0104167
  0
VERTEX
  8
0
 10
9.93278
 20
9.53635
 30
0.0
 40
0.0104167
 41
0.0104167
  0
VERTEX
  8
0
 10
9.92313
 20
9.54021
 30
0.0
 40
0.0104167
 41
0.0104167
  0
VERTEX
  8
0
 10
9.92042
 20
9.54139
 30
0.0
 40
0.0104167
 41
0.0104167
  0
VERTEX
  8
0
 10
9.92042
 20
9.54139
 30
0.0
 40
0.0104167
 41
0.0104167
  0
VERTEX
  8
0
 10
9.92042
 20
9.53999
 30
0.0
 40
0.0104167
 41
0.0104167
  0
VERTEX
  8
0
 10
9.92042
 20
9.53564
 30
0.0
 40
0.0104167
 41
0.0104167
  0
VERTEX
  8
0
 10
9.92042
 20
9.53136
 30
0.0
 40
0.0104167
 41
0.0104167
  0
VERTEX
  8
0
 10
9.92042
 20
9.52989
 30
0.0
 40
0.0104167
 41
0.0104167
  0
VERTEX
  8
0
 10
9.92042
 20
9.52989
 30
0.0
 40
0.0104167
 41
0.0104167
  0
VERTEX
  8
0
 10
9.92275
 20
9.53054
 30
0.0
 40
0.0104167
 41
0.0104167
  0
VERTEX
  8
0
 10
9.93272
 20
9.53396
 30
0.0
 40
0.0104167
 41
0.0104167
  0
VERTEX
  8
0
 10
9.93604
 20
9.5351
 30
0.0
 40
0.0104167
 41
0.0104167
  0
SEQEND
 8
0
  0
POLYLINE
  8
0
 62
     7
 66
     1
 10
0
 20
0
 30
0.0
 70
     1
 40
0
 41
0
  0
VERTEX
  8
0
 10
9.44564
 20
11.4457
 30
0.0
 40
0
 41
0
  0
VERTEX
  8
0
 10
10.1597
 20
11.4457
 30
0.0
 40
0
 41
0
  0
VERTEX
  8
0
 10
10.1597
 20
9.72933
 30
0.0
 40
0
 41
0
  0
VERTEX
  8
0
 10
9.44564
 20
9.72933
 30
0.0
 40
0
 41
0
  0
VERTEX
  8
0
 10
9.44564
 20
11.4457
 30
0.0
 40
0
 41
0
  0
SEQEND
 8
0
  0
POLYLINE
  8
0
 62
     0
 66
     1
 10
0
 20
0
 30
0.0
 70
     1
 40
0.75
 41
0.75
  0
VERTEX
  8
0
 10
9.44564
 20
11.4457
 30
0.0
 40
0.0104167
 41
0.0104167
  0
VERTEX
  8
0
 10
9.44564
 20
9.72933
 30
0.0
 40
0.0104167
 41
0.0104167
  0
VERTEX
  8
0
 10
10.1597
 20
9.72933
 30
0.0
 40
0.0104167
 41
0.0104167
  0
VERTEX
  8
0
 10
10.1597
 20
11.4457
 30
0.0
 40
0.0104167
 41
0.0104167
  0
VERTEX
  8
0
 10
9.44564
 20
11.4457
 30
0.0
 40
0.0104167
 41
0.0104167
  0
SEQEND
 8
0
  0
POLYLINE
  8
0
 62
     253
 66
     1
 10
0
 20
0
 30
0.0
 40
0.375
 41
0.375
  0
VERTEX
  8
0
 10
10.1121
 20
11.4457
 30
0.0
 40
0.00520833
 41
0.00520833
  0
VERTEX
  8
0
 10
10.1121
 20
9.72939
 30
0.0
 40
0.00520833
 41
0.00520833
  0
SEQEND
 8
0
  0
POLYLINE
  8
0
 62
     253
 66
     1
 10
0
 20
0
 30
0.0
 40
0.375
 41
0.375
  0
VERTEX
  8
0
 10
10.0645
 20
11.4457
 30
0.0
 40
0.00520833
 41
0.00520833
  0
VERTEX
  8
0
 10
10.0645
 20
9.72939
 30
0.0
 40
0.00520833
 41
0.00520833
  0
SEQEND
 8
0
  0
POLYLINE
  8
0
 62
     253
 66
     1
 10
0
 20
0
 30
0.0
 40
0.375
 41
0.375
  0
VERTEX
  8
0
 10
10.0169
 20
11.4457
 30
0.0
 40
0.00520833
 41
0.00520833
  0
VERTEX
  8
0
 10
10.0169
 20
9.72939
 30
0.0
 40
0.00520833
 41
0.00520833
  0
SEQEND
 8
0
  0
POLYLINE
  8
0
 62
     253
 66
     1
 10
0
 20
0
 30
0.0
 40
0.375
 41
0.375
  0
VERTEX
  8
0
 10
9.96929
 20
11.4457
 30
0.0
 40
0.00520833
 41
0.00520833
  0
VERTEX
  8
0
 10
9.96929
 20
9.72939
 30
0.0
 40
0.00520833
 41
0.00520833
  0
SEQEND
 8
0
  0
POLYLINE
  8
0
 62
     253
 66
     1
 10
0
 20
0
 30
0.0
 40
0.375
 41
0.375
  0
VERTEX
  8
0
 10
9.92165
 20
11.4457
 30
0.0
 40
0.00520833
 41
0.00520833
  0
VERTEX
  8
0
 10
9.92165
 20
9.72939
 30
0.0
 40
0.00520833
 41
0.00520833
  0
SEQEND
 8
0
  0
POLYLINE
  8
0
 62
     253
 66
     1
 10
0
 20
0
 30
0.0
 40
0.375
 41
0.375
  0
VERTEX
  8
0
 10
9.87408
 20
11.4457
 30
0.0
 40
0.00520833
 41
0.00520833
  0
VERTEX
  8
0
 10
9.87408
 20
9.72939
 30
0.0
 40
0.00520833
 41
0.00520833
  0
SEQEND
 8
0
  0
POLYLINE
  8
0
 62
     253
 66
     1
 10
0
 20
0
 30
0.0
 40
0.375
 41
0.375
  0
VERTEX
  8
0
 10
9.82644
 20
11.4457
 30
0.0
 40
0.00520833
 41
0.00520833
  0
VERTEX
  8
0
 10
9.82644
 20
9.72939
 30
0.0
 40
0.00520833
 41
0.00520833
  0
SEQEND
 8
0
  0
POLYLINE
  8
0
 62
     253
 66
     1
 10
0
 20
0
 30
0.0
 40
0.375
 41
0.375
  0
VERTEX
  8
0
 10
9.77886
 20
11.4457
 30
0.0
 40
0.00520833
 41
0.00520833
  0
VERTEX
  8
0
 10
9.77886
 20
9.72939
 30
0.0
 40
0.00520833
 41
0.00520833
  0
SEQEND
 8
0
  0
POLYLINE
  8
0
 62
     253
 66
     1
 10
0
 20
0
 30
0.0
 40
0.375
 41
0.375
  0
VERTEX
  8
0
 10
9.73122
 20
11.4457
 30
0.0
 40
0.00520833
 41
0.00520833
  0
VERTEX
  8
0
 10
9.73122
 20
9.72939
 30
0.0
 40
0.00520833
 41
0.00520833
  0
SEQEND
 8
0
  0
POLYLINE
  8
0
 62
     253
 66
     1
 10
0
 20
0
 30
0.0
 40
0.375
 41
0.375
  0
VERTEX
  8
0
 10
9.68365
 20
11.4457
 30
0.0
 40
0.00520833
 41
0.00520833
  0
VERTEX
  8
0
 10
9.68365
 20
9.72939
 30
0.0
 40
0.00520833
 41
0.00520833
  0
SEQEND
 8
0
  0
POLYLINE
  8
0
 62
     253
 66
     1
 10
0
 20
0
 30
0.0
 40
0.375
 41
0.375
  0
VERTEX
  8
0
 10
9.63601
 20
11.4457
 30
0.0
 40
0.00520833
 41
0.00520833
  0
VERTEX
  8
0
 10
9.63601
 20
9.72939
 30
0.0
 40
0.00520833
 41
0.00520833
  0
SEQEND
 8
0
  0
POLYLINE
  8
0
 62
     253
 66
     1
 10
0
 20
0
 30
0.0
 40
0.375
 41
0.375
  0
VERTEX
  8
0
 10
9.58843
 20
11.4457
 30
0.0
 40
0.00520833
 41
0.00520833
  0
VERTEX
  8
0
 10
9.58843
 20
9.72939
 30
0.0
 40
0.00520833
 41
0.00520833
  0
SEQEND
 8
0
  0
POLYLINE
  8
0
 62
     253
 66
     1
 10
0
 20
0
 30
0.0
 40
0.375
 41
0.375
  0
VERTEX
  8
0
 10
9.54081
 20
11.4457
 30
0.0
 40
0.00520833
 41
0.00520833
  0
VERTEX
  8
0
 10
9.54081
 20
9.72939
 30
0.0
 40
0.00520833
 41
0.00520833
  0
SEQEND
 8
0
  0
POLYLINE
  8
0
 62
     253
 66
     1
 10
0
 20
0
 30
0.0
 40
0.375
 41
0.375
  0
VERTEX
  8
0
 10
9.49322
 20
11.4457
 30
0.0
 40
0.00520833
 41
0.00520833
  0
VERTEX
  8
0
 10
9.49322
 20
9.72939
 30
0.0
 40
0.00520833
 41
0.00520833
  0
SEQEND
 8
0
  0
POLYLINE
  8
0
 62
     7
 66
     1
 10
0
 20
0
 30
0.0
 70
     1
 40
0
 41
0
  0
VERTEX
  8
0
 10
9.11171
 20
11.4457
 30
0.0
 40
0
 41
0
  0
VERTEX
  8
0
 10
9.44428
 20
11.4457
 30
0.0
 40
0
 41
0
  0
VERTEX
  8
0
 10
9.44428
 20
9.72933
 30
0.0
 40
0
 41
0
  0
VERTEX
  8
0
 10
9.11171
 20
9.72933
 30
0.0
 40
0
 41
0
  0
VERTEX
  8
0
 10
9.11171
 20
11.4457
 30
0.0
 40
0
 41
0
  0
SEQEND
 8
0
  0
POLYLINE
  8
0
 62
     0
 66
     1
 10
0
 20
0
 30
0.0
 70
     1
 40
0.75
 41
0.75
  0
VERTEX
  8
0
 10
9.11171
 20
11.4457
 30
0.0
 40
0.0104167
 41
0.0104167
  0
VERTEX
  8
0
 10
9.11171
 20
9.72933
 30
0.0
 40
0.0104167
 41
0.0104167
  0
VERTEX
  8
0
 10
9.44428
 20
9.72933
 30
0.0
 40
0.0104167
 41
0.0104167
  0
VERTEX
  8
0
 10
9.44428
 20
11.4457
 30
0.0
 40
0.0104167
 41
0.0104167
  0
VERTEX
  8
0
 10
9.11171
 20
11.4457
 30
0.0
 40
0.0104167
 41
0.0104167
  0
SEQEND
 8
0
  0
POLYLINE
  8
0
 62
     253
 66
     1
 10
0
 20
0
 30
0.0
 40
0.375
 41
0.375
  0
VERTEX
  8
0
 10
9.41103
 20
11.4457
 30
0.0
 40
0.00520833
 41
0.00520833
  0
VERTEX
  8
0
 10
9.41103
 20
9.72939
 30
0.0
 40
0.00520833
 41
0.00520833
  0
SEQEND
 8
0
  0
POLYLINE
  8
0
 62
     253
 66
     1
 10
0
 20
0
 30
0.0
 40
0.375
 41
0.375
  0
VERTEX
  8
0
 10
9.37776
 20
11.4457
 30
0.0
 40
0.00520833
 41
0.00520833
  0
VERTEX
  8
0
 10
9.37776
 20
9.72939
 30
0.0
 40
0.00520833
 41
0.00520833
  0
SEQEND
 8
0
  0
POLYLINE
  8
0
 62
     253
 66
     1
 10
0
 20
0
 30
0.0
 40
0.375
 41
0.375
  0
VERTEX
  8
0
 10
9.34451
 20
11.4457
 30
0.0
 40
0.00520833
 41
0.00520833
  0
VERTEX
  8
0
 10
9.34451
 20
9.72939
 30
0.0
 40
0.00520833
 41
0.00520833
  0
SEQEND
 8
0
  0
POLYLINE
  8
0
 62
     253
 66
     1
 10
0
 20
0
 30
0.0
 40
0.375
 41
0.375
  0
VERTEX
  8
0
 10
9.31125
 20
11.4457
 30
0.0
 40
0.00520833
 41
0.00520833
  0
VERTEX
  8
0
 10
9.31125
 20
9.72939
 30
0.0
 40
0.00520833
 41
0.00520833
  0
SEQEND
 8
0
  0
POLYLINE
  8
0
 62
     253
 66
     1
 10
0
 20
0
 30
0.0
 40
0.375
 41
0.375
  0
VERTEX
  8
0
 10
9.278
 20
11.4457
 30
0.0
 40
0.00520833
 41
0.00520833
  0
VERTEX
  8
0
 10
9.278
 20
9.72939
 30
0.0
 40
0.00520833
 41
0.00520833
  0
SEQEND
 8
0
  0
POLYLINE
  8
0
 62
     253
 66
     1
 10
0
 20
0
 30
0.0
 40
0.375
 41
0.375
  0
VERTEX
  8
0
 10
9.24474
 20
11.4457
 30
0.0
 40
0.00520833
 41
0.00520833
  0
VERTEX
  8
0
 10
9.24474
 20
9.72939
 30
0.0
 40
0.00520833
 41
0.00520833
  0
SEQEND
 8
0
  0
POLYLINE
  8
0
 62
     253
 66
     1
 10
0
 20
0
 30
0.0
 40
0.375
 41
0.375
  0
VERTEX
  8
0
 10
9.21149
 20
11.4457
 30
0.0
 40
0.00520833
 41
0.00520833
  0
VERTEX
  8
0
 10
9.21149
 20
9.72939
 30
0.0
 40
0.00520833
 41
0.00520833
  0
SEQEND
 8
0
  0
POLYLINE
  8
0
 62
     253
 66
     1
 10
0
 20
0
 30
0.0
 40
0.375
 41
0.375
  0
VERTEX
  8
0
 10
9.17822
 20
11.4457
 30
0.0
 40
0.00520833
 41
0.00520833
  0
VERTEX
  8
0
 10
9.17822
 20
9.72939
 30
0.0
 40
0.00520833
 41
0.00520833
  0
SEQEND
 8
0
  0
POLYLINE
  8
0
 62
     253
 66
     1
 10
0
 20
0
 30
0.0
 40
0.375
 41
0.375
  0
VERTEX
  8
0
 10
9.14497
 20
11.4457
 30
0.0
 40
0.00520833
 41
0.00520833
  0
VERTEX
  8
0
 10
9.14497
 20
9.72939
 30
0.0
 40
0.00520833
 41
0.00520833
  0
SEQEND
 8
0
  0
POLYLINE
  8
0
 62
     7
 66
     1
 10
0
 20
0
 30
0.0
 70
     1
 40
0
 41
0
  0
VERTEX
  8
0
 10
8.79964
 20
10.3388
 30
0.0
 40
0
 41
0
  0
VERTEX
  8
0
 10
9.10965
 20
10.3388
 30
0.0
 40
0
 41
0
  0
VERTEX
  8
0
 10
9.10965
 20
9.79394
 30
0.0
 40
0
 41
0
  0
VERTEX
  8
0
 10
8.79964
 20
9.79394
 30
0.0
 40
0
 41
0
  0
VERTEX
  8
0
 10
8.79964
 20
10.3388
 30
0.0
 40
0
 41
0
  0
SEQEND
 8
0
  0
POLYLINE
  8
0
 62
     0
 66
     1
 10
0
 20
0
 30
0.0
 70
     1
 40
0.75
 41
0.75
  0
VERTEX
  8
0
 10
8.79964
 20
10.3388
 30
0.0
 40
0.0104167
 41
0.0104167
  0
VERTEX
  8
0
 10
8.79964
 20
9.79394
 30
0.0
 40
0.0104167
 41
0.0104167
  0
VERTEX
  8
0
 10
9.10965
 20
9.79394
 30
0.0
 40
0.0104167
 41
0.0104167
  0
VERTEX
  8
0
 10
9.10965
 20
10.3388
 30
0.0
 40
0.0104167
 41
0.0104167
  0
VERTEX
  8
0
 10
8.79964
 20
10.3388
 30
0.0
 40
0.0104167
 41
0.0104167
  0
SEQEND
 8
0
  0
POLYLINE
  8
0
 62
     253
 66
     1
 10
0
 20
0
 30
0.0
 40
0.375
 41
0.375
  0
VERTEX
  8
0
 10
9.07867
 20
10.3388
 30
0.0
 40
0.00520833
 41
0.00520833
  0
VERTEX
  8
0
 10
9.07867
 20
9.79389
 30
0.0
 40
0.00520833
 41
0.00520833
  0
SEQEND
 8
0
  0
POLYLINE
  8
0
 62
     253
 66
     1
 10
0
 20
0
 30
0.0
 40
0.375
 41
0.375
  0
VERTEX
  8
0
 10
9.04764
 20
10.3388
 30
0.0
 40
0.00520833
 41
0.00520833
  0
VERTEX
  8
0
 10
9.04764
 20
9.79389
 30
0.0
 40
0.00520833
 41
0.00520833
  0
SEQEND
 8
0
  0
POLYLINE
  8
0
 62
     253
 66
     1
 10
0
 20
0
 30
0.0
 40
0.375
 41
0.375
  0
VERTEX
  8
0
 10
9.01665
 20
10.3388
 30
0.0
 40
0.00520833
 41
0.00520833
  0
VERTEX
  8
0
 10
9.01665
 20
9.79389
 30
0.0
 40
0.00520833
 41
0.00520833
  0
SEQEND
 8
0
  0
POLYLINE
  8
0
 62
     253
 66
     1
 10
0
 20
0
 30
0.0
 40
0.375
 41
0.375
  0
VERTEX
  8
0
 10
8.98563
 20
10.3388
 30
0.0
 40
0.00520833
 41
0.00520833
  0
VERTEX
  8
0
 10
8.98563
 20
9.79389
 30
0.0
 40
0.00520833
 41
0.00520833
  0
SEQEND
 8
0
  0
POLYLINE
  8
0
 62
     253
 66
     1
 10
0
 20
0
 30
0.0
 40
0.375
 41
0.375
  0
VERTEX
  8
0
 10
8.95464
 20
10.3388
 30
0.0
 40
0.00520833
 41
0.00520833
  0
VERTEX
  8
0
 10
8.95464
 20
9.79389
 30
0.0
 40
0.00520833
 41
0.00520833
  0
SEQEND
 8
0
  0
POLYLINE
  8
0
 62
     253
 66
     1
 10
0
 20
0
 30
0.0
 40
0.375
 41
0.375
  0
VERTEX
  8
0
 10
8.92361
 20
10.3388
 30
0.0
 40
0.00520833
 41
0.00520833
  0
VERTEX
  8
0
 10
8.92361
 20
9.79389
 30
0.0
 40
0.00520833
 41
0.00520833
  0
SEQEND
 8
0
  0
POLYLINE
  8
0
 62
     253
 66
     1
 10
0
 20
0
 30
0.0
 40
0.375
 41
0.375
  0
VERTEX
  8
0
 10
8.89264
 20
10.3388
 30
0.0
 40
0.00520833
 41
0.00520833
  0
VERTEX
  8
0
 10
8.89264
 20
9.79389
 30
0.0
 40
0.00520833
 41
0.00520833
  0
SEQEND
 8
0
  0
POLYLINE
  8
0
 62
     253
 66
     1
 10
0
 20
0
 30
0.0
 40
0.375
 41
0.375
  0
VERTEX
  8
0
 10
8.8616
 20
10.3388
 30
0.0
 40
0.00520833
 41
0.00520833
  0
VERTEX
  8
0
 10
8.8616
 20
9.79389
 30
0.0
 40
0.00520833
 41
0.00520833
  0
SEQEND
 8
0
  0
POLYLINE
  8
0
 62
     253
 66
     1
 10
0
 20
0
 30
0.0
 40
0.375
 41
0.375
  0
VERTEX
  8
0
 10
8.83062
 20
10.3388
 30
0.0
 40
0.00520833
 41
0.00520833
  0
VERTEX
  8
0
 10
8.83062
 20
9.79389
 30
0.0
 40
0.00520833
 41
0.00520833
  0
SEQEND
 8
0
  0
POLYLINE
  8
0
 62
     7
 66
     1
 10
0
 20
0
 30
0.0
 70
     1
 40
0
 41
0
  0
VERTEX
  8
0
 10
8.41764
 20
11.0206
 30
0.0
 40
0
 41
0
  0
VERTEX
  8
0
 10
8.74675
 20
11.0206
 30
0.0
 40
0
 41
0
  0
VERTEX
  8
0
 10
8.74675
 20
10.5074
 30
0.0
 40
0
 41
0
  0
VERTEX
  8
0
 10
8.41764
 20
10.5074
 30
0.0
 40
0
 41
0
  0
VERTEX
  8
0
 10
8.41764
 20
11.0206
 30
0.0
 40
0
 41
0
  0
SEQEND
 8
0
  0
POLYLINE
  8
0
 62
     0
 66
     1
 10
0
 20
0
 30
0.0
 70
     1
 40
0.6159
 41
0.6159
  0
VERTEX
  8
0
 10
8.41764
 20
11.0206
 30
0.0
 40
0.00855417
 41
0.00855417
  0
VERTEX
  8
0
 10
8.41764
 20
10.5074
 30
0.0
 40
0.00855417
 41
0.00855417
  0
VERTEX
  8
0
 10
8.74675
 20
10.5074
 30
0.0
 40
0.00855417
 41
0.00855417
  0
VERTEX
  8
0
 10
8.74675
 20
11.0206
 30
0.0
 40
0.00855417
 41
0.00855417
  0
VERTEX
  8
0
 10
8.41764
 20
11.0206
 30
0.0
 40
0.00855417
 41
0.00855417
  0
SEQEND
 8
0
  0
POLYLINE
  8
0
 62
     0
 66
     1
 10
0
 20
0
 30
0.0
 40
0.6159
 41
0.6159
  0
VERTEX
  8
0
 10
8.74675
 20
10.5074
 30
0.0
 40
0.00855417
 41
0.00855417
  0
VERTEX
  8
0
 10
8.58219
 20
10.8469
 30
0.0
 40
0.00855417
 41
0.00855417
  0
VERTEX
  8
0
 10
8.58219
 20
10.6904
 30
0.0
 40
0.00855417
 41
0.00855417
  0
VERTEX
  8
0
 10
8.41764
 20
11.0206
 30
0.0
 40
0.00855417
 41
0.00855417
  0
SEQEND
 8
0
  0
POLYLINE
  8
0
 62
     7
 66
     1
 10
0
 20
0
 30
0.0
 70
     1
 40
0
 41
0
  0
VERTEX
  8
0
 10
7.67557
 20
11.3395
 30
0.0
 40
0
 41
0
  0
VERTEX
  8
0
 10
8.27061
 20
11.3395
 30
0.0
 40
0
 41
0
  0
VERTEX
  8
0
 10
8.27061
 20
10.7145
 30
0.0
 40
0
 41
0
  0
VERTEX
  8
0
 10
7.67557
 20
10.7145
 30
0.0
 40
0
 41
0
  0
VERTEX
  8
0
 10
7.67557
 20
11.3395
 30
0.0
 40
0
 41
0
  0
SEQEND
 8
0
  0
POLYLINE
  8
0
 62
     0
 66
     1
 10
0
 20
0
 30
0.0
 70
     1
 40
0.75
 41
0.75
  0
VERTEX
  8
0
 10
7.67557
 20
11.3395
 30
0.0
 40
0.0104167
 41
0.0104167
  0
VERTEX
  8
0
 10
7.67557
 20
10.7145
 30
0.0
 40
0.0104167
 41
0.0104167
  0
VERTEX
  8
0
 10
8.27061
 20
10.7145
 30
0.0
 40
0.0104167
 41
0.0104167
  0
VERTEX
  8
0
 10
8.27061
 20
11.3395
 30
0.0
 40
0.0104167
 41
0.0104167
  0
VERTEX
  8
0
 10
7.67557
 20
11.3395
 30
0.0
 40
0.0104167
 41
0.0104167
  0
SEQEND
 8
0
  0
POLYLINE
  8
0
 62
     0
 66
     1
 10
0
 20
0
 30
0.0
 40
0.75
 41
0.75
  0
VERTEX
  8
0
 10
8.27061
 20
11.3395
 30
0.0
 40
0.0104167
 41
0.0104167
  0
VERTEX
  8
0
 10
7.90267
 20
11.027
 30
0.0
 40
0.0104167
 41
0.0104167
  0
VERTEX
  8
0
 10
8.08117
 20
11.027
 30
0.0
 40
0.0104167
 41
0.0104167
  0
VERTEX
  8
0
 10
7.71224
 20
10.7145
 30
0.0
 40
0.0104167
 41
0.0104167
  0
SEQEND
 8
0
  0
POLYLINE
  8
0
 62
     7
 66
     1
 10
0
 20
0
 30
0.0
 70
     1
 40
0
 41
0
  0
VERTEX
  8
0
 10
7.67557
 20
11.3395
 30
0.0
 40
0
 41
0
  0
VERTEX
  8
0
 10
7.71522
 20
11.3395
 30
0.0
 40
0
 41
0
  0
VERTEX
  8
0
 10
7.71522
 20
10.7145
 30
0.0
 40
0
 41
0
  0
VERTEX
  8
0
 10
7.67557
 20
10.7145
 30
0.0
 40
0
 41
0
  0
VERTEX
  8
0
 10
7.67557
 20
11.3395
 30
0.0
 40
0
 41
0
  0
SEQEND
 8
0
  0
POLYLINE
  8
0
 62
     0
 66
     1
 10
0
 20
0
 30
0.0
 70
     1
 40
0.75
 41
0.75
  0
VERTEX
  8
0
 10
7.67557
 20
11.3395
 30
0.0
 40
0.0104167
 41
0.0104167
  0
VERTEX
  8
0
 10
7.67557
 20
10.7145
 30
0.0
 40
0.0104167
 41
0.0104167
  0
VERTEX
  8
0
 10
7.71522
 20
10.7145
 30
0.0
 40
0.0104167
 41
0.0104167
  0
VERTEX
  8
0
 10
7.71522
 20
11.3395
 30
0.0
 40
0.0104167
 41
0.0104167
  0
VERTEX
  8
0
 10
7.67557
 20
11.3395
 30
0.0
 40
0.0104167
 41
0.0104167
  0
SEQEND
 8
0
  0
POLYLINE
  8
0
 62
     7
 66
     1
 10
0
 20
0
 30
0.0
 70
     1
 40
0
 41
0
  0
VERTEX
  8
0
 10
7.67557
 20
10.7145
 30
0.0
 40
0
 41
0
  0
VERTEX
  8
0
 10
8.27061
 20
10.7145
 30
0.0
 40
0
 41
0
  0
VERTEX
  8
0
 10
8.27061
 20
10.0895
 30
0.0
 40
0
 41
0
  0
VERTEX
  8
0
 10
7.67557
 20
10.0895
 30
0.0
 40
0
 41
0
  0
VERTEX
  8
0
 10
7.67557
 20
10.7145
 30
0.0
 40
0
 41
0
  0
SEQEND
 8
0
  0
POLYLINE
  8
0
 62
     0
 66
     1
 10
0
 20
0
 30
0.0
 70
     1
 40
0.75
 41
0.75
  0
VERTEX
  8
0
 10
7.67557
 20
10.7145
 30
0.0
 40
0.0104167
 41
0.0104167
  0
VERTEX
  8
0
 10
7.67557
 20
10.0895
 30
0.0
 40
0.0104167
 41
0.0104167
  0
VERTEX
  8
0
 10
8.27061
 20
10.0895
 30
0.0
 40
0.0104167
 41
0.0104167
  0
VERTEX
  8
0
 10
8.27061
 20
10.7145
 30
0.0
 40
0.0104167
 41
0.0104167
  0
VERTEX
  8
0
 10
7.67557
 20
10.7145
 30
0.0
 40
0.0104167
 41
0.0104167
  0
SEQEND
 8
0
  0
POLYLINE
  8
0
 62
     0
 66
     1
 10
0
 20
0
 30
0.0
 40
0.75
 41
0.75
  0
VERTEX
  8
0
 10
8.27061
 20
10.7145
 30
0.0
 40
0.0104167
 41
0.0104167
  0
VERTEX
  8
0
 10
7.90267
 20
10.402
 30
0.0
 40
0.0104167
 41
0.0104167
  0
VERTEX
  8
0
 10
8.08117
 20
10.402
 30
0.0
 40
0.0104167
 41
0.0104167
  0
VERTEX
  8
0
 10
7.71224
 20
10.0895
 30
0.0
 40
0.0104167
 41
0.0104167
  0
SEQEND
 8
0
  0
POLYLINE
  8
0
 62
     7
 66
     1
 10
0
 20
0
 30
0.0
 70
     1
 40
0
 41
0
  0
VERTEX
  8
0
 10
7.67557
 20
10.7145
 30
0.0
 40
0
 41
0
  0
VERTEX
  8
0
 10
7.71522
 20
10.7145
 30
0.0
 40
0
 41
0
  0
VERTEX
  8
0
 10
7.71522
 20
10.0895
 30
0.0
 40
0
 41
0
  0
VERTEX
  8
0
 10
7.67557
 20
10.0895
 30
0.0
 40
0
 41
0
  0
VERTEX
  8
0
 10
7.67557
 20
10.7145
 30
0.0
 40
0
 41
0
  0
SEQEND
 8
0
  0
POLYLINE
  8
0
 62
     0
 66
     1
 10
0
 20
0
 30
0.0
 70
     1
 40
0.75
 41
0.75
  0
VERTEX
  8
0
 10
7.67557
 20
10.7145
 30
0.0
 40
0.0104167
 41
0.0104167
  0
VERTEX
  8
0
 10
7.67557
 20
10.0895
 30
0.0
 40
0.0104167
 41
0.0104167
  0
VERTEX
  8
0
 10
7.71522
 20
10.0895
 30
0.0
 40
0.0104167
 41
0.0104167
  0
VERTEX
  8
0
 10
7.71522
 20
10.7145
 30
0.0
 40
0.0104167
 41
0.0104167
  0
VERTEX
  8
0
 10
7.67557
 20
10.7145
 30
0.0
 40
0.0104167
 41
0.0104167
  0
SEQEND
 8
0
  0
POLYLINE
  8
0
 62
     7
 66
     1
 10
0
 20
0
 30
0.0
 70
     1
 40
0
 41
0
  0
VERTEX
  8
0
 10
7.67557
 20
10.0895
 30
0.0
 40
0
 41
0
  0
VERTEX
  8
0
 10
7.67557
 20
7.77149
 30
0.0
 40
0
 41
0
  0
VERTEX
  8
0
 10
6.23096
 20
7.77149
 30
0.0
 40
0
 41
0
  0
VERTEX
  8
0
 10
6.23096
 20
7.15022
 30
0.0
 40
0
 41
0
  0
VERTEX
  8
0
 10
8.27138
 20
7.15224
 30
0.0
 40
0
 41
0
  0
VERTEX
  8
0
 10
8.27061
 20
10.0895
 30
0.0
 40
0
 41
0
  0
VERTEX
  8
0
 10
7.67557
 20
10.0895
 30
0.0
 40
0
 41
0
  0
SEQEND
 8
0
  0
POLYLINE
  8
0
 62
     0
 66
     1
 10
0
 20
0
 30
0.0
 70
     1
 40
0.75
 41
0.75
  0
VERTEX
  8
0
 10
7.67557
 20
10.0895
 30
0.0
 40
0.0104167
 41
0.0104167
  0
VERTEX
  8
0
 10
7.67557
 20
7.77149
 30
0.0
 40
0.0104167
 41
0.0104167
  0
VERTEX
  8
0
 10
6.23096
 20
7.77149
 30
0.0
 40
0.0104167
 41
0.0104167
  0
VERTEX
  8
0
 10
6.23096
 20
7.15022
 30
0.0
 40
0.0104167
 41
0.0104167
  0
VERTEX
  8
0
 10
8.27138
 20
7.15224
 30
0.0
 40
0.0104167
 41
0.0104167
  0
VERTEX
  8
0
 10
8.27061
 20
10.0895
 30
0.0
 40
0.0104167
 41
0.0104167
  0
VERTEX
  8
0
 10
7.67557
 20
10.0895
 30
0.0
 40
0.0104167
 41
0.0104167
  0
SEQEND
 8
0
  0
POLYLINE
  8
0
 62
     7
 66
     1
 10
0
 20
0
 30
0.0
 70
     1
 40
0
 41
0
  0
VERTEX
  8
0
 10
7.67626
 20
8.70708
 30
0.0
 40
0
 41
0
  0
VERTEX
  8
0
 10
8.27106
 20
8.70708
 30
0.0
 40
0
 41
0
  0
VERTEX
  8
0
 10
8.27106
 20
8.17117
 30
0.0
 40
0
 41
0
  0
VERTEX
  8
0
 10
7.67626
 20
8.17117
 30
0.0
 40
0
 41
0
  0
VERTEX
  8
0
 10
7.67626
 20
8.70708
 30
0.0
 40
0
 41
0
  0
SEQEND
 8
0
  0
POLYLINE
  8
0
 62
     0
 66
     1
 10
0
 20
0
 30
0.0
 70
     1
 40
0.75
 41
0.75
  0
VERTEX
  8
0
 10
7.67626
 20
8.70708
 30
0.0
 40
0.0104167
 41
0.0104167
  0
VERTEX
  8
0
 10
7.67626
 20
8.17117
 30
0.0
 40
0.0104167
 41
0.0104167
  0
VERTEX
  8
0
 10
8.27106
 20
8.17117
 30
0.0
 40
0.0104167
 41
0.0104167
  0
VERTEX
  8
0
 10
8.27106
 20
8.70708
 30
0.0
 40
0.0104167
 41
0.0104167
  0
VERTEX
  8
0
 10
7.67626
 20
8.70708
 30
0.0
 40
0.0104167
 41
0.0104167
  0
SEQEND
 8
0
  0
POLYLINE
  8
0
 62
     7
 66
     1
 10
0
 20
0
 30
0.0
 70
     1
 40
0
 41
0
  0
VERTEX
  8
0
 10
8.12207
 20
8.491
 30
0.0
 40
0
 41
0
  0
VERTEX
  8
0
 10
8.11393
 20
8.491
 30
0.0
 40
0
 41
0
  0
VERTEX
  8
0
 10
8.08963
 20
8.49756
 30
0.0
 40
0
 41
0
  0
VERTEX
  8
0
 10
8.06315
 20
8.5154
 30
0.0
 40
0
 41
0
  0
VERTEX
  8
0
 10
8.04525
 20
8.54194
 30
0.0
 40
0
 41
0
  0
VERTEX
  8
0
 10
8.03874
 20
8.56625
 30
0.0
 40
0
 41
0
  0
VERTEX
  8
0
 10
8.03874
 20
8.57433
 30
0.0
 40
0
 41
0
  0
VERTEX
  8
0
 10
8.03874
 20
8.58247
 30
0.0
 40
0
 41
0
  0
VERTEX
  8
0
 10
8.04525
 20
8.60682
 30
0.0
 40
0
 41
0
  0
VERTEX
  8
0
 10
8.06315
 20
8.63331
 30
0.0
 40
0
 41
0
  0
VERTEX
  8
0
 10
8.08963
 20
8.65115
 30
0.0
 40
0
 41
0
  0
VERTEX
  8
0
 10
8.11393
 20
8.65767
 30
0.0
 40
0
 41
0
  0
VERTEX
  8
0
 10
8.12207
 20
8.65767
 30
0.0
 40
0
 41
0
  0
VERTEX
  8
0
 10
8.13015
 20
8.65767
 30
0.0
 40
0
 41
0
  0
VERTEX
  8
0
 10
8.15446
 20
8.65115
 30
0.0
 40
0
 41
0
  0
VERTEX
  8
0
 10
8.18099
 20
8.63331
 30
0.0
 40
0
 41
0
  0
VERTEX
  8
0
 10
8.19883
 20
8.60682
 30
0.0
 40
0
 41
0
  0
VERTEX
  8
0
 10
8.2054
 20
8.58247
 30
0.0
 40
0
 41
0
  0
VERTEX
  8
0
 10
8.2054
 20
8.57433
 30
0.0
 40
0
 41
0
  0
VERTEX
  8
0
 10
8.2054
 20
8.56625
 30
0.0
 40
0
 41
0
  0
VERTEX
  8
0
 10
8.19883
 20
8.54194
 30
0.0
 40
0
 41
0
  0
VERTEX
  8
0
 10
8.18099
 20
8.5154
 30
0.0
 40
0
 41
0
  0
VERTEX
  8
0
 10
8.15446
 20
8.49756
 30
0.0
 40
0
 41
0
  0
VERTEX
  8
0
 10
8.13015
 20
8.491
 30
0.0
 40
0
 41
0
  0
VERTEX
  8
0
 10
8.12207
 20
8.491
 30
0.0
 40
0
 41
0
  0
SEQEND
 8
0
  0
POLYLINE
  8
0
 62
     0
 66
     1
 10
0
 20
0
 30
0.0
 70
     1
 40
0.75
 41
0.75
  0
VERTEX
  8
0
 10
8.12207
 20
8.491
 30
0.0
 40
0.0104167
 41
0.0104167
  0
VERTEX
  8
0
 10
8.11393
 20
8.491
 30
0.0
 40
0.0104167
 41
0.0104167
  0
VERTEX
  8
0
 10
8.08963
 20
8.49756
 30
0.0
 40
0.0104167
 41
0.0104167
  0
VERTEX
  8
0
 10
8.06315
 20
8.5154
 30
0.0
 40
0.0104167
 41
0.0104167
  0
VERTEX
  8
0
 10
8.04525
 20
8.54194
 30
0.0
 40
0.0104167
 41
0.0104167
  0
VERTEX
  8
0
 10
8.03874
 20
8.56625
 30
0.0
 40
0.0104167
 41
0.0104167
  0
VERTEX
  8
0
 10
8.03874
 20
8.57433
 30
0.0
 40
0.0104167
 41
0.0104167
  0
VERTEX
  8
0
 10
8.03874
 20
8.58247
 30
0.0
 40
0.0104167
 41
0.0104167
  0
VERTEX
  8
0
 10
8.04525
 20
8.60682
 30
0.0
 40
0.0104167
 41
0.0104167
  0
VERTEX
  8
0
 10
8.06315
 20
8.63331
 30
0.0
 40
0.0104167
 41
0.0104167
  0
VERTEX
  8
0
 10
8.08963
 20
8.65115
 30
0.0
 40
0.0104167
 41
0.0104167
  0
VERTEX
  8
0
 10
8.11393
 20
8.65767
 30
0.0
 40
0.0104167
 41
0.0104167
  0
VERTEX
  8
0
 10
8.12207
 20
8.65767
 30
0.0
 40
0.0104167
 41
0.0104167
  0
VERTEX
  8
0
 10
8.13015
 20
8.65767
 30
0.0
 40
0.0104167
 41
0.0104167
  0
VERTEX
  8
0
 10
8.15446
 20
8.65115
 30
0.0
 40
0.0104167
 41
0.0104167
  0
VERTEX
  8
0
 10
8.18099
 20
8.63331
 30
0.0
 40
0.0104167
 41
0.0104167
  0
VERTEX
  8
0
 10
8.19883
 20
8.60682
 30
0.0
 40
0.0104167
 41
0.0104167
  0
VERTEX
  8
0
 10
8.2054
 20
8.58247
 30
0.0
 40
0.0104167
 41
0.0104167
  0
VERTEX
  8
0
 10
8.2054
 20
8.57433
 30
0.0
 40
0.0104167
 41
0.0104167
  0
VERTEX
  8
0
 10
8.2054
 20
8.56625
 30
0.0
 40
0.0104167
 41
0.0104167
  0
VERTEX
  8
0
 10
8.19883
 20
8.54194
 30
0.0
 40
0.0104167
 41
0.0104167
  0
VERTEX
  8
0
 10
8.18099
 20
8.5154
 30
0.0
 40
0.0104167
 41
0.0104167
  0
VERTEX
  8
0
 10
8.15446
 20
8.49756
 30
0.0
 40
0.0104167
 41
0.0104167
  0
VERTEX
  8
0
 10
8.13015
 20
8.491
 30
0.0
 40
0.0104167
 41
0.0104167
  0
VERTEX
  8
0
 10
8.12207
 20
8.491
 30
0.0
 40
0.0104167
 41
0.0104167
  0
SEQEND
 8
0
  0
POLYLINE
  8
0
 62
     7
 66
     1
 10
0
 20
0
 30
0.0
 70
     1
 40
0
 41
0
  0
VERTEX
  8
0
 10
8.12207
 20
8.22222
 30
0.0
 40
0
 41
0
  0
VERTEX
  8
0
 10
8.11393
 20
8.22222
 30
0.0
 40
0
 41
0
  0
VERTEX
  8
0
 10
8.08963
 20
8.22879
 30
0.0
 40
0
 41
0
  0
VERTEX
  8
0
 10
8.06315
 20
8.24664
 30
0.0
 40
0
 41
0
  0
VERTEX
  8
0
 10
8.04525
 20
8.27317
 30
0.0
 40
0
 41
0
  0
VERTEX
  8
0
 10
8.03874
 20
8.29747
 30
0.0
 40
0
 41
0
  0
VERTEX
  8
0
 10
8.03874
 20
8.30556
 30
0.0
 40
0
 41
0
  0
VERTEX
  8
0
 10
8.03874
 20
8.31369
 30
0.0
 40
0
 41
0
  0
VERTEX
  8
0
 10
8.04525
 20
8.338
 30
0.0
 40
0
 41
0
  0
VERTEX
  8
0
 10
8.06315
 20
8.36447
 30
0.0
 40
0
 41
0
  0
VERTEX
  8
0
 10
8.08963
 20
8.38238
 30
0.0
 40
0
 41
0
  0
VERTEX
  8
0
 10
8.11393
 20
8.38889
 30
0.0
 40
0
 41
0
  0
VERTEX
  8
0
 10
8.12207
 20
8.38889
 30
0.0
 40
0
 41
0
  0
VERTEX
  8
0
 10
8.13015
 20
8.38889
 30
0.0
 40
0
 41
0
  0
VERTEX
  8
0
 10
8.15446
 20
8.38238
 30
0.0
 40
0
 41
0
  0
VERTEX
  8
0
 10
8.18099
 20
8.36447
 30
0.0
 40
0
 41
0
  0
VERTEX
  8
0
 10
8.19883
 20
8.338
 30
0.0
 40
0
 41
0
  0
VERTEX
  8
0
 10
8.2054
 20
8.31369
 30
0.0
 40
0
 41
0
  0
VERTEX
  8
0
 10
8.2054
 20
8.30556
 30
0.0
 40
0
 41
0
  0
VERTEX
  8
0
 10
8.2054
 20
8.29747
 30
0.0
 40
0
 41
0
  0
VERTEX
  8
0
 10
8.19883
 20
8.27317
 30
0.0
 40
0
 41
0
  0
VERTEX
  8
0
 10
8.18099
 20
8.24664
 30
0.0
 40
0
 41
0
  0
VERTEX
  8
0
 10
8.15446
 20
8.22879
 30
0.0
 40
0
 41
0
  0
VERTEX
  8
0
 10
8.13015
 20
8.22222
 30
0.0
 40
0
 41
0
  0
VERTEX
  8
0
 10
8.12207
 20
8.22222
 30
0.0
 40
0
 41
0
  0
SEQEND
 8
0
  0
POLYLINE
  8
0
 62
     0
 66
     1
 10
0
 20
0
 30
0.0
 70
     1
 40
0.75
 41
0.75
  0
VERTEX
  8
0
 10
8.12207
 20
8.22222
 30
0.0
 40
0.0104167
 41
0.0104167
  0
VERTEX
  8
0
 10
8.11393
 20
8.22222
 30
0.0
 40
0.0104167
 41
0.0104167
  0
VERTEX
  8
0
 10
8.08963
 20
8.22879
 30
0.0
 40
0.0104167
 41
0.0104167
  0
VERTEX
  8
0
 10
8.06315
 20
8.24664
 30
0.0
 40
0.0104167
 41
0.0104167
  0
VERTEX
  8
0
 10
8.04525
 20
8.27317
 30
0.0
 40
0.0104167
 41
0.0104167
  0
VERTEX
  8
0
 10
8.03874
 20
8.29747
 30
0.0
 40
0.0104167
 41
0.0104167
  0
VERTEX
  8
0
 10
8.03874
 20
8.30556
 30
0.0
 40
0.0104167
 41
0.0104167
  0
VERTEX
  8
0
 10
8.03874
 20
8.31369
 30
0.0
 40
0.0104167
 41
0.0104167
  0
VERTEX
  8
0
 10
8.04525
 20
8.338
 30
0.0
 40
0.0104167
 41
0.0104167
  0
VERTEX
  8
0
 10
8.06315
 20
8.36447
 30
0.0
 40
0.0104167
 41
0.0104167
  0
VERTEX
  8
0
 10
8.08963
 20
8.38238
 30
0.0
 40
0.0104167
 41
0.0104167
  0
VERTEX
  8
0
 10
8.11393
 20
8.38889
 30
0.0
 40
0.0104167
 41
0.0104167
  0
VERTEX
  8
0
 10
8.12207
 20
8.38889
 30
0.0
 40
0.0104167
 41
0.0104167
  0
VERTEX
  8
0
 10
8.13015
 20
8.38889
 30
0.0
 40
0.0104167
 41
0.0104167
  0
VERTEX
  8
0
 10
8.15446
 20
8.38238
 30
0.0
 40
0.0104167
 41
0.0104167
  0
VERTEX
  8
0
 10
8.18099
 20
8.36447
 30
0.0
 40
0.0104167
 41
0.0104167
  0
VERTEX
  8
0
 10
8.19883
 20
8.338
 30
0.0
 40
0.0104167
 41
0.0104167
  0
VERTEX
  8
0
 10
8.2054
 20
8.31369
 30
0.0
 40
0.0104167
 41
0.0104167
  0
VERTEX
  8
0
 10
8.2054
 20
8.30556
 30
0.0
 40
0.0104167
 41
0.0104167
  0
VERTEX
  8
0
 10
8.2054
 20
8.29747
 30
0.0
 40
0.0104167
 41
0.0104167
  0
VERTEX
  8
0
 10
8.19883
 20
8.27317
 30
0.0
 40
0.0104167
 41
0.0104167
  0
VERTEX
  8
0
 10
8.18099
 20
8.24664
 30
0.0
 40
0.0104167
 41
0.0104167
  0
VERTEX
  8
0
 10
8.15446
 20
8.22879
 30
0.0
 40
0.0104167
 41
0.0104167
  0
VERTEX
  8
0
 10
8.13015
 20
8.22222
 30
0.0
 40
0.0104167
 41
0.0104167
  0
VERTEX
  8
0
 10
8.12207
 20
8.22222
 30
0.0
 40
0.0104167
 41
0.0104167
  0
SEQEND
 8
0
  0
POLYLINE
  8
0
 62
     7
 66
     1
 10
0
 20
0
 30
0.0
 70
     1
 40
0
 41
0
  0
VERTEX
  8
0
 10
7.82487
 20
8.491
 30
0.0
 40
0
 41
0
  0
VERTEX
  8
0
 10
7.81674
 20
8.491
 30
0.0
 40
0
 41
0
  0
VERTEX
  8
0
 10
7.79243
 20
8.49756
 30
0.0
 40
0
 41
0
  0
VERTEX
  8
0
 10
7.76594
 20
8.5154
 30
0.0
 40
0
 41
0
  0
VERTEX
  8
0
 10
7.74804
 20
8.54194
 30
0.0
 40
0
 41
0
  0
VERTEX
  8
0
 10
7.74154
 20
8.56625
 30
0.0
 40
0
 41
0
  0
VERTEX
  8
0
 10
7.74154
 20
8.57433
 30
0.0
 40
0
 41
0
  0
VERTEX
  8
0
 10
7.74154
 20
8.58247
 30
0.0
 40
0
 41
0
  0
VERTEX
  8
0
 10
7.74804
 20
8.60682
 30
0.0
 40
0
 41
0
  0
VERTEX
  8
0
 10
7.76594
 20
8.63331
 30
0.0
 40
0
 41
0
  0
VERTEX
  8
0
 10
7.79243
 20
8.65115
 30
0.0
 40
0
 41
0
  0
VERTEX
  8
0
 10
7.81674
 20
8.65767
 30
0.0
 40
0
 41
0
  0
VERTEX
  8
0
 10
7.82487
 20
8.65767
 30
0.0
 40
0
 41
0
  0
VERTEX
  8
0
 10
7.83296
 20
8.65767
 30
0.0
 40
0
 41
0
  0
VERTEX
  8
0
 10
7.85726
 20
8.65115
 30
0.0
 40
0
 41
0
  0
VERTEX
  8
0
 10
7.88379
 20
8.63331
 30
0.0
 40
0
 41
0
  0
VERTEX
  8
0
 10
7.90164
 20
8.60682
 30
0.0
 40
0
 41
0
  0
VERTEX
  8
0
 10
7.90821
 20
8.58247
 30
0.0
 40
0
 41
0
  0
VERTEX
  8
0
 10
7.90821
 20
8.57433
 30
0.0
 40
0
 41
0
  0
VERTEX
  8
0
 10
7.90821
 20
8.56625
 30
0.0
 40
0
 41
0
  0
VERTEX
  8
0
 10
7.90164
 20
8.54194
 30
0.0
 40
0
 41
0
  0
VERTEX
  8
0
 10
7.88379
 20
8.5154
 30
0.0
 40
0
 41
0
  0
VERTEX
  8
0
 10
7.85726
 20
8.49756
 30
0.0
 40
0
 41
0
  0
VERTEX
  8
0
 10
7.83296
 20
8.491
 30
0.0
 40
0
 41
0
  0
VERTEX
  8
0
 10
7.82487
 20
8.491
 30
0.0
 40
0
 41
0
  0
SEQEND
 8
0
  0
POLYLINE
  8
0
 62
     0
 66
     1
 10
0
 20
0
 30
0.0
 70
     1
 40
0.75
 41
0.75
  0
VERTEX
  8
0
 10
7.82487
 20
8.491
 30
0.0
 40
0.0104167
 41
0.0104167
  0
VERTEX
  8
0
 10
7.81674
 20
8.491
 30
0.0
 40
0.0104167
 41
0.0104167
  0
VERTEX
  8
0
 10
7.79243
 20
8.49756
 30
0.0
 40
0.0104167
 41
0.0104167
  0
VERTEX
  8
0
 10
7.76594
 20
8.5154
 30
0.0
 40
0.0104167
 41
0.0104167
  0
VERTEX
  8
0
 10
7.74804
 20
8.54194
 30
0.0
 40
0.0104167
 41
0.0104167
  0
VERTEX
  8
0
 10
7.74154
 20
8.56625
 30
0.0
 40
0.0104167
 41
0.0104167
  0
VERTEX
  8
0
 10
7.74154
 20
8.57433
 30
0.0
 40
0.0104167
 41
0.0104167
  0
VERTEX
  8
0
 10
7.74154
 20
8.58247
 30
0.0
 40
0.0104167
 41
0.0104167
  0
VERTEX
  8
0
 10
7.74804
 20
8.60682
 30
0.0
 40
0.0104167
 41
0.0104167
  0
VERTEX
  8
0
 10
7.76594
 20
8.63331
 30
0.0
 40
0.0104167
 41
0.0104167
  0
VERTEX
  8
0
 10
7.79243
 20
8.65115
 30
0.0
 40
0.0104167
 41
0.0104167
  0
VERTEX
  8
0
 10
7.81674
 20
8.65767
 30
0.0
 40
0.0104167
 41
0.0104167
  0
VERTEX
  8
0
 10
7.82487
 20
8.65767
 30
0.0
 40
0.0104167
 41
0.0104167
  0
VERTEX
  8
0
 10
7.83296
 20
8.65767
 30
0.0
 40
0.0104167
 41
0.0104167
  0
VERTEX
  8
0
 10
7.85726
 20
8.65115
 30
0.0
 40
0.0104167
 41
0.0104167
  0
VERTEX
  8
0
 10
7.88379
 20
8.63331
 30
0.0
 40
0.0104167
 41
0.0104167
  0
VERTEX
  8
0
 10
7.90164
 20
8.60682
 30
0.0
 40
0.0104167
 41
0.0104167
  0
VERTEX
  8
0
 10
7.90821
 20
8.58247
 30
0.0
 40
0.0104167
 41
0.0104167
  0
VERTEX
  8
0
 10
7.90821
 20
8.57433
 30
0.0
 40
0.0104167
 41
0.0104167
  0
VERTEX
  8
0
 10
7.90821
 20
8.56625
 30
0.0
 40
0.0104167
 41
0.0104167
  0
VERTEX
  8
0
 10
7.90164
 20
8.54194
 30
0.0
 40
0.0104167
 41
0.0104167
  0
VERTEX
  8
0
 10
7.88379
 20
8.5154
 30
0.0
 40
0.0104167
 41
0.0104167
  0
VERTEX
  8
0
 10
7.85726
 20
8.49756
 30
0.0
 40
0.0104167
 41
0.0104167
  0
VERTEX
  8
0
 10
7.83296
 20
8.491
 30
0.0
 40
0.0104167
 41
0.0104167
  0
VERTEX
  8
0
 10
7.82487
 20
8.491
 30
0.0
 40
0.0104167
 41
0.0104167
  0
SEQEND
 8
0
  0
POLYLINE
  8
0
 62
     7
 66
     1
 10
0
 20
0
 30
0.0
 70
     1
 40
0
 41
0
  0
VERTEX
  8
0
 10
7.82487
 20
8.22222
 30
0.0
 40
0
 41
0
  0
VERTEX
  8
0
 10
7.81674
 20
8.22222
 30
0.0
 40
0
 41
0
  0
VERTEX
  8
0
 10
7.79243
 20
8.22879
 30
0.0
 40
0
 41
0
  0
VERTEX
  8
0
 10
7.76594
 20
8.24664
 30
0.0
 40
0
 41
0
  0
VERTEX
  8
0
 10
7.74804
 20
8.27317
 30
0.0
 40
0
 41
0
  0
VERTEX
  8
0
 10
7.74154
 20
8.29747
 30
0.0
 40
0
 41
0
  0
VERTEX
  8
0
 10
7.74154
 20
8.30556
 30
0.0
 40
0
 41
0
  0
VERTEX
  8
0
 10
7.74154
 20
8.31369
 30
0.0
 40
0
 41
0
  0
VERTEX
  8
0
 10
7.74804
 20
8.338
 30
0.0
 40
0
 41
0
  0
VERTEX
  8
0
 10
7.76594
 20
8.36447
 30
0.0
 40
0
 41
0
  0
VERTEX
  8
0
 10
7.79243
 20
8.38238
 30
0.0
 40
0
 41
0
  0
VERTEX
  8
0
 10
7.81674
 20
8.38889
 30
0.0
 40
0
 41
0
  0
VERTEX
  8
0
 10
7.82487
 20
8.38889
 30
0.0
 40
0
 41
0
  0
VERTEX
  8
0
 10
7.83296
 20
8.38889
 30
0.0
 40
0
 41
0
  0
VERTEX
  8
0
 10
7.85726
 20
8.38238
 30
0.0
 40
0
 41
0
  0
VERTEX
  8
0
 10
7.88379
 20
8.36447
 30
0.0
 40
0
 41
0
  0
VERTEX
  8
0
 10
7.90164
 20
8.338
 30
0.0
 40
0
 41
0
  0
VERTEX
  8
0
 10
7.90821
 20
8.31369
 30
0.0
 40
0
 41
0
  0
VERTEX
  8
0
 10
7.90821
 20
8.30556
 30
0.0
 40
0
 41
0
  0
VERTEX
  8
0
 10
7.90821
 20
8.29747
 30
0.0
 40
0
 41
0
  0
VERTEX
  8
0
 10
7.90164
 20
8.27317
 30
0.0
 40
0
 41
0
  0
VERTEX
  8
0
 10
7.88379
 20
8.24664
 30
0.0
 40
0
 41
0
  0
VERTEX
  8
0
 10
7.85726
 20
8.22879
 30
0.0
 40
0
 41
0
  0
VERTEX
  8
0
 10
7.83296
 20
8.22222
 30
0.0
 40
0
 41
0
  0
VERTEX
  8
0
 10
7.82487
 20
8.22222
 30
0.0
 40
0
 41
0
  0
SEQEND
 8
0
  0
POLYLINE
  8
0
 62
     0
 66
     1
 10
0
 20
0
 30
0.0
 70
     1
 40
0.75
 41
0.75
  0
VERTEX
  8
0
 10
7.82487
 20
8.22222
 30
0.0
 40
0.0104167
 41
0.0104167
  0
VERTEX
  8
0
 10
7.81674
 20
8.22222
 30
0.0
 40
0.0104167
 41
0.0104167
  0
VERTEX
  8
0
 10
7.79243
 20
8.22879
 30
0.0
 40
0.0104167
 41
0.0104167
  0
VERTEX
  8
0
 10
7.76594
 20
8.24664
 30
0.0
 40
0.0104167
 41
0.0104167
  0
VERTEX
  8
0
 10
7.74804
 20
8.27317
 30
0.0
 40
0.0104167
 41
0.0104167
  0
VERTEX
  8
0
 10
7.74154
 20
8.29747
 30
0.0
 40
0.0104167
 41
0.0104167
  0
VERTEX
  8
0
 10
7.74154
 20
8.30556
 30
0.0
 40
0.0104167
 41
0.0104167
  0
VERTEX
  8
0
 10
7.74154
 20
8.31369
 30
0.0
 40
0.0104167
 41
0.0104167
  0
VERTEX
  8
0
 10
7.74804
 20
8.338
 30
0.0
 40
0.0104167
 41
0.0104167
  0
VERTEX
  8
0
 10
7.76594
 20
8.36447
 30
0.0
 40
0.0104167
 41
0.0104167
  0
VERTEX
  8
0
 10
7.79243
 20
8.38238
 30
0.0
 40
0.0104167
 41
0.0104167
  0
VERTEX
  8
0
 10
7.81674
 20
8.38889
 30
0.0
 40
0.0104167
 41
0.0104167
  0
VERTEX
  8
0
 10
7.82487
 20
8.38889
 30
0.0
 40
0.0104167
 41
0.0104167
  0
VERTEX
  8
0
 10
7.83296
 20
8.38889
 30
0.0
 40
0.0104167
 41
0.0104167
  0
VERTEX
  8
0
 10
7.85726
 20
8.38238
 30
0.0
 40
0.0104167
 41
0.0104167
  0
VERTEX
  8
0
 10
7.88379
 20
8.36447
 30
0.0
 40
0.0104167
 41
0.0104167
  0
VERTEX
  8
0
 10
7.90164
 20
8.338
 30
0.0
 40
0.0104167
 41
0.0104167
  0
VERTEX
  8
0
 10
7.90821
 20
8.31369
 30
0.0
 40
0.0104167
 41
0.0104167
  0
VERTEX
  8
0
 10
7.90821
 20
8.30556
 30
0.0
 40
0.0104167
 41
0.0104167
  0
VERTEX
  8
0
 10
7.90821
 20
8.29747
 30
0.0
 40
0.0104167
 41
0.0104167
  0
VERTEX
  8
0
 10
7.90164
 20
8.27317
 30
0.0
 40
0.0104167
 41
0.0104167
  0
VERTEX
  8
0
 10
7.88379
 20
8.24664
 30
0.0
 40
0.0104167
 41
0.0104167
  0
VERTEX
  8
0
 10
7.85726
 20
8.22879
 30
0.0
 40
0.0104167
 41
0.0104167
  0
VERTEX
  8
0
 10
7.83296
 20
8.22222
 30
0.0
 40
0.0104167
 41
0.0104167
  0
VERTEX
  8
0
 10
7.82487
 20
8.22222
 30
0.0
 40
0.0104167
 41
0.0104167
  0
SEQEND
 8
0
  0
POLYLINE
  8
0
 62
     7
 66
     1
 10
0
 20
0
 30
0.0
 70
     1
 40
0
 41
0
  0
VERTEX
  8
0
 10
7.26237
 20
7.70731
 30
0.0
 40
0
 41
0
  0
VERTEX
  8
0
 10
7.58279
 20
7.70731
 30
0.0
 40
0
 41
0
  0
VERTEX
  8
0
 10
7.58279
 20
7.30208
 30
0.0
 40
0
 41
0
  0
VERTEX
  8
0
 10
7.26237
 20
7.30208
 30
0.0
 40
0
 41
0
  0
VERTEX
  8
0
 10
7.26237
 20
7.70731
 30
0.0
 40
0
 41
0
  0
SEQEND
 8
0
  0
POLYLINE
  8
0
 62
     0
 66
     1
 10
0
 20
0
 30
0.0
 70
     1
 40
0.75
 41
0.75
  0
VERTEX
  8
0
 10
7.26237
 20
7.70731
 30
0.0
 40
0.0104167
 41
0.0104167
  0
VERTEX
  8
0
 10
7.58279
 20
7.70731
 30
0.0
 40
0.0104167
 41
0.0104167
  0
VERTEX
  8
0
 10
7.58279
 20
7.30208
 30
0.0
 40
0.0104167
 41
0.0104167
  0
VERTEX
  8
0
 10
7.26237
 20
7.30208
 30
0.0
 40
0.0104167
 41
0.0104167
  0
VERTEX
  8
0
 10
7.26237
 20
7.70731
 30
0.0
 40
0.0104167
 41
0.0104167
  0
SEQEND
 8
0
  0
POLYLINE
  8
0
 62
     7
 66
     1
 10
0
 20
0
 30
0.0
 70
     1
 40
0
 41
0
  0
VERTEX
  8
0
 10
6.90842
 20
7.70822
 30
0.0
 40
0
 41
0
  0
VERTEX
  8
0
 10
7.22874
 20
7.70822
 30
0.0
 40
0
 41
0
  0
VERTEX
  8
0
 10
7.22874
 20
7.30311
 30
0.0
 40
0
 41
0
  0
VERTEX
  8
0
 10
6.90842
 20
7.30311
 30
0.0
 40
0
 41
0
  0
VERTEX
  8
0
 10
6.90842
 20
7.70822
 30
0.0
 40
0
 41
0
  0
SEQEND
 8
0
  0
POLYLINE
  8
0
 62
     0
 66
     1
 10
0
 20
0
 30
0.0
 70
     1
 40
0.75
 41
0.75
  0
VERTEX
  8
0
 10
6.90842
 20
7.70822
 30
0.0
 40
0.0104167
 41
0.0104167
  0
VERTEX
  8
0
 10
7.22874
 20
7.70822
 30
0.0
 40
0.0104167
 41
0.0104167
  0
VERTEX
  8
0
 10
7.22874
 20
7.30311
 30
0.0
 40
0.0104167
 41
0.0104167
  0
VERTEX
  8
0
 10
6.90842
 20
7.30311
 30
0.0
 40
0.0104167
 41
0.0104167
  0
VERTEX
  8
0
 10
6.90842
 20
7.70822
 30
0.0
 40
0.0104167
 41
0.0104167
  0
SEQEND
 8
0
  0
POLYLINE
  8
0
 62
     7
 66
     1
 10
0
 20
0
 30
0.0
 70
     1
 40
0
 41
0
  0
VERTEX
  8
0
 10
7.38108
 20
7.49989
 30
0.0
 40
0
 41
0
  0
VERTEX
  8
0
 10
7.38108
 20
7.50635
 30
0.0
 40
0
 41
0
  0
VERTEX
  8
0
 10
7.39171
 20
7.52572
 30
0.0
 40
0
 41
0
  0
VERTEX
  8
0
 10
7.41108
 20
7.53635
 30
0.0
 40
0
 41
0
  0
VERTEX
  8
0
 10
7.41754
 20
7.53635
 30
0.0
 40
0
 41
0
  0
VERTEX
  8
0
 10
7.42393
 20
7.53635
 30
0.0
 40
0
 41
0
  0
VERTEX
  8
0
 10
7.44331
 20
7.52572
 30
0.0
 40
0
 41
0
  0
VERTEX
  8
0
 10
7.454
 20
7.50635
 30
0.0
 40
0
 41
0
  0
VERTEX
  8
0
 10
7.454
 20
7.49989
 30
0.0
 40
0
 41
0
  0
VERTEX
  8
0
 10
7.454
 20
7.49349
 30
0.0
 40
0
 41
0
  0
VERTEX
  8
0
 10
7.44331
 20
7.47413
 30
0.0
 40
0
 41
0
  0
VERTEX
  8
0
 10
7.42393
 20
7.46343
 30
0.0
 40
0
 41
0
  0
VERTEX
  8
0
 10
7.41754
 20
7.46343
 30
0.0
 40
0
 41
0
  0
VERTEX
  8
0
 10
7.41108
 20
7.46343
 30
0.0
 40
0
 41
0
  0
VERTEX
  8
0
 10
7.39171
 20
7.47413
 30
0.0
 40
0
 41
0
  0
VERTEX
  8
0
 10
7.38108
 20
7.49349
 30
0.0
 40
0
 41
0
  0
VERTEX
  8
0
 10
7.38108
 20
7.49989
 30
0.0
 40
0
 41
0
  0
SEQEND
 8
0
  0
POLYLINE
  8
0
 62
     0
 66
     1
 10
0
 20
0
 30
0.0
 70
     1
 40
0.6
 41
0.6
  0
VERTEX
  8
0
 10
7.38108
 20
7.49989
 30
0.0
 40
0.00833333
 41
0.00833333
  0
VERTEX
  8
0
 10
7.38108
 20
7.50635
 30
0.0
 40
0.00833333
 41
0.00833333
  0
VERTEX
  8
0
 10
7.39171
 20
7.52572
 30
0.0
 40
0.00833333
 41
0.00833333
  0
VERTEX
  8
0
 10
7.41108
 20
7.53635
 30
0.0
 40
0.00833333
 41
0.00833333
  0
VERTEX
  8
0
 10
7.41754
 20
7.53635
 30
0.0
 40
0.00833333
 41
0.00833333
  0
VERTEX
  8
0
 10
7.42393
 20
7.53635
 30
0.0
 40
0.00833333
 41
0.00833333
  0
VERTEX
  8
0
 10
7.44331
 20
7.52572
 30
0.0
 40
0.00833333
 41
0.00833333
  0
VERTEX
  8
0
 10
7.454
 20
7.50635
 30
0.0
 40
0.00833333
 41
0.00833333
  0
VERTEX
  8
0
 10
7.454
 20
7.49989
 30
0.0
 40
0.00833333
 41
0.00833333
  0
VERTEX
  8
0
 10
7.454
 20
7.49349
 30
0.0
 40
0.00833333
 41
0.00833333
  0
VERTEX
  8
0
 10
7.44331
 20
7.47413
 30
0.0
 40
0.00833333
 41
0.00833333
  0
VERTEX
  8
0
 10
7.42393
 20
7.46343
 30
0.0
 40
0.00833333
 41
0.00833333
  0
VERTEX
  8
0
 10
7.41754
 20
7.46343
 30
0.0
 40
0.00833333
 41
0.00833333
  0
VERTEX
  8
0
 10
7.41108
 20
7.46343
 30
0.0
 40
0.00833333
 41
0.00833333
  0
VERTEX
  8
0
 10
7.39171
 20
7.47413
 30
0.0
 40
0.00833333
 41
0.00833333
  0
VERTEX
  8
0
 10
7.38108
 20
7.49349
 30
0.0
 40
0.00833333
 41
0.00833333
  0
VERTEX
  8
0
 10
7.38108
 20
7.49989
 30
0.0
 40
0.00833333
 41
0.00833333
  0
SEQEND
 8
0
  0
POLYLINE
  8
0
 62
     7
 66
     1
 10
0
 20
0
 30
0.0
 70
     1
 40
0
 41
0
  0
VERTEX
  8
0
 10
7.03825
 20
7.49989
 30
0.0
 40
0
 41
0
  0
VERTEX
  8
0
 10
7.03825
 20
7.50635
 30
0.0
 40
0
 41
0
  0
VERTEX
  8
0
 10
7.04889
 20
7.52572
 30
0.0
 40
0
 41
0
  0
VERTEX
  8
0
 10
7.06825
 20
7.53635
 30
0.0
 40
0
 41
0
  0
VERTEX
  8
0
 10
7.07471
 20
7.53635
 30
0.0
 40
0
 41
0
  0
VERTEX
  8
0
 10
7.08111
 20
7.53635
 30
0.0
 40
0
 41
0
  0
VERTEX
  8
0
 10
7.10047
 20
7.52572
 30
0.0
 40
0
 41
0
  0
VERTEX
  8
0
 10
7.11117
 20
7.50635
 30
0.0
 40
0
 41
0
  0
VERTEX
  8
0
 10
7.11117
 20
7.49989
 30
0.0
 40
0
 41
0
  0
VERTEX
  8
0
 10
7.11117
 20
7.49349
 30
0.0
 40
0
 41
0
  0
VERTEX
  8
0
 10
7.10047
 20
7.47413
 30
0.0
 40
0
 41
0
  0
VERTEX
  8
0
 10
7.08111
 20
7.46343
 30
0.0
 40
0
 41
0
  0
VERTEX
  8
0
 10
7.07471
 20
7.46343
 30
0.0
 40
0
 41
0
  0
VERTEX
  8
0
 10
7.06825
 20
7.46343
 30
0.0
 40
0
 41
0
  0
VERTEX
  8
0
 10
7.04889
 20
7.47413
 30
0.0
 40
0
 41
0
  0
VERTEX
  8
0
 10
7.03825
 20
7.49349
 30
0.0
 40
0
 41
0
  0
VERTEX
  8
0
 10
7.03825
 20
7.49989
 30
0.0
 40
0
 41
0
  0
SEQEND
 8
0
  0
POLYLINE
  8
0
 62
     0
 66
     1
 10
0
 20
0
 30
0.0
 70
     1
 40
0.6
 41
0.6
  0
VERTEX
  8
0
 10
7.03825
 20
7.49989
 30
0.0
 40
0.00833333
 41
0.00833333
  0
VERTEX
  8
0
 10
7.03825
 20
7.50635
 30
0.0
 40
0.00833333
 41
0.00833333
  0
VERTEX
  8
0
 10
7.04889
 20
7.52572
 30
0.0
 40
0.00833333
 41
0.00833333
  0
VERTEX
  8
0
 10
7.06825
 20
7.53635
 30
0.0
 40
0.00833333
 41
0.00833333
  0
VERTEX
  8
0
 10
7.07471
 20
7.53635
 30
0.0
 40
0.00833333
 41
0.00833333
  0
VERTEX
  8
0
 10
7.08111
 20
7.53635
 30
0.0
 40
0.00833333
 41
0.00833333
  0
VERTEX
  8
0
 10
7.10047
 20
7.52572
 30
0.0
 40
0.00833333
 41
0.00833333
  0
VERTEX
  8
0
 10
7.11117
 20
7.50635
 30
0.0
 40
0.00833333
 41
0.00833333
  0
VERTEX
  8
0
 10
7.11117
 20
7.49989
 30
0.0
 40
0.00833333
 41
0.00833333
  0
VERTEX
  8
0
 10
7.11117
 20
7.49349
 30
0.0
 40
0.00833333
 41
0.00833333
  0
VERTEX
  8
0
 10
7.10047
 20
7.47413
 30
0.0
 40
0.00833333
 41
0.00833333
  0
VERTEX
  8
0
 10
7.08111
 20
7.46343
 30
0.0
 40
0.00833333
 41
0.00833333
  0
VERTEX
  8
0
 10
7.07471
 20
7.46343
 30
0.0
 40
0.00833333
 41
0.00833333
  0
VERTEX
  8
0
 10
7.06825
 20
7.46343
 30
0.0
 40
0.00833333
 41
0.00833333
  0
VERTEX
  8
0
 10
7.04889
 20
7.47413
 30
0.0
 40
0.00833333
 41
0.00833333
  0
VERTEX
  8
0
 10
7.03825
 20
7.49349
 30
0.0
 40
0.00833333
 41
0.00833333
  0
VERTEX
  8
0
 10
7.03825
 20
7.49989
 30
0.0
 40
0.00833333
 41
0.00833333
  0
SEQEND
 8
0
  0
POLYLINE
  8
0
 62
     7
 66
     1
 10
0
 20
0
 30
0.0
 70
     1
 40
0
 41
0
  0
VERTEX
  8
0
 10
7.39671
 20
7.49989
 30
0.0
 40
0
 41
0
  0
VERTEX
  8
0
 10
7.39671
 20
7.50358
 30
0.0
 40
0
 41
0
  0
VERTEX
  8
0
 10
7.40278
 20
7.51465
 30
0.0
 40
0
 41
0
  0
VERTEX
  8
0
 10
7.41385
 20
7.52072
 30
0.0
 40
0
 41
0
  0
VERTEX
  8
0
 10
7.41754
 20
7.52072
 30
0.0
 40
0
 41
0
  0
VERTEX
  8
0
 10
7.42117
 20
7.52072
 30
0.0
 40
0
 41
0
  0
VERTEX
  8
0
 10
7.43224
 20
7.51465
 30
0.0
 40
0
 41
0
  0
VERTEX
  8
0
 10
7.43837
 20
7.50358
 30
0.0
 40
0
 41
0
  0
VERTEX
  8
0
 10
7.43837
 20
7.49989
 30
0.0
 40
0
 41
0
  0
VERTEX
  8
0
 10
7.43837
 20
7.49625
 30
0.0
 40
0
 41
0
  0
VERTEX
  8
0
 10
7.43224
 20
7.48519
 30
0.0
 40
0
 41
0
  0
VERTEX
  8
0
 10
7.42117
 20
7.47906
 30
0.0
 40
0
 41
0
  0
VERTEX
  8
0
 10
7.41754
 20
7.47906
 30
0.0
 40
0
 41
0
  0
VERTEX
  8
0
 10
7.41385
 20
7.47906
 30
0.0
 40
0
 41
0
  0
VERTEX
  8
0
 10
7.40278
 20
7.48519
 30
0.0
 40
0
 41
0
  0
VERTEX
  8
0
 10
7.39671
 20
7.49625
 30
0.0
 40
0
 41
0
  0
VERTEX
  8
0
 10
7.39671
 20
7.49989
 30
0.0
 40
0
 41
0
  0
SEQEND
 8
0
  0
POLYLINE
  8
0
 62
     0
 66
     1
 10
0
 20
0
 30
0.0
 70
     1
 40
0.6
 41
0.6
  0
VERTEX
  8
0
 10
7.39671
 20
7.49989
 30
0.0
 40
0.00833333
 41
0.00833333
  0
VERTEX
  8
0
 10
7.39671
 20
7.50358
 30
0.0
 40
0.00833333
 41
0.00833333
  0
VERTEX
  8
0
 10
7.40278
 20
7.51465
 30
0.0
 40
0.00833333
 41
0.00833333
  0
VERTEX
  8
0
 10
7.41385
 20
7.52072
 30
0.0
 40
0.00833333
 41
0.00833333
  0
VERTEX
  8
0
 10
7.41754
 20
7.52072
 30
0.0
 40
0.00833333
 41
0.00833333
  0
VERTEX
  8
0
 10
7.42117
 20
7.52072
 30
0.0
 40
0.00833333
 41
0.00833333
  0
VERTEX
  8
0
 10
7.43224
 20
7.51465
 30
0.0
 40
0.00833333
 41
0.00833333
  0
VERTEX
  8
0
 10
7.43837
 20
7.50358
 30
0.0
 40
0.00833333
 41
0.00833333
  0
VERTEX
  8
0
 10
7.43837
 20
7.49989
 30
0.0
 40
0.00833333
 41
0.00833333
  0
VERTEX
  8
0
 10
7.43837
 20
7.49625
 30
0.0
 40
0.00833333
 41
0.00833333
  0
VERTEX
  8
0
 10
7.43224
 20
7.48519
 30
0.0
 40
0.00833333
 41
0.00833333
  0
VERTEX
  8
0
 10
7.42117
 20
7.47906
 30
0.0
 40
0.00833333
 41
0.00833333
  0
VERTEX
  8
0
 10
7.41754
 20
7.47906
 30
0.0
 40
0.00833333
 41
0.00833333
  0
VERTEX
  8
0
 10
7.41385
 20
7.47906
 30
0.0
 40
0.00833333
 41
0.00833333
  0
VERTEX
  8
0
 10
7.40278
 20
7.48519
 30
0.0
 40
0.00833333
 41
0.00833333
  0
VERTEX
  8
0
 10
7.39671
 20
7.49625
 30
0.0
 40
0.00833333
 41
0.00833333
  0
VERTEX
  8
0
 10
7.39671
 20
7.49989
 30
0.0
 40
0.00833333
 41
0.00833333
  0
SEQEND
 8
0
  0
POLYLINE
  8
0
 62
     7
 66
     1
 10
0
 20
0
 30
0.0
 70
     1
 40
0
 41
0
  0
VERTEX
  8
0
 10
7.05388
 20
7.49989
 30
0.0
 40
0
 41
0
  0
VERTEX
  8
0
 10
7.05388
 20
7.50358
 30
0.0
 40
0
 41
0
  0
VERTEX
  8
0
 10
7.05994
 20
7.51465
 30
0.0
 40
0
 41
0
  0
VERTEX
  8
0
 10
7.07101
 20
7.52072
 30
0.0
 40
0
 41
0
  0
VERTEX
  8
0
 10
7.07471
 20
7.52072
 30
0.0
 40
0
 41
0
  0
VERTEX
  8
0
 10
7.07835
 20
7.52072
 30
0.0
 40
0
 41
0
  0
VERTEX
  8
0
 10
7.08942
 20
7.51465
 30
0.0
 40
0
 41
0
  0
VERTEX
  8
0
 10
7.09554
 20
7.50358
 30
0.0
 40
0
 41
0
  0
VERTEX
  8
0
 10
7.09554
 20
7.49989
 30
0.0
 40
0
 41
0
  0
VERTEX
  8
0
 10
7.09554
 20
7.49625
 30
0.0
 40
0
 41
0
  0
VERTEX
  8
0
 10
7.08942
 20
7.48519
 30
0.0
 40
0
 41
0
  0
VERTEX
  8
0
 10
7.07835
 20
7.47906
 30
0.0
 40
0
 41
0
  0
VERTEX
  8
0
 10
7.07471
 20
7.47906
 30
0.0
 40
0
 41
0
  0
VERTEX
  8
0
 10
7.07101
 20
7.47906
 30
0.0
 40
0
 41
0
  0
VERTEX
  8
0
 10
7.05994
 20
7.48519
 30
0.0
 40
0
 41
0
  0
VERTEX
  8
0
 10
7.05388
 20
7.49625
 30
0.0
 40
0
 41
0
  0
VERTEX
  8
0
 10
7.05388
 20
7.49989
 30
0.0
 40
0
 41
0
  0
SEQEND
 8
0
  0
POLYLINE
  8
0
 62
     0
 66
     1
 10
0
 20
0
 30
0.0
 70
     1
 40
0.6
 41
0.6
  0
VERTEX
  8
0
 10
7.05388
 20
7.49989
 30
0.0
 40
0.00833333
 41
0.00833333
  0
VERTEX
  8
0
 10
7.05388
 20
7.50358
 30
0.0
 40
0.00833333
 41
0.00833333
  0
VERTEX
  8
0
 10
7.05994
 20
7.51465
 30
0.0
 40
0.00833333
 41
0.00833333
  0
VERTEX
  8
0
 10
7.07101
 20
7.52072
 30
0.0
 40
0.00833333
 41
0.00833333
  0
VERTEX
  8
0
 10
7.07471
 20
7.52072
 30
0.0
 40
0.00833333
 41
0.00833333
  0
VERTEX
  8
0
 10
7.07835
 20
7.52072
 30
0.0
 40
0.00833333
 41
0.00833333
  0
VERTEX
  8
0
 10
7.08942
 20
7.51465
 30
0.0
 40
0.00833333
 41
0.00833333
  0
VERTEX
  8
0
 10
7.09554
 20
7.50358
 30
0.0
 40
0.00833333
 41
0.00833333
  0
VERTEX
  8
0
 10
7.09554
 20
7.49989
 30
0.0
 40
0.00833333
 41
0.00833333
  0
VERTEX
  8
0
 10
7.09554
 20
7.49625
 30
0.0
 40
0.00833333
 41
0.00833333
  0
VERTEX
  8
0
 10
7.08942
 20
7.48519
 30
0.0
 40
0.00833333
 41
0.00833333
  0
VERTEX
  8
0
 10
7.07835
 20
7.47906
 30
0.0
 40
0.00833333
 41
0.00833333
  0
VERTEX
  8
0
 10
7.07471
 20
7.47906
 30
0.0
 40
0.00833333
 41
0.00833333
  0
VERTEX
  8
0
 10
7.07101
 20
7.47906
 30
0.0
 40
0.00833333
 41
0.00833333
  0
VERTEX
  8
0
 10
7.05994
 20
7.48519
 30
0.0
 40
0.00833333
 41
0.00833333
  0
VERTEX
  8
0
 10
7.05388
 20
7.49625
 30
0.0
 40
0.00833333
 41
0.00833333
  0
VERTEX
  8
0
 10
7.05388
 20
7.49989
 30
0.0
 40
0.00833333
 41
0.00833333
  0
SEQEND
 8
0
  0
POLYLINE
  8
0
 62
     7
 66
     1
 10
0
 20
0
 30
0.0
 70
     1
 40
0
 41
0
  0
VERTEX
  8
0
 10
7.21674
 20
7.39019
 30
0.0
 40
0
 41
0
  0
VERTEX
  8
0
 10
7.27924
 20
7.39019
 30
0.0
 40
0
 41
0
  0
VERTEX
  8
0
 10
7.27924
 20
7.24436
 30
0.0
 40
0
 41
0
  0
VERTEX
  8
0
 10
7.21674
 20
7.24436
 30
0.0
 40
0
 41
0
  0
VERTEX
  8
0
 10
7.21674
 20
7.39019
 30
0.0
 40
0
 41
0
  0
SEQEND
 8
0
  0
POLYLINE
  8
0
 62
     0
 66
     1
 10
0
 20
0
 30
0.0
 70
     1
 40
0.75
 41
0.75
  0
VERTEX
  8
0
 10
7.21674
 20
7.39019
 30
0.0
 40
0.0104167
 41
0.0104167
  0
VERTEX
  8
0
 10
7.27924
 20
7.39019
 30
0.0
 40
0.0104167
 41
0.0104167
  0
VERTEX
  8
0
 10
7.27924
 20
7.24436
 30
0.0
 40
0.0104167
 41
0.0104167
  0
VERTEX
  8
0
 10
7.21674
 20
7.24436
 30
0.0
 40
0.0104167
 41
0.0104167
  0
VERTEX
  8
0
 10
7.21674
 20
7.39019
 30
0.0
 40
0.0104167
 41
0.0104167
  0
SEQEND
 8
0
  0
POLYLINE
  8
0
 62
     7
 66
     1
 10
0
 20
0
 30
0.0
 70
     1
 40
0
 41
0
  0
VERTEX
  8
0
 10
6.22715
 20
7.77149
 30
0.0
 40
0
 41
0
  0
VERTEX
  8
0
 10
6.85215
 20
7.77149
 30
0.0
 40
0
 41
0
  0
VERTEX
  8
0
 10
6.85215
 20
7.15158
 30
0.0
 40
0
 41
0
  0
VERTEX
  8
0
 10
6.22715
 20
7.15158
 30
0.0
 40
0
 41
0
  0
VERTEX
  8
0
 10
6.22715
 20
7.77149
 30
0.0
 40
0
 41
0
  0
SEQEND
 8
0
  0
POLYLINE
  8
0
 62
     0
 66
     1
 10
0
 20
0
 30
0.0
 70
     1
 40
0.75
 41
0.75
  0
VERTEX
  8
0
 10
6.22715
 20
7.77149
 30
0.0
 40
0.0104167
 41
0.0104167
  0
VERTEX
  8
0
 10
6.85215
 20
7.77149
 30
0.0
 40
0.0104167
 41
0.0104167
  0
VERTEX
  8
0
 10
6.85215
 20
7.15158
 30
0.0
 40
0.0104167
 41
0.0104167
  0
VERTEX
  8
0
 10
6.22715
 20
7.15158
 30
0.0
 40
0.0104167
 41
0.0104167
  0
VERTEX
  8
0
 10
6.22715
 20
7.77149
 30
0.0
 40
0.0104167
 41
0.0104167
  0
SEQEND
 8
0
  0
POLYLINE
  8
0
 62
     0
 66
     1
 10
0
 20
0
 30
0.0
 40
0.75
 41
0.75
  0
VERTEX
  8
0
 10
6.85215
 20
7.15158
 30
0.0
 40
0.0104167
 41
0.0104167
  0
VERTEX
  8
0
 10
6.53863
 20
7.56278
 30
0.0
 40
0.0104167
 41
0.0104167
  0
VERTEX
  8
0
 10
6.53863
 20
7.352
 30
0.0
 40
0.0104167
 41
0.0104167
  0
VERTEX
  8
0
 10
6.22825
 20
7.77149
 30
0.0
 40
0.0104167
 41
0.0104167
  0
SEQEND
 8
0
  0
POLYLINE
  8
0
 62
     0
 66
     1
 10
0
 20
0
 30
0.0
 70
     1
 40
0.75
 41
0.75
  0
VERTEX
  8
0
 10
7.95888
 20
10.0922
 30
0.0
 40
0.0104167
 41
0.0104167
  0
VERTEX
  8
0
 10
7.95888
 20
8.70594
 30
0.0
 40
0.0104167
 41
0.0104167
  0
VERTEX
  8
0
 10
7.77544
 20
8.70594
 30
0.0
 40
0.0104167
 41
0.0104167
  0
VERTEX
  8
0
 10
7.77544
 20
8.17156
 30
0.0
 40
0.0104167
 41
0.0104167
  0
VERTEX
  8
0
 10
7.95751
 20
8.17156
 30
0.0
 40
0.0104167
 41
0.0104167
  0
VERTEX
  8
0
 10
7.95751
 20
7.4656
 30
0.0
 40
0.0104167
 41
0.0104167
  0
VERTEX
  8
0
 10
6.2251
 20
7.4656
 30
0.0
 40
0.0104167
 41
0.0104167
  0
VERTEX
  8
0
 10
6.22721
 20
7.15153
 30
0.0
 40
0.0104167
 41
0.0104167
  0
VERTEX
  8
0
 10
8.27149
 20
7.15218
 30
0.0
 40
0.0104167
 41
0.0104167
  0
VERTEX
  8
0
 10
8.27061
 20
10.0895
 30
0.0
 40
0.0104167
 41
0.0104167
  0
VERTEX
  8
0
 10
7.95888
 20
10.0922
 30
0.0
 40
0.0104167
 41
0.0104167
  0
SEQEND
 8
0
  0
POLYLINE
  8
0
 62
     7
 66
     1
 10
0
 20
0
 30
0.0
 70
     1
 40
0
 41
0
  0
VERTEX
  8
0
 10
4.176
 20
4.77061
 30
0.0
 40
0
 41
0
  0
VERTEX
  8
0
 10
4.76617
 20
4.77061
 30
0.0
 40
0
 41
0
  0
VERTEX
  8
0
 10
4.76617
 20
3.29449
 30
0.0
 40
0
 41
0
  0
VERTEX
  8
0
 10
4.176
 20
3.29449
 30
0.0
 40
0
 41
0
  0
VERTEX
  8
0
 10
4.176
 20
4.77061
 30
0.0
 40
0
 41
0
  0
SEQEND
 8
0
  0
POLYLINE
  8
0
 62
     0
 66
     1
 10
0
 20
0
 30
0.0
 70
     1
 40
0.75
 41
0.75
  0
VERTEX
  8
0
 10
4.176
 20
4.77061
 30
0.0
 40
0.0104167
 41
0.0104167
  0
VERTEX
  8
0
 10
4.176
 20
3.29449
 30
0.0
 40
0.0104167
 41
0.0104167
  0
VERTEX
  8
0
 10
4.76617
 20
3.29449
 30
0.0
 40
0.0104167
 41
0.0104167
  0
VERTEX
  8
0
 10
4.76617
 20
4.77061
 30
0.0
 40
0.0104167
 41
0.0104167
  0
VERTEX
  8
0
 10
4.176
 20
4.77061
 30
0.0
 40
0.0104167
 41
0.0104167
  0
SEQEND
 8
0
  0
POLYLINE
  8
0
 62
     253
 66
     1
 10
0
 20
0
 30
0.0
 40
0.75
 41
0.75
  0
VERTEX
  8
0
 10
4.47108
 20
3.29449
 30
0.0
 40
0.0104167
 41
0.0104167
  0
VERTEX
  8
0
 10
4.47108
 20
4.77061
 30
0.0
 40
0.0104167
 41
0.0104167
  0
SEQEND
 8
0
  0
POLYLINE
  8
0
 62
     7
 66
     1
 10
0
 20
0
 30
0.0
 70
     1
 40
0
 41
0
  0
VERTEX
  8
0
 10
7.02821
 20
1.71121
 30
0.0
 40
0
 41
0
  0
VERTEX
  8
0
 10
7.02821
 20
0.0762261
 30
0.0
 40
0
 41
0
  0
VERTEX
  8
0
 10
7.10113
 20
0.0137261
 30
0.0
 40
0
 41
0
  0
VERTEX
  8
0
 10
7.10113
 20
1.71121
 30
0.0
 40
0
 41
0
  0
VERTEX
  8
0
 10
7.02821
 20
1.71121
 30
0.0
 40
0
 41
0
  0
SEQEND
 8
0
  0
POLYLINE
  8
0
 62
     0
 66
     1
 10
0
 20
0
 30
0.0
 70
     1
 40
0.15
 41
0.15
  0
VERTEX
  8
0
 10
7.02821
 20
1.71121
 30
0.0
 40
0.00208333
 41
0.00208333
  0
VERTEX
  8
0
 10
7.02821
 20
0.0762261
 30
0.0
 40
0.00208333
 41
0.00208333
  0
VERTEX
  8
0
 10
7.10113
 20
0.0137261
 30
0.0
 40
0.00208333
 41
0.00208333
  0
VERTEX
  8
0
 10
7.10113
 20
1.71121
 30
0.0
 40
0.00208333
 41
0.00208333
  0
VERTEX
  8
0
 10
7.02821
 20
1.71121
 30
0.0
 40
0.00208333
 41
0.00208333
  0
SEQEND
 8
0
  0
POLYLINE
  8
0
 62
     7
 66
     1
 10
0
 20
0
 30
0.0
 70
     1
 40
0
 41
0
  0
VERTEX
  8
0
 10
7.02821
 20
0.0762261
 30
0.0
 40
0
 41
0
  0
VERTEX
  8
0
 10
5.86583
 20
0.0762261
 30
0.0
 40
0
 41
0
  0
VERTEX
  8
0
 10
5.86583
 20
0.0137261
 30
0.0
 40
0
 41
0
  0
VERTEX
  8
0
 10
7.10113
 20
0.0137261
 30
0.0
 40
0
 41
0
  0
VERTEX
  8
0
 10
7.02821
 20
0.0762261
 30
0.0
 40
0
 41
0
  0
SEQEND
 8
0
  0
POLYLINE
  8
0
 62
     0
 66
     1
 10
0
 20
0
 30
0.0
 70
     1
 40
0.15
 41
0.15
  0
VERTEX
  8
0
 10
7.02821
 20
0.0762261
 30
0.0
 40
0.00208333
 41
0.00208333
  0
VERTEX
  8
0
 10
5.86583
 20
0.0762261
 30
0.0
 40
0.00208333
 41
0.00208333
  0
VERTEX
  8
0
 10
5.86583
 20
0.0137261
 30
0.0
 40
0.00208333
 41
0.00208333
  0
VERTEX
  8
0
 10
7.10113
 20
0.0137261
 30
0.0
 40
0.00208333
 41
0.00208333
  0
VERTEX
  8
0
 10
7.02821
 20
0.0762261
 30
0.0
 40
0.00208333
 41
0.00208333
  0
SEQEND
 8
0
  0
POLYLINE
  8
0
 62
     7
 66
     1
 10
0
 20
0
 30
0.0
 70
     1
 40
0
 41
0
  0
VERTEX
  8
0
 10
4.32428
 20
1.71121
 30
0.0
 40
0
 41
0
  0
VERTEX
  8
0
 10
4.38678
 20
1.71121
 30
0.0
 40
0
 41
0
  0
VERTEX
  8
0
 10
4.38678
 20
0.0137261
 30
0.0
 40
0
 41
0
  0
VERTEX
  8
0
 10
4.32428
 20
0.0137261
 30
0.0
 40
0
 41
0
  0
VERTEX
  8
0
 10
4.32428
 20
1.71121
 30
0.0
 40
0
 41
0
  0
SEQEND
 8
0
  0
POLYLINE
  8
0
 62
     0
 66
     1
 10
0
 20
0
 30
0.0
 70
     1
 40
0.15
 41
0.15
  0
VERTEX
  8
0
 10
4.32428
 20
1.71121
 30
0.0
 40
0.00208333
 41
0.00208333
  0
VERTEX
  8
0
 10
4.38678
 20
1.71121
 30
0.0
 40
0.00208333
 41
0.00208333
  0
VERTEX
  8
0
 10
4.38678
 20
0.0137261
 30
0.0
 40
0.00208333
 41
0.00208333
  0
VERTEX
  8
0
 10
4.32428
 20
0.0137261
 30
0.0
 40
0.00208333
 41
0.00208333
  0
VERTEX
  8
0
 10
4.32428
 20
1.71121
 30
0.0
 40
0.00208333
 41
0.00208333
  0
SEQEND
 8
0
  0
POLYLINE
  8
0
 62
     7
 66
     1
 10
0
 20
0
 30
0.0
 70
     1
 40
0
 41
0
  0
VERTEX
  8
0
 10
6.4599
 20
1.71121
 30
0.0
 40
0
 41
0
  0
VERTEX
  8
0
 10
7.02826
 20
1.71121
 30
0.0
 40
0
 41
0
  0
VERTEX
  8
0
 10
7.02826
 20
0.0775282
 30
0.0
 40
0
 41
0
  0
VERTEX
  8
0
 10
6.4599
 20
0.0775282
 30
0.0
 40
0
 41
0
  0
VERTEX
  8
0
 10
6.4599
 20
1.71121
 30
0.0
 40
0
 41
0
  0
SEQEND
 8
0
  0
POLYLINE
  8
0
 62
     0
 66
     1
 10
0
 20
0
 30
0.0
 70
     1
 40
0.75
 41
0.75
  0
VERTEX
  8
0
 10
6.4599
 20
1.71121
 30
0.0
 40
0.0104167
 41
0.0104167
  0
VERTEX
  8
0
 10
6.4599
 20
0.0775282
 30
0.0
 40
0.0104167
 41
0.0104167
  0
VERTEX
  8
0
 10
7.02826
 20
0.0775282
 30
0.0
 40
0.0104167
 41
0.0104167
  0
VERTEX
  8
0
 10
7.02826
 20
1.71121
 30
0.0
 40
0.0104167
 41
0.0104167
  0
VERTEX
  8
0
 10
6.4599
 20
1.71121
 30
0.0
 40
0.0104167
 41
0.0104167
  0
SEQEND
 8
0
  0
POLYLINE
  8
0
 62
     253
 66
     1
 10
0
 20
0
 30
0.0
 40
0.375
 41
0.375
  0
VERTEX
  8
0
 10
6.9714
 20
1.71121
 30
0.0
 40
0.00520833
 41
0.00520833
  0
VERTEX
  8
0
 10
6.9714
 20
0.0775282
 30
0.0
 40
0.00520833
 41
0.00520833
  0
SEQEND
 8
0
  0
POLYLINE
  8
0
 62
     253
 66
     1
 10
0
 20
0
 30
0.0
 40
0.375
 41
0.375
  0
VERTEX
  8
0
 10
6.91461
 20
1.71121
 30
0.0
 40
0.00520833
 41
0.00520833
  0
VERTEX
  8
0
 10
6.91461
 20
0.0775282
 30
0.0
 40
0.00520833
 41
0.00520833
  0
SEQEND
 8
0
  0
POLYLINE
  8
0
 62
     253
 66
     1
 10
0
 20
0
 30
0.0
 40
0.375
 41
0.375
  0
VERTEX
  8
0
 10
6.85781
 20
1.71121
 30
0.0
 40
0.00520833
 41
0.00520833
  0
VERTEX
  8
0
 10
6.85781
 20
0.0775282
 30
0.0
 40
0.00520833
 41
0.00520833
  0
SEQEND
 8
0
  0
POLYLINE
  8
0
 62
     253
 66
     1
 10
0
 20
0
 30
0.0
 40
0.375
 41
0.375
  0
VERTEX
  8
0
 10
6.80094
 20
1.71121
 30
0.0
 40
0.00520833
 41
0.00520833
  0
VERTEX
  8
0
 10
6.80094
 20
0.0775282
 30
0.0
 40
0.00520833
 41
0.00520833
  0
SEQEND
 8
0
  0
POLYLINE
  8
0
 62
     253
 66
     1
 10
0
 20
0
 30
0.0
 40
0.375
 41
0.375
  0
VERTEX
  8
0
 10
6.74414
 20
1.71121
 30
0.0
 40
0.00520833
 41
0.00520833
  0
VERTEX
  8
0
 10
6.74414
 20
0.0775282
 30
0.0
 40
0.00520833
 41
0.00520833
  0
SEQEND
 8
0
  0
POLYLINE
  8
0
 62
     253
 66
     1
 10
0
 20
0
 30
0.0
 40
0.375
 41
0.375
  0
VERTEX
  8
0
 10
6.68728
 20
1.71121
 30
0.0
 40
0.00520833
 41
0.00520833
  0
VERTEX
  8
0
 10
6.68728
 20
0.0775282
 30
0.0
 40
0.00520833
 41
0.00520833
  0
SEQEND
 8
0
  0
POLYLINE
  8
0
 62
     253
 66
     1
 10
0
 20
0
 30
0.0
 40
0.375
 41
0.375
  0
VERTEX
  8
0
 10
6.63049
 20
1.71121
 30
0.0
 40
0.00520833
 41
0.00520833
  0
VERTEX
  8
0
 10
6.63049
 20
0.0775282
 30
0.0
 40
0.00520833
 41
0.00520833
  0
SEQEND
 8
0
  0
POLYLINE
  8
0
 62
     253
 66
     1
 10
0
 20
0
 30
0.0
 40
0.375
 41
0.375
  0
VERTEX
  8
0
 10
6.57362
 20
1.71121
 30
0.0
 40
0.00520833
 41
0.00520833
  0
VERTEX
  8
0
 10
6.57362
 20
0.0775282
 30
0.0
 40
0.00520833
 41
0.00520833
  0
SEQEND
 8
0
  0
POLYLINE
  8
0
 62
     253
 66
     1
 10
0
 20
0
 30
0.0
 40
0.375
 41
0.375
  0
VERTEX
  8
0
 10
6.51682
 20
1.71121
 30
0.0
 40
0.00520833
 41
0.00520833
  0
VERTEX
  8
0
 10
6.51682
 20
0.0775282
 30
0.0
 40
0.00520833
 41
0.00520833
  0
SEQEND
 8
0
  0
POLYLINE
  8
0
 62
     0
 66
     1
 10
0
 20
0
 30
0.0
 70
     1
 40
0
 41
0
  0
VERTEX
  8
0
 10
4.38678
 20
1.71121
 30
0.0
 40
0
 41
0
  0
VERTEX
  8
0
 10
4.49387
 20
1.71121
 30
0.0
 40
0
 41
0
  0
VERTEX
  8
0
 10
4.49387
 20
1.59413
 30
0.0
 40
0
 41
0
  0
VERTEX
  8
0
 10
4.38678
 20
1.59413
 30
0.0
 40
0
 41
0
  0
VERTEX
  8
0
 10
4.38678
 20
1.71121
 30
0.0
 40
0
 41
0
  0
SEQEND
 8
0
  0
POLYLINE
  8
0
 62
     0
 66
     1
 10
0
 20
0
 30
0.0
 70
     1
 40
0
 41
0
  0
VERTEX
  8
0
 10
4.38678
 20
0.117567
 30
0.0
 40
0
 41
0
  0
VERTEX
  8
0
 10
4.49832
 20
0.117567
 30
0.0
 40
0
 41
0
  0
VERTEX
  8
0
 10
4.49832
 20
0.0137261
 30
0.0
 40
0
 41
0
  0
VERTEX
  8
0
 10
4.38678
 20
0.0137261
 30
0.0
 40
0
 41
0
  0
VERTEX
  8
0
 10
4.38678
 20
0.117567
 30
0.0
 40
0
 41
0
  0
SEQEND
 8
0
  0
POLYLINE
  8
0
 62
     0
 66
     1
 10
0
 20
0
 30
0.0
 70
     1
 40
0
 41
0
  0
VERTEX
  8
0
 10
5.86583
 20
0.199001
 30
0.0
 40
0
 41
0
  0
VERTEX
  8
0
 10
5.98356
 20
0.199001
 30
0.0
 40
0
 41
0
  0
VERTEX
  8
0
 10
5.98356
 20
0.0762261
 30
0.0
 40
0
 41
0
  0
VERTEX
  8
0
 10
5.86583
 20
0.0762261
 30
0.0
 40
0
 41
0
  0
VERTEX
  8
0
 10
5.86583
 20
0.199001
 30
0.0
 40
0
 41
0
  0
SEQEND
 8
0
  0
POLYLINE
  8
0
 62
     0
 66
     1
 10
0
 20
0
 30
0.0
 70
     1
 40
0
 41
0
  0
VERTEX
  8
0
 10
6.91906
 20
0.192057
 30
0.0
 40
0
 41
0
  0
VERTEX
  8
0
 10
7.02821
 20
0.192057
 30
0.0
 40
0
 41
0
  0
VERTEX
  8
0
 10
7.02821
 20
0.0775825
 30
0.0
 40
0
 41
0
  0
VERTEX
  8
0
 10
6.91906
 20
0.0775825
 30
0.0
 40
0
 41
0
  0
VERTEX
  8
0
 10
6.91906
 20
0.192057
 30
0.0
 40
0
 41
0
  0
SEQEND
 8
0
  0
POLYLINE
  8
0
 62
     0
 66
     1
 10
0
 20
0
 30
0.0
 70
     1
 40
0
 41
0
  0
VERTEX
  8
0
 10
6.93083
 20
1.71121
 30
0.0
 40
0
 41
0
  0
VERTEX
  8
0
 10
7.02821
 20
1.71121
 30
0.0
 40
0
 41
0
  0
VERTEX
  8
0
 10
7.02821
 20
1.57374
 30
0.0
 40
0
 41
0
  0
VERTEX
  8
0
 10
6.93083
 20
1.57374
 30
0.0
 40
0
 41
0
  0
VERTEX
  8
0
 10
6.93083
 20
1.71121
 30
0.0
 40
0
 41
0
  0
SEQEND
 8
0
  0
POLYLINE
  8
0
 62
     7
 66
     1
 10
0
 20
0
 30
0.0
 70
     1
 40
0
 41
0
  0
VERTEX
  8
0
 10
7.72217
 20
11.4457
 30
0.0
 40
0
 41
0
  0
VERTEX
  8
0
 10
8.27018
 20
11.4457
 30
0.0
 40
0
 41
0
  0
VERTEX
  8
0
 10
8.27018
 20
11.3415
 30
0.0
 40
0
 41
0
  0
VERTEX
  8
0
 10
7.72217
 20
11.3415
 30
0.0
 40
0
 41
0
  0
VERTEX
  8
0
 10
7.72217
 20
11.4457
 30
0.0
 40
0
 41
0
  0
SEQEND
 8
0
  0
POLYLINE
  8
0
 62
     0
 66
     1
 10
0
 20
0
 30
0.0
 70
     1
 40
0.75
 41
0.75
  0
VERTEX
  8
0
 10
7.72217
 20
11.4457
 30
0.0
 40
0.0104167
 41
0.0104167
  0
VERTEX
  8
0
 10
7.72217
 20
11.3415
 30
0.0
 40
0.0104167
 41
0.0104167
  0
VERTEX
  8
0
 10
8.27018
 20
11.3415
 30
0.0
 40
0.0104167
 41
0.0104167
  0
VERTEX
  8
0
 10
8.27018
 20
11.4457
 30
0.0
 40
0.0104167
 41
0.0104167
  0
VERTEX
  8
0
 10
7.72217
 20
11.4457
 30
0.0
 40
0.0104167
 41
0.0104167
  0
SEQEND
 8
0
  0
ENDSEC
  0
EOF
