  0
SECTION
  2
HEADER
  9
$ACADVER
  1
AC1009
  9
$FILLMODE
 70
 0
  9
$SPLFRAME
 70
 1
  9
$EXTMIN
 10
0
 20
0
 30
0.0
  9
$EXTMAX
 10
41.6667
 20
41.6667
 30
0.0
  0
ENDSEC
  0
SECTION
  2
TABLES
  0
TABLE
  2
LAYER
 70
1
  0
LAYER
  2
0
 70
     0
 62
     7
  6
CONTINUOUS
  0
ENDTAB
  0
ENDSEC
  0
SECTION
  2
ENTITIES
  0
POLYLINE
  8
0
 62
     7
 66
     1
 10
0
 20
0
 30
0.0
 70
     1
 40
0
 41
0
  0
VERTEX
  8
0
 10
3.868
 20
9.11838
 30
0.0
 40
0
 41
0
  0
VERTEX
  8
0
 10
1.53054
 20
9.11838
 30
0.0
 40
0
 41
0
  0
VERTEX
  8
0
 10
1.53054
 20
9.00379
 30
0.0
 40
0
 41
0
  0
VERTEX
  8
0
 10
3.868
 20
9.00379
 30
0.0
 40
0
 41
0
  0
VERTEX
  8
0
 10
3.868
 20
9.00353
 30
0.0
 40
0
 41
0
  0
VERTEX
  8
0
 10
1.53054
 20
9.00353
 30
0.0
 40
0
 41
0
  0
VERTEX
  8
0
 10
1.53054
 20
10.8354
 30
0.0
 40
0
 41
0
  0
VERTEX
  8
0
 10
3.868
 20
10.8354
 30
0.0
 40
0
 41
0
  0
VERTEX
  8
0
 10
3.868
 20
9.11838
 30
0.0
 40
0
 41
0
  0
SEQEND
 8
0
  0
POLYLINE
  8
0
 62
     7
 66
     1
 10
0
 20
0
 30
0.0
 70
     1
 40
0.15
 41
0.15
  0
VERTEX
  8
0
 10
3.868
 20
9.11838
 30
0.0
 40
0.00208333
 41
0.00208333
  0
VERTEX
  8
0
 10
1.53054
 20
9.11838
 30
0.0
 40
0.00208333
 41
0.00208333
  0
VERTEX
  8
0
 10
1.53054
 20
9.00379
 30
0.0
 40
0.00208333
 41
0.00208333
  0
VERTEX
  8
0
 10
3.868
 20
9.00379
 30
0.0
 40
0.00208333
 41
0.00208333
  0
VERTEX
  8
0
 10
3.868
 20
9.00353
 30
0.0
 40
0.00208333
 41
0.00208333
  0
VERTEX
  8
0
 10
1.53054
 20
9.00353
 30
0.0
 40
0.00208333
 41
0.00208333
  0
VERTEX
  8
0
 10
1.53054
 20
10.8354
 30
0.0
 40
0.00208333
 41
0.00208333
  0
VERTEX
  8
0
 10
3.868
 20
10.8354
 30
0.0
 40
0.00208333
 41
0.00208333
  0
VERTEX
  8
0
 10
3.868
 20
9.11838
 30
0.0
 40
0.00208333
 41
0.00208333
  0
SEQEND
 8
0
  0
TEXT
  8
0
 62
     0
 10
2.82976
 20
9.88249
 30
0.0
 40
0.34375
  1
VH
 50
0
  0
POLYLINE
  8
0
 62
     7
 66
     1
 10
0
 20
0
 30
0.0
 70
     1
 40
0
 41
0
  0
VERTEX
  8
0
 10
3.868
 20
7.648
 30
0.0
 40
0
 41
0
  0
VERTEX
  8
0
 10
3.91303
 20
7.648
 30
0.0
 40
0
 41
0
  0
VERTEX
  8
0
 10
3.91303
 20
7.3055
 30
0.0
 40
0
 41
0
  0
VERTEX
  8
0
 10
1.53054
 20
7.3055
 30
0.0
 40
0
 41
0
  0
VERTEX
  8
0
 10
1.53054
 20
9.00353
 30
0.0
 40
0
 41
0
  0
VERTEX
  8
0
 10
3.868
 20
9.00353
 30
0.0
 40
0
 41
0
  0
VERTEX
  8
0
 10
3.868
 20
7.648
 30
0.0
 40
0
 41
0
  0
SEQEND
 8
0
  0
POLYLINE
  8
0
 62
     7
 66
     1
 10
0
 20
0
 30
0.0
 70
     1
 40
0.15
 41
0.15
  0
VERTEX
  8
0
 10
3.868
 20
7.648
 30
0.0
 40
0.00208333
 41
0.00208333
  0
VERTEX
  8
0
 10
3.91303
 20
7.648
 30
0.0
 40
0.00208333
 41
0.00208333
  0
VERTEX
  8
0
 10
3.91303
 20
7.3055
 30
0.0
 40
0.00208333
 41
0.00208333
  0
VERTEX
  8
0
 10
1.53054
 20
7.3055
 30
0.0
 40
0.00208333
 41
0.00208333
  0
VERTEX
  8
0
 10
1.53054
 20
9.00353
 30
0.0
 40
0.00208333
 41
0.00208333
  0
VERTEX
  8
0
 10
3.868
 20
9.00353
 30
0.0
 40
0.00208333
 41
0.00208333
  0
VERTEX
  8
0
 10
3.868
 20
7.648
 30
0.0
 40
0.00208333
 41
0.00208333
  0
SEQEND
 8
0
  0
TEXT
  8
0
 62
     0
 10
2.82758
 20
8.08158
 30
0.0
 40
0.34375
  1
VH
 50
0
  0
POLYLINE
  8
0
 62
     7
 66
     1
 10
0
 20
0
 30
0.0
 70
     1
 40
0
 41
0
  0
VERTEX
  8
0
 10
9.20269
 20
7.75444
 30
0.0
 40
0
 41
0
  0
VERTEX
  8
0
 10
4.31543
 20
7.75444
 30
0.0
 40
0
 41
0
  0
VERTEX
  8
0
 10
4.31543
 20
7.81467
 30
0.0
 40
0
 41
0
  0
VERTEX
  8
0
 10
4.25239
 20
7.81467
 30
0.0
 40
0
 41
0
  0
VERTEX
  8
0
 10
4.25239
 20
7.96213
 30
0.0
 40
0
 41
0
  0
VERTEX
  8
0
 10
3.98258
 20
7.96213
 30
0.0
 40
0
 41
0
  0
VERTEX
  8
0
 10
3.98258
 20
10.8354
 30
0.0
 40
0
 41
0
  0
VERTEX
  8
0
 10
9.20269
 20
10.8354
 30
0.0
 40
0
 41
0
  0
VERTEX
  8
0
 10
9.20269
 20
7.75444
 30
0.0
 40
0
 41
0
  0
SEQEND
 8
0
  0
POLYLINE
  8
0
 62
     7
 66
     1
 10
0
 20
0
 30
0.0
 70
     1
 40
0.15
 41
0.15
  0
VERTEX
  8
0
 10
9.20269
 20
7.75444
 30
0.0
 40
0.00208333
 41
0.00208333
  0
VERTEX
  8
0
 10
4.31543
 20
7.75444
 30
0.0
 40
0.00208333
 41
0.00208333
  0
VERTEX
  8
0
 10
4.31543
 20
7.81467
 30
0.0
 40
0.00208333
 41
0.00208333
  0
VERTEX
  8
0
 10
4.25239
 20
7.81467
 30
0.0
 40
0.00208333
 41
0.00208333
  0
VERTEX
  8
0
 10
4.25239
 20
7.96213
 30
0.0
 40
0.00208333
 41
0.00208333
  0
VERTEX
  8
0
 10
3.98258
 20
7.96213
 30
0.0
 40
0.00208333
 41
0.00208333
  0
VERTEX
  8
0
 10
3.98258
 20
10.8354
 30
0.0
 40
0.00208333
 41
0.00208333
  0
VERTEX
  8
0
 10
9.20269
 20
10.8354
 30
0.0
 40
0.00208333
 41
0.00208333
  0
VERTEX
  8
0
 10
9.20269
 20
7.75444
 30
0.0
 40
0.00208333
 41
0.00208333
  0
SEQEND
 8
0
  0
TEXT
  8
0
 62
     0
 10
5.86496
 20
9.37879
 30
0.0
 40
0.34375
  1
V
 50
0
  0
TEXT
  8
0
 62
     0
 10
6.08997
 20
9.37879
 30
0.0
 40
0.34375
  1
ARA
 50
0
  0
TEXT
  8
0
 62
     0
 10
6.79718
 20
9.37879
 30
0.0
 40
0.34375
  1
ST
 50
0
  0
TEXT
  8
0
 62
     0
 10
7.23536
 20
9.37879
 30
0.0
 40
0.34375
  1
O
 50
0
  0
POLYLINE
  8
0
 62
     7
 66
     1
 10
0
 20
0
 30
0.0
 70
     1
 40
0
 41
0
  0
VERTEX
  8
0
 10
9.20269
 20
7.63986
 30
0.0
 40
0
 41
0
  0
VERTEX
  8
0
 10
9.20269
 20
5.66954
 30
0.0
 40
0
 41
0
  0
VERTEX
  8
0
 10
7.82867
 20
5.66954
 30
0.0
 40
0
 41
0
  0
VERTEX
  8
0
 10
7.82867
 20
7.42692
 30
0.0
 40
0
 41
0
  0
VERTEX
  8
0
 10
7.92731
 20
7.42692
 30
0.0
 40
0
 41
0
  0
VERTEX
  8
0
 10
7.92731
 20
7.63986
 30
0.0
 40
0
 41
0
  0
VERTEX
  8
0
 10
9.20269
 20
7.63986
 30
0.0
 40
0
 41
0
  0
SEQEND
 8
0
  0
POLYLINE
  8
0
 62
     7
 66
     1
 10
0
 20
0
 30
0.0
 70
     1
 40
0.15
 41
0.15
  0
VERTEX
  8
0
 10
9.20269
 20
7.63986
 30
0.0
 40
0.00208333
 41
0.00208333
  0
VERTEX
  8
0
 10
9.20269
 20
5.66954
 30
0.0
 40
0.00208333
 41
0.00208333
  0
VERTEX
  8
0
 10
7.82867
 20
5.66954
 30
0.0
 40
0.00208333
 41
0.00208333
  0
VERTEX
  8
0
 10
7.82867
 20
7.42692
 30
0.0
 40
0.00208333
 41
0.00208333
  0
VERTEX
  8
0
 10
7.92731
 20
7.42692
 30
0.0
 40
0.00208333
 41
0.00208333
  0
VERTEX
  8
0
 10
7.92731
 20
7.63986
 30
0.0
 40
0.00208333
 41
0.00208333
  0
VERTEX
  8
0
 10
9.20269
 20
7.63986
 30
0.0
 40
0.00208333
 41
0.00208333
  0
SEQEND
 8
0
  0
TEXT
  8
0
 62
     0
 10
7.96844
 20
6.49837
 30
0.0
 40
0.34375
  1
WC
 50
0
  0
POLYLINE
  8
0
 62
     7
 66
     1
 10
0
 20
0
 30
0.0
 70
     1
 40
0
 41
0
  0
VERTEX
  8
0
 10
7.57992
 20
7.42692
 30
0.0
 40
0
 41
0
  0
VERTEX
  8
0
 10
7.71408
 20
7.42692
 30
0.0
 40
0
 41
0
  0
VERTEX
  8
0
 10
7.71408
 20
5.55496
 30
0.0
 40
0
 41
0
  0
VERTEX
  8
0
 10
9.20269
 20
5.55496
 30
0.0
 40
0
 41
0
  0
VERTEX
  8
0
 10
9.20269
 20
2.39828
 30
0.0
 40
0
 41
0
  0
VERTEX
  8
0
 10
4.02761
 20
2.39828
 30
0.0
 40
0
 41
0
  0
VERTEX
  8
0
 10
4.02761
 20
4.66862
 30
0.0
 40
0
 41
0
  0
VERTEX
  8
0
 10
4.03125
 20
4.67361
 30
0.0
 40
0
 41
0
  0
VERTEX
  8
0
 10
4.02761
 20
5.993
 30
0.0
 40
0
 41
0
  0
VERTEX
  8
0
 10
4.31543
 20
5.993
 30
0.0
 40
0
 41
0
  0
VERTEX
  8
0
 10
4.31543
 20
7.63986
 30
0.0
 40
0
 41
0
  0
VERTEX
  8
0
 10
7.57992
 20
7.63986
 30
0.0
 40
0
 41
0
  0
VERTEX
  8
0
 10
7.57992
 20
7.42692
 30
0.0
 40
0
 41
0
  0
SEQEND
 8
0
  0
POLYLINE
  8
0
 62
     7
 66
     1
 10
0
 20
0
 30
0.0
 70
     1
 40
0.15
 41
0.15
  0
VERTEX
  8
0
 10
7.57992
 20
7.42692
 30
0.0
 40
0.00208333
 41
0.00208333
  0
VERTEX
  8
0
 10
7.71408
 20
7.42692
 30
0.0
 40
0.00208333
 41
0.00208333
  0
VERTEX
  8
0
 10
7.71408
 20
5.55496
 30
0.0
 40
0.00208333
 41
0.00208333
  0
VERTEX
  8
0
 10
9.20269
 20
5.55496
 30
0.0
 40
0.00208333
 41
0.00208333
  0
VERTEX
  8
0
 10
9.20269
 20
2.39828
 30
0.0
 40
0.00208333
 41
0.00208333
  0
VERTEX
  8
0
 10
4.02761
 20
2.39828
 30
0.0
 40
0.00208333
 41
0.00208333
  0
VERTEX
  8
0
 10
4.02761
 20
4.66862
 30
0.0
 40
0.00208333
 41
0.00208333
  0
VERTEX
  8
0
 10
4.03125
 20
4.67361
 30
0.0
 40
0.00208333
 41
0.00208333
  0
VERTEX
  8
0
 10
4.02761
 20
5.993
 30
0.0
 40
0.00208333
 41
0.00208333
  0
VERTEX
  8
0
 10
4.31543
 20
5.993
 30
0.0
 40
0.00208333
 41
0.00208333
  0
VERTEX
  8
0
 10
4.31543
 20
7.63986
 30
0.0
 40
0.00208333
 41
0.00208333
  0
VERTEX
  8
0
 10
7.57992
 20
7.63986
 30
0.0
 40
0.00208333
 41
0.00208333
  0
VERTEX
  8
0
 10
7.57992
 20
7.42692
 30
0.0
 40
0.00208333
 41
0.00208333
  0
SEQEND
 8
0
  0
TEXT
  8
0
 62
     0
 10
5.28446
 20
4.02167
 30
0.0
 40
0.34375
  1
S
 50
0
  0
TEXT
  8
0
 62
     0
 10
5.516
 20
4.02167
 30
0.0
 40
0.34375
  1
A
 50
0
  0
TEXT
  8
0
 62
     0
 10
5.74925
 20
4.02167
 30
0.0
 40
0.34375
  1
UNA
 50
0
  0
TEXT
  8
0
 62
     0
 10
6.47297
 20
4.02167
 30
0.0
 40
0.34375
  1
TUP
 50
0
  0
TEXT
  8
0
 62
     0
 10
7.135
 20
4.02167
 30
0.0
 40
0.34375
  1
A
 50
0
  0
POLYLINE
  8
0
 62
     7
 66
     1
 10
0
 20
0
 30
0.0
 70
     1
 40
0
 41
0
  0
VERTEX
  8
0
 10
1.60938
 20
7.19092
 30
0.0
 40
0
 41
0
  0
VERTEX
  8
0
 10
3.91303
 20
7.19092
 30
0.0
 40
0
 41
0
  0
VERTEX
  8
0
 10
3.91303
 20
4.83529
 30
0.0
 40
0
 41
0
  0
VERTEX
  8
0
 10
1.60938
 20
4.83529
 30
0.0
 40
0
 41
0
  0
VERTEX
  8
0
 10
1.60938
 20
7.19092
 30
0.0
 40
0
 41
0
  0
SEQEND
 8
0
  0
POLYLINE
  8
0
 62
     7
 66
     1
 10
0
 20
0
 30
0.0
 70
     1
 40
0.15
 41
0.15
  0
VERTEX
  8
0
 10
1.60938
 20
7.19092
 30
0.0
 40
0.00208333
 41
0.00208333
  0
VERTEX
  8
0
 10
3.91303
 20
7.19092
 30
0.0
 40
0.00208333
 41
0.00208333
  0
VERTEX
  8
0
 10
3.91303
 20
4.83529
 30
0.0
 40
0.00208333
 41
0.00208333
  0
VERTEX
  8
0
 10
1.60938
 20
4.83529
 30
0.0
 40
0.00208333
 41
0.00208333
  0
VERTEX
  8
0
 10
1.60938
 20
7.19092
 30
0.0
 40
0.00208333
 41
0.00208333
  0
SEQEND
 8
0
  0
TEXT
  8
0
 62
     0
 10
2.24782
 20
6.05269
 30
0.0
 40
0.34375
  1
PESUH
 50
0
  0
POLYLINE
  8
0
 62
     7
 66
     1
 10
0
 20
0
 30
0.0
 70
     1
 40
0
 41
0
  0
VERTEX
  8
0
 10
1.55137
 20
4.66862
 30
0.0
 40
0
 41
0
  0
VERTEX
  8
0
 10
3.86094
 20
4.66862
 30
0.0
 40
0
 41
0
  0
VERTEX
  8
0
 10
3.86094
 20
2.39828
 30
0.0
 40
0
 41
0
  0
VERTEX
  8
0
 10
1.55137
 20
2.39828
 30
0.0
 40
0
 41
0
  0
VERTEX
  8
0
 10
1.55137
 20
4.66862
 30
0.0
 40
0
 41
0
  0
SEQEND
 8
0
  0
POLYLINE
  8
0
 62
     7
 66
     1
 10
0
 20
0
 30
0.0
 70
     1
 40
0.15
 41
0.15
  0
VERTEX
  8
0
 10
1.55137
 20
4.66862
 30
0.0
 40
0.00208333
 41
0.00208333
  0
VERTEX
  8
0
 10
3.86094
 20
4.66862
 30
0.0
 40
0.00208333
 41
0.00208333
  0
VERTEX
  8
0
 10
3.86094
 20
2.39828
 30
0.0
 40
0.00208333
 41
0.00208333
  0
VERTEX
  8
0
 10
1.55137
 20
2.39828
 30
0.0
 40
0.00208333
 41
0.00208333
  0
VERTEX
  8
0
 10
1.55137
 20
4.66862
 30
0.0
 40
0.00208333
 41
0.00208333
  0
SEQEND
 8
0
  0
TEXT
  8
0
 62
     0
 10
2.68653
 20
3.53342
 30
0.0
 40
0.34375
  1
UNDEFINED
 50
0
  0
POLYLINE
  8
0
 62
     0
 66
     1
 10
0
 20
0
 30
0.0
 70
     1
 40
0
 41
0
  0
VERTEX
  8
0
 10
9.20269
 20
2.39828
 30
0.0
 40
0
 41
0
  0
VERTEX
  8
0
 10
9.20269
 20
10.8354
 30
0.0
 40
0
 41
0
  0
VERTEX
  8
0
 10
9.66103
 20
11.0125
 30
0.0
 40
0
 41
0
  0
VERTEX
  8
0
 10
9.66103
 20
1.77328
 30
0.0
 40
0
 41
0
  0
VERTEX
  8
0
 10
9.20269
 20
2.39828
 30
0.0
 40
0
 41
0
  0
SEQEND
 8
0
  0
POLYLINE
  8
0
 62
     0
 66
     1
 10
0
 20
0
 30
0.0
 70
     1
 40
0.15
 41
0.15
  0
VERTEX
  8
0
 10
9.20269
 20
2.39828
 30
0.0
 40
0.00208333
 41
0.00208333
  0
VERTEX
  8
0
 10
9.20269
 20
10.8354
 30
0.0
 40
0.00208333
 41
0.00208333
  0
VERTEX
  8
0
 10
9.66103
 20
11.0125
 30
0.0
 40
0.00208333
 41
0.00208333
  0
VERTEX
  8
0
 10
9.66103
 20
1.77328
 30
0.0
 40
0.00208333
 41
0.00208333
  0
VERTEX
  8
0
 10
9.20269
 20
2.39828
 30
0.0
 40
0.00208333
 41
0.00208333
  0
SEQEND
 8
0
  0
POLYLINE
  8
0
 62
     0
 66
     1
 10
0
 20
0
 30
0.0
 70
     1
 40
0
 41
0
  0
VERTEX
  8
0
 10
9.20269
 20
10.8354
 30
0.0
 40
0
 41
0
  0
VERTEX
  8
0
 10
2.46024
 20
10.8354
 30
0.0
 40
0
 41
0
  0
VERTEX
  8
0
 10
2.46024
 20
11.0125
 30
0.0
 40
0
 41
0
  0
VERTEX
  8
0
 10
9.66103
 20
11.0125
 30
0.0
 40
0
 41
0
  0
VERTEX
  8
0
 10
9.20269
 20
10.8354
 30
0.0
 40
0
 41
0
  0
SEQEND
 8
0
  0
POLYLINE
  8
0
 62
     0
 66
     1
 10
0
 20
0
 30
0.0
 70
     1
 40
0.15
 41
0.15
  0
VERTEX
  8
0
 10
9.20269
 20
10.8354
 30
0.0
 40
0.00208333
 41
0.00208333
  0
VERTEX
  8
0
 10
2.46024
 20
10.8354
 30
0.0
 40
0.00208333
 41
0.00208333
  0
VERTEX
  8
0
 10
2.46024
 20
11.0125
 30
0.0
 40
0.00208333
 41
0.00208333
  0
VERTEX
  8
0
 10
9.66103
 20
11.0125
 30
0.0
 40
0.00208333
 41
0.00208333
  0
VERTEX
  8
0
 10
9.20269
 20
10.8354
 30
0.0
 40
0.00208333
 41
0.00208333
  0
SEQEND
 8
0
  0
POLYLINE
  8
0
 62
     7
 66
     1
 10
0
 20
0
 30
0.0
 70
     1
 40
0
 41
0
  0
VERTEX
  8
0
 10
7.83154
 20
11.0125
 30
0.0
 40
0
 41
0
  0
VERTEX
  8
0
 10
8.69769
 20
11.0125
 30
0.0
 40
0
 41
0
  0
VERTEX
  8
0
 10
8.69769
 20
10.8354
 30
0.0
 40
0
 41
0
  0
VERTEX
  8
0
 10
7.83154
 20
10.8354
 30
0.0
 40
0
 41
0
  0
VERTEX
  8
0
 10
7.83154
 20
11.0125
 30
0.0
 40
0
 41
0
  0
SEQEND
 8
0
  0
POLYLINE
  8
0
 62
     0
 66
     1
 10
0
 20
0
 30
0.0
 70
     1
 40
0.75
 41
0.75
  0
VERTEX
  8
0
 10
7.83154
 20
11.0125
 30
0.0
 40
0.0104167
 41
0.0104167
  0
VERTEX
  8
0
 10
8.69769
 20
11.0125
 30
0.0
 40
0.0104167
 41
0.0104167
  0
VERTEX
  8
0
 10
8.69769
 20
10.8354
 30
0.0
 40
0.0104167
 41
0.0104167
  0
VERTEX
  8
0
 10
7.83154
 20
10.8354
 30
0.0
 40
0.0104167
 41
0.0104167
  0
VERTEX
  8
0
 10
7.83154
 20
11.0125
 30
0.0
 40
0.0104167
 41
0.0104167
  0
SEQEND
 8
0
  0
POLYLINE
  8
0
 62
     7
 66
     1
 10
0
 20
0
 30
0.0
 70
     1
 40
0
 41
0
  0
VERTEX
  8
0
 10
7.83154
 20
11.0125
 30
0.0
 40
0
 41
0
  0
VERTEX
  8
0
 10
8.69769
 20
11.0125
 30
0.0
 40
0
 41
0
  0
VERTEX
  8
0
 10
8.69769
 20
10.8354
 30
0.0
 40
0
 41
0
  0
VERTEX
  8
0
 10
7.83154
 20
10.8354
 30
0.0
 40
0
 41
0
  0
VERTEX
  8
0
 10
7.83154
 20
11.0125
 30
0.0
 40
0
 41
0
  0
SEQEND
 8
0
  0
POLYLINE
  8
0
 62
     0
 66
     1
 10
0
 20
0
 30
0.0
 70
     1
 40
0.75
 41
0.75
  0
VERTEX
  8
0
 10
7.83154
 20
11.0125
 30
0.0
 40
0.0104167
 41
0.0104167
  0
VERTEX
  8
0
 10
8.69769
 20
11.0125
 30
0.0
 40
0.0104167
 41
0.0104167
  0
VERTEX
  8
0
 10
8.69769
 20
10.8354
 30
0.0
 40
0.0104167
 41
0.0104167
  0
VERTEX
  8
0
 10
7.83154
 20
10.8354
 30
0.0
 40
0.0104167
 41
0.0104167
  0
VERTEX
  8
0
 10
7.83154
 20
11.0125
 30
0.0
 40
0.0104167
 41
0.0104167
  0
SEQEND
 8
0
  0
POLYLINE
  8
0
 62
     0
 66
     1
 10
0
 20
0
 30
0.0
 70
     1
 40
0.75
 41
0.75
  0
VERTEX
  8
0
 10
8.69769
 20
11.0125
 30
0.0
 40
0.0104167
 41
0.0104167
  0
VERTEX
  8
0
 10
8.69769
 20
11.0633
 30
0.0
 40
0.0104167
 41
0.0104167
  0
VERTEX
  8
0
 10
8.68414
 20
11.2155
 30
0.0
 40
0.0104167
 41
0.0104167
  0
VERTEX
  8
0
 10
8.64356
 20
11.3914
 30
0.0
 40
0.0104167
 41
0.0104167
  0
VERTEX
  8
0
 10
8.5759
 20
11.5403
 30
0.0
 40
0.0104167
 41
0.0104167
  0
VERTEX
  8
0
 10
8.48118
 20
11.6621
 30
0.0
 40
0.0104167
 41
0.0104167
  0
VERTEX
  8
0
 10
8.35932
 20
11.7568
 30
0.0
 40
0.0104167
 41
0.0104167
  0
VERTEX
  8
0
 10
8.21044
 20
11.8245
 30
0.0
 40
0.0104167
 41
0.0104167
  0
VERTEX
  8
0
 10
8.0345
 20
11.8651
 30
0.0
 40
0.0104167
 41
0.0104167
  0
VERTEX
  8
0
 10
7.88226
 20
11.8786
 30
0.0
 40
0.0104167
 41
0.0104167
  0
VERTEX
  8
0
 10
7.83154
 20
11.8786
 30
0.0
 40
0.0104167
 41
0.0104167
  0
VERTEX
  8
0
 10
7.83154
 20
11.0125
 30
0.0
 40
0.0104167
 41
0.0104167
  0
VERTEX
  8
0
 10
8.69769
 20
11.0125
 30
0.0
 40
0.0104167
 41
0.0104167
  0
SEQEND
 8
0
  0
POLYLINE
  8
0
 62
     0
 66
     1
 10
0
 20
0
 30
0.0
 70
     1
 40
0
 41
0
  0
VERTEX
  8
0
 10
2.46024
 20
10.8354
 30
0.0
 40
0
 41
0
  0
VERTEX
  8
0
 10
1.53054
 20
10.8354
 30
0.0
 40
0
 41
0
  0
VERTEX
  8
0
 10
0.947211
 20
11.325
 30
0.0
 40
0
 41
0
  0
VERTEX
  8
0
 10
2.46024
 20
11.325
 30
0.0
 40
0
 41
0
  0
VERTEX
  8
0
 10
2.46024
 20
10.8354
 30
0.0
 40
0
 41
0
  0
SEQEND
 8
0
  0
POLYLINE
  8
0
 62
     0
 66
     1
 10
0
 20
0
 30
0.0
 70
     1
 40
0.15
 41
0.15
  0
VERTEX
  8
0
 10
2.46024
 20
10.8354
 30
0.0
 40
0.00208333
 41
0.00208333
  0
VERTEX
  8
0
 10
1.53054
 20
10.8354
 30
0.0
 40
0.00208333
 41
0.00208333
  0
VERTEX
  8
0
 10
0.947211
 20
11.325
 30
0.0
 40
0.00208333
 41
0.00208333
  0
VERTEX
  8
0
 10
2.46024
 20
11.325
 30
0.0
 40
0.00208333
 41
0.00208333
  0
VERTEX
  8
0
 10
2.46024
 20
10.8354
 30
0.0
 40
0.00208333
 41
0.00208333
  0
SEQEND
 8
0
  0
POLYLINE
  8
0
 62
     0
 66
     1
 10
0
 20
0
 30
0.0
 70
     1
 40
0
 41
0
  0
VERTEX
  8
0
 10
1.53054
 20
10.8354
 30
0.0
 40
0
 41
0
  0
VERTEX
  8
0
 10
1.53054
 20
7.3055
 30
0.0
 40
0
 41
0
  0
VERTEX
  8
0
 10
0.947211
 20
7.19092
 30
0.0
 40
0
 41
0
  0
VERTEX
  8
0
 10
0.947211
 20
11.325
 30
0.0
 40
0
 41
0
  0
VERTEX
  8
0
 10
1.53054
 20
10.8354
 30
0.0
 40
0
 41
0
  0
SEQEND
 8
0
  0
POLYLINE
  8
0
 62
     0
 66
     1
 10
0
 20
0
 30
0.0
 70
     1
 40
0.15
 41
0.15
  0
VERTEX
  8
0
 10
1.53054
 20
10.8354
 30
0.0
 40
0.00208333
 41
0.00208333
  0
VERTEX
  8
0
 10
1.53054
 20
7.3055
 30
0.0
 40
0.00208333
 41
0.00208333
  0
VERTEX
  8
0
 10
0.947211
 20
7.19092
 30
0.0
 40
0.00208333
 41
0.00208333
  0
VERTEX
  8
0
 10
0.947211
 20
11.325
 30
0.0
 40
0.00208333
 41
0.00208333
  0
VERTEX
  8
0
 10
1.53054
 20
10.8354
 30
0.0
 40
0.00208333
 41
0.00208333
  0
SEQEND
 8
0
  0
POLYLINE
  8
0
 62
     0
 66
     1
 10
0
 20
0
 30
0.0
 70
     1
 40
0
 41
0
  0
VERTEX
  8
0
 10
0.947211
 20
7.3055
 30
0.0
 40
0
 41
0
  0
VERTEX
  8
0
 10
0.947211
 20
4.66862
 30
0.0
 40
0
 41
0
  0
VERTEX
  8
0
 10
1.60938
 20
4.83529
 30
0.0
 40
0
 41
0
  0
VERTEX
  8
0
 10
1.60938
 20
7.3055
 30
0.0
 40
0
 41
0
  0
VERTEX
  8
0
 10
0.947211
 20
7.3055
 30
0.0
 40
0
 41
0
  0
SEQEND
 8
0
  0
POLYLINE
  8
0
 62
     0
 66
     1
 10
0
 20
0
 30
0.0
 70
     1
 40
0.15
 41
0.15
  0
VERTEX
  8
0
 10
0.947211
 20
7.3055
 30
0.0
 40
0.00208333
 41
0.00208333
  0
VERTEX
  8
0
 10
0.947211
 20
4.66862
 30
0.0
 40
0.00208333
 41
0.00208333
  0
VERTEX
  8
0
 10
1.60938
 20
4.83529
 30
0.0
 40
0.00208333
 41
0.00208333
  0
VERTEX
  8
0
 10
1.60938
 20
7.3055
 30
0.0
 40
0.00208333
 41
0.00208333
  0
VERTEX
  8
0
 10
0.947211
 20
7.3055
 30
0.0
 40
0.00208333
 41
0.00208333
  0
SEQEND
 8
0
  0
POLYLINE
  8
0
 62
     0
 66
     1
 10
0
 20
0
 30
0.0
 70
     1
 40
0
 41
0
  0
VERTEX
  8
0
 10
0.947211
 20
1.77328
 30
0.0
 40
0
 41
0
  0
VERTEX
  8
0
 10
9.66103
 20
1.77328
 30
0.0
 40
0
 41
0
  0
VERTEX
  8
0
 10
9.20269
 20
2.39828
 30
0.0
 40
0
 41
0
  0
VERTEX
  8
0
 10
1.55137
 20
2.39828
 30
0.0
 40
0
 41
0
  0
VERTEX
  8
0
 10
0.947211
 20
1.77328
 30
0.0
 40
0
 41
0
  0
SEQEND
 8
0
  0
POLYLINE
  8
0
 62
     0
 66
     1
 10
0
 20
0
 30
0.0
 70
     1
 40
0.15
 41
0.15
  0
VERTEX
  8
0
 10
0.947211
 20
1.77328
 30
0.0
 40
0.00208333
 41
0.00208333
  0
VERTEX
  8
0
 10
9.66103
 20
1.77328
 30
0.0
 40
0.00208333
 41
0.00208333
  0
VERTEX
  8
0
 10
9.20269
 20
2.39828
 30
0.0
 40
0.00208333
 41
0.00208333
  0
VERTEX
  8
0
 10
1.55137
 20
2.39828
 30
0.0
 40
0.00208333
 41
0.00208333
  0
VERTEX
  8
0
 10
0.947211
 20
1.77328
 30
0.0
 40
0.00208333
 41
0.00208333
  0
SEQEND
 8
0
  0
POLYLINE
  8
0
 62
     0
 66
     1
 10
0
 20
0
 30
0.0
 70
     1
 40
0
 41
0
  0
VERTEX
  8
0
 10
0.947211
 20
4.66862
 30
0.0
 40
0
 41
0
  0
VERTEX
  8
0
 10
0.947211
 20
1.77328
 30
0.0
 40
0
 41
0
  0
VERTEX
  8
0
 10
1.55137
 20
2.39828
 30
0.0
 40
0
 41
0
  0
VERTEX
  8
0
 10
1.55137
 20
4.66862
 30
0.0
 40
0
 41
0
  0
VERTEX
  8
0
 10
0.947211
 20
4.66862
 30
0.0
 40
0
 41
0
  0
SEQEND
 8
0
  0
POLYLINE
  8
0
 62
     0
 66
     1
 10
0
 20
0
 30
0.0
 70
     1
 40
0.15
 41
0.15
  0
VERTEX
  8
0
 10
0.947211
 20
4.66862
 30
0.0
 40
0.00208333
 41
0.00208333
  0
VERTEX
  8
0
 10
0.947211
 20
1.77328
 30
0.0
 40
0.00208333
 41
0.00208333
  0
VERTEX
  8
0
 10
1.55137
 20
2.39828
 30
0.0
 40
0.00208333
 41
0.00208333
  0
VERTEX
  8
0
 10
1.55137
 20
4.66862
 30
0.0
 40
0.00208333
 41
0.00208333
  0
VERTEX
  8
0
 10
0.947211
 20
4.66862
 30
0.0
 40
0.00208333
 41
0.00208333
  0
SEQEND
 8
0
  0
POLYLINE
  8
0
 62
     0
 66
     1
 10
0
 20
0
 30
0.0
 70
     1
 40
0
 41
0
  0
VERTEX
  8
0
 10
0.947211
 20
4.66862
 30
0.0
 40
0
 41
0
  0
VERTEX
  8
0
 10
4.02761
 20
4.66862
 30
0.0
 40
0
 41
0
  0
VERTEX
  8
0
 10
3.91303
 20
4.83529
 30
0.0
 40
0
 41
0
  0
VERTEX
  8
0
 10
1.60938
 20
4.83529
 30
0.0
 40
0
 41
0
  0
VERTEX
  8
0
 10
0.947211
 20
4.66862
 30
0.0
 40
0
 41
0
  0
SEQEND
 8
0
  0
POLYLINE
  8
0
 62
     0
 66
     1
 10
0
 20
0
 30
0.0
 70
     1
 40
0.15
 41
0.15
  0
VERTEX
  8
0
 10
0.947211
 20
4.66862
 30
0.0
 40
0.00208333
 41
0.00208333
  0
VERTEX
  8
0
 10
4.02761
 20
4.66862
 30
0.0
 40
0.00208333
 41
0.00208333
  0
VERTEX
  8
0
 10
3.91303
 20
4.83529
 30
0.0
 40
0.00208333
 41
0.00208333
  0
VERTEX
  8
0
 10
1.60938
 20
4.83529
 30
0.0
 40
0.00208333
 41
0.00208333
  0
VERTEX
  8
0
 10
0.947211
 20
4.66862
 30
0.0
 40
0.00208333
 41
0.00208333
  0
SEQEND
 8
0
  0
POLYLINE
  8
0
 62
     7
 66
     1
 10
0
 20
0
 30
0.0
 70
     1
 40
0
 41
0
  0
VERTEX
  8
0
 10
2.93147
 20
4.83529
 30
0.0
 40
0
 41
0
  0
VERTEX
  8
0
 10
3.78353
 20
4.83529
 30
0.0
 40
0
 41
0
  0
VERTEX
  8
0
 10
3.78353
 20
4.66862
 30
0.0
 40
0
 41
0
  0
VERTEX
  8
0
 10
2.93147
 20
4.66862
 30
0.0
 40
0
 41
0
  0
VERTEX
  8
0
 10
2.93147
 20
4.83529
 30
0.0
 40
0
 41
0
  0
SEQEND
 8
0
  0
POLYLINE
  8
0
 62
     0
 66
     1
 10
0
 20
0
 30
0.0
 70
     1
 40
0.75
 41
0.75
  0
VERTEX
  8
0
 10
2.93147
 20
4.83529
 30
0.0
 40
0.0104167
 41
0.0104167
  0
VERTEX
  8
0
 10
3.78353
 20
4.83529
 30
0.0
 40
0.0104167
 41
0.0104167
  0
VERTEX
  8
0
 10
3.78353
 20
4.66862
 30
0.0
 40
0.0104167
 41
0.0104167
  0
VERTEX
  8
0
 10
2.93147
 20
4.66862
 30
0.0
 40
0.0104167
 41
0.0104167
  0
VERTEX
  8
0
 10
2.93147
 20
4.83529
 30
0.0
 40
0.0104167
 41
0.0104167
  0
SEQEND
 8
0
  0
POLYLINE
  8
0
 62
     7
 66
     1
 10
0
 20
0
 30
0.0
 70
     1
 40
0
 41
0
  0
VERTEX
  8
0
 10
2.93147
 20
4.83529
 30
0.0
 40
0
 41
0
  0
VERTEX
  8
0
 10
3.78353
 20
4.83529
 30
0.0
 40
0
 41
0
  0
VERTEX
  8
0
 10
3.78353
 20
4.66862
 30
0.0
 40
0
 41
0
  0
VERTEX
  8
0
 10
2.93147
 20
4.66862
 30
0.0
 40
0
 41
0
  0
VERTEX
  8
0
 10
2.93147
 20
4.83529
 30
0.0
 40
0
 41
0
  0
SEQEND
 8
0
  0
POLYLINE
  8
0
 62
     0
 66
     1
 10
0
 20
0
 30
0.0
 70
     1
 40
0.75
 41
0.75
  0
VERTEX
  8
0
 10
2.93147
 20
4.83529
 30
0.0
 40
0.0104167
 41
0.0104167
  0
VERTEX
  8
0
 10
3.78353
 20
4.83529
 30
0.0
 40
0.0104167
 41
0.0104167
  0
VERTEX
  8
0
 10
3.78353
 20
4.66862
 30
0.0
 40
0.0104167
 41
0.0104167
  0
VERTEX
  8
0
 10
2.93147
 20
4.66862
 30
0.0
 40
0.0104167
 41
0.0104167
  0
VERTEX
  8
0
 10
2.93147
 20
4.83529
 30
0.0
 40
0.0104167
 41
0.0104167
  0
SEQEND
 8
0
  0
POLYLINE
  8
0
 62
     0
 66
     1
 10
0
 20
0
 30
0.0
 70
     1
 40
0.75
 41
0.75
  0
VERTEX
  8
0
 10
2.93147
 20
4.83529
 30
0.0
 40
0.0104167
 41
0.0104167
  0
VERTEX
  8
0
 10
2.93147
 20
4.88525
 30
0.0
 40
0.0104167
 41
0.0104167
  0
VERTEX
  8
0
 10
2.94476
 20
5.035
 30
0.0
 40
0.0104167
 41
0.0104167
  0
VERTEX
  8
0
 10
2.98469
 20
5.20806
 30
0.0
 40
0.0104167
 41
0.0104167
  0
VERTEX
  8
0
 10
3.05126
 20
5.35454
 30
0.0
 40
0.0104167
 41
0.0104167
  0
VERTEX
  8
0
 10
3.14447
 20
5.47433
 30
0.0
 40
0.0104167
 41
0.0104167
  0
VERTEX
  8
0
 10
3.26426
 20
5.56754
 30
0.0
 40
0.0104167
 41
0.0104167
  0
VERTEX
  8
0
 10
3.41075
 20
5.63411
 30
0.0
 40
0.0104167
 41
0.0104167
  0
VERTEX
  8
0
 10
3.58382
 20
5.67404
 30
0.0
 40
0.0104167
 41
0.0104167
  0
VERTEX
  8
0
 10
3.73356
 20
5.68733
 30
0.0
 40
0.0104167
 41
0.0104167
  0
VERTEX
  8
0
 10
3.78353
 20
5.68733
 30
0.0
 40
0.0104167
 41
0.0104167
  0
VERTEX
  8
0
 10
3.78353
 20
4.83529
 30
0.0
 40
0.0104167
 41
0.0104167
  0
VERTEX
  8
0
 10
2.93147
 20
4.83529
 30
0.0
 40
0.0104167
 41
0.0104167
  0
SEQEND
 8
0
  0
POLYLINE
  8
0
 62
     0
 66
     1
 10
0
 20
0
 30
0.0
 70
     1
 40
0
 41
0
  0
VERTEX
  8
0
 10
3.86094
 20
4.83529
 30
0.0
 40
0
 41
0
  0
VERTEX
  8
0
 10
4.02761
 20
4.83529
 30
0.0
 40
0
 41
0
  0
VERTEX
  8
0
 10
4.02761
 20
2.39828
 30
0.0
 40
0
 41
0
  0
VERTEX
  8
0
 10
3.86094
 20
2.39828
 30
0.0
 40
0
 41
0
  0
VERTEX
  8
0
 10
3.86094
 20
4.83529
 30
0.0
 40
0
 41
0
  0
SEQEND
 8
0
  0
POLYLINE
  8
0
 62
     0
 66
     1
 10
0
 20
0
 30
0.0
 70
     1
 40
0.15
 41
0.15
  0
VERTEX
  8
0
 10
3.86094
 20
4.83529
 30
0.0
 40
0.00208333
 41
0.00208333
  0
VERTEX
  8
0
 10
4.02761
 20
4.83529
 30
0.0
 40
0.00208333
 41
0.00208333
  0
VERTEX
  8
0
 10
4.02761
 20
2.39828
 30
0.0
 40
0.00208333
 41
0.00208333
  0
VERTEX
  8
0
 10
3.86094
 20
2.39828
 30
0.0
 40
0.00208333
 41
0.00208333
  0
VERTEX
  8
0
 10
3.86094
 20
4.83529
 30
0.0
 40
0.00208333
 41
0.00208333
  0
SEQEND
 8
0
  0
POLYLINE
  8
0
 62
     7
 66
     1
 10
0
 20
0
 30
0.0
 70
     1
 40
0
 41
0
  0
VERTEX
  8
0
 10
3.86094
 20
4.59853
 30
0.0
 40
0
 41
0
  0
VERTEX
  8
0
 10
4.02761
 20
4.59853
 30
0.0
 40
0
 41
0
  0
VERTEX
  8
0
 10
4.02761
 20
3.31776
 30
0.0
 40
0
 41
0
  0
VERTEX
  8
0
 10
3.86094
 20
3.31776
 30
0.0
 40
0
 41
0
  0
VERTEX
  8
0
 10
3.86094
 20
4.59853
 30
0.0
 40
0
 41
0
  0
SEQEND
 8
0
  0
POLYLINE
  8
0
 62
     0
 66
     1
 10
0
 20
0
 30
0.0
 70
     1
 40
0.75
 41
0.75
  0
VERTEX
  8
0
 10
3.86094
 20
4.59853
 30
0.0
 40
0.0104167
 41
0.0104167
  0
VERTEX
  8
0
 10
4.02761
 20
4.59853
 30
0.0
 40
0.0104167
 41
0.0104167
  0
VERTEX
  8
0
 10
4.02761
 20
3.31776
 30
0.0
 40
0.0104167
 41
0.0104167
  0
VERTEX
  8
0
 10
3.86094
 20
3.31776
 30
0.0
 40
0.0104167
 41
0.0104167
  0
VERTEX
  8
0
 10
3.86094
 20
4.59853
 30
0.0
 40
0.0104167
 41
0.0104167
  0
SEQEND
 8
0
  0
POLYLINE
  8
0
 62
     7
 66
     1
 10
0
 20
0
 30
0.0
 70
     1
 40
0
 41
0
  0
VERTEX
  8
0
 10
3.86094
 20
4.59853
 30
0.0
 40
0
 41
0
  0
VERTEX
  8
0
 10
4.02761
 20
4.59853
 30
0.0
 40
0
 41
0
  0
VERTEX
  8
0
 10
4.02761
 20
3.31776
 30
0.0
 40
0
 41
0
  0
VERTEX
  8
0
 10
3.86094
 20
3.31776
 30
0.0
 40
0
 41
0
  0
VERTEX
  8
0
 10
3.86094
 20
4.59853
 30
0.0
 40
0
 41
0
  0
SEQEND
 8
0
  0
POLYLINE
  8
0
 62
     0
 66
     1
 10
0
 20
0
 30
0.0
 70
     1
 40
0.75
 41
0.75
  0
VERTEX
  8
0
 10
3.86094
 20
4.59853
 30
0.0
 40
0.0104167
 41
0.0104167
  0
VERTEX
  8
0
 10
4.02761
 20
4.59853
 30
0.0
 40
0.0104167
 41
0.0104167
  0
VERTEX
  8
0
 10
4.02761
 20
3.31776
 30
0.0
 40
0.0104167
 41
0.0104167
  0
VERTEX
  8
0
 10
3.86094
 20
3.31776
 30
0.0
 40
0.0104167
 41
0.0104167
  0
VERTEX
  8
0
 10
3.86094
 20
4.59853
 30
0.0
 40
0.0104167
 41
0.0104167
  0
SEQEND
 8
0
  0
POLYLINE
  8
0
 62
     0
 66
     1
 10
0
 20
0
 30
0.0
 40
0.75
 41
0.75
  0
VERTEX
  8
0
 10
3.94428
 20
4.5204
 30
0.0
 40
0.0104167
 41
0.0104167
  0
VERTEX
  8
0
 10
3.94428
 20
3.39594
 30
0.0
 40
0.0104167
 41
0.0104167
  0
SEQEND
 8
0
  0
POLYLINE
  8
0
 62
     0
 66
     1
 10
0
 20
0
 30
0.0
 40
0.75
 41
0.75
  0
VERTEX
  8
0
 10
4.02761
 20
4.5204
 30
0.0
 40
0.0104167
 41
0.0104167
  0
VERTEX
  8
0
 10
3.86094
 20
4.5204
 30
0.0
 40
0.0104167
 41
0.0104167
  0
SEQEND
 8
0
  0
POLYLINE
  8
0
 62
     0
 66
     1
 10
0
 20
0
 30
0.0
 40
0.75
 41
0.75
  0
VERTEX
  8
0
 10
4.02761
 20
3.39594
 30
0.0
 40
0.0104167
 41
0.0104167
  0
VERTEX
  8
0
 10
3.86094
 20
3.39594
 30
0.0
 40
0.0104167
 41
0.0104167
  0
SEQEND
 8
0
  0
POLYLINE
  8
0
 62
     0
 66
     1
 10
0
 20
0
 30
0.0
 70
     1
 40
0
 41
0
  0
VERTEX
  8
0
 10
4.02761
 20
4.66862
 30
0.0
 40
0
 41
0
  0
VERTEX
  8
0
 10
4.02761
 20
5.993
 30
0.0
 40
0
 41
0
  0
VERTEX
  8
0
 10
3.91303
 20
5.993
 30
0.0
 40
0
 41
0
  0
VERTEX
  8
0
 10
3.91303
 20
4.83529
 30
0.0
 40
0
 41
0
  0
VERTEX
  8
0
 10
4.02761
 20
4.66862
 30
0.0
 40
0
 41
0
  0
SEQEND
 8
0
  0
POLYLINE
  8
0
 62
     0
 66
     1
 10
0
 20
0
 30
0.0
 70
     1
 40
0.15
 41
0.15
  0
VERTEX
  8
0
 10
4.02761
 20
4.66862
 30
0.0
 40
0.00208333
 41
0.00208333
  0
VERTEX
  8
0
 10
4.02761
 20
5.993
 30
0.0
 40
0.00208333
 41
0.00208333
  0
VERTEX
  8
0
 10
3.91303
 20
5.993
 30
0.0
 40
0.00208333
 41
0.00208333
  0
VERTEX
  8
0
 10
3.91303
 20
4.83529
 30
0.0
 40
0.00208333
 41
0.00208333
  0
VERTEX
  8
0
 10
4.02761
 20
4.66862
 30
0.0
 40
0.00208333
 41
0.00208333
  0
SEQEND
 8
0
  0
POLYLINE
  8
0
 62
     7
 66
     1
 10
0
 20
0
 30
0.0
 70
     1
 40
0
 41
0
  0
VERTEX
  8
0
 10
3.91303
 20
5.94997
 30
0.0
 40
0
 41
0
  0
VERTEX
  8
0
 10
4.02761
 20
5.94997
 30
0.0
 40
0
 41
0
  0
VERTEX
  8
0
 10
4.02761
 20
5.12131
 30
0.0
 40
0
 41
0
  0
VERTEX
  8
0
 10
3.91303
 20
5.12131
 30
0.0
 40
0
 41
0
  0
VERTEX
  8
0
 10
3.91303
 20
5.94997
 30
0.0
 40
0
 41
0
  0
SEQEND
 8
0
  0
POLYLINE
  8
0
 62
     0
 66
     1
 10
0
 20
0
 30
0.0
 70
     1
 40
0.75
 41
0.75
  0
VERTEX
  8
0
 10
3.91303
 20
5.94997
 30
0.0
 40
0.0104167
 41
0.0104167
  0
VERTEX
  8
0
 10
4.02761
 20
5.94997
 30
0.0
 40
0.0104167
 41
0.0104167
  0
VERTEX
  8
0
 10
4.02761
 20
5.12131
 30
0.0
 40
0.0104167
 41
0.0104167
  0
VERTEX
  8
0
 10
3.91303
 20
5.12131
 30
0.0
 40
0.0104167
 41
0.0104167
  0
VERTEX
  8
0
 10
3.91303
 20
5.94997
 30
0.0
 40
0.0104167
 41
0.0104167
  0
SEQEND
 8
0
  0
POLYLINE
  8
0
 62
     7
 66
     1
 10
0
 20
0
 30
0.0
 70
     1
 40
0
 41
0
  0
VERTEX
  8
0
 10
3.91303
 20
5.94997
 30
0.0
 40
0
 41
0
  0
VERTEX
  8
0
 10
4.02761
 20
5.94997
 30
0.0
 40
0
 41
0
  0
VERTEX
  8
0
 10
4.02761
 20
5.12131
 30
0.0
 40
0
 41
0
  0
VERTEX
  8
0
 10
3.91303
 20
5.12131
 30
0.0
 40
0
 41
0
  0
VERTEX
  8
0
 10
3.91303
 20
5.94997
 30
0.0
 40
0
 41
0
  0
SEQEND
 8
0
  0
POLYLINE
  8
0
 62
     0
 66
     1
 10
0
 20
0
 30
0.0
 70
     1
 40
0.75
 41
0.75
  0
VERTEX
  8
0
 10
3.91303
 20
5.94997
 30
0.0
 40
0.0104167
 41
0.0104167
  0
VERTEX
  8
0
 10
4.02761
 20
5.94997
 30
0.0
 40
0.0104167
 41
0.0104167
  0
VERTEX
  8
0
 10
4.02761
 20
5.12131
 30
0.0
 40
0.0104167
 41
0.0104167
  0
VERTEX
  8
0
 10
3.91303
 20
5.12131
 30
0.0
 40
0.0104167
 41
0.0104167
  0
VERTEX
  8
0
 10
3.91303
 20
5.94997
 30
0.0
 40
0.0104167
 41
0.0104167
  0
SEQEND
 8
0
  0
POLYLINE
  8
0
 62
     0
 66
     1
 10
0
 20
0
 30
0.0
 70
     1
 40
0.75
 41
0.75
  0
VERTEX
  8
0
 10
4.02761
 20
5.12131
 30
0.0
 40
0.0104167
 41
0.0104167
  0
VERTEX
  8
0
 10
4.07611
 20
5.12131
 30
0.0
 40
0.0104167
 41
0.0104167
  0
VERTEX
  8
0
 10
4.22179
 20
5.13428
 30
0.0
 40
0.0104167
 41
0.0104167
  0
VERTEX
  8
0
 10
4.39008
 20
5.17312
 30
0.0
 40
0.0104167
 41
0.0104167
  0
VERTEX
  8
0
 10
4.5325
 20
5.23785
 30
0.0
 40
0.0104167
 41
0.0104167
  0
VERTEX
  8
0
 10
4.64903
 20
5.3285
 30
0.0
 40
0.0104167
 41
0.0104167
  0
VERTEX
  8
0
 10
4.73969
 20
5.44504
 30
0.0
 40
0.0104167
 41
0.0104167
  0
VERTEX
  8
0
 10
4.80442
 20
5.58746
 30
0.0
 40
0.0104167
 41
0.0104167
  0
VERTEX
  8
0
 10
4.84326
 20
5.75581
 30
0.0
 40
0.0104167
 41
0.0104167
  0
VERTEX
  8
0
 10
4.85622
 20
5.90147
 30
0.0
 40
0.0104167
 41
0.0104167
  0
VERTEX
  8
0
 10
4.85622
 20
5.94997
 30
0.0
 40
0.0104167
 41
0.0104167
  0
VERTEX
  8
0
 10
4.02761
 20
5.94997
 30
0.0
 40
0.0104167
 41
0.0104167
  0
VERTEX
  8
0
 10
4.02761
 20
5.12131
 30
0.0
 40
0.0104167
 41
0.0104167
  0
SEQEND
 8
0
  0
POLYLINE
  8
0
 62
     0
 66
     1
 10
0
 20
0
 30
0.0
 70
     1
 40
0
 41
0
  0
VERTEX
  8
0
 10
4.31543
 20
5.993
 30
0.0
 40
0
 41
0
  0
VERTEX
  8
0
 10
4.31543
 20
7.81467
 30
0.0
 40
0
 41
0
  0
VERTEX
  8
0
 10
3.91303
 20
7.648
 30
0.0
 40
0
 41
0
  0
VERTEX
  8
0
 10
3.91303
 20
5.993
 30
0.0
 40
0
 41
0
  0
VERTEX
  8
0
 10
4.31543
 20
5.993
 30
0.0
 40
0
 41
0
  0
SEQEND
 8
0
  0
POLYLINE
  8
0
 62
     0
 66
     1
 10
0
 20
0
 30
0.0
 70
     1
 40
0.15
 41
0.15
  0
VERTEX
  8
0
 10
4.31543
 20
5.993
 30
0.0
 40
0.00208333
 41
0.00208333
  0
VERTEX
  8
0
 10
4.31543
 20
7.81467
 30
0.0
 40
0.00208333
 41
0.00208333
  0
VERTEX
  8
0
 10
3.91303
 20
7.648
 30
0.0
 40
0.00208333
 41
0.00208333
  0
VERTEX
  8
0
 10
3.91303
 20
5.993
 30
0.0
 40
0.00208333
 41
0.00208333
  0
VERTEX
  8
0
 10
4.31543
 20
5.993
 30
0.0
 40
0.00208333
 41
0.00208333
  0
SEQEND
 8
0
  0
POLYLINE
  8
0
 62
     0
 66
     1
 10
0
 20
0
 30
0.0
 70
     1
 40
0
 41
0
  0
VERTEX
  8
0
 10
4.25239
 20
7.81467
 30
0.0
 40
0
 41
0
  0
VERTEX
  8
0
 10
4.25239
 20
7.96213
 30
0.0
 40
0
 41
0
  0
VERTEX
  8
0
 10
3.868
 20
7.96213
 30
0.0
 40
0
 41
0
  0
VERTEX
  8
0
 10
3.868
 20
7.648
 30
0.0
 40
0
 41
0
  0
VERTEX
  8
0
 10
4.25239
 20
7.81467
 30
0.0
 40
0
 41
0
  0
SEQEND
 8
0
  0
POLYLINE
  8
0
 62
     0
 66
     1
 10
0
 20
0
 30
0.0
 70
     1
 40
0.15
 41
0.15
  0
VERTEX
  8
0
 10
4.25239
 20
7.81467
 30
0.0
 40
0.00208333
 41
0.00208333
  0
VERTEX
  8
0
 10
4.25239
 20
7.96213
 30
0.0
 40
0.00208333
 41
0.00208333
  0
VERTEX
  8
0
 10
3.868
 20
7.96213
 30
0.0
 40
0.00208333
 41
0.00208333
  0
VERTEX
  8
0
 10
3.868
 20
7.648
 30
0.0
 40
0.00208333
 41
0.00208333
  0
VERTEX
  8
0
 10
4.25239
 20
7.81467
 30
0.0
 40
0.00208333
 41
0.00208333
  0
SEQEND
 8
0
  0
POLYLINE
  8
0
 62
     0
 66
     1
 10
0
 20
0
 30
0.0
 70
     1
 40
0
 41
0
  0
VERTEX
  8
0
 10
3.868
 20
7.648
 30
0.0
 40
0
 41
0
  0
VERTEX
  8
0
 10
3.91303
 20
7.648
 30
0.0
 40
0
 41
0
  0
VERTEX
  8
0
 10
4.31543
 20
7.81467
 30
0.0
 40
0
 41
0
  0
VERTEX
  8
0
 10
4.25239
 20
7.81467
 30
0.0
 40
0
 41
0
  0
VERTEX
  8
0
 10
3.868
 20
7.648
 30
0.0
 40
0
 41
0
  0
SEQEND
 8
0
  0
POLYLINE
  8
0
 62
     0
 66
     1
 10
0
 20
0
 30
0.0
 70
     1
 40
0.15
 41
0.15
  0
VERTEX
  8
0
 10
3.868
 20
7.648
 30
0.0
 40
0.00208333
 41
0.00208333
  0
VERTEX
  8
0
 10
3.91303
 20
7.648
 30
0.0
 40
0.00208333
 41
0.00208333
  0
VERTEX
  8
0
 10
4.31543
 20
7.81467
 30
0.0
 40
0.00208333
 41
0.00208333
  0
VERTEX
  8
0
 10
4.25239
 20
7.81467
 30
0.0
 40
0.00208333
 41
0.00208333
  0
VERTEX
  8
0
 10
3.868
 20
7.648
 30
0.0
 40
0.00208333
 41
0.00208333
  0
SEQEND
 8
0
  0
POLYLINE
  8
0
 62
     0
 66
     1
 10
0
 20
0
 30
0.0
 70
     1
 40
0
 41
0
  0
VERTEX
  8
0
 10
4.31543
 20
7.75444
 30
0.0
 40
0
 41
0
  0
VERTEX
  8
0
 10
7.57992
 20
7.75444
 30
0.0
 40
0
 41
0
  0
VERTEX
  8
0
 10
7.57992
 20
7.63986
 30
0.0
 40
0
 41
0
  0
VERTEX
  8
0
 10
4.31543
 20
7.63986
 30
0.0
 40
0
 41
0
  0
VERTEX
  8
0
 10
4.31543
 20
7.75444
 30
0.0
 40
0
 41
0
  0
SEQEND
 8
0
  0
POLYLINE
  8
0
 62
     0
 66
     1
 10
0
 20
0
 30
0.0
 70
     1
 40
0.15
 41
0.15
  0
VERTEX
  8
0
 10
4.31543
 20
7.75444
 30
0.0
 40
0.00208333
 41
0.00208333
  0
VERTEX
  8
0
 10
7.57992
 20
7.75444
 30
0.0
 40
0.00208333
 41
0.00208333
  0
VERTEX
  8
0
 10
7.57992
 20
7.63986
 30
0.0
 40
0.00208333
 41
0.00208333
  0
VERTEX
  8
0
 10
4.31543
 20
7.63986
 30
0.0
 40
0.00208333
 41
0.00208333
  0
VERTEX
  8
0
 10
4.31543
 20
7.75444
 30
0.0
 40
0.00208333
 41
0.00208333
  0
SEQEND
 8
0
  0
POLYLINE
  8
0
 62
     7
 66
     1
 10
0
 20
0
 30
0.0
 70
     1
 40
0
 41
0
  0
VERTEX
  8
0
 10
4.74804
 20
7.75444
 30
0.0
 40
0
 41
0
  0
VERTEX
  8
0
 10
5.61219
 20
7.75444
 30
0.0
 40
0
 41
0
  0
VERTEX
  8
0
 10
5.61219
 20
7.63986
 30
0.0
 40
0
 41
0
  0
VERTEX
  8
0
 10
4.74804
 20
7.63986
 30
0.0
 40
0
 41
0
  0
VERTEX
  8
0
 10
4.74804
 20
7.75444
 30
0.0
 40
0
 41
0
  0
SEQEND
 8
0
  0
POLYLINE
  8
0
 62
     0
 66
     1
 10
0
 20
0
 30
0.0
 70
     1
 40
0.75
 41
0.75
  0
VERTEX
  8
0
 10
4.74804
 20
7.75444
 30
0.0
 40
0.0104167
 41
0.0104167
  0
VERTEX
  8
0
 10
5.61219
 20
7.75444
 30
0.0
 40
0.0104167
 41
0.0104167
  0
VERTEX
  8
0
 10
5.61219
 20
7.63986
 30
0.0
 40
0.0104167
 41
0.0104167
  0
VERTEX
  8
0
 10
4.74804
 20
7.63986
 30
0.0
 40
0.0104167
 41
0.0104167
  0
VERTEX
  8
0
 10
4.74804
 20
7.75444
 30
0.0
 40
0.0104167
 41
0.0104167
  0
SEQEND
 8
0
  0
POLYLINE
  8
0
 62
     7
 66
     1
 10
0
 20
0
 30
0.0
 70
     1
 40
0
 41
0
  0
VERTEX
  8
0
 10
4.74804
 20
7.75444
 30
0.0
 40
0
 41
0
  0
VERTEX
  8
0
 10
5.61219
 20
7.75444
 30
0.0
 40
0
 41
0
  0
VERTEX
  8
0
 10
5.61219
 20
7.63986
 30
0.0
 40
0
 41
0
  0
VERTEX
  8
0
 10
4.74804
 20
7.63986
 30
0.0
 40
0
 41
0
  0
VERTEX
  8
0
 10
4.74804
 20
7.75444
 30
0.0
 40
0
 41
0
  0
SEQEND
 8
0
  0
POLYLINE
  8
0
 62
     0
 66
     1
 10
0
 20
0
 30
0.0
 70
     1
 40
0.75
 41
0.75
  0
VERTEX
  8
0
 10
4.74804
 20
7.75444
 30
0.0
 40
0.0104167
 41
0.0104167
  0
VERTEX
  8
0
 10
5.61219
 20
7.75444
 30
0.0
 40
0.0104167
 41
0.0104167
  0
VERTEX
  8
0
 10
5.61219
 20
7.63986
 30
0.0
 40
0.0104167
 41
0.0104167
  0
VERTEX
  8
0
 10
4.74804
 20
7.63986
 30
0.0
 40
0.0104167
 41
0.0104167
  0
VERTEX
  8
0
 10
4.74804
 20
7.75444
 30
0.0
 40
0.0104167
 41
0.0104167
  0
SEQEND
 8
0
  0
POLYLINE
  8
0
 62
     0
 66
     1
 10
0
 20
0
 30
0.0
 70
     1
 40
0.75
 41
0.75
  0
VERTEX
  8
0
 10
4.74804
 20
7.75444
 30
0.0
 40
0.0104167
 41
0.0104167
  0
VERTEX
  8
0
 10
4.74804
 20
7.80512
 30
0.0
 40
0.0104167
 41
0.0104167
  0
VERTEX
  8
0
 10
4.7615
 20
7.95703
 30
0.0
 40
0.0104167
 41
0.0104167
  0
VERTEX
  8
0
 10
4.80203
 20
8.1326
 30
0.0
 40
0.0104167
 41
0.0104167
  0
VERTEX
  8
0
 10
4.86957
 20
8.28114
 30
0.0
 40
0.0104167
 41
0.0104167
  0
VERTEX
  8
0
 10
4.96408
 20
8.40267
 30
0.0
 40
0.0104167
 41
0.0104167
  0
VERTEX
  8
0
 10
5.08561
 20
8.49718
 30
0.0
 40
0.0104167
 41
0.0104167
  0
VERTEX
  8
0
 10
5.23415
 20
8.56472
 30
0.0
 40
0.0104167
 41
0.0104167
  0
VERTEX
  8
0
 10
5.40972
 20
8.60525
 30
0.0
 40
0.0104167
 41
0.0104167
  0
VERTEX
  8
0
 10
5.56164
 20
8.61871
 30
0.0
 40
0.0104167
 41
0.0104167
  0
VERTEX
  8
0
 10
5.61231
 20
8.61871
 30
0.0
 40
0.0104167
 41
0.0104167
  0
VERTEX
  8
0
 10
5.61231
 20
7.75444
 30
0.0
 40
0.0104167
 41
0.0104167
  0
VERTEX
  8
0
 10
4.74804
 20
7.75444
 30
0.0
 40
0.0104167
 41
0.0104167
  0
SEQEND
 8
0
  0
POLYLINE
  8
0
 62
     0
 66
     1
 10
0
 20
0
 30
0.0
 70
     1
 40
0
 41
0
  0
VERTEX
  8
0
 10
7.57992
 20
7.75444
 30
0.0
 40
0
 41
0
  0
VERTEX
  8
0
 10
7.92731
 20
7.75444
 30
0.0
 40
0
 41
0
  0
VERTEX
  8
0
 10
7.92731
 20
7.42692
 30
0.0
 40
0
 41
0
  0
VERTEX
  8
0
 10
7.57992
 20
7.42692
 30
0.0
 40
0
 41
0
  0
VERTEX
  8
0
 10
7.57992
 20
7.75444
 30
0.0
 40
0
 41
0
  0
SEQEND
 8
0
  0
POLYLINE
  8
0
 62
     0
 66
     1
 10
0
 20
0
 30
0.0
 70
     1
 40
0.15
 41
0.15
  0
VERTEX
  8
0
 10
7.57992
 20
7.75444
 30
0.0
 40
0.00208333
 41
0.00208333
  0
VERTEX
  8
0
 10
7.92731
 20
7.75444
 30
0.0
 40
0.00208333
 41
0.00208333
  0
VERTEX
  8
0
 10
7.92731
 20
7.42692
 30
0.0
 40
0.00208333
 41
0.00208333
  0
VERTEX
  8
0
 10
7.57992
 20
7.42692
 30
0.0
 40
0.00208333
 41
0.00208333
  0
VERTEX
  8
0
 10
7.57992
 20
7.75444
 30
0.0
 40
0.00208333
 41
0.00208333
  0
SEQEND
 8
0
  0
POLYLINE
  8
0
 62
     0
 66
     1
 10
0
 20
0
 30
0.0
 70
     1
 40
0
 41
0
  0
VERTEX
  8
0
 10
7.92731
 20
7.75444
 30
0.0
 40
0
 41
0
  0
VERTEX
  8
0
 10
9.20269
 20
7.75444
 30
0.0
 40
0
 41
0
  0
VERTEX
  8
0
 10
9.20269
 20
7.63986
 30
0.0
 40
0
 41
0
  0
VERTEX
  8
0
 10
7.92731
 20
7.63986
 30
0.0
 40
0
 41
0
  0
VERTEX
  8
0
 10
7.92731
 20
7.75444
 30
0.0
 40
0
 41
0
  0
SEQEND
 8
0
  0
POLYLINE
  8
0
 62
     0
 66
     1
 10
0
 20
0
 30
0.0
 70
     1
 40
0.15
 41
0.15
  0
VERTEX
  8
0
 10
7.92731
 20
7.75444
 30
0.0
 40
0.00208333
 41
0.00208333
  0
VERTEX
  8
0
 10
9.20269
 20
7.75444
 30
0.0
 40
0.00208333
 41
0.00208333
  0
VERTEX
  8
0
 10
9.20269
 20
7.63986
 30
0.0
 40
0.00208333
 41
0.00208333
  0
VERTEX
  8
0
 10
7.92731
 20
7.63986
 30
0.0
 40
0.00208333
 41
0.00208333
  0
VERTEX
  8
0
 10
7.92731
 20
7.75444
 30
0.0
 40
0.00208333
 41
0.00208333
  0
SEQEND
 8
0
  0
POLYLINE
  8
0
 62
     0
 66
     1
 10
0
 20
0
 30
0.0
 70
     1
 40
0
 41
0
  0
VERTEX
  8
0
 10
7.71408
 20
7.42692
 30
0.0
 40
0
 41
0
  0
VERTEX
  8
0
 10
7.71408
 20
5.55496
 30
0.0
 40
0
 41
0
  0
VERTEX
  8
0
 10
7.82867
 20
5.66954
 30
0.0
 40
0
 41
0
  0
VERTEX
  8
0
 10
7.82867
 20
7.42692
 30
0.0
 40
0
 41
0
  0
VERTEX
  8
0
 10
7.71408
 20
7.42692
 30
0.0
 40
0
 41
0
  0
SEQEND
 8
0
  0
POLYLINE
  8
0
 62
     0
 66
     1
 10
0
 20
0
 30
0.0
 70
     1
 40
0.15
 41
0.15
  0
VERTEX
  8
0
 10
7.71408
 20
7.42692
 30
0.0
 40
0.00208333
 41
0.00208333
  0
VERTEX
  8
0
 10
7.71408
 20
5.55496
 30
0.0
 40
0.00208333
 41
0.00208333
  0
VERTEX
  8
0
 10
7.82867
 20
5.66954
 30
0.0
 40
0.00208333
 41
0.00208333
  0
VERTEX
  8
0
 10
7.82867
 20
7.42692
 30
0.0
 40
0.00208333
 41
0.00208333
  0
VERTEX
  8
0
 10
7.71408
 20
7.42692
 30
0.0
 40
0.00208333
 41
0.00208333
  0
SEQEND
 8
0
  0
POLYLINE
  8
0
 62
     0
 66
     1
 10
0
 20
0
 30
0.0
 70
     1
 40
0
 41
0
  0
VERTEX
  8
0
 10
7.71408
 20
5.55496
 30
0.0
 40
0
 41
0
  0
VERTEX
  8
0
 10
9.20269
 20
5.55496
 30
0.0
 40
0
 41
0
  0
VERTEX
  8
0
 10
9.20269
 20
5.66954
 30
0.0
 40
0
 41
0
  0
VERTEX
  8
0
 10
7.82867
 20
5.66954
 30
0.0
 40
0
 41
0
  0
VERTEX
  8
0
 10
7.71408
 20
5.55496
 30
0.0
 40
0
 41
0
  0
SEQEND
 8
0
  0
POLYLINE
  8
0
 62
     0
 66
     1
 10
0
 20
0
 30
0.0
 70
     1
 40
0.15
 41
0.15
  0
VERTEX
  8
0
 10
7.71408
 20
5.55496
 30
0.0
 40
0.00208333
 41
0.00208333
  0
VERTEX
  8
0
 10
9.20269
 20
5.55496
 30
0.0
 40
0.00208333
 41
0.00208333
  0
VERTEX
  8
0
 10
9.20269
 20
5.66954
 30
0.0
 40
0.00208333
 41
0.00208333
  0
VERTEX
  8
0
 10
7.82867
 20
5.66954
 30
0.0
 40
0.00208333
 41
0.00208333
  0
VERTEX
  8
0
 10
7.71408
 20
5.55496
 30
0.0
 40
0.00208333
 41
0.00208333
  0
SEQEND
 8
0
  0
POLYLINE
  8
0
 62
     7
 66
     1
 10
0
 20
0
 30
0.0
 70
     1
 40
0
 41
0
  0
VERTEX
  8
0
 10
7.88135
 20
5.66954
 30
0.0
 40
0
 41
0
  0
VERTEX
  8
0
 10
8.50239
 20
5.66954
 30
0.0
 40
0
 41
0
  0
VERTEX
  8
0
 10
8.50239
 20
5.55496
 30
0.0
 40
0
 41
0
  0
VERTEX
  8
0
 10
7.88135
 20
5.55496
 30
0.0
 40
0
 41
0
  0
VERTEX
  8
0
 10
7.88135
 20
5.66954
 30
0.0
 40
0
 41
0
  0
SEQEND
 8
0
  0
POLYLINE
  8
0
 62
     0
 66
     1
 10
0
 20
0
 30
0.0
 70
     1
 40
0.75
 41
0.75
  0
VERTEX
  8
0
 10
7.88135
 20
5.66954
 30
0.0
 40
0.0104167
 41
0.0104167
  0
VERTEX
  8
0
 10
8.50239
 20
5.66954
 30
0.0
 40
0.0104167
 41
0.0104167
  0
VERTEX
  8
0
 10
8.50239
 20
5.55496
 30
0.0
 40
0.0104167
 41
0.0104167
  0
VERTEX
  8
0
 10
7.88135
 20
5.55496
 30
0.0
 40
0.0104167
 41
0.0104167
  0
VERTEX
  8
0
 10
7.88135
 20
5.66954
 30
0.0
 40
0.0104167
 41
0.0104167
  0
SEQEND
 8
0
  0
POLYLINE
  8
0
 62
     7
 66
     1
 10
0
 20
0
 30
0.0
 70
     1
 40
0
 41
0
  0
VERTEX
  8
0
 10
7.88135
 20
5.66954
 30
0.0
 40
0
 41
0
  0
VERTEX
  8
0
 10
8.50239
 20
5.66954
 30
0.0
 40
0
 41
0
  0
VERTEX
  8
0
 10
8.50239
 20
5.55496
 30
0.0
 40
0
 41
0
  0
VERTEX
  8
0
 10
7.88135
 20
5.55496
 30
0.0
 40
0
 41
0
  0
VERTEX
  8
0
 10
7.88135
 20
5.66954
 30
0.0
 40
0
 41
0
  0
SEQEND
 8
0
  0
POLYLINE
  8
0
 62
     0
 66
     1
 10
0
 20
0
 30
0.0
 70
     1
 40
0.75
 41
0.75
  0
VERTEX
  8
0
 10
7.88135
 20
5.66954
 30
0.0
 40
0.0104167
 41
0.0104167
  0
VERTEX
  8
0
 10
8.50239
 20
5.66954
 30
0.0
 40
0.0104167
 41
0.0104167
  0
VERTEX
  8
0
 10
8.50239
 20
5.55496
 30
0.0
 40
0.0104167
 41
0.0104167
  0
VERTEX
  8
0
 10
7.88135
 20
5.55496
 30
0.0
 40
0.0104167
 41
0.0104167
  0
VERTEX
  8
0
 10
7.88135
 20
5.66954
 30
0.0
 40
0.0104167
 41
0.0104167
  0
SEQEND
 8
0
  0
POLYLINE
  8
0
 62
     0
 66
     1
 10
0
 20
0
 30
0.0
 70
     1
 40
0.75
 41
0.75
  0
VERTEX
  8
0
 10
7.88135
 20
5.55496
 30
0.0
 40
0.0104167
 41
0.0104167
  0
VERTEX
  8
0
 10
7.88135
 20
5.51861
 30
0.0
 40
0.0104167
 41
0.0104167
  0
VERTEX
  8
0
 10
7.891
 20
5.4094
 30
0.0
 40
0.0104167
 41
0.0104167
  0
VERTEX
  8
0
 10
7.92014
 20
5.28321
 30
0.0
 40
0.0104167
 41
0.0104167
  0
VERTEX
  8
0
 10
7.96864
 20
5.17649
 30
0.0
 40
0.0104167
 41
0.0104167
  0
VERTEX
  8
0
 10
8.03663
 20
5.08914
 30
0.0
 40
0.0104167
 41
0.0104167
  0
VERTEX
  8
0
 10
8.12397
 20
5.02115
 30
0.0
 40
0.0104167
 41
0.0104167
  0
VERTEX
  8
0
 10
8.23068
 20
4.97265
 30
0.0
 40
0.0104167
 41
0.0104167
  0
VERTEX
  8
0
 10
8.35688
 20
4.94353
 30
0.0
 40
0.0104167
 41
0.0104167
  0
VERTEX
  8
0
 10
8.4661
 20
4.93381
 30
0.0
 40
0.0104167
 41
0.0104167
  0
VERTEX
  8
0
 10
8.5025
 20
4.93381
 30
0.0
 40
0.0104167
 41
0.0104167
  0
VERTEX
  8
0
 10
8.5025
 20
5.55496
 30
0.0
 40
0.0104167
 41
0.0104167
  0
VERTEX
  8
0
 10
7.88135
 20
5.55496
 30
0.0
 40
0.0104167
 41
0.0104167
  0
SEQEND
 8
0
  0
POLYLINE
  8
0
 62
     0
 66
     1
 10
0
 20
0
 30
0.0
 70
     1
 40
0
 41
0
  0
VERTEX
  8
0
 10
1.53054
 20
7.3055
 30
0.0
 40
0
 41
0
  0
VERTEX
  8
0
 10
3.91303
 20
7.3055
 30
0.0
 40
0
 41
0
  0
VERTEX
  8
0
 10
3.91303
 20
7.19092
 30
0.0
 40
0
 41
0
  0
VERTEX
  8
0
 10
0.947211
 20
7.19092
 30
0.0
 40
0
 41
0
  0
VERTEX
  8
0
 10
1.53054
 20
7.3055
 30
0.0
 40
0
 41
0
  0
SEQEND
 8
0
  0
POLYLINE
  8
0
 62
     0
 66
     1
 10
0
 20
0
 30
0.0
 70
     1
 40
0.15
 41
0.15
  0
VERTEX
  8
0
 10
1.53054
 20
7.3055
 30
0.0
 40
0.00208333
 41
0.00208333
  0
VERTEX
  8
0
 10
3.91303
 20
7.3055
 30
0.0
 40
0.00208333
 41
0.00208333
  0
VERTEX
  8
0
 10
3.91303
 20
7.19092
 30
0.0
 40
0.00208333
 41
0.00208333
  0
VERTEX
  8
0
 10
0.947211
 20
7.19092
 30
0.0
 40
0.00208333
 41
0.00208333
  0
VERTEX
  8
0
 10
1.53054
 20
7.3055
 30
0.0
 40
0.00208333
 41
0.00208333
  0
SEQEND
 8
0
  0
POLYLINE
  8
0
 62
     7
 66
     1
 10
0
 20
0
 30
0.0
 70
     1
 40
0
 41
0
  0
VERTEX
  8
0
 10
1.55143
 20
3.11301
 30
0.0
 40
0
 41
0
  0
VERTEX
  8
0
 10
3.86442
 20
3.11301
 30
0.0
 40
0
 41
0
  0
VERTEX
  8
0
 10
3.86442
 20
2.39958
 30
0.0
 40
0
 41
0
  0
VERTEX
  8
0
 10
1.55143
 20
2.39958
 30
0.0
 40
0
 41
0
  0
VERTEX
  8
0
 10
1.55143
 20
3.11301
 30
0.0
 40
0
 41
0
  0
SEQEND
 8
0
  0
POLYLINE
  8
0
 62
     0
 66
     1
 10
0
 20
0
 30
0.0
 70
     1
 40
0.75
 41
0.75
  0
VERTEX
  8
0
 10
1.55143
 20
3.11301
 30
0.0
 40
0.0104167
 41
0.0104167
  0
VERTEX
  8
0
 10
3.86442
 20
3.11301
 30
0.0
 40
0.0104167
 41
0.0104167
  0
VERTEX
  8
0
 10
3.86442
 20
2.39958
 30
0.0
 40
0.0104167
 41
0.0104167
  0
VERTEX
  8
0
 10
1.55143
 20
2.39958
 30
0.0
 40
0.0104167
 41
0.0104167
  0
VERTEX
  8
0
 10
1.55143
 20
3.11301
 30
0.0
 40
0.0104167
 41
0.0104167
  0
SEQEND
 8
0
  0
POLYLINE
  8
0
 62
     253
 66
     1
 10
0
 20
0
 30
0.0
 40
0.375
 41
0.375
  0
VERTEX
  8
0
 10
3.86442
 20
2.4471
 30
0.0
 40
0.00520833
 41
0.00520833
  0
VERTEX
  8
0
 10
1.55137
 20
2.4471
 30
0.0
 40
0.00520833
 41
0.00520833
  0
SEQEND
 8
0
  0
POLYLINE
  8
0
 62
     253
 66
     1
 10
0
 20
0
 30
0.0
 40
0.375
 41
0.375
  0
VERTEX
  8
0
 10
3.86442
 20
2.49468
 30
0.0
 40
0.00520833
 41
0.00520833
  0
VERTEX
  8
0
 10
1.55137
 20
2.49468
 30
0.0
 40
0.00520833
 41
0.00520833
  0
SEQEND
 8
0
  0
POLYLINE
  8
0
 62
     253
 66
     1
 10
0
 20
0
 30
0.0
 40
0.375
 41
0.375
  0
VERTEX
  8
0
 10
3.86442
 20
2.54226
 30
0.0
 40
0.00520833
 41
0.00520833
  0
VERTEX
  8
0
 10
1.55137
 20
2.54226
 30
0.0
 40
0.00520833
 41
0.00520833
  0
SEQEND
 8
0
  0
POLYLINE
  8
0
 62
     253
 66
     1
 10
0
 20
0
 30
0.0
 40
0.375
 41
0.375
  0
VERTEX
  8
0
 10
3.86442
 20
2.58979
 30
0.0
 40
0.00520833
 41
0.00520833
  0
VERTEX
  8
0
 10
1.55137
 20
2.58979
 30
0.0
 40
0.00520833
 41
0.00520833
  0
SEQEND
 8
0
  0
POLYLINE
  8
0
 62
     253
 66
     1
 10
0
 20
0
 30
0.0
 40
0.375
 41
0.375
  0
VERTEX
  8
0
 10
3.86442
 20
2.63738
 30
0.0
 40
0.00520833
 41
0.00520833
  0
VERTEX
  8
0
 10
1.55137
 20
2.63738
 30
0.0
 40
0.00520833
 41
0.00520833
  0
SEQEND
 8
0
  0
POLYLINE
  8
0
 62
     253
 66
     1
 10
0
 20
0
 30
0.0
 40
0.375
 41
0.375
  0
VERTEX
  8
0
 10
3.86442
 20
2.68494
 30
0.0
 40
0.00520833
 41
0.00520833
  0
VERTEX
  8
0
 10
1.55137
 20
2.68494
 30
0.0
 40
0.00520833
 41
0.00520833
  0
SEQEND
 8
0
  0
POLYLINE
  8
0
 62
     253
 66
     1
 10
0
 20
0
 30
0.0
 40
0.375
 41
0.375
  0
VERTEX
  8
0
 10
3.86442
 20
2.73247
 30
0.0
 40
0.00520833
 41
0.00520833
  0
VERTEX
  8
0
 10
1.55137
 20
2.73247
 30
0.0
 40
0.00520833
 41
0.00520833
  0
SEQEND
 8
0
  0
POLYLINE
  8
0
 62
     253
 66
     1
 10
0
 20
0
 30
0.0
 40
0.375
 41
0.375
  0
VERTEX
  8
0
 10
3.86442
 20
2.78006
 30
0.0
 40
0.00520833
 41
0.00520833
  0
VERTEX
  8
0
 10
1.55137
 20
2.78006
 30
0.0
 40
0.00520833
 41
0.00520833
  0
SEQEND
 8
0
  0
POLYLINE
  8
0
 62
     253
 66
     1
 10
0
 20
0
 30
0.0
 40
0.375
 41
0.375
  0
VERTEX
  8
0
 10
3.86442
 20
2.82764
 30
0.0
 40
0.00520833
 41
0.00520833
  0
VERTEX
  8
0
 10
1.55137
 20
2.82764
 30
0.0
 40
0.00520833
 41
0.00520833
  0
SEQEND
 8
0
  0
POLYLINE
  8
0
 62
     253
 66
     1
 10
0
 20
0
 30
0.0
 40
0.375
 41
0.375
  0
VERTEX
  8
0
 10
3.86442
 20
2.87517
 30
0.0
 40
0.00520833
 41
0.00520833
  0
VERTEX
  8
0
 10
1.55137
 20
2.87517
 30
0.0
 40
0.00520833
 41
0.00520833
  0
SEQEND
 8
0
  0
POLYLINE
  8
0
 62
     253
 66
     1
 10
0
 20
0
 30
0.0
 40
0.375
 41
0.375
  0
VERTEX
  8
0
 10
3.86442
 20
2.92275
 30
0.0
 40
0.00520833
 41
0.00520833
  0
VERTEX
  8
0
 10
1.55137
 20
2.92275
 30
0.0
 40
0.00520833
 41
0.00520833
  0
SEQEND
 8
0
  0
POLYLINE
  8
0
 62
     253
 66
     1
 10
0
 20
0
 30
0.0
 40
0.375
 41
0.375
  0
VERTEX
  8
0
 10
3.86442
 20
2.97032
 30
0.0
 40
0.00520833
 41
0.00520833
  0
VERTEX
  8
0
 10
1.55137
 20
2.97032
 30
0.0
 40
0.00520833
 41
0.00520833
  0
SEQEND
 8
0
  0
POLYLINE
  8
0
 62
     253
 66
     1
 10
0
 20
0
 30
0.0
 40
0.375
 41
0.375
  0
VERTEX
  8
0
 10
3.86442
 20
3.01785
 30
0.0
 40
0.00520833
 41
0.00520833
  0
VERTEX
  8
0
 10
1.55137
 20
3.01785
 30
0.0
 40
0.00520833
 41
0.00520833
  0
SEQEND
 8
0
  0
POLYLINE
  8
0
 62
     253
 66
     1
 10
0
 20
0
 30
0.0
 40
0.375
 41
0.375
  0
VERTEX
  8
0
 10
3.86442
 20
3.06543
 30
0.0
 40
0.00520833
 41
0.00520833
  0
VERTEX
  8
0
 10
1.55137
 20
3.06543
 30
0.0
 40
0.00520833
 41
0.00520833
  0
SEQEND
 8
0
  0
POLYLINE
  8
0
 62
     7
 66
     1
 10
0
 20
0
 30
0.0
 70
     1
 40
0
 41
0
  0
VERTEX
  8
0
 10
1.55143
 20
3.5886
 30
0.0
 40
0
 41
0
  0
VERTEX
  8
0
 10
3.86442
 20
3.5886
 30
0.0
 40
0
 41
0
  0
VERTEX
  8
0
 10
3.86442
 20
3.11301
 30
0.0
 40
0
 41
0
  0
VERTEX
  8
0
 10
1.55143
 20
3.11301
 30
0.0
 40
0
 41
0
  0
VERTEX
  8
0
 10
1.55143
 20
3.5886
 30
0.0
 40
0
 41
0
  0
SEQEND
 8
0
  0
POLYLINE
  8
0
 62
     0
 66
     1
 10
0
 20
0
 30
0.0
 70
     1
 40
0.75
 41
0.75
  0
VERTEX
  8
0
 10
1.55143
 20
3.5886
 30
0.0
 40
0.0104167
 41
0.0104167
  0
VERTEX
  8
0
 10
3.86442
 20
3.5886
 30
0.0
 40
0.0104167
 41
0.0104167
  0
VERTEX
  8
0
 10
3.86442
 20
3.11301
 30
0.0
 40
0.0104167
 41
0.0104167
  0
VERTEX
  8
0
 10
1.55143
 20
3.11301
 30
0.0
 40
0.0104167
 41
0.0104167
  0
VERTEX
  8
0
 10
1.55143
 20
3.5886
 30
0.0
 40
0.0104167
 41
0.0104167
  0
SEQEND
 8
0
  0
POLYLINE
  8
0
 62
     253
 66
     1
 10
0
 20
0
 30
0.0
 40
0.375
 41
0.375
  0
VERTEX
  8
0
 10
3.86442
 20
3.16054
 30
0.0
 40
0.00520833
 41
0.00520833
  0
VERTEX
  8
0
 10
1.55137
 20
3.16054
 30
0.0
 40
0.00520833
 41
0.00520833
  0
SEQEND
 8
0
  0
POLYLINE
  8
0
 62
     253
 66
     1
 10
0
 20
0
 30
0.0
 40
0.375
 41
0.375
  0
VERTEX
  8
0
 10
3.86442
 20
3.20811
 30
0.0
 40
0.00520833
 41
0.00520833
  0
VERTEX
  8
0
 10
1.55137
 20
3.20811
 30
0.0
 40
0.00520833
 41
0.00520833
  0
SEQEND
 8
0
  0
POLYLINE
  8
0
 62
     253
 66
     1
 10
0
 20
0
 30
0.0
 40
0.375
 41
0.375
  0
VERTEX
  8
0
 10
3.86442
 20
3.25564
 30
0.0
 40
0.00520833
 41
0.00520833
  0
VERTEX
  8
0
 10
1.55137
 20
3.25564
 30
0.0
 40
0.00520833
 41
0.00520833
  0
SEQEND
 8
0
  0
POLYLINE
  8
0
 62
     253
 66
     1
 10
0
 20
0
 30
0.0
 40
0.375
 41
0.375
  0
VERTEX
  8
0
 10
3.86442
 20
3.30322
 30
0.0
 40
0.00520833
 41
0.00520833
  0
VERTEX
  8
0
 10
1.55137
 20
3.30322
 30
0.0
 40
0.00520833
 41
0.00520833
  0
SEQEND
 8
0
  0
POLYLINE
  8
0
 62
     253
 66
     1
 10
0
 20
0
 30
0.0
 40
0.375
 41
0.375
  0
VERTEX
  8
0
 10
3.86442
 20
3.35081
 30
0.0
 40
0.00520833
 41
0.00520833
  0
VERTEX
  8
0
 10
1.55137
 20
3.35081
 30
0.0
 40
0.00520833
 41
0.00520833
  0
SEQEND
 8
0
  0
POLYLINE
  8
0
 62
     253
 66
     1
 10
0
 20
0
 30
0.0
 40
0.375
 41
0.375
  0
VERTEX
  8
0
 10
3.86442
 20
3.39833
 30
0.0
 40
0.00520833
 41
0.00520833
  0
VERTEX
  8
0
 10
1.55137
 20
3.39833
 30
0.0
 40
0.00520833
 41
0.00520833
  0
SEQEND
 8
0
  0
POLYLINE
  8
0
 62
     253
 66
     1
 10
0
 20
0
 30
0.0
 40
0.375
 41
0.375
  0
VERTEX
  8
0
 10
3.86442
 20
3.4459
 30
0.0
 40
0.00520833
 41
0.00520833
  0
VERTEX
  8
0
 10
1.55137
 20
3.4459
 30
0.0
 40
0.00520833
 41
0.00520833
  0
SEQEND
 8
0
  0
POLYLINE
  8
0
 62
     253
 66
     1
 10
0
 20
0
 30
0.0
 40
0.375
 41
0.375
  0
VERTEX
  8
0
 10
3.86442
 20
3.49349
 30
0.0
 40
0.00520833
 41
0.00520833
  0
VERTEX
  8
0
 10
1.55137
 20
3.49349
 30
0.0
 40
0.00520833
 41
0.00520833
  0
SEQEND
 8
0
  0
POLYLINE
  8
0
 62
     253
 66
     1
 10
0
 20
0
 30
0.0
 40
0.375
 41
0.375
  0
VERTEX
  8
0
 10
3.86442
 20
3.54101
 30
0.0
 40
0.00520833
 41
0.00520833
  0
VERTEX
  8
0
 10
1.55137
 20
3.54101
 30
0.0
 40
0.00520833
 41
0.00520833
  0
SEQEND
 8
0
  0
POLYLINE
  8
0
 62
     7
 66
     1
 10
0
 20
0
 30
0.0
 70
     1
 40
0
 41
0
  0
VERTEX
  8
0
 10
2.72661
 20
4.06424
 30
0.0
 40
0
 41
0
  0
VERTEX
  8
0
 10
3.86442
 20
4.06424
 30
0.0
 40
0
 41
0
  0
VERTEX
  8
0
 10
3.86442
 20
3.5886
 30
0.0
 40
0
 41
0
  0
VERTEX
  8
0
 10
2.72661
 20
3.5886
 30
0.0
 40
0
 41
0
  0
VERTEX
  8
0
 10
2.72661
 20
4.06424
 30
0.0
 40
0
 41
0
  0
SEQEND
 8
0
  0
POLYLINE
  8
0
 62
     0
 66
     1
 10
0
 20
0
 30
0.0
 70
     1
 40
0.75
 41
0.75
  0
VERTEX
  8
0
 10
2.72661
 20
4.06424
 30
0.0
 40
0.0104167
 41
0.0104167
  0
VERTEX
  8
0
 10
3.86442
 20
4.06424
 30
0.0
 40
0.0104167
 41
0.0104167
  0
VERTEX
  8
0
 10
3.86442
 20
3.5886
 30
0.0
 40
0.0104167
 41
0.0104167
  0
VERTEX
  8
0
 10
2.72661
 20
3.5886
 30
0.0
 40
0.0104167
 41
0.0104167
  0
VERTEX
  8
0
 10
2.72661
 20
4.06424
 30
0.0
 40
0.0104167
 41
0.0104167
  0
SEQEND
 8
0
  0
POLYLINE
  8
0
 62
     253
 66
     1
 10
0
 20
0
 30
0.0
 40
0.375
 41
0.375
  0
VERTEX
  8
0
 10
3.86442
 20
3.63618
 30
0.0
 40
0.00520833
 41
0.00520833
  0
VERTEX
  8
0
 10
2.72667
 20
3.63618
 30
0.0
 40
0.00520833
 41
0.00520833
  0
SEQEND
 8
0
  0
POLYLINE
  8
0
 62
     253
 66
     1
 10
0
 20
0
 30
0.0
 40
0.375
 41
0.375
  0
VERTEX
  8
0
 10
3.86442
 20
3.68371
 30
0.0
 40
0.00520833
 41
0.00520833
  0
VERTEX
  8
0
 10
2.72667
 20
3.68371
 30
0.0
 40
0.00520833
 41
0.00520833
  0
SEQEND
 8
0
  0
POLYLINE
  8
0
 62
     253
 66
     1
 10
0
 20
0
 30
0.0
 40
0.375
 41
0.375
  0
VERTEX
  8
0
 10
3.86442
 20
3.73128
 30
0.0
 40
0.00520833
 41
0.00520833
  0
VERTEX
  8
0
 10
2.72667
 20
3.73128
 30
0.0
 40
0.00520833
 41
0.00520833
  0
SEQEND
 8
0
  0
POLYLINE
  8
0
 62
     253
 66
     1
 10
0
 20
0
 30
0.0
 40
0.375
 41
0.375
  0
VERTEX
  8
0
 10
3.86442
 20
3.77886
 30
0.0
 40
0.00520833
 41
0.00520833
  0
VERTEX
  8
0
 10
2.72667
 20
3.77886
 30
0.0
 40
0.00520833
 41
0.00520833
  0
SEQEND
 8
0
  0
POLYLINE
  8
0
 62
     253
 66
     1
 10
0
 20
0
 30
0.0
 40
0.375
 41
0.375
  0
VERTEX
  8
0
 10
3.86442
 20
3.82639
 30
0.0
 40
0.00520833
 41
0.00520833
  0
VERTEX
  8
0
 10
2.72667
 20
3.82639
 30
0.0
 40
0.00520833
 41
0.00520833
  0
SEQEND
 8
0
  0
POLYLINE
  8
0
 62
     253
 66
     1
 10
0
 20
0
 30
0.0
 40
0.375
 41
0.375
  0
VERTEX
  8
0
 10
3.86442
 20
3.87397
 30
0.0
 40
0.00520833
 41
0.00520833
  0
VERTEX
  8
0
 10
2.72667
 20
3.87397
 30
0.0
 40
0.00520833
 41
0.00520833
  0
SEQEND
 8
0
  0
POLYLINE
  8
0
 62
     253
 66
     1
 10
0
 20
0
 30
0.0
 40
0.375
 41
0.375
  0
VERTEX
  8
0
 10
3.86442
 20
3.92156
 30
0.0
 40
0.00520833
 41
0.00520833
  0
VERTEX
  8
0
 10
2.72667
 20
3.92156
 30
0.0
 40
0.00520833
 41
0.00520833
  0
SEQEND
 8
0
  0
POLYLINE
  8
0
 62
     253
 66
     1
 10
0
 20
0
 30
0.0
 40
0.375
 41
0.375
  0
VERTEX
  8
0
 10
3.86442
 20
3.96907
 30
0.0
 40
0.00520833
 41
0.00520833
  0
VERTEX
  8
0
 10
2.72667
 20
3.96907
 30
0.0
 40
0.00520833
 41
0.00520833
  0
SEQEND
 8
0
  0
POLYLINE
  8
0
 62
     253
 66
     1
 10
0
 20
0
 30
0.0
 40
0.375
 41
0.375
  0
VERTEX
  8
0
 10
3.86442
 20
4.01665
 30
0.0
 40
0.00520833
 41
0.00520833
  0
VERTEX
  8
0
 10
2.72667
 20
4.01665
 30
0.0
 40
0.00520833
 41
0.00520833
  0
SEQEND
 8
0
  0
POLYLINE
  8
0
 62
     7
 66
     1
 10
0
 20
0
 30
0.0
 70
     1
 40
0
 41
0
  0
VERTEX
  8
0
 10
1.78108
 20
4.52214
 30
0.0
 40
0
 41
0
  0
VERTEX
  8
0
 10
2.22325
 20
4.52214
 30
0.0
 40
0
 41
0
  0
VERTEX
  8
0
 10
2.22325
 20
3.86421
 30
0.0
 40
0
 41
0
  0
VERTEX
  8
0
 10
1.78108
 20
3.86421
 30
0.0
 40
0
 41
0
  0
VERTEX
  8
0
 10
1.78108
 20
4.52214
 30
0.0
 40
0
 41
0
  0
SEQEND
 8
0
  0
POLYLINE
  8
0
 62
     0
 66
     1
 10
0
 20
0
 30
0.0
 70
     1
 40
0.53055
 41
0.53055
  0
VERTEX
  8
0
 10
1.78108
 20
4.52214
 30
0.0
 40
0.00736875
 41
0.00736875
  0
VERTEX
  8
0
 10
2.22325
 20
4.52214
 30
0.0
 40
0.00736875
 41
0.00736875
  0
VERTEX
  8
0
 10
2.22325
 20
3.86421
 30
0.0
 40
0.00736875
 41
0.00736875
  0
VERTEX
  8
0
 10
1.78108
 20
3.86421
 30
0.0
 40
0.00736875
 41
0.00736875
  0
VERTEX
  8
0
 10
1.78108
 20
4.52214
 30
0.0
 40
0.00736875
 41
0.00736875
  0
SEQEND
 8
0
  0
POLYLINE
  8
0
 62
     0
 66
     1
 10
0
 20
0
 30
0.0
 40
0.53055
 41
0.53055
  0
VERTEX
  8
0
 10
1.78108
 20
3.86421
 30
0.0
 40
0.00736875
 41
0.00736875
  0
VERTEX
  8
0
 10
2.07362
 20
4.19314
 30
0.0
 40
0.00736875
 41
0.00736875
  0
VERTEX
  8
0
 10
1.93881
 20
4.19314
 30
0.0
 40
0.00736875
 41
0.00736875
  0
VERTEX
  8
0
 10
2.22325
 20
4.52214
 30
0.0
 40
0.00736875
 41
0.00736875
  0
SEQEND
 8
0
  0
POLYLINE
  8
0
 62
     0
 66
     1
 10
0
 20
0
 30
0.0
 70
     1
 40
0
 41
0
  0
VERTEX
  8
0
 10
1.60938
 20
7.19288
 30
0.0
 40
0
 41
0
  0
VERTEX
  8
0
 10
1.60938
 20
6.84142
 30
0.0
 40
0
 41
0
  0
VERTEX
  8
0
 10
1.96126
 20
7.19624
 30
0.0
 40
0
 41
0
  0
VERTEX
  8
0
 10
1.60938
 20
7.19288
 30
0.0
 40
0
 41
0
  0
SEQEND
 8
0
  0
POLYLINE
  8
0
 62
     0
 66
     1
 10
0
 20
0
 30
0.0
 70
     1
 40
0
 41
0
  0
VERTEX
  8
0
 10
3.91303
 20
7.19092
 30
0.0
 40
0
 41
0
  0
VERTEX
  8
0
 10
3.91303
 20
6.85124
 30
0.0
 40
0
 41
0
  0
VERTEX
  8
0
 10
3.56967
 20
7.19536
 30
0.0
 40
0
 41
0
  0
VERTEX
  8
0
 10
3.91303
 20
7.19092
 30
0.0
 40
0
 41
0
  0
SEQEND
 8
0
  0
POLYLINE
  8
0
 62
     0
 66
     1
 10
0
 20
0
 30
0.0
 70
     1
 40
0
 41
0
  0
VERTEX
  8
0
 10
3.12603
 20
7.19374
 30
0.0
 40
0
 41
0
  0
VERTEX
  8
0
 10
2.76335
 20
6.8361
 30
0.0
 40
0
 41
0
  0
VERTEX
  8
0
 10
2.40571
 20
7.19624
 30
0.0
 40
0
 41
0
  0
VERTEX
  8
0
 10
3.12603
 20
7.19374
 30
0.0
 40
0
 41
0
  0
SEQEND
 8
0
  0
POLYLINE
  8
0
 62
     0
 66
     1
 10
0
 20
0
 30
0.0
 70
     1
 40
0
 41
0
  0
VERTEX
  8
0
 10
3.868
 20
10.8354
 30
0.0
 40
0
 41
0
  0
VERTEX
  8
0
 10
3.98258
 20
10.8354
 30
0.0
 40
0
 41
0
  0
VERTEX
  8
0
 10
3.98258
 20
7.96213
 30
0.0
 40
0
 41
0
  0
VERTEX
  8
0
 10
3.868
 20
7.96213
 30
0.0
 40
0
 41
0
  0
VERTEX
  8
0
 10
3.868
 20
10.8354
 30
0.0
 40
0
 41
0
  0
SEQEND
 8
0
  0
POLYLINE
  8
0
 62
     0
 66
     1
 10
0
 20
0
 30
0.0
 70
     1
 40
0.15
 41
0.15
  0
VERTEX
  8
0
 10
3.868
 20
10.8354
 30
0.0
 40
0.00208333
 41
0.00208333
  0
VERTEX
  8
0
 10
3.98258
 20
10.8354
 30
0.0
 40
0.00208333
 41
0.00208333
  0
VERTEX
  8
0
 10
3.98258
 20
7.96213
 30
0.0
 40
0.00208333
 41
0.00208333
  0
VERTEX
  8
0
 10
3.868
 20
7.96213
 30
0.0
 40
0.00208333
 41
0.00208333
  0
VERTEX
  8
0
 10
3.868
 20
10.8354
 30
0.0
 40
0.00208333
 41
0.00208333
  0
SEQEND
 8
0
  0
POLYLINE
  8
0
 62
     7
 66
     1
 10
0
 20
0
 30
0.0
 70
     1
 40
0
 41
0
  0
VERTEX
  8
0
 10
3.868
 20
10.3024
 30
0.0
 40
0
 41
0
  0
VERTEX
  8
0
 10
3.98258
 20
10.3024
 30
0.0
 40
0
 41
0
  0
VERTEX
  8
0
 10
3.98258
 20
9.65608
 30
0.0
 40
0
 41
0
  0
VERTEX
  8
0
 10
3.868
 20
9.65608
 30
0.0
 40
0
 41
0
  0
VERTEX
  8
0
 10
3.868
 20
10.3024
 30
0.0
 40
0
 41
0
  0
SEQEND
 8
0
  0
POLYLINE
  8
0
 62
     0
 66
     1
 10
0
 20
0
 30
0.0
 70
     1
 40
0.75
 41
0.75
  0
VERTEX
  8
0
 10
3.868
 20
10.3024
 30
0.0
 40
0.0104167
 41
0.0104167
  0
VERTEX
  8
0
 10
3.98258
 20
10.3024
 30
0.0
 40
0.0104167
 41
0.0104167
  0
VERTEX
  8
0
 10
3.98258
 20
9.65608
 30
0.0
 40
0.0104167
 41
0.0104167
  0
VERTEX
  8
0
 10
3.868
 20
9.65608
 30
0.0
 40
0.0104167
 41
0.0104167
  0
VERTEX
  8
0
 10
3.868
 20
10.3024
 30
0.0
 40
0.0104167
 41
0.0104167
  0
SEQEND
 8
0
  0
POLYLINE
  8
0
 62
     7
 66
     1
 10
0
 20
0
 30
0.0
 70
     1
 40
0
 41
0
  0
VERTEX
  8
0
 10
3.868
 20
10.3024
 30
0.0
 40
0
 41
0
  0
VERTEX
  8
0
 10
3.98258
 20
10.3024
 30
0.0
 40
0
 41
0
  0
VERTEX
  8
0
 10
3.98258
 20
9.65608
 30
0.0
 40
0
 41
0
  0
VERTEX
  8
0
 10
3.868
 20
9.65608
 30
0.0
 40
0
 41
0
  0
VERTEX
  8
0
 10
3.868
 20
10.3024
 30
0.0
 40
0
 41
0
  0
SEQEND
 8
0
  0
POLYLINE
  8
0
 62
     0
 66
     1
 10
0
 20
0
 30
0.0
 70
     1
 40
0.75
 41
0.75
  0
VERTEX
  8
0
 10
3.868
 20
10.3024
 30
0.0
 40
0.0104167
 41
0.0104167
  0
VERTEX
  8
0
 10
3.98258
 20
10.3024
 30
0.0
 40
0.0104167
 41
0.0104167
  0
VERTEX
  8
0
 10
3.98258
 20
9.65608
 30
0.0
 40
0.0104167
 41
0.0104167
  0
VERTEX
  8
0
 10
3.868
 20
9.65608
 30
0.0
 40
0.0104167
 41
0.0104167
  0
VERTEX
  8
0
 10
3.868
 20
10.3024
 30
0.0
 40
0.0104167
 41
0.0104167
  0
SEQEND
 8
0
  0
POLYLINE
  8
0
 62
     0
 66
     1
 10
0
 20
0
 30
0.0
 70
     1
 40
0.75
 41
0.75
  0
VERTEX
  8
0
 10
3.98258
 20
9.65608
 30
0.0
 40
0.0104167
 41
0.0104167
  0
VERTEX
  8
0
 10
4.0204
 20
9.65608
 30
0.0
 40
0.0104167
 41
0.0104167
  0
VERTEX
  8
0
 10
4.134
 20
9.66624
 30
0.0
 40
0.0104167
 41
0.0104167
  0
VERTEX
  8
0
 10
4.26525
 20
9.6965
 30
0.0
 40
0.0104167
 41
0.0104167
  0
VERTEX
  8
0
 10
4.37631
 20
9.74696
 30
0.0
 40
0.0104167
 41
0.0104167
  0
VERTEX
  8
0
 10
4.46718
 20
9.81765
 30
0.0
 40
0.0104167
 41
0.0104167
  0
VERTEX
  8
0
 10
4.53787
 20
9.90853
 30
0.0
 40
0.0104167
 41
0.0104167
  0
VERTEX
  8
0
 10
4.58832
 20
10.0196
 30
0.0
 40
0.0104167
 41
0.0104167
  0
VERTEX
  8
0
 10
4.6186
 20
10.1508
 30
0.0
 40
0.0104167
 41
0.0104167
  0
VERTEX
  8
0
 10
4.62875
 20
10.2644
 30
0.0
 40
0.0104167
 41
0.0104167
  0
VERTEX
  8
0
 10
4.62875
 20
10.3023
 30
0.0
 40
0.0104167
 41
0.0104167
  0
VERTEX
  8
0
 10
3.98258
 20
10.3023
 30
0.0
 40
0.0104167
 41
0.0104167
  0
VERTEX
  8
0
 10
3.98258
 20
9.65608
 30
0.0
 40
0.0104167
 41
0.0104167
  0
SEQEND
 8
0
  0
POLYLINE
  8
0
 62
     7
 66
     1
 10
0
 20
0
 30
0.0
 70
     1
 40
0
 41
0
  0
VERTEX
  8
0
 10
3.868
 20
8.62131
 30
0.0
 40
0
 41
0
  0
VERTEX
  8
0
 10
3.98258
 20
8.62131
 30
0.0
 40
0
 41
0
  0
VERTEX
  8
0
 10
3.98258
 20
7.98942
 30
0.0
 40
0
 41
0
  0
VERTEX
  8
0
 10
3.868
 20
7.98942
 30
0.0
 40
0
 41
0
  0
VERTEX
  8
0
 10
3.868
 20
8.62131
 30
0.0
 40
0
 41
0
  0
SEQEND
 8
0
  0
POLYLINE
  8
0
 62
     0
 66
     1
 10
0
 20
0
 30
0.0
 70
     1
 40
0.75
 41
0.75
  0
VERTEX
  8
0
 10
3.868
 20
8.62131
 30
0.0
 40
0.0104167
 41
0.0104167
  0
VERTEX
  8
0
 10
3.98258
 20
8.62131
 30
0.0
 40
0.0104167
 41
0.0104167
  0
VERTEX
  8
0
 10
3.98258
 20
7.98942
 30
0.0
 40
0.0104167
 41
0.0104167
  0
VERTEX
  8
0
 10
3.868
 20
7.98942
 30
0.0
 40
0.0104167
 41
0.0104167
  0
VERTEX
  8
0
 10
3.868
 20
8.62131
 30
0.0
 40
0.0104167
 41
0.0104167
  0
SEQEND
 8
0
  0
POLYLINE
  8
0
 62
     7
 66
     1
 10
0
 20
0
 30
0.0
 70
     1
 40
0
 41
0
  0
VERTEX
  8
0
 10
3.868
 20
8.62131
 30
0.0
 40
0
 41
0
  0
VERTEX
  8
0
 10
3.98258
 20
8.62131
 30
0.0
 40
0
 41
0
  0
VERTEX
  8
0
 10
3.98258
 20
7.98942
 30
0.0
 40
0
 41
0
  0
VERTEX
  8
0
 10
3.868
 20
7.98942
 30
0.0
 40
0
 41
0
  0
VERTEX
  8
0
 10
3.868
 20
8.62131
 30
0.0
 40
0
 41
0
  0
SEQEND
 8
0
  0
POLYLINE
  8
0
 62
     0
 66
     1
 10
0
 20
0
 30
0.0
 70
     1
 40
0.75
 41
0.75
  0
VERTEX
  8
0
 10
3.868
 20
8.62131
 30
0.0
 40
0.0104167
 41
0.0104167
  0
VERTEX
  8
0
 10
3.98258
 20
8.62131
 30
0.0
 40
0.0104167
 41
0.0104167
  0
VERTEX
  8
0
 10
3.98258
 20
7.98942
 30
0.0
 40
0.0104167
 41
0.0104167
  0
VERTEX
  8
0
 10
3.868
 20
7.98942
 30
0.0
 40
0.0104167
 41
0.0104167
  0
VERTEX
  8
0
 10
3.868
 20
8.62131
 30
0.0
 40
0.0104167
 41
0.0104167
  0
SEQEND
 8
0
  0
POLYLINE
  8
0
 62
     0
 66
     1
 10
0
 20
0
 30
0.0
 70
     1
 40
0.75
 41
0.75
  0
VERTEX
  8
0
 10
3.98258
 20
8.62131
 30
0.0
 40
0.0104167
 41
0.0104167
  0
VERTEX
  8
0
 10
4.01958
 20
8.62131
 30
0.0
 40
0.0104167
 41
0.0104167
  0
VERTEX
  8
0
 10
4.13064
 20
8.61149
 30
0.0
 40
0.0104167
 41
0.0104167
  0
VERTEX
  8
0
 10
4.259
 20
8.58188
 30
0.0
 40
0.0104167
 41
0.0104167
  0
VERTEX
  8
0
 10
4.36762
 20
8.5325
 30
0.0
 40
0.0104167
 41
0.0104167
  0
VERTEX
  8
0
 10
4.45649
 20
8.46337
 30
0.0
 40
0.0104167
 41
0.0104167
  0
VERTEX
  8
0
 10
4.52561
 20
8.37451
 30
0.0
 40
0.0104167
 41
0.0104167
  0
VERTEX
  8
0
 10
4.57497
 20
8.2659
 30
0.0
 40
0.0104167
 41
0.0104167
  0
VERTEX
  8
0
 10
4.6046
 20
8.13753
 30
0.0
 40
0.0104167
 41
0.0104167
  0
VERTEX
  8
0
 10
4.61447
 20
8.02647
 30
0.0
 40
0.0104167
 41
0.0104167
  0
VERTEX
  8
0
 10
4.61447
 20
7.98942
 30
0.0
 40
0.0104167
 41
0.0104167
  0
VERTEX
  8
0
 10
3.98258
 20
7.98942
 30
0.0
 40
0.0104167
 41
0.0104167
  0
VERTEX
  8
0
 10
3.98258
 20
8.62131
 30
0.0
 40
0.0104167
 41
0.0104167
  0
SEQEND
 8
0
  0
POLYLINE
  8
0
 62
     0
 66
     1
 10
0
 20
0
 30
0.0
 70
     1
 40
0
 41
0
  0
VERTEX
  8
0
 10
1.53054
 20
9.11838
 30
0.0
 40
0
 41
0
  0
VERTEX
  8
0
 10
3.868
 20
9.11838
 30
0.0
 40
0
 41
0
  0
VERTEX
  8
0
 10
3.868
 20
9.00379
 30
0.0
 40
0
 41
0
  0
VERTEX
  8
0
 10
1.53054
 20
9.00379
 30
0.0
 40
0
 41
0
  0
VERTEX
  8
0
 10
1.53054
 20
9.11838
 30
0.0
 40
0
 41
0
  0
SEQEND
 8
0
  0
POLYLINE
  8
0
 62
     0
 66
     1
 10
0
 20
0
 30
0.0
 70
     1
 40
0.15
 41
0.15
  0
VERTEX
  8
0
 10
1.53054
 20
9.11838
 30
0.0
 40
0.00208333
 41
0.00208333
  0
VERTEX
  8
0
 10
3.868
 20
9.11838
 30
0.0
 40
0.00208333
 41
0.00208333
  0
VERTEX
  8
0
 10
3.868
 20
9.00379
 30
0.0
 40
0.00208333
 41
0.00208333
  0
VERTEX
  8
0
 10
1.53054
 20
9.00379
 30
0.0
 40
0.00208333
 41
0.00208333
  0
VERTEX
  8
0
 10
1.53054
 20
9.11838
 30
0.0
 40
0.00208333
 41
0.00208333
  0
SEQEND
 8
0
  0
POLYLINE
  8
0
 62
     7
 66
     1
 10
0
 20
0
 30
0.0
 70
     1
 40
0
 41
0
  0
VERTEX
  8
0
 10
1.53168
 20
10.8354
 30
0.0
 40
0
 41
0
  0
VERTEX
  8
0
 10
2.18896
 20
10.8354
 30
0.0
 40
0
 41
0
  0
VERTEX
  8
0
 10
2.18896
 20
9.11897
 30
0.0
 40
0
 41
0
  0
VERTEX
  8
0
 10
1.53168
 20
9.11897
 30
0.0
 40
0
 41
0
  0
VERTEX
  8
0
 10
1.53168
 20
10.8354
 30
0.0
 40
0
 41
0
  0
SEQEND
 8
0
  0
POLYLINE
  8
0
 62
     0
 66
     1
 10
0
 20
0
 30
0.0
 70
     1
 40
0.75
 41
0.75
  0
VERTEX
  8
0
 10
1.53168
 20
10.8354
 30
0.0
 40
0.0104167
 41
0.0104167
  0
VERTEX
  8
0
 10
1.53168
 20
9.11897
 30
0.0
 40
0.0104167
 41
0.0104167
  0
VERTEX
  8
0
 10
2.18896
 20
9.11897
 30
0.0
 40
0.0104167
 41
0.0104167
  0
VERTEX
  8
0
 10
2.18896
 20
10.8354
 30
0.0
 40
0.0104167
 41
0.0104167
  0
VERTEX
  8
0
 10
1.53168
 20
10.8354
 30
0.0
 40
0.0104167
 41
0.0104167
  0
SEQEND
 8
0
  0
POLYLINE
  8
0
 62
     253
 66
     1
 10
0
 20
0
 30
0.0
 40
0.75
 41
0.75
  0
VERTEX
  8
0
 10
1.86029
 20
9.11897
 30
0.0
 40
0.0104167
 41
0.0104167
  0
VERTEX
  8
0
 10
1.86029
 20
10.8354
 30
0.0
 40
0.0104167
 41
0.0104167
  0
SEQEND
 8
0
  0
POLYLINE
  8
0
 62
     7
 66
     1
 10
0
 20
0
 30
0.0
 70
     1
 40
0
 41
0
  0
VERTEX
  8
0
 10
2.18892
 20
9.48247
 30
0.0
 40
0
 41
0
  0
VERTEX
  8
0
 10
3.868
 20
9.48247
 30
0.0
 40
0
 41
0
  0
VERTEX
  8
0
 10
3.868
 20
9.11957
 30
0.0
 40
0
 41
0
  0
VERTEX
  8
0
 10
2.18892
 20
9.11957
 30
0.0
 40
0
 41
0
  0
VERTEX
  8
0
 10
2.18892
 20
9.48247
 30
0.0
 40
0
 41
0
  0
SEQEND
 8
0
  0
POLYLINE
  8
0
 62
     0
 66
     1
 10
0
 20
0
 30
0.0
 70
     1
 40
0.75
 41
0.75
  0
VERTEX
  8
0
 10
2.18892
 20
9.48247
 30
0.0
 40
0.0104167
 41
0.0104167
  0
VERTEX
  8
0
 10
3.868
 20
9.48247
 30
0.0
 40
0.0104167
 41
0.0104167
  0
VERTEX
  8
0
 10
3.868
 20
9.11957
 30
0.0
 40
0.0104167
 41
0.0104167
  0
VERTEX
  8
0
 10
2.18892
 20
9.11957
 30
0.0
 40
0.0104167
 41
0.0104167
  0
VERTEX
  8
0
 10
2.18892
 20
9.48247
 30
0.0
 40
0.0104167
 41
0.0104167
  0
SEQEND
 8
0
  0
POLYLINE
  8
0
 62
     7
 66
     1
 10
0
 20
0
 30
0.0
 70
     1
 40
0
 41
0
  0
VERTEX
  8
0
 10
2.18892
 20
10.8343
 30
0.0
 40
0
 41
0
  0
VERTEX
  8
0
 10
3.868
 20
10.8343
 30
0.0
 40
0
 41
0
  0
VERTEX
  8
0
 10
3.868
 20
10.4183
 30
0.0
 40
0
 41
0
  0
VERTEX
  8
0
 10
2.18892
 20
10.4183
 30
0.0
 40
0
 41
0
  0
VERTEX
  8
0
 10
2.18892
 20
10.8343
 30
0.0
 40
0
 41
0
  0
SEQEND
 8
0
  0
POLYLINE
  8
0
 62
     0
 66
     1
 10
0
 20
0
 30
0.0
 70
     1
 40
0.75
 41
0.75
  0
VERTEX
  8
0
 10
2.18892
 20
10.8343
 30
0.0
 40
0.0104167
 41
0.0104167
  0
VERTEX
  8
0
 10
3.868
 20
10.8343
 30
0.0
 40
0.0104167
 41
0.0104167
  0
VERTEX
  8
0
 10
3.868
 20
10.4183
 30
0.0
 40
0.0104167
 41
0.0104167
  0
VERTEX
  8
0
 10
2.18892
 20
10.4183
 30
0.0
 40
0.0104167
 41
0.0104167
  0
VERTEX
  8
0
 10
2.18892
 20
10.8343
 30
0.0
 40
0.0104167
 41
0.0104167
  0
SEQEND
 8
0
  0
POLYLINE
  8
0
 62
     7
 66
     1
 10
0
 20
0
 30
0.0
 70
     1
 40
0
 41
0
  0
VERTEX
  8
0
 10
1.53088
 20
9.00379
 30
0.0
 40
0
 41
0
  0
VERTEX
  8
0
 10
2.18815
 20
9.00379
 30
0.0
 40
0
 41
0
  0
VERTEX
  8
0
 10
2.18815
 20
7.30632
 30
0.0
 40
0
 41
0
  0
VERTEX
  8
0
 10
1.53088
 20
7.30632
 30
0.0
 40
0
 41
0
  0
VERTEX
  8
0
 10
1.53088
 20
9.00379
 30
0.0
 40
0
 41
0
  0
SEQEND
 8
0
  0
POLYLINE
  8
0
 62
     0
 66
     1
 10
0
 20
0
 30
0.0
 70
     1
 40
0.75
 41
0.75
  0
VERTEX
  8
0
 10
1.53088
 20
9.00379
 30
0.0
 40
0.0104167
 41
0.0104167
  0
VERTEX
  8
0
 10
1.53088
 20
7.30632
 30
0.0
 40
0.0104167
 41
0.0104167
  0
VERTEX
  8
0
 10
2.18815
 20
7.30632
 30
0.0
 40
0.0104167
 41
0.0104167
  0
VERTEX
  8
0
 10
2.18815
 20
9.00379
 30
0.0
 40
0.0104167
 41
0.0104167
  0
VERTEX
  8
0
 10
1.53088
 20
9.00379
 30
0.0
 40
0.0104167
 41
0.0104167
  0
SEQEND
 8
0
  0
POLYLINE
  8
0
 62
     253
 66
     1
 10
0
 20
0
 30
0.0
 40
0.75
 41
0.75
  0
VERTEX
  8
0
 10
1.85949
 20
7.30632
 30
0.0
 40
0.0104167
 41
0.0104167
  0
VERTEX
  8
0
 10
1.85949
 20
9.00385
 30
0.0
 40
0.0104167
 41
0.0104167
  0
SEQEND
 8
0
  0
POLYLINE
  8
0
 62
     7
 66
     1
 10
0
 20
0
 30
0.0
 70
     1
 40
0
 41
0
  0
VERTEX
  8
0
 10
2.18896
 20
9.00353
 30
0.0
 40
0
 41
0
  0
VERTEX
  8
0
 10
3.86806
 20
9.00353
 30
0.0
 40
0
 41
0
  0
VERTEX
  8
0
 10
3.86806
 20
8.68853
 30
0.0
 40
0
 41
0
  0
VERTEX
  8
0
 10
2.18896
 20
8.68853
 30
0.0
 40
0
 41
0
  0
VERTEX
  8
0
 10
2.18896
 20
9.00353
 30
0.0
 40
0
 41
0
  0
SEQEND
 8
0
  0
POLYLINE
  8
0
 62
     0
 66
     1
 10
0
 20
0
 30
0.0
 70
     1
 40
0.75
 41
0.75
  0
VERTEX
  8
0
 10
2.18896
 20
9.00353
 30
0.0
 40
0.0104167
 41
0.0104167
  0
VERTEX
  8
0
 10
3.86806
 20
9.00353
 30
0.0
 40
0.0104167
 41
0.0104167
  0
VERTEX
  8
0
 10
3.86806
 20
8.68853
 30
0.0
 40
0.0104167
 41
0.0104167
  0
VERTEX
  8
0
 10
2.18896
 20
8.68853
 30
0.0
 40
0.0104167
 41
0.0104167
  0
VERTEX
  8
0
 10
2.18896
 20
9.00353
 30
0.0
 40
0.0104167
 41
0.0104167
  0
SEQEND
 8
0
  0
POLYLINE
  8
0
 62
     7
 66
     1
 10
0
 20
0
 30
0.0
 70
     1
 40
0
 41
0
  0
VERTEX
  8
0
 10
2.18853
 20
7.65201
 30
0.0
 40
0
 41
0
  0
VERTEX
  8
0
 10
3.91303
 20
7.65201
 30
0.0
 40
0
 41
0
  0
VERTEX
  8
0
 10
3.91303
 20
7.30578
 30
0.0
 40
0
 41
0
  0
VERTEX
  8
0
 10
2.18853
 20
7.30578
 30
0.0
 40
0
 41
0
  0
VERTEX
  8
0
 10
2.18853
 20
7.65201
 30
0.0
 40
0
 41
0
  0
SEQEND
 8
0
  0
POLYLINE
  8
0
 62
     0
 66
     1
 10
0
 20
0
 30
0.0
 70
     1
 40
0.75
 41
0.75
  0
VERTEX
  8
0
 10
2.18853
 20
7.65201
 30
0.0
 40
0.0104167
 41
0.0104167
  0
VERTEX
  8
0
 10
3.91303
 20
7.65201
 30
0.0
 40
0.0104167
 41
0.0104167
  0
VERTEX
  8
0
 10
3.91303
 20
7.30578
 30
0.0
 40
0.0104167
 41
0.0104167
  0
VERTEX
  8
0
 10
2.18853
 20
7.30578
 30
0.0
 40
0.0104167
 41
0.0104167
  0
VERTEX
  8
0
 10
2.18853
 20
7.65201
 30
0.0
 40
0.0104167
 41
0.0104167
  0
SEQEND
 8
0
  0
POLYLINE
  8
0
 62
     7
 66
     1
 10
0
 20
0
 30
0.0
 70
     1
 40
0
 41
0
  0
VERTEX
  8
0
 10
8.57611
 20
3.04015
 30
0.0
 40
0
 41
0
  0
VERTEX
  8
0
 10
9.20111
 20
3.04015
 30
0.0
 40
0
 41
0
  0
VERTEX
  8
0
 10
9.20111
 20
2.39828
 30
0.0
 40
0
 41
0
  0
VERTEX
  8
0
 10
8.57611
 20
2.39828
 30
0.0
 40
0
 41
0
  0
VERTEX
  8
0
 10
8.57611
 20
3.04015
 30
0.0
 40
0
 41
0
  0
SEQEND
 8
0
  0
POLYLINE
  8
0
 62
     0
 66
     1
 10
0
 20
0
 30
0.0
 70
     1
 40
0.75
 41
0.75
  0
VERTEX
  8
0
 10
8.57611
 20
3.04015
 30
0.0
 40
0.0104167
 41
0.0104167
  0
VERTEX
  8
0
 10
8.57611
 20
2.39828
 30
0.0
 40
0.0104167
 41
0.0104167
  0
VERTEX
  8
0
 10
9.20111
 20
2.39828
 30
0.0
 40
0.0104167
 41
0.0104167
  0
VERTEX
  8
0
 10
9.20111
 20
3.04015
 30
0.0
 40
0.0104167
 41
0.0104167
  0
VERTEX
  8
0
 10
8.57611
 20
3.04015
 30
0.0
 40
0.0104167
 41
0.0104167
  0
SEQEND
 8
0
  0
POLYLINE
  8
0
 62
     7
 66
     1
 10
0
 20
0
 30
0.0
 70
     1
 40
0
 41
0
  0
VERTEX
  8
0
 10
8.57726
 20
3.69125
 30
0.0
 40
0
 41
0
  0
VERTEX
  8
0
 10
9.20226
 20
3.69125
 30
0.0
 40
0
 41
0
  0
VERTEX
  8
0
 10
9.20226
 20
3.04015
 30
0.0
 40
0
 41
0
  0
VERTEX
  8
0
 10
8.57726
 20
3.04015
 30
0.0
 40
0
 41
0
  0
VERTEX
  8
0
 10
8.57726
 20
3.69125
 30
0.0
 40
0
 41
0
  0
SEQEND
 8
0
  0
POLYLINE
  8
0
 62
     0
 66
     1
 10
0
 20
0
 30
0.0
 70
     1
 40
0.78135
 41
0.78135
  0
VERTEX
  8
0
 10
8.57726
 20
3.69125
 30
0.0
 40
0.0108521
 41
0.0108521
  0
VERTEX
  8
0
 10
8.57726
 20
3.04015
 30
0.0
 40
0.0108521
 41
0.0108521
  0
VERTEX
  8
0
 10
9.20226
 20
3.04015
 30
0.0
 40
0.0108521
 41
0.0108521
  0
VERTEX
  8
0
 10
9.20226
 20
3.69125
 30
0.0
 40
0.0108521
 41
0.0108521
  0
VERTEX
  8
0
 10
8.57726
 20
3.69125
 30
0.0
 40
0.0108521
 41
0.0108521
  0
SEQEND
 8
0
  0
POLYLINE
  8
0
 62
     0
 66
     1
 10
0
 20
0
 30
0.0
 40
0.78135
 41
0.78135
  0
VERTEX
  8
0
 10
9.20226
 20
3.69125
 30
0.0
 40
0.0108521
 41
0.0108521
  0
VERTEX
  8
0
 10
8.78765
 20
3.36464
 30
0.0
 40
0.0108521
 41
0.0108521
  0
VERTEX
  8
0
 10
9.00017
 20
3.36464
 30
0.0
 40
0.0108521
 41
0.0108521
  0
VERTEX
  8
0
 10
8.57726
 20
3.04124
 30
0.0
 40
0.0108521
 41
0.0108521
  0
SEQEND
 8
0
  0
POLYLINE
  8
0
 62
     7
 66
     1
 10
0
 20
0
 30
0.0
 70
     1
 40
0
 41
0
  0
VERTEX
  8
0
 10
8.57676
 20
5.5549
 30
0.0
 40
0
 41
0
  0
VERTEX
  8
0
 10
9.20176
 20
5.5549
 30
0.0
 40
0
 41
0
  0
VERTEX
  8
0
 10
9.20176
 20
3.69125
 30
0.0
 40
0
 41
0
  0
VERTEX
  8
0
 10
8.57676
 20
3.69125
 30
0.0
 40
0
 41
0
  0
VERTEX
  8
0
 10
8.57676
 20
5.5549
 30
0.0
 40
0
 41
0
  0
SEQEND
 8
0
  0
POLYLINE
  8
0
 62
     0
 66
     1
 10
0
 20
0
 30
0.0
 70
     1
 40
0.75
 41
0.75
  0
VERTEX
  8
0
 10
8.57676
 20
5.5549
 30
0.0
 40
0.0104167
 41
0.0104167
  0
VERTEX
  8
0
 10
8.57676
 20
3.69125
 30
0.0
 40
0.0104167
 41
0.0104167
  0
VERTEX
  8
0
 10
9.20176
 20
3.69125
 30
0.0
 40
0.0104167
 41
0.0104167
  0
VERTEX
  8
0
 10
9.20176
 20
5.5549
 30
0.0
 40
0.0104167
 41
0.0104167
  0
VERTEX
  8
0
 10
8.57676
 20
5.5549
 30
0.0
 40
0.0104167
 41
0.0104167
  0
SEQEND
 8
0
  0
POLYLINE
  8
0
 62
     7
 66
     1
 10
0
 20
0
 30
0.0
 70
     1
 40
0
 41
0
  0
VERTEX
  8
0
 10
8.66868
 20
5.18951
 30
0.0
 40
0
 41
0
  0
VERTEX
  8
0
 10
9.08681
 20
5.18951
 30
0.0
 40
0
 41
0
  0
VERTEX
  8
0
 10
9.08681
 20
4.81222
 30
0.0
 40
0
 41
0
  0
VERTEX
  8
0
 10
8.66868
 20
4.81222
 30
0.0
 40
0
 41
0
  0
VERTEX
  8
0
 10
8.66868
 20
5.18951
 30
0.0
 40
0
 41
0
  0
SEQEND
 8
0
  0
POLYLINE
  8
0
 62
     0
 66
     1
 10
0
 20
0
 30
0.0
 70
     1
 40
0.75
 41
0.75
  0
VERTEX
  8
0
 10
8.66868
 20
5.18951
 30
0.0
 40
0.0104167
 41
0.0104167
  0
VERTEX
  8
0
 10
8.66868
 20
4.81222
 30
0.0
 40
0.0104167
 41
0.0104167
  0
VERTEX
  8
0
 10
9.08681
 20
4.81222
 30
0.0
 40
0.0104167
 41
0.0104167
  0
VERTEX
  8
0
 10
9.08681
 20
5.18951
 30
0.0
 40
0.0104167
 41
0.0104167
  0
VERTEX
  8
0
 10
8.66868
 20
5.18951
 30
0.0
 40
0.0104167
 41
0.0104167
  0
SEQEND
 8
0
  0
POLYLINE
  8
0
 62
     7
 66
     1
 10
0
 20
0
 30
0.0
 70
     1
 40
0
 41
0
  0
VERTEX
  8
0
 10
8.88222
 20
4.96442
 30
0.0
 40
0
 41
0
  0
VERTEX
  8
0
 10
8.87576
 20
4.96442
 30
0.0
 40
0
 41
0
  0
VERTEX
  8
0
 10
8.85639
 20
4.9751
 30
0.0
 40
0
 41
0
  0
VERTEX
  8
0
 10
8.84576
 20
4.99447
 30
0.0
 40
0
 41
0
  0
VERTEX
  8
0
 10
8.84576
 20
5.00087
 30
0.0
 40
0
 41
0
  0
VERTEX
  8
0
 10
8.84576
 20
5.00732
 30
0.0
 40
0
 41
0
  0
VERTEX
  8
0
 10
8.85639
 20
5.02669
 30
0.0
 40
0
 41
0
  0
VERTEX
  8
0
 10
8.87576
 20
5.03733
 30
0.0
 40
0
 41
0
  0
VERTEX
  8
0
 10
8.88222
 20
5.03733
 30
0.0
 40
0
 41
0
  0
VERTEX
  8
0
 10
8.88861
 20
5.03733
 30
0.0
 40
0
 41
0
  0
VERTEX
  8
0
 10
8.90799
 20
5.02669
 30
0.0
 40
0
 41
0
  0
VERTEX
  8
0
 10
8.91868
 20
5.00732
 30
0.0
 40
0
 41
0
  0
VERTEX
  8
0
 10
8.91868
 20
5.00087
 30
0.0
 40
0
 41
0
  0
VERTEX
  8
0
 10
8.91868
 20
4.99447
 30
0.0
 40
0
 41
0
  0
VERTEX
  8
0
 10
8.90799
 20
4.9751
 30
0.0
 40
0
 41
0
  0
VERTEX
  8
0
 10
8.88861
 20
4.96442
 30
0.0
 40
0
 41
0
  0
VERTEX
  8
0
 10
8.88222
 20
4.96442
 30
0.0
 40
0
 41
0
  0
SEQEND
 8
0
  0
POLYLINE
  8
0
 62
     0
 66
     1
 10
0
 20
0
 30
0.0
 70
     1
 40
0.6
 41
0.6
  0
VERTEX
  8
0
 10
8.88222
 20
4.96442
 30
0.0
 40
0.00833333
 41
0.00833333
  0
VERTEX
  8
0
 10
8.87576
 20
4.96442
 30
0.0
 40
0.00833333
 41
0.00833333
  0
VERTEX
  8
0
 10
8.85639
 20
4.9751
 30
0.0
 40
0.00833333
 41
0.00833333
  0
VERTEX
  8
0
 10
8.84576
 20
4.99447
 30
0.0
 40
0.00833333
 41
0.00833333
  0
VERTEX
  8
0
 10
8.84576
 20
5.00087
 30
0.0
 40
0.00833333
 41
0.00833333
  0
VERTEX
  8
0
 10
8.84576
 20
5.00732
 30
0.0
 40
0.00833333
 41
0.00833333
  0
VERTEX
  8
0
 10
8.85639
 20
5.02669
 30
0.0
 40
0.00833333
 41
0.00833333
  0
VERTEX
  8
0
 10
8.87576
 20
5.03733
 30
0.0
 40
0.00833333
 41
0.00833333
  0
VERTEX
  8
0
 10
8.88222
 20
5.03733
 30
0.0
 40
0.00833333
 41
0.00833333
  0
VERTEX
  8
0
 10
8.88861
 20
5.03733
 30
0.0
 40
0.00833333
 41
0.00833333
  0
VERTEX
  8
0
 10
8.90799
 20
5.02669
 30
0.0
 40
0.00833333
 41
0.00833333
  0
VERTEX
  8
0
 10
8.91868
 20
5.00732
 30
0.0
 40
0.00833333
 41
0.00833333
  0
VERTEX
  8
0
 10
8.91868
 20
5.00087
 30
0.0
 40
0.00833333
 41
0.00833333
  0
VERTEX
  8
0
 10
8.91868
 20
4.99447
 30
0.0
 40
0.00833333
 41
0.00833333
  0
VERTEX
  8
0
 10
8.90799
 20
4.9751
 30
0.0
 40
0.00833333
 41
0.00833333
  0
VERTEX
  8
0
 10
8.88861
 20
4.96442
 30
0.0
 40
0.00833333
 41
0.00833333
  0
VERTEX
  8
0
 10
8.88222
 20
4.96442
 30
0.0
 40
0.00833333
 41
0.00833333
  0
SEQEND
 8
0
  0
POLYLINE
  8
0
 62
     7
 66
     1
 10
0
 20
0
 30
0.0
 70
     1
 40
0
 41
0
  0
VERTEX
  8
0
 10
8.88222
 20
4.98004
 30
0.0
 40
0
 41
0
  0
VERTEX
  8
0
 10
8.87853
 20
4.98004
 30
0.0
 40
0
 41
0
  0
VERTEX
  8
0
 10
8.86746
 20
4.98617
 30
0.0
 40
0
 41
0
  0
VERTEX
  8
0
 10
8.86139
 20
4.99724
 30
0.0
 40
0
 41
0
  0
VERTEX
  8
0
 10
8.86139
 20
5.00087
 30
0.0
 40
0
 41
0
  0
VERTEX
  8
0
 10
8.86139
 20
5.00456
 30
0.0
 40
0
 41
0
  0
VERTEX
  8
0
 10
8.86746
 20
5.01563
 30
0.0
 40
0
 41
0
  0
VERTEX
  8
0
 10
8.87853
 20
5.02171
 30
0.0
 40
0
 41
0
  0
VERTEX
  8
0
 10
8.88222
 20
5.02171
 30
0.0
 40
0
 41
0
  0
VERTEX
  8
0
 10
8.88585
 20
5.02171
 30
0.0
 40
0
 41
0
  0
VERTEX
  8
0
 10
8.89692
 20
5.01563
 30
0.0
 40
0
 41
0
  0
VERTEX
  8
0
 10
8.90306
 20
5.00456
 30
0.0
 40
0
 41
0
  0
VERTEX
  8
0
 10
8.90306
 20
5.00087
 30
0.0
 40
0
 41
0
  0
VERTEX
  8
0
 10
8.90306
 20
4.99724
 30
0.0
 40
0
 41
0
  0
VERTEX
  8
0
 10
8.89692
 20
4.98617
 30
0.0
 40
0
 41
0
  0
VERTEX
  8
0
 10
8.88585
 20
4.98004
 30
0.0
 40
0
 41
0
  0
VERTEX
  8
0
 10
8.88222
 20
4.98004
 30
0.0
 40
0
 41
0
  0
SEQEND
 8
0
  0
POLYLINE
  8
0
 62
     0
 66
     1
 10
0
 20
0
 30
0.0
 70
     1
 40
0.6
 41
0.6
  0
VERTEX
  8
0
 10
8.88222
 20
4.98004
 30
0.0
 40
0.00833333
 41
0.00833333
  0
VERTEX
  8
0
 10
8.87853
 20
4.98004
 30
0.0
 40
0.00833333
 41
0.00833333
  0
VERTEX
  8
0
 10
8.86746
 20
4.98617
 30
0.0
 40
0.00833333
 41
0.00833333
  0
VERTEX
  8
0
 10
8.86139
 20
4.99724
 30
0.0
 40
0.00833333
 41
0.00833333
  0
VERTEX
  8
0
 10
8.86139
 20
5.00087
 30
0.0
 40
0.00833333
 41
0.00833333
  0
VERTEX
  8
0
 10
8.86139
 20
5.00456
 30
0.0
 40
0.00833333
 41
0.00833333
  0
VERTEX
  8
0
 10
8.86746
 20
5.01563
 30
0.0
 40
0.00833333
 41
0.00833333
  0
VERTEX
  8
0
 10
8.87853
 20
5.02171
 30
0.0
 40
0.00833333
 41
0.00833333
  0
VERTEX
  8
0
 10
8.88222
 20
5.02171
 30
0.0
 40
0.00833333
 41
0.00833333
  0
VERTEX
  8
0
 10
8.88585
 20
5.02171
 30
0.0
 40
0.00833333
 41
0.00833333
  0
VERTEX
  8
0
 10
8.89692
 20
5.01563
 30
0.0
 40
0.00833333
 41
0.00833333
  0
VERTEX
  8
0
 10
8.90306
 20
5.00456
 30
0.0
 40
0.00833333
 41
0.00833333
  0
VERTEX
  8
0
 10
8.90306
 20
5.00087
 30
0.0
 40
0.00833333
 41
0.00833333
  0
VERTEX
  8
0
 10
8.90306
 20
4.99724
 30
0.0
 40
0.00833333
 41
0.00833333
  0
VERTEX
  8
0
 10
8.89692
 20
4.98617
 30
0.0
 40
0.00833333
 41
0.00833333
  0
VERTEX
  8
0
 10
8.88585
 20
4.98004
 30
0.0
 40
0.00833333
 41
0.00833333
  0
VERTEX
  8
0
 10
8.88222
 20
4.98004
 30
0.0
 40
0.00833333
 41
0.00833333
  0
SEQEND
 8
0
  0
POLYLINE
  8
0
 62
     7
 66
     1
 10
0
 20
0
 30
0.0
 70
     1
 40
0
 41
0
  0
VERTEX
  8
0
 10
8.99451
 20
5.02349
 30
0.0
 40
0
 41
0
  0
VERTEX
  8
0
 10
9.14035
 20
5.02349
 30
0.0
 40
0
 41
0
  0
VERTEX
  8
0
 10
9.14035
 20
4.96099
 30
0.0
 40
0
 41
0
  0
VERTEX
  8
0
 10
8.99451
 20
4.96099
 30
0.0
 40
0
 41
0
  0
VERTEX
  8
0
 10
8.99451
 20
5.02349
 30
0.0
 40
0
 41
0
  0
SEQEND
 8
0
  0
POLYLINE
  8
0
 62
     0
 66
     1
 10
0
 20
0
 30
0.0
 70
     1
 40
0.75
 41
0.75
  0
VERTEX
  8
0
 10
8.99451
 20
5.02349
 30
0.0
 40
0.0104167
 41
0.0104167
  0
VERTEX
  8
0
 10
8.99451
 20
4.96099
 30
0.0
 40
0.0104167
 41
0.0104167
  0
VERTEX
  8
0
 10
9.14035
 20
4.96099
 30
0.0
 40
0.0104167
 41
0.0104167
  0
VERTEX
  8
0
 10
9.14035
 20
5.02349
 30
0.0
 40
0.0104167
 41
0.0104167
  0
VERTEX
  8
0
 10
8.99451
 20
5.02349
 30
0.0
 40
0.0104167
 41
0.0104167
  0
SEQEND
 8
0
  0
POLYLINE
  8
0
 62
     7
 66
     1
 10
0
 20
0
 30
0.0
 70
     1
 40
0
 41
0
  0
VERTEX
  8
0
 10
8.57676
 20
4.33886
 30
0.0
 40
0
 41
0
  0
VERTEX
  8
0
 10
9.20176
 20
4.33886
 30
0.0
 40
0
 41
0
  0
VERTEX
  8
0
 10
9.20176
 20
3.69125
 30
0.0
 40
0
 41
0
  0
VERTEX
  8
0
 10
8.57676
 20
3.69125
 30
0.0
 40
0
 41
0
  0
VERTEX
  8
0
 10
8.57676
 20
4.33886
 30
0.0
 40
0
 41
0
  0
SEQEND
 8
0
  0
POLYLINE
  8
0
 62
     0
 66
     1
 10
0
 20
0
 30
0.0
 70
     1
 40
0.77715
 41
0.77715
  0
VERTEX
  8
0
 10
8.57676
 20
4.33886
 30
0.0
 40
0.0107937
 41
0.0107937
  0
VERTEX
  8
0
 10
8.57676
 20
3.69125
 30
0.0
 40
0.0107937
 41
0.0107937
  0
VERTEX
  8
0
 10
9.20176
 20
3.69125
 30
0.0
 40
0.0107937
 41
0.0107937
  0
VERTEX
  8
0
 10
9.20176
 20
4.33886
 30
0.0
 40
0.0107937
 41
0.0107937
  0
VERTEX
  8
0
 10
8.57676
 20
4.33886
 30
0.0
 40
0.0107937
 41
0.0107937
  0
SEQEND
 8
0
  0
POLYLINE
  8
0
 62
     0
 66
     1
 10
0
 20
0
 30
0.0
 40
0.77715
 41
0.77715
  0
VERTEX
  8
0
 10
9.20176
 20
4.33886
 30
0.0
 40
0.0107937
 41
0.0107937
  0
VERTEX
  8
0
 10
8.78717
 20
4.014
 30
0.0
 40
0.0107937
 41
0.0107937
  0
VERTEX
  8
0
 10
8.99968
 20
4.014
 30
0.0
 40
0.0107937
 41
0.0107937
  0
VERTEX
  8
0
 10
8.57676
 20
3.69233
 30
0.0
 40
0.0107937
 41
0.0107937
  0
SEQEND
 8
0
  0
POLYLINE
  8
0
 62
     0
 66
     1
 10
0
 20
0
 30
0.0
 70
     1
 40
0.75
 41
0.75
  0
VERTEX
  8
0
 10
8.88926
 20
5.55231
 30
0.0
 40
0.0104167
 41
0.0104167
  0
VERTEX
  8
0
 10
8.88926
 20
3.69125
 30
0.0
 40
0.0104167
 41
0.0104167
  0
VERTEX
  8
0
 10
9.20176
 20
3.69125
 30
0.0
 40
0.0104167
 41
0.0104167
  0
VERTEX
  8
0
 10
9.20176
 20
5.55231
 30
0.0
 40
0.0104167
 41
0.0104167
  0
VERTEX
  8
0
 10
8.88926
 20
5.55231
 30
0.0
 40
0.0104167
 41
0.0104167
  0
SEQEND
 8
0
  0
POLYLINE
  8
0
 62
     7
 66
     1
 10
0
 20
0
 30
0.0
 70
     1
 40
0
 41
0
  0
VERTEX
  8
0
 10
9.01025
 20
7.45344
 30
0.0
 40
0
 41
0
  0
VERTEX
  8
0
 10
9.19754
 20
7.45344
 30
0.0
 40
0
 41
0
  0
VERTEX
  8
0
 10
9.19754
 20
7.05306
 30
0.0
 40
0
 41
0
  0
VERTEX
  8
0
 10
9.01025
 20
7.05306
 30
0.0
 40
0
 41
0
  0
VERTEX
  8
0
 10
9.01025
 20
7.45344
 30
0.0
 40
0
 41
0
  0
SEQEND
 8
0
  0
POLYLINE
  8
0
 62
     0
 66
     1
 10
0
 20
0
 30
0.0
 70
     1
 40
0.7209
 41
0.7209
  0
VERTEX
  8
0
 10
9.01025
 20
7.45344
 30
0.0
 40
0.0100125
 41
0.0100125
  0
VERTEX
  8
0
 10
9.01025
 20
7.05306
 30
0.0
 40
0.0100125
 41
0.0100125
  0
VERTEX
  8
0
 10
9.19754
 20
7.05306
 30
0.0
 40
0.0100125
 41
0.0100125
  0
VERTEX
  8
0
 10
9.19754
 20
7.45344
 30
0.0
 40
0.0100125
 41
0.0100125
  0
VERTEX
  8
0
 10
9.01025
 20
7.45344
 30
0.0
 40
0.0100125
 41
0.0100125
  0
SEQEND
 8
0
  0
POLYLINE
  8
0
 62
     7
 66
     1
 10
0
 20
0
 30
0.0
 70
     1
 40
0
 41
0
  0
VERTEX
  8
0
 10
8.74192
 20
7.05306
 30
0.0
 40
0
 41
0
  0
VERTEX
  8
0
 10
8.74192
 20
7.05306
 30
0.0
 40
0
 41
0
  0
VERTEX
  8
0
 10
8.73014
 20
7.053
 30
0.0
 40
0
 41
0
  0
VERTEX
  8
0
 10
8.69917
 20
7.05458
 30
0.0
 40
0
 41
0
  0
VERTEX
  8
0
 10
8.65533
 20
7.06044
 30
0.0
 40
0
 41
0
  0
VERTEX
  8
0
 10
8.60514
 20
7.07335
 30
0.0
 40
0
 41
0
  0
VERTEX
  8
0
 10
8.5549
 20
7.09597
 30
0.0
 40
0
 41
0
  0
VERTEX
  8
0
 10
8.51107
 20
7.13103
 30
0.0
 40
0
 41
0
  0
VERTEX
  8
0
 10
8.48008
 20
7.18121
 30
0.0
 40
0
 41
0
  0
VERTEX
  8
0
 10
8.46838
 20
7.23215
 30
0.0
 40
0
 41
0
  0
VERTEX
  8
0
 10
8.46838
 20
7.24914
 30
0.0
 40
0
 41
0
  0
VERTEX
  8
0
 10
8.46838
 20
7.26676
 30
0.0
 40
0
 41
0
  0
VERTEX
  8
0
 10
8.48008
 20
7.3195
 30
0.0
 40
0
 41
0
  0
VERTEX
  8
0
 10
8.51107
 20
7.37147
 30
0.0
 40
0
 41
0
  0
VERTEX
  8
0
 10
8.5549
 20
7.40776
 30
0.0
 40
0
 41
0
  0
VERTEX
  8
0
 10
8.60514
 20
7.43132
 30
0.0
 40
0
 41
0
  0
VERTEX
  8
0
 10
8.65533
 20
7.44472
 30
0.0
 40
0
 41
0
  0
VERTEX
  8
0
 10
8.69917
 20
7.4509
 30
0.0
 40
0
 41
0
  0
VERTEX
  8
0
 10
8.73014
 20
7.45258
 30
0.0
 40
0
 41
0
  0
VERTEX
  8
0
 10
8.74192
 20
7.45247
 30
0.0
 40
0
 41
0
  0
VERTEX
  8
0
 10
8.74192
 20
7.45247
 30
0.0
 40
0
 41
0
  0
VERTEX
  8
0
 10
9.01025
 20
7.45344
 30
0.0
 40
0
 41
0
  0
VERTEX
  8
0
 10
9.01025
 20
7.05306
 30
0.0
 40
0
 41
0
  0
VERTEX
  8
0
 10
8.74192
 20
7.05306
 30
0.0
 40
0
 41
0
  0
SEQEND
 8
0
  0
POLYLINE
  8
0
 62
     0
 66
     1
 10
0
 20
0
 30
0.0
 70
     1
 40
0.7209
 41
0.7209
  0
VERTEX
  8
0
 10
8.74192
 20
7.05306
 30
0.0
 40
0.0100125
 41
0.0100125
  0
VERTEX
  8
0
 10
8.74192
 20
7.05306
 30
0.0
 40
0.0100125
 41
0.0100125
  0
VERTEX
  8
0
 10
8.73014
 20
7.053
 30
0.0
 40
0.0100125
 41
0.0100125
  0
VERTEX
  8
0
 10
8.69917
 20
7.05458
 30
0.0
 40
0.0100125
 41
0.0100125
  0
VERTEX
  8
0
 10
8.65533
 20
7.06044
 30
0.0
 40
0.0100125
 41
0.0100125
  0
VERTEX
  8
0
 10
8.60514
 20
7.07335
 30
0.0
 40
0.0100125
 41
0.0100125
  0
VERTEX
  8
0
 10
8.5549
 20
7.09597
 30
0.0
 40
0.0100125
 41
0.0100125
  0
VERTEX
  8
0
 10
8.51107
 20
7.13103
 30
0.0
 40
0.0100125
 41
0.0100125
  0
VERTEX
  8
0
 10
8.48008
 20
7.18121
 30
0.0
 40
0.0100125
 41
0.0100125
  0
VERTEX
  8
0
 10
8.46838
 20
7.23215
 30
0.0
 40
0.0100125
 41
0.0100125
  0
VERTEX
  8
0
 10
8.46838
 20
7.24914
 30
0.0
 40
0.0100125
 41
0.0100125
  0
VERTEX
  8
0
 10
8.46838
 20
7.26676
 30
0.0
 40
0.0100125
 41
0.0100125
  0
VERTEX
  8
0
 10
8.48008
 20
7.3195
 30
0.0
 40
0.0100125
 41
0.0100125
  0
VERTEX
  8
0
 10
8.51107
 20
7.37147
 30
0.0
 40
0.0100125
 41
0.0100125
  0
VERTEX
  8
0
 10
8.5549
 20
7.40776
 30
0.0
 40
0.0100125
 41
0.0100125
  0
VERTEX
  8
0
 10
8.60514
 20
7.43132
 30
0.0
 40
0.0100125
 41
0.0100125
  0
VERTEX
  8
0
 10
8.65533
 20
7.44472
 30
0.0
 40
0.0100125
 41
0.0100125
  0
VERTEX
  8
0
 10
8.69917
 20
7.4509
 30
0.0
 40
0.0100125
 41
0.0100125
  0
VERTEX
  8
0
 10
8.73014
 20
7.45258
 30
0.0
 40
0.0100125
 41
0.0100125
  0
VERTEX
  8
0
 10
8.74192
 20
7.45247
 30
0.0
 40
0.0100125
 41
0.0100125
  0
VERTEX
  8
0
 10
8.74192
 20
7.45247
 30
0.0
 40
0.0100125
 41
0.0100125
  0
VERTEX
  8
0
 10
9.01025
 20
7.45344
 30
0.0
 40
0.0100125
 41
0.0100125
  0
VERTEX
  8
0
 10
9.01025
 20
7.05306
 30
0.0
 40
0.0100125
 41
0.0100125
  0
VERTEX
  8
0
 10
8.74192
 20
7.05306
 30
0.0
 40
0.0100125
 41
0.0100125
  0
SEQEND
 8
0
  0
POLYLINE
  8
0
 62
     7
 66
     1
 10
0
 20
0
 30
0.0
 70
     1
 40
0
 41
0
  0
VERTEX
  8
0
 10
9.08811
 20
7.28504
 30
0.0
 40
0
 41
0
  0
VERTEX
  8
0
 10
9.11962
 20
7.28504
 30
0.0
 40
0
 41
0
  0
VERTEX
  8
0
 10
9.11962
 20
7.2214
 30
0.0
 40
0
 41
0
  0
VERTEX
  8
0
 10
9.08811
 20
7.2214
 30
0.0
 40
0
 41
0
  0
VERTEX
  8
0
 10
9.08811
 20
7.28504
 30
0.0
 40
0
 41
0
  0
SEQEND
 8
0
  0
POLYLINE
  8
0
 62
     0
 66
     1
 10
0
 20
0
 30
0.0
 70
     1
 40
0.7209
 41
0.7209
  0
VERTEX
  8
0
 10
9.08811
 20
7.28504
 30
0.0
 40
0.0100125
 41
0.0100125
  0
VERTEX
  8
0
 10
9.08811
 20
7.2214
 30
0.0
 40
0.0100125
 41
0.0100125
  0
VERTEX
  8
0
 10
9.11962
 20
7.2214
 30
0.0
 40
0.0100125
 41
0.0100125
  0
VERTEX
  8
0
 10
9.11962
 20
7.28504
 30
0.0
 40
0.0100125
 41
0.0100125
  0
VERTEX
  8
0
 10
9.08811
 20
7.28504
 30
0.0
 40
0.0100125
 41
0.0100125
  0
SEQEND
 8
0
  0
POLYLINE
  8
0
 62
     7
 66
     1
 10
0
 20
0
 30
0.0
 70
     1
 40
0
 41
0
  0
VERTEX
  8
0
 10
8.69803
 20
6.73481
 30
0.0
 40
0
 41
0
  0
VERTEX
  8
0
 10
9.20242
 20
6.73481
 30
0.0
 40
0
 41
0
  0
VERTEX
  8
0
 10
9.20242
 20
5.66585
 30
0.0
 40
0
 41
0
  0
VERTEX
  8
0
 10
8.69803
 20
5.66585
 30
0.0
 40
0
 41
0
  0
VERTEX
  8
0
 10
8.69803
 20
6.73481
 30
0.0
 40
0
 41
0
  0
SEQEND
 8
0
  0
POLYLINE
  8
0
 62
     0
 66
     1
 10
0
 20
0
 30
0.0
 70
     1
 40
0.75
 41
0.75
  0
VERTEX
  8
0
 10
8.69803
 20
6.73481
 30
0.0
 40
0.0104167
 41
0.0104167
  0
VERTEX
  8
0
 10
8.69803
 20
5.66585
 30
0.0
 40
0.0104167
 41
0.0104167
  0
VERTEX
  8
0
 10
9.20242
 20
5.66585
 30
0.0
 40
0.0104167
 41
0.0104167
  0
VERTEX
  8
0
 10
9.20242
 20
6.73481
 30
0.0
 40
0.0104167
 41
0.0104167
  0
VERTEX
  8
0
 10
8.69803
 20
6.73481
 30
0.0
 40
0.0104167
 41
0.0104167
  0
SEQEND
 8
0
  0
POLYLINE
  8
0
 62
     7
 66
     1
 10
0
 20
0
 30
0.0
 70
     1
 40
0
 41
0
  0
VERTEX
  8
0
 10
8.93088
 20
6.09592
 30
0.0
 40
0
 41
0
  0
VERTEX
  8
0
 10
8.91237
 20
6.09592
 30
0.0
 40
0
 41
0
  0
VERTEX
  8
0
 10
8.85704
 20
6.11947
 30
0.0
 40
0
 41
0
  0
VERTEX
  8
0
 10
8.79676
 20
6.18349
 30
0.0
 40
0
 41
0
  0
VERTEX
  8
0
 10
8.75612
 20
6.27854
 30
0.0
 40
0
 41
0
  0
VERTEX
  8
0
 10
8.74126
 20
6.36583
 30
0.0
 40
0
 41
0
  0
VERTEX
  8
0
 10
8.74126
 20
6.39492
 30
0.0
 40
0
 41
0
  0
VERTEX
  8
0
 10
8.74126
 20
6.42404
 30
0.0
 40
0
 41
0
  0
VERTEX
  8
0
 10
8.75612
 20
6.51133
 30
0.0
 40
0
 41
0
  0
VERTEX
  8
0
 10
8.79676
 20
6.60639
 30
0.0
 40
0
 41
0
  0
VERTEX
  8
0
 10
8.85704
 20
6.67046
 30
0.0
 40
0
 41
0
  0
VERTEX
  8
0
 10
8.91237
 20
6.69396
 30
0.0
 40
0
 41
0
  0
VERTEX
  8
0
 10
8.93088
 20
6.69396
 30
0.0
 40
0
 41
0
  0
VERTEX
  8
0
 10
8.94928
 20
6.69396
 30
0.0
 40
0
 41
0
  0
VERTEX
  8
0
 10
9.00461
 20
6.67046
 30
0.0
 40
0
 41
0
  0
VERTEX
  8
0
 10
9.06489
 20
6.60639
 30
0.0
 40
0
 41
0
  0
VERTEX
  8
0
 10
9.10553
 20
6.51133
 30
0.0
 40
0
 41
0
  0
VERTEX
  8
0
 10
9.12044
 20
6.42404
 30
0.0
 40
0
 41
0
  0
VERTEX
  8
0
 10
9.12044
 20
6.39492
 30
0.0
 40
0
 41
0
  0
VERTEX
  8
0
 10
9.12044
 20
6.36583
 30
0.0
 40
0
 41
0
  0
VERTEX
  8
0
 10
9.10553
 20
6.27854
 30
0.0
 40
0
 41
0
  0
VERTEX
  8
0
 10
9.06489
 20
6.18349
 30
0.0
 40
0
 41
0
  0
VERTEX
  8
0
 10
9.00461
 20
6.11947
 30
0.0
 40
0
 41
0
  0
VERTEX
  8
0
 10
8.94928
 20
6.09592
 30
0.0
 40
0
 41
0
  0
VERTEX
  8
0
 10
8.93088
 20
6.09592
 30
0.0
 40
0
 41
0
  0
SEQEND
 8
0
  0
POLYLINE
  8
0
 62
     0
 66
     1
 10
0
 20
0
 30
0.0
 70
     1
 40
0.936075
 41
0.936075
  0
VERTEX
  8
0
 10
8.93088
 20
6.09592
 30
0.0
 40
0.013001
 41
0.013001
  0
VERTEX
  8
0
 10
8.91237
 20
6.09592
 30
0.0
 40
0.013001
 41
0.013001
  0
VERTEX
  8
0
 10
8.85704
 20
6.11947
 30
0.0
 40
0.013001
 41
0.013001
  0
VERTEX
  8
0
 10
8.79676
 20
6.18349
 30
0.0
 40
0.013001
 41
0.013001
  0
VERTEX
  8
0
 10
8.75612
 20
6.27854
 30
0.0
 40
0.013001
 41
0.013001
  0
VERTEX
  8
0
 10
8.74126
 20
6.36583
 30
0.0
 40
0.013001
 41
0.013001
  0
VERTEX
  8
0
 10
8.74126
 20
6.39492
 30
0.0
 40
0.013001
 41
0.013001
  0
VERTEX
  8
0
 10
8.74126
 20
6.42404
 30
0.0
 40
0.013001
 41
0.013001
  0
VERTEX
  8
0
 10
8.75612
 20
6.51133
 30
0.0
 40
0.013001
 41
0.013001
  0
VERTEX
  8
0
 10
8.79676
 20
6.60639
 30
0.0
 40
0.013001
 41
0.013001
  0
VERTEX
  8
0
 10
8.85704
 20
6.67046
 30
0.0
 40
0.013001
 41
0.013001
  0
VERTEX
  8
0
 10
8.91237
 20
6.69396
 30
0.0
 40
0.013001
 41
0.013001
  0
VERTEX
  8
0
 10
8.93088
 20
6.69396
 30
0.0
 40
0.013001
 41
0.013001
  0
VERTEX
  8
0
 10
8.94928
 20
6.69396
 30
0.0
 40
0.013001
 41
0.013001
  0
VERTEX
  8
0
 10
9.00461
 20
6.67046
 30
0.0
 40
0.013001
 41
0.013001
  0
VERTEX
  8
0
 10
9.06489
 20
6.60639
 30
0.0
 40
0.013001
 41
0.013001
  0
VERTEX
  8
0
 10
9.10553
 20
6.51133
 30
0.0
 40
0.013001
 41
0.013001
  0
VERTEX
  8
0
 10
9.12044
 20
6.42404
 30
0.0
 40
0.013001
 41
0.013001
  0
VERTEX
  8
0
 10
9.12044
 20
6.39492
 30
0.0
 40
0.013001
 41
0.013001
  0
VERTEX
  8
0
 10
9.12044
 20
6.36583
 30
0.0
 40
0.013001
 41
0.013001
  0
VERTEX
  8
0
 10
9.10553
 20
6.27854
 30
0.0
 40
0.013001
 41
0.013001
  0
VERTEX
  8
0
 10
9.06489
 20
6.18349
 30
0.0
 40
0.013001
 41
0.013001
  0
VERTEX
  8
0
 10
9.00461
 20
6.11947
 30
0.0
 40
0.013001
 41
0.013001
  0
VERTEX
  8
0
 10
8.94928
 20
6.09592
 30
0.0
 40
0.013001
 41
0.013001
  0
VERTEX
  8
0
 10
8.93088
 20
6.09592
 30
0.0
 40
0.013001
 41
0.013001
  0
SEQEND
 8
0
  0
POLYLINE
  8
0
 62
     7
 66
     1
 10
0
 20
0
 30
0.0
 70
     1
 40
0
 41
0
  0
VERTEX
  8
0
 10
8.93088
 20
6.34939
 30
0.0
 40
0
 41
0
  0
VERTEX
  8
0
 10
8.92572
 20
6.34939
 30
0.0
 40
0
 41
0
  0
VERTEX
  8
0
 10
8.91043
 20
6.36274
 30
0.0
 40
0
 41
0
  0
VERTEX
  8
0
 10
8.90201
 20
6.38688
 30
0.0
 40
0
 41
0
  0
VERTEX
  8
0
 10
8.90201
 20
6.39492
 30
0.0
 40
0
 41
0
  0
VERTEX
  8
0
 10
8.90201
 20
6.403
 30
0.0
 40
0
 41
0
  0
VERTEX
  8
0
 10
8.91043
 20
6.42714
 30
0.0
 40
0
 41
0
  0
VERTEX
  8
0
 10
8.92572
 20
6.44043
 30
0.0
 40
0
 41
0
  0
VERTEX
  8
0
 10
8.93088
 20
6.44043
 30
0.0
 40
0
 41
0
  0
VERTEX
  8
0
 10
8.93593
 20
6.44043
 30
0.0
 40
0
 41
0
  0
VERTEX
  8
0
 10
8.95122
 20
6.42714
 30
0.0
 40
0
 41
0
  0
VERTEX
  8
0
 10
8.95969
 20
6.403
 30
0.0
 40
0
 41
0
  0
VERTEX
  8
0
 10
8.95969
 20
6.39492
 30
0.0
 40
0
 41
0
  0
VERTEX
  8
0
 10
8.95969
 20
6.38688
 30
0.0
 40
0
 41
0
  0
VERTEX
  8
0
 10
8.95122
 20
6.36274
 30
0.0
 40
0
 41
0
  0
VERTEX
  8
0
 10
8.93593
 20
6.34939
 30
0.0
 40
0
 41
0
  0
VERTEX
  8
0
 10
8.93088
 20
6.34939
 30
0.0
 40
0
 41
0
  0
SEQEND
 8
0
  0
POLYLINE
  8
0
 62
     0
 66
     1
 10
0
 20
0
 30
0.0
 70
     1
 40
0.936075
 41
0.936075
  0
VERTEX
  8
0
 10
8.93088
 20
6.34939
 30
0.0
 40
0.013001
 41
0.013001
  0
VERTEX
  8
0
 10
8.92572
 20
6.34939
 30
0.0
 40
0.013001
 41
0.013001
  0
VERTEX
  8
0
 10
8.91043
 20
6.36274
 30
0.0
 40
0.013001
 41
0.013001
  0
VERTEX
  8
0
 10
8.90201
 20
6.38688
 30
0.0
 40
0.013001
 41
0.013001
  0
VERTEX
  8
0
 10
8.90201
 20
6.39492
 30
0.0
 40
0.013001
 41
0.013001
  0
VERTEX
  8
0
 10
8.90201
 20
6.403
 30
0.0
 40
0.013001
 41
0.013001
  0
VERTEX
  8
0
 10
8.91043
 20
6.42714
 30
0.0
 40
0.013001
 41
0.013001
  0
VERTEX
  8
0
 10
8.92572
 20
6.44043
 30
0.0
 40
0.013001
 41
0.013001
  0
VERTEX
  8
0
 10
8.93088
 20
6.44043
 30
0.0
 40
0.013001
 41
0.013001
  0
VERTEX
  8
0
 10
8.93593
 20
6.44043
 30
0.0
 40
0.013001
 41
0.013001
  0
VERTEX
  8
0
 10
8.95122
 20
6.42714
 30
0.0
 40
0.013001
 41
0.013001
  0
VERTEX
  8
0
 10
8.95969
 20
6.403
 30
0.0
 40
0.013001
 41
0.013001
  0
VERTEX
  8
0
 10
8.95969
 20
6.39492
 30
0.0
 40
0.013001
 41
0.013001
  0
VERTEX
  8
0
 10
8.95969
 20
6.38688
 30
0.0
 40
0.013001
 41
0.013001
  0
VERTEX
  8
0
 10
8.95122
 20
6.36274
 30
0.0
 40
0.013001
 41
0.013001
  0
VERTEX
  8
0
 10
8.93593
 20
6.34939
 30
0.0
 40
0.013001
 41
0.013001
  0
VERTEX
  8
0
 10
8.93088
 20
6.34939
 30
0.0
 40
0.013001
 41
0.013001
  0
SEQEND
 8
0
  0
POLYLINE
  8
0
 62
     7
 66
     1
 10
0
 20
0
 30
0.0
 70
     1
 40
0
 41
0
  0
VERTEX
  8
0
 10
8.93088
 20
6.36893
 30
0.0
 40
0
 41
0
  0
VERTEX
  8
0
 10
8.92796
 20
6.36893
 30
0.0
 40
0
 41
0
  0
VERTEX
  8
0
 10
8.91922
 20
6.37657
 30
0.0
 40
0
 41
0
  0
VERTEX
  8
0
 10
8.91439
 20
6.39035
 30
0.0
 40
0
 41
0
  0
VERTEX
  8
0
 10
8.91439
 20
6.39492
 30
0.0
 40
0
 41
0
  0
VERTEX
  8
0
 10
8.91439
 20
6.39953
 30
0.0
 40
0
 41
0
  0
VERTEX
  8
0
 10
8.91922
 20
6.41331
 30
0.0
 40
0
 41
0
  0
VERTEX
  8
0
 10
8.92796
 20
6.4209
 30
0.0
 40
0
 41
0
  0
VERTEX
  8
0
 10
8.93088
 20
6.4209
 30
0.0
 40
0
 41
0
  0
VERTEX
  8
0
 10
8.93375
 20
6.4209
 30
0.0
 40
0
 41
0
  0
VERTEX
  8
0
 10
8.94249
 20
6.41331
 30
0.0
 40
0
 41
0
  0
VERTEX
  8
0
 10
8.94732
 20
6.39953
 30
0.0
 40
0
 41
0
  0
VERTEX
  8
0
 10
8.94732
 20
6.39492
 30
0.0
 40
0
 41
0
  0
VERTEX
  8
0
 10
8.94732
 20
6.39035
 30
0.0
 40
0
 41
0
  0
VERTEX
  8
0
 10
8.94249
 20
6.37657
 30
0.0
 40
0
 41
0
  0
VERTEX
  8
0
 10
8.93375
 20
6.36893
 30
0.0
 40
0
 41
0
  0
VERTEX
  8
0
 10
8.93088
 20
6.36893
 30
0.0
 40
0
 41
0
  0
SEQEND
 8
0
  0
POLYLINE
  8
0
 62
     0
 66
     1
 10
0
 20
0
 30
0.0
 70
     1
 40
0.936075
 41
0.936075
  0
VERTEX
  8
0
 10
8.93088
 20
6.36893
 30
0.0
 40
0.013001
 41
0.013001
  0
VERTEX
  8
0
 10
8.92796
 20
6.36893
 30
0.0
 40
0.013001
 41
0.013001
  0
VERTEX
  8
0
 10
8.91922
 20
6.37657
 30
0.0
 40
0.013001
 41
0.013001
  0
VERTEX
  8
0
 10
8.91439
 20
6.39035
 30
0.0
 40
0.013001
 41
0.013001
  0
VERTEX
  8
0
 10
8.91439
 20
6.39492
 30
0.0
 40
0.013001
 41
0.013001
  0
VERTEX
  8
0
 10
8.91439
 20
6.39953
 30
0.0
 40
0.013001
 41
0.013001
  0
VERTEX
  8
0
 10
8.91922
 20
6.41331
 30
0.0
 40
0.013001
 41
0.013001
  0
VERTEX
  8
0
 10
8.92796
 20
6.4209
 30
0.0
 40
0.013001
 41
0.013001
  0
VERTEX
  8
0
 10
8.93088
 20
6.4209
 30
0.0
 40
0.013001
 41
0.013001
  0
VERTEX
  8
0
 10
8.93375
 20
6.4209
 30
0.0
 40
0.013001
 41
0.013001
  0
VERTEX
  8
0
 10
8.94249
 20
6.41331
 30
0.0
 40
0.013001
 41
0.013001
  0
VERTEX
  8
0
 10
8.94732
 20
6.39953
 30
0.0
 40
0.013001
 41
0.013001
  0
VERTEX
  8
0
 10
8.94732
 20
6.39492
 30
0.0
 40
0.013001
 41
0.013001
  0
VERTEX
  8
0
 10
8.94732
 20
6.39035
 30
0.0
 40
0.013001
 41
0.013001
  0
VERTEX
  8
0
 10
8.94249
 20
6.37657
 30
0.0
 40
0.013001
 41
0.013001
  0
VERTEX
  8
0
 10
8.93375
 20
6.36893
 30
0.0
 40
0.013001
 41
0.013001
  0
VERTEX
  8
0
 10
8.93088
 20
6.36893
 30
0.0
 40
0.013001
 41
0.013001
  0
SEQEND
 8
0
  0
POLYLINE
  8
0
 62
     7
 66
     1
 10
0
 20
0
 30
0.0
 70
     1
 40
0
 41
0
  0
VERTEX
  8
0
 10
9.03803
 20
6.43392
 30
0.0
 40
0
 41
0
  0
VERTEX
  8
0
 10
9.15343
 20
6.43392
 30
0.0
 40
0
 41
0
  0
VERTEX
  8
0
 10
9.15343
 20
6.3559
 30
0.0
 40
0
 41
0
  0
VERTEX
  8
0
 10
9.03803
 20
6.3559
 30
0.0
 40
0
 41
0
  0
VERTEX
  8
0
 10
9.03803
 20
6.43392
 30
0.0
 40
0
 41
0
  0
SEQEND
 8
0
  0
POLYLINE
  8
0
 62
     0
 66
     1
 10
0
 20
0
 30
0.0
 70
     1
 40
0.936075
 41
0.936075
  0
VERTEX
  8
0
 10
9.03803
 20
6.43392
 30
0.0
 40
0.013001
 41
0.013001
  0
VERTEX
  8
0
 10
9.03803
 20
6.3559
 30
0.0
 40
0.013001
 41
0.013001
  0
VERTEX
  8
0
 10
9.15343
 20
6.3559
 30
0.0
 40
0.013001
 41
0.013001
  0
VERTEX
  8
0
 10
9.15343
 20
6.43392
 30
0.0
 40
0.013001
 41
0.013001
  0
VERTEX
  8
0
 10
9.03803
 20
6.43392
 30
0.0
 40
0.013001
 41
0.013001
  0
SEQEND
 8
0
  0
POLYLINE
  8
0
 62
     7
 66
     1
 10
0
 20
0
 30
0.0
 70
     1
 40
0
 41
0
  0
VERTEX
  8
0
 10
6.69803
 20
6.57611
 30
0.0
 40
0
 41
0
  0
VERTEX
  8
0
 10
6.43696
 20
5.63661
 30
0.0
 40
0
 41
0
  0
VERTEX
  8
0
 10
6.81635
 20
5.60818
 30
0.0
 40
0
 41
0
  0
VERTEX
  8
0
 10
7.17774
 20
5.72715
 30
0.0
 40
0
 41
0
  0
VERTEX
  8
0
 10
7.46604
 20
5.97537
 30
0.0
 40
0
 41
0
  0
VERTEX
  8
0
 10
7.63747
 20
6.31494
 30
0.0
 40
0
 41
0
  0
VERTEX
  8
0
 10
6.69803
 20
6.57611
 30
0.0
 40
0
 41
0
  0
SEQEND
 8
0
  0
POLYLINE
  8
0
 62
     0
 66
     1
 10
0
 20
0
 30
0.0
 70
     1
 40
0.75
 41
0.75
  0
VERTEX
  8
0
 10
6.69803
 20
6.57611
 30
0.0
 40
0.0104167
 41
0.0104167
  0
VERTEX
  8
0
 10
6.43696
 20
5.63661
 30
0.0
 40
0.0104167
 41
0.0104167
  0
VERTEX
  8
0
 10
6.81635
 20
5.60818
 30
0.0
 40
0.0104167
 41
0.0104167
  0
VERTEX
  8
0
 10
7.17774
 20
5.72715
 30
0.0
 40
0.0104167
 41
0.0104167
  0
VERTEX
  8
0
 10
7.46604
 20
5.97537
 30
0.0
 40
0.0104167
 41
0.0104167
  0
VERTEX
  8
0
 10
7.63747
 20
6.31494
 30
0.0
 40
0.0104167
 41
0.0104167
  0
VERTEX
  8
0
 10
6.69803
 20
6.57611
 30
0.0
 40
0.0104167
 41
0.0104167
  0
SEQEND
 8
0
  0
POLYLINE
  8
0
 62
     254
 66
     1
 10
0
 20
0
 30
0.0
 40
0.75
 41
0.75
  0
VERTEX
  8
0
 10
6.56749
 20
6.10633
 30
0.0
 40
0.0104167
 41
0.0104167
  0
VERTEX
  8
0
 10
6.75717
 20
6.09218
 30
0.0
 40
0.0104167
 41
0.0104167
  0
VERTEX
  8
0
 10
6.93782
 20
6.15164
 30
0.0
 40
0.0104167
 41
0.0104167
  0
VERTEX
  8
0
 10
7.08197
 20
6.27572
 30
0.0
 40
0.0104167
 41
0.0104167
  0
VERTEX
  8
0
 10
7.16769
 20
6.44547
 30
0.0
 40
0.0104167
 41
0.0104167
  0
SEQEND
 8
0
  0
POLYLINE
  8
0
 62
     7
 66
     1
 10
0
 20
0
 30
0.0
 70
     1
 40
0
 41
0
  0
VERTEX
  8
0
 10
6.69803
 20
6.57607
 30
0.0
 40
0
 41
0
  0
VERTEX
  8
0
 10
6.43696
 20
5.63661
 30
0.0
 40
0
 41
0
  0
SEQEND
 8
0
  0
POLYLINE
  8
0
 62
     0
 66
     1
 10
0
 20
0
 30
0.0
 40
0.75
 41
0.75
  0
VERTEX
  8
0
 10
6.69803
 20
6.57607
 30
0.0
 40
0.0104167
 41
0.0104167
  0
VERTEX
  8
0
 10
6.43696
 20
5.63661
 30
0.0
 40
0.0104167
 41
0.0104167
  0
SEQEND
 8
0
  0
POLYLINE
  8
0
 62
     7
 66
     1
 10
0
 20
0
 30
0.0
 70
     1
 40
0
 41
0
  0
VERTEX
  8
0
 10
6.69803
 20
6.57607
 30
0.0
 40
0
 41
0
  0
VERTEX
  8
0
 10
6.81635
 20
5.60818
 30
0.0
 40
0
 41
0
  0
SEQEND
 8
0
  0
POLYLINE
  8
0
 62
     0
 66
     1
 10
0
 20
0
 30
0.0
 40
0.75
 41
0.75
  0
VERTEX
  8
0
 10
6.69803
 20
6.57607
 30
0.0
 40
0.0104167
 41
0.0104167
  0
VERTEX
  8
0
 10
6.81635
 20
5.60818
 30
0.0
 40
0.0104167
 41
0.0104167
  0
SEQEND
 8
0
  0
POLYLINE
  8
0
 62
     7
 66
     1
 10
0
 20
0
 30
0.0
 70
     1
 40
0
 41
0
  0
VERTEX
  8
0
 10
6.69803
 20
6.57607
 30
0.0
 40
0
 41
0
  0
VERTEX
  8
0
 10
7.17768
 20
5.72715
 30
0.0
 40
0
 41
0
  0
SEQEND
 8
0
  0
POLYLINE
  8
0
 62
     0
 66
     1
 10
0
 20
0
 30
0.0
 40
0.75
 41
0.75
  0
VERTEX
  8
0
 10
6.69803
 20
6.57607
 30
0.0
 40
0.0104167
 41
0.0104167
  0
VERTEX
  8
0
 10
7.17768
 20
5.72715
 30
0.0
 40
0.0104167
 41
0.0104167
  0
SEQEND
 8
0
  0
POLYLINE
  8
0
 62
     7
 66
     1
 10
0
 20
0
 30
0.0
 70
     1
 40
0
 41
0
  0
VERTEX
  8
0
 10
6.69803
 20
6.57607
 30
0.0
 40
0
 41
0
  0
VERTEX
  8
0
 10
7.46604
 20
5.97537
 30
0.0
 40
0
 41
0
  0
SEQEND
 8
0
  0
POLYLINE
  8
0
 62
     0
 66
     1
 10
0
 20
0
 30
0.0
 40
0.75
 41
0.75
  0
VERTEX
  8
0
 10
6.69803
 20
6.57607
 30
0.0
 40
0.0104167
 41
0.0104167
  0
VERTEX
  8
0
 10
7.46604
 20
5.97537
 30
0.0
 40
0.0104167
 41
0.0104167
  0
SEQEND
 8
0
  0
POLYLINE
  8
0
 62
     7
 66
     1
 10
0
 20
0
 30
0.0
 70
     1
 40
0
 41
0
  0
VERTEX
  8
0
 10
6.69803
 20
6.57607
 30
0.0
 40
0
 41
0
  0
VERTEX
  8
0
 10
7.63747
 20
6.315
 30
0.0
 40
0
 41
0
  0
SEQEND
 8
0
  0
POLYLINE
  8
0
 62
     0
 66
     1
 10
0
 20
0
 30
0.0
 40
0.75
 41
0.75
  0
VERTEX
  8
0
 10
6.69803
 20
6.57607
 30
0.0
 40
0.0104167
 41
0.0104167
  0
VERTEX
  8
0
 10
7.63747
 20
6.315
 30
0.0
 40
0.0104167
 41
0.0104167
  0
SEQEND
 8
0
  0
POLYLINE
  8
0
 62
     7
 66
     1
 10
0
 20
0
 30
0.0
 70
     1
 40
0
 41
0
  0
VERTEX
  8
0
 10
6.69803
 20
6.57611
 30
0.0
 40
0
 41
0
  0
VERTEX
  8
0
 10
7.63747
 20
6.31494
 30
0.0
 40
0
 41
0
  0
VERTEX
  8
0
 10
7.66585
 20
6.69433
 30
0.0
 40
0
 41
0
  0
VERTEX
  8
0
 10
7.54688
 20
7.05578
 30
0.0
 40
0
 41
0
  0
VERTEX
  8
0
 10
7.29878
 20
7.34412
 30
0.0
 40
0
 41
0
  0
VERTEX
  8
0
 10
6.95904
 20
7.51546
 30
0.0
 40
0
 41
0
  0
VERTEX
  8
0
 10
6.69803
 20
6.57611
 30
0.0
 40
0
 41
0
  0
SEQEND
 8
0
  0
POLYLINE
  8
0
 62
     0
 66
     1
 10
0
 20
0
 30
0.0
 70
     1
 40
0.75
 41
0.75
  0
VERTEX
  8
0
 10
6.69803
 20
6.57611
 30
0.0
 40
0.0104167
 41
0.0104167
  0
VERTEX
  8
0
 10
7.63747
 20
6.31494
 30
0.0
 40
0.0104167
 41
0.0104167
  0
VERTEX
  8
0
 10
7.66585
 20
6.69433
 30
0.0
 40
0.0104167
 41
0.0104167
  0
VERTEX
  8
0
 10
7.54688
 20
7.05578
 30
0.0
 40
0.0104167
 41
0.0104167
  0
VERTEX
  8
0
 10
7.29878
 20
7.34412
 30
0.0
 40
0.0104167
 41
0.0104167
  0
VERTEX
  8
0
 10
6.95904
 20
7.51546
 30
0.0
 40
0.0104167
 41
0.0104167
  0
VERTEX
  8
0
 10
6.69803
 20
6.57611
 30
0.0
 40
0.0104167
 41
0.0104167
  0
SEQEND
 8
0
  0
POLYLINE
  8
0
 62
     254
 66
     1
 10
0
 20
0
 30
0.0
 40
0.75
 41
0.75
  0
VERTEX
  8
0
 10
7.16769
 20
6.44547
 30
0.0
 40
0.0104167
 41
0.0104167
  0
VERTEX
  8
0
 10
7.18197
 20
6.63519
 30
0.0
 40
0.0104167
 41
0.0104167
  0
VERTEX
  8
0
 10
7.1225
 20
6.81592
 30
0.0
 40
0.0104167
 41
0.0104167
  0
VERTEX
  8
0
 10
6.99832
 20
6.96007
 30
0.0
 40
0.0104167
 41
0.0104167
  0
VERTEX
  8
0
 10
6.82856
 20
7.04579
 30
0.0
 40
0.0104167
 41
0.0104167
  0
SEQEND
 8
0
  0
POLYLINE
  8
0
 62
     254
 66
     1
 10
0
 20
0
 30
0.0
 70
     1
 40
0
 41
0
  0
VERTEX
  8
0
 10
6.90267
 20
6.93837
 30
0.0
 40
0
 41
0
  0
VERTEX
  8
0
 10
6.95899
 20
7.04997
 30
0.0
 40
0
 41
0
  0
VERTEX
  8
0
 10
6.83783
 20
7.04113
 30
0.0
 40
0
 41
0
  0
VERTEX
  8
0
 10
6.90267
 20
6.93837
 30
0.0
 40
0
 41
0
  0
SEQEND
 8
0
  0
POLYLINE
  8
0
 62
     254
 66
     1
 10
0
 20
0
 30
0.0
 70
     1
 40
0.75
 41
0.75
  0
VERTEX
  8
0
 10
6.90267
 20
6.93837
 30
0.0
 40
0.0104167
 41
0.0104167
  0
VERTEX
  8
0
 10
6.95899
 20
7.04997
 30
0.0
 40
0.0104167
 41
0.0104167
  0
VERTEX
  8
0
 10
6.83783
 20
7.04113
 30
0.0
 40
0.0104167
 41
0.0104167
  0
VERTEX
  8
0
 10
6.90267
 20
6.93837
 30
0.0
 40
0.0104167
 41
0.0104167
  0
SEQEND
 8
0
  0
POLYLINE
  8
0
 62
     7
 66
     1
 10
0
 20
0
 30
0.0
 70
     1
 40
0
 41
0
  0
VERTEX
  8
0
 10
6.69803
 20
6.57607
 30
0.0
 40
0
 41
0
  0
VERTEX
  8
0
 10
7.63747
 20
6.315
 30
0.0
 40
0
 41
0
  0
SEQEND
 8
0
  0
POLYLINE
  8
0
 62
     0
 66
     1
 10
0
 20
0
 30
0.0
 40
0.75
 41
0.75
  0
VERTEX
  8
0
 10
6.69803
 20
6.57607
 30
0.0
 40
0.0104167
 41
0.0104167
  0
VERTEX
  8
0
 10
7.63747
 20
6.315
 30
0.0
 40
0.0104167
 41
0.0104167
  0
SEQEND
 8
0
  0
POLYLINE
  8
0
 62
     7
 66
     1
 10
0
 20
0
 30
0.0
 70
     1
 40
0
 41
0
  0
VERTEX
  8
0
 10
6.69803
 20
6.57607
 30
0.0
 40
0
 41
0
  0
VERTEX
  8
0
 10
7.66585
 20
6.69439
 30
0.0
 40
0
 41
0
  0
SEQEND
 8
0
  0
POLYLINE
  8
0
 62
     0
 66
     1
 10
0
 20
0
 30
0.0
 40
0.75
 41
0.75
  0
VERTEX
  8
0
 10
6.69803
 20
6.57607
 30
0.0
 40
0.0104167
 41
0.0104167
  0
VERTEX
  8
0
 10
7.66585
 20
6.69439
 30
0.0
 40
0.0104167
 41
0.0104167
  0
SEQEND
 8
0
  0
POLYLINE
  8
0
 62
     7
 66
     1
 10
0
 20
0
 30
0.0
 70
     1
 40
0
 41
0
  0
VERTEX
  8
0
 10
6.69803
 20
6.57607
 30
0.0
 40
0
 41
0
  0
VERTEX
  8
0
 10
7.54693
 20
7.05578
 30
0.0
 40
0
 41
0
  0
SEQEND
 8
0
  0
POLYLINE
  8
0
 62
     0
 66
     1
 10
0
 20
0
 30
0.0
 40
0.75
 41
0.75
  0
VERTEX
  8
0
 10
6.69803
 20
6.57607
 30
0.0
 40
0.0104167
 41
0.0104167
  0
VERTEX
  8
0
 10
7.54693
 20
7.05578
 30
0.0
 40
0.0104167
 41
0.0104167
  0
SEQEND
 8
0
  0
POLYLINE
  8
0
 62
     7
 66
     1
 10
0
 20
0
 30
0.0
 70
     1
 40
0
 41
0
  0
VERTEX
  8
0
 10
6.69803
 20
6.57607
 30
0.0
 40
0
 41
0
  0
VERTEX
  8
0
 10
7.29872
 20
7.34412
 30
0.0
 40
0
 41
0
  0
SEQEND
 8
0
  0
POLYLINE
  8
0
 62
     0
 66
     1
 10
0
 20
0
 30
0.0
 40
0.75
 41
0.75
  0
VERTEX
  8
0
 10
6.69803
 20
6.57607
 30
0.0
 40
0.0104167
 41
0.0104167
  0
VERTEX
  8
0
 10
7.29872
 20
7.34412
 30
0.0
 40
0.0104167
 41
0.0104167
  0
SEQEND
 8
0
  0
POLYLINE
  8
0
 62
     7
 66
     1
 10
0
 20
0
 30
0.0
 70
     1
 40
0
 41
0
  0
VERTEX
  8
0
 10
6.69803
 20
6.57607
 30
0.0
 40
0
 41
0
  0
VERTEX
  8
0
 10
6.9591
 20
7.51551
 30
0.0
 40
0
 41
0
  0
SEQEND
 8
0
  0
POLYLINE
  8
0
 62
     0
 66
     1
 10
0
 20
0
 30
0.0
 40
0.75
 41
0.75
  0
VERTEX
  8
0
 10
6.69803
 20
6.57607
 30
0.0
 40
0.0104167
 41
0.0104167
  0
VERTEX
  8
0
 10
6.9591
 20
7.51551
 30
0.0
 40
0.0104167
 41
0.0104167
  0
SEQEND
 8
0
  0
POLYLINE
  8
0
 62
     7
 66
     1
 10
0
 20
0
 30
0.0
 70
     1
 40
0
 41
0
  0
VERTEX
  8
0
 10
2.02111
 20
7.18565
 30
0.0
 40
0
 41
0
  0
VERTEX
  8
0
 10
2.13781
 20
7.18565
 30
0.0
 40
0
 41
0
  0
VERTEX
  8
0
 10
2.13781
 20
7.12213
 30
0.0
 40
0
 41
0
  0
VERTEX
  8
0
 10
2.02111
 20
7.12213
 30
0.0
 40
0
 41
0
  0
VERTEX
  8
0
 10
2.02111
 20
7.18565
 30
0.0
 40
0
 41
0
  0
SEQEND
 8
0
  0
POLYLINE
  8
0
 62
     0
 66
     1
 10
0
 20
0
 30
0.0
 70
     1
 40
0.75
 41
0.75
  0
VERTEX
  8
0
 10
2.02111
 20
7.18565
 30
0.0
 40
0.0104167
 41
0.0104167
  0
VERTEX
  8
0
 10
2.13781
 20
7.18565
 30
0.0
 40
0.0104167
 41
0.0104167
  0
VERTEX
  8
0
 10
2.13781
 20
7.12213
 30
0.0
 40
0.0104167
 41
0.0104167
  0
VERTEX
  8
0
 10
2.02111
 20
7.12213
 30
0.0
 40
0.0104167
 41
0.0104167
  0
VERTEX
  8
0
 10
2.02111
 20
7.18565
 30
0.0
 40
0.0104167
 41
0.0104167
  0
SEQEND
 8
0
  0
POLYLINE
  8
0
 62
     7
 66
     1
 10
0
 20
0
 30
0.0
 70
     1
 40
0
 41
0
  0
VERTEX
  8
0
 10
2.1659
 20
7.18565
 30
0.0
 40
0
 41
0
  0
VERTEX
  8
0
 10
2.28256
 20
7.18565
 30
0.0
 40
0
 41
0
  0
VERTEX
  8
0
 10
2.28256
 20
7.12213
 30
0.0
 40
0
 41
0
  0
VERTEX
  8
0
 10
2.1659
 20
7.12213
 30
0.0
 40
0
 41
0
  0
VERTEX
  8
0
 10
2.1659
 20
7.18565
 30
0.0
 40
0
 41
0
  0
SEQEND
 8
0
  0
POLYLINE
  8
0
 62
     0
 66
     1
 10
0
 20
0
 30
0.0
 70
     1
 40
0.75
 41
0.75
  0
VERTEX
  8
0
 10
2.1659
 20
7.18565
 30
0.0
 40
0.0104167
 41
0.0104167
  0
VERTEX
  8
0
 10
2.28256
 20
7.18565
 30
0.0
 40
0.0104167
 41
0.0104167
  0
VERTEX
  8
0
 10
2.28256
 20
7.12213
 30
0.0
 40
0.0104167
 41
0.0104167
  0
VERTEX
  8
0
 10
2.1659
 20
7.12213
 30
0.0
 40
0.0104167
 41
0.0104167
  0
VERTEX
  8
0
 10
2.1659
 20
7.18565
 30
0.0
 40
0.0104167
 41
0.0104167
  0
SEQEND
 8
0
  0
POLYLINE
  8
0
 62
     7
 66
     1
 10
0
 20
0
 30
0.0
 70
     1
 40
0
 41
0
  0
VERTEX
  8
0
 10
2.28153
 20
7.18565
 30
0.0
 40
0
 41
0
  0
VERTEX
  8
0
 10
2.31694
 20
7.18565
 30
0.0
 40
0
 41
0
  0
VERTEX
  8
0
 10
2.31694
 20
7.12213
 30
0.0
 40
0
 41
0
  0
VERTEX
  8
0
 10
2.28153
 20
7.12213
 30
0.0
 40
0
 41
0
  0
VERTEX
  8
0
 10
2.28153
 20
7.18565
 30
0.0
 40
0
 41
0
  0
SEQEND
 8
0
  0
POLYLINE
  8
0
 62
     0
 66
     1
 10
0
 20
0
 30
0.0
 70
     1
 40
0.75
 41
0.75
  0
VERTEX
  8
0
 10
2.28153
 20
7.18565
 30
0.0
 40
0.0104167
 41
0.0104167
  0
VERTEX
  8
0
 10
2.31694
 20
7.18565
 30
0.0
 40
0.0104167
 41
0.0104167
  0
VERTEX
  8
0
 10
2.31694
 20
7.12213
 30
0.0
 40
0.0104167
 41
0.0104167
  0
VERTEX
  8
0
 10
2.28153
 20
7.12213
 30
0.0
 40
0.0104167
 41
0.0104167
  0
VERTEX
  8
0
 10
2.28153
 20
7.18565
 30
0.0
 40
0.0104167
 41
0.0104167
  0
SEQEND
 8
0
  0
POLYLINE
  8
0
 62
     7
 66
     1
 10
0
 20
0
 30
0.0
 70
     1
 40
0
 41
0
  0
VERTEX
  8
0
 10
1.98779
 20
7.18565
 30
0.0
 40
0
 41
0
  0
VERTEX
  8
0
 10
2.02111
 20
7.18565
 30
0.0
 40
0
 41
0
  0
VERTEX
  8
0
 10
2.02111
 20
7.12213
 30
0.0
 40
0
 41
0
  0
VERTEX
  8
0
 10
1.98779
 20
7.12213
 30
0.0
 40
0
 41
0
  0
VERTEX
  8
0
 10
1.98779
 20
7.18565
 30
0.0
 40
0
 41
0
  0
SEQEND
 8
0
  0
POLYLINE
  8
0
 62
     0
 66
     1
 10
0
 20
0
 30
0.0
 70
     1
 40
0.75
 41
0.75
  0
VERTEX
  8
0
 10
1.98779
 20
7.18565
 30
0.0
 40
0.0104167
 41
0.0104167
  0
VERTEX
  8
0
 10
2.02111
 20
7.18565
 30
0.0
 40
0.0104167
 41
0.0104167
  0
VERTEX
  8
0
 10
2.02111
 20
7.12213
 30
0.0
 40
0.0104167
 41
0.0104167
  0
VERTEX
  8
0
 10
1.98779
 20
7.12213
 30
0.0
 40
0.0104167
 41
0.0104167
  0
VERTEX
  8
0
 10
1.98779
 20
7.18565
 30
0.0
 40
0.0104167
 41
0.0104167
  0
SEQEND
 8
0
  0
POLYLINE
  8
0
 62
     7
 66
     1
 10
0
 20
0
 30
0.0
 70
     1
 40
0
 41
0
  0
VERTEX
  8
0
 10
2.13781
 20
7.10232
 30
0.0
 40
0
 41
0
  0
VERTEX
  8
0
 10
2.13781
 20
7.09603
 30
0.0
 40
0
 41
0
  0
VERTEX
  8
0
 10
2.13411
 20
7.0771
 30
0.0
 40
0
 41
0
  0
VERTEX
  8
0
 10
2.12418
 20
7.05469
 30
0.0
 40
0
 41
0
  0
VERTEX
  8
0
 10
2.1211
 20
7.05024
 30
0.0
 40
0
 41
0
  0
VERTEX
  8
0
 10
2.12007
 20
7.04872
 30
0.0
 40
0
 41
0
  0
VERTEX
  8
0
 10
2.10986
 20
7.03413
 30
0.0
 40
0
 41
0
  0
VERTEX
  8
0
 10
2.10965
 20
7.03256
 30
0.0
 40
0
 41
0
  0
VERTEX
  8
0
 10
2.1091
 20
7.02974
 30
0.0
 40
0
 41
0
  0
VERTEX
  8
0
 10
2.11328
 20
7.01318
 30
0.0
 40
0
 41
0
  0
VERTEX
  8
0
 10
2.12993
 20
7.00028
 30
0.0
 40
0
 41
0
  0
VERTEX
  8
0
 10
2.13569
 20
6.99918
 30
0.0
 40
0
 41
0
  0
VERTEX
  8
0
 10
2.13699
 20
6.99897
 30
0.0
 40
0
 41
0
  0
VERTEX
  8
0
 10
2.14849
 20
6.99815
 30
0.0
 40
0
 41
0
  0
VERTEX
  8
0
 10
2.15235
 20
6.99815
 30
0.0
 40
0
 41
0
  0
VERTEX
  8
0
 10
2.15132
 20
6.99815
 30
0.0
 40
0
 41
0
  0
VERTEX
  8
0
 10
2.15543
 20
6.99815
 30
0.0
 40
0
 41
0
  0
VERTEX
  8
0
 10
2.16667
 20
6.99897
 30
0.0
 40
0
 41
0
  0
VERTEX
  8
0
 10
2.16797
 20
6.99918
 30
0.0
 40
0
 41
0
  0
VERTEX
  8
0
 10
2.17367
 20
7.00028
 30
0.0
 40
0
 41
0
  0
VERTEX
  8
0
 10
2.19038
 20
7.01318
 30
0.0
 40
0
 41
0
  0
VERTEX
  8
0
 10
2.1945
 20
7.02974
 30
0.0
 40
0
 41
0
  0
VERTEX
  8
0
 10
2.19401
 20
7.03256
 30
0.0
 40
0
 41
0
  0
VERTEX
  8
0
 10
2.19374
 20
7.03413
 30
0.0
 40
0
 41
0
  0
VERTEX
  8
0
 10
2.1836
 20
7.04872
 30
0.0
 40
0
 41
0
  0
VERTEX
  8
0
 10
2.18257
 20
7.05024
 30
0.0
 40
0
 41
0
  0
VERTEX
  8
0
 10
2.17942
 20
7.05469
 30
0.0
 40
0
 41
0
  0
VERTEX
  8
0
 10
2.16954
 20
7.0771
 30
0.0
 40
0
 41
0
  0
VERTEX
  8
0
 10
2.1659
 20
7.09603
 30
0.0
 40
0
 41
0
  0
VERTEX
  8
0
 10
2.1659
 20
7.10232
 30
0.0
 40
0
 41
0
  0
SEQEND
 8
0
  0
POLYLINE
  8
0
 62
     0
 66
     1
 10
0
 20
0
 30
0.0
 40
0.75
 41
0.75
  0
VERTEX
  8
0
 10
2.13781
 20
7.10232
 30
0.0
 40
0.0104167
 41
0.0104167
  0
VERTEX
  8
0
 10
2.13781
 20
7.09603
 30
0.0
 40
0.0104167
 41
0.0104167
  0
VERTEX
  8
0
 10
2.13411
 20
7.0771
 30
0.0
 40
0.0104167
 41
0.0104167
  0
VERTEX
  8
0
 10
2.12418
 20
7.05469
 30
0.0
 40
0.0104167
 41
0.0104167
  0
VERTEX
  8
0
 10
2.1211
 20
7.05024
 30
0.0
 40
0.0104167
 41
0.0104167
  0
VERTEX
  8
0
 10
2.12007
 20
7.04872
 30
0.0
 40
0.0104167
 41
0.0104167
  0
VERTEX
  8
0
 10
2.10986
 20
7.03413
 30
0.0
 40
0.0104167
 41
0.0104167
  0
VERTEX
  8
0
 10
2.10965
 20
7.03256
 30
0.0
 40
0.0104167
 41
0.0104167
  0
VERTEX
  8
0
 10
2.1091
 20
7.02974
 30
0.0
 40
0.0104167
 41
0.0104167
  0
VERTEX
  8
0
 10
2.11328
 20
7.01318
 30
0.0
 40
0.0104167
 41
0.0104167
  0
VERTEX
  8
0
 10
2.12993
 20
7.00028
 30
0.0
 40
0.0104167
 41
0.0104167
  0
VERTEX
  8
0
 10
2.13569
 20
6.99918
 30
0.0
 40
0.0104167
 41
0.0104167
  0
VERTEX
  8
0
 10
2.13699
 20
6.99897
 30
0.0
 40
0.0104167
 41
0.0104167
  0
VERTEX
  8
0
 10
2.14849
 20
6.99815
 30
0.0
 40
0.0104167
 41
0.0104167
  0
VERTEX
  8
0
 10
2.15235
 20
6.99815
 30
0.0
 40
0.0104167
 41
0.0104167
  0
VERTEX
  8
0
 10
2.15132
 20
6.99815
 30
0.0
 40
0.0104167
 41
0.0104167
  0
VERTEX
  8
0
 10
2.15543
 20
6.99815
 30
0.0
 40
0.0104167
 41
0.0104167
  0
VERTEX
  8
0
 10
2.16667
 20
6.99897
 30
0.0
 40
0.0104167
 41
0.0104167
  0
VERTEX
  8
0
 10
2.16797
 20
6.99918
 30
0.0
 40
0.0104167
 41
0.0104167
  0
VERTEX
  8
0
 10
2.17367
 20
7.00028
 30
0.0
 40
0.0104167
 41
0.0104167
  0
VERTEX
  8
0
 10
2.19038
 20
7.01318
 30
0.0
 40
0.0104167
 41
0.0104167
  0
VERTEX
  8
0
 10
2.1945
 20
7.02974
 30
0.0
 40
0.0104167
 41
0.0104167
  0
VERTEX
  8
0
 10
2.19401
 20
7.03256
 30
0.0
 40
0.0104167
 41
0.0104167
  0
VERTEX
  8
0
 10
2.19374
 20
7.03413
 30
0.0
 40
0.0104167
 41
0.0104167
  0
VERTEX
  8
0
 10
2.1836
 20
7.04872
 30
0.0
 40
0.0104167
 41
0.0104167
  0
VERTEX
  8
0
 10
2.18257
 20
7.05024
 30
0.0
 40
0.0104167
 41
0.0104167
  0
VERTEX
  8
0
 10
2.17942
 20
7.05469
 30
0.0
 40
0.0104167
 41
0.0104167
  0
VERTEX
  8
0
 10
2.16954
 20
7.0771
 30
0.0
 40
0.0104167
 41
0.0104167
  0
VERTEX
  8
0
 10
2.1659
 20
7.09603
 30
0.0
 40
0.0104167
 41
0.0104167
  0
VERTEX
  8
0
 10
2.1659
 20
7.10232
 30
0.0
 40
0.0104167
 41
0.0104167
  0
SEQEND
 8
0
  0
POLYLINE
  8
0
 62
     7
 66
     1
 10
0
 20
0
 30
0.0
 70
     1
 40
0
 41
0
  0
VERTEX
  8
0
 10
2.10965
 20
7.03153
 30
0.0
 40
0
 41
0
  0
VERTEX
  8
0
 10
2.10986
 20
7.03103
 30
0.0
 40
0
 41
0
  0
VERTEX
  8
0
 10
2.12175
 20
7.02083
 30
0.0
 40
0
 41
0
  0
VERTEX
  8
0
 10
2.14551
 20
7.01172
 30
0.0
 40
0
 41
0
  0
VERTEX
  8
0
 10
2.15343
 20
7.01172
 30
0.0
 40
0
 41
0
  0
VERTEX
  8
0
 10
2.15967
 20
7.01199
 30
0.0
 40
0
 41
0
  0
VERTEX
  8
0
 10
2.18229
 20
7.02121
 30
0.0
 40
0
 41
0
  0
VERTEX
  8
0
 10
2.19347
 20
7.03103
 30
0.0
 40
0
 41
0
  0
VERTEX
  8
0
 10
2.19401
 20
7.03153
 30
0.0
 40
0
 41
0
  0
SEQEND
 8
0
  0
POLYLINE
  8
0
 62
     0
 66
     1
 10
0
 20
0
 30
0.0
 40
0.75
 41
0.75
  0
VERTEX
  8
0
 10
2.10965
 20
7.03153
 30
0.0
 40
0.0104167
 41
0.0104167
  0
VERTEX
  8
0
 10
2.10986
 20
7.03103
 30
0.0
 40
0.0104167
 41
0.0104167
  0
VERTEX
  8
0
 10
2.12175
 20
7.02083
 30
0.0
 40
0.0104167
 41
0.0104167
  0
VERTEX
  8
0
 10
2.14551
 20
7.01172
 30
0.0
 40
0.0104167
 41
0.0104167
  0
VERTEX
  8
0
 10
2.15343
 20
7.01172
 30
0.0
 40
0.0104167
 41
0.0104167
  0
VERTEX
  8
0
 10
2.15967
 20
7.01199
 30
0.0
 40
0.0104167
 41
0.0104167
  0
VERTEX
  8
0
 10
2.18229
 20
7.02121
 30
0.0
 40
0.0104167
 41
0.0104167
  0
VERTEX
  8
0
 10
2.19347
 20
7.03103
 30
0.0
 40
0.0104167
 41
0.0104167
  0
VERTEX
  8
0
 10
2.19401
 20
7.03153
 30
0.0
 40
0.0104167
 41
0.0104167
  0
SEQEND
 8
0
  0
POLYLINE
  8
0
 62
     7
 66
     1
 10
0
 20
0
 30
0.0
 70
     1
 40
0
 41
0
  0
VERTEX
  8
0
 10
2.13781
 20
7.18565
 30
0.0
 40
0
 41
0
  0
VERTEX
  8
0
 10
2.1659
 20
7.18565
 30
0.0
 40
0
 41
0
  0
VERTEX
  8
0
 10
2.1659
 20
7.10232
 30
0.0
 40
0
 41
0
  0
VERTEX
  8
0
 10
2.15886
 20
7.10232
 30
0.0
 40
0
 41
0
  0
VERTEX
  8
0
 10
2.14307
 20
7.10232
 30
0.0
 40
0
 41
0
  0
VERTEX
  8
0
 10
2.13781
 20
7.10232
 30
0.0
 40
0
 41
0
  0
VERTEX
  8
0
 10
2.13781
 20
7.12315
 30
0.0
 40
0
 41
0
  0
VERTEX
  8
0
 10
2.13781
 20
7.17003
 30
0.0
 40
0
 41
0
  0
VERTEX
  8
0
 10
2.13781
 20
7.18565
 30
0.0
 40
0
 41
0
  0
SEQEND
 8
0
  0
POLYLINE
  8
0
 62
     0
 66
     1
 10
0
 20
0
 30
0.0
 70
     1
 40
0.75
 41
0.75
  0
VERTEX
  8
0
 10
2.13781
 20
7.18565
 30
0.0
 40
0.0104167
 41
0.0104167
  0
VERTEX
  8
0
 10
2.1659
 20
7.18565
 30
0.0
 40
0.0104167
 41
0.0104167
  0
VERTEX
  8
0
 10
2.1659
 20
7.10232
 30
0.0
 40
0.0104167
 41
0.0104167
  0
VERTEX
  8
0
 10
2.15886
 20
7.10232
 30
0.0
 40
0.0104167
 41
0.0104167
  0
VERTEX
  8
0
 10
2.14307
 20
7.10232
 30
0.0
 40
0.0104167
 41
0.0104167
  0
VERTEX
  8
0
 10
2.13781
 20
7.10232
 30
0.0
 40
0.0104167
 41
0.0104167
  0
VERTEX
  8
0
 10
2.13781
 20
7.12315
 30
0.0
 40
0.0104167
 41
0.0104167
  0
VERTEX
  8
0
 10
2.13781
 20
7.17003
 30
0.0
 40
0.0104167
 41
0.0104167
  0
VERTEX
  8
0
 10
2.13781
 20
7.18565
 30
0.0
 40
0.0104167
 41
0.0104167
  0
SEQEND
 8
0
  0
POLYLINE
  8
0
 62
     7
 66
     1
 10
0
 20
0
 30
0.0
 70
     1
 40
0
 41
0
  0
VERTEX
  8
0
 10
2.02111
 20
7.15338
 30
0.0
 40
0
 41
0
  0
VERTEX
  8
0
 10
2.02431
 20
7.15462
 30
0.0
 40
0
 41
0
  0
VERTEX
  8
0
 10
2.03396
 20
7.15847
 30
0.0
 40
0
 41
0
  0
VERTEX
  8
0
 10
2.03674
 20
7.15961
 30
0.0
 40
0
 41
0
  0
VERTEX
  8
0
 10
2.03674
 20
7.15961
 30
0.0
 40
0
 41
0
  0
VERTEX
  8
0
 10
2.03674
 20
7.15821
 30
0.0
 40
0
 41
0
  0
VERTEX
  8
0
 10
2.03674
 20
7.15392
 30
0.0
 40
0
 41
0
  0
VERTEX
  8
0
 10
2.03674
 20
7.14963
 30
0.0
 40
0
 41
0
  0
VERTEX
  8
0
 10
2.03674
 20
7.14817
 30
0.0
 40
0
 41
0
  0
VERTEX
  8
0
 10
2.03674
 20
7.14817
 30
0.0
 40
0
 41
0
  0
VERTEX
  8
0
 10
2.03435
 20
7.14882
 30
0.0
 40
0
 41
0
  0
VERTEX
  8
0
 10
2.02436
 20
7.15224
 30
0.0
 40
0
 41
0
  0
VERTEX
  8
0
 10
2.02111
 20
7.15338
 30
0.0
 40
0
 41
0
  0
SEQEND
 8
0
  0
POLYLINE
  8
0
 62
     0
 66
     1
 10
0
 20
0
 30
0.0
 70
     1
 40
0.75
 41
0.75
  0
VERTEX
  8
0
 10
2.02111
 20
7.15338
 30
0.0
 40
0.0104167
 41
0.0104167
  0
VERTEX
  8
0
 10
2.02431
 20
7.15462
 30
0.0
 40
0.0104167
 41
0.0104167
  0
VERTEX
  8
0
 10
2.03396
 20
7.15847
 30
0.0
 40
0.0104167
 41
0.0104167
  0
VERTEX
  8
0
 10
2.03674
 20
7.15961
 30
0.0
 40
0.0104167
 41
0.0104167
  0
VERTEX
  8
0
 10
2.03674
 20
7.15961
 30
0.0
 40
0.0104167
 41
0.0104167
  0
VERTEX
  8
0
 10
2.03674
 20
7.15821
 30
0.0
 40
0.0104167
 41
0.0104167
  0
VERTEX
  8
0
 10
2.03674
 20
7.15392
 30
0.0
 40
0.0104167
 41
0.0104167
  0
VERTEX
  8
0
 10
2.03674
 20
7.14963
 30
0.0
 40
0.0104167
 41
0.0104167
  0
VERTEX
  8
0
 10
2.03674
 20
7.14817
 30
0.0
 40
0.0104167
 41
0.0104167
  0
VERTEX
  8
0
 10
2.03674
 20
7.14817
 30
0.0
 40
0.0104167
 41
0.0104167
  0
VERTEX
  8
0
 10
2.03435
 20
7.14882
 30
0.0
 40
0.0104167
 41
0.0104167
  0
VERTEX
  8
0
 10
2.02436
 20
7.15224
 30
0.0
 40
0.0104167
 41
0.0104167
  0
VERTEX
  8
0
 10
2.02111
 20
7.15338
 30
0.0
 40
0.0104167
 41
0.0104167
  0
SEQEND
 8
0
  0
POLYLINE
  8
0
 62
     7
 66
     1
 10
0
 20
0
 30
0.0
 70
     1
 40
0
 41
0
  0
VERTEX
  8
0
 10
2.28153
 20
7.15338
 30
0.0
 40
0
 41
0
  0
VERTEX
  8
0
 10
2.27826
 20
7.15462
 30
0.0
 40
0
 41
0
  0
VERTEX
  8
0
 10
2.26861
 20
7.15847
 30
0.0
 40
0
 41
0
  0
VERTEX
  8
0
 10
2.2659
 20
7.15961
 30
0.0
 40
0
 41
0
  0
VERTEX
  8
0
 10
2.2659
 20
7.15961
 30
0.0
 40
0
 41
0
  0
VERTEX
  8
0
 10
2.2659
 20
7.15821
 30
0.0
 40
0
 41
0
  0
VERTEX
  8
0
 10
2.2659
 20
7.15392
 30
0.0
 40
0
 41
0
  0
VERTEX
  8
0
 10
2.2659
 20
7.14963
 30
0.0
 40
0
 41
0
  0
VERTEX
  8
0
 10
2.2659
 20
7.14817
 30
0.0
 40
0
 41
0
  0
VERTEX
  8
0
 10
2.2659
 20
7.14817
 30
0.0
 40
0
 41
0
  0
VERTEX
  8
0
 10
2.26824
 20
7.14882
 30
0.0
 40
0
 41
0
  0
VERTEX
  8
0
 10
2.27821
 20
7.15224
 30
0.0
 40
0
 41
0
  0
VERTEX
  8
0
 10
2.28153
 20
7.15338
 30
0.0
 40
0
 41
0
  0
SEQEND
 8
0
  0
POLYLINE
  8
0
 62
     0
 66
     1
 10
0
 20
0
 30
0.0
 70
     1
 40
0.75
 41
0.75
  0
VERTEX
  8
0
 10
2.28153
 20
7.15338
 30
0.0
 40
0.0104167
 41
0.0104167
  0
VERTEX
  8
0
 10
2.27826
 20
7.15462
 30
0.0
 40
0.0104167
 41
0.0104167
  0
VERTEX
  8
0
 10
2.26861
 20
7.15847
 30
0.0
 40
0.0104167
 41
0.0104167
  0
VERTEX
  8
0
 10
2.2659
 20
7.15961
 30
0.0
 40
0.0104167
 41
0.0104167
  0
VERTEX
  8
0
 10
2.2659
 20
7.15961
 30
0.0
 40
0.0104167
 41
0.0104167
  0
VERTEX
  8
0
 10
2.2659
 20
7.15821
 30
0.0
 40
0.0104167
 41
0.0104167
  0
VERTEX
  8
0
 10
2.2659
 20
7.15392
 30
0.0
 40
0.0104167
 41
0.0104167
  0
VERTEX
  8
0
 10
2.2659
 20
7.14963
 30
0.0
 40
0.0104167
 41
0.0104167
  0
VERTEX
  8
0
 10
2.2659
 20
7.14817
 30
0.0
 40
0.0104167
 41
0.0104167
  0
VERTEX
  8
0
 10
2.2659
 20
7.14817
 30
0.0
 40
0.0104167
 41
0.0104167
  0
VERTEX
  8
0
 10
2.26824
 20
7.14882
 30
0.0
 40
0.0104167
 41
0.0104167
  0
VERTEX
  8
0
 10
2.27821
 20
7.15224
 30
0.0
 40
0.0104167
 41
0.0104167
  0
VERTEX
  8
0
 10
2.28153
 20
7.15338
 30
0.0
 40
0.0104167
 41
0.0104167
  0
SEQEND
 8
0
  0
POLYLINE
  8
0
 62
     7
 66
     1
 10
0
 20
0
 30
0.0
 70
     1
 40
0
 41
0
  0
VERTEX
  8
0
 10
3.21306
 20
7.18565
 30
0.0
 40
0
 41
0
  0
VERTEX
  8
0
 10
3.32975
 20
7.18565
 30
0.0
 40
0
 41
0
  0
VERTEX
  8
0
 10
3.32975
 20
7.12213
 30
0.0
 40
0
 41
0
  0
VERTEX
  8
0
 10
3.21306
 20
7.12213
 30
0.0
 40
0
 41
0
  0
VERTEX
  8
0
 10
3.21306
 20
7.18565
 30
0.0
 40
0
 41
0
  0
SEQEND
 8
0
  0
POLYLINE
  8
0
 62
     0
 66
     1
 10
0
 20
0
 30
0.0
 70
     1
 40
0.75
 41
0.75
  0
VERTEX
  8
0
 10
3.21306
 20
7.18565
 30
0.0
 40
0.0104167
 41
0.0104167
  0
VERTEX
  8
0
 10
3.32975
 20
7.18565
 30
0.0
 40
0.0104167
 41
0.0104167
  0
VERTEX
  8
0
 10
3.32975
 20
7.12213
 30
0.0
 40
0.0104167
 41
0.0104167
  0
VERTEX
  8
0
 10
3.21306
 20
7.12213
 30
0.0
 40
0.0104167
 41
0.0104167
  0
VERTEX
  8
0
 10
3.21306
 20
7.18565
 30
0.0
 40
0.0104167
 41
0.0104167
  0
SEQEND
 8
0
  0
POLYLINE
  8
0
 62
     7
 66
     1
 10
0
 20
0
 30
0.0
 70
     1
 40
0
 41
0
  0
VERTEX
  8
0
 10
3.35786
 20
7.18565
 30
0.0
 40
0
 41
0
  0
VERTEX
  8
0
 10
3.47456
 20
7.18565
 30
0.0
 40
0
 41
0
  0
VERTEX
  8
0
 10
3.47456
 20
7.12213
 30
0.0
 40
0
 41
0
  0
VERTEX
  8
0
 10
3.35786
 20
7.12213
 30
0.0
 40
0
 41
0
  0
VERTEX
  8
0
 10
3.35786
 20
7.18565
 30
0.0
 40
0
 41
0
  0
SEQEND
 8
0
  0
POLYLINE
  8
0
 62
     0
 66
     1
 10
0
 20
0
 30
0.0
 70
     1
 40
0.75
 41
0.75
  0
VERTEX
  8
0
 10
3.35786
 20
7.18565
 30
0.0
 40
0.0104167
 41
0.0104167
  0
VERTEX
  8
0
 10
3.47456
 20
7.18565
 30
0.0
 40
0.0104167
 41
0.0104167
  0
VERTEX
  8
0
 10
3.47456
 20
7.12213
 30
0.0
 40
0.0104167
 41
0.0104167
  0
VERTEX
  8
0
 10
3.35786
 20
7.12213
 30
0.0
 40
0.0104167
 41
0.0104167
  0
VERTEX
  8
0
 10
3.35786
 20
7.18565
 30
0.0
 40
0.0104167
 41
0.0104167
  0
SEQEND
 8
0
  0
POLYLINE
  8
0
 62
     7
 66
     1
 10
0
 20
0
 30
0.0
 70
     1
 40
0
 41
0
  0
VERTEX
  8
0
 10
3.47347
 20
7.18565
 30
0.0
 40
0
 41
0
  0
VERTEX
  8
0
 10
3.5089
 20
7.18565
 30
0.0
 40
0
 41
0
  0
VERTEX
  8
0
 10
3.5089
 20
7.12213
 30
0.0
 40
0
 41
0
  0
VERTEX
  8
0
 10
3.47347
 20
7.12213
 30
0.0
 40
0
 41
0
  0
VERTEX
  8
0
 10
3.47347
 20
7.18565
 30
0.0
 40
0
 41
0
  0
SEQEND
 8
0
  0
POLYLINE
  8
0
 62
     0
 66
     1
 10
0
 20
0
 30
0.0
 70
     1
 40
0.75
 41
0.75
  0
VERTEX
  8
0
 10
3.47347
 20
7.18565
 30
0.0
 40
0.0104167
 41
0.0104167
  0
VERTEX
  8
0
 10
3.5089
 20
7.18565
 30
0.0
 40
0.0104167
 41
0.0104167
  0
VERTEX
  8
0
 10
3.5089
 20
7.12213
 30
0.0
 40
0.0104167
 41
0.0104167
  0
VERTEX
  8
0
 10
3.47347
 20
7.12213
 30
0.0
 40
0.0104167
 41
0.0104167
  0
VERTEX
  8
0
 10
3.47347
 20
7.18565
 30
0.0
 40
0.0104167
 41
0.0104167
  0
SEQEND
 8
0
  0
POLYLINE
  8
0
 62
     7
 66
     1
 10
0
 20
0
 30
0.0
 70
     1
 40
0
 41
0
  0
VERTEX
  8
0
 10
3.17974
 20
7.18565
 30
0.0
 40
0
 41
0
  0
VERTEX
  8
0
 10
3.21306
 20
7.18565
 30
0.0
 40
0
 41
0
  0
VERTEX
  8
0
 10
3.21306
 20
7.12213
 30
0.0
 40
0
 41
0
  0
VERTEX
  8
0
 10
3.17974
 20
7.12213
 30
0.0
 40
0
 41
0
  0
VERTEX
  8
0
 10
3.17974
 20
7.18565
 30
0.0
 40
0
 41
0
  0
SEQEND
 8
0
  0
POLYLINE
  8
0
 62
     0
 66
     1
 10
0
 20
0
 30
0.0
 70
     1
 40
0.75
 41
0.75
  0
VERTEX
  8
0
 10
3.17974
 20
7.18565
 30
0.0
 40
0.0104167
 41
0.0104167
  0
VERTEX
  8
0
 10
3.21306
 20
7.18565
 30
0.0
 40
0.0104167
 41
0.0104167
  0
VERTEX
  8
0
 10
3.21306
 20
7.12213
 30
0.0
 40
0.0104167
 41
0.0104167
  0
VERTEX
  8
0
 10
3.17974
 20
7.12213
 30
0.0
 40
0.0104167
 41
0.0104167
  0
VERTEX
  8
0
 10
3.17974
 20
7.18565
 30
0.0
 40
0.0104167
 41
0.0104167
  0
SEQEND
 8
0
  0
POLYLINE
  8
0
 62
     7
 66
     1
 10
0
 20
0
 30
0.0
 70
     1
 40
0
 41
0
  0
VERTEX
  8
0
 10
3.32975
 20
7.10232
 30
0.0
 40
0
 41
0
  0
VERTEX
  8
0
 10
3.32975
 20
7.09603
 30
0.0
 40
0
 41
0
  0
VERTEX
  8
0
 10
3.32607
 20
7.0771
 30
0.0
 40
0
 41
0
  0
VERTEX
  8
0
 10
3.31619
 20
7.05469
 30
0.0
 40
0
 41
0
  0
VERTEX
  8
0
 10
3.3131
 20
7.05024
 30
0.0
 40
0
 41
0
  0
VERTEX
  8
0
 10
3.31201
 20
7.04872
 30
0.0
 40
0
 41
0
  0
VERTEX
  8
0
 10
3.30186
 20
7.03413
 30
0.0
 40
0
 41
0
  0
VERTEX
  8
0
 10
3.3016
 20
7.03256
 30
0.0
 40
0
 41
0
  0
VERTEX
  8
0
 10
3.30106
 20
7.02974
 30
0.0
 40
0
 41
0
  0
VERTEX
  8
0
 10
3.30524
 20
7.01318
 30
0.0
 40
0
 41
0
  0
VERTEX
  8
0
 10
3.32189
 20
7.00028
 30
0.0
 40
0
 41
0
  0
VERTEX
  8
0
 10
3.32764
 20
6.99918
 30
0.0
 40
0
 41
0
  0
VERTEX
  8
0
 10
3.32894
 20
6.99897
 30
0.0
 40
0
 41
0
  0
VERTEX
  8
0
 10
3.3405
 20
6.99815
 30
0.0
 40
0
 41
0
  0
VERTEX
  8
0
 10
3.34435
 20
6.99815
 30
0.0
 40
0
 41
0
  0
VERTEX
  8
0
 10
3.34326
 20
6.99815
 30
0.0
 40
0
 41
0
  0
VERTEX
  8
0
 10
3.34744
 20
6.99815
 30
0.0
 40
0
 41
0
  0
VERTEX
  8
0
 10
3.35867
 20
6.99897
 30
0.0
 40
0
 41
0
  0
VERTEX
  8
0
 10
3.35997
 20
6.99918
 30
0.0
 40
0
 41
0
  0
VERTEX
  8
0
 10
3.36567
 20
7.00028
 30
0.0
 40
0
 41
0
  0
VERTEX
  8
0
 10
3.38232
 20
7.01318
 30
0.0
 40
0
 41
0
  0
VERTEX
  8
0
 10
3.3865
 20
7.02974
 30
0.0
 40
0
 41
0
  0
VERTEX
  8
0
 10
3.38601
 20
7.03256
 30
0.0
 40
0
 41
0
  0
VERTEX
  8
0
 10
3.38574
 20
7.03413
 30
0.0
 40
0
 41
0
  0
VERTEX
  8
0
 10
3.37554
 20
7.04872
 30
0.0
 40
0
 41
0
  0
VERTEX
  8
0
 10
3.37451
 20
7.05024
 30
0.0
 40
0
 41
0
  0
VERTEX
  8
0
 10
3.37136
 20
7.05469
 30
0.0
 40
0
 41
0
  0
VERTEX
  8
0
 10
3.36149
 20
7.0771
 30
0.0
 40
0
 41
0
  0
VERTEX
  8
0
 10
3.35786
 20
7.09603
 30
0.0
 40
0
 41
0
  0
VERTEX
  8
0
 10
3.35786
 20
7.10232
 30
0.0
 40
0
 41
0
  0
SEQEND
 8
0
  0
POLYLINE
  8
0
 62
     0
 66
     1
 10
0
 20
0
 30
0.0
 40
0.75
 41
0.75
  0
VERTEX
  8
0
 10
3.32975
 20
7.10232
 30
0.0
 40
0.0104167
 41
0.0104167
  0
VERTEX
  8
0
 10
3.32975
 20
7.09603
 30
0.0
 40
0.0104167
 41
0.0104167
  0
VERTEX
  8
0
 10
3.32607
 20
7.0771
 30
0.0
 40
0.0104167
 41
0.0104167
  0
VERTEX
  8
0
 10
3.31619
 20
7.05469
 30
0.0
 40
0.0104167
 41
0.0104167
  0
VERTEX
  8
0
 10
3.3131
 20
7.05024
 30
0.0
 40
0.0104167
 41
0.0104167
  0
VERTEX
  8
0
 10
3.31201
 20
7.04872
 30
0.0
 40
0.0104167
 41
0.0104167
  0
VERTEX
  8
0
 10
3.30186
 20
7.03413
 30
0.0
 40
0.0104167
 41
0.0104167
  0
VERTEX
  8
0
 10
3.3016
 20
7.03256
 30
0.0
 40
0.0104167
 41
0.0104167
  0
VERTEX
  8
0
 10
3.30106
 20
7.02974
 30
0.0
 40
0.0104167
 41
0.0104167
  0
VERTEX
  8
0
 10
3.30524
 20
7.01318
 30
0.0
 40
0.0104167
 41
0.0104167
  0
VERTEX
  8
0
 10
3.32189
 20
7.00028
 30
0.0
 40
0.0104167
 41
0.0104167
  0
VERTEX
  8
0
 10
3.32764
 20
6.99918
 30
0.0
 40
0.0104167
 41
0.0104167
  0
VERTEX
  8
0
 10
3.32894
 20
6.99897
 30
0.0
 40
0.0104167
 41
0.0104167
  0
VERTEX
  8
0
 10
3.3405
 20
6.99815
 30
0.0
 40
0.0104167
 41
0.0104167
  0
VERTEX
  8
0
 10
3.34435
 20
6.99815
 30
0.0
 40
0.0104167
 41
0.0104167
  0
VERTEX
  8
0
 10
3.34326
 20
6.99815
 30
0.0
 40
0.0104167
 41
0.0104167
  0
VERTEX
  8
0
 10
3.34744
 20
6.99815
 30
0.0
 40
0.0104167
 41
0.0104167
  0
VERTEX
  8
0
 10
3.35867
 20
6.99897
 30
0.0
 40
0.0104167
 41
0.0104167
  0
VERTEX
  8
0
 10
3.35997
 20
6.99918
 30
0.0
 40
0.0104167
 41
0.0104167
  0
VERTEX
  8
0
 10
3.36567
 20
7.00028
 30
0.0
 40
0.0104167
 41
0.0104167
  0
VERTEX
  8
0
 10
3.38232
 20
7.01318
 30
0.0
 40
0.0104167
 41
0.0104167
  0
VERTEX
  8
0
 10
3.3865
 20
7.02974
 30
0.0
 40
0.0104167
 41
0.0104167
  0
VERTEX
  8
0
 10
3.38601
 20
7.03256
 30
0.0
 40
0.0104167
 41
0.0104167
  0
VERTEX
  8
0
 10
3.38574
 20
7.03413
 30
0.0
 40
0.0104167
 41
0.0104167
  0
VERTEX
  8
0
 10
3.37554
 20
7.04872
 30
0.0
 40
0.0104167
 41
0.0104167
  0
VERTEX
  8
0
 10
3.37451
 20
7.05024
 30
0.0
 40
0.0104167
 41
0.0104167
  0
VERTEX
  8
0
 10
3.37136
 20
7.05469
 30
0.0
 40
0.0104167
 41
0.0104167
  0
VERTEX
  8
0
 10
3.36149
 20
7.0771
 30
0.0
 40
0.0104167
 41
0.0104167
  0
VERTEX
  8
0
 10
3.35786
 20
7.09603
 30
0.0
 40
0.0104167
 41
0.0104167
  0
VERTEX
  8
0
 10
3.35786
 20
7.10232
 30
0.0
 40
0.0104167
 41
0.0104167
  0
SEQEND
 8
0
  0
POLYLINE
  8
0
 62
     7
 66
     1
 10
0
 20
0
 30
0.0
 70
     1
 40
0
 41
0
  0
VERTEX
  8
0
 10
3.3016
 20
7.03153
 30
0.0
 40
0
 41
0
  0
VERTEX
  8
0
 10
3.30186
 20
7.03103
 30
0.0
 40
0
 41
0
  0
VERTEX
  8
0
 10
3.31369
 20
7.02083
 30
0.0
 40
0
 41
0
  0
VERTEX
  8
0
 10
3.33746
 20
7.01172
 30
0.0
 40
0
 41
0
  0
VERTEX
  8
0
 10
3.34538
 20
7.01172
 30
0.0
 40
0
 41
0
  0
VERTEX
  8
0
 10
3.35161
 20
7.01199
 30
0.0
 40
0
 41
0
  0
VERTEX
  8
0
 10
3.37424
 20
7.02121
 30
0.0
 40
0
 41
0
  0
VERTEX
  8
0
 10
3.38547
 20
7.03103
 30
0.0
 40
0
 41
0
  0
VERTEX
  8
0
 10
3.38601
 20
7.03153
 30
0.0
 40
0
 41
0
  0
SEQEND
 8
0
  0
POLYLINE
  8
0
 62
     0
 66
     1
 10
0
 20
0
 30
0.0
 40
0.75
 41
0.75
  0
VERTEX
  8
0
 10
3.3016
 20
7.03153
 30
0.0
 40
0.0104167
 41
0.0104167
  0
VERTEX
  8
0
 10
3.30186
 20
7.03103
 30
0.0
 40
0.0104167
 41
0.0104167
  0
VERTEX
  8
0
 10
3.31369
 20
7.02083
 30
0.0
 40
0.0104167
 41
0.0104167
  0
VERTEX
  8
0
 10
3.33746
 20
7.01172
 30
0.0
 40
0.0104167
 41
0.0104167
  0
VERTEX
  8
0
 10
3.34538
 20
7.01172
 30
0.0
 40
0.0104167
 41
0.0104167
  0
VERTEX
  8
0
 10
3.35161
 20
7.01199
 30
0.0
 40
0.0104167
 41
0.0104167
  0
VERTEX
  8
0
 10
3.37424
 20
7.02121
 30
0.0
 40
0.0104167
 41
0.0104167
  0
VERTEX
  8
0
 10
3.38547
 20
7.03103
 30
0.0
 40
0.0104167
 41
0.0104167
  0
VERTEX
  8
0
 10
3.38601
 20
7.03153
 30
0.0
 40
0.0104167
 41
0.0104167
  0
SEQEND
 8
0
  0
POLYLINE
  8
0
 62
     7
 66
     1
 10
0
 20
0
 30
0.0
 70
     1
 40
0
 41
0
  0
VERTEX
  8
0
 10
3.32975
 20
7.18565
 30
0.0
 40
0
 41
0
  0
VERTEX
  8
0
 10
3.35786
 20
7.18565
 30
0.0
 40
0
 41
0
  0
VERTEX
  8
0
 10
3.35786
 20
7.10232
 30
0.0
 40
0
 41
0
  0
VERTEX
  8
0
 10
3.35081
 20
7.10232
 30
0.0
 40
0
 41
0
  0
VERTEX
  8
0
 10
3.33501
 20
7.10232
 30
0.0
 40
0
 41
0
  0
VERTEX
  8
0
 10
3.32975
 20
7.10232
 30
0.0
 40
0
 41
0
  0
VERTEX
  8
0
 10
3.32975
 20
7.12315
 30
0.0
 40
0
 41
0
  0
VERTEX
  8
0
 10
3.32975
 20
7.17003
 30
0.0
 40
0
 41
0
  0
VERTEX
  8
0
 10
3.32975
 20
7.18565
 30
0.0
 40
0
 41
0
  0
SEQEND
 8
0
  0
POLYLINE
  8
0
 62
     0
 66
     1
 10
0
 20
0
 30
0.0
 70
     1
 40
0.75
 41
0.75
  0
VERTEX
  8
0
 10
3.32975
 20
7.18565
 30
0.0
 40
0.0104167
 41
0.0104167
  0
VERTEX
  8
0
 10
3.35786
 20
7.18565
 30
0.0
 40
0.0104167
 41
0.0104167
  0
VERTEX
  8
0
 10
3.35786
 20
7.10232
 30
0.0
 40
0.0104167
 41
0.0104167
  0
VERTEX
  8
0
 10
3.35081
 20
7.10232
 30
0.0
 40
0.0104167
 41
0.0104167
  0
VERTEX
  8
0
 10
3.33501
 20
7.10232
 30
0.0
 40
0.0104167
 41
0.0104167
  0
VERTEX
  8
0
 10
3.32975
 20
7.10232
 30
0.0
 40
0.0104167
 41
0.0104167
  0
VERTEX
  8
0
 10
3.32975
 20
7.12315
 30
0.0
 40
0.0104167
 41
0.0104167
  0
VERTEX
  8
0
 10
3.32975
 20
7.17003
 30
0.0
 40
0.0104167
 41
0.0104167
  0
VERTEX
  8
0
 10
3.32975
 20
7.18565
 30
0.0
 40
0.0104167
 41
0.0104167
  0
SEQEND
 8
0
  0
POLYLINE
  8
0
 62
     7
 66
     1
 10
0
 20
0
 30
0.0
 70
     1
 40
0
 41
0
  0
VERTEX
  8
0
 10
3.21306
 20
7.15338
 30
0.0
 40
0
 41
0
  0
VERTEX
  8
0
 10
3.21625
 20
7.15462
 30
0.0
 40
0
 41
0
  0
VERTEX
  8
0
 10
3.22592
 20
7.15847
 30
0.0
 40
0
 41
0
  0
VERTEX
  8
0
 10
3.22868
 20
7.15961
 30
0.0
 40
0
 41
0
  0
VERTEX
  8
0
 10
3.22868
 20
7.15961
 30
0.0
 40
0
 41
0
  0
VERTEX
  8
0
 10
3.22868
 20
7.15821
 30
0.0
 40
0
 41
0
  0
VERTEX
  8
0
 10
3.22868
 20
7.15392
 30
0.0
 40
0
 41
0
  0
VERTEX
  8
0
 10
3.22868
 20
7.14963
 30
0.0
 40
0
 41
0
  0
VERTEX
  8
0
 10
3.22868
 20
7.14817
 30
0.0
 40
0
 41
0
  0
VERTEX
  8
0
 10
3.22868
 20
7.14817
 30
0.0
 40
0
 41
0
  0
VERTEX
  8
0
 10
3.22629
 20
7.14882
 30
0.0
 40
0
 41
0
  0
VERTEX
  8
0
 10
3.21631
 20
7.15224
 30
0.0
 40
0
 41
0
  0
VERTEX
  8
0
 10
3.21306
 20
7.15338
 30
0.0
 40
0
 41
0
  0
SEQEND
 8
0
  0
POLYLINE
  8
0
 62
     0
 66
     1
 10
0
 20
0
 30
0.0
 70
     1
 40
0.75
 41
0.75
  0
VERTEX
  8
0
 10
3.21306
 20
7.15338
 30
0.0
 40
0.0104167
 41
0.0104167
  0
VERTEX
  8
0
 10
3.21625
 20
7.15462
 30
0.0
 40
0.0104167
 41
0.0104167
  0
VERTEX
  8
0
 10
3.22592
 20
7.15847
 30
0.0
 40
0.0104167
 41
0.0104167
  0
VERTEX
  8
0
 10
3.22868
 20
7.15961
 30
0.0
 40
0.0104167
 41
0.0104167
  0
VERTEX
  8
0
 10
3.22868
 20
7.15961
 30
0.0
 40
0.0104167
 41
0.0104167
  0
VERTEX
  8
0
 10
3.22868
 20
7.15821
 30
0.0
 40
0.0104167
 41
0.0104167
  0
VERTEX
  8
0
 10
3.22868
 20
7.15392
 30
0.0
 40
0.0104167
 41
0.0104167
  0
VERTEX
  8
0
 10
3.22868
 20
7.14963
 30
0.0
 40
0.0104167
 41
0.0104167
  0
VERTEX
  8
0
 10
3.22868
 20
7.14817
 30
0.0
 40
0.0104167
 41
0.0104167
  0
VERTEX
  8
0
 10
3.22868
 20
7.14817
 30
0.0
 40
0.0104167
 41
0.0104167
  0
VERTEX
  8
0
 10
3.22629
 20
7.14882
 30
0.0
 40
0.0104167
 41
0.0104167
  0
VERTEX
  8
0
 10
3.21631
 20
7.15224
 30
0.0
 40
0.0104167
 41
0.0104167
  0
VERTEX
  8
0
 10
3.21306
 20
7.15338
 30
0.0
 40
0.0104167
 41
0.0104167
  0
SEQEND
 8
0
  0
POLYLINE
  8
0
 62
     7
 66
     1
 10
0
 20
0
 30
0.0
 70
     1
 40
0
 41
0
  0
VERTEX
  8
0
 10
3.47347
 20
7.15338
 30
0.0
 40
0
 41
0
  0
VERTEX
  8
0
 10
3.47021
 20
7.15462
 30
0.0
 40
0
 41
0
  0
VERTEX
  8
0
 10
3.46056
 20
7.15847
 30
0.0
 40
0
 41
0
  0
VERTEX
  8
0
 10
3.45785
 20
7.15961
 30
0.0
 40
0
 41
0
  0
VERTEX
  8
0
 10
3.45785
 20
7.15961
 30
0.0
 40
0
 41
0
  0
VERTEX
  8
0
 10
3.45785
 20
7.15821
 30
0.0
 40
0
 41
0
  0
VERTEX
  8
0
 10
3.45785
 20
7.15392
 30
0.0
 40
0
 41
0
  0
VERTEX
  8
0
 10
3.45785
 20
7.14963
 30
0.0
 40
0
 41
0
  0
VERTEX
  8
0
 10
3.45785
 20
7.14817
 30
0.0
 40
0
 41
0
  0
VERTEX
  8
0
 10
3.45785
 20
7.14817
 30
0.0
 40
0
 41
0
  0
VERTEX
  8
0
 10
3.46018
 20
7.14882
 30
0.0
 40
0
 41
0
  0
VERTEX
  8
0
 10
3.47017
 20
7.15224
 30
0.0
 40
0
 41
0
  0
VERTEX
  8
0
 10
3.47347
 20
7.15338
 30
0.0
 40
0
 41
0
  0
SEQEND
 8
0
  0
POLYLINE
  8
0
 62
     0
 66
     1
 10
0
 20
0
 30
0.0
 70
     1
 40
0.75
 41
0.75
  0
VERTEX
  8
0
 10
3.47347
 20
7.15338
 30
0.0
 40
0.0104167
 41
0.0104167
  0
VERTEX
  8
0
 10
3.47021
 20
7.15462
 30
0.0
 40
0.0104167
 41
0.0104167
  0
VERTEX
  8
0
 10
3.46056
 20
7.15847
 30
0.0
 40
0.0104167
 41
0.0104167
  0
VERTEX
  8
0
 10
3.45785
 20
7.15961
 30
0.0
 40
0.0104167
 41
0.0104167
  0
VERTEX
  8
0
 10
3.45785
 20
7.15961
 30
0.0
 40
0.0104167
 41
0.0104167
  0
VERTEX
  8
0
 10
3.45785
 20
7.15821
 30
0.0
 40
0.0104167
 41
0.0104167
  0
VERTEX
  8
0
 10
3.45785
 20
7.15392
 30
0.0
 40
0.0104167
 41
0.0104167
  0
VERTEX
  8
0
 10
3.45785
 20
7.14963
 30
0.0
 40
0.0104167
 41
0.0104167
  0
VERTEX
  8
0
 10
3.45785
 20
7.14817
 30
0.0
 40
0.0104167
 41
0.0104167
  0
VERTEX
  8
0
 10
3.45785
 20
7.14817
 30
0.0
 40
0.0104167
 41
0.0104167
  0
VERTEX
  8
0
 10
3.46018
 20
7.14882
 30
0.0
 40
0.0104167
 41
0.0104167
  0
VERTEX
  8
0
 10
3.47017
 20
7.15224
 30
0.0
 40
0.0104167
 41
0.0104167
  0
VERTEX
  8
0
 10
3.47347
 20
7.15338
 30
0.0
 40
0.0104167
 41
0.0104167
  0
SEQEND
 8
0
  0
ENDSEC
  0
EOF
