  0
SECTION
  2
HEADER
  9
$ACADVER
  1
AC1009
  9
$FILLMODE
 70
 0
  9
$SPLFRAME
 70
 1
  9
$EXTMIN
 10
0
 20
0
 30
0.0
  9
$EXTMAX
 10
41.6667
 20
41.6667
 30
0.0
  0
ENDSEC
  0
SECTION
  2
TABLES
  0
TABLE
  2
LAYER
 70
1
  0
LAYER
  2
0
 70
     0
 62
     7
  6
CONTINUOUS
  0
ENDTAB
  0
ENDSEC
  0
SECTION
  2
ENTITIES
  0
POLYLINE
  8
0
 62
     7
 66
     1
 10
0
 20
0
 30
0.0
 70
     1
 40
0
 41
0
  0
VERTEX
  8
0
 10
11.5094
 20
2.17176
 30
0.0
 40
0
 41
0
  0
VERTEX
  8
0
 10
9.92469
 20
2.17176
 30
0.0
 40
0
 41
0
  0
VERTEX
  8
0
 10
9.92469
 20
4.13883
 30
0.0
 40
0
 41
0
  0
VERTEX
  8
0
 10
8.21197
 20
4.13883
 30
0.0
 40
0
 41
0
  0
VERTEX
  8
0
 10
8.21197
 20
5.92356
 30
0.0
 40
0
 41
0
  0
VERTEX
  8
0
 10
11.5094
 20
5.92356
 30
0.0
 40
0
 41
0
  0
VERTEX
  8
0
 10
11.5094
 20
2.17176
 30
0.0
 40
0
 41
0
  0
SEQEND
 8
0
  0
POLYLINE
  8
0
 62
     7
 66
     1
 10
0
 20
0
 30
0.0
 70
     1
 40
0.15
 41
0.15
  0
VERTEX
  8
0
 10
11.5094
 20
2.17176
 30
0.0
 40
0.00208333
 41
0.00208333
  0
VERTEX
  8
0
 10
9.92469
 20
2.17176
 30
0.0
 40
0.00208333
 41
0.00208333
  0
VERTEX
  8
0
 10
9.92469
 20
4.13883
 30
0.0
 40
0.00208333
 41
0.00208333
  0
VERTEX
  8
0
 10
8.21197
 20
4.13883
 30
0.0
 40
0.00208333
 41
0.00208333
  0
VERTEX
  8
0
 10
8.21197
 20
5.92356
 30
0.0
 40
0.00208333
 41
0.00208333
  0
VERTEX
  8
0
 10
11.5094
 20
5.92356
 30
0.0
 40
0.00208333
 41
0.00208333
  0
VERTEX
  8
0
 10
11.5094
 20
2.17176
 30
0.0
 40
0.00208333
 41
0.00208333
  0
SEQEND
 8
0
  0
TEXT
  8
0
 62
     0
 10
9.86244
 20
4.65557
 30
0.0
 40
0.34375
  1
ET
 50
0
  0
POLYLINE
  8
0
 62
     7
 66
     1
 10
0
 20
0
 30
0.0
 70
     1
 40
0
 41
0
  0
VERTEX
  8
0
 10
15.8785
 20
5.00874
 30
0.0
 40
0
 41
0
  0
VERTEX
  8
0
 10
15.9507
 20
5.00874
 30
0.0
 40
0
 41
0
  0
VERTEX
  8
0
 10
15.9507
 20
2.84022
 30
0.0
 40
0
 41
0
  0
VERTEX
  8
0
 10
15.8785
 20
2.84022
 30
0.0
 40
0
 41
0
  0
VERTEX
  8
0
 10
15.8785
 20
2.17176
 30
0.0
 40
0
 41
0
  0
VERTEX
  8
0
 10
11.6136
 20
2.17176
 30
0.0
 40
0
 41
0
  0
VERTEX
  8
0
 10
11.6136
 20
5.92356
 30
0.0
 40
0
 41
0
  0
VERTEX
  8
0
 10
13.1882
 20
5.92356
 30
0.0
 40
0
 41
0
  0
VERTEX
  8
0
 10
13.1882
 20
5.61312
 30
0.0
 40
0
 41
0
  0
VERTEX
  8
0
 10
13.5633
 20
5.61312
 30
0.0
 40
0
 41
0
  0
VERTEX
  8
0
 10
13.5633
 20
5.92356
 30
0.0
 40
0
 41
0
  0
VERTEX
  8
0
 10
15.8785
 20
5.92356
 30
0.0
 40
0
 41
0
  0
VERTEX
  8
0
 10
15.8785
 20
5.00874
 30
0.0
 40
0
 41
0
  0
SEQEND
 8
0
  0
POLYLINE
  8
0
 62
     7
 66
     1
 10
0
 20
0
 30
0.0
 70
     1
 40
0.15
 41
0.15
  0
VERTEX
  8
0
 10
15.8785
 20
5.00874
 30
0.0
 40
0.00208333
 41
0.00208333
  0
VERTEX
  8
0
 10
15.9507
 20
5.00874
 30
0.0
 40
0.00208333
 41
0.00208333
  0
VERTEX
  8
0
 10
15.9507
 20
2.84022
 30
0.0
 40
0.00208333
 41
0.00208333
  0
VERTEX
  8
0
 10
15.8785
 20
2.84022
 30
0.0
 40
0.00208333
 41
0.00208333
  0
VERTEX
  8
0
 10
15.8785
 20
2.17176
 30
0.0
 40
0.00208333
 41
0.00208333
  0
VERTEX
  8
0
 10
11.6136
 20
2.17176
 30
0.0
 40
0.00208333
 41
0.00208333
  0
VERTEX
  8
0
 10
11.6136
 20
5.92356
 30
0.0
 40
0.00208333
 41
0.00208333
  0
VERTEX
  8
0
 10
13.1882
 20
5.92356
 30
0.0
 40
0.00208333
 41
0.00208333
  0
VERTEX
  8
0
 10
13.1882
 20
5.61312
 30
0.0
 40
0.00208333
 41
0.00208333
  0
VERTEX
  8
0
 10
13.5633
 20
5.61312
 30
0.0
 40
0.00208333
 41
0.00208333
  0
VERTEX
  8
0
 10
13.5633
 20
5.92356
 30
0.0
 40
0.00208333
 41
0.00208333
  0
VERTEX
  8
0
 10
15.8785
 20
5.92356
 30
0.0
 40
0.00208333
 41
0.00208333
  0
VERTEX
  8
0
 10
15.8785
 20
5.00874
 30
0.0
 40
0.00208333
 41
0.00208333
  0
SEQEND
 8
0
  0
TEXT
  8
0
 62
     0
 10
13.7015
 20
3.96982
 30
0.0
 40
0.34375
  1
MH
 50
0
  0
POLYLINE
  8
0
 62
     7
 66
     1
 10
0
 20
0
 30
0.0
 70
     1
 40
0
 41
0
  0
VERTEX
  8
0
 10
8.21197
 20
4.13883
 30
0.0
 40
0
 41
0
  0
VERTEX
  8
0
 10
8.10812
 20
4.13883
 30
0.0
 40
0
 41
0
  0
VERTEX
  8
0
 10
8.10812
 20
0.377821
 30
0.0
 40
0
 41
0
  0
VERTEX
  8
0
 10
5.69781
 20
0.377821
 30
0.0
 40
0
 41
0
  0
VERTEX
  8
0
 10
5.69781
 20
0.29221
 30
0.0
 40
0
 41
0
  0
VERTEX
  8
0
 10
3.31375
 20
0.29221
 30
0.0
 40
0
 41
0
  0
VERTEX
  8
0
 10
3.31375
 20
2.87218
 30
0.0
 40
0
 41
0
  0
VERTEX
  8
0
 10
3.65603
 20
2.87218
 30
0.0
 40
0
 41
0
  0
VERTEX
  8
0
 10
3.65603
 20
3.18707
 30
0.0
 40
0
 41
0
  0
VERTEX
  8
0
 10
3.31375
 20
3.18707
 30
0.0
 40
0
 41
0
  0
VERTEX
  8
0
 10
3.31375
 20
6.70801
 30
0.0
 40
0
 41
0
  0
VERTEX
  8
0
 10
8.21197
 20
6.70801
 30
0.0
 40
0
 41
0
  0
VERTEX
  8
0
 10
8.21197
 20
4.13883
 30
0.0
 40
0
 41
0
  0
SEQEND
 8
0
  0
POLYLINE
  8
0
 62
     7
 66
     1
 10
0
 20
0
 30
0.0
 70
     1
 40
0.15
 41
0.15
  0
VERTEX
  8
0
 10
8.21197
 20
4.13883
 30
0.0
 40
0.00208333
 41
0.00208333
  0
VERTEX
  8
0
 10
8.10812
 20
4.13883
 30
0.0
 40
0.00208333
 41
0.00208333
  0
VERTEX
  8
0
 10
8.10812
 20
0.377821
 30
0.0
 40
0.00208333
 41
0.00208333
  0
VERTEX
  8
0
 10
5.69781
 20
0.377821
 30
0.0
 40
0.00208333
 41
0.00208333
  0
VERTEX
  8
0
 10
5.69781
 20
0.29221
 30
0.0
 40
0.00208333
 41
0.00208333
  0
VERTEX
  8
0
 10
3.31375
 20
0.29221
 30
0.0
 40
0.00208333
 41
0.00208333
  0
VERTEX
  8
0
 10
3.31375
 20
2.87218
 30
0.0
 40
0.00208333
 41
0.00208333
  0
VERTEX
  8
0
 10
3.65603
 20
2.87218
 30
0.0
 40
0.00208333
 41
0.00208333
  0
VERTEX
  8
0
 10
3.65603
 20
3.18707
 30
0.0
 40
0.00208333
 41
0.00208333
  0
VERTEX
  8
0
 10
3.31375
 20
3.18707
 30
0.0
 40
0.00208333
 41
0.00208333
  0
VERTEX
  8
0
 10
3.31375
 20
6.70801
 30
0.0
 40
0.00208333
 41
0.00208333
  0
VERTEX
  8
0
 10
8.21197
 20
6.70801
 30
0.0
 40
0.00208333
 41
0.00208333
  0
VERTEX
  8
0
 10
8.21197
 20
4.13883
 30
0.0
 40
0.00208333
 41
0.00208333
  0
SEQEND
 8
0
  0
TEXT
  8
0
 62
     0
 10
4.61746
 20
3.36283
 30
0.0
 40
0.34375
  1
TUP
 50
0
  0
TEXT
  8
0
 62
     0
 10
5.27983
 20
3.36283
 30
0.0
 40
0.34375
  1
AKEIT
 50
0
  0
TEXT
  8
0
 62
     0
 10
6.31474
 20
3.36283
 30
0.0
 40
0.34375
  1
TIÖ
 50
0
  0
POLYLINE
  8
0
 62
     7
 66
     1
 10
0
 20
0
 30
0.0
 70
     1
 40
0
 41
0
  0
VERTEX
  8
0
 10
1.43061
 20
6.04958
 30
0.0
 40
0
 41
0
  0
VERTEX
  8
0
 10
3.00125
 20
6.04958
 30
0.0
 40
0
 41
0
  0
VERTEX
  8
0
 10
3.00125
 20
0.208985
 30
0.0
 40
0
 41
0
  0
VERTEX
  8
0
 10
1.43061
 20
0.208985
 30
0.0
 40
0
 41
0
  0
VERTEX
  8
0
 10
1.43061
 20
6.04958
 30
0.0
 40
0
 41
0
  0
SEQEND
 8
0
  0
POLYLINE
  8
0
 62
     0
 66
     1
 10
0
 20
0
 30
0.0
 70
     1
 40
0.15
 41
0.15
  0
VERTEX
  8
0
 10
1.43061
 20
6.04958
 30
0.0
 40
0.00208333
 41
0.00208333
  0
VERTEX
  8
0
 10
3.00125
 20
6.04958
 30
0.0
 40
0.00208333
 41
0.00208333
  0
VERTEX
  8
0
 10
3.00125
 20
0.208985
 30
0.0
 40
0.00208333
 41
0.00208333
  0
VERTEX
  8
0
 10
1.43061
 20
0.208985
 30
0.0
 40
0.00208333
 41
0.00208333
  0
VERTEX
  8
0
 10
1.43061
 20
6.04958
 30
0.0
 40
0.00208333
 41
0.00208333
  0
SEQEND
 8
0
  0
TEXT
  8
0
 62
     0
 10
1.29892
 20
3.48757
 30
0.0
 40
0.34375
  1
ULK
 50
0
  0
TEXT
  8
0
 62
     0
 10
1.97653
 20
3.48757
 30
0.0
 40
0.34375
  1
O
 50
0
  0
TEXT
  8
0
 62
     0
 10
2.23883
 20
3.48757
 30
0.0
 40
0.34375
  1
TILA
 50
0
  0
POLYLINE
  8
0
 62
     7
 66
     1
 10
0
 20
0
 30
0.0
 70
     1
 40
0
 41
0
  0
VERTEX
  8
0
 10
9.73719
 20
0.586262
 30
0.0
 40
0
 41
0
  0
VERTEX
  8
0
 10
8.21229
 20
0.586262
 30
0.0
 40
0
 41
0
  0
VERTEX
  8
0
 10
8.21229
 20
2.98779
 30
0.0
 40
0
 41
0
  0
VERTEX
  8
0
 10
8.32596
 20
2.98779
 30
0.0
 40
0
 41
0
  0
VERTEX
  8
0
 10
8.32596
 20
3.21083
 30
0.0
 40
0
 41
0
  0
VERTEX
  8
0
 10
8.21229
 20
3.21083
 30
0.0
 40
0
 41
0
  0
VERTEX
  8
0
 10
8.21229
 20
4.03467
 30
0.0
 40
0
 41
0
  0
VERTEX
  8
0
 10
9.73719
 20
4.03467
 30
0.0
 40
0
 41
0
  0
VERTEX
  8
0
 10
9.73719
 20
0.586262
 30
0.0
 40
0
 41
0
  0
SEQEND
 8
0
  0
POLYLINE
  8
0
 62
     7
 66
     1
 10
0
 20
0
 30
0.0
 70
     1
 40
0.15
 41
0.15
  0
VERTEX
  8
0
 10
9.73719
 20
0.586262
 30
0.0
 40
0.00208333
 41
0.00208333
  0
VERTEX
  8
0
 10
8.21229
 20
0.586262
 30
0.0
 40
0.00208333
 41
0.00208333
  0
VERTEX
  8
0
 10
8.21229
 20
2.98779
 30
0.0
 40
0.00208333
 41
0.00208333
  0
VERTEX
  8
0
 10
8.32596
 20
2.98779
 30
0.0
 40
0.00208333
 41
0.00208333
  0
VERTEX
  8
0
 10
8.32596
 20
3.21083
 30
0.0
 40
0.00208333
 41
0.00208333
  0
VERTEX
  8
0
 10
8.21229
 20
3.21083
 30
0.0
 40
0.00208333
 41
0.00208333
  0
VERTEX
  8
0
 10
8.21229
 20
4.03467
 30
0.0
 40
0.00208333
 41
0.00208333
  0
VERTEX
  8
0
 10
9.73719
 20
4.03467
 30
0.0
 40
0.00208333
 41
0.00208333
  0
VERTEX
  8
0
 10
9.73719
 20
0.586262
 30
0.0
 40
0.00208333
 41
0.00208333
  0
SEQEND
 8
0
  0
TEXT
  8
0
 62
     0
 10
8.50842
 20
2.41304
 30
0.0
 40
0.34375
  1
KH
 50
0
  0
POLYLINE
  8
0
 62
     0
 66
     1
 10
0
 20
0
 30
0.0
 70
     1
 40
0
 41
0
  0
VERTEX
  8
0
 10
3.31375
 20
6.70801
 30
0.0
 40
0
 41
0
  0
VERTEX
  8
0
 10
3.31375
 20
0.29221
 30
0.0
 40
0
 41
0
  0
VERTEX
  8
0
 10
3.00125
 20
0.0838758
 30
0.0
 40
0
 41
0
  0
VERTEX
  8
0
 10
3.00125
 20
6.93718
 30
0.0
 40
0
 41
0
  0
VERTEX
  8
0
 10
3.31375
 20
6.70801
 30
0.0
 40
0
 41
0
  0
SEQEND
 8
0
  0
POLYLINE
  8
0
 62
     0
 66
     1
 10
0
 20
0
 30
0.0
 70
     1
 40
0.15
 41
0.15
  0
VERTEX
  8
0
 10
3.31375
 20
6.70801
 30
0.0
 40
0.00208333
 41
0.00208333
  0
VERTEX
  8
0
 10
3.31375
 20
0.29221
 30
0.0
 40
0.00208333
 41
0.00208333
  0
VERTEX
  8
0
 10
3.00125
 20
0.0838758
 30
0.0
 40
0.00208333
 41
0.00208333
  0
VERTEX
  8
0
 10
3.00125
 20
6.93718
 30
0.0
 40
0.00208333
 41
0.00208333
  0
VERTEX
  8
0
 10
3.31375
 20
6.70801
 30
0.0
 40
0.00208333
 41
0.00208333
  0
SEQEND
 8
0
  0
POLYLINE
  8
0
 62
     7
 66
     1
 10
0
 20
0
 30
0.0
 70
     1
 40
0
 41
0
  0
VERTEX
  8
0
 10
3.00125
 20
5.81272
 30
0.0
 40
0
 41
0
  0
VERTEX
  8
0
 10
3.31375
 20
5.81272
 30
0.0
 40
0
 41
0
  0
VERTEX
  8
0
 10
3.31375
 20
4.24593
 30
0.0
 40
0
 41
0
  0
VERTEX
  8
0
 10
3.00125
 20
4.24593
 30
0.0
 40
0
 41
0
  0
VERTEX
  8
0
 10
3.00125
 20
5.81272
 30
0.0
 40
0
 41
0
  0
SEQEND
 8
0
  0
POLYLINE
  8
0
 62
     0
 66
     1
 10
0
 20
0
 30
0.0
 70
     1
 40
0.75
 41
0.75
  0
VERTEX
  8
0
 10
3.00125
 20
5.81272
 30
0.0
 40
0.0104167
 41
0.0104167
  0
VERTEX
  8
0
 10
3.31375
 20
5.81272
 30
0.0
 40
0.0104167
 41
0.0104167
  0
VERTEX
  8
0
 10
3.31375
 20
4.24593
 30
0.0
 40
0.0104167
 41
0.0104167
  0
VERTEX
  8
0
 10
3.00125
 20
4.24593
 30
0.0
 40
0.0104167
 41
0.0104167
  0
VERTEX
  8
0
 10
3.00125
 20
5.81272
 30
0.0
 40
0.0104167
 41
0.0104167
  0
SEQEND
 8
0
  0
POLYLINE
  8
0
 62
     7
 66
     1
 10
0
 20
0
 30
0.0
 70
     1
 40
0
 41
0
  0
VERTEX
  8
0
 10
3.00125
 20
5.81272
 30
0.0
 40
0
 41
0
  0
VERTEX
  8
0
 10
3.31375
 20
5.81272
 30
0.0
 40
0
 41
0
  0
VERTEX
  8
0
 10
3.31375
 20
4.24593
 30
0.0
 40
0
 41
0
  0
VERTEX
  8
0
 10
3.00125
 20
4.24593
 30
0.0
 40
0
 41
0
  0
VERTEX
  8
0
 10
3.00125
 20
5.81272
 30
0.0
 40
0
 41
0
  0
SEQEND
 8
0
  0
POLYLINE
  8
0
 62
     0
 66
     1
 10
0
 20
0
 30
0.0
 70
     1
 40
0.75
 41
0.75
  0
VERTEX
  8
0
 10
3.00125
 20
5.81272
 30
0.0
 40
0.0104167
 41
0.0104167
  0
VERTEX
  8
0
 10
3.31375
 20
5.81272
 30
0.0
 40
0.0104167
 41
0.0104167
  0
VERTEX
  8
0
 10
3.31375
 20
4.24593
 30
0.0
 40
0.0104167
 41
0.0104167
  0
VERTEX
  8
0
 10
3.00125
 20
4.24593
 30
0.0
 40
0.0104167
 41
0.0104167
  0
VERTEX
  8
0
 10
3.00125
 20
5.81272
 30
0.0
 40
0.0104167
 41
0.0104167
  0
SEQEND
 8
0
  0
POLYLINE
  8
0
 62
     0
 66
     1
 10
0
 20
0
 30
0.0
 40
0.75
 41
0.75
  0
VERTEX
  8
0
 10
3.1575
 20
5.73454
 30
0.0
 40
0.0104167
 41
0.0104167
  0
VERTEX
  8
0
 10
3.1575
 20
4.32406
 30
0.0
 40
0.0104167
 41
0.0104167
  0
SEQEND
 8
0
  0
POLYLINE
  8
0
 62
     0
 66
     1
 10
0
 20
0
 30
0.0
 40
0.75
 41
0.75
  0
VERTEX
  8
0
 10
3.31375
 20
5.73454
 30
0.0
 40
0.0104167
 41
0.0104167
  0
VERTEX
  8
0
 10
3.00125
 20
5.73454
 30
0.0
 40
0.0104167
 41
0.0104167
  0
SEQEND
 8
0
  0
POLYLINE
  8
0
 62
     0
 66
     1
 10
0
 20
0
 30
0.0
 40
0.75
 41
0.75
  0
VERTEX
  8
0
 10
3.31375
 20
4.32406
 30
0.0
 40
0.0104167
 41
0.0104167
  0
VERTEX
  8
0
 10
3.00125
 20
4.32406
 30
0.0
 40
0.0104167
 41
0.0104167
  0
SEQEND
 8
0
  0
POLYLINE
  8
0
 62
     7
 66
     1
 10
0
 20
0
 30
0.0
 70
     1
 40
0
 41
0
  0
VERTEX
  8
0
 10
3.00125
 20
2.86822
 30
0.0
 40
0
 41
0
  0
VERTEX
  8
0
 10
3.31375
 20
2.86822
 30
0.0
 40
0
 41
0
  0
VERTEX
  8
0
 10
3.31375
 20
0.984375
 30
0.0
 40
0
 41
0
  0
VERTEX
  8
0
 10
3.00125
 20
0.984375
 30
0.0
 40
0
 41
0
  0
VERTEX
  8
0
 10
3.00125
 20
2.86822
 30
0.0
 40
0
 41
0
  0
SEQEND
 8
0
  0
POLYLINE
  8
0
 62
     0
 66
     1
 10
0
 20
0
 30
0.0
 70
     1
 40
0.75
 41
0.75
  0
VERTEX
  8
0
 10
3.00125
 20
2.86822
 30
0.0
 40
0.0104167
 41
0.0104167
  0
VERTEX
  8
0
 10
3.31375
 20
2.86822
 30
0.0
 40
0.0104167
 41
0.0104167
  0
VERTEX
  8
0
 10
3.31375
 20
0.984375
 30
0.0
 40
0.0104167
 41
0.0104167
  0
VERTEX
  8
0
 10
3.00125
 20
0.984375
 30
0.0
 40
0.0104167
 41
0.0104167
  0
VERTEX
  8
0
 10
3.00125
 20
2.86822
 30
0.0
 40
0.0104167
 41
0.0104167
  0
SEQEND
 8
0
  0
POLYLINE
  8
0
 62
     7
 66
     1
 10
0
 20
0
 30
0.0
 70
     1
 40
0
 41
0
  0
VERTEX
  8
0
 10
3.00125
 20
2.86822
 30
0.0
 40
0
 41
0
  0
VERTEX
  8
0
 10
3.31375
 20
2.86822
 30
0.0
 40
0
 41
0
  0
VERTEX
  8
0
 10
3.31375
 20
0.984375
 30
0.0
 40
0
 41
0
  0
VERTEX
  8
0
 10
3.00125
 20
0.984375
 30
0.0
 40
0
 41
0
  0
VERTEX
  8
0
 10
3.00125
 20
2.86822
 30
0.0
 40
0
 41
0
  0
SEQEND
 8
0
  0
POLYLINE
  8
0
 62
     0
 66
     1
 10
0
 20
0
 30
0.0
 70
     1
 40
0.75
 41
0.75
  0
VERTEX
  8
0
 10
3.00125
 20
2.86822
 30
0.0
 40
0.0104167
 41
0.0104167
  0
VERTEX
  8
0
 10
3.31375
 20
2.86822
 30
0.0
 40
0.0104167
 41
0.0104167
  0
VERTEX
  8
0
 10
3.31375
 20
0.984375
 30
0.0
 40
0.0104167
 41
0.0104167
  0
VERTEX
  8
0
 10
3.00125
 20
0.984375
 30
0.0
 40
0.0104167
 41
0.0104167
  0
VERTEX
  8
0
 10
3.00125
 20
2.86822
 30
0.0
 40
0.0104167
 41
0.0104167
  0
SEQEND
 8
0
  0
POLYLINE
  8
0
 62
     0
 66
     1
 10
0
 20
0
 30
0.0
 40
0.75
 41
0.75
  0
VERTEX
  8
0
 10
3.1575
 20
2.79015
 30
0.0
 40
0.0104167
 41
0.0104167
  0
VERTEX
  8
0
 10
3.1575
 20
1.06245
 30
0.0
 40
0.0104167
 41
0.0104167
  0
SEQEND
 8
0
  0
POLYLINE
  8
0
 62
     0
 66
     1
 10
0
 20
0
 30
0.0
 40
0.75
 41
0.75
  0
VERTEX
  8
0
 10
3.31375
 20
2.79015
 30
0.0
 40
0.0104167
 41
0.0104167
  0
VERTEX
  8
0
 10
3.00125
 20
2.79015
 30
0.0
 40
0.0104167
 41
0.0104167
  0
SEQEND
 8
0
  0
POLYLINE
  8
0
 62
     0
 66
     1
 10
0
 20
0
 30
0.0
 40
0.75
 41
0.75
  0
VERTEX
  8
0
 10
3.31375
 20
1.06245
 30
0.0
 40
0.0104167
 41
0.0104167
  0
VERTEX
  8
0
 10
3.00125
 20
1.06245
 30
0.0
 40
0.0104167
 41
0.0104167
  0
SEQEND
 8
0
  0
POLYLINE
  8
0
 62
     7
 66
     1
 10
0
 20
0
 30
0.0
 70
     1
 40
0
 41
0
  0
VERTEX
  8
0
 10
3.00125
 20
4.09457
 30
0.0
 40
0
 41
0
  0
VERTEX
  8
0
 10
3.31375
 20
4.09457
 30
0.0
 40
0
 41
0
  0
VERTEX
  8
0
 10
3.31375
 20
3.24126
 30
0.0
 40
0
 41
0
  0
VERTEX
  8
0
 10
3.00125
 20
3.24126
 30
0.0
 40
0
 41
0
  0
VERTEX
  8
0
 10
3.00125
 20
4.09457
 30
0.0
 40
0
 41
0
  0
SEQEND
 8
0
  0
POLYLINE
  8
0
 62
     0
 66
     1
 10
0
 20
0
 30
0.0
 70
     1
 40
0.75
 41
0.75
  0
VERTEX
  8
0
 10
3.00125
 20
4.09457
 30
0.0
 40
0.0104167
 41
0.0104167
  0
VERTEX
  8
0
 10
3.31375
 20
4.09457
 30
0.0
 40
0.0104167
 41
0.0104167
  0
VERTEX
  8
0
 10
3.31375
 20
3.24126
 30
0.0
 40
0.0104167
 41
0.0104167
  0
VERTEX
  8
0
 10
3.00125
 20
3.24126
 30
0.0
 40
0.0104167
 41
0.0104167
  0
VERTEX
  8
0
 10
3.00125
 20
4.09457
 30
0.0
 40
0.0104167
 41
0.0104167
  0
SEQEND
 8
0
  0
POLYLINE
  8
0
 62
     7
 66
     1
 10
0
 20
0
 30
0.0
 70
     1
 40
0
 41
0
  0
VERTEX
  8
0
 10
3.00125
 20
4.09457
 30
0.0
 40
0
 41
0
  0
VERTEX
  8
0
 10
3.31375
 20
4.09457
 30
0.0
 40
0
 41
0
  0
VERTEX
  8
0
 10
3.31375
 20
3.24126
 30
0.0
 40
0
 41
0
  0
VERTEX
  8
0
 10
3.00125
 20
3.24126
 30
0.0
 40
0
 41
0
  0
VERTEX
  8
0
 10
3.00125
 20
4.09457
 30
0.0
 40
0
 41
0
  0
SEQEND
 8
0
  0
POLYLINE
  8
0
 62
     0
 66
     1
 10
0
 20
0
 30
0.0
 70
     1
 40
0.75
 41
0.75
  0
VERTEX
  8
0
 10
3.00125
 20
4.09457
 30
0.0
 40
0.0104167
 41
0.0104167
  0
VERTEX
  8
0
 10
3.31375
 20
4.09457
 30
0.0
 40
0.0104167
 41
0.0104167
  0
VERTEX
  8
0
 10
3.31375
 20
3.24126
 30
0.0
 40
0.0104167
 41
0.0104167
  0
VERTEX
  8
0
 10
3.00125
 20
3.24126
 30
0.0
 40
0.0104167
 41
0.0104167
  0
VERTEX
  8
0
 10
3.00125
 20
4.09457
 30
0.0
 40
0.0104167
 41
0.0104167
  0
SEQEND
 8
0
  0
POLYLINE
  8
0
 62
     0
 66
     1
 10
0
 20
0
 30
0.0
 70
     1
 40
0.75
 41
0.75
  0
VERTEX
  8
0
 10
3.00125
 20
4.09457
 30
0.0
 40
0.0104167
 41
0.0104167
  0
VERTEX
  8
0
 10
2.95122
 20
4.09457
 30
0.0
 40
0.0104167
 41
0.0104167
  0
VERTEX
  8
0
 10
2.80122
 20
4.08128
 30
0.0
 40
0.0104167
 41
0.0104167
  0
VERTEX
  8
0
 10
2.62788
 20
4.04124
 30
0.0
 40
0.0104167
 41
0.0104167
  0
VERTEX
  8
0
 10
2.48122
 20
3.97461
 30
0.0
 40
0.0104167
 41
0.0104167
  0
VERTEX
  8
0
 10
2.36122
 20
3.88124
 30
0.0
 40
0.0104167
 41
0.0104167
  0
VERTEX
  8
0
 10
2.26785
 20
3.76129
 30
0.0
 40
0.0104167
 41
0.0104167
  0
VERTEX
  8
0
 10
2.20122
 20
3.61458
 30
0.0
 40
0.0104167
 41
0.0104167
  0
VERTEX
  8
0
 10
2.16118
 20
3.44129
 30
0.0
 40
0.0104167
 41
0.0104167
  0
VERTEX
  8
0
 10
2.14789
 20
3.29129
 30
0.0
 40
0.0104167
 41
0.0104167
  0
VERTEX
  8
0
 10
2.14789
 20
3.24126
 30
0.0
 40
0.0104167
 41
0.0104167
  0
VERTEX
  8
0
 10
3.00125
 20
3.24126
 30
0.0
 40
0.0104167
 41
0.0104167
  0
VERTEX
  8
0
 10
3.00125
 20
4.09457
 30
0.0
 40
0.0104167
 41
0.0104167
  0
SEQEND
 8
0
  0
POLYLINE
  8
0
 62
     0
 66
     1
 10
0
 20
0
 30
0.0
 70
     1
 40
0
 41
0
  0
VERTEX
  8
0
 10
3.31375
 20
0.29221
 30
0.0
 40
0
 41
0
  0
VERTEX
  8
0
 10
5.69781
 20
0.29221
 30
0.0
 40
0
 41
0
  0
VERTEX
  8
0
 10
5.69781
 20
0.0838758
 30
0.0
 40
0
 41
0
  0
VERTEX
  8
0
 10
3.00125
 20
0.0838758
 30
0.0
 40
0
 41
0
  0
VERTEX
  8
0
 10
3.31375
 20
0.29221
 30
0.0
 40
0
 41
0
  0
SEQEND
 8
0
  0
POLYLINE
  8
0
 62
     0
 66
     1
 10
0
 20
0
 30
0.0
 70
     1
 40
0.15
 41
0.15
  0
VERTEX
  8
0
 10
3.31375
 20
0.29221
 30
0.0
 40
0.00208333
 41
0.00208333
  0
VERTEX
  8
0
 10
5.69781
 20
0.29221
 30
0.0
 40
0.00208333
 41
0.00208333
  0
VERTEX
  8
0
 10
5.69781
 20
0.0838758
 30
0.0
 40
0.00208333
 41
0.00208333
  0
VERTEX
  8
0
 10
3.00125
 20
0.0838758
 30
0.0
 40
0.00208333
 41
0.00208333
  0
VERTEX
  8
0
 10
3.31375
 20
0.29221
 30
0.0
 40
0.00208333
 41
0.00208333
  0
SEQEND
 8
0
  0
POLYLINE
  8
0
 62
     0
 66
     1
 10
0
 20
0
 30
0.0
 70
     1
 40
0
 41
0
  0
VERTEX
  8
0
 10
5.69781
 20
0.377821
 30
0.0
 40
0
 41
0
  0
VERTEX
  8
0
 10
8.10812
 20
0.377821
 30
0.0
 40
0
 41
0
  0
VERTEX
  8
0
 10
8.41021
 20
0.00260417
 30
0.0
 40
0
 41
0
  0
VERTEX
  8
0
 10
5.69781
 20
0.00260417
 30
0.0
 40
0
 41
0
  0
VERTEX
  8
0
 10
5.69781
 20
0.377821
 30
0.0
 40
0
 41
0
  0
SEQEND
 8
0
  0
POLYLINE
  8
0
 62
     0
 66
     1
 10
0
 20
0
 30
0.0
 70
     1
 40
0.15
 41
0.15
  0
VERTEX
  8
0
 10
5.69781
 20
0.377821
 30
0.0
 40
0.00208333
 41
0.00208333
  0
VERTEX
  8
0
 10
8.10812
 20
0.377821
 30
0.0
 40
0.00208333
 41
0.00208333
  0
VERTEX
  8
0
 10
8.41021
 20
0.00260417
 30
0.0
 40
0.00208333
 41
0.00208333
  0
VERTEX
  8
0
 10
5.69781
 20
0.00260417
 30
0.0
 40
0.00208333
 41
0.00208333
  0
VERTEX
  8
0
 10
5.69781
 20
0.377821
 30
0.0
 40
0.00208333
 41
0.00208333
  0
SEQEND
 8
0
  0
POLYLINE
  8
0
 62
     0
 66
     1
 10
0
 20
0
 30
0.0
 70
     1
 40
0
 41
0
  0
VERTEX
  8
0
 10
8.10812
 20
0.377821
 30
0.0
 40
0
 41
0
  0
VERTEX
  8
0
 10
8.10812
 20
0.586262
 30
0.0
 40
0
 41
0
  0
VERTEX
  8
0
 10
8.41021
 20
0.398762
 30
0.0
 40
0
 41
0
  0
VERTEX
  8
0
 10
8.41021
 20
0.00260417
 30
0.0
 40
0
 41
0
  0
VERTEX
  8
0
 10
8.10812
 20
0.377821
 30
0.0
 40
0
 41
0
  0
SEQEND
 8
0
  0
POLYLINE
  8
0
 62
     0
 66
     1
 10
0
 20
0
 30
0.0
 70
     1
 40
0.15
 41
0.15
  0
VERTEX
  8
0
 10
8.10812
 20
0.377821
 30
0.0
 40
0.00208333
 41
0.00208333
  0
VERTEX
  8
0
 10
8.10812
 20
0.586262
 30
0.0
 40
0.00208333
 41
0.00208333
  0
VERTEX
  8
0
 10
8.41021
 20
0.398762
 30
0.0
 40
0.00208333
 41
0.00208333
  0
VERTEX
  8
0
 10
8.41021
 20
0.00260417
 30
0.0
 40
0.00208333
 41
0.00208333
  0
VERTEX
  8
0
 10
8.10812
 20
0.377821
 30
0.0
 40
0.00208333
 41
0.00208333
  0
SEQEND
 8
0
  0
POLYLINE
  8
0
 62
     0
 66
     1
 10
0
 20
0
 30
0.0
 70
     1
 40
0
 41
0
  0
VERTEX
  8
0
 10
8.10812
 20
0.586262
 30
0.0
 40
0
 41
0
  0
VERTEX
  8
0
 10
9.73719
 20
0.586262
 30
0.0
 40
0
 41
0
  0
VERTEX
  8
0
 10
9.92469
 20
0.398762
 30
0.0
 40
0
 41
0
  0
VERTEX
  8
0
 10
8.41021
 20
0.398762
 30
0.0
 40
0
 41
0
  0
VERTEX
  8
0
 10
8.10812
 20
0.586262
 30
0.0
 40
0
 41
0
  0
SEQEND
 8
0
  0
POLYLINE
  8
0
 62
     0
 66
     1
 10
0
 20
0
 30
0.0
 70
     1
 40
0.15
 41
0.15
  0
VERTEX
  8
0
 10
8.10812
 20
0.586262
 30
0.0
 40
0.00208333
 41
0.00208333
  0
VERTEX
  8
0
 10
9.73719
 20
0.586262
 30
0.0
 40
0.00208333
 41
0.00208333
  0
VERTEX
  8
0
 10
9.92469
 20
0.398762
 30
0.0
 40
0.00208333
 41
0.00208333
  0
VERTEX
  8
0
 10
8.41021
 20
0.398762
 30
0.0
 40
0.00208333
 41
0.00208333
  0
VERTEX
  8
0
 10
8.10812
 20
0.586262
 30
0.0
 40
0.00208333
 41
0.00208333
  0
SEQEND
 8
0
  0
POLYLINE
  8
0
 62
     0
 66
     1
 10
0
 20
0
 30
0.0
 70
     1
 40
0
 41
0
  0
VERTEX
  8
0
 10
9.73719
 20
0.586262
 30
0.0
 40
0
 41
0
  0
VERTEX
  8
0
 10
9.73719
 20
2.17176
 30
0.0
 40
0
 41
0
  0
VERTEX
  8
0
 10
9.92469
 20
1.98426
 30
0.0
 40
0
 41
0
  0
VERTEX
  8
0
 10
9.92469
 20
0.398762
 30
0.0
 40
0
 41
0
  0
VERTEX
  8
0
 10
9.73719
 20
0.586262
 30
0.0
 40
0
 41
0
  0
SEQEND
 8
0
  0
POLYLINE
  8
0
 62
     0
 66
     1
 10
0
 20
0
 30
0.0
 70
     1
 40
0.15
 41
0.15
  0
VERTEX
  8
0
 10
9.73719
 20
0.586262
 30
0.0
 40
0.00208333
 41
0.00208333
  0
VERTEX
  8
0
 10
9.73719
 20
2.17176
 30
0.0
 40
0.00208333
 41
0.00208333
  0
VERTEX
  8
0
 10
9.92469
 20
1.98426
 30
0.0
 40
0.00208333
 41
0.00208333
  0
VERTEX
  8
0
 10
9.92469
 20
0.398762
 30
0.0
 40
0.00208333
 41
0.00208333
  0
VERTEX
  8
0
 10
9.73719
 20
0.586262
 30
0.0
 40
0.00208333
 41
0.00208333
  0
SEQEND
 8
0
  0
POLYLINE
  8
0
 62
     0
 66
     1
 10
0
 20
0
 30
0.0
 70
     1
 40
0
 41
0
  0
VERTEX
  8
0
 10
9.73719
 20
2.17176
 30
0.0
 40
0
 41
0
  0
VERTEX
  8
0
 10
15.8785
 20
2.17176
 30
0.0
 40
0
 41
0
  0
VERTEX
  8
0
 10
16.2535
 20
1.98426
 30
0.0
 40
0
 41
0
  0
VERTEX
  8
0
 10
9.92469
 20
1.98426
 30
0.0
 40
0
 41
0
  0
VERTEX
  8
0
 10
9.73719
 20
2.17176
 30
0.0
 40
0
 41
0
  0
SEQEND
 8
0
  0
POLYLINE
  8
0
 62
     0
 66
     1
 10
0
 20
0
 30
0.0
 70
     1
 40
0.15
 41
0.15
  0
VERTEX
  8
0
 10
9.73719
 20
2.17176
 30
0.0
 40
0.00208333
 41
0.00208333
  0
VERTEX
  8
0
 10
15.8785
 20
2.17176
 30
0.0
 40
0.00208333
 41
0.00208333
  0
VERTEX
  8
0
 10
16.2535
 20
1.98426
 30
0.0
 40
0.00208333
 41
0.00208333
  0
VERTEX
  8
0
 10
9.92469
 20
1.98426
 30
0.0
 40
0.00208333
 41
0.00208333
  0
VERTEX
  8
0
 10
9.73719
 20
2.17176
 30
0.0
 40
0.00208333
 41
0.00208333
  0
SEQEND
 8
0
  0
POLYLINE
  8
0
 62
     7
 66
     1
 10
0
 20
0
 30
0.0
 70
     1
 40
0
 41
0
  0
VERTEX
  8
0
 10
10.0894
 20
2.17176
 30
0.0
 40
0
 41
0
  0
VERTEX
  8
0
 10
11.0336
 20
2.17176
 30
0.0
 40
0
 41
0
  0
VERTEX
  8
0
 10
11.0336
 20
1.98426
 30
0.0
 40
0
 41
0
  0
VERTEX
  8
0
 10
10.0894
 20
1.98426
 30
0.0
 40
0
 41
0
  0
VERTEX
  8
0
 10
10.0894
 20
2.17176
 30
0.0
 40
0
 41
0
  0
SEQEND
 8
0
  0
POLYLINE
  8
0
 62
     0
 66
     1
 10
0
 20
0
 30
0.0
 70
     1
 40
0.75
 41
0.75
  0
VERTEX
  8
0
 10
10.0894
 20
2.17176
 30
0.0
 40
0.0104167
 41
0.0104167
  0
VERTEX
  8
0
 10
11.0336
 20
2.17176
 30
0.0
 40
0.0104167
 41
0.0104167
  0
VERTEX
  8
0
 10
11.0336
 20
1.98426
 30
0.0
 40
0.0104167
 41
0.0104167
  0
VERTEX
  8
0
 10
10.0894
 20
1.98426
 30
0.0
 40
0.0104167
 41
0.0104167
  0
VERTEX
  8
0
 10
10.0894
 20
2.17176
 30
0.0
 40
0.0104167
 41
0.0104167
  0
SEQEND
 8
0
  0
POLYLINE
  8
0
 62
     7
 66
     1
 10
0
 20
0
 30
0.0
 70
     1
 40
0
 41
0
  0
VERTEX
  8
0
 10
10.0894
 20
2.17176
 30
0.0
 40
0
 41
0
  0
VERTEX
  8
0
 10
11.0336
 20
2.17176
 30
0.0
 40
0
 41
0
  0
VERTEX
  8
0
 10
11.0336
 20
1.98426
 30
0.0
 40
0
 41
0
  0
VERTEX
  8
0
 10
10.0894
 20
1.98426
 30
0.0
 40
0
 41
0
  0
VERTEX
  8
0
 10
10.0894
 20
2.17176
 30
0.0
 40
0
 41
0
  0
SEQEND
 8
0
  0
POLYLINE
  8
0
 62
     0
 66
     1
 10
0
 20
0
 30
0.0
 70
     1
 40
0.75
 41
0.75
  0
VERTEX
  8
0
 10
10.0894
 20
2.17176
 30
0.0
 40
0.0104167
 41
0.0104167
  0
VERTEX
  8
0
 10
11.0336
 20
2.17176
 30
0.0
 40
0.0104167
 41
0.0104167
  0
VERTEX
  8
0
 10
11.0336
 20
1.98426
 30
0.0
 40
0.0104167
 41
0.0104167
  0
VERTEX
  8
0
 10
10.0894
 20
1.98426
 30
0.0
 40
0.0104167
 41
0.0104167
  0
VERTEX
  8
0
 10
10.0894
 20
2.17176
 30
0.0
 40
0.0104167
 41
0.0104167
  0
SEQEND
 8
0
  0
POLYLINE
  8
0
 62
     0
 66
     1
 10
0
 20
0
 30
0.0
 70
     1
 40
0.75
 41
0.75
  0
VERTEX
  8
0
 10
11.0336
 20
1.98426
 30
0.0
 40
0.0104167
 41
0.0104167
  0
VERTEX
  8
0
 10
11.0336
 20
1.92899
 30
0.0
 40
0.0104167
 41
0.0104167
  0
VERTEX
  8
0
 10
11.0189
 20
1.76297
 30
0.0
 40
0.0104167
 41
0.0104167
  0
VERTEX
  8
0
 10
10.9746
 20
1.57118
 30
0.0
 40
0.0104167
 41
0.0104167
  0
VERTEX
  8
0
 10
10.9008
 20
1.40886
 30
0.0
 40
0.0104167
 41
0.0104167
  0
VERTEX
  8
0
 10
10.7976
 20
1.2761
 30
0.0
 40
0.0104167
 41
0.0104167
  0
VERTEX
  8
0
 10
10.6648
 20
1.1728
 30
0.0
 40
0.0104167
 41
0.0104167
  0
VERTEX
  8
0
 10
10.5024
 20
1.09901
 30
0.0
 40
0.0104167
 41
0.0104167
  0
VERTEX
  8
0
 10
10.3107
 20
1.05474
 30
0.0
 40
0.0104167
 41
0.0104167
  0
VERTEX
  8
0
 10
10.1446
 20
1.03998
 30
0.0
 40
0.0104167
 41
0.0104167
  0
VERTEX
  8
0
 10
10.0894
 20
1.03998
 30
0.0
 40
0.0104167
 41
0.0104167
  0
VERTEX
  8
0
 10
10.0894
 20
1.98426
 30
0.0
 40
0.0104167
 41
0.0104167
  0
VERTEX
  8
0
 10
11.0336
 20
1.98426
 30
0.0
 40
0.0104167
 41
0.0104167
  0
SEQEND
 8
0
  0
POLYLINE
  8
0
 62
     0
 66
     1
 10
0
 20
0
 30
0.0
 70
     1
 40
0
 41
0
  0
VERTEX
  8
0
 10
15.8785
 20
5.92356
 30
0.0
 40
0
 41
0
  0
VERTEX
  8
0
 10
8.21197
 20
5.92356
 30
0.0
 40
0
 41
0
  0
VERTEX
  8
0
 10
8.44114
 20
6.15272
 30
0.0
 40
0
 41
0
  0
VERTEX
  8
0
 10
16.2535
 20
6.15272
 30
0.0
 40
0
 41
0
  0
VERTEX
  8
0
 10
15.8785
 20
5.92356
 30
0.0
 40
0
 41
0
  0
SEQEND
 8
0
  0
POLYLINE
  8
0
 62
     0
 66
     1
 10
0
 20
0
 30
0.0
 70
     1
 40
0.15
 41
0.15
  0
VERTEX
  8
0
 10
15.8785
 20
5.92356
 30
0.0
 40
0.00208333
 41
0.00208333
  0
VERTEX
  8
0
 10
8.21197
 20
5.92356
 30
0.0
 40
0.00208333
 41
0.00208333
  0
VERTEX
  8
0
 10
8.44114
 20
6.15272
 30
0.0
 40
0.00208333
 41
0.00208333
  0
VERTEX
  8
0
 10
16.2535
 20
6.15272
 30
0.0
 40
0.00208333
 41
0.00208333
  0
VERTEX
  8
0
 10
15.8785
 20
5.92356
 30
0.0
 40
0.00208333
 41
0.00208333
  0
SEQEND
 8
0
  0
POLYLINE
  8
0
 62
     0
 66
     1
 10
0
 20
0
 30
0.0
 70
     1
 40
0
 41
0
  0
VERTEX
  8
0
 10
8.21197
 20
5.92356
 30
0.0
 40
0
 41
0
  0
VERTEX
  8
0
 10
8.21197
 20
6.70801
 30
0.0
 40
0
 41
0
  0
VERTEX
  8
0
 10
8.44114
 20
6.93718
 30
0.0
 40
0
 41
0
  0
VERTEX
  8
0
 10
8.44114
 20
6.15272
 30
0.0
 40
0
 41
0
  0
VERTEX
  8
0
 10
8.21197
 20
5.92356
 30
0.0
 40
0
 41
0
  0
SEQEND
 8
0
  0
POLYLINE
  8
0
 62
     0
 66
     1
 10
0
 20
0
 30
0.0
 70
     1
 40
0.15
 41
0.15
  0
VERTEX
  8
0
 10
8.21197
 20
5.92356
 30
0.0
 40
0.00208333
 41
0.00208333
  0
VERTEX
  8
0
 10
8.21197
 20
6.70801
 30
0.0
 40
0.00208333
 41
0.00208333
  0
VERTEX
  8
0
 10
8.44114
 20
6.93718
 30
0.0
 40
0.00208333
 41
0.00208333
  0
VERTEX
  8
0
 10
8.44114
 20
6.15272
 30
0.0
 40
0.00208333
 41
0.00208333
  0
VERTEX
  8
0
 10
8.21197
 20
5.92356
 30
0.0
 40
0.00208333
 41
0.00208333
  0
SEQEND
 8
0
  0
POLYLINE
  8
0
 62
     0
 66
     1
 10
0
 20
0
 30
0.0
 70
     1
 40
0
 41
0
  0
VERTEX
  8
0
 10
8.21197
 20
6.70801
 30
0.0
 40
0
 41
0
  0
VERTEX
  8
0
 10
3.31375
 20
6.70801
 30
0.0
 40
0
 41
0
  0
VERTEX
  8
0
 10
3.00125
 20
6.93718
 30
0.0
 40
0
 41
0
  0
VERTEX
  8
0
 10
8.44114
 20
6.93718
 30
0.0
 40
0
 41
0
  0
VERTEX
  8
0
 10
8.21197
 20
6.70801
 30
0.0
 40
0
 41
0
  0
SEQEND
 8
0
  0
POLYLINE
  8
0
 62
     0
 66
     1
 10
0
 20
0
 30
0.0
 70
     1
 40
0.15
 41
0.15
  0
VERTEX
  8
0
 10
8.21197
 20
6.70801
 30
0.0
 40
0.00208333
 41
0.00208333
  0
VERTEX
  8
0
 10
3.31375
 20
6.70801
 30
0.0
 40
0.00208333
 41
0.00208333
  0
VERTEX
  8
0
 10
3.00125
 20
6.93718
 30
0.0
 40
0.00208333
 41
0.00208333
  0
VERTEX
  8
0
 10
8.44114
 20
6.93718
 30
0.0
 40
0.00208333
 41
0.00208333
  0
VERTEX
  8
0
 10
8.21197
 20
6.70801
 30
0.0
 40
0.00208333
 41
0.00208333
  0
SEQEND
 8
0
  0
POLYLINE
  8
0
 62
     0
 66
     1
 10
0
 20
0
 30
0.0
 70
     1
 40
0
 41
0
  0
VERTEX
  8
0
 10
3.31375
 20
3.18707
 30
0.0
 40
0
 41
0
  0
VERTEX
  8
0
 10
3.65603
 20
3.18707
 30
0.0
 40
0
 41
0
  0
VERTEX
  8
0
 10
3.65603
 20
2.87218
 30
0.0
 40
0
 41
0
  0
VERTEX
  8
0
 10
3.31375
 20
2.87218
 30
0.0
 40
0
 41
0
  0
VERTEX
  8
0
 10
3.31375
 20
3.18707
 30
0.0
 40
0
 41
0
  0
SEQEND
 8
0
  0
POLYLINE
  8
0
 62
     0
 66
     1
 10
0
 20
0
 30
0.0
 70
     1
 40
0.15
 41
0.15
  0
VERTEX
  8
0
 10
3.31375
 20
3.18707
 30
0.0
 40
0.00208333
 41
0.00208333
  0
VERTEX
  8
0
 10
3.65603
 20
3.18707
 30
0.0
 40
0.00208333
 41
0.00208333
  0
VERTEX
  8
0
 10
3.65603
 20
2.87218
 30
0.0
 40
0.00208333
 41
0.00208333
  0
VERTEX
  8
0
 10
3.31375
 20
2.87218
 30
0.0
 40
0.00208333
 41
0.00208333
  0
VERTEX
  8
0
 10
3.31375
 20
3.18707
 30
0.0
 40
0.00208333
 41
0.00208333
  0
SEQEND
 8
0
  0
POLYLINE
  8
0
 62
     0
 66
     1
 10
0
 20
0
 30
0.0
 70
     1
 40
0
 41
0
  0
VERTEX
  8
0
 10
9.73719
 20
2.17176
 30
0.0
 40
0
 41
0
  0
VERTEX
  8
0
 10
9.73719
 20
4.03467
 30
0.0
 40
0
 41
0
  0
VERTEX
  8
0
 10
9.92469
 20
4.13883
 30
0.0
 40
0
 41
0
  0
VERTEX
  8
0
 10
9.92469
 20
2.17176
 30
0.0
 40
0
 41
0
  0
VERTEX
  8
0
 10
9.73719
 20
2.17176
 30
0.0
 40
0
 41
0
  0
SEQEND
 8
0
  0
POLYLINE
  8
0
 62
     0
 66
     1
 10
0
 20
0
 30
0.0
 70
     1
 40
0.15
 41
0.15
  0
VERTEX
  8
0
 10
9.73719
 20
2.17176
 30
0.0
 40
0.00208333
 41
0.00208333
  0
VERTEX
  8
0
 10
9.73719
 20
4.03467
 30
0.0
 40
0.00208333
 41
0.00208333
  0
VERTEX
  8
0
 10
9.92469
 20
4.13883
 30
0.0
 40
0.00208333
 41
0.00208333
  0
VERTEX
  8
0
 10
9.92469
 20
2.17176
 30
0.0
 40
0.00208333
 41
0.00208333
  0
VERTEX
  8
0
 10
9.73719
 20
2.17176
 30
0.0
 40
0.00208333
 41
0.00208333
  0
SEQEND
 8
0
  0
POLYLINE
  8
0
 62
     0
 66
     1
 10
0
 20
0
 30
0.0
 70
     1
 40
0
 41
0
  0
VERTEX
  8
0
 10
8.10812
 20
0.586262
 30
0.0
 40
0
 41
0
  0
VERTEX
  8
0
 10
8.10812
 20
4.13883
 30
0.0
 40
0
 41
0
  0
VERTEX
  8
0
 10
8.21229
 20
4.03467
 30
0.0
 40
0
 41
0
  0
VERTEX
  8
0
 10
8.21229
 20
0.586262
 30
0.0
 40
0
 41
0
  0
VERTEX
  8
0
 10
8.10812
 20
0.586262
 30
0.0
 40
0
 41
0
  0
SEQEND
 8
0
  0
POLYLINE
  8
0
 62
     0
 66
     1
 10
0
 20
0
 30
0.0
 70
     1
 40
0.15
 41
0.15
  0
VERTEX
  8
0
 10
8.10812
 20
0.586262
 30
0.0
 40
0.00208333
 41
0.00208333
  0
VERTEX
  8
0
 10
8.10812
 20
4.13883
 30
0.0
 40
0.00208333
 41
0.00208333
  0
VERTEX
  8
0
 10
8.21229
 20
4.03467
 30
0.0
 40
0.00208333
 41
0.00208333
  0
VERTEX
  8
0
 10
8.21229
 20
0.586262
 30
0.0
 40
0.00208333
 41
0.00208333
  0
VERTEX
  8
0
 10
8.10812
 20
0.586262
 30
0.0
 40
0.00208333
 41
0.00208333
  0
SEQEND
 8
0
  0
POLYLINE
  8
0
 62
     0
 66
     1
 10
0
 20
0
 30
0.0
 70
     1
 40
0
 41
0
  0
VERTEX
  8
0
 10
8.21229
 20
4.03467
 30
0.0
 40
0
 41
0
  0
VERTEX
  8
0
 10
9.73719
 20
4.03467
 30
0.0
 40
0
 41
0
  0
VERTEX
  8
0
 10
9.92469
 20
4.13883
 30
0.0
 40
0
 41
0
  0
VERTEX
  8
0
 10
8.10812
 20
4.13883
 30
0.0
 40
0
 41
0
  0
VERTEX
  8
0
 10
8.21229
 20
4.03467
 30
0.0
 40
0
 41
0
  0
SEQEND
 8
0
  0
POLYLINE
  8
0
 62
     0
 66
     1
 10
0
 20
0
 30
0.0
 70
     1
 40
0.15
 41
0.15
  0
VERTEX
  8
0
 10
8.21229
 20
4.03467
 30
0.0
 40
0.00208333
 41
0.00208333
  0
VERTEX
  8
0
 10
9.73719
 20
4.03467
 30
0.0
 40
0.00208333
 41
0.00208333
  0
VERTEX
  8
0
 10
9.92469
 20
4.13883
 30
0.0
 40
0.00208333
 41
0.00208333
  0
VERTEX
  8
0
 10
8.10812
 20
4.13883
 30
0.0
 40
0.00208333
 41
0.00208333
  0
VERTEX
  8
0
 10
8.21229
 20
4.03467
 30
0.0
 40
0.00208333
 41
0.00208333
  0
SEQEND
 8
0
  0
POLYLINE
  8
0
 62
     7
 66
     1
 10
0
 20
0
 30
0.0
 70
     1
 40
0
 41
0
  0
VERTEX
  8
0
 10
8.25906
 20
4.13883
 30
0.0
 40
0
 41
0
  0
VERTEX
  8
0
 10
9.09033
 20
4.13883
 30
0.0
 40
0
 41
0
  0
VERTEX
  8
0
 10
9.09033
 20
4.03467
 30
0.0
 40
0
 41
0
  0
VERTEX
  8
0
 10
8.25906
 20
4.03467
 30
0.0
 40
0
 41
0
  0
VERTEX
  8
0
 10
8.25906
 20
4.13883
 30
0.0
 40
0
 41
0
  0
SEQEND
 8
0
  0
POLYLINE
  8
0
 62
     0
 66
     1
 10
0
 20
0
 30
0.0
 70
     1
 40
0.75
 41
0.75
  0
VERTEX
  8
0
 10
8.25906
 20
4.13883
 30
0.0
 40
0.0104167
 41
0.0104167
  0
VERTEX
  8
0
 10
9.09033
 20
4.13883
 30
0.0
 40
0.0104167
 41
0.0104167
  0
VERTEX
  8
0
 10
9.09033
 20
4.03467
 30
0.0
 40
0.0104167
 41
0.0104167
  0
VERTEX
  8
0
 10
8.25906
 20
4.03467
 30
0.0
 40
0.0104167
 41
0.0104167
  0
VERTEX
  8
0
 10
8.25906
 20
4.13883
 30
0.0
 40
0.0104167
 41
0.0104167
  0
SEQEND
 8
0
  0
POLYLINE
  8
0
 62
     7
 66
     1
 10
0
 20
0
 30
0.0
 70
     1
 40
0
 41
0
  0
VERTEX
  8
0
 10
8.25906
 20
4.13883
 30
0.0
 40
0
 41
0
  0
VERTEX
  8
0
 10
9.09033
 20
4.13883
 30
0.0
 40
0
 41
0
  0
VERTEX
  8
0
 10
9.09033
 20
4.03467
 30
0.0
 40
0
 41
0
  0
VERTEX
  8
0
 10
8.25906
 20
4.03467
 30
0.0
 40
0
 41
0
  0
VERTEX
  8
0
 10
8.25906
 20
4.13883
 30
0.0
 40
0
 41
0
  0
SEQEND
 8
0
  0
POLYLINE
  8
0
 62
     0
 66
     1
 10
0
 20
0
 30
0.0
 70
     1
 40
0.75
 41
0.75
  0
VERTEX
  8
0
 10
8.25906
 20
4.13883
 30
0.0
 40
0.0104167
 41
0.0104167
  0
VERTEX
  8
0
 10
9.09033
 20
4.13883
 30
0.0
 40
0.0104167
 41
0.0104167
  0
VERTEX
  8
0
 10
9.09033
 20
4.03467
 30
0.0
 40
0.0104167
 41
0.0104167
  0
VERTEX
  8
0
 10
8.25906
 20
4.03467
 30
0.0
 40
0.0104167
 41
0.0104167
  0
VERTEX
  8
0
 10
8.25906
 20
4.13883
 30
0.0
 40
0.0104167
 41
0.0104167
  0
SEQEND
 8
0
  0
POLYLINE
  8
0
 62
     0
 66
     1
 10
0
 20
0
 30
0.0
 70
     1
 40
0.75
 41
0.75
  0
VERTEX
  8
0
 10
9.09033
 20
4.13883
 30
0.0
 40
0.0104167
 41
0.0104167
  0
VERTEX
  8
0
 10
9.09033
 20
4.18756
 30
0.0
 40
0.0104167
 41
0.0104167
  0
VERTEX
  8
0
 10
9.07731
 20
4.33371
 30
0.0
 40
0.0104167
 41
0.0104167
  0
VERTEX
  8
0
 10
9.03836
 20
4.50256
 30
0.0
 40
0.0104167
 41
0.0104167
  0
VERTEX
  8
0
 10
8.97342
 20
4.6454
 30
0.0
 40
0.0104167
 41
0.0104167
  0
VERTEX
  8
0
 10
8.88249
 20
4.76232
 30
0.0
 40
0.0104167
 41
0.0104167
  0
VERTEX
  8
0
 10
8.76557
 20
4.85325
 30
0.0
 40
0.0104167
 41
0.0104167
  0
VERTEX
  8
0
 10
8.62272
 20
4.91818
 30
0.0
 40
0.0104167
 41
0.0104167
  0
VERTEX
  8
0
 10
8.45383
 20
4.95714
 30
0.0
 40
0.0104167
 41
0.0104167
  0
VERTEX
  8
0
 10
8.30772
 20
4.97011
 30
0.0
 40
0.0104167
 41
0.0104167
  0
VERTEX
  8
0
 10
8.25906
 20
4.97011
 30
0.0
 40
0.0104167
 41
0.0104167
  0
VERTEX
  8
0
 10
8.25906
 20
4.13883
 30
0.0
 40
0.0104167
 41
0.0104167
  0
VERTEX
  8
0
 10
9.09033
 20
4.13883
 30
0.0
 40
0.0104167
 41
0.0104167
  0
SEQEND
 8
0
  0
POLYLINE
  8
0
 62
     0
 66
     1
 10
0
 20
0
 30
0.0
 70
     1
 40
0
 41
0
  0
VERTEX
  8
0
 10
11.5094
 20
5.92356
 30
0.0
 40
0
 41
0
  0
VERTEX
  8
0
 10
11.6136
 20
5.92356
 30
0.0
 40
0
 41
0
  0
VERTEX
  8
0
 10
11.6136
 20
2.17176
 30
0.0
 40
0
 41
0
  0
VERTEX
  8
0
 10
11.5094
 20
2.17176
 30
0.0
 40
0
 41
0
  0
VERTEX
  8
0
 10
11.5094
 20
5.92356
 30
0.0
 40
0
 41
0
  0
SEQEND
 8
0
  0
POLYLINE
  8
0
 62
     0
 66
     1
 10
0
 20
0
 30
0.0
 70
     1
 40
0.15
 41
0.15
  0
VERTEX
  8
0
 10
11.5094
 20
5.92356
 30
0.0
 40
0.00208333
 41
0.00208333
  0
VERTEX
  8
0
 10
11.6136
 20
5.92356
 30
0.0
 40
0.00208333
 41
0.00208333
  0
VERTEX
  8
0
 10
11.6136
 20
2.17176
 30
0.0
 40
0.00208333
 41
0.00208333
  0
VERTEX
  8
0
 10
11.5094
 20
2.17176
 30
0.0
 40
0.00208333
 41
0.00208333
  0
VERTEX
  8
0
 10
11.5094
 20
5.92356
 30
0.0
 40
0.00208333
 41
0.00208333
  0
SEQEND
 8
0
  0
POLYLINE
  8
0
 62
     7
 66
     1
 10
0
 20
0
 30
0.0
 70
     1
 40
0
 41
0
  0
VERTEX
  8
0
 10
11.5094
 20
5.14572
 30
0.0
 40
0
 41
0
  0
VERTEX
  8
0
 10
11.6136
 20
5.14572
 30
0.0
 40
0
 41
0
  0
VERTEX
  8
0
 10
11.6136
 20
4.31207
 30
0.0
 40
0
 41
0
  0
VERTEX
  8
0
 10
11.5094
 20
4.31207
 30
0.0
 40
0
 41
0
  0
VERTEX
  8
0
 10
11.5094
 20
5.14572
 30
0.0
 40
0
 41
0
  0
SEQEND
 8
0
  0
POLYLINE
  8
0
 62
     0
 66
     1
 10
0
 20
0
 30
0.0
 70
     1
 40
0.75
 41
0.75
  0
VERTEX
  8
0
 10
11.5094
 20
5.14572
 30
0.0
 40
0.0104167
 41
0.0104167
  0
VERTEX
  8
0
 10
11.6136
 20
5.14572
 30
0.0
 40
0.0104167
 41
0.0104167
  0
VERTEX
  8
0
 10
11.6136
 20
4.31207
 30
0.0
 40
0.0104167
 41
0.0104167
  0
VERTEX
  8
0
 10
11.5094
 20
4.31207
 30
0.0
 40
0.0104167
 41
0.0104167
  0
VERTEX
  8
0
 10
11.5094
 20
5.14572
 30
0.0
 40
0.0104167
 41
0.0104167
  0
SEQEND
 8
0
  0
POLYLINE
  8
0
 62
     7
 66
     1
 10
0
 20
0
 30
0.0
 70
     1
 40
0
 41
0
  0
VERTEX
  8
0
 10
11.5094
 20
5.14572
 30
0.0
 40
0
 41
0
  0
VERTEX
  8
0
 10
11.6136
 20
5.14572
 30
0.0
 40
0
 41
0
  0
VERTEX
  8
0
 10
11.6136
 20
4.31207
 30
0.0
 40
0
 41
0
  0
VERTEX
  8
0
 10
11.5094
 20
4.31207
 30
0.0
 40
0
 41
0
  0
VERTEX
  8
0
 10
11.5094
 20
5.14572
 30
0.0
 40
0
 41
0
  0
SEQEND
 8
0
  0
POLYLINE
  8
0
 62
     0
 66
     1
 10
0
 20
0
 30
0.0
 70
     1
 40
0.75
 41
0.75
  0
VERTEX
  8
0
 10
11.5094
 20
5.14572
 30
0.0
 40
0.0104167
 41
0.0104167
  0
VERTEX
  8
0
 10
11.6136
 20
5.14572
 30
0.0
 40
0.0104167
 41
0.0104167
  0
VERTEX
  8
0
 10
11.6136
 20
4.31207
 30
0.0
 40
0.0104167
 41
0.0104167
  0
VERTEX
  8
0
 10
11.5094
 20
4.31207
 30
0.0
 40
0.0104167
 41
0.0104167
  0
VERTEX
  8
0
 10
11.5094
 20
5.14572
 30
0.0
 40
0.0104167
 41
0.0104167
  0
SEQEND
 8
0
  0
POLYLINE
  8
0
 62
     0
 66
     1
 10
0
 20
0
 30
0.0
 70
     1
 40
0.75
 41
0.75
  0
VERTEX
  8
0
 10
11.6136
 20
4.31207
 30
0.0
 40
0.0104167
 41
0.0104167
  0
VERTEX
  8
0
 10
11.6624
 20
4.31207
 30
0.0
 40
0.0104167
 41
0.0104167
  0
VERTEX
  8
0
 10
11.8089
 20
4.32514
 30
0.0
 40
0.0104167
 41
0.0104167
  0
VERTEX
  8
0
 10
11.9783
 20
4.36421
 30
0.0
 40
0.0104167
 41
0.0104167
  0
VERTEX
  8
0
 10
12.1216
 20
4.42936
 30
0.0
 40
0.0104167
 41
0.0104167
  0
VERTEX
  8
0
 10
12.2388
 20
4.52056
 30
0.0
 40
0.0104167
 41
0.0104167
  0
VERTEX
  8
0
 10
12.33
 20
4.63781
 30
0.0
 40
0.0104167
 41
0.0104167
  0
VERTEX
  8
0
 10
12.3951
 20
4.78108
 30
0.0
 40
0.0104167
 41
0.0104167
  0
VERTEX
  8
0
 10
12.4342
 20
4.95047
 30
0.0
 40
0.0104167
 41
0.0104167
  0
VERTEX
  8
0
 10
12.4473
 20
5.097
 30
0.0
 40
0.0104167
 41
0.0104167
  0
VERTEX
  8
0
 10
12.4473
 20
5.14583
 30
0.0
 40
0.0104167
 41
0.0104167
  0
VERTEX
  8
0
 10
11.6136
 20
5.14583
 30
0.0
 40
0.0104167
 41
0.0104167
  0
VERTEX
  8
0
 10
11.6136
 20
4.31207
 30
0.0
 40
0.0104167
 41
0.0104167
  0
SEQEND
 8
0
  0
POLYLINE
  8
0
 62
     0
 66
     1
 10
0
 20
0
 30
0.0
 70
     1
 40
0
 41
0
  0
VERTEX
  8
0
 10
8.20665
 20
3.21083
 30
0.0
 40
0
 41
0
  0
VERTEX
  8
0
 10
8.32596
 20
3.21083
 30
0.0
 40
0
 41
0
  0
VERTEX
  8
0
 10
8.32596
 20
2.98779
 30
0.0
 40
0
 41
0
  0
VERTEX
  8
0
 10
8.20665
 20
2.98779
 30
0.0
 40
0
 41
0
  0
VERTEX
  8
0
 10
8.20665
 20
3.21083
 30
0.0
 40
0
 41
0
  0
SEQEND
 8
0
  0
POLYLINE
  8
0
 62
     0
 66
     1
 10
0
 20
0
 30
0.0
 70
     1
 40
0.15
 41
0.15
  0
VERTEX
  8
0
 10
8.20665
 20
3.21083
 30
0.0
 40
0.00208333
 41
0.00208333
  0
VERTEX
  8
0
 10
8.32596
 20
3.21083
 30
0.0
 40
0.00208333
 41
0.00208333
  0
VERTEX
  8
0
 10
8.32596
 20
2.98779
 30
0.0
 40
0.00208333
 41
0.00208333
  0
VERTEX
  8
0
 10
8.20665
 20
2.98779
 30
0.0
 40
0.00208333
 41
0.00208333
  0
VERTEX
  8
0
 10
8.20665
 20
3.21083
 30
0.0
 40
0.00208333
 41
0.00208333
  0
SEQEND
 8
0
  0
POLYLINE
  8
0
 62
     0
 66
     1
 10
0
 20
0
 30
0.0
 70
     1
 40
0
 41
0
  0
VERTEX
  8
0
 10
13.2341
 20
6.25689
 30
0.0
 40
0
 41
0
  0
VERTEX
  8
0
 10
13.5754
 20
6.25689
 30
0.0
 40
0
 41
0
  0
VERTEX
  8
0
 10
13.5754
 20
6.15272
 30
0.0
 40
0
 41
0
  0
VERTEX
  8
0
 10
13.2341
 20
6.15272
 30
0.0
 40
0
 41
0
  0
VERTEX
  8
0
 10
13.2341
 20
6.25689
 30
0.0
 40
0
 41
0
  0
SEQEND
 8
0
  0
POLYLINE
  8
0
 62
     0
 66
     1
 10
0
 20
0
 30
0.0
 70
     1
 40
0.15
 41
0.15
  0
VERTEX
  8
0
 10
13.2341
 20
6.25689
 30
0.0
 40
0.00208333
 41
0.00208333
  0
VERTEX
  8
0
 10
13.5754
 20
6.25689
 30
0.0
 40
0.00208333
 41
0.00208333
  0
VERTEX
  8
0
 10
13.5754
 20
6.15272
 30
0.0
 40
0.00208333
 41
0.00208333
  0
VERTEX
  8
0
 10
13.2341
 20
6.15272
 30
0.0
 40
0.00208333
 41
0.00208333
  0
VERTEX
  8
0
 10
13.2341
 20
6.25689
 30
0.0
 40
0.00208333
 41
0.00208333
  0
SEQEND
 8
0
  0
POLYLINE
  8
0
 62
     0
 66
     1
 10
0
 20
0
 30
0.0
 70
     1
 40
0
 41
0
  0
VERTEX
  8
0
 10
13.1882
 20
5.95199
 30
0.0
 40
0
 41
0
  0
VERTEX
  8
0
 10
13.5633
 20
5.95199
 30
0.0
 40
0
 41
0
  0
VERTEX
  8
0
 10
13.5633
 20
5.61312
 30
0.0
 40
0
 41
0
  0
VERTEX
  8
0
 10
13.1882
 20
5.61312
 30
0.0
 40
0
 41
0
  0
VERTEX
  8
0
 10
13.1882
 20
5.95199
 30
0.0
 40
0
 41
0
  0
SEQEND
 8
0
  0
POLYLINE
  8
0
 62
     0
 66
     1
 10
0
 20
0
 30
0.0
 70
     1
 40
0.15
 41
0.15
  0
VERTEX
  8
0
 10
13.1882
 20
5.95199
 30
0.0
 40
0.00208333
 41
0.00208333
  0
VERTEX
  8
0
 10
13.5633
 20
5.95199
 30
0.0
 40
0.00208333
 41
0.00208333
  0
VERTEX
  8
0
 10
13.5633
 20
5.61312
 30
0.0
 40
0.00208333
 41
0.00208333
  0
VERTEX
  8
0
 10
13.1882
 20
5.61312
 30
0.0
 40
0.00208333
 41
0.00208333
  0
VERTEX
  8
0
 10
13.1882
 20
5.95199
 30
0.0
 40
0.00208333
 41
0.00208333
  0
SEQEND
 8
0
  0
POLYLINE
  8
0
 62
     0
 66
     1
 10
0
 20
0
 30
0.0
 70
     1
 40
0
 41
0
  0
VERTEX
  8
0
 10
1.34592
 20
0.208985
 30
0.0
 40
0
 41
0
  0
VERTEX
  8
0
 10
3.00125
 20
0.208985
 30
0.0
 40
0
 41
0
  0
VERTEX
  8
0
 10
3.00125
 20
0.156901
 30
0.0
 40
0
 41
0
  0
VERTEX
  8
0
 10
1.34592
 20
0.156901
 30
0.0
 40
0
 41
0
  0
VERTEX
  8
0
 10
1.34592
 20
0.208985
 30
0.0
 40
0
 41
0
  0
SEQEND
 8
0
  0
POLYLINE
  8
0
 62
     0
 66
     1
 10
0
 20
0
 30
0.0
 70
     1
 40
0.15
 41
0.15
  0
VERTEX
  8
0
 10
1.34592
 20
0.208985
 30
0.0
 40
0.00208333
 41
0.00208333
  0
VERTEX
  8
0
 10
3.00125
 20
0.208985
 30
0.0
 40
0.00208333
 41
0.00208333
  0
VERTEX
  8
0
 10
3.00125
 20
0.156901
 30
0.0
 40
0.00208333
 41
0.00208333
  0
VERTEX
  8
0
 10
1.34592
 20
0.156901
 30
0.0
 40
0.00208333
 41
0.00208333
  0
VERTEX
  8
0
 10
1.34592
 20
0.208985
 30
0.0
 40
0.00208333
 41
0.00208333
  0
SEQEND
 8
0
  0
POLYLINE
  8
0
 62
     7
 66
     1
 10
0
 20
0
 30
0.0
 70
     1
 40
0
 41
0
  0
VERTEX
  8
0
 10
1.34635
 20
6.10167
 30
0.0
 40
0
 41
0
  0
VERTEX
  8
0
 10
1.43061
 20
6.10167
 30
0.0
 40
0
 41
0
  0
VERTEX
  8
0
 10
1.43061
 20
0.208985
 30
0.0
 40
0
 41
0
  0
VERTEX
  8
0
 10
1.34635
 20
0.208985
 30
0.0
 40
0
 41
0
  0
VERTEX
  8
0
 10
1.34635
 20
6.10167
 30
0.0
 40
0
 41
0
  0
SEQEND
 8
0
  0
POLYLINE
  8
0
 62
     0
 66
     1
 10
0
 20
0
 30
0.0
 70
     1
 40
0.15
 41
0.15
  0
VERTEX
  8
0
 10
1.34635
 20
6.10167
 30
0.0
 40
0.00208333
 41
0.00208333
  0
VERTEX
  8
0
 10
1.43061
 20
6.10167
 30
0.0
 40
0.00208333
 41
0.00208333
  0
VERTEX
  8
0
 10
1.43061
 20
0.208985
 30
0.0
 40
0.00208333
 41
0.00208333
  0
VERTEX
  8
0
 10
1.34635
 20
0.208985
 30
0.0
 40
0.00208333
 41
0.00208333
  0
VERTEX
  8
0
 10
1.34635
 20
6.10167
 30
0.0
 40
0.00208333
 41
0.00208333
  0
SEQEND
 8
0
  0
POLYLINE
  8
0
 62
     0
 66
     1
 10
0
 20
0
 30
0.0
 70
     1
 40
0
 41
0
  0
VERTEX
  8
0
 10
1.43061
 20
6.10167
 30
0.0
 40
0
 41
0
  0
VERTEX
  8
0
 10
3.00125
 20
6.10167
 30
0.0
 40
0
 41
0
  0
VERTEX
  8
0
 10
3.00125
 20
6.04958
 30
0.0
 40
0
 41
0
  0
VERTEX
  8
0
 10
1.43061
 20
6.04958
 30
0.0
 40
0
 41
0
  0
VERTEX
  8
0
 10
1.43061
 20
6.10167
 30
0.0
 40
0
 41
0
  0
SEQEND
 8
0
  0
POLYLINE
  8
0
 62
     0
 66
     1
 10
0
 20
0
 30
0.0
 70
     1
 40
0.15
 41
0.15
  0
VERTEX
  8
0
 10
1.43061
 20
6.10167
 30
0.0
 40
0.00208333
 41
0.00208333
  0
VERTEX
  8
0
 10
3.00125
 20
6.10167
 30
0.0
 40
0.00208333
 41
0.00208333
  0
VERTEX
  8
0
 10
3.00125
 20
6.04958
 30
0.0
 40
0.00208333
 41
0.00208333
  0
VERTEX
  8
0
 10
1.43061
 20
6.04958
 30
0.0
 40
0.00208333
 41
0.00208333
  0
VERTEX
  8
0
 10
1.43061
 20
6.10167
 30
0.0
 40
0.00208333
 41
0.00208333
  0
SEQEND
 8
0
  0
POLYLINE
  8
0
 62
     0
 66
     1
 10
0
 20
0
 30
0.0
 70
     1
 40
0
 41
0
  0
VERTEX
  8
0
 10
15.8785
 20
2.17176
 30
0.0
 40
0
 41
0
  0
VERTEX
  8
0
 10
15.8785
 20
2.84022
 30
0.0
 40
0
 41
0
  0
VERTEX
  8
0
 10
16.2535
 20
2.84022
 30
0.0
 40
0
 41
0
  0
VERTEX
  8
0
 10
16.2535
 20
1.98426
 30
0.0
 40
0
 41
0
  0
VERTEX
  8
0
 10
15.8785
 20
2.17176
 30
0.0
 40
0
 41
0
  0
SEQEND
 8
0
  0
POLYLINE
  8
0
 62
     0
 66
     1
 10
0
 20
0
 30
0.0
 70
     1
 40
0.15
 41
0.15
  0
VERTEX
  8
0
 10
15.8785
 20
2.17176
 30
0.0
 40
0.00208333
 41
0.00208333
  0
VERTEX
  8
0
 10
15.8785
 20
2.84022
 30
0.0
 40
0.00208333
 41
0.00208333
  0
VERTEX
  8
0
 10
16.2535
 20
2.84022
 30
0.0
 40
0.00208333
 41
0.00208333
  0
VERTEX
  8
0
 10
16.2535
 20
1.98426
 30
0.0
 40
0.00208333
 41
0.00208333
  0
VERTEX
  8
0
 10
15.8785
 20
2.17176
 30
0.0
 40
0.00208333
 41
0.00208333
  0
SEQEND
 8
0
  0
POLYLINE
  8
0
 62
     0
 66
     1
 10
0
 20
0
 30
0.0
 70
     1
 40
0
 41
0
  0
VERTEX
  8
0
 10
15.9507
 20
5.00874
 30
0.0
 40
0
 41
0
  0
VERTEX
  8
0
 10
16.2535
 20
5.00874
 30
0.0
 40
0
 41
0
  0
VERTEX
  8
0
 10
16.2535
 20
2.84022
 30
0.0
 40
0
 41
0
  0
VERTEX
  8
0
 10
15.9507
 20
2.84022
 30
0.0
 40
0
 41
0
  0
VERTEX
  8
0
 10
15.9507
 20
5.00874
 30
0.0
 40
0
 41
0
  0
SEQEND
 8
0
  0
POLYLINE
  8
0
 62
     0
 66
     1
 10
0
 20
0
 30
0.0
 70
     1
 40
0.15
 41
0.15
  0
VERTEX
  8
0
 10
15.9507
 20
5.00874
 30
0.0
 40
0.00208333
 41
0.00208333
  0
VERTEX
  8
0
 10
16.2535
 20
5.00874
 30
0.0
 40
0.00208333
 41
0.00208333
  0
VERTEX
  8
0
 10
16.2535
 20
2.84022
 30
0.0
 40
0.00208333
 41
0.00208333
  0
VERTEX
  8
0
 10
15.9507
 20
2.84022
 30
0.0
 40
0.00208333
 41
0.00208333
  0
VERTEX
  8
0
 10
15.9507
 20
5.00874
 30
0.0
 40
0.00208333
 41
0.00208333
  0
SEQEND
 8
0
  0
POLYLINE
  8
0
 62
     7
 66
     1
 10
0
 20
0
 30
0.0
 70
     1
 40
0
 41
0
  0
VERTEX
  8
0
 10
15.9507
 20
4.42437
 30
0.0
 40
0
 41
0
  0
VERTEX
  8
0
 10
16.2535
 20
4.42437
 30
0.0
 40
0
 41
0
  0
VERTEX
  8
0
 10
16.2535
 20
2.85346
 30
0.0
 40
0
 41
0
  0
VERTEX
  8
0
 10
15.9507
 20
2.85346
 30
0.0
 40
0
 41
0
  0
VERTEX
  8
0
 10
15.9507
 20
4.42437
 30
0.0
 40
0
 41
0
  0
SEQEND
 8
0
  0
POLYLINE
  8
0
 62
     0
 66
     1
 10
0
 20
0
 30
0.0
 70
     1
 40
0.75
 41
0.75
  0
VERTEX
  8
0
 10
15.9507
 20
4.42437
 30
0.0
 40
0.0104167
 41
0.0104167
  0
VERTEX
  8
0
 10
16.2535
 20
4.42437
 30
0.0
 40
0.0104167
 41
0.0104167
  0
VERTEX
  8
0
 10
16.2535
 20
2.85346
 30
0.0
 40
0.0104167
 41
0.0104167
  0
VERTEX
  8
0
 10
15.9507
 20
2.85346
 30
0.0
 40
0.0104167
 41
0.0104167
  0
VERTEX
  8
0
 10
15.9507
 20
4.42437
 30
0.0
 40
0.0104167
 41
0.0104167
  0
SEQEND
 8
0
  0
POLYLINE
  8
0
 62
     7
 66
     1
 10
0
 20
0
 30
0.0
 70
     1
 40
0
 41
0
  0
VERTEX
  8
0
 10
15.9507
 20
4.42437
 30
0.0
 40
0
 41
0
  0
VERTEX
  8
0
 10
16.2535
 20
4.42437
 30
0.0
 40
0
 41
0
  0
VERTEX
  8
0
 10
16.2535
 20
2.85346
 30
0.0
 40
0
 41
0
  0
VERTEX
  8
0
 10
15.9507
 20
2.85346
 30
0.0
 40
0
 41
0
  0
VERTEX
  8
0
 10
15.9507
 20
4.42437
 30
0.0
 40
0
 41
0
  0
SEQEND
 8
0
  0
POLYLINE
  8
0
 62
     0
 66
     1
 10
0
 20
0
 30
0.0
 70
     1
 40
0.75
 41
0.75
  0
VERTEX
  8
0
 10
15.9507
 20
4.42437
 30
0.0
 40
0.0104167
 41
0.0104167
  0
VERTEX
  8
0
 10
16.2535
 20
4.42437
 30
0.0
 40
0.0104167
 41
0.0104167
  0
VERTEX
  8
0
 10
16.2535
 20
2.85346
 30
0.0
 40
0.0104167
 41
0.0104167
  0
VERTEX
  8
0
 10
15.9507
 20
2.85346
 30
0.0
 40
0.0104167
 41
0.0104167
  0
VERTEX
  8
0
 10
15.9507
 20
4.42437
 30
0.0
 40
0.0104167
 41
0.0104167
  0
SEQEND
 8
0
  0
POLYLINE
  8
0
 62
     0
 66
     1
 10
0
 20
0
 30
0.0
 40
0.75
 41
0.75
  0
VERTEX
  8
0
 10
16.1021
 20
2.93158
 30
0.0
 40
0.0104167
 41
0.0104167
  0
VERTEX
  8
0
 10
16.1021
 20
4.34631
 30
0.0
 40
0.0104167
 41
0.0104167
  0
SEQEND
 8
0
  0
POLYLINE
  8
0
 62
     0
 66
     1
 10
0
 20
0
 30
0.0
 40
0.75
 41
0.75
  0
VERTEX
  8
0
 10
15.9507
 20
2.93158
 30
0.0
 40
0.0104167
 41
0.0104167
  0
VERTEX
  8
0
 10
16.2535
 20
2.93158
 30
0.0
 40
0.0104167
 41
0.0104167
  0
SEQEND
 8
0
  0
POLYLINE
  8
0
 62
     0
 66
     1
 10
0
 20
0
 30
0.0
 40
0.75
 41
0.75
  0
VERTEX
  8
0
 10
15.9507
 20
4.34631
 30
0.0
 40
0.0104167
 41
0.0104167
  0
VERTEX
  8
0
 10
16.2535
 20
4.34631
 30
0.0
 40
0.0104167
 41
0.0104167
  0
SEQEND
 8
0
  0
POLYLINE
  8
0
 62
     0
 66
     1
 10
0
 20
0
 30
0.0
 70
     1
 40
0
 41
0
  0
VERTEX
  8
0
 10
15.8785
 20
5.00874
 30
0.0
 40
0
 41
0
  0
VERTEX
  8
0
 10
15.8785
 20
5.92356
 30
0.0
 40
0
 41
0
  0
VERTEX
  8
0
 10
16.2535
 20
6.15272
 30
0.0
 40
0
 41
0
  0
VERTEX
  8
0
 10
16.2535
 20
5.00874
 30
0.0
 40
0
 41
0
  0
VERTEX
  8
0
 10
15.8785
 20
5.00874
 30
0.0
 40
0
 41
0
  0
SEQEND
 8
0
  0
POLYLINE
  8
0
 62
     0
 66
     1
 10
0
 20
0
 30
0.0
 70
     1
 40
0.15
 41
0.15
  0
VERTEX
  8
0
 10
15.8785
 20
5.00874
 30
0.0
 40
0.00208333
 41
0.00208333
  0
VERTEX
  8
0
 10
15.8785
 20
5.92356
 30
0.0
 40
0.00208333
 41
0.00208333
  0
VERTEX
  8
0
 10
16.2535
 20
6.15272
 30
0.0
 40
0.00208333
 41
0.00208333
  0
VERTEX
  8
0
 10
16.2535
 20
5.00874
 30
0.0
 40
0.00208333
 41
0.00208333
  0
VERTEX
  8
0
 10
15.8785
 20
5.00874
 30
0.0
 40
0.00208333
 41
0.00208333
  0
SEQEND
 8
0
  0
POLYLINE
  8
0
 62
     7
 66
     1
 10
0
 20
0
 30
0.0
 70
     1
 40
0
 41
0
  0
VERTEX
  8
0
 10
7.58703
 20
6.70708
 30
0.0
 40
0
 41
0
  0
VERTEX
  8
0
 10
8.21203
 20
6.70708
 30
0.0
 40
0
 41
0
  0
VERTEX
  8
0
 10
8.21203
 20
6.08208
 30
0.0
 40
0
 41
0
  0
VERTEX
  8
0
 10
7.58703
 20
6.08208
 30
0.0
 40
0
 41
0
  0
VERTEX
  8
0
 10
7.58703
 20
6.70708
 30
0.0
 40
0
 41
0
  0
SEQEND
 8
0
  0
POLYLINE
  8
0
 62
     0
 66
     1
 10
0
 20
0
 30
0.0
 70
     1
 40
0.75
 41
0.75
  0
VERTEX
  8
0
 10
7.58703
 20
6.70708
 30
0.0
 40
0.0104167
 41
0.0104167
  0
VERTEX
  8
0
 10
8.21203
 20
6.70708
 30
0.0
 40
0.0104167
 41
0.0104167
  0
VERTEX
  8
0
 10
8.21203
 20
6.08208
 30
0.0
 40
0.0104167
 41
0.0104167
  0
VERTEX
  8
0
 10
7.58703
 20
6.08208
 30
0.0
 40
0.0104167
 41
0.0104167
  0
VERTEX
  8
0
 10
7.58703
 20
6.70708
 30
0.0
 40
0.0104167
 41
0.0104167
  0
SEQEND
 8
0
  0
POLYLINE
  8
0
 62
     0
 66
     1
 10
0
 20
0
 30
0.0
 40
0.75
 41
0.75
  0
VERTEX
  8
0
 10
7.58703
 20
6.70708
 30
0.0
 40
0.0104167
 41
0.0104167
  0
VERTEX
  8
0
 10
7.89953
 20
6.32058
 30
0.0
 40
0.0104167
 41
0.0104167
  0
VERTEX
  8
0
 10
7.89953
 20
6.50808
 30
0.0
 40
0.0104167
 41
0.0104167
  0
VERTEX
  8
0
 10
8.21203
 20
6.12061
 30
0.0
 40
0.0104167
 41
0.0104167
  0
SEQEND
 8
0
  0
POLYLINE
  8
0
 62
     7
 66
     1
 10
0
 20
0
 30
0.0
 70
     1
 40
0
 41
0
  0
VERTEX
  8
0
 10
7.58703
 20
6.12375
 30
0.0
 40
0
 41
0
  0
VERTEX
  8
0
 10
8.21203
 20
6.12375
 30
0.0
 40
0
 41
0
  0
VERTEX
  8
0
 10
8.21203
 20
6.08208
 30
0.0
 40
0
 41
0
  0
VERTEX
  8
0
 10
7.58703
 20
6.08208
 30
0.0
 40
0
 41
0
  0
VERTEX
  8
0
 10
7.58703
 20
6.12375
 30
0.0
 40
0
 41
0
  0
SEQEND
 8
0
  0
POLYLINE
  8
0
 62
     0
 66
     1
 10
0
 20
0
 30
0.0
 70
     1
 40
0.75
 41
0.75
  0
VERTEX
  8
0
 10
7.58703
 20
6.12375
 30
0.0
 40
0.0104167
 41
0.0104167
  0
VERTEX
  8
0
 10
8.21203
 20
6.12375
 30
0.0
 40
0.0104167
 41
0.0104167
  0
VERTEX
  8
0
 10
8.21203
 20
6.08208
 30
0.0
 40
0.0104167
 41
0.0104167
  0
VERTEX
  8
0
 10
7.58703
 20
6.08208
 30
0.0
 40
0.0104167
 41
0.0104167
  0
VERTEX
  8
0
 10
7.58703
 20
6.12375
 30
0.0
 40
0.0104167
 41
0.0104167
  0
SEQEND
 8
0
  0
POLYLINE
  8
0
 62
     7
 66
     1
 10
0
 20
0
 30
0.0
 70
     1
 40
0
 41
0
  0
VERTEX
  8
0
 10
7.58703
 20
6.08111
 30
0.0
 40
0
 41
0
  0
VERTEX
  8
0
 10
4.6869
 20
6.08111
 30
0.0
 40
0
 41
0
  0
VERTEX
  8
0
 10
4.65793
 20
6.10818
 30
0.0
 40
0
 41
0
  0
VERTEX
  8
0
 10
4.63129
 20
6.1415
 30
0.0
 40
0
 41
0
  0
VERTEX
  8
0
 10
4.62017
 20
6.18599
 30
0.0
 40
0
 41
0
  0
VERTEX
  8
0
 10
4.62017
 20
6.70649
 30
0.0
 40
0
 41
0
  0
VERTEX
  8
0
 10
7.58703
 20
6.70703
 30
0.0
 40
0
 41
0
  0
VERTEX
  8
0
 10
7.58703
 20
6.08111
 30
0.0
 40
0
 41
0
  0
SEQEND
 8
0
  0
POLYLINE
  8
0
 62
     0
 66
     1
 10
0
 20
0
 30
0.0
 70
     1
 40
0.75
 41
0.75
  0
VERTEX
  8
0
 10
7.58703
 20
6.08111
 30
0.0
 40
0.0104167
 41
0.0104167
  0
VERTEX
  8
0
 10
4.6869
 20
6.08111
 30
0.0
 40
0.0104167
 41
0.0104167
  0
VERTEX
  8
0
 10
4.65793
 20
6.10818
 30
0.0
 40
0.0104167
 41
0.0104167
  0
VERTEX
  8
0
 10
4.63129
 20
6.1415
 30
0.0
 40
0.0104167
 41
0.0104167
  0
VERTEX
  8
0
 10
4.62017
 20
6.18599
 30
0.0
 40
0.0104167
 41
0.0104167
  0
VERTEX
  8
0
 10
4.62017
 20
6.70649
 30
0.0
 40
0.0104167
 41
0.0104167
  0
VERTEX
  8
0
 10
7.58703
 20
6.70703
 30
0.0
 40
0.0104167
 41
0.0104167
  0
VERTEX
  8
0
 10
7.58703
 20
6.08111
 30
0.0
 40
0.0104167
 41
0.0104167
  0
SEQEND
 8
0
  0
POLYLINE
  8
0
 62
     7
 66
     1
 10
0
 20
0
 30
0.0
 70
     1
 40
0
 41
0
  0
VERTEX
  8
0
 10
6.5
 20
6.6869
 30
0.0
 40
0
 41
0
  0
VERTEX
  8
0
 10
7.00336
 20
6.6869
 30
0.0
 40
0
 41
0
  0
VERTEX
  8
0
 10
7.00336
 20
6.10357
 30
0.0
 40
0
 41
0
  0
VERTEX
  8
0
 10
6.5
 20
6.10357
 30
0.0
 40
0
 41
0
  0
VERTEX
  8
0
 10
6.5
 20
6.6869
 30
0.0
 40
0
 41
0
  0
SEQEND
 8
0
  0
POLYLINE
  8
0
 62
     0
 66
     1
 10
0
 20
0
 30
0.0
 70
     1
 40
0.75
 41
0.75
  0
VERTEX
  8
0
 10
6.5
 20
6.6869
 30
0.0
 40
0.0104167
 41
0.0104167
  0
VERTEX
  8
0
 10
7.00336
 20
6.6869
 30
0.0
 40
0.0104167
 41
0.0104167
  0
VERTEX
  8
0
 10
7.00336
 20
6.10357
 30
0.0
 40
0.0104167
 41
0.0104167
  0
VERTEX
  8
0
 10
6.5
 20
6.10357
 30
0.0
 40
0.0104167
 41
0.0104167
  0
VERTEX
  8
0
 10
6.5
 20
6.6869
 30
0.0
 40
0.0104167
 41
0.0104167
  0
SEQEND
 8
0
  0
POLYLINE
  8
0
 62
     7
 66
     1
 10
0
 20
0
 30
0.0
 70
     1
 40
0
 41
0
  0
VERTEX
  8
0
 10
6.70714
 20
6.54107
 30
0.0
 40
0
 41
0
  0
VERTEX
  8
0
 10
6.70714
 20
6.53299
 30
0.0
 40
0
 41
0
  0
VERTEX
  8
0
 10
6.70057
 20
6.50863
 30
0.0
 40
0
 41
0
  0
VERTEX
  8
0
 10
6.68272
 20
6.48215
 30
0.0
 40
0
 41
0
  0
VERTEX
  8
0
 10
6.65619
 20
6.46431
 30
0.0
 40
0
 41
0
  0
VERTEX
  8
0
 10
6.63189
 20
6.45774
 30
0.0
 40
0
 41
0
  0
VERTEX
  8
0
 10
6.62381
 20
6.45774
 30
0.0
 40
0
 41
0
  0
VERTEX
  8
0
 10
6.61567
 20
6.45774
 30
0.0
 40
0
 41
0
  0
VERTEX
  8
0
 10
6.59131
 20
6.46431
 30
0.0
 40
0
 41
0
  0
VERTEX
  8
0
 10
6.56483
 20
6.48215
 30
0.0
 40
0
 41
0
  0
VERTEX
  8
0
 10
6.54699
 20
6.50863
 30
0.0
 40
0
 41
0
  0
VERTEX
  8
0
 10
6.54047
 20
6.53299
 30
0.0
 40
0
 41
0
  0
VERTEX
  8
0
 10
6.54047
 20
6.54107
 30
0.0
 40
0
 41
0
  0
VERTEX
  8
0
 10
6.54047
 20
6.54921
 30
0.0
 40
0
 41
0
  0
VERTEX
  8
0
 10
6.54699
 20
6.57351
 30
0.0
 40
0
 41
0
  0
VERTEX
  8
0
 10
6.56483
 20
6.59999
 30
0.0
 40
0
 41
0
  0
VERTEX
  8
0
 10
6.59131
 20
6.61789
 30
0.0
 40
0
 41
0
  0
VERTEX
  8
0
 10
6.61567
 20
6.6244
 30
0.0
 40
0
 41
0
  0
VERTEX
  8
0
 10
6.62381
 20
6.6244
 30
0.0
 40
0
 41
0
  0
VERTEX
  8
0
 10
6.63189
 20
6.6244
 30
0.0
 40
0
 41
0
  0
VERTEX
  8
0
 10
6.65619
 20
6.61789
 30
0.0
 40
0
 41
0
  0
VERTEX
  8
0
 10
6.68272
 20
6.59999
 30
0.0
 40
0
 41
0
  0
VERTEX
  8
0
 10
6.70057
 20
6.57351
 30
0.0
 40
0
 41
0
  0
VERTEX
  8
0
 10
6.70714
 20
6.54921
 30
0.0
 40
0
 41
0
  0
VERTEX
  8
0
 10
6.70714
 20
6.54107
 30
0.0
 40
0
 41
0
  0
SEQEND
 8
0
  0
POLYLINE
  8
0
 62
     0
 66
     1
 10
0
 20
0
 30
0.0
 70
     1
 40
0.75
 41
0.75
  0
VERTEX
  8
0
 10
6.70714
 20
6.54107
 30
0.0
 40
0.0104167
 41
0.0104167
  0
VERTEX
  8
0
 10
6.70714
 20
6.53299
 30
0.0
 40
0.0104167
 41
0.0104167
  0
VERTEX
  8
0
 10
6.70057
 20
6.50863
 30
0.0
 40
0.0104167
 41
0.0104167
  0
VERTEX
  8
0
 10
6.68272
 20
6.48215
 30
0.0
 40
0.0104167
 41
0.0104167
  0
VERTEX
  8
0
 10
6.65619
 20
6.46431
 30
0.0
 40
0.0104167
 41
0.0104167
  0
VERTEX
  8
0
 10
6.63189
 20
6.45774
 30
0.0
 40
0.0104167
 41
0.0104167
  0
VERTEX
  8
0
 10
6.62381
 20
6.45774
 30
0.0
 40
0.0104167
 41
0.0104167
  0
VERTEX
  8
0
 10
6.61567
 20
6.45774
 30
0.0
 40
0.0104167
 41
0.0104167
  0
VERTEX
  8
0
 10
6.59131
 20
6.46431
 30
0.0
 40
0.0104167
 41
0.0104167
  0
VERTEX
  8
0
 10
6.56483
 20
6.48215
 30
0.0
 40
0.0104167
 41
0.0104167
  0
VERTEX
  8
0
 10
6.54699
 20
6.50863
 30
0.0
 40
0.0104167
 41
0.0104167
  0
VERTEX
  8
0
 10
6.54047
 20
6.53299
 30
0.0
 40
0.0104167
 41
0.0104167
  0
VERTEX
  8
0
 10
6.54047
 20
6.54107
 30
0.0
 40
0.0104167
 41
0.0104167
  0
VERTEX
  8
0
 10
6.54047
 20
6.54921
 30
0.0
 40
0.0104167
 41
0.0104167
  0
VERTEX
  8
0
 10
6.54699
 20
6.57351
 30
0.0
 40
0.0104167
 41
0.0104167
  0
VERTEX
  8
0
 10
6.56483
 20
6.59999
 30
0.0
 40
0.0104167
 41
0.0104167
  0
VERTEX
  8
0
 10
6.59131
 20
6.61789
 30
0.0
 40
0.0104167
 41
0.0104167
  0
VERTEX
  8
0
 10
6.61567
 20
6.6244
 30
0.0
 40
0.0104167
 41
0.0104167
  0
VERTEX
  8
0
 10
6.62381
 20
6.6244
 30
0.0
 40
0.0104167
 41
0.0104167
  0
VERTEX
  8
0
 10
6.63189
 20
6.6244
 30
0.0
 40
0.0104167
 41
0.0104167
  0
VERTEX
  8
0
 10
6.65619
 20
6.61789
 30
0.0
 40
0.0104167
 41
0.0104167
  0
VERTEX
  8
0
 10
6.68272
 20
6.59999
 30
0.0
 40
0.0104167
 41
0.0104167
  0
VERTEX
  8
0
 10
6.70057
 20
6.57351
 30
0.0
 40
0.0104167
 41
0.0104167
  0
VERTEX
  8
0
 10
6.70714
 20
6.54921
 30
0.0
 40
0.0104167
 41
0.0104167
  0
VERTEX
  8
0
 10
6.70714
 20
6.54107
 30
0.0
 40
0.0104167
 41
0.0104167
  0
SEQEND
 8
0
  0
POLYLINE
  8
0
 62
     7
 66
     1
 10
0
 20
0
 30
0.0
 70
     1
 40
0
 41
0
  0
VERTEX
  8
0
 10
6.96018
 20
6.54107
 30
0.0
 40
0
 41
0
  0
VERTEX
  8
0
 10
6.96018
 20
6.53299
 30
0.0
 40
0
 41
0
  0
VERTEX
  8
0
 10
6.95361
 20
6.50863
 30
0.0
 40
0
 41
0
  0
VERTEX
  8
0
 10
6.93576
 20
6.48215
 30
0.0
 40
0
 41
0
  0
VERTEX
  8
0
 10
6.90924
 20
6.46431
 30
0.0
 40
0
 41
0
  0
VERTEX
  8
0
 10
6.88493
 20
6.45774
 30
0.0
 40
0
 41
0
  0
VERTEX
  8
0
 10
6.87685
 20
6.45774
 30
0.0
 40
0
 41
0
  0
VERTEX
  8
0
 10
6.86871
 20
6.45774
 30
0.0
 40
0
 41
0
  0
VERTEX
  8
0
 10
6.8444
 20
6.46431
 30
0.0
 40
0
 41
0
  0
VERTEX
  8
0
 10
6.81793
 20
6.48215
 30
0.0
 40
0
 41
0
  0
VERTEX
  8
0
 10
6.80003
 20
6.50863
 30
0.0
 40
0
 41
0
  0
VERTEX
  8
0
 10
6.79351
 20
6.53299
 30
0.0
 40
0
 41
0
  0
VERTEX
  8
0
 10
6.79351
 20
6.54107
 30
0.0
 40
0
 41
0
  0
VERTEX
  8
0
 10
6.79351
 20
6.54921
 30
0.0
 40
0
 41
0
  0
VERTEX
  8
0
 10
6.80003
 20
6.57351
 30
0.0
 40
0
 41
0
  0
VERTEX
  8
0
 10
6.81793
 20
6.59999
 30
0.0
 40
0
 41
0
  0
VERTEX
  8
0
 10
6.8444
 20
6.61789
 30
0.0
 40
0
 41
0
  0
VERTEX
  8
0
 10
6.86871
 20
6.6244
 30
0.0
 40
0
 41
0
  0
VERTEX
  8
0
 10
6.87685
 20
6.6244
 30
0.0
 40
0
 41
0
  0
VERTEX
  8
0
 10
6.88493
 20
6.6244
 30
0.0
 40
0
 41
0
  0
VERTEX
  8
0
 10
6.90924
 20
6.61789
 30
0.0
 40
0
 41
0
  0
VERTEX
  8
0
 10
6.93576
 20
6.59999
 30
0.0
 40
0
 41
0
  0
VERTEX
  8
0
 10
6.95361
 20
6.57351
 30
0.0
 40
0
 41
0
  0
VERTEX
  8
0
 10
6.96018
 20
6.54921
 30
0.0
 40
0
 41
0
  0
VERTEX
  8
0
 10
6.96018
 20
6.54107
 30
0.0
 40
0
 41
0
  0
SEQEND
 8
0
  0
POLYLINE
  8
0
 62
     0
 66
     1
 10
0
 20
0
 30
0.0
 70
     1
 40
0.75
 41
0.75
  0
VERTEX
  8
0
 10
6.96018
 20
6.54107
 30
0.0
 40
0.0104167
 41
0.0104167
  0
VERTEX
  8
0
 10
6.96018
 20
6.53299
 30
0.0
 40
0.0104167
 41
0.0104167
  0
VERTEX
  8
0
 10
6.95361
 20
6.50863
 30
0.0
 40
0.0104167
 41
0.0104167
  0
VERTEX
  8
0
 10
6.93576
 20
6.48215
 30
0.0
 40
0.0104167
 41
0.0104167
  0
VERTEX
  8
0
 10
6.90924
 20
6.46431
 30
0.0
 40
0.0104167
 41
0.0104167
  0
VERTEX
  8
0
 10
6.88493
 20
6.45774
 30
0.0
 40
0.0104167
 41
0.0104167
  0
VERTEX
  8
0
 10
6.87685
 20
6.45774
 30
0.0
 40
0.0104167
 41
0.0104167
  0
VERTEX
  8
0
 10
6.86871
 20
6.45774
 30
0.0
 40
0.0104167
 41
0.0104167
  0
VERTEX
  8
0
 10
6.8444
 20
6.46431
 30
0.0
 40
0.0104167
 41
0.0104167
  0
VERTEX
  8
0
 10
6.81793
 20
6.48215
 30
0.0
 40
0.0104167
 41
0.0104167
  0
VERTEX
  8
0
 10
6.80003
 20
6.50863
 30
0.0
 40
0.0104167
 41
0.0104167
  0
VERTEX
  8
0
 10
6.79351
 20
6.53299
 30
0.0
 40
0.0104167
 41
0.0104167
  0
VERTEX
  8
0
 10
6.79351
 20
6.54107
 30
0.0
 40
0.0104167
 41
0.0104167
  0
VERTEX
  8
0
 10
6.79351
 20
6.54921
 30
0.0
 40
0.0104167
 41
0.0104167
  0
VERTEX
  8
0
 10
6.80003
 20
6.57351
 30
0.0
 40
0.0104167
 41
0.0104167
  0
VERTEX
  8
0
 10
6.81793
 20
6.59999
 30
0.0
 40
0.0104167
 41
0.0104167
  0
VERTEX
  8
0
 10
6.8444
 20
6.61789
 30
0.0
 40
0.0104167
 41
0.0104167
  0
VERTEX
  8
0
 10
6.86871
 20
6.6244
 30
0.0
 40
0.0104167
 41
0.0104167
  0
VERTEX
  8
0
 10
6.87685
 20
6.6244
 30
0.0
 40
0.0104167
 41
0.0104167
  0
VERTEX
  8
0
 10
6.88493
 20
6.6244
 30
0.0
 40
0.0104167
 41
0.0104167
  0
VERTEX
  8
0
 10
6.90924
 20
6.61789
 30
0.0
 40
0.0104167
 41
0.0104167
  0
VERTEX
  8
0
 10
6.93576
 20
6.59999
 30
0.0
 40
0.0104167
 41
0.0104167
  0
VERTEX
  8
0
 10
6.95361
 20
6.57351
 30
0.0
 40
0.0104167
 41
0.0104167
  0
VERTEX
  8
0
 10
6.96018
 20
6.54921
 30
0.0
 40
0.0104167
 41
0.0104167
  0
VERTEX
  8
0
 10
6.96018
 20
6.54107
 30
0.0
 40
0.0104167
 41
0.0104167
  0
SEQEND
 8
0
  0
POLYLINE
  8
0
 62
     7
 66
     1
 10
0
 20
0
 30
0.0
 70
     1
 40
0
 41
0
  0
VERTEX
  8
0
 10
6.70714
 20
6.2494
 30
0.0
 40
0
 41
0
  0
VERTEX
  8
0
 10
6.70714
 20
6.24132
 30
0.0
 40
0
 41
0
  0
VERTEX
  8
0
 10
6.70057
 20
6.21696
 30
0.0
 40
0
 41
0
  0
VERTEX
  8
0
 10
6.68272
 20
6.19049
 30
0.0
 40
0
 41
0
  0
VERTEX
  8
0
 10
6.65619
 20
6.17264
 30
0.0
 40
0
 41
0
  0
VERTEX
  8
0
 10
6.63189
 20
6.16607
 30
0.0
 40
0
 41
0
  0
VERTEX
  8
0
 10
6.62381
 20
6.16607
 30
0.0
 40
0
 41
0
  0
VERTEX
  8
0
 10
6.61567
 20
6.16607
 30
0.0
 40
0
 41
0
  0
VERTEX
  8
0
 10
6.59131
 20
6.17264
 30
0.0
 40
0
 41
0
  0
VERTEX
  8
0
 10
6.56483
 20
6.19049
 30
0.0
 40
0
 41
0
  0
VERTEX
  8
0
 10
6.54699
 20
6.21696
 30
0.0
 40
0
 41
0
  0
VERTEX
  8
0
 10
6.54047
 20
6.24132
 30
0.0
 40
0
 41
0
  0
VERTEX
  8
0
 10
6.54047
 20
6.2494
 30
0.0
 40
0
 41
0
  0
VERTEX
  8
0
 10
6.54047
 20
6.25754
 30
0.0
 40
0
 41
0
  0
VERTEX
  8
0
 10
6.54699
 20
6.28185
 30
0.0
 40
0
 41
0
  0
VERTEX
  8
0
 10
6.56483
 20
6.30832
 30
0.0
 40
0
 41
0
  0
VERTEX
  8
0
 10
6.59131
 20
6.32622
 30
0.0
 40
0
 41
0
  0
VERTEX
  8
0
 10
6.61567
 20
6.33274
 30
0.0
 40
0
 41
0
  0
VERTEX
  8
0
 10
6.62381
 20
6.33274
 30
0.0
 40
0
 41
0
  0
VERTEX
  8
0
 10
6.63189
 20
6.33274
 30
0.0
 40
0
 41
0
  0
VERTEX
  8
0
 10
6.65619
 20
6.32622
 30
0.0
 40
0
 41
0
  0
VERTEX
  8
0
 10
6.68272
 20
6.30832
 30
0.0
 40
0
 41
0
  0
VERTEX
  8
0
 10
6.70057
 20
6.28185
 30
0.0
 40
0
 41
0
  0
VERTEX
  8
0
 10
6.70714
 20
6.25754
 30
0.0
 40
0
 41
0
  0
VERTEX
  8
0
 10
6.70714
 20
6.2494
 30
0.0
 40
0
 41
0
  0
SEQEND
 8
0
  0
POLYLINE
  8
0
 62
     0
 66
     1
 10
0
 20
0
 30
0.0
 70
     1
 40
0.75
 41
0.75
  0
VERTEX
  8
0
 10
6.70714
 20
6.2494
 30
0.0
 40
0.0104167
 41
0.0104167
  0
VERTEX
  8
0
 10
6.70714
 20
6.24132
 30
0.0
 40
0.0104167
 41
0.0104167
  0
VERTEX
  8
0
 10
6.70057
 20
6.21696
 30
0.0
 40
0.0104167
 41
0.0104167
  0
VERTEX
  8
0
 10
6.68272
 20
6.19049
 30
0.0
 40
0.0104167
 41
0.0104167
  0
VERTEX
  8
0
 10
6.65619
 20
6.17264
 30
0.0
 40
0.0104167
 41
0.0104167
  0
VERTEX
  8
0
 10
6.63189
 20
6.16607
 30
0.0
 40
0.0104167
 41
0.0104167
  0
VERTEX
  8
0
 10
6.62381
 20
6.16607
 30
0.0
 40
0.0104167
 41
0.0104167
  0
VERTEX
  8
0
 10
6.61567
 20
6.16607
 30
0.0
 40
0.0104167
 41
0.0104167
  0
VERTEX
  8
0
 10
6.59131
 20
6.17264
 30
0.0
 40
0.0104167
 41
0.0104167
  0
VERTEX
  8
0
 10
6.56483
 20
6.19049
 30
0.0
 40
0.0104167
 41
0.0104167
  0
VERTEX
  8
0
 10
6.54699
 20
6.21696
 30
0.0
 40
0.0104167
 41
0.0104167
  0
VERTEX
  8
0
 10
6.54047
 20
6.24132
 30
0.0
 40
0.0104167
 41
0.0104167
  0
VERTEX
  8
0
 10
6.54047
 20
6.2494
 30
0.0
 40
0.0104167
 41
0.0104167
  0
VERTEX
  8
0
 10
6.54047
 20
6.25754
 30
0.0
 40
0.0104167
 41
0.0104167
  0
VERTEX
  8
0
 10
6.54699
 20
6.28185
 30
0.0
 40
0.0104167
 41
0.0104167
  0
VERTEX
  8
0
 10
6.56483
 20
6.30832
 30
0.0
 40
0.0104167
 41
0.0104167
  0
VERTEX
  8
0
 10
6.59131
 20
6.32622
 30
0.0
 40
0.0104167
 41
0.0104167
  0
VERTEX
  8
0
 10
6.61567
 20
6.33274
 30
0.0
 40
0.0104167
 41
0.0104167
  0
VERTEX
  8
0
 10
6.62381
 20
6.33274
 30
0.0
 40
0.0104167
 41
0.0104167
  0
VERTEX
  8
0
 10
6.63189
 20
6.33274
 30
0.0
 40
0.0104167
 41
0.0104167
  0
VERTEX
  8
0
 10
6.65619
 20
6.32622
 30
0.0
 40
0.0104167
 41
0.0104167
  0
VERTEX
  8
0
 10
6.68272
 20
6.30832
 30
0.0
 40
0.0104167
 41
0.0104167
  0
VERTEX
  8
0
 10
6.70057
 20
6.28185
 30
0.0
 40
0.0104167
 41
0.0104167
  0
VERTEX
  8
0
 10
6.70714
 20
6.25754
 30
0.0
 40
0.0104167
 41
0.0104167
  0
VERTEX
  8
0
 10
6.70714
 20
6.2494
 30
0.0
 40
0.0104167
 41
0.0104167
  0
SEQEND
 8
0
  0
POLYLINE
  8
0
 62
     7
 66
     1
 10
0
 20
0
 30
0.0
 70
     1
 40
0
 41
0
  0
VERTEX
  8
0
 10
6.96018
 20
6.2494
 30
0.0
 40
0
 41
0
  0
VERTEX
  8
0
 10
6.96018
 20
6.24132
 30
0.0
 40
0
 41
0
  0
VERTEX
  8
0
 10
6.95361
 20
6.21696
 30
0.0
 40
0
 41
0
  0
VERTEX
  8
0
 10
6.93576
 20
6.19049
 30
0.0
 40
0
 41
0
  0
VERTEX
  8
0
 10
6.90924
 20
6.17264
 30
0.0
 40
0
 41
0
  0
VERTEX
  8
0
 10
6.88493
 20
6.16607
 30
0.0
 40
0
 41
0
  0
VERTEX
  8
0
 10
6.87685
 20
6.16607
 30
0.0
 40
0
 41
0
  0
VERTEX
  8
0
 10
6.86871
 20
6.16607
 30
0.0
 40
0
 41
0
  0
VERTEX
  8
0
 10
6.8444
 20
6.17264
 30
0.0
 40
0
 41
0
  0
VERTEX
  8
0
 10
6.81793
 20
6.19049
 30
0.0
 40
0
 41
0
  0
VERTEX
  8
0
 10
6.80003
 20
6.21696
 30
0.0
 40
0
 41
0
  0
VERTEX
  8
0
 10
6.79351
 20
6.24132
 30
0.0
 40
0
 41
0
  0
VERTEX
  8
0
 10
6.79351
 20
6.2494
 30
0.0
 40
0
 41
0
  0
VERTEX
  8
0
 10
6.79351
 20
6.25754
 30
0.0
 40
0
 41
0
  0
VERTEX
  8
0
 10
6.80003
 20
6.28185
 30
0.0
 40
0
 41
0
  0
VERTEX
  8
0
 10
6.81793
 20
6.30832
 30
0.0
 40
0
 41
0
  0
VERTEX
  8
0
 10
6.8444
 20
6.32622
 30
0.0
 40
0
 41
0
  0
VERTEX
  8
0
 10
6.86871
 20
6.33274
 30
0.0
 40
0
 41
0
  0
VERTEX
  8
0
 10
6.87685
 20
6.33274
 30
0.0
 40
0
 41
0
  0
VERTEX
  8
0
 10
6.88493
 20
6.33274
 30
0.0
 40
0
 41
0
  0
VERTEX
  8
0
 10
6.90924
 20
6.32622
 30
0.0
 40
0
 41
0
  0
VERTEX
  8
0
 10
6.93576
 20
6.30832
 30
0.0
 40
0
 41
0
  0
VERTEX
  8
0
 10
6.95361
 20
6.28185
 30
0.0
 40
0
 41
0
  0
VERTEX
  8
0
 10
6.96018
 20
6.25754
 30
0.0
 40
0
 41
0
  0
VERTEX
  8
0
 10
6.96018
 20
6.2494
 30
0.0
 40
0
 41
0
  0
SEQEND
 8
0
  0
POLYLINE
  8
0
 62
     0
 66
     1
 10
0
 20
0
 30
0.0
 70
     1
 40
0.75
 41
0.75
  0
VERTEX
  8
0
 10
6.96018
 20
6.2494
 30
0.0
 40
0.0104167
 41
0.0104167
  0
VERTEX
  8
0
 10
6.96018
 20
6.24132
 30
0.0
 40
0.0104167
 41
0.0104167
  0
VERTEX
  8
0
 10
6.95361
 20
6.21696
 30
0.0
 40
0.0104167
 41
0.0104167
  0
VERTEX
  8
0
 10
6.93576
 20
6.19049
 30
0.0
 40
0.0104167
 41
0.0104167
  0
VERTEX
  8
0
 10
6.90924
 20
6.17264
 30
0.0
 40
0.0104167
 41
0.0104167
  0
VERTEX
  8
0
 10
6.88493
 20
6.16607
 30
0.0
 40
0.0104167
 41
0.0104167
  0
VERTEX
  8
0
 10
6.87685
 20
6.16607
 30
0.0
 40
0.0104167
 41
0.0104167
  0
VERTEX
  8
0
 10
6.86871
 20
6.16607
 30
0.0
 40
0.0104167
 41
0.0104167
  0
VERTEX
  8
0
 10
6.8444
 20
6.17264
 30
0.0
 40
0.0104167
 41
0.0104167
  0
VERTEX
  8
0
 10
6.81793
 20
6.19049
 30
0.0
 40
0.0104167
 41
0.0104167
  0
VERTEX
  8
0
 10
6.80003
 20
6.21696
 30
0.0
 40
0.0104167
 41
0.0104167
  0
VERTEX
  8
0
 10
6.79351
 20
6.24132
 30
0.0
 40
0.0104167
 41
0.0104167
  0
VERTEX
  8
0
 10
6.79351
 20
6.2494
 30
0.0
 40
0.0104167
 41
0.0104167
  0
VERTEX
  8
0
 10
6.79351
 20
6.25754
 30
0.0
 40
0.0104167
 41
0.0104167
  0
VERTEX
  8
0
 10
6.80003
 20
6.28185
 30
0.0
 40
0.0104167
 41
0.0104167
  0
VERTEX
  8
0
 10
6.81793
 20
6.30832
 30
0.0
 40
0.0104167
 41
0.0104167
  0
VERTEX
  8
0
 10
6.8444
 20
6.32622
 30
0.0
 40
0.0104167
 41
0.0104167
  0
VERTEX
  8
0
 10
6.86871
 20
6.33274
 30
0.0
 40
0.0104167
 41
0.0104167
  0
VERTEX
  8
0
 10
6.87685
 20
6.33274
 30
0.0
 40
0.0104167
 41
0.0104167
  0
VERTEX
  8
0
 10
6.88493
 20
6.33274
 30
0.0
 40
0.0104167
 41
0.0104167
  0
VERTEX
  8
0
 10
6.90924
 20
6.32622
 30
0.0
 40
0.0104167
 41
0.0104167
  0
VERTEX
  8
0
 10
6.93576
 20
6.30832
 30
0.0
 40
0.0104167
 41
0.0104167
  0
VERTEX
  8
0
 10
6.95361
 20
6.28185
 30
0.0
 40
0.0104167
 41
0.0104167
  0
VERTEX
  8
0
 10
6.96018
 20
6.25754
 30
0.0
 40
0.0104167
 41
0.0104167
  0
VERTEX
  8
0
 10
6.96018
 20
6.2494
 30
0.0
 40
0.0104167
 41
0.0104167
  0
SEQEND
 8
0
  0
POLYLINE
  8
0
 62
     7
 66
     1
 10
0
 20
0
 30
0.0
 70
     1
 40
0
 41
0
  0
VERTEX
  8
0
 10
5.41249
 20
6.6046
 30
0.0
 40
0
 41
0
  0
VERTEX
  8
0
 10
5.60487
 20
6.6046
 30
0.0
 40
0
 41
0
  0
VERTEX
  8
0
 10
5.60487
 20
6.13585
 30
0.0
 40
0
 41
0
  0
VERTEX
  8
0
 10
5.41249
 20
6.13585
 30
0.0
 40
0
 41
0
  0
VERTEX
  8
0
 10
5.41249
 20
6.6046
 30
0.0
 40
0
 41
0
  0
SEQEND
 8
0
  0
POLYLINE
  8
0
 62
     0
 66
     1
 10
0
 20
0
 30
0.0
 70
     1
 40
0.75
 41
0.75
  0
VERTEX
  8
0
 10
5.41249
 20
6.6046
 30
0.0
 40
0.0104167
 41
0.0104167
  0
VERTEX
  8
0
 10
5.60487
 20
6.6046
 30
0.0
 40
0.0104167
 41
0.0104167
  0
VERTEX
  8
0
 10
5.60487
 20
6.13585
 30
0.0
 40
0.0104167
 41
0.0104167
  0
VERTEX
  8
0
 10
5.41249
 20
6.13585
 30
0.0
 40
0.0104167
 41
0.0104167
  0
VERTEX
  8
0
 10
5.41249
 20
6.6046
 30
0.0
 40
0.0104167
 41
0.0104167
  0
SEQEND
 8
0
  0
POLYLINE
  8
0
 62
     7
 66
     1
 10
0
 20
0
 30
0.0
 70
     1
 40
0
 41
0
  0
VERTEX
  8
0
 10
5.63374
 20
6.60357
 30
0.0
 40
0
 41
0
  0
VERTEX
  8
0
 10
5.98975
 20
6.60357
 30
0.0
 40
0
 41
0
  0
VERTEX
  8
0
 10
5.98975
 20
6.13482
 30
0.0
 40
0
 41
0
  0
VERTEX
  8
0
 10
5.63374
 20
6.13482
 30
0.0
 40
0
 41
0
  0
VERTEX
  8
0
 10
5.63374
 20
6.60357
 30
0.0
 40
0
 41
0
  0
SEQEND
 8
0
  0
POLYLINE
  8
0
 62
     0
 66
     1
 10
0
 20
0
 30
0.0
 70
     1
 40
0.75
 41
0.75
  0
VERTEX
  8
0
 10
5.63374
 20
6.60357
 30
0.0
 40
0.0104167
 41
0.0104167
  0
VERTEX
  8
0
 10
5.98975
 20
6.60357
 30
0.0
 40
0.0104167
 41
0.0104167
  0
VERTEX
  8
0
 10
5.98975
 20
6.13482
 30
0.0
 40
0.0104167
 41
0.0104167
  0
VERTEX
  8
0
 10
5.63374
 20
6.13482
 30
0.0
 40
0.0104167
 41
0.0104167
  0
VERTEX
  8
0
 10
5.63374
 20
6.60357
 30
0.0
 40
0.0104167
 41
0.0104167
  0
SEQEND
 8
0
  0
POLYLINE
  8
0
 62
     7
 66
     1
 10
0
 20
0
 30
0.0
 70
     1
 40
0
 41
0
  0
VERTEX
  8
0
 10
5.54514
 20
6.36919
 30
0.0
 40
0
 41
0
  0
VERTEX
  8
0
 10
5.54514
 20
6.36279
 30
0.0
 40
0
 41
0
  0
VERTEX
  8
0
 10
5.53444
 20
6.34343
 30
0.0
 40
0
 41
0
  0
VERTEX
  8
0
 10
5.51508
 20
6.33274
 30
0.0
 40
0
 41
0
  0
VERTEX
  8
0
 10
5.50868
 20
6.33274
 30
0.0
 40
0
 41
0
  0
VERTEX
  8
0
 10
5.50222
 20
6.33274
 30
0.0
 40
0
 41
0
  0
VERTEX
  8
0
 10
5.48286
 20
6.34343
 30
0.0
 40
0
 41
0
  0
VERTEX
  8
0
 10
5.47222
 20
6.36279
 30
0.0
 40
0
 41
0
  0
VERTEX
  8
0
 10
5.47222
 20
6.36919
 30
0.0
 40
0
 41
0
  0
VERTEX
  8
0
 10
5.47222
 20
6.37565
 30
0.0
 40
0
 41
0
  0
VERTEX
  8
0
 10
5.48286
 20
6.39501
 30
0.0
 40
0
 41
0
  0
VERTEX
  8
0
 10
5.50222
 20
6.40565
 30
0.0
 40
0
 41
0
  0
VERTEX
  8
0
 10
5.50868
 20
6.40565
 30
0.0
 40
0
 41
0
  0
VERTEX
  8
0
 10
5.51508
 20
6.40565
 30
0.0
 40
0
 41
0
  0
VERTEX
  8
0
 10
5.53444
 20
6.39501
 30
0.0
 40
0
 41
0
  0
VERTEX
  8
0
 10
5.54514
 20
6.37565
 30
0.0
 40
0
 41
0
  0
VERTEX
  8
0
 10
5.54514
 20
6.36919
 30
0.0
 40
0
 41
0
  0
SEQEND
 8
0
  0
POLYLINE
  8
0
 62
     0
 66
     1
 10
0
 20
0
 30
0.0
 70
     1
 40
0.6
 41
0.6
  0
VERTEX
  8
0
 10
5.54514
 20
6.36919
 30
0.0
 40
0.00833333
 41
0.00833333
  0
VERTEX
  8
0
 10
5.54514
 20
6.36279
 30
0.0
 40
0.00833333
 41
0.00833333
  0
VERTEX
  8
0
 10
5.53444
 20
6.34343
 30
0.0
 40
0.00833333
 41
0.00833333
  0
VERTEX
  8
0
 10
5.51508
 20
6.33274
 30
0.0
 40
0.00833333
 41
0.00833333
  0
VERTEX
  8
0
 10
5.50868
 20
6.33274
 30
0.0
 40
0.00833333
 41
0.00833333
  0
VERTEX
  8
0
 10
5.50222
 20
6.33274
 30
0.0
 40
0.00833333
 41
0.00833333
  0
VERTEX
  8
0
 10
5.48286
 20
6.34343
 30
0.0
 40
0.00833333
 41
0.00833333
  0
VERTEX
  8
0
 10
5.47222
 20
6.36279
 30
0.0
 40
0.00833333
 41
0.00833333
  0
VERTEX
  8
0
 10
5.47222
 20
6.36919
 30
0.0
 40
0.00833333
 41
0.00833333
  0
VERTEX
  8
0
 10
5.47222
 20
6.37565
 30
0.0
 40
0.00833333
 41
0.00833333
  0
VERTEX
  8
0
 10
5.48286
 20
6.39501
 30
0.0
 40
0.00833333
 41
0.00833333
  0
VERTEX
  8
0
 10
5.50222
 20
6.40565
 30
0.0
 40
0.00833333
 41
0.00833333
  0
VERTEX
  8
0
 10
5.50868
 20
6.40565
 30
0.0
 40
0.00833333
 41
0.00833333
  0
VERTEX
  8
0
 10
5.51508
 20
6.40565
 30
0.0
 40
0.00833333
 41
0.00833333
  0
VERTEX
  8
0
 10
5.53444
 20
6.39501
 30
0.0
 40
0.00833333
 41
0.00833333
  0
VERTEX
  8
0
 10
5.54514
 20
6.37565
 30
0.0
 40
0.00833333
 41
0.00833333
  0
VERTEX
  8
0
 10
5.54514
 20
6.36919
 30
0.0
 40
0.00833333
 41
0.00833333
  0
SEQEND
 8
0
  0
POLYLINE
  8
0
 62
     7
 66
     1
 10
0
 20
0
 30
0.0
 70
     1
 40
0
 41
0
  0
VERTEX
  8
0
 10
5.84343
 20
6.36919
 30
0.0
 40
0
 41
0
  0
VERTEX
  8
0
 10
5.84343
 20
6.36279
 30
0.0
 40
0
 41
0
  0
VERTEX
  8
0
 10
5.83274
 20
6.34343
 30
0.0
 40
0
 41
0
  0
VERTEX
  8
0
 10
5.81337
 20
6.33274
 30
0.0
 40
0
 41
0
  0
VERTEX
  8
0
 10
5.80697
 20
6.33274
 30
0.0
 40
0
 41
0
  0
VERTEX
  8
0
 10
5.80051
 20
6.33274
 30
0.0
 40
0
 41
0
  0
VERTEX
  8
0
 10
5.78114
 20
6.34343
 30
0.0
 40
0
 41
0
  0
VERTEX
  8
0
 10
5.77051
 20
6.36279
 30
0.0
 40
0
 41
0
  0
VERTEX
  8
0
 10
5.77051
 20
6.36919
 30
0.0
 40
0
 41
0
  0
VERTEX
  8
0
 10
5.77051
 20
6.37565
 30
0.0
 40
0
 41
0
  0
VERTEX
  8
0
 10
5.78114
 20
6.39501
 30
0.0
 40
0
 41
0
  0
VERTEX
  8
0
 10
5.80051
 20
6.40565
 30
0.0
 40
0
 41
0
  0
VERTEX
  8
0
 10
5.80697
 20
6.40565
 30
0.0
 40
0
 41
0
  0
VERTEX
  8
0
 10
5.81337
 20
6.40565
 30
0.0
 40
0
 41
0
  0
VERTEX
  8
0
 10
5.83274
 20
6.39501
 30
0.0
 40
0
 41
0
  0
VERTEX
  8
0
 10
5.84343
 20
6.37565
 30
0.0
 40
0
 41
0
  0
VERTEX
  8
0
 10
5.84343
 20
6.36919
 30
0.0
 40
0
 41
0
  0
SEQEND
 8
0
  0
POLYLINE
  8
0
 62
     0
 66
     1
 10
0
 20
0
 30
0.0
 70
     1
 40
0.6
 41
0.6
  0
VERTEX
  8
0
 10
5.84343
 20
6.36919
 30
0.0
 40
0.00833333
 41
0.00833333
  0
VERTEX
  8
0
 10
5.84343
 20
6.36279
 30
0.0
 40
0.00833333
 41
0.00833333
  0
VERTEX
  8
0
 10
5.83274
 20
6.34343
 30
0.0
 40
0.00833333
 41
0.00833333
  0
VERTEX
  8
0
 10
5.81337
 20
6.33274
 30
0.0
 40
0.00833333
 41
0.00833333
  0
VERTEX
  8
0
 10
5.80697
 20
6.33274
 30
0.0
 40
0.00833333
 41
0.00833333
  0
VERTEX
  8
0
 10
5.80051
 20
6.33274
 30
0.0
 40
0.00833333
 41
0.00833333
  0
VERTEX
  8
0
 10
5.78114
 20
6.34343
 30
0.0
 40
0.00833333
 41
0.00833333
  0
VERTEX
  8
0
 10
5.77051
 20
6.36279
 30
0.0
 40
0.00833333
 41
0.00833333
  0
VERTEX
  8
0
 10
5.77051
 20
6.36919
 30
0.0
 40
0.00833333
 41
0.00833333
  0
VERTEX
  8
0
 10
5.77051
 20
6.37565
 30
0.0
 40
0.00833333
 41
0.00833333
  0
VERTEX
  8
0
 10
5.78114
 20
6.39501
 30
0.0
 40
0.00833333
 41
0.00833333
  0
VERTEX
  8
0
 10
5.80051
 20
6.40565
 30
0.0
 40
0.00833333
 41
0.00833333
  0
VERTEX
  8
0
 10
5.80697
 20
6.40565
 30
0.0
 40
0.00833333
 41
0.00833333
  0
VERTEX
  8
0
 10
5.81337
 20
6.40565
 30
0.0
 40
0.00833333
 41
0.00833333
  0
VERTEX
  8
0
 10
5.83274
 20
6.39501
 30
0.0
 40
0.00833333
 41
0.00833333
  0
VERTEX
  8
0
 10
5.84343
 20
6.37565
 30
0.0
 40
0.00833333
 41
0.00833333
  0
VERTEX
  8
0
 10
5.84343
 20
6.36919
 30
0.0
 40
0.00833333
 41
0.00833333
  0
SEQEND
 8
0
  0
POLYLINE
  8
0
 62
     7
 66
     1
 10
0
 20
0
 30
0.0
 70
     1
 40
0
 41
0
  0
VERTEX
  8
0
 10
5.52951
 20
6.36919
 30
0.0
 40
0
 41
0
  0
VERTEX
  8
0
 10
5.52951
 20
6.36556
 30
0.0
 40
0
 41
0
  0
VERTEX
  8
0
 10
5.52339
 20
6.35449
 30
0.0
 40
0
 41
0
  0
VERTEX
  8
0
 10
5.51232
 20
6.34836
 30
0.0
 40
0
 41
0
  0
VERTEX
  8
0
 10
5.50868
 20
6.34836
 30
0.0
 40
0
 41
0
  0
VERTEX
  8
0
 10
5.50499
 20
6.34836
 30
0.0
 40
0
 41
0
  0
VERTEX
  8
0
 10
5.49393
 20
6.35449
 30
0.0
 40
0
 41
0
  0
VERTEX
  8
0
 10
5.48785
 20
6.36556
 30
0.0
 40
0
 41
0
  0
VERTEX
  8
0
 10
5.48785
 20
6.36919
 30
0.0
 40
0
 41
0
  0
VERTEX
  8
0
 10
5.48785
 20
6.37289
 30
0.0
 40
0
 41
0
  0
VERTEX
  8
0
 10
5.49393
 20
6.38396
 30
0.0
 40
0
 41
0
  0
VERTEX
  8
0
 10
5.50499
 20
6.39003
 30
0.0
 40
0
 41
0
  0
VERTEX
  8
0
 10
5.50868
 20
6.39003
 30
0.0
 40
0
 41
0
  0
VERTEX
  8
0
 10
5.51232
 20
6.39003
 30
0.0
 40
0
 41
0
  0
VERTEX
  8
0
 10
5.52339
 20
6.38396
 30
0.0
 40
0
 41
0
  0
VERTEX
  8
0
 10
5.52951
 20
6.37289
 30
0.0
 40
0
 41
0
  0
VERTEX
  8
0
 10
5.52951
 20
6.36919
 30
0.0
 40
0
 41
0
  0
SEQEND
 8
0
  0
POLYLINE
  8
0
 62
     0
 66
     1
 10
0
 20
0
 30
0.0
 70
     1
 40
0.6
 41
0.6
  0
VERTEX
  8
0
 10
5.52951
 20
6.36919
 30
0.0
 40
0.00833333
 41
0.00833333
  0
VERTEX
  8
0
 10
5.52951
 20
6.36556
 30
0.0
 40
0.00833333
 41
0.00833333
  0
VERTEX
  8
0
 10
5.52339
 20
6.35449
 30
0.0
 40
0.00833333
 41
0.00833333
  0
VERTEX
  8
0
 10
5.51232
 20
6.34836
 30
0.0
 40
0.00833333
 41
0.00833333
  0
VERTEX
  8
0
 10
5.50868
 20
6.34836
 30
0.0
 40
0.00833333
 41
0.00833333
  0
VERTEX
  8
0
 10
5.50499
 20
6.34836
 30
0.0
 40
0.00833333
 41
0.00833333
  0
VERTEX
  8
0
 10
5.49393
 20
6.35449
 30
0.0
 40
0.00833333
 41
0.00833333
  0
VERTEX
  8
0
 10
5.48785
 20
6.36556
 30
0.0
 40
0.00833333
 41
0.00833333
  0
VERTEX
  8
0
 10
5.48785
 20
6.36919
 30
0.0
 40
0.00833333
 41
0.00833333
  0
VERTEX
  8
0
 10
5.48785
 20
6.37289
 30
0.0
 40
0.00833333
 41
0.00833333
  0
VERTEX
  8
0
 10
5.49393
 20
6.38396
 30
0.0
 40
0.00833333
 41
0.00833333
  0
VERTEX
  8
0
 10
5.50499
 20
6.39003
 30
0.0
 40
0.00833333
 41
0.00833333
  0
VERTEX
  8
0
 10
5.50868
 20
6.39003
 30
0.0
 40
0.00833333
 41
0.00833333
  0
VERTEX
  8
0
 10
5.51232
 20
6.39003
 30
0.0
 40
0.00833333
 41
0.00833333
  0
VERTEX
  8
0
 10
5.52339
 20
6.38396
 30
0.0
 40
0.00833333
 41
0.00833333
  0
VERTEX
  8
0
 10
5.52951
 20
6.37289
 30
0.0
 40
0.00833333
 41
0.00833333
  0
VERTEX
  8
0
 10
5.52951
 20
6.36919
 30
0.0
 40
0.00833333
 41
0.00833333
  0
SEQEND
 8
0
  0
POLYLINE
  8
0
 62
     7
 66
     1
 10
0
 20
0
 30
0.0
 70
     1
 40
0
 41
0
  0
VERTEX
  8
0
 10
5.82781
 20
6.36919
 30
0.0
 40
0
 41
0
  0
VERTEX
  8
0
 10
5.82781
 20
6.36556
 30
0.0
 40
0
 41
0
  0
VERTEX
  8
0
 10
5.82167
 20
6.35449
 30
0.0
 40
0
 41
0
  0
VERTEX
  8
0
 10
5.8106
 20
6.34836
 30
0.0
 40
0
 41
0
  0
VERTEX
  8
0
 10
5.80697
 20
6.34836
 30
0.0
 40
0
 41
0
  0
VERTEX
  8
0
 10
5.80328
 20
6.34836
 30
0.0
 40
0
 41
0
  0
VERTEX
  8
0
 10
5.79221
 20
6.35449
 30
0.0
 40
0
 41
0
  0
VERTEX
  8
0
 10
5.78614
 20
6.36556
 30
0.0
 40
0
 41
0
  0
VERTEX
  8
0
 10
5.78614
 20
6.36919
 30
0.0
 40
0
 41
0
  0
VERTEX
  8
0
 10
5.78614
 20
6.37289
 30
0.0
 40
0
 41
0
  0
VERTEX
  8
0
 10
5.79221
 20
6.38396
 30
0.0
 40
0
 41
0
  0
VERTEX
  8
0
 10
5.80328
 20
6.39003
 30
0.0
 40
0
 41
0
  0
VERTEX
  8
0
 10
5.80697
 20
6.39003
 30
0.0
 40
0
 41
0
  0
VERTEX
  8
0
 10
5.8106
 20
6.39003
 30
0.0
 40
0
 41
0
  0
VERTEX
  8
0
 10
5.82167
 20
6.38396
 30
0.0
 40
0
 41
0
  0
VERTEX
  8
0
 10
5.82781
 20
6.37289
 30
0.0
 40
0
 41
0
  0
VERTEX
  8
0
 10
5.82781
 20
6.36919
 30
0.0
 40
0
 41
0
  0
SEQEND
 8
0
  0
POLYLINE
  8
0
 62
     0
 66
     1
 10
0
 20
0
 30
0.0
 70
     1
 40
0.6
 41
0.6
  0
VERTEX
  8
0
 10
5.82781
 20
6.36919
 30
0.0
 40
0.00833333
 41
0.00833333
  0
VERTEX
  8
0
 10
5.82781
 20
6.36556
 30
0.0
 40
0.00833333
 41
0.00833333
  0
VERTEX
  8
0
 10
5.82167
 20
6.35449
 30
0.0
 40
0.00833333
 41
0.00833333
  0
VERTEX
  8
0
 10
5.8106
 20
6.34836
 30
0.0
 40
0.00833333
 41
0.00833333
  0
VERTEX
  8
0
 10
5.80697
 20
6.34836
 30
0.0
 40
0.00833333
 41
0.00833333
  0
VERTEX
  8
0
 10
5.80328
 20
6.34836
 30
0.0
 40
0.00833333
 41
0.00833333
  0
VERTEX
  8
0
 10
5.79221
 20
6.35449
 30
0.0
 40
0.00833333
 41
0.00833333
  0
VERTEX
  8
0
 10
5.78614
 20
6.36556
 30
0.0
 40
0.00833333
 41
0.00833333
  0
VERTEX
  8
0
 10
5.78614
 20
6.36919
 30
0.0
 40
0.00833333
 41
0.00833333
  0
VERTEX
  8
0
 10
5.78614
 20
6.37289
 30
0.0
 40
0.00833333
 41
0.00833333
  0
VERTEX
  8
0
 10
5.79221
 20
6.38396
 30
0.0
 40
0.00833333
 41
0.00833333
  0
VERTEX
  8
0
 10
5.80328
 20
6.39003
 30
0.0
 40
0.00833333
 41
0.00833333
  0
VERTEX
  8
0
 10
5.80697
 20
6.39003
 30
0.0
 40
0.00833333
 41
0.00833333
  0
VERTEX
  8
0
 10
5.8106
 20
6.39003
 30
0.0
 40
0.00833333
 41
0.00833333
  0
VERTEX
  8
0
 10
5.82167
 20
6.38396
 30
0.0
 40
0.00833333
 41
0.00833333
  0
VERTEX
  8
0
 10
5.82781
 20
6.37289
 30
0.0
 40
0.00833333
 41
0.00833333
  0
VERTEX
  8
0
 10
5.82781
 20
6.36919
 30
0.0
 40
0.00833333
 41
0.00833333
  0
SEQEND
 8
0
  0
POLYLINE
  8
0
 62
     7
 66
     1
 10
0
 20
0
 30
0.0
 70
     1
 40
0
 41
0
  0
VERTEX
  8
0
 10
5.67225
 20
6.65668
 30
0.0
 40
0
 41
0
  0
VERTEX
  8
0
 10
5.73475
 20
6.65668
 30
0.0
 40
0
 41
0
  0
VERTEX
  8
0
 10
5.73475
 20
6.51085
 30
0.0
 40
0
 41
0
  0
VERTEX
  8
0
 10
5.67225
 20
6.51085
 30
0.0
 40
0
 41
0
  0
VERTEX
  8
0
 10
5.67225
 20
6.65668
 30
0.0
 40
0
 41
0
  0
SEQEND
 8
0
  0
POLYLINE
  8
0
 62
     0
 66
     1
 10
0
 20
0
 30
0.0
 70
     1
 40
0.75
 41
0.75
  0
VERTEX
  8
0
 10
5.67225
 20
6.65668
 30
0.0
 40
0.0104167
 41
0.0104167
  0
VERTEX
  8
0
 10
5.73475
 20
6.65668
 30
0.0
 40
0.0104167
 41
0.0104167
  0
VERTEX
  8
0
 10
5.73475
 20
6.51085
 30
0.0
 40
0.0104167
 41
0.0104167
  0
VERTEX
  8
0
 10
5.67225
 20
6.51085
 30
0.0
 40
0.0104167
 41
0.0104167
  0
VERTEX
  8
0
 10
5.67225
 20
6.65668
 30
0.0
 40
0.0104167
 41
0.0104167
  0
SEQEND
 8
0
  0
POLYLINE
  8
0
 62
     7
 66
     1
 10
0
 20
0
 30
0.0
 70
     1
 40
0
 41
0
  0
VERTEX
  8
0
 10
4.85949
 20
6.70611
 30
0.0
 40
0
 41
0
  0
VERTEX
  8
0
 10
5.36431
 20
6.70611
 30
0.0
 40
0
 41
0
  0
VERTEX
  8
0
 10
5.36431
 20
6.08111
 30
0.0
 40
0
 41
0
  0
VERTEX
  8
0
 10
4.85949
 20
6.08111
 30
0.0
 40
0
 41
0
  0
VERTEX
  8
0
 10
4.85949
 20
6.70611
 30
0.0
 40
0
 41
0
  0
SEQEND
 8
0
  0
POLYLINE
  8
0
 62
     0
 66
     1
 10
0
 20
0
 30
0.0
 70
     1
 40
0.60585
 41
0.60585
  0
VERTEX
  8
0
 10
4.85949
 20
6.70611
 30
0.0
 40
0.00841458
 41
0.00841458
  0
VERTEX
  8
0
 10
5.36431
 20
6.70611
 30
0.0
 40
0.00841458
 41
0.00841458
  0
VERTEX
  8
0
 10
5.36431
 20
6.08111
 30
0.0
 40
0.00841458
 41
0.00841458
  0
VERTEX
  8
0
 10
4.85949
 20
6.08111
 30
0.0
 40
0.00841458
 41
0.00841458
  0
VERTEX
  8
0
 10
4.85949
 20
6.70611
 30
0.0
 40
0.00841458
 41
0.00841458
  0
SEQEND
 8
0
  0
POLYLINE
  8
0
 62
     0
 66
     1
 10
0
 20
0
 30
0.0
 40
0.60585
 41
0.60585
  0
VERTEX
  8
0
 10
4.85949
 20
6.70611
 30
0.0
 40
0.00841458
 41
0.00841458
  0
VERTEX
  8
0
 10
5.11274
 20
6.2915
 30
0.0
 40
0.00841458
 41
0.00841458
  0
VERTEX
  8
0
 10
5.11274
 20
6.50401
 30
0.0
 40
0.00841458
 41
0.00841458
  0
VERTEX
  8
0
 10
5.3635
 20
6.08111
 30
0.0
 40
0.00841458
 41
0.00841458
  0
SEQEND
 8
0
  0
POLYLINE
  8
0
 62
     0
 66
     1
 10
0
 20
0
 30
0.0
 70
     1
 40
0.75
 41
0.75
  0
VERTEX
  8
0
 10
4.62181
 20
6.70708
 30
0.0
 40
0.0104167
 41
0.0104167
  0
VERTEX
  8
0
 10
7.58703
 20
6.70708
 30
0.0
 40
0.0104167
 41
0.0104167
  0
VERTEX
  8
0
 10
7.58703
 20
6.39458
 30
0.0
 40
0.0104167
 41
0.0104167
  0
VERTEX
  8
0
 10
4.62181
 20
6.39458
 30
0.0
 40
0.0104167
 41
0.0104167
  0
VERTEX
  8
0
 10
4.62181
 20
6.70708
 30
0.0
 40
0.0104167
 41
0.0104167
  0
SEQEND
 8
0
  0
POLYLINE
  8
0
 62
     7
 66
     1
 10
0
 20
0
 30
0.0
 70
     1
 40
0
 41
0
  0
VERTEX
  8
0
 10
9.13926
 20
4.03472
 30
0.0
 40
0
 41
0
  0
VERTEX
  8
0
 10
9.73654
 20
4.03472
 30
0.0
 40
0
 41
0
  0
VERTEX
  8
0
 10
9.73654
 20
3.54872
 30
0.0
 40
0
 41
0
  0
VERTEX
  8
0
 10
9.13926
 20
3.54872
 30
0.0
 40
0
 41
0
  0
VERTEX
  8
0
 10
9.13926
 20
4.03472
 30
0.0
 40
0
 41
0
  0
SEQEND
 8
0
  0
POLYLINE
  8
0
 62
     0
 66
     1
 10
0
 20
0
 30
0.0
 70
     1
 40
0.5832
 41
0.5832
  0
VERTEX
  8
0
 10
9.13926
 20
4.03472
 30
0.0
 40
0.0081
 41
0.0081
  0
VERTEX
  8
0
 10
9.13926
 20
3.54872
 30
0.0
 40
0.0081
 41
0.0081
  0
VERTEX
  8
0
 10
9.73654
 20
3.54872
 30
0.0
 40
0.0081
 41
0.0081
  0
VERTEX
  8
0
 10
9.73654
 20
4.03472
 30
0.0
 40
0.0081
 41
0.0081
  0
VERTEX
  8
0
 10
9.13926
 20
4.03472
 30
0.0
 40
0.0081
 41
0.0081
  0
SEQEND
 8
0
  0
POLYLINE
  8
0
 62
     0
 66
     1
 10
0
 20
0
 30
0.0
 40
0.5832
 41
0.5832
  0
VERTEX
  8
0
 10
9.73654
 20
4.03472
 30
0.0
 40
0.0081
 41
0.0081
  0
VERTEX
  8
0
 10
9.34033
 20
3.7909
 30
0.0
 40
0.0081
 41
0.0081
  0
VERTEX
  8
0
 10
9.5434
 20
3.7909
 30
0.0
 40
0.0081
 41
0.0081
  0
VERTEX
  8
0
 10
9.13926
 20
3.54953
 30
0.0
 40
0.0081
 41
0.0081
  0
SEQEND
 8
0
  0
POLYLINE
  8
0
 62
     7
 66
     1
 10
0
 20
0
 30
0.0
 70
     1
 40
0
 41
0
  0
VERTEX
  8
0
 10
9.31375
 20
2.83382
 30
0.0
 40
0
 41
0
  0
VERTEX
  8
0
 10
9.73583
 20
2.83382
 30
0.0
 40
0
 41
0
  0
VERTEX
  8
0
 10
9.73583
 20
2.23964
 30
0.0
 40
0
 41
0
  0
VERTEX
  8
0
 10
9.31375
 20
2.23964
 30
0.0
 40
0
 41
0
  0
VERTEX
  8
0
 10
9.31375
 20
2.83382
 30
0.0
 40
0
 41
0
  0
SEQEND
 8
0
  0
POLYLINE
  8
0
 62
     0
 66
     1
 10
0
 20
0
 30
0.0
 70
     1
 40
0.75
 41
0.75
  0
VERTEX
  8
0
 10
9.31375
 20
2.83382
 30
0.0
 40
0.0104167
 41
0.0104167
  0
VERTEX
  8
0
 10
9.31375
 20
2.23964
 30
0.0
 40
0.0104167
 41
0.0104167
  0
VERTEX
  8
0
 10
9.73583
 20
2.23964
 30
0.0
 40
0.0104167
 41
0.0104167
  0
VERTEX
  8
0
 10
9.73583
 20
2.83382
 30
0.0
 40
0.0104167
 41
0.0104167
  0
VERTEX
  8
0
 10
9.31375
 20
2.83382
 30
0.0
 40
0.0104167
 41
0.0104167
  0
SEQEND
 8
0
  0
POLYLINE
  8
0
 62
     7
 66
     1
 10
0
 20
0
 30
0.0
 70
     1
 40
0
 41
0
  0
VERTEX
  8
0
 10
9.35107
 20
2.78435
 30
0.0
 40
0
 41
0
  0
VERTEX
  8
0
 10
9.63482
 20
2.78435
 30
0.0
 40
0
 41
0
  0
VERTEX
  8
0
 10
9.63482
 20
2.28922
 30
0.0
 40
0
 41
0
  0
VERTEX
  8
0
 10
9.35107
 20
2.28922
 30
0.0
 40
0
 41
0
  0
VERTEX
  8
0
 10
9.35107
 20
2.78435
 30
0.0
 40
0
 41
0
  0
SEQEND
 8
0
  0
POLYLINE
  8
0
 62
     0
 66
     1
 10
0
 20
0
 30
0.0
 70
     1
 40
0.75
 41
0.75
  0
VERTEX
  8
0
 10
9.35107
 20
2.78435
 30
0.0
 40
0.0104167
 41
0.0104167
  0
VERTEX
  8
0
 10
9.35107
 20
2.28922
 30
0.0
 40
0.0104167
 41
0.0104167
  0
VERTEX
  8
0
 10
9.63482
 20
2.28922
 30
0.0
 40
0.0104167
 41
0.0104167
  0
VERTEX
  8
0
 10
9.63482
 20
2.78435
 30
0.0
 40
0.0104167
 41
0.0104167
  0
VERTEX
  8
0
 10
9.35107
 20
2.78435
 30
0.0
 40
0.0104167
 41
0.0104167
  0
SEQEND
 8
0
  0
POLYLINE
  8
0
 62
     7
 66
     1
 10
0
 20
0
 30
0.0
 70
     1
 40
0
 41
0
  0
VERTEX
  8
0
 10
9.50933
 20
2.50028
 30
0.0
 40
0
 41
0
  0
VERTEX
  8
0
 10
9.50287
 20
2.50028
 30
0.0
 40
0
 41
0
  0
VERTEX
  8
0
 10
9.48351
 20
2.51096
 30
0.0
 40
0
 41
0
  0
VERTEX
  8
0
 10
9.47288
 20
2.53033
 30
0.0
 40
0
 41
0
  0
VERTEX
  8
0
 10
9.47288
 20
2.53674
 30
0.0
 40
0
 41
0
  0
VERTEX
  8
0
 10
9.47288
 20
2.54318
 30
0.0
 40
0
 41
0
  0
VERTEX
  8
0
 10
9.48351
 20
2.56256
 30
0.0
 40
0
 41
0
  0
VERTEX
  8
0
 10
9.50287
 20
2.57319
 30
0.0
 40
0
 41
0
  0
VERTEX
  8
0
 10
9.50933
 20
2.57319
 30
0.0
 40
0
 41
0
  0
VERTEX
  8
0
 10
9.51574
 20
2.57319
 30
0.0
 40
0
 41
0
  0
VERTEX
  8
0
 10
9.5351
 20
2.56256
 30
0.0
 40
0
 41
0
  0
VERTEX
  8
0
 10
9.54579
 20
2.54318
 30
0.0
 40
0
 41
0
  0
VERTEX
  8
0
 10
9.54579
 20
2.53674
 30
0.0
 40
0
 41
0
  0
VERTEX
  8
0
 10
9.54579
 20
2.53033
 30
0.0
 40
0
 41
0
  0
VERTEX
  8
0
 10
9.5351
 20
2.51096
 30
0.0
 40
0
 41
0
  0
VERTEX
  8
0
 10
9.51574
 20
2.50028
 30
0.0
 40
0
 41
0
  0
VERTEX
  8
0
 10
9.50933
 20
2.50028
 30
0.0
 40
0
 41
0
  0
SEQEND
 8
0
  0
POLYLINE
  8
0
 62
     0
 66
     1
 10
0
 20
0
 30
0.0
 70
     1
 40
0.6
 41
0.6
  0
VERTEX
  8
0
 10
9.50933
 20
2.50028
 30
0.0
 40
0.00833333
 41
0.00833333
  0
VERTEX
  8
0
 10
9.50287
 20
2.50028
 30
0.0
 40
0.00833333
 41
0.00833333
  0
VERTEX
  8
0
 10
9.48351
 20
2.51096
 30
0.0
 40
0.00833333
 41
0.00833333
  0
VERTEX
  8
0
 10
9.47288
 20
2.53033
 30
0.0
 40
0.00833333
 41
0.00833333
  0
VERTEX
  8
0
 10
9.47288
 20
2.53674
 30
0.0
 40
0.00833333
 41
0.00833333
  0
VERTEX
  8
0
 10
9.47288
 20
2.54318
 30
0.0
 40
0.00833333
 41
0.00833333
  0
VERTEX
  8
0
 10
9.48351
 20
2.56256
 30
0.0
 40
0.00833333
 41
0.00833333
  0
VERTEX
  8
0
 10
9.50287
 20
2.57319
 30
0.0
 40
0.00833333
 41
0.00833333
  0
VERTEX
  8
0
 10
9.50933
 20
2.57319
 30
0.0
 40
0.00833333
 41
0.00833333
  0
VERTEX
  8
0
 10
9.51574
 20
2.57319
 30
0.0
 40
0.00833333
 41
0.00833333
  0
VERTEX
  8
0
 10
9.5351
 20
2.56256
 30
0.0
 40
0.00833333
 41
0.00833333
  0
VERTEX
  8
0
 10
9.54579
 20
2.54318
 30
0.0
 40
0.00833333
 41
0.00833333
  0
VERTEX
  8
0
 10
9.54579
 20
2.53674
 30
0.0
 40
0.00833333
 41
0.00833333
  0
VERTEX
  8
0
 10
9.54579
 20
2.53033
 30
0.0
 40
0.00833333
 41
0.00833333
  0
VERTEX
  8
0
 10
9.5351
 20
2.51096
 30
0.0
 40
0.00833333
 41
0.00833333
  0
VERTEX
  8
0
 10
9.51574
 20
2.50028
 30
0.0
 40
0.00833333
 41
0.00833333
  0
VERTEX
  8
0
 10
9.50933
 20
2.50028
 30
0.0
 40
0.00833333
 41
0.00833333
  0
SEQEND
 8
0
  0
POLYLINE
  8
0
 62
     7
 66
     1
 10
0
 20
0
 30
0.0
 70
     1
 40
0
 41
0
  0
VERTEX
  8
0
 10
9.50933
 20
2.5159
 30
0.0
 40
0
 41
0
  0
VERTEX
  8
0
 10
9.50564
 20
2.5159
 30
0.0
 40
0
 41
0
  0
VERTEX
  8
0
 10
9.49457
 20
2.52203
 30
0.0
 40
0
 41
0
  0
VERTEX
  8
0
 10
9.4885
 20
2.5331
 30
0.0
 40
0
 41
0
  0
VERTEX
  8
0
 10
9.4885
 20
2.53674
 30
0.0
 40
0
 41
0
  0
VERTEX
  8
0
 10
9.4885
 20
2.54042
 30
0.0
 40
0
 41
0
  0
VERTEX
  8
0
 10
9.49457
 20
2.55149
 30
0.0
 40
0
 41
0
  0
VERTEX
  8
0
 10
9.50564
 20
2.55757
 30
0.0
 40
0
 41
0
  0
VERTEX
  8
0
 10
9.50933
 20
2.55757
 30
0.0
 40
0
 41
0
  0
VERTEX
  8
0
 10
9.51297
 20
2.55757
 30
0.0
 40
0
 41
0
  0
VERTEX
  8
0
 10
9.52403
 20
2.55149
 30
0.0
 40
0
 41
0
  0
VERTEX
  8
0
 10
9.53017
 20
2.54042
 30
0.0
 40
0
 41
0
  0
VERTEX
  8
0
 10
9.53017
 20
2.53674
 30
0.0
 40
0
 41
0
  0
VERTEX
  8
0
 10
9.53017
 20
2.5331
 30
0.0
 40
0
 41
0
  0
VERTEX
  8
0
 10
9.52403
 20
2.52203
 30
0.0
 40
0
 41
0
  0
VERTEX
  8
0
 10
9.51297
 20
2.5159
 30
0.0
 40
0
 41
0
  0
VERTEX
  8
0
 10
9.50933
 20
2.5159
 30
0.0
 40
0
 41
0
  0
SEQEND
 8
0
  0
POLYLINE
  8
0
 62
     0
 66
     1
 10
0
 20
0
 30
0.0
 70
     1
 40
0.6
 41
0.6
  0
VERTEX
  8
0
 10
9.50933
 20
2.5159
 30
0.0
 40
0.00833333
 41
0.00833333
  0
VERTEX
  8
0
 10
9.50564
 20
2.5159
 30
0.0
 40
0.00833333
 41
0.00833333
  0
VERTEX
  8
0
 10
9.49457
 20
2.52203
 30
0.0
 40
0.00833333
 41
0.00833333
  0
VERTEX
  8
0
 10
9.4885
 20
2.5331
 30
0.0
 40
0.00833333
 41
0.00833333
  0
VERTEX
  8
0
 10
9.4885
 20
2.53674
 30
0.0
 40
0.00833333
 41
0.00833333
  0
VERTEX
  8
0
 10
9.4885
 20
2.54042
 30
0.0
 40
0.00833333
 41
0.00833333
  0
VERTEX
  8
0
 10
9.49457
 20
2.55149
 30
0.0
 40
0.00833333
 41
0.00833333
  0
VERTEX
  8
0
 10
9.50564
 20
2.55757
 30
0.0
 40
0.00833333
 41
0.00833333
  0
VERTEX
  8
0
 10
9.50933
 20
2.55757
 30
0.0
 40
0.00833333
 41
0.00833333
  0
VERTEX
  8
0
 10
9.51297
 20
2.55757
 30
0.0
 40
0.00833333
 41
0.00833333
  0
VERTEX
  8
0
 10
9.52403
 20
2.55149
 30
0.0
 40
0.00833333
 41
0.00833333
  0
VERTEX
  8
0
 10
9.53017
 20
2.54042
 30
0.0
 40
0.00833333
 41
0.00833333
  0
VERTEX
  8
0
 10
9.53017
 20
2.53674
 30
0.0
 40
0.00833333
 41
0.00833333
  0
VERTEX
  8
0
 10
9.53017
 20
2.5331
 30
0.0
 40
0.00833333
 41
0.00833333
  0
VERTEX
  8
0
 10
9.52403
 20
2.52203
 30
0.0
 40
0.00833333
 41
0.00833333
  0
VERTEX
  8
0
 10
9.51297
 20
2.5159
 30
0.0
 40
0.00833333
 41
0.00833333
  0
VERTEX
  8
0
 10
9.50933
 20
2.5159
 30
0.0
 40
0.00833333
 41
0.00833333
  0
SEQEND
 8
0
  0
POLYLINE
  8
0
 62
     7
 66
     1
 10
0
 20
0
 30
0.0
 70
     1
 40
0
 41
0
  0
VERTEX
  8
0
 10
9.55479
 20
2.5664
 30
0.0
 40
0
 41
0
  0
VERTEX
  8
0
 10
9.70063
 20
2.5664
 30
0.0
 40
0
 41
0
  0
VERTEX
  8
0
 10
9.70063
 20
2.5039
 30
0.0
 40
0
 41
0
  0
VERTEX
  8
0
 10
9.55479
 20
2.5039
 30
0.0
 40
0
 41
0
  0
VERTEX
  8
0
 10
9.55479
 20
2.5664
 30
0.0
 40
0
 41
0
  0
SEQEND
 8
0
  0
POLYLINE
  8
0
 62
     0
 66
     1
 10
0
 20
0
 30
0.0
 70
     1
 40
0.75
 41
0.75
  0
VERTEX
  8
0
 10
9.55479
 20
2.5664
 30
0.0
 40
0.0104167
 41
0.0104167
  0
VERTEX
  8
0
 10
9.55479
 20
2.5039
 30
0.0
 40
0.0104167
 41
0.0104167
  0
VERTEX
  8
0
 10
9.70063
 20
2.5039
 30
0.0
 40
0.0104167
 41
0.0104167
  0
VERTEX
  8
0
 10
9.70063
 20
2.5664
 30
0.0
 40
0.0104167
 41
0.0104167
  0
VERTEX
  8
0
 10
9.55479
 20
2.5664
 30
0.0
 40
0.0104167
 41
0.0104167
  0
SEQEND
 8
0
  0
POLYLINE
  8
0
 62
     7
 66
     1
 10
0
 20
0
 30
0.0
 70
     1
 40
0
 41
0
  0
VERTEX
  8
0
 10
9.54465
 20
2.1154
 30
0.0
 40
0
 41
0
  0
VERTEX
  8
0
 10
9.73193
 20
2.1154
 30
0.0
 40
0
 41
0
  0
VERTEX
  8
0
 10
9.73193
 20
1.69883
 30
0.0
 40
0
 41
0
  0
VERTEX
  8
0
 10
9.54465
 20
1.69883
 30
0.0
 40
0
 41
0
  0
VERTEX
  8
0
 10
9.54465
 20
2.1154
 30
0.0
 40
0
 41
0
  0
SEQEND
 8
0
  0
POLYLINE
  8
0
 62
     0
 66
     1
 10
0
 20
0
 30
0.0
 70
     1
 40
0.75
 41
0.75
  0
VERTEX
  8
0
 10
9.54465
 20
2.1154
 30
0.0
 40
0.0104167
 41
0.0104167
  0
VERTEX
  8
0
 10
9.54465
 20
1.69883
 30
0.0
 40
0.0104167
 41
0.0104167
  0
VERTEX
  8
0
 10
9.73193
 20
1.69883
 30
0.0
 40
0.0104167
 41
0.0104167
  0
VERTEX
  8
0
 10
9.73193
 20
2.1154
 30
0.0
 40
0.0104167
 41
0.0104167
  0
VERTEX
  8
0
 10
9.54465
 20
2.1154
 30
0.0
 40
0.0104167
 41
0.0104167
  0
SEQEND
 8
0
  0
POLYLINE
  8
0
 62
     7
 66
     1
 10
0
 20
0
 30
0.0
 70
     1
 40
0
 41
0
  0
VERTEX
  8
0
 10
9.27636
 20
1.69883
 30
0.0
 40
0
 41
0
  0
VERTEX
  8
0
 10
9.27636
 20
1.69883
 30
0.0
 40
0
 41
0
  0
VERTEX
  8
0
 10
9.2646
 20
1.69879
 30
0.0
 40
0
 41
0
  0
VERTEX
  8
0
 10
9.23361
 20
1.70042
 30
0.0
 40
0
 41
0
  0
VERTEX
  8
0
 10
9.18978
 20
1.70654
 30
0.0
 40
0
 41
0
  0
VERTEX
  8
0
 10
9.13954
 20
1.71994
 30
0.0
 40
0
 41
0
  0
VERTEX
  8
0
 10
9.08931
 20
1.74349
 30
0.0
 40
0
 41
0
  0
VERTEX
  8
0
 10
9.04546
 20
1.77994
 30
0.0
 40
0
 41
0
  0
VERTEX
  8
0
 10
9.01449
 20
1.83214
 30
0.0
 40
0
 41
0
  0
VERTEX
  8
0
 10
9.00276
 20
1.88519
 30
0.0
 40
0
 41
0
  0
VERTEX
  8
0
 10
9.00276
 20
1.90283
 30
0.0
 40
0
 41
0
  0
VERTEX
  8
0
 10
9.00276
 20
1.92117
 30
0.0
 40
0
 41
0
  0
VERTEX
  8
0
 10
9.01449
 20
1.97601
 30
0.0
 40
0
 41
0
  0
VERTEX
  8
0
 10
9.04546
 20
2.03011
 30
0.0
 40
0
 41
0
  0
VERTEX
  8
0
 10
9.08931
 20
2.06793
 30
0.0
 40
0
 41
0
  0
VERTEX
  8
0
 10
9.13954
 20
2.09233
 30
0.0
 40
0
 41
0
  0
VERTEX
  8
0
 10
9.18978
 20
2.10633
 30
0.0
 40
0
 41
0
  0
VERTEX
  8
0
 10
9.23361
 20
2.11274
 30
0.0
 40
0
 41
0
  0
VERTEX
  8
0
 10
9.2646
 20
2.11447
 30
0.0
 40
0
 41
0
  0
VERTEX
  8
0
 10
9.27636
 20
2.11436
 30
0.0
 40
0
 41
0
  0
VERTEX
  8
0
 10
9.27636
 20
2.11436
 30
0.0
 40
0
 41
0
  0
VERTEX
  8
0
 10
9.54465
 20
2.1154
 30
0.0
 40
0
 41
0
  0
VERTEX
  8
0
 10
9.54465
 20
1.69883
 30
0.0
 40
0
 41
0
  0
VERTEX
  8
0
 10
9.27636
 20
1.69883
 30
0.0
 40
0
 41
0
  0
SEQEND
 8
0
  0
POLYLINE
  8
0
 62
     0
 66
     1
 10
0
 20
0
 30
0.0
 70
     1
 40
0.75
 41
0.75
  0
VERTEX
  8
0
 10
9.27636
 20
1.69883
 30
0.0
 40
0.0104167
 41
0.0104167
  0
VERTEX
  8
0
 10
9.27636
 20
1.69883
 30
0.0
 40
0.0104167
 41
0.0104167
  0
VERTEX
  8
0
 10
9.2646
 20
1.69879
 30
0.0
 40
0.0104167
 41
0.0104167
  0
VERTEX
  8
0
 10
9.23361
 20
1.70042
 30
0.0
 40
0.0104167
 41
0.0104167
  0
VERTEX
  8
0
 10
9.18978
 20
1.70654
 30
0.0
 40
0.0104167
 41
0.0104167
  0
VERTEX
  8
0
 10
9.13954
 20
1.71994
 30
0.0
 40
0.0104167
 41
0.0104167
  0
VERTEX
  8
0
 10
9.08931
 20
1.74349
 30
0.0
 40
0.0104167
 41
0.0104167
  0
VERTEX
  8
0
 10
9.04546
 20
1.77994
 30
0.0
 40
0.0104167
 41
0.0104167
  0
VERTEX
  8
0
 10
9.01449
 20
1.83214
 30
0.0
 40
0.0104167
 41
0.0104167
  0
VERTEX
  8
0
 10
9.00276
 20
1.88519
 30
0.0
 40
0.0104167
 41
0.0104167
  0
VERTEX
  8
0
 10
9.00276
 20
1.90283
 30
0.0
 40
0.0104167
 41
0.0104167
  0
VERTEX
  8
0
 10
9.00276
 20
1.92117
 30
0.0
 40
0.0104167
 41
0.0104167
  0
VERTEX
  8
0
 10
9.01449
 20
1.97601
 30
0.0
 40
0.0104167
 41
0.0104167
  0
VERTEX
  8
0
 10
9.04546
 20
2.03011
 30
0.0
 40
0.0104167
 41
0.0104167
  0
VERTEX
  8
0
 10
9.08931
 20
2.06793
 30
0.0
 40
0.0104167
 41
0.0104167
  0
VERTEX
  8
0
 10
9.13954
 20
2.09233
 30
0.0
 40
0.0104167
 41
0.0104167
  0
VERTEX
  8
0
 10
9.18978
 20
2.10633
 30
0.0
 40
0.0104167
 41
0.0104167
  0
VERTEX
  8
0
 10
9.23361
 20
2.11274
 30
0.0
 40
0.0104167
 41
0.0104167
  0
VERTEX
  8
0
 10
9.2646
 20
2.11447
 30
0.0
 40
0.0104167
 41
0.0104167
  0
VERTEX
  8
0
 10
9.27636
 20
2.11436
 30
0.0
 40
0.0104167
 41
0.0104167
  0
VERTEX
  8
0
 10
9.27636
 20
2.11436
 30
0.0
 40
0.0104167
 41
0.0104167
  0
VERTEX
  8
0
 10
9.54465
 20
2.1154
 30
0.0
 40
0.0104167
 41
0.0104167
  0
VERTEX
  8
0
 10
9.54465
 20
1.69883
 30
0.0
 40
0.0104167
 41
0.0104167
  0
VERTEX
  8
0
 10
9.27636
 20
1.69883
 30
0.0
 40
0.0104167
 41
0.0104167
  0
SEQEND
 8
0
  0
POLYLINE
  8
0
 62
     7
 66
     1
 10
0
 20
0
 30
0.0
 70
     1
 40
0
 41
0
  0
VERTEX
  8
0
 10
9.6225
 20
1.94021
 30
0.0
 40
0
 41
0
  0
VERTEX
  8
0
 10
9.65408
 20
1.94021
 30
0.0
 40
0
 41
0
  0
VERTEX
  8
0
 10
9.65408
 20
1.87403
 30
0.0
 40
0
 41
0
  0
VERTEX
  8
0
 10
9.6225
 20
1.87403
 30
0.0
 40
0
 41
0
  0
VERTEX
  8
0
 10
9.6225
 20
1.94021
 30
0.0
 40
0
 41
0
  0
SEQEND
 8
0
  0
POLYLINE
  8
0
 62
     0
 66
     1
 10
0
 20
0
 30
0.0
 70
     1
 40
0.75
 41
0.75
  0
VERTEX
  8
0
 10
9.6225
 20
1.94021
 30
0.0
 40
0.0104167
 41
0.0104167
  0
VERTEX
  8
0
 10
9.6225
 20
1.87403
 30
0.0
 40
0.0104167
 41
0.0104167
  0
VERTEX
  8
0
 10
9.65408
 20
1.87403
 30
0.0
 40
0.0104167
 41
0.0104167
  0
VERTEX
  8
0
 10
9.65408
 20
1.94021
 30
0.0
 40
0.0104167
 41
0.0104167
  0
VERTEX
  8
0
 10
9.6225
 20
1.94021
 30
0.0
 40
0.0104167
 41
0.0104167
  0
SEQEND
 8
0
  0
POLYLINE
  8
0
 62
     7
 66
     1
 10
0
 20
0
 30
0.0
 70
     1
 40
0
 41
0
  0
VERTEX
  8
0
 10
9.6684
 20
1.15251
 30
0.0
 40
0
 41
0
  0
VERTEX
  8
0
 10
9.73193
 20
1.15251
 30
0.0
 40
0
 41
0
  0
VERTEX
  8
0
 10
9.73193
 20
1.03581
 30
0.0
 40
0
 41
0
  0
VERTEX
  8
0
 10
9.6684
 20
1.03581
 30
0.0
 40
0
 41
0
  0
VERTEX
  8
0
 10
9.6684
 20
1.15251
 30
0.0
 40
0
 41
0
  0
SEQEND
 8
0
  0
POLYLINE
  8
0
 62
     0
 66
     1
 10
0
 20
0
 30
0.0
 70
     1
 40
0.75
 41
0.75
  0
VERTEX
  8
0
 10
9.6684
 20
1.15251
 30
0.0
 40
0.0104167
 41
0.0104167
  0
VERTEX
  8
0
 10
9.6684
 20
1.03581
 30
0.0
 40
0.0104167
 41
0.0104167
  0
VERTEX
  8
0
 10
9.73193
 20
1.03581
 30
0.0
 40
0.0104167
 41
0.0104167
  0
VERTEX
  8
0
 10
9.73193
 20
1.15251
 30
0.0
 40
0.0104167
 41
0.0104167
  0
VERTEX
  8
0
 10
9.6684
 20
1.15251
 30
0.0
 40
0.0104167
 41
0.0104167
  0
SEQEND
 8
0
  0
POLYLINE
  8
0
 62
     7
 66
     1
 10
0
 20
0
 30
0.0
 70
     1
 40
0
 41
0
  0
VERTEX
  8
0
 10
9.6684
 20
1.0077
 30
0.0
 40
0
 41
0
  0
VERTEX
  8
0
 10
9.73193
 20
1.0077
 30
0.0
 40
0
 41
0
  0
VERTEX
  8
0
 10
9.73193
 20
0.891004
 30
0.0
 40
0
 41
0
  0
VERTEX
  8
0
 10
9.6684
 20
0.891004
 30
0.0
 40
0
 41
0
  0
VERTEX
  8
0
 10
9.6684
 20
1.0077
 30
0.0
 40
0
 41
0
  0
SEQEND
 8
0
  0
POLYLINE
  8
0
 62
     0
 66
     1
 10
0
 20
0
 30
0.0
 70
     1
 40
0.75
 41
0.75
  0
VERTEX
  8
0
 10
9.6684
 20
1.0077
 30
0.0
 40
0.0104167
 41
0.0104167
  0
VERTEX
  8
0
 10
9.6684
 20
0.891004
 30
0.0
 40
0.0104167
 41
0.0104167
  0
VERTEX
  8
0
 10
9.73193
 20
0.891004
 30
0.0
 40
0.0104167
 41
0.0104167
  0
VERTEX
  8
0
 10
9.73193
 20
1.0077
 30
0.0
 40
0.0104167
 41
0.0104167
  0
VERTEX
  8
0
 10
9.6684
 20
1.0077
 30
0.0
 40
0.0104167
 41
0.0104167
  0
SEQEND
 8
0
  0
POLYLINE
  8
0
 62
     7
 66
     1
 10
0
 20
0
 30
0.0
 70
     1
 40
0
 41
0
  0
VERTEX
  8
0
 10
9.6684
 20
0.89209
 30
0.0
 40
0
 41
0
  0
VERTEX
  8
0
 10
9.73193
 20
0.89209
 30
0.0
 40
0
 41
0
  0
VERTEX
  8
0
 10
9.73193
 20
0.856662
 30
0.0
 40
0
 41
0
  0
VERTEX
  8
0
 10
9.6684
 20
0.856662
 30
0.0
 40
0
 41
0
  0
VERTEX
  8
0
 10
9.6684
 20
0.89209
 30
0.0
 40
0
 41
0
  0
SEQEND
 8
0
  0
POLYLINE
  8
0
 62
     0
 66
     1
 10
0
 20
0
 30
0.0
 70
     1
 40
0.75
 41
0.75
  0
VERTEX
  8
0
 10
9.6684
 20
0.89209
 30
0.0
 40
0.0104167
 41
0.0104167
  0
VERTEX
  8
0
 10
9.6684
 20
0.856662
 30
0.0
 40
0.0104167
 41
0.0104167
  0
VERTEX
  8
0
 10
9.73193
 20
0.856662
 30
0.0
 40
0.0104167
 41
0.0104167
  0
VERTEX
  8
0
 10
9.73193
 20
0.89209
 30
0.0
 40
0.0104167
 41
0.0104167
  0
VERTEX
  8
0
 10
9.6684
 20
0.89209
 30
0.0
 40
0.0104167
 41
0.0104167
  0
SEQEND
 8
0
  0
POLYLINE
  8
0
 62
     7
 66
     1
 10
0
 20
0
 30
0.0
 70
     1
 40
0
 41
0
  0
VERTEX
  8
0
 10
9.6684
 20
1.18582
 30
0.0
 40
0
 41
0
  0
VERTEX
  8
0
 10
9.73193
 20
1.18582
 30
0.0
 40
0
 41
0
  0
VERTEX
  8
0
 10
9.73193
 20
1.15251
 30
0.0
 40
0
 41
0
  0
VERTEX
  8
0
 10
9.6684
 20
1.15251
 30
0.0
 40
0
 41
0
  0
VERTEX
  8
0
 10
9.6684
 20
1.18582
 30
0.0
 40
0
 41
0
  0
SEQEND
 8
0
  0
POLYLINE
  8
0
 62
     0
 66
     1
 10
0
 20
0
 30
0.0
 70
     1
 40
0.75
 41
0.75
  0
VERTEX
  8
0
 10
9.6684
 20
1.18582
 30
0.0
 40
0.0104167
 41
0.0104167
  0
VERTEX
  8
0
 10
9.6684
 20
1.15251
 30
0.0
 40
0.0104167
 41
0.0104167
  0
VERTEX
  8
0
 10
9.73193
 20
1.15251
 30
0.0
 40
0.0104167
 41
0.0104167
  0
VERTEX
  8
0
 10
9.73193
 20
1.18582
 30
0.0
 40
0.0104167
 41
0.0104167
  0
VERTEX
  8
0
 10
9.6684
 20
1.18582
 30
0.0
 40
0.0104167
 41
0.0104167
  0
SEQEND
 8
0
  0
POLYLINE
  8
0
 62
     7
 66
     1
 10
0
 20
0
 30
0.0
 70
     1
 40
0
 41
0
  0
VERTEX
  8
0
 10
9.6486
 20
1.03581
 30
0.0
 40
0
 41
0
  0
VERTEX
  8
0
 10
9.64225
 20
1.03581
 30
0.0
 40
0
 41
0
  0
VERTEX
  8
0
 10
9.62332
 20
1.0395
 30
0.0
 40
0
 41
0
  0
VERTEX
  8
0
 10
9.60092
 20
1.04937
 30
0.0
 40
0
 41
0
  0
VERTEX
  8
0
 10
9.59651
 20
1.05246
 30
0.0
 40
0
 41
0
  0
VERTEX
  8
0
 10
9.59494
 20
1.05355
 30
0.0
 40
0
 41
0
  0
VERTEX
  8
0
 10
9.58035
 20
1.06369
 30
0.0
 40
0
 41
0
  0
VERTEX
  8
0
 10
9.57883
 20
1.06397
 30
0.0
 40
0
 41
0
  0
VERTEX
  8
0
 10
9.57596
 20
1.06451
 30
0.0
 40
0
 41
0
  0
VERTEX
  8
0
 10
9.5594
 20
1.06033
 30
0.0
 40
0
 41
0
  0
VERTEX
  8
0
 10
9.5465
 20
1.04367
 30
0.0
 40
0
 41
0
  0
VERTEX
  8
0
 10
9.54546
 20
1.03792
 30
0.0
 40
0
 41
0
  0
VERTEX
  8
0
 10
9.54519
 20
1.03662
 30
0.0
 40
0
 41
0
  0
VERTEX
  8
0
 10
9.54443
 20
1.02507
 30
0.0
 40
0
 41
0
  0
VERTEX
  8
0
 10
9.54443
 20
1.02121
 30
0.0
 40
0
 41
0
  0
VERTEX
  8
0
 10
9.54443
 20
1.0223
 30
0.0
 40
0
 41
0
  0
VERTEX
  8
0
 10
9.54443
 20
1.01812
 30
0.0
 40
0
 41
0
  0
VERTEX
  8
0
 10
9.54519
 20
1.00689
 30
0.0
 40
0
 41
0
  0
VERTEX
  8
0
 10
9.54546
 20
1.00559
 30
0.0
 40
0
 41
0
  0
VERTEX
  8
0
 10
9.5465
 20
0.999892
 30
0.0
 40
0
 41
0
  0
VERTEX
  8
0
 10
9.5594
 20
0.983236
 30
0.0
 40
0
 41
0
  0
VERTEX
  8
0
 10
9.57596
 20
0.979058
 30
0.0
 40
0
 41
0
  0
VERTEX
  8
0
 10
9.57883
 20
0.979546
 30
0.0
 40
0
 41
0
  0
VERTEX
  8
0
 10
9.58035
 20
0.979818
 30
0.0
 40
0
 41
0
  0
VERTEX
  8
0
 10
9.59494
 20
0.990018
 30
0.0
 40
0
 41
0
  0
VERTEX
  8
0
 10
9.59651
 20
0.991049
 30
0.0
 40
0
 41
0
  0
VERTEX
  8
0
 10
9.60092
 20
0.994194
 30
0.0
 40
0
 41
0
  0
VERTEX
  8
0
 10
9.62332
 20
1.00407
 30
0.0
 40
0
 41
0
  0
VERTEX
  8
0
 10
9.64225
 20
1.0077
 30
0.0
 40
0
 41
0
  0
VERTEX
  8
0
 10
9.6486
 20
1.0077
 30
0.0
 40
0
 41
0
  0
SEQEND
 8
0
  0
POLYLINE
  8
0
 62
     0
 66
     1
 10
0
 20
0
 30
0.0
 40
0.75
 41
0.75
  0
VERTEX
  8
0
 10
9.6486
 20
1.03581
 30
0.0
 40
0.0104167
 41
0.0104167
  0
VERTEX
  8
0
 10
9.64225
 20
1.03581
 30
0.0
 40
0.0104167
 41
0.0104167
  0
VERTEX
  8
0
 10
9.62332
 20
1.0395
 30
0.0
 40
0.0104167
 41
0.0104167
  0
VERTEX
  8
0
 10
9.60092
 20
1.04937
 30
0.0
 40
0.0104167
 41
0.0104167
  0
VERTEX
  8
0
 10
9.59651
 20
1.05246
 30
0.0
 40
0.0104167
 41
0.0104167
  0
VERTEX
  8
0
 10
9.59494
 20
1.05355
 30
0.0
 40
0.0104167
 41
0.0104167
  0
VERTEX
  8
0
 10
9.58035
 20
1.06369
 30
0.0
 40
0.0104167
 41
0.0104167
  0
VERTEX
  8
0
 10
9.57883
 20
1.06397
 30
0.0
 40
0.0104167
 41
0.0104167
  0
VERTEX
  8
0
 10
9.57596
 20
1.06451
 30
0.0
 40
0.0104167
 41
0.0104167
  0
VERTEX
  8
0
 10
9.5594
 20
1.06033
 30
0.0
 40
0.0104167
 41
0.0104167
  0
VERTEX
  8
0
 10
9.5465
 20
1.04367
 30
0.0
 40
0.0104167
 41
0.0104167
  0
VERTEX
  8
0
 10
9.54546
 20
1.03792
 30
0.0
 40
0.0104167
 41
0.0104167
  0
VERTEX
  8
0
 10
9.54519
 20
1.03662
 30
0.0
 40
0.0104167
 41
0.0104167
  0
VERTEX
  8
0
 10
9.54443
 20
1.02507
 30
0.0
 40
0.0104167
 41
0.0104167
  0
VERTEX
  8
0
 10
9.54443
 20
1.02121
 30
0.0
 40
0.0104167
 41
0.0104167
  0
VERTEX
  8
0
 10
9.54443
 20
1.0223
 30
0.0
 40
0.0104167
 41
0.0104167
  0
VERTEX
  8
0
 10
9.54443
 20
1.01812
 30
0.0
 40
0.0104167
 41
0.0104167
  0
VERTEX
  8
0
 10
9.54519
 20
1.00689
 30
0.0
 40
0.0104167
 41
0.0104167
  0
VERTEX
  8
0
 10
9.54546
 20
1.00559
 30
0.0
 40
0.0104167
 41
0.0104167
  0
VERTEX
  8
0
 10
9.5465
 20
0.999892
 30
0.0
 40
0.0104167
 41
0.0104167
  0
VERTEX
  8
0
 10
9.5594
 20
0.983236
 30
0.0
 40
0.0104167
 41
0.0104167
  0
VERTEX
  8
0
 10
9.57596
 20
0.979058
 30
0.0
 40
0.0104167
 41
0.0104167
  0
VERTEX
  8
0
 10
9.57883
 20
0.979546
 30
0.0
 40
0.0104167
 41
0.0104167
  0
VERTEX
  8
0
 10
9.58035
 20
0.979818
 30
0.0
 40
0.0104167
 41
0.0104167
  0
VERTEX
  8
0
 10
9.59494
 20
0.990018
 30
0.0
 40
0.0104167
 41
0.0104167
  0
VERTEX
  8
0
 10
9.59651
 20
0.991049
 30
0.0
 40
0.0104167
 41
0.0104167
  0
VERTEX
  8
0
 10
9.60092
 20
0.994194
 30
0.0
 40
0.0104167
 41
0.0104167
  0
VERTEX
  8
0
 10
9.62332
 20
1.00407
 30
0.0
 40
0.0104167
 41
0.0104167
  0
VERTEX
  8
0
 10
9.64225
 20
1.0077
 30
0.0
 40
0.0104167
 41
0.0104167
  0
VERTEX
  8
0
 10
9.6486
 20
1.0077
 30
0.0
 40
0.0104167
 41
0.0104167
  0
SEQEND
 8
0
  0
POLYLINE
  8
0
 62
     7
 66
     1
 10
0
 20
0
 30
0.0
 70
     1
 40
0
 41
0
  0
VERTEX
  8
0
 10
9.57781
 20
1.06397
 30
0.0
 40
0
 41
0
  0
VERTEX
  8
0
 10
9.57726
 20
1.06369
 30
0.0
 40
0
 41
0
  0
VERTEX
  8
0
 10
9.56706
 20
1.05187
 30
0.0
 40
0
 41
0
  0
VERTEX
  8
0
 10
9.558
 20
1.0281
 30
0.0
 40
0
 41
0
  0
VERTEX
  8
0
 10
9.558
 20
1.02018
 30
0.0
 40
0
 41
0
  0
VERTEX
  8
0
 10
9.55821
 20
1.01394
 30
0.0
 40
0
 41
0
  0
VERTEX
  8
0
 10
9.56749
 20
0.991319
 30
0.0
 40
0
 41
0
  0
VERTEX
  8
0
 10
9.57726
 20
0.980089
 30
0.0
 40
0
 41
0
  0
VERTEX
  8
0
 10
9.57781
 20
0.979546
 30
0.0
 40
0
 41
0
  0
SEQEND
 8
0
  0
POLYLINE
  8
0
 62
     0
 66
     1
 10
0
 20
0
 30
0.0
 40
0.75
 41
0.75
  0
VERTEX
  8
0
 10
9.57781
 20
1.06397
 30
0.0
 40
0.0104167
 41
0.0104167
  0
VERTEX
  8
0
 10
9.57726
 20
1.06369
 30
0.0
 40
0.0104167
 41
0.0104167
  0
VERTEX
  8
0
 10
9.56706
 20
1.05187
 30
0.0
 40
0.0104167
 41
0.0104167
  0
VERTEX
  8
0
 10
9.558
 20
1.0281
 30
0.0
 40
0.0104167
 41
0.0104167
  0
VERTEX
  8
0
 10
9.558
 20
1.02018
 30
0.0
 40
0.0104167
 41
0.0104167
  0
VERTEX
  8
0
 10
9.55821
 20
1.01394
 30
0.0
 40
0.0104167
 41
0.0104167
  0
VERTEX
  8
0
 10
9.56749
 20
0.991319
 30
0.0
 40
0.0104167
 41
0.0104167
  0
VERTEX
  8
0
 10
9.57726
 20
0.980089
 30
0.0
 40
0.0104167
 41
0.0104167
  0
VERTEX
  8
0
 10
9.57781
 20
0.979546
 30
0.0
 40
0.0104167
 41
0.0104167
  0
SEQEND
 8
0
  0
POLYLINE
  8
0
 62
     7
 66
     1
 10
0
 20
0
 30
0.0
 70
     1
 40
0
 41
0
  0
VERTEX
  8
0
 10
9.73193
 20
1.03581
 30
0.0
 40
0
 41
0
  0
VERTEX
  8
0
 10
9.73193
 20
1.0077
 30
0.0
 40
0
 41
0
  0
VERTEX
  8
0
 10
9.6486
 20
1.0077
 30
0.0
 40
0
 41
0
  0
VERTEX
  8
0
 10
9.6486
 20
1.01476
 30
0.0
 40
0
 41
0
  0
VERTEX
  8
0
 10
9.6486
 20
1.03054
 30
0.0
 40
0
 41
0
  0
VERTEX
  8
0
 10
9.6486
 20
1.03581
 30
0.0
 40
0
 41
0
  0
VERTEX
  8
0
 10
9.66943
 20
1.03581
 30
0.0
 40
0
 41
0
  0
VERTEX
  8
0
 10
9.71631
 20
1.03581
 30
0.0
 40
0
 41
0
  0
VERTEX
  8
0
 10
9.73193
 20
1.03581
 30
0.0
 40
0
 41
0
  0
SEQEND
 8
0
  0
POLYLINE
  8
0
 62
     0
 66
     1
 10
0
 20
0
 30
0.0
 70
     1
 40
0.75
 41
0.75
  0
VERTEX
  8
0
 10
9.73193
 20
1.03581
 30
0.0
 40
0.0104167
 41
0.0104167
  0
VERTEX
  8
0
 10
9.73193
 20
1.0077
 30
0.0
 40
0.0104167
 41
0.0104167
  0
VERTEX
  8
0
 10
9.6486
 20
1.0077
 30
0.0
 40
0.0104167
 41
0.0104167
  0
VERTEX
  8
0
 10
9.6486
 20
1.01476
 30
0.0
 40
0.0104167
 41
0.0104167
  0
VERTEX
  8
0
 10
9.6486
 20
1.03054
 30
0.0
 40
0.0104167
 41
0.0104167
  0
VERTEX
  8
0
 10
9.6486
 20
1.03581
 30
0.0
 40
0.0104167
 41
0.0104167
  0
VERTEX
  8
0
 10
9.66943
 20
1.03581
 30
0.0
 40
0.0104167
 41
0.0104167
  0
VERTEX
  8
0
 10
9.71631
 20
1.03581
 30
0.0
 40
0.0104167
 41
0.0104167
  0
VERTEX
  8
0
 10
9.73193
 20
1.03581
 30
0.0
 40
0.0104167
 41
0.0104167
  0
SEQEND
 8
0
  0
POLYLINE
  8
0
 62
     7
 66
     1
 10
0
 20
0
 30
0.0
 70
     1
 40
0
 41
0
  0
VERTEX
  8
0
 10
9.69965
 20
1.15251
 30
0.0
 40
0
 41
0
  0
VERTEX
  8
0
 10
9.70085
 20
1.14931
 30
0.0
 40
0
 41
0
  0
VERTEX
  8
0
 10
9.70469
 20
1.13965
 30
0.0
 40
0
 41
0
  0
VERTEX
  8
0
 10
9.70589
 20
1.13688
 30
0.0
 40
0
 41
0
  0
VERTEX
  8
0
 10
9.70589
 20
1.13688
 30
0.0
 40
0
 41
0
  0
VERTEX
  8
0
 10
9.70443
 20
1.13688
 30
0.0
 40
0
 41
0
  0
VERTEX
  8
0
 10
9.70014
 20
1.13688
 30
0.0
 40
0
 41
0
  0
VERTEX
  8
0
 10
9.69586
 20
1.13688
 30
0.0
 40
0
 41
0
  0
VERTEX
  8
0
 10
9.69444
 20
1.13688
 30
0.0
 40
0
 41
0
  0
VERTEX
  8
0
 10
9.69444
 20
1.13688
 30
0.0
 40
0
 41
0
  0
VERTEX
  8
0
 10
9.6951
 20
1.13927
 30
0.0
 40
0
 41
0
  0
VERTEX
  8
0
 10
9.69846
 20
1.14925
 30
0.0
 40
0
 41
0
  0
VERTEX
  8
0
 10
9.69965
 20
1.15251
 30
0.0
 40
0
 41
0
  0
SEQEND
 8
0
  0
POLYLINE
  8
0
 62
     0
 66
     1
 10
0
 20
0
 30
0.0
 70
     1
 40
0.75
 41
0.75
  0
VERTEX
  8
0
 10
9.69965
 20
1.15251
 30
0.0
 40
0.0104167
 41
0.0104167
  0
VERTEX
  8
0
 10
9.70085
 20
1.14931
 30
0.0
 40
0.0104167
 41
0.0104167
  0
VERTEX
  8
0
 10
9.70469
 20
1.13965
 30
0.0
 40
0.0104167
 41
0.0104167
  0
VERTEX
  8
0
 10
9.70589
 20
1.13688
 30
0.0
 40
0.0104167
 41
0.0104167
  0
VERTEX
  8
0
 10
9.70589
 20
1.13688
 30
0.0
 40
0.0104167
 41
0.0104167
  0
VERTEX
  8
0
 10
9.70443
 20
1.13688
 30
0.0
 40
0.0104167
 41
0.0104167
  0
VERTEX
  8
0
 10
9.70014
 20
1.13688
 30
0.0
 40
0.0104167
 41
0.0104167
  0
VERTEX
  8
0
 10
9.69586
 20
1.13688
 30
0.0
 40
0.0104167
 41
0.0104167
  0
VERTEX
  8
0
 10
9.69444
 20
1.13688
 30
0.0
 40
0.0104167
 41
0.0104167
  0
VERTEX
  8
0
 10
9.69444
 20
1.13688
 30
0.0
 40
0.0104167
 41
0.0104167
  0
VERTEX
  8
0
 10
9.6951
 20
1.13927
 30
0.0
 40
0.0104167
 41
0.0104167
  0
VERTEX
  8
0
 10
9.69846
 20
1.14925
 30
0.0
 40
0.0104167
 41
0.0104167
  0
VERTEX
  8
0
 10
9.69965
 20
1.15251
 30
0.0
 40
0.0104167
 41
0.0104167
  0
SEQEND
 8
0
  0
POLYLINE
  8
0
 62
     7
 66
     1
 10
0
 20
0
 30
0.0
 70
     1
 40
0
 41
0
  0
VERTEX
  8
0
 10
9.69965
 20
0.89209
 30
0.0
 40
0
 41
0
  0
VERTEX
  8
0
 10
9.70085
 20
0.895344
 30
0.0
 40
0
 41
0
  0
VERTEX
  8
0
 10
9.70469
 20
0.905003
 30
0.0
 40
0
 41
0
  0
VERTEX
  8
0
 10
9.70589
 20
0.907715
 30
0.0
 40
0
 41
0
  0
VERTEX
  8
0
 10
9.70589
 20
0.907715
 30
0.0
 40
0
 41
0
  0
VERTEX
  8
0
 10
9.70443
 20
0.907715
 30
0.0
 40
0
 41
0
  0
VERTEX
  8
0
 10
9.70014
 20
0.907715
 30
0.0
 40
0
 41
0
  0
VERTEX
  8
0
 10
9.69586
 20
0.907715
 30
0.0
 40
0
 41
0
  0
VERTEX
  8
0
 10
9.69444
 20
0.907715
 30
0.0
 40
0
 41
0
  0
VERTEX
  8
0
 10
9.69444
 20
0.907715
 30
0.0
 40
0
 41
0
  0
VERTEX
  8
0
 10
9.6951
 20
0.905382
 30
0.0
 40
0
 41
0
  0
VERTEX
  8
0
 10
9.69846
 20
0.8954
 30
0.0
 40
0
 41
0
  0
VERTEX
  8
0
 10
9.69965
 20
0.89209
 30
0.0
 40
0
 41
0
  0
SEQEND
 8
0
  0
POLYLINE
  8
0
 62
     0
 66
     1
 10
0
 20
0
 30
0.0
 70
     1
 40
0.75
 41
0.75
  0
VERTEX
  8
0
 10
9.69965
 20
0.89209
 30
0.0
 40
0.0104167
 41
0.0104167
  0
VERTEX
  8
0
 10
9.70085
 20
0.895344
 30
0.0
 40
0.0104167
 41
0.0104167
  0
VERTEX
  8
0
 10
9.70469
 20
0.905003
 30
0.0
 40
0.0104167
 41
0.0104167
  0
VERTEX
  8
0
 10
9.70589
 20
0.907715
 30
0.0
 40
0.0104167
 41
0.0104167
  0
VERTEX
  8
0
 10
9.70589
 20
0.907715
 30
0.0
 40
0.0104167
 41
0.0104167
  0
VERTEX
  8
0
 10
9.70443
 20
0.907715
 30
0.0
 40
0.0104167
 41
0.0104167
  0
VERTEX
  8
0
 10
9.70014
 20
0.907715
 30
0.0
 40
0.0104167
 41
0.0104167
  0
VERTEX
  8
0
 10
9.69586
 20
0.907715
 30
0.0
 40
0.0104167
 41
0.0104167
  0
VERTEX
  8
0
 10
9.69444
 20
0.907715
 30
0.0
 40
0.0104167
 41
0.0104167
  0
VERTEX
  8
0
 10
9.69444
 20
0.907715
 30
0.0
 40
0.0104167
 41
0.0104167
  0
VERTEX
  8
0
 10
9.6951
 20
0.905382
 30
0.0
 40
0.0104167
 41
0.0104167
  0
VERTEX
  8
0
 10
9.69846
 20
0.8954
 30
0.0
 40
0.0104167
 41
0.0104167
  0
VERTEX
  8
0
 10
9.69965
 20
0.89209
 30
0.0
 40
0.0104167
 41
0.0104167
  0
SEQEND
 8
0
  0
POLYLINE
  8
0
 62
     7
 66
     1
 10
0
 20
0
 30
0.0
 70
     1
 40
0
 41
0
  0
VERTEX
  8
0
 10
8.88769
 20
1.01313
 30
0.0
 40
0
 41
0
  0
VERTEX
  8
0
 10
8.91374
 20
1.01313
 30
0.0
 40
0
 41
0
  0
VERTEX
  8
0
 10
8.91374
 20
0.586317
 30
0.0
 40
0
 41
0
  0
VERTEX
  8
0
 10
8.88769
 20
0.586317
 30
0.0
 40
0
 41
0
  0
VERTEX
  8
0
 10
8.88769
 20
1.01313
 30
0.0
 40
0
 41
0
  0
SEQEND
 8
0
  0
POLYLINE
  8
0
 62
     0
 66
     1
 10
0
 20
0
 30
0.0
 70
     1
 40
0.75
 41
0.75
  0
VERTEX
  8
0
 10
8.88769
 20
1.01313
 30
0.0
 40
0.0104167
 41
0.0104167
  0
VERTEX
  8
0
 10
8.91374
 20
1.01313
 30
0.0
 40
0.0104167
 41
0.0104167
  0
VERTEX
  8
0
 10
8.91374
 20
0.586317
 30
0.0
 40
0.0104167
 41
0.0104167
  0
VERTEX
  8
0
 10
8.88769
 20
0.586317
 30
0.0
 40
0.0104167
 41
0.0104167
  0
VERTEX
  8
0
 10
8.88769
 20
1.01313
 30
0.0
 40
0.0104167
 41
0.0104167
  0
SEQEND
 8
0
  0
POLYLINE
  8
0
 62
     7
 66
     1
 10
0
 20
0
 30
0.0
 70
     1
 40
0
 41
0
  0
VERTEX
  8
0
 10
8.88769
 20
1.01313
 30
0.0
 40
0
 41
0
  0
VERTEX
  8
0
 10
8.91374
 20
1.01313
 30
0.0
 40
0
 41
0
  0
VERTEX
  8
0
 10
8.91374
 20
0.586317
 30
0.0
 40
0
 41
0
  0
VERTEX
  8
0
 10
8.88769
 20
0.586317
 30
0.0
 40
0
 41
0
  0
VERTEX
  8
0
 10
8.88769
 20
1.01313
 30
0.0
 40
0
 41
0
  0
SEQEND
 8
0
  0
POLYLINE
  8
0
 62
     0
 66
     1
 10
0
 20
0
 30
0.0
 70
     1
 40
0.75
 41
0.75
  0
VERTEX
  8
0
 10
8.88769
 20
1.01313
 30
0.0
 40
0.0104167
 41
0.0104167
  0
VERTEX
  8
0
 10
8.91374
 20
1.01313
 30
0.0
 40
0.0104167
 41
0.0104167
  0
VERTEX
  8
0
 10
8.91374
 20
0.586317
 30
0.0
 40
0.0104167
 41
0.0104167
  0
VERTEX
  8
0
 10
8.88769
 20
0.586317
 30
0.0
 40
0.0104167
 41
0.0104167
  0
VERTEX
  8
0
 10
8.88769
 20
1.01313
 30
0.0
 40
0.0104167
 41
0.0104167
  0
SEQEND
 8
0
  0
POLYLINE
  8
0
 62
     7
 66
     1
 10
0
 20
0
 30
0.0
 70
     1
 40
0
 41
0
  0
VERTEX
  8
0
 10
8.91374
 20
1.15088
 30
0.0
 40
0
 41
0
  0
VERTEX
  8
0
 10
8.93978
 20
1.15088
 30
0.0
 40
0
 41
0
  0
VERTEX
  8
0
 10
8.93978
 20
0.724067
 30
0.0
 40
0
 41
0
  0
VERTEX
  8
0
 10
8.91374
 20
0.724067
 30
0.0
 40
0
 41
0
  0
VERTEX
  8
0
 10
8.91374
 20
1.15088
 30
0.0
 40
0
 41
0
  0
SEQEND
 8
0
  0
POLYLINE
  8
0
 62
     0
 66
     1
 10
0
 20
0
 30
0.0
 70
     1
 40
0.75
 41
0.75
  0
VERTEX
  8
0
 10
8.91374
 20
1.15088
 30
0.0
 40
0.0104167
 41
0.0104167
  0
VERTEX
  8
0
 10
8.93978
 20
1.15088
 30
0.0
 40
0.0104167
 41
0.0104167
  0
VERTEX
  8
0
 10
8.93978
 20
0.724067
 30
0.0
 40
0.0104167
 41
0.0104167
  0
VERTEX
  8
0
 10
8.91374
 20
0.724067
 30
0.0
 40
0.0104167
 41
0.0104167
  0
VERTEX
  8
0
 10
8.91374
 20
1.15088
 30
0.0
 40
0.0104167
 41
0.0104167
  0
SEQEND
 8
0
  0
POLYLINE
  8
0
 62
     7
 66
     1
 10
0
 20
0
 30
0.0
 70
     1
 40
0
 41
0
  0
VERTEX
  8
0
 10
8.91374
 20
1.15088
 30
0.0
 40
0
 41
0
  0
VERTEX
  8
0
 10
8.93978
 20
1.15088
 30
0.0
 40
0
 41
0
  0
VERTEX
  8
0
 10
8.93978
 20
0.724067
 30
0.0
 40
0
 41
0
  0
VERTEX
  8
0
 10
8.91374
 20
0.724067
 30
0.0
 40
0
 41
0
  0
VERTEX
  8
0
 10
8.91374
 20
1.15088
 30
0.0
 40
0
 41
0
  0
SEQEND
 8
0
  0
POLYLINE
  8
0
 62
     0
 66
     1
 10
0
 20
0
 30
0.0
 70
     1
 40
0.75
 41
0.75
  0
VERTEX
  8
0
 10
8.91374
 20
1.15088
 30
0.0
 40
0.0104167
 41
0.0104167
  0
VERTEX
  8
0
 10
8.93978
 20
1.15088
 30
0.0
 40
0.0104167
 41
0.0104167
  0
VERTEX
  8
0
 10
8.93978
 20
0.724067
 30
0.0
 40
0.0104167
 41
0.0104167
  0
VERTEX
  8
0
 10
8.91374
 20
0.724067
 30
0.0
 40
0.0104167
 41
0.0104167
  0
VERTEX
  8
0
 10
8.91374
 20
1.15088
 30
0.0
 40
0.0104167
 41
0.0104167
  0
SEQEND
 8
0
  0
POLYLINE
  8
0
 62
     7
 66
     1
 10
0
 20
0
 30
0.0
 70
     1
 40
0
 41
0
  0
VERTEX
  8
0
 10
9.31033
 20
1.43311
 30
0.0
 40
0
 41
0
  0
VERTEX
  8
0
 10
9.73714
 20
1.43311
 30
0.0
 40
0
 41
0
  0
VERTEX
  8
0
 10
9.73714
 20
1.40707
 30
0.0
 40
0
 41
0
  0
VERTEX
  8
0
 10
9.31033
 20
1.40707
 30
0.0
 40
0
 41
0
  0
VERTEX
  8
0
 10
9.31033
 20
1.43311
 30
0.0
 40
0
 41
0
  0
SEQEND
 8
0
  0
POLYLINE
  8
0
 62
     0
 66
     1
 10
0
 20
0
 30
0.0
 70
     1
 40
0.75
 41
0.75
  0
VERTEX
  8
0
 10
9.31033
 20
1.43311
 30
0.0
 40
0.0104167
 41
0.0104167
  0
VERTEX
  8
0
 10
9.31033
 20
1.40707
 30
0.0
 40
0.0104167
 41
0.0104167
  0
VERTEX
  8
0
 10
9.73714
 20
1.40707
 30
0.0
 40
0.0104167
 41
0.0104167
  0
VERTEX
  8
0
 10
9.73714
 20
1.43311
 30
0.0
 40
0.0104167
 41
0.0104167
  0
VERTEX
  8
0
 10
9.31033
 20
1.43311
 30
0.0
 40
0.0104167
 41
0.0104167
  0
SEQEND
 8
0
  0
POLYLINE
  8
0
 62
     7
 66
     1
 10
0
 20
0
 30
0.0
 70
     1
 40
0
 41
0
  0
VERTEX
  8
0
 10
9.31033
 20
1.43311
 30
0.0
 40
0
 41
0
  0
VERTEX
  8
0
 10
9.73714
 20
1.43311
 30
0.0
 40
0
 41
0
  0
VERTEX
  8
0
 10
9.73714
 20
1.40707
 30
0.0
 40
0
 41
0
  0
VERTEX
  8
0
 10
9.31033
 20
1.40707
 30
0.0
 40
0
 41
0
  0
VERTEX
  8
0
 10
9.31033
 20
1.43311
 30
0.0
 40
0
 41
0
  0
SEQEND
 8
0
  0
POLYLINE
  8
0
 62
     0
 66
     1
 10
0
 20
0
 30
0.0
 70
     1
 40
0.75
 41
0.75
  0
VERTEX
  8
0
 10
9.31033
 20
1.43311
 30
0.0
 40
0.0104167
 41
0.0104167
  0
VERTEX
  8
0
 10
9.31033
 20
1.40707
 30
0.0
 40
0.0104167
 41
0.0104167
  0
VERTEX
  8
0
 10
9.73714
 20
1.40707
 30
0.0
 40
0.0104167
 41
0.0104167
  0
VERTEX
  8
0
 10
9.73714
 20
1.43311
 30
0.0
 40
0.0104167
 41
0.0104167
  0
VERTEX
  8
0
 10
9.31033
 20
1.43311
 30
0.0
 40
0.0104167
 41
0.0104167
  0
SEQEND
 8
0
  0
POLYLINE
  8
0
 62
     7
 66
     1
 10
0
 20
0
 30
0.0
 70
     1
 40
0
 41
0
  0
VERTEX
  8
0
 10
9.19319
 20
1.40707
 30
0.0
 40
0
 41
0
  0
VERTEX
  8
0
 10
9.62001
 20
1.40707
 30
0.0
 40
0
 41
0
  0
VERTEX
  8
0
 10
9.62001
 20
1.38102
 30
0.0
 40
0
 41
0
  0
VERTEX
  8
0
 10
9.19319
 20
1.38102
 30
0.0
 40
0
 41
0
  0
VERTEX
  8
0
 10
9.19319
 20
1.40707
 30
0.0
 40
0
 41
0
  0
SEQEND
 8
0
  0
POLYLINE
  8
0
 62
     0
 66
     1
 10
0
 20
0
 30
0.0
 70
     1
 40
0.75
 41
0.75
  0
VERTEX
  8
0
 10
9.19319
 20
1.40707
 30
0.0
 40
0.0104167
 41
0.0104167
  0
VERTEX
  8
0
 10
9.19319
 20
1.38102
 30
0.0
 40
0.0104167
 41
0.0104167
  0
VERTEX
  8
0
 10
9.62001
 20
1.38102
 30
0.0
 40
0.0104167
 41
0.0104167
  0
VERTEX
  8
0
 10
9.62001
 20
1.40707
 30
0.0
 40
0.0104167
 41
0.0104167
  0
VERTEX
  8
0
 10
9.19319
 20
1.40707
 30
0.0
 40
0.0104167
 41
0.0104167
  0
SEQEND
 8
0
  0
POLYLINE
  8
0
 62
     7
 66
     1
 10
0
 20
0
 30
0.0
 70
     1
 40
0
 41
0
  0
VERTEX
  8
0
 10
9.19319
 20
1.40707
 30
0.0
 40
0
 41
0
  0
VERTEX
  8
0
 10
9.62001
 20
1.40707
 30
0.0
 40
0
 41
0
  0
VERTEX
  8
0
 10
9.62001
 20
1.38102
 30
0.0
 40
0
 41
0
  0
VERTEX
  8
0
 10
9.19319
 20
1.38102
 30
0.0
 40
0
 41
0
  0
VERTEX
  8
0
 10
9.19319
 20
1.40707
 30
0.0
 40
0
 41
0
  0
SEQEND
 8
0
  0
POLYLINE
  8
0
 62
     0
 66
     1
 10
0
 20
0
 30
0.0
 70
     1
 40
0.75
 41
0.75
  0
VERTEX
  8
0
 10
9.19319
 20
1.40707
 30
0.0
 40
0.0104167
 41
0.0104167
  0
VERTEX
  8
0
 10
9.19319
 20
1.38102
 30
0.0
 40
0.0104167
 41
0.0104167
  0
VERTEX
  8
0
 10
9.62001
 20
1.38102
 30
0.0
 40
0.0104167
 41
0.0104167
  0
VERTEX
  8
0
 10
9.62001
 20
1.40707
 30
0.0
 40
0.0104167
 41
0.0104167
  0
VERTEX
  8
0
 10
9.19319
 20
1.40707
 30
0.0
 40
0.0104167
 41
0.0104167
  0
SEQEND
 8
0
  0
POLYLINE
  8
0
 62
     7
 66
     1
 10
0
 20
0
 30
0.0
 70
     1
 40
0
 41
0
  0
VERTEX
  8
0
 10
10.4528
 20
5.9235
 30
0.0
 40
0
 41
0
  0
VERTEX
  8
0
 10
11.5094
 20
5.9235
 30
0.0
 40
0
 41
0
  0
VERTEX
  8
0
 10
11.5094
 20
5.2985
 30
0.0
 40
0
 41
0
  0
VERTEX
  8
0
 10
10.4528
 20
5.2985
 30
0.0
 40
0
 41
0
  0
VERTEX
  8
0
 10
10.4528
 20
5.9235
 30
0.0
 40
0
 41
0
  0
SEQEND
 8
0
  0
POLYLINE
  8
0
 62
     0
 66
     1
 10
0
 20
0
 30
0.0
 70
     1
 40
0.75
 41
0.75
  0
VERTEX
  8
0
 10
10.4528
 20
5.9235
 30
0.0
 40
0.0104167
 41
0.0104167
  0
VERTEX
  8
0
 10
11.5094
 20
5.9235
 30
0.0
 40
0.0104167
 41
0.0104167
  0
VERTEX
  8
0
 10
11.5094
 20
5.2985
 30
0.0
 40
0.0104167
 41
0.0104167
  0
VERTEX
  8
0
 10
10.4528
 20
5.2985
 30
0.0
 40
0.0104167
 41
0.0104167
  0
VERTEX
  8
0
 10
10.4528
 20
5.9235
 30
0.0
 40
0.0104167
 41
0.0104167
  0
SEQEND
 8
0
  0
POLYLINE
  8
0
 62
     253
 66
     1
 10
0
 20
0
 30
0.0
 40
0.75
 41
0.75
  0
VERTEX
  8
0
 10
10.4528
 20
5.611
 30
0.0
 40
0.0104167
 41
0.0104167
  0
VERTEX
  8
0
 10
11.5094
 20
5.611
 30
0.0
 40
0.0104167
 41
0.0104167
  0
SEQEND
 8
0
  0
POLYLINE
  8
0
 62
     7
 66
     1
 10
0
 20
0
 30
0.0
 70
     1
 40
0
 41
0
  0
VERTEX
  8
0
 10
9.92671
 20
5.9235
 30
0.0
 40
0
 41
0
  0
VERTEX
  8
0
 10
10.4528
 20
5.9235
 30
0.0
 40
0
 41
0
  0
VERTEX
  8
0
 10
10.4528
 20
5.2985
 30
0.0
 40
0
 41
0
  0
VERTEX
  8
0
 10
9.92671
 20
5.2985
 30
0.0
 40
0
 41
0
  0
VERTEX
  8
0
 10
9.92671
 20
5.9235
 30
0.0
 40
0
 41
0
  0
SEQEND
 8
0
  0
POLYLINE
  8
0
 62
     0
 66
     1
 10
0
 20
0
 30
0.0
 70
     1
 40
0.75
 41
0.75
  0
VERTEX
  8
0
 10
9.92671
 20
5.9235
 30
0.0
 40
0.0104167
 41
0.0104167
  0
VERTEX
  8
0
 10
10.4528
 20
5.9235
 30
0.0
 40
0.0104167
 41
0.0104167
  0
VERTEX
  8
0
 10
10.4528
 20
5.2985
 30
0.0
 40
0.0104167
 41
0.0104167
  0
VERTEX
  8
0
 10
9.92671
 20
5.2985
 30
0.0
 40
0.0104167
 41
0.0104167
  0
VERTEX
  8
0
 10
9.92671
 20
5.9235
 30
0.0
 40
0.0104167
 41
0.0104167
  0
SEQEND
 8
0
  0
POLYLINE
  8
0
 62
     7
 66
     1
 10
0
 20
0
 30
0.0
 70
     1
 40
0
 41
0
  0
VERTEX
  8
0
 10
11.6148
 20
5.9235
 30
0.0
 40
0
 41
0
  0
VERTEX
  8
0
 10
12.2398
 20
5.9235
 30
0.0
 40
0
 41
0
  0
VERTEX
  8
0
 10
12.2398
 20
5.28185
 30
0.0
 40
0
 41
0
  0
VERTEX
  8
0
 10
11.6148
 20
5.28185
 30
0.0
 40
0
 41
0
  0
VERTEX
  8
0
 10
11.6148
 20
5.9235
 30
0.0
 40
0
 41
0
  0
SEQEND
 8
0
  0
POLYLINE
  8
0
 62
     0
 66
     1
 10
0
 20
0
 30
0.0
 70
     1
 40
0.75
 41
0.75
  0
VERTEX
  8
0
 10
11.6148
 20
5.9235
 30
0.0
 40
0.0104167
 41
0.0104167
  0
VERTEX
  8
0
 10
11.6148
 20
5.28185
 30
0.0
 40
0.0104167
 41
0.0104167
  0
VERTEX
  8
0
 10
12.2398
 20
5.28185
 30
0.0
 40
0.0104167
 41
0.0104167
  0
VERTEX
  8
0
 10
12.2398
 20
5.9235
 30
0.0
 40
0.0104167
 41
0.0104167
  0
VERTEX
  8
0
 10
11.6148
 20
5.9235
 30
0.0
 40
0.0104167
 41
0.0104167
  0
SEQEND
 8
0
  0
POLYLINE
  8
0
 62
     7
 66
     1
 10
0
 20
0
 30
0.0
 70
     1
 40
0
 41
0
  0
VERTEX
  8
0
 10
11.6136
 20
3.01742
 30
0.0
 40
0
 41
0
  0
VERTEX
  8
0
 10
12.2386
 20
3.01742
 30
0.0
 40
0
 41
0
  0
VERTEX
  8
0
 10
12.2386
 20
2.17182
 30
0.0
 40
0
 41
0
  0
VERTEX
  8
0
 10
11.6136
 20
2.17182
 30
0.0
 40
0
 41
0
  0
VERTEX
  8
0
 10
11.6136
 20
3.01742
 30
0.0
 40
0
 41
0
  0
SEQEND
 8
0
  0
POLYLINE
  8
0
 62
     0
 66
     1
 10
0
 20
0
 30
0.0
 70
     1
 40
0.75
 41
0.75
  0
VERTEX
  8
0
 10
11.6136
 20
3.01742
 30
0.0
 40
0.0104167
 41
0.0104167
  0
VERTEX
  8
0
 10
11.6136
 20
2.17182
 30
0.0
 40
0.0104167
 41
0.0104167
  0
VERTEX
  8
0
 10
12.2386
 20
2.17182
 30
0.0
 40
0.0104167
 41
0.0104167
  0
VERTEX
  8
0
 10
12.2386
 20
3.01742
 30
0.0
 40
0.0104167
 41
0.0104167
  0
VERTEX
  8
0
 10
11.6136
 20
3.01742
 30
0.0
 40
0.0104167
 41
0.0104167
  0
SEQEND
 8
0
  0
POLYLINE
  8
0
 62
     253
 66
     1
 10
0
 20
0
 30
0.0
 40
0.75
 41
0.75
  0
VERTEX
  8
0
 10
11.9261
 20
2.17182
 30
0.0
 40
0.0104167
 41
0.0104167
  0
VERTEX
  8
0
 10
11.9261
 20
3.01747
 30
0.0
 40
0.0104167
 41
0.0104167
  0
SEQEND
 8
0
  0
POLYLINE
  8
0
 62
     7
 66
     1
 10
0
 20
0
 30
0.0
 70
     1
 40
0
 41
0
  0
VERTEX
  8
0
 10
11.6148
 20
3.53911
 30
0.0
 40
0
 41
0
  0
VERTEX
  8
0
 10
12.2398
 20
3.53911
 30
0.0
 40
0
 41
0
  0
VERTEX
  8
0
 10
12.2398
 20
3.01747
 30
0.0
 40
0
 41
0
  0
VERTEX
  8
0
 10
11.6148
 20
3.01747
 30
0.0
 40
0
 41
0
  0
VERTEX
  8
0
 10
11.6148
 20
3.53911
 30
0.0
 40
0
 41
0
  0
SEQEND
 8
0
  0
POLYLINE
  8
0
 62
     0
 66
     1
 10
0
 20
0
 30
0.0
 70
     1
 40
0.75
 41
0.75
  0
VERTEX
  8
0
 10
11.6148
 20
3.53911
 30
0.0
 40
0.0104167
 41
0.0104167
  0
VERTEX
  8
0
 10
11.6148
 20
3.01747
 30
0.0
 40
0.0104167
 41
0.0104167
  0
VERTEX
  8
0
 10
12.2398
 20
3.01747
 30
0.0
 40
0.0104167
 41
0.0104167
  0
VERTEX
  8
0
 10
12.2398
 20
3.53911
 30
0.0
 40
0.0104167
 41
0.0104167
  0
VERTEX
  8
0
 10
11.6148
 20
3.53911
 30
0.0
 40
0.0104167
 41
0.0104167
  0
SEQEND
 8
0
  0
POLYLINE
  8
0
 62
     7
 66
     1
 10
0
 20
0
 30
0.0
 70
     1
 40
0
 41
0
  0
VERTEX
  8
0
 10
11.6148
 20
4.06076
 30
0.0
 40
0
 41
0
  0
VERTEX
  8
0
 10
12.2398
 20
4.06076
 30
0.0
 40
0
 41
0
  0
VERTEX
  8
0
 10
12.2398
 20
3.53911
 30
0.0
 40
0
 41
0
  0
VERTEX
  8
0
 10
11.6148
 20
3.53911
 30
0.0
 40
0
 41
0
  0
VERTEX
  8
0
 10
11.6148
 20
4.06076
 30
0.0
 40
0
 41
0
  0
SEQEND
 8
0
  0
POLYLINE
  8
0
 62
     0
 66
     1
 10
0
 20
0
 30
0.0
 70
     1
 40
0.75
 41
0.75
  0
VERTEX
  8
0
 10
11.6148
 20
4.06076
 30
0.0
 40
0.0104167
 41
0.0104167
  0
VERTEX
  8
0
 10
11.6148
 20
3.53911
 30
0.0
 40
0.0104167
 41
0.0104167
  0
VERTEX
  8
0
 10
12.2398
 20
3.53911
 30
0.0
 40
0.0104167
 41
0.0104167
  0
VERTEX
  8
0
 10
12.2398
 20
4.06076
 30
0.0
 40
0.0104167
 41
0.0104167
  0
VERTEX
  8
0
 10
11.6148
 20
4.06076
 30
0.0
 40
0.0104167
 41
0.0104167
  0
SEQEND
 8
0
  0
POLYLINE
  8
0
 62
     7
 66
     1
 10
0
 20
0
 30
0.0
 70
     1
 40
0
 41
0
  0
VERTEX
  8
0
 10
9.92469
 20
4.13883
 30
0.0
 40
0
 41
0
  0
VERTEX
  8
0
 10
11.5111
 20
4.13883
 30
0.0
 40
0
 41
0
  0
VERTEX
  8
0
 10
11.5111
 20
3.50043
 30
0.0
 40
0
 41
0
  0
VERTEX
  8
0
 10
9.92469
 20
3.50043
 30
0.0
 40
0
 41
0
  0
VERTEX
  8
0
 10
9.92469
 20
4.13883
 30
0.0
 40
0
 41
0
  0
SEQEND
 8
0
  0
POLYLINE
  8
0
 62
     0
 66
     1
 10
0
 20
0
 30
0.0
 70
     1
 40
0.75
 41
0.75
  0
VERTEX
  8
0
 10
9.92469
 20
4.13883
 30
0.0
 40
0.0104167
 41
0.0104167
  0
VERTEX
  8
0
 10
11.5111
 20
4.13883
 30
0.0
 40
0.0104167
 41
0.0104167
  0
VERTEX
  8
0
 10
11.5111
 20
3.50043
 30
0.0
 40
0.0104167
 41
0.0104167
  0
VERTEX
  8
0
 10
9.92469
 20
3.50043
 30
0.0
 40
0.0104167
 41
0.0104167
  0
VERTEX
  8
0
 10
9.92469
 20
4.13883
 30
0.0
 40
0.0104167
 41
0.0104167
  0
SEQEND
 8
0
  0
POLYLINE
  8
0
 62
     254
 66
     1
 10
0
 20
0
 30
0.0
 40
0.75
 41
0.75
  0
VERTEX
  8
0
 10
10.7179
 20
4.13883
 30
0.0
 40
0.0104167
 41
0.0104167
  0
VERTEX
  8
0
 10
10.7179
 20
3.50043
 30
0.0
 40
0.0104167
 41
0.0104167
  0
SEQEND
 8
0
  0
POLYLINE
  8
0
 62
     254
 66
     1
 10
0
 20
0
 30
0.0
 70
     1
 40
0
 41
0
  0
VERTEX
  8
0
 10
10.7804
 20
3.61501
 30
0.0
 40
0
 41
0
  0
VERTEX
  8
0
 10
10.6554
 20
3.61501
 30
0.0
 40
0
 41
0
  0
VERTEX
  8
0
 10
10.7179
 20
3.51085
 30
0.0
 40
0
 41
0
  0
VERTEX
  8
0
 10
10.7804
 20
3.61501
 30
0.0
 40
0
 41
0
  0
SEQEND
 8
0
  0
POLYLINE
  8
0
 62
     254
 66
     1
 10
0
 20
0
 30
0.0
 70
     1
 40
0.75
 41
0.75
  0
VERTEX
  8
0
 10
10.7804
 20
3.61501
 30
0.0
 40
0.0104167
 41
0.0104167
  0
VERTEX
  8
0
 10
10.6554
 20
3.61501
 30
0.0
 40
0.0104167
 41
0.0104167
  0
VERTEX
  8
0
 10
10.7179
 20
3.51085
 30
0.0
 40
0.0104167
 41
0.0104167
  0
VERTEX
  8
0
 10
10.7804
 20
3.61501
 30
0.0
 40
0.0104167
 41
0.0104167
  0
SEQEND
 8
0
  0
POLYLINE
  8
0
 62
     0
 66
     1
 10
0
 20
0
 30
0.0
 40
0.75
 41
0.75
  0
VERTEX
  8
0
 10
9.92464
 20
4.13889
 30
0.0
 40
0.0104167
 41
0.0104167
  0
VERTEX
  8
0
 10
11.5111
 20
4.13889
 30
0.0
 40
0.0104167
 41
0.0104167
  0
SEQEND
 8
0
  0
POLYLINE
  8
0
 62
     0
 66
     1
 10
0
 20
0
 30
0.0
 40
0.75
 41
0.75
  0
VERTEX
  8
0
 10
9.92464
 20
3.81967
 30
0.0
 40
0.0104167
 41
0.0104167
  0
VERTEX
  8
0
 10
11.5111
 20
3.81967
 30
0.0
 40
0.0104167
 41
0.0104167
  0
SEQEND
 8
0
  0
POLYLINE
  8
0
 62
     0
 66
     1
 10
0
 20
0
 30
0.0
 40
0.75
 41
0.75
  0
VERTEX
  8
0
 10
9.92464
 20
3.50049
 30
0.0
 40
0.0104167
 41
0.0104167
  0
VERTEX
  8
0
 10
11.5111
 20
3.50049
 30
0.0
 40
0.0104167
 41
0.0104167
  0
SEQEND
 8
0
  0
ENDSEC
  0
EOF
