  0
SECTION
  2
HEADER
  9
$ACADVER
  1
AC1009
  9
$FILLMODE
 70
 0
  9
$SPLFRAME
 70
 1
  9
$EXTMIN
 10
0
 20
0
 30
0.0
  9
$EXTMAX
 10
41.6667
 20
41.6667
 30
0.0
  0
ENDSEC
  0
SECTION
  2
TABLES
  0
TABLE
  2
LAYER
 70
1
  0
LAYER
  2
0
 70
     0
 62
     7
  6
CONTINUOUS
  0
ENDTAB
  0
ENDSEC
  0
SECTION
  2
ENTITIES
  0
POLYLINE
  8
0
 62
     7
 66
     1
 10
0
 20
0
 30
0.0
 70
     1
 40
0
 41
0
  0
VERTEX
  8
0
 10
2.69601
 20
2.68956
 30
0.0
 40
0
 41
0
  0
VERTEX
  8
0
 10
5.01064
 20
2.68956
 30
0.0
 40
0
 41
0
  0
VERTEX
  8
0
 10
5.01064
 20
1.13021
 30
0.0
 40
0
 41
0
  0
VERTEX
  8
0
 10
2.69601
 20
1.13021
 30
0.0
 40
0
 41
0
  0
VERTEX
  8
0
 10
2.69601
 20
2.68956
 30
0.0
 40
0
 41
0
  0
SEQEND
 8
0
  0
POLYLINE
  8
0
 62
     7
 66
     1
 10
0
 20
0
 30
0.0
 70
     1
 40
0.15
 41
0.15
  0
VERTEX
  8
0
 10
2.69601
 20
2.68956
 30
0.0
 40
0.00208333
 41
0.00208333
  0
VERTEX
  8
0
 10
5.01064
 20
2.68956
 30
0.0
 40
0.00208333
 41
0.00208333
  0
VERTEX
  8
0
 10
5.01064
 20
1.13021
 30
0.0
 40
0.00208333
 41
0.00208333
  0
VERTEX
  8
0
 10
2.69601
 20
1.13021
 30
0.0
 40
0.00208333
 41
0.00208333
  0
VERTEX
  8
0
 10
2.69601
 20
2.68956
 30
0.0
 40
0.00208333
 41
0.00208333
  0
SEQEND
 8
0
  0
TEXT
  8
0
 62
     0
 10
3.56275
 20
1.47175
 30
0.0
 40
0.34375
  1
SH
 50
0
  0
POLYLINE
  8
0
 62
     7
 66
     1
 10
0
 20
0
 30
0.0
 70
     1
 40
0
 41
0
  0
VERTEX
  8
0
 10
0.725206
 20
11.1386
 30
0.0
 40
0
 41
0
  0
VERTEX
  8
0
 10
5.01064
 20
11.1386
 30
0.0
 40
0
 41
0
  0
VERTEX
  8
0
 10
5.01064
 20
9.28917
 30
0.0
 40
0
 41
0
  0
VERTEX
  8
0
 10
0.725206
 20
9.28917
 30
0.0
 40
0
 41
0
  0
VERTEX
  8
0
 10
0.725206
 20
11.1386
 30
0.0
 40
0
 41
0
  0
SEQEND
 8
0
  0
POLYLINE
  8
0
 62
     0
 66
     1
 10
0
 20
0
 30
0.0
 70
     1
 40
0.15
 41
0.15
  0
VERTEX
  8
0
 10
0.725206
 20
11.1386
 30
0.0
 40
0.00208333
 41
0.00208333
  0
VERTEX
  8
0
 10
5.01064
 20
11.1386
 30
0.0
 40
0.00208333
 41
0.00208333
  0
VERTEX
  8
0
 10
5.01064
 20
9.28917
 30
0.0
 40
0.00208333
 41
0.00208333
  0
VERTEX
  8
0
 10
0.725206
 20
9.28917
 30
0.0
 40
0.00208333
 41
0.00208333
  0
VERTEX
  8
0
 10
0.725206
 20
11.1386
 30
0.0
 40
0.00208333
 41
0.00208333
  0
SEQEND
 8
0
  0
TEXT
  8
0
 62
     0
 10
1.05649
 20
10.4174
 30
0.0
 40
0.34375
  1
LA
 50
0
  0
TEXT
  8
0
 62
     0
 10
1.48104
 20
10.4174
 30
0.0
 40
0.34375
  1
SITET
 50
0
  0
TEXT
  8
0
 62
     0
 10
2.48992
 20
10.4174
 30
0.0
 40
0.34375
  1
TU P
 50
0
  0
TEXT
  8
0
 62
     0
 10
3.27311
 20
10.4174
 30
0.0
 40
0.34375
  1
ARVEKE
 50
0
  0
POLYLINE
  8
0
 62
     7
 66
     1
 10
0
 20
0
 30
0.0
 70
     1
 40
0
 41
0
  0
VERTEX
  8
0
 10
0.725206
 20
4.80647
 30
0.0
 40
0
 41
0
  0
VERTEX
  8
0
 10
2.57101
 20
4.80647
 30
0.0
 40
0
 41
0
  0
VERTEX
  8
0
 10
2.57101
 20
1.13021
 30
0.0
 40
0
 41
0
  0
VERTEX
  8
0
 10
0.725206
 20
1.13021
 30
0.0
 40
0
 41
0
  0
VERTEX
  8
0
 10
0.725206
 20
4.80647
 30
0.0
 40
0
 41
0
  0
SEQEND
 8
0
  0
POLYLINE
  8
0
 62
     7
 66
     1
 10
0
 20
0
 30
0.0
 70
     1
 40
0.15
 41
0.15
  0
VERTEX
  8
0
 10
0.725206
 20
4.80647
 30
0.0
 40
0.00208333
 41
0.00208333
  0
VERTEX
  8
0
 10
2.57101
 20
4.80647
 30
0.0
 40
0.00208333
 41
0.00208333
  0
VERTEX
  8
0
 10
2.57101
 20
1.13021
 30
0.0
 40
0.00208333
 41
0.00208333
  0
VERTEX
  8
0
 10
0.725206
 20
1.13021
 30
0.0
 40
0.00208333
 41
0.00208333
  0
VERTEX
  8
0
 10
0.725206
 20
4.80647
 30
0.0
 40
0.00208333
 41
0.00208333
  0
SEQEND
 8
0
  0
TEXT
  8
0
 62
     0
 10
1.73111
 20
3.16743
 30
0.0
 40
0.34375
  1
ET
 50
0
  0
POLYLINE
  8
0
 62
     7
 66
     1
 10
0
 20
0
 30
0.0
 70
     1
 40
0
 41
0
  0
VERTEX
  8
0
 10
2.57156
 20
4.48915
 30
0.0
 40
0
 41
0
  0
VERTEX
  8
0
 10
5.01064
 20
4.48915
 30
0.0
 40
0
 41
0
  0
VERTEX
  8
0
 10
5.01064
 20
2.80414
 30
0.0
 40
0
 41
0
  0
VERTEX
  8
0
 10
2.69601
 20
2.80414
 30
0.0
 40
0
 41
0
  0
VERTEX
  8
0
 10
2.69601
 20
3.43419
 30
0.0
 40
0
 41
0
  0
VERTEX
  8
0
 10
2.57101
 20
3.43419
 30
0.0
 40
0
 41
0
  0
VERTEX
  8
0
 10
2.57101
 20
4.80647
 30
0.0
 40
0
 41
0
  0
VERTEX
  8
0
 10
2.57156
 20
4.80647
 30
0.0
 40
0
 41
0
  0
VERTEX
  8
0
 10
2.57156
 20
4.48915
 30
0.0
 40
0
 41
0
  0
SEQEND
 8
0
  0
POLYLINE
  8
0
 62
     7
 66
     1
 10
0
 20
0
 30
0.0
 70
     1
 40
0.15
 41
0.15
  0
VERTEX
  8
0
 10
2.57156
 20
4.48915
 30
0.0
 40
0.00208333
 41
0.00208333
  0
VERTEX
  8
0
 10
5.01064
 20
4.48915
 30
0.0
 40
0.00208333
 41
0.00208333
  0
VERTEX
  8
0
 10
5.01064
 20
2.80414
 30
0.0
 40
0.00208333
 41
0.00208333
  0
VERTEX
  8
0
 10
2.69601
 20
2.80414
 30
0.0
 40
0.00208333
 41
0.00208333
  0
VERTEX
  8
0
 10
2.69601
 20
3.43419
 30
0.0
 40
0.00208333
 41
0.00208333
  0
VERTEX
  8
0
 10
2.57101
 20
3.43419
 30
0.0
 40
0.00208333
 41
0.00208333
  0
VERTEX
  8
0
 10
2.57101
 20
4.80647
 30
0.0
 40
0.00208333
 41
0.00208333
  0
VERTEX
  8
0
 10
2.57156
 20
4.80647
 30
0.0
 40
0.00208333
 41
0.00208333
  0
VERTEX
  8
0
 10
2.57156
 20
4.48915
 30
0.0
 40
0.00208333
 41
0.00208333
  0
SEQEND
 8
0
  0
TEXT
  8
0
 62
     0
 10
3.58169
 20
3.83396
 30
0.0
 40
0.34375
  1
KK
 50
0
  0
POLYLINE
  8
0
 62
     7
 66
     1
 10
0
 20
0
 30
0.0
 70
     1
 40
0
 41
0
  0
VERTEX
  8
0
 10
5.01064
 20
4.48915
 30
0.0
 40
0
 41
0
  0
VERTEX
  8
0
 10
2.57156
 20
4.48915
 30
0.0
 40
0
 41
0
  0
VERTEX
  8
0
 10
2.57156
 20
4.80647
 30
0.0
 40
0
 41
0
  0
VERTEX
  8
0
 10
0.725206
 20
4.80647
 30
0.0
 40
0
 41
0
  0
VERTEX
  8
0
 10
0.725206
 20
9.11208
 30
0.0
 40
0
 41
0
  0
VERTEX
  8
0
 10
5.01064
 20
9.11208
 30
0.0
 40
0
 41
0
  0
VERTEX
  8
0
 10
5.01064
 20
4.48915
 30
0.0
 40
0
 41
0
  0
SEQEND
 8
0
  0
POLYLINE
  8
0
 62
     7
 66
     1
 10
0
 20
0
 30
0.0
 70
     1
 40
0.15
 41
0.15
  0
VERTEX
  8
0
 10
5.01064
 20
4.48915
 30
0.0
 40
0.00208333
 41
0.00208333
  0
VERTEX
  8
0
 10
2.57156
 20
4.48915
 30
0.0
 40
0.00208333
 41
0.00208333
  0
VERTEX
  8
0
 10
2.57156
 20
4.80647
 30
0.0
 40
0.00208333
 41
0.00208333
  0
VERTEX
  8
0
 10
0.725206
 20
4.80647
 30
0.0
 40
0.00208333
 41
0.00208333
  0
VERTEX
  8
0
 10
0.725206
 20
9.11208
 30
0.0
 40
0.00208333
 41
0.00208333
  0
VERTEX
  8
0
 10
5.01064
 20
9.11208
 30
0.0
 40
0.00208333
 41
0.00208333
  0
VERTEX
  8
0
 10
5.01064
 20
4.48915
 30
0.0
 40
0.00208333
 41
0.00208333
  0
SEQEND
 8
0
  0
TEXT
  8
0
 62
     0
 10
2.77836
 20
6.83494
 30
0.0
 40
0.34375
  1
H
 50
0
  0
POLYLINE
  8
0
 62
     0
 66
     1
 10
0
 20
0
 30
0.0
 70
     1
 40
0
 41
0
  0
VERTEX
  8
0
 10
5.18772
 20
9.28917
 30
0.0
 40
0
 41
0
  0
VERTEX
  8
0
 10
5.18772
 20
0.953125
 30
0.0
 40
0
 41
0
  0
VERTEX
  8
0
 10
5.01064
 20
1.13021
 30
0.0
 40
0
 41
0
  0
VERTEX
  8
0
 10
5.01064
 20
9.11208
 30
0.0
 40
0
 41
0
  0
VERTEX
  8
0
 10
5.18772
 20
9.28917
 30
0.0
 40
0
 41
0
  0
SEQEND
 8
0
  0
POLYLINE
  8
0
 62
     0
 66
     1
 10
0
 20
0
 30
0.0
 70
     1
 40
0.15
 41
0.15
  0
VERTEX
  8
0
 10
5.18772
 20
9.28917
 30
0.0
 40
0.00208333
 41
0.00208333
  0
VERTEX
  8
0
 10
5.18772
 20
0.953125
 30
0.0
 40
0.00208333
 41
0.00208333
  0
VERTEX
  8
0
 10
5.01064
 20
1.13021
 30
0.0
 40
0.00208333
 41
0.00208333
  0
VERTEX
  8
0
 10
5.01064
 20
9.11208
 30
0.0
 40
0.00208333
 41
0.00208333
  0
VERTEX
  8
0
 10
5.18772
 20
9.28917
 30
0.0
 40
0.00208333
 41
0.00208333
  0
SEQEND
 8
0
  0
POLYLINE
  8
0
 62
     0
 66
     1
 10
0
 20
0
 30
0.0
 70
     1
 40
0
 41
0
  0
VERTEX
  8
0
 10
5.18772
 20
0.953125
 30
0.0
 40
0
 41
0
  0
VERTEX
  8
0
 10
0.558539
 20
0.953125
 30
0.0
 40
0
 41
0
  0
VERTEX
  8
0
 10
0.725206
 20
1.13021
 30
0.0
 40
0
 41
0
  0
VERTEX
  8
0
 10
5.01064
 20
1.13021
 30
0.0
 40
0
 41
0
  0
VERTEX
  8
0
 10
5.18772
 20
0.953125
 30
0.0
 40
0
 41
0
  0
SEQEND
 8
0
  0
POLYLINE
  8
0
 62
     0
 66
     1
 10
0
 20
0
 30
0.0
 70
     1
 40
0.15
 41
0.15
  0
VERTEX
  8
0
 10
5.18772
 20
0.953125
 30
0.0
 40
0.00208333
 41
0.00208333
  0
VERTEX
  8
0
 10
0.558539
 20
0.953125
 30
0.0
 40
0.00208333
 41
0.00208333
  0
VERTEX
  8
0
 10
0.725206
 20
1.13021
 30
0.0
 40
0.00208333
 41
0.00208333
  0
VERTEX
  8
0
 10
5.01064
 20
1.13021
 30
0.0
 40
0.00208333
 41
0.00208333
  0
VERTEX
  8
0
 10
5.18772
 20
0.953125
 30
0.0
 40
0.00208333
 41
0.00208333
  0
SEQEND
 8
0
  0
POLYLINE
  8
0
 62
     7
 66
     1
 10
0
 20
0
 30
0.0
 70
     1
 40
0
 41
0
  0
VERTEX
  8
0
 10
1.47478
 20
1.13021
 30
0.0
 40
0
 41
0
  0
VERTEX
  8
0
 10
2.42383
 20
1.13021
 30
0.0
 40
0
 41
0
  0
VERTEX
  8
0
 10
2.42383
 20
0.953125
 30
0.0
 40
0
 41
0
  0
VERTEX
  8
0
 10
1.47478
 20
0.953125
 30
0.0
 40
0
 41
0
  0
VERTEX
  8
0
 10
1.47478
 20
1.13021
 30
0.0
 40
0
 41
0
  0
SEQEND
 8
0
  0
POLYLINE
  8
0
 62
     0
 66
     1
 10
0
 20
0
 30
0.0
 70
     1
 40
0.75
 41
0.75
  0
VERTEX
  8
0
 10
1.47478
 20
1.13021
 30
0.0
 40
0.0104167
 41
0.0104167
  0
VERTEX
  8
0
 10
2.42383
 20
1.13021
 30
0.0
 40
0.0104167
 41
0.0104167
  0
VERTEX
  8
0
 10
2.42383
 20
0.953125
 30
0.0
 40
0.0104167
 41
0.0104167
  0
VERTEX
  8
0
 10
1.47478
 20
0.953125
 30
0.0
 40
0.0104167
 41
0.0104167
  0
VERTEX
  8
0
 10
1.47478
 20
1.13021
 30
0.0
 40
0.0104167
 41
0.0104167
  0
SEQEND
 8
0
  0
POLYLINE
  8
0
 62
     7
 66
     1
 10
0
 20
0
 30
0.0
 70
     1
 40
0
 41
0
  0
VERTEX
  8
0
 10
1.47478
 20
1.13021
 30
0.0
 40
0
 41
0
  0
VERTEX
  8
0
 10
2.42383
 20
1.13021
 30
0.0
 40
0
 41
0
  0
VERTEX
  8
0
 10
2.42383
 20
0.953125
 30
0.0
 40
0
 41
0
  0
VERTEX
  8
0
 10
1.47478
 20
0.953125
 30
0.0
 40
0
 41
0
  0
VERTEX
  8
0
 10
1.47478
 20
1.13021
 30
0.0
 40
0
 41
0
  0
SEQEND
 8
0
  0
POLYLINE
  8
0
 62
     0
 66
     1
 10
0
 20
0
 30
0.0
 70
     1
 40
0.75
 41
0.75
  0
VERTEX
  8
0
 10
1.47478
 20
1.13021
 30
0.0
 40
0.0104167
 41
0.0104167
  0
VERTEX
  8
0
 10
2.42383
 20
1.13021
 30
0.0
 40
0.0104167
 41
0.0104167
  0
VERTEX
  8
0
 10
2.42383
 20
0.953125
 30
0.0
 40
0.0104167
 41
0.0104167
  0
VERTEX
  8
0
 10
1.47478
 20
0.953125
 30
0.0
 40
0.0104167
 41
0.0104167
  0
VERTEX
  8
0
 10
1.47478
 20
1.13021
 30
0.0
 40
0.0104167
 41
0.0104167
  0
SEQEND
 8
0
  0
POLYLINE
  8
0
 62
     0
 66
     1
 10
0
 20
0
 30
0.0
 70
     1
 40
0.75
 41
0.75
  0
VERTEX
  8
0
 10
1.47478
 20
0.953125
 30
0.0
 40
0.0104167
 41
0.0104167
  0
VERTEX
  8
0
 10
1.47478
 20
0.897569
 30
0.0
 40
0.0104167
 41
0.0104167
  0
VERTEX
  8
0
 10
1.48958
 20
0.73074
 30
0.0
 40
0.0104167
 41
0.0104167
  0
VERTEX
  8
0
 10
1.53407
 20
0.537924
 30
0.0
 40
0.0104167
 41
0.0104167
  0
VERTEX
  8
0
 10
1.60818
 20
0.374838
 30
0.0
 40
0.0104167
 41
0.0104167
  0
VERTEX
  8
0
 10
1.71203
 20
0.241374
 30
0.0
 40
0.0104167
 41
0.0104167
  0
VERTEX
  8
0
 10
1.84549
 20
0.137533
 30
0.0
 40
0.0104167
 41
0.0104167
  0
VERTEX
  8
0
 10
2.00857
 20
0.0634224
 30
0.0
 40
0.0104167
 41
0.0104167
  0
VERTEX
  8
0
 10
2.20139
 20
0.0189344
 30
0.0
 40
0.0104167
 41
0.0104167
  0
VERTEX
  8
0
 10
2.36822
 20
0.00406901
 30
0.0
 40
0.0104167
 41
0.0104167
  0
VERTEX
  8
0
 10
2.42383
 20
0.00406901
 30
0.0
 40
0.0104167
 41
0.0104167
  0
VERTEX
  8
0
 10
2.42383
 20
0.953125
 30
0.0
 40
0.0104167
 41
0.0104167
  0
VERTEX
  8
0
 10
1.47478
 20
0.953125
 30
0.0
 40
0.0104167
 41
0.0104167
  0
SEQEND
 8
0
  0
POLYLINE
  8
0
 62
     0
 66
     1
 10
0
 20
0
 30
0.0
 70
     1
 40
0.75
 41
0.75
  0
VERTEX
  8
0
 10
2.42383
 20
1.13021
 30
0.0
 40
0.0104167
 41
0.0104167
  0
VERTEX
  8
0
 10
2.42383
 20
1.18582
 30
0.0
 40
0.0104167
 41
0.0104167
  0
VERTEX
  8
0
 10
2.40896
 20
1.35265
 30
0.0
 40
0.0104167
 41
0.0104167
  0
VERTEX
  8
0
 10
2.36447
 20
1.54546
 30
0.0
 40
0.0104167
 41
0.0104167
  0
VERTEX
  8
0
 10
2.29036
 20
1.70856
 30
0.0
 40
0.0104167
 41
0.0104167
  0
VERTEX
  8
0
 10
2.18653
 20
1.84201
 30
0.0
 40
0.0104167
 41
0.0104167
  0
VERTEX
  8
0
 10
2.05306
 20
1.94586
 30
0.0
 40
0.0104167
 41
0.0104167
  0
VERTEX
  8
0
 10
1.88997
 20
2.01997
 30
0.0
 40
0.0104167
 41
0.0104167
  0
VERTEX
  8
0
 10
1.69715
 20
2.06446
 30
0.0
 40
0.0104167
 41
0.0104167
  0
VERTEX
  8
0
 10
1.53033
 20
2.07926
 30
0.0
 40
0.0104167
 41
0.0104167
  0
VERTEX
  8
0
 10
1.47478
 20
2.07926
 30
0.0
 40
0.0104167
 41
0.0104167
  0
VERTEX
  8
0
 10
1.47478
 20
1.13021
 30
0.0
 40
0.0104167
 41
0.0104167
  0
VERTEX
  8
0
 10
2.42383
 20
1.13021
 30
0.0
 40
0.0104167
 41
0.0104167
  0
SEQEND
 8
0
  0
POLYLINE
  8
0
 62
     0
 66
     1
 10
0
 20
0
 30
0.0
 70
     1
 40
0
 41
0
  0
VERTEX
  8
0
 10
0.725206
 20
1.13021
 30
0.0
 40
0
 41
0
  0
VERTEX
  8
0
 10
0.725206
 20
9.11208
 30
0.0
 40
0
 41
0
  0
VERTEX
  8
0
 10
0.558539
 20
9.28917
 30
0.0
 40
0
 41
0
  0
VERTEX
  8
0
 10
0.558539
 20
0.953125
 30
0.0
 40
0
 41
0
  0
VERTEX
  8
0
 10
0.725206
 20
1.13021
 30
0.0
 40
0
 41
0
  0
SEQEND
 8
0
  0
POLYLINE
  8
0
 62
     0
 66
     1
 10
0
 20
0
 30
0.0
 70
     1
 40
0.15
 41
0.15
  0
VERTEX
  8
0
 10
0.725206
 20
1.13021
 30
0.0
 40
0.00208333
 41
0.00208333
  0
VERTEX
  8
0
 10
0.725206
 20
9.11208
 30
0.0
 40
0.00208333
 41
0.00208333
  0
VERTEX
  8
0
 10
0.558539
 20
9.28917
 30
0.0
 40
0.00208333
 41
0.00208333
  0
VERTEX
  8
0
 10
0.558539
 20
0.953125
 30
0.0
 40
0.00208333
 41
0.00208333
  0
VERTEX
  8
0
 10
0.725206
 20
1.13021
 30
0.0
 40
0.00208333
 41
0.00208333
  0
SEQEND
 8
0
  0
POLYLINE
  8
0
 62
     0
 66
     1
 10
0
 20
0
 30
0.0
 70
     1
 40
0
 41
0
  0
VERTEX
  8
0
 10
0.558539
 20
9.11208
 30
0.0
 40
0
 41
0
  0
VERTEX
  8
0
 10
0.558539
 20
11.2636
 30
0.0
 40
0
 41
0
  0
VERTEX
  8
0
 10
0.725206
 20
11.1386
 30
0.0
 40
0
 41
0
  0
VERTEX
  8
0
 10
0.725206
 20
9.11208
 30
0.0
 40
0
 41
0
  0
VERTEX
  8
0
 10
0.558539
 20
9.11208
 30
0.0
 40
0
 41
0
  0
SEQEND
 8
0
  0
POLYLINE
  8
0
 62
     0
 66
     1
 10
0
 20
0
 30
0.0
 70
     1
 40
0.15
 41
0.15
  0
VERTEX
  8
0
 10
0.558539
 20
9.11208
 30
0.0
 40
0.00208333
 41
0.00208333
  0
VERTEX
  8
0
 10
0.558539
 20
11.2636
 30
0.0
 40
0.00208333
 41
0.00208333
  0
VERTEX
  8
0
 10
0.725206
 20
11.1386
 30
0.0
 40
0.00208333
 41
0.00208333
  0
VERTEX
  8
0
 10
0.725206
 20
9.11208
 30
0.0
 40
0.00208333
 41
0.00208333
  0
VERTEX
  8
0
 10
0.558539
 20
9.11208
 30
0.0
 40
0.00208333
 41
0.00208333
  0
SEQEND
 8
0
  0
POLYLINE
  8
0
 62
     0
 66
     1
 10
0
 20
0
 30
0.0
 70
     1
 40
0
 41
0
  0
VERTEX
  8
0
 10
2.57101
 20
3.43419
 30
0.0
 40
0
 41
0
  0
VERTEX
  8
0
 10
2.69601
 20
3.43419
 30
0.0
 40
0
 41
0
  0
VERTEX
  8
0
 10
2.69601
 20
0.953125
 30
0.0
 40
0
 41
0
  0
VERTEX
  8
0
 10
2.57101
 20
0.953125
 30
0.0
 40
0
 41
0
  0
VERTEX
  8
0
 10
2.57101
 20
3.43419
 30
0.0
 40
0
 41
0
  0
SEQEND
 8
0
  0
POLYLINE
  8
0
 62
     0
 66
     1
 10
0
 20
0
 30
0.0
 70
     1
 40
0.15
 41
0.15
  0
VERTEX
  8
0
 10
2.57101
 20
3.43419
 30
0.0
 40
0.00208333
 41
0.00208333
  0
VERTEX
  8
0
 10
2.69601
 20
3.43419
 30
0.0
 40
0.00208333
 41
0.00208333
  0
VERTEX
  8
0
 10
2.69601
 20
0.953125
 30
0.0
 40
0.00208333
 41
0.00208333
  0
VERTEX
  8
0
 10
2.57101
 20
0.953125
 30
0.0
 40
0.00208333
 41
0.00208333
  0
VERTEX
  8
0
 10
2.57101
 20
3.43419
 30
0.0
 40
0.00208333
 41
0.00208333
  0
SEQEND
 8
0
  0
POLYLINE
  8
0
 62
     7
 66
     1
 10
0
 20
0
 30
0.0
 70
     1
 40
0
 41
0
  0
VERTEX
  8
0
 10
2.57101
 20
1.99333
 30
0.0
 40
0
 41
0
  0
VERTEX
  8
0
 10
2.69601
 20
1.99333
 30
0.0
 40
0
 41
0
  0
VERTEX
  8
0
 10
2.69601
 20
1.39393
 30
0.0
 40
0
 41
0
  0
VERTEX
  8
0
 10
2.57101
 20
1.39393
 30
0.0
 40
0
 41
0
  0
VERTEX
  8
0
 10
2.57101
 20
1.99333
 30
0.0
 40
0
 41
0
  0
SEQEND
 8
0
  0
POLYLINE
  8
0
 62
     0
 66
     1
 10
0
 20
0
 30
0.0
 70
     1
 40
0.75
 41
0.75
  0
VERTEX
  8
0
 10
2.57101
 20
1.99333
 30
0.0
 40
0.0104167
 41
0.0104167
  0
VERTEX
  8
0
 10
2.69601
 20
1.99333
 30
0.0
 40
0.0104167
 41
0.0104167
  0
VERTEX
  8
0
 10
2.69601
 20
1.39393
 30
0.0
 40
0.0104167
 41
0.0104167
  0
VERTEX
  8
0
 10
2.57101
 20
1.39393
 30
0.0
 40
0.0104167
 41
0.0104167
  0
VERTEX
  8
0
 10
2.57101
 20
1.99333
 30
0.0
 40
0.0104167
 41
0.0104167
  0
SEQEND
 8
0
  0
POLYLINE
  8
0
 62
     7
 66
     1
 10
0
 20
0
 30
0.0
 70
     1
 40
0
 41
0
  0
VERTEX
  8
0
 10
2.57101
 20
1.99333
 30
0.0
 40
0
 41
0
  0
VERTEX
  8
0
 10
2.69601
 20
1.99333
 30
0.0
 40
0
 41
0
  0
VERTEX
  8
0
 10
2.69601
 20
1.39393
 30
0.0
 40
0
 41
0
  0
VERTEX
  8
0
 10
2.57101
 20
1.39393
 30
0.0
 40
0
 41
0
  0
VERTEX
  8
0
 10
2.57101
 20
1.99333
 30
0.0
 40
0
 41
0
  0
SEQEND
 8
0
  0
POLYLINE
  8
0
 62
     0
 66
     1
 10
0
 20
0
 30
0.0
 70
     1
 40
0.75
 41
0.75
  0
VERTEX
  8
0
 10
2.57101
 20
1.99333
 30
0.0
 40
0.0104167
 41
0.0104167
  0
VERTEX
  8
0
 10
2.69601
 20
1.99333
 30
0.0
 40
0.0104167
 41
0.0104167
  0
VERTEX
  8
0
 10
2.69601
 20
1.39393
 30
0.0
 40
0.0104167
 41
0.0104167
  0
VERTEX
  8
0
 10
2.57101
 20
1.39393
 30
0.0
 40
0.0104167
 41
0.0104167
  0
VERTEX
  8
0
 10
2.57101
 20
1.99333
 30
0.0
 40
0.0104167
 41
0.0104167
  0
SEQEND
 8
0
  0
POLYLINE
  8
0
 62
     0
 66
     1
 10
0
 20
0
 30
0.0
 70
     1
 40
0.75
 41
0.75
  0
VERTEX
  8
0
 10
2.57101
 20
1.99333
 30
0.0
 40
0.0104167
 41
0.0104167
  0
VERTEX
  8
0
 10
2.53586
 20
1.99333
 30
0.0
 40
0.0104167
 41
0.0104167
  0
VERTEX
  8
0
 10
2.4305
 20
1.984
 30
0.0
 40
0.0104167
 41
0.0104167
  0
VERTEX
  8
0
 10
2.30875
 20
1.95589
 30
0.0
 40
0.0104167
 41
0.0104167
  0
VERTEX
  8
0
 10
2.20578
 20
1.90907
 30
0.0
 40
0.0104167
 41
0.0104167
  0
VERTEX
  8
0
 10
2.12147
 20
1.84353
 30
0.0
 40
0.0104167
 41
0.0104167
  0
VERTEX
  8
0
 10
2.05593
 20
1.75922
 30
0.0
 40
0.0104167
 41
0.0104167
  0
VERTEX
  8
0
 10
2.00911
 20
1.65619
 30
0.0
 40
0.0104167
 41
0.0104167
  0
VERTEX
  8
0
 10
1.98101
 20
1.53444
 30
0.0
 40
0.0104167
 41
0.0104167
  0
VERTEX
  8
0
 10
1.97168
 20
1.4291
 30
0.0
 40
0.0104167
 41
0.0104167
  0
VERTEX
  8
0
 10
1.97168
 20
1.39393
 30
0.0
 40
0.0104167
 41
0.0104167
  0
VERTEX
  8
0
 10
2.57101
 20
1.39393
 30
0.0
 40
0.0104167
 41
0.0104167
  0
VERTEX
  8
0
 10
2.57101
 20
1.99333
 30
0.0
 40
0.0104167
 41
0.0104167
  0
SEQEND
 8
0
  0
POLYLINE
  8
0
 62
     0
 66
     1
 10
0
 20
0
 30
0.0
 70
     1
 40
0
 41
0
  0
VERTEX
  8
0
 10
0.725206
 20
9.11208
 30
0.0
 40
0
 41
0
  0
VERTEX
  8
0
 10
5.01064
 20
9.11208
 30
0.0
 40
0
 41
0
  0
VERTEX
  8
0
 10
5.18772
 20
9.28917
 30
0.0
 40
0
 41
0
  0
VERTEX
  8
0
 10
0.558539
 20
9.28917
 30
0.0
 40
0
 41
0
  0
VERTEX
  8
0
 10
0.725206
 20
9.11208
 30
0.0
 40
0
 41
0
  0
SEQEND
 8
0
  0
POLYLINE
  8
0
 62
     0
 66
     1
 10
0
 20
0
 30
0.0
 70
     1
 40
0.15
 41
0.15
  0
VERTEX
  8
0
 10
0.725206
 20
9.11208
 30
0.0
 40
0.00208333
 41
0.00208333
  0
VERTEX
  8
0
 10
5.01064
 20
9.11208
 30
0.0
 40
0.00208333
 41
0.00208333
  0
VERTEX
  8
0
 10
5.18772
 20
9.28917
 30
0.0
 40
0.00208333
 41
0.00208333
  0
VERTEX
  8
0
 10
0.558539
 20
9.28917
 30
0.0
 40
0.00208333
 41
0.00208333
  0
VERTEX
  8
0
 10
0.725206
 20
9.11208
 30
0.0
 40
0.00208333
 41
0.00208333
  0
SEQEND
 8
0
  0
POLYLINE
  8
0
 62
     7
 66
     1
 10
0
 20
0
 30
0.0
 70
     1
 40
0
 41
0
  0
VERTEX
  8
0
 10
1.85157
 20
9.28917
 30
0.0
 40
0
 41
0
  0
VERTEX
  8
0
 10
2.6231
 20
9.28917
 30
0.0
 40
0
 41
0
  0
VERTEX
  8
0
 10
2.6231
 20
9.11208
 30
0.0
 40
0
 41
0
  0
VERTEX
  8
0
 10
1.85157
 20
9.11208
 30
0.0
 40
0
 41
0
  0
VERTEX
  8
0
 10
1.85157
 20
9.28917
 30
0.0
 40
0
 41
0
  0
SEQEND
 8
0
  0
POLYLINE
  8
0
 62
     0
 66
     1
 10
0
 20
0
 30
0.0
 70
     1
 40
0.75
 41
0.75
  0
VERTEX
  8
0
 10
1.85157
 20
9.28917
 30
0.0
 40
0.0104167
 41
0.0104167
  0
VERTEX
  8
0
 10
2.6231
 20
9.28917
 30
0.0
 40
0.0104167
 41
0.0104167
  0
VERTEX
  8
0
 10
2.6231
 20
9.11208
 30
0.0
 40
0.0104167
 41
0.0104167
  0
VERTEX
  8
0
 10
1.85157
 20
9.11208
 30
0.0
 40
0.0104167
 41
0.0104167
  0
VERTEX
  8
0
 10
1.85157
 20
9.28917
 30
0.0
 40
0.0104167
 41
0.0104167
  0
SEQEND
 8
0
  0
POLYLINE
  8
0
 62
     7
 66
     1
 10
0
 20
0
 30
0.0
 70
     1
 40
0
 41
0
  0
VERTEX
  8
0
 10
1.85157
 20
9.28917
 30
0.0
 40
0
 41
0
  0
VERTEX
  8
0
 10
2.6231
 20
9.28917
 30
0.0
 40
0
 41
0
  0
VERTEX
  8
0
 10
2.6231
 20
9.11208
 30
0.0
 40
0
 41
0
  0
VERTEX
  8
0
 10
1.85157
 20
9.11208
 30
0.0
 40
0
 41
0
  0
VERTEX
  8
0
 10
1.85157
 20
9.28917
 30
0.0
 40
0
 41
0
  0
SEQEND
 8
0
  0
POLYLINE
  8
0
 62
     0
 66
     1
 10
0
 20
0
 30
0.0
 70
     1
 40
0.75
 41
0.75
  0
VERTEX
  8
0
 10
1.85157
 20
9.28917
 30
0.0
 40
0.0104167
 41
0.0104167
  0
VERTEX
  8
0
 10
2.6231
 20
9.28917
 30
0.0
 40
0.0104167
 41
0.0104167
  0
VERTEX
  8
0
 10
2.6231
 20
9.11208
 30
0.0
 40
0.0104167
 41
0.0104167
  0
VERTEX
  8
0
 10
1.85157
 20
9.11208
 30
0.0
 40
0.0104167
 41
0.0104167
  0
VERTEX
  8
0
 10
1.85157
 20
9.28917
 30
0.0
 40
0.0104167
 41
0.0104167
  0
SEQEND
 8
0
  0
POLYLINE
  8
0
 62
     0
 66
     1
 10
0
 20
0
 30
0.0
 70
     1
 40
0.75
 41
0.75
  0
VERTEX
  8
0
 10
2.6231
 20
9.11208
 30
0.0
 40
0.0104167
 41
0.0104167
  0
VERTEX
  8
0
 10
2.6231
 20
9.06689
 30
0.0
 40
0.0104167
 41
0.0104167
  0
VERTEX
  8
0
 10
2.611
 20
8.93126
 30
0.0
 40
0.0104167
 41
0.0104167
  0
VERTEX
  8
0
 10
2.57488
 20
8.77458
 30
0.0
 40
0.0104167
 41
0.0104167
  0
VERTEX
  8
0
 10
2.5146
 20
8.64193
 30
0.0
 40
0.0104167
 41
0.0104167
  0
VERTEX
  8
0
 10
2.43018
 20
8.53342
 30
0.0
 40
0.0104167
 41
0.0104167
  0
VERTEX
  8
0
 10
2.32172
 20
8.44906
 30
0.0
 40
0.0104167
 41
0.0104167
  0
VERTEX
  8
0
 10
2.18907
 20
8.38872
 30
0.0
 40
0.0104167
 41
0.0104167
  0
VERTEX
  8
0
 10
2.03239
 20
8.3526
 30
0.0
 40
0.0104167
 41
0.0104167
  0
VERTEX
  8
0
 10
1.89675
 20
8.3405
 30
0.0
 40
0.0104167
 41
0.0104167
  0
VERTEX
  8
0
 10
1.85157
 20
8.3405
 30
0.0
 40
0.0104167
 41
0.0104167
  0
VERTEX
  8
0
 10
1.85157
 20
9.11208
 30
0.0
 40
0.0104167
 41
0.0104167
  0
VERTEX
  8
0
 10
2.6231
 20
9.11208
 30
0.0
 40
0.0104167
 41
0.0104167
  0
SEQEND
 8
0
  0
POLYLINE
  8
0
 62
     0
 66
     1
 10
0
 20
0
 30
0.0
 70
     1
 40
0.75
 41
0.75
  0
VERTEX
  8
0
 10
2.6231
 20
9.28917
 30
0.0
 40
0.0104167
 41
0.0104167
  0
VERTEX
  8
0
 10
2.6231
 20
9.33442
 30
0.0
 40
0.0104167
 41
0.0104167
  0
VERTEX
  8
0
 10
2.611
 20
9.47006
 30
0.0
 40
0.0104167
 41
0.0104167
  0
VERTEX
  8
0
 10
2.57488
 20
9.62674
 30
0.0
 40
0.0104167
 41
0.0104167
  0
VERTEX
  8
0
 10
2.5146
 20
9.75939
 30
0.0
 40
0.0104167
 41
0.0104167
  0
VERTEX
  8
0
 10
2.43018
 20
9.86783
 30
0.0
 40
0.0104167
 41
0.0104167
  0
VERTEX
  8
0
 10
2.32172
 20
9.95226
 30
0.0
 40
0.0104167
 41
0.0104167
  0
VERTEX
  8
0
 10
2.18907
 20
10.0125
 30
0.0
 40
0.0104167
 41
0.0104167
  0
VERTEX
  8
0
 10
2.03239
 20
10.0487
 30
0.0
 40
0.0104167
 41
0.0104167
  0
VERTEX
  8
0
 10
1.89675
 20
10.0607
 30
0.0
 40
0.0104167
 41
0.0104167
  0
VERTEX
  8
0
 10
1.85157
 20
10.0607
 30
0.0
 40
0.0104167
 41
0.0104167
  0
VERTEX
  8
0
 10
1.85157
 20
9.28917
 30
0.0
 40
0.0104167
 41
0.0104167
  0
VERTEX
  8
0
 10
2.6231
 20
9.28917
 30
0.0
 40
0.0104167
 41
0.0104167
  0
SEQEND
 8
0
  0
POLYLINE
  8
0
 62
     7
 66
     1
 10
0
 20
0
 30
0.0
 70
     1
 40
0
 41
0
  0
VERTEX
  8
0
 10
1.38949
 20
9.28917
 30
0.0
 40
0
 41
0
  0
VERTEX
  8
0
 10
1.77929
 20
9.28917
 30
0.0
 40
0
 41
0
  0
VERTEX
  8
0
 10
1.77929
 20
9.11208
 30
0.0
 40
0
 41
0
  0
VERTEX
  8
0
 10
1.38949
 20
9.11208
 30
0.0
 40
0
 41
0
  0
VERTEX
  8
0
 10
1.38949
 20
9.28917
 30
0.0
 40
0
 41
0
  0
SEQEND
 8
0
  0
POLYLINE
  8
0
 62
     0
 66
     1
 10
0
 20
0
 30
0.0
 70
     1
 40
0.75
 41
0.75
  0
VERTEX
  8
0
 10
1.38949
 20
9.28917
 30
0.0
 40
0.0104167
 41
0.0104167
  0
VERTEX
  8
0
 10
1.77929
 20
9.28917
 30
0.0
 40
0.0104167
 41
0.0104167
  0
VERTEX
  8
0
 10
1.77929
 20
9.11208
 30
0.0
 40
0.0104167
 41
0.0104167
  0
VERTEX
  8
0
 10
1.38949
 20
9.11208
 30
0.0
 40
0.0104167
 41
0.0104167
  0
VERTEX
  8
0
 10
1.38949
 20
9.28917
 30
0.0
 40
0.0104167
 41
0.0104167
  0
SEQEND
 8
0
  0
POLYLINE
  8
0
 62
     7
 66
     1
 10
0
 20
0
 30
0.0
 70
     1
 40
0
 41
0
  0
VERTEX
  8
0
 10
1.38949
 20
9.28917
 30
0.0
 40
0
 41
0
  0
VERTEX
  8
0
 10
1.77929
 20
9.28917
 30
0.0
 40
0
 41
0
  0
VERTEX
  8
0
 10
1.77929
 20
9.11208
 30
0.0
 40
0
 41
0
  0
VERTEX
  8
0
 10
1.38949
 20
9.11208
 30
0.0
 40
0
 41
0
  0
VERTEX
  8
0
 10
1.38949
 20
9.28917
 30
0.0
 40
0
 41
0
  0
SEQEND
 8
0
  0
POLYLINE
  8
0
 62
     0
 66
     1
 10
0
 20
0
 30
0.0
 70
     1
 40
0.75
 41
0.75
  0
VERTEX
  8
0
 10
1.38949
 20
9.28917
 30
0.0
 40
0.0104167
 41
0.0104167
  0
VERTEX
  8
0
 10
1.77929
 20
9.28917
 30
0.0
 40
0.0104167
 41
0.0104167
  0
VERTEX
  8
0
 10
1.77929
 20
9.11208
 30
0.0
 40
0.0104167
 41
0.0104167
  0
VERTEX
  8
0
 10
1.38949
 20
9.11208
 30
0.0
 40
0.0104167
 41
0.0104167
  0
VERTEX
  8
0
 10
1.38949
 20
9.28917
 30
0.0
 40
0.0104167
 41
0.0104167
  0
SEQEND
 8
0
  0
POLYLINE
  8
0
 62
     0
 66
     1
 10
0
 20
0
 30
0.0
 40
0.75
 41
0.75
  0
VERTEX
  8
0
 10
1.46761
 20
9.20063
 30
0.0
 40
0.0104167
 41
0.0104167
  0
VERTEX
  8
0
 10
1.70117
 20
9.20063
 30
0.0
 40
0.0104167
 41
0.0104167
  0
SEQEND
 8
0
  0
POLYLINE
  8
0
 62
     0
 66
     1
 10
0
 20
0
 30
0.0
 40
0.75
 41
0.75
  0
VERTEX
  8
0
 10
1.46761
 20
9.11208
 30
0.0
 40
0.0104167
 41
0.0104167
  0
VERTEX
  8
0
 10
1.46761
 20
9.28917
 30
0.0
 40
0.0104167
 41
0.0104167
  0
SEQEND
 8
0
  0
POLYLINE
  8
0
 62
     0
 66
     1
 10
0
 20
0
 30
0.0
 40
0.75
 41
0.75
  0
VERTEX
  8
0
 10
1.70117
 20
9.11208
 30
0.0
 40
0.0104167
 41
0.0104167
  0
VERTEX
  8
0
 10
1.70117
 20
9.28917
 30
0.0
 40
0.0104167
 41
0.0104167
  0
SEQEND
 8
0
  0
POLYLINE
  8
0
 62
     7
 66
     1
 10
0
 20
0
 30
0.0
 70
     1
 40
0
 41
0
  0
VERTEX
  8
0
 10
2.69949
 20
9.28917
 30
0.0
 40
0
 41
0
  0
VERTEX
  8
0
 10
4.9095
 20
9.28917
 30
0.0
 40
0
 41
0
  0
VERTEX
  8
0
 10
4.9095
 20
9.11208
 30
0.0
 40
0
 41
0
  0
VERTEX
  8
0
 10
2.69949
 20
9.11208
 30
0.0
 40
0
 41
0
  0
VERTEX
  8
0
 10
2.69949
 20
9.28917
 30
0.0
 40
0
 41
0
  0
SEQEND
 8
0
  0
POLYLINE
  8
0
 62
     0
 66
     1
 10
0
 20
0
 30
0.0
 70
     1
 40
0.75
 41
0.75
  0
VERTEX
  8
0
 10
2.69949
 20
9.28917
 30
0.0
 40
0.0104167
 41
0.0104167
  0
VERTEX
  8
0
 10
4.9095
 20
9.28917
 30
0.0
 40
0.0104167
 41
0.0104167
  0
VERTEX
  8
0
 10
4.9095
 20
9.11208
 30
0.0
 40
0.0104167
 41
0.0104167
  0
VERTEX
  8
0
 10
2.69949
 20
9.11208
 30
0.0
 40
0.0104167
 41
0.0104167
  0
VERTEX
  8
0
 10
2.69949
 20
9.28917
 30
0.0
 40
0.0104167
 41
0.0104167
  0
SEQEND
 8
0
  0
POLYLINE
  8
0
 62
     7
 66
     1
 10
0
 20
0
 30
0.0
 70
     1
 40
0
 41
0
  0
VERTEX
  8
0
 10
2.69949
 20
9.28917
 30
0.0
 40
0
 41
0
  0
VERTEX
  8
0
 10
4.9095
 20
9.28917
 30
0.0
 40
0
 41
0
  0
VERTEX
  8
0
 10
4.9095
 20
9.11208
 30
0.0
 40
0
 41
0
  0
VERTEX
  8
0
 10
2.69949
 20
9.11208
 30
0.0
 40
0
 41
0
  0
VERTEX
  8
0
 10
2.69949
 20
9.28917
 30
0.0
 40
0
 41
0
  0
SEQEND
 8
0
  0
POLYLINE
  8
0
 62
     0
 66
     1
 10
0
 20
0
 30
0.0
 70
     1
 40
0.75
 41
0.75
  0
VERTEX
  8
0
 10
2.69949
 20
9.28917
 30
0.0
 40
0.0104167
 41
0.0104167
  0
VERTEX
  8
0
 10
4.9095
 20
9.28917
 30
0.0
 40
0.0104167
 41
0.0104167
  0
VERTEX
  8
0
 10
4.9095
 20
9.11208
 30
0.0
 40
0.0104167
 41
0.0104167
  0
VERTEX
  8
0
 10
2.69949
 20
9.11208
 30
0.0
 40
0.0104167
 41
0.0104167
  0
VERTEX
  8
0
 10
2.69949
 20
9.28917
 30
0.0
 40
0.0104167
 41
0.0104167
  0
SEQEND
 8
0
  0
POLYLINE
  8
0
 62
     0
 66
     1
 10
0
 20
0
 30
0.0
 40
0.75
 41
0.75
  0
VERTEX
  8
0
 10
2.77761
 20
9.20063
 30
0.0
 40
0.0104167
 41
0.0104167
  0
VERTEX
  8
0
 10
4.83138
 20
9.20063
 30
0.0
 40
0.0104167
 41
0.0104167
  0
SEQEND
 8
0
  0
POLYLINE
  8
0
 62
     0
 66
     1
 10
0
 20
0
 30
0.0
 40
0.75
 41
0.75
  0
VERTEX
  8
0
 10
2.77761
 20
9.11208
 30
0.0
 40
0.0104167
 41
0.0104167
  0
VERTEX
  8
0
 10
2.77761
 20
9.28917
 30
0.0
 40
0.0104167
 41
0.0104167
  0
SEQEND
 8
0
  0
POLYLINE
  8
0
 62
     0
 66
     1
 10
0
 20
0
 30
0.0
 40
0.75
 41
0.75
  0
VERTEX
  8
0
 10
4.83138
 20
9.11208
 30
0.0
 40
0.0104167
 41
0.0104167
  0
VERTEX
  8
0
 10
4.83138
 20
9.28917
 30
0.0
 40
0.0104167
 41
0.0104167
  0
SEQEND
 8
0
  0
POLYLINE
  8
0
 62
     0
 66
     1
 10
0
 20
0
 30
0.0
 70
     1
 40
0
 41
0
  0
VERTEX
  8
0
 10
0.558539
 20
11.2636
 30
0.0
 40
0
 41
0
  0
VERTEX
  8
0
 10
5.18772
 20
11.2636
 30
0.0
 40
0
 41
0
  0
VERTEX
  8
0
 10
5.01064
 20
11.1386
 30
0.0
 40
0
 41
0
  0
VERTEX
  8
0
 10
0.725206
 20
11.1386
 30
0.0
 40
0
 41
0
  0
VERTEX
  8
0
 10
0.558539
 20
11.2636
 30
0.0
 40
0
 41
0
  0
SEQEND
 8
0
  0
POLYLINE
  8
0
 62
     0
 66
     1
 10
0
 20
0
 30
0.0
 70
     1
 40
0.15
 41
0.15
  0
VERTEX
  8
0
 10
0.558539
 20
11.2636
 30
0.0
 40
0.00208333
 41
0.00208333
  0
VERTEX
  8
0
 10
5.18772
 20
11.2636
 30
0.0
 40
0.00208333
 41
0.00208333
  0
VERTEX
  8
0
 10
5.01064
 20
11.1386
 30
0.0
 40
0.00208333
 41
0.00208333
  0
VERTEX
  8
0
 10
0.725206
 20
11.1386
 30
0.0
 40
0.00208333
 41
0.00208333
  0
VERTEX
  8
0
 10
0.558539
 20
11.2636
 30
0.0
 40
0.00208333
 41
0.00208333
  0
SEQEND
 8
0
  0
POLYLINE
  8
0
 62
     7
 66
     1
 10
0
 20
0
 30
0.0
 70
     1
 40
0
 41
0
  0
VERTEX
  8
0
 10
0.750814
 20
11.2636
 30
0.0
 40
0
 41
0
  0
VERTEX
  8
0
 10
4.99197
 20
11.2636
 30
0.0
 40
0
 41
0
  0
VERTEX
  8
0
 10
4.99197
 20
11.1386
 30
0.0
 40
0
 41
0
  0
VERTEX
  8
0
 10
0.750814
 20
11.1386
 30
0.0
 40
0
 41
0
  0
VERTEX
  8
0
 10
0.750814
 20
11.2636
 30
0.0
 40
0
 41
0
  0
SEQEND
 8
0
  0
POLYLINE
  8
0
 62
     0
 66
     1
 10
0
 20
0
 30
0.0
 70
     1
 40
0.75
 41
0.75
  0
VERTEX
  8
0
 10
0.750814
 20
11.2636
 30
0.0
 40
0.0104167
 41
0.0104167
  0
VERTEX
  8
0
 10
4.99197
 20
11.2636
 30
0.0
 40
0.0104167
 41
0.0104167
  0
VERTEX
  8
0
 10
4.99197
 20
11.1386
 30
0.0
 40
0.0104167
 41
0.0104167
  0
VERTEX
  8
0
 10
0.750814
 20
11.1386
 30
0.0
 40
0.0104167
 41
0.0104167
  0
VERTEX
  8
0
 10
0.750814
 20
11.2636
 30
0.0
 40
0.0104167
 41
0.0104167
  0
SEQEND
 8
0
  0
POLYLINE
  8
0
 62
     7
 66
     1
 10
0
 20
0
 30
0.0
 70
     1
 40
0
 41
0
  0
VERTEX
  8
0
 10
0.750814
 20
11.2636
 30
0.0
 40
0
 41
0
  0
VERTEX
  8
0
 10
4.99197
 20
11.2636
 30
0.0
 40
0
 41
0
  0
VERTEX
  8
0
 10
4.99197
 20
11.1386
 30
0.0
 40
0
 41
0
  0
VERTEX
  8
0
 10
0.750814
 20
11.1386
 30
0.0
 40
0
 41
0
  0
VERTEX
  8
0
 10
0.750814
 20
11.2636
 30
0.0
 40
0
 41
0
  0
SEQEND
 8
0
  0
POLYLINE
  8
0
 62
     0
 66
     1
 10
0
 20
0
 30
0.0
 70
     1
 40
0.75
 41
0.75
  0
VERTEX
  8
0
 10
0.750814
 20
11.2636
 30
0.0
 40
0.0104167
 41
0.0104167
  0
VERTEX
  8
0
 10
4.99197
 20
11.2636
 30
0.0
 40
0.0104167
 41
0.0104167
  0
VERTEX
  8
0
 10
4.99197
 20
11.1386
 30
0.0
 40
0.0104167
 41
0.0104167
  0
VERTEX
  8
0
 10
0.750814
 20
11.1386
 30
0.0
 40
0.0104167
 41
0.0104167
  0
VERTEX
  8
0
 10
0.750814
 20
11.2636
 30
0.0
 40
0.0104167
 41
0.0104167
  0
SEQEND
 8
0
  0
POLYLINE
  8
0
 62
     0
 66
     1
 10
0
 20
0
 30
0.0
 40
0.75
 41
0.75
  0
VERTEX
  8
0
 10
0.828939
 20
11.2011
 30
0.0
 40
0.0104167
 41
0.0104167
  0
VERTEX
  8
0
 10
4.91385
 20
11.2011
 30
0.0
 40
0.0104167
 41
0.0104167
  0
SEQEND
 8
0
  0
POLYLINE
  8
0
 62
     0
 66
     1
 10
0
 20
0
 30
0.0
 40
0.75
 41
0.75
  0
VERTEX
  8
0
 10
0.828939
 20
11.2636
 30
0.0
 40
0.0104167
 41
0.0104167
  0
VERTEX
  8
0
 10
0.828939
 20
11.1386
 30
0.0
 40
0.0104167
 41
0.0104167
  0
SEQEND
 8
0
  0
POLYLINE
  8
0
 62
     0
 66
     1
 10
0
 20
0
 30
0.0
 40
0.75
 41
0.75
  0
VERTEX
  8
0
 10
4.91385
 20
11.2636
 30
0.0
 40
0.0104167
 41
0.0104167
  0
VERTEX
  8
0
 10
4.91385
 20
11.1386
 30
0.0
 40
0.0104167
 41
0.0104167
  0
SEQEND
 8
0
  0
POLYLINE
  8
0
 62
     0
 66
     1
 10
0
 20
0
 30
0.0
 70
     1
 40
0
 41
0
  0
VERTEX
  8
0
 10
5.18772
 20
11.2636
 30
0.0
 40
0
 41
0
  0
VERTEX
  8
0
 10
5.18772
 20
9.28917
 30
0.0
 40
0
 41
0
  0
VERTEX
  8
0
 10
5.01064
 20
9.28917
 30
0.0
 40
0
 41
0
  0
VERTEX
  8
0
 10
5.01064
 20
11.1386
 30
0.0
 40
0
 41
0
  0
VERTEX
  8
0
 10
5.18772
 20
11.2636
 30
0.0
 40
0
 41
0
  0
SEQEND
 8
0
  0
POLYLINE
  8
0
 62
     0
 66
     1
 10
0
 20
0
 30
0.0
 70
     1
 40
0.15
 41
0.15
  0
VERTEX
  8
0
 10
5.18772
 20
11.2636
 30
0.0
 40
0.00208333
 41
0.00208333
  0
VERTEX
  8
0
 10
5.18772
 20
9.28917
 30
0.0
 40
0.00208333
 41
0.00208333
  0
VERTEX
  8
0
 10
5.01064
 20
9.28917
 30
0.0
 40
0.00208333
 41
0.00208333
  0
VERTEX
  8
0
 10
5.01064
 20
11.1386
 30
0.0
 40
0.00208333
 41
0.00208333
  0
VERTEX
  8
0
 10
5.18772
 20
11.2636
 30
0.0
 40
0.00208333
 41
0.00208333
  0
SEQEND
 8
0
  0
POLYLINE
  8
0
 62
     0
 66
     1
 10
0
 20
0
 30
0.0
 70
     1
 40
0
 41
0
  0
VERTEX
  8
0
 10
2.57101
 20
2.80414
 30
0.0
 40
0
 41
0
  0
VERTEX
  8
0
 10
5.18772
 20
2.80414
 30
0.0
 40
0
 41
0
  0
VERTEX
  8
0
 10
5.18772
 20
2.68956
 30
0.0
 40
0
 41
0
  0
VERTEX
  8
0
 10
2.57101
 20
2.68956
 30
0.0
 40
0
 41
0
  0
VERTEX
  8
0
 10
2.57101
 20
2.80414
 30
0.0
 40
0
 41
0
  0
SEQEND
 8
0
  0
POLYLINE
  8
0
 62
     0
 66
     1
 10
0
 20
0
 30
0.0
 70
     1
 40
0.15
 41
0.15
  0
VERTEX
  8
0
 10
2.57101
 20
2.80414
 30
0.0
 40
0.00208333
 41
0.00208333
  0
VERTEX
  8
0
 10
5.18772
 20
2.80414
 30
0.0
 40
0.00208333
 41
0.00208333
  0
VERTEX
  8
0
 10
5.18772
 20
2.68956
 30
0.0
 40
0.00208333
 41
0.00208333
  0
VERTEX
  8
0
 10
2.57101
 20
2.68956
 30
0.0
 40
0.00208333
 41
0.00208333
  0
VERTEX
  8
0
 10
2.57101
 20
2.80414
 30
0.0
 40
0.00208333
 41
0.00208333
  0
SEQEND
 8
0
  0
POLYLINE
  8
0
 62
     0
 66
     1
 10
0
 20
0
 30
0.0
 70
     1
 40
0
 41
0
  0
VERTEX
  8
0
 10
0.725424
 20
1.3776
 30
0.0
 40
0
 41
0
  0
VERTEX
  8
0
 10
1.35064
 20
1.3776
 30
0.0
 40
0
 41
0
  0
VERTEX
  8
0
 10
1.35064
 20
1.13021
 30
0.0
 40
0
 41
0
  0
VERTEX
  8
0
 10
0.725424
 20
1.13021
 30
0.0
 40
0
 41
0
  0
VERTEX
  8
0
 10
0.725424
 20
1.3776
 30
0.0
 40
0
 41
0
  0
SEQEND
 8
0
  0
POLYLINE
  8
0
 62
     0
 66
     1
 10
0
 20
0
 30
0.0
 70
     1
 40
0
 41
0
  0
VERTEX
  8
0
 10
4.18207
 20
2.68956
 30
0.0
 40
0
 41
0
  0
VERTEX
  8
0
 10
5.01064
 20
2.68956
 30
0.0
 40
0
 41
0
  0
VERTEX
  8
0
 10
5.01064
 20
2.2819
 30
0.0
 40
0
 41
0
  0
VERTEX
  8
0
 10
4.18207
 20
2.2819
 30
0.0
 40
0
 41
0
  0
VERTEX
  8
0
 10
4.18207
 20
2.68956
 30
0.0
 40
0
 41
0
  0
SEQEND
 8
0
  0
POLYLINE
  8
0
 62
     7
 66
     1
 10
0
 20
0
 30
0.0
 70
     1
 40
0
 41
0
  0
VERTEX
  8
0
 10
2.76867
 20
2.68718
 30
0.0
 40
0
 41
0
  0
VERTEX
  8
0
 10
3.37044
 20
2.68718
 30
0.0
 40
0
 41
0
  0
VERTEX
  8
0
 10
3.37044
 20
2.23926
 30
0.0
 40
0
 41
0
  0
VERTEX
  8
0
 10
2.76867
 20
2.23926
 30
0.0
 40
0
 41
0
  0
VERTEX
  8
0
 10
2.76867
 20
2.68718
 30
0.0
 40
0
 41
0
  0
SEQEND
 8
0
  0
POLYLINE
  8
0
 62
     0
 66
     1
 10
0
 20
0
 30
0.0
 70
     1
 40
0.75
 41
0.75
  0
VERTEX
  8
0
 10
2.76867
 20
2.68718
 30
0.0
 40
0.0104167
 41
0.0104167
  0
VERTEX
  8
0
 10
3.37044
 20
2.68718
 30
0.0
 40
0.0104167
 41
0.0104167
  0
VERTEX
  8
0
 10
3.37044
 20
2.23926
 30
0.0
 40
0.0104167
 41
0.0104167
  0
VERTEX
  8
0
 10
2.76867
 20
2.23926
 30
0.0
 40
0.0104167
 41
0.0104167
  0
VERTEX
  8
0
 10
2.76867
 20
2.68718
 30
0.0
 40
0.0104167
 41
0.0104167
  0
SEQEND
 8
0
  0
POLYLINE
  8
0
 62
     7
 66
     1
 10
0
 20
0
 30
0.0
 70
     1
 40
0
 41
0
  0
VERTEX
  8
0
 10
2.81879
 20
2.5861
 30
0.0
 40
0
 41
0
  0
VERTEX
  8
0
 10
3.32032
 20
2.5861
 30
0.0
 40
0
 41
0
  0
VERTEX
  8
0
 10
3.32032
 20
2.27881
 30
0.0
 40
0
 41
0
  0
VERTEX
  8
0
 10
2.81879
 20
2.27881
 30
0.0
 40
0
 41
0
  0
VERTEX
  8
0
 10
2.81879
 20
2.5861
 30
0.0
 40
0
 41
0
  0
SEQEND
 8
0
  0
POLYLINE
  8
0
 62
     0
 66
     1
 10
0
 20
0
 30
0.0
 70
     1
 40
0.75
 41
0.75
  0
VERTEX
  8
0
 10
2.81879
 20
2.5861
 30
0.0
 40
0.0104167
 41
0.0104167
  0
VERTEX
  8
0
 10
3.32032
 20
2.5861
 30
0.0
 40
0.0104167
 41
0.0104167
  0
VERTEX
  8
0
 10
3.32032
 20
2.27881
 30
0.0
 40
0.0104167
 41
0.0104167
  0
VERTEX
  8
0
 10
2.81879
 20
2.27881
 30
0.0
 40
0.0104167
 41
0.0104167
  0
VERTEX
  8
0
 10
2.81879
 20
2.5861
 30
0.0
 40
0.0104167
 41
0.0104167
  0
SEQEND
 8
0
  0
POLYLINE
  8
0
 62
     7
 66
     1
 10
0
 20
0
 30
0.0
 70
     1
 40
0
 41
0
  0
VERTEX
  8
0
 10
3.10607
 20
2.44672
 30
0.0
 40
0
 41
0
  0
VERTEX
  8
0
 10
3.10607
 20
2.44032
 30
0.0
 40
0
 41
0
  0
VERTEX
  8
0
 10
3.09538
 20
2.42096
 30
0.0
 40
0
 41
0
  0
VERTEX
  8
0
 10
3.07601
 20
2.41026
 30
0.0
 40
0
 41
0
  0
VERTEX
  8
0
 10
3.06961
 20
2.41026
 30
0.0
 40
0
 41
0
  0
VERTEX
  8
0
 10
3.06315
 20
2.41026
 30
0.0
 40
0
 41
0
  0
VERTEX
  8
0
 10
3.04378
 20
2.42096
 30
0.0
 40
0
 41
0
  0
VERTEX
  8
0
 10
3.03315
 20
2.44032
 30
0.0
 40
0
 41
0
  0
VERTEX
  8
0
 10
3.03315
 20
2.44672
 30
0.0
 40
0
 41
0
  0
VERTEX
  8
0
 10
3.03315
 20
2.45318
 30
0.0
 40
0
 41
0
  0
VERTEX
  8
0
 10
3.04378
 20
2.47254
 30
0.0
 40
0
 41
0
  0
VERTEX
  8
0
 10
3.06315
 20
2.48318
 30
0.0
 40
0
 41
0
  0
VERTEX
  8
0
 10
3.06961
 20
2.48318
 30
0.0
 40
0
 41
0
  0
VERTEX
  8
0
 10
3.07601
 20
2.48318
 30
0.0
 40
0
 41
0
  0
VERTEX
  8
0
 10
3.09538
 20
2.47254
 30
0.0
 40
0
 41
0
  0
VERTEX
  8
0
 10
3.10607
 20
2.45318
 30
0.0
 40
0
 41
0
  0
VERTEX
  8
0
 10
3.10607
 20
2.44672
 30
0.0
 40
0
 41
0
  0
SEQEND
 8
0
  0
POLYLINE
  8
0
 62
     0
 66
     1
 10
0
 20
0
 30
0.0
 70
     1
 40
0.6
 41
0.6
  0
VERTEX
  8
0
 10
3.10607
 20
2.44672
 30
0.0
 40
0.00833333
 41
0.00833333
  0
VERTEX
  8
0
 10
3.10607
 20
2.44032
 30
0.0
 40
0.00833333
 41
0.00833333
  0
VERTEX
  8
0
 10
3.09538
 20
2.42096
 30
0.0
 40
0.00833333
 41
0.00833333
  0
VERTEX
  8
0
 10
3.07601
 20
2.41026
 30
0.0
 40
0.00833333
 41
0.00833333
  0
VERTEX
  8
0
 10
3.06961
 20
2.41026
 30
0.0
 40
0.00833333
 41
0.00833333
  0
VERTEX
  8
0
 10
3.06315
 20
2.41026
 30
0.0
 40
0.00833333
 41
0.00833333
  0
VERTEX
  8
0
 10
3.04378
 20
2.42096
 30
0.0
 40
0.00833333
 41
0.00833333
  0
VERTEX
  8
0
 10
3.03315
 20
2.44032
 30
0.0
 40
0.00833333
 41
0.00833333
  0
VERTEX
  8
0
 10
3.03315
 20
2.44672
 30
0.0
 40
0.00833333
 41
0.00833333
  0
VERTEX
  8
0
 10
3.03315
 20
2.45318
 30
0.0
 40
0.00833333
 41
0.00833333
  0
VERTEX
  8
0
 10
3.04378
 20
2.47254
 30
0.0
 40
0.00833333
 41
0.00833333
  0
VERTEX
  8
0
 10
3.06315
 20
2.48318
 30
0.0
 40
0.00833333
 41
0.00833333
  0
VERTEX
  8
0
 10
3.06961
 20
2.48318
 30
0.0
 40
0.00833333
 41
0.00833333
  0
VERTEX
  8
0
 10
3.07601
 20
2.48318
 30
0.0
 40
0.00833333
 41
0.00833333
  0
VERTEX
  8
0
 10
3.09538
 20
2.47254
 30
0.0
 40
0.00833333
 41
0.00833333
  0
VERTEX
  8
0
 10
3.10607
 20
2.45318
 30
0.0
 40
0.00833333
 41
0.00833333
  0
VERTEX
  8
0
 10
3.10607
 20
2.44672
 30
0.0
 40
0.00833333
 41
0.00833333
  0
SEQEND
 8
0
  0
POLYLINE
  8
0
 62
     7
 66
     1
 10
0
 20
0
 30
0.0
 70
     1
 40
0
 41
0
  0
VERTEX
  8
0
 10
3.09044
 20
2.44672
 30
0.0
 40
0
 41
0
  0
VERTEX
  8
0
 10
3.09044
 20
2.44308
 30
0.0
 40
0
 41
0
  0
VERTEX
  8
0
 10
3.08431
 20
2.43201
 30
0.0
 40
0
 41
0
  0
VERTEX
  8
0
 10
3.07324
 20
2.42589
 30
0.0
 40
0
 41
0
  0
VERTEX
  8
0
 10
3.06961
 20
2.42589
 30
0.0
 40
0
 41
0
  0
VERTEX
  8
0
 10
3.06592
 20
2.42589
 30
0.0
 40
0
 41
0
  0
VERTEX
  8
0
 10
3.05485
 20
2.43201
 30
0.0
 40
0
 41
0
  0
VERTEX
  8
0
 10
3.04878
 20
2.44308
 30
0.0
 40
0
 41
0
  0
VERTEX
  8
0
 10
3.04878
 20
2.44672
 30
0.0
 40
0
 41
0
  0
VERTEX
  8
0
 10
3.04878
 20
2.45042
 30
0.0
 40
0
 41
0
  0
VERTEX
  8
0
 10
3.05485
 20
2.46149
 30
0.0
 40
0
 41
0
  0
VERTEX
  8
0
 10
3.06592
 20
2.46756
 30
0.0
 40
0
 41
0
  0
VERTEX
  8
0
 10
3.06961
 20
2.46756
 30
0.0
 40
0
 41
0
  0
VERTEX
  8
0
 10
3.07324
 20
2.46756
 30
0.0
 40
0
 41
0
  0
VERTEX
  8
0
 10
3.08431
 20
2.46149
 30
0.0
 40
0
 41
0
  0
VERTEX
  8
0
 10
3.09044
 20
2.45042
 30
0.0
 40
0
 41
0
  0
VERTEX
  8
0
 10
3.09044
 20
2.44672
 30
0.0
 40
0
 41
0
  0
SEQEND
 8
0
  0
POLYLINE
  8
0
 62
     0
 66
     1
 10
0
 20
0
 30
0.0
 70
     1
 40
0.6
 41
0.6
  0
VERTEX
  8
0
 10
3.09044
 20
2.44672
 30
0.0
 40
0.00833333
 41
0.00833333
  0
VERTEX
  8
0
 10
3.09044
 20
2.44308
 30
0.0
 40
0.00833333
 41
0.00833333
  0
VERTEX
  8
0
 10
3.08431
 20
2.43201
 30
0.0
 40
0.00833333
 41
0.00833333
  0
VERTEX
  8
0
 10
3.07324
 20
2.42589
 30
0.0
 40
0.00833333
 41
0.00833333
  0
VERTEX
  8
0
 10
3.06961
 20
2.42589
 30
0.0
 40
0.00833333
 41
0.00833333
  0
VERTEX
  8
0
 10
3.06592
 20
2.42589
 30
0.0
 40
0.00833333
 41
0.00833333
  0
VERTEX
  8
0
 10
3.05485
 20
2.43201
 30
0.0
 40
0.00833333
 41
0.00833333
  0
VERTEX
  8
0
 10
3.04878
 20
2.44308
 30
0.0
 40
0.00833333
 41
0.00833333
  0
VERTEX
  8
0
 10
3.04878
 20
2.44672
 30
0.0
 40
0.00833333
 41
0.00833333
  0
VERTEX
  8
0
 10
3.04878
 20
2.45042
 30
0.0
 40
0.00833333
 41
0.00833333
  0
VERTEX
  8
0
 10
3.05485
 20
2.46149
 30
0.0
 40
0.00833333
 41
0.00833333
  0
VERTEX
  8
0
 10
3.06592
 20
2.46756
 30
0.0
 40
0.00833333
 41
0.00833333
  0
VERTEX
  8
0
 10
3.06961
 20
2.46756
 30
0.0
 40
0.00833333
 41
0.00833333
  0
VERTEX
  8
0
 10
3.07324
 20
2.46756
 30
0.0
 40
0.00833333
 41
0.00833333
  0
VERTEX
  8
0
 10
3.08431
 20
2.46149
 30
0.0
 40
0.00833333
 41
0.00833333
  0
VERTEX
  8
0
 10
3.09044
 20
2.45042
 30
0.0
 40
0.00833333
 41
0.00833333
  0
VERTEX
  8
0
 10
3.09044
 20
2.44672
 30
0.0
 40
0.00833333
 41
0.00833333
  0
SEQEND
 8
0
  0
POLYLINE
  8
0
 62
     7
 66
     1
 10
0
 20
0
 30
0.0
 70
     1
 40
0
 41
0
  0
VERTEX
  8
0
 10
3.0395
 20
2.64985
 30
0.0
 40
0
 41
0
  0
VERTEX
  8
0
 10
3.102
 20
2.64985
 30
0.0
 40
0
 41
0
  0
VERTEX
  8
0
 10
3.102
 20
2.50401
 30
0.0
 40
0
 41
0
  0
VERTEX
  8
0
 10
3.0395
 20
2.50401
 30
0.0
 40
0
 41
0
  0
VERTEX
  8
0
 10
3.0395
 20
2.64985
 30
0.0
 40
0
 41
0
  0
SEQEND
 8
0
  0
POLYLINE
  8
0
 62
     0
 66
     1
 10
0
 20
0
 30
0.0
 70
     1
 40
0.75
 41
0.75
  0
VERTEX
  8
0
 10
3.0395
 20
2.64985
 30
0.0
 40
0.0104167
 41
0.0104167
  0
VERTEX
  8
0
 10
3.102
 20
2.64985
 30
0.0
 40
0.0104167
 41
0.0104167
  0
VERTEX
  8
0
 10
3.102
 20
2.50401
 30
0.0
 40
0.0104167
 41
0.0104167
  0
VERTEX
  8
0
 10
3.0395
 20
2.50401
 30
0.0
 40
0.0104167
 41
0.0104167
  0
VERTEX
  8
0
 10
3.0395
 20
2.64985
 30
0.0
 40
0.0104167
 41
0.0104167
  0
SEQEND
 8
0
  0
POLYLINE
  8
0
 62
     7
 66
     1
 10
0
 20
0
 30
0.0
 70
     1
 40
0
 41
0
  0
VERTEX
  8
0
 10
2.57161
 20
4.80414
 30
0.0
 40
0
 41
0
  0
VERTEX
  8
0
 10
3.3846
 20
4.80414
 30
0.0
 40
0
 41
0
  0
VERTEX
  8
0
 10
3.3846
 20
4.48768
 30
0.0
 40
0
 41
0
  0
VERTEX
  8
0
 10
2.57161
 20
4.48768
 30
0.0
 40
0
 41
0
  0
VERTEX
  8
0
 10
2.57161
 20
4.80414
 30
0.0
 40
0
 41
0
  0
SEQEND
 8
0
  0
POLYLINE
  8
0
 62
     0
 66
     1
 10
0
 20
0
 30
0.0
 70
     1
 40
0.75
 41
0.75
  0
VERTEX
  8
0
 10
2.57161
 20
4.80414
 30
0.0
 40
0.0104167
 41
0.0104167
  0
VERTEX
  8
0
 10
3.3846
 20
4.80414
 30
0.0
 40
0.0104167
 41
0.0104167
  0
VERTEX
  8
0
 10
3.3846
 20
4.48768
 30
0.0
 40
0.0104167
 41
0.0104167
  0
VERTEX
  8
0
 10
2.57161
 20
4.48768
 30
0.0
 40
0.0104167
 41
0.0104167
  0
VERTEX
  8
0
 10
2.57161
 20
4.80414
 30
0.0
 40
0.0104167
 41
0.0104167
  0
SEQEND
 8
0
  0
POLYLINE
  8
0
 62
     7
 66
     1
 10
0
 20
0
 30
0.0
 70
     1
 40
0
 41
0
  0
VERTEX
  8
0
 10
3.3846
 20
4.80414
 30
0.0
 40
0
 41
0
  0
VERTEX
  8
0
 10
4.19764
 20
4.80414
 30
0.0
 40
0
 41
0
  0
VERTEX
  8
0
 10
4.19764
 20
4.48768
 30
0.0
 40
0
 41
0
  0
VERTEX
  8
0
 10
3.3846
 20
4.48768
 30
0.0
 40
0
 41
0
  0
VERTEX
  8
0
 10
3.3846
 20
4.80414
 30
0.0
 40
0
 41
0
  0
SEQEND
 8
0
  0
POLYLINE
  8
0
 62
     0
 66
     1
 10
0
 20
0
 30
0.0
 70
     1
 40
0.75
 41
0.75
  0
VERTEX
  8
0
 10
3.3846
 20
4.80414
 30
0.0
 40
0.0104167
 41
0.0104167
  0
VERTEX
  8
0
 10
4.19764
 20
4.80414
 30
0.0
 40
0.0104167
 41
0.0104167
  0
VERTEX
  8
0
 10
4.19764
 20
4.48768
 30
0.0
 40
0.0104167
 41
0.0104167
  0
VERTEX
  8
0
 10
3.3846
 20
4.48768
 30
0.0
 40
0.0104167
 41
0.0104167
  0
VERTEX
  8
0
 10
3.3846
 20
4.80414
 30
0.0
 40
0.0104167
 41
0.0104167
  0
SEQEND
 8
0
  0
POLYLINE
  8
0
 62
     7
 66
     1
 10
0
 20
0
 30
0.0
 70
     1
 40
0
 41
0
  0
VERTEX
  8
0
 10
4.19764
 20
4.80414
 30
0.0
 40
0
 41
0
  0
VERTEX
  8
0
 10
5.01069
 20
4.80414
 30
0.0
 40
0
 41
0
  0
VERTEX
  8
0
 10
5.01069
 20
4.48768
 30
0.0
 40
0
 41
0
  0
VERTEX
  8
0
 10
4.19764
 20
4.48768
 30
0.0
 40
0
 41
0
  0
VERTEX
  8
0
 10
4.19764
 20
4.80414
 30
0.0
 40
0
 41
0
  0
SEQEND
 8
0
  0
POLYLINE
  8
0
 62
     0
 66
     1
 10
0
 20
0
 30
0.0
 70
     1
 40
0.75
 41
0.75
  0
VERTEX
  8
0
 10
4.19764
 20
4.80414
 30
0.0
 40
0.0104167
 41
0.0104167
  0
VERTEX
  8
0
 10
5.01069
 20
4.80414
 30
0.0
 40
0.0104167
 41
0.0104167
  0
VERTEX
  8
0
 10
5.01069
 20
4.48768
 30
0.0
 40
0.0104167
 41
0.0104167
  0
VERTEX
  8
0
 10
4.19764
 20
4.48768
 30
0.0
 40
0.0104167
 41
0.0104167
  0
VERTEX
  8
0
 10
4.19764
 20
4.80414
 30
0.0
 40
0.0104167
 41
0.0104167
  0
SEQEND
 8
0
  0
POLYLINE
  8
0
 62
     7
 66
     1
 10
0
 20
0
 30
0.0
 70
     1
 40
0
 41
0
  0
VERTEX
  8
0
 10
0.725424
 20
2.23568
 30
0.0
 40
0
 41
0
  0
VERTEX
  8
0
 10
1.35042
 20
2.23568
 30
0.0
 40
0
 41
0
  0
VERTEX
  8
0
 10
1.35042
 20
1.37766
 30
0.0
 40
0
 41
0
  0
VERTEX
  8
0
 10
0.725424
 20
1.37766
 30
0.0
 40
0
 41
0
  0
VERTEX
  8
0
 10
0.725424
 20
2.23568
 30
0.0
 40
0
 41
0
  0
SEQEND
 8
0
  0
POLYLINE
  8
0
 62
     0
 66
     1
 10
0
 20
0
 30
0.0
 70
     1
 40
0.75
 41
0.75
  0
VERTEX
  8
0
 10
0.725424
 20
2.23568
 30
0.0
 40
0.0104167
 41
0.0104167
  0
VERTEX
  8
0
 10
0.725424
 20
1.37766
 30
0.0
 40
0.0104167
 41
0.0104167
  0
VERTEX
  8
0
 10
1.35042
 20
1.37766
 30
0.0
 40
0.0104167
 41
0.0104167
  0
VERTEX
  8
0
 10
1.35042
 20
2.23568
 30
0.0
 40
0.0104167
 41
0.0104167
  0
VERTEX
  8
0
 10
0.725424
 20
2.23568
 30
0.0
 40
0.0104167
 41
0.0104167
  0
SEQEND
 8
0
  0
POLYLINE
  8
0
 62
     253
 66
     1
 10
0
 20
0
 30
0.0
 40
0.75
 41
0.75
  0
VERTEX
  8
0
 10
1.03792
 20
1.37766
 30
0.0
 40
0.0104167
 41
0.0104167
  0
VERTEX
  8
0
 10
1.03792
 20
2.23574
 30
0.0
 40
0.0104167
 41
0.0104167
  0
SEQEND
 8
0
  0
POLYLINE
  8
0
 62
     7
 66
     1
 10
0
 20
0
 30
0.0
 70
     1
 40
0
 41
0
  0
VERTEX
  8
0
 10
0.725424
 20
2.95768
 30
0.0
 40
0
 41
0
  0
VERTEX
  8
0
 10
1.35042
 20
2.95768
 30
0.0
 40
0
 41
0
  0
VERTEX
  8
0
 10
1.35042
 20
2.23574
 30
0.0
 40
0
 41
0
  0
VERTEX
  8
0
 10
0.725424
 20
2.23574
 30
0.0
 40
0
 41
0
  0
VERTEX
  8
0
 10
0.725424
 20
2.95768
 30
0.0
 40
0
 41
0
  0
SEQEND
 8
0
  0
POLYLINE
  8
0
 62
     0
 66
     1
 10
0
 20
0
 30
0.0
 70
     1
 40
0.75
 41
0.75
  0
VERTEX
  8
0
 10
0.725424
 20
2.95768
 30
0.0
 40
0.0104167
 41
0.0104167
  0
VERTEX
  8
0
 10
0.725424
 20
2.23574
 30
0.0
 40
0.0104167
 41
0.0104167
  0
VERTEX
  8
0
 10
1.35042
 20
2.23574
 30
0.0
 40
0.0104167
 41
0.0104167
  0
VERTEX
  8
0
 10
1.35042
 20
2.95768
 30
0.0
 40
0.0104167
 41
0.0104167
  0
VERTEX
  8
0
 10
0.725424
 20
2.95768
 30
0.0
 40
0.0104167
 41
0.0104167
  0
SEQEND
 8
0
  0
POLYLINE
  8
0
 62
     7
 66
     1
 10
0
 20
0
 30
0.0
 70
     1
 40
0
 41
0
  0
VERTEX
  8
0
 10
0.725424
 20
3.50592
 30
0.0
 40
0
 41
0
  0
VERTEX
  8
0
 10
1.35042
 20
3.50592
 30
0.0
 40
0
 41
0
  0
VERTEX
  8
0
 10
1.35042
 20
2.95768
 30
0.0
 40
0
 41
0
  0
VERTEX
  8
0
 10
0.725424
 20
2.95768
 30
0.0
 40
0
 41
0
  0
VERTEX
  8
0
 10
0.725424
 20
3.50592
 30
0.0
 40
0
 41
0
  0
SEQEND
 8
0
  0
POLYLINE
  8
0
 62
     0
 66
     1
 10
0
 20
0
 30
0.0
 70
     1
 40
0.75
 41
0.75
  0
VERTEX
  8
0
 10
0.725424
 20
3.50592
 30
0.0
 40
0.0104167
 41
0.0104167
  0
VERTEX
  8
0
 10
0.725424
 20
2.95768
 30
0.0
 40
0.0104167
 41
0.0104167
  0
VERTEX
  8
0
 10
1.35042
 20
2.95768
 30
0.0
 40
0.0104167
 41
0.0104167
  0
VERTEX
  8
0
 10
1.35042
 20
3.50592
 30
0.0
 40
0.0104167
 41
0.0104167
  0
VERTEX
  8
0
 10
0.725424
 20
3.50592
 30
0.0
 40
0.0104167
 41
0.0104167
  0
SEQEND
 8
0
  0
POLYLINE
  8
0
 62
     7
 66
     1
 10
0
 20
0
 30
0.0
 70
     1
 40
0
 41
0
  0
VERTEX
  8
0
 10
0.725424
 20
4.13092
 30
0.0
 40
0
 41
0
  0
VERTEX
  8
0
 10
1.35042
 20
4.13092
 30
0.0
 40
0
 41
0
  0
VERTEX
  8
0
 10
1.35042
 20
3.50592
 30
0.0
 40
0
 41
0
  0
VERTEX
  8
0
 10
0.725424
 20
3.50592
 30
0.0
 40
0
 41
0
  0
VERTEX
  8
0
 10
0.725424
 20
4.13092
 30
0.0
 40
0
 41
0
  0
SEQEND
 8
0
  0
POLYLINE
  8
0
 62
     0
 66
     1
 10
0
 20
0
 30
0.0
 70
     1
 40
0.75
 41
0.75
  0
VERTEX
  8
0
 10
0.725424
 20
4.13092
 30
0.0
 40
0.0104167
 41
0.0104167
  0
VERTEX
  8
0
 10
0.725424
 20
3.50592
 30
0.0
 40
0.0104167
 41
0.0104167
  0
VERTEX
  8
0
 10
1.35042
 20
3.50592
 30
0.0
 40
0.0104167
 41
0.0104167
  0
VERTEX
  8
0
 10
1.35042
 20
4.13092
 30
0.0
 40
0.0104167
 41
0.0104167
  0
VERTEX
  8
0
 10
0.725424
 20
4.13092
 30
0.0
 40
0.0104167
 41
0.0104167
  0
SEQEND
 8
0
  0
POLYLINE
  8
0
 62
     0
 66
     1
 10
0
 20
0
 30
0.0
 40
0.75
 41
0.75
  0
VERTEX
  8
0
 10
0.725424
 20
3.50592
 30
0.0
 40
0.0104167
 41
0.0104167
  0
VERTEX
  8
0
 10
1.11187
 20
3.81842
 30
0.0
 40
0.0104167
 41
0.0104167
  0
VERTEX
  8
0
 10
0.924371
 20
3.81842
 30
0.0
 40
0.0104167
 41
0.0104167
  0
VERTEX
  8
0
 10
1.3119
 20
4.13092
 30
0.0
 40
0.0104167
 41
0.0104167
  0
SEQEND
 8
0
  0
POLYLINE
  8
0
 62
     7
 66
     1
 10
0
 20
0
 30
0.0
 70
     1
 40
0
 41
0
  0
VERTEX
  8
0
 10
1.30876
 20
4.13092
 30
0.0
 40
0
 41
0
  0
VERTEX
  8
0
 10
1.35042
 20
4.13092
 30
0.0
 40
0
 41
0
  0
VERTEX
  8
0
 10
1.35042
 20
3.50592
 30
0.0
 40
0
 41
0
  0
VERTEX
  8
0
 10
1.30876
 20
3.50592
 30
0.0
 40
0
 41
0
  0
VERTEX
  8
0
 10
1.30876
 20
4.13092
 30
0.0
 40
0
 41
0
  0
SEQEND
 8
0
  0
POLYLINE
  8
0
 62
     0
 66
     1
 10
0
 20
0
 30
0.0
 70
     1
 40
0.75
 41
0.75
  0
VERTEX
  8
0
 10
1.30876
 20
4.13092
 30
0.0
 40
0.0104167
 41
0.0104167
  0
VERTEX
  8
0
 10
1.30876
 20
3.50592
 30
0.0
 40
0.0104167
 41
0.0104167
  0
VERTEX
  8
0
 10
1.35042
 20
3.50592
 30
0.0
 40
0.0104167
 41
0.0104167
  0
VERTEX
  8
0
 10
1.35042
 20
4.13092
 30
0.0
 40
0.0104167
 41
0.0104167
  0
VERTEX
  8
0
 10
1.30876
 20
4.13092
 30
0.0
 40
0.0104167
 41
0.0104167
  0
SEQEND
 8
0
  0
POLYLINE
  8
0
 62
     7
 66
     1
 10
0
 20
0
 30
0.0
 70
     1
 40
0
 41
0
  0
VERTEX
  8
0
 10
0.725424
 20
4.74382
 30
0.0
 40
0
 41
0
  0
VERTEX
  8
0
 10
1.35042
 20
4.74382
 30
0.0
 40
0
 41
0
  0
VERTEX
  8
0
 10
1.35042
 20
4.13092
 30
0.0
 40
0
 41
0
  0
VERTEX
  8
0
 10
0.725424
 20
4.13092
 30
0.0
 40
0
 41
0
  0
VERTEX
  8
0
 10
0.725424
 20
4.74382
 30
0.0
 40
0
 41
0
  0
SEQEND
 8
0
  0
POLYLINE
  8
0
 62
     0
 66
     1
 10
0
 20
0
 30
0.0
 70
     1
 40
0.75
 41
0.75
  0
VERTEX
  8
0
 10
0.725424
 20
4.74382
 30
0.0
 40
0.0104167
 41
0.0104167
  0
VERTEX
  8
0
 10
0.725424
 20
4.13092
 30
0.0
 40
0.0104167
 41
0.0104167
  0
VERTEX
  8
0
 10
1.35042
 20
4.13092
 30
0.0
 40
0.0104167
 41
0.0104167
  0
VERTEX
  8
0
 10
1.35042
 20
4.74382
 30
0.0
 40
0.0104167
 41
0.0104167
  0
VERTEX
  8
0
 10
0.725424
 20
4.74382
 30
0.0
 40
0.0104167
 41
0.0104167
  0
SEQEND
 8
0
  0
POLYLINE
  8
0
 62
     7
 66
     1
 10
0
 20
0
 30
0.0
 70
     1
 40
0
 41
0
  0
VERTEX
  8
0
 10
4.47433
 20
2.27669
 30
0.0
 40
0
 41
0
  0
VERTEX
  8
0
 10
4.59104
 20
2.27669
 30
0.0
 40
0
 41
0
  0
VERTEX
  8
0
 10
4.59104
 20
2.21311
 30
0.0
 40
0
 41
0
  0
VERTEX
  8
0
 10
4.47433
 20
2.21311
 30
0.0
 40
0
 41
0
  0
VERTEX
  8
0
 10
4.47433
 20
2.27669
 30
0.0
 40
0
 41
0
  0
SEQEND
 8
0
  0
POLYLINE
  8
0
 62
     0
 66
     1
 10
0
 20
0
 30
0.0
 70
     1
 40
0.75
 41
0.75
  0
VERTEX
  8
0
 10
4.47433
 20
2.27669
 30
0.0
 40
0.0104167
 41
0.0104167
  0
VERTEX
  8
0
 10
4.59104
 20
2.27669
 30
0.0
 40
0.0104167
 41
0.0104167
  0
VERTEX
  8
0
 10
4.59104
 20
2.21311
 30
0.0
 40
0.0104167
 41
0.0104167
  0
VERTEX
  8
0
 10
4.47433
 20
2.21311
 30
0.0
 40
0.0104167
 41
0.0104167
  0
VERTEX
  8
0
 10
4.47433
 20
2.27669
 30
0.0
 40
0.0104167
 41
0.0104167
  0
SEQEND
 8
0
  0
POLYLINE
  8
0
 62
     7
 66
     1
 10
0
 20
0
 30
0.0
 70
     1
 40
0
 41
0
  0
VERTEX
  8
0
 10
4.61914
 20
2.27669
 30
0.0
 40
0
 41
0
  0
VERTEX
  8
0
 10
4.73583
 20
2.27669
 30
0.0
 40
0
 41
0
  0
VERTEX
  8
0
 10
4.73583
 20
2.21311
 30
0.0
 40
0
 41
0
  0
VERTEX
  8
0
 10
4.61914
 20
2.21311
 30
0.0
 40
0
 41
0
  0
VERTEX
  8
0
 10
4.61914
 20
2.27669
 30
0.0
 40
0
 41
0
  0
SEQEND
 8
0
  0
POLYLINE
  8
0
 62
     0
 66
     1
 10
0
 20
0
 30
0.0
 70
     1
 40
0.75
 41
0.75
  0
VERTEX
  8
0
 10
4.61914
 20
2.27669
 30
0.0
 40
0.0104167
 41
0.0104167
  0
VERTEX
  8
0
 10
4.73583
 20
2.27669
 30
0.0
 40
0.0104167
 41
0.0104167
  0
VERTEX
  8
0
 10
4.73583
 20
2.21311
 30
0.0
 40
0.0104167
 41
0.0104167
  0
VERTEX
  8
0
 10
4.61914
 20
2.21311
 30
0.0
 40
0.0104167
 41
0.0104167
  0
VERTEX
  8
0
 10
4.61914
 20
2.27669
 30
0.0
 40
0.0104167
 41
0.0104167
  0
SEQEND
 8
0
  0
POLYLINE
  8
0
 62
     7
 66
     1
 10
0
 20
0
 30
0.0
 70
     1
 40
0
 41
0
  0
VERTEX
  8
0
 10
4.73475
 20
2.27669
 30
0.0
 40
0
 41
0
  0
VERTEX
  8
0
 10
4.77018
 20
2.27669
 30
0.0
 40
0
 41
0
  0
VERTEX
  8
0
 10
4.77018
 20
2.21311
 30
0.0
 40
0
 41
0
  0
VERTEX
  8
0
 10
4.73475
 20
2.21311
 30
0.0
 40
0
 41
0
  0
VERTEX
  8
0
 10
4.73475
 20
2.27669
 30
0.0
 40
0
 41
0
  0
SEQEND
 8
0
  0
POLYLINE
  8
0
 62
     0
 66
     1
 10
0
 20
0
 30
0.0
 70
     1
 40
0.75
 41
0.75
  0
VERTEX
  8
0
 10
4.73475
 20
2.27669
 30
0.0
 40
0.0104167
 41
0.0104167
  0
VERTEX
  8
0
 10
4.77018
 20
2.27669
 30
0.0
 40
0.0104167
 41
0.0104167
  0
VERTEX
  8
0
 10
4.77018
 20
2.21311
 30
0.0
 40
0.0104167
 41
0.0104167
  0
VERTEX
  8
0
 10
4.73475
 20
2.21311
 30
0.0
 40
0.0104167
 41
0.0104167
  0
VERTEX
  8
0
 10
4.73475
 20
2.27669
 30
0.0
 40
0.0104167
 41
0.0104167
  0
SEQEND
 8
0
  0
POLYLINE
  8
0
 62
     7
 66
     1
 10
0
 20
0
 30
0.0
 70
     1
 40
0
 41
0
  0
VERTEX
  8
0
 10
4.44103
 20
2.27669
 30
0.0
 40
0
 41
0
  0
VERTEX
  8
0
 10
4.47433
 20
2.27669
 30
0.0
 40
0
 41
0
  0
VERTEX
  8
0
 10
4.47433
 20
2.21311
 30
0.0
 40
0
 41
0
  0
VERTEX
  8
0
 10
4.44103
 20
2.21311
 30
0.0
 40
0
 41
0
  0
VERTEX
  8
0
 10
4.44103
 20
2.27669
 30
0.0
 40
0
 41
0
  0
SEQEND
 8
0
  0
POLYLINE
  8
0
 62
     0
 66
     1
 10
0
 20
0
 30
0.0
 70
     1
 40
0.75
 41
0.75
  0
VERTEX
  8
0
 10
4.44103
 20
2.27669
 30
0.0
 40
0.0104167
 41
0.0104167
  0
VERTEX
  8
0
 10
4.47433
 20
2.27669
 30
0.0
 40
0.0104167
 41
0.0104167
  0
VERTEX
  8
0
 10
4.47433
 20
2.21311
 30
0.0
 40
0.0104167
 41
0.0104167
  0
VERTEX
  8
0
 10
4.44103
 20
2.21311
 30
0.0
 40
0.0104167
 41
0.0104167
  0
VERTEX
  8
0
 10
4.44103
 20
2.27669
 30
0.0
 40
0.0104167
 41
0.0104167
  0
SEQEND
 8
0
  0
POLYLINE
  8
0
 62
     7
 66
     1
 10
0
 20
0
 30
0.0
 70
     1
 40
0
 41
0
  0
VERTEX
  8
0
 10
4.59104
 20
2.19336
 30
0.0
 40
0
 41
0
  0
VERTEX
  8
0
 10
4.59104
 20
2.18707
 30
0.0
 40
0
 41
0
  0
VERTEX
  8
0
 10
4.58735
 20
2.16812
 30
0.0
 40
0
 41
0
  0
VERTEX
  8
0
 10
4.57747
 20
2.14572
 30
0.0
 40
0
 41
0
  0
VERTEX
  8
0
 10
4.57438
 20
2.14128
 30
0.0
 40
0
 41
0
  0
VERTEX
  8
0
 10
4.57329
 20
2.13971
 30
0.0
 40
0
 41
0
  0
VERTEX
  8
0
 10
4.56315
 20
2.12511
 30
0.0
 40
0
 41
0
  0
VERTEX
  8
0
 10
4.56288
 20
2.12354
 30
0.0
 40
0
 41
0
  0
VERTEX
  8
0
 10
4.56233
 20
2.12071
 30
0.0
 40
0
 41
0
  0
VERTEX
  8
0
 10
4.56651
 20
2.10417
 30
0.0
 40
0
 41
0
  0
VERTEX
  8
0
 10
4.58317
 20
2.09131
 30
0.0
 40
0
 41
0
  0
VERTEX
  8
0
 10
4.58892
 20
2.09022
 30
0.0
 40
0
 41
0
  0
VERTEX
  8
0
 10
4.59022
 20
2.09
 30
0.0
 40
0
 41
0
  0
VERTEX
  8
0
 10
4.60178
 20
2.08919
 30
0.0
 40
0
 41
0
  0
VERTEX
  8
0
 10
4.60563
 20
2.08919
 30
0.0
 40
0
 41
0
  0
VERTEX
  8
0
 10
4.60454
 20
2.08919
 30
0.0
 40
0
 41
0
  0
VERTEX
  8
0
 10
4.60872
 20
2.08919
 30
0.0
 40
0
 41
0
  0
VERTEX
  8
0
 10
4.61996
 20
2.09
 30
0.0
 40
0
 41
0
  0
VERTEX
  8
0
 10
4.62125
 20
2.09022
 30
0.0
 40
0
 41
0
  0
VERTEX
  8
0
 10
4.62696
 20
2.09131
 30
0.0
 40
0
 41
0
  0
VERTEX
  8
0
 10
4.64361
 20
2.10417
 30
0.0
 40
0
 41
0
  0
VERTEX
  8
0
 10
4.64779
 20
2.12071
 30
0.0
 40
0
 41
0
  0
VERTEX
  8
0
 10
4.64729
 20
2.12354
 30
0.0
 40
0
 41
0
  0
VERTEX
  8
0
 10
4.64703
 20
2.12511
 30
0.0
 40
0
 41
0
  0
VERTEX
  8
0
 10
4.63683
 20
2.13971
 30
0.0
 40
0
 41
0
  0
VERTEX
  8
0
 10
4.63579
 20
2.14128
 30
0.0
 40
0
 41
0
  0
VERTEX
  8
0
 10
4.63265
 20
2.14572
 30
0.0
 40
0
 41
0
  0
VERTEX
  8
0
 10
4.62278
 20
2.16812
 30
0.0
 40
0
 41
0
  0
VERTEX
  8
0
 10
4.61914
 20
2.18707
 30
0.0
 40
0
 41
0
  0
VERTEX
  8
0
 10
4.61914
 20
2.19336
 30
0.0
 40
0
 41
0
  0
SEQEND
 8
0
  0
POLYLINE
  8
0
 62
     0
 66
     1
 10
0
 20
0
 30
0.0
 40
0.75
 41
0.75
  0
VERTEX
  8
0
 10
4.59104
 20
2.19336
 30
0.0
 40
0.0104167
 41
0.0104167
  0
VERTEX
  8
0
 10
4.59104
 20
2.18707
 30
0.0
 40
0.0104167
 41
0.0104167
  0
VERTEX
  8
0
 10
4.58735
 20
2.16812
 30
0.0
 40
0.0104167
 41
0.0104167
  0
VERTEX
  8
0
 10
4.57747
 20
2.14572
 30
0.0
 40
0.0104167
 41
0.0104167
  0
VERTEX
  8
0
 10
4.57438
 20
2.14128
 30
0.0
 40
0.0104167
 41
0.0104167
  0
VERTEX
  8
0
 10
4.57329
 20
2.13971
 30
0.0
 40
0.0104167
 41
0.0104167
  0
VERTEX
  8
0
 10
4.56315
 20
2.12511
 30
0.0
 40
0.0104167
 41
0.0104167
  0
VERTEX
  8
0
 10
4.56288
 20
2.12354
 30
0.0
 40
0.0104167
 41
0.0104167
  0
VERTEX
  8
0
 10
4.56233
 20
2.12071
 30
0.0
 40
0.0104167
 41
0.0104167
  0
VERTEX
  8
0
 10
4.56651
 20
2.10417
 30
0.0
 40
0.0104167
 41
0.0104167
  0
VERTEX
  8
0
 10
4.58317
 20
2.09131
 30
0.0
 40
0.0104167
 41
0.0104167
  0
VERTEX
  8
0
 10
4.58892
 20
2.09022
 30
0.0
 40
0.0104167
 41
0.0104167
  0
VERTEX
  8
0
 10
4.59022
 20
2.09
 30
0.0
 40
0.0104167
 41
0.0104167
  0
VERTEX
  8
0
 10
4.60178
 20
2.08919
 30
0.0
 40
0.0104167
 41
0.0104167
  0
VERTEX
  8
0
 10
4.60563
 20
2.08919
 30
0.0
 40
0.0104167
 41
0.0104167
  0
VERTEX
  8
0
 10
4.60454
 20
2.08919
 30
0.0
 40
0.0104167
 41
0.0104167
  0
VERTEX
  8
0
 10
4.60872
 20
2.08919
 30
0.0
 40
0.0104167
 41
0.0104167
  0
VERTEX
  8
0
 10
4.61996
 20
2.09
 30
0.0
 40
0.0104167
 41
0.0104167
  0
VERTEX
  8
0
 10
4.62125
 20
2.09022
 30
0.0
 40
0.0104167
 41
0.0104167
  0
VERTEX
  8
0
 10
4.62696
 20
2.09131
 30
0.0
 40
0.0104167
 41
0.0104167
  0
VERTEX
  8
0
 10
4.64361
 20
2.10417
 30
0.0
 40
0.0104167
 41
0.0104167
  0
VERTEX
  8
0
 10
4.64779
 20
2.12071
 30
0.0
 40
0.0104167
 41
0.0104167
  0
VERTEX
  8
0
 10
4.64729
 20
2.12354
 30
0.0
 40
0.0104167
 41
0.0104167
  0
VERTEX
  8
0
 10
4.64703
 20
2.12511
 30
0.0
 40
0.0104167
 41
0.0104167
  0
VERTEX
  8
0
 10
4.63683
 20
2.13971
 30
0.0
 40
0.0104167
 41
0.0104167
  0
VERTEX
  8
0
 10
4.63579
 20
2.14128
 30
0.0
 40
0.0104167
 41
0.0104167
  0
VERTEX
  8
0
 10
4.63265
 20
2.14572
 30
0.0
 40
0.0104167
 41
0.0104167
  0
VERTEX
  8
0
 10
4.62278
 20
2.16812
 30
0.0
 40
0.0104167
 41
0.0104167
  0
VERTEX
  8
0
 10
4.61914
 20
2.18707
 30
0.0
 40
0.0104167
 41
0.0104167
  0
VERTEX
  8
0
 10
4.61914
 20
2.19336
 30
0.0
 40
0.0104167
 41
0.0104167
  0
SEQEND
 8
0
  0
POLYLINE
  8
0
 62
     7
 66
     1
 10
0
 20
0
 30
0.0
 70
     1
 40
0
 41
0
  0
VERTEX
  8
0
 10
4.56288
 20
2.1225
 30
0.0
 40
0
 41
0
  0
VERTEX
  8
0
 10
4.56315
 20
2.12201
 30
0.0
 40
0
 41
0
  0
VERTEX
  8
0
 10
4.57497
 20
2.11187
 30
0.0
 40
0
 41
0
  0
VERTEX
  8
0
 10
4.59874
 20
2.10271
 30
0.0
 40
0
 41
0
  0
VERTEX
  8
0
 10
4.60667
 20
2.10271
 30
0.0
 40
0
 41
0
  0
VERTEX
  8
0
 10
4.6129
 20
2.10297
 30
0.0
 40
0
 41
0
  0
VERTEX
  8
0
 10
4.63553
 20
2.11225
 30
0.0
 40
0
 41
0
  0
VERTEX
  8
0
 10
4.64675
 20
2.12201
 30
0.0
 40
0
 41
0
  0
VERTEX
  8
0
 10
4.64729
 20
2.1225
 30
0.0
 40
0
 41
0
  0
SEQEND
 8
0
  0
POLYLINE
  8
0
 62
     0
 66
     1
 10
0
 20
0
 30
0.0
 40
0.75
 41
0.75
  0
VERTEX
  8
0
 10
4.56288
 20
2.1225
 30
0.0
 40
0.0104167
 41
0.0104167
  0
VERTEX
  8
0
 10
4.56315
 20
2.12201
 30
0.0
 40
0.0104167
 41
0.0104167
  0
VERTEX
  8
0
 10
4.57497
 20
2.11187
 30
0.0
 40
0.0104167
 41
0.0104167
  0
VERTEX
  8
0
 10
4.59874
 20
2.10271
 30
0.0
 40
0.0104167
 41
0.0104167
  0
VERTEX
  8
0
 10
4.60667
 20
2.10271
 30
0.0
 40
0.0104167
 41
0.0104167
  0
VERTEX
  8
0
 10
4.6129
 20
2.10297
 30
0.0
 40
0.0104167
 41
0.0104167
  0
VERTEX
  8
0
 10
4.63553
 20
2.11225
 30
0.0
 40
0.0104167
 41
0.0104167
  0
VERTEX
  8
0
 10
4.64675
 20
2.12201
 30
0.0
 40
0.0104167
 41
0.0104167
  0
VERTEX
  8
0
 10
4.64729
 20
2.1225
 30
0.0
 40
0.0104167
 41
0.0104167
  0
SEQEND
 8
0
  0
POLYLINE
  8
0
 62
     7
 66
     1
 10
0
 20
0
 30
0.0
 70
     1
 40
0
 41
0
  0
VERTEX
  8
0
 10
4.59104
 20
2.27669
 30
0.0
 40
0
 41
0
  0
VERTEX
  8
0
 10
4.61914
 20
2.27669
 30
0.0
 40
0
 41
0
  0
VERTEX
  8
0
 10
4.61914
 20
2.19336
 30
0.0
 40
0
 41
0
  0
VERTEX
  8
0
 10
4.61208
 20
2.19336
 30
0.0
 40
0
 41
0
  0
VERTEX
  8
0
 10
4.59631
 20
2.19336
 30
0.0
 40
0
 41
0
  0
VERTEX
  8
0
 10
4.59104
 20
2.19336
 30
0.0
 40
0
 41
0
  0
VERTEX
  8
0
 10
4.59104
 20
2.21419
 30
0.0
 40
0
 41
0
  0
VERTEX
  8
0
 10
4.59104
 20
2.26107
 30
0.0
 40
0
 41
0
  0
VERTEX
  8
0
 10
4.59104
 20
2.27669
 30
0.0
 40
0
 41
0
  0
SEQEND
 8
0
  0
POLYLINE
  8
0
 62
     0
 66
     1
 10
0
 20
0
 30
0.0
 70
     1
 40
0.75
 41
0.75
  0
VERTEX
  8
0
 10
4.59104
 20
2.27669
 30
0.0
 40
0.0104167
 41
0.0104167
  0
VERTEX
  8
0
 10
4.61914
 20
2.27669
 30
0.0
 40
0.0104167
 41
0.0104167
  0
VERTEX
  8
0
 10
4.61914
 20
2.19336
 30
0.0
 40
0.0104167
 41
0.0104167
  0
VERTEX
  8
0
 10
4.61208
 20
2.19336
 30
0.0
 40
0.0104167
 41
0.0104167
  0
VERTEX
  8
0
 10
4.59631
 20
2.19336
 30
0.0
 40
0.0104167
 41
0.0104167
  0
VERTEX
  8
0
 10
4.59104
 20
2.19336
 30
0.0
 40
0.0104167
 41
0.0104167
  0
VERTEX
  8
0
 10
4.59104
 20
2.21419
 30
0.0
 40
0.0104167
 41
0.0104167
  0
VERTEX
  8
0
 10
4.59104
 20
2.26107
 30
0.0
 40
0.0104167
 41
0.0104167
  0
VERTEX
  8
0
 10
4.59104
 20
2.27669
 30
0.0
 40
0.0104167
 41
0.0104167
  0
SEQEND
 8
0
  0
POLYLINE
  8
0
 62
     7
 66
     1
 10
0
 20
0
 30
0.0
 70
     1
 40
0
 41
0
  0
VERTEX
  8
0
 10
4.47433
 20
2.24436
 30
0.0
 40
0
 41
0
  0
VERTEX
  8
0
 10
4.47754
 20
2.24561
 30
0.0
 40
0
 41
0
  0
VERTEX
  8
0
 10
4.48719
 20
2.24946
 30
0.0
 40
0
 41
0
  0
VERTEX
  8
0
 10
4.48996
 20
2.25065
 30
0.0
 40
0
 41
0
  0
VERTEX
  8
0
 10
4.48996
 20
2.25065
 30
0.0
 40
0
 41
0
  0
VERTEX
  8
0
 10
4.48996
 20
2.24924
 30
0.0
 40
0
 41
0
  0
VERTEX
  8
0
 10
4.48996
 20
2.2449
 30
0.0
 40
0
 41
0
  0
VERTEX
  8
0
 10
4.48996
 20
2.24061
 30
0.0
 40
0
 41
0
  0
VERTEX
  8
0
 10
4.48996
 20
2.23915
 30
0.0
 40
0
 41
0
  0
VERTEX
  8
0
 10
4.48996
 20
2.23915
 30
0.0
 40
0
 41
0
  0
VERTEX
  8
0
 10
4.48757
 20
2.23981
 30
0.0
 40
0
 41
0
  0
VERTEX
  8
0
 10
4.4776
 20
2.24322
 30
0.0
 40
0
 41
0
  0
VERTEX
  8
0
 10
4.47433
 20
2.24436
 30
0.0
 40
0
 41
0
  0
SEQEND
 8
0
  0
POLYLINE
  8
0
 62
     0
 66
     1
 10
0
 20
0
 30
0.0
 70
     1
 40
0.75
 41
0.75
  0
VERTEX
  8
0
 10
4.47433
 20
2.24436
 30
0.0
 40
0.0104167
 41
0.0104167
  0
VERTEX
  8
0
 10
4.47754
 20
2.24561
 30
0.0
 40
0.0104167
 41
0.0104167
  0
VERTEX
  8
0
 10
4.48719
 20
2.24946
 30
0.0
 40
0.0104167
 41
0.0104167
  0
VERTEX
  8
0
 10
4.48996
 20
2.25065
 30
0.0
 40
0.0104167
 41
0.0104167
  0
VERTEX
  8
0
 10
4.48996
 20
2.25065
 30
0.0
 40
0.0104167
 41
0.0104167
  0
VERTEX
  8
0
 10
4.48996
 20
2.24924
 30
0.0
 40
0.0104167
 41
0.0104167
  0
VERTEX
  8
0
 10
4.48996
 20
2.2449
 30
0.0
 40
0.0104167
 41
0.0104167
  0
VERTEX
  8
0
 10
4.48996
 20
2.24061
 30
0.0
 40
0.0104167
 41
0.0104167
  0
VERTEX
  8
0
 10
4.48996
 20
2.23915
 30
0.0
 40
0.0104167
 41
0.0104167
  0
VERTEX
  8
0
 10
4.48996
 20
2.23915
 30
0.0
 40
0.0104167
 41
0.0104167
  0
VERTEX
  8
0
 10
4.48757
 20
2.23981
 30
0.0
 40
0.0104167
 41
0.0104167
  0
VERTEX
  8
0
 10
4.4776
 20
2.24322
 30
0.0
 40
0.0104167
 41
0.0104167
  0
VERTEX
  8
0
 10
4.47433
 20
2.24436
 30
0.0
 40
0.0104167
 41
0.0104167
  0
SEQEND
 8
0
  0
POLYLINE
  8
0
 62
     7
 66
     1
 10
0
 20
0
 30
0.0
 70
     1
 40
0
 41
0
  0
VERTEX
  8
0
 10
4.73475
 20
2.24436
 30
0.0
 40
0
 41
0
  0
VERTEX
  8
0
 10
4.7315
 20
2.24561
 30
0.0
 40
0
 41
0
  0
VERTEX
  8
0
 10
4.72185
 20
2.24946
 30
0.0
 40
0
 41
0
  0
VERTEX
  8
0
 10
4.71913
 20
2.25065
 30
0.0
 40
0
 41
0
  0
VERTEX
  8
0
 10
4.71913
 20
2.25065
 30
0.0
 40
0
 41
0
  0
VERTEX
  8
0
 10
4.71913
 20
2.24924
 30
0.0
 40
0
 41
0
  0
VERTEX
  8
0
 10
4.71913
 20
2.2449
 30
0.0
 40
0
 41
0
  0
VERTEX
  8
0
 10
4.71913
 20
2.24061
 30
0.0
 40
0
 41
0
  0
VERTEX
  8
0
 10
4.71913
 20
2.23915
 30
0.0
 40
0
 41
0
  0
VERTEX
  8
0
 10
4.71913
 20
2.23915
 30
0.0
 40
0
 41
0
  0
VERTEX
  8
0
 10
4.72146
 20
2.23981
 30
0.0
 40
0
 41
0
  0
VERTEX
  8
0
 10
4.73144
 20
2.24322
 30
0.0
 40
0
 41
0
  0
VERTEX
  8
0
 10
4.73475
 20
2.24436
 30
0.0
 40
0
 41
0
  0
SEQEND
 8
0
  0
POLYLINE
  8
0
 62
     0
 66
     1
 10
0
 20
0
 30
0.0
 70
     1
 40
0.75
 41
0.75
  0
VERTEX
  8
0
 10
4.73475
 20
2.24436
 30
0.0
 40
0.0104167
 41
0.0104167
  0
VERTEX
  8
0
 10
4.7315
 20
2.24561
 30
0.0
 40
0.0104167
 41
0.0104167
  0
VERTEX
  8
0
 10
4.72185
 20
2.24946
 30
0.0
 40
0.0104167
 41
0.0104167
  0
VERTEX
  8
0
 10
4.71913
 20
2.25065
 30
0.0
 40
0.0104167
 41
0.0104167
  0
VERTEX
  8
0
 10
4.71913
 20
2.25065
 30
0.0
 40
0.0104167
 41
0.0104167
  0
VERTEX
  8
0
 10
4.71913
 20
2.24924
 30
0.0
 40
0.0104167
 41
0.0104167
  0
VERTEX
  8
0
 10
4.71913
 20
2.2449
 30
0.0
 40
0.0104167
 41
0.0104167
  0
VERTEX
  8
0
 10
4.71913
 20
2.24061
 30
0.0
 40
0.0104167
 41
0.0104167
  0
VERTEX
  8
0
 10
4.71913
 20
2.23915
 30
0.0
 40
0.0104167
 41
0.0104167
  0
VERTEX
  8
0
 10
4.71913
 20
2.23915
 30
0.0
 40
0.0104167
 41
0.0104167
  0
VERTEX
  8
0
 10
4.72146
 20
2.23981
 30
0.0
 40
0.0104167
 41
0.0104167
  0
VERTEX
  8
0
 10
4.73144
 20
2.24322
 30
0.0
 40
0.0104167
 41
0.0104167
  0
VERTEX
  8
0
 10
4.73475
 20
2.24436
 30
0.0
 40
0.0104167
 41
0.0104167
  0
SEQEND
 8
0
  0
POLYLINE
  8
0
 62
     7
 66
     1
 10
0
 20
0
 30
0.0
 70
     1
 40
0
 41
0
  0
VERTEX
  8
0
 10
3.52349
 20
2.6844
 30
0.0
 40
0
 41
0
  0
VERTEX
  8
0
 10
3.94006
 20
2.6844
 30
0.0
 40
0
 41
0
  0
VERTEX
  8
0
 10
3.94006
 20
2.49707
 30
0.0
 40
0
 41
0
  0
VERTEX
  8
0
 10
3.52349
 20
2.49707
 30
0.0
 40
0
 41
0
  0
VERTEX
  8
0
 10
3.52349
 20
2.6844
 30
0.0
 40
0
 41
0
  0
SEQEND
 8
0
  0
POLYLINE
  8
0
 62
     0
 66
     1
 10
0
 20
0
 30
0.0
 70
     1
 40
0.75
 41
0.75
  0
VERTEX
  8
0
 10
3.52349
 20
2.6844
 30
0.0
 40
0.0104167
 41
0.0104167
  0
VERTEX
  8
0
 10
3.94006
 20
2.6844
 30
0.0
 40
0.0104167
 41
0.0104167
  0
VERTEX
  8
0
 10
3.94006
 20
2.49707
 30
0.0
 40
0.0104167
 41
0.0104167
  0
VERTEX
  8
0
 10
3.52349
 20
2.49707
 30
0.0
 40
0.0104167
 41
0.0104167
  0
VERTEX
  8
0
 10
3.52349
 20
2.6844
 30
0.0
 40
0.0104167
 41
0.0104167
  0
SEQEND
 8
0
  0
POLYLINE
  8
0
 62
     7
 66
     1
 10
0
 20
0
 30
0.0
 70
     1
 40
0
 41
0
  0
VERTEX
  8
0
 10
3.94006
 20
2.22879
 30
0.0
 40
0
 41
0
  0
VERTEX
  8
0
 10
3.94006
 20
2.22879
 30
0.0
 40
0
 41
0
  0
VERTEX
  8
0
 10
3.94011
 20
2.21707
 30
0.0
 40
0
 41
0
  0
VERTEX
  8
0
 10
3.93847
 20
2.18608
 30
0.0
 40
0
 41
0
  0
VERTEX
  8
0
 10
3.93235
 20
2.14225
 30
0.0
 40
0
 41
0
  0
VERTEX
  8
0
 10
3.91889
 20
2.09201
 30
0.0
 40
0
 41
0
  0
VERTEX
  8
0
 10
3.89535
 20
2.04183
 30
0.0
 40
0
 41
0
  0
VERTEX
  8
0
 10
3.85889
 20
1.99799
 30
0.0
 40
0
 41
0
  0
VERTEX
  8
0
 10
3.80669
 20
1.96701
 30
0.0
 40
0
 41
0
  0
VERTEX
  8
0
 10
3.75364
 20
1.95524
 30
0.0
 40
0
 41
0
  0
VERTEX
  8
0
 10
3.736
 20
1.95524
 30
0.0
 40
0
 41
0
  0
VERTEX
  8
0
 10
3.71767
 20
1.95524
 30
0.0
 40
0
 41
0
  0
VERTEX
  8
0
 10
3.66282
 20
1.96701
 30
0.0
 40
0
 41
0
  0
VERTEX
  8
0
 10
3.60878
 20
1.99799
 30
0.0
 40
0
 41
0
  0
VERTEX
  8
0
 10
3.57096
 20
2.04183
 30
0.0
 40
0
 41
0
  0
VERTEX
  8
0
 10
3.5465
 20
2.09201
 30
0.0
 40
0
 41
0
  0
VERTEX
  8
0
 10
3.5325
 20
2.14225
 30
0.0
 40
0
 41
0
  0
VERTEX
  8
0
 10
3.5261
 20
2.18608
 30
0.0
 40
0
 41
0
  0
VERTEX
  8
0
 10
3.52436
 20
2.21707
 30
0.0
 40
0
 41
0
  0
VERTEX
  8
0
 10
3.52447
 20
2.22879
 30
0.0
 40
0
 41
0
  0
VERTEX
  8
0
 10
3.52447
 20
2.22879
 30
0.0
 40
0
 41
0
  0
VERTEX
  8
0
 10
3.52344
 20
2.49707
 30
0.0
 40
0
 41
0
  0
VERTEX
  8
0
 10
3.94006
 20
2.49707
 30
0.0
 40
0
 41
0
  0
VERTEX
  8
0
 10
3.94006
 20
2.22879
 30
0.0
 40
0
 41
0
  0
SEQEND
 8
0
  0
POLYLINE
  8
0
 62
     0
 66
     1
 10
0
 20
0
 30
0.0
 70
     1
 40
0.75
 41
0.75
  0
VERTEX
  8
0
 10
3.94006
 20
2.22879
 30
0.0
 40
0.0104167
 41
0.0104167
  0
VERTEX
  8
0
 10
3.94006
 20
2.22879
 30
0.0
 40
0.0104167
 41
0.0104167
  0
VERTEX
  8
0
 10
3.94011
 20
2.21707
 30
0.0
 40
0.0104167
 41
0.0104167
  0
VERTEX
  8
0
 10
3.93847
 20
2.18608
 30
0.0
 40
0.0104167
 41
0.0104167
  0
VERTEX
  8
0
 10
3.93235
 20
2.14225
 30
0.0
 40
0.0104167
 41
0.0104167
  0
VERTEX
  8
0
 10
3.91889
 20
2.09201
 30
0.0
 40
0.0104167
 41
0.0104167
  0
VERTEX
  8
0
 10
3.89535
 20
2.04183
 30
0.0
 40
0.0104167
 41
0.0104167
  0
VERTEX
  8
0
 10
3.85889
 20
1.99799
 30
0.0
 40
0.0104167
 41
0.0104167
  0
VERTEX
  8
0
 10
3.80669
 20
1.96701
 30
0.0
 40
0.0104167
 41
0.0104167
  0
VERTEX
  8
0
 10
3.75364
 20
1.95524
 30
0.0
 40
0.0104167
 41
0.0104167
  0
VERTEX
  8
0
 10
3.736
 20
1.95524
 30
0.0
 40
0.0104167
 41
0.0104167
  0
VERTEX
  8
0
 10
3.71767
 20
1.95524
 30
0.0
 40
0.0104167
 41
0.0104167
  0
VERTEX
  8
0
 10
3.66282
 20
1.96701
 30
0.0
 40
0.0104167
 41
0.0104167
  0
VERTEX
  8
0
 10
3.60878
 20
1.99799
 30
0.0
 40
0.0104167
 41
0.0104167
  0
VERTEX
  8
0
 10
3.57096
 20
2.04183
 30
0.0
 40
0.0104167
 41
0.0104167
  0
VERTEX
  8
0
 10
3.5465
 20
2.09201
 30
0.0
 40
0.0104167
 41
0.0104167
  0
VERTEX
  8
0
 10
3.5325
 20
2.14225
 30
0.0
 40
0.0104167
 41
0.0104167
  0
VERTEX
  8
0
 10
3.5261
 20
2.18608
 30
0.0
 40
0.0104167
 41
0.0104167
  0
VERTEX
  8
0
 10
3.52436
 20
2.21707
 30
0.0
 40
0.0104167
 41
0.0104167
  0
VERTEX
  8
0
 10
3.52447
 20
2.22879
 30
0.0
 40
0.0104167
 41
0.0104167
  0
VERTEX
  8
0
 10
3.52447
 20
2.22879
 30
0.0
 40
0.0104167
 41
0.0104167
  0
VERTEX
  8
0
 10
3.52344
 20
2.49707
 30
0.0
 40
0.0104167
 41
0.0104167
  0
VERTEX
  8
0
 10
3.94006
 20
2.49707
 30
0.0
 40
0.0104167
 41
0.0104167
  0
VERTEX
  8
0
 10
3.94006
 20
2.22879
 30
0.0
 40
0.0104167
 41
0.0104167
  0
SEQEND
 8
0
  0
POLYLINE
  8
0
 62
     7
 66
     1
 10
0
 20
0
 30
0.0
 70
     1
 40
0
 41
0
  0
VERTEX
  8
0
 10
3.69862
 20
2.6065
 30
0.0
 40
0
 41
0
  0
VERTEX
  8
0
 10
3.76486
 20
2.6065
 30
0.0
 40
0
 41
0
  0
VERTEX
  8
0
 10
3.76486
 20
2.57497
 30
0.0
 40
0
 41
0
  0
VERTEX
  8
0
 10
3.69862
 20
2.57497
 30
0.0
 40
0
 41
0
  0
VERTEX
  8
0
 10
3.69862
 20
2.6065
 30
0.0
 40
0
 41
0
  0
SEQEND
 8
0
  0
POLYLINE
  8
0
 62
     0
 66
     1
 10
0
 20
0
 30
0.0
 70
     1
 40
0.75
 41
0.75
  0
VERTEX
  8
0
 10
3.69862
 20
2.6065
 30
0.0
 40
0.0104167
 41
0.0104167
  0
VERTEX
  8
0
 10
3.76486
 20
2.6065
 30
0.0
 40
0.0104167
 41
0.0104167
  0
VERTEX
  8
0
 10
3.76486
 20
2.57497
 30
0.0
 40
0.0104167
 41
0.0104167
  0
VERTEX
  8
0
 10
3.69862
 20
2.57497
 30
0.0
 40
0.0104167
 41
0.0104167
  0
VERTEX
  8
0
 10
3.69862
 20
2.6065
 30
0.0
 40
0.0104167
 41
0.0104167
  0
SEQEND
 8
0
  0
POLYLINE
  8
0
 62
     7
 66
     1
 10
0
 20
0
 30
0.0
 70
     1
 40
0
 41
0
  0
VERTEX
  8
0
 10
2.69661
 20
3.43033
 30
0.0
 40
0
 41
0
  0
VERTEX
  8
0
 10
5.01069
 20
3.43033
 30
0.0
 40
0
 41
0
  0
VERTEX
  8
0
 10
5.01069
 20
2.80533
 30
0.0
 40
0
 41
0
  0
VERTEX
  8
0
 10
2.69661
 20
2.80533
 30
0.0
 40
0
 41
0
  0
VERTEX
  8
0
 10
2.69661
 20
3.43033
 30
0.0
 40
0
 41
0
  0
SEQEND
 8
0
  0
POLYLINE
  8
0
 62
     0
 66
     1
 10
0
 20
0
 30
0.0
 70
     1
 40
0.75
 41
0.75
  0
VERTEX
  8
0
 10
2.69661
 20
3.43033
 30
0.0
 40
0.0104167
 41
0.0104167
  0
VERTEX
  8
0
 10
5.01069
 20
3.43033
 30
0.0
 40
0.0104167
 41
0.0104167
  0
VERTEX
  8
0
 10
5.01069
 20
2.80533
 30
0.0
 40
0.0104167
 41
0.0104167
  0
VERTEX
  8
0
 10
2.69661
 20
2.80533
 30
0.0
 40
0.0104167
 41
0.0104167
  0
VERTEX
  8
0
 10
2.69661
 20
3.43033
 30
0.0
 40
0.0104167
 41
0.0104167
  0
SEQEND
 8
0
  0
POLYLINE
  8
0
 62
     7
 66
     1
 10
0
 20
0
 30
0.0
 70
     1
 40
0
 41
0
  0
VERTEX
  8
0
 10
3.52989
 20
3.4095
 30
0.0
 40
0
 41
0
  0
VERTEX
  8
0
 10
4.01426
 20
3.4095
 30
0.0
 40
0
 41
0
  0
VERTEX
  8
0
 10
4.01426
 20
2.82617
 30
0.0
 40
0
 41
0
  0
VERTEX
  8
0
 10
3.52989
 20
2.82617
 30
0.0
 40
0
 41
0
  0
VERTEX
  8
0
 10
3.52989
 20
3.4095
 30
0.0
 40
0
 41
0
  0
SEQEND
 8
0
  0
POLYLINE
  8
0
 62
     0
 66
     1
 10
0
 20
0
 30
0.0
 70
     1
 40
0.75
 41
0.75
  0
VERTEX
  8
0
 10
3.52989
 20
3.4095
 30
0.0
 40
0.0104167
 41
0.0104167
  0
VERTEX
  8
0
 10
4.01426
 20
3.4095
 30
0.0
 40
0.0104167
 41
0.0104167
  0
VERTEX
  8
0
 10
4.01426
 20
2.82617
 30
0.0
 40
0.0104167
 41
0.0104167
  0
VERTEX
  8
0
 10
3.52989
 20
2.82617
 30
0.0
 40
0.0104167
 41
0.0104167
  0
VERTEX
  8
0
 10
3.52989
 20
3.4095
 30
0.0
 40
0.0104167
 41
0.0104167
  0
SEQEND
 8
0
  0
POLYLINE
  8
0
 62
     7
 66
     1
 10
0
 20
0
 30
0.0
 70
     1
 40
0
 41
0
  0
VERTEX
  8
0
 10
3.81239
 20
2.972
 30
0.0
 40
0
 41
0
  0
VERTEX
  8
0
 10
3.81239
 20
2.98014
 30
0.0
 40
0
 41
0
  0
VERTEX
  8
0
 10
3.8189
 20
3.00444
 30
0.0
 40
0
 41
0
  0
VERTEX
  8
0
 10
3.83681
 20
3.03093
 30
0.0
 40
0
 41
0
  0
VERTEX
  8
0
 10
3.86328
 20
3.04883
 30
0.0
 40
0
 41
0
  0
VERTEX
  8
0
 10
3.88758
 20
3.05533
 30
0.0
 40
0
 41
0
  0
VERTEX
  8
0
 10
3.89572
 20
3.05533
 30
0.0
 40
0
 41
0
  0
VERTEX
  8
0
 10
3.90381
 20
3.05533
 30
0.0
 40
0
 41
0
  0
VERTEX
  8
0
 10
3.92817
 20
3.04883
 30
0.0
 40
0
 41
0
  0
VERTEX
  8
0
 10
3.95464
 20
3.03093
 30
0.0
 40
0
 41
0
  0
VERTEX
  8
0
 10
3.9725
 20
3.00444
 30
0.0
 40
0
 41
0
  0
VERTEX
  8
0
 10
3.97906
 20
2.98014
 30
0.0
 40
0
 41
0
  0
VERTEX
  8
0
 10
3.97906
 20
2.972
 30
0.0
 40
0
 41
0
  0
VERTEX
  8
0
 10
3.97906
 20
2.96392
 30
0.0
 40
0
 41
0
  0
VERTEX
  8
0
 10
3.9725
 20
2.93956
 30
0.0
 40
0
 41
0
  0
VERTEX
  8
0
 10
3.95464
 20
2.91308
 30
0.0
 40
0
 41
0
  0
VERTEX
  8
0
 10
3.92817
 20
2.89524
 30
0.0
 40
0
 41
0
  0
VERTEX
  8
0
 10
3.90381
 20
2.88867
 30
0.0
 40
0
 41
0
  0
VERTEX
  8
0
 10
3.89572
 20
2.88867
 30
0.0
 40
0
 41
0
  0
VERTEX
  8
0
 10
3.88758
 20
2.88867
 30
0.0
 40
0
 41
0
  0
VERTEX
  8
0
 10
3.86328
 20
2.89524
 30
0.0
 40
0
 41
0
  0
VERTEX
  8
0
 10
3.83681
 20
2.91308
 30
0.0
 40
0
 41
0
  0
VERTEX
  8
0
 10
3.8189
 20
2.93956
 30
0.0
 40
0
 41
0
  0
VERTEX
  8
0
 10
3.81239
 20
2.96392
 30
0.0
 40
0
 41
0
  0
VERTEX
  8
0
 10
3.81239
 20
2.972
 30
0.0
 40
0
 41
0
  0
SEQEND
 8
0
  0
POLYLINE
  8
0
 62
     0
 66
     1
 10
0
 20
0
 30
0.0
 70
     1
 40
0.75
 41
0.75
  0
VERTEX
  8
0
 10
3.81239
 20
2.972
 30
0.0
 40
0.0104167
 41
0.0104167
  0
VERTEX
  8
0
 10
3.81239
 20
2.98014
 30
0.0
 40
0.0104167
 41
0.0104167
  0
VERTEX
  8
0
 10
3.8189
 20
3.00444
 30
0.0
 40
0.0104167
 41
0.0104167
  0
VERTEX
  8
0
 10
3.83681
 20
3.03093
 30
0.0
 40
0.0104167
 41
0.0104167
  0
VERTEX
  8
0
 10
3.86328
 20
3.04883
 30
0.0
 40
0.0104167
 41
0.0104167
  0
VERTEX
  8
0
 10
3.88758
 20
3.05533
 30
0.0
 40
0.0104167
 41
0.0104167
  0
VERTEX
  8
0
 10
3.89572
 20
3.05533
 30
0.0
 40
0.0104167
 41
0.0104167
  0
VERTEX
  8
0
 10
3.90381
 20
3.05533
 30
0.0
 40
0.0104167
 41
0.0104167
  0
VERTEX
  8
0
 10
3.92817
 20
3.04883
 30
0.0
 40
0.0104167
 41
0.0104167
  0
VERTEX
  8
0
 10
3.95464
 20
3.03093
 30
0.0
 40
0.0104167
 41
0.0104167
  0
VERTEX
  8
0
 10
3.9725
 20
3.00444
 30
0.0
 40
0.0104167
 41
0.0104167
  0
VERTEX
  8
0
 10
3.97906
 20
2.98014
 30
0.0
 40
0.0104167
 41
0.0104167
  0
VERTEX
  8
0
 10
3.97906
 20
2.972
 30
0.0
 40
0.0104167
 41
0.0104167
  0
VERTEX
  8
0
 10
3.97906
 20
2.96392
 30
0.0
 40
0.0104167
 41
0.0104167
  0
VERTEX
  8
0
 10
3.9725
 20
2.93956
 30
0.0
 40
0.0104167
 41
0.0104167
  0
VERTEX
  8
0
 10
3.95464
 20
2.91308
 30
0.0
 40
0.0104167
 41
0.0104167
  0
VERTEX
  8
0
 10
3.92817
 20
2.89524
 30
0.0
 40
0.0104167
 41
0.0104167
  0
VERTEX
  8
0
 10
3.90381
 20
2.88867
 30
0.0
 40
0.0104167
 41
0.0104167
  0
VERTEX
  8
0
 10
3.89572
 20
2.88867
 30
0.0
 40
0.0104167
 41
0.0104167
  0
VERTEX
  8
0
 10
3.88758
 20
2.88867
 30
0.0
 40
0.0104167
 41
0.0104167
  0
VERTEX
  8
0
 10
3.86328
 20
2.89524
 30
0.0
 40
0.0104167
 41
0.0104167
  0
VERTEX
  8
0
 10
3.83681
 20
2.91308
 30
0.0
 40
0.0104167
 41
0.0104167
  0
VERTEX
  8
0
 10
3.8189
 20
2.93956
 30
0.0
 40
0.0104167
 41
0.0104167
  0
VERTEX
  8
0
 10
3.81239
 20
2.96392
 30
0.0
 40
0.0104167
 41
0.0104167
  0
VERTEX
  8
0
 10
3.81239
 20
2.972
 30
0.0
 40
0.0104167
 41
0.0104167
  0
SEQEND
 8
0
  0
POLYLINE
  8
0
 62
     7
 66
     1
 10
0
 20
0
 30
0.0
 70
     1
 40
0
 41
0
  0
VERTEX
  8
0
 10
3.56853
 20
2.972
 30
0.0
 40
0
 41
0
  0
VERTEX
  8
0
 10
3.56853
 20
2.98014
 30
0.0
 40
0
 41
0
  0
VERTEX
  8
0
 10
3.57503
 20
3.00444
 30
0.0
 40
0
 41
0
  0
VERTEX
  8
0
 10
3.59293
 20
3.03093
 30
0.0
 40
0
 41
0
  0
VERTEX
  8
0
 10
3.61942
 20
3.04883
 30
0.0
 40
0
 41
0
  0
VERTEX
  8
0
 10
3.64372
 20
3.05533
 30
0.0
 40
0
 41
0
  0
VERTEX
  8
0
 10
3.65186
 20
3.05533
 30
0.0
 40
0
 41
0
  0
VERTEX
  8
0
 10
3.65994
 20
3.05533
 30
0.0
 40
0
 41
0
  0
VERTEX
  8
0
 10
3.68431
 20
3.04883
 30
0.0
 40
0
 41
0
  0
VERTEX
  8
0
 10
3.71078
 20
3.03093
 30
0.0
 40
0
 41
0
  0
VERTEX
  8
0
 10
3.72863
 20
3.00444
 30
0.0
 40
0
 41
0
  0
VERTEX
  8
0
 10
3.73519
 20
2.98014
 30
0.0
 40
0
 41
0
  0
VERTEX
  8
0
 10
3.73519
 20
2.972
 30
0.0
 40
0
 41
0
  0
VERTEX
  8
0
 10
3.73519
 20
2.96392
 30
0.0
 40
0
 41
0
  0
VERTEX
  8
0
 10
3.72863
 20
2.93956
 30
0.0
 40
0
 41
0
  0
VERTEX
  8
0
 10
3.71078
 20
2.91308
 30
0.0
 40
0
 41
0
  0
VERTEX
  8
0
 10
3.68431
 20
2.89524
 30
0.0
 40
0
 41
0
  0
VERTEX
  8
0
 10
3.65994
 20
2.88867
 30
0.0
 40
0
 41
0
  0
VERTEX
  8
0
 10
3.65186
 20
2.88867
 30
0.0
 40
0
 41
0
  0
VERTEX
  8
0
 10
3.64372
 20
2.88867
 30
0.0
 40
0
 41
0
  0
VERTEX
  8
0
 10
3.61942
 20
2.89524
 30
0.0
 40
0
 41
0
  0
VERTEX
  8
0
 10
3.59293
 20
2.91308
 30
0.0
 40
0
 41
0
  0
VERTEX
  8
0
 10
3.57503
 20
2.93956
 30
0.0
 40
0
 41
0
  0
VERTEX
  8
0
 10
3.56853
 20
2.96392
 30
0.0
 40
0
 41
0
  0
VERTEX
  8
0
 10
3.56853
 20
2.972
 30
0.0
 40
0
 41
0
  0
SEQEND
 8
0
  0
POLYLINE
  8
0
 62
     0
 66
     1
 10
0
 20
0
 30
0.0
 70
     1
 40
0.75
 41
0.75
  0
VERTEX
  8
0
 10
3.56853
 20
2.972
 30
0.0
 40
0.0104167
 41
0.0104167
  0
VERTEX
  8
0
 10
3.56853
 20
2.98014
 30
0.0
 40
0.0104167
 41
0.0104167
  0
VERTEX
  8
0
 10
3.57503
 20
3.00444
 30
0.0
 40
0.0104167
 41
0.0104167
  0
VERTEX
  8
0
 10
3.59293
 20
3.03093
 30
0.0
 40
0.0104167
 41
0.0104167
  0
VERTEX
  8
0
 10
3.61942
 20
3.04883
 30
0.0
 40
0.0104167
 41
0.0104167
  0
VERTEX
  8
0
 10
3.64372
 20
3.05533
 30
0.0
 40
0.0104167
 41
0.0104167
  0
VERTEX
  8
0
 10
3.65186
 20
3.05533
 30
0.0
 40
0.0104167
 41
0.0104167
  0
VERTEX
  8
0
 10
3.65994
 20
3.05533
 30
0.0
 40
0.0104167
 41
0.0104167
  0
VERTEX
  8
0
 10
3.68431
 20
3.04883
 30
0.0
 40
0.0104167
 41
0.0104167
  0
VERTEX
  8
0
 10
3.71078
 20
3.03093
 30
0.0
 40
0.0104167
 41
0.0104167
  0
VERTEX
  8
0
 10
3.72863
 20
3.00444
 30
0.0
 40
0.0104167
 41
0.0104167
  0
VERTEX
  8
0
 10
3.73519
 20
2.98014
 30
0.0
 40
0.0104167
 41
0.0104167
  0
VERTEX
  8
0
 10
3.73519
 20
2.972
 30
0.0
 40
0.0104167
 41
0.0104167
  0
VERTEX
  8
0
 10
3.73519
 20
2.96392
 30
0.0
 40
0.0104167
 41
0.0104167
  0
VERTEX
  8
0
 10
3.72863
 20
2.93956
 30
0.0
 40
0.0104167
 41
0.0104167
  0
VERTEX
  8
0
 10
3.71078
 20
2.91308
 30
0.0
 40
0.0104167
 41
0.0104167
  0
VERTEX
  8
0
 10
3.68431
 20
2.89524
 30
0.0
 40
0.0104167
 41
0.0104167
  0
VERTEX
  8
0
 10
3.65994
 20
2.88867
 30
0.0
 40
0.0104167
 41
0.0104167
  0
VERTEX
  8
0
 10
3.65186
 20
2.88867
 30
0.0
 40
0.0104167
 41
0.0104167
  0
VERTEX
  8
0
 10
3.64372
 20
2.88867
 30
0.0
 40
0.0104167
 41
0.0104167
  0
VERTEX
  8
0
 10
3.61942
 20
2.89524
 30
0.0
 40
0.0104167
 41
0.0104167
  0
VERTEX
  8
0
 10
3.59293
 20
2.91308
 30
0.0
 40
0.0104167
 41
0.0104167
  0
VERTEX
  8
0
 10
3.57503
 20
2.93956
 30
0.0
 40
0.0104167
 41
0.0104167
  0
VERTEX
  8
0
 10
3.56853
 20
2.96392
 30
0.0
 40
0.0104167
 41
0.0104167
  0
VERTEX
  8
0
 10
3.56853
 20
2.972
 30
0.0
 40
0.0104167
 41
0.0104167
  0
SEQEND
 8
0
  0
POLYLINE
  8
0
 62
     7
 66
     1
 10
0
 20
0
 30
0.0
 70
     1
 40
0
 41
0
  0
VERTEX
  8
0
 10
3.81239
 20
3.26367
 30
0.0
 40
0
 41
0
  0
VERTEX
  8
0
 10
3.81239
 20
3.27181
 30
0.0
 40
0
 41
0
  0
VERTEX
  8
0
 10
3.8189
 20
3.29611
 30
0.0
 40
0
 41
0
  0
VERTEX
  8
0
 10
3.83681
 20
3.3226
 30
0.0
 40
0
 41
0
  0
VERTEX
  8
0
 10
3.86328
 20
3.3405
 30
0.0
 40
0
 41
0
  0
VERTEX
  8
0
 10
3.88758
 20
3.347
 30
0.0
 40
0
 41
0
  0
VERTEX
  8
0
 10
3.89572
 20
3.347
 30
0.0
 40
0
 41
0
  0
VERTEX
  8
0
 10
3.90381
 20
3.347
 30
0.0
 40
0
 41
0
  0
VERTEX
  8
0
 10
3.92817
 20
3.3405
 30
0.0
 40
0
 41
0
  0
VERTEX
  8
0
 10
3.95464
 20
3.3226
 30
0.0
 40
0
 41
0
  0
VERTEX
  8
0
 10
3.9725
 20
3.29611
 30
0.0
 40
0
 41
0
  0
VERTEX
  8
0
 10
3.97906
 20
3.27181
 30
0.0
 40
0
 41
0
  0
VERTEX
  8
0
 10
3.97906
 20
3.26367
 30
0.0
 40
0
 41
0
  0
VERTEX
  8
0
 10
3.97906
 20
3.25558
 30
0.0
 40
0
 41
0
  0
VERTEX
  8
0
 10
3.9725
 20
3.23122
 30
0.0
 40
0
 41
0
  0
VERTEX
  8
0
 10
3.95464
 20
3.20475
 30
0.0
 40
0
 41
0
  0
VERTEX
  8
0
 10
3.92817
 20
3.1869
 30
0.0
 40
0
 41
0
  0
VERTEX
  8
0
 10
3.90381
 20
3.18033
 30
0.0
 40
0
 41
0
  0
VERTEX
  8
0
 10
3.89572
 20
3.18033
 30
0.0
 40
0
 41
0
  0
VERTEX
  8
0
 10
3.88758
 20
3.18033
 30
0.0
 40
0
 41
0
  0
VERTEX
  8
0
 10
3.86328
 20
3.1869
 30
0.0
 40
0
 41
0
  0
VERTEX
  8
0
 10
3.83681
 20
3.20475
 30
0.0
 40
0
 41
0
  0
VERTEX
  8
0
 10
3.8189
 20
3.23122
 30
0.0
 40
0
 41
0
  0
VERTEX
  8
0
 10
3.81239
 20
3.25558
 30
0.0
 40
0
 41
0
  0
VERTEX
  8
0
 10
3.81239
 20
3.26367
 30
0.0
 40
0
 41
0
  0
SEQEND
 8
0
  0
POLYLINE
  8
0
 62
     0
 66
     1
 10
0
 20
0
 30
0.0
 70
     1
 40
0.75
 41
0.75
  0
VERTEX
  8
0
 10
3.81239
 20
3.26367
 30
0.0
 40
0.0104167
 41
0.0104167
  0
VERTEX
  8
0
 10
3.81239
 20
3.27181
 30
0.0
 40
0.0104167
 41
0.0104167
  0
VERTEX
  8
0
 10
3.8189
 20
3.29611
 30
0.0
 40
0.0104167
 41
0.0104167
  0
VERTEX
  8
0
 10
3.83681
 20
3.3226
 30
0.0
 40
0.0104167
 41
0.0104167
  0
VERTEX
  8
0
 10
3.86328
 20
3.3405
 30
0.0
 40
0.0104167
 41
0.0104167
  0
VERTEX
  8
0
 10
3.88758
 20
3.347
 30
0.0
 40
0.0104167
 41
0.0104167
  0
VERTEX
  8
0
 10
3.89572
 20
3.347
 30
0.0
 40
0.0104167
 41
0.0104167
  0
VERTEX
  8
0
 10
3.90381
 20
3.347
 30
0.0
 40
0.0104167
 41
0.0104167
  0
VERTEX
  8
0
 10
3.92817
 20
3.3405
 30
0.0
 40
0.0104167
 41
0.0104167
  0
VERTEX
  8
0
 10
3.95464
 20
3.3226
 30
0.0
 40
0.0104167
 41
0.0104167
  0
VERTEX
  8
0
 10
3.9725
 20
3.29611
 30
0.0
 40
0.0104167
 41
0.0104167
  0
VERTEX
  8
0
 10
3.97906
 20
3.27181
 30
0.0
 40
0.0104167
 41
0.0104167
  0
VERTEX
  8
0
 10
3.97906
 20
3.26367
 30
0.0
 40
0.0104167
 41
0.0104167
  0
VERTEX
  8
0
 10
3.97906
 20
3.25558
 30
0.0
 40
0.0104167
 41
0.0104167
  0
VERTEX
  8
0
 10
3.9725
 20
3.23122
 30
0.0
 40
0.0104167
 41
0.0104167
  0
VERTEX
  8
0
 10
3.95464
 20
3.20475
 30
0.0
 40
0.0104167
 41
0.0104167
  0
VERTEX
  8
0
 10
3.92817
 20
3.1869
 30
0.0
 40
0.0104167
 41
0.0104167
  0
VERTEX
  8
0
 10
3.90381
 20
3.18033
 30
0.0
 40
0.0104167
 41
0.0104167
  0
VERTEX
  8
0
 10
3.89572
 20
3.18033
 30
0.0
 40
0.0104167
 41
0.0104167
  0
VERTEX
  8
0
 10
3.88758
 20
3.18033
 30
0.0
 40
0.0104167
 41
0.0104167
  0
VERTEX
  8
0
 10
3.86328
 20
3.1869
 30
0.0
 40
0.0104167
 41
0.0104167
  0
VERTEX
  8
0
 10
3.83681
 20
3.20475
 30
0.0
 40
0.0104167
 41
0.0104167
  0
VERTEX
  8
0
 10
3.8189
 20
3.23122
 30
0.0
 40
0.0104167
 41
0.0104167
  0
VERTEX
  8
0
 10
3.81239
 20
3.25558
 30
0.0
 40
0.0104167
 41
0.0104167
  0
VERTEX
  8
0
 10
3.81239
 20
3.26367
 30
0.0
 40
0.0104167
 41
0.0104167
  0
SEQEND
 8
0
  0
POLYLINE
  8
0
 62
     7
 66
     1
 10
0
 20
0
 30
0.0
 70
     1
 40
0
 41
0
  0
VERTEX
  8
0
 10
3.56853
 20
3.26367
 30
0.0
 40
0
 41
0
  0
VERTEX
  8
0
 10
3.56853
 20
3.27181
 30
0.0
 40
0
 41
0
  0
VERTEX
  8
0
 10
3.57503
 20
3.29611
 30
0.0
 40
0
 41
0
  0
VERTEX
  8
0
 10
3.59293
 20
3.3226
 30
0.0
 40
0
 41
0
  0
VERTEX
  8
0
 10
3.61942
 20
3.3405
 30
0.0
 40
0
 41
0
  0
VERTEX
  8
0
 10
3.64372
 20
3.347
 30
0.0
 40
0
 41
0
  0
VERTEX
  8
0
 10
3.65186
 20
3.347
 30
0.0
 40
0
 41
0
  0
VERTEX
  8
0
 10
3.65994
 20
3.347
 30
0.0
 40
0
 41
0
  0
VERTEX
  8
0
 10
3.68431
 20
3.3405
 30
0.0
 40
0
 41
0
  0
VERTEX
  8
0
 10
3.71078
 20
3.3226
 30
0.0
 40
0
 41
0
  0
VERTEX
  8
0
 10
3.72863
 20
3.29611
 30
0.0
 40
0
 41
0
  0
VERTEX
  8
0
 10
3.73519
 20
3.27181
 30
0.0
 40
0
 41
0
  0
VERTEX
  8
0
 10
3.73519
 20
3.26367
 30
0.0
 40
0
 41
0
  0
VERTEX
  8
0
 10
3.73519
 20
3.25558
 30
0.0
 40
0
 41
0
  0
VERTEX
  8
0
 10
3.72863
 20
3.23122
 30
0.0
 40
0
 41
0
  0
VERTEX
  8
0
 10
3.71078
 20
3.20475
 30
0.0
 40
0
 41
0
  0
VERTEX
  8
0
 10
3.68431
 20
3.1869
 30
0.0
 40
0
 41
0
  0
VERTEX
  8
0
 10
3.65994
 20
3.18033
 30
0.0
 40
0
 41
0
  0
VERTEX
  8
0
 10
3.65186
 20
3.18033
 30
0.0
 40
0
 41
0
  0
VERTEX
  8
0
 10
3.64372
 20
3.18033
 30
0.0
 40
0
 41
0
  0
VERTEX
  8
0
 10
3.61942
 20
3.1869
 30
0.0
 40
0
 41
0
  0
VERTEX
  8
0
 10
3.59293
 20
3.20475
 30
0.0
 40
0
 41
0
  0
VERTEX
  8
0
 10
3.57503
 20
3.23122
 30
0.0
 40
0
 41
0
  0
VERTEX
  8
0
 10
3.56853
 20
3.25558
 30
0.0
 40
0
 41
0
  0
VERTEX
  8
0
 10
3.56853
 20
3.26367
 30
0.0
 40
0
 41
0
  0
SEQEND
 8
0
  0
POLYLINE
  8
0
 62
     0
 66
     1
 10
0
 20
0
 30
0.0
 70
     1
 40
0.75
 41
0.75
  0
VERTEX
  8
0
 10
3.56853
 20
3.26367
 30
0.0
 40
0.0104167
 41
0.0104167
  0
VERTEX
  8
0
 10
3.56853
 20
3.27181
 30
0.0
 40
0.0104167
 41
0.0104167
  0
VERTEX
  8
0
 10
3.57503
 20
3.29611
 30
0.0
 40
0.0104167
 41
0.0104167
  0
VERTEX
  8
0
 10
3.59293
 20
3.3226
 30
0.0
 40
0.0104167
 41
0.0104167
  0
VERTEX
  8
0
 10
3.61942
 20
3.3405
 30
0.0
 40
0.0104167
 41
0.0104167
  0
VERTEX
  8
0
 10
3.64372
 20
3.347
 30
0.0
 40
0.0104167
 41
0.0104167
  0
VERTEX
  8
0
 10
3.65186
 20
3.347
 30
0.0
 40
0.0104167
 41
0.0104167
  0
VERTEX
  8
0
 10
3.65994
 20
3.347
 30
0.0
 40
0.0104167
 41
0.0104167
  0
VERTEX
  8
0
 10
3.68431
 20
3.3405
 30
0.0
 40
0.0104167
 41
0.0104167
  0
VERTEX
  8
0
 10
3.71078
 20
3.3226
 30
0.0
 40
0.0104167
 41
0.0104167
  0
VERTEX
  8
0
 10
3.72863
 20
3.29611
 30
0.0
 40
0.0104167
 41
0.0104167
  0
VERTEX
  8
0
 10
3.73519
 20
3.27181
 30
0.0
 40
0.0104167
 41
0.0104167
  0
VERTEX
  8
0
 10
3.73519
 20
3.26367
 30
0.0
 40
0.0104167
 41
0.0104167
  0
VERTEX
  8
0
 10
3.73519
 20
3.25558
 30
0.0
 40
0.0104167
 41
0.0104167
  0
VERTEX
  8
0
 10
3.72863
 20
3.23122
 30
0.0
 40
0.0104167
 41
0.0104167
  0
VERTEX
  8
0
 10
3.71078
 20
3.20475
 30
0.0
 40
0.0104167
 41
0.0104167
  0
VERTEX
  8
0
 10
3.68431
 20
3.1869
 30
0.0
 40
0.0104167
 41
0.0104167
  0
VERTEX
  8
0
 10
3.65994
 20
3.18033
 30
0.0
 40
0.0104167
 41
0.0104167
  0
VERTEX
  8
0
 10
3.65186
 20
3.18033
 30
0.0
 40
0.0104167
 41
0.0104167
  0
VERTEX
  8
0
 10
3.64372
 20
3.18033
 30
0.0
 40
0.0104167
 41
0.0104167
  0
VERTEX
  8
0
 10
3.61942
 20
3.1869
 30
0.0
 40
0.0104167
 41
0.0104167
  0
VERTEX
  8
0
 10
3.59293
 20
3.20475
 30
0.0
 40
0.0104167
 41
0.0104167
  0
VERTEX
  8
0
 10
3.57503
 20
3.23122
 30
0.0
 40
0.0104167
 41
0.0104167
  0
VERTEX
  8
0
 10
3.56853
 20
3.25558
 30
0.0
 40
0.0104167
 41
0.0104167
  0
VERTEX
  8
0
 10
3.56853
 20
3.26367
 30
0.0
 40
0.0104167
 41
0.0104167
  0
SEQEND
 8
0
  0
POLYLINE
  8
0
 62
     7
 66
     1
 10
0
 20
0
 30
0.0
 70
     1
 40
0
 41
0
  0
VERTEX
  8
0
 10
4.54932
 20
3.10428
 30
0.0
 40
0
 41
0
  0
VERTEX
  8
0
 10
4.88585
 20
3.10428
 30
0.0
 40
0
 41
0
  0
VERTEX
  8
0
 10
4.88585
 20
2.90836
 30
0.0
 40
0
 41
0
  0
VERTEX
  8
0
 10
4.54932
 20
2.90836
 30
0.0
 40
0
 41
0
  0
VERTEX
  8
0
 10
4.54932
 20
3.10428
 30
0.0
 40
0
 41
0
  0
SEQEND
 8
0
  0
POLYLINE
  8
0
 62
     0
 66
     1
 10
0
 20
0
 30
0.0
 70
     1
 40
0.75
 41
0.75
  0
VERTEX
  8
0
 10
4.54932
 20
3.10428
 30
0.0
 40
0.0104167
 41
0.0104167
  0
VERTEX
  8
0
 10
4.88585
 20
3.10428
 30
0.0
 40
0.0104167
 41
0.0104167
  0
VERTEX
  8
0
 10
4.88585
 20
2.90836
 30
0.0
 40
0.0104167
 41
0.0104167
  0
VERTEX
  8
0
 10
4.54932
 20
2.90836
 30
0.0
 40
0.0104167
 41
0.0104167
  0
VERTEX
  8
0
 10
4.54932
 20
3.10428
 30
0.0
 40
0.0104167
 41
0.0104167
  0
SEQEND
 8
0
  0
POLYLINE
  8
0
 62
     7
 66
     1
 10
0
 20
0
 30
0.0
 70
     1
 40
0
 41
0
  0
VERTEX
  8
0
 10
4.55003
 20
3.37711
 30
0.0
 40
0
 41
0
  0
VERTEX
  8
0
 10
4.88688
 20
3.37711
 30
0.0
 40
0
 41
0
  0
VERTEX
  8
0
 10
4.88688
 20
3.13021
 30
0.0
 40
0
 41
0
  0
VERTEX
  8
0
 10
4.55003
 20
3.13021
 30
0.0
 40
0
 41
0
  0
VERTEX
  8
0
 10
4.55003
 20
3.37711
 30
0.0
 40
0
 41
0
  0
SEQEND
 8
0
  0
POLYLINE
  8
0
 62
     0
 66
     1
 10
0
 20
0
 30
0.0
 70
     1
 40
0.75
 41
0.75
  0
VERTEX
  8
0
 10
4.55003
 20
3.37711
 30
0.0
 40
0.0104167
 41
0.0104167
  0
VERTEX
  8
0
 10
4.88688
 20
3.37711
 30
0.0
 40
0.0104167
 41
0.0104167
  0
VERTEX
  8
0
 10
4.88688
 20
3.13021
 30
0.0
 40
0.0104167
 41
0.0104167
  0
VERTEX
  8
0
 10
4.55003
 20
3.13021
 30
0.0
 40
0.0104167
 41
0.0104167
  0
VERTEX
  8
0
 10
4.55003
 20
3.37711
 30
0.0
 40
0.0104167
 41
0.0104167
  0
SEQEND
 8
0
  0
POLYLINE
  8
0
 62
     7
 66
     1
 10
0
 20
0
 30
0.0
 70
     1
 40
0
 41
0
  0
VERTEX
  8
0
 10
4.68864
 20
3.00629
 30
0.0
 40
0
 41
0
  0
VERTEX
  8
0
 10
4.68864
 20
3.01275
 30
0.0
 40
0
 41
0
  0
VERTEX
  8
0
 10
4.69928
 20
3.03213
 30
0.0
 40
0
 41
0
  0
VERTEX
  8
0
 10
4.71864
 20
3.04275
 30
0.0
 40
0
 41
0
  0
VERTEX
  8
0
 10
4.7251
 20
3.04275
 30
0.0
 40
0
 41
0
  0
VERTEX
  8
0
 10
4.7315
 20
3.04275
 30
0.0
 40
0
 41
0
  0
VERTEX
  8
0
 10
4.75087
 20
3.03213
 30
0.0
 40
0
 41
0
  0
VERTEX
  8
0
 10
4.76156
 20
3.01275
 30
0.0
 40
0
 41
0
  0
VERTEX
  8
0
 10
4.76156
 20
3.00629
 30
0.0
 40
0
 41
0
  0
VERTEX
  8
0
 10
4.76156
 20
2.99989
 30
0.0
 40
0
 41
0
  0
VERTEX
  8
0
 10
4.75087
 20
2.98053
 30
0.0
 40
0
 41
0
  0
VERTEX
  8
0
 10
4.7315
 20
2.96983
 30
0.0
 40
0
 41
0
  0
VERTEX
  8
0
 10
4.7251
 20
2.96983
 30
0.0
 40
0
 41
0
  0
VERTEX
  8
0
 10
4.71864
 20
2.96983
 30
0.0
 40
0
 41
0
  0
VERTEX
  8
0
 10
4.69928
 20
2.98053
 30
0.0
 40
0
 41
0
  0
VERTEX
  8
0
 10
4.68864
 20
2.99989
 30
0.0
 40
0
 41
0
  0
VERTEX
  8
0
 10
4.68864
 20
3.00629
 30
0.0
 40
0
 41
0
  0
SEQEND
 8
0
  0
POLYLINE
  8
0
 62
     0
 66
     1
 10
0
 20
0
 30
0.0
 70
     1
 40
0.6
 41
0.6
  0
VERTEX
  8
0
 10
4.68864
 20
3.00629
 30
0.0
 40
0.00833333
 41
0.00833333
  0
VERTEX
  8
0
 10
4.68864
 20
3.01275
 30
0.0
 40
0.00833333
 41
0.00833333
  0
VERTEX
  8
0
 10
4.69928
 20
3.03213
 30
0.0
 40
0.00833333
 41
0.00833333
  0
VERTEX
  8
0
 10
4.71864
 20
3.04275
 30
0.0
 40
0.00833333
 41
0.00833333
  0
VERTEX
  8
0
 10
4.7251
 20
3.04275
 30
0.0
 40
0.00833333
 41
0.00833333
  0
VERTEX
  8
0
 10
4.7315
 20
3.04275
 30
0.0
 40
0.00833333
 41
0.00833333
  0
VERTEX
  8
0
 10
4.75087
 20
3.03213
 30
0.0
 40
0.00833333
 41
0.00833333
  0
VERTEX
  8
0
 10
4.76156
 20
3.01275
 30
0.0
 40
0.00833333
 41
0.00833333
  0
VERTEX
  8
0
 10
4.76156
 20
3.00629
 30
0.0
 40
0.00833333
 41
0.00833333
  0
VERTEX
  8
0
 10
4.76156
 20
2.99989
 30
0.0
 40
0.00833333
 41
0.00833333
  0
VERTEX
  8
0
 10
4.75087
 20
2.98053
 30
0.0
 40
0.00833333
 41
0.00833333
  0
VERTEX
  8
0
 10
4.7315
 20
2.96983
 30
0.0
 40
0.00833333
 41
0.00833333
  0
VERTEX
  8
0
 10
4.7251
 20
2.96983
 30
0.0
 40
0.00833333
 41
0.00833333
  0
VERTEX
  8
0
 10
4.71864
 20
2.96983
 30
0.0
 40
0.00833333
 41
0.00833333
  0
VERTEX
  8
0
 10
4.69928
 20
2.98053
 30
0.0
 40
0.00833333
 41
0.00833333
  0
VERTEX
  8
0
 10
4.68864
 20
2.99989
 30
0.0
 40
0.00833333
 41
0.00833333
  0
VERTEX
  8
0
 10
4.68864
 20
3.00629
 30
0.0
 40
0.00833333
 41
0.00833333
  0
SEQEND
 8
0
  0
POLYLINE
  8
0
 62
     7
 66
     1
 10
0
 20
0
 30
0.0
 70
     1
 40
0
 41
0
  0
VERTEX
  8
0
 10
4.68864
 20
3.25776
 30
0.0
 40
0
 41
0
  0
VERTEX
  8
0
 10
4.68864
 20
3.26421
 30
0.0
 40
0
 41
0
  0
VERTEX
  8
0
 10
4.69928
 20
3.28358
 30
0.0
 40
0
 41
0
  0
VERTEX
  8
0
 10
4.71864
 20
3.29422
 30
0.0
 40
0
 41
0
  0
VERTEX
  8
0
 10
4.7251
 20
3.29422
 30
0.0
 40
0
 41
0
  0
VERTEX
  8
0
 10
4.7315
 20
3.29422
 30
0.0
 40
0
 41
0
  0
VERTEX
  8
0
 10
4.75087
 20
3.28358
 30
0.0
 40
0
 41
0
  0
VERTEX
  8
0
 10
4.76156
 20
3.26421
 30
0.0
 40
0
 41
0
  0
VERTEX
  8
0
 10
4.76156
 20
3.25776
 30
0.0
 40
0
 41
0
  0
VERTEX
  8
0
 10
4.76156
 20
3.25136
 30
0.0
 40
0
 41
0
  0
VERTEX
  8
0
 10
4.75087
 20
3.23199
 30
0.0
 40
0
 41
0
  0
VERTEX
  8
0
 10
4.7315
 20
3.22131
 30
0.0
 40
0
 41
0
  0
VERTEX
  8
0
 10
4.7251
 20
3.22131
 30
0.0
 40
0
 41
0
  0
VERTEX
  8
0
 10
4.71864
 20
3.22131
 30
0.0
 40
0
 41
0
  0
VERTEX
  8
0
 10
4.69928
 20
3.23199
 30
0.0
 40
0
 41
0
  0
VERTEX
  8
0
 10
4.68864
 20
3.25136
 30
0.0
 40
0
 41
0
  0
VERTEX
  8
0
 10
4.68864
 20
3.25776
 30
0.0
 40
0
 41
0
  0
SEQEND
 8
0
  0
POLYLINE
  8
0
 62
     0
 66
     1
 10
0
 20
0
 30
0.0
 70
     1
 40
0.6
 41
0.6
  0
VERTEX
  8
0
 10
4.68864
 20
3.25776
 30
0.0
 40
0.00833333
 41
0.00833333
  0
VERTEX
  8
0
 10
4.68864
 20
3.26421
 30
0.0
 40
0.00833333
 41
0.00833333
  0
VERTEX
  8
0
 10
4.69928
 20
3.28358
 30
0.0
 40
0.00833333
 41
0.00833333
  0
VERTEX
  8
0
 10
4.71864
 20
3.29422
 30
0.0
 40
0.00833333
 41
0.00833333
  0
VERTEX
  8
0
 10
4.7251
 20
3.29422
 30
0.0
 40
0.00833333
 41
0.00833333
  0
VERTEX
  8
0
 10
4.7315
 20
3.29422
 30
0.0
 40
0.00833333
 41
0.00833333
  0
VERTEX
  8
0
 10
4.75087
 20
3.28358
 30
0.0
 40
0.00833333
 41
0.00833333
  0
VERTEX
  8
0
 10
4.76156
 20
3.26421
 30
0.0
 40
0.00833333
 41
0.00833333
  0
VERTEX
  8
0
 10
4.76156
 20
3.25776
 30
0.0
 40
0.00833333
 41
0.00833333
  0
VERTEX
  8
0
 10
4.76156
 20
3.25136
 30
0.0
 40
0.00833333
 41
0.00833333
  0
VERTEX
  8
0
 10
4.75087
 20
3.23199
 30
0.0
 40
0.00833333
 41
0.00833333
  0
VERTEX
  8
0
 10
4.7315
 20
3.22131
 30
0.0
 40
0.00833333
 41
0.00833333
  0
VERTEX
  8
0
 10
4.7251
 20
3.22131
 30
0.0
 40
0.00833333
 41
0.00833333
  0
VERTEX
  8
0
 10
4.71864
 20
3.22131
 30
0.0
 40
0.00833333
 41
0.00833333
  0
VERTEX
  8
0
 10
4.69928
 20
3.23199
 30
0.0
 40
0.00833333
 41
0.00833333
  0
VERTEX
  8
0
 10
4.68864
 20
3.25136
 30
0.0
 40
0.00833333
 41
0.00833333
  0
VERTEX
  8
0
 10
4.68864
 20
3.25776
 30
0.0
 40
0.00833333
 41
0.00833333
  0
SEQEND
 8
0
  0
POLYLINE
  8
0
 62
     7
 66
     1
 10
0
 20
0
 30
0.0
 70
     1
 40
0
 41
0
  0
VERTEX
  8
0
 10
4.70426
 20
3.00629
 30
0.0
 40
0
 41
0
  0
VERTEX
  8
0
 10
4.70426
 20
3.00999
 30
0.0
 40
0
 41
0
  0
VERTEX
  8
0
 10
4.71035
 20
3.02106
 30
0.0
 40
0
 41
0
  0
VERTEX
  8
0
 10
4.7214
 20
3.02713
 30
0.0
 40
0
 41
0
  0
VERTEX
  8
0
 10
4.7251
 20
3.02713
 30
0.0
 40
0
 41
0
  0
VERTEX
  8
0
 10
4.72874
 20
3.02713
 30
0.0
 40
0
 41
0
  0
VERTEX
  8
0
 10
4.73981
 20
3.02106
 30
0.0
 40
0
 41
0
  0
VERTEX
  8
0
 10
4.74593
 20
3.00999
 30
0.0
 40
0
 41
0
  0
VERTEX
  8
0
 10
4.74593
 20
3.00629
 30
0.0
 40
0
 41
0
  0
VERTEX
  8
0
 10
4.74593
 20
3.00265
 30
0.0
 40
0
 41
0
  0
VERTEX
  8
0
 10
4.73981
 20
2.9916
 30
0.0
 40
0
 41
0
  0
VERTEX
  8
0
 10
4.72874
 20
2.98546
 30
0.0
 40
0
 41
0
  0
VERTEX
  8
0
 10
4.7251
 20
2.98546
 30
0.0
 40
0
 41
0
  0
VERTEX
  8
0
 10
4.7214
 20
2.98546
 30
0.0
 40
0
 41
0
  0
VERTEX
  8
0
 10
4.71035
 20
2.9916
 30
0.0
 40
0
 41
0
  0
VERTEX
  8
0
 10
4.70426
 20
3.00265
 30
0.0
 40
0
 41
0
  0
VERTEX
  8
0
 10
4.70426
 20
3.00629
 30
0.0
 40
0
 41
0
  0
SEQEND
 8
0
  0
POLYLINE
  8
0
 62
     0
 66
     1
 10
0
 20
0
 30
0.0
 70
     1
 40
0.6
 41
0.6
  0
VERTEX
  8
0
 10
4.70426
 20
3.00629
 30
0.0
 40
0.00833333
 41
0.00833333
  0
VERTEX
  8
0
 10
4.70426
 20
3.00999
 30
0.0
 40
0.00833333
 41
0.00833333
  0
VERTEX
  8
0
 10
4.71035
 20
3.02106
 30
0.0
 40
0.00833333
 41
0.00833333
  0
VERTEX
  8
0
 10
4.7214
 20
3.02713
 30
0.0
 40
0.00833333
 41
0.00833333
  0
VERTEX
  8
0
 10
4.7251
 20
3.02713
 30
0.0
 40
0.00833333
 41
0.00833333
  0
VERTEX
  8
0
 10
4.72874
 20
3.02713
 30
0.0
 40
0.00833333
 41
0.00833333
  0
VERTEX
  8
0
 10
4.73981
 20
3.02106
 30
0.0
 40
0.00833333
 41
0.00833333
  0
VERTEX
  8
0
 10
4.74593
 20
3.00999
 30
0.0
 40
0.00833333
 41
0.00833333
  0
VERTEX
  8
0
 10
4.74593
 20
3.00629
 30
0.0
 40
0.00833333
 41
0.00833333
  0
VERTEX
  8
0
 10
4.74593
 20
3.00265
 30
0.0
 40
0.00833333
 41
0.00833333
  0
VERTEX
  8
0
 10
4.73981
 20
2.9916
 30
0.0
 40
0.00833333
 41
0.00833333
  0
VERTEX
  8
0
 10
4.72874
 20
2.98546
 30
0.0
 40
0.00833333
 41
0.00833333
  0
VERTEX
  8
0
 10
4.7251
 20
2.98546
 30
0.0
 40
0.00833333
 41
0.00833333
  0
VERTEX
  8
0
 10
4.7214
 20
2.98546
 30
0.0
 40
0.00833333
 41
0.00833333
  0
VERTEX
  8
0
 10
4.71035
 20
2.9916
 30
0.0
 40
0.00833333
 41
0.00833333
  0
VERTEX
  8
0
 10
4.70426
 20
3.00265
 30
0.0
 40
0.00833333
 41
0.00833333
  0
VERTEX
  8
0
 10
4.70426
 20
3.00629
 30
0.0
 40
0.00833333
 41
0.00833333
  0
SEQEND
 8
0
  0
POLYLINE
  8
0
 62
     7
 66
     1
 10
0
 20
0
 30
0.0
 70
     1
 40
0
 41
0
  0
VERTEX
  8
0
 10
4.70426
 20
3.25776
 30
0.0
 40
0
 41
0
  0
VERTEX
  8
0
 10
4.70426
 20
3.26144
 30
0.0
 40
0
 41
0
  0
VERTEX
  8
0
 10
4.71035
 20
3.27251
 30
0.0
 40
0
 41
0
  0
VERTEX
  8
0
 10
4.7214
 20
3.2786
 30
0.0
 40
0
 41
0
  0
VERTEX
  8
0
 10
4.7251
 20
3.2786
 30
0.0
 40
0
 41
0
  0
VERTEX
  8
0
 10
4.72874
 20
3.2786
 30
0.0
 40
0
 41
0
  0
VERTEX
  8
0
 10
4.73981
 20
3.27251
 30
0.0
 40
0
 41
0
  0
VERTEX
  8
0
 10
4.74593
 20
3.26144
 30
0.0
 40
0
 41
0
  0
VERTEX
  8
0
 10
4.74593
 20
3.25776
 30
0.0
 40
0
 41
0
  0
VERTEX
  8
0
 10
4.74593
 20
3.25412
 30
0.0
 40
0
 41
0
  0
VERTEX
  8
0
 10
4.73981
 20
3.24306
 30
0.0
 40
0
 41
0
  0
VERTEX
  8
0
 10
4.72874
 20
3.23693
 30
0.0
 40
0
 41
0
  0
VERTEX
  8
0
 10
4.7251
 20
3.23693
 30
0.0
 40
0
 41
0
  0
VERTEX
  8
0
 10
4.7214
 20
3.23693
 30
0.0
 40
0
 41
0
  0
VERTEX
  8
0
 10
4.71035
 20
3.24306
 30
0.0
 40
0
 41
0
  0
VERTEX
  8
0
 10
4.70426
 20
3.25412
 30
0.0
 40
0
 41
0
  0
VERTEX
  8
0
 10
4.70426
 20
3.25776
 30
0.0
 40
0
 41
0
  0
SEQEND
 8
0
  0
POLYLINE
  8
0
 62
     0
 66
     1
 10
0
 20
0
 30
0.0
 70
     1
 40
0.6
 41
0.6
  0
VERTEX
  8
0
 10
4.70426
 20
3.25776
 30
0.0
 40
0.00833333
 41
0.00833333
  0
VERTEX
  8
0
 10
4.70426
 20
3.26144
 30
0.0
 40
0.00833333
 41
0.00833333
  0
VERTEX
  8
0
 10
4.71035
 20
3.27251
 30
0.0
 40
0.00833333
 41
0.00833333
  0
VERTEX
  8
0
 10
4.7214
 20
3.2786
 30
0.0
 40
0.00833333
 41
0.00833333
  0
VERTEX
  8
0
 10
4.7251
 20
3.2786
 30
0.0
 40
0.00833333
 41
0.00833333
  0
VERTEX
  8
0
 10
4.72874
 20
3.2786
 30
0.0
 40
0.00833333
 41
0.00833333
  0
VERTEX
  8
0
 10
4.73981
 20
3.27251
 30
0.0
 40
0.00833333
 41
0.00833333
  0
VERTEX
  8
0
 10
4.74593
 20
3.26144
 30
0.0
 40
0.00833333
 41
0.00833333
  0
VERTEX
  8
0
 10
4.74593
 20
3.25776
 30
0.0
 40
0.00833333
 41
0.00833333
  0
VERTEX
  8
0
 10
4.74593
 20
3.25412
 30
0.0
 40
0.00833333
 41
0.00833333
  0
VERTEX
  8
0
 10
4.73981
 20
3.24306
 30
0.0
 40
0.00833333
 41
0.00833333
  0
VERTEX
  8
0
 10
4.72874
 20
3.23693
 30
0.0
 40
0.00833333
 41
0.00833333
  0
VERTEX
  8
0
 10
4.7251
 20
3.23693
 30
0.0
 40
0.00833333
 41
0.00833333
  0
VERTEX
  8
0
 10
4.7214
 20
3.23693
 30
0.0
 40
0.00833333
 41
0.00833333
  0
VERTEX
  8
0
 10
4.71035
 20
3.24306
 30
0.0
 40
0.00833333
 41
0.00833333
  0
VERTEX
  8
0
 10
4.70426
 20
3.25412
 30
0.0
 40
0.00833333
 41
0.00833333
  0
VERTEX
  8
0
 10
4.70426
 20
3.25776
 30
0.0
 40
0.00833333
 41
0.00833333
  0
SEQEND
 8
0
  0
POLYLINE
  8
0
 62
     7
 66
     1
 10
0
 20
0
 30
0.0
 70
     1
 40
0
 41
0
  0
VERTEX
  8
0
 10
4.51036
 20
3.14794
 30
0.0
 40
0
 41
0
  0
VERTEX
  8
0
 10
4.65619
 20
3.14794
 30
0.0
 40
0
 41
0
  0
VERTEX
  8
0
 10
4.65619
 20
3.08544
 30
0.0
 40
0
 41
0
  0
VERTEX
  8
0
 10
4.51036
 20
3.08544
 30
0.0
 40
0
 41
0
  0
VERTEX
  8
0
 10
4.51036
 20
3.14794
 30
0.0
 40
0
 41
0
  0
SEQEND
 8
0
  0
POLYLINE
  8
0
 62
     0
 66
     1
 10
0
 20
0
 30
0.0
 70
     1
 40
0.75
 41
0.75
  0
VERTEX
  8
0
 10
4.51036
 20
3.14794
 30
0.0
 40
0.0104167
 41
0.0104167
  0
VERTEX
  8
0
 10
4.65619
 20
3.14794
 30
0.0
 40
0.0104167
 41
0.0104167
  0
VERTEX
  8
0
 10
4.65619
 20
3.08544
 30
0.0
 40
0.0104167
 41
0.0104167
  0
VERTEX
  8
0
 10
4.51036
 20
3.08544
 30
0.0
 40
0.0104167
 41
0.0104167
  0
VERTEX
  8
0
 10
4.51036
 20
3.14794
 30
0.0
 40
0.0104167
 41
0.0104167
  0
SEQEND
 8
0
  0
POLYLINE
  8
0
 62
     0
 66
     1
 10
0
 20
0
 30
0.0
 70
     1
 40
0.75
 41
0.75
  0
VERTEX
  8
0
 10
2.69672
 20
3.11719
 30
0.0
 40
0.0104167
 41
0.0104167
  0
VERTEX
  8
0
 10
5.01069
 20
3.11719
 30
0.0
 40
0.0104167
 41
0.0104167
  0
VERTEX
  8
0
 10
5.01069
 20
2.80469
 30
0.0
 40
0.0104167
 41
0.0104167
  0
VERTEX
  8
0
 10
2.69672
 20
2.80469
 30
0.0
 40
0.0104167
 41
0.0104167
  0
VERTEX
  8
0
 10
2.69672
 20
3.11719
 30
0.0
 40
0.0104167
 41
0.0104167
  0
SEQEND
 8
0
  0
ENDSEC
  0
EOF
