  0
SECTION
  2
HEADER
  9
$ACADVER
  1
AC1009
  9
$FILLMODE
 70
 0
  9
$SPLFRAME
 70
 1
  9
$EXTMIN
 10
0
 20
0
 30
0.0
  9
$EXTMAX
 10
41.6667
 20
41.6667
 30
0.0
  0
ENDSEC
  0
SECTION
  2
TABLES
  0
TABLE
  2
LAYER
 70
1
  0
LAYER
  2
0
 70
     0
 62
     7
  6
CONTINUOUS
  0
ENDTAB
  0
ENDSEC
  0
SECTION
  2
ENTITIES
  0
POLYLINE
  8
0
 62
     7
 66
     1
 10
0
 20
0
 30
0.0
 70
     1
 40
0
 41
0
  0
VERTEX
  8
0
 10
2.74669
 20
2.57443
 30
0.0
 40
0
 41
0
  0
VERTEX
  8
0
 10
2.74669
 20
0.819769
 30
0.0
 40
0
 41
0
  0
VERTEX
  8
0
 10
5.91021
 20
0.819769
 30
0.0
 40
0
 41
0
  0
VERTEX
  8
0
 10
5.91021
 20
2.5714
 30
0.0
 40
0
 41
0
  0
VERTEX
  8
0
 10
2.74669
 20
2.57443
 30
0.0
 40
0
 41
0
  0
SEQEND
 8
0
  0
POLYLINE
  8
0
 62
     0
 66
     1
 10
0
 20
0
 30
0.0
 70
     1
 40
0.15
 41
0.15
  0
VERTEX
  8
0
 10
2.74669
 20
2.57443
 30
0.0
 40
0.00208333
 41
0.00208333
  0
VERTEX
  8
0
 10
2.74669
 20
0.819769
 30
0.0
 40
0.00208333
 41
0.00208333
  0
VERTEX
  8
0
 10
5.91021
 20
0.819769
 30
0.0
 40
0.00208333
 41
0.00208333
  0
VERTEX
  8
0
 10
5.91021
 20
2.5714
 30
0.0
 40
0.00208333
 41
0.00208333
  0
VERTEX
  8
0
 10
2.74669
 20
2.57443
 30
0.0
 40
0.00208333
 41
0.00208333
  0
SEQEND
 8
0
  0
TEXT
  8
0
 62
     0
 10
4.32796
 20
1.69635
 30
0.0
 40
0.34375
  1
ULK
 50
0
  0
TEXT
  8
0
 62
     0
 10
5.00557
 20
1.69635
 30
0.0
 40
0.34375
  1
O
 50
0
  0
TEXT
  8
0
 62
     0
 10
5.26787
 20
1.69635
 30
0.0
 40
0.34375
  1
TILA
 50
0
  0
POLYLINE
  8
0
 62
     7
 66
     1
 10
0
 20
0
 30
0.0
 70
     1
 40
0
 41
0
  0
VERTEX
  8
0
 10
2.22407
 20
10.8668
 30
0.0
 40
0
 41
0
  0
VERTEX
  8
0
 10
1.16813
 20
10.8668
 30
0.0
 40
0
 41
0
  0
VERTEX
  8
0
 10
1.16813
 20
9.22999
 30
0.0
 40
0
 41
0
  0
VERTEX
  8
0
 10
2.22542
 20
9.22999
 30
0.0
 40
0
 41
0
  0
VERTEX
  8
0
 10
2.22407
 20
10.8668
 30
0.0
 40
0
 41
0
  0
SEQEND
 8
0
  0
POLYLINE
  8
0
 62
     0
 66
     1
 10
0
 20
0
 30
0.0
 70
     1
 40
0.15
 41
0.15
  0
VERTEX
  8
0
 10
2.22407
 20
10.8668
 30
0.0
 40
0.00208333
 41
0.00208333
  0
VERTEX
  8
0
 10
1.16813
 20
10.8668
 30
0.0
 40
0.00208333
 41
0.00208333
  0
VERTEX
  8
0
 10
1.16813
 20
9.22999
 30
0.0
 40
0.00208333
 41
0.00208333
  0
VERTEX
  8
0
 10
2.22542
 20
9.22999
 30
0.0
 40
0.00208333
 41
0.00208333
  0
VERTEX
  8
0
 10
2.22407
 20
10.8668
 30
0.0
 40
0.00208333
 41
0.00208333
  0
SEQEND
 8
0
  0
TEXT
  8
0
 62
     0
 10
1.69642
 20
10.0482
 30
0.0
 40
0.34375
  1
ULK
 50
0
  0
TEXT
  8
0
 62
     0
 10
2.37403
 20
10.0482
 30
0.0
 40
0.34375
  1
O
 50
0
  0
TEXT
  8
0
 62
     0
 10
2.63633
 20
10.0482
 30
0.0
 40
0.34375
  1
TILA
 50
0
  0
POLYLINE
  8
0
 62
     7
 66
     1
 10
0
 20
0
 30
0.0
 70
     1
 40
0
 41
0
  0
VERTEX
  8
0
 10
8.62831
 20
4.12392
 30
0.0
 40
0
 41
0
  0
VERTEX
  8
0
 10
8.62831
 20
2.87424
 30
0.0
 40
0
 41
0
  0
VERTEX
  8
0
 10
6.60092
 20
2.87424
 30
0.0
 40
0
 41
0
  0
VERTEX
  8
0
 10
6.60092
 20
4.11442
 30
0.0
 40
0
 41
0
  0
VERTEX
  8
0
 10
8.62831
 20
4.12392
 30
0.0
 40
0
 41
0
  0
SEQEND
 8
0
  0
POLYLINE
  8
0
 62
     0
 66
     1
 10
0
 20
0
 30
0.0
 70
     1
 40
0.15
 41
0.15
  0
VERTEX
  8
0
 10
8.62831
 20
4.12392
 30
0.0
 40
0.00208333
 41
0.00208333
  0
VERTEX
  8
0
 10
8.62831
 20
2.87424
 30
0.0
 40
0.00208333
 41
0.00208333
  0
VERTEX
  8
0
 10
6.60092
 20
2.87424
 30
0.0
 40
0.00208333
 41
0.00208333
  0
VERTEX
  8
0
 10
6.60092
 20
4.11442
 30
0.0
 40
0.00208333
 41
0.00208333
  0
VERTEX
  8
0
 10
8.62831
 20
4.12392
 30
0.0
 40
0.00208333
 41
0.00208333
  0
SEQEND
 8
0
  0
TEXT
  8
0
 62
     0
 10
7.61593
 20
3.49675
 30
0.0
 40
0.34375
  1
ULK
 50
0
  0
TEXT
  8
0
 62
     0
 10
8.29354
 20
3.49675
 30
0.0
 40
0.34375
  1
O
 50
0
  0
TEXT
  8
0
 62
     0
 10
8.55585
 20
3.49675
 30
0.0
 40
0.34375
  1
TILA
 50
0
  0
POLYLINE
  8
0
 62
     7
 66
     1
 10
0
 20
0
 30
0.0
 70
     1
 40
0
 41
0
  0
VERTEX
  8
0
 10
8.60747
 20
5.87299
 30
0.0
 40
0
 41
0
  0
VERTEX
  8
0
 10
8.67774
 20
5.87299
 30
0.0
 40
0
 41
0
  0
VERTEX
  8
0
 10
8.67774
 20
4.99414
 30
0.0
 40
0
 41
0
  0
VERTEX
  8
0
 10
8.60747
 20
4.99414
 30
0.0
 40
0
 41
0
  0
VERTEX
  8
0
 10
8.60747
 20
4.27067
 30
0.0
 40
0
 41
0
  0
VERTEX
  8
0
 10
6.57878
 20
4.27067
 30
0.0
 40
0
 41
0
  0
VERTEX
  8
0
 10
6.57878
 20
6.021
 30
0.0
 40
0
 41
0
  0
VERTEX
  8
0
 10
8.60747
 20
6.021
 30
0.0
 40
0
 41
0
  0
VERTEX
  8
0
 10
8.60747
 20
5.87299
 30
0.0
 40
0
 41
0
  0
SEQEND
 8
0
  0
POLYLINE
  8
0
 62
     7
 66
     1
 10
0
 20
0
 30
0.0
 70
     1
 40
0.15
 41
0.15
  0
VERTEX
  8
0
 10
8.60747
 20
5.87299
 30
0.0
 40
0.00208333
 41
0.00208333
  0
VERTEX
  8
0
 10
8.67774
 20
5.87299
 30
0.0
 40
0.00208333
 41
0.00208333
  0
VERTEX
  8
0
 10
8.67774
 20
4.99414
 30
0.0
 40
0.00208333
 41
0.00208333
  0
VERTEX
  8
0
 10
8.60747
 20
4.99414
 30
0.0
 40
0.00208333
 41
0.00208333
  0
VERTEX
  8
0
 10
8.60747
 20
4.27067
 30
0.0
 40
0.00208333
 41
0.00208333
  0
VERTEX
  8
0
 10
6.57878
 20
4.27067
 30
0.0
 40
0.00208333
 41
0.00208333
  0
VERTEX
  8
0
 10
6.57878
 20
6.021
 30
0.0
 40
0.00208333
 41
0.00208333
  0
VERTEX
  8
0
 10
8.60747
 20
6.021
 30
0.0
 40
0.00208333
 41
0.00208333
  0
VERTEX
  8
0
 10
8.60747
 20
5.87299
 30
0.0
 40
0.00208333
 41
0.00208333
  0
SEQEND
 8
0
  0
TEXT
  8
0
 62
     0
 10
7.44201
 20
4.93218
 30
0.0
 40
0.34375
  1
TK
 50
0
  0
POLYLINE
  8
0
 62
     7
 66
     1
 10
0
 20
0
 30
0.0
 70
     1
 40
0
 41
0
  0
VERTEX
  8
0
 10
10.7857
 20
5.87538
 30
0.0
 40
0
 41
0
  0
VERTEX
  8
0
 10
10.8458
 20
5.87538
 30
0.0
 40
0
 41
0
  0
VERTEX
  8
0
 10
10.8458
 20
4.99858
 30
0.0
 40
0
 41
0
  0
VERTEX
  8
0
 10
10.7857
 20
4.99858
 30
0.0
 40
0
 41
0
  0
VERTEX
  8
0
 10
10.7857
 20
4.12392
 30
0.0
 40
0
 41
0
  0
VERTEX
  8
0
 10
9.87739
 20
4.12392
 30
0.0
 40
0
 41
0
  0
VERTEX
  8
0
 10
9.87739
 20
4.05067
 30
0.0
 40
0
 41
0
  0
VERTEX
  8
0
 10
9.08919
 20
4.05067
 30
0.0
 40
0
 41
0
  0
VERTEX
  8
0
 10
9.08919
 20
4.12392
 30
0.0
 40
0
 41
0
  0
VERTEX
  8
0
 10
8.78456
 20
4.12392
 30
0.0
 40
0
 41
0
  0
VERTEX
  8
0
 10
8.78456
 20
4.99414
 30
0.0
 40
0
 41
0
  0
VERTEX
  8
0
 10
8.67774
 20
4.99414
 30
0.0
 40
0
 41
0
  0
VERTEX
  8
0
 10
8.67774
 20
5.87299
 30
0.0
 40
0
 41
0
  0
VERTEX
  8
0
 10
8.78456
 20
5.87299
 30
0.0
 40
0
 41
0
  0
VERTEX
  8
0
 10
8.78456
 20
6.021
 30
0.0
 40
0
 41
0
  0
VERTEX
  8
0
 10
10.7857
 20
6.021
 30
0.0
 40
0
 41
0
  0
VERTEX
  8
0
 10
10.7857
 20
5.87538
 30
0.0
 40
0
 41
0
  0
SEQEND
 8
0
  0
POLYLINE
  8
0
 62
     7
 66
     1
 10
0
 20
0
 30
0.0
 70
     1
 40
0.15
 41
0.15
  0
VERTEX
  8
0
 10
10.7857
 20
5.87538
 30
0.0
 40
0.00208333
 41
0.00208333
  0
VERTEX
  8
0
 10
10.8458
 20
5.87538
 30
0.0
 40
0.00208333
 41
0.00208333
  0
VERTEX
  8
0
 10
10.8458
 20
4.99858
 30
0.0
 40
0.00208333
 41
0.00208333
  0
VERTEX
  8
0
 10
10.7857
 20
4.99858
 30
0.0
 40
0.00208333
 41
0.00208333
  0
VERTEX
  8
0
 10
10.7857
 20
4.12392
 30
0.0
 40
0.00208333
 41
0.00208333
  0
VERTEX
  8
0
 10
9.87739
 20
4.12392
 30
0.0
 40
0.00208333
 41
0.00208333
  0
VERTEX
  8
0
 10
9.87739
 20
4.05067
 30
0.0
 40
0.00208333
 41
0.00208333
  0
VERTEX
  8
0
 10
9.08919
 20
4.05067
 30
0.0
 40
0.00208333
 41
0.00208333
  0
VERTEX
  8
0
 10
9.08919
 20
4.12392
 30
0.0
 40
0.00208333
 41
0.00208333
  0
VERTEX
  8
0
 10
8.78456
 20
4.12392
 30
0.0
 40
0.00208333
 41
0.00208333
  0
VERTEX
  8
0
 10
8.78456
 20
4.99414
 30
0.0
 40
0.00208333
 41
0.00208333
  0
VERTEX
  8
0
 10
8.67774
 20
4.99414
 30
0.0
 40
0.00208333
 41
0.00208333
  0
VERTEX
  8
0
 10
8.67774
 20
5.87299
 30
0.0
 40
0.00208333
 41
0.00208333
  0
VERTEX
  8
0
 10
8.78456
 20
5.87299
 30
0.0
 40
0.00208333
 41
0.00208333
  0
VERTEX
  8
0
 10
8.78456
 20
6.021
 30
0.0
 40
0.00208333
 41
0.00208333
  0
VERTEX
  8
0
 10
10.7857
 20
6.021
 30
0.0
 40
0.00208333
 41
0.00208333
  0
VERTEX
  8
0
 10
10.7857
 20
5.87538
 30
0.0
 40
0.00208333
 41
0.00208333
  0
SEQEND
 8
0
  0
TEXT
  8
0
 62
     0
 10
9.589
 20
4.87671
 30
0.0
 40
0.34375
  1
ET
 50
0
  0
POLYLINE
  8
0
 62
     7
 66
     1
 10
0
 20
0
 30
0.0
 70
     1
 40
0
 41
0
  0
VERTEX
  8
0
 10
13.0221
 20
7.51497
 30
0.0
 40
0
 41
0
  0
VERTEX
  8
0
 10
14.8003
 20
7.51497
 30
0.0
 40
0
 41
0
  0
VERTEX
  8
0
 10
14.8003
 20
4.12392
 30
0.0
 40
0
 41
0
  0
VERTEX
  8
0
 10
13.8465
 20
4.12392
 30
0.0
 40
0
 41
0
  0
VERTEX
  8
0
 10
13.8465
 20
4.05067
 30
0.0
 40
0
 41
0
  0
VERTEX
  8
0
 10
12.8883
 20
4.05067
 30
0.0
 40
0
 41
0
  0
VERTEX
  8
0
 10
12.8883
 20
4.12392
 30
0.0
 40
0
 41
0
  0
VERTEX
  8
0
 10
10.9003
 20
4.12392
 30
0.0
 40
0
 41
0
  0
VERTEX
  8
0
 10
10.9003
 20
4.99858
 30
0.0
 40
0
 41
0
  0
VERTEX
  8
0
 10
10.8458
 20
4.99858
 30
0.0
 40
0
 41
0
  0
VERTEX
  8
0
 10
10.8458
 20
5.87538
 30
0.0
 40
0
 41
0
  0
VERTEX
  8
0
 10
10.9003
 20
5.87538
 30
0.0
 40
0
 41
0
  0
VERTEX
  8
0
 10
10.9003
 20
7.51497
 30
0.0
 40
0
 41
0
  0
VERTEX
  8
0
 10
12.0766
 20
7.51497
 30
0.0
 40
0
 41
0
  0
VERTEX
  8
0
 10
12.0766
 20
7.5981
 30
0.0
 40
0
 41
0
  0
VERTEX
  8
0
 10
13.0221
 20
7.5981
 30
0.0
 40
0
 41
0
  0
VERTEX
  8
0
 10
13.0221
 20
7.51497
 30
0.0
 40
0
 41
0
  0
SEQEND
 8
0
  0
POLYLINE
  8
0
 62
     7
 66
     1
 10
0
 20
0
 30
0.0
 70
     1
 40
0.15
 41
0.15
  0
VERTEX
  8
0
 10
13.0221
 20
7.51497
 30
0.0
 40
0.00208333
 41
0.00208333
  0
VERTEX
  8
0
 10
14.8003
 20
7.51497
 30
0.0
 40
0.00208333
 41
0.00208333
  0
VERTEX
  8
0
 10
14.8003
 20
4.12392
 30
0.0
 40
0.00208333
 41
0.00208333
  0
VERTEX
  8
0
 10
13.8465
 20
4.12392
 30
0.0
 40
0.00208333
 41
0.00208333
  0
VERTEX
  8
0
 10
13.8465
 20
4.05067
 30
0.0
 40
0.00208333
 41
0.00208333
  0
VERTEX
  8
0
 10
12.8883
 20
4.05067
 30
0.0
 40
0.00208333
 41
0.00208333
  0
VERTEX
  8
0
 10
12.8883
 20
4.12392
 30
0.0
 40
0.00208333
 41
0.00208333
  0
VERTEX
  8
0
 10
10.9003
 20
4.12392
 30
0.0
 40
0.00208333
 41
0.00208333
  0
VERTEX
  8
0
 10
10.9003
 20
4.99858
 30
0.0
 40
0.00208333
 41
0.00208333
  0
VERTEX
  8
0
 10
10.8458
 20
4.99858
 30
0.0
 40
0.00208333
 41
0.00208333
  0
VERTEX
  8
0
 10
10.8458
 20
5.87538
 30
0.0
 40
0.00208333
 41
0.00208333
  0
VERTEX
  8
0
 10
10.9003
 20
5.87538
 30
0.0
 40
0.00208333
 41
0.00208333
  0
VERTEX
  8
0
 10
10.9003
 20
7.51497
 30
0.0
 40
0.00208333
 41
0.00208333
  0
VERTEX
  8
0
 10
12.0766
 20
7.51497
 30
0.0
 40
0.00208333
 41
0.00208333
  0
VERTEX
  8
0
 10
12.0766
 20
7.5981
 30
0.0
 40
0.00208333
 41
0.00208333
  0
VERTEX
  8
0
 10
13.0221
 20
7.5981
 30
0.0
 40
0.00208333
 41
0.00208333
  0
VERTEX
  8
0
 10
13.0221
 20
7.51497
 30
0.0
 40
0.00208333
 41
0.00208333
  0
SEQEND
 8
0
  0
TEXT
  8
0
 62
     0
 10
12.7637
 20
5.76281
 30
0.0
 40
0.34375
  1
K
 50
0
  0
POLYLINE
  8
0
 62
     7
 66
     1
 10
0
 20
0
 30
0.0
 70
     1
 40
0
 41
0
  0
VERTEX
  8
0
 10
14.9342
 20
7.68164
 30
0.0
 40
0
 41
0
  0
VERTEX
  8
0
 10
13.0221
 20
7.68164
 30
0.0
 40
0
 41
0
  0
VERTEX
  8
0
 10
13.0221
 20
7.5981
 30
0.0
 40
0
 41
0
  0
VERTEX
  8
0
 10
12.0766
 20
7.5981
 30
0.0
 40
0
 41
0
  0
VERTEX
  8
0
 10
12.0766
 20
7.68164
 30
0.0
 40
0
 41
0
  0
VERTEX
  8
0
 10
8.78456
 20
7.68164
 30
0.0
 40
0
 41
0
  0
VERTEX
  8
0
 10
8.78456
 20
11.7409
 30
0.0
 40
0
 41
0
  0
VERTEX
  8
0
 10
14.9342
 20
11.7409
 30
0.0
 40
0
 41
0
  0
VERTEX
  8
0
 10
14.9342
 20
7.68164
 30
0.0
 40
0
 41
0
  0
SEQEND
 8
0
  0
POLYLINE
  8
0
 62
     7
 66
     1
 10
0
 20
0
 30
0.0
 70
     1
 40
0.15
 41
0.15
  0
VERTEX
  8
0
 10
14.9342
 20
7.68164
 30
0.0
 40
0.00208333
 41
0.00208333
  0
VERTEX
  8
0
 10
13.0221
 20
7.68164
 30
0.0
 40
0.00208333
 41
0.00208333
  0
VERTEX
  8
0
 10
13.0221
 20
7.5981
 30
0.0
 40
0.00208333
 41
0.00208333
  0
VERTEX
  8
0
 10
12.0766
 20
7.5981
 30
0.0
 40
0.00208333
 41
0.00208333
  0
VERTEX
  8
0
 10
12.0766
 20
7.68164
 30
0.0
 40
0.00208333
 41
0.00208333
  0
VERTEX
  8
0
 10
8.78456
 20
7.68164
 30
0.0
 40
0.00208333
 41
0.00208333
  0
VERTEX
  8
0
 10
8.78456
 20
11.7409
 30
0.0
 40
0.00208333
 41
0.00208333
  0
VERTEX
  8
0
 10
14.9342
 20
11.7409
 30
0.0
 40
0.00208333
 41
0.00208333
  0
VERTEX
  8
0
 10
14.9342
 20
7.68164
 30
0.0
 40
0.00208333
 41
0.00208333
  0
SEQEND
 8
0
  0
TEXT
  8
0
 62
     0
 10
12.053
 20
9.85308
 30
0.0
 40
0.34375
  1
OH
 50
0
  0
POLYLINE
  8
0
 62
     7
 66
     1
 10
0
 20
0
 30
0.0
 70
     1
 40
0
 41
0
  0
VERTEX
  8
0
 10
9.87739
 20
3.97808
 30
0.0
 40
0
 41
0
  0
VERTEX
  8
0
 10
12.2071
 20
3.97808
 30
0.0
 40
0
 41
0
  0
VERTEX
  8
0
 10
12.2071
 20
0.158311
 30
0.0
 40
0
 41
0
  0
VERTEX
  8
0
 10
8.78456
 20
0.158311
 30
0.0
 40
0
 41
0
  0
VERTEX
  8
0
 10
8.78456
 20
3.97808
 30
0.0
 40
0
 41
0
  0
VERTEX
  8
0
 10
9.08919
 20
3.97808
 30
0.0
 40
0
 41
0
  0
VERTEX
  8
0
 10
9.08919
 20
4.05067
 30
0.0
 40
0
 41
0
  0
VERTEX
  8
0
 10
9.87739
 20
4.05067
 30
0.0
 40
0
 41
0
  0
VERTEX
  8
0
 10
9.87739
 20
3.97808
 30
0.0
 40
0
 41
0
  0
SEQEND
 8
0
  0
POLYLINE
  8
0
 62
     7
 66
     1
 10
0
 20
0
 30
0.0
 70
     1
 40
0.15
 41
0.15
  0
VERTEX
  8
0
 10
9.87739
 20
3.97808
 30
0.0
 40
0.00208333
 41
0.00208333
  0
VERTEX
  8
0
 10
12.2071
 20
3.97808
 30
0.0
 40
0.00208333
 41
0.00208333
  0
VERTEX
  8
0
 10
12.2071
 20
0.158311
 30
0.0
 40
0.00208333
 41
0.00208333
  0
VERTEX
  8
0
 10
8.78456
 20
0.158311
 30
0.0
 40
0.00208333
 41
0.00208333
  0
VERTEX
  8
0
 10
8.78456
 20
3.97808
 30
0.0
 40
0.00208333
 41
0.00208333
  0
VERTEX
  8
0
 10
9.08919
 20
3.97808
 30
0.0
 40
0.00208333
 41
0.00208333
  0
VERTEX
  8
0
 10
9.08919
 20
4.05067
 30
0.0
 40
0.00208333
 41
0.00208333
  0
VERTEX
  8
0
 10
9.87739
 20
4.05067
 30
0.0
 40
0.00208333
 41
0.00208333
  0
VERTEX
  8
0
 10
9.87739
 20
3.97808
 30
0.0
 40
0.00208333
 41
0.00208333
  0
SEQEND
 8
0
  0
TEXT
  8
0
 62
     0
 10
10.254
 20
1.68494
 30
0.0
 40
0.34375
  1
MH
 50
0
  0
POLYLINE
  8
0
 62
     7
 66
     1
 10
0
 20
0
 30
0.0
 70
     1
 40
0
 41
0
  0
VERTEX
  8
0
 10
13.8465
 20
3.97808
 30
0.0
 40
0
 41
0
  0
VERTEX
  8
0
 10
14.8003
 20
3.97808
 30
0.0
 40
0
 41
0
  0
VERTEX
  8
0
 10
14.8003
 20
0.158311
 30
0.0
 40
0
 41
0
  0
VERTEX
  8
0
 10
12.3632
 20
0.158311
 30
0.0
 40
0
 41
0
  0
VERTEX
  8
0
 10
12.3632
 20
3.97808
 30
0.0
 40
0
 41
0
  0
VERTEX
  8
0
 10
12.8883
 20
3.97808
 30
0.0
 40
0
 41
0
  0
VERTEX
  8
0
 10
12.8883
 20
4.05067
 30
0.0
 40
0
 41
0
  0
VERTEX
  8
0
 10
13.8465
 20
4.05067
 30
0.0
 40
0
 41
0
  0
VERTEX
  8
0
 10
13.8465
 20
3.97808
 30
0.0
 40
0
 41
0
  0
SEQEND
 8
0
  0
POLYLINE
  8
0
 62
     7
 66
     1
 10
0
 20
0
 30
0.0
 70
     1
 40
0.15
 41
0.15
  0
VERTEX
  8
0
 10
13.8465
 20
3.97808
 30
0.0
 40
0.00208333
 41
0.00208333
  0
VERTEX
  8
0
 10
14.8003
 20
3.97808
 30
0.0
 40
0.00208333
 41
0.00208333
  0
VERTEX
  8
0
 10
14.8003
 20
0.158311
 30
0.0
 40
0.00208333
 41
0.00208333
  0
VERTEX
  8
0
 10
12.3632
 20
0.158311
 30
0.0
 40
0.00208333
 41
0.00208333
  0
VERTEX
  8
0
 10
12.3632
 20
3.97808
 30
0.0
 40
0.00208333
 41
0.00208333
  0
VERTEX
  8
0
 10
12.8883
 20
3.97808
 30
0.0
 40
0.00208333
 41
0.00208333
  0
VERTEX
  8
0
 10
12.8883
 20
4.05067
 30
0.0
 40
0.00208333
 41
0.00208333
  0
VERTEX
  8
0
 10
13.8465
 20
4.05067
 30
0.0
 40
0.00208333
 41
0.00208333
  0
VERTEX
  8
0
 10
13.8465
 20
3.97808
 30
0.0
 40
0.00208333
 41
0.00208333
  0
SEQEND
 8
0
  0
TEXT
  8
0
 62
     0
 10
13.3072
 20
2.32006
 30
0.0
 40
0.34375
  1
MH
 50
0
  0
POLYLINE
  8
0
 62
     7
 66
     1
 10
0
 20
0
 30
0.0
 70
     1
 40
0
 41
0
  0
VERTEX
  8
0
 10
2.4025
 20
8.74582
 30
0.0
 40
0
 41
0
  0
VERTEX
  8
0
 10
6.43294
 20
8.74582
 30
0.0
 40
0
 41
0
  0
VERTEX
  8
0
 10
6.43294
 20
2.73068
 30
0.0
 40
0
 41
0
  0
VERTEX
  8
0
 10
2.4025
 20
2.73068
 30
0.0
 40
0
 41
0
  0
VERTEX
  8
0
 10
2.4025
 20
8.74582
 30
0.0
 40
0
 41
0
  0
SEQEND
 8
0
  0
POLYLINE
  8
0
 62
     7
 66
     1
 10
0
 20
0
 30
0.0
 70
     1
 40
0.15
 41
0.15
  0
VERTEX
  8
0
 10
2.4025
 20
8.74582
 30
0.0
 40
0.00208333
 41
0.00208333
  0
VERTEX
  8
0
 10
6.43294
 20
8.74582
 30
0.0
 40
0.00208333
 41
0.00208333
  0
VERTEX
  8
0
 10
6.43294
 20
2.73068
 30
0.0
 40
0.00208333
 41
0.00208333
  0
VERTEX
  8
0
 10
2.4025
 20
2.73068
 30
0.0
 40
0.00208333
 41
0.00208333
  0
VERTEX
  8
0
 10
2.4025
 20
8.74582
 30
0.0
 40
0.00208333
 41
0.00208333
  0
SEQEND
 8
0
  0
TEXT
  8
0
 62
     0
 10
3.35992
 20
5.9015
 30
0.0
 40
0.34375
  1
A
 50
0
  0
TEXT
  8
0
 62
     0
 10
3.59317
 20
5.9015
 30
0.0
 40
0.34375
  1
UT
 50
0
  0
TEXT
  8
0
 62
     0
 10
4.04831
 20
5.9015
 30
0.0
 40
0.34375
  1
OSUOJ
 50
0
  0
TEXT
  8
0
 62
     0
 10
5.2305
 20
5.9015
 30
0.0
 40
0.34375
  1
A
 50
0
  0
POLYLINE
  8
0
 62
     7
 66
     1
 10
0
 20
0
 30
0.0
 70
     1
 40
0
 41
0
  0
VERTEX
  8
0
 10
2.4025
 20
11.7409
 30
0.0
 40
0
 41
0
  0
VERTEX
  8
0
 10
6.43294
 20
11.7409
 30
0.0
 40
0
 41
0
  0
VERTEX
  8
0
 10
6.43294
 20
8.89165
 30
0.0
 40
0
 41
0
  0
VERTEX
  8
0
 10
2.4025
 20
8.89165
 30
0.0
 40
0
 41
0
  0
VERTEX
  8
0
 10
2.4025
 20
11.7409
 30
0.0
 40
0
 41
0
  0
SEQEND
 8
0
  0
POLYLINE
  8
0
 62
     7
 66
     1
 10
0
 20
0
 30
0.0
 70
     1
 40
0.15
 41
0.15
  0
VERTEX
  8
0
 10
2.4025
 20
11.7409
 30
0.0
 40
0.00208333
 41
0.00208333
  0
VERTEX
  8
0
 10
6.43294
 20
11.7409
 30
0.0
 40
0.00208333
 41
0.00208333
  0
VERTEX
  8
0
 10
6.43294
 20
8.89165
 30
0.0
 40
0.00208333
 41
0.00208333
  0
VERTEX
  8
0
 10
2.4025
 20
8.89165
 30
0.0
 40
0.00208333
 41
0.00208333
  0
VERTEX
  8
0
 10
2.4025
 20
11.7409
 30
0.0
 40
0.00208333
 41
0.00208333
  0
SEQEND
 8
0
  0
TEXT
  8
0
 62
     0
 10
4.13992
 20
10.2842
 30
0.0
 40
0.34375
  1
V
 50
0
  0
TEXT
  8
0
 62
     0
 10
4.36492
 20
10.2842
 30
0.0
 40
0.34375
  1
AR
 50
0
  0
POLYLINE
  8
0
 62
     7
 66
     1
 10
0
 20
0
 30
0.0
 70
     1
 40
0
 41
0
  0
VERTEX
  8
0
 10
6.57878
 20
9.8929
 30
0.0
 40
0
 41
0
  0
VERTEX
  8
0
 10
8.60747
 20
9.8929
 30
0.0
 40
0
 41
0
  0
VERTEX
  8
0
 10
8.60747
 20
7.68164
 30
0.0
 40
0
 41
0
  0
VERTEX
  8
0
 10
6.57878
 20
7.68164
 30
0.0
 40
0
 41
0
  0
VERTEX
  8
0
 10
6.57878
 20
9.8929
 30
0.0
 40
0
 41
0
  0
SEQEND
 8
0
  0
POLYLINE
  8
0
 62
     7
 66
     1
 10
0
 20
0
 30
0.0
 70
     1
 40
0.15
 41
0.15
  0
VERTEX
  8
0
 10
6.57878
 20
9.8929
 30
0.0
 40
0.00208333
 41
0.00208333
  0
VERTEX
  8
0
 10
8.60747
 20
9.8929
 30
0.0
 40
0.00208333
 41
0.00208333
  0
VERTEX
  8
0
 10
8.60747
 20
7.68164
 30
0.0
 40
0.00208333
 41
0.00208333
  0
VERTEX
  8
0
 10
6.57878
 20
7.68164
 30
0.0
 40
0.00208333
 41
0.00208333
  0
VERTEX
  8
0
 10
6.57878
 20
9.8929
 30
0.0
 40
0.00208333
 41
0.00208333
  0
SEQEND
 8
0
  0
TEXT
  8
0
 62
     0
 10
7.19783
 20
8.53663
 30
0.0
 40
0.34375
  1
PESU
 50
0
  0
POLYLINE
  8
0
 62
     7
 66
     1
 10
0
 20
0
 30
0.0
 70
     1
 40
0
 41
0
  0
VERTEX
  8
0
 10
8.60747
 20
10.236
 30
0.0
 40
0
 41
0
  0
VERTEX
  8
0
 10
8.24832
 20
10.236
 30
0.0
 40
0
 41
0
  0
VERTEX
  8
0
 10
8.24832
 20
10.0387
 30
0.0
 40
0
 41
0
  0
VERTEX
  8
0
 10
6.57878
 20
10.0387
 30
0.0
 40
0
 41
0
  0
VERTEX
  8
0
 10
6.57878
 20
11.7409
 30
0.0
 40
0
 41
0
  0
VERTEX
  8
0
 10
8.60747
 20
11.7409
 30
0.0
 40
0
 41
0
  0
VERTEX
  8
0
 10
8.60747
 20
10.236
 30
0.0
 40
0
 41
0
  0
SEQEND
 8
0
  0
POLYLINE
  8
0
 62
     7
 66
     1
 10
0
 20
0
 30
0.0
 70
     1
 40
0.15
 41
0.15
  0
VERTEX
  8
0
 10
8.60747
 20
10.236
 30
0.0
 40
0.00208333
 41
0.00208333
  0
VERTEX
  8
0
 10
8.24832
 20
10.236
 30
0.0
 40
0.00208333
 41
0.00208333
  0
VERTEX
  8
0
 10
8.24832
 20
10.0387
 30
0.0
 40
0.00208333
 41
0.00208333
  0
VERTEX
  8
0
 10
6.57878
 20
10.0387
 30
0.0
 40
0.00208333
 41
0.00208333
  0
VERTEX
  8
0
 10
6.57878
 20
11.7409
 30
0.0
 40
0.00208333
 41
0.00208333
  0
VERTEX
  8
0
 10
8.60747
 20
11.7409
 30
0.0
 40
0.00208333
 41
0.00208333
  0
VERTEX
  8
0
 10
8.60747
 20
10.236
 30
0.0
 40
0.00208333
 41
0.00208333
  0
SEQEND
 8
0
  0
TEXT
  8
0
 62
     0
 10
7.42983
 20
10.8898
 30
0.0
 40
0.34375
  1
UNDEFINED
 50
0
  0
POLYLINE
  8
0
 62
     7
 66
     1
 10
0
 20
0
 30
0.0
 70
     1
 40
0
 41
0
  0
VERTEX
  8
0
 10
6.57878
 20
7.51497
 30
0.0
 40
0
 41
0
  0
VERTEX
  8
0
 10
8.60747
 20
7.51497
 30
0.0
 40
0
 41
0
  0
VERTEX
  8
0
 10
8.60747
 20
6.18767
 30
0.0
 40
0
 41
0
  0
VERTEX
  8
0
 10
6.57878
 20
6.18767
 30
0.0
 40
0
 41
0
  0
VERTEX
  8
0
 10
6.57878
 20
7.51497
 30
0.0
 40
0
 41
0
  0
SEQEND
 8
0
  0
POLYLINE
  8
0
 62
     7
 66
     1
 10
0
 20
0
 30
0.0
 70
     1
 40
0.15
 41
0.15
  0
VERTEX
  8
0
 10
6.57878
 20
7.51497
 30
0.0
 40
0.00208333
 41
0.00208333
  0
VERTEX
  8
0
 10
8.60747
 20
7.51497
 30
0.0
 40
0.00208333
 41
0.00208333
  0
VERTEX
  8
0
 10
8.60747
 20
6.18767
 30
0.0
 40
0.00208333
 41
0.00208333
  0
VERTEX
  8
0
 10
6.57878
 20
6.18767
 30
0.0
 40
0.00208333
 41
0.00208333
  0
VERTEX
  8
0
 10
6.57878
 20
7.51497
 30
0.0
 40
0.00208333
 41
0.00208333
  0
SEQEND
 8
0
  0
TEXT
  8
0
 62
     0
 10
7.54154
 20
6.58421
 30
0.0
 40
0.34375
  1
PH
 50
0
  0
POLYLINE
  8
0
 62
     7
 66
     1
 10
0
 20
0
 30
0.0
 70
     1
 40
0
 41
0
  0
VERTEX
  8
0
 10
8.78456
 20
7.51497
 30
0.0
 40
0
 41
0
  0
VERTEX
  8
0
 10
10.7857
 20
7.51497
 30
0.0
 40
0
 41
0
  0
VERTEX
  8
0
 10
10.7857
 20
6.18767
 30
0.0
 40
0
 41
0
  0
VERTEX
  8
0
 10
8.78456
 20
6.18767
 30
0.0
 40
0
 41
0
  0
VERTEX
  8
0
 10
8.78456
 20
7.51497
 30
0.0
 40
0
 41
0
  0
SEQEND
 8
0
  0
POLYLINE
  8
0
 62
     7
 66
     1
 10
0
 20
0
 30
0.0
 70
     1
 40
0.15
 41
0.15
  0
VERTEX
  8
0
 10
8.78456
 20
7.51497
 30
0.0
 40
0.00208333
 41
0.00208333
  0
VERTEX
  8
0
 10
10.7857
 20
7.51497
 30
0.0
 40
0.00208333
 41
0.00208333
  0
VERTEX
  8
0
 10
10.7857
 20
6.18767
 30
0.0
 40
0.00208333
 41
0.00208333
  0
VERTEX
  8
0
 10
8.78456
 20
6.18767
 30
0.0
 40
0.00208333
 41
0.00208333
  0
VERTEX
  8
0
 10
8.78456
 20
7.51497
 30
0.0
 40
0.00208333
 41
0.00208333
  0
SEQEND
 8
0
  0
TEXT
  8
0
 62
     0
 10
9.44825
 20
6.85131
 30
0.0
 40
0.34375
  1
UNDEFINED
 50
0
  0
POLYLINE
  8
0
 62
     0
 66
     1
 10
0
 20
0
 30
0.0
 70
     1
 40
0
 41
0
  0
VERTEX
  8
0
 10
2.22542
 20
2.57443
 30
0.0
 40
0
 41
0
  0
VERTEX
  8
0
 10
6.60092
 20
2.57443
 30
0.0
 40
0
 41
0
  0
VERTEX
  8
0
 10
6.43294
 20
2.73068
 30
0.0
 40
0
 41
0
  0
VERTEX
  8
0
 10
2.4025
 20
2.73068
 30
0.0
 40
0
 41
0
  0
VERTEX
  8
0
 10
2.22542
 20
2.57443
 30
0.0
 40
0
 41
0
  0
SEQEND
 8
0
  0
POLYLINE
  8
0
 62
     0
 66
     1
 10
0
 20
0
 30
0.0
 70
     1
 40
0.15
 41
0.15
  0
VERTEX
  8
0
 10
2.22542
 20
2.57443
 30
0.0
 40
0.00208333
 41
0.00208333
  0
VERTEX
  8
0
 10
6.60092
 20
2.57443
 30
0.0
 40
0.00208333
 41
0.00208333
  0
VERTEX
  8
0
 10
6.43294
 20
2.73068
 30
0.0
 40
0.00208333
 41
0.00208333
  0
VERTEX
  8
0
 10
2.4025
 20
2.73068
 30
0.0
 40
0.00208333
 41
0.00208333
  0
VERTEX
  8
0
 10
2.22542
 20
2.57443
 30
0.0
 40
0.00208333
 41
0.00208333
  0
SEQEND
 8
0
  0
POLYLINE
  8
0
 62
     7
 66
     1
 10
0
 20
0
 30
0.0
 70
     1
 40
0
 41
0
  0
VERTEX
  8
0
 10
3.15136
 20
2.73068
 30
0.0
 40
0
 41
0
  0
VERTEX
  8
0
 10
5.73096
 20
2.73068
 30
0.0
 40
0
 41
0
  0
VERTEX
  8
0
 10
5.73096
 20
2.57443
 30
0.0
 40
0
 41
0
  0
VERTEX
  8
0
 10
3.15136
 20
2.57443
 30
0.0
 40
0
 41
0
  0
VERTEX
  8
0
 10
3.15136
 20
2.73068
 30
0.0
 40
0
 41
0
  0
SEQEND
 8
0
  0
POLYLINE
  8
0
 62
     0
 66
     1
 10
0
 20
0
 30
0.0
 70
     1
 40
0.75
 41
0.75
  0
VERTEX
  8
0
 10
3.15136
 20
2.73068
 30
0.0
 40
0.0104167
 41
0.0104167
  0
VERTEX
  8
0
 10
5.73096
 20
2.73068
 30
0.0
 40
0.0104167
 41
0.0104167
  0
VERTEX
  8
0
 10
5.73096
 20
2.57443
 30
0.0
 40
0.0104167
 41
0.0104167
  0
VERTEX
  8
0
 10
3.15136
 20
2.57443
 30
0.0
 40
0.0104167
 41
0.0104167
  0
VERTEX
  8
0
 10
3.15136
 20
2.73068
 30
0.0
 40
0.0104167
 41
0.0104167
  0
SEQEND
 8
0
  0
POLYLINE
  8
0
 62
     7
 66
     1
 10
0
 20
0
 30
0.0
 70
     1
 40
0
 41
0
  0
VERTEX
  8
0
 10
3.15136
 20
2.73068
 30
0.0
 40
0
 41
0
  0
VERTEX
  8
0
 10
5.73096
 20
2.73068
 30
0.0
 40
0
 41
0
  0
VERTEX
  8
0
 10
5.73096
 20
2.57443
 30
0.0
 40
0
 41
0
  0
VERTEX
  8
0
 10
3.15136
 20
2.57443
 30
0.0
 40
0
 41
0
  0
VERTEX
  8
0
 10
3.15136
 20
2.73068
 30
0.0
 40
0
 41
0
  0
SEQEND
 8
0
  0
POLYLINE
  8
0
 62
     0
 66
     1
 10
0
 20
0
 30
0.0
 70
     1
 40
0.75
 41
0.75
  0
VERTEX
  8
0
 10
3.15136
 20
2.73068
 30
0.0
 40
0.0104167
 41
0.0104167
  0
VERTEX
  8
0
 10
5.73096
 20
2.73068
 30
0.0
 40
0.0104167
 41
0.0104167
  0
VERTEX
  8
0
 10
5.73096
 20
2.57443
 30
0.0
 40
0.0104167
 41
0.0104167
  0
VERTEX
  8
0
 10
3.15136
 20
2.57443
 30
0.0
 40
0.0104167
 41
0.0104167
  0
VERTEX
  8
0
 10
3.15136
 20
2.73068
 30
0.0
 40
0.0104167
 41
0.0104167
  0
SEQEND
 8
0
  0
POLYLINE
  8
0
 62
     0
 66
     1
 10
0
 20
0
 30
0.0
 70
     1
 40
0.75
 41
0.75
  0
VERTEX
  8
0
 10
4.44114
 20
2.57443
 30
0.0
 40
0.0104167
 41
0.0104167
  0
VERTEX
  8
0
 10
4.44114
 20
2.49892
 30
0.0
 40
0.0104167
 41
0.0104167
  0
VERTEX
  8
0
 10
4.42096
 20
2.27219
 30
0.0
 40
0.0104167
 41
0.0104167
  0
VERTEX
  8
0
 10
4.36051
 20
2.01019
 30
0.0
 40
0.0104167
 41
0.0104167
  0
VERTEX
  8
0
 10
4.25976
 20
1.78851
 30
0.0
 40
0.0104167
 41
0.0104167
  0
VERTEX
  8
0
 10
4.11865
 20
1.60715
 30
0.0
 40
0.0104167
 41
0.0104167
  0
VERTEX
  8
0
 10
3.93728
 20
1.46604
 30
0.0
 40
0.0104167
 41
0.0104167
  0
VERTEX
  8
0
 10
3.7156
 20
1.36529
 30
0.0
 40
0.0104167
 41
0.0104167
  0
VERTEX
  8
0
 10
3.45361
 20
1.30485
 30
0.0
 40
0.0104167
 41
0.0104167
  0
VERTEX
  8
0
 10
3.22689
 20
1.28467
 30
0.0
 40
0.0104167
 41
0.0104167
  0
VERTEX
  8
0
 10
3.15136
 20
1.28467
 30
0.0
 40
0.0104167
 41
0.0104167
  0
VERTEX
  8
0
 10
3.15136
 20
2.57443
 30
0.0
 40
0.0104167
 41
0.0104167
  0
VERTEX
  8
0
 10
4.44114
 20
2.57443
 30
0.0
 40
0.0104167
 41
0.0104167
  0
SEQEND
 8
0
  0
POLYLINE
  8
0
 62
     0
 66
     1
 10
0
 20
0
 30
0.0
 70
     1
 40
0.75
 41
0.75
  0
VERTEX
  8
0
 10
4.44114
 20
2.57443
 30
0.0
 40
0.0104167
 41
0.0104167
  0
VERTEX
  8
0
 10
4.44114
 20
2.49892
 30
0.0
 40
0.0104167
 41
0.0104167
  0
VERTEX
  8
0
 10
4.46126
 20
2.27219
 30
0.0
 40
0.0104167
 41
0.0104167
  0
VERTEX
  8
0
 10
4.52171
 20
2.01019
 30
0.0
 40
0.0104167
 41
0.0104167
  0
VERTEX
  8
0
 10
4.6225
 20
1.78851
 30
0.0
 40
0.0104167
 41
0.0104167
  0
VERTEX
  8
0
 10
4.76357
 20
1.60715
 30
0.0
 40
0.0104167
 41
0.0104167
  0
VERTEX
  8
0
 10
4.94493
 20
1.46604
 30
0.0
 40
0.0104167
 41
0.0104167
  0
VERTEX
  8
0
 10
5.16667
 20
1.36529
 30
0.0
 40
0.0104167
 41
0.0104167
  0
VERTEX
  8
0
 10
5.42865
 20
1.30485
 30
0.0
 40
0.0104167
 41
0.0104167
  0
VERTEX
  8
0
 10
5.65539
 20
1.28467
 30
0.0
 40
0.0104167
 41
0.0104167
  0
VERTEX
  8
0
 10
5.73096
 20
1.28467
 30
0.0
 40
0.0104167
 41
0.0104167
  0
VERTEX
  8
0
 10
5.73096
 20
2.57443
 30
0.0
 40
0.0104167
 41
0.0104167
  0
VERTEX
  8
0
 10
4.44114
 20
2.57443
 30
0.0
 40
0.0104167
 41
0.0104167
  0
SEQEND
 8
0
  0
POLYLINE
  8
0
 62
     0
 66
     1
 10
0
 20
0
 30
0.0
 70
     1
 40
0
 41
0
  0
VERTEX
  8
0
 10
6.60092
 20
4.11442
 30
0.0
 40
0
 41
0
  0
VERTEX
  8
0
 10
8.62831
 20
4.11442
 30
0.0
 40
0
 41
0
  0
VERTEX
  8
0
 10
8.78456
 20
4.27067
 30
0.0
 40
0
 41
0
  0
VERTEX
  8
0
 10
6.43294
 20
4.27067
 30
0.0
 40
0
 41
0
  0
VERTEX
  8
0
 10
6.60092
 20
4.11442
 30
0.0
 40
0
 41
0
  0
SEQEND
 8
0
  0
POLYLINE
  8
0
 62
     0
 66
     1
 10
0
 20
0
 30
0.0
 70
     1
 40
0.15
 41
0.15
  0
VERTEX
  8
0
 10
6.60092
 20
4.11442
 30
0.0
 40
0.00208333
 41
0.00208333
  0
VERTEX
  8
0
 10
8.62831
 20
4.11442
 30
0.0
 40
0.00208333
 41
0.00208333
  0
VERTEX
  8
0
 10
8.78456
 20
4.27067
 30
0.0
 40
0.00208333
 41
0.00208333
  0
VERTEX
  8
0
 10
6.43294
 20
4.27067
 30
0.0
 40
0.00208333
 41
0.00208333
  0
VERTEX
  8
0
 10
6.60092
 20
4.11442
 30
0.0
 40
0.00208333
 41
0.00208333
  0
SEQEND
 8
0
  0
POLYLINE
  8
0
 62
     7
 66
     1
 10
0
 20
0
 30
0.0
 70
     1
 40
0
 41
0
  0
VERTEX
  8
0
 10
6.93804
 20
4.27067
 30
0.0
 40
0
 41
0
  0
VERTEX
  8
0
 10
7.21907
 20
4.27067
 30
0.0
 40
0
 41
0
  0
VERTEX
  8
0
 10
7.21907
 20
4.11442
 30
0.0
 40
0
 41
0
  0
VERTEX
  8
0
 10
6.93804
 20
4.11442
 30
0.0
 40
0
 41
0
  0
VERTEX
  8
0
 10
6.93804
 20
4.27067
 30
0.0
 40
0
 41
0
  0
SEQEND
 8
0
  0
POLYLINE
  8
0
 62
     0
 66
     1
 10
0
 20
0
 30
0.0
 70
     1
 40
0.75
 41
0.75
  0
VERTEX
  8
0
 10
6.93804
 20
4.27067
 30
0.0
 40
0.0104167
 41
0.0104167
  0
VERTEX
  8
0
 10
7.21907
 20
4.27067
 30
0.0
 40
0.0104167
 41
0.0104167
  0
VERTEX
  8
0
 10
7.21907
 20
4.11442
 30
0.0
 40
0.0104167
 41
0.0104167
  0
VERTEX
  8
0
 10
6.93804
 20
4.11442
 30
0.0
 40
0.0104167
 41
0.0104167
  0
VERTEX
  8
0
 10
6.93804
 20
4.27067
 30
0.0
 40
0.0104167
 41
0.0104167
  0
SEQEND
 8
0
  0
POLYLINE
  8
0
 62
     7
 66
     1
 10
0
 20
0
 30
0.0
 70
     1
 40
0
 41
0
  0
VERTEX
  8
0
 10
6.93804
 20
4.27067
 30
0.0
 40
0
 41
0
  0
VERTEX
  8
0
 10
7.21907
 20
4.27067
 30
0.0
 40
0
 41
0
  0
VERTEX
  8
0
 10
7.21907
 20
4.11442
 30
0.0
 40
0
 41
0
  0
VERTEX
  8
0
 10
6.93804
 20
4.11442
 30
0.0
 40
0
 41
0
  0
VERTEX
  8
0
 10
6.93804
 20
4.27067
 30
0.0
 40
0
 41
0
  0
SEQEND
 8
0
  0
POLYLINE
  8
0
 62
     0
 66
     1
 10
0
 20
0
 30
0.0
 70
     1
 40
0.75
 41
0.75
  0
VERTEX
  8
0
 10
6.93804
 20
4.27067
 30
0.0
 40
0.0104167
 41
0.0104167
  0
VERTEX
  8
0
 10
7.21907
 20
4.27067
 30
0.0
 40
0.0104167
 41
0.0104167
  0
VERTEX
  8
0
 10
7.21907
 20
4.11442
 30
0.0
 40
0.0104167
 41
0.0104167
  0
VERTEX
  8
0
 10
6.93804
 20
4.11442
 30
0.0
 40
0.0104167
 41
0.0104167
  0
VERTEX
  8
0
 10
6.93804
 20
4.27067
 30
0.0
 40
0.0104167
 41
0.0104167
  0
SEQEND
 8
0
  0
POLYLINE
  8
0
 62
     0
 66
     1
 10
0
 20
0
 30
0.0
 40
0.75
 41
0.75
  0
VERTEX
  8
0
 10
7.01617
 20
4.1926
 30
0.0
 40
0.0104167
 41
0.0104167
  0
VERTEX
  8
0
 10
7.14094
 20
4.1926
 30
0.0
 40
0.0104167
 41
0.0104167
  0
SEQEND
 8
0
  0
POLYLINE
  8
0
 62
     0
 66
     1
 10
0
 20
0
 30
0.0
 40
0.75
 41
0.75
  0
VERTEX
  8
0
 10
7.01617
 20
4.11447
 30
0.0
 40
0.0104167
 41
0.0104167
  0
VERTEX
  8
0
 10
7.01617
 20
4.27072
 30
0.0
 40
0.0104167
 41
0.0104167
  0
SEQEND
 8
0
  0
POLYLINE
  8
0
 62
     0
 66
     1
 10
0
 20
0
 30
0.0
 40
0.75
 41
0.75
  0
VERTEX
  8
0
 10
7.14094
 20
4.11447
 30
0.0
 40
0.0104167
 41
0.0104167
  0
VERTEX
  8
0
 10
7.14094
 20
4.27072
 30
0.0
 40
0.0104167
 41
0.0104167
  0
SEQEND
 8
0
  0
POLYLINE
  8
0
 62
     7
 66
     1
 10
0
 20
0
 30
0.0
 70
     1
 40
0
 41
0
  0
VERTEX
  8
0
 10
7.24511
 20
4.27067
 30
0.0
 40
0
 41
0
  0
VERTEX
  8
0
 10
8.18186
 20
4.27067
 30
0.0
 40
0
 41
0
  0
VERTEX
  8
0
 10
8.18186
 20
4.11442
 30
0.0
 40
0
 41
0
  0
VERTEX
  8
0
 10
7.24511
 20
4.11442
 30
0.0
 40
0
 41
0
  0
VERTEX
  8
0
 10
7.24511
 20
4.27067
 30
0.0
 40
0
 41
0
  0
SEQEND
 8
0
  0
POLYLINE
  8
0
 62
     0
 66
     1
 10
0
 20
0
 30
0.0
 70
     1
 40
0.75
 41
0.75
  0
VERTEX
  8
0
 10
7.24511
 20
4.27067
 30
0.0
 40
0.0104167
 41
0.0104167
  0
VERTEX
  8
0
 10
8.18186
 20
4.27067
 30
0.0
 40
0.0104167
 41
0.0104167
  0
VERTEX
  8
0
 10
8.18186
 20
4.11442
 30
0.0
 40
0.0104167
 41
0.0104167
  0
VERTEX
  8
0
 10
7.24511
 20
4.11442
 30
0.0
 40
0.0104167
 41
0.0104167
  0
VERTEX
  8
0
 10
7.24511
 20
4.27067
 30
0.0
 40
0.0104167
 41
0.0104167
  0
SEQEND
 8
0
  0
POLYLINE
  8
0
 62
     7
 66
     1
 10
0
 20
0
 30
0.0
 70
     1
 40
0
 41
0
  0
VERTEX
  8
0
 10
7.24511
 20
4.27067
 30
0.0
 40
0
 41
0
  0
VERTEX
  8
0
 10
8.18186
 20
4.27067
 30
0.0
 40
0
 41
0
  0
VERTEX
  8
0
 10
8.18186
 20
4.11442
 30
0.0
 40
0
 41
0
  0
VERTEX
  8
0
 10
7.24511
 20
4.11442
 30
0.0
 40
0
 41
0
  0
VERTEX
  8
0
 10
7.24511
 20
4.27067
 30
0.0
 40
0
 41
0
  0
SEQEND
 8
0
  0
POLYLINE
  8
0
 62
     0
 66
     1
 10
0
 20
0
 30
0.0
 70
     1
 40
0.75
 41
0.75
  0
VERTEX
  8
0
 10
7.24511
 20
4.27067
 30
0.0
 40
0.0104167
 41
0.0104167
  0
VERTEX
  8
0
 10
8.18186
 20
4.27067
 30
0.0
 40
0.0104167
 41
0.0104167
  0
VERTEX
  8
0
 10
8.18186
 20
4.11442
 30
0.0
 40
0.0104167
 41
0.0104167
  0
VERTEX
  8
0
 10
7.24511
 20
4.11442
 30
0.0
 40
0.0104167
 41
0.0104167
  0
VERTEX
  8
0
 10
7.24511
 20
4.27067
 30
0.0
 40
0.0104167
 41
0.0104167
  0
SEQEND
 8
0
  0
POLYLINE
  8
0
 62
     0
 66
     1
 10
0
 20
0
 30
0.0
 70
     1
 40
0.75
 41
0.75
  0
VERTEX
  8
0
 10
7.24511
 20
4.11442
 30
0.0
 40
0.0104167
 41
0.0104167
  0
VERTEX
  8
0
 10
7.24511
 20
4.05957
 30
0.0
 40
0.0104167
 41
0.0104167
  0
VERTEX
  8
0
 10
7.25971
 20
3.89492
 30
0.0
 40
0.0104167
 41
0.0104167
  0
VERTEX
  8
0
 10
7.30365
 20
3.70458
 30
0.0
 40
0.0104167
 41
0.0104167
  0
VERTEX
  8
0
 10
7.37679
 20
3.54363
 30
0.0
 40
0.0104167
 41
0.0104167
  0
VERTEX
  8
0
 10
7.47928
 20
3.41189
 30
0.0
 40
0.0104167
 41
0.0104167
  0
VERTEX
  8
0
 10
7.611
 20
3.3094
 30
0.0
 40
0.0104167
 41
0.0104167
  0
VERTEX
  8
0
 10
7.77197
 20
3.23628
 30
0.0
 40
0.0104167
 41
0.0104167
  0
VERTEX
  8
0
 10
7.96229
 20
3.19233
 30
0.0
 40
0.0104167
 41
0.0104167
  0
VERTEX
  8
0
 10
8.12696
 20
3.17768
 30
0.0
 40
0.0104167
 41
0.0104167
  0
VERTEX
  8
0
 10
8.18186
 20
3.17768
 30
0.0
 40
0.0104167
 41
0.0104167
  0
VERTEX
  8
0
 10
8.18186
 20
4.11442
 30
0.0
 40
0.0104167
 41
0.0104167
  0
VERTEX
  8
0
 10
7.24511
 20
4.11442
 30
0.0
 40
0.0104167
 41
0.0104167
  0
SEQEND
 8
0
  0
POLYLINE
  8
0
 62
     0
 66
     1
 10
0
 20
0
 30
0.0
 70
     1
 40
0
 41
0
  0
VERTEX
  8
0
 10
8.62831
 20
4.11442
 30
0.0
 40
0
 41
0
  0
VERTEX
  8
0
 10
8.62831
 20
0.00206164
 30
0.0
 40
0
 41
0
  0
VERTEX
  8
0
 10
8.78456
 20
0.158311
 30
0.0
 40
0
 41
0
  0
VERTEX
  8
0
 10
8.78456
 20
4.27067
 30
0.0
 40
0
 41
0
  0
VERTEX
  8
0
 10
8.62831
 20
4.11442
 30
0.0
 40
0
 41
0
  0
SEQEND
 8
0
  0
POLYLINE
  8
0
 62
     0
 66
     1
 10
0
 20
0
 30
0.0
 70
     1
 40
0.15
 41
0.15
  0
VERTEX
  8
0
 10
8.62831
 20
4.11442
 30
0.0
 40
0.00208333
 41
0.00208333
  0
VERTEX
  8
0
 10
8.62831
 20
0.00206164
 30
0.0
 40
0.00208333
 41
0.00208333
  0
VERTEX
  8
0
 10
8.78456
 20
0.158311
 30
0.0
 40
0.00208333
 41
0.00208333
  0
VERTEX
  8
0
 10
8.78456
 20
4.27067
 30
0.0
 40
0.00208333
 41
0.00208333
  0
VERTEX
  8
0
 10
8.62831
 20
4.11442
 30
0.0
 40
0.00208333
 41
0.00208333
  0
SEQEND
 8
0
  0
POLYLINE
  8
0
 62
     0
 66
     1
 10
0
 20
0
 30
0.0
 70
     1
 40
0
 41
0
  0
VERTEX
  8
0
 10
8.62831
 20
0.00206164
 30
0.0
 40
0
 41
0
  0
VERTEX
  8
0
 10
14.9565
 20
0.00206164
 30
0.0
 40
0
 41
0
  0
VERTEX
  8
0
 10
14.8003
 20
0.158311
 30
0.0
 40
0
 41
0
  0
VERTEX
  8
0
 10
8.78456
 20
0.158311
 30
0.0
 40
0
 41
0
  0
VERTEX
  8
0
 10
8.62831
 20
0.00206164
 30
0.0
 40
0
 41
0
  0
SEQEND
 8
0
  0
POLYLINE
  8
0
 62
     0
 66
     1
 10
0
 20
0
 30
0.0
 70
     1
 40
0.15
 41
0.15
  0
VERTEX
  8
0
 10
8.62831
 20
0.00206164
 30
0.0
 40
0.00208333
 41
0.00208333
  0
VERTEX
  8
0
 10
14.9565
 20
0.00206164
 30
0.0
 40
0.00208333
 41
0.00208333
  0
VERTEX
  8
0
 10
14.8003
 20
0.158311
 30
0.0
 40
0.00208333
 41
0.00208333
  0
VERTEX
  8
0
 10
8.78456
 20
0.158311
 30
0.0
 40
0.00208333
 41
0.00208333
  0
VERTEX
  8
0
 10
8.62831
 20
0.00206164
 30
0.0
 40
0.00208333
 41
0.00208333
  0
SEQEND
 8
0
  0
POLYLINE
  8
0
 62
     7
 66
     1
 10
0
 20
0
 30
0.0
 70
     1
 40
0
 41
0
  0
VERTEX
  8
0
 10
10.135
 20
0.158311
 30
0.0
 40
0
 41
0
  0
VERTEX
  8
0
 10
11.2681
 20
0.158311
 30
0.0
 40
0
 41
0
  0
VERTEX
  8
0
 10
11.2681
 20
0.00206164
 30
0.0
 40
0
 41
0
  0
VERTEX
  8
0
 10
10.135
 20
0.00206164
 30
0.0
 40
0
 41
0
  0
VERTEX
  8
0
 10
10.135
 20
0.158311
 30
0.0
 40
0
 41
0
  0
SEQEND
 8
0
  0
POLYLINE
  8
0
 62
     0
 66
     1
 10
0
 20
0
 30
0.0
 70
     1
 40
0.75
 41
0.75
  0
VERTEX
  8
0
 10
10.135
 20
0.158311
 30
0.0
 40
0.0104167
 41
0.0104167
  0
VERTEX
  8
0
 10
11.2681
 20
0.158311
 30
0.0
 40
0.0104167
 41
0.0104167
  0
VERTEX
  8
0
 10
11.2681
 20
0.00206164
 30
0.0
 40
0.0104167
 41
0.0104167
  0
VERTEX
  8
0
 10
10.135
 20
0.00206164
 30
0.0
 40
0.0104167
 41
0.0104167
  0
VERTEX
  8
0
 10
10.135
 20
0.158311
 30
0.0
 40
0.0104167
 41
0.0104167
  0
SEQEND
 8
0
  0
POLYLINE
  8
0
 62
     7
 66
     1
 10
0
 20
0
 30
0.0
 70
     1
 40
0
 41
0
  0
VERTEX
  8
0
 10
10.135
 20
0.158311
 30
0.0
 40
0
 41
0
  0
VERTEX
  8
0
 10
11.2681
 20
0.158311
 30
0.0
 40
0
 41
0
  0
VERTEX
  8
0
 10
11.2681
 20
0.00206164
 30
0.0
 40
0
 41
0
  0
VERTEX
  8
0
 10
10.135
 20
0.00206164
 30
0.0
 40
0
 41
0
  0
VERTEX
  8
0
 10
10.135
 20
0.158311
 30
0.0
 40
0
 41
0
  0
SEQEND
 8
0
  0
POLYLINE
  8
0
 62
     0
 66
     1
 10
0
 20
0
 30
0.0
 70
     1
 40
0.75
 41
0.75
  0
VERTEX
  8
0
 10
10.135
 20
0.158311
 30
0.0
 40
0.0104167
 41
0.0104167
  0
VERTEX
  8
0
 10
11.2681
 20
0.158311
 30
0.0
 40
0.0104167
 41
0.0104167
  0
VERTEX
  8
0
 10
11.2681
 20
0.00206164
 30
0.0
 40
0.0104167
 41
0.0104167
  0
VERTEX
  8
0
 10
10.135
 20
0.00206164
 30
0.0
 40
0.0104167
 41
0.0104167
  0
VERTEX
  8
0
 10
10.135
 20
0.158311
 30
0.0
 40
0.0104167
 41
0.0104167
  0
SEQEND
 8
0
  0
POLYLINE
  8
0
 62
     0
 66
     1
 10
0
 20
0
 30
0.0
 40
0.75
 41
0.75
  0
VERTEX
  8
0
 10
10.2132
 20
0.0801324
 30
0.0
 40
0.0104167
 41
0.0104167
  0
VERTEX
  8
0
 10
11.19
 20
0.0801324
 30
0.0
 40
0.0104167
 41
0.0104167
  0
SEQEND
 8
0
  0
POLYLINE
  8
0
 62
     0
 66
     1
 10
0
 20
0
 30
0.0
 40
0.75
 41
0.75
  0
VERTEX
  8
0
 10
10.2132
 20
0.00200737
 30
0.0
 40
0.0104167
 41
0.0104167
  0
VERTEX
  8
0
 10
10.2132
 20
0.158257
 30
0.0
 40
0.0104167
 41
0.0104167
  0
SEQEND
 8
0
  0
POLYLINE
  8
0
 62
     0
 66
     1
 10
0
 20
0
 30
0.0
 40
0.75
 41
0.75
  0
VERTEX
  8
0
 10
11.19
 20
0.00200737
 30
0.0
 40
0.0104167
 41
0.0104167
  0
VERTEX
  8
0
 10
11.19
 20
0.158257
 30
0.0
 40
0.0104167
 41
0.0104167
  0
SEQEND
 8
0
  0
POLYLINE
  8
0
 62
     0
 66
     1
 10
0
 20
0
 30
0.0
 70
     1
 40
0
 41
0
  0
VERTEX
  8
0
 10
14.9565
 20
0.00206164
 30
0.0
 40
0
 41
0
  0
VERTEX
  8
0
 10
14.9565
 20
7.49436
 30
0.0
 40
0
 41
0
  0
VERTEX
  8
0
 10
14.8003
 20
7.68164
 30
0.0
 40
0
 41
0
  0
VERTEX
  8
0
 10
14.8003
 20
0.158311
 30
0.0
 40
0
 41
0
  0
VERTEX
  8
0
 10
14.9565
 20
0.00206164
 30
0.0
 40
0
 41
0
  0
SEQEND
 8
0
  0
POLYLINE
  8
0
 62
     0
 66
     1
 10
0
 20
0
 30
0.0
 70
     1
 40
0.15
 41
0.15
  0
VERTEX
  8
0
 10
14.9565
 20
0.00206164
 30
0.0
 40
0.00208333
 41
0.00208333
  0
VERTEX
  8
0
 10
14.9565
 20
7.49436
 30
0.0
 40
0.00208333
 41
0.00208333
  0
VERTEX
  8
0
 10
14.8003
 20
7.68164
 30
0.0
 40
0.00208333
 41
0.00208333
  0
VERTEX
  8
0
 10
14.8003
 20
0.158311
 30
0.0
 40
0.00208333
 41
0.00208333
  0
VERTEX
  8
0
 10
14.9565
 20
0.00206164
 30
0.0
 40
0.00208333
 41
0.00208333
  0
SEQEND
 8
0
  0
POLYLINE
  8
0
 62
     7
 66
     1
 10
0
 20
0
 30
0.0
 70
     1
 40
0
 41
0
  0
VERTEX
  8
0
 10
14.8003
 20
2.58057
 30
0.0
 40
0
 41
0
  0
VERTEX
  8
0
 10
14.9565
 20
2.58057
 30
0.0
 40
0
 41
0
  0
VERTEX
  8
0
 10
14.9565
 20
1.48665
 30
0.0
 40
0
 41
0
  0
VERTEX
  8
0
 10
14.8003
 20
1.48665
 30
0.0
 40
0
 41
0
  0
VERTEX
  8
0
 10
14.8003
 20
2.58057
 30
0.0
 40
0
 41
0
  0
SEQEND
 8
0
  0
POLYLINE
  8
0
 62
     0
 66
     1
 10
0
 20
0
 30
0.0
 70
     1
 40
0.75
 41
0.75
  0
VERTEX
  8
0
 10
14.8003
 20
2.58057
 30
0.0
 40
0.0104167
 41
0.0104167
  0
VERTEX
  8
0
 10
14.9565
 20
2.58057
 30
0.0
 40
0.0104167
 41
0.0104167
  0
VERTEX
  8
0
 10
14.9565
 20
1.48665
 30
0.0
 40
0.0104167
 41
0.0104167
  0
VERTEX
  8
0
 10
14.8003
 20
1.48665
 30
0.0
 40
0.0104167
 41
0.0104167
  0
VERTEX
  8
0
 10
14.8003
 20
2.58057
 30
0.0
 40
0.0104167
 41
0.0104167
  0
SEQEND
 8
0
  0
POLYLINE
  8
0
 62
     7
 66
     1
 10
0
 20
0
 30
0.0
 70
     1
 40
0
 41
0
  0
VERTEX
  8
0
 10
14.8003
 20
2.58057
 30
0.0
 40
0
 41
0
  0
VERTEX
  8
0
 10
14.9565
 20
2.58057
 30
0.0
 40
0
 41
0
  0
VERTEX
  8
0
 10
14.9565
 20
1.48665
 30
0.0
 40
0
 41
0
  0
VERTEX
  8
0
 10
14.8003
 20
1.48665
 30
0.0
 40
0
 41
0
  0
VERTEX
  8
0
 10
14.8003
 20
2.58057
 30
0.0
 40
0
 41
0
  0
SEQEND
 8
0
  0
POLYLINE
  8
0
 62
     0
 66
     1
 10
0
 20
0
 30
0.0
 70
     1
 40
0.75
 41
0.75
  0
VERTEX
  8
0
 10
14.8003
 20
2.58057
 30
0.0
 40
0.0104167
 41
0.0104167
  0
VERTEX
  8
0
 10
14.9565
 20
2.58057
 30
0.0
 40
0.0104167
 41
0.0104167
  0
VERTEX
  8
0
 10
14.9565
 20
1.48665
 30
0.0
 40
0.0104167
 41
0.0104167
  0
VERTEX
  8
0
 10
14.8003
 20
1.48665
 30
0.0
 40
0.0104167
 41
0.0104167
  0
VERTEX
  8
0
 10
14.8003
 20
2.58057
 30
0.0
 40
0.0104167
 41
0.0104167
  0
SEQEND
 8
0
  0
POLYLINE
  8
0
 62
     0
 66
     1
 10
0
 20
0
 30
0.0
 40
0.75
 41
0.75
  0
VERTEX
  8
0
 10
14.8785
 20
1.56472
 30
0.0
 40
0.0104167
 41
0.0104167
  0
VERTEX
  8
0
 10
14.8785
 20
2.5025
 30
0.0
 40
0.0104167
 41
0.0104167
  0
SEQEND
 8
0
  0
POLYLINE
  8
0
 62
     0
 66
     1
 10
0
 20
0
 30
0.0
 40
0.75
 41
0.75
  0
VERTEX
  8
0
 10
14.9567
 20
1.56472
 30
0.0
 40
0.0104167
 41
0.0104167
  0
VERTEX
  8
0
 10
14.8004
 20
1.56472
 30
0.0
 40
0.0104167
 41
0.0104167
  0
SEQEND
 8
0
  0
POLYLINE
  8
0
 62
     0
 66
     1
 10
0
 20
0
 30
0.0
 40
0.75
 41
0.75
  0
VERTEX
  8
0
 10
14.9567
 20
2.5025
 30
0.0
 40
0.0104167
 41
0.0104167
  0
VERTEX
  8
0
 10
14.8004
 20
2.5025
 30
0.0
 40
0.0104167
 41
0.0104167
  0
SEQEND
 8
0
  0
POLYLINE
  8
0
 62
     7
 66
     1
 10
0
 20
0
 30
0.0
 70
     1
 40
0
 41
0
  0
VERTEX
  8
0
 10
14.8003
 20
6.03629
 30
0.0
 40
0
 41
0
  0
VERTEX
  8
0
 10
14.9565
 20
6.03629
 30
0.0
 40
0
 41
0
  0
VERTEX
  8
0
 10
14.9565
 20
4.97706
 30
0.0
 40
0
 41
0
  0
VERTEX
  8
0
 10
14.8003
 20
4.97706
 30
0.0
 40
0
 41
0
  0
VERTEX
  8
0
 10
14.8003
 20
6.03629
 30
0.0
 40
0
 41
0
  0
SEQEND
 8
0
  0
POLYLINE
  8
0
 62
     0
 66
     1
 10
0
 20
0
 30
0.0
 70
     1
 40
0.75
 41
0.75
  0
VERTEX
  8
0
 10
14.8003
 20
6.03629
 30
0.0
 40
0.0104167
 41
0.0104167
  0
VERTEX
  8
0
 10
14.9565
 20
6.03629
 30
0.0
 40
0.0104167
 41
0.0104167
  0
VERTEX
  8
0
 10
14.9565
 20
4.97706
 30
0.0
 40
0.0104167
 41
0.0104167
  0
VERTEX
  8
0
 10
14.8003
 20
4.97706
 30
0.0
 40
0.0104167
 41
0.0104167
  0
VERTEX
  8
0
 10
14.8003
 20
6.03629
 30
0.0
 40
0.0104167
 41
0.0104167
  0
SEQEND
 8
0
  0
POLYLINE
  8
0
 62
     7
 66
     1
 10
0
 20
0
 30
0.0
 70
     1
 40
0
 41
0
  0
VERTEX
  8
0
 10
14.8003
 20
6.03629
 30
0.0
 40
0
 41
0
  0
VERTEX
  8
0
 10
14.9565
 20
6.03629
 30
0.0
 40
0
 41
0
  0
VERTEX
  8
0
 10
14.9565
 20
4.97706
 30
0.0
 40
0
 41
0
  0
VERTEX
  8
0
 10
14.8003
 20
4.97706
 30
0.0
 40
0
 41
0
  0
VERTEX
  8
0
 10
14.8003
 20
6.03629
 30
0.0
 40
0
 41
0
  0
SEQEND
 8
0
  0
POLYLINE
  8
0
 62
     0
 66
     1
 10
0
 20
0
 30
0.0
 70
     1
 40
0.75
 41
0.75
  0
VERTEX
  8
0
 10
14.8003
 20
6.03629
 30
0.0
 40
0.0104167
 41
0.0104167
  0
VERTEX
  8
0
 10
14.9565
 20
6.03629
 30
0.0
 40
0.0104167
 41
0.0104167
  0
VERTEX
  8
0
 10
14.9565
 20
4.97706
 30
0.0
 40
0.0104167
 41
0.0104167
  0
VERTEX
  8
0
 10
14.8003
 20
4.97706
 30
0.0
 40
0.0104167
 41
0.0104167
  0
VERTEX
  8
0
 10
14.8003
 20
6.03629
 30
0.0
 40
0.0104167
 41
0.0104167
  0
SEQEND
 8
0
  0
POLYLINE
  8
0
 62
     0
 66
     1
 10
0
 20
0
 30
0.0
 40
0.75
 41
0.75
  0
VERTEX
  8
0
 10
14.8785
 20
5.05518
 30
0.0
 40
0.0104167
 41
0.0104167
  0
VERTEX
  8
0
 10
14.8785
 20
5.95822
 30
0.0
 40
0.0104167
 41
0.0104167
  0
SEQEND
 8
0
  0
POLYLINE
  8
0
 62
     0
 66
     1
 10
0
 20
0
 30
0.0
 40
0.75
 41
0.75
  0
VERTEX
  8
0
 10
14.9567
 20
5.05518
 30
0.0
 40
0.0104167
 41
0.0104167
  0
VERTEX
  8
0
 10
14.8004
 20
5.05518
 30
0.0
 40
0.0104167
 41
0.0104167
  0
SEQEND
 8
0
  0
POLYLINE
  8
0
 62
     0
 66
     1
 10
0
 20
0
 30
0.0
 40
0.75
 41
0.75
  0
VERTEX
  8
0
 10
14.9567
 20
5.95822
 30
0.0
 40
0.0104167
 41
0.0104167
  0
VERTEX
  8
0
 10
14.8004
 20
5.95822
 30
0.0
 40
0.0104167
 41
0.0104167
  0
SEQEND
 8
0
  0
POLYLINE
  8
0
 62
     0
 66
     1
 10
0
 20
0
 30
0.0
 70
     1
 40
0
 41
0
  0
VERTEX
  8
0
 10
14.9565
 20
7.49436
 30
0.0
 40
0
 41
0
  0
VERTEX
  8
0
 10
15.1193
 20
7.49436
 30
0.0
 40
0
 41
0
  0
VERTEX
  8
0
 10
14.9342
 20
7.68164
 30
0.0
 40
0
 41
0
  0
VERTEX
  8
0
 10
14.8003
 20
7.68164
 30
0.0
 40
0
 41
0
  0
VERTEX
  8
0
 10
14.9565
 20
7.49436
 30
0.0
 40
0
 41
0
  0
SEQEND
 8
0
  0
POLYLINE
  8
0
 62
     0
 66
     1
 10
0
 20
0
 30
0.0
 70
     1
 40
0.15
 41
0.15
  0
VERTEX
  8
0
 10
14.9565
 20
7.49436
 30
0.0
 40
0.00208333
 41
0.00208333
  0
VERTEX
  8
0
 10
15.1193
 20
7.49436
 30
0.0
 40
0.00208333
 41
0.00208333
  0
VERTEX
  8
0
 10
14.9342
 20
7.68164
 30
0.0
 40
0.00208333
 41
0.00208333
  0
VERTEX
  8
0
 10
14.8003
 20
7.68164
 30
0.0
 40
0.00208333
 41
0.00208333
  0
VERTEX
  8
0
 10
14.9565
 20
7.49436
 30
0.0
 40
0.00208333
 41
0.00208333
  0
SEQEND
 8
0
  0
POLYLINE
  8
0
 62
     0
 66
     1
 10
0
 20
0
 30
0.0
 70
     1
 40
0
 41
0
  0
VERTEX
  8
0
 10
14.9342
 20
7.68164
 30
0.0
 40
0
 41
0
  0
VERTEX
  8
0
 10
14.9342
 20
11.7409
 30
0.0
 40
0
 41
0
  0
VERTEX
  8
0
 10
15.1193
 20
11.9596
 30
0.0
 40
0
 41
0
  0
VERTEX
  8
0
 10
15.1193
 20
7.49436
 30
0.0
 40
0
 41
0
  0
VERTEX
  8
0
 10
14.9342
 20
7.68164
 30
0.0
 40
0
 41
0
  0
SEQEND
 8
0
  0
POLYLINE
  8
0
 62
     0
 66
     1
 10
0
 20
0
 30
0.0
 70
     1
 40
0.15
 41
0.15
  0
VERTEX
  8
0
 10
14.9342
 20
7.68164
 30
0.0
 40
0.00208333
 41
0.00208333
  0
VERTEX
  8
0
 10
14.9342
 20
11.7409
 30
0.0
 40
0.00208333
 41
0.00208333
  0
VERTEX
  8
0
 10
15.1193
 20
11.9596
 30
0.0
 40
0.00208333
 41
0.00208333
  0
VERTEX
  8
0
 10
15.1193
 20
7.49436
 30
0.0
 40
0.00208333
 41
0.00208333
  0
VERTEX
  8
0
 10
14.9342
 20
7.68164
 30
0.0
 40
0.00208333
 41
0.00208333
  0
SEQEND
 8
0
  0
POLYLINE
  8
0
 62
     7
 66
     1
 10
0
 20
0
 30
0.0
 70
     1
 40
0
 41
0
  0
VERTEX
  8
0
 10
14.9342
 20
10.6171
 30
0.0
 40
0
 41
0
  0
VERTEX
  8
0
 10
15.1193
 20
10.6171
 30
0.0
 40
0
 41
0
  0
VERTEX
  8
0
 10
15.1193
 20
8.77186
 30
0.0
 40
0
 41
0
  0
VERTEX
  8
0
 10
14.9342
 20
8.77186
 30
0.0
 40
0
 41
0
  0
VERTEX
  8
0
 10
14.9342
 20
10.6171
 30
0.0
 40
0
 41
0
  0
SEQEND
 8
0
  0
POLYLINE
  8
0
 62
     0
 66
     1
 10
0
 20
0
 30
0.0
 70
     1
 40
0.75
 41
0.75
  0
VERTEX
  8
0
 10
14.9342
 20
10.6171
 30
0.0
 40
0.0104167
 41
0.0104167
  0
VERTEX
  8
0
 10
15.1193
 20
10.6171
 30
0.0
 40
0.0104167
 41
0.0104167
  0
VERTEX
  8
0
 10
15.1193
 20
8.77186
 30
0.0
 40
0.0104167
 41
0.0104167
  0
VERTEX
  8
0
 10
14.9342
 20
8.77186
 30
0.0
 40
0.0104167
 41
0.0104167
  0
VERTEX
  8
0
 10
14.9342
 20
10.6171
 30
0.0
 40
0.0104167
 41
0.0104167
  0
SEQEND
 8
0
  0
POLYLINE
  8
0
 62
     7
 66
     1
 10
0
 20
0
 30
0.0
 70
     1
 40
0
 41
0
  0
VERTEX
  8
0
 10
14.9342
 20
10.6171
 30
0.0
 40
0
 41
0
  0
VERTEX
  8
0
 10
15.1193
 20
10.6171
 30
0.0
 40
0
 41
0
  0
VERTEX
  8
0
 10
15.1193
 20
8.77186
 30
0.0
 40
0
 41
0
  0
VERTEX
  8
0
 10
14.9342
 20
8.77186
 30
0.0
 40
0
 41
0
  0
VERTEX
  8
0
 10
14.9342
 20
10.6171
 30
0.0
 40
0
 41
0
  0
SEQEND
 8
0
  0
POLYLINE
  8
0
 62
     0
 66
     1
 10
0
 20
0
 30
0.0
 70
     1
 40
0.75
 41
0.75
  0
VERTEX
  8
0
 10
14.9342
 20
10.6171
 30
0.0
 40
0.0104167
 41
0.0104167
  0
VERTEX
  8
0
 10
15.1193
 20
10.6171
 30
0.0
 40
0.0104167
 41
0.0104167
  0
VERTEX
  8
0
 10
15.1193
 20
8.77186
 30
0.0
 40
0.0104167
 41
0.0104167
  0
VERTEX
  8
0
 10
14.9342
 20
8.77186
 30
0.0
 40
0.0104167
 41
0.0104167
  0
VERTEX
  8
0
 10
14.9342
 20
10.6171
 30
0.0
 40
0.0104167
 41
0.0104167
  0
SEQEND
 8
0
  0
POLYLINE
  8
0
 62
     0
 66
     1
 10
0
 20
0
 30
0.0
 40
0.75
 41
0.75
  0
VERTEX
  8
0
 10
15.0268
 20
8.84999
 30
0.0
 40
0.0104167
 41
0.0104167
  0
VERTEX
  8
0
 10
15.0268
 20
10.5391
 30
0.0
 40
0.0104167
 41
0.0104167
  0
SEQEND
 8
0
  0
POLYLINE
  8
0
 62
     0
 66
     1
 10
0
 20
0
 30
0.0
 40
0.75
 41
0.75
  0
VERTEX
  8
0
 10
14.9342
 20
8.84999
 30
0.0
 40
0.0104167
 41
0.0104167
  0
VERTEX
  8
0
 10
15.1193
 20
8.84999
 30
0.0
 40
0.0104167
 41
0.0104167
  0
SEQEND
 8
0
  0
POLYLINE
  8
0
 62
     0
 66
     1
 10
0
 20
0
 30
0.0
 40
0.75
 41
0.75
  0
VERTEX
  8
0
 10
14.9342
 20
10.5391
 30
0.0
 40
0.0104167
 41
0.0104167
  0
VERTEX
  8
0
 10
15.1193
 20
10.5391
 30
0.0
 40
0.0104167
 41
0.0104167
  0
SEQEND
 8
0
  0
POLYLINE
  8
0
 62
     0
 66
     1
 10
0
 20
0
 30
0.0
 70
     1
 40
0
 41
0
  0
VERTEX
  8
0
 10
15.1193
 20
11.9596
 30
0.0
 40
0
 41
0
  0
VERTEX
  8
0
 10
2.22542
 20
11.9596
 30
0.0
 40
0
 41
0
  0
VERTEX
  8
0
 10
2.4025
 20
11.7409
 30
0.0
 40
0
 41
0
  0
VERTEX
  8
0
 10
14.9342
 20
11.7409
 30
0.0
 40
0
 41
0
  0
VERTEX
  8
0
 10
15.1193
 20
11.9596
 30
0.0
 40
0
 41
0
  0
SEQEND
 8
0
  0
POLYLINE
  8
0
 62
     0
 66
     1
 10
0
 20
0
 30
0.0
 70
     1
 40
0.15
 41
0.15
  0
VERTEX
  8
0
 10
15.1193
 20
11.9596
 30
0.0
 40
0.00208333
 41
0.00208333
  0
VERTEX
  8
0
 10
2.22542
 20
11.9596
 30
0.0
 40
0.00208333
 41
0.00208333
  0
VERTEX
  8
0
 10
2.4025
 20
11.7409
 30
0.0
 40
0.00208333
 41
0.00208333
  0
VERTEX
  8
0
 10
14.9342
 20
11.7409
 30
0.0
 40
0.00208333
 41
0.00208333
  0
VERTEX
  8
0
 10
15.1193
 20
11.9596
 30
0.0
 40
0.00208333
 41
0.00208333
  0
SEQEND
 8
0
  0
POLYLINE
  8
0
 62
     7
 66
     1
 10
0
 20
0
 30
0.0
 70
     1
 40
0
 41
0
  0
VERTEX
  8
0
 10
10.4845
 20
11.9596
 30
0.0
 40
0
 41
0
  0
VERTEX
  8
0
 10
13.4616
 20
11.9596
 30
0.0
 40
0
 41
0
  0
VERTEX
  8
0
 10
13.4616
 20
11.7409
 30
0.0
 40
0
 41
0
  0
VERTEX
  8
0
 10
10.4845
 20
11.7409
 30
0.0
 40
0
 41
0
  0
VERTEX
  8
0
 10
10.4845
 20
11.9596
 30
0.0
 40
0
 41
0
  0
SEQEND
 8
0
  0
POLYLINE
  8
0
 62
     0
 66
     1
 10
0
 20
0
 30
0.0
 70
     1
 40
0.75
 41
0.75
  0
VERTEX
  8
0
 10
10.4845
 20
11.9596
 30
0.0
 40
0.0104167
 41
0.0104167
  0
VERTEX
  8
0
 10
13.4616
 20
11.9596
 30
0.0
 40
0.0104167
 41
0.0104167
  0
VERTEX
  8
0
 10
13.4616
 20
11.7409
 30
0.0
 40
0.0104167
 41
0.0104167
  0
VERTEX
  8
0
 10
10.4845
 20
11.7409
 30
0.0
 40
0.0104167
 41
0.0104167
  0
VERTEX
  8
0
 10
10.4845
 20
11.9596
 30
0.0
 40
0.0104167
 41
0.0104167
  0
SEQEND
 8
0
  0
POLYLINE
  8
0
 62
     7
 66
     1
 10
0
 20
0
 30
0.0
 70
     1
 40
0
 41
0
  0
VERTEX
  8
0
 10
10.4845
 20
11.9596
 30
0.0
 40
0
 41
0
  0
VERTEX
  8
0
 10
13.4616
 20
11.9596
 30
0.0
 40
0
 41
0
  0
VERTEX
  8
0
 10
13.4616
 20
11.7409
 30
0.0
 40
0
 41
0
  0
VERTEX
  8
0
 10
10.4845
 20
11.7409
 30
0.0
 40
0
 41
0
  0
VERTEX
  8
0
 10
10.4845
 20
11.9596
 30
0.0
 40
0
 41
0
  0
SEQEND
 8
0
  0
POLYLINE
  8
0
 62
     0
 66
     1
 10
0
 20
0
 30
0.0
 70
     1
 40
0.75
 41
0.75
  0
VERTEX
  8
0
 10
10.4845
 20
11.9596
 30
0.0
 40
0.0104167
 41
0.0104167
  0
VERTEX
  8
0
 10
13.4616
 20
11.9596
 30
0.0
 40
0.0104167
 41
0.0104167
  0
VERTEX
  8
0
 10
13.4616
 20
11.7409
 30
0.0
 40
0.0104167
 41
0.0104167
  0
VERTEX
  8
0
 10
10.4845
 20
11.7409
 30
0.0
 40
0.0104167
 41
0.0104167
  0
VERTEX
  8
0
 10
10.4845
 20
11.9596
 30
0.0
 40
0.0104167
 41
0.0104167
  0
SEQEND
 8
0
  0
POLYLINE
  8
0
 62
     0
 66
     1
 10
0
 20
0
 30
0.0
 40
0.75
 41
0.75
  0
VERTEX
  8
0
 10
13.3835
 20
11.8503
 30
0.0
 40
0.0104167
 41
0.0104167
  0
VERTEX
  8
0
 10
10.5626
 20
11.8503
 30
0.0
 40
0.0104167
 41
0.0104167
  0
SEQEND
 8
0
  0
POLYLINE
  8
0
 62
     0
 66
     1
 10
0
 20
0
 30
0.0
 40
0.75
 41
0.75
  0
VERTEX
  8
0
 10
13.3835
 20
11.9596
 30
0.0
 40
0.0104167
 41
0.0104167
  0
VERTEX
  8
0
 10
13.3835
 20
11.7409
 30
0.0
 40
0.0104167
 41
0.0104167
  0
SEQEND
 8
0
  0
POLYLINE
  8
0
 62
     0
 66
     1
 10
0
 20
0
 30
0.0
 40
0.75
 41
0.75
  0
VERTEX
  8
0
 10
10.5626
 20
11.9596
 30
0.0
 40
0.0104167
 41
0.0104167
  0
VERTEX
  8
0
 10
10.5626
 20
11.7409
 30
0.0
 40
0.0104167
 41
0.0104167
  0
SEQEND
 8
0
  0
POLYLINE
  8
0
 62
     7
 66
     1
 10
0
 20
0
 30
0.0
 70
     1
 40
0
 41
0
  0
VERTEX
  8
0
 10
6.6224
 20
11.9596
 30
0.0
 40
0
 41
0
  0
VERTEX
  8
0
 10
7.54844
 20
11.9596
 30
0.0
 40
0
 41
0
  0
VERTEX
  8
0
 10
7.54844
 20
11.7409
 30
0.0
 40
0
 41
0
  0
VERTEX
  8
0
 10
6.6224
 20
11.7409
 30
0.0
 40
0
 41
0
  0
VERTEX
  8
0
 10
6.6224
 20
11.9596
 30
0.0
 40
0
 41
0
  0
SEQEND
 8
0
  0
POLYLINE
  8
0
 62
     0
 66
     1
 10
0
 20
0
 30
0.0
 70
     1
 40
0.75
 41
0.75
  0
VERTEX
  8
0
 10
6.6224
 20
11.9596
 30
0.0
 40
0.0104167
 41
0.0104167
  0
VERTEX
  8
0
 10
7.54844
 20
11.9596
 30
0.0
 40
0.0104167
 41
0.0104167
  0
VERTEX
  8
0
 10
7.54844
 20
11.7409
 30
0.0
 40
0.0104167
 41
0.0104167
  0
VERTEX
  8
0
 10
6.6224
 20
11.7409
 30
0.0
 40
0.0104167
 41
0.0104167
  0
VERTEX
  8
0
 10
6.6224
 20
11.9596
 30
0.0
 40
0.0104167
 41
0.0104167
  0
SEQEND
 8
0
  0
POLYLINE
  8
0
 62
     7
 66
     1
 10
0
 20
0
 30
0.0
 70
     1
 40
0
 41
0
  0
VERTEX
  8
0
 10
6.6224
 20
11.9596
 30
0.0
 40
0
 41
0
  0
VERTEX
  8
0
 10
7.54844
 20
11.9596
 30
0.0
 40
0
 41
0
  0
VERTEX
  8
0
 10
7.54844
 20
11.7409
 30
0.0
 40
0
 41
0
  0
VERTEX
  8
0
 10
6.6224
 20
11.7409
 30
0.0
 40
0
 41
0
  0
VERTEX
  8
0
 10
6.6224
 20
11.9596
 30
0.0
 40
0
 41
0
  0
SEQEND
 8
0
  0
POLYLINE
  8
0
 62
     0
 66
     1
 10
0
 20
0
 30
0.0
 70
     1
 40
0.75
 41
0.75
  0
VERTEX
  8
0
 10
6.6224
 20
11.9596
 30
0.0
 40
0.0104167
 41
0.0104167
  0
VERTEX
  8
0
 10
7.54844
 20
11.9596
 30
0.0
 40
0.0104167
 41
0.0104167
  0
VERTEX
  8
0
 10
7.54844
 20
11.7409
 30
0.0
 40
0.0104167
 41
0.0104167
  0
VERTEX
  8
0
 10
6.6224
 20
11.7409
 30
0.0
 40
0.0104167
 41
0.0104167
  0
VERTEX
  8
0
 10
6.6224
 20
11.9596
 30
0.0
 40
0.0104167
 41
0.0104167
  0
SEQEND
 8
0
  0
POLYLINE
  8
0
 62
     0
 66
     1
 10
0
 20
0
 30
0.0
 40
0.75
 41
0.75
  0
VERTEX
  8
0
 10
7.47032
 20
11.8503
 30
0.0
 40
0.0104167
 41
0.0104167
  0
VERTEX
  8
0
 10
6.70053
 20
11.8503
 30
0.0
 40
0.0104167
 41
0.0104167
  0
SEQEND
 8
0
  0
POLYLINE
  8
0
 62
     0
 66
     1
 10
0
 20
0
 30
0.0
 40
0.75
 41
0.75
  0
VERTEX
  8
0
 10
7.47032
 20
11.9596
 30
0.0
 40
0.0104167
 41
0.0104167
  0
VERTEX
  8
0
 10
7.47032
 20
11.7409
 30
0.0
 40
0.0104167
 41
0.0104167
  0
SEQEND
 8
0
  0
POLYLINE
  8
0
 62
     0
 66
     1
 10
0
 20
0
 30
0.0
 40
0.75
 41
0.75
  0
VERTEX
  8
0
 10
6.70053
 20
11.9596
 30
0.0
 40
0.0104167
 41
0.0104167
  0
VERTEX
  8
0
 10
6.70053
 20
11.7409
 30
0.0
 40
0.0104167
 41
0.0104167
  0
SEQEND
 8
0
  0
POLYLINE
  8
0
 62
     0
 66
     1
 10
0
 20
0
 30
0.0
 70
     1
 40
0
 41
0
  0
VERTEX
  8
0
 10
2.22542
 20
11.9596
 30
0.0
 40
0
 41
0
  0
VERTEX
  8
0
 10
2.22542
 20
2.57443
 30
0.0
 40
0
 41
0
  0
VERTEX
  8
0
 10
2.4025
 20
2.73068
 30
0.0
 40
0
 41
0
  0
VERTEX
  8
0
 10
2.4025
 20
11.7409
 30
0.0
 40
0
 41
0
  0
VERTEX
  8
0
 10
2.22542
 20
11.9596
 30
0.0
 40
0
 41
0
  0
SEQEND
 8
0
  0
POLYLINE
  8
0
 62
     0
 66
     1
 10
0
 20
0
 30
0.0
 70
     1
 40
0.15
 41
0.15
  0
VERTEX
  8
0
 10
2.22542
 20
11.9596
 30
0.0
 40
0.00208333
 41
0.00208333
  0
VERTEX
  8
0
 10
2.22542
 20
2.57443
 30
0.0
 40
0.00208333
 41
0.00208333
  0
VERTEX
  8
0
 10
2.4025
 20
2.73068
 30
0.0
 40
0.00208333
 41
0.00208333
  0
VERTEX
  8
0
 10
2.4025
 20
11.7409
 30
0.0
 40
0.00208333
 41
0.00208333
  0
VERTEX
  8
0
 10
2.22542
 20
11.9596
 30
0.0
 40
0.00208333
 41
0.00208333
  0
SEQEND
 8
0
  0
POLYLINE
  8
0
 62
     7
 66
     1
 10
0
 20
0
 30
0.0
 70
     1
 40
0
 41
0
  0
VERTEX
  8
0
 10
2.22542
 20
10.615
 30
0.0
 40
0
 41
0
  0
VERTEX
  8
0
 10
2.4025
 20
10.615
 30
0.0
 40
0
 41
0
  0
VERTEX
  8
0
 10
2.4025
 20
9.61632
 30
0.0
 40
0
 41
0
  0
VERTEX
  8
0
 10
2.22542
 20
9.61632
 30
0.0
 40
0
 41
0
  0
VERTEX
  8
0
 10
2.22542
 20
10.615
 30
0.0
 40
0
 41
0
  0
SEQEND
 8
0
  0
POLYLINE
  8
0
 62
     0
 66
     1
 10
0
 20
0
 30
0.0
 70
     1
 40
0.75
 41
0.75
  0
VERTEX
  8
0
 10
2.22542
 20
10.615
 30
0.0
 40
0.0104167
 41
0.0104167
  0
VERTEX
  8
0
 10
2.4025
 20
10.615
 30
0.0
 40
0.0104167
 41
0.0104167
  0
VERTEX
  8
0
 10
2.4025
 20
9.61632
 30
0.0
 40
0.0104167
 41
0.0104167
  0
VERTEX
  8
0
 10
2.22542
 20
9.61632
 30
0.0
 40
0.0104167
 41
0.0104167
  0
VERTEX
  8
0
 10
2.22542
 20
10.615
 30
0.0
 40
0.0104167
 41
0.0104167
  0
SEQEND
 8
0
  0
POLYLINE
  8
0
 62
     7
 66
     1
 10
0
 20
0
 30
0.0
 70
     1
 40
0
 41
0
  0
VERTEX
  8
0
 10
2.22542
 20
10.615
 30
0.0
 40
0
 41
0
  0
VERTEX
  8
0
 10
2.4025
 20
10.615
 30
0.0
 40
0
 41
0
  0
VERTEX
  8
0
 10
2.4025
 20
9.61632
 30
0.0
 40
0
 41
0
  0
VERTEX
  8
0
 10
2.22542
 20
9.61632
 30
0.0
 40
0
 41
0
  0
VERTEX
  8
0
 10
2.22542
 20
10.615
 30
0.0
 40
0
 41
0
  0
SEQEND
 8
0
  0
POLYLINE
  8
0
 62
     0
 66
     1
 10
0
 20
0
 30
0.0
 70
     1
 40
0.75
 41
0.75
  0
VERTEX
  8
0
 10
2.22542
 20
10.615
 30
0.0
 40
0.0104167
 41
0.0104167
  0
VERTEX
  8
0
 10
2.4025
 20
10.615
 30
0.0
 40
0.0104167
 41
0.0104167
  0
VERTEX
  8
0
 10
2.4025
 20
9.61632
 30
0.0
 40
0.0104167
 41
0.0104167
  0
VERTEX
  8
0
 10
2.22542
 20
9.61632
 30
0.0
 40
0.0104167
 41
0.0104167
  0
VERTEX
  8
0
 10
2.22542
 20
10.615
 30
0.0
 40
0.0104167
 41
0.0104167
  0
SEQEND
 8
0
  0
POLYLINE
  8
0
 62
     0
 66
     1
 10
0
 20
0
 30
0.0
 70
     1
 40
0.75
 41
0.75
  0
VERTEX
  8
0
 10
2.22542
 20
9.61632
 30
0.0
 40
0.0104167
 41
0.0104167
  0
VERTEX
  8
0
 10
2.16689
 20
9.61632
 30
0.0
 40
0.0104167
 41
0.0104167
  0
VERTEX
  8
0
 10
1.99132
 20
9.63194
 30
0.0
 40
0.0104167
 41
0.0104167
  0
VERTEX
  8
0
 10
1.78842
 20
9.67876
 30
0.0
 40
0.0104167
 41
0.0104167
  0
VERTEX
  8
0
 10
1.61675
 20
9.75678
 30
0.0
 40
0.0104167
 41
0.0104167
  0
VERTEX
  8
0
 10
1.47635
 20
9.86604
 30
0.0
 40
0.0104167
 41
0.0104167
  0
VERTEX
  8
0
 10
1.36708
 20
10.0065
 30
0.0
 40
0.0104167
 41
0.0104167
  0
VERTEX
  8
0
 10
1.28906
 20
10.1781
 30
0.0
 40
0.0104167
 41
0.0104167
  0
VERTEX
  8
0
 10
1.24224
 20
10.381
 30
0.0
 40
0.0104167
 41
0.0104167
  0
VERTEX
  8
0
 10
1.22667
 20
10.5566
 30
0.0
 40
0.0104167
 41
0.0104167
  0
VERTEX
  8
0
 10
1.22667
 20
10.6151
 30
0.0
 40
0.0104167
 41
0.0104167
  0
VERTEX
  8
0
 10
2.22542
 20
10.6151
 30
0.0
 40
0.0104167
 41
0.0104167
  0
VERTEX
  8
0
 10
2.22542
 20
9.61632
 30
0.0
 40
0.0104167
 41
0.0104167
  0
SEQEND
 8
0
  0
POLYLINE
  8
0
 62
     7
 66
     1
 10
0
 20
0
 30
0.0
 70
     1
 40
0
 41
0
  0
VERTEX
  8
0
 10
2.22542
 20
6.85454
 30
0.0
 40
0
 41
0
  0
VERTEX
  8
0
 10
2.4025
 20
6.85454
 30
0.0
 40
0
 41
0
  0
VERTEX
  8
0
 10
2.4025
 20
5.96528
 30
0.0
 40
0
 41
0
  0
VERTEX
  8
0
 10
2.22542
 20
5.96528
 30
0.0
 40
0
 41
0
  0
VERTEX
  8
0
 10
2.22542
 20
6.85454
 30
0.0
 40
0
 41
0
  0
SEQEND
 8
0
  0
POLYLINE
  8
0
 62
     0
 66
     1
 10
0
 20
0
 30
0.0
 70
     1
 40
0.75
 41
0.75
  0
VERTEX
  8
0
 10
2.22542
 20
6.85454
 30
0.0
 40
0.0104167
 41
0.0104167
  0
VERTEX
  8
0
 10
2.4025
 20
6.85454
 30
0.0
 40
0.0104167
 41
0.0104167
  0
VERTEX
  8
0
 10
2.4025
 20
5.96528
 30
0.0
 40
0.0104167
 41
0.0104167
  0
VERTEX
  8
0
 10
2.22542
 20
5.96528
 30
0.0
 40
0.0104167
 41
0.0104167
  0
VERTEX
  8
0
 10
2.22542
 20
6.85454
 30
0.0
 40
0.0104167
 41
0.0104167
  0
SEQEND
 8
0
  0
POLYLINE
  8
0
 62
     7
 66
     1
 10
0
 20
0
 30
0.0
 70
     1
 40
0
 41
0
  0
VERTEX
  8
0
 10
2.22542
 20
6.85454
 30
0.0
 40
0
 41
0
  0
VERTEX
  8
0
 10
2.4025
 20
6.85454
 30
0.0
 40
0
 41
0
  0
VERTEX
  8
0
 10
2.4025
 20
5.96528
 30
0.0
 40
0
 41
0
  0
VERTEX
  8
0
 10
2.22542
 20
5.96528
 30
0.0
 40
0
 41
0
  0
VERTEX
  8
0
 10
2.22542
 20
6.85454
 30
0.0
 40
0
 41
0
  0
SEQEND
 8
0
  0
POLYLINE
  8
0
 62
     0
 66
     1
 10
0
 20
0
 30
0.0
 70
     1
 40
0.75
 41
0.75
  0
VERTEX
  8
0
 10
2.22542
 20
6.85454
 30
0.0
 40
0.0104167
 41
0.0104167
  0
VERTEX
  8
0
 10
2.4025
 20
6.85454
 30
0.0
 40
0.0104167
 41
0.0104167
  0
VERTEX
  8
0
 10
2.4025
 20
5.96528
 30
0.0
 40
0.0104167
 41
0.0104167
  0
VERTEX
  8
0
 10
2.22542
 20
5.96528
 30
0.0
 40
0.0104167
 41
0.0104167
  0
VERTEX
  8
0
 10
2.22542
 20
6.85454
 30
0.0
 40
0.0104167
 41
0.0104167
  0
SEQEND
 8
0
  0
POLYLINE
  8
0
 62
     0
 66
     1
 10
0
 20
0
 30
0.0
 40
0.75
 41
0.75
  0
VERTEX
  8
0
 10
2.31396
 20
6.77642
 30
0.0
 40
0.0104167
 41
0.0104167
  0
VERTEX
  8
0
 10
2.31396
 20
6.04335
 30
0.0
 40
0.0104167
 41
0.0104167
  0
SEQEND
 8
0
  0
POLYLINE
  8
0
 62
     0
 66
     1
 10
0
 20
0
 30
0.0
 40
0.75
 41
0.75
  0
VERTEX
  8
0
 10
2.22542
 20
6.77642
 30
0.0
 40
0.0104167
 41
0.0104167
  0
VERTEX
  8
0
 10
2.4025
 20
6.77642
 30
0.0
 40
0.0104167
 41
0.0104167
  0
SEQEND
 8
0
  0
POLYLINE
  8
0
 62
     0
 66
     1
 10
0
 20
0
 30
0.0
 40
0.75
 41
0.75
  0
VERTEX
  8
0
 10
2.22542
 20
6.04335
 30
0.0
 40
0.0104167
 41
0.0104167
  0
VERTEX
  8
0
 10
2.4025
 20
6.04335
 30
0.0
 40
0.0104167
 41
0.0104167
  0
SEQEND
 8
0
  0
POLYLINE
  8
0
 62
     7
 66
     1
 10
0
 20
0
 30
0.0
 70
     1
 40
0
 41
0
  0
VERTEX
  8
0
 10
2.22542
 20
5.63786
 30
0.0
 40
0
 41
0
  0
VERTEX
  8
0
 10
2.4025
 20
5.63786
 30
0.0
 40
0
 41
0
  0
VERTEX
  8
0
 10
2.4025
 20
4.64974
 30
0.0
 40
0
 41
0
  0
VERTEX
  8
0
 10
2.22542
 20
4.64974
 30
0.0
 40
0
 41
0
  0
VERTEX
  8
0
 10
2.22542
 20
5.63786
 30
0.0
 40
0
 41
0
  0
SEQEND
 8
0
  0
POLYLINE
  8
0
 62
     0
 66
     1
 10
0
 20
0
 30
0.0
 70
     1
 40
0.75
 41
0.75
  0
VERTEX
  8
0
 10
2.22542
 20
5.63786
 30
0.0
 40
0.0104167
 41
0.0104167
  0
VERTEX
  8
0
 10
2.4025
 20
5.63786
 30
0.0
 40
0.0104167
 41
0.0104167
  0
VERTEX
  8
0
 10
2.4025
 20
4.64974
 30
0.0
 40
0.0104167
 41
0.0104167
  0
VERTEX
  8
0
 10
2.22542
 20
4.64974
 30
0.0
 40
0.0104167
 41
0.0104167
  0
VERTEX
  8
0
 10
2.22542
 20
5.63786
 30
0.0
 40
0.0104167
 41
0.0104167
  0
SEQEND
 8
0
  0
POLYLINE
  8
0
 62
     7
 66
     1
 10
0
 20
0
 30
0.0
 70
     1
 40
0
 41
0
  0
VERTEX
  8
0
 10
2.22542
 20
5.63786
 30
0.0
 40
0
 41
0
  0
VERTEX
  8
0
 10
2.4025
 20
5.63786
 30
0.0
 40
0
 41
0
  0
VERTEX
  8
0
 10
2.4025
 20
4.64974
 30
0.0
 40
0
 41
0
  0
VERTEX
  8
0
 10
2.22542
 20
4.64974
 30
0.0
 40
0
 41
0
  0
VERTEX
  8
0
 10
2.22542
 20
5.63786
 30
0.0
 40
0
 41
0
  0
SEQEND
 8
0
  0
POLYLINE
  8
0
 62
     0
 66
     1
 10
0
 20
0
 30
0.0
 70
     1
 40
0.75
 41
0.75
  0
VERTEX
  8
0
 10
2.22542
 20
5.63786
 30
0.0
 40
0.0104167
 41
0.0104167
  0
VERTEX
  8
0
 10
2.4025
 20
5.63786
 30
0.0
 40
0.0104167
 41
0.0104167
  0
VERTEX
  8
0
 10
2.4025
 20
4.64974
 30
0.0
 40
0.0104167
 41
0.0104167
  0
VERTEX
  8
0
 10
2.22542
 20
4.64974
 30
0.0
 40
0.0104167
 41
0.0104167
  0
VERTEX
  8
0
 10
2.22542
 20
5.63786
 30
0.0
 40
0.0104167
 41
0.0104167
  0
SEQEND
 8
0
  0
POLYLINE
  8
0
 62
     0
 66
     1
 10
0
 20
0
 30
0.0
 40
0.75
 41
0.75
  0
VERTEX
  8
0
 10
2.31396
 20
5.55979
 30
0.0
 40
0.0104167
 41
0.0104167
  0
VERTEX
  8
0
 10
2.31396
 20
4.72792
 30
0.0
 40
0.0104167
 41
0.0104167
  0
SEQEND
 8
0
  0
POLYLINE
  8
0
 62
     0
 66
     1
 10
0
 20
0
 30
0.0
 40
0.75
 41
0.75
  0
VERTEX
  8
0
 10
2.22542
 20
5.55979
 30
0.0
 40
0.0104167
 41
0.0104167
  0
VERTEX
  8
0
 10
2.4025
 20
5.55979
 30
0.0
 40
0.0104167
 41
0.0104167
  0
SEQEND
 8
0
  0
POLYLINE
  8
0
 62
     0
 66
     1
 10
0
 20
0
 30
0.0
 40
0.75
 41
0.75
  0
VERTEX
  8
0
 10
2.22542
 20
4.72792
 30
0.0
 40
0.0104167
 41
0.0104167
  0
VERTEX
  8
0
 10
2.4025
 20
4.72792
 30
0.0
 40
0.0104167
 41
0.0104167
  0
SEQEND
 8
0
  0
POLYLINE
  8
0
 62
     7
 66
     1
 10
0
 20
0
 30
0.0
 70
     1
 40
0
 41
0
  0
VERTEX
  8
0
 10
2.22542
 20
4.38422
 30
0.0
 40
0
 41
0
  0
VERTEX
  8
0
 10
2.4025
 20
4.38422
 30
0.0
 40
0
 41
0
  0
VERTEX
  8
0
 10
2.4025
 20
3.4579
 30
0.0
 40
0
 41
0
  0
VERTEX
  8
0
 10
2.22542
 20
3.4579
 30
0.0
 40
0
 41
0
  0
VERTEX
  8
0
 10
2.22542
 20
4.38422
 30
0.0
 40
0
 41
0
  0
SEQEND
 8
0
  0
POLYLINE
  8
0
 62
     0
 66
     1
 10
0
 20
0
 30
0.0
 70
     1
 40
0.75
 41
0.75
  0
VERTEX
  8
0
 10
2.22542
 20
4.38422
 30
0.0
 40
0.0104167
 41
0.0104167
  0
VERTEX
  8
0
 10
2.4025
 20
4.38422
 30
0.0
 40
0.0104167
 41
0.0104167
  0
VERTEX
  8
0
 10
2.4025
 20
3.4579
 30
0.0
 40
0.0104167
 41
0.0104167
  0
VERTEX
  8
0
 10
2.22542
 20
3.4579
 30
0.0
 40
0.0104167
 41
0.0104167
  0
VERTEX
  8
0
 10
2.22542
 20
4.38422
 30
0.0
 40
0.0104167
 41
0.0104167
  0
SEQEND
 8
0
  0
POLYLINE
  8
0
 62
     7
 66
     1
 10
0
 20
0
 30
0.0
 70
     1
 40
0
 41
0
  0
VERTEX
  8
0
 10
2.22542
 20
4.38422
 30
0.0
 40
0
 41
0
  0
VERTEX
  8
0
 10
2.4025
 20
4.38422
 30
0.0
 40
0
 41
0
  0
VERTEX
  8
0
 10
2.4025
 20
3.4579
 30
0.0
 40
0
 41
0
  0
VERTEX
  8
0
 10
2.22542
 20
3.4579
 30
0.0
 40
0
 41
0
  0
VERTEX
  8
0
 10
2.22542
 20
4.38422
 30
0.0
 40
0
 41
0
  0
SEQEND
 8
0
  0
POLYLINE
  8
0
 62
     0
 66
     1
 10
0
 20
0
 30
0.0
 70
     1
 40
0.75
 41
0.75
  0
VERTEX
  8
0
 10
2.22542
 20
4.38422
 30
0.0
 40
0.0104167
 41
0.0104167
  0
VERTEX
  8
0
 10
2.4025
 20
4.38422
 30
0.0
 40
0.0104167
 41
0.0104167
  0
VERTEX
  8
0
 10
2.4025
 20
3.4579
 30
0.0
 40
0.0104167
 41
0.0104167
  0
VERTEX
  8
0
 10
2.22542
 20
3.4579
 30
0.0
 40
0.0104167
 41
0.0104167
  0
VERTEX
  8
0
 10
2.22542
 20
4.38422
 30
0.0
 40
0.0104167
 41
0.0104167
  0
SEQEND
 8
0
  0
POLYLINE
  8
0
 62
     0
 66
     1
 10
0
 20
0
 30
0.0
 40
0.75
 41
0.75
  0
VERTEX
  8
0
 10
2.31396
 20
4.3061
 30
0.0
 40
0.0104167
 41
0.0104167
  0
VERTEX
  8
0
 10
2.31396
 20
3.53597
 30
0.0
 40
0.0104167
 41
0.0104167
  0
SEQEND
 8
0
  0
POLYLINE
  8
0
 62
     0
 66
     1
 10
0
 20
0
 30
0.0
 40
0.75
 41
0.75
  0
VERTEX
  8
0
 10
2.22542
 20
4.3061
 30
0.0
 40
0.0104167
 41
0.0104167
  0
VERTEX
  8
0
 10
2.4025
 20
4.3061
 30
0.0
 40
0.0104167
 41
0.0104167
  0
SEQEND
 8
0
  0
POLYLINE
  8
0
 62
     0
 66
     1
 10
0
 20
0
 30
0.0
 40
0.75
 41
0.75
  0
VERTEX
  8
0
 10
2.22542
 20
3.53597
 30
0.0
 40
0.0104167
 41
0.0104167
  0
VERTEX
  8
0
 10
2.4025
 20
3.53597
 30
0.0
 40
0.0104167
 41
0.0104167
  0
SEQEND
 8
0
  0
POLYLINE
  8
0
 62
     0
 66
     1
 10
0
 20
0
 30
0.0
 70
     1
 40
0
 41
0
  0
VERTEX
  8
0
 10
6.43294
 20
4.27067
 30
0.0
 40
0
 41
0
  0
VERTEX
  8
0
 10
6.43294
 20
2.73068
 30
0.0
 40
0
 41
0
  0
VERTEX
  8
0
 10
6.60092
 20
2.57443
 30
0.0
 40
0
 41
0
  0
VERTEX
  8
0
 10
6.60092
 20
4.11442
 30
0.0
 40
0
 41
0
  0
VERTEX
  8
0
 10
6.43294
 20
4.27067
 30
0.0
 40
0
 41
0
  0
SEQEND
 8
0
  0
POLYLINE
  8
0
 62
     0
 66
     1
 10
0
 20
0
 30
0.0
 70
     1
 40
0.15
 41
0.15
  0
VERTEX
  8
0
 10
6.43294
 20
4.27067
 30
0.0
 40
0.00208333
 41
0.00208333
  0
VERTEX
  8
0
 10
6.43294
 20
2.73068
 30
0.0
 40
0.00208333
 41
0.00208333
  0
VERTEX
  8
0
 10
6.60092
 20
2.57443
 30
0.0
 40
0.00208333
 41
0.00208333
  0
VERTEX
  8
0
 10
6.60092
 20
4.11442
 30
0.0
 40
0.00208333
 41
0.00208333
  0
VERTEX
  8
0
 10
6.43294
 20
4.27067
 30
0.0
 40
0.00208333
 41
0.00208333
  0
SEQEND
 8
0
  0
POLYLINE
  8
0
 62
     0
 66
     1
 10
0
 20
0
 30
0.0
 70
     1
 40
0
 41
0
  0
VERTEX
  8
0
 10
6.43294
 20
11.9596
 30
0.0
 40
0
 41
0
  0
VERTEX
  8
0
 10
6.57878
 20
11.9596
 30
0.0
 40
0
 41
0
  0
VERTEX
  8
0
 10
6.57878
 20
4.27067
 30
0.0
 40
0
 41
0
  0
VERTEX
  8
0
 10
6.43294
 20
4.27067
 30
0.0
 40
0
 41
0
  0
VERTEX
  8
0
 10
6.43294
 20
11.9596
 30
0.0
 40
0
 41
0
  0
SEQEND
 8
0
  0
POLYLINE
  8
0
 62
     0
 66
     1
 10
0
 20
0
 30
0.0
 70
     1
 40
0.15
 41
0.15
  0
VERTEX
  8
0
 10
6.43294
 20
11.9596
 30
0.0
 40
0.00208333
 41
0.00208333
  0
VERTEX
  8
0
 10
6.57878
 20
11.9596
 30
0.0
 40
0.00208333
 41
0.00208333
  0
VERTEX
  8
0
 10
6.57878
 20
4.27067
 30
0.0
 40
0.00208333
 41
0.00208333
  0
VERTEX
  8
0
 10
6.43294
 20
4.27067
 30
0.0
 40
0.00208333
 41
0.00208333
  0
VERTEX
  8
0
 10
6.43294
 20
11.9596
 30
0.0
 40
0.00208333
 41
0.00208333
  0
SEQEND
 8
0
  0
POLYLINE
  8
0
 62
     0
 66
     1
 10
0
 20
0
 30
0.0
 70
     1
 40
0
 41
0
  0
VERTEX
  8
0
 10
8.60747
 20
4.99414
 30
0.0
 40
0
 41
0
  0
VERTEX
  8
0
 10
8.78456
 20
4.99414
 30
0.0
 40
0
 41
0
  0
VERTEX
  8
0
 10
8.78456
 20
4.27067
 30
0.0
 40
0
 41
0
  0
VERTEX
  8
0
 10
8.60747
 20
4.27067
 30
0.0
 40
0
 41
0
  0
VERTEX
  8
0
 10
8.60747
 20
4.99414
 30
0.0
 40
0
 41
0
  0
SEQEND
 8
0
  0
POLYLINE
  8
0
 62
     0
 66
     1
 10
0
 20
0
 30
0.0
 70
     1
 40
0.15
 41
0.15
  0
VERTEX
  8
0
 10
8.60747
 20
4.99414
 30
0.0
 40
0.00208333
 41
0.00208333
  0
VERTEX
  8
0
 10
8.78456
 20
4.99414
 30
0.0
 40
0.00208333
 41
0.00208333
  0
VERTEX
  8
0
 10
8.78456
 20
4.27067
 30
0.0
 40
0.00208333
 41
0.00208333
  0
VERTEX
  8
0
 10
8.60747
 20
4.27067
 30
0.0
 40
0.00208333
 41
0.00208333
  0
VERTEX
  8
0
 10
8.60747
 20
4.99414
 30
0.0
 40
0.00208333
 41
0.00208333
  0
SEQEND
 8
0
  0
POLYLINE
  8
0
 62
     0
 66
     1
 10
0
 20
0
 30
0.0
 70
     1
 40
0
 41
0
  0
VERTEX
  8
0
 10
8.60747
 20
11.9596
 30
0.0
 40
0
 41
0
  0
VERTEX
  8
0
 10
8.78456
 20
11.9596
 30
0.0
 40
0
 41
0
  0
VERTEX
  8
0
 10
8.78456
 20
5.87299
 30
0.0
 40
0
 41
0
  0
VERTEX
  8
0
 10
8.60747
 20
5.87299
 30
0.0
 40
0
 41
0
  0
VERTEX
  8
0
 10
8.60747
 20
11.9596
 30
0.0
 40
0
 41
0
  0
SEQEND
 8
0
  0
POLYLINE
  8
0
 62
     0
 66
     1
 10
0
 20
0
 30
0.0
 70
     1
 40
0.15
 41
0.15
  0
VERTEX
  8
0
 10
8.60747
 20
11.9596
 30
0.0
 40
0.00208333
 41
0.00208333
  0
VERTEX
  8
0
 10
8.78456
 20
11.9596
 30
0.0
 40
0.00208333
 41
0.00208333
  0
VERTEX
  8
0
 10
8.78456
 20
5.87299
 30
0.0
 40
0.00208333
 41
0.00208333
  0
VERTEX
  8
0
 10
8.60747
 20
5.87299
 30
0.0
 40
0.00208333
 41
0.00208333
  0
VERTEX
  8
0
 10
8.60747
 20
11.9596
 30
0.0
 40
0.00208333
 41
0.00208333
  0
SEQEND
 8
0
  0
POLYLINE
  8
0
 62
     0
 66
     1
 10
0
 20
0
 30
0.0
 70
     1
 40
0
 41
0
  0
VERTEX
  8
0
 10
6.43294
 20
10.0387
 30
0.0
 40
0
 41
0
  0
VERTEX
  8
0
 10
8.78456
 20
10.0387
 30
0.0
 40
0
 41
0
  0
VERTEX
  8
0
 10
8.78456
 20
9.8929
 30
0.0
 40
0
 41
0
  0
VERTEX
  8
0
 10
6.43294
 20
9.8929
 30
0.0
 40
0
 41
0
  0
VERTEX
  8
0
 10
6.43294
 20
10.0387
 30
0.0
 40
0
 41
0
  0
SEQEND
 8
0
  0
POLYLINE
  8
0
 62
     0
 66
     1
 10
0
 20
0
 30
0.0
 70
     1
 40
0.15
 41
0.15
  0
VERTEX
  8
0
 10
6.43294
 20
10.0387
 30
0.0
 40
0.00208333
 41
0.00208333
  0
VERTEX
  8
0
 10
8.78456
 20
10.0387
 30
0.0
 40
0.00208333
 41
0.00208333
  0
VERTEX
  8
0
 10
8.78456
 20
9.8929
 30
0.0
 40
0.00208333
 41
0.00208333
  0
VERTEX
  8
0
 10
6.43294
 20
9.8929
 30
0.0
 40
0.00208333
 41
0.00208333
  0
VERTEX
  8
0
 10
6.43294
 20
10.0387
 30
0.0
 40
0.00208333
 41
0.00208333
  0
SEQEND
 8
0
  0
POLYLINE
  8
0
 62
     7
 66
     1
 10
0
 20
0
 30
0.0
 70
     1
 40
0
 41
0
  0
VERTEX
  8
0
 10
6.72
 20
10.0387
 30
0.0
 40
0
 41
0
  0
VERTEX
  8
0
 10
7.54656
 20
10.0387
 30
0.0
 40
0
 41
0
  0
VERTEX
  8
0
 10
7.54656
 20
9.8929
 30
0.0
 40
0
 41
0
  0
VERTEX
  8
0
 10
6.72
 20
9.8929
 30
0.0
 40
0
 41
0
  0
VERTEX
  8
0
 10
6.72
 20
10.0387
 30
0.0
 40
0
 41
0
  0
SEQEND
 8
0
  0
POLYLINE
  8
0
 62
     0
 66
     1
 10
0
 20
0
 30
0.0
 70
     1
 40
0.75
 41
0.75
  0
VERTEX
  8
0
 10
6.72
 20
10.0387
 30
0.0
 40
0.0104167
 41
0.0104167
  0
VERTEX
  8
0
 10
7.54656
 20
10.0387
 30
0.0
 40
0.0104167
 41
0.0104167
  0
VERTEX
  8
0
 10
7.54656
 20
9.8929
 30
0.0
 40
0.0104167
 41
0.0104167
  0
VERTEX
  8
0
 10
6.72
 20
9.8929
 30
0.0
 40
0.0104167
 41
0.0104167
  0
VERTEX
  8
0
 10
6.72
 20
10.0387
 30
0.0
 40
0.0104167
 41
0.0104167
  0
SEQEND
 8
0
  0
POLYLINE
  8
0
 62
     7
 66
     1
 10
0
 20
0
 30
0.0
 70
     1
 40
0
 41
0
  0
VERTEX
  8
0
 10
6.72
 20
10.0387
 30
0.0
 40
0
 41
0
  0
VERTEX
  8
0
 10
7.54656
 20
10.0387
 30
0.0
 40
0
 41
0
  0
VERTEX
  8
0
 10
7.54656
 20
9.8929
 30
0.0
 40
0
 41
0
  0
VERTEX
  8
0
 10
6.72
 20
9.8929
 30
0.0
 40
0
 41
0
  0
VERTEX
  8
0
 10
6.72
 20
10.0387
 30
0.0
 40
0
 41
0
  0
SEQEND
 8
0
  0
POLYLINE
  8
0
 62
     0
 66
     1
 10
0
 20
0
 30
0.0
 70
     1
 40
0.75
 41
0.75
  0
VERTEX
  8
0
 10
6.72
 20
10.0387
 30
0.0
 40
0.0104167
 41
0.0104167
  0
VERTEX
  8
0
 10
7.54656
 20
10.0387
 30
0.0
 40
0.0104167
 41
0.0104167
  0
VERTEX
  8
0
 10
7.54656
 20
9.8929
 30
0.0
 40
0.0104167
 41
0.0104167
  0
VERTEX
  8
0
 10
6.72
 20
9.8929
 30
0.0
 40
0.0104167
 41
0.0104167
  0
VERTEX
  8
0
 10
6.72
 20
10.0387
 30
0.0
 40
0.0104167
 41
0.0104167
  0
SEQEND
 8
0
  0
POLYLINE
  8
0
 62
     0
 66
     1
 10
0
 20
0
 30
0.0
 70
     1
 40
0.75
 41
0.75
  0
VERTEX
  8
0
 10
7.54656
 20
9.8929
 30
0.0
 40
0.0104167
 41
0.0104167
  0
VERTEX
  8
0
 10
7.54656
 20
9.84451
 30
0.0
 40
0.0104167
 41
0.0104167
  0
VERTEX
  8
0
 10
7.53358
 20
9.69917
 30
0.0
 40
0.0104167
 41
0.0104167
  0
VERTEX
  8
0
 10
7.49485
 20
9.53125
 30
0.0
 40
0.0104167
 41
0.0104167
  0
VERTEX
  8
0
 10
7.43028
 20
9.38917
 30
0.0
 40
0.0104167
 41
0.0104167
  0
VERTEX
  8
0
 10
7.33985
 20
9.27289
 30
0.0
 40
0.0104167
 41
0.0104167
  0
VERTEX
  8
0
 10
7.22364
 20
9.18251
 30
0.0
 40
0.0104167
 41
0.0104167
  0
VERTEX
  8
0
 10
7.08154
 20
9.11789
 30
0.0
 40
0.0104167
 41
0.0104167
  0
VERTEX
  8
0
 10
6.91363
 20
9.07915
 30
0.0
 40
0.0104167
 41
0.0104167
  0
VERTEX
  8
0
 10
6.76828
 20
9.06619
 30
0.0
 40
0.0104167
 41
0.0104167
  0
VERTEX
  8
0
 10
6.71989
 20
9.06619
 30
0.0
 40
0.0104167
 41
0.0104167
  0
VERTEX
  8
0
 10
6.71989
 20
9.8929
 30
0.0
 40
0.0104167
 41
0.0104167
  0
VERTEX
  8
0
 10
7.54656
 20
9.8929
 30
0.0
 40
0.0104167
 41
0.0104167
  0
SEQEND
 8
0
  0
POLYLINE
  8
0
 62
     0
 66
     1
 10
0
 20
0
 30
0.0
 70
     1
 40
0
 41
0
  0
VERTEX
  8
0
 10
8.24832
 20
10.236
 30
0.0
 40
0
 41
0
  0
VERTEX
  8
0
 10
8.60747
 20
10.236
 30
0.0
 40
0
 41
0
  0
VERTEX
  8
0
 10
8.60747
 20
9.8929
 30
0.0
 40
0
 41
0
  0
VERTEX
  8
0
 10
8.24832
 20
9.8929
 30
0.0
 40
0
 41
0
  0
VERTEX
  8
0
 10
8.24832
 20
10.236
 30
0.0
 40
0
 41
0
  0
SEQEND
 8
0
  0
POLYLINE
  8
0
 62
     0
 66
     1
 10
0
 20
0
 30
0.0
 70
     1
 40
0.15
 41
0.15
  0
VERTEX
  8
0
 10
8.24832
 20
10.236
 30
0.0
 40
0.00208333
 41
0.00208333
  0
VERTEX
  8
0
 10
8.60747
 20
10.236
 30
0.0
 40
0.00208333
 41
0.00208333
  0
VERTEX
  8
0
 10
8.60747
 20
9.8929
 30
0.0
 40
0.00208333
 41
0.00208333
  0
VERTEX
  8
0
 10
8.24832
 20
9.8929
 30
0.0
 40
0.00208333
 41
0.00208333
  0
VERTEX
  8
0
 10
8.24832
 20
10.236
 30
0.0
 40
0.00208333
 41
0.00208333
  0
SEQEND
 8
0
  0
POLYLINE
  8
0
 62
     0
 66
     1
 10
0
 20
0
 30
0.0
 70
     1
 40
0
 41
0
  0
VERTEX
  8
0
 10
2.22542
 20
8.89165
 30
0.0
 40
0
 41
0
  0
VERTEX
  8
0
 10
6.57878
 20
8.89165
 30
0.0
 40
0
 41
0
  0
VERTEX
  8
0
 10
6.57878
 20
8.74582
 30
0.0
 40
0
 41
0
  0
VERTEX
  8
0
 10
2.22542
 20
8.74582
 30
0.0
 40
0
 41
0
  0
VERTEX
  8
0
 10
2.22542
 20
8.89165
 30
0.0
 40
0
 41
0
  0
SEQEND
 8
0
  0
POLYLINE
  8
0
 62
     0
 66
     1
 10
0
 20
0
 30
0.0
 70
     1
 40
0.15
 41
0.15
  0
VERTEX
  8
0
 10
2.22542
 20
8.89165
 30
0.0
 40
0.00208333
 41
0.00208333
  0
VERTEX
  8
0
 10
6.57878
 20
8.89165
 30
0.0
 40
0.00208333
 41
0.00208333
  0
VERTEX
  8
0
 10
6.57878
 20
8.74582
 30
0.0
 40
0.00208333
 41
0.00208333
  0
VERTEX
  8
0
 10
2.22542
 20
8.74582
 30
0.0
 40
0.00208333
 41
0.00208333
  0
VERTEX
  8
0
 10
2.22542
 20
8.89165
 30
0.0
 40
0.00208333
 41
0.00208333
  0
SEQEND
 8
0
  0
POLYLINE
  8
0
 62
     0
 66
     1
 10
0
 20
0
 30
0.0
 70
     1
 40
0
 41
0
  0
VERTEX
  8
0
 10
13.0221
 20
7.68164
 30
0.0
 40
0
 41
0
  0
VERTEX
  8
0
 10
14.8003
 20
7.68164
 30
0.0
 40
0
 41
0
  0
VERTEX
  8
0
 10
14.8003
 20
7.51497
 30
0.0
 40
0
 41
0
  0
VERTEX
  8
0
 10
13.0221
 20
7.51497
 30
0.0
 40
0
 41
0
  0
VERTEX
  8
0
 10
13.0221
 20
7.68164
 30
0.0
 40
0
 41
0
  0
SEQEND
 8
0
  0
POLYLINE
  8
0
 62
     0
 66
     1
 10
0
 20
0
 30
0.0
 70
     1
 40
0.15
 41
0.15
  0
VERTEX
  8
0
 10
13.0221
 20
7.68164
 30
0.0
 40
0.00208333
 41
0.00208333
  0
VERTEX
  8
0
 10
14.8003
 20
7.68164
 30
0.0
 40
0.00208333
 41
0.00208333
  0
VERTEX
  8
0
 10
14.8003
 20
7.51497
 30
0.0
 40
0.00208333
 41
0.00208333
  0
VERTEX
  8
0
 10
13.0221
 20
7.51497
 30
0.0
 40
0.00208333
 41
0.00208333
  0
VERTEX
  8
0
 10
13.0221
 20
7.68164
 30
0.0
 40
0.00208333
 41
0.00208333
  0
SEQEND
 8
0
  0
POLYLINE
  8
0
 62
     0
 66
     1
 10
0
 20
0
 30
0.0
 70
     1
 40
0
 41
0
  0
VERTEX
  8
0
 10
6.43294
 20
7.68164
 30
0.0
 40
0
 41
0
  0
VERTEX
  8
0
 10
12.0766
 20
7.68164
 30
0.0
 40
0
 41
0
  0
VERTEX
  8
0
 10
12.0766
 20
7.51497
 30
0.0
 40
0
 41
0
  0
VERTEX
  8
0
 10
6.43294
 20
7.51497
 30
0.0
 40
0
 41
0
  0
VERTEX
  8
0
 10
6.43294
 20
7.68164
 30
0.0
 40
0
 41
0
  0
SEQEND
 8
0
  0
POLYLINE
  8
0
 62
     0
 66
     1
 10
0
 20
0
 30
0.0
 70
     1
 40
0.15
 41
0.15
  0
VERTEX
  8
0
 10
6.43294
 20
7.68164
 30
0.0
 40
0.00208333
 41
0.00208333
  0
VERTEX
  8
0
 10
12.0766
 20
7.68164
 30
0.0
 40
0.00208333
 41
0.00208333
  0
VERTEX
  8
0
 10
12.0766
 20
7.51497
 30
0.0
 40
0.00208333
 41
0.00208333
  0
VERTEX
  8
0
 10
6.43294
 20
7.51497
 30
0.0
 40
0.00208333
 41
0.00208333
  0
VERTEX
  8
0
 10
6.43294
 20
7.68164
 30
0.0
 40
0.00208333
 41
0.00208333
  0
SEQEND
 8
0
  0
POLYLINE
  8
0
 62
     7
 66
     1
 10
0
 20
0
 30
0.0
 70
     1
 40
0
 41
0
  0
VERTEX
  8
0
 10
6.7724
 20
7.68164
 30
0.0
 40
0
 41
0
  0
VERTEX
  8
0
 10
7.58479
 20
7.68164
 30
0.0
 40
0
 41
0
  0
VERTEX
  8
0
 10
7.58479
 20
7.51497
 30
0.0
 40
0
 41
0
  0
VERTEX
  8
0
 10
6.7724
 20
7.51497
 30
0.0
 40
0
 41
0
  0
VERTEX
  8
0
 10
6.7724
 20
7.68164
 30
0.0
 40
0
 41
0
  0
SEQEND
 8
0
  0
POLYLINE
  8
0
 62
     0
 66
     1
 10
0
 20
0
 30
0.0
 70
     1
 40
0.75
 41
0.75
  0
VERTEX
  8
0
 10
6.7724
 20
7.68164
 30
0.0
 40
0.0104167
 41
0.0104167
  0
VERTEX
  8
0
 10
7.58479
 20
7.68164
 30
0.0
 40
0.0104167
 41
0.0104167
  0
VERTEX
  8
0
 10
7.58479
 20
7.51497
 30
0.0
 40
0.0104167
 41
0.0104167
  0
VERTEX
  8
0
 10
6.7724
 20
7.51497
 30
0.0
 40
0.0104167
 41
0.0104167
  0
VERTEX
  8
0
 10
6.7724
 20
7.68164
 30
0.0
 40
0.0104167
 41
0.0104167
  0
SEQEND
 8
0
  0
POLYLINE
  8
0
 62
     7
 66
     1
 10
0
 20
0
 30
0.0
 70
     1
 40
0
 41
0
  0
VERTEX
  8
0
 10
6.7724
 20
7.68164
 30
0.0
 40
0
 41
0
  0
VERTEX
  8
0
 10
7.58479
 20
7.68164
 30
0.0
 40
0
 41
0
  0
VERTEX
  8
0
 10
7.58479
 20
7.51497
 30
0.0
 40
0
 41
0
  0
VERTEX
  8
0
 10
6.7724
 20
7.51497
 30
0.0
 40
0
 41
0
  0
VERTEX
  8
0
 10
6.7724
 20
7.68164
 30
0.0
 40
0
 41
0
  0
SEQEND
 8
0
  0
POLYLINE
  8
0
 62
     0
 66
     1
 10
0
 20
0
 30
0.0
 70
     1
 40
0.75
 41
0.75
  0
VERTEX
  8
0
 10
6.7724
 20
7.68164
 30
0.0
 40
0.0104167
 41
0.0104167
  0
VERTEX
  8
0
 10
7.58479
 20
7.68164
 30
0.0
 40
0.0104167
 41
0.0104167
  0
VERTEX
  8
0
 10
7.58479
 20
7.51497
 30
0.0
 40
0.0104167
 41
0.0104167
  0
VERTEX
  8
0
 10
6.7724
 20
7.51497
 30
0.0
 40
0.0104167
 41
0.0104167
  0
VERTEX
  8
0
 10
6.7724
 20
7.68164
 30
0.0
 40
0.0104167
 41
0.0104167
  0
SEQEND
 8
0
  0
POLYLINE
  8
0
 62
     0
 66
     1
 10
0
 20
0
 30
0.0
 70
     1
 40
0.75
 41
0.75
  0
VERTEX
  8
0
 10
7.58479
 20
7.51497
 30
0.0
 40
0.0104167
 41
0.0104167
  0
VERTEX
  8
0
 10
7.58479
 20
7.46739
 30
0.0
 40
0.0104167
 41
0.0104167
  0
VERTEX
  8
0
 10
7.5721
 20
7.3246
 30
0.0
 40
0.0104167
 41
0.0104167
  0
VERTEX
  8
0
 10
7.53401
 20
7.15956
 30
0.0
 40
0.0104167
 41
0.0104167
  0
VERTEX
  8
0
 10
7.47054
 20
7.01997
 30
0.0
 40
0.0104167
 41
0.0104167
  0
VERTEX
  8
0
 10
7.38167
 20
6.90571
 30
0.0
 40
0.0104167
 41
0.0104167
  0
VERTEX
  8
0
 10
7.26742
 20
6.81685
 30
0.0
 40
0.0104167
 41
0.0104167
  0
VERTEX
  8
0
 10
7.12782
 20
6.75336
 30
0.0
 40
0.0104167
 41
0.0104167
  0
VERTEX
  8
0
 10
6.96278
 20
6.71528
 30
0.0
 40
0.0104167
 41
0.0104167
  0
VERTEX
  8
0
 10
6.81999
 20
6.70258
 30
0.0
 40
0.0104167
 41
0.0104167
  0
VERTEX
  8
0
 10
6.7724
 20
6.70258
 30
0.0
 40
0.0104167
 41
0.0104167
  0
VERTEX
  8
0
 10
6.7724
 20
7.51497
 30
0.0
 40
0.0104167
 41
0.0104167
  0
VERTEX
  8
0
 10
7.58479
 20
7.51497
 30
0.0
 40
0.0104167
 41
0.0104167
  0
SEQEND
 8
0
  0
POLYLINE
  8
0
 62
     0
 66
     1
 10
0
 20
0
 30
0.0
 70
     1
 40
0
 41
0
  0
VERTEX
  8
0
 10
9.87739
 20
4.12392
 30
0.0
 40
0
 41
0
  0
VERTEX
  8
0
 10
12.8883
 20
4.12392
 30
0.0
 40
0
 41
0
  0
VERTEX
  8
0
 10
12.8883
 20
3.97808
 30
0.0
 40
0
 41
0
  0
VERTEX
  8
0
 10
9.87739
 20
3.97808
 30
0.0
 40
0
 41
0
  0
VERTEX
  8
0
 10
9.87739
 20
4.12392
 30
0.0
 40
0
 41
0
  0
SEQEND
 8
0
  0
POLYLINE
  8
0
 62
     0
 66
     1
 10
0
 20
0
 30
0.0
 70
     1
 40
0.15
 41
0.15
  0
VERTEX
  8
0
 10
9.87739
 20
4.12392
 30
0.0
 40
0.00208333
 41
0.00208333
  0
VERTEX
  8
0
 10
12.8883
 20
4.12392
 30
0.0
 40
0.00208333
 41
0.00208333
  0
VERTEX
  8
0
 10
12.8883
 20
3.97808
 30
0.0
 40
0.00208333
 41
0.00208333
  0
VERTEX
  8
0
 10
9.87739
 20
3.97808
 30
0.0
 40
0.00208333
 41
0.00208333
  0
VERTEX
  8
0
 10
9.87739
 20
4.12392
 30
0.0
 40
0.00208333
 41
0.00208333
  0
SEQEND
 8
0
  0
POLYLINE
  8
0
 62
     0
 66
     1
 10
0
 20
0
 30
0.0
 70
     1
 40
0
 41
0
  0
VERTEX
  8
0
 10
13.8465
 20
4.12392
 30
0.0
 40
0
 41
0
  0
VERTEX
  8
0
 10
14.9565
 20
4.12392
 30
0.0
 40
0
 41
0
  0
VERTEX
  8
0
 10
14.9565
 20
3.97808
 30
0.0
 40
0
 41
0
  0
VERTEX
  8
0
 10
13.8465
 20
3.97808
 30
0.0
 40
0
 41
0
  0
VERTEX
  8
0
 10
13.8465
 20
4.12392
 30
0.0
 40
0
 41
0
  0
SEQEND
 8
0
  0
POLYLINE
  8
0
 62
     0
 66
     1
 10
0
 20
0
 30
0.0
 70
     1
 40
0.15
 41
0.15
  0
VERTEX
  8
0
 10
13.8465
 20
4.12392
 30
0.0
 40
0.00208333
 41
0.00208333
  0
VERTEX
  8
0
 10
14.9565
 20
4.12392
 30
0.0
 40
0.00208333
 41
0.00208333
  0
VERTEX
  8
0
 10
14.9565
 20
3.97808
 30
0.0
 40
0.00208333
 41
0.00208333
  0
VERTEX
  8
0
 10
13.8465
 20
3.97808
 30
0.0
 40
0.00208333
 41
0.00208333
  0
VERTEX
  8
0
 10
13.8465
 20
4.12392
 30
0.0
 40
0.00208333
 41
0.00208333
  0
SEQEND
 8
0
  0
POLYLINE
  8
0
 62
     0
 66
     1
 10
0
 20
0
 30
0.0
 70
     1
 40
0
 41
0
  0
VERTEX
  8
0
 10
8.62831
 20
4.12392
 30
0.0
 40
0
 41
0
  0
VERTEX
  8
0
 10
9.08919
 20
4.12392
 30
0.0
 40
0
 41
0
  0
VERTEX
  8
0
 10
9.08919
 20
3.97808
 30
0.0
 40
0
 41
0
  0
VERTEX
  8
0
 10
8.62831
 20
3.97808
 30
0.0
 40
0
 41
0
  0
VERTEX
  8
0
 10
8.62831
 20
4.12392
 30
0.0
 40
0
 41
0
  0
SEQEND
 8
0
  0
POLYLINE
  8
0
 62
     0
 66
     1
 10
0
 20
0
 30
0.0
 70
     1
 40
0.15
 41
0.15
  0
VERTEX
  8
0
 10
8.62831
 20
4.12392
 30
0.0
 40
0.00208333
 41
0.00208333
  0
VERTEX
  8
0
 10
9.08919
 20
4.12392
 30
0.0
 40
0.00208333
 41
0.00208333
  0
VERTEX
  8
0
 10
9.08919
 20
3.97808
 30
0.0
 40
0.00208333
 41
0.00208333
  0
VERTEX
  8
0
 10
8.62831
 20
3.97808
 30
0.0
 40
0.00208333
 41
0.00208333
  0
VERTEX
  8
0
 10
8.62831
 20
4.12392
 30
0.0
 40
0.00208333
 41
0.00208333
  0
SEQEND
 8
0
  0
POLYLINE
  8
0
 62
     0
 66
     1
 10
0
 20
0
 30
0.0
 70
     1
 40
0
 41
0
  0
VERTEX
  8
0
 10
6.43294
 20
6.18767
 30
0.0
 40
0
 41
0
  0
VERTEX
  8
0
 10
8.78456
 20
6.18767
 30
0.0
 40
0
 41
0
  0
VERTEX
  8
0
 10
8.78456
 20
6.021
 30
0.0
 40
0
 41
0
  0
VERTEX
  8
0
 10
6.43294
 20
6.021
 30
0.0
 40
0
 41
0
  0
VERTEX
  8
0
 10
6.43294
 20
6.18767
 30
0.0
 40
0
 41
0
  0
SEQEND
 8
0
  0
POLYLINE
  8
0
 62
     0
 66
     1
 10
0
 20
0
 30
0.0
 70
     1
 40
0.15
 41
0.15
  0
VERTEX
  8
0
 10
6.43294
 20
6.18767
 30
0.0
 40
0.00208333
 41
0.00208333
  0
VERTEX
  8
0
 10
8.78456
 20
6.18767
 30
0.0
 40
0.00208333
 41
0.00208333
  0
VERTEX
  8
0
 10
8.78456
 20
6.021
 30
0.0
 40
0.00208333
 41
0.00208333
  0
VERTEX
  8
0
 10
6.43294
 20
6.021
 30
0.0
 40
0.00208333
 41
0.00208333
  0
VERTEX
  8
0
 10
6.43294
 20
6.18767
 30
0.0
 40
0.00208333
 41
0.00208333
  0
SEQEND
 8
0
  0
POLYLINE
  8
0
 62
     7
 66
     1
 10
0
 20
0
 30
0.0
 70
     1
 40
0
 41
0
  0
VERTEX
  8
0
 10
6.78603
 20
6.18767
 30
0.0
 40
0
 41
0
  0
VERTEX
  8
0
 10
7.58783
 20
6.18767
 30
0.0
 40
0
 41
0
  0
VERTEX
  8
0
 10
7.58783
 20
6.021
 30
0.0
 40
0
 41
0
  0
VERTEX
  8
0
 10
6.78603
 20
6.021
 30
0.0
 40
0
 41
0
  0
VERTEX
  8
0
 10
6.78603
 20
6.18767
 30
0.0
 40
0
 41
0
  0
SEQEND
 8
0
  0
POLYLINE
  8
0
 62
     0
 66
     1
 10
0
 20
0
 30
0.0
 70
     1
 40
0.75
 41
0.75
  0
VERTEX
  8
0
 10
6.78603
 20
6.18767
 30
0.0
 40
0.0104167
 41
0.0104167
  0
VERTEX
  8
0
 10
7.58783
 20
6.18767
 30
0.0
 40
0.0104167
 41
0.0104167
  0
VERTEX
  8
0
 10
7.58783
 20
6.021
 30
0.0
 40
0.0104167
 41
0.0104167
  0
VERTEX
  8
0
 10
6.78603
 20
6.021
 30
0.0
 40
0.0104167
 41
0.0104167
  0
VERTEX
  8
0
 10
6.78603
 20
6.18767
 30
0.0
 40
0.0104167
 41
0.0104167
  0
SEQEND
 8
0
  0
POLYLINE
  8
0
 62
     7
 66
     1
 10
0
 20
0
 30
0.0
 70
     1
 40
0
 41
0
  0
VERTEX
  8
0
 10
6.78603
 20
6.18767
 30
0.0
 40
0
 41
0
  0
VERTEX
  8
0
 10
7.58783
 20
6.18767
 30
0.0
 40
0
 41
0
  0
VERTEX
  8
0
 10
7.58783
 20
6.021
 30
0.0
 40
0
 41
0
  0
VERTEX
  8
0
 10
6.78603
 20
6.021
 30
0.0
 40
0
 41
0
  0
VERTEX
  8
0
 10
6.78603
 20
6.18767
 30
0.0
 40
0
 41
0
  0
SEQEND
 8
0
  0
POLYLINE
  8
0
 62
     0
 66
     1
 10
0
 20
0
 30
0.0
 70
     1
 40
0.75
 41
0.75
  0
VERTEX
  8
0
 10
6.78603
 20
6.18767
 30
0.0
 40
0.0104167
 41
0.0104167
  0
VERTEX
  8
0
 10
7.58783
 20
6.18767
 30
0.0
 40
0.0104167
 41
0.0104167
  0
VERTEX
  8
0
 10
7.58783
 20
6.021
 30
0.0
 40
0.0104167
 41
0.0104167
  0
VERTEX
  8
0
 10
6.78603
 20
6.021
 30
0.0
 40
0.0104167
 41
0.0104167
  0
VERTEX
  8
0
 10
6.78603
 20
6.18767
 30
0.0
 40
0.0104167
 41
0.0104167
  0
SEQEND
 8
0
  0
POLYLINE
  8
0
 62
     0
 66
     1
 10
0
 20
0
 30
0.0
 70
     1
 40
0.75
 41
0.75
  0
VERTEX
  8
0
 10
7.58783
 20
6.021
 30
0.0
 40
0.0104167
 41
0.0104167
  0
VERTEX
  8
0
 10
7.58783
 20
5.97407
 30
0.0
 40
0.0104167
 41
0.0104167
  0
VERTEX
  8
0
 10
7.57531
 20
5.83311
 30
0.0
 40
0.0104167
 41
0.0104167
  0
VERTEX
  8
0
 10
7.53771
 20
5.67025
 30
0.0
 40
0.0104167
 41
0.0104167
  0
VERTEX
  8
0
 10
7.47504
 20
5.53244
 30
0.0
 40
0.0104167
 41
0.0104167
  0
VERTEX
  8
0
 10
7.38737
 20
5.41971
 30
0.0
 40
0.0104167
 41
0.0104167
  0
VERTEX
  8
0
 10
7.27458
 20
5.33203
 30
0.0
 40
0.0104167
 41
0.0104167
  0
VERTEX
  8
0
 10
7.13678
 20
5.26937
 30
0.0
 40
0.0104167
 41
0.0104167
  0
VERTEX
  8
0
 10
6.9739
 20
5.23178
 30
0.0
 40
0.0104167
 41
0.0104167
  0
VERTEX
  8
0
 10
6.83296
 20
5.21924
 30
0.0
 40
0.0104167
 41
0.0104167
  0
VERTEX
  8
0
 10
6.78603
 20
5.21924
 30
0.0
 40
0.0104167
 41
0.0104167
  0
VERTEX
  8
0
 10
6.78603
 20
6.021
 30
0.0
 40
0.0104167
 41
0.0104167
  0
VERTEX
  8
0
 10
7.58783
 20
6.021
 30
0.0
 40
0.0104167
 41
0.0104167
  0
SEQEND
 8
0
  0
POLYLINE
  8
0
 62
     0
 66
     1
 10
0
 20
0
 30
0.0
 70
     1
 40
0
 41
0
  0
VERTEX
  8
0
 10
8.78456
 20
6.021
 30
0.0
 40
0
 41
0
  0
VERTEX
  8
0
 10
10.7857
 20
6.021
 30
0.0
 40
0
 41
0
  0
VERTEX
  8
0
 10
10.9003
 20
6.18767
 30
0.0
 40
0
 41
0
  0
VERTEX
  8
0
 10
8.78456
 20
6.18767
 30
0.0
 40
0
 41
0
  0
VERTEX
  8
0
 10
8.78456
 20
6.021
 30
0.0
 40
0
 41
0
  0
SEQEND
 8
0
  0
POLYLINE
  8
0
 62
     0
 66
     1
 10
0
 20
0
 30
0.0
 70
     1
 40
0.15
 41
0.15
  0
VERTEX
  8
0
 10
8.78456
 20
6.021
 30
0.0
 40
0.00208333
 41
0.00208333
  0
VERTEX
  8
0
 10
10.7857
 20
6.021
 30
0.0
 40
0.00208333
 41
0.00208333
  0
VERTEX
  8
0
 10
10.9003
 20
6.18767
 30
0.0
 40
0.00208333
 41
0.00208333
  0
VERTEX
  8
0
 10
8.78456
 20
6.18767
 30
0.0
 40
0.00208333
 41
0.00208333
  0
VERTEX
  8
0
 10
8.78456
 20
6.021
 30
0.0
 40
0.00208333
 41
0.00208333
  0
SEQEND
 8
0
  0
POLYLINE
  8
0
 62
     7
 66
     1
 10
0
 20
0
 30
0.0
 70
     1
 40
0
 41
0
  0
VERTEX
  8
0
 10
9.14106
 20
6.18767
 30
0.0
 40
0
 41
0
  0
VERTEX
  8
0
 10
9.88542
 20
6.18767
 30
0.0
 40
0
 41
0
  0
VERTEX
  8
0
 10
9.88542
 20
6.021
 30
0.0
 40
0
 41
0
  0
VERTEX
  8
0
 10
9.14106
 20
6.021
 30
0.0
 40
0
 41
0
  0
VERTEX
  8
0
 10
9.14106
 20
6.18767
 30
0.0
 40
0
 41
0
  0
SEQEND
 8
0
  0
POLYLINE
  8
0
 62
     0
 66
     1
 10
0
 20
0
 30
0.0
 70
     1
 40
0.75
 41
0.75
  0
VERTEX
  8
0
 10
9.14106
 20
6.18767
 30
0.0
 40
0.0104167
 41
0.0104167
  0
VERTEX
  8
0
 10
9.88542
 20
6.18767
 30
0.0
 40
0.0104167
 41
0.0104167
  0
VERTEX
  8
0
 10
9.88542
 20
6.021
 30
0.0
 40
0.0104167
 41
0.0104167
  0
VERTEX
  8
0
 10
9.14106
 20
6.021
 30
0.0
 40
0.0104167
 41
0.0104167
  0
VERTEX
  8
0
 10
9.14106
 20
6.18767
 30
0.0
 40
0.0104167
 41
0.0104167
  0
SEQEND
 8
0
  0
POLYLINE
  8
0
 62
     7
 66
     1
 10
0
 20
0
 30
0.0
 70
     1
 40
0
 41
0
  0
VERTEX
  8
0
 10
9.14106
 20
6.18767
 30
0.0
 40
0
 41
0
  0
VERTEX
  8
0
 10
9.88542
 20
6.18767
 30
0.0
 40
0
 41
0
  0
VERTEX
  8
0
 10
9.88542
 20
6.021
 30
0.0
 40
0
 41
0
  0
VERTEX
  8
0
 10
9.14106
 20
6.021
 30
0.0
 40
0
 41
0
  0
VERTEX
  8
0
 10
9.14106
 20
6.18767
 30
0.0
 40
0
 41
0
  0
SEQEND
 8
0
  0
POLYLINE
  8
0
 62
     0
 66
     1
 10
0
 20
0
 30
0.0
 70
     1
 40
0.75
 41
0.75
  0
VERTEX
  8
0
 10
9.14106
 20
6.18767
 30
0.0
 40
0.0104167
 41
0.0104167
  0
VERTEX
  8
0
 10
9.88542
 20
6.18767
 30
0.0
 40
0.0104167
 41
0.0104167
  0
VERTEX
  8
0
 10
9.88542
 20
6.021
 30
0.0
 40
0.0104167
 41
0.0104167
  0
VERTEX
  8
0
 10
9.14106
 20
6.021
 30
0.0
 40
0.0104167
 41
0.0104167
  0
VERTEX
  8
0
 10
9.14106
 20
6.18767
 30
0.0
 40
0.0104167
 41
0.0104167
  0
SEQEND
 8
0
  0
POLYLINE
  8
0
 62
     0
 66
     1
 10
0
 20
0
 30
0.0
 70
     1
 40
0.75
 41
0.75
  0
VERTEX
  8
0
 10
9.88542
 20
6.021
 30
0.0
 40
0.0104167
 41
0.0104167
  0
VERTEX
  8
0
 10
9.88542
 20
5.97743
 30
0.0
 40
0.0104167
 41
0.0104167
  0
VERTEX
  8
0
 10
9.87375
 20
5.84657
 30
0.0
 40
0.0104167
 41
0.0104167
  0
VERTEX
  8
0
 10
9.83886
 20
5.69536
 30
0.0
 40
0.0104167
 41
0.0104167
  0
VERTEX
  8
0
 10
9.78071
 20
5.56743
 30
0.0
 40
0.0104167
 41
0.0104167
  0
VERTEX
  8
0
 10
9.69933
 20
5.46272
 30
0.0
 40
0.0104167
 41
0.0104167
  0
VERTEX
  8
0
 10
9.59462
 20
5.38135
 30
0.0
 40
0.0104167
 41
0.0104167
  0
VERTEX
  8
0
 10
9.46669
 20
5.32319
 30
0.0
 40
0.0104167
 41
0.0104167
  0
VERTEX
  8
0
 10
9.31549
 20
5.28831
 30
0.0
 40
0.0104167
 41
0.0104167
  0
VERTEX
  8
0
 10
9.18463
 20
5.27664
 30
0.0
 40
0.0104167
 41
0.0104167
  0
VERTEX
  8
0
 10
9.14106
 20
5.27664
 30
0.0
 40
0.0104167
 41
0.0104167
  0
VERTEX
  8
0
 10
9.14106
 20
6.021
 30
0.0
 40
0.0104167
 41
0.0104167
  0
VERTEX
  8
0
 10
9.88542
 20
6.021
 30
0.0
 40
0.0104167
 41
0.0104167
  0
SEQEND
 8
0
  0
POLYLINE
  8
0
 62
     0
 66
     1
 10
0
 20
0
 30
0.0
 70
     1
 40
0
 41
0
  0
VERTEX
  8
0
 10
10.7857
 20
7.68164
 30
0.0
 40
0
 41
0
  0
VERTEX
  8
0
 10
10.9003
 20
7.68164
 30
0.0
 40
0
 41
0
  0
VERTEX
  8
0
 10
10.9003
 20
6.021
 30
0.0
 40
0
 41
0
  0
VERTEX
  8
0
 10
10.7857
 20
6.021
 30
0.0
 40
0
 41
0
  0
VERTEX
  8
0
 10
10.7857
 20
7.68164
 30
0.0
 40
0
 41
0
  0
SEQEND
 8
0
  0
POLYLINE
  8
0
 62
     0
 66
     1
 10
0
 20
0
 30
0.0
 70
     1
 40
0.15
 41
0.15
  0
VERTEX
  8
0
 10
10.7857
 20
7.68164
 30
0.0
 40
0.00208333
 41
0.00208333
  0
VERTEX
  8
0
 10
10.9003
 20
7.68164
 30
0.0
 40
0.00208333
 41
0.00208333
  0
VERTEX
  8
0
 10
10.9003
 20
6.021
 30
0.0
 40
0.00208333
 41
0.00208333
  0
VERTEX
  8
0
 10
10.7857
 20
6.021
 30
0.0
 40
0.00208333
 41
0.00208333
  0
VERTEX
  8
0
 10
10.7857
 20
7.68164
 30
0.0
 40
0.00208333
 41
0.00208333
  0
SEQEND
 8
0
  0
POLYLINE
  8
0
 62
     0
 66
     1
 10
0
 20
0
 30
0.0
 70
     1
 40
0
 41
0
  0
VERTEX
  8
0
 10
10.9003
 20
6.18767
 30
0.0
 40
0
 41
0
  0
VERTEX
  8
0
 10
10.9003
 20
5.87538
 30
0.0
 40
0
 41
0
  0
VERTEX
  8
0
 10
10.7857
 20
5.87538
 30
0.0
 40
0
 41
0
  0
VERTEX
  8
0
 10
10.7857
 20
6.021
 30
0.0
 40
0
 41
0
  0
VERTEX
  8
0
 10
10.9003
 20
6.18767
 30
0.0
 40
0
 41
0
  0
SEQEND
 8
0
  0
POLYLINE
  8
0
 62
     0
 66
     1
 10
0
 20
0
 30
0.0
 70
     1
 40
0.15
 41
0.15
  0
VERTEX
  8
0
 10
10.9003
 20
6.18767
 30
0.0
 40
0.00208333
 41
0.00208333
  0
VERTEX
  8
0
 10
10.9003
 20
5.87538
 30
0.0
 40
0.00208333
 41
0.00208333
  0
VERTEX
  8
0
 10
10.7857
 20
5.87538
 30
0.0
 40
0.00208333
 41
0.00208333
  0
VERTEX
  8
0
 10
10.7857
 20
6.021
 30
0.0
 40
0.00208333
 41
0.00208333
  0
VERTEX
  8
0
 10
10.9003
 20
6.18767
 30
0.0
 40
0.00208333
 41
0.00208333
  0
SEQEND
 8
0
  0
POLYLINE
  8
0
 62
     0
 66
     1
 10
0
 20
0
 30
0.0
 70
     1
 40
0
 41
0
  0
VERTEX
  8
0
 10
10.7857
 20
4.99858
 30
0.0
 40
0
 41
0
  0
VERTEX
  8
0
 10
10.9003
 20
4.99858
 30
0.0
 40
0
 41
0
  0
VERTEX
  8
0
 10
10.9003
 20
3.97808
 30
0.0
 40
0
 41
0
  0
VERTEX
  8
0
 10
10.7857
 20
3.97808
 30
0.0
 40
0
 41
0
  0
VERTEX
  8
0
 10
10.7857
 20
4.99858
 30
0.0
 40
0
 41
0
  0
SEQEND
 8
0
  0
POLYLINE
  8
0
 62
     0
 66
     1
 10
0
 20
0
 30
0.0
 70
     1
 40
0.15
 41
0.15
  0
VERTEX
  8
0
 10
10.7857
 20
4.99858
 30
0.0
 40
0.00208333
 41
0.00208333
  0
VERTEX
  8
0
 10
10.9003
 20
4.99858
 30
0.0
 40
0.00208333
 41
0.00208333
  0
VERTEX
  8
0
 10
10.9003
 20
3.97808
 30
0.0
 40
0.00208333
 41
0.00208333
  0
VERTEX
  8
0
 10
10.7857
 20
3.97808
 30
0.0
 40
0.00208333
 41
0.00208333
  0
VERTEX
  8
0
 10
10.7857
 20
4.99858
 30
0.0
 40
0.00208333
 41
0.00208333
  0
SEQEND
 8
0
  0
POLYLINE
  8
0
 62
     0
 66
     1
 10
0
 20
0
 30
0.0
 70
     1
 40
0
 41
0
  0
VERTEX
  8
0
 10
12.2071
 20
4.12392
 30
0.0
 40
0
 41
0
  0
VERTEX
  8
0
 10
12.3632
 20
4.12392
 30
0.0
 40
0
 41
0
  0
VERTEX
  8
0
 10
12.3632
 20
0.00206164
 30
0.0
 40
0
 41
0
  0
VERTEX
  8
0
 10
12.2071
 20
0.00206164
 30
0.0
 40
0
 41
0
  0
VERTEX
  8
0
 10
12.2071
 20
4.12392
 30
0.0
 40
0
 41
0
  0
SEQEND
 8
0
  0
POLYLINE
  8
0
 62
     0
 66
     1
 10
0
 20
0
 30
0.0
 70
     1
 40
0.15
 41
0.15
  0
VERTEX
  8
0
 10
12.2071
 20
4.12392
 30
0.0
 40
0.00208333
 41
0.00208333
  0
VERTEX
  8
0
 10
12.3632
 20
4.12392
 30
0.0
 40
0.00208333
 41
0.00208333
  0
VERTEX
  8
0
 10
12.3632
 20
0.00206164
 30
0.0
 40
0.00208333
 41
0.00208333
  0
VERTEX
  8
0
 10
12.2071
 20
0.00206164
 30
0.0
 40
0.00208333
 41
0.00208333
  0
VERTEX
  8
0
 10
12.2071
 20
4.12392
 30
0.0
 40
0.00208333
 41
0.00208333
  0
SEQEND
 8
0
  0
POLYLINE
  8
0
 62
     7
 66
     1
 10
0
 20
0
 30
0.0
 70
     1
 40
0
 41
0
  0
VERTEX
  8
0
 10
6.57878
 20
11.7409
 30
0.0
 40
0
 41
0
  0
VERTEX
  8
0
 10
8.01585
 20
11.7409
 30
0.0
 40
0
 41
0
  0
VERTEX
  8
0
 10
8.01585
 20
11.1898
 30
0.0
 40
0
 41
0
  0
VERTEX
  8
0
 10
6.57878
 20
11.1898
 30
0.0
 40
0
 41
0
  0
VERTEX
  8
0
 10
6.57878
 20
11.7409
 30
0.0
 40
0
 41
0
  0
SEQEND
 8
0
  0
POLYLINE
  8
0
 62
     0
 66
     1
 10
0
 20
0
 30
0.0
 70
     1
 40
0.75
 41
0.75
  0
VERTEX
  8
0
 10
6.57878
 20
11.7409
 30
0.0
 40
0.0104167
 41
0.0104167
  0
VERTEX
  8
0
 10
8.01585
 20
11.7409
 30
0.0
 40
0.0104167
 41
0.0104167
  0
VERTEX
  8
0
 10
8.01585
 20
11.1898
 30
0.0
 40
0.0104167
 41
0.0104167
  0
VERTEX
  8
0
 10
6.57878
 20
11.1898
 30
0.0
 40
0.0104167
 41
0.0104167
  0
VERTEX
  8
0
 10
6.57878
 20
11.7409
 30
0.0
 40
0.0104167
 41
0.0104167
  0
SEQEND
 8
0
  0
POLYLINE
  8
0
 62
     253
 66
     1
 10
0
 20
0
 30
0.0
 40
0.375
 41
0.375
  0
VERTEX
  8
0
 10
6.57878
 20
11.7042
 30
0.0
 40
0.00520833
 41
0.00520833
  0
VERTEX
  8
0
 10
8.0159
 20
11.7042
 30
0.0
 40
0.00520833
 41
0.00520833
  0
SEQEND
 8
0
  0
POLYLINE
  8
0
 62
     253
 66
     1
 10
0
 20
0
 30
0.0
 40
0.375
 41
0.375
  0
VERTEX
  8
0
 10
6.57878
 20
11.6674
 30
0.0
 40
0.00520833
 41
0.00520833
  0
VERTEX
  8
0
 10
8.0159
 20
11.6674
 30
0.0
 40
0.00520833
 41
0.00520833
  0
SEQEND
 8
0
  0
POLYLINE
  8
0
 62
     253
 66
     1
 10
0
 20
0
 30
0.0
 40
0.375
 41
0.375
  0
VERTEX
  8
0
 10
6.57878
 20
11.6307
 30
0.0
 40
0.00520833
 41
0.00520833
  0
VERTEX
  8
0
 10
8.0159
 20
11.6307
 30
0.0
 40
0.00520833
 41
0.00520833
  0
SEQEND
 8
0
  0
POLYLINE
  8
0
 62
     253
 66
     1
 10
0
 20
0
 30
0.0
 40
0.375
 41
0.375
  0
VERTEX
  8
0
 10
6.57878
 20
11.594
 30
0.0
 40
0.00520833
 41
0.00520833
  0
VERTEX
  8
0
 10
8.0159
 20
11.594
 30
0.0
 40
0.00520833
 41
0.00520833
  0
SEQEND
 8
0
  0
POLYLINE
  8
0
 62
     253
 66
     1
 10
0
 20
0
 30
0.0
 40
0.375
 41
0.375
  0
VERTEX
  8
0
 10
6.57878
 20
11.5572
 30
0.0
 40
0.00520833
 41
0.00520833
  0
VERTEX
  8
0
 10
8.0159
 20
11.5572
 30
0.0
 40
0.00520833
 41
0.00520833
  0
SEQEND
 8
0
  0
POLYLINE
  8
0
 62
     253
 66
     1
 10
0
 20
0
 30
0.0
 40
0.375
 41
0.375
  0
VERTEX
  8
0
 10
6.57878
 20
11.5205
 30
0.0
 40
0.00520833
 41
0.00520833
  0
VERTEX
  8
0
 10
8.0159
 20
11.5205
 30
0.0
 40
0.00520833
 41
0.00520833
  0
SEQEND
 8
0
  0
POLYLINE
  8
0
 62
     253
 66
     1
 10
0
 20
0
 30
0.0
 40
0.375
 41
0.375
  0
VERTEX
  8
0
 10
6.57878
 20
11.4837
 30
0.0
 40
0.00520833
 41
0.00520833
  0
VERTEX
  8
0
 10
8.0159
 20
11.4837
 30
0.0
 40
0.00520833
 41
0.00520833
  0
SEQEND
 8
0
  0
POLYLINE
  8
0
 62
     253
 66
     1
 10
0
 20
0
 30
0.0
 40
0.375
 41
0.375
  0
VERTEX
  8
0
 10
6.57878
 20
11.447
 30
0.0
 40
0.00520833
 41
0.00520833
  0
VERTEX
  8
0
 10
8.0159
 20
11.447
 30
0.0
 40
0.00520833
 41
0.00520833
  0
SEQEND
 8
0
  0
POLYLINE
  8
0
 62
     253
 66
     1
 10
0
 20
0
 30
0.0
 40
0.375
 41
0.375
  0
VERTEX
  8
0
 10
6.57878
 20
11.4103
 30
0.0
 40
0.00520833
 41
0.00520833
  0
VERTEX
  8
0
 10
8.0159
 20
11.4103
 30
0.0
 40
0.00520833
 41
0.00520833
  0
SEQEND
 8
0
  0
POLYLINE
  8
0
 62
     253
 66
     1
 10
0
 20
0
 30
0.0
 40
0.375
 41
0.375
  0
VERTEX
  8
0
 10
6.57878
 20
11.3735
 30
0.0
 40
0.00520833
 41
0.00520833
  0
VERTEX
  8
0
 10
8.0159
 20
11.3735
 30
0.0
 40
0.00520833
 41
0.00520833
  0
SEQEND
 8
0
  0
POLYLINE
  8
0
 62
     253
 66
     1
 10
0
 20
0
 30
0.0
 40
0.375
 41
0.375
  0
VERTEX
  8
0
 10
6.57878
 20
11.3368
 30
0.0
 40
0.00520833
 41
0.00520833
  0
VERTEX
  8
0
 10
8.0159
 20
11.3368
 30
0.0
 40
0.00520833
 41
0.00520833
  0
SEQEND
 8
0
  0
POLYLINE
  8
0
 62
     253
 66
     1
 10
0
 20
0
 30
0.0
 40
0.375
 41
0.375
  0
VERTEX
  8
0
 10
6.57878
 20
11.3001
 30
0.0
 40
0.00520833
 41
0.00520833
  0
VERTEX
  8
0
 10
8.0159
 20
11.3001
 30
0.0
 40
0.00520833
 41
0.00520833
  0
SEQEND
 8
0
  0
POLYLINE
  8
0
 62
     253
 66
     1
 10
0
 20
0
 30
0.0
 40
0.375
 41
0.375
  0
VERTEX
  8
0
 10
6.57878
 20
11.2633
 30
0.0
 40
0.00520833
 41
0.00520833
  0
VERTEX
  8
0
 10
8.0159
 20
11.2633
 30
0.0
 40
0.00520833
 41
0.00520833
  0
SEQEND
 8
0
  0
POLYLINE
  8
0
 62
     253
 66
     1
 10
0
 20
0
 30
0.0
 40
0.375
 41
0.375
  0
VERTEX
  8
0
 10
6.57878
 20
11.2266
 30
0.0
 40
0.00520833
 41
0.00520833
  0
VERTEX
  8
0
 10
8.0159
 20
11.2266
 30
0.0
 40
0.00520833
 41
0.00520833
  0
SEQEND
 8
0
  0
POLYLINE
  8
0
 62
     7
 66
     1
 10
0
 20
0
 30
0.0
 70
     1
 40
0
 41
0
  0
VERTEX
  8
0
 10
6.57878
 20
11.1887
 30
0.0
 40
0
 41
0
  0
VERTEX
  8
0
 10
8.01644
 20
11.1887
 30
0.0
 40
0
 41
0
  0
VERTEX
  8
0
 10
8.01644
 20
10.9011
 30
0.0
 40
0
 41
0
  0
VERTEX
  8
0
 10
6.57878
 20
10.9011
 30
0.0
 40
0
 41
0
  0
VERTEX
  8
0
 10
6.57878
 20
11.1887
 30
0.0
 40
0
 41
0
  0
SEQEND
 8
0
  0
POLYLINE
  8
0
 62
     0
 66
     1
 10
0
 20
0
 30
0.0
 70
     1
 40
0.75
 41
0.75
  0
VERTEX
  8
0
 10
6.57878
 20
11.1887
 30
0.0
 40
0.0104167
 41
0.0104167
  0
VERTEX
  8
0
 10
8.01644
 20
11.1887
 30
0.0
 40
0.0104167
 41
0.0104167
  0
VERTEX
  8
0
 10
8.01644
 20
10.9011
 30
0.0
 40
0.0104167
 41
0.0104167
  0
VERTEX
  8
0
 10
6.57878
 20
10.9011
 30
0.0
 40
0.0104167
 41
0.0104167
  0
VERTEX
  8
0
 10
6.57878
 20
11.1887
 30
0.0
 40
0.0104167
 41
0.0104167
  0
SEQEND
 8
0
  0
POLYLINE
  8
0
 62
     253
 66
     1
 10
0
 20
0
 30
0.0
 40
0.375
 41
0.375
  0
VERTEX
  8
0
 10
6.57878
 20
11.1599
 30
0.0
 40
0.00520833
 41
0.00520833
  0
VERTEX
  8
0
 10
8.0165
 20
11.1599
 30
0.0
 40
0.00520833
 41
0.00520833
  0
SEQEND
 8
0
  0
POLYLINE
  8
0
 62
     253
 66
     1
 10
0
 20
0
 30
0.0
 40
0.375
 41
0.375
  0
VERTEX
  8
0
 10
6.57878
 20
11.1312
 30
0.0
 40
0.00520833
 41
0.00520833
  0
VERTEX
  8
0
 10
8.0165
 20
11.1312
 30
0.0
 40
0.00520833
 41
0.00520833
  0
SEQEND
 8
0
  0
POLYLINE
  8
0
 62
     253
 66
     1
 10
0
 20
0
 30
0.0
 40
0.375
 41
0.375
  0
VERTEX
  8
0
 10
6.57878
 20
11.1024
 30
0.0
 40
0.00520833
 41
0.00520833
  0
VERTEX
  8
0
 10
8.0165
 20
11.1024
 30
0.0
 40
0.00520833
 41
0.00520833
  0
SEQEND
 8
0
  0
POLYLINE
  8
0
 62
     253
 66
     1
 10
0
 20
0
 30
0.0
 40
0.375
 41
0.375
  0
VERTEX
  8
0
 10
6.57878
 20
11.0737
 30
0.0
 40
0.00520833
 41
0.00520833
  0
VERTEX
  8
0
 10
8.0165
 20
11.0737
 30
0.0
 40
0.00520833
 41
0.00520833
  0
SEQEND
 8
0
  0
POLYLINE
  8
0
 62
     253
 66
     1
 10
0
 20
0
 30
0.0
 40
0.375
 41
0.375
  0
VERTEX
  8
0
 10
6.57878
 20
11.0449
 30
0.0
 40
0.00520833
 41
0.00520833
  0
VERTEX
  8
0
 10
8.0165
 20
11.0449
 30
0.0
 40
0.00520833
 41
0.00520833
  0
SEQEND
 8
0
  0
POLYLINE
  8
0
 62
     253
 66
     1
 10
0
 20
0
 30
0.0
 40
0.375
 41
0.375
  0
VERTEX
  8
0
 10
6.57878
 20
11.0162
 30
0.0
 40
0.00520833
 41
0.00520833
  0
VERTEX
  8
0
 10
8.0165
 20
11.0162
 30
0.0
 40
0.00520833
 41
0.00520833
  0
SEQEND
 8
0
  0
POLYLINE
  8
0
 62
     253
 66
     1
 10
0
 20
0
 30
0.0
 40
0.375
 41
0.375
  0
VERTEX
  8
0
 10
6.57878
 20
10.9874
 30
0.0
 40
0.00520833
 41
0.00520833
  0
VERTEX
  8
0
 10
8.0165
 20
10.9874
 30
0.0
 40
0.00520833
 41
0.00520833
  0
SEQEND
 8
0
  0
POLYLINE
  8
0
 62
     253
 66
     1
 10
0
 20
0
 30
0.0
 40
0.375
 41
0.375
  0
VERTEX
  8
0
 10
6.57878
 20
10.9587
 30
0.0
 40
0.00520833
 41
0.00520833
  0
VERTEX
  8
0
 10
8.0165
 20
10.9587
 30
0.0
 40
0.00520833
 41
0.00520833
  0
SEQEND
 8
0
  0
POLYLINE
  8
0
 62
     253
 66
     1
 10
0
 20
0
 30
0.0
 40
0.375
 41
0.375
  0
VERTEX
  8
0
 10
6.57878
 20
10.9299
 30
0.0
 40
0.00520833
 41
0.00520833
  0
VERTEX
  8
0
 10
8.0165
 20
10.9299
 30
0.0
 40
0.00520833
 41
0.00520833
  0
SEQEND
 8
0
  0
POLYLINE
  8
0
 62
     7
 66
     1
 10
0
 20
0
 30
0.0
 70
     1
 40
0
 41
0
  0
VERTEX
  8
0
 10
8.29644
 20
10.6369
 30
0.0
 40
0
 41
0
  0
VERTEX
  8
0
 10
8.60753
 20
10.6369
 30
0.0
 40
0
 41
0
  0
VERTEX
  8
0
 10
8.60753
 20
10.2361
 30
0.0
 40
0
 41
0
  0
VERTEX
  8
0
 10
8.29644
 20
10.2361
 30
0.0
 40
0
 41
0
  0
VERTEX
  8
0
 10
8.29644
 20
10.6369
 30
0.0
 40
0
 41
0
  0
SEQEND
 8
0
  0
POLYLINE
  8
0
 62
     0
 66
     1
 10
0
 20
0
 30
0.0
 70
     1
 40
0.48105
 41
0.48105
  0
VERTEX
  8
0
 10
8.29644
 20
10.6369
 30
0.0
 40
0.00668125
 41
0.00668125
  0
VERTEX
  8
0
 10
8.29644
 20
10.2361
 30
0.0
 40
0.00668125
 41
0.00668125
  0
VERTEX
  8
0
 10
8.60753
 20
10.2361
 30
0.0
 40
0.00668125
 41
0.00668125
  0
VERTEX
  8
0
 10
8.60753
 20
10.6369
 30
0.0
 40
0.00668125
 41
0.00668125
  0
VERTEX
  8
0
 10
8.29644
 20
10.6369
 30
0.0
 40
0.00668125
 41
0.00668125
  0
SEQEND
 8
0
  0
POLYLINE
  8
0
 62
     0
 66
     1
 10
0
 20
0
 30
0.0
 40
0.48105
 41
0.48105
  0
VERTEX
  8
0
 10
8.29644
 20
10.6369
 30
0.0
 40
0.00668125
 41
0.00668125
  0
VERTEX
  8
0
 10
8.45199
 20
10.3717
 30
0.0
 40
0.00668125
 41
0.00668125
  0
VERTEX
  8
0
 10
8.45199
 20
10.494
 30
0.0
 40
0.00668125
 41
0.00668125
  0
VERTEX
  8
0
 10
8.60753
 20
10.2361
 30
0.0
 40
0.00668125
 41
0.00668125
  0
SEQEND
 8
0
  0
POLYLINE
  8
0
 62
     7
 66
     1
 10
0
 20
0
 30
0.0
 70
     1
 40
0
 41
0
  0
VERTEX
  8
0
 10
8.16342
 20
7.75037
 30
0.0
 40
0
 41
0
  0
VERTEX
  8
0
 10
8.28006
 20
7.75037
 30
0.0
 40
0
 41
0
  0
VERTEX
  8
0
 10
8.28006
 20
7.68679
 30
0.0
 40
0
 41
0
  0
VERTEX
  8
0
 10
8.16342
 20
7.68679
 30
0.0
 40
0
 41
0
  0
VERTEX
  8
0
 10
8.16342
 20
7.75037
 30
0.0
 40
0
 41
0
  0
SEQEND
 8
0
  0
POLYLINE
  8
0
 62
     0
 66
     1
 10
0
 20
0
 30
0.0
 70
     1
 40
0.75
 41
0.75
  0
VERTEX
  8
0
 10
8.16342
 20
7.75037
 30
0.0
 40
0.0104167
 41
0.0104167
  0
VERTEX
  8
0
 10
8.28006
 20
7.75037
 30
0.0
 40
0.0104167
 41
0.0104167
  0
VERTEX
  8
0
 10
8.28006
 20
7.68679
 30
0.0
 40
0.0104167
 41
0.0104167
  0
VERTEX
  8
0
 10
8.16342
 20
7.68679
 30
0.0
 40
0.0104167
 41
0.0104167
  0
VERTEX
  8
0
 10
8.16342
 20
7.75037
 30
0.0
 40
0.0104167
 41
0.0104167
  0
SEQEND
 8
0
  0
POLYLINE
  8
0
 62
     7
 66
     1
 10
0
 20
0
 30
0.0
 70
     1
 40
0
 41
0
  0
VERTEX
  8
0
 10
8.01861
 20
7.75037
 30
0.0
 40
0
 41
0
  0
VERTEX
  8
0
 10
8.13525
 20
7.75037
 30
0.0
 40
0
 41
0
  0
VERTEX
  8
0
 10
8.13525
 20
7.68679
 30
0.0
 40
0
 41
0
  0
VERTEX
  8
0
 10
8.01861
 20
7.68679
 30
0.0
 40
0
 41
0
  0
VERTEX
  8
0
 10
8.01861
 20
7.75037
 30
0.0
 40
0
 41
0
  0
SEQEND
 8
0
  0
POLYLINE
  8
0
 62
     0
 66
     1
 10
0
 20
0
 30
0.0
 70
     1
 40
0.75
 41
0.75
  0
VERTEX
  8
0
 10
8.01861
 20
7.75037
 30
0.0
 40
0.0104167
 41
0.0104167
  0
VERTEX
  8
0
 10
8.13525
 20
7.75037
 30
0.0
 40
0.0104167
 41
0.0104167
  0
VERTEX
  8
0
 10
8.13525
 20
7.68679
 30
0.0
 40
0.0104167
 41
0.0104167
  0
VERTEX
  8
0
 10
8.01861
 20
7.68679
 30
0.0
 40
0.0104167
 41
0.0104167
  0
VERTEX
  8
0
 10
8.01861
 20
7.75037
 30
0.0
 40
0.0104167
 41
0.0104167
  0
SEQEND
 8
0
  0
POLYLINE
  8
0
 62
     7
 66
     1
 10
0
 20
0
 30
0.0
 70
     1
 40
0
 41
0
  0
VERTEX
  8
0
 10
7.98421
 20
7.75037
 30
0.0
 40
0
 41
0
  0
VERTEX
  8
0
 10
8.01964
 20
7.75037
 30
0.0
 40
0
 41
0
  0
VERTEX
  8
0
 10
8.01964
 20
7.68679
 30
0.0
 40
0
 41
0
  0
VERTEX
  8
0
 10
7.98421
 20
7.68679
 30
0.0
 40
0
 41
0
  0
VERTEX
  8
0
 10
7.98421
 20
7.75037
 30
0.0
 40
0
 41
0
  0
SEQEND
 8
0
  0
POLYLINE
  8
0
 62
     0
 66
     1
 10
0
 20
0
 30
0.0
 70
     1
 40
0.75
 41
0.75
  0
VERTEX
  8
0
 10
7.98421
 20
7.75037
 30
0.0
 40
0.0104167
 41
0.0104167
  0
VERTEX
  8
0
 10
8.01964
 20
7.75037
 30
0.0
 40
0.0104167
 41
0.0104167
  0
VERTEX
  8
0
 10
8.01964
 20
7.68679
 30
0.0
 40
0.0104167
 41
0.0104167
  0
VERTEX
  8
0
 10
7.98421
 20
7.68679
 30
0.0
 40
0.0104167
 41
0.0104167
  0
VERTEX
  8
0
 10
7.98421
 20
7.75037
 30
0.0
 40
0.0104167
 41
0.0104167
  0
SEQEND
 8
0
  0
POLYLINE
  8
0
 62
     7
 66
     1
 10
0
 20
0
 30
0.0
 70
     1
 40
0
 41
0
  0
VERTEX
  8
0
 10
8.28006
 20
7.75037
 30
0.0
 40
0
 41
0
  0
VERTEX
  8
0
 10
8.31337
 20
7.75037
 30
0.0
 40
0
 41
0
  0
VERTEX
  8
0
 10
8.31337
 20
7.68679
 30
0.0
 40
0
 41
0
  0
VERTEX
  8
0
 10
8.28006
 20
7.68679
 30
0.0
 40
0
 41
0
  0
VERTEX
  8
0
 10
8.28006
 20
7.75037
 30
0.0
 40
0
 41
0
  0
SEQEND
 8
0
  0
POLYLINE
  8
0
 62
     0
 66
     1
 10
0
 20
0
 30
0.0
 70
     1
 40
0.75
 41
0.75
  0
VERTEX
  8
0
 10
8.28006
 20
7.75037
 30
0.0
 40
0.0104167
 41
0.0104167
  0
VERTEX
  8
0
 10
8.31337
 20
7.75037
 30
0.0
 40
0.0104167
 41
0.0104167
  0
VERTEX
  8
0
 10
8.31337
 20
7.68679
 30
0.0
 40
0.0104167
 41
0.0104167
  0
VERTEX
  8
0
 10
8.28006
 20
7.68679
 30
0.0
 40
0.0104167
 41
0.0104167
  0
VERTEX
  8
0
 10
8.28006
 20
7.75037
 30
0.0
 40
0.0104167
 41
0.0104167
  0
SEQEND
 8
0
  0
POLYLINE
  8
0
 62
     7
 66
     1
 10
0
 20
0
 30
0.0
 70
     1
 40
0
 41
0
  0
VERTEX
  8
0
 10
8.16342
 20
7.77012
 30
0.0
 40
0
 41
0
  0
VERTEX
  8
0
 10
8.16342
 20
7.77647
 30
0.0
 40
0
 41
0
  0
VERTEX
  8
0
 10
8.16699
 20
7.79542
 30
0.0
 40
0
 41
0
  0
VERTEX
  8
0
 10
8.17692
 20
7.81782
 30
0.0
 40
0
 41
0
  0
VERTEX
  8
0
 10
8.18007
 20
7.82221
 30
0.0
 40
0
 41
0
  0
VERTEX
  8
0
 10
8.1811
 20
7.82379
 30
0.0
 40
0
 41
0
  0
VERTEX
  8
0
 10
8.19125
 20
7.83843
 30
0.0
 40
0
 41
0
  0
VERTEX
  8
0
 10
8.19151
 20
7.83996
 30
0.0
 40
0
 41
0
  0
VERTEX
  8
0
 10
8.192
 20
7.84283
 30
0.0
 40
0
 41
0
  0
VERTEX
  8
0
 10
8.18782
 20
7.85938
 30
0.0
 40
0
 41
0
  0
VERTEX
  8
0
 10
8.17117
 20
7.87224
 30
0.0
 40
0
 41
0
  0
VERTEX
  8
0
 10
8.16547
 20
7.87326
 30
0.0
 40
0
 41
0
  0
VERTEX
  8
0
 10
8.16417
 20
7.87354
 30
0.0
 40
0
 41
0
  0
VERTEX
  8
0
 10
8.15261
 20
7.87429
 30
0.0
 40
0
 41
0
  0
VERTEX
  8
0
 10
8.14882
 20
7.87429
 30
0.0
 40
0
 41
0
  0
VERTEX
  8
0
 10
8.14985
 20
7.87429
 30
0.0
 40
0
 41
0
  0
VERTEX
  8
0
 10
8.14567
 20
7.87429
 30
0.0
 40
0
 41
0
  0
VERTEX
  8
0
 10
8.1345
 20
7.87354
 30
0.0
 40
0
 41
0
  0
VERTEX
  8
0
 10
8.13319
 20
7.87326
 30
0.0
 40
0
 41
0
  0
VERTEX
  8
0
 10
8.12744
 20
7.87224
 30
0.0
 40
0
 41
0
  0
VERTEX
  8
0
 10
8.11074
 20
7.85938
 30
0.0
 40
0
 41
0
  0
VERTEX
  8
0
 10
8.10661
 20
7.84283
 30
0.0
 40
0
 41
0
  0
VERTEX
  8
0
 10
8.10715
 20
7.83996
 30
0.0
 40
0
 41
0
  0
VERTEX
  8
0
 10
8.10736
 20
7.83843
 30
0.0
 40
0
 41
0
  0
VERTEX
  8
0
 10
8.11751
 20
7.82379
 30
0.0
 40
0
 41
0
  0
VERTEX
  8
0
 10
8.1186
 20
7.82221
 30
0.0
 40
0
 41
0
  0
VERTEX
  8
0
 10
8.12169
 20
7.81782
 30
0.0
 40
0
 41
0
  0
VERTEX
  8
0
 10
8.13157
 20
7.79542
 30
0.0
 40
0
 41
0
  0
VERTEX
  8
0
 10
8.13525
 20
7.77647
 30
0.0
 40
0
 41
0
  0
VERTEX
  8
0
 10
8.13525
 20
7.77012
 30
0.0
 40
0
 41
0
  0
SEQEND
 8
0
  0
POLYLINE
  8
0
 62
     0
 66
     1
 10
0
 20
0
 30
0.0
 40
0.75
 41
0.75
  0
VERTEX
  8
0
 10
8.16342
 20
7.77012
 30
0.0
 40
0.0104167
 41
0.0104167
  0
VERTEX
  8
0
 10
8.16342
 20
7.77647
 30
0.0
 40
0.0104167
 41
0.0104167
  0
VERTEX
  8
0
 10
8.16699
 20
7.79542
 30
0.0
 40
0.0104167
 41
0.0104167
  0
VERTEX
  8
0
 10
8.17692
 20
7.81782
 30
0.0
 40
0.0104167
 41
0.0104167
  0
VERTEX
  8
0
 10
8.18007
 20
7.82221
 30
0.0
 40
0.0104167
 41
0.0104167
  0
VERTEX
  8
0
 10
8.1811
 20
7.82379
 30
0.0
 40
0.0104167
 41
0.0104167
  0
VERTEX
  8
0
 10
8.19125
 20
7.83843
 30
0.0
 40
0.0104167
 41
0.0104167
  0
VERTEX
  8
0
 10
8.19151
 20
7.83996
 30
0.0
 40
0.0104167
 41
0.0104167
  0
VERTEX
  8
0
 10
8.192
 20
7.84283
 30
0.0
 40
0.0104167
 41
0.0104167
  0
VERTEX
  8
0
 10
8.18782
 20
7.85938
 30
0.0
 40
0.0104167
 41
0.0104167
  0
VERTEX
  8
0
 10
8.17117
 20
7.87224
 30
0.0
 40
0.0104167
 41
0.0104167
  0
VERTEX
  8
0
 10
8.16547
 20
7.87326
 30
0.0
 40
0.0104167
 41
0.0104167
  0
VERTEX
  8
0
 10
8.16417
 20
7.87354
 30
0.0
 40
0.0104167
 41
0.0104167
  0
VERTEX
  8
0
 10
8.15261
 20
7.87429
 30
0.0
 40
0.0104167
 41
0.0104167
  0
VERTEX
  8
0
 10
8.14882
 20
7.87429
 30
0.0
 40
0.0104167
 41
0.0104167
  0
VERTEX
  8
0
 10
8.14985
 20
7.87429
 30
0.0
 40
0.0104167
 41
0.0104167
  0
VERTEX
  8
0
 10
8.14567
 20
7.87429
 30
0.0
 40
0.0104167
 41
0.0104167
  0
VERTEX
  8
0
 10
8.1345
 20
7.87354
 30
0.0
 40
0.0104167
 41
0.0104167
  0
VERTEX
  8
0
 10
8.13319
 20
7.87326
 30
0.0
 40
0.0104167
 41
0.0104167
  0
VERTEX
  8
0
 10
8.12744
 20
7.87224
 30
0.0
 40
0.0104167
 41
0.0104167
  0
VERTEX
  8
0
 10
8.11074
 20
7.85938
 30
0.0
 40
0.0104167
 41
0.0104167
  0
VERTEX
  8
0
 10
8.10661
 20
7.84283
 30
0.0
 40
0.0104167
 41
0.0104167
  0
VERTEX
  8
0
 10
8.10715
 20
7.83996
 30
0.0
 40
0.0104167
 41
0.0104167
  0
VERTEX
  8
0
 10
8.10736
 20
7.83843
 30
0.0
 40
0.0104167
 41
0.0104167
  0
VERTEX
  8
0
 10
8.11751
 20
7.82379
 30
0.0
 40
0.0104167
 41
0.0104167
  0
VERTEX
  8
0
 10
8.1186
 20
7.82221
 30
0.0
 40
0.0104167
 41
0.0104167
  0
VERTEX
  8
0
 10
8.12169
 20
7.81782
 30
0.0
 40
0.0104167
 41
0.0104167
  0
VERTEX
  8
0
 10
8.13157
 20
7.79542
 30
0.0
 40
0.0104167
 41
0.0104167
  0
VERTEX
  8
0
 10
8.13525
 20
7.77647
 30
0.0
 40
0.0104167
 41
0.0104167
  0
VERTEX
  8
0
 10
8.13525
 20
7.77012
 30
0.0
 40
0.0104167
 41
0.0104167
  0
SEQEND
 8
0
  0
POLYLINE
  8
0
 62
     7
 66
     1
 10
0
 20
0
 30
0.0
 70
     1
 40
0
 41
0
  0
VERTEX
  8
0
 10
8.19151
 20
7.84099
 30
0.0
 40
0
 41
0
  0
VERTEX
  8
0
 10
8.19125
 20
7.84153
 30
0.0
 40
0
 41
0
  0
VERTEX
  8
0
 10
8.17942
 20
7.85167
 30
0.0
 40
0
 41
0
  0
VERTEX
  8
0
 10
8.15565
 20
7.86079
 30
0.0
 40
0
 41
0
  0
VERTEX
  8
0
 10
8.14779
 20
7.86079
 30
0.0
 40
0
 41
0
  0
VERTEX
  8
0
 10
8.1415
 20
7.86057
 30
0.0
 40
0
 41
0
  0
VERTEX
  8
0
 10
8.11882
 20
7.85129
 30
0.0
 40
0
 41
0
  0
VERTEX
  8
0
 10
8.10764
 20
7.84153
 30
0.0
 40
0
 41
0
  0
VERTEX
  8
0
 10
8.10715
 20
7.84099
 30
0.0
 40
0
 41
0
  0
SEQEND
 8
0
  0
POLYLINE
  8
0
 62
     0
 66
     1
 10
0
 20
0
 30
0.0
 40
0.75
 41
0.75
  0
VERTEX
  8
0
 10
8.19151
 20
7.84099
 30
0.0
 40
0.0104167
 41
0.0104167
  0
VERTEX
  8
0
 10
8.19125
 20
7.84153
 30
0.0
 40
0.0104167
 41
0.0104167
  0
VERTEX
  8
0
 10
8.17942
 20
7.85167
 30
0.0
 40
0.0104167
 41
0.0104167
  0
VERTEX
  8
0
 10
8.15565
 20
7.86079
 30
0.0
 40
0.0104167
 41
0.0104167
  0
VERTEX
  8
0
 10
8.14779
 20
7.86079
 30
0.0
 40
0.0104167
 41
0.0104167
  0
VERTEX
  8
0
 10
8.1415
 20
7.86057
 30
0.0
 40
0.0104167
 41
0.0104167
  0
VERTEX
  8
0
 10
8.11882
 20
7.85129
 30
0.0
 40
0.0104167
 41
0.0104167
  0
VERTEX
  8
0
 10
8.10764
 20
7.84153
 30
0.0
 40
0.0104167
 41
0.0104167
  0
VERTEX
  8
0
 10
8.10715
 20
7.84099
 30
0.0
 40
0.0104167
 41
0.0104167
  0
SEQEND
 8
0
  0
POLYLINE
  8
0
 62
     7
 66
     1
 10
0
 20
0
 30
0.0
 70
     1
 40
0
 41
0
  0
VERTEX
  8
0
 10
8.16342
 20
7.68679
 30
0.0
 40
0
 41
0
  0
VERTEX
  8
0
 10
8.13525
 20
7.68679
 30
0.0
 40
0
 41
0
  0
VERTEX
  8
0
 10
8.13525
 20
7.77012
 30
0.0
 40
0
 41
0
  0
VERTEX
  8
0
 10
8.14225
 20
7.77012
 30
0.0
 40
0
 41
0
  0
VERTEX
  8
0
 10
8.1581
 20
7.77012
 30
0.0
 40
0
 41
0
  0
VERTEX
  8
0
 10
8.16342
 20
7.77012
 30
0.0
 40
0
 41
0
  0
VERTEX
  8
0
 10
8.16342
 20
7.74929
 30
0.0
 40
0
 41
0
  0
VERTEX
  8
0
 10
8.16342
 20
7.70242
 30
0.0
 40
0
 41
0
  0
VERTEX
  8
0
 10
8.16342
 20
7.68679
 30
0.0
 40
0
 41
0
  0
SEQEND
 8
0
  0
POLYLINE
  8
0
 62
     0
 66
     1
 10
0
 20
0
 30
0.0
 70
     1
 40
0.75
 41
0.75
  0
VERTEX
  8
0
 10
8.16342
 20
7.68679
 30
0.0
 40
0.0104167
 41
0.0104167
  0
VERTEX
  8
0
 10
8.13525
 20
7.68679
 30
0.0
 40
0.0104167
 41
0.0104167
  0
VERTEX
  8
0
 10
8.13525
 20
7.77012
 30
0.0
 40
0.0104167
 41
0.0104167
  0
VERTEX
  8
0
 10
8.14225
 20
7.77012
 30
0.0
 40
0.0104167
 41
0.0104167
  0
VERTEX
  8
0
 10
8.1581
 20
7.77012
 30
0.0
 40
0.0104167
 41
0.0104167
  0
VERTEX
  8
0
 10
8.16342
 20
7.77012
 30
0.0
 40
0.0104167
 41
0.0104167
  0
VERTEX
  8
0
 10
8.16342
 20
7.74929
 30
0.0
 40
0.0104167
 41
0.0104167
  0
VERTEX
  8
0
 10
8.16342
 20
7.70242
 30
0.0
 40
0.0104167
 41
0.0104167
  0
VERTEX
  8
0
 10
8.16342
 20
7.68679
 30
0.0
 40
0.0104167
 41
0.0104167
  0
SEQEND
 8
0
  0
POLYLINE
  8
0
 62
     7
 66
     1
 10
0
 20
0
 30
0.0
 70
     1
 40
0
 41
0
  0
VERTEX
  8
0
 10
8.28006
 20
7.71912
 30
0.0
 40
0
 41
0
  0
VERTEX
  8
0
 10
8.27681
 20
7.71793
 30
0.0
 40
0
 41
0
  0
VERTEX
  8
0
 10
8.26714
 20
7.71403
 30
0.0
 40
0
 41
0
  0
VERTEX
  8
0
 10
8.26443
 20
7.71283
 30
0.0
 40
0
 41
0
  0
VERTEX
  8
0
 10
8.26443
 20
7.71283
 30
0.0
 40
0
 41
0
  0
VERTEX
  8
0
 10
8.26443
 20
7.71431
 30
0.0
 40
0
 41
0
  0
VERTEX
  8
0
 10
8.26443
 20
7.71858
 30
0.0
 40
0
 41
0
  0
VERTEX
  8
0
 10
8.26443
 20
7.72293
 30
0.0
 40
0
 41
0
  0
VERTEX
  8
0
 10
8.26443
 20
7.72433
 30
0.0
 40
0
 41
0
  0
VERTEX
  8
0
 10
8.26443
 20
7.72433
 30
0.0
 40
0
 41
0
  0
VERTEX
  8
0
 10
8.26676
 20
7.72368
 30
0.0
 40
0
 41
0
  0
VERTEX
  8
0
 10
8.27675
 20
7.72032
 30
0.0
 40
0
 41
0
  0
VERTEX
  8
0
 10
8.28006
 20
7.71912
 30
0.0
 40
0
 41
0
  0
SEQEND
 8
0
  0
POLYLINE
  8
0
 62
     0
 66
     1
 10
0
 20
0
 30
0.0
 70
     1
 40
0.75
 41
0.75
  0
VERTEX
  8
0
 10
8.28006
 20
7.71912
 30
0.0
 40
0.0104167
 41
0.0104167
  0
VERTEX
  8
0
 10
8.27681
 20
7.71793
 30
0.0
 40
0.0104167
 41
0.0104167
  0
VERTEX
  8
0
 10
8.26714
 20
7.71403
 30
0.0
 40
0.0104167
 41
0.0104167
  0
VERTEX
  8
0
 10
8.26443
 20
7.71283
 30
0.0
 40
0.0104167
 41
0.0104167
  0
VERTEX
  8
0
 10
8.26443
 20
7.71283
 30
0.0
 40
0.0104167
 41
0.0104167
  0
VERTEX
  8
0
 10
8.26443
 20
7.71431
 30
0.0
 40
0.0104167
 41
0.0104167
  0
VERTEX
  8
0
 10
8.26443
 20
7.71858
 30
0.0
 40
0.0104167
 41
0.0104167
  0
VERTEX
  8
0
 10
8.26443
 20
7.72293
 30
0.0
 40
0.0104167
 41
0.0104167
  0
VERTEX
  8
0
 10
8.26443
 20
7.72433
 30
0.0
 40
0.0104167
 41
0.0104167
  0
VERTEX
  8
0
 10
8.26443
 20
7.72433
 30
0.0
 40
0.0104167
 41
0.0104167
  0
VERTEX
  8
0
 10
8.26676
 20
7.72368
 30
0.0
 40
0.0104167
 41
0.0104167
  0
VERTEX
  8
0
 10
8.27675
 20
7.72032
 30
0.0
 40
0.0104167
 41
0.0104167
  0
VERTEX
  8
0
 10
8.28006
 20
7.71912
 30
0.0
 40
0.0104167
 41
0.0104167
  0
SEQEND
 8
0
  0
POLYLINE
  8
0
 62
     7
 66
     1
 10
0
 20
0
 30
0.0
 70
     1
 40
0
 41
0
  0
VERTEX
  8
0
 10
8.01964
 20
7.71912
 30
0.0
 40
0
 41
0
  0
VERTEX
  8
0
 10
8.02285
 20
7.71793
 30
0.0
 40
0
 41
0
  0
VERTEX
  8
0
 10
8.0325
 20
7.71403
 30
0.0
 40
0
 41
0
  0
VERTEX
  8
0
 10
8.03526
 20
7.71283
 30
0.0
 40
0
 41
0
  0
VERTEX
  8
0
 10
8.03526
 20
7.71283
 30
0.0
 40
0
 41
0
  0
VERTEX
  8
0
 10
8.03526
 20
7.71431
 30
0.0
 40
0
 41
0
  0
VERTEX
  8
0
 10
8.03526
 20
7.71858
 30
0.0
 40
0
 41
0
  0
VERTEX
  8
0
 10
8.03526
 20
7.72293
 30
0.0
 40
0
 41
0
  0
VERTEX
  8
0
 10
8.03526
 20
7.72433
 30
0.0
 40
0
 41
0
  0
VERTEX
  8
0
 10
8.03526
 20
7.72433
 30
0.0
 40
0
 41
0
  0
VERTEX
  8
0
 10
8.03288
 20
7.72368
 30
0.0
 40
0
 41
0
  0
VERTEX
  8
0
 10
8.02289
 20
7.72032
 30
0.0
 40
0
 41
0
  0
VERTEX
  8
0
 10
8.01964
 20
7.71912
 30
0.0
 40
0
 41
0
  0
SEQEND
 8
0
  0
POLYLINE
  8
0
 62
     0
 66
     1
 10
0
 20
0
 30
0.0
 70
     1
 40
0.75
 41
0.75
  0
VERTEX
  8
0
 10
8.01964
 20
7.71912
 30
0.0
 40
0.0104167
 41
0.0104167
  0
VERTEX
  8
0
 10
8.02285
 20
7.71793
 30
0.0
 40
0.0104167
 41
0.0104167
  0
VERTEX
  8
0
 10
8.0325
 20
7.71403
 30
0.0
 40
0.0104167
 41
0.0104167
  0
VERTEX
  8
0
 10
8.03526
 20
7.71283
 30
0.0
 40
0.0104167
 41
0.0104167
  0
VERTEX
  8
0
 10
8.03526
 20
7.71283
 30
0.0
 40
0.0104167
 41
0.0104167
  0
VERTEX
  8
0
 10
8.03526
 20
7.71431
 30
0.0
 40
0.0104167
 41
0.0104167
  0
VERTEX
  8
0
 10
8.03526
 20
7.71858
 30
0.0
 40
0.0104167
 41
0.0104167
  0
VERTEX
  8
0
 10
8.03526
 20
7.72293
 30
0.0
 40
0.0104167
 41
0.0104167
  0
VERTEX
  8
0
 10
8.03526
 20
7.72433
 30
0.0
 40
0.0104167
 41
0.0104167
  0
VERTEX
  8
0
 10
8.03526
 20
7.72433
 30
0.0
 40
0.0104167
 41
0.0104167
  0
VERTEX
  8
0
 10
8.03288
 20
7.72368
 30
0.0
 40
0.0104167
 41
0.0104167
  0
VERTEX
  8
0
 10
8.02289
 20
7.72032
 30
0.0
 40
0.0104167
 41
0.0104167
  0
VERTEX
  8
0
 10
8.01964
 20
7.71912
 30
0.0
 40
0.0104167
 41
0.0104167
  0
SEQEND
 8
0
  0
POLYLINE
  8
0
 62
     7
 66
     1
 10
0
 20
0
 30
0.0
 70
     1
 40
0
 41
0
  0
VERTEX
  8
0
 10
8.10194
 20
7.51324
 30
0.0
 40
0
 41
0
  0
VERTEX
  8
0
 10
8.60753
 20
7.51324
 30
0.0
 40
0
 41
0
  0
VERTEX
  8
0
 10
8.60753
 20
7.01199
 30
0.0
 40
0
 41
0
  0
VERTEX
  8
0
 10
8.10194
 20
7.01199
 30
0.0
 40
0
 41
0
  0
VERTEX
  8
0
 10
8.10194
 20
7.51324
 30
0.0
 40
0
 41
0
  0
SEQEND
 8
0
  0
POLYLINE
  8
0
 62
     0
 66
     1
 10
0
 20
0
 30
0.0
 70
     1
 40
0.606675
 41
0.606675
  0
VERTEX
  8
0
 10
8.10194
 20
7.51324
 30
0.0
 40
0.00842604
 41
0.00842604
  0
VERTEX
  8
0
 10
8.60753
 20
7.51324
 30
0.0
 40
0.00842604
 41
0.00842604
  0
VERTEX
  8
0
 10
8.60753
 20
7.01199
 30
0.0
 40
0.00842604
 41
0.00842604
  0
VERTEX
  8
0
 10
8.10194
 20
7.01199
 30
0.0
 40
0.00842604
 41
0.00842604
  0
VERTEX
  8
0
 10
8.10194
 20
7.51324
 30
0.0
 40
0.00842604
 41
0.00842604
  0
SEQEND
 8
0
  0
POLYLINE
  8
0
 62
     0
 66
     1
 10
0
 20
0
 30
0.0
 40
0.606675
 41
0.606675
  0
VERTEX
  8
0
 10
8.10194
 20
7.51324
 30
0.0
 40
0.00842604
 41
0.00842604
  0
VERTEX
  8
0
 10
8.35476
 20
7.17074
 30
0.0
 40
0.00842604
 41
0.00842604
  0
VERTEX
  8
0
 10
8.35476
 20
7.33946
 30
0.0
 40
0.00842604
 41
0.00842604
  0
VERTEX
  8
0
 10
8.60753
 20
7.01199
 30
0.0
 40
0.00842604
 41
0.00842604
  0
SEQEND
 8
0
  0
POLYLINE
  8
0
 62
     0
 66
     1
 10
0
 20
0
 30
0.0
 40
0.606675
 41
0.606675
  0
VERTEX
  8
0
 10
8.12472
 20
7.01699
 30
0.0
 40
0.00842604
 41
0.00842604
  0
VERTEX
  8
0
 10
8.58479
 20
7.01699
 30
0.0
 40
0.00842604
 41
0.00842604
  0
SEQEND
 8
0
  0
POLYLINE
  8
0
 62
     7
 66
     1
 10
0
 20
0
 30
0.0
 70
     1
 40
0
 41
0
  0
VERTEX
  8
0
 10
9.13514
 20
7.51476
 30
0.0
 40
0
 41
0
  0
VERTEX
  8
0
 10
10.0635
 20
7.51476
 30
0.0
 40
0
 41
0
  0
VERTEX
  8
0
 10
10.0635
 20
7.09885
 30
0.0
 40
0
 41
0
  0
VERTEX
  8
0
 10
9.13514
 20
7.09885
 30
0.0
 40
0
 41
0
  0
VERTEX
  8
0
 10
9.13514
 20
7.51476
 30
0.0
 40
0
 41
0
  0
SEQEND
 8
0
  0
POLYLINE
  8
0
 62
     0
 66
     1
 10
0
 20
0
 30
0.0
 70
     1
 40
0.75
 41
0.75
  0
VERTEX
  8
0
 10
9.13514
 20
7.51476
 30
0.0
 40
0.0104167
 41
0.0104167
  0
VERTEX
  8
0
 10
10.0635
 20
7.51476
 30
0.0
 40
0.0104167
 41
0.0104167
  0
VERTEX
  8
0
 10
10.0635
 20
7.09885
 30
0.0
 40
0.0104167
 41
0.0104167
  0
VERTEX
  8
0
 10
9.13514
 20
7.09885
 30
0.0
 40
0.0104167
 41
0.0104167
  0
VERTEX
  8
0
 10
9.13514
 20
7.51476
 30
0.0
 40
0.0104167
 41
0.0104167
  0
SEQEND
 8
0
  0
POLYLINE
  8
0
 62
     7
 66
     1
 10
0
 20
0
 30
0.0
 70
     1
 40
0
 41
0
  0
VERTEX
  8
0
 10
9.44037
 20
7.41342
 30
0.0
 40
0
 41
0
  0
VERTEX
  8
0
 10
9.82519
 20
7.41342
 30
0.0
 40
0
 41
0
  0
VERTEX
  8
0
 10
9.82519
 20
7.18881
 30
0.0
 40
0
 41
0
  0
VERTEX
  8
0
 10
9.44037
 20
7.18881
 30
0.0
 40
0
 41
0
  0
VERTEX
  8
0
 10
9.44037
 20
7.41342
 30
0.0
 40
0
 41
0
  0
SEQEND
 8
0
  0
POLYLINE
  8
0
 62
     0
 66
     1
 10
0
 20
0
 30
0.0
 70
     1
 40
0.75
 41
0.75
  0
VERTEX
  8
0
 10
9.44037
 20
7.41342
 30
0.0
 40
0.0104167
 41
0.0104167
  0
VERTEX
  8
0
 10
9.82519
 20
7.41342
 30
0.0
 40
0.0104167
 41
0.0104167
  0
VERTEX
  8
0
 10
9.82519
 20
7.18881
 30
0.0
 40
0.0104167
 41
0.0104167
  0
VERTEX
  8
0
 10
9.44037
 20
7.18881
 30
0.0
 40
0.0104167
 41
0.0104167
  0
VERTEX
  8
0
 10
9.44037
 20
7.41342
 30
0.0
 40
0.0104167
 41
0.0104167
  0
SEQEND
 8
0
  0
POLYLINE
  8
0
 62
     7
 66
     1
 10
0
 20
0
 30
0.0
 70
     1
 40
0
 41
0
  0
VERTEX
  8
0
 10
9.66928
 20
7.32275
 30
0.0
 40
0
 41
0
  0
VERTEX
  8
0
 10
9.66928
 20
7.31635
 30
0.0
 40
0
 41
0
  0
VERTEX
  8
0
 10
9.65858
 20
7.29699
 30
0.0
 40
0
 41
0
  0
VERTEX
  8
0
 10
9.63921
 20
7.28629
 30
0.0
 40
0
 41
0
  0
VERTEX
  8
0
 10
9.63282
 20
7.28629
 30
0.0
 40
0
 41
0
  0
VERTEX
  8
0
 10
9.62636
 20
7.28629
 30
0.0
 40
0
 41
0
  0
VERTEX
  8
0
 10
9.60699
 20
7.29699
 30
0.0
 40
0
 41
0
  0
VERTEX
  8
0
 10
9.59636
 20
7.31635
 30
0.0
 40
0
 41
0
  0
VERTEX
  8
0
 10
9.59636
 20
7.32275
 30
0.0
 40
0
 41
0
  0
VERTEX
  8
0
 10
9.59636
 20
7.32921
 30
0.0
 40
0
 41
0
  0
VERTEX
  8
0
 10
9.60699
 20
7.34858
 30
0.0
 40
0
 41
0
  0
VERTEX
  8
0
 10
9.62636
 20
7.35921
 30
0.0
 40
0
 41
0
  0
VERTEX
  8
0
 10
9.63282
 20
7.35921
 30
0.0
 40
0
 41
0
  0
VERTEX
  8
0
 10
9.63921
 20
7.35921
 30
0.0
 40
0
 41
0
  0
VERTEX
  8
0
 10
9.65858
 20
7.34858
 30
0.0
 40
0
 41
0
  0
VERTEX
  8
0
 10
9.66928
 20
7.32921
 30
0.0
 40
0
 41
0
  0
VERTEX
  8
0
 10
9.66928
 20
7.32275
 30
0.0
 40
0
 41
0
  0
SEQEND
 8
0
  0
POLYLINE
  8
0
 62
     0
 66
     1
 10
0
 20
0
 30
0.0
 70
     1
 40
0.6
 41
0.6
  0
VERTEX
  8
0
 10
9.66928
 20
7.32275
 30
0.0
 40
0.00833333
 41
0.00833333
  0
VERTEX
  8
0
 10
9.66928
 20
7.31635
 30
0.0
 40
0.00833333
 41
0.00833333
  0
VERTEX
  8
0
 10
9.65858
 20
7.29699
 30
0.0
 40
0.00833333
 41
0.00833333
  0
VERTEX
  8
0
 10
9.63921
 20
7.28629
 30
0.0
 40
0.00833333
 41
0.00833333
  0
VERTEX
  8
0
 10
9.63282
 20
7.28629
 30
0.0
 40
0.00833333
 41
0.00833333
  0
VERTEX
  8
0
 10
9.62636
 20
7.28629
 30
0.0
 40
0.00833333
 41
0.00833333
  0
VERTEX
  8
0
 10
9.60699
 20
7.29699
 30
0.0
 40
0.00833333
 41
0.00833333
  0
VERTEX
  8
0
 10
9.59636
 20
7.31635
 30
0.0
 40
0.00833333
 41
0.00833333
  0
VERTEX
  8
0
 10
9.59636
 20
7.32275
 30
0.0
 40
0.00833333
 41
0.00833333
  0
VERTEX
  8
0
 10
9.59636
 20
7.32921
 30
0.0
 40
0.00833333
 41
0.00833333
  0
VERTEX
  8
0
 10
9.60699
 20
7.34858
 30
0.0
 40
0.00833333
 41
0.00833333
  0
VERTEX
  8
0
 10
9.62636
 20
7.35921
 30
0.0
 40
0.00833333
 41
0.00833333
  0
VERTEX
  8
0
 10
9.63282
 20
7.35921
 30
0.0
 40
0.00833333
 41
0.00833333
  0
VERTEX
  8
0
 10
9.63921
 20
7.35921
 30
0.0
 40
0.00833333
 41
0.00833333
  0
VERTEX
  8
0
 10
9.65858
 20
7.34858
 30
0.0
 40
0.00833333
 41
0.00833333
  0
VERTEX
  8
0
 10
9.66928
 20
7.32921
 30
0.0
 40
0.00833333
 41
0.00833333
  0
VERTEX
  8
0
 10
9.66928
 20
7.32275
 30
0.0
 40
0.00833333
 41
0.00833333
  0
SEQEND
 8
0
  0
POLYLINE
  8
0
 62
     7
 66
     1
 10
0
 20
0
 30
0.0
 70
     1
 40
0
 41
0
  0
VERTEX
  8
0
 10
9.65365
 20
7.32275
 30
0.0
 40
0
 41
0
  0
VERTEX
  8
0
 10
9.65365
 20
7.31912
 30
0.0
 40
0
 41
0
  0
VERTEX
  8
0
 10
9.64751
 20
7.30806
 30
0.0
 40
0
 41
0
  0
VERTEX
  8
0
 10
9.63644
 20
7.30192
 30
0.0
 40
0
 41
0
  0
VERTEX
  8
0
 10
9.63282
 20
7.30192
 30
0.0
 40
0
 41
0
  0
VERTEX
  8
0
 10
9.62913
 20
7.30192
 30
0.0
 40
0
 41
0
  0
VERTEX
  8
0
 10
9.61806
 20
7.30806
 30
0.0
 40
0
 41
0
  0
VERTEX
  8
0
 10
9.61199
 20
7.31912
 30
0.0
 40
0
 41
0
  0
VERTEX
  8
0
 10
9.61199
 20
7.32275
 30
0.0
 40
0
 41
0
  0
VERTEX
  8
0
 10
9.61199
 20
7.32644
 30
0.0
 40
0
 41
0
  0
VERTEX
  8
0
 10
9.61806
 20
7.33751
 30
0.0
 40
0
 41
0
  0
VERTEX
  8
0
 10
9.62913
 20
7.34358
 30
0.0
 40
0
 41
0
  0
VERTEX
  8
0
 10
9.63282
 20
7.34358
 30
0.0
 40
0
 41
0
  0
VERTEX
  8
0
 10
9.63644
 20
7.34358
 30
0.0
 40
0
 41
0
  0
VERTEX
  8
0
 10
9.64751
 20
7.33751
 30
0.0
 40
0
 41
0
  0
VERTEX
  8
0
 10
9.65365
 20
7.32644
 30
0.0
 40
0
 41
0
  0
VERTEX
  8
0
 10
9.65365
 20
7.32275
 30
0.0
 40
0
 41
0
  0
SEQEND
 8
0
  0
POLYLINE
  8
0
 62
     0
 66
     1
 10
0
 20
0
 30
0.0
 70
     1
 40
0.6
 41
0.6
  0
VERTEX
  8
0
 10
9.65365
 20
7.32275
 30
0.0
 40
0.00833333
 41
0.00833333
  0
VERTEX
  8
0
 10
9.65365
 20
7.31912
 30
0.0
 40
0.00833333
 41
0.00833333
  0
VERTEX
  8
0
 10
9.64751
 20
7.30806
 30
0.0
 40
0.00833333
 41
0.00833333
  0
VERTEX
  8
0
 10
9.63644
 20
7.30192
 30
0.0
 40
0.00833333
 41
0.00833333
  0
VERTEX
  8
0
 10
9.63282
 20
7.30192
 30
0.0
 40
0.00833333
 41
0.00833333
  0
VERTEX
  8
0
 10
9.62913
 20
7.30192
 30
0.0
 40
0.00833333
 41
0.00833333
  0
VERTEX
  8
0
 10
9.61806
 20
7.30806
 30
0.0
 40
0.00833333
 41
0.00833333
  0
VERTEX
  8
0
 10
9.61199
 20
7.31912
 30
0.0
 40
0.00833333
 41
0.00833333
  0
VERTEX
  8
0
 10
9.61199
 20
7.32275
 30
0.0
 40
0.00833333
 41
0.00833333
  0
VERTEX
  8
0
 10
9.61199
 20
7.32644
 30
0.0
 40
0.00833333
 41
0.00833333
  0
VERTEX
  8
0
 10
9.61806
 20
7.33751
 30
0.0
 40
0.00833333
 41
0.00833333
  0
VERTEX
  8
0
 10
9.62913
 20
7.34358
 30
0.0
 40
0.00833333
 41
0.00833333
  0
VERTEX
  8
0
 10
9.63282
 20
7.34358
 30
0.0
 40
0.00833333
 41
0.00833333
  0
VERTEX
  8
0
 10
9.63644
 20
7.34358
 30
0.0
 40
0.00833333
 41
0.00833333
  0
VERTEX
  8
0
 10
9.64751
 20
7.33751
 30
0.0
 40
0.00833333
 41
0.00833333
  0
VERTEX
  8
0
 10
9.65365
 20
7.32644
 30
0.0
 40
0.00833333
 41
0.00833333
  0
VERTEX
  8
0
 10
9.65365
 20
7.32275
 30
0.0
 40
0.00833333
 41
0.00833333
  0
SEQEND
 8
0
  0
POLYLINE
  8
0
 62
     7
 66
     1
 10
0
 20
0
 30
0.0
 70
     1
 40
0
 41
0
  0
VERTEX
  8
0
 10
9.60975
 20
7.48465
 30
0.0
 40
0
 41
0
  0
VERTEX
  8
0
 10
9.67225
 20
7.48465
 30
0.0
 40
0
 41
0
  0
VERTEX
  8
0
 10
9.67225
 20
7.33882
 30
0.0
 40
0
 41
0
  0
VERTEX
  8
0
 10
9.60975
 20
7.33882
 30
0.0
 40
0
 41
0
  0
VERTEX
  8
0
 10
9.60975
 20
7.48465
 30
0.0
 40
0
 41
0
  0
SEQEND
 8
0
  0
POLYLINE
  8
0
 62
     0
 66
     1
 10
0
 20
0
 30
0.0
 70
     1
 40
0.75
 41
0.75
  0
VERTEX
  8
0
 10
9.60975
 20
7.48465
 30
0.0
 40
0.0104167
 41
0.0104167
  0
VERTEX
  8
0
 10
9.67225
 20
7.48465
 30
0.0
 40
0.0104167
 41
0.0104167
  0
VERTEX
  8
0
 10
9.67225
 20
7.33882
 30
0.0
 40
0.0104167
 41
0.0104167
  0
VERTEX
  8
0
 10
9.60975
 20
7.33882
 30
0.0
 40
0.0104167
 41
0.0104167
  0
VERTEX
  8
0
 10
9.60975
 20
7.48465
 30
0.0
 40
0.0104167
 41
0.0104167
  0
SEQEND
 8
0
  0
POLYLINE
  8
0
 62
     7
 66
     1
 10
0
 20
0
 30
0.0
 70
     1
 40
0
 41
0
  0
VERTEX
  8
0
 10
10.3486
 20
7.51471
 30
0.0
 40
0
 41
0
  0
VERTEX
  8
0
 10
10.7857
 20
7.51471
 30
0.0
 40
0
 41
0
  0
VERTEX
  8
0
 10
10.7857
 20
7.08074
 30
0.0
 40
0
 41
0
  0
VERTEX
  8
0
 10
10.3486
 20
7.08074
 30
0.0
 40
0
 41
0
  0
VERTEX
  8
0
 10
10.3486
 20
7.51471
 30
0.0
 40
0
 41
0
  0
SEQEND
 8
0
  0
POLYLINE
  8
0
 62
     0
 66
     1
 10
0
 20
0
 30
0.0
 70
     1
 40
0.52455
 41
0.52455
  0
VERTEX
  8
0
 10
10.3486
 20
7.51471
 30
0.0
 40
0.00728542
 41
0.00728542
  0
VERTEX
  8
0
 10
10.7857
 20
7.51471
 30
0.0
 40
0.00728542
 41
0.00728542
  0
VERTEX
  8
0
 10
10.7857
 20
7.08074
 30
0.0
 40
0.00728542
 41
0.00728542
  0
VERTEX
  8
0
 10
10.3486
 20
7.08074
 30
0.0
 40
0.00728542
 41
0.00728542
  0
VERTEX
  8
0
 10
10.3486
 20
7.51471
 30
0.0
 40
0.00728542
 41
0.00728542
  0
SEQEND
 8
0
  0
POLYLINE
  8
0
 62
     0
 66
     1
 10
0
 20
0
 30
0.0
 40
0.52455
 41
0.52455
  0
VERTEX
  8
0
 10
10.3486
 20
7.51471
 30
0.0
 40
0.00728542
 41
0.00728542
  0
VERTEX
  8
0
 10
10.5671
 20
7.21815
 30
0.0
 40
0.00728542
 41
0.00728542
  0
VERTEX
  8
0
 10
10.5671
 20
7.36426
 30
0.0
 40
0.00728542
 41
0.00728542
  0
VERTEX
  8
0
 10
10.7857
 20
7.08074
 30
0.0
 40
0.00728542
 41
0.00728542
  0
SEQEND
 8
0
  0
POLYLINE
  8
0
 62
     0
 66
     1
 10
0
 20
0
 30
0.0
 40
0.52455
 41
0.52455
  0
VERTEX
  8
0
 10
10.3682
 20
7.08507
 30
0.0
 40
0.00728542
 41
0.00728542
  0
VERTEX
  8
0
 10
10.766
 20
7.08507
 30
0.0
 40
0.00728542
 41
0.00728542
  0
SEQEND
 8
0
  0
POLYLINE
  8
0
 62
     7
 66
     1
 10
0
 20
0
 30
0.0
 70
     1
 40
0
 41
0
  0
VERTEX
  8
0
 10
10.614
 20
6.75906
 30
0.0
 40
0
 41
0
  0
VERTEX
  8
0
 10
10.781
 20
6.75906
 30
0.0
 40
0
 41
0
  0
VERTEX
  8
0
 10
10.781
 20
6.3425
 30
0.0
 40
0
 41
0
  0
VERTEX
  8
0
 10
10.614
 20
6.3425
 30
0.0
 40
0
 41
0
  0
VERTEX
  8
0
 10
10.614
 20
6.75906
 30
0.0
 40
0
 41
0
  0
SEQEND
 8
0
  0
POLYLINE
  8
0
 62
     0
 66
     1
 10
0
 20
0
 30
0.0
 70
     1
 40
0.75
 41
0.75
  0
VERTEX
  8
0
 10
10.614
 20
6.75906
 30
0.0
 40
0.0104167
 41
0.0104167
  0
VERTEX
  8
0
 10
10.614
 20
6.3425
 30
0.0
 40
0.0104167
 41
0.0104167
  0
VERTEX
  8
0
 10
10.781
 20
6.3425
 30
0.0
 40
0.0104167
 41
0.0104167
  0
VERTEX
  8
0
 10
10.781
 20
6.75906
 30
0.0
 40
0.0104167
 41
0.0104167
  0
VERTEX
  8
0
 10
10.614
 20
6.75906
 30
0.0
 40
0.0104167
 41
0.0104167
  0
SEQEND
 8
0
  0
POLYLINE
  8
0
 62
     7
 66
     1
 10
0
 20
0
 30
0.0
 70
     1
 40
0
 41
0
  0
VERTEX
  8
0
 10
10.3748
 20
6.3425
 30
0.0
 40
0
 41
0
  0
VERTEX
  8
0
 10
10.3748
 20
6.3425
 30
0.0
 40
0
 41
0
  0
VERTEX
  8
0
 10
10.3643
 20
6.34244
 30
0.0
 40
0
 41
0
  0
VERTEX
  8
0
 10
10.3366
 20
6.34407
 30
0.0
 40
0
 41
0
  0
VERTEX
  8
0
 10
10.2976
 20
6.35021
 30
0.0
 40
0
 41
0
  0
VERTEX
  8
0
 10
10.2528
 20
6.36361
 30
0.0
 40
0
 41
0
  0
VERTEX
  8
0
 10
10.208
 20
6.38721
 30
0.0
 40
0
 41
0
  0
VERTEX
  8
0
 10
10.1689
 20
6.42367
 30
0.0
 40
0
 41
0
  0
VERTEX
  8
0
 10
10.1413
 20
6.47581
 30
0.0
 40
0
 41
0
  0
VERTEX
  8
0
 10
10.1309
 20
6.52886
 30
0.0
 40
0
 41
0
  0
VERTEX
  8
0
 10
10.1309
 20
6.5465
 30
0.0
 40
0
 41
0
  0
VERTEX
  8
0
 10
10.1309
 20
6.56483
 30
0.0
 40
0
 41
0
  0
VERTEX
  8
0
 10
10.1413
 20
6.61968
 30
0.0
 40
0
 41
0
  0
VERTEX
  8
0
 10
10.1689
 20
6.67378
 30
0.0
 40
0
 41
0
  0
VERTEX
  8
0
 10
10.208
 20
6.71158
 30
0.0
 40
0
 41
0
  0
VERTEX
  8
0
 10
10.2528
 20
6.736
 30
0.0
 40
0
 41
0
  0
VERTEX
  8
0
 10
10.2976
 20
6.75
 30
0.0
 40
0
 41
0
  0
VERTEX
  8
0
 10
10.3366
 20
6.7564
 30
0.0
 40
0
 41
0
  0
VERTEX
  8
0
 10
10.3643
 20
6.75814
 30
0.0
 40
0
 41
0
  0
VERTEX
  8
0
 10
10.3748
 20
6.75803
 30
0.0
 40
0
 41
0
  0
VERTEX
  8
0
 10
10.3748
 20
6.75803
 30
0.0
 40
0
 41
0
  0
VERTEX
  8
0
 10
10.614
 20
6.75906
 30
0.0
 40
0
 41
0
  0
VERTEX
  8
0
 10
10.614
 20
6.3425
 30
0.0
 40
0
 41
0
  0
VERTEX
  8
0
 10
10.3748
 20
6.3425
 30
0.0
 40
0
 41
0
  0
SEQEND
 8
0
  0
POLYLINE
  8
0
 62
     0
 66
     1
 10
0
 20
0
 30
0.0
 70
     1
 40
0.75
 41
0.75
  0
VERTEX
  8
0
 10
10.3748
 20
6.3425
 30
0.0
 40
0.0104167
 41
0.0104167
  0
VERTEX
  8
0
 10
10.3748
 20
6.3425
 30
0.0
 40
0.0104167
 41
0.0104167
  0
VERTEX
  8
0
 10
10.3643
 20
6.34244
 30
0.0
 40
0.0104167
 41
0.0104167
  0
VERTEX
  8
0
 10
10.3366
 20
6.34407
 30
0.0
 40
0.0104167
 41
0.0104167
  0
VERTEX
  8
0
 10
10.2976
 20
6.35021
 30
0.0
 40
0.0104167
 41
0.0104167
  0
VERTEX
  8
0
 10
10.2528
 20
6.36361
 30
0.0
 40
0.0104167
 41
0.0104167
  0
VERTEX
  8
0
 10
10.208
 20
6.38721
 30
0.0
 40
0.0104167
 41
0.0104167
  0
VERTEX
  8
0
 10
10.1689
 20
6.42367
 30
0.0
 40
0.0104167
 41
0.0104167
  0
VERTEX
  8
0
 10
10.1413
 20
6.47581
 30
0.0
 40
0.0104167
 41
0.0104167
  0
VERTEX
  8
0
 10
10.1309
 20
6.52886
 30
0.0
 40
0.0104167
 41
0.0104167
  0
VERTEX
  8
0
 10
10.1309
 20
6.5465
 30
0.0
 40
0.0104167
 41
0.0104167
  0
VERTEX
  8
0
 10
10.1309
 20
6.56483
 30
0.0
 40
0.0104167
 41
0.0104167
  0
VERTEX
  8
0
 10
10.1413
 20
6.61968
 30
0.0
 40
0.0104167
 41
0.0104167
  0
VERTEX
  8
0
 10
10.1689
 20
6.67378
 30
0.0
 40
0.0104167
 41
0.0104167
  0
VERTEX
  8
0
 10
10.208
 20
6.71158
 30
0.0
 40
0.0104167
 41
0.0104167
  0
VERTEX
  8
0
 10
10.2528
 20
6.736
 30
0.0
 40
0.0104167
 41
0.0104167
  0
VERTEX
  8
0
 10
10.2976
 20
6.75
 30
0.0
 40
0.0104167
 41
0.0104167
  0
VERTEX
  8
0
 10
10.3366
 20
6.7564
 30
0.0
 40
0.0104167
 41
0.0104167
  0
VERTEX
  8
0
 10
10.3643
 20
6.75814
 30
0.0
 40
0.0104167
 41
0.0104167
  0
VERTEX
  8
0
 10
10.3748
 20
6.75803
 30
0.0
 40
0.0104167
 41
0.0104167
  0
VERTEX
  8
0
 10
10.3748
 20
6.75803
 30
0.0
 40
0.0104167
 41
0.0104167
  0
VERTEX
  8
0
 10
10.614
 20
6.75906
 30
0.0
 40
0.0104167
 41
0.0104167
  0
VERTEX
  8
0
 10
10.614
 20
6.3425
 30
0.0
 40
0.0104167
 41
0.0104167
  0
VERTEX
  8
0
 10
10.3748
 20
6.3425
 30
0.0
 40
0.0104167
 41
0.0104167
  0
SEQEND
 8
0
  0
POLYLINE
  8
0
 62
     7
 66
     1
 10
0
 20
0
 30
0.0
 70
     1
 40
0
 41
0
  0
VERTEX
  8
0
 10
10.6835
 20
6.58388
 30
0.0
 40
0
 41
0
  0
VERTEX
  8
0
 10
10.7116
 20
6.58388
 30
0.0
 40
0
 41
0
  0
VERTEX
  8
0
 10
10.7116
 20
6.51768
 30
0.0
 40
0
 41
0
  0
VERTEX
  8
0
 10
10.6835
 20
6.51768
 30
0.0
 40
0
 41
0
  0
VERTEX
  8
0
 10
10.6835
 20
6.58388
 30
0.0
 40
0
 41
0
  0
SEQEND
 8
0
  0
POLYLINE
  8
0
 62
     0
 66
     1
 10
0
 20
0
 30
0.0
 70
     1
 40
0.75
 41
0.75
  0
VERTEX
  8
0
 10
10.6835
 20
6.58388
 30
0.0
 40
0.0104167
 41
0.0104167
  0
VERTEX
  8
0
 10
10.6835
 20
6.51768
 30
0.0
 40
0.0104167
 41
0.0104167
  0
VERTEX
  8
0
 10
10.7116
 20
6.51768
 30
0.0
 40
0.0104167
 41
0.0104167
  0
VERTEX
  8
0
 10
10.7116
 20
6.58388
 30
0.0
 40
0.0104167
 41
0.0104167
  0
VERTEX
  8
0
 10
10.6835
 20
6.58388
 30
0.0
 40
0.0104167
 41
0.0104167
  0
SEQEND
 8
0
  0
POLYLINE
  8
0
 62
     7
 66
     1
 10
0
 20
0
 30
0.0
 70
     1
 40
0
 41
0
  0
VERTEX
  8
0
 10
10.9003
 20
7.51492
 30
0.0
 40
0
 41
0
  0
VERTEX
  8
0
 10
11.5253
 20
7.51492
 30
0.0
 40
0
 41
0
  0
VERTEX
  8
0
 10
11.5253
 20
5.97618
 30
0.0
 40
0
 41
0
  0
VERTEX
  8
0
 10
10.9003
 20
5.97618
 30
0.0
 40
0
 41
0
  0
VERTEX
  8
0
 10
10.9003
 20
7.51492
 30
0.0
 40
0
 41
0
  0
SEQEND
 8
0
  0
POLYLINE
  8
0
 62
     0
 66
     1
 10
0
 20
0
 30
0.0
 70
     1
 40
0.75
 41
0.75
  0
VERTEX
  8
0
 10
10.9003
 20
7.51492
 30
0.0
 40
0.0104167
 41
0.0104167
  0
VERTEX
  8
0
 10
10.9003
 20
5.97618
 30
0.0
 40
0.0104167
 41
0.0104167
  0
VERTEX
  8
0
 10
11.5253
 20
5.97618
 30
0.0
 40
0.0104167
 41
0.0104167
  0
VERTEX
  8
0
 10
11.5253
 20
7.51492
 30
0.0
 40
0.0104167
 41
0.0104167
  0
VERTEX
  8
0
 10
10.9003
 20
7.51492
 30
0.0
 40
0.0104167
 41
0.0104167
  0
SEQEND
 8
0
  0
POLYLINE
  8
0
 62
     7
 66
     1
 10
0
 20
0
 30
0.0
 70
     1
 40
0
 41
0
  0
VERTEX
  8
0
 10
13.0448
 20
7.51346
 30
0.0
 40
0
 41
0
  0
VERTEX
  8
0
 10
13.63
 20
7.51346
 30
0.0
 40
0
 41
0
  0
VERTEX
  8
0
 10
13.63
 20
6.86774
 30
0.0
 40
0
 41
0
  0
VERTEX
  8
0
 10
13.0448
 20
6.86774
 30
0.0
 40
0
 41
0
  0
VERTEX
  8
0
 10
13.0448
 20
7.51346
 30
0.0
 40
0
 41
0
  0
SEQEND
 8
0
  0
POLYLINE
  8
0
 62
     0
 66
     1
 10
0
 20
0
 30
0.0
 70
     1
 40
0.75
 41
0.75
  0
VERTEX
  8
0
 10
13.0448
 20
7.51346
 30
0.0
 40
0.0104167
 41
0.0104167
  0
VERTEX
  8
0
 10
13.63
 20
7.51346
 30
0.0
 40
0.0104167
 41
0.0104167
  0
VERTEX
  8
0
 10
13.63
 20
6.86774
 30
0.0
 40
0.0104167
 41
0.0104167
  0
VERTEX
  8
0
 10
13.0448
 20
6.86774
 30
0.0
 40
0.0104167
 41
0.0104167
  0
VERTEX
  8
0
 10
13.0448
 20
7.51346
 30
0.0
 40
0.0104167
 41
0.0104167
  0
SEQEND
 8
0
  0
POLYLINE
  8
0
 62
     7
 66
     1
 10
0
 20
0
 30
0.0
 70
     1
 40
0
 41
0
  0
VERTEX
  8
0
 10
13.63
 20
7.51346
 30
0.0
 40
0
 41
0
  0
VERTEX
  8
0
 10
14.2151
 20
7.51346
 30
0.0
 40
0
 41
0
  0
VERTEX
  8
0
 10
14.2151
 20
6.86774
 30
0.0
 40
0
 41
0
  0
VERTEX
  8
0
 10
13.63
 20
6.86774
 30
0.0
 40
0
 41
0
  0
VERTEX
  8
0
 10
13.63
 20
7.51346
 30
0.0
 40
0
 41
0
  0
SEQEND
 8
0
  0
POLYLINE
  8
0
 62
     0
 66
     1
 10
0
 20
0
 30
0.0
 70
     1
 40
0.75
 41
0.75
  0
VERTEX
  8
0
 10
13.63
 20
7.51346
 30
0.0
 40
0.0104167
 41
0.0104167
  0
VERTEX
  8
0
 10
14.2151
 20
7.51346
 30
0.0
 40
0.0104167
 41
0.0104167
  0
VERTEX
  8
0
 10
14.2151
 20
6.86774
 30
0.0
 40
0.0104167
 41
0.0104167
  0
VERTEX
  8
0
 10
13.63
 20
6.86774
 30
0.0
 40
0.0104167
 41
0.0104167
  0
VERTEX
  8
0
 10
13.63
 20
7.51346
 30
0.0
 40
0.0104167
 41
0.0104167
  0
SEQEND
 8
0
  0
POLYLINE
  8
0
 62
     7
 66
     1
 10
0
 20
0
 30
0.0
 70
     1
 40
0
 41
0
  0
VERTEX
  8
0
 10
14.2151
 20
7.51346
 30
0.0
 40
0
 41
0
  0
VERTEX
  8
0
 10
14.8004
 20
7.51346
 30
0.0
 40
0
 41
0
  0
VERTEX
  8
0
 10
14.8004
 20
6.86774
 30
0.0
 40
0
 41
0
  0
VERTEX
  8
0
 10
14.2151
 20
6.86774
 30
0.0
 40
0
 41
0
  0
VERTEX
  8
0
 10
14.2151
 20
7.51346
 30
0.0
 40
0
 41
0
  0
SEQEND
 8
0
  0
POLYLINE
  8
0
 62
     0
 66
     1
 10
0
 20
0
 30
0.0
 70
     1
 40
0.75
 41
0.75
  0
VERTEX
  8
0
 10
14.2151
 20
7.51346
 30
0.0
 40
0.0104167
 41
0.0104167
  0
VERTEX
  8
0
 10
14.8004
 20
7.51346
 30
0.0
 40
0.0104167
 41
0.0104167
  0
VERTEX
  8
0
 10
14.8004
 20
6.86774
 30
0.0
 40
0.0104167
 41
0.0104167
  0
VERTEX
  8
0
 10
14.2151
 20
6.86774
 30
0.0
 40
0.0104167
 41
0.0104167
  0
VERTEX
  8
0
 10
14.2151
 20
7.51346
 30
0.0
 40
0.0104167
 41
0.0104167
  0
SEQEND
 8
0
  0
POLYLINE
  8
0
 62
     7
 66
     1
 10
0
 20
0
 30
0.0
 70
     1
 40
0
 41
0
  0
VERTEX
  8
0
 10
10.9003
 20
4.74978
 30
0.0
 40
0
 41
0
  0
VERTEX
  8
0
 10
12.8733
 20
4.74978
 30
0.0
 40
0
 41
0
  0
VERTEX
  8
0
 10
12.8733
 20
4.12478
 30
0.0
 40
0
 41
0
  0
VERTEX
  8
0
 10
10.9003
 20
4.12478
 30
0.0
 40
0
 41
0
  0
VERTEX
  8
0
 10
10.9003
 20
4.74978
 30
0.0
 40
0
 41
0
  0
SEQEND
 8
0
  0
POLYLINE
  8
0
 62
     0
 66
     1
 10
0
 20
0
 30
0.0
 70
     1
 40
0.75
 41
0.75
  0
VERTEX
  8
0
 10
10.9003
 20
4.74978
 30
0.0
 40
0.0104167
 41
0.0104167
  0
VERTEX
  8
0
 10
12.8733
 20
4.74978
 30
0.0
 40
0.0104167
 41
0.0104167
  0
VERTEX
  8
0
 10
12.8733
 20
4.12478
 30
0.0
 40
0.0104167
 41
0.0104167
  0
VERTEX
  8
0
 10
10.9003
 20
4.12478
 30
0.0
 40
0.0104167
 41
0.0104167
  0
VERTEX
  8
0
 10
10.9003
 20
4.74978
 30
0.0
 40
0.0104167
 41
0.0104167
  0
SEQEND
 8
0
  0
POLYLINE
  8
0
 62
     7
 66
     1
 10
0
 20
0
 30
0.0
 70
     1
 40
0
 41
0
  0
VERTEX
  8
0
 10
13.8538
 20
4.74978
 30
0.0
 40
0
 41
0
  0
VERTEX
  8
0
 10
14.8004
 20
4.74978
 30
0.0
 40
0
 41
0
  0
VERTEX
  8
0
 10
14.8004
 20
4.12478
 30
0.0
 40
0
 41
0
  0
VERTEX
  8
0
 10
13.8538
 20
4.12478
 30
0.0
 40
0
 41
0
  0
VERTEX
  8
0
 10
13.8538
 20
4.74978
 30
0.0
 40
0
 41
0
  0
SEQEND
 8
0
  0
POLYLINE
  8
0
 62
     0
 66
     1
 10
0
 20
0
 30
0.0
 70
     1
 40
0.75
 41
0.75
  0
VERTEX
  8
0
 10
13.8538
 20
4.74978
 30
0.0
 40
0.0104167
 41
0.0104167
  0
VERTEX
  8
0
 10
14.8004
 20
4.74978
 30
0.0
 40
0.0104167
 41
0.0104167
  0
VERTEX
  8
0
 10
14.8004
 20
4.12478
 30
0.0
 40
0.0104167
 41
0.0104167
  0
VERTEX
  8
0
 10
13.8538
 20
4.12478
 30
0.0
 40
0.0104167
 41
0.0104167
  0
VERTEX
  8
0
 10
13.8538
 20
4.74978
 30
0.0
 40
0.0104167
 41
0.0104167
  0
SEQEND
 8
0
  0
POLYLINE
  8
0
 62
     0
 66
     1
 10
0
 20
0
 30
0.0
 70
     1
 40
0.75
 41
0.75
  0
VERTEX
  8
0
 10
13.8542
 20
4.43744
 30
0.0
 40
0.0104167
 41
0.0104167
  0
VERTEX
  8
0
 10
14.8004
 20
4.43744
 30
0.0
 40
0.0104167
 41
0.0104167
  0
VERTEX
  8
0
 10
14.8004
 20
4.12494
 30
0.0
 40
0.0104167
 41
0.0104167
  0
VERTEX
  8
0
 10
13.8542
 20
4.12494
 30
0.0
 40
0.0104167
 41
0.0104167
  0
VERTEX
  8
0
 10
13.8542
 20
4.43744
 30
0.0
 40
0.0104167
 41
0.0104167
  0
SEQEND
 8
0
  0
POLYLINE
  8
0
 62
     7
 66
     1
 10
0
 20
0
 30
0.0
 70
     1
 40
0
 41
0
  0
VERTEX
  8
0
 10
11.4467
 20
4.74875
 30
0.0
 40
0
 41
0
  0
VERTEX
  8
0
 10
12.0634
 20
4.74875
 30
0.0
 40
0
 41
0
  0
VERTEX
  8
0
 10
12.0634
 20
4.1295
 30
0.0
 40
0
 41
0
  0
VERTEX
  8
0
 10
11.4467
 20
4.1295
 30
0.0
 40
0
 41
0
  0
VERTEX
  8
0
 10
11.4467
 20
4.74875
 30
0.0
 40
0
 41
0
  0
SEQEND
 8
0
  0
POLYLINE
  8
0
 62
     0
 66
     1
 10
0
 20
0
 30
0.0
 70
     1
 40
0.75
 41
0.75
  0
VERTEX
  8
0
 10
11.4467
 20
4.74875
 30
0.0
 40
0.0104167
 41
0.0104167
  0
VERTEX
  8
0
 10
12.0634
 20
4.74875
 30
0.0
 40
0.0104167
 41
0.0104167
  0
VERTEX
  8
0
 10
12.0634
 20
4.1295
 30
0.0
 40
0.0104167
 41
0.0104167
  0
VERTEX
  8
0
 10
11.4467
 20
4.1295
 30
0.0
 40
0.0104167
 41
0.0104167
  0
VERTEX
  8
0
 10
11.4467
 20
4.74875
 30
0.0
 40
0.0104167
 41
0.0104167
  0
SEQEND
 8
0
  0
POLYLINE
  8
0
 62
     7
 66
     1
 10
0
 20
0
 30
0.0
 70
     1
 40
0
 41
0
  0
VERTEX
  8
0
 10
11.825
 20
4.28526
 30
0.0
 40
0
 41
0
  0
VERTEX
  8
0
 10
11.825
 20
4.2934
 30
0.0
 40
0
 41
0
  0
VERTEX
  8
0
 10
11.8315
 20
4.31771
 30
0.0
 40
0
 41
0
  0
VERTEX
  8
0
 10
11.8494
 20
4.34418
 30
0.0
 40
0
 41
0
  0
VERTEX
  8
0
 10
11.8759
 20
4.36208
 30
0.0
 40
0
 41
0
  0
VERTEX
  8
0
 10
11.9002
 20
4.3686
 30
0.0
 40
0
 41
0
  0
VERTEX
  8
0
 10
11.9084
 20
4.3686
 30
0.0
 40
0
 41
0
  0
VERTEX
  8
0
 10
11.9164
 20
4.3686
 30
0.0
 40
0
 41
0
  0
VERTEX
  8
0
 10
11.9408
 20
4.36208
 30
0.0
 40
0
 41
0
  0
VERTEX
  8
0
 10
11.9673
 20
4.34418
 30
0.0
 40
0
 41
0
  0
VERTEX
  8
0
 10
11.9851
 20
4.31771
 30
0.0
 40
0
 41
0
  0
VERTEX
  8
0
 10
11.9917
 20
4.2934
 30
0.0
 40
0
 41
0
  0
VERTEX
  8
0
 10
11.9917
 20
4.28526
 30
0.0
 40
0
 41
0
  0
VERTEX
  8
0
 10
11.9917
 20
4.27718
 30
0.0
 40
0
 41
0
  0
VERTEX
  8
0
 10
11.9851
 20
4.25282
 30
0.0
 40
0
 41
0
  0
VERTEX
  8
0
 10
11.9673
 20
4.22635
 30
0.0
 40
0
 41
0
  0
VERTEX
  8
0
 10
11.9408
 20
4.2085
 30
0.0
 40
0
 41
0
  0
VERTEX
  8
0
 10
11.9164
 20
4.20193
 30
0.0
 40
0
 41
0
  0
VERTEX
  8
0
 10
11.9084
 20
4.20193
 30
0.0
 40
0
 41
0
  0
VERTEX
  8
0
 10
11.9002
 20
4.20193
 30
0.0
 40
0
 41
0
  0
VERTEX
  8
0
 10
11.8759
 20
4.2085
 30
0.0
 40
0
 41
0
  0
VERTEX
  8
0
 10
11.8494
 20
4.22635
 30
0.0
 40
0
 41
0
  0
VERTEX
  8
0
 10
11.8315
 20
4.25282
 30
0.0
 40
0
 41
0
  0
VERTEX
  8
0
 10
11.825
 20
4.27718
 30
0.0
 40
0
 41
0
  0
VERTEX
  8
0
 10
11.825
 20
4.28526
 30
0.0
 40
0
 41
0
  0
SEQEND
 8
0
  0
POLYLINE
  8
0
 62
     0
 66
     1
 10
0
 20
0
 30
0.0
 70
     1
 40
0.75
 41
0.75
  0
VERTEX
  8
0
 10
11.825
 20
4.28526
 30
0.0
 40
0.0104167
 41
0.0104167
  0
VERTEX
  8
0
 10
11.825
 20
4.2934
 30
0.0
 40
0.0104167
 41
0.0104167
  0
VERTEX
  8
0
 10
11.8315
 20
4.31771
 30
0.0
 40
0.0104167
 41
0.0104167
  0
VERTEX
  8
0
 10
11.8494
 20
4.34418
 30
0.0
 40
0.0104167
 41
0.0104167
  0
VERTEX
  8
0
 10
11.8759
 20
4.36208
 30
0.0
 40
0.0104167
 41
0.0104167
  0
VERTEX
  8
0
 10
11.9002
 20
4.3686
 30
0.0
 40
0.0104167
 41
0.0104167
  0
VERTEX
  8
0
 10
11.9084
 20
4.3686
 30
0.0
 40
0.0104167
 41
0.0104167
  0
VERTEX
  8
0
 10
11.9164
 20
4.3686
 30
0.0
 40
0.0104167
 41
0.0104167
  0
VERTEX
  8
0
 10
11.9408
 20
4.36208
 30
0.0
 40
0.0104167
 41
0.0104167
  0
VERTEX
  8
0
 10
11.9673
 20
4.34418
 30
0.0
 40
0.0104167
 41
0.0104167
  0
VERTEX
  8
0
 10
11.9851
 20
4.31771
 30
0.0
 40
0.0104167
 41
0.0104167
  0
VERTEX
  8
0
 10
11.9917
 20
4.2934
 30
0.0
 40
0.0104167
 41
0.0104167
  0
VERTEX
  8
0
 10
11.9917
 20
4.28526
 30
0.0
 40
0.0104167
 41
0.0104167
  0
VERTEX
  8
0
 10
11.9917
 20
4.27718
 30
0.0
 40
0.0104167
 41
0.0104167
  0
VERTEX
  8
0
 10
11.9851
 20
4.25282
 30
0.0
 40
0.0104167
 41
0.0104167
  0
VERTEX
  8
0
 10
11.9673
 20
4.22635
 30
0.0
 40
0.0104167
 41
0.0104167
  0
VERTEX
  8
0
 10
11.9408
 20
4.2085
 30
0.0
 40
0.0104167
 41
0.0104167
  0
VERTEX
  8
0
 10
11.9164
 20
4.20193
 30
0.0
 40
0.0104167
 41
0.0104167
  0
VERTEX
  8
0
 10
11.9084
 20
4.20193
 30
0.0
 40
0.0104167
 41
0.0104167
  0
VERTEX
  8
0
 10
11.9002
 20
4.20193
 30
0.0
 40
0.0104167
 41
0.0104167
  0
VERTEX
  8
0
 10
11.8759
 20
4.2085
 30
0.0
 40
0.0104167
 41
0.0104167
  0
VERTEX
  8
0
 10
11.8494
 20
4.22635
 30
0.0
 40
0.0104167
 41
0.0104167
  0
VERTEX
  8
0
 10
11.8315
 20
4.25282
 30
0.0
 40
0.0104167
 41
0.0104167
  0
VERTEX
  8
0
 10
11.825
 20
4.27718
 30
0.0
 40
0.0104167
 41
0.0104167
  0
VERTEX
  8
0
 10
11.825
 20
4.28526
 30
0.0
 40
0.0104167
 41
0.0104167
  0
SEQEND
 8
0
  0
POLYLINE
  8
0
 62
     7
 66
     1
 10
0
 20
0
 30
0.0
 70
     1
 40
0
 41
0
  0
VERTEX
  8
0
 10
11.5173
 20
4.28526
 30
0.0
 40
0
 41
0
  0
VERTEX
  8
0
 10
11.5173
 20
4.2934
 30
0.0
 40
0
 41
0
  0
VERTEX
  8
0
 10
11.5238
 20
4.31771
 30
0.0
 40
0
 41
0
  0
VERTEX
  8
0
 10
11.5417
 20
4.34418
 30
0.0
 40
0
 41
0
  0
VERTEX
  8
0
 10
11.5681
 20
4.36208
 30
0.0
 40
0
 41
0
  0
VERTEX
  8
0
 10
11.5925
 20
4.3686
 30
0.0
 40
0
 41
0
  0
VERTEX
  8
0
 10
11.6006
 20
4.3686
 30
0.0
 40
0
 41
0
  0
VERTEX
  8
0
 10
11.6087
 20
4.3686
 30
0.0
 40
0
 41
0
  0
VERTEX
  8
0
 10
11.633
 20
4.36208
 30
0.0
 40
0
 41
0
  0
VERTEX
  8
0
 10
11.6596
 20
4.34418
 30
0.0
 40
0
 41
0
  0
VERTEX
  8
0
 10
11.6774
 20
4.31771
 30
0.0
 40
0
 41
0
  0
VERTEX
  8
0
 10
11.684
 20
4.2934
 30
0.0
 40
0
 41
0
  0
VERTEX
  8
0
 10
11.684
 20
4.28526
 30
0.0
 40
0
 41
0
  0
VERTEX
  8
0
 10
11.684
 20
4.27718
 30
0.0
 40
0
 41
0
  0
VERTEX
  8
0
 10
11.6774
 20
4.25282
 30
0.0
 40
0
 41
0
  0
VERTEX
  8
0
 10
11.6596
 20
4.22635
 30
0.0
 40
0
 41
0
  0
VERTEX
  8
0
 10
11.633
 20
4.2085
 30
0.0
 40
0
 41
0
  0
VERTEX
  8
0
 10
11.6087
 20
4.20193
 30
0.0
 40
0
 41
0
  0
VERTEX
  8
0
 10
11.6006
 20
4.20193
 30
0.0
 40
0
 41
0
  0
VERTEX
  8
0
 10
11.5925
 20
4.20193
 30
0.0
 40
0
 41
0
  0
VERTEX
  8
0
 10
11.5681
 20
4.2085
 30
0.0
 40
0
 41
0
  0
VERTEX
  8
0
 10
11.5417
 20
4.22635
 30
0.0
 40
0
 41
0
  0
VERTEX
  8
0
 10
11.5238
 20
4.25282
 30
0.0
 40
0
 41
0
  0
VERTEX
  8
0
 10
11.5173
 20
4.27718
 30
0.0
 40
0
 41
0
  0
VERTEX
  8
0
 10
11.5173
 20
4.28526
 30
0.0
 40
0
 41
0
  0
SEQEND
 8
0
  0
POLYLINE
  8
0
 62
     0
 66
     1
 10
0
 20
0
 30
0.0
 70
     1
 40
0.75
 41
0.75
  0
VERTEX
  8
0
 10
11.5173
 20
4.28526
 30
0.0
 40
0.0104167
 41
0.0104167
  0
VERTEX
  8
0
 10
11.5173
 20
4.2934
 30
0.0
 40
0.0104167
 41
0.0104167
  0
VERTEX
  8
0
 10
11.5238
 20
4.31771
 30
0.0
 40
0.0104167
 41
0.0104167
  0
VERTEX
  8
0
 10
11.5417
 20
4.34418
 30
0.0
 40
0.0104167
 41
0.0104167
  0
VERTEX
  8
0
 10
11.5681
 20
4.36208
 30
0.0
 40
0.0104167
 41
0.0104167
  0
VERTEX
  8
0
 10
11.5925
 20
4.3686
 30
0.0
 40
0.0104167
 41
0.0104167
  0
VERTEX
  8
0
 10
11.6006
 20
4.3686
 30
0.0
 40
0.0104167
 41
0.0104167
  0
VERTEX
  8
0
 10
11.6087
 20
4.3686
 30
0.0
 40
0.0104167
 41
0.0104167
  0
VERTEX
  8
0
 10
11.633
 20
4.36208
 30
0.0
 40
0.0104167
 41
0.0104167
  0
VERTEX
  8
0
 10
11.6596
 20
4.34418
 30
0.0
 40
0.0104167
 41
0.0104167
  0
VERTEX
  8
0
 10
11.6774
 20
4.31771
 30
0.0
 40
0.0104167
 41
0.0104167
  0
VERTEX
  8
0
 10
11.684
 20
4.2934
 30
0.0
 40
0.0104167
 41
0.0104167
  0
VERTEX
  8
0
 10
11.684
 20
4.28526
 30
0.0
 40
0.0104167
 41
0.0104167
  0
VERTEX
  8
0
 10
11.684
 20
4.27718
 30
0.0
 40
0.0104167
 41
0.0104167
  0
VERTEX
  8
0
 10
11.6774
 20
4.25282
 30
0.0
 40
0.0104167
 41
0.0104167
  0
VERTEX
  8
0
 10
11.6596
 20
4.22635
 30
0.0
 40
0.0104167
 41
0.0104167
  0
VERTEX
  8
0
 10
11.633
 20
4.2085
 30
0.0
 40
0.0104167
 41
0.0104167
  0
VERTEX
  8
0
 10
11.6087
 20
4.20193
 30
0.0
 40
0.0104167
 41
0.0104167
  0
VERTEX
  8
0
 10
11.6006
 20
4.20193
 30
0.0
 40
0.0104167
 41
0.0104167
  0
VERTEX
  8
0
 10
11.5925
 20
4.20193
 30
0.0
 40
0.0104167
 41
0.0104167
  0
VERTEX
  8
0
 10
11.5681
 20
4.2085
 30
0.0
 40
0.0104167
 41
0.0104167
  0
VERTEX
  8
0
 10
11.5417
 20
4.22635
 30
0.0
 40
0.0104167
 41
0.0104167
  0
VERTEX
  8
0
 10
11.5238
 20
4.25282
 30
0.0
 40
0.0104167
 41
0.0104167
  0
VERTEX
  8
0
 10
11.5173
 20
4.27718
 30
0.0
 40
0.0104167
 41
0.0104167
  0
VERTEX
  8
0
 10
11.5173
 20
4.28526
 30
0.0
 40
0.0104167
 41
0.0104167
  0
SEQEND
 8
0
  0
POLYLINE
  8
0
 62
     7
 66
     1
 10
0
 20
0
 30
0.0
 70
     1
 40
0
 41
0
  0
VERTEX
  8
0
 10
11.825
 20
4.59429
 30
0.0
 40
0
 41
0
  0
VERTEX
  8
0
 10
11.825
 20
4.60243
 30
0.0
 40
0
 41
0
  0
VERTEX
  8
0
 10
11.8315
 20
4.62674
 30
0.0
 40
0
 41
0
  0
VERTEX
  8
0
 10
11.8494
 20
4.65321
 30
0.0
 40
0
 41
0
  0
VERTEX
  8
0
 10
11.8759
 20
4.67111
 30
0.0
 40
0
 41
0
  0
VERTEX
  8
0
 10
11.9002
 20
4.67763
 30
0.0
 40
0
 41
0
  0
VERTEX
  8
0
 10
11.9084
 20
4.67763
 30
0.0
 40
0
 41
0
  0
VERTEX
  8
0
 10
11.9164
 20
4.67763
 30
0.0
 40
0
 41
0
  0
VERTEX
  8
0
 10
11.9408
 20
4.67111
 30
0.0
 40
0
 41
0
  0
VERTEX
  8
0
 10
11.9673
 20
4.65321
 30
0.0
 40
0
 41
0
  0
VERTEX
  8
0
 10
11.9851
 20
4.62674
 30
0.0
 40
0
 41
0
  0
VERTEX
  8
0
 10
11.9917
 20
4.60243
 30
0.0
 40
0
 41
0
  0
VERTEX
  8
0
 10
11.9917
 20
4.59429
 30
0.0
 40
0
 41
0
  0
VERTEX
  8
0
 10
11.9917
 20
4.58621
 30
0.0
 40
0
 41
0
  0
VERTEX
  8
0
 10
11.9851
 20
4.56185
 30
0.0
 40
0
 41
0
  0
VERTEX
  8
0
 10
11.9673
 20
4.53537
 30
0.0
 40
0
 41
0
  0
VERTEX
  8
0
 10
11.9408
 20
4.51753
 30
0.0
 40
0
 41
0
  0
VERTEX
  8
0
 10
11.9164
 20
4.51096
 30
0.0
 40
0
 41
0
  0
VERTEX
  8
0
 10
11.9084
 20
4.51096
 30
0.0
 40
0
 41
0
  0
VERTEX
  8
0
 10
11.9002
 20
4.51096
 30
0.0
 40
0
 41
0
  0
VERTEX
  8
0
 10
11.8759
 20
4.51753
 30
0.0
 40
0
 41
0
  0
VERTEX
  8
0
 10
11.8494
 20
4.53537
 30
0.0
 40
0
 41
0
  0
VERTEX
  8
0
 10
11.8315
 20
4.56185
 30
0.0
 40
0
 41
0
  0
VERTEX
  8
0
 10
11.825
 20
4.58621
 30
0.0
 40
0
 41
0
  0
VERTEX
  8
0
 10
11.825
 20
4.59429
 30
0.0
 40
0
 41
0
  0
SEQEND
 8
0
  0
POLYLINE
  8
0
 62
     0
 66
     1
 10
0
 20
0
 30
0.0
 70
     1
 40
0.75
 41
0.75
  0
VERTEX
  8
0
 10
11.825
 20
4.59429
 30
0.0
 40
0.0104167
 41
0.0104167
  0
VERTEX
  8
0
 10
11.825
 20
4.60243
 30
0.0
 40
0.0104167
 41
0.0104167
  0
VERTEX
  8
0
 10
11.8315
 20
4.62674
 30
0.0
 40
0.0104167
 41
0.0104167
  0
VERTEX
  8
0
 10
11.8494
 20
4.65321
 30
0.0
 40
0.0104167
 41
0.0104167
  0
VERTEX
  8
0
 10
11.8759
 20
4.67111
 30
0.0
 40
0.0104167
 41
0.0104167
  0
VERTEX
  8
0
 10
11.9002
 20
4.67763
 30
0.0
 40
0.0104167
 41
0.0104167
  0
VERTEX
  8
0
 10
11.9084
 20
4.67763
 30
0.0
 40
0.0104167
 41
0.0104167
  0
VERTEX
  8
0
 10
11.9164
 20
4.67763
 30
0.0
 40
0.0104167
 41
0.0104167
  0
VERTEX
  8
0
 10
11.9408
 20
4.67111
 30
0.0
 40
0.0104167
 41
0.0104167
  0
VERTEX
  8
0
 10
11.9673
 20
4.65321
 30
0.0
 40
0.0104167
 41
0.0104167
  0
VERTEX
  8
0
 10
11.9851
 20
4.62674
 30
0.0
 40
0.0104167
 41
0.0104167
  0
VERTEX
  8
0
 10
11.9917
 20
4.60243
 30
0.0
 40
0.0104167
 41
0.0104167
  0
VERTEX
  8
0
 10
11.9917
 20
4.59429
 30
0.0
 40
0.0104167
 41
0.0104167
  0
VERTEX
  8
0
 10
11.9917
 20
4.58621
 30
0.0
 40
0.0104167
 41
0.0104167
  0
VERTEX
  8
0
 10
11.9851
 20
4.56185
 30
0.0
 40
0.0104167
 41
0.0104167
  0
VERTEX
  8
0
 10
11.9673
 20
4.53537
 30
0.0
 40
0.0104167
 41
0.0104167
  0
VERTEX
  8
0
 10
11.9408
 20
4.51753
 30
0.0
 40
0.0104167
 41
0.0104167
  0
VERTEX
  8
0
 10
11.9164
 20
4.51096
 30
0.0
 40
0.0104167
 41
0.0104167
  0
VERTEX
  8
0
 10
11.9084
 20
4.51096
 30
0.0
 40
0.0104167
 41
0.0104167
  0
VERTEX
  8
0
 10
11.9002
 20
4.51096
 30
0.0
 40
0.0104167
 41
0.0104167
  0
VERTEX
  8
0
 10
11.8759
 20
4.51753
 30
0.0
 40
0.0104167
 41
0.0104167
  0
VERTEX
  8
0
 10
11.8494
 20
4.53537
 30
0.0
 40
0.0104167
 41
0.0104167
  0
VERTEX
  8
0
 10
11.8315
 20
4.56185
 30
0.0
 40
0.0104167
 41
0.0104167
  0
VERTEX
  8
0
 10
11.825
 20
4.58621
 30
0.0
 40
0.0104167
 41
0.0104167
  0
VERTEX
  8
0
 10
11.825
 20
4.59429
 30
0.0
 40
0.0104167
 41
0.0104167
  0
SEQEND
 8
0
  0
POLYLINE
  8
0
 62
     7
 66
     1
 10
0
 20
0
 30
0.0
 70
     1
 40
0
 41
0
  0
VERTEX
  8
0
 10
11.5173
 20
4.59429
 30
0.0
 40
0
 41
0
  0
VERTEX
  8
0
 10
11.5173
 20
4.60243
 30
0.0
 40
0
 41
0
  0
VERTEX
  8
0
 10
11.5238
 20
4.62674
 30
0.0
 40
0
 41
0
  0
VERTEX
  8
0
 10
11.5417
 20
4.65321
 30
0.0
 40
0
 41
0
  0
VERTEX
  8
0
 10
11.5681
 20
4.67111
 30
0.0
 40
0
 41
0
  0
VERTEX
  8
0
 10
11.5925
 20
4.67763
 30
0.0
 40
0
 41
0
  0
VERTEX
  8
0
 10
11.6006
 20
4.67763
 30
0.0
 40
0
 41
0
  0
VERTEX
  8
0
 10
11.6087
 20
4.67763
 30
0.0
 40
0
 41
0
  0
VERTEX
  8
0
 10
11.633
 20
4.67111
 30
0.0
 40
0
 41
0
  0
VERTEX
  8
0
 10
11.6596
 20
4.65321
 30
0.0
 40
0
 41
0
  0
VERTEX
  8
0
 10
11.6774
 20
4.62674
 30
0.0
 40
0
 41
0
  0
VERTEX
  8
0
 10
11.684
 20
4.60243
 30
0.0
 40
0
 41
0
  0
VERTEX
  8
0
 10
11.684
 20
4.59429
 30
0.0
 40
0
 41
0
  0
VERTEX
  8
0
 10
11.684
 20
4.58621
 30
0.0
 40
0
 41
0
  0
VERTEX
  8
0
 10
11.6774
 20
4.56185
 30
0.0
 40
0
 41
0
  0
VERTEX
  8
0
 10
11.6596
 20
4.53537
 30
0.0
 40
0
 41
0
  0
VERTEX
  8
0
 10
11.633
 20
4.51753
 30
0.0
 40
0
 41
0
  0
VERTEX
  8
0
 10
11.6087
 20
4.51096
 30
0.0
 40
0
 41
0
  0
VERTEX
  8
0
 10
11.6006
 20
4.51096
 30
0.0
 40
0
 41
0
  0
VERTEX
  8
0
 10
11.5925
 20
4.51096
 30
0.0
 40
0
 41
0
  0
VERTEX
  8
0
 10
11.5681
 20
4.51753
 30
0.0
 40
0
 41
0
  0
VERTEX
  8
0
 10
11.5417
 20
4.53537
 30
0.0
 40
0
 41
0
  0
VERTEX
  8
0
 10
11.5238
 20
4.56185
 30
0.0
 40
0
 41
0
  0
VERTEX
  8
0
 10
11.5173
 20
4.58621
 30
0.0
 40
0
 41
0
  0
VERTEX
  8
0
 10
11.5173
 20
4.59429
 30
0.0
 40
0
 41
0
  0
SEQEND
 8
0
  0
POLYLINE
  8
0
 62
     0
 66
     1
 10
0
 20
0
 30
0.0
 70
     1
 40
0.75
 41
0.75
  0
VERTEX
  8
0
 10
11.5173
 20
4.59429
 30
0.0
 40
0.0104167
 41
0.0104167
  0
VERTEX
  8
0
 10
11.5173
 20
4.60243
 30
0.0
 40
0.0104167
 41
0.0104167
  0
VERTEX
  8
0
 10
11.5238
 20
4.62674
 30
0.0
 40
0.0104167
 41
0.0104167
  0
VERTEX
  8
0
 10
11.5417
 20
4.65321
 30
0.0
 40
0.0104167
 41
0.0104167
  0
VERTEX
  8
0
 10
11.5681
 20
4.67111
 30
0.0
 40
0.0104167
 41
0.0104167
  0
VERTEX
  8
0
 10
11.5925
 20
4.67763
 30
0.0
 40
0.0104167
 41
0.0104167
  0
VERTEX
  8
0
 10
11.6006
 20
4.67763
 30
0.0
 40
0.0104167
 41
0.0104167
  0
VERTEX
  8
0
 10
11.6087
 20
4.67763
 30
0.0
 40
0.0104167
 41
0.0104167
  0
VERTEX
  8
0
 10
11.633
 20
4.67111
 30
0.0
 40
0.0104167
 41
0.0104167
  0
VERTEX
  8
0
 10
11.6596
 20
4.65321
 30
0.0
 40
0.0104167
 41
0.0104167
  0
VERTEX
  8
0
 10
11.6774
 20
4.62674
 30
0.0
 40
0.0104167
 41
0.0104167
  0
VERTEX
  8
0
 10
11.684
 20
4.60243
 30
0.0
 40
0.0104167
 41
0.0104167
  0
VERTEX
  8
0
 10
11.684
 20
4.59429
 30
0.0
 40
0.0104167
 41
0.0104167
  0
VERTEX
  8
0
 10
11.684
 20
4.58621
 30
0.0
 40
0.0104167
 41
0.0104167
  0
VERTEX
  8
0
 10
11.6774
 20
4.56185
 30
0.0
 40
0.0104167
 41
0.0104167
  0
VERTEX
  8
0
 10
11.6596
 20
4.53537
 30
0.0
 40
0.0104167
 41
0.0104167
  0
VERTEX
  8
0
 10
11.633
 20
4.51753
 30
0.0
 40
0.0104167
 41
0.0104167
  0
VERTEX
  8
0
 10
11.6087
 20
4.51096
 30
0.0
 40
0.0104167
 41
0.0104167
  0
VERTEX
  8
0
 10
11.6006
 20
4.51096
 30
0.0
 40
0.0104167
 41
0.0104167
  0
VERTEX
  8
0
 10
11.5925
 20
4.51096
 30
0.0
 40
0.0104167
 41
0.0104167
  0
VERTEX
  8
0
 10
11.5681
 20
4.51753
 30
0.0
 40
0.0104167
 41
0.0104167
  0
VERTEX
  8
0
 10
11.5417
 20
4.53537
 30
0.0
 40
0.0104167
 41
0.0104167
  0
VERTEX
  8
0
 10
11.5238
 20
4.56185
 30
0.0
 40
0.0104167
 41
0.0104167
  0
VERTEX
  8
0
 10
11.5173
 20
4.58621
 30
0.0
 40
0.0104167
 41
0.0104167
  0
VERTEX
  8
0
 10
11.5173
 20
4.59429
 30
0.0
 40
0.0104167
 41
0.0104167
  0
SEQEND
 8
0
  0
POLYLINE
  8
0
 62
     0
 66
     1
 10
0
 20
0
 30
0.0
 70
     1
 40
0.75
 41
0.75
  0
VERTEX
  8
0
 10
10.9003
 20
4.12478
 30
0.0
 40
0.0104167
 41
0.0104167
  0
VERTEX
  8
0
 10
12.8733
 20
4.12478
 30
0.0
 40
0.0104167
 41
0.0104167
  0
VERTEX
  8
0
 10
12.8733
 20
4.40457
 30
0.0
 40
0.0104167
 41
0.0104167
  0
VERTEX
  8
0
 10
12.066
 20
4.40457
 30
0.0
 40
0.0104167
 41
0.0104167
  0
VERTEX
  8
0
 10
12.066
 20
4.55268
 30
0.0
 40
0.0104167
 41
0.0104167
  0
VERTEX
  8
0
 10
11.4474
 20
4.55268
 30
0.0
 40
0.0104167
 41
0.0104167
  0
VERTEX
  8
0
 10
11.4474
 20
4.39925
 30
0.0
 40
0.0104167
 41
0.0104167
  0
VERTEX
  8
0
 10
10.9013
 20
4.39925
 30
0.0
 40
0.0104167
 41
0.0104167
  0
VERTEX
  8
0
 10
10.9003
 20
4.12478
 30
0.0
 40
0.0104167
 41
0.0104167
  0
SEQEND
 8
0
  0
POLYLINE
  8
0
 62
     7
 66
     1
 10
0
 20
0
 30
0.0
 70
     1
 40
0
 41
0
  0
VERTEX
  8
0
 10
12.2833
 20
4.74897
 30
0.0
 40
0
 41
0
  0
VERTEX
  8
0
 10
12.8733
 20
4.74897
 30
0.0
 40
0
 41
0
  0
VERTEX
  8
0
 10
12.8733
 20
4.12397
 30
0.0
 40
0
 41
0
  0
VERTEX
  8
0
 10
12.2833
 20
4.12397
 30
0.0
 40
0
 41
0
  0
VERTEX
  8
0
 10
12.2833
 20
4.74897
 30
0.0
 40
0
 41
0
  0
SEQEND
 8
0
  0
POLYLINE
  8
0
 62
     0
 66
     1
 10
0
 20
0
 30
0.0
 70
     1
 40
0.708075
 41
0.708075
  0
VERTEX
  8
0
 10
12.2833
 20
4.74897
 30
0.0
 40
0.00983437
 41
0.00983437
  0
VERTEX
  8
0
 10
12.8733
 20
4.74897
 30
0.0
 40
0.00983437
 41
0.00983437
  0
VERTEX
  8
0
 10
12.8733
 20
4.12397
 30
0.0
 40
0.00983437
 41
0.00983437
  0
VERTEX
  8
0
 10
12.2833
 20
4.12397
 30
0.0
 40
0.00983437
 41
0.00983437
  0
VERTEX
  8
0
 10
12.2833
 20
4.74897
 30
0.0
 40
0.00983437
 41
0.00983437
  0
SEQEND
 8
0
  0
POLYLINE
  8
0
 62
     0
 66
     1
 10
0
 20
0
 30
0.0
 40
0.708075
 41
0.708075
  0
VERTEX
  8
0
 10
12.8733
 20
4.12397
 30
0.0
 40
0.00983437
 41
0.00983437
  0
VERTEX
  8
0
 10
12.5783
 20
4.51042
 30
0.0
 40
0.00983437
 41
0.00983437
  0
VERTEX
  8
0
 10
12.5783
 20
4.32292
 30
0.0
 40
0.00983437
 41
0.00983437
  0
VERTEX
  8
0
 10
12.2833
 20
4.71039
 30
0.0
 40
0.00983437
 41
0.00983437
  0
SEQEND
 8
0
  0
POLYLINE
  8
0
 62
     7
 66
     1
 10
0
 20
0
 30
0.0
 70
     1
 40
0
 41
0
  0
VERTEX
  8
0
 10
12.2833
 20
4.74897
 30
0.0
 40
0
 41
0
  0
VERTEX
  8
0
 10
12.8733
 20
4.74897
 30
0.0
 40
0
 41
0
  0
VERTEX
  8
0
 10
12.8733
 20
4.70731
 30
0.0
 40
0
 41
0
  0
VERTEX
  8
0
 10
12.2833
 20
4.70731
 30
0.0
 40
0
 41
0
  0
VERTEX
  8
0
 10
12.2833
 20
4.74897
 30
0.0
 40
0
 41
0
  0
SEQEND
 8
0
  0
POLYLINE
  8
0
 62
     0
 66
     1
 10
0
 20
0
 30
0.0
 70
     1
 40
0.708075
 41
0.708075
  0
VERTEX
  8
0
 10
12.2833
 20
4.74897
 30
0.0
 40
0.00983437
 41
0.00983437
  0
VERTEX
  8
0
 10
12.8733
 20
4.74897
 30
0.0
 40
0.00983437
 41
0.00983437
  0
VERTEX
  8
0
 10
12.8733
 20
4.70731
 30
0.0
 40
0.00983437
 41
0.00983437
  0
VERTEX
  8
0
 10
12.2833
 20
4.70731
 30
0.0
 40
0.00983437
 41
0.00983437
  0
VERTEX
  8
0
 10
12.2833
 20
4.74897
 30
0.0
 40
0.00983437
 41
0.00983437
  0
SEQEND
 8
0
  0
POLYLINE
  8
0
 62
     7
 66
     1
 10
0
 20
0
 30
0.0
 70
     1
 40
0
 41
0
  0
VERTEX
  8
0
 10
11.0036
 20
6.46397
 30
0.0
 40
0
 41
0
  0
VERTEX
  8
0
 10
11.4231
 20
6.46397
 30
0.0
 40
0
 41
0
  0
VERTEX
  8
0
 10
11.4231
 20
6.23269
 30
0.0
 40
0
 41
0
  0
VERTEX
  8
0
 10
11.0036
 20
6.23269
 30
0.0
 40
0
 41
0
  0
VERTEX
  8
0
 10
11.0036
 20
6.46397
 30
0.0
 40
0
 41
0
  0
SEQEND
 8
0
  0
POLYLINE
  8
0
 62
     0
 66
     1
 10
0
 20
0
 30
0.0
 70
     1
 40
0.75
 41
0.75
  0
VERTEX
  8
0
 10
11.0036
 20
6.46397
 30
0.0
 40
0.0104167
 41
0.0104167
  0
VERTEX
  8
0
 10
11.0036
 20
6.23269
 30
0.0
 40
0.0104167
 41
0.0104167
  0
VERTEX
  8
0
 10
11.4231
 20
6.23269
 30
0.0
 40
0.0104167
 41
0.0104167
  0
VERTEX
  8
0
 10
11.4231
 20
6.46397
 30
0.0
 40
0.0104167
 41
0.0104167
  0
VERTEX
  8
0
 10
11.0036
 20
6.46397
 30
0.0
 40
0.0104167
 41
0.0104167
  0
SEQEND
 8
0
  0
POLYLINE
  8
0
 62
     7
 66
     1
 10
0
 20
0
 30
0.0
 70
     1
 40
0
 41
0
  0
VERTEX
  8
0
 10
11.0046
 20
6.7194
 30
0.0
 40
0
 41
0
  0
VERTEX
  8
0
 10
11.4241
 20
6.7194
 30
0.0
 40
0
 41
0
  0
VERTEX
  8
0
 10
11.4241
 20
6.48822
 30
0.0
 40
0
 41
0
  0
VERTEX
  8
0
 10
11.0046
 20
6.48822
 30
0.0
 40
0
 41
0
  0
VERTEX
  8
0
 10
11.0046
 20
6.7194
 30
0.0
 40
0
 41
0
  0
SEQEND
 8
0
  0
POLYLINE
  8
0
 62
     0
 66
     1
 10
0
 20
0
 30
0.0
 70
     1
 40
0.75
 41
0.75
  0
VERTEX
  8
0
 10
11.0046
 20
6.7194
 30
0.0
 40
0.0104167
 41
0.0104167
  0
VERTEX
  8
0
 10
11.0046
 20
6.48822
 30
0.0
 40
0.0104167
 41
0.0104167
  0
VERTEX
  8
0
 10
11.4241
 20
6.48822
 30
0.0
 40
0.0104167
 41
0.0104167
  0
VERTEX
  8
0
 10
11.4241
 20
6.7194
 30
0.0
 40
0.0104167
 41
0.0104167
  0
VERTEX
  8
0
 10
11.0046
 20
6.7194
 30
0.0
 40
0.0104167
 41
0.0104167
  0
SEQEND
 8
0
  0
POLYLINE
  8
0
 62
     7
 66
     1
 10
0
 20
0
 30
0.0
 70
     1
 40
0
 41
0
  0
VERTEX
  8
0
 10
11.2098
 20
6.38846
 30
0.0
 40
0
 41
0
  0
VERTEX
  8
0
 10
11.2163
 20
6.38846
 30
0.0
 40
0
 41
0
  0
VERTEX
  8
0
 10
11.2356
 20
6.37782
 30
0.0
 40
0
 41
0
  0
VERTEX
  8
0
 10
11.2463
 20
6.35846
 30
0.0
 40
0
 41
0
  0
VERTEX
  8
0
 10
11.2463
 20
6.352
 30
0.0
 40
0
 41
0
  0
VERTEX
  8
0
 10
11.2463
 20
6.3456
 30
0.0
 40
0
 41
0
  0
VERTEX
  8
0
 10
11.2356
 20
6.32622
 30
0.0
 40
0
 41
0
  0
VERTEX
  8
0
 10
11.2163
 20
6.31554
 30
0.0
 40
0
 41
0
  0
VERTEX
  8
0
 10
11.2098
 20
6.31554
 30
0.0
 40
0
 41
0
  0
VERTEX
  8
0
 10
11.2034
 20
6.31554
 30
0.0
 40
0
 41
0
  0
VERTEX
  8
0
 10
11.184
 20
6.32622
 30
0.0
 40
0
 41
0
  0
VERTEX
  8
0
 10
11.1734
 20
6.3456
 30
0.0
 40
0
 41
0
  0
VERTEX
  8
0
 10
11.1734
 20
6.352
 30
0.0
 40
0
 41
0
  0
VERTEX
  8
0
 10
11.1734
 20
6.35846
 30
0.0
 40
0
 41
0
  0
VERTEX
  8
0
 10
11.184
 20
6.37782
 30
0.0
 40
0
 41
0
  0
VERTEX
  8
0
 10
11.2034
 20
6.38846
 30
0.0
 40
0
 41
0
  0
VERTEX
  8
0
 10
11.2098
 20
6.38846
 30
0.0
 40
0
 41
0
  0
SEQEND
 8
0
  0
POLYLINE
  8
0
 62
     0
 66
     1
 10
0
 20
0
 30
0.0
 70
     1
 40
0.6
 41
0.6
  0
VERTEX
  8
0
 10
11.2098
 20
6.38846
 30
0.0
 40
0.00833333
 41
0.00833333
  0
VERTEX
  8
0
 10
11.2163
 20
6.38846
 30
0.0
 40
0.00833333
 41
0.00833333
  0
VERTEX
  8
0
 10
11.2356
 20
6.37782
 30
0.0
 40
0.00833333
 41
0.00833333
  0
VERTEX
  8
0
 10
11.2463
 20
6.35846
 30
0.0
 40
0.00833333
 41
0.00833333
  0
VERTEX
  8
0
 10
11.2463
 20
6.352
 30
0.0
 40
0.00833333
 41
0.00833333
  0
VERTEX
  8
0
 10
11.2463
 20
6.3456
 30
0.0
 40
0.00833333
 41
0.00833333
  0
VERTEX
  8
0
 10
11.2356
 20
6.32622
 30
0.0
 40
0.00833333
 41
0.00833333
  0
VERTEX
  8
0
 10
11.2163
 20
6.31554
 30
0.0
 40
0.00833333
 41
0.00833333
  0
VERTEX
  8
0
 10
11.2098
 20
6.31554
 30
0.0
 40
0.00833333
 41
0.00833333
  0
VERTEX
  8
0
 10
11.2034
 20
6.31554
 30
0.0
 40
0.00833333
 41
0.00833333
  0
VERTEX
  8
0
 10
11.184
 20
6.32622
 30
0.0
 40
0.00833333
 41
0.00833333
  0
VERTEX
  8
0
 10
11.1734
 20
6.3456
 30
0.0
 40
0.00833333
 41
0.00833333
  0
VERTEX
  8
0
 10
11.1734
 20
6.352
 30
0.0
 40
0.00833333
 41
0.00833333
  0
VERTEX
  8
0
 10
11.1734
 20
6.35846
 30
0.0
 40
0.00833333
 41
0.00833333
  0
VERTEX
  8
0
 10
11.184
 20
6.37782
 30
0.0
 40
0.00833333
 41
0.00833333
  0
VERTEX
  8
0
 10
11.2034
 20
6.38846
 30
0.0
 40
0.00833333
 41
0.00833333
  0
VERTEX
  8
0
 10
11.2098
 20
6.38846
 30
0.0
 40
0.00833333
 41
0.00833333
  0
SEQEND
 8
0
  0
POLYLINE
  8
0
 62
     7
 66
     1
 10
0
 20
0
 30
0.0
 70
     1
 40
0
 41
0
  0
VERTEX
  8
0
 10
11.2098
 20
6.63585
 30
0.0
 40
0
 41
0
  0
VERTEX
  8
0
 10
11.2163
 20
6.63585
 30
0.0
 40
0
 41
0
  0
VERTEX
  8
0
 10
11.2356
 20
6.62522
 30
0.0
 40
0
 41
0
  0
VERTEX
  8
0
 10
11.2463
 20
6.60585
 30
0.0
 40
0
 41
0
  0
VERTEX
  8
0
 10
11.2463
 20
6.59939
 30
0.0
 40
0
 41
0
  0
VERTEX
  8
0
 10
11.2463
 20
6.59299
 30
0.0
 40
0
 41
0
  0
VERTEX
  8
0
 10
11.2356
 20
6.57362
 30
0.0
 40
0
 41
0
  0
VERTEX
  8
0
 10
11.2163
 20
6.56293
 30
0.0
 40
0
 41
0
  0
VERTEX
  8
0
 10
11.2098
 20
6.56293
 30
0.0
 40
0
 41
0
  0
VERTEX
  8
0
 10
11.2034
 20
6.56293
 30
0.0
 40
0
 41
0
  0
VERTEX
  8
0
 10
11.184
 20
6.57362
 30
0.0
 40
0
 41
0
  0
VERTEX
  8
0
 10
11.1734
 20
6.59299
 30
0.0
 40
0
 41
0
  0
VERTEX
  8
0
 10
11.1734
 20
6.59939
 30
0.0
 40
0
 41
0
  0
VERTEX
  8
0
 10
11.1734
 20
6.60585
 30
0.0
 40
0
 41
0
  0
VERTEX
  8
0
 10
11.184
 20
6.62522
 30
0.0
 40
0
 41
0
  0
VERTEX
  8
0
 10
11.2034
 20
6.63585
 30
0.0
 40
0
 41
0
  0
VERTEX
  8
0
 10
11.2098
 20
6.63585
 30
0.0
 40
0
 41
0
  0
SEQEND
 8
0
  0
POLYLINE
  8
0
 62
     0
 66
     1
 10
0
 20
0
 30
0.0
 70
     1
 40
0.6
 41
0.6
  0
VERTEX
  8
0
 10
11.2098
 20
6.63585
 30
0.0
 40
0.00833333
 41
0.00833333
  0
VERTEX
  8
0
 10
11.2163
 20
6.63585
 30
0.0
 40
0.00833333
 41
0.00833333
  0
VERTEX
  8
0
 10
11.2356
 20
6.62522
 30
0.0
 40
0.00833333
 41
0.00833333
  0
VERTEX
  8
0
 10
11.2463
 20
6.60585
 30
0.0
 40
0.00833333
 41
0.00833333
  0
VERTEX
  8
0
 10
11.2463
 20
6.59939
 30
0.0
 40
0.00833333
 41
0.00833333
  0
VERTEX
  8
0
 10
11.2463
 20
6.59299
 30
0.0
 40
0.00833333
 41
0.00833333
  0
VERTEX
  8
0
 10
11.2356
 20
6.57362
 30
0.0
 40
0.00833333
 41
0.00833333
  0
VERTEX
  8
0
 10
11.2163
 20
6.56293
 30
0.0
 40
0.00833333
 41
0.00833333
  0
VERTEX
  8
0
 10
11.2098
 20
6.56293
 30
0.0
 40
0.00833333
 41
0.00833333
  0
VERTEX
  8
0
 10
11.2034
 20
6.56293
 30
0.0
 40
0.00833333
 41
0.00833333
  0
VERTEX
  8
0
 10
11.184
 20
6.57362
 30
0.0
 40
0.00833333
 41
0.00833333
  0
VERTEX
  8
0
 10
11.1734
 20
6.59299
 30
0.0
 40
0.00833333
 41
0.00833333
  0
VERTEX
  8
0
 10
11.1734
 20
6.59939
 30
0.0
 40
0.00833333
 41
0.00833333
  0
VERTEX
  8
0
 10
11.1734
 20
6.60585
 30
0.0
 40
0.00833333
 41
0.00833333
  0
VERTEX
  8
0
 10
11.184
 20
6.62522
 30
0.0
 40
0.00833333
 41
0.00833333
  0
VERTEX
  8
0
 10
11.2034
 20
6.63585
 30
0.0
 40
0.00833333
 41
0.00833333
  0
VERTEX
  8
0
 10
11.2098
 20
6.63585
 30
0.0
 40
0.00833333
 41
0.00833333
  0
SEQEND
 8
0
  0
POLYLINE
  8
0
 62
     7
 66
     1
 10
0
 20
0
 30
0.0
 70
     1
 40
0
 41
0
  0
VERTEX
  8
0
 10
11.2098
 20
6.37283
 30
0.0
 40
0
 41
0
  0
VERTEX
  8
0
 10
11.2135
 20
6.37283
 30
0.0
 40
0
 41
0
  0
VERTEX
  8
0
 10
11.2246
 20
6.36675
 30
0.0
 40
0
 41
0
  0
VERTEX
  8
0
 10
11.2307
 20
6.35568
 30
0.0
 40
0
 41
0
  0
VERTEX
  8
0
 10
11.2307
 20
6.352
 30
0.0
 40
0
 41
0
  0
VERTEX
  8
0
 10
11.2307
 20
6.34836
 30
0.0
 40
0
 41
0
  0
VERTEX
  8
0
 10
11.2246
 20
6.33729
 30
0.0
 40
0
 41
0
  0
VERTEX
  8
0
 10
11.2135
 20
6.33117
 30
0.0
 40
0
 41
0
  0
VERTEX
  8
0
 10
11.2098
 20
6.33117
 30
0.0
 40
0
 41
0
  0
VERTEX
  8
0
 10
11.2062
 20
6.33117
 30
0.0
 40
0
 41
0
  0
VERTEX
  8
0
 10
11.1951
 20
6.33729
 30
0.0
 40
0
 41
0
  0
VERTEX
  8
0
 10
11.189
 20
6.34836
 30
0.0
 40
0
 41
0
  0
VERTEX
  8
0
 10
11.189
 20
6.352
 30
0.0
 40
0
 41
0
  0
VERTEX
  8
0
 10
11.189
 20
6.35568
 30
0.0
 40
0
 41
0
  0
VERTEX
  8
0
 10
11.1951
 20
6.36675
 30
0.0
 40
0
 41
0
  0
VERTEX
  8
0
 10
11.2062
 20
6.37283
 30
0.0
 40
0
 41
0
  0
VERTEX
  8
0
 10
11.2098
 20
6.37283
 30
0.0
 40
0
 41
0
  0
SEQEND
 8
0
  0
POLYLINE
  8
0
 62
     0
 66
     1
 10
0
 20
0
 30
0.0
 70
     1
 40
0.6
 41
0.6
  0
VERTEX
  8
0
 10
11.2098
 20
6.37283
 30
0.0
 40
0.00833333
 41
0.00833333
  0
VERTEX
  8
0
 10
11.2135
 20
6.37283
 30
0.0
 40
0.00833333
 41
0.00833333
  0
VERTEX
  8
0
 10
11.2246
 20
6.36675
 30
0.0
 40
0.00833333
 41
0.00833333
  0
VERTEX
  8
0
 10
11.2307
 20
6.35568
 30
0.0
 40
0.00833333
 41
0.00833333
  0
VERTEX
  8
0
 10
11.2307
 20
6.352
 30
0.0
 40
0.00833333
 41
0.00833333
  0
VERTEX
  8
0
 10
11.2307
 20
6.34836
 30
0.0
 40
0.00833333
 41
0.00833333
  0
VERTEX
  8
0
 10
11.2246
 20
6.33729
 30
0.0
 40
0.00833333
 41
0.00833333
  0
VERTEX
  8
0
 10
11.2135
 20
6.33117
 30
0.0
 40
0.00833333
 41
0.00833333
  0
VERTEX
  8
0
 10
11.2098
 20
6.33117
 30
0.0
 40
0.00833333
 41
0.00833333
  0
VERTEX
  8
0
 10
11.2062
 20
6.33117
 30
0.0
 40
0.00833333
 41
0.00833333
  0
VERTEX
  8
0
 10
11.1951
 20
6.33729
 30
0.0
 40
0.00833333
 41
0.00833333
  0
VERTEX
  8
0
 10
11.189
 20
6.34836
 30
0.0
 40
0.00833333
 41
0.00833333
  0
VERTEX
  8
0
 10
11.189
 20
6.352
 30
0.0
 40
0.00833333
 41
0.00833333
  0
VERTEX
  8
0
 10
11.189
 20
6.35568
 30
0.0
 40
0.00833333
 41
0.00833333
  0
VERTEX
  8
0
 10
11.1951
 20
6.36675
 30
0.0
 40
0.00833333
 41
0.00833333
  0
VERTEX
  8
0
 10
11.2062
 20
6.37283
 30
0.0
 40
0.00833333
 41
0.00833333
  0
VERTEX
  8
0
 10
11.2098
 20
6.37283
 30
0.0
 40
0.00833333
 41
0.00833333
  0
SEQEND
 8
0
  0
POLYLINE
  8
0
 62
     7
 66
     1
 10
0
 20
0
 30
0.0
 70
     1
 40
0
 41
0
  0
VERTEX
  8
0
 10
11.2098
 20
6.62022
 30
0.0
 40
0
 41
0
  0
VERTEX
  8
0
 10
11.2135
 20
6.62022
 30
0.0
 40
0
 41
0
  0
VERTEX
  8
0
 10
11.2246
 20
6.61415
 30
0.0
 40
0
 41
0
  0
VERTEX
  8
0
 10
11.2307
 20
6.60308
 30
0.0
 40
0
 41
0
  0
VERTEX
  8
0
 10
11.2307
 20
6.59939
 30
0.0
 40
0
 41
0
  0
VERTEX
  8
0
 10
11.2307
 20
6.59576
 30
0.0
 40
0
 41
0
  0
VERTEX
  8
0
 10
11.2246
 20
6.58469
 30
0.0
 40
0
 41
0
  0
VERTEX
  8
0
 10
11.2135
 20
6.57856
 30
0.0
 40
0
 41
0
  0
VERTEX
  8
0
 10
11.2098
 20
6.57856
 30
0.0
 40
0
 41
0
  0
VERTEX
  8
0
 10
11.2062
 20
6.57856
 30
0.0
 40
0
 41
0
  0
VERTEX
  8
0
 10
11.1951
 20
6.58469
 30
0.0
 40
0
 41
0
  0
VERTEX
  8
0
 10
11.189
 20
6.59576
 30
0.0
 40
0
 41
0
  0
VERTEX
  8
0
 10
11.189
 20
6.59939
 30
0.0
 40
0
 41
0
  0
VERTEX
  8
0
 10
11.189
 20
6.60308
 30
0.0
 40
0
 41
0
  0
VERTEX
  8
0
 10
11.1951
 20
6.61415
 30
0.0
 40
0
 41
0
  0
VERTEX
  8
0
 10
11.2062
 20
6.62022
 30
0.0
 40
0
 41
0
  0
VERTEX
  8
0
 10
11.2098
 20
6.62022
 30
0.0
 40
0
 41
0
  0
SEQEND
 8
0
  0
POLYLINE
  8
0
 62
     0
 66
     1
 10
0
 20
0
 30
0.0
 70
     1
 40
0.6
 41
0.6
  0
VERTEX
  8
0
 10
11.2098
 20
6.62022
 30
0.0
 40
0.00833333
 41
0.00833333
  0
VERTEX
  8
0
 10
11.2135
 20
6.62022
 30
0.0
 40
0.00833333
 41
0.00833333
  0
VERTEX
  8
0
 10
11.2246
 20
6.61415
 30
0.0
 40
0.00833333
 41
0.00833333
  0
VERTEX
  8
0
 10
11.2307
 20
6.60308
 30
0.0
 40
0.00833333
 41
0.00833333
  0
VERTEX
  8
0
 10
11.2307
 20
6.59939
 30
0.0
 40
0.00833333
 41
0.00833333
  0
VERTEX
  8
0
 10
11.2307
 20
6.59576
 30
0.0
 40
0.00833333
 41
0.00833333
  0
VERTEX
  8
0
 10
11.2246
 20
6.58469
 30
0.0
 40
0.00833333
 41
0.00833333
  0
VERTEX
  8
0
 10
11.2135
 20
6.57856
 30
0.0
 40
0.00833333
 41
0.00833333
  0
VERTEX
  8
0
 10
11.2098
 20
6.57856
 30
0.0
 40
0.00833333
 41
0.00833333
  0
VERTEX
  8
0
 10
11.2062
 20
6.57856
 30
0.0
 40
0.00833333
 41
0.00833333
  0
VERTEX
  8
0
 10
11.1951
 20
6.58469
 30
0.0
 40
0.00833333
 41
0.00833333
  0
VERTEX
  8
0
 10
11.189
 20
6.59576
 30
0.0
 40
0.00833333
 41
0.00833333
  0
VERTEX
  8
0
 10
11.189
 20
6.59939
 30
0.0
 40
0.00833333
 41
0.00833333
  0
VERTEX
  8
0
 10
11.189
 20
6.60308
 30
0.0
 40
0.00833333
 41
0.00833333
  0
VERTEX
  8
0
 10
11.1951
 20
6.61415
 30
0.0
 40
0.00833333
 41
0.00833333
  0
VERTEX
  8
0
 10
11.2062
 20
6.62022
 30
0.0
 40
0.00833333
 41
0.00833333
  0
VERTEX
  8
0
 10
11.2098
 20
6.62022
 30
0.0
 40
0.00833333
 41
0.00833333
  0
SEQEND
 8
0
  0
POLYLINE
  8
0
 62
     7
 66
     1
 10
0
 20
0
 30
0.0
 70
     1
 40
0
 41
0
  0
VERTEX
  8
0
 10
10.9471
 20
6.51426
 30
0.0
 40
0
 41
0
  0
VERTEX
  8
0
 10
11.0929
 20
6.51426
 30
0.0
 40
0
 41
0
  0
VERTEX
  8
0
 10
11.0929
 20
6.45176
 30
0.0
 40
0
 41
0
  0
VERTEX
  8
0
 10
10.9471
 20
6.45176
 30
0.0
 40
0
 41
0
  0
VERTEX
  8
0
 10
10.9471
 20
6.51426
 30
0.0
 40
0
 41
0
  0
SEQEND
 8
0
  0
POLYLINE
  8
0
 62
     0
 66
     1
 10
0
 20
0
 30
0.0
 70
     1
 40
0.75
 41
0.75
  0
VERTEX
  8
0
 10
10.9471
 20
6.51426
 30
0.0
 40
0.0104167
 41
0.0104167
  0
VERTEX
  8
0
 10
10.9471
 20
6.45176
 30
0.0
 40
0.0104167
 41
0.0104167
  0
VERTEX
  8
0
 10
11.0929
 20
6.45176
 30
0.0
 40
0.0104167
 41
0.0104167
  0
VERTEX
  8
0
 10
11.0929
 20
6.51426
 30
0.0
 40
0.0104167
 41
0.0104167
  0
VERTEX
  8
0
 10
10.9471
 20
6.51426
 30
0.0
 40
0.0104167
 41
0.0104167
  0
SEQEND
 8
0
  0
POLYLINE
  8
0
 62
     0
 66
     1
 10
0
 20
0
 30
0.0
 70
     1
 40
0.75
 41
0.75
  0
VERTEX
  8
0
 10
10.9004
 20
7.51367
 30
0.0
 40
0.0104167
 41
0.0104167
  0
VERTEX
  8
0
 10
10.9004
 20
5.97618
 30
0.0
 40
0.0104167
 41
0.0104167
  0
VERTEX
  8
0
 10
11.2129
 20
5.97618
 30
0.0
 40
0.0104167
 41
0.0104167
  0
VERTEX
  8
0
 10
11.2129
 20
7.51367
 30
0.0
 40
0.0104167
 41
0.0104167
  0
VERTEX
  8
0
 10
10.9004
 20
7.51367
 30
0.0
 40
0.0104167
 41
0.0104167
  0
SEQEND
 8
0
  0
POLYLINE
  8
0
 62
     7
 66
     1
 10
0
 20
0
 30
0.0
 70
     1
 40
0
 41
0
  0
VERTEX
  8
0
 10
10.1475
 20
3.97814
 30
0.0
 40
0
 41
0
  0
VERTEX
  8
0
 10
11.1773
 20
3.97814
 30
0.0
 40
0
 41
0
  0
VERTEX
  8
0
 10
11.1773
 20
3.32167
 30
0.0
 40
0
 41
0
  0
VERTEX
  8
0
 10
10.1475
 20
3.32167
 30
0.0
 40
0
 41
0
  0
VERTEX
  8
0
 10
10.1475
 20
3.97814
 30
0.0
 40
0
 41
0
  0
SEQEND
 8
0
  0
POLYLINE
  8
0
 62
     0
 66
     1
 10
0
 20
0
 30
0.0
 70
     1
 40
0.75
 41
0.75
  0
VERTEX
  8
0
 10
10.1475
 20
3.97814
 30
0.0
 40
0.0104167
 41
0.0104167
  0
VERTEX
  8
0
 10
11.1773
 20
3.97814
 30
0.0
 40
0.0104167
 41
0.0104167
  0
VERTEX
  8
0
 10
11.1773
 20
3.32167
 30
0.0
 40
0.0104167
 41
0.0104167
  0
VERTEX
  8
0
 10
10.1475
 20
3.32167
 30
0.0
 40
0.0104167
 41
0.0104167
  0
VERTEX
  8
0
 10
10.1475
 20
3.97814
 30
0.0
 40
0.0104167
 41
0.0104167
  0
SEQEND
 8
0
  0
POLYLINE
  8
0
 62
     7
 66
     1
 10
0
 20
0
 30
0.0
 70
     1
 40
0
 41
0
  0
VERTEX
  8
0
 10
11.1773
 20
3.97814
 30
0.0
 40
0
 41
0
  0
VERTEX
  8
0
 10
12.2071
 20
3.97814
 30
0.0
 40
0
 41
0
  0
VERTEX
  8
0
 10
12.2071
 20
3.32167
 30
0.0
 40
0
 41
0
  0
VERTEX
  8
0
 10
11.1773
 20
3.32167
 30
0.0
 40
0
 41
0
  0
VERTEX
  8
0
 10
11.1773
 20
3.97814
 30
0.0
 40
0
 41
0
  0
SEQEND
 8
0
  0
POLYLINE
  8
0
 62
     0
 66
     1
 10
0
 20
0
 30
0.0
 70
     1
 40
0.75
 41
0.75
  0
VERTEX
  8
0
 10
11.1773
 20
3.97814
 30
0.0
 40
0.0104167
 41
0.0104167
  0
VERTEX
  8
0
 10
12.2071
 20
3.97814
 30
0.0
 40
0.0104167
 41
0.0104167
  0
VERTEX
  8
0
 10
12.2071
 20
3.32167
 30
0.0
 40
0.0104167
 41
0.0104167
  0
VERTEX
  8
0
 10
11.1773
 20
3.32167
 30
0.0
 40
0.0104167
 41
0.0104167
  0
VERTEX
  8
0
 10
11.1773
 20
3.97814
 30
0.0
 40
0.0104167
 41
0.0104167
  0
SEQEND
 8
0
  0
POLYLINE
  8
0
 62
     7
 66
     1
 10
0
 20
0
 30
0.0
 70
     1
 40
0
 41
0
  0
VERTEX
  8
0
 10
11.1295
 20
3.32167
 30
0.0
 40
0
 41
0
  0
VERTEX
  8
0
 10
12.2071
 20
3.32167
 30
0.0
 40
0
 41
0
  0
VERTEX
  8
0
 10
12.2071
 20
3.29563
 30
0.0
 40
0
 41
0
  0
VERTEX
  8
0
 10
11.1295
 20
3.29563
 30
0.0
 40
0
 41
0
  0
VERTEX
  8
0
 10
11.1295
 20
3.32167
 30
0.0
 40
0
 41
0
  0
SEQEND
 8
0
  0
POLYLINE
  8
0
 62
     0
 66
     1
 10
0
 20
0
 30
0.0
 70
     1
 40
0.75
 41
0.75
  0
VERTEX
  8
0
 10
11.1295
 20
3.32167
 30
0.0
 40
0.0104167
 41
0.0104167
  0
VERTEX
  8
0
 10
11.1295
 20
3.29563
 30
0.0
 40
0.0104167
 41
0.0104167
  0
VERTEX
  8
0
 10
12.2071
 20
3.29563
 30
0.0
 40
0.0104167
 41
0.0104167
  0
VERTEX
  8
0
 10
12.2071
 20
3.32167
 30
0.0
 40
0.0104167
 41
0.0104167
  0
VERTEX
  8
0
 10
11.1295
 20
3.32167
 30
0.0
 40
0.0104167
 41
0.0104167
  0
SEQEND
 8
0
  0
POLYLINE
  8
0
 62
     7
 66
     1
 10
0
 20
0
 30
0.0
 70
     1
 40
0
 41
0
  0
VERTEX
  8
0
 10
11.1295
 20
3.32167
 30
0.0
 40
0
 41
0
  0
VERTEX
  8
0
 10
12.2071
 20
3.32167
 30
0.0
 40
0
 41
0
  0
VERTEX
  8
0
 10
12.2071
 20
3.29563
 30
0.0
 40
0
 41
0
  0
VERTEX
  8
0
 10
11.1295
 20
3.29563
 30
0.0
 40
0
 41
0
  0
VERTEX
  8
0
 10
11.1295
 20
3.32167
 30
0.0
 40
0
 41
0
  0
SEQEND
 8
0
  0
POLYLINE
  8
0
 62
     0
 66
     1
 10
0
 20
0
 30
0.0
 70
     1
 40
0.75
 41
0.75
  0
VERTEX
  8
0
 10
11.1295
 20
3.32167
 30
0.0
 40
0.0104167
 41
0.0104167
  0
VERTEX
  8
0
 10
11.1295
 20
3.29563
 30
0.0
 40
0.0104167
 41
0.0104167
  0
VERTEX
  8
0
 10
12.2071
 20
3.29563
 30
0.0
 40
0.0104167
 41
0.0104167
  0
VERTEX
  8
0
 10
12.2071
 20
3.32167
 30
0.0
 40
0.0104167
 41
0.0104167
  0
VERTEX
  8
0
 10
11.1295
 20
3.32167
 30
0.0
 40
0.0104167
 41
0.0104167
  0
SEQEND
 8
0
  0
POLYLINE
  8
0
 62
     7
 66
     1
 10
0
 20
0
 30
0.0
 70
     1
 40
0
 41
0
  0
VERTEX
  8
0
 10
10.1563
 20
3.29519
 30
0.0
 40
0
 41
0
  0
VERTEX
  8
0
 10
11.2338
 20
3.29519
 30
0.0
 40
0
 41
0
  0
VERTEX
  8
0
 10
11.2338
 20
3.26915
 30
0.0
 40
0
 41
0
  0
VERTEX
  8
0
 10
10.1563
 20
3.26915
 30
0.0
 40
0
 41
0
  0
VERTEX
  8
0
 10
10.1563
 20
3.29519
 30
0.0
 40
0
 41
0
  0
SEQEND
 8
0
  0
POLYLINE
  8
0
 62
     0
 66
     1
 10
0
 20
0
 30
0.0
 70
     1
 40
0.75
 41
0.75
  0
VERTEX
  8
0
 10
10.1563
 20
3.29519
 30
0.0
 40
0.0104167
 41
0.0104167
  0
VERTEX
  8
0
 10
10.1563
 20
3.26915
 30
0.0
 40
0.0104167
 41
0.0104167
  0
VERTEX
  8
0
 10
11.2338
 20
3.26915
 30
0.0
 40
0.0104167
 41
0.0104167
  0
VERTEX
  8
0
 10
11.2338
 20
3.29519
 30
0.0
 40
0.0104167
 41
0.0104167
  0
VERTEX
  8
0
 10
10.1563
 20
3.29519
 30
0.0
 40
0.0104167
 41
0.0104167
  0
SEQEND
 8
0
  0
POLYLINE
  8
0
 62
     7
 66
     1
 10
0
 20
0
 30
0.0
 70
     1
 40
0
 41
0
  0
VERTEX
  8
0
 10
10.1563
 20
3.29519
 30
0.0
 40
0
 41
0
  0
VERTEX
  8
0
 10
11.2338
 20
3.29519
 30
0.0
 40
0
 41
0
  0
VERTEX
  8
0
 10
11.2338
 20
3.26915
 30
0.0
 40
0
 41
0
  0
VERTEX
  8
0
 10
10.1563
 20
3.26915
 30
0.0
 40
0
 41
0
  0
VERTEX
  8
0
 10
10.1563
 20
3.29519
 30
0.0
 40
0
 41
0
  0
SEQEND
 8
0
  0
POLYLINE
  8
0
 62
     0
 66
     1
 10
0
 20
0
 30
0.0
 70
     1
 40
0.75
 41
0.75
  0
VERTEX
  8
0
 10
10.1563
 20
3.29519
 30
0.0
 40
0.0104167
 41
0.0104167
  0
VERTEX
  8
0
 10
10.1563
 20
3.26915
 30
0.0
 40
0.0104167
 41
0.0104167
  0
VERTEX
  8
0
 10
11.2338
 20
3.26915
 30
0.0
 40
0.0104167
 41
0.0104167
  0
VERTEX
  8
0
 10
11.2338
 20
3.29519
 30
0.0
 40
0.0104167
 41
0.0104167
  0
VERTEX
  8
0
 10
10.1563
 20
3.29519
 30
0.0
 40
0.0104167
 41
0.0104167
  0
SEQEND
 8
0
  0
POLYLINE
  8
0
 62
     7
 66
     1
 10
0
 20
0
 30
0.0
 70
     1
 40
0
 41
0
  0
VERTEX
  8
0
 10
13.4125
 20
0.680339
 30
0.0
 40
0
 41
0
  0
VERTEX
  8
0
 10
14.4619
 20
0.680339
 30
0.0
 40
0
 41
0
  0
VERTEX
  8
0
 10
14.4619
 20
0.159071
 30
0.0
 40
0
 41
0
  0
VERTEX
  8
0
 10
13.4125
 20
0.159071
 30
0.0
 40
0
 41
0
  0
VERTEX
  8
0
 10
13.4125
 20
0.680339
 30
0.0
 40
0
 41
0
  0
SEQEND
 8
0
  0
POLYLINE
  8
0
 62
     0
 66
     1
 10
0
 20
0
 30
0.0
 70
     1
 40
0.75
 41
0.75
  0
VERTEX
  8
0
 10
13.4125
 20
0.680339
 30
0.0
 40
0.0104167
 41
0.0104167
  0
VERTEX
  8
0
 10
14.4619
 20
0.680339
 30
0.0
 40
0.0104167
 41
0.0104167
  0
VERTEX
  8
0
 10
14.4619
 20
0.159071
 30
0.0
 40
0.0104167
 41
0.0104167
  0
VERTEX
  8
0
 10
13.4125
 20
0.159071
 30
0.0
 40
0.0104167
 41
0.0104167
  0
VERTEX
  8
0
 10
13.4125
 20
0.680339
 30
0.0
 40
0.0104167
 41
0.0104167
  0
SEQEND
 8
0
  0
POLYLINE
  8
0
 62
     7
 66
     1
 10
0
 20
0
 30
0.0
 70
     1
 40
0
 41
0
  0
VERTEX
  8
0
 10
12.3632
 20
0.680339
 30
0.0
 40
0
 41
0
  0
VERTEX
  8
0
 10
13.4126
 20
0.680339
 30
0.0
 40
0
 41
0
  0
VERTEX
  8
0
 10
13.4126
 20
0.159071
 30
0.0
 40
0
 41
0
  0
VERTEX
  8
0
 10
12.3632
 20
0.159071
 30
0.0
 40
0
 41
0
  0
VERTEX
  8
0
 10
12.3632
 20
0.680339
 30
0.0
 40
0
 41
0
  0
SEQEND
 8
0
  0
POLYLINE
  8
0
 62
     0
 66
     1
 10
0
 20
0
 30
0.0
 70
     1
 40
0.75
 41
0.75
  0
VERTEX
  8
0
 10
12.3632
 20
0.680339
 30
0.0
 40
0.0104167
 41
0.0104167
  0
VERTEX
  8
0
 10
13.4126
 20
0.680339
 30
0.0
 40
0.0104167
 41
0.0104167
  0
VERTEX
  8
0
 10
13.4126
 20
0.159071
 30
0.0
 40
0.0104167
 41
0.0104167
  0
VERTEX
  8
0
 10
12.3632
 20
0.159071
 30
0.0
 40
0.0104167
 41
0.0104167
  0
VERTEX
  8
0
 10
12.3632
 20
0.680339
 30
0.0
 40
0.0104167
 41
0.0104167
  0
SEQEND
 8
0
  0
POLYLINE
  8
0
 62
     7
 66
     1
 10
0
 20
0
 30
0.0
 70
     1
 40
0
 41
0
  0
VERTEX
  8
0
 10
12.3632
 20
0.716362
 30
0.0
 40
0
 41
0
  0
VERTEX
  8
0
 10
13.4489
 20
0.716362
 30
0.0
 40
0
 41
0
  0
VERTEX
  8
0
 10
13.4489
 20
0.690321
 30
0.0
 40
0
 41
0
  0
VERTEX
  8
0
 10
12.3632
 20
0.690321
 30
0.0
 40
0
 41
0
  0
VERTEX
  8
0
 10
12.3632
 20
0.716362
 30
0.0
 40
0
 41
0
  0
SEQEND
 8
0
  0
POLYLINE
  8
0
 62
     0
 66
     1
 10
0
 20
0
 30
0.0
 70
     1
 40
0.75
 41
0.75
  0
VERTEX
  8
0
 10
12.3632
 20
0.716362
 30
0.0
 40
0.0104167
 41
0.0104167
  0
VERTEX
  8
0
 10
12.3632
 20
0.690321
 30
0.0
 40
0.0104167
 41
0.0104167
  0
VERTEX
  8
0
 10
13.4489
 20
0.690321
 30
0.0
 40
0.0104167
 41
0.0104167
  0
VERTEX
  8
0
 10
13.4489
 20
0.716362
 30
0.0
 40
0.0104167
 41
0.0104167
  0
VERTEX
  8
0
 10
12.3632
 20
0.716362
 30
0.0
 40
0.0104167
 41
0.0104167
  0
SEQEND
 8
0
  0
POLYLINE
  8
0
 62
     7
 66
     1
 10
0
 20
0
 30
0.0
 70
     1
 40
0
 41
0
  0
VERTEX
  8
0
 10
12.3632
 20
0.716362
 30
0.0
 40
0
 41
0
  0
VERTEX
  8
0
 10
13.4489
 20
0.716362
 30
0.0
 40
0
 41
0
  0
VERTEX
  8
0
 10
13.4489
 20
0.690321
 30
0.0
 40
0
 41
0
  0
VERTEX
  8
0
 10
12.3632
 20
0.690321
 30
0.0
 40
0
 41
0
  0
VERTEX
  8
0
 10
12.3632
 20
0.716362
 30
0.0
 40
0
 41
0
  0
SEQEND
 8
0
  0
POLYLINE
  8
0
 62
     0
 66
     1
 10
0
 20
0
 30
0.0
 70
     1
 40
0.75
 41
0.75
  0
VERTEX
  8
0
 10
12.3632
 20
0.716362
 30
0.0
 40
0.0104167
 41
0.0104167
  0
VERTEX
  8
0
 10
12.3632
 20
0.690321
 30
0.0
 40
0.0104167
 41
0.0104167
  0
VERTEX
  8
0
 10
13.4489
 20
0.690321
 30
0.0
 40
0.0104167
 41
0.0104167
  0
VERTEX
  8
0
 10
13.4489
 20
0.716362
 30
0.0
 40
0.0104167
 41
0.0104167
  0
VERTEX
  8
0
 10
12.3632
 20
0.716362
 30
0.0
 40
0.0104167
 41
0.0104167
  0
SEQEND
 8
0
  0
POLYLINE
  8
0
 62
     7
 66
     1
 10
0
 20
0
 30
0.0
 70
     1
 40
0
 41
0
  0
VERTEX
  8
0
 10
13.3784
 20
0.747287
 30
0.0
 40
0
 41
0
  0
VERTEX
  8
0
 10
14.464
 20
0.747287
 30
0.0
 40
0
 41
0
  0
VERTEX
  8
0
 10
14.464
 20
0.721246
 30
0.0
 40
0
 41
0
  0
VERTEX
  8
0
 10
13.3784
 20
0.721246
 30
0.0
 40
0
 41
0
  0
VERTEX
  8
0
 10
13.3784
 20
0.747287
 30
0.0
 40
0
 41
0
  0
SEQEND
 8
0
  0
POLYLINE
  8
0
 62
     0
 66
     1
 10
0
 20
0
 30
0.0
 70
     1
 40
0.75
 41
0.75
  0
VERTEX
  8
0
 10
13.3784
 20
0.747287
 30
0.0
 40
0.0104167
 41
0.0104167
  0
VERTEX
  8
0
 10
13.3784
 20
0.721246
 30
0.0
 40
0.0104167
 41
0.0104167
  0
VERTEX
  8
0
 10
14.464
 20
0.721246
 30
0.0
 40
0.0104167
 41
0.0104167
  0
VERTEX
  8
0
 10
14.464
 20
0.747287
 30
0.0
 40
0.0104167
 41
0.0104167
  0
VERTEX
  8
0
 10
13.3784
 20
0.747287
 30
0.0
 40
0.0104167
 41
0.0104167
  0
SEQEND
 8
0
  0
POLYLINE
  8
0
 62
     7
 66
     1
 10
0
 20
0
 30
0.0
 70
     1
 40
0
 41
0
  0
VERTEX
  8
0
 10
13.3784
 20
0.747287
 30
0.0
 40
0
 41
0
  0
VERTEX
  8
0
 10
14.464
 20
0.747287
 30
0.0
 40
0
 41
0
  0
VERTEX
  8
0
 10
14.464
 20
0.721246
 30
0.0
 40
0
 41
0
  0
VERTEX
  8
0
 10
13.3784
 20
0.721246
 30
0.0
 40
0
 41
0
  0
VERTEX
  8
0
 10
13.3784
 20
0.747287
 30
0.0
 40
0
 41
0
  0
SEQEND
 8
0
  0
POLYLINE
  8
0
 62
     0
 66
     1
 10
0
 20
0
 30
0.0
 70
     1
 40
0.75
 41
0.75
  0
VERTEX
  8
0
 10
13.3784
 20
0.747287
 30
0.0
 40
0.0104167
 41
0.0104167
  0
VERTEX
  8
0
 10
13.3784
 20
0.721246
 30
0.0
 40
0.0104167
 41
0.0104167
  0
VERTEX
  8
0
 10
14.464
 20
0.721246
 30
0.0
 40
0.0104167
 41
0.0104167
  0
VERTEX
  8
0
 10
14.464
 20
0.747287
 30
0.0
 40
0.0104167
 41
0.0104167
  0
VERTEX
  8
0
 10
13.3784
 20
0.747287
 30
0.0
 40
0.0104167
 41
0.0104167
  0
SEQEND
 8
0
  0
POLYLINE
  8
0
 62
     7
 66
     1
 10
0
 20
0
 30
0.0
 70
     1
 40
0
 41
0
  0
VERTEX
  8
0
 10
8.78717
 20
7.68375
 30
0.0
 40
0
 41
0
  0
VERTEX
  8
0
 10
9.0255
 20
7.68375
 30
0.0
 40
0
 41
0
  0
VERTEX
  8
0
 10
9.0255
 20
9.13043
 30
0.0
 40
0
 41
0
  0
VERTEX
  8
0
 10
9.7399
 20
9.13043
 30
0.0
 40
0
 41
0
  0
VERTEX
  8
0
 10
9.7399
 20
10.3712
 30
0.0
 40
0
 41
0
  0
VERTEX
  8
0
 10
9.03207
 20
10.3712
 30
0.0
 40
0
 41
0
  0
VERTEX
  8
0
 10
9.03207
 20
11.7421
 30
0.0
 40
0
 41
0
  0
VERTEX
  8
0
 10
8.78456
 20
11.7421
 30
0.0
 40
0
 41
0
  0
VERTEX
  8
0
 10
8.78717
 20
7.68375
 30
0.0
 40
0
 41
0
  0
SEQEND
 8
0
  0
POLYLINE
  8
0
 62
     0
 66
     1
 10
0
 20
0
 30
0.0
 70
     1
 40
0.75
 41
0.75
  0
VERTEX
  8
0
 10
8.78717
 20
7.68375
 30
0.0
 40
0.0104167
 41
0.0104167
  0
VERTEX
  8
0
 10
9.0255
 20
7.68375
 30
0.0
 40
0.0104167
 41
0.0104167
  0
VERTEX
  8
0
 10
9.0255
 20
9.13043
 30
0.0
 40
0.0104167
 41
0.0104167
  0
VERTEX
  8
0
 10
9.7399
 20
9.13043
 30
0.0
 40
0.0104167
 41
0.0104167
  0
VERTEX
  8
0
 10
9.7399
 20
10.3712
 30
0.0
 40
0.0104167
 41
0.0104167
  0
VERTEX
  8
0
 10
9.03207
 20
10.3712
 30
0.0
 40
0.0104167
 41
0.0104167
  0
VERTEX
  8
0
 10
9.03207
 20
11.7421
 30
0.0
 40
0.0104167
 41
0.0104167
  0
VERTEX
  8
0
 10
8.78456
 20
11.7421
 30
0.0
 40
0.0104167
 41
0.0104167
  0
VERTEX
  8
0
 10
8.78717
 20
7.68375
 30
0.0
 40
0.0104167
 41
0.0104167
  0
SEQEND
 8
0
  0
POLYLINE
  8
0
 62
     7
 66
     1
 10
0
 20
0
 30
0.0
 70
     1
 40
0
 41
0
  0
VERTEX
  8
0
 10
9.00151
 20
10.2796
 30
0.0
 40
0
 41
0
  0
VERTEX
  8
0
 10
9.66374
 20
10.2796
 30
0.0
 40
0
 41
0
  0
VERTEX
  8
0
 10
9.66374
 20
9.22228
 30
0.0
 40
0
 41
0
  0
VERTEX
  8
0
 10
9.00151
 20
9.22228
 30
0.0
 40
0
 41
0
  0
VERTEX
  8
0
 10
9.00151
 20
10.2796
 30
0.0
 40
0
 41
0
  0
SEQEND
 8
0
  0
POLYLINE
  8
0
 62
     0
 66
     1
 10
0
 20
0
 30
0.0
 70
     1
 40
1.01497
 41
1.01497
  0
VERTEX
  8
0
 10
9.00151
 20
10.2796
 30
0.0
 40
0.0140968
 41
0.0140968
  0
VERTEX
  8
0
 10
9.00151
 20
9.22228
 30
0.0
 40
0.0140968
 41
0.0140968
  0
VERTEX
  8
0
 10
9.66374
 20
9.22228
 30
0.0
 40
0.0140968
 41
0.0140968
  0
VERTEX
  8
0
 10
9.66374
 20
10.2796
 30
0.0
 40
0.0140968
 41
0.0140968
  0
VERTEX
  8
0
 10
9.00151
 20
10.2796
 30
0.0
 40
0.0140968
 41
0.0140968
  0
SEQEND
 8
0
  0
POLYLINE
  8
0
 62
     251
 66
     1
 10
0
 20
0
 30
0.0
 40
1.01497
 41
1.01497
  0
VERTEX
  8
0
 10
9.10699
 20
9.23118
 30
0.0
 40
0.0140968
 41
0.0140968
  0
VERTEX
  8
0
 10
9.66596
 20
9.94536
 30
0.0
 40
0.0140968
 41
0.0140968
  0
SEQEND
 8
0
  0
POLYLINE
  8
0
 62
     251
 66
     1
 10
0
 20
0
 30
0.0
 40
1.01497
 41
1.01497
  0
VERTEX
  8
0
 10
9.27929
 20
9.23074
 30
0.0
 40
0.0140968
 41
0.0140968
  0
VERTEX
  8
0
 10
9.66922
 20
9.72894
 30
0.0
 40
0.0140968
 41
0.0140968
  0
SEQEND
 8
0
  0
POLYLINE
  8
0
 62
     251
 66
     1
 10
0
 20
0
 30
0.0
 40
1.01497
 41
1.01497
  0
VERTEX
  8
0
 10
9.45226
 20
9.22933
 30
0.0
 40
0.0140968
 41
0.0140968
  0
VERTEX
  8
0
 10
9.66922
 20
9.51096
 30
0.0
 40
0.0140968
 41
0.0140968
  0
SEQEND
 8
0
  0
POLYLINE
  8
0
 62
     251
 66
     1
 10
0
 20
0
 30
0.0
 40
1.01497
 41
1.01497
  0
VERTEX
  8
0
 10
9.00706
 20
9.79531
 30
0.0
 40
0.0140968
 41
0.0140968
  0
VERTEX
  8
0
 10
9.39085
 20
10.2856
 30
0.0
 40
0.0140968
 41
0.0140968
  0
SEQEND
 8
0
  0
POLYLINE
  8
0
 62
     251
 66
     1
 10
0
 20
0
 30
0.0
 40
1.01497
 41
1.01497
  0
VERTEX
  8
0
 10
9.00706
 20
9.33968
 30
0.0
 40
0.0140968
 41
0.0140968
  0
VERTEX
  8
0
 10
9.66922
 20
10.1858
 30
0.0
 40
0.0140968
 41
0.0140968
  0
SEQEND
 8
0
  0
POLYLINE
  8
0
 62
     251
 66
     1
 10
0
 20
0
 30
0.0
 40
1.01497
 41
1.01497
  0
VERTEX
  8
0
 10
9.00706
 20
9.57303
 30
0.0
 40
0.0140968
 41
0.0140968
  0
VERTEX
  8
0
 10
9.56554
 20
10.2866
 30
0.0
 40
0.0140968
 41
0.0140968
  0
SEQEND
 8
0
  0
POLYLINE
  8
0
 62
     251
 66
     1
 10
0
 20
0
 30
0.0
 40
1.01497
 41
1.01497
  0
VERTEX
  8
0
 10
9.00706
 20
10.0226
 30
0.0
 40
0.0140968
 41
0.0140968
  0
VERTEX
  8
0
 10
9.21365
 20
10.2866
 30
0.0
 40
0.0140968
 41
0.0140968
  0
SEQEND
 8
0
  0
POLYLINE
  8
0
 62
     7
 66
     1
 10
0
 20
0
 30
0.0
 70
     1
 40
0
 41
0
  0
VERTEX
  8
0
 10
9.22136
 20
9.99229
 30
0.0
 40
0
 41
0
  0
VERTEX
  8
0
 10
9.66922
 20
9.99229
 30
0.0
 40
0
 41
0
  0
VERTEX
  8
0
 10
9.66922
 20
9.53315
 30
0.0
 40
0
 41
0
  0
VERTEX
  8
0
 10
9.22136
 20
9.53315
 30
0.0
 40
0
 41
0
  0
VERTEX
  8
0
 10
9.22136
 20
9.99229
 30
0.0
 40
0
 41
0
  0
SEQEND
 8
0
  0
POLYLINE
  8
0
 62
     0
 66
     1
 10
0
 20
0
 30
0.0
 70
     1
 40
1.01497
 41
1.01497
  0
VERTEX
  8
0
 10
9.22136
 20
9.99229
 30
0.0
 40
0.0140968
 41
0.0140968
  0
VERTEX
  8
0
 10
9.22136
 20
9.53315
 30
0.0
 40
0.0140968
 41
0.0140968
  0
VERTEX
  8
0
 10
9.66922
 20
9.53315
 30
0.0
 40
0.0140968
 41
0.0140968
  0
VERTEX
  8
0
 10
9.66922
 20
9.99229
 30
0.0
 40
0.0140968
 41
0.0140968
  0
VERTEX
  8
0
 10
9.22136
 20
9.99229
 30
0.0
 40
0.0140968
 41
0.0140968
  0
SEQEND
 8
0
  0
ENDSEC
  0
EOF
