<?xml version="1.0"?>
<svg xmlns="http://www.w3.org/2000/svg" xmlns:xlink="http://www.w3.org/1999/xlink" height="1724.9699401855469" version="1.1" width="1032.300033569336" id="temp" viewBox="0 0 1032.300033569336 1724.9699401855469"><defs/><g id="Model" class="Model v1-1"><g class="Floor"><g id="Floor-1" transform="matrix(1,0,0,1,0,0)" class="Floorplan Floor-1"><g id="5fee9742-2270-4321-97e9-b264953448e8" fill="#ffffff" stroke="#ffffff" style="fill-opacity: 1; stroke-opacity: 1; stroke-width: 0.2;" class="Space Entry Lobby"><polygon points="843.06,1195.85 809.94,1195.85 809.94,1303.76 1009.18,1303.76 1009.18,1303.83 757.12,1303.83 757.89,1465.40 531.55,1465.40 531.55,1085.42 843.06,1085.42 "/><g transform="matrix(1,0,0,1,531.55,1085.42)" class="Dimension"><g transform="matrix(1,0,0,1,0,0)" style="display: none;" class="Visual"><g id="mark1" fill="#000000" stroke="none" transform="matrix(1,0,0,1,226.3399,0)" style="fill-opacity: 1; pointer-events: visible;" class="DimensionMark"><polygon points="-5,5,0,0,5,5"/></g><g id="mark2" fill="#000000" stroke="none" transform="matrix(1,0,0,1,477.63,218.34)" style="fill-opacity: 1; pointer-events: visible;" class="DimensionMark"><polygon points="-5,-5,0,0,-5,5"/></g><g id="mark3" fill="#000000" stroke="none" transform="matrix(1,0,0,1,226.3399,379.98)" style="fill-opacity: 1; pointer-events: visible;" class="DimensionMark"><polygon points="-5,-5,0,0,5,-5"/></g><g id="mark4" fill="#000000" stroke="none" transform="matrix(1,0,0,1,0,218.34)" style="fill-opacity: 1; pointer-events: visible;" class="DimensionMark"><polygon points="5,5,0,0,5,-5"/></g></g><g transform="matrix(1,0,0,1,109.9737,188.1612)" class="SpaceDimensionsLabel"><g id="NameLabel" style="display: block;" class="TextLabel NameLabel"><text x="0" y="0em" fill="#000000" stroke="none" style="font-family: Verdana; font-size: 33px; fill-opacity: 1; cursor: default;">ET</text></g><g id="DimensionMeasureLabel" transform="matrix(1,0,0,1,-87.2031,39.7968)" style="display: none;" class="TextLabel DimensionMeasureLabel"><text x="0" y="0em" fill="#000000" stroke="none" style="font-family: Verdana; font-size: 33px; fill-opacity: 1; cursor: default;">15'8" x 12'6"</text><text x="0" y="0"/></g></g></g></g><g id="8a500b50-4ffe-421b-bc8d-3973e0ceea56" fill="#ffffff" stroke="#ffffff" style="fill-opacity: 1; stroke-opacity: 1; stroke-width: 0.2;" class="Space Kitchen"><polygon points="1009.18,1303.83 1009.18,1625.57 649.44,1625.57 649.44,1465.40 757.89,1465.40 757.12,1303.83 "/><g transform="matrix(1,0,0,1,649.44,1303.8264)" class="Dimension"><g transform="matrix(1,0,0,1,0,0)" style="display: none;" class="Visual"><g id="mark1" fill="#000000" stroke="none" transform="matrix(1,0,0,1,179.87,0)" style="fill-opacity: 1; pointer-events: visible;" class="DimensionMark"><polygon points="-5,5,0,0,5,5"/></g><g id="mark2" fill="#000000" stroke="none" transform="matrix(1,0,0,1,359.74,161.5736)" style="fill-opacity: 1; pointer-events: visible;" class="DimensionMark"><polygon points="-5,-5,0,0,-5,5"/></g><g id="mark3" fill="#000000" stroke="none" transform="matrix(1,0,0,1,179.87,321.7435)" style="fill-opacity: 1; pointer-events: visible;" class="DimensionMark"><polygon points="-5,-5,0,0,5,-5"/></g><g id="mark4" fill="#000000" stroke="none" transform="matrix(1,0,0,1,0,161.5736)" style="fill-opacity: 1; pointer-events: visible;" class="DimensionMark"><polygon points="5,5,0,0,5,-5"/></g></g><g transform="matrix(1,0,0,1,204.8713,195.5988)" class="SpaceDimensionsLabel"><g id="NameLabel" style="display: block;" class="TextLabel NameLabel"><text x="0" y="0em" fill="#000000" stroke="none" style="font-family: Verdana; font-size: 33px; fill-opacity: 1; cursor: default;">K</text></g><g id="DimensionMeasureLabel" transform="matrix(1,0,0,1,-107.3594,39.7968)" style="display: none;" class="TextLabel DimensionMeasureLabel"><text x="0" y="0em" fill="#000000" stroke="none" style="font-family: Verdana; font-size: 33px; fill-opacity: 1; cursor: default;">11'10" x 10'7"</text><text x="0" y="0"/></g></g></g></g><g id="ea57d270-d22b-4818-91b3-79d92741a4fa" fill="#ffffff" stroke="#ffffff" style="fill-opacity: 1; stroke-opacity: 1; stroke-width: 0.2;" class="Space Room"><polygon points="1009.18,1075.42 650.63,1075.42 650.63,656.72 1009.18,656.72 "/><g transform="matrix(1,0,0,1,650.63,656.72)" class="Dimension"><g transform="matrix(1,0,0,1,0,0)" style="display: none;" class="Visual"><g id="mark1" fill="#000000" stroke="none" transform="matrix(1,0,0,1,179.275,0)" style="fill-opacity: 1; pointer-events: visible;" class="DimensionMark"><polygon points="-5,5,0,0,5,5"/></g><g id="mark2" fill="#000000" stroke="none" transform="matrix(1,0,0,1,358.55,209.35)" style="fill-opacity: 1; pointer-events: visible;" class="DimensionMark"><polygon points="-5,-5,0,0,-5,5"/></g><g id="mark3" fill="#000000" stroke="none" transform="matrix(1,0,0,1,179.275,418.7001)" style="fill-opacity: 1; pointer-events: visible;" class="DimensionMark"><polygon points="-5,-5,0,0,5,-5"/></g><g id="mark4" fill="#000000" stroke="none" transform="matrix(1,0,0,1,0,209.35)" style="fill-opacity: 1; pointer-events: visible;" class="DimensionMark"><polygon points="5,5,0,0,5,-5"/></g></g><g transform="matrix(1,0,0,1,182.1182,202.0205)" class="SpaceDimensionsLabel"><g id="NameLabel" style="display: block;" class="TextLabel NameLabel"><text x="0" y="0em" fill="#000000" stroke="none" style="font-family: Verdana; font-size: 33px; fill-opacity: 1; cursor: default;">H</text></g><g id="DimensionMeasureLabel" transform="matrix(1,0,0,1,-95.9062,39.7812)" style="display: none;" class="TextLabel DimensionMeasureLabel"><text x="0" y="0em" fill="#000000" stroke="none" style="font-family: Verdana; font-size: 33px; fill-opacity: 1; cursor: default;">11'9" x 13'9"</text><text x="0" y="0"/></g></g></g></g><g id="4dcdad50-7c5c-48ae-9f34-8c8189545d8e" fill="#ffffff" stroke="#ffffff" style="fill-opacity: 1; stroke-opacity: 1; stroke-width: 0.2;" class="Space Room"><polygon points="628.63,1075.42 272.83,1075.42 272.12,656.72 628.63,656.72 "/><g transform="matrix(1,0,0,1,272.475,656.72)" class="Dimension"><g transform="matrix(1,0,0,1,0,0)" style="display: none;" class="Visual"><g id="mark1" fill="#000000" stroke="none" transform="matrix(1,0,0,1,177.9,0)" style="fill-opacity: 1; pointer-events: visible;" class="DimensionMark"><polygon points="-5,5,0,0,5,5"/></g><g id="mark2" fill="#000000" stroke="none" transform="matrix(1,0,0,1,356.155,209.3494)" style="fill-opacity: 1; pointer-events: visible;" class="DimensionMark"><polygon points="-5,-5,0,0,-5,5"/></g><g id="mark3" fill="#000000" stroke="none" transform="matrix(1,0,0,1,177.9,418.7001)" style="fill-opacity: 1; pointer-events: visible;" class="DimensionMark"><polygon points="-5,-5,0,0,5,-5"/></g><g id="mark4" fill="#000000" stroke="none" transform="matrix(1,0,0,1,0,209.3494)" style="fill-opacity: 1; pointer-events: visible;" class="DimensionMark"><polygon points="5,5,0,0,5,-5"/></g></g><g transform="matrix(1,0,0,1,178.0775,209.2805)" class="SpaceDimensionsLabel"><g id="NameLabel" style="display: block;" class="TextLabel NameLabel"><text x="0" y="0em" fill="#000000" stroke="none" style="font-family: Verdana; font-size: 33px; fill-opacity: 1; cursor: default;">H</text></g><g id="DimensionMeasureLabel" transform="matrix(1,0,0,1,-95.8906,39.8125)" style="display: none;" class="TextLabel DimensionMeasureLabel"><text x="0" y="0em" fill="#000000" stroke="none" style="font-family: Verdana; font-size: 33px; fill-opacity: 1; cursor: default;">11'8" x 13'9"</text><text x="0" y="0"/></g></g></g></g><g id="5c4375ff-db42-41b9-9d7e-bb946daf619a" fill="#ffffff" stroke="#ffffff" style="fill-opacity: 1; stroke-opacity: 1; stroke-width: 0.2;" class="Space Room"><polygon points="521.55,1625.57 272.83,1625.57 272.83,1234.11 521.55,1234.11 "/><g transform="matrix(1,0,0,1,272.83,1234.11)" class="Dimension"><g transform="matrix(1,0,0,1,0,0)" style="display: none;" class="Visual"><g id="mark1" fill="#000000" stroke="none" transform="matrix(1,0,0,1,124.36,0)" style="fill-opacity: 1; pointer-events: visible;" class="DimensionMark"><polygon points="-5,5,0,0,5,5"/></g><g id="mark2" fill="#000000" stroke="none" transform="matrix(1,0,0,1,248.72,195.73)" style="fill-opacity: 1; pointer-events: visible;" class="DimensionMark"><polygon points="-5,-5,0,0,-5,5"/></g><g id="mark3" fill="#000000" stroke="none" transform="matrix(1,0,0,1,124.36,391.46)" style="fill-opacity: 1; pointer-events: visible;" class="DimensionMark"><polygon points="-5,-5,0,0,5,-5"/></g><g id="mark4" fill="#000000" stroke="none" transform="matrix(1,0,0,1,0,195.73)" style="fill-opacity: 1; pointer-events: visible;" class="DimensionMark"><polygon points="5,5,0,0,5,-5"/></g></g><g transform="matrix(1,0,0,1,115.8304,195.73)" class="SpaceDimensionsLabel"><g id="NameLabel" style="display: block;" class="TextLabel NameLabel"><text x="0" y="0em" fill="#000000" stroke="none" style="font-family: Verdana; font-size: 33px; fill-opacity: 1; cursor: default;">H</text></g><g id="DimensionMeasureLabel" transform="matrix(1,0,0,1,-95.9062,39.7968)" style="display: none;" class="TextLabel DimensionMeasureLabel"><text x="0" y="0em" fill="#000000" stroke="none" style="font-family: Verdana; font-size: 33px; fill-opacity: 1; cursor: default;">8'2" x 12'10"</text><text x="0" y="0"/></g></g></g></g><g id="fc45caf7-31ff-46fc-b966-25486f906d7d" fill="#ffffff" stroke="#ffffff" style="fill-opacity: 1; stroke-opacity: 1; stroke-width: 0.2;" class="Space Closet WalkIn"><polygon points="521.55,1225.11 272.83,1225.11 272.83,1085.42 521.55,1085.42 "/><g transform="matrix(1,0,0,1,272.83,1085.42)" class="Dimension"><g transform="matrix(1,0,0,1,0,0)" style="display: none;" class="Visual"><g id="mark1" fill="#000000" stroke="none" transform="matrix(1,0,0,1,124.36,0)" style="fill-opacity: 1; pointer-events: visible;" class="DimensionMark"><polygon points="-5,5,0,0,5,5"/></g><g id="mark2" fill="#000000" stroke="none" transform="matrix(1,0,0,1,248.72,69.845)" style="fill-opacity: 1; pointer-events: visible;" class="DimensionMark"><polygon points="-5,-5,0,0,-5,5"/></g><g id="mark3" fill="#000000" stroke="none" transform="matrix(1,0,0,1,124.36,139.6899)" style="fill-opacity: 1; pointer-events: visible;" class="DimensionMark"><polygon points="-5,-5,0,0,5,-5"/></g><g id="mark4" fill="#000000" stroke="none" transform="matrix(1,0,0,1,0,69.845)" style="fill-opacity: 1; pointer-events: visible;" class="DimensionMark"><polygon points="5,5,0,0,5,-5"/></g></g><g transform="matrix(1,0,0,1,123.8655,72.6881)" class="SpaceDimensionsLabel"><g id="NameLabel" style="display: block;" class="TextLabel NameLabel"><text x="0" y="0em" fill="#000000" stroke="none" style="font-family: Verdana; font-size: 33px; fill-opacity: 1; cursor: default;">VH</text></g><g id="DimensionMeasureLabel" transform="matrix(1,0,0,1,-63.6484,39.7968)" style="display: none;" class="TextLabel DimensionMeasureLabel"><text x="0" y="0em" fill="#000000" stroke="none" style="font-family: Verdana; font-size: 33px; fill-opacity: 1; cursor: default;">8'2" x 4'7"</text><text x="0" y="0"/></g></g></g></g><g id="25826f80-e6ba-4d9d-b301-ef052ab84453" fill="#ffffff" stroke="#ffffff" style="fill-opacity: 1; stroke-opacity: 1; stroke-width: 0.2;" class="Space DraughtLobby"><polygon points="627.44,1625.57 531.55,1625.57 531.55,1475.40 627.44,1475.40 "/><g transform="matrix(1,0,0,1,531.55,1475.4)" class="Dimension"><g transform="matrix(1,0,0,1,0,0)" style="display: none;" class="Visual"><g id="mark1" fill="#000000" stroke="none" transform="matrix(1,0,0,1,47.945,0)" style="fill-opacity: 1; pointer-events: visible;" class="DimensionMark"><polygon points="-5,5,0,0,5,5"/></g><g id="mark2" fill="#000000" stroke="none" transform="matrix(1,0,0,1,95.89,75.085)" style="fill-opacity: 1; pointer-events: visible;" class="DimensionMark"><polygon points="-5,-5,0,0,-5,5"/></g><g id="mark3" fill="#000000" stroke="none" transform="matrix(1,0,0,1,47.945,150.1699)" style="fill-opacity: 1; pointer-events: visible;" class="DimensionMark"><polygon points="-5,-5,0,0,5,-5"/></g><g id="mark4" fill="#000000" stroke="none" transform="matrix(1,0,0,1,0,75.085)" style="fill-opacity: 1; pointer-events: visible;" class="DimensionMark"><polygon points="5,5,0,0,5,-5"/></g></g><g transform="matrix(1,0,0,1,30.8859,84.9064)" class="SpaceDimensionsLabel"><g id="NameLabel" style="display: block;" class="TextLabel NameLabel"><text x="0" y="0em" fill="#000000" stroke="none" style="font-family: Verdana; font-size: 33px; fill-opacity: 1; cursor: default;">TK</text></g><g id="DimensionMeasureLabel" transform="matrix(1,0,0,1,-76.9141,39.7968)" style="display: none;" class="TextLabel DimensionMeasureLabel"><text x="0" y="0em" fill="#000000" stroke="none" style="font-family: Verdana; font-size: 33px; fill-opacity: 1; cursor: default;">3'2" x 4'11"</text><text x="0" y="0"/></g></g></g></g><g id="35d472ef-29f9-4412-b7bc-4592724fc8ab" fill="#ffffff" stroke="#ffffff" style="fill-opacity: 1; stroke-opacity: 1; stroke-width: 0.2;" class="Space Sauna"><polygon points="887.52,1228.50 887.52,1294.76 818.94,1294.76 818.94,1204.85 848.52,1204.85 "/><g transform="matrix(1,0,0,1,818.9409,1206.9432)" class="Dimension"><g transform="matrix(1,0,0,1,0,0)" style="display: none;" class="Visual"><g id="mark1" fill="#000000" stroke="none" transform="matrix(1,0,0,1,33.0204,0)" style="fill-opacity: 1; pointer-events: visible;" class="DimensionMark"><polygon points="-5,5,0,0,5,5"/></g><g id="mark2" fill="#000000" stroke="none" transform="matrix(1,0,0,1,68.5742,42.8637)" style="fill-opacity: 1; pointer-events: visible;" class="DimensionMark"><polygon points="-5,-5,0,0,-5,5"/></g><g id="mark3" fill="#000000" stroke="none" transform="matrix(1,0,0,1,33.0204,87.8168)" style="fill-opacity: 1; pointer-events: visible;" class="DimensionMark"><polygon points="-5,-5,0,0,5,-5"/></g><g id="mark4" fill="#000000" stroke="none" transform="matrix(1,0,0,1,0,42.8637)" style="fill-opacity: 1; pointer-events: visible;" class="DimensionMark"><polygon points="5,5,0,0,5,-5"/></g></g><g transform="matrix(1,0,0,1,21.5591,55.3855)" class="SpaceDimensionsLabel"><g id="NameLabel" style="display: block;" class="TextLabel NameLabel"><text x="0" y="0em" fill="#000000" stroke="none" style="font-family: Verdana; font-size: 33px; fill-opacity: 1; cursor: default;">S</text></g><g id="DimensionMeasureLabel" transform="matrix(1,0,0,1,-86.5469,39.7813)" style="display: none;" class="TextLabel DimensionMeasureLabel"><text x="0" y="0em" fill="#000000" stroke="none" style="font-family: Verdana; font-size: 33px; fill-opacity: 1; cursor: default;">2'3" x 2'11"</text><text x="0" y="0"/></g></g></g></g><g id="343460d3-009a-48f3-af93-df9708cf3537" fill="#ffffff" stroke="#ffffff" style="fill-opacity: 1; stroke-opacity: 1; stroke-width: 0.2;" class="Space Bath"><polygon points="1009.18,1294.76 897.30,1294.76 897.30,1223.86 852.06,1197.00 852.06,1085.42 1009.18,1085.42 "/><g transform="matrix(1,0,0,1,852.06,1085.42)" class="Dimension"><g transform="matrix(1,0,0,1,0,0)" style="display: none;" class="Visual"><g id="mark1" fill="#000000" stroke="none" transform="matrix(1,0,0,1,78.56,0)" style="fill-opacity: 1; pointer-events: visible;" class="DimensionMark"><polygon points="-5,5,0,0,5,5"/></g><g id="mark2" fill="#000000" stroke="none" transform="matrix(1,0,0,1,157.12,104.67)" style="fill-opacity: 1; pointer-events: visible;" class="DimensionMark"><polygon points="-5,-5,0,0,-5,5"/></g><g id="mark3" fill="#000000" stroke="none" transform="matrix(1,0,0,1,78.56,209.34)" style="fill-opacity: 1; pointer-events: visible;" class="DimensionMark"><polygon points="-5,-5,0,0,5,-5"/></g><g id="mark4" fill="#000000" stroke="none" transform="matrix(1,0,0,1,0,104.67)" style="fill-opacity: 1; pointer-events: visible;" class="DimensionMark"><polygon points="5,5,0,0,5,-5"/></g></g><g transform="matrix(1,0,0,1,64.6169,117.1798)" class="SpaceDimensionsLabel"><g id="NameLabel" style="display: block;" class="TextLabel NameLabel"><text x="0" y="0em" fill="#000000" stroke="none" style="font-family: Verdana; font-size: 33px; fill-opacity: 1; cursor: default;">KH</text></g><g id="DimensionMeasureLabel" transform="matrix(1,0,0,1,-116.1406,79.2813)" style="display: none;" class="TextLabel DimensionMeasureLabel"><text x="42.171875" y="-1.2em" fill="#000000" stroke="none" style="font-family: Verdana; font-size: 33px; fill-opacity: 1; cursor: default;">5'2" x 6'10"</text><text x="0" y="0em" fill="#000000" stroke="none" style="font-family: Verdana; font-size: 33px; fill-opacity: 1; cursor: default;">1.57 m x 2.09 m</text></g></g></g></g><g id="Wall" class="Wall External" fill="#000000" stroke="#000000" style="fill-opacity: 1; stroke-opacity: 1; stroke-width: 0.2;"><polygon points="272.12,656.72 1009.18,656.72 1032.18,639.72 251.10,639.72 "/><g id="Door" fill="#ffffff" stroke="#000000" style="fill-opacity: 1; stroke-width: 1; stroke-opacity: 1;" class="Door Swing Beside"><polygon points="546.11,656.72 622.20,656.72 622.20,639.72 546.11,639.72 "/><g id="Threshold" class="Threshold"><polygon points="546.11,656.72 622.20,656.72 622.20,639.72 546.11,639.72 "/></g><g id="Panel" fill="none" style="" class="Panel Right Positive"><g id="PanelArea" fill="none" stroke="none" style="" class="PanelArea"><polygon points="546.11,656.72 622.20,656.72 622.20,639.72 546.11,639.72 "/></g><path d="M546.11,639.72 q0.00,-76.09 76.09,-76.09 l0.00,76.09Z"/></g></g><g id="Window" fill="#f0f0ff" stroke="#000000" style="fill-opacity: 1; stroke-width: 1; stroke-opacity: 1;" class="Window Regular"><polygon points="414.18,656.72 538.99,656.72 538.99,639.72 414.18,639.72 "/><g id="Glass" class="Glass"><polygon points="414.18,656.72 538.99,656.72 538.99,639.72 414.18,639.72 "/></g><g id="Panel" class="Panel"><line x1="421.67999267578125" x2="531.489990234375" y1="648.219970703125" y2="648.219970703125"/><line x1="421.67999267578125" x2="421.67999267578125" y1="656.719970703125" y2="639.719970703125"/><line x1="531.489990234375" x2="531.489990234375" y1="656.719970703125" y2="639.719970703125"/></g></g><g id="Window" fill="#f0f0ff" stroke="#000000" style="fill-opacity: 1; stroke-width: 1; stroke-opacity: 1;" class="Window Regular"><polygon points="770.01,656.72 887.16,656.72 887.16,639.72 770.01,639.72 "/><g id="Glass" class="Glass"><polygon points="770.01,656.72 887.16,656.72 887.16,639.72 770.01,639.72 "/></g><g id="Panel" class="Panel"><line x1="777.510009765625" x2="879.6599731445312" y1="648.219970703125" y2="648.219970703125"/><line x1="777.510009765625" x2="777.510009765625" y1="656.719970703125" y2="639.719970703125"/><line x1="879.6599731445312" x2="879.6599731445312" y1="656.719970703125" y2="639.719970703125"/></g></g><g id="Window" fill="#f0f0ff" stroke="#000000" style="fill-opacity: 1; stroke-width: 1; stroke-opacity: 1;" class="Window Regular"><polygon points="736.90,656.72 768.86,656.72 768.86,639.72 736.90,639.72 "/><g id="Glass" class="Glass"><polygon points="736.90,656.72 768.86,656.72 768.86,639.72 736.90,639.72 "/></g><g id="Panel" class="Panel"><line x1="744.4000244140625" x2="761.3599853515625" y1="648.219970703125" y2="648.219970703125"/><line x1="744.4000244140625" x2="744.4000244140625" y1="656.719970703125" y2="639.719970703125"/><line x1="761.3599853515625" x2="761.3599853515625" y1="656.719970703125" y2="639.719970703125"/></g></g><g id="Window" fill="#f0f0ff" stroke="#000000" style="fill-opacity: 1; stroke-width: 1; stroke-opacity: 1;" class="Window Regular"><polygon points="386.22,656.72 412.64,656.72 412.64,639.72 386.22,639.72 "/><g id="Glass" class="Glass"><polygon points="386.22,656.72 412.64,656.72 412.64,639.72 386.22,639.72 "/></g><g id="Panel" class="Panel"><line x1="393.7200012207031" x2="405.1400146484375" y1="648.219970703125" y2="648.219970703125"/><line x1="393.7200012207031" x2="393.7200012207031" y1="656.719970703125" y2="639.719970703125"/><line x1="405.1400146484375" x2="405.1400146484375" y1="656.719970703125" y2="639.719970703125"/></g></g></g><g id="Wall" class="Wall External" fill="#000000" stroke="#000000" style="fill-opacity: 1; stroke-opacity: 1; stroke-width: 0.2;"><polygon points="1009.18,656.72 1009.18,1625.57 1032.18,1641.57 1032.18,639.72 "/></g><g id="Wall" class="Wall External" fill="#000000" stroke="#000000" style="fill-opacity: 1; stroke-opacity: 1; stroke-width: 0.2;"><polygon points="1009.18,1625.57 272.83,1625.57 251.84,1641.57 1032.18,1641.57 "/><g id="Door" fill="#ffffff" stroke="#000000" style="fill-opacity: 1; stroke-width: 1; stroke-opacity: 1;" class="Door Swing Beside"><polygon points="623.58,1625.57 540.18,1625.57 540.18,1641.57 623.58,1641.57 "/><g id="Threshold" class="Threshold"><polygon points="623.58,1625.57 540.18,1625.57 540.18,1641.57 623.58,1641.57 "/></g><g id="Panel" fill="none" style="" class="Panel Right Positive"><g id="PanelArea" fill="none" stroke="none" style="" class="PanelArea"><polygon points="623.58,1625.57 540.18,1625.57 540.18,1641.57 623.58,1641.57 "/></g><path d="M623.58,1641.57 q0.00,83.40 -83.40,83.40 l0.00,-83.40Z"/></g></g><g id="Window" fill="#f0f0ff" stroke="#000000" style="fill-opacity: 1; stroke-width: 1; stroke-opacity: 1;" class="Window Regular"><polygon points="453.85,1625.57 336.82,1625.57 336.82,1641.57 453.85,1641.57 "/><g id="Glass" class="Glass"><polygon points="453.85,1625.57 336.82,1625.57 336.82,1641.57 453.85,1641.57 "/></g><g id="Panel" class="Panel"><line x1="446.3500061035156" x2="344.32000732421875" y1="1633.5699462890625" y2="1633.5699462890625"/><line x1="446.3500061035156" x2="446.3500061035156" y1="1625.5699462890625" y2="1641.5699462890625"/><line x1="344.32000732421875" x2="344.32000732421875" y1="1625.5699462890625" y2="1641.5699462890625"/></g></g><g id="Window" fill="#f0f0ff" stroke="#000000" style="fill-opacity: 1; stroke-width: 1; stroke-opacity: 1;" class="Window Regular"><polygon points="490.48,1625.57 454.80,1625.57 454.80,1641.57 490.48,1641.57 "/><g id="Glass" class="Glass"><polygon points="490.48,1625.57 454.80,1625.57 454.80,1641.57 490.48,1641.57 "/></g><g id="Panel" class="Panel"><line x1="482.9800109863281" x2="462.29998779296875" y1="1633.5699462890625" y2="1633.5699462890625"/><line x1="482.9800109863281" x2="482.9800109863281" y1="1625.5699462890625" y2="1641.5699462890625"/><line x1="462.29998779296875" x2="462.29998779296875" y1="1625.5699462890625" y2="1641.5699462890625"/></g></g><g id="Window" fill="#f0f0ff" stroke="#000000" style="fill-opacity: 1; stroke-width: 1; stroke-opacity: 1;" class="Window Regular"><polygon points="827.78,1625.57 708.85,1625.57 708.85,1641.57 827.78,1641.57 "/><g id="Glass" class="Glass"><polygon points="827.78,1625.57 708.85,1625.57 708.85,1641.57 827.78,1641.57 "/></g><g id="Panel" class="Panel"><line x1="820.280029296875" x2="716.3499755859375" y1="1633.5699462890625" y2="1633.5699462890625"/><line x1="820.280029296875" x2="820.280029296875" y1="1625.5699462890625" y2="1641.5699462890625"/><line x1="716.3499755859375" x2="716.3499755859375" y1="1625.5699462890625" y2="1641.5699462890625"/></g></g><g id="Window" fill="#f0f0ff" stroke="#000000" style="fill-opacity: 1; stroke-width: 1; stroke-opacity: 1;" class="Window Regular"><polygon points="860.61,1625.57 828.26,1625.57 828.26,1641.57 860.61,1641.57 "/><g id="Glass" class="Glass"><polygon points="860.61,1625.57 828.26,1625.57 828.26,1641.57 860.61,1641.57 "/></g><g id="Panel" class="Panel"><line x1="853.1099853515625" x2="835.760009765625" y1="1633.5699462890625" y2="1633.5699462890625"/><line x1="853.1099853515625" x2="853.1099853515625" y1="1625.5699462890625" y2="1641.5699462890625"/><line x1="835.760009765625" x2="835.760009765625" y1="1625.5699462890625" y2="1641.5699462890625"/></g></g></g><g id="Wall" class="Wall External" fill="#000000" stroke="#000000" style="fill-opacity: 1; stroke-opacity: 1; stroke-width: 0.2;"><polygon points="272.83,1625.57 272.12,656.72 251.10,639.72 251.84,1641.57 "/></g><g id="Wall" class="Wall" fill="#000000" stroke="#000000" style="fill-opacity: 1; stroke-opacity: 1; stroke-width: 0.2;"><polygon points="251.43,1085.42 1032.18,1085.42 1032.18,1075.42 251.43,1075.42 "/><g id="Door" fill="#ffffff" stroke="#000000" style="fill-opacity: 1; stroke-width: 1; stroke-opacity: 1;" class="Door Swing Beside"><polygon points="542.78,1085.42 622.76,1085.42 622.76,1075.42 542.78,1075.42 "/><g id="Threshold" class="Threshold"><polygon points="542.78,1085.42 622.76,1085.42 622.76,1075.42 542.78,1075.42 "/></g><g id="Panel" fill="none" style="" class="Panel Right Positive"><g id="PanelArea" fill="none" stroke="none" style="" class="PanelArea"><polygon points="542.78,1085.42 622.76,1085.42 622.76,1075.42 542.78,1075.42 "/></g><path d="M542.78,1075.42 q0.00,-79.98 79.98,-79.98 l0.00,79.98Z"/></g></g><g id="Door" fill="#ffffff" stroke="#000000" style="fill-opacity: 1; stroke-width: 1; stroke-opacity: 1;" class="Door Swing Beside"><polygon points="656.87,1085.42 736.07,1085.42 736.07,1075.42 656.87,1075.42 "/><g id="Threshold" class="Threshold"><polygon points="656.87,1085.42 736.07,1085.42 736.07,1075.42 656.87,1075.42 "/></g><g id="Panel" fill="none" style="" class="Panel Left Positive"><g id="PanelArea" fill="none" stroke="none" style="" class="PanelArea"><polygon points="656.87,1085.42 736.07,1085.42 736.07,1075.42 656.87,1075.42 "/></g><path d="M736.07,1075.42 q0.00,-79.20 -79.20,-79.20 l0.00,79.20Z"/></g></g></g><g id="Wall" class="Wall" fill="#000000" stroke="#000000" style="fill-opacity: 1; stroke-opacity: 1; stroke-width: 0.2;"><polygon points="531.55,1641.57 531.55,1075.42 521.55,1075.42 521.55,1641.57 "/><g id="Door" fill="#ffffff" stroke="#000000" style="fill-opacity: 1; stroke-width: 1; stroke-opacity: 1;" class="Door Swing Beside"><polygon points="531.55,1178.19 531.55,1115.24 521.55,1115.24 521.55,1178.19 "/><g id="Threshold" class="Threshold"><polygon points="531.55,1178.19 531.55,1115.24 521.55,1115.24 521.55,1178.19 "/></g><g id="Panel" fill="none" style="" class="Panel Right Negative"><g id="PanelArea" fill="none" stroke="none" style="" class="PanelArea"><polygon points="531.55,1178.19 531.55,1115.24 521.55,1115.24 521.55,1178.19 "/></g><path d="M531.55,1115.24 q62.95,0.00 62.95,62.95 l-62.95,0.00Z"/></g></g><g id="Door" fill="#ffffff" stroke="#000000" style="fill-opacity: 1; stroke-width: 1; stroke-opacity: 1;" class="Door Swing Beside"><polygon points="531.55,1444.99 531.55,1368.72 521.55,1368.72 521.55,1444.99 "/><g id="Threshold" class="Threshold"><polygon points="531.55,1444.99 531.55,1368.72 521.55,1368.72 521.55,1444.99 "/></g><g id="Panel" fill="none" style="" class="Panel Right Positive"><g id="PanelArea" fill="none" stroke="none" style="" class="PanelArea"><polygon points="531.55,1444.99 531.55,1368.72 521.55,1368.72 521.55,1444.99 "/></g><path d="M521.55,1444.99 q-76.27,0.00 -76.27,-76.27 l76.27,0.00Z"/></g></g></g><g id="Wall" class="Wall" fill="#000000" stroke="#000000" style="fill-opacity: 1; stroke-opacity: 1; stroke-width: 0.2;"><polygon points="251.54,1234.11 531.55,1234.11 531.55,1225.11 251.54,1225.11 "/></g><g id="Wall" class="Wall" fill="#000000" stroke="#000000" style="fill-opacity: 1; stroke-opacity: 1; stroke-width: 0.2;"><polygon points="1032.18,1303.76 809.94,1303.76 818.94,1294.76 1032.18,1294.76 "/></g><g id="Wall" class="Wall" fill="#000000" stroke="#000000" style="fill-opacity: 1; stroke-opacity: 1; stroke-width: 0.2;"><polygon points="650.63,1085.42 650.63,639.72 628.63,639.72 628.63,1085.42 "/></g><g id="Wall" class="Wall" fill="#000000" stroke="#000000" style="fill-opacity: 1; stroke-opacity: 1; stroke-width: 0.2;"><polygon points="521.55,1475.40 627.44,1475.40 649.44,1465.40 521.55,1465.40 "/><g id="Door" fill="#ffffff" stroke="#000000" style="fill-opacity: 1; stroke-width: 1; stroke-opacity: 1;" class="Door Swing Beside"><polygon points="544.07,1475.40 621.46,1475.40 621.46,1465.40 544.07,1465.40 "/><g id="Threshold" class="Threshold"><polygon points="544.07,1475.40 621.46,1475.40 621.46,1465.40 544.07,1465.40 "/></g><g id="Panel" fill="none" style="" class="Panel Right Positive"><g id="PanelArea" fill="none" stroke="none" style="" class="PanelArea"><polygon points="544.07,1475.40 621.46,1475.40 621.46,1465.40 544.07,1465.40 "/></g><path d="M544.07,1465.40 q0.00,-77.39 77.39,-77.39 l0.00,77.39Z"/></g></g></g><g id="Railing" class="Railing" fill="#ffffff" stroke="#000000" style="fill-opacity: 1; stroke-opacity: 1; stroke-width: 0.2;"><polygon points="261.02,639.72 261.02,424.54 251.02,424.54 251.02,639.72 "/></g><g id="Railing" class="Railing" fill="#ffffff" stroke="#000000" style="fill-opacity: 1; stroke-opacity: 1; stroke-width: 0.2;"><polygon points="1032.30,639.72 1032.30,424.54 1022.30,424.54 1022.30,639.72 "/></g><g id="FixedFurnitureSet" transform="matrix(1,0,0,1,868.7645,1085.4982)" class="FixedFurnitureSet" style=""><g class="FixedFurniture BaseCabinet" fill="#ffffff" stroke="#000000" transform="matrix(1,0,0,1,0,0)" style="fill-opacity: 1; stroke-opacity: 1;">
        <g class="BoundaryPolygon">
            <polygon points="0.00,0.00 54.55,0.00 54.55,46.58 0.00,46.58 "/>
        </g>
        <g class="Direction" fill-opacity="0.9" style="display: none;">
            <polygon points="29.10,42.86 29.10,32.24 26.09,32.24 26.09,42.86 22.29,42.86 27.59,47.66 32.90,42.86 29.10,42.86 " fill="#444444"/>
        </g> 
        <g class="Name" fill-opacity="0.9" style="display: none;">
            <text transform="translate(3 12)" font-size="12" font-family="Verdana, Sans-Serif">CB</text>
        </g>
        <desc>Width:60 Height:5 Depth:60 Elevation:105</desc>
    </g><g class="FixedFurniture Sink" fill="#ffffff" stroke="#000000" transform="matrix(1,0,0,1,0,0)" style="fill-opacity: 1; stroke-opacity: 1;">
        <g class="BoundaryPolygon" fill="none" stroke="none">
        <polygon points="0.00,0.00 54.55,0.00 54.55,46.58 0.00,46.58 "/>
        </g>
        <g class="InnerPolygon">
            <polygon points="4.55,9.70 50.01,9.70 50.01,42.47 4.55,42.47 "/>
        </g>
        <g class="OuterDrain" stroke-width="0.8">
            <circle cx="27.277114307951635" cy="25.000172330020405" r="3.5"/>
        </g>
        <g class="InnerDrain" stroke-width="0.8">
            <circle cx="27.277114307951635" cy="25.000172330020405" r="2"/>
        </g>
        <g class="Faucet">
            <polygon points="24.55,3.88 30.55,3.88 30.55,17.88 24.55,17.88 "/>
        </g>
        <g class="Direction" fill-opacity="0.9" style="display: none;">
            <polygon points="29.10,42.86 29.10,32.24 26.09,32.24 26.09,42.86 22.29,42.86 27.59,47.66 32.90,42.86 29.10,42.86 " fill="#444444"/>
        </g> 
        <g class="Name" fill-opacity="0.9" style="display: none;">
            <text transform="translate(3 12)" font-size="12" font-family="Verdana, Sans-Serif">SINK</text>
        </g>
        <desc>Width:60 Height:90 Depth:60 Elevation:0</desc>
    </g></g><g class="FixedFurniture CoatCloset" fill="#ffffff" stroke="#000000" transform="matrix(0,-1,1,0,272.4835,1224.8797)" style="fill-opacity: 1; stroke-opacity: 1;">
        <g class="BoundaryPolygon">
            <polygon points="0.00,0.00 139.46,0.00 139.46,60.00 0.00,60.00 "/>
        </g>
        <g class="Hanger" fill="#ffffff" stroke="#9a9a9a" stroke-dasharray="5,5">
            <line x1="0" y1="30" x2="139.4558143273584" y2="30"/>
        </g>
        <g class="Direction" fill-opacity="0.9" style="display: none;">
            <polygon points="71.48,54.52 71.48,43.90 68.47,43.90 68.47,54.52 64.67,54.52 69.97,59.82 75.28,54.52 71.48,54.52 " fill="#444444"/>
        </g> 
        <g class="Name" fill-opacity="0.9" style="display: none;">
            <text transform="translate(3 12)" font-size="12" font-family="Verdana, Sans-Serif">CWH</text>
        </g>
        <desc>Width:120 Height:200 Depth:60 Elevation:0</desc>
     </g><g class="FixedFurniture Closet" fill="#ffffff" stroke="#000000" transform="matrix(-1,0,0,-1,521.0235,1225.1068)" style="fill-opacity: 1; stroke-opacity: 1;">
        <g class="BoundaryPolygon">
            <polygon points="0.00,0.00 188.54,0.00 188.54,42.62 0.00,42.62 "/>
        </g>
        <g class="Direction" fill-opacity="0.9" style="display: none;">
            <polygon points="99.01,38.86 99.01,28.24 96.00,28.24 96.00,38.86 92.20,38.86 97.50,44.16 102.81,38.86 99.01,38.86 " fill="#444444"/>
        </g> 
        <g class="Name" fill-opacity="0.9" style="display: none;">
            <text transform="translate(3 12)" font-size="12" font-family="Verdana, Sans-Serif">CL</text>
        </g>
        <desc>Width:60 Height:200 Depth:60 Elevation:0</desc>
     </g><g class="FixedFurniture Closet" fill="#ffffff" stroke="#000000" transform="matrix(1,0,0,1,333.0086,1085.4197)" style="fill-opacity: 1; stroke-opacity: 1;">
        <g class="BoundaryPolygon">
            <polygon points="0.00,0.00 188.54,0.00 188.54,26.59 0.00,26.59 "/>
        </g>
        <g class="Direction" fill-opacity="0.9" style="display: none;">
            <polygon points="99.01,24.24 99.01,13.62 96.00,13.62 96.00,24.24 92.20,24.24 97.50,29.54 102.81,24.24 99.01,24.24 " fill="#444444"/>
        </g> 
        <g class="Name" fill-opacity="0.9" style="display: none;">
            <text transform="translate(3 12)" font-size="12" font-family="Verdana, Sans-Serif">CL</text>
        </g>
        <desc>Width:60 Height:200 Depth:60 Elevation:0</desc>
     </g><g class="FixedFurniture Closet" fill="#ffffff" stroke="#000000" transform="matrix(1,0,0,1,757.8899,1303.8264)" style="fill-opacity: 1; stroke-opacity: 1;">
        <g class="BoundaryPolygon">
            <polygon points="0.00,0.00 53.36,0.00 53.36,60.00 0.00,60.00 "/>
        </g>
        <g class="Direction" fill-opacity="0.9" style="display: none;">
            <polygon points="28.02,54.70 28.02,44.08 25.02,44.08 25.02,54.70 21.21,54.70 26.52,60.00 31.82,54.70 28.02,54.70 " fill="#444444"/>
        </g> 
        <g class="Name" fill-opacity="0.9" style="display: none;">
            <text transform="translate(3 12)" font-size="12" font-family="Verdana, Sans-Serif">CL</text>
        </g>
        <desc>Width:60 Height:200 Depth:60 Elevation:0</desc>
     </g><g class="FixedFurniture ElectricalAppliance Refrigerator" fill="#ffffff" stroke="#000000" transform="matrix(0,0.9799,-1,0,1009.0037,1566.7754)" style="fill-opacity: 1; stroke-opacity: 1;">
        <g class="BoundaryPolygon">
            <polygon points="0,0 60,0 60,60 0,60"/>
        </g>
        <g class="electricitySign" fill="none">
            <path d="M0,0,30,37.1v-18L60,56.3"/>
        </g>
        <g class="Doors">
            <rect y="56" width="60" height="4"/>
        </g>
        <g class="Direction" fill-opacity="0.9" style="display: none;">
            <polygon points="32.009 55.197 32.009 44.581 29 44.581 29 55.197 25.197 55.197 30.5 60 35.803 55.197 32.009 55.197" fill="#444444"/>
        </g> 
        <g class="Name" fill-opacity="0.9" style="display: none;">
            <text transform="translate(3 12)" font-size="12" font-family="Verdana, Sans-Serif">REF</text>
        </g>
        <desc>Width:60 Height:170 Depth:60 Elevation:0</desc>
    </g><g class="FixedFurniture Shower" fill="#ffffff" stroke="#000000" transform="matrix(0,1,-1,0,1009.18,1170.848)" style="fill-opacity: 1; stroke-opacity: 1;"> 
	    <g class="BoundaryPolygon" fill="none" stroke="none">
            <polygon points="0,0 32,0 32,19 0,19"/>
        </g>
        <g class="InnerPolygon"> 
			<rect x="3.7" y="0.5" width="11.2" height="6.1"/>
			<rect x="17.6" y="0.5" width="11.2" height="6.1"/>
			<rect x="28.7" y="0.5" width="3.4" height="6.1"/>
			<rect x="0.5" y="0.5" width="3.2" height="6.1"/>
			<path d="M14.9,8.5c0,1.5-0.4,3.3-1.6,5    c-0.4,0.6-1,1.1-1.1,1.7c-0.2,1.1,0.3,2.8,2.5,3.2c0.5,0.1,1.3,0.1,1.6,0.1h-0.1c0.3,0,1.1,0,1.6-0.1c2.2-0.4,2.7-2.1,2.5-3.2    c-0.1-0.6-0.7-1.1-1.1-1.7c-1.2-1.7-1.6-3.5-1.6-5"/>
			<path d="M12.2,15.3c0.1,0.2,1.6,1.9,4.2,1.9 c2.4-0.1,3.7-1.7,3.9-1.9"/>
			<path d="M14.9,0.5h2.7v8c-0.9,0-1.8,0-2.7,0l0,0 C14.9,5.9,14.9,3.2,14.9,0.5z"/>
		</g>
	    <g class="Indicator"> 
			<path d="M3.7,3.6C5,3.1,5.2,3,5.2,3 c0,1.1,0,0,0,1.1C5.2,4.1,5.1,4.1,3.7,3.6"/>
			<path d="M28.7,3.6 C27.4,3.1,27.2,3,27.2,3c0,1.1,0,0,0,1.1C27.2,4.1,27.3,4.1,28.7,3.6"/>	
		</g>
        <desc>Width:32 Height:97 Depth:19 Elevation:135</desc>
	</g><g transform="matrix(1,0,0,1,811.2499,1303.8264)" class="FixedFurniture BaseCabinet" fill="#ffffff" stroke="#000000" style="fill-opacity: 1; stroke-opacity: 1;"><desc>Width:60 Height:90 Depth:60 Elevation:0</desc><g class="BoundaryPolygon"><polygon points="0.00,0.00 0.00,60.06 137.74,60.06 137.58,262.95 197.75,262.95 197.75,0.21 0.00,0.00 "/></g></g><g class="FixedFurniture DoubleSink" fill="#ffffff" stroke="#000000" transform="matrix(1,0,0,1,865.3002,1306.5509)" style="fill-opacity: 1; stroke-opacity: 1;">
        <g class="BoundaryPolygon" fill="none" stroke="none">
            <polygon points="0.00,0.00 67.51,0.00 67.51,53.17 0.00,53.17 "/>
        </g>
        <g class="InnerPolygonLeft">
            <polygon points="4.82,9.90 32.31,9.90 32.31,48.65 4.82,48.65 "/>
        </g>
        <g class="InnerPolygonRight">
            <polygon points="35.20,10.00 62.69,10.00 62.69,48.74 35.20,48.74 "/>
        </g>
        <g class="OuterDrain" stroke-width="0.8">
            <circle cx="18.999964324296126" cy="28.802459388860118" r="3.5"/>
            <circle cx="48.41615274516071" cy="28.802459388860118" r="3.5"/>
        </g>
        <g class="InnerDrain" stroke-width="0.8">
            <circle cx="18.999964324296126" cy="28.802459388860118" r="2"/>
            <circle cx="48.41615274516071" cy="28.802459388860118" r="2"/>
        </g>
        <g class="Faucet">
            <polygon points="30.86,4.34 36.86,4.34 36.86,18.34 30.86,18.34 "/>
        </g>
        <g class="Direction" fill-opacity="0.9" style="display: none;">
            <polygon points="35.21,48.47 35.21,37.86 32.20,37.86 32.20,48.47 28.40,48.47 33.70,53.78 39.01,48.47 35.21,48.47 " fill="#444444"/>
        </g> 
        <g class="Name" fill-opacity="0.9" style="display: none;">
            <text transform="translate(3 12)" font-size="12" font-family="Verdana, Sans-Serif">DSINK</text>
        </g>
        <desc>Width:70 Height:90 Depth:60 Elevation:0</desc>
    </g><g class="FixedFurniture ElectricalAppliance IntegratedStove" fill="#ffffff" stroke="#000000" transform="matrix(0,1,-1,0,1011.0781,1393.8747)" style="fill-opacity: 1; stroke-opacity: 1;">
        <g class="BoundaryPolygon" fill="none" stroke="none">
            <polygon points="0.00,0.00 64.08,0.00 64.08,63.85 0.00,63.85 "/>
        </g>
        <g class="InnerPolygon">
            <polygon points="2.00,2.00 61.95,2.00 61.95,61.72 2.00,61.72 "/>
        </g>
        <g class="OuterCircle">
            <circle cx="17.088890664145367" cy="17.025729349446415" r="8"/>
            <circle cx="46.99444932639977" cy="17.025729349446415" r="8"/>
            <circle cx="17.088890664145367" cy="46.82075571097765" r="8"/>
            <circle cx="46.99444932639977" cy="46.82075571097765" r="8"/>
        </g>
        <g class="Direction" fill-opacity="0.9" style="display: none;">
            <polygon points="34.19,58.74 34.19,48.12 31.18,48.12 31.18,58.74 27.38,58.74 32.68,63.54 37.98,58.74 34.19,58.74 " fill="#444444"/>
        </g> 
        <g class="Name" fill-opacity="0.9" style="display: none;">
            <text transform="translate(3 12)" font-size="12" font-family="Verdana, Sans-Serif">INT_STOVE</text>
        </g>
        <desc>Width:60 Height:90 Depth:30 Elevation:0</desc>
    </g><g transform="matrix(1,0,0,1,811.2499,1303.8264)" style="stroke-opacity: 1; fill-opacity: 0.7;" class="FixedFurniture WallCabinet" fill="#ffffff" stroke="#000000"><desc>Width:60 Height:60 Depth:50 Elevation:140</desc><g class="BoundaryPolygon"><polygon points="0.00,0.00 197.75,0.00 197.75,262.95 168.77,262.95 168.77,31.03 0.17,31.03 0.00,0.00 "/></g></g><g id="Wall" fill="#000000" stroke="#000000" style="fill-opacity: 1; stroke-opacity: 1; stroke-width: 0.2;" class="Wall"><polygon points="649.44,1641.57 649.44,1465.40 627.44,1475.40 627.44,1641.57 "/></g><g id="Wall" fill="#000000" stroke="#000000" style="fill-opacity: 1; stroke-opacity: 1; stroke-width: 0.2;" class="Wall"><polygon points="809.94,1303.76 809.94,1195.85 818.94,1204.85 818.94,1294.76 "/></g><g id="Wall" fill="#000000" stroke="#000000" style="fill-opacity: 1; stroke-opacity: 1; stroke-width: 0.2;" class="Wall"><polygon points="809.94,1195.85 843.06,1195.85 852.06,1204.85 818.94,1204.85 "/></g><g id="Wall" fill="#000000" stroke="#000000" style="fill-opacity: 1; stroke-opacity: 1; stroke-width: 0.2;" class="Wall"><polygon points="852.06,1204.85 852.06,1075.42 843.06,1075.42 843.06,1195.85 "/><g id="Door" fill="#ffffff" stroke="#000000" style="fill-opacity: 1; stroke-width: 1; stroke-opacity: 1;" class="Door Swing Beside"><polygon points="852.06,1156.12 852.06,1095.49 843.06,1095.49 843.06,1156.12 "/><g id="Threshold" class="Threshold"><polygon points="852.06,1156.12 852.06,1095.49 843.06,1095.49 843.06,1156.12 "/></g><g id="Panel" fill="none" style="" class="Panel Left Positive"><g id="PanelArea" fill="none" stroke="none" style="" class="PanelArea"><polygon points="852.06,1156.12 852.06,1095.49 843.06,1095.49 843.06,1156.12 "/></g><path d="M843.06,1095.49 q-60.63,0.00 -60.63,60.63 l60.63,0.00Z"/></g></g></g><g id="Wall" fill="#000000" stroke="#000000" style="fill-opacity: 1; stroke-opacity: 1; stroke-width: 0.2;" class="Wall"><polygon points="887.52,1303.76 887.52,1228.50 897.30,1223.86 897.30,1303.76 "/></g><g id="Wall" fill="#000000" stroke="#000000" style="fill-opacity: 1; stroke-opacity: 1; stroke-width: 0.2;" class="Wall"><polygon points="887.52,1228.50 842.46,1201.53 847.08,1193.81 897.30,1223.86 "/><g id="Door" fill="#ffffff" stroke="#000000" style="fill-opacity: 1; stroke-width: 1; stroke-opacity: 1;" class="Door Swing Beside"><polygon points="886.36,1227.81 852.93,1207.79 857.55,1200.07 890.99,1220.09 "/><g id="Threshold" class="Threshold"><polygon points="886.36,1227.81 852.93,1207.79 857.55,1200.07 890.99,1220.09 "/></g><g id="Panel" fill="none" style="" class="Panel Right Positive"><g id="PanelArea" fill="none" stroke="none" style="" class="PanelArea"><polygon points="886.36,1227.81 852.93,1207.79 857.55,1200.07 890.99,1220.09 "/></g><path d="M890.99,1220.09 q20.02,-33.44 -13.42,-53.45 l-20.02,33.44Z"/></g></g></g><g class="FixedFurniture Toilet" fill="#ffffff" stroke="#000000" transform="matrix(1,0,0,1,936.4271,1085.42)" style="fill-opacity: 1; stroke-opacity: 1;">
	   <g class="BoundaryPolygon" fill="none" stroke="none"> 
            <polygon points="0,0 41,0 41,71 0,71"/>
		</g>
        <g class="InnerPolygon">
            <rect x="0.502" y="0.5" width="39.989" height="17.98"/>
            <path d="M40.491,44.237S41.619,70.5,20.907,70.5C-.523,70.5.6,44.237.6,44.237L.5,18.48H40.491Z"/>
            <rect x="17.318" y="7.975" width="6.357" height="3.03"/>
        </g>
        <desc>Width:41 Height:85 Depth:71 Elevation:0</desc>
    </g><g class="FixedFurniture ElectricalAppliance WashingMachine" fill="#ffffff" stroke="#000000" transform="matrix(0,1,-1,0,1009.1019,1234.76)" style="fill-opacity: 1; stroke-opacity: 1;">
	   <g class="BoundaryPolygon">
		    <polygon points="0,0 60,0 60,60 0,60"/>
		</g>	
	    <g class="electricitySign" fill="none">
            <path d="M0,0,30,41V20.8L60,60"/>
		</g>
	    <g class="Handle">
		    <path d="M2.7,59.4H57.3"/>
		</g>
        <g class="Direction" fill-opacity="0.9" style="display: none;">
            <polygon points="32.009 55.197 32.009 44.581 29 44.581 29 55.197 25.197 55.197 30.5 60 35.803 55.197 32.009 55.197" fill="#444444"/>
        </g> 
        <g class="Name" fill-opacity="0.9" style="display: none;">
            <text transform="translate(3 12)" font-size="12" font-family="Verdana, Sans-Serif">WM</text>
        </g>
        <desc>Width:60 Height:90 Depth:60 Elevation:0</desc>
    </g><g id="FixedFurnitureSet" transform="matrix(0,1,-1,0,809.9408,1196.2091)" class="FixedFurnitureSet" fill="#ffffff" stroke="#000000" style="fill-opacity: 0.4; stroke-opacity: 0.4;"><g class="FixedFurniture Closet" fill="#ffffff" stroke="#000000" transform="matrix(1,0,0,1,0,0)" style="fill-opacity: 1; stroke-opacity: 1;">
        <g class="BoundaryPolygon">
            <polygon points="0.00,0.00 53.81,0.00 53.81,52.13 0.00,52.13 "/>
        </g>
        <g class="Direction" fill-opacity="0.9" style="display: none;">
            <polygon points="28.26,47.52 28.26,36.90 25.25,36.90 25.25,47.52 21.44,47.52 26.75,52.82 32.05,47.52 28.26,47.52 " fill="#444444"/>
        </g> 
        <g class="Name" fill-opacity="0.9" style="display: none;">
            <text transform="translate(3 12)" font-size="12" font-family="Verdana, Sans-Serif">CL</text>
        </g>
        <desc>Width:60 Height:200 Depth:60 Elevation:0</desc>
    </g><g class="FixedFurniture Closet" fill="#ffffff" stroke="#000000" transform="matrix(1,0,0,1,53.8073,0)" style="fill-opacity: 1; stroke-opacity: 1;">
        <g class="BoundaryPolygon">
            <polygon points="0.00,0.00 53.81,0.00 53.81,52.13 0.00,52.13 "/>
        </g>
        <g class="Direction" fill-opacity="0.9" style="display: none;">
            <polygon points="28.26,47.52 28.26,36.90 25.25,36.90 25.25,47.52 21.44,47.52 26.75,52.82 32.05,47.52 28.26,47.52 " fill="#444444"/>
        </g> 
        <g class="Name" fill-opacity="0.9" style="display: none;">
            <text transform="translate(3 12)" font-size="12" font-family="Verdana, Sans-Serif">CL</text>
        </g>
        <desc>Width:60 Height:200 Depth:60 Elevation:0</desc>
     </g></g><g fill="#0000ff" stroke="#0000ff" style="display: none;" class="SelectionControls"><g style="display: none;" class="rotateControl"><circle cx="851.7734237541983" cy="1199.1724760837606" r="5" style="stroke : none; fill-opacity: 0.5; cursor:crosshair"/></g><g style="display: none;" class="ResizeNControl"><circle cx="0" cy="0" r="5" style="stroke : none; fill-opacity: 0.5"/></g><g style="display: none;" class="ResizeNEControl"><circle cx="0" cy="0" r="5" style="stroke : none; fill-opacity: 0.5"/></g><g style="display: none;" class="ResizeEControl"><circle cx="0" cy="0" r="5" style="stroke : none; fill-opacity: 0.5"/></g><g style="display: none;" class="ResizeSEControl"><circle cx="0" cy="0" r="5" style="stroke : none; fill-opacity: 0.5"/></g><g style="display: none;" class="ResizeSControl"><circle cx="0" cy="0" r="5" style="stroke : none; fill-opacity: 0.5"/></g><g style="display: none;" class="ResizeSWControl"><circle cx="0" cy="0" r="5" style="stroke : none; fill-opacity: 0.5"/></g><g style="display: none;" class="ResizeWControl"><circle cx="0" cy="0" r="5" style="stroke : none; fill-opacity: 0.5"/></g><g style="display: none;" class="ResizeNWControl"><circle cx="0" cy="0" r="5" style="stroke : none; fill-opacity: 0.5"/></g><g style="display: none;" class="removeControl"><polygon style="stroke : none; fill-opacity: 0.1" points="840.50,1229.17 863.05,1229.17 863.05,1268.95 840.50,1268.95 "/></g><g style="display: none;" class="copyPasteControl"><polygon style="stroke : none; fill-opacity: 0.1"/></g><g style="display: none;" class="translateControl"><polygon style="stroke : none; fill-opacity: 0.1; cursor:move" points="840.50,1229.17 863.05,1229.17 863.05,1268.95 840.50,1268.95 "/></g></g><g fill="#0000ff" stroke="#0000ff" style="display: none;" class="SelectionControls"><polygon fill="none" stroke="#0000ff" style="" points="818.94,1206.94 887.52,1206.94 887.52,1296.85 818.94,1296.85 "/><g style="display: none;" class="rotateControl"><circle cx="853.2279879998038" cy="1176.9432260837605" r="5" style="stroke : none; fill-opacity: 0.5; cursor:crosshair"/></g><g style="display: none;" class="ResizeNControl"><circle cx="0" cy="0" r="5" style="stroke : none; fill-opacity: 0.5"/></g><g style="display: none;" class="ResizeNEControl"><circle cx="0" cy="0" r="5" style="stroke : none; fill-opacity: 0.5"/></g><g style="display: none;" class="ResizeEControl"><circle cx="0" cy="0" r="5" style="stroke : none; fill-opacity: 0.5"/></g><g style="display: none;" class="ResizeSEControl"><circle cx="0" cy="0" r="5" style="stroke : none; fill-opacity: 0.5"/></g><g style="display: none;" class="ResizeSControl"><circle cx="0" cy="0" r="5" style="stroke : none; fill-opacity: 0.5"/></g><g style="display: none;" class="ResizeSWControl"><circle cx="0" cy="0" r="5" style="stroke : none; fill-opacity: 0.5"/></g><g style="display: none;" class="ResizeWControl"><circle cx="0" cy="0" r="5" style="stroke : none; fill-opacity: 0.5"/></g><g style="display: none;" class="ResizeNWControl"><circle cx="0" cy="0" r="5" style="stroke : none; fill-opacity: 0.5"/></g><g style="display: none;" class="removeControl"><polygon style="stroke : none; fill-opacity: 0.1"/></g><g style="display: none;" class="copyPasteControl"><polygon style="stroke : none; fill-opacity: 0.1"/></g><g style="display: none;" class="translateControl"><polygon style="stroke : none; fill-opacity: 0.1; cursor:move"/></g></g></g></g></g></svg>
