  0
SECTION
  2
HEADER
  9
$ACADVER
  1
AC1009
  9
$FILLMODE
 70
 0
  9
$SPLFRAME
 70
 1
  9
$EXTMIN
 10
0
 20
0
 30
0.0
  9
$EXTMAX
 10
41.6667
 20
41.6667
 30
0.0
  0
ENDSEC
  0
SECTION
  2
TABLES
  0
TABLE
  2
LAYER
 70
1
  0
LAYER
  2
0
 70
     0
 62
     7
  6
CONTINUOUS
  0
ENDTAB
  0
ENDSEC
  0
SECTION
  2
ENTITIES
  0
POLYLINE
  8
0
 62
     7
 66
     1
 10
0
 20
0
 30
0.0
 70
     1
 40
0
 41
0
  0
VERTEX
  8
0
 10
2.93614
 20
2.56814
 30
0.0
 40
0
 41
0
  0
VERTEX
  8
0
 10
4.632
 20
2.56814
 30
0.0
 40
0
 41
0
  0
VERTEX
  8
0
 10
4.632
 20
1.25939
 30
0.0
 40
0
 41
0
  0
VERTEX
  8
0
 10
2.93614
 20
1.25939
 30
0.0
 40
0
 41
0
  0
VERTEX
  8
0
 10
2.93614
 20
2.56814
 30
0.0
 40
0
 41
0
  0
SEQEND
 8
0
  0
POLYLINE
  8
0
 62
     7
 66
     1
 10
0
 20
0
 30
0.0
 70
     1
 40
0.15
 41
0.15
  0
VERTEX
  8
0
 10
2.93614
 20
2.56814
 30
0.0
 40
0.00208333
 41
0.00208333
  0
VERTEX
  8
0
 10
4.632
 20
2.56814
 30
0.0
 40
0.00208333
 41
0.00208333
  0
VERTEX
  8
0
 10
4.632
 20
1.25939
 30
0.0
 40
0.00208333
 41
0.00208333
  0
VERTEX
  8
0
 10
2.93614
 20
1.25939
 30
0.0
 40
0.00208333
 41
0.00208333
  0
VERTEX
  8
0
 10
2.93614
 20
2.56814
 30
0.0
 40
0.00208333
 41
0.00208333
  0
SEQEND
 8
0
  0
TEXT
  8
0
 62
     0
 10
3.62335
 20
1.40597
 30
0.0
 40
0.34375
  1
TK
 50
0
  0
POLYLINE
  8
0
 62
     7
 66
     1
 10
0
 20
0
 30
0.0
 70
     1
 40
0
 41
0
  0
VERTEX
  8
0
 10
2.81168
 20
1.25939
 30
0.0
 40
0
 41
0
  0
VERTEX
  8
0
 10
1.10541
 20
1.25939
 30
0.0
 40
0
 41
0
  0
VERTEX
  8
0
 10
1.10742
 20
2.77908
 30
0.0
 40
0
 41
0
  0
VERTEX
  8
0
 10
1.03451
 20
2.77919
 30
0.0
 40
0
 41
0
  0
VERTEX
  8
0
 10
2.81168
 20
2.77919
 30
0.0
 40
0
 41
0
  0
VERTEX
  8
0
 10
2.81168
 20
1.25939
 30
0.0
 40
0
 41
0
  0
SEQEND
 8
0
  0
POLYLINE
  8
0
 62
     7
 66
     1
 10
0
 20
0
 30
0.0
 70
     1
 40
0.15
 41
0.15
  0
VERTEX
  8
0
 10
2.81168
 20
1.25939
 30
0.0
 40
0.00208333
 41
0.00208333
  0
VERTEX
  8
0
 10
1.10541
 20
1.25939
 30
0.0
 40
0.00208333
 41
0.00208333
  0
VERTEX
  8
0
 10
1.10742
 20
2.77908
 30
0.0
 40
0.00208333
 41
0.00208333
  0
VERTEX
  8
0
 10
1.03451
 20
2.77919
 30
0.0
 40
0.00208333
 41
0.00208333
  0
VERTEX
  8
0
 10
2.81168
 20
2.77919
 30
0.0
 40
0.00208333
 41
0.00208333
  0
VERTEX
  8
0
 10
2.81168
 20
1.25939
 30
0.0
 40
0.00208333
 41
0.00208333
  0
SEQEND
 8
0
  0
TEXT
  8
0
 62
     0
 10
1.95903
 20
2.01918
 30
0.0
 40
0.34375
  1
UNDEFINED
 50
0
  0
POLYLINE
  8
0
 62
     7
 66
     1
 10
0
 20
0
 30
0.0
 70
     1
 40
0
 41
0
  0
VERTEX
  8
0
 10
1.03782
 20
4.86524
 30
0.0
 40
0
 41
0
  0
VERTEX
  8
0
 10
1.67415
 20
4.86524
 30
0.0
 40
0
 41
0
  0
VERTEX
  8
0
 10
1.67415
 20
5.07889
 30
0.0
 40
0
 41
0
  0
VERTEX
  8
0
 10
2.81168
 20
5.07889
 30
0.0
 40
0
 41
0
  0
VERTEX
  8
0
 10
2.81168
 20
2.90419
 30
0.0
 40
0
 41
0
  0
VERTEX
  8
0
 10
1.0325
 20
2.90419
 30
0.0
 40
0
 41
0
  0
VERTEX
  8
0
 10
1.03782
 20
5.31315
 30
0.0
 40
0
 41
0
  0
VERTEX
  8
0
 10
1.03782
 20
4.86524
 30
0.0
 40
0
 41
0
  0
SEQEND
 8
0
  0
POLYLINE
  8
0
 62
     7
 66
     1
 10
0
 20
0
 30
0.0
 70
     1
 40
0.15
 41
0.15
  0
VERTEX
  8
0
 10
1.03782
 20
4.86524
 30
0.0
 40
0.00208333
 41
0.00208333
  0
VERTEX
  8
0
 10
1.67415
 20
4.86524
 30
0.0
 40
0.00208333
 41
0.00208333
  0
VERTEX
  8
0
 10
1.67415
 20
5.07889
 30
0.0
 40
0.00208333
 41
0.00208333
  0
VERTEX
  8
0
 10
2.81168
 20
5.07889
 30
0.0
 40
0.00208333
 41
0.00208333
  0
VERTEX
  8
0
 10
2.81168
 20
2.90419
 30
0.0
 40
0.00208333
 41
0.00208333
  0
VERTEX
  8
0
 10
1.0325
 20
2.90419
 30
0.0
 40
0.00208333
 41
0.00208333
  0
VERTEX
  8
0
 10
1.03782
 20
5.31315
 30
0.0
 40
0.00208333
 41
0.00208333
  0
VERTEX
  8
0
 10
1.03782
 20
4.86524
 30
0.0
 40
0.00208333
 41
0.00208333
  0
SEQEND
 8
0
  0
TEXT
  8
0
 62
     0
 10
1.84546
 20
3.91
 30
0.0
 40
0.34375
  1
PH
 50
0
  0
POLYLINE
  8
0
 62
     7
 66
     1
 10
0
 20
0
 30
0.0
 70
     1
 40
0
 41
0
  0
VERTEX
  8
0
 10
3.45811
 20
8.43767
 30
0.0
 40
0
 41
0
  0
VERTEX
  8
0
 10
3.56228
 20
8.43767
 30
0.0
 40
0
 41
0
  0
VERTEX
  8
0
 10
3.56228
 20
6.16162
 30
0.0
 40
0
 41
0
  0
VERTEX
  8
0
 10
3.45811
 20
6.16162
 30
0.0
 40
0
 41
0
  0
VERTEX
  8
0
 10
3.45811
 20
8.43767
 30
0.0
 40
0
 41
0
  0
SEQEND
 8
0
  0
POLYLINE
  8
0
 62
     7
 66
     1
 10
0
 20
0
 30
0.0
 70
     1
 40
0.15
 41
0.15
  0
VERTEX
  8
0
 10
3.45811
 20
8.43767
 30
0.0
 40
0.00208333
 41
0.00208333
  0
VERTEX
  8
0
 10
3.56228
 20
8.43767
 30
0.0
 40
0.00208333
 41
0.00208333
  0
VERTEX
  8
0
 10
3.56228
 20
6.16162
 30
0.0
 40
0.00208333
 41
0.00208333
  0
VERTEX
  8
0
 10
3.45811
 20
6.16162
 30
0.0
 40
0.00208333
 41
0.00208333
  0
VERTEX
  8
0
 10
3.45811
 20
8.43767
 30
0.0
 40
0.00208333
 41
0.00208333
  0
SEQEND
 8
0
  0
TEXT
  8
0
 62
     0
 10
3.51024
 20
8.3856
 30
0.0
 40
0.34375
  1
UNDEFINED
 50
0
  0
POLYLINE
  8
0
 62
     7
 66
     1
 10
0
 20
0
 30
0.0
 70
     1
 40
0
 41
0
  0
VERTEX
  8
0
 10
4.632
 20
2.66189
 30
0.0
 40
0
 41
0
  0
VERTEX
  8
0
 10
2.93614
 20
2.66189
 30
0.0
 40
0
 41
0
  0
VERTEX
  8
0
 10
2.93614
 20
5.07889
 30
0.0
 40
0
 41
0
  0
VERTEX
  8
0
 10
3.54617
 20
5.07889
 30
0.0
 40
0
 41
0
  0
VERTEX
  8
0
 10
3.54617
 20
5.19179
 30
0.0
 40
0
 41
0
  0
VERTEX
  8
0
 10
3.56261
 20
5.19179
 30
0.0
 40
0
 41
0
  0
VERTEX
  8
0
 10
3.56261
 20
6.67649
 30
0.0
 40
0
 41
0
  0
VERTEX
  8
0
 10
4.632
 20
6.67649
 30
0.0
 40
0
 41
0
  0
VERTEX
  8
0
 10
4.632
 20
2.66189
 30
0.0
 40
0
 41
0
  0
SEQEND
 8
0
  0
POLYLINE
  8
0
 62
     7
 66
     1
 10
0
 20
0
 30
0.0
 70
     1
 40
0.15
 41
0.15
  0
VERTEX
  8
0
 10
4.632
 20
2.66189
 30
0.0
 40
0.00208333
 41
0.00208333
  0
VERTEX
  8
0
 10
2.93614
 20
2.66189
 30
0.0
 40
0.00208333
 41
0.00208333
  0
VERTEX
  8
0
 10
2.93614
 20
5.07889
 30
0.0
 40
0.00208333
 41
0.00208333
  0
VERTEX
  8
0
 10
3.54617
 20
5.07889
 30
0.0
 40
0.00208333
 41
0.00208333
  0
VERTEX
  8
0
 10
3.54617
 20
5.19179
 30
0.0
 40
0.00208333
 41
0.00208333
  0
VERTEX
  8
0
 10
3.56261
 20
5.19179
 30
0.0
 40
0.00208333
 41
0.00208333
  0
VERTEX
  8
0
 10
3.56261
 20
6.67649
 30
0.0
 40
0.00208333
 41
0.00208333
  0
VERTEX
  8
0
 10
4.632
 20
6.67649
 30
0.0
 40
0.00208333
 41
0.00208333
  0
VERTEX
  8
0
 10
4.632
 20
2.66189
 30
0.0
 40
0.00208333
 41
0.00208333
  0
SEQEND
 8
0
  0
TEXT
  8
0
 62
     0
 10
3.84965
 20
4.20461
 30
0.0
 40
0.34375
  1
ET
 50
0
  0
POLYLINE
  8
0
 62
     7
 66
     1
 10
0
 20
0
 30
0.0
 70
     1
 40
0
 41
0
  0
VERTEX
  8
0
 10
3.56228
 20
8.43767
 30
0.0
 40
0
 41
0
  0
VERTEX
  8
0
 10
3.56228
 20
6.67649
 30
0.0
 40
0
 41
0
  0
VERTEX
  8
0
 10
3.56261
 20
6.67649
 30
0.0
 40
0
 41
0
  0
VERTEX
  8
0
 10
3.56261
 20
5.19179
 30
0.0
 40
0
 41
0
  0
VERTEX
  8
0
 10
3.54617
 20
5.19179
 30
0.0
 40
0
 41
0
  0
VERTEX
  8
0
 10
3.54617
 20
5.20389
 30
0.0
 40
0
 41
0
  0
VERTEX
  8
0
 10
1.67415
 20
5.20389
 30
0.0
 40
0
 41
0
  0
VERTEX
  8
0
 10
1.67415
 20
5.31315
 30
0.0
 40
0
 41
0
  0
VERTEX
  8
0
 10
1.04291
 20
5.31315
 30
0.0
 40
0
 41
0
  0
VERTEX
  8
0
 10
1.04167
 20
8.44097
 30
0.0
 40
0
 41
0
  0
VERTEX
  8
0
 10
3.56228
 20
8.43767
 30
0.0
 40
0
 41
0
  0
SEQEND
 8
0
  0
POLYLINE
  8
0
 62
     7
 66
     1
 10
0
 20
0
 30
0.0
 70
     1
 40
0.15
 41
0.15
  0
VERTEX
  8
0
 10
3.56228
 20
8.43767
 30
0.0
 40
0.00208333
 41
0.00208333
  0
VERTEX
  8
0
 10
3.56228
 20
6.67649
 30
0.0
 40
0.00208333
 41
0.00208333
  0
VERTEX
  8
0
 10
3.56261
 20
6.67649
 30
0.0
 40
0.00208333
 41
0.00208333
  0
VERTEX
  8
0
 10
3.56261
 20
5.19179
 30
0.0
 40
0.00208333
 41
0.00208333
  0
VERTEX
  8
0
 10
3.54617
 20
5.19179
 30
0.0
 40
0.00208333
 41
0.00208333
  0
VERTEX
  8
0
 10
3.54617
 20
5.20389
 30
0.0
 40
0.00208333
 41
0.00208333
  0
VERTEX
  8
0
 10
1.67415
 20
5.20389
 30
0.0
 40
0.00208333
 41
0.00208333
  0
VERTEX
  8
0
 10
1.67415
 20
5.31315
 30
0.0
 40
0.00208333
 41
0.00208333
  0
VERTEX
  8
0
 10
1.04291
 20
5.31315
 30
0.0
 40
0.00208333
 41
0.00208333
  0
VERTEX
  8
0
 10
1.04167
 20
8.44097
 30
0.0
 40
0.00208333
 41
0.00208333
  0
VERTEX
  8
0
 10
3.56228
 20
8.43767
 30
0.0
 40
0.00208333
 41
0.00208333
  0
SEQEND
 8
0
  0
TEXT
  8
0
 62
     0
 10
2.16858
 20
6.78419
 30
0.0
 40
0.34375
  1
K
 50
0
  0
POLYLINE
  8
0
 62
     7
 66
     1
 10
0
 20
0
 30
0.0
 70
     1
 40
0
 41
0
  0
VERTEX
  8
0
 10
7.3851
 20
6.6811
 30
0.0
 40
0
 41
0
  0
VERTEX
  8
0
 10
4.632
 20
6.6811
 30
0.0
 40
0
 41
0
  0
VERTEX
  8
0
 10
4.632
 20
6.67649
 30
0.0
 40
0
 41
0
  0
VERTEX
  8
0
 10
3.56228
 20
6.67649
 30
0.0
 40
0
 41
0
  0
VERTEX
  8
0
 10
3.56228
 20
11.0512
 30
0.0
 40
0
 41
0
  0
VERTEX
  8
0
 10
7.3851
 20
11.0512
 30
0.0
 40
0
 41
0
  0
VERTEX
  8
0
 10
7.3851
 20
6.6811
 30
0.0
 40
0
 41
0
  0
SEQEND
 8
0
  0
POLYLINE
  8
0
 62
     7
 66
     1
 10
0
 20
0
 30
0.0
 70
     1
 40
0.15
 41
0.15
  0
VERTEX
  8
0
 10
7.3851
 20
6.6811
 30
0.0
 40
0.00208333
 41
0.00208333
  0
VERTEX
  8
0
 10
4.632
 20
6.6811
 30
0.0
 40
0.00208333
 41
0.00208333
  0
VERTEX
  8
0
 10
4.632
 20
6.67649
 30
0.0
 40
0.00208333
 41
0.00208333
  0
VERTEX
  8
0
 10
3.56228
 20
6.67649
 30
0.0
 40
0.00208333
 41
0.00208333
  0
VERTEX
  8
0
 10
3.56228
 20
11.0512
 30
0.0
 40
0.00208333
 41
0.00208333
  0
VERTEX
  8
0
 10
7.3851
 20
11.0512
 30
0.0
 40
0.00208333
 41
0.00208333
  0
VERTEX
  8
0
 10
7.3851
 20
6.6811
 30
0.0
 40
0.00208333
 41
0.00208333
  0
SEQEND
 8
0
  0
TEXT
  8
0
 62
     0
 10
5.21292
 20
8.85593
 30
0.0
 40
0.34375
  1
OH
 50
0
  0
POLYLINE
  8
0
 62
     7
 66
     1
 10
0
 20
0
 30
0.0
 70
     1
 40
0
 41
0
  0
VERTEX
  8
0
 10
3.56228
 20
8.43767
 30
0.0
 40
0
 41
0
  0
VERTEX
  8
0
 10
1.04167
 20
8.44097
 30
0.0
 40
0
 41
0
  0
VERTEX
  8
0
 10
1.04541
 20
11.0512
 30
0.0
 40
0
 41
0
  0
VERTEX
  8
0
 10
3.56228
 20
11.0512
 30
0.0
 40
0
 41
0
  0
VERTEX
  8
0
 10
3.56228
 20
8.43767
 30
0.0
 40
0
 41
0
  0
SEQEND
 8
0
  0
POLYLINE
  8
0
 62
     7
 66
     1
 10
0
 20
0
 30
0.0
 70
     1
 40
0.15
 41
0.15
  0
VERTEX
  8
0
 10
3.56228
 20
8.43767
 30
0.0
 40
0.00208333
 41
0.00208333
  0
VERTEX
  8
0
 10
1.04167
 20
8.44097
 30
0.0
 40
0.00208333
 41
0.00208333
  0
VERTEX
  8
0
 10
1.04541
 20
11.0512
 30
0.0
 40
0.00208333
 41
0.00208333
  0
VERTEX
  8
0
 10
3.56228
 20
11.0512
 30
0.0
 40
0.00208333
 41
0.00208333
  0
VERTEX
  8
0
 10
3.56228
 20
8.43767
 30
0.0
 40
0.00208333
 41
0.00208333
  0
SEQEND
 8
0
  0
TEXT
  8
0
 62
     0
 10
1.42872
 20
9.80628
 30
0.0
 40
0.34375
  1
UNDEFINED
 50
0
  0
POLYLINE
  8
0
 62
     7
 66
     1
 10
0
 20
0
 30
0.0
 70
     1
 40
0
 41
0
  0
VERTEX
  8
0
 10
3.47342
 20
12.7984
 30
0.0
 40
0
 41
0
  0
VERTEX
  8
0
 10
6.86649
 20
12.7984
 30
0.0
 40
0
 41
0
  0
VERTEX
  8
0
 10
6.86649
 20
11.3637
 30
0.0
 40
0
 41
0
  0
VERTEX
  8
0
 10
3.47342
 20
11.3637
 30
0.0
 40
0
 41
0
  0
VERTEX
  8
0
 10
3.47342
 20
12.7984
 30
0.0
 40
0
 41
0
  0
SEQEND
 8
0
  0
POLYLINE
  8
0
 62
     0
 66
     1
 10
0
 20
0
 30
0.0
 70
     1
 40
0.15
 41
0.15
  0
VERTEX
  8
0
 10
3.47342
 20
12.7984
 30
0.0
 40
0.00208333
 41
0.00208333
  0
VERTEX
  8
0
 10
6.86649
 20
12.7984
 30
0.0
 40
0.00208333
 41
0.00208333
  0
VERTEX
  8
0
 10
6.86649
 20
11.3637
 30
0.0
 40
0.00208333
 41
0.00208333
  0
VERTEX
  8
0
 10
3.47342
 20
11.3637
 30
0.0
 40
0.00208333
 41
0.00208333
  0
VERTEX
  8
0
 10
3.47342
 20
12.7984
 30
0.0
 40
0.00208333
 41
0.00208333
  0
SEQEND
 8
0
  0
TEXT
  8
0
 62
     0
 10
4.43842
 20
11.9241
 30
0.0
 40
0.34375
  1
P
 50
0
  0
TEXT
  8
0
 62
     0
 10
4.63742
 20
11.9241
 30
0.0
 40
0.34375
  1
ARVEKE
 50
0
  0
POLYLINE
  8
0
 62
     7
 66
     1
 10
0
 20
0
 30
0.0
 70
     1
 40
0
 41
0
  0
VERTEX
  8
0
 10
4.632
 20
5.06586
 30
0.0
 40
0
 41
0
  0
VERTEX
  8
0
 10
7.6976
 20
5.06586
 30
0.0
 40
0
 41
0
  0
VERTEX
  8
0
 10
7.6976
 20
0.942437
 30
0.0
 40
0
 41
0
  0
VERTEX
  8
0
 10
4.76742
 20
0.926053
 30
0.0
 40
0
 41
0
  0
VERTEX
  8
0
 10
4.632
 20
5.06586
 30
0.0
 40
0
 41
0
  0
SEQEND
 8
0
  0
POLYLINE
  8
0
 62
     7
 66
     1
 10
0
 20
0
 30
0.0
 70
     1
 40
0.15
 41
0.15
  0
VERTEX
  8
0
 10
4.632
 20
5.06586
 30
0.0
 40
0.00208333
 41
0.00208333
  0
VERTEX
  8
0
 10
7.6976
 20
5.06586
 30
0.0
 40
0.00208333
 41
0.00208333
  0
VERTEX
  8
0
 10
7.6976
 20
0.942437
 30
0.0
 40
0.00208333
 41
0.00208333
  0
VERTEX
  8
0
 10
4.76742
 20
0.926053
 30
0.0
 40
0.00208333
 41
0.00208333
  0
VERTEX
  8
0
 10
4.632
 20
5.06586
 30
0.0
 40
0.00208333
 41
0.00208333
  0
SEQEND
 8
0
  0
TEXT
  8
0
 62
     0
 10
5.69922
 20
2.9429
 30
0.0
 40
0.34375
  1
MH
 50
0
  0
POLYLINE
  8
0
 62
     7
 66
     1
 10
0
 20
0
 30
0.0
 70
     1
 40
0
 41
0
  0
VERTEX
  8
0
 10
7.58333
 20
5.18044
 30
0.0
 40
0
 41
0
  0
VERTEX
  8
0
 10
6.03125
 20
5.18056
 30
0.0
 40
0
 41
0
  0
VERTEX
  8
0
 10
6.04313
 20
6.54568
 30
0.0
 40
0
 41
0
  0
VERTEX
  8
0
 10
7.57758
 20
6.54568
 30
0.0
 40
0
 41
0
  0
VERTEX
  8
0
 10
7.58333
 20
5.18044
 30
0.0
 40
0
 41
0
  0
SEQEND
 8
0
  0
POLYLINE
  8
0
 62
     7
 66
     1
 10
0
 20
0
 30
0.0
 70
     1
 40
0.15
 41
0.15
  0
VERTEX
  8
0
 10
7.58333
 20
5.18044
 30
0.0
 40
0.00208333
 41
0.00208333
  0
VERTEX
  8
0
 10
6.03125
 20
5.18056
 30
0.0
 40
0.00208333
 41
0.00208333
  0
VERTEX
  8
0
 10
6.04313
 20
6.54568
 30
0.0
 40
0.00208333
 41
0.00208333
  0
VERTEX
  8
0
 10
7.57758
 20
6.54568
 30
0.0
 40
0.00208333
 41
0.00208333
  0
VERTEX
  8
0
 10
7.58333
 20
5.18044
 30
0.0
 40
0.00208333
 41
0.00208333
  0
SEQEND
 8
0
  0
TEXT
  8
0
 62
     0
 10
6.59503
 20
5.40354
 30
0.0
 40
0.34375
  1
VH
 50
0
  0
POLYLINE
  8
0
 62
     7
 66
     1
 10
0
 20
0
 30
0.0
 70
     1
 40
0
 41
0
  0
VERTEX
  8
0
 10
6.04313
 20
6.54568
 30
0.0
 40
0
 41
0
  0
VERTEX
  8
0
 10
6.03125
 20
5.18056
 30
0.0
 40
0
 41
0
  0
VERTEX
  8
0
 10
4.76742
 20
5.18485
 30
0.0
 40
0
 41
0
  0
VERTEX
  8
0
 10
4.76742
 20
6.54568
 30
0.0
 40
0
 41
0
  0
VERTEX
  8
0
 10
6.04313
 20
6.54568
 30
0.0
 40
0
 41
0
  0
SEQEND
 8
0
  0
POLYLINE
  8
0
 62
     7
 66
     1
 10
0
 20
0
 30
0.0
 70
     1
 40
0.15
 41
0.15
  0
VERTEX
  8
0
 10
6.04313
 20
6.54568
 30
0.0
 40
0.00208333
 41
0.00208333
  0
VERTEX
  8
0
 10
6.03125
 20
5.18056
 30
0.0
 40
0.00208333
 41
0.00208333
  0
VERTEX
  8
0
 10
4.76742
 20
5.18485
 30
0.0
 40
0.00208333
 41
0.00208333
  0
VERTEX
  8
0
 10
4.76742
 20
6.54568
 30
0.0
 40
0.00208333
 41
0.00208333
  0
VERTEX
  8
0
 10
6.04313
 20
6.54568
 30
0.0
 40
0.00208333
 41
0.00208333
  0
SEQEND
 8
0
  0
TEXT
  8
0
 62
     0
 10
4.83179
 20
5.70213
 30
0.0
 40
0.34375
  1
WC
 50
0
  0
POLYLINE
  8
0
 62
     0
 66
     1
 10
0
 20
0
 30
0.0
 70
     1
 40
0
 41
0
  0
VERTEX
  8
0
 10
0.722928
 20
11.3637
 30
0.0
 40
0
 41
0
  0
VERTEX
  8
0
 10
7.6976
 20
11.3637
 30
0.0
 40
0
 41
0
  0
VERTEX
  8
0
 10
7.3851
 20
11.0512
 30
0.0
 40
0
 41
0
  0
VERTEX
  8
0
 10
1.04541
 20
11.0512
 30
0.0
 40
0
 41
0
  0
VERTEX
  8
0
 10
0.722928
 20
11.3637
 30
0.0
 40
0
 41
0
  0
SEQEND
 8
0
  0
POLYLINE
  8
0
 62
     0
 66
     1
 10
0
 20
0
 30
0.0
 70
     1
 40
0.15
 41
0.15
  0
VERTEX
  8
0
 10
0.722928
 20
11.3637
 30
0.0
 40
0.00208333
 41
0.00208333
  0
VERTEX
  8
0
 10
7.6976
 20
11.3637
 30
0.0
 40
0.00208333
 41
0.00208333
  0
VERTEX
  8
0
 10
7.3851
 20
11.0512
 30
0.0
 40
0.00208333
 41
0.00208333
  0
VERTEX
  8
0
 10
1.04541
 20
11.0512
 30
0.0
 40
0.00208333
 41
0.00208333
  0
VERTEX
  8
0
 10
0.722928
 20
11.3637
 30
0.0
 40
0.00208333
 41
0.00208333
  0
SEQEND
 8
0
  0
POLYLINE
  8
0
 62
     7
 66
     1
 10
0
 20
0
 30
0.0
 70
     1
 40
0
 41
0
  0
VERTEX
  8
0
 10
3.62283
 20
11.3637
 30
0.0
 40
0
 41
0
  0
VERTEX
  8
0
 10
4.44363
 20
11.3637
 30
0.0
 40
0
 41
0
  0
VERTEX
  8
0
 10
4.44363
 20
11.0512
 30
0.0
 40
0
 41
0
  0
VERTEX
  8
0
 10
3.62283
 20
11.0512
 30
0.0
 40
0
 41
0
  0
VERTEX
  8
0
 10
3.62283
 20
11.3637
 30
0.0
 40
0
 41
0
  0
SEQEND
 8
0
  0
POLYLINE
  8
0
 62
     0
 66
     1
 10
0
 20
0
 30
0.0
 70
     1
 40
0.75
 41
0.75
  0
VERTEX
  8
0
 10
3.62283
 20
11.3637
 30
0.0
 40
0.0104167
 41
0.0104167
  0
VERTEX
  8
0
 10
4.44363
 20
11.3637
 30
0.0
 40
0.0104167
 41
0.0104167
  0
VERTEX
  8
0
 10
4.44363
 20
11.0512
 30
0.0
 40
0.0104167
 41
0.0104167
  0
VERTEX
  8
0
 10
3.62283
 20
11.0512
 30
0.0
 40
0.0104167
 41
0.0104167
  0
VERTEX
  8
0
 10
3.62283
 20
11.3637
 30
0.0
 40
0.0104167
 41
0.0104167
  0
SEQEND
 8
0
  0
POLYLINE
  8
0
 62
     7
 66
     1
 10
0
 20
0
 30
0.0
 70
     1
 40
0
 41
0
  0
VERTEX
  8
0
 10
3.62283
 20
11.3637
 30
0.0
 40
0
 41
0
  0
VERTEX
  8
0
 10
4.44363
 20
11.3637
 30
0.0
 40
0
 41
0
  0
VERTEX
  8
0
 10
4.44363
 20
11.0512
 30
0.0
 40
0
 41
0
  0
VERTEX
  8
0
 10
3.62283
 20
11.0512
 30
0.0
 40
0
 41
0
  0
VERTEX
  8
0
 10
3.62283
 20
11.3637
 30
0.0
 40
0
 41
0
  0
SEQEND
 8
0
  0
POLYLINE
  8
0
 62
     0
 66
     1
 10
0
 20
0
 30
0.0
 70
     1
 40
0.75
 41
0.75
  0
VERTEX
  8
0
 10
3.62283
 20
11.3637
 30
0.0
 40
0.0104167
 41
0.0104167
  0
VERTEX
  8
0
 10
4.44363
 20
11.3637
 30
0.0
 40
0.0104167
 41
0.0104167
  0
VERTEX
  8
0
 10
4.44363
 20
11.0512
 30
0.0
 40
0.0104167
 41
0.0104167
  0
VERTEX
  8
0
 10
3.62283
 20
11.0512
 30
0.0
 40
0.0104167
 41
0.0104167
  0
VERTEX
  8
0
 10
3.62283
 20
11.3637
 30
0.0
 40
0.0104167
 41
0.0104167
  0
SEQEND
 8
0
  0
POLYLINE
  8
0
 62
     0
 66
     1
 10
0
 20
0
 30
0.0
 70
     1
 40
0.75
 41
0.75
  0
VERTEX
  8
0
 10
4.44363
 20
11.3637
 30
0.0
 40
0.0104167
 41
0.0104167
  0
VERTEX
  8
0
 10
4.44363
 20
11.4118
 30
0.0
 40
0.0104167
 41
0.0104167
  0
VERTEX
  8
0
 10
4.43078
 20
11.5561
 30
0.0
 40
0.0104167
 41
0.0104167
  0
VERTEX
  8
0
 10
4.39231
 20
11.7228
 30
0.0
 40
0.0104167
 41
0.0104167
  0
VERTEX
  8
0
 10
4.32818
 20
11.8639
 30
0.0
 40
0.0104167
 41
0.0104167
  0
VERTEX
  8
0
 10
4.23839
 20
11.9793
 30
0.0
 40
0.0104167
 41
0.0104167
  0
VERTEX
  8
0
 10
4.12299
 20
12.0691
 30
0.0
 40
0.0104167
 41
0.0104167
  0
VERTEX
  8
0
 10
3.98188
 20
12.1333
 30
0.0
 40
0.0104167
 41
0.0104167
  0
VERTEX
  8
0
 10
3.81515
 20
12.1717
 30
0.0
 40
0.0104167
 41
0.0104167
  0
VERTEX
  8
0
 10
3.6709
 20
12.1845
 30
0.0
 40
0.0104167
 41
0.0104167
  0
VERTEX
  8
0
 10
3.62283
 20
12.1845
 30
0.0
 40
0.0104167
 41
0.0104167
  0
VERTEX
  8
0
 10
3.62283
 20
11.3637
 30
0.0
 40
0.0104167
 41
0.0104167
  0
VERTEX
  8
0
 10
4.44363
 20
11.3637
 30
0.0
 40
0.0104167
 41
0.0104167
  0
SEQEND
 8
0
  0
POLYLINE
  8
0
 62
     0
 66
     1
 10
0
 20
0
 30
0.0
 70
     1
 40
0.75
 41
0.75
  0
VERTEX
  8
0
 10
4.44363
 20
11.0512
 30
0.0
 40
0.0104167
 41
0.0104167
  0
VERTEX
  8
0
 10
4.44363
 20
11.0031
 30
0.0
 40
0.0104167
 41
0.0104167
  0
VERTEX
  8
0
 10
4.43078
 20
10.8588
 30
0.0
 40
0.0104167
 41
0.0104167
  0
VERTEX
  8
0
 10
4.39231
 20
10.6921
 30
0.0
 40
0.0104167
 41
0.0104167
  0
VERTEX
  8
0
 10
4.32818
 20
10.551
 30
0.0
 40
0.0104167
 41
0.0104167
  0
VERTEX
  8
0
 10
4.23839
 20
10.4356
 30
0.0
 40
0.0104167
 41
0.0104167
  0
VERTEX
  8
0
 10
4.12299
 20
10.3458
 30
0.0
 40
0.0104167
 41
0.0104167
  0
VERTEX
  8
0
 10
3.98188
 20
10.2817
 30
0.0
 40
0.0104167
 41
0.0104167
  0
VERTEX
  8
0
 10
3.81515
 20
10.2432
 30
0.0
 40
0.0104167
 41
0.0104167
  0
VERTEX
  8
0
 10
3.6709
 20
10.2304
 30
0.0
 40
0.0104167
 41
0.0104167
  0
VERTEX
  8
0
 10
3.62283
 20
10.2304
 30
0.0
 40
0.0104167
 41
0.0104167
  0
VERTEX
  8
0
 10
3.62283
 20
11.0512
 30
0.0
 40
0.0104167
 41
0.0104167
  0
VERTEX
  8
0
 10
4.44363
 20
11.0512
 30
0.0
 40
0.0104167
 41
0.0104167
  0
SEQEND
 8
0
  0
POLYLINE
  8
0
 62
     7
 66
     1
 10
0
 20
0
 30
0.0
 70
     1
 40
0
 41
0
  0
VERTEX
  8
0
 10
1.57086
 20
11.3637
 30
0.0
 40
0
 41
0
  0
VERTEX
  8
0
 10
3.5275
 20
11.3637
 30
0.0
 40
0
 41
0
  0
VERTEX
  8
0
 10
3.5275
 20
11.0512
 30
0.0
 40
0
 41
0
  0
VERTEX
  8
0
 10
1.57086
 20
11.0512
 30
0.0
 40
0
 41
0
  0
VERTEX
  8
0
 10
1.57086
 20
11.3637
 30
0.0
 40
0
 41
0
  0
SEQEND
 8
0
  0
POLYLINE
  8
0
 62
     0
 66
     1
 10
0
 20
0
 30
0.0
 70
     1
 40
0.75
 41
0.75
  0
VERTEX
  8
0
 10
1.57086
 20
11.3637
 30
0.0
 40
0.0104167
 41
0.0104167
  0
VERTEX
  8
0
 10
3.5275
 20
11.3637
 30
0.0
 40
0.0104167
 41
0.0104167
  0
VERTEX
  8
0
 10
3.5275
 20
11.0512
 30
0.0
 40
0.0104167
 41
0.0104167
  0
VERTEX
  8
0
 10
1.57086
 20
11.0512
 30
0.0
 40
0.0104167
 41
0.0104167
  0
VERTEX
  8
0
 10
1.57086
 20
11.3637
 30
0.0
 40
0.0104167
 41
0.0104167
  0
SEQEND
 8
0
  0
POLYLINE
  8
0
 62
     7
 66
     1
 10
0
 20
0
 30
0.0
 70
     1
 40
0
 41
0
  0
VERTEX
  8
0
 10
1.57086
 20
11.3637
 30
0.0
 40
0
 41
0
  0
VERTEX
  8
0
 10
3.5275
 20
11.3637
 30
0.0
 40
0
 41
0
  0
VERTEX
  8
0
 10
3.5275
 20
11.0512
 30
0.0
 40
0
 41
0
  0
VERTEX
  8
0
 10
1.57086
 20
11.0512
 30
0.0
 40
0
 41
0
  0
VERTEX
  8
0
 10
1.57086
 20
11.3637
 30
0.0
 40
0
 41
0
  0
SEQEND
 8
0
  0
POLYLINE
  8
0
 62
     0
 66
     1
 10
0
 20
0
 30
0.0
 70
     1
 40
0.75
 41
0.75
  0
VERTEX
  8
0
 10
1.57086
 20
11.3637
 30
0.0
 40
0.0104167
 41
0.0104167
  0
VERTEX
  8
0
 10
3.5275
 20
11.3637
 30
0.0
 40
0.0104167
 41
0.0104167
  0
VERTEX
  8
0
 10
3.5275
 20
11.0512
 30
0.0
 40
0.0104167
 41
0.0104167
  0
VERTEX
  8
0
 10
1.57086
 20
11.0512
 30
0.0
 40
0.0104167
 41
0.0104167
  0
VERTEX
  8
0
 10
1.57086
 20
11.3637
 30
0.0
 40
0.0104167
 41
0.0104167
  0
SEQEND
 8
0
  0
POLYLINE
  8
0
 62
     0
 66
     1
 10
0
 20
0
 30
0.0
 40
0.75
 41
0.75
  0
VERTEX
  8
0
 10
1.64899
 20
11.2074
 30
0.0
 40
0.0104167
 41
0.0104167
  0
VERTEX
  8
0
 10
3.44937
 20
11.2074
 30
0.0
 40
0.0104167
 41
0.0104167
  0
SEQEND
 8
0
  0
POLYLINE
  8
0
 62
     0
 66
     1
 10
0
 20
0
 30
0.0
 40
0.75
 41
0.75
  0
VERTEX
  8
0
 10
1.64899
 20
11.3637
 30
0.0
 40
0.0104167
 41
0.0104167
  0
VERTEX
  8
0
 10
1.64899
 20
11.0512
 30
0.0
 40
0.0104167
 41
0.0104167
  0
SEQEND
 8
0
  0
POLYLINE
  8
0
 62
     0
 66
     1
 10
0
 20
0
 30
0.0
 40
0.75
 41
0.75
  0
VERTEX
  8
0
 10
3.44937
 20
11.3637
 30
0.0
 40
0.0104167
 41
0.0104167
  0
VERTEX
  8
0
 10
3.44937
 20
11.0512
 30
0.0
 40
0.0104167
 41
0.0104167
  0
SEQEND
 8
0
  0
POLYLINE
  8
0
 62
     7
 66
     1
 10
0
 20
0
 30
0.0
 70
     1
 40
0
 41
0
  0
VERTEX
  8
0
 10
4.51824
 20
11.3637
 30
0.0
 40
0
 41
0
  0
VERTEX
  8
0
 10
6.85394
 20
11.3637
 30
0.0
 40
0
 41
0
  0
VERTEX
  8
0
 10
6.85394
 20
11.0512
 30
0.0
 40
0
 41
0
  0
VERTEX
  8
0
 10
4.51824
 20
11.0512
 30
0.0
 40
0
 41
0
  0
VERTEX
  8
0
 10
4.51824
 20
11.3637
 30
0.0
 40
0
 41
0
  0
SEQEND
 8
0
  0
POLYLINE
  8
0
 62
     0
 66
     1
 10
0
 20
0
 30
0.0
 70
     1
 40
0.75
 41
0.75
  0
VERTEX
  8
0
 10
4.51824
 20
11.3637
 30
0.0
 40
0.0104167
 41
0.0104167
  0
VERTEX
  8
0
 10
6.85394
 20
11.3637
 30
0.0
 40
0.0104167
 41
0.0104167
  0
VERTEX
  8
0
 10
6.85394
 20
11.0512
 30
0.0
 40
0.0104167
 41
0.0104167
  0
VERTEX
  8
0
 10
4.51824
 20
11.0512
 30
0.0
 40
0.0104167
 41
0.0104167
  0
VERTEX
  8
0
 10
4.51824
 20
11.3637
 30
0.0
 40
0.0104167
 41
0.0104167
  0
SEQEND
 8
0
  0
POLYLINE
  8
0
 62
     7
 66
     1
 10
0
 20
0
 30
0.0
 70
     1
 40
0
 41
0
  0
VERTEX
  8
0
 10
4.51824
 20
11.3637
 30
0.0
 40
0
 41
0
  0
VERTEX
  8
0
 10
6.85394
 20
11.3637
 30
0.0
 40
0
 41
0
  0
VERTEX
  8
0
 10
6.85394
 20
11.0512
 30
0.0
 40
0
 41
0
  0
VERTEX
  8
0
 10
4.51824
 20
11.0512
 30
0.0
 40
0
 41
0
  0
VERTEX
  8
0
 10
4.51824
 20
11.3637
 30
0.0
 40
0
 41
0
  0
SEQEND
 8
0
  0
POLYLINE
  8
0
 62
     0
 66
     1
 10
0
 20
0
 30
0.0
 70
     1
 40
0.75
 41
0.75
  0
VERTEX
  8
0
 10
4.51824
 20
11.3637
 30
0.0
 40
0.0104167
 41
0.0104167
  0
VERTEX
  8
0
 10
6.85394
 20
11.3637
 30
0.0
 40
0.0104167
 41
0.0104167
  0
VERTEX
  8
0
 10
6.85394
 20
11.0512
 30
0.0
 40
0.0104167
 41
0.0104167
  0
VERTEX
  8
0
 10
4.51824
 20
11.0512
 30
0.0
 40
0.0104167
 41
0.0104167
  0
VERTEX
  8
0
 10
4.51824
 20
11.3637
 30
0.0
 40
0.0104167
 41
0.0104167
  0
SEQEND
 8
0
  0
POLYLINE
  8
0
 62
     0
 66
     1
 10
0
 20
0
 30
0.0
 40
0.75
 41
0.75
  0
VERTEX
  8
0
 10
4.59636
 20
11.2074
 30
0.0
 40
0.0104167
 41
0.0104167
  0
VERTEX
  8
0
 10
6.77582
 20
11.2074
 30
0.0
 40
0.0104167
 41
0.0104167
  0
SEQEND
 8
0
  0
POLYLINE
  8
0
 62
     0
 66
     1
 10
0
 20
0
 30
0.0
 40
0.75
 41
0.75
  0
VERTEX
  8
0
 10
4.59636
 20
11.3637
 30
0.0
 40
0.0104167
 41
0.0104167
  0
VERTEX
  8
0
 10
4.59636
 20
11.0512
 30
0.0
 40
0.0104167
 41
0.0104167
  0
SEQEND
 8
0
  0
POLYLINE
  8
0
 62
     0
 66
     1
 10
0
 20
0
 30
0.0
 40
0.75
 41
0.75
  0
VERTEX
  8
0
 10
6.77582
 20
11.3637
 30
0.0
 40
0.0104167
 41
0.0104167
  0
VERTEX
  8
0
 10
6.77582
 20
11.0512
 30
0.0
 40
0.0104167
 41
0.0104167
  0
SEQEND
 8
0
  0
POLYLINE
  8
0
 62
     0
 66
     1
 10
0
 20
0
 30
0.0
 70
     1
 40
0
 41
0
  0
VERTEX
  8
0
 10
7.6976
 20
11.3637
 30
0.0
 40
0
 41
0
  0
VERTEX
  8
0
 10
7.6976
 20
6.54568
 30
0.0
 40
0
 41
0
  0
VERTEX
  8
0
 10
7.3851
 20
6.54568
 30
0.0
 40
0
 41
0
  0
VERTEX
  8
0
 10
7.3851
 20
11.0512
 30
0.0
 40
0
 41
0
  0
VERTEX
  8
0
 10
7.6976
 20
11.3637
 30
0.0
 40
0
 41
0
  0
SEQEND
 8
0
  0
POLYLINE
  8
0
 62
     0
 66
     1
 10
0
 20
0
 30
0.0
 70
     1
 40
0.15
 41
0.15
  0
VERTEX
  8
0
 10
7.6976
 20
11.3637
 30
0.0
 40
0.00208333
 41
0.00208333
  0
VERTEX
  8
0
 10
7.6976
 20
6.54568
 30
0.0
 40
0.00208333
 41
0.00208333
  0
VERTEX
  8
0
 10
7.3851
 20
6.54568
 30
0.0
 40
0.00208333
 41
0.00208333
  0
VERTEX
  8
0
 10
7.3851
 20
11.0512
 30
0.0
 40
0.00208333
 41
0.00208333
  0
VERTEX
  8
0
 10
7.6976
 20
11.3637
 30
0.0
 40
0.00208333
 41
0.00208333
  0
SEQEND
 8
0
  0
POLYLINE
  8
0
 62
     0
 66
     1
 10
0
 20
0
 30
0.0
 70
     1
 40
0
 41
0
  0
VERTEX
  8
0
 10
7.6976
 20
6.54568
 30
0.0
 40
0
 41
0
  0
VERTEX
  8
0
 10
4.76742
 20
6.54568
 30
0.0
 40
0
 41
0
  0
VERTEX
  8
0
 10
4.632
 20
6.6811
 30
0.0
 40
0
 41
0
  0
VERTEX
  8
0
 10
7.3851
 20
6.6811
 30
0.0
 40
0
 41
0
  0
VERTEX
  8
0
 10
7.6976
 20
6.54568
 30
0.0
 40
0
 41
0
  0
SEQEND
 8
0
  0
POLYLINE
  8
0
 62
     0
 66
     1
 10
0
 20
0
 30
0.0
 70
     1
 40
0.15
 41
0.15
  0
VERTEX
  8
0
 10
7.6976
 20
6.54568
 30
0.0
 40
0.00208333
 41
0.00208333
  0
VERTEX
  8
0
 10
4.76742
 20
6.54568
 30
0.0
 40
0.00208333
 41
0.00208333
  0
VERTEX
  8
0
 10
4.632
 20
6.6811
 30
0.0
 40
0.00208333
 41
0.00208333
  0
VERTEX
  8
0
 10
7.3851
 20
6.6811
 30
0.0
 40
0.00208333
 41
0.00208333
  0
VERTEX
  8
0
 10
7.6976
 20
6.54568
 30
0.0
 40
0.00208333
 41
0.00208333
  0
SEQEND
 8
0
  0
POLYLINE
  8
0
 62
     0
 66
     1
 10
0
 20
0
 30
0.0
 70
     1
 40
0
 41
0
  0
VERTEX
  8
0
 10
4.632
 20
6.6811
 30
0.0
 40
0
 41
0
  0
VERTEX
  8
0
 10
4.632
 20
0.926053
 30
0.0
 40
0
 41
0
  0
VERTEX
  8
0
 10
4.76742
 20
0.926053
 30
0.0
 40
0
 41
0
  0
VERTEX
  8
0
 10
4.76742
 20
6.54568
 30
0.0
 40
0
 41
0
  0
VERTEX
  8
0
 10
4.632
 20
6.6811
 30
0.0
 40
0
 41
0
  0
SEQEND
 8
0
  0
POLYLINE
  8
0
 62
     0
 66
     1
 10
0
 20
0
 30
0.0
 70
     1
 40
0.15
 41
0.15
  0
VERTEX
  8
0
 10
4.632
 20
6.6811
 30
0.0
 40
0.00208333
 41
0.00208333
  0
VERTEX
  8
0
 10
4.632
 20
0.926053
 30
0.0
 40
0.00208333
 41
0.00208333
  0
VERTEX
  8
0
 10
4.76742
 20
0.926053
 30
0.0
 40
0.00208333
 41
0.00208333
  0
VERTEX
  8
0
 10
4.76742
 20
6.54568
 30
0.0
 40
0.00208333
 41
0.00208333
  0
VERTEX
  8
0
 10
4.632
 20
6.6811
 30
0.0
 40
0.00208333
 41
0.00208333
  0
SEQEND
 8
0
  0
POLYLINE
  8
0
 62
     7
 66
     1
 10
0
 20
0
 30
0.0
 70
     1
 40
0
 41
0
  0
VERTEX
  8
0
 10
4.632
 20
5.85504
 30
0.0
 40
0
 41
0
  0
VERTEX
  8
0
 10
4.76742
 20
5.85504
 30
0.0
 40
0
 41
0
  0
VERTEX
  8
0
 10
4.76742
 20
5.23828
 30
0.0
 40
0
 41
0
  0
VERTEX
  8
0
 10
4.632
 20
5.23828
 30
0.0
 40
0
 41
0
  0
VERTEX
  8
0
 10
4.632
 20
5.85504
 30
0.0
 40
0
 41
0
  0
SEQEND
 8
0
  0
POLYLINE
  8
0
 62
     0
 66
     1
 10
0
 20
0
 30
0.0
 70
     1
 40
0.75
 41
0.75
  0
VERTEX
  8
0
 10
4.632
 20
5.85504
 30
0.0
 40
0.0104167
 41
0.0104167
  0
VERTEX
  8
0
 10
4.76742
 20
5.85504
 30
0.0
 40
0.0104167
 41
0.0104167
  0
VERTEX
  8
0
 10
4.76742
 20
5.23828
 30
0.0
 40
0.0104167
 41
0.0104167
  0
VERTEX
  8
0
 10
4.632
 20
5.23828
 30
0.0
 40
0.0104167
 41
0.0104167
  0
VERTEX
  8
0
 10
4.632
 20
5.85504
 30
0.0
 40
0.0104167
 41
0.0104167
  0
SEQEND
 8
0
  0
POLYLINE
  8
0
 62
     7
 66
     1
 10
0
 20
0
 30
0.0
 70
     1
 40
0
 41
0
  0
VERTEX
  8
0
 10
4.632
 20
5.85504
 30
0.0
 40
0
 41
0
  0
VERTEX
  8
0
 10
4.76742
 20
5.85504
 30
0.0
 40
0
 41
0
  0
VERTEX
  8
0
 10
4.76742
 20
5.23828
 30
0.0
 40
0
 41
0
  0
VERTEX
  8
0
 10
4.632
 20
5.23828
 30
0.0
 40
0
 41
0
  0
VERTEX
  8
0
 10
4.632
 20
5.85504
 30
0.0
 40
0
 41
0
  0
SEQEND
 8
0
  0
POLYLINE
  8
0
 62
     0
 66
     1
 10
0
 20
0
 30
0.0
 70
     1
 40
0.75
 41
0.75
  0
VERTEX
  8
0
 10
4.632
 20
5.85504
 30
0.0
 40
0.0104167
 41
0.0104167
  0
VERTEX
  8
0
 10
4.76742
 20
5.85504
 30
0.0
 40
0.0104167
 41
0.0104167
  0
VERTEX
  8
0
 10
4.76742
 20
5.23828
 30
0.0
 40
0.0104167
 41
0.0104167
  0
VERTEX
  8
0
 10
4.632
 20
5.23828
 30
0.0
 40
0.0104167
 41
0.0104167
  0
VERTEX
  8
0
 10
4.632
 20
5.85504
 30
0.0
 40
0.0104167
 41
0.0104167
  0
SEQEND
 8
0
  0
POLYLINE
  8
0
 62
     0
 66
     1
 10
0
 20
0
 30
0.0
 70
     1
 40
0.75
 41
0.75
  0
VERTEX
  8
0
 10
4.632
 20
5.23828
 30
0.0
 40
0.0104167
 41
0.0104167
  0
VERTEX
  8
0
 10
4.59581
 20
5.23828
 30
0.0
 40
0.0104167
 41
0.0104167
  0
VERTEX
  8
0
 10
4.48742
 20
5.24794
 30
0.0
 40
0.0104167
 41
0.0104167
  0
VERTEX
  8
0
 10
4.36214
 20
5.27686
 30
0.0
 40
0.0104167
 41
0.0104167
  0
VERTEX
  8
0
 10
4.25613
 20
5.32503
 30
0.0
 40
0.0104167
 41
0.0104167
  0
VERTEX
  8
0
 10
4.16938
 20
5.39247
 30
0.0
 40
0.0104167
 41
0.0104167
  0
VERTEX
  8
0
 10
4.10189
 20
5.47922
 30
0.0
 40
0.0104167
 41
0.0104167
  0
VERTEX
  8
0
 10
4.05371
 20
5.58524
 30
0.0
 40
0.0104167
 41
0.0104167
  0
VERTEX
  8
0
 10
4.02479
 20
5.7105
 30
0.0
 40
0.0104167
 41
0.0104167
  0
VERTEX
  8
0
 10
4.01519
 20
5.8189
 30
0.0
 40
0.0104167
 41
0.0104167
  0
VERTEX
  8
0
 10
4.01519
 20
5.85504
 30
0.0
 40
0.0104167
 41
0.0104167
  0
VERTEX
  8
0
 10
4.632
 20
5.85504
 30
0.0
 40
0.0104167
 41
0.0104167
  0
VERTEX
  8
0
 10
4.632
 20
5.23828
 30
0.0
 40
0.0104167
 41
0.0104167
  0
SEQEND
 8
0
  0
POLYLINE
  8
0
 62
     7
 66
     1
 10
0
 20
0
 30
0.0
 70
     1
 40
0
 41
0
  0
VERTEX
  8
0
 10
4.632
 20
4.31858
 30
0.0
 40
0
 41
0
  0
VERTEX
  8
0
 10
4.76742
 20
4.31858
 30
0.0
 40
0
 41
0
  0
VERTEX
  8
0
 10
4.76742
 20
3.52262
 30
0.0
 40
0
 41
0
  0
VERTEX
  8
0
 10
4.632
 20
3.52262
 30
0.0
 40
0
 41
0
  0
VERTEX
  8
0
 10
4.632
 20
4.31858
 30
0.0
 40
0
 41
0
  0
SEQEND
 8
0
  0
POLYLINE
  8
0
 62
     0
 66
     1
 10
0
 20
0
 30
0.0
 70
     1
 40
0.75
 41
0.75
  0
VERTEX
  8
0
 10
4.632
 20
4.31858
 30
0.0
 40
0.0104167
 41
0.0104167
  0
VERTEX
  8
0
 10
4.76742
 20
4.31858
 30
0.0
 40
0.0104167
 41
0.0104167
  0
VERTEX
  8
0
 10
4.76742
 20
3.52262
 30
0.0
 40
0.0104167
 41
0.0104167
  0
VERTEX
  8
0
 10
4.632
 20
3.52262
 30
0.0
 40
0.0104167
 41
0.0104167
  0
VERTEX
  8
0
 10
4.632
 20
4.31858
 30
0.0
 40
0.0104167
 41
0.0104167
  0
SEQEND
 8
0
  0
POLYLINE
  8
0
 62
     7
 66
     1
 10
0
 20
0
 30
0.0
 70
     1
 40
0
 41
0
  0
VERTEX
  8
0
 10
4.632
 20
4.31858
 30
0.0
 40
0
 41
0
  0
VERTEX
  8
0
 10
4.76742
 20
4.31858
 30
0.0
 40
0
 41
0
  0
VERTEX
  8
0
 10
4.76742
 20
3.52262
 30
0.0
 40
0
 41
0
  0
VERTEX
  8
0
 10
4.632
 20
3.52262
 30
0.0
 40
0
 41
0
  0
VERTEX
  8
0
 10
4.632
 20
4.31858
 30
0.0
 40
0
 41
0
  0
SEQEND
 8
0
  0
POLYLINE
  8
0
 62
     0
 66
     1
 10
0
 20
0
 30
0.0
 70
     1
 40
0.75
 41
0.75
  0
VERTEX
  8
0
 10
4.632
 20
4.31858
 30
0.0
 40
0.0104167
 41
0.0104167
  0
VERTEX
  8
0
 10
4.76742
 20
4.31858
 30
0.0
 40
0.0104167
 41
0.0104167
  0
VERTEX
  8
0
 10
4.76742
 20
3.52262
 30
0.0
 40
0.0104167
 41
0.0104167
  0
VERTEX
  8
0
 10
4.632
 20
3.52262
 30
0.0
 40
0.0104167
 41
0.0104167
  0
VERTEX
  8
0
 10
4.632
 20
4.31858
 30
0.0
 40
0.0104167
 41
0.0104167
  0
SEQEND
 8
0
  0
POLYLINE
  8
0
 62
     0
 66
     1
 10
0
 20
0
 30
0.0
 70
     1
 40
0.75
 41
0.75
  0
VERTEX
  8
0
 10
4.76742
 20
3.52262
 30
0.0
 40
0.0104167
 41
0.0104167
  0
VERTEX
  8
0
 10
4.81401
 20
3.52262
 30
0.0
 40
0.0104167
 41
0.0104167
  0
VERTEX
  8
0
 10
4.95394
 20
3.5351
 30
0.0
 40
0.0104167
 41
0.0104167
  0
VERTEX
  8
0
 10
5.11561
 20
3.57243
 30
0.0
 40
0.0104167
 41
0.0104167
  0
VERTEX
  8
0
 10
5.25239
 20
3.6346
 30
0.0
 40
0.0104167
 41
0.0104167
  0
VERTEX
  8
0
 10
5.36431
 20
3.72163
 30
0.0
 40
0.0104167
 41
0.0104167
  0
VERTEX
  8
0
 10
5.45139
 20
3.83361
 30
0.0
 40
0.0104167
 41
0.0104167
  0
VERTEX
  8
0
 10
5.51357
 20
3.97038
 30
0.0
 40
0.0104167
 41
0.0104167
  0
VERTEX
  8
0
 10
5.55083
 20
4.13206
 30
0.0
 40
0.0104167
 41
0.0104167
  0
VERTEX
  8
0
 10
5.56332
 20
4.27197
 30
0.0
 40
0.0104167
 41
0.0104167
  0
VERTEX
  8
0
 10
5.56332
 20
4.31858
 30
0.0
 40
0.0104167
 41
0.0104167
  0
VERTEX
  8
0
 10
4.76742
 20
4.31858
 30
0.0
 40
0.0104167
 41
0.0104167
  0
VERTEX
  8
0
 10
4.76742
 20
3.52262
 30
0.0
 40
0.0104167
 41
0.0104167
  0
SEQEND
 8
0
  0
POLYLINE
  8
0
 62
     0
 66
     1
 10
0
 20
0
 30
0.0
 70
     1
 40
0
 41
0
  0
VERTEX
  8
0
 10
4.76742
 20
0.926053
 30
0.0
 40
0
 41
0
  0
VERTEX
  8
0
 10
0.709147
 20
0.926053
 30
0.0
 40
0
 41
0
  0
VERTEX
  8
0
 10
1.0325
 20
1.25939
 30
0.0
 40
0
 41
0
  0
VERTEX
  8
0
 10
4.632
 20
1.25939
 30
0.0
 40
0
 41
0
  0
VERTEX
  8
0
 10
4.76742
 20
0.926053
 30
0.0
 40
0
 41
0
  0
SEQEND
 8
0
  0
POLYLINE
  8
0
 62
     0
 66
     1
 10
0
 20
0
 30
0.0
 70
     1
 40
0.15
 41
0.15
  0
VERTEX
  8
0
 10
4.76742
 20
0.926053
 30
0.0
 40
0.00208333
 41
0.00208333
  0
VERTEX
  8
0
 10
0.709147
 20
0.926053
 30
0.0
 40
0.00208333
 41
0.00208333
  0
VERTEX
  8
0
 10
1.0325
 20
1.25939
 30
0.0
 40
0.00208333
 41
0.00208333
  0
VERTEX
  8
0
 10
4.632
 20
1.25939
 30
0.0
 40
0.00208333
 41
0.00208333
  0
VERTEX
  8
0
 10
4.76742
 20
0.926053
 30
0.0
 40
0.00208333
 41
0.00208333
  0
SEQEND
 8
0
  0
POLYLINE
  8
0
 62
     7
 66
     1
 10
0
 20
0
 30
0.0
 70
     1
 40
0
 41
0
  0
VERTEX
  8
0
 10
3.61208
 20
1.25939
 30
0.0
 40
0
 41
0
  0
VERTEX
  8
0
 10
4.52447
 20
1.25939
 30
0.0
 40
0
 41
0
  0
VERTEX
  8
0
 10
4.52447
 20
0.926053
 30
0.0
 40
0
 41
0
  0
VERTEX
  8
0
 10
3.61208
 20
0.926053
 30
0.0
 40
0
 41
0
  0
VERTEX
  8
0
 10
3.61208
 20
1.25939
 30
0.0
 40
0
 41
0
  0
SEQEND
 8
0
  0
POLYLINE
  8
0
 62
     0
 66
     1
 10
0
 20
0
 30
0.0
 70
     1
 40
0.75
 41
0.75
  0
VERTEX
  8
0
 10
3.61208
 20
1.25939
 30
0.0
 40
0.0104167
 41
0.0104167
  0
VERTEX
  8
0
 10
4.52447
 20
1.25939
 30
0.0
 40
0.0104167
 41
0.0104167
  0
VERTEX
  8
0
 10
4.52447
 20
0.926053
 30
0.0
 40
0.0104167
 41
0.0104167
  0
VERTEX
  8
0
 10
3.61208
 20
0.926053
 30
0.0
 40
0.0104167
 41
0.0104167
  0
VERTEX
  8
0
 10
3.61208
 20
1.25939
 30
0.0
 40
0.0104167
 41
0.0104167
  0
SEQEND
 8
0
  0
POLYLINE
  8
0
 62
     7
 66
     1
 10
0
 20
0
 30
0.0
 70
     1
 40
0
 41
0
  0
VERTEX
  8
0
 10
3.61208
 20
1.25939
 30
0.0
 40
0
 41
0
  0
VERTEX
  8
0
 10
4.52447
 20
1.25939
 30
0.0
 40
0
 41
0
  0
VERTEX
  8
0
 10
4.52447
 20
0.926053
 30
0.0
 40
0
 41
0
  0
VERTEX
  8
0
 10
3.61208
 20
0.926053
 30
0.0
 40
0
 41
0
  0
VERTEX
  8
0
 10
3.61208
 20
1.25939
 30
0.0
 40
0
 41
0
  0
SEQEND
 8
0
  0
POLYLINE
  8
0
 62
     0
 66
     1
 10
0
 20
0
 30
0.0
 70
     1
 40
0.75
 41
0.75
  0
VERTEX
  8
0
 10
3.61208
 20
1.25939
 30
0.0
 40
0.0104167
 41
0.0104167
  0
VERTEX
  8
0
 10
4.52447
 20
1.25939
 30
0.0
 40
0.0104167
 41
0.0104167
  0
VERTEX
  8
0
 10
4.52447
 20
0.926053
 30
0.0
 40
0.0104167
 41
0.0104167
  0
VERTEX
  8
0
 10
3.61208
 20
0.926053
 30
0.0
 40
0.0104167
 41
0.0104167
  0
VERTEX
  8
0
 10
3.61208
 20
1.25939
 30
0.0
 40
0.0104167
 41
0.0104167
  0
SEQEND
 8
0
  0
POLYLINE
  8
0
 62
     0
 66
     1
 10
0
 20
0
 30
0.0
 70
     1
 40
0.75
 41
0.75
  0
VERTEX
  8
0
 10
3.61208
 20
0.926053
 30
0.0
 40
0.0104167
 41
0.0104167
  0
VERTEX
  8
0
 10
3.61208
 20
0.872612
 30
0.0
 40
0.0104167
 41
0.0104167
  0
VERTEX
  8
0
 10
3.62631
 20
0.71224
 30
0.0
 40
0.0104167
 41
0.0104167
  0
VERTEX
  8
0
 10
3.66911
 20
0.52691
 30
0.0
 40
0.0104167
 41
0.0104167
  0
VERTEX
  8
0
 10
3.74035
 20
0.370117
 30
0.0
 40
0.0104167
 41
0.0104167
  0
VERTEX
  8
0
 10
3.84017
 20
0.241808
 30
0.0
 40
0.0104167
 41
0.0104167
  0
VERTEX
  8
0
 10
3.96847
 20
0.141982
 30
0.0
 40
0.0104167
 41
0.0104167
  0
VERTEX
  8
0
 10
4.12528
 20
0.0707465
 30
0.0
 40
0.0104167
 41
0.0104167
  0
VERTEX
  8
0
 10
4.3106
 20
0.0279406
 30
0.0
 40
0.0104167
 41
0.0104167
  0
VERTEX
  8
0
 10
4.47097
 20
0.0136719
 30
0.0
 40
0.0104167
 41
0.0104167
  0
VERTEX
  8
0
 10
4.52447
 20
0.0136719
 30
0.0
 40
0.0104167
 41
0.0104167
  0
VERTEX
  8
0
 10
4.52447
 20
0.926053
 30
0.0
 40
0.0104167
 41
0.0104167
  0
VERTEX
  8
0
 10
3.61208
 20
0.926053
 30
0.0
 40
0.0104167
 41
0.0104167
  0
SEQEND
 8
0
  0
POLYLINE
  8
0
 62
     7
 66
     1
 10
0
 20
0
 30
0.0
 70
     1
 40
0
 41
0
  0
VERTEX
  8
0
 10
2.1721
 20
1.25939
 30
0.0
 40
0
 41
0
  0
VERTEX
  8
0
 10
2.7806
 20
1.25939
 30
0.0
 40
0
 41
0
  0
VERTEX
  8
0
 10
2.7806
 20
0.926053
 30
0.0
 40
0
 41
0
  0
VERTEX
  8
0
 10
2.1721
 20
0.926053
 30
0.0
 40
0
 41
0
  0
VERTEX
  8
0
 10
2.1721
 20
1.25939
 30
0.0
 40
0
 41
0
  0
SEQEND
 8
0
  0
POLYLINE
  8
0
 62
     0
 66
     1
 10
0
 20
0
 30
0.0
 70
     1
 40
0.75
 41
0.75
  0
VERTEX
  8
0
 10
2.1721
 20
1.25939
 30
0.0
 40
0.0104167
 41
0.0104167
  0
VERTEX
  8
0
 10
2.7806
 20
1.25939
 30
0.0
 40
0.0104167
 41
0.0104167
  0
VERTEX
  8
0
 10
2.7806
 20
0.926053
 30
0.0
 40
0.0104167
 41
0.0104167
  0
VERTEX
  8
0
 10
2.1721
 20
0.926053
 30
0.0
 40
0.0104167
 41
0.0104167
  0
VERTEX
  8
0
 10
2.1721
 20
1.25939
 30
0.0
 40
0.0104167
 41
0.0104167
  0
SEQEND
 8
0
  0
POLYLINE
  8
0
 62
     7
 66
     1
 10
0
 20
0
 30
0.0
 70
     1
 40
0
 41
0
  0
VERTEX
  8
0
 10
2.1721
 20
1.25939
 30
0.0
 40
0
 41
0
  0
VERTEX
  8
0
 10
2.7806
 20
1.25939
 30
0.0
 40
0
 41
0
  0
VERTEX
  8
0
 10
2.7806
 20
0.926053
 30
0.0
 40
0
 41
0
  0
VERTEX
  8
0
 10
2.1721
 20
0.926053
 30
0.0
 40
0
 41
0
  0
VERTEX
  8
0
 10
2.1721
 20
1.25939
 30
0.0
 40
0
 41
0
  0
SEQEND
 8
0
  0
POLYLINE
  8
0
 62
     0
 66
     1
 10
0
 20
0
 30
0.0
 70
     1
 40
0.75
 41
0.75
  0
VERTEX
  8
0
 10
2.1721
 20
1.25939
 30
0.0
 40
0.0104167
 41
0.0104167
  0
VERTEX
  8
0
 10
2.7806
 20
1.25939
 30
0.0
 40
0.0104167
 41
0.0104167
  0
VERTEX
  8
0
 10
2.7806
 20
0.926053
 30
0.0
 40
0.0104167
 41
0.0104167
  0
VERTEX
  8
0
 10
2.1721
 20
0.926053
 30
0.0
 40
0.0104167
 41
0.0104167
  0
VERTEX
  8
0
 10
2.1721
 20
1.25939
 30
0.0
 40
0.0104167
 41
0.0104167
  0
SEQEND
 8
0
  0
POLYLINE
  8
0
 62
     0
 66
     1
 10
0
 20
0
 30
0.0
 40
0.75
 41
0.75
  0
VERTEX
  8
0
 10
2.70247
 20
1.09272
 30
0.0
 40
0.0104167
 41
0.0104167
  0
VERTEX
  8
0
 10
2.25022
 20
1.09272
 30
0.0
 40
0.0104167
 41
0.0104167
  0
SEQEND
 8
0
  0
POLYLINE
  8
0
 62
     0
 66
     1
 10
0
 20
0
 30
0.0
 40
0.75
 41
0.75
  0
VERTEX
  8
0
 10
2.70247
 20
0.926053
 30
0.0
 40
0.0104167
 41
0.0104167
  0
VERTEX
  8
0
 10
2.70247
 20
1.25939
 30
0.0
 40
0.0104167
 41
0.0104167
  0
SEQEND
 8
0
  0
POLYLINE
  8
0
 62
     0
 66
     1
 10
0
 20
0
 30
0.0
 40
0.75
 41
0.75
  0
VERTEX
  8
0
 10
2.25022
 20
0.926053
 30
0.0
 40
0.0104167
 41
0.0104167
  0
VERTEX
  8
0
 10
2.25022
 20
1.25939
 30
0.0
 40
0.0104167
 41
0.0104167
  0
SEQEND
 8
0
  0
POLYLINE
  8
0
 62
     0
 66
     1
 10
0
 20
0
 30
0.0
 70
     1
 40
0
 41
0
  0
VERTEX
  8
0
 10
0.709147
 20
0.926053
 30
0.0
 40
0
 41
0
  0
VERTEX
  8
0
 10
0.722928
 20
11.3637
 30
0.0
 40
0
 41
0
  0
VERTEX
  8
0
 10
1.04541
 20
11.0512
 30
0.0
 40
0
 41
0
  0
VERTEX
  8
0
 10
1.0325
 20
1.25939
 30
0.0
 40
0
 41
0
  0
VERTEX
  8
0
 10
0.709147
 20
0.926053
 30
0.0
 40
0
 41
0
  0
SEQEND
 8
0
  0
POLYLINE
  8
0
 62
     0
 66
     1
 10
0
 20
0
 30
0.0
 70
     1
 40
0.15
 41
0.15
  0
VERTEX
  8
0
 10
0.709147
 20
0.926053
 30
0.0
 40
0.00208333
 41
0.00208333
  0
VERTEX
  8
0
 10
0.722928
 20
11.3637
 30
0.0
 40
0.00208333
 41
0.00208333
  0
VERTEX
  8
0
 10
1.04541
 20
11.0512
 30
0.0
 40
0.00208333
 41
0.00208333
  0
VERTEX
  8
0
 10
1.0325
 20
1.25939
 30
0.0
 40
0.00208333
 41
0.00208333
  0
VERTEX
  8
0
 10
0.709147
 20
0.926053
 30
0.0
 40
0.00208333
 41
0.00208333
  0
SEQEND
 8
0
  0
POLYLINE
  8
0
 62
     0
 66
     1
 10
0
 20
0
 30
0.0
 70
     1
 40
0
 41
0
  0
VERTEX
  8
0
 10
2.81168
 20
0.926053
 30
0.0
 40
0
 41
0
  0
VERTEX
  8
0
 10
2.81168
 20
5.20389
 30
0.0
 40
0
 41
0
  0
VERTEX
  8
0
 10
2.93614
 20
5.07889
 30
0.0
 40
0
 41
0
  0
VERTEX
  8
0
 10
2.93614
 20
0.926053
 30
0.0
 40
0
 41
0
  0
VERTEX
  8
0
 10
2.81168
 20
0.926053
 30
0.0
 40
0
 41
0
  0
SEQEND
 8
0
  0
POLYLINE
  8
0
 62
     0
 66
     1
 10
0
 20
0
 30
0.0
 70
     1
 40
0.15
 41
0.15
  0
VERTEX
  8
0
 10
2.81168
 20
0.926053
 30
0.0
 40
0.00208333
 41
0.00208333
  0
VERTEX
  8
0
 10
2.81168
 20
5.20389
 30
0.0
 40
0.00208333
 41
0.00208333
  0
VERTEX
  8
0
 10
2.93614
 20
5.07889
 30
0.0
 40
0.00208333
 41
0.00208333
  0
VERTEX
  8
0
 10
2.93614
 20
0.926053
 30
0.0
 40
0.00208333
 41
0.00208333
  0
VERTEX
  8
0
 10
2.81168
 20
0.926053
 30
0.0
 40
0.00208333
 41
0.00208333
  0
SEQEND
 8
0
  0
POLYLINE
  8
0
 62
     0
 66
     1
 10
0
 20
0
 30
0.0
 70
     1
 40
0
 41
0
  0
VERTEX
  8
0
 10
2.81168
 20
5.20389
 30
0.0
 40
0
 41
0
  0
VERTEX
  8
0
 10
3.56717
 20
5.20389
 30
0.0
 40
0
 41
0
  0
VERTEX
  8
0
 10
3.56717
 20
5.07889
 30
0.0
 40
0
 41
0
  0
VERTEX
  8
0
 10
2.93614
 20
5.07889
 30
0.0
 40
0
 41
0
  0
VERTEX
  8
0
 10
2.81168
 20
5.20389
 30
0.0
 40
0
 41
0
  0
SEQEND
 8
0
  0
POLYLINE
  8
0
 62
     0
 66
     1
 10
0
 20
0
 30
0.0
 70
     1
 40
0.15
 41
0.15
  0
VERTEX
  8
0
 10
2.81168
 20
5.20389
 30
0.0
 40
0.00208333
 41
0.00208333
  0
VERTEX
  8
0
 10
3.56717
 20
5.20389
 30
0.0
 40
0.00208333
 41
0.00208333
  0
VERTEX
  8
0
 10
3.56717
 20
5.07889
 30
0.0
 40
0.00208333
 41
0.00208333
  0
VERTEX
  8
0
 10
2.93614
 20
5.07889
 30
0.0
 40
0.00208333
 41
0.00208333
  0
VERTEX
  8
0
 10
2.81168
 20
5.20389
 30
0.0
 40
0.00208333
 41
0.00208333
  0
SEQEND
 8
0
  0
POLYLINE
  8
0
 62
     0
 66
     1
 10
0
 20
0
 30
0.0
 70
     1
 40
0
 41
0
  0
VERTEX
  8
0
 10
0.711751
 20
2.90419
 30
0.0
 40
0
 41
0
  0
VERTEX
  8
0
 10
2.93614
 20
2.90419
 30
0.0
 40
0
 41
0
  0
VERTEX
  8
0
 10
2.93614
 20
2.77919
 30
0.0
 40
0
 41
0
  0
VERTEX
  8
0
 10
0.711751
 20
2.77919
 30
0.0
 40
0
 41
0
  0
VERTEX
  8
0
 10
0.711751
 20
2.90419
 30
0.0
 40
0
 41
0
  0
SEQEND
 8
0
  0
POLYLINE
  8
0
 62
     0
 66
     1
 10
0
 20
0
 30
0.0
 70
     1
 40
0.15
 41
0.15
  0
VERTEX
  8
0
 10
0.711751
 20
2.90419
 30
0.0
 40
0.00208333
 41
0.00208333
  0
VERTEX
  8
0
 10
2.93614
 20
2.90419
 30
0.0
 40
0.00208333
 41
0.00208333
  0
VERTEX
  8
0
 10
2.93614
 20
2.77919
 30
0.0
 40
0.00208333
 41
0.00208333
  0
VERTEX
  8
0
 10
0.711751
 20
2.77919
 30
0.0
 40
0.00208333
 41
0.00208333
  0
VERTEX
  8
0
 10
0.711751
 20
2.90419
 30
0.0
 40
0.00208333
 41
0.00208333
  0
SEQEND
 8
0
  0
POLYLINE
  8
0
 62
     7
 66
     1
 10
0
 20
0
 30
0.0
 70
     1
 40
0
 41
0
  0
VERTEX
  8
0
 10
2.12532
 20
2.90419
 30
0.0
 40
0
 41
0
  0
VERTEX
  8
0
 10
2.75065
 20
2.90419
 30
0.0
 40
0
 41
0
  0
VERTEX
  8
0
 10
2.75065
 20
2.77919
 30
0.0
 40
0
 41
0
  0
VERTEX
  8
0
 10
2.12532
 20
2.77919
 30
0.0
 40
0
 41
0
  0
VERTEX
  8
0
 10
2.12532
 20
2.90419
 30
0.0
 40
0
 41
0
  0
SEQEND
 8
0
  0
POLYLINE
  8
0
 62
     0
 66
     1
 10
0
 20
0
 30
0.0
 70
     1
 40
0.75
 41
0.75
  0
VERTEX
  8
0
 10
2.12532
 20
2.90419
 30
0.0
 40
0.0104167
 41
0.0104167
  0
VERTEX
  8
0
 10
2.75065
 20
2.90419
 30
0.0
 40
0.0104167
 41
0.0104167
  0
VERTEX
  8
0
 10
2.75065
 20
2.77919
 30
0.0
 40
0.0104167
 41
0.0104167
  0
VERTEX
  8
0
 10
2.12532
 20
2.77919
 30
0.0
 40
0.0104167
 41
0.0104167
  0
VERTEX
  8
0
 10
2.12532
 20
2.90419
 30
0.0
 40
0.0104167
 41
0.0104167
  0
SEQEND
 8
0
  0
POLYLINE
  8
0
 62
     7
 66
     1
 10
0
 20
0
 30
0.0
 70
     1
 40
0
 41
0
  0
VERTEX
  8
0
 10
2.12532
 20
2.90419
 30
0.0
 40
0
 41
0
  0
VERTEX
  8
0
 10
2.75065
 20
2.90419
 30
0.0
 40
0
 41
0
  0
VERTEX
  8
0
 10
2.75065
 20
2.77919
 30
0.0
 40
0
 41
0
  0
VERTEX
  8
0
 10
2.12532
 20
2.77919
 30
0.0
 40
0
 41
0
  0
VERTEX
  8
0
 10
2.12532
 20
2.90419
 30
0.0
 40
0
 41
0
  0
SEQEND
 8
0
  0
POLYLINE
  8
0
 62
     0
 66
     1
 10
0
 20
0
 30
0.0
 70
     1
 40
0.75
 41
0.75
  0
VERTEX
  8
0
 10
2.12532
 20
2.90419
 30
0.0
 40
0.0104167
 41
0.0104167
  0
VERTEX
  8
0
 10
2.75065
 20
2.90419
 30
0.0
 40
0.0104167
 41
0.0104167
  0
VERTEX
  8
0
 10
2.75065
 20
2.77919
 30
0.0
 40
0.0104167
 41
0.0104167
  0
VERTEX
  8
0
 10
2.12532
 20
2.77919
 30
0.0
 40
0.0104167
 41
0.0104167
  0
VERTEX
  8
0
 10
2.12532
 20
2.90419
 30
0.0
 40
0.0104167
 41
0.0104167
  0
SEQEND
 8
0
  0
POLYLINE
  8
0
 62
     0
 66
     1
 10
0
 20
0
 30
0.0
 70
     1
 40
0.75
 41
0.75
  0
VERTEX
  8
0
 10
2.12532
 20
2.90419
 30
0.0
 40
0.0104167
 41
0.0104167
  0
VERTEX
  8
0
 10
2.12532
 20
2.94086
 30
0.0
 40
0.0104167
 41
0.0104167
  0
VERTEX
  8
0
 10
2.1351
 20
3.05078
 30
0.0
 40
0.0104167
 41
0.0104167
  0
VERTEX
  8
0
 10
2.16439
 20
3.17779
 30
0.0
 40
0.0104167
 41
0.0104167
  0
VERTEX
  8
0
 10
2.21322
 20
3.28526
 30
0.0
 40
0.0104167
 41
0.0104167
  0
VERTEX
  8
0
 10
2.28162
 20
3.37321
 30
0.0
 40
0.0104167
 41
0.0104167
  0
VERTEX
  8
0
 10
2.36957
 20
3.44162
 30
0.0
 40
0.0104167
 41
0.0104167
  0
VERTEX
  8
0
 10
2.47706
 20
3.49046
 30
0.0
 40
0.0104167
 41
0.0104167
  0
VERTEX
  8
0
 10
2.60406
 20
3.51975
 30
0.0
 40
0.0104167
 41
0.0104167
  0
VERTEX
  8
0
 10
2.71397
 20
3.52951
 30
0.0
 40
0.0104167
 41
0.0104167
  0
VERTEX
  8
0
 10
2.75065
 20
3.52951
 30
0.0
 40
0.0104167
 41
0.0104167
  0
VERTEX
  8
0
 10
2.75065
 20
2.90419
 30
0.0
 40
0.0104167
 41
0.0104167
  0
VERTEX
  8
0
 10
2.12532
 20
2.90419
 30
0.0
 40
0.0104167
 41
0.0104167
  0
SEQEND
 8
0
  0
POLYLINE
  8
0
 62
     0
 66
     1
 10
0
 20
0
 30
0.0
 70
     1
 40
0
 41
0
  0
VERTEX
  8
0
 10
1.03451
 20
2.77919
 30
0.0
 40
0
 41
0
  0
VERTEX
  8
0
 10
1.0325
 20
1.25939
 30
0.0
 40
0
 41
0
  0
VERTEX
  8
0
 10
1.10541
 20
1.25933
 30
0.0
 40
0
 41
0
  0
VERTEX
  8
0
 10
1.10742
 20
2.77908
 30
0.0
 40
0
 41
0
  0
VERTEX
  8
0
 10
1.03451
 20
2.77919
 30
0.0
 40
0
 41
0
  0
SEQEND
 8
0
  0
POLYLINE
  8
0
 62
     0
 66
     1
 10
0
 20
0
 30
0.0
 70
     1
 40
0.15
 41
0.15
  0
VERTEX
  8
0
 10
1.03451
 20
2.77919
 30
0.0
 40
0.00208333
 41
0.00208333
  0
VERTEX
  8
0
 10
1.0325
 20
1.25939
 30
0.0
 40
0.00208333
 41
0.00208333
  0
VERTEX
  8
0
 10
1.10541
 20
1.25933
 30
0.0
 40
0.00208333
 41
0.00208333
  0
VERTEX
  8
0
 10
1.10742
 20
2.77908
 30
0.0
 40
0.00208333
 41
0.00208333
  0
VERTEX
  8
0
 10
1.03451
 20
2.77919
 30
0.0
 40
0.00208333
 41
0.00208333
  0
SEQEND
 8
0
  0
POLYLINE
  8
0
 62
     0
 66
     1
 10
0
 20
0
 30
0.0
 70
     1
 40
0
 41
0
  0
VERTEX
  8
0
 10
3.45811
 20
8.43767
 30
0.0
 40
0
 41
0
  0
VERTEX
  8
0
 10
3.56228
 20
8.43767
 30
0.0
 40
0
 41
0
  0
VERTEX
  8
0
 10
3.56228
 20
6.16162
 30
0.0
 40
0
 41
0
  0
VERTEX
  8
0
 10
3.45811
 20
6.16162
 30
0.0
 40
0
 41
0
  0
VERTEX
  8
0
 10
3.45811
 20
8.43767
 30
0.0
 40
0
 41
0
  0
SEQEND
 8
0
  0
POLYLINE
  8
0
 62
     0
 66
     1
 10
0
 20
0
 30
0.0
 70
     1
 40
0.15
 41
0.15
  0
VERTEX
  8
0
 10
3.45811
 20
8.43767
 30
0.0
 40
0.00208333
 41
0.00208333
  0
VERTEX
  8
0
 10
3.56228
 20
8.43767
 30
0.0
 40
0.00208333
 41
0.00208333
  0
VERTEX
  8
0
 10
3.56228
 20
6.16162
 30
0.0
 40
0.00208333
 41
0.00208333
  0
VERTEX
  8
0
 10
3.45811
 20
6.16162
 30
0.0
 40
0.00208333
 41
0.00208333
  0
VERTEX
  8
0
 10
3.45811
 20
8.43767
 30
0.0
 40
0.00208333
 41
0.00208333
  0
SEQEND
 8
0
  0
POLYLINE
  8
0
 62
     0
 66
     1
 10
0
 20
0
 30
0.0
 70
     1
 40
0
 41
0
  0
VERTEX
  8
0
 10
1.03782
 20
5.31315
 30
0.0
 40
0
 41
0
  0
VERTEX
  8
0
 10
1.67415
 20
5.31315
 30
0.0
 40
0
 41
0
  0
VERTEX
  8
0
 10
1.67415
 20
4.86524
 30
0.0
 40
0
 41
0
  0
VERTEX
  8
0
 10
1.03782
 20
4.86524
 30
0.0
 40
0
 41
0
  0
VERTEX
  8
0
 10
1.03782
 20
5.31315
 30
0.0
 40
0
 41
0
  0
SEQEND
 8
0
  0
POLYLINE
  8
0
 62
     0
 66
     1
 10
0
 20
0
 30
0.0
 70
     1
 40
0.15
 41
0.15
  0
VERTEX
  8
0
 10
1.03782
 20
5.31315
 30
0.0
 40
0.00208333
 41
0.00208333
  0
VERTEX
  8
0
 10
1.67415
 20
5.31315
 30
0.0
 40
0.00208333
 41
0.00208333
  0
VERTEX
  8
0
 10
1.67415
 20
4.86524
 30
0.0
 40
0.00208333
 41
0.00208333
  0
VERTEX
  8
0
 10
1.03782
 20
4.86524
 30
0.0
 40
0.00208333
 41
0.00208333
  0
VERTEX
  8
0
 10
1.03782
 20
5.31315
 30
0.0
 40
0.00208333
 41
0.00208333
  0
SEQEND
 8
0
  0
POLYLINE
  8
0
 62
     0
 66
     1
 10
0
 20
0
 30
0.0
 70
     1
 40
0
 41
0
  0
VERTEX
  8
0
 10
2.81168
 20
5.07889
 30
0.0
 40
0
 41
0
  0
VERTEX
  8
0
 10
1.67415
 20
5.07889
 30
0.0
 40
0
 41
0
  0
VERTEX
  8
0
 10
1.67415
 20
5.20389
 30
0.0
 40
0
 41
0
  0
VERTEX
  8
0
 10
2.93614
 20
5.20389
 30
0.0
 40
0
 41
0
  0
VERTEX
  8
0
 10
2.81168
 20
5.07889
 30
0.0
 40
0
 41
0
  0
SEQEND
 8
0
  0
POLYLINE
  8
0
 62
     0
 66
     1
 10
0
 20
0
 30
0.0
 70
     1
 40
0.15
 41
0.15
  0
VERTEX
  8
0
 10
2.81168
 20
5.07889
 30
0.0
 40
0.00208333
 41
0.00208333
  0
VERTEX
  8
0
 10
1.67415
 20
5.07889
 30
0.0
 40
0.00208333
 41
0.00208333
  0
VERTEX
  8
0
 10
1.67415
 20
5.20389
 30
0.0
 40
0.00208333
 41
0.00208333
  0
VERTEX
  8
0
 10
2.93614
 20
5.20389
 30
0.0
 40
0.00208333
 41
0.00208333
  0
VERTEX
  8
0
 10
2.81168
 20
5.07889
 30
0.0
 40
0.00208333
 41
0.00208333
  0
SEQEND
 8
0
  0
POLYLINE
  8
0
 62
     7
 66
     1
 10
0
 20
0
 30
0.0
 70
     1
 40
0
 41
0
  0
VERTEX
  8
0
 10
2.12196
 20
5.20389
 30
0.0
 40
0
 41
0
  0
VERTEX
  8
0
 10
2.74083
 20
5.20389
 30
0.0
 40
0
 41
0
  0
VERTEX
  8
0
 10
2.74083
 20
5.07889
 30
0.0
 40
0
 41
0
  0
VERTEX
  8
0
 10
2.12196
 20
5.07889
 30
0.0
 40
0
 41
0
  0
VERTEX
  8
0
 10
2.12196
 20
5.20389
 30
0.0
 40
0
 41
0
  0
SEQEND
 8
0
  0
POLYLINE
  8
0
 62
     0
 66
     1
 10
0
 20
0
 30
0.0
 70
     1
 40
0.75
 41
0.75
  0
VERTEX
  8
0
 10
2.12196
 20
5.20389
 30
0.0
 40
0.0104167
 41
0.0104167
  0
VERTEX
  8
0
 10
2.74083
 20
5.20389
 30
0.0
 40
0.0104167
 41
0.0104167
  0
VERTEX
  8
0
 10
2.74083
 20
5.07889
 30
0.0
 40
0.0104167
 41
0.0104167
  0
VERTEX
  8
0
 10
2.12196
 20
5.07889
 30
0.0
 40
0.0104167
 41
0.0104167
  0
VERTEX
  8
0
 10
2.12196
 20
5.20389
 30
0.0
 40
0.0104167
 41
0.0104167
  0
SEQEND
 8
0
  0
POLYLINE
  8
0
 62
     7
 66
     1
 10
0
 20
0
 30
0.0
 70
     1
 40
0
 41
0
  0
VERTEX
  8
0
 10
2.12196
 20
5.20389
 30
0.0
 40
0
 41
0
  0
VERTEX
  8
0
 10
2.74083
 20
5.20389
 30
0.0
 40
0
 41
0
  0
VERTEX
  8
0
 10
2.74083
 20
5.07889
 30
0.0
 40
0
 41
0
  0
VERTEX
  8
0
 10
2.12196
 20
5.07889
 30
0.0
 40
0
 41
0
  0
VERTEX
  8
0
 10
2.12196
 20
5.20389
 30
0.0
 40
0
 41
0
  0
SEQEND
 8
0
  0
POLYLINE
  8
0
 62
     0
 66
     1
 10
0
 20
0
 30
0.0
 70
     1
 40
0.75
 41
0.75
  0
VERTEX
  8
0
 10
2.12196
 20
5.20389
 30
0.0
 40
0.0104167
 41
0.0104167
  0
VERTEX
  8
0
 10
2.74083
 20
5.20389
 30
0.0
 40
0.0104167
 41
0.0104167
  0
VERTEX
  8
0
 10
2.74083
 20
5.07889
 30
0.0
 40
0.0104167
 41
0.0104167
  0
VERTEX
  8
0
 10
2.12196
 20
5.07889
 30
0.0
 40
0.0104167
 41
0.0104167
  0
VERTEX
  8
0
 10
2.12196
 20
5.20389
 30
0.0
 40
0.0104167
 41
0.0104167
  0
SEQEND
 8
0
  0
POLYLINE
  8
0
 62
     0
 66
     1
 10
0
 20
0
 30
0.0
 70
     1
 40
0.75
 41
0.75
  0
VERTEX
  8
0
 10
2.12196
 20
5.07889
 30
0.0
 40
0.0104167
 41
0.0104167
  0
VERTEX
  8
0
 10
2.12196
 20
5.04264
 30
0.0
 40
0.0104167
 41
0.0104167
  0
VERTEX
  8
0
 10
2.13163
 20
4.93386
 30
0.0
 40
0.0104167
 41
0.0104167
  0
VERTEX
  8
0
 10
2.16064
 20
4.80817
 30
0.0
 40
0.0104167
 41
0.0104167
  0
VERTEX
  8
0
 10
2.20899
 20
4.70182
 30
0.0
 40
0.0104167
 41
0.0104167
  0
VERTEX
  8
0
 10
2.27669
 20
4.61475
 30
0.0
 40
0.0104167
 41
0.0104167
  0
VERTEX
  8
0
 10
2.36372
 20
4.5471
 30
0.0
 40
0.0104167
 41
0.0104167
  0
VERTEX
  8
0
 10
2.47006
 20
4.49875
 30
0.0
 40
0.0104167
 41
0.0104167
  0
VERTEX
  8
0
 10
2.59576
 20
4.46972
 30
0.0
 40
0.0104167
 41
0.0104167
  0
VERTEX
  8
0
 10
2.70454
 20
4.46001
 30
0.0
 40
0.0104167
 41
0.0104167
  0
VERTEX
  8
0
 10
2.74083
 20
4.46001
 30
0.0
 40
0.0104167
 41
0.0104167
  0
VERTEX
  8
0
 10
2.74083
 20
5.07889
 30
0.0
 40
0.0104167
 41
0.0104167
  0
VERTEX
  8
0
 10
2.12196
 20
5.07889
 30
0.0
 40
0.0104167
 41
0.0104167
  0
SEQEND
 8
0
  0
POLYLINE
  8
0
 62
     0
 66
     1
 10
0
 20
0
 30
0.0
 70
     1
 40
0
 41
0
  0
VERTEX
  8
0
 10
2.81168
 20
2.66189
 30
0.0
 40
0
 41
0
  0
VERTEX
  8
0
 10
4.76742
 20
2.66189
 30
0.0
 40
0
 41
0
  0
VERTEX
  8
0
 10
4.76742
 20
2.56814
 30
0.0
 40
0
 41
0
  0
VERTEX
  8
0
 10
2.81168
 20
2.56814
 30
0.0
 40
0
 41
0
  0
VERTEX
  8
0
 10
2.81168
 20
2.66189
 30
0.0
 40
0
 41
0
  0
SEQEND
 8
0
  0
POLYLINE
  8
0
 62
     0
 66
     1
 10
0
 20
0
 30
0.0
 70
     1
 40
0.15
 41
0.15
  0
VERTEX
  8
0
 10
2.81168
 20
2.66189
 30
0.0
 40
0.00208333
 41
0.00208333
  0
VERTEX
  8
0
 10
4.76742
 20
2.66189
 30
0.0
 40
0.00208333
 41
0.00208333
  0
VERTEX
  8
0
 10
4.76742
 20
2.56814
 30
0.0
 40
0.00208333
 41
0.00208333
  0
VERTEX
  8
0
 10
2.81168
 20
2.56814
 30
0.0
 40
0.00208333
 41
0.00208333
  0
VERTEX
  8
0
 10
2.81168
 20
2.66189
 30
0.0
 40
0.00208333
 41
0.00208333
  0
SEQEND
 8
0
  0
POLYLINE
  8
0
 62
     7
 66
     1
 10
0
 20
0
 30
0.0
 70
     1
 40
0
 41
0
  0
VERTEX
  8
0
 10
3.60926
 20
2.66189
 30
0.0
 40
0
 41
0
  0
VERTEX
  8
0
 10
4.56218
 20
2.66189
 30
0.0
 40
0
 41
0
  0
VERTEX
  8
0
 10
4.56218
 20
2.56814
 30
0.0
 40
0
 41
0
  0
VERTEX
  8
0
 10
3.60926
 20
2.56814
 30
0.0
 40
0
 41
0
  0
VERTEX
  8
0
 10
3.60926
 20
2.66189
 30
0.0
 40
0
 41
0
  0
SEQEND
 8
0
  0
POLYLINE
  8
0
 62
     0
 66
     1
 10
0
 20
0
 30
0.0
 70
     1
 40
0.75
 41
0.75
  0
VERTEX
  8
0
 10
3.60926
 20
2.66189
 30
0.0
 40
0.0104167
 41
0.0104167
  0
VERTEX
  8
0
 10
4.56218
 20
2.66189
 30
0.0
 40
0.0104167
 41
0.0104167
  0
VERTEX
  8
0
 10
4.56218
 20
2.56814
 30
0.0
 40
0.0104167
 41
0.0104167
  0
VERTEX
  8
0
 10
3.60926
 20
2.56814
 30
0.0
 40
0.0104167
 41
0.0104167
  0
VERTEX
  8
0
 10
3.60926
 20
2.66189
 30
0.0
 40
0.0104167
 41
0.0104167
  0
SEQEND
 8
0
  0
POLYLINE
  8
0
 62
     7
 66
     1
 10
0
 20
0
 30
0.0
 70
     1
 40
0
 41
0
  0
VERTEX
  8
0
 10
3.60926
 20
2.66189
 30
0.0
 40
0
 41
0
  0
VERTEX
  8
0
 10
4.56218
 20
2.66189
 30
0.0
 40
0
 41
0
  0
VERTEX
  8
0
 10
4.56218
 20
2.56814
 30
0.0
 40
0
 41
0
  0
VERTEX
  8
0
 10
3.60926
 20
2.56814
 30
0.0
 40
0
 41
0
  0
VERTEX
  8
0
 10
3.60926
 20
2.66189
 30
0.0
 40
0
 41
0
  0
SEQEND
 8
0
  0
POLYLINE
  8
0
 62
     0
 66
     1
 10
0
 20
0
 30
0.0
 70
     1
 40
0.75
 41
0.75
  0
VERTEX
  8
0
 10
3.60926
 20
2.66189
 30
0.0
 40
0.0104167
 41
0.0104167
  0
VERTEX
  8
0
 10
4.56218
 20
2.66189
 30
0.0
 40
0.0104167
 41
0.0104167
  0
VERTEX
  8
0
 10
4.56218
 20
2.56814
 30
0.0
 40
0.0104167
 41
0.0104167
  0
VERTEX
  8
0
 10
3.60926
 20
2.56814
 30
0.0
 40
0.0104167
 41
0.0104167
  0
VERTEX
  8
0
 10
3.60926
 20
2.66189
 30
0.0
 40
0.0104167
 41
0.0104167
  0
SEQEND
 8
0
  0
POLYLINE
  8
0
 62
     0
 66
     1
 10
0
 20
0
 30
0.0
 70
     1
 40
0.75
 41
0.75
  0
VERTEX
  8
0
 10
3.60926
 20
2.56814
 30
0.0
 40
0.0104167
 41
0.0104167
  0
VERTEX
  8
0
 10
3.60926
 20
2.51232
 30
0.0
 40
0.0104167
 41
0.0104167
  0
VERTEX
  8
0
 10
3.62414
 20
2.34483
 30
0.0
 40
0.0104167
 41
0.0104167
  0
VERTEX
  8
0
 10
3.66878
 20
2.15126
 30
0.0
 40
0.0104167
 41
0.0104167
  0
VERTEX
  8
0
 10
3.74328
 20
1.98753
 30
0.0
 40
0.0104167
 41
0.0104167
  0
VERTEX
  8
0
 10
3.8475
 20
1.85351
 30
0.0
 40
0.0104167
 41
0.0104167
  0
VERTEX
  8
0
 10
3.9815
 20
1.74929
 30
0.0
 40
0.0104167
 41
0.0104167
  0
VERTEX
  8
0
 10
4.14524
 20
1.67481
 30
0.0
 40
0.0104167
 41
0.0104167
  0
VERTEX
  8
0
 10
4.33882
 20
1.63015
 30
0.0
 40
0.0104167
 41
0.0104167
  0
VERTEX
  8
0
 10
4.50629
 20
1.61524
 30
0.0
 40
0.0104167
 41
0.0104167
  0
VERTEX
  8
0
 10
4.56218
 20
1.61524
 30
0.0
 40
0.0104167
 41
0.0104167
  0
VERTEX
  8
0
 10
4.56218
 20
2.56814
 30
0.0
 40
0.0104167
 41
0.0104167
  0
VERTEX
  8
0
 10
3.60926
 20
2.56814
 30
0.0
 40
0.0104167
 41
0.0104167
  0
SEQEND
 8
0
  0
POLYLINE
  8
0
 62
     0
 66
     1
 10
0
 20
0
 30
0.0
 70
     1
 40
0
 41
0
  0
VERTEX
  8
0
 10
7.58333
 20
6.54568
 30
0.0
 40
0
 41
0
  0
VERTEX
  8
0
 10
7.6976
 20
6.54568
 30
0.0
 40
0
 41
0
  0
VERTEX
  8
0
 10
7.6976
 20
5.18044
 30
0.0
 40
0
 41
0
  0
VERTEX
  8
0
 10
7.58333
 20
5.18044
 30
0.0
 40
0
 41
0
  0
VERTEX
  8
0
 10
7.58333
 20
6.54568
 30
0.0
 40
0
 41
0
  0
SEQEND
 8
0
  0
POLYLINE
  8
0
 62
     0
 66
     1
 10
0
 20
0
 30
0.0
 70
     1
 40
0.15
 41
0.15
  0
VERTEX
  8
0
 10
7.58333
 20
6.54568
 30
0.0
 40
0.00208333
 41
0.00208333
  0
VERTEX
  8
0
 10
7.6976
 20
6.54568
 30
0.0
 40
0.00208333
 41
0.00208333
  0
VERTEX
  8
0
 10
7.6976
 20
5.18044
 30
0.0
 40
0.00208333
 41
0.00208333
  0
VERTEX
  8
0
 10
7.58333
 20
5.18044
 30
0.0
 40
0.00208333
 41
0.00208333
  0
VERTEX
  8
0
 10
7.58333
 20
6.54568
 30
0.0
 40
0.00208333
 41
0.00208333
  0
SEQEND
 8
0
  0
POLYLINE
  8
0
 62
     0
 66
     1
 10
0
 20
0
 30
0.0
 70
     1
 40
0
 41
0
  0
VERTEX
  8
0
 10
4.632
 20
5.18044
 30
0.0
 40
0
 41
0
  0
VERTEX
  8
0
 10
7.58333
 20
5.18044
 30
0.0
 40
0
 41
0
  0
VERTEX
  8
0
 10
7.58333
 20
5.06586
 30
0.0
 40
0
 41
0
  0
VERTEX
  8
0
 10
4.632
 20
5.06586
 30
0.0
 40
0
 41
0
  0
VERTEX
  8
0
 10
4.632
 20
5.18044
 30
0.0
 40
0
 41
0
  0
SEQEND
 8
0
  0
POLYLINE
  8
0
 62
     0
 66
     1
 10
0
 20
0
 30
0.0
 70
     1
 40
0.15
 41
0.15
  0
VERTEX
  8
0
 10
4.632
 20
5.18044
 30
0.0
 40
0.00208333
 41
0.00208333
  0
VERTEX
  8
0
 10
7.58333
 20
5.18044
 30
0.0
 40
0.00208333
 41
0.00208333
  0
VERTEX
  8
0
 10
7.58333
 20
5.06586
 30
0.0
 40
0.00208333
 41
0.00208333
  0
VERTEX
  8
0
 10
4.632
 20
5.06586
 30
0.0
 40
0.00208333
 41
0.00208333
  0
VERTEX
  8
0
 10
4.632
 20
5.18044
 30
0.0
 40
0.00208333
 41
0.00208333
  0
SEQEND
 8
0
  0
POLYLINE
  8
0
 62
     7
 66
     1
 10
0
 20
0
 30
0.0
 70
     1
 40
0
 41
0
  0
VERTEX
  8
0
 10
6.53396
 20
5.18044
 30
0.0
 40
0
 41
0
  0
VERTEX
  8
0
 10
7.16721
 20
5.18044
 30
0.0
 40
0
 41
0
  0
VERTEX
  8
0
 10
7.16721
 20
5.06586
 30
0.0
 40
0
 41
0
  0
VERTEX
  8
0
 10
6.53396
 20
5.06586
 30
0.0
 40
0
 41
0
  0
VERTEX
  8
0
 10
6.53396
 20
5.18044
 30
0.0
 40
0
 41
0
  0
SEQEND
 8
0
  0
POLYLINE
  8
0
 62
     0
 66
     1
 10
0
 20
0
 30
0.0
 70
     1
 40
0.75
 41
0.75
  0
VERTEX
  8
0
 10
6.53396
 20
5.18044
 30
0.0
 40
0.0104167
 41
0.0104167
  0
VERTEX
  8
0
 10
7.16721
 20
5.18044
 30
0.0
 40
0.0104167
 41
0.0104167
  0
VERTEX
  8
0
 10
7.16721
 20
5.06586
 30
0.0
 40
0.0104167
 41
0.0104167
  0
VERTEX
  8
0
 10
6.53396
 20
5.06586
 30
0.0
 40
0.0104167
 41
0.0104167
  0
VERTEX
  8
0
 10
6.53396
 20
5.18044
 30
0.0
 40
0.0104167
 41
0.0104167
  0
SEQEND
 8
0
  0
POLYLINE
  8
0
 62
     7
 66
     1
 10
0
 20
0
 30
0.0
 70
     1
 40
0
 41
0
  0
VERTEX
  8
0
 10
6.53396
 20
5.18044
 30
0.0
 40
0
 41
0
  0
VERTEX
  8
0
 10
7.16721
 20
5.18044
 30
0.0
 40
0
 41
0
  0
VERTEX
  8
0
 10
7.16721
 20
5.06586
 30
0.0
 40
0
 41
0
  0
VERTEX
  8
0
 10
6.53396
 20
5.06586
 30
0.0
 40
0
 41
0
  0
VERTEX
  8
0
 10
6.53396
 20
5.18044
 30
0.0
 40
0
 41
0
  0
SEQEND
 8
0
  0
POLYLINE
  8
0
 62
     0
 66
     1
 10
0
 20
0
 30
0.0
 70
     1
 40
0.75
 41
0.75
  0
VERTEX
  8
0
 10
6.53396
 20
5.18044
 30
0.0
 40
0.0104167
 41
0.0104167
  0
VERTEX
  8
0
 10
7.16721
 20
5.18044
 30
0.0
 40
0.0104167
 41
0.0104167
  0
VERTEX
  8
0
 10
7.16721
 20
5.06586
 30
0.0
 40
0.0104167
 41
0.0104167
  0
VERTEX
  8
0
 10
6.53396
 20
5.06586
 30
0.0
 40
0.0104167
 41
0.0104167
  0
VERTEX
  8
0
 10
6.53396
 20
5.18044
 30
0.0
 40
0.0104167
 41
0.0104167
  0
SEQEND
 8
0
  0
POLYLINE
  8
0
 62
     0
 66
     1
 10
0
 20
0
 30
0.0
 70
     1
 40
0.75
 41
0.75
  0
VERTEX
  8
0
 10
6.53396
 20
5.06586
 30
0.0
 40
0.0104167
 41
0.0104167
  0
VERTEX
  8
0
 10
6.53396
 20
5.02881
 30
0.0
 40
0.0104167
 41
0.0104167
  0
VERTEX
  8
0
 10
6.54383
 20
4.91749
 30
0.0
 40
0.0104167
 41
0.0104167
  0
VERTEX
  8
0
 10
6.57351
 20
4.78885
 30
0.0
 40
0.0104167
 41
0.0104167
  0
VERTEX
  8
0
 10
6.62299
 20
4.68001
 30
0.0
 40
0.0104167
 41
0.0104167
  0
VERTEX
  8
0
 10
6.69222
 20
4.59099
 30
0.0
 40
0.0104167
 41
0.0104167
  0
VERTEX
  8
0
 10
6.78131
 20
4.52171
 30
0.0
 40
0.0104167
 41
0.0104167
  0
VERTEX
  8
0
 10
6.89014
 20
4.47222
 30
0.0
 40
0.0104167
 41
0.0104167
  0
VERTEX
  8
0
 10
7.01878
 20
4.44254
 30
0.0
 40
0.0104167
 41
0.0104167
  0
VERTEX
  8
0
 10
7.1301
 20
4.43261
 30
0.0
 40
0.0104167
 41
0.0104167
  0
VERTEX
  8
0
 10
7.16721
 20
4.43261
 30
0.0
 40
0.0104167
 41
0.0104167
  0
VERTEX
  8
0
 10
7.16721
 20
5.06586
 30
0.0
 40
0.0104167
 41
0.0104167
  0
VERTEX
  8
0
 10
6.53396
 20
5.06586
 30
0.0
 40
0.0104167
 41
0.0104167
  0
SEQEND
 8
0
  0
POLYLINE
  8
0
 62
     0
 66
     1
 10
0
 20
0
 30
0.0
 70
     1
 40
0
 41
0
  0
VERTEX
  8
0
 10
7.6976
 20
5.18044
 30
0.0
 40
0
 41
0
  0
VERTEX
  8
0
 10
7.6976
 20
0.927029
 30
0.0
 40
0
 41
0
  0
VERTEX
  8
0
 10
7.36561
 20
1.24984
 30
0.0
 40
0
 41
0
  0
VERTEX
  8
0
 10
7.36561
 20
5.18044
 30
0.0
 40
0
 41
0
  0
VERTEX
  8
0
 10
7.6976
 20
5.18044
 30
0.0
 40
0
 41
0
  0
SEQEND
 8
0
  0
POLYLINE
  8
0
 62
     0
 66
     1
 10
0
 20
0
 30
0.0
 70
     1
 40
0.15
 41
0.15
  0
VERTEX
  8
0
 10
7.6976
 20
5.18044
 30
0.0
 40
0.00208333
 41
0.00208333
  0
VERTEX
  8
0
 10
7.6976
 20
0.927029
 30
0.0
 40
0.00208333
 41
0.00208333
  0
VERTEX
  8
0
 10
7.36561
 20
1.24984
 30
0.0
 40
0.00208333
 41
0.00208333
  0
VERTEX
  8
0
 10
7.36561
 20
5.18044
 30
0.0
 40
0.00208333
 41
0.00208333
  0
VERTEX
  8
0
 10
7.6976
 20
5.18044
 30
0.0
 40
0.00208333
 41
0.00208333
  0
SEQEND
 8
0
  0
POLYLINE
  8
0
 62
     0
 66
     1
 10
0
 20
0
 30
0.0
 70
     1
 40
0
 41
0
  0
VERTEX
  8
0
 10
7.6976
 20
0.927029
 30
0.0
 40
0
 41
0
  0
VERTEX
  8
0
 10
4.632
 20
0.926053
 30
0.0
 40
0
 41
0
  0
VERTEX
  8
0
 10
4.76742
 20
1.24897
 30
0.0
 40
0
 41
0
  0
VERTEX
  8
0
 10
7.36561
 20
1.24984
 30
0.0
 40
0
 41
0
  0
VERTEX
  8
0
 10
7.6976
 20
0.927029
 30
0.0
 40
0
 41
0
  0
SEQEND
 8
0
  0
POLYLINE
  8
0
 62
     0
 66
     1
 10
0
 20
0
 30
0.0
 70
     1
 40
0.15
 41
0.15
  0
VERTEX
  8
0
 10
7.6976
 20
0.927029
 30
0.0
 40
0.00208333
 41
0.00208333
  0
VERTEX
  8
0
 10
4.632
 20
0.926053
 30
0.0
 40
0.00208333
 41
0.00208333
  0
VERTEX
  8
0
 10
4.76742
 20
1.24897
 30
0.0
 40
0.00208333
 41
0.00208333
  0
VERTEX
  8
0
 10
7.36561
 20
1.24984
 30
0.0
 40
0.00208333
 41
0.00208333
  0
VERTEX
  8
0
 10
7.6976
 20
0.927029
 30
0.0
 40
0.00208333
 41
0.00208333
  0
SEQEND
 8
0
  0
POLYLINE
  8
0
 62
     7
 66
     1
 10
0
 20
0
 30
0.0
 70
     1
 40
0
 41
0
  0
VERTEX
  8
0
 10
6.30935
 20
0.926594
 30
0.0
 40
0
 41
0
  0
VERTEX
  8
0
 10
4.78033
 20
0.926053
 30
0.0
 40
0
 41
0
  0
VERTEX
  8
0
 10
4.78022
 20
1.24897
 30
0.0
 40
0
 41
0
  0
VERTEX
  8
0
 10
6.30925
 20
1.24951
 30
0.0
 40
0
 41
0
  0
VERTEX
  8
0
 10
6.30935
 20
0.926594
 30
0.0
 40
0
 41
0
  0
SEQEND
 8
0
  0
POLYLINE
  8
0
 62
     0
 66
     1
 10
0
 20
0
 30
0.0
 70
     1
 40
0.75
 41
0.75
  0
VERTEX
  8
0
 10
6.30935
 20
0.926594
 30
0.0
 40
0.0104167
 41
0.0104167
  0
VERTEX
  8
0
 10
4.78033
 20
0.926053
 30
0.0
 40
0.0104167
 41
0.0104167
  0
VERTEX
  8
0
 10
4.78022
 20
1.24897
 30
0.0
 40
0.0104167
 41
0.0104167
  0
VERTEX
  8
0
 10
6.30925
 20
1.24951
 30
0.0
 40
0.0104167
 41
0.0104167
  0
VERTEX
  8
0
 10
6.30935
 20
0.926594
 30
0.0
 40
0.0104167
 41
0.0104167
  0
SEQEND
 8
0
  0
POLYLINE
  8
0
 62
     7
 66
     1
 10
0
 20
0
 30
0.0
 70
     1
 40
0
 41
0
  0
VERTEX
  8
0
 10
6.30935
 20
0.926594
 30
0.0
 40
0
 41
0
  0
VERTEX
  8
0
 10
4.78033
 20
0.926053
 30
0.0
 40
0
 41
0
  0
VERTEX
  8
0
 10
4.78022
 20
1.24897
 30
0.0
 40
0
 41
0
  0
VERTEX
  8
0
 10
6.30925
 20
1.24951
 30
0.0
 40
0
 41
0
  0
VERTEX
  8
0
 10
6.30935
 20
0.926594
 30
0.0
 40
0
 41
0
  0
SEQEND
 8
0
  0
POLYLINE
  8
0
 62
     0
 66
     1
 10
0
 20
0
 30
0.0
 70
     1
 40
0.75
 41
0.75
  0
VERTEX
  8
0
 10
6.30935
 20
0.926594
 30
0.0
 40
0.0104167
 41
0.0104167
  0
VERTEX
  8
0
 10
4.78033
 20
0.926053
 30
0.0
 40
0.0104167
 41
0.0104167
  0
VERTEX
  8
0
 10
4.78022
 20
1.24897
 30
0.0
 40
0.0104167
 41
0.0104167
  0
VERTEX
  8
0
 10
6.30925
 20
1.24951
 30
0.0
 40
0.0104167
 41
0.0104167
  0
VERTEX
  8
0
 10
6.30935
 20
0.926594
 30
0.0
 40
0.0104167
 41
0.0104167
  0
SEQEND
 8
0
  0
POLYLINE
  8
0
 62
     7
 66
     1
 10
0
 20
0
 30
0.0
 70
     1
 40
0
 41
0
  0
VERTEX
  8
0
 10
6.23118
 20
1.088
 30
0.0
 40
0
 41
0
  0
VERTEX
  8
0
 10
4.85835
 20
1.08762
 30
0.0
 40
0
 41
0
  0
SEQEND
 8
0
  0
POLYLINE
  8
0
 62
     0
 66
     1
 10
0
 20
0
 30
0.0
 40
0.75
 41
0.75
  0
VERTEX
  8
0
 10
6.23118
 20
1.088
 30
0.0
 40
0.0104167
 41
0.0104167
  0
VERTEX
  8
0
 10
4.85835
 20
1.08762
 30
0.0
 40
0.0104167
 41
0.0104167
  0
SEQEND
 8
0
  0
POLYLINE
  8
0
 62
     7
 66
     1
 10
0
 20
0
 30
0.0
 70
     1
 40
0
 41
0
  0
VERTEX
  8
0
 10
6.23118
 20
0.92654
 30
0.0
 40
0
 41
0
  0
VERTEX
  8
0
 10
6.23112
 20
1.24946
 30
0.0
 40
0
 41
0
  0
SEQEND
 8
0
  0
POLYLINE
  8
0
 62
     0
 66
     1
 10
0
 20
0
 30
0.0
 40
0.75
 41
0.75
  0
VERTEX
  8
0
 10
6.23118
 20
0.92654
 30
0.0
 40
0.0104167
 41
0.0104167
  0
VERTEX
  8
0
 10
6.23112
 20
1.24946
 30
0.0
 40
0.0104167
 41
0.0104167
  0
SEQEND
 8
0
  0
POLYLINE
  8
0
 62
     7
 66
     1
 10
0
 20
0
 30
0.0
 70
     1
 40
0
 41
0
  0
VERTEX
  8
0
 10
4.8584
 20
0.926161
 30
0.0
 40
0
 41
0
  0
VERTEX
  8
0
 10
4.85829
 20
1.24902
 30
0.0
 40
0
 41
0
  0
SEQEND
 8
0
  0
POLYLINE
  8
0
 62
     0
 66
     1
 10
0
 20
0
 30
0.0
 40
0.75
 41
0.75
  0
VERTEX
  8
0
 10
4.8584
 20
0.926161
 30
0.0
 40
0.0104167
 41
0.0104167
  0
VERTEX
  8
0
 10
4.85829
 20
1.24902
 30
0.0
 40
0.0104167
 41
0.0104167
  0
SEQEND
 8
0
  0
POLYLINE
  8
0
 62
     0
 66
     1
 10
0
 20
0
 30
0.0
 70
     1
 40
0
 41
0
  0
VERTEX
  8
0
 10
6.04508
 20
6.54568
 30
0.0
 40
0
 41
0
  0
VERTEX
  8
0
 10
6.47564
 20
6.54568
 30
0.0
 40
0
 41
0
  0
VERTEX
  8
0
 10
6.47564
 20
6.1811
 30
0.0
 40
0
 41
0
  0
VERTEX
  8
0
 10
6.14925
 20
6.1811
 30
0.0
 40
0
 41
0
  0
VERTEX
  8
0
 10
6.04508
 20
6.54568
 30
0.0
 40
0
 41
0
  0
SEQEND
 8
0
  0
POLYLINE
  8
0
 62
     0
 66
     1
 10
0
 20
0
 30
0.0
 70
     1
 40
0.15
 41
0.15
  0
VERTEX
  8
0
 10
6.04508
 20
6.54568
 30
0.0
 40
0.00208333
 41
0.00208333
  0
VERTEX
  8
0
 10
6.47564
 20
6.54568
 30
0.0
 40
0.00208333
 41
0.00208333
  0
VERTEX
  8
0
 10
6.47564
 20
6.1811
 30
0.0
 40
0.00208333
 41
0.00208333
  0
VERTEX
  8
0
 10
6.14925
 20
6.1811
 30
0.0
 40
0.00208333
 41
0.00208333
  0
VERTEX
  8
0
 10
6.04508
 20
6.54568
 30
0.0
 40
0.00208333
 41
0.00208333
  0
SEQEND
 8
0
  0
POLYLINE
  8
0
 62
     0
 66
     1
 10
0
 20
0
 30
0.0
 70
     1
 40
0
 41
0
  0
VERTEX
  8
0
 10
6.04508
 20
6.54568
 30
0.0
 40
0
 41
0
  0
VERTEX
  8
0
 10
6.04508
 20
5.06586
 30
0.0
 40
0
 41
0
  0
VERTEX
  8
0
 10
6.14925
 20
5.06586
 30
0.0
 40
0
 41
0
  0
VERTEX
  8
0
 10
6.14925
 20
6.1811
 30
0.0
 40
0
 41
0
  0
VERTEX
  8
0
 10
6.04508
 20
6.54568
 30
0.0
 40
0
 41
0
  0
SEQEND
 8
0
  0
POLYLINE
  8
0
 62
     0
 66
     1
 10
0
 20
0
 30
0.0
 70
     1
 40
0.15
 41
0.15
  0
VERTEX
  8
0
 10
6.04508
 20
6.54568
 30
0.0
 40
0.00208333
 41
0.00208333
  0
VERTEX
  8
0
 10
6.04508
 20
5.06586
 30
0.0
 40
0.00208333
 41
0.00208333
  0
VERTEX
  8
0
 10
6.14925
 20
5.06586
 30
0.0
 40
0.00208333
 41
0.00208333
  0
VERTEX
  8
0
 10
6.14925
 20
6.1811
 30
0.0
 40
0.00208333
 41
0.00208333
  0
VERTEX
  8
0
 10
6.04508
 20
6.54568
 30
0.0
 40
0.00208333
 41
0.00208333
  0
SEQEND
 8
0
  0
POLYLINE
  8
0
 62
     7
 66
     1
 10
0
 20
0
 30
0.0
 70
     1
 40
0
 41
0
  0
VERTEX
  8
0
 10
3.37967
 20
11.3637
 30
0.0
 40
0
 41
0
  0
VERTEX
  8
0
 10
3.37967
 20
12.8921
 30
0.0
 40
0
 41
0
  0
VERTEX
  8
0
 10
3.47342
 20
12.7984
 30
0.0
 40
0
 41
0
  0
VERTEX
  8
0
 10
3.47342
 20
11.3637
 30
0.0
 40
0
 41
0
  0
VERTEX
  8
0
 10
3.37967
 20
11.3637
 30
0.0
 40
0
 41
0
  0
SEQEND
 8
0
  0
POLYLINE
  8
0
 62
     0
 66
     1
 10
0
 20
0
 30
0.0
 70
     1
 40
0.15
 41
0.15
  0
VERTEX
  8
0
 10
3.37967
 20
11.3637
 30
0.0
 40
0.00208333
 41
0.00208333
  0
VERTEX
  8
0
 10
3.37967
 20
12.8921
 30
0.0
 40
0.00208333
 41
0.00208333
  0
VERTEX
  8
0
 10
3.47342
 20
12.7984
 30
0.0
 40
0.00208333
 41
0.00208333
  0
VERTEX
  8
0
 10
3.47342
 20
11.3637
 30
0.0
 40
0.00208333
 41
0.00208333
  0
VERTEX
  8
0
 10
3.37967
 20
11.3637
 30
0.0
 40
0.00208333
 41
0.00208333
  0
SEQEND
 8
0
  0
POLYLINE
  8
0
 62
     7
 66
     1
 10
0
 20
0
 30
0.0
 70
     1
 40
0
 41
0
  0
VERTEX
  8
0
 10
3.37967
 20
12.8921
 30
0.0
 40
0
 41
0
  0
VERTEX
  8
0
 10
6.96024
 20
12.8921
 30
0.0
 40
0
 41
0
  0
VERTEX
  8
0
 10
6.86649
 20
12.7984
 30
0.0
 40
0
 41
0
  0
VERTEX
  8
0
 10
3.47342
 20
12.7984
 30
0.0
 40
0
 41
0
  0
VERTEX
  8
0
 10
3.37967
 20
12.8921
 30
0.0
 40
0
 41
0
  0
SEQEND
 8
0
  0
POLYLINE
  8
0
 62
     0
 66
     1
 10
0
 20
0
 30
0.0
 70
     1
 40
0.15
 41
0.15
  0
VERTEX
  8
0
 10
3.37967
 20
12.8921
 30
0.0
 40
0.00208333
 41
0.00208333
  0
VERTEX
  8
0
 10
6.96024
 20
12.8921
 30
0.0
 40
0.00208333
 41
0.00208333
  0
VERTEX
  8
0
 10
6.86649
 20
12.7984
 30
0.0
 40
0.00208333
 41
0.00208333
  0
VERTEX
  8
0
 10
3.47342
 20
12.7984
 30
0.0
 40
0.00208333
 41
0.00208333
  0
VERTEX
  8
0
 10
3.37967
 20
12.8921
 30
0.0
 40
0.00208333
 41
0.00208333
  0
SEQEND
 8
0
  0
POLYLINE
  8
0
 62
     7
 66
     1
 10
0
 20
0
 30
0.0
 70
     1
 40
0
 41
0
  0
VERTEX
  8
0
 10
6.96024
 20
12.8921
 30
0.0
 40
0
 41
0
  0
VERTEX
  8
0
 10
6.96024
 20
11.3637
 30
0.0
 40
0
 41
0
  0
VERTEX
  8
0
 10
6.86649
 20
11.3637
 30
0.0
 40
0
 41
0
  0
VERTEX
  8
0
 10
6.86649
 20
12.7984
 30
0.0
 40
0
 41
0
  0
VERTEX
  8
0
 10
6.96024
 20
12.8921
 30
0.0
 40
0
 41
0
  0
SEQEND
 8
0
  0
POLYLINE
  8
0
 62
     0
 66
     1
 10
0
 20
0
 30
0.0
 70
     1
 40
0.15
 41
0.15
  0
VERTEX
  8
0
 10
6.96024
 20
12.8921
 30
0.0
 40
0.00208333
 41
0.00208333
  0
VERTEX
  8
0
 10
6.96024
 20
11.3637
 30
0.0
 40
0.00208333
 41
0.00208333
  0
VERTEX
  8
0
 10
6.86649
 20
11.3637
 30
0.0
 40
0.00208333
 41
0.00208333
  0
VERTEX
  8
0
 10
6.86649
 20
12.7984
 30
0.0
 40
0.00208333
 41
0.00208333
  0
VERTEX
  8
0
 10
6.96024
 20
12.8921
 30
0.0
 40
0.00208333
 41
0.00208333
  0
SEQEND
 8
0
  0
POLYLINE
  8
0
 62
     7
 66
     1
 10
0
 20
0
 30
0.0
 70
     1
 40
0
 41
0
  0
VERTEX
  8
0
 10
1.10183
 20
1.76053
 30
0.0
 40
0
 41
0
  0
VERTEX
  8
0
 10
2.81164
 20
1.76053
 30
0.0
 40
0
 41
0
  0
VERTEX
  8
0
 10
2.81164
 20
1.26074
 30
0.0
 40
0
 41
0
  0
VERTEX
  8
0
 10
1.10183
 20
1.26074
 30
0.0
 40
0
 41
0
  0
VERTEX
  8
0
 10
1.10183
 20
1.76053
 30
0.0
 40
0
 41
0
  0
SEQEND
 8
0
  0
POLYLINE
  8
0
 62
     0
 66
     1
 10
0
 20
0
 30
0.0
 70
     1
 40
0.75
 41
0.75
  0
VERTEX
  8
0
 10
1.10183
 20
1.76053
 30
0.0
 40
0.0104167
 41
0.0104167
  0
VERTEX
  8
0
 10
2.81164
 20
1.76053
 30
0.0
 40
0.0104167
 41
0.0104167
  0
VERTEX
  8
0
 10
2.81164
 20
1.26074
 30
0.0
 40
0.0104167
 41
0.0104167
  0
VERTEX
  8
0
 10
1.10183
 20
1.26074
 30
0.0
 40
0.0104167
 41
0.0104167
  0
VERTEX
  8
0
 10
1.10183
 20
1.76053
 30
0.0
 40
0.0104167
 41
0.0104167
  0
SEQEND
 8
0
  0
POLYLINE
  8
0
 62
     253
 66
     1
 10
0
 20
0
 30
0.0
 40
0.375
 41
0.375
  0
VERTEX
  8
0
 10
2.81164
 20
1.29405
 30
0.0
 40
0.00520833
 41
0.00520833
  0
VERTEX
  8
0
 10
1.10189
 20
1.29405
 30
0.0
 40
0.00520833
 41
0.00520833
  0
SEQEND
 8
0
  0
POLYLINE
  8
0
 62
     253
 66
     1
 10
0
 20
0
 30
0.0
 40
0.375
 41
0.375
  0
VERTEX
  8
0
 10
2.81164
 20
1.32737
 30
0.0
 40
0.00520833
 41
0.00520833
  0
VERTEX
  8
0
 10
1.10189
 20
1.32737
 30
0.0
 40
0.00520833
 41
0.00520833
  0
SEQEND
 8
0
  0
POLYLINE
  8
0
 62
     253
 66
     1
 10
0
 20
0
 30
0.0
 40
0.375
 41
0.375
  0
VERTEX
  8
0
 10
2.81164
 20
1.36068
 30
0.0
 40
0.00520833
 41
0.00520833
  0
VERTEX
  8
0
 10
1.10189
 20
1.36068
 30
0.0
 40
0.00520833
 41
0.00520833
  0
SEQEND
 8
0
  0
POLYLINE
  8
0
 62
     253
 66
     1
 10
0
 20
0
 30
0.0
 40
0.375
 41
0.375
  0
VERTEX
  8
0
 10
2.81164
 20
1.39399
 30
0.0
 40
0.00520833
 41
0.00520833
  0
VERTEX
  8
0
 10
1.10189
 20
1.39399
 30
0.0
 40
0.00520833
 41
0.00520833
  0
SEQEND
 8
0
  0
POLYLINE
  8
0
 62
     253
 66
     1
 10
0
 20
0
 30
0.0
 40
0.375
 41
0.375
  0
VERTEX
  8
0
 10
2.81164
 20
1.42731
 30
0.0
 40
0.00520833
 41
0.00520833
  0
VERTEX
  8
0
 10
1.10189
 20
1.42731
 30
0.0
 40
0.00520833
 41
0.00520833
  0
SEQEND
 8
0
  0
POLYLINE
  8
0
 62
     253
 66
     1
 10
0
 20
0
 30
0.0
 40
0.375
 41
0.375
  0
VERTEX
  8
0
 10
2.81164
 20
1.46067
 30
0.0
 40
0.00520833
 41
0.00520833
  0
VERTEX
  8
0
 10
1.10189
 20
1.46067
 30
0.0
 40
0.00520833
 41
0.00520833
  0
SEQEND
 8
0
  0
POLYLINE
  8
0
 62
     253
 66
     1
 10
0
 20
0
 30
0.0
 40
0.375
 41
0.375
  0
VERTEX
  8
0
 10
2.81164
 20
1.49397
 30
0.0
 40
0.00520833
 41
0.00520833
  0
VERTEX
  8
0
 10
1.10189
 20
1.49397
 30
0.0
 40
0.00520833
 41
0.00520833
  0
SEQEND
 8
0
  0
POLYLINE
  8
0
 62
     253
 66
     1
 10
0
 20
0
 30
0.0
 40
0.375
 41
0.375
  0
VERTEX
  8
0
 10
2.81164
 20
1.52729
 30
0.0
 40
0.00520833
 41
0.00520833
  0
VERTEX
  8
0
 10
1.10189
 20
1.52729
 30
0.0
 40
0.00520833
 41
0.00520833
  0
SEQEND
 8
0
  0
POLYLINE
  8
0
 62
     253
 66
     1
 10
0
 20
0
 30
0.0
 40
0.375
 41
0.375
  0
VERTEX
  8
0
 10
2.81164
 20
1.5606
 30
0.0
 40
0.00520833
 41
0.00520833
  0
VERTEX
  8
0
 10
1.10189
 20
1.5606
 30
0.0
 40
0.00520833
 41
0.00520833
  0
SEQEND
 8
0
  0
POLYLINE
  8
0
 62
     253
 66
     1
 10
0
 20
0
 30
0.0
 40
0.375
 41
0.375
  0
VERTEX
  8
0
 10
2.81164
 20
1.59392
 30
0.0
 40
0.00520833
 41
0.00520833
  0
VERTEX
  8
0
 10
1.10189
 20
1.59392
 30
0.0
 40
0.00520833
 41
0.00520833
  0
SEQEND
 8
0
  0
POLYLINE
  8
0
 62
     253
 66
     1
 10
0
 20
0
 30
0.0
 40
0.375
 41
0.375
  0
VERTEX
  8
0
 10
2.81164
 20
1.62722
 30
0.0
 40
0.00520833
 41
0.00520833
  0
VERTEX
  8
0
 10
1.10189
 20
1.62722
 30
0.0
 40
0.00520833
 41
0.00520833
  0
SEQEND
 8
0
  0
POLYLINE
  8
0
 62
     253
 66
     1
 10
0
 20
0
 30
0.0
 40
0.375
 41
0.375
  0
VERTEX
  8
0
 10
2.81164
 20
1.66054
 30
0.0
 40
0.00520833
 41
0.00520833
  0
VERTEX
  8
0
 10
1.10189
 20
1.66054
 30
0.0
 40
0.00520833
 41
0.00520833
  0
SEQEND
 8
0
  0
POLYLINE
  8
0
 62
     253
 66
     1
 10
0
 20
0
 30
0.0
 40
0.375
 41
0.375
  0
VERTEX
  8
0
 10
2.81164
 20
1.6939
 30
0.0
 40
0.00520833
 41
0.00520833
  0
VERTEX
  8
0
 10
1.10189
 20
1.6939
 30
0.0
 40
0.00520833
 41
0.00520833
  0
SEQEND
 8
0
  0
POLYLINE
  8
0
 62
     253
 66
     1
 10
0
 20
0
 30
0.0
 40
0.375
 41
0.375
  0
VERTEX
  8
0
 10
2.81164
 20
1.72721
 30
0.0
 40
0.00520833
 41
0.00520833
  0
VERTEX
  8
0
 10
1.10189
 20
1.72721
 30
0.0
 40
0.00520833
 41
0.00520833
  0
SEQEND
 8
0
  0
POLYLINE
  8
0
 62
     7
 66
     1
 10
0
 20
0
 30
0.0
 70
     1
 40
0
 41
0
  0
VERTEX
  8
0
 10
1.10183
 20
2.09375
 30
0.0
 40
0
 41
0
  0
VERTEX
  8
0
 10
2.81164
 20
2.09375
 30
0.0
 40
0
 41
0
  0
VERTEX
  8
0
 10
2.81164
 20
1.76053
 30
0.0
 40
0
 41
0
  0
VERTEX
  8
0
 10
1.10183
 20
1.76053
 30
0.0
 40
0
 41
0
  0
VERTEX
  8
0
 10
1.10183
 20
2.09375
 30
0.0
 40
0
 41
0
  0
SEQEND
 8
0
  0
POLYLINE
  8
0
 62
     0
 66
     1
 10
0
 20
0
 30
0.0
 70
     1
 40
0.75
 41
0.75
  0
VERTEX
  8
0
 10
1.10183
 20
2.09375
 30
0.0
 40
0.0104167
 41
0.0104167
  0
VERTEX
  8
0
 10
2.81164
 20
2.09375
 30
0.0
 40
0.0104167
 41
0.0104167
  0
VERTEX
  8
0
 10
2.81164
 20
1.76053
 30
0.0
 40
0.0104167
 41
0.0104167
  0
VERTEX
  8
0
 10
1.10183
 20
1.76053
 30
0.0
 40
0.0104167
 41
0.0104167
  0
VERTEX
  8
0
 10
1.10183
 20
2.09375
 30
0.0
 40
0.0104167
 41
0.0104167
  0
SEQEND
 8
0
  0
POLYLINE
  8
0
 62
     253
 66
     1
 10
0
 20
0
 30
0.0
 40
0.375
 41
0.375
  0
VERTEX
  8
0
 10
2.81164
 20
1.79383
 30
0.0
 40
0.00520833
 41
0.00520833
  0
VERTEX
  8
0
 10
1.10189
 20
1.79383
 30
0.0
 40
0.00520833
 41
0.00520833
  0
SEQEND
 8
0
  0
POLYLINE
  8
0
 62
     253
 66
     1
 10
0
 20
0
 30
0.0
 40
0.375
 41
0.375
  0
VERTEX
  8
0
 10
2.81164
 20
1.82715
 30
0.0
 40
0.00520833
 41
0.00520833
  0
VERTEX
  8
0
 10
1.10189
 20
1.82715
 30
0.0
 40
0.00520833
 41
0.00520833
  0
SEQEND
 8
0
  0
POLYLINE
  8
0
 62
     253
 66
     1
 10
0
 20
0
 30
0.0
 40
0.375
 41
0.375
  0
VERTEX
  8
0
 10
2.81164
 20
1.86046
 30
0.0
 40
0.00520833
 41
0.00520833
  0
VERTEX
  8
0
 10
1.10189
 20
1.86046
 30
0.0
 40
0.00520833
 41
0.00520833
  0
SEQEND
 8
0
  0
POLYLINE
  8
0
 62
     253
 66
     1
 10
0
 20
0
 30
0.0
 40
0.375
 41
0.375
  0
VERTEX
  8
0
 10
2.81164
 20
1.89378
 30
0.0
 40
0.00520833
 41
0.00520833
  0
VERTEX
  8
0
 10
1.10189
 20
1.89378
 30
0.0
 40
0.00520833
 41
0.00520833
  0
SEQEND
 8
0
  0
POLYLINE
  8
0
 62
     253
 66
     1
 10
0
 20
0
 30
0.0
 40
0.375
 41
0.375
  0
VERTEX
  8
0
 10
2.81164
 20
1.92714
 30
0.0
 40
0.00520833
 41
0.00520833
  0
VERTEX
  8
0
 10
1.10189
 20
1.92714
 30
0.0
 40
0.00520833
 41
0.00520833
  0
SEQEND
 8
0
  0
POLYLINE
  8
0
 62
     253
 66
     1
 10
0
 20
0
 30
0.0
 40
0.375
 41
0.375
  0
VERTEX
  8
0
 10
2.81164
 20
1.96044
 30
0.0
 40
0.00520833
 41
0.00520833
  0
VERTEX
  8
0
 10
1.10189
 20
1.96044
 30
0.0
 40
0.00520833
 41
0.00520833
  0
SEQEND
 8
0
  0
POLYLINE
  8
0
 62
     253
 66
     1
 10
0
 20
0
 30
0.0
 40
0.375
 41
0.375
  0
VERTEX
  8
0
 10
2.81164
 20
1.99376
 30
0.0
 40
0.00520833
 41
0.00520833
  0
VERTEX
  8
0
 10
1.10189
 20
1.99376
 30
0.0
 40
0.00520833
 41
0.00520833
  0
SEQEND
 8
0
  0
POLYLINE
  8
0
 62
     253
 66
     1
 10
0
 20
0
 30
0.0
 40
0.375
 41
0.375
  0
VERTEX
  8
0
 10
2.81164
 20
2.02707
 30
0.0
 40
0.00520833
 41
0.00520833
  0
VERTEX
  8
0
 10
1.10189
 20
2.02707
 30
0.0
 40
0.00520833
 41
0.00520833
  0
SEQEND
 8
0
  0
POLYLINE
  8
0
 62
     253
 66
     1
 10
0
 20
0
 30
0.0
 40
0.375
 41
0.375
  0
VERTEX
  8
0
 10
2.81164
 20
2.06039
 30
0.0
 40
0.00520833
 41
0.00520833
  0
VERTEX
  8
0
 10
1.10189
 20
2.06039
 30
0.0
 40
0.00520833
 41
0.00520833
  0
SEQEND
 8
0
  0
POLYLINE
  8
0
 62
     7
 66
     1
 10
0
 20
0
 30
0.0
 70
     1
 40
0
 41
0
  0
VERTEX
  8
0
 10
1.9706
 20
2.42692
 30
0.0
 40
0
 41
0
  0
VERTEX
  8
0
 10
2.81164
 20
2.42692
 30
0.0
 40
0
 41
0
  0
VERTEX
  8
0
 10
2.81164
 20
2.09369
 30
0.0
 40
0
 41
0
  0
VERTEX
  8
0
 10
1.9706
 20
2.09369
 30
0.0
 40
0
 41
0
  0
VERTEX
  8
0
 10
1.9706
 20
2.42692
 30
0.0
 40
0
 41
0
  0
SEQEND
 8
0
  0
POLYLINE
  8
0
 62
     0
 66
     1
 10
0
 20
0
 30
0.0
 70
     1
 40
0.75
 41
0.75
  0
VERTEX
  8
0
 10
1.9706
 20
2.42692
 30
0.0
 40
0.0104167
 41
0.0104167
  0
VERTEX
  8
0
 10
2.81164
 20
2.42692
 30
0.0
 40
0.0104167
 41
0.0104167
  0
VERTEX
  8
0
 10
2.81164
 20
2.09369
 30
0.0
 40
0.0104167
 41
0.0104167
  0
VERTEX
  8
0
 10
1.9706
 20
2.09369
 30
0.0
 40
0.0104167
 41
0.0104167
  0
VERTEX
  8
0
 10
1.9706
 20
2.42692
 30
0.0
 40
0.0104167
 41
0.0104167
  0
SEQEND
 8
0
  0
POLYLINE
  8
0
 62
     253
 66
     1
 10
0
 20
0
 30
0.0
 40
0.375
 41
0.375
  0
VERTEX
  8
0
 10
2.81164
 20
2.12701
 30
0.0
 40
0.00520833
 41
0.00520833
  0
VERTEX
  8
0
 10
1.97065
 20
2.12701
 30
0.0
 40
0.00520833
 41
0.00520833
  0
SEQEND
 8
0
  0
POLYLINE
  8
0
 62
     253
 66
     1
 10
0
 20
0
 30
0.0
 40
0.375
 41
0.375
  0
VERTEX
  8
0
 10
2.81164
 20
2.16037
 30
0.0
 40
0.00520833
 41
0.00520833
  0
VERTEX
  8
0
 10
1.97065
 20
2.16037
 30
0.0
 40
0.00520833
 41
0.00520833
  0
SEQEND
 8
0
  0
POLYLINE
  8
0
 62
     253
 66
     1
 10
0
 20
0
 30
0.0
 40
0.375
 41
0.375
  0
VERTEX
  8
0
 10
2.81164
 20
2.19368
 30
0.0
 40
0.00520833
 41
0.00520833
  0
VERTEX
  8
0
 10
1.97065
 20
2.19368
 30
0.0
 40
0.00520833
 41
0.00520833
  0
SEQEND
 8
0
  0
POLYLINE
  8
0
 62
     253
 66
     1
 10
0
 20
0
 30
0.0
 40
0.375
 41
0.375
  0
VERTEX
  8
0
 10
2.81164
 20
2.227
 30
0.0
 40
0.00520833
 41
0.00520833
  0
VERTEX
  8
0
 10
1.97065
 20
2.227
 30
0.0
 40
0.00520833
 41
0.00520833
  0
SEQEND
 8
0
  0
POLYLINE
  8
0
 62
     253
 66
     1
 10
0
 20
0
 30
0.0
 40
0.375
 41
0.375
  0
VERTEX
  8
0
 10
2.81164
 20
2.26031
 30
0.0
 40
0.00520833
 41
0.00520833
  0
VERTEX
  8
0
 10
1.97065
 20
2.26031
 30
0.0
 40
0.00520833
 41
0.00520833
  0
SEQEND
 8
0
  0
POLYLINE
  8
0
 62
     253
 66
     1
 10
0
 20
0
 30
0.0
 40
0.375
 41
0.375
  0
VERTEX
  8
0
 10
2.81164
 20
2.29363
 30
0.0
 40
0.00520833
 41
0.00520833
  0
VERTEX
  8
0
 10
1.97065
 20
2.29363
 30
0.0
 40
0.00520833
 41
0.00520833
  0
SEQEND
 8
0
  0
POLYLINE
  8
0
 62
     253
 66
     1
 10
0
 20
0
 30
0.0
 40
0.375
 41
0.375
  0
VERTEX
  8
0
 10
2.81164
 20
2.32693
 30
0.0
 40
0.00520833
 41
0.00520833
  0
VERTEX
  8
0
 10
1.97065
 20
2.32693
 30
0.0
 40
0.00520833
 41
0.00520833
  0
SEQEND
 8
0
  0
POLYLINE
  8
0
 62
     253
 66
     1
 10
0
 20
0
 30
0.0
 40
0.375
 41
0.375
  0
VERTEX
  8
0
 10
2.81164
 20
2.36025
 30
0.0
 40
0.00520833
 41
0.00520833
  0
VERTEX
  8
0
 10
1.97065
 20
2.36025
 30
0.0
 40
0.00520833
 41
0.00520833
  0
SEQEND
 8
0
  0
POLYLINE
  8
0
 62
     253
 66
     1
 10
0
 20
0
 30
0.0
 40
0.375
 41
0.375
  0
VERTEX
  8
0
 10
2.81164
 20
2.39361
 30
0.0
 40
0.00520833
 41
0.00520833
  0
VERTEX
  8
0
 10
1.97065
 20
2.39361
 30
0.0
 40
0.00520833
 41
0.00520833
  0
SEQEND
 8
0
  0
POLYLINE
  8
0
 62
     7
 66
     1
 10
0
 20
0
 30
0.0
 70
     1
 40
0
 41
0
  0
VERTEX
  8
0
 10
5.56392
 20
5.94749
 30
0.0
 40
0
 41
0
  0
VERTEX
  8
0
 10
6.04476
 20
5.94749
 30
0.0
 40
0
 41
0
  0
VERTEX
  8
0
 10
6.04476
 20
5.36094
 30
0.0
 40
0
 41
0
  0
VERTEX
  8
0
 10
5.56392
 20
5.36094
 30
0.0
 40
0
 41
0
  0
VERTEX
  8
0
 10
5.56392
 20
5.94749
 30
0.0
 40
0
 41
0
  0
SEQEND
 8
0
  0
POLYLINE
  8
0
 62
     0
 66
     1
 10
0
 20
0
 30
0.0
 70
     1
 40
0.75
 41
0.75
  0
VERTEX
  8
0
 10
5.56392
 20
5.94749
 30
0.0
 40
0.0104167
 41
0.0104167
  0
VERTEX
  8
0
 10
5.56392
 20
5.36094
 30
0.0
 40
0.0104167
 41
0.0104167
  0
VERTEX
  8
0
 10
6.04476
 20
5.36094
 30
0.0
 40
0.0104167
 41
0.0104167
  0
VERTEX
  8
0
 10
6.04476
 20
5.94749
 30
0.0
 40
0.0104167
 41
0.0104167
  0
VERTEX
  8
0
 10
5.56392
 20
5.94749
 30
0.0
 40
0.0104167
 41
0.0104167
  0
SEQEND
 8
0
  0
POLYLINE
  8
0
 62
     7
 66
     1
 10
0
 20
0
 30
0.0
 70
     1
 40
0
 41
0
  0
VERTEX
  8
0
 10
5.60644
 20
5.89865
 30
0.0
 40
0
 41
0
  0
VERTEX
  8
0
 10
5.94374
 20
5.89865
 30
0.0
 40
0
 41
0
  0
VERTEX
  8
0
 10
5.94374
 20
5.40978
 30
0.0
 40
0
 41
0
  0
VERTEX
  8
0
 10
5.60644
 20
5.40978
 30
0.0
 40
0
 41
0
  0
VERTEX
  8
0
 10
5.60644
 20
5.89865
 30
0.0
 40
0
 41
0
  0
SEQEND
 8
0
  0
POLYLINE
  8
0
 62
     0
 66
     1
 10
0
 20
0
 30
0.0
 70
     1
 40
0.75
 41
0.75
  0
VERTEX
  8
0
 10
5.60644
 20
5.89865
 30
0.0
 40
0.0104167
 41
0.0104167
  0
VERTEX
  8
0
 10
5.60644
 20
5.40978
 30
0.0
 40
0.0104167
 41
0.0104167
  0
VERTEX
  8
0
 10
5.94374
 20
5.40978
 30
0.0
 40
0.0104167
 41
0.0104167
  0
VERTEX
  8
0
 10
5.94374
 20
5.89865
 30
0.0
 40
0.0104167
 41
0.0104167
  0
VERTEX
  8
0
 10
5.60644
 20
5.89865
 30
0.0
 40
0.0104167
 41
0.0104167
  0
SEQEND
 8
0
  0
POLYLINE
  8
0
 62
     7
 66
     1
 10
0
 20
0
 30
0.0
 70
     1
 40
0
 41
0
  0
VERTEX
  8
0
 10
5.78674
 20
5.61778
 30
0.0
 40
0
 41
0
  0
VERTEX
  8
0
 10
5.78028
 20
5.61778
 30
0.0
 40
0
 41
0
  0
VERTEX
  8
0
 10
5.7609
 20
5.62847
 30
0.0
 40
0
 41
0
  0
VERTEX
  8
0
 10
5.75028
 20
5.64785
 30
0.0
 40
0
 41
0
  0
VERTEX
  8
0
 10
5.75028
 20
5.65424
 30
0.0
 40
0
 41
0
  0
VERTEX
  8
0
 10
5.75028
 20
5.66069
 30
0.0
 40
0
 41
0
  0
VERTEX
  8
0
 10
5.7609
 20
5.68007
 30
0.0
 40
0
 41
0
  0
VERTEX
  8
0
 10
5.78028
 20
5.69069
 30
0.0
 40
0
 41
0
  0
VERTEX
  8
0
 10
5.78674
 20
5.69069
 30
0.0
 40
0
 41
0
  0
VERTEX
  8
0
 10
5.79313
 20
5.69069
 30
0.0
 40
0
 41
0
  0
VERTEX
  8
0
 10
5.8125
 20
5.68007
 30
0.0
 40
0
 41
0
  0
VERTEX
  8
0
 10
5.82319
 20
5.66069
 30
0.0
 40
0
 41
0
  0
VERTEX
  8
0
 10
5.82319
 20
5.65424
 30
0.0
 40
0
 41
0
  0
VERTEX
  8
0
 10
5.82319
 20
5.64785
 30
0.0
 40
0
 41
0
  0
VERTEX
  8
0
 10
5.8125
 20
5.62847
 30
0.0
 40
0
 41
0
  0
VERTEX
  8
0
 10
5.79313
 20
5.61778
 30
0.0
 40
0
 41
0
  0
VERTEX
  8
0
 10
5.78674
 20
5.61778
 30
0.0
 40
0
 41
0
  0
SEQEND
 8
0
  0
POLYLINE
  8
0
 62
     0
 66
     1
 10
0
 20
0
 30
0.0
 70
     1
 40
0.6
 41
0.6
  0
VERTEX
  8
0
 10
5.78674
 20
5.61778
 30
0.0
 40
0.00833333
 41
0.00833333
  0
VERTEX
  8
0
 10
5.78028
 20
5.61778
 30
0.0
 40
0.00833333
 41
0.00833333
  0
VERTEX
  8
0
 10
5.7609
 20
5.62847
 30
0.0
 40
0.00833333
 41
0.00833333
  0
VERTEX
  8
0
 10
5.75028
 20
5.64785
 30
0.0
 40
0.00833333
 41
0.00833333
  0
VERTEX
  8
0
 10
5.75028
 20
5.65424
 30
0.0
 40
0.00833333
 41
0.00833333
  0
VERTEX
  8
0
 10
5.75028
 20
5.66069
 30
0.0
 40
0.00833333
 41
0.00833333
  0
VERTEX
  8
0
 10
5.7609
 20
5.68007
 30
0.0
 40
0.00833333
 41
0.00833333
  0
VERTEX
  8
0
 10
5.78028
 20
5.69069
 30
0.0
 40
0.00833333
 41
0.00833333
  0
VERTEX
  8
0
 10
5.78674
 20
5.69069
 30
0.0
 40
0.00833333
 41
0.00833333
  0
VERTEX
  8
0
 10
5.79313
 20
5.69069
 30
0.0
 40
0.00833333
 41
0.00833333
  0
VERTEX
  8
0
 10
5.8125
 20
5.68007
 30
0.0
 40
0.00833333
 41
0.00833333
  0
VERTEX
  8
0
 10
5.82319
 20
5.66069
 30
0.0
 40
0.00833333
 41
0.00833333
  0
VERTEX
  8
0
 10
5.82319
 20
5.65424
 30
0.0
 40
0.00833333
 41
0.00833333
  0
VERTEX
  8
0
 10
5.82319
 20
5.64785
 30
0.0
 40
0.00833333
 41
0.00833333
  0
VERTEX
  8
0
 10
5.8125
 20
5.62847
 30
0.0
 40
0.00833333
 41
0.00833333
  0
VERTEX
  8
0
 10
5.79313
 20
5.61778
 30
0.0
 40
0.00833333
 41
0.00833333
  0
VERTEX
  8
0
 10
5.78674
 20
5.61778
 30
0.0
 40
0.00833333
 41
0.00833333
  0
SEQEND
 8
0
  0
POLYLINE
  8
0
 62
     7
 66
     1
 10
0
 20
0
 30
0.0
 70
     1
 40
0
 41
0
  0
VERTEX
  8
0
 10
5.78674
 20
5.6334
 30
0.0
 40
0
 41
0
  0
VERTEX
  8
0
 10
5.78304
 20
5.6334
 30
0.0
 40
0
 41
0
  0
VERTEX
  8
0
 10
5.77197
 20
5.63954
 30
0.0
 40
0
 41
0
  0
VERTEX
  8
0
 10
5.7659
 20
5.65061
 30
0.0
 40
0
 41
0
  0
VERTEX
  8
0
 10
5.7659
 20
5.65424
 30
0.0
 40
0
 41
0
  0
VERTEX
  8
0
 10
5.7659
 20
5.65793
 30
0.0
 40
0
 41
0
  0
VERTEX
  8
0
 10
5.77197
 20
5.669
 30
0.0
 40
0
 41
0
  0
VERTEX
  8
0
 10
5.78304
 20
5.67507
 30
0.0
 40
0
 41
0
  0
VERTEX
  8
0
 10
5.78674
 20
5.67507
 30
0.0
 40
0
 41
0
  0
VERTEX
  8
0
 10
5.79036
 20
5.67507
 30
0.0
 40
0
 41
0
  0
VERTEX
  8
0
 10
5.80143
 20
5.669
 30
0.0
 40
0
 41
0
  0
VERTEX
  8
0
 10
5.80757
 20
5.65793
 30
0.0
 40
0
 41
0
  0
VERTEX
  8
0
 10
5.80757
 20
5.65424
 30
0.0
 40
0
 41
0
  0
VERTEX
  8
0
 10
5.80757
 20
5.65061
 30
0.0
 40
0
 41
0
  0
VERTEX
  8
0
 10
5.80143
 20
5.63954
 30
0.0
 40
0
 41
0
  0
VERTEX
  8
0
 10
5.79036
 20
5.6334
 30
0.0
 40
0
 41
0
  0
VERTEX
  8
0
 10
5.78674
 20
5.6334
 30
0.0
 40
0
 41
0
  0
SEQEND
 8
0
  0
POLYLINE
  8
0
 62
     0
 66
     1
 10
0
 20
0
 30
0.0
 70
     1
 40
0.6
 41
0.6
  0
VERTEX
  8
0
 10
5.78674
 20
5.6334
 30
0.0
 40
0.00833333
 41
0.00833333
  0
VERTEX
  8
0
 10
5.78304
 20
5.6334
 30
0.0
 40
0.00833333
 41
0.00833333
  0
VERTEX
  8
0
 10
5.77197
 20
5.63954
 30
0.0
 40
0.00833333
 41
0.00833333
  0
VERTEX
  8
0
 10
5.7659
 20
5.65061
 30
0.0
 40
0.00833333
 41
0.00833333
  0
VERTEX
  8
0
 10
5.7659
 20
5.65424
 30
0.0
 40
0.00833333
 41
0.00833333
  0
VERTEX
  8
0
 10
5.7659
 20
5.65793
 30
0.0
 40
0.00833333
 41
0.00833333
  0
VERTEX
  8
0
 10
5.77197
 20
5.669
 30
0.0
 40
0.00833333
 41
0.00833333
  0
VERTEX
  8
0
 10
5.78304
 20
5.67507
 30
0.0
 40
0.00833333
 41
0.00833333
  0
VERTEX
  8
0
 10
5.78674
 20
5.67507
 30
0.0
 40
0.00833333
 41
0.00833333
  0
VERTEX
  8
0
 10
5.79036
 20
5.67507
 30
0.0
 40
0.00833333
 41
0.00833333
  0
VERTEX
  8
0
 10
5.80143
 20
5.669
 30
0.0
 40
0.00833333
 41
0.00833333
  0
VERTEX
  8
0
 10
5.80757
 20
5.65793
 30
0.0
 40
0.00833333
 41
0.00833333
  0
VERTEX
  8
0
 10
5.80757
 20
5.65424
 30
0.0
 40
0.00833333
 41
0.00833333
  0
VERTEX
  8
0
 10
5.80757
 20
5.65061
 30
0.0
 40
0.00833333
 41
0.00833333
  0
VERTEX
  8
0
 10
5.80143
 20
5.63954
 30
0.0
 40
0.00833333
 41
0.00833333
  0
VERTEX
  8
0
 10
5.79036
 20
5.6334
 30
0.0
 40
0.00833333
 41
0.00833333
  0
VERTEX
  8
0
 10
5.78674
 20
5.6334
 30
0.0
 40
0.00833333
 41
0.00833333
  0
SEQEND
 8
0
  0
POLYLINE
  8
0
 62
     7
 66
     1
 10
0
 20
0
 30
0.0
 70
     1
 40
0
 41
0
  0
VERTEX
  8
0
 10
5.85883
 20
5.68354
 30
0.0
 40
0
 41
0
  0
VERTEX
  8
0
 10
6.00467
 20
5.68354
 30
0.0
 40
0
 41
0
  0
VERTEX
  8
0
 10
6.00467
 20
5.62104
 30
0.0
 40
0
 41
0
  0
VERTEX
  8
0
 10
5.85883
 20
5.62104
 30
0.0
 40
0
 41
0
  0
VERTEX
  8
0
 10
5.85883
 20
5.68354
 30
0.0
 40
0
 41
0
  0
SEQEND
 8
0
  0
POLYLINE
  8
0
 62
     0
 66
     1
 10
0
 20
0
 30
0.0
 70
     1
 40
0.75
 41
0.75
  0
VERTEX
  8
0
 10
5.85883
 20
5.68354
 30
0.0
 40
0.0104167
 41
0.0104167
  0
VERTEX
  8
0
 10
5.85883
 20
5.62104
 30
0.0
 40
0.0104167
 41
0.0104167
  0
VERTEX
  8
0
 10
6.00467
 20
5.62104
 30
0.0
 40
0.0104167
 41
0.0104167
  0
VERTEX
  8
0
 10
6.00467
 20
5.68354
 30
0.0
 40
0.0104167
 41
0.0104167
  0
VERTEX
  8
0
 10
5.85883
 20
5.68354
 30
0.0
 40
0.0104167
 41
0.0104167
  0
SEQEND
 8
0
  0
POLYLINE
  8
0
 62
     7
 66
     1
 10
0
 20
0
 30
0.0
 70
     1
 40
0
 41
0
  0
VERTEX
  8
0
 10
2.93696
 20
1.88444
 30
0.0
 40
0
 41
0
  0
VERTEX
  8
0
 10
3.56196
 20
1.88444
 30
0.0
 40
0
 41
0
  0
VERTEX
  8
0
 10
3.56196
 20
1.25944
 30
0.0
 40
0
 41
0
  0
VERTEX
  8
0
 10
2.93696
 20
1.25944
 30
0.0
 40
0
 41
0
  0
VERTEX
  8
0
 10
2.93696
 20
1.88444
 30
0.0
 40
0
 41
0
  0
SEQEND
 8
0
  0
POLYLINE
  8
0
 62
     0
 66
     1
 10
0
 20
0
 30
0.0
 70
     1
 40
0.75
 41
0.75
  0
VERTEX
  8
0
 10
2.93696
 20
1.88444
 30
0.0
 40
0.0104167
 41
0.0104167
  0
VERTEX
  8
0
 10
2.93696
 20
1.25944
 30
0.0
 40
0.0104167
 41
0.0104167
  0
VERTEX
  8
0
 10
3.56196
 20
1.25944
 30
0.0
 40
0.0104167
 41
0.0104167
  0
VERTEX
  8
0
 10
3.56196
 20
1.88444
 30
0.0
 40
0.0104167
 41
0.0104167
  0
VERTEX
  8
0
 10
2.93696
 20
1.88444
 30
0.0
 40
0.0104167
 41
0.0104167
  0
SEQEND
 8
0
  0
POLYLINE
  8
0
 62
     0
 66
     1
 10
0
 20
0
 30
0.0
 40
0.75
 41
0.75
  0
VERTEX
  8
0
 10
2.93696
 20
1.25944
 30
0.0
 40
0.0104167
 41
0.0104167
  0
VERTEX
  8
0
 10
3.35151
 20
1.57297
 30
0.0
 40
0.0104167
 41
0.0104167
  0
VERTEX
  8
0
 10
3.139
 20
1.57297
 30
0.0
 40
0.0104167
 41
0.0104167
  0
VERTEX
  8
0
 10
3.56196
 20
1.8834
 30
0.0
 40
0.0104167
 41
0.0104167
  0
SEQEND
 8
0
  0
POLYLINE
  8
0
 62
     7
 66
     1
 10
0
 20
0
 30
0.0
 70
     1
 40
0
 41
0
  0
VERTEX
  8
0
 10
2.93744
 20
2.57264
 30
0.0
 40
0
 41
0
  0
VERTEX
  8
0
 10
3.56244
 20
2.57264
 30
0.0
 40
0
 41
0
  0
VERTEX
  8
0
 10
3.56244
 20
2.50782
 30
0.0
 40
0
 41
0
  0
VERTEX
  8
0
 10
2.93744
 20
2.50782
 30
0.0
 40
0
 41
0
  0
VERTEX
  8
0
 10
2.93744
 20
2.57264
 30
0.0
 40
0
 41
0
  0
SEQEND
 8
0
  0
POLYLINE
  8
0
 62
     0
 66
     1
 10
0
 20
0
 30
0.0
 70
     1
 40
0.466425
 41
0.466425
  0
VERTEX
  8
0
 10
2.93744
 20
2.57264
 30
0.0
 40
0.00647813
 41
0.00647813
  0
VERTEX
  8
0
 10
2.93744
 20
2.50782
 30
0.0
 40
0.00647813
 41
0.00647813
  0
VERTEX
  8
0
 10
3.56244
 20
2.50782
 30
0.0
 40
0.00647813
 41
0.00647813
  0
VERTEX
  8
0
 10
3.56244
 20
2.57264
 30
0.0
 40
0.00647813
 41
0.00647813
  0
VERTEX
  8
0
 10
2.93744
 20
2.57264
 30
0.0
 40
0.00647813
 41
0.00647813
  0
SEQEND
 8
0
  0
POLYLINE
  8
0
 62
     7
 66
     1
 10
0
 20
0
 30
0.0
 70
     1
 40
0
 41
0
  0
VERTEX
  8
0
 10
2.93614
 20
2.50944
 30
0.0
 40
0
 41
0
  0
VERTEX
  8
0
 10
3.56114
 20
2.50944
 30
0.0
 40
0
 41
0
  0
VERTEX
  8
0
 10
3.56114
 20
1.88444
 30
0.0
 40
0
 41
0
  0
VERTEX
  8
0
 10
2.93614
 20
1.88444
 30
0.0
 40
0
 41
0
  0
VERTEX
  8
0
 10
2.93614
 20
2.50944
 30
0.0
 40
0
 41
0
  0
SEQEND
 8
0
  0
POLYLINE
  8
0
 62
     0
 66
     1
 10
0
 20
0
 30
0.0
 70
     1
 40
0.75
 41
0.75
  0
VERTEX
  8
0
 10
2.93614
 20
2.50944
 30
0.0
 40
0.0104167
 41
0.0104167
  0
VERTEX
  8
0
 10
2.93614
 20
1.88444
 30
0.0
 40
0.0104167
 41
0.0104167
  0
VERTEX
  8
0
 10
3.56114
 20
1.88444
 30
0.0
 40
0.0104167
 41
0.0104167
  0
VERTEX
  8
0
 10
3.56114
 20
2.50944
 30
0.0
 40
0.0104167
 41
0.0104167
  0
VERTEX
  8
0
 10
2.93614
 20
2.50944
 30
0.0
 40
0.0104167
 41
0.0104167
  0
SEQEND
 8
0
  0
POLYLINE
  8
0
 62
     7
 66
     1
 10
0
 20
0
 30
0.0
 70
     1
 40
0
 41
0
  0
VERTEX
  8
0
 10
1.16032
 20
2.77892
 30
0.0
 40
0
 41
0
  0
VERTEX
  8
0
 10
1.62722
 20
2.77892
 30
0.0
 40
0
 41
0
  0
VERTEX
  8
0
 10
1.62722
 20
2.41433
 30
0.0
 40
0
 41
0
  0
VERTEX
  8
0
 10
1.16032
 20
2.41433
 30
0.0
 40
0
 41
0
  0
VERTEX
  8
0
 10
1.16032
 20
2.77892
 30
0.0
 40
0
 41
0
  0
SEQEND
 8
0
  0
POLYLINE
  8
0
 62
     0
 66
     1
 10
0
 20
0
 30
0.0
 70
     1
 40
0.560325
 41
0.560325
  0
VERTEX
  8
0
 10
1.16032
 20
2.77892
 30
0.0
 40
0.00778229
 41
0.00778229
  0
VERTEX
  8
0
 10
1.62722
 20
2.77892
 30
0.0
 40
0.00778229
 41
0.00778229
  0
VERTEX
  8
0
 10
1.62722
 20
2.41433
 30
0.0
 40
0.00778229
 41
0.00778229
  0
VERTEX
  8
0
 10
1.16032
 20
2.41433
 30
0.0
 40
0.00778229
 41
0.00778229
  0
VERTEX
  8
0
 10
1.16032
 20
2.77892
 30
0.0
 40
0.00778229
 41
0.00778229
  0
SEQEND
 8
0
  0
POLYLINE
  8
0
 62
     0
 66
     1
 10
0
 20
0
 30
0.0
 40
0.560325
 41
0.560325
  0
VERTEX
  8
0
 10
1.16032
 20
2.41433
 30
0.0
 40
0.00778229
 41
0.00778229
  0
VERTEX
  8
0
 10
1.46924
 20
2.59663
 30
0.0
 40
0.00778229
 41
0.00778229
  0
VERTEX
  8
0
 10
1.32682
 20
2.59663
 30
0.0
 40
0.00778229
 41
0.00778229
  0
VERTEX
  8
0
 10
1.62722
 20
2.77892
 30
0.0
 40
0.00778229
 41
0.00778229
  0
SEQEND
 8
0
  0
POLYLINE
  8
0
 62
     7
 66
     1
 10
0
 20
0
 30
0.0
 70
     1
 40
0
 41
0
  0
VERTEX
  8
0
 10
1.04053
 20
3.39372
 30
0.0
 40
0
 41
0
  0
VERTEX
  8
0
 10
1.10411
 20
3.39372
 30
0.0
 40
0
 41
0
  0
VERTEX
  8
0
 10
1.10411
 20
3.27707
 30
0.0
 40
0
 41
0
  0
VERTEX
  8
0
 10
1.04053
 20
3.27707
 30
0.0
 40
0
 41
0
  0
VERTEX
  8
0
 10
1.04053
 20
3.39372
 30
0.0
 40
0
 41
0
  0
SEQEND
 8
0
  0
POLYLINE
  8
0
 62
     0
 66
     1
 10
0
 20
0
 30
0.0
 70
     1
 40
0.75
 41
0.75
  0
VERTEX
  8
0
 10
1.04053
 20
3.39372
 30
0.0
 40
0.0104167
 41
0.0104167
  0
VERTEX
  8
0
 10
1.04053
 20
3.27707
 30
0.0
 40
0.0104167
 41
0.0104167
  0
VERTEX
  8
0
 10
1.10411
 20
3.27707
 30
0.0
 40
0.0104167
 41
0.0104167
  0
VERTEX
  8
0
 10
1.10411
 20
3.39372
 30
0.0
 40
0.0104167
 41
0.0104167
  0
VERTEX
  8
0
 10
1.04053
 20
3.39372
 30
0.0
 40
0.0104167
 41
0.0104167
  0
SEQEND
 8
0
  0
POLYLINE
  8
0
 62
     7
 66
     1
 10
0
 20
0
 30
0.0
 70
     1
 40
0
 41
0
  0
VERTEX
  8
0
 10
1.04053
 20
3.53851
 30
0.0
 40
0
 41
0
  0
VERTEX
  8
0
 10
1.10411
 20
3.53851
 30
0.0
 40
0
 41
0
  0
VERTEX
  8
0
 10
1.10411
 20
3.42188
 30
0.0
 40
0
 41
0
  0
VERTEX
  8
0
 10
1.04053
 20
3.42188
 30
0.0
 40
0
 41
0
  0
VERTEX
  8
0
 10
1.04053
 20
3.53851
 30
0.0
 40
0
 41
0
  0
SEQEND
 8
0
  0
POLYLINE
  8
0
 62
     0
 66
     1
 10
0
 20
0
 30
0.0
 70
     1
 40
0.75
 41
0.75
  0
VERTEX
  8
0
 10
1.04053
 20
3.53851
 30
0.0
 40
0.0104167
 41
0.0104167
  0
VERTEX
  8
0
 10
1.04053
 20
3.42188
 30
0.0
 40
0.0104167
 41
0.0104167
  0
VERTEX
  8
0
 10
1.10411
 20
3.42188
 30
0.0
 40
0.0104167
 41
0.0104167
  0
VERTEX
  8
0
 10
1.10411
 20
3.53851
 30
0.0
 40
0.0104167
 41
0.0104167
  0
VERTEX
  8
0
 10
1.04053
 20
3.53851
 30
0.0
 40
0.0104167
 41
0.0104167
  0
SEQEND
 8
0
  0
POLYLINE
  8
0
 62
     7
 66
     1
 10
0
 20
0
 30
0.0
 70
     1
 40
0
 41
0
  0
VERTEX
  8
0
 10
1.04053
 20
3.57292
 30
0.0
 40
0
 41
0
  0
VERTEX
  8
0
 10
1.10411
 20
3.57292
 30
0.0
 40
0
 41
0
  0
VERTEX
  8
0
 10
1.10411
 20
3.53749
 30
0.0
 40
0
 41
0
  0
VERTEX
  8
0
 10
1.04053
 20
3.53749
 30
0.0
 40
0
 41
0
  0
VERTEX
  8
0
 10
1.04053
 20
3.57292
 30
0.0
 40
0
 41
0
  0
SEQEND
 8
0
  0
POLYLINE
  8
0
 62
     0
 66
     1
 10
0
 20
0
 30
0.0
 70
     1
 40
0.75
 41
0.75
  0
VERTEX
  8
0
 10
1.04053
 20
3.57292
 30
0.0
 40
0.0104167
 41
0.0104167
  0
VERTEX
  8
0
 10
1.04053
 20
3.53749
 30
0.0
 40
0.0104167
 41
0.0104167
  0
VERTEX
  8
0
 10
1.10411
 20
3.53749
 30
0.0
 40
0.0104167
 41
0.0104167
  0
VERTEX
  8
0
 10
1.10411
 20
3.57292
 30
0.0
 40
0.0104167
 41
0.0104167
  0
VERTEX
  8
0
 10
1.04053
 20
3.57292
 30
0.0
 40
0.0104167
 41
0.0104167
  0
SEQEND
 8
0
  0
POLYLINE
  8
0
 62
     7
 66
     1
 10
0
 20
0
 30
0.0
 70
     1
 40
0
 41
0
  0
VERTEX
  8
0
 10
1.04053
 20
3.27707
 30
0.0
 40
0
 41
0
  0
VERTEX
  8
0
 10
1.10411
 20
3.27707
 30
0.0
 40
0
 41
0
  0
VERTEX
  8
0
 10
1.10411
 20
3.24371
 30
0.0
 40
0
 41
0
  0
VERTEX
  8
0
 10
1.04053
 20
3.24371
 30
0.0
 40
0
 41
0
  0
VERTEX
  8
0
 10
1.04053
 20
3.27707
 30
0.0
 40
0
 41
0
  0
SEQEND
 8
0
  0
POLYLINE
  8
0
 62
     0
 66
     1
 10
0
 20
0
 30
0.0
 70
     1
 40
0.75
 41
0.75
  0
VERTEX
  8
0
 10
1.04053
 20
3.27707
 30
0.0
 40
0.0104167
 41
0.0104167
  0
VERTEX
  8
0
 10
1.04053
 20
3.24371
 30
0.0
 40
0.0104167
 41
0.0104167
  0
VERTEX
  8
0
 10
1.10411
 20
3.24371
 30
0.0
 40
0.0104167
 41
0.0104167
  0
VERTEX
  8
0
 10
1.10411
 20
3.27707
 30
0.0
 40
0.0104167
 41
0.0104167
  0
VERTEX
  8
0
 10
1.04053
 20
3.27707
 30
0.0
 40
0.0104167
 41
0.0104167
  0
SEQEND
 8
0
  0
POLYLINE
  8
0
 62
     7
 66
     1
 10
0
 20
0
 30
0.0
 70
     1
 40
0
 41
0
  0
VERTEX
  8
0
 10
1.12386
 20
3.39372
 30
0.0
 40
0
 41
0
  0
VERTEX
  8
0
 10
1.13015
 20
3.39372
 30
0.0
 40
0
 41
0
  0
VERTEX
  8
0
 10
1.14909
 20
3.39008
 30
0.0
 40
0
 41
0
  0
VERTEX
  8
0
 10
1.1715
 20
3.38021
 30
0.0
 40
0
 41
0
  0
VERTEX
  8
0
 10
1.17594
 20
3.37706
 30
0.0
 40
0
 41
0
  0
VERTEX
  8
0
 10
1.17752
 20
3.37603
 30
0.0
 40
0
 41
0
  0
VERTEX
  8
0
 10
1.19211
 20
3.36589
 30
0.0
 40
0
 41
0
  0
VERTEX
  8
0
 10
1.19368
 20
3.36561
 30
0.0
 40
0
 41
0
  0
VERTEX
  8
0
 10
1.19651
 20
3.36513
 30
0.0
 40
0
 41
0
  0
VERTEX
  8
0
 10
1.21305
 20
3.36925
 30
0.0
 40
0
 41
0
  0
VERTEX
  8
0
 10
1.22591
 20
3.38596
 30
0.0
 40
0
 41
0
  0
VERTEX
  8
0
 10
1.227
 20
3.39165
 30
0.0
 40
0
 41
0
  0
VERTEX
  8
0
 10
1.22721
 20
3.39296
 30
0.0
 40
0
 41
0
  0
VERTEX
  8
0
 10
1.22803
 20
3.40451
 30
0.0
 40
0
 41
0
  0
VERTEX
  8
0
 10
1.22803
 20
3.40831
 30
0.0
 40
0
 41
0
  0
VERTEX
  8
0
 10
1.22803
 20
3.40728
 30
0.0
 40
0
 41
0
  0
VERTEX
  8
0
 10
1.22803
 20
3.41146
 30
0.0
 40
0
 41
0
  0
VERTEX
  8
0
 10
1.22721
 20
3.42264
 30
0.0
 40
0
 41
0
  0
VERTEX
  8
0
 10
1.227
 20
3.42393
 30
0.0
 40
0
 41
0
  0
VERTEX
  8
0
 10
1.22591
 20
3.42969
 30
0.0
 40
0
 41
0
  0
VERTEX
  8
0
 10
1.21305
 20
3.44635
 30
0.0
 40
0
 41
0
  0
VERTEX
  8
0
 10
1.19651
 20
3.45053
 30
0.0
 40
0
 41
0
  0
VERTEX
  8
0
 10
1.19368
 20
3.44997
 30
0.0
 40
0
 41
0
  0
VERTEX
  8
0
 10
1.19211
 20
3.44976
 30
0.0
 40
0
 41
0
  0
VERTEX
  8
0
 10
1.17752
 20
3.43961
 30
0.0
 40
0
 41
0
  0
VERTEX
  8
0
 10
1.17594
 20
3.43853
 30
0.0
 40
0
 41
0
  0
VERTEX
  8
0
 10
1.1715
 20
3.43544
 30
0.0
 40
0
 41
0
  0
VERTEX
  8
0
 10
1.14909
 20
3.42551
 30
0.0
 40
0
 41
0
  0
VERTEX
  8
0
 10
1.13015
 20
3.42188
 30
0.0
 40
0
 41
0
  0
VERTEX
  8
0
 10
1.12386
 20
3.42188
 30
0.0
 40
0
 41
0
  0
SEQEND
 8
0
  0
POLYLINE
  8
0
 62
     0
 66
     1
 10
0
 20
0
 30
0.0
 40
0.75
 41
0.75
  0
VERTEX
  8
0
 10
1.12386
 20
3.39372
 30
0.0
 40
0.0104167
 41
0.0104167
  0
VERTEX
  8
0
 10
1.13015
 20
3.39372
 30
0.0
 40
0.0104167
 41
0.0104167
  0
VERTEX
  8
0
 10
1.14909
 20
3.39008
 30
0.0
 40
0.0104167
 41
0.0104167
  0
VERTEX
  8
0
 10
1.1715
 20
3.38021
 30
0.0
 40
0.0104167
 41
0.0104167
  0
VERTEX
  8
0
 10
1.17594
 20
3.37706
 30
0.0
 40
0.0104167
 41
0.0104167
  0
VERTEX
  8
0
 10
1.17752
 20
3.37603
 30
0.0
 40
0.0104167
 41
0.0104167
  0
VERTEX
  8
0
 10
1.19211
 20
3.36589
 30
0.0
 40
0.0104167
 41
0.0104167
  0
VERTEX
  8
0
 10
1.19368
 20
3.36561
 30
0.0
 40
0.0104167
 41
0.0104167
  0
VERTEX
  8
0
 10
1.19651
 20
3.36513
 30
0.0
 40
0.0104167
 41
0.0104167
  0
VERTEX
  8
0
 10
1.21305
 20
3.36925
 30
0.0
 40
0.0104167
 41
0.0104167
  0
VERTEX
  8
0
 10
1.22591
 20
3.38596
 30
0.0
 40
0.0104167
 41
0.0104167
  0
VERTEX
  8
0
 10
1.227
 20
3.39165
 30
0.0
 40
0.0104167
 41
0.0104167
  0
VERTEX
  8
0
 10
1.22721
 20
3.39296
 30
0.0
 40
0.0104167
 41
0.0104167
  0
VERTEX
  8
0
 10
1.22803
 20
3.40451
 30
0.0
 40
0.0104167
 41
0.0104167
  0
VERTEX
  8
0
 10
1.22803
 20
3.40831
 30
0.0
 40
0.0104167
 41
0.0104167
  0
VERTEX
  8
0
 10
1.22803
 20
3.40728
 30
0.0
 40
0.0104167
 41
0.0104167
  0
VERTEX
  8
0
 10
1.22803
 20
3.41146
 30
0.0
 40
0.0104167
 41
0.0104167
  0
VERTEX
  8
0
 10
1.22721
 20
3.42264
 30
0.0
 40
0.0104167
 41
0.0104167
  0
VERTEX
  8
0
 10
1.227
 20
3.42393
 30
0.0
 40
0.0104167
 41
0.0104167
  0
VERTEX
  8
0
 10
1.22591
 20
3.42969
 30
0.0
 40
0.0104167
 41
0.0104167
  0
VERTEX
  8
0
 10
1.21305
 20
3.44635
 30
0.0
 40
0.0104167
 41
0.0104167
  0
VERTEX
  8
0
 10
1.19651
 20
3.45053
 30
0.0
 40
0.0104167
 41
0.0104167
  0
VERTEX
  8
0
 10
1.19368
 20
3.44997
 30
0.0
 40
0.0104167
 41
0.0104167
  0
VERTEX
  8
0
 10
1.19211
 20
3.44976
 30
0.0
 40
0.0104167
 41
0.0104167
  0
VERTEX
  8
0
 10
1.17752
 20
3.43961
 30
0.0
 40
0.0104167
 41
0.0104167
  0
VERTEX
  8
0
 10
1.17594
 20
3.43853
 30
0.0
 40
0.0104167
 41
0.0104167
  0
VERTEX
  8
0
 10
1.1715
 20
3.43544
 30
0.0
 40
0.0104167
 41
0.0104167
  0
VERTEX
  8
0
 10
1.14909
 20
3.42551
 30
0.0
 40
0.0104167
 41
0.0104167
  0
VERTEX
  8
0
 10
1.13015
 20
3.42188
 30
0.0
 40
0.0104167
 41
0.0104167
  0
VERTEX
  8
0
 10
1.12386
 20
3.42188
 30
0.0
 40
0.0104167
 41
0.0104167
  0
SEQEND
 8
0
  0
POLYLINE
  8
0
 62
     7
 66
     1
 10
0
 20
0
 30
0.0
 70
     1
 40
0
 41
0
  0
VERTEX
  8
0
 10
1.19472
 20
3.36561
 30
0.0
 40
0
 41
0
  0
VERTEX
  8
0
 10
1.1952
 20
3.36589
 30
0.0
 40
0
 41
0
  0
VERTEX
  8
0
 10
1.20535
 20
3.37771
 30
0.0
 40
0
 41
0
  0
VERTEX
  8
0
 10
1.21452
 20
3.40147
 30
0.0
 40
0
 41
0
  0
VERTEX
  8
0
 10
1.21452
 20
3.40935
 30
0.0
 40
0
 41
0
  0
VERTEX
  8
0
 10
1.21425
 20
3.41564
 30
0.0
 40
0
 41
0
  0
VERTEX
  8
0
 10
1.20497
 20
3.43832
 30
0.0
 40
0
 41
0
  0
VERTEX
  8
0
 10
1.1952
 20
3.44949
 30
0.0
 40
0
 41
0
  0
VERTEX
  8
0
 10
1.19472
 20
3.44997
 30
0.0
 40
0
 41
0
  0
SEQEND
 8
0
  0
POLYLINE
  8
0
 62
     0
 66
     1
 10
0
 20
0
 30
0.0
 40
0.75
 41
0.75
  0
VERTEX
  8
0
 10
1.19472
 20
3.36561
 30
0.0
 40
0.0104167
 41
0.0104167
  0
VERTEX
  8
0
 10
1.1952
 20
3.36589
 30
0.0
 40
0.0104167
 41
0.0104167
  0
VERTEX
  8
0
 10
1.20535
 20
3.37771
 30
0.0
 40
0.0104167
 41
0.0104167
  0
VERTEX
  8
0
 10
1.21452
 20
3.40147
 30
0.0
 40
0.0104167
 41
0.0104167
  0
VERTEX
  8
0
 10
1.21452
 20
3.40935
 30
0.0
 40
0.0104167
 41
0.0104167
  0
VERTEX
  8
0
 10
1.21425
 20
3.41564
 30
0.0
 40
0.0104167
 41
0.0104167
  0
VERTEX
  8
0
 10
1.20497
 20
3.43832
 30
0.0
 40
0.0104167
 41
0.0104167
  0
VERTEX
  8
0
 10
1.1952
 20
3.44949
 30
0.0
 40
0.0104167
 41
0.0104167
  0
VERTEX
  8
0
 10
1.19472
 20
3.44997
 30
0.0
 40
0.0104167
 41
0.0104167
  0
SEQEND
 8
0
  0
POLYLINE
  8
0
 62
     7
 66
     1
 10
0
 20
0
 30
0.0
 70
     1
 40
0
 41
0
  0
VERTEX
  8
0
 10
1.04053
 20
3.39372
 30
0.0
 40
0
 41
0
  0
VERTEX
  8
0
 10
1.04053
 20
3.42188
 30
0.0
 40
0
 41
0
  0
VERTEX
  8
0
 10
1.12386
 20
3.42188
 30
0.0
 40
0
 41
0
  0
VERTEX
  8
0
 10
1.12386
 20
3.41488
 30
0.0
 40
0
 41
0
  0
VERTEX
  8
0
 10
1.12386
 20
3.39903
 30
0.0
 40
0
 41
0
  0
VERTEX
  8
0
 10
1.12386
 20
3.39372
 30
0.0
 40
0
 41
0
  0
VERTEX
  8
0
 10
1.10303
 20
3.39372
 30
0.0
 40
0
 41
0
  0
VERTEX
  8
0
 10
1.05615
 20
3.39372
 30
0.0
 40
0
 41
0
  0
VERTEX
  8
0
 10
1.04053
 20
3.39372
 30
0.0
 40
0
 41
0
  0
SEQEND
 8
0
  0
POLYLINE
  8
0
 62
     0
 66
     1
 10
0
 20
0
 30
0.0
 70
     1
 40
0.75
 41
0.75
  0
VERTEX
  8
0
 10
1.04053
 20
3.39372
 30
0.0
 40
0.0104167
 41
0.0104167
  0
VERTEX
  8
0
 10
1.04053
 20
3.42188
 30
0.0
 40
0.0104167
 41
0.0104167
  0
VERTEX
  8
0
 10
1.12386
 20
3.42188
 30
0.0
 40
0.0104167
 41
0.0104167
  0
VERTEX
  8
0
 10
1.12386
 20
3.41488
 30
0.0
 40
0.0104167
 41
0.0104167
  0
VERTEX
  8
0
 10
1.12386
 20
3.39903
 30
0.0
 40
0.0104167
 41
0.0104167
  0
VERTEX
  8
0
 10
1.12386
 20
3.39372
 30
0.0
 40
0.0104167
 41
0.0104167
  0
VERTEX
  8
0
 10
1.10303
 20
3.39372
 30
0.0
 40
0.0104167
 41
0.0104167
  0
VERTEX
  8
0
 10
1.05615
 20
3.39372
 30
0.0
 40
0.0104167
 41
0.0104167
  0
VERTEX
  8
0
 10
1.04053
 20
3.39372
 30
0.0
 40
0.0104167
 41
0.0104167
  0
SEQEND
 8
0
  0
POLYLINE
  8
0
 62
     7
 66
     1
 10
0
 20
0
 30
0.0
 70
     1
 40
0
 41
0
  0
VERTEX
  8
0
 10
1.07286
 20
3.27707
 30
0.0
 40
0
 41
0
  0
VERTEX
  8
0
 10
1.07162
 20
3.28033
 30
0.0
 40
0
 41
0
  0
VERTEX
  8
0
 10
1.06776
 20
3.28999
 30
0.0
 40
0
 41
0
  0
VERTEX
  8
0
 10
1.06657
 20
3.29269
 30
0.0
 40
0
 41
0
  0
VERTEX
  8
0
 10
1.06657
 20
3.29269
 30
0.0
 40
0
 41
0
  0
VERTEX
  8
0
 10
1.06798
 20
3.29269
 30
0.0
 40
0
 41
0
  0
VERTEX
  8
0
 10
1.07232
 20
3.29269
 30
0.0
 40
0
 41
0
  0
VERTEX
  8
0
 10
1.07661
 20
3.29269
 30
0.0
 40
0
 41
0
  0
VERTEX
  8
0
 10
1.07807
 20
3.29269
 30
0.0
 40
0
 41
0
  0
VERTEX
  8
0
 10
1.07807
 20
3.29269
 30
0.0
 40
0
 41
0
  0
VERTEX
  8
0
 10
1.07742
 20
3.29036
 30
0.0
 40
0
 41
0
  0
VERTEX
  8
0
 10
1.074
 20
3.28039
 30
0.0
 40
0
 41
0
  0
VERTEX
  8
0
 10
1.07286
 20
3.27707
 30
0.0
 40
0
 41
0
  0
SEQEND
 8
0
  0
POLYLINE
  8
0
 62
     0
 66
     1
 10
0
 20
0
 30
0.0
 70
     1
 40
0.75
 41
0.75
  0
VERTEX
  8
0
 10
1.07286
 20
3.27707
 30
0.0
 40
0.0104167
 41
0.0104167
  0
VERTEX
  8
0
 10
1.07162
 20
3.28033
 30
0.0
 40
0.0104167
 41
0.0104167
  0
VERTEX
  8
0
 10
1.06776
 20
3.28999
 30
0.0
 40
0.0104167
 41
0.0104167
  0
VERTEX
  8
0
 10
1.06657
 20
3.29269
 30
0.0
 40
0.0104167
 41
0.0104167
  0
VERTEX
  8
0
 10
1.06657
 20
3.29269
 30
0.0
 40
0.0104167
 41
0.0104167
  0
VERTEX
  8
0
 10
1.06798
 20
3.29269
 30
0.0
 40
0.0104167
 41
0.0104167
  0
VERTEX
  8
0
 10
1.07232
 20
3.29269
 30
0.0
 40
0.0104167
 41
0.0104167
  0
VERTEX
  8
0
 10
1.07661
 20
3.29269
 30
0.0
 40
0.0104167
 41
0.0104167
  0
VERTEX
  8
0
 10
1.07807
 20
3.29269
 30
0.0
 40
0.0104167
 41
0.0104167
  0
VERTEX
  8
0
 10
1.07807
 20
3.29269
 30
0.0
 40
0.0104167
 41
0.0104167
  0
VERTEX
  8
0
 10
1.07742
 20
3.29036
 30
0.0
 40
0.0104167
 41
0.0104167
  0
VERTEX
  8
0
 10
1.074
 20
3.28039
 30
0.0
 40
0.0104167
 41
0.0104167
  0
VERTEX
  8
0
 10
1.07286
 20
3.27707
 30
0.0
 40
0.0104167
 41
0.0104167
  0
SEQEND
 8
0
  0
POLYLINE
  8
0
 62
     7
 66
     1
 10
0
 20
0
 30
0.0
 70
     1
 40
0
 41
0
  0
VERTEX
  8
0
 10
1.07286
 20
3.53749
 30
0.0
 40
0
 41
0
  0
VERTEX
  8
0
 10
1.07162
 20
3.53429
 30
0.0
 40
0
 41
0
  0
VERTEX
  8
0
 10
1.06776
 20
3.52462
 30
0.0
 40
0
 41
0
  0
VERTEX
  8
0
 10
1.06657
 20
3.52186
 30
0.0
 40
0
 41
0
  0
VERTEX
  8
0
 10
1.06657
 20
3.52186
 30
0.0
 40
0
 41
0
  0
VERTEX
  8
0
 10
1.06798
 20
3.52186
 30
0.0
 40
0
 41
0
  0
VERTEX
  8
0
 10
1.07232
 20
3.52186
 30
0.0
 40
0
 41
0
  0
VERTEX
  8
0
 10
1.07661
 20
3.52186
 30
0.0
 40
0
 41
0
  0
VERTEX
  8
0
 10
1.07807
 20
3.52186
 30
0.0
 40
0
 41
0
  0
VERTEX
  8
0
 10
1.07807
 20
3.52186
 30
0.0
 40
0
 41
0
  0
VERTEX
  8
0
 10
1.07742
 20
3.52425
 30
0.0
 40
0
 41
0
  0
VERTEX
  8
0
 10
1.074
 20
3.53424
 30
0.0
 40
0
 41
0
  0
VERTEX
  8
0
 10
1.07286
 20
3.53749
 30
0.0
 40
0
 41
0
  0
SEQEND
 8
0
  0
POLYLINE
  8
0
 62
     0
 66
     1
 10
0
 20
0
 30
0.0
 70
     1
 40
0.75
 41
0.75
  0
VERTEX
  8
0
 10
1.07286
 20
3.53749
 30
0.0
 40
0.0104167
 41
0.0104167
  0
VERTEX
  8
0
 10
1.07162
 20
3.53429
 30
0.0
 40
0.0104167
 41
0.0104167
  0
VERTEX
  8
0
 10
1.06776
 20
3.52462
 30
0.0
 40
0.0104167
 41
0.0104167
  0
VERTEX
  8
0
 10
1.06657
 20
3.52186
 30
0.0
 40
0.0104167
 41
0.0104167
  0
VERTEX
  8
0
 10
1.06657
 20
3.52186
 30
0.0
 40
0.0104167
 41
0.0104167
  0
VERTEX
  8
0
 10
1.06798
 20
3.52186
 30
0.0
 40
0.0104167
 41
0.0104167
  0
VERTEX
  8
0
 10
1.07232
 20
3.52186
 30
0.0
 40
0.0104167
 41
0.0104167
  0
VERTEX
  8
0
 10
1.07661
 20
3.52186
 30
0.0
 40
0.0104167
 41
0.0104167
  0
VERTEX
  8
0
 10
1.07807
 20
3.52186
 30
0.0
 40
0.0104167
 41
0.0104167
  0
VERTEX
  8
0
 10
1.07807
 20
3.52186
 30
0.0
 40
0.0104167
 41
0.0104167
  0
VERTEX
  8
0
 10
1.07742
 20
3.52425
 30
0.0
 40
0.0104167
 41
0.0104167
  0
VERTEX
  8
0
 10
1.074
 20
3.53424
 30
0.0
 40
0.0104167
 41
0.0104167
  0
VERTEX
  8
0
 10
1.07286
 20
3.53749
 30
0.0
 40
0.0104167
 41
0.0104167
  0
SEQEND
 8
0
  0
POLYLINE
  8
0
 62
     7
 66
     1
 10
0
 20
0
 30
0.0
 70
     1
 40
0
 41
0
  0
VERTEX
  8
0
 10
1.03592
 20
3.85574
 30
0.0
 40
0
 41
0
  0
VERTEX
  8
0
 10
1.66092
 20
3.85574
 30
0.0
 40
0
 41
0
  0
VERTEX
  8
0
 10
1.66092
 20
3.82969
 30
0.0
 40
0
 41
0
  0
VERTEX
  8
0
 10
1.03592
 20
3.82969
 30
0.0
 40
0
 41
0
  0
VERTEX
  8
0
 10
1.03592
 20
3.85574
 30
0.0
 40
0
 41
0
  0
SEQEND
 8
0
  0
POLYLINE
  8
0
 62
     0
 66
     1
 10
0
 20
0
 30
0.0
 70
     1
 40
0.75
 41
0.75
  0
VERTEX
  8
0
 10
1.03592
 20
3.85574
 30
0.0
 40
0.0104167
 41
0.0104167
  0
VERTEX
  8
0
 10
1.03592
 20
3.82969
 30
0.0
 40
0.0104167
 41
0.0104167
  0
VERTEX
  8
0
 10
1.66092
 20
3.82969
 30
0.0
 40
0.0104167
 41
0.0104167
  0
VERTEX
  8
0
 10
1.66092
 20
3.85574
 30
0.0
 40
0.0104167
 41
0.0104167
  0
VERTEX
  8
0
 10
1.03592
 20
3.85574
 30
0.0
 40
0.0104167
 41
0.0104167
  0
SEQEND
 8
0
  0
POLYLINE
  8
0
 62
     7
 66
     1
 10
0
 20
0
 30
0.0
 70
     1
 40
0
 41
0
  0
VERTEX
  8
0
 10
1.03592
 20
3.85574
 30
0.0
 40
0
 41
0
  0
VERTEX
  8
0
 10
1.66092
 20
3.85574
 30
0.0
 40
0
 41
0
  0
VERTEX
  8
0
 10
1.66092
 20
3.82969
 30
0.0
 40
0
 41
0
  0
VERTEX
  8
0
 10
1.03592
 20
3.82969
 30
0.0
 40
0
 41
0
  0
VERTEX
  8
0
 10
1.03592
 20
3.85574
 30
0.0
 40
0
 41
0
  0
SEQEND
 8
0
  0
POLYLINE
  8
0
 62
     0
 66
     1
 10
0
 20
0
 30
0.0
 70
     1
 40
0.75
 41
0.75
  0
VERTEX
  8
0
 10
1.03592
 20
3.85574
 30
0.0
 40
0.0104167
 41
0.0104167
  0
VERTEX
  8
0
 10
1.03592
 20
3.82969
 30
0.0
 40
0.0104167
 41
0.0104167
  0
VERTEX
  8
0
 10
1.66092
 20
3.82969
 30
0.0
 40
0.0104167
 41
0.0104167
  0
VERTEX
  8
0
 10
1.66092
 20
3.85574
 30
0.0
 40
0.0104167
 41
0.0104167
  0
VERTEX
  8
0
 10
1.03592
 20
3.85574
 30
0.0
 40
0.0104167
 41
0.0104167
  0
SEQEND
 8
0
  0
POLYLINE
  8
0
 62
     7
 66
     1
 10
0
 20
0
 30
0.0
 70
     1
 40
0
 41
0
  0
VERTEX
  8
0
 10
1.03803
 20
4.86524
 30
0.0
 40
0
 41
0
  0
VERTEX
  8
0
 10
1.66303
 20
4.86524
 30
0.0
 40
0
 41
0
  0
VERTEX
  8
0
 10
1.66303
 20
4.2576
 30
0.0
 40
0
 41
0
  0
VERTEX
  8
0
 10
1.03803
 20
4.2576
 30
0.0
 40
0
 41
0
  0
VERTEX
  8
0
 10
1.03803
 20
4.86524
 30
0.0
 40
0
 41
0
  0
SEQEND
 8
0
  0
POLYLINE
  8
0
 62
     0
 66
     1
 10
0
 20
0
 30
0.0
 70
     1
 40
0.72915
 41
0.72915
  0
VERTEX
  8
0
 10
1.03803
 20
4.86524
 30
0.0
 40
0.0101271
 41
0.0101271
  0
VERTEX
  8
0
 10
1.03803
 20
4.2576
 30
0.0
 40
0.0101271
 41
0.0101271
  0
VERTEX
  8
0
 10
1.66303
 20
4.2576
 30
0.0
 40
0.0101271
 41
0.0101271
  0
VERTEX
  8
0
 10
1.66303
 20
4.86524
 30
0.0
 40
0.0101271
 41
0.0101271
  0
VERTEX
  8
0
 10
1.03803
 20
4.86524
 30
0.0
 40
0.0101271
 41
0.0101271
  0
SEQEND
 8
0
  0
POLYLINE
  8
0
 62
     0
 66
     1
 10
0
 20
0
 30
0.0
 40
0.72915
 41
0.72915
  0
VERTEX
  8
0
 10
1.03803
 20
4.2576
 30
0.0
 40
0.0101271
 41
0.0101271
  0
VERTEX
  8
0
 10
1.45258
 20
4.56244
 30
0.0
 40
0.0101271
 41
0.0101271
  0
VERTEX
  8
0
 10
1.24007
 20
4.56244
 30
0.0
 40
0.0101271
 41
0.0101271
  0
VERTEX
  8
0
 10
1.66303
 20
4.86421
 30
0.0
 40
0.0101271
 41
0.0101271
  0
SEQEND
 8
0
  0
POLYLINE
  8
0
 62
     7
 66
     1
 10
0
 20
0
 30
0.0
 70
     1
 40
0
 41
0
  0
VERTEX
  8
0
 10
1.04134
 20
8.4394
 30
0.0
 40
0
 41
0
  0
VERTEX
  8
0
 10
1.66635
 20
8.4394
 30
0.0
 40
0
 41
0
  0
VERTEX
  8
0
 10
1.66635
 20
5.94971
 30
0.0
 40
0
 41
0
  0
VERTEX
  8
0
 10
1.04134
 20
5.94971
 30
0.0
 40
0
 41
0
  0
VERTEX
  8
0
 10
1.04134
 20
8.4394
 30
0.0
 40
0
 41
0
  0
SEQEND
 8
0
  0
POLYLINE
  8
0
 62
     0
 66
     1
 10
0
 20
0
 30
0.0
 70
     1
 40
0.75
 41
0.75
  0
VERTEX
  8
0
 10
1.04134
 20
8.4394
 30
0.0
 40
0.0104167
 41
0.0104167
  0
VERTEX
  8
0
 10
1.04134
 20
5.94971
 30
0.0
 40
0.0104167
 41
0.0104167
  0
VERTEX
  8
0
 10
1.66635
 20
5.94971
 30
0.0
 40
0.0104167
 41
0.0104167
  0
VERTEX
  8
0
 10
1.66635
 20
8.4394
 30
0.0
 40
0.0104167
 41
0.0104167
  0
VERTEX
  8
0
 10
1.04134
 20
8.4394
 30
0.0
 40
0.0104167
 41
0.0104167
  0
SEQEND
 8
0
  0
POLYLINE
  8
0
 62
     7
 66
     1
 10
0
 20
0
 30
0.0
 70
     1
 40
0
 41
0
  0
VERTEX
  8
0
 10
1.06076
 20
7.93636
 30
0.0
 40
0
 41
0
  0
VERTEX
  8
0
 10
1.6441
 20
7.93636
 30
0.0
 40
0
 41
0
  0
VERTEX
  8
0
 10
1.6441
 20
7.38926
 30
0.0
 40
0
 41
0
  0
VERTEX
  8
0
 10
1.06076
 20
7.38926
 30
0.0
 40
0
 41
0
  0
VERTEX
  8
0
 10
1.06076
 20
7.93636
 30
0.0
 40
0
 41
0
  0
SEQEND
 8
0
  0
POLYLINE
  8
0
 62
     0
 66
     1
 10
0
 20
0
 30
0.0
 70
     1
 40
0.75
 41
0.75
  0
VERTEX
  8
0
 10
1.06076
 20
7.93636
 30
0.0
 40
0.0104167
 41
0.0104167
  0
VERTEX
  8
0
 10
1.06076
 20
7.38926
 30
0.0
 40
0.0104167
 41
0.0104167
  0
VERTEX
  8
0
 10
1.6441
 20
7.38926
 30
0.0
 40
0.0104167
 41
0.0104167
  0
VERTEX
  8
0
 10
1.6441
 20
7.93636
 30
0.0
 40
0.0104167
 41
0.0104167
  0
VERTEX
  8
0
 10
1.06076
 20
7.93636
 30
0.0
 40
0.0104167
 41
0.0104167
  0
SEQEND
 8
0
  0
POLYLINE
  8
0
 62
     7
 66
     1
 10
0
 20
0
 30
0.0
 70
     1
 40
0
 41
0
  0
VERTEX
  8
0
 10
1.2066
 20
7.60846
 30
0.0
 40
0
 41
0
  0
VERTEX
  8
0
 10
1.21468
 20
7.60846
 30
0.0
 40
0
 41
0
  0
VERTEX
  8
0
 10
1.23899
 20
7.60194
 30
0.0
 40
0
 41
0
  0
VERTEX
  8
0
 10
1.26552
 20
7.58404
 30
0.0
 40
0
 41
0
  0
VERTEX
  8
0
 10
1.28337
 20
7.55757
 30
0.0
 40
0
 41
0
  0
VERTEX
  8
0
 10
1.28993
 20
7.53326
 30
0.0
 40
0
 41
0
  0
VERTEX
  8
0
 10
1.28993
 20
7.52513
 30
0.0
 40
0
 41
0
  0
VERTEX
  8
0
 10
1.28993
 20
7.51704
 30
0.0
 40
0
 41
0
  0
VERTEX
  8
0
 10
1.28337
 20
7.49268
 30
0.0
 40
0
 41
0
  0
VERTEX
  8
0
 10
1.26552
 20
7.46619
 30
0.0
 40
0
 41
0
  0
VERTEX
  8
0
 10
1.23899
 20
7.44835
 30
0.0
 40
0
 41
0
  0
VERTEX
  8
0
 10
1.21468
 20
7.44179
 30
0.0
 40
0
 41
0
  0
VERTEX
  8
0
 10
1.2066
 20
7.44179
 30
0.0
 40
0
 41
0
  0
VERTEX
  8
0
 10
1.19846
 20
7.44179
 30
0.0
 40
0
 41
0
  0
VERTEX
  8
0
 10
1.17415
 20
7.44835
 30
0.0
 40
0
 41
0
  0
VERTEX
  8
0
 10
1.14768
 20
7.46619
 30
0.0
 40
0
 41
0
  0
VERTEX
  8
0
 10
1.12978
 20
7.49268
 30
0.0
 40
0
 41
0
  0
VERTEX
  8
0
 10
1.12326
 20
7.51704
 30
0.0
 40
0
 41
0
  0
VERTEX
  8
0
 10
1.12326
 20
7.52513
 30
0.0
 40
0
 41
0
  0
VERTEX
  8
0
 10
1.12326
 20
7.53326
 30
0.0
 40
0
 41
0
  0
VERTEX
  8
0
 10
1.12978
 20
7.55757
 30
0.0
 40
0
 41
0
  0
VERTEX
  8
0
 10
1.14768
 20
7.58404
 30
0.0
 40
0
 41
0
  0
VERTEX
  8
0
 10
1.17415
 20
7.60194
 30
0.0
 40
0
 41
0
  0
VERTEX
  8
0
 10
1.19846
 20
7.60846
 30
0.0
 40
0
 41
0
  0
VERTEX
  8
0
 10
1.2066
 20
7.60846
 30
0.0
 40
0
 41
0
  0
SEQEND
 8
0
  0
POLYLINE
  8
0
 62
     0
 66
     1
 10
0
 20
0
 30
0.0
 70
     1
 40
0.75
 41
0.75
  0
VERTEX
  8
0
 10
1.2066
 20
7.60846
 30
0.0
 40
0.0104167
 41
0.0104167
  0
VERTEX
  8
0
 10
1.21468
 20
7.60846
 30
0.0
 40
0.0104167
 41
0.0104167
  0
VERTEX
  8
0
 10
1.23899
 20
7.60194
 30
0.0
 40
0.0104167
 41
0.0104167
  0
VERTEX
  8
0
 10
1.26552
 20
7.58404
 30
0.0
 40
0.0104167
 41
0.0104167
  0
VERTEX
  8
0
 10
1.28337
 20
7.55757
 30
0.0
 40
0.0104167
 41
0.0104167
  0
VERTEX
  8
0
 10
1.28993
 20
7.53326
 30
0.0
 40
0.0104167
 41
0.0104167
  0
VERTEX
  8
0
 10
1.28993
 20
7.52513
 30
0.0
 40
0.0104167
 41
0.0104167
  0
VERTEX
  8
0
 10
1.28993
 20
7.51704
 30
0.0
 40
0.0104167
 41
0.0104167
  0
VERTEX
  8
0
 10
1.28337
 20
7.49268
 30
0.0
 40
0.0104167
 41
0.0104167
  0
VERTEX
  8
0
 10
1.26552
 20
7.46619
 30
0.0
 40
0.0104167
 41
0.0104167
  0
VERTEX
  8
0
 10
1.23899
 20
7.44835
 30
0.0
 40
0.0104167
 41
0.0104167
  0
VERTEX
  8
0
 10
1.21468
 20
7.44179
 30
0.0
 40
0.0104167
 41
0.0104167
  0
VERTEX
  8
0
 10
1.2066
 20
7.44179
 30
0.0
 40
0.0104167
 41
0.0104167
  0
VERTEX
  8
0
 10
1.19846
 20
7.44179
 30
0.0
 40
0.0104167
 41
0.0104167
  0
VERTEX
  8
0
 10
1.17415
 20
7.44835
 30
0.0
 40
0.0104167
 41
0.0104167
  0
VERTEX
  8
0
 10
1.14768
 20
7.46619
 30
0.0
 40
0.0104167
 41
0.0104167
  0
VERTEX
  8
0
 10
1.12978
 20
7.49268
 30
0.0
 40
0.0104167
 41
0.0104167
  0
VERTEX
  8
0
 10
1.12326
 20
7.51704
 30
0.0
 40
0.0104167
 41
0.0104167
  0
VERTEX
  8
0
 10
1.12326
 20
7.52513
 30
0.0
 40
0.0104167
 41
0.0104167
  0
VERTEX
  8
0
 10
1.12326
 20
7.53326
 30
0.0
 40
0.0104167
 41
0.0104167
  0
VERTEX
  8
0
 10
1.12978
 20
7.55757
 30
0.0
 40
0.0104167
 41
0.0104167
  0
VERTEX
  8
0
 10
1.14768
 20
7.58404
 30
0.0
 40
0.0104167
 41
0.0104167
  0
VERTEX
  8
0
 10
1.17415
 20
7.60194
 30
0.0
 40
0.0104167
 41
0.0104167
  0
VERTEX
  8
0
 10
1.19846
 20
7.60846
 30
0.0
 40
0.0104167
 41
0.0104167
  0
VERTEX
  8
0
 10
1.2066
 20
7.60846
 30
0.0
 40
0.0104167
 41
0.0104167
  0
SEQEND
 8
0
  0
POLYLINE
  8
0
 62
     7
 66
     1
 10
0
 20
0
 30
0.0
 70
     1
 40
0
 41
0
  0
VERTEX
  8
0
 10
1.2066
 20
7.8826
 30
0.0
 40
0
 41
0
  0
VERTEX
  8
0
 10
1.21468
 20
7.8826
 30
0.0
 40
0
 41
0
  0
VERTEX
  8
0
 10
1.23899
 20
7.87608
 30
0.0
 40
0
 41
0
  0
VERTEX
  8
0
 10
1.26552
 20
7.85818
 30
0.0
 40
0
 41
0
  0
VERTEX
  8
0
 10
1.28337
 20
7.83171
 30
0.0
 40
0
 41
0
  0
VERTEX
  8
0
 10
1.28993
 20
7.8074
 30
0.0
 40
0
 41
0
  0
VERTEX
  8
0
 10
1.28993
 20
7.79926
 30
0.0
 40
0
 41
0
  0
VERTEX
  8
0
 10
1.28993
 20
7.79118
 30
0.0
 40
0
 41
0
  0
VERTEX
  8
0
 10
1.28337
 20
7.76688
 30
0.0
 40
0
 41
0
  0
VERTEX
  8
0
 10
1.26552
 20
7.74035
 30
0.0
 40
0
 41
0
  0
VERTEX
  8
0
 10
1.23899
 20
7.7225
 30
0.0
 40
0
 41
0
  0
VERTEX
  8
0
 10
1.21468
 20
7.71593
 30
0.0
 40
0
 41
0
  0
VERTEX
  8
0
 10
1.2066
 20
7.71593
 30
0.0
 40
0
 41
0
  0
VERTEX
  8
0
 10
1.19846
 20
7.71593
 30
0.0
 40
0
 41
0
  0
VERTEX
  8
0
 10
1.17415
 20
7.7225
 30
0.0
 40
0
 41
0
  0
VERTEX
  8
0
 10
1.14768
 20
7.74035
 30
0.0
 40
0
 41
0
  0
VERTEX
  8
0
 10
1.12978
 20
7.76688
 30
0.0
 40
0
 41
0
  0
VERTEX
  8
0
 10
1.12326
 20
7.79118
 30
0.0
 40
0
 41
0
  0
VERTEX
  8
0
 10
1.12326
 20
7.79926
 30
0.0
 40
0
 41
0
  0
VERTEX
  8
0
 10
1.12326
 20
7.8074
 30
0.0
 40
0
 41
0
  0
VERTEX
  8
0
 10
1.12978
 20
7.83171
 30
0.0
 40
0
 41
0
  0
VERTEX
  8
0
 10
1.14768
 20
7.85818
 30
0.0
 40
0
 41
0
  0
VERTEX
  8
0
 10
1.17415
 20
7.87608
 30
0.0
 40
0
 41
0
  0
VERTEX
  8
0
 10
1.19846
 20
7.8826
 30
0.0
 40
0
 41
0
  0
VERTEX
  8
0
 10
1.2066
 20
7.8826
 30
0.0
 40
0
 41
0
  0
SEQEND
 8
0
  0
POLYLINE
  8
0
 62
     0
 66
     1
 10
0
 20
0
 30
0.0
 70
     1
 40
0.75
 41
0.75
  0
VERTEX
  8
0
 10
1.2066
 20
7.8826
 30
0.0
 40
0.0104167
 41
0.0104167
  0
VERTEX
  8
0
 10
1.21468
 20
7.8826
 30
0.0
 40
0.0104167
 41
0.0104167
  0
VERTEX
  8
0
 10
1.23899
 20
7.87608
 30
0.0
 40
0.0104167
 41
0.0104167
  0
VERTEX
  8
0
 10
1.26552
 20
7.85818
 30
0.0
 40
0.0104167
 41
0.0104167
  0
VERTEX
  8
0
 10
1.28337
 20
7.83171
 30
0.0
 40
0.0104167
 41
0.0104167
  0
VERTEX
  8
0
 10
1.28993
 20
7.8074
 30
0.0
 40
0.0104167
 41
0.0104167
  0
VERTEX
  8
0
 10
1.28993
 20
7.79926
 30
0.0
 40
0.0104167
 41
0.0104167
  0
VERTEX
  8
0
 10
1.28993
 20
7.79118
 30
0.0
 40
0.0104167
 41
0.0104167
  0
VERTEX
  8
0
 10
1.28337
 20
7.76688
 30
0.0
 40
0.0104167
 41
0.0104167
  0
VERTEX
  8
0
 10
1.26552
 20
7.74035
 30
0.0
 40
0.0104167
 41
0.0104167
  0
VERTEX
  8
0
 10
1.23899
 20
7.7225
 30
0.0
 40
0.0104167
 41
0.0104167
  0
VERTEX
  8
0
 10
1.21468
 20
7.71593
 30
0.0
 40
0.0104167
 41
0.0104167
  0
VERTEX
  8
0
 10
1.2066
 20
7.71593
 30
0.0
 40
0.0104167
 41
0.0104167
  0
VERTEX
  8
0
 10
1.19846
 20
7.71593
 30
0.0
 40
0.0104167
 41
0.0104167
  0
VERTEX
  8
0
 10
1.17415
 20
7.7225
 30
0.0
 40
0.0104167
 41
0.0104167
  0
VERTEX
  8
0
 10
1.14768
 20
7.74035
 30
0.0
 40
0.0104167
 41
0.0104167
  0
VERTEX
  8
0
 10
1.12978
 20
7.76688
 30
0.0
 40
0.0104167
 41
0.0104167
  0
VERTEX
  8
0
 10
1.12326
 20
7.79118
 30
0.0
 40
0.0104167
 41
0.0104167
  0
VERTEX
  8
0
 10
1.12326
 20
7.79926
 30
0.0
 40
0.0104167
 41
0.0104167
  0
VERTEX
  8
0
 10
1.12326
 20
7.8074
 30
0.0
 40
0.0104167
 41
0.0104167
  0
VERTEX
  8
0
 10
1.12978
 20
7.83171
 30
0.0
 40
0.0104167
 41
0.0104167
  0
VERTEX
  8
0
 10
1.14768
 20
7.85818
 30
0.0
 40
0.0104167
 41
0.0104167
  0
VERTEX
  8
0
 10
1.17415
 20
7.87608
 30
0.0
 40
0.0104167
 41
0.0104167
  0
VERTEX
  8
0
 10
1.19846
 20
7.8826
 30
0.0
 40
0.0104167
 41
0.0104167
  0
VERTEX
  8
0
 10
1.2066
 20
7.8826
 30
0.0
 40
0.0104167
 41
0.0104167
  0
SEQEND
 8
0
  0
POLYLINE
  8
0
 62
     7
 66
     1
 10
0
 20
0
 30
0.0
 70
     1
 40
0
 41
0
  0
VERTEX
  8
0
 10
1.49826
 20
7.60846
 30
0.0
 40
0
 41
0
  0
VERTEX
  8
0
 10
1.50635
 20
7.60846
 30
0.0
 40
0
 41
0
  0
VERTEX
  8
0
 10
1.53065
 20
7.60194
 30
0.0
 40
0
 41
0
  0
VERTEX
  8
0
 10
1.55718
 20
7.58404
 30
0.0
 40
0
 41
0
  0
VERTEX
  8
0
 10
1.57503
 20
7.55757
 30
0.0
 40
0
 41
0
  0
VERTEX
  8
0
 10
1.5816
 20
7.53326
 30
0.0
 40
0
 41
0
  0
VERTEX
  8
0
 10
1.5816
 20
7.52513
 30
0.0
 40
0
 41
0
  0
VERTEX
  8
0
 10
1.5816
 20
7.51704
 30
0.0
 40
0
 41
0
  0
VERTEX
  8
0
 10
1.57503
 20
7.49268
 30
0.0
 40
0
 41
0
  0
VERTEX
  8
0
 10
1.55718
 20
7.46619
 30
0.0
 40
0
 41
0
  0
VERTEX
  8
0
 10
1.53065
 20
7.44835
 30
0.0
 40
0
 41
0
  0
VERTEX
  8
0
 10
1.50635
 20
7.44179
 30
0.0
 40
0
 41
0
  0
VERTEX
  8
0
 10
1.49826
 20
7.44179
 30
0.0
 40
0
 41
0
  0
VERTEX
  8
0
 10
1.49013
 20
7.44179
 30
0.0
 40
0
 41
0
  0
VERTEX
  8
0
 10
1.46582
 20
7.44835
 30
0.0
 40
0
 41
0
  0
VERTEX
  8
0
 10
1.43935
 20
7.46619
 30
0.0
 40
0
 41
0
  0
VERTEX
  8
0
 10
1.42144
 20
7.49268
 30
0.0
 40
0
 41
0
  0
VERTEX
  8
0
 10
1.41493
 20
7.51704
 30
0.0
 40
0
 41
0
  0
VERTEX
  8
0
 10
1.41493
 20
7.52513
 30
0.0
 40
0
 41
0
  0
VERTEX
  8
0
 10
1.41493
 20
7.53326
 30
0.0
 40
0
 41
0
  0
VERTEX
  8
0
 10
1.42144
 20
7.55757
 30
0.0
 40
0
 41
0
  0
VERTEX
  8
0
 10
1.43935
 20
7.58404
 30
0.0
 40
0
 41
0
  0
VERTEX
  8
0
 10
1.46582
 20
7.60194
 30
0.0
 40
0
 41
0
  0
VERTEX
  8
0
 10
1.49013
 20
7.60846
 30
0.0
 40
0
 41
0
  0
VERTEX
  8
0
 10
1.49826
 20
7.60846
 30
0.0
 40
0
 41
0
  0
SEQEND
 8
0
  0
POLYLINE
  8
0
 62
     0
 66
     1
 10
0
 20
0
 30
0.0
 70
     1
 40
0.75
 41
0.75
  0
VERTEX
  8
0
 10
1.49826
 20
7.60846
 30
0.0
 40
0.0104167
 41
0.0104167
  0
VERTEX
  8
0
 10
1.50635
 20
7.60846
 30
0.0
 40
0.0104167
 41
0.0104167
  0
VERTEX
  8
0
 10
1.53065
 20
7.60194
 30
0.0
 40
0.0104167
 41
0.0104167
  0
VERTEX
  8
0
 10
1.55718
 20
7.58404
 30
0.0
 40
0.0104167
 41
0.0104167
  0
VERTEX
  8
0
 10
1.57503
 20
7.55757
 30
0.0
 40
0.0104167
 41
0.0104167
  0
VERTEX
  8
0
 10
1.5816
 20
7.53326
 30
0.0
 40
0.0104167
 41
0.0104167
  0
VERTEX
  8
0
 10
1.5816
 20
7.52513
 30
0.0
 40
0.0104167
 41
0.0104167
  0
VERTEX
  8
0
 10
1.5816
 20
7.51704
 30
0.0
 40
0.0104167
 41
0.0104167
  0
VERTEX
  8
0
 10
1.57503
 20
7.49268
 30
0.0
 40
0.0104167
 41
0.0104167
  0
VERTEX
  8
0
 10
1.55718
 20
7.46619
 30
0.0
 40
0.0104167
 41
0.0104167
  0
VERTEX
  8
0
 10
1.53065
 20
7.44835
 30
0.0
 40
0.0104167
 41
0.0104167
  0
VERTEX
  8
0
 10
1.50635
 20
7.44179
 30
0.0
 40
0.0104167
 41
0.0104167
  0
VERTEX
  8
0
 10
1.49826
 20
7.44179
 30
0.0
 40
0.0104167
 41
0.0104167
  0
VERTEX
  8
0
 10
1.49013
 20
7.44179
 30
0.0
 40
0.0104167
 41
0.0104167
  0
VERTEX
  8
0
 10
1.46582
 20
7.44835
 30
0.0
 40
0.0104167
 41
0.0104167
  0
VERTEX
  8
0
 10
1.43935
 20
7.46619
 30
0.0
 40
0.0104167
 41
0.0104167
  0
VERTEX
  8
0
 10
1.42144
 20
7.49268
 30
0.0
 40
0.0104167
 41
0.0104167
  0
VERTEX
  8
0
 10
1.41493
 20
7.51704
 30
0.0
 40
0.0104167
 41
0.0104167
  0
VERTEX
  8
0
 10
1.41493
 20
7.52513
 30
0.0
 40
0.0104167
 41
0.0104167
  0
VERTEX
  8
0
 10
1.41493
 20
7.53326
 30
0.0
 40
0.0104167
 41
0.0104167
  0
VERTEX
  8
0
 10
1.42144
 20
7.55757
 30
0.0
 40
0.0104167
 41
0.0104167
  0
VERTEX
  8
0
 10
1.43935
 20
7.58404
 30
0.0
 40
0.0104167
 41
0.0104167
  0
VERTEX
  8
0
 10
1.46582
 20
7.60194
 30
0.0
 40
0.0104167
 41
0.0104167
  0
VERTEX
  8
0
 10
1.49013
 20
7.60846
 30
0.0
 40
0.0104167
 41
0.0104167
  0
VERTEX
  8
0
 10
1.49826
 20
7.60846
 30
0.0
 40
0.0104167
 41
0.0104167
  0
SEQEND
 8
0
  0
POLYLINE
  8
0
 62
     7
 66
     1
 10
0
 20
0
 30
0.0
 70
     1
 40
0
 41
0
  0
VERTEX
  8
0
 10
1.49826
 20
7.8826
 30
0.0
 40
0
 41
0
  0
VERTEX
  8
0
 10
1.50635
 20
7.8826
 30
0.0
 40
0
 41
0
  0
VERTEX
  8
0
 10
1.53065
 20
7.87608
 30
0.0
 40
0
 41
0
  0
VERTEX
  8
0
 10
1.55718
 20
7.85818
 30
0.0
 40
0
 41
0
  0
VERTEX
  8
0
 10
1.57503
 20
7.83171
 30
0.0
 40
0
 41
0
  0
VERTEX
  8
0
 10
1.5816
 20
7.8074
 30
0.0
 40
0
 41
0
  0
VERTEX
  8
0
 10
1.5816
 20
7.79926
 30
0.0
 40
0
 41
0
  0
VERTEX
  8
0
 10
1.5816
 20
7.79118
 30
0.0
 40
0
 41
0
  0
VERTEX
  8
0
 10
1.57503
 20
7.76688
 30
0.0
 40
0
 41
0
  0
VERTEX
  8
0
 10
1.55718
 20
7.74035
 30
0.0
 40
0
 41
0
  0
VERTEX
  8
0
 10
1.53065
 20
7.7225
 30
0.0
 40
0
 41
0
  0
VERTEX
  8
0
 10
1.50635
 20
7.71593
 30
0.0
 40
0
 41
0
  0
VERTEX
  8
0
 10
1.49826
 20
7.71593
 30
0.0
 40
0
 41
0
  0
VERTEX
  8
0
 10
1.49013
 20
7.71593
 30
0.0
 40
0
 41
0
  0
VERTEX
  8
0
 10
1.46582
 20
7.7225
 30
0.0
 40
0
 41
0
  0
VERTEX
  8
0
 10
1.43935
 20
7.74035
 30
0.0
 40
0
 41
0
  0
VERTEX
  8
0
 10
1.42144
 20
7.76688
 30
0.0
 40
0
 41
0
  0
VERTEX
  8
0
 10
1.41493
 20
7.79118
 30
0.0
 40
0
 41
0
  0
VERTEX
  8
0
 10
1.41493
 20
7.79926
 30
0.0
 40
0
 41
0
  0
VERTEX
  8
0
 10
1.41493
 20
7.8074
 30
0.0
 40
0
 41
0
  0
VERTEX
  8
0
 10
1.42144
 20
7.83171
 30
0.0
 40
0
 41
0
  0
VERTEX
  8
0
 10
1.43935
 20
7.85818
 30
0.0
 40
0
 41
0
  0
VERTEX
  8
0
 10
1.46582
 20
7.87608
 30
0.0
 40
0
 41
0
  0
VERTEX
  8
0
 10
1.49013
 20
7.8826
 30
0.0
 40
0
 41
0
  0
VERTEX
  8
0
 10
1.49826
 20
7.8826
 30
0.0
 40
0
 41
0
  0
SEQEND
 8
0
  0
POLYLINE
  8
0
 62
     0
 66
     1
 10
0
 20
0
 30
0.0
 70
     1
 40
0.75
 41
0.75
  0
VERTEX
  8
0
 10
1.49826
 20
7.8826
 30
0.0
 40
0.0104167
 41
0.0104167
  0
VERTEX
  8
0
 10
1.50635
 20
7.8826
 30
0.0
 40
0.0104167
 41
0.0104167
  0
VERTEX
  8
0
 10
1.53065
 20
7.87608
 30
0.0
 40
0.0104167
 41
0.0104167
  0
VERTEX
  8
0
 10
1.55718
 20
7.85818
 30
0.0
 40
0.0104167
 41
0.0104167
  0
VERTEX
  8
0
 10
1.57503
 20
7.83171
 30
0.0
 40
0.0104167
 41
0.0104167
  0
VERTEX
  8
0
 10
1.5816
 20
7.8074
 30
0.0
 40
0.0104167
 41
0.0104167
  0
VERTEX
  8
0
 10
1.5816
 20
7.79926
 30
0.0
 40
0.0104167
 41
0.0104167
  0
VERTEX
  8
0
 10
1.5816
 20
7.79118
 30
0.0
 40
0.0104167
 41
0.0104167
  0
VERTEX
  8
0
 10
1.57503
 20
7.76688
 30
0.0
 40
0.0104167
 41
0.0104167
  0
VERTEX
  8
0
 10
1.55718
 20
7.74035
 30
0.0
 40
0.0104167
 41
0.0104167
  0
VERTEX
  8
0
 10
1.53065
 20
7.7225
 30
0.0
 40
0.0104167
 41
0.0104167
  0
VERTEX
  8
0
 10
1.50635
 20
7.71593
 30
0.0
 40
0.0104167
 41
0.0104167
  0
VERTEX
  8
0
 10
1.49826
 20
7.71593
 30
0.0
 40
0.0104167
 41
0.0104167
  0
VERTEX
  8
0
 10
1.49013
 20
7.71593
 30
0.0
 40
0.0104167
 41
0.0104167
  0
VERTEX
  8
0
 10
1.46582
 20
7.7225
 30
0.0
 40
0.0104167
 41
0.0104167
  0
VERTEX
  8
0
 10
1.43935
 20
7.74035
 30
0.0
 40
0.0104167
 41
0.0104167
  0
VERTEX
  8
0
 10
1.42144
 20
7.76688
 30
0.0
 40
0.0104167
 41
0.0104167
  0
VERTEX
  8
0
 10
1.41493
 20
7.79118
 30
0.0
 40
0.0104167
 41
0.0104167
  0
VERTEX
  8
0
 10
1.41493
 20
7.79926
 30
0.0
 40
0.0104167
 41
0.0104167
  0
VERTEX
  8
0
 10
1.41493
 20
7.8074
 30
0.0
 40
0.0104167
 41
0.0104167
  0
VERTEX
  8
0
 10
1.42144
 20
7.83171
 30
0.0
 40
0.0104167
 41
0.0104167
  0
VERTEX
  8
0
 10
1.43935
 20
7.85818
 30
0.0
 40
0.0104167
 41
0.0104167
  0
VERTEX
  8
0
 10
1.46582
 20
7.87608
 30
0.0
 40
0.0104167
 41
0.0104167
  0
VERTEX
  8
0
 10
1.49013
 20
7.8826
 30
0.0
 40
0.0104167
 41
0.0104167
  0
VERTEX
  8
0
 10
1.49826
 20
7.8826
 30
0.0
 40
0.0104167
 41
0.0104167
  0
SEQEND
 8
0
  0
POLYLINE
  8
0
 62
     7
 66
     1
 10
0
 20
0
 30
0.0
 70
     1
 40
0
 41
0
  0
VERTEX
  8
0
 10
1.14453
 20
6.36035
 30
0.0
 40
0
 41
0
  0
VERTEX
  8
0
 10
1.61328
 20
6.36035
 30
0.0
 40
0
 41
0
  0
VERTEX
  8
0
 10
1.61328
 20
6.06347
 30
0.0
 40
0
 41
0
  0
VERTEX
  8
0
 10
1.14453
 20
6.06347
 30
0.0
 40
0
 41
0
  0
VERTEX
  8
0
 10
1.14453
 20
6.36035
 30
0.0
 40
0
 41
0
  0
SEQEND
 8
0
  0
POLYLINE
  8
0
 62
     0
 66
     1
 10
0
 20
0
 30
0.0
 70
     1
 40
0.75
 41
0.75
  0
VERTEX
  8
0
 10
1.14453
 20
6.36035
 30
0.0
 40
0.0104167
 41
0.0104167
  0
VERTEX
  8
0
 10
1.14453
 20
6.06347
 30
0.0
 40
0.0104167
 41
0.0104167
  0
VERTEX
  8
0
 10
1.61328
 20
6.06347
 30
0.0
 40
0.0104167
 41
0.0104167
  0
VERTEX
  8
0
 10
1.61328
 20
6.36035
 30
0.0
 40
0.0104167
 41
0.0104167
  0
VERTEX
  8
0
 10
1.14453
 20
6.36035
 30
0.0
 40
0.0104167
 41
0.0104167
  0
SEQEND
 8
0
  0
POLYLINE
  8
0
 62
     7
 66
     1
 10
0
 20
0
 30
0.0
 70
     1
 40
0
 41
0
  0
VERTEX
  8
0
 10
1.14556
 20
6.68847
 30
0.0
 40
0
 41
0
  0
VERTEX
  8
0
 10
1.61431
 20
6.68847
 30
0.0
 40
0
 41
0
  0
VERTEX
  8
0
 10
1.61431
 20
6.3916
 30
0.0
 40
0
 41
0
  0
VERTEX
  8
0
 10
1.14556
 20
6.3916
 30
0.0
 40
0
 41
0
  0
VERTEX
  8
0
 10
1.14556
 20
6.68847
 30
0.0
 40
0
 41
0
  0
SEQEND
 8
0
  0
POLYLINE
  8
0
 62
     0
 66
     1
 10
0
 20
0
 30
0.0
 70
     1
 40
0.75
 41
0.75
  0
VERTEX
  8
0
 10
1.14556
 20
6.68847
 30
0.0
 40
0.0104167
 41
0.0104167
  0
VERTEX
  8
0
 10
1.14556
 20
6.3916
 30
0.0
 40
0.0104167
 41
0.0104167
  0
VERTEX
  8
0
 10
1.61431
 20
6.3916
 30
0.0
 40
0.0104167
 41
0.0104167
  0
VERTEX
  8
0
 10
1.61431
 20
6.68847
 30
0.0
 40
0.0104167
 41
0.0104167
  0
VERTEX
  8
0
 10
1.14556
 20
6.68847
 30
0.0
 40
0.0104167
 41
0.0104167
  0
SEQEND
 8
0
  0
POLYLINE
  8
0
 62
     7
 66
     1
 10
0
 20
0
 30
0.0
 70
     1
 40
0
 41
0
  0
VERTEX
  8
0
 10
1.37994
 20
6.25304
 30
0.0
 40
0
 41
0
  0
VERTEX
  8
0
 10
1.38634
 20
6.25304
 30
0.0
 40
0
 41
0
  0
VERTEX
  8
0
 10
1.40571
 20
6.2424
 30
0.0
 40
0
 41
0
  0
VERTEX
  8
0
 10
1.41639
 20
6.22304
 30
0.0
 40
0
 41
0
  0
VERTEX
  8
0
 10
1.41639
 20
6.21658
 30
0.0
 40
0
 41
0
  0
VERTEX
  8
0
 10
1.41639
 20
6.21018
 30
0.0
 40
0
 41
0
  0
VERTEX
  8
0
 10
1.40571
 20
6.19081
 30
0.0
 40
0
 41
0
  0
VERTEX
  8
0
 10
1.38634
 20
6.18012
 30
0.0
 40
0
 41
0
  0
VERTEX
  8
0
 10
1.37994
 20
6.18012
 30
0.0
 40
0
 41
0
  0
VERTEX
  8
0
 10
1.37348
 20
6.18012
 30
0.0
 40
0
 41
0
  0
VERTEX
  8
0
 10
1.35411
 20
6.19081
 30
0.0
 40
0
 41
0
  0
VERTEX
  8
0
 10
1.34348
 20
6.21018
 30
0.0
 40
0
 41
0
  0
VERTEX
  8
0
 10
1.34348
 20
6.21658
 30
0.0
 40
0
 41
0
  0
VERTEX
  8
0
 10
1.34348
 20
6.22304
 30
0.0
 40
0
 41
0
  0
VERTEX
  8
0
 10
1.35411
 20
6.2424
 30
0.0
 40
0
 41
0
  0
VERTEX
  8
0
 10
1.37348
 20
6.25304
 30
0.0
 40
0
 41
0
  0
VERTEX
  8
0
 10
1.37994
 20
6.25304
 30
0.0
 40
0
 41
0
  0
SEQEND
 8
0
  0
POLYLINE
  8
0
 62
     0
 66
     1
 10
0
 20
0
 30
0.0
 70
     1
 40
0.6
 41
0.6
  0
VERTEX
  8
0
 10
1.37994
 20
6.25304
 30
0.0
 40
0.00833333
 41
0.00833333
  0
VERTEX
  8
0
 10
1.38634
 20
6.25304
 30
0.0
 40
0.00833333
 41
0.00833333
  0
VERTEX
  8
0
 10
1.40571
 20
6.2424
 30
0.0
 40
0.00833333
 41
0.00833333
  0
VERTEX
  8
0
 10
1.41639
 20
6.22304
 30
0.0
 40
0.00833333
 41
0.00833333
  0
VERTEX
  8
0
 10
1.41639
 20
6.21658
 30
0.0
 40
0.00833333
 41
0.00833333
  0
VERTEX
  8
0
 10
1.41639
 20
6.21018
 30
0.0
 40
0.00833333
 41
0.00833333
  0
VERTEX
  8
0
 10
1.40571
 20
6.19081
 30
0.0
 40
0.00833333
 41
0.00833333
  0
VERTEX
  8
0
 10
1.38634
 20
6.18012
 30
0.0
 40
0.00833333
 41
0.00833333
  0
VERTEX
  8
0
 10
1.37994
 20
6.18012
 30
0.0
 40
0.00833333
 41
0.00833333
  0
VERTEX
  8
0
 10
1.37348
 20
6.18012
 30
0.0
 40
0.00833333
 41
0.00833333
  0
VERTEX
  8
0
 10
1.35411
 20
6.19081
 30
0.0
 40
0.00833333
 41
0.00833333
  0
VERTEX
  8
0
 10
1.34348
 20
6.21018
 30
0.0
 40
0.00833333
 41
0.00833333
  0
VERTEX
  8
0
 10
1.34348
 20
6.21658
 30
0.0
 40
0.00833333
 41
0.00833333
  0
VERTEX
  8
0
 10
1.34348
 20
6.22304
 30
0.0
 40
0.00833333
 41
0.00833333
  0
VERTEX
  8
0
 10
1.35411
 20
6.2424
 30
0.0
 40
0.00833333
 41
0.00833333
  0
VERTEX
  8
0
 10
1.37348
 20
6.25304
 30
0.0
 40
0.00833333
 41
0.00833333
  0
VERTEX
  8
0
 10
1.37994
 20
6.25304
 30
0.0
 40
0.00833333
 41
0.00833333
  0
SEQEND
 8
0
  0
POLYLINE
  8
0
 62
     7
 66
     1
 10
0
 20
0
 30
0.0
 70
     1
 40
0
 41
0
  0
VERTEX
  8
0
 10
1.37994
 20
6.57075
 30
0.0
 40
0
 41
0
  0
VERTEX
  8
0
 10
1.38634
 20
6.57075
 30
0.0
 40
0
 41
0
  0
VERTEX
  8
0
 10
1.40571
 20
6.56011
 30
0.0
 40
0
 41
0
  0
VERTEX
  8
0
 10
1.41639
 20
6.54075
 30
0.0
 40
0
 41
0
  0
VERTEX
  8
0
 10
1.41639
 20
6.53429
 30
0.0
 40
0
 41
0
  0
VERTEX
  8
0
 10
1.41639
 20
6.52789
 30
0.0
 40
0
 41
0
  0
VERTEX
  8
0
 10
1.40571
 20
6.50851
 30
0.0
 40
0
 41
0
  0
VERTEX
  8
0
 10
1.38634
 20
6.49783
 30
0.0
 40
0
 41
0
  0
VERTEX
  8
0
 10
1.37994
 20
6.49783
 30
0.0
 40
0
 41
0
  0
VERTEX
  8
0
 10
1.37348
 20
6.49783
 30
0.0
 40
0
 41
0
  0
VERTEX
  8
0
 10
1.35411
 20
6.50851
 30
0.0
 40
0
 41
0
  0
VERTEX
  8
0
 10
1.34348
 20
6.52789
 30
0.0
 40
0
 41
0
  0
VERTEX
  8
0
 10
1.34348
 20
6.53429
 30
0.0
 40
0
 41
0
  0
VERTEX
  8
0
 10
1.34348
 20
6.54075
 30
0.0
 40
0
 41
0
  0
VERTEX
  8
0
 10
1.35411
 20
6.56011
 30
0.0
 40
0
 41
0
  0
VERTEX
  8
0
 10
1.37348
 20
6.57075
 30
0.0
 40
0
 41
0
  0
VERTEX
  8
0
 10
1.37994
 20
6.57075
 30
0.0
 40
0
 41
0
  0
SEQEND
 8
0
  0
POLYLINE
  8
0
 62
     0
 66
     1
 10
0
 20
0
 30
0.0
 70
     1
 40
0.6
 41
0.6
  0
VERTEX
  8
0
 10
1.37994
 20
6.57075
 30
0.0
 40
0.00833333
 41
0.00833333
  0
VERTEX
  8
0
 10
1.38634
 20
6.57075
 30
0.0
 40
0.00833333
 41
0.00833333
  0
VERTEX
  8
0
 10
1.40571
 20
6.56011
 30
0.0
 40
0.00833333
 41
0.00833333
  0
VERTEX
  8
0
 10
1.41639
 20
6.54075
 30
0.0
 40
0.00833333
 41
0.00833333
  0
VERTEX
  8
0
 10
1.41639
 20
6.53429
 30
0.0
 40
0.00833333
 41
0.00833333
  0
VERTEX
  8
0
 10
1.41639
 20
6.52789
 30
0.0
 40
0.00833333
 41
0.00833333
  0
VERTEX
  8
0
 10
1.40571
 20
6.50851
 30
0.0
 40
0.00833333
 41
0.00833333
  0
VERTEX
  8
0
 10
1.38634
 20
6.49783
 30
0.0
 40
0.00833333
 41
0.00833333
  0
VERTEX
  8
0
 10
1.37994
 20
6.49783
 30
0.0
 40
0.00833333
 41
0.00833333
  0
VERTEX
  8
0
 10
1.37348
 20
6.49783
 30
0.0
 40
0.00833333
 41
0.00833333
  0
VERTEX
  8
0
 10
1.35411
 20
6.50851
 30
0.0
 40
0.00833333
 41
0.00833333
  0
VERTEX
  8
0
 10
1.34348
 20
6.52789
 30
0.0
 40
0.00833333
 41
0.00833333
  0
VERTEX
  8
0
 10
1.34348
 20
6.53429
 30
0.0
 40
0.00833333
 41
0.00833333
  0
VERTEX
  8
0
 10
1.34348
 20
6.54075
 30
0.0
 40
0.00833333
 41
0.00833333
  0
VERTEX
  8
0
 10
1.35411
 20
6.56011
 30
0.0
 40
0.00833333
 41
0.00833333
  0
VERTEX
  8
0
 10
1.37348
 20
6.57075
 30
0.0
 40
0.00833333
 41
0.00833333
  0
VERTEX
  8
0
 10
1.37994
 20
6.57075
 30
0.0
 40
0.00833333
 41
0.00833333
  0
SEQEND
 8
0
  0
POLYLINE
  8
0
 62
     7
 66
     1
 10
0
 20
0
 30
0.0
 70
     1
 40
0
 41
0
  0
VERTEX
  8
0
 10
1.37994
 20
6.23742
 30
0.0
 40
0
 41
0
  0
VERTEX
  8
0
 10
1.38357
 20
6.23742
 30
0.0
 40
0
 41
0
  0
VERTEX
  8
0
 10
1.39464
 20
6.23133
 30
0.0
 40
0
 41
0
  0
VERTEX
  8
0
 10
1.40076
 20
6.22026
 30
0.0
 40
0
 41
0
  0
VERTEX
  8
0
 10
1.40076
 20
6.21658
 30
0.0
 40
0
 41
0
  0
VERTEX
  8
0
 10
1.40076
 20
6.21294
 30
0.0
 40
0
 41
0
  0
VERTEX
  8
0
 10
1.39464
 20
6.20188
 30
0.0
 40
0
 41
0
  0
VERTEX
  8
0
 10
1.38357
 20
6.19575
 30
0.0
 40
0
 41
0
  0
VERTEX
  8
0
 10
1.37994
 20
6.19575
 30
0.0
 40
0
 41
0
  0
VERTEX
  8
0
 10
1.37625
 20
6.19575
 30
0.0
 40
0
 41
0
  0
VERTEX
  8
0
 10
1.36518
 20
6.20188
 30
0.0
 40
0
 41
0
  0
VERTEX
  8
0
 10
1.3591
 20
6.21294
 30
0.0
 40
0
 41
0
  0
VERTEX
  8
0
 10
1.3591
 20
6.21658
 30
0.0
 40
0
 41
0
  0
VERTEX
  8
0
 10
1.3591
 20
6.22026
 30
0.0
 40
0
 41
0
  0
VERTEX
  8
0
 10
1.36518
 20
6.23133
 30
0.0
 40
0
 41
0
  0
VERTEX
  8
0
 10
1.37625
 20
6.23742
 30
0.0
 40
0
 41
0
  0
VERTEX
  8
0
 10
1.37994
 20
6.23742
 30
0.0
 40
0
 41
0
  0
SEQEND
 8
0
  0
POLYLINE
  8
0
 62
     0
 66
     1
 10
0
 20
0
 30
0.0
 70
     1
 40
0.6
 41
0.6
  0
VERTEX
  8
0
 10
1.37994
 20
6.23742
 30
0.0
 40
0.00833333
 41
0.00833333
  0
VERTEX
  8
0
 10
1.38357
 20
6.23742
 30
0.0
 40
0.00833333
 41
0.00833333
  0
VERTEX
  8
0
 10
1.39464
 20
6.23133
 30
0.0
 40
0.00833333
 41
0.00833333
  0
VERTEX
  8
0
 10
1.40076
 20
6.22026
 30
0.0
 40
0.00833333
 41
0.00833333
  0
VERTEX
  8
0
 10
1.40076
 20
6.21658
 30
0.0
 40
0.00833333
 41
0.00833333
  0
VERTEX
  8
0
 10
1.40076
 20
6.21294
 30
0.0
 40
0.00833333
 41
0.00833333
  0
VERTEX
  8
0
 10
1.39464
 20
6.20188
 30
0.0
 40
0.00833333
 41
0.00833333
  0
VERTEX
  8
0
 10
1.38357
 20
6.19575
 30
0.0
 40
0.00833333
 41
0.00833333
  0
VERTEX
  8
0
 10
1.37994
 20
6.19575
 30
0.0
 40
0.00833333
 41
0.00833333
  0
VERTEX
  8
0
 10
1.37625
 20
6.19575
 30
0.0
 40
0.00833333
 41
0.00833333
  0
VERTEX
  8
0
 10
1.36518
 20
6.20188
 30
0.0
 40
0.00833333
 41
0.00833333
  0
VERTEX
  8
0
 10
1.3591
 20
6.21294
 30
0.0
 40
0.00833333
 41
0.00833333
  0
VERTEX
  8
0
 10
1.3591
 20
6.21658
 30
0.0
 40
0.00833333
 41
0.00833333
  0
VERTEX
  8
0
 10
1.3591
 20
6.22026
 30
0.0
 40
0.00833333
 41
0.00833333
  0
VERTEX
  8
0
 10
1.36518
 20
6.23133
 30
0.0
 40
0.00833333
 41
0.00833333
  0
VERTEX
  8
0
 10
1.37625
 20
6.23742
 30
0.0
 40
0.00833333
 41
0.00833333
  0
VERTEX
  8
0
 10
1.37994
 20
6.23742
 30
0.0
 40
0.00833333
 41
0.00833333
  0
SEQEND
 8
0
  0
POLYLINE
  8
0
 62
     7
 66
     1
 10
0
 20
0
 30
0.0
 70
     1
 40
0
 41
0
  0
VERTEX
  8
0
 10
1.37994
 20
6.55512
 30
0.0
 40
0
 41
0
  0
VERTEX
  8
0
 10
1.38357
 20
6.55512
 30
0.0
 40
0
 41
0
  0
VERTEX
  8
0
 10
1.39464
 20
6.54904
 30
0.0
 40
0
 41
0
  0
VERTEX
  8
0
 10
1.40076
 20
6.53797
 30
0.0
 40
0
 41
0
  0
VERTEX
  8
0
 10
1.40076
 20
6.53429
 30
0.0
 40
0
 41
0
  0
VERTEX
  8
0
 10
1.40076
 20
6.53065
 30
0.0
 40
0
 41
0
  0
VERTEX
  8
0
 10
1.39464
 20
6.51958
 30
0.0
 40
0
 41
0
  0
VERTEX
  8
0
 10
1.38357
 20
6.51346
 30
0.0
 40
0
 41
0
  0
VERTEX
  8
0
 10
1.37994
 20
6.51346
 30
0.0
 40
0
 41
0
  0
VERTEX
  8
0
 10
1.37625
 20
6.51346
 30
0.0
 40
0
 41
0
  0
VERTEX
  8
0
 10
1.36518
 20
6.51958
 30
0.0
 40
0
 41
0
  0
VERTEX
  8
0
 10
1.3591
 20
6.53065
 30
0.0
 40
0
 41
0
  0
VERTEX
  8
0
 10
1.3591
 20
6.53429
 30
0.0
 40
0
 41
0
  0
VERTEX
  8
0
 10
1.3591
 20
6.53797
 30
0.0
 40
0
 41
0
  0
VERTEX
  8
0
 10
1.36518
 20
6.54904
 30
0.0
 40
0
 41
0
  0
VERTEX
  8
0
 10
1.37625
 20
6.55512
 30
0.0
 40
0
 41
0
  0
VERTEX
  8
0
 10
1.37994
 20
6.55512
 30
0.0
 40
0
 41
0
  0
SEQEND
 8
0
  0
POLYLINE
  8
0
 62
     0
 66
     1
 10
0
 20
0
 30
0.0
 70
     1
 40
0.6
 41
0.6
  0
VERTEX
  8
0
 10
1.37994
 20
6.55512
 30
0.0
 40
0.00833333
 41
0.00833333
  0
VERTEX
  8
0
 10
1.38357
 20
6.55512
 30
0.0
 40
0.00833333
 41
0.00833333
  0
VERTEX
  8
0
 10
1.39464
 20
6.54904
 30
0.0
 40
0.00833333
 41
0.00833333
  0
VERTEX
  8
0
 10
1.40076
 20
6.53797
 30
0.0
 40
0.00833333
 41
0.00833333
  0
VERTEX
  8
0
 10
1.40076
 20
6.53429
 30
0.0
 40
0.00833333
 41
0.00833333
  0
VERTEX
  8
0
 10
1.40076
 20
6.53065
 30
0.0
 40
0.00833333
 41
0.00833333
  0
VERTEX
  8
0
 10
1.39464
 20
6.51958
 30
0.0
 40
0.00833333
 41
0.00833333
  0
VERTEX
  8
0
 10
1.38357
 20
6.51346
 30
0.0
 40
0.00833333
 41
0.00833333
  0
VERTEX
  8
0
 10
1.37994
 20
6.51346
 30
0.0
 40
0.00833333
 41
0.00833333
  0
VERTEX
  8
0
 10
1.37625
 20
6.51346
 30
0.0
 40
0.00833333
 41
0.00833333
  0
VERTEX
  8
0
 10
1.36518
 20
6.51958
 30
0.0
 40
0.00833333
 41
0.00833333
  0
VERTEX
  8
0
 10
1.3591
 20
6.53065
 30
0.0
 40
0.00833333
 41
0.00833333
  0
VERTEX
  8
0
 10
1.3591
 20
6.53429
 30
0.0
 40
0.00833333
 41
0.00833333
  0
VERTEX
  8
0
 10
1.3591
 20
6.53797
 30
0.0
 40
0.00833333
 41
0.00833333
  0
VERTEX
  8
0
 10
1.36518
 20
6.54904
 30
0.0
 40
0.00833333
 41
0.00833333
  0
VERTEX
  8
0
 10
1.37625
 20
6.55512
 30
0.0
 40
0.00833333
 41
0.00833333
  0
VERTEX
  8
0
 10
1.37994
 20
6.55512
 30
0.0
 40
0.00833333
 41
0.00833333
  0
SEQEND
 8
0
  0
POLYLINE
  8
0
 62
     7
 66
     1
 10
0
 20
0
 30
0.0
 70
     1
 40
0
 41
0
  0
VERTEX
  8
0
 10
1.09245
 20
6.40722
 30
0.0
 40
0
 41
0
  0
VERTEX
  8
0
 10
1.23828
 20
6.40722
 30
0.0
 40
0
 41
0
  0
VERTEX
  8
0
 10
1.23828
 20
6.34472
 30
0.0
 40
0
 41
0
  0
VERTEX
  8
0
 10
1.09245
 20
6.34472
 30
0.0
 40
0
 41
0
  0
VERTEX
  8
0
 10
1.09245
 20
6.40722
 30
0.0
 40
0
 41
0
  0
SEQEND
 8
0
  0
POLYLINE
  8
0
 62
     0
 66
     1
 10
0
 20
0
 30
0.0
 70
     1
 40
0.75
 41
0.75
  0
VERTEX
  8
0
 10
1.09245
 20
6.40722
 30
0.0
 40
0.0104167
 41
0.0104167
  0
VERTEX
  8
0
 10
1.09245
 20
6.34472
 30
0.0
 40
0.0104167
 41
0.0104167
  0
VERTEX
  8
0
 10
1.23828
 20
6.34472
 30
0.0
 40
0.0104167
 41
0.0104167
  0
VERTEX
  8
0
 10
1.23828
 20
6.40722
 30
0.0
 40
0.0104167
 41
0.0104167
  0
VERTEX
  8
0
 10
1.09245
 20
6.40722
 30
0.0
 40
0.0104167
 41
0.0104167
  0
SEQEND
 8
0
  0
POLYLINE
  8
0
 62
     0
 66
     1
 10
0
 20
0
 30
0.0
 70
     1
 40
0.75
 41
0.75
  0
VERTEX
  8
0
 10
1.04167
 20
8.4394
 30
0.0
 40
0.0104167
 41
0.0104167
  0
VERTEX
  8
0
 10
1.04167
 20
5.95307
 30
0.0
 40
0.0104167
 41
0.0104167
  0
VERTEX
  8
0
 10
1.35417
 20
5.95307
 30
0.0
 40
0.0104167
 41
0.0104167
  0
VERTEX
  8
0
 10
1.35417
 20
8.4394
 30
0.0
 40
0.0104167
 41
0.0104167
  0
VERTEX
  8
0
 10
1.04167
 20
8.4394
 30
0.0
 40
0.0104167
 41
0.0104167
  0
SEQEND
 8
0
  0
POLYLINE
  8
0
 62
     7
 66
     1
 10
0
 20
0
 30
0.0
 70
     1
 40
0
 41
0
  0
VERTEX
  8
0
 10
2.83317
 20
7.41163
 30
0.0
 40
0
 41
0
  0
VERTEX
  8
0
 10
3.45817
 20
7.41163
 30
0.0
 40
0
 41
0
  0
VERTEX
  8
0
 10
3.45817
 20
6.78662
 30
0.0
 40
0
 41
0
  0
VERTEX
  8
0
 10
2.83317
 20
6.78662
 30
0.0
 40
0
 41
0
  0
VERTEX
  8
0
 10
2.83317
 20
7.41163
 30
0.0
 40
0
 41
0
  0
SEQEND
 8
0
  0
POLYLINE
  8
0
 62
     0
 66
     1
 10
0
 20
0
 30
0.0
 70
     1
 40
0.75
 41
0.75
  0
VERTEX
  8
0
 10
2.83317
 20
7.41163
 30
0.0
 40
0.0104167
 41
0.0104167
  0
VERTEX
  8
0
 10
2.83317
 20
6.78662
 30
0.0
 40
0.0104167
 41
0.0104167
  0
VERTEX
  8
0
 10
3.45817
 20
6.78662
 30
0.0
 40
0.0104167
 41
0.0104167
  0
VERTEX
  8
0
 10
3.45817
 20
7.41163
 30
0.0
 40
0.0104167
 41
0.0104167
  0
VERTEX
  8
0
 10
2.83317
 20
7.41163
 30
0.0
 40
0.0104167
 41
0.0104167
  0
SEQEND
 8
0
  0
POLYLINE
  8
0
 62
     0
 66
     1
 10
0
 20
0
 30
0.0
 40
0.75
 41
0.75
  0
VERTEX
  8
0
 10
3.45817
 20
7.41163
 30
0.0
 40
0.0104167
 41
0.0104167
  0
VERTEX
  8
0
 10
3.07172
 20
7.09912
 30
0.0
 40
0.0104167
 41
0.0104167
  0
VERTEX
  8
0
 10
3.25922
 20
7.09912
 30
0.0
 40
0.0104167
 41
0.0104167
  0
VERTEX
  8
0
 10
2.87169
 20
6.78662
 30
0.0
 40
0.0104167
 41
0.0104167
  0
SEQEND
 8
0
  0
POLYLINE
  8
0
 62
     7
 66
     1
 10
0
 20
0
 30
0.0
 70
     1
 40
0
 41
0
  0
VERTEX
  8
0
 10
2.83317
 20
7.41163
 30
0.0
 40
0
 41
0
  0
VERTEX
  8
0
 10
2.87483
 20
7.41163
 30
0.0
 40
0
 41
0
  0
VERTEX
  8
0
 10
2.87483
 20
6.78662
 30
0.0
 40
0
 41
0
  0
VERTEX
  8
0
 10
2.83317
 20
6.78662
 30
0.0
 40
0
 41
0
  0
VERTEX
  8
0
 10
2.83317
 20
7.41163
 30
0.0
 40
0
 41
0
  0
SEQEND
 8
0
  0
POLYLINE
  8
0
 62
     0
 66
     1
 10
0
 20
0
 30
0.0
 70
     1
 40
0.75
 41
0.75
  0
VERTEX
  8
0
 10
2.83317
 20
7.41163
 30
0.0
 40
0.0104167
 41
0.0104167
  0
VERTEX
  8
0
 10
2.83317
 20
6.78662
 30
0.0
 40
0.0104167
 41
0.0104167
  0
VERTEX
  8
0
 10
2.87483
 20
6.78662
 30
0.0
 40
0.0104167
 41
0.0104167
  0
VERTEX
  8
0
 10
2.87483
 20
7.41163
 30
0.0
 40
0.0104167
 41
0.0104167
  0
VERTEX
  8
0
 10
2.83317
 20
7.41163
 30
0.0
 40
0.0104167
 41
0.0104167
  0
SEQEND
 8
0
  0
POLYLINE
  8
0
 62
     7
 66
     1
 10
0
 20
0
 30
0.0
 70
     1
 40
0
 41
0
  0
VERTEX
  8
0
 10
2.83317
 20
6.78662
 30
0.0
 40
0
 41
0
  0
VERTEX
  8
0
 10
3.45817
 20
6.78662
 30
0.0
 40
0
 41
0
  0
VERTEX
  8
0
 10
3.45817
 20
6.16162
 30
0.0
 40
0
 41
0
  0
VERTEX
  8
0
 10
2.83317
 20
6.16162
 30
0.0
 40
0
 41
0
  0
VERTEX
  8
0
 10
2.83317
 20
6.78662
 30
0.0
 40
0
 41
0
  0
SEQEND
 8
0
  0
POLYLINE
  8
0
 62
     0
 66
     1
 10
0
 20
0
 30
0.0
 70
     1
 40
0.75
 41
0.75
  0
VERTEX
  8
0
 10
2.83317
 20
6.78662
 30
0.0
 40
0.0104167
 41
0.0104167
  0
VERTEX
  8
0
 10
2.83317
 20
6.16162
 30
0.0
 40
0.0104167
 41
0.0104167
  0
VERTEX
  8
0
 10
3.45817
 20
6.16162
 30
0.0
 40
0.0104167
 41
0.0104167
  0
VERTEX
  8
0
 10
3.45817
 20
6.78662
 30
0.0
 40
0.0104167
 41
0.0104167
  0
VERTEX
  8
0
 10
2.83317
 20
6.78662
 30
0.0
 40
0.0104167
 41
0.0104167
  0
SEQEND
 8
0
  0
POLYLINE
  8
0
 62
     0
 66
     1
 10
0
 20
0
 30
0.0
 40
0.75
 41
0.75
  0
VERTEX
  8
0
 10
3.45817
 20
6.78662
 30
0.0
 40
0.0104167
 41
0.0104167
  0
VERTEX
  8
0
 10
3.04357
 20
6.4731
 30
0.0
 40
0.0104167
 41
0.0104167
  0
VERTEX
  8
0
 10
3.25608
 20
6.4731
 30
0.0
 40
0.0104167
 41
0.0104167
  0
VERTEX
  8
0
 10
2.83317
 20
6.16271
 30
0.0
 40
0.0104167
 41
0.0104167
  0
SEQEND
 8
0
  0
POLYLINE
  8
0
 62
     7
 66
     1
 10
0
 20
0
 30
0.0
 70
     1
 40
0
 41
0
  0
VERTEX
  8
0
 10
2.83122
 20
8.4381
 30
0.0
 40
0
 41
0
  0
VERTEX
  8
0
 10
3.45622
 20
8.4381
 30
0.0
 40
0
 41
0
  0
VERTEX
  8
0
 10
3.45622
 20
7.41163
 30
0.0
 40
0
 41
0
  0
VERTEX
  8
0
 10
2.83122
 20
7.41163
 30
0.0
 40
0
 41
0
  0
VERTEX
  8
0
 10
2.83122
 20
8.4381
 30
0.0
 40
0
 41
0
  0
SEQEND
 8
0
  0
POLYLINE
  8
0
 62
     0
 66
     1
 10
0
 20
0
 30
0.0
 70
     1
 40
0.75
 41
0.75
  0
VERTEX
  8
0
 10
2.83122
 20
8.4381
 30
0.0
 40
0.0104167
 41
0.0104167
  0
VERTEX
  8
0
 10
2.83122
 20
7.41163
 30
0.0
 40
0.0104167
 41
0.0104167
  0
VERTEX
  8
0
 10
3.45622
 20
7.41163
 30
0.0
 40
0.0104167
 41
0.0104167
  0
VERTEX
  8
0
 10
3.45622
 20
8.4381
 30
0.0
 40
0.0104167
 41
0.0104167
  0
VERTEX
  8
0
 10
2.83122
 20
8.4381
 30
0.0
 40
0.0104167
 41
0.0104167
  0
SEQEND
 8
0
  0
POLYLINE
  8
0
 62
     0
 66
     1
 10
0
 20
0
 30
0.0
 70
     1
 40
0.75
 41
0.75
  0
VERTEX
  8
0
 10
3.14372
 20
8.4381
 30
0.0
 40
0.0104167
 41
0.0104167
  0
VERTEX
  8
0
 10
3.14372
 20
7.41163
 30
0.0
 40
0.0104167
 41
0.0104167
  0
VERTEX
  8
0
 10
3.45622
 20
7.41163
 30
0.0
 40
0.0104167
 41
0.0104167
  0
VERTEX
  8
0
 10
3.45622
 20
8.4381
 30
0.0
 40
0.0104167
 41
0.0104167
  0
VERTEX
  8
0
 10
3.14372
 20
8.4381
 30
0.0
 40
0.0104167
 41
0.0104167
  0
SEQEND
 8
0
  0
POLYLINE
  8
0
 62
     7
 66
     1
 10
0
 20
0
 30
0.0
 70
     1
 40
0
 41
0
  0
VERTEX
  8
0
 10
2.93892
 20
3.08599
 30
0.0
 40
0
 41
0
  0
VERTEX
  8
0
 10
3.56392
 20
3.08599
 30
0.0
 40
0
 41
0
  0
VERTEX
  8
0
 10
3.56392
 20
2.66194
 30
0.0
 40
0
 41
0
  0
VERTEX
  8
0
 10
2.93892
 20
2.66194
 30
0.0
 40
0
 41
0
  0
VERTEX
  8
0
 10
2.93892
 20
3.08599
 30
0.0
 40
0
 41
0
  0
SEQEND
 8
0
  0
POLYLINE
  8
0
 62
     0
 66
     1
 10
0
 20
0
 30
0.0
 70
     1
 40
0.75
 41
0.75
  0
VERTEX
  8
0
 10
2.93892
 20
3.08599
 30
0.0
 40
0.0104167
 41
0.0104167
  0
VERTEX
  8
0
 10
2.93892
 20
2.66194
 30
0.0
 40
0.0104167
 41
0.0104167
  0
VERTEX
  8
0
 10
3.56392
 20
2.66194
 30
0.0
 40
0.0104167
 41
0.0104167
  0
VERTEX
  8
0
 10
3.56392
 20
3.08599
 30
0.0
 40
0.0104167
 41
0.0104167
  0
VERTEX
  8
0
 10
2.93892
 20
3.08599
 30
0.0
 40
0.0104167
 41
0.0104167
  0
SEQEND
 8
0
  0
POLYLINE
  8
0
 62
     7
 66
     1
 10
0
 20
0
 30
0.0
 70
     1
 40
0
 41
0
  0
VERTEX
  8
0
 10
2.93892
 20
3.71511
 30
0.0
 40
0
 41
0
  0
VERTEX
  8
0
 10
3.56392
 20
3.71511
 30
0.0
 40
0
 41
0
  0
VERTEX
  8
0
 10
3.56392
 20
3.08604
 30
0.0
 40
0
 41
0
  0
VERTEX
  8
0
 10
2.93892
 20
3.08604
 30
0.0
 40
0
 41
0
  0
VERTEX
  8
0
 10
2.93892
 20
3.71511
 30
0.0
 40
0
 41
0
  0
SEQEND
 8
0
  0
POLYLINE
  8
0
 62
     0
 66
     1
 10
0
 20
0
 30
0.0
 70
     1
 40
0.75
 41
0.75
  0
VERTEX
  8
0
 10
2.93892
 20
3.71511
 30
0.0
 40
0.0104167
 41
0.0104167
  0
VERTEX
  8
0
 10
2.93892
 20
3.08604
 30
0.0
 40
0.0104167
 41
0.0104167
  0
VERTEX
  8
0
 10
3.56392
 20
3.08604
 30
0.0
 40
0.0104167
 41
0.0104167
  0
VERTEX
  8
0
 10
3.56392
 20
3.71511
 30
0.0
 40
0.0104167
 41
0.0104167
  0
VERTEX
  8
0
 10
2.93892
 20
3.71511
 30
0.0
 40
0.0104167
 41
0.0104167
  0
SEQEND
 8
0
  0
POLYLINE
  8
0
 62
     253
 66
     1
 10
0
 20
0
 30
0.0
 40
0.75
 41
0.75
  0
VERTEX
  8
0
 10
3.25142
 20
3.08604
 30
0.0
 40
0.0104167
 41
0.0104167
  0
VERTEX
  8
0
 10
3.25142
 20
3.71506
 30
0.0
 40
0.0104167
 41
0.0104167
  0
SEQEND
 8
0
  0
POLYLINE
  8
0
 62
     7
 66
     1
 10
0
 20
0
 30
0.0
 70
     1
 40
0
 41
0
  0
VERTEX
  8
0
 10
2.93744
 20
5.07329
 30
0.0
 40
0
 41
0
  0
VERTEX
  8
0
 10
3.56244
 20
5.07329
 30
0.0
 40
0
 41
0
  0
VERTEX
  8
0
 10
3.56244
 20
3.71506
 30
0.0
 40
0
 41
0
  0
VERTEX
  8
0
 10
2.93744
 20
3.71506
 30
0.0
 40
0
 41
0
  0
VERTEX
  8
0
 10
2.93744
 20
5.07329
 30
0.0
 40
0
 41
0
  0
SEQEND
 8
0
  0
POLYLINE
  8
0
 62
     0
 66
     1
 10
0
 20
0
 30
0.0
 70
     1
 40
0.75
 41
0.75
  0
VERTEX
  8
0
 10
2.93744
 20
5.07329
 30
0.0
 40
0.0104167
 41
0.0104167
  0
VERTEX
  8
0
 10
2.93744
 20
3.71506
 30
0.0
 40
0.0104167
 41
0.0104167
  0
VERTEX
  8
0
 10
3.56244
 20
3.71506
 30
0.0
 40
0.0104167
 41
0.0104167
  0
VERTEX
  8
0
 10
3.56244
 20
5.07329
 30
0.0
 40
0.0104167
 41
0.0104167
  0
VERTEX
  8
0
 10
2.93744
 20
5.07329
 30
0.0
 40
0.0104167
 41
0.0104167
  0
SEQEND
 8
0
  0
POLYLINE
  8
0
 62
     253
 66
     1
 10
0
 20
0
 30
0.0
 40
0.75
 41
0.75
  0
VERTEX
  8
0
 10
3.24994
 20
3.71506
 30
0.0
 40
0.0104167
 41
0.0104167
  0
VERTEX
  8
0
 10
3.24994
 20
5.07335
 30
0.0
 40
0.0104167
 41
0.0104167
  0
SEQEND
 8
0
  0
POLYLINE
  8
0
 62
     7
 66
     1
 10
0
 20
0
 30
0.0
 70
     1
 40
0
 41
0
  0
VERTEX
  8
0
 10
5.8526
 20
6.42275
 30
0.0
 40
0
 41
0
  0
VERTEX
  8
0
 10
6.03988
 20
6.42275
 30
0.0
 40
0
 41
0
  0
VERTEX
  8
0
 10
6.03988
 20
6.00618
 30
0.0
 40
0
 41
0
  0
VERTEX
  8
0
 10
5.8526
 20
6.00618
 30
0.0
 40
0
 41
0
  0
VERTEX
  8
0
 10
5.8526
 20
6.42275
 30
0.0
 40
0
 41
0
  0
SEQEND
 8
0
  0
POLYLINE
  8
0
 62
     0
 66
     1
 10
0
 20
0
 30
0.0
 70
     1
 40
0.75
 41
0.75
  0
VERTEX
  8
0
 10
5.8526
 20
6.42275
 30
0.0
 40
0.0104167
 41
0.0104167
  0
VERTEX
  8
0
 10
5.8526
 20
6.00618
 30
0.0
 40
0.0104167
 41
0.0104167
  0
VERTEX
  8
0
 10
6.03988
 20
6.00618
 30
0.0
 40
0.0104167
 41
0.0104167
  0
VERTEX
  8
0
 10
6.03988
 20
6.42275
 30
0.0
 40
0.0104167
 41
0.0104167
  0
VERTEX
  8
0
 10
5.8526
 20
6.42275
 30
0.0
 40
0.0104167
 41
0.0104167
  0
SEQEND
 8
0
  0
POLYLINE
  8
0
 62
     7
 66
     1
 10
0
 20
0
 30
0.0
 70
     1
 40
0
 41
0
  0
VERTEX
  8
0
 10
5.58431
 20
6.00618
 30
0.0
 40
0
 41
0
  0
VERTEX
  8
0
 10
5.58431
 20
6.00618
 30
0.0
 40
0
 41
0
  0
VERTEX
  8
0
 10
5.57254
 20
6.00613
 30
0.0
 40
0
 41
0
  0
VERTEX
  8
0
 10
5.54156
 20
6.00776
 30
0.0
 40
0
 41
0
  0
VERTEX
  8
0
 10
5.49772
 20
6.01389
 30
0.0
 40
0
 41
0
  0
VERTEX
  8
0
 10
5.44749
 20
6.02729
 30
0.0
 40
0
 41
0
  0
VERTEX
  8
0
 10
5.39725
 20
6.05089
 30
0.0
 40
0
 41
0
  0
VERTEX
  8
0
 10
5.3534
 20
6.08735
 30
0.0
 40
0
 41
0
  0
VERTEX
  8
0
 10
5.32243
 20
6.13949
 30
0.0
 40
0
 41
0
  0
VERTEX
  8
0
 10
5.31071
 20
6.19254
 30
0.0
 40
0
 41
0
  0
VERTEX
  8
0
 10
5.31071
 20
6.21018
 30
0.0
 40
0
 41
0
  0
VERTEX
  8
0
 10
5.31071
 20
6.22851
 30
0.0
 40
0
 41
0
  0
VERTEX
  8
0
 10
5.32243
 20
6.28336
 30
0.0
 40
0
 41
0
  0
VERTEX
  8
0
 10
5.3534
 20
6.33746
 30
0.0
 40
0
 41
0
  0
VERTEX
  8
0
 10
5.39725
 20
6.37528
 30
0.0
 40
0
 41
0
  0
VERTEX
  8
0
 10
5.44749
 20
6.39968
 30
0.0
 40
0
 41
0
  0
VERTEX
  8
0
 10
5.49772
 20
6.41368
 30
0.0
 40
0
 41
0
  0
VERTEX
  8
0
 10
5.54156
 20
6.42008
 30
0.0
 40
0
 41
0
  0
VERTEX
  8
0
 10
5.57254
 20
6.42182
 30
0.0
 40
0
 41
0
  0
VERTEX
  8
0
 10
5.58431
 20
6.42171
 30
0.0
 40
0
 41
0
  0
VERTEX
  8
0
 10
5.58431
 20
6.42171
 30
0.0
 40
0
 41
0
  0
VERTEX
  8
0
 10
5.8526
 20
6.42279
 30
0.0
 40
0
 41
0
  0
VERTEX
  8
0
 10
5.8526
 20
6.00618
 30
0.0
 40
0
 41
0
  0
VERTEX
  8
0
 10
5.58431
 20
6.00618
 30
0.0
 40
0
 41
0
  0
SEQEND
 8
0
  0
POLYLINE
  8
0
 62
     0
 66
     1
 10
0
 20
0
 30
0.0
 70
     1
 40
0.75
 41
0.75
  0
VERTEX
  8
0
 10
5.58431
 20
6.00618
 30
0.0
 40
0.0104167
 41
0.0104167
  0
VERTEX
  8
0
 10
5.58431
 20
6.00618
 30
0.0
 40
0.0104167
 41
0.0104167
  0
VERTEX
  8
0
 10
5.57254
 20
6.00613
 30
0.0
 40
0.0104167
 41
0.0104167
  0
VERTEX
  8
0
 10
5.54156
 20
6.00776
 30
0.0
 40
0.0104167
 41
0.0104167
  0
VERTEX
  8
0
 10
5.49772
 20
6.01389
 30
0.0
 40
0.0104167
 41
0.0104167
  0
VERTEX
  8
0
 10
5.44749
 20
6.02729
 30
0.0
 40
0.0104167
 41
0.0104167
  0
VERTEX
  8
0
 10
5.39725
 20
6.05089
 30
0.0
 40
0.0104167
 41
0.0104167
  0
VERTEX
  8
0
 10
5.3534
 20
6.08735
 30
0.0
 40
0.0104167
 41
0.0104167
  0
VERTEX
  8
0
 10
5.32243
 20
6.13949
 30
0.0
 40
0.0104167
 41
0.0104167
  0
VERTEX
  8
0
 10
5.31071
 20
6.19254
 30
0.0
 40
0.0104167
 41
0.0104167
  0
VERTEX
  8
0
 10
5.31071
 20
6.21018
 30
0.0
 40
0.0104167
 41
0.0104167
  0
VERTEX
  8
0
 10
5.31071
 20
6.22851
 30
0.0
 40
0.0104167
 41
0.0104167
  0
VERTEX
  8
0
 10
5.32243
 20
6.28336
 30
0.0
 40
0.0104167
 41
0.0104167
  0
VERTEX
  8
0
 10
5.3534
 20
6.33746
 30
0.0
 40
0.0104167
 41
0.0104167
  0
VERTEX
  8
0
 10
5.39725
 20
6.37528
 30
0.0
 40
0.0104167
 41
0.0104167
  0
VERTEX
  8
0
 10
5.44749
 20
6.39968
 30
0.0
 40
0.0104167
 41
0.0104167
  0
VERTEX
  8
0
 10
5.49772
 20
6.41368
 30
0.0
 40
0.0104167
 41
0.0104167
  0
VERTEX
  8
0
 10
5.54156
 20
6.42008
 30
0.0
 40
0.0104167
 41
0.0104167
  0
VERTEX
  8
0
 10
5.57254
 20
6.42182
 30
0.0
 40
0.0104167
 41
0.0104167
  0
VERTEX
  8
0
 10
5.58431
 20
6.42171
 30
0.0
 40
0.0104167
 41
0.0104167
  0
VERTEX
  8
0
 10
5.58431
 20
6.42171
 30
0.0
 40
0.0104167
 41
0.0104167
  0
VERTEX
  8
0
 10
5.8526
 20
6.42279
 30
0.0
 40
0.0104167
 41
0.0104167
  0
VERTEX
  8
0
 10
5.8526
 20
6.00618
 30
0.0
 40
0.0104167
 41
0.0104167
  0
VERTEX
  8
0
 10
5.58431
 20
6.00618
 30
0.0
 40
0.0104167
 41
0.0104167
  0
SEQEND
 8
0
  0
POLYLINE
  8
0
 62
     7
 66
     1
 10
0
 20
0
 30
0.0
 70
     1
 40
0
 41
0
  0
VERTEX
  8
0
 10
5.93044
 20
6.24756
 30
0.0
 40
0
 41
0
  0
VERTEX
  8
0
 10
5.96203
 20
6.24756
 30
0.0
 40
0
 41
0
  0
VERTEX
  8
0
 10
5.96203
 20
6.18137
 30
0.0
 40
0
 41
0
  0
VERTEX
  8
0
 10
5.93044
 20
6.18137
 30
0.0
 40
0
 41
0
  0
VERTEX
  8
0
 10
5.93044
 20
6.24756
 30
0.0
 40
0
 41
0
  0
SEQEND
 8
0
  0
POLYLINE
  8
0
 62
     0
 66
     1
 10
0
 20
0
 30
0.0
 70
     1
 40
0.75
 41
0.75
  0
VERTEX
  8
0
 10
5.93044
 20
6.24756
 30
0.0
 40
0.0104167
 41
0.0104167
  0
VERTEX
  8
0
 10
5.93044
 20
6.18137
 30
0.0
 40
0.0104167
 41
0.0104167
  0
VERTEX
  8
0
 10
5.96203
 20
6.18137
 30
0.0
 40
0.0104167
 41
0.0104167
  0
VERTEX
  8
0
 10
5.96203
 20
6.24756
 30
0.0
 40
0.0104167
 41
0.0104167
  0
VERTEX
  8
0
 10
5.93044
 20
6.24756
 30
0.0
 40
0.0104167
 41
0.0104167
  0
SEQEND
 8
0
  0
POLYLINE
  8
0
 62
     7
 66
     1
 10
0
 20
0
 30
0.0
 70
     1
 40
0
 41
0
  0
VERTEX
  8
0
 10
7.22206
 20
5.90022
 30
0.0
 40
0
 41
0
  0
VERTEX
  8
0
 10
7.58301
 20
5.90022
 30
0.0
 40
0
 41
0
  0
VERTEX
  8
0
 10
7.58301
 20
5.18044
 30
0.0
 40
0
 41
0
  0
VERTEX
  8
0
 10
7.22206
 20
5.18044
 30
0.0
 40
0
 41
0
  0
VERTEX
  8
0
 10
7.22206
 20
5.90022
 30
0.0
 40
0
 41
0
  0
SEQEND
 8
0
  0
POLYLINE
  8
0
 62
     0
 66
     1
 10
0
 20
0
 30
0.0
 70
     1
 40
0.75
 41
0.75
  0
VERTEX
  8
0
 10
7.22206
 20
5.90022
 30
0.0
 40
0.0104167
 41
0.0104167
  0
VERTEX
  8
0
 10
7.22206
 20
5.18044
 30
0.0
 40
0.0104167
 41
0.0104167
  0
VERTEX
  8
0
 10
7.58301
 20
5.18044
 30
0.0
 40
0.0104167
 41
0.0104167
  0
VERTEX
  8
0
 10
7.58301
 20
5.90022
 30
0.0
 40
0.0104167
 41
0.0104167
  0
VERTEX
  8
0
 10
7.22206
 20
5.90022
 30
0.0
 40
0.0104167
 41
0.0104167
  0
SEQEND
 8
0
  0
POLYLINE
  8
0
 62
     7
 66
     1
 10
0
 20
0
 30
0.0
 70
     1
 40
0
 41
0
  0
VERTEX
  8
0
 10
1.03961
 20
5.94971
 30
0.0
 40
0
 41
0
  0
VERTEX
  8
0
 10
1.66461
 20
5.94971
 30
0.0
 40
0
 41
0
  0
VERTEX
  8
0
 10
1.66461
 20
5.32471
 30
0.0
 40
0
 41
0
  0
VERTEX
  8
0
 10
1.03961
 20
5.32471
 30
0.0
 40
0
 41
0
  0
VERTEX
  8
0
 10
1.03961
 20
5.94971
 30
0.0
 40
0
 41
0
  0
SEQEND
 8
0
  0
POLYLINE
  8
0
 62
     0
 66
     1
 10
0
 20
0
 30
0.0
 70
     1
 40
0.75
 41
0.75
  0
VERTEX
  8
0
 10
1.03961
 20
5.94971
 30
0.0
 40
0.0104167
 41
0.0104167
  0
VERTEX
  8
0
 10
1.03961
 20
5.32471
 30
0.0
 40
0.0104167
 41
0.0104167
  0
VERTEX
  8
0
 10
1.66461
 20
5.32471
 30
0.0
 40
0.0104167
 41
0.0104167
  0
VERTEX
  8
0
 10
1.66461
 20
5.94971
 30
0.0
 40
0.0104167
 41
0.0104167
  0
VERTEX
  8
0
 10
1.03961
 20
5.94971
 30
0.0
 40
0.0104167
 41
0.0104167
  0
SEQEND
 8
0
  0
POLYLINE
  8
0
 62
     0
 66
     1
 10
0
 20
0
 30
0.0
 40
0.75
 41
0.75
  0
VERTEX
  8
0
 10
1.03961
 20
5.32471
 30
0.0
 40
0.0104167
 41
0.0104167
  0
VERTEX
  8
0
 10
1.45415
 20
5.63829
 30
0.0
 40
0.0104167
 41
0.0104167
  0
VERTEX
  8
0
 10
1.24164
 20
5.63829
 30
0.0
 40
0.0104167
 41
0.0104167
  0
VERTEX
  8
0
 10
1.66461
 20
5.94868
 30
0.0
 40
0.0104167
 41
0.0104167
  0
SEQEND
 8
0
  0
POLYLINE
  8
0
 62
     7
 66
     1
 10
0
 20
0
 30
0.0
 70
     1
 40
0
 41
0
  0
VERTEX
  8
0
 10
6.47564
 20
6.54536
 30
0.0
 40
0
 41
0
  0
VERTEX
  8
0
 10
7.58425
 20
6.54536
 30
0.0
 40
0
 41
0
  0
VERTEX
  8
0
 10
7.58425
 20
5.89899
 30
0.0
 40
0
 41
0
  0
VERTEX
  8
0
 10
6.47564
 20
5.89899
 30
0.0
 40
0
 41
0
  0
VERTEX
  8
0
 10
6.47564
 20
6.54536
 30
0.0
 40
0
 41
0
  0
SEQEND
 8
0
  0
POLYLINE
  8
0
 62
     0
 66
     1
 10
0
 20
0
 30
0.0
 70
     1
 40
0.75
 41
0.75
  0
VERTEX
  8
0
 10
6.47564
 20
6.54536
 30
0.0
 40
0.0104167
 41
0.0104167
  0
VERTEX
  8
0
 10
7.58425
 20
6.54536
 30
0.0
 40
0.0104167
 41
0.0104167
  0
VERTEX
  8
0
 10
7.58425
 20
5.89899
 30
0.0
 40
0.0104167
 41
0.0104167
  0
VERTEX
  8
0
 10
6.47564
 20
5.89899
 30
0.0
 40
0.0104167
 41
0.0104167
  0
VERTEX
  8
0
 10
6.47564
 20
6.54536
 30
0.0
 40
0.0104167
 41
0.0104167
  0
SEQEND
 8
0
  0
POLYLINE
  8
0
 62
     253
 66
     1
 10
0
 20
0
 30
0.0
 40
0.75
 41
0.75
  0
VERTEX
  8
0
 10
6.47564
 20
6.22217
 30
0.0
 40
0.0104167
 41
0.0104167
  0
VERTEX
  8
0
 10
7.58425
 20
6.22217
 30
0.0
 40
0.0104167
 41
0.0104167
  0
SEQEND
 8
0
  0
POLYLINE
  8
0
 62
     7
 66
     1
 10
0
 20
0
 30
0.0
 70
     1
 40
0
 41
0
  0
VERTEX
  8
0
 10
6.14958
 20
6.1811
 30
0.0
 40
0
 41
0
  0
VERTEX
  8
0
 10
6.47553
 20
6.1811
 30
0.0
 40
0
 41
0
  0
VERTEX
  8
0
 10
6.47553
 20
5.18121
 30
0.0
 40
0
 41
0
  0
VERTEX
  8
0
 10
6.14958
 20
5.18121
 30
0.0
 40
0
 41
0
  0
VERTEX
  8
0
 10
6.14958
 20
6.1811
 30
0.0
 40
0
 41
0
  0
SEQEND
 8
0
  0
POLYLINE
  8
0
 62
     0
 66
     1
 10
0
 20
0
 30
0.0
 70
     1
 40
0.75
 41
0.75
  0
VERTEX
  8
0
 10
6.14958
 20
6.1811
 30
0.0
 40
0.0104167
 41
0.0104167
  0
VERTEX
  8
0
 10
6.14958
 20
5.18121
 30
0.0
 40
0.0104167
 41
0.0104167
  0
VERTEX
  8
0
 10
6.47553
 20
5.18121
 30
0.0
 40
0.0104167
 41
0.0104167
  0
VERTEX
  8
0
 10
6.47553
 20
6.1811
 30
0.0
 40
0.0104167
 41
0.0104167
  0
VERTEX
  8
0
 10
6.14958
 20
6.1811
 30
0.0
 40
0.0104167
 41
0.0104167
  0
SEQEND
 8
0
  0
ENDSEC
  0
EOF
