  0
SECTION
  2
HEADER
  9
$ACADVER
  1
AC1009
  9
$FILLMODE
 70
 0
  9
$SPLFRAME
 70
 1
  9
$EXTMIN
 10
0
 20
0
 30
0.0
  9
$EXTMAX
 10
41.6667
 20
41.6667
 30
0.0
  0
ENDSEC
  0
SECTION
  2
TABLES
  0
TABLE
  2
LAYER
 70
1
  0
LAYER
  2
0
 70
     0
 62
     7
  6
CONTINUOUS
  0
ENDTAB
  0
ENDSEC
  0
SECTION
  2
ENTITIES
  0
POLYLINE
  8
0
 62
     7
 66
     1
 10
0
 20
0
 30
0.0
 70
     1
 40
0
 41
0
  0
VERTEX
  8
0
 10
3.6805
 20
5.49132
 30
0.0
 40
0
 41
0
  0
VERTEX
  8
0
 10
3.67426
 20
5.49132
 30
0.0
 40
0
 41
0
  0
VERTEX
  8
0
 10
3.67426
 20
6.13351
 30
0.0
 40
0
 41
0
  0
VERTEX
  8
0
 10
1.20877
 20
6.13351
 30
0.0
 40
0
 41
0
  0
VERTEX
  8
0
 10
1.20877
 20
10.824
 30
0.0
 40
0
 41
0
  0
VERTEX
  8
0
 10
3.6805
 20
10.8259
 30
0.0
 40
0
 41
0
  0
VERTEX
  8
0
 10
3.6805
 20
5.49132
 30
0.0
 40
0
 41
0
  0
SEQEND
 8
0
  0
POLYLINE
  8
0
 62
     7
 66
     1
 10
0
 20
0
 30
0.0
 70
     1
 40
0.15
 41
0.15
  0
VERTEX
  8
0
 10
3.6805
 20
5.49132
 30
0.0
 40
0.00208333
 41
0.00208333
  0
VERTEX
  8
0
 10
3.67426
 20
5.49132
 30
0.0
 40
0.00208333
 41
0.00208333
  0
VERTEX
  8
0
 10
3.67426
 20
6.13351
 30
0.0
 40
0.00208333
 41
0.00208333
  0
VERTEX
  8
0
 10
1.20877
 20
6.13351
 30
0.0
 40
0.00208333
 41
0.00208333
  0
VERTEX
  8
0
 10
1.20877
 20
10.824
 30
0.0
 40
0.00208333
 41
0.00208333
  0
VERTEX
  8
0
 10
3.6805
 20
10.8259
 30
0.0
 40
0.00208333
 41
0.00208333
  0
VERTEX
  8
0
 10
3.6805
 20
5.49132
 30
0.0
 40
0.00208333
 41
0.00208333
  0
SEQEND
 8
0
  0
TEXT
  8
0
 62
     0
 10
2.93529
 20
8.7945
 30
0.0
 40
0.34375
  1
OH
 50
0
  0
POLYLINE
  8
0
 62
     7
 66
     1
 10
0
 20
0
 30
0.0
 70
     1
 40
0
 41
0
  0
VERTEX
  8
0
 10
7.07781
 20
7.52078
 30
0.0
 40
0
 41
0
  0
VERTEX
  8
0
 10
5.31646
 20
7.52078
 30
0.0
 40
0
 41
0
  0
VERTEX
  8
0
 10
5.31646
 20
8.1906
 30
0.0
 40
0
 41
0
  0
VERTEX
  8
0
 10
5.22271
 20
8.1906
 30
0.0
 40
0
 41
0
  0
VERTEX
  8
0
 10
5.22271
 20
7.42703
 30
0.0
 40
0
 41
0
  0
VERTEX
  8
0
 10
7.07781
 20
7.42703
 30
0.0
 40
0
 41
0
  0
VERTEX
  8
0
 10
7.07781
 20
5.49132
 30
0.0
 40
0
 41
0
  0
VERTEX
  8
0
 10
3.6805
 20
5.49132
 30
0.0
 40
0
 41
0
  0
VERTEX
  8
0
 10
3.6805
 20
10.8259
 30
0.0
 40
0
 41
0
  0
VERTEX
  8
0
 10
7.07781
 20
10.8259
 30
0.0
 40
0
 41
0
  0
VERTEX
  8
0
 10
7.07781
 20
7.52078
 30
0.0
 40
0
 41
0
  0
SEQEND
 8
0
  0
POLYLINE
  8
0
 62
     7
 66
     1
 10
0
 20
0
 30
0.0
 70
     1
 40
0.15
 41
0.15
  0
VERTEX
  8
0
 10
7.07781
 20
7.52078
 30
0.0
 40
0.00208333
 41
0.00208333
  0
VERTEX
  8
0
 10
5.31646
 20
7.52078
 30
0.0
 40
0.00208333
 41
0.00208333
  0
VERTEX
  8
0
 10
5.31646
 20
8.1906
 30
0.0
 40
0.00208333
 41
0.00208333
  0
VERTEX
  8
0
 10
5.22271
 20
8.1906
 30
0.0
 40
0.00208333
 41
0.00208333
  0
VERTEX
  8
0
 10
5.22271
 20
7.42703
 30
0.0
 40
0.00208333
 41
0.00208333
  0
VERTEX
  8
0
 10
7.07781
 20
7.42703
 30
0.0
 40
0.00208333
 41
0.00208333
  0
VERTEX
  8
0
 10
7.07781
 20
5.49132
 30
0.0
 40
0.00208333
 41
0.00208333
  0
VERTEX
  8
0
 10
3.6805
 20
5.49132
 30
0.0
 40
0.00208333
 41
0.00208333
  0
VERTEX
  8
0
 10
3.6805
 20
10.8259
 30
0.0
 40
0.00208333
 41
0.00208333
  0
VERTEX
  8
0
 10
7.07781
 20
10.8259
 30
0.0
 40
0.00208333
 41
0.00208333
  0
VERTEX
  8
0
 10
7.07781
 20
7.52078
 30
0.0
 40
0.00208333
 41
0.00208333
  0
SEQEND
 8
0
  0
TEXT
  8
0
 62
     0
 10
5.5911
 20
8.87808
 30
0.0
 40
0.34375
  1
K
 50
0
  0
POLYLINE
  8
0
 62
     7
 66
     1
 10
0
 20
0
 30
0.0
 70
     1
 40
0
 41
0
  0
VERTEX
  8
0
 10
3.67426
 20
5.49132
 30
0.0
 40
0
 41
0
  0
VERTEX
  8
0
 10
5.20258
 20
5.49132
 30
0.0
 40
0
 41
0
  0
VERTEX
  8
0
 10
5.20258
 20
3.35894
 30
0.0
 40
0
 41
0
  0
VERTEX
  8
0
 10
3.67426
 20
3.35894
 30
0.0
 40
0
 41
0
  0
VERTEX
  8
0
 10
3.67426
 20
5.49132
 30
0.0
 40
0
 41
0
  0
SEQEND
 8
0
  0
POLYLINE
  8
0
 62
     7
 66
     1
 10
0
 20
0
 30
0.0
 70
     1
 40
0.15
 41
0.15
  0
VERTEX
  8
0
 10
3.67426
 20
5.49132
 30
0.0
 40
0.00208333
 41
0.00208333
  0
VERTEX
  8
0
 10
5.20258
 20
5.49132
 30
0.0
 40
0.00208333
 41
0.00208333
  0
VERTEX
  8
0
 10
5.20258
 20
3.35894
 30
0.0
 40
0.00208333
 41
0.00208333
  0
VERTEX
  8
0
 10
3.67426
 20
3.35894
 30
0.0
 40
0.00208333
 41
0.00208333
  0
VERTEX
  8
0
 10
3.67426
 20
5.49132
 30
0.0
 40
0.00208333
 41
0.00208333
  0
SEQEND
 8
0
  0
TEXT
  8
0
 62
     0
 10
4.43846
 20
4.72718
 30
0.0
 40
0.34375
  1
UNDEFINED
 50
0
  0
POLYLINE
  8
0
 62
     7
 66
     1
 10
0
 20
0
 30
0.0
 70
     1
 40
0
 41
0
  0
VERTEX
  8
0
 10
9.10824
 20
1.65989
 30
0.0
 40
0
 41
0
  0
VERTEX
  8
0
 10
9.10824
 20
0.0242513
 30
0.0
 40
0
 41
0
  0
VERTEX
  8
0
 10
3.6104
 20
0.0242513
 30
0.0
 40
0
 41
0
  0
VERTEX
  8
0
 10
3.6104
 20
1.62651
 30
0.0
 40
0
 41
0
  0
VERTEX
  8
0
 10
9.11876
 20
1.62651
 30
0.0
 40
0
 41
0
  0
VERTEX
  8
0
 10
9.10824
 20
1.65989
 30
0.0
 40
0
 41
0
  0
SEQEND
 8
0
  0
POLYLINE
  8
0
 62
     0
 66
     1
 10
0
 20
0
 30
0.0
 70
     1
 40
0.15
 41
0.15
  0
VERTEX
  8
0
 10
9.10824
 20
1.65989
 30
0.0
 40
0.00208333
 41
0.00208333
  0
VERTEX
  8
0
 10
9.10824
 20
0.0242513
 30
0.0
 40
0.00208333
 41
0.00208333
  0
VERTEX
  8
0
 10
3.6104
 20
0.0242513
 30
0.0
 40
0.00208333
 41
0.00208333
  0
VERTEX
  8
0
 10
3.6104
 20
1.62651
 30
0.0
 40
0.00208333
 41
0.00208333
  0
VERTEX
  8
0
 10
9.11876
 20
1.62651
 30
0.0
 40
0.00208333
 41
0.00208333
  0
VERTEX
  8
0
 10
9.10824
 20
1.65989
 30
0.0
 40
0.00208333
 41
0.00208333
  0
SEQEND
 8
0
  0
TEXT
  8
0
 62
     0
 10
5.50129
 20
0.588721
 30
0.0
 40
0.34375
  1
ULK
 50
0
  0
TEXT
  8
0
 62
     0
 10
6.17889
 20
0.588721
 30
0.0
 40
0.34375
  1
O
 50
0
  0
TEXT
  8
0
 62
     0
 10
6.44121
 20
0.588721
 30
0.0
 40
0.34375
  1
TILA
 50
0
  0
POLYLINE
  8
0
 62
     7
 66
     1
 10
0
 20
0
 30
0.0
 70
     1
 40
0
 41
0
  0
VERTEX
  8
0
 10
1.10688
 20
11.108
 30
0.0
 40
0
 41
0
  0
VERTEX
  8
0
 10
1.10688
 20
13.0763
 30
0.0
 40
0
 41
0
  0
VERTEX
  8
0
 10
4.34179
 20
13.0763
 30
0.0
 40
0
 41
0
  0
VERTEX
  8
0
 10
4.34179
 20
11.0448
 30
0.0
 40
0
 41
0
  0
VERTEX
  8
0
 10
1.1123
 20
11.0448
 30
0.0
 40
0
 41
0
  0
VERTEX
  8
0
 10
1.10688
 20
11.108
 30
0.0
 40
0
 41
0
  0
SEQEND
 8
0
  0
POLYLINE
  8
0
 62
     0
 66
     1
 10
0
 20
0
 30
0.0
 70
     1
 40
0.15
 41
0.15
  0
VERTEX
  8
0
 10
1.10688
 20
11.108
 30
0.0
 40
0.00208333
 41
0.00208333
  0
VERTEX
  8
0
 10
1.10688
 20
13.0763
 30
0.0
 40
0.00208333
 41
0.00208333
  0
VERTEX
  8
0
 10
4.34179
 20
13.0763
 30
0.0
 40
0.00208333
 41
0.00208333
  0
VERTEX
  8
0
 10
4.34179
 20
11.0448
 30
0.0
 40
0.00208333
 41
0.00208333
  0
VERTEX
  8
0
 10
1.1123
 20
11.0448
 30
0.0
 40
0.00208333
 41
0.00208333
  0
VERTEX
  8
0
 10
1.10688
 20
11.108
 30
0.0
 40
0.00208333
 41
0.00208333
  0
SEQEND
 8
0
  0
TEXT
  8
0
 62
     0
 10
1.72281
 20
12.0866
 30
0.0
 40
0.34375
  1
ULK
 50
0
  0
TEXT
  8
0
 62
     0
 10
2.40042
 20
12.0866
 30
0.0
 40
0.34375
  1
O
 50
0
  0
TEXT
  8
0
 62
     0
 10
2.66272
 20
12.0866
 30
0.0
 40
0.34375
  1
TILA
 50
0
  0
POLYLINE
  8
0
 62
     7
 66
     1
 10
0
 20
0
 30
0.0
 70
     1
 40
0
 41
0
  0
VERTEX
  8
0
 10
8.36404
 20
5.20811
 30
0.0
 40
0
 41
0
  0
VERTEX
  8
0
 10
8.97737
 20
5.20811
 30
0.0
 40
0
 41
0
  0
VERTEX
  8
0
 10
8.97737
 20
1.91672
 30
0.0
 40
0
 41
0
  0
VERTEX
  8
0
 10
5.29633
 20
1.91672
 30
0.0
 40
0
 41
0
  0
VERTEX
  8
0
 10
5.29633
 20
5.39757
 30
0.0
 40
0
 41
0
  0
VERTEX
  8
0
 10
8.36404
 20
5.39757
 30
0.0
 40
0
 41
0
  0
VERTEX
  8
0
 10
8.36404
 20
5.20811
 30
0.0
 40
0
 41
0
  0
SEQEND
 8
0
  0
POLYLINE
  8
0
 62
     7
 66
     1
 10
0
 20
0
 30
0.0
 70
     1
 40
0.15
 41
0.15
  0
VERTEX
  8
0
 10
8.36404
 20
5.20811
 30
0.0
 40
0.00208333
 41
0.00208333
  0
VERTEX
  8
0
 10
8.97737
 20
5.20811
 30
0.0
 40
0.00208333
 41
0.00208333
  0
VERTEX
  8
0
 10
8.97737
 20
1.91672
 30
0.0
 40
0.00208333
 41
0.00208333
  0
VERTEX
  8
0
 10
5.29633
 20
1.91672
 30
0.0
 40
0.00208333
 41
0.00208333
  0
VERTEX
  8
0
 10
5.29633
 20
5.39757
 30
0.0
 40
0.00208333
 41
0.00208333
  0
VERTEX
  8
0
 10
8.36404
 20
5.39757
 30
0.0
 40
0.00208333
 41
0.00208333
  0
VERTEX
  8
0
 10
8.36404
 20
5.20811
 30
0.0
 40
0.00208333
 41
0.00208333
  0
SEQEND
 8
0
  0
TEXT
  8
0
 62
     0
 10
6.63051
 20
3.49468
 30
0.0
 40
0.34375
  1
MH
 50
0
  0
POLYLINE
  8
0
 62
     7
 66
     1
 10
0
 20
0
 30
0.0
 70
     1
 40
0
 41
0
  0
VERTEX
  8
0
 10
1.20877
 20
6.03976
 30
0.0
 40
0
 41
0
  0
VERTEX
  8
0
 10
3.58051
 20
6.03976
 30
0.0
 40
0
 41
0
  0
VERTEX
  8
0
 10
3.58051
 20
1.91672
 30
0.0
 40
0
 41
0
  0
VERTEX
  8
0
 10
1.20877
 20
1.91672
 30
0.0
 40
0
 41
0
  0
VERTEX
  8
0
 10
1.20877
 20
6.03976
 30
0.0
 40
0
 41
0
  0
SEQEND
 8
0
  0
POLYLINE
  8
0
 62
     7
 66
     1
 10
0
 20
0
 30
0.0
 70
     1
 40
0.15
 41
0.15
  0
VERTEX
  8
0
 10
1.20877
 20
6.03976
 30
0.0
 40
0.00208333
 41
0.00208333
  0
VERTEX
  8
0
 10
3.58051
 20
6.03976
 30
0.0
 40
0.00208333
 41
0.00208333
  0
VERTEX
  8
0
 10
3.58051
 20
1.91672
 30
0.0
 40
0.00208333
 41
0.00208333
  0
VERTEX
  8
0
 10
1.20877
 20
1.91672
 30
0.0
 40
0.00208333
 41
0.00208333
  0
VERTEX
  8
0
 10
1.20877
 20
6.03976
 30
0.0
 40
0.00208333
 41
0.00208333
  0
SEQEND
 8
0
  0
TEXT
  8
0
 62
     0
 10
2.03243
 20
3.58601
 30
0.0
 40
0.34375
  1
MH
 50
0
  0
POLYLINE
  8
0
 62
     7
 66
     1
 10
0
 20
0
 30
0.0
 70
     1
 40
0
 41
0
  0
VERTEX
  8
0
 10
7.17156
 20
9.14828
 30
0.0
 40
0
 41
0
  0
VERTEX
  8
0
 10
8.97737
 20
9.14828
 30
0.0
 40
0
 41
0
  0
VERTEX
  8
0
 10
8.97737
 20
5.49132
 30
0.0
 40
0
 41
0
  0
VERTEX
  8
0
 10
7.17156
 20
5.49132
 30
0.0
 40
0
 41
0
  0
VERTEX
  8
0
 10
7.17156
 20
9.14828
 30
0.0
 40
0
 41
0
  0
SEQEND
 8
0
  0
POLYLINE
  8
0
 62
     7
 66
     1
 10
0
 20
0
 30
0.0
 70
     1
 40
0.15
 41
0.15
  0
VERTEX
  8
0
 10
7.17156
 20
9.14828
 30
0.0
 40
0.00208333
 41
0.00208333
  0
VERTEX
  8
0
 10
8.97737
 20
9.14828
 30
0.0
 40
0.00208333
 41
0.00208333
  0
VERTEX
  8
0
 10
8.97737
 20
5.49132
 30
0.0
 40
0.00208333
 41
0.00208333
  0
VERTEX
  8
0
 10
7.17156
 20
5.49132
 30
0.0
 40
0.00208333
 41
0.00208333
  0
VERTEX
  8
0
 10
7.17156
 20
9.14828
 30
0.0
 40
0.00208333
 41
0.00208333
  0
SEQEND
 8
0
  0
TEXT
  8
0
 62
     0
 10
7.5781
 20
7.08289
 30
0.0
 40
0.34375
  1
PH
 50
0
  0
POLYLINE
  8
0
 62
     7
 66
     1
 10
0
 20
0
 30
0.0
 70
     1
 40
0
 41
0
  0
VERTEX
  8
0
 10
7.17156
 20
10.8259
 30
0.0
 40
0
 41
0
  0
VERTEX
  8
0
 10
8.97737
 20
10.8259
 30
0.0
 40
0
 41
0
  0
VERTEX
  8
0
 10
8.97737
 20
9.24203
 30
0.0
 40
0
 41
0
  0
VERTEX
  8
0
 10
7.17156
 20
9.24203
 30
0.0
 40
0
 41
0
  0
VERTEX
  8
0
 10
7.17156
 20
10.8259
 30
0.0
 40
0
 41
0
  0
SEQEND
 8
0
  0
POLYLINE
  8
0
 62
     7
 66
     1
 10
0
 20
0
 30
0.0
 70
     1
 40
0.15
 41
0.15
  0
VERTEX
  8
0
 10
7.17156
 20
10.8259
 30
0.0
 40
0.00208333
 41
0.00208333
  0
VERTEX
  8
0
 10
8.97737
 20
10.8259
 30
0.0
 40
0.00208333
 41
0.00208333
  0
VERTEX
  8
0
 10
8.97737
 20
9.24203
 30
0.0
 40
0.00208333
 41
0.00208333
  0
VERTEX
  8
0
 10
7.17156
 20
9.24203
 30
0.0
 40
0.00208333
 41
0.00208333
  0
VERTEX
  8
0
 10
7.17156
 20
10.8259
 30
0.0
 40
0.00208333
 41
0.00208333
  0
SEQEND
 8
0
  0
TEXT
  8
0
 62
     0
 10
7.96349
 20
10.034
 30
0.0
 40
0.34375
  1
UNDEFINED
 50
0
  0
POLYLINE
  8
0
 62
     7
 66
     1
 10
0
 20
0
 30
0.0
 70
     1
 40
0
 41
0
  0
VERTEX
  8
0
 10
3.67426
 20
3.26519
 30
0.0
 40
0
 41
0
  0
VERTEX
  8
0
 10
5.20258
 20
3.26519
 30
0.0
 40
0
 41
0
  0
VERTEX
  8
0
 10
5.20258
 20
1.91672
 30
0.0
 40
0
 41
0
  0
VERTEX
  8
0
 10
3.67426
 20
1.91672
 30
0.0
 40
0
 41
0
  0
VERTEX
  8
0
 10
3.67426
 20
3.26519
 30
0.0
 40
0
 41
0
  0
SEQEND
 8
0
  0
POLYLINE
  8
0
 62
     7
 66
     1
 10
0
 20
0
 30
0.0
 70
     1
 40
0.15
 41
0.15
  0
VERTEX
  8
0
 10
3.67426
 20
3.26519
 30
0.0
 40
0.00208333
 41
0.00208333
  0
VERTEX
  8
0
 10
5.20258
 20
3.26519
 30
0.0
 40
0.00208333
 41
0.00208333
  0
VERTEX
  8
0
 10
5.20258
 20
1.91672
 30
0.0
 40
0.00208333
 41
0.00208333
  0
VERTEX
  8
0
 10
3.67426
 20
1.91672
 30
0.0
 40
0.00208333
 41
0.00208333
  0
VERTEX
  8
0
 10
3.67426
 20
3.26519
 30
0.0
 40
0.00208333
 41
0.00208333
  0
SEQEND
 8
0
  0
TEXT
  8
0
 62
     0
 10
4.34849
 20
2.59096
 30
0.0
 40
0.34375
  1
UNDEFINED
 50
0
  0
POLYLINE
  8
0
 62
     0
 66
     1
 10
0
 20
0
 30
0.0
 70
     1
 40
0
 41
0
  0
VERTEX
  8
0
 10
1.01085
 20
11.1445
 30
0.0
 40
0
 41
0
  0
VERTEX
  8
0
 10
1.01085
 20
1.57297
 30
0.0
 40
0
 41
0
  0
VERTEX
  8
0
 10
1.20877
 20
1.91672
 30
0.0
 40
0
 41
0
  0
VERTEX
  8
0
 10
1.20877
 20
10.824
 30
0.0
 40
0
 41
0
  0
VERTEX
  8
0
 10
1.01085
 20
11.1445
 30
0.0
 40
0
 41
0
  0
SEQEND
 8
0
  0
POLYLINE
  8
0
 62
     0
 66
     1
 10
0
 20
0
 30
0.0
 70
     1
 40
0.15
 41
0.15
  0
VERTEX
  8
0
 10
1.01085
 20
11.1445
 30
0.0
 40
0.00208333
 41
0.00208333
  0
VERTEX
  8
0
 10
1.01085
 20
1.57297
 30
0.0
 40
0.00208333
 41
0.00208333
  0
VERTEX
  8
0
 10
1.20877
 20
1.91672
 30
0.0
 40
0.00208333
 41
0.00208333
  0
VERTEX
  8
0
 10
1.20877
 20
10.824
 30
0.0
 40
0.00208333
 41
0.00208333
  0
VERTEX
  8
0
 10
1.01085
 20
11.1445
 30
0.0
 40
0.00208333
 41
0.00208333
  0
SEQEND
 8
0
  0
POLYLINE
  8
0
 62
     0
 66
     1
 10
0
 20
0
 30
0.0
 70
     1
 40
0
 41
0
  0
VERTEX
  8
0
 10
1.01085
 20
1.57297
 30
0.0
 40
0
 41
0
  0
VERTEX
  8
0
 10
9.19612
 20
1.57297
 30
0.0
 40
0
 41
0
  0
VERTEX
  8
0
 10
8.97737
 20
1.91672
 30
0.0
 40
0
 41
0
  0
VERTEX
  8
0
 10
1.20877
 20
1.91672
 30
0.0
 40
0
 41
0
  0
VERTEX
  8
0
 10
1.01085
 20
1.57297
 30
0.0
 40
0
 41
0
  0
SEQEND
 8
0
  0
POLYLINE
  8
0
 62
     0
 66
     1
 10
0
 20
0
 30
0.0
 70
     1
 40
0.15
 41
0.15
  0
VERTEX
  8
0
 10
1.01085
 20
1.57297
 30
0.0
 40
0.00208333
 41
0.00208333
  0
VERTEX
  8
0
 10
9.19612
 20
1.57297
 30
0.0
 40
0.00208333
 41
0.00208333
  0
VERTEX
  8
0
 10
8.97737
 20
1.91672
 30
0.0
 40
0.00208333
 41
0.00208333
  0
VERTEX
  8
0
 10
1.20877
 20
1.91672
 30
0.0
 40
0.00208333
 41
0.00208333
  0
VERTEX
  8
0
 10
1.01085
 20
1.57297
 30
0.0
 40
0.00208333
 41
0.00208333
  0
SEQEND
 8
0
  0
POLYLINE
  8
0
 62
     7
 66
     1
 10
0
 20
0
 30
0.0
 70
     1
 40
0
 41
0
  0
VERTEX
  8
0
 10
5.94476
 20
1.91672
 30
0.0
 40
0
 41
0
  0
VERTEX
  8
0
 10
7.58231
 20
1.91672
 30
0.0
 40
0
 41
0
  0
VERTEX
  8
0
 10
7.58231
 20
1.57297
 30
0.0
 40
0
 41
0
  0
VERTEX
  8
0
 10
5.94476
 20
1.57297
 30
0.0
 40
0
 41
0
  0
VERTEX
  8
0
 10
5.94476
 20
1.91672
 30
0.0
 40
0
 41
0
  0
SEQEND
 8
0
  0
POLYLINE
  8
0
 62
     0
 66
     1
 10
0
 20
0
 30
0.0
 70
     1
 40
0.75
 41
0.75
  0
VERTEX
  8
0
 10
5.94476
 20
1.91672
 30
0.0
 40
0.0104167
 41
0.0104167
  0
VERTEX
  8
0
 10
7.58231
 20
1.91672
 30
0.0
 40
0.0104167
 41
0.0104167
  0
VERTEX
  8
0
 10
7.58231
 20
1.57297
 30
0.0
 40
0.0104167
 41
0.0104167
  0
VERTEX
  8
0
 10
5.94476
 20
1.57297
 30
0.0
 40
0.0104167
 41
0.0104167
  0
VERTEX
  8
0
 10
5.94476
 20
1.91672
 30
0.0
 40
0.0104167
 41
0.0104167
  0
SEQEND
 8
0
  0
POLYLINE
  8
0
 62
     7
 66
     1
 10
0
 20
0
 30
0.0
 70
     1
 40
0
 41
0
  0
VERTEX
  8
0
 10
5.94476
 20
1.91672
 30
0.0
 40
0
 41
0
  0
VERTEX
  8
0
 10
7.58231
 20
1.91672
 30
0.0
 40
0
 41
0
  0
VERTEX
  8
0
 10
7.58231
 20
1.57297
 30
0.0
 40
0
 41
0
  0
VERTEX
  8
0
 10
5.94476
 20
1.57297
 30
0.0
 40
0
 41
0
  0
VERTEX
  8
0
 10
5.94476
 20
1.91672
 30
0.0
 40
0
 41
0
  0
SEQEND
 8
0
  0
POLYLINE
  8
0
 62
     0
 66
     1
 10
0
 20
0
 30
0.0
 70
     1
 40
0.75
 41
0.75
  0
VERTEX
  8
0
 10
5.94476
 20
1.91672
 30
0.0
 40
0.0104167
 41
0.0104167
  0
VERTEX
  8
0
 10
7.58231
 20
1.91672
 30
0.0
 40
0.0104167
 41
0.0104167
  0
VERTEX
  8
0
 10
7.58231
 20
1.57297
 30
0.0
 40
0.0104167
 41
0.0104167
  0
VERTEX
  8
0
 10
5.94476
 20
1.57297
 30
0.0
 40
0.0104167
 41
0.0104167
  0
VERTEX
  8
0
 10
5.94476
 20
1.91672
 30
0.0
 40
0.0104167
 41
0.0104167
  0
SEQEND
 8
0
  0
POLYLINE
  8
0
 62
     0
 66
     1
 10
0
 20
0
 30
0.0
 40
0.75
 41
0.75
  0
VERTEX
  8
0
 10
6.02289
 20
1.7449
 30
0.0
 40
0.0104167
 41
0.0104167
  0
VERTEX
  8
0
 10
7.50418
 20
1.7449
 30
0.0
 40
0.0104167
 41
0.0104167
  0
SEQEND
 8
0
  0
POLYLINE
  8
0
 62
     0
 66
     1
 10
0
 20
0
 30
0.0
 40
0.75
 41
0.75
  0
VERTEX
  8
0
 10
6.02289
 20
1.57303
 30
0.0
 40
0.0104167
 41
0.0104167
  0
VERTEX
  8
0
 10
6.02289
 20
1.91678
 30
0.0
 40
0.0104167
 41
0.0104167
  0
SEQEND
 8
0
  0
POLYLINE
  8
0
 62
     0
 66
     1
 10
0
 20
0
 30
0.0
 40
0.75
 41
0.75
  0
VERTEX
  8
0
 10
7.50418
 20
1.57303
 30
0.0
 40
0.0104167
 41
0.0104167
  0
VERTEX
  8
0
 10
7.50418
 20
1.91678
 30
0.0
 40
0.0104167
 41
0.0104167
  0
SEQEND
 8
0
  0
POLYLINE
  8
0
 62
     7
 66
     1
 10
0
 20
0
 30
0.0
 70
     1
 40
0
 41
0
  0
VERTEX
  8
0
 10
1.63699
 20
1.91672
 30
0.0
 40
0
 41
0
  0
VERTEX
  8
0
 10
3.24783
 20
1.91672
 30
0.0
 40
0
 41
0
  0
VERTEX
  8
0
 10
3.24783
 20
1.57297
 30
0.0
 40
0
 41
0
  0
VERTEX
  8
0
 10
1.63699
 20
1.57297
 30
0.0
 40
0
 41
0
  0
VERTEX
  8
0
 10
1.63699
 20
1.91672
 30
0.0
 40
0
 41
0
  0
SEQEND
 8
0
  0
POLYLINE
  8
0
 62
     0
 66
     1
 10
0
 20
0
 30
0.0
 70
     1
 40
0.75
 41
0.75
  0
VERTEX
  8
0
 10
1.63699
 20
1.91672
 30
0.0
 40
0.0104167
 41
0.0104167
  0
VERTEX
  8
0
 10
3.24783
 20
1.91672
 30
0.0
 40
0.0104167
 41
0.0104167
  0
VERTEX
  8
0
 10
3.24783
 20
1.57297
 30
0.0
 40
0.0104167
 41
0.0104167
  0
VERTEX
  8
0
 10
1.63699
 20
1.57297
 30
0.0
 40
0.0104167
 41
0.0104167
  0
VERTEX
  8
0
 10
1.63699
 20
1.91672
 30
0.0
 40
0.0104167
 41
0.0104167
  0
SEQEND
 8
0
  0
POLYLINE
  8
0
 62
     7
 66
     1
 10
0
 20
0
 30
0.0
 70
     1
 40
0
 41
0
  0
VERTEX
  8
0
 10
1.63699
 20
1.91672
 30
0.0
 40
0
 41
0
  0
VERTEX
  8
0
 10
3.24783
 20
1.91672
 30
0.0
 40
0
 41
0
  0
VERTEX
  8
0
 10
3.24783
 20
1.57297
 30
0.0
 40
0
 41
0
  0
VERTEX
  8
0
 10
1.63699
 20
1.57297
 30
0.0
 40
0
 41
0
  0
VERTEX
  8
0
 10
1.63699
 20
1.91672
 30
0.0
 40
0
 41
0
  0
SEQEND
 8
0
  0
POLYLINE
  8
0
 62
     0
 66
     1
 10
0
 20
0
 30
0.0
 70
     1
 40
0.75
 41
0.75
  0
VERTEX
  8
0
 10
1.63699
 20
1.91672
 30
0.0
 40
0.0104167
 41
0.0104167
  0
VERTEX
  8
0
 10
3.24783
 20
1.91672
 30
0.0
 40
0.0104167
 41
0.0104167
  0
VERTEX
  8
0
 10
3.24783
 20
1.57297
 30
0.0
 40
0.0104167
 41
0.0104167
  0
VERTEX
  8
0
 10
1.63699
 20
1.57297
 30
0.0
 40
0.0104167
 41
0.0104167
  0
VERTEX
  8
0
 10
1.63699
 20
1.91672
 30
0.0
 40
0.0104167
 41
0.0104167
  0
SEQEND
 8
0
  0
POLYLINE
  8
0
 62
     0
 66
     1
 10
0
 20
0
 30
0.0
 40
0.75
 41
0.75
  0
VERTEX
  8
0
 10
1.71506
 20
1.7449
 30
0.0
 40
0.0104167
 41
0.0104167
  0
VERTEX
  8
0
 10
3.16965
 20
1.7449
 30
0.0
 40
0.0104167
 41
0.0104167
  0
SEQEND
 8
0
  0
POLYLINE
  8
0
 62
     0
 66
     1
 10
0
 20
0
 30
0.0
 40
0.75
 41
0.75
  0
VERTEX
  8
0
 10
1.71506
 20
1.57303
 30
0.0
 40
0.0104167
 41
0.0104167
  0
VERTEX
  8
0
 10
1.71506
 20
1.91678
 30
0.0
 40
0.0104167
 41
0.0104167
  0
SEQEND
 8
0
  0
POLYLINE
  8
0
 62
     0
 66
     1
 10
0
 20
0
 30
0.0
 40
0.75
 41
0.75
  0
VERTEX
  8
0
 10
3.16965
 20
1.57303
 30
0.0
 40
0.0104167
 41
0.0104167
  0
VERTEX
  8
0
 10
3.16965
 20
1.91678
 30
0.0
 40
0.0104167
 41
0.0104167
  0
SEQEND
 8
0
  0
POLYLINE
  8
0
 62
     7
 66
     1
 10
0
 20
0
 30
0.0
 70
     1
 40
0
 41
0
  0
VERTEX
  8
0
 10
3.77897
 20
1.91672
 30
0.0
 40
0
 41
0
  0
VERTEX
  8
0
 10
4.70437
 20
1.91672
 30
0.0
 40
0
 41
0
  0
VERTEX
  8
0
 10
4.70437
 20
1.57297
 30
0.0
 40
0
 41
0
  0
VERTEX
  8
0
 10
3.77897
 20
1.57297
 30
0.0
 40
0
 41
0
  0
VERTEX
  8
0
 10
3.77897
 20
1.91672
 30
0.0
 40
0
 41
0
  0
SEQEND
 8
0
  0
POLYLINE
  8
0
 62
     0
 66
     1
 10
0
 20
0
 30
0.0
 70
     1
 40
0.75
 41
0.75
  0
VERTEX
  8
0
 10
3.77897
 20
1.91672
 30
0.0
 40
0.0104167
 41
0.0104167
  0
VERTEX
  8
0
 10
4.70437
 20
1.91672
 30
0.0
 40
0.0104167
 41
0.0104167
  0
VERTEX
  8
0
 10
4.70437
 20
1.57297
 30
0.0
 40
0.0104167
 41
0.0104167
  0
VERTEX
  8
0
 10
3.77897
 20
1.57297
 30
0.0
 40
0.0104167
 41
0.0104167
  0
VERTEX
  8
0
 10
3.77897
 20
1.91672
 30
0.0
 40
0.0104167
 41
0.0104167
  0
SEQEND
 8
0
  0
POLYLINE
  8
0
 62
     7
 66
     1
 10
0
 20
0
 30
0.0
 70
     1
 40
0
 41
0
  0
VERTEX
  8
0
 10
3.77897
 20
1.91672
 30
0.0
 40
0
 41
0
  0
VERTEX
  8
0
 10
4.70437
 20
1.91672
 30
0.0
 40
0
 41
0
  0
VERTEX
  8
0
 10
4.70437
 20
1.57297
 30
0.0
 40
0
 41
0
  0
VERTEX
  8
0
 10
3.77897
 20
1.57297
 30
0.0
 40
0
 41
0
  0
VERTEX
  8
0
 10
3.77897
 20
1.91672
 30
0.0
 40
0
 41
0
  0
SEQEND
 8
0
  0
POLYLINE
  8
0
 62
     0
 66
     1
 10
0
 20
0
 30
0.0
 70
     1
 40
0.75
 41
0.75
  0
VERTEX
  8
0
 10
3.77897
 20
1.91672
 30
0.0
 40
0.0104167
 41
0.0104167
  0
VERTEX
  8
0
 10
4.70437
 20
1.91672
 30
0.0
 40
0.0104167
 41
0.0104167
  0
VERTEX
  8
0
 10
4.70437
 20
1.57297
 30
0.0
 40
0.0104167
 41
0.0104167
  0
VERTEX
  8
0
 10
3.77897
 20
1.57297
 30
0.0
 40
0.0104167
 41
0.0104167
  0
VERTEX
  8
0
 10
3.77897
 20
1.91672
 30
0.0
 40
0.0104167
 41
0.0104167
  0
SEQEND
 8
0
  0
POLYLINE
  8
0
 62
     0
 66
     1
 10
0
 20
0
 30
0.0
 70
     1
 40
0.75
 41
0.75
  0
VERTEX
  8
0
 10
4.70437
 20
1.57297
 30
0.0
 40
0.0104167
 41
0.0104167
  0
VERTEX
  8
0
 10
4.70437
 20
1.51878
 30
0.0
 40
0.0104167
 41
0.0104167
  0
VERTEX
  8
0
 10
4.68989
 20
1.35612
 30
0.0
 40
0.0104167
 41
0.0104167
  0
VERTEX
  8
0
 10
4.64649
 20
1.16813
 30
0.0
 40
0.0104167
 41
0.0104167
  0
VERTEX
  8
0
 10
4.57422
 20
1.00912
 30
0.0
 40
0.0104167
 41
0.0104167
  0
VERTEX
  8
0
 10
4.47299
 20
0.878961
 30
0.0
 40
0.0104167
 41
0.0104167
  0
VERTEX
  8
0
 10
4.34283
 20
0.777724
 30
0.0
 40
0.0104167
 41
0.0104167
  0
VERTEX
  8
0
 10
4.18381
 20
0.705458
 30
0.0
 40
0.0104167
 41
0.0104167
  0
VERTEX
  8
0
 10
3.99582
 20
0.662056
 30
0.0
 40
0.0104167
 41
0.0104167
  0
VERTEX
  8
0
 10
3.83317
 20
0.647569
 30
0.0
 40
0.0104167
 41
0.0104167
  0
VERTEX
  8
0
 10
3.77897
 20
0.647569
 30
0.0
 40
0.0104167
 41
0.0104167
  0
VERTEX
  8
0
 10
3.77897
 20
1.57297
 30
0.0
 40
0.0104167
 41
0.0104167
  0
VERTEX
  8
0
 10
4.70437
 20
1.57297
 30
0.0
 40
0.0104167
 41
0.0104167
  0
SEQEND
 8
0
  0
POLYLINE
  8
0
 62
     0
 66
     1
 10
0
 20
0
 30
0.0
 70
     1
 40
0
 41
0
  0
VERTEX
  8
0
 10
9.19612
 20
1.57297
 30
0.0
 40
0
 41
0
  0
VERTEX
  8
0
 10
9.19612
 20
11.1464
 30
0.0
 40
0
 41
0
  0
VERTEX
  8
0
 10
8.97737
 20
10.8259
 30
0.0
 40
0
 41
0
  0
VERTEX
  8
0
 10
8.97737
 20
1.91672
 30
0.0
 40
0
 41
0
  0
VERTEX
  8
0
 10
9.19612
 20
1.57297
 30
0.0
 40
0
 41
0
  0
SEQEND
 8
0
  0
POLYLINE
  8
0
 62
     0
 66
     1
 10
0
 20
0
 30
0.0
 70
     1
 40
0.15
 41
0.15
  0
VERTEX
  8
0
 10
9.19612
 20
1.57297
 30
0.0
 40
0.00208333
 41
0.00208333
  0
VERTEX
  8
0
 10
9.19612
 20
11.1464
 30
0.0
 40
0.00208333
 41
0.00208333
  0
VERTEX
  8
0
 10
8.97737
 20
10.8259
 30
0.0
 40
0.00208333
 41
0.00208333
  0
VERTEX
  8
0
 10
8.97737
 20
1.91672
 30
0.0
 40
0.00208333
 41
0.00208333
  0
VERTEX
  8
0
 10
9.19612
 20
1.57297
 30
0.0
 40
0.00208333
 41
0.00208333
  0
SEQEND
 8
0
  0
POLYLINE
  8
0
 62
     0
 66
     1
 10
0
 20
0
 30
0.0
 70
     1
 40
0
 41
0
  0
VERTEX
  8
0
 10
9.19612
 20
11.1464
 30
0.0
 40
0
 41
0
  0
VERTEX
  8
0
 10
1.01085
 20
11.1445
 30
0.0
 40
0
 41
0
  0
VERTEX
  8
0
 10
1.20877
 20
10.824
 30
0.0
 40
0
 41
0
  0
VERTEX
  8
0
 10
8.97737
 20
10.8259
 30
0.0
 40
0
 41
0
  0
VERTEX
  8
0
 10
9.19612
 20
11.1464
 30
0.0
 40
0
 41
0
  0
SEQEND
 8
0
  0
POLYLINE
  8
0
 62
     0
 66
     1
 10
0
 20
0
 30
0.0
 70
     1
 40
0.15
 41
0.15
  0
VERTEX
  8
0
 10
9.19612
 20
11.1464
 30
0.0
 40
0.00208333
 41
0.00208333
  0
VERTEX
  8
0
 10
1.01085
 20
11.1445
 30
0.0
 40
0.00208333
 41
0.00208333
  0
VERTEX
  8
0
 10
1.20877
 20
10.824
 30
0.0
 40
0.00208333
 41
0.00208333
  0
VERTEX
  8
0
 10
8.97737
 20
10.8259
 30
0.0
 40
0.00208333
 41
0.00208333
  0
VERTEX
  8
0
 10
9.19612
 20
11.1464
 30
0.0
 40
0.00208333
 41
0.00208333
  0
SEQEND
 8
0
  0
POLYLINE
  8
0
 62
     7
 66
     1
 10
0
 20
0
 30
0.0
 70
     1
 40
0
 41
0
  0
VERTEX
  8
0
 10
3.11199
 20
11.145
 30
0.0
 40
0
 41
0
  0
VERTEX
  8
0
 10
1.47982
 20
11.1446
 30
0.0
 40
0
 41
0
  0
VERTEX
  8
0
 10
1.47982
 20
10.8241
 30
0.0
 40
0
 41
0
  0
VERTEX
  8
0
 10
3.11199
 20
10.8244
 30
0.0
 40
0
 41
0
  0
VERTEX
  8
0
 10
3.11199
 20
11.145
 30
0.0
 40
0
 41
0
  0
SEQEND
 8
0
  0
POLYLINE
  8
0
 62
     0
 66
     1
 10
0
 20
0
 30
0.0
 70
     1
 40
0.75
 41
0.75
  0
VERTEX
  8
0
 10
3.11199
 20
11.145
 30
0.0
 40
0.0104167
 41
0.0104167
  0
VERTEX
  8
0
 10
1.47982
 20
11.1446
 30
0.0
 40
0.0104167
 41
0.0104167
  0
VERTEX
  8
0
 10
1.47982
 20
10.8241
 30
0.0
 40
0.0104167
 41
0.0104167
  0
VERTEX
  8
0
 10
3.11199
 20
10.8244
 30
0.0
 40
0.0104167
 41
0.0104167
  0
VERTEX
  8
0
 10
3.11199
 20
11.145
 30
0.0
 40
0.0104167
 41
0.0104167
  0
SEQEND
 8
0
  0
POLYLINE
  8
0
 62
     7
 66
     1
 10
0
 20
0
 30
0.0
 70
     1
 40
0
 41
0
  0
VERTEX
  8
0
 10
3.11199
 20
11.145
 30
0.0
 40
0
 41
0
  0
VERTEX
  8
0
 10
1.47982
 20
11.1446
 30
0.0
 40
0
 41
0
  0
VERTEX
  8
0
 10
1.47982
 20
10.8241
 30
0.0
 40
0
 41
0
  0
VERTEX
  8
0
 10
3.11199
 20
10.8244
 30
0.0
 40
0
 41
0
  0
VERTEX
  8
0
 10
3.11199
 20
11.145
 30
0.0
 40
0
 41
0
  0
SEQEND
 8
0
  0
POLYLINE
  8
0
 62
     0
 66
     1
 10
0
 20
0
 30
0.0
 70
     1
 40
0.75
 41
0.75
  0
VERTEX
  8
0
 10
3.11199
 20
11.145
 30
0.0
 40
0.0104167
 41
0.0104167
  0
VERTEX
  8
0
 10
1.47982
 20
11.1446
 30
0.0
 40
0.0104167
 41
0.0104167
  0
VERTEX
  8
0
 10
1.47982
 20
10.8241
 30
0.0
 40
0.0104167
 41
0.0104167
  0
VERTEX
  8
0
 10
3.11199
 20
10.8244
 30
0.0
 40
0.0104167
 41
0.0104167
  0
VERTEX
  8
0
 10
3.11199
 20
11.145
 30
0.0
 40
0.0104167
 41
0.0104167
  0
SEQEND
 8
0
  0
POLYLINE
  8
0
 62
     7
 66
     1
 10
0
 20
0
 30
0.0
 70
     1
 40
0
 41
0
  0
VERTEX
  8
0
 10
3.03386
 20
10.9847
 30
0.0
 40
0
 41
0
  0
VERTEX
  8
0
 10
1.55794
 20
10.9844
 30
0.0
 40
0
 41
0
  0
SEQEND
 8
0
  0
POLYLINE
  8
0
 62
     0
 66
     1
 10
0
 20
0
 30
0.0
 40
0.75
 41
0.75
  0
VERTEX
  8
0
 10
3.03386
 20
10.9847
 30
0.0
 40
0.0104167
 41
0.0104167
  0
VERTEX
  8
0
 10
1.55794
 20
10.9844
 30
0.0
 40
0.0104167
 41
0.0104167
  0
SEQEND
 8
0
  0
POLYLINE
  8
0
 62
     7
 66
     1
 10
0
 20
0
 30
0.0
 70
     1
 40
0
 41
0
  0
VERTEX
  8
0
 10
3.03381
 20
11.145
 30
0.0
 40
0
 41
0
  0
VERTEX
  8
0
 10
3.0339
 20
10.8245
 30
0.0
 40
0
 41
0
  0
SEQEND
 8
0
  0
POLYLINE
  8
0
 62
     0
 66
     1
 10
0
 20
0
 30
0.0
 40
0.75
 41
0.75
  0
VERTEX
  8
0
 10
3.03381
 20
11.145
 30
0.0
 40
0.0104167
 41
0.0104167
  0
VERTEX
  8
0
 10
3.0339
 20
10.8245
 30
0.0
 40
0.0104167
 41
0.0104167
  0
SEQEND
 8
0
  0
POLYLINE
  8
0
 62
     7
 66
     1
 10
0
 20
0
 30
0.0
 70
     1
 40
0
 41
0
  0
VERTEX
  8
0
 10
1.55789
 20
11.1446
 30
0.0
 40
0
 41
0
  0
VERTEX
  8
0
 10
1.55794
 20
10.8241
 30
0.0
 40
0
 41
0
  0
SEQEND
 8
0
  0
POLYLINE
  8
0
 62
     0
 66
     1
 10
0
 20
0
 30
0.0
 40
0.75
 41
0.75
  0
VERTEX
  8
0
 10
1.55789
 20
11.1446
 30
0.0
 40
0.0104167
 41
0.0104167
  0
VERTEX
  8
0
 10
1.55794
 20
10.8241
 30
0.0
 40
0.0104167
 41
0.0104167
  0
SEQEND
 8
0
  0
POLYLINE
  8
0
 62
     7
 66
     1
 10
0
 20
0
 30
0.0
 70
     1
 40
0
 41
0
  0
VERTEX
  8
0
 10
4.09125
 20
11.1453
 30
0.0
 40
0
 41
0
  0
VERTEX
  8
0
 10
3.17449
 20
11.145
 30
0.0
 40
0
 41
0
  0
VERTEX
  8
0
 10
3.17449
 20
10.8245
 30
0.0
 40
0
 41
0
  0
VERTEX
  8
0
 10
4.09136
 20
10.8248
 30
0.0
 40
0
 41
0
  0
VERTEX
  8
0
 10
4.09125
 20
11.1453
 30
0.0
 40
0
 41
0
  0
SEQEND
 8
0
  0
POLYLINE
  8
0
 62
     0
 66
     1
 10
0
 20
0
 30
0.0
 70
     1
 40
0.75
 41
0.75
  0
VERTEX
  8
0
 10
4.09125
 20
11.1453
 30
0.0
 40
0.0104167
 41
0.0104167
  0
VERTEX
  8
0
 10
3.17449
 20
11.145
 30
0.0
 40
0.0104167
 41
0.0104167
  0
VERTEX
  8
0
 10
3.17449
 20
10.8245
 30
0.0
 40
0.0104167
 41
0.0104167
  0
VERTEX
  8
0
 10
4.09136
 20
10.8248
 30
0.0
 40
0.0104167
 41
0.0104167
  0
VERTEX
  8
0
 10
4.09125
 20
11.1453
 30
0.0
 40
0.0104167
 41
0.0104167
  0
SEQEND
 8
0
  0
POLYLINE
  8
0
 62
     7
 66
     1
 10
0
 20
0
 30
0.0
 70
     1
 40
0
 41
0
  0
VERTEX
  8
0
 10
4.09125
 20
11.1453
 30
0.0
 40
0
 41
0
  0
VERTEX
  8
0
 10
3.17449
 20
11.145
 30
0.0
 40
0
 41
0
  0
VERTEX
  8
0
 10
3.17449
 20
10.8245
 30
0.0
 40
0
 41
0
  0
VERTEX
  8
0
 10
4.09136
 20
10.8248
 30
0.0
 40
0
 41
0
  0
VERTEX
  8
0
 10
4.09125
 20
11.1453
 30
0.0
 40
0
 41
0
  0
SEQEND
 8
0
  0
POLYLINE
  8
0
 62
     0
 66
     1
 10
0
 20
0
 30
0.0
 70
     1
 40
0.75
 41
0.75
  0
VERTEX
  8
0
 10
4.09125
 20
11.1453
 30
0.0
 40
0.0104167
 41
0.0104167
  0
VERTEX
  8
0
 10
3.17449
 20
11.145
 30
0.0
 40
0.0104167
 41
0.0104167
  0
VERTEX
  8
0
 10
3.17449
 20
10.8245
 30
0.0
 40
0.0104167
 41
0.0104167
  0
VERTEX
  8
0
 10
4.09136
 20
10.8248
 30
0.0
 40
0.0104167
 41
0.0104167
  0
VERTEX
  8
0
 10
4.09125
 20
11.1453
 30
0.0
 40
0.0104167
 41
0.0104167
  0
SEQEND
 8
0
  0
POLYLINE
  8
0
 62
     0
 66
     1
 10
0
 20
0
 30
0.0
 70
     1
 40
0.75
 41
0.75
  0
VERTEX
  8
0
 10
3.17449
 20
11.145
 30
0.0
 40
0.0104167
 41
0.0104167
  0
VERTEX
  8
0
 10
3.17443
 20
11.1987
 30
0.0
 40
0.0104167
 41
0.0104167
  0
VERTEX
  8
0
 10
3.18875
 20
11.3599
 30
0.0
 40
0.0104167
 41
0.0104167
  0
VERTEX
  8
0
 10
3.23167
 20
11.5461
 30
0.0
 40
0.0104167
 41
0.0104167
  0
VERTEX
  8
0
 10
3.30322
 20
11.7037
 30
0.0
 40
0.0104167
 41
0.0104167
  0
VERTEX
  8
0
 10
3.40349
 20
11.8326
 30
0.0
 40
0.0104167
 41
0.0104167
  0
VERTEX
  8
0
 10
3.53239
 20
11.9329
 30
0.0
 40
0.0104167
 41
0.0104167
  0
VERTEX
  8
0
 10
3.68994
 20
12.0046
 30
0.0
 40
0.0104167
 41
0.0104167
  0
VERTEX
  8
0
 10
3.87614
 20
12.0476
 30
0.0
 40
0.0104167
 41
0.0104167
  0
VERTEX
  8
0
 10
4.03728
 20
12.062
 30
0.0
 40
0.0104167
 41
0.0104167
  0
VERTEX
  8
0
 10
4.09104
 20
12.062
 30
0.0
 40
0.0104167
 41
0.0104167
  0
VERTEX
  8
0
 10
4.09125
 20
11.1452
 30
0.0
 40
0.0104167
 41
0.0104167
  0
VERTEX
  8
0
 10
3.17449
 20
11.145
 30
0.0
 40
0.0104167
 41
0.0104167
  0
SEQEND
 8
0
  0
POLYLINE
  8
0
 62
     7
 66
     1
 10
0
 20
0
 30
0.0
 70
     1
 40
0
 41
0
  0
VERTEX
  8
0
 10
5.96647
 20
11.1457
 30
0.0
 40
0
 41
0
  0
VERTEX
  8
0
 10
4.42458
 20
11.1453
 30
0.0
 40
0
 41
0
  0
VERTEX
  8
0
 10
4.42469
 20
10.8248
 30
0.0
 40
0
 41
0
  0
VERTEX
  8
0
 10
5.96658
 20
10.8252
 30
0.0
 40
0
 41
0
  0
VERTEX
  8
0
 10
5.96647
 20
11.1457
 30
0.0
 40
0
 41
0
  0
SEQEND
 8
0
  0
POLYLINE
  8
0
 62
     0
 66
     1
 10
0
 20
0
 30
0.0
 70
     1
 40
0.75
 41
0.75
  0
VERTEX
  8
0
 10
5.96647
 20
11.1457
 30
0.0
 40
0.0104167
 41
0.0104167
  0
VERTEX
  8
0
 10
4.42458
 20
11.1453
 30
0.0
 40
0.0104167
 41
0.0104167
  0
VERTEX
  8
0
 10
4.42469
 20
10.8248
 30
0.0
 40
0.0104167
 41
0.0104167
  0
VERTEX
  8
0
 10
5.96658
 20
10.8252
 30
0.0
 40
0.0104167
 41
0.0104167
  0
VERTEX
  8
0
 10
5.96647
 20
11.1457
 30
0.0
 40
0.0104167
 41
0.0104167
  0
SEQEND
 8
0
  0
POLYLINE
  8
0
 62
     7
 66
     1
 10
0
 20
0
 30
0.0
 70
     1
 40
0
 41
0
  0
VERTEX
  8
0
 10
5.96647
 20
11.1457
 30
0.0
 40
0
 41
0
  0
VERTEX
  8
0
 10
4.42458
 20
11.1453
 30
0.0
 40
0
 41
0
  0
VERTEX
  8
0
 10
4.42469
 20
10.8248
 30
0.0
 40
0
 41
0
  0
VERTEX
  8
0
 10
5.96658
 20
10.8252
 30
0.0
 40
0
 41
0
  0
VERTEX
  8
0
 10
5.96647
 20
11.1457
 30
0.0
 40
0
 41
0
  0
SEQEND
 8
0
  0
POLYLINE
  8
0
 62
     0
 66
     1
 10
0
 20
0
 30
0.0
 70
     1
 40
0.75
 41
0.75
  0
VERTEX
  8
0
 10
5.96647
 20
11.1457
 30
0.0
 40
0.0104167
 41
0.0104167
  0
VERTEX
  8
0
 10
4.42458
 20
11.1453
 30
0.0
 40
0.0104167
 41
0.0104167
  0
VERTEX
  8
0
 10
4.42469
 20
10.8248
 30
0.0
 40
0.0104167
 41
0.0104167
  0
VERTEX
  8
0
 10
5.96658
 20
10.8252
 30
0.0
 40
0.0104167
 41
0.0104167
  0
VERTEX
  8
0
 10
5.96647
 20
11.1457
 30
0.0
 40
0.0104167
 41
0.0104167
  0
SEQEND
 8
0
  0
POLYLINE
  8
0
 62
     7
 66
     1
 10
0
 20
0
 30
0.0
 70
     1
 40
0
 41
0
  0
VERTEX
  8
0
 10
5.8884
 20
10.9854
 30
0.0
 40
0
 41
0
  0
VERTEX
  8
0
 10
4.50276
 20
10.9851
 30
0.0
 40
0
 41
0
  0
SEQEND
 8
0
  0
POLYLINE
  8
0
 62
     0
 66
     1
 10
0
 20
0
 30
0.0
 40
0.75
 41
0.75
  0
VERTEX
  8
0
 10
5.8884
 20
10.9854
 30
0.0
 40
0.0104167
 41
0.0104167
  0
VERTEX
  8
0
 10
4.50276
 20
10.9851
 30
0.0
 40
0.0104167
 41
0.0104167
  0
SEQEND
 8
0
  0
POLYLINE
  8
0
 62
     7
 66
     1
 10
0
 20
0
 30
0.0
 70
     1
 40
0
 41
0
  0
VERTEX
  8
0
 10
5.88835
 20
11.1457
 30
0.0
 40
0
 41
0
  0
VERTEX
  8
0
 10
5.88846
 20
10.8251
 30
0.0
 40
0
 41
0
  0
SEQEND
 8
0
  0
POLYLINE
  8
0
 62
     0
 66
     1
 10
0
 20
0
 30
0.0
 40
0.75
 41
0.75
  0
VERTEX
  8
0
 10
5.88835
 20
11.1457
 30
0.0
 40
0.0104167
 41
0.0104167
  0
VERTEX
  8
0
 10
5.88846
 20
10.8251
 30
0.0
 40
0.0104167
 41
0.0104167
  0
SEQEND
 8
0
  0
POLYLINE
  8
0
 62
     7
 66
     1
 10
0
 20
0
 30
0.0
 70
     1
 40
0
 41
0
  0
VERTEX
  8
0
 10
4.50271
 20
11.1453
 30
0.0
 40
0
 41
0
  0
VERTEX
  8
0
 10
4.50282
 20
10.8248
 30
0.0
 40
0
 41
0
  0
SEQEND
 8
0
  0
POLYLINE
  8
0
 62
     0
 66
     1
 10
0
 20
0
 30
0.0
 40
0.75
 41
0.75
  0
VERTEX
  8
0
 10
4.50271
 20
11.1453
 30
0.0
 40
0.0104167
 41
0.0104167
  0
VERTEX
  8
0
 10
4.50282
 20
10.8248
 30
0.0
 40
0.0104167
 41
0.0104167
  0
SEQEND
 8
0
  0
POLYLINE
  8
0
 62
     7
 66
     1
 10
0
 20
0
 30
0.0
 70
     1
 40
0
 41
0
  0
VERTEX
  8
0
 10
8.7654
 20
11.1463
 30
0.0
 40
0
 41
0
  0
VERTEX
  8
0
 10
8.30707
 20
11.1462
 30
0.0
 40
0
 41
0
  0
VERTEX
  8
0
 10
8.30718
 20
10.8257
 30
0.0
 40
0
 41
0
  0
VERTEX
  8
0
 10
8.76551
 20
10.8258
 30
0.0
 40
0
 41
0
  0
VERTEX
  8
0
 10
8.7654
 20
11.1463
 30
0.0
 40
0
 41
0
  0
SEQEND
 8
0
  0
POLYLINE
  8
0
 62
     0
 66
     1
 10
0
 20
0
 30
0.0
 70
     1
 40
0.75
 41
0.75
  0
VERTEX
  8
0
 10
8.7654
 20
11.1463
 30
0.0
 40
0.0104167
 41
0.0104167
  0
VERTEX
  8
0
 10
8.30707
 20
11.1462
 30
0.0
 40
0.0104167
 41
0.0104167
  0
VERTEX
  8
0
 10
8.30718
 20
10.8257
 30
0.0
 40
0.0104167
 41
0.0104167
  0
VERTEX
  8
0
 10
8.76551
 20
10.8258
 30
0.0
 40
0.0104167
 41
0.0104167
  0
VERTEX
  8
0
 10
8.7654
 20
11.1463
 30
0.0
 40
0.0104167
 41
0.0104167
  0
SEQEND
 8
0
  0
POLYLINE
  8
0
 62
     7
 66
     1
 10
0
 20
0
 30
0.0
 70
     1
 40
0
 41
0
  0
VERTEX
  8
0
 10
8.7654
 20
11.1463
 30
0.0
 40
0
 41
0
  0
VERTEX
  8
0
 10
8.30707
 20
11.1462
 30
0.0
 40
0
 41
0
  0
VERTEX
  8
0
 10
8.30718
 20
10.8257
 30
0.0
 40
0
 41
0
  0
VERTEX
  8
0
 10
8.76551
 20
10.8258
 30
0.0
 40
0
 41
0
  0
VERTEX
  8
0
 10
8.7654
 20
11.1463
 30
0.0
 40
0
 41
0
  0
SEQEND
 8
0
  0
POLYLINE
  8
0
 62
     0
 66
     1
 10
0
 20
0
 30
0.0
 70
     1
 40
0.75
 41
0.75
  0
VERTEX
  8
0
 10
8.7654
 20
11.1463
 30
0.0
 40
0.0104167
 41
0.0104167
  0
VERTEX
  8
0
 10
8.30707
 20
11.1462
 30
0.0
 40
0.0104167
 41
0.0104167
  0
VERTEX
  8
0
 10
8.30718
 20
10.8257
 30
0.0
 40
0.0104167
 41
0.0104167
  0
VERTEX
  8
0
 10
8.76551
 20
10.8258
 30
0.0
 40
0.0104167
 41
0.0104167
  0
VERTEX
  8
0
 10
8.7654
 20
11.1463
 30
0.0
 40
0.0104167
 41
0.0104167
  0
SEQEND
 8
0
  0
POLYLINE
  8
0
 62
     7
 66
     1
 10
0
 20
0
 30
0.0
 70
     1
 40
0
 41
0
  0
VERTEX
  8
0
 10
8.68739
 20
10.9861
 30
0.0
 40
0
 41
0
  0
VERTEX
  8
0
 10
8.38525
 20
10.986
 30
0.0
 40
0
 41
0
  0
SEQEND
 8
0
  0
POLYLINE
  8
0
 62
     0
 66
     1
 10
0
 20
0
 30
0.0
 40
0.75
 41
0.75
  0
VERTEX
  8
0
 10
8.68739
 20
10.9861
 30
0.0
 40
0.0104167
 41
0.0104167
  0
VERTEX
  8
0
 10
8.38525
 20
10.986
 30
0.0
 40
0.0104167
 41
0.0104167
  0
SEQEND
 8
0
  0
POLYLINE
  8
0
 62
     7
 66
     1
 10
0
 20
0
 30
0.0
 70
     1
 40
0
 41
0
  0
VERTEX
  8
0
 10
8.68733
 20
11.1463
 30
0.0
 40
0
 41
0
  0
VERTEX
  8
0
 10
8.68739
 20
10.8258
 30
0.0
 40
0
 41
0
  0
SEQEND
 8
0
  0
POLYLINE
  8
0
 62
     0
 66
     1
 10
0
 20
0
 30
0.0
 40
0.75
 41
0.75
  0
VERTEX
  8
0
 10
8.68733
 20
11.1463
 30
0.0
 40
0.0104167
 41
0.0104167
  0
VERTEX
  8
0
 10
8.68739
 20
10.8258
 30
0.0
 40
0.0104167
 41
0.0104167
  0
SEQEND
 8
0
  0
POLYLINE
  8
0
 62
     7
 66
     1
 10
0
 20
0
 30
0.0
 70
     1
 40
0
 41
0
  0
VERTEX
  8
0
 10
8.38519
 20
11.1462
 30
0.0
 40
0
 41
0
  0
VERTEX
  8
0
 10
8.38525
 20
10.8257
 30
0.0
 40
0
 41
0
  0
SEQEND
 8
0
  0
POLYLINE
  8
0
 62
     0
 66
     1
 10
0
 20
0
 30
0.0
 40
0.75
 41
0.75
  0
VERTEX
  8
0
 10
8.38519
 20
11.1462
 30
0.0
 40
0.0104167
 41
0.0104167
  0
VERTEX
  8
0
 10
8.38525
 20
10.8257
 30
0.0
 40
0.0104167
 41
0.0104167
  0
SEQEND
 8
0
  0
POLYLINE
  8
0
 62
     0
 66
     1
 10
0
 20
0
 30
0.0
 70
     1
 40
0
 41
0
  0
VERTEX
  8
0
 10
1.01085
 20
6.03976
 30
0.0
 40
0
 41
0
  0
VERTEX
  8
0
 10
3.58051
 20
6.03976
 30
0.0
 40
0
 41
0
  0
VERTEX
  8
0
 10
3.67426
 20
6.13351
 30
0.0
 40
0
 41
0
  0
VERTEX
  8
0
 10
1.01085
 20
6.13351
 30
0.0
 40
0
 41
0
  0
VERTEX
  8
0
 10
1.01085
 20
6.03976
 30
0.0
 40
0
 41
0
  0
SEQEND
 8
0
  0
POLYLINE
  8
0
 62
     0
 66
     1
 10
0
 20
0
 30
0.0
 70
     1
 40
0.15
 41
0.15
  0
VERTEX
  8
0
 10
1.01085
 20
6.03976
 30
0.0
 40
0.00208333
 41
0.00208333
  0
VERTEX
  8
0
 10
3.58051
 20
6.03976
 30
0.0
 40
0.00208333
 41
0.00208333
  0
VERTEX
  8
0
 10
3.67426
 20
6.13351
 30
0.0
 40
0.00208333
 41
0.00208333
  0
VERTEX
  8
0
 10
1.01085
 20
6.13351
 30
0.0
 40
0.00208333
 41
0.00208333
  0
VERTEX
  8
0
 10
1.01085
 20
6.03976
 30
0.0
 40
0.00208333
 41
0.00208333
  0
SEQEND
 8
0
  0
POLYLINE
  8
0
 62
     0
 66
     1
 10
0
 20
0
 30
0.0
 70
     1
 40
0
 41
0
  0
VERTEX
  8
0
 10
3.67426
 20
6.13351
 30
0.0
 40
0
 41
0
  0
VERTEX
  8
0
 10
3.67426
 20
1.57297
 30
0.0
 40
0
 41
0
  0
VERTEX
  8
0
 10
3.58051
 20
1.57297
 30
0.0
 40
0
 41
0
  0
VERTEX
  8
0
 10
3.58051
 20
6.03976
 30
0.0
 40
0
 41
0
  0
VERTEX
  8
0
 10
3.67426
 20
6.13351
 30
0.0
 40
0
 41
0
  0
SEQEND
 8
0
  0
POLYLINE
  8
0
 62
     0
 66
     1
 10
0
 20
0
 30
0.0
 70
     1
 40
0.15
 41
0.15
  0
VERTEX
  8
0
 10
3.67426
 20
6.13351
 30
0.0
 40
0.00208333
 41
0.00208333
  0
VERTEX
  8
0
 10
3.67426
 20
1.57297
 30
0.0
 40
0.00208333
 41
0.00208333
  0
VERTEX
  8
0
 10
3.58051
 20
1.57297
 30
0.0
 40
0.00208333
 41
0.00208333
  0
VERTEX
  8
0
 10
3.58051
 20
6.03976
 30
0.0
 40
0.00208333
 41
0.00208333
  0
VERTEX
  8
0
 10
3.67426
 20
6.13351
 30
0.0
 40
0.00208333
 41
0.00208333
  0
SEQEND
 8
0
  0
POLYLINE
  8
0
 62
     7
 66
     1
 10
0
 20
0
 30
0.0
 70
     1
 40
0
 41
0
  0
VERTEX
  8
0
 10
3.58051
 20
5.29953
 30
0.0
 40
0
 41
0
  0
VERTEX
  8
0
 10
3.67426
 20
5.29953
 30
0.0
 40
0
 41
0
  0
VERTEX
  8
0
 10
3.67426
 20
4.4005
 30
0.0
 40
0
 41
0
  0
VERTEX
  8
0
 10
3.58051
 20
4.4005
 30
0.0
 40
0
 41
0
  0
VERTEX
  8
0
 10
3.58051
 20
5.29953
 30
0.0
 40
0
 41
0
  0
SEQEND
 8
0
  0
POLYLINE
  8
0
 62
     0
 66
     1
 10
0
 20
0
 30
0.0
 70
     1
 40
0.75
 41
0.75
  0
VERTEX
  8
0
 10
3.58051
 20
5.29953
 30
0.0
 40
0.0104167
 41
0.0104167
  0
VERTEX
  8
0
 10
3.67426
 20
5.29953
 30
0.0
 40
0.0104167
 41
0.0104167
  0
VERTEX
  8
0
 10
3.67426
 20
4.4005
 30
0.0
 40
0.0104167
 41
0.0104167
  0
VERTEX
  8
0
 10
3.58051
 20
4.4005
 30
0.0
 40
0.0104167
 41
0.0104167
  0
VERTEX
  8
0
 10
3.58051
 20
5.29953
 30
0.0
 40
0.0104167
 41
0.0104167
  0
SEQEND
 8
0
  0
POLYLINE
  8
0
 62
     7
 66
     1
 10
0
 20
0
 30
0.0
 70
     1
 40
0
 41
0
  0
VERTEX
  8
0
 10
3.58051
 20
5.29953
 30
0.0
 40
0
 41
0
  0
VERTEX
  8
0
 10
3.67426
 20
5.29953
 30
0.0
 40
0
 41
0
  0
VERTEX
  8
0
 10
3.67426
 20
4.4005
 30
0.0
 40
0
 41
0
  0
VERTEX
  8
0
 10
3.58051
 20
4.4005
 30
0.0
 40
0
 41
0
  0
VERTEX
  8
0
 10
3.58051
 20
5.29953
 30
0.0
 40
0
 41
0
  0
SEQEND
 8
0
  0
POLYLINE
  8
0
 62
     0
 66
     1
 10
0
 20
0
 30
0.0
 70
     1
 40
0.75
 41
0.75
  0
VERTEX
  8
0
 10
3.58051
 20
5.29953
 30
0.0
 40
0.0104167
 41
0.0104167
  0
VERTEX
  8
0
 10
3.67426
 20
5.29953
 30
0.0
 40
0.0104167
 41
0.0104167
  0
VERTEX
  8
0
 10
3.67426
 20
4.4005
 30
0.0
 40
0.0104167
 41
0.0104167
  0
VERTEX
  8
0
 10
3.58051
 20
4.4005
 30
0.0
 40
0.0104167
 41
0.0104167
  0
VERTEX
  8
0
 10
3.58051
 20
5.29953
 30
0.0
 40
0.0104167
 41
0.0104167
  0
SEQEND
 8
0
  0
POLYLINE
  8
0
 62
     0
 66
     1
 10
0
 20
0
 30
0.0
 70
     1
 40
0.75
 41
0.75
  0
VERTEX
  8
0
 10
3.58051
 20
4.4005
 30
0.0
 40
0.0104167
 41
0.0104167
  0
VERTEX
  8
0
 10
3.52778
 20
4.4005
 30
0.0
 40
0.0104167
 41
0.0104167
  0
VERTEX
  8
0
 10
3.36974
 20
4.41456
 30
0.0
 40
0.0104167
 41
0.0104167
  0
VERTEX
  8
0
 10
3.18713
 20
4.45671
 30
0.0
 40
0.0104167
 41
0.0104167
  0
VERTEX
  8
0
 10
3.03261
 20
4.52696
 30
0.0
 40
0.0104167
 41
0.0104167
  0
VERTEX
  8
0
 10
2.90619
 20
4.62528
 30
0.0
 40
0.0104167
 41
0.0104167
  0
VERTEX
  8
0
 10
2.80789
 20
4.75174
 30
0.0
 40
0.0104167
 41
0.0104167
  0
VERTEX
  8
0
 10
2.73762
 20
4.90625
 30
0.0
 40
0.0104167
 41
0.0104167
  0
VERTEX
  8
0
 10
2.69547
 20
5.08886
 30
0.0
 40
0.0104167
 41
0.0104167
  0
VERTEX
  8
0
 10
2.68147
 20
5.2469
 30
0.0
 40
0.0104167
 41
0.0104167
  0
VERTEX
  8
0
 10
2.68147
 20
5.29953
 30
0.0
 40
0.0104167
 41
0.0104167
  0
VERTEX
  8
0
 10
3.58051
 20
5.29953
 30
0.0
 40
0.0104167
 41
0.0104167
  0
VERTEX
  8
0
 10
3.58051
 20
4.4005
 30
0.0
 40
0.0104167
 41
0.0104167
  0
SEQEND
 8
0
  0
POLYLINE
  8
0
 62
     0
 66
     1
 10
0
 20
0
 30
0.0
 70
     1
 40
0
 41
0
  0
VERTEX
  8
0
 10
5.20258
 20
1.57297
 30
0.0
 40
0
 41
0
  0
VERTEX
  8
0
 10
5.20258
 20
5.49132
 30
0.0
 40
0
 41
0
  0
VERTEX
  8
0
 10
5.29633
 20
5.39757
 30
0.0
 40
0
 41
0
  0
VERTEX
  8
0
 10
5.29633
 20
1.57297
 30
0.0
 40
0
 41
0
  0
VERTEX
  8
0
 10
5.20258
 20
1.57297
 30
0.0
 40
0
 41
0
  0
SEQEND
 8
0
  0
POLYLINE
  8
0
 62
     0
 66
     1
 10
0
 20
0
 30
0.0
 70
     1
 40
0.15
 41
0.15
  0
VERTEX
  8
0
 10
5.20258
 20
1.57297
 30
0.0
 40
0.00208333
 41
0.00208333
  0
VERTEX
  8
0
 10
5.20258
 20
5.49132
 30
0.0
 40
0.00208333
 41
0.00208333
  0
VERTEX
  8
0
 10
5.29633
 20
5.39757
 30
0.0
 40
0.00208333
 41
0.00208333
  0
VERTEX
  8
0
 10
5.29633
 20
1.57297
 30
0.0
 40
0.00208333
 41
0.00208333
  0
VERTEX
  8
0
 10
5.20258
 20
1.57297
 30
0.0
 40
0.00208333
 41
0.00208333
  0
SEQEND
 8
0
  0
POLYLINE
  8
0
 62
     7
 66
     1
 10
0
 20
0
 30
0.0
 70
     1
 40
0
 41
0
  0
VERTEX
  8
0
 10
5.20258
 20
5.06244
 30
0.0
 40
0
 41
0
  0
VERTEX
  8
0
 10
5.29633
 20
5.06244
 30
0.0
 40
0
 41
0
  0
VERTEX
  8
0
 10
5.29633
 20
4.21778
 30
0.0
 40
0
 41
0
  0
VERTEX
  8
0
 10
5.20258
 20
4.21778
 30
0.0
 40
0
 41
0
  0
VERTEX
  8
0
 10
5.20258
 20
5.06244
 30
0.0
 40
0
 41
0
  0
SEQEND
 8
0
  0
POLYLINE
  8
0
 62
     0
 66
     1
 10
0
 20
0
 30
0.0
 70
     1
 40
0.75
 41
0.75
  0
VERTEX
  8
0
 10
5.20258
 20
5.06244
 30
0.0
 40
0.0104167
 41
0.0104167
  0
VERTEX
  8
0
 10
5.29633
 20
5.06244
 30
0.0
 40
0.0104167
 41
0.0104167
  0
VERTEX
  8
0
 10
5.29633
 20
4.21778
 30
0.0
 40
0.0104167
 41
0.0104167
  0
VERTEX
  8
0
 10
5.20258
 20
4.21778
 30
0.0
 40
0.0104167
 41
0.0104167
  0
VERTEX
  8
0
 10
5.20258
 20
5.06244
 30
0.0
 40
0.0104167
 41
0.0104167
  0
SEQEND
 8
0
  0
POLYLINE
  8
0
 62
     7
 66
     1
 10
0
 20
0
 30
0.0
 70
     1
 40
0
 41
0
  0
VERTEX
  8
0
 10
5.20258
 20
5.06244
 30
0.0
 40
0
 41
0
  0
VERTEX
  8
0
 10
5.29633
 20
5.06244
 30
0.0
 40
0
 41
0
  0
VERTEX
  8
0
 10
5.29633
 20
4.21778
 30
0.0
 40
0
 41
0
  0
VERTEX
  8
0
 10
5.20258
 20
4.21778
 30
0.0
 40
0
 41
0
  0
VERTEX
  8
0
 10
5.20258
 20
5.06244
 30
0.0
 40
0
 41
0
  0
SEQEND
 8
0
  0
POLYLINE
  8
0
 62
     0
 66
     1
 10
0
 20
0
 30
0.0
 70
     1
 40
0.75
 41
0.75
  0
VERTEX
  8
0
 10
5.20258
 20
5.06244
 30
0.0
 40
0.0104167
 41
0.0104167
  0
VERTEX
  8
0
 10
5.29633
 20
5.06244
 30
0.0
 40
0.0104167
 41
0.0104167
  0
VERTEX
  8
0
 10
5.29633
 20
4.21778
 30
0.0
 40
0.0104167
 41
0.0104167
  0
VERTEX
  8
0
 10
5.20258
 20
4.21778
 30
0.0
 40
0.0104167
 41
0.0104167
  0
VERTEX
  8
0
 10
5.20258
 20
5.06244
 30
0.0
 40
0.0104167
 41
0.0104167
  0
SEQEND
 8
0
  0
POLYLINE
  8
0
 62
     0
 66
     1
 10
0
 20
0
 30
0.0
 70
     1
 40
0.75
 41
0.75
  0
VERTEX
  8
0
 10
5.20258
 20
5.06244
 30
0.0
 40
0.0104167
 41
0.0104167
  0
VERTEX
  8
0
 10
5.15306
 20
5.06244
 30
0.0
 40
0.0104167
 41
0.0104167
  0
VERTEX
  8
0
 10
5.00461
 20
5.04926
 30
0.0
 40
0.0104167
 41
0.0104167
  0
VERTEX
  8
0
 10
4.83301
 20
5.00971
 30
0.0
 40
0.0104167
 41
0.0104167
  0
VERTEX
  8
0
 10
4.68782
 20
4.94368
 30
0.0
 40
0.0104167
 41
0.0104167
  0
VERTEX
  8
0
 10
4.56907
 20
4.85129
 30
0.0
 40
0.0104167
 41
0.0104167
  0
VERTEX
  8
0
 10
4.47667
 20
4.73253
 30
0.0
 40
0.0104167
 41
0.0104167
  0
VERTEX
  8
0
 10
4.41069
 20
4.58735
 30
0.0
 40
0.0104167
 41
0.0104167
  0
VERTEX
  8
0
 10
4.3711
 20
4.41581
 30
0.0
 40
0.0104167
 41
0.0104167
  0
VERTEX
  8
0
 10
4.35792
 20
4.26731
 30
0.0
 40
0.0104167
 41
0.0104167
  0
VERTEX
  8
0
 10
4.35792
 20
4.21778
 30
0.0
 40
0.0104167
 41
0.0104167
  0
VERTEX
  8
0
 10
5.20258
 20
4.21778
 30
0.0
 40
0.0104167
 41
0.0104167
  0
VERTEX
  8
0
 10
5.20258
 20
5.06244
 30
0.0
 40
0.0104167
 41
0.0104167
  0
SEQEND
 8
0
  0
POLYLINE
  8
0
 62
     0
 66
     1
 10
0
 20
0
 30
0.0
 70
     1
 40
0
 41
0
  0
VERTEX
  8
0
 10
5.20258
 20
5.49132
 30
0.0
 40
0
 41
0
  0
VERTEX
  8
0
 10
9.19612
 20
5.49132
 30
0.0
 40
0
 41
0
  0
VERTEX
  8
0
 10
9.19612
 20
5.39757
 30
0.0
 40
0
 41
0
  0
VERTEX
  8
0
 10
5.29633
 20
5.39757
 30
0.0
 40
0
 41
0
  0
VERTEX
  8
0
 10
5.20258
 20
5.49132
 30
0.0
 40
0
 41
0
  0
SEQEND
 8
0
  0
POLYLINE
  8
0
 62
     0
 66
     1
 10
0
 20
0
 30
0.0
 70
     1
 40
0.15
 41
0.15
  0
VERTEX
  8
0
 10
5.20258
 20
5.49132
 30
0.0
 40
0.00208333
 41
0.00208333
  0
VERTEX
  8
0
 10
9.19612
 20
5.49132
 30
0.0
 40
0.00208333
 41
0.00208333
  0
VERTEX
  8
0
 10
9.19612
 20
5.39757
 30
0.0
 40
0.00208333
 41
0.00208333
  0
VERTEX
  8
0
 10
5.29633
 20
5.39757
 30
0.0
 40
0.00208333
 41
0.00208333
  0
VERTEX
  8
0
 10
5.20258
 20
5.49132
 30
0.0
 40
0.00208333
 41
0.00208333
  0
SEQEND
 8
0
  0
POLYLINE
  8
0
 62
     0
 66
     1
 10
0
 20
0
 30
0.0
 70
     1
 40
0
 41
0
  0
VERTEX
  8
0
 10
3.58051
 20
3.35894
 30
0.0
 40
0
 41
0
  0
VERTEX
  8
0
 10
5.29633
 20
3.35894
 30
0.0
 40
0
 41
0
  0
VERTEX
  8
0
 10
5.29633
 20
3.26519
 30
0.0
 40
0
 41
0
  0
VERTEX
  8
0
 10
3.58051
 20
3.26519
 30
0.0
 40
0
 41
0
  0
VERTEX
  8
0
 10
3.58051
 20
3.35894
 30
0.0
 40
0
 41
0
  0
SEQEND
 8
0
  0
POLYLINE
  8
0
 62
     0
 66
     1
 10
0
 20
0
 30
0.0
 70
     1
 40
0.15
 41
0.15
  0
VERTEX
  8
0
 10
3.58051
 20
3.35894
 30
0.0
 40
0.00208333
 41
0.00208333
  0
VERTEX
  8
0
 10
5.29633
 20
3.35894
 30
0.0
 40
0.00208333
 41
0.00208333
  0
VERTEX
  8
0
 10
5.29633
 20
3.26519
 30
0.0
 40
0.00208333
 41
0.00208333
  0
VERTEX
  8
0
 10
3.58051
 20
3.26519
 30
0.0
 40
0.00208333
 41
0.00208333
  0
VERTEX
  8
0
 10
3.58051
 20
3.35894
 30
0.0
 40
0.00208333
 41
0.00208333
  0
SEQEND
 8
0
  0
POLYLINE
  8
0
 62
     7
 66
     1
 10
0
 20
0
 30
0.0
 70
     1
 40
0
 41
0
  0
VERTEX
  8
0
 10
3.74615
 20
3.35894
 30
0.0
 40
0
 41
0
  0
VERTEX
  8
0
 10
4.62543
 20
3.35894
 30
0.0
 40
0
 41
0
  0
VERTEX
  8
0
 10
4.62543
 20
3.26519
 30
0.0
 40
0
 41
0
  0
VERTEX
  8
0
 10
3.74615
 20
3.26519
 30
0.0
 40
0
 41
0
  0
VERTEX
  8
0
 10
3.74615
 20
3.35894
 30
0.0
 40
0
 41
0
  0
SEQEND
 8
0
  0
POLYLINE
  8
0
 62
     0
 66
     1
 10
0
 20
0
 30
0.0
 70
     1
 40
0.75
 41
0.75
  0
VERTEX
  8
0
 10
3.74615
 20
3.35894
 30
0.0
 40
0.0104167
 41
0.0104167
  0
VERTEX
  8
0
 10
4.62543
 20
3.35894
 30
0.0
 40
0.0104167
 41
0.0104167
  0
VERTEX
  8
0
 10
4.62543
 20
3.26519
 30
0.0
 40
0.0104167
 41
0.0104167
  0
VERTEX
  8
0
 10
3.74615
 20
3.26519
 30
0.0
 40
0.0104167
 41
0.0104167
  0
VERTEX
  8
0
 10
3.74615
 20
3.35894
 30
0.0
 40
0.0104167
 41
0.0104167
  0
SEQEND
 8
0
  0
POLYLINE
  8
0
 62
     7
 66
     1
 10
0
 20
0
 30
0.0
 70
     1
 40
0
 41
0
  0
VERTEX
  8
0
 10
3.74615
 20
3.35894
 30
0.0
 40
0
 41
0
  0
VERTEX
  8
0
 10
4.62543
 20
3.35894
 30
0.0
 40
0
 41
0
  0
VERTEX
  8
0
 10
4.62543
 20
3.26519
 30
0.0
 40
0
 41
0
  0
VERTEX
  8
0
 10
3.74615
 20
3.26519
 30
0.0
 40
0
 41
0
  0
VERTEX
  8
0
 10
3.74615
 20
3.35894
 30
0.0
 40
0
 41
0
  0
SEQEND
 8
0
  0
POLYLINE
  8
0
 62
     0
 66
     1
 10
0
 20
0
 30
0.0
 70
     1
 40
0.75
 41
0.75
  0
VERTEX
  8
0
 10
3.74615
 20
3.35894
 30
0.0
 40
0.0104167
 41
0.0104167
  0
VERTEX
  8
0
 10
4.62543
 20
3.35894
 30
0.0
 40
0.0104167
 41
0.0104167
  0
VERTEX
  8
0
 10
4.62543
 20
3.26519
 30
0.0
 40
0.0104167
 41
0.0104167
  0
VERTEX
  8
0
 10
3.74615
 20
3.26519
 30
0.0
 40
0.0104167
 41
0.0104167
  0
VERTEX
  8
0
 10
3.74615
 20
3.35894
 30
0.0
 40
0.0104167
 41
0.0104167
  0
SEQEND
 8
0
  0
POLYLINE
  8
0
 62
     0
 66
     1
 10
0
 20
0
 30
0.0
 70
     1
 40
0.75
 41
0.75
  0
VERTEX
  8
0
 10
4.62543
 20
3.35894
 30
0.0
 40
0.0104167
 41
0.0104167
  0
VERTEX
  8
0
 10
4.62543
 20
3.41049
 30
0.0
 40
0.0104167
 41
0.0104167
  0
VERTEX
  8
0
 10
4.61165
 20
3.56506
 30
0.0
 40
0.0104167
 41
0.0104167
  0
VERTEX
  8
0
 10
4.57042
 20
3.74365
 30
0.0
 40
0.0104167
 41
0.0104167
  0
VERTEX
  8
0
 10
4.50174
 20
3.89475
 30
0.0
 40
0.0104167
 41
0.0104167
  0
VERTEX
  8
0
 10
4.4056
 20
4.01839
 30
0.0
 40
0.0104167
 41
0.0104167
  0
VERTEX
  8
0
 10
4.2819
 20
4.11458
 30
0.0
 40
0.0104167
 41
0.0104167
  0
VERTEX
  8
0
 10
4.13081
 20
4.18326
 30
0.0
 40
0.0104167
 41
0.0104167
  0
VERTEX
  8
0
 10
3.95221
 20
4.22444
 30
0.0
 40
0.0104167
 41
0.0104167
  0
VERTEX
  8
0
 10
3.79764
 20
4.23817
 30
0.0
 40
0.0104167
 41
0.0104167
  0
VERTEX
  8
0
 10
3.74615
 20
4.23817
 30
0.0
 40
0.0104167
 41
0.0104167
  0
VERTEX
  8
0
 10
3.74615
 20
3.35894
 30
0.0
 40
0.0104167
 41
0.0104167
  0
VERTEX
  8
0
 10
4.62543
 20
3.35894
 30
0.0
 40
0.0104167
 41
0.0104167
  0
SEQEND
 8
0
  0
POLYLINE
  8
0
 62
     0
 66
     1
 10
0
 20
0
 30
0.0
 70
     1
 40
0
 41
0
  0
VERTEX
  8
0
 10
7.07781
 20
11.1459
 30
0.0
 40
0
 41
0
  0
VERTEX
  8
0
 10
7.17156
 20
11.1459
 30
0.0
 40
0
 41
0
  0
VERTEX
  8
0
 10
7.17156
 20
5.39757
 30
0.0
 40
0
 41
0
  0
VERTEX
  8
0
 10
7.07781
 20
5.39757
 30
0.0
 40
0
 41
0
  0
VERTEX
  8
0
 10
7.07781
 20
11.1459
 30
0.0
 40
0
 41
0
  0
SEQEND
 8
0
  0
POLYLINE
  8
0
 62
     0
 66
     1
 10
0
 20
0
 30
0.0
 70
     1
 40
0.15
 41
0.15
  0
VERTEX
  8
0
 10
7.07781
 20
11.1459
 30
0.0
 40
0.00208333
 41
0.00208333
  0
VERTEX
  8
0
 10
7.17156
 20
11.1459
 30
0.0
 40
0.00208333
 41
0.00208333
  0
VERTEX
  8
0
 10
7.17156
 20
5.39757
 30
0.0
 40
0.00208333
 41
0.00208333
  0
VERTEX
  8
0
 10
7.07781
 20
5.39757
 30
0.0
 40
0.00208333
 41
0.00208333
  0
VERTEX
  8
0
 10
7.07781
 20
11.1459
 30
0.0
 40
0.00208333
 41
0.00208333
  0
SEQEND
 8
0
  0
POLYLINE
  8
0
 62
     7
 66
     1
 10
0
 20
0
 30
0.0
 70
     1
 40
0
 41
0
  0
VERTEX
  8
0
 10
7.07781
 20
7.17036
 30
0.0
 40
0
 41
0
  0
VERTEX
  8
0
 10
7.17156
 20
7.17036
 30
0.0
 40
0
 41
0
  0
VERTEX
  8
0
 10
7.17156
 20
6.29665
 30
0.0
 40
0
 41
0
  0
VERTEX
  8
0
 10
7.07781
 20
6.29665
 30
0.0
 40
0
 41
0
  0
VERTEX
  8
0
 10
7.07781
 20
7.17036
 30
0.0
 40
0
 41
0
  0
SEQEND
 8
0
  0
POLYLINE
  8
0
 62
     0
 66
     1
 10
0
 20
0
 30
0.0
 70
     1
 40
0.75
 41
0.75
  0
VERTEX
  8
0
 10
7.07781
 20
7.17036
 30
0.0
 40
0.0104167
 41
0.0104167
  0
VERTEX
  8
0
 10
7.17156
 20
7.17036
 30
0.0
 40
0.0104167
 41
0.0104167
  0
VERTEX
  8
0
 10
7.17156
 20
6.29665
 30
0.0
 40
0.0104167
 41
0.0104167
  0
VERTEX
  8
0
 10
7.07781
 20
6.29665
 30
0.0
 40
0.0104167
 41
0.0104167
  0
VERTEX
  8
0
 10
7.07781
 20
7.17036
 30
0.0
 40
0.0104167
 41
0.0104167
  0
SEQEND
 8
0
  0
POLYLINE
  8
0
 62
     7
 66
     1
 10
0
 20
0
 30
0.0
 70
     1
 40
0
 41
0
  0
VERTEX
  8
0
 10
7.07781
 20
7.17036
 30
0.0
 40
0
 41
0
  0
VERTEX
  8
0
 10
7.17156
 20
7.17036
 30
0.0
 40
0
 41
0
  0
VERTEX
  8
0
 10
7.17156
 20
6.29665
 30
0.0
 40
0
 41
0
  0
VERTEX
  8
0
 10
7.07781
 20
6.29665
 30
0.0
 40
0
 41
0
  0
VERTEX
  8
0
 10
7.07781
 20
7.17036
 30
0.0
 40
0
 41
0
  0
SEQEND
 8
0
  0
POLYLINE
  8
0
 62
     0
 66
     1
 10
0
 20
0
 30
0.0
 70
     1
 40
0.75
 41
0.75
  0
VERTEX
  8
0
 10
7.07781
 20
7.17036
 30
0.0
 40
0.0104167
 41
0.0104167
  0
VERTEX
  8
0
 10
7.17156
 20
7.17036
 30
0.0
 40
0.0104167
 41
0.0104167
  0
VERTEX
  8
0
 10
7.17156
 20
6.29665
 30
0.0
 40
0.0104167
 41
0.0104167
  0
VERTEX
  8
0
 10
7.07781
 20
6.29665
 30
0.0
 40
0.0104167
 41
0.0104167
  0
VERTEX
  8
0
 10
7.07781
 20
7.17036
 30
0.0
 40
0.0104167
 41
0.0104167
  0
SEQEND
 8
0
  0
POLYLINE
  8
0
 62
     0
 66
     1
 10
0
 20
0
 30
0.0
 70
     1
 40
0.75
 41
0.75
  0
VERTEX
  8
0
 10
7.07781
 20
6.29665
 30
0.0
 40
0.0104167
 41
0.0104167
  0
VERTEX
  8
0
 10
7.02658
 20
6.29665
 30
0.0
 40
0.0104167
 41
0.0104167
  0
VERTEX
  8
0
 10
6.87299
 20
6.31033
 30
0.0
 40
0.0104167
 41
0.0104167
  0
VERTEX
  8
0
 10
6.69553
 20
6.35129
 30
0.0
 40
0.0104167
 41
0.0104167
  0
VERTEX
  8
0
 10
6.54536
 20
6.41954
 30
0.0
 40
0.0104167
 41
0.0104167
  0
VERTEX
  8
0
 10
6.42247
 20
6.51508
 30
0.0
 40
0.0104167
 41
0.0104167
  0
VERTEX
  8
0
 10
6.32688
 20
6.63797
 30
0.0
 40
0.0104167
 41
0.0104167
  0
VERTEX
  8
0
 10
6.25863
 20
6.78814
 30
0.0
 40
0.0104167
 41
0.0104167
  0
VERTEX
  8
0
 10
6.21767
 20
6.9656
 30
0.0
 40
0.0104167
 41
0.0104167
  0
VERTEX
  8
0
 10
6.20404
 20
7.11919
 30
0.0
 40
0.0104167
 41
0.0104167
  0
VERTEX
  8
0
 10
6.20404
 20
7.17036
 30
0.0
 40
0.0104167
 41
0.0104167
  0
VERTEX
  8
0
 10
7.07781
 20
7.17036
 30
0.0
 40
0.0104167
 41
0.0104167
  0
VERTEX
  8
0
 10
7.07781
 20
6.29665
 30
0.0
 40
0.0104167
 41
0.0104167
  0
SEQEND
 8
0
  0
POLYLINE
  8
0
 62
     0
 66
     1
 10
0
 20
0
 30
0.0
 70
     1
 40
0
 41
0
  0
VERTEX
  8
0
 10
7.07781
 20
9.24203
 30
0.0
 40
0
 41
0
  0
VERTEX
  8
0
 10
9.19612
 20
9.24203
 30
0.0
 40
0
 41
0
  0
VERTEX
  8
0
 10
9.19612
 20
9.14828
 30
0.0
 40
0
 41
0
  0
VERTEX
  8
0
 10
7.07781
 20
9.14828
 30
0.0
 40
0
 41
0
  0
VERTEX
  8
0
 10
7.07781
 20
9.24203
 30
0.0
 40
0
 41
0
  0
SEQEND
 8
0
  0
POLYLINE
  8
0
 62
     0
 66
     1
 10
0
 20
0
 30
0.0
 70
     1
 40
0.15
 41
0.15
  0
VERTEX
  8
0
 10
7.07781
 20
9.24203
 30
0.0
 40
0.00208333
 41
0.00208333
  0
VERTEX
  8
0
 10
9.19612
 20
9.24203
 30
0.0
 40
0.00208333
 41
0.00208333
  0
VERTEX
  8
0
 10
9.19612
 20
9.14828
 30
0.0
 40
0.00208333
 41
0.00208333
  0
VERTEX
  8
0
 10
7.07781
 20
9.14828
 30
0.0
 40
0.00208333
 41
0.00208333
  0
VERTEX
  8
0
 10
7.07781
 20
9.24203
 30
0.0
 40
0.00208333
 41
0.00208333
  0
SEQEND
 8
0
  0
POLYLINE
  8
0
 62
     7
 66
     1
 10
0
 20
0
 30
0.0
 70
     1
 40
0
 41
0
  0
VERTEX
  8
0
 10
7.21272
 20
9.24203
 30
0.0
 40
0
 41
0
  0
VERTEX
  8
0
 10
8.06293
 20
9.24203
 30
0.0
 40
0
 41
0
  0
VERTEX
  8
0
 10
8.06293
 20
9.14828
 30
0.0
 40
0
 41
0
  0
VERTEX
  8
0
 10
7.21272
 20
9.14828
 30
0.0
 40
0
 41
0
  0
VERTEX
  8
0
 10
7.21272
 20
9.24203
 30
0.0
 40
0
 41
0
  0
SEQEND
 8
0
  0
POLYLINE
  8
0
 62
     0
 66
     1
 10
0
 20
0
 30
0.0
 70
     1
 40
0.75
 41
0.75
  0
VERTEX
  8
0
 10
7.21272
 20
9.24203
 30
0.0
 40
0.0104167
 41
0.0104167
  0
VERTEX
  8
0
 10
8.06293
 20
9.24203
 30
0.0
 40
0.0104167
 41
0.0104167
  0
VERTEX
  8
0
 10
8.06293
 20
9.14828
 30
0.0
 40
0.0104167
 41
0.0104167
  0
VERTEX
  8
0
 10
7.21272
 20
9.14828
 30
0.0
 40
0.0104167
 41
0.0104167
  0
VERTEX
  8
0
 10
7.21272
 20
9.24203
 30
0.0
 40
0.0104167
 41
0.0104167
  0
SEQEND
 8
0
  0
POLYLINE
  8
0
 62
     7
 66
     1
 10
0
 20
0
 30
0.0
 70
     1
 40
0
 41
0
  0
VERTEX
  8
0
 10
7.21272
 20
9.24203
 30
0.0
 40
0
 41
0
  0
VERTEX
  8
0
 10
8.06293
 20
9.24203
 30
0.0
 40
0
 41
0
  0
VERTEX
  8
0
 10
8.06293
 20
9.14828
 30
0.0
 40
0
 41
0
  0
VERTEX
  8
0
 10
7.21272
 20
9.14828
 30
0.0
 40
0
 41
0
  0
VERTEX
  8
0
 10
7.21272
 20
9.24203
 30
0.0
 40
0
 41
0
  0
SEQEND
 8
0
  0
POLYLINE
  8
0
 62
     0
 66
     1
 10
0
 20
0
 30
0.0
 70
     1
 40
0.75
 41
0.75
  0
VERTEX
  8
0
 10
7.21272
 20
9.24203
 30
0.0
 40
0.0104167
 41
0.0104167
  0
VERTEX
  8
0
 10
8.06293
 20
9.24203
 30
0.0
 40
0.0104167
 41
0.0104167
  0
VERTEX
  8
0
 10
8.06293
 20
9.14828
 30
0.0
 40
0.0104167
 41
0.0104167
  0
VERTEX
  8
0
 10
7.21272
 20
9.14828
 30
0.0
 40
0.0104167
 41
0.0104167
  0
VERTEX
  8
0
 10
7.21272
 20
9.24203
 30
0.0
 40
0.0104167
 41
0.0104167
  0
SEQEND
 8
0
  0
POLYLINE
  8
0
 62
     0
 66
     1
 10
0
 20
0
 30
0.0
 70
     1
 40
0.75
 41
0.75
  0
VERTEX
  8
0
 10
8.06293
 20
9.14828
 30
0.0
 40
0.0104167
 41
0.0104167
  0
VERTEX
  8
0
 10
8.06293
 20
9.09847
 30
0.0
 40
0.0104167
 41
0.0104167
  0
VERTEX
  8
0
 10
8.04964
 20
8.94906
 30
0.0
 40
0.0104167
 41
0.0104167
  0
VERTEX
  8
0
 10
8.00976
 20
8.77636
 30
0.0
 40
0.0104167
 41
0.0104167
  0
VERTEX
  8
0
 10
7.94336
 20
8.63026
 30
0.0
 40
0.0104167
 41
0.0104167
  0
VERTEX
  8
0
 10
7.85037
 20
8.51074
 30
0.0
 40
0.0104167
 41
0.0104167
  0
VERTEX
  8
0
 10
7.73085
 20
8.41775
 30
0.0
 40
0.0104167
 41
0.0104167
  0
VERTEX
  8
0
 10
7.58475
 20
8.35135
 30
0.0
 40
0.0104167
 41
0.0104167
  0
VERTEX
  8
0
 10
7.41206
 20
8.31147
 30
0.0
 40
0.0104167
 41
0.0104167
  0
VERTEX
  8
0
 10
7.26264
 20
8.29818
 30
0.0
 40
0.0104167
 41
0.0104167
  0
VERTEX
  8
0
 10
7.21283
 20
8.29818
 30
0.0
 40
0.0104167
 41
0.0104167
  0
VERTEX
  8
0
 10
7.21283
 20
9.14828
 30
0.0
 40
0.0104167
 41
0.0104167
  0
VERTEX
  8
0
 10
8.06293
 20
9.14828
 30
0.0
 40
0.0104167
 41
0.0104167
  0
SEQEND
 8
0
  0
POLYLINE
  8
0
 62
     0
 66
     1
 10
0
 20
0
 30
0.0
 70
     1
 40
0
 41
0
  0
VERTEX
  8
0
 10
5.22271
 20
8.1906
 30
0.0
 40
0
 41
0
  0
VERTEX
  8
0
 10
5.22271
 20
7.42703
 30
0.0
 40
0
 41
0
  0
VERTEX
  8
0
 10
5.31646
 20
7.52078
 30
0.0
 40
0
 41
0
  0
VERTEX
  8
0
 10
5.31646
 20
8.1906
 30
0.0
 40
0
 41
0
  0
VERTEX
  8
0
 10
5.22271
 20
8.1906
 30
0.0
 40
0
 41
0
  0
SEQEND
 8
0
  0
POLYLINE
  8
0
 62
     0
 66
     1
 10
0
 20
0
 30
0.0
 70
     1
 40
0.15
 41
0.15
  0
VERTEX
  8
0
 10
5.22271
 20
8.1906
 30
0.0
 40
0.00208333
 41
0.00208333
  0
VERTEX
  8
0
 10
5.22271
 20
7.42703
 30
0.0
 40
0.00208333
 41
0.00208333
  0
VERTEX
  8
0
 10
5.31646
 20
7.52078
 30
0.0
 40
0.00208333
 41
0.00208333
  0
VERTEX
  8
0
 10
5.31646
 20
8.1906
 30
0.0
 40
0.00208333
 41
0.00208333
  0
VERTEX
  8
0
 10
5.22271
 20
8.1906
 30
0.0
 40
0.00208333
 41
0.00208333
  0
SEQEND
 8
0
  0
POLYLINE
  8
0
 62
     0
 66
     1
 10
0
 20
0
 30
0.0
 70
     1
 40
0
 41
0
  0
VERTEX
  8
0
 10
5.22271
 20
7.42703
 30
0.0
 40
0
 41
0
  0
VERTEX
  8
0
 10
7.17156
 20
7.42703
 30
0.0
 40
0
 41
0
  0
VERTEX
  8
0
 10
7.17156
 20
7.52078
 30
0.0
 40
0
 41
0
  0
VERTEX
  8
0
 10
5.31646
 20
7.52078
 30
0.0
 40
0
 41
0
  0
VERTEX
  8
0
 10
5.22271
 20
7.42703
 30
0.0
 40
0
 41
0
  0
SEQEND
 8
0
  0
POLYLINE
  8
0
 62
     0
 66
     1
 10
0
 20
0
 30
0.0
 70
     1
 40
0.15
 41
0.15
  0
VERTEX
  8
0
 10
5.22271
 20
7.42703
 30
0.0
 40
0.00208333
 41
0.00208333
  0
VERTEX
  8
0
 10
7.17156
 20
7.42703
 30
0.0
 40
0.00208333
 41
0.00208333
  0
VERTEX
  8
0
 10
7.17156
 20
7.52078
 30
0.0
 40
0.00208333
 41
0.00208333
  0
VERTEX
  8
0
 10
5.31646
 20
7.52078
 30
0.0
 40
0.00208333
 41
0.00208333
  0
VERTEX
  8
0
 10
5.22271
 20
7.42703
 30
0.0
 40
0.00208333
 41
0.00208333
  0
SEQEND
 8
0
  0
POLYLINE
  8
0
 62
     0
 66
     1
 10
0
 20
0
 30
0.0
 70
     1
 40
0
 41
0
  0
VERTEX
  8
0
 10
8.36404
 20
5.40528
 30
0.0
 40
0
 41
0
  0
VERTEX
  8
0
 10
9.19612
 20
5.40528
 30
0.0
 40
0
 41
0
  0
VERTEX
  8
0
 10
9.19612
 20
5.20811
 30
0.0
 40
0
 41
0
  0
VERTEX
  8
0
 10
8.36404
 20
5.20811
 30
0.0
 40
0
 41
0
  0
VERTEX
  8
0
 10
8.36404
 20
5.40528
 30
0.0
 40
0
 41
0
  0
SEQEND
 8
0
  0
POLYLINE
  8
0
 62
     0
 66
     1
 10
0
 20
0
 30
0.0
 70
     1
 40
0.15
 41
0.15
  0
VERTEX
  8
0
 10
8.36404
 20
5.40528
 30
0.0
 40
0.00208333
 41
0.00208333
  0
VERTEX
  8
0
 10
9.19612
 20
5.40528
 30
0.0
 40
0.00208333
 41
0.00208333
  0
VERTEX
  8
0
 10
9.19612
 20
5.20811
 30
0.0
 40
0.00208333
 41
0.00208333
  0
VERTEX
  8
0
 10
8.36404
 20
5.20811
 30
0.0
 40
0.00208333
 41
0.00208333
  0
VERTEX
  8
0
 10
8.36404
 20
5.40528
 30
0.0
 40
0.00208333
 41
0.00208333
  0
SEQEND
 8
0
  0
POLYLINE
  8
0
 62
     7
 66
     1
 10
0
 20
0
 30
0.0
 70
     1
 40
0
 41
0
  0
VERTEX
  8
0
 10
1.16477
 20
11.1445
 30
0.0
 40
0
 41
0
  0
VERTEX
  8
0
 10
1.16477
 20
13.0404
 30
0.0
 40
0
 41
0
  0
VERTEX
  8
0
 10
1.07102
 20
13.1341
 30
0.0
 40
0
 41
0
  0
VERTEX
  8
0
 10
1.07102
 20
11.1445
 30
0.0
 40
0
 41
0
  0
VERTEX
  8
0
 10
1.16477
 20
11.1445
 30
0.0
 40
0
 41
0
  0
SEQEND
 8
0
  0
POLYLINE
  8
0
 62
     0
 66
     1
 10
0
 20
0
 30
0.0
 70
     1
 40
0.15
 41
0.15
  0
VERTEX
  8
0
 10
1.16477
 20
11.1445
 30
0.0
 40
0.00208333
 41
0.00208333
  0
VERTEX
  8
0
 10
1.16477
 20
13.0404
 30
0.0
 40
0.00208333
 41
0.00208333
  0
VERTEX
  8
0
 10
1.07102
 20
13.1341
 30
0.0
 40
0.00208333
 41
0.00208333
  0
VERTEX
  8
0
 10
1.07102
 20
11.1445
 30
0.0
 40
0.00208333
 41
0.00208333
  0
VERTEX
  8
0
 10
1.16477
 20
11.1445
 30
0.0
 40
0.00208333
 41
0.00208333
  0
SEQEND
 8
0
  0
POLYLINE
  8
0
 62
     7
 66
     1
 10
0
 20
0
 30
0.0
 70
     1
 40
0
 41
0
  0
VERTEX
  8
0
 10
1.16477
 20
13.0404
 30
0.0
 40
0
 41
0
  0
VERTEX
  8
0
 10
4.28782
 20
13.0404
 30
0.0
 40
0
 41
0
  0
VERTEX
  8
0
 10
4.38157
 20
13.1341
 30
0.0
 40
0
 41
0
  0
VERTEX
  8
0
 10
1.07102
 20
13.1341
 30
0.0
 40
0
 41
0
  0
VERTEX
  8
0
 10
1.16477
 20
13.0404
 30
0.0
 40
0
 41
0
  0
SEQEND
 8
0
  0
POLYLINE
  8
0
 62
     0
 66
     1
 10
0
 20
0
 30
0.0
 70
     1
 40
0.15
 41
0.15
  0
VERTEX
  8
0
 10
1.16477
 20
13.0404
 30
0.0
 40
0.00208333
 41
0.00208333
  0
VERTEX
  8
0
 10
4.28782
 20
13.0404
 30
0.0
 40
0.00208333
 41
0.00208333
  0
VERTEX
  8
0
 10
4.38157
 20
13.1341
 30
0.0
 40
0.00208333
 41
0.00208333
  0
VERTEX
  8
0
 10
1.07102
 20
13.1341
 30
0.0
 40
0.00208333
 41
0.00208333
  0
VERTEX
  8
0
 10
1.16477
 20
13.0404
 30
0.0
 40
0.00208333
 41
0.00208333
  0
SEQEND
 8
0
  0
POLYLINE
  8
0
 62
     7
 66
     1
 10
0
 20
0
 30
0.0
 70
     1
 40
0
 41
0
  0
VERTEX
  8
0
 10
4.38157
 20
13.1341
 30
0.0
 40
0
 41
0
  0
VERTEX
  8
0
 10
4.38157
 20
11.1453
 30
0.0
 40
0
 41
0
  0
VERTEX
  8
0
 10
4.28782
 20
11.1453
 30
0.0
 40
0
 41
0
  0
VERTEX
  8
0
 10
4.28782
 20
13.0404
 30
0.0
 40
0
 41
0
  0
VERTEX
  8
0
 10
4.38157
 20
13.1341
 30
0.0
 40
0
 41
0
  0
SEQEND
 8
0
  0
POLYLINE
  8
0
 62
     0
 66
     1
 10
0
 20
0
 30
0.0
 70
     1
 40
0.15
 41
0.15
  0
VERTEX
  8
0
 10
4.38157
 20
13.1341
 30
0.0
 40
0.00208333
 41
0.00208333
  0
VERTEX
  8
0
 10
4.38157
 20
11.1453
 30
0.0
 40
0.00208333
 41
0.00208333
  0
VERTEX
  8
0
 10
4.28782
 20
11.1453
 30
0.0
 40
0.00208333
 41
0.00208333
  0
VERTEX
  8
0
 10
4.28782
 20
13.0404
 30
0.0
 40
0.00208333
 41
0.00208333
  0
VERTEX
  8
0
 10
4.38157
 20
13.1341
 30
0.0
 40
0.00208333
 41
0.00208333
  0
SEQEND
 8
0
  0
POLYLINE
  8
0
 62
     7
 66
     1
 10
0
 20
0
 30
0.0
 70
     1
 40
0
 41
0
  0
VERTEX
  8
0
 10
5.3285
 20
7.53088
 30
0.0
 40
0
 41
0
  0
VERTEX
  8
0
 10
5.3285
 20
8.15657
 30
0.0
 40
0
 41
0
  0
VERTEX
  8
0
 10
6.43164
 20
8.15657
 30
0.0
 40
0
 41
0
  0
VERTEX
  8
0
 10
6.43164
 20
10.1473
 30
0.0
 40
0
 41
0
  0
VERTEX
  8
0
 10
7.07081
 20
10.1473
 30
0.0
 40
0
 41
0
  0
VERTEX
  8
0
 10
7.07081
 20
7.5165
 30
0.0
 40
0
 41
0
  0
VERTEX
  8
0
 10
5.33317
 20
7.5165
 30
0.0
 40
0
 41
0
  0
VERTEX
  8
0
 10
5.3285
 20
7.53088
 30
0.0
 40
0
 41
0
  0
SEQEND
 8
0
  0
POLYLINE
  8
0
 62
     0
 66
     1
 10
0
 20
0
 30
0.0
 70
     1
 40
0.75
 41
0.75
  0
VERTEX
  8
0
 10
5.3285
 20
7.53088
 30
0.0
 40
0.0104167
 41
0.0104167
  0
VERTEX
  8
0
 10
5.3285
 20
8.15657
 30
0.0
 40
0.0104167
 41
0.0104167
  0
VERTEX
  8
0
 10
6.43164
 20
8.15657
 30
0.0
 40
0.0104167
 41
0.0104167
  0
VERTEX
  8
0
 10
6.43164
 20
10.1473
 30
0.0
 40
0.0104167
 41
0.0104167
  0
VERTEX
  8
0
 10
7.07081
 20
10.1473
 30
0.0
 40
0.0104167
 41
0.0104167
  0
VERTEX
  8
0
 10
7.07081
 20
7.5165
 30
0.0
 40
0.0104167
 41
0.0104167
  0
VERTEX
  8
0
 10
5.33317
 20
7.5165
 30
0.0
 40
0.0104167
 41
0.0104167
  0
VERTEX
  8
0
 10
5.3285
 20
7.53088
 30
0.0
 40
0.0104167
 41
0.0104167
  0
SEQEND
 8
0
  0
POLYLINE
  8
0
 62
     7
 66
     1
 10
0
 20
0
 30
0.0
 70
     1
 40
0
 41
0
  0
VERTEX
  8
0
 10
6.42888
 20
9.74089
 30
0.0
 40
0
 41
0
  0
VERTEX
  8
0
 10
7.06993
 20
9.74089
 30
0.0
 40
0
 41
0
  0
VERTEX
  8
0
 10
7.06993
 20
9.162
 30
0.0
 40
0
 41
0
  0
VERTEX
  8
0
 10
6.42888
 20
9.162
 30
0.0
 40
0
 41
0
  0
VERTEX
  8
0
 10
6.42888
 20
9.74089
 30
0.0
 40
0
 41
0
  0
SEQEND
 8
0
  0
POLYLINE
  8
0
 62
     0
 66
     1
 10
0
 20
0
 30
0.0
 70
     1
 40
0.69465
 41
0.69465
  0
VERTEX
  8
0
 10
6.42888
 20
9.74089
 30
0.0
 40
0.00964792
 41
0.00964792
  0
VERTEX
  8
0
 10
6.42888
 20
9.162
 30
0.0
 40
0.00964792
 41
0.00964792
  0
VERTEX
  8
0
 10
7.06993
 20
9.162
 30
0.0
 40
0.00964792
 41
0.00964792
  0
VERTEX
  8
0
 10
7.06993
 20
9.74089
 30
0.0
 40
0.00964792
 41
0.00964792
  0
VERTEX
  8
0
 10
6.42888
 20
9.74089
 30
0.0
 40
0.00964792
 41
0.00964792
  0
SEQEND
 8
0
  0
POLYLINE
  8
0
 62
     0
 66
     1
 10
0
 20
0
 30
0.0
 40
0.69465
 41
0.69465
  0
VERTEX
  8
0
 10
7.06993
 20
9.74089
 30
0.0
 40
0.00964792
 41
0.00964792
  0
VERTEX
  8
0
 10
6.65435
 20
9.45144
 30
0.0
 40
0.00964792
 41
0.00964792
  0
VERTEX
  8
0
 10
6.868
 20
9.45144
 30
0.0
 40
0.00964792
 41
0.00964792
  0
VERTEX
  8
0
 10
6.42888
 20
9.162
 30
0.0
 40
0.00964792
 41
0.00964792
  0
SEQEND
 8
0
  0
POLYLINE
  8
0
 62
     0
 66
     1
 10
0
 20
0
 30
0.0
 40
0.69465
 41
0.69465
  0
VERTEX
  8
0
 10
6.43317
 20
9.64438
 30
0.0
 40
0.00964792
 41
0.00964792
  0
VERTEX
  8
0
 10
6.43317
 20
9.26042
 30
0.0
 40
0.00964792
 41
0.00964792
  0
SEQEND
 8
0
  0
POLYLINE
  8
0
 62
     7
 66
     1
 10
0
 20
0
 30
0.0
 70
     1
 40
0
 41
0
  0
VERTEX
  8
0
 10
6.51704
 20
9.11811
 30
0.0
 40
0
 41
0
  0
VERTEX
  8
0
 10
6.92671
 20
9.11811
 30
0.0
 40
0
 41
0
  0
VERTEX
  8
0
 10
6.92671
 20
8.67979
 30
0.0
 40
0
 41
0
  0
VERTEX
  8
0
 10
6.51704
 20
8.67979
 30
0.0
 40
0
 41
0
  0
VERTEX
  8
0
 10
6.51704
 20
9.11811
 30
0.0
 40
0
 41
0
  0
SEQEND
 8
0
  0
POLYLINE
  8
0
 62
     0
 66
     1
 10
0
 20
0
 30
0.0
 70
     1
 40
0.75
 41
0.75
  0
VERTEX
  8
0
 10
6.51704
 20
9.11811
 30
0.0
 40
0.0104167
 41
0.0104167
  0
VERTEX
  8
0
 10
6.51704
 20
8.67979
 30
0.0
 40
0.0104167
 41
0.0104167
  0
VERTEX
  8
0
 10
6.92671
 20
8.67979
 30
0.0
 40
0.0104167
 41
0.0104167
  0
VERTEX
  8
0
 10
6.92671
 20
9.11811
 30
0.0
 40
0.0104167
 41
0.0104167
  0
VERTEX
  8
0
 10
6.51704
 20
9.11811
 30
0.0
 40
0.0104167
 41
0.0104167
  0
SEQEND
 8
0
  0
POLYLINE
  8
0
 62
     7
 66
     1
 10
0
 20
0
 30
0.0
 70
     1
 40
0
 41
0
  0
VERTEX
  8
0
 10
6.72711
 20
8.86253
 30
0.0
 40
0
 41
0
  0
VERTEX
  8
0
 10
6.72065
 20
8.86253
 30
0.0
 40
0
 41
0
  0
VERTEX
  8
0
 10
6.70128
 20
8.87321
 30
0.0
 40
0
 41
0
  0
VERTEX
  8
0
 10
6.69065
 20
8.89258
 30
0.0
 40
0
 41
0
  0
VERTEX
  8
0
 10
6.69065
 20
8.89899
 30
0.0
 40
0
 41
0
  0
VERTEX
  8
0
 10
6.69065
 20
8.90543
 30
0.0
 40
0
 41
0
  0
VERTEX
  8
0
 10
6.70128
 20
8.92481
 30
0.0
 40
0
 41
0
  0
VERTEX
  8
0
 10
6.72065
 20
8.93544
 30
0.0
 40
0
 41
0
  0
VERTEX
  8
0
 10
6.72711
 20
8.93544
 30
0.0
 40
0
 41
0
  0
VERTEX
  8
0
 10
6.73351
 20
8.93544
 30
0.0
 40
0
 41
0
  0
VERTEX
  8
0
 10
6.75288
 20
8.92481
 30
0.0
 40
0
 41
0
  0
VERTEX
  8
0
 10
6.76357
 20
8.90543
 30
0.0
 40
0
 41
0
  0
VERTEX
  8
0
 10
6.76357
 20
8.89899
 30
0.0
 40
0
 41
0
  0
VERTEX
  8
0
 10
6.76357
 20
8.89258
 30
0.0
 40
0
 41
0
  0
VERTEX
  8
0
 10
6.75288
 20
8.87321
 30
0.0
 40
0
 41
0
  0
VERTEX
  8
0
 10
6.73351
 20
8.86253
 30
0.0
 40
0
 41
0
  0
VERTEX
  8
0
 10
6.72711
 20
8.86253
 30
0.0
 40
0
 41
0
  0
SEQEND
 8
0
  0
POLYLINE
  8
0
 62
     0
 66
     1
 10
0
 20
0
 30
0.0
 70
     1
 40
0.6
 41
0.6
  0
VERTEX
  8
0
 10
6.72711
 20
8.86253
 30
0.0
 40
0.00833333
 41
0.00833333
  0
VERTEX
  8
0
 10
6.72065
 20
8.86253
 30
0.0
 40
0.00833333
 41
0.00833333
  0
VERTEX
  8
0
 10
6.70128
 20
8.87321
 30
0.0
 40
0.00833333
 41
0.00833333
  0
VERTEX
  8
0
 10
6.69065
 20
8.89258
 30
0.0
 40
0.00833333
 41
0.00833333
  0
VERTEX
  8
0
 10
6.69065
 20
8.89899
 30
0.0
 40
0.00833333
 41
0.00833333
  0
VERTEX
  8
0
 10
6.69065
 20
8.90543
 30
0.0
 40
0.00833333
 41
0.00833333
  0
VERTEX
  8
0
 10
6.70128
 20
8.92481
 30
0.0
 40
0.00833333
 41
0.00833333
  0
VERTEX
  8
0
 10
6.72065
 20
8.93544
 30
0.0
 40
0.00833333
 41
0.00833333
  0
VERTEX
  8
0
 10
6.72711
 20
8.93544
 30
0.0
 40
0.00833333
 41
0.00833333
  0
VERTEX
  8
0
 10
6.73351
 20
8.93544
 30
0.0
 40
0.00833333
 41
0.00833333
  0
VERTEX
  8
0
 10
6.75288
 20
8.92481
 30
0.0
 40
0.00833333
 41
0.00833333
  0
VERTEX
  8
0
 10
6.76357
 20
8.90543
 30
0.0
 40
0.00833333
 41
0.00833333
  0
VERTEX
  8
0
 10
6.76357
 20
8.89899
 30
0.0
 40
0.00833333
 41
0.00833333
  0
VERTEX
  8
0
 10
6.76357
 20
8.89258
 30
0.0
 40
0.00833333
 41
0.00833333
  0
VERTEX
  8
0
 10
6.75288
 20
8.87321
 30
0.0
 40
0.00833333
 41
0.00833333
  0
VERTEX
  8
0
 10
6.73351
 20
8.86253
 30
0.0
 40
0.00833333
 41
0.00833333
  0
VERTEX
  8
0
 10
6.72711
 20
8.86253
 30
0.0
 40
0.00833333
 41
0.00833333
  0
SEQEND
 8
0
  0
POLYLINE
  8
0
 62
     7
 66
     1
 10
0
 20
0
 30
0.0
 70
     1
 40
0
 41
0
  0
VERTEX
  8
0
 10
6.72711
 20
8.87815
 30
0.0
 40
0
 41
0
  0
VERTEX
  8
0
 10
6.72342
 20
8.87815
 30
0.0
 40
0
 41
0
  0
VERTEX
  8
0
 10
6.71235
 20
8.88428
 30
0.0
 40
0
 41
0
  0
VERTEX
  8
0
 10
6.70628
 20
8.89535
 30
0.0
 40
0
 41
0
  0
VERTEX
  8
0
 10
6.70628
 20
8.89899
 30
0.0
 40
0
 41
0
  0
VERTEX
  8
0
 10
6.70628
 20
8.90267
 30
0.0
 40
0
 41
0
  0
VERTEX
  8
0
 10
6.71235
 20
8.91374
 30
0.0
 40
0
 41
0
  0
VERTEX
  8
0
 10
6.72342
 20
8.91982
 30
0.0
 40
0
 41
0
  0
VERTEX
  8
0
 10
6.72711
 20
8.91982
 30
0.0
 40
0
 41
0
  0
VERTEX
  8
0
 10
6.73074
 20
8.91982
 30
0.0
 40
0
 41
0
  0
VERTEX
  8
0
 10
6.74181
 20
8.91374
 30
0.0
 40
0
 41
0
  0
VERTEX
  8
0
 10
6.74794
 20
8.90267
 30
0.0
 40
0
 41
0
  0
VERTEX
  8
0
 10
6.74794
 20
8.89899
 30
0.0
 40
0
 41
0
  0
VERTEX
  8
0
 10
6.74794
 20
8.89535
 30
0.0
 40
0
 41
0
  0
VERTEX
  8
0
 10
6.74181
 20
8.88428
 30
0.0
 40
0
 41
0
  0
VERTEX
  8
0
 10
6.73074
 20
8.87815
 30
0.0
 40
0
 41
0
  0
VERTEX
  8
0
 10
6.72711
 20
8.87815
 30
0.0
 40
0
 41
0
  0
SEQEND
 8
0
  0
POLYLINE
  8
0
 62
     0
 66
     1
 10
0
 20
0
 30
0.0
 70
     1
 40
0.6
 41
0.6
  0
VERTEX
  8
0
 10
6.72711
 20
8.87815
 30
0.0
 40
0.00833333
 41
0.00833333
  0
VERTEX
  8
0
 10
6.72342
 20
8.87815
 30
0.0
 40
0.00833333
 41
0.00833333
  0
VERTEX
  8
0
 10
6.71235
 20
8.88428
 30
0.0
 40
0.00833333
 41
0.00833333
  0
VERTEX
  8
0
 10
6.70628
 20
8.89535
 30
0.0
 40
0.00833333
 41
0.00833333
  0
VERTEX
  8
0
 10
6.70628
 20
8.89899
 30
0.0
 40
0.00833333
 41
0.00833333
  0
VERTEX
  8
0
 10
6.70628
 20
8.90267
 30
0.0
 40
0.00833333
 41
0.00833333
  0
VERTEX
  8
0
 10
6.71235
 20
8.91374
 30
0.0
 40
0.00833333
 41
0.00833333
  0
VERTEX
  8
0
 10
6.72342
 20
8.91982
 30
0.0
 40
0.00833333
 41
0.00833333
  0
VERTEX
  8
0
 10
6.72711
 20
8.91982
 30
0.0
 40
0.00833333
 41
0.00833333
  0
VERTEX
  8
0
 10
6.73074
 20
8.91982
 30
0.0
 40
0.00833333
 41
0.00833333
  0
VERTEX
  8
0
 10
6.74181
 20
8.91374
 30
0.0
 40
0.00833333
 41
0.00833333
  0
VERTEX
  8
0
 10
6.74794
 20
8.90267
 30
0.0
 40
0.00833333
 41
0.00833333
  0
VERTEX
  8
0
 10
6.74794
 20
8.89899
 30
0.0
 40
0.00833333
 41
0.00833333
  0
VERTEX
  8
0
 10
6.74794
 20
8.89535
 30
0.0
 40
0.00833333
 41
0.00833333
  0
VERTEX
  8
0
 10
6.74181
 20
8.88428
 30
0.0
 40
0.00833333
 41
0.00833333
  0
VERTEX
  8
0
 10
6.73074
 20
8.87815
 30
0.0
 40
0.00833333
 41
0.00833333
  0
VERTEX
  8
0
 10
6.72711
 20
8.87815
 30
0.0
 40
0.00833333
 41
0.00833333
  0
SEQEND
 8
0
  0
POLYLINE
  8
0
 62
     7
 66
     1
 10
0
 20
0
 30
0.0
 70
     1
 40
0
 41
0
  0
VERTEX
  8
0
 10
6.83524
 20
8.92524
 30
0.0
 40
0
 41
0
  0
VERTEX
  8
0
 10
6.98107
 20
8.92524
 30
0.0
 40
0
 41
0
  0
VERTEX
  8
0
 10
6.98107
 20
8.86274
 30
0.0
 40
0
 41
0
  0
VERTEX
  8
0
 10
6.83524
 20
8.86274
 30
0.0
 40
0
 41
0
  0
VERTEX
  8
0
 10
6.83524
 20
8.92524
 30
0.0
 40
0
 41
0
  0
SEQEND
 8
0
  0
POLYLINE
  8
0
 62
     0
 66
     1
 10
0
 20
0
 30
0.0
 70
     1
 40
0.75
 41
0.75
  0
VERTEX
  8
0
 10
6.83524
 20
8.92524
 30
0.0
 40
0.0104167
 41
0.0104167
  0
VERTEX
  8
0
 10
6.83524
 20
8.86274
 30
0.0
 40
0.0104167
 41
0.0104167
  0
VERTEX
  8
0
 10
6.98107
 20
8.86274
 30
0.0
 40
0.0104167
 41
0.0104167
  0
VERTEX
  8
0
 10
6.98107
 20
8.92524
 30
0.0
 40
0.0104167
 41
0.0104167
  0
VERTEX
  8
0
 10
6.83524
 20
8.92524
 30
0.0
 40
0.0104167
 41
0.0104167
  0
SEQEND
 8
0
  0
POLYLINE
  8
0
 62
     7
 66
     1
 10
0
 20
0
 30
0.0
 70
     1
 40
0
 41
0
  0
VERTEX
  8
0
 10
5.54081
 20
8.15668
 30
0.0
 40
0
 41
0
  0
VERTEX
  8
0
 10
6.12414
 20
8.15668
 30
0.0
 40
0
 41
0
  0
VERTEX
  8
0
 10
6.12414
 20
7.52251
 30
0.0
 40
0
 41
0
  0
VERTEX
  8
0
 10
5.54081
 20
7.52251
 30
0.0
 40
0
 41
0
  0
VERTEX
  8
0
 10
5.54081
 20
8.15668
 30
0.0
 40
0
 41
0
  0
SEQEND
 8
0
  0
POLYLINE
  8
0
 62
     0
 66
     1
 10
0
 20
0
 30
0.0
 70
     1
 40
0.75
 41
0.75
  0
VERTEX
  8
0
 10
5.54081
 20
8.15668
 30
0.0
 40
0.0104167
 41
0.0104167
  0
VERTEX
  8
0
 10
6.12414
 20
8.15668
 30
0.0
 40
0.0104167
 41
0.0104167
  0
VERTEX
  8
0
 10
6.12414
 20
7.52251
 30
0.0
 40
0.0104167
 41
0.0104167
  0
VERTEX
  8
0
 10
5.54081
 20
7.52251
 30
0.0
 40
0.0104167
 41
0.0104167
  0
VERTEX
  8
0
 10
5.54081
 20
8.15668
 30
0.0
 40
0.0104167
 41
0.0104167
  0
SEQEND
 8
0
  0
POLYLINE
  8
0
 62
     7
 66
     1
 10
0
 20
0
 30
0.0
 70
     1
 40
0
 41
0
  0
VERTEX
  8
0
 10
5.89497
 20
7.68235
 30
0.0
 40
0
 41
0
  0
VERTEX
  8
0
 10
5.89497
 20
7.69049
 30
0.0
 40
0
 41
0
  0
VERTEX
  8
0
 10
5.90147
 20
7.71485
 30
0.0
 40
0
 41
0
  0
VERTEX
  8
0
 10
5.91938
 20
7.74132
 30
0.0
 40
0
 41
0
  0
VERTEX
  8
0
 10
5.94586
 20
7.75917
 30
0.0
 40
0
 41
0
  0
VERTEX
  8
0
 10
5.97017
 20
7.76568
 30
0.0
 40
0
 41
0
  0
VERTEX
  8
0
 10
5.97831
 20
7.76568
 30
0.0
 40
0
 41
0
  0
VERTEX
  8
0
 10
5.98639
 20
7.76568
 30
0.0
 40
0
 41
0
  0
VERTEX
  8
0
 10
6.01069
 20
7.75917
 30
0.0
 40
0
 41
0
  0
VERTEX
  8
0
 10
6.03722
 20
7.74132
 30
0.0
 40
0
 41
0
  0
VERTEX
  8
0
 10
6.05507
 20
7.71485
 30
0.0
 40
0
 41
0
  0
VERTEX
  8
0
 10
6.06164
 20
7.69049
 30
0.0
 40
0
 41
0
  0
VERTEX
  8
0
 10
6.06164
 20
7.68235
 30
0.0
 40
0
 41
0
  0
VERTEX
  8
0
 10
6.06164
 20
7.67426
 30
0.0
 40
0
 41
0
  0
VERTEX
  8
0
 10
6.05507
 20
7.64996
 30
0.0
 40
0
 41
0
  0
VERTEX
  8
0
 10
6.03722
 20
7.62343
 30
0.0
 40
0
 41
0
  0
VERTEX
  8
0
 10
6.01069
 20
7.60558
 30
0.0
 40
0
 41
0
  0
VERTEX
  8
0
 10
5.98639
 20
7.59901
 30
0.0
 40
0
 41
0
  0
VERTEX
  8
0
 10
5.97831
 20
7.59901
 30
0.0
 40
0
 41
0
  0
VERTEX
  8
0
 10
5.97017
 20
7.59901
 30
0.0
 40
0
 41
0
  0
VERTEX
  8
0
 10
5.94586
 20
7.60558
 30
0.0
 40
0
 41
0
  0
VERTEX
  8
0
 10
5.91938
 20
7.62343
 30
0.0
 40
0
 41
0
  0
VERTEX
  8
0
 10
5.90147
 20
7.64996
 30
0.0
 40
0
 41
0
  0
VERTEX
  8
0
 10
5.89497
 20
7.67426
 30
0.0
 40
0
 41
0
  0
VERTEX
  8
0
 10
5.89497
 20
7.68235
 30
0.0
 40
0
 41
0
  0
SEQEND
 8
0
  0
POLYLINE
  8
0
 62
     0
 66
     1
 10
0
 20
0
 30
0.0
 70
     1
 40
0.75
 41
0.75
  0
VERTEX
  8
0
 10
5.89497
 20
7.68235
 30
0.0
 40
0.0104167
 41
0.0104167
  0
VERTEX
  8
0
 10
5.89497
 20
7.69049
 30
0.0
 40
0.0104167
 41
0.0104167
  0
VERTEX
  8
0
 10
5.90147
 20
7.71485
 30
0.0
 40
0.0104167
 41
0.0104167
  0
VERTEX
  8
0
 10
5.91938
 20
7.74132
 30
0.0
 40
0.0104167
 41
0.0104167
  0
VERTEX
  8
0
 10
5.94586
 20
7.75917
 30
0.0
 40
0.0104167
 41
0.0104167
  0
VERTEX
  8
0
 10
5.97017
 20
7.76568
 30
0.0
 40
0.0104167
 41
0.0104167
  0
VERTEX
  8
0
 10
5.97831
 20
7.76568
 30
0.0
 40
0.0104167
 41
0.0104167
  0
VERTEX
  8
0
 10
5.98639
 20
7.76568
 30
0.0
 40
0.0104167
 41
0.0104167
  0
VERTEX
  8
0
 10
6.01069
 20
7.75917
 30
0.0
 40
0.0104167
 41
0.0104167
  0
VERTEX
  8
0
 10
6.03722
 20
7.74132
 30
0.0
 40
0.0104167
 41
0.0104167
  0
VERTEX
  8
0
 10
6.05507
 20
7.71485
 30
0.0
 40
0.0104167
 41
0.0104167
  0
VERTEX
  8
0
 10
6.06164
 20
7.69049
 30
0.0
 40
0.0104167
 41
0.0104167
  0
VERTEX
  8
0
 10
6.06164
 20
7.68235
 30
0.0
 40
0.0104167
 41
0.0104167
  0
VERTEX
  8
0
 10
6.06164
 20
7.67426
 30
0.0
 40
0.0104167
 41
0.0104167
  0
VERTEX
  8
0
 10
6.05507
 20
7.64996
 30
0.0
 40
0.0104167
 41
0.0104167
  0
VERTEX
  8
0
 10
6.03722
 20
7.62343
 30
0.0
 40
0.0104167
 41
0.0104167
  0
VERTEX
  8
0
 10
6.01069
 20
7.60558
 30
0.0
 40
0.0104167
 41
0.0104167
  0
VERTEX
  8
0
 10
5.98639
 20
7.59901
 30
0.0
 40
0.0104167
 41
0.0104167
  0
VERTEX
  8
0
 10
5.97831
 20
7.59901
 30
0.0
 40
0.0104167
 41
0.0104167
  0
VERTEX
  8
0
 10
5.97017
 20
7.59901
 30
0.0
 40
0.0104167
 41
0.0104167
  0
VERTEX
  8
0
 10
5.94586
 20
7.60558
 30
0.0
 40
0.0104167
 41
0.0104167
  0
VERTEX
  8
0
 10
5.91938
 20
7.62343
 30
0.0
 40
0.0104167
 41
0.0104167
  0
VERTEX
  8
0
 10
5.90147
 20
7.64996
 30
0.0
 40
0.0104167
 41
0.0104167
  0
VERTEX
  8
0
 10
5.89497
 20
7.67426
 30
0.0
 40
0.0104167
 41
0.0104167
  0
VERTEX
  8
0
 10
5.89497
 20
7.68235
 30
0.0
 40
0.0104167
 41
0.0104167
  0
SEQEND
 8
0
  0
POLYLINE
  8
0
 62
     7
 66
     1
 10
0
 20
0
 30
0.0
 70
     1
 40
0
 41
0
  0
VERTEX
  8
0
 10
5.60331
 20
7.68235
 30
0.0
 40
0
 41
0
  0
VERTEX
  8
0
 10
5.60331
 20
7.69049
 30
0.0
 40
0
 41
0
  0
VERTEX
  8
0
 10
5.60981
 20
7.71485
 30
0.0
 40
0
 41
0
  0
VERTEX
  8
0
 10
5.62771
 20
7.74132
 30
0.0
 40
0
 41
0
  0
VERTEX
  8
0
 10
5.65419
 20
7.75917
 30
0.0
 40
0
 41
0
  0
VERTEX
  8
0
 10
5.6785
 20
7.76568
 30
0.0
 40
0
 41
0
  0
VERTEX
  8
0
 10
5.68664
 20
7.76568
 30
0.0
 40
0
 41
0
  0
VERTEX
  8
0
 10
5.69472
 20
7.76568
 30
0.0
 40
0
 41
0
  0
VERTEX
  8
0
 10
5.71903
 20
7.75917
 30
0.0
 40
0
 41
0
  0
VERTEX
  8
0
 10
5.74556
 20
7.74132
 30
0.0
 40
0
 41
0
  0
VERTEX
  8
0
 10
5.7634
 20
7.71485
 30
0.0
 40
0
 41
0
  0
VERTEX
  8
0
 10
5.76997
 20
7.69049
 30
0.0
 40
0
 41
0
  0
VERTEX
  8
0
 10
5.76997
 20
7.68235
 30
0.0
 40
0
 41
0
  0
VERTEX
  8
0
 10
5.76997
 20
7.67426
 30
0.0
 40
0
 41
0
  0
VERTEX
  8
0
 10
5.7634
 20
7.64996
 30
0.0
 40
0
 41
0
  0
VERTEX
  8
0
 10
5.74556
 20
7.62343
 30
0.0
 40
0
 41
0
  0
VERTEX
  8
0
 10
5.71903
 20
7.60558
 30
0.0
 40
0
 41
0
  0
VERTEX
  8
0
 10
5.69472
 20
7.59901
 30
0.0
 40
0
 41
0
  0
VERTEX
  8
0
 10
5.68664
 20
7.59901
 30
0.0
 40
0
 41
0
  0
VERTEX
  8
0
 10
5.6785
 20
7.59901
 30
0.0
 40
0
 41
0
  0
VERTEX
  8
0
 10
5.65419
 20
7.60558
 30
0.0
 40
0
 41
0
  0
VERTEX
  8
0
 10
5.62771
 20
7.62343
 30
0.0
 40
0
 41
0
  0
VERTEX
  8
0
 10
5.60981
 20
7.64996
 30
0.0
 40
0
 41
0
  0
VERTEX
  8
0
 10
5.60331
 20
7.67426
 30
0.0
 40
0
 41
0
  0
VERTEX
  8
0
 10
5.60331
 20
7.68235
 30
0.0
 40
0
 41
0
  0
SEQEND
 8
0
  0
POLYLINE
  8
0
 62
     0
 66
     1
 10
0
 20
0
 30
0.0
 70
     1
 40
0.75
 41
0.75
  0
VERTEX
  8
0
 10
5.60331
 20
7.68235
 30
0.0
 40
0.0104167
 41
0.0104167
  0
VERTEX
  8
0
 10
5.60331
 20
7.69049
 30
0.0
 40
0.0104167
 41
0.0104167
  0
VERTEX
  8
0
 10
5.60981
 20
7.71485
 30
0.0
 40
0.0104167
 41
0.0104167
  0
VERTEX
  8
0
 10
5.62771
 20
7.74132
 30
0.0
 40
0.0104167
 41
0.0104167
  0
VERTEX
  8
0
 10
5.65419
 20
7.75917
 30
0.0
 40
0.0104167
 41
0.0104167
  0
VERTEX
  8
0
 10
5.6785
 20
7.76568
 30
0.0
 40
0.0104167
 41
0.0104167
  0
VERTEX
  8
0
 10
5.68664
 20
7.76568
 30
0.0
 40
0.0104167
 41
0.0104167
  0
VERTEX
  8
0
 10
5.69472
 20
7.76568
 30
0.0
 40
0.0104167
 41
0.0104167
  0
VERTEX
  8
0
 10
5.71903
 20
7.75917
 30
0.0
 40
0.0104167
 41
0.0104167
  0
VERTEX
  8
0
 10
5.74556
 20
7.74132
 30
0.0
 40
0.0104167
 41
0.0104167
  0
VERTEX
  8
0
 10
5.7634
 20
7.71485
 30
0.0
 40
0.0104167
 41
0.0104167
  0
VERTEX
  8
0
 10
5.76997
 20
7.69049
 30
0.0
 40
0.0104167
 41
0.0104167
  0
VERTEX
  8
0
 10
5.76997
 20
7.68235
 30
0.0
 40
0.0104167
 41
0.0104167
  0
VERTEX
  8
0
 10
5.76997
 20
7.67426
 30
0.0
 40
0.0104167
 41
0.0104167
  0
VERTEX
  8
0
 10
5.7634
 20
7.64996
 30
0.0
 40
0.0104167
 41
0.0104167
  0
VERTEX
  8
0
 10
5.74556
 20
7.62343
 30
0.0
 40
0.0104167
 41
0.0104167
  0
VERTEX
  8
0
 10
5.71903
 20
7.60558
 30
0.0
 40
0.0104167
 41
0.0104167
  0
VERTEX
  8
0
 10
5.69472
 20
7.59901
 30
0.0
 40
0.0104167
 41
0.0104167
  0
VERTEX
  8
0
 10
5.68664
 20
7.59901
 30
0.0
 40
0.0104167
 41
0.0104167
  0
VERTEX
  8
0
 10
5.6785
 20
7.59901
 30
0.0
 40
0.0104167
 41
0.0104167
  0
VERTEX
  8
0
 10
5.65419
 20
7.60558
 30
0.0
 40
0.0104167
 41
0.0104167
  0
VERTEX
  8
0
 10
5.62771
 20
7.62343
 30
0.0
 40
0.0104167
 41
0.0104167
  0
VERTEX
  8
0
 10
5.60981
 20
7.64996
 30
0.0
 40
0.0104167
 41
0.0104167
  0
VERTEX
  8
0
 10
5.60331
 20
7.67426
 30
0.0
 40
0.0104167
 41
0.0104167
  0
VERTEX
  8
0
 10
5.60331
 20
7.68235
 30
0.0
 40
0.0104167
 41
0.0104167
  0
SEQEND
 8
0
  0
POLYLINE
  8
0
 62
     7
 66
     1
 10
0
 20
0
 30
0.0
 70
     1
 40
0
 41
0
  0
VERTEX
  8
0
 10
5.89497
 20
7.99854
 30
0.0
 40
0
 41
0
  0
VERTEX
  8
0
 10
5.89497
 20
8.00667
 30
0.0
 40
0
 41
0
  0
VERTEX
  8
0
 10
5.90147
 20
8.03103
 30
0.0
 40
0
 41
0
  0
VERTEX
  8
0
 10
5.91938
 20
8.05751
 30
0.0
 40
0
 41
0
  0
VERTEX
  8
0
 10
5.94586
 20
8.07536
 30
0.0
 40
0
 41
0
  0
VERTEX
  8
0
 10
5.97017
 20
8.08188
 30
0.0
 40
0
 41
0
  0
VERTEX
  8
0
 10
5.97831
 20
8.08188
 30
0.0
 40
0
 41
0
  0
VERTEX
  8
0
 10
5.98639
 20
8.08188
 30
0.0
 40
0
 41
0
  0
VERTEX
  8
0
 10
6.01069
 20
8.07536
 30
0.0
 40
0
 41
0
  0
VERTEX
  8
0
 10
6.03722
 20
8.05751
 30
0.0
 40
0
 41
0
  0
VERTEX
  8
0
 10
6.05507
 20
8.03103
 30
0.0
 40
0
 41
0
  0
VERTEX
  8
0
 10
6.06164
 20
8.00667
 30
0.0
 40
0
 41
0
  0
VERTEX
  8
0
 10
6.06164
 20
7.99854
 30
0.0
 40
0
 41
0
  0
VERTEX
  8
0
 10
6.06164
 20
7.99046
 30
0.0
 40
0
 41
0
  0
VERTEX
  8
0
 10
6.05507
 20
7.96615
 30
0.0
 40
0
 41
0
  0
VERTEX
  8
0
 10
6.03722
 20
7.93961
 30
0.0
 40
0
 41
0
  0
VERTEX
  8
0
 10
6.01069
 20
7.92176
 30
0.0
 40
0
 41
0
  0
VERTEX
  8
0
 10
5.98639
 20
7.91521
 30
0.0
 40
0
 41
0
  0
VERTEX
  8
0
 10
5.97831
 20
7.91521
 30
0.0
 40
0
 41
0
  0
VERTEX
  8
0
 10
5.97017
 20
7.91521
 30
0.0
 40
0
 41
0
  0
VERTEX
  8
0
 10
5.94586
 20
7.92176
 30
0.0
 40
0
 41
0
  0
VERTEX
  8
0
 10
5.91938
 20
7.93961
 30
0.0
 40
0
 41
0
  0
VERTEX
  8
0
 10
5.90147
 20
7.96615
 30
0.0
 40
0
 41
0
  0
VERTEX
  8
0
 10
5.89497
 20
7.99046
 30
0.0
 40
0
 41
0
  0
VERTEX
  8
0
 10
5.89497
 20
7.99854
 30
0.0
 40
0
 41
0
  0
SEQEND
 8
0
  0
POLYLINE
  8
0
 62
     0
 66
     1
 10
0
 20
0
 30
0.0
 70
     1
 40
0.75
 41
0.75
  0
VERTEX
  8
0
 10
5.89497
 20
7.99854
 30
0.0
 40
0.0104167
 41
0.0104167
  0
VERTEX
  8
0
 10
5.89497
 20
8.00667
 30
0.0
 40
0.0104167
 41
0.0104167
  0
VERTEX
  8
0
 10
5.90147
 20
8.03103
 30
0.0
 40
0.0104167
 41
0.0104167
  0
VERTEX
  8
0
 10
5.91938
 20
8.05751
 30
0.0
 40
0.0104167
 41
0.0104167
  0
VERTEX
  8
0
 10
5.94586
 20
8.07536
 30
0.0
 40
0.0104167
 41
0.0104167
  0
VERTEX
  8
0
 10
5.97017
 20
8.08188
 30
0.0
 40
0.0104167
 41
0.0104167
  0
VERTEX
  8
0
 10
5.97831
 20
8.08188
 30
0.0
 40
0.0104167
 41
0.0104167
  0
VERTEX
  8
0
 10
5.98639
 20
8.08188
 30
0.0
 40
0.0104167
 41
0.0104167
  0
VERTEX
  8
0
 10
6.01069
 20
8.07536
 30
0.0
 40
0.0104167
 41
0.0104167
  0
VERTEX
  8
0
 10
6.03722
 20
8.05751
 30
0.0
 40
0.0104167
 41
0.0104167
  0
VERTEX
  8
0
 10
6.05507
 20
8.03103
 30
0.0
 40
0.0104167
 41
0.0104167
  0
VERTEX
  8
0
 10
6.06164
 20
8.00667
 30
0.0
 40
0.0104167
 41
0.0104167
  0
VERTEX
  8
0
 10
6.06164
 20
7.99854
 30
0.0
 40
0.0104167
 41
0.0104167
  0
VERTEX
  8
0
 10
6.06164
 20
7.99046
 30
0.0
 40
0.0104167
 41
0.0104167
  0
VERTEX
  8
0
 10
6.05507
 20
7.96615
 30
0.0
 40
0.0104167
 41
0.0104167
  0
VERTEX
  8
0
 10
6.03722
 20
7.93961
 30
0.0
 40
0.0104167
 41
0.0104167
  0
VERTEX
  8
0
 10
6.01069
 20
7.92176
 30
0.0
 40
0.0104167
 41
0.0104167
  0
VERTEX
  8
0
 10
5.98639
 20
7.91521
 30
0.0
 40
0.0104167
 41
0.0104167
  0
VERTEX
  8
0
 10
5.97831
 20
7.91521
 30
0.0
 40
0.0104167
 41
0.0104167
  0
VERTEX
  8
0
 10
5.97017
 20
7.91521
 30
0.0
 40
0.0104167
 41
0.0104167
  0
VERTEX
  8
0
 10
5.94586
 20
7.92176
 30
0.0
 40
0.0104167
 41
0.0104167
  0
VERTEX
  8
0
 10
5.91938
 20
7.93961
 30
0.0
 40
0.0104167
 41
0.0104167
  0
VERTEX
  8
0
 10
5.90147
 20
7.96615
 30
0.0
 40
0.0104167
 41
0.0104167
  0
VERTEX
  8
0
 10
5.89497
 20
7.99046
 30
0.0
 40
0.0104167
 41
0.0104167
  0
VERTEX
  8
0
 10
5.89497
 20
7.99854
 30
0.0
 40
0.0104167
 41
0.0104167
  0
SEQEND
 8
0
  0
POLYLINE
  8
0
 62
     7
 66
     1
 10
0
 20
0
 30
0.0
 70
     1
 40
0
 41
0
  0
VERTEX
  8
0
 10
5.60331
 20
7.99854
 30
0.0
 40
0
 41
0
  0
VERTEX
  8
0
 10
5.60331
 20
8.00667
 30
0.0
 40
0
 41
0
  0
VERTEX
  8
0
 10
5.60981
 20
8.03103
 30
0.0
 40
0
 41
0
  0
VERTEX
  8
0
 10
5.62771
 20
8.05751
 30
0.0
 40
0
 41
0
  0
VERTEX
  8
0
 10
5.65419
 20
8.07536
 30
0.0
 40
0
 41
0
  0
VERTEX
  8
0
 10
5.6785
 20
8.08188
 30
0.0
 40
0
 41
0
  0
VERTEX
  8
0
 10
5.68664
 20
8.08188
 30
0.0
 40
0
 41
0
  0
VERTEX
  8
0
 10
5.69472
 20
8.08188
 30
0.0
 40
0
 41
0
  0
VERTEX
  8
0
 10
5.71903
 20
8.07536
 30
0.0
 40
0
 41
0
  0
VERTEX
  8
0
 10
5.74556
 20
8.05751
 30
0.0
 40
0
 41
0
  0
VERTEX
  8
0
 10
5.7634
 20
8.03103
 30
0.0
 40
0
 41
0
  0
VERTEX
  8
0
 10
5.76997
 20
8.00667
 30
0.0
 40
0
 41
0
  0
VERTEX
  8
0
 10
5.76997
 20
7.99854
 30
0.0
 40
0
 41
0
  0
VERTEX
  8
0
 10
5.76997
 20
7.99046
 30
0.0
 40
0
 41
0
  0
VERTEX
  8
0
 10
5.7634
 20
7.96615
 30
0.0
 40
0
 41
0
  0
VERTEX
  8
0
 10
5.74556
 20
7.93961
 30
0.0
 40
0
 41
0
  0
VERTEX
  8
0
 10
5.71903
 20
7.92176
 30
0.0
 40
0
 41
0
  0
VERTEX
  8
0
 10
5.69472
 20
7.91521
 30
0.0
 40
0
 41
0
  0
VERTEX
  8
0
 10
5.68664
 20
7.91521
 30
0.0
 40
0
 41
0
  0
VERTEX
  8
0
 10
5.6785
 20
7.91521
 30
0.0
 40
0
 41
0
  0
VERTEX
  8
0
 10
5.65419
 20
7.92176
 30
0.0
 40
0
 41
0
  0
VERTEX
  8
0
 10
5.62771
 20
7.93961
 30
0.0
 40
0
 41
0
  0
VERTEX
  8
0
 10
5.60981
 20
7.96615
 30
0.0
 40
0
 41
0
  0
VERTEX
  8
0
 10
5.60331
 20
7.99046
 30
0.0
 40
0
 41
0
  0
VERTEX
  8
0
 10
5.60331
 20
7.99854
 30
0.0
 40
0
 41
0
  0
SEQEND
 8
0
  0
POLYLINE
  8
0
 62
     0
 66
     1
 10
0
 20
0
 30
0.0
 70
     1
 40
0.75
 41
0.75
  0
VERTEX
  8
0
 10
5.60331
 20
7.99854
 30
0.0
 40
0.0104167
 41
0.0104167
  0
VERTEX
  8
0
 10
5.60331
 20
8.00667
 30
0.0
 40
0.0104167
 41
0.0104167
  0
VERTEX
  8
0
 10
5.60981
 20
8.03103
 30
0.0
 40
0.0104167
 41
0.0104167
  0
VERTEX
  8
0
 10
5.62771
 20
8.05751
 30
0.0
 40
0.0104167
 41
0.0104167
  0
VERTEX
  8
0
 10
5.65419
 20
8.07536
 30
0.0
 40
0.0104167
 41
0.0104167
  0
VERTEX
  8
0
 10
5.6785
 20
8.08188
 30
0.0
 40
0.0104167
 41
0.0104167
  0
VERTEX
  8
0
 10
5.68664
 20
8.08188
 30
0.0
 40
0.0104167
 41
0.0104167
  0
VERTEX
  8
0
 10
5.69472
 20
8.08188
 30
0.0
 40
0.0104167
 41
0.0104167
  0
VERTEX
  8
0
 10
5.71903
 20
8.07536
 30
0.0
 40
0.0104167
 41
0.0104167
  0
VERTEX
  8
0
 10
5.74556
 20
8.05751
 30
0.0
 40
0.0104167
 41
0.0104167
  0
VERTEX
  8
0
 10
5.7634
 20
8.03103
 30
0.0
 40
0.0104167
 41
0.0104167
  0
VERTEX
  8
0
 10
5.76997
 20
8.00667
 30
0.0
 40
0.0104167
 41
0.0104167
  0
VERTEX
  8
0
 10
5.76997
 20
7.99854
 30
0.0
 40
0.0104167
 41
0.0104167
  0
VERTEX
  8
0
 10
5.76997
 20
7.99046
 30
0.0
 40
0.0104167
 41
0.0104167
  0
VERTEX
  8
0
 10
5.7634
 20
7.96615
 30
0.0
 40
0.0104167
 41
0.0104167
  0
VERTEX
  8
0
 10
5.74556
 20
7.93961
 30
0.0
 40
0.0104167
 41
0.0104167
  0
VERTEX
  8
0
 10
5.71903
 20
7.92176
 30
0.0
 40
0.0104167
 41
0.0104167
  0
VERTEX
  8
0
 10
5.69472
 20
7.91521
 30
0.0
 40
0.0104167
 41
0.0104167
  0
VERTEX
  8
0
 10
5.68664
 20
7.91521
 30
0.0
 40
0.0104167
 41
0.0104167
  0
VERTEX
  8
0
 10
5.6785
 20
7.91521
 30
0.0
 40
0.0104167
 41
0.0104167
  0
VERTEX
  8
0
 10
5.65419
 20
7.92176
 30
0.0
 40
0.0104167
 41
0.0104167
  0
VERTEX
  8
0
 10
5.62771
 20
7.93961
 30
0.0
 40
0.0104167
 41
0.0104167
  0
VERTEX
  8
0
 10
5.60981
 20
7.96615
 30
0.0
 40
0.0104167
 41
0.0104167
  0
VERTEX
  8
0
 10
5.60331
 20
7.99046
 30
0.0
 40
0.0104167
 41
0.0104167
  0
VERTEX
  8
0
 10
5.60331
 20
7.99854
 30
0.0
 40
0.0104167
 41
0.0104167
  0
SEQEND
 8
0
  0
POLYLINE
  8
0
 62
     7
 66
     1
 10
0
 20
0
 30
0.0
 70
     1
 40
0
 41
0
  0
VERTEX
  8
0
 10
6.42919
 20
10.8191
 30
0.0
 40
0
 41
0
  0
VERTEX
  8
0
 10
7.07747
 20
10.8191
 30
0.0
 40
0
 41
0
  0
VERTEX
  8
0
 10
7.07747
 20
10.1473
 30
0.0
 40
0
 41
0
  0
VERTEX
  8
0
 10
6.42919
 20
10.1473
 30
0.0
 40
0
 41
0
  0
VERTEX
  8
0
 10
6.42919
 20
10.8191
 30
0.0
 40
0
 41
0
  0
SEQEND
 8
0
  0
POLYLINE
  8
0
 62
     0
 66
     1
 10
0
 20
0
 30
0.0
 70
     1
 40
0.8061
 41
0.8061
  0
VERTEX
  8
0
 10
6.42919
 20
10.8191
 30
0.0
 40
0.0111958
 41
0.0111958
  0
VERTEX
  8
0
 10
6.42919
 20
10.1473
 30
0.0
 40
0.0111958
 41
0.0111958
  0
VERTEX
  8
0
 10
7.07747
 20
10.1473
 30
0.0
 40
0.0111958
 41
0.0111958
  0
VERTEX
  8
0
 10
7.07747
 20
10.8191
 30
0.0
 40
0.0111958
 41
0.0111958
  0
VERTEX
  8
0
 10
6.42919
 20
10.8191
 30
0.0
 40
0.0111958
 41
0.0111958
  0
SEQEND
 8
0
  0
POLYLINE
  8
0
 62
     0
 66
     1
 10
0
 20
0
 30
0.0
 40
0.8061
 41
0.8061
  0
VERTEX
  8
0
 10
7.07747
 20
10.8191
 30
0.0
 40
0.0111958
 41
0.0111958
  0
VERTEX
  8
0
 10
6.67665
 20
10.4832
 30
0.0
 40
0.0111958
 41
0.0111958
  0
VERTEX
  8
0
 10
6.8711
 20
10.4832
 30
0.0
 40
0.0111958
 41
0.0111958
  0
VERTEX
  8
0
 10
6.46918
 20
10.1473
 30
0.0
 40
0.0111958
 41
0.0111958
  0
SEQEND
 8
0
  0
POLYLINE
  8
0
 62
     7
 66
     1
 10
0
 20
0
 30
0.0
 70
     1
 40
0
 41
0
  0
VERTEX
  8
0
 10
6.42919
 20
10.8191
 30
0.0
 40
0
 41
0
  0
VERTEX
  8
0
 10
6.47239
 20
10.8191
 30
0.0
 40
0
 41
0
  0
VERTEX
  8
0
 10
6.47239
 20
10.1473
 30
0.0
 40
0
 41
0
  0
VERTEX
  8
0
 10
6.42919
 20
10.1473
 30
0.0
 40
0
 41
0
  0
VERTEX
  8
0
 10
6.42919
 20
10.8191
 30
0.0
 40
0
 41
0
  0
SEQEND
 8
0
  0
POLYLINE
  8
0
 62
     0
 66
     1
 10
0
 20
0
 30
0.0
 70
     1
 40
0.8061
 41
0.8061
  0
VERTEX
  8
0
 10
6.42919
 20
10.8191
 30
0.0
 40
0.0111958
 41
0.0111958
  0
VERTEX
  8
0
 10
6.42919
 20
10.1473
 30
0.0
 40
0.0111958
 41
0.0111958
  0
VERTEX
  8
0
 10
6.47239
 20
10.1473
 30
0.0
 40
0.0111958
 41
0.0111958
  0
VERTEX
  8
0
 10
6.47239
 20
10.8191
 30
0.0
 40
0.0111958
 41
0.0111958
  0
VERTEX
  8
0
 10
6.42919
 20
10.8191
 30
0.0
 40
0.0111958
 41
0.0111958
  0
SEQEND
 8
0
  0
POLYLINE
  8
0
 62
     0
 66
     1
 10
0
 20
0
 30
0.0
 70
     1
 40
0.75
 41
0.75
  0
VERTEX
  8
0
 10
5.32215
 20
7.84
 30
0.0
 40
0.0104167
 41
0.0104167
  0
VERTEX
  8
0
 10
6.5855
 20
7.84
 30
0.0
 40
0.0104167
 41
0.0104167
  0
VERTEX
  8
0
 10
6.74946
 20
8.08458
 30
0.0
 40
0.0104167
 41
0.0104167
  0
VERTEX
  8
0
 10
6.74946
 20
10.1472
 30
0.0
 40
0.0104167
 41
0.0104167
  0
VERTEX
  8
0
 10
7.07747
 20
10.1473
 30
0.0
 40
0.0104167
 41
0.0104167
  0
VERTEX
  8
0
 10
7.07747
 20
7.52175
 30
0.0
 40
0.0104167
 41
0.0104167
  0
VERTEX
  8
0
 10
5.31646
 20
7.52072
 30
0.0
 40
0.0104167
 41
0.0104167
  0
VERTEX
  8
0
 10
5.32215
 20
7.84
 30
0.0
 40
0.0104167
 41
0.0104167
  0
SEQEND
 8
0
  0
POLYLINE
  8
0
 62
     7
 66
     1
 10
0
 20
0
 30
0.0
 70
     1
 40
0
 41
0
  0
VERTEX
  8
0
 10
7.1716
 20
6.118
 30
0.0
 40
0
 41
0
  0
VERTEX
  8
0
 10
7.7966
 20
6.118
 30
0.0
 40
0
 41
0
  0
VERTEX
  8
0
 10
7.7966
 20
5.493
 30
0.0
 40
0
 41
0
  0
VERTEX
  8
0
 10
7.1716
 20
5.493
 30
0.0
 40
0
 41
0
  0
VERTEX
  8
0
 10
7.1716
 20
6.118
 30
0.0
 40
0
 41
0
  0
SEQEND
 8
0
  0
POLYLINE
  8
0
 62
     0
 66
     1
 10
0
 20
0
 30
0.0
 70
     1
 40
0.75
 41
0.75
  0
VERTEX
  8
0
 10
7.1716
 20
6.118
 30
0.0
 40
0.0104167
 41
0.0104167
  0
VERTEX
  8
0
 10
7.7966
 20
6.118
 30
0.0
 40
0.0104167
 41
0.0104167
  0
VERTEX
  8
0
 10
7.7966
 20
5.493
 30
0.0
 40
0.0104167
 41
0.0104167
  0
VERTEX
  8
0
 10
7.1716
 20
5.493
 30
0.0
 40
0.0104167
 41
0.0104167
  0
VERTEX
  8
0
 10
7.1716
 20
6.118
 30
0.0
 40
0.0104167
 41
0.0104167
  0
SEQEND
 8
0
  0
POLYLINE
  8
0
 62
     0
 66
     1
 10
0
 20
0
 30
0.0
 40
0.75
 41
0.75
  0
VERTEX
  8
0
 10
7.7966
 20
5.493
 30
0.0
 40
0.0104167
 41
0.0104167
  0
VERTEX
  8
0
 10
7.4841
 20
5.92008
 30
0.0
 40
0.0104167
 41
0.0104167
  0
VERTEX
  8
0
 10
7.4841
 20
5.70964
 30
0.0
 40
0.0104167
 41
0.0104167
  0
VERTEX
  8
0
 10
7.1716
 20
6.118
 30
0.0
 40
0.0104167
 41
0.0104167
  0
SEQEND
 8
0
  0
POLYLINE
  8
0
 62
     0
 66
     1
 10
0
 20
0
 30
0.0
 40
0.75
 41
0.75
  0
VERTEX
  8
0
 10
7.76844
 20
6.11171
 30
0.0
 40
0.0104167
 41
0.0104167
  0
VERTEX
  8
0
 10
7.19971
 20
6.11171
 30
0.0
 40
0.0104167
 41
0.0104167
  0
SEQEND
 8
0
  0
POLYLINE
  8
0
 62
     7
 66
     1
 10
0
 20
0
 30
0.0
 70
     1
 40
0
 41
0
  0
VERTEX
  8
0
 10
8.37989
 20
6.118
 30
0.0
 40
0
 41
0
  0
VERTEX
  8
0
 10
8.96311
 20
6.118
 30
0.0
 40
0
 41
0
  0
VERTEX
  8
0
 10
8.96311
 20
5.493
 30
0.0
 40
0
 41
0
  0
VERTEX
  8
0
 10
8.37989
 20
5.493
 30
0.0
 40
0
 41
0
  0
VERTEX
  8
0
 10
8.37989
 20
6.118
 30
0.0
 40
0
 41
0
  0
SEQEND
 8
0
  0
POLYLINE
  8
0
 62
     0
 66
     1
 10
0
 20
0
 30
0.0
 70
     1
 40
0.75
 41
0.75
  0
VERTEX
  8
0
 10
8.37989
 20
6.118
 30
0.0
 40
0.0104167
 41
0.0104167
  0
VERTEX
  8
0
 10
8.96311
 20
6.118
 30
0.0
 40
0.0104167
 41
0.0104167
  0
VERTEX
  8
0
 10
8.96311
 20
5.493
 30
0.0
 40
0.0104167
 41
0.0104167
  0
VERTEX
  8
0
 10
8.37989
 20
5.493
 30
0.0
 40
0.0104167
 41
0.0104167
  0
VERTEX
  8
0
 10
8.37989
 20
6.118
 30
0.0
 40
0.0104167
 41
0.0104167
  0
SEQEND
 8
0
  0
POLYLINE
  8
0
 62
     7
 66
     1
 10
0
 20
0
 30
0.0
 70
     1
 40
0
 41
0
  0
VERTEX
  8
0
 10
7.7966
 20
6.118
 30
0.0
 40
0
 41
0
  0
VERTEX
  8
0
 10
8.37983
 20
6.118
 30
0.0
 40
0
 41
0
  0
VERTEX
  8
0
 10
8.37983
 20
5.493
 30
0.0
 40
0
 41
0
  0
VERTEX
  8
0
 10
7.7966
 20
5.493
 30
0.0
 40
0
 41
0
  0
VERTEX
  8
0
 10
7.7966
 20
6.118
 30
0.0
 40
0
 41
0
  0
SEQEND
 8
0
  0
POLYLINE
  8
0
 62
     0
 66
     1
 10
0
 20
0
 30
0.0
 70
     1
 40
0.75
 41
0.75
  0
VERTEX
  8
0
 10
7.7966
 20
6.118
 30
0.0
 40
0.0104167
 41
0.0104167
  0
VERTEX
  8
0
 10
8.37983
 20
6.118
 30
0.0
 40
0.0104167
 41
0.0104167
  0
VERTEX
  8
0
 10
8.37983
 20
5.493
 30
0.0
 40
0.0104167
 41
0.0104167
  0
VERTEX
  8
0
 10
7.7966
 20
5.493
 30
0.0
 40
0.0104167
 41
0.0104167
  0
VERTEX
  8
0
 10
7.7966
 20
6.118
 30
0.0
 40
0.0104167
 41
0.0104167
  0
SEQEND
 8
0
  0
POLYLINE
  8
0
 62
     7
 66
     1
 10
0
 20
0
 30
0.0
 70
     1
 40
0
 41
0
  0
VERTEX
  8
0
 10
8.54465
 20
7.33757
 30
0.0
 40
0
 41
0
  0
VERTEX
  8
0
 10
8.97586
 20
7.33757
 30
0.0
 40
0
 41
0
  0
VERTEX
  8
0
 10
8.97586
 20
6.71257
 30
0.0
 40
0
 41
0
  0
VERTEX
  8
0
 10
8.54465
 20
6.71257
 30
0.0
 40
0
 41
0
  0
VERTEX
  8
0
 10
8.54465
 20
7.33757
 30
0.0
 40
0
 41
0
  0
SEQEND
 8
0
  0
POLYLINE
  8
0
 62
     0
 66
     1
 10
0
 20
0
 30
0.0
 70
     1
 40
0.75
 41
0.75
  0
VERTEX
  8
0
 10
8.54465
 20
7.33757
 30
0.0
 40
0.0104167
 41
0.0104167
  0
VERTEX
  8
0
 10
8.54465
 20
6.71257
 30
0.0
 40
0.0104167
 41
0.0104167
  0
VERTEX
  8
0
 10
8.97586
 20
6.71257
 30
0.0
 40
0.0104167
 41
0.0104167
  0
VERTEX
  8
0
 10
8.97586
 20
7.33757
 30
0.0
 40
0.0104167
 41
0.0104167
  0
VERTEX
  8
0
 10
8.54465
 20
7.33757
 30
0.0
 40
0.0104167
 41
0.0104167
  0
SEQEND
 8
0
  0
POLYLINE
  8
0
 62
     7
 66
     1
 10
0
 20
0
 30
0.0
 70
     1
 40
0
 41
0
  0
VERTEX
  8
0
 10
8.58274
 20
7.28549
 30
0.0
 40
0
 41
0
  0
VERTEX
  8
0
 10
8.87483
 20
7.28549
 30
0.0
 40
0
 41
0
  0
VERTEX
  8
0
 10
8.87483
 20
6.76465
 30
0.0
 40
0
 41
0
  0
VERTEX
  8
0
 10
8.58274
 20
6.76465
 30
0.0
 40
0
 41
0
  0
VERTEX
  8
0
 10
8.58274
 20
7.28549
 30
0.0
 40
0
 41
0
  0
SEQEND
 8
0
  0
POLYLINE
  8
0
 62
     0
 66
     1
 10
0
 20
0
 30
0.0
 70
     1
 40
0.75
 41
0.75
  0
VERTEX
  8
0
 10
8.58274
 20
7.28549
 30
0.0
 40
0.0104167
 41
0.0104167
  0
VERTEX
  8
0
 10
8.58274
 20
6.76465
 30
0.0
 40
0.0104167
 41
0.0104167
  0
VERTEX
  8
0
 10
8.87483
 20
6.76465
 30
0.0
 40
0.0104167
 41
0.0104167
  0
VERTEX
  8
0
 10
8.87483
 20
7.28549
 30
0.0
 40
0.0104167
 41
0.0104167
  0
VERTEX
  8
0
 10
8.58274
 20
7.28549
 30
0.0
 40
0.0104167
 41
0.0104167
  0
SEQEND
 8
0
  0
POLYLINE
  8
0
 62
     7
 66
     1
 10
0
 20
0
 30
0.0
 70
     1
 40
0
 41
0
  0
VERTEX
  8
0
 10
8.74447
 20
6.98861
 30
0.0
 40
0
 41
0
  0
VERTEX
  8
0
 10
8.73801
 20
6.98861
 30
0.0
 40
0
 41
0
  0
VERTEX
  8
0
 10
8.71864
 20
6.99929
 30
0.0
 40
0
 41
0
  0
VERTEX
  8
0
 10
8.70801
 20
7.01867
 30
0.0
 40
0
 41
0
  0
VERTEX
  8
0
 10
8.70801
 20
7.02507
 30
0.0
 40
0
 41
0
  0
VERTEX
  8
0
 10
8.70801
 20
7.03153
 30
0.0
 40
0
 41
0
  0
VERTEX
  8
0
 10
8.71864
 20
7.05089
 30
0.0
 40
0
 41
0
  0
VERTEX
  8
0
 10
8.73801
 20
7.06153
 30
0.0
 40
0
 41
0
  0
VERTEX
  8
0
 10
8.74447
 20
7.06153
 30
0.0
 40
0
 41
0
  0
VERTEX
  8
0
 10
8.75087
 20
7.06153
 30
0.0
 40
0
 41
0
  0
VERTEX
  8
0
 10
8.77024
 20
7.05089
 30
0.0
 40
0
 41
0
  0
VERTEX
  8
0
 10
8.78093
 20
7.03153
 30
0.0
 40
0
 41
0
  0
VERTEX
  8
0
 10
8.78093
 20
7.02507
 30
0.0
 40
0
 41
0
  0
VERTEX
  8
0
 10
8.78093
 20
7.01867
 30
0.0
 40
0
 41
0
  0
VERTEX
  8
0
 10
8.77024
 20
6.99929
 30
0.0
 40
0
 41
0
  0
VERTEX
  8
0
 10
8.75087
 20
6.98861
 30
0.0
 40
0
 41
0
  0
VERTEX
  8
0
 10
8.74447
 20
6.98861
 30
0.0
 40
0
 41
0
  0
SEQEND
 8
0
  0
POLYLINE
  8
0
 62
     0
 66
     1
 10
0
 20
0
 30
0.0
 70
     1
 40
0.6
 41
0.6
  0
VERTEX
  8
0
 10
8.74447
 20
6.98861
 30
0.0
 40
0.00833333
 41
0.00833333
  0
VERTEX
  8
0
 10
8.73801
 20
6.98861
 30
0.0
 40
0.00833333
 41
0.00833333
  0
VERTEX
  8
0
 10
8.71864
 20
6.99929
 30
0.0
 40
0.00833333
 41
0.00833333
  0
VERTEX
  8
0
 10
8.70801
 20
7.01867
 30
0.0
 40
0.00833333
 41
0.00833333
  0
VERTEX
  8
0
 10
8.70801
 20
7.02507
 30
0.0
 40
0.00833333
 41
0.00833333
  0
VERTEX
  8
0
 10
8.70801
 20
7.03153
 30
0.0
 40
0.00833333
 41
0.00833333
  0
VERTEX
  8
0
 10
8.71864
 20
7.05089
 30
0.0
 40
0.00833333
 41
0.00833333
  0
VERTEX
  8
0
 10
8.73801
 20
7.06153
 30
0.0
 40
0.00833333
 41
0.00833333
  0
VERTEX
  8
0
 10
8.74447
 20
7.06153
 30
0.0
 40
0.00833333
 41
0.00833333
  0
VERTEX
  8
0
 10
8.75087
 20
7.06153
 30
0.0
 40
0.00833333
 41
0.00833333
  0
VERTEX
  8
0
 10
8.77024
 20
7.05089
 30
0.0
 40
0.00833333
 41
0.00833333
  0
VERTEX
  8
0
 10
8.78093
 20
7.03153
 30
0.0
 40
0.00833333
 41
0.00833333
  0
VERTEX
  8
0
 10
8.78093
 20
7.02507
 30
0.0
 40
0.00833333
 41
0.00833333
  0
VERTEX
  8
0
 10
8.78093
 20
7.01867
 30
0.0
 40
0.00833333
 41
0.00833333
  0
VERTEX
  8
0
 10
8.77024
 20
6.99929
 30
0.0
 40
0.00833333
 41
0.00833333
  0
VERTEX
  8
0
 10
8.75087
 20
6.98861
 30
0.0
 40
0.00833333
 41
0.00833333
  0
VERTEX
  8
0
 10
8.74447
 20
6.98861
 30
0.0
 40
0.00833333
 41
0.00833333
  0
SEQEND
 8
0
  0
POLYLINE
  8
0
 62
     7
 66
     1
 10
0
 20
0
 30
0.0
 70
     1
 40
0
 41
0
  0
VERTEX
  8
0
 10
8.74447
 20
7.00424
 30
0.0
 40
0
 41
0
  0
VERTEX
  8
0
 10
8.74078
 20
7.00424
 30
0.0
 40
0
 41
0
  0
VERTEX
  8
0
 10
8.72971
 20
7.01036
 30
0.0
 40
0
 41
0
  0
VERTEX
  8
0
 10
8.72364
 20
7.02143
 30
0.0
 40
0
 41
0
  0
VERTEX
  8
0
 10
8.72364
 20
7.02507
 30
0.0
 40
0
 41
0
  0
VERTEX
  8
0
 10
8.72364
 20
7.02875
 30
0.0
 40
0
 41
0
  0
VERTEX
  8
0
 10
8.72971
 20
7.03982
 30
0.0
 40
0
 41
0
  0
VERTEX
  8
0
 10
8.74078
 20
7.0459
 30
0.0
 40
0
 41
0
  0
VERTEX
  8
0
 10
8.74447
 20
7.0459
 30
0.0
 40
0
 41
0
  0
VERTEX
  8
0
 10
8.7481
 20
7.0459
 30
0.0
 40
0
 41
0
  0
VERTEX
  8
0
 10
8.75917
 20
7.03982
 30
0.0
 40
0
 41
0
  0
VERTEX
  8
0
 10
8.76531
 20
7.02875
 30
0.0
 40
0
 41
0
  0
VERTEX
  8
0
 10
8.76531
 20
7.02507
 30
0.0
 40
0
 41
0
  0
VERTEX
  8
0
 10
8.76531
 20
7.02143
 30
0.0
 40
0
 41
0
  0
VERTEX
  8
0
 10
8.75917
 20
7.01036
 30
0.0
 40
0
 41
0
  0
VERTEX
  8
0
 10
8.7481
 20
7.00424
 30
0.0
 40
0
 41
0
  0
VERTEX
  8
0
 10
8.74447
 20
7.00424
 30
0.0
 40
0
 41
0
  0
SEQEND
 8
0
  0
POLYLINE
  8
0
 62
     0
 66
     1
 10
0
 20
0
 30
0.0
 70
     1
 40
0.6
 41
0.6
  0
VERTEX
  8
0
 10
8.74447
 20
7.00424
 30
0.0
 40
0.00833333
 41
0.00833333
  0
VERTEX
  8
0
 10
8.74078
 20
7.00424
 30
0.0
 40
0.00833333
 41
0.00833333
  0
VERTEX
  8
0
 10
8.72971
 20
7.01036
 30
0.0
 40
0.00833333
 41
0.00833333
  0
VERTEX
  8
0
 10
8.72364
 20
7.02143
 30
0.0
 40
0.00833333
 41
0.00833333
  0
VERTEX
  8
0
 10
8.72364
 20
7.02507
 30
0.0
 40
0.00833333
 41
0.00833333
  0
VERTEX
  8
0
 10
8.72364
 20
7.02875
 30
0.0
 40
0.00833333
 41
0.00833333
  0
VERTEX
  8
0
 10
8.72971
 20
7.03982
 30
0.0
 40
0.00833333
 41
0.00833333
  0
VERTEX
  8
0
 10
8.74078
 20
7.0459
 30
0.0
 40
0.00833333
 41
0.00833333
  0
VERTEX
  8
0
 10
8.74447
 20
7.0459
 30
0.0
 40
0.00833333
 41
0.00833333
  0
VERTEX
  8
0
 10
8.7481
 20
7.0459
 30
0.0
 40
0.00833333
 41
0.00833333
  0
VERTEX
  8
0
 10
8.75917
 20
7.03982
 30
0.0
 40
0.00833333
 41
0.00833333
  0
VERTEX
  8
0
 10
8.76531
 20
7.02875
 30
0.0
 40
0.00833333
 41
0.00833333
  0
VERTEX
  8
0
 10
8.76531
 20
7.02507
 30
0.0
 40
0.00833333
 41
0.00833333
  0
VERTEX
  8
0
 10
8.76531
 20
7.02143
 30
0.0
 40
0.00833333
 41
0.00833333
  0
VERTEX
  8
0
 10
8.75917
 20
7.01036
 30
0.0
 40
0.00833333
 41
0.00833333
  0
VERTEX
  8
0
 10
8.7481
 20
7.00424
 30
0.0
 40
0.00833333
 41
0.00833333
  0
VERTEX
  8
0
 10
8.74447
 20
7.00424
 30
0.0
 40
0.00833333
 41
0.00833333
  0
SEQEND
 8
0
  0
POLYLINE
  8
0
 62
     7
 66
     1
 10
0
 20
0
 30
0.0
 70
     1
 40
0
 41
0
  0
VERTEX
  8
0
 10
8.79411
 20
7.05632
 30
0.0
 40
0
 41
0
  0
VERTEX
  8
0
 10
8.93994
 20
7.05632
 30
0.0
 40
0
 41
0
  0
VERTEX
  8
0
 10
8.93994
 20
6.99382
 30
0.0
 40
0
 41
0
  0
VERTEX
  8
0
 10
8.79411
 20
6.99382
 30
0.0
 40
0
 41
0
  0
VERTEX
  8
0
 10
8.79411
 20
7.05632
 30
0.0
 40
0
 41
0
  0
SEQEND
 8
0
  0
POLYLINE
  8
0
 62
     0
 66
     1
 10
0
 20
0
 30
0.0
 70
     1
 40
0.75
 41
0.75
  0
VERTEX
  8
0
 10
8.79411
 20
7.05632
 30
0.0
 40
0.0104167
 41
0.0104167
  0
VERTEX
  8
0
 10
8.79411
 20
6.99382
 30
0.0
 40
0.0104167
 41
0.0104167
  0
VERTEX
  8
0
 10
8.93994
 20
6.99382
 30
0.0
 40
0.0104167
 41
0.0104167
  0
VERTEX
  8
0
 10
8.93994
 20
7.05632
 30
0.0
 40
0.0104167
 41
0.0104167
  0
VERTEX
  8
0
 10
8.79411
 20
7.05632
 30
0.0
 40
0.0104167
 41
0.0104167
  0
SEQEND
 8
0
  0
POLYLINE
  8
0
 62
     7
 66
     1
 10
0
 20
0
 30
0.0
 70
     1
 40
0
 41
0
  0
VERTEX
  8
0
 10
8.90858
 20
8.77815
 30
0.0
 40
0
 41
0
  0
VERTEX
  8
0
 10
8.97211
 20
8.77815
 30
0.0
 40
0
 41
0
  0
VERTEX
  8
0
 10
8.97211
 20
8.66151
 30
0.0
 40
0
 41
0
  0
VERTEX
  8
0
 10
8.90858
 20
8.66151
 30
0.0
 40
0
 41
0
  0
VERTEX
  8
0
 10
8.90858
 20
8.77815
 30
0.0
 40
0
 41
0
  0
SEQEND
 8
0
  0
POLYLINE
  8
0
 62
     0
 66
     1
 10
0
 20
0
 30
0.0
 70
     1
 40
0.75
 41
0.75
  0
VERTEX
  8
0
 10
8.90858
 20
8.77815
 30
0.0
 40
0.0104167
 41
0.0104167
  0
VERTEX
  8
0
 10
8.90858
 20
8.66151
 30
0.0
 40
0.0104167
 41
0.0104167
  0
VERTEX
  8
0
 10
8.97211
 20
8.66151
 30
0.0
 40
0.0104167
 41
0.0104167
  0
VERTEX
  8
0
 10
8.97211
 20
8.77815
 30
0.0
 40
0.0104167
 41
0.0104167
  0
VERTEX
  8
0
 10
8.90858
 20
8.77815
 30
0.0
 40
0.0104167
 41
0.0104167
  0
SEQEND
 8
0
  0
POLYLINE
  8
0
 62
     7
 66
     1
 10
0
 20
0
 30
0.0
 70
     1
 40
0
 41
0
  0
VERTEX
  8
0
 10
8.90858
 20
8.63336
 30
0.0
 40
0
 41
0
  0
VERTEX
  8
0
 10
8.97211
 20
8.63336
 30
0.0
 40
0
 41
0
  0
VERTEX
  8
0
 10
8.97211
 20
8.51671
 30
0.0
 40
0
 41
0
  0
VERTEX
  8
0
 10
8.90858
 20
8.51671
 30
0.0
 40
0
 41
0
  0
VERTEX
  8
0
 10
8.90858
 20
8.63336
 30
0.0
 40
0
 41
0
  0
SEQEND
 8
0
  0
POLYLINE
  8
0
 62
     0
 66
     1
 10
0
 20
0
 30
0.0
 70
     1
 40
0.75
 41
0.75
  0
VERTEX
  8
0
 10
8.90858
 20
8.63336
 30
0.0
 40
0.0104167
 41
0.0104167
  0
VERTEX
  8
0
 10
8.90858
 20
8.51671
 30
0.0
 40
0.0104167
 41
0.0104167
  0
VERTEX
  8
0
 10
8.97211
 20
8.51671
 30
0.0
 40
0.0104167
 41
0.0104167
  0
VERTEX
  8
0
 10
8.97211
 20
8.63336
 30
0.0
 40
0.0104167
 41
0.0104167
  0
VERTEX
  8
0
 10
8.90858
 20
8.63336
 30
0.0
 40
0.0104167
 41
0.0104167
  0
SEQEND
 8
0
  0
POLYLINE
  8
0
 62
     7
 66
     1
 10
0
 20
0
 30
0.0
 70
     1
 40
0
 41
0
  0
VERTEX
  8
0
 10
8.90858
 20
8.51774
 30
0.0
 40
0
 41
0
  0
VERTEX
  8
0
 10
8.97211
 20
8.51774
 30
0.0
 40
0
 41
0
  0
VERTEX
  8
0
 10
8.97211
 20
8.48232
 30
0.0
 40
0
 41
0
  0
VERTEX
  8
0
 10
8.90858
 20
8.48232
 30
0.0
 40
0
 41
0
  0
VERTEX
  8
0
 10
8.90858
 20
8.51774
 30
0.0
 40
0
 41
0
  0
SEQEND
 8
0
  0
POLYLINE
  8
0
 62
     0
 66
     1
 10
0
 20
0
 30
0.0
 70
     1
 40
0.75
 41
0.75
  0
VERTEX
  8
0
 10
8.90858
 20
8.51774
 30
0.0
 40
0.0104167
 41
0.0104167
  0
VERTEX
  8
0
 10
8.90858
 20
8.48232
 30
0.0
 40
0.0104167
 41
0.0104167
  0
VERTEX
  8
0
 10
8.97211
 20
8.48232
 30
0.0
 40
0.0104167
 41
0.0104167
  0
VERTEX
  8
0
 10
8.97211
 20
8.51774
 30
0.0
 40
0.0104167
 41
0.0104167
  0
VERTEX
  8
0
 10
8.90858
 20
8.51774
 30
0.0
 40
0.0104167
 41
0.0104167
  0
SEQEND
 8
0
  0
POLYLINE
  8
0
 62
     7
 66
     1
 10
0
 20
0
 30
0.0
 70
     1
 40
0
 41
0
  0
VERTEX
  8
0
 10
8.90858
 20
8.81147
 30
0.0
 40
0
 41
0
  0
VERTEX
  8
0
 10
8.97211
 20
8.81147
 30
0.0
 40
0
 41
0
  0
VERTEX
  8
0
 10
8.97211
 20
8.77815
 30
0.0
 40
0
 41
0
  0
VERTEX
  8
0
 10
8.90858
 20
8.77815
 30
0.0
 40
0
 41
0
  0
VERTEX
  8
0
 10
8.90858
 20
8.81147
 30
0.0
 40
0
 41
0
  0
SEQEND
 8
0
  0
POLYLINE
  8
0
 62
     0
 66
     1
 10
0
 20
0
 30
0.0
 70
     1
 40
0.75
 41
0.75
  0
VERTEX
  8
0
 10
8.90858
 20
8.81147
 30
0.0
 40
0.0104167
 41
0.0104167
  0
VERTEX
  8
0
 10
8.90858
 20
8.77815
 30
0.0
 40
0.0104167
 41
0.0104167
  0
VERTEX
  8
0
 10
8.97211
 20
8.77815
 30
0.0
 40
0.0104167
 41
0.0104167
  0
VERTEX
  8
0
 10
8.97211
 20
8.81147
 30
0.0
 40
0.0104167
 41
0.0104167
  0
VERTEX
  8
0
 10
8.90858
 20
8.81147
 30
0.0
 40
0.0104167
 41
0.0104167
  0
SEQEND
 8
0
  0
POLYLINE
  8
0
 62
     7
 66
     1
 10
0
 20
0
 30
0.0
 70
     1
 40
0
 41
0
  0
VERTEX
  8
0
 10
8.88878
 20
8.66151
 30
0.0
 40
0
 41
0
  0
VERTEX
  8
0
 10
8.88243
 20
8.66151
 30
0.0
 40
0
 41
0
  0
VERTEX
  8
0
 10
8.8635
 20
8.66515
 30
0.0
 40
0
 41
0
  0
VERTEX
  8
0
 10
8.8411
 20
8.67507
 30
0.0
 40
0
 41
0
  0
VERTEX
  8
0
 10
8.83669
 20
8.67817
 30
0.0
 40
0
 41
0
  0
VERTEX
  8
0
 10
8.83513
 20
8.67925
 30
0.0
 40
0
 41
0
  0
VERTEX
  8
0
 10
8.82053
 20
8.6894
 30
0.0
 40
0
 41
0
  0
VERTEX
  8
0
 10
8.81901
 20
8.68961
 30
0.0
 40
0
 41
0
  0
VERTEX
  8
0
 10
8.81614
 20
8.69015
 30
0.0
 40
0
 41
0
  0
VERTEX
  8
0
 10
8.79958
 20
8.68599
 30
0.0
 40
0
 41
0
  0
VERTEX
  8
0
 10
8.78674
 20
8.66932
 30
0.0
 40
0
 41
0
  0
VERTEX
  8
0
 10
8.78569
 20
8.66357
 30
0.0
 40
0
 41
0
  0
VERTEX
  8
0
 10
8.78543
 20
8.66228
 30
0.0
 40
0
 41
0
  0
VERTEX
  8
0
 10
8.78461
 20
8.65076
 30
0.0
 40
0
 41
0
  0
VERTEX
  8
0
 10
8.78461
 20
8.64692
 30
0.0
 40
0
 41
0
  0
VERTEX
  8
0
 10
8.78461
 20
8.64794
 30
0.0
 40
0
 41
0
  0
VERTEX
  8
0
 10
8.78461
 20
8.64382
 30
0.0
 40
0
 41
0
  0
VERTEX
  8
0
 10
8.78543
 20
8.6326
 30
0.0
 40
0
 41
0
  0
VERTEX
  8
0
 10
8.78569
 20
8.63129
 30
0.0
 40
0
 41
0
  0
VERTEX
  8
0
 10
8.78674
 20
8.6256
 30
0.0
 40
0
 41
0
  0
VERTEX
  8
0
 10
8.79958
 20
8.60889
 30
0.0
 40
0
 41
0
  0
VERTEX
  8
0
 10
8.81614
 20
8.60476
 30
0.0
 40
0
 41
0
  0
VERTEX
  8
0
 10
8.81901
 20
8.60525
 30
0.0
 40
0
 41
0
  0
VERTEX
  8
0
 10
8.82053
 20
8.60553
 30
0.0
 40
0
 41
0
  0
VERTEX
  8
0
 10
8.83513
 20
8.61567
 30
0.0
 40
0
 41
0
  0
VERTEX
  8
0
 10
8.83669
 20
8.61669
 30
0.0
 40
0
 41
0
  0
VERTEX
  8
0
 10
8.8411
 20
8.61985
 30
0.0
 40
0
 41
0
  0
VERTEX
  8
0
 10
8.8635
 20
8.62972
 30
0.0
 40
0
 41
0
  0
VERTEX
  8
0
 10
8.88243
 20
8.63336
 30
0.0
 40
0
 41
0
  0
VERTEX
  8
0
 10
8.88878
 20
8.63336
 30
0.0
 40
0
 41
0
  0
SEQEND
 8
0
  0
POLYLINE
  8
0
 62
     0
 66
     1
 10
0
 20
0
 30
0.0
 40
0.75
 41
0.75
  0
VERTEX
  8
0
 10
8.88878
 20
8.66151
 30
0.0
 40
0.0104167
 41
0.0104167
  0
VERTEX
  8
0
 10
8.88243
 20
8.66151
 30
0.0
 40
0.0104167
 41
0.0104167
  0
VERTEX
  8
0
 10
8.8635
 20
8.66515
 30
0.0
 40
0.0104167
 41
0.0104167
  0
VERTEX
  8
0
 10
8.8411
 20
8.67507
 30
0.0
 40
0.0104167
 41
0.0104167
  0
VERTEX
  8
0
 10
8.83669
 20
8.67817
 30
0.0
 40
0.0104167
 41
0.0104167
  0
VERTEX
  8
0
 10
8.83513
 20
8.67925
 30
0.0
 40
0.0104167
 41
0.0104167
  0
VERTEX
  8
0
 10
8.82053
 20
8.6894
 30
0.0
 40
0.0104167
 41
0.0104167
  0
VERTEX
  8
0
 10
8.81901
 20
8.68961
 30
0.0
 40
0.0104167
 41
0.0104167
  0
VERTEX
  8
0
 10
8.81614
 20
8.69015
 30
0.0
 40
0.0104167
 41
0.0104167
  0
VERTEX
  8
0
 10
8.79958
 20
8.68599
 30
0.0
 40
0.0104167
 41
0.0104167
  0
VERTEX
  8
0
 10
8.78674
 20
8.66932
 30
0.0
 40
0.0104167
 41
0.0104167
  0
VERTEX
  8
0
 10
8.78569
 20
8.66357
 30
0.0
 40
0.0104167
 41
0.0104167
  0
VERTEX
  8
0
 10
8.78543
 20
8.66228
 30
0.0
 40
0.0104167
 41
0.0104167
  0
VERTEX
  8
0
 10
8.78461
 20
8.65076
 30
0.0
 40
0.0104167
 41
0.0104167
  0
VERTEX
  8
0
 10
8.78461
 20
8.64692
 30
0.0
 40
0.0104167
 41
0.0104167
  0
VERTEX
  8
0
 10
8.78461
 20
8.64794
 30
0.0
 40
0.0104167
 41
0.0104167
  0
VERTEX
  8
0
 10
8.78461
 20
8.64382
 30
0.0
 40
0.0104167
 41
0.0104167
  0
VERTEX
  8
0
 10
8.78543
 20
8.6326
 30
0.0
 40
0.0104167
 41
0.0104167
  0
VERTEX
  8
0
 10
8.78569
 20
8.63129
 30
0.0
 40
0.0104167
 41
0.0104167
  0
VERTEX
  8
0
 10
8.78674
 20
8.6256
 30
0.0
 40
0.0104167
 41
0.0104167
  0
VERTEX
  8
0
 10
8.79958
 20
8.60889
 30
0.0
 40
0.0104167
 41
0.0104167
  0
VERTEX
  8
0
 10
8.81614
 20
8.60476
 30
0.0
 40
0.0104167
 41
0.0104167
  0
VERTEX
  8
0
 10
8.81901
 20
8.60525
 30
0.0
 40
0.0104167
 41
0.0104167
  0
VERTEX
  8
0
 10
8.82053
 20
8.60553
 30
0.0
 40
0.0104167
 41
0.0104167
  0
VERTEX
  8
0
 10
8.83513
 20
8.61567
 30
0.0
 40
0.0104167
 41
0.0104167
  0
VERTEX
  8
0
 10
8.83669
 20
8.61669
 30
0.0
 40
0.0104167
 41
0.0104167
  0
VERTEX
  8
0
 10
8.8411
 20
8.61985
 30
0.0
 40
0.0104167
 41
0.0104167
  0
VERTEX
  8
0
 10
8.8635
 20
8.62972
 30
0.0
 40
0.0104167
 41
0.0104167
  0
VERTEX
  8
0
 10
8.88243
 20
8.63336
 30
0.0
 40
0.0104167
 41
0.0104167
  0
VERTEX
  8
0
 10
8.88878
 20
8.63336
 30
0.0
 40
0.0104167
 41
0.0104167
  0
SEQEND
 8
0
  0
POLYLINE
  8
0
 62
     7
 66
     1
 10
0
 20
0
 30
0.0
 70
     1
 40
0
 41
0
  0
VERTEX
  8
0
 10
8.81799
 20
8.68961
 30
0.0
 40
0
 41
0
  0
VERTEX
  8
0
 10
8.81743
 20
8.6894
 30
0.0
 40
0
 41
0
  0
VERTEX
  8
0
 10
8.80724
 20
8.67751
 30
0.0
 40
0
 41
0
  0
VERTEX
  8
0
 10
8.79818
 20
8.65381
 30
0.0
 40
0
 41
0
  0
VERTEX
  8
0
 10
8.79818
 20
8.64589
 30
0.0
 40
0
 41
0
  0
VERTEX
  8
0
 10
8.79839
 20
8.63965
 30
0.0
 40
0
 41
0
  0
VERTEX
  8
0
 10
8.80767
 20
8.61697
 30
0.0
 40
0
 41
0
  0
VERTEX
  8
0
 10
8.81743
 20
8.60579
 30
0.0
 40
0
 41
0
  0
VERTEX
  8
0
 10
8.81799
 20
8.60525
 30
0.0
 40
0
 41
0
  0
SEQEND
 8
0
  0
POLYLINE
  8
0
 62
     0
 66
     1
 10
0
 20
0
 30
0.0
 40
0.75
 41
0.75
  0
VERTEX
  8
0
 10
8.81799
 20
8.68961
 30
0.0
 40
0.0104167
 41
0.0104167
  0
VERTEX
  8
0
 10
8.81743
 20
8.6894
 30
0.0
 40
0.0104167
 41
0.0104167
  0
VERTEX
  8
0
 10
8.80724
 20
8.67751
 30
0.0
 40
0.0104167
 41
0.0104167
  0
VERTEX
  8
0
 10
8.79818
 20
8.65381
 30
0.0
 40
0.0104167
 41
0.0104167
  0
VERTEX
  8
0
 10
8.79818
 20
8.64589
 30
0.0
 40
0.0104167
 41
0.0104167
  0
VERTEX
  8
0
 10
8.79839
 20
8.63965
 30
0.0
 40
0.0104167
 41
0.0104167
  0
VERTEX
  8
0
 10
8.80767
 20
8.61697
 30
0.0
 40
0.0104167
 41
0.0104167
  0
VERTEX
  8
0
 10
8.81743
 20
8.60579
 30
0.0
 40
0.0104167
 41
0.0104167
  0
VERTEX
  8
0
 10
8.81799
 20
8.60525
 30
0.0
 40
0.0104167
 41
0.0104167
  0
SEQEND
 8
0
  0
POLYLINE
  8
0
 62
     7
 66
     1
 10
0
 20
0
 30
0.0
 70
     1
 40
0
 41
0
  0
VERTEX
  8
0
 10
8.97211
 20
8.66151
 30
0.0
 40
0
 41
0
  0
VERTEX
  8
0
 10
8.97211
 20
8.63336
 30
0.0
 40
0
 41
0
  0
VERTEX
  8
0
 10
8.88878
 20
8.63336
 30
0.0
 40
0
 41
0
  0
VERTEX
  8
0
 10
8.88878
 20
8.6404
 30
0.0
 40
0
 41
0
  0
VERTEX
  8
0
 10
8.88878
 20
8.65625
 30
0.0
 40
0
 41
0
  0
VERTEX
  8
0
 10
8.88878
 20
8.66151
 30
0.0
 40
0
 41
0
  0
VERTEX
  8
0
 10
8.90961
 20
8.66151
 30
0.0
 40
0
 41
0
  0
VERTEX
  8
0
 10
8.95649
 20
8.66151
 30
0.0
 40
0
 41
0
  0
VERTEX
  8
0
 10
8.97211
 20
8.66151
 30
0.0
 40
0
 41
0
  0
SEQEND
 8
0
  0
POLYLINE
  8
0
 62
     0
 66
     1
 10
0
 20
0
 30
0.0
 70
     1
 40
0.75
 41
0.75
  0
VERTEX
  8
0
 10
8.97211
 20
8.66151
 30
0.0
 40
0.0104167
 41
0.0104167
  0
VERTEX
  8
0
 10
8.97211
 20
8.63336
 30
0.0
 40
0.0104167
 41
0.0104167
  0
VERTEX
  8
0
 10
8.88878
 20
8.63336
 30
0.0
 40
0.0104167
 41
0.0104167
  0
VERTEX
  8
0
 10
8.88878
 20
8.6404
 30
0.0
 40
0.0104167
 41
0.0104167
  0
VERTEX
  8
0
 10
8.88878
 20
8.65625
 30
0.0
 40
0.0104167
 41
0.0104167
  0
VERTEX
  8
0
 10
8.88878
 20
8.66151
 30
0.0
 40
0.0104167
 41
0.0104167
  0
VERTEX
  8
0
 10
8.90961
 20
8.66151
 30
0.0
 40
0.0104167
 41
0.0104167
  0
VERTEX
  8
0
 10
8.95649
 20
8.66151
 30
0.0
 40
0.0104167
 41
0.0104167
  0
VERTEX
  8
0
 10
8.97211
 20
8.66151
 30
0.0
 40
0.0104167
 41
0.0104167
  0
SEQEND
 8
0
  0
POLYLINE
  8
0
 62
     7
 66
     1
 10
0
 20
0
 30
0.0
 70
     1
 40
0
 41
0
  0
VERTEX
  8
0
 10
8.93983
 20
8.77815
 30
0.0
 40
0
 41
0
  0
VERTEX
  8
0
 10
8.94103
 20
8.77496
 30
0.0
 40
0
 41
0
  0
VERTEX
  8
0
 10
8.94488
 20
8.76531
 30
0.0
 40
0
 41
0
  0
VERTEX
  8
0
 10
8.94607
 20
8.76253
 30
0.0
 40
0
 41
0
  0
VERTEX
  8
0
 10
8.94607
 20
8.76253
 30
0.0
 40
0
 41
0
  0
VERTEX
  8
0
 10
8.94461
 20
8.76253
 30
0.0
 40
0
 41
0
  0
VERTEX
  8
0
 10
8.94032
 20
8.76253
 30
0.0
 40
0
 41
0
  0
VERTEX
  8
0
 10
8.93604
 20
8.76253
 30
0.0
 40
0
 41
0
  0
VERTEX
  8
0
 10
8.93463
 20
8.76253
 30
0.0
 40
0
 41
0
  0
VERTEX
  8
0
 10
8.93463
 20
8.76253
 30
0.0
 40
0
 41
0
  0
VERTEX
  8
0
 10
8.93528
 20
8.76492
 30
0.0
 40
0
 41
0
  0
VERTEX
  8
0
 10
8.93864
 20
8.7749
 30
0.0
 40
0
 41
0
  0
VERTEX
  8
0
 10
8.93983
 20
8.77815
 30
0.0
 40
0
 41
0
  0
SEQEND
 8
0
  0
POLYLINE
  8
0
 62
     0
 66
     1
 10
0
 20
0
 30
0.0
 70
     1
 40
0.75
 41
0.75
  0
VERTEX
  8
0
 10
8.93983
 20
8.77815
 30
0.0
 40
0.0104167
 41
0.0104167
  0
VERTEX
  8
0
 10
8.94103
 20
8.77496
 30
0.0
 40
0.0104167
 41
0.0104167
  0
VERTEX
  8
0
 10
8.94488
 20
8.76531
 30
0.0
 40
0.0104167
 41
0.0104167
  0
VERTEX
  8
0
 10
8.94607
 20
8.76253
 30
0.0
 40
0.0104167
 41
0.0104167
  0
VERTEX
  8
0
 10
8.94607
 20
8.76253
 30
0.0
 40
0.0104167
 41
0.0104167
  0
VERTEX
  8
0
 10
8.94461
 20
8.76253
 30
0.0
 40
0.0104167
 41
0.0104167
  0
VERTEX
  8
0
 10
8.94032
 20
8.76253
 30
0.0
 40
0.0104167
 41
0.0104167
  0
VERTEX
  8
0
 10
8.93604
 20
8.76253
 30
0.0
 40
0.0104167
 41
0.0104167
  0
VERTEX
  8
0
 10
8.93463
 20
8.76253
 30
0.0
 40
0.0104167
 41
0.0104167
  0
VERTEX
  8
0
 10
8.93463
 20
8.76253
 30
0.0
 40
0.0104167
 41
0.0104167
  0
VERTEX
  8
0
 10
8.93528
 20
8.76492
 30
0.0
 40
0.0104167
 41
0.0104167
  0
VERTEX
  8
0
 10
8.93864
 20
8.7749
 30
0.0
 40
0.0104167
 41
0.0104167
  0
VERTEX
  8
0
 10
8.93983
 20
8.77815
 30
0.0
 40
0.0104167
 41
0.0104167
  0
SEQEND
 8
0
  0
POLYLINE
  8
0
 62
     7
 66
     1
 10
0
 20
0
 30
0.0
 70
     1
 40
0
 41
0
  0
VERTEX
  8
0
 10
8.93983
 20
8.51774
 30
0.0
 40
0
 41
0
  0
VERTEX
  8
0
 10
8.94103
 20
8.521
 30
0.0
 40
0
 41
0
  0
VERTEX
  8
0
 10
8.94488
 20
8.53065
 30
0.0
 40
0
 41
0
  0
VERTEX
  8
0
 10
8.94607
 20
8.53336
 30
0.0
 40
0
 41
0
  0
VERTEX
  8
0
 10
8.94607
 20
8.53336
 30
0.0
 40
0
 41
0
  0
VERTEX
  8
0
 10
8.94461
 20
8.53336
 30
0.0
 40
0
 41
0
  0
VERTEX
  8
0
 10
8.94032
 20
8.53336
 30
0.0
 40
0
 41
0
  0
VERTEX
  8
0
 10
8.93604
 20
8.53336
 30
0.0
 40
0
 41
0
  0
VERTEX
  8
0
 10
8.93463
 20
8.53336
 30
0.0
 40
0
 41
0
  0
VERTEX
  8
0
 10
8.93463
 20
8.53336
 30
0.0
 40
0
 41
0
  0
VERTEX
  8
0
 10
8.93528
 20
8.53103
 30
0.0
 40
0
 41
0
  0
VERTEX
  8
0
 10
8.93864
 20
8.52106
 30
0.0
 40
0
 41
0
  0
VERTEX
  8
0
 10
8.93983
 20
8.51774
 30
0.0
 40
0
 41
0
  0
SEQEND
 8
0
  0
POLYLINE
  8
0
 62
     0
 66
     1
 10
0
 20
0
 30
0.0
 70
     1
 40
0.75
 41
0.75
  0
VERTEX
  8
0
 10
8.93983
 20
8.51774
 30
0.0
 40
0.0104167
 41
0.0104167
  0
VERTEX
  8
0
 10
8.94103
 20
8.521
 30
0.0
 40
0.0104167
 41
0.0104167
  0
VERTEX
  8
0
 10
8.94488
 20
8.53065
 30
0.0
 40
0.0104167
 41
0.0104167
  0
VERTEX
  8
0
 10
8.94607
 20
8.53336
 30
0.0
 40
0.0104167
 41
0.0104167
  0
VERTEX
  8
0
 10
8.94607
 20
8.53336
 30
0.0
 40
0.0104167
 41
0.0104167
  0
VERTEX
  8
0
 10
8.94461
 20
8.53336
 30
0.0
 40
0.0104167
 41
0.0104167
  0
VERTEX
  8
0
 10
8.94032
 20
8.53336
 30
0.0
 40
0.0104167
 41
0.0104167
  0
VERTEX
  8
0
 10
8.93604
 20
8.53336
 30
0.0
 40
0.0104167
 41
0.0104167
  0
VERTEX
  8
0
 10
8.93463
 20
8.53336
 30
0.0
 40
0.0104167
 41
0.0104167
  0
VERTEX
  8
0
 10
8.93463
 20
8.53336
 30
0.0
 40
0.0104167
 41
0.0104167
  0
VERTEX
  8
0
 10
8.93528
 20
8.53103
 30
0.0
 40
0.0104167
 41
0.0104167
  0
VERTEX
  8
0
 10
8.93864
 20
8.52106
 30
0.0
 40
0.0104167
 41
0.0104167
  0
VERTEX
  8
0
 10
8.93983
 20
8.51774
 30
0.0
 40
0.0104167
 41
0.0104167
  0
SEQEND
 8
0
  0
POLYLINE
  8
0
 62
     7
 66
     1
 10
0
 20
0
 30
0.0
 70
     1
 40
0
 41
0
  0
VERTEX
  8
0
 10
8.78483
 20
7.93668
 30
0.0
 40
0
 41
0
  0
VERTEX
  8
0
 10
8.97211
 20
7.93668
 30
0.0
 40
0
 41
0
  0
VERTEX
  8
0
 10
8.97211
 20
7.52018
 30
0.0
 40
0
 41
0
  0
VERTEX
  8
0
 10
8.78483
 20
7.52018
 30
0.0
 40
0
 41
0
  0
VERTEX
  8
0
 10
8.78483
 20
7.93668
 30
0.0
 40
0
 41
0
  0
SEQEND
 8
0
  0
POLYLINE
  8
0
 62
     0
 66
     1
 10
0
 20
0
 30
0.0
 70
     1
 40
0.75
 41
0.75
  0
VERTEX
  8
0
 10
8.78483
 20
7.93668
 30
0.0
 40
0.0104167
 41
0.0104167
  0
VERTEX
  8
0
 10
8.78483
 20
7.52018
 30
0.0
 40
0.0104167
 41
0.0104167
  0
VERTEX
  8
0
 10
8.97211
 20
7.52018
 30
0.0
 40
0.0104167
 41
0.0104167
  0
VERTEX
  8
0
 10
8.97211
 20
7.93668
 30
0.0
 40
0.0104167
 41
0.0104167
  0
VERTEX
  8
0
 10
8.78483
 20
7.93668
 30
0.0
 40
0.0104167
 41
0.0104167
  0
SEQEND
 8
0
  0
POLYLINE
  8
0
 62
     7
 66
     1
 10
0
 20
0
 30
0.0
 70
     1
 40
0
 41
0
  0
VERTEX
  8
0
 10
8.51654
 20
7.52018
 30
0.0
 40
0
 41
0
  0
VERTEX
  8
0
 10
8.51654
 20
7.52018
 30
0.0
 40
0
 41
0
  0
VERTEX
  8
0
 10
8.50478
 20
7.52012
 30
0.0
 40
0
 41
0
  0
VERTEX
  8
0
 10
8.47379
 20
7.52175
 30
0.0
 40
0
 41
0
  0
VERTEX
  8
0
 10
8.42996
 20
7.52789
 30
0.0
 40
0
 41
0
  0
VERTEX
  8
0
 10
8.37972
 20
7.54129
 30
0.0
 40
0
 41
0
  0
VERTEX
  8
0
 10
8.32949
 20
7.56483
 30
0.0
 40
0
 41
0
  0
VERTEX
  8
0
 10
8.28564
 20
7.60129
 30
0.0
 40
0
 41
0
  0
VERTEX
  8
0
 10
8.25467
 20
7.65349
 30
0.0
 40
0
 41
0
  0
VERTEX
  8
0
 10
8.24294
 20
7.70654
 30
0.0
 40
0
 41
0
  0
VERTEX
  8
0
 10
8.24294
 20
7.72418
 30
0.0
 40
0
 41
0
  0
VERTEX
  8
0
 10
8.24294
 20
7.74251
 30
0.0
 40
0
 41
0
  0
VERTEX
  8
0
 10
8.25467
 20
7.79736
 30
0.0
 40
0
 41
0
  0
VERTEX
  8
0
 10
8.28564
 20
7.8514
 30
0.0
 40
0
 41
0
  0
VERTEX
  8
0
 10
8.32949
 20
7.88921
 30
0.0
 40
0
 41
0
  0
VERTEX
  8
0
 10
8.37972
 20
7.91368
 30
0.0
 40
0
 41
0
  0
VERTEX
  8
0
 10
8.42996
 20
7.92768
 30
0.0
 40
0
 41
0
  0
VERTEX
  8
0
 10
8.47379
 20
7.93408
 30
0.0
 40
0
 41
0
  0
VERTEX
  8
0
 10
8.50478
 20
7.93582
 30
0.0
 40
0
 41
0
  0
VERTEX
  8
0
 10
8.51654
 20
7.93571
 30
0.0
 40
0
 41
0
  0
VERTEX
  8
0
 10
8.51654
 20
7.93571
 30
0.0
 40
0
 41
0
  0
VERTEX
  8
0
 10
8.78483
 20
7.93674
 30
0.0
 40
0
 41
0
  0
VERTEX
  8
0
 10
8.78483
 20
7.52018
 30
0.0
 40
0
 41
0
  0
VERTEX
  8
0
 10
8.51654
 20
7.52018
 30
0.0
 40
0
 41
0
  0
SEQEND
 8
0
  0
POLYLINE
  8
0
 62
     0
 66
     1
 10
0
 20
0
 30
0.0
 70
     1
 40
0.75
 41
0.75
  0
VERTEX
  8
0
 10
8.51654
 20
7.52018
 30
0.0
 40
0.0104167
 41
0.0104167
  0
VERTEX
  8
0
 10
8.51654
 20
7.52018
 30
0.0
 40
0.0104167
 41
0.0104167
  0
VERTEX
  8
0
 10
8.50478
 20
7.52012
 30
0.0
 40
0.0104167
 41
0.0104167
  0
VERTEX
  8
0
 10
8.47379
 20
7.52175
 30
0.0
 40
0.0104167
 41
0.0104167
  0
VERTEX
  8
0
 10
8.42996
 20
7.52789
 30
0.0
 40
0.0104167
 41
0.0104167
  0
VERTEX
  8
0
 10
8.37972
 20
7.54129
 30
0.0
 40
0.0104167
 41
0.0104167
  0
VERTEX
  8
0
 10
8.32949
 20
7.56483
 30
0.0
 40
0.0104167
 41
0.0104167
  0
VERTEX
  8
0
 10
8.28564
 20
7.60129
 30
0.0
 40
0.0104167
 41
0.0104167
  0
VERTEX
  8
0
 10
8.25467
 20
7.65349
 30
0.0
 40
0.0104167
 41
0.0104167
  0
VERTEX
  8
0
 10
8.24294
 20
7.70654
 30
0.0
 40
0.0104167
 41
0.0104167
  0
VERTEX
  8
0
 10
8.24294
 20
7.72418
 30
0.0
 40
0.0104167
 41
0.0104167
  0
VERTEX
  8
0
 10
8.24294
 20
7.74251
 30
0.0
 40
0.0104167
 41
0.0104167
  0
VERTEX
  8
0
 10
8.25467
 20
7.79736
 30
0.0
 40
0.0104167
 41
0.0104167
  0
VERTEX
  8
0
 10
8.28564
 20
7.8514
 30
0.0
 40
0.0104167
 41
0.0104167
  0
VERTEX
  8
0
 10
8.32949
 20
7.88921
 30
0.0
 40
0.0104167
 41
0.0104167
  0
VERTEX
  8
0
 10
8.37972
 20
7.91368
 30
0.0
 40
0.0104167
 41
0.0104167
  0
VERTEX
  8
0
 10
8.42996
 20
7.92768
 30
0.0
 40
0.0104167
 41
0.0104167
  0
VERTEX
  8
0
 10
8.47379
 20
7.93408
 30
0.0
 40
0.0104167
 41
0.0104167
  0
VERTEX
  8
0
 10
8.50478
 20
7.93582
 30
0.0
 40
0.0104167
 41
0.0104167
  0
VERTEX
  8
0
 10
8.51654
 20
7.93571
 30
0.0
 40
0.0104167
 41
0.0104167
  0
VERTEX
  8
0
 10
8.51654
 20
7.93571
 30
0.0
 40
0.0104167
 41
0.0104167
  0
VERTEX
  8
0
 10
8.78483
 20
7.93674
 30
0.0
 40
0.0104167
 41
0.0104167
  0
VERTEX
  8
0
 10
8.78483
 20
7.52018
 30
0.0
 40
0.0104167
 41
0.0104167
  0
VERTEX
  8
0
 10
8.51654
 20
7.52018
 30
0.0
 40
0.0104167
 41
0.0104167
  0
SEQEND
 8
0
  0
POLYLINE
  8
0
 62
     7
 66
     1
 10
0
 20
0
 30
0.0
 70
     1
 40
0
 41
0
  0
VERTEX
  8
0
 10
8.86274
 20
7.76156
 30
0.0
 40
0
 41
0
  0
VERTEX
  8
0
 10
8.89426
 20
7.76156
 30
0.0
 40
0
 41
0
  0
VERTEX
  8
0
 10
8.89426
 20
7.69532
 30
0.0
 40
0
 41
0
  0
VERTEX
  8
0
 10
8.86274
 20
7.69532
 30
0.0
 40
0
 41
0
  0
VERTEX
  8
0
 10
8.86274
 20
7.76156
 30
0.0
 40
0
 41
0
  0
SEQEND
 8
0
  0
POLYLINE
  8
0
 62
     0
 66
     1
 10
0
 20
0
 30
0.0
 70
     1
 40
0.75
 41
0.75
  0
VERTEX
  8
0
 10
8.86274
 20
7.76156
 30
0.0
 40
0.0104167
 41
0.0104167
  0
VERTEX
  8
0
 10
8.86274
 20
7.69532
 30
0.0
 40
0.0104167
 41
0.0104167
  0
VERTEX
  8
0
 10
8.89426
 20
7.69532
 30
0.0
 40
0.0104167
 41
0.0104167
  0
VERTEX
  8
0
 10
8.89426
 20
7.76156
 30
0.0
 40
0.0104167
 41
0.0104167
  0
VERTEX
  8
0
 10
8.86274
 20
7.76156
 30
0.0
 40
0.0104167
 41
0.0104167
  0
SEQEND
 8
0
  0
POLYLINE
  8
0
 62
     7
 66
     1
 10
0
 20
0
 30
0.0
 70
     1
 40
0
 41
0
  0
VERTEX
  8
0
 10
5.85286
 20
6.11638
 30
0.0
 40
0
 41
0
  0
VERTEX
  8
0
 10
6.48921
 20
6.11638
 30
0.0
 40
0
 41
0
  0
VERTEX
  8
0
 10
6.48921
 20
5.49138
 30
0.0
 40
0
 41
0
  0
VERTEX
  8
0
 10
5.85286
 20
5.49138
 30
0.0
 40
0
 41
0
  0
VERTEX
  8
0
 10
5.85286
 20
6.11638
 30
0.0
 40
0
 41
0
  0
SEQEND
 8
0
  0
POLYLINE
  8
0
 62
     0
 66
     1
 10
0
 20
0
 30
0.0
 70
     1
 40
0.75
 41
0.75
  0
VERTEX
  8
0
 10
5.85286
 20
6.11638
 30
0.0
 40
0.0104167
 41
0.0104167
  0
VERTEX
  8
0
 10
6.48921
 20
6.11638
 30
0.0
 40
0.0104167
 41
0.0104167
  0
VERTEX
  8
0
 10
6.48921
 20
5.49138
 30
0.0
 40
0.0104167
 41
0.0104167
  0
VERTEX
  8
0
 10
5.85286
 20
5.49138
 30
0.0
 40
0.0104167
 41
0.0104167
  0
VERTEX
  8
0
 10
5.85286
 20
6.11638
 30
0.0
 40
0.0104167
 41
0.0104167
  0
SEQEND
 8
0
  0
POLYLINE
  8
0
 62
     253
 66
     1
 10
0
 20
0
 30
0.0
 40
0.75
 41
0.75
  0
VERTEX
  8
0
 10
6.48921
 20
5.80388
 30
0.0
 40
0.0104167
 41
0.0104167
  0
VERTEX
  8
0
 10
5.85281
 20
5.80388
 30
0.0
 40
0.0104167
 41
0.0104167
  0
SEQEND
 8
0
  0
POLYLINE
  8
0
 62
     7
 66
     1
 10
0
 20
0
 30
0.0
 70
     1
 40
0
 41
0
  0
VERTEX
  8
0
 10
5.21647
 20
6.11638
 30
0.0
 40
0
 41
0
  0
VERTEX
  8
0
 10
5.85281
 20
6.11638
 30
0.0
 40
0
 41
0
  0
VERTEX
  8
0
 10
5.85281
 20
5.49138
 30
0.0
 40
0
 41
0
  0
VERTEX
  8
0
 10
5.21647
 20
5.49138
 30
0.0
 40
0
 41
0
  0
VERTEX
  8
0
 10
5.21647
 20
6.11638
 30
0.0
 40
0
 41
0
  0
SEQEND
 8
0
  0
POLYLINE
  8
0
 62
     0
 66
     1
 10
0
 20
0
 30
0.0
 70
     1
 40
0.75
 41
0.75
  0
VERTEX
  8
0
 10
5.21647
 20
6.11638
 30
0.0
 40
0.0104167
 41
0.0104167
  0
VERTEX
  8
0
 10
5.85281
 20
6.11638
 30
0.0
 40
0.0104167
 41
0.0104167
  0
VERTEX
  8
0
 10
5.85281
 20
5.49138
 30
0.0
 40
0.0104167
 41
0.0104167
  0
VERTEX
  8
0
 10
5.21647
 20
5.49138
 30
0.0
 40
0.0104167
 41
0.0104167
  0
VERTEX
  8
0
 10
5.21647
 20
6.11638
 30
0.0
 40
0.0104167
 41
0.0104167
  0
SEQEND
 8
0
  0
POLYLINE
  8
0
 62
     253
 66
     1
 10
0
 20
0
 30
0.0
 40
0.75
 41
0.75
  0
VERTEX
  8
0
 10
5.85281
 20
5.80388
 30
0.0
 40
0.0104167
 41
0.0104167
  0
VERTEX
  8
0
 10
5.21647
 20
5.80388
 30
0.0
 40
0.0104167
 41
0.0104167
  0
SEQEND
 8
0
  0
POLYLINE
  8
0
 62
     7
 66
     1
 10
0
 20
0
 30
0.0
 70
     1
 40
0
 41
0
  0
VERTEX
  8
0
 10
6.48921
 20
6.11638
 30
0.0
 40
0
 41
0
  0
VERTEX
  8
0
 10
7.07785
 20
6.11638
 30
0.0
 40
0
 41
0
  0
VERTEX
  8
0
 10
7.07785
 20
5.49138
 30
0.0
 40
0
 41
0
  0
VERTEX
  8
0
 10
6.48921
 20
5.49138
 30
0.0
 40
0
 41
0
  0
VERTEX
  8
0
 10
6.48921
 20
6.11638
 30
0.0
 40
0
 41
0
  0
SEQEND
 8
0
  0
POLYLINE
  8
0
 62
     0
 66
     1
 10
0
 20
0
 30
0.0
 70
     1
 40
0.75
 41
0.75
  0
VERTEX
  8
0
 10
6.48921
 20
6.11638
 30
0.0
 40
0.0104167
 41
0.0104167
  0
VERTEX
  8
0
 10
7.07785
 20
6.11638
 30
0.0
 40
0.0104167
 41
0.0104167
  0
VERTEX
  8
0
 10
7.07785
 20
5.49138
 30
0.0
 40
0.0104167
 41
0.0104167
  0
VERTEX
  8
0
 10
6.48921
 20
5.49138
 30
0.0
 40
0.0104167
 41
0.0104167
  0
VERTEX
  8
0
 10
6.48921
 20
6.11638
 30
0.0
 40
0.0104167
 41
0.0104167
  0
SEQEND
 8
0
  0
POLYLINE
  8
0
 62
     7
 66
     1
 10
0
 20
0
 30
0.0
 70
     1
 40
0
 41
0
  0
VERTEX
  8
0
 10
8.35232
 20
5.20806
 30
0.0
 40
0
 41
0
  0
VERTEX
  8
0
 10
8.97732
 20
5.20806
 30
0.0
 40
0
 41
0
  0
VERTEX
  8
0
 10
8.97732
 20
4.62494
 30
0.0
 40
0
 41
0
  0
VERTEX
  8
0
 10
8.35232
 20
4.62494
 30
0.0
 40
0
 41
0
  0
VERTEX
  8
0
 10
8.35232
 20
5.20806
 30
0.0
 40
0
 41
0
  0
SEQEND
 8
0
  0
POLYLINE
  8
0
 62
     0
 66
     1
 10
0
 20
0
 30
0.0
 70
     1
 40
0.75
 41
0.75
  0
VERTEX
  8
0
 10
8.35232
 20
5.20806
 30
0.0
 40
0.0104167
 41
0.0104167
  0
VERTEX
  8
0
 10
8.35232
 20
4.62494
 30
0.0
 40
0.0104167
 41
0.0104167
  0
VERTEX
  8
0
 10
8.97732
 20
4.62494
 30
0.0
 40
0.0104167
 41
0.0104167
  0
VERTEX
  8
0
 10
8.97732
 20
5.20806
 30
0.0
 40
0.0104167
 41
0.0104167
  0
VERTEX
  8
0
 10
8.35232
 20
5.20806
 30
0.0
 40
0.0104167
 41
0.0104167
  0
SEQEND
 8
0
  0
POLYLINE
  8
0
 62
     7
 66
     1
 10
0
 20
0
 30
0.0
 70
     1
 40
0
 41
0
  0
VERTEX
  8
0
 10
8.35232
 20
4.62494
 30
0.0
 40
0
 41
0
  0
VERTEX
  8
0
 10
8.97732
 20
4.62494
 30
0.0
 40
0
 41
0
  0
VERTEX
  8
0
 10
8.97732
 20
4.04183
 30
0.0
 40
0
 41
0
  0
VERTEX
  8
0
 10
8.35232
 20
4.04183
 30
0.0
 40
0
 41
0
  0
VERTEX
  8
0
 10
8.35232
 20
4.62494
 30
0.0
 40
0
 41
0
  0
SEQEND
 8
0
  0
POLYLINE
  8
0
 62
     0
 66
     1
 10
0
 20
0
 30
0.0
 70
     1
 40
0.75
 41
0.75
  0
VERTEX
  8
0
 10
8.35232
 20
4.62494
 30
0.0
 40
0.0104167
 41
0.0104167
  0
VERTEX
  8
0
 10
8.35232
 20
4.04183
 30
0.0
 40
0.0104167
 41
0.0104167
  0
VERTEX
  8
0
 10
8.97732
 20
4.04183
 30
0.0
 40
0.0104167
 41
0.0104167
  0
VERTEX
  8
0
 10
8.97732
 20
4.62494
 30
0.0
 40
0.0104167
 41
0.0104167
  0
VERTEX
  8
0
 10
8.35232
 20
4.62494
 30
0.0
 40
0.0104167
 41
0.0104167
  0
SEQEND
 8
0
  0
POLYLINE
  8
0
 62
     7
 66
     1
 10
0
 20
0
 30
0.0
 70
     1
 40
0
 41
0
  0
VERTEX
  8
0
 10
8.35232
 20
4.04183
 30
0.0
 40
0
 41
0
  0
VERTEX
  8
0
 10
8.97732
 20
4.04183
 30
0.0
 40
0
 41
0
  0
VERTEX
  8
0
 10
8.97732
 20
2.70318
 30
0.0
 40
0
 41
0
  0
VERTEX
  8
0
 10
8.35232
 20
2.70318
 30
0.0
 40
0
 41
0
  0
VERTEX
  8
0
 10
8.35232
 20
4.04183
 30
0.0
 40
0
 41
0
  0
SEQEND
 8
0
  0
POLYLINE
  8
0
 62
     0
 66
     1
 10
0
 20
0
 30
0.0
 70
     1
 40
0.75
 41
0.75
  0
VERTEX
  8
0
 10
8.35232
 20
4.04183
 30
0.0
 40
0.0104167
 41
0.0104167
  0
VERTEX
  8
0
 10
8.35232
 20
2.70318
 30
0.0
 40
0.0104167
 41
0.0104167
  0
VERTEX
  8
0
 10
8.97732
 20
2.70318
 30
0.0
 40
0.0104167
 41
0.0104167
  0
VERTEX
  8
0
 10
8.97732
 20
4.04183
 30
0.0
 40
0.0104167
 41
0.0104167
  0
VERTEX
  8
0
 10
8.35232
 20
4.04183
 30
0.0
 40
0.0104167
 41
0.0104167
  0
SEQEND
 8
0
  0
POLYLINE
  8
0
 62
     253
 66
     1
 10
0
 20
0
 30
0.0
 40
0.75
 41
0.75
  0
VERTEX
  8
0
 10
8.66482
 20
4.04183
 30
0.0
 40
0.0104167
 41
0.0104167
  0
VERTEX
  8
0
 10
8.66482
 20
2.70313
 30
0.0
 40
0.0104167
 41
0.0104167
  0
SEQEND
 8
0
  0
POLYLINE
  8
0
 62
     7
 66
     1
 10
0
 20
0
 30
0.0
 70
     1
 40
0
 41
0
  0
VERTEX
  8
0
 10
8.35232
 20
2.70313
 30
0.0
 40
0
 41
0
  0
VERTEX
  8
0
 10
8.97732
 20
2.70313
 30
0.0
 40
0
 41
0
  0
VERTEX
  8
0
 10
8.97732
 20
2.07813
 30
0.0
 40
0
 41
0
  0
VERTEX
  8
0
 10
8.35232
 20
2.07813
 30
0.0
 40
0
 41
0
  0
VERTEX
  8
0
 10
8.35232
 20
2.70313
 30
0.0
 40
0
 41
0
  0
SEQEND
 8
0
  0
POLYLINE
  8
0
 62
     0
 66
     1
 10
0
 20
0
 30
0.0
 70
     1
 40
0.75
 41
0.75
  0
VERTEX
  8
0
 10
8.35232
 20
2.70313
 30
0.0
 40
0.0104167
 41
0.0104167
  0
VERTEX
  8
0
 10
8.35232
 20
2.07813
 30
0.0
 40
0.0104167
 41
0.0104167
  0
VERTEX
  8
0
 10
8.97732
 20
2.07813
 30
0.0
 40
0.0104167
 41
0.0104167
  0
VERTEX
  8
0
 10
8.97732
 20
2.70313
 30
0.0
 40
0.0104167
 41
0.0104167
  0
VERTEX
  8
0
 10
8.35232
 20
2.70313
 30
0.0
 40
0.0104167
 41
0.0104167
  0
SEQEND
 8
0
  0
POLYLINE
  8
0
 62
     7
 66
     1
 10
0
 20
0
 30
0.0
 70
     1
 40
0
 41
0
  0
VERTEX
  8
0
 10
8.39725
 20
2.06896
 30
0.0
 40
0
 41
0
  0
VERTEX
  8
0
 10
8.97646
 20
2.06896
 30
0.0
 40
0
 41
0
  0
VERTEX
  8
0
 10
8.97646
 20
1.92632
 30
0.0
 40
0
 41
0
  0
VERTEX
  8
0
 10
8.39725
 20
1.92632
 30
0.0
 40
0
 41
0
  0
VERTEX
  8
0
 10
8.39725
 20
2.06896
 30
0.0
 40
0
 41
0
  0
SEQEND
 8
0
  0
POLYLINE
  8
0
 62
     0
 66
     1
 10
0
 20
0
 30
0.0
 70
     1
 40
1.02727
 41
1.02727
  0
VERTEX
  8
0
 10
8.39725
 20
2.06896
 30
0.0
 40
0.0142676
 41
0.0142676
  0
VERTEX
  8
0
 10
8.39725
 20
1.92632
 30
0.0
 40
0.0142676
 41
0.0142676
  0
VERTEX
  8
0
 10
8.97646
 20
1.92632
 30
0.0
 40
0.0142676
 41
0.0142676
  0
VERTEX
  8
0
 10
8.97646
 20
2.06896
 30
0.0
 40
0.0142676
 41
0.0142676
  0
VERTEX
  8
0
 10
8.39725
 20
2.06896
 30
0.0
 40
0.0142676
 41
0.0142676
  0
SEQEND
 8
0
  0
POLYLINE
  8
0
 62
     7
 66
     1
 10
0
 20
0
 30
0.0
 70
     1
 40
0
 41
0
  0
VERTEX
  8
0
 10
4.81185
 20
3.26514
 30
0.0
 40
0
 41
0
  0
VERTEX
  8
0
 10
5.20053
 20
3.26514
 30
0.0
 40
0
 41
0
  0
VERTEX
  8
0
 10
5.20053
 20
2.59392
 30
0.0
 40
0
 41
0
  0
VERTEX
  8
0
 10
4.81185
 20
2.59392
 30
0.0
 40
0
 41
0
  0
VERTEX
  8
0
 10
4.81185
 20
3.26514
 30
0.0
 40
0
 41
0
  0
SEQEND
 8
0
  0
POLYLINE
  8
0
 62
     0
 66
     1
 10
0
 20
0
 30
0.0
 70
     1
 40
0.75
 41
0.75
  0
VERTEX
  8
0
 10
4.81185
 20
3.26514
 30
0.0
 40
0.0104167
 41
0.0104167
  0
VERTEX
  8
0
 10
4.81185
 20
2.59392
 30
0.0
 40
0.0104167
 41
0.0104167
  0
VERTEX
  8
0
 10
5.20053
 20
2.59392
 30
0.0
 40
0.0104167
 41
0.0104167
  0
VERTEX
  8
0
 10
5.20053
 20
3.26514
 30
0.0
 40
0.0104167
 41
0.0104167
  0
VERTEX
  8
0
 10
4.81185
 20
3.26514
 30
0.0
 40
0.0104167
 41
0.0104167
  0
SEQEND
 8
0
  0
POLYLINE
  8
0
 62
     7
 66
     1
 10
0
 20
0
 30
0.0
 70
     1
 40
0
 41
0
  0
VERTEX
  8
0
 10
4.81185
 20
2.59386
 30
0.0
 40
0
 41
0
  0
VERTEX
  8
0
 10
5.20053
 20
2.59386
 30
0.0
 40
0
 41
0
  0
VERTEX
  8
0
 10
5.20053
 20
1.92264
 30
0.0
 40
0
 41
0
  0
VERTEX
  8
0
 10
4.81185
 20
1.92264
 30
0.0
 40
0
 41
0
  0
VERTEX
  8
0
 10
4.81185
 20
2.59386
 30
0.0
 40
0
 41
0
  0
SEQEND
 8
0
  0
POLYLINE
  8
0
 62
     0
 66
     1
 10
0
 20
0
 30
0.0
 70
     1
 40
0.75
 41
0.75
  0
VERTEX
  8
0
 10
4.81185
 20
2.59386
 30
0.0
 40
0.0104167
 41
0.0104167
  0
VERTEX
  8
0
 10
4.81185
 20
1.92264
 30
0.0
 40
0.0104167
 41
0.0104167
  0
VERTEX
  8
0
 10
5.20053
 20
1.92264
 30
0.0
 40
0.0104167
 41
0.0104167
  0
VERTEX
  8
0
 10
5.20053
 20
2.59386
 30
0.0
 40
0.0104167
 41
0.0104167
  0
VERTEX
  8
0
 10
4.81185
 20
2.59386
 30
0.0
 40
0.0104167
 41
0.0104167
  0
SEQEND
 8
0
  0
POLYLINE
  8
0
 62
     7
 66
     1
 10
0
 20
0
 30
0.0
 70
     1
 40
0
 41
0
  0
VERTEX
  8
0
 10
2.95557
 20
6.03907
 30
0.0
 40
0
 41
0
  0
VERTEX
  8
0
 10
3.58057
 20
6.03907
 30
0.0
 40
0
 41
0
  0
VERTEX
  8
0
 10
3.58057
 20
5.41407
 30
0.0
 40
0
 41
0
  0
VERTEX
  8
0
 10
2.95557
 20
5.41407
 30
0.0
 40
0
 41
0
  0
VERTEX
  8
0
 10
2.95557
 20
6.03907
 30
0.0
 40
0
 41
0
  0
SEQEND
 8
0
  0
POLYLINE
  8
0
 62
     0
 66
     1
 10
0
 20
0
 30
0.0
 70
     1
 40
0.75
 41
0.75
  0
VERTEX
  8
0
 10
2.95557
 20
6.03907
 30
0.0
 40
0.0104167
 41
0.0104167
  0
VERTEX
  8
0
 10
3.58057
 20
6.03907
 30
0.0
 40
0.0104167
 41
0.0104167
  0
VERTEX
  8
0
 10
3.58057
 20
5.41407
 30
0.0
 40
0.0104167
 41
0.0104167
  0
VERTEX
  8
0
 10
2.95557
 20
5.41407
 30
0.0
 40
0.0104167
 41
0.0104167
  0
VERTEX
  8
0
 10
2.95557
 20
6.03907
 30
0.0
 40
0.0104167
 41
0.0104167
  0
SEQEND
 8
0
  0
POLYLINE
  8
0
 62
     7
 66
     1
 10
0
 20
0
 30
0.0
 70
     1
 40
0
 41
0
  0
VERTEX
  8
0
 10
2.28342
 20
6.03907
 30
0.0
 40
0
 41
0
  0
VERTEX
  8
0
 10
2.95551
 20
6.03907
 30
0.0
 40
0
 41
0
  0
VERTEX
  8
0
 10
2.95551
 20
5.41407
 30
0.0
 40
0
 41
0
  0
VERTEX
  8
0
 10
2.28342
 20
5.41407
 30
0.0
 40
0
 41
0
  0
VERTEX
  8
0
 10
2.28342
 20
6.03907
 30
0.0
 40
0
 41
0
  0
SEQEND
 8
0
  0
POLYLINE
  8
0
 62
     0
 66
     1
 10
0
 20
0
 30
0.0
 70
     1
 40
0.75
 41
0.75
  0
VERTEX
  8
0
 10
2.28342
 20
6.03907
 30
0.0
 40
0.0104167
 41
0.0104167
  0
VERTEX
  8
0
 10
2.95551
 20
6.03907
 30
0.0
 40
0.0104167
 41
0.0104167
  0
VERTEX
  8
0
 10
2.95551
 20
5.41407
 30
0.0
 40
0.0104167
 41
0.0104167
  0
VERTEX
  8
0
 10
2.28342
 20
5.41407
 30
0.0
 40
0.0104167
 41
0.0104167
  0
VERTEX
  8
0
 10
2.28342
 20
6.03907
 30
0.0
 40
0.0104167
 41
0.0104167
  0
SEQEND
 8
0
  0
POLYLINE
  8
0
 62
     253
 66
     1
 10
0
 20
0
 30
0.0
 40
0.75
 41
0.75
  0
VERTEX
  8
0
 10
2.28342
 20
5.72657
 30
0.0
 40
0.0104167
 41
0.0104167
  0
VERTEX
  8
0
 10
2.95557
 20
5.72657
 30
0.0
 40
0.0104167
 41
0.0104167
  0
SEQEND
 8
0
  0
POLYLINE
  8
0
 62
     7
 66
     1
 10
0
 20
0
 30
0.0
 70
     1
 40
0
 41
0
  0
VERTEX
  8
0
 10
3.65093
 20
1.57297
 30
0.0
 40
0
 41
0
  0
VERTEX
  8
0
 10
3.65093
 20
0.0974393
 30
0.0
 40
0
 41
0
  0
VERTEX
  8
0
 10
3.55718
 20
0.00368924
 30
0.0
 40
0
 41
0
  0
VERTEX
  8
0
 10
3.55718
 20
1.57297
 30
0.0
 40
0
 41
0
  0
VERTEX
  8
0
 10
3.65093
 20
1.57297
 30
0.0
 40
0
 41
0
  0
SEQEND
 8
0
  0
POLYLINE
  8
0
 62
     0
 66
     1
 10
0
 20
0
 30
0.0
 70
     1
 40
0.15
 41
0.15
  0
VERTEX
  8
0
 10
3.65093
 20
1.57297
 30
0.0
 40
0.00208333
 41
0.00208333
  0
VERTEX
  8
0
 10
3.65093
 20
0.0974393
 30
0.0
 40
0.00208333
 41
0.00208333
  0
VERTEX
  8
0
 10
3.55718
 20
0.00368924
 30
0.0
 40
0.00208333
 41
0.00208333
  0
VERTEX
  8
0
 10
3.55718
 20
1.57297
 30
0.0
 40
0.00208333
 41
0.00208333
  0
VERTEX
  8
0
 10
3.65093
 20
1.57297
 30
0.0
 40
0.00208333
 41
0.00208333
  0
SEQEND
 8
0
  0
POLYLINE
  8
0
 62
     7
 66
     1
 10
0
 20
0
 30
0.0
 70
     1
 40
0
 41
0
  0
VERTEX
  8
0
 10
3.65093
 20
0.0974393
 30
0.0
 40
0
 41
0
  0
VERTEX
  8
0
 10
7.99511
 20
0.0974393
 30
0.0
 40
0
 41
0
  0
VERTEX
  8
0
 10
7.99511
 20
0.00368924
 30
0.0
 40
0
 41
0
  0
VERTEX
  8
0
 10
3.55718
 20
0.00368924
 30
0.0
 40
0
 41
0
  0
VERTEX
  8
0
 10
3.65093
 20
0.0974393
 30
0.0
 40
0
 41
0
  0
SEQEND
 8
0
  0
POLYLINE
  8
0
 62
     0
 66
     1
 10
0
 20
0
 30
0.0
 70
     1
 40
0.15
 41
0.15
  0
VERTEX
  8
0
 10
3.65093
 20
0.0974393
 30
0.0
 40
0.00208333
 41
0.00208333
  0
VERTEX
  8
0
 10
7.99511
 20
0.0974393
 30
0.0
 40
0.00208333
 41
0.00208333
  0
VERTEX
  8
0
 10
7.99511
 20
0.00368924
 30
0.0
 40
0.00208333
 41
0.00208333
  0
VERTEX
  8
0
 10
3.55718
 20
0.00368924
 30
0.0
 40
0.00208333
 41
0.00208333
  0
VERTEX
  8
0
 10
3.65093
 20
0.0974393
 30
0.0
 40
0.00208333
 41
0.00208333
  0
SEQEND
 8
0
  0
POLYLINE
  8
0
 62
     7
 66
     1
 10
0
 20
0
 30
0.0
 70
     1
 40
0
 41
0
  0
VERTEX
  8
0
 10
9.065
 20
1.57297
 30
0.0
 40
0
 41
0
  0
VERTEX
  8
0
 10
9.15875
 20
1.57297
 30
0.0
 40
0
 41
0
  0
VERTEX
  8
0
 10
9.15875
 20
0.0974393
 30
0.0
 40
0
 41
0
  0
VERTEX
  8
0
 10
9.065
 20
0.0974393
 30
0.0
 40
0
 41
0
  0
VERTEX
  8
0
 10
9.065
 20
1.57297
 30
0.0
 40
0
 41
0
  0
SEQEND
 8
0
  0
POLYLINE
  8
0
 62
     0
 66
     1
 10
0
 20
0
 30
0.0
 70
     1
 40
0.15
 41
0.15
  0
VERTEX
  8
0
 10
9.065
 20
1.57297
 30
0.0
 40
0.00208333
 41
0.00208333
  0
VERTEX
  8
0
 10
9.15875
 20
1.57297
 30
0.0
 40
0.00208333
 41
0.00208333
  0
VERTEX
  8
0
 10
9.15875
 20
0.0974393
 30
0.0
 40
0.00208333
 41
0.00208333
  0
VERTEX
  8
0
 10
9.065
 20
0.0974393
 30
0.0
 40
0.00208333
 41
0.00208333
  0
VERTEX
  8
0
 10
9.065
 20
1.57297
 30
0.0
 40
0.00208333
 41
0.00208333
  0
SEQEND
 8
0
  0
POLYLINE
  8
0
 62
     0
 66
     1
 10
0
 20
0
 30
0.0
 70
     1
 40
0
 41
0
  0
VERTEX
  8
0
 10
3.65093
 20
0.0974393
 30
0.0
 40
0
 41
0
  0
VERTEX
  8
0
 10
3.5574
 20
0.0974393
 30
0.0
 40
0
 41
0
  0
VERTEX
  8
0
 10
3.55718
 20
0.00368924
 30
0.0
 40
0
 41
0
  0
VERTEX
  8
0
 10
3.65072
 20
0.00368924
 30
0.0
 40
0
 41
0
  0
VERTEX
  8
0
 10
3.65093
 20
0.0974393
 30
0.0
 40
0
 41
0
  0
SEQEND
 8
0
  0
POLYLINE
  8
0
 62
     0
 66
     1
 10
0
 20
0
 30
0.0
 70
     1
 40
0
 41
0
  0
VERTEX
  8
0
 10
7.99501
 20
0.0975478
 30
0.0
 40
0
 41
0
  0
VERTEX
  8
0
 10
7.90147
 20
0.0975478
 30
0.0
 40
0
 41
0
  0
VERTEX
  8
0
 10
7.90126
 20
0.00379775
 30
0.0
 40
0
 41
0
  0
VERTEX
  8
0
 10
7.99479
 20
0.00379775
 30
0.0
 40
0
 41
0
  0
VERTEX
  8
0
 10
7.99501
 20
0.0975478
 30
0.0
 40
0
 41
0
  0
SEQEND
 8
0
  0
POLYLINE
  8
0
 62
     0
 66
     1
 10
0
 20
0
 30
0.0
 70
     1
 40
0
 41
0
  0
VERTEX
  8
0
 10
9.15446
 20
0.0974393
 30
0.0
 40
0
 41
0
  0
VERTEX
  8
0
 10
9.06093
 20
0.0974393
 30
0.0
 40
0
 41
0
  0
VERTEX
  8
0
 10
9.06071
 20
0.00368924
 30
0.0
 40
0
 41
0
  0
VERTEX
  8
0
 10
9.15429
 20
0.00368924
 30
0.0
 40
0
 41
0
  0
VERTEX
  8
0
 10
9.15446
 20
0.0974393
 30
0.0
 40
0
 41
0
  0
SEQEND
 8
0
  0
POLYLINE
  8
0
 62
     7
 66
     1
 10
0
 20
0
 30
0.0
 70
     1
 40
0
 41
0
  0
VERTEX
  8
0
 10
8.45085
 20
10.8258
 30
0.0
 40
0
 41
0
  0
VERTEX
  8
0
 10
8.97667
 20
10.8258
 30
0.0
 40
0
 41
0
  0
VERTEX
  8
0
 10
8.97667
 20
9.24121
 30
0.0
 40
0
 41
0
  0
VERTEX
  8
0
 10
8.45085
 20
9.24121
 30
0.0
 40
0
 41
0
  0
VERTEX
  8
0
 10
8.45085
 20
10.8258
 30
0.0
 40
0
 41
0
  0
SEQEND
 8
0
  0
POLYLINE
  8
0
 62
     0
 66
     1
 10
0
 20
0
 30
0.0
 70
     1
 40
0.75
 41
0.75
  0
VERTEX
  8
0
 10
8.45085
 20
10.8258
 30
0.0
 40
0.0104167
 41
0.0104167
  0
VERTEX
  8
0
 10
8.45085
 20
9.24121
 30
0.0
 40
0.0104167
 41
0.0104167
  0
VERTEX
  8
0
 10
8.97667
 20
9.24121
 30
0.0
 40
0.0104167
 41
0.0104167
  0
VERTEX
  8
0
 10
8.97667
 20
10.8258
 30
0.0
 40
0.0104167
 41
0.0104167
  0
VERTEX
  8
0
 10
8.45085
 20
10.8258
 30
0.0
 40
0.0104167
 41
0.0104167
  0
SEQEND
 8
0
  0
POLYLINE
  8
0
 62
     253
 66
     1
 10
0
 20
0
 30
0.0
 40
0.375
 41
0.375
  0
VERTEX
  8
0
 10
8.94163
 20
10.8258
 30
0.0
 40
0.00520833
 41
0.00520833
  0
VERTEX
  8
0
 10
8.94163
 20
9.24115
 30
0.0
 40
0.00520833
 41
0.00520833
  0
SEQEND
 8
0
  0
POLYLINE
  8
0
 62
     253
 66
     1
 10
0
 20
0
 30
0.0
 40
0.375
 41
0.375
  0
VERTEX
  8
0
 10
8.90657
 20
10.8258
 30
0.0
 40
0.00520833
 41
0.00520833
  0
VERTEX
  8
0
 10
8.90657
 20
9.24115
 30
0.0
 40
0.00520833
 41
0.00520833
  0
SEQEND
 8
0
  0
POLYLINE
  8
0
 62
     253
 66
     1
 10
0
 20
0
 30
0.0
 40
0.375
 41
0.375
  0
VERTEX
  8
0
 10
8.87153
 20
10.8258
 30
0.0
 40
0.00520833
 41
0.00520833
  0
VERTEX
  8
0
 10
8.87153
 20
9.24115
 30
0.0
 40
0.00520833
 41
0.00520833
  0
SEQEND
 8
0
  0
POLYLINE
  8
0
 62
     253
 66
     1
 10
0
 20
0
 30
0.0
 40
0.375
 41
0.375
  0
VERTEX
  8
0
 10
8.83649
 20
10.8258
 30
0.0
 40
0.00520833
 41
0.00520833
  0
VERTEX
  8
0
 10
8.83649
 20
9.24115
 30
0.0
 40
0.00520833
 41
0.00520833
  0
SEQEND
 8
0
  0
POLYLINE
  8
0
 62
     253
 66
     1
 10
0
 20
0
 30
0.0
 40
0.375
 41
0.375
  0
VERTEX
  8
0
 10
8.80143
 20
10.8258
 30
0.0
 40
0.00520833
 41
0.00520833
  0
VERTEX
  8
0
 10
8.80143
 20
9.24115
 30
0.0
 40
0.00520833
 41
0.00520833
  0
SEQEND
 8
0
  0
POLYLINE
  8
0
 62
     253
 66
     1
 10
0
 20
0
 30
0.0
 40
0.375
 41
0.375
  0
VERTEX
  8
0
 10
8.76639
 20
10.8258
 30
0.0
 40
0.00520833
 41
0.00520833
  0
VERTEX
  8
0
 10
8.76639
 20
9.24115
 30
0.0
 40
0.00520833
 41
0.00520833
  0
SEQEND
 8
0
  0
POLYLINE
  8
0
 62
     253
 66
     1
 10
0
 20
0
 30
0.0
 40
0.375
 41
0.375
  0
VERTEX
  8
0
 10
8.73128
 20
10.8258
 30
0.0
 40
0.00520833
 41
0.00520833
  0
VERTEX
  8
0
 10
8.73128
 20
9.24115
 30
0.0
 40
0.00520833
 41
0.00520833
  0
SEQEND
 8
0
  0
POLYLINE
  8
0
 62
     253
 66
     1
 10
0
 20
0
 30
0.0
 40
0.375
 41
0.375
  0
VERTEX
  8
0
 10
8.69624
 20
10.8258
 30
0.0
 40
0.00520833
 41
0.00520833
  0
VERTEX
  8
0
 10
8.69624
 20
9.24115
 30
0.0
 40
0.00520833
 41
0.00520833
  0
SEQEND
 8
0
  0
POLYLINE
  8
0
 62
     253
 66
     1
 10
0
 20
0
 30
0.0
 40
0.375
 41
0.375
  0
VERTEX
  8
0
 10
8.66118
 20
10.8258
 30
0.0
 40
0.00520833
 41
0.00520833
  0
VERTEX
  8
0
 10
8.66118
 20
9.24115
 30
0.0
 40
0.00520833
 41
0.00520833
  0
SEQEND
 8
0
  0
POLYLINE
  8
0
 62
     253
 66
     1
 10
0
 20
0
 30
0.0
 40
0.375
 41
0.375
  0
VERTEX
  8
0
 10
8.62614
 20
10.8258
 30
0.0
 40
0.00520833
 41
0.00520833
  0
VERTEX
  8
0
 10
8.62614
 20
9.24115
 30
0.0
 40
0.00520833
 41
0.00520833
  0
SEQEND
 8
0
  0
POLYLINE
  8
0
 62
     253
 66
     1
 10
0
 20
0
 30
0.0
 40
0.375
 41
0.375
  0
VERTEX
  8
0
 10
8.5911
 20
10.8258
 30
0.0
 40
0.00520833
 41
0.00520833
  0
VERTEX
  8
0
 10
8.5911
 20
9.24115
 30
0.0
 40
0.00520833
 41
0.00520833
  0
SEQEND
 8
0
  0
POLYLINE
  8
0
 62
     253
 66
     1
 10
0
 20
0
 30
0.0
 40
0.375
 41
0.375
  0
VERTEX
  8
0
 10
8.55604
 20
10.8258
 30
0.0
 40
0.00520833
 41
0.00520833
  0
VERTEX
  8
0
 10
8.55604
 20
9.24115
 30
0.0
 40
0.00520833
 41
0.00520833
  0
SEQEND
 8
0
  0
POLYLINE
  8
0
 62
     253
 66
     1
 10
0
 20
0
 30
0.0
 40
0.375
 41
0.375
  0
VERTEX
  8
0
 10
8.521
 20
10.8258
 30
0.0
 40
0.00520833
 41
0.00520833
  0
VERTEX
  8
0
 10
8.521
 20
9.24115
 30
0.0
 40
0.00520833
 41
0.00520833
  0
SEQEND
 8
0
  0
POLYLINE
  8
0
 62
     253
 66
     1
 10
0
 20
0
 30
0.0
 40
0.375
 41
0.375
  0
VERTEX
  8
0
 10
8.48589
 20
10.8258
 30
0.0
 40
0.00520833
 41
0.00520833
  0
VERTEX
  8
0
 10
8.48589
 20
9.24115
 30
0.0
 40
0.00520833
 41
0.00520833
  0
SEQEND
 8
0
  0
POLYLINE
  8
0
 62
     7
 66
     1
 10
0
 20
0
 30
0.0
 70
     1
 40
0
 41
0
  0
VERTEX
  8
0
 10
8.05333
 20
10.8257
 30
0.0
 40
0
 41
0
  0
VERTEX
  8
0
 10
8.45019
 20
10.8257
 30
0.0
 40
0
 41
0
  0
VERTEX
  8
0
 10
8.45019
 20
9.2411
 30
0.0
 40
0
 41
0
  0
VERTEX
  8
0
 10
8.05333
 20
9.2411
 30
0.0
 40
0
 41
0
  0
VERTEX
  8
0
 10
8.05333
 20
10.8257
 30
0.0
 40
0
 41
0
  0
SEQEND
 8
0
  0
POLYLINE
  8
0
 62
     0
 66
     1
 10
0
 20
0
 30
0.0
 70
     1
 40
0.75
 41
0.75
  0
VERTEX
  8
0
 10
8.05333
 20
10.8257
 30
0.0
 40
0.0104167
 41
0.0104167
  0
VERTEX
  8
0
 10
8.05333
 20
9.2411
 30
0.0
 40
0.0104167
 41
0.0104167
  0
VERTEX
  8
0
 10
8.45019
 20
9.2411
 30
0.0
 40
0.0104167
 41
0.0104167
  0
VERTEX
  8
0
 10
8.45019
 20
10.8257
 30
0.0
 40
0.0104167
 41
0.0104167
  0
VERTEX
  8
0
 10
8.05333
 20
10.8257
 30
0.0
 40
0.0104167
 41
0.0104167
  0
SEQEND
 8
0
  0
POLYLINE
  8
0
 62
     253
 66
     1
 10
0
 20
0
 30
0.0
 40
0.375
 41
0.375
  0
VERTEX
  8
0
 10
8.41054
 20
10.8257
 30
0.0
 40
0.00520833
 41
0.00520833
  0
VERTEX
  8
0
 10
8.41054
 20
9.24104
 30
0.0
 40
0.00520833
 41
0.00520833
  0
SEQEND
 8
0
  0
POLYLINE
  8
0
 62
     253
 66
     1
 10
0
 20
0
 30
0.0
 40
0.375
 41
0.375
  0
VERTEX
  8
0
 10
8.37082
 20
10.8257
 30
0.0
 40
0.00520833
 41
0.00520833
  0
VERTEX
  8
0
 10
8.37082
 20
9.24104
 30
0.0
 40
0.00520833
 41
0.00520833
  0
SEQEND
 8
0
  0
POLYLINE
  8
0
 62
     253
 66
     1
 10
0
 20
0
 30
0.0
 40
0.375
 41
0.375
  0
VERTEX
  8
0
 10
8.33117
 20
10.8257
 30
0.0
 40
0.00520833
 41
0.00520833
  0
VERTEX
  8
0
 10
8.33117
 20
9.24104
 30
0.0
 40
0.00520833
 41
0.00520833
  0
SEQEND
 8
0
  0
POLYLINE
  8
0
 62
     253
 66
     1
 10
0
 20
0
 30
0.0
 40
0.375
 41
0.375
  0
VERTEX
  8
0
 10
8.29144
 20
10.8257
 30
0.0
 40
0.00520833
 41
0.00520833
  0
VERTEX
  8
0
 10
8.29144
 20
9.24104
 30
0.0
 40
0.00520833
 41
0.00520833
  0
SEQEND
 8
0
  0
POLYLINE
  8
0
 62
     253
 66
     1
 10
0
 20
0
 30
0.0
 40
0.375
 41
0.375
  0
VERTEX
  8
0
 10
8.25179
 20
10.8257
 30
0.0
 40
0.00520833
 41
0.00520833
  0
VERTEX
  8
0
 10
8.25179
 20
9.24104
 30
0.0
 40
0.00520833
 41
0.00520833
  0
SEQEND
 8
0
  0
POLYLINE
  8
0
 62
     253
 66
     1
 10
0
 20
0
 30
0.0
 40
0.375
 41
0.375
  0
VERTEX
  8
0
 10
8.21213
 20
10.8257
 30
0.0
 40
0.00520833
 41
0.00520833
  0
VERTEX
  8
0
 10
8.21213
 20
9.24104
 30
0.0
 40
0.00520833
 41
0.00520833
  0
SEQEND
 8
0
  0
POLYLINE
  8
0
 62
     253
 66
     1
 10
0
 20
0
 30
0.0
 40
0.375
 41
0.375
  0
VERTEX
  8
0
 10
8.17242
 20
10.8257
 30
0.0
 40
0.00520833
 41
0.00520833
  0
VERTEX
  8
0
 10
8.17242
 20
9.24104
 30
0.0
 40
0.00520833
 41
0.00520833
  0
SEQEND
 8
0
  0
POLYLINE
  8
0
 62
     253
 66
     1
 10
0
 20
0
 30
0.0
 40
0.375
 41
0.375
  0
VERTEX
  8
0
 10
8.13276
 20
10.8257
 30
0.0
 40
0.00520833
 41
0.00520833
  0
VERTEX
  8
0
 10
8.13276
 20
9.24104
 30
0.0
 40
0.00520833
 41
0.00520833
  0
SEQEND
 8
0
  0
POLYLINE
  8
0
 62
     253
 66
     1
 10
0
 20
0
 30
0.0
 40
0.375
 41
0.375
  0
VERTEX
  8
0
 10
8.09304
 20
10.8257
 30
0.0
 40
0.00520833
 41
0.00520833
  0
VERTEX
  8
0
 10
8.09304
 20
9.24104
 30
0.0
 40
0.00520833
 41
0.00520833
  0
SEQEND
 8
0
  0
POLYLINE
  8
0
 62
     7
 66
     1
 10
0
 20
0
 30
0.0
 70
     1
 40
0
 41
0
  0
VERTEX
  8
0
 10
7.58649
 20
10.087
 30
0.0
 40
0
 41
0
  0
VERTEX
  8
0
 10
8.05274
 20
10.087
 30
0.0
 40
0
 41
0
  0
VERTEX
  8
0
 10
8.05274
 20
9.39714
 30
0.0
 40
0
 41
0
  0
VERTEX
  8
0
 10
7.58649
 20
9.39714
 30
0.0
 40
0
 41
0
  0
VERTEX
  8
0
 10
7.58649
 20
10.087
 30
0.0
 40
0
 41
0
  0
SEQEND
 8
0
  0
POLYLINE
  8
0
 62
     0
 66
     1
 10
0
 20
0
 30
0.0
 70
     1
 40
0.75
 41
0.75
  0
VERTEX
  8
0
 10
7.58649
 20
10.087
 30
0.0
 40
0.0104167
 41
0.0104167
  0
VERTEX
  8
0
 10
7.58649
 20
9.39714
 30
0.0
 40
0.0104167
 41
0.0104167
  0
VERTEX
  8
0
 10
8.05274
 20
9.39714
 30
0.0
 40
0.0104167
 41
0.0104167
  0
VERTEX
  8
0
 10
8.05274
 20
10.087
 30
0.0
 40
0.0104167
 41
0.0104167
  0
VERTEX
  8
0
 10
7.58649
 20
10.087
 30
0.0
 40
0.0104167
 41
0.0104167
  0
SEQEND
 8
0
  0
POLYLINE
  8
0
 62
     253
 66
     1
 10
0
 20
0
 30
0.0
 40
0.375
 41
0.375
  0
VERTEX
  8
0
 10
8.00608
 20
10.087
 30
0.0
 40
0.00520833
 41
0.00520833
  0
VERTEX
  8
0
 10
8.00608
 20
9.39714
 30
0.0
 40
0.00520833
 41
0.00520833
  0
SEQEND
 8
0
  0
POLYLINE
  8
0
 62
     253
 66
     1
 10
0
 20
0
 30
0.0
 40
0.375
 41
0.375
  0
VERTEX
  8
0
 10
7.95947
 20
10.087
 30
0.0
 40
0.00520833
 41
0.00520833
  0
VERTEX
  8
0
 10
7.95947
 20
9.39714
 30
0.0
 40
0.00520833
 41
0.00520833
  0
SEQEND
 8
0
  0
POLYLINE
  8
0
 62
     253
 66
     1
 10
0
 20
0
 30
0.0
 40
0.375
 41
0.375
  0
VERTEX
  8
0
 10
7.91287
 20
10.087
 30
0.0
 40
0.00520833
 41
0.00520833
  0
VERTEX
  8
0
 10
7.91287
 20
9.39714
 30
0.0
 40
0.00520833
 41
0.00520833
  0
SEQEND
 8
0
  0
POLYLINE
  8
0
 62
     253
 66
     1
 10
0
 20
0
 30
0.0
 40
0.375
 41
0.375
  0
VERTEX
  8
0
 10
7.86621
 20
10.087
 30
0.0
 40
0.00520833
 41
0.00520833
  0
VERTEX
  8
0
 10
7.86621
 20
9.39714
 30
0.0
 40
0.00520833
 41
0.00520833
  0
SEQEND
 8
0
  0
POLYLINE
  8
0
 62
     253
 66
     1
 10
0
 20
0
 30
0.0
 40
0.375
 41
0.375
  0
VERTEX
  8
0
 10
7.81961
 20
10.087
 30
0.0
 40
0.00520833
 41
0.00520833
  0
VERTEX
  8
0
 10
7.81961
 20
9.39714
 30
0.0
 40
0.00520833
 41
0.00520833
  0
SEQEND
 8
0
  0
POLYLINE
  8
0
 62
     253
 66
     1
 10
0
 20
0
 30
0.0
 40
0.375
 41
0.375
  0
VERTEX
  8
0
 10
7.773
 20
10.087
 30
0.0
 40
0.00520833
 41
0.00520833
  0
VERTEX
  8
0
 10
7.773
 20
9.39714
 30
0.0
 40
0.00520833
 41
0.00520833
  0
SEQEND
 8
0
  0
POLYLINE
  8
0
 62
     253
 66
     1
 10
0
 20
0
 30
0.0
 40
0.375
 41
0.375
  0
VERTEX
  8
0
 10
7.72635
 20
10.087
 30
0.0
 40
0.00520833
 41
0.00520833
  0
VERTEX
  8
0
 10
7.72635
 20
9.39714
 30
0.0
 40
0.00520833
 41
0.00520833
  0
SEQEND
 8
0
  0
POLYLINE
  8
0
 62
     253
 66
     1
 10
0
 20
0
 30
0.0
 40
0.375
 41
0.375
  0
VERTEX
  8
0
 10
7.67974
 20
10.087
 30
0.0
 40
0.00520833
 41
0.00520833
  0
VERTEX
  8
0
 10
7.67974
 20
9.39714
 30
0.0
 40
0.00520833
 41
0.00520833
  0
SEQEND
 8
0
  0
POLYLINE
  8
0
 62
     253
 66
     1
 10
0
 20
0
 30
0.0
 40
0.375
 41
0.375
  0
VERTEX
  8
0
 10
7.63314
 20
10.087
 30
0.0
 40
0.00520833
 41
0.00520833
  0
VERTEX
  8
0
 10
7.63314
 20
9.39714
 30
0.0
 40
0.00520833
 41
0.00520833
  0
SEQEND
 8
0
  0
POLYLINE
  8
0
 62
     7
 66
     1
 10
0
 20
0
 30
0.0
 70
     1
 40
0
 41
0
  0
VERTEX
  8
0
 10
7.17356
 20
10.702
 30
0.0
 40
0
 41
0
  0
VERTEX
  8
0
 10
7.53814
 20
10.702
 30
0.0
 40
0
 41
0
  0
VERTEX
  8
0
 10
7.53814
 20
10.2309
 30
0.0
 40
0
 41
0
  0
VERTEX
  8
0
 10
7.17356
 20
10.2309
 30
0.0
 40
0
 41
0
  0
VERTEX
  8
0
 10
7.17356
 20
10.702
 30
0.0
 40
0
 41
0
  0
SEQEND
 8
0
  0
POLYLINE
  8
0
 62
     0
 66
     1
 10
0
 20
0
 30
0.0
 70
     1
 40
0.56535
 41
0.56535
  0
VERTEX
  8
0
 10
7.17356
 20
10.702
 30
0.0
 40
0.00785208
 41
0.00785208
  0
VERTEX
  8
0
 10
7.17356
 20
10.2309
 30
0.0
 40
0.00785208
 41
0.00785208
  0
VERTEX
  8
0
 10
7.53814
 20
10.2309
 30
0.0
 40
0.00785208
 41
0.00785208
  0
VERTEX
  8
0
 10
7.53814
 20
10.702
 30
0.0
 40
0.00785208
 41
0.00785208
  0
VERTEX
  8
0
 10
7.17356
 20
10.702
 30
0.0
 40
0.00785208
 41
0.00785208
  0
SEQEND
 8
0
  0
POLYLINE
  8
0
 62
     0
 66
     1
 10
0
 20
0
 30
0.0
 40
0.56535
 41
0.56535
  0
VERTEX
  8
0
 10
7.53814
 20
10.2309
 30
0.0
 40
0.00785208
 41
0.00785208
  0
VERTEX
  8
0
 10
7.35585
 20
10.5426
 30
0.0
 40
0.00785208
 41
0.00785208
  0
VERTEX
  8
0
 10
7.35585
 20
10.3989
 30
0.0
 40
0.00785208
 41
0.00785208
  0
VERTEX
  8
0
 10
7.17356
 20
10.702
 30
0.0
 40
0.00785208
 41
0.00785208
  0
SEQEND
 8
0
  0
ENDSEC
  0
EOF
