  0
SECTION
  2
HEADER
  9
$ACADVER
  1
AC1009
  9
$FILLMODE
 70
 0
  9
$SPLFRAME
 70
 1
  9
$EXTMIN
 10
0
 20
0
 30
0.0
  9
$EXTMAX
 10
41.6667
 20
41.6667
 30
0.0
  0
ENDSEC
  0
SECTION
  2
TABLES
  0
TABLE
  2
LAYER
 70
1
  0
LAYER
  2
0
 70
     0
 62
     7
  6
CONTINUOUS
  0
ENDTAB
  0
ENDSEC
  0
SECTION
  2
ENTITIES
  0
POLYLINE
  8
0
 62
     7
 66
     1
 10
0
 20
0
 30
0.0
 70
     1
 40
0
 41
0
  0
VERTEX
  8
0
 10
5.7654
 20
2.32449
 30
0.0
 40
0
 41
0
  0
VERTEX
  8
0
 10
8.38428
 20
2.32449
 30
0.0
 40
0
 41
0
  0
VERTEX
  8
0
 10
8.38428
 20
1.05306
 30
0.0
 40
0
 41
0
  0
VERTEX
  8
0
 10
5.7654
 20
1.05306
 30
0.0
 40
0
 41
0
  0
VERTEX
  8
0
 10
5.7654
 20
2.32449
 30
0.0
 40
0
 41
0
  0
SEQEND
 8
0
  0
POLYLINE
  8
0
 62
     7
 66
     1
 10
0
 20
0
 30
0.0
 70
     1
 40
0.15
 41
0.15
  0
VERTEX
  8
0
 10
5.7654
 20
2.32449
 30
0.0
 40
0.00208333
 41
0.00208333
  0
VERTEX
  8
0
 10
8.38428
 20
2.32449
 30
0.0
 40
0.00208333
 41
0.00208333
  0
VERTEX
  8
0
 10
8.38428
 20
1.05306
 30
0.0
 40
0.00208333
 41
0.00208333
  0
VERTEX
  8
0
 10
5.7654
 20
1.05306
 30
0.0
 40
0.00208333
 41
0.00208333
  0
VERTEX
  8
0
 10
5.7654
 20
2.32449
 30
0.0
 40
0.00208333
 41
0.00208333
  0
SEQEND
 8
0
  0
TEXT
  8
0
 62
     0
 10
6.40115
 20
1.68878
 30
0.0
 40
0.34375
  1
UNDEFINED
 50
0
  0
POLYLINE
  8
0
 62
     7
 66
     1
 10
0
 20
0
 30
0.0
 70
     1
 40
0
 41
0
  0
VERTEX
  8
0
 10
4.17583
 20
2.32449
 30
0.0
 40
0
 41
0
  0
VERTEX
  8
0
 10
5.67165
 20
2.32449
 30
0.0
 40
0
 41
0
  0
VERTEX
  8
0
 10
5.67165
 20
1.05306
 30
0.0
 40
0
 41
0
  0
VERTEX
  8
0
 10
4.17583
 20
1.05306
 30
0.0
 40
0
 41
0
  0
VERTEX
  8
0
 10
4.17583
 20
2.32449
 30
0.0
 40
0
 41
0
  0
SEQEND
 8
0
  0
POLYLINE
  8
0
 62
     7
 66
     1
 10
0
 20
0
 30
0.0
 70
     1
 40
0.15
 41
0.15
  0
VERTEX
  8
0
 10
4.17583
 20
2.32449
 30
0.0
 40
0.00208333
 41
0.00208333
  0
VERTEX
  8
0
 10
5.67165
 20
2.32449
 30
0.0
 40
0.00208333
 41
0.00208333
  0
VERTEX
  8
0
 10
5.67165
 20
1.05306
 30
0.0
 40
0.00208333
 41
0.00208333
  0
VERTEX
  8
0
 10
4.17583
 20
1.05306
 30
0.0
 40
0.00208333
 41
0.00208333
  0
VERTEX
  8
0
 10
4.17583
 20
2.32449
 30
0.0
 40
0.00208333
 41
0.00208333
  0
SEQEND
 8
0
  0
TEXT
  8
0
 62
     0
 10
4.98649
 20
1.3339
 30
0.0
 40
0.34375
  1
VH
 50
0
  0
POLYLINE
  8
0
 62
     7
 66
     1
 10
0
 20
0
 30
0.0
 70
     1
 40
0
 41
0
  0
VERTEX
  8
0
 10
4.17583
 20
3.97379
 30
0.0
 40
0
 41
0
  0
VERTEX
  8
0
 10
6.85314
 20
3.97379
 30
0.0
 40
0
 41
0
  0
VERTEX
  8
0
 10
6.85314
 20
2.42865
 30
0.0
 40
0
 41
0
  0
VERTEX
  8
0
 10
4.17583
 20
2.42865
 30
0.0
 40
0
 41
0
  0
VERTEX
  8
0
 10
4.17583
 20
3.97379
 30
0.0
 40
0
 41
0
  0
SEQEND
 8
0
  0
POLYLINE
  8
0
 62
     7
 66
     1
 10
0
 20
0
 30
0.0
 70
     1
 40
0.15
 41
0.15
  0
VERTEX
  8
0
 10
4.17583
 20
3.97379
 30
0.0
 40
0.00208333
 41
0.00208333
  0
VERTEX
  8
0
 10
6.85314
 20
3.97379
 30
0.0
 40
0.00208333
 41
0.00208333
  0
VERTEX
  8
0
 10
6.85314
 20
2.42865
 30
0.0
 40
0.00208333
 41
0.00208333
  0
VERTEX
  8
0
 10
4.17583
 20
2.42865
 30
0.0
 40
0.00208333
 41
0.00208333
  0
VERTEX
  8
0
 10
4.17583
 20
3.97379
 30
0.0
 40
0.00208333
 41
0.00208333
  0
SEQEND
 8
0
  0
TEXT
  8
0
 62
     0
 10
5.53068
 20
2.81144
 30
0.0
 40
0.34375
  1
KH
 50
0
  0
POLYLINE
  8
0
 62
     7
 66
     1
 10
0
 20
0
 30
0.0
 70
     1
 40
0
 41
0
  0
VERTEX
  8
0
 10
6.85314
 20
4.06754
 30
0.0
 40
0
 41
0
  0
VERTEX
  8
0
 10
4.64914
 20
4.06754
 30
0.0
 40
0
 41
0
  0
VERTEX
  8
0
 10
4.65012
 20
4.69179
 30
0.0
 40
0
 41
0
  0
VERTEX
  8
0
 10
4.18625
 20
4.69179
 30
0.0
 40
0
 41
0
  0
VERTEX
  8
0
 10
4.18446
 20
6.82536
 30
0.0
 40
0
 41
0
  0
VERTEX
  8
0
 10
6.85314
 20
6.82536
 30
0.0
 40
0
 41
0
  0
VERTEX
  8
0
 10
6.85314
 20
4.06754
 30
0.0
 40
0
 41
0
  0
SEQEND
 8
0
  0
POLYLINE
  8
0
 62
     7
 66
     1
 10
0
 20
0
 30
0.0
 70
     1
 40
0.15
 41
0.15
  0
VERTEX
  8
0
 10
6.85314
 20
4.06754
 30
0.0
 40
0.00208333
 41
0.00208333
  0
VERTEX
  8
0
 10
4.64914
 20
4.06754
 30
0.0
 40
0.00208333
 41
0.00208333
  0
VERTEX
  8
0
 10
4.65012
 20
4.69179
 30
0.0
 40
0.00208333
 41
0.00208333
  0
VERTEX
  8
0
 10
4.18625
 20
4.69179
 30
0.0
 40
0.00208333
 41
0.00208333
  0
VERTEX
  8
0
 10
4.18446
 20
6.82536
 30
0.0
 40
0.00208333
 41
0.00208333
  0
VERTEX
  8
0
 10
6.85314
 20
6.82536
 30
0.0
 40
0.00208333
 41
0.00208333
  0
VERTEX
  8
0
 10
6.85314
 20
4.06754
 30
0.0
 40
0.00208333
 41
0.00208333
  0
SEQEND
 8
0
  0
TEXT
  8
0
 62
     0
 10
5.56456
 20
5.50311
 30
0.0
 40
0.34375
  1
KK
 50
0
  0
POLYLINE
  8
0
 62
     7
 66
     1
 10
0
 20
0
 30
0.0
 70
     1
 40
0
 41
0
  0
VERTEX
  8
0
 10
6.99897
 20
6.82536
 30
0.0
 40
0
 41
0
  0
VERTEX
  8
0
 10
10.5621
 20
6.82536
 30
0.0
 40
0
 41
0
  0
VERTEX
  8
0
 10
10.5621
 20
2.42865
 30
0.0
 40
0
 41
0
  0
VERTEX
  8
0
 10
6.99897
 20
2.42865
 30
0.0
 40
0
 41
0
  0
VERTEX
  8
0
 10
6.99897
 20
6.82536
 30
0.0
 40
0
 41
0
  0
SEQEND
 8
0
  0
POLYLINE
  8
0
 62
     7
 66
     1
 10
0
 20
0
 30
0.0
 70
     1
 40
0.15
 41
0.15
  0
VERTEX
  8
0
 10
6.99897
 20
6.82536
 30
0.0
 40
0.00208333
 41
0.00208333
  0
VERTEX
  8
0
 10
10.5621
 20
6.82536
 30
0.0
 40
0.00208333
 41
0.00208333
  0
VERTEX
  8
0
 10
10.5621
 20
2.42865
 30
0.0
 40
0.00208333
 41
0.00208333
  0
VERTEX
  8
0
 10
6.99897
 20
2.42865
 30
0.0
 40
0.00208333
 41
0.00208333
  0
VERTEX
  8
0
 10
6.99897
 20
6.82536
 30
0.0
 40
0.00208333
 41
0.00208333
  0
SEQEND
 8
0
  0
TEXT
  8
0
 62
     0
 10
8.46306
 20
4.57129
 30
0.0
 40
0.34375
  1
OH
 50
0
  0
POLYLINE
  8
0
 62
     7
 66
     1
 10
0
 20
0
 30
0.0
 70
     1
 40
0
 41
0
  0
VERTEX
  8
0
 10
8.48844
 20
2.42865
 30
0.0
 40
0
 41
0
  0
VERTEX
  8
0
 10
10.5621
 20
2.42865
 30
0.0
 40
0
 41
0
  0
VERTEX
  8
0
 10
10.5621
 20
1.05306
 30
0.0
 40
0
 41
0
  0
VERTEX
  8
0
 10
8.48844
 20
1.05306
 30
0.0
 40
0
 41
0
  0
VERTEX
  8
0
 10
8.48844
 20
2.42865
 30
0.0
 40
0
 41
0
  0
SEQEND
 8
0
  0
POLYLINE
  8
0
 62
     7
 66
     1
 10
0
 20
0
 30
0.0
 70
     1
 40
0.15
 41
0.15
  0
VERTEX
  8
0
 10
8.48844
 20
2.42865
 30
0.0
 40
0.00208333
 41
0.00208333
  0
VERTEX
  8
0
 10
10.5621
 20
2.42865
 30
0.0
 40
0.00208333
 41
0.00208333
  0
VERTEX
  8
0
 10
10.5621
 20
1.05306
 30
0.0
 40
0.00208333
 41
0.00208333
  0
VERTEX
  8
0
 10
8.48844
 20
1.05306
 30
0.0
 40
0.00208333
 41
0.00208333
  0
VERTEX
  8
0
 10
8.48844
 20
2.42865
 30
0.0
 40
0.00208333
 41
0.00208333
  0
SEQEND
 8
0
  0
TEXT
  8
0
 62
     0
 10
9.17622
 20
1.74089
 30
0.0
 40
0.34375
  1
UNDEFINED
 50
0
  0
POLYLINE
  8
0
 62
     7
 66
     1
 10
0
 20
0
 30
0.0
 70
     1
 40
0
 41
0
  0
VERTEX
  8
0
 10
7.14133
 20
7.06244
 30
0.0
 40
0
 41
0
  0
VERTEX
  8
0
 10
7.14133
 20
7.92085
 30
0.0
 40
0
 41
0
  0
VERTEX
  8
0
 10
7.73324
 20
8.5364
 30
0.0
 40
0
 41
0
  0
VERTEX
  8
0
 10
9.178
 20
8.53065
 30
0.0
 40
0
 41
0
  0
VERTEX
  8
0
 10
9.8201
 20
7.89344
 30
0.0
 40
0
 41
0
  0
VERTEX
  8
0
 10
9.82417
 20
7.06494
 30
0.0
 40
0
 41
0
  0
VERTEX
  8
0
 10
7.14133
 20
7.06244
 30
0.0
 40
0
 41
0
  0
SEQEND
 8
0
  0
POLYLINE
  8
0
 62
     0
 66
     1
 10
0
 20
0
 30
0.0
 70
     1
 40
0.15
 41
0.15
  0
VERTEX
  8
0
 10
7.14133
 20
7.06244
 30
0.0
 40
0.00208333
 41
0.00208333
  0
VERTEX
  8
0
 10
7.14133
 20
7.92085
 30
0.0
 40
0.00208333
 41
0.00208333
  0
VERTEX
  8
0
 10
7.73324
 20
8.5364
 30
0.0
 40
0.00208333
 41
0.00208333
  0
VERTEX
  8
0
 10
9.178
 20
8.53065
 30
0.0
 40
0.00208333
 41
0.00208333
  0
VERTEX
  8
0
 10
9.8201
 20
7.89344
 30
0.0
 40
0.00208333
 41
0.00208333
  0
VERTEX
  8
0
 10
9.82417
 20
7.06494
 30
0.0
 40
0.00208333
 41
0.00208333
  0
VERTEX
  8
0
 10
7.14133
 20
7.06244
 30
0.0
 40
0.00208333
 41
0.00208333
  0
SEQEND
 8
0
  0
TEXT
  8
0
 62
     0
 10
7.71871
 20
7.67594
 30
0.0
 40
0.34375
  1
ULK
 50
0
  0
TEXT
  8
0
 62
     0
 10
8.39632
 20
7.67594
 30
0.0
 40
0.34375
  1
O
 50
0
  0
TEXT
  8
0
 62
     0
 10
8.65863
 20
7.67594
 30
0.0
 40
0.34375
  1
TILA
 50
0
  0
POLYLINE
  8
0
 62
     0
 66
     1
 10
0
 20
0
 30
0.0
 70
     1
 40
0
 41
0
  0
VERTEX
  8
0
 10
4.02865
 20
7.06494
 30
0.0
 40
0
 41
0
  0
VERTEX
  8
0
 10
10.722
 20
7.06494
 30
0.0
 40
0
 41
0
  0
VERTEX
  8
0
 10
10.5621
 20
6.82536
 30
0.0
 40
0
 41
0
  0
VERTEX
  8
0
 10
4.18446
 20
6.82536
 30
0.0
 40
0
 41
0
  0
VERTEX
  8
0
 10
4.02865
 20
7.06494
 30
0.0
 40
0
 41
0
  0
SEQEND
 8
0
  0
POLYLINE
  8
0
 62
     0
 66
     1
 10
0
 20
0
 30
0.0
 70
     1
 40
0.15
 41
0.15
  0
VERTEX
  8
0
 10
4.02865
 20
7.06494
 30
0.0
 40
0.00208333
 41
0.00208333
  0
VERTEX
  8
0
 10
10.722
 20
7.06494
 30
0.0
 40
0.00208333
 41
0.00208333
  0
VERTEX
  8
0
 10
10.5621
 20
6.82536
 30
0.0
 40
0.00208333
 41
0.00208333
  0
VERTEX
  8
0
 10
4.18446
 20
6.82536
 30
0.0
 40
0.00208333
 41
0.00208333
  0
VERTEX
  8
0
 10
4.02865
 20
7.06494
 30
0.0
 40
0.00208333
 41
0.00208333
  0
SEQEND
 8
0
  0
POLYLINE
  8
0
 62
     7
 66
     1
 10
0
 20
0
 30
0.0
 70
     1
 40
0
 41
0
  0
VERTEX
  8
0
 10
7.46272
 20
7.06494
 30
0.0
 40
0
 41
0
  0
VERTEX
  8
0
 10
8.25342
 20
7.06494
 30
0.0
 40
0
 41
0
  0
VERTEX
  8
0
 10
8.25342
 20
6.82536
 30
0.0
 40
0
 41
0
  0
VERTEX
  8
0
 10
7.46272
 20
6.82536
 30
0.0
 40
0
 41
0
  0
VERTEX
  8
0
 10
7.46272
 20
7.06494
 30
0.0
 40
0
 41
0
  0
SEQEND
 8
0
  0
POLYLINE
  8
0
 62
     0
 66
     1
 10
0
 20
0
 30
0.0
 70
     1
 40
0.75
 41
0.75
  0
VERTEX
  8
0
 10
7.46272
 20
7.06494
 30
0.0
 40
0.0104167
 41
0.0104167
  0
VERTEX
  8
0
 10
8.25342
 20
7.06494
 30
0.0
 40
0.0104167
 41
0.0104167
  0
VERTEX
  8
0
 10
8.25342
 20
6.82536
 30
0.0
 40
0.0104167
 41
0.0104167
  0
VERTEX
  8
0
 10
7.46272
 20
6.82536
 30
0.0
 40
0.0104167
 41
0.0104167
  0
VERTEX
  8
0
 10
7.46272
 20
7.06494
 30
0.0
 40
0.0104167
 41
0.0104167
  0
SEQEND
 8
0
  0
POLYLINE
  8
0
 62
     7
 66
     1
 10
0
 20
0
 30
0.0
 70
     1
 40
0
 41
0
  0
VERTEX
  8
0
 10
7.46272
 20
7.06494
 30
0.0
 40
0
 41
0
  0
VERTEX
  8
0
 10
8.25342
 20
7.06494
 30
0.0
 40
0
 41
0
  0
VERTEX
  8
0
 10
8.25342
 20
6.82536
 30
0.0
 40
0
 41
0
  0
VERTEX
  8
0
 10
7.46272
 20
6.82536
 30
0.0
 40
0
 41
0
  0
VERTEX
  8
0
 10
7.46272
 20
7.06494
 30
0.0
 40
0
 41
0
  0
SEQEND
 8
0
  0
POLYLINE
  8
0
 62
     0
 66
     1
 10
0
 20
0
 30
0.0
 70
     1
 40
0.75
 41
0.75
  0
VERTEX
  8
0
 10
7.46272
 20
7.06494
 30
0.0
 40
0.0104167
 41
0.0104167
  0
VERTEX
  8
0
 10
8.25342
 20
7.06494
 30
0.0
 40
0.0104167
 41
0.0104167
  0
VERTEX
  8
0
 10
8.25342
 20
6.82536
 30
0.0
 40
0.0104167
 41
0.0104167
  0
VERTEX
  8
0
 10
7.46272
 20
6.82536
 30
0.0
 40
0.0104167
 41
0.0104167
  0
VERTEX
  8
0
 10
7.46272
 20
7.06494
 30
0.0
 40
0.0104167
 41
0.0104167
  0
SEQEND
 8
0
  0
POLYLINE
  8
0
 62
     0
 66
     1
 10
0
 20
0
 30
0.0
 70
     1
 40
0.75
 41
0.75
  0
VERTEX
  8
0
 10
8.25342
 20
7.06494
 30
0.0
 40
0.0104167
 41
0.0104167
  0
VERTEX
  8
0
 10
8.25342
 20
7.11128
 30
0.0
 40
0.0104167
 41
0.0104167
  0
VERTEX
  8
0
 10
8.24104
 20
7.25028
 30
0.0
 40
0.0104167
 41
0.0104167
  0
VERTEX
  8
0
 10
8.204
 20
7.41092
 30
0.0
 40
0.0104167
 41
0.0104167
  0
VERTEX
  8
0
 10
8.14219
 20
7.54682
 30
0.0
 40
0.0104167
 41
0.0104167
  0
VERTEX
  8
0
 10
8.05572
 20
7.65799
 30
0.0
 40
0.0104167
 41
0.0104167
  0
VERTEX
  8
0
 10
7.94456
 20
7.74451
 30
0.0
 40
0.0104167
 41
0.0104167
  0
VERTEX
  8
0
 10
7.80865
 20
7.80626
 30
0.0
 40
0.0104167
 41
0.0104167
  0
VERTEX
  8
0
 10
7.648
 20
7.84338
 30
0.0
 40
0.0104167
 41
0.0104167
  0
VERTEX
  8
0
 10
7.509
 20
7.85568
 30
0.0
 40
0.0104167
 41
0.0104167
  0
VERTEX
  8
0
 10
7.46272
 20
7.85568
 30
0.0
 40
0.0104167
 41
0.0104167
  0
VERTEX
  8
0
 10
7.46272
 20
7.06494
 30
0.0
 40
0.0104167
 41
0.0104167
  0
VERTEX
  8
0
 10
8.25342
 20
7.06494
 30
0.0
 40
0.0104167
 41
0.0104167
  0
SEQEND
 8
0
  0
POLYLINE
  8
0
 62
     0
 66
     1
 10
0
 20
0
 30
0.0
 70
     1
 40
0.75
 41
0.75
  0
VERTEX
  8
0
 10
8.25342
 20
6.82536
 30
0.0
 40
0.0104167
 41
0.0104167
  0
VERTEX
  8
0
 10
8.25342
 20
6.77903
 30
0.0
 40
0.0104167
 41
0.0104167
  0
VERTEX
  8
0
 10
8.24104
 20
6.64003
 30
0.0
 40
0.0104167
 41
0.0104167
  0
VERTEX
  8
0
 10
8.204
 20
6.47944
 30
0.0
 40
0.0104167
 41
0.0104167
  0
VERTEX
  8
0
 10
8.14219
 20
6.34353
 30
0.0
 40
0.0104167
 41
0.0104167
  0
VERTEX
  8
0
 10
8.05572
 20
6.23232
 30
0.0
 40
0.0104167
 41
0.0104167
  0
VERTEX
  8
0
 10
7.94456
 20
6.14583
 30
0.0
 40
0.0104167
 41
0.0104167
  0
VERTEX
  8
0
 10
7.80865
 20
6.08404
 30
0.0
 40
0.0104167
 41
0.0104167
  0
VERTEX
  8
0
 10
7.648
 20
6.04699
 30
0.0
 40
0.0104167
 41
0.0104167
  0
VERTEX
  8
0
 10
7.509
 20
6.03461
 30
0.0
 40
0.0104167
 41
0.0104167
  0
VERTEX
  8
0
 10
7.46272
 20
6.03461
 30
0.0
 40
0.0104167
 41
0.0104167
  0
VERTEX
  8
0
 10
7.46272
 20
6.82536
 30
0.0
 40
0.0104167
 41
0.0104167
  0
VERTEX
  8
0
 10
8.25342
 20
6.82536
 30
0.0
 40
0.0104167
 41
0.0104167
  0
SEQEND
 8
0
  0
POLYLINE
  8
0
 62
     7
 66
     1
 10
0
 20
0
 30
0.0
 70
     1
 40
0
 41
0
  0
VERTEX
  8
0
 10
4.88981
 20
7.06494
 30
0.0
 40
0
 41
0
  0
VERTEX
  8
0
 10
6.13499
 20
7.06494
 30
0.0
 40
0
 41
0
  0
VERTEX
  8
0
 10
6.13499
 20
6.82536
 30
0.0
 40
0
 41
0
  0
VERTEX
  8
0
 10
4.88981
 20
6.82536
 30
0.0
 40
0
 41
0
  0
VERTEX
  8
0
 10
4.88981
 20
7.06494
 30
0.0
 40
0
 41
0
  0
SEQEND
 8
0
  0
POLYLINE
  8
0
 62
     0
 66
     1
 10
0
 20
0
 30
0.0
 70
     1
 40
0.75
 41
0.75
  0
VERTEX
  8
0
 10
4.88981
 20
7.06494
 30
0.0
 40
0.0104167
 41
0.0104167
  0
VERTEX
  8
0
 10
6.13499
 20
7.06494
 30
0.0
 40
0.0104167
 41
0.0104167
  0
VERTEX
  8
0
 10
6.13499
 20
6.82536
 30
0.0
 40
0.0104167
 41
0.0104167
  0
VERTEX
  8
0
 10
4.88981
 20
6.82536
 30
0.0
 40
0.0104167
 41
0.0104167
  0
VERTEX
  8
0
 10
4.88981
 20
7.06494
 30
0.0
 40
0.0104167
 41
0.0104167
  0
SEQEND
 8
0
  0
POLYLINE
  8
0
 62
     7
 66
     1
 10
0
 20
0
 30
0.0
 70
     1
 40
0
 41
0
  0
VERTEX
  8
0
 10
4.88981
 20
7.06494
 30
0.0
 40
0
 41
0
  0
VERTEX
  8
0
 10
6.13499
 20
7.06494
 30
0.0
 40
0
 41
0
  0
VERTEX
  8
0
 10
6.13499
 20
6.82536
 30
0.0
 40
0
 41
0
  0
VERTEX
  8
0
 10
4.88981
 20
6.82536
 30
0.0
 40
0
 41
0
  0
VERTEX
  8
0
 10
4.88981
 20
7.06494
 30
0.0
 40
0
 41
0
  0
SEQEND
 8
0
  0
POLYLINE
  8
0
 62
     0
 66
     1
 10
0
 20
0
 30
0.0
 70
     1
 40
0.75
 41
0.75
  0
VERTEX
  8
0
 10
4.88981
 20
7.06494
 30
0.0
 40
0.0104167
 41
0.0104167
  0
VERTEX
  8
0
 10
6.13499
 20
7.06494
 30
0.0
 40
0.0104167
 41
0.0104167
  0
VERTEX
  8
0
 10
6.13499
 20
6.82536
 30
0.0
 40
0.0104167
 41
0.0104167
  0
VERTEX
  8
0
 10
4.88981
 20
6.82536
 30
0.0
 40
0.0104167
 41
0.0104167
  0
VERTEX
  8
0
 10
4.88981
 20
7.06494
 30
0.0
 40
0.0104167
 41
0.0104167
  0
SEQEND
 8
0
  0
POLYLINE
  8
0
 62
     0
 66
     1
 10
0
 20
0
 30
0.0
 40
0.75
 41
0.75
  0
VERTEX
  8
0
 10
4.96793
 20
6.94515
 30
0.0
 40
0.0104167
 41
0.0104167
  0
VERTEX
  8
0
 10
6.05686
 20
6.94515
 30
0.0
 40
0.0104167
 41
0.0104167
  0
SEQEND
 8
0
  0
POLYLINE
  8
0
 62
     0
 66
     1
 10
0
 20
0
 30
0.0
 40
0.75
 41
0.75
  0
VERTEX
  8
0
 10
4.96793
 20
7.06494
 30
0.0
 40
0.0104167
 41
0.0104167
  0
VERTEX
  8
0
 10
4.96793
 20
6.82536
 30
0.0
 40
0.0104167
 41
0.0104167
  0
SEQEND
 8
0
  0
POLYLINE
  8
0
 62
     0
 66
     1
 10
0
 20
0
 30
0.0
 40
0.75
 41
0.75
  0
VERTEX
  8
0
 10
6.05686
 20
7.06494
 30
0.0
 40
0.0104167
 41
0.0104167
  0
VERTEX
  8
0
 10
6.05686
 20
6.82536
 30
0.0
 40
0.0104167
 41
0.0104167
  0
SEQEND
 8
0
  0
POLYLINE
  8
0
 62
     7
 66
     1
 10
0
 20
0
 30
0.0
 70
     1
 40
0
 41
0
  0
VERTEX
  8
0
 10
8.33501
 20
7.06494
 30
0.0
 40
0
 41
0
  0
VERTEX
  8
0
 10
9.58399
 20
7.06494
 30
0.0
 40
0
 41
0
  0
VERTEX
  8
0
 10
9.58399
 20
6.82536
 30
0.0
 40
0
 41
0
  0
VERTEX
  8
0
 10
8.33501
 20
6.82536
 30
0.0
 40
0
 41
0
  0
VERTEX
  8
0
 10
8.33501
 20
7.06494
 30
0.0
 40
0
 41
0
  0
SEQEND
 8
0
  0
POLYLINE
  8
0
 62
     0
 66
     1
 10
0
 20
0
 30
0.0
 70
     1
 40
0.75
 41
0.75
  0
VERTEX
  8
0
 10
8.33501
 20
7.06494
 30
0.0
 40
0.0104167
 41
0.0104167
  0
VERTEX
  8
0
 10
9.58399
 20
7.06494
 30
0.0
 40
0.0104167
 41
0.0104167
  0
VERTEX
  8
0
 10
9.58399
 20
6.82536
 30
0.0
 40
0.0104167
 41
0.0104167
  0
VERTEX
  8
0
 10
8.33501
 20
6.82536
 30
0.0
 40
0.0104167
 41
0.0104167
  0
VERTEX
  8
0
 10
8.33501
 20
7.06494
 30
0.0
 40
0.0104167
 41
0.0104167
  0
SEQEND
 8
0
  0
POLYLINE
  8
0
 62
     7
 66
     1
 10
0
 20
0
 30
0.0
 70
     1
 40
0
 41
0
  0
VERTEX
  8
0
 10
8.33501
 20
7.06494
 30
0.0
 40
0
 41
0
  0
VERTEX
  8
0
 10
9.58399
 20
7.06494
 30
0.0
 40
0
 41
0
  0
VERTEX
  8
0
 10
9.58399
 20
6.82536
 30
0.0
 40
0
 41
0
  0
VERTEX
  8
0
 10
8.33501
 20
6.82536
 30
0.0
 40
0
 41
0
  0
VERTEX
  8
0
 10
8.33501
 20
7.06494
 30
0.0
 40
0
 41
0
  0
SEQEND
 8
0
  0
POLYLINE
  8
0
 62
     0
 66
     1
 10
0
 20
0
 30
0.0
 70
     1
 40
0.75
 41
0.75
  0
VERTEX
  8
0
 10
8.33501
 20
7.06494
 30
0.0
 40
0.0104167
 41
0.0104167
  0
VERTEX
  8
0
 10
9.58399
 20
7.06494
 30
0.0
 40
0.0104167
 41
0.0104167
  0
VERTEX
  8
0
 10
9.58399
 20
6.82536
 30
0.0
 40
0.0104167
 41
0.0104167
  0
VERTEX
  8
0
 10
8.33501
 20
6.82536
 30
0.0
 40
0.0104167
 41
0.0104167
  0
VERTEX
  8
0
 10
8.33501
 20
7.06494
 30
0.0
 40
0.0104167
 41
0.0104167
  0
SEQEND
 8
0
  0
POLYLINE
  8
0
 62
     0
 66
     1
 10
0
 20
0
 30
0.0
 40
0.75
 41
0.75
  0
VERTEX
  8
0
 10
8.41314
 20
6.94515
 30
0.0
 40
0.0104167
 41
0.0104167
  0
VERTEX
  8
0
 10
9.50586
 20
6.94515
 30
0.0
 40
0.0104167
 41
0.0104167
  0
SEQEND
 8
0
  0
POLYLINE
  8
0
 62
     0
 66
     1
 10
0
 20
0
 30
0.0
 40
0.75
 41
0.75
  0
VERTEX
  8
0
 10
8.41314
 20
7.06494
 30
0.0
 40
0.0104167
 41
0.0104167
  0
VERTEX
  8
0
 10
8.41314
 20
6.82536
 30
0.0
 40
0.0104167
 41
0.0104167
  0
SEQEND
 8
0
  0
POLYLINE
  8
0
 62
     0
 66
     1
 10
0
 20
0
 30
0.0
 40
0.75
 41
0.75
  0
VERTEX
  8
0
 10
9.50586
 20
7.06494
 30
0.0
 40
0.0104167
 41
0.0104167
  0
VERTEX
  8
0
 10
9.50586
 20
6.82536
 30
0.0
 40
0.0104167
 41
0.0104167
  0
SEQEND
 8
0
  0
POLYLINE
  8
0
 62
     0
 66
     1
 10
0
 20
0
 30
0.0
 70
     1
 40
0
 41
0
  0
VERTEX
  8
0
 10
10.722
 20
7.06494
 30
0.0
 40
0
 41
0
  0
VERTEX
  8
0
 10
10.722
 20
0.89681
 30
0.0
 40
0
 41
0
  0
VERTEX
  8
0
 10
10.5621
 20
1.05306
 30
0.0
 40
0
 41
0
  0
VERTEX
  8
0
 10
10.5621
 20
6.82536
 30
0.0
 40
0
 41
0
  0
VERTEX
  8
0
 10
10.722
 20
7.06494
 30
0.0
 40
0
 41
0
  0
SEQEND
 8
0
  0
POLYLINE
  8
0
 62
     0
 66
     1
 10
0
 20
0
 30
0.0
 70
     1
 40
0.15
 41
0.15
  0
VERTEX
  8
0
 10
10.722
 20
7.06494
 30
0.0
 40
0.00208333
 41
0.00208333
  0
VERTEX
  8
0
 10
10.722
 20
0.89681
 30
0.0
 40
0.00208333
 41
0.00208333
  0
VERTEX
  8
0
 10
10.5621
 20
1.05306
 30
0.0
 40
0.00208333
 41
0.00208333
  0
VERTEX
  8
0
 10
10.5621
 20
6.82536
 30
0.0
 40
0.00208333
 41
0.00208333
  0
VERTEX
  8
0
 10
10.722
 20
7.06494
 30
0.0
 40
0.00208333
 41
0.00208333
  0
SEQEND
 8
0
  0
POLYLINE
  8
0
 62
     0
 66
     1
 10
0
 20
0
 30
0.0
 70
     1
 40
0
 41
0
  0
VERTEX
  8
0
 10
10.722
 20
0.89681
 30
0.0
 40
0
 41
0
  0
VERTEX
  8
0
 10
4.01937
 20
0.89681
 30
0.0
 40
0
 41
0
  0
VERTEX
  8
0
 10
4.17583
 20
1.05306
 30
0.0
 40
0
 41
0
  0
VERTEX
  8
0
 10
10.5621
 20
1.05306
 30
0.0
 40
0
 41
0
  0
VERTEX
  8
0
 10
10.722
 20
0.89681
 30
0.0
 40
0
 41
0
  0
SEQEND
 8
0
  0
POLYLINE
  8
0
 62
     0
 66
     1
 10
0
 20
0
 30
0.0
 70
     1
 40
0.15
 41
0.15
  0
VERTEX
  8
0
 10
10.722
 20
0.89681
 30
0.0
 40
0.00208333
 41
0.00208333
  0
VERTEX
  8
0
 10
4.01937
 20
0.89681
 30
0.0
 40
0.00208333
 41
0.00208333
  0
VERTEX
  8
0
 10
4.17583
 20
1.05306
 30
0.0
 40
0.00208333
 41
0.00208333
  0
VERTEX
  8
0
 10
10.5621
 20
1.05306
 30
0.0
 40
0.00208333
 41
0.00208333
  0
VERTEX
  8
0
 10
10.722
 20
0.89681
 30
0.0
 40
0.00208333
 41
0.00208333
  0
SEQEND
 8
0
  0
POLYLINE
  8
0
 62
     7
 66
     1
 10
0
 20
0
 30
0.0
 70
     1
 40
0
 41
0
  0
VERTEX
  8
0
 10
5.87104
 20
1.05306
 30
0.0
 40
0
 41
0
  0
VERTEX
  8
0
 10
6.7646
 20
1.05306
 30
0.0
 40
0
 41
0
  0
VERTEX
  8
0
 10
6.7646
 20
0.89681
 30
0.0
 40
0
 41
0
  0
VERTEX
  8
0
 10
5.87104
 20
0.89681
 30
0.0
 40
0
 41
0
  0
VERTEX
  8
0
 10
5.87104
 20
1.05306
 30
0.0
 40
0
 41
0
  0
SEQEND
 8
0
  0
POLYLINE
  8
0
 62
     0
 66
     1
 10
0
 20
0
 30
0.0
 70
     1
 40
0.75
 41
0.75
  0
VERTEX
  8
0
 10
5.87104
 20
1.05306
 30
0.0
 40
0.0104167
 41
0.0104167
  0
VERTEX
  8
0
 10
6.7646
 20
1.05306
 30
0.0
 40
0.0104167
 41
0.0104167
  0
VERTEX
  8
0
 10
6.7646
 20
0.89681
 30
0.0
 40
0.0104167
 41
0.0104167
  0
VERTEX
  8
0
 10
5.87104
 20
0.89681
 30
0.0
 40
0.0104167
 41
0.0104167
  0
VERTEX
  8
0
 10
5.87104
 20
1.05306
 30
0.0
 40
0.0104167
 41
0.0104167
  0
SEQEND
 8
0
  0
POLYLINE
  8
0
 62
     7
 66
     1
 10
0
 20
0
 30
0.0
 70
     1
 40
0
 41
0
  0
VERTEX
  8
0
 10
5.87104
 20
1.05306
 30
0.0
 40
0
 41
0
  0
VERTEX
  8
0
 10
6.7646
 20
1.05306
 30
0.0
 40
0
 41
0
  0
VERTEX
  8
0
 10
6.7646
 20
0.89681
 30
0.0
 40
0
 41
0
  0
VERTEX
  8
0
 10
5.87104
 20
0.89681
 30
0.0
 40
0
 41
0
  0
VERTEX
  8
0
 10
5.87104
 20
1.05306
 30
0.0
 40
0
 41
0
  0
SEQEND
 8
0
  0
POLYLINE
  8
0
 62
     0
 66
     1
 10
0
 20
0
 30
0.0
 70
     1
 40
0.75
 41
0.75
  0
VERTEX
  8
0
 10
5.87104
 20
1.05306
 30
0.0
 40
0.0104167
 41
0.0104167
  0
VERTEX
  8
0
 10
6.7646
 20
1.05306
 30
0.0
 40
0.0104167
 41
0.0104167
  0
VERTEX
  8
0
 10
6.7646
 20
0.89681
 30
0.0
 40
0.0104167
 41
0.0104167
  0
VERTEX
  8
0
 10
5.87104
 20
0.89681
 30
0.0
 40
0.0104167
 41
0.0104167
  0
VERTEX
  8
0
 10
5.87104
 20
1.05306
 30
0.0
 40
0.0104167
 41
0.0104167
  0
SEQEND
 8
0
  0
POLYLINE
  8
0
 62
     0
 66
     1
 10
0
 20
0
 30
0.0
 70
     1
 40
0.75
 41
0.75
  0
VERTEX
  8
0
 10
5.87104
 20
0.89681
 30
0.0
 40
0.0104167
 41
0.0104167
  0
VERTEX
  8
0
 10
5.87104
 20
0.844456
 30
0.0
 40
0.0104167
 41
0.0104167
  0
VERTEX
  8
0
 10
5.88499
 20
0.687392
 30
0.0
 40
0.0104167
 41
0.0104167
  0
VERTEX
  8
0
 10
5.92686
 20
0.505914
 30
0.0
 40
0.0104167
 41
0.0104167
  0
VERTEX
  8
0
 10
5.99669
 20
0.352322
 30
0.0
 40
0.0104167
 41
0.0104167
  0
VERTEX
  8
0
 10
6.0944
 20
0.226671
 30
0.0
 40
0.0104167
 41
0.0104167
  0
VERTEX
  8
0
 10
6.22006
 20
0.128961
 30
0.0
 40
0.0104167
 41
0.0104167
  0
VERTEX
  8
0
 10
6.37364
 20
0.0591363
 30
0.0
 40
0.0104167
 41
0.0104167
  0
VERTEX
  8
0
 10
6.55512
 20
0.0172526
 30
0.0
 40
0.0104167
 41
0.0104167
  0
VERTEX
  8
0
 10
6.71218
 20
0.00325521
 30
0.0
 40
0.0104167
 41
0.0104167
  0
VERTEX
  8
0
 10
6.7646
 20
0.00325521
 30
0.0
 40
0.0104167
 41
0.0104167
  0
VERTEX
  8
0
 10
6.7646
 20
0.89681
 30
0.0
 40
0.0104167
 41
0.0104167
  0
VERTEX
  8
0
 10
5.87104
 20
0.89681
 30
0.0
 40
0.0104167
 41
0.0104167
  0
SEQEND
 8
0
  0
POLYLINE
  8
0
 62
     0
 66
     1
 10
0
 20
0
 30
0.0
 70
     1
 40
0.75
 41
0.75
  0
VERTEX
  8
0
 10
6.7646
 20
1.05306
 30
0.0
 40
0.0104167
 41
0.0104167
  0
VERTEX
  8
0
 10
6.7646
 20
1.10547
 30
0.0
 40
0.0104167
 41
0.0104167
  0
VERTEX
  8
0
 10
6.7506
 20
1.26253
 30
0.0
 40
0.0104167
 41
0.0104167
  0
VERTEX
  8
0
 10
6.70871
 20
1.44401
 30
0.0
 40
0.0104167
 41
0.0104167
  0
VERTEX
  8
0
 10
6.63889
 20
1.5976
 30
0.0
 40
0.0104167
 41
0.0104167
  0
VERTEX
  8
0
 10
6.54118
 20
1.72325
 30
0.0
 40
0.0104167
 41
0.0104167
  0
VERTEX
  8
0
 10
6.41553
 20
1.82096
 30
0.0
 40
0.0104167
 41
0.0104167
  0
VERTEX
  8
0
 10
6.26193
 20
1.89079
 30
0.0
 40
0.0104167
 41
0.0104167
  0
VERTEX
  8
0
 10
6.08046
 20
1.93267
 30
0.0
 40
0.0104167
 41
0.0104167
  0
VERTEX
  8
0
 10
5.92339
 20
1.94661
 30
0.0
 40
0.0104167
 41
0.0104167
  0
VERTEX
  8
0
 10
5.87104
 20
1.94661
 30
0.0
 40
0.0104167
 41
0.0104167
  0
VERTEX
  8
0
 10
5.87104
 20
1.05306
 30
0.0
 40
0.0104167
 41
0.0104167
  0
VERTEX
  8
0
 10
6.7646
 20
1.05306
 30
0.0
 40
0.0104167
 41
0.0104167
  0
SEQEND
 8
0
  0
POLYLINE
  8
0
 62
     0
 66
     1
 10
0
 20
0
 30
0.0
 70
     1
 40
0
 41
0
  0
VERTEX
  8
0
 10
4.01937
 20
0.89681
 30
0.0
 40
0
 41
0
  0
VERTEX
  8
0
 10
4.02865
 20
7.06494
 30
0.0
 40
0
 41
0
  0
VERTEX
  8
0
 10
4.18446
 20
6.82536
 30
0.0
 40
0
 41
0
  0
VERTEX
  8
0
 10
4.17583
 20
1.05306
 30
0.0
 40
0
 41
0
  0
VERTEX
  8
0
 10
4.01937
 20
0.89681
 30
0.0
 40
0
 41
0
  0
SEQEND
 8
0
  0
POLYLINE
  8
0
 62
     0
 66
     1
 10
0
 20
0
 30
0.0
 70
     1
 40
0.15
 41
0.15
  0
VERTEX
  8
0
 10
4.01937
 20
0.89681
 30
0.0
 40
0.00208333
 41
0.00208333
  0
VERTEX
  8
0
 10
4.02865
 20
7.06494
 30
0.0
 40
0.00208333
 41
0.00208333
  0
VERTEX
  8
0
 10
4.18446
 20
6.82536
 30
0.0
 40
0.00208333
 41
0.00208333
  0
VERTEX
  8
0
 10
4.17583
 20
1.05306
 30
0.0
 40
0.00208333
 41
0.00208333
  0
VERTEX
  8
0
 10
4.01937
 20
0.89681
 30
0.0
 40
0.00208333
 41
0.00208333
  0
SEQEND
 8
0
  0
POLYLINE
  8
0
 62
     0
 66
     1
 10
0
 20
0
 30
0.0
 70
     1
 40
0
 41
0
  0
VERTEX
  8
0
 10
8.48844
 20
0.89681
 30
0.0
 40
0
 41
0
  0
VERTEX
  8
0
 10
8.48844
 20
2.42865
 30
0.0
 40
0
 41
0
  0
VERTEX
  8
0
 10
8.38428
 20
2.32449
 30
0.0
 40
0
 41
0
  0
VERTEX
  8
0
 10
8.38428
 20
0.89681
 30
0.0
 40
0
 41
0
  0
VERTEX
  8
0
 10
8.48844
 20
0.89681
 30
0.0
 40
0
 41
0
  0
SEQEND
 8
0
  0
POLYLINE
  8
0
 62
     0
 66
     1
 10
0
 20
0
 30
0.0
 70
     1
 40
0.15
 41
0.15
  0
VERTEX
  8
0
 10
8.48844
 20
0.89681
 30
0.0
 40
0.00208333
 41
0.00208333
  0
VERTEX
  8
0
 10
8.48844
 20
2.42865
 30
0.0
 40
0.00208333
 41
0.00208333
  0
VERTEX
  8
0
 10
8.38428
 20
2.32449
 30
0.0
 40
0.00208333
 41
0.00208333
  0
VERTEX
  8
0
 10
8.38428
 20
0.89681
 30
0.0
 40
0.00208333
 41
0.00208333
  0
VERTEX
  8
0
 10
8.48844
 20
0.89681
 30
0.0
 40
0.00208333
 41
0.00208333
  0
SEQEND
 8
0
  0
POLYLINE
  8
0
 62
     0
 66
     1
 10
0
 20
0
 30
0.0
 70
     1
 40
0
 41
0
  0
VERTEX
  8
0
 10
8.48844
 20
2.42865
 30
0.0
 40
0
 41
0
  0
VERTEX
  8
0
 10
4.02165
 20
2.42865
 30
0.0
 40
0
 41
0
  0
VERTEX
  8
0
 10
4.02165
 20
2.32449
 30
0.0
 40
0
 41
0
  0
VERTEX
  8
0
 10
8.38428
 20
2.32449
 30
0.0
 40
0
 41
0
  0
VERTEX
  8
0
 10
8.48844
 20
2.42865
 30
0.0
 40
0
 41
0
  0
SEQEND
 8
0
  0
POLYLINE
  8
0
 62
     0
 66
     1
 10
0
 20
0
 30
0.0
 70
     1
 40
0.15
 41
0.15
  0
VERTEX
  8
0
 10
8.48844
 20
2.42865
 30
0.0
 40
0.00208333
 41
0.00208333
  0
VERTEX
  8
0
 10
4.02165
 20
2.42865
 30
0.0
 40
0.00208333
 41
0.00208333
  0
VERTEX
  8
0
 10
4.02165
 20
2.32449
 30
0.0
 40
0.00208333
 41
0.00208333
  0
VERTEX
  8
0
 10
8.38428
 20
2.32449
 30
0.0
 40
0.00208333
 41
0.00208333
  0
VERTEX
  8
0
 10
8.48844
 20
2.42865
 30
0.0
 40
0.00208333
 41
0.00208333
  0
SEQEND
 8
0
  0
POLYLINE
  8
0
 62
     7
 66
     1
 10
0
 20
0
 30
0.0
 70
     1
 40
0
 41
0
  0
VERTEX
  8
0
 10
5.93093
 20
2.42865
 30
0.0
 40
0
 41
0
  0
VERTEX
  8
0
 10
6.64094
 20
2.42865
 30
0.0
 40
0
 41
0
  0
VERTEX
  8
0
 10
6.64094
 20
2.32449
 30
0.0
 40
0
 41
0
  0
VERTEX
  8
0
 10
5.93093
 20
2.32449
 30
0.0
 40
0
 41
0
  0
VERTEX
  8
0
 10
5.93093
 20
2.42865
 30
0.0
 40
0
 41
0
  0
SEQEND
 8
0
  0
POLYLINE
  8
0
 62
     0
 66
     1
 10
0
 20
0
 30
0.0
 70
     1
 40
0.75
 41
0.75
  0
VERTEX
  8
0
 10
5.93093
 20
2.42865
 30
0.0
 40
0.0104167
 41
0.0104167
  0
VERTEX
  8
0
 10
6.64094
 20
2.42865
 30
0.0
 40
0.0104167
 41
0.0104167
  0
VERTEX
  8
0
 10
6.64094
 20
2.32449
 30
0.0
 40
0.0104167
 41
0.0104167
  0
VERTEX
  8
0
 10
5.93093
 20
2.32449
 30
0.0
 40
0.0104167
 41
0.0104167
  0
VERTEX
  8
0
 10
5.93093
 20
2.42865
 30
0.0
 40
0.0104167
 41
0.0104167
  0
SEQEND
 8
0
  0
POLYLINE
  8
0
 62
     7
 66
     1
 10
0
 20
0
 30
0.0
 70
     1
 40
0
 41
0
  0
VERTEX
  8
0
 10
5.93093
 20
2.42865
 30
0.0
 40
0
 41
0
  0
VERTEX
  8
0
 10
6.64094
 20
2.42865
 30
0.0
 40
0
 41
0
  0
VERTEX
  8
0
 10
6.64094
 20
2.32449
 30
0.0
 40
0
 41
0
  0
VERTEX
  8
0
 10
5.93093
 20
2.32449
 30
0.0
 40
0
 41
0
  0
VERTEX
  8
0
 10
5.93093
 20
2.42865
 30
0.0
 40
0
 41
0
  0
SEQEND
 8
0
  0
POLYLINE
  8
0
 62
     0
 66
     1
 10
0
 20
0
 30
0.0
 70
     1
 40
0.75
 41
0.75
  0
VERTEX
  8
0
 10
5.93093
 20
2.42865
 30
0.0
 40
0.0104167
 41
0.0104167
  0
VERTEX
  8
0
 10
6.64094
 20
2.42865
 30
0.0
 40
0.0104167
 41
0.0104167
  0
VERTEX
  8
0
 10
6.64094
 20
2.32449
 30
0.0
 40
0.0104167
 41
0.0104167
  0
VERTEX
  8
0
 10
5.93093
 20
2.32449
 30
0.0
 40
0.0104167
 41
0.0104167
  0
VERTEX
  8
0
 10
5.93093
 20
2.42865
 30
0.0
 40
0.0104167
 41
0.0104167
  0
SEQEND
 8
0
  0
POLYLINE
  8
0
 62
     0
 66
     1
 10
0
 20
0
 30
0.0
 70
     1
 40
0.75
 41
0.75
  0
VERTEX
  8
0
 10
6.64094
 20
2.32449
 30
0.0
 40
0.0104167
 41
0.0104167
  0
VERTEX
  8
0
 10
6.64094
 20
2.28293
 30
0.0
 40
0.0104167
 41
0.0104167
  0
VERTEX
  8
0
 10
6.62983
 20
2.1581
 30
0.0
 40
0.0104167
 41
0.0104167
  0
VERTEX
  8
0
 10
6.59657
 20
2.01389
 30
0.0
 40
0.0104167
 41
0.0104167
  0
VERTEX
  8
0
 10
6.54107
 20
1.89187
 30
0.0
 40
0.0104167
 41
0.0104167
  0
VERTEX
  8
0
 10
6.46343
 20
1.79204
 30
0.0
 40
0.0104167
 41
0.0104167
  0
VERTEX
  8
0
 10
6.36361
 20
1.71442
 30
0.0
 40
0.0104167
 41
0.0104167
  0
VERTEX
  8
0
 10
6.24154
 20
1.6589
 30
0.0
 40
0.0104167
 41
0.0104167
  0
VERTEX
  8
0
 10
6.09733
 20
1.62565
 30
0.0
 40
0.0104167
 41
0.0104167
  0
VERTEX
  8
0
 10
5.9725
 20
1.61453
 30
0.0
 40
0.0104167
 41
0.0104167
  0
VERTEX
  8
0
 10
5.93093
 20
1.61453
 30
0.0
 40
0.0104167
 41
0.0104167
  0
VERTEX
  8
0
 10
5.93093
 20
2.32449
 30
0.0
 40
0.0104167
 41
0.0104167
  0
VERTEX
  8
0
 10
6.64094
 20
2.32449
 30
0.0
 40
0.0104167
 41
0.0104167
  0
SEQEND
 8
0
  0
POLYLINE
  8
0
 62
     7
 66
     1
 10
0
 20
0
 30
0.0
 70
     1
 40
0
 41
0
  0
VERTEX
  8
0
 10
7.08208
 20
2.42865
 30
0.0
 40
0
 41
0
  0
VERTEX
  8
0
 10
7.96072
 20
2.42865
 30
0.0
 40
0
 41
0
  0
VERTEX
  8
0
 10
7.96072
 20
2.32449
 30
0.0
 40
0
 41
0
  0
VERTEX
  8
0
 10
7.08208
 20
2.32449
 30
0.0
 40
0
 41
0
  0
VERTEX
  8
0
 10
7.08208
 20
2.42865
 30
0.0
 40
0
 41
0
  0
SEQEND
 8
0
  0
POLYLINE
  8
0
 62
     0
 66
     1
 10
0
 20
0
 30
0.0
 70
     1
 40
0.75
 41
0.75
  0
VERTEX
  8
0
 10
7.08208
 20
2.42865
 30
0.0
 40
0.0104167
 41
0.0104167
  0
VERTEX
  8
0
 10
7.96072
 20
2.42865
 30
0.0
 40
0.0104167
 41
0.0104167
  0
VERTEX
  8
0
 10
7.96072
 20
2.32449
 30
0.0
 40
0.0104167
 41
0.0104167
  0
VERTEX
  8
0
 10
7.08208
 20
2.32449
 30
0.0
 40
0.0104167
 41
0.0104167
  0
VERTEX
  8
0
 10
7.08208
 20
2.42865
 30
0.0
 40
0.0104167
 41
0.0104167
  0
SEQEND
 8
0
  0
POLYLINE
  8
0
 62
     7
 66
     1
 10
0
 20
0
 30
0.0
 70
     1
 40
0
 41
0
  0
VERTEX
  8
0
 10
7.08208
 20
2.42865
 30
0.0
 40
0
 41
0
  0
VERTEX
  8
0
 10
7.96072
 20
2.42865
 30
0.0
 40
0
 41
0
  0
VERTEX
  8
0
 10
7.96072
 20
2.32449
 30
0.0
 40
0
 41
0
  0
VERTEX
  8
0
 10
7.08208
 20
2.32449
 30
0.0
 40
0
 41
0
  0
VERTEX
  8
0
 10
7.08208
 20
2.42865
 30
0.0
 40
0
 41
0
  0
SEQEND
 8
0
  0
POLYLINE
  8
0
 62
     7
 66
     1
 10
0
 20
0
 30
0.0
 70
     1
 40
0.75
 41
0.75
  0
VERTEX
  8
0
 10
7.08208
 20
2.42865
 30
0.0
 40
0.0104167
 41
0.0104167
  0
VERTEX
  8
0
 10
7.96072
 20
2.42865
 30
0.0
 40
0.0104167
 41
0.0104167
  0
VERTEX
  8
0
 10
7.96072
 20
2.32449
 30
0.0
 40
0.0104167
 41
0.0104167
  0
VERTEX
  8
0
 10
7.08208
 20
2.32449
 30
0.0
 40
0.0104167
 41
0.0104167
  0
VERTEX
  8
0
 10
7.08208
 20
2.42865
 30
0.0
 40
0.0104167
 41
0.0104167
  0
SEQEND
 8
0
  0
POLYLINE
  8
0
 62
     0
 66
     1
 10
0
 20
0
 30
0.0
 70
     1
 40
0
 41
0
  0
VERTEX
  8
0
 10
6.85314
 20
7.06494
 30
0.0
 40
0
 41
0
  0
VERTEX
  8
0
 10
6.99897
 20
7.06494
 30
0.0
 40
0
 41
0
  0
VERTEX
  8
0
 10
6.99897
 20
2.32449
 30
0.0
 40
0
 41
0
  0
VERTEX
  8
0
 10
6.85314
 20
2.32449
 30
0.0
 40
0
 41
0
  0
VERTEX
  8
0
 10
6.85314
 20
7.06494
 30
0.0
 40
0
 41
0
  0
SEQEND
 8
0
  0
POLYLINE
  8
0
 62
     0
 66
     1
 10
0
 20
0
 30
0.0
 70
     1
 40
0.15
 41
0.15
  0
VERTEX
  8
0
 10
6.85314
 20
7.06494
 30
0.0
 40
0.00208333
 41
0.00208333
  0
VERTEX
  8
0
 10
6.99897
 20
7.06494
 30
0.0
 40
0.00208333
 41
0.00208333
  0
VERTEX
  8
0
 10
6.99897
 20
2.32449
 30
0.0
 40
0.00208333
 41
0.00208333
  0
VERTEX
  8
0
 10
6.85314
 20
2.32449
 30
0.0
 40
0.00208333
 41
0.00208333
  0
VERTEX
  8
0
 10
6.85314
 20
7.06494
 30
0.0
 40
0.00208333
 41
0.00208333
  0
SEQEND
 8
0
  0
POLYLINE
  8
0
 62
     7
 66
     1
 10
0
 20
0
 30
0.0
 70
     1
 40
0
 41
0
  0
VERTEX
  8
0
 10
6.85314
 20
5.75982
 30
0.0
 40
0
 41
0
  0
VERTEX
  8
0
 10
6.99897
 20
5.75982
 30
0.0
 40
0
 41
0
  0
VERTEX
  8
0
 10
6.99897
 20
4.86794
 30
0.0
 40
0
 41
0
  0
VERTEX
  8
0
 10
6.85314
 20
4.86794
 30
0.0
 40
0
 41
0
  0
VERTEX
  8
0
 10
6.85314
 20
5.75982
 30
0.0
 40
0
 41
0
  0
SEQEND
 8
0
  0
POLYLINE
  8
0
 62
     0
 66
     1
 10
0
 20
0
 30
0.0
 70
     1
 40
0.75
 41
0.75
  0
VERTEX
  8
0
 10
6.85314
 20
5.75982
 30
0.0
 40
0.0104167
 41
0.0104167
  0
VERTEX
  8
0
 10
6.99897
 20
5.75982
 30
0.0
 40
0.0104167
 41
0.0104167
  0
VERTEX
  8
0
 10
6.99897
 20
4.86794
 30
0.0
 40
0.0104167
 41
0.0104167
  0
VERTEX
  8
0
 10
6.85314
 20
4.86794
 30
0.0
 40
0.0104167
 41
0.0104167
  0
VERTEX
  8
0
 10
6.85314
 20
5.75982
 30
0.0
 40
0.0104167
 41
0.0104167
  0
SEQEND
 8
0
  0
POLYLINE
  8
0
 62
     7
 66
     1
 10
0
 20
0
 30
0.0
 70
     1
 40
0
 41
0
  0
VERTEX
  8
0
 10
6.85314
 20
5.75982
 30
0.0
 40
0
 41
0
  0
VERTEX
  8
0
 10
6.99897
 20
5.75982
 30
0.0
 40
0
 41
0
  0
VERTEX
  8
0
 10
6.99897
 20
4.86794
 30
0.0
 40
0
 41
0
  0
VERTEX
  8
0
 10
6.85314
 20
4.86794
 30
0.0
 40
0
 41
0
  0
VERTEX
  8
0
 10
6.85314
 20
5.75982
 30
0.0
 40
0
 41
0
  0
SEQEND
 8
0
  0
POLYLINE
  8
0
 62
     7
 66
     1
 10
0
 20
0
 30
0.0
 70
     1
 40
0.75
 41
0.75
  0
VERTEX
  8
0
 10
6.85314
 20
5.75982
 30
0.0
 40
0.0104167
 41
0.0104167
  0
VERTEX
  8
0
 10
6.99897
 20
5.75982
 30
0.0
 40
0.0104167
 41
0.0104167
  0
VERTEX
  8
0
 10
6.99897
 20
4.86794
 30
0.0
 40
0.0104167
 41
0.0104167
  0
VERTEX
  8
0
 10
6.85314
 20
4.86794
 30
0.0
 40
0.0104167
 41
0.0104167
  0
VERTEX
  8
0
 10
6.85314
 20
5.75982
 30
0.0
 40
0.0104167
 41
0.0104167
  0
SEQEND
 8
0
  0
POLYLINE
  8
0
 62
     0
 66
     1
 10
0
 20
0
 30
0.0
 70
     1
 40
0
 41
0
  0
VERTEX
  8
0
 10
4.02399
 20
4.06754
 30
0.0
 40
0
 41
0
  0
VERTEX
  8
0
 10
6.99897
 20
4.06754
 30
0.0
 40
0
 41
0
  0
VERTEX
  8
0
 10
6.99897
 20
3.97379
 30
0.0
 40
0
 41
0
  0
VERTEX
  8
0
 10
4.02399
 20
3.97379
 30
0.0
 40
0
 41
0
  0
VERTEX
  8
0
 10
4.02399
 20
4.06754
 30
0.0
 40
0
 41
0
  0
SEQEND
 8
0
  0
POLYLINE
  8
0
 62
     0
 66
     1
 10
0
 20
0
 30
0.0
 70
     1
 40
0.15
 41
0.15
  0
VERTEX
  8
0
 10
4.02399
 20
4.06754
 30
0.0
 40
0.00208333
 41
0.00208333
  0
VERTEX
  8
0
 10
6.99897
 20
4.06754
 30
0.0
 40
0.00208333
 41
0.00208333
  0
VERTEX
  8
0
 10
6.99897
 20
3.97379
 30
0.0
 40
0.00208333
 41
0.00208333
  0
VERTEX
  8
0
 10
4.02399
 20
3.97379
 30
0.0
 40
0.00208333
 41
0.00208333
  0
VERTEX
  8
0
 10
4.02399
 20
4.06754
 30
0.0
 40
0.00208333
 41
0.00208333
  0
SEQEND
 8
0
  0
POLYLINE
  8
0
 62
     0
 66
     1
 10
0
 20
0
 30
0.0
 70
     1
 40
0
 41
0
  0
VERTEX
  8
0
 10
5.67165
 20
2.42865
 30
0.0
 40
0
 41
0
  0
VERTEX
  8
0
 10
5.7654
 20
2.42865
 30
0.0
 40
0
 41
0
  0
VERTEX
  8
0
 10
5.7654
 20
0.89681
 30
0.0
 40
0
 41
0
  0
VERTEX
  8
0
 10
5.67165
 20
0.89681
 30
0.0
 40
0
 41
0
  0
VERTEX
  8
0
 10
5.67165
 20
2.42865
 30
0.0
 40
0
 41
0
  0
SEQEND
 8
0
  0
POLYLINE
  8
0
 62
     0
 66
     1
 10
0
 20
0
 30
0.0
 70
     1
 40
0.15
 41
0.15
  0
VERTEX
  8
0
 10
5.67165
 20
2.42865
 30
0.0
 40
0.00208333
 41
0.00208333
  0
VERTEX
  8
0
 10
5.7654
 20
2.42865
 30
0.0
 40
0.00208333
 41
0.00208333
  0
VERTEX
  8
0
 10
5.7654
 20
0.89681
 30
0.0
 40
0.00208333
 41
0.00208333
  0
VERTEX
  8
0
 10
5.67165
 20
0.89681
 30
0.0
 40
0.00208333
 41
0.00208333
  0
VERTEX
  8
0
 10
5.67165
 20
2.42865
 30
0.0
 40
0.00208333
 41
0.00208333
  0
SEQEND
 8
0
  0
POLYLINE
  8
0
 62
     7
 66
     1
 10
0
 20
0
 30
0.0
 70
     1
 40
0
 41
0
  0
VERTEX
  8
0
 10
5.67165
 20
1.74046
 30
0.0
 40
0
 41
0
  0
VERTEX
  8
0
 10
5.7654
 20
1.74046
 30
0.0
 40
0
 41
0
  0
VERTEX
  8
0
 10
5.7654
 20
1.13818
 30
0.0
 40
0
 41
0
  0
VERTEX
  8
0
 10
5.67165
 20
1.13818
 30
0.0
 40
0
 41
0
  0
VERTEX
  8
0
 10
5.67165
 20
1.74046
 30
0.0
 40
0
 41
0
  0
SEQEND
 8
0
  0
POLYLINE
  8
0
 62
     0
 66
     1
 10
0
 20
0
 30
0.0
 70
     1
 40
0.75
 41
0.75
  0
VERTEX
  8
0
 10
5.67165
 20
1.74046
 30
0.0
 40
0.0104167
 41
0.0104167
  0
VERTEX
  8
0
 10
5.7654
 20
1.74046
 30
0.0
 40
0.0104167
 41
0.0104167
  0
VERTEX
  8
0
 10
5.7654
 20
1.13818
 30
0.0
 40
0.0104167
 41
0.0104167
  0
VERTEX
  8
0
 10
5.67165
 20
1.13818
 30
0.0
 40
0.0104167
 41
0.0104167
  0
VERTEX
  8
0
 10
5.67165
 20
1.74046
 30
0.0
 40
0.0104167
 41
0.0104167
  0
SEQEND
 8
0
  0
POLYLINE
  8
0
 62
     7
 66
     1
 10
0
 20
0
 30
0.0
 70
     1
 40
0
 41
0
  0
VERTEX
  8
0
 10
5.67165
 20
1.74046
 30
0.0
 40
0
 41
0
  0
VERTEX
  8
0
 10
5.7654
 20
1.74046
 30
0.0
 40
0
 41
0
  0
VERTEX
  8
0
 10
5.7654
 20
1.13818
 30
0.0
 40
0
 41
0
  0
VERTEX
  8
0
 10
5.67165
 20
1.13818
 30
0.0
 40
0
 41
0
  0
VERTEX
  8
0
 10
5.67165
 20
1.74046
 30
0.0
 40
0
 41
0
  0
SEQEND
 8
0
  0
POLYLINE
  8
0
 62
     0
 66
     1
 10
0
 20
0
 30
0.0
 70
     1
 40
0.75
 41
0.75
  0
VERTEX
  8
0
 10
5.67165
 20
1.74046
 30
0.0
 40
0.0104167
 41
0.0104167
  0
VERTEX
  8
0
 10
5.7654
 20
1.74046
 30
0.0
 40
0.0104167
 41
0.0104167
  0
VERTEX
  8
0
 10
5.7654
 20
1.13818
 30
0.0
 40
0.0104167
 41
0.0104167
  0
VERTEX
  8
0
 10
5.67165
 20
1.13818
 30
0.0
 40
0.0104167
 41
0.0104167
  0
VERTEX
  8
0
 10
5.67165
 20
1.74046
 30
0.0
 40
0.0104167
 41
0.0104167
  0
SEQEND
 8
0
  0
POLYLINE
  8
0
 62
     0
 66
     1
 10
0
 20
0
 30
0.0
 70
     1
 40
0.75
 41
0.75
  0
VERTEX
  8
0
 10
5.7654
 20
1.74046
 30
0.0
 40
0.0104167
 41
0.0104167
  0
VERTEX
  8
0
 10
5.80067
 20
1.74046
 30
0.0
 40
0.0104167
 41
0.0104167
  0
VERTEX
  8
0
 10
5.90653
 20
1.73107
 30
0.0
 40
0.0104167
 41
0.0104167
  0
VERTEX
  8
0
 10
6.02886
 20
1.70285
 30
0.0
 40
0.0104167
 41
0.0104167
  0
VERTEX
  8
0
 10
6.13243
 20
1.65582
 30
0.0
 40
0.0104167
 41
0.0104167
  0
VERTEX
  8
0
 10
6.21712
 20
1.5899
 30
0.0
 40
0.0104167
 41
0.0104167
  0
VERTEX
  8
0
 10
6.28299
 20
1.50521
 30
0.0
 40
0.0104167
 41
0.0104167
  0
VERTEX
  8
0
 10
6.33008
 20
1.40169
 30
0.0
 40
0.0104167
 41
0.0104167
  0
VERTEX
  8
0
 10
6.35829
 20
1.27935
 30
0.0
 40
0.0104167
 41
0.0104167
  0
VERTEX
  8
0
 10
6.36774
 20
1.1735
 30
0.0
 40
0.0104167
 41
0.0104167
  0
VERTEX
  8
0
 10
6.36774
 20
1.13818
 30
0.0
 40
0.0104167
 41
0.0104167
  0
VERTEX
  8
0
 10
5.7654
 20
1.13818
 30
0.0
 40
0.0104167
 41
0.0104167
  0
VERTEX
  8
0
 10
5.7654
 20
1.74046
 30
0.0
 40
0.0104167
 41
0.0104167
  0
SEQEND
 8
0
  0
POLYLINE
  8
0
 62
     0
 66
     1
 10
0
 20
0
 30
0.0
 70
     1
 40
0
 41
0
  0
VERTEX
  8
0
 10
4.18039
 20
4.06754
 30
0.0
 40
0
 41
0
  0
VERTEX
  8
0
 10
4.18137
 20
4.69254
 30
0.0
 40
0
 41
0
  0
VERTEX
  8
0
 10
4.65012
 20
4.69179
 30
0.0
 40
0
 41
0
  0
VERTEX
  8
0
 10
4.64914
 20
4.06679
 30
0.0
 40
0
 41
0
  0
VERTEX
  8
0
 10
4.18039
 20
4.06754
 30
0.0
 40
0
 41
0
  0
SEQEND
 8
0
  0
POLYLINE
  8
0
 62
     0
 66
     1
 10
0
 20
0
 30
0.0
 70
     1
 40
0.15
 41
0.15
  0
VERTEX
  8
0
 10
4.18039
 20
4.06754
 30
0.0
 40
0.00208333
 41
0.00208333
  0
VERTEX
  8
0
 10
4.18137
 20
4.69254
 30
0.0
 40
0.00208333
 41
0.00208333
  0
VERTEX
  8
0
 10
4.65012
 20
4.69179
 30
0.0
 40
0.00208333
 41
0.00208333
  0
VERTEX
  8
0
 10
4.64914
 20
4.06679
 30
0.0
 40
0.00208333
 41
0.00208333
  0
VERTEX
  8
0
 10
4.18039
 20
4.06754
 30
0.0
 40
0.00208333
 41
0.00208333
  0
SEQEND
 8
0
  0
POLYLINE
  8
0
 62
     7
 66
     1
 10
0
 20
0
 30
0.0
 70
     1
 40
0
 41
0
  0
VERTEX
  8
0
 10
9.91792
 20
7.06494
 30
0.0
 40
0
 41
0
  0
VERTEX
  8
0
 10
9.91792
 20
7.9369
 30
0.0
 40
0
 41
0
  0
VERTEX
  8
0
 10
9.82417
 20
7.8974
 30
0.0
 40
0
 41
0
  0
VERTEX
  8
0
 10
9.82417
 20
7.06494
 30
0.0
 40
0
 41
0
  0
VERTEX
  8
0
 10
9.91792
 20
7.06494
 30
0.0
 40
0
 41
0
  0
SEQEND
 8
0
  0
POLYLINE
  8
0
 62
     0
 66
     1
 10
0
 20
0
 30
0.0
 70
     1
 40
0.15
 41
0.15
  0
VERTEX
  8
0
 10
9.91792
 20
7.06494
 30
0.0
 40
0.00208333
 41
0.00208333
  0
VERTEX
  8
0
 10
9.91792
 20
7.9369
 30
0.0
 40
0.00208333
 41
0.00208333
  0
VERTEX
  8
0
 10
9.82417
 20
7.8974
 30
0.0
 40
0.00208333
 41
0.00208333
  0
VERTEX
  8
0
 10
9.82417
 20
7.06494
 30
0.0
 40
0.00208333
 41
0.00208333
  0
VERTEX
  8
0
 10
9.91792
 20
7.06494
 30
0.0
 40
0.00208333
 41
0.00208333
  0
SEQEND
 8
0
  0
POLYLINE
  8
0
 62
     7
 66
     1
 10
0
 20
0
 30
0.0
 70
     1
 40
0
 41
0
  0
VERTEX
  8
0
 10
9.91792
 20
7.9369
 30
0.0
 40
0
 41
0
  0
VERTEX
  8
0
 10
9.21625
 20
8.6244
 30
0.0
 40
0
 41
0
  0
VERTEX
  8
0
 10
9.178
 20
8.53065
 30
0.0
 40
0
 41
0
  0
VERTEX
  8
0
 10
9.82417
 20
7.8974
 30
0.0
 40
0
 41
0
  0
VERTEX
  8
0
 10
9.91792
 20
7.9369
 30
0.0
 40
0
 41
0
  0
SEQEND
 8
0
  0
POLYLINE
  8
0
 62
     0
 66
     1
 10
0
 20
0
 30
0.0
 70
     1
 40
0.15
 41
0.15
  0
VERTEX
  8
0
 10
9.91792
 20
7.9369
 30
0.0
 40
0.00208333
 41
0.00208333
  0
VERTEX
  8
0
 10
9.21625
 20
8.6244
 30
0.0
 40
0.00208333
 41
0.00208333
  0
VERTEX
  8
0
 10
9.178
 20
8.53065
 30
0.0
 40
0.00208333
 41
0.00208333
  0
VERTEX
  8
0
 10
9.82417
 20
7.8974
 30
0.0
 40
0.00208333
 41
0.00208333
  0
VERTEX
  8
0
 10
9.91792
 20
7.9369
 30
0.0
 40
0.00208333
 41
0.00208333
  0
SEQEND
 8
0
  0
POLYLINE
  8
0
 62
     7
 66
     1
 10
0
 20
0
 30
0.0
 70
     1
 40
0
 41
0
  0
VERTEX
  8
0
 10
9.21625
 20
8.6244
 30
0.0
 40
0
 41
0
  0
VERTEX
  8
0
 10
7.69982
 20
8.6244
 30
0.0
 40
0
 41
0
  0
VERTEX
  8
0
 10
7.73915
 20
8.53065
 30
0.0
 40
0
 41
0
  0
VERTEX
  8
0
 10
9.178
 20
8.53065
 30
0.0
 40
0
 41
0
  0
VERTEX
  8
0
 10
9.21625
 20
8.6244
 30
0.0
 40
0
 41
0
  0
SEQEND
 8
0
  0
POLYLINE
  8
0
 62
     0
 66
     1
 10
0
 20
0
 30
0.0
 70
     1
 40
0.15
 41
0.15
  0
VERTEX
  8
0
 10
9.21625
 20
8.6244
 30
0.0
 40
0.00208333
 41
0.00208333
  0
VERTEX
  8
0
 10
7.69982
 20
8.6244
 30
0.0
 40
0.00208333
 41
0.00208333
  0
VERTEX
  8
0
 10
7.73915
 20
8.53065
 30
0.0
 40
0.00208333
 41
0.00208333
  0
VERTEX
  8
0
 10
9.178
 20
8.53065
 30
0.0
 40
0.00208333
 41
0.00208333
  0
VERTEX
  8
0
 10
9.21625
 20
8.6244
 30
0.0
 40
0.00208333
 41
0.00208333
  0
SEQEND
 8
0
  0
POLYLINE
  8
0
 62
     7
 66
     1
 10
0
 20
0
 30
0.0
 70
     1
 40
0
 41
0
  0
VERTEX
  8
0
 10
7.69982
 20
8.6244
 30
0.0
 40
0
 41
0
  0
VERTEX
  8
0
 10
7.01644
 20
7.9274
 30
0.0
 40
0
 41
0
  0
VERTEX
  8
0
 10
7.13103
 20
7.91038
 30
0.0
 40
0
 41
0
  0
VERTEX
  8
0
 10
7.73915
 20
8.53065
 30
0.0
 40
0
 41
0
  0
VERTEX
  8
0
 10
7.69982
 20
8.6244
 30
0.0
 40
0
 41
0
  0
SEQEND
 8
0
  0
POLYLINE
  8
0
 62
     0
 66
     1
 10
0
 20
0
 30
0.0
 70
     1
 40
0.15
 41
0.15
  0
VERTEX
  8
0
 10
7.69982
 20
8.6244
 30
0.0
 40
0.00208333
 41
0.00208333
  0
VERTEX
  8
0
 10
7.01644
 20
7.9274
 30
0.0
 40
0.00208333
 41
0.00208333
  0
VERTEX
  8
0
 10
7.13103
 20
7.91038
 30
0.0
 40
0.00208333
 41
0.00208333
  0
VERTEX
  8
0
 10
7.73915
 20
8.53065
 30
0.0
 40
0.00208333
 41
0.00208333
  0
VERTEX
  8
0
 10
7.69982
 20
8.6244
 30
0.0
 40
0.00208333
 41
0.00208333
  0
SEQEND
 8
0
  0
POLYLINE
  8
0
 62
     7
 66
     1
 10
0
 20
0
 30
0.0
 70
     1
 40
0
 41
0
  0
VERTEX
  8
0
 10
7.01644
 20
7.9274
 30
0.0
 40
0
 41
0
  0
VERTEX
  8
0
 10
7.01644
 20
7.06494
 30
0.0
 40
0
 41
0
  0
VERTEX
  8
0
 10
7.13103
 20
7.06494
 30
0.0
 40
0
 41
0
  0
VERTEX
  8
0
 10
7.13103
 20
7.91038
 30
0.0
 40
0
 41
0
  0
VERTEX
  8
0
 10
7.01644
 20
7.9274
 30
0.0
 40
0
 41
0
  0
SEQEND
 8
0
  0
POLYLINE
  8
0
 62
     0
 66
     1
 10
0
 20
0
 30
0.0
 70
     1
 40
0.15
 41
0.15
  0
VERTEX
  8
0
 10
7.01644
 20
7.9274
 30
0.0
 40
0.00208333
 41
0.00208333
  0
VERTEX
  8
0
 10
7.01644
 20
7.06494
 30
0.0
 40
0.00208333
 41
0.00208333
  0
VERTEX
  8
0
 10
7.13103
 20
7.06494
 30
0.0
 40
0.00208333
 41
0.00208333
  0
VERTEX
  8
0
 10
7.13103
 20
7.91038
 30
0.0
 40
0.00208333
 41
0.00208333
  0
VERTEX
  8
0
 10
7.01644
 20
7.9274
 30
0.0
 40
0.00208333
 41
0.00208333
  0
SEQEND
 8
0
  0
POLYLINE
  8
0
 62
     0
 66
     1
 10
0
 20
0
 30
0.0
 70
     1
 40
0
 41
0
  0
VERTEX
  8
0
 10
7.01644
 20
7.17275
 30
0.0
 40
0
 41
0
  0
VERTEX
  8
0
 10
7.13103
 20
7.17275
 30
0.0
 40
0
 41
0
  0
VERTEX
  8
0
 10
7.13103
 20
7.06494
 30
0.0
 40
0
 41
0
  0
VERTEX
  8
0
 10
7.01644
 20
7.06494
 30
0.0
 40
0
 41
0
  0
VERTEX
  8
0
 10
7.01644
 20
7.17275
 30
0.0
 40
0
 41
0
  0
SEQEND
 8
0
  0
POLYLINE
  8
0
 62
     0
 66
     1
 10
0
 20
0
 30
0.0
 70
     1
 40
0
 41
0
  0
VERTEX
  8
0
 10
7.01719
 20
7.91038
 30
0.0
 40
0
 41
0
  0
VERTEX
  8
0
 10
7.13103
 20
7.91038
 30
0.0
 40
0
 41
0
  0
VERTEX
  8
0
 10
7.13103
 20
7.82807
 30
0.0
 40
0
 41
0
  0
VERTEX
  8
0
 10
7.01719
 20
7.82807
 30
0.0
 40
0
 41
0
  0
VERTEX
  8
0
 10
7.01719
 20
7.91038
 30
0.0
 40
0
 41
0
  0
SEQEND
 8
0
  0
POLYLINE
  8
0
 62
     0
 66
     1
 10
0
 20
0
 30
0.0
 70
     1
 40
0
 41
0
  0
VERTEX
  8
0
 10
9.82417
 20
7.15517
 30
0.0
 40
0
 41
0
  0
VERTEX
  8
0
 10
9.91792
 20
7.15517
 30
0.0
 40
0
 41
0
  0
VERTEX
  8
0
 10
9.91792
 20
7.06494
 30
0.0
 40
0
 41
0
  0
VERTEX
  8
0
 10
9.82417
 20
7.06494
 30
0.0
 40
0
 41
0
  0
VERTEX
  8
0
 10
9.82417
 20
7.15517
 30
0.0
 40
0
 41
0
  0
SEQEND
 8
0
  0
POLYLINE
  8
0
 62
     0
 66
     1
 10
0
 20
0
 30
0.0
 70
     1
 40
0
 41
0
  0
VERTEX
  8
0
 10
9.82781
 20
7.91515
 30
0.0
 40
0
 41
0
  0
VERTEX
  8
0
 10
9.91792
 20
7.91515
 30
0.0
 40
0
 41
0
  0
VERTEX
  8
0
 10
9.91792
 20
7.8419
 30
0.0
 40
0
 41
0
  0
VERTEX
  8
0
 10
9.82781
 20
7.8419
 30
0.0
 40
0
 41
0
  0
VERTEX
  8
0
 10
9.82781
 20
7.91515
 30
0.0
 40
0
 41
0
  0
SEQEND
 8
0
  0
POLYLINE
  8
0
 62
     7
 66
     1
 10
0
 20
0
 30
0.0
 70
     1
 40
0
 41
0
  0
VERTEX
  8
0
 10
5.0715
 20
3.97299
 30
0.0
 40
0
 41
0
  0
VERTEX
  8
0
 10
5.63129
 20
3.97299
 30
0.0
 40
0
 41
0
  0
VERTEX
  8
0
 10
5.63129
 20
3.51633
 30
0.0
 40
0
 41
0
  0
VERTEX
  8
0
 10
5.0715
 20
3.51633
 30
0.0
 40
0
 41
0
  0
VERTEX
  8
0
 10
5.0715
 20
3.97299
 30
0.0
 40
0
 41
0
  0
SEQEND
 8
0
  0
POLYLINE
  8
0
 62
     0
 66
     1
 10
0
 20
0
 30
0.0
 70
     1
 40
0.75
 41
0.75
  0
VERTEX
  8
0
 10
5.0715
 20
3.97299
 30
0.0
 40
0.0104167
 41
0.0104167
  0
VERTEX
  8
0
 10
5.63129
 20
3.97299
 30
0.0
 40
0.0104167
 41
0.0104167
  0
VERTEX
  8
0
 10
5.63129
 20
3.51633
 30
0.0
 40
0.0104167
 41
0.0104167
  0
VERTEX
  8
0
 10
5.0715
 20
3.51633
 30
0.0
 40
0.0104167
 41
0.0104167
  0
VERTEX
  8
0
 10
5.0715
 20
3.97299
 30
0.0
 40
0.0104167
 41
0.0104167
  0
SEQEND
 8
0
  0
POLYLINE
  8
0
 62
     7
 66
     1
 10
0
 20
0
 30
0.0
 70
     1
 40
0
 41
0
  0
VERTEX
  8
0
 10
5.11817
 20
3.87196
 30
0.0
 40
0
 41
0
  0
VERTEX
  8
0
 10
5.58464
 20
3.87196
 30
0.0
 40
0
 41
0
  0
VERTEX
  8
0
 10
5.58464
 20
3.55675
 30
0.0
 40
0
 41
0
  0
VERTEX
  8
0
 10
5.11817
 20
3.55675
 30
0.0
 40
0
 41
0
  0
VERTEX
  8
0
 10
5.11817
 20
3.87196
 30
0.0
 40
0
 41
0
  0
SEQEND
 8
0
  0
POLYLINE
  8
0
 62
     0
 66
     1
 10
0
 20
0
 30
0.0
 70
     1
 40
0.75
 41
0.75
  0
VERTEX
  8
0
 10
5.11817
 20
3.87196
 30
0.0
 40
0.0104167
 41
0.0104167
  0
VERTEX
  8
0
 10
5.58464
 20
3.87196
 30
0.0
 40
0.0104167
 41
0.0104167
  0
VERTEX
  8
0
 10
5.58464
 20
3.55675
 30
0.0
 40
0.0104167
 41
0.0104167
  0
VERTEX
  8
0
 10
5.11817
 20
3.55675
 30
0.0
 40
0.0104167
 41
0.0104167
  0
VERTEX
  8
0
 10
5.11817
 20
3.87196
 30
0.0
 40
0.0104167
 41
0.0104167
  0
SEQEND
 8
0
  0
POLYLINE
  8
0
 62
     7
 66
     1
 10
0
 20
0
 30
0.0
 70
     1
 40
0
 41
0
  0
VERTEX
  8
0
 10
5.38786
 20
3.72792
 30
0.0
 40
0
 41
0
  0
VERTEX
  8
0
 10
5.38786
 20
3.72151
 30
0.0
 40
0
 41
0
  0
VERTEX
  8
0
 10
5.37717
 20
3.70215
 30
0.0
 40
0
 41
0
  0
VERTEX
  8
0
 10
5.35781
 20
3.69146
 30
0.0
 40
0
 41
0
  0
VERTEX
  8
0
 10
5.3514
 20
3.69146
 30
0.0
 40
0
 41
0
  0
VERTEX
  8
0
 10
5.34494
 20
3.69146
 30
0.0
 40
0
 41
0
  0
VERTEX
  8
0
 10
5.32557
 20
3.70215
 30
0.0
 40
0
 41
0
  0
VERTEX
  8
0
 10
5.31494
 20
3.72151
 30
0.0
 40
0
 41
0
  0
VERTEX
  8
0
 10
5.31494
 20
3.72792
 30
0.0
 40
0
 41
0
  0
VERTEX
  8
0
 10
5.31494
 20
3.73438
 30
0.0
 40
0
 41
0
  0
VERTEX
  8
0
 10
5.32557
 20
3.75375
 30
0.0
 40
0
 41
0
  0
VERTEX
  8
0
 10
5.34494
 20
3.76438
 30
0.0
 40
0
 41
0
  0
VERTEX
  8
0
 10
5.3514
 20
3.76438
 30
0.0
 40
0
 41
0
  0
VERTEX
  8
0
 10
5.35781
 20
3.76438
 30
0.0
 40
0
 41
0
  0
VERTEX
  8
0
 10
5.37717
 20
3.75375
 30
0.0
 40
0
 41
0
  0
VERTEX
  8
0
 10
5.38786
 20
3.73438
 30
0.0
 40
0
 41
0
  0
VERTEX
  8
0
 10
5.38786
 20
3.72792
 30
0.0
 40
0
 41
0
  0
SEQEND
 8
0
  0
POLYLINE
  8
0
 62
     0
 66
     1
 10
0
 20
0
 30
0.0
 70
     1
 40
0.6
 41
0.6
  0
VERTEX
  8
0
 10
5.38786
 20
3.72792
 30
0.0
 40
0.00833333
 41
0.00833333
  0
VERTEX
  8
0
 10
5.38786
 20
3.72151
 30
0.0
 40
0.00833333
 41
0.00833333
  0
VERTEX
  8
0
 10
5.37717
 20
3.70215
 30
0.0
 40
0.00833333
 41
0.00833333
  0
VERTEX
  8
0
 10
5.35781
 20
3.69146
 30
0.0
 40
0.00833333
 41
0.00833333
  0
VERTEX
  8
0
 10
5.3514
 20
3.69146
 30
0.0
 40
0.00833333
 41
0.00833333
  0
VERTEX
  8
0
 10
5.34494
 20
3.69146
 30
0.0
 40
0.00833333
 41
0.00833333
  0
VERTEX
  8
0
 10
5.32557
 20
3.70215
 30
0.0
 40
0.00833333
 41
0.00833333
  0
VERTEX
  8
0
 10
5.31494
 20
3.72151
 30
0.0
 40
0.00833333
 41
0.00833333
  0
VERTEX
  8
0
 10
5.31494
 20
3.72792
 30
0.0
 40
0.00833333
 41
0.00833333
  0
VERTEX
  8
0
 10
5.31494
 20
3.73438
 30
0.0
 40
0.00833333
 41
0.00833333
  0
VERTEX
  8
0
 10
5.32557
 20
3.75375
 30
0.0
 40
0.00833333
 41
0.00833333
  0
VERTEX
  8
0
 10
5.34494
 20
3.76438
 30
0.0
 40
0.00833333
 41
0.00833333
  0
VERTEX
  8
0
 10
5.3514
 20
3.76438
 30
0.0
 40
0.00833333
 41
0.00833333
  0
VERTEX
  8
0
 10
5.35781
 20
3.76438
 30
0.0
 40
0.00833333
 41
0.00833333
  0
VERTEX
  8
0
 10
5.37717
 20
3.75375
 30
0.0
 40
0.00833333
 41
0.00833333
  0
VERTEX
  8
0
 10
5.38786
 20
3.73438
 30
0.0
 40
0.00833333
 41
0.00833333
  0
VERTEX
  8
0
 10
5.38786
 20
3.72792
 30
0.0
 40
0.00833333
 41
0.00833333
  0
SEQEND
 8
0
  0
POLYLINE
  8
0
 62
     7
 66
     1
 10
0
 20
0
 30
0.0
 70
     1
 40
0
 41
0
  0
VERTEX
  8
0
 10
5.37224
 20
3.72792
 30
0.0
 40
0
 41
0
  0
VERTEX
  8
0
 10
5.37224
 20
3.72428
 30
0.0
 40
0
 41
0
  0
VERTEX
  8
0
 10
5.3661
 20
3.71322
 30
0.0
 40
0
 41
0
  0
VERTEX
  8
0
 10
5.35504
 20
3.70708
 30
0.0
 40
0
 41
0
  0
VERTEX
  8
0
 10
5.3514
 20
3.70708
 30
0.0
 40
0
 41
0
  0
VERTEX
  8
0
 10
5.34771
 20
3.70708
 30
0.0
 40
0
 41
0
  0
VERTEX
  8
0
 10
5.33664
 20
3.71322
 30
0.0
 40
0
 41
0
  0
VERTEX
  8
0
 10
5.33057
 20
3.72428
 30
0.0
 40
0
 41
0
  0
VERTEX
  8
0
 10
5.33057
 20
3.72792
 30
0.0
 40
0
 41
0
  0
VERTEX
  8
0
 10
5.33057
 20
3.73161
 30
0.0
 40
0
 41
0
  0
VERTEX
  8
0
 10
5.33664
 20
3.74268
 30
0.0
 40
0
 41
0
  0
VERTEX
  8
0
 10
5.34771
 20
3.74875
 30
0.0
 40
0
 41
0
  0
VERTEX
  8
0
 10
5.3514
 20
3.74875
 30
0.0
 40
0
 41
0
  0
VERTEX
  8
0
 10
5.35504
 20
3.74875
 30
0.0
 40
0
 41
0
  0
VERTEX
  8
0
 10
5.3661
 20
3.74268
 30
0.0
 40
0
 41
0
  0
VERTEX
  8
0
 10
5.37224
 20
3.73161
 30
0.0
 40
0
 41
0
  0
VERTEX
  8
0
 10
5.37224
 20
3.72792
 30
0.0
 40
0
 41
0
  0
SEQEND
 8
0
  0
POLYLINE
  8
0
 62
     0
 66
     1
 10
0
 20
0
 30
0.0
 70
     1
 40
0.6
 41
0.6
  0
VERTEX
  8
0
 10
5.37224
 20
3.72792
 30
0.0
 40
0.00833333
 41
0.00833333
  0
VERTEX
  8
0
 10
5.37224
 20
3.72428
 30
0.0
 40
0.00833333
 41
0.00833333
  0
VERTEX
  8
0
 10
5.3661
 20
3.71322
 30
0.0
 40
0.00833333
 41
0.00833333
  0
VERTEX
  8
0
 10
5.35504
 20
3.70708
 30
0.0
 40
0.00833333
 41
0.00833333
  0
VERTEX
  8
0
 10
5.3514
 20
3.70708
 30
0.0
 40
0.00833333
 41
0.00833333
  0
VERTEX
  8
0
 10
5.34771
 20
3.70708
 30
0.0
 40
0.00833333
 41
0.00833333
  0
VERTEX
  8
0
 10
5.33664
 20
3.71322
 30
0.0
 40
0.00833333
 41
0.00833333
  0
VERTEX
  8
0
 10
5.33057
 20
3.72428
 30
0.0
 40
0.00833333
 41
0.00833333
  0
VERTEX
  8
0
 10
5.33057
 20
3.72792
 30
0.0
 40
0.00833333
 41
0.00833333
  0
VERTEX
  8
0
 10
5.33057
 20
3.73161
 30
0.0
 40
0.00833333
 41
0.00833333
  0
VERTEX
  8
0
 10
5.33664
 20
3.74268
 30
0.0
 40
0.00833333
 41
0.00833333
  0
VERTEX
  8
0
 10
5.34771
 20
3.74875
 30
0.0
 40
0.00833333
 41
0.00833333
  0
VERTEX
  8
0
 10
5.3514
 20
3.74875
 30
0.0
 40
0.00833333
 41
0.00833333
  0
VERTEX
  8
0
 10
5.35504
 20
3.74875
 30
0.0
 40
0.00833333
 41
0.00833333
  0
VERTEX
  8
0
 10
5.3661
 20
3.74268
 30
0.0
 40
0.00833333
 41
0.00833333
  0
VERTEX
  8
0
 10
5.37224
 20
3.73161
 30
0.0
 40
0.00833333
 41
0.00833333
  0
VERTEX
  8
0
 10
5.37224
 20
3.72792
 30
0.0
 40
0.00833333
 41
0.00833333
  0
SEQEND
 8
0
  0
POLYLINE
  8
0
 62
     7
 66
     1
 10
0
 20
0
 30
0.0
 70
     1
 40
0
 41
0
  0
VERTEX
  8
0
 10
5.32335
 20
3.93494
 30
0.0
 40
0
 41
0
  0
VERTEX
  8
0
 10
5.38585
 20
3.93494
 30
0.0
 40
0
 41
0
  0
VERTEX
  8
0
 10
5.38585
 20
3.78911
 30
0.0
 40
0
 41
0
  0
VERTEX
  8
0
 10
5.32335
 20
3.78911
 30
0.0
 40
0
 41
0
  0
VERTEX
  8
0
 10
5.32335
 20
3.93494
 30
0.0
 40
0
 41
0
  0
SEQEND
 8
0
  0
POLYLINE
  8
0
 62
     0
 66
     1
 10
0
 20
0
 30
0.0
 70
     1
 40
0.75
 41
0.75
  0
VERTEX
  8
0
 10
5.32335
 20
3.93494
 30
0.0
 40
0.0104167
 41
0.0104167
  0
VERTEX
  8
0
 10
5.38585
 20
3.93494
 30
0.0
 40
0.0104167
 41
0.0104167
  0
VERTEX
  8
0
 10
5.38585
 20
3.78911
 30
0.0
 40
0.0104167
 41
0.0104167
  0
VERTEX
  8
0
 10
5.32335
 20
3.78911
 30
0.0
 40
0.0104167
 41
0.0104167
  0
VERTEX
  8
0
 10
5.32335
 20
3.93494
 30
0.0
 40
0.0104167
 41
0.0104167
  0
SEQEND
 8
0
  0
POLYLINE
  8
0
 62
     7
 66
     1
 10
0
 20
0
 30
0.0
 70
     1
 40
0
 41
0
  0
VERTEX
  8
0
 10
7.75906
 20
1.49567
 30
0.0
 40
0
 41
0
  0
VERTEX
  8
0
 10
8.38406
 20
1.49567
 30
0.0
 40
0
 41
0
  0
VERTEX
  8
0
 10
8.38406
 20
1.05306
 30
0.0
 40
0
 41
0
  0
VERTEX
  8
0
 10
7.75906
 20
1.05306
 30
0.0
 40
0
 41
0
  0
VERTEX
  8
0
 10
7.75906
 20
1.49567
 30
0.0
 40
0
 41
0
  0
SEQEND
 8
0
  0
POLYLINE
  8
0
 62
     0
 66
     1
 10
0
 20
0
 30
0.0
 70
     1
 40
0.75
 41
0.75
  0
VERTEX
  8
0
 10
7.75906
 20
1.49567
 30
0.0
 40
0.0104167
 41
0.0104167
  0
VERTEX
  8
0
 10
7.75906
 20
1.05306
 30
0.0
 40
0.0104167
 41
0.0104167
  0
VERTEX
  8
0
 10
8.38406
 20
1.05306
 30
0.0
 40
0.0104167
 41
0.0104167
  0
VERTEX
  8
0
 10
8.38406
 20
1.49567
 30
0.0
 40
0.0104167
 41
0.0104167
  0
VERTEX
  8
0
 10
7.75906
 20
1.49567
 30
0.0
 40
0.0104167
 41
0.0104167
  0
SEQEND
 8
0
  0
POLYLINE
  8
0
 62
     7
 66
     1
 10
0
 20
0
 30
0.0
 70
     1
 40
0
 41
0
  0
VERTEX
  8
0
 10
7.9916
 20
2.32454
 30
0.0
 40
0
 41
0
  0
VERTEX
  8
0
 10
8.38406
 20
2.32454
 30
0.0
 40
0
 41
0
  0
VERTEX
  8
0
 10
8.38406
 20
1.49306
 30
0.0
 40
0
 41
0
  0
VERTEX
  8
0
 10
7.9916
 20
1.49306
 30
0.0
 40
0
 41
0
  0
VERTEX
  8
0
 10
7.9916
 20
2.32454
 30
0.0
 40
0
 41
0
  0
SEQEND
 8
0
  0
POLYLINE
  8
0
 62
     0
 66
     1
 10
0
 20
0
 30
0.0
 70
     1
 40
0.75
 41
0.75
  0
VERTEX
  8
0
 10
7.9916
 20
2.32454
 30
0.0
 40
0.0104167
 41
0.0104167
  0
VERTEX
  8
0
 10
7.9916
 20
1.49306
 30
0.0
 40
0.0104167
 41
0.0104167
  0
VERTEX
  8
0
 10
8.38406
 20
1.49306
 30
0.0
 40
0.0104167
 41
0.0104167
  0
VERTEX
  8
0
 10
8.38406
 20
2.32454
 30
0.0
 40
0.0104167
 41
0.0104167
  0
VERTEX
  8
0
 10
7.9916
 20
2.32454
 30
0.0
 40
0.0104167
 41
0.0104167
  0
SEQEND
 8
0
  0
POLYLINE
  8
0
 62
     253
 66
     1
 10
0
 20
0
 30
0.0
 40
0.75
 41
0.75
  0
VERTEX
  8
0
 10
8.18782
 20
2.32454
 30
0.0
 40
0.0104167
 41
0.0104167
  0
VERTEX
  8
0
 10
8.18782
 20
1.49306
 30
0.0
 40
0.0104167
 41
0.0104167
  0
SEQEND
 8
0
  0
POLYLINE
  8
0
 62
     7
 66
     1
 10
0
 20
0
 30
0.0
 70
     1
 40
0
 41
0
  0
VERTEX
  8
0
 10
4.17833
 20
1.74024
 30
0.0
 40
0
 41
0
  0
VERTEX
  8
0
 10
4.80333
 20
1.74024
 30
0.0
 40
0
 41
0
  0
VERTEX
  8
0
 10
4.80333
 20
1.05306
 30
0.0
 40
0
 41
0
  0
VERTEX
  8
0
 10
4.17833
 20
1.05306
 30
0.0
 40
0
 41
0
  0
VERTEX
  8
0
 10
4.17833
 20
1.74024
 30
0.0
 40
0
 41
0
  0
SEQEND
 8
0
  0
POLYLINE
  8
0
 62
     0
 66
     1
 10
0
 20
0
 30
0.0
 70
     1
 40
0.75
 41
0.75
  0
VERTEX
  8
0
 10
4.17833
 20
1.74024
 30
0.0
 40
0.0104167
 41
0.0104167
  0
VERTEX
  8
0
 10
4.17833
 20
1.05306
 30
0.0
 40
0.0104167
 41
0.0104167
  0
VERTEX
  8
0
 10
4.80333
 20
1.05306
 30
0.0
 40
0.0104167
 41
0.0104167
  0
VERTEX
  8
0
 10
4.80333
 20
1.74024
 30
0.0
 40
0.0104167
 41
0.0104167
  0
VERTEX
  8
0
 10
4.17833
 20
1.74024
 30
0.0
 40
0.0104167
 41
0.0104167
  0
SEQEND
 8
0
  0
POLYLINE
  8
0
 62
     7
 66
     1
 10
0
 20
0
 30
0.0
 70
     1
 40
0
 41
0
  0
VERTEX
  8
0
 10
4.17736
 20
2.3226
 30
0.0
 40
0
 41
0
  0
VERTEX
  8
0
 10
5.66775
 20
2.3226
 30
0.0
 40
0
 41
0
  0
VERTEX
  8
0
 10
5.66775
 20
1.74333
 30
0.0
 40
0
 41
0
  0
VERTEX
  8
0
 10
4.17736
 20
1.74333
 30
0.0
 40
0
 41
0
  0
VERTEX
  8
0
 10
4.17736
 20
2.3226
 30
0.0
 40
0
 41
0
  0
SEQEND
 8
0
  0
POLYLINE
  8
0
 62
     0
 66
     1
 10
0
 20
0
 30
0.0
 70
     1
 40
0.75
 41
0.75
  0
VERTEX
  8
0
 10
4.17736
 20
2.3226
 30
0.0
 40
0.0104167
 41
0.0104167
  0
VERTEX
  8
0
 10
5.66775
 20
2.3226
 30
0.0
 40
0.0104167
 41
0.0104167
  0
VERTEX
  8
0
 10
5.66775
 20
1.74333
 30
0.0
 40
0.0104167
 41
0.0104167
  0
VERTEX
  8
0
 10
4.17736
 20
1.74333
 30
0.0
 40
0.0104167
 41
0.0104167
  0
VERTEX
  8
0
 10
4.17736
 20
2.3226
 30
0.0
 40
0.0104167
 41
0.0104167
  0
SEQEND
 8
0
  0
POLYLINE
  8
0
 62
     253
 66
     1
 10
0
 20
0
 30
0.0
 40
0.75
 41
0.75
  0
VERTEX
  8
0
 10
4.17736
 20
2.03299
 30
0.0
 40
0.0104167
 41
0.0104167
  0
VERTEX
  8
0
 10
5.66781
 20
2.03299
 30
0.0
 40
0.0104167
 41
0.0104167
  0
SEQEND
 8
0
  0
POLYLINE
  8
0
 62
     7
 66
     1
 10
0
 20
0
 30
0.0
 70
     1
 40
0
 41
0
  0
VERTEX
  8
0
 10
4.48406
 20
3.96858
 30
0.0
 40
0
 41
0
  0
VERTEX
  8
0
 10
4.60075
 20
3.96858
 30
0.0
 40
0
 41
0
  0
VERTEX
  8
0
 10
4.60075
 20
3.90506
 30
0.0
 40
0
 41
0
  0
VERTEX
  8
0
 10
4.48406
 20
3.90506
 30
0.0
 40
0
 41
0
  0
VERTEX
  8
0
 10
4.48406
 20
3.96858
 30
0.0
 40
0
 41
0
  0
SEQEND
 8
0
  0
POLYLINE
  8
0
 62
     0
 66
     1
 10
0
 20
0
 30
0.0
 70
     1
 40
0.75
 41
0.75
  0
VERTEX
  8
0
 10
4.48406
 20
3.96858
 30
0.0
 40
0.0104167
 41
0.0104167
  0
VERTEX
  8
0
 10
4.60075
 20
3.96858
 30
0.0
 40
0.0104167
 41
0.0104167
  0
VERTEX
  8
0
 10
4.60075
 20
3.90506
 30
0.0
 40
0.0104167
 41
0.0104167
  0
VERTEX
  8
0
 10
4.48406
 20
3.90506
 30
0.0
 40
0.0104167
 41
0.0104167
  0
VERTEX
  8
0
 10
4.48406
 20
3.96858
 30
0.0
 40
0.0104167
 41
0.0104167
  0
SEQEND
 8
0
  0
POLYLINE
  8
0
 62
     7
 66
     1
 10
0
 20
0
 30
0.0
 70
     1
 40
0
 41
0
  0
VERTEX
  8
0
 10
4.62885
 20
3.96858
 30
0.0
 40
0
 41
0
  0
VERTEX
  8
0
 10
4.7455
 20
3.96858
 30
0.0
 40
0
 41
0
  0
VERTEX
  8
0
 10
4.7455
 20
3.90506
 30
0.0
 40
0
 41
0
  0
VERTEX
  8
0
 10
4.62885
 20
3.90506
 30
0.0
 40
0
 41
0
  0
VERTEX
  8
0
 10
4.62885
 20
3.96858
 30
0.0
 40
0
 41
0
  0
SEQEND
 8
0
  0
POLYLINE
  8
0
 62
     0
 66
     1
 10
0
 20
0
 30
0.0
 70
     1
 40
0.75
 41
0.75
  0
VERTEX
  8
0
 10
4.62885
 20
3.96858
 30
0.0
 40
0.0104167
 41
0.0104167
  0
VERTEX
  8
0
 10
4.7455
 20
3.96858
 30
0.0
 40
0.0104167
 41
0.0104167
  0
VERTEX
  8
0
 10
4.7455
 20
3.90506
 30
0.0
 40
0.0104167
 41
0.0104167
  0
VERTEX
  8
0
 10
4.62885
 20
3.90506
 30
0.0
 40
0.0104167
 41
0.0104167
  0
VERTEX
  8
0
 10
4.62885
 20
3.96858
 30
0.0
 40
0.0104167
 41
0.0104167
  0
SEQEND
 8
0
  0
POLYLINE
  8
0
 62
     7
 66
     1
 10
0
 20
0
 30
0.0
 70
     1
 40
0
 41
0
  0
VERTEX
  8
0
 10
4.74447
 20
3.96858
 30
0.0
 40
0
 41
0
  0
VERTEX
  8
0
 10
4.77989
 20
3.96858
 30
0.0
 40
0
 41
0
  0
VERTEX
  8
0
 10
4.77989
 20
3.90506
 30
0.0
 40
0
 41
0
  0
VERTEX
  8
0
 10
4.74447
 20
3.90506
 30
0.0
 40
0
 41
0
  0
VERTEX
  8
0
 10
4.74447
 20
3.96858
 30
0.0
 40
0
 41
0
  0
SEQEND
 8
0
  0
POLYLINE
  8
0
 62
     0
 66
     1
 10
0
 20
0
 30
0.0
 70
     1
 40
0.75
 41
0.75
  0
VERTEX
  8
0
 10
4.74447
 20
3.96858
 30
0.0
 40
0.0104167
 41
0.0104167
  0
VERTEX
  8
0
 10
4.77989
 20
3.96858
 30
0.0
 40
0.0104167
 41
0.0104167
  0
VERTEX
  8
0
 10
4.77989
 20
3.90506
 30
0.0
 40
0.0104167
 41
0.0104167
  0
VERTEX
  8
0
 10
4.74447
 20
3.90506
 30
0.0
 40
0.0104167
 41
0.0104167
  0
VERTEX
  8
0
 10
4.74447
 20
3.96858
 30
0.0
 40
0.0104167
 41
0.0104167
  0
SEQEND
 8
0
  0
POLYLINE
  8
0
 62
     7
 66
     1
 10
0
 20
0
 30
0.0
 70
     1
 40
0
 41
0
  0
VERTEX
  8
0
 10
4.45074
 20
3.96858
 30
0.0
 40
0
 41
0
  0
VERTEX
  8
0
 10
4.48406
 20
3.96858
 30
0.0
 40
0
 41
0
  0
VERTEX
  8
0
 10
4.48406
 20
3.90506
 30
0.0
 40
0
 41
0
  0
VERTEX
  8
0
 10
4.45074
 20
3.90506
 30
0.0
 40
0
 41
0
  0
VERTEX
  8
0
 10
4.45074
 20
3.96858
 30
0.0
 40
0
 41
0
  0
SEQEND
 8
0
  0
POLYLINE
  8
0
 62
     0
 66
     1
 10
0
 20
0
 30
0.0
 70
     1
 40
0.75
 41
0.75
  0
VERTEX
  8
0
 10
4.45074
 20
3.96858
 30
0.0
 40
0.0104167
 41
0.0104167
  0
VERTEX
  8
0
 10
4.48406
 20
3.96858
 30
0.0
 40
0.0104167
 41
0.0104167
  0
VERTEX
  8
0
 10
4.48406
 20
3.90506
 30
0.0
 40
0.0104167
 41
0.0104167
  0
VERTEX
  8
0
 10
4.45074
 20
3.90506
 30
0.0
 40
0.0104167
 41
0.0104167
  0
VERTEX
  8
0
 10
4.45074
 20
3.96858
 30
0.0
 40
0.0104167
 41
0.0104167
  0
SEQEND
 8
0
  0
POLYLINE
  8
0
 62
     7
 66
     1
 10
0
 20
0
 30
0.0
 70
     1
 40
0
 41
0
  0
VERTEX
  8
0
 10
4.60075
 20
3.88525
 30
0.0
 40
0
 41
0
  0
VERTEX
  8
0
 10
4.60075
 20
3.87896
 30
0.0
 40
0
 41
0
  0
VERTEX
  8
0
 10
4.59706
 20
3.86003
 30
0.0
 40
0
 41
0
  0
VERTEX
  8
0
 10
4.58713
 20
3.83762
 30
0.0
 40
0
 41
0
  0
VERTEX
  8
0
 10
4.58404
 20
3.83317
 30
0.0
 40
0
 41
0
  0
VERTEX
  8
0
 10
4.58301
 20
3.83165
 30
0.0
 40
0
 41
0
  0
VERTEX
  8
0
 10
4.57281
 20
3.81706
 30
0.0
 40
0
 41
0
  0
VERTEX
  8
0
 10
4.5726
 20
3.81549
 30
0.0
 40
0
 41
0
  0
VERTEX
  8
0
 10
4.57206
 20
3.81261
 30
0.0
 40
0
 41
0
  0
VERTEX
  8
0
 10
4.57622
 20
3.79606
 30
0.0
 40
0
 41
0
  0
VERTEX
  8
0
 10
4.59289
 20
3.78321
 30
0.0
 40
0
 41
0
  0
VERTEX
  8
0
 10
4.59864
 20
3.78212
 30
0.0
 40
0
 41
0
  0
VERTEX
  8
0
 10
4.59993
 20
3.7819
 30
0.0
 40
0
 41
0
  0
VERTEX
  8
0
 10
4.61143
 20
3.78108
 30
0.0
 40
0
 41
0
  0
VERTEX
  8
0
 10
4.61529
 20
3.78108
 30
0.0
 40
0
 41
0
  0
VERTEX
  8
0
 10
4.61426
 20
3.78108
 30
0.0
 40
0
 41
0
  0
VERTEX
  8
0
 10
4.61838
 20
3.78108
 30
0.0
 40
0
 41
0
  0
VERTEX
  8
0
 10
4.62961
 20
3.7819
 30
0.0
 40
0
 41
0
  0
VERTEX
  8
0
 10
4.63092
 20
3.78212
 30
0.0
 40
0
 41
0
  0
VERTEX
  8
0
 10
4.63661
 20
3.78321
 30
0.0
 40
0
 41
0
  0
VERTEX
  8
0
 10
4.65332
 20
3.79606
 30
0.0
 40
0
 41
0
  0
VERTEX
  8
0
 10
4.65744
 20
3.81261
 30
0.0
 40
0
 41
0
  0
VERTEX
  8
0
 10
4.65696
 20
3.81549
 30
0.0
 40
0
 41
0
  0
VERTEX
  8
0
 10
4.65668
 20
3.81706
 30
0.0
 40
0
 41
0
  0
VERTEX
  8
0
 10
4.64654
 20
3.83165
 30
0.0
 40
0
 41
0
  0
VERTEX
  8
0
 10
4.64551
 20
3.83317
 30
0.0
 40
0
 41
0
  0
VERTEX
  8
0
 10
4.64236
 20
3.83762
 30
0.0
 40
0
 41
0
  0
VERTEX
  8
0
 10
4.63249
 20
3.86003
 30
0.0
 40
0
 41
0
  0
VERTEX
  8
0
 10
4.62885
 20
3.87896
 30
0.0
 40
0
 41
0
  0
VERTEX
  8
0
 10
4.62885
 20
3.88525
 30
0.0
 40
0
 41
0
  0
SEQEND
 8
0
  0
POLYLINE
  8
0
 62
     0
 66
     1
 10
0
 20
0
 30
0.0
 40
0.75
 41
0.75
  0
VERTEX
  8
0
 10
4.60075
 20
3.88525
 30
0.0
 40
0.0104167
 41
0.0104167
  0
VERTEX
  8
0
 10
4.60075
 20
3.87896
 30
0.0
 40
0.0104167
 41
0.0104167
  0
VERTEX
  8
0
 10
4.59706
 20
3.86003
 30
0.0
 40
0.0104167
 41
0.0104167
  0
VERTEX
  8
0
 10
4.58713
 20
3.83762
 30
0.0
 40
0.0104167
 41
0.0104167
  0
VERTEX
  8
0
 10
4.58404
 20
3.83317
 30
0.0
 40
0.0104167
 41
0.0104167
  0
VERTEX
  8
0
 10
4.58301
 20
3.83165
 30
0.0
 40
0.0104167
 41
0.0104167
  0
VERTEX
  8
0
 10
4.57281
 20
3.81706
 30
0.0
 40
0.0104167
 41
0.0104167
  0
VERTEX
  8
0
 10
4.5726
 20
3.81549
 30
0.0
 40
0.0104167
 41
0.0104167
  0
VERTEX
  8
0
 10
4.57206
 20
3.81261
 30
0.0
 40
0.0104167
 41
0.0104167
  0
VERTEX
  8
0
 10
4.57622
 20
3.79606
 30
0.0
 40
0.0104167
 41
0.0104167
  0
VERTEX
  8
0
 10
4.59289
 20
3.78321
 30
0.0
 40
0.0104167
 41
0.0104167
  0
VERTEX
  8
0
 10
4.59864
 20
3.78212
 30
0.0
 40
0.0104167
 41
0.0104167
  0
VERTEX
  8
0
 10
4.59993
 20
3.7819
 30
0.0
 40
0.0104167
 41
0.0104167
  0
VERTEX
  8
0
 10
4.61143
 20
3.78108
 30
0.0
 40
0.0104167
 41
0.0104167
  0
VERTEX
  8
0
 10
4.61529
 20
3.78108
 30
0.0
 40
0.0104167
 41
0.0104167
  0
VERTEX
  8
0
 10
4.61426
 20
3.78108
 30
0.0
 40
0.0104167
 41
0.0104167
  0
VERTEX
  8
0
 10
4.61838
 20
3.78108
 30
0.0
 40
0.0104167
 41
0.0104167
  0
VERTEX
  8
0
 10
4.62961
 20
3.7819
 30
0.0
 40
0.0104167
 41
0.0104167
  0
VERTEX
  8
0
 10
4.63092
 20
3.78212
 30
0.0
 40
0.0104167
 41
0.0104167
  0
VERTEX
  8
0
 10
4.63661
 20
3.78321
 30
0.0
 40
0.0104167
 41
0.0104167
  0
VERTEX
  8
0
 10
4.65332
 20
3.79606
 30
0.0
 40
0.0104167
 41
0.0104167
  0
VERTEX
  8
0
 10
4.65744
 20
3.81261
 30
0.0
 40
0.0104167
 41
0.0104167
  0
VERTEX
  8
0
 10
4.65696
 20
3.81549
 30
0.0
 40
0.0104167
 41
0.0104167
  0
VERTEX
  8
0
 10
4.65668
 20
3.81706
 30
0.0
 40
0.0104167
 41
0.0104167
  0
VERTEX
  8
0
 10
4.64654
 20
3.83165
 30
0.0
 40
0.0104167
 41
0.0104167
  0
VERTEX
  8
0
 10
4.64551
 20
3.83317
 30
0.0
 40
0.0104167
 41
0.0104167
  0
VERTEX
  8
0
 10
4.64236
 20
3.83762
 30
0.0
 40
0.0104167
 41
0.0104167
  0
VERTEX
  8
0
 10
4.63249
 20
3.86003
 30
0.0
 40
0.0104167
 41
0.0104167
  0
VERTEX
  8
0
 10
4.62885
 20
3.87896
 30
0.0
 40
0.0104167
 41
0.0104167
  0
VERTEX
  8
0
 10
4.62885
 20
3.88525
 30
0.0
 40
0.0104167
 41
0.0104167
  0
SEQEND
 8
0
  0
POLYLINE
  8
0
 62
     7
 66
     1
 10
0
 20
0
 30
0.0
 70
     1
 40
0
 41
0
  0
VERTEX
  8
0
 10
4.5726
 20
3.8144
 30
0.0
 40
0
 41
0
  0
VERTEX
  8
0
 10
4.57281
 20
3.81392
 30
0.0
 40
0
 41
0
  0
VERTEX
  8
0
 10
4.58469
 20
3.80376
 30
0.0
 40
0
 41
0
  0
VERTEX
  8
0
 10
4.60846
 20
3.79465
 30
0.0
 40
0
 41
0
  0
VERTEX
  8
0
 10
4.61638
 20
3.79465
 30
0.0
 40
0
 41
0
  0
VERTEX
  8
0
 10
4.62261
 20
3.79492
 30
0.0
 40
0
 41
0
  0
VERTEX
  8
0
 10
4.64524
 20
3.80414
 30
0.0
 40
0
 41
0
  0
VERTEX
  8
0
 10
4.65642
 20
3.81392
 30
0.0
 40
0
 41
0
  0
VERTEX
  8
0
 10
4.65696
 20
3.8144
 30
0.0
 40
0
 41
0
  0
SEQEND
 8
0
  0
POLYLINE
  8
0
 62
     0
 66
     1
 10
0
 20
0
 30
0.0
 40
0.75
 41
0.75
  0
VERTEX
  8
0
 10
4.5726
 20
3.8144
 30
0.0
 40
0.0104167
 41
0.0104167
  0
VERTEX
  8
0
 10
4.57281
 20
3.81392
 30
0.0
 40
0.0104167
 41
0.0104167
  0
VERTEX
  8
0
 10
4.58469
 20
3.80376
 30
0.0
 40
0.0104167
 41
0.0104167
  0
VERTEX
  8
0
 10
4.60846
 20
3.79465
 30
0.0
 40
0.0104167
 41
0.0104167
  0
VERTEX
  8
0
 10
4.61638
 20
3.79465
 30
0.0
 40
0.0104167
 41
0.0104167
  0
VERTEX
  8
0
 10
4.62261
 20
3.79492
 30
0.0
 40
0.0104167
 41
0.0104167
  0
VERTEX
  8
0
 10
4.64524
 20
3.80414
 30
0.0
 40
0.0104167
 41
0.0104167
  0
VERTEX
  8
0
 10
4.65642
 20
3.81392
 30
0.0
 40
0.0104167
 41
0.0104167
  0
VERTEX
  8
0
 10
4.65696
 20
3.8144
 30
0.0
 40
0.0104167
 41
0.0104167
  0
SEQEND
 8
0
  0
POLYLINE
  8
0
 62
     7
 66
     1
 10
0
 20
0
 30
0.0
 70
     1
 40
0
 41
0
  0
VERTEX
  8
0
 10
4.60075
 20
3.96858
 30
0.0
 40
0
 41
0
  0
VERTEX
  8
0
 10
4.62885
 20
3.96858
 30
0.0
 40
0
 41
0
  0
VERTEX
  8
0
 10
4.62885
 20
3.88525
 30
0.0
 40
0
 41
0
  0
VERTEX
  8
0
 10
4.62181
 20
3.88525
 30
0.0
 40
0
 41
0
  0
VERTEX
  8
0
 10
4.60601
 20
3.88525
 30
0.0
 40
0
 41
0
  0
VERTEX
  8
0
 10
4.60075
 20
3.88525
 30
0.0
 40
0
 41
0
  0
VERTEX
  8
0
 10
4.60075
 20
3.90608
 30
0.0
 40
0
 41
0
  0
VERTEX
  8
0
 10
4.60075
 20
3.95296
 30
0.0
 40
0
 41
0
  0
VERTEX
  8
0
 10
4.60075
 20
3.96858
 30
0.0
 40
0
 41
0
  0
SEQEND
 8
0
  0
POLYLINE
  8
0
 62
     0
 66
     1
 10
0
 20
0
 30
0.0
 70
     1
 40
0.75
 41
0.75
  0
VERTEX
  8
0
 10
4.60075
 20
3.96858
 30
0.0
 40
0.0104167
 41
0.0104167
  0
VERTEX
  8
0
 10
4.62885
 20
3.96858
 30
0.0
 40
0.0104167
 41
0.0104167
  0
VERTEX
  8
0
 10
4.62885
 20
3.88525
 30
0.0
 40
0.0104167
 41
0.0104167
  0
VERTEX
  8
0
 10
4.62181
 20
3.88525
 30
0.0
 40
0.0104167
 41
0.0104167
  0
VERTEX
  8
0
 10
4.60601
 20
3.88525
 30
0.0
 40
0.0104167
 41
0.0104167
  0
VERTEX
  8
0
 10
4.60075
 20
3.88525
 30
0.0
 40
0.0104167
 41
0.0104167
  0
VERTEX
  8
0
 10
4.60075
 20
3.90608
 30
0.0
 40
0.0104167
 41
0.0104167
  0
VERTEX
  8
0
 10
4.60075
 20
3.95296
 30
0.0
 40
0.0104167
 41
0.0104167
  0
VERTEX
  8
0
 10
4.60075
 20
3.96858
 30
0.0
 40
0.0104167
 41
0.0104167
  0
SEQEND
 8
0
  0
POLYLINE
  8
0
 62
     7
 66
     1
 10
0
 20
0
 30
0.0
 70
     1
 40
0
 41
0
  0
VERTEX
  8
0
 10
4.48406
 20
3.93631
 30
0.0
 40
0
 41
0
  0
VERTEX
  8
0
 10
4.48725
 20
3.93756
 30
0.0
 40
0
 41
0
  0
VERTEX
  8
0
 10
4.4969
 20
3.9414
 30
0.0
 40
0
 41
0
  0
VERTEX
  8
0
 10
4.49968
 20
3.94254
 30
0.0
 40
0
 41
0
  0
VERTEX
  8
0
 10
4.49968
 20
3.94254
 30
0.0
 40
0
 41
0
  0
VERTEX
  8
0
 10
4.49968
 20
3.94114
 30
0.0
 40
0
 41
0
  0
VERTEX
  8
0
 10
4.49968
 20
3.93685
 30
0.0
 40
0
 41
0
  0
VERTEX
  8
0
 10
4.49968
 20
3.93257
 30
0.0
 40
0
 41
0
  0
VERTEX
  8
0
 10
4.49968
 20
3.9311
 30
0.0
 40
0
 41
0
  0
VERTEX
  8
0
 10
4.49968
 20
3.9311
 30
0.0
 40
0
 41
0
  0
VERTEX
  8
0
 10
4.49729
 20
3.93175
 30
0.0
 40
0
 41
0
  0
VERTEX
  8
0
 10
4.48731
 20
3.93517
 30
0.0
 40
0
 41
0
  0
VERTEX
  8
0
 10
4.48406
 20
3.93631
 30
0.0
 40
0
 41
0
  0
SEQEND
 8
0
  0
POLYLINE
  8
0
 62
     0
 66
     1
 10
0
 20
0
 30
0.0
 70
     1
 40
0.75
 41
0.75
  0
VERTEX
  8
0
 10
4.48406
 20
3.93631
 30
0.0
 40
0.0104167
 41
0.0104167
  0
VERTEX
  8
0
 10
4.48725
 20
3.93756
 30
0.0
 40
0.0104167
 41
0.0104167
  0
VERTEX
  8
0
 10
4.4969
 20
3.9414
 30
0.0
 40
0.0104167
 41
0.0104167
  0
VERTEX
  8
0
 10
4.49968
 20
3.94254
 30
0.0
 40
0.0104167
 41
0.0104167
  0
VERTEX
  8
0
 10
4.49968
 20
3.94254
 30
0.0
 40
0.0104167
 41
0.0104167
  0
VERTEX
  8
0
 10
4.49968
 20
3.94114
 30
0.0
 40
0.0104167
 41
0.0104167
  0
VERTEX
  8
0
 10
4.49968
 20
3.93685
 30
0.0
 40
0.0104167
 41
0.0104167
  0
VERTEX
  8
0
 10
4.49968
 20
3.93257
 30
0.0
 40
0.0104167
 41
0.0104167
  0
VERTEX
  8
0
 10
4.49968
 20
3.9311
 30
0.0
 40
0.0104167
 41
0.0104167
  0
VERTEX
  8
0
 10
4.49968
 20
3.9311
 30
0.0
 40
0.0104167
 41
0.0104167
  0
VERTEX
  8
0
 10
4.49729
 20
3.93175
 30
0.0
 40
0.0104167
 41
0.0104167
  0
VERTEX
  8
0
 10
4.48731
 20
3.93517
 30
0.0
 40
0.0104167
 41
0.0104167
  0
VERTEX
  8
0
 10
4.48406
 20
3.93631
 30
0.0
 40
0.0104167
 41
0.0104167
  0
SEQEND
 8
0
  0
POLYLINE
  8
0
 62
     7
 66
     1
 10
0
 20
0
 30
0.0
 70
     1
 40
0
 41
0
  0
VERTEX
  8
0
 10
4.74447
 20
3.93631
 30
0.0
 40
0
 41
0
  0
VERTEX
  8
0
 10
4.74121
 20
3.93756
 30
0.0
 40
0
 41
0
  0
VERTEX
  8
0
 10
4.73156
 20
3.9414
 30
0.0
 40
0
 41
0
  0
VERTEX
  8
0
 10
4.72885
 20
3.94254
 30
0.0
 40
0
 41
0
  0
VERTEX
  8
0
 10
4.72885
 20
3.94254
 30
0.0
 40
0
 41
0
  0
VERTEX
  8
0
 10
4.72885
 20
3.94114
 30
0.0
 40
0
 41
0
  0
VERTEX
  8
0
 10
4.72885
 20
3.93685
 30
0.0
 40
0
 41
0
  0
VERTEX
  8
0
 10
4.72885
 20
3.93257
 30
0.0
 40
0
 41
0
  0
VERTEX
  8
0
 10
4.72885
 20
3.9311
 30
0.0
 40
0
 41
0
  0
VERTEX
  8
0
 10
4.72885
 20
3.9311
 30
0.0
 40
0
 41
0
  0
VERTEX
  8
0
 10
4.73118
 20
3.93175
 30
0.0
 40
0
 41
0
  0
VERTEX
  8
0
 10
4.74115
 20
3.93517
 30
0.0
 40
0
 41
0
  0
VERTEX
  8
0
 10
4.74447
 20
3.93631
 30
0.0
 40
0
 41
0
  0
SEQEND
 8
0
  0
POLYLINE
  8
0
 62
     0
 66
     1
 10
0
 20
0
 30
0.0
 70
     1
 40
0.75
 41
0.75
  0
VERTEX
  8
0
 10
4.74447
 20
3.93631
 30
0.0
 40
0.0104167
 41
0.0104167
  0
VERTEX
  8
0
 10
4.74121
 20
3.93756
 30
0.0
 40
0.0104167
 41
0.0104167
  0
VERTEX
  8
0
 10
4.73156
 20
3.9414
 30
0.0
 40
0.0104167
 41
0.0104167
  0
VERTEX
  8
0
 10
4.72885
 20
3.94254
 30
0.0
 40
0.0104167
 41
0.0104167
  0
VERTEX
  8
0
 10
4.72885
 20
3.94254
 30
0.0
 40
0.0104167
 41
0.0104167
  0
VERTEX
  8
0
 10
4.72885
 20
3.94114
 30
0.0
 40
0.0104167
 41
0.0104167
  0
VERTEX
  8
0
 10
4.72885
 20
3.93685
 30
0.0
 40
0.0104167
 41
0.0104167
  0
VERTEX
  8
0
 10
4.72885
 20
3.93257
 30
0.0
 40
0.0104167
 41
0.0104167
  0
VERTEX
  8
0
 10
4.72885
 20
3.9311
 30
0.0
 40
0.0104167
 41
0.0104167
  0
VERTEX
  8
0
 10
4.72885
 20
3.9311
 30
0.0
 40
0.0104167
 41
0.0104167
  0
VERTEX
  8
0
 10
4.73118
 20
3.93175
 30
0.0
 40
0.0104167
 41
0.0104167
  0
VERTEX
  8
0
 10
4.74115
 20
3.93517
 30
0.0
 40
0.0104167
 41
0.0104167
  0
VERTEX
  8
0
 10
4.74447
 20
3.93631
 30
0.0
 40
0.0104167
 41
0.0104167
  0
SEQEND
 8
0
  0
POLYLINE
  8
0
 62
     7
 66
     1
 10
0
 20
0
 30
0.0
 70
     1
 40
0
 41
0
  0
VERTEX
  8
0
 10
4.17839
 20
3.05371
 30
0.0
 40
0
 41
0
  0
VERTEX
  8
0
 10
4.80339
 20
3.05371
 30
0.0
 40
0
 41
0
  0
VERTEX
  8
0
 10
4.80339
 20
2.42871
 30
0.0
 40
0
 41
0
  0
VERTEX
  8
0
 10
4.17839
 20
2.42871
 30
0.0
 40
0
 41
0
  0
VERTEX
  8
0
 10
4.17839
 20
3.05371
 30
0.0
 40
0
 41
0
  0
SEQEND
 8
0
  0
POLYLINE
  8
0
 62
     0
 66
     1
 10
0
 20
0
 30
0.0
 70
     1
 40
0.75
 41
0.75
  0
VERTEX
  8
0
 10
4.17839
 20
3.05371
 30
0.0
 40
0.0104167
 41
0.0104167
  0
VERTEX
  8
0
 10
4.17839
 20
2.42871
 30
0.0
 40
0.0104167
 41
0.0104167
  0
VERTEX
  8
0
 10
4.80339
 20
2.42871
 30
0.0
 40
0.0104167
 41
0.0104167
  0
VERTEX
  8
0
 10
4.80339
 20
3.05371
 30
0.0
 40
0.0104167
 41
0.0104167
  0
VERTEX
  8
0
 10
4.17839
 20
3.05371
 30
0.0
 40
0.0104167
 41
0.0104167
  0
SEQEND
 8
0
  0
POLYLINE
  8
0
 62
     0
 66
     1
 10
0
 20
0
 30
0.0
 40
0.75
 41
0.75
  0
VERTEX
  8
0
 10
4.17839
 20
2.42871
 30
0.0
 40
0.0104167
 41
0.0104167
  0
VERTEX
  8
0
 10
4.59293
 20
2.74224
 30
0.0
 40
0.0104167
 41
0.0104167
  0
VERTEX
  8
0
 10
4.38049
 20
2.74224
 30
0.0
 40
0.0104167
 41
0.0104167
  0
VERTEX
  8
0
 10
4.80339
 20
3.05268
 30
0.0
 40
0.0104167
 41
0.0104167
  0
SEQEND
 8
0
  0
POLYLINE
  8
0
 62
     7
 66
     1
 10
0
 20
0
 30
0.0
 70
     1
 40
0
 41
0
  0
VERTEX
  8
0
 10
5.79736
 20
3.96858
 30
0.0
 40
0
 41
0
  0
VERTEX
  8
0
 10
6.21392
 20
3.96858
 30
0.0
 40
0
 41
0
  0
VERTEX
  8
0
 10
6.21392
 20
3.78131
 30
0.0
 40
0
 41
0
  0
VERTEX
  8
0
 10
5.79736
 20
3.78131
 30
0.0
 40
0
 41
0
  0
VERTEX
  8
0
 10
5.79736
 20
3.96858
 30
0.0
 40
0
 41
0
  0
SEQEND
 8
0
  0
POLYLINE
  8
0
 62
     0
 66
     1
 10
0
 20
0
 30
0.0
 70
     1
 40
0.75
 41
0.75
  0
VERTEX
  8
0
 10
5.79736
 20
3.96858
 30
0.0
 40
0.0104167
 41
0.0104167
  0
VERTEX
  8
0
 10
6.21392
 20
3.96858
 30
0.0
 40
0.0104167
 41
0.0104167
  0
VERTEX
  8
0
 10
6.21392
 20
3.78131
 30
0.0
 40
0.0104167
 41
0.0104167
  0
VERTEX
  8
0
 10
5.79736
 20
3.78131
 30
0.0
 40
0.0104167
 41
0.0104167
  0
VERTEX
  8
0
 10
5.79736
 20
3.96858
 30
0.0
 40
0.0104167
 41
0.0104167
  0
SEQEND
 8
0
  0
POLYLINE
  8
0
 62
     7
 66
     1
 10
0
 20
0
 30
0.0
 70
     1
 40
0
 41
0
  0
VERTEX
  8
0
 10
6.21392
 20
3.51303
 30
0.0
 40
0
 41
0
  0
VERTEX
  8
0
 10
6.21392
 20
3.51303
 30
0.0
 40
0
 41
0
  0
VERTEX
  8
0
 10
6.21397
 20
3.50131
 30
0.0
 40
0
 41
0
  0
VERTEX
  8
0
 10
6.21235
 20
3.47032
 30
0.0
 40
0
 41
0
  0
VERTEX
  8
0
 10
6.20622
 20
3.42649
 30
0.0
 40
0
 41
0
  0
VERTEX
  8
0
 10
6.19282
 20
3.37625
 30
0.0
 40
0
 41
0
  0
VERTEX
  8
0
 10
6.16928
 20
3.32601
 30
0.0
 40
0
 41
0
  0
VERTEX
  8
0
 10
6.13282
 20
3.28217
 30
0.0
 40
0
 41
0
  0
VERTEX
  8
0
 10
6.08062
 20
3.25119
 30
0.0
 40
0
 41
0
  0
VERTEX
  8
0
 10
6.02756
 20
3.23942
 30
0.0
 40
0
 41
0
  0
VERTEX
  8
0
 10
6.00993
 20
3.23942
 30
0.0
 40
0
 41
0
  0
VERTEX
  8
0
 10
5.9916
 20
3.23942
 30
0.0
 40
0
 41
0
  0
VERTEX
  8
0
 10
5.93674
 20
3.25119
 30
0.0
 40
0
 41
0
  0
VERTEX
  8
0
 10
5.88265
 20
3.28217
 30
0.0
 40
0
 41
0
  0
VERTEX
  8
0
 10
5.84483
 20
3.32601
 30
0.0
 40
0
 41
0
  0
VERTEX
  8
0
 10
5.82042
 20
3.37625
 30
0.0
 40
0
 41
0
  0
VERTEX
  8
0
 10
5.80643
 20
3.42649
 30
0.0
 40
0
 41
0
  0
VERTEX
  8
0
 10
5.80003
 20
3.47032
 30
0.0
 40
0
 41
0
  0
VERTEX
  8
0
 10
5.79829
 20
3.50131
 30
0.0
 40
0
 41
0
  0
VERTEX
  8
0
 10
5.79839
 20
3.51303
 30
0.0
 40
0
 41
0
  0
VERTEX
  8
0
 10
5.79839
 20
3.51303
 30
0.0
 40
0
 41
0
  0
VERTEX
  8
0
 10
5.79736
 20
3.78131
 30
0.0
 40
0
 41
0
  0
VERTEX
  8
0
 10
6.21392
 20
3.78131
 30
0.0
 40
0
 41
0
  0
VERTEX
  8
0
 10
6.21392
 20
3.51303
 30
0.0
 40
0
 41
0
  0
SEQEND
 8
0
  0
POLYLINE
  8
0
 62
     0
 66
     1
 10
0
 20
0
 30
0.0
 70
     1
 40
0.75
 41
0.75
  0
VERTEX
  8
0
 10
6.21392
 20
3.51303
 30
0.0
 40
0.0104167
 41
0.0104167
  0
VERTEX
  8
0
 10
6.21392
 20
3.51303
 30
0.0
 40
0.0104167
 41
0.0104167
  0
VERTEX
  8
0
 10
6.21397
 20
3.50131
 30
0.0
 40
0.0104167
 41
0.0104167
  0
VERTEX
  8
0
 10
6.21235
 20
3.47032
 30
0.0
 40
0.0104167
 41
0.0104167
  0
VERTEX
  8
0
 10
6.20622
 20
3.42649
 30
0.0
 40
0.0104167
 41
0.0104167
  0
VERTEX
  8
0
 10
6.19282
 20
3.37625
 30
0.0
 40
0.0104167
 41
0.0104167
  0
VERTEX
  8
0
 10
6.16928
 20
3.32601
 30
0.0
 40
0.0104167
 41
0.0104167
  0
VERTEX
  8
0
 10
6.13282
 20
3.28217
 30
0.0
 40
0.0104167
 41
0.0104167
  0
VERTEX
  8
0
 10
6.08062
 20
3.25119
 30
0.0
 40
0.0104167
 41
0.0104167
  0
VERTEX
  8
0
 10
6.02756
 20
3.23942
 30
0.0
 40
0.0104167
 41
0.0104167
  0
VERTEX
  8
0
 10
6.00993
 20
3.23942
 30
0.0
 40
0.0104167
 41
0.0104167
  0
VERTEX
  8
0
 10
5.9916
 20
3.23942
 30
0.0
 40
0.0104167
 41
0.0104167
  0
VERTEX
  8
0
 10
5.93674
 20
3.25119
 30
0.0
 40
0.0104167
 41
0.0104167
  0
VERTEX
  8
0
 10
5.88265
 20
3.28217
 30
0.0
 40
0.0104167
 41
0.0104167
  0
VERTEX
  8
0
 10
5.84483
 20
3.32601
 30
0.0
 40
0.0104167
 41
0.0104167
  0
VERTEX
  8
0
 10
5.82042
 20
3.37625
 30
0.0
 40
0.0104167
 41
0.0104167
  0
VERTEX
  8
0
 10
5.80643
 20
3.42649
 30
0.0
 40
0.0104167
 41
0.0104167
  0
VERTEX
  8
0
 10
5.80003
 20
3.47032
 30
0.0
 40
0.0104167
 41
0.0104167
  0
VERTEX
  8
0
 10
5.79829
 20
3.50131
 30
0.0
 40
0.0104167
 41
0.0104167
  0
VERTEX
  8
0
 10
5.79839
 20
3.51303
 30
0.0
 40
0.0104167
 41
0.0104167
  0
VERTEX
  8
0
 10
5.79839
 20
3.51303
 30
0.0
 40
0.0104167
 41
0.0104167
  0
VERTEX
  8
0
 10
5.79736
 20
3.78131
 30
0.0
 40
0.0104167
 41
0.0104167
  0
VERTEX
  8
0
 10
6.21392
 20
3.78131
 30
0.0
 40
0.0104167
 41
0.0104167
  0
VERTEX
  8
0
 10
6.21392
 20
3.51303
 30
0.0
 40
0.0104167
 41
0.0104167
  0
SEQEND
 8
0
  0
POLYLINE
  8
0
 62
     7
 66
     1
 10
0
 20
0
 30
0.0
 70
     1
 40
0
 41
0
  0
VERTEX
  8
0
 10
5.97254
 20
3.89074
 30
0.0
 40
0
 41
0
  0
VERTEX
  8
0
 10
6.03874
 20
3.89074
 30
0.0
 40
0
 41
0
  0
VERTEX
  8
0
 10
6.03874
 20
3.85915
 30
0.0
 40
0
 41
0
  0
VERTEX
  8
0
 10
5.97254
 20
3.85915
 30
0.0
 40
0
 41
0
  0
VERTEX
  8
0
 10
5.97254
 20
3.89074
 30
0.0
 40
0
 41
0
  0
SEQEND
 8
0
  0
POLYLINE
  8
0
 62
     0
 66
     1
 10
0
 20
0
 30
0.0
 70
     1
 40
0.75
 41
0.75
  0
VERTEX
  8
0
 10
5.97254
 20
3.89074
 30
0.0
 40
0.0104167
 41
0.0104167
  0
VERTEX
  8
0
 10
6.03874
 20
3.89074
 30
0.0
 40
0.0104167
 41
0.0104167
  0
VERTEX
  8
0
 10
6.03874
 20
3.85915
 30
0.0
 40
0.0104167
 41
0.0104167
  0
VERTEX
  8
0
 10
5.97254
 20
3.85915
 30
0.0
 40
0.0104167
 41
0.0104167
  0
VERTEX
  8
0
 10
5.97254
 20
3.89074
 30
0.0
 40
0.0104167
 41
0.0104167
  0
SEQEND
 8
0
  0
POLYLINE
  8
0
 62
     7
 66
     1
 10
0
 20
0
 30
0.0
 70
     1
 40
0
 41
0
  0
VERTEX
  8
0
 10
6.36214
 20
3.97217
 30
0.0
 40
0
 41
0
  0
VERTEX
  8
0
 10
6.85319
 20
3.97217
 30
0.0
 40
0
 41
0
  0
VERTEX
  8
0
 10
6.85319
 20
3.36572
 30
0.0
 40
0
 41
0
  0
VERTEX
  8
0
 10
6.36214
 20
3.36572
 30
0.0
 40
0
 41
0
  0
VERTEX
  8
0
 10
6.36214
 20
3.97217
 30
0.0
 40
0
 41
0
  0
SEQEND
 8
0
  0
POLYLINE
  8
0
 62
     0
 66
     1
 10
0
 20
0
 30
0.0
 70
     1
 40
0.75
 41
0.75
  0
VERTEX
  8
0
 10
6.36214
 20
3.97217
 30
0.0
 40
0.0104167
 41
0.0104167
  0
VERTEX
  8
0
 10
6.85319
 20
3.97217
 30
0.0
 40
0.0104167
 41
0.0104167
  0
VERTEX
  8
0
 10
6.85319
 20
3.36572
 30
0.0
 40
0.0104167
 41
0.0104167
  0
VERTEX
  8
0
 10
6.36214
 20
3.36572
 30
0.0
 40
0.0104167
 41
0.0104167
  0
VERTEX
  8
0
 10
6.36214
 20
3.97217
 30
0.0
 40
0.0104167
 41
0.0104167
  0
SEQEND
 8
0
  0
POLYLINE
  8
0
 62
     0
 66
     1
 10
0
 20
0
 30
0.0
 70
     1
 40
1.35
 41
1.35
  0
VERTEX
  8
0
 10
4.17839
 20
3.05371
 30
0.0
 40
0.01875
 41
0.01875
  0
VERTEX
  8
0
 10
5.0715
 20
3.05371
 30
0.0
 40
0.01875
 41
0.01875
  0
VERTEX
  8
0
 10
5.0715
 20
3.97379
 30
0.0
 40
0.01875
 41
0.01875
  0
VERTEX
  8
0
 10
5.0715
 20
3.05371
 30
0.0
 40
0.01875
 41
0.01875
  0
VERTEX
  8
0
 10
4.17839
 20
3.05371
 30
0.0
 40
0.01875
 41
0.01875
  0
SEQEND
 8
0
  0
POLYLINE
  8
0
 62
     7
 66
     1
 10
0
 20
0
 30
0.0
 70
     1
 40
0
 41
0
  0
VERTEX
  8
0
 10
4.18083
 20
4.69254
 30
0.0
 40
0
 41
0
  0
VERTEX
  8
0
 10
6.85519
 20
4.69254
 30
0.0
 40
0
 41
0
  0
VERTEX
  8
0
 10
6.85519
 20
4.06754
 30
0.0
 40
0
 41
0
  0
VERTEX
  8
0
 10
4.18083
 20
4.06754
 30
0.0
 40
0
 41
0
  0
VERTEX
  8
0
 10
4.18083
 20
4.69254
 30
0.0
 40
0
 41
0
  0
SEQEND
 8
0
  0
POLYLINE
  8
0
 62
     0
 66
     1
 10
0
 20
0
 30
0.0
 70
     1
 40
0.75
 41
0.75
  0
VERTEX
  8
0
 10
4.18083
 20
4.69254
 30
0.0
 40
0.0104167
 41
0.0104167
  0
VERTEX
  8
0
 10
6.85519
 20
4.69254
 30
0.0
 40
0.0104167
 41
0.0104167
  0
VERTEX
  8
0
 10
6.85519
 20
4.06754
 30
0.0
 40
0.0104167
 41
0.0104167
  0
VERTEX
  8
0
 10
4.18083
 20
4.06754
 30
0.0
 40
0.0104167
 41
0.0104167
  0
VERTEX
  8
0
 10
4.18083
 20
4.69254
 30
0.0
 40
0.0104167
 41
0.0104167
  0
SEQEND
 8
0
  0
POLYLINE
  8
0
 62
     7
 66
     1
 10
0
 20
0
 30
0.0
 70
     1
 40
0
 41
0
  0
VERTEX
  8
0
 10
5.54167
 20
4.69254
 30
0.0
 40
0
 41
0
  0
VERTEX
  8
0
 10
6.09289
 20
4.69254
 30
0.0
 40
0
 41
0
  0
VERTEX
  8
0
 10
6.09289
 20
4.06754
 30
0.0
 40
0
 41
0
  0
VERTEX
  8
0
 10
5.54167
 20
4.06754
 30
0.0
 40
0
 41
0
  0
VERTEX
  8
0
 10
5.54167
 20
4.69254
 30
0.0
 40
0
 41
0
  0
SEQEND
 8
0
  0
POLYLINE
  8
0
 62
     0
 66
     1
 10
0
 20
0
 30
0.0
 70
     1
 40
0.6615
 41
0.6615
  0
VERTEX
  8
0
 10
5.54167
 20
4.69254
 30
0.0
 40
0.0091875
 41
0.0091875
  0
VERTEX
  8
0
 10
6.09289
 20
4.69254
 30
0.0
 40
0.0091875
 41
0.0091875
  0
VERTEX
  8
0
 10
6.09289
 20
4.06754
 30
0.0
 40
0.0091875
 41
0.0091875
  0
VERTEX
  8
0
 10
5.54167
 20
4.06754
 30
0.0
 40
0.0091875
 41
0.0091875
  0
VERTEX
  8
0
 10
5.54167
 20
4.69254
 30
0.0
 40
0.0091875
 41
0.0091875
  0
SEQEND
 8
0
  0
POLYLINE
  8
0
 62
     0
 66
     1
 10
0
 20
0
 30
0.0
 40
0.6615
 41
0.6615
  0
VERTEX
  8
0
 10
6.09289
 20
4.06754
 30
0.0
 40
0.0091875
 41
0.0091875
  0
VERTEX
  8
0
 10
5.81635
 20
4.48215
 30
0.0
 40
0.0091875
 41
0.0091875
  0
VERTEX
  8
0
 10
5.81635
 20
4.26964
 30
0.0
 40
0.0091875
 41
0.0091875
  0
VERTEX
  8
0
 10
5.54258
 20
4.69254
 30
0.0
 40
0.0091875
 41
0.0091875
  0
SEQEND
 8
0
  0
POLYLINE
  8
0
 62
     7
 66
     1
 10
0
 20
0
 30
0.0
 70
     1
 40
0
 41
0
  0
VERTEX
  8
0
 10
4.99647
 20
4.67171
 30
0.0
 40
0
 41
0
  0
VERTEX
  8
0
 10
5.52083
 20
4.67171
 30
0.0
 40
0
 41
0
  0
VERTEX
  8
0
 10
5.52083
 20
4.08838
 30
0.0
 40
0
 41
0
  0
VERTEX
  8
0
 10
4.99647
 20
4.08838
 30
0.0
 40
0
 41
0
  0
VERTEX
  8
0
 10
4.99647
 20
4.67171
 30
0.0
 40
0
 41
0
  0
SEQEND
 8
0
  0
POLYLINE
  8
0
 62
     0
 66
     1
 10
0
 20
0
 30
0.0
 70
     1
 40
0.75
 41
0.75
  0
VERTEX
  8
0
 10
4.99647
 20
4.67171
 30
0.0
 40
0.0104167
 41
0.0104167
  0
VERTEX
  8
0
 10
5.52083
 20
4.67171
 30
0.0
 40
0.0104167
 41
0.0104167
  0
VERTEX
  8
0
 10
5.52083
 20
4.08838
 30
0.0
 40
0.0104167
 41
0.0104167
  0
VERTEX
  8
0
 10
4.99647
 20
4.08838
 30
0.0
 40
0.0104167
 41
0.0104167
  0
VERTEX
  8
0
 10
4.99647
 20
4.67171
 30
0.0
 40
0.0104167
 41
0.0104167
  0
SEQEND
 8
0
  0
POLYLINE
  8
0
 62
     7
 66
     1
 10
0
 20
0
 30
0.0
 70
     1
 40
0
 41
0
  0
VERTEX
  8
0
 10
5.30794
 20
4.23421
 30
0.0
 40
0
 41
0
  0
VERTEX
  8
0
 10
5.30794
 20
4.24235
 30
0.0
 40
0
 41
0
  0
VERTEX
  8
0
 10
5.31446
 20
4.26665
 30
0.0
 40
0
 41
0
  0
VERTEX
  8
0
 10
5.33236
 20
4.29313
 30
0.0
 40
0
 41
0
  0
VERTEX
  8
0
 10
5.35883
 20
4.31104
 30
0.0
 40
0
 41
0
  0
VERTEX
  8
0
 10
5.38314
 20
4.31754
 30
0.0
 40
0
 41
0
  0
VERTEX
  8
0
 10
5.39128
 20
4.31754
 30
0.0
 40
0
 41
0
  0
VERTEX
  8
0
 10
5.39936
 20
4.31754
 30
0.0
 40
0
 41
0
  0
VERTEX
  8
0
 10
5.42367
 20
4.31104
 30
0.0
 40
0
 41
0
  0
VERTEX
  8
0
 10
5.45019
 20
4.29313
 30
0.0
 40
0
 41
0
  0
VERTEX
  8
0
 10
5.46804
 20
4.26665
 30
0.0
 40
0
 41
0
  0
VERTEX
  8
0
 10
5.47461
 20
4.24235
 30
0.0
 40
0
 41
0
  0
VERTEX
  8
0
 10
5.47461
 20
4.23421
 30
0.0
 40
0
 41
0
  0
VERTEX
  8
0
 10
5.47461
 20
4.22613
 30
0.0
 40
0
 41
0
  0
VERTEX
  8
0
 10
5.46804
 20
4.20182
 30
0.0
 40
0
 41
0
  0
VERTEX
  8
0
 10
5.45019
 20
4.17529
 30
0.0
 40
0
 41
0
  0
VERTEX
  8
0
 10
5.42367
 20
4.15744
 30
0.0
 40
0
 41
0
  0
VERTEX
  8
0
 10
5.39936
 20
4.15088
 30
0.0
 40
0
 41
0
  0
VERTEX
  8
0
 10
5.39128
 20
4.15088
 30
0.0
 40
0
 41
0
  0
VERTEX
  8
0
 10
5.38314
 20
4.15088
 30
0.0
 40
0
 41
0
  0
VERTEX
  8
0
 10
5.35883
 20
4.15744
 30
0.0
 40
0
 41
0
  0
VERTEX
  8
0
 10
5.33236
 20
4.17529
 30
0.0
 40
0
 41
0
  0
VERTEX
  8
0
 10
5.31446
 20
4.20182
 30
0.0
 40
0
 41
0
  0
VERTEX
  8
0
 10
5.30794
 20
4.22613
 30
0.0
 40
0
 41
0
  0
VERTEX
  8
0
 10
5.30794
 20
4.23421
 30
0.0
 40
0
 41
0
  0
SEQEND
 8
0
  0
POLYLINE
  8
0
 62
     0
 66
     1
 10
0
 20
0
 30
0.0
 70
     1
 40
0.75
 41
0.75
  0
VERTEX
  8
0
 10
5.30794
 20
4.23421
 30
0.0
 40
0.0104167
 41
0.0104167
  0
VERTEX
  8
0
 10
5.30794
 20
4.24235
 30
0.0
 40
0.0104167
 41
0.0104167
  0
VERTEX
  8
0
 10
5.31446
 20
4.26665
 30
0.0
 40
0.0104167
 41
0.0104167
  0
VERTEX
  8
0
 10
5.33236
 20
4.29313
 30
0.0
 40
0.0104167
 41
0.0104167
  0
VERTEX
  8
0
 10
5.35883
 20
4.31104
 30
0.0
 40
0.0104167
 41
0.0104167
  0
VERTEX
  8
0
 10
5.38314
 20
4.31754
 30
0.0
 40
0.0104167
 41
0.0104167
  0
VERTEX
  8
0
 10
5.39128
 20
4.31754
 30
0.0
 40
0.0104167
 41
0.0104167
  0
VERTEX
  8
0
 10
5.39936
 20
4.31754
 30
0.0
 40
0.0104167
 41
0.0104167
  0
VERTEX
  8
0
 10
5.42367
 20
4.31104
 30
0.0
 40
0.0104167
 41
0.0104167
  0
VERTEX
  8
0
 10
5.45019
 20
4.29313
 30
0.0
 40
0.0104167
 41
0.0104167
  0
VERTEX
  8
0
 10
5.46804
 20
4.26665
 30
0.0
 40
0.0104167
 41
0.0104167
  0
VERTEX
  8
0
 10
5.47461
 20
4.24235
 30
0.0
 40
0.0104167
 41
0.0104167
  0
VERTEX
  8
0
 10
5.47461
 20
4.23421
 30
0.0
 40
0.0104167
 41
0.0104167
  0
VERTEX
  8
0
 10
5.47461
 20
4.22613
 30
0.0
 40
0.0104167
 41
0.0104167
  0
VERTEX
  8
0
 10
5.46804
 20
4.20182
 30
0.0
 40
0.0104167
 41
0.0104167
  0
VERTEX
  8
0
 10
5.45019
 20
4.17529
 30
0.0
 40
0.0104167
 41
0.0104167
  0
VERTEX
  8
0
 10
5.42367
 20
4.15744
 30
0.0
 40
0.0104167
 41
0.0104167
  0
VERTEX
  8
0
 10
5.39936
 20
4.15088
 30
0.0
 40
0.0104167
 41
0.0104167
  0
VERTEX
  8
0
 10
5.39128
 20
4.15088
 30
0.0
 40
0.0104167
 41
0.0104167
  0
VERTEX
  8
0
 10
5.38314
 20
4.15088
 30
0.0
 40
0.0104167
 41
0.0104167
  0
VERTEX
  8
0
 10
5.35883
 20
4.15744
 30
0.0
 40
0.0104167
 41
0.0104167
  0
VERTEX
  8
0
 10
5.33236
 20
4.17529
 30
0.0
 40
0.0104167
 41
0.0104167
  0
VERTEX
  8
0
 10
5.31446
 20
4.20182
 30
0.0
 40
0.0104167
 41
0.0104167
  0
VERTEX
  8
0
 10
5.30794
 20
4.22613
 30
0.0
 40
0.0104167
 41
0.0104167
  0
VERTEX
  8
0
 10
5.30794
 20
4.23421
 30
0.0
 40
0.0104167
 41
0.0104167
  0
SEQEND
 8
0
  0
POLYLINE
  8
0
 62
     7
 66
     1
 10
0
 20
0
 30
0.0
 70
     1
 40
0
 41
0
  0
VERTEX
  8
0
 10
5.04471
 20
4.23421
 30
0.0
 40
0
 41
0
  0
VERTEX
  8
0
 10
5.04471
 20
4.24235
 30
0.0
 40
0
 41
0
  0
VERTEX
  8
0
 10
5.05122
 20
4.26665
 30
0.0
 40
0
 41
0
  0
VERTEX
  8
0
 10
5.06912
 20
4.29313
 30
0.0
 40
0
 41
0
  0
VERTEX
  8
0
 10
5.0956
 20
4.31104
 30
0.0
 40
0
 41
0
  0
VERTEX
  8
0
 10
5.1199
 20
4.31754
 30
0.0
 40
0
 41
0
  0
VERTEX
  8
0
 10
5.12804
 20
4.31754
 30
0.0
 40
0
 41
0
  0
VERTEX
  8
0
 10
5.13612
 20
4.31754
 30
0.0
 40
0
 41
0
  0
VERTEX
  8
0
 10
5.16049
 20
4.31104
 30
0.0
 40
0
 41
0
  0
VERTEX
  8
0
 10
5.18696
 20
4.29313
 30
0.0
 40
0
 41
0
  0
VERTEX
  8
0
 10
5.20481
 20
4.26665
 30
0.0
 40
0
 41
0
  0
VERTEX
  8
0
 10
5.21137
 20
4.24235
 30
0.0
 40
0
 41
0
  0
VERTEX
  8
0
 10
5.21137
 20
4.23421
 30
0.0
 40
0
 41
0
  0
VERTEX
  8
0
 10
5.21137
 20
4.22613
 30
0.0
 40
0
 41
0
  0
VERTEX
  8
0
 10
5.20481
 20
4.20182
 30
0.0
 40
0
 41
0
  0
VERTEX
  8
0
 10
5.18696
 20
4.17529
 30
0.0
 40
0
 41
0
  0
VERTEX
  8
0
 10
5.16049
 20
4.15744
 30
0.0
 40
0
 41
0
  0
VERTEX
  8
0
 10
5.13612
 20
4.15088
 30
0.0
 40
0
 41
0
  0
VERTEX
  8
0
 10
5.12804
 20
4.15088
 30
0.0
 40
0
 41
0
  0
VERTEX
  8
0
 10
5.1199
 20
4.15088
 30
0.0
 40
0
 41
0
  0
VERTEX
  8
0
 10
5.0956
 20
4.15744
 30
0.0
 40
0
 41
0
  0
VERTEX
  8
0
 10
5.06912
 20
4.17529
 30
0.0
 40
0
 41
0
  0
VERTEX
  8
0
 10
5.05122
 20
4.20182
 30
0.0
 40
0
 41
0
  0
VERTEX
  8
0
 10
5.04471
 20
4.22613
 30
0.0
 40
0
 41
0
  0
VERTEX
  8
0
 10
5.04471
 20
4.23421
 30
0.0
 40
0
 41
0
  0
SEQEND
 8
0
  0
POLYLINE
  8
0
 62
     0
 66
     1
 10
0
 20
0
 30
0.0
 70
     1
 40
0.75
 41
0.75
  0
VERTEX
  8
0
 10
5.04471
 20
4.23421
 30
0.0
 40
0.0104167
 41
0.0104167
  0
VERTEX
  8
0
 10
5.04471
 20
4.24235
 30
0.0
 40
0.0104167
 41
0.0104167
  0
VERTEX
  8
0
 10
5.05122
 20
4.26665
 30
0.0
 40
0.0104167
 41
0.0104167
  0
VERTEX
  8
0
 10
5.06912
 20
4.29313
 30
0.0
 40
0.0104167
 41
0.0104167
  0
VERTEX
  8
0
 10
5.0956
 20
4.31104
 30
0.0
 40
0.0104167
 41
0.0104167
  0
VERTEX
  8
0
 10
5.1199
 20
4.31754
 30
0.0
 40
0.0104167
 41
0.0104167
  0
VERTEX
  8
0
 10
5.12804
 20
4.31754
 30
0.0
 40
0.0104167
 41
0.0104167
  0
VERTEX
  8
0
 10
5.13612
 20
4.31754
 30
0.0
 40
0.0104167
 41
0.0104167
  0
VERTEX
  8
0
 10
5.16049
 20
4.31104
 30
0.0
 40
0.0104167
 41
0.0104167
  0
VERTEX
  8
0
 10
5.18696
 20
4.29313
 30
0.0
 40
0.0104167
 41
0.0104167
  0
VERTEX
  8
0
 10
5.20481
 20
4.26665
 30
0.0
 40
0.0104167
 41
0.0104167
  0
VERTEX
  8
0
 10
5.21137
 20
4.24235
 30
0.0
 40
0.0104167
 41
0.0104167
  0
VERTEX
  8
0
 10
5.21137
 20
4.23421
 30
0.0
 40
0.0104167
 41
0.0104167
  0
VERTEX
  8
0
 10
5.21137
 20
4.22613
 30
0.0
 40
0.0104167
 41
0.0104167
  0
VERTEX
  8
0
 10
5.20481
 20
4.20182
 30
0.0
 40
0.0104167
 41
0.0104167
  0
VERTEX
  8
0
 10
5.18696
 20
4.17529
 30
0.0
 40
0.0104167
 41
0.0104167
  0
VERTEX
  8
0
 10
5.16049
 20
4.15744
 30
0.0
 40
0.0104167
 41
0.0104167
  0
VERTEX
  8
0
 10
5.13612
 20
4.15088
 30
0.0
 40
0.0104167
 41
0.0104167
  0
VERTEX
  8
0
 10
5.12804
 20
4.15088
 30
0.0
 40
0.0104167
 41
0.0104167
  0
VERTEX
  8
0
 10
5.1199
 20
4.15088
 30
0.0
 40
0.0104167
 41
0.0104167
  0
VERTEX
  8
0
 10
5.0956
 20
4.15744
 30
0.0
 40
0.0104167
 41
0.0104167
  0
VERTEX
  8
0
 10
5.06912
 20
4.17529
 30
0.0
 40
0.0104167
 41
0.0104167
  0
VERTEX
  8
0
 10
5.05122
 20
4.20182
 30
0.0
 40
0.0104167
 41
0.0104167
  0
VERTEX
  8
0
 10
5.04471
 20
4.22613
 30
0.0
 40
0.0104167
 41
0.0104167
  0
VERTEX
  8
0
 10
5.04471
 20
4.23421
 30
0.0
 40
0.0104167
 41
0.0104167
  0
SEQEND
 8
0
  0
POLYLINE
  8
0
 62
     7
 66
     1
 10
0
 20
0
 30
0.0
 70
     1
 40
0
 41
0
  0
VERTEX
  8
0
 10
5.30794
 20
4.52588
 30
0.0
 40
0
 41
0
  0
VERTEX
  8
0
 10
5.30794
 20
4.53401
 30
0.0
 40
0
 41
0
  0
VERTEX
  8
0
 10
5.31446
 20
4.55832
 30
0.0
 40
0
 41
0
  0
VERTEX
  8
0
 10
5.33236
 20
4.58479
 30
0.0
 40
0
 41
0
  0
VERTEX
  8
0
 10
5.35883
 20
4.60271
 30
0.0
 40
0
 41
0
  0
VERTEX
  8
0
 10
5.38314
 20
4.60921
 30
0.0
 40
0
 41
0
  0
VERTEX
  8
0
 10
5.39128
 20
4.60921
 30
0.0
 40
0
 41
0
  0
VERTEX
  8
0
 10
5.39936
 20
4.60921
 30
0.0
 40
0
 41
0
  0
VERTEX
  8
0
 10
5.42367
 20
4.60271
 30
0.0
 40
0
 41
0
  0
VERTEX
  8
0
 10
5.45019
 20
4.58479
 30
0.0
 40
0
 41
0
  0
VERTEX
  8
0
 10
5.46804
 20
4.55832
 30
0.0
 40
0
 41
0
  0
VERTEX
  8
0
 10
5.47461
 20
4.53401
 30
0.0
 40
0
 41
0
  0
VERTEX
  8
0
 10
5.47461
 20
4.52588
 30
0.0
 40
0
 41
0
  0
VERTEX
  8
0
 10
5.47461
 20
4.51779
 30
0.0
 40
0
 41
0
  0
VERTEX
  8
0
 10
5.46804
 20
4.49349
 30
0.0
 40
0
 41
0
  0
VERTEX
  8
0
 10
5.45019
 20
4.46696
 30
0.0
 40
0
 41
0
  0
VERTEX
  8
0
 10
5.42367
 20
4.44911
 30
0.0
 40
0
 41
0
  0
VERTEX
  8
0
 10
5.39936
 20
4.44254
 30
0.0
 40
0
 41
0
  0
VERTEX
  8
0
 10
5.39128
 20
4.44254
 30
0.0
 40
0
 41
0
  0
VERTEX
  8
0
 10
5.38314
 20
4.44254
 30
0.0
 40
0
 41
0
  0
VERTEX
  8
0
 10
5.35883
 20
4.44911
 30
0.0
 40
0
 41
0
  0
VERTEX
  8
0
 10
5.33236
 20
4.46696
 30
0.0
 40
0
 41
0
  0
VERTEX
  8
0
 10
5.31446
 20
4.49349
 30
0.0
 40
0
 41
0
  0
VERTEX
  8
0
 10
5.30794
 20
4.51779
 30
0.0
 40
0
 41
0
  0
VERTEX
  8
0
 10
5.30794
 20
4.52588
 30
0.0
 40
0
 41
0
  0
SEQEND
 8
0
  0
POLYLINE
  8
0
 62
     0
 66
     1
 10
0
 20
0
 30
0.0
 70
     1
 40
0.75
 41
0.75
  0
VERTEX
  8
0
 10
5.30794
 20
4.52588
 30
0.0
 40
0.0104167
 41
0.0104167
  0
VERTEX
  8
0
 10
5.30794
 20
4.53401
 30
0.0
 40
0.0104167
 41
0.0104167
  0
VERTEX
  8
0
 10
5.31446
 20
4.55832
 30
0.0
 40
0.0104167
 41
0.0104167
  0
VERTEX
  8
0
 10
5.33236
 20
4.58479
 30
0.0
 40
0.0104167
 41
0.0104167
  0
VERTEX
  8
0
 10
5.35883
 20
4.60271
 30
0.0
 40
0.0104167
 41
0.0104167
  0
VERTEX
  8
0
 10
5.38314
 20
4.60921
 30
0.0
 40
0.0104167
 41
0.0104167
  0
VERTEX
  8
0
 10
5.39128
 20
4.60921
 30
0.0
 40
0.0104167
 41
0.0104167
  0
VERTEX
  8
0
 10
5.39936
 20
4.60921
 30
0.0
 40
0.0104167
 41
0.0104167
  0
VERTEX
  8
0
 10
5.42367
 20
4.60271
 30
0.0
 40
0.0104167
 41
0.0104167
  0
VERTEX
  8
0
 10
5.45019
 20
4.58479
 30
0.0
 40
0.0104167
 41
0.0104167
  0
VERTEX
  8
0
 10
5.46804
 20
4.55832
 30
0.0
 40
0.0104167
 41
0.0104167
  0
VERTEX
  8
0
 10
5.47461
 20
4.53401
 30
0.0
 40
0.0104167
 41
0.0104167
  0
VERTEX
  8
0
 10
5.47461
 20
4.52588
 30
0.0
 40
0.0104167
 41
0.0104167
  0
VERTEX
  8
0
 10
5.47461
 20
4.51779
 30
0.0
 40
0.0104167
 41
0.0104167
  0
VERTEX
  8
0
 10
5.46804
 20
4.49349
 30
0.0
 40
0.0104167
 41
0.0104167
  0
VERTEX
  8
0
 10
5.45019
 20
4.46696
 30
0.0
 40
0.0104167
 41
0.0104167
  0
VERTEX
  8
0
 10
5.42367
 20
4.44911
 30
0.0
 40
0.0104167
 41
0.0104167
  0
VERTEX
  8
0
 10
5.39936
 20
4.44254
 30
0.0
 40
0.0104167
 41
0.0104167
  0
VERTEX
  8
0
 10
5.39128
 20
4.44254
 30
0.0
 40
0.0104167
 41
0.0104167
  0
VERTEX
  8
0
 10
5.38314
 20
4.44254
 30
0.0
 40
0.0104167
 41
0.0104167
  0
VERTEX
  8
0
 10
5.35883
 20
4.44911
 30
0.0
 40
0.0104167
 41
0.0104167
  0
VERTEX
  8
0
 10
5.33236
 20
4.46696
 30
0.0
 40
0.0104167
 41
0.0104167
  0
VERTEX
  8
0
 10
5.31446
 20
4.49349
 30
0.0
 40
0.0104167
 41
0.0104167
  0
VERTEX
  8
0
 10
5.30794
 20
4.51779
 30
0.0
 40
0.0104167
 41
0.0104167
  0
VERTEX
  8
0
 10
5.30794
 20
4.52588
 30
0.0
 40
0.0104167
 41
0.0104167
  0
SEQEND
 8
0
  0
POLYLINE
  8
0
 62
     7
 66
     1
 10
0
 20
0
 30
0.0
 70
     1
 40
0
 41
0
  0
VERTEX
  8
0
 10
5.04471
 20
4.52588
 30
0.0
 40
0
 41
0
  0
VERTEX
  8
0
 10
5.04471
 20
4.53401
 30
0.0
 40
0
 41
0
  0
VERTEX
  8
0
 10
5.05122
 20
4.55832
 30
0.0
 40
0
 41
0
  0
VERTEX
  8
0
 10
5.06912
 20
4.58479
 30
0.0
 40
0
 41
0
  0
VERTEX
  8
0
 10
5.0956
 20
4.60271
 30
0.0
 40
0
 41
0
  0
VERTEX
  8
0
 10
5.1199
 20
4.60921
 30
0.0
 40
0
 41
0
  0
VERTEX
  8
0
 10
5.12804
 20
4.60921
 30
0.0
 40
0
 41
0
  0
VERTEX
  8
0
 10
5.13612
 20
4.60921
 30
0.0
 40
0
 41
0
  0
VERTEX
  8
0
 10
5.16049
 20
4.60271
 30
0.0
 40
0
 41
0
  0
VERTEX
  8
0
 10
5.18696
 20
4.58479
 30
0.0
 40
0
 41
0
  0
VERTEX
  8
0
 10
5.20481
 20
4.55832
 30
0.0
 40
0
 41
0
  0
VERTEX
  8
0
 10
5.21137
 20
4.53401
 30
0.0
 40
0
 41
0
  0
VERTEX
  8
0
 10
5.21137
 20
4.52588
 30
0.0
 40
0
 41
0
  0
VERTEX
  8
0
 10
5.21137
 20
4.51779
 30
0.0
 40
0
 41
0
  0
VERTEX
  8
0
 10
5.20481
 20
4.49349
 30
0.0
 40
0
 41
0
  0
VERTEX
  8
0
 10
5.18696
 20
4.46696
 30
0.0
 40
0
 41
0
  0
VERTEX
  8
0
 10
5.16049
 20
4.44911
 30
0.0
 40
0
 41
0
  0
VERTEX
  8
0
 10
5.13612
 20
4.44254
 30
0.0
 40
0
 41
0
  0
VERTEX
  8
0
 10
5.12804
 20
4.44254
 30
0.0
 40
0
 41
0
  0
VERTEX
  8
0
 10
5.1199
 20
4.44254
 30
0.0
 40
0
 41
0
  0
VERTEX
  8
0
 10
5.0956
 20
4.44911
 30
0.0
 40
0
 41
0
  0
VERTEX
  8
0
 10
5.06912
 20
4.46696
 30
0.0
 40
0
 41
0
  0
VERTEX
  8
0
 10
5.05122
 20
4.49349
 30
0.0
 40
0
 41
0
  0
VERTEX
  8
0
 10
5.04471
 20
4.51779
 30
0.0
 40
0
 41
0
  0
VERTEX
  8
0
 10
5.04471
 20
4.52588
 30
0.0
 40
0
 41
0
  0
SEQEND
 8
0
  0
POLYLINE
  8
0
 62
     0
 66
     1
 10
0
 20
0
 30
0.0
 70
     1
 40
0.75
 41
0.75
  0
VERTEX
  8
0
 10
5.04471
 20
4.52588
 30
0.0
 40
0.0104167
 41
0.0104167
  0
VERTEX
  8
0
 10
5.04471
 20
4.53401
 30
0.0
 40
0.0104167
 41
0.0104167
  0
VERTEX
  8
0
 10
5.05122
 20
4.55832
 30
0.0
 40
0.0104167
 41
0.0104167
  0
VERTEX
  8
0
 10
5.06912
 20
4.58479
 30
0.0
 40
0.0104167
 41
0.0104167
  0
VERTEX
  8
0
 10
5.0956
 20
4.60271
 30
0.0
 40
0.0104167
 41
0.0104167
  0
VERTEX
  8
0
 10
5.1199
 20
4.60921
 30
0.0
 40
0.0104167
 41
0.0104167
  0
VERTEX
  8
0
 10
5.12804
 20
4.60921
 30
0.0
 40
0.0104167
 41
0.0104167
  0
VERTEX
  8
0
 10
5.13612
 20
4.60921
 30
0.0
 40
0.0104167
 41
0.0104167
  0
VERTEX
  8
0
 10
5.16049
 20
4.60271
 30
0.0
 40
0.0104167
 41
0.0104167
  0
VERTEX
  8
0
 10
5.18696
 20
4.58479
 30
0.0
 40
0.0104167
 41
0.0104167
  0
VERTEX
  8
0
 10
5.20481
 20
4.55832
 30
0.0
 40
0.0104167
 41
0.0104167
  0
VERTEX
  8
0
 10
5.21137
 20
4.53401
 30
0.0
 40
0.0104167
 41
0.0104167
  0
VERTEX
  8
0
 10
5.21137
 20
4.52588
 30
0.0
 40
0.0104167
 41
0.0104167
  0
VERTEX
  8
0
 10
5.21137
 20
4.51779
 30
0.0
 40
0.0104167
 41
0.0104167
  0
VERTEX
  8
0
 10
5.20481
 20
4.49349
 30
0.0
 40
0.0104167
 41
0.0104167
  0
VERTEX
  8
0
 10
5.18696
 20
4.46696
 30
0.0
 40
0.0104167
 41
0.0104167
  0
VERTEX
  8
0
 10
5.16049
 20
4.44911
 30
0.0
 40
0.0104167
 41
0.0104167
  0
VERTEX
  8
0
 10
5.13612
 20
4.44254
 30
0.0
 40
0.0104167
 41
0.0104167
  0
VERTEX
  8
0
 10
5.12804
 20
4.44254
 30
0.0
 40
0.0104167
 41
0.0104167
  0
VERTEX
  8
0
 10
5.1199
 20
4.44254
 30
0.0
 40
0.0104167
 41
0.0104167
  0
VERTEX
  8
0
 10
5.0956
 20
4.44911
 30
0.0
 40
0.0104167
 41
0.0104167
  0
VERTEX
  8
0
 10
5.06912
 20
4.46696
 30
0.0
 40
0.0104167
 41
0.0104167
  0
VERTEX
  8
0
 10
5.05122
 20
4.49349
 30
0.0
 40
0.0104167
 41
0.0104167
  0
VERTEX
  8
0
 10
5.04471
 20
4.51779
 30
0.0
 40
0.0104167
 41
0.0104167
  0
VERTEX
  8
0
 10
5.04471
 20
4.52588
 30
0.0
 40
0.0104167
 41
0.0104167
  0
SEQEND
 8
0
  0
POLYLINE
  8
0
 62
     7
 66
     1
 10
0
 20
0
 30
0.0
 70
     1
 40
0
 41
0
  0
VERTEX
  8
0
 10
4.18506
 20
5.58919
 30
0.0
 40
0
 41
0
  0
VERTEX
  8
0
 10
4.83453
 20
5.58919
 30
0.0
 40
0
 41
0
  0
VERTEX
  8
0
 10
4.83453
 20
4.69254
 30
0.0
 40
0
 41
0
  0
VERTEX
  8
0
 10
4.18506
 20
4.69254
 30
0.0
 40
0
 41
0
  0
VERTEX
  8
0
 10
4.18506
 20
5.58919
 30
0.0
 40
0
 41
0
  0
SEQEND
 8
0
  0
POLYLINE
  8
0
 62
     0
 66
     1
 10
0
 20
0
 30
0.0
 70
     1
 40
0.75
 41
0.75
  0
VERTEX
  8
0
 10
4.18506
 20
5.58919
 30
0.0
 40
0.0104167
 41
0.0104167
  0
VERTEX
  8
0
 10
4.18506
 20
4.69254
 30
0.0
 40
0.0104167
 41
0.0104167
  0
VERTEX
  8
0
 10
4.83453
 20
4.69254
 30
0.0
 40
0.0104167
 41
0.0104167
  0
VERTEX
  8
0
 10
4.83453
 20
5.58919
 30
0.0
 40
0.0104167
 41
0.0104167
  0
VERTEX
  8
0
 10
4.18506
 20
5.58919
 30
0.0
 40
0.0104167
 41
0.0104167
  0
SEQEND
 8
0
  0
POLYLINE
  8
0
 62
     0
 66
     1
 10
0
 20
0
 30
0.0
 70
     1
 40
0.75
 41
0.75
  0
VERTEX
  8
0
 10
4.1836
 20
5.59326
 30
0.0
 40
0.0104167
 41
0.0104167
  0
VERTEX
  8
0
 10
4.1836
 20
4.69254
 30
0.0
 40
0.0104167
 41
0.0104167
  0
VERTEX
  8
0
 10
4.4961
 20
4.69254
 30
0.0
 40
0.0104167
 41
0.0104167
  0
VERTEX
  8
0
 10
4.4961
 20
5.59326
 30
0.0
 40
0.0104167
 41
0.0104167
  0
VERTEX
  8
0
 10
4.1836
 20
5.59326
 30
0.0
 40
0.0104167
 41
0.0104167
  0
SEQEND
 8
0
  0
POLYLINE
  8
0
 62
     7
 66
     1
 10
0
 20
0
 30
0.0
 70
     1
 40
0
 41
0
  0
VERTEX
  8
0
 10
4.18343
 20
6.16911
 30
0.0
 40
0
 41
0
  0
VERTEX
  8
0
 10
4.8361
 20
6.16911
 30
0.0
 40
0
 41
0
  0
VERTEX
  8
0
 10
4.8361
 20
5.58919
 30
0.0
 40
0
 41
0
  0
VERTEX
  8
0
 10
4.18343
 20
5.58919
 30
0.0
 40
0
 41
0
  0
VERTEX
  8
0
 10
4.18343
 20
6.16911
 30
0.0
 40
0
 41
0
  0
SEQEND
 8
0
  0
POLYLINE
  8
0
 62
     0
 66
     1
 10
0
 20
0
 30
0.0
 70
     1
 40
0.75
 41
0.75
  0
VERTEX
  8
0
 10
4.18343
 20
6.16911
 30
0.0
 40
0.0104167
 41
0.0104167
  0
VERTEX
  8
0
 10
4.18343
 20
5.58919
 30
0.0
 40
0.0104167
 41
0.0104167
  0
VERTEX
  8
0
 10
4.8361
 20
5.58919
 30
0.0
 40
0.0104167
 41
0.0104167
  0
VERTEX
  8
0
 10
4.8361
 20
6.16911
 30
0.0
 40
0.0104167
 41
0.0104167
  0
VERTEX
  8
0
 10
4.18343
 20
6.16911
 30
0.0
 40
0.0104167
 41
0.0104167
  0
SEQEND
 8
0
  0
POLYLINE
  8
0
 62
     7
 66
     1
 10
0
 20
0
 30
0.0
 70
     1
 40
0
 41
0
  0
VERTEX
  8
0
 10
4.18494
 20
6.73367
 30
0.0
 40
0
 41
0
  0
VERTEX
  8
0
 10
4.83604
 20
6.73367
 30
0.0
 40
0
 41
0
  0
VERTEX
  8
0
 10
4.83604
 20
6.16911
 30
0.0
 40
0
 41
0
  0
VERTEX
  8
0
 10
4.18494
 20
6.16911
 30
0.0
 40
0
 41
0
  0
VERTEX
  8
0
 10
4.18494
 20
6.73367
 30
0.0
 40
0
 41
0
  0
SEQEND
 8
0
  0
POLYLINE
  8
0
 62
     0
 66
     1
 10
0
 20
0
 30
0.0
 70
     1
 40
0.677475
 41
0.677475
  0
VERTEX
  8
0
 10
4.18494
 20
6.73367
 30
0.0
 40
0.00940937
 41
0.00940937
  0
VERTEX
  8
0
 10
4.18494
 20
6.16911
 30
0.0
 40
0.00940937
 41
0.00940937
  0
VERTEX
  8
0
 10
4.83604
 20
6.16911
 30
0.0
 40
0.00940937
 41
0.00940937
  0
VERTEX
  8
0
 10
4.83604
 20
6.73367
 30
0.0
 40
0.00940937
 41
0.00940937
  0
VERTEX
  8
0
 10
4.18494
 20
6.73367
 30
0.0
 40
0.00940937
 41
0.00940937
  0
SEQEND
 8
0
  0
POLYLINE
  8
0
 62
     0
 66
     1
 10
0
 20
0
 30
0.0
 40
0.677475
 41
0.677475
  0
VERTEX
  8
0
 10
4.18494
 20
6.16911
 30
0.0
 40
0.00940937
 41
0.00940937
  0
VERTEX
  8
0
 10
4.58757
 20
6.45139
 30
0.0
 40
0.00940937
 41
0.00940937
  0
VERTEX
  8
0
 10
4.39219
 20
6.45139
 30
0.0
 40
0.00940937
 41
0.00940937
  0
VERTEX
  8
0
 10
4.7959
 20
6.73367
 30
0.0
 40
0.00940937
 41
0.00940937
  0
SEQEND
 8
0
  0
POLYLINE
  8
0
 62
     7
 66
     1
 10
0
 20
0
 30
0.0
 70
     1
 40
0
 41
0
  0
VERTEX
  8
0
 10
4.79264
 20
6.73367
 30
0.0
 40
0
 41
0
  0
VERTEX
  8
0
 10
4.83604
 20
6.73367
 30
0.0
 40
0
 41
0
  0
VERTEX
  8
0
 10
4.83604
 20
6.16911
 30
0.0
 40
0
 41
0
  0
VERTEX
  8
0
 10
4.79264
 20
6.16911
 30
0.0
 40
0
 41
0
  0
VERTEX
  8
0
 10
4.79264
 20
6.73367
 30
0.0
 40
0
 41
0
  0
SEQEND
 8
0
  0
POLYLINE
  8
0
 62
     0
 66
     1
 10
0
 20
0
 30
0.0
 70
     1
 40
0.677475
 41
0.677475
  0
VERTEX
  8
0
 10
4.79264
 20
6.73367
 30
0.0
 40
0.00940937
 41
0.00940937
  0
VERTEX
  8
0
 10
4.79264
 20
6.16911
 30
0.0
 40
0.00940937
 41
0.00940937
  0
VERTEX
  8
0
 10
4.83604
 20
6.16911
 30
0.0
 40
0.00940937
 41
0.00940937
  0
VERTEX
  8
0
 10
4.83604
 20
6.73367
 30
0.0
 40
0.00940937
 41
0.00940937
  0
VERTEX
  8
0
 10
4.79264
 20
6.73367
 30
0.0
 40
0.00940937
 41
0.00940937
  0
SEQEND
 8
0
  0
POLYLINE
  8
0
 62
     7
 66
     1
 10
0
 20
0
 30
0.0
 70
     1
 40
0
 41
0
  0
VERTEX
  8
0
 10
6.17876
 20
4.36768
 30
0.0
 40
0
 41
0
  0
VERTEX
  8
0
 10
6.55539
 20
4.36768
 30
0.0
 40
0
 41
0
  0
VERTEX
  8
0
 10
6.55539
 20
4.17171
 30
0.0
 40
0
 41
0
  0
VERTEX
  8
0
 10
6.17876
 20
4.17171
 30
0.0
 40
0
 41
0
  0
VERTEX
  8
0
 10
6.17876
 20
4.36768
 30
0.0
 40
0
 41
0
  0
SEQEND
 8
0
  0
POLYLINE
  8
0
 62
     0
 66
     1
 10
0
 20
0
 30
0.0
 70
     1
 40
0.75
 41
0.75
  0
VERTEX
  8
0
 10
6.17876
 20
4.36768
 30
0.0
 40
0.0104167
 41
0.0104167
  0
VERTEX
  8
0
 10
6.55539
 20
4.36768
 30
0.0
 40
0.0104167
 41
0.0104167
  0
VERTEX
  8
0
 10
6.55539
 20
4.17171
 30
0.0
 40
0.0104167
 41
0.0104167
  0
VERTEX
  8
0
 10
6.17876
 20
4.17171
 30
0.0
 40
0.0104167
 41
0.0104167
  0
VERTEX
  8
0
 10
6.17876
 20
4.36768
 30
0.0
 40
0.0104167
 41
0.0104167
  0
SEQEND
 8
0
  0
POLYLINE
  8
0
 62
     7
 66
     1
 10
0
 20
0
 30
0.0
 70
     1
 40
0
 41
0
  0
VERTEX
  8
0
 10
6.17958
 20
4.64046
 30
0.0
 40
0
 41
0
  0
VERTEX
  8
0
 10
6.55643
 20
4.64046
 30
0.0
 40
0
 41
0
  0
VERTEX
  8
0
 10
6.55643
 20
4.39361
 30
0.0
 40
0
 41
0
  0
VERTEX
  8
0
 10
6.17958
 20
4.39361
 30
0.0
 40
0
 41
0
  0
VERTEX
  8
0
 10
6.17958
 20
4.64046
 30
0.0
 40
0
 41
0
  0
SEQEND
 8
0
  0
POLYLINE
  8
0
 62
     0
 66
     1
 10
0
 20
0
 30
0.0
 70
     1
 40
0.75
 41
0.75
  0
VERTEX
  8
0
 10
6.17958
 20
4.64046
 30
0.0
 40
0.0104167
 41
0.0104167
  0
VERTEX
  8
0
 10
6.55643
 20
4.64046
 30
0.0
 40
0.0104167
 41
0.0104167
  0
VERTEX
  8
0
 10
6.55643
 20
4.39361
 30
0.0
 40
0.0104167
 41
0.0104167
  0
VERTEX
  8
0
 10
6.17958
 20
4.39361
 30
0.0
 40
0.0104167
 41
0.0104167
  0
VERTEX
  8
0
 10
6.17958
 20
4.64046
 30
0.0
 40
0.0104167
 41
0.0104167
  0
SEQEND
 8
0
  0
POLYLINE
  8
0
 62
     7
 66
     1
 10
0
 20
0
 30
0.0
 70
     1
 40
0
 41
0
  0
VERTEX
  8
0
 10
6.33615
 20
4.26964
 30
0.0
 40
0
 41
0
  0
VERTEX
  8
0
 10
6.33615
 20
4.2761
 30
0.0
 40
0
 41
0
  0
VERTEX
  8
0
 10
6.34679
 20
4.29546
 30
0.0
 40
0
 41
0
  0
VERTEX
  8
0
 10
6.36615
 20
4.3061
 30
0.0
 40
0
 41
0
  0
VERTEX
  8
0
 10
6.37261
 20
4.3061
 30
0.0
 40
0
 41
0
  0
VERTEX
  8
0
 10
6.37901
 20
4.3061
 30
0.0
 40
0
 41
0
  0
VERTEX
  8
0
 10
6.39839
 20
4.29546
 30
0.0
 40
0
 41
0
  0
VERTEX
  8
0
 10
6.40907
 20
4.2761
 30
0.0
 40
0
 41
0
  0
VERTEX
  8
0
 10
6.40907
 20
4.26964
 30
0.0
 40
0
 41
0
  0
VERTEX
  8
0
 10
6.40907
 20
4.26324
 30
0.0
 40
0
 41
0
  0
VERTEX
  8
0
 10
6.39839
 20
4.24387
 30
0.0
 40
0
 41
0
  0
VERTEX
  8
0
 10
6.37901
 20
4.23318
 30
0.0
 40
0
 41
0
  0
VERTEX
  8
0
 10
6.37261
 20
4.23318
 30
0.0
 40
0
 41
0
  0
VERTEX
  8
0
 10
6.36615
 20
4.23318
 30
0.0
 40
0
 41
0
  0
VERTEX
  8
0
 10
6.34679
 20
4.24387
 30
0.0
 40
0
 41
0
  0
VERTEX
  8
0
 10
6.33615
 20
4.26324
 30
0.0
 40
0
 41
0
  0
VERTEX
  8
0
 10
6.33615
 20
4.26964
 30
0.0
 40
0
 41
0
  0
SEQEND
 8
0
  0
POLYLINE
  8
0
 62
     0
 66
     1
 10
0
 20
0
 30
0.0
 70
     1
 40
0.6
 41
0.6
  0
VERTEX
  8
0
 10
6.33615
 20
4.26964
 30
0.0
 40
0.00833333
 41
0.00833333
  0
VERTEX
  8
0
 10
6.33615
 20
4.2761
 30
0.0
 40
0.00833333
 41
0.00833333
  0
VERTEX
  8
0
 10
6.34679
 20
4.29546
 30
0.0
 40
0.00833333
 41
0.00833333
  0
VERTEX
  8
0
 10
6.36615
 20
4.3061
 30
0.0
 40
0.00833333
 41
0.00833333
  0
VERTEX
  8
0
 10
6.37261
 20
4.3061
 30
0.0
 40
0.00833333
 41
0.00833333
  0
VERTEX
  8
0
 10
6.37901
 20
4.3061
 30
0.0
 40
0.00833333
 41
0.00833333
  0
VERTEX
  8
0
 10
6.39839
 20
4.29546
 30
0.0
 40
0.00833333
 41
0.00833333
  0
VERTEX
  8
0
 10
6.40907
 20
4.2761
 30
0.0
 40
0.00833333
 41
0.00833333
  0
VERTEX
  8
0
 10
6.40907
 20
4.26964
 30
0.0
 40
0.00833333
 41
0.00833333
  0
VERTEX
  8
0
 10
6.40907
 20
4.26324
 30
0.0
 40
0.00833333
 41
0.00833333
  0
VERTEX
  8
0
 10
6.39839
 20
4.24387
 30
0.0
 40
0.00833333
 41
0.00833333
  0
VERTEX
  8
0
 10
6.37901
 20
4.23318
 30
0.0
 40
0.00833333
 41
0.00833333
  0
VERTEX
  8
0
 10
6.37261
 20
4.23318
 30
0.0
 40
0.00833333
 41
0.00833333
  0
VERTEX
  8
0
 10
6.36615
 20
4.23318
 30
0.0
 40
0.00833333
 41
0.00833333
  0
VERTEX
  8
0
 10
6.34679
 20
4.24387
 30
0.0
 40
0.00833333
 41
0.00833333
  0
VERTEX
  8
0
 10
6.33615
 20
4.26324
 30
0.0
 40
0.00833333
 41
0.00833333
  0
VERTEX
  8
0
 10
6.33615
 20
4.26964
 30
0.0
 40
0.00833333
 41
0.00833333
  0
SEQEND
 8
0
  0
POLYLINE
  8
0
 62
     7
 66
     1
 10
0
 20
0
 30
0.0
 70
     1
 40
0
 41
0
  0
VERTEX
  8
0
 10
6.33615
 20
4.52115
 30
0.0
 40
0
 41
0
  0
VERTEX
  8
0
 10
6.33615
 20
4.52761
 30
0.0
 40
0
 41
0
  0
VERTEX
  8
0
 10
6.34679
 20
4.54699
 30
0.0
 40
0
 41
0
  0
VERTEX
  8
0
 10
6.36615
 20
4.55761
 30
0.0
 40
0
 41
0
  0
VERTEX
  8
0
 10
6.37261
 20
4.55761
 30
0.0
 40
0
 41
0
  0
VERTEX
  8
0
 10
6.37901
 20
4.55761
 30
0.0
 40
0
 41
0
  0
VERTEX
  8
0
 10
6.39839
 20
4.54699
 30
0.0
 40
0
 41
0
  0
VERTEX
  8
0
 10
6.40907
 20
4.52761
 30
0.0
 40
0
 41
0
  0
VERTEX
  8
0
 10
6.40907
 20
4.52115
 30
0.0
 40
0
 41
0
  0
VERTEX
  8
0
 10
6.40907
 20
4.51476
 30
0.0
 40
0
 41
0
  0
VERTEX
  8
0
 10
6.39839
 20
4.49539
 30
0.0
 40
0
 41
0
  0
VERTEX
  8
0
 10
6.37901
 20
4.48469
 30
0.0
 40
0
 41
0
  0
VERTEX
  8
0
 10
6.37261
 20
4.48469
 30
0.0
 40
0
 41
0
  0
VERTEX
  8
0
 10
6.36615
 20
4.48469
 30
0.0
 40
0
 41
0
  0
VERTEX
  8
0
 10
6.34679
 20
4.49539
 30
0.0
 40
0
 41
0
  0
VERTEX
  8
0
 10
6.33615
 20
4.51476
 30
0.0
 40
0
 41
0
  0
VERTEX
  8
0
 10
6.33615
 20
4.52115
 30
0.0
 40
0
 41
0
  0
SEQEND
 8
0
  0
POLYLINE
  8
0
 62
     0
 66
     1
 10
0
 20
0
 30
0.0
 70
     1
 40
0.6
 41
0.6
  0
VERTEX
  8
0
 10
6.33615
 20
4.52115
 30
0.0
 40
0.00833333
 41
0.00833333
  0
VERTEX
  8
0
 10
6.33615
 20
4.52761
 30
0.0
 40
0.00833333
 41
0.00833333
  0
VERTEX
  8
0
 10
6.34679
 20
4.54699
 30
0.0
 40
0.00833333
 41
0.00833333
  0
VERTEX
  8
0
 10
6.36615
 20
4.55761
 30
0.0
 40
0.00833333
 41
0.00833333
  0
VERTEX
  8
0
 10
6.37261
 20
4.55761
 30
0.0
 40
0.00833333
 41
0.00833333
  0
VERTEX
  8
0
 10
6.37901
 20
4.55761
 30
0.0
 40
0.00833333
 41
0.00833333
  0
VERTEX
  8
0
 10
6.39839
 20
4.54699
 30
0.0
 40
0.00833333
 41
0.00833333
  0
VERTEX
  8
0
 10
6.40907
 20
4.52761
 30
0.0
 40
0.00833333
 41
0.00833333
  0
VERTEX
  8
0
 10
6.40907
 20
4.52115
 30
0.0
 40
0.00833333
 41
0.00833333
  0
VERTEX
  8
0
 10
6.40907
 20
4.51476
 30
0.0
 40
0.00833333
 41
0.00833333
  0
VERTEX
  8
0
 10
6.39839
 20
4.49539
 30
0.0
 40
0.00833333
 41
0.00833333
  0
VERTEX
  8
0
 10
6.37901
 20
4.48469
 30
0.0
 40
0.00833333
 41
0.00833333
  0
VERTEX
  8
0
 10
6.37261
 20
4.48469
 30
0.0
 40
0.00833333
 41
0.00833333
  0
VERTEX
  8
0
 10
6.36615
 20
4.48469
 30
0.0
 40
0.00833333
 41
0.00833333
  0
VERTEX
  8
0
 10
6.34679
 20
4.49539
 30
0.0
 40
0.00833333
 41
0.00833333
  0
VERTEX
  8
0
 10
6.33615
 20
4.51476
 30
0.0
 40
0.00833333
 41
0.00833333
  0
VERTEX
  8
0
 10
6.33615
 20
4.52115
 30
0.0
 40
0.00833333
 41
0.00833333
  0
SEQEND
 8
0
  0
POLYLINE
  8
0
 62
     7
 66
     1
 10
0
 20
0
 30
0.0
 70
     1
 40
0
 41
0
  0
VERTEX
  8
0
 10
6.35178
 20
4.26964
 30
0.0
 40
0
 41
0
  0
VERTEX
  8
0
 10
6.35178
 20
4.27333
 30
0.0
 40
0
 41
0
  0
VERTEX
  8
0
 10
6.35786
 20
4.2844
 30
0.0
 40
0
 41
0
  0
VERTEX
  8
0
 10
6.36893
 20
4.29047
 30
0.0
 40
0
 41
0
  0
VERTEX
  8
0
 10
6.37261
 20
4.29047
 30
0.0
 40
0
 41
0
  0
VERTEX
  8
0
 10
6.37625
 20
4.29047
 30
0.0
 40
0
 41
0
  0
VERTEX
  8
0
 10
6.38732
 20
4.2844
 30
0.0
 40
0
 41
0
  0
VERTEX
  8
0
 10
6.39344
 20
4.27333
 30
0.0
 40
0
 41
0
  0
VERTEX
  8
0
 10
6.39344
 20
4.26964
 30
0.0
 40
0
 41
0
  0
VERTEX
  8
0
 10
6.39344
 20
4.266
 30
0.0
 40
0
 41
0
  0
VERTEX
  8
0
 10
6.38732
 20
4.25493
 30
0.0
 40
0
 41
0
  0
VERTEX
  8
0
 10
6.37625
 20
4.24881
 30
0.0
 40
0
 41
0
  0
VERTEX
  8
0
 10
6.37261
 20
4.24881
 30
0.0
 40
0
 41
0
  0
VERTEX
  8
0
 10
6.36893
 20
4.24881
 30
0.0
 40
0
 41
0
  0
VERTEX
  8
0
 10
6.35786
 20
4.25493
 30
0.0
 40
0
 41
0
  0
VERTEX
  8
0
 10
6.35178
 20
4.266
 30
0.0
 40
0
 41
0
  0
VERTEX
  8
0
 10
6.35178
 20
4.26964
 30
0.0
 40
0
 41
0
  0
SEQEND
 8
0
  0
POLYLINE
  8
0
 62
     0
 66
     1
 10
0
 20
0
 30
0.0
 70
     1
 40
0.6
 41
0.6
  0
VERTEX
  8
0
 10
6.35178
 20
4.26964
 30
0.0
 40
0.00833333
 41
0.00833333
  0
VERTEX
  8
0
 10
6.35178
 20
4.27333
 30
0.0
 40
0.00833333
 41
0.00833333
  0
VERTEX
  8
0
 10
6.35786
 20
4.2844
 30
0.0
 40
0.00833333
 41
0.00833333
  0
VERTEX
  8
0
 10
6.36893
 20
4.29047
 30
0.0
 40
0.00833333
 41
0.00833333
  0
VERTEX
  8
0
 10
6.37261
 20
4.29047
 30
0.0
 40
0.00833333
 41
0.00833333
  0
VERTEX
  8
0
 10
6.37625
 20
4.29047
 30
0.0
 40
0.00833333
 41
0.00833333
  0
VERTEX
  8
0
 10
6.38732
 20
4.2844
 30
0.0
 40
0.00833333
 41
0.00833333
  0
VERTEX
  8
0
 10
6.39344
 20
4.27333
 30
0.0
 40
0.00833333
 41
0.00833333
  0
VERTEX
  8
0
 10
6.39344
 20
4.26964
 30
0.0
 40
0.00833333
 41
0.00833333
  0
VERTEX
  8
0
 10
6.39344
 20
4.266
 30
0.0
 40
0.00833333
 41
0.00833333
  0
VERTEX
  8
0
 10
6.38732
 20
4.25493
 30
0.0
 40
0.00833333
 41
0.00833333
  0
VERTEX
  8
0
 10
6.37625
 20
4.24881
 30
0.0
 40
0.00833333
 41
0.00833333
  0
VERTEX
  8
0
 10
6.37261
 20
4.24881
 30
0.0
 40
0.00833333
 41
0.00833333
  0
VERTEX
  8
0
 10
6.36893
 20
4.24881
 30
0.0
 40
0.00833333
 41
0.00833333
  0
VERTEX
  8
0
 10
6.35786
 20
4.25493
 30
0.0
 40
0.00833333
 41
0.00833333
  0
VERTEX
  8
0
 10
6.35178
 20
4.266
 30
0.0
 40
0.00833333
 41
0.00833333
  0
VERTEX
  8
0
 10
6.35178
 20
4.26964
 30
0.0
 40
0.00833333
 41
0.00833333
  0
SEQEND
 8
0
  0
POLYLINE
  8
0
 62
     7
 66
     1
 10
0
 20
0
 30
0.0
 70
     1
 40
0
 41
0
  0
VERTEX
  8
0
 10
6.35178
 20
4.52115
 30
0.0
 40
0
 41
0
  0
VERTEX
  8
0
 10
6.35178
 20
4.52485
 30
0.0
 40
0
 41
0
  0
VERTEX
  8
0
 10
6.35786
 20
4.53592
 30
0.0
 40
0
 41
0
  0
VERTEX
  8
0
 10
6.36893
 20
4.54199
 30
0.0
 40
0
 41
0
  0
VERTEX
  8
0
 10
6.37261
 20
4.54199
 30
0.0
 40
0
 41
0
  0
VERTEX
  8
0
 10
6.37625
 20
4.54199
 30
0.0
 40
0
 41
0
  0
VERTEX
  8
0
 10
6.38732
 20
4.53592
 30
0.0
 40
0
 41
0
  0
VERTEX
  8
0
 10
6.39344
 20
4.52485
 30
0.0
 40
0
 41
0
  0
VERTEX
  8
0
 10
6.39344
 20
4.52115
 30
0.0
 40
0
 41
0
  0
VERTEX
  8
0
 10
6.39344
 20
4.51753
 30
0.0
 40
0
 41
0
  0
VERTEX
  8
0
 10
6.38732
 20
4.50646
 30
0.0
 40
0
 41
0
  0
VERTEX
  8
0
 10
6.37625
 20
4.50032
 30
0.0
 40
0
 41
0
  0
VERTEX
  8
0
 10
6.37261
 20
4.50032
 30
0.0
 40
0
 41
0
  0
VERTEX
  8
0
 10
6.36893
 20
4.50032
 30
0.0
 40
0
 41
0
  0
VERTEX
  8
0
 10
6.35786
 20
4.50646
 30
0.0
 40
0
 41
0
  0
VERTEX
  8
0
 10
6.35178
 20
4.51753
 30
0.0
 40
0
 41
0
  0
VERTEX
  8
0
 10
6.35178
 20
4.52115
 30
0.0
 40
0
 41
0
  0
SEQEND
 8
0
  0
POLYLINE
  8
0
 62
     0
 66
     1
 10
0
 20
0
 30
0.0
 70
     1
 40
0.6
 41
0.6
  0
VERTEX
  8
0
 10
6.35178
 20
4.52115
 30
0.0
 40
0.00833333
 41
0.00833333
  0
VERTEX
  8
0
 10
6.35178
 20
4.52485
 30
0.0
 40
0.00833333
 41
0.00833333
  0
VERTEX
  8
0
 10
6.35786
 20
4.53592
 30
0.0
 40
0.00833333
 41
0.00833333
  0
VERTEX
  8
0
 10
6.36893
 20
4.54199
 30
0.0
 40
0.00833333
 41
0.00833333
  0
VERTEX
  8
0
 10
6.37261
 20
4.54199
 30
0.0
 40
0.00833333
 41
0.00833333
  0
VERTEX
  8
0
 10
6.37625
 20
4.54199
 30
0.0
 40
0.00833333
 41
0.00833333
  0
VERTEX
  8
0
 10
6.38732
 20
4.53592
 30
0.0
 40
0.00833333
 41
0.00833333
  0
VERTEX
  8
0
 10
6.39344
 20
4.52485
 30
0.0
 40
0.00833333
 41
0.00833333
  0
VERTEX
  8
0
 10
6.39344
 20
4.52115
 30
0.0
 40
0.00833333
 41
0.00833333
  0
VERTEX
  8
0
 10
6.39344
 20
4.51753
 30
0.0
 40
0.00833333
 41
0.00833333
  0
VERTEX
  8
0
 10
6.38732
 20
4.50646
 30
0.0
 40
0.00833333
 41
0.00833333
  0
VERTEX
  8
0
 10
6.37625
 20
4.50032
 30
0.0
 40
0.00833333
 41
0.00833333
  0
VERTEX
  8
0
 10
6.37261
 20
4.50032
 30
0.0
 40
0.00833333
 41
0.00833333
  0
VERTEX
  8
0
 10
6.36893
 20
4.50032
 30
0.0
 40
0.00833333
 41
0.00833333
  0
VERTEX
  8
0
 10
6.35786
 20
4.50646
 30
0.0
 40
0.00833333
 41
0.00833333
  0
VERTEX
  8
0
 10
6.35178
 20
4.51753
 30
0.0
 40
0.00833333
 41
0.00833333
  0
VERTEX
  8
0
 10
6.35178
 20
4.52115
 30
0.0
 40
0.00833333
 41
0.00833333
  0
SEQEND
 8
0
  0
POLYLINE
  8
0
 62
     7
 66
     1
 10
0
 20
0
 30
0.0
 70
     1
 40
0
 41
0
  0
VERTEX
  8
0
 10
6.13585
 20
4.41129
 30
0.0
 40
0
 41
0
  0
VERTEX
  8
0
 10
6.28168
 20
4.41129
 30
0.0
 40
0
 41
0
  0
VERTEX
  8
0
 10
6.28168
 20
4.34879
 30
0.0
 40
0
 41
0
  0
VERTEX
  8
0
 10
6.13585
 20
4.34879
 30
0.0
 40
0
 41
0
  0
VERTEX
  8
0
 10
6.13585
 20
4.41129
 30
0.0
 40
0
 41
0
  0
SEQEND
 8
0
  0
POLYLINE
  8
0
 62
     0
 66
     1
 10
0
 20
0
 30
0.0
 70
     1
 40
0.75
 41
0.75
  0
VERTEX
  8
0
 10
6.13585
 20
4.41129
 30
0.0
 40
0.0104167
 41
0.0104167
  0
VERTEX
  8
0
 10
6.28168
 20
4.41129
 30
0.0
 40
0.0104167
 41
0.0104167
  0
VERTEX
  8
0
 10
6.28168
 20
4.34879
 30
0.0
 40
0.0104167
 41
0.0104167
  0
VERTEX
  8
0
 10
6.13585
 20
4.34879
 30
0.0
 40
0.0104167
 41
0.0104167
  0
VERTEX
  8
0
 10
6.13585
 20
4.41129
 30
0.0
 40
0.0104167
 41
0.0104167
  0
SEQEND
 8
0
  0
POLYLINE
  8
0
 62
     0
 66
     1
 10
0
 20
0
 30
0.0
 70
     1
 40
0.75
 41
0.75
  0
VERTEX
  8
0
 10
4.65701
 20
4.38069
 30
0.0
 40
0.0104167
 41
0.0104167
  0
VERTEX
  8
0
 10
6.85519
 20
4.38069
 30
0.0
 40
0.0104167
 41
0.0104167
  0
VERTEX
  8
0
 10
6.85519
 20
4.06819
 30
0.0
 40
0.0104167
 41
0.0104167
  0
VERTEX
  8
0
 10
4.65701
 20
4.06819
 30
0.0
 40
0.0104167
 41
0.0104167
  0
VERTEX
  8
0
 10
4.65701
 20
4.38069
 30
0.0
 40
0.0104167
 41
0.0104167
  0
SEQEND
 8
0
  0
ENDSEC
  0
EOF
