  0
SECTION
  2
HEADER
  9
$ACADVER
  1
AC1009
  9
$FILLMODE
 70
 0
  9
$SPLFRAME
 70
 1
  9
$EXTMIN
 10
0
 20
0
 30
0.0
  9
$EXTMAX
 10
41.6667
 20
41.6667
 30
0.0
  0
ENDSEC
  0
SECTION
  2
TABLES
  0
TABLE
  2
LAYER
 70
1
  0
LAYER
  2
0
 70
     0
 62
     7
  6
CONTINUOUS
  0
ENDTAB
  0
ENDSEC
  0
SECTION
  2
ENTITIES
  0
POLYLINE
  8
0
 62
     7
 66
     1
 10
0
 20
0
 30
0.0
 70
     1
 40
0
 41
0
  0
VERTEX
  8
0
 10
0.964789
 20
8.80886
 30
0.0
 40
0
 41
0
  0
VERTEX
  8
0
 10
0.964572
 20
8.88846
 30
0.0
 40
0
 41
0
  0
VERTEX
  8
0
 10
0.822808
 20
8.88846
 30
0.0
 40
0
 41
0
  0
VERTEX
  8
0
 10
0.822808
 20
5.2755
 30
0.0
 40
0
 41
0
  0
VERTEX
  8
0
 10
2.07769
 20
5.2755
 30
0.0
 40
0
 41
0
  0
VERTEX
  8
0
 10
2.07769
 20
8.80886
 30
0.0
 40
0
 41
0
  0
VERTEX
  8
0
 10
0.964789
 20
8.80886
 30
0.0
 40
0
 41
0
  0
SEQEND
 8
0
  0
POLYLINE
  8
0
 62
     0
 66
     1
 10
0
 20
0
 30
0.0
 70
     1
 40
0.15
 41
0.15
  0
VERTEX
  8
0
 10
0.964789
 20
8.80886
 30
0.0
 40
0.00208333
 41
0.00208333
  0
VERTEX
  8
0
 10
0.964572
 20
8.88846
 30
0.0
 40
0.00208333
 41
0.00208333
  0
VERTEX
  8
0
 10
0.822808
 20
8.88846
 30
0.0
 40
0.00208333
 41
0.00208333
  0
VERTEX
  8
0
 10
0.822808
 20
5.2755
 30
0.0
 40
0.00208333
 41
0.00208333
  0
VERTEX
  8
0
 10
2.07769
 20
5.2755
 30
0.0
 40
0.00208333
 41
0.00208333
  0
VERTEX
  8
0
 10
2.07769
 20
8.80886
 30
0.0
 40
0.00208333
 41
0.00208333
  0
VERTEX
  8
0
 10
0.964789
 20
8.80886
 30
0.0
 40
0.00208333
 41
0.00208333
  0
SEQEND
 8
0
  0
TEXT
  8
0
 62
     0
 10
1.45022
 20
7.00607
 30
0.0
 40
0.34375
  1
ULK
 50
0
  0
TEXT
  8
0
 62
     0
 10
2.12782
 20
7.00607
 30
0.0
 40
0.34375
  1
O
 50
0
  0
TEXT
  8
0
 62
     0
 10
2.39014
 20
7.00607
 30
0.0
 40
0.34375
  1
TILA
 50
0
  0
POLYLINE
  8
0
 62
     7
 66
     1
 10
0
 20
0
 30
0.0
 70
     1
 40
0
 41
0
  0
VERTEX
  8
0
 10
8.59967
 20
1.69417
 30
0.0
 40
0
 41
0
  0
VERTEX
  8
0
 10
8.60167
 20
1.69417
 30
0.0
 40
0
 41
0
  0
VERTEX
  8
0
 10
8.60167
 20
1.06999
 30
0.0
 40
0
 41
0
  0
VERTEX
  8
0
 10
7.09446
 20
1.06999
 30
0.0
 40
0
 41
0
  0
VERTEX
  8
0
 10
7.09446
 20
6.27908
 30
0.0
 40
0
 41
0
  0
VERTEX
  8
0
 10
8.59967
 20
6.27908
 30
0.0
 40
0
 41
0
  0
VERTEX
  8
0
 10
8.59967
 20
1.69417
 30
0.0
 40
0
 41
0
  0
SEQEND
 8
0
  0
POLYLINE
  8
0
 62
     7
 66
     1
 10
0
 20
0
 30
0.0
 70
     1
 40
0.15
 41
0.15
  0
VERTEX
  8
0
 10
8.59967
 20
1.69417
 30
0.0
 40
0.00208333
 41
0.00208333
  0
VERTEX
  8
0
 10
8.60167
 20
1.69417
 30
0.0
 40
0.00208333
 41
0.00208333
  0
VERTEX
  8
0
 10
8.60167
 20
1.06999
 30
0.0
 40
0.00208333
 41
0.00208333
  0
VERTEX
  8
0
 10
7.09446
 20
1.06999
 30
0.0
 40
0.00208333
 41
0.00208333
  0
VERTEX
  8
0
 10
7.09446
 20
6.27908
 30
0.0
 40
0.00208333
 41
0.00208333
  0
VERTEX
  8
0
 10
8.59967
 20
6.27908
 30
0.0
 40
0.00208333
 41
0.00208333
  0
VERTEX
  8
0
 10
8.59967
 20
1.69417
 30
0.0
 40
0.00208333
 41
0.00208333
  0
SEQEND
 8
0
  0
TEXT
  8
0
 62
     0
 10
7.72401
 20
3.67412
 30
0.0
 40
0.34375
  1
ET
 50
0
  0
POLYLINE
  8
0
 62
     7
 66
     1
 10
0
 20
0
 30
0.0
 70
     1
 40
0
 41
0
  0
VERTEX
  8
0
 10
12.1117
 20
1.06999
 30
0.0
 40
0
 41
0
  0
VERTEX
  8
0
 10
8.60167
 20
1.06999
 30
0.0
 40
0
 41
0
  0
VERTEX
  8
0
 10
8.60167
 20
1.69417
 30
0.0
 40
0
 41
0
  0
VERTEX
  8
0
 10
8.71425
 20
1.69417
 30
0.0
 40
0
 41
0
  0
VERTEX
  8
0
 10
8.71425
 20
4.86762
 30
0.0
 40
0
 41
0
  0
VERTEX
  8
0
 10
12.1117
 20
4.86762
 30
0.0
 40
0
 41
0
  0
VERTEX
  8
0
 10
12.1117
 20
1.06999
 30
0.0
 40
0
 41
0
  0
SEQEND
 8
0
  0
POLYLINE
  8
0
 62
     7
 66
     1
 10
0
 20
0
 30
0.0
 70
     1
 40
0.15
 41
0.15
  0
VERTEX
  8
0
 10
12.1117
 20
1.06999
 30
0.0
 40
0.00208333
 41
0.00208333
  0
VERTEX
  8
0
 10
8.60167
 20
1.06999
 30
0.0
 40
0.00208333
 41
0.00208333
  0
VERTEX
  8
0
 10
8.60167
 20
1.69417
 30
0.0
 40
0.00208333
 41
0.00208333
  0
VERTEX
  8
0
 10
8.71425
 20
1.69417
 30
0.0
 40
0.00208333
 41
0.00208333
  0
VERTEX
  8
0
 10
8.71425
 20
4.86762
 30
0.0
 40
0.00208333
 41
0.00208333
  0
VERTEX
  8
0
 10
12.1117
 20
4.86762
 30
0.0
 40
0.00208333
 41
0.00208333
  0
VERTEX
  8
0
 10
12.1117
 20
1.06999
 30
0.0
 40
0.00208333
 41
0.00208333
  0
SEQEND
 8
0
  0
TEXT
  8
0
 62
     0
 10
10.1035
 20
3.08858
 30
0.0
 40
0.34375
  1
MH
 50
0
  0
POLYLINE
  8
0
 62
     7
 66
     1
 10
0
 20
0
 30
0.0
 70
     1
 40
0
 41
0
  0
VERTEX
  8
0
 10
6.99029
 20
6.27908
 30
0.0
 40
0
 41
0
  0
VERTEX
  8
0
 10
7.09446
 20
6.27908
 30
0.0
 40
0
 41
0
  0
VERTEX
  8
0
 10
7.09446
 20
5.02729
 30
0.0
 40
0
 41
0
  0
VERTEX
  8
0
 10
2.47353
 20
5.02729
 30
0.0
 40
0
 41
0
  0
VERTEX
  8
0
 10
2.47353
 20
8.80165
 30
0.0
 40
0
 41
0
  0
VERTEX
  8
0
 10
6.99029
 20
8.80165
 30
0.0
 40
0
 41
0
  0
VERTEX
  8
0
 10
6.99029
 20
6.27908
 30
0.0
 40
0
 41
0
  0
SEQEND
 8
0
  0
POLYLINE
  8
0
 62
     7
 66
     1
 10
0
 20
0
 30
0.0
 70
     1
 40
0.15
 41
0.15
  0
VERTEX
  8
0
 10
6.99029
 20
6.27908
 30
0.0
 40
0.00208333
 41
0.00208333
  0
VERTEX
  8
0
 10
7.09446
 20
6.27908
 30
0.0
 40
0.00208333
 41
0.00208333
  0
VERTEX
  8
0
 10
7.09446
 20
5.02729
 30
0.0
 40
0.00208333
 41
0.00208333
  0
VERTEX
  8
0
 10
2.47353
 20
5.02729
 30
0.0
 40
0.00208333
 41
0.00208333
  0
VERTEX
  8
0
 10
2.47353
 20
8.80165
 30
0.0
 40
0.00208333
 41
0.00208333
  0
VERTEX
  8
0
 10
6.99029
 20
8.80165
 30
0.0
 40
0.00208333
 41
0.00208333
  0
VERTEX
  8
0
 10
6.99029
 20
6.27908
 30
0.0
 40
0.00208333
 41
0.00208333
  0
SEQEND
 8
0
  0
TEXT
  8
0
 62
     0
 10
4.4069
 20
6.91449
 30
0.0
 40
0.34375
  1
OH
 50
0
  0
POLYLINE
  8
0
 62
     7
 66
     1
 10
0
 20
0
 30
0.0
 70
     1
 40
0
 41
0
  0
VERTEX
  8
0
 10
8.71425
 20
8.80165
 30
0.0
 40
0
 41
0
  0
VERTEX
  8
0
 10
12.1117
 20
8.80165
 30
0.0
 40
0
 41
0
  0
VERTEX
  8
0
 10
12.1117
 20
5.02794
 30
0.0
 40
0
 41
0
  0
VERTEX
  8
0
 10
8.71425
 20
5.02794
 30
0.0
 40
0
 41
0
  0
VERTEX
  8
0
 10
8.71425
 20
8.80165
 30
0.0
 40
0
 41
0
  0
SEQEND
 8
0
  0
POLYLINE
  8
0
 62
     7
 66
     1
 10
0
 20
0
 30
0.0
 70
     1
 40
0.15
 41
0.15
  0
VERTEX
  8
0
 10
8.71425
 20
8.80165
 30
0.0
 40
0.00208333
 41
0.00208333
  0
VERTEX
  8
0
 10
12.1117
 20
8.80165
 30
0.0
 40
0.00208333
 41
0.00208333
  0
VERTEX
  8
0
 10
12.1117
 20
5.02794
 30
0.0
 40
0.00208333
 41
0.00208333
  0
VERTEX
  8
0
 10
8.71425
 20
5.02794
 30
0.0
 40
0.00208333
 41
0.00208333
  0
VERTEX
  8
0
 10
8.71425
 20
8.80165
 30
0.0
 40
0.00208333
 41
0.00208333
  0
SEQEND
 8
0
  0
TEXT
  8
0
 62
     0
 10
10.6132
 20
6.54856
 30
0.0
 40
0.34375
  1
K
 50
0
  0
POLYLINE
  8
0
 62
     7
 66
     1
 10
0
 20
0
 30
0.0
 70
     1
 40
0
 41
0
  0
VERTEX
  8
0
 10
7.09446
 20
8.80165
 30
0.0
 40
0
 41
0
  0
VERTEX
  8
0
 10
8.59967
 20
8.80165
 30
0.0
 40
0
 41
0
  0
VERTEX
  8
0
 10
8.59967
 20
6.39367
 30
0.0
 40
0
 41
0
  0
VERTEX
  8
0
 10
7.09446
 20
6.39367
 30
0.0
 40
0
 41
0
  0
VERTEX
  8
0
 10
7.09446
 20
8.80165
 30
0.0
 40
0
 41
0
  0
SEQEND
 8
0
  0
POLYLINE
  8
0
 62
     7
 66
     1
 10
0
 20
0
 30
0.0
 70
     1
 40
0.15
 41
0.15
  0
VERTEX
  8
0
 10
7.09446
 20
8.80165
 30
0.0
 40
0.00208333
 41
0.00208333
  0
VERTEX
  8
0
 10
8.59967
 20
8.80165
 30
0.0
 40
0.00208333
 41
0.00208333
  0
VERTEX
  8
0
 10
8.59967
 20
6.39367
 30
0.0
 40
0.00208333
 41
0.00208333
  0
VERTEX
  8
0
 10
7.09446
 20
6.39367
 30
0.0
 40
0.00208333
 41
0.00208333
  0
VERTEX
  8
0
 10
7.09446
 20
8.80165
 30
0.0
 40
0.00208333
 41
0.00208333
  0
SEQEND
 8
0
  0
TEXT
  8
0
 62
     0
 10
7.43125
 20
7.2636
 30
0.0
 40
0.34375
  1
KH
 50
0
  0
POLYLINE
  8
0
 62
     0
 66
     1
 10
0
 20
0
 30
0.0
 70
     1
 40
0
 41
0
  0
VERTEX
  8
0
 10
2.07769
 20
9.0255
 30
0.0
 40
0
 41
0
  0
VERTEX
  8
0
 10
12.5179
 20
9.0255
 30
0.0
 40
0
 41
0
  0
VERTEX
  8
0
 10
12.1117
 20
8.80165
 30
0.0
 40
0
 41
0
  0
VERTEX
  8
0
 10
2.47353
 20
8.80165
 30
0.0
 40
0
 41
0
  0
VERTEX
  8
0
 10
2.07769
 20
9.0255
 30
0.0
 40
0
 41
0
  0
SEQEND
 8
0
  0
POLYLINE
  8
0
 62
     0
 66
     1
 10
0
 20
0
 30
0.0
 70
     1
 40
0.15
 41
0.15
  0
VERTEX
  8
0
 10
2.07769
 20
9.0255
 30
0.0
 40
0.00208333
 41
0.00208333
  0
VERTEX
  8
0
 10
12.5179
 20
9.0255
 30
0.0
 40
0.00208333
 41
0.00208333
  0
VERTEX
  8
0
 10
12.1117
 20
8.80165
 30
0.0
 40
0.00208333
 41
0.00208333
  0
VERTEX
  8
0
 10
2.47353
 20
8.80165
 30
0.0
 40
0.00208333
 41
0.00208333
  0
VERTEX
  8
0
 10
2.07769
 20
9.0255
 30
0.0
 40
0.00208333
 41
0.00208333
  0
SEQEND
 8
0
  0
POLYLINE
  8
0
 62
     0
 66
     1
 10
0
 20
0
 30
0.0
 70
     1
 40
0
 41
0
  0
VERTEX
  8
0
 10
12.5179
 20
9.0255
 30
0.0
 40
0
 41
0
  0
VERTEX
  8
0
 10
12.5179
 20
0.880317
 30
0.0
 40
0
 41
0
  0
VERTEX
  8
0
 10
12.1117
 20
1.06999
 30
0.0
 40
0
 41
0
  0
VERTEX
  8
0
 10
12.1117
 20
8.80165
 30
0.0
 40
0
 41
0
  0
VERTEX
  8
0
 10
12.5179
 20
9.0255
 30
0.0
 40
0
 41
0
  0
SEQEND
 8
0
  0
POLYLINE
  8
0
 62
     0
 66
     1
 10
0
 20
0
 30
0.0
 70
     1
 40
0.15
 41
0.15
  0
VERTEX
  8
0
 10
12.5179
 20
9.0255
 30
0.0
 40
0.00208333
 41
0.00208333
  0
VERTEX
  8
0
 10
12.5179
 20
0.880317
 30
0.0
 40
0.00208333
 41
0.00208333
  0
VERTEX
  8
0
 10
12.1117
 20
1.06999
 30
0.0
 40
0.00208333
 41
0.00208333
  0
VERTEX
  8
0
 10
12.1117
 20
8.80165
 30
0.0
 40
0.00208333
 41
0.00208333
  0
VERTEX
  8
0
 10
12.5179
 20
9.0255
 30
0.0
 40
0.00208333
 41
0.00208333
  0
SEQEND
 8
0
  0
POLYLINE
  8
0
 62
     7
 66
     1
 10
0
 20
0
 30
0.0
 70
     1
 40
0
 41
0
  0
VERTEX
  8
0
 10
12.1117
 20
4.69596
 30
0.0
 40
0
 41
0
  0
VERTEX
  8
0
 10
12.5179
 20
4.69596
 30
0.0
 40
0
 41
0
  0
VERTEX
  8
0
 10
12.5179
 20
2.63644
 30
0.0
 40
0
 41
0
  0
VERTEX
  8
0
 10
12.1117
 20
2.63644
 30
0.0
 40
0
 41
0
  0
VERTEX
  8
0
 10
12.1117
 20
4.69596
 30
0.0
 40
0
 41
0
  0
SEQEND
 8
0
  0
POLYLINE
  8
0
 62
     0
 66
     1
 10
0
 20
0
 30
0.0
 70
     1
 40
0.75
 41
0.75
  0
VERTEX
  8
0
 10
12.1117
 20
4.69596
 30
0.0
 40
0.0104167
 41
0.0104167
  0
VERTEX
  8
0
 10
12.5179
 20
4.69596
 30
0.0
 40
0.0104167
 41
0.0104167
  0
VERTEX
  8
0
 10
12.5179
 20
2.63644
 30
0.0
 40
0.0104167
 41
0.0104167
  0
VERTEX
  8
0
 10
12.1117
 20
2.63644
 30
0.0
 40
0.0104167
 41
0.0104167
  0
VERTEX
  8
0
 10
12.1117
 20
4.69596
 30
0.0
 40
0.0104167
 41
0.0104167
  0
SEQEND
 8
0
  0
POLYLINE
  8
0
 62
     7
 66
     1
 10
0
 20
0
 30
0.0
 70
     1
 40
0
 41
0
  0
VERTEX
  8
0
 10
12.1117
 20
4.69596
 30
0.0
 40
0
 41
0
  0
VERTEX
  8
0
 10
12.5179
 20
4.69596
 30
0.0
 40
0
 41
0
  0
VERTEX
  8
0
 10
12.5179
 20
2.63644
 30
0.0
 40
0
 41
0
  0
VERTEX
  8
0
 10
12.1117
 20
2.63644
 30
0.0
 40
0
 41
0
  0
VERTEX
  8
0
 10
12.1117
 20
4.69596
 30
0.0
 40
0
 41
0
  0
SEQEND
 8
0
  0
POLYLINE
  8
0
 62
     0
 66
     1
 10
0
 20
0
 30
0.0
 70
     1
 40
0.75
 41
0.75
  0
VERTEX
  8
0
 10
12.1117
 20
4.69596
 30
0.0
 40
0.0104167
 41
0.0104167
  0
VERTEX
  8
0
 10
12.5179
 20
4.69596
 30
0.0
 40
0.0104167
 41
0.0104167
  0
VERTEX
  8
0
 10
12.5179
 20
2.63644
 30
0.0
 40
0.0104167
 41
0.0104167
  0
VERTEX
  8
0
 10
12.1117
 20
2.63644
 30
0.0
 40
0.0104167
 41
0.0104167
  0
VERTEX
  8
0
 10
12.1117
 20
4.69596
 30
0.0
 40
0.0104167
 41
0.0104167
  0
SEQEND
 8
0
  0
POLYLINE
  8
0
 62
     0
 66
     1
 10
0
 20
0
 30
0.0
 40
0.75
 41
0.75
  0
VERTEX
  8
0
 10
12.3148
 20
4.61778
 30
0.0
 40
0.0104167
 41
0.0104167
  0
VERTEX
  8
0
 10
12.3148
 20
2.71457
 30
0.0
 40
0.0104167
 41
0.0104167
  0
SEQEND
 8
0
  0
POLYLINE
  8
0
 62
     0
 66
     1
 10
0
 20
0
 30
0.0
 40
0.75
 41
0.75
  0
VERTEX
  8
0
 10
12.5179
 20
4.61778
 30
0.0
 40
0.0104167
 41
0.0104167
  0
VERTEX
  8
0
 10
12.1117
 20
4.61778
 30
0.0
 40
0.0104167
 41
0.0104167
  0
SEQEND
 8
0
  0
POLYLINE
  8
0
 62
     0
 66
     1
 10
0
 20
0
 30
0.0
 40
0.75
 41
0.75
  0
VERTEX
  8
0
 10
12.5179
 20
2.71457
 30
0.0
 40
0.0104167
 41
0.0104167
  0
VERTEX
  8
0
 10
12.1117
 20
2.71457
 30
0.0
 40
0.0104167
 41
0.0104167
  0
SEQEND
 8
0
  0
POLYLINE
  8
0
 62
     7
 66
     1
 10
0
 20
0
 30
0.0
 70
     1
 40
0
 41
0
  0
VERTEX
  8
0
 10
12.1117
 20
7.22374
 30
0.0
 40
0
 41
0
  0
VERTEX
  8
0
 10
12.5179
 20
7.22374
 30
0.0
 40
0
 41
0
  0
VERTEX
  8
0
 10
12.5179
 20
5.21283
 30
0.0
 40
0
 41
0
  0
VERTEX
  8
0
 10
12.1117
 20
5.21283
 30
0.0
 40
0
 41
0
  0
VERTEX
  8
0
 10
12.1117
 20
7.22374
 30
0.0
 40
0
 41
0
  0
SEQEND
 8
0
  0
POLYLINE
  8
0
 62
     0
 66
     1
 10
0
 20
0
 30
0.0
 70
     1
 40
0.75
 41
0.75
  0
VERTEX
  8
0
 10
12.1117
 20
7.22374
 30
0.0
 40
0.0104167
 41
0.0104167
  0
VERTEX
  8
0
 10
12.5179
 20
7.22374
 30
0.0
 40
0.0104167
 41
0.0104167
  0
VERTEX
  8
0
 10
12.5179
 20
5.21283
 30
0.0
 40
0.0104167
 41
0.0104167
  0
VERTEX
  8
0
 10
12.1117
 20
5.21283
 30
0.0
 40
0.0104167
 41
0.0104167
  0
VERTEX
  8
0
 10
12.1117
 20
7.22374
 30
0.0
 40
0.0104167
 41
0.0104167
  0
SEQEND
 8
0
  0
POLYLINE
  8
0
 62
     7
 66
     1
 10
0
 20
0
 30
0.0
 70
     1
 40
0
 41
0
  0
VERTEX
  8
0
 10
12.1117
 20
7.22374
 30
0.0
 40
0
 41
0
  0
VERTEX
  8
0
 10
12.5179
 20
7.22374
 30
0.0
 40
0
 41
0
  0
VERTEX
  8
0
 10
12.5179
 20
5.21283
 30
0.0
 40
0
 41
0
  0
VERTEX
  8
0
 10
12.1117
 20
5.21283
 30
0.0
 40
0
 41
0
  0
VERTEX
  8
0
 10
12.1117
 20
7.22374
 30
0.0
 40
0
 41
0
  0
SEQEND
 8
0
  0
POLYLINE
  8
0
 62
     0
 66
     1
 10
0
 20
0
 30
0.0
 70
     1
 40
0.75
 41
0.75
  0
VERTEX
  8
0
 10
12.1117
 20
7.22374
 30
0.0
 40
0.0104167
 41
0.0104167
  0
VERTEX
  8
0
 10
12.5179
 20
7.22374
 30
0.0
 40
0.0104167
 41
0.0104167
  0
VERTEX
  8
0
 10
12.5179
 20
5.21283
 30
0.0
 40
0.0104167
 41
0.0104167
  0
VERTEX
  8
0
 10
12.1117
 20
5.21283
 30
0.0
 40
0.0104167
 41
0.0104167
  0
VERTEX
  8
0
 10
12.1117
 20
7.22374
 30
0.0
 40
0.0104167
 41
0.0104167
  0
SEQEND
 8
0
  0
POLYLINE
  8
0
 62
     0
 66
     1
 10
0
 20
0
 30
0.0
 40
0.75
 41
0.75
  0
VERTEX
  8
0
 10
12.3148
 20
7.14561
 30
0.0
 40
0.0104167
 41
0.0104167
  0
VERTEX
  8
0
 10
12.3148
 20
5.2909
 30
0.0
 40
0.0104167
 41
0.0104167
  0
SEQEND
 8
0
  0
POLYLINE
  8
0
 62
     0
 66
     1
 10
0
 20
0
 30
0.0
 40
0.75
 41
0.75
  0
VERTEX
  8
0
 10
12.5179
 20
7.14561
 30
0.0
 40
0.0104167
 41
0.0104167
  0
VERTEX
  8
0
 10
12.1117
 20
7.14561
 30
0.0
 40
0.0104167
 41
0.0104167
  0
SEQEND
 8
0
  0
POLYLINE
  8
0
 62
     0
 66
     1
 10
0
 20
0
 30
0.0
 40
0.75
 41
0.75
  0
VERTEX
  8
0
 10
12.5179
 20
5.2909
 30
0.0
 40
0.0104167
 41
0.0104167
  0
VERTEX
  8
0
 10
12.1117
 20
5.2909
 30
0.0
 40
0.0104167
 41
0.0104167
  0
SEQEND
 8
0
  0
POLYLINE
  8
0
 62
     0
 66
     1
 10
0
 20
0
 30
0.0
 70
     1
 40
0
 41
0
  0
VERTEX
  8
0
 10
2.47353
 20
5.02729
 30
0.0
 40
0
 41
0
  0
VERTEX
  8
0
 10
2.47353
 20
8.80165
 30
0.0
 40
0
 41
0
  0
VERTEX
  8
0
 10
2.07769
 20
9.0255
 30
0.0
 40
0
 41
0
  0
VERTEX
  8
0
 10
2.07769
 20
4.86062
 30
0.0
 40
0
 41
0
  0
VERTEX
  8
0
 10
2.47353
 20
5.02729
 30
0.0
 40
0
 41
0
  0
SEQEND
 8
0
  0
POLYLINE
  8
0
 62
     0
 66
     1
 10
0
 20
0
 30
0.0
 70
     1
 40
0.15
 41
0.15
  0
VERTEX
  8
0
 10
2.47353
 20
5.02729
 30
0.0
 40
0.00208333
 41
0.00208333
  0
VERTEX
  8
0
 10
2.47353
 20
8.80165
 30
0.0
 40
0.00208333
 41
0.00208333
  0
VERTEX
  8
0
 10
2.07769
 20
9.0255
 30
0.0
 40
0.00208333
 41
0.00208333
  0
VERTEX
  8
0
 10
2.07769
 20
4.86062
 30
0.0
 40
0.00208333
 41
0.00208333
  0
VERTEX
  8
0
 10
2.47353
 20
5.02729
 30
0.0
 40
0.00208333
 41
0.00208333
  0
SEQEND
 8
0
  0
POLYLINE
  8
0
 62
     7
 66
     1
 10
0
 20
0
 30
0.0
 70
     1
 40
0
 41
0
  0
VERTEX
  8
0
 10
2.07769
 20
8.47103
 30
0.0
 40
0
 41
0
  0
VERTEX
  8
0
 10
2.47353
 20
8.47103
 30
0.0
 40
0
 41
0
  0
VERTEX
  8
0
 10
2.47353
 20
6.19613
 30
0.0
 40
0
 41
0
  0
VERTEX
  8
0
 10
2.07769
 20
6.19613
 30
0.0
 40
0
 41
0
  0
VERTEX
  8
0
 10
2.07769
 20
8.47103
 30
0.0
 40
0
 41
0
  0
SEQEND
 8
0
  0
POLYLINE
  8
0
 62
     0
 66
     1
 10
0
 20
0
 30
0.0
 70
     1
 40
0.75
 41
0.75
  0
VERTEX
  8
0
 10
2.07769
 20
8.47103
 30
0.0
 40
0.0104167
 41
0.0104167
  0
VERTEX
  8
0
 10
2.47353
 20
8.47103
 30
0.0
 40
0.0104167
 41
0.0104167
  0
VERTEX
  8
0
 10
2.47353
 20
6.19613
 30
0.0
 40
0.0104167
 41
0.0104167
  0
VERTEX
  8
0
 10
2.07769
 20
6.19613
 30
0.0
 40
0.0104167
 41
0.0104167
  0
VERTEX
  8
0
 10
2.07769
 20
8.47103
 30
0.0
 40
0.0104167
 41
0.0104167
  0
SEQEND
 8
0
  0
POLYLINE
  8
0
 62
     7
 66
     1
 10
0
 20
0
 30
0.0
 70
     1
 40
0
 41
0
  0
VERTEX
  8
0
 10
2.07769
 20
8.47103
 30
0.0
 40
0
 41
0
  0
VERTEX
  8
0
 10
2.47353
 20
8.47103
 30
0.0
 40
0
 41
0
  0
VERTEX
  8
0
 10
2.47353
 20
6.19613
 30
0.0
 40
0
 41
0
  0
VERTEX
  8
0
 10
2.07769
 20
6.19613
 30
0.0
 40
0
 41
0
  0
VERTEX
  8
0
 10
2.07769
 20
8.47103
 30
0.0
 40
0
 41
0
  0
SEQEND
 8
0
  0
POLYLINE
  8
0
 62
     0
 66
     1
 10
0
 20
0
 30
0.0
 70
     1
 40
0.75
 41
0.75
  0
VERTEX
  8
0
 10
2.07769
 20
8.47103
 30
0.0
 40
0.0104167
 41
0.0104167
  0
VERTEX
  8
0
 10
2.47353
 20
8.47103
 30
0.0
 40
0.0104167
 41
0.0104167
  0
VERTEX
  8
0
 10
2.47353
 20
6.19613
 30
0.0
 40
0.0104167
 41
0.0104167
  0
VERTEX
  8
0
 10
2.07769
 20
6.19613
 30
0.0
 40
0.0104167
 41
0.0104167
  0
VERTEX
  8
0
 10
2.07769
 20
8.47103
 30
0.0
 40
0.0104167
 41
0.0104167
  0
SEQEND
 8
0
  0
POLYLINE
  8
0
 62
     0
 66
     1
 10
0
 20
0
 30
0.0
 40
0.75
 41
0.75
  0
VERTEX
  8
0
 10
2.27561
 20
6.27425
 30
0.0
 40
0.0104167
 41
0.0104167
  0
VERTEX
  8
0
 10
2.27561
 20
8.3929
 30
0.0
 40
0.0104167
 41
0.0104167
  0
SEQEND
 8
0
  0
POLYLINE
  8
0
 62
     0
 66
     1
 10
0
 20
0
 30
0.0
 40
0.75
 41
0.75
  0
VERTEX
  8
0
 10
2.47353
 20
6.27425
 30
0.0
 40
0.0104167
 41
0.0104167
  0
VERTEX
  8
0
 10
2.07769
 20
6.27425
 30
0.0
 40
0.0104167
 41
0.0104167
  0
SEQEND
 8
0
  0
POLYLINE
  8
0
 62
     0
 66
     1
 10
0
 20
0
 30
0.0
 40
0.75
 41
0.75
  0
VERTEX
  8
0
 10
2.47353
 20
8.3929
 30
0.0
 40
0.0104167
 41
0.0104167
  0
VERTEX
  8
0
 10
2.07769
 20
8.3929
 30
0.0
 40
0.0104167
 41
0.0104167
  0
SEQEND
 8
0
  0
POLYLINE
  8
0
 62
     7
 66
     1
 10
0
 20
0
 30
0.0
 70
     1
 40
0
 41
0
  0
VERTEX
  8
0
 10
2.07769
 20
6.09657
 30
0.0
 40
0
 41
0
  0
VERTEX
  8
0
 10
2.47353
 20
6.09657
 30
0.0
 40
0
 41
0
  0
VERTEX
  8
0
 10
2.47353
 20
5.33187
 30
0.0
 40
0
 41
0
  0
VERTEX
  8
0
 10
2.07769
 20
5.33187
 30
0.0
 40
0
 41
0
  0
VERTEX
  8
0
 10
2.07769
 20
6.09657
 30
0.0
 40
0
 41
0
  0
SEQEND
 8
0
  0
POLYLINE
  8
0
 62
     0
 66
     1
 10
0
 20
0
 30
0.0
 70
     1
 40
0.75
 41
0.75
  0
VERTEX
  8
0
 10
2.07769
 20
6.09657
 30
0.0
 40
0.0104167
 41
0.0104167
  0
VERTEX
  8
0
 10
2.47353
 20
6.09657
 30
0.0
 40
0.0104167
 41
0.0104167
  0
VERTEX
  8
0
 10
2.47353
 20
5.33187
 30
0.0
 40
0.0104167
 41
0.0104167
  0
VERTEX
  8
0
 10
2.07769
 20
5.33187
 30
0.0
 40
0.0104167
 41
0.0104167
  0
VERTEX
  8
0
 10
2.07769
 20
6.09657
 30
0.0
 40
0.0104167
 41
0.0104167
  0
SEQEND
 8
0
  0
POLYLINE
  8
0
 62
     7
 66
     1
 10
0
 20
0
 30
0.0
 70
     1
 40
0
 41
0
  0
VERTEX
  8
0
 10
2.07769
 20
6.09657
 30
0.0
 40
0
 41
0
  0
VERTEX
  8
0
 10
2.47353
 20
6.09657
 30
0.0
 40
0
 41
0
  0
VERTEX
  8
0
 10
2.47353
 20
5.33187
 30
0.0
 40
0
 41
0
  0
VERTEX
  8
0
 10
2.07769
 20
5.33187
 30
0.0
 40
0
 41
0
  0
VERTEX
  8
0
 10
2.07769
 20
6.09657
 30
0.0
 40
0
 41
0
  0
SEQEND
 8
0
  0
POLYLINE
  8
0
 62
     0
 66
     1
 10
0
 20
0
 30
0.0
 70
     1
 40
0.75
 41
0.75
  0
VERTEX
  8
0
 10
2.07769
 20
6.09657
 30
0.0
 40
0.0104167
 41
0.0104167
  0
VERTEX
  8
0
 10
2.47353
 20
6.09657
 30
0.0
 40
0.0104167
 41
0.0104167
  0
VERTEX
  8
0
 10
2.47353
 20
5.33187
 30
0.0
 40
0.0104167
 41
0.0104167
  0
VERTEX
  8
0
 10
2.07769
 20
5.33187
 30
0.0
 40
0.0104167
 41
0.0104167
  0
VERTEX
  8
0
 10
2.07769
 20
6.09657
 30
0.0
 40
0.0104167
 41
0.0104167
  0
SEQEND
 8
0
  0
POLYLINE
  8
0
 62
     0
 66
     1
 10
0
 20
0
 30
0.0
 70
     1
 40
0.75
 41
0.75
  0
VERTEX
  8
0
 10
2.47353
 20
6.09657
 30
0.0
 40
0.0104167
 41
0.0104167
  0
VERTEX
  8
0
 10
2.51828
 20
6.09657
 30
0.0
 40
0.0104167
 41
0.0104167
  0
VERTEX
  8
0
 10
2.65272
 20
6.08464
 30
0.0
 40
0.0104167
 41
0.0104167
  0
VERTEX
  8
0
 10
2.80806
 20
6.04883
 30
0.0
 40
0.0104167
 41
0.0104167
  0
VERTEX
  8
0
 10
2.93951
 20
5.98904
 30
0.0
 40
0.0104167
 41
0.0104167
  0
VERTEX
  8
0
 10
3.04704
 20
5.90543
 30
0.0
 40
0.0104167
 41
0.0104167
  0
VERTEX
  8
0
 10
3.13064
 20
5.7979
 30
0.0
 40
0.0104167
 41
0.0104167
  0
VERTEX
  8
0
 10
3.19043
 20
5.66644
 30
0.0
 40
0.0104167
 41
0.0104167
  0
VERTEX
  8
0
 10
3.22624
 20
5.51112
 30
0.0
 40
0.0104167
 41
0.0104167
  0
VERTEX
  8
0
 10
3.23822
 20
5.37668
 30
0.0
 40
0.0104167
 41
0.0104167
  0
VERTEX
  8
0
 10
3.23822
 20
5.33187
 30
0.0
 40
0.0104167
 41
0.0104167
  0
VERTEX
  8
0
 10
2.47353
 20
5.33187
 30
0.0
 40
0.0104167
 41
0.0104167
  0
VERTEX
  8
0
 10
2.47353
 20
6.09657
 30
0.0
 40
0.0104167
 41
0.0104167
  0
SEQEND
 8
0
  0
POLYLINE
  8
0
 62
     0
 66
     1
 10
0
 20
0
 30
0.0
 70
     1
 40
0
 41
0
  0
VERTEX
  8
0
 10
7.09446
 20
1.06999
 30
0.0
 40
0
 41
0
  0
VERTEX
  8
0
 10
7.09446
 20
5.02729
 30
0.0
 40
0
 41
0
  0
VERTEX
  8
0
 10
6.92686
 20
4.86062
 30
0.0
 40
0
 41
0
  0
VERTEX
  8
0
 10
6.92686
 20
0.880317
 30
0.0
 40
0
 41
0
  0
VERTEX
  8
0
 10
7.09446
 20
1.06999
 30
0.0
 40
0
 41
0
  0
SEQEND
 8
0
  0
POLYLINE
  8
0
 62
     0
 66
     1
 10
0
 20
0
 30
0.0
 70
     1
 40
0.15
 41
0.15
  0
VERTEX
  8
0
 10
7.09446
 20
1.06999
 30
0.0
 40
0.00208333
 41
0.00208333
  0
VERTEX
  8
0
 10
7.09446
 20
5.02729
 30
0.0
 40
0.00208333
 41
0.00208333
  0
VERTEX
  8
0
 10
6.92686
 20
4.86062
 30
0.0
 40
0.00208333
 41
0.00208333
  0
VERTEX
  8
0
 10
6.92686
 20
0.880317
 30
0.0
 40
0.00208333
 41
0.00208333
  0
VERTEX
  8
0
 10
7.09446
 20
1.06999
 30
0.0
 40
0.00208333
 41
0.00208333
  0
SEQEND
 8
0
  0
POLYLINE
  8
0
 62
     0
 66
     1
 10
0
 20
0
 30
0.0
 70
     1
 40
0
 41
0
  0
VERTEX
  8
0
 10
2.07769
 20
4.86062
 30
0.0
 40
0
 41
0
  0
VERTEX
  8
0
 10
6.92686
 20
4.86062
 30
0.0
 40
0
 41
0
  0
VERTEX
  8
0
 10
7.09446
 20
5.02729
 30
0.0
 40
0
 41
0
  0
VERTEX
  8
0
 10
2.47353
 20
5.02729
 30
0.0
 40
0
 41
0
  0
VERTEX
  8
0
 10
2.07769
 20
4.86062
 30
0.0
 40
0
 41
0
  0
SEQEND
 8
0
  0
POLYLINE
  8
0
 62
     0
 66
     1
 10
0
 20
0
 30
0.0
 70
     1
 40
0.15
 41
0.15
  0
VERTEX
  8
0
 10
2.07769
 20
4.86062
 30
0.0
 40
0.00208333
 41
0.00208333
  0
VERTEX
  8
0
 10
6.92686
 20
4.86062
 30
0.0
 40
0.00208333
 41
0.00208333
  0
VERTEX
  8
0
 10
7.09446
 20
5.02729
 30
0.0
 40
0.00208333
 41
0.00208333
  0
VERTEX
  8
0
 10
2.47353
 20
5.02729
 30
0.0
 40
0.00208333
 41
0.00208333
  0
VERTEX
  8
0
 10
2.07769
 20
4.86062
 30
0.0
 40
0.00208333
 41
0.00208333
  0
SEQEND
 8
0
  0
POLYLINE
  8
0
 62
     0
 66
     1
 10
0
 20
0
 30
0.0
 70
     1
 40
0
 41
0
  0
VERTEX
  8
0
 10
7.09446
 20
6.39367
 30
0.0
 40
0
 41
0
  0
VERTEX
  8
0
 10
7.09446
 20
9.01958
 30
0.0
 40
0
 41
0
  0
VERTEX
  8
0
 10
6.99029
 20
9.01958
 30
0.0
 40
0
 41
0
  0
VERTEX
  8
0
 10
6.99029
 20
6.27908
 30
0.0
 40
0
 41
0
  0
VERTEX
  8
0
 10
7.09446
 20
6.39367
 30
0.0
 40
0
 41
0
  0
SEQEND
 8
0
  0
POLYLINE
  8
0
 62
     0
 66
     1
 10
0
 20
0
 30
0.0
 70
     1
 40
0.15
 41
0.15
  0
VERTEX
  8
0
 10
7.09446
 20
6.39367
 30
0.0
 40
0.00208333
 41
0.00208333
  0
VERTEX
  8
0
 10
7.09446
 20
9.01958
 30
0.0
 40
0.00208333
 41
0.00208333
  0
VERTEX
  8
0
 10
6.99029
 20
9.01958
 30
0.0
 40
0.00208333
 41
0.00208333
  0
VERTEX
  8
0
 10
6.99029
 20
6.27908
 30
0.0
 40
0.00208333
 41
0.00208333
  0
VERTEX
  8
0
 10
7.09446
 20
6.39367
 30
0.0
 40
0.00208333
 41
0.00208333
  0
SEQEND
 8
0
  0
POLYLINE
  8
0
 62
     0
 66
     1
 10
0
 20
0
 30
0.0
 70
     1
 40
0
 41
0
  0
VERTEX
  8
0
 10
6.99029
 20
6.27908
 30
0.0
 40
0
 41
0
  0
VERTEX
  8
0
 10
8.59967
 20
6.27908
 30
0.0
 40
0
 41
0
  0
VERTEX
  8
0
 10
8.71425
 20
6.39367
 30
0.0
 40
0
 41
0
  0
VERTEX
  8
0
 10
7.09446
 20
6.39367
 30
0.0
 40
0
 41
0
  0
VERTEX
  8
0
 10
6.99029
 20
6.27908
 30
0.0
 40
0
 41
0
  0
SEQEND
 8
0
  0
POLYLINE
  8
0
 62
     0
 66
     1
 10
0
 20
0
 30
0.0
 70
     1
 40
0.15
 41
0.15
  0
VERTEX
  8
0
 10
6.99029
 20
6.27908
 30
0.0
 40
0.00208333
 41
0.00208333
  0
VERTEX
  8
0
 10
8.59967
 20
6.27908
 30
0.0
 40
0.00208333
 41
0.00208333
  0
VERTEX
  8
0
 10
8.71425
 20
6.39367
 30
0.0
 40
0.00208333
 41
0.00208333
  0
VERTEX
  8
0
 10
7.09446
 20
6.39367
 30
0.0
 40
0.00208333
 41
0.00208333
  0
VERTEX
  8
0
 10
6.99029
 20
6.27908
 30
0.0
 40
0.00208333
 41
0.00208333
  0
SEQEND
 8
0
  0
POLYLINE
  8
0
 62
     7
 66
     1
 10
0
 20
0
 30
0.0
 70
     1
 40
0
 41
0
  0
VERTEX
  8
0
 10
7.23042
 20
6.39367
 30
0.0
 40
0
 41
0
  0
VERTEX
  8
0
 10
7.93886
 20
6.39367
 30
0.0
 40
0
 41
0
  0
VERTEX
  8
0
 10
7.93886
 20
6.27908
 30
0.0
 40
0
 41
0
  0
VERTEX
  8
0
 10
7.23042
 20
6.27908
 30
0.0
 40
0
 41
0
  0
VERTEX
  8
0
 10
7.23042
 20
6.39367
 30
0.0
 40
0
 41
0
  0
SEQEND
 8
0
  0
POLYLINE
  8
0
 62
     0
 66
     1
 10
0
 20
0
 30
0.0
 70
     1
 40
0.75
 41
0.75
  0
VERTEX
  8
0
 10
7.23042
 20
6.39367
 30
0.0
 40
0.0104167
 41
0.0104167
  0
VERTEX
  8
0
 10
7.93886
 20
6.39367
 30
0.0
 40
0.0104167
 41
0.0104167
  0
VERTEX
  8
0
 10
7.93886
 20
6.27908
 30
0.0
 40
0.0104167
 41
0.0104167
  0
VERTEX
  8
0
 10
7.23042
 20
6.27908
 30
0.0
 40
0.0104167
 41
0.0104167
  0
VERTEX
  8
0
 10
7.23042
 20
6.39367
 30
0.0
 40
0.0104167
 41
0.0104167
  0
SEQEND
 8
0
  0
POLYLINE
  8
0
 62
     7
 66
     1
 10
0
 20
0
 30
0.0
 70
     1
 40
0
 41
0
  0
VERTEX
  8
0
 10
7.23042
 20
6.39367
 30
0.0
 40
0
 41
0
  0
VERTEX
  8
0
 10
7.93886
 20
6.39367
 30
0.0
 40
0
 41
0
  0
VERTEX
  8
0
 10
7.93886
 20
6.27908
 30
0.0
 40
0
 41
0
  0
VERTEX
  8
0
 10
7.23042
 20
6.27908
 30
0.0
 40
0
 41
0
  0
VERTEX
  8
0
 10
7.23042
 20
6.39367
 30
0.0
 40
0
 41
0
  0
SEQEND
 8
0
  0
POLYLINE
  8
0
 62
     0
 66
     1
 10
0
 20
0
 30
0.0
 70
     1
 40
0.75
 41
0.75
  0
VERTEX
  8
0
 10
7.23042
 20
6.39367
 30
0.0
 40
0.0104167
 41
0.0104167
  0
VERTEX
  8
0
 10
7.93886
 20
6.39367
 30
0.0
 40
0.0104167
 41
0.0104167
  0
VERTEX
  8
0
 10
7.93886
 20
6.27908
 30
0.0
 40
0.0104167
 41
0.0104167
  0
VERTEX
  8
0
 10
7.23042
 20
6.27908
 30
0.0
 40
0.0104167
 41
0.0104167
  0
VERTEX
  8
0
 10
7.23042
 20
6.39367
 30
0.0
 40
0.0104167
 41
0.0104167
  0
SEQEND
 8
0
  0
POLYLINE
  8
0
 62
     0
 66
     1
 10
0
 20
0
 30
0.0
 70
     1
 40
0.75
 41
0.75
  0
VERTEX
  8
0
 10
7.93886
 20
6.27908
 30
0.0
 40
0.0104167
 41
0.0104167
  0
VERTEX
  8
0
 10
7.93886
 20
6.23757
 30
0.0
 40
0.0104167
 41
0.0104167
  0
VERTEX
  8
0
 10
7.92774
 20
6.11301
 30
0.0
 40
0.0104167
 41
0.0104167
  0
VERTEX
  8
0
 10
7.89453
 20
5.96913
 30
0.0
 40
0.0104167
 41
0.0104167
  0
VERTEX
  8
0
 10
7.83919
 20
5.84733
 30
0.0
 40
0.0104167
 41
0.0104167
  0
VERTEX
  8
0
 10
7.76172
 20
5.74767
 30
0.0
 40
0.0104167
 41
0.0104167
  0
VERTEX
  8
0
 10
7.66206
 20
5.67019
 30
0.0
 40
0.0104167
 41
0.0104167
  0
VERTEX
  8
0
 10
7.54025
 20
5.61486
 30
0.0
 40
0.0104167
 41
0.0104167
  0
VERTEX
  8
0
 10
7.39638
 20
5.58165
 30
0.0
 40
0.0104167
 41
0.0104167
  0
VERTEX
  8
0
 10
7.27181
 20
5.57053
 30
0.0
 40
0.0104167
 41
0.0104167
  0
VERTEX
  8
0
 10
7.23031
 20
5.57053
 30
0.0
 40
0.0104167
 41
0.0104167
  0
VERTEX
  8
0
 10
7.23031
 20
6.27908
 30
0.0
 40
0.0104167
 41
0.0104167
  0
VERTEX
  8
0
 10
7.93886
 20
6.27908
 30
0.0
 40
0.0104167
 41
0.0104167
  0
SEQEND
 8
0
  0
POLYLINE
  8
0
 62
     0
 66
     1
 10
0
 20
0
 30
0.0
 70
     1
 40
0
 41
0
  0
VERTEX
  8
0
 10
8.59967
 20
9.01958
 30
0.0
 40
0
 41
0
  0
VERTEX
  8
0
 10
8.71425
 20
9.01958
 30
0.0
 40
0
 41
0
  0
VERTEX
  8
0
 10
8.71425
 20
6.27908
 30
0.0
 40
0
 41
0
  0
VERTEX
  8
0
 10
8.59967
 20
6.27908
 30
0.0
 40
0
 41
0
  0
VERTEX
  8
0
 10
8.59967
 20
9.01958
 30
0.0
 40
0
 41
0
  0
SEQEND
 8
0
  0
POLYLINE
  8
0
 62
     0
 66
     1
 10
0
 20
0
 30
0.0
 70
     1
 40
0.15
 41
0.15
  0
VERTEX
  8
0
 10
8.59967
 20
9.01958
 30
0.0
 40
0.00208333
 41
0.00208333
  0
VERTEX
  8
0
 10
8.71425
 20
9.01958
 30
0.0
 40
0.00208333
 41
0.00208333
  0
VERTEX
  8
0
 10
8.71425
 20
6.27908
 30
0.0
 40
0.00208333
 41
0.00208333
  0
VERTEX
  8
0
 10
8.59967
 20
6.27908
 30
0.0
 40
0.00208333
 41
0.00208333
  0
VERTEX
  8
0
 10
8.59967
 20
9.01958
 30
0.0
 40
0.00208333
 41
0.00208333
  0
SEQEND
 8
0
  0
POLYLINE
  8
0
 62
     0
 66
     1
 10
0
 20
0
 30
0.0
 70
     1
 40
0
 41
0
  0
VERTEX
  8
0
 10
8.71425
 20
6.39367
 30
0.0
 40
0
 41
0
  0
VERTEX
  8
0
 10
8.71425
 20
1.69417
 30
0.0
 40
0
 41
0
  0
VERTEX
  8
0
 10
8.59967
 20
1.69417
 30
0.0
 40
0
 41
0
  0
VERTEX
  8
0
 10
8.59967
 20
6.27908
 30
0.0
 40
0
 41
0
  0
VERTEX
  8
0
 10
8.71425
 20
6.39367
 30
0.0
 40
0
 41
0
  0
SEQEND
 8
0
  0
POLYLINE
  8
0
 62
     0
 66
     1
 10
0
 20
0
 30
0.0
 70
     1
 40
0.15
 41
0.15
  0
VERTEX
  8
0
 10
8.71425
 20
6.39367
 30
0.0
 40
0.00208333
 41
0.00208333
  0
VERTEX
  8
0
 10
8.71425
 20
1.69417
 30
0.0
 40
0.00208333
 41
0.00208333
  0
VERTEX
  8
0
 10
8.59967
 20
1.69417
 30
0.0
 40
0.00208333
 41
0.00208333
  0
VERTEX
  8
0
 10
8.59967
 20
6.27908
 30
0.0
 40
0.00208333
 41
0.00208333
  0
VERTEX
  8
0
 10
8.71425
 20
6.39367
 30
0.0
 40
0.00208333
 41
0.00208333
  0
SEQEND
 8
0
  0
POLYLINE
  8
0
 62
     7
 66
     1
 10
0
 20
0
 30
0.0
 70
     1
 40
0
 41
0
  0
VERTEX
  8
0
 10
8.59967
 20
5.96283
 30
0.0
 40
0
 41
0
  0
VERTEX
  8
0
 10
8.71425
 20
5.96283
 30
0.0
 40
0
 41
0
  0
VERTEX
  8
0
 10
8.71425
 20
5.09896
 30
0.0
 40
0
 41
0
  0
VERTEX
  8
0
 10
8.59967
 20
5.09896
 30
0.0
 40
0
 41
0
  0
VERTEX
  8
0
 10
8.59967
 20
5.96283
 30
0.0
 40
0
 41
0
  0
SEQEND
 8
0
  0
POLYLINE
  8
0
 62
     0
 66
     1
 10
0
 20
0
 30
0.0
 70
     1
 40
0.75
 41
0.75
  0
VERTEX
  8
0
 10
8.59967
 20
5.96283
 30
0.0
 40
0.0104167
 41
0.0104167
  0
VERTEX
  8
0
 10
8.71425
 20
5.96283
 30
0.0
 40
0.0104167
 41
0.0104167
  0
VERTEX
  8
0
 10
8.71425
 20
5.09896
 30
0.0
 40
0.0104167
 41
0.0104167
  0
VERTEX
  8
0
 10
8.59967
 20
5.09896
 30
0.0
 40
0.0104167
 41
0.0104167
  0
VERTEX
  8
0
 10
8.59967
 20
5.96283
 30
0.0
 40
0.0104167
 41
0.0104167
  0
SEQEND
 8
0
  0
POLYLINE
  8
0
 62
     7
 66
     1
 10
0
 20
0
 30
0.0
 70
     1
 40
0
 41
0
  0
VERTEX
  8
0
 10
8.59967
 20
5.96283
 30
0.0
 40
0
 41
0
  0
VERTEX
  8
0
 10
8.71425
 20
5.96283
 30
0.0
 40
0
 41
0
  0
VERTEX
  8
0
 10
8.71425
 20
5.09896
 30
0.0
 40
0
 41
0
  0
VERTEX
  8
0
 10
8.59967
 20
5.09896
 30
0.0
 40
0
 41
0
  0
VERTEX
  8
0
 10
8.59967
 20
5.96283
 30
0.0
 40
0
 41
0
  0
SEQEND
 8
0
  0
POLYLINE
  8
0
 62
     0
 66
     1
 10
0
 20
0
 30
0.0
 70
     1
 40
0.75
 41
0.75
  0
VERTEX
  8
0
 10
8.59967
 20
5.96283
 30
0.0
 40
0.0104167
 41
0.0104167
  0
VERTEX
  8
0
 10
8.71425
 20
5.96283
 30
0.0
 40
0.0104167
 41
0.0104167
  0
VERTEX
  8
0
 10
8.71425
 20
5.09896
 30
0.0
 40
0.0104167
 41
0.0104167
  0
VERTEX
  8
0
 10
8.59967
 20
5.09896
 30
0.0
 40
0.0104167
 41
0.0104167
  0
VERTEX
  8
0
 10
8.59967
 20
5.96283
 30
0.0
 40
0.0104167
 41
0.0104167
  0
SEQEND
 8
0
  0
POLYLINE
  8
0
 62
     0
 66
     1
 10
0
 20
0
 30
0.0
 70
     1
 40
0.75
 41
0.75
  0
VERTEX
  8
0
 10
8.71425
 20
5.96283
 30
0.0
 40
0.0104167
 41
0.0104167
  0
VERTEX
  8
0
 10
8.76481
 20
5.96283
 30
0.0
 40
0.0104167
 41
0.0104167
  0
VERTEX
  8
0
 10
8.91667
 20
5.94938
 30
0.0
 40
0.0104167
 41
0.0104167
  0
VERTEX
  8
0
 10
9.09218
 20
5.90886
 30
0.0
 40
0.0104167
 41
0.0104167
  0
VERTEX
  8
0
 10
9.24061
 20
5.84136
 30
0.0
 40
0.0104167
 41
0.0104167
  0
VERTEX
  8
0
 10
9.36214
 20
5.7469
 30
0.0
 40
0.0104167
 41
0.0104167
  0
VERTEX
  8
0
 10
9.4566
 20
5.62538
 30
0.0
 40
0.0104167
 41
0.0104167
  0
VERTEX
  8
0
 10
9.52408
 20
5.47694
 30
0.0
 40
0.0104167
 41
0.0104167
  0
VERTEX
  8
0
 10
9.56461
 20
5.30143
 30
0.0
 40
0.0104167
 41
0.0104167
  0
VERTEX
  8
0
 10
9.57813
 20
5.14958
 30
0.0
 40
0.0104167
 41
0.0104167
  0
VERTEX
  8
0
 10
9.57813
 20
5.09896
 30
0.0
 40
0.0104167
 41
0.0104167
  0
VERTEX
  8
0
 10
8.71425
 20
5.09896
 30
0.0
 40
0.0104167
 41
0.0104167
  0
VERTEX
  8
0
 10
8.71425
 20
5.96283
 30
0.0
 40
0.0104167
 41
0.0104167
  0
SEQEND
 8
0
  0
POLYLINE
  8
0
 62
     7
 66
     1
 10
0
 20
0
 30
0.0
 70
     1
 40
0
 41
0
  0
VERTEX
  8
0
 10
8.59967
 20
2.63781
 30
0.0
 40
0
 41
0
  0
VERTEX
  8
0
 10
8.71425
 20
2.63781
 30
0.0
 40
0
 41
0
  0
VERTEX
  8
0
 10
8.71425
 20
1.75532
 30
0.0
 40
0
 41
0
  0
VERTEX
  8
0
 10
8.59967
 20
1.75532
 30
0.0
 40
0
 41
0
  0
VERTEX
  8
0
 10
8.59967
 20
2.63781
 30
0.0
 40
0
 41
0
  0
SEQEND
 8
0
  0
POLYLINE
  8
0
 62
     0
 66
     1
 10
0
 20
0
 30
0.0
 70
     1
 40
0.75
 41
0.75
  0
VERTEX
  8
0
 10
8.59967
 20
2.63781
 30
0.0
 40
0.0104167
 41
0.0104167
  0
VERTEX
  8
0
 10
8.71425
 20
2.63781
 30
0.0
 40
0.0104167
 41
0.0104167
  0
VERTEX
  8
0
 10
8.71425
 20
1.75532
 30
0.0
 40
0.0104167
 41
0.0104167
  0
VERTEX
  8
0
 10
8.59967
 20
1.75532
 30
0.0
 40
0.0104167
 41
0.0104167
  0
VERTEX
  8
0
 10
8.59967
 20
2.63781
 30
0.0
 40
0.0104167
 41
0.0104167
  0
SEQEND
 8
0
  0
POLYLINE
  8
0
 62
     7
 66
     1
 10
0
 20
0
 30
0.0
 70
     1
 40
0
 41
0
  0
VERTEX
  8
0
 10
8.59967
 20
2.63781
 30
0.0
 40
0
 41
0
  0
VERTEX
  8
0
 10
8.71425
 20
2.63781
 30
0.0
 40
0
 41
0
  0
VERTEX
  8
0
 10
8.71425
 20
1.75532
 30
0.0
 40
0
 41
0
  0
VERTEX
  8
0
 10
8.59967
 20
1.75532
 30
0.0
 40
0
 41
0
  0
VERTEX
  8
0
 10
8.59967
 20
2.63781
 30
0.0
 40
0
 41
0
  0
SEQEND
 8
0
  0
POLYLINE
  8
0
 62
     0
 66
     1
 10
0
 20
0
 30
0.0
 70
     1
 40
0.75
 41
0.75
  0
VERTEX
  8
0
 10
8.59967
 20
2.63781
 30
0.0
 40
0.0104167
 41
0.0104167
  0
VERTEX
  8
0
 10
8.71425
 20
2.63781
 30
0.0
 40
0.0104167
 41
0.0104167
  0
VERTEX
  8
0
 10
8.71425
 20
1.75532
 30
0.0
 40
0.0104167
 41
0.0104167
  0
VERTEX
  8
0
 10
8.59967
 20
1.75532
 30
0.0
 40
0.0104167
 41
0.0104167
  0
VERTEX
  8
0
 10
8.59967
 20
2.63781
 30
0.0
 40
0.0104167
 41
0.0104167
  0
SEQEND
 8
0
  0
POLYLINE
  8
0
 62
     0
 66
     1
 10
0
 20
0
 30
0.0
 70
     1
 40
0.75
 41
0.75
  0
VERTEX
  8
0
 10
8.59967
 20
2.63781
 30
0.0
 40
0.0104167
 41
0.0104167
  0
VERTEX
  8
0
 10
8.5479
 20
2.63781
 30
0.0
 40
0.0104167
 41
0.0104167
  0
VERTEX
  8
0
 10
8.39279
 20
2.62403
 30
0.0
 40
0.0104167
 41
0.0104167
  0
VERTEX
  8
0
 10
8.21354
 20
2.58268
 30
0.0
 40
0.0104167
 41
0.0104167
  0
VERTEX
  8
0
 10
8.06185
 20
2.51372
 30
0.0
 40
0.0104167
 41
0.0104167
  0
VERTEX
  8
0
 10
7.93778
 20
2.41721
 30
0.0
 40
0.0104167
 41
0.0104167
  0
VERTEX
  8
0
 10
7.84125
 20
2.29312
 30
0.0
 40
0.0104167
 41
0.0104167
  0
VERTEX
  8
0
 10
7.77229
 20
2.14144
 30
0.0
 40
0.0104167
 41
0.0104167
  0
VERTEX
  8
0
 10
7.73096
 20
1.96218
 30
0.0
 40
0.0104167
 41
0.0104167
  0
VERTEX
  8
0
 10
7.71718
 20
1.80707
 30
0.0
 40
0.0104167
 41
0.0104167
  0
VERTEX
  8
0
 10
7.71718
 20
1.75532
 30
0.0
 40
0.0104167
 41
0.0104167
  0
VERTEX
  8
0
 10
8.59967
 20
1.75532
 30
0.0
 40
0.0104167
 41
0.0104167
  0
VERTEX
  8
0
 10
8.59967
 20
2.63781
 30
0.0
 40
0.0104167
 41
0.0104167
  0
SEQEND
 8
0
  0
POLYLINE
  8
0
 62
     0
 66
     1
 10
0
 20
0
 30
0.0
 70
     1
 40
0
 41
0
  0
VERTEX
  8
0
 10
8.59967
 20
5.02794
 30
0.0
 40
0
 41
0
  0
VERTEX
  8
0
 10
12.5179
 20
5.02794
 30
0.0
 40
0
 41
0
  0
VERTEX
  8
0
 10
12.5179
 20
4.86762
 30
0.0
 40
0
 41
0
  0
VERTEX
  8
0
 10
8.59967
 20
4.86762
 30
0.0
 40
0
 41
0
  0
VERTEX
  8
0
 10
8.59967
 20
5.02794
 30
0.0
 40
0
 41
0
  0
SEQEND
 8
0
  0
POLYLINE
  8
0
 62
     0
 66
     1
 10
0
 20
0
 30
0.0
 70
     1
 40
0.15
 41
0.15
  0
VERTEX
  8
0
 10
8.59967
 20
5.02794
 30
0.0
 40
0.00208333
 41
0.00208333
  0
VERTEX
  8
0
 10
12.5179
 20
5.02794
 30
0.0
 40
0.00208333
 41
0.00208333
  0
VERTEX
  8
0
 10
12.5179
 20
4.86762
 30
0.0
 40
0.00208333
 41
0.00208333
  0
VERTEX
  8
0
 10
8.59967
 20
4.86762
 30
0.0
 40
0.00208333
 41
0.00208333
  0
VERTEX
  8
0
 10
8.59967
 20
5.02794
 30
0.0
 40
0.00208333
 41
0.00208333
  0
SEQEND
 8
0
  0
POLYLINE
  8
0
 62
     0
 66
     1
 10
0
 20
0
 30
0.0
 70
     1
 40
0
 41
0
  0
VERTEX
  8
0
 10
12.5179
 20
0.880317
 30
0.0
 40
0
 41
0
  0
VERTEX
  8
0
 10
6.92686
 20
0.880317
 30
0.0
 40
0
 41
0
  0
VERTEX
  8
0
 10
7.09446
 20
1.06999
 30
0.0
 40
0
 41
0
  0
VERTEX
  8
0
 10
12.1117
 20
1.06999
 30
0.0
 40
0
 41
0
  0
VERTEX
  8
0
 10
12.5179
 20
0.880317
 30
0.0
 40
0
 41
0
  0
SEQEND
 8
0
  0
POLYLINE
  8
0
 62
     0
 66
     1
 10
0
 20
0
 30
0.0
 70
     1
 40
0.15
 41
0.15
  0
VERTEX
  8
0
 10
12.5179
 20
0.880317
 30
0.0
 40
0.00208333
 41
0.00208333
  0
VERTEX
  8
0
 10
6.92686
 20
0.880317
 30
0.0
 40
0.00208333
 41
0.00208333
  0
VERTEX
  8
0
 10
7.09446
 20
1.06999
 30
0.0
 40
0.00208333
 41
0.00208333
  0
VERTEX
  8
0
 10
12.1117
 20
1.06999
 30
0.0
 40
0.00208333
 41
0.00208333
  0
VERTEX
  8
0
 10
12.5179
 20
0.880317
 30
0.0
 40
0.00208333
 41
0.00208333
  0
SEQEND
 8
0
  0
POLYLINE
  8
0
 62
     7
 66
     1
 10
0
 20
0
 30
0.0
 70
     1
 40
0
 41
0
  0
VERTEX
  8
0
 10
7.55029
 20
1.06999
 30
0.0
 40
0
 41
0
  0
VERTEX
  8
0
 10
8.41894
 20
1.06999
 30
0.0
 40
0
 41
0
  0
VERTEX
  8
0
 10
8.41894
 20
0.880317
 30
0.0
 40
0
 41
0
  0
VERTEX
  8
0
 10
7.55029
 20
0.880317
 30
0.0
 40
0
 41
0
  0
VERTEX
  8
0
 10
7.55029
 20
1.06999
 30
0.0
 40
0
 41
0
  0
SEQEND
 8
0
  0
POLYLINE
  8
0
 62
     0
 66
     1
 10
0
 20
0
 30
0.0
 70
     1
 40
0.75
 41
0.75
  0
VERTEX
  8
0
 10
7.55029
 20
1.06999
 30
0.0
 40
0.0104167
 41
0.0104167
  0
VERTEX
  8
0
 10
8.41894
 20
1.06999
 30
0.0
 40
0.0104167
 41
0.0104167
  0
VERTEX
  8
0
 10
8.41894
 20
0.880317
 30
0.0
 40
0.0104167
 41
0.0104167
  0
VERTEX
  8
0
 10
7.55029
 20
0.880317
 30
0.0
 40
0.0104167
 41
0.0104167
  0
VERTEX
  8
0
 10
7.55029
 20
1.06999
 30
0.0
 40
0.0104167
 41
0.0104167
  0
SEQEND
 8
0
  0
POLYLINE
  8
0
 62
     7
 66
     1
 10
0
 20
0
 30
0.0
 70
     1
 40
0
 41
0
  0
VERTEX
  8
0
 10
7.55029
 20
1.06999
 30
0.0
 40
0
 41
0
  0
VERTEX
  8
0
 10
8.41894
 20
1.06999
 30
0.0
 40
0
 41
0
  0
VERTEX
  8
0
 10
8.41894
 20
0.880317
 30
0.0
 40
0
 41
0
  0
VERTEX
  8
0
 10
7.55029
 20
0.880317
 30
0.0
 40
0
 41
0
  0
VERTEX
  8
0
 10
7.55029
 20
1.06999
 30
0.0
 40
0
 41
0
  0
SEQEND
 8
0
  0
POLYLINE
  8
0
 62
     0
 66
     1
 10
0
 20
0
 30
0.0
 70
     1
 40
0.75
 41
0.75
  0
VERTEX
  8
0
 10
7.55029
 20
1.06999
 30
0.0
 40
0.0104167
 41
0.0104167
  0
VERTEX
  8
0
 10
8.41894
 20
1.06999
 30
0.0
 40
0.0104167
 41
0.0104167
  0
VERTEX
  8
0
 10
8.41894
 20
0.880317
 30
0.0
 40
0.0104167
 41
0.0104167
  0
VERTEX
  8
0
 10
7.55029
 20
0.880317
 30
0.0
 40
0.0104167
 41
0.0104167
  0
VERTEX
  8
0
 10
7.55029
 20
1.06999
 30
0.0
 40
0.0104167
 41
0.0104167
  0
SEQEND
 8
0
  0
POLYLINE
  8
0
 62
     0
 66
     1
 10
0
 20
0
 30
0.0
 70
     1
 40
0.75
 41
0.75
  0
VERTEX
  8
0
 10
8.41894
 20
0.880317
 30
0.0
 40
0.0104167
 41
0.0104167
  0
VERTEX
  8
0
 10
8.41894
 20
0.829428
 30
0.0
 40
0.0104167
 41
0.0104167
  0
VERTEX
  8
0
 10
8.40533
 20
0.676758
 30
0.0
 40
0.0104167
 41
0.0104167
  0
VERTEX
  8
0
 10
8.36464
 20
0.500325
 30
0.0
 40
0.0104167
 41
0.0104167
  0
VERTEX
  8
0
 10
8.29676
 20
0.351019
 30
0.0
 40
0.0104167
 41
0.0104167
  0
VERTEX
  8
0
 10
8.20176
 20
0.228842
 30
0.0
 40
0.0104167
 41
0.0104167
  0
VERTEX
  8
0
 10
8.07958
 20
0.133843
 30
0.0
 40
0.0104167
 41
0.0104167
  0
VERTEX
  8
0
 10
7.93028
 20
0.0659722
 30
0.0
 40
0.0104167
 41
0.0104167
  0
VERTEX
  8
0
 10
7.75385
 20
0.0252821
 30
0.0
 40
0.0104167
 41
0.0104167
  0
VERTEX
  8
0
 10
7.60118
 20
0.0116645
 30
0.0
 40
0.0104167
 41
0.0104167
  0
VERTEX
  8
0
 10
7.55029
 20
0.0116645
 30
0.0
 40
0.0104167
 41
0.0104167
  0
VERTEX
  8
0
 10
7.55029
 20
0.880317
 30
0.0
 40
0.0104167
 41
0.0104167
  0
VERTEX
  8
0
 10
8.41894
 20
0.880317
 30
0.0
 40
0.0104167
 41
0.0104167
  0
SEQEND
 8
0
  0
POLYLINE
  8
0
 62
     0
 66
     1
 10
0
 20
0
 30
0.0
 70
     1
 40
0.75
 41
0.75
  0
VERTEX
  8
0
 10
8.41894
 20
1.06999
 30
0.0
 40
0.0104167
 41
0.0104167
  0
VERTEX
  8
0
 10
8.41894
 20
1.12093
 30
0.0
 40
0.0104167
 41
0.0104167
  0
VERTEX
  8
0
 10
8.40533
 20
1.2736
 30
0.0
 40
0.0104167
 41
0.0104167
  0
VERTEX
  8
0
 10
8.36464
 20
1.45003
 30
0.0
 40
0.0104167
 41
0.0104167
  0
VERTEX
  8
0
 10
8.29676
 20
1.59933
 30
0.0
 40
0.0104167
 41
0.0104167
  0
VERTEX
  8
0
 10
8.20176
 20
1.72151
 30
0.0
 40
0.0104167
 41
0.0104167
  0
VERTEX
  8
0
 10
8.07958
 20
1.81651
 30
0.0
 40
0.0104167
 41
0.0104167
  0
VERTEX
  8
0
 10
7.93028
 20
1.88439
 30
0.0
 40
0.0104167
 41
0.0104167
  0
VERTEX
  8
0
 10
7.75385
 20
1.92507
 30
0.0
 40
0.0104167
 41
0.0104167
  0
VERTEX
  8
0
 10
7.60118
 20
1.93864
 30
0.0
 40
0.0104167
 41
0.0104167
  0
VERTEX
  8
0
 10
7.55029
 20
1.93864
 30
0.0
 40
0.0104167
 41
0.0104167
  0
VERTEX
  8
0
 10
7.55029
 20
1.06999
 30
0.0
 40
0.0104167
 41
0.0104167
  0
VERTEX
  8
0
 10
8.41894
 20
1.06999
 30
0.0
 40
0.0104167
 41
0.0104167
  0
SEQEND
 8
0
  0
POLYLINE
  8
0
 62
     7
 66
     1
 10
0
 20
0
 30
0.0
 70
     1
 40
0
 41
0
  0
VERTEX
  8
0
 10
8.40722
 20
6.90804
 30
0.0
 40
0
 41
0
  0
VERTEX
  8
0
 10
8.59451
 20
6.90804
 30
0.0
 40
0
 41
0
  0
VERTEX
  8
0
 10
8.59451
 20
6.49149
 30
0.0
 40
0
 41
0
  0
VERTEX
  8
0
 10
8.40722
 20
6.49149
 30
0.0
 40
0
 41
0
  0
VERTEX
  8
0
 10
8.40722
 20
6.90804
 30
0.0
 40
0
 41
0
  0
SEQEND
 8
0
  0
POLYLINE
  8
0
 62
     0
 66
     1
 10
0
 20
0
 30
0.0
 70
     1
 40
0.75
 41
0.75
  0
VERTEX
  8
0
 10
8.40722
 20
6.90804
 30
0.0
 40
0.0104167
 41
0.0104167
  0
VERTEX
  8
0
 10
8.40722
 20
6.49149
 30
0.0
 40
0.0104167
 41
0.0104167
  0
VERTEX
  8
0
 10
8.59451
 20
6.49149
 30
0.0
 40
0.0104167
 41
0.0104167
  0
VERTEX
  8
0
 10
8.59451
 20
6.90804
 30
0.0
 40
0.0104167
 41
0.0104167
  0
VERTEX
  8
0
 10
8.40722
 20
6.90804
 30
0.0
 40
0.0104167
 41
0.0104167
  0
SEQEND
 8
0
  0
POLYLINE
  8
0
 62
     7
 66
     1
 10
0
 20
0
 30
0.0
 70
     1
 40
0
 41
0
  0
VERTEX
  8
0
 10
8.13889
 20
6.49149
 30
0.0
 40
0
 41
0
  0
VERTEX
  8
0
 10
8.13889
 20
6.49149
 30
0.0
 40
0
 41
0
  0
VERTEX
  8
0
 10
8.12711
 20
6.49143
 30
0.0
 40
0
 41
0
  0
VERTEX
  8
0
 10
8.09614
 20
6.49306
 30
0.0
 40
0
 41
0
  0
VERTEX
  8
0
 10
8.05231
 20
6.49918
 30
0.0
 40
0
 41
0
  0
VERTEX
  8
0
 10
8.00211
 20
6.51258
 30
0.0
 40
0
 41
0
  0
VERTEX
  8
0
 10
7.95187
 20
6.53614
 30
0.0
 40
0
 41
0
  0
VERTEX
  8
0
 10
7.90804
 20
6.5726
 30
0.0
 40
0
 41
0
  0
VERTEX
  8
0
 10
7.87706
 20
6.62478
 30
0.0
 40
0
 41
0
  0
VERTEX
  8
0
 10
7.86535
 20
6.67785
 30
0.0
 40
0
 41
0
  0
VERTEX
  8
0
 10
7.86535
 20
6.69547
 30
0.0
 40
0
 41
0
  0
VERTEX
  8
0
 10
7.86535
 20
6.71382
 30
0.0
 40
0
 41
0
  0
VERTEX
  8
0
 10
7.87706
 20
6.76867
 30
0.0
 40
0
 41
0
  0
VERTEX
  8
0
 10
7.90804
 20
6.82275
 30
0.0
 40
0
 41
0
  0
VERTEX
  8
0
 10
7.95187
 20
6.86057
 30
0.0
 40
0
 41
0
  0
VERTEX
  8
0
 10
8.00211
 20
6.88499
 30
0.0
 40
0
 41
0
  0
VERTEX
  8
0
 10
8.05231
 20
6.89899
 30
0.0
 40
0
 41
0
  0
VERTEX
  8
0
 10
8.09614
 20
6.90539
 30
0.0
 40
0
 41
0
  0
VERTEX
  8
0
 10
8.12711
 20
6.90712
 30
0.0
 40
0
 41
0
  0
VERTEX
  8
0
 10
8.13889
 20
6.90701
 30
0.0
 40
0
 41
0
  0
VERTEX
  8
0
 10
8.13889
 20
6.90701
 30
0.0
 40
0
 41
0
  0
VERTEX
  8
0
 10
8.40722
 20
6.90804
 30
0.0
 40
0
 41
0
  0
VERTEX
  8
0
 10
8.40722
 20
6.49149
 30
0.0
 40
0
 41
0
  0
VERTEX
  8
0
 10
8.13889
 20
6.49149
 30
0.0
 40
0
 41
0
  0
SEQEND
 8
0
  0
POLYLINE
  8
0
 62
     0
 66
     1
 10
0
 20
0
 30
0.0
 70
     1
 40
0.75
 41
0.75
  0
VERTEX
  8
0
 10
8.13889
 20
6.49149
 30
0.0
 40
0.0104167
 41
0.0104167
  0
VERTEX
  8
0
 10
8.13889
 20
6.49149
 30
0.0
 40
0.0104167
 41
0.0104167
  0
VERTEX
  8
0
 10
8.12711
 20
6.49143
 30
0.0
 40
0.0104167
 41
0.0104167
  0
VERTEX
  8
0
 10
8.09614
 20
6.49306
 30
0.0
 40
0.0104167
 41
0.0104167
  0
VERTEX
  8
0
 10
8.05231
 20
6.49918
 30
0.0
 40
0.0104167
 41
0.0104167
  0
VERTEX
  8
0
 10
8.00211
 20
6.51258
 30
0.0
 40
0.0104167
 41
0.0104167
  0
VERTEX
  8
0
 10
7.95187
 20
6.53614
 30
0.0
 40
0.0104167
 41
0.0104167
  0
VERTEX
  8
0
 10
7.90804
 20
6.5726
 30
0.0
 40
0.0104167
 41
0.0104167
  0
VERTEX
  8
0
 10
7.87706
 20
6.62478
 30
0.0
 40
0.0104167
 41
0.0104167
  0
VERTEX
  8
0
 10
7.86535
 20
6.67785
 30
0.0
 40
0.0104167
 41
0.0104167
  0
VERTEX
  8
0
 10
7.86535
 20
6.69547
 30
0.0
 40
0.0104167
 41
0.0104167
  0
VERTEX
  8
0
 10
7.86535
 20
6.71382
 30
0.0
 40
0.0104167
 41
0.0104167
  0
VERTEX
  8
0
 10
7.87706
 20
6.76867
 30
0.0
 40
0.0104167
 41
0.0104167
  0
VERTEX
  8
0
 10
7.90804
 20
6.82275
 30
0.0
 40
0.0104167
 41
0.0104167
  0
VERTEX
  8
0
 10
7.95187
 20
6.86057
 30
0.0
 40
0.0104167
 41
0.0104167
  0
VERTEX
  8
0
 10
8.00211
 20
6.88499
 30
0.0
 40
0.0104167
 41
0.0104167
  0
VERTEX
  8
0
 10
8.05231
 20
6.89899
 30
0.0
 40
0.0104167
 41
0.0104167
  0
VERTEX
  8
0
 10
8.09614
 20
6.90539
 30
0.0
 40
0.0104167
 41
0.0104167
  0
VERTEX
  8
0
 10
8.12711
 20
6.90712
 30
0.0
 40
0.0104167
 41
0.0104167
  0
VERTEX
  8
0
 10
8.13889
 20
6.90701
 30
0.0
 40
0.0104167
 41
0.0104167
  0
VERTEX
  8
0
 10
8.13889
 20
6.90701
 30
0.0
 40
0.0104167
 41
0.0104167
  0
VERTEX
  8
0
 10
8.40722
 20
6.90804
 30
0.0
 40
0.0104167
 41
0.0104167
  0
VERTEX
  8
0
 10
8.40722
 20
6.49149
 30
0.0
 40
0.0104167
 41
0.0104167
  0
VERTEX
  8
0
 10
8.13889
 20
6.49149
 30
0.0
 40
0.0104167
 41
0.0104167
  0
SEQEND
 8
0
  0
POLYLINE
  8
0
 62
     7
 66
     1
 10
0
 20
0
 30
0.0
 70
     1
 40
0
 41
0
  0
VERTEX
  8
0
 10
8.48508
 20
6.73286
 30
0.0
 40
0
 41
0
  0
VERTEX
  8
0
 10
8.51665
 20
6.73286
 30
0.0
 40
0
 41
0
  0
VERTEX
  8
0
 10
8.51665
 20
6.66667
 30
0.0
 40
0
 41
0
  0
VERTEX
  8
0
 10
8.48508
 20
6.66667
 30
0.0
 40
0
 41
0
  0
VERTEX
  8
0
 10
8.48508
 20
6.73286
 30
0.0
 40
0
 41
0
  0
SEQEND
 8
0
  0
POLYLINE
  8
0
 62
     0
 66
     1
 10
0
 20
0
 30
0.0
 70
     1
 40
0.75
 41
0.75
  0
VERTEX
  8
0
 10
8.48508
 20
6.73286
 30
0.0
 40
0.0104167
 41
0.0104167
  0
VERTEX
  8
0
 10
8.48508
 20
6.66667
 30
0.0
 40
0.0104167
 41
0.0104167
  0
VERTEX
  8
0
 10
8.51665
 20
6.66667
 30
0.0
 40
0.0104167
 41
0.0104167
  0
VERTEX
  8
0
 10
8.51665
 20
6.73286
 30
0.0
 40
0.0104167
 41
0.0104167
  0
VERTEX
  8
0
 10
8.48508
 20
6.73286
 30
0.0
 40
0.0104167
 41
0.0104167
  0
SEQEND
 8
0
  0
POLYLINE
  8
0
 62
     7
 66
     1
 10
0
 20
0
 30
0.0
 70
     1
 40
0
 41
0
  0
VERTEX
  8
0
 10
8.21268
 20
7.8189
 30
0.0
 40
0
 41
0
  0
VERTEX
  8
0
 10
8.59874
 20
7.8189
 30
0.0
 40
0
 41
0
  0
VERTEX
  8
0
 10
8.59874
 20
7.25185
 30
0.0
 40
0
 41
0
  0
VERTEX
  8
0
 10
8.21268
 20
7.25185
 30
0.0
 40
0
 41
0
  0
VERTEX
  8
0
 10
8.21268
 20
7.8189
 30
0.0
 40
0
 41
0
  0
SEQEND
 8
0
  0
POLYLINE
  8
0
 62
     0
 66
     1
 10
0
 20
0
 30
0.0
 70
     1
 40
0.75
 41
0.75
  0
VERTEX
  8
0
 10
8.21268
 20
7.8189
 30
0.0
 40
0.0104167
 41
0.0104167
  0
VERTEX
  8
0
 10
8.21268
 20
7.25185
 30
0.0
 40
0.0104167
 41
0.0104167
  0
VERTEX
  8
0
 10
8.59874
 20
7.25185
 30
0.0
 40
0.0104167
 41
0.0104167
  0
VERTEX
  8
0
 10
8.59874
 20
7.8189
 30
0.0
 40
0.0104167
 41
0.0104167
  0
VERTEX
  8
0
 10
8.21268
 20
7.8189
 30
0.0
 40
0.0104167
 41
0.0104167
  0
SEQEND
 8
0
  0
POLYLINE
  8
0
 62
     7
 66
     1
 10
0
 20
0
 30
0.0
 70
     1
 40
0
 41
0
  0
VERTEX
  8
0
 10
8.37576
 20
7.28965
 30
0.0
 40
0
 41
0
  0
VERTEX
  8
0
 10
8.36404
 20
7.28965
 30
0.0
 40
0
 41
0
  0
VERTEX
  8
0
 10
8.32894
 20
7.30854
 30
0.0
 40
0
 41
0
  0
VERTEX
  8
0
 10
8.29075
 20
7.35986
 30
0.0
 40
0
 41
0
  0
VERTEX
  8
0
 10
8.26497
 20
7.43604
 30
0.0
 40
0
 41
0
  0
VERTEX
  8
0
 10
8.25553
 20
7.50597
 30
0.0
 40
0
 41
0
  0
VERTEX
  8
0
 10
8.25553
 20
7.52924
 30
0.0
 40
0
 41
0
  0
VERTEX
  8
0
 10
8.25553
 20
7.55257
 30
0.0
 40
0
 41
0
  0
VERTEX
  8
0
 10
8.26497
 20
7.6225
 30
0.0
 40
0
 41
0
  0
VERTEX
  8
0
 10
8.29075
 20
7.69868
 30
0.0
 40
0
 41
0
  0
VERTEX
  8
0
 10
8.32894
 20
7.75
 30
0.0
 40
0
 41
0
  0
VERTEX
  8
0
 10
8.36404
 20
7.76882
 30
0.0
 40
0
 41
0
  0
VERTEX
  8
0
 10
8.37576
 20
7.76882
 30
0.0
 40
0
 41
0
  0
VERTEX
  8
0
 10
8.38743
 20
7.76882
 30
0.0
 40
0
 41
0
  0
VERTEX
  8
0
 10
8.42253
 20
7.75
 30
0.0
 40
0
 41
0
  0
VERTEX
  8
0
 10
8.46072
 20
7.69868
 30
0.0
 40
0
 41
0
  0
VERTEX
  8
0
 10
8.48643
 20
7.6225
 30
0.0
 40
0
 41
0
  0
VERTEX
  8
0
 10
8.49593
 20
7.55257
 30
0.0
 40
0
 41
0
  0
VERTEX
  8
0
 10
8.49593
 20
7.52924
 30
0.0
 40
0
 41
0
  0
VERTEX
  8
0
 10
8.49593
 20
7.50597
 30
0.0
 40
0
 41
0
  0
VERTEX
  8
0
 10
8.48643
 20
7.43604
 30
0.0
 40
0
 41
0
  0
VERTEX
  8
0
 10
8.46072
 20
7.35986
 30
0.0
 40
0
 41
0
  0
VERTEX
  8
0
 10
8.42253
 20
7.30854
 30
0.0
 40
0
 41
0
  0
VERTEX
  8
0
 10
8.38743
 20
7.28965
 30
0.0
 40
0
 41
0
  0
VERTEX
  8
0
 10
8.37576
 20
7.28965
 30
0.0
 40
0
 41
0
  0
SEQEND
 8
0
  0
POLYLINE
  8
0
 62
     0
 66
     1
 10
0
 20
0
 30
0.0
 70
     1
 40
0.75
 41
0.75
  0
VERTEX
  8
0
 10
8.37576
 20
7.28965
 30
0.0
 40
0.0104167
 41
0.0104167
  0
VERTEX
  8
0
 10
8.36404
 20
7.28965
 30
0.0
 40
0.0104167
 41
0.0104167
  0
VERTEX
  8
0
 10
8.32894
 20
7.30854
 30
0.0
 40
0.0104167
 41
0.0104167
  0
VERTEX
  8
0
 10
8.29075
 20
7.35986
 30
0.0
 40
0.0104167
 41
0.0104167
  0
VERTEX
  8
0
 10
8.26497
 20
7.43604
 30
0.0
 40
0.0104167
 41
0.0104167
  0
VERTEX
  8
0
 10
8.25553
 20
7.50597
 30
0.0
 40
0.0104167
 41
0.0104167
  0
VERTEX
  8
0
 10
8.25553
 20
7.52924
 30
0.0
 40
0.0104167
 41
0.0104167
  0
VERTEX
  8
0
 10
8.25553
 20
7.55257
 30
0.0
 40
0.0104167
 41
0.0104167
  0
VERTEX
  8
0
 10
8.26497
 20
7.6225
 30
0.0
 40
0.0104167
 41
0.0104167
  0
VERTEX
  8
0
 10
8.29075
 20
7.69868
 30
0.0
 40
0.0104167
 41
0.0104167
  0
VERTEX
  8
0
 10
8.32894
 20
7.75
 30
0.0
 40
0.0104167
 41
0.0104167
  0
VERTEX
  8
0
 10
8.36404
 20
7.76882
 30
0.0
 40
0.0104167
 41
0.0104167
  0
VERTEX
  8
0
 10
8.37576
 20
7.76882
 30
0.0
 40
0.0104167
 41
0.0104167
  0
VERTEX
  8
0
 10
8.38743
 20
7.76882
 30
0.0
 40
0.0104167
 41
0.0104167
  0
VERTEX
  8
0
 10
8.42253
 20
7.75
 30
0.0
 40
0.0104167
 41
0.0104167
  0
VERTEX
  8
0
 10
8.46072
 20
7.69868
 30
0.0
 40
0.0104167
 41
0.0104167
  0
VERTEX
  8
0
 10
8.48643
 20
7.6225
 30
0.0
 40
0.0104167
 41
0.0104167
  0
VERTEX
  8
0
 10
8.49593
 20
7.55257
 30
0.0
 40
0.0104167
 41
0.0104167
  0
VERTEX
  8
0
 10
8.49593
 20
7.52924
 30
0.0
 40
0.0104167
 41
0.0104167
  0
VERTEX
  8
0
 10
8.49593
 20
7.50597
 30
0.0
 40
0.0104167
 41
0.0104167
  0
VERTEX
  8
0
 10
8.48643
 20
7.43604
 30
0.0
 40
0.0104167
 41
0.0104167
  0
VERTEX
  8
0
 10
8.46072
 20
7.35986
 30
0.0
 40
0.0104167
 41
0.0104167
  0
VERTEX
  8
0
 10
8.42253
 20
7.30854
 30
0.0
 40
0.0104167
 41
0.0104167
  0
VERTEX
  8
0
 10
8.38743
 20
7.28965
 30
0.0
 40
0.0104167
 41
0.0104167
  0
VERTEX
  8
0
 10
8.37576
 20
7.28965
 30
0.0
 40
0.0104167
 41
0.0104167
  0
SEQEND
 8
0
  0
POLYLINE
  8
0
 62
     7
 66
     1
 10
0
 20
0
 30
0.0
 70
     1
 40
0
 41
0
  0
VERTEX
  8
0
 10
8.37576
 20
7.49278
 30
0.0
 40
0
 41
0
  0
VERTEX
  8
0
 10
8.3725
 20
7.49278
 30
0.0
 40
0
 41
0
  0
VERTEX
  8
0
 10
8.36279
 20
7.50347
 30
0.0
 40
0
 41
0
  0
VERTEX
  8
0
 10
8.35747
 20
7.52285
 30
0.0
 40
0
 41
0
  0
VERTEX
  8
0
 10
8.35747
 20
7.52924
 30
0.0
 40
0
 41
0
  0
VERTEX
  8
0
 10
8.35747
 20
7.53569
 30
0.0
 40
0
 41
0
  0
VERTEX
  8
0
 10
8.36279
 20
7.55507
 30
0.0
 40
0
 41
0
  0
VERTEX
  8
0
 10
8.3725
 20
7.56569
 30
0.0
 40
0
 41
0
  0
VERTEX
  8
0
 10
8.37576
 20
7.56569
 30
0.0
 40
0
 41
0
  0
VERTEX
  8
0
 10
8.37896
 20
7.56569
 30
0.0
 40
0
 41
0
  0
VERTEX
  8
0
 10
8.38867
 20
7.55507
 30
0.0
 40
0
 41
0
  0
VERTEX
  8
0
 10
8.39404
 20
7.53569
 30
0.0
 40
0
 41
0
  0
VERTEX
  8
0
 10
8.39404
 20
7.52924
 30
0.0
 40
0
 41
0
  0
VERTEX
  8
0
 10
8.39404
 20
7.52285
 30
0.0
 40
0
 41
0
  0
VERTEX
  8
0
 10
8.38867
 20
7.50347
 30
0.0
 40
0
 41
0
  0
VERTEX
  8
0
 10
8.37896
 20
7.49278
 30
0.0
 40
0
 41
0
  0
VERTEX
  8
0
 10
8.37576
 20
7.49278
 30
0.0
 40
0
 41
0
  0
SEQEND
 8
0
  0
POLYLINE
  8
0
 62
     0
 66
     1
 10
0
 20
0
 30
0.0
 70
     1
 40
0.75
 41
0.75
  0
VERTEX
  8
0
 10
8.37576
 20
7.49278
 30
0.0
 40
0.0104167
 41
0.0104167
  0
VERTEX
  8
0
 10
8.3725
 20
7.49278
 30
0.0
 40
0.0104167
 41
0.0104167
  0
VERTEX
  8
0
 10
8.36279
 20
7.50347
 30
0.0
 40
0.0104167
 41
0.0104167
  0
VERTEX
  8
0
 10
8.35747
 20
7.52285
 30
0.0
 40
0.0104167
 41
0.0104167
  0
VERTEX
  8
0
 10
8.35747
 20
7.52924
 30
0.0
 40
0.0104167
 41
0.0104167
  0
VERTEX
  8
0
 10
8.35747
 20
7.53569
 30
0.0
 40
0.0104167
 41
0.0104167
  0
VERTEX
  8
0
 10
8.36279
 20
7.55507
 30
0.0
 40
0.0104167
 41
0.0104167
  0
VERTEX
  8
0
 10
8.3725
 20
7.56569
 30
0.0
 40
0.0104167
 41
0.0104167
  0
VERTEX
  8
0
 10
8.37576
 20
7.56569
 30
0.0
 40
0.0104167
 41
0.0104167
  0
VERTEX
  8
0
 10
8.37896
 20
7.56569
 30
0.0
 40
0.0104167
 41
0.0104167
  0
VERTEX
  8
0
 10
8.38867
 20
7.55507
 30
0.0
 40
0.0104167
 41
0.0104167
  0
VERTEX
  8
0
 10
8.39404
 20
7.53569
 30
0.0
 40
0.0104167
 41
0.0104167
  0
VERTEX
  8
0
 10
8.39404
 20
7.52924
 30
0.0
 40
0.0104167
 41
0.0104167
  0
VERTEX
  8
0
 10
8.39404
 20
7.52285
 30
0.0
 40
0.0104167
 41
0.0104167
  0
VERTEX
  8
0
 10
8.38867
 20
7.50347
 30
0.0
 40
0.0104167
 41
0.0104167
  0
VERTEX
  8
0
 10
8.37896
 20
7.49278
 30
0.0
 40
0.0104167
 41
0.0104167
  0
VERTEX
  8
0
 10
8.37576
 20
7.49278
 30
0.0
 40
0.0104167
 41
0.0104167
  0
SEQEND
 8
0
  0
POLYLINE
  8
0
 62
     7
 66
     1
 10
0
 20
0
 30
0.0
 70
     1
 40
0
 41
0
  0
VERTEX
  8
0
 10
8.37576
 20
7.5084
 30
0.0
 40
0
 41
0
  0
VERTEX
  8
0
 10
8.37386
 20
7.5084
 30
0.0
 40
0
 41
0
  0
VERTEX
  8
0
 10
8.36833
 20
7.51454
 30
0.0
 40
0
 41
0
  0
VERTEX
  8
0
 10
8.36529
 20
7.52561
 30
0.0
 40
0
 41
0
  0
VERTEX
  8
0
 10
8.36529
 20
7.52924
 30
0.0
 40
0
 41
0
  0
VERTEX
  8
0
 10
8.36529
 20
7.53293
 30
0.0
 40
0
 41
0
  0
VERTEX
  8
0
 10
8.36833
 20
7.544
 30
0.0
 40
0
 41
0
  0
VERTEX
  8
0
 10
8.37386
 20
7.55007
 30
0.0
 40
0
 41
0
  0
VERTEX
  8
0
 10
8.37576
 20
7.55007
 30
0.0
 40
0
 41
0
  0
VERTEX
  8
0
 10
8.37756
 20
7.55007
 30
0.0
 40
0
 41
0
  0
VERTEX
  8
0
 10
8.38308
 20
7.544
 30
0.0
 40
0
 41
0
  0
VERTEX
  8
0
 10
8.38618
 20
7.53293
 30
0.0
 40
0
 41
0
  0
VERTEX
  8
0
 10
8.38618
 20
7.52924
 30
0.0
 40
0
 41
0
  0
VERTEX
  8
0
 10
8.38618
 20
7.52561
 30
0.0
 40
0
 41
0
  0
VERTEX
  8
0
 10
8.38308
 20
7.51454
 30
0.0
 40
0
 41
0
  0
VERTEX
  8
0
 10
8.37756
 20
7.5084
 30
0.0
 40
0
 41
0
  0
VERTEX
  8
0
 10
8.37576
 20
7.5084
 30
0.0
 40
0
 41
0
  0
SEQEND
 8
0
  0
POLYLINE
  8
0
 62
     0
 66
     1
 10
0
 20
0
 30
0.0
 70
     1
 40
0.75
 41
0.75
  0
VERTEX
  8
0
 10
8.37576
 20
7.5084
 30
0.0
 40
0.0104167
 41
0.0104167
  0
VERTEX
  8
0
 10
8.37386
 20
7.5084
 30
0.0
 40
0.0104167
 41
0.0104167
  0
VERTEX
  8
0
 10
8.36833
 20
7.51454
 30
0.0
 40
0.0104167
 41
0.0104167
  0
VERTEX
  8
0
 10
8.36529
 20
7.52561
 30
0.0
 40
0.0104167
 41
0.0104167
  0
VERTEX
  8
0
 10
8.36529
 20
7.52924
 30
0.0
 40
0.0104167
 41
0.0104167
  0
VERTEX
  8
0
 10
8.36529
 20
7.53293
 30
0.0
 40
0.0104167
 41
0.0104167
  0
VERTEX
  8
0
 10
8.36833
 20
7.544
 30
0.0
 40
0.0104167
 41
0.0104167
  0
VERTEX
  8
0
 10
8.37386
 20
7.55007
 30
0.0
 40
0.0104167
 41
0.0104167
  0
VERTEX
  8
0
 10
8.37576
 20
7.55007
 30
0.0
 40
0.0104167
 41
0.0104167
  0
VERTEX
  8
0
 10
8.37756
 20
7.55007
 30
0.0
 40
0.0104167
 41
0.0104167
  0
VERTEX
  8
0
 10
8.38308
 20
7.544
 30
0.0
 40
0.0104167
 41
0.0104167
  0
VERTEX
  8
0
 10
8.38618
 20
7.53293
 30
0.0
 40
0.0104167
 41
0.0104167
  0
VERTEX
  8
0
 10
8.38618
 20
7.52924
 30
0.0
 40
0.0104167
 41
0.0104167
  0
VERTEX
  8
0
 10
8.38618
 20
7.52561
 30
0.0
 40
0.0104167
 41
0.0104167
  0
VERTEX
  8
0
 10
8.38308
 20
7.51454
 30
0.0
 40
0.0104167
 41
0.0104167
  0
VERTEX
  8
0
 10
8.37756
 20
7.5084
 30
0.0
 40
0.0104167
 41
0.0104167
  0
VERTEX
  8
0
 10
8.37576
 20
7.5084
 30
0.0
 40
0.0104167
 41
0.0104167
  0
SEQEND
 8
0
  0
POLYLINE
  8
0
 62
     7
 66
     1
 10
0
 20
0
 30
0.0
 70
     1
 40
0
 41
0
  0
VERTEX
  8
0
 10
8.44368
 20
7.56049
 30
0.0
 40
0
 41
0
  0
VERTEX
  8
0
 10
8.51688
 20
7.56049
 30
0.0
 40
0
 41
0
  0
VERTEX
  8
0
 10
8.51688
 20
7.49799
 30
0.0
 40
0
 41
0
  0
VERTEX
  8
0
 10
8.44368
 20
7.49799
 30
0.0
 40
0
 41
0
  0
VERTEX
  8
0
 10
8.44368
 20
7.56049
 30
0.0
 40
0
 41
0
  0
SEQEND
 8
0
  0
POLYLINE
  8
0
 62
     0
 66
     1
 10
0
 20
0
 30
0.0
 70
     1
 40
0.75
 41
0.75
  0
VERTEX
  8
0
 10
8.44368
 20
7.56049
 30
0.0
 40
0.0104167
 41
0.0104167
  0
VERTEX
  8
0
 10
8.44368
 20
7.49799
 30
0.0
 40
0.0104167
 41
0.0104167
  0
VERTEX
  8
0
 10
8.51688
 20
7.49799
 30
0.0
 40
0.0104167
 41
0.0104167
  0
VERTEX
  8
0
 10
8.51688
 20
7.56049
 30
0.0
 40
0.0104167
 41
0.0104167
  0
VERTEX
  8
0
 10
8.44368
 20
7.56049
 30
0.0
 40
0.0104167
 41
0.0104167
  0
SEQEND
 8
0
  0
POLYLINE
  8
0
 62
     7
 66
     1
 10
0
 20
0
 30
0.0
 70
     1
 40
0
 41
0
  0
VERTEX
  8
0
 10
8.2806
 20
7.25185
 30
0.0
 40
0
 41
0
  0
VERTEX
  8
0
 10
8.59874
 20
7.25185
 30
0.0
 40
0
 41
0
  0
VERTEX
  8
0
 10
8.59874
 20
6.94433
 30
0.0
 40
0
 41
0
  0
VERTEX
  8
0
 10
8.2806
 20
6.94433
 30
0.0
 40
0
 41
0
  0
VERTEX
  8
0
 10
8.2806
 20
7.25185
 30
0.0
 40
0
 41
0
  0
SEQEND
 8
0
  0
POLYLINE
  8
0
 62
     0
 66
     1
 10
0
 20
0
 30
0.0
 70
     1
 40
0.75
 41
0.75
  0
VERTEX
  8
0
 10
8.2806
 20
7.25185
 30
0.0
 40
0.0104167
 41
0.0104167
  0
VERTEX
  8
0
 10
8.2806
 20
6.94433
 30
0.0
 40
0.0104167
 41
0.0104167
  0
VERTEX
  8
0
 10
8.59874
 20
6.94433
 30
0.0
 40
0.0104167
 41
0.0104167
  0
VERTEX
  8
0
 10
8.59874
 20
7.25185
 30
0.0
 40
0.0104167
 41
0.0104167
  0
VERTEX
  8
0
 10
8.2806
 20
7.25185
 30
0.0
 40
0.0104167
 41
0.0104167
  0
SEQEND
 8
0
  0
POLYLINE
  8
0
 62
     7
 66
     1
 10
0
 20
0
 30
0.0
 70
     1
 40
0
 41
0
  0
VERTEX
  8
0
 10
9.50846
 20
8.80137
 30
0.0
 40
0
 41
0
  0
VERTEX
  8
0
 10
10.7704
 20
8.80137
 30
0.0
 40
0
 41
0
  0
VERTEX
  8
0
 10
10.7704
 20
8.17637
 30
0.0
 40
0
 41
0
  0
VERTEX
  8
0
 10
9.50846
 20
8.17637
 30
0.0
 40
0
 41
0
  0
VERTEX
  8
0
 10
9.50846
 20
8.80137
 30
0.0
 40
0
 41
0
  0
SEQEND
 8
0
  0
POLYLINE
  8
0
 62
     0
 66
     1
 10
0
 20
0
 30
0.0
 70
     1
 40
0.75
 41
0.75
  0
VERTEX
  8
0
 10
9.50846
 20
8.80137
 30
0.0
 40
0.0104167
 41
0.0104167
  0
VERTEX
  8
0
 10
10.7704
 20
8.80137
 30
0.0
 40
0.0104167
 41
0.0104167
  0
VERTEX
  8
0
 10
10.7704
 20
8.17637
 30
0.0
 40
0.0104167
 41
0.0104167
  0
VERTEX
  8
0
 10
9.50846
 20
8.17637
 30
0.0
 40
0.0104167
 41
0.0104167
  0
VERTEX
  8
0
 10
9.50846
 20
8.80137
 30
0.0
 40
0.0104167
 41
0.0104167
  0
SEQEND
 8
0
  0
POLYLINE
  8
0
 62
     0
 66
     1
 10
0
 20
0
 30
0.0
 70
     1
 40
0
 41
0
  0
VERTEX
  8
0
 10
8.71425
 20
8.80137
 30
0.0
 40
0
 41
0
  0
VERTEX
  8
0
 10
9.50846
 20
8.80137
 30
0.0
 40
0
 41
0
  0
VERTEX
  8
0
 10
9.50846
 20
8.17606
 30
0.0
 40
0
 41
0
  0
VERTEX
  8
0
 10
8.71425
 20
8.17606
 30
0.0
 40
0
 41
0
  0
VERTEX
  8
0
 10
8.71425
 20
8.80137
 30
0.0
 40
0
 41
0
  0
SEQEND
 8
0
  0
POLYLINE
  8
0
 62
     7
 66
     1
 10
0
 20
0
 30
0.0
 70
     1
 40
0
 41
0
  0
VERTEX
  8
0
 10
8.71544
 20
8.17606
 30
0.0
 40
0
 41
0
  0
VERTEX
  8
0
 10
9.34044
 20
8.17606
 30
0.0
 40
0
 41
0
  0
VERTEX
  8
0
 10
9.34044
 20
6.69862
 30
0.0
 40
0
 41
0
  0
VERTEX
  8
0
 10
8.71544
 20
6.69862
 30
0.0
 40
0
 41
0
  0
VERTEX
  8
0
 10
8.71544
 20
8.17606
 30
0.0
 40
0
 41
0
  0
SEQEND
 8
0
  0
POLYLINE
  8
0
 62
     0
 66
     1
 10
0
 20
0
 30
0.0
 70
     1
 40
0.75
 41
0.75
  0
VERTEX
  8
0
 10
8.71544
 20
8.17606
 30
0.0
 40
0.0104167
 41
0.0104167
  0
VERTEX
  8
0
 10
8.71544
 20
6.69862
 30
0.0
 40
0.0104167
 41
0.0104167
  0
VERTEX
  8
0
 10
9.34044
 20
6.69862
 30
0.0
 40
0.0104167
 41
0.0104167
  0
VERTEX
  8
0
 10
9.34044
 20
8.17606
 30
0.0
 40
0.0104167
 41
0.0104167
  0
VERTEX
  8
0
 10
8.71544
 20
8.17606
 30
0.0
 40
0.0104167
 41
0.0104167
  0
SEQEND
 8
0
  0
POLYLINE
  8
0
 62
     7
 66
     1
 10
0
 20
0
 30
0.0
 70
     1
 40
0
 41
0
  0
VERTEX
  8
0
 10
8.71431
 20
6.69862
 30
0.0
 40
0
 41
0
  0
VERTEX
  8
0
 10
9.33931
 20
6.69862
 30
0.0
 40
0
 41
0
  0
VERTEX
  8
0
 10
9.33931
 20
6.07981
 30
0.0
 40
0
 41
0
  0
VERTEX
  8
0
 10
8.71431
 20
6.07981
 30
0.0
 40
0
 41
0
  0
VERTEX
  8
0
 10
8.71431
 20
6.69862
 30
0.0
 40
0
 41
0
  0
SEQEND
 8
0
  0
POLYLINE
  8
0
 62
     0
 66
     1
 10
0
 20
0
 30
0.0
 70
     1
 40
0.75
 41
0.75
  0
VERTEX
  8
0
 10
8.71431
 20
6.69862
 30
0.0
 40
0.0104167
 41
0.0104167
  0
VERTEX
  8
0
 10
8.71431
 20
6.07981
 30
0.0
 40
0.0104167
 41
0.0104167
  0
VERTEX
  8
0
 10
9.33931
 20
6.07981
 30
0.0
 40
0.0104167
 41
0.0104167
  0
VERTEX
  8
0
 10
9.33931
 20
6.69862
 30
0.0
 40
0.0104167
 41
0.0104167
  0
VERTEX
  8
0
 10
8.71431
 20
6.69862
 30
0.0
 40
0.0104167
 41
0.0104167
  0
SEQEND
 8
0
  0
POLYLINE
  8
0
 62
     7
 66
     1
 10
0
 20
0
 30
0.0
 70
     1
 40
0
 41
0
  0
VERTEX
  8
0
 10
9.56446
 20
8.69824
 30
0.0
 40
0
 41
0
  0
VERTEX
  8
0
 10
9.88362
 20
8.69824
 30
0.0
 40
0
 41
0
  0
VERTEX
  8
0
 10
9.88362
 20
8.22949
 30
0.0
 40
0
 41
0
  0
VERTEX
  8
0
 10
9.56446
 20
8.22949
 30
0.0
 40
0
 41
0
  0
VERTEX
  8
0
 10
9.56446
 20
8.69824
 30
0.0
 40
0
 41
0
  0
SEQEND
 8
0
  0
POLYLINE
  8
0
 62
     0
 66
     1
 10
0
 20
0
 30
0.0
 70
     1
 40
0.75
 41
0.75
  0
VERTEX
  8
0
 10
9.56446
 20
8.69824
 30
0.0
 40
0.0104167
 41
0.0104167
  0
VERTEX
  8
0
 10
9.88362
 20
8.69824
 30
0.0
 40
0.0104167
 41
0.0104167
  0
VERTEX
  8
0
 10
9.88362
 20
8.22949
 30
0.0
 40
0.0104167
 41
0.0104167
  0
VERTEX
  8
0
 10
9.56446
 20
8.22949
 30
0.0
 40
0.0104167
 41
0.0104167
  0
VERTEX
  8
0
 10
9.56446
 20
8.69824
 30
0.0
 40
0.0104167
 41
0.0104167
  0
SEQEND
 8
0
  0
POLYLINE
  8
0
 62
     7
 66
     1
 10
0
 20
0
 30
0.0
 70
     1
 40
0
 41
0
  0
VERTEX
  8
0
 10
9.91732
 20
8.69721
 30
0.0
 40
0
 41
0
  0
VERTEX
  8
0
 10
10.2365
 20
8.69721
 30
0.0
 40
0
 41
0
  0
VERTEX
  8
0
 10
10.2365
 20
8.22846
 30
0.0
 40
0
 41
0
  0
VERTEX
  8
0
 10
9.91732
 20
8.22846
 30
0.0
 40
0
 41
0
  0
VERTEX
  8
0
 10
9.91732
 20
8.69721
 30
0.0
 40
0
 41
0
  0
SEQEND
 8
0
  0
POLYLINE
  8
0
 62
     0
 66
     1
 10
0
 20
0
 30
0.0
 70
     1
 40
0.75
 41
0.75
  0
VERTEX
  8
0
 10
9.91732
 20
8.69721
 30
0.0
 40
0.0104167
 41
0.0104167
  0
VERTEX
  8
0
 10
10.2365
 20
8.69721
 30
0.0
 40
0.0104167
 41
0.0104167
  0
VERTEX
  8
0
 10
10.2365
 20
8.22846
 30
0.0
 40
0.0104167
 41
0.0104167
  0
VERTEX
  8
0
 10
9.91732
 20
8.22846
 30
0.0
 40
0.0104167
 41
0.0104167
  0
VERTEX
  8
0
 10
9.91732
 20
8.69721
 30
0.0
 40
0.0104167
 41
0.0104167
  0
SEQEND
 8
0
  0
POLYLINE
  8
0
 62
     7
 66
     1
 10
0
 20
0
 30
0.0
 70
     1
 40
0
 41
0
  0
VERTEX
  8
0
 10
9.76557
 20
8.46283
 30
0.0
 40
0
 41
0
  0
VERTEX
  8
0
 10
9.76557
 20
8.45643
 30
0.0
 40
0
 41
0
  0
VERTEX
  8
0
 10
9.75489
 20
8.43707
 30
0.0
 40
0
 41
0
  0
VERTEX
  8
0
 10
9.73551
 20
8.42637
 30
0.0
 40
0
 41
0
  0
VERTEX
  8
0
 10
9.72911
 20
8.42637
 30
0.0
 40
0
 41
0
  0
VERTEX
  8
0
 10
9.72265
 20
8.42637
 30
0.0
 40
0
 41
0
  0
VERTEX
  8
0
 10
9.70329
 20
8.43707
 30
0.0
 40
0
 41
0
  0
VERTEX
  8
0
 10
9.69265
 20
8.45643
 30
0.0
 40
0
 41
0
  0
VERTEX
  8
0
 10
9.69265
 20
8.46283
 30
0.0
 40
0
 41
0
  0
VERTEX
  8
0
 10
9.69265
 20
8.46929
 30
0.0
 40
0
 41
0
  0
VERTEX
  8
0
 10
9.70329
 20
8.48867
 30
0.0
 40
0
 41
0
  0
VERTEX
  8
0
 10
9.72265
 20
8.49929
 30
0.0
 40
0
 41
0
  0
VERTEX
  8
0
 10
9.72911
 20
8.49929
 30
0.0
 40
0
 41
0
  0
VERTEX
  8
0
 10
9.73551
 20
8.49929
 30
0.0
 40
0
 41
0
  0
VERTEX
  8
0
 10
9.75489
 20
8.48867
 30
0.0
 40
0
 41
0
  0
VERTEX
  8
0
 10
9.76557
 20
8.46929
 30
0.0
 40
0
 41
0
  0
VERTEX
  8
0
 10
9.76557
 20
8.46283
 30
0.0
 40
0
 41
0
  0
SEQEND
 8
0
  0
POLYLINE
  8
0
 62
     0
 66
     1
 10
0
 20
0
 30
0.0
 70
     1
 40
0.6
 41
0.6
  0
VERTEX
  8
0
 10
9.76557
 20
8.46283
 30
0.0
 40
0.00833333
 41
0.00833333
  0
VERTEX
  8
0
 10
9.76557
 20
8.45643
 30
0.0
 40
0.00833333
 41
0.00833333
  0
VERTEX
  8
0
 10
9.75489
 20
8.43707
 30
0.0
 40
0.00833333
 41
0.00833333
  0
VERTEX
  8
0
 10
9.73551
 20
8.42637
 30
0.0
 40
0.00833333
 41
0.00833333
  0
VERTEX
  8
0
 10
9.72911
 20
8.42637
 30
0.0
 40
0.00833333
 41
0.00833333
  0
VERTEX
  8
0
 10
9.72265
 20
8.42637
 30
0.0
 40
0.00833333
 41
0.00833333
  0
VERTEX
  8
0
 10
9.70329
 20
8.43707
 30
0.0
 40
0.00833333
 41
0.00833333
  0
VERTEX
  8
0
 10
9.69265
 20
8.45643
 30
0.0
 40
0.00833333
 41
0.00833333
  0
VERTEX
  8
0
 10
9.69265
 20
8.46283
 30
0.0
 40
0.00833333
 41
0.00833333
  0
VERTEX
  8
0
 10
9.69265
 20
8.46929
 30
0.0
 40
0.00833333
 41
0.00833333
  0
VERTEX
  8
0
 10
9.70329
 20
8.48867
 30
0.0
 40
0.00833333
 41
0.00833333
  0
VERTEX
  8
0
 10
9.72265
 20
8.49929
 30
0.0
 40
0.00833333
 41
0.00833333
  0
VERTEX
  8
0
 10
9.72911
 20
8.49929
 30
0.0
 40
0.00833333
 41
0.00833333
  0
VERTEX
  8
0
 10
9.73551
 20
8.49929
 30
0.0
 40
0.00833333
 41
0.00833333
  0
VERTEX
  8
0
 10
9.75489
 20
8.48867
 30
0.0
 40
0.00833333
 41
0.00833333
  0
VERTEX
  8
0
 10
9.76557
 20
8.46929
 30
0.0
 40
0.00833333
 41
0.00833333
  0
VERTEX
  8
0
 10
9.76557
 20
8.46283
 30
0.0
 40
0.00833333
 41
0.00833333
  0
SEQEND
 8
0
  0
POLYLINE
  8
0
 62
     7
 66
     1
 10
0
 20
0
 30
0.0
 70
     1
 40
0
 41
0
  0
VERTEX
  8
0
 10
10.1072
 20
8.46283
 30
0.0
 40
0
 41
0
  0
VERTEX
  8
0
 10
10.1072
 20
8.45643
 30
0.0
 40
0
 41
0
  0
VERTEX
  8
0
 10
10.0965
 20
8.43707
 30
0.0
 40
0
 41
0
  0
VERTEX
  8
0
 10
10.0772
 20
8.42637
 30
0.0
 40
0
 41
0
  0
VERTEX
  8
0
 10
10.0707
 20
8.42637
 30
0.0
 40
0
 41
0
  0
VERTEX
  8
0
 10
10.0643
 20
8.42637
 30
0.0
 40
0
 41
0
  0
VERTEX
  8
0
 10
10.0449
 20
8.43707
 30
0.0
 40
0
 41
0
  0
VERTEX
  8
0
 10
10.0343
 20
8.45643
 30
0.0
 40
0
 41
0
  0
VERTEX
  8
0
 10
10.0343
 20
8.46283
 30
0.0
 40
0
 41
0
  0
VERTEX
  8
0
 10
10.0343
 20
8.46929
 30
0.0
 40
0
 41
0
  0
VERTEX
  8
0
 10
10.0449
 20
8.48867
 30
0.0
 40
0
 41
0
  0
VERTEX
  8
0
 10
10.0643
 20
8.49929
 30
0.0
 40
0
 41
0
  0
VERTEX
  8
0
 10
10.0707
 20
8.49929
 30
0.0
 40
0
 41
0
  0
VERTEX
  8
0
 10
10.0772
 20
8.49929
 30
0.0
 40
0
 41
0
  0
VERTEX
  8
0
 10
10.0965
 20
8.48867
 30
0.0
 40
0
 41
0
  0
VERTEX
  8
0
 10
10.1072
 20
8.46929
 30
0.0
 40
0
 41
0
  0
VERTEX
  8
0
 10
10.1072
 20
8.46283
 30
0.0
 40
0
 41
0
  0
SEQEND
 8
0
  0
POLYLINE
  8
0
 62
     0
 66
     1
 10
0
 20
0
 30
0.0
 70
     1
 40
0.6
 41
0.6
  0
VERTEX
  8
0
 10
10.1072
 20
8.46283
 30
0.0
 40
0.00833333
 41
0.00833333
  0
VERTEX
  8
0
 10
10.1072
 20
8.45643
 30
0.0
 40
0.00833333
 41
0.00833333
  0
VERTEX
  8
0
 10
10.0965
 20
8.43707
 30
0.0
 40
0.00833333
 41
0.00833333
  0
VERTEX
  8
0
 10
10.0772
 20
8.42637
 30
0.0
 40
0.00833333
 41
0.00833333
  0
VERTEX
  8
0
 10
10.0707
 20
8.42637
 30
0.0
 40
0.00833333
 41
0.00833333
  0
VERTEX
  8
0
 10
10.0643
 20
8.42637
 30
0.0
 40
0.00833333
 41
0.00833333
  0
VERTEX
  8
0
 10
10.0449
 20
8.43707
 30
0.0
 40
0.00833333
 41
0.00833333
  0
VERTEX
  8
0
 10
10.0343
 20
8.45643
 30
0.0
 40
0.00833333
 41
0.00833333
  0
VERTEX
  8
0
 10
10.0343
 20
8.46283
 30
0.0
 40
0.00833333
 41
0.00833333
  0
VERTEX
  8
0
 10
10.0343
 20
8.46929
 30
0.0
 40
0.00833333
 41
0.00833333
  0
VERTEX
  8
0
 10
10.0449
 20
8.48867
 30
0.0
 40
0.00833333
 41
0.00833333
  0
VERTEX
  8
0
 10
10.0643
 20
8.49929
 30
0.0
 40
0.00833333
 41
0.00833333
  0
VERTEX
  8
0
 10
10.0707
 20
8.49929
 30
0.0
 40
0.00833333
 41
0.00833333
  0
VERTEX
  8
0
 10
10.0772
 20
8.49929
 30
0.0
 40
0.00833333
 41
0.00833333
  0
VERTEX
  8
0
 10
10.0965
 20
8.48867
 30
0.0
 40
0.00833333
 41
0.00833333
  0
VERTEX
  8
0
 10
10.1072
 20
8.46929
 30
0.0
 40
0.00833333
 41
0.00833333
  0
VERTEX
  8
0
 10
10.1072
 20
8.46283
 30
0.0
 40
0.00833333
 41
0.00833333
  0
SEQEND
 8
0
  0
POLYLINE
  8
0
 62
     7
 66
     1
 10
0
 20
0
 30
0.0
 70
     1
 40
0
 41
0
  0
VERTEX
  8
0
 10
9.74994
 20
8.46283
 30
0.0
 40
0
 41
0
  0
VERTEX
  8
0
 10
9.74994
 20
8.45921
 30
0.0
 40
0
 41
0
  0
VERTEX
  8
0
 10
9.74382
 20
8.44814
 30
0.0
 40
0
 41
0
  0
VERTEX
  8
0
 10
9.73275
 20
8.442
 30
0.0
 40
0
 41
0
  0
VERTEX
  8
0
 10
9.72911
 20
8.442
 30
0.0
 40
0
 41
0
  0
VERTEX
  8
0
 10
9.72542
 20
8.442
 30
0.0
 40
0
 41
0
  0
VERTEX
  8
0
 10
9.71436
 20
8.44814
 30
0.0
 40
0
 41
0
  0
VERTEX
  8
0
 10
9.70828
 20
8.45921
 30
0.0
 40
0
 41
0
  0
VERTEX
  8
0
 10
9.70828
 20
8.46283
 30
0.0
 40
0
 41
0
  0
VERTEX
  8
0
 10
9.70828
 20
8.46653
 30
0.0
 40
0
 41
0
  0
VERTEX
  8
0
 10
9.71436
 20
8.4776
 30
0.0
 40
0
 41
0
  0
VERTEX
  8
0
 10
9.72542
 20
8.48367
 30
0.0
 40
0
 41
0
  0
VERTEX
  8
0
 10
9.72911
 20
8.48367
 30
0.0
 40
0
 41
0
  0
VERTEX
  8
0
 10
9.73275
 20
8.48367
 30
0.0
 40
0
 41
0
  0
VERTEX
  8
0
 10
9.74382
 20
8.4776
 30
0.0
 40
0
 41
0
  0
VERTEX
  8
0
 10
9.74994
 20
8.46653
 30
0.0
 40
0
 41
0
  0
VERTEX
  8
0
 10
9.74994
 20
8.46283
 30
0.0
 40
0
 41
0
  0
SEQEND
 8
0
  0
POLYLINE
  8
0
 62
     0
 66
     1
 10
0
 20
0
 30
0.0
 70
     1
 40
0.6
 41
0.6
  0
VERTEX
  8
0
 10
9.74994
 20
8.46283
 30
0.0
 40
0.00833333
 41
0.00833333
  0
VERTEX
  8
0
 10
9.74994
 20
8.45921
 30
0.0
 40
0.00833333
 41
0.00833333
  0
VERTEX
  8
0
 10
9.74382
 20
8.44814
 30
0.0
 40
0.00833333
 41
0.00833333
  0
VERTEX
  8
0
 10
9.73275
 20
8.442
 30
0.0
 40
0.00833333
 41
0.00833333
  0
VERTEX
  8
0
 10
9.72911
 20
8.442
 30
0.0
 40
0.00833333
 41
0.00833333
  0
VERTEX
  8
0
 10
9.72542
 20
8.442
 30
0.0
 40
0.00833333
 41
0.00833333
  0
VERTEX
  8
0
 10
9.71436
 20
8.44814
 30
0.0
 40
0.00833333
 41
0.00833333
  0
VERTEX
  8
0
 10
9.70828
 20
8.45921
 30
0.0
 40
0.00833333
 41
0.00833333
  0
VERTEX
  8
0
 10
9.70828
 20
8.46283
 30
0.0
 40
0.00833333
 41
0.00833333
  0
VERTEX
  8
0
 10
9.70828
 20
8.46653
 30
0.0
 40
0.00833333
 41
0.00833333
  0
VERTEX
  8
0
 10
9.71436
 20
8.4776
 30
0.0
 40
0.00833333
 41
0.00833333
  0
VERTEX
  8
0
 10
9.72542
 20
8.48367
 30
0.0
 40
0.00833333
 41
0.00833333
  0
VERTEX
  8
0
 10
9.72911
 20
8.48367
 30
0.0
 40
0.00833333
 41
0.00833333
  0
VERTEX
  8
0
 10
9.73275
 20
8.48367
 30
0.0
 40
0.00833333
 41
0.00833333
  0
VERTEX
  8
0
 10
9.74382
 20
8.4776
 30
0.0
 40
0.00833333
 41
0.00833333
  0
VERTEX
  8
0
 10
9.74994
 20
8.46653
 30
0.0
 40
0.00833333
 41
0.00833333
  0
VERTEX
  8
0
 10
9.74994
 20
8.46283
 30
0.0
 40
0.00833333
 41
0.00833333
  0
SEQEND
 8
0
  0
POLYLINE
  8
0
 62
     7
 66
     1
 10
0
 20
0
 30
0.0
 70
     1
 40
0
 41
0
  0
VERTEX
  8
0
 10
10.0916
 20
8.46283
 30
0.0
 40
0
 41
0
  0
VERTEX
  8
0
 10
10.0916
 20
8.45921
 30
0.0
 40
0
 41
0
  0
VERTEX
  8
0
 10
10.0854
 20
8.44814
 30
0.0
 40
0
 41
0
  0
VERTEX
  8
0
 10
10.0744
 20
8.442
 30
0.0
 40
0
 41
0
  0
VERTEX
  8
0
 10
10.0707
 20
8.442
 30
0.0
 40
0
 41
0
  0
VERTEX
  8
0
 10
10.0671
 20
8.442
 30
0.0
 40
0
 41
0
  0
VERTEX
  8
0
 10
10.056
 20
8.44814
 30
0.0
 40
0
 41
0
  0
VERTEX
  8
0
 10
10.0499
 20
8.45921
 30
0.0
 40
0
 41
0
  0
VERTEX
  8
0
 10
10.0499
 20
8.46283
 30
0.0
 40
0
 41
0
  0
VERTEX
  8
0
 10
10.0499
 20
8.46653
 30
0.0
 40
0
 41
0
  0
VERTEX
  8
0
 10
10.056
 20
8.4776
 30
0.0
 40
0
 41
0
  0
VERTEX
  8
0
 10
10.0671
 20
8.48367
 30
0.0
 40
0
 41
0
  0
VERTEX
  8
0
 10
10.0707
 20
8.48367
 30
0.0
 40
0
 41
0
  0
VERTEX
  8
0
 10
10.0744
 20
8.48367
 30
0.0
 40
0
 41
0
  0
VERTEX
  8
0
 10
10.0854
 20
8.4776
 30
0.0
 40
0
 41
0
  0
VERTEX
  8
0
 10
10.0916
 20
8.46653
 30
0.0
 40
0
 41
0
  0
VERTEX
  8
0
 10
10.0916
 20
8.46283
 30
0.0
 40
0
 41
0
  0
SEQEND
 8
0
  0
POLYLINE
  8
0
 62
     0
 66
     1
 10
0
 20
0
 30
0.0
 70
     1
 40
0.6
 41
0.6
  0
VERTEX
  8
0
 10
10.0916
 20
8.46283
 30
0.0
 40
0.00833333
 41
0.00833333
  0
VERTEX
  8
0
 10
10.0916
 20
8.45921
 30
0.0
 40
0.00833333
 41
0.00833333
  0
VERTEX
  8
0
 10
10.0854
 20
8.44814
 30
0.0
 40
0.00833333
 41
0.00833333
  0
VERTEX
  8
0
 10
10.0744
 20
8.442
 30
0.0
 40
0.00833333
 41
0.00833333
  0
VERTEX
  8
0
 10
10.0707
 20
8.442
 30
0.0
 40
0.00833333
 41
0.00833333
  0
VERTEX
  8
0
 10
10.0671
 20
8.442
 30
0.0
 40
0.00833333
 41
0.00833333
  0
VERTEX
  8
0
 10
10.056
 20
8.44814
 30
0.0
 40
0.00833333
 41
0.00833333
  0
VERTEX
  8
0
 10
10.0499
 20
8.45921
 30
0.0
 40
0.00833333
 41
0.00833333
  0
VERTEX
  8
0
 10
10.0499
 20
8.46283
 30
0.0
 40
0.00833333
 41
0.00833333
  0
VERTEX
  8
0
 10
10.0499
 20
8.46653
 30
0.0
 40
0.00833333
 41
0.00833333
  0
VERTEX
  8
0
 10
10.056
 20
8.4776
 30
0.0
 40
0.00833333
 41
0.00833333
  0
VERTEX
  8
0
 10
10.0671
 20
8.48367
 30
0.0
 40
0.00833333
 41
0.00833333
  0
VERTEX
  8
0
 10
10.0707
 20
8.48367
 30
0.0
 40
0.00833333
 41
0.00833333
  0
VERTEX
  8
0
 10
10.0744
 20
8.48367
 30
0.0
 40
0.00833333
 41
0.00833333
  0
VERTEX
  8
0
 10
10.0854
 20
8.4776
 30
0.0
 40
0.00833333
 41
0.00833333
  0
VERTEX
  8
0
 10
10.0916
 20
8.46653
 30
0.0
 40
0.00833333
 41
0.00833333
  0
VERTEX
  8
0
 10
10.0916
 20
8.46283
 30
0.0
 40
0.00833333
 41
0.00833333
  0
SEQEND
 8
0
  0
POLYLINE
  8
0
 62
     7
 66
     1
 10
0
 20
0
 30
0.0
 70
     1
 40
0
 41
0
  0
VERTEX
  8
0
 10
9.86686
 20
8.75032
 30
0.0
 40
0
 41
0
  0
VERTEX
  8
0
 10
9.92936
 20
8.75032
 30
0.0
 40
0
 41
0
  0
VERTEX
  8
0
 10
9.92936
 20
8.60449
 30
0.0
 40
0
 41
0
  0
VERTEX
  8
0
 10
9.86686
 20
8.60449
 30
0.0
 40
0
 41
0
  0
VERTEX
  8
0
 10
9.86686
 20
8.75032
 30
0.0
 40
0
 41
0
  0
SEQEND
 8
0
  0
POLYLINE
  8
0
 62
     0
 66
     1
 10
0
 20
0
 30
0.0
 70
     1
 40
0.75
 41
0.75
  0
VERTEX
  8
0
 10
9.86686
 20
8.75032
 30
0.0
 40
0.0104167
 41
0.0104167
  0
VERTEX
  8
0
 10
9.92936
 20
8.75032
 30
0.0
 40
0.0104167
 41
0.0104167
  0
VERTEX
  8
0
 10
9.92936
 20
8.60449
 30
0.0
 40
0.0104167
 41
0.0104167
  0
VERTEX
  8
0
 10
9.86686
 20
8.60449
 30
0.0
 40
0.0104167
 41
0.0104167
  0
VERTEX
  8
0
 10
9.86686
 20
8.75032
 30
0.0
 40
0.0104167
 41
0.0104167
  0
SEQEND
 8
0
  0
POLYLINE
  8
0
 62
     7
 66
     1
 10
0
 20
0
 30
0.0
 70
     1
 40
0
 41
0
  0
VERTEX
  8
0
 10
11.3914
 20
8.79975
 30
0.0
 40
0
 41
0
  0
VERTEX
  8
0
 10
12.1117
 20
8.79975
 30
0.0
 40
0
 41
0
  0
VERTEX
  8
0
 10
12.1117
 20
8.17475
 30
0.0
 40
0
 41
0
  0
VERTEX
  8
0
 10
11.3914
 20
8.17475
 30
0.0
 40
0
 41
0
  0
VERTEX
  8
0
 10
11.3914
 20
8.79975
 30
0.0
 40
0
 41
0
  0
SEQEND
 8
0
  0
POLYLINE
  8
0
 62
     0
 66
     1
 10
0
 20
0
 30
0.0
 70
     1
 40
0.75
 41
0.75
  0
VERTEX
  8
0
 10
11.3914
 20
8.79975
 30
0.0
 40
0.0104167
 41
0.0104167
  0
VERTEX
  8
0
 10
12.1117
 20
8.79975
 30
0.0
 40
0.0104167
 41
0.0104167
  0
VERTEX
  8
0
 10
12.1117
 20
8.17475
 30
0.0
 40
0.0104167
 41
0.0104167
  0
VERTEX
  8
0
 10
11.3914
 20
8.17475
 30
0.0
 40
0.0104167
 41
0.0104167
  0
VERTEX
  8
0
 10
11.3914
 20
8.79975
 30
0.0
 40
0.0104167
 41
0.0104167
  0
SEQEND
 8
0
  0
POLYLINE
  8
0
 62
     7
 66
     1
 10
0
 20
0
 30
0.0
 70
     1
 40
0
 41
0
  0
VERTEX
  8
0
 10
8.73628
 20
8.16004
 30
0.0
 40
0
 41
0
  0
VERTEX
  8
0
 10
9.31961
 20
8.16004
 30
0.0
 40
0
 41
0
  0
VERTEX
  8
0
 10
9.31961
 20
7.57671
 30
0.0
 40
0
 41
0
  0
VERTEX
  8
0
 10
8.73628
 20
7.57671
 30
0.0
 40
0
 41
0
  0
VERTEX
  8
0
 10
8.73628
 20
8.16004
 30
0.0
 40
0
 41
0
  0
SEQEND
 8
0
  0
POLYLINE
  8
0
 62
     0
 66
     1
 10
0
 20
0
 30
0.0
 70
     1
 40
0.75
 41
0.75
  0
VERTEX
  8
0
 10
8.73628
 20
8.16004
 30
0.0
 40
0.0104167
 41
0.0104167
  0
VERTEX
  8
0
 10
8.73628
 20
7.57671
 30
0.0
 40
0.0104167
 41
0.0104167
  0
VERTEX
  8
0
 10
9.31961
 20
7.57671
 30
0.0
 40
0.0104167
 41
0.0104167
  0
VERTEX
  8
0
 10
9.31961
 20
8.16004
 30
0.0
 40
0.0104167
 41
0.0104167
  0
VERTEX
  8
0
 10
8.73628
 20
8.16004
 30
0.0
 40
0.0104167
 41
0.0104167
  0
SEQEND
 8
0
  0
POLYLINE
  8
0
 62
     7
 66
     1
 10
0
 20
0
 30
0.0
 70
     1
 40
0
 41
0
  0
VERTEX
  8
0
 10
8.88211
 20
7.80588
 30
0.0
 40
0
 41
0
  0
VERTEX
  8
0
 10
8.89019
 20
7.80588
 30
0.0
 40
0
 41
0
  0
VERTEX
  8
0
 10
8.9145
 20
7.79937
 30
0.0
 40
0
 41
0
  0
VERTEX
  8
0
 10
8.94103
 20
7.78147
 30
0.0
 40
0
 41
0
  0
VERTEX
  8
0
 10
8.95888
 20
7.75499
 30
0.0
 40
0
 41
0
  0
VERTEX
  8
0
 10
8.96544
 20
7.73068
 30
0.0
 40
0
 41
0
  0
VERTEX
  8
0
 10
8.96544
 20
7.72254
 30
0.0
 40
0
 41
0
  0
VERTEX
  8
0
 10
8.96544
 20
7.71446
 30
0.0
 40
0
 41
0
  0
VERTEX
  8
0
 10
8.95888
 20
7.69015
 30
0.0
 40
0
 41
0
  0
VERTEX
  8
0
 10
8.94103
 20
7.66363
 30
0.0
 40
0
 41
0
  0
VERTEX
  8
0
 10
8.9145
 20
7.64578
 30
0.0
 40
0
 41
0
  0
VERTEX
  8
0
 10
8.89019
 20
7.63921
 30
0.0
 40
0
 41
0
  0
VERTEX
  8
0
 10
8.88211
 20
7.63921
 30
0.0
 40
0
 41
0
  0
VERTEX
  8
0
 10
8.87397
 20
7.63921
 30
0.0
 40
0
 41
0
  0
VERTEX
  8
0
 10
8.84967
 20
7.64578
 30
0.0
 40
0
 41
0
  0
VERTEX
  8
0
 10
8.82319
 20
7.66363
 30
0.0
 40
0
 41
0
  0
VERTEX
  8
0
 10
8.80528
 20
7.69015
 30
0.0
 40
0
 41
0
  0
VERTEX
  8
0
 10
8.79878
 20
7.71446
 30
0.0
 40
0
 41
0
  0
VERTEX
  8
0
 10
8.79878
 20
7.72254
 30
0.0
 40
0
 41
0
  0
VERTEX
  8
0
 10
8.79878
 20
7.73068
 30
0.0
 40
0
 41
0
  0
VERTEX
  8
0
 10
8.80528
 20
7.75499
 30
0.0
 40
0
 41
0
  0
VERTEX
  8
0
 10
8.82319
 20
7.78147
 30
0.0
 40
0
 41
0
  0
VERTEX
  8
0
 10
8.84967
 20
7.79937
 30
0.0
 40
0
 41
0
  0
VERTEX
  8
0
 10
8.87397
 20
7.80588
 30
0.0
 40
0
 41
0
  0
VERTEX
  8
0
 10
8.88211
 20
7.80588
 30
0.0
 40
0
 41
0
  0
SEQEND
 8
0
  0
POLYLINE
  8
0
 62
     0
 66
     1
 10
0
 20
0
 30
0.0
 70
     1
 40
0.75
 41
0.75
  0
VERTEX
  8
0
 10
8.88211
 20
7.80588
 30
0.0
 40
0.0104167
 41
0.0104167
  0
VERTEX
  8
0
 10
8.89019
 20
7.80588
 30
0.0
 40
0.0104167
 41
0.0104167
  0
VERTEX
  8
0
 10
8.9145
 20
7.79937
 30
0.0
 40
0.0104167
 41
0.0104167
  0
VERTEX
  8
0
 10
8.94103
 20
7.78147
 30
0.0
 40
0.0104167
 41
0.0104167
  0
VERTEX
  8
0
 10
8.95888
 20
7.75499
 30
0.0
 40
0.0104167
 41
0.0104167
  0
VERTEX
  8
0
 10
8.96544
 20
7.73068
 30
0.0
 40
0.0104167
 41
0.0104167
  0
VERTEX
  8
0
 10
8.96544
 20
7.72254
 30
0.0
 40
0.0104167
 41
0.0104167
  0
VERTEX
  8
0
 10
8.96544
 20
7.71446
 30
0.0
 40
0.0104167
 41
0.0104167
  0
VERTEX
  8
0
 10
8.95888
 20
7.69015
 30
0.0
 40
0.0104167
 41
0.0104167
  0
VERTEX
  8
0
 10
8.94103
 20
7.66363
 30
0.0
 40
0.0104167
 41
0.0104167
  0
VERTEX
  8
0
 10
8.9145
 20
7.64578
 30
0.0
 40
0.0104167
 41
0.0104167
  0
VERTEX
  8
0
 10
8.89019
 20
7.63921
 30
0.0
 40
0.0104167
 41
0.0104167
  0
VERTEX
  8
0
 10
8.88211
 20
7.63921
 30
0.0
 40
0.0104167
 41
0.0104167
  0
VERTEX
  8
0
 10
8.87397
 20
7.63921
 30
0.0
 40
0.0104167
 41
0.0104167
  0
VERTEX
  8
0
 10
8.84967
 20
7.64578
 30
0.0
 40
0.0104167
 41
0.0104167
  0
VERTEX
  8
0
 10
8.82319
 20
7.66363
 30
0.0
 40
0.0104167
 41
0.0104167
  0
VERTEX
  8
0
 10
8.80528
 20
7.69015
 30
0.0
 40
0.0104167
 41
0.0104167
  0
VERTEX
  8
0
 10
8.79878
 20
7.71446
 30
0.0
 40
0.0104167
 41
0.0104167
  0
VERTEX
  8
0
 10
8.79878
 20
7.72254
 30
0.0
 40
0.0104167
 41
0.0104167
  0
VERTEX
  8
0
 10
8.79878
 20
7.73068
 30
0.0
 40
0.0104167
 41
0.0104167
  0
VERTEX
  8
0
 10
8.80528
 20
7.75499
 30
0.0
 40
0.0104167
 41
0.0104167
  0
VERTEX
  8
0
 10
8.82319
 20
7.78147
 30
0.0
 40
0.0104167
 41
0.0104167
  0
VERTEX
  8
0
 10
8.84967
 20
7.79937
 30
0.0
 40
0.0104167
 41
0.0104167
  0
VERTEX
  8
0
 10
8.87397
 20
7.80588
 30
0.0
 40
0.0104167
 41
0.0104167
  0
VERTEX
  8
0
 10
8.88211
 20
7.80588
 30
0.0
 40
0.0104167
 41
0.0104167
  0
SEQEND
 8
0
  0
POLYLINE
  8
0
 62
     7
 66
     1
 10
0
 20
0
 30
0.0
 70
     1
 40
0
 41
0
  0
VERTEX
  8
0
 10
8.88211
 20
8.09754
 30
0.0
 40
0
 41
0
  0
VERTEX
  8
0
 10
8.89019
 20
8.09754
 30
0.0
 40
0
 41
0
  0
VERTEX
  8
0
 10
8.9145
 20
8.09104
 30
0.0
 40
0
 41
0
  0
VERTEX
  8
0
 10
8.94103
 20
8.07314
 30
0.0
 40
0
 41
0
  0
VERTEX
  8
0
 10
8.95888
 20
8.04665
 30
0.0
 40
0
 41
0
  0
VERTEX
  8
0
 10
8.96544
 20
8.02235
 30
0.0
 40
0
 41
0
  0
VERTEX
  8
0
 10
8.96544
 20
8.01421
 30
0.0
 40
0
 41
0
  0
VERTEX
  8
0
 10
8.96544
 20
8.00612
 30
0.0
 40
0
 41
0
  0
VERTEX
  8
0
 10
8.95888
 20
7.98182
 30
0.0
 40
0
 41
0
  0
VERTEX
  8
0
 10
8.94103
 20
7.95529
 30
0.0
 40
0
 41
0
  0
VERTEX
  8
0
 10
8.9145
 20
7.93744
 30
0.0
 40
0
 41
0
  0
VERTEX
  8
0
 10
8.89019
 20
7.93088
 30
0.0
 40
0
 41
0
  0
VERTEX
  8
0
 10
8.88211
 20
7.93088
 30
0.0
 40
0
 41
0
  0
VERTEX
  8
0
 10
8.87397
 20
7.93088
 30
0.0
 40
0
 41
0
  0
VERTEX
  8
0
 10
8.84967
 20
7.93744
 30
0.0
 40
0
 41
0
  0
VERTEX
  8
0
 10
8.82319
 20
7.95529
 30
0.0
 40
0
 41
0
  0
VERTEX
  8
0
 10
8.80528
 20
7.98182
 30
0.0
 40
0
 41
0
  0
VERTEX
  8
0
 10
8.79878
 20
8.00612
 30
0.0
 40
0
 41
0
  0
VERTEX
  8
0
 10
8.79878
 20
8.01421
 30
0.0
 40
0
 41
0
  0
VERTEX
  8
0
 10
8.79878
 20
8.02235
 30
0.0
 40
0
 41
0
  0
VERTEX
  8
0
 10
8.80528
 20
8.04665
 30
0.0
 40
0
 41
0
  0
VERTEX
  8
0
 10
8.82319
 20
8.07314
 30
0.0
 40
0
 41
0
  0
VERTEX
  8
0
 10
8.84967
 20
8.09104
 30
0.0
 40
0
 41
0
  0
VERTEX
  8
0
 10
8.87397
 20
8.09754
 30
0.0
 40
0
 41
0
  0
VERTEX
  8
0
 10
8.88211
 20
8.09754
 30
0.0
 40
0
 41
0
  0
SEQEND
 8
0
  0
POLYLINE
  8
0
 62
     0
 66
     1
 10
0
 20
0
 30
0.0
 70
     1
 40
0.75
 41
0.75
  0
VERTEX
  8
0
 10
8.88211
 20
8.09754
 30
0.0
 40
0.0104167
 41
0.0104167
  0
VERTEX
  8
0
 10
8.89019
 20
8.09754
 30
0.0
 40
0.0104167
 41
0.0104167
  0
VERTEX
  8
0
 10
8.9145
 20
8.09104
 30
0.0
 40
0.0104167
 41
0.0104167
  0
VERTEX
  8
0
 10
8.94103
 20
8.07314
 30
0.0
 40
0.0104167
 41
0.0104167
  0
VERTEX
  8
0
 10
8.95888
 20
8.04665
 30
0.0
 40
0.0104167
 41
0.0104167
  0
VERTEX
  8
0
 10
8.96544
 20
8.02235
 30
0.0
 40
0.0104167
 41
0.0104167
  0
VERTEX
  8
0
 10
8.96544
 20
8.01421
 30
0.0
 40
0.0104167
 41
0.0104167
  0
VERTEX
  8
0
 10
8.96544
 20
8.00612
 30
0.0
 40
0.0104167
 41
0.0104167
  0
VERTEX
  8
0
 10
8.95888
 20
7.98182
 30
0.0
 40
0.0104167
 41
0.0104167
  0
VERTEX
  8
0
 10
8.94103
 20
7.95529
 30
0.0
 40
0.0104167
 41
0.0104167
  0
VERTEX
  8
0
 10
8.9145
 20
7.93744
 30
0.0
 40
0.0104167
 41
0.0104167
  0
VERTEX
  8
0
 10
8.89019
 20
7.93088
 30
0.0
 40
0.0104167
 41
0.0104167
  0
VERTEX
  8
0
 10
8.88211
 20
7.93088
 30
0.0
 40
0.0104167
 41
0.0104167
  0
VERTEX
  8
0
 10
8.87397
 20
7.93088
 30
0.0
 40
0.0104167
 41
0.0104167
  0
VERTEX
  8
0
 10
8.84967
 20
7.93744
 30
0.0
 40
0.0104167
 41
0.0104167
  0
VERTEX
  8
0
 10
8.82319
 20
7.95529
 30
0.0
 40
0.0104167
 41
0.0104167
  0
VERTEX
  8
0
 10
8.80528
 20
7.98182
 30
0.0
 40
0.0104167
 41
0.0104167
  0
VERTEX
  8
0
 10
8.79878
 20
8.00612
 30
0.0
 40
0.0104167
 41
0.0104167
  0
VERTEX
  8
0
 10
8.79878
 20
8.01421
 30
0.0
 40
0.0104167
 41
0.0104167
  0
VERTEX
  8
0
 10
8.79878
 20
8.02235
 30
0.0
 40
0.0104167
 41
0.0104167
  0
VERTEX
  8
0
 10
8.80528
 20
8.04665
 30
0.0
 40
0.0104167
 41
0.0104167
  0
VERTEX
  8
0
 10
8.82319
 20
8.07314
 30
0.0
 40
0.0104167
 41
0.0104167
  0
VERTEX
  8
0
 10
8.84967
 20
8.09104
 30
0.0
 40
0.0104167
 41
0.0104167
  0
VERTEX
  8
0
 10
8.87397
 20
8.09754
 30
0.0
 40
0.0104167
 41
0.0104167
  0
VERTEX
  8
0
 10
8.88211
 20
8.09754
 30
0.0
 40
0.0104167
 41
0.0104167
  0
SEQEND
 8
0
  0
POLYLINE
  8
0
 62
     7
 66
     1
 10
0
 20
0
 30
0.0
 70
     1
 40
0
 41
0
  0
VERTEX
  8
0
 10
9.17378
 20
7.80588
 30
0.0
 40
0
 41
0
  0
VERTEX
  8
0
 10
9.18186
 20
7.80588
 30
0.0
 40
0
 41
0
  0
VERTEX
  8
0
 10
9.20617
 20
7.79937
 30
0.0
 40
0
 41
0
  0
VERTEX
  8
0
 10
9.23269
 20
7.78147
 30
0.0
 40
0
 41
0
  0
VERTEX
  8
0
 10
9.25054
 20
7.75499
 30
0.0
 40
0
 41
0
  0
VERTEX
  8
0
 10
9.25711
 20
7.73068
 30
0.0
 40
0
 41
0
  0
VERTEX
  8
0
 10
9.25711
 20
7.72254
 30
0.0
 40
0
 41
0
  0
VERTEX
  8
0
 10
9.25711
 20
7.71446
 30
0.0
 40
0
 41
0
  0
VERTEX
  8
0
 10
9.25054
 20
7.69015
 30
0.0
 40
0
 41
0
  0
VERTEX
  8
0
 10
9.23269
 20
7.66363
 30
0.0
 40
0
 41
0
  0
VERTEX
  8
0
 10
9.20617
 20
7.64578
 30
0.0
 40
0
 41
0
  0
VERTEX
  8
0
 10
9.18186
 20
7.63921
 30
0.0
 40
0
 41
0
  0
VERTEX
  8
0
 10
9.17378
 20
7.63921
 30
0.0
 40
0
 41
0
  0
VERTEX
  8
0
 10
9.16564
 20
7.63921
 30
0.0
 40
0
 41
0
  0
VERTEX
  8
0
 10
9.14133
 20
7.64578
 30
0.0
 40
0
 41
0
  0
VERTEX
  8
0
 10
9.11486
 20
7.66363
 30
0.0
 40
0
 41
0
  0
VERTEX
  8
0
 10
9.09694
 20
7.69015
 30
0.0
 40
0
 41
0
  0
VERTEX
  8
0
 10
9.09044
 20
7.71446
 30
0.0
 40
0
 41
0
  0
VERTEX
  8
0
 10
9.09044
 20
7.72254
 30
0.0
 40
0
 41
0
  0
VERTEX
  8
0
 10
9.09044
 20
7.73068
 30
0.0
 40
0
 41
0
  0
VERTEX
  8
0
 10
9.09694
 20
7.75499
 30
0.0
 40
0
 41
0
  0
VERTEX
  8
0
 10
9.11486
 20
7.78147
 30
0.0
 40
0
 41
0
  0
VERTEX
  8
0
 10
9.14133
 20
7.79937
 30
0.0
 40
0
 41
0
  0
VERTEX
  8
0
 10
9.16564
 20
7.80588
 30
0.0
 40
0
 41
0
  0
VERTEX
  8
0
 10
9.17378
 20
7.80588
 30
0.0
 40
0
 41
0
  0
SEQEND
 8
0
  0
POLYLINE
  8
0
 62
     0
 66
     1
 10
0
 20
0
 30
0.0
 70
     1
 40
0.75
 41
0.75
  0
VERTEX
  8
0
 10
9.17378
 20
7.80588
 30
0.0
 40
0.0104167
 41
0.0104167
  0
VERTEX
  8
0
 10
9.18186
 20
7.80588
 30
0.0
 40
0.0104167
 41
0.0104167
  0
VERTEX
  8
0
 10
9.20617
 20
7.79937
 30
0.0
 40
0.0104167
 41
0.0104167
  0
VERTEX
  8
0
 10
9.23269
 20
7.78147
 30
0.0
 40
0.0104167
 41
0.0104167
  0
VERTEX
  8
0
 10
9.25054
 20
7.75499
 30
0.0
 40
0.0104167
 41
0.0104167
  0
VERTEX
  8
0
 10
9.25711
 20
7.73068
 30
0.0
 40
0.0104167
 41
0.0104167
  0
VERTEX
  8
0
 10
9.25711
 20
7.72254
 30
0.0
 40
0.0104167
 41
0.0104167
  0
VERTEX
  8
0
 10
9.25711
 20
7.71446
 30
0.0
 40
0.0104167
 41
0.0104167
  0
VERTEX
  8
0
 10
9.25054
 20
7.69015
 30
0.0
 40
0.0104167
 41
0.0104167
  0
VERTEX
  8
0
 10
9.23269
 20
7.66363
 30
0.0
 40
0.0104167
 41
0.0104167
  0
VERTEX
  8
0
 10
9.20617
 20
7.64578
 30
0.0
 40
0.0104167
 41
0.0104167
  0
VERTEX
  8
0
 10
9.18186
 20
7.63921
 30
0.0
 40
0.0104167
 41
0.0104167
  0
VERTEX
  8
0
 10
9.17378
 20
7.63921
 30
0.0
 40
0.0104167
 41
0.0104167
  0
VERTEX
  8
0
 10
9.16564
 20
7.63921
 30
0.0
 40
0.0104167
 41
0.0104167
  0
VERTEX
  8
0
 10
9.14133
 20
7.64578
 30
0.0
 40
0.0104167
 41
0.0104167
  0
VERTEX
  8
0
 10
9.11486
 20
7.66363
 30
0.0
 40
0.0104167
 41
0.0104167
  0
VERTEX
  8
0
 10
9.09694
 20
7.69015
 30
0.0
 40
0.0104167
 41
0.0104167
  0
VERTEX
  8
0
 10
9.09044
 20
7.71446
 30
0.0
 40
0.0104167
 41
0.0104167
  0
VERTEX
  8
0
 10
9.09044
 20
7.72254
 30
0.0
 40
0.0104167
 41
0.0104167
  0
VERTEX
  8
0
 10
9.09044
 20
7.73068
 30
0.0
 40
0.0104167
 41
0.0104167
  0
VERTEX
  8
0
 10
9.09694
 20
7.75499
 30
0.0
 40
0.0104167
 41
0.0104167
  0
VERTEX
  8
0
 10
9.11486
 20
7.78147
 30
0.0
 40
0.0104167
 41
0.0104167
  0
VERTEX
  8
0
 10
9.14133
 20
7.79937
 30
0.0
 40
0.0104167
 41
0.0104167
  0
VERTEX
  8
0
 10
9.16564
 20
7.80588
 30
0.0
 40
0.0104167
 41
0.0104167
  0
VERTEX
  8
0
 10
9.17378
 20
7.80588
 30
0.0
 40
0.0104167
 41
0.0104167
  0
SEQEND
 8
0
  0
POLYLINE
  8
0
 62
     7
 66
     1
 10
0
 20
0
 30
0.0
 70
     1
 40
0
 41
0
  0
VERTEX
  8
0
 10
9.17378
 20
8.09754
 30
0.0
 40
0
 41
0
  0
VERTEX
  8
0
 10
9.18186
 20
8.09754
 30
0.0
 40
0
 41
0
  0
VERTEX
  8
0
 10
9.20617
 20
8.09104
 30
0.0
 40
0
 41
0
  0
VERTEX
  8
0
 10
9.23269
 20
8.07314
 30
0.0
 40
0
 41
0
  0
VERTEX
  8
0
 10
9.25054
 20
8.04665
 30
0.0
 40
0
 41
0
  0
VERTEX
  8
0
 10
9.25711
 20
8.02235
 30
0.0
 40
0
 41
0
  0
VERTEX
  8
0
 10
9.25711
 20
8.01421
 30
0.0
 40
0
 41
0
  0
VERTEX
  8
0
 10
9.25711
 20
8.00612
 30
0.0
 40
0
 41
0
  0
VERTEX
  8
0
 10
9.25054
 20
7.98182
 30
0.0
 40
0
 41
0
  0
VERTEX
  8
0
 10
9.23269
 20
7.95529
 30
0.0
 40
0
 41
0
  0
VERTEX
  8
0
 10
9.20617
 20
7.93744
 30
0.0
 40
0
 41
0
  0
VERTEX
  8
0
 10
9.18186
 20
7.93088
 30
0.0
 40
0
 41
0
  0
VERTEX
  8
0
 10
9.17378
 20
7.93088
 30
0.0
 40
0
 41
0
  0
VERTEX
  8
0
 10
9.16564
 20
7.93088
 30
0.0
 40
0
 41
0
  0
VERTEX
  8
0
 10
9.14133
 20
7.93744
 30
0.0
 40
0
 41
0
  0
VERTEX
  8
0
 10
9.11486
 20
7.95529
 30
0.0
 40
0
 41
0
  0
VERTEX
  8
0
 10
9.09694
 20
7.98182
 30
0.0
 40
0
 41
0
  0
VERTEX
  8
0
 10
9.09044
 20
8.00612
 30
0.0
 40
0
 41
0
  0
VERTEX
  8
0
 10
9.09044
 20
8.01421
 30
0.0
 40
0
 41
0
  0
VERTEX
  8
0
 10
9.09044
 20
8.02235
 30
0.0
 40
0
 41
0
  0
VERTEX
  8
0
 10
9.09694
 20
8.04665
 30
0.0
 40
0
 41
0
  0
VERTEX
  8
0
 10
9.11486
 20
8.07314
 30
0.0
 40
0
 41
0
  0
VERTEX
  8
0
 10
9.14133
 20
8.09104
 30
0.0
 40
0
 41
0
  0
VERTEX
  8
0
 10
9.16564
 20
8.09754
 30
0.0
 40
0
 41
0
  0
VERTEX
  8
0
 10
9.17378
 20
8.09754
 30
0.0
 40
0
 41
0
  0
SEQEND
 8
0
  0
POLYLINE
  8
0
 62
     0
 66
     1
 10
0
 20
0
 30
0.0
 70
     1
 40
0.75
 41
0.75
  0
VERTEX
  8
0
 10
9.17378
 20
8.09754
 30
0.0
 40
0.0104167
 41
0.0104167
  0
VERTEX
  8
0
 10
9.18186
 20
8.09754
 30
0.0
 40
0.0104167
 41
0.0104167
  0
VERTEX
  8
0
 10
9.20617
 20
8.09104
 30
0.0
 40
0.0104167
 41
0.0104167
  0
VERTEX
  8
0
 10
9.23269
 20
8.07314
 30
0.0
 40
0.0104167
 41
0.0104167
  0
VERTEX
  8
0
 10
9.25054
 20
8.04665
 30
0.0
 40
0.0104167
 41
0.0104167
  0
VERTEX
  8
0
 10
9.25711
 20
8.02235
 30
0.0
 40
0.0104167
 41
0.0104167
  0
VERTEX
  8
0
 10
9.25711
 20
8.01421
 30
0.0
 40
0.0104167
 41
0.0104167
  0
VERTEX
  8
0
 10
9.25711
 20
8.00612
 30
0.0
 40
0.0104167
 41
0.0104167
  0
VERTEX
  8
0
 10
9.25054
 20
7.98182
 30
0.0
 40
0.0104167
 41
0.0104167
  0
VERTEX
  8
0
 10
9.23269
 20
7.95529
 30
0.0
 40
0.0104167
 41
0.0104167
  0
VERTEX
  8
0
 10
9.20617
 20
7.93744
 30
0.0
 40
0.0104167
 41
0.0104167
  0
VERTEX
  8
0
 10
9.18186
 20
7.93088
 30
0.0
 40
0.0104167
 41
0.0104167
  0
VERTEX
  8
0
 10
9.17378
 20
7.93088
 30
0.0
 40
0.0104167
 41
0.0104167
  0
VERTEX
  8
0
 10
9.16564
 20
7.93088
 30
0.0
 40
0.0104167
 41
0.0104167
  0
VERTEX
  8
0
 10
9.14133
 20
7.93744
 30
0.0
 40
0.0104167
 41
0.0104167
  0
VERTEX
  8
0
 10
9.11486
 20
7.95529
 30
0.0
 40
0.0104167
 41
0.0104167
  0
VERTEX
  8
0
 10
9.09694
 20
7.98182
 30
0.0
 40
0.0104167
 41
0.0104167
  0
VERTEX
  8
0
 10
9.09044
 20
8.00612
 30
0.0
 40
0.0104167
 41
0.0104167
  0
VERTEX
  8
0
 10
9.09044
 20
8.01421
 30
0.0
 40
0.0104167
 41
0.0104167
  0
VERTEX
  8
0
 10
9.09044
 20
8.02235
 30
0.0
 40
0.0104167
 41
0.0104167
  0
VERTEX
  8
0
 10
9.09694
 20
8.04665
 30
0.0
 40
0.0104167
 41
0.0104167
  0
VERTEX
  8
0
 10
9.11486
 20
8.07314
 30
0.0
 40
0.0104167
 41
0.0104167
  0
VERTEX
  8
0
 10
9.14133
 20
8.09104
 30
0.0
 40
0.0104167
 41
0.0104167
  0
VERTEX
  8
0
 10
9.16564
 20
8.09754
 30
0.0
 40
0.0104167
 41
0.0104167
  0
VERTEX
  8
0
 10
9.17378
 20
8.09754
 30
0.0
 40
0.0104167
 41
0.0104167
  0
SEQEND
 8
0
  0
POLYLINE
  8
0
 62
     7
 66
     1
 10
0
 20
0
 30
0.0
 70
     1
 40
0
 41
0
  0
VERTEX
  8
0
 10
10.7705
 20
8.80171
 30
0.0
 40
0
 41
0
  0
VERTEX
  8
0
 10
11.3955
 20
8.80171
 30
0.0
 40
0
 41
0
  0
VERTEX
  8
0
 10
11.3955
 20
8.17671
 30
0.0
 40
0
 41
0
  0
VERTEX
  8
0
 10
10.7705
 20
8.17671
 30
0.0
 40
0
 41
0
  0
VERTEX
  8
0
 10
10.7705
 20
8.80171
 30
0.0
 40
0
 41
0
  0
SEQEND
 8
0
  0
POLYLINE
  8
0
 62
     0
 66
     1
 10
0
 20
0
 30
0.0
 70
     1
 40
0.75
 41
0.75
  0
VERTEX
  8
0
 10
10.7705
 20
8.80171
 30
0.0
 40
0.0104167
 41
0.0104167
  0
VERTEX
  8
0
 10
11.3955
 20
8.80171
 30
0.0
 40
0.0104167
 41
0.0104167
  0
VERTEX
  8
0
 10
11.3955
 20
8.17671
 30
0.0
 40
0.0104167
 41
0.0104167
  0
VERTEX
  8
0
 10
10.7705
 20
8.17671
 30
0.0
 40
0.0104167
 41
0.0104167
  0
VERTEX
  8
0
 10
10.7705
 20
8.80171
 30
0.0
 40
0.0104167
 41
0.0104167
  0
SEQEND
 8
0
  0
POLYLINE
  8
0
 62
     0
 66
     1
 10
0
 20
0
 30
0.0
 40
0.75
 41
0.75
  0
VERTEX
  8
0
 10
10.7705
 20
8.80171
 30
0.0
 40
0.0104167
 41
0.0104167
  0
VERTEX
  8
0
 10
11.083
 20
8.41525
 30
0.0
 40
0.0104167
 41
0.0104167
  0
VERTEX
  8
0
 10
11.083
 20
8.60275
 30
0.0
 40
0.0104167
 41
0.0104167
  0
VERTEX
  8
0
 10
11.3955
 20
8.21522
 30
0.0
 40
0.0104167
 41
0.0104167
  0
SEQEND
 8
0
  0
POLYLINE
  8
0
 62
     7
 66
     1
 10
0
 20
0
 30
0.0
 70
     1
 40
0
 41
0
  0
VERTEX
  8
0
 10
10.7705
 20
8.21838
 30
0.0
 40
0
 41
0
  0
VERTEX
  8
0
 10
11.3955
 20
8.21838
 30
0.0
 40
0
 41
0
  0
VERTEX
  8
0
 10
11.3955
 20
8.17671
 30
0.0
 40
0
 41
0
  0
VERTEX
  8
0
 10
10.7705
 20
8.17671
 30
0.0
 40
0
 41
0
  0
VERTEX
  8
0
 10
10.7705
 20
8.21838
 30
0.0
 40
0
 41
0
  0
SEQEND
 8
0
  0
POLYLINE
  8
0
 62
     0
 66
     1
 10
0
 20
0
 30
0.0
 70
     1
 40
0.75
 41
0.75
  0
VERTEX
  8
0
 10
10.7705
 20
8.21838
 30
0.0
 40
0.0104167
 41
0.0104167
  0
VERTEX
  8
0
 10
11.3955
 20
8.21838
 30
0.0
 40
0.0104167
 41
0.0104167
  0
VERTEX
  8
0
 10
11.3955
 20
8.17671
 30
0.0
 40
0.0104167
 41
0.0104167
  0
VERTEX
  8
0
 10
10.7705
 20
8.17671
 30
0.0
 40
0.0104167
 41
0.0104167
  0
VERTEX
  8
0
 10
10.7705
 20
8.21838
 30
0.0
 40
0.0104167
 41
0.0104167
  0
SEQEND
 8
0
  0
POLYLINE
  8
0
 62
     0
 66
     1
 10
0
 20
0
 30
0.0
 70
     1
 40
0.75
 41
0.75
  0
VERTEX
  8
0
 10
9.5121
 20
8.80137
 30
0.0
 40
0.0104167
 41
0.0104167
  0
VERTEX
  8
0
 10
10.7705
 20
8.80137
 30
0.0
 40
0.0104167
 41
0.0104167
  0
VERTEX
  8
0
 10
10.7705
 20
8.52149
 30
0.0
 40
0.0104167
 41
0.0104167
  0
VERTEX
  8
0
 10
9.5121
 20
8.52149
 30
0.0
 40
0.0104167
 41
0.0104167
  0
VERTEX
  8
0
 10
9.5121
 20
8.80137
 30
0.0
 40
0.0104167
 41
0.0104167
  0
SEQEND
 8
0
  0
POLYLINE
  8
0
 62
     0
 66
     1
 10
0
 20
0
 30
0.0
 70
     1
 40
0.75
 41
0.75
  0
VERTEX
  8
0
 10
8.71544
 20
7.57553
 30
0.0
 40
0.0104167
 41
0.0104167
  0
VERTEX
  8
0
 10
8.71544
 20
6.69862
 30
0.0
 40
0.0104167
 41
0.0104167
  0
VERTEX
  8
0
 10
9.02794
 20
6.69862
 30
0.0
 40
0.0104167
 41
0.0104167
  0
VERTEX
  8
0
 10
9.02794
 20
7.57553
 30
0.0
 40
0.0104167
 41
0.0104167
  0
VERTEX
  8
0
 10
8.71544
 20
7.57553
 30
0.0
 40
0.0104167
 41
0.0104167
  0
SEQEND
 8
0
  0
POLYLINE
  8
0
 62
     7
 66
     1
 10
0
 20
0
 30
0.0
 70
     1
 40
0
 41
0
  0
VERTEX
  8
0
 10
10.9803
 20
1.69515
 30
0.0
 40
0
 41
0
  0
VERTEX
  8
0
 10
12.1117
 20
1.69515
 30
0.0
 40
0
 41
0
  0
VERTEX
  8
0
 10
12.1117
 20
1.07015
 30
0.0
 40
0
 41
0
  0
VERTEX
  8
0
 10
10.9803
 20
1.07015
 30
0.0
 40
0
 41
0
  0
VERTEX
  8
0
 10
10.9803
 20
1.69515
 30
0.0
 40
0
 41
0
  0
SEQEND
 8
0
  0
POLYLINE
  8
0
 62
     0
 66
     1
 10
0
 20
0
 30
0.0
 70
     1
 40
0.75
 41
0.75
  0
VERTEX
  8
0
 10
10.9803
 20
1.69515
 30
0.0
 40
0.0104167
 41
0.0104167
  0
VERTEX
  8
0
 10
12.1117
 20
1.69515
 30
0.0
 40
0.0104167
 41
0.0104167
  0
VERTEX
  8
0
 10
12.1117
 20
1.07015
 30
0.0
 40
0.0104167
 41
0.0104167
  0
VERTEX
  8
0
 10
10.9803
 20
1.07015
 30
0.0
 40
0.0104167
 41
0.0104167
  0
VERTEX
  8
0
 10
10.9803
 20
1.69515
 30
0.0
 40
0.0104167
 41
0.0104167
  0
SEQEND
 8
0
  0
POLYLINE
  8
0
 62
     7
 66
     1
 10
0
 20
0
 30
0.0
 70
     1
 40
0
 41
0
  0
VERTEX
  8
0
 10
10.38
 20
1.69547
 30
0.0
 40
0
 41
0
  0
VERTEX
  8
0
 10
10.9803
 20
1.69547
 30
0.0
 40
0
 41
0
  0
VERTEX
  8
0
 10
10.9803
 20
1.07048
 30
0.0
 40
0
 41
0
  0
VERTEX
  8
0
 10
10.38
 20
1.07048
 30
0.0
 40
0
 41
0
  0
VERTEX
  8
0
 10
10.38
 20
1.69547
 30
0.0
 40
0
 41
0
  0
SEQEND
 8
0
  0
POLYLINE
  8
0
 62
     0
 66
     1
 10
0
 20
0
 30
0.0
 70
     1
 40
0.75
 41
0.75
  0
VERTEX
  8
0
 10
10.38
 20
1.69547
 30
0.0
 40
0.0104167
 41
0.0104167
  0
VERTEX
  8
0
 10
10.9803
 20
1.69547
 30
0.0
 40
0.0104167
 41
0.0104167
  0
VERTEX
  8
0
 10
10.9803
 20
1.07048
 30
0.0
 40
0.0104167
 41
0.0104167
  0
VERTEX
  8
0
 10
10.38
 20
1.07048
 30
0.0
 40
0.0104167
 41
0.0104167
  0
VERTEX
  8
0
 10
10.38
 20
1.69547
 30
0.0
 40
0.0104167
 41
0.0104167
  0
SEQEND
 8
0
  0
POLYLINE
  8
0
 62
     7
 66
     1
 10
0
 20
0
 30
0.0
 70
     1
 40
0
 41
0
  0
VERTEX
  8
0
 10
9.77989
 20
1.69547
 30
0.0
 40
0
 41
0
  0
VERTEX
  8
0
 10
10.3801
 20
1.69547
 30
0.0
 40
0
 41
0
  0
VERTEX
  8
0
 10
10.3801
 20
1.07048
 30
0.0
 40
0
 41
0
  0
VERTEX
  8
0
 10
9.77989
 20
1.07048
 30
0.0
 40
0
 41
0
  0
VERTEX
  8
0
 10
9.77989
 20
1.69547
 30
0.0
 40
0
 41
0
  0
SEQEND
 8
0
  0
POLYLINE
  8
0
 62
     0
 66
     1
 10
0
 20
0
 30
0.0
 70
     1
 40
0.75
 41
0.75
  0
VERTEX
  8
0
 10
9.77989
 20
1.69547
 30
0.0
 40
0.0104167
 41
0.0104167
  0
VERTEX
  8
0
 10
10.3801
 20
1.69547
 30
0.0
 40
0.0104167
 41
0.0104167
  0
VERTEX
  8
0
 10
10.3801
 20
1.07048
 30
0.0
 40
0.0104167
 41
0.0104167
  0
VERTEX
  8
0
 10
9.77989
 20
1.07048
 30
0.0
 40
0.0104167
 41
0.0104167
  0
VERTEX
  8
0
 10
9.77989
 20
1.69547
 30
0.0
 40
0.0104167
 41
0.0104167
  0
SEQEND
 8
0
  0
POLYLINE
  8
0
 62
     7
 66
     1
 10
0
 20
0
 30
0.0
 70
     1
 40
0
 41
0
  0
VERTEX
  8
0
 10
9.17974
 20
1.69547
 30
0.0
 40
0
 41
0
  0
VERTEX
  8
0
 10
9.77994
 20
1.69547
 30
0.0
 40
0
 41
0
  0
VERTEX
  8
0
 10
9.77994
 20
1.07048
 30
0.0
 40
0
 41
0
  0
VERTEX
  8
0
 10
9.17974
 20
1.07048
 30
0.0
 40
0
 41
0
  0
VERTEX
  8
0
 10
9.17974
 20
1.69547
 30
0.0
 40
0
 41
0
  0
SEQEND
 8
0
  0
POLYLINE
  8
0
 62
     0
 66
     1
 10
0
 20
0
 30
0.0
 70
     1
 40
0.75
 41
0.75
  0
VERTEX
  8
0
 10
9.17974
 20
1.69547
 30
0.0
 40
0.0104167
 41
0.0104167
  0
VERTEX
  8
0
 10
9.77994
 20
1.69547
 30
0.0
 40
0.0104167
 41
0.0104167
  0
VERTEX
  8
0
 10
9.77994
 20
1.07048
 30
0.0
 40
0.0104167
 41
0.0104167
  0
VERTEX
  8
0
 10
9.17974
 20
1.07048
 30
0.0
 40
0.0104167
 41
0.0104167
  0
VERTEX
  8
0
 10
9.17974
 20
1.69547
 30
0.0
 40
0.0104167
 41
0.0104167
  0
SEQEND
 8
0
  0
POLYLINE
  8
0
 62
     7
 66
     1
 10
0
 20
0
 30
0.0
 70
     1
 40
0
 41
0
  0
VERTEX
  8
0
 10
8.60618
 20
1.69499
 30
0.0
 40
0
 41
0
  0
VERTEX
  8
0
 10
9.17974
 20
1.69499
 30
0.0
 40
0
 41
0
  0
VERTEX
  8
0
 10
9.17974
 20
1.06999
 30
0.0
 40
0
 41
0
  0
VERTEX
  8
0
 10
8.60618
 20
1.06999
 30
0.0
 40
0
 41
0
  0
VERTEX
  8
0
 10
8.60618
 20
1.69499
 30
0.0
 40
0
 41
0
  0
SEQEND
 8
0
  0
POLYLINE
  8
0
 62
     0
 66
     1
 10
0
 20
0
 30
0.0
 70
     1
 40
0.75
 41
0.75
  0
VERTEX
  8
0
 10
8.60618
 20
1.69499
 30
0.0
 40
0.0104167
 41
0.0104167
  0
VERTEX
  8
0
 10
8.60618
 20
1.06999
 30
0.0
 40
0.0104167
 41
0.0104167
  0
VERTEX
  8
0
 10
9.17974
 20
1.06999
 30
0.0
 40
0.0104167
 41
0.0104167
  0
VERTEX
  8
0
 10
9.17974
 20
1.69499
 30
0.0
 40
0.0104167
 41
0.0104167
  0
VERTEX
  8
0
 10
8.60618
 20
1.69499
 30
0.0
 40
0.0104167
 41
0.0104167
  0
SEQEND
 8
0
  0
POLYLINE
  8
0
 62
     7
 66
     1
 10
0
 20
0
 30
0.0
 70
     1
 40
0
 41
0
  0
VERTEX
  8
0
 10
8.53097
 20
8.53168
 30
0.0
 40
0
 41
0
  0
VERTEX
  8
0
 10
8.59451
 20
8.53168
 30
0.0
 40
0
 41
0
  0
VERTEX
  8
0
 10
8.59451
 20
8.41504
 30
0.0
 40
0
 41
0
  0
VERTEX
  8
0
 10
8.53097
 20
8.41504
 30
0.0
 40
0
 41
0
  0
VERTEX
  8
0
 10
8.53097
 20
8.53168
 30
0.0
 40
0
 41
0
  0
SEQEND
 8
0
  0
POLYLINE
  8
0
 62
     0
 66
     1
 10
0
 20
0
 30
0.0
 70
     1
 40
0.75
 41
0.75
  0
VERTEX
  8
0
 10
8.53097
 20
8.53168
 30
0.0
 40
0.0104167
 41
0.0104167
  0
VERTEX
  8
0
 10
8.53097
 20
8.41504
 30
0.0
 40
0.0104167
 41
0.0104167
  0
VERTEX
  8
0
 10
8.59451
 20
8.41504
 30
0.0
 40
0.0104167
 41
0.0104167
  0
VERTEX
  8
0
 10
8.59451
 20
8.53168
 30
0.0
 40
0.0104167
 41
0.0104167
  0
VERTEX
  8
0
 10
8.53097
 20
8.53168
 30
0.0
 40
0.0104167
 41
0.0104167
  0
SEQEND
 8
0
  0
POLYLINE
  8
0
 62
     7
 66
     1
 10
0
 20
0
 30
0.0
 70
     1
 40
0
 41
0
  0
VERTEX
  8
0
 10
8.53097
 20
8.38693
 30
0.0
 40
0
 41
0
  0
VERTEX
  8
0
 10
8.59451
 20
8.38693
 30
0.0
 40
0
 41
0
  0
VERTEX
  8
0
 10
8.59451
 20
8.27024
 30
0.0
 40
0
 41
0
  0
VERTEX
  8
0
 10
8.53097
 20
8.27024
 30
0.0
 40
0
 41
0
  0
VERTEX
  8
0
 10
8.53097
 20
8.38693
 30
0.0
 40
0
 41
0
  0
SEQEND
 8
0
  0
POLYLINE
  8
0
 62
     0
 66
     1
 10
0
 20
0
 30
0.0
 70
     1
 40
0.75
 41
0.75
  0
VERTEX
  8
0
 10
8.53097
 20
8.38693
 30
0.0
 40
0.0104167
 41
0.0104167
  0
VERTEX
  8
0
 10
8.53097
 20
8.27024
 30
0.0
 40
0.0104167
 41
0.0104167
  0
VERTEX
  8
0
 10
8.59451
 20
8.27024
 30
0.0
 40
0.0104167
 41
0.0104167
  0
VERTEX
  8
0
 10
8.59451
 20
8.38693
 30
0.0
 40
0.0104167
 41
0.0104167
  0
VERTEX
  8
0
 10
8.53097
 20
8.38693
 30
0.0
 40
0.0104167
 41
0.0104167
  0
SEQEND
 8
0
  0
POLYLINE
  8
0
 62
     7
 66
     1
 10
0
 20
0
 30
0.0
 70
     1
 40
0
 41
0
  0
VERTEX
  8
0
 10
8.53097
 20
8.27126
 30
0.0
 40
0
 41
0
  0
VERTEX
  8
0
 10
8.59451
 20
8.27126
 30
0.0
 40
0
 41
0
  0
VERTEX
  8
0
 10
8.59451
 20
8.23589
 30
0.0
 40
0
 41
0
  0
VERTEX
  8
0
 10
8.53097
 20
8.23589
 30
0.0
 40
0
 41
0
  0
VERTEX
  8
0
 10
8.53097
 20
8.27126
 30
0.0
 40
0
 41
0
  0
SEQEND
 8
0
  0
POLYLINE
  8
0
 62
     0
 66
     1
 10
0
 20
0
 30
0.0
 70
     1
 40
0.75
 41
0.75
  0
VERTEX
  8
0
 10
8.53097
 20
8.27126
 30
0.0
 40
0.0104167
 41
0.0104167
  0
VERTEX
  8
0
 10
8.53097
 20
8.23589
 30
0.0
 40
0.0104167
 41
0.0104167
  0
VERTEX
  8
0
 10
8.59451
 20
8.23589
 30
0.0
 40
0.0104167
 41
0.0104167
  0
VERTEX
  8
0
 10
8.59451
 20
8.27126
 30
0.0
 40
0.0104167
 41
0.0104167
  0
VERTEX
  8
0
 10
8.53097
 20
8.27126
 30
0.0
 40
0.0104167
 41
0.0104167
  0
SEQEND
 8
0
  0
POLYLINE
  8
0
 62
     7
 66
     1
 10
0
 20
0
 30
0.0
 70
     1
 40
0
 41
0
  0
VERTEX
  8
0
 10
8.53097
 20
8.56506
 30
0.0
 40
0
 41
0
  0
VERTEX
  8
0
 10
8.59451
 20
8.56506
 30
0.0
 40
0
 41
0
  0
VERTEX
  8
0
 10
8.59451
 20
8.53168
 30
0.0
 40
0
 41
0
  0
VERTEX
  8
0
 10
8.53097
 20
8.53168
 30
0.0
 40
0
 41
0
  0
VERTEX
  8
0
 10
8.53097
 20
8.56506
 30
0.0
 40
0
 41
0
  0
SEQEND
 8
0
  0
POLYLINE
  8
0
 62
     0
 66
     1
 10
0
 20
0
 30
0.0
 70
     1
 40
0.75
 41
0.75
  0
VERTEX
  8
0
 10
8.53097
 20
8.56506
 30
0.0
 40
0.0104167
 41
0.0104167
  0
VERTEX
  8
0
 10
8.53097
 20
8.53168
 30
0.0
 40
0.0104167
 41
0.0104167
  0
VERTEX
  8
0
 10
8.59451
 20
8.53168
 30
0.0
 40
0.0104167
 41
0.0104167
  0
VERTEX
  8
0
 10
8.59451
 20
8.56506
 30
0.0
 40
0.0104167
 41
0.0104167
  0
VERTEX
  8
0
 10
8.53097
 20
8.56506
 30
0.0
 40
0.0104167
 41
0.0104167
  0
SEQEND
 8
0
  0
POLYLINE
  8
0
 62
     7
 66
     1
 10
0
 20
0
 30
0.0
 70
     1
 40
0
 41
0
  0
VERTEX
  8
0
 10
8.51118
 20
8.41504
 30
0.0
 40
0
 41
0
  0
VERTEX
  8
0
 10
8.50483
 20
8.41504
 30
0.0
 40
0
 41
0
  0
VERTEX
  8
0
 10
8.48589
 20
8.41872
 30
0.0
 40
0
 41
0
  0
VERTEX
  8
0
 10
8.46349
 20
8.4286
 30
0.0
 40
0
 41
0
  0
VERTEX
  8
0
 10
8.4591
 20
8.43169
 30
0.0
 40
0
 41
0
  0
VERTEX
  8
0
 10
8.45751
 20
8.43278
 30
0.0
 40
0
 41
0
  0
VERTEX
  8
0
 10
8.44293
 20
8.44293
 30
0.0
 40
0
 41
0
  0
VERTEX
  8
0
 10
8.44135
 20
8.44314
 30
0.0
 40
0
 41
0
  0
VERTEX
  8
0
 10
8.43847
 20
8.44368
 30
0.0
 40
0
 41
0
  0
VERTEX
  8
0
 10
8.42193
 20
8.43956
 30
0.0
 40
0
 41
0
  0
VERTEX
  8
0
 10
8.40907
 20
8.42285
 30
0.0
 40
0
 41
0
  0
VERTEX
  8
0
 10
8.40804
 20
8.4171
 30
0.0
 40
0
 41
0
  0
VERTEX
  8
0
 10
8.40776
 20
8.41581
 30
0.0
 40
0
 41
0
  0
VERTEX
  8
0
 10
8.40701
 20
8.40429
 30
0.0
 40
0
 41
0
  0
VERTEX
  8
0
 10
8.40701
 20
8.40044
 30
0.0
 40
0
 41
0
  0
VERTEX
  8
0
 10
8.40701
 20
8.40147
 30
0.0
 40
0
 41
0
  0
VERTEX
  8
0
 10
8.40701
 20
8.39735
 30
0.0
 40
0
 41
0
  0
VERTEX
  8
0
 10
8.40776
 20
8.38613
 30
0.0
 40
0
 41
0
  0
VERTEX
  8
0
 10
8.40804
 20
8.38482
 30
0.0
 40
0
 41
0
  0
VERTEX
  8
0
 10
8.40907
 20
8.37913
 30
0.0
 40
0
 41
0
  0
VERTEX
  8
0
 10
8.42193
 20
8.36247
 30
0.0
 40
0
 41
0
  0
VERTEX
  8
0
 10
8.43847
 20
8.35829
 30
0.0
 40
0
 41
0
  0
VERTEX
  8
0
 10
8.44135
 20
8.35878
 30
0.0
 40
0
 41
0
  0
VERTEX
  8
0
 10
8.44293
 20
8.35906
 30
0.0
 40
0
 41
0
  0
VERTEX
  8
0
 10
8.45751
 20
8.36919
 30
0.0
 40
0
 41
0
  0
VERTEX
  8
0
 10
8.4591
 20
8.37022
 30
0.0
 40
0
 41
0
  0
VERTEX
  8
0
 10
8.46349
 20
8.37338
 30
0.0
 40
0
 41
0
  0
VERTEX
  8
0
 10
8.48589
 20
8.38331
 30
0.0
 40
0
 41
0
  0
VERTEX
  8
0
 10
8.50483
 20
8.38693
 30
0.0
 40
0
 41
0
  0
VERTEX
  8
0
 10
8.51118
 20
8.38693
 30
0.0
 40
0
 41
0
  0
SEQEND
 8
0
  0
POLYLINE
  8
0
 62
     0
 66
     1
 10
0
 20
0
 30
0.0
 40
0.75
 41
0.75
  0
VERTEX
  8
0
 10
8.51118
 20
8.41504
 30
0.0
 40
0.0104167
 41
0.0104167
  0
VERTEX
  8
0
 10
8.50483
 20
8.41504
 30
0.0
 40
0.0104167
 41
0.0104167
  0
VERTEX
  8
0
 10
8.48589
 20
8.41872
 30
0.0
 40
0.0104167
 41
0.0104167
  0
VERTEX
  8
0
 10
8.46349
 20
8.4286
 30
0.0
 40
0.0104167
 41
0.0104167
  0
VERTEX
  8
0
 10
8.4591
 20
8.43169
 30
0.0
 40
0.0104167
 41
0.0104167
  0
VERTEX
  8
0
 10
8.45751
 20
8.43278
 30
0.0
 40
0.0104167
 41
0.0104167
  0
VERTEX
  8
0
 10
8.44293
 20
8.44293
 30
0.0
 40
0.0104167
 41
0.0104167
  0
VERTEX
  8
0
 10
8.44135
 20
8.44314
 30
0.0
 40
0.0104167
 41
0.0104167
  0
VERTEX
  8
0
 10
8.43847
 20
8.44368
 30
0.0
 40
0.0104167
 41
0.0104167
  0
VERTEX
  8
0
 10
8.42193
 20
8.43956
 30
0.0
 40
0.0104167
 41
0.0104167
  0
VERTEX
  8
0
 10
8.40907
 20
8.42285
 30
0.0
 40
0.0104167
 41
0.0104167
  0
VERTEX
  8
0
 10
8.40804
 20
8.4171
 30
0.0
 40
0.0104167
 41
0.0104167
  0
VERTEX
  8
0
 10
8.40776
 20
8.41581
 30
0.0
 40
0.0104167
 41
0.0104167
  0
VERTEX
  8
0
 10
8.40701
 20
8.40429
 30
0.0
 40
0.0104167
 41
0.0104167
  0
VERTEX
  8
0
 10
8.40701
 20
8.40044
 30
0.0
 40
0.0104167
 41
0.0104167
  0
VERTEX
  8
0
 10
8.40701
 20
8.40147
 30
0.0
 40
0.0104167
 41
0.0104167
  0
VERTEX
  8
0
 10
8.40701
 20
8.39735
 30
0.0
 40
0.0104167
 41
0.0104167
  0
VERTEX
  8
0
 10
8.40776
 20
8.38613
 30
0.0
 40
0.0104167
 41
0.0104167
  0
VERTEX
  8
0
 10
8.40804
 20
8.38482
 30
0.0
 40
0.0104167
 41
0.0104167
  0
VERTEX
  8
0
 10
8.40907
 20
8.37913
 30
0.0
 40
0.0104167
 41
0.0104167
  0
VERTEX
  8
0
 10
8.42193
 20
8.36247
 30
0.0
 40
0.0104167
 41
0.0104167
  0
VERTEX
  8
0
 10
8.43847
 20
8.35829
 30
0.0
 40
0.0104167
 41
0.0104167
  0
VERTEX
  8
0
 10
8.44135
 20
8.35878
 30
0.0
 40
0.0104167
 41
0.0104167
  0
VERTEX
  8
0
 10
8.44293
 20
8.35906
 30
0.0
 40
0.0104167
 41
0.0104167
  0
VERTEX
  8
0
 10
8.45751
 20
8.36919
 30
0.0
 40
0.0104167
 41
0.0104167
  0
VERTEX
  8
0
 10
8.4591
 20
8.37022
 30
0.0
 40
0.0104167
 41
0.0104167
  0
VERTEX
  8
0
 10
8.46349
 20
8.37338
 30
0.0
 40
0.0104167
 41
0.0104167
  0
VERTEX
  8
0
 10
8.48589
 20
8.38331
 30
0.0
 40
0.0104167
 41
0.0104167
  0
VERTEX
  8
0
 10
8.50483
 20
8.38693
 30
0.0
 40
0.0104167
 41
0.0104167
  0
VERTEX
  8
0
 10
8.51118
 20
8.38693
 30
0.0
 40
0.0104167
 41
0.0104167
  0
SEQEND
 8
0
  0
POLYLINE
  8
0
 62
     7
 66
     1
 10
0
 20
0
 30
0.0
 70
     1
 40
0
 41
0
  0
VERTEX
  8
0
 10
8.44032
 20
8.44314
 30
0.0
 40
0
 41
0
  0
VERTEX
  8
0
 10
8.43978
 20
8.44293
 30
0.0
 40
0
 41
0
  0
VERTEX
  8
0
 10
8.42964
 20
8.43104
 30
0.0
 40
0
 41
0
  0
VERTEX
  8
0
 10
8.42051
 20
8.40733
 30
0.0
 40
0
 41
0
  0
VERTEX
  8
0
 10
8.42051
 20
8.39942
 30
0.0
 40
0
 41
0
  0
VERTEX
  8
0
 10
8.42079
 20
8.39318
 30
0.0
 40
0
 41
0
  0
VERTEX
  8
0
 10
8.43001
 20
8.37056
 30
0.0
 40
0
 41
0
  0
VERTEX
  8
0
 10
8.43978
 20
8.35932
 30
0.0
 40
0
 41
0
  0
VERTEX
  8
0
 10
8.44032
 20
8.35878
 30
0.0
 40
0
 41
0
  0
SEQEND
 8
0
  0
POLYLINE
  8
0
 62
     0
 66
     1
 10
0
 20
0
 30
0.0
 40
0.75
 41
0.75
  0
VERTEX
  8
0
 10
8.44032
 20
8.44314
 30
0.0
 40
0.0104167
 41
0.0104167
  0
VERTEX
  8
0
 10
8.43978
 20
8.44293
 30
0.0
 40
0.0104167
 41
0.0104167
  0
VERTEX
  8
0
 10
8.42964
 20
8.43104
 30
0.0
 40
0.0104167
 41
0.0104167
  0
VERTEX
  8
0
 10
8.42051
 20
8.40733
 30
0.0
 40
0.0104167
 41
0.0104167
  0
VERTEX
  8
0
 10
8.42051
 20
8.39942
 30
0.0
 40
0.0104167
 41
0.0104167
  0
VERTEX
  8
0
 10
8.42079
 20
8.39318
 30
0.0
 40
0.0104167
 41
0.0104167
  0
VERTEX
  8
0
 10
8.43001
 20
8.37056
 30
0.0
 40
0.0104167
 41
0.0104167
  0
VERTEX
  8
0
 10
8.43978
 20
8.35932
 30
0.0
 40
0.0104167
 41
0.0104167
  0
VERTEX
  8
0
 10
8.44032
 20
8.35878
 30
0.0
 40
0.0104167
 41
0.0104167
  0
SEQEND
 8
0
  0
POLYLINE
  8
0
 62
     7
 66
     1
 10
0
 20
0
 30
0.0
 70
     1
 40
0
 41
0
  0
VERTEX
  8
0
 10
8.59451
 20
8.41504
 30
0.0
 40
0
 41
0
  0
VERTEX
  8
0
 10
8.59451
 20
8.38693
 30
0.0
 40
0
 41
0
  0
VERTEX
  8
0
 10
8.51118
 20
8.38693
 30
0.0
 40
0
 41
0
  0
VERTEX
  8
0
 10
8.51118
 20
8.39399
 30
0.0
 40
0
 41
0
  0
VERTEX
  8
0
 10
8.51118
 20
8.40978
 30
0.0
 40
0
 41
0
  0
VERTEX
  8
0
 10
8.51118
 20
8.41504
 30
0.0
 40
0
 41
0
  0
VERTEX
  8
0
 10
8.53201
 20
8.41504
 30
0.0
 40
0
 41
0
  0
VERTEX
  8
0
 10
8.57889
 20
8.41504
 30
0.0
 40
0
 41
0
  0
VERTEX
  8
0
 10
8.59451
 20
8.41504
 30
0.0
 40
0
 41
0
  0
SEQEND
 8
0
  0
POLYLINE
  8
0
 62
     0
 66
     1
 10
0
 20
0
 30
0.0
 70
     1
 40
0.75
 41
0.75
  0
VERTEX
  8
0
 10
8.59451
 20
8.41504
 30
0.0
 40
0.0104167
 41
0.0104167
  0
VERTEX
  8
0
 10
8.59451
 20
8.38693
 30
0.0
 40
0.0104167
 41
0.0104167
  0
VERTEX
  8
0
 10
8.51118
 20
8.38693
 30
0.0
 40
0.0104167
 41
0.0104167
  0
VERTEX
  8
0
 10
8.51118
 20
8.39399
 30
0.0
 40
0.0104167
 41
0.0104167
  0
VERTEX
  8
0
 10
8.51118
 20
8.40978
 30
0.0
 40
0.0104167
 41
0.0104167
  0
VERTEX
  8
0
 10
8.51118
 20
8.41504
 30
0.0
 40
0.0104167
 41
0.0104167
  0
VERTEX
  8
0
 10
8.53201
 20
8.41504
 30
0.0
 40
0.0104167
 41
0.0104167
  0
VERTEX
  8
0
 10
8.57889
 20
8.41504
 30
0.0
 40
0.0104167
 41
0.0104167
  0
VERTEX
  8
0
 10
8.59451
 20
8.41504
 30
0.0
 40
0.0104167
 41
0.0104167
  0
SEQEND
 8
0
  0
POLYLINE
  8
0
 62
     7
 66
     1
 10
0
 20
0
 30
0.0
 70
     1
 40
0
 41
0
  0
VERTEX
  8
0
 10
8.56222
 20
8.53168
 30
0.0
 40
0
 41
0
  0
VERTEX
  8
0
 10
8.56342
 20
8.52849
 30
0.0
 40
0
 41
0
  0
VERTEX
  8
0
 10
8.56728
 20
8.51882
 30
0.0
 40
0
 41
0
  0
VERTEX
  8
0
 10
8.56847
 20
8.51606
 30
0.0
 40
0
 41
0
  0
VERTEX
  8
0
 10
8.56847
 20
8.51606
 30
0.0
 40
0
 41
0
  0
VERTEX
  8
0
 10
8.567
 20
8.51606
 30
0.0
 40
0
 41
0
  0
VERTEX
  8
0
 10
8.56272
 20
8.51606
 30
0.0
 40
0
 41
0
  0
VERTEX
  8
0
 10
8.55843
 20
8.51606
 30
0.0
 40
0
 41
0
  0
VERTEX
  8
0
 10
8.55701
 20
8.51606
 30
0.0
 40
0
 41
0
  0
VERTEX
  8
0
 10
8.55701
 20
8.51606
 30
0.0
 40
0
 41
0
  0
VERTEX
  8
0
 10
8.55767
 20
8.51844
 30
0.0
 40
0
 41
0
  0
VERTEX
  8
0
 10
8.56104
 20
8.52843
 30
0.0
 40
0
 41
0
  0
VERTEX
  8
0
 10
8.56222
 20
8.53168
 30
0.0
 40
0
 41
0
  0
SEQEND
 8
0
  0
POLYLINE
  8
0
 62
     0
 66
     1
 10
0
 20
0
 30
0.0
 70
     1
 40
0.75
 41
0.75
  0
VERTEX
  8
0
 10
8.56222
 20
8.53168
 30
0.0
 40
0.0104167
 41
0.0104167
  0
VERTEX
  8
0
 10
8.56342
 20
8.52849
 30
0.0
 40
0.0104167
 41
0.0104167
  0
VERTEX
  8
0
 10
8.56728
 20
8.51882
 30
0.0
 40
0.0104167
 41
0.0104167
  0
VERTEX
  8
0
 10
8.56847
 20
8.51606
 30
0.0
 40
0.0104167
 41
0.0104167
  0
VERTEX
  8
0
 10
8.56847
 20
8.51606
 30
0.0
 40
0.0104167
 41
0.0104167
  0
VERTEX
  8
0
 10
8.567
 20
8.51606
 30
0.0
 40
0.0104167
 41
0.0104167
  0
VERTEX
  8
0
 10
8.56272
 20
8.51606
 30
0.0
 40
0.0104167
 41
0.0104167
  0
VERTEX
  8
0
 10
8.55843
 20
8.51606
 30
0.0
 40
0.0104167
 41
0.0104167
  0
VERTEX
  8
0
 10
8.55701
 20
8.51606
 30
0.0
 40
0.0104167
 41
0.0104167
  0
VERTEX
  8
0
 10
8.55701
 20
8.51606
 30
0.0
 40
0.0104167
 41
0.0104167
  0
VERTEX
  8
0
 10
8.55767
 20
8.51844
 30
0.0
 40
0.0104167
 41
0.0104167
  0
VERTEX
  8
0
 10
8.56104
 20
8.52843
 30
0.0
 40
0.0104167
 41
0.0104167
  0
VERTEX
  8
0
 10
8.56222
 20
8.53168
 30
0.0
 40
0.0104167
 41
0.0104167
  0
SEQEND
 8
0
  0
POLYLINE
  8
0
 62
     7
 66
     1
 10
0
 20
0
 30
0.0
 70
     1
 40
0
 41
0
  0
VERTEX
  8
0
 10
8.56222
 20
8.27126
 30
0.0
 40
0
 41
0
  0
VERTEX
  8
0
 10
8.56342
 20
8.27453
 30
0.0
 40
0
 41
0
  0
VERTEX
  8
0
 10
8.56728
 20
8.28418
 30
0.0
 40
0
 41
0
  0
VERTEX
  8
0
 10
8.56847
 20
8.28689
 30
0.0
 40
0
 41
0
  0
VERTEX
  8
0
 10
8.56847
 20
8.28689
 30
0.0
 40
0
 41
0
  0
VERTEX
  8
0
 10
8.567
 20
8.28689
 30
0.0
 40
0
 41
0
  0
VERTEX
  8
0
 10
8.56272
 20
8.28689
 30
0.0
 40
0
 41
0
  0
VERTEX
  8
0
 10
8.55843
 20
8.28689
 30
0.0
 40
0
 41
0
  0
VERTEX
  8
0
 10
8.55701
 20
8.28689
 30
0.0
 40
0
 41
0
  0
VERTEX
  8
0
 10
8.55701
 20
8.28689
 30
0.0
 40
0
 41
0
  0
VERTEX
  8
0
 10
8.55767
 20
8.28456
 30
0.0
 40
0
 41
0
  0
VERTEX
  8
0
 10
8.56104
 20
8.27458
 30
0.0
 40
0
 41
0
  0
VERTEX
  8
0
 10
8.56222
 20
8.27126
 30
0.0
 40
0
 41
0
  0
SEQEND
 8
0
  0
POLYLINE
  8
0
 62
     0
 66
     1
 10
0
 20
0
 30
0.0
 70
     1
 40
0.75
 41
0.75
  0
VERTEX
  8
0
 10
8.56222
 20
8.27126
 30
0.0
 40
0.0104167
 41
0.0104167
  0
VERTEX
  8
0
 10
8.56342
 20
8.27453
 30
0.0
 40
0.0104167
 41
0.0104167
  0
VERTEX
  8
0
 10
8.56728
 20
8.28418
 30
0.0
 40
0.0104167
 41
0.0104167
  0
VERTEX
  8
0
 10
8.56847
 20
8.28689
 30
0.0
 40
0.0104167
 41
0.0104167
  0
VERTEX
  8
0
 10
8.56847
 20
8.28689
 30
0.0
 40
0.0104167
 41
0.0104167
  0
VERTEX
  8
0
 10
8.567
 20
8.28689
 30
0.0
 40
0.0104167
 41
0.0104167
  0
VERTEX
  8
0
 10
8.56272
 20
8.28689
 30
0.0
 40
0.0104167
 41
0.0104167
  0
VERTEX
  8
0
 10
8.55843
 20
8.28689
 30
0.0
 40
0.0104167
 41
0.0104167
  0
VERTEX
  8
0
 10
8.55701
 20
8.28689
 30
0.0
 40
0.0104167
 41
0.0104167
  0
VERTEX
  8
0
 10
8.55701
 20
8.28689
 30
0.0
 40
0.0104167
 41
0.0104167
  0
VERTEX
  8
0
 10
8.55767
 20
8.28456
 30
0.0
 40
0.0104167
 41
0.0104167
  0
VERTEX
  8
0
 10
8.56104
 20
8.27458
 30
0.0
 40
0.0104167
 41
0.0104167
  0
VERTEX
  8
0
 10
8.56222
 20
8.27126
 30
0.0
 40
0.0104167
 41
0.0104167
  0
SEQEND
 8
0
  0
POLYLINE
  8
0
 62
     7
 66
     1
 10
0
 20
0
 30
0.0
 70
     1
 40
0
 41
0
  0
VERTEX
  8
0
 10
7.79665
 20
7.99707
 30
0.0
 40
0
 41
0
  0
VERTEX
  8
0
 10
8.59972
 20
7.99707
 30
0.0
 40
0
 41
0
  0
VERTEX
  8
0
 10
8.59972
 20
7.97103
 30
0.0
 40
0
 41
0
  0
VERTEX
  8
0
 10
7.79665
 20
7.97103
 30
0.0
 40
0
 41
0
  0
VERTEX
  8
0
 10
7.79665
 20
7.99707
 30
0.0
 40
0
 41
0
  0
SEQEND
 8
0
  0
POLYLINE
  8
0
 62
     0
 66
     1
 10
0
 20
0
 30
0.0
 70
     1
 40
0.75
 41
0.75
  0
VERTEX
  8
0
 10
7.79665
 20
7.99707
 30
0.0
 40
0.0104167
 41
0.0104167
  0
VERTEX
  8
0
 10
7.79665
 20
7.97103
 30
0.0
 40
0.0104167
 41
0.0104167
  0
VERTEX
  8
0
 10
8.59972
 20
7.97103
 30
0.0
 40
0.0104167
 41
0.0104167
  0
VERTEX
  8
0
 10
8.59972
 20
7.99707
 30
0.0
 40
0.0104167
 41
0.0104167
  0
VERTEX
  8
0
 10
7.79665
 20
7.99707
 30
0.0
 40
0.0104167
 41
0.0104167
  0
SEQEND
 8
0
  0
POLYLINE
  8
0
 62
     7
 66
     1
 10
0
 20
0
 30
0.0
 70
     1
 40
0
 41
0
  0
VERTEX
  8
0
 10
7.79665
 20
7.99707
 30
0.0
 40
0
 41
0
  0
VERTEX
  8
0
 10
8.59972
 20
7.99707
 30
0.0
 40
0
 41
0
  0
VERTEX
  8
0
 10
8.59972
 20
7.97103
 30
0.0
 40
0
 41
0
  0
VERTEX
  8
0
 10
7.79665
 20
7.97103
 30
0.0
 40
0
 41
0
  0
VERTEX
  8
0
 10
7.79665
 20
7.99707
 30
0.0
 40
0
 41
0
  0
SEQEND
 8
0
  0
POLYLINE
  8
0
 62
     0
 66
     1
 10
0
 20
0
 30
0.0
 70
     1
 40
0.75
 41
0.75
  0
VERTEX
  8
0
 10
7.79665
 20
7.99707
 30
0.0
 40
0.0104167
 41
0.0104167
  0
VERTEX
  8
0
 10
7.79665
 20
7.97103
 30
0.0
 40
0.0104167
 41
0.0104167
  0
VERTEX
  8
0
 10
8.59972
 20
7.97103
 30
0.0
 40
0.0104167
 41
0.0104167
  0
VERTEX
  8
0
 10
8.59972
 20
7.99707
 30
0.0
 40
0.0104167
 41
0.0104167
  0
VERTEX
  8
0
 10
7.79665
 20
7.99707
 30
0.0
 40
0.0104167
 41
0.0104167
  0
SEQEND
 8
0
  0
POLYLINE
  8
0
 62
     7
 66
     1
 10
0
 20
0
 30
0.0
 70
     1
 40
0
 41
0
  0
VERTEX
  8
0
 10
7.76768
 20
8.80171
 30
0.0
 40
0
 41
0
  0
VERTEX
  8
0
 10
7.79372
 20
8.80171
 30
0.0
 40
0
 41
0
  0
VERTEX
  8
0
 10
7.79372
 20
7.97174
 30
0.0
 40
0
 41
0
  0
VERTEX
  8
0
 10
7.76768
 20
7.97174
 30
0.0
 40
0
 41
0
  0
VERTEX
  8
0
 10
7.76768
 20
8.80171
 30
0.0
 40
0
 41
0
  0
SEQEND
 8
0
  0
POLYLINE
  8
0
 62
     0
 66
     1
 10
0
 20
0
 30
0.0
 70
     1
 40
0.75
 41
0.75
  0
VERTEX
  8
0
 10
7.76768
 20
8.80171
 30
0.0
 40
0.0104167
 41
0.0104167
  0
VERTEX
  8
0
 10
7.79372
 20
8.80171
 30
0.0
 40
0.0104167
 41
0.0104167
  0
VERTEX
  8
0
 10
7.79372
 20
7.97174
 30
0.0
 40
0.0104167
 41
0.0104167
  0
VERTEX
  8
0
 10
7.76768
 20
7.97174
 30
0.0
 40
0.0104167
 41
0.0104167
  0
VERTEX
  8
0
 10
7.76768
 20
8.80171
 30
0.0
 40
0.0104167
 41
0.0104167
  0
SEQEND
 8
0
  0
POLYLINE
  8
0
 62
     7
 66
     1
 10
0
 20
0
 30
0.0
 70
     1
 40
0
 41
0
  0
VERTEX
  8
0
 10
7.76768
 20
8.80171
 30
0.0
 40
0
 41
0
  0
VERTEX
  8
0
 10
7.79372
 20
8.80171
 30
0.0
 40
0
 41
0
  0
VERTEX
  8
0
 10
7.79372
 20
7.97174
 30
0.0
 40
0
 41
0
  0
VERTEX
  8
0
 10
7.76768
 20
7.97174
 30
0.0
 40
0
 41
0
  0
VERTEX
  8
0
 10
7.76768
 20
8.80171
 30
0.0
 40
0
 41
0
  0
SEQEND
 8
0
  0
POLYLINE
  8
0
 62
     0
 66
     1
 10
0
 20
0
 30
0.0
 70
     1
 40
0.75
 41
0.75
  0
VERTEX
  8
0
 10
7.76768
 20
8.80171
 30
0.0
 40
0.0104167
 41
0.0104167
  0
VERTEX
  8
0
 10
7.79372
 20
8.80171
 30
0.0
 40
0.0104167
 41
0.0104167
  0
VERTEX
  8
0
 10
7.79372
 20
7.97174
 30
0.0
 40
0.0104167
 41
0.0104167
  0
VERTEX
  8
0
 10
7.76768
 20
7.97174
 30
0.0
 40
0.0104167
 41
0.0104167
  0
VERTEX
  8
0
 10
7.76768
 20
8.80171
 30
0.0
 40
0.0104167
 41
0.0104167
  0
SEQEND
 8
0
  0
POLYLINE
  8
0
 62
     7
 66
     1
 10
0
 20
0
 30
0.0
 70
     1
 40
0
 41
0
  0
VERTEX
  8
0
 10
7.0964
 20
8.71685
 30
0.0
 40
0
 41
0
  0
VERTEX
  8
0
 10
7.55208
 20
8.71685
 30
0.0
 40
0
 41
0
  0
VERTEX
  8
0
 10
7.55208
 20
8.05886
 30
0.0
 40
0
 41
0
  0
VERTEX
  8
0
 10
7.0964
 20
8.05886
 30
0.0
 40
0
 41
0
  0
VERTEX
  8
0
 10
7.0964
 20
8.71685
 30
0.0
 40
0
 41
0
  0
SEQEND
 8
0
  0
POLYLINE
  8
0
 62
     0
 66
     1
 10
0
 20
0
 30
0.0
 70
     1
 40
0.7896
 41
0.7896
  0
VERTEX
  8
0
 10
7.0964
 20
8.71685
 30
0.0
 40
0.0109667
 41
0.0109667
  0
VERTEX
  8
0
 10
7.0964
 20
8.05886
 30
0.0
 40
0.0109667
 41
0.0109667
  0
VERTEX
  8
0
 10
7.55208
 20
8.05886
 30
0.0
 40
0.0109667
 41
0.0109667
  0
VERTEX
  8
0
 10
7.55208
 20
8.71685
 30
0.0
 40
0.0109667
 41
0.0109667
  0
VERTEX
  8
0
 10
7.0964
 20
8.71685
 30
0.0
 40
0.0109667
 41
0.0109667
  0
SEQEND
 8
0
  0
POLYLINE
  8
0
 62
     0
 66
     1
 10
0
 20
0
 30
0.0
 40
0.7896
 41
0.7896
  0
VERTEX
  8
0
 10
7.0964
 20
8.05886
 30
0.0
 40
0.0109667
 41
0.0109667
  0
VERTEX
  8
0
 10
7.40776
 20
8.38786
 30
0.0
 40
0.0109667
 41
0.0109667
  0
VERTEX
  8
0
 10
7.25435
 20
8.38786
 30
0.0
 40
0.0109667
 41
0.0109667
  0
VERTEX
  8
0
 10
7.55208
 20
8.71685
 30
0.0
 40
0.0109667
 41
0.0109667
  0
SEQEND
 8
0
  0
POLYLINE
  8
0
 62
     0
 66
     1
 10
0
 20
0
 30
0.0
 40
0.7896
 41
0.7896
  0
VERTEX
  8
0
 10
7.54753
 20
8.08849
 30
0.0
 40
0.0109667
 41
0.0109667
  0
VERTEX
  8
0
 10
7.54753
 20
8.68722
 30
0.0
 40
0.0109667
 41
0.0109667
  0
SEQEND
 8
0
  0
POLYLINE
  8
0
 62
     0
 66
     1
 10
0
 20
0
 30
0.0
 70
     1
 40
0
 41
0
  0
VERTEX
  8
0
 10
0.719997
 20
5.2755
 30
0.0
 40
0
 41
0
  0
VERTEX
  8
0
 10
2.07769
 20
5.2755
 30
0.0
 40
0
 41
0
  0
VERTEX
  8
0
 10
2.07769
 20
4.86062
 30
0.0
 40
0
 41
0
  0
VERTEX
  8
0
 10
0.719997
 20
4.86062
 30
0.0
 40
0
 41
0
  0
VERTEX
  8
0
 10
0.719997
 20
5.2755
 30
0.0
 40
0
 41
0
  0
SEQEND
 8
0
  0
POLYLINE
  8
0
 62
     0
 66
     1
 10
0
 20
0
 30
0.0
 70
     1
 40
0.15
 41
0.15
  0
VERTEX
  8
0
 10
0.719997
 20
5.2755
 30
0.0
 40
0.00208333
 41
0.00208333
  0
VERTEX
  8
0
 10
2.07769
 20
5.2755
 30
0.0
 40
0.00208333
 41
0.00208333
  0
VERTEX
  8
0
 10
2.07769
 20
4.86062
 30
0.0
 40
0.00208333
 41
0.00208333
  0
VERTEX
  8
0
 10
0.719997
 20
4.86062
 30
0.0
 40
0.00208333
 41
0.00208333
  0
VERTEX
  8
0
 10
0.719997
 20
5.2755
 30
0.0
 40
0.00208333
 41
0.00208333
  0
SEQEND
 8
0
  0
POLYLINE
  8
0
 62
     7
 66
     1
 10
0
 20
0
 30
0.0
 70
     1
 40
0
 41
0
  0
VERTEX
  8
0
 10
0.822808
 20
5.2755
 30
0.0
 40
0
 41
0
  0
VERTEX
  8
0
 10
0.822808
 20
8.88846
 30
0.0
 40
0
 41
0
  0
VERTEX
  8
0
 10
0.770725
 20
8.94054
 30
0.0
 40
0
 41
0
  0
VERTEX
  8
0
 10
0.770725
 20
5.2755
 30
0.0
 40
0
 41
0
  0
VERTEX
  8
0
 10
0.822808
 20
5.2755
 30
0.0
 40
0
 41
0
  0
SEQEND
 8
0
  0
POLYLINE
  8
0
 62
     0
 66
     1
 10
0
 20
0
 30
0.0
 70
     1
 40
0.15
 41
0.15
  0
VERTEX
  8
0
 10
0.822808
 20
5.2755
 30
0.0
 40
0.00208333
 41
0.00208333
  0
VERTEX
  8
0
 10
0.822808
 20
8.88846
 30
0.0
 40
0.00208333
 41
0.00208333
  0
VERTEX
  8
0
 10
0.770725
 20
8.94054
 30
0.0
 40
0.00208333
 41
0.00208333
  0
VERTEX
  8
0
 10
0.770725
 20
5.2755
 30
0.0
 40
0.00208333
 41
0.00208333
  0
VERTEX
  8
0
 10
0.822808
 20
5.2755
 30
0.0
 40
0.00208333
 41
0.00208333
  0
SEQEND
 8
0
  0
POLYLINE
  8
0
 62
     7
 66
     1
 10
0
 20
0
 30
0.0
 70
     1
 40
0
 41
0
  0
VERTEX
  8
0
 10
0.822808
 20
8.88846
 30
0.0
 40
0
 41
0
  0
VERTEX
  8
0
 10
0.964572
 20
8.88846
 30
0.0
 40
0
 41
0
  0
VERTEX
  8
0
 10
0.964572
 20
8.94054
 30
0.0
 40
0
 41
0
  0
VERTEX
  8
0
 10
0.770725
 20
8.94054
 30
0.0
 40
0
 41
0
  0
VERTEX
  8
0
 10
0.822808
 20
8.88846
 30
0.0
 40
0
 41
0
  0
SEQEND
 8
0
  0
POLYLINE
  8
0
 62
     0
 66
     1
 10
0
 20
0
 30
0.0
 70
     1
 40
0.15
 41
0.15
  0
VERTEX
  8
0
 10
0.822808
 20
8.88846
 30
0.0
 40
0.00208333
 41
0.00208333
  0
VERTEX
  8
0
 10
0.964572
 20
8.88846
 30
0.0
 40
0.00208333
 41
0.00208333
  0
VERTEX
  8
0
 10
0.964572
 20
8.94054
 30
0.0
 40
0.00208333
 41
0.00208333
  0
VERTEX
  8
0
 10
0.770725
 20
8.94054
 30
0.0
 40
0.00208333
 41
0.00208333
  0
VERTEX
  8
0
 10
0.822808
 20
8.88846
 30
0.0
 40
0.00208333
 41
0.00208333
  0
SEQEND
 8
0
  0
POLYLINE
  8
0
 62
     0
 66
     1
 10
0
 20
0
 30
0.0
 70
     1
 40
0
 41
0
  0
VERTEX
  8
0
 10
0.964789
 20
9.0255
 30
0.0
 40
0
 41
0
  0
VERTEX
  8
0
 10
2.07769
 20
9.0255
 30
0.0
 40
0
 41
0
  0
VERTEX
  8
0
 10
2.07769
 20
8.80886
 30
0.0
 40
0
 41
0
  0
VERTEX
  8
0
 10
0.964789
 20
8.80886
 30
0.0
 40
0
 41
0
  0
VERTEX
  8
0
 10
0.964789
 20
9.0255
 30
0.0
 40
0
 41
0
  0
SEQEND
 8
0
  0
POLYLINE
  8
0
 62
     0
 66
     1
 10
0
 20
0
 30
0.0
 70
     1
 40
0.15
 41
0.15
  0
VERTEX
  8
0
 10
0.964789
 20
9.0255
 30
0.0
 40
0.00208333
 41
0.00208333
  0
VERTEX
  8
0
 10
2.07769
 20
9.0255
 30
0.0
 40
0.00208333
 41
0.00208333
  0
VERTEX
  8
0
 10
2.07769
 20
8.80886
 30
0.0
 40
0.00208333
 41
0.00208333
  0
VERTEX
  8
0
 10
0.964789
 20
8.80886
 30
0.0
 40
0.00208333
 41
0.00208333
  0
VERTEX
  8
0
 10
0.964789
 20
9.0255
 30
0.0
 40
0.00208333
 41
0.00208333
  0
SEQEND
 8
0
  0
ENDSEC
  0
EOF
