  0
SECTION
  2
HEADER
  9
$ACADVER
  1
AC1009
  9
$FILLMODE
 70
 0
  9
$SPLFRAME
 70
 1
  9
$EXTMIN
 10
0
 20
0
 30
0.0
  9
$EXTMAX
 10
41.6667
 20
41.6667
 30
0.0
  0
ENDSEC
  0
SECTION
  2
TABLES
  0
TABLE
  2
LAYER
 70
1
  0
LAYER
  2
0
 70
     0
 62
     7
  6
CONTINUOUS
  0
ENDTAB
  0
ENDSEC
  0
SECTION
  2
ENTITIES
  0
POLYLINE
  8
0
 62
     7
 66
     1
 10
0
 20
0
 30
0.0
 70
     1
 40
0
 41
0
  0
VERTEX
  8
0
 10
6.21072
 20
3.42507
 30
0.0
 40
0
 41
0
  0
VERTEX
  8
0
 10
7.46875
 20
3.42507
 30
0.0
 40
0
 41
0
  0
VERTEX
  8
0
 10
7.46875
 20
2.31299
 30
0.0
 40
0
 41
0
  0
VERTEX
  8
0
 10
6.21072
 20
2.31299
 30
0.0
 40
0
 41
0
  0
VERTEX
  8
0
 10
6.21072
 20
3.42507
 30
0.0
 40
0
 41
0
  0
SEQEND
 8
0
  0
POLYLINE
  8
0
 62
     7
 66
     1
 10
0
 20
0
 30
0.0
 70
     1
 40
0.15
 41
0.15
  0
VERTEX
  8
0
 10
6.21072
 20
3.42507
 30
0.0
 40
0.00208333
 41
0.00208333
  0
VERTEX
  8
0
 10
7.46875
 20
3.42507
 30
0.0
 40
0.00208333
 41
0.00208333
  0
VERTEX
  8
0
 10
7.46875
 20
2.31299
 30
0.0
 40
0.00208333
 41
0.00208333
  0
VERTEX
  8
0
 10
6.21072
 20
2.31299
 30
0.0
 40
0.00208333
 41
0.00208333
  0
VERTEX
  8
0
 10
6.21072
 20
3.42507
 30
0.0
 40
0.00208333
 41
0.00208333
  0
SEQEND
 8
0
  0
TEXT
  8
0
 62
     0
 10
6.61693
 20
2.38879
 30
0.0
 40
0.34375
  1
WC
 50
90
  0
POLYLINE
  8
0
 62
     7
 66
     1
 10
0
 20
0
 30
0.0
 70
     1
 40
0
 41
0
  0
VERTEX
  8
0
 10
6.21072
 20
4.90007
 30
0.0
 40
0
 41
0
  0
VERTEX
  8
0
 10
7.46875
 20
4.90007
 30
0.0
 40
0
 41
0
  0
VERTEX
  8
0
 10
7.46875
 20
3.5709
 30
0.0
 40
0
 41
0
  0
VERTEX
  8
0
 10
6.21072
 20
3.5709
 30
0.0
 40
0
 41
0
  0
VERTEX
  8
0
 10
6.21072
 20
4.90007
 30
0.0
 40
0
 41
0
  0
SEQEND
 8
0
  0
POLYLINE
  8
0
 62
     7
 66
     1
 10
0
 20
0
 30
0.0
 70
     1
 40
0.15
 41
0.15
  0
VERTEX
  8
0
 10
6.21072
 20
4.90007
 30
0.0
 40
0.00208333
 41
0.00208333
  0
VERTEX
  8
0
 10
7.46875
 20
4.90007
 30
0.0
 40
0.00208333
 41
0.00208333
  0
VERTEX
  8
0
 10
7.46875
 20
3.5709
 30
0.0
 40
0.00208333
 41
0.00208333
  0
VERTEX
  8
0
 10
6.21072
 20
3.5709
 30
0.0
 40
0.00208333
 41
0.00208333
  0
VERTEX
  8
0
 10
6.21072
 20
4.90007
 30
0.0
 40
0.00208333
 41
0.00208333
  0
SEQEND
 8
0
  0
TEXT
  8
0
 62
     0
 10
6.34101
 20
3.90353
 30
0.0
 40
0.34375
  1
VH
 50
0
  0
POLYLINE
  8
0
 62
     7
 66
     1
 10
0
 20
0
 30
0.0
 70
     1
 40
0
 41
0
  0
VERTEX
  8
0
 10
4.22689
 20
8.49278
 30
0.0
 40
0
 41
0
  0
VERTEX
  8
0
 10
5.11003
 20
8.49278
 30
0.0
 40
0
 41
0
  0
VERTEX
  8
0
 10
5.11003
 20
6.42578
 30
0.0
 40
0
 41
0
  0
VERTEX
  8
0
 10
4.22689
 20
6.42578
 30
0.0
 40
0
 41
0
  0
VERTEX
  8
0
 10
4.22689
 20
8.49278
 30
0.0
 40
0
 41
0
  0
SEQEND
 8
0
  0
POLYLINE
  8
0
 62
     7
 66
     1
 10
0
 20
0
 30
0.0
 70
     1
 40
0.15
 41
0.15
  0
VERTEX
  8
0
 10
4.22689
 20
8.49278
 30
0.0
 40
0.00208333
 41
0.00208333
  0
VERTEX
  8
0
 10
5.11003
 20
8.49278
 30
0.0
 40
0.00208333
 41
0.00208333
  0
VERTEX
  8
0
 10
5.11003
 20
6.42578
 30
0.0
 40
0.00208333
 41
0.00208333
  0
VERTEX
  8
0
 10
4.22689
 20
6.42578
 30
0.0
 40
0.00208333
 41
0.00208333
  0
VERTEX
  8
0
 10
4.22689
 20
8.49278
 30
0.0
 40
0.00208333
 41
0.00208333
  0
SEQEND
 8
0
  0
TEXT
  8
0
 62
     0
 10
4.58075
 20
7.21426
 30
0.0
 40
0.34375
  1
VH
 50
90
  0
POLYLINE
  8
0
 62
     7
 66
     1
 10
0
 20
0
 30
0.0
 70
     1
 40
0
 41
0
  0
VERTEX
  8
0
 10
7.86208
 20
8.49278
 30
0.0
 40
0
 41
0
  0
VERTEX
  8
0
 10
9.39208
 20
8.49278
 30
0.0
 40
0
 41
0
  0
VERTEX
  8
0
 10
9.39208
 20
6.42578
 30
0.0
 40
0
 41
0
  0
VERTEX
  8
0
 10
7.86208
 20
6.42578
 30
0.0
 40
0
 41
0
  0
VERTEX
  8
0
 10
7.86208
 20
8.49278
 30
0.0
 40
0
 41
0
  0
SEQEND
 8
0
  0
POLYLINE
  8
0
 62
     7
 66
     1
 10
0
 20
0
 30
0.0
 70
     1
 40
0.15
 41
0.15
  0
VERTEX
  8
0
 10
7.86208
 20
8.49278
 30
0.0
 40
0.00208333
 41
0.00208333
  0
VERTEX
  8
0
 10
9.39208
 20
8.49278
 30
0.0
 40
0.00208333
 41
0.00208333
  0
VERTEX
  8
0
 10
9.39208
 20
6.42578
 30
0.0
 40
0.00208333
 41
0.00208333
  0
VERTEX
  8
0
 10
7.86208
 20
6.42578
 30
0.0
 40
0.00208333
 41
0.00208333
  0
VERTEX
  8
0
 10
7.86208
 20
8.49278
 30
0.0
 40
0.00208333
 41
0.00208333
  0
SEQEND
 8
0
  0
TEXT
  8
0
 62
     0
 10
8.62707
 20
7.72775
 30
0.0
 40
0.34375
  1
UNDEFINED
 50
0
  0
POLYLINE
  8
0
 62
     7
 66
     1
 10
0
 20
0
 30
0.0
 70
     1
 40
0
 41
0
  0
VERTEX
  8
0
 10
5.25586
 20
8.49278
 30
0.0
 40
0
 41
0
  0
VERTEX
  8
0
 10
7.71625
 20
8.49278
 30
0.0
 40
0
 41
0
  0
VERTEX
  8
0
 10
7.71625
 20
6.42578
 30
0.0
 40
0
 41
0
  0
VERTEX
  8
0
 10
5.25586
 20
6.42578
 30
0.0
 40
0
 41
0
  0
VERTEX
  8
0
 10
5.25586
 20
8.49278
 30
0.0
 40
0
 41
0
  0
SEQEND
 8
0
  0
POLYLINE
  8
0
 62
     7
 66
     1
 10
0
 20
0
 30
0.0
 70
     1
 40
0.15
 41
0.15
  0
VERTEX
  8
0
 10
5.25586
 20
8.49278
 30
0.0
 40
0.00208333
 41
0.00208333
  0
VERTEX
  8
0
 10
7.71625
 20
8.49278
 30
0.0
 40
0.00208333
 41
0.00208333
  0
VERTEX
  8
0
 10
7.71625
 20
6.42578
 30
0.0
 40
0.00208333
 41
0.00208333
  0
VERTEX
  8
0
 10
5.25586
 20
6.42578
 30
0.0
 40
0.00208333
 41
0.00208333
  0
VERTEX
  8
0
 10
5.25586
 20
8.49278
 30
0.0
 40
0.00208333
 41
0.00208333
  0
SEQEND
 8
0
  0
TEXT
  8
0
 62
     0
 10
6.34504
 20
7.11219
 30
0.0
 40
0.34375
  1
PH
 50
0
  0
POLYLINE
  8
0
 62
     7
 66
     1
 10
0
 20
0
 30
0.0
 70
     1
 40
0
 41
0
  0
VERTEX
  8
0
 10
4.08106
 20
6.33068
 30
0.0
 40
0
 41
0
  0
VERTEX
  8
0
 10
4.0804
 20
6.33068
 30
0.0
 40
0
 41
0
  0
VERTEX
  8
0
 10
4.0804
 20
5.259
 30
0.0
 40
0
 41
0
  0
VERTEX
  8
0
 10
0.606065
 20
5.259
 30
0.0
 40
0
 41
0
  0
VERTEX
  8
0
 10
0.606065
 20
5.26307
 30
0.0
 40
0
 41
0
  0
VERTEX
  8
0
 10
0.91721
 20
5.26307
 30
0.0
 40
0
 41
0
  0
VERTEX
  8
0
 10
0.91721
 20
5.55735
 30
0.0
 40
0
 41
0
  0
VERTEX
  8
0
 10
0.606065
 20
5.55735
 30
0.0
 40
0
 41
0
  0
VERTEX
  8
0
 10
0.606065
 20
8.49278
 30
0.0
 40
0
 41
0
  0
VERTEX
  8
0
 10
4.08106
 20
8.49278
 30
0.0
 40
0
 41
0
  0
VERTEX
  8
0
 10
4.08106
 20
6.33068
 30
0.0
 40
0
 41
0
  0
SEQEND
 8
0
  0
POLYLINE
  8
0
 62
     7
 66
     1
 10
0
 20
0
 30
0.0
 70
     1
 40
0.15
 41
0.15
  0
VERTEX
  8
0
 10
4.08106
 20
6.33068
 30
0.0
 40
0.00208333
 41
0.00208333
  0
VERTEX
  8
0
 10
4.0804
 20
6.33068
 30
0.0
 40
0.00208333
 41
0.00208333
  0
VERTEX
  8
0
 10
4.0804
 20
5.259
 30
0.0
 40
0.00208333
 41
0.00208333
  0
VERTEX
  8
0
 10
0.606065
 20
5.259
 30
0.0
 40
0.00208333
 41
0.00208333
  0
VERTEX
  8
0
 10
0.606065
 20
5.26307
 30
0.0
 40
0.00208333
 41
0.00208333
  0
VERTEX
  8
0
 10
0.91721
 20
5.26307
 30
0.0
 40
0.00208333
 41
0.00208333
  0
VERTEX
  8
0
 10
0.91721
 20
5.55735
 30
0.0
 40
0.00208333
 41
0.00208333
  0
VERTEX
  8
0
 10
0.606065
 20
5.55735
 30
0.0
 40
0.00208333
 41
0.00208333
  0
VERTEX
  8
0
 10
0.606065
 20
8.49278
 30
0.0
 40
0.00208333
 41
0.00208333
  0
VERTEX
  8
0
 10
4.08106
 20
8.49278
 30
0.0
 40
0.00208333
 41
0.00208333
  0
VERTEX
  8
0
 10
4.08106
 20
6.33068
 30
0.0
 40
0.00208333
 41
0.00208333
  0
SEQEND
 8
0
  0
TEXT
  8
0
 62
     0
 10
2.12222
 20
6.64072
 30
0.0
 40
0.34375
  1
MH
 50
0
  0
POLYLINE
  8
0
 62
     7
 66
     1
 10
0
 20
0
 30
0.0
 70
     1
 40
0
 41
0
  0
VERTEX
  8
0
 10
0.606065
 20
5.134
 30
0.0
 40
0
 41
0
  0
VERTEX
  8
0
 10
4.0804
 20
5.134
 30
0.0
 40
0
 41
0
  0
VERTEX
  8
0
 10
4.0804
 20
1.21099
 30
0.0
 40
0
 41
0
  0
VERTEX
  8
0
 10
0.606065
 20
1.21099
 30
0.0
 40
0
 41
0
  0
VERTEX
  8
0
 10
0.606065
 20
5.134
 30
0.0
 40
0
 41
0
  0
SEQEND
 8
0
  0
POLYLINE
  8
0
 62
     7
 66
     1
 10
0
 20
0
 30
0.0
 70
     1
 40
0.15
 41
0.15
  0
VERTEX
  8
0
 10
0.606065
 20
5.134
 30
0.0
 40
0.00208333
 41
0.00208333
  0
VERTEX
  8
0
 10
4.0804
 20
5.134
 30
0.0
 40
0.00208333
 41
0.00208333
  0
VERTEX
  8
0
 10
4.0804
 20
1.21099
 30
0.0
 40
0.00208333
 41
0.00208333
  0
VERTEX
  8
0
 10
0.606065
 20
1.21099
 30
0.0
 40
0.00208333
 41
0.00208333
  0
VERTEX
  8
0
 10
0.606065
 20
5.134
 30
0.0
 40
0.00208333
 41
0.00208333
  0
SEQEND
 8
0
  0
TEXT
  8
0
 62
     0
 10
2.13536
 20
3.05544
 30
0.0
 40
0.34375
  1
MH
 50
0
  0
POLYLINE
  8
0
 62
     7
 66
     1
 10
0
 20
0
 30
0.0
 70
     1
 40
0
 41
0
  0
VERTEX
  8
0
 10
9.03207
 20
5.0459
 30
0.0
 40
0
 41
0
  0
VERTEX
  8
0
 10
10.3299
 20
5.0459
 30
0.0
 40
0
 41
0
  0
VERTEX
  8
0
 10
10.3299
 20
4.91049
 30
0.0
 40
0
 41
0
  0
VERTEX
  8
0
 10
9.03207
 20
4.91049
 30
0.0
 40
0
 41
0
  0
VERTEX
  8
0
 10
9.03207
 20
5.0459
 30
0.0
 40
0
 41
0
  0
SEQEND
 8
0
  0
POLYLINE
  8
0
 62
     7
 66
     1
 10
0
 20
0
 30
0.0
 70
     1
 40
0.15
 41
0.15
  0
VERTEX
  8
0
 10
9.03207
 20
5.0459
 30
0.0
 40
0.00208333
 41
0.00208333
  0
VERTEX
  8
0
 10
10.3299
 20
5.0459
 30
0.0
 40
0.00208333
 41
0.00208333
  0
VERTEX
  8
0
 10
10.3299
 20
4.91049
 30
0.0
 40
0.00208333
 41
0.00208333
  0
VERTEX
  8
0
 10
9.03207
 20
4.91049
 30
0.0
 40
0.00208333
 41
0.00208333
  0
VERTEX
  8
0
 10
9.03207
 20
5.0459
 30
0.0
 40
0.00208333
 41
0.00208333
  0
SEQEND
 8
0
  0
TEXT
  8
0
 62
     0
 10
9.09985
 20
4.97818
 30
0.0
 40
0.34375
  1
UNDEFINED
 50
0
  0
POLYLINE
  8
0
 62
     7
 66
     1
 10
0
 20
0
 30
0.0
 70
     1
 40
0
 41
0
  0
VERTEX
  8
0
 10
10.3299
 20
5.0459
 30
0.0
 40
0
 41
0
  0
VERTEX
  8
0
 10
13.4587
 20
5.0459
 30
0.0
 40
0
 41
0
  0
VERTEX
  8
0
 10
13.4587
 20
2.31299
 30
0.0
 40
0
 41
0
  0
VERTEX
  8
0
 10
10.3299
 20
2.31299
 30
0.0
 40
0
 41
0
  0
VERTEX
  8
0
 10
10.3299
 20
5.0459
 30
0.0
 40
0
 41
0
  0
SEQEND
 8
0
  0
POLYLINE
  8
0
 62
     7
 66
     1
 10
0
 20
0
 30
0.0
 70
     1
 40
0.15
 41
0.15
  0
VERTEX
  8
0
 10
10.3299
 20
5.0459
 30
0.0
 40
0.00208333
 41
0.00208333
  0
VERTEX
  8
0
 10
13.4587
 20
5.0459
 30
0.0
 40
0.00208333
 41
0.00208333
  0
VERTEX
  8
0
 10
13.4587
 20
2.31299
 30
0.0
 40
0.00208333
 41
0.00208333
  0
VERTEX
  8
0
 10
10.3299
 20
2.31299
 30
0.0
 40
0.00208333
 41
0.00208333
  0
VERTEX
  8
0
 10
10.3299
 20
5.0459
 30
0.0
 40
0.00208333
 41
0.00208333
  0
SEQEND
 8
0
  0
TEXT
  8
0
 62
     0
 10
11.9485
 20
3.72282
 30
0.0
 40
0.34375
  1
R
 50
0
  0
POLYLINE
  8
0
 62
     7
 66
     1
 10
0
 20
0
 30
0.0
 70
     1
 40
0
 41
0
  0
VERTEX
  8
0
 10
10.3299
 20
2.31299
 30
0.0
 40
0
 41
0
  0
VERTEX
  8
0
 10
8.22999
 20
2.31299
 30
0.0
 40
0
 41
0
  0
VERTEX
  8
0
 10
8.22999
 20
2.558
 30
0.0
 40
0
 41
0
  0
VERTEX
  8
0
 10
7.59375
 20
2.558
 30
0.0
 40
0
 41
0
  0
VERTEX
  8
0
 10
7.59375
 20
4.90007
 30
0.0
 40
0
 41
0
  0
VERTEX
  8
0
 10
8.23242
 20
4.90007
 30
0.0
 40
0
 41
0
  0
VERTEX
  8
0
 10
8.23242
 20
5.0459
 30
0.0
 40
0
 41
0
  0
VERTEX
  8
0
 10
10.3299
 20
5.0459
 30
0.0
 40
0
 41
0
  0
VERTEX
  8
0
 10
10.3299
 20
2.31299
 30
0.0
 40
0
 41
0
  0
SEQEND
 8
0
  0
POLYLINE
  8
0
 62
     7
 66
     1
 10
0
 20
0
 30
0.0
 70
     1
 40
0.15
 41
0.15
  0
VERTEX
  8
0
 10
10.3299
 20
2.31299
 30
0.0
 40
0.00208333
 41
0.00208333
  0
VERTEX
  8
0
 10
8.22999
 20
2.31299
 30
0.0
 40
0.00208333
 41
0.00208333
  0
VERTEX
  8
0
 10
8.22999
 20
2.558
 30
0.0
 40
0.00208333
 41
0.00208333
  0
VERTEX
  8
0
 10
7.59375
 20
2.558
 30
0.0
 40
0.00208333
 41
0.00208333
  0
VERTEX
  8
0
 10
7.59375
 20
4.90007
 30
0.0
 40
0.00208333
 41
0.00208333
  0
VERTEX
  8
0
 10
8.23242
 20
4.90007
 30
0.0
 40
0.00208333
 41
0.00208333
  0
VERTEX
  8
0
 10
8.23242
 20
5.0459
 30
0.0
 40
0.00208333
 41
0.00208333
  0
VERTEX
  8
0
 10
10.3299
 20
5.0459
 30
0.0
 40
0.00208333
 41
0.00208333
  0
VERTEX
  8
0
 10
10.3299
 20
2.31299
 30
0.0
 40
0.00208333
 41
0.00208333
  0
SEQEND
 8
0
  0
TEXT
  8
0
 62
     0
 10
8.94921
 20
3.57079
 30
0.0
 40
0.34375
  1
K
 50
0
  0
POLYLINE
  8
0
 62
     7
 66
     1
 10
0
 20
0
 30
0.0
 70
     1
 40
0
 41
0
  0
VERTEX
  8
0
 10
9.54833
 20
8.49278
 30
0.0
 40
0
 41
0
  0
VERTEX
  8
0
 10
13.4587
 20
8.49278
 30
0.0
 40
0
 41
0
  0
VERTEX
  8
0
 10
13.4587
 20
5.0459
 30
0.0
 40
0
 41
0
  0
VERTEX
  8
0
 10
9.54833
 20
5.0459
 30
0.0
 40
0
 41
0
  0
VERTEX
  8
0
 10
9.54833
 20
8.49278
 30
0.0
 40
0
 41
0
  0
SEQEND
 8
0
  0
POLYLINE
  8
0
 62
     7
 66
     1
 10
0
 20
0
 30
0.0
 70
     1
 40
0.15
 41
0.15
  0
VERTEX
  8
0
 10
9.54833
 20
8.49278
 30
0.0
 40
0.00208333
 41
0.00208333
  0
VERTEX
  8
0
 10
13.4587
 20
8.49278
 30
0.0
 40
0.00208333
 41
0.00208333
  0
VERTEX
  8
0
 10
13.4587
 20
5.0459
 30
0.0
 40
0.00208333
 41
0.00208333
  0
VERTEX
  8
0
 10
9.54833
 20
5.0459
 30
0.0
 40
0.00208333
 41
0.00208333
  0
VERTEX
  8
0
 10
9.54833
 20
8.49278
 30
0.0
 40
0.00208333
 41
0.00208333
  0
SEQEND
 8
0
  0
TEXT
  8
0
 62
     0
 10
11.4818
 20
6.51983
 30
0.0
 40
0.34375
  1
OH
 50
0
  0
POLYLINE
  8
0
 62
     7
 66
     1
 10
0
 20
0
 30
0.0
 70
     1
 40
0
 41
0
  0
VERTEX
  8
0
 10
9.54833
 20
5.0459
 30
0.0
 40
0
 41
0
  0
VERTEX
  8
0
 10
6.06489
 20
5.0459
 30
0.0
 40
0
 41
0
  0
VERTEX
  8
0
 10
6.06489
 20
1.21099
 30
0.0
 40
0
 41
0
  0
VERTEX
  8
0
 10
4.2054
 20
1.21099
 30
0.0
 40
0
 41
0
  0
VERTEX
  8
0
 10
4.2054
 20
6.27994
 30
0.0
 40
0
 41
0
  0
VERTEX
  8
0
 10
9.54833
 20
6.27994
 30
0.0
 40
0
 41
0
  0
VERTEX
  8
0
 10
9.54833
 20
5.0459
 30
0.0
 40
0
 41
0
  0
SEQEND
 8
0
  0
POLYLINE
  8
0
 62
     7
 66
     1
 10
0
 20
0
 30
0.0
 70
     1
 40
0.15
 41
0.15
  0
VERTEX
  8
0
 10
9.54833
 20
5.0459
 30
0.0
 40
0.00208333
 41
0.00208333
  0
VERTEX
  8
0
 10
6.06489
 20
5.0459
 30
0.0
 40
0.00208333
 41
0.00208333
  0
VERTEX
  8
0
 10
6.06489
 20
1.21099
 30
0.0
 40
0.00208333
 41
0.00208333
  0
VERTEX
  8
0
 10
4.2054
 20
1.21099
 30
0.0
 40
0.00208333
 41
0.00208333
  0
VERTEX
  8
0
 10
4.2054
 20
6.27994
 30
0.0
 40
0.00208333
 41
0.00208333
  0
VERTEX
  8
0
 10
9.54833
 20
6.27994
 30
0.0
 40
0.00208333
 41
0.00208333
  0
VERTEX
  8
0
 10
9.54833
 20
5.0459
 30
0.0
 40
0.00208333
 41
0.00208333
  0
SEQEND
 8
0
  0
TEXT
  8
0
 62
     0
 10
4.98121
 20
3.83092
 30
0.0
 40
0.34375
  1
ET
 50
0
  0
POLYLINE
  8
0
 62
     7
 66
     1
 10
0
 20
0
 30
0.0
 70
     1
 40
0
 41
0
  0
VERTEX
  8
0
 10
13.6878
 20
8.59694
 30
0.0
 40
0
 41
0
  0
VERTEX
  8
0
 10
14.9631
 20
8.59694
 30
0.0
 40
0
 41
0
  0
VERTEX
  8
0
 10
14.9631
 20
5.71599
 30
0.0
 40
0
 41
0
  0
VERTEX
  8
0
 10
13.6878
 20
5.71599
 30
0.0
 40
0
 41
0
  0
VERTEX
  8
0
 10
13.6878
 20
8.59694
 30
0.0
 40
0
 41
0
  0
SEQEND
 8
0
  0
POLYLINE
  8
0
 62
     0
 66
     1
 10
0
 20
0
 30
0.0
 70
     1
 40
0.15
 41
0.15
  0
VERTEX
  8
0
 10
13.6878
 20
8.59694
 30
0.0
 40
0.00208333
 41
0.00208333
  0
VERTEX
  8
0
 10
14.9631
 20
8.59694
 30
0.0
 40
0.00208333
 41
0.00208333
  0
VERTEX
  8
0
 10
14.9631
 20
5.71599
 30
0.0
 40
0.00208333
 41
0.00208333
  0
VERTEX
  8
0
 10
13.6878
 20
5.71599
 30
0.0
 40
0.00208333
 41
0.00208333
  0
VERTEX
  8
0
 10
13.6878
 20
8.59694
 30
0.0
 40
0.00208333
 41
0.00208333
  0
SEQEND
 8
0
  0
TEXT
  8
0
 62
     0
 10
14.3254
 20
7.95935
 30
0.0
 40
0.34375
  1
ULK
 50
0
  0
TEXT
  8
0
 62
     0
 10
15.0031
 20
7.95935
 30
0.0
 40
0.34375
  1
O
 50
0
  0
TEXT
  8
0
 62
     0
 10
15.2654
 20
7.95935
 30
0.0
 40
0.34375
  1
TILA
 50
0
  0
POLYLINE
  8
0
 62
     0
 66
     1
 10
0
 20
0
 30
0.0
 70
     1
 40
0
 41
0
  0
VERTEX
  8
0
 10
0.376899
 20
8.72194
 30
0.0
 40
0
 41
0
  0
VERTEX
  8
0
 10
13.6878
 20
8.72194
 30
0.0
 40
0
 41
0
  0
VERTEX
  8
0
 10
13.4587
 20
8.49278
 30
0.0
 40
0
 41
0
  0
VERTEX
  8
0
 10
0.606065
 20
8.49278
 30
0.0
 40
0
 41
0
  0
VERTEX
  8
0
 10
0.376899
 20
8.72194
 30
0.0
 40
0
 41
0
  0
SEQEND
 8
0
  0
POLYLINE
  8
0
 62
     0
 66
     1
 10
0
 20
0
 30
0.0
 70
     1
 40
0.15
 41
0.15
  0
VERTEX
  8
0
 10
0.376899
 20
8.72194
 30
0.0
 40
0.00208333
 41
0.00208333
  0
VERTEX
  8
0
 10
13.6878
 20
8.72194
 30
0.0
 40
0.00208333
 41
0.00208333
  0
VERTEX
  8
0
 10
13.4587
 20
8.49278
 30
0.0
 40
0.00208333
 41
0.00208333
  0
VERTEX
  8
0
 10
0.606065
 20
8.49278
 30
0.0
 40
0.00208333
 41
0.00208333
  0
VERTEX
  8
0
 10
0.376899
 20
8.72194
 30
0.0
 40
0.00208333
 41
0.00208333
  0
SEQEND
 8
0
  0
POLYLINE
  8
0
 62
     0
 66
     1
 10
0
 20
0
 30
0.0
 70
     1
 40
0
 41
0
  0
VERTEX
  8
0
 10
13.6878
 20
8.72194
 30
0.0
 40
0
 41
0
  0
VERTEX
  8
0
 10
13.6878
 20
2.08382
 30
0.0
 40
0
 41
0
  0
VERTEX
  8
0
 10
13.4587
 20
2.31299
 30
0.0
 40
0
 41
0
  0
VERTEX
  8
0
 10
13.4587
 20
8.49278
 30
0.0
 40
0
 41
0
  0
VERTEX
  8
0
 10
13.6878
 20
8.72194
 30
0.0
 40
0
 41
0
  0
SEQEND
 8
0
  0
POLYLINE
  8
0
 62
     0
 66
     1
 10
0
 20
0
 30
0.0
 70
     1
 40
0.15
 41
0.15
  0
VERTEX
  8
0
 10
13.6878
 20
8.72194
 30
0.0
 40
0.00208333
 41
0.00208333
  0
VERTEX
  8
0
 10
13.6878
 20
2.08382
 30
0.0
 40
0.00208333
 41
0.00208333
  0
VERTEX
  8
0
 10
13.4587
 20
2.31299
 30
0.0
 40
0.00208333
 41
0.00208333
  0
VERTEX
  8
0
 10
13.4587
 20
8.49278
 30
0.0
 40
0.00208333
 41
0.00208333
  0
VERTEX
  8
0
 10
13.6878
 20
8.72194
 30
0.0
 40
0.00208333
 41
0.00208333
  0
SEQEND
 8
0
  0
POLYLINE
  8
0
 62
     7
 66
     1
 10
0
 20
0
 30
0.0
 70
     1
 40
0
 41
0
  0
VERTEX
  8
0
 10
13.4587
 20
6.79904
 30
0.0
 40
0
 41
0
  0
VERTEX
  8
0
 10
13.6878
 20
6.79904
 30
0.0
 40
0
 41
0
  0
VERTEX
  8
0
 10
13.6878
 20
5.82194
 30
0.0
 40
0
 41
0
  0
VERTEX
  8
0
 10
13.4587
 20
5.82194
 30
0.0
 40
0
 41
0
  0
VERTEX
  8
0
 10
13.4587
 20
6.79904
 30
0.0
 40
0
 41
0
  0
SEQEND
 8
0
  0
POLYLINE
  8
0
 62
     0
 66
     1
 10
0
 20
0
 30
0.0
 70
     1
 40
0.75
 41
0.75
  0
VERTEX
  8
0
 10
13.4587
 20
6.79904
 30
0.0
 40
0.0104167
 41
0.0104167
  0
VERTEX
  8
0
 10
13.6878
 20
6.79904
 30
0.0
 40
0.0104167
 41
0.0104167
  0
VERTEX
  8
0
 10
13.6878
 20
5.82194
 30
0.0
 40
0.0104167
 41
0.0104167
  0
VERTEX
  8
0
 10
13.4587
 20
5.82194
 30
0.0
 40
0.0104167
 41
0.0104167
  0
VERTEX
  8
0
 10
13.4587
 20
6.79904
 30
0.0
 40
0.0104167
 41
0.0104167
  0
SEQEND
 8
0
  0
POLYLINE
  8
0
 62
     7
 66
     1
 10
0
 20
0
 30
0.0
 70
     1
 40
0
 41
0
  0
VERTEX
  8
0
 10
13.4587
 20
6.79904
 30
0.0
 40
0
 41
0
  0
VERTEX
  8
0
 10
13.6878
 20
6.79904
 30
0.0
 40
0
 41
0
  0
VERTEX
  8
0
 10
13.6878
 20
5.82194
 30
0.0
 40
0
 41
0
  0
VERTEX
  8
0
 10
13.4587
 20
5.82194
 30
0.0
 40
0
 41
0
  0
VERTEX
  8
0
 10
13.4587
 20
6.79904
 30
0.0
 40
0
 41
0
  0
SEQEND
 8
0
  0
POLYLINE
  8
0
 62
     0
 66
     1
 10
0
 20
0
 30
0.0
 70
     1
 40
0.75
 41
0.75
  0
VERTEX
  8
0
 10
13.4587
 20
6.79904
 30
0.0
 40
0.0104167
 41
0.0104167
  0
VERTEX
  8
0
 10
13.6878
 20
6.79904
 30
0.0
 40
0.0104167
 41
0.0104167
  0
VERTEX
  8
0
 10
13.6878
 20
5.82194
 30
0.0
 40
0.0104167
 41
0.0104167
  0
VERTEX
  8
0
 10
13.4587
 20
5.82194
 30
0.0
 40
0.0104167
 41
0.0104167
  0
VERTEX
  8
0
 10
13.4587
 20
6.79904
 30
0.0
 40
0.0104167
 41
0.0104167
  0
SEQEND
 8
0
  0
POLYLINE
  8
0
 62
     0
 66
     1
 10
0
 20
0
 30
0.0
 70
     1
 40
0.75
 41
0.75
  0
VERTEX
  8
0
 10
13.6878
 20
6.79904
 30
0.0
 40
0.0104167
 41
0.0104167
  0
VERTEX
  8
0
 10
13.7451
 20
6.79904
 30
0.0
 40
0.0104167
 41
0.0104167
  0
VERTEX
  8
0
 10
13.9168
 20
6.78381
 30
0.0
 40
0.0104167
 41
0.0104167
  0
VERTEX
  8
0
 10
14.1153
 20
6.73801
 30
0.0
 40
0.0104167
 41
0.0104167
  0
VERTEX
  8
0
 10
14.2832
 20
6.66168
 30
0.0
 40
0.0104167
 41
0.0104167
  0
VERTEX
  8
0
 10
14.4206
 20
6.55479
 30
0.0
 40
0.0104167
 41
0.0104167
  0
VERTEX
  8
0
 10
14.5275
 20
6.41737
 30
0.0
 40
0.0104167
 41
0.0104167
  0
VERTEX
  8
0
 10
14.6037
 20
6.24946
 30
0.0
 40
0.0104167
 41
0.0104167
  0
VERTEX
  8
0
 10
14.6496
 20
6.05094
 30
0.0
 40
0.0104167
 41
0.0104167
  0
VERTEX
  8
0
 10
14.6649
 20
5.87924
 30
0.0
 40
0.0104167
 41
0.0104167
  0
VERTEX
  8
0
 10
14.6649
 20
5.82194
 30
0.0
 40
0.0104167
 41
0.0104167
  0
VERTEX
  8
0
 10
13.6878
 20
5.82194
 30
0.0
 40
0.0104167
 41
0.0104167
  0
VERTEX
  8
0
 10
13.6878
 20
6.79904
 30
0.0
 40
0.0104167
 41
0.0104167
  0
SEQEND
 8
0
  0
POLYLINE
  8
0
 62
     7
 66
     1
 10
0
 20
0
 30
0.0
 70
     1
 40
0
 41
0
  0
VERTEX
  8
0
 10
13.4587
 20
8.13351
 30
0.0
 40
0
 41
0
  0
VERTEX
  8
0
 10
13.6878
 20
8.13351
 30
0.0
 40
0
 41
0
  0
VERTEX
  8
0
 10
13.6878
 20
6.8705
 30
0.0
 40
0
 41
0
  0
VERTEX
  8
0
 10
13.4587
 20
6.8705
 30
0.0
 40
0
 41
0
  0
VERTEX
  8
0
 10
13.4587
 20
8.13351
 30
0.0
 40
0
 41
0
  0
SEQEND
 8
0
  0
POLYLINE
  8
0
 62
     0
 66
     1
 10
0
 20
0
 30
0.0
 70
     1
 40
0.75
 41
0.75
  0
VERTEX
  8
0
 10
13.4587
 20
8.13351
 30
0.0
 40
0.0104167
 41
0.0104167
  0
VERTEX
  8
0
 10
13.6878
 20
8.13351
 30
0.0
 40
0.0104167
 41
0.0104167
  0
VERTEX
  8
0
 10
13.6878
 20
6.8705
 30
0.0
 40
0.0104167
 41
0.0104167
  0
VERTEX
  8
0
 10
13.4587
 20
6.8705
 30
0.0
 40
0.0104167
 41
0.0104167
  0
VERTEX
  8
0
 10
13.4587
 20
8.13351
 30
0.0
 40
0.0104167
 41
0.0104167
  0
SEQEND
 8
0
  0
POLYLINE
  8
0
 62
     7
 66
     1
 10
0
 20
0
 30
0.0
 70
     1
 40
0
 41
0
  0
VERTEX
  8
0
 10
13.4587
 20
8.13351
 30
0.0
 40
0
 41
0
  0
VERTEX
  8
0
 10
13.6878
 20
8.13351
 30
0.0
 40
0
 41
0
  0
VERTEX
  8
0
 10
13.6878
 20
6.8705
 30
0.0
 40
0
 41
0
  0
VERTEX
  8
0
 10
13.4587
 20
6.8705
 30
0.0
 40
0
 41
0
  0
VERTEX
  8
0
 10
13.4587
 20
8.13351
 30
0.0
 40
0
 41
0
  0
SEQEND
 8
0
  0
POLYLINE
  8
0
 62
     0
 66
     1
 10
0
 20
0
 30
0.0
 70
     1
 40
0.75
 41
0.75
  0
VERTEX
  8
0
 10
13.4587
 20
8.13351
 30
0.0
 40
0.0104167
 41
0.0104167
  0
VERTEX
  8
0
 10
13.6878
 20
8.13351
 30
0.0
 40
0.0104167
 41
0.0104167
  0
VERTEX
  8
0
 10
13.6878
 20
6.8705
 30
0.0
 40
0.0104167
 41
0.0104167
  0
VERTEX
  8
0
 10
13.4587
 20
6.8705
 30
0.0
 40
0.0104167
 41
0.0104167
  0
VERTEX
  8
0
 10
13.4587
 20
8.13351
 30
0.0
 40
0.0104167
 41
0.0104167
  0
SEQEND
 8
0
  0
POLYLINE
  8
0
 62
     0
 66
     1
 10
0
 20
0
 30
0.0
 40
0.75
 41
0.75
  0
VERTEX
  8
0
 10
13.5732
 20
8.05539
 30
0.0
 40
0.0104167
 41
0.0104167
  0
VERTEX
  8
0
 10
13.5732
 20
6.94862
 30
0.0
 40
0.0104167
 41
0.0104167
  0
SEQEND
 8
0
  0
POLYLINE
  8
0
 62
     0
 66
     1
 10
0
 20
0
 30
0.0
 40
0.75
 41
0.75
  0
VERTEX
  8
0
 10
13.6878
 20
8.05539
 30
0.0
 40
0.0104167
 41
0.0104167
  0
VERTEX
  8
0
 10
13.4587
 20
8.05539
 30
0.0
 40
0.0104167
 41
0.0104167
  0
SEQEND
 8
0
  0
POLYLINE
  8
0
 62
     0
 66
     1
 10
0
 20
0
 30
0.0
 40
0.75
 41
0.75
  0
VERTEX
  8
0
 10
13.6878
 20
6.94862
 30
0.0
 40
0.0104167
 41
0.0104167
  0
VERTEX
  8
0
 10
13.4587
 20
6.94862
 30
0.0
 40
0.0104167
 41
0.0104167
  0
SEQEND
 8
0
  0
POLYLINE
  8
0
 62
     7
 66
     1
 10
0
 20
0
 30
0.0
 70
     1
 40
0
 41
0
  0
VERTEX
  8
0
 10
13.4587
 20
5.04736
 30
0.0
 40
0
 41
0
  0
VERTEX
  8
0
 10
13.6878
 20
5.04736
 30
0.0
 40
0
 41
0
  0
VERTEX
  8
0
 10
13.6878
 20
3.16476
 30
0.0
 40
0
 41
0
  0
VERTEX
  8
0
 10
13.4587
 20
3.16476
 30
0.0
 40
0
 41
0
  0
VERTEX
  8
0
 10
13.4587
 20
5.04736
 30
0.0
 40
0
 41
0
  0
SEQEND
 8
0
  0
POLYLINE
  8
0
 62
     0
 66
     1
 10
0
 20
0
 30
0.0
 70
     1
 40
0.75
 41
0.75
  0
VERTEX
  8
0
 10
13.4587
 20
5.04736
 30
0.0
 40
0.0104167
 41
0.0104167
  0
VERTEX
  8
0
 10
13.6878
 20
5.04736
 30
0.0
 40
0.0104167
 41
0.0104167
  0
VERTEX
  8
0
 10
13.6878
 20
3.16476
 30
0.0
 40
0.0104167
 41
0.0104167
  0
VERTEX
  8
0
 10
13.4587
 20
3.16476
 30
0.0
 40
0.0104167
 41
0.0104167
  0
VERTEX
  8
0
 10
13.4587
 20
5.04736
 30
0.0
 40
0.0104167
 41
0.0104167
  0
SEQEND
 8
0
  0
POLYLINE
  8
0
 62
     7
 66
     1
 10
0
 20
0
 30
0.0
 70
     1
 40
0
 41
0
  0
VERTEX
  8
0
 10
13.4587
 20
5.04736
 30
0.0
 40
0
 41
0
  0
VERTEX
  8
0
 10
13.6878
 20
5.04736
 30
0.0
 40
0
 41
0
  0
VERTEX
  8
0
 10
13.6878
 20
3.16476
 30
0.0
 40
0
 41
0
  0
VERTEX
  8
0
 10
13.4587
 20
3.16476
 30
0.0
 40
0
 41
0
  0
VERTEX
  8
0
 10
13.4587
 20
5.04736
 30
0.0
 40
0
 41
0
  0
SEQEND
 8
0
  0
POLYLINE
  8
0
 62
     0
 66
     1
 10
0
 20
0
 30
0.0
 70
     1
 40
0.75
 41
0.75
  0
VERTEX
  8
0
 10
13.4587
 20
5.04736
 30
0.0
 40
0.0104167
 41
0.0104167
  0
VERTEX
  8
0
 10
13.6878
 20
5.04736
 30
0.0
 40
0.0104167
 41
0.0104167
  0
VERTEX
  8
0
 10
13.6878
 20
3.16476
 30
0.0
 40
0.0104167
 41
0.0104167
  0
VERTEX
  8
0
 10
13.4587
 20
3.16476
 30
0.0
 40
0.0104167
 41
0.0104167
  0
VERTEX
  8
0
 10
13.4587
 20
5.04736
 30
0.0
 40
0.0104167
 41
0.0104167
  0
SEQEND
 8
0
  0
POLYLINE
  8
0
 62
     0
 66
     1
 10
0
 20
0
 30
0.0
 40
0.75
 41
0.75
  0
VERTEX
  8
0
 10
13.5732
 20
4.96924
 30
0.0
 40
0.0104167
 41
0.0104167
  0
VERTEX
  8
0
 10
13.5732
 20
3.24289
 30
0.0
 40
0.0104167
 41
0.0104167
  0
SEQEND
 8
0
  0
POLYLINE
  8
0
 62
     0
 66
     1
 10
0
 20
0
 30
0.0
 40
0.75
 41
0.75
  0
VERTEX
  8
0
 10
13.6878
 20
4.96924
 30
0.0
 40
0.0104167
 41
0.0104167
  0
VERTEX
  8
0
 10
13.4587
 20
4.96924
 30
0.0
 40
0.0104167
 41
0.0104167
  0
SEQEND
 8
0
  0
POLYLINE
  8
0
 62
     0
 66
     1
 10
0
 20
0
 30
0.0
 40
0.75
 41
0.75
  0
VERTEX
  8
0
 10
13.6878
 20
3.24289
 30
0.0
 40
0.0104167
 41
0.0104167
  0
VERTEX
  8
0
 10
13.4587
 20
3.24289
 30
0.0
 40
0.0104167
 41
0.0104167
  0
SEQEND
 8
0
  0
POLYLINE
  8
0
 62
     0
 66
     1
 10
0
 20
0
 30
0.0
 70
     1
 40
0
 41
0
  0
VERTEX
  8
0
 10
13.6878
 20
2.08382
 30
0.0
 40
0
 41
0
  0
VERTEX
  8
0
 10
6.29406
 20
2.08382
 30
0.0
 40
0
 41
0
  0
VERTEX
  8
0
 10
6.06489
 20
2.31299
 30
0.0
 40
0
 41
0
  0
VERTEX
  8
0
 10
13.4587
 20
2.31299
 30
0.0
 40
0
 41
0
  0
VERTEX
  8
0
 10
13.6878
 20
2.08382
 30
0.0
 40
0
 41
0
  0
SEQEND
 8
0
  0
POLYLINE
  8
0
 62
     0
 66
     1
 10
0
 20
0
 30
0.0
 70
     1
 40
0.15
 41
0.15
  0
VERTEX
  8
0
 10
13.6878
 20
2.08382
 30
0.0
 40
0.00208333
 41
0.00208333
  0
VERTEX
  8
0
 10
6.29406
 20
2.08382
 30
0.0
 40
0.00208333
 41
0.00208333
  0
VERTEX
  8
0
 10
6.06489
 20
2.31299
 30
0.0
 40
0.00208333
 41
0.00208333
  0
VERTEX
  8
0
 10
13.4587
 20
2.31299
 30
0.0
 40
0.00208333
 41
0.00208333
  0
VERTEX
  8
0
 10
13.6878
 20
2.08382
 30
0.0
 40
0.00208333
 41
0.00208333
  0
SEQEND
 8
0
  0
POLYLINE
  8
0
 62
     0
 66
     1
 10
0
 20
0
 30
0.0
 70
     1
 40
0
 41
0
  0
VERTEX
  8
0
 10
6.06489
 20
2.31299
 30
0.0
 40
0
 41
0
  0
VERTEX
  8
0
 10
6.06489
 20
1.21099
 30
0.0
 40
0
 41
0
  0
VERTEX
  8
0
 10
6.29406
 20
0.981825
 30
0.0
 40
0
 41
0
  0
VERTEX
  8
0
 10
6.29406
 20
2.08382
 30
0.0
 40
0
 41
0
  0
VERTEX
  8
0
 10
6.06489
 20
2.31299
 30
0.0
 40
0
 41
0
  0
SEQEND
 8
0
  0
POLYLINE
  8
0
 62
     0
 66
     1
 10
0
 20
0
 30
0.0
 70
     1
 40
0.15
 41
0.15
  0
VERTEX
  8
0
 10
6.06489
 20
2.31299
 30
0.0
 40
0.00208333
 41
0.00208333
  0
VERTEX
  8
0
 10
6.06489
 20
1.21099
 30
0.0
 40
0.00208333
 41
0.00208333
  0
VERTEX
  8
0
 10
6.29406
 20
0.981825
 30
0.0
 40
0.00208333
 41
0.00208333
  0
VERTEX
  8
0
 10
6.29406
 20
2.08382
 30
0.0
 40
0.00208333
 41
0.00208333
  0
VERTEX
  8
0
 10
6.06489
 20
2.31299
 30
0.0
 40
0.00208333
 41
0.00208333
  0
SEQEND
 8
0
  0
POLYLINE
  8
0
 62
     0
 66
     1
 10
0
 20
0
 30
0.0
 70
     1
 40
0
 41
0
  0
VERTEX
  8
0
 10
6.29406
 20
0.981825
 30
0.0
 40
0
 41
0
  0
VERTEX
  8
0
 10
0.376899
 20
0.981825
 30
0.0
 40
0
 41
0
  0
VERTEX
  8
0
 10
0.606065
 20
1.21099
 30
0.0
 40
0
 41
0
  0
VERTEX
  8
0
 10
6.06489
 20
1.21099
 30
0.0
 40
0
 41
0
  0
VERTEX
  8
0
 10
6.29406
 20
0.981825
 30
0.0
 40
0
 41
0
  0
SEQEND
 8
0
  0
POLYLINE
  8
0
 62
     0
 66
     1
 10
0
 20
0
 30
0.0
 70
     1
 40
0.15
 41
0.15
  0
VERTEX
  8
0
 10
6.29406
 20
0.981825
 30
0.0
 40
0.00208333
 41
0.00208333
  0
VERTEX
  8
0
 10
0.376899
 20
0.981825
 30
0.0
 40
0.00208333
 41
0.00208333
  0
VERTEX
  8
0
 10
0.606065
 20
1.21099
 30
0.0
 40
0.00208333
 41
0.00208333
  0
VERTEX
  8
0
 10
6.06489
 20
1.21099
 30
0.0
 40
0.00208333
 41
0.00208333
  0
VERTEX
  8
0
 10
6.29406
 20
0.981825
 30
0.0
 40
0.00208333
 41
0.00208333
  0
SEQEND
 8
0
  0
POLYLINE
  8
0
 62
     7
 66
     1
 10
0
 20
0
 30
0.0
 70
     1
 40
0
 41
0
  0
VERTEX
  8
0
 10
4.9069
 20
1.21099
 30
0.0
 40
0
 41
0
  0
VERTEX
  8
0
 10
5.88417
 20
1.21099
 30
0.0
 40
0
 41
0
  0
VERTEX
  8
0
 10
5.88417
 20
0.981825
 30
0.0
 40
0
 41
0
  0
VERTEX
  8
0
 10
4.9069
 20
0.981825
 30
0.0
 40
0
 41
0
  0
VERTEX
  8
0
 10
4.9069
 20
1.21099
 30
0.0
 40
0
 41
0
  0
SEQEND
 8
0
  0
POLYLINE
  8
0
 62
     0
 66
     1
 10
0
 20
0
 30
0.0
 70
     1
 40
0.75
 41
0.75
  0
VERTEX
  8
0
 10
4.9069
 20
1.21099
 30
0.0
 40
0.0104167
 41
0.0104167
  0
VERTEX
  8
0
 10
5.88417
 20
1.21099
 30
0.0
 40
0.0104167
 41
0.0104167
  0
VERTEX
  8
0
 10
5.88417
 20
0.981825
 30
0.0
 40
0.0104167
 41
0.0104167
  0
VERTEX
  8
0
 10
4.9069
 20
0.981825
 30
0.0
 40
0.0104167
 41
0.0104167
  0
VERTEX
  8
0
 10
4.9069
 20
1.21099
 30
0.0
 40
0.0104167
 41
0.0104167
  0
SEQEND
 8
0
  0
POLYLINE
  8
0
 62
     7
 66
     1
 10
0
 20
0
 30
0.0
 70
     1
 40
0
 41
0
  0
VERTEX
  8
0
 10
4.9069
 20
1.21099
 30
0.0
 40
0
 41
0
  0
VERTEX
  8
0
 10
5.88417
 20
1.21099
 30
0.0
 40
0
 41
0
  0
VERTEX
  8
0
 10
5.88417
 20
0.981825
 30
0.0
 40
0
 41
0
  0
VERTEX
  8
0
 10
4.9069
 20
0.981825
 30
0.0
 40
0
 41
0
  0
VERTEX
  8
0
 10
4.9069
 20
1.21099
 30
0.0
 40
0
 41
0
  0
SEQEND
 8
0
  0
POLYLINE
  8
0
 62
     0
 66
     1
 10
0
 20
0
 30
0.0
 70
     1
 40
0.75
 41
0.75
  0
VERTEX
  8
0
 10
4.9069
 20
1.21099
 30
0.0
 40
0.0104167
 41
0.0104167
  0
VERTEX
  8
0
 10
5.88417
 20
1.21099
 30
0.0
 40
0.0104167
 41
0.0104167
  0
VERTEX
  8
0
 10
5.88417
 20
0.981825
 30
0.0
 40
0.0104167
 41
0.0104167
  0
VERTEX
  8
0
 10
4.9069
 20
0.981825
 30
0.0
 40
0.0104167
 41
0.0104167
  0
VERTEX
  8
0
 10
4.9069
 20
1.21099
 30
0.0
 40
0.0104167
 41
0.0104167
  0
SEQEND
 8
0
  0
POLYLINE
  8
0
 62
     0
 66
     1
 10
0
 20
0
 30
0.0
 70
     1
 40
0.75
 41
0.75
  0
VERTEX
  8
0
 10
5.88417
 20
0.981825
 30
0.0
 40
0.0104167
 41
0.0104167
  0
VERTEX
  8
0
 10
5.88417
 20
0.924587
 30
0.0
 40
0.0104167
 41
0.0104167
  0
VERTEX
  8
0
 10
5.86887
 20
0.752821
 30
0.0
 40
0.0104167
 41
0.0104167
  0
VERTEX
  8
0
 10
5.82308
 20
0.554308
 30
0.0
 40
0.0104167
 41
0.0104167
  0
VERTEX
  8
0
 10
5.74669
 20
0.386339
 30
0.0
 40
0.0104167
 41
0.0104167
  0
VERTEX
  8
0
 10
5.63981
 20
0.248915
 30
0.0
 40
0.0104167
 41
0.0104167
  0
VERTEX
  8
0
 10
5.50239
 20
0.141982
 30
0.0
 40
0.0104167
 41
0.0104167
  0
VERTEX
  8
0
 10
5.33442
 20
0.0656467
 30
0.0
 40
0.0104167
 41
0.0104167
  0
VERTEX
  8
0
 10
5.1359
 20
0.0198568
 30
0.0
 40
0.0104167
 41
0.0104167
  0
VERTEX
  8
0
 10
4.96414
 20
0.00455729
 30
0.0
 40
0.0104167
 41
0.0104167
  0
VERTEX
  8
0
 10
4.9069
 20
0.00455729
 30
0.0
 40
0.0104167
 41
0.0104167
  0
VERTEX
  8
0
 10
4.9069
 20
0.981825
 30
0.0
 40
0.0104167
 41
0.0104167
  0
VERTEX
  8
0
 10
5.88417
 20
0.981825
 30
0.0
 40
0.0104167
 41
0.0104167
  0
SEQEND
 8
0
  0
POLYLINE
  8
0
 62
     0
 66
     1
 10
0
 20
0
 30
0.0
 70
     1
 40
0.75
 41
0.75
  0
VERTEX
  8
0
 10
5.88417
 20
1.21099
 30
0.0
 40
0.0104167
 41
0.0104167
  0
VERTEX
  8
0
 10
5.88417
 20
1.26828
 30
0.0
 40
0.0104167
 41
0.0104167
  0
VERTEX
  8
0
 10
5.86887
 20
1.44006
 30
0.0
 40
0.0104167
 41
0.0104167
  0
VERTEX
  8
0
 10
5.82308
 20
1.63857
 30
0.0
 40
0.0104167
 41
0.0104167
  0
VERTEX
  8
0
 10
5.74669
 20
1.80658
 30
0.0
 40
0.0104167
 41
0.0104167
  0
VERTEX
  8
0
 10
5.63981
 20
1.94401
 30
0.0
 40
0.0104167
 41
0.0104167
  0
VERTEX
  8
0
 10
5.50239
 20
2.05089
 30
0.0
 40
0.0104167
 41
0.0104167
  0
VERTEX
  8
0
 10
5.33442
 20
2.12728
 30
0.0
 40
0.0104167
 41
0.0104167
  0
VERTEX
  8
0
 10
5.1359
 20
2.17307
 30
0.0
 40
0.0104167
 41
0.0104167
  0
VERTEX
  8
0
 10
4.96414
 20
2.18832
 30
0.0
 40
0.0104167
 41
0.0104167
  0
VERTEX
  8
0
 10
4.9069
 20
2.18832
 30
0.0
 40
0.0104167
 41
0.0104167
  0
VERTEX
  8
0
 10
4.9069
 20
1.21099
 30
0.0
 40
0.0104167
 41
0.0104167
  0
VERTEX
  8
0
 10
5.88417
 20
1.21099
 30
0.0
 40
0.0104167
 41
0.0104167
  0
SEQEND
 8
0
  0
POLYLINE
  8
0
 62
     0
 66
     1
 10
0
 20
0
 30
0.0
 70
     1
 40
0
 41
0
  0
VERTEX
  8
0
 10
0.376899
 20
0.981825
 30
0.0
 40
0
 41
0
  0
VERTEX
  8
0
 10
0.376899
 20
8.72194
 30
0.0
 40
0
 41
0
  0
VERTEX
  8
0
 10
0.606065
 20
8.49278
 30
0.0
 40
0
 41
0
  0
VERTEX
  8
0
 10
0.606065
 20
1.21099
 30
0.0
 40
0
 41
0
  0
VERTEX
  8
0
 10
0.376899
 20
0.981825
 30
0.0
 40
0
 41
0
  0
SEQEND
 8
0
  0
POLYLINE
  8
0
 62
     0
 66
     1
 10
0
 20
0
 30
0.0
 70
     1
 40
0.15
 41
0.15
  0
VERTEX
  8
0
 10
0.376899
 20
0.981825
 30
0.0
 40
0.00208333
 41
0.00208333
  0
VERTEX
  8
0
 10
0.376899
 20
8.72194
 30
0.0
 40
0.00208333
 41
0.00208333
  0
VERTEX
  8
0
 10
0.606065
 20
8.49278
 30
0.0
 40
0.00208333
 41
0.00208333
  0
VERTEX
  8
0
 10
0.606065
 20
1.21099
 30
0.0
 40
0.00208333
 41
0.00208333
  0
VERTEX
  8
0
 10
0.376899
 20
0.981825
 30
0.0
 40
0.00208333
 41
0.00208333
  0
SEQEND
 8
0
  0
POLYLINE
  8
0
 62
     7
 66
     1
 10
0
 20
0
 30
0.0
 70
     1
 40
0
 41
0
  0
VERTEX
  8
0
 10
0.376899
 20
7.10883
 30
0.0
 40
0
 41
0
  0
VERTEX
  8
0
 10
0.606065
 20
7.10883
 30
0.0
 40
0
 41
0
  0
VERTEX
  8
0
 10
0.606065
 20
5.89339
 30
0.0
 40
0
 41
0
  0
VERTEX
  8
0
 10
0.376899
 20
5.89339
 30
0.0
 40
0
 41
0
  0
VERTEX
  8
0
 10
0.376899
 20
7.10883
 30
0.0
 40
0
 41
0
  0
SEQEND
 8
0
  0
POLYLINE
  8
0
 62
     0
 66
     1
 10
0
 20
0
 30
0.0
 70
     1
 40
0.75
 41
0.75
  0
VERTEX
  8
0
 10
0.376899
 20
7.10883
 30
0.0
 40
0.0104167
 41
0.0104167
  0
VERTEX
  8
0
 10
0.606065
 20
7.10883
 30
0.0
 40
0.0104167
 41
0.0104167
  0
VERTEX
  8
0
 10
0.606065
 20
5.89339
 30
0.0
 40
0.0104167
 41
0.0104167
  0
VERTEX
  8
0
 10
0.376899
 20
5.89339
 30
0.0
 40
0.0104167
 41
0.0104167
  0
VERTEX
  8
0
 10
0.376899
 20
7.10883
 30
0.0
 40
0.0104167
 41
0.0104167
  0
SEQEND
 8
0
  0
POLYLINE
  8
0
 62
     7
 66
     1
 10
0
 20
0
 30
0.0
 70
     1
 40
0
 41
0
  0
VERTEX
  8
0
 10
0.376899
 20
7.10883
 30
0.0
 40
0
 41
0
  0
VERTEX
  8
0
 10
0.606065
 20
7.10883
 30
0.0
 40
0
 41
0
  0
VERTEX
  8
0
 10
0.606065
 20
5.89339
 30
0.0
 40
0
 41
0
  0
VERTEX
  8
0
 10
0.376899
 20
5.89339
 30
0.0
 40
0
 41
0
  0
VERTEX
  8
0
 10
0.376899
 20
7.10883
 30
0.0
 40
0
 41
0
  0
SEQEND
 8
0
  0
POLYLINE
  8
0
 62
     0
 66
     1
 10
0
 20
0
 30
0.0
 70
     1
 40
0.75
 41
0.75
  0
VERTEX
  8
0
 10
0.376899
 20
7.10883
 30
0.0
 40
0.0104167
 41
0.0104167
  0
VERTEX
  8
0
 10
0.606065
 20
7.10883
 30
0.0
 40
0.0104167
 41
0.0104167
  0
VERTEX
  8
0
 10
0.606065
 20
5.89339
 30
0.0
 40
0.0104167
 41
0.0104167
  0
VERTEX
  8
0
 10
0.376899
 20
5.89339
 30
0.0
 40
0.0104167
 41
0.0104167
  0
VERTEX
  8
0
 10
0.376899
 20
7.10883
 30
0.0
 40
0.0104167
 41
0.0104167
  0
SEQEND
 8
0
  0
POLYLINE
  8
0
 62
     0
 66
     1
 10
0
 20
0
 30
0.0
 40
0.75
 41
0.75
  0
VERTEX
  8
0
 10
0.491482
 20
5.97151
 30
0.0
 40
0.0104167
 41
0.0104167
  0
VERTEX
  8
0
 10
0.491482
 20
7.03071
 30
0.0
 40
0.0104167
 41
0.0104167
  0
SEQEND
 8
0
  0
POLYLINE
  8
0
 62
     0
 66
     1
 10
0
 20
0
 30
0.0
 40
0.75
 41
0.75
  0
VERTEX
  8
0
 10
0.376899
 20
5.97151
 30
0.0
 40
0.0104167
 41
0.0104167
  0
VERTEX
  8
0
 10
0.606065
 20
5.97151
 30
0.0
 40
0.0104167
 41
0.0104167
  0
SEQEND
 8
0
  0
POLYLINE
  8
0
 62
     0
 66
     1
 10
0
 20
0
 30
0.0
 40
0.75
 41
0.75
  0
VERTEX
  8
0
 10
0.376899
 20
7.03071
 30
0.0
 40
0.0104167
 41
0.0104167
  0
VERTEX
  8
0
 10
0.606065
 20
7.03071
 30
0.0
 40
0.0104167
 41
0.0104167
  0
SEQEND
 8
0
  0
POLYLINE
  8
0
 62
     7
 66
     1
 10
0
 20
0
 30
0.0
 70
     1
 40
0
 41
0
  0
VERTEX
  8
0
 10
0.376899
 20
5.05935
 30
0.0
 40
0
 41
0
  0
VERTEX
  8
0
 10
0.606065
 20
5.05935
 30
0.0
 40
0
 41
0
  0
VERTEX
  8
0
 10
0.606065
 20
3.83203
 30
0.0
 40
0
 41
0
  0
VERTEX
  8
0
 10
0.376899
 20
3.83203
 30
0.0
 40
0
 41
0
  0
VERTEX
  8
0
 10
0.376899
 20
5.05935
 30
0.0
 40
0
 41
0
  0
SEQEND
 8
0
  0
POLYLINE
  8
0
 62
     0
 66
     1
 10
0
 20
0
 30
0.0
 70
     1
 40
0.75
 41
0.75
  0
VERTEX
  8
0
 10
0.376899
 20
5.05935
 30
0.0
 40
0.0104167
 41
0.0104167
  0
VERTEX
  8
0
 10
0.606065
 20
5.05935
 30
0.0
 40
0.0104167
 41
0.0104167
  0
VERTEX
  8
0
 10
0.606065
 20
3.83203
 30
0.0
 40
0.0104167
 41
0.0104167
  0
VERTEX
  8
0
 10
0.376899
 20
3.83203
 30
0.0
 40
0.0104167
 41
0.0104167
  0
VERTEX
  8
0
 10
0.376899
 20
5.05935
 30
0.0
 40
0.0104167
 41
0.0104167
  0
SEQEND
 8
0
  0
POLYLINE
  8
0
 62
     7
 66
     1
 10
0
 20
0
 30
0.0
 70
     1
 40
0
 41
0
  0
VERTEX
  8
0
 10
0.376899
 20
5.05935
 30
0.0
 40
0
 41
0
  0
VERTEX
  8
0
 10
0.606065
 20
5.05935
 30
0.0
 40
0
 41
0
  0
VERTEX
  8
0
 10
0.606065
 20
3.83203
 30
0.0
 40
0
 41
0
  0
VERTEX
  8
0
 10
0.376899
 20
3.83203
 30
0.0
 40
0
 41
0
  0
VERTEX
  8
0
 10
0.376899
 20
5.05935
 30
0.0
 40
0
 41
0
  0
SEQEND
 8
0
  0
POLYLINE
  8
0
 62
     0
 66
     1
 10
0
 20
0
 30
0.0
 70
     1
 40
0.75
 41
0.75
  0
VERTEX
  8
0
 10
0.376899
 20
5.05935
 30
0.0
 40
0.0104167
 41
0.0104167
  0
VERTEX
  8
0
 10
0.606065
 20
5.05935
 30
0.0
 40
0.0104167
 41
0.0104167
  0
VERTEX
  8
0
 10
0.606065
 20
3.83203
 30
0.0
 40
0.0104167
 41
0.0104167
  0
VERTEX
  8
0
 10
0.376899
 20
3.83203
 30
0.0
 40
0.0104167
 41
0.0104167
  0
VERTEX
  8
0
 10
0.376899
 20
5.05935
 30
0.0
 40
0.0104167
 41
0.0104167
  0
SEQEND
 8
0
  0
POLYLINE
  8
0
 62
     0
 66
     1
 10
0
 20
0
 30
0.0
 40
0.75
 41
0.75
  0
VERTEX
  8
0
 10
0.491482
 20
3.91015
 30
0.0
 40
0.0104167
 41
0.0104167
  0
VERTEX
  8
0
 10
0.491482
 20
4.98122
 30
0.0
 40
0.0104167
 41
0.0104167
  0
SEQEND
 8
0
  0
POLYLINE
  8
0
 62
     0
 66
     1
 10
0
 20
0
 30
0.0
 40
0.75
 41
0.75
  0
VERTEX
  8
0
 10
0.376899
 20
3.91015
 30
0.0
 40
0.0104167
 41
0.0104167
  0
VERTEX
  8
0
 10
0.606065
 20
3.91015
 30
0.0
 40
0.0104167
 41
0.0104167
  0
SEQEND
 8
0
  0
POLYLINE
  8
0
 62
     0
 66
     1
 10
0
 20
0
 30
0.0
 40
0.75
 41
0.75
  0
VERTEX
  8
0
 10
0.376899
 20
4.98122
 30
0.0
 40
0.0104167
 41
0.0104167
  0
VERTEX
  8
0
 10
0.606065
 20
4.98122
 30
0.0
 40
0.0104167
 41
0.0104167
  0
SEQEND
 8
0
  0
POLYLINE
  8
0
 62
     0
 66
     1
 10
0
 20
0
 30
0.0
 70
     1
 40
0
 41
0
  0
VERTEX
  8
0
 10
9.54833
 20
8.72194
 30
0.0
 40
0
 41
0
  0
VERTEX
  8
0
 10
9.54833
 20
6.27994
 30
0.0
 40
0
 41
0
  0
VERTEX
  8
0
 10
9.39208
 20
6.42578
 30
0.0
 40
0
 41
0
  0
VERTEX
  8
0
 10
9.39208
 20
8.72194
 30
0.0
 40
0
 41
0
  0
VERTEX
  8
0
 10
9.54833
 20
8.72194
 30
0.0
 40
0
 41
0
  0
SEQEND
 8
0
  0
POLYLINE
  8
0
 62
     0
 66
     1
 10
0
 20
0
 30
0.0
 70
     1
 40
0.15
 41
0.15
  0
VERTEX
  8
0
 10
9.54833
 20
8.72194
 30
0.0
 40
0.00208333
 41
0.00208333
  0
VERTEX
  8
0
 10
9.54833
 20
6.27994
 30
0.0
 40
0.00208333
 41
0.00208333
  0
VERTEX
  8
0
 10
9.39208
 20
6.42578
 30
0.0
 40
0.00208333
 41
0.00208333
  0
VERTEX
  8
0
 10
9.39208
 20
8.72194
 30
0.0
 40
0.00208333
 41
0.00208333
  0
VERTEX
  8
0
 10
9.54833
 20
8.72194
 30
0.0
 40
0.00208333
 41
0.00208333
  0
SEQEND
 8
0
  0
POLYLINE
  8
0
 62
     0
 66
     1
 10
0
 20
0
 30
0.0
 70
     1
 40
0
 41
0
  0
VERTEX
  8
0
 10
9.54833
 20
6.27994
 30
0.0
 40
0
 41
0
  0
VERTEX
  8
0
 10
4.08106
 20
6.27994
 30
0.0
 40
0
 41
0
  0
VERTEX
  8
0
 10
4.22689
 20
6.42578
 30
0.0
 40
0
 41
0
  0
VERTEX
  8
0
 10
9.39208
 20
6.42578
 30
0.0
 40
0
 41
0
  0
VERTEX
  8
0
 10
9.54833
 20
6.27994
 30
0.0
 40
0
 41
0
  0
SEQEND
 8
0
  0
POLYLINE
  8
0
 62
     0
 66
     1
 10
0
 20
0
 30
0.0
 70
     1
 40
0.15
 41
0.15
  0
VERTEX
  8
0
 10
9.54833
 20
6.27994
 30
0.0
 40
0.00208333
 41
0.00208333
  0
VERTEX
  8
0
 10
4.08106
 20
6.27994
 30
0.0
 40
0.00208333
 41
0.00208333
  0
VERTEX
  8
0
 10
4.22689
 20
6.42578
 30
0.0
 40
0.00208333
 41
0.00208333
  0
VERTEX
  8
0
 10
9.39208
 20
6.42578
 30
0.0
 40
0.00208333
 41
0.00208333
  0
VERTEX
  8
0
 10
9.54833
 20
6.27994
 30
0.0
 40
0.00208333
 41
0.00208333
  0
SEQEND
 8
0
  0
POLYLINE
  8
0
 62
     7
 66
     1
 10
0
 20
0
 30
0.0
 70
     1
 40
0
 41
0
  0
VERTEX
  8
0
 10
6.13346
 20
6.42578
 30
0.0
 40
0
 41
0
  0
VERTEX
  8
0
 10
6.90158
 20
6.42578
 30
0.0
 40
0
 41
0
  0
VERTEX
  8
0
 10
6.90158
 20
6.27994
 30
0.0
 40
0
 41
0
  0
VERTEX
  8
0
 10
6.13346
 20
6.27994
 30
0.0
 40
0
 41
0
  0
VERTEX
  8
0
 10
6.13346
 20
6.42578
 30
0.0
 40
0
 41
0
  0
SEQEND
 8
0
  0
POLYLINE
  8
0
 62
     0
 66
     1
 10
0
 20
0
 30
0.0
 70
     1
 40
0.75
 41
0.75
  0
VERTEX
  8
0
 10
6.13346
 20
6.42578
 30
0.0
 40
0.0104167
 41
0.0104167
  0
VERTEX
  8
0
 10
6.90158
 20
6.42578
 30
0.0
 40
0.0104167
 41
0.0104167
  0
VERTEX
  8
0
 10
6.90158
 20
6.27994
 30
0.0
 40
0.0104167
 41
0.0104167
  0
VERTEX
  8
0
 10
6.13346
 20
6.27994
 30
0.0
 40
0.0104167
 41
0.0104167
  0
VERTEX
  8
0
 10
6.13346
 20
6.42578
 30
0.0
 40
0.0104167
 41
0.0104167
  0
SEQEND
 8
0
  0
POLYLINE
  8
0
 62
     7
 66
     1
 10
0
 20
0
 30
0.0
 70
     1
 40
0
 41
0
  0
VERTEX
  8
0
 10
6.13346
 20
6.42578
 30
0.0
 40
0
 41
0
  0
VERTEX
  8
0
 10
6.90158
 20
6.42578
 30
0.0
 40
0
 41
0
  0
VERTEX
  8
0
 10
6.90158
 20
6.27994
 30
0.0
 40
0
 41
0
  0
VERTEX
  8
0
 10
6.13346
 20
6.27994
 30
0.0
 40
0
 41
0
  0
VERTEX
  8
0
 10
6.13346
 20
6.42578
 30
0.0
 40
0
 41
0
  0
SEQEND
 8
0
  0
POLYLINE
  8
0
 62
     0
 66
     1
 10
0
 20
0
 30
0.0
 70
     1
 40
0.75
 41
0.75
  0
VERTEX
  8
0
 10
6.13346
 20
6.42578
 30
0.0
 40
0.0104167
 41
0.0104167
  0
VERTEX
  8
0
 10
6.90158
 20
6.42578
 30
0.0
 40
0.0104167
 41
0.0104167
  0
VERTEX
  8
0
 10
6.90158
 20
6.27994
 30
0.0
 40
0.0104167
 41
0.0104167
  0
VERTEX
  8
0
 10
6.13346
 20
6.27994
 30
0.0
 40
0.0104167
 41
0.0104167
  0
VERTEX
  8
0
 10
6.13346
 20
6.42578
 30
0.0
 40
0.0104167
 41
0.0104167
  0
SEQEND
 8
0
  0
POLYLINE
  8
0
 62
     0
 66
     1
 10
0
 20
0
 30
0.0
 70
     1
 40
0.75
 41
0.75
  0
VERTEX
  8
0
 10
6.90158
 20
6.27994
 30
0.0
 40
0.0104167
 41
0.0104167
  0
VERTEX
  8
0
 10
6.90158
 20
6.23497
 30
0.0
 40
0.0104167
 41
0.0104167
  0
VERTEX
  8
0
 10
6.88954
 20
6.09993
 30
0.0
 40
0.0104167
 41
0.0104167
  0
VERTEX
  8
0
 10
6.85357
 20
5.94396
 30
0.0
 40
0.0104167
 41
0.0104167
  0
VERTEX
  8
0
 10
6.79351
 20
5.8119
 30
0.0
 40
0.0104167
 41
0.0104167
  0
VERTEX
  8
0
 10
6.70953
 20
5.70389
 30
0.0
 40
0.0104167
 41
0.0104167
  0
VERTEX
  8
0
 10
6.60151
 20
5.6199
 30
0.0
 40
0.0104167
 41
0.0104167
  0
VERTEX
  8
0
 10
6.46946
 20
5.55985
 30
0.0
 40
0.0104167
 41
0.0104167
  0
VERTEX
  8
0
 10
6.31347
 20
5.52387
 30
0.0
 40
0.0104167
 41
0.0104167
  0
VERTEX
  8
0
 10
6.17844
 20
5.51183
 30
0.0
 40
0.0104167
 41
0.0104167
  0
VERTEX
  8
0
 10
6.13346
 20
5.51183
 30
0.0
 40
0.0104167
 41
0.0104167
  0
VERTEX
  8
0
 10
6.13346
 20
6.27994
 30
0.0
 40
0.0104167
 41
0.0104167
  0
VERTEX
  8
0
 10
6.90158
 20
6.27994
 30
0.0
 40
0.0104167
 41
0.0104167
  0
SEQEND
 8
0
  0
POLYLINE
  8
0
 62
     0
 66
     1
 10
0
 20
0
 30
0.0
 70
     1
 40
0
 41
0
  0
VERTEX
  8
0
 10
4.08106
 20
6.27994
 30
0.0
 40
0
 41
0
  0
VERTEX
  8
0
 10
4.08106
 20
8.72194
 30
0.0
 40
0
 41
0
  0
VERTEX
  8
0
 10
4.22689
 20
8.72194
 30
0.0
 40
0
 41
0
  0
VERTEX
  8
0
 10
4.22689
 20
6.42578
 30
0.0
 40
0
 41
0
  0
VERTEX
  8
0
 10
4.08106
 20
6.27994
 30
0.0
 40
0
 41
0
  0
SEQEND
 8
0
  0
POLYLINE
  8
0
 62
     0
 66
     1
 10
0
 20
0
 30
0.0
 70
     1
 40
0.15
 41
0.15
  0
VERTEX
  8
0
 10
4.08106
 20
6.27994
 30
0.0
 40
0.00208333
 41
0.00208333
  0
VERTEX
  8
0
 10
4.08106
 20
8.72194
 30
0.0
 40
0.00208333
 41
0.00208333
  0
VERTEX
  8
0
 10
4.22689
 20
8.72194
 30
0.0
 40
0.00208333
 41
0.00208333
  0
VERTEX
  8
0
 10
4.22689
 20
6.42578
 30
0.0
 40
0.00208333
 41
0.00208333
  0
VERTEX
  8
0
 10
4.08106
 20
6.27994
 30
0.0
 40
0.00208333
 41
0.00208333
  0
SEQEND
 8
0
  0
POLYLINE
  8
0
 62
     7
 66
     1
 10
0
 20
0
 30
0.0
 70
     1
 40
0
 41
0
  0
VERTEX
  8
0
 10
4.08106
 20
7.77832
 30
0.0
 40
0
 41
0
  0
VERTEX
  8
0
 10
4.22689
 20
7.77832
 30
0.0
 40
0
 41
0
  0
VERTEX
  8
0
 10
4.22689
 20
7.14811
 30
0.0
 40
0
 41
0
  0
VERTEX
  8
0
 10
4.08106
 20
7.14811
 30
0.0
 40
0
 41
0
  0
VERTEX
  8
0
 10
4.08106
 20
7.77832
 30
0.0
 40
0
 41
0
  0
SEQEND
 8
0
  0
POLYLINE
  8
0
 62
     0
 66
     1
 10
0
 20
0
 30
0.0
 70
     1
 40
0.75
 41
0.75
  0
VERTEX
  8
0
 10
4.08106
 20
7.77832
 30
0.0
 40
0.0104167
 41
0.0104167
  0
VERTEX
  8
0
 10
4.22689
 20
7.77832
 30
0.0
 40
0.0104167
 41
0.0104167
  0
VERTEX
  8
0
 10
4.22689
 20
7.14811
 30
0.0
 40
0.0104167
 41
0.0104167
  0
VERTEX
  8
0
 10
4.08106
 20
7.14811
 30
0.0
 40
0.0104167
 41
0.0104167
  0
VERTEX
  8
0
 10
4.08106
 20
7.77832
 30
0.0
 40
0.0104167
 41
0.0104167
  0
SEQEND
 8
0
  0
POLYLINE
  8
0
 62
     7
 66
     1
 10
0
 20
0
 30
0.0
 70
     1
 40
0
 41
0
  0
VERTEX
  8
0
 10
4.08106
 20
7.77832
 30
0.0
 40
0
 41
0
  0
VERTEX
  8
0
 10
4.22689
 20
7.77832
 30
0.0
 40
0
 41
0
  0
VERTEX
  8
0
 10
4.22689
 20
7.14811
 30
0.0
 40
0
 41
0
  0
VERTEX
  8
0
 10
4.08106
 20
7.14811
 30
0.0
 40
0
 41
0
  0
VERTEX
  8
0
 10
4.08106
 20
7.77832
 30
0.0
 40
0
 41
0
  0
SEQEND
 8
0
  0
POLYLINE
  8
0
 62
     0
 66
     1
 10
0
 20
0
 30
0.0
 70
     1
 40
0.75
 41
0.75
  0
VERTEX
  8
0
 10
4.08106
 20
7.77832
 30
0.0
 40
0.0104167
 41
0.0104167
  0
VERTEX
  8
0
 10
4.22689
 20
7.77832
 30
0.0
 40
0.0104167
 41
0.0104167
  0
VERTEX
  8
0
 10
4.22689
 20
7.14811
 30
0.0
 40
0.0104167
 41
0.0104167
  0
VERTEX
  8
0
 10
4.08106
 20
7.14811
 30
0.0
 40
0.0104167
 41
0.0104167
  0
VERTEX
  8
0
 10
4.08106
 20
7.77832
 30
0.0
 40
0.0104167
 41
0.0104167
  0
SEQEND
 8
0
  0
POLYLINE
  8
0
 62
     0
 66
     1
 10
0
 20
0
 30
0.0
 70
     1
 40
0.75
 41
0.75
  0
VERTEX
  8
0
 10
4.08106
 20
7.14811
 30
0.0
 40
0.0104167
 41
0.0104167
  0
VERTEX
  8
0
 10
4.04411
 20
7.14811
 30
0.0
 40
0.0104167
 41
0.0104167
  0
VERTEX
  8
0
 10
3.93332
 20
7.15799
 30
0.0
 40
0.0104167
 41
0.0104167
  0
VERTEX
  8
0
 10
3.80533
 20
7.1875
 30
0.0
 40
0.0104167
 41
0.0104167
  0
VERTEX
  8
0
 10
3.697
 20
7.23676
 30
0.0
 40
0.0104167
 41
0.0104167
  0
VERTEX
  8
0
 10
3.6084
 20
7.30567
 30
0.0
 40
0.0104167
 41
0.0104167
  0
VERTEX
  8
0
 10
3.53944
 20
7.39432
 30
0.0
 40
0.0104167
 41
0.0104167
  0
VERTEX
  8
0
 10
3.49024
 20
7.50261
 30
0.0
 40
0.0104167
 41
0.0104167
  0
VERTEX
  8
0
 10
3.46067
 20
7.63064
 30
0.0
 40
0.0104167
 41
0.0104167
  0
VERTEX
  8
0
 10
3.45085
 20
7.74143
 30
0.0
 40
0.0104167
 41
0.0104167
  0
VERTEX
  8
0
 10
3.45085
 20
7.77832
 30
0.0
 40
0.0104167
 41
0.0104167
  0
VERTEX
  8
0
 10
4.08106
 20
7.77832
 30
0.0
 40
0.0104167
 41
0.0104167
  0
VERTEX
  8
0
 10
4.08106
 20
7.14811
 30
0.0
 40
0.0104167
 41
0.0104167
  0
SEQEND
 8
0
  0
POLYLINE
  8
0
 62
     0
 66
     1
 10
0
 20
0
 30
0.0
 70
     1
 40
0
 41
0
  0
VERTEX
  8
0
 10
5.11003
 20
8.72194
 30
0.0
 40
0
 41
0
  0
VERTEX
  8
0
 10
5.25586
 20
8.72194
 30
0.0
 40
0
 41
0
  0
VERTEX
  8
0
 10
5.25586
 20
6.27994
 30
0.0
 40
0
 41
0
  0
VERTEX
  8
0
 10
5.11003
 20
6.27994
 30
0.0
 40
0
 41
0
  0
VERTEX
  8
0
 10
5.11003
 20
8.72194
 30
0.0
 40
0
 41
0
  0
SEQEND
 8
0
  0
POLYLINE
  8
0
 62
     0
 66
     1
 10
0
 20
0
 30
0.0
 70
     1
 40
0.15
 41
0.15
  0
VERTEX
  8
0
 10
5.11003
 20
8.72194
 30
0.0
 40
0.00208333
 41
0.00208333
  0
VERTEX
  8
0
 10
5.25586
 20
8.72194
 30
0.0
 40
0.00208333
 41
0.00208333
  0
VERTEX
  8
0
 10
5.25586
 20
6.27994
 30
0.0
 40
0.00208333
 41
0.00208333
  0
VERTEX
  8
0
 10
5.11003
 20
6.27994
 30
0.0
 40
0.00208333
 41
0.00208333
  0
VERTEX
  8
0
 10
5.11003
 20
8.72194
 30
0.0
 40
0.00208333
 41
0.00208333
  0
SEQEND
 8
0
  0
POLYLINE
  8
0
 62
     0
 66
     1
 10
0
 20
0
 30
0.0
 70
     1
 40
0
 41
0
  0
VERTEX
  8
0
 10
7.71625
 20
8.72194
 30
0.0
 40
0
 41
0
  0
VERTEX
  8
0
 10
7.86208
 20
8.72194
 30
0.0
 40
0
 41
0
  0
VERTEX
  8
0
 10
7.86208
 20
6.27994
 30
0.0
 40
0
 41
0
  0
VERTEX
  8
0
 10
7.71625
 20
6.27994
 30
0.0
 40
0
 41
0
  0
VERTEX
  8
0
 10
7.71625
 20
8.72194
 30
0.0
 40
0
 41
0
  0
SEQEND
 8
0
  0
POLYLINE
  8
0
 62
     0
 66
     1
 10
0
 20
0
 30
0.0
 70
     1
 40
0.15
 41
0.15
  0
VERTEX
  8
0
 10
7.71625
 20
8.72194
 30
0.0
 40
0.00208333
 41
0.00208333
  0
VERTEX
  8
0
 10
7.86208
 20
8.72194
 30
0.0
 40
0.00208333
 41
0.00208333
  0
VERTEX
  8
0
 10
7.86208
 20
6.27994
 30
0.0
 40
0.00208333
 41
0.00208333
  0
VERTEX
  8
0
 10
7.71625
 20
6.27994
 30
0.0
 40
0.00208333
 41
0.00208333
  0
VERTEX
  8
0
 10
7.71625
 20
8.72194
 30
0.0
 40
0.00208333
 41
0.00208333
  0
SEQEND
 8
0
  0
POLYLINE
  8
0
 62
     7
 66
     1
 10
0
 20
0
 30
0.0
 70
     1
 40
0
 41
0
  0
VERTEX
  8
0
 10
7.71625
 20
7.35488
 30
0.0
 40
0
 41
0
  0
VERTEX
  8
0
 10
7.86208
 20
7.35488
 30
0.0
 40
0
 41
0
  0
VERTEX
  8
0
 10
7.86208
 20
6.52767
 30
0.0
 40
0
 41
0
  0
VERTEX
  8
0
 10
7.71625
 20
6.52767
 30
0.0
 40
0
 41
0
  0
VERTEX
  8
0
 10
7.71625
 20
7.35488
 30
0.0
 40
0
 41
0
  0
SEQEND
 8
0
  0
POLYLINE
  8
0
 62
     0
 66
     1
 10
0
 20
0
 30
0.0
 70
     1
 40
0.75
 41
0.75
  0
VERTEX
  8
0
 10
7.71625
 20
7.35488
 30
0.0
 40
0.0104167
 41
0.0104167
  0
VERTEX
  8
0
 10
7.86208
 20
7.35488
 30
0.0
 40
0.0104167
 41
0.0104167
  0
VERTEX
  8
0
 10
7.86208
 20
6.52767
 30
0.0
 40
0.0104167
 41
0.0104167
  0
VERTEX
  8
0
 10
7.71625
 20
6.52767
 30
0.0
 40
0.0104167
 41
0.0104167
  0
VERTEX
  8
0
 10
7.71625
 20
7.35488
 30
0.0
 40
0.0104167
 41
0.0104167
  0
SEQEND
 8
0
  0
POLYLINE
  8
0
 62
     7
 66
     1
 10
0
 20
0
 30
0.0
 70
     1
 40
0
 41
0
  0
VERTEX
  8
0
 10
7.71625
 20
7.35488
 30
0.0
 40
0
 41
0
  0
VERTEX
  8
0
 10
7.86208
 20
7.35488
 30
0.0
 40
0
 41
0
  0
VERTEX
  8
0
 10
7.86208
 20
6.52767
 30
0.0
 40
0
 41
0
  0
VERTEX
  8
0
 10
7.71625
 20
6.52767
 30
0.0
 40
0
 41
0
  0
VERTEX
  8
0
 10
7.71625
 20
7.35488
 30
0.0
 40
0
 41
0
  0
SEQEND
 8
0
  0
POLYLINE
  8
0
 62
     0
 66
     1
 10
0
 20
0
 30
0.0
 70
     1
 40
0.75
 41
0.75
  0
VERTEX
  8
0
 10
7.71625
 20
7.35488
 30
0.0
 40
0.0104167
 41
0.0104167
  0
VERTEX
  8
0
 10
7.86208
 20
7.35488
 30
0.0
 40
0.0104167
 41
0.0104167
  0
VERTEX
  8
0
 10
7.86208
 20
6.52767
 30
0.0
 40
0.0104167
 41
0.0104167
  0
VERTEX
  8
0
 10
7.71625
 20
6.52767
 30
0.0
 40
0.0104167
 41
0.0104167
  0
VERTEX
  8
0
 10
7.71625
 20
7.35488
 30
0.0
 40
0.0104167
 41
0.0104167
  0
SEQEND
 8
0
  0
POLYLINE
  8
0
 62
     0
 66
     1
 10
0
 20
0
 30
0.0
 70
     1
 40
0.75
 41
0.75
  0
VERTEX
  8
0
 10
7.71625
 20
7.35488
 30
0.0
 40
0.0104167
 41
0.0104167
  0
VERTEX
  8
0
 10
7.66775
 20
7.35488
 30
0.0
 40
0.0104167
 41
0.0104167
  0
VERTEX
  8
0
 10
7.52235
 20
7.34196
 30
0.0
 40
0.0104167
 41
0.0104167
  0
VERTEX
  8
0
 10
7.35433
 20
7.30322
 30
0.0
 40
0.0104167
 41
0.0104167
  0
VERTEX
  8
0
 10
7.21213
 20
7.23856
 30
0.0
 40
0.0104167
 41
0.0104167
  0
VERTEX
  8
0
 10
7.09581
 20
7.14811
 30
0.0
 40
0.0104167
 41
0.0104167
  0
VERTEX
  8
0
 10
7.00537
 20
7.03179
 30
0.0
 40
0.0104167
 41
0.0104167
  0
VERTEX
  8
0
 10
6.94069
 20
6.8896
 30
0.0
 40
0.0104167
 41
0.0104167
  0
VERTEX
  8
0
 10
6.90196
 20
6.72157
 30
0.0
 40
0.0104167
 41
0.0104167
  0
VERTEX
  8
0
 10
6.88906
 20
6.57617
 30
0.0
 40
0.0104167
 41
0.0104167
  0
VERTEX
  8
0
 10
6.88906
 20
6.52767
 30
0.0
 40
0.0104167
 41
0.0104167
  0
VERTEX
  8
0
 10
7.71625
 20
6.52767
 30
0.0
 40
0.0104167
 41
0.0104167
  0
VERTEX
  8
0
 10
7.71625
 20
7.35488
 30
0.0
 40
0.0104167
 41
0.0104167
  0
SEQEND
 8
0
  0
POLYLINE
  8
0
 62
     0
 66
     1
 10
0
 20
0
 30
0.0
 70
     1
 40
0
 41
0
  0
VERTEX
  8
0
 10
6.06489
 20
2.31299
 30
0.0
 40
0
 41
0
  0
VERTEX
  8
0
 10
6.06489
 20
5.0459
 30
0.0
 40
0
 41
0
  0
VERTEX
  8
0
 10
6.21072
 20
4.90007
 30
0.0
 40
0
 41
0
  0
VERTEX
  8
0
 10
6.21072
 20
2.31299
 30
0.0
 40
0
 41
0
  0
VERTEX
  8
0
 10
6.06489
 20
2.31299
 30
0.0
 40
0
 41
0
  0
SEQEND
 8
0
  0
POLYLINE
  8
0
 62
     0
 66
     1
 10
0
 20
0
 30
0.0
 70
     1
 40
0.15
 41
0.15
  0
VERTEX
  8
0
 10
6.06489
 20
2.31299
 30
0.0
 40
0.00208333
 41
0.00208333
  0
VERTEX
  8
0
 10
6.06489
 20
5.0459
 30
0.0
 40
0.00208333
 41
0.00208333
  0
VERTEX
  8
0
 10
6.21072
 20
4.90007
 30
0.0
 40
0.00208333
 41
0.00208333
  0
VERTEX
  8
0
 10
6.21072
 20
2.31299
 30
0.0
 40
0.00208333
 41
0.00208333
  0
VERTEX
  8
0
 10
6.06489
 20
2.31299
 30
0.0
 40
0.00208333
 41
0.00208333
  0
SEQEND
 8
0
  0
POLYLINE
  8
0
 62
     7
 66
     1
 10
0
 20
0
 30
0.0
 70
     1
 40
0
 41
0
  0
VERTEX
  8
0
 10
6.06489
 20
3.01215
 30
0.0
 40
0
 41
0
  0
VERTEX
  8
0
 10
6.21072
 20
3.01215
 30
0.0
 40
0
 41
0
  0
VERTEX
  8
0
 10
6.21072
 20
2.34256
 30
0.0
 40
0
 41
0
  0
VERTEX
  8
0
 10
6.06489
 20
2.34256
 30
0.0
 40
0
 41
0
  0
VERTEX
  8
0
 10
6.06489
 20
3.01215
 30
0.0
 40
0
 41
0
  0
SEQEND
 8
0
  0
POLYLINE
  8
0
 62
     0
 66
     1
 10
0
 20
0
 30
0.0
 70
     1
 40
0.75
 41
0.75
  0
VERTEX
  8
0
 10
6.06489
 20
3.01215
 30
0.0
 40
0.0104167
 41
0.0104167
  0
VERTEX
  8
0
 10
6.21072
 20
3.01215
 30
0.0
 40
0.0104167
 41
0.0104167
  0
VERTEX
  8
0
 10
6.21072
 20
2.34256
 30
0.0
 40
0.0104167
 41
0.0104167
  0
VERTEX
  8
0
 10
6.06489
 20
2.34256
 30
0.0
 40
0.0104167
 41
0.0104167
  0
VERTEX
  8
0
 10
6.06489
 20
3.01215
 30
0.0
 40
0.0104167
 41
0.0104167
  0
SEQEND
 8
0
  0
POLYLINE
  8
0
 62
     7
 66
     1
 10
0
 20
0
 30
0.0
 70
     1
 40
0
 41
0
  0
VERTEX
  8
0
 10
6.06489
 20
3.01215
 30
0.0
 40
0
 41
0
  0
VERTEX
  8
0
 10
6.21072
 20
3.01215
 30
0.0
 40
0
 41
0
  0
VERTEX
  8
0
 10
6.21072
 20
2.34256
 30
0.0
 40
0
 41
0
  0
VERTEX
  8
0
 10
6.06489
 20
2.34256
 30
0.0
 40
0
 41
0
  0
VERTEX
  8
0
 10
6.06489
 20
3.01215
 30
0.0
 40
0
 41
0
  0
SEQEND
 8
0
  0
POLYLINE
  8
0
 62
     0
 66
     1
 10
0
 20
0
 30
0.0
 70
     1
 40
0.75
 41
0.75
  0
VERTEX
  8
0
 10
6.06489
 20
3.01215
 30
0.0
 40
0.0104167
 41
0.0104167
  0
VERTEX
  8
0
 10
6.21072
 20
3.01215
 30
0.0
 40
0.0104167
 41
0.0104167
  0
VERTEX
  8
0
 10
6.21072
 20
2.34256
 30
0.0
 40
0.0104167
 41
0.0104167
  0
VERTEX
  8
0
 10
6.06489
 20
2.34256
 30
0.0
 40
0.0104167
 41
0.0104167
  0
VERTEX
  8
0
 10
6.06489
 20
3.01215
 30
0.0
 40
0.0104167
 41
0.0104167
  0
SEQEND
 8
0
  0
POLYLINE
  8
0
 62
     0
 66
     1
 10
0
 20
0
 30
0.0
 70
     1
 40
0.75
 41
0.75
  0
VERTEX
  8
0
 10
6.06489
 20
2.34256
 30
0.0
 40
0.0104167
 41
0.0104167
  0
VERTEX
  8
0
 10
6.02561
 20
2.34256
 30
0.0
 40
0.0104167
 41
0.0104167
  0
VERTEX
  8
0
 10
5.90793
 20
2.35303
 30
0.0
 40
0.0104167
 41
0.0104167
  0
VERTEX
  8
0
 10
5.77192
 20
2.38444
 30
0.0
 40
0.0104167
 41
0.0104167
  0
VERTEX
  8
0
 10
5.65685
 20
2.43674
 30
0.0
 40
0.0104167
 41
0.0104167
  0
VERTEX
  8
0
 10
5.56267
 20
2.50999
 30
0.0
 40
0.0104167
 41
0.0104167
  0
VERTEX
  8
0
 10
5.48942
 20
2.60417
 30
0.0
 40
0.0104167
 41
0.0104167
  0
VERTEX
  8
0
 10
5.43712
 20
2.71924
 30
0.0
 40
0.0104167
 41
0.0104167
  0
VERTEX
  8
0
 10
5.40571
 20
2.85525
 30
0.0
 40
0.0104167
 41
0.0104167
  0
VERTEX
  8
0
 10
5.39529
 20
2.97293
 30
0.0
 40
0.0104167
 41
0.0104167
  0
VERTEX
  8
0
 10
5.39529
 20
3.01215
 30
0.0
 40
0.0104167
 41
0.0104167
  0
VERTEX
  8
0
 10
6.06489
 20
3.01215
 30
0.0
 40
0.0104167
 41
0.0104167
  0
VERTEX
  8
0
 10
6.06489
 20
2.34256
 30
0.0
 40
0.0104167
 41
0.0104167
  0
SEQEND
 8
0
  0
POLYLINE
  8
0
 62
     7
 66
     1
 10
0
 20
0
 30
0.0
 70
     1
 40
0
 41
0
  0
VERTEX
  8
0
 10
6.06489
 20
4.23318
 30
0.0
 40
0
 41
0
  0
VERTEX
  8
0
 10
6.21072
 20
4.23318
 30
0.0
 40
0
 41
0
  0
VERTEX
  8
0
 10
6.21072
 20
3.6326
 30
0.0
 40
0
 41
0
  0
VERTEX
  8
0
 10
6.06489
 20
3.6326
 30
0.0
 40
0
 41
0
  0
VERTEX
  8
0
 10
6.06489
 20
4.23318
 30
0.0
 40
0
 41
0
  0
SEQEND
 8
0
  0
POLYLINE
  8
0
 62
     0
 66
     1
 10
0
 20
0
 30
0.0
 70
     1
 40
0.75
 41
0.75
  0
VERTEX
  8
0
 10
6.06489
 20
4.23318
 30
0.0
 40
0.0104167
 41
0.0104167
  0
VERTEX
  8
0
 10
6.21072
 20
4.23318
 30
0.0
 40
0.0104167
 41
0.0104167
  0
VERTEX
  8
0
 10
6.21072
 20
3.6326
 30
0.0
 40
0.0104167
 41
0.0104167
  0
VERTEX
  8
0
 10
6.06489
 20
3.6326
 30
0.0
 40
0.0104167
 41
0.0104167
  0
VERTEX
  8
0
 10
6.06489
 20
4.23318
 30
0.0
 40
0.0104167
 41
0.0104167
  0
SEQEND
 8
0
  0
POLYLINE
  8
0
 62
     7
 66
     1
 10
0
 20
0
 30
0.0
 70
     1
 40
0
 41
0
  0
VERTEX
  8
0
 10
6.06489
 20
4.23318
 30
0.0
 40
0
 41
0
  0
VERTEX
  8
0
 10
6.21072
 20
4.23318
 30
0.0
 40
0
 41
0
  0
VERTEX
  8
0
 10
6.21072
 20
3.6326
 30
0.0
 40
0
 41
0
  0
VERTEX
  8
0
 10
6.06489
 20
3.6326
 30
0.0
 40
0
 41
0
  0
VERTEX
  8
0
 10
6.06489
 20
4.23318
 30
0.0
 40
0
 41
0
  0
SEQEND
 8
0
  0
POLYLINE
  8
0
 62
     0
 66
     1
 10
0
 20
0
 30
0.0
 70
     1
 40
0.75
 41
0.75
  0
VERTEX
  8
0
 10
6.06489
 20
4.23318
 30
0.0
 40
0.0104167
 41
0.0104167
  0
VERTEX
  8
0
 10
6.21072
 20
4.23318
 30
0.0
 40
0.0104167
 41
0.0104167
  0
VERTEX
  8
0
 10
6.21072
 20
3.6326
 30
0.0
 40
0.0104167
 41
0.0104167
  0
VERTEX
  8
0
 10
6.06489
 20
3.6326
 30
0.0
 40
0.0104167
 41
0.0104167
  0
VERTEX
  8
0
 10
6.06489
 20
4.23318
 30
0.0
 40
0.0104167
 41
0.0104167
  0
SEQEND
 8
0
  0
POLYLINE
  8
0
 62
     0
 66
     1
 10
0
 20
0
 30
0.0
 70
     1
 40
0.75
 41
0.75
  0
VERTEX
  8
0
 10
6.06489
 20
4.23318
 30
0.0
 40
0.0104167
 41
0.0104167
  0
VERTEX
  8
0
 10
6.02968
 20
4.23318
 30
0.0
 40
0.0104167
 41
0.0104167
  0
VERTEX
  8
0
 10
5.9241
 20
4.22385
 30
0.0
 40
0.0104167
 41
0.0104167
  0
VERTEX
  8
0
 10
5.80208
 20
4.19569
 30
0.0
 40
0.0104167
 41
0.0104167
  0
VERTEX
  8
0
 10
5.69883
 20
4.14876
 30
0.0
 40
0.0104167
 41
0.0104167
  0
VERTEX
  8
0
 10
5.61442
 20
4.08306
 30
0.0
 40
0.0104167
 41
0.0104167
  0
VERTEX
  8
0
 10
5.54872
 20
3.99858
 30
0.0
 40
0.0104167
 41
0.0104167
  0
VERTEX
  8
0
 10
5.50179
 20
3.8954
 30
0.0
 40
0.0104167
 41
0.0104167
  0
VERTEX
  8
0
 10
5.47364
 20
3.77339
 30
0.0
 40
0.0104167
 41
0.0104167
  0
VERTEX
  8
0
 10
5.46425
 20
3.66781
 30
0.0
 40
0.0104167
 41
0.0104167
  0
VERTEX
  8
0
 10
5.46425
 20
3.6326
 30
0.0
 40
0.0104167
 41
0.0104167
  0
VERTEX
  8
0
 10
6.06489
 20
3.6326
 30
0.0
 40
0.0104167
 41
0.0104167
  0
VERTEX
  8
0
 10
6.06489
 20
4.23318
 30
0.0
 40
0.0104167
 41
0.0104167
  0
SEQEND
 8
0
  0
POLYLINE
  8
0
 62
     0
 66
     1
 10
0
 20
0
 30
0.0
 70
     1
 40
0
 41
0
  0
VERTEX
  8
0
 10
6.06489
 20
5.0459
 30
0.0
 40
0
 41
0
  0
VERTEX
  8
0
 10
8.23242
 20
5.0459
 30
0.0
 40
0
 41
0
  0
VERTEX
  8
0
 10
8.23242
 20
4.90007
 30
0.0
 40
0
 41
0
  0
VERTEX
  8
0
 10
6.21072
 20
4.90007
 30
0.0
 40
0
 41
0
  0
VERTEX
  8
0
 10
6.06489
 20
5.0459
 30
0.0
 40
0
 41
0
  0
SEQEND
 8
0
  0
POLYLINE
  8
0
 62
     0
 66
     1
 10
0
 20
0
 30
0.0
 70
     1
 40
0.15
 41
0.15
  0
VERTEX
  8
0
 10
6.06489
 20
5.0459
 30
0.0
 40
0.00208333
 41
0.00208333
  0
VERTEX
  8
0
 10
8.23242
 20
5.0459
 30
0.0
 40
0.00208333
 41
0.00208333
  0
VERTEX
  8
0
 10
8.23242
 20
4.90007
 30
0.0
 40
0.00208333
 41
0.00208333
  0
VERTEX
  8
0
 10
6.21072
 20
4.90007
 30
0.0
 40
0.00208333
 41
0.00208333
  0
VERTEX
  8
0
 10
6.06489
 20
5.0459
 30
0.0
 40
0.00208333
 41
0.00208333
  0
SEQEND
 8
0
  0
POLYLINE
  8
0
 62
     0
 66
     1
 10
0
 20
0
 30
0.0
 70
     1
 40
0
 41
0
  0
VERTEX
  8
0
 10
7.46875
 20
5.0459
 30
0.0
 40
0
 41
0
  0
VERTEX
  8
0
 10
7.59375
 20
5.0459
 30
0.0
 40
0
 41
0
  0
VERTEX
  8
0
 10
7.59375
 20
2.08382
 30
0.0
 40
0
 41
0
  0
VERTEX
  8
0
 10
7.46875
 20
2.08382
 30
0.0
 40
0
 41
0
  0
VERTEX
  8
0
 10
7.46875
 20
5.0459
 30
0.0
 40
0
 41
0
  0
SEQEND
 8
0
  0
POLYLINE
  8
0
 62
     0
 66
     1
 10
0
 20
0
 30
0.0
 70
     1
 40
0.15
 41
0.15
  0
VERTEX
  8
0
 10
7.46875
 20
5.0459
 30
0.0
 40
0.00208333
 41
0.00208333
  0
VERTEX
  8
0
 10
7.59375
 20
5.0459
 30
0.0
 40
0.00208333
 41
0.00208333
  0
VERTEX
  8
0
 10
7.59375
 20
2.08382
 30
0.0
 40
0.00208333
 41
0.00208333
  0
VERTEX
  8
0
 10
7.46875
 20
2.08382
 30
0.0
 40
0.00208333
 41
0.00208333
  0
VERTEX
  8
0
 10
7.46875
 20
5.0459
 30
0.0
 40
0.00208333
 41
0.00208333
  0
SEQEND
 8
0
  0
POLYLINE
  8
0
 62
     0
 66
     1
 10
0
 20
0
 30
0.0
 70
     1
 40
0
 41
0
  0
VERTEX
  8
0
 10
6.06489
 20
3.5709
 30
0.0
 40
0
 41
0
  0
VERTEX
  8
0
 10
7.59375
 20
3.5709
 30
0.0
 40
0
 41
0
  0
VERTEX
  8
0
 10
7.59375
 20
3.42507
 30
0.0
 40
0
 41
0
  0
VERTEX
  8
0
 10
6.06489
 20
3.42507
 30
0.0
 40
0
 41
0
  0
VERTEX
  8
0
 10
6.06489
 20
3.5709
 30
0.0
 40
0
 41
0
  0
SEQEND
 8
0
  0
POLYLINE
  8
0
 62
     0
 66
     1
 10
0
 20
0
 30
0.0
 70
     1
 40
0.15
 41
0.15
  0
VERTEX
  8
0
 10
6.06489
 20
3.5709
 30
0.0
 40
0.00208333
 41
0.00208333
  0
VERTEX
  8
0
 10
7.59375
 20
3.5709
 30
0.0
 40
0.00208333
 41
0.00208333
  0
VERTEX
  8
0
 10
7.59375
 20
3.42507
 30
0.0
 40
0.00208333
 41
0.00208333
  0
VERTEX
  8
0
 10
6.06489
 20
3.42507
 30
0.0
 40
0.00208333
 41
0.00208333
  0
VERTEX
  8
0
 10
6.06489
 20
3.5709
 30
0.0
 40
0.00208333
 41
0.00208333
  0
SEQEND
 8
0
  0
POLYLINE
  8
0
 62
     0
 66
     1
 10
0
 20
0
 30
0.0
 70
     1
 40
0
 41
0
  0
VERTEX
  8
0
 10
9.03207
 20
5.0459
 30
0.0
 40
0
 41
0
  0
VERTEX
  8
0
 10
10.3299
 20
5.0459
 30
0.0
 40
0
 41
0
  0
VERTEX
  8
0
 10
10.3299
 20
4.91049
 30
0.0
 40
0
 41
0
  0
VERTEX
  8
0
 10
9.03207
 20
4.91049
 30
0.0
 40
0
 41
0
  0
VERTEX
  8
0
 10
9.03207
 20
5.0459
 30
0.0
 40
0
 41
0
  0
SEQEND
 8
0
  0
POLYLINE
  8
0
 62
     0
 66
     1
 10
0
 20
0
 30
0.0
 70
     1
 40
0.15
 41
0.15
  0
VERTEX
  8
0
 10
9.03207
 20
5.0459
 30
0.0
 40
0.00208333
 41
0.00208333
  0
VERTEX
  8
0
 10
10.3299
 20
5.0459
 30
0.0
 40
0.00208333
 41
0.00208333
  0
VERTEX
  8
0
 10
10.3299
 20
4.91049
 30
0.0
 40
0.00208333
 41
0.00208333
  0
VERTEX
  8
0
 10
9.03207
 20
4.91049
 30
0.0
 40
0.00208333
 41
0.00208333
  0
VERTEX
  8
0
 10
9.03207
 20
5.0459
 30
0.0
 40
0.00208333
 41
0.00208333
  0
SEQEND
 8
0
  0
POLYLINE
  8
0
 62
     0
 66
     1
 10
0
 20
0
 30
0.0
 70
     1
 40
0
 41
0
  0
VERTEX
  8
0
 10
4.0804
 20
6.33068
 30
0.0
 40
0
 41
0
  0
VERTEX
  8
0
 10
4.2054
 20
6.33068
 30
0.0
 40
0
 41
0
  0
VERTEX
  8
0
 10
4.2054
 20
0.981825
 30
0.0
 40
0
 41
0
  0
VERTEX
  8
0
 10
4.0804
 20
0.981825
 30
0.0
 40
0
 41
0
  0
VERTEX
  8
0
 10
4.0804
 20
6.33068
 30
0.0
 40
0
 41
0
  0
SEQEND
 8
0
  0
POLYLINE
  8
0
 62
     0
 66
     1
 10
0
 20
0
 30
0.0
 70
     1
 40
0.15
 41
0.15
  0
VERTEX
  8
0
 10
4.0804
 20
6.33068
 30
0.0
 40
0.00208333
 41
0.00208333
  0
VERTEX
  8
0
 10
4.2054
 20
6.33068
 30
0.0
 40
0.00208333
 41
0.00208333
  0
VERTEX
  8
0
 10
4.2054
 20
0.981825
 30
0.0
 40
0.00208333
 41
0.00208333
  0
VERTEX
  8
0
 10
4.0804
 20
0.981825
 30
0.0
 40
0.00208333
 41
0.00208333
  0
VERTEX
  8
0
 10
4.0804
 20
6.33068
 30
0.0
 40
0.00208333
 41
0.00208333
  0
SEQEND
 8
0
  0
POLYLINE
  8
0
 62
     7
 66
     1
 10
0
 20
0
 30
0.0
 70
     1
 40
0
 41
0
  0
VERTEX
  8
0
 10
4.0804
 20
5.07026
 30
0.0
 40
0
 41
0
  0
VERTEX
  8
0
 10
4.2054
 20
5.07026
 30
0.0
 40
0
 41
0
  0
VERTEX
  8
0
 10
4.2054
 20
4.24311
 30
0.0
 40
0
 41
0
  0
VERTEX
  8
0
 10
4.0804
 20
4.24311
 30
0.0
 40
0
 41
0
  0
VERTEX
  8
0
 10
4.0804
 20
5.07026
 30
0.0
 40
0
 41
0
  0
SEQEND
 8
0
  0
POLYLINE
  8
0
 62
     0
 66
     1
 10
0
 20
0
 30
0.0
 70
     1
 40
0.75
 41
0.75
  0
VERTEX
  8
0
 10
4.0804
 20
5.07026
 30
0.0
 40
0.0104167
 41
0.0104167
  0
VERTEX
  8
0
 10
4.2054
 20
5.07026
 30
0.0
 40
0.0104167
 41
0.0104167
  0
VERTEX
  8
0
 10
4.2054
 20
4.24311
 30
0.0
 40
0.0104167
 41
0.0104167
  0
VERTEX
  8
0
 10
4.0804
 20
4.24311
 30
0.0
 40
0.0104167
 41
0.0104167
  0
VERTEX
  8
0
 10
4.0804
 20
5.07026
 30
0.0
 40
0.0104167
 41
0.0104167
  0
SEQEND
 8
0
  0
POLYLINE
  8
0
 62
     7
 66
     1
 10
0
 20
0
 30
0.0
 70
     1
 40
0
 41
0
  0
VERTEX
  8
0
 10
4.0804
 20
5.07026
 30
0.0
 40
0
 41
0
  0
VERTEX
  8
0
 10
4.2054
 20
5.07026
 30
0.0
 40
0
 41
0
  0
VERTEX
  8
0
 10
4.2054
 20
4.24311
 30
0.0
 40
0
 41
0
  0
VERTEX
  8
0
 10
4.0804
 20
4.24311
 30
0.0
 40
0
 41
0
  0
VERTEX
  8
0
 10
4.0804
 20
5.07026
 30
0.0
 40
0
 41
0
  0
SEQEND
 8
0
  0
POLYLINE
  8
0
 62
     0
 66
     1
 10
0
 20
0
 30
0.0
 70
     1
 40
0.75
 41
0.75
  0
VERTEX
  8
0
 10
4.0804
 20
5.07026
 30
0.0
 40
0.0104167
 41
0.0104167
  0
VERTEX
  8
0
 10
4.2054
 20
5.07026
 30
0.0
 40
0.0104167
 41
0.0104167
  0
VERTEX
  8
0
 10
4.2054
 20
4.24311
 30
0.0
 40
0.0104167
 41
0.0104167
  0
VERTEX
  8
0
 10
4.0804
 20
4.24311
 30
0.0
 40
0.0104167
 41
0.0104167
  0
VERTEX
  8
0
 10
4.0804
 20
5.07026
 30
0.0
 40
0.0104167
 41
0.0104167
  0
SEQEND
 8
0
  0
POLYLINE
  8
0
 62
     0
 66
     1
 10
0
 20
0
 30
0.0
 70
     1
 40
0.75
 41
0.75
  0
VERTEX
  8
0
 10
4.0804
 20
4.24311
 30
0.0
 40
0.0104167
 41
0.0104167
  0
VERTEX
  8
0
 10
4.0319
 20
4.24311
 30
0.0
 40
0.0104167
 41
0.0104167
  0
VERTEX
  8
0
 10
3.8865
 20
4.25608
 30
0.0
 40
0.0104167
 41
0.0104167
  0
VERTEX
  8
0
 10
3.71847
 20
4.29482
 30
0.0
 40
0.0104167
 41
0.0104167
  0
VERTEX
  8
0
 10
3.57633
 20
4.35943
 30
0.0
 40
0.0104167
 41
0.0104167
  0
VERTEX
  8
0
 10
3.46001
 20
4.44993
 30
0.0
 40
0.0104167
 41
0.0104167
  0
VERTEX
  8
0
 10
3.36951
 20
4.56625
 30
0.0
 40
0.0104167
 41
0.0104167
  0
VERTEX
  8
0
 10
3.3049
 20
4.70839
 30
0.0
 40
0.0104167
 41
0.0104167
  0
VERTEX
  8
0
 10
3.26617
 20
4.87642
 30
0.0
 40
0.0104167
 41
0.0104167
  0
VERTEX
  8
0
 10
3.25325
 20
5.02181
 30
0.0
 40
0.0104167
 41
0.0104167
  0
VERTEX
  8
0
 10
3.25325
 20
5.07026
 30
0.0
 40
0.0104167
 41
0.0104167
  0
VERTEX
  8
0
 10
4.0804
 20
5.07026
 30
0.0
 40
0.0104167
 41
0.0104167
  0
VERTEX
  8
0
 10
4.0804
 20
4.24311
 30
0.0
 40
0.0104167
 41
0.0104167
  0
SEQEND
 8
0
  0
POLYLINE
  8
0
 62
     7
 66
     1
 10
0
 20
0
 30
0.0
 70
     1
 40
0
 41
0
  0
VERTEX
  8
0
 10
4.0804
 20
6.22244
 30
0.0
 40
0
 41
0
  0
VERTEX
  8
0
 10
4.2054
 20
6.22244
 30
0.0
 40
0
 41
0
  0
VERTEX
  8
0
 10
4.2054
 20
5.36567
 30
0.0
 40
0
 41
0
  0
VERTEX
  8
0
 10
4.0804
 20
5.36567
 30
0.0
 40
0
 41
0
  0
VERTEX
  8
0
 10
4.0804
 20
6.22244
 30
0.0
 40
0
 41
0
  0
SEQEND
 8
0
  0
POLYLINE
  8
0
 62
     0
 66
     1
 10
0
 20
0
 30
0.0
 70
     1
 40
0.75
 41
0.75
  0
VERTEX
  8
0
 10
4.0804
 20
6.22244
 30
0.0
 40
0.0104167
 41
0.0104167
  0
VERTEX
  8
0
 10
4.2054
 20
6.22244
 30
0.0
 40
0.0104167
 41
0.0104167
  0
VERTEX
  8
0
 10
4.2054
 20
5.36567
 30
0.0
 40
0.0104167
 41
0.0104167
  0
VERTEX
  8
0
 10
4.0804
 20
5.36567
 30
0.0
 40
0.0104167
 41
0.0104167
  0
VERTEX
  8
0
 10
4.0804
 20
6.22244
 30
0.0
 40
0.0104167
 41
0.0104167
  0
SEQEND
 8
0
  0
POLYLINE
  8
0
 62
     7
 66
     1
 10
0
 20
0
 30
0.0
 70
     1
 40
0
 41
0
  0
VERTEX
  8
0
 10
4.0804
 20
6.22244
 30
0.0
 40
0
 41
0
  0
VERTEX
  8
0
 10
4.2054
 20
6.22244
 30
0.0
 40
0
 41
0
  0
VERTEX
  8
0
 10
4.2054
 20
5.36567
 30
0.0
 40
0
 41
0
  0
VERTEX
  8
0
 10
4.0804
 20
5.36567
 30
0.0
 40
0
 41
0
  0
VERTEX
  8
0
 10
4.0804
 20
6.22244
 30
0.0
 40
0
 41
0
  0
SEQEND
 8
0
  0
POLYLINE
  8
0
 62
     0
 66
     1
 10
0
 20
0
 30
0.0
 70
     1
 40
0.75
 41
0.75
  0
VERTEX
  8
0
 10
4.0804
 20
6.22244
 30
0.0
 40
0.0104167
 41
0.0104167
  0
VERTEX
  8
0
 10
4.2054
 20
6.22244
 30
0.0
 40
0.0104167
 41
0.0104167
  0
VERTEX
  8
0
 10
4.2054
 20
5.36567
 30
0.0
 40
0.0104167
 41
0.0104167
  0
VERTEX
  8
0
 10
4.0804
 20
5.36567
 30
0.0
 40
0.0104167
 41
0.0104167
  0
VERTEX
  8
0
 10
4.0804
 20
6.22244
 30
0.0
 40
0.0104167
 41
0.0104167
  0
SEQEND
 8
0
  0
POLYLINE
  8
0
 62
     0
 66
     1
 10
0
 20
0
 30
0.0
 70
     1
 40
0.75
 41
0.75
  0
VERTEX
  8
0
 10
4.0804
 20
6.22244
 30
0.0
 40
0.0104167
 41
0.0104167
  0
VERTEX
  8
0
 10
4.03017
 20
6.22244
 30
0.0
 40
0.0104167
 41
0.0104167
  0
VERTEX
  8
0
 10
3.87956
 20
6.2091
 30
0.0
 40
0.0104167
 41
0.0104167
  0
VERTEX
  8
0
 10
3.70557
 20
6.16889
 30
0.0
 40
0.0104167
 41
0.0104167
  0
VERTEX
  8
0
 10
3.55826
 20
6.102
 30
0.0
 40
0.0104167
 41
0.0104167
  0
VERTEX
  8
0
 10
3.43782
 20
6.00825
 30
0.0
 40
0.0104167
 41
0.0104167
  0
VERTEX
  8
0
 10
3.34407
 20
5.88781
 30
0.0
 40
0.0104167
 41
0.0104167
  0
VERTEX
  8
0
 10
3.27718
 20
5.7405
 30
0.0
 40
0.0104167
 41
0.0104167
  0
VERTEX
  8
0
 10
3.23699
 20
5.56651
 30
0.0
 40
0.0104167
 41
0.0104167
  0
VERTEX
  8
0
 10
3.22364
 20
5.4159
 30
0.0
 40
0.0104167
 41
0.0104167
  0
VERTEX
  8
0
 10
3.22364
 20
5.36567
 30
0.0
 40
0.0104167
 41
0.0104167
  0
VERTEX
  8
0
 10
4.0804
 20
5.36567
 30
0.0
 40
0.0104167
 41
0.0104167
  0
VERTEX
  8
0
 10
4.0804
 20
6.22244
 30
0.0
 40
0.0104167
 41
0.0104167
  0
SEQEND
 8
0
  0
POLYLINE
  8
0
 62
     0
 66
     1
 10
0
 20
0
 30
0.0
 70
     1
 40
0
 41
0
  0
VERTEX
  8
0
 10
0.376899
 20
5.259
 30
0.0
 40
0
 41
0
  0
VERTEX
  8
0
 10
4.2054
 20
5.259
 30
0.0
 40
0
 41
0
  0
VERTEX
  8
0
 10
4.2054
 20
5.134
 30
0.0
 40
0
 41
0
  0
VERTEX
  8
0
 10
0.376899
 20
5.134
 30
0.0
 40
0
 41
0
  0
VERTEX
  8
0
 10
0.376899
 20
5.259
 30
0.0
 40
0
 41
0
  0
SEQEND
 8
0
  0
POLYLINE
  8
0
 62
     0
 66
     1
 10
0
 20
0
 30
0.0
 70
     1
 40
0.15
 41
0.15
  0
VERTEX
  8
0
 10
0.376899
 20
5.259
 30
0.0
 40
0.00208333
 41
0.00208333
  0
VERTEX
  8
0
 10
4.2054
 20
5.259
 30
0.0
 40
0.00208333
 41
0.00208333
  0
VERTEX
  8
0
 10
4.2054
 20
5.134
 30
0.0
 40
0.00208333
 41
0.00208333
  0
VERTEX
  8
0
 10
0.376899
 20
5.134
 30
0.0
 40
0.00208333
 41
0.00208333
  0
VERTEX
  8
0
 10
0.376899
 20
5.259
 30
0.0
 40
0.00208333
 41
0.00208333
  0
SEQEND
 8
0
  0
POLYLINE
  8
0
 62
     0
 66
     1
 10
0
 20
0
 30
0.0
 70
     1
 40
0
 41
0
  0
VERTEX
  8
0
 10
7.59375
 20
2.558
 30
0.0
 40
0
 41
0
  0
VERTEX
  8
0
 10
8.22999
 20
2.558
 30
0.0
 40
0
 41
0
  0
VERTEX
  8
0
 10
8.22999
 20
2.27924
 30
0.0
 40
0
 41
0
  0
VERTEX
  8
0
 10
7.59375
 20
2.27924
 30
0.0
 40
0
 41
0
  0
VERTEX
  8
0
 10
7.59375
 20
2.558
 30
0.0
 40
0
 41
0
  0
SEQEND
 8
0
  0
POLYLINE
  8
0
 62
     0
 66
     1
 10
0
 20
0
 30
0.0
 70
     1
 40
0.15
 41
0.15
  0
VERTEX
  8
0
 10
7.59375
 20
2.558
 30
0.0
 40
0.00208333
 41
0.00208333
  0
VERTEX
  8
0
 10
8.22999
 20
2.558
 30
0.0
 40
0.00208333
 41
0.00208333
  0
VERTEX
  8
0
 10
8.22999
 20
2.27924
 30
0.0
 40
0.00208333
 41
0.00208333
  0
VERTEX
  8
0
 10
7.59375
 20
2.27924
 30
0.0
 40
0.00208333
 41
0.00208333
  0
VERTEX
  8
0
 10
7.59375
 20
2.558
 30
0.0
 40
0.00208333
 41
0.00208333
  0
SEQEND
 8
0
  0
POLYLINE
  8
0
 62
     0
 66
     1
 10
0
 20
0
 30
0.0
 70
     1
 40
0
 41
0
  0
VERTEX
  8
0
 10
0.606065
 20
5.55735
 30
0.0
 40
0
 41
0
  0
VERTEX
  8
0
 10
0.91721
 20
5.55735
 30
0.0
 40
0
 41
0
  0
VERTEX
  8
0
 10
0.91721
 20
5.26307
 30
0.0
 40
0
 41
0
  0
VERTEX
  8
0
 10
0.606065
 20
5.26307
 30
0.0
 40
0
 41
0
  0
VERTEX
  8
0
 10
0.606065
 20
5.55735
 30
0.0
 40
0
 41
0
  0
SEQEND
 8
0
  0
POLYLINE
  8
0
 62
     0
 66
     1
 10
0
 20
0
 30
0.0
 70
     1
 40
0.15
 41
0.15
  0
VERTEX
  8
0
 10
0.606065
 20
5.55735
 30
0.0
 40
0.00208333
 41
0.00208333
  0
VERTEX
  8
0
 10
0.91721
 20
5.55735
 30
0.0
 40
0.00208333
 41
0.00208333
  0
VERTEX
  8
0
 10
0.91721
 20
5.26307
 30
0.0
 40
0.00208333
 41
0.00208333
  0
VERTEX
  8
0
 10
0.606065
 20
5.26307
 30
0.0
 40
0.00208333
 41
0.00208333
  0
VERTEX
  8
0
 10
0.606065
 20
5.55735
 30
0.0
 40
0.00208333
 41
0.00208333
  0
SEQEND
 8
0
  0
POLYLINE
  8
0
 62
     0
 66
     1
 10
0
 20
0
 30
0.0
 70
     1
 40
0
 41
0
  0
VERTEX
  8
0
 10
6.77897
 20
8.49278
 30
0.0
 40
0
 41
0
  0
VERTEX
  8
0
 10
7.71625
 20
8.49278
 30
0.0
 40
0
 41
0
  0
VERTEX
  8
0
 10
7.71625
 20
8.42204
 30
0.0
 40
0
 41
0
  0
VERTEX
  8
0
 10
6.77897
 20
8.42204
 30
0.0
 40
0
 41
0
  0
VERTEX
  8
0
 10
6.77897
 20
8.49278
 30
0.0
 40
0
 41
0
  0
SEQEND
 8
0
  0
POLYLINE
  8
0
 62
     0
 66
     1
 10
0
 20
0
 30
0.0
 70
     1
 40
0.15
 41
0.15
  0
VERTEX
  8
0
 10
6.77897
 20
8.49278
 30
0.0
 40
0.00208333
 41
0.00208333
  0
VERTEX
  8
0
 10
7.71625
 20
8.49278
 30
0.0
 40
0.00208333
 41
0.00208333
  0
VERTEX
  8
0
 10
7.71625
 20
8.42204
 30
0.0
 40
0.00208333
 41
0.00208333
  0
VERTEX
  8
0
 10
6.77897
 20
8.42204
 30
0.0
 40
0.00208333
 41
0.00208333
  0
VERTEX
  8
0
 10
6.77897
 20
8.49278
 30
0.0
 40
0.00208333
 41
0.00208333
  0
SEQEND
 8
0
  0
POLYLINE
  8
0
 62
     0
 66
     1
 10
0
 20
0
 30
0.0
 70
     1
 40
0
 41
0
  0
VERTEX
  8
0
 10
13.6878
 20
8.72194
 30
0.0
 40
0
 41
0
  0
VERTEX
  8
0
 10
15.0881
 20
8.72194
 30
0.0
 40
0
 41
0
  0
VERTEX
  8
0
 10
15.0881
 20
8.59694
 30
0.0
 40
0
 41
0
  0
VERTEX
  8
0
 10
13.6878
 20
8.59694
 30
0.0
 40
0
 41
0
  0
VERTEX
  8
0
 10
13.6878
 20
8.72194
 30
0.0
 40
0
 41
0
  0
SEQEND
 8
0
  0
POLYLINE
  8
0
 62
     0
 66
     1
 10
0
 20
0
 30
0.0
 70
     1
 40
0.15
 41
0.15
  0
VERTEX
  8
0
 10
13.6878
 20
8.72194
 30
0.0
 40
0.00208333
 41
0.00208333
  0
VERTEX
  8
0
 10
15.0881
 20
8.72194
 30
0.0
 40
0.00208333
 41
0.00208333
  0
VERTEX
  8
0
 10
15.0881
 20
8.59694
 30
0.0
 40
0.00208333
 41
0.00208333
  0
VERTEX
  8
0
 10
13.6878
 20
8.59694
 30
0.0
 40
0.00208333
 41
0.00208333
  0
VERTEX
  8
0
 10
13.6878
 20
8.72194
 30
0.0
 40
0.00208333
 41
0.00208333
  0
SEQEND
 8
0
  0
POLYLINE
  8
0
 62
     7
 66
     1
 10
0
 20
0
 30
0.0
 70
     1
 40
0
 41
0
  0
VERTEX
  8
0
 10
15.0465
 20
8.59694
 30
0.0
 40
0
 41
0
  0
VERTEX
  8
0
 10
15.0465
 20
5.64735
 30
0.0
 40
0
 41
0
  0
VERTEX
  8
0
 10
14.9631
 20
5.75151
 30
0.0
 40
0
 41
0
  0
VERTEX
  8
0
 10
14.9631
 20
8.59694
 30
0.0
 40
0
 41
0
  0
VERTEX
  8
0
 10
15.0465
 20
8.59694
 30
0.0
 40
0
 41
0
  0
SEQEND
 8
0
  0
POLYLINE
  8
0
 62
     0
 66
     1
 10
0
 20
0
 30
0.0
 70
     1
 40
0.15
 41
0.15
  0
VERTEX
  8
0
 10
15.0465
 20
8.59694
 30
0.0
 40
0.00208333
 41
0.00208333
  0
VERTEX
  8
0
 10
15.0465
 20
5.64735
 30
0.0
 40
0.00208333
 41
0.00208333
  0
VERTEX
  8
0
 10
14.9631
 20
5.75151
 30
0.0
 40
0.00208333
 41
0.00208333
  0
VERTEX
  8
0
 10
14.9631
 20
8.59694
 30
0.0
 40
0.00208333
 41
0.00208333
  0
VERTEX
  8
0
 10
15.0465
 20
8.59694
 30
0.0
 40
0.00208333
 41
0.00208333
  0
SEQEND
 8
0
  0
POLYLINE
  8
0
 62
     7
 66
     1
 10
0
 20
0
 30
0.0
 70
     1
 40
0
 41
0
  0
VERTEX
  8
0
 10
4.20578
 20
1.78114
 30
0.0
 40
0
 41
0
  0
VERTEX
  8
0
 10
4.83078
 20
1.78114
 30
0.0
 40
0
 41
0
  0
VERTEX
  8
0
 10
4.83078
 20
1.21094
 30
0.0
 40
0
 41
0
  0
VERTEX
  8
0
 10
4.20578
 20
1.21094
 30
0.0
 40
0
 41
0
  0
VERTEX
  8
0
 10
4.20578
 20
1.78114
 30
0.0
 40
0
 41
0
  0
SEQEND
 8
0
  0
POLYLINE
  8
0
 62
     0
 66
     1
 10
0
 20
0
 30
0.0
 70
     1
 40
0.75
 41
0.75
  0
VERTEX
  8
0
 10
4.20578
 20
1.78114
 30
0.0
 40
0.0104167
 41
0.0104167
  0
VERTEX
  8
0
 10
4.20578
 20
1.21094
 30
0.0
 40
0.0104167
 41
0.0104167
  0
VERTEX
  8
0
 10
4.83078
 20
1.21094
 30
0.0
 40
0.0104167
 41
0.0104167
  0
VERTEX
  8
0
 10
4.83078
 20
1.78114
 30
0.0
 40
0.0104167
 41
0.0104167
  0
VERTEX
  8
0
 10
4.20578
 20
1.78114
 30
0.0
 40
0.0104167
 41
0.0104167
  0
SEQEND
 8
0
  0
POLYLINE
  8
0
 62
     7
 66
     1
 10
0
 20
0
 30
0.0
 70
     1
 40
0
 41
0
  0
VERTEX
  8
0
 10
4.20578
 20
2.3514
 30
0.0
 40
0
 41
0
  0
VERTEX
  8
0
 10
4.83078
 20
2.3514
 30
0.0
 40
0
 41
0
  0
VERTEX
  8
0
 10
4.83078
 20
1.78119
 30
0.0
 40
0
 41
0
  0
VERTEX
  8
0
 10
4.20578
 20
1.78119
 30
0.0
 40
0
 41
0
  0
VERTEX
  8
0
 10
4.20578
 20
2.3514
 30
0.0
 40
0
 41
0
  0
SEQEND
 8
0
  0
POLYLINE
  8
0
 62
     0
 66
     1
 10
0
 20
0
 30
0.0
 70
     1
 40
0.75
 41
0.75
  0
VERTEX
  8
0
 10
4.20578
 20
2.3514
 30
0.0
 40
0.0104167
 41
0.0104167
  0
VERTEX
  8
0
 10
4.20578
 20
1.78119
 30
0.0
 40
0.0104167
 41
0.0104167
  0
VERTEX
  8
0
 10
4.83078
 20
1.78119
 30
0.0
 40
0.0104167
 41
0.0104167
  0
VERTEX
  8
0
 10
4.83078
 20
2.3514
 30
0.0
 40
0.0104167
 41
0.0104167
  0
VERTEX
  8
0
 10
4.20578
 20
2.3514
 30
0.0
 40
0.0104167
 41
0.0104167
  0
SEQEND
 8
0
  0
POLYLINE
  8
0
 62
     7
 66
     1
 10
0
 20
0
 30
0.0
 70
     1
 40
0
 41
0
  0
VERTEX
  8
0
 10
1.94824
 20
1.80322
 30
0.0
 40
0
 41
0
  0
VERTEX
  8
0
 10
2.46772
 20
1.80322
 30
0.0
 40
0
 41
0
  0
VERTEX
  8
0
 10
2.46772
 20
1.2111
 30
0.0
 40
0
 41
0
  0
VERTEX
  8
0
 10
1.94824
 20
1.2111
 30
0.0
 40
0
 41
0
  0
VERTEX
  8
0
 10
1.94824
 20
1.80322
 30
0.0
 40
0
 41
0
  0
SEQEND
 8
0
  0
POLYLINE
  8
0
 62
     0
 66
     1
 10
0
 20
0
 30
0.0
 70
     1
 40
0.75
 41
0.75
  0
VERTEX
  8
0
 10
1.94824
 20
1.80322
 30
0.0
 40
0.0104167
 41
0.0104167
  0
VERTEX
  8
0
 10
2.46772
 20
1.80322
 30
0.0
 40
0.0104167
 41
0.0104167
  0
VERTEX
  8
0
 10
2.46772
 20
1.2111
 30
0.0
 40
0.0104167
 41
0.0104167
  0
VERTEX
  8
0
 10
1.94824
 20
1.2111
 30
0.0
 40
0.0104167
 41
0.0104167
  0
VERTEX
  8
0
 10
1.94824
 20
1.80322
 30
0.0
 40
0.0104167
 41
0.0104167
  0
SEQEND
 8
0
  0
POLYLINE
  8
0
 62
     7
 66
     1
 10
0
 20
0
 30
0.0
 70
     1
 40
0
 41
0
  0
VERTEX
  8
0
 10
1.42876
 20
1.80322
 30
0.0
 40
0
 41
0
  0
VERTEX
  8
0
 10
1.94824
 20
1.80322
 30
0.0
 40
0
 41
0
  0
VERTEX
  8
0
 10
1.94824
 20
1.2111
 30
0.0
 40
0
 41
0
  0
VERTEX
  8
0
 10
1.42876
 20
1.2111
 30
0.0
 40
0
 41
0
  0
VERTEX
  8
0
 10
1.42876
 20
1.80322
 30
0.0
 40
0
 41
0
  0
SEQEND
 8
0
  0
POLYLINE
  8
0
 62
     0
 66
     1
 10
0
 20
0
 30
0.0
 70
     1
 40
0.75
 41
0.75
  0
VERTEX
  8
0
 10
1.42876
 20
1.80322
 30
0.0
 40
0.0104167
 41
0.0104167
  0
VERTEX
  8
0
 10
1.94824
 20
1.80322
 30
0.0
 40
0.0104167
 41
0.0104167
  0
VERTEX
  8
0
 10
1.94824
 20
1.2111
 30
0.0
 40
0.0104167
 41
0.0104167
  0
VERTEX
  8
0
 10
1.42876
 20
1.2111
 30
0.0
 40
0.0104167
 41
0.0104167
  0
VERTEX
  8
0
 10
1.42876
 20
1.80322
 30
0.0
 40
0.0104167
 41
0.0104167
  0
SEQEND
 8
0
  0
POLYLINE
  8
0
 62
     7
 66
     1
 10
0
 20
0
 30
0.0
 70
     1
 40
0
 41
0
  0
VERTEX
  8
0
 10
4.20822
 20
3.34586
 30
0.0
 40
0
 41
0
  0
VERTEX
  8
0
 10
4.83322
 20
3.34586
 30
0.0
 40
0
 41
0
  0
VERTEX
  8
0
 10
4.83322
 20
2.3514
 30
0.0
 40
0
 41
0
  0
VERTEX
  8
0
 10
4.20822
 20
2.3514
 30
0.0
 40
0
 41
0
  0
VERTEX
  8
0
 10
4.20822
 20
3.34586
 30
0.0
 40
0
 41
0
  0
SEQEND
 8
0
  0
POLYLINE
  8
0
 62
     0
 66
     1
 10
0
 20
0
 30
0.0
 70
     1
 40
0.75
 41
0.75
  0
VERTEX
  8
0
 10
4.20822
 20
3.34586
 30
0.0
 40
0.0104167
 41
0.0104167
  0
VERTEX
  8
0
 10
4.20822
 20
2.3514
 30
0.0
 40
0.0104167
 41
0.0104167
  0
VERTEX
  8
0
 10
4.83322
 20
2.3514
 30
0.0
 40
0.0104167
 41
0.0104167
  0
VERTEX
  8
0
 10
4.83322
 20
3.34586
 30
0.0
 40
0.0104167
 41
0.0104167
  0
VERTEX
  8
0
 10
4.20822
 20
3.34586
 30
0.0
 40
0.0104167
 41
0.0104167
  0
SEQEND
 8
0
  0
POLYLINE
  8
0
 62
     253
 66
     1
 10
0
 20
0
 30
0.0
 40
0.75
 41
0.75
  0
VERTEX
  8
0
 10
4.52072
 20
2.3514
 30
0.0
 40
0.0104167
 41
0.0104167
  0
VERTEX
  8
0
 10
4.52072
 20
3.34581
 30
0.0
 40
0.0104167
 41
0.0104167
  0
SEQEND
 8
0
  0
POLYLINE
  8
0
 62
     7
 66
     1
 10
0
 20
0
 30
0.0
 70
     1
 40
0
 41
0
  0
VERTEX
  8
0
 10
0.602322
 20
1.78788
 30
0.0
 40
0
 41
0
  0
VERTEX
  8
0
 10
0.803765
 20
1.78788
 30
0.0
 40
0
 41
0
  0
VERTEX
  8
0
 10
0.803765
 20
1.2156
 30
0.0
 40
0
 41
0
  0
VERTEX
  8
0
 10
0.602322
 20
1.2156
 30
0.0
 40
0
 41
0
  0
VERTEX
  8
0
 10
0.602322
 20
1.78788
 30
0.0
 40
0
 41
0
  0
SEQEND
 8
0
  0
POLYLINE
  8
0
 62
     0
 66
     1
 10
0
 20
0
 30
0.0
 70
     1
 40
1.4505
 41
1.4505
  0
VERTEX
  8
0
 10
0.602322
 20
1.78788
 30
0.0
 40
0.0201458
 41
0.0201458
  0
VERTEX
  8
0
 10
0.803765
 20
1.78788
 30
0.0
 40
0.0201458
 41
0.0201458
  0
VERTEX
  8
0
 10
0.803765
 20
1.2156
 30
0.0
 40
0.0201458
 41
0.0201458
  0
VERTEX
  8
0
 10
0.602322
 20
1.2156
 30
0.0
 40
0.0201458
 41
0.0201458
  0
VERTEX
  8
0
 10
0.602322
 20
1.78788
 30
0.0
 40
0.0201458
 41
0.0201458
  0
SEQEND
 8
0
  0
POLYLINE
  8
0
 62
     7
 66
     1
 10
0
 20
0
 30
0.0
 70
     1
 40
0
 41
0
  0
VERTEX
  8
0
 10
3.50592
 20
1.80322
 30
0.0
 40
0
 41
0
  0
VERTEX
  8
0
 10
4.01215
 20
1.80322
 30
0.0
 40
0
 41
0
  0
VERTEX
  8
0
 10
4.01215
 20
1.2111
 30
0.0
 40
0
 41
0
  0
VERTEX
  8
0
 10
3.50592
 20
1.2111
 30
0.0
 40
0
 41
0
  0
VERTEX
  8
0
 10
3.50592
 20
1.80322
 30
0.0
 40
0
 41
0
  0
SEQEND
 8
0
  0
POLYLINE
  8
0
 62
     0
 66
     1
 10
0
 20
0
 30
0.0
 70
     1
 40
0.75
 41
0.75
  0
VERTEX
  8
0
 10
3.50592
 20
1.80322
 30
0.0
 40
0.0104167
 41
0.0104167
  0
VERTEX
  8
0
 10
4.01215
 20
1.80322
 30
0.0
 40
0.0104167
 41
0.0104167
  0
VERTEX
  8
0
 10
4.01215
 20
1.2111
 30
0.0
 40
0.0104167
 41
0.0104167
  0
VERTEX
  8
0
 10
3.50592
 20
1.2111
 30
0.0
 40
0.0104167
 41
0.0104167
  0
VERTEX
  8
0
 10
3.50592
 20
1.80322
 30
0.0
 40
0.0104167
 41
0.0104167
  0
SEQEND
 8
0
  0
POLYLINE
  8
0
 62
     7
 66
     1
 10
0
 20
0
 30
0.0
 70
     1
 40
0
 41
0
  0
VERTEX
  8
0
 10
4.01215
 20
1.78429
 30
0.0
 40
0
 41
0
  0
VERTEX
  8
0
 10
4.08046
 20
1.78429
 30
0.0
 40
0
 41
0
  0
VERTEX
  8
0
 10
4.08046
 20
1.21094
 30
0.0
 40
0
 41
0
  0
VERTEX
  8
0
 10
4.01215
 20
1.21094
 30
0.0
 40
0
 41
0
  0
VERTEX
  8
0
 10
4.01215
 20
1.78429
 30
0.0
 40
0
 41
0
  0
SEQEND
 8
0
  0
POLYLINE
  8
0
 62
     0
 66
     1
 10
0
 20
0
 30
0.0
 70
     1
 40
0.491625
 41
0.491625
  0
VERTEX
  8
0
 10
4.01215
 20
1.78429
 30
0.0
 40
0.00682813
 41
0.00682813
  0
VERTEX
  8
0
 10
4.08046
 20
1.78429
 30
0.0
 40
0.00682813
 41
0.00682813
  0
VERTEX
  8
0
 10
4.08046
 20
1.21094
 30
0.0
 40
0.00682813
 41
0.00682813
  0
VERTEX
  8
0
 10
4.01215
 20
1.21094
 30
0.0
 40
0.00682813
 41
0.00682813
  0
VERTEX
  8
0
 10
4.01215
 20
1.78429
 30
0.0
 40
0.00682813
 41
0.00682813
  0
SEQEND
 8
0
  0
POLYLINE
  8
0
 62
     7
 66
     1
 10
0
 20
0
 30
0.0
 70
     1
 40
0
 41
0
  0
VERTEX
  8
0
 10
0.803765
 20
1.80322
 30
0.0
 40
0
 41
0
  0
VERTEX
  8
0
 10
1.42876
 20
1.80322
 30
0.0
 40
0
 41
0
  0
VERTEX
  8
0
 10
1.42876
 20
1.2111
 30
0.0
 40
0
 41
0
  0
VERTEX
  8
0
 10
0.803765
 20
1.2111
 30
0.0
 40
0
 41
0
  0
VERTEX
  8
0
 10
0.803765
 20
1.80322
 30
0.0
 40
0
 41
0
  0
SEQEND
 8
0
  0
POLYLINE
  8
0
 62
     0
 66
     1
 10
0
 20
0
 30
0.0
 70
     1
 40
0.75
 41
0.75
  0
VERTEX
  8
0
 10
0.803765
 20
1.80322
 30
0.0
 40
0.0104167
 41
0.0104167
  0
VERTEX
  8
0
 10
1.42876
 20
1.80322
 30
0.0
 40
0.0104167
 41
0.0104167
  0
VERTEX
  8
0
 10
1.42876
 20
1.2111
 30
0.0
 40
0.0104167
 41
0.0104167
  0
VERTEX
  8
0
 10
0.803765
 20
1.2111
 30
0.0
 40
0.0104167
 41
0.0104167
  0
VERTEX
  8
0
 10
0.803765
 20
1.80322
 30
0.0
 40
0.0104167
 41
0.0104167
  0
SEQEND
 8
0
  0
POLYLINE
  8
0
 62
     253
 66
     1
 10
0
 20
0
 30
0.0
 40
0.75
 41
0.75
  0
VERTEX
  8
0
 10
1.42876
 20
1.50717
 30
0.0
 40
0.0104167
 41
0.0104167
  0
VERTEX
  8
0
 10
0.803765
 20
1.50717
 30
0.0
 40
0.0104167
 41
0.0104167
  0
SEQEND
 8
0
  0
POLYLINE
  8
0
 62
     7
 66
     1
 10
0
 20
0
 30
0.0
 70
     1
 40
0
 41
0
  0
VERTEX
  8
0
 10
2.45876
 20
1.80322
 30
0.0
 40
0
 41
0
  0
VERTEX
  8
0
 10
3.50586
 20
1.80322
 30
0.0
 40
0
 41
0
  0
VERTEX
  8
0
 10
3.50586
 20
1.2111
 30
0.0
 40
0
 41
0
  0
VERTEX
  8
0
 10
2.45876
 20
1.2111
 30
0.0
 40
0
 41
0
  0
VERTEX
  8
0
 10
2.45876
 20
1.80322
 30
0.0
 40
0
 41
0
  0
SEQEND
 8
0
  0
POLYLINE
  8
0
 62
     0
 66
     1
 10
0
 20
0
 30
0.0
 70
     1
 40
0.75
 41
0.75
  0
VERTEX
  8
0
 10
2.45876
 20
1.80322
 30
0.0
 40
0.0104167
 41
0.0104167
  0
VERTEX
  8
0
 10
3.50586
 20
1.80322
 30
0.0
 40
0.0104167
 41
0.0104167
  0
VERTEX
  8
0
 10
3.50586
 20
1.2111
 30
0.0
 40
0.0104167
 41
0.0104167
  0
VERTEX
  8
0
 10
2.45876
 20
1.2111
 30
0.0
 40
0.0104167
 41
0.0104167
  0
VERTEX
  8
0
 10
2.45876
 20
1.80322
 30
0.0
 40
0.0104167
 41
0.0104167
  0
SEQEND
 8
0
  0
POLYLINE
  8
0
 62
     253
 66
     1
 10
0
 20
0
 30
0.0
 40
0.75
 41
0.75
  0
VERTEX
  8
0
 10
3.50586
 20
1.50717
 30
0.0
 40
0.0104167
 41
0.0104167
  0
VERTEX
  8
0
 10
2.45882
 20
1.50717
 30
0.0
 40
0.0104167
 41
0.0104167
  0
SEQEND
 8
0
  0
POLYLINE
  8
0
 62
     7
 66
     1
 10
0
 20
0
 30
0.0
 70
     1
 40
0
 41
0
  0
VERTEX
  8
0
 10
6.21072
 20
4.89844
 30
0.0
 40
0
 41
0
  0
VERTEX
  8
0
 10
7.46072
 20
4.89844
 30
0.0
 40
0
 41
0
  0
VERTEX
  8
0
 10
7.46072
 20
4.44488
 30
0.0
 40
0
 41
0
  0
VERTEX
  8
0
 10
6.21072
 20
4.44488
 30
0.0
 40
0
 41
0
  0
VERTEX
  8
0
 10
6.21072
 20
4.89844
 30
0.0
 40
0
 41
0
  0
SEQEND
 8
0
  0
POLYLINE
  8
0
 62
     0
 66
     1
 10
0
 20
0
 30
0.0
 70
     1
 40
0.75
 41
0.75
  0
VERTEX
  8
0
 10
6.21072
 20
4.89844
 30
0.0
 40
0.0104167
 41
0.0104167
  0
VERTEX
  8
0
 10
7.46072
 20
4.89844
 30
0.0
 40
0.0104167
 41
0.0104167
  0
VERTEX
  8
0
 10
7.46072
 20
4.44488
 30
0.0
 40
0.0104167
 41
0.0104167
  0
VERTEX
  8
0
 10
6.21072
 20
4.44488
 30
0.0
 40
0.0104167
 41
0.0104167
  0
VERTEX
  8
0
 10
6.21072
 20
4.89844
 30
0.0
 40
0.0104167
 41
0.0104167
  0
SEQEND
 8
0
  0
POLYLINE
  8
0
 62
     253
 66
     1
 10
0
 20
0
 30
0.0
 40
0.75
 41
0.75
  0
VERTEX
  8
0
 10
6.21072
 20
4.67165
 30
0.0
 40
0.0104167
 41
0.0104167
  0
VERTEX
  8
0
 10
7.46072
 20
4.67165
 30
0.0
 40
0.0104167
 41
0.0104167
  0
SEQEND
 8
0
  0
POLYLINE
  8
0
 62
     7
 66
     1
 10
0
 20
0
 30
0.0
 70
     1
 40
0
 41
0
  0
VERTEX
  8
0
 10
7.01361
 20
4.44482
 30
0.0
 40
0
 41
0
  0
VERTEX
  8
0
 10
7.46718
 20
4.44482
 30
0.0
 40
0
 41
0
  0
VERTEX
  8
0
 10
7.46718
 20
3.57476
 30
0.0
 40
0
 41
0
  0
VERTEX
  8
0
 10
7.01361
 20
3.57476
 30
0.0
 40
0
 41
0
  0
VERTEX
  8
0
 10
7.01361
 20
4.44482
 30
0.0
 40
0
 41
0
  0
SEQEND
 8
0
  0
POLYLINE
  8
0
 62
     0
 66
     1
 10
0
 20
0
 30
0.0
 70
     1
 40
0.75
 41
0.75
  0
VERTEX
  8
0
 10
7.01361
 20
4.44482
 30
0.0
 40
0.0104167
 41
0.0104167
  0
VERTEX
  8
0
 10
7.01361
 20
3.57476
 30
0.0
 40
0.0104167
 41
0.0104167
  0
VERTEX
  8
0
 10
7.46718
 20
3.57476
 30
0.0
 40
0.0104167
 41
0.0104167
  0
VERTEX
  8
0
 10
7.46718
 20
4.44482
 30
0.0
 40
0.0104167
 41
0.0104167
  0
VERTEX
  8
0
 10
7.01361
 20
4.44482
 30
0.0
 40
0.0104167
 41
0.0104167
  0
SEQEND
 8
0
  0
POLYLINE
  8
0
 62
     7
 66
     1
 10
0
 20
0
 30
0.0
 70
     1
 40
0
 41
0
  0
VERTEX
  8
0
 10
7.27626
 20
2.81592
 30
0.0
 40
0
 41
0
  0
VERTEX
  8
0
 10
7.4636
 20
2.81592
 30
0.0
 40
0
 41
0
  0
VERTEX
  8
0
 10
7.4636
 20
2.39936
 30
0.0
 40
0
 41
0
  0
VERTEX
  8
0
 10
7.27626
 20
2.39936
 30
0.0
 40
0
 41
0
  0
VERTEX
  8
0
 10
7.27626
 20
2.81592
 30
0.0
 40
0
 41
0
  0
SEQEND
 8
0
  0
POLYLINE
  8
0
 62
     0
 66
     1
 10
0
 20
0
 30
0.0
 70
     1
 40
0.75
 41
0.75
  0
VERTEX
  8
0
 10
7.27626
 20
2.81592
 30
0.0
 40
0.0104167
 41
0.0104167
  0
VERTEX
  8
0
 10
7.27626
 20
2.39936
 30
0.0
 40
0.0104167
 41
0.0104167
  0
VERTEX
  8
0
 10
7.4636
 20
2.39936
 30
0.0
 40
0.0104167
 41
0.0104167
  0
VERTEX
  8
0
 10
7.4636
 20
2.81592
 30
0.0
 40
0.0104167
 41
0.0104167
  0
VERTEX
  8
0
 10
7.27626
 20
2.81592
 30
0.0
 40
0.0104167
 41
0.0104167
  0
SEQEND
 8
0
  0
POLYLINE
  8
0
 62
     7
 66
     1
 10
0
 20
0
 30
0.0
 70
     1
 40
0
 41
0
  0
VERTEX
  8
0
 10
7.00797
 20
2.39936
 30
0.0
 40
0
 41
0
  0
VERTEX
  8
0
 10
7.00797
 20
2.39936
 30
0.0
 40
0
 41
0
  0
VERTEX
  8
0
 10
6.99621
 20
2.39931
 30
0.0
 40
0
 41
0
  0
VERTEX
  8
0
 10
6.96522
 20
2.40093
 30
0.0
 40
0
 41
0
  0
VERTEX
  8
0
 10
6.92139
 20
2.40707
 30
0.0
 40
0
 41
0
  0
VERTEX
  8
0
 10
6.87121
 20
2.42046
 30
0.0
 40
0
 41
0
  0
VERTEX
  8
0
 10
6.82096
 20
2.44401
 30
0.0
 40
0
 41
0
  0
VERTEX
  8
0
 10
6.77713
 20
2.48047
 30
0.0
 40
0
 41
0
  0
VERTEX
  8
0
 10
6.74615
 20
2.53267
 30
0.0
 40
0
 41
0
  0
VERTEX
  8
0
 10
6.73443
 20
2.58572
 30
0.0
 40
0
 41
0
  0
VERTEX
  8
0
 10
6.73443
 20
2.60335
 30
0.0
 40
0
 41
0
  0
VERTEX
  8
0
 10
6.73443
 20
2.62169
 30
0.0
 40
0
 41
0
  0
VERTEX
  8
0
 10
6.74615
 20
2.67654
 30
0.0
 40
0
 41
0
  0
VERTEX
  8
0
 10
6.77713
 20
2.73062
 30
0.0
 40
0
 41
0
  0
VERTEX
  8
0
 10
6.82096
 20
2.76844
 30
0.0
 40
0
 41
0
  0
VERTEX
  8
0
 10
6.87121
 20
2.79286
 30
0.0
 40
0
 41
0
  0
VERTEX
  8
0
 10
6.92139
 20
2.80686
 30
0.0
 40
0
 41
0
  0
VERTEX
  8
0
 10
6.96522
 20
2.81326
 30
0.0
 40
0
 41
0
  0
VERTEX
  8
0
 10
6.99621
 20
2.815
 30
0.0
 40
0
 41
0
  0
VERTEX
  8
0
 10
7.00797
 20
2.81489
 30
0.0
 40
0
 41
0
  0
VERTEX
  8
0
 10
7.00797
 20
2.81489
 30
0.0
 40
0
 41
0
  0
VERTEX
  8
0
 10
7.27626
 20
2.81592
 30
0.0
 40
0
 41
0
  0
VERTEX
  8
0
 10
7.27626
 20
2.39936
 30
0.0
 40
0
 41
0
  0
VERTEX
  8
0
 10
7.00797
 20
2.39936
 30
0.0
 40
0
 41
0
  0
SEQEND
 8
0
  0
POLYLINE
  8
0
 62
     0
 66
     1
 10
0
 20
0
 30
0.0
 70
     1
 40
0.75
 41
0.75
  0
VERTEX
  8
0
 10
7.00797
 20
2.39936
 30
0.0
 40
0.0104167
 41
0.0104167
  0
VERTEX
  8
0
 10
7.00797
 20
2.39936
 30
0.0
 40
0.0104167
 41
0.0104167
  0
VERTEX
  8
0
 10
6.99621
 20
2.39931
 30
0.0
 40
0.0104167
 41
0.0104167
  0
VERTEX
  8
0
 10
6.96522
 20
2.40093
 30
0.0
 40
0.0104167
 41
0.0104167
  0
VERTEX
  8
0
 10
6.92139
 20
2.40707
 30
0.0
 40
0.0104167
 41
0.0104167
  0
VERTEX
  8
0
 10
6.87121
 20
2.42046
 30
0.0
 40
0.0104167
 41
0.0104167
  0
VERTEX
  8
0
 10
6.82096
 20
2.44401
 30
0.0
 40
0.0104167
 41
0.0104167
  0
VERTEX
  8
0
 10
6.77713
 20
2.48047
 30
0.0
 40
0.0104167
 41
0.0104167
  0
VERTEX
  8
0
 10
6.74615
 20
2.53267
 30
0.0
 40
0.0104167
 41
0.0104167
  0
VERTEX
  8
0
 10
6.73443
 20
2.58572
 30
0.0
 40
0.0104167
 41
0.0104167
  0
VERTEX
  8
0
 10
6.73443
 20
2.60335
 30
0.0
 40
0.0104167
 41
0.0104167
  0
VERTEX
  8
0
 10
6.73443
 20
2.62169
 30
0.0
 40
0.0104167
 41
0.0104167
  0
VERTEX
  8
0
 10
6.74615
 20
2.67654
 30
0.0
 40
0.0104167
 41
0.0104167
  0
VERTEX
  8
0
 10
6.77713
 20
2.73062
 30
0.0
 40
0.0104167
 41
0.0104167
  0
VERTEX
  8
0
 10
6.82096
 20
2.76844
 30
0.0
 40
0.0104167
 41
0.0104167
  0
VERTEX
  8
0
 10
6.87121
 20
2.79286
 30
0.0
 40
0.0104167
 41
0.0104167
  0
VERTEX
  8
0
 10
6.92139
 20
2.80686
 30
0.0
 40
0.0104167
 41
0.0104167
  0
VERTEX
  8
0
 10
6.96522
 20
2.81326
 30
0.0
 40
0.0104167
 41
0.0104167
  0
VERTEX
  8
0
 10
6.99621
 20
2.815
 30
0.0
 40
0.0104167
 41
0.0104167
  0
VERTEX
  8
0
 10
7.00797
 20
2.81489
 30
0.0
 40
0.0104167
 41
0.0104167
  0
VERTEX
  8
0
 10
7.00797
 20
2.81489
 30
0.0
 40
0.0104167
 41
0.0104167
  0
VERTEX
  8
0
 10
7.27626
 20
2.81592
 30
0.0
 40
0.0104167
 41
0.0104167
  0
VERTEX
  8
0
 10
7.27626
 20
2.39936
 30
0.0
 40
0.0104167
 41
0.0104167
  0
VERTEX
  8
0
 10
7.00797
 20
2.39936
 30
0.0
 40
0.0104167
 41
0.0104167
  0
SEQEND
 8
0
  0
POLYLINE
  8
0
 62
     7
 66
     1
 10
0
 20
0
 30
0.0
 70
     1
 40
0
 41
0
  0
VERTEX
  8
0
 10
7.35417
 20
2.64074
 30
0.0
 40
0
 41
0
  0
VERTEX
  8
0
 10
7.38569
 20
2.64074
 30
0.0
 40
0
 41
0
  0
VERTEX
  8
0
 10
7.38569
 20
2.57454
 30
0.0
 40
0
 41
0
  0
VERTEX
  8
0
 10
7.35417
 20
2.57454
 30
0.0
 40
0
 41
0
  0
VERTEX
  8
0
 10
7.35417
 20
2.64074
 30
0.0
 40
0
 41
0
  0
SEQEND
 8
0
  0
POLYLINE
  8
0
 62
     0
 66
     1
 10
0
 20
0
 30
0.0
 70
     1
 40
0.75
 41
0.75
  0
VERTEX
  8
0
 10
7.35417
 20
2.64074
 30
0.0
 40
0.0104167
 41
0.0104167
  0
VERTEX
  8
0
 10
7.35417
 20
2.57454
 30
0.0
 40
0.0104167
 41
0.0104167
  0
VERTEX
  8
0
 10
7.38569
 20
2.57454
 30
0.0
 40
0.0104167
 41
0.0104167
  0
VERTEX
  8
0
 10
7.38569
 20
2.64074
 30
0.0
 40
0.0104167
 41
0.0104167
  0
VERTEX
  8
0
 10
7.35417
 20
2.64074
 30
0.0
 40
0.0104167
 41
0.0104167
  0
SEQEND
 8
0
  0
POLYLINE
  8
0
 62
     7
 66
     1
 10
0
 20
0
 30
0.0
 70
     1
 40
0
 41
0
  0
VERTEX
  8
0
 10
7.64746
 20
8.30865
 30
0.0
 40
0
 41
0
  0
VERTEX
  8
0
 10
7.71104
 20
8.30865
 30
0.0
 40
0
 41
0
  0
VERTEX
  8
0
 10
7.71104
 20
8.192
 30
0.0
 40
0
 41
0
  0
VERTEX
  8
0
 10
7.64746
 20
8.192
 30
0.0
 40
0
 41
0
  0
VERTEX
  8
0
 10
7.64746
 20
8.30865
 30
0.0
 40
0
 41
0
  0
SEQEND
 8
0
  0
POLYLINE
  8
0
 62
     0
 66
     1
 10
0
 20
0
 30
0.0
 70
     1
 40
0.75
 41
0.75
  0
VERTEX
  8
0
 10
7.64746
 20
8.30865
 30
0.0
 40
0.0104167
 41
0.0104167
  0
VERTEX
  8
0
 10
7.64746
 20
8.192
 30
0.0
 40
0.0104167
 41
0.0104167
  0
VERTEX
  8
0
 10
7.71104
 20
8.192
 30
0.0
 40
0.0104167
 41
0.0104167
  0
VERTEX
  8
0
 10
7.71104
 20
8.30865
 30
0.0
 40
0.0104167
 41
0.0104167
  0
VERTEX
  8
0
 10
7.64746
 20
8.30865
 30
0.0
 40
0.0104167
 41
0.0104167
  0
SEQEND
 8
0
  0
POLYLINE
  8
0
 62
     7
 66
     1
 10
0
 20
0
 30
0.0
 70
     1
 40
0
 41
0
  0
VERTEX
  8
0
 10
7.64746
 20
8.16385
 30
0.0
 40
0
 41
0
  0
VERTEX
  8
0
 10
7.71104
 20
8.16385
 30
0.0
 40
0
 41
0
  0
VERTEX
  8
0
 10
7.71104
 20
8.04719
 30
0.0
 40
0
 41
0
  0
VERTEX
  8
0
 10
7.64746
 20
8.04719
 30
0.0
 40
0
 41
0
  0
VERTEX
  8
0
 10
7.64746
 20
8.16385
 30
0.0
 40
0
 41
0
  0
SEQEND
 8
0
  0
POLYLINE
  8
0
 62
     0
 66
     1
 10
0
 20
0
 30
0.0
 70
     1
 40
0.75
 41
0.75
  0
VERTEX
  8
0
 10
7.64746
 20
8.16385
 30
0.0
 40
0.0104167
 41
0.0104167
  0
VERTEX
  8
0
 10
7.64746
 20
8.04719
 30
0.0
 40
0.0104167
 41
0.0104167
  0
VERTEX
  8
0
 10
7.71104
 20
8.04719
 30
0.0
 40
0.0104167
 41
0.0104167
  0
VERTEX
  8
0
 10
7.71104
 20
8.16385
 30
0.0
 40
0.0104167
 41
0.0104167
  0
VERTEX
  8
0
 10
7.64746
 20
8.16385
 30
0.0
 40
0.0104167
 41
0.0104167
  0
SEQEND
 8
0
  0
POLYLINE
  8
0
 62
     7
 66
     1
 10
0
 20
0
 30
0.0
 70
     1
 40
0
 41
0
  0
VERTEX
  8
0
 10
7.64746
 20
8.04824
 30
0.0
 40
0
 41
0
  0
VERTEX
  8
0
 10
7.71104
 20
8.04824
 30
0.0
 40
0
 41
0
  0
VERTEX
  8
0
 10
7.71104
 20
8.01281
 30
0.0
 40
0
 41
0
  0
VERTEX
  8
0
 10
7.64746
 20
8.01281
 30
0.0
 40
0
 41
0
  0
VERTEX
  8
0
 10
7.64746
 20
8.04824
 30
0.0
 40
0
 41
0
  0
SEQEND
 8
0
  0
POLYLINE
  8
0
 62
     0
 66
     1
 10
0
 20
0
 30
0.0
 70
     1
 40
0.75
 41
0.75
  0
VERTEX
  8
0
 10
7.64746
 20
8.04824
 30
0.0
 40
0.0104167
 41
0.0104167
  0
VERTEX
  8
0
 10
7.64746
 20
8.01281
 30
0.0
 40
0.0104167
 41
0.0104167
  0
VERTEX
  8
0
 10
7.71104
 20
8.01281
 30
0.0
 40
0.0104167
 41
0.0104167
  0
VERTEX
  8
0
 10
7.71104
 20
8.04824
 30
0.0
 40
0.0104167
 41
0.0104167
  0
VERTEX
  8
0
 10
7.64746
 20
8.04824
 30
0.0
 40
0.0104167
 41
0.0104167
  0
SEQEND
 8
0
  0
POLYLINE
  8
0
 62
     7
 66
     1
 10
0
 20
0
 30
0.0
 70
     1
 40
0
 41
0
  0
VERTEX
  8
0
 10
7.64746
 20
8.34201
 30
0.0
 40
0
 41
0
  0
VERTEX
  8
0
 10
7.71104
 20
8.34201
 30
0.0
 40
0
 41
0
  0
VERTEX
  8
0
 10
7.71104
 20
8.30865
 30
0.0
 40
0
 41
0
  0
VERTEX
  8
0
 10
7.64746
 20
8.30865
 30
0.0
 40
0
 41
0
  0
VERTEX
  8
0
 10
7.64746
 20
8.34201
 30
0.0
 40
0
 41
0
  0
SEQEND
 8
0
  0
POLYLINE
  8
0
 62
     0
 66
     1
 10
0
 20
0
 30
0.0
 70
     1
 40
0.75
 41
0.75
  0
VERTEX
  8
0
 10
7.64746
 20
8.34201
 30
0.0
 40
0.0104167
 41
0.0104167
  0
VERTEX
  8
0
 10
7.64746
 20
8.30865
 30
0.0
 40
0.0104167
 41
0.0104167
  0
VERTEX
  8
0
 10
7.71104
 20
8.30865
 30
0.0
 40
0.0104167
 41
0.0104167
  0
VERTEX
  8
0
 10
7.71104
 20
8.34201
 30
0.0
 40
0.0104167
 41
0.0104167
  0
VERTEX
  8
0
 10
7.64746
 20
8.34201
 30
0.0
 40
0.0104167
 41
0.0104167
  0
SEQEND
 8
0
  0
POLYLINE
  8
0
 62
     7
 66
     1
 10
0
 20
0
 30
0.0
 70
     1
 40
0
 41
0
  0
VERTEX
  8
0
 10
7.62771
 20
8.192
 30
0.0
 40
0
 41
0
  0
VERTEX
  8
0
 10
7.62136
 20
8.192
 30
0.0
 40
0
 41
0
  0
VERTEX
  8
0
 10
7.60243
 20
8.19569
 30
0.0
 40
0
 41
0
  0
VERTEX
  8
0
 10
7.58003
 20
8.20557
 30
0.0
 40
0
 41
0
  0
VERTEX
  8
0
 10
7.57563
 20
8.20865
 30
0.0
 40
0
 41
0
  0
VERTEX
  8
0
 10
7.57406
 20
8.20975
 30
0.0
 40
0
 41
0
  0
VERTEX
  8
0
 10
7.5594
 20
8.21989
 30
0.0
 40
0
 41
0
  0
VERTEX
  8
0
 10
7.55789
 20
8.22011
 30
0.0
 40
0
 41
0
  0
VERTEX
  8
0
 10
7.55501
 20
8.22065
 30
0.0
 40
0
 41
0
  0
VERTEX
  8
0
 10
7.53847
 20
8.21653
 30
0.0
 40
0
 41
0
  0
VERTEX
  8
0
 10
7.52561
 20
8.19982
 30
0.0
 40
0
 41
0
  0
VERTEX
  8
0
 10
7.52458
 20
8.19407
 30
0.0
 40
0
 41
0
  0
VERTEX
  8
0
 10
7.52431
 20
8.19276
 30
0.0
 40
0
 41
0
  0
VERTEX
  8
0
 10
7.52354
 20
8.18126
 30
0.0
 40
0
 41
0
  0
VERTEX
  8
0
 10
7.52354
 20
8.1774
 30
0.0
 40
0
 41
0
  0
VERTEX
  8
0
 10
7.52354
 20
8.17844
 30
0.0
 40
0
 41
0
  0
VERTEX
  8
0
 10
7.52354
 20
8.17432
 30
0.0
 40
0
 41
0
  0
VERTEX
  8
0
 10
7.52431
 20
8.16308
 30
0.0
 40
0
 41
0
  0
VERTEX
  8
0
 10
7.52458
 20
8.16178
 30
0.0
 40
0
 41
0
  0
VERTEX
  8
0
 10
7.52561
 20
8.15608
 30
0.0
 40
0
 41
0
  0
VERTEX
  8
0
 10
7.53847
 20
8.13943
 30
0.0
 40
0
 41
0
  0
VERTEX
  8
0
 10
7.55501
 20
8.13525
 30
0.0
 40
0
 41
0
  0
VERTEX
  8
0
 10
7.55789
 20
8.13574
 30
0.0
 40
0
 41
0
  0
VERTEX
  8
0
 10
7.5594
 20
8.13601
 30
0.0
 40
0
 41
0
  0
VERTEX
  8
0
 10
7.57406
 20
8.14615
 30
0.0
 40
0
 41
0
  0
VERTEX
  8
0
 10
7.57563
 20
8.14719
 30
0.0
 40
0
 41
0
  0
VERTEX
  8
0
 10
7.58003
 20
8.15033
 30
0.0
 40
0
 41
0
  0
VERTEX
  8
0
 10
7.60243
 20
8.16026
 30
0.0
 40
0
 41
0
  0
VERTEX
  8
0
 10
7.62136
 20
8.16385
 30
0.0
 40
0
 41
0
  0
VERTEX
  8
0
 10
7.62771
 20
8.16385
 30
0.0
 40
0
 41
0
  0
SEQEND
 8
0
  0
POLYLINE
  8
0
 62
     0
 66
     1
 10
0
 20
0
 30
0.0
 40
0.75
 41
0.75
  0
VERTEX
  8
0
 10
7.62771
 20
8.192
 30
0.0
 40
0.0104167
 41
0.0104167
  0
VERTEX
  8
0
 10
7.62136
 20
8.192
 30
0.0
 40
0.0104167
 41
0.0104167
  0
VERTEX
  8
0
 10
7.60243
 20
8.19569
 30
0.0
 40
0.0104167
 41
0.0104167
  0
VERTEX
  8
0
 10
7.58003
 20
8.20557
 30
0.0
 40
0.0104167
 41
0.0104167
  0
VERTEX
  8
0
 10
7.57563
 20
8.20865
 30
0.0
 40
0.0104167
 41
0.0104167
  0
VERTEX
  8
0
 10
7.57406
 20
8.20975
 30
0.0
 40
0.0104167
 41
0.0104167
  0
VERTEX
  8
0
 10
7.5594
 20
8.21989
 30
0.0
 40
0.0104167
 41
0.0104167
  0
VERTEX
  8
0
 10
7.55789
 20
8.22011
 30
0.0
 40
0.0104167
 41
0.0104167
  0
VERTEX
  8
0
 10
7.55501
 20
8.22065
 30
0.0
 40
0.0104167
 41
0.0104167
  0
VERTEX
  8
0
 10
7.53847
 20
8.21653
 30
0.0
 40
0.0104167
 41
0.0104167
  0
VERTEX
  8
0
 10
7.52561
 20
8.19982
 30
0.0
 40
0.0104167
 41
0.0104167
  0
VERTEX
  8
0
 10
7.52458
 20
8.19407
 30
0.0
 40
0.0104167
 41
0.0104167
  0
VERTEX
  8
0
 10
7.52431
 20
8.19276
 30
0.0
 40
0.0104167
 41
0.0104167
  0
VERTEX
  8
0
 10
7.52354
 20
8.18126
 30
0.0
 40
0.0104167
 41
0.0104167
  0
VERTEX
  8
0
 10
7.52354
 20
8.1774
 30
0.0
 40
0.0104167
 41
0.0104167
  0
VERTEX
  8
0
 10
7.52354
 20
8.17844
 30
0.0
 40
0.0104167
 41
0.0104167
  0
VERTEX
  8
0
 10
7.52354
 20
8.17432
 30
0.0
 40
0.0104167
 41
0.0104167
  0
VERTEX
  8
0
 10
7.52431
 20
8.16308
 30
0.0
 40
0.0104167
 41
0.0104167
  0
VERTEX
  8
0
 10
7.52458
 20
8.16178
 30
0.0
 40
0.0104167
 41
0.0104167
  0
VERTEX
  8
0
 10
7.52561
 20
8.15608
 30
0.0
 40
0.0104167
 41
0.0104167
  0
VERTEX
  8
0
 10
7.53847
 20
8.13943
 30
0.0
 40
0.0104167
 41
0.0104167
  0
VERTEX
  8
0
 10
7.55501
 20
8.13525
 30
0.0
 40
0.0104167
 41
0.0104167
  0
VERTEX
  8
0
 10
7.55789
 20
8.13574
 30
0.0
 40
0.0104167
 41
0.0104167
  0
VERTEX
  8
0
 10
7.5594
 20
8.13601
 30
0.0
 40
0.0104167
 41
0.0104167
  0
VERTEX
  8
0
 10
7.57406
 20
8.14615
 30
0.0
 40
0.0104167
 41
0.0104167
  0
VERTEX
  8
0
 10
7.57563
 20
8.14719
 30
0.0
 40
0.0104167
 41
0.0104167
  0
VERTEX
  8
0
 10
7.58003
 20
8.15033
 30
0.0
 40
0.0104167
 41
0.0104167
  0
VERTEX
  8
0
 10
7.60243
 20
8.16026
 30
0.0
 40
0.0104167
 41
0.0104167
  0
VERTEX
  8
0
 10
7.62136
 20
8.16385
 30
0.0
 40
0.0104167
 41
0.0104167
  0
VERTEX
  8
0
 10
7.62771
 20
8.16385
 30
0.0
 40
0.0104167
 41
0.0104167
  0
SEQEND
 8
0
  0
POLYLINE
  8
0
 62
     7
 66
     1
 10
0
 20
0
 30
0.0
 70
     1
 40
0
 41
0
  0
VERTEX
  8
0
 10
7.55686
 20
8.22011
 30
0.0
 40
0
 41
0
  0
VERTEX
  8
0
 10
7.55632
 20
8.21989
 30
0.0
 40
0
 41
0
  0
VERTEX
  8
0
 10
7.54617
 20
8.20801
 30
0.0
 40
0
 41
0
  0
VERTEX
  8
0
 10
7.53706
 20
8.18431
 30
0.0
 40
0
 41
0
  0
VERTEX
  8
0
 10
7.53706
 20
8.17637
 30
0.0
 40
0
 41
0
  0
VERTEX
  8
0
 10
7.53728
 20
8.17014
 30
0.0
 40
0
 41
0
  0
VERTEX
  8
0
 10
7.54656
 20
8.14746
 30
0.0
 40
0
 41
0
  0
VERTEX
  8
0
 10
7.55632
 20
8.13629
 30
0.0
 40
0
 41
0
  0
VERTEX
  8
0
 10
7.55686
 20
8.13574
 30
0.0
 40
0
 41
0
  0
SEQEND
 8
0
  0
POLYLINE
  8
0
 62
     0
 66
     1
 10
0
 20
0
 30
0.0
 40
0.75
 41
0.75
  0
VERTEX
  8
0
 10
7.55686
 20
8.22011
 30
0.0
 40
0.0104167
 41
0.0104167
  0
VERTEX
  8
0
 10
7.55632
 20
8.21989
 30
0.0
 40
0.0104167
 41
0.0104167
  0
VERTEX
  8
0
 10
7.54617
 20
8.20801
 30
0.0
 40
0.0104167
 41
0.0104167
  0
VERTEX
  8
0
 10
7.53706
 20
8.18431
 30
0.0
 40
0.0104167
 41
0.0104167
  0
VERTEX
  8
0
 10
7.53706
 20
8.17637
 30
0.0
 40
0.0104167
 41
0.0104167
  0
VERTEX
  8
0
 10
7.53728
 20
8.17014
 30
0.0
 40
0.0104167
 41
0.0104167
  0
VERTEX
  8
0
 10
7.54656
 20
8.14746
 30
0.0
 40
0.0104167
 41
0.0104167
  0
VERTEX
  8
0
 10
7.55632
 20
8.13629
 30
0.0
 40
0.0104167
 41
0.0104167
  0
VERTEX
  8
0
 10
7.55686
 20
8.13574
 30
0.0
 40
0.0104167
 41
0.0104167
  0
SEQEND
 8
0
  0
POLYLINE
  8
0
 62
     7
 66
     1
 10
0
 20
0
 30
0.0
 70
     1
 40
0
 41
0
  0
VERTEX
  8
0
 10
7.71104
 20
8.192
 30
0.0
 40
0
 41
0
  0
VERTEX
  8
0
 10
7.71104
 20
8.16385
 30
0.0
 40
0
 41
0
  0
VERTEX
  8
0
 10
7.62771
 20
8.16385
 30
0.0
 40
0
 41
0
  0
VERTEX
  8
0
 10
7.62771
 20
8.1709
 30
0.0
 40
0
 41
0
  0
VERTEX
  8
0
 10
7.62771
 20
8.18674
 30
0.0
 40
0
 41
0
  0
VERTEX
  8
0
 10
7.62771
 20
8.192
 30
0.0
 40
0
 41
0
  0
VERTEX
  8
0
 10
7.64854
 20
8.192
 30
0.0
 40
0
 41
0
  0
VERTEX
  8
0
 10
7.69542
 20
8.192
 30
0.0
 40
0
 41
0
  0
VERTEX
  8
0
 10
7.71104
 20
8.192
 30
0.0
 40
0
 41
0
  0
SEQEND
 8
0
  0
POLYLINE
  8
0
 62
     0
 66
     1
 10
0
 20
0
 30
0.0
 70
     1
 40
0.75
 41
0.75
  0
VERTEX
  8
0
 10
7.71104
 20
8.192
 30
0.0
 40
0.0104167
 41
0.0104167
  0
VERTEX
  8
0
 10
7.71104
 20
8.16385
 30
0.0
 40
0.0104167
 41
0.0104167
  0
VERTEX
  8
0
 10
7.62771
 20
8.16385
 30
0.0
 40
0.0104167
 41
0.0104167
  0
VERTEX
  8
0
 10
7.62771
 20
8.1709
 30
0.0
 40
0.0104167
 41
0.0104167
  0
VERTEX
  8
0
 10
7.62771
 20
8.18674
 30
0.0
 40
0.0104167
 41
0.0104167
  0
VERTEX
  8
0
 10
7.62771
 20
8.192
 30
0.0
 40
0.0104167
 41
0.0104167
  0
VERTEX
  8
0
 10
7.64854
 20
8.192
 30
0.0
 40
0.0104167
 41
0.0104167
  0
VERTEX
  8
0
 10
7.69542
 20
8.192
 30
0.0
 40
0.0104167
 41
0.0104167
  0
VERTEX
  8
0
 10
7.71104
 20
8.192
 30
0.0
 40
0.0104167
 41
0.0104167
  0
SEQEND
 8
0
  0
POLYLINE
  8
0
 62
     7
 66
     1
 10
0
 20
0
 30
0.0
 70
     1
 40
0
 41
0
  0
VERTEX
  8
0
 10
7.67871
 20
8.30865
 30
0.0
 40
0
 41
0
  0
VERTEX
  8
0
 10
7.6799
 20
8.30544
 30
0.0
 40
0
 41
0
  0
VERTEX
  8
0
 10
7.68381
 20
8.29579
 30
0.0
 40
0
 41
0
  0
VERTEX
  8
0
 10
7.685
 20
8.29303
 30
0.0
 40
0
 41
0
  0
VERTEX
  8
0
 10
7.685
 20
8.29303
 30
0.0
 40
0
 41
0
  0
VERTEX
  8
0
 10
7.68354
 20
8.29303
 30
0.0
 40
0
 41
0
  0
VERTEX
  8
0
 10
7.67925
 20
8.29303
 30
0.0
 40
0
 41
0
  0
VERTEX
  8
0
 10
7.67492
 20
8.29303
 30
0.0
 40
0
 41
0
  0
VERTEX
  8
0
 10
7.6735
 20
8.29303
 30
0.0
 40
0
 41
0
  0
VERTEX
  8
0
 10
7.6735
 20
8.29303
 30
0.0
 40
0
 41
0
  0
VERTEX
  8
0
 10
7.67415
 20
8.29542
 30
0.0
 40
0
 41
0
  0
VERTEX
  8
0
 10
7.67751
 20
8.30539
 30
0.0
 40
0
 41
0
  0
VERTEX
  8
0
 10
7.67871
 20
8.30865
 30
0.0
 40
0
 41
0
  0
SEQEND
 8
0
  0
POLYLINE
  8
0
 62
     0
 66
     1
 10
0
 20
0
 30
0.0
 70
     1
 40
0.75
 41
0.75
  0
VERTEX
  8
0
 10
7.67871
 20
8.30865
 30
0.0
 40
0.0104167
 41
0.0104167
  0
VERTEX
  8
0
 10
7.6799
 20
8.30544
 30
0.0
 40
0.0104167
 41
0.0104167
  0
VERTEX
  8
0
 10
7.68381
 20
8.29579
 30
0.0
 40
0.0104167
 41
0.0104167
  0
VERTEX
  8
0
 10
7.685
 20
8.29303
 30
0.0
 40
0.0104167
 41
0.0104167
  0
VERTEX
  8
0
 10
7.685
 20
8.29303
 30
0.0
 40
0.0104167
 41
0.0104167
  0
VERTEX
  8
0
 10
7.68354
 20
8.29303
 30
0.0
 40
0.0104167
 41
0.0104167
  0
VERTEX
  8
0
 10
7.67925
 20
8.29303
 30
0.0
 40
0.0104167
 41
0.0104167
  0
VERTEX
  8
0
 10
7.67492
 20
8.29303
 30
0.0
 40
0.0104167
 41
0.0104167
  0
VERTEX
  8
0
 10
7.6735
 20
8.29303
 30
0.0
 40
0.0104167
 41
0.0104167
  0
VERTEX
  8
0
 10
7.6735
 20
8.29303
 30
0.0
 40
0.0104167
 41
0.0104167
  0
VERTEX
  8
0
 10
7.67415
 20
8.29542
 30
0.0
 40
0.0104167
 41
0.0104167
  0
VERTEX
  8
0
 10
7.67751
 20
8.30539
 30
0.0
 40
0.0104167
 41
0.0104167
  0
VERTEX
  8
0
 10
7.67871
 20
8.30865
 30
0.0
 40
0.0104167
 41
0.0104167
  0
SEQEND
 8
0
  0
POLYLINE
  8
0
 62
     7
 66
     1
 10
0
 20
0
 30
0.0
 70
     1
 40
0
 41
0
  0
VERTEX
  8
0
 10
7.67871
 20
8.04824
 30
0.0
 40
0
 41
0
  0
VERTEX
  8
0
 10
7.6799
 20
8.05149
 30
0.0
 40
0
 41
0
  0
VERTEX
  8
0
 10
7.68381
 20
8.06114
 30
0.0
 40
0
 41
0
  0
VERTEX
  8
0
 10
7.685
 20
8.06386
 30
0.0
 40
0
 41
0
  0
VERTEX
  8
0
 10
7.685
 20
8.06386
 30
0.0
 40
0
 41
0
  0
VERTEX
  8
0
 10
7.68354
 20
8.06386
 30
0.0
 40
0
 41
0
  0
VERTEX
  8
0
 10
7.67925
 20
8.06386
 30
0.0
 40
0
 41
0
  0
VERTEX
  8
0
 10
7.67492
 20
8.06386
 30
0.0
 40
0
 41
0
  0
VERTEX
  8
0
 10
7.6735
 20
8.06386
 30
0.0
 40
0
 41
0
  0
VERTEX
  8
0
 10
7.6735
 20
8.06386
 30
0.0
 40
0
 41
0
  0
VERTEX
  8
0
 10
7.67415
 20
8.06153
 30
0.0
 40
0
 41
0
  0
VERTEX
  8
0
 10
7.67751
 20
8.05154
 30
0.0
 40
0
 41
0
  0
VERTEX
  8
0
 10
7.67871
 20
8.04824
 30
0.0
 40
0
 41
0
  0
SEQEND
 8
0
  0
POLYLINE
  8
0
 62
     0
 66
     1
 10
0
 20
0
 30
0.0
 70
     1
 40
0.75
 41
0.75
  0
VERTEX
  8
0
 10
7.67871
 20
8.04824
 30
0.0
 40
0.0104167
 41
0.0104167
  0
VERTEX
  8
0
 10
7.6799
 20
8.05149
 30
0.0
 40
0.0104167
 41
0.0104167
  0
VERTEX
  8
0
 10
7.68381
 20
8.06114
 30
0.0
 40
0.0104167
 41
0.0104167
  0
VERTEX
  8
0
 10
7.685
 20
8.06386
 30
0.0
 40
0.0104167
 41
0.0104167
  0
VERTEX
  8
0
 10
7.685
 20
8.06386
 30
0.0
 40
0.0104167
 41
0.0104167
  0
VERTEX
  8
0
 10
7.68354
 20
8.06386
 30
0.0
 40
0.0104167
 41
0.0104167
  0
VERTEX
  8
0
 10
7.67925
 20
8.06386
 30
0.0
 40
0.0104167
 41
0.0104167
  0
VERTEX
  8
0
 10
7.67492
 20
8.06386
 30
0.0
 40
0.0104167
 41
0.0104167
  0
VERTEX
  8
0
 10
7.6735
 20
8.06386
 30
0.0
 40
0.0104167
 41
0.0104167
  0
VERTEX
  8
0
 10
7.6735
 20
8.06386
 30
0.0
 40
0.0104167
 41
0.0104167
  0
VERTEX
  8
0
 10
7.67415
 20
8.06153
 30
0.0
 40
0.0104167
 41
0.0104167
  0
VERTEX
  8
0
 10
7.67751
 20
8.05154
 30
0.0
 40
0.0104167
 41
0.0104167
  0
VERTEX
  8
0
 10
7.67871
 20
8.04824
 30
0.0
 40
0.0104167
 41
0.0104167
  0
SEQEND
 8
0
  0
POLYLINE
  8
0
 62
     7
 66
     1
 10
0
 20
0
 30
0.0
 70
     1
 40
0
 41
0
  0
VERTEX
  8
0
 10
7.86208
 20
8.43619
 30
0.0
 40
0
 41
0
  0
VERTEX
  8
0
 10
8.22667
 20
8.43619
 30
0.0
 40
0
 41
0
  0
VERTEX
  8
0
 10
8.22667
 20
7.81119
 30
0.0
 40
0
 41
0
  0
VERTEX
  8
0
 10
7.86208
 20
7.81119
 30
0.0
 40
0
 41
0
  0
VERTEX
  8
0
 10
7.86208
 20
8.43619
 30
0.0
 40
0
 41
0
  0
SEQEND
 8
0
  0
POLYLINE
  8
0
 62
     0
 66
     1
 10
0
 20
0
 30
0.0
 70
     1
 40
0.75
 41
0.75
  0
VERTEX
  8
0
 10
7.86208
 20
8.43619
 30
0.0
 40
0.0104167
 41
0.0104167
  0
VERTEX
  8
0
 10
7.86208
 20
7.81119
 30
0.0
 40
0.0104167
 41
0.0104167
  0
VERTEX
  8
0
 10
8.22667
 20
7.81119
 30
0.0
 40
0.0104167
 41
0.0104167
  0
VERTEX
  8
0
 10
8.22667
 20
8.43619
 30
0.0
 40
0.0104167
 41
0.0104167
  0
VERTEX
  8
0
 10
7.86208
 20
8.43619
 30
0.0
 40
0.0104167
 41
0.0104167
  0
SEQEND
 8
0
  0
POLYLINE
  8
0
 62
     0
 66
     1
 10
0
 20
0
 30
0.0
 40
0.75
 41
0.75
  0
VERTEX
  8
0
 10
8.22667
 20
7.81119
 30
0.0
 40
0.0104167
 41
0.0104167
  0
VERTEX
  8
0
 10
8.04438
 20
8.22478
 30
0.0
 40
0.0104167
 41
0.0104167
  0
VERTEX
  8
0
 10
8.04438
 20
8.03412
 30
0.0
 40
0.0104167
 41
0.0104167
  0
VERTEX
  8
0
 10
7.86208
 20
8.43619
 30
0.0
 40
0.0104167
 41
0.0104167
  0
SEQEND
 8
0
  0
POLYLINE
  8
0
 62
     7
 66
     1
 10
0
 20
0
 30
0.0
 70
     1
 40
0
 41
0
  0
VERTEX
  8
0
 10
8.79497
 20
8.49278
 30
0.0
 40
0
 41
0
  0
VERTEX
  8
0
 10
9.39208
 20
8.49278
 30
0.0
 40
0
 41
0
  0
VERTEX
  8
0
 10
9.39208
 20
6.43517
 30
0.0
 40
0
 41
0
  0
VERTEX
  8
0
 10
8.79497
 20
6.43517
 30
0.0
 40
0
 41
0
  0
VERTEX
  8
0
 10
8.79497
 20
8.49278
 30
0.0
 40
0
 41
0
  0
SEQEND
 8
0
  0
POLYLINE
  8
0
 62
     0
 66
     1
 10
0
 20
0
 30
0.0
 70
     1
 40
0.75
 41
0.75
  0
VERTEX
  8
0
 10
8.79497
 20
8.49278
 30
0.0
 40
0.0104167
 41
0.0104167
  0
VERTEX
  8
0
 10
8.79497
 20
6.43517
 30
0.0
 40
0.0104167
 41
0.0104167
  0
VERTEX
  8
0
 10
9.39208
 20
6.43517
 30
0.0
 40
0.0104167
 41
0.0104167
  0
VERTEX
  8
0
 10
9.39208
 20
8.49278
 30
0.0
 40
0.0104167
 41
0.0104167
  0
VERTEX
  8
0
 10
8.79497
 20
8.49278
 30
0.0
 40
0.0104167
 41
0.0104167
  0
SEQEND
 8
0
  0
POLYLINE
  8
0
 62
     253
 66
     1
 10
0
 20
0
 30
0.0
 40
0.375
 41
0.375
  0
VERTEX
  8
0
 10
9.35226
 20
8.49278
 30
0.0
 40
0.00520833
 41
0.00520833
  0
VERTEX
  8
0
 10
9.35226
 20
6.43517
 30
0.0
 40
0.00520833
 41
0.00520833
  0
SEQEND
 8
0
  0
POLYLINE
  8
0
 62
     253
 66
     1
 10
0
 20
0
 30
0.0
 40
0.375
 41
0.375
  0
VERTEX
  8
0
 10
9.3125
 20
8.49278
 30
0.0
 40
0.00520833
 41
0.00520833
  0
VERTEX
  8
0
 10
9.3125
 20
6.43517
 30
0.0
 40
0.00520833
 41
0.00520833
  0
SEQEND
 8
0
  0
POLYLINE
  8
0
 62
     253
 66
     1
 10
0
 20
0
 30
0.0
 40
0.375
 41
0.375
  0
VERTEX
  8
0
 10
9.27268
 20
8.49278
 30
0.0
 40
0.00520833
 41
0.00520833
  0
VERTEX
  8
0
 10
9.27268
 20
6.43517
 30
0.0
 40
0.00520833
 41
0.00520833
  0
SEQEND
 8
0
  0
POLYLINE
  8
0
 62
     253
 66
     1
 10
0
 20
0
 30
0.0
 40
0.375
 41
0.375
  0
VERTEX
  8
0
 10
9.23286
 20
8.49278
 30
0.0
 40
0.00520833
 41
0.00520833
  0
VERTEX
  8
0
 10
9.23286
 20
6.43517
 30
0.0
 40
0.00520833
 41
0.00520833
  0
SEQEND
 8
0
  0
POLYLINE
  8
0
 62
     253
 66
     1
 10
0
 20
0
 30
0.0
 40
0.375
 41
0.375
  0
VERTEX
  8
0
 10
9.19308
 20
8.49278
 30
0.0
 40
0.00520833
 41
0.00520833
  0
VERTEX
  8
0
 10
9.19308
 20
6.43517
 30
0.0
 40
0.00520833
 41
0.00520833
  0
SEQEND
 8
0
  0
POLYLINE
  8
0
 62
     253
 66
     1
 10
0
 20
0
 30
0.0
 40
0.375
 41
0.375
  0
VERTEX
  8
0
 10
9.15326
 20
8.49278
 30
0.0
 40
0.00520833
 41
0.00520833
  0
VERTEX
  8
0
 10
9.15326
 20
6.43517
 30
0.0
 40
0.00520833
 41
0.00520833
  0
SEQEND
 8
0
  0
POLYLINE
  8
0
 62
     253
 66
     1
 10
0
 20
0
 30
0.0
 40
0.375
 41
0.375
  0
VERTEX
  8
0
 10
9.1135
 20
8.49278
 30
0.0
 40
0.00520833
 41
0.00520833
  0
VERTEX
  8
0
 10
9.1135
 20
6.43517
 30
0.0
 40
0.00520833
 41
0.00520833
  0
SEQEND
 8
0
  0
POLYLINE
  8
0
 62
     253
 66
     1
 10
0
 20
0
 30
0.0
 40
0.375
 41
0.375
  0
VERTEX
  8
0
 10
9.07368
 20
8.49278
 30
0.0
 40
0.00520833
 41
0.00520833
  0
VERTEX
  8
0
 10
9.07368
 20
6.43517
 30
0.0
 40
0.00520833
 41
0.00520833
  0
SEQEND
 8
0
  0
POLYLINE
  8
0
 62
     253
 66
     1
 10
0
 20
0
 30
0.0
 40
0.375
 41
0.375
  0
VERTEX
  8
0
 10
9.03386
 20
8.49278
 30
0.0
 40
0.00520833
 41
0.00520833
  0
VERTEX
  8
0
 10
9.03386
 20
6.43517
 30
0.0
 40
0.00520833
 41
0.00520833
  0
SEQEND
 8
0
  0
POLYLINE
  8
0
 62
     253
 66
     1
 10
0
 20
0
 30
0.0
 40
0.375
 41
0.375
  0
VERTEX
  8
0
 10
8.99408
 20
8.49278
 30
0.0
 40
0.00520833
 41
0.00520833
  0
VERTEX
  8
0
 10
8.99408
 20
6.43517
 30
0.0
 40
0.00520833
 41
0.00520833
  0
SEQEND
 8
0
  0
POLYLINE
  8
0
 62
     253
 66
     1
 10
0
 20
0
 30
0.0
 40
0.375
 41
0.375
  0
VERTEX
  8
0
 10
8.95426
 20
8.49278
 30
0.0
 40
0.00520833
 41
0.00520833
  0
VERTEX
  8
0
 10
8.95426
 20
6.43517
 30
0.0
 40
0.00520833
 41
0.00520833
  0
SEQEND
 8
0
  0
POLYLINE
  8
0
 62
     253
 66
     1
 10
0
 20
0
 30
0.0
 40
0.375
 41
0.375
  0
VERTEX
  8
0
 10
8.91444
 20
8.49278
 30
0.0
 40
0.00520833
 41
0.00520833
  0
VERTEX
  8
0
 10
8.91444
 20
6.43517
 30
0.0
 40
0.00520833
 41
0.00520833
  0
SEQEND
 8
0
  0
POLYLINE
  8
0
 62
     253
 66
     1
 10
0
 20
0
 30
0.0
 40
0.375
 41
0.375
  0
VERTEX
  8
0
 10
8.87468
 20
8.49278
 30
0.0
 40
0.00520833
 41
0.00520833
  0
VERTEX
  8
0
 10
8.87468
 20
6.43517
 30
0.0
 40
0.00520833
 41
0.00520833
  0
SEQEND
 8
0
  0
POLYLINE
  8
0
 62
     253
 66
     1
 10
0
 20
0
 30
0.0
 40
0.375
 41
0.375
  0
VERTEX
  8
0
 10
8.83485
 20
8.49278
 30
0.0
 40
0.00520833
 41
0.00520833
  0
VERTEX
  8
0
 10
8.83485
 20
6.43517
 30
0.0
 40
0.00520833
 41
0.00520833
  0
SEQEND
 8
0
  0
POLYLINE
  8
0
 62
     7
 66
     1
 10
0
 20
0
 30
0.0
 70
     1
 40
0
 41
0
  0
VERTEX
  8
0
 10
8.37836
 20
8.49278
 30
0.0
 40
0
 41
0
  0
VERTEX
  8
0
 10
8.79503
 20
8.49278
 30
0.0
 40
0
 41
0
  0
VERTEX
  8
0
 10
8.79503
 20
6.43539
 30
0.0
 40
0
 41
0
  0
VERTEX
  8
0
 10
8.37836
 20
6.43539
 30
0.0
 40
0
 41
0
  0
VERTEX
  8
0
 10
8.37836
 20
8.49278
 30
0.0
 40
0
 41
0
  0
SEQEND
 8
0
  0
POLYLINE
  8
0
 62
     0
 66
     1
 10
0
 20
0
 30
0.0
 70
     1
 40
0.75
 41
0.75
  0
VERTEX
  8
0
 10
8.37836
 20
8.49278
 30
0.0
 40
0.0104167
 41
0.0104167
  0
VERTEX
  8
0
 10
8.37836
 20
6.43539
 30
0.0
 40
0.0104167
 41
0.0104167
  0
VERTEX
  8
0
 10
8.79503
 20
6.43539
 30
0.0
 40
0.0104167
 41
0.0104167
  0
VERTEX
  8
0
 10
8.79503
 20
8.49278
 30
0.0
 40
0.0104167
 41
0.0104167
  0
VERTEX
  8
0
 10
8.37836
 20
8.49278
 30
0.0
 40
0.0104167
 41
0.0104167
  0
SEQEND
 8
0
  0
POLYLINE
  8
0
 62
     253
 66
     1
 10
0
 20
0
 30
0.0
 40
0.375
 41
0.375
  0
VERTEX
  8
0
 10
8.75336
 20
8.49278
 30
0.0
 40
0.00520833
 41
0.00520833
  0
VERTEX
  8
0
 10
8.75336
 20
6.43539
 30
0.0
 40
0.00520833
 41
0.00520833
  0
SEQEND
 8
0
  0
POLYLINE
  8
0
 62
     253
 66
     1
 10
0
 20
0
 30
0.0
 40
0.375
 41
0.375
  0
VERTEX
  8
0
 10
8.71169
 20
8.49278
 30
0.0
 40
0.00520833
 41
0.00520833
  0
VERTEX
  8
0
 10
8.71169
 20
6.43539
 30
0.0
 40
0.00520833
 41
0.00520833
  0
SEQEND
 8
0
  0
POLYLINE
  8
0
 62
     253
 66
     1
 10
0
 20
0
 30
0.0
 40
0.375
 41
0.375
  0
VERTEX
  8
0
 10
8.67003
 20
8.49278
 30
0.0
 40
0.00520833
 41
0.00520833
  0
VERTEX
  8
0
 10
8.67003
 20
6.43539
 30
0.0
 40
0.00520833
 41
0.00520833
  0
SEQEND
 8
0
  0
POLYLINE
  8
0
 62
     253
 66
     1
 10
0
 20
0
 30
0.0
 40
0.375
 41
0.375
  0
VERTEX
  8
0
 10
8.62836
 20
8.49278
 30
0.0
 40
0.00520833
 41
0.00520833
  0
VERTEX
  8
0
 10
8.62836
 20
6.43539
 30
0.0
 40
0.00520833
 41
0.00520833
  0
SEQEND
 8
0
  0
POLYLINE
  8
0
 62
     253
 66
     1
 10
0
 20
0
 30
0.0
 40
0.375
 41
0.375
  0
VERTEX
  8
0
 10
8.58669
 20
8.49278
 30
0.0
 40
0.00520833
 41
0.00520833
  0
VERTEX
  8
0
 10
8.58669
 20
6.43539
 30
0.0
 40
0.00520833
 41
0.00520833
  0
SEQEND
 8
0
  0
POLYLINE
  8
0
 62
     253
 66
     1
 10
0
 20
0
 30
0.0
 40
0.375
 41
0.375
  0
VERTEX
  8
0
 10
8.54503
 20
8.49278
 30
0.0
 40
0.00520833
 41
0.00520833
  0
VERTEX
  8
0
 10
8.54503
 20
6.43539
 30
0.0
 40
0.00520833
 41
0.00520833
  0
SEQEND
 8
0
  0
POLYLINE
  8
0
 62
     253
 66
     1
 10
0
 20
0
 30
0.0
 40
0.375
 41
0.375
  0
VERTEX
  8
0
 10
8.50336
 20
8.49278
 30
0.0
 40
0.00520833
 41
0.00520833
  0
VERTEX
  8
0
 10
8.50336
 20
6.43539
 30
0.0
 40
0.00520833
 41
0.00520833
  0
SEQEND
 8
0
  0
POLYLINE
  8
0
 62
     253
 66
     1
 10
0
 20
0
 30
0.0
 40
0.375
 41
0.375
  0
VERTEX
  8
0
 10
8.46169
 20
8.49278
 30
0.0
 40
0.00520833
 41
0.00520833
  0
VERTEX
  8
0
 10
8.46169
 20
6.43539
 30
0.0
 40
0.00520833
 41
0.00520833
  0
SEQEND
 8
0
  0
POLYLINE
  8
0
 62
     253
 66
     1
 10
0
 20
0
 30
0.0
 40
0.375
 41
0.375
  0
VERTEX
  8
0
 10
8.42003
 20
8.49278
 30
0.0
 40
0.00520833
 41
0.00520833
  0
VERTEX
  8
0
 10
8.42003
 20
6.43539
 30
0.0
 40
0.00520833
 41
0.00520833
  0
SEQEND
 8
0
  0
POLYLINE
  8
0
 62
     7
 66
     1
 10
0
 20
0
 30
0.0
 70
     1
 40
0
 41
0
  0
VERTEX
  8
0
 10
8.07363
 20
7.42979
 30
0.0
 40
0
 41
0
  0
VERTEX
  8
0
 10
8.37836
 20
7.42979
 30
0.0
 40
0
 41
0
  0
VERTEX
  8
0
 10
8.37836
 20
6.56575
 30
0.0
 40
0
 41
0
  0
VERTEX
  8
0
 10
8.07363
 20
6.56575
 30
0.0
 40
0
 41
0
  0
VERTEX
  8
0
 10
8.07363
 20
7.42979
 30
0.0
 40
0
 41
0
  0
SEQEND
 8
0
  0
POLYLINE
  8
0
 62
     0
 66
     1
 10
0
 20
0
 30
0.0
 70
     1
 40
0.75
 41
0.75
  0
VERTEX
  8
0
 10
8.07363
 20
7.42979
 30
0.0
 40
0.0104167
 41
0.0104167
  0
VERTEX
  8
0
 10
8.07363
 20
6.56575
 30
0.0
 40
0.0104167
 41
0.0104167
  0
VERTEX
  8
0
 10
8.37836
 20
6.56575
 30
0.0
 40
0.0104167
 41
0.0104167
  0
VERTEX
  8
0
 10
8.37836
 20
7.42979
 30
0.0
 40
0.0104167
 41
0.0104167
  0
VERTEX
  8
0
 10
8.07363
 20
7.42979
 30
0.0
 40
0.0104167
 41
0.0104167
  0
SEQEND
 8
0
  0
POLYLINE
  8
0
 62
     253
 66
     1
 10
0
 20
0
 30
0.0
 40
0.375
 41
0.375
  0
VERTEX
  8
0
 10
8.34793
 20
7.42979
 30
0.0
 40
0.00520833
 41
0.00520833
  0
VERTEX
  8
0
 10
8.34793
 20
6.56581
 30
0.0
 40
0.00520833
 41
0.00520833
  0
SEQEND
 8
0
  0
POLYLINE
  8
0
 62
     253
 66
     1
 10
0
 20
0
 30
0.0
 40
0.375
 41
0.375
  0
VERTEX
  8
0
 10
8.31743
 20
7.42979
 30
0.0
 40
0.00520833
 41
0.00520833
  0
VERTEX
  8
0
 10
8.31743
 20
6.56581
 30
0.0
 40
0.00520833
 41
0.00520833
  0
SEQEND
 8
0
  0
POLYLINE
  8
0
 62
     253
 66
     1
 10
0
 20
0
 30
0.0
 40
0.375
 41
0.375
  0
VERTEX
  8
0
 10
8.28694
 20
7.42979
 30
0.0
 40
0.00520833
 41
0.00520833
  0
VERTEX
  8
0
 10
8.28694
 20
6.56581
 30
0.0
 40
0.00520833
 41
0.00520833
  0
SEQEND
 8
0
  0
POLYLINE
  8
0
 62
     253
 66
     1
 10
0
 20
0
 30
0.0
 40
0.375
 41
0.375
  0
VERTEX
  8
0
 10
8.25646
 20
7.42979
 30
0.0
 40
0.00520833
 41
0.00520833
  0
VERTEX
  8
0
 10
8.25646
 20
6.56581
 30
0.0
 40
0.00520833
 41
0.00520833
  0
SEQEND
 8
0
  0
POLYLINE
  8
0
 62
     253
 66
     1
 10
0
 20
0
 30
0.0
 40
0.375
 41
0.375
  0
VERTEX
  8
0
 10
8.22597
 20
7.42979
 30
0.0
 40
0.00520833
 41
0.00520833
  0
VERTEX
  8
0
 10
8.22597
 20
6.56581
 30
0.0
 40
0.00520833
 41
0.00520833
  0
SEQEND
 8
0
  0
POLYLINE
  8
0
 62
     253
 66
     1
 10
0
 20
0
 30
0.0
 40
0.375
 41
0.375
  0
VERTEX
  8
0
 10
8.19553
 20
7.42979
 30
0.0
 40
0.00520833
 41
0.00520833
  0
VERTEX
  8
0
 10
8.19553
 20
6.56581
 30
0.0
 40
0.00520833
 41
0.00520833
  0
SEQEND
 8
0
  0
POLYLINE
  8
0
 62
     253
 66
     1
 10
0
 20
0
 30
0.0
 40
0.375
 41
0.375
  0
VERTEX
  8
0
 10
8.16504
 20
7.42979
 30
0.0
 40
0.00520833
 41
0.00520833
  0
VERTEX
  8
0
 10
8.16504
 20
6.56581
 30
0.0
 40
0.00520833
 41
0.00520833
  0
SEQEND
 8
0
  0
POLYLINE
  8
0
 62
     253
 66
     1
 10
0
 20
0
 30
0.0
 40
0.375
 41
0.375
  0
VERTEX
  8
0
 10
8.13456
 20
7.42979
 30
0.0
 40
0.00520833
 41
0.00520833
  0
VERTEX
  8
0
 10
8.13456
 20
6.56581
 30
0.0
 40
0.00520833
 41
0.00520833
  0
SEQEND
 8
0
  0
POLYLINE
  8
0
 62
     253
 66
     1
 10
0
 20
0
 30
0.0
 40
0.375
 41
0.375
  0
VERTEX
  8
0
 10
8.10406
 20
7.42979
 30
0.0
 40
0.00520833
 41
0.00520833
  0
VERTEX
  8
0
 10
8.10406
 20
6.56581
 30
0.0
 40
0.00520833
 41
0.00520833
  0
SEQEND
 8
0
  0
POLYLINE
  8
0
 62
     7
 66
     1
 10
0
 20
0
 30
0.0
 70
     1
 40
0
 41
0
  0
VERTEX
  8
0
 10
5.70751
 20
8.48757
 30
0.0
 40
0
 41
0
  0
VERTEX
  8
0
 10
6.12408
 20
8.48757
 30
0.0
 40
0
 41
0
  0
VERTEX
  8
0
 10
6.12408
 20
8.30024
 30
0.0
 40
0
 41
0
  0
VERTEX
  8
0
 10
5.70751
 20
8.30024
 30
0.0
 40
0
 41
0
  0
VERTEX
  8
0
 10
5.70751
 20
8.48757
 30
0.0
 40
0
 41
0
  0
SEQEND
 8
0
  0
POLYLINE
  8
0
 62
     0
 66
     1
 10
0
 20
0
 30
0.0
 70
     1
 40
0.75
 41
0.75
  0
VERTEX
  8
0
 10
5.70751
 20
8.48757
 30
0.0
 40
0.0104167
 41
0.0104167
  0
VERTEX
  8
0
 10
6.12408
 20
8.48757
 30
0.0
 40
0.0104167
 41
0.0104167
  0
VERTEX
  8
0
 10
6.12408
 20
8.30024
 30
0.0
 40
0.0104167
 41
0.0104167
  0
VERTEX
  8
0
 10
5.70751
 20
8.30024
 30
0.0
 40
0.0104167
 41
0.0104167
  0
VERTEX
  8
0
 10
5.70751
 20
8.48757
 30
0.0
 40
0.0104167
 41
0.0104167
  0
SEQEND
 8
0
  0
POLYLINE
  8
0
 62
     7
 66
     1
 10
0
 20
0
 30
0.0
 70
     1
 40
0
 41
0
  0
VERTEX
  8
0
 10
6.12408
 20
8.03196
 30
0.0
 40
0
 41
0
  0
VERTEX
  8
0
 10
6.12408
 20
8.03196
 30
0.0
 40
0
 41
0
  0
VERTEX
  8
0
 10
6.12414
 20
8.02024
 30
0.0
 40
0
 41
0
  0
VERTEX
  8
0
 10
6.1225
 20
7.98926
 30
0.0
 40
0
 41
0
  0
VERTEX
  8
0
 10
6.11638
 20
7.94542
 30
0.0
 40
0
 41
0
  0
VERTEX
  8
0
 10
6.10297
 20
7.89518
 30
0.0
 40
0
 41
0
  0
VERTEX
  8
0
 10
6.07943
 20
7.845
 30
0.0
 40
0
 41
0
  0
VERTEX
  8
0
 10
6.04297
 20
7.80117
 30
0.0
 40
0
 41
0
  0
VERTEX
  8
0
 10
5.99078
 20
7.77018
 30
0.0
 40
0
 41
0
  0
VERTEX
  8
0
 10
5.93772
 20
7.7584
 30
0.0
 40
0
 41
0
  0
VERTEX
  8
0
 10
5.92008
 20
7.7584
 30
0.0
 40
0
 41
0
  0
VERTEX
  8
0
 10
5.90175
 20
7.7584
 30
0.0
 40
0
 41
0
  0
VERTEX
  8
0
 10
5.8469
 20
7.77018
 30
0.0
 40
0
 41
0
  0
VERTEX
  8
0
 10
5.79281
 20
7.80117
 30
0.0
 40
0
 41
0
  0
VERTEX
  8
0
 10
5.75499
 20
7.845
 30
0.0
 40
0
 41
0
  0
VERTEX
  8
0
 10
5.73058
 20
7.89518
 30
0.0
 40
0
 41
0
  0
VERTEX
  8
0
 10
5.71658
 20
7.94542
 30
0.0
 40
0
 41
0
  0
VERTEX
  8
0
 10
5.71018
 20
7.98926
 30
0.0
 40
0
 41
0
  0
VERTEX
  8
0
 10
5.70844
 20
8.02024
 30
0.0
 40
0
 41
0
  0
VERTEX
  8
0
 10
5.70856
 20
8.03196
 30
0.0
 40
0
 41
0
  0
VERTEX
  8
0
 10
5.70856
 20
8.03196
 30
0.0
 40
0
 41
0
  0
VERTEX
  8
0
 10
5.70751
 20
8.30024
 30
0.0
 40
0
 41
0
  0
VERTEX
  8
0
 10
6.12408
 20
8.30024
 30
0.0
 40
0
 41
0
  0
VERTEX
  8
0
 10
6.12408
 20
8.03196
 30
0.0
 40
0
 41
0
  0
SEQEND
 8
0
  0
POLYLINE
  8
0
 62
     0
 66
     1
 10
0
 20
0
 30
0.0
 70
     1
 40
0.75
 41
0.75
  0
VERTEX
  8
0
 10
6.12408
 20
8.03196
 30
0.0
 40
0.0104167
 41
0.0104167
  0
VERTEX
  8
0
 10
6.12408
 20
8.03196
 30
0.0
 40
0.0104167
 41
0.0104167
  0
VERTEX
  8
0
 10
6.12414
 20
8.02024
 30
0.0
 40
0.0104167
 41
0.0104167
  0
VERTEX
  8
0
 10
6.1225
 20
7.98926
 30
0.0
 40
0.0104167
 41
0.0104167
  0
VERTEX
  8
0
 10
6.11638
 20
7.94542
 30
0.0
 40
0.0104167
 41
0.0104167
  0
VERTEX
  8
0
 10
6.10297
 20
7.89518
 30
0.0
 40
0.0104167
 41
0.0104167
  0
VERTEX
  8
0
 10
6.07943
 20
7.845
 30
0.0
 40
0.0104167
 41
0.0104167
  0
VERTEX
  8
0
 10
6.04297
 20
7.80117
 30
0.0
 40
0.0104167
 41
0.0104167
  0
VERTEX
  8
0
 10
5.99078
 20
7.77018
 30
0.0
 40
0.0104167
 41
0.0104167
  0
VERTEX
  8
0
 10
5.93772
 20
7.7584
 30
0.0
 40
0.0104167
 41
0.0104167
  0
VERTEX
  8
0
 10
5.92008
 20
7.7584
 30
0.0
 40
0.0104167
 41
0.0104167
  0
VERTEX
  8
0
 10
5.90175
 20
7.7584
 30
0.0
 40
0.0104167
 41
0.0104167
  0
VERTEX
  8
0
 10
5.8469
 20
7.77018
 30
0.0
 40
0.0104167
 41
0.0104167
  0
VERTEX
  8
0
 10
5.79281
 20
7.80117
 30
0.0
 40
0.0104167
 41
0.0104167
  0
VERTEX
  8
0
 10
5.75499
 20
7.845
 30
0.0
 40
0.0104167
 41
0.0104167
  0
VERTEX
  8
0
 10
5.73058
 20
7.89518
 30
0.0
 40
0.0104167
 41
0.0104167
  0
VERTEX
  8
0
 10
5.71658
 20
7.94542
 30
0.0
 40
0.0104167
 41
0.0104167
  0
VERTEX
  8
0
 10
5.71018
 20
7.98926
 30
0.0
 40
0.0104167
 41
0.0104167
  0
VERTEX
  8
0
 10
5.70844
 20
8.02024
 30
0.0
 40
0.0104167
 41
0.0104167
  0
VERTEX
  8
0
 10
5.70856
 20
8.03196
 30
0.0
 40
0.0104167
 41
0.0104167
  0
VERTEX
  8
0
 10
5.70856
 20
8.03196
 30
0.0
 40
0.0104167
 41
0.0104167
  0
VERTEX
  8
0
 10
5.70751
 20
8.30024
 30
0.0
 40
0.0104167
 41
0.0104167
  0
VERTEX
  8
0
 10
6.12408
 20
8.30024
 30
0.0
 40
0.0104167
 41
0.0104167
  0
VERTEX
  8
0
 10
6.12408
 20
8.03196
 30
0.0
 40
0.0104167
 41
0.0104167
  0
SEQEND
 8
0
  0
POLYLINE
  8
0
 62
     7
 66
     1
 10
0
 20
0
 30
0.0
 70
     1
 40
0
 41
0
  0
VERTEX
  8
0
 10
5.88271
 20
8.40967
 30
0.0
 40
0
 41
0
  0
VERTEX
  8
0
 10
5.94889
 20
8.40967
 30
0.0
 40
0
 41
0
  0
VERTEX
  8
0
 10
5.94889
 20
8.37815
 30
0.0
 40
0
 41
0
  0
VERTEX
  8
0
 10
5.88271
 20
8.37815
 30
0.0
 40
0
 41
0
  0
VERTEX
  8
0
 10
5.88271
 20
8.40967
 30
0.0
 40
0
 41
0
  0
SEQEND
 8
0
  0
POLYLINE
  8
0
 62
     0
 66
     1
 10
0
 20
0
 30
0.0
 70
     1
 40
0.75
 41
0.75
  0
VERTEX
  8
0
 10
5.88271
 20
8.40967
 30
0.0
 40
0.0104167
 41
0.0104167
  0
VERTEX
  8
0
 10
5.94889
 20
8.40967
 30
0.0
 40
0.0104167
 41
0.0104167
  0
VERTEX
  8
0
 10
5.94889
 20
8.37815
 30
0.0
 40
0.0104167
 41
0.0104167
  0
VERTEX
  8
0
 10
5.88271
 20
8.37815
 30
0.0
 40
0.0104167
 41
0.0104167
  0
VERTEX
  8
0
 10
5.88271
 20
8.40967
 30
0.0
 40
0.0104167
 41
0.0104167
  0
SEQEND
 8
0
  0
POLYLINE
  8
0
 62
     7
 66
     1
 10
0
 20
0
 30
0.0
 70
     1
 40
0
 41
0
  0
VERTEX
  8
0
 10
4.68826
 20
8.49278
 30
0.0
 40
0
 41
0
  0
VERTEX
  8
0
 10
5.11003
 20
8.49278
 30
0.0
 40
0
 41
0
  0
VERTEX
  8
0
 10
5.11003
 20
6.41558
 30
0.0
 40
0
 41
0
  0
VERTEX
  8
0
 10
4.68826
 20
6.41558
 30
0.0
 40
0
 41
0
  0
VERTEX
  8
0
 10
4.68826
 20
8.49278
 30
0.0
 40
0
 41
0
  0
SEQEND
 8
0
  0
POLYLINE
  8
0
 62
     0
 66
     1
 10
0
 20
0
 30
0.0
 70
     1
 40
0.75
 41
0.75
  0
VERTEX
  8
0
 10
4.68826
 20
8.49278
 30
0.0
 40
0.0104167
 41
0.0104167
  0
VERTEX
  8
0
 10
4.68826
 20
6.41558
 30
0.0
 40
0.0104167
 41
0.0104167
  0
VERTEX
  8
0
 10
5.11003
 20
6.41558
 30
0.0
 40
0.0104167
 41
0.0104167
  0
VERTEX
  8
0
 10
5.11003
 20
8.49278
 30
0.0
 40
0.0104167
 41
0.0104167
  0
VERTEX
  8
0
 10
4.68826
 20
8.49278
 30
0.0
 40
0.0104167
 41
0.0104167
  0
SEQEND
 8
0
  0
POLYLINE
  8
0
 62
     253
 66
     1
 10
0
 20
0
 30
0.0
 40
0.75
 41
0.75
  0
VERTEX
  8
0
 10
4.89914
 20
8.49278
 30
0.0
 40
0.0104167
 41
0.0104167
  0
VERTEX
  8
0
 10
4.89914
 20
6.41553
 30
0.0
 40
0.0104167
 41
0.0104167
  0
SEQEND
 8
0
  0
POLYLINE
  8
0
 62
     7
 66
     1
 10
0
 20
0
 30
0.0
 70
     1
 40
0
 41
0
  0
VERTEX
  8
0
 10
4.22689
 20
8.49278
 30
0.0
 40
0
 41
0
  0
VERTEX
  8
0
 10
4.5906
 20
8.49278
 30
0.0
 40
0
 41
0
  0
VERTEX
  8
0
 10
4.5906
 20
8.19433
 30
0.0
 40
0
 41
0
  0
VERTEX
  8
0
 10
4.22689
 20
8.19433
 30
0.0
 40
0
 41
0
  0
VERTEX
  8
0
 10
4.22689
 20
8.49278
 30
0.0
 40
0
 41
0
  0
SEQEND
 8
0
  0
POLYLINE
  8
0
 62
     0
 66
     1
 10
0
 20
0
 30
0.0
 70
     1
 40
0.75
 41
0.75
  0
VERTEX
  8
0
 10
4.22689
 20
8.49278
 30
0.0
 40
0.0104167
 41
0.0104167
  0
VERTEX
  8
0
 10
4.5906
 20
8.49278
 30
0.0
 40
0.0104167
 41
0.0104167
  0
VERTEX
  8
0
 10
4.5906
 20
8.19433
 30
0.0
 40
0.0104167
 41
0.0104167
  0
VERTEX
  8
0
 10
4.22689
 20
8.19433
 30
0.0
 40
0.0104167
 41
0.0104167
  0
VERTEX
  8
0
 10
4.22689
 20
8.49278
 30
0.0
 40
0.0104167
 41
0.0104167
  0
SEQEND
 8
0
  0
POLYLINE
  8
0
 62
     7
 66
     1
 10
0
 20
0
 30
0.0
 70
     1
 40
0
 41
0
  0
VERTEX
  8
0
 10
4.22689
 20
6.72456
 30
0.0
 40
0
 41
0
  0
VERTEX
  8
0
 10
4.5906
 20
6.72456
 30
0.0
 40
0
 41
0
  0
VERTEX
  8
0
 10
4.5906
 20
6.42611
 30
0.0
 40
0
 41
0
  0
VERTEX
  8
0
 10
4.22689
 20
6.42611
 30
0.0
 40
0
 41
0
  0
VERTEX
  8
0
 10
4.22689
 20
6.72456
 30
0.0
 40
0
 41
0
  0
SEQEND
 8
0
  0
POLYLINE
  8
0
 62
     0
 66
     1
 10
0
 20
0
 30
0.0
 70
     1
 40
0.75
 41
0.75
  0
VERTEX
  8
0
 10
4.22689
 20
6.72456
 30
0.0
 40
0.0104167
 41
0.0104167
  0
VERTEX
  8
0
 10
4.5906
 20
6.72456
 30
0.0
 40
0.0104167
 41
0.0104167
  0
VERTEX
  8
0
 10
4.5906
 20
6.42611
 30
0.0
 40
0.0104167
 41
0.0104167
  0
VERTEX
  8
0
 10
4.22689
 20
6.42611
 30
0.0
 40
0.0104167
 41
0.0104167
  0
VERTEX
  8
0
 10
4.22689
 20
6.72456
 30
0.0
 40
0.0104167
 41
0.0104167
  0
SEQEND
 8
0
  0
POLYLINE
  8
0
 62
     7
 66
     1
 10
0
 20
0
 30
0.0
 70
     1
 40
0
 41
0
  0
VERTEX
  8
0
 10
3.43571
 20
8.48887
 30
0.0
 40
0
 41
0
  0
VERTEX
  8
0
 10
4.08106
 20
8.48887
 30
0.0
 40
0
 41
0
  0
VERTEX
  8
0
 10
4.08106
 20
7.87989
 30
0.0
 40
0
 41
0
  0
VERTEX
  8
0
 10
3.43571
 20
7.87989
 30
0.0
 40
0
 41
0
  0
VERTEX
  8
0
 10
3.43571
 20
8.48887
 30
0.0
 40
0
 41
0
  0
SEQEND
 8
0
  0
POLYLINE
  8
0
 62
     0
 66
     1
 10
0
 20
0
 30
0.0
 70
     1
 40
0.75
 41
0.75
  0
VERTEX
  8
0
 10
3.43571
 20
8.48887
 30
0.0
 40
0.0104167
 41
0.0104167
  0
VERTEX
  8
0
 10
4.08106
 20
8.48887
 30
0.0
 40
0.0104167
 41
0.0104167
  0
VERTEX
  8
0
 10
4.08106
 20
7.87989
 30
0.0
 40
0.0104167
 41
0.0104167
  0
VERTEX
  8
0
 10
3.43571
 20
7.87989
 30
0.0
 40
0.0104167
 41
0.0104167
  0
VERTEX
  8
0
 10
3.43571
 20
8.48887
 30
0.0
 40
0.0104167
 41
0.0104167
  0
SEQEND
 8
0
  0
POLYLINE
  8
0
 62
     253
 66
     1
 10
0
 20
0
 30
0.0
 40
0.75
 41
0.75
  0
VERTEX
  8
0
 10
3.43571
 20
8.18435
 30
0.0
 40
0.0104167
 41
0.0104167
  0
VERTEX
  8
0
 10
4.08106
 20
8.18435
 30
0.0
 40
0.0104167
 41
0.0104167
  0
SEQEND
 8
0
  0
POLYLINE
  8
0
 62
     7
 66
     1
 10
0
 20
0
 30
0.0
 70
     1
 40
0
 41
0
  0
VERTEX
  8
0
 10
2.89936
 20
8.48887
 30
0.0
 40
0
 41
0
  0
VERTEX
  8
0
 10
3.43571
 20
8.48887
 30
0.0
 40
0
 41
0
  0
VERTEX
  8
0
 10
3.43571
 20
7.87989
 30
0.0
 40
0
 41
0
  0
VERTEX
  8
0
 10
2.89936
 20
7.87989
 30
0.0
 40
0
 41
0
  0
VERTEX
  8
0
 10
2.89936
 20
8.48887
 30
0.0
 40
0
 41
0
  0
SEQEND
 8
0
  0
POLYLINE
  8
0
 62
     0
 66
     1
 10
0
 20
0
 30
0.0
 70
     1
 40
0.75
 41
0.75
  0
VERTEX
  8
0
 10
2.89936
 20
8.48887
 30
0.0
 40
0.0104167
 41
0.0104167
  0
VERTEX
  8
0
 10
3.43571
 20
8.48887
 30
0.0
 40
0.0104167
 41
0.0104167
  0
VERTEX
  8
0
 10
3.43571
 20
7.87989
 30
0.0
 40
0.0104167
 41
0.0104167
  0
VERTEX
  8
0
 10
2.89936
 20
7.87989
 30
0.0
 40
0.0104167
 41
0.0104167
  0
VERTEX
  8
0
 10
2.89936
 20
8.48887
 30
0.0
 40
0.0104167
 41
0.0104167
  0
SEQEND
 8
0
  0
POLYLINE
  8
0
 62
     7
 66
     1
 10
0
 20
0
 30
0.0
 70
     1
 40
0
 41
0
  0
VERTEX
  8
0
 10
8.22667
 20
4.89844
 30
0.0
 40
0
 41
0
  0
VERTEX
  8
0
 10
8.22667
 20
2.85997
 30
0.0
 40
0
 41
0
  0
VERTEX
  8
0
 10
10.329
 20
2.85997
 30
0.0
 40
0
 41
0
  0
VERTEX
  8
0
 10
10.329
 20
2.31321
 30
0.0
 40
0
 41
0
  0
VERTEX
  8
0
 10
8.23329
 20
2.31321
 30
0.0
 40
0
 41
0
  0
VERTEX
  8
0
 10
8.22999
 20
2.558
 30
0.0
 40
0
 41
0
  0
VERTEX
  8
0
 10
7.59375
 20
2.558
 30
0.0
 40
0
 41
0
  0
VERTEX
  8
0
 10
7.59375
 20
4.89844
 30
0.0
 40
0
 41
0
  0
VERTEX
  8
0
 10
8.22667
 20
4.89844
 30
0.0
 40
0
 41
0
  0
SEQEND
 8
0
  0
POLYLINE
  8
0
 62
     0
 66
     1
 10
0
 20
0
 30
0.0
 70
     1
 40
0.75
 41
0.75
  0
VERTEX
  8
0
 10
8.22667
 20
4.89844
 30
0.0
 40
0.0104167
 41
0.0104167
  0
VERTEX
  8
0
 10
8.22667
 20
2.85997
 30
0.0
 40
0.0104167
 41
0.0104167
  0
VERTEX
  8
0
 10
10.329
 20
2.85997
 30
0.0
 40
0.0104167
 41
0.0104167
  0
VERTEX
  8
0
 10
10.329
 20
2.31321
 30
0.0
 40
0.0104167
 41
0.0104167
  0
VERTEX
  8
0
 10
8.23329
 20
2.31321
 30
0.0
 40
0.0104167
 41
0.0104167
  0
VERTEX
  8
0
 10
8.22999
 20
2.558
 30
0.0
 40
0.0104167
 41
0.0104167
  0
VERTEX
  8
0
 10
7.59375
 20
2.558
 30
0.0
 40
0.0104167
 41
0.0104167
  0
VERTEX
  8
0
 10
7.59375
 20
4.89844
 30
0.0
 40
0.0104167
 41
0.0104167
  0
VERTEX
  8
0
 10
8.22667
 20
4.89844
 30
0.0
 40
0.0104167
 41
0.0104167
  0
SEQEND
 8
0
  0
POLYLINE
  8
0
 62
     7
 66
     1
 10
0
 20
0
 30
0.0
 70
     1
 40
0
 41
0
  0
VERTEX
  8
0
 10
7.70475
 20
3.65056
 30
0.0
 40
0
 41
0
  0
VERTEX
  8
0
 10
8.1735
 20
3.65056
 30
0.0
 40
0
 41
0
  0
VERTEX
  8
0
 10
8.1735
 20
3.44222
 30
0.0
 40
0
 41
0
  0
VERTEX
  8
0
 10
7.70475
 20
3.44222
 30
0.0
 40
0
 41
0
  0
VERTEX
  8
0
 10
7.70475
 20
3.65056
 30
0.0
 40
0
 41
0
  0
SEQEND
 8
0
  0
POLYLINE
  8
0
 62
     0
 66
     1
 10
0
 20
0
 30
0.0
 70
     1
 40
0.75
 41
0.75
  0
VERTEX
  8
0
 10
7.70475
 20
3.65056
 30
0.0
 40
0.0104167
 41
0.0104167
  0
VERTEX
  8
0
 10
7.70475
 20
3.44222
 30
0.0
 40
0.0104167
 41
0.0104167
  0
VERTEX
  8
0
 10
8.1735
 20
3.44222
 30
0.0
 40
0.0104167
 41
0.0104167
  0
VERTEX
  8
0
 10
8.1735
 20
3.65056
 30
0.0
 40
0.0104167
 41
0.0104167
  0
VERTEX
  8
0
 10
7.70475
 20
3.65056
 30
0.0
 40
0.0104167
 41
0.0104167
  0
SEQEND
 8
0
  0
POLYLINE
  8
0
 62
     7
 66
     1
 10
0
 20
0
 30
0.0
 70
     1
 40
0
 41
0
  0
VERTEX
  8
0
 10
7.70583
 20
4.06722
 30
0.0
 40
0
 41
0
  0
VERTEX
  8
0
 10
8.17458
 20
4.06722
 30
0.0
 40
0
 41
0
  0
VERTEX
  8
0
 10
8.17458
 20
3.68181
 30
0.0
 40
0
 41
0
  0
VERTEX
  8
0
 10
7.70583
 20
3.68181
 30
0.0
 40
0
 41
0
  0
VERTEX
  8
0
 10
7.70583
 20
4.06722
 30
0.0
 40
0
 41
0
  0
SEQEND
 8
0
  0
POLYLINE
  8
0
 62
     0
 66
     1
 10
0
 20
0
 30
0.0
 70
     1
 40
0.75
 41
0.75
  0
VERTEX
  8
0
 10
7.70583
 20
4.06722
 30
0.0
 40
0.0104167
 41
0.0104167
  0
VERTEX
  8
0
 10
7.70583
 20
3.68181
 30
0.0
 40
0.0104167
 41
0.0104167
  0
VERTEX
  8
0
 10
8.17458
 20
3.68181
 30
0.0
 40
0.0104167
 41
0.0104167
  0
VERTEX
  8
0
 10
8.17458
 20
4.06722
 30
0.0
 40
0.0104167
 41
0.0104167
  0
VERTEX
  8
0
 10
7.70583
 20
4.06722
 30
0.0
 40
0.0104167
 41
0.0104167
  0
SEQEND
 8
0
  0
POLYLINE
  8
0
 62
     7
 66
     1
 10
0
 20
0
 30
0.0
 70
     1
 40
0
 41
0
  0
VERTEX
  8
0
 10
7.94021
 20
3.58285
 30
0.0
 40
0
 41
0
  0
VERTEX
  8
0
 10
7.94661
 20
3.58285
 30
0.0
 40
0
 41
0
  0
VERTEX
  8
0
 10
7.96599
 20
3.57221
 30
0.0
 40
0
 41
0
  0
VERTEX
  8
0
 10
7.97667
 20
3.55285
 30
0.0
 40
0
 41
0
  0
VERTEX
  8
0
 10
7.97667
 20
3.54639
 30
0.0
 40
0
 41
0
  0
VERTEX
  8
0
 10
7.97667
 20
3.53999
 30
0.0
 40
0
 41
0
  0
VERTEX
  8
0
 10
7.96599
 20
3.52061
 30
0.0
 40
0
 41
0
  0
VERTEX
  8
0
 10
7.94661
 20
3.50993
 30
0.0
 40
0
 41
0
  0
VERTEX
  8
0
 10
7.94021
 20
3.50993
 30
0.0
 40
0
 41
0
  0
VERTEX
  8
0
 10
7.93375
 20
3.50993
 30
0.0
 40
0
 41
0
  0
VERTEX
  8
0
 10
7.91439
 20
3.52061
 30
0.0
 40
0
 41
0
  0
VERTEX
  8
0
 10
7.90375
 20
3.53999
 30
0.0
 40
0
 41
0
  0
VERTEX
  8
0
 10
7.90375
 20
3.54639
 30
0.0
 40
0
 41
0
  0
VERTEX
  8
0
 10
7.90375
 20
3.55285
 30
0.0
 40
0
 41
0
  0
VERTEX
  8
0
 10
7.91439
 20
3.57221
 30
0.0
 40
0
 41
0
  0
VERTEX
  8
0
 10
7.93375
 20
3.58285
 30
0.0
 40
0
 41
0
  0
VERTEX
  8
0
 10
7.94021
 20
3.58285
 30
0.0
 40
0
 41
0
  0
SEQEND
 8
0
  0
POLYLINE
  8
0
 62
     0
 66
     1
 10
0
 20
0
 30
0.0
 70
     1
 40
0.6
 41
0.6
  0
VERTEX
  8
0
 10
7.94021
 20
3.58285
 30
0.0
 40
0.00833333
 41
0.00833333
  0
VERTEX
  8
0
 10
7.94661
 20
3.58285
 30
0.0
 40
0.00833333
 41
0.00833333
  0
VERTEX
  8
0
 10
7.96599
 20
3.57221
 30
0.0
 40
0.00833333
 41
0.00833333
  0
VERTEX
  8
0
 10
7.97667
 20
3.55285
 30
0.0
 40
0.00833333
 41
0.00833333
  0
VERTEX
  8
0
 10
7.97667
 20
3.54639
 30
0.0
 40
0.00833333
 41
0.00833333
  0
VERTEX
  8
0
 10
7.97667
 20
3.53999
 30
0.0
 40
0.00833333
 41
0.00833333
  0
VERTEX
  8
0
 10
7.96599
 20
3.52061
 30
0.0
 40
0.00833333
 41
0.00833333
  0
VERTEX
  8
0
 10
7.94661
 20
3.50993
 30
0.0
 40
0.00833333
 41
0.00833333
  0
VERTEX
  8
0
 10
7.94021
 20
3.50993
 30
0.0
 40
0.00833333
 41
0.00833333
  0
VERTEX
  8
0
 10
7.93375
 20
3.50993
 30
0.0
 40
0.00833333
 41
0.00833333
  0
VERTEX
  8
0
 10
7.91439
 20
3.52061
 30
0.0
 40
0.00833333
 41
0.00833333
  0
VERTEX
  8
0
 10
7.90375
 20
3.53999
 30
0.0
 40
0.00833333
 41
0.00833333
  0
VERTEX
  8
0
 10
7.90375
 20
3.54639
 30
0.0
 40
0.00833333
 41
0.00833333
  0
VERTEX
  8
0
 10
7.90375
 20
3.55285
 30
0.0
 40
0.00833333
 41
0.00833333
  0
VERTEX
  8
0
 10
7.91439
 20
3.57221
 30
0.0
 40
0.00833333
 41
0.00833333
  0
VERTEX
  8
0
 10
7.93375
 20
3.58285
 30
0.0
 40
0.00833333
 41
0.00833333
  0
VERTEX
  8
0
 10
7.94021
 20
3.58285
 30
0.0
 40
0.00833333
 41
0.00833333
  0
SEQEND
 8
0
  0
POLYLINE
  8
0
 62
     7
 66
     1
 10
0
 20
0
 30
0.0
 70
     1
 40
0
 41
0
  0
VERTEX
  8
0
 10
7.94021
 20
3.90576
 30
0.0
 40
0
 41
0
  0
VERTEX
  8
0
 10
7.94661
 20
3.90576
 30
0.0
 40
0
 41
0
  0
VERTEX
  8
0
 10
7.96599
 20
3.89513
 30
0.0
 40
0
 41
0
  0
VERTEX
  8
0
 10
7.97667
 20
3.87576
 30
0.0
 40
0
 41
0
  0
VERTEX
  8
0
 10
7.97667
 20
3.86931
 30
0.0
 40
0
 41
0
  0
VERTEX
  8
0
 10
7.97667
 20
3.8629
 30
0.0
 40
0
 41
0
  0
VERTEX
  8
0
 10
7.96599
 20
3.84353
 30
0.0
 40
0
 41
0
  0
VERTEX
  8
0
 10
7.94661
 20
3.83285
 30
0.0
 40
0
 41
0
  0
VERTEX
  8
0
 10
7.94021
 20
3.83285
 30
0.0
 40
0
 41
0
  0
VERTEX
  8
0
 10
7.93375
 20
3.83285
 30
0.0
 40
0
 41
0
  0
VERTEX
  8
0
 10
7.91439
 20
3.84353
 30
0.0
 40
0
 41
0
  0
VERTEX
  8
0
 10
7.90375
 20
3.8629
 30
0.0
 40
0
 41
0
  0
VERTEX
  8
0
 10
7.90375
 20
3.86931
 30
0.0
 40
0
 41
0
  0
VERTEX
  8
0
 10
7.90375
 20
3.87576
 30
0.0
 40
0
 41
0
  0
VERTEX
  8
0
 10
7.91439
 20
3.89513
 30
0.0
 40
0
 41
0
  0
VERTEX
  8
0
 10
7.93375
 20
3.90576
 30
0.0
 40
0
 41
0
  0
VERTEX
  8
0
 10
7.94021
 20
3.90576
 30
0.0
 40
0
 41
0
  0
SEQEND
 8
0
  0
POLYLINE
  8
0
 62
     0
 66
     1
 10
0
 20
0
 30
0.0
 70
     1
 40
0.6
 41
0.6
  0
VERTEX
  8
0
 10
7.94021
 20
3.90576
 30
0.0
 40
0.00833333
 41
0.00833333
  0
VERTEX
  8
0
 10
7.94661
 20
3.90576
 30
0.0
 40
0.00833333
 41
0.00833333
  0
VERTEX
  8
0
 10
7.96599
 20
3.89513
 30
0.0
 40
0.00833333
 41
0.00833333
  0
VERTEX
  8
0
 10
7.97667
 20
3.87576
 30
0.0
 40
0.00833333
 41
0.00833333
  0
VERTEX
  8
0
 10
7.97667
 20
3.86931
 30
0.0
 40
0.00833333
 41
0.00833333
  0
VERTEX
  8
0
 10
7.97667
 20
3.8629
 30
0.0
 40
0.00833333
 41
0.00833333
  0
VERTEX
  8
0
 10
7.96599
 20
3.84353
 30
0.0
 40
0.00833333
 41
0.00833333
  0
VERTEX
  8
0
 10
7.94661
 20
3.83285
 30
0.0
 40
0.00833333
 41
0.00833333
  0
VERTEX
  8
0
 10
7.94021
 20
3.83285
 30
0.0
 40
0.00833333
 41
0.00833333
  0
VERTEX
  8
0
 10
7.93375
 20
3.83285
 30
0.0
 40
0.00833333
 41
0.00833333
  0
VERTEX
  8
0
 10
7.91439
 20
3.84353
 30
0.0
 40
0.00833333
 41
0.00833333
  0
VERTEX
  8
0
 10
7.90375
 20
3.8629
 30
0.0
 40
0.00833333
 41
0.00833333
  0
VERTEX
  8
0
 10
7.90375
 20
3.86931
 30
0.0
 40
0.00833333
 41
0.00833333
  0
VERTEX
  8
0
 10
7.90375
 20
3.87576
 30
0.0
 40
0.00833333
 41
0.00833333
  0
VERTEX
  8
0
 10
7.91439
 20
3.89513
 30
0.0
 40
0.00833333
 41
0.00833333
  0
VERTEX
  8
0
 10
7.93375
 20
3.90576
 30
0.0
 40
0.00833333
 41
0.00833333
  0
VERTEX
  8
0
 10
7.94021
 20
3.90576
 30
0.0
 40
0.00833333
 41
0.00833333
  0
SEQEND
 8
0
  0
POLYLINE
  8
0
 62
     7
 66
     1
 10
0
 20
0
 30
0.0
 70
     1
 40
0
 41
0
  0
VERTEX
  8
0
 10
7.94021
 20
3.56722
 30
0.0
 40
0
 41
0
  0
VERTEX
  8
0
 10
7.94385
 20
3.56722
 30
0.0
 40
0
 41
0
  0
VERTEX
  8
0
 10
7.95492
 20
3.56114
 30
0.0
 40
0
 41
0
  0
VERTEX
  8
0
 10
7.96104
 20
3.55007
 30
0.0
 40
0
 41
0
  0
VERTEX
  8
0
 10
7.96104
 20
3.54639
 30
0.0
 40
0
 41
0
  0
VERTEX
  8
0
 10
7.96104
 20
3.54275
 30
0.0
 40
0
 41
0
  0
VERTEX
  8
0
 10
7.95492
 20
3.53168
 30
0.0
 40
0
 41
0
  0
VERTEX
  8
0
 10
7.94385
 20
3.52556
 30
0.0
 40
0
 41
0
  0
VERTEX
  8
0
 10
7.94021
 20
3.52556
 30
0.0
 40
0
 41
0
  0
VERTEX
  8
0
 10
7.93653
 20
3.52556
 30
0.0
 40
0
 41
0
  0
VERTEX
  8
0
 10
7.92546
 20
3.53168
 30
0.0
 40
0
 41
0
  0
VERTEX
  8
0
 10
7.91938
 20
3.54275
 30
0.0
 40
0
 41
0
  0
VERTEX
  8
0
 10
7.91938
 20
3.54639
 30
0.0
 40
0
 41
0
  0
VERTEX
  8
0
 10
7.91938
 20
3.55007
 30
0.0
 40
0
 41
0
  0
VERTEX
  8
0
 10
7.92546
 20
3.56114
 30
0.0
 40
0
 41
0
  0
VERTEX
  8
0
 10
7.93653
 20
3.56722
 30
0.0
 40
0
 41
0
  0
VERTEX
  8
0
 10
7.94021
 20
3.56722
 30
0.0
 40
0
 41
0
  0
SEQEND
 8
0
  0
POLYLINE
  8
0
 62
     0
 66
     1
 10
0
 20
0
 30
0.0
 70
     1
 40
0.6
 41
0.6
  0
VERTEX
  8
0
 10
7.94021
 20
3.56722
 30
0.0
 40
0.00833333
 41
0.00833333
  0
VERTEX
  8
0
 10
7.94385
 20
3.56722
 30
0.0
 40
0.00833333
 41
0.00833333
  0
VERTEX
  8
0
 10
7.95492
 20
3.56114
 30
0.0
 40
0.00833333
 41
0.00833333
  0
VERTEX
  8
0
 10
7.96104
 20
3.55007
 30
0.0
 40
0.00833333
 41
0.00833333
  0
VERTEX
  8
0
 10
7.96104
 20
3.54639
 30
0.0
 40
0.00833333
 41
0.00833333
  0
VERTEX
  8
0
 10
7.96104
 20
3.54275
 30
0.0
 40
0.00833333
 41
0.00833333
  0
VERTEX
  8
0
 10
7.95492
 20
3.53168
 30
0.0
 40
0.00833333
 41
0.00833333
  0
VERTEX
  8
0
 10
7.94385
 20
3.52556
 30
0.0
 40
0.00833333
 41
0.00833333
  0
VERTEX
  8
0
 10
7.94021
 20
3.52556
 30
0.0
 40
0.00833333
 41
0.00833333
  0
VERTEX
  8
0
 10
7.93653
 20
3.52556
 30
0.0
 40
0.00833333
 41
0.00833333
  0
VERTEX
  8
0
 10
7.92546
 20
3.53168
 30
0.0
 40
0.00833333
 41
0.00833333
  0
VERTEX
  8
0
 10
7.91938
 20
3.54275
 30
0.0
 40
0.00833333
 41
0.00833333
  0
VERTEX
  8
0
 10
7.91938
 20
3.54639
 30
0.0
 40
0.00833333
 41
0.00833333
  0
VERTEX
  8
0
 10
7.91938
 20
3.55007
 30
0.0
 40
0.00833333
 41
0.00833333
  0
VERTEX
  8
0
 10
7.92546
 20
3.56114
 30
0.0
 40
0.00833333
 41
0.00833333
  0
VERTEX
  8
0
 10
7.93653
 20
3.56722
 30
0.0
 40
0.00833333
 41
0.00833333
  0
VERTEX
  8
0
 10
7.94021
 20
3.56722
 30
0.0
 40
0.00833333
 41
0.00833333
  0
SEQEND
 8
0
  0
POLYLINE
  8
0
 62
     7
 66
     1
 10
0
 20
0
 30
0.0
 70
     1
 40
0
 41
0
  0
VERTEX
  8
0
 10
7.94021
 20
3.89014
 30
0.0
 40
0
 41
0
  0
VERTEX
  8
0
 10
7.94385
 20
3.89014
 30
0.0
 40
0
 41
0
  0
VERTEX
  8
0
 10
7.95492
 20
3.88406
 30
0.0
 40
0
 41
0
  0
VERTEX
  8
0
 10
7.96104
 20
3.87299
 30
0.0
 40
0
 41
0
  0
VERTEX
  8
0
 10
7.96104
 20
3.86931
 30
0.0
 40
0
 41
0
  0
VERTEX
  8
0
 10
7.96104
 20
3.86567
 30
0.0
 40
0
 41
0
  0
VERTEX
  8
0
 10
7.95492
 20
3.8546
 30
0.0
 40
0
 41
0
  0
VERTEX
  8
0
 10
7.94385
 20
3.84847
 30
0.0
 40
0
 41
0
  0
VERTEX
  8
0
 10
7.94021
 20
3.84847
 30
0.0
 40
0
 41
0
  0
VERTEX
  8
0
 10
7.93653
 20
3.84847
 30
0.0
 40
0
 41
0
  0
VERTEX
  8
0
 10
7.92546
 20
3.8546
 30
0.0
 40
0
 41
0
  0
VERTEX
  8
0
 10
7.91938
 20
3.86567
 30
0.0
 40
0
 41
0
  0
VERTEX
  8
0
 10
7.91938
 20
3.86931
 30
0.0
 40
0
 41
0
  0
VERTEX
  8
0
 10
7.91938
 20
3.87299
 30
0.0
 40
0
 41
0
  0
VERTEX
  8
0
 10
7.92546
 20
3.88406
 30
0.0
 40
0
 41
0
  0
VERTEX
  8
0
 10
7.93653
 20
3.89014
 30
0.0
 40
0
 41
0
  0
VERTEX
  8
0
 10
7.94021
 20
3.89014
 30
0.0
 40
0
 41
0
  0
SEQEND
 8
0
  0
POLYLINE
  8
0
 62
     0
 66
     1
 10
0
 20
0
 30
0.0
 70
     1
 40
0.6
 41
0.6
  0
VERTEX
  8
0
 10
7.94021
 20
3.89014
 30
0.0
 40
0.00833333
 41
0.00833333
  0
VERTEX
  8
0
 10
7.94385
 20
3.89014
 30
0.0
 40
0.00833333
 41
0.00833333
  0
VERTEX
  8
0
 10
7.95492
 20
3.88406
 30
0.0
 40
0.00833333
 41
0.00833333
  0
VERTEX
  8
0
 10
7.96104
 20
3.87299
 30
0.0
 40
0.00833333
 41
0.00833333
  0
VERTEX
  8
0
 10
7.96104
 20
3.86931
 30
0.0
 40
0.00833333
 41
0.00833333
  0
VERTEX
  8
0
 10
7.96104
 20
3.86567
 30
0.0
 40
0.00833333
 41
0.00833333
  0
VERTEX
  8
0
 10
7.95492
 20
3.8546
 30
0.0
 40
0.00833333
 41
0.00833333
  0
VERTEX
  8
0
 10
7.94385
 20
3.84847
 30
0.0
 40
0.00833333
 41
0.00833333
  0
VERTEX
  8
0
 10
7.94021
 20
3.84847
 30
0.0
 40
0.00833333
 41
0.00833333
  0
VERTEX
  8
0
 10
7.93653
 20
3.84847
 30
0.0
 40
0.00833333
 41
0.00833333
  0
VERTEX
  8
0
 10
7.92546
 20
3.8546
 30
0.0
 40
0.00833333
 41
0.00833333
  0
VERTEX
  8
0
 10
7.91938
 20
3.86567
 30
0.0
 40
0.00833333
 41
0.00833333
  0
VERTEX
  8
0
 10
7.91938
 20
3.86931
 30
0.0
 40
0.00833333
 41
0.00833333
  0
VERTEX
  8
0
 10
7.91938
 20
3.87299
 30
0.0
 40
0.00833333
 41
0.00833333
  0
VERTEX
  8
0
 10
7.92546
 20
3.88406
 30
0.0
 40
0.00833333
 41
0.00833333
  0
VERTEX
  8
0
 10
7.93653
 20
3.89014
 30
0.0
 40
0.00833333
 41
0.00833333
  0
VERTEX
  8
0
 10
7.94021
 20
3.89014
 30
0.0
 40
0.00833333
 41
0.00833333
  0
SEQEND
 8
0
  0
POLYLINE
  8
0
 62
     7
 66
     1
 10
0
 20
0
 30
0.0
 70
     1
 40
0
 41
0
  0
VERTEX
  8
0
 10
7.65267
 20
3.78597
 30
0.0
 40
0
 41
0
  0
VERTEX
  8
0
 10
7.7985
 20
3.78597
 30
0.0
 40
0
 41
0
  0
VERTEX
  8
0
 10
7.7985
 20
3.72347
 30
0.0
 40
0
 41
0
  0
VERTEX
  8
0
 10
7.65267
 20
3.72347
 30
0.0
 40
0
 41
0
  0
VERTEX
  8
0
 10
7.65267
 20
3.78597
 30
0.0
 40
0
 41
0
  0
SEQEND
 8
0
  0
POLYLINE
  8
0
 62
     0
 66
     1
 10
0
 20
0
 30
0.0
 70
     1
 40
0.75
 41
0.75
  0
VERTEX
  8
0
 10
7.65267
 20
3.78597
 30
0.0
 40
0.0104167
 41
0.0104167
  0
VERTEX
  8
0
 10
7.65267
 20
3.72347
 30
0.0
 40
0.0104167
 41
0.0104167
  0
VERTEX
  8
0
 10
7.7985
 20
3.72347
 30
0.0
 40
0.0104167
 41
0.0104167
  0
VERTEX
  8
0
 10
7.7985
 20
3.78597
 30
0.0
 40
0.0104167
 41
0.0104167
  0
VERTEX
  8
0
 10
7.65267
 20
3.78597
 30
0.0
 40
0.0104167
 41
0.0104167
  0
SEQEND
 8
0
  0
POLYLINE
  8
0
 62
     7
 66
     1
 10
0
 20
0
 30
0.0
 70
     1
 40
0
 41
0
  0
VERTEX
  8
0
 10
8.69249
 20
2.86415
 30
0.0
 40
0
 41
0
  0
VERTEX
  8
0
 10
9.27582
 20
2.86415
 30
0.0
 40
0
 41
0
  0
VERTEX
  8
0
 10
9.27582
 20
2.33496
 30
0.0
 40
0
 41
0
  0
VERTEX
  8
0
 10
8.69249
 20
2.33496
 30
0.0
 40
0
 41
0
  0
VERTEX
  8
0
 10
8.69249
 20
2.86415
 30
0.0
 40
0
 41
0
  0
SEQEND
 8
0
  0
POLYLINE
  8
0
 62
     0
 66
     1
 10
0
 20
0
 30
0.0
 70
     1
 40
0.75
 41
0.75
  0
VERTEX
  8
0
 10
8.69249
 20
2.86415
 30
0.0
 40
0.0104167
 41
0.0104167
  0
VERTEX
  8
0
 10
9.27582
 20
2.86415
 30
0.0
 40
0.0104167
 41
0.0104167
  0
VERTEX
  8
0
 10
9.27582
 20
2.33496
 30
0.0
 40
0.0104167
 41
0.0104167
  0
VERTEX
  8
0
 10
8.69249
 20
2.33496
 30
0.0
 40
0.0104167
 41
0.0104167
  0
VERTEX
  8
0
 10
8.69249
 20
2.86415
 30
0.0
 40
0.0104167
 41
0.0104167
  0
SEQEND
 8
0
  0
POLYLINE
  8
0
 62
     7
 66
     1
 10
0
 20
0
 30
0.0
 70
     1
 40
0
 41
0
  0
VERTEX
  8
0
 10
9.04665
 20
2.46588
 30
0.0
 40
0
 41
0
  0
VERTEX
  8
0
 10
9.04665
 20
2.47401
 30
0.0
 40
0
 41
0
  0
VERTEX
  8
0
 10
9.05317
 20
2.49832
 30
0.0
 40
0
 41
0
  0
VERTEX
  8
0
 10
9.07107
 20
2.52479
 30
0.0
 40
0
 41
0
  0
VERTEX
  8
0
 10
9.09754
 20
2.54269
 30
0.0
 40
0
 41
0
  0
VERTEX
  8
0
 10
9.12185
 20
2.54921
 30
0.0
 40
0
 41
0
  0
VERTEX
  8
0
 10
9.12999
 20
2.54921
 30
0.0
 40
0
 41
0
  0
VERTEX
  8
0
 10
9.13807
 20
2.54921
 30
0.0
 40
0
 41
0
  0
VERTEX
  8
0
 10
9.16237
 20
2.54269
 30
0.0
 40
0
 41
0
  0
VERTEX
  8
0
 10
9.18892
 20
2.52479
 30
0.0
 40
0
 41
0
  0
VERTEX
  8
0
 10
9.20676
 20
2.49832
 30
0.0
 40
0
 41
0
  0
VERTEX
  8
0
 10
9.21332
 20
2.47401
 30
0.0
 40
0
 41
0
  0
VERTEX
  8
0
 10
9.21332
 20
2.46588
 30
0.0
 40
0
 41
0
  0
VERTEX
  8
0
 10
9.21332
 20
2.45779
 30
0.0
 40
0
 41
0
  0
VERTEX
  8
0
 10
9.20676
 20
2.43343
 30
0.0
 40
0
 41
0
  0
VERTEX
  8
0
 10
9.18892
 20
2.40696
 30
0.0
 40
0
 41
0
  0
VERTEX
  8
0
 10
9.16237
 20
2.38911
 30
0.0
 40
0
 41
0
  0
VERTEX
  8
0
 10
9.13807
 20
2.38254
 30
0.0
 40
0
 41
0
  0
VERTEX
  8
0
 10
9.12999
 20
2.38254
 30
0.0
 40
0
 41
0
  0
VERTEX
  8
0
 10
9.12185
 20
2.38254
 30
0.0
 40
0
 41
0
  0
VERTEX
  8
0
 10
9.09754
 20
2.38911
 30
0.0
 40
0
 41
0
  0
VERTEX
  8
0
 10
9.07107
 20
2.40696
 30
0.0
 40
0
 41
0
  0
VERTEX
  8
0
 10
9.05317
 20
2.43343
 30
0.0
 40
0
 41
0
  0
VERTEX
  8
0
 10
9.04665
 20
2.45779
 30
0.0
 40
0
 41
0
  0
VERTEX
  8
0
 10
9.04665
 20
2.46588
 30
0.0
 40
0
 41
0
  0
SEQEND
 8
0
  0
POLYLINE
  8
0
 62
     0
 66
     1
 10
0
 20
0
 30
0.0
 70
     1
 40
0.75
 41
0.75
  0
VERTEX
  8
0
 10
9.04665
 20
2.46588
 30
0.0
 40
0.0104167
 41
0.0104167
  0
VERTEX
  8
0
 10
9.04665
 20
2.47401
 30
0.0
 40
0.0104167
 41
0.0104167
  0
VERTEX
  8
0
 10
9.05317
 20
2.49832
 30
0.0
 40
0.0104167
 41
0.0104167
  0
VERTEX
  8
0
 10
9.07107
 20
2.52479
 30
0.0
 40
0.0104167
 41
0.0104167
  0
VERTEX
  8
0
 10
9.09754
 20
2.54269
 30
0.0
 40
0.0104167
 41
0.0104167
  0
VERTEX
  8
0
 10
9.12185
 20
2.54921
 30
0.0
 40
0.0104167
 41
0.0104167
  0
VERTEX
  8
0
 10
9.12999
 20
2.54921
 30
0.0
 40
0.0104167
 41
0.0104167
  0
VERTEX
  8
0
 10
9.13807
 20
2.54921
 30
0.0
 40
0.0104167
 41
0.0104167
  0
VERTEX
  8
0
 10
9.16237
 20
2.54269
 30
0.0
 40
0.0104167
 41
0.0104167
  0
VERTEX
  8
0
 10
9.18892
 20
2.52479
 30
0.0
 40
0.0104167
 41
0.0104167
  0
VERTEX
  8
0
 10
9.20676
 20
2.49832
 30
0.0
 40
0.0104167
 41
0.0104167
  0
VERTEX
  8
0
 10
9.21332
 20
2.47401
 30
0.0
 40
0.0104167
 41
0.0104167
  0
VERTEX
  8
0
 10
9.21332
 20
2.46588
 30
0.0
 40
0.0104167
 41
0.0104167
  0
VERTEX
  8
0
 10
9.21332
 20
2.45779
 30
0.0
 40
0.0104167
 41
0.0104167
  0
VERTEX
  8
0
 10
9.20676
 20
2.43343
 30
0.0
 40
0.0104167
 41
0.0104167
  0
VERTEX
  8
0
 10
9.18892
 20
2.40696
 30
0.0
 40
0.0104167
 41
0.0104167
  0
VERTEX
  8
0
 10
9.16237
 20
2.38911
 30
0.0
 40
0.0104167
 41
0.0104167
  0
VERTEX
  8
0
 10
9.13807
 20
2.38254
 30
0.0
 40
0.0104167
 41
0.0104167
  0
VERTEX
  8
0
 10
9.12999
 20
2.38254
 30
0.0
 40
0.0104167
 41
0.0104167
  0
VERTEX
  8
0
 10
9.12185
 20
2.38254
 30
0.0
 40
0.0104167
 41
0.0104167
  0
VERTEX
  8
0
 10
9.09754
 20
2.38911
 30
0.0
 40
0.0104167
 41
0.0104167
  0
VERTEX
  8
0
 10
9.07107
 20
2.40696
 30
0.0
 40
0.0104167
 41
0.0104167
  0
VERTEX
  8
0
 10
9.05317
 20
2.43343
 30
0.0
 40
0.0104167
 41
0.0104167
  0
VERTEX
  8
0
 10
9.04665
 20
2.45779
 30
0.0
 40
0.0104167
 41
0.0104167
  0
VERTEX
  8
0
 10
9.04665
 20
2.46588
 30
0.0
 40
0.0104167
 41
0.0104167
  0
SEQEND
 8
0
  0
POLYLINE
  8
0
 62
     7
 66
     1
 10
0
 20
0
 30
0.0
 70
     1
 40
0
 41
0
  0
VERTEX
  8
0
 10
8.75499
 20
2.46588
 30
0.0
 40
0
 41
0
  0
VERTEX
  8
0
 10
8.75499
 20
2.47401
 30
0.0
 40
0
 41
0
  0
VERTEX
  8
0
 10
8.7615
 20
2.49832
 30
0.0
 40
0
 41
0
  0
VERTEX
  8
0
 10
8.7794
 20
2.52479
 30
0.0
 40
0
 41
0
  0
VERTEX
  8
0
 10
8.80588
 20
2.54269
 30
0.0
 40
0
 41
0
  0
VERTEX
  8
0
 10
8.83018
 20
2.54921
 30
0.0
 40
0
 41
0
  0
VERTEX
  8
0
 10
8.83832
 20
2.54921
 30
0.0
 40
0
 41
0
  0
VERTEX
  8
0
 10
8.8464
 20
2.54921
 30
0.0
 40
0
 41
0
  0
VERTEX
  8
0
 10
8.87071
 20
2.54269
 30
0.0
 40
0
 41
0
  0
VERTEX
  8
0
 10
8.89725
 20
2.52479
 30
0.0
 40
0
 41
0
  0
VERTEX
  8
0
 10
8.9151
 20
2.49832
 30
0.0
 40
0
 41
0
  0
VERTEX
  8
0
 10
8.92165
 20
2.47401
 30
0.0
 40
0
 41
0
  0
VERTEX
  8
0
 10
8.92165
 20
2.46588
 30
0.0
 40
0
 41
0
  0
VERTEX
  8
0
 10
8.92165
 20
2.45779
 30
0.0
 40
0
 41
0
  0
VERTEX
  8
0
 10
8.9151
 20
2.43343
 30
0.0
 40
0
 41
0
  0
VERTEX
  8
0
 10
8.89725
 20
2.40696
 30
0.0
 40
0
 41
0
  0
VERTEX
  8
0
 10
8.87071
 20
2.38911
 30
0.0
 40
0
 41
0
  0
VERTEX
  8
0
 10
8.8464
 20
2.38254
 30
0.0
 40
0
 41
0
  0
VERTEX
  8
0
 10
8.83832
 20
2.38254
 30
0.0
 40
0
 41
0
  0
VERTEX
  8
0
 10
8.83018
 20
2.38254
 30
0.0
 40
0
 41
0
  0
VERTEX
  8
0
 10
8.80588
 20
2.38911
 30
0.0
 40
0
 41
0
  0
VERTEX
  8
0
 10
8.7794
 20
2.40696
 30
0.0
 40
0
 41
0
  0
VERTEX
  8
0
 10
8.7615
 20
2.43343
 30
0.0
 40
0
 41
0
  0
VERTEX
  8
0
 10
8.75499
 20
2.45779
 30
0.0
 40
0
 41
0
  0
VERTEX
  8
0
 10
8.75499
 20
2.46588
 30
0.0
 40
0
 41
0
  0
SEQEND
 8
0
  0
POLYLINE
  8
0
 62
     0
 66
     1
 10
0
 20
0
 30
0.0
 70
     1
 40
0.75
 41
0.75
  0
VERTEX
  8
0
 10
8.75499
 20
2.46588
 30
0.0
 40
0.0104167
 41
0.0104167
  0
VERTEX
  8
0
 10
8.75499
 20
2.47401
 30
0.0
 40
0.0104167
 41
0.0104167
  0
VERTEX
  8
0
 10
8.7615
 20
2.49832
 30
0.0
 40
0.0104167
 41
0.0104167
  0
VERTEX
  8
0
 10
8.7794
 20
2.52479
 30
0.0
 40
0.0104167
 41
0.0104167
  0
VERTEX
  8
0
 10
8.80588
 20
2.54269
 30
0.0
 40
0.0104167
 41
0.0104167
  0
VERTEX
  8
0
 10
8.83018
 20
2.54921
 30
0.0
 40
0.0104167
 41
0.0104167
  0
VERTEX
  8
0
 10
8.83832
 20
2.54921
 30
0.0
 40
0.0104167
 41
0.0104167
  0
VERTEX
  8
0
 10
8.8464
 20
2.54921
 30
0.0
 40
0.0104167
 41
0.0104167
  0
VERTEX
  8
0
 10
8.87071
 20
2.54269
 30
0.0
 40
0.0104167
 41
0.0104167
  0
VERTEX
  8
0
 10
8.89725
 20
2.52479
 30
0.0
 40
0.0104167
 41
0.0104167
  0
VERTEX
  8
0
 10
8.9151
 20
2.49832
 30
0.0
 40
0.0104167
 41
0.0104167
  0
VERTEX
  8
0
 10
8.92165
 20
2.47401
 30
0.0
 40
0.0104167
 41
0.0104167
  0
VERTEX
  8
0
 10
8.92165
 20
2.46588
 30
0.0
 40
0.0104167
 41
0.0104167
  0
VERTEX
  8
0
 10
8.92165
 20
2.45779
 30
0.0
 40
0.0104167
 41
0.0104167
  0
VERTEX
  8
0
 10
8.9151
 20
2.43343
 30
0.0
 40
0.0104167
 41
0.0104167
  0
VERTEX
  8
0
 10
8.89725
 20
2.40696
 30
0.0
 40
0.0104167
 41
0.0104167
  0
VERTEX
  8
0
 10
8.87071
 20
2.38911
 30
0.0
 40
0.0104167
 41
0.0104167
  0
VERTEX
  8
0
 10
8.8464
 20
2.38254
 30
0.0
 40
0.0104167
 41
0.0104167
  0
VERTEX
  8
0
 10
8.83832
 20
2.38254
 30
0.0
 40
0.0104167
 41
0.0104167
  0
VERTEX
  8
0
 10
8.83018
 20
2.38254
 30
0.0
 40
0.0104167
 41
0.0104167
  0
VERTEX
  8
0
 10
8.80588
 20
2.38911
 30
0.0
 40
0.0104167
 41
0.0104167
  0
VERTEX
  8
0
 10
8.7794
 20
2.40696
 30
0.0
 40
0.0104167
 41
0.0104167
  0
VERTEX
  8
0
 10
8.7615
 20
2.43343
 30
0.0
 40
0.0104167
 41
0.0104167
  0
VERTEX
  8
0
 10
8.75499
 20
2.45779
 30
0.0
 40
0.0104167
 41
0.0104167
  0
VERTEX
  8
0
 10
8.75499
 20
2.46588
 30
0.0
 40
0.0104167
 41
0.0104167
  0
SEQEND
 8
0
  0
POLYLINE
  8
0
 62
     7
 66
     1
 10
0
 20
0
 30
0.0
 70
     1
 40
0
 41
0
  0
VERTEX
  8
0
 10
9.04665
 20
2.73139
 30
0.0
 40
0
 41
0
  0
VERTEX
  8
0
 10
9.04665
 20
2.73953
 30
0.0
 40
0
 41
0
  0
VERTEX
  8
0
 10
9.05317
 20
2.76383
 30
0.0
 40
0
 41
0
  0
VERTEX
  8
0
 10
9.07107
 20
2.79031
 30
0.0
 40
0
 41
0
  0
VERTEX
  8
0
 10
9.09754
 20
2.80821
 30
0.0
 40
0
 41
0
  0
VERTEX
  8
0
 10
9.12185
 20
2.81472
 30
0.0
 40
0
 41
0
  0
VERTEX
  8
0
 10
9.12999
 20
2.81472
 30
0.0
 40
0
 41
0
  0
VERTEX
  8
0
 10
9.13807
 20
2.81472
 30
0.0
 40
0
 41
0
  0
VERTEX
  8
0
 10
9.16237
 20
2.80821
 30
0.0
 40
0
 41
0
  0
VERTEX
  8
0
 10
9.18892
 20
2.79031
 30
0.0
 40
0
 41
0
  0
VERTEX
  8
0
 10
9.20676
 20
2.76383
 30
0.0
 40
0
 41
0
  0
VERTEX
  8
0
 10
9.21332
 20
2.73953
 30
0.0
 40
0
 41
0
  0
VERTEX
  8
0
 10
9.21332
 20
2.73139
 30
0.0
 40
0
 41
0
  0
VERTEX
  8
0
 10
9.21332
 20
2.72331
 30
0.0
 40
0
 41
0
  0
VERTEX
  8
0
 10
9.20676
 20
2.699
 30
0.0
 40
0
 41
0
  0
VERTEX
  8
0
 10
9.18892
 20
2.67247
 30
0.0
 40
0
 41
0
  0
VERTEX
  8
0
 10
9.16237
 20
2.65462
 30
0.0
 40
0
 41
0
  0
VERTEX
  8
0
 10
9.13807
 20
2.64806
 30
0.0
 40
0
 41
0
  0
VERTEX
  8
0
 10
9.12999
 20
2.64806
 30
0.0
 40
0
 41
0
  0
VERTEX
  8
0
 10
9.12185
 20
2.64806
 30
0.0
 40
0
 41
0
  0
VERTEX
  8
0
 10
9.09754
 20
2.65462
 30
0.0
 40
0
 41
0
  0
VERTEX
  8
0
 10
9.07107
 20
2.67247
 30
0.0
 40
0
 41
0
  0
VERTEX
  8
0
 10
9.05317
 20
2.699
 30
0.0
 40
0
 41
0
  0
VERTEX
  8
0
 10
9.04665
 20
2.72331
 30
0.0
 40
0
 41
0
  0
VERTEX
  8
0
 10
9.04665
 20
2.73139
 30
0.0
 40
0
 41
0
  0
SEQEND
 8
0
  0
POLYLINE
  8
0
 62
     0
 66
     1
 10
0
 20
0
 30
0.0
 70
     1
 40
0.75
 41
0.75
  0
VERTEX
  8
0
 10
9.04665
 20
2.73139
 30
0.0
 40
0.0104167
 41
0.0104167
  0
VERTEX
  8
0
 10
9.04665
 20
2.73953
 30
0.0
 40
0.0104167
 41
0.0104167
  0
VERTEX
  8
0
 10
9.05317
 20
2.76383
 30
0.0
 40
0.0104167
 41
0.0104167
  0
VERTEX
  8
0
 10
9.07107
 20
2.79031
 30
0.0
 40
0.0104167
 41
0.0104167
  0
VERTEX
  8
0
 10
9.09754
 20
2.80821
 30
0.0
 40
0.0104167
 41
0.0104167
  0
VERTEX
  8
0
 10
9.12185
 20
2.81472
 30
0.0
 40
0.0104167
 41
0.0104167
  0
VERTEX
  8
0
 10
9.12999
 20
2.81472
 30
0.0
 40
0.0104167
 41
0.0104167
  0
VERTEX
  8
0
 10
9.13807
 20
2.81472
 30
0.0
 40
0.0104167
 41
0.0104167
  0
VERTEX
  8
0
 10
9.16237
 20
2.80821
 30
0.0
 40
0.0104167
 41
0.0104167
  0
VERTEX
  8
0
 10
9.18892
 20
2.79031
 30
0.0
 40
0.0104167
 41
0.0104167
  0
VERTEX
  8
0
 10
9.20676
 20
2.76383
 30
0.0
 40
0.0104167
 41
0.0104167
  0
VERTEX
  8
0
 10
9.21332
 20
2.73953
 30
0.0
 40
0.0104167
 41
0.0104167
  0
VERTEX
  8
0
 10
9.21332
 20
2.73139
 30
0.0
 40
0.0104167
 41
0.0104167
  0
VERTEX
  8
0
 10
9.21332
 20
2.72331
 30
0.0
 40
0.0104167
 41
0.0104167
  0
VERTEX
  8
0
 10
9.20676
 20
2.699
 30
0.0
 40
0.0104167
 41
0.0104167
  0
VERTEX
  8
0
 10
9.18892
 20
2.67247
 30
0.0
 40
0.0104167
 41
0.0104167
  0
VERTEX
  8
0
 10
9.16237
 20
2.65462
 30
0.0
 40
0.0104167
 41
0.0104167
  0
VERTEX
  8
0
 10
9.13807
 20
2.64806
 30
0.0
 40
0.0104167
 41
0.0104167
  0
VERTEX
  8
0
 10
9.12999
 20
2.64806
 30
0.0
 40
0.0104167
 41
0.0104167
  0
VERTEX
  8
0
 10
9.12185
 20
2.64806
 30
0.0
 40
0.0104167
 41
0.0104167
  0
VERTEX
  8
0
 10
9.09754
 20
2.65462
 30
0.0
 40
0.0104167
 41
0.0104167
  0
VERTEX
  8
0
 10
9.07107
 20
2.67247
 30
0.0
 40
0.0104167
 41
0.0104167
  0
VERTEX
  8
0
 10
9.05317
 20
2.699
 30
0.0
 40
0.0104167
 41
0.0104167
  0
VERTEX
  8
0
 10
9.04665
 20
2.72331
 30
0.0
 40
0.0104167
 41
0.0104167
  0
VERTEX
  8
0
 10
9.04665
 20
2.73139
 30
0.0
 40
0.0104167
 41
0.0104167
  0
SEQEND
 8
0
  0
POLYLINE
  8
0
 62
     7
 66
     1
 10
0
 20
0
 30
0.0
 70
     1
 40
0
 41
0
  0
VERTEX
  8
0
 10
8.75499
 20
2.73139
 30
0.0
 40
0
 41
0
  0
VERTEX
  8
0
 10
8.75499
 20
2.73953
 30
0.0
 40
0
 41
0
  0
VERTEX
  8
0
 10
8.7615
 20
2.76383
 30
0.0
 40
0
 41
0
  0
VERTEX
  8
0
 10
8.7794
 20
2.79031
 30
0.0
 40
0
 41
0
  0
VERTEX
  8
0
 10
8.80588
 20
2.80821
 30
0.0
 40
0
 41
0
  0
VERTEX
  8
0
 10
8.83018
 20
2.81472
 30
0.0
 40
0
 41
0
  0
VERTEX
  8
0
 10
8.83832
 20
2.81472
 30
0.0
 40
0
 41
0
  0
VERTEX
  8
0
 10
8.8464
 20
2.81472
 30
0.0
 40
0
 41
0
  0
VERTEX
  8
0
 10
8.87071
 20
2.80821
 30
0.0
 40
0
 41
0
  0
VERTEX
  8
0
 10
8.89725
 20
2.79031
 30
0.0
 40
0
 41
0
  0
VERTEX
  8
0
 10
8.9151
 20
2.76383
 30
0.0
 40
0
 41
0
  0
VERTEX
  8
0
 10
8.92165
 20
2.73953
 30
0.0
 40
0
 41
0
  0
VERTEX
  8
0
 10
8.92165
 20
2.73139
 30
0.0
 40
0
 41
0
  0
VERTEX
  8
0
 10
8.92165
 20
2.72331
 30
0.0
 40
0
 41
0
  0
VERTEX
  8
0
 10
8.9151
 20
2.699
 30
0.0
 40
0
 41
0
  0
VERTEX
  8
0
 10
8.89725
 20
2.67247
 30
0.0
 40
0
 41
0
  0
VERTEX
  8
0
 10
8.87071
 20
2.65462
 30
0.0
 40
0
 41
0
  0
VERTEX
  8
0
 10
8.8464
 20
2.64806
 30
0.0
 40
0
 41
0
  0
VERTEX
  8
0
 10
8.83832
 20
2.64806
 30
0.0
 40
0
 41
0
  0
VERTEX
  8
0
 10
8.83018
 20
2.64806
 30
0.0
 40
0
 41
0
  0
VERTEX
  8
0
 10
8.80588
 20
2.65462
 30
0.0
 40
0
 41
0
  0
VERTEX
  8
0
 10
8.7794
 20
2.67247
 30
0.0
 40
0
 41
0
  0
VERTEX
  8
0
 10
8.7615
 20
2.699
 30
0.0
 40
0
 41
0
  0
VERTEX
  8
0
 10
8.75499
 20
2.72331
 30
0.0
 40
0
 41
0
  0
VERTEX
  8
0
 10
8.75499
 20
2.73139
 30
0.0
 40
0
 41
0
  0
SEQEND
 8
0
  0
POLYLINE
  8
0
 62
     0
 66
     1
 10
0
 20
0
 30
0.0
 70
     1
 40
0.75
 41
0.75
  0
VERTEX
  8
0
 10
8.75499
 20
2.73139
 30
0.0
 40
0.0104167
 41
0.0104167
  0
VERTEX
  8
0
 10
8.75499
 20
2.73953
 30
0.0
 40
0.0104167
 41
0.0104167
  0
VERTEX
  8
0
 10
8.7615
 20
2.76383
 30
0.0
 40
0.0104167
 41
0.0104167
  0
VERTEX
  8
0
 10
8.7794
 20
2.79031
 30
0.0
 40
0.0104167
 41
0.0104167
  0
VERTEX
  8
0
 10
8.80588
 20
2.80821
 30
0.0
 40
0.0104167
 41
0.0104167
  0
VERTEX
  8
0
 10
8.83018
 20
2.81472
 30
0.0
 40
0.0104167
 41
0.0104167
  0
VERTEX
  8
0
 10
8.83832
 20
2.81472
 30
0.0
 40
0.0104167
 41
0.0104167
  0
VERTEX
  8
0
 10
8.8464
 20
2.81472
 30
0.0
 40
0.0104167
 41
0.0104167
  0
VERTEX
  8
0
 10
8.87071
 20
2.80821
 30
0.0
 40
0.0104167
 41
0.0104167
  0
VERTEX
  8
0
 10
8.89725
 20
2.79031
 30
0.0
 40
0.0104167
 41
0.0104167
  0
VERTEX
  8
0
 10
8.9151
 20
2.76383
 30
0.0
 40
0.0104167
 41
0.0104167
  0
VERTEX
  8
0
 10
8.92165
 20
2.73953
 30
0.0
 40
0.0104167
 41
0.0104167
  0
VERTEX
  8
0
 10
8.92165
 20
2.73139
 30
0.0
 40
0.0104167
 41
0.0104167
  0
VERTEX
  8
0
 10
8.92165
 20
2.72331
 30
0.0
 40
0.0104167
 41
0.0104167
  0
VERTEX
  8
0
 10
8.9151
 20
2.699
 30
0.0
 40
0.0104167
 41
0.0104167
  0
VERTEX
  8
0
 10
8.89725
 20
2.67247
 30
0.0
 40
0.0104167
 41
0.0104167
  0
VERTEX
  8
0
 10
8.87071
 20
2.65462
 30
0.0
 40
0.0104167
 41
0.0104167
  0
VERTEX
  8
0
 10
8.8464
 20
2.64806
 30
0.0
 40
0.0104167
 41
0.0104167
  0
VERTEX
  8
0
 10
8.83832
 20
2.64806
 30
0.0
 40
0.0104167
 41
0.0104167
  0
VERTEX
  8
0
 10
8.83018
 20
2.64806
 30
0.0
 40
0.0104167
 41
0.0104167
  0
VERTEX
  8
0
 10
8.80588
 20
2.65462
 30
0.0
 40
0.0104167
 41
0.0104167
  0
VERTEX
  8
0
 10
8.7794
 20
2.67247
 30
0.0
 40
0.0104167
 41
0.0104167
  0
VERTEX
  8
0
 10
8.7615
 20
2.699
 30
0.0
 40
0.0104167
 41
0.0104167
  0
VERTEX
  8
0
 10
8.75499
 20
2.72331
 30
0.0
 40
0.0104167
 41
0.0104167
  0
VERTEX
  8
0
 10
8.75499
 20
2.73139
 30
0.0
 40
0.0104167
 41
0.0104167
  0
SEQEND
 8
0
  0
POLYLINE
  8
0
 62
     0
 66
     1
 10
0
 20
0
 30
0.0
 70
     1
 40
0.75
 41
0.75
  0
VERTEX
  8
0
 10
8.23161
 20
2.55328
 30
0.0
 40
0.0104167
 41
0.0104167
  0
VERTEX
  8
0
 10
10.3295
 20
2.55328
 30
0.0
 40
0.0104167
 41
0.0104167
  0
VERTEX
  8
0
 10
10.3295
 20
2.31413
 30
0.0
 40
0.0104167
 41
0.0104167
  0
VERTEX
  8
0
 10
8.23161
 20
2.31413
 30
0.0
 40
0.0104167
 41
0.0104167
  0
VERTEX
  8
0
 10
8.23161
 20
2.55328
 30
0.0
 40
0.0104167
 41
0.0104167
  0
SEQEND
 8
0
  0
POLYLINE
  8
0
 62
     7
 66
     1
 10
0
 20
0
 30
0.0
 70
     1
 40
0
 41
0
  0
VERTEX
  8
0
 10
9.68033
 20
4.90983
 30
0.0
 40
0
 41
0
  0
VERTEX
  8
0
 10
10.3299
 20
4.90983
 30
0.0
 40
0
 41
0
  0
VERTEX
  8
0
 10
10.3299
 20
4.30583
 30
0.0
 40
0
 41
0
  0
VERTEX
  8
0
 10
9.68033
 20
4.30583
 30
0.0
 40
0
 41
0
  0
VERTEX
  8
0
 10
9.68033
 20
4.90983
 30
0.0
 40
0
 41
0
  0
SEQEND
 8
0
  0
POLYLINE
  8
0
 62
     0
 66
     1
 10
0
 20
0
 30
0.0
 70
     1
 40
0.779475
 41
0.779475
  0
VERTEX
  8
0
 10
9.68033
 20
4.90983
 30
0.0
 40
0.010826
 41
0.010826
  0
VERTEX
  8
0
 10
10.3299
 20
4.90983
 30
0.0
 40
0.010826
 41
0.010826
  0
VERTEX
  8
0
 10
10.3299
 20
4.30583
 30
0.0
 40
0.010826
 41
0.010826
  0
VERTEX
  8
0
 10
9.68033
 20
4.30583
 30
0.0
 40
0.010826
 41
0.010826
  0
VERTEX
  8
0
 10
9.68033
 20
4.90983
 30
0.0
 40
0.010826
 41
0.010826
  0
SEQEND
 8
0
  0
POLYLINE
  8
0
 62
     0
 66
     1
 10
0
 20
0
 30
0.0
 40
0.779475
 41
0.779475
  0
VERTEX
  8
0
 10
9.68033
 20
4.90983
 30
0.0
 40
0.010826
 41
0.010826
  0
VERTEX
  8
0
 10
10.0051
 20
4.53635
 30
0.0
 40
0.010826
 41
0.010826
  0
VERTEX
  8
0
 10
10.0051
 20
4.71756
 30
0.0
 40
0.010826
 41
0.010826
  0
VERTEX
  8
0
 10
10.3299
 20
4.3431
 30
0.0
 40
0.010826
 41
0.010826
  0
SEQEND
 8
0
  0
POLYLINE
  8
0
 62
     7
 66
     1
 10
0
 20
0
 30
0.0
 70
     1
 40
0
 41
0
  0
VERTEX
  8
0
 10
9.68033
 20
4.34608
 30
0.0
 40
0
 41
0
  0
VERTEX
  8
0
 10
10.3299
 20
4.34608
 30
0.0
 40
0
 41
0
  0
VERTEX
  8
0
 10
10.3299
 20
4.30583
 30
0.0
 40
0
 41
0
  0
VERTEX
  8
0
 10
9.68033
 20
4.30583
 30
0.0
 40
0
 41
0
  0
VERTEX
  8
0
 10
9.68033
 20
4.34608
 30
0.0
 40
0
 41
0
  0
SEQEND
 8
0
  0
POLYLINE
  8
0
 62
     0
 66
     1
 10
0
 20
0
 30
0.0
 70
     1
 40
0.779475
 41
0.779475
  0
VERTEX
  8
0
 10
9.68033
 20
4.34608
 30
0.0
 40
0.010826
 41
0.010826
  0
VERTEX
  8
0
 10
10.3299
 20
4.34608
 30
0.0
 40
0.010826
 41
0.010826
  0
VERTEX
  8
0
 10
10.3299
 20
4.30583
 30
0.0
 40
0.010826
 41
0.010826
  0
VERTEX
  8
0
 10
9.68033
 20
4.30583
 30
0.0
 40
0.010826
 41
0.010826
  0
VERTEX
  8
0
 10
9.68033
 20
4.34608
 30
0.0
 40
0.010826
 41
0.010826
  0
SEQEND
 8
0
  0
POLYLINE
  8
0
 62
     7
 66
     1
 10
0
 20
0
 30
0.0
 70
     1
 40
0
 41
0
  0
VERTEX
  8
0
 10
9.03429
 20
4.90935
 30
0.0
 40
0
 41
0
  0
VERTEX
  8
0
 10
9.68033
 20
4.90935
 30
0.0
 40
0
 41
0
  0
VERTEX
  8
0
 10
9.68033
 20
4.30539
 30
0.0
 40
0
 41
0
  0
VERTEX
  8
0
 10
9.03429
 20
4.30539
 30
0.0
 40
0
 41
0
  0
VERTEX
  8
0
 10
9.03429
 20
4.90935
 30
0.0
 40
0
 41
0
  0
SEQEND
 8
0
  0
POLYLINE
  8
0
 62
     0
 66
     1
 10
0
 20
0
 30
0.0
 70
     1
 40
0.775275
 41
0.775275
  0
VERTEX
  8
0
 10
9.03429
 20
4.90935
 30
0.0
 40
0.0107677
 41
0.0107677
  0
VERTEX
  8
0
 10
9.68033
 20
4.90935
 30
0.0
 40
0.0107677
 41
0.0107677
  0
VERTEX
  8
0
 10
9.68033
 20
4.30539
 30
0.0
 40
0.0107677
 41
0.0107677
  0
VERTEX
  8
0
 10
9.03429
 20
4.30539
 30
0.0
 40
0.0107677
 41
0.0107677
  0
VERTEX
  8
0
 10
9.03429
 20
4.90935
 30
0.0
 40
0.0107677
 41
0.0107677
  0
SEQEND
 8
0
  0
POLYLINE
  8
0
 62
     0
 66
     1
 10
0
 20
0
 30
0.0
 40
0.775275
 41
0.775275
  0
VERTEX
  8
0
 10
9.03429
 20
4.90935
 30
0.0
 40
0.0107677
 41
0.0107677
  0
VERTEX
  8
0
 10
9.3584
 20
4.50874
 30
0.0
 40
0.0107677
 41
0.0107677
  0
VERTEX
  8
0
 10
9.3584
 20
4.71408
 30
0.0
 40
0.0107677
 41
0.0107677
  0
VERTEX
  8
0
 10
9.67925
 20
4.30539
 30
0.0
 40
0.0107677
 41
0.0107677
  0
SEQEND
 8
0
  0
POLYLINE
  8
0
 62
     7
 66
     1
 10
0
 20
0
 30
0.0
 70
     1
 40
0
 41
0
  0
VERTEX
  8
0
 10
5.25586
 20
7.72976
 30
0.0
 40
0
 41
0
  0
VERTEX
  8
0
 10
5.69536
 20
7.72976
 30
0.0
 40
0
 41
0
  0
VERTEX
  8
0
 10
5.69536
 20
7.14008
 30
0.0
 40
0
 41
0
  0
VERTEX
  8
0
 10
5.25586
 20
7.14008
 30
0.0
 40
0
 41
0
  0
VERTEX
  8
0
 10
5.25586
 20
7.72976
 30
0.0
 40
0
 41
0
  0
SEQEND
 8
0
  0
POLYLINE
  8
0
 62
     0
 66
     1
 10
0
 20
0
 30
0.0
 70
     1
 40
0.75
 41
0.75
  0
VERTEX
  8
0
 10
5.25586
 20
7.72976
 30
0.0
 40
0.0104167
 41
0.0104167
  0
VERTEX
  8
0
 10
5.25586
 20
7.14008
 30
0.0
 40
0.0104167
 41
0.0104167
  0
VERTEX
  8
0
 10
5.69536
 20
7.14008
 30
0.0
 40
0.0104167
 41
0.0104167
  0
VERTEX
  8
0
 10
5.69536
 20
7.72976
 30
0.0
 40
0.0104167
 41
0.0104167
  0
VERTEX
  8
0
 10
5.25586
 20
7.72976
 30
0.0
 40
0.0104167
 41
0.0104167
  0
SEQEND
 8
0
  0
POLYLINE
  8
0
 62
     7
 66
     1
 10
0
 20
0
 30
0.0
 70
     1
 40
0
 41
0
  0
VERTEX
  8
0
 10
5.47515
 20
7.61708
 30
0.0
 40
0
 41
0
  0
VERTEX
  8
0
 10
5.48454
 20
7.61708
 30
0.0
 40
0
 41
0
  0
VERTEX
  8
0
 10
5.51275
 20
7.61285
 30
0.0
 40
0
 41
0
  0
VERTEX
  8
0
 10
5.54779
 20
7.60069
 30
0.0
 40
0
 41
0
  0
VERTEX
  8
0
 10
5.57954
 20
7.58149
 30
0.0
 40
0
 41
0
  0
VERTEX
  8
0
 10
5.60715
 20
7.55599
 30
0.0
 40
0
 41
0
  0
VERTEX
  8
0
 10
5.62999
 20
7.52513
 30
0.0
 40
0
 41
0
  0
VERTEX
  8
0
 10
5.64719
 20
7.48964
 30
0.0
 40
0
 41
0
  0
VERTEX
  8
0
 10
5.6581
 20
7.45053
 30
0.0
 40
0
 41
0
  0
VERTEX
  8
0
 10
5.66189
 20
7.41894
 30
0.0
 40
0
 41
0
  0
VERTEX
  8
0
 10
5.66189
 20
7.40842
 30
0.0
 40
0
 41
0
  0
VERTEX
  8
0
 10
5.66189
 20
7.39794
 30
0.0
 40
0
 41
0
  0
VERTEX
  8
0
 10
5.6581
 20
7.36638
 30
0.0
 40
0
 41
0
  0
VERTEX
  8
0
 10
5.64719
 20
7.32721
 30
0.0
 40
0
 41
0
  0
VERTEX
  8
0
 10
5.62999
 20
7.29178
 30
0.0
 40
0
 41
0
  0
VERTEX
  8
0
 10
5.60715
 20
7.2609
 30
0.0
 40
0
 41
0
  0
VERTEX
  8
0
 10
5.57954
 20
7.2354
 30
0.0
 40
0
 41
0
  0
VERTEX
  8
0
 10
5.54779
 20
7.21619
 30
0.0
 40
0
 41
0
  0
VERTEX
  8
0
 10
5.51275
 20
7.20404
 30
0.0
 40
0
 41
0
  0
VERTEX
  8
0
 10
5.48454
 20
7.19976
 30
0.0
 40
0
 41
0
  0
VERTEX
  8
0
 10
5.47515
 20
7.19976
 30
0.0
 40
0
 41
0
  0
VERTEX
  8
0
 10
5.46571
 20
7.19976
 30
0.0
 40
0
 41
0
  0
VERTEX
  8
0
 10
5.43744
 20
7.20404
 30
0.0
 40
0
 41
0
  0
VERTEX
  8
0
 10
5.4024
 20
7.21619
 30
0.0
 40
0
 41
0
  0
VERTEX
  8
0
 10
5.37067
 20
7.2354
 30
0.0
 40
0
 41
0
  0
VERTEX
  8
0
 10
5.34304
 20
7.2609
 30
0.0
 40
0
 41
0
  0
VERTEX
  8
0
 10
5.32021
 20
7.29178
 30
0.0
 40
0
 41
0
  0
VERTEX
  8
0
 10
5.303
 20
7.32721
 30
0.0
 40
0
 41
0
  0
VERTEX
  8
0
 10
5.2921
 20
7.36638
 30
0.0
 40
0
 41
0
  0
VERTEX
  8
0
 10
5.28836
 20
7.39794
 30
0.0
 40
0
 41
0
  0
VERTEX
  8
0
 10
5.28836
 20
7.40842
 30
0.0
 40
0
 41
0
  0
VERTEX
  8
0
 10
5.28836
 20
7.41894
 30
0.0
 40
0
 41
0
  0
VERTEX
  8
0
 10
5.2921
 20
7.45053
 30
0.0
 40
0
 41
0
  0
VERTEX
  8
0
 10
5.303
 20
7.48964
 30
0.0
 40
0
 41
0
  0
VERTEX
  8
0
 10
5.32021
 20
7.52513
 30
0.0
 40
0
 41
0
  0
VERTEX
  8
0
 10
5.34304
 20
7.55599
 30
0.0
 40
0
 41
0
  0
VERTEX
  8
0
 10
5.37067
 20
7.58149
 30
0.0
 40
0
 41
0
  0
VERTEX
  8
0
 10
5.4024
 20
7.60069
 30
0.0
 40
0
 41
0
  0
VERTEX
  8
0
 10
5.43744
 20
7.61285
 30
0.0
 40
0
 41
0
  0
VERTEX
  8
0
 10
5.46571
 20
7.61708
 30
0.0
 40
0
 41
0
  0
VERTEX
  8
0
 10
5.47515
 20
7.61708
 30
0.0
 40
0
 41
0
  0
SEQEND
 8
0
  0
POLYLINE
  8
0
 62
     0
 66
     1
 10
0
 20
0
 30
0.0
 70
     1
 40
0.65325
 41
0.65325
  0
VERTEX
  8
0
 10
5.47515
 20
7.61708
 30
0.0
 40
0.00907292
 41
0.00907292
  0
VERTEX
  8
0
 10
5.48454
 20
7.61708
 30
0.0
 40
0.00907292
 41
0.00907292
  0
VERTEX
  8
0
 10
5.51275
 20
7.61285
 30
0.0
 40
0.00907292
 41
0.00907292
  0
VERTEX
  8
0
 10
5.54779
 20
7.60069
 30
0.0
 40
0.00907292
 41
0.00907292
  0
VERTEX
  8
0
 10
5.57954
 20
7.58149
 30
0.0
 40
0.00907292
 41
0.00907292
  0
VERTEX
  8
0
 10
5.60715
 20
7.55599
 30
0.0
 40
0.00907292
 41
0.00907292
  0
VERTEX
  8
0
 10
5.62999
 20
7.52513
 30
0.0
 40
0.00907292
 41
0.00907292
  0
VERTEX
  8
0
 10
5.64719
 20
7.48964
 30
0.0
 40
0.00907292
 41
0.00907292
  0
VERTEX
  8
0
 10
5.6581
 20
7.45053
 30
0.0
 40
0.00907292
 41
0.00907292
  0
VERTEX
  8
0
 10
5.66189
 20
7.41894
 30
0.0
 40
0.00907292
 41
0.00907292
  0
VERTEX
  8
0
 10
5.66189
 20
7.40842
 30
0.0
 40
0.00907292
 41
0.00907292
  0
VERTEX
  8
0
 10
5.66189
 20
7.39794
 30
0.0
 40
0.00907292
 41
0.00907292
  0
VERTEX
  8
0
 10
5.6581
 20
7.36638
 30
0.0
 40
0.00907292
 41
0.00907292
  0
VERTEX
  8
0
 10
5.64719
 20
7.32721
 30
0.0
 40
0.00907292
 41
0.00907292
  0
VERTEX
  8
0
 10
5.62999
 20
7.29178
 30
0.0
 40
0.00907292
 41
0.00907292
  0
VERTEX
  8
0
 10
5.60715
 20
7.2609
 30
0.0
 40
0.00907292
 41
0.00907292
  0
VERTEX
  8
0
 10
5.57954
 20
7.2354
 30
0.0
 40
0.00907292
 41
0.00907292
  0
VERTEX
  8
0
 10
5.54779
 20
7.21619
 30
0.0
 40
0.00907292
 41
0.00907292
  0
VERTEX
  8
0
 10
5.51275
 20
7.20404
 30
0.0
 40
0.00907292
 41
0.00907292
  0
VERTEX
  8
0
 10
5.48454
 20
7.19976
 30
0.0
 40
0.00907292
 41
0.00907292
  0
VERTEX
  8
0
 10
5.47515
 20
7.19976
 30
0.0
 40
0.00907292
 41
0.00907292
  0
VERTEX
  8
0
 10
5.46571
 20
7.19976
 30
0.0
 40
0.00907292
 41
0.00907292
  0
VERTEX
  8
0
 10
5.43744
 20
7.20404
 30
0.0
 40
0.00907292
 41
0.00907292
  0
VERTEX
  8
0
 10
5.4024
 20
7.21619
 30
0.0
 40
0.00907292
 41
0.00907292
  0
VERTEX
  8
0
 10
5.37067
 20
7.2354
 30
0.0
 40
0.00907292
 41
0.00907292
  0
VERTEX
  8
0
 10
5.34304
 20
7.2609
 30
0.0
 40
0.00907292
 41
0.00907292
  0
VERTEX
  8
0
 10
5.32021
 20
7.29178
 30
0.0
 40
0.00907292
 41
0.00907292
  0
VERTEX
  8
0
 10
5.303
 20
7.32721
 30
0.0
 40
0.00907292
 41
0.00907292
  0
VERTEX
  8
0
 10
5.2921
 20
7.36638
 30
0.0
 40
0.00907292
 41
0.00907292
  0
VERTEX
  8
0
 10
5.28836
 20
7.39794
 30
0.0
 40
0.00907292
 41
0.00907292
  0
VERTEX
  8
0
 10
5.28836
 20
7.40842
 30
0.0
 40
0.00907292
 41
0.00907292
  0
VERTEX
  8
0
 10
5.28836
 20
7.41894
 30
0.0
 40
0.00907292
 41
0.00907292
  0
VERTEX
  8
0
 10
5.2921
 20
7.45053
 30
0.0
 40
0.00907292
 41
0.00907292
  0
VERTEX
  8
0
 10
5.303
 20
7.48964
 30
0.0
 40
0.00907292
 41
0.00907292
  0
VERTEX
  8
0
 10
5.32021
 20
7.52513
 30
0.0
 40
0.00907292
 41
0.00907292
  0
VERTEX
  8
0
 10
5.34304
 20
7.55599
 30
0.0
 40
0.00907292
 41
0.00907292
  0
VERTEX
  8
0
 10
5.37067
 20
7.58149
 30
0.0
 40
0.00907292
 41
0.00907292
  0
VERTEX
  8
0
 10
5.4024
 20
7.60069
 30
0.0
 40
0.00907292
 41
0.00907292
  0
VERTEX
  8
0
 10
5.43744
 20
7.61285
 30
0.0
 40
0.00907292
 41
0.00907292
  0
VERTEX
  8
0
 10
5.46571
 20
7.61708
 30
0.0
 40
0.00907292
 41
0.00907292
  0
VERTEX
  8
0
 10
5.47515
 20
7.61708
 30
0.0
 40
0.00907292
 41
0.00907292
  0
SEQEND
 8
0
  0
POLYLINE
  8
0
 62
     7
 66
     1
 10
0
 20
0
 30
0.0
 70
     1
 40
0
 41
0
  0
VERTEX
  8
0
 10
5.47515
 20
7.44015
 30
0.0
 40
0
 41
0
  0
VERTEX
  8
0
 10
5.48014
 20
7.44015
 30
0.0
 40
0
 41
0
  0
VERTEX
  8
0
 10
5.49522
 20
7.43088
 30
0.0
 40
0
 41
0
  0
VERTEX
  8
0
 10
5.50358
 20
7.41407
 30
0.0
 40
0
 41
0
  0
VERTEX
  8
0
 10
5.50358
 20
7.40842
 30
0.0
 40
0
 41
0
  0
VERTEX
  8
0
 10
5.50358
 20
7.40283
 30
0.0
 40
0
 41
0
  0
VERTEX
  8
0
 10
5.49522
 20
7.38601
 30
0.0
 40
0
 41
0
  0
VERTEX
  8
0
 10
5.48014
 20
7.37668
 30
0.0
 40
0
 41
0
  0
VERTEX
  8
0
 10
5.47515
 20
7.37668
 30
0.0
 40
0
 41
0
  0
VERTEX
  8
0
 10
5.47011
 20
7.37668
 30
0.0
 40
0
 41
0
  0
VERTEX
  8
0
 10
5.45503
 20
7.38601
 30
0.0
 40
0
 41
0
  0
VERTEX
  8
0
 10
5.44672
 20
7.40283
 30
0.0
 40
0
 41
0
  0
VERTEX
  8
0
 10
5.44672
 20
7.40842
 30
0.0
 40
0
 41
0
  0
VERTEX
  8
0
 10
5.44672
 20
7.41407
 30
0.0
 40
0
 41
0
  0
VERTEX
  8
0
 10
5.45503
 20
7.43088
 30
0.0
 40
0
 41
0
  0
VERTEX
  8
0
 10
5.47011
 20
7.44015
 30
0.0
 40
0
 41
0
  0
VERTEX
  8
0
 10
5.47515
 20
7.44015
 30
0.0
 40
0
 41
0
  0
SEQEND
 8
0
  0
POLYLINE
  8
0
 62
     0
 66
     1
 10
0
 20
0
 30
0.0
 70
     1
 40
0.65325
 41
0.65325
  0
VERTEX
  8
0
 10
5.47515
 20
7.44015
 30
0.0
 40
0.00907292
 41
0.00907292
  0
VERTEX
  8
0
 10
5.48014
 20
7.44015
 30
0.0
 40
0.00907292
 41
0.00907292
  0
VERTEX
  8
0
 10
5.49522
 20
7.43088
 30
0.0
 40
0.00907292
 41
0.00907292
  0
VERTEX
  8
0
 10
5.50358
 20
7.41407
 30
0.0
 40
0.00907292
 41
0.00907292
  0
VERTEX
  8
0
 10
5.50358
 20
7.40842
 30
0.0
 40
0.00907292
 41
0.00907292
  0
VERTEX
  8
0
 10
5.50358
 20
7.40283
 30
0.0
 40
0.00907292
 41
0.00907292
  0
VERTEX
  8
0
 10
5.49522
 20
7.38601
 30
0.0
 40
0.00907292
 41
0.00907292
  0
VERTEX
  8
0
 10
5.48014
 20
7.37668
 30
0.0
 40
0.00907292
 41
0.00907292
  0
VERTEX
  8
0
 10
5.47515
 20
7.37668
 30
0.0
 40
0.00907292
 41
0.00907292
  0
VERTEX
  8
0
 10
5.47011
 20
7.37668
 30
0.0
 40
0.00907292
 41
0.00907292
  0
VERTEX
  8
0
 10
5.45503
 20
7.38601
 30
0.0
 40
0.00907292
 41
0.00907292
  0
VERTEX
  8
0
 10
5.44672
 20
7.40283
 30
0.0
 40
0.00907292
 41
0.00907292
  0
VERTEX
  8
0
 10
5.44672
 20
7.40842
 30
0.0
 40
0.00907292
 41
0.00907292
  0
VERTEX
  8
0
 10
5.44672
 20
7.41407
 30
0.0
 40
0.00907292
 41
0.00907292
  0
VERTEX
  8
0
 10
5.45503
 20
7.43088
 30
0.0
 40
0.00907292
 41
0.00907292
  0
VERTEX
  8
0
 10
5.47011
 20
7.44015
 30
0.0
 40
0.00907292
 41
0.00907292
  0
VERTEX
  8
0
 10
5.47515
 20
7.44015
 30
0.0
 40
0.00907292
 41
0.00907292
  0
SEQEND
 8
0
  0
POLYLINE
  8
0
 62
     7
 66
     1
 10
0
 20
0
 30
0.0
 70
     1
 40
0
 41
0
  0
VERTEX
  8
0
 10
5.47515
 20
7.42654
 30
0.0
 40
0
 41
0
  0
VERTEX
  8
0
 10
5.47797
 20
7.42654
 30
0.0
 40
0
 41
0
  0
VERTEX
  8
0
 10
5.4866
 20
7.42128
 30
0.0
 40
0
 41
0
  0
VERTEX
  8
0
 10
5.49138
 20
7.41168
 30
0.0
 40
0
 41
0
  0
VERTEX
  8
0
 10
5.49138
 20
7.40842
 30
0.0
 40
0
 41
0
  0
VERTEX
  8
0
 10
5.49138
 20
7.40522
 30
0.0
 40
0
 41
0
  0
VERTEX
  8
0
 10
5.4866
 20
7.39561
 30
0.0
 40
0
 41
0
  0
VERTEX
  8
0
 10
5.47797
 20
7.39025
 30
0.0
 40
0
 41
0
  0
VERTEX
  8
0
 10
5.47515
 20
7.39025
 30
0.0
 40
0
 41
0
  0
VERTEX
  8
0
 10
5.47222
 20
7.39025
 30
0.0
 40
0
 41
0
  0
VERTEX
  8
0
 10
5.4636
 20
7.39561
 30
0.0
 40
0
 41
0
  0
VERTEX
  8
0
 10
5.45888
 20
7.40522
 30
0.0
 40
0
 41
0
  0
VERTEX
  8
0
 10
5.45888
 20
7.40842
 30
0.0
 40
0
 41
0
  0
VERTEX
  8
0
 10
5.45888
 20
7.41168
 30
0.0
 40
0
 41
0
  0
VERTEX
  8
0
 10
5.4636
 20
7.42128
 30
0.0
 40
0
 41
0
  0
VERTEX
  8
0
 10
5.47222
 20
7.42654
 30
0.0
 40
0
 41
0
  0
VERTEX
  8
0
 10
5.47515
 20
7.42654
 30
0.0
 40
0
 41
0
  0
SEQEND
 8
0
  0
POLYLINE
  8
0
 62
     0
 66
     1
 10
0
 20
0
 30
0.0
 70
     1
 40
0.65325
 41
0.65325
  0
VERTEX
  8
0
 10
5.47515
 20
7.42654
 30
0.0
 40
0.00907292
 41
0.00907292
  0
VERTEX
  8
0
 10
5.47797
 20
7.42654
 30
0.0
 40
0.00907292
 41
0.00907292
  0
VERTEX
  8
0
 10
5.4866
 20
7.42128
 30
0.0
 40
0.00907292
 41
0.00907292
  0
VERTEX
  8
0
 10
5.49138
 20
7.41168
 30
0.0
 40
0.00907292
 41
0.00907292
  0
VERTEX
  8
0
 10
5.49138
 20
7.40842
 30
0.0
 40
0.00907292
 41
0.00907292
  0
VERTEX
  8
0
 10
5.49138
 20
7.40522
 30
0.0
 40
0.00907292
 41
0.00907292
  0
VERTEX
  8
0
 10
5.4866
 20
7.39561
 30
0.0
 40
0.00907292
 41
0.00907292
  0
VERTEX
  8
0
 10
5.47797
 20
7.39025
 30
0.0
 40
0.00907292
 41
0.00907292
  0
VERTEX
  8
0
 10
5.47515
 20
7.39025
 30
0.0
 40
0.00907292
 41
0.00907292
  0
VERTEX
  8
0
 10
5.47222
 20
7.39025
 30
0.0
 40
0.00907292
 41
0.00907292
  0
VERTEX
  8
0
 10
5.4636
 20
7.39561
 30
0.0
 40
0.00907292
 41
0.00907292
  0
VERTEX
  8
0
 10
5.45888
 20
7.40522
 30
0.0
 40
0.00907292
 41
0.00907292
  0
VERTEX
  8
0
 10
5.45888
 20
7.40842
 30
0.0
 40
0.00907292
 41
0.00907292
  0
VERTEX
  8
0
 10
5.45888
 20
7.41168
 30
0.0
 40
0.00907292
 41
0.00907292
  0
VERTEX
  8
0
 10
5.4636
 20
7.42128
 30
0.0
 40
0.00907292
 41
0.00907292
  0
VERTEX
  8
0
 10
5.47222
 20
7.42654
 30
0.0
 40
0.00907292
 41
0.00907292
  0
VERTEX
  8
0
 10
5.47515
 20
7.42654
 30
0.0
 40
0.00907292
 41
0.00907292
  0
SEQEND
 8
0
  0
POLYLINE
  8
0
 62
     7
 66
     1
 10
0
 20
0
 30
0.0
 70
     1
 40
0
 41
0
  0
VERTEX
  8
0
 10
5.25586
 20
7.43565
 30
0.0
 40
0
 41
0
  0
VERTEX
  8
0
 10
5.36957
 20
7.43565
 30
0.0
 40
0
 41
0
  0
VERTEX
  8
0
 10
5.36957
 20
7.38118
 30
0.0
 40
0
 41
0
  0
VERTEX
  8
0
 10
5.25586
 20
7.38118
 30
0.0
 40
0
 41
0
  0
VERTEX
  8
0
 10
5.25586
 20
7.43565
 30
0.0
 40
0
 41
0
  0
SEQEND
 8
0
  0
POLYLINE
  8
0
 62
     0
 66
     1
 10
0
 20
0
 30
0.0
 70
     1
 40
0.65325
 41
0.65325
  0
VERTEX
  8
0
 10
5.25586
 20
7.43565
 30
0.0
 40
0.00907292
 41
0.00907292
  0
VERTEX
  8
0
 10
5.25586
 20
7.38118
 30
0.0
 40
0.00907292
 41
0.00907292
  0
VERTEX
  8
0
 10
5.36957
 20
7.38118
 30
0.0
 40
0.00907292
 41
0.00907292
  0
VERTEX
  8
0
 10
5.36957
 20
7.43565
 30
0.0
 40
0.00907292
 41
0.00907292
  0
VERTEX
  8
0
 10
5.25586
 20
7.43565
 30
0.0
 40
0.00907292
 41
0.00907292
  0
SEQEND
 8
0
  0
POLYLINE
  8
0
 62
     0
 66
     1
 10
0
 20
0
 30
0.0
 70
     1
 40
0.75
 41
0.75
  0
VERTEX
  8
0
 10
5.25586
 20
7.76503
 30
0.0
 40
0.0104167
 41
0.0104167
  0
VERTEX
  8
0
 10
5.25586
 20
7.10471
 30
0.0
 40
0.0104167
 41
0.0104167
  0
VERTEX
  8
0
 10
5.51535
 20
7.10471
 30
0.0
 40
0.0104167
 41
0.0104167
  0
VERTEX
  8
0
 10
5.51535
 20
7.76503
 30
0.0
 40
0.0104167
 41
0.0104167
  0
VERTEX
  8
0
 10
5.25586
 20
7.76503
 30
0.0
 40
0.0104167
 41
0.0104167
  0
SEQEND
 8
0
  0
POLYLINE
  8
0
 62
     7
 66
     1
 10
0
 20
0
 30
0.0
 70
     1
 40
0
 41
0
  0
VERTEX
  8
0
 10
6.7596
 20
8.49278
 30
0.0
 40
0
 41
0
  0
VERTEX
  8
0
 10
6.78564
 20
8.49278
 30
0.0
 40
0
 41
0
  0
VERTEX
  8
0
 10
6.78564
 20
7.96994
 30
0.0
 40
0
 41
0
  0
VERTEX
  8
0
 10
6.7596
 20
7.96994
 30
0.0
 40
0
 41
0
  0
VERTEX
  8
0
 10
6.7596
 20
8.49278
 30
0.0
 40
0
 41
0
  0
SEQEND
 8
0
  0
POLYLINE
  8
0
 62
     0
 66
     1
 10
0
 20
0
 30
0.0
 70
     1
 40
0.75
 41
0.75
  0
VERTEX
  8
0
 10
6.7596
 20
8.49278
 30
0.0
 40
0.0104167
 41
0.0104167
  0
VERTEX
  8
0
 10
6.78564
 20
8.49278
 30
0.0
 40
0.0104167
 41
0.0104167
  0
VERTEX
  8
0
 10
6.78564
 20
7.96994
 30
0.0
 40
0.0104167
 41
0.0104167
  0
VERTEX
  8
0
 10
6.7596
 20
7.96994
 30
0.0
 40
0.0104167
 41
0.0104167
  0
VERTEX
  8
0
 10
6.7596
 20
8.49278
 30
0.0
 40
0.0104167
 41
0.0104167
  0
SEQEND
 8
0
  0
POLYLINE
  8
0
 62
     7
 66
     1
 10
0
 20
0
 30
0.0
 70
     1
 40
0
 41
0
  0
VERTEX
  8
0
 10
6.7596
 20
8.49278
 30
0.0
 40
0
 41
0
  0
VERTEX
  8
0
 10
6.78564
 20
8.49278
 30
0.0
 40
0
 41
0
  0
VERTEX
  8
0
 10
6.78564
 20
7.96994
 30
0.0
 40
0
 41
0
  0
VERTEX
  8
0
 10
6.7596
 20
7.96994
 30
0.0
 40
0
 41
0
  0
VERTEX
  8
0
 10
6.7596
 20
8.49278
 30
0.0
 40
0
 41
0
  0
SEQEND
 8
0
  0
POLYLINE
  8
0
 62
     0
 66
     1
 10
0
 20
0
 30
0.0
 70
     1
 40
0.75
 41
0.75
  0
VERTEX
  8
0
 10
6.7596
 20
8.49278
 30
0.0
 40
0.0104167
 41
0.0104167
  0
VERTEX
  8
0
 10
6.78564
 20
8.49278
 30
0.0
 40
0.0104167
 41
0.0104167
  0
VERTEX
  8
0
 10
6.78564
 20
7.96994
 30
0.0
 40
0.0104167
 41
0.0104167
  0
VERTEX
  8
0
 10
6.7596
 20
7.96994
 30
0.0
 40
0.0104167
 41
0.0104167
  0
VERTEX
  8
0
 10
6.7596
 20
8.49278
 30
0.0
 40
0.0104167
 41
0.0104167
  0
SEQEND
 8
0
  0
POLYLINE
  8
0
 62
     7
 66
     1
 10
0
 20
0
 30
0.0
 70
     1
 40
0
 41
0
  0
VERTEX
  8
0
 10
7.22993
 20
7.49789
 30
0.0
 40
0
 41
0
  0
VERTEX
  8
0
 10
7.71625
 20
7.49789
 30
0.0
 40
0
 41
0
  0
VERTEX
  8
0
 10
7.71625
 20
7.47185
 30
0.0
 40
0
 41
0
  0
VERTEX
  8
0
 10
7.22993
 20
7.47185
 30
0.0
 40
0
 41
0
  0
VERTEX
  8
0
 10
7.22993
 20
7.49789
 30
0.0
 40
0
 41
0
  0
SEQEND
 8
0
  0
POLYLINE
  8
0
 62
     0
 66
     1
 10
0
 20
0
 30
0.0
 70
     1
 40
0.75
 41
0.75
  0
VERTEX
  8
0
 10
7.22993
 20
7.49789
 30
0.0
 40
0.0104167
 41
0.0104167
  0
VERTEX
  8
0
 10
7.22993
 20
7.47185
 30
0.0
 40
0.0104167
 41
0.0104167
  0
VERTEX
  8
0
 10
7.71625
 20
7.47185
 30
0.0
 40
0.0104167
 41
0.0104167
  0
VERTEX
  8
0
 10
7.71625
 20
7.49789
 30
0.0
 40
0.0104167
 41
0.0104167
  0
VERTEX
  8
0
 10
7.22993
 20
7.49789
 30
0.0
 40
0.0104167
 41
0.0104167
  0
SEQEND
 8
0
  0
POLYLINE
  8
0
 62
     7
 66
     1
 10
0
 20
0
 30
0.0
 70
     1
 40
0
 41
0
  0
VERTEX
  8
0
 10
7.22993
 20
7.49789
 30
0.0
 40
0
 41
0
  0
VERTEX
  8
0
 10
7.71625
 20
7.49789
 30
0.0
 40
0
 41
0
  0
VERTEX
  8
0
 10
7.71625
 20
7.47185
 30
0.0
 40
0
 41
0
  0
VERTEX
  8
0
 10
7.22993
 20
7.47185
 30
0.0
 40
0
 41
0
  0
VERTEX
  8
0
 10
7.22993
 20
7.49789
 30
0.0
 40
0
 41
0
  0
SEQEND
 8
0
  0
POLYLINE
  8
0
 62
     0
 66
     1
 10
0
 20
0
 30
0.0
 70
     1
 40
0.75
 41
0.75
  0
VERTEX
  8
0
 10
7.22993
 20
7.49789
 30
0.0
 40
0.0104167
 41
0.0104167
  0
VERTEX
  8
0
 10
7.22993
 20
7.47185
 30
0.0
 40
0.0104167
 41
0.0104167
  0
VERTEX
  8
0
 10
7.71625
 20
7.47185
 30
0.0
 40
0.0104167
 41
0.0104167
  0
VERTEX
  8
0
 10
7.71625
 20
7.49789
 30
0.0
 40
0.0104167
 41
0.0104167
  0
VERTEX
  8
0
 10
7.22993
 20
7.49789
 30
0.0
 40
0.0104167
 41
0.0104167
  0
SEQEND
 8
0
  0
POLYLINE
  8
0
 62
     7
 66
     1
 10
0
 20
0
 30
0.0
 70
     1
 40
0
 41
0
  0
VERTEX
  8
0
 10
6.7596
 20
7.98264
 30
0.0
 40
0
 41
0
  0
VERTEX
  8
0
 10
6.77892
 20
8.00006
 30
0.0
 40
0
 41
0
  0
VERTEX
  8
0
 10
7.23779
 20
7.49046
 30
0.0
 40
0
 41
0
  0
VERTEX
  8
0
 10
7.21847
 20
7.47299
 30
0.0
 40
0
 41
0
  0
VERTEX
  8
0
 10
6.7596
 20
7.98264
 30
0.0
 40
0
 41
0
  0
SEQEND
 8
0
  0
POLYLINE
  8
0
 62
     0
 66
     1
 10
0
 20
0
 30
0.0
 70
     1
 40
0.74996
 41
0.74996
  0
VERTEX
  8
0
 10
6.7596
 20
7.98264
 30
0.0
 40
0.0104161
 41
0.0104161
  0
VERTEX
  8
0
 10
6.77892
 20
8.00006
 30
0.0
 40
0.0104161
 41
0.0104161
  0
VERTEX
  8
0
 10
7.23779
 20
7.49046
 30
0.0
 40
0.0104161
 41
0.0104161
  0
VERTEX
  8
0
 10
7.21847
 20
7.47299
 30
0.0
 40
0.0104161
 41
0.0104161
  0
VERTEX
  8
0
 10
6.7596
 20
7.98264
 30
0.0
 40
0.0104161
 41
0.0104161
  0
SEQEND
 8
0
  0
POLYLINE
  8
0
 62
     7
 66
     1
 10
0
 20
0
 30
0.0
 70
     1
 40
0
 41
0
  0
VERTEX
  8
0
 10
6.7596
 20
7.98264
 30
0.0
 40
0
 41
0
  0
VERTEX
  8
0
 10
6.77892
 20
8.00006
 30
0.0
 40
0
 41
0
  0
VERTEX
  8
0
 10
7.23779
 20
7.49046
 30
0.0
 40
0
 41
0
  0
VERTEX
  8
0
 10
7.21847
 20
7.47299
 30
0.0
 40
0
 41
0
  0
VERTEX
  8
0
 10
6.7596
 20
7.98264
 30
0.0
 40
0
 41
0
  0
SEQEND
 8
0
  0
POLYLINE
  8
0
 62
     0
 66
     1
 10
0
 20
0
 30
0.0
 70
     1
 40
0.74996
 41
0.74996
  0
VERTEX
  8
0
 10
6.7596
 20
7.98264
 30
0.0
 40
0.0104161
 41
0.0104161
  0
VERTEX
  8
0
 10
6.77892
 20
8.00006
 30
0.0
 40
0.0104161
 41
0.0104161
  0
VERTEX
  8
0
 10
7.23779
 20
7.49046
 30
0.0
 40
0.0104161
 41
0.0104161
  0
VERTEX
  8
0
 10
7.21847
 20
7.47299
 30
0.0
 40
0.0104161
 41
0.0104161
  0
VERTEX
  8
0
 10
6.7596
 20
7.98264
 30
0.0
 40
0.0104161
 41
0.0104161
  0
SEQEND
 8
0
  0
POLYLINE
  8
0
 62
     7
 66
     1
 10
0
 20
0
 30
0.0
 70
     1
 40
0
 41
0
  0
VERTEX
  8
0
 10
6.21072
 20
3.42344
 30
0.0
 40
0
 41
0
  0
VERTEX
  8
0
 10
6.83572
 20
3.42344
 30
0.0
 40
0
 41
0
  0
VERTEX
  8
0
 10
6.83572
 20
2.99696
 30
0.0
 40
0
 41
0
  0
VERTEX
  8
0
 10
6.21072
 20
2.99696
 30
0.0
 40
0
 41
0
  0
VERTEX
  8
0
 10
6.21072
 20
3.42344
 30
0.0
 40
0
 41
0
  0
SEQEND
 8
0
  0
POLYLINE
  8
0
 62
     0
 66
     1
 10
0
 20
0
 30
0.0
 70
     1
 40
0.75
 41
0.75
  0
VERTEX
  8
0
 10
6.21072
 20
3.42344
 30
0.0
 40
0.0104167
 41
0.0104167
  0
VERTEX
  8
0
 10
6.83572
 20
3.42344
 30
0.0
 40
0.0104167
 41
0.0104167
  0
VERTEX
  8
0
 10
6.83572
 20
2.99696
 30
0.0
 40
0.0104167
 41
0.0104167
  0
VERTEX
  8
0
 10
6.21072
 20
2.99696
 30
0.0
 40
0.0104167
 41
0.0104167
  0
VERTEX
  8
0
 10
6.21072
 20
3.42344
 30
0.0
 40
0.0104167
 41
0.0104167
  0
SEQEND
 8
0
  0
POLYLINE
  8
0
 62
     7
 66
     1
 10
0
 20
0
 30
0.0
 70
     1
 40
0
 41
0
  0
VERTEX
  8
0
 10
6.72738
 20
3.21386
 30
0.0
 40
0
 41
0
  0
VERTEX
  8
0
 10
6.72738
 20
3.20492
 30
0.0
 40
0
 41
0
  0
VERTEX
  8
0
 10
6.72342
 20
3.1779
 30
0.0
 40
0
 41
0
  0
VERTEX
  8
0
 10
6.71208
 20
3.14438
 30
0.0
 40
0
 41
0
  0
VERTEX
  8
0
 10
6.69417
 20
3.11404
 30
0.0
 40
0
 41
0
  0
VERTEX
  8
0
 10
6.67042
 20
3.08763
 30
0.0
 40
0
 41
0
  0
VERTEX
  8
0
 10
6.64165
 20
3.06581
 30
0.0
 40
0
 41
0
  0
VERTEX
  8
0
 10
6.60867
 20
3.04937
 30
0.0
 40
0
 41
0
  0
VERTEX
  8
0
 10
6.57215
 20
3.03896
 30
0.0
 40
0
 41
0
  0
VERTEX
  8
0
 10
6.54281
 20
3.03532
 30
0.0
 40
0
 41
0
  0
VERTEX
  8
0
 10
6.53304
 20
3.03532
 30
0.0
 40
0
 41
0
  0
VERTEX
  8
0
 10
6.52322
 20
3.03532
 30
0.0
 40
0
 41
0
  0
VERTEX
  8
0
 10
6.49382
 20
3.03896
 30
0.0
 40
0
 41
0
  0
VERTEX
  8
0
 10
6.45736
 20
3.04937
 30
0.0
 40
0
 41
0
  0
VERTEX
  8
0
 10
6.42432
 20
3.06581
 30
0.0
 40
0
 41
0
  0
VERTEX
  8
0
 10
6.39556
 20
3.08763
 30
0.0
 40
0
 41
0
  0
VERTEX
  8
0
 10
6.37181
 20
3.11404
 30
0.0
 40
0
 41
0
  0
VERTEX
  8
0
 10
6.35389
 20
3.14438
 30
0.0
 40
0
 41
0
  0
VERTEX
  8
0
 10
6.34256
 20
3.1779
 30
0.0
 40
0
 41
0
  0
VERTEX
  8
0
 10
6.33865
 20
3.20492
 30
0.0
 40
0
 41
0
  0
VERTEX
  8
0
 10
6.33865
 20
3.21386
 30
0.0
 40
0
 41
0
  0
VERTEX
  8
0
 10
6.33865
 20
3.22287
 30
0.0
 40
0
 41
0
  0
VERTEX
  8
0
 10
6.34256
 20
3.24989
 30
0.0
 40
0
 41
0
  0
VERTEX
  8
0
 10
6.35389
 20
3.28336
 30
0.0
 40
0
 41
0
  0
VERTEX
  8
0
 10
6.37181
 20
3.31369
 30
0.0
 40
0
 41
0
  0
VERTEX
  8
0
 10
6.39556
 20
3.34011
 30
0.0
 40
0
 41
0
  0
VERTEX
  8
0
 10
6.42432
 20
3.36193
 30
0.0
 40
0
 41
0
  0
VERTEX
  8
0
 10
6.45736
 20
3.37836
 30
0.0
 40
0
 41
0
  0
VERTEX
  8
0
 10
6.49382
 20
3.38878
 30
0.0
 40
0
 41
0
  0
VERTEX
  8
0
 10
6.52322
 20
3.39236
 30
0.0
 40
0
 41
0
  0
VERTEX
  8
0
 10
6.53304
 20
3.39236
 30
0.0
 40
0
 41
0
  0
VERTEX
  8
0
 10
6.54281
 20
3.39236
 30
0.0
 40
0
 41
0
  0
VERTEX
  8
0
 10
6.57215
 20
3.38878
 30
0.0
 40
0
 41
0
  0
VERTEX
  8
0
 10
6.60867
 20
3.37836
 30
0.0
 40
0
 41
0
  0
VERTEX
  8
0
 10
6.64165
 20
3.36193
 30
0.0
 40
0
 41
0
  0
VERTEX
  8
0
 10
6.67042
 20
3.34011
 30
0.0
 40
0
 41
0
  0
VERTEX
  8
0
 10
6.69417
 20
3.31369
 30
0.0
 40
0
 41
0
  0
VERTEX
  8
0
 10
6.71208
 20
3.28336
 30
0.0
 40
0
 41
0
  0
VERTEX
  8
0
 10
6.72342
 20
3.24989
 30
0.0
 40
0
 41
0
  0
VERTEX
  8
0
 10
6.72738
 20
3.22287
 30
0.0
 40
0
 41
0
  0
VERTEX
  8
0
 10
6.72738
 20
3.21386
 30
0.0
 40
0
 41
0
  0
SEQEND
 8
0
  0
POLYLINE
  8
0
 62
     0
 66
     1
 10
0
 20
0
 30
0.0
 70
     1
 40
0.6084
 41
0.6084
  0
VERTEX
  8
0
 10
6.72738
 20
3.21386
 30
0.0
 40
0.00845
 41
0.00845
  0
VERTEX
  8
0
 10
6.72738
 20
3.20492
 30
0.0
 40
0.00845
 41
0.00845
  0
VERTEX
  8
0
 10
6.72342
 20
3.1779
 30
0.0
 40
0.00845
 41
0.00845
  0
VERTEX
  8
0
 10
6.71208
 20
3.14438
 30
0.0
 40
0.00845
 41
0.00845
  0
VERTEX
  8
0
 10
6.69417
 20
3.11404
 30
0.0
 40
0.00845
 41
0.00845
  0
VERTEX
  8
0
 10
6.67042
 20
3.08763
 30
0.0
 40
0.00845
 41
0.00845
  0
VERTEX
  8
0
 10
6.64165
 20
3.06581
 30
0.0
 40
0.00845
 41
0.00845
  0
VERTEX
  8
0
 10
6.60867
 20
3.04937
 30
0.0
 40
0.00845
 41
0.00845
  0
VERTEX
  8
0
 10
6.57215
 20
3.03896
 30
0.0
 40
0.00845
 41
0.00845
  0
VERTEX
  8
0
 10
6.54281
 20
3.03532
 30
0.0
 40
0.00845
 41
0.00845
  0
VERTEX
  8
0
 10
6.53304
 20
3.03532
 30
0.0
 40
0.00845
 41
0.00845
  0
VERTEX
  8
0
 10
6.52322
 20
3.03532
 30
0.0
 40
0.00845
 41
0.00845
  0
VERTEX
  8
0
 10
6.49382
 20
3.03896
 30
0.0
 40
0.00845
 41
0.00845
  0
VERTEX
  8
0
 10
6.45736
 20
3.04937
 30
0.0
 40
0.00845
 41
0.00845
  0
VERTEX
  8
0
 10
6.42432
 20
3.06581
 30
0.0
 40
0.00845
 41
0.00845
  0
VERTEX
  8
0
 10
6.39556
 20
3.08763
 30
0.0
 40
0.00845
 41
0.00845
  0
VERTEX
  8
0
 10
6.37181
 20
3.11404
 30
0.0
 40
0.00845
 41
0.00845
  0
VERTEX
  8
0
 10
6.35389
 20
3.14438
 30
0.0
 40
0.00845
 41
0.00845
  0
VERTEX
  8
0
 10
6.34256
 20
3.1779
 30
0.0
 40
0.00845
 41
0.00845
  0
VERTEX
  8
0
 10
6.33865
 20
3.20492
 30
0.0
 40
0.00845
 41
0.00845
  0
VERTEX
  8
0
 10
6.33865
 20
3.21386
 30
0.0
 40
0.00845
 41
0.00845
  0
VERTEX
  8
0
 10
6.33865
 20
3.22287
 30
0.0
 40
0.00845
 41
0.00845
  0
VERTEX
  8
0
 10
6.34256
 20
3.24989
 30
0.0
 40
0.00845
 41
0.00845
  0
VERTEX
  8
0
 10
6.35389
 20
3.28336
 30
0.0
 40
0.00845
 41
0.00845
  0
VERTEX
  8
0
 10
6.37181
 20
3.31369
 30
0.0
 40
0.00845
 41
0.00845
  0
VERTEX
  8
0
 10
6.39556
 20
3.34011
 30
0.0
 40
0.00845
 41
0.00845
  0
VERTEX
  8
0
 10
6.42432
 20
3.36193
 30
0.0
 40
0.00845
 41
0.00845
  0
VERTEX
  8
0
 10
6.45736
 20
3.37836
 30
0.0
 40
0.00845
 41
0.00845
  0
VERTEX
  8
0
 10
6.49382
 20
3.38878
 30
0.0
 40
0.00845
 41
0.00845
  0
VERTEX
  8
0
 10
6.52322
 20
3.39236
 30
0.0
 40
0.00845
 41
0.00845
  0
VERTEX
  8
0
 10
6.53304
 20
3.39236
 30
0.0
 40
0.00845
 41
0.00845
  0
VERTEX
  8
0
 10
6.54281
 20
3.39236
 30
0.0
 40
0.00845
 41
0.00845
  0
VERTEX
  8
0
 10
6.57215
 20
3.38878
 30
0.0
 40
0.00845
 41
0.00845
  0
VERTEX
  8
0
 10
6.60867
 20
3.37836
 30
0.0
 40
0.00845
 41
0.00845
  0
VERTEX
  8
0
 10
6.64165
 20
3.36193
 30
0.0
 40
0.00845
 41
0.00845
  0
VERTEX
  8
0
 10
6.67042
 20
3.34011
 30
0.0
 40
0.00845
 41
0.00845
  0
VERTEX
  8
0
 10
6.69417
 20
3.31369
 30
0.0
 40
0.00845
 41
0.00845
  0
VERTEX
  8
0
 10
6.71208
 20
3.28336
 30
0.0
 40
0.00845
 41
0.00845
  0
VERTEX
  8
0
 10
6.72342
 20
3.24989
 30
0.0
 40
0.00845
 41
0.00845
  0
VERTEX
  8
0
 10
6.72738
 20
3.22287
 30
0.0
 40
0.00845
 41
0.00845
  0
VERTEX
  8
0
 10
6.72738
 20
3.21386
 30
0.0
 40
0.00845
 41
0.00845
  0
SEQEND
 8
0
  0
POLYLINE
  8
0
 62
     7
 66
     1
 10
0
 20
0
 30
0.0
 70
     1
 40
0
 41
0
  0
VERTEX
  8
0
 10
6.56261
 20
3.21386
 30
0.0
 40
0
 41
0
  0
VERTEX
  8
0
 10
6.56261
 20
3.2091
 30
0.0
 40
0
 41
0
  0
VERTEX
  8
0
 10
6.55393
 20
3.19467
 30
0.0
 40
0
 41
0
  0
VERTEX
  8
0
 10
6.53825
 20
3.18668
 30
0.0
 40
0
 41
0
  0
VERTEX
  8
0
 10
6.53304
 20
3.18668
 30
0.0
 40
0
 41
0
  0
VERTEX
  8
0
 10
6.52778
 20
3.18668
 30
0.0
 40
0
 41
0
  0
VERTEX
  8
0
 10
6.51204
 20
3.19467
 30
0.0
 40
0
 41
0
  0
VERTEX
  8
0
 10
6.50342
 20
3.2091
 30
0.0
 40
0
 41
0
  0
VERTEX
  8
0
 10
6.50342
 20
3.21386
 30
0.0
 40
0
 41
0
  0
VERTEX
  8
0
 10
6.50342
 20
3.21869
 30
0.0
 40
0
 41
0
  0
VERTEX
  8
0
 10
6.51204
 20
3.23307
 30
0.0
 40
0
 41
0
  0
VERTEX
  8
0
 10
6.52778
 20
3.241
 30
0.0
 40
0
 41
0
  0
VERTEX
  8
0
 10
6.53304
 20
3.241
 30
0.0
 40
0
 41
0
  0
VERTEX
  8
0
 10
6.53825
 20
3.241
 30
0.0
 40
0
 41
0
  0
VERTEX
  8
0
 10
6.55393
 20
3.23307
 30
0.0
 40
0
 41
0
  0
VERTEX
  8
0
 10
6.56261
 20
3.21869
 30
0.0
 40
0
 41
0
  0
VERTEX
  8
0
 10
6.56261
 20
3.21386
 30
0.0
 40
0
 41
0
  0
SEQEND
 8
0
  0
POLYLINE
  8
0
 62
     0
 66
     1
 10
0
 20
0
 30
0.0
 70
     1
 40
0.6084
 41
0.6084
  0
VERTEX
  8
0
 10
6.56261
 20
3.21386
 30
0.0
 40
0.00845
 41
0.00845
  0
VERTEX
  8
0
 10
6.56261
 20
3.2091
 30
0.0
 40
0.00845
 41
0.00845
  0
VERTEX
  8
0
 10
6.55393
 20
3.19467
 30
0.0
 40
0.00845
 41
0.00845
  0
VERTEX
  8
0
 10
6.53825
 20
3.18668
 30
0.0
 40
0.00845
 41
0.00845
  0
VERTEX
  8
0
 10
6.53304
 20
3.18668
 30
0.0
 40
0.00845
 41
0.00845
  0
VERTEX
  8
0
 10
6.52778
 20
3.18668
 30
0.0
 40
0.00845
 41
0.00845
  0
VERTEX
  8
0
 10
6.51204
 20
3.19467
 30
0.0
 40
0.00845
 41
0.00845
  0
VERTEX
  8
0
 10
6.50342
 20
3.2091
 30
0.0
 40
0.00845
 41
0.00845
  0
VERTEX
  8
0
 10
6.50342
 20
3.21386
 30
0.0
 40
0.00845
 41
0.00845
  0
VERTEX
  8
0
 10
6.50342
 20
3.21869
 30
0.0
 40
0.00845
 41
0.00845
  0
VERTEX
  8
0
 10
6.51204
 20
3.23307
 30
0.0
 40
0.00845
 41
0.00845
  0
VERTEX
  8
0
 10
6.52778
 20
3.241
 30
0.0
 40
0.00845
 41
0.00845
  0
VERTEX
  8
0
 10
6.53304
 20
3.241
 30
0.0
 40
0.00845
 41
0.00845
  0
VERTEX
  8
0
 10
6.53825
 20
3.241
 30
0.0
 40
0.00845
 41
0.00845
  0
VERTEX
  8
0
 10
6.55393
 20
3.23307
 30
0.0
 40
0.00845
 41
0.00845
  0
VERTEX
  8
0
 10
6.56261
 20
3.21869
 30
0.0
 40
0.00845
 41
0.00845
  0
VERTEX
  8
0
 10
6.56261
 20
3.21386
 30
0.0
 40
0.00845
 41
0.00845
  0
SEQEND
 8
0
  0
POLYLINE
  8
0
 62
     7
 66
     1
 10
0
 20
0
 30
0.0
 70
     1
 40
0
 41
0
  0
VERTEX
  8
0
 10
6.54992
 20
3.21386
 30
0.0
 40
0
 41
0
  0
VERTEX
  8
0
 10
6.54992
 20
3.21115
 30
0.0
 40
0
 41
0
  0
VERTEX
  8
0
 10
6.54497
 20
3.20285
 30
0.0
 40
0
 41
0
  0
VERTEX
  8
0
 10
6.53603
 20
3.19829
 30
0.0
 40
0
 41
0
  0
VERTEX
  8
0
 10
6.53304
 20
3.19829
 30
0.0
 40
0
 41
0
  0
VERTEX
  8
0
 10
6.53
 20
3.19829
 30
0.0
 40
0
 41
0
  0
VERTEX
  8
0
 10
6.52106
 20
3.20285
 30
0.0
 40
0
 41
0
  0
VERTEX
  8
0
 10
6.51611
 20
3.21115
 30
0.0
 40
0
 41
0
  0
VERTEX
  8
0
 10
6.51611
 20
3.21386
 30
0.0
 40
0
 41
0
  0
VERTEX
  8
0
 10
6.51611
 20
3.21664
 30
0.0
 40
0
 41
0
  0
VERTEX
  8
0
 10
6.52106
 20
3.22487
 30
0.0
 40
0
 41
0
  0
VERTEX
  8
0
 10
6.53
 20
3.22939
 30
0.0
 40
0
 41
0
  0
VERTEX
  8
0
 10
6.53304
 20
3.22939
 30
0.0
 40
0
 41
0
  0
VERTEX
  8
0
 10
6.53603
 20
3.22939
 30
0.0
 40
0
 41
0
  0
VERTEX
  8
0
 10
6.54497
 20
3.22487
 30
0.0
 40
0
 41
0
  0
VERTEX
  8
0
 10
6.54992
 20
3.21664
 30
0.0
 40
0
 41
0
  0
VERTEX
  8
0
 10
6.54992
 20
3.21386
 30
0.0
 40
0
 41
0
  0
SEQEND
 8
0
  0
POLYLINE
  8
0
 62
     0
 66
     1
 10
0
 20
0
 30
0.0
 70
     1
 40
0.6084
 41
0.6084
  0
VERTEX
  8
0
 10
6.54992
 20
3.21386
 30
0.0
 40
0.00845
 41
0.00845
  0
VERTEX
  8
0
 10
6.54992
 20
3.21115
 30
0.0
 40
0.00845
 41
0.00845
  0
VERTEX
  8
0
 10
6.54497
 20
3.20285
 30
0.0
 40
0.00845
 41
0.00845
  0
VERTEX
  8
0
 10
6.53603
 20
3.19829
 30
0.0
 40
0.00845
 41
0.00845
  0
VERTEX
  8
0
 10
6.53304
 20
3.19829
 30
0.0
 40
0.00845
 41
0.00845
  0
VERTEX
  8
0
 10
6.53
 20
3.19829
 30
0.0
 40
0.00845
 41
0.00845
  0
VERTEX
  8
0
 10
6.52106
 20
3.20285
 30
0.0
 40
0.00845
 41
0.00845
  0
VERTEX
  8
0
 10
6.51611
 20
3.21115
 30
0.0
 40
0.00845
 41
0.00845
  0
VERTEX
  8
0
 10
6.51611
 20
3.21386
 30
0.0
 40
0.00845
 41
0.00845
  0
VERTEX
  8
0
 10
6.51611
 20
3.21664
 30
0.0
 40
0.00845
 41
0.00845
  0
VERTEX
  8
0
 10
6.52106
 20
3.22487
 30
0.0
 40
0.00845
 41
0.00845
  0
VERTEX
  8
0
 10
6.53
 20
3.22939
 30
0.0
 40
0.00845
 41
0.00845
  0
VERTEX
  8
0
 10
6.53304
 20
3.22939
 30
0.0
 40
0.00845
 41
0.00845
  0
VERTEX
  8
0
 10
6.53603
 20
3.22939
 30
0.0
 40
0.00845
 41
0.00845
  0
VERTEX
  8
0
 10
6.54497
 20
3.22487
 30
0.0
 40
0.00845
 41
0.00845
  0
VERTEX
  8
0
 10
6.54992
 20
3.21664
 30
0.0
 40
0.00845
 41
0.00845
  0
VERTEX
  8
0
 10
6.54992
 20
3.21386
 30
0.0
 40
0.00845
 41
0.00845
  0
SEQEND
 8
0
  0
POLYLINE
  8
0
 62
     7
 66
     1
 10
0
 20
0
 30
0.0
 70
     1
 40
0
 41
0
  0
VERTEX
  8
0
 10
6.50765
 20
3.42344
 30
0.0
 40
0
 41
0
  0
VERTEX
  8
0
 10
6.55838
 20
3.42344
 30
0.0
 40
0
 41
0
  0
VERTEX
  8
0
 10
6.55838
 20
3.31478
 30
0.0
 40
0
 41
0
  0
VERTEX
  8
0
 10
6.50765
 20
3.31478
 30
0.0
 40
0
 41
0
  0
VERTEX
  8
0
 10
6.50765
 20
3.42344
 30
0.0
 40
0
 41
0
  0
SEQEND
 8
0
  0
POLYLINE
  8
0
 62
     0
 66
     1
 10
0
 20
0
 30
0.0
 70
     1
 40
0.6084
 41
0.6084
  0
VERTEX
  8
0
 10
6.50765
 20
3.42344
 30
0.0
 40
0.00845
 41
0.00845
  0
VERTEX
  8
0
 10
6.55838
 20
3.42344
 30
0.0
 40
0.00845
 41
0.00845
  0
VERTEX
  8
0
 10
6.55838
 20
3.31478
 30
0.0
 40
0.00845
 41
0.00845
  0
VERTEX
  8
0
 10
6.50765
 20
3.31478
 30
0.0
 40
0.00845
 41
0.00845
  0
VERTEX
  8
0
 10
6.50765
 20
3.42344
 30
0.0
 40
0.00845
 41
0.00845
  0
SEQEND
 8
0
  0
POLYLINE
  8
0
 62
     7
 66
     1
 10
0
 20
0
 30
0.0
 70
     1
 40
0
 41
0
  0
VERTEX
  8
0
 10
7.59375
 20
4.90007
 30
0.0
 40
0
 41
0
  0
VERTEX
  8
0
 10
8.21875
 20
4.90007
 30
0.0
 40
0
 41
0
  0
VERTEX
  8
0
 10
8.21875
 20
4.27507
 30
0.0
 40
0
 41
0
  0
VERTEX
  8
0
 10
7.59375
 20
4.27507
 30
0.0
 40
0
 41
0
  0
VERTEX
  8
0
 10
7.59375
 20
4.90007
 30
0.0
 40
0
 41
0
  0
SEQEND
 8
0
  0
POLYLINE
  8
0
 62
     0
 66
     1
 10
0
 20
0
 30
0.0
 70
     1
 40
0.75
 41
0.75
  0
VERTEX
  8
0
 10
7.59375
 20
4.90007
 30
0.0
 40
0.0104167
 41
0.0104167
  0
VERTEX
  8
0
 10
7.59375
 20
4.27507
 30
0.0
 40
0.0104167
 41
0.0104167
  0
VERTEX
  8
0
 10
8.21875
 20
4.27507
 30
0.0
 40
0.0104167
 41
0.0104167
  0
VERTEX
  8
0
 10
8.21875
 20
4.90007
 30
0.0
 40
0.0104167
 41
0.0104167
  0
VERTEX
  8
0
 10
7.59375
 20
4.90007
 30
0.0
 40
0.0104167
 41
0.0104167
  0
SEQEND
 8
0
  0
POLYLINE
  8
0
 62
     0
 66
     1
 10
0
 20
0
 30
0.0
 40
0.75
 41
0.75
  0
VERTEX
  8
0
 10
7.59375
 20
4.27507
 30
0.0
 40
0.0104167
 41
0.0104167
  0
VERTEX
  8
0
 10
8.00831
 20
4.5886
 30
0.0
 40
0.0104167
 41
0.0104167
  0
VERTEX
  8
0
 10
7.79579
 20
4.5886
 30
0.0
 40
0.0104167
 41
0.0104167
  0
VERTEX
  8
0
 10
8.21875
 20
4.89903
 30
0.0
 40
0.0104167
 41
0.0104167
  0
SEQEND
 8
0
  0
POLYLINE
  8
0
 62
     0
 66
     1
 10
0
 20
0
 30
0.0
 70
     1
 40
0.75
 41
0.75
  0
VERTEX
  8
0
 10
7.59586
 20
4.90007
 30
0.0
 40
0.0104167
 41
0.0104167
  0
VERTEX
  8
0
 10
7.59586
 20
2.55757
 30
0.0
 40
0.0104167
 41
0.0104167
  0
VERTEX
  8
0
 10
7.90836
 20
2.55757
 30
0.0
 40
0.0104167
 41
0.0104167
  0
VERTEX
  8
0
 10
7.90836
 20
4.90007
 30
0.0
 40
0.0104167
 41
0.0104167
  0
VERTEX
  8
0
 10
7.59586
 20
4.90007
 30
0.0
 40
0.0104167
 41
0.0104167
  0
SEQEND
 8
0
  0
POLYLINE
  8
0
 62
     7
 66
     1
 10
0
 20
0
 30
0.0
 70
     1
 40
0
 41
0
  0
VERTEX
  8
0
 10
14.9631
 20
5.75151
 30
0.0
 40
0
 41
0
  0
VERTEX
  8
0
 10
13.6878
 20
5.75151
 30
0.0
 40
0
 41
0
  0
VERTEX
  8
0
 10
13.6878
 20
5.64735
 30
0.0
 40
0
 41
0
  0
VERTEX
  8
0
 10
15.0465
 20
5.64735
 30
0.0
 40
0
 41
0
  0
VERTEX
  8
0
 10
14.9631
 20
5.75151
 30
0.0
 40
0
 41
0
  0
SEQEND
 8
0
  0
POLYLINE
  8
0
 62
     0
 66
     1
 10
0
 20
0
 30
0.0
 70
     1
 40
0.15
 41
0.15
  0
VERTEX
  8
0
 10
14.9631
 20
5.75151
 30
0.0
 40
0.00208333
 41
0.00208333
  0
VERTEX
  8
0
 10
13.6878
 20
5.75151
 30
0.0
 40
0.00208333
 41
0.00208333
  0
VERTEX
  8
0
 10
13.6878
 20
5.64735
 30
0.0
 40
0.00208333
 41
0.00208333
  0
VERTEX
  8
0
 10
15.0465
 20
5.64735
 30
0.0
 40
0.00208333
 41
0.00208333
  0
VERTEX
  8
0
 10
14.9631
 20
5.75151
 30
0.0
 40
0.00208333
 41
0.00208333
  0
SEQEND
 8
0
  0
POLYLINE
  8
0
 62
     7
 66
     1
 10
0
 20
0
 30
0.0
 70
     1
 40
0
 41
0
  0
VERTEX
  8
0
 10
5.257
 20
7.05078
 30
0.0
 40
0
 41
0
  0
VERTEX
  8
0
 10
5.882
 20
7.05078
 30
0.0
 40
0
 41
0
  0
VERTEX
  8
0
 10
5.882
 20
6.42578
 30
0.0
 40
0
 41
0
  0
VERTEX
  8
0
 10
5.257
 20
6.42578
 30
0.0
 40
0
 41
0
  0
VERTEX
  8
0
 10
5.257
 20
7.05078
 30
0.0
 40
0
 41
0
  0
SEQEND
 8
0
  0
POLYLINE
  8
0
 62
     0
 66
     1
 10
0
 20
0
 30
0.0
 70
     1
 40
0.75
 41
0.75
  0
VERTEX
  8
0
 10
5.257
 20
7.05078
 30
0.0
 40
0.0104167
 41
0.0104167
  0
VERTEX
  8
0
 10
5.257
 20
6.42578
 30
0.0
 40
0.0104167
 41
0.0104167
  0
VERTEX
  8
0
 10
5.882
 20
6.42578
 30
0.0
 40
0.0104167
 41
0.0104167
  0
VERTEX
  8
0
 10
5.882
 20
7.05078
 30
0.0
 40
0.0104167
 41
0.0104167
  0
VERTEX
  8
0
 10
5.257
 20
7.05078
 30
0.0
 40
0.0104167
 41
0.0104167
  0
SEQEND
 8
0
  0
POLYLINE
  8
0
 62
     0
 66
     1
 10
0
 20
0
 30
0.0
 40
0.75
 41
0.75
  0
VERTEX
  8
0
 10
5.257
 20
6.42578
 30
0.0
 40
0.0104167
 41
0.0104167
  0
VERTEX
  8
0
 10
5.67156
 20
6.73936
 30
0.0
 40
0.0104167
 41
0.0104167
  0
VERTEX
  8
0
 10
5.45904
 20
6.73936
 30
0.0
 40
0.0104167
 41
0.0104167
  0
VERTEX
  8
0
 10
5.882
 20
7.04975
 30
0.0
 40
0.0104167
 41
0.0104167
  0
SEQEND
 8
0
  0
ENDSEC
  0
EOF
