  0
SECTION
  2
HEADER
  9
$ACADVER
  1
AC1009
  9
$FILLMODE
 70
 0
  9
$SPLFRAME
 70
 1
  9
$EXTMIN
 10
0
 20
0
 30
0.0
  9
$EXTMAX
 10
41.6667
 20
41.6667
 30
0.0
  0
ENDSEC
  0
SECTION
  2
TABLES
  0
TABLE
  2
LAYER
 70
1
  0
LAYER
  2
0
 70
     0
 62
     7
  6
CONTINUOUS
  0
ENDTAB
  0
ENDSEC
  0
SECTION
  2
ENTITIES
  0
POLYLINE
  8
0
 62
     7
 66
     1
 10
0
 20
0
 30
0.0
 70
     1
 40
0
 41
0
  0
VERTEX
  8
0
 10
16.9978
 20
5.16476
 30
0.0
 40
0
 41
0
  0
VERTEX
  8
0
 10
19.1932
 20
5.16476
 30
0.0
 40
0
 41
0
  0
VERTEX
  8
0
 10
19.1932
 20
8.6594
 30
0.0
 40
0
 41
0
  0
VERTEX
  8
0
 10
18.4772
 20
9.34467
 30
0.0
 40
0
 41
0
  0
VERTEX
  8
0
 10
16.9983
 20
9.34467
 30
0.0
 40
0
 41
0
  0
VERTEX
  8
0
 10
16.9978
 20
5.16476
 30
0.0
 40
0
 41
0
  0
SEQEND
 8
0
  0
POLYLINE
  8
0
 62
     0
 66
     1
 10
0
 20
0
 30
0.0
 70
     1
 40
0.15
 41
0.15
  0
VERTEX
  8
0
 10
16.9978
 20
5.16476
 30
0.0
 40
0.00208333
 41
0.00208333
  0
VERTEX
  8
0
 10
19.1932
 20
5.16476
 30
0.0
 40
0.00208333
 41
0.00208333
  0
VERTEX
  8
0
 10
19.1932
 20
8.6594
 30
0.0
 40
0.00208333
 41
0.00208333
  0
VERTEX
  8
0
 10
18.4772
 20
9.34467
 30
0.0
 40
0.00208333
 41
0.00208333
  0
VERTEX
  8
0
 10
16.9983
 20
9.34467
 30
0.0
 40
0.00208333
 41
0.00208333
  0
VERTEX
  8
0
 10
16.9978
 20
5.16476
 30
0.0
 40
0.00208333
 41
0.00208333
  0
SEQEND
 8
0
  0
TEXT
  8
0
 62
     0
 10
18.0997
 20
7.66806
 30
0.0
 40
0.34375
  1
ULK
 50
0
  0
TEXT
  8
0
 62
     0
 10
18.7772
 20
7.66806
 30
0.0
 40
0.34375
  1
O
 50
0
  0
TEXT
  8
0
 62
     0
 10
19.0396
 20
7.66806
 30
0.0
 40
0.34375
  1
TILA
 50
0
  0
POLYLINE
  8
0
 62
     7
 66
     1
 10
0
 20
0
 30
0.0
 70
     1
 40
0
 41
0
  0
VERTEX
  8
0
 10
11.7623
 20
5.17518
 30
0.0
 40
0
 41
0
  0
VERTEX
  8
0
 10
10.6585
 20
5.17518
 30
0.0
 40
0
 41
0
  0
VERTEX
  8
0
 10
10.6585
 20
5.15261
 30
0.0
 40
0
 41
0
  0
VERTEX
  8
0
 10
8.98904
 20
5.15261
 30
0.0
 40
0
 41
0
  0
VERTEX
  8
0
 10
8.98904
 20
6.67156
 30
0.0
 40
0
 41
0
  0
VERTEX
  8
0
 10
8.338
 20
6.67156
 30
0.0
 40
0
 41
0
  0
VERTEX
  8
0
 10
8.338
 20
9.30469
 30
0.0
 40
0
 41
0
  0
VERTEX
  8
0
 10
11.7623
 20
9.30469
 30
0.0
 40
0
 41
0
  0
VERTEX
  8
0
 10
11.7623
 20
5.17518
 30
0.0
 40
0
 41
0
  0
SEQEND
 8
0
  0
POLYLINE
  8
0
 62
     7
 66
     1
 10
0
 20
0
 30
0.0
 70
     1
 40
0.15
 41
0.15
  0
VERTEX
  8
0
 10
11.7623
 20
5.17518
 30
0.0
 40
0.00208333
 41
0.00208333
  0
VERTEX
  8
0
 10
10.6585
 20
5.17518
 30
0.0
 40
0.00208333
 41
0.00208333
  0
VERTEX
  8
0
 10
10.6585
 20
5.15261
 30
0.0
 40
0.00208333
 41
0.00208333
  0
VERTEX
  8
0
 10
8.98904
 20
5.15261
 30
0.0
 40
0.00208333
 41
0.00208333
  0
VERTEX
  8
0
 10
8.98904
 20
6.67156
 30
0.0
 40
0.00208333
 41
0.00208333
  0
VERTEX
  8
0
 10
8.338
 20
6.67156
 30
0.0
 40
0.00208333
 41
0.00208333
  0
VERTEX
  8
0
 10
8.338
 20
9.30469
 30
0.0
 40
0.00208333
 41
0.00208333
  0
VERTEX
  8
0
 10
11.7623
 20
9.30469
 30
0.0
 40
0.00208333
 41
0.00208333
  0
VERTEX
  8
0
 10
11.7623
 20
5.17518
 30
0.0
 40
0.00208333
 41
0.00208333
  0
SEQEND
 8
0
  0
TEXT
  8
0
 62
     0
 10
9.92519
 20
7.82344
 30
0.0
 40
0.34375
  1
K
 50
0
  0
POLYLINE
  8
0
 62
     7
 66
     1
 10
0
 20
0
 30
0.0
 70
     1
 40
0
 41
0
  0
VERTEX
  8
0
 10
16.6853
 20
5.17415
 30
0.0
 40
0
 41
0
  0
VERTEX
  8
0
 10
12.6819
 20
5.17415
 30
0.0
 40
0
 41
0
  0
VERTEX
  8
0
 10
12.6819
 20
5.17518
 30
0.0
 40
0
 41
0
  0
VERTEX
  8
0
 10
11.7623
 20
5.17518
 30
0.0
 40
0
 41
0
  0
VERTEX
  8
0
 10
11.7623
 20
9.30469
 30
0.0
 40
0
 41
0
  0
VERTEX
  8
0
 10
16.6853
 20
9.30469
 30
0.0
 40
0
 41
0
  0
VERTEX
  8
0
 10
16.6853
 20
5.17415
 30
0.0
 40
0
 41
0
  0
SEQEND
 8
0
  0
POLYLINE
  8
0
 62
     7
 66
     1
 10
0
 20
0
 30
0.0
 70
     1
 40
0.15
 41
0.15
  0
VERTEX
  8
0
 10
16.6853
 20
5.17415
 30
0.0
 40
0.00208333
 41
0.00208333
  0
VERTEX
  8
0
 10
12.6819
 20
5.17415
 30
0.0
 40
0.00208333
 41
0.00208333
  0
VERTEX
  8
0
 10
12.6819
 20
5.17518
 30
0.0
 40
0.00208333
 41
0.00208333
  0
VERTEX
  8
0
 10
11.7623
 20
5.17518
 30
0.0
 40
0.00208333
 41
0.00208333
  0
VERTEX
  8
0
 10
11.7623
 20
9.30469
 30
0.0
 40
0.00208333
 41
0.00208333
  0
VERTEX
  8
0
 10
16.6853
 20
9.30469
 30
0.0
 40
0.00208333
 41
0.00208333
  0
VERTEX
  8
0
 10
16.6853
 20
5.17415
 30
0.0
 40
0.00208333
 41
0.00208333
  0
SEQEND
 8
0
  0
TEXT
  8
0
 62
     0
 10
13.8684
 20
7.02951
 30
0.0
 40
0.34375
  1
OH
 50
0
  0
POLYLINE
  8
0
 62
     7
 66
     1
 10
0
 20
0
 30
0.0
 70
     1
 40
0
 41
0
  0
VERTEX
  8
0
 10
10.6585
 20
3.01958
 30
0.0
 40
0
 41
0
  0
VERTEX
  8
0
 10
10.6569
 20
3.01958
 30
0.0
 40
0
 41
0
  0
VERTEX
  8
0
 10
10.6569
 20
1.04937
 30
0.0
 40
0
 41
0
  0
VERTEX
  8
0
 10
8.70383
 20
1.04937
 30
0.0
 40
0
 41
0
  0
VERTEX
  8
0
 10
8.70383
 20
2.94488
 30
0.0
 40
0
 41
0
  0
VERTEX
  8
0
 10
8.98915
 20
2.94488
 30
0.0
 40
0
 41
0
  0
VERTEX
  8
0
 10
8.98915
 20
4.13135
 30
0.0
 40
0
 41
0
  0
VERTEX
  8
0
 10
8.98904
 20
5.15261
 30
0.0
 40
0
 41
0
  0
VERTEX
  8
0
 10
10.6585
 20
5.15261
 30
0.0
 40
0
 41
0
  0
VERTEX
  8
0
 10
10.6585
 20
3.01958
 30
0.0
 40
0
 41
0
  0
SEQEND
 8
0
  0
POLYLINE
  8
0
 62
     7
 66
     1
 10
0
 20
0
 30
0.0
 70
     1
 40
0.15
 41
0.15
  0
VERTEX
  8
0
 10
10.6585
 20
3.01958
 30
0.0
 40
0.00208333
 41
0.00208333
  0
VERTEX
  8
0
 10
10.6569
 20
3.01958
 30
0.0
 40
0.00208333
 41
0.00208333
  0
VERTEX
  8
0
 10
10.6569
 20
1.04937
 30
0.0
 40
0.00208333
 41
0.00208333
  0
VERTEX
  8
0
 10
8.70383
 20
1.04937
 30
0.0
 40
0.00208333
 41
0.00208333
  0
VERTEX
  8
0
 10
8.70383
 20
2.94488
 30
0.0
 40
0.00208333
 41
0.00208333
  0
VERTEX
  8
0
 10
8.98915
 20
2.94488
 30
0.0
 40
0.00208333
 41
0.00208333
  0
VERTEX
  8
0
 10
8.98915
 20
4.13135
 30
0.0
 40
0.00208333
 41
0.00208333
  0
VERTEX
  8
0
 10
8.98904
 20
5.15261
 30
0.0
 40
0.00208333
 41
0.00208333
  0
VERTEX
  8
0
 10
10.6585
 20
5.15261
 30
0.0
 40
0.00208333
 41
0.00208333
  0
VERTEX
  8
0
 10
10.6585
 20
3.01958
 30
0.0
 40
0.00208333
 41
0.00208333
  0
SEQEND
 8
0
  0
TEXT
  8
0
 62
     0
 10
9.25285
 20
3.18787
 30
0.0
 40
0.34375
  1
UNDEFINED
 50
0
  0
POLYLINE
  8
0
 62
     7
 66
     1
 10
0
 20
0
 30
0.0
 70
     1
 40
0
 41
0
  0
VERTEX
  8
0
 10
8.20258
 20
6.36128
 30
0.0
 40
0
 41
0
  0
VERTEX
  8
0
 10
8.87169
 20
6.36128
 30
0.0
 40
0
 41
0
  0
VERTEX
  8
0
 10
8.87169
 20
5.4221
 30
0.0
 40
0
 41
0
  0
VERTEX
  8
0
 10
7.28624
 20
5.4221
 30
0.0
 40
0
 41
0
  0
VERTEX
  8
0
 10
7.28624
 20
4.77582
 30
0.0
 40
0
 41
0
  0
VERTEX
  8
0
 10
6.21957
 20
4.77582
 30
0.0
 40
0
 41
0
  0
VERTEX
  8
0
 10
6.21957
 20
5.41542
 30
0.0
 40
0
 41
0
  0
VERTEX
  8
0
 10
4.62625
 20
5.41542
 30
0.0
 40
0
 41
0
  0
VERTEX
  8
0
 10
4.62625
 20
9.30469
 30
0.0
 40
0
 41
0
  0
VERTEX
  8
0
 10
8.20258
 20
9.30469
 30
0.0
 40
0
 41
0
  0
VERTEX
  8
0
 10
8.20258
 20
6.36128
 30
0.0
 40
0
 41
0
  0
SEQEND
 8
0
  0
POLYLINE
  8
0
 62
     7
 66
     1
 10
0
 20
0
 30
0.0
 70
     1
 40
0.15
 41
0.15
  0
VERTEX
  8
0
 10
8.20258
 20
6.36128
 30
0.0
 40
0.00208333
 41
0.00208333
  0
VERTEX
  8
0
 10
8.87169
 20
6.36128
 30
0.0
 40
0.00208333
 41
0.00208333
  0
VERTEX
  8
0
 10
8.87169
 20
5.4221
 30
0.0
 40
0.00208333
 41
0.00208333
  0
VERTEX
  8
0
 10
7.28624
 20
5.4221
 30
0.0
 40
0.00208333
 41
0.00208333
  0
VERTEX
  8
0
 10
7.28624
 20
4.77582
 30
0.0
 40
0.00208333
 41
0.00208333
  0
VERTEX
  8
0
 10
6.21957
 20
4.77582
 30
0.0
 40
0.00208333
 41
0.00208333
  0
VERTEX
  8
0
 10
6.21957
 20
5.41542
 30
0.0
 40
0.00208333
 41
0.00208333
  0
VERTEX
  8
0
 10
4.62625
 20
5.41542
 30
0.0
 40
0.00208333
 41
0.00208333
  0
VERTEX
  8
0
 10
4.62625
 20
9.30469
 30
0.0
 40
0.00208333
 41
0.00208333
  0
VERTEX
  8
0
 10
8.20258
 20
9.30469
 30
0.0
 40
0.00208333
 41
0.00208333
  0
VERTEX
  8
0
 10
8.20258
 20
6.36128
 30
0.0
 40
0.00208333
 41
0.00208333
  0
SEQEND
 8
0
  0
TEXT
  8
0
 62
     0
 10
6.19492
 20
7.27646
 30
0.0
 40
0.34375
  1
MH
 50
0
  0
POLYLINE
  8
0
 62
     7
 66
     1
 10
0
 20
0
 30
0.0
 70
     1
 40
0
 41
0
  0
VERTEX
  8
0
 10
7.28624
 20
4.01856
 30
0.0
 40
0
 41
0
  0
VERTEX
  8
0
 10
8.8954
 20
4.01856
 30
0.0
 40
0
 41
0
  0
VERTEX
  8
0
 10
8.8954
 20
3.03863
 30
0.0
 40
0
 41
0
  0
VERTEX
  8
0
 10
8.58718
 20
3.03863
 30
0.0
 40
0
 41
0
  0
VERTEX
  8
0
 10
8.58718
 20
1.04937
 30
0.0
 40
0
 41
0
  0
VERTEX
  8
0
 10
4.62625
 20
1.04937
 30
0.0
 40
0
 41
0
  0
VERTEX
  8
0
 10
4.62625
 20
4.02897
 30
0.0
 40
0
 41
0
  0
VERTEX
  8
0
 10
6.21957
 20
4.02897
 30
0.0
 40
0
 41
0
  0
VERTEX
  8
0
 10
6.21957
 20
4.68207
 30
0.0
 40
0
 41
0
  0
VERTEX
  8
0
 10
7.28624
 20
4.68207
 30
0.0
 40
0
 41
0
  0
VERTEX
  8
0
 10
7.28624
 20
4.01856
 30
0.0
 40
0
 41
0
  0
SEQEND
 8
0
  0
POLYLINE
  8
0
 62
     7
 66
     1
 10
0
 20
0
 30
0.0
 70
     1
 40
0.15
 41
0.15
  0
VERTEX
  8
0
 10
7.28624
 20
4.01856
 30
0.0
 40
0.00208333
 41
0.00208333
  0
VERTEX
  8
0
 10
8.8954
 20
4.01856
 30
0.0
 40
0.00208333
 41
0.00208333
  0
VERTEX
  8
0
 10
8.8954
 20
3.03863
 30
0.0
 40
0.00208333
 41
0.00208333
  0
VERTEX
  8
0
 10
8.58718
 20
3.03863
 30
0.0
 40
0.00208333
 41
0.00208333
  0
VERTEX
  8
0
 10
8.58718
 20
1.04937
 30
0.0
 40
0.00208333
 41
0.00208333
  0
VERTEX
  8
0
 10
4.62625
 20
1.04937
 30
0.0
 40
0.00208333
 41
0.00208333
  0
VERTEX
  8
0
 10
4.62625
 20
4.02897
 30
0.0
 40
0.00208333
 41
0.00208333
  0
VERTEX
  8
0
 10
6.21957
 20
4.02897
 30
0.0
 40
0.00208333
 41
0.00208333
  0
VERTEX
  8
0
 10
6.21957
 20
4.68207
 30
0.0
 40
0.00208333
 41
0.00208333
  0
VERTEX
  8
0
 10
7.28624
 20
4.68207
 30
0.0
 40
0.00208333
 41
0.00208333
  0
VERTEX
  8
0
 10
7.28624
 20
4.01856
 30
0.0
 40
0.00208333
 41
0.00208333
  0
SEQEND
 8
0
  0
TEXT
  8
0
 62
     0
 10
6.34107
 20
2.50701
 30
0.0
 40
0.34375
  1
MH
 50
0
  0
POLYLINE
  8
0
 62
     7
 66
     1
 10
0
 20
0
 30
0.0
 70
     1
 40
0
 41
0
  0
VERTEX
  8
0
 10
12.4966
 20
3.02165
 30
0.0
 40
0
 41
0
  0
VERTEX
  8
0
 10
12.4298
 20
3.02165
 30
0.0
 40
0
 41
0
  0
VERTEX
  8
0
 10
12.4298
 20
3.01958
 30
0.0
 40
0
 41
0
  0
VERTEX
  8
0
 10
10.7523
 20
3.01958
 30
0.0
 40
0
 41
0
  0
VERTEX
  8
0
 10
10.7523
 20
4.39031
 30
0.0
 40
0
 41
0
  0
VERTEX
  8
0
 10
10.9508
 20
4.39031
 30
0.0
 40
0
 41
0
  0
VERTEX
  8
0
 10
10.9508
 20
5.07981
 30
0.0
 40
0
 41
0
  0
VERTEX
  8
0
 10
10.7523
 20
5.07981
 30
0.0
 40
0
 41
0
  0
VERTEX
  8
0
 10
10.7523
 20
5.08143
 30
0.0
 40
0
 41
0
  0
VERTEX
  8
0
 10
12.4966
 20
5.08143
 30
0.0
 40
0
 41
0
  0
VERTEX
  8
0
 10
12.4966
 20
3.02165
 30
0.0
 40
0
 41
0
  0
SEQEND
 8
0
  0
POLYLINE
  8
0
 62
     7
 66
     1
 10
0
 20
0
 30
0.0
 70
     1
 40
0.15
 41
0.15
  0
VERTEX
  8
0
 10
12.4966
 20
3.02165
 30
0.0
 40
0.00208333
 41
0.00208333
  0
VERTEX
  8
0
 10
12.4298
 20
3.02165
 30
0.0
 40
0.00208333
 41
0.00208333
  0
VERTEX
  8
0
 10
12.4298
 20
3.01958
 30
0.0
 40
0.00208333
 41
0.00208333
  0
VERTEX
  8
0
 10
10.7523
 20
3.01958
 30
0.0
 40
0.00208333
 41
0.00208333
  0
VERTEX
  8
0
 10
10.7523
 20
4.39031
 30
0.0
 40
0.00208333
 41
0.00208333
  0
VERTEX
  8
0
 10
10.9508
 20
4.39031
 30
0.0
 40
0.00208333
 41
0.00208333
  0
VERTEX
  8
0
 10
10.9508
 20
5.07981
 30
0.0
 40
0.00208333
 41
0.00208333
  0
VERTEX
  8
0
 10
10.7523
 20
5.07981
 30
0.0
 40
0.00208333
 41
0.00208333
  0
VERTEX
  8
0
 10
10.7523
 20
5.08143
 30
0.0
 40
0.00208333
 41
0.00208333
  0
VERTEX
  8
0
 10
12.4966
 20
5.08143
 30
0.0
 40
0.00208333
 41
0.00208333
  0
VERTEX
  8
0
 10
12.4966
 20
3.02165
 30
0.0
 40
0.00208333
 41
0.00208333
  0
SEQEND
 8
0
  0
TEXT
  8
0
 62
     0
 10
11.5126
 20
3.78656
 30
0.0
 40
0.34375
  1
PH
 50
0
  0
POLYLINE
  8
0
 62
     7
 66
     1
 10
0
 20
0
 30
0.0
 70
     1
 40
0
 41
0
  0
VERTEX
  8
0
 10
10.7935
 20
2.9005
 30
0.0
 40
0
 41
0
  0
VERTEX
  8
0
 10
12.4298
 20
2.9005
 30
0.0
 40
0
 41
0
  0
VERTEX
  8
0
 10
12.4298
 20
1.13927
 30
0.0
 40
0
 41
0
  0
VERTEX
  8
0
 10
10.7935
 20
1.13927
 30
0.0
 40
0
 41
0
  0
VERTEX
  8
0
 10
10.7935
 20
2.9005
 30
0.0
 40
0
 41
0
  0
SEQEND
 8
0
  0
POLYLINE
  8
0
 62
     7
 66
     1
 10
0
 20
0
 30
0.0
 70
     1
 40
0.15
 41
0.15
  0
VERTEX
  8
0
 10
10.7935
 20
2.9005
 30
0.0
 40
0.00208333
 41
0.00208333
  0
VERTEX
  8
0
 10
12.4298
 20
2.9005
 30
0.0
 40
0.00208333
 41
0.00208333
  0
VERTEX
  8
0
 10
12.4298
 20
1.13927
 30
0.0
 40
0.00208333
 41
0.00208333
  0
VERTEX
  8
0
 10
10.7935
 20
1.13927
 30
0.0
 40
0.00208333
 41
0.00208333
  0
VERTEX
  8
0
 10
10.7935
 20
2.9005
 30
0.0
 40
0.00208333
 41
0.00208333
  0
SEQEND
 8
0
  0
TEXT
  8
0
 62
     0
 10
11.1777
 20
2.08238
 30
0.0
 40
0.34375
  1
UNDEFINED
 50
0
  0
POLYLINE
  8
0
 62
     7
 66
     1
 10
0
 20
0
 30
0.0
 70
     1
 40
0
 41
0
  0
VERTEX
  8
0
 10
8.87169
 20
4.13135
 30
0.0
 40
0
 41
0
  0
VERTEX
  8
0
 10
7.39447
 20
4.13135
 30
0.0
 40
0
 41
0
  0
VERTEX
  8
0
 10
7.39447
 20
4.80447
 30
0.0
 40
0
 41
0
  0
VERTEX
  8
0
 10
7.67085
 20
4.80447
 30
0.0
 40
0
 41
0
  0
VERTEX
  8
0
 10
7.67085
 20
5.29992
 30
0.0
 40
0
 41
0
  0
VERTEX
  8
0
 10
8.87169
 20
5.29992
 30
0.0
 40
0
 41
0
  0
VERTEX
  8
0
 10
8.87169
 20
4.13135
 30
0.0
 40
0
 41
0
  0
SEQEND
 8
0
  0
POLYLINE
  8
0
 62
     7
 66
     1
 10
0
 20
0
 30
0.0
 70
     1
 40
0.15
 41
0.15
  0
VERTEX
  8
0
 10
8.87169
 20
4.13135
 30
0.0
 40
0.00208333
 41
0.00208333
  0
VERTEX
  8
0
 10
7.39447
 20
4.13135
 30
0.0
 40
0.00208333
 41
0.00208333
  0
VERTEX
  8
0
 10
7.39447
 20
4.80447
 30
0.0
 40
0.00208333
 41
0.00208333
  0
VERTEX
  8
0
 10
7.67085
 20
4.80447
 30
0.0
 40
0.00208333
 41
0.00208333
  0
VERTEX
  8
0
 10
7.67085
 20
5.29992
 30
0.0
 40
0.00208333
 41
0.00208333
  0
VERTEX
  8
0
 10
8.87169
 20
5.29992
 30
0.0
 40
0.00208333
 41
0.00208333
  0
VERTEX
  8
0
 10
8.87169
 20
4.13135
 30
0.0
 40
0.00208333
 41
0.00208333
  0
SEQEND
 8
0
  0
TEXT
  8
0
 62
     0
 10
8.19793
 20
4.36392
 30
0.0
 40
0.34375
  1
WC
 50
0
  0
POLYLINE
  8
0
 62
     7
 66
     1
 10
0
 20
0
 30
0.0
 70
     1
 40
0
 41
0
  0
VERTEX
  8
0
 10
6.11524
 20
4.66917
 30
0.0
 40
0
 41
0
  0
VERTEX
  8
0
 10
5.70665
 20
4.66917
 30
0.0
 40
0
 41
0
  0
VERTEX
  8
0
 10
5.70665
 20
4.16439
 30
0.0
 40
0
 41
0
  0
VERTEX
  8
0
 10
4.62625
 20
4.16439
 30
0.0
 40
0
 41
0
  0
VERTEX
  8
0
 10
4.62625
 20
5.28
 30
0.0
 40
0
 41
0
  0
VERTEX
  8
0
 10
6.11524
 20
5.28
 30
0.0
 40
0
 41
0
  0
VERTEX
  8
0
 10
6.11524
 20
4.66917
 30
0.0
 40
0
 41
0
  0
SEQEND
 8
0
  0
POLYLINE
  8
0
 62
     7
 66
     1
 10
0
 20
0
 30
0.0
 70
     1
 40
0.15
 41
0.15
  0
VERTEX
  8
0
 10
6.11524
 20
4.66917
 30
0.0
 40
0.00208333
 41
0.00208333
  0
VERTEX
  8
0
 10
5.70665
 20
4.66917
 30
0.0
 40
0.00208333
 41
0.00208333
  0
VERTEX
  8
0
 10
5.70665
 20
4.16439
 30
0.0
 40
0.00208333
 41
0.00208333
  0
VERTEX
  8
0
 10
4.62625
 20
4.16439
 30
0.0
 40
0.00208333
 41
0.00208333
  0
VERTEX
  8
0
 10
4.62625
 20
5.28
 30
0.0
 40
0.00208333
 41
0.00208333
  0
VERTEX
  8
0
 10
6.11524
 20
5.28
 30
0.0
 40
0.00208333
 41
0.00208333
  0
VERTEX
  8
0
 10
6.11524
 20
4.66917
 30
0.0
 40
0.00208333
 41
0.00208333
  0
SEQEND
 8
0
  0
TEXT
  8
0
 62
     0
 10
5.10988
 20
4.29292
 30
0.0
 40
0.34375
  1
VH
 50
0
  0
POLYLINE
  8
0
 62
     0
 66
     1
 10
0
 20
0
 30
0.0
 70
     1
 40
0
 41
0
  0
VERTEX
  8
0
 10
4.62625
 20
9.30469
 30
0.0
 40
0
 41
0
  0
VERTEX
  8
0
 10
16.6853
 20
9.30469
 30
0.0
 40
0
 41
0
  0
VERTEX
  8
0
 10
16.9978
 20
9.67969
 30
0.0
 40
0
 41
0
  0
VERTEX
  8
0
 10
4.33106
 20
9.67969
 30
0.0
 40
0
 41
0
  0
VERTEX
  8
0
 10
4.62625
 20
9.30469
 30
0.0
 40
0
 41
0
  0
SEQEND
 8
0
  0
POLYLINE
  8
0
 62
     0
 66
     1
 10
0
 20
0
 30
0.0
 70
     1
 40
0.15
 41
0.15
  0
VERTEX
  8
0
 10
4.62625
 20
9.30469
 30
0.0
 40
0.00208333
 41
0.00208333
  0
VERTEX
  8
0
 10
16.6853
 20
9.30469
 30
0.0
 40
0.00208333
 41
0.00208333
  0
VERTEX
  8
0
 10
16.9978
 20
9.67969
 30
0.0
 40
0.00208333
 41
0.00208333
  0
VERTEX
  8
0
 10
4.33106
 20
9.67969
 30
0.0
 40
0.00208333
 41
0.00208333
  0
VERTEX
  8
0
 10
4.62625
 20
9.30469
 30
0.0
 40
0.00208333
 41
0.00208333
  0
SEQEND
 8
0
  0
POLYLINE
  8
0
 62
     7
 66
     1
 10
0
 20
0
 30
0.0
 70
     1
 40
0
 41
0
  0
VERTEX
  8
0
 10
9.34939
 20
9.67969
 30
0.0
 40
0
 41
0
  0
VERTEX
  8
0
 10
11.006
 20
9.67969
 30
0.0
 40
0
 41
0
  0
VERTEX
  8
0
 10
11.006
 20
9.30469
 30
0.0
 40
0
 41
0
  0
VERTEX
  8
0
 10
9.34939
 20
9.30469
 30
0.0
 40
0
 41
0
  0
VERTEX
  8
0
 10
9.34939
 20
9.67969
 30
0.0
 40
0
 41
0
  0
SEQEND
 8
0
  0
POLYLINE
  8
0
 62
     0
 66
     1
 10
0
 20
0
 30
0.0
 70
     1
 40
0.75
 41
0.75
  0
VERTEX
  8
0
 10
9.34939
 20
9.67969
 30
0.0
 40
0.0104167
 41
0.0104167
  0
VERTEX
  8
0
 10
11.006
 20
9.67969
 30
0.0
 40
0.0104167
 41
0.0104167
  0
VERTEX
  8
0
 10
11.006
 20
9.30469
 30
0.0
 40
0.0104167
 41
0.0104167
  0
VERTEX
  8
0
 10
9.34939
 20
9.30469
 30
0.0
 40
0.0104167
 41
0.0104167
  0
VERTEX
  8
0
 10
9.34939
 20
9.67969
 30
0.0
 40
0.0104167
 41
0.0104167
  0
SEQEND
 8
0
  0
POLYLINE
  8
0
 62
     7
 66
     1
 10
0
 20
0
 30
0.0
 70
     1
 40
0
 41
0
  0
VERTEX
  8
0
 10
9.34939
 20
9.67969
 30
0.0
 40
0
 41
0
  0
VERTEX
  8
0
 10
11.006
 20
9.67969
 30
0.0
 40
0
 41
0
  0
VERTEX
  8
0
 10
11.006
 20
9.30469
 30
0.0
 40
0
 41
0
  0
VERTEX
  8
0
 10
9.34939
 20
9.30469
 30
0.0
 40
0
 41
0
  0
VERTEX
  8
0
 10
9.34939
 20
9.67969
 30
0.0
 40
0
 41
0
  0
SEQEND
 8
0
  0
POLYLINE
  8
0
 62
     0
 66
     1
 10
0
 20
0
 30
0.0
 70
     1
 40
0.75
 41
0.75
  0
VERTEX
  8
0
 10
9.34939
 20
9.67969
 30
0.0
 40
0.0104167
 41
0.0104167
  0
VERTEX
  8
0
 10
11.006
 20
9.67969
 30
0.0
 40
0.0104167
 41
0.0104167
  0
VERTEX
  8
0
 10
11.006
 20
9.30469
 30
0.0
 40
0.0104167
 41
0.0104167
  0
VERTEX
  8
0
 10
9.34939
 20
9.30469
 30
0.0
 40
0.0104167
 41
0.0104167
  0
VERTEX
  8
0
 10
9.34939
 20
9.67969
 30
0.0
 40
0.0104167
 41
0.0104167
  0
SEQEND
 8
0
  0
POLYLINE
  8
0
 62
     0
 66
     1
 10
0
 20
0
 30
0.0
 40
0.75
 41
0.75
  0
VERTEX
  8
0
 10
9.42746
 20
9.49224
 30
0.0
 40
0.0104167
 41
0.0104167
  0
VERTEX
  8
0
 10
10.9278
 20
9.49224
 30
0.0
 40
0.0104167
 41
0.0104167
  0
SEQEND
 8
0
  0
POLYLINE
  8
0
 62
     0
 66
     1
 10
0
 20
0
 30
0.0
 40
0.75
 41
0.75
  0
VERTEX
  8
0
 10
9.42746
 20
9.30474
 30
0.0
 40
0.0104167
 41
0.0104167
  0
VERTEX
  8
0
 10
9.42746
 20
9.67974
 30
0.0
 40
0.0104167
 41
0.0104167
  0
SEQEND
 8
0
  0
POLYLINE
  8
0
 62
     0
 66
     1
 10
0
 20
0
 30
0.0
 40
0.75
 41
0.75
  0
VERTEX
  8
0
 10
10.9278
 20
9.30474
 30
0.0
 40
0.0104167
 41
0.0104167
  0
VERTEX
  8
0
 10
10.9278
 20
9.67974
 30
0.0
 40
0.0104167
 41
0.0104167
  0
SEQEND
 8
0
  0
POLYLINE
  8
0
 62
     0
 66
     1
 10
0
 20
0
 30
0.0
 70
     1
 40
0
 41
0
  0
VERTEX
  8
0
 10
16.6853
 20
9.30469
 30
0.0
 40
0
 41
0
  0
VERTEX
  8
0
 10
16.6853
 20
5.17415
 30
0.0
 40
0
 41
0
  0
VERTEX
  8
0
 10
16.9978
 20
5.00749
 30
0.0
 40
0
 41
0
  0
VERTEX
  8
0
 10
16.9978
 20
9.67969
 30
0.0
 40
0
 41
0
  0
VERTEX
  8
0
 10
16.6853
 20
9.30469
 30
0.0
 40
0
 41
0
  0
SEQEND
 8
0
  0
POLYLINE
  8
0
 62
     0
 66
     1
 10
0
 20
0
 30
0.0
 70
     1
 40
0.15
 41
0.15
  0
VERTEX
  8
0
 10
16.6853
 20
9.30469
 30
0.0
 40
0.00208333
 41
0.00208333
  0
VERTEX
  8
0
 10
16.6853
 20
5.17415
 30
0.0
 40
0.00208333
 41
0.00208333
  0
VERTEX
  8
0
 10
16.9978
 20
5.00749
 30
0.0
 40
0.00208333
 41
0.00208333
  0
VERTEX
  8
0
 10
16.9978
 20
9.67969
 30
0.0
 40
0.00208333
 41
0.00208333
  0
VERTEX
  8
0
 10
16.6853
 20
9.30469
 30
0.0
 40
0.00208333
 41
0.00208333
  0
SEQEND
 8
0
  0
POLYLINE
  8
0
 62
     7
 66
     1
 10
0
 20
0
 30
0.0
 70
     1
 40
0
 41
0
  0
VERTEX
  8
0
 10
16.6853
 20
6.57644
 30
0.0
 40
0
 41
0
  0
VERTEX
  8
0
 10
16.9978
 20
6.57644
 30
0.0
 40
0
 41
0
  0
VERTEX
  8
0
 10
16.9978
 20
5.75553
 30
0.0
 40
0
 41
0
  0
VERTEX
  8
0
 10
16.6853
 20
5.75553
 30
0.0
 40
0
 41
0
  0
VERTEX
  8
0
 10
16.6853
 20
6.57644
 30
0.0
 40
0
 41
0
  0
SEQEND
 8
0
  0
POLYLINE
  8
0
 62
     0
 66
     1
 10
0
 20
0
 30
0.0
 70
     1
 40
0.75
 41
0.75
  0
VERTEX
  8
0
 10
16.6853
 20
6.57644
 30
0.0
 40
0.0104167
 41
0.0104167
  0
VERTEX
  8
0
 10
16.9978
 20
6.57644
 30
0.0
 40
0.0104167
 41
0.0104167
  0
VERTEX
  8
0
 10
16.9978
 20
5.75553
 30
0.0
 40
0.0104167
 41
0.0104167
  0
VERTEX
  8
0
 10
16.6853
 20
5.75553
 30
0.0
 40
0.0104167
 41
0.0104167
  0
VERTEX
  8
0
 10
16.6853
 20
6.57644
 30
0.0
 40
0.0104167
 41
0.0104167
  0
SEQEND
 8
0
  0
POLYLINE
  8
0
 62
     7
 66
     1
 10
0
 20
0
 30
0.0
 70
     1
 40
0
 41
0
  0
VERTEX
  8
0
 10
16.6853
 20
6.57644
 30
0.0
 40
0
 41
0
  0
VERTEX
  8
0
 10
16.9978
 20
6.57644
 30
0.0
 40
0
 41
0
  0
VERTEX
  8
0
 10
16.9978
 20
5.75553
 30
0.0
 40
0
 41
0
  0
VERTEX
  8
0
 10
16.6853
 20
5.75553
 30
0.0
 40
0
 41
0
  0
VERTEX
  8
0
 10
16.6853
 20
6.57644
 30
0.0
 40
0
 41
0
  0
SEQEND
 8
0
  0
POLYLINE
  8
0
 62
     0
 66
     1
 10
0
 20
0
 30
0.0
 70
     1
 40
0.75
 41
0.75
  0
VERTEX
  8
0
 10
16.6853
 20
6.57644
 30
0.0
 40
0.0104167
 41
0.0104167
  0
VERTEX
  8
0
 10
16.9978
 20
6.57644
 30
0.0
 40
0.0104167
 41
0.0104167
  0
VERTEX
  8
0
 10
16.9978
 20
5.75553
 30
0.0
 40
0.0104167
 41
0.0104167
  0
VERTEX
  8
0
 10
16.6853
 20
5.75553
 30
0.0
 40
0.0104167
 41
0.0104167
  0
VERTEX
  8
0
 10
16.6853
 20
6.57644
 30
0.0
 40
0.0104167
 41
0.0104167
  0
SEQEND
 8
0
  0
POLYLINE
  8
0
 62
     0
 66
     1
 10
0
 20
0
 30
0.0
 70
     1
 40
0.75
 41
0.75
  0
VERTEX
  8
0
 10
16.6853
 20
6.57644
 30
0.0
 40
0.0104167
 41
0.0104167
  0
VERTEX
  8
0
 10
16.6371
 20
6.57644
 30
0.0
 40
0.0104167
 41
0.0104167
  0
VERTEX
  8
0
 10
16.4928
 20
6.56364
 30
0.0
 40
0.0104167
 41
0.0104167
  0
VERTEX
  8
0
 10
16.3261
 20
6.52518
 30
0.0
 40
0.0104167
 41
0.0104167
  0
VERTEX
  8
0
 10
16.185
 20
6.46104
 30
0.0
 40
0.0104167
 41
0.0104167
  0
VERTEX
  8
0
 10
16.0696
 20
6.37125
 30
0.0
 40
0.0104167
 41
0.0104167
  0
VERTEX
  8
0
 10
15.9797
 20
6.25586
 30
0.0
 40
0.0104167
 41
0.0104167
  0
VERTEX
  8
0
 10
15.9157
 20
6.11475
 30
0.0
 40
0.0104167
 41
0.0104167
  0
VERTEX
  8
0
 10
15.8772
 20
5.94803
 30
0.0
 40
0.0104167
 41
0.0104167
  0
VERTEX
  8
0
 10
15.8643
 20
5.80376
 30
0.0
 40
0.0104167
 41
0.0104167
  0
VERTEX
  8
0
 10
15.8643
 20
5.75564
 30
0.0
 40
0.0104167
 41
0.0104167
  0
VERTEX
  8
0
 10
16.6853
 20
5.75564
 30
0.0
 40
0.0104167
 41
0.0104167
  0
VERTEX
  8
0
 10
16.6853
 20
6.57644
 30
0.0
 40
0.0104167
 41
0.0104167
  0
SEQEND
 8
0
  0
POLYLINE
  8
0
 62
     0
 66
     1
 10
0
 20
0
 30
0.0
 70
     1
 40
0.75
 41
0.75
  0
VERTEX
  8
0
 10
16.9978
 20
6.57644
 30
0.0
 40
0.0104167
 41
0.0104167
  0
VERTEX
  8
0
 10
17.0458
 20
6.57644
 30
0.0
 40
0.0104167
 41
0.0104167
  0
VERTEX
  8
0
 10
17.19
 20
6.56364
 30
0.0
 40
0.0104167
 41
0.0104167
  0
VERTEX
  8
0
 10
17.3568
 20
6.52518
 30
0.0
 40
0.0104167
 41
0.0104167
  0
VERTEX
  8
0
 10
17.4979
 20
6.46104
 30
0.0
 40
0.0104167
 41
0.0104167
  0
VERTEX
  8
0
 10
17.6133
 20
6.37125
 30
0.0
 40
0.0104167
 41
0.0104167
  0
VERTEX
  8
0
 10
17.7031
 20
6.25586
 30
0.0
 40
0.0104167
 41
0.0104167
  0
VERTEX
  8
0
 10
17.7672
 20
6.11475
 30
0.0
 40
0.0104167
 41
0.0104167
  0
VERTEX
  8
0
 10
17.8057
 20
5.94803
 30
0.0
 40
0.0104167
 41
0.0104167
  0
VERTEX
  8
0
 10
17.8185
 20
5.80376
 30
0.0
 40
0.0104167
 41
0.0104167
  0
VERTEX
  8
0
 10
17.8185
 20
5.75564
 30
0.0
 40
0.0104167
 41
0.0104167
  0
VERTEX
  8
0
 10
16.9978
 20
5.75564
 30
0.0
 40
0.0104167
 41
0.0104167
  0
VERTEX
  8
0
 10
16.9978
 20
6.57644
 30
0.0
 40
0.0104167
 41
0.0104167
  0
SEQEND
 8
0
  0
POLYLINE
  8
0
 62
     7
 66
     1
 10
0
 20
0
 30
0.0
 70
     1
 40
0
 41
0
  0
VERTEX
  8
0
 10
16.6853
 20
8.94575
 30
0.0
 40
0
 41
0
  0
VERTEX
  8
0
 10
16.9978
 20
8.94575
 30
0.0
 40
0
 41
0
  0
VERTEX
  8
0
 10
16.9978
 20
6.70503
 30
0.0
 40
0
 41
0
  0
VERTEX
  8
0
 10
16.6853
 20
6.70503
 30
0.0
 40
0
 41
0
  0
VERTEX
  8
0
 10
16.6853
 20
8.94575
 30
0.0
 40
0
 41
0
  0
SEQEND
 8
0
  0
POLYLINE
  8
0
 62
     0
 66
     1
 10
0
 20
0
 30
0.0
 70
     1
 40
0.75
 41
0.75
  0
VERTEX
  8
0
 10
16.6853
 20
8.94575
 30
0.0
 40
0.0104167
 41
0.0104167
  0
VERTEX
  8
0
 10
16.9978
 20
8.94575
 30
0.0
 40
0.0104167
 41
0.0104167
  0
VERTEX
  8
0
 10
16.9978
 20
6.70503
 30
0.0
 40
0.0104167
 41
0.0104167
  0
VERTEX
  8
0
 10
16.6853
 20
6.70503
 30
0.0
 40
0.0104167
 41
0.0104167
  0
VERTEX
  8
0
 10
16.6853
 20
8.94575
 30
0.0
 40
0.0104167
 41
0.0104167
  0
SEQEND
 8
0
  0
POLYLINE
  8
0
 62
     7
 66
     1
 10
0
 20
0
 30
0.0
 70
     1
 40
0
 41
0
  0
VERTEX
  8
0
 10
16.6853
 20
8.94575
 30
0.0
 40
0
 41
0
  0
VERTEX
  8
0
 10
16.9978
 20
8.94575
 30
0.0
 40
0
 41
0
  0
VERTEX
  8
0
 10
16.9978
 20
6.70503
 30
0.0
 40
0
 41
0
  0
VERTEX
  8
0
 10
16.6853
 20
6.70503
 30
0.0
 40
0
 41
0
  0
VERTEX
  8
0
 10
16.6853
 20
8.94575
 30
0.0
 40
0
 41
0
  0
SEQEND
 8
0
  0
POLYLINE
  8
0
 62
     0
 66
     1
 10
0
 20
0
 30
0.0
 70
     1
 40
0.75
 41
0.75
  0
VERTEX
  8
0
 10
16.6853
 20
8.94575
 30
0.0
 40
0.0104167
 41
0.0104167
  0
VERTEX
  8
0
 10
16.9978
 20
8.94575
 30
0.0
 40
0.0104167
 41
0.0104167
  0
VERTEX
  8
0
 10
16.9978
 20
6.70503
 30
0.0
 40
0.0104167
 41
0.0104167
  0
VERTEX
  8
0
 10
16.6853
 20
6.70503
 30
0.0
 40
0.0104167
 41
0.0104167
  0
VERTEX
  8
0
 10
16.6853
 20
8.94575
 30
0.0
 40
0.0104167
 41
0.0104167
  0
SEQEND
 8
0
  0
POLYLINE
  8
0
 62
     0
 66
     1
 10
0
 20
0
 30
0.0
 40
0.75
 41
0.75
  0
VERTEX
  8
0
 10
16.8414
 20
8.86762
 30
0.0
 40
0.0104167
 41
0.0104167
  0
VERTEX
  8
0
 10
16.8414
 20
6.78315
 30
0.0
 40
0.0104167
 41
0.0104167
  0
SEQEND
 8
0
  0
POLYLINE
  8
0
 62
     0
 66
     1
 10
0
 20
0
 30
0.0
 40
0.75
 41
0.75
  0
VERTEX
  8
0
 10
16.6851
 20
8.86762
 30
0.0
 40
0.0104167
 41
0.0104167
  0
VERTEX
  8
0
 10
16.9976
 20
8.86762
 30
0.0
 40
0.0104167
 41
0.0104167
  0
SEQEND
 8
0
  0
POLYLINE
  8
0
 62
     0
 66
     1
 10
0
 20
0
 30
0.0
 40
0.75
 41
0.75
  0
VERTEX
  8
0
 10
16.6851
 20
6.78315
 30
0.0
 40
0.0104167
 41
0.0104167
  0
VERTEX
  8
0
 10
16.9976
 20
6.78315
 30
0.0
 40
0.0104167
 41
0.0104167
  0
SEQEND
 8
0
  0
POLYLINE
  8
0
 62
     0
 66
     1
 10
0
 20
0
 30
0.0
 70
     1
 40
0
 41
0
  0
VERTEX
  8
0
 10
16.6853
 20
5.17415
 30
0.0
 40
0
 41
0
  0
VERTEX
  8
0
 10
12.4966
 20
5.17415
 30
0.0
 40
0
 41
0
  0
VERTEX
  8
0
 10
12.6819
 20
5.00749
 30
0.0
 40
0
 41
0
  0
VERTEX
  8
0
 10
16.9978
 20
5.00749
 30
0.0
 40
0
 41
0
  0
VERTEX
  8
0
 10
16.6853
 20
5.17415
 30
0.0
 40
0
 41
0
  0
SEQEND
 8
0
  0
POLYLINE
  8
0
 62
     0
 66
     1
 10
0
 20
0
 30
0.0
 70
     1
 40
0.15
 41
0.15
  0
VERTEX
  8
0
 10
16.6853
 20
5.17415
 30
0.0
 40
0.00208333
 41
0.00208333
  0
VERTEX
  8
0
 10
12.4966
 20
5.17415
 30
0.0
 40
0.00208333
 41
0.00208333
  0
VERTEX
  8
0
 10
12.6819
 20
5.00749
 30
0.0
 40
0.00208333
 41
0.00208333
  0
VERTEX
  8
0
 10
16.9978
 20
5.00749
 30
0.0
 40
0.00208333
 41
0.00208333
  0
VERTEX
  8
0
 10
16.6853
 20
5.17415
 30
0.0
 40
0.00208333
 41
0.00208333
  0
SEQEND
 8
0
  0
POLYLINE
  8
0
 62
     0
 66
     1
 10
0
 20
0
 30
0.0
 70
     1
 40
0
 41
0
  0
VERTEX
  8
0
 10
12.4966
 20
5.17415
 30
0.0
 40
0
 41
0
  0
VERTEX
  8
0
 10
12.4966
 20
3.02165
 30
0.0
 40
0
 41
0
  0
VERTEX
  8
0
 10
12.6819
 20
3.02165
 30
0.0
 40
0
 41
0
  0
VERTEX
  8
0
 10
12.6819
 20
5.00749
 30
0.0
 40
0
 41
0
  0
VERTEX
  8
0
 10
12.4966
 20
5.17415
 30
0.0
 40
0
 41
0
  0
SEQEND
 8
0
  0
POLYLINE
  8
0
 62
     0
 66
     1
 10
0
 20
0
 30
0.0
 70
     1
 40
0.15
 41
0.15
  0
VERTEX
  8
0
 10
12.4966
 20
5.17415
 30
0.0
 40
0.00208333
 41
0.00208333
  0
VERTEX
  8
0
 10
12.4966
 20
3.02165
 30
0.0
 40
0.00208333
 41
0.00208333
  0
VERTEX
  8
0
 10
12.6819
 20
3.02165
 30
0.0
 40
0.00208333
 41
0.00208333
  0
VERTEX
  8
0
 10
12.6819
 20
5.00749
 30
0.0
 40
0.00208333
 41
0.00208333
  0
VERTEX
  8
0
 10
12.4966
 20
5.17415
 30
0.0
 40
0.00208333
 41
0.00208333
  0
SEQEND
 8
0
  0
POLYLINE
  8
0
 62
     0
 66
     1
 10
0
 20
0
 30
0.0
 70
     1
 40
0
 41
0
  0
VERTEX
  8
0
 10
12.4298
 20
3.02165
 30
0.0
 40
0
 41
0
  0
VERTEX
  8
0
 10
12.4298
 20
1.13927
 30
0.0
 40
0
 41
0
  0
VERTEX
  8
0
 10
12.6819
 20
0.882704
 30
0.0
 40
0
 41
0
  0
VERTEX
  8
0
 10
12.6819
 20
3.02165
 30
0.0
 40
0
 41
0
  0
VERTEX
  8
0
 10
12.4298
 20
3.02165
 30
0.0
 40
0
 41
0
  0
SEQEND
 8
0
  0
POLYLINE
  8
0
 62
     0
 66
     1
 10
0
 20
0
 30
0.0
 70
     1
 40
0.15
 41
0.15
  0
VERTEX
  8
0
 10
12.4298
 20
3.02165
 30
0.0
 40
0.00208333
 41
0.00208333
  0
VERTEX
  8
0
 10
12.4298
 20
1.13927
 30
0.0
 40
0.00208333
 41
0.00208333
  0
VERTEX
  8
0
 10
12.6819
 20
0.882704
 30
0.0
 40
0.00208333
 41
0.00208333
  0
VERTEX
  8
0
 10
12.6819
 20
3.02165
 30
0.0
 40
0.00208333
 41
0.00208333
  0
VERTEX
  8
0
 10
12.4298
 20
3.02165
 30
0.0
 40
0.00208333
 41
0.00208333
  0
SEQEND
 8
0
  0
POLYLINE
  8
0
 62
     0
 66
     1
 10
0
 20
0
 30
0.0
 70
     1
 40
0
 41
0
  0
VERTEX
  8
0
 10
12.4298
 20
1.13927
 30
0.0
 40
0
 41
0
  0
VERTEX
  8
0
 10
10.6647
 20
1.13927
 30
0.0
 40
0
 41
0
  0
VERTEX
  8
0
 10
10.6647
 20
0.882704
 30
0.0
 40
0
 41
0
  0
VERTEX
  8
0
 10
12.6819
 20
0.882704
 30
0.0
 40
0
 41
0
  0
VERTEX
  8
0
 10
12.4298
 20
1.13927
 30
0.0
 40
0
 41
0
  0
SEQEND
 8
0
  0
POLYLINE
  8
0
 62
     0
 66
     1
 10
0
 20
0
 30
0.0
 70
     1
 40
0.15
 41
0.15
  0
VERTEX
  8
0
 10
12.4298
 20
1.13927
 30
0.0
 40
0.00208333
 41
0.00208333
  0
VERTEX
  8
0
 10
10.6647
 20
1.13927
 30
0.0
 40
0.00208333
 41
0.00208333
  0
VERTEX
  8
0
 10
10.6647
 20
0.882704
 30
0.0
 40
0.00208333
 41
0.00208333
  0
VERTEX
  8
0
 10
12.6819
 20
0.882704
 30
0.0
 40
0.00208333
 41
0.00208333
  0
VERTEX
  8
0
 10
12.4298
 20
1.13927
 30
0.0
 40
0.00208333
 41
0.00208333
  0
SEQEND
 8
0
  0
POLYLINE
  8
0
 62
     0
 66
     1
 10
0
 20
0
 30
0.0
 70
     1
 40
0
 41
0
  0
VERTEX
  8
0
 10
8.7379
 20
1.04937
 30
0.0
 40
0
 41
0
  0
VERTEX
  8
0
 10
10.6647
 20
1.04937
 30
0.0
 40
0
 41
0
  0
VERTEX
  8
0
 10
10.6647
 20
0.882704
 30
0.0
 40
0
 41
0
  0
VERTEX
  8
0
 10
8.7379
 20
0.882704
 30
0.0
 40
0
 41
0
  0
VERTEX
  8
0
 10
8.7379
 20
1.04937
 30
0.0
 40
0
 41
0
  0
SEQEND
 8
0
  0
POLYLINE
  8
0
 62
     0
 66
     1
 10
0
 20
0
 30
0.0
 70
     1
 40
0.15
 41
0.15
  0
VERTEX
  8
0
 10
8.7379
 20
1.04937
 30
0.0
 40
0.00208333
 41
0.00208333
  0
VERTEX
  8
0
 10
10.6647
 20
1.04937
 30
0.0
 40
0.00208333
 41
0.00208333
  0
VERTEX
  8
0
 10
10.6647
 20
0.882704
 30
0.0
 40
0.00208333
 41
0.00208333
  0
VERTEX
  8
0
 10
8.7379
 20
0.882704
 30
0.0
 40
0.00208333
 41
0.00208333
  0
VERTEX
  8
0
 10
8.7379
 20
1.04937
 30
0.0
 40
0.00208333
 41
0.00208333
  0
SEQEND
 8
0
  0
POLYLINE
  8
0
 62
     7
 66
     1
 10
0
 20
0
 30
0.0
 70
     1
 40
0
 41
0
  0
VERTEX
  8
0
 10
9.47721
 20
1.04937
 30
0.0
 40
0
 41
0
  0
VERTEX
  8
0
 10
10.3557
 20
1.04937
 30
0.0
 40
0
 41
0
  0
VERTEX
  8
0
 10
10.3557
 20
0.882704
 30
0.0
 40
0
 41
0
  0
VERTEX
  8
0
 10
9.47721
 20
0.882704
 30
0.0
 40
0
 41
0
  0
VERTEX
  8
0
 10
9.47721
 20
1.04937
 30
0.0
 40
0
 41
0
  0
SEQEND
 8
0
  0
POLYLINE
  8
0
 62
     0
 66
     1
 10
0
 20
0
 30
0.0
 70
     1
 40
0.75
 41
0.75
  0
VERTEX
  8
0
 10
9.47721
 20
1.04937
 30
0.0
 40
0.0104167
 41
0.0104167
  0
VERTEX
  8
0
 10
10.3557
 20
1.04937
 30
0.0
 40
0.0104167
 41
0.0104167
  0
VERTEX
  8
0
 10
10.3557
 20
0.882704
 30
0.0
 40
0.0104167
 41
0.0104167
  0
VERTEX
  8
0
 10
9.47721
 20
0.882704
 30
0.0
 40
0.0104167
 41
0.0104167
  0
VERTEX
  8
0
 10
9.47721
 20
1.04937
 30
0.0
 40
0.0104167
 41
0.0104167
  0
SEQEND
 8
0
  0
POLYLINE
  8
0
 62
     7
 66
     1
 10
0
 20
0
 30
0.0
 70
     1
 40
0
 41
0
  0
VERTEX
  8
0
 10
9.47721
 20
1.04937
 30
0.0
 40
0
 41
0
  0
VERTEX
  8
0
 10
10.3557
 20
1.04937
 30
0.0
 40
0
 41
0
  0
VERTEX
  8
0
 10
10.3557
 20
0.882704
 30
0.0
 40
0
 41
0
  0
VERTEX
  8
0
 10
9.47721
 20
0.882704
 30
0.0
 40
0
 41
0
  0
VERTEX
  8
0
 10
9.47721
 20
1.04937
 30
0.0
 40
0
 41
0
  0
SEQEND
 8
0
  0
POLYLINE
  8
0
 62
     0
 66
     1
 10
0
 20
0
 30
0.0
 70
     1
 40
0.75
 41
0.75
  0
VERTEX
  8
0
 10
9.47721
 20
1.04937
 30
0.0
 40
0.0104167
 41
0.0104167
  0
VERTEX
  8
0
 10
10.3557
 20
1.04937
 30
0.0
 40
0.0104167
 41
0.0104167
  0
VERTEX
  8
0
 10
10.3557
 20
0.882704
 30
0.0
 40
0.0104167
 41
0.0104167
  0
VERTEX
  8
0
 10
9.47721
 20
0.882704
 30
0.0
 40
0.0104167
 41
0.0104167
  0
VERTEX
  8
0
 10
9.47721
 20
1.04937
 30
0.0
 40
0.0104167
 41
0.0104167
  0
SEQEND
 8
0
  0
POLYLINE
  8
0
 62
     0
 66
     1
 10
0
 20
0
 30
0.0
 70
     1
 40
0.75
 41
0.75
  0
VERTEX
  8
0
 10
10.3557
 20
1.04937
 30
0.0
 40
0.0104167
 41
0.0104167
  0
VERTEX
  8
0
 10
10.3557
 20
1.10086
 30
0.0
 40
0.0104167
 41
0.0104167
  0
VERTEX
  8
0
 10
10.342
 20
1.25532
 30
0.0
 40
0.0104167
 41
0.0104167
  0
VERTEX
  8
0
 10
10.3008
 20
1.43375
 30
0.0
 40
0.0104167
 41
0.0104167
  0
VERTEX
  8
0
 10
10.2322
 20
1.58475
 30
0.0
 40
0.0104167
 41
0.0104167
  0
VERTEX
  8
0
 10
10.1361
 20
1.70828
 30
0.0
 40
0.0104167
 41
0.0104167
  0
VERTEX
  8
0
 10
10.0125
 20
1.80442
 30
0.0
 40
0.0104167
 41
0.0104167
  0
VERTEX
  8
0
 10
9.86154
 20
1.87304
 30
0.0
 40
0.0104167
 41
0.0104167
  0
VERTEX
  8
0
 10
9.68311
 20
1.91422
 30
0.0
 40
0.0104167
 41
0.0104167
  0
VERTEX
  8
0
 10
9.52865
 20
1.9279
 30
0.0
 40
0.0104167
 41
0.0104167
  0
VERTEX
  8
0
 10
9.47721
 20
1.9279
 30
0.0
 40
0.0104167
 41
0.0104167
  0
VERTEX
  8
0
 10
9.47721
 20
1.04937
 30
0.0
 40
0.0104167
 41
0.0104167
  0
VERTEX
  8
0
 10
10.3557
 20
1.04937
 30
0.0
 40
0.0104167
 41
0.0104167
  0
SEQEND
 8
0
  0
POLYLINE
  8
0
 62
     0
 66
     1
 10
0
 20
0
 30
0.0
 70
     1
 40
0.75
 41
0.75
  0
VERTEX
  8
0
 10
10.3557
 20
0.882704
 30
0.0
 40
0.0104167
 41
0.0104167
  0
VERTEX
  8
0
 10
10.3557
 20
0.831272
 30
0.0
 40
0.0104167
 41
0.0104167
  0
VERTEX
  8
0
 10
10.342
 20
0.676812
 30
0.0
 40
0.0104167
 41
0.0104167
  0
VERTEX
  8
0
 10
10.3008
 20
0.498372
 30
0.0
 40
0.0104167
 41
0.0104167
  0
VERTEX
  8
0
 10
10.2322
 20
0.347385
 30
0.0
 40
0.0104167
 41
0.0104167
  0
VERTEX
  8
0
 10
10.1361
 20
0.22385
 30
0.0
 40
0.0104167
 41
0.0104167
  0
VERTEX
  8
0
 10
10.0125
 20
0.127767
 30
0.0
 40
0.0104167
 41
0.0104167
  0
VERTEX
  8
0
 10
9.86154
 20
0.0591363
 30
0.0
 40
0.0104167
 41
0.0104167
  0
VERTEX
  8
0
 10
9.68311
 20
0.0179579
 30
0.0
 40
0.0104167
 41
0.0104167
  0
VERTEX
  8
0
 10
9.52865
 20
0.00417751
 30
0.0
 40
0.0104167
 41
0.0104167
  0
VERTEX
  8
0
 10
9.47721
 20
0.00417751
 30
0.0
 40
0.0104167
 41
0.0104167
  0
VERTEX
  8
0
 10
9.47721
 20
0.882704
 30
0.0
 40
0.0104167
 41
0.0104167
  0
VERTEX
  8
0
 10
10.3557
 20
0.882704
 30
0.0
 40
0.0104167
 41
0.0104167
  0
SEQEND
 8
0
  0
POLYLINE
  8
0
 62
     0
 66
     1
 10
0
 20
0
 30
0.0
 70
     1
 40
0
 41
0
  0
VERTEX
  8
0
 10
8.7379
 20
1.04937
 30
0.0
 40
0
 41
0
  0
VERTEX
  8
0
 10
4.62625
 20
1.04937
 30
0.0
 40
0
 41
0
  0
VERTEX
  8
0
 10
4.33106
 20
0.650011
 30
0.0
 40
0
 41
0
  0
VERTEX
  8
0
 10
8.7379
 20
0.650011
 30
0.0
 40
0
 41
0
  0
VERTEX
  8
0
 10
8.7379
 20
1.04937
 30
0.0
 40
0
 41
0
  0
SEQEND
 8
0
  0
POLYLINE
  8
0
 62
     0
 66
     1
 10
0
 20
0
 30
0.0
 70
     1
 40
0.15
 41
0.15
  0
VERTEX
  8
0
 10
8.7379
 20
1.04937
 30
0.0
 40
0.00208333
 41
0.00208333
  0
VERTEX
  8
0
 10
4.62625
 20
1.04937
 30
0.0
 40
0.00208333
 41
0.00208333
  0
VERTEX
  8
0
 10
4.33106
 20
0.650011
 30
0.0
 40
0.00208333
 41
0.00208333
  0
VERTEX
  8
0
 10
8.7379
 20
0.650011
 30
0.0
 40
0.00208333
 41
0.00208333
  0
VERTEX
  8
0
 10
8.7379
 20
1.04937
 30
0.0
 40
0.00208333
 41
0.00208333
  0
SEQEND
 8
0
  0
POLYLINE
  8
0
 62
     0
 66
     1
 10
0
 20
0
 30
0.0
 70
     1
 40
0
 41
0
  0
VERTEX
  8
0
 10
4.62625
 20
1.04937
 30
0.0
 40
0
 41
0
  0
VERTEX
  8
0
 10
4.62625
 20
9.30469
 30
0.0
 40
0
 41
0
  0
VERTEX
  8
0
 10
4.33106
 20
9.67969
 30
0.0
 40
0
 41
0
  0
VERTEX
  8
0
 10
4.33106
 20
0.650011
 30
0.0
 40
0
 41
0
  0
VERTEX
  8
0
 10
4.62625
 20
1.04937
 30
0.0
 40
0
 41
0
  0
SEQEND
 8
0
  0
POLYLINE
  8
0
 62
     0
 66
     1
 10
0
 20
0
 30
0.0
 70
     1
 40
0.15
 41
0.15
  0
VERTEX
  8
0
 10
4.62625
 20
1.04937
 30
0.0
 40
0.00208333
 41
0.00208333
  0
VERTEX
  8
0
 10
4.62625
 20
9.30469
 30
0.0
 40
0.00208333
 41
0.00208333
  0
VERTEX
  8
0
 10
4.33106
 20
9.67969
 30
0.0
 40
0.00208333
 41
0.00208333
  0
VERTEX
  8
0
 10
4.33106
 20
0.650011
 30
0.0
 40
0.00208333
 41
0.00208333
  0
VERTEX
  8
0
 10
4.62625
 20
1.04937
 30
0.0
 40
0.00208333
 41
0.00208333
  0
SEQEND
 8
0
  0
POLYLINE
  8
0
 62
     7
 66
     1
 10
0
 20
0
 30
0.0
 70
     1
 40
0
 41
0
  0
VERTEX
  8
0
 10
4.33106
 20
8.35101
 30
0.0
 40
0
 41
0
  0
VERTEX
  8
0
 10
4.62625
 20
8.35101
 30
0.0
 40
0
 41
0
  0
VERTEX
  8
0
 10
4.62625
 20
7.07667
 30
0.0
 40
0
 41
0
  0
VERTEX
  8
0
 10
4.33106
 20
7.07667
 30
0.0
 40
0
 41
0
  0
VERTEX
  8
0
 10
4.33106
 20
8.35101
 30
0.0
 40
0
 41
0
  0
SEQEND
 8
0
  0
POLYLINE
  8
0
 62
     0
 66
     1
 10
0
 20
0
 30
0.0
 70
     1
 40
0.75
 41
0.75
  0
VERTEX
  8
0
 10
4.33106
 20
8.35101
 30
0.0
 40
0.0104167
 41
0.0104167
  0
VERTEX
  8
0
 10
4.62625
 20
8.35101
 30
0.0
 40
0.0104167
 41
0.0104167
  0
VERTEX
  8
0
 10
4.62625
 20
7.07667
 30
0.0
 40
0.0104167
 41
0.0104167
  0
VERTEX
  8
0
 10
4.33106
 20
7.07667
 30
0.0
 40
0.0104167
 41
0.0104167
  0
VERTEX
  8
0
 10
4.33106
 20
8.35101
 30
0.0
 40
0.0104167
 41
0.0104167
  0
SEQEND
 8
0
  0
POLYLINE
  8
0
 62
     7
 66
     1
 10
0
 20
0
 30
0.0
 70
     1
 40
0
 41
0
  0
VERTEX
  8
0
 10
4.33106
 20
8.35101
 30
0.0
 40
0
 41
0
  0
VERTEX
  8
0
 10
4.62625
 20
8.35101
 30
0.0
 40
0
 41
0
  0
VERTEX
  8
0
 10
4.62625
 20
7.07667
 30
0.0
 40
0
 41
0
  0
VERTEX
  8
0
 10
4.33106
 20
7.07667
 30
0.0
 40
0
 41
0
  0
VERTEX
  8
0
 10
4.33106
 20
8.35101
 30
0.0
 40
0
 41
0
  0
SEQEND
 8
0
  0
POLYLINE
  8
0
 62
     0
 66
     1
 10
0
 20
0
 30
0.0
 70
     1
 40
0.75
 41
0.75
  0
VERTEX
  8
0
 10
4.33106
 20
8.35101
 30
0.0
 40
0.0104167
 41
0.0104167
  0
VERTEX
  8
0
 10
4.62625
 20
8.35101
 30
0.0
 40
0.0104167
 41
0.0104167
  0
VERTEX
  8
0
 10
4.62625
 20
7.07667
 30
0.0
 40
0.0104167
 41
0.0104167
  0
VERTEX
  8
0
 10
4.33106
 20
7.07667
 30
0.0
 40
0.0104167
 41
0.0104167
  0
VERTEX
  8
0
 10
4.33106
 20
8.35101
 30
0.0
 40
0.0104167
 41
0.0104167
  0
SEQEND
 8
0
  0
POLYLINE
  8
0
 62
     0
 66
     1
 10
0
 20
0
 30
0.0
 40
0.75
 41
0.75
  0
VERTEX
  8
0
 10
4.47868
 20
7.15483
 30
0.0
 40
0.0104167
 41
0.0104167
  0
VERTEX
  8
0
 10
4.47868
 20
8.27289
 30
0.0
 40
0.0104167
 41
0.0104167
  0
SEQEND
 8
0
  0
POLYLINE
  8
0
 62
     0
 66
     1
 10
0
 20
0
 30
0.0
 40
0.75
 41
0.75
  0
VERTEX
  8
0
 10
4.62625
 20
7.15483
 30
0.0
 40
0.0104167
 41
0.0104167
  0
VERTEX
  8
0
 10
4.33106
 20
7.15483
 30
0.0
 40
0.0104167
 41
0.0104167
  0
SEQEND
 8
0
  0
POLYLINE
  8
0
 62
     0
 66
     1
 10
0
 20
0
 30
0.0
 40
0.75
 41
0.75
  0
VERTEX
  8
0
 10
4.62625
 20
8.27289
 30
0.0
 40
0.0104167
 41
0.0104167
  0
VERTEX
  8
0
 10
4.33106
 20
8.27289
 30
0.0
 40
0.0104167
 41
0.0104167
  0
SEQEND
 8
0
  0
POLYLINE
  8
0
 62
     7
 66
     1
 10
0
 20
0
 30
0.0
 70
     1
 40
0
 41
0
  0
VERTEX
  8
0
 10
4.33106
 20
7.07667
 30
0.0
 40
0
 41
0
  0
VERTEX
  8
0
 10
4.62625
 20
7.07667
 30
0.0
 40
0
 41
0
  0
VERTEX
  8
0
 10
4.62625
 20
6.7475
 30
0.0
 40
0
 41
0
  0
VERTEX
  8
0
 10
4.33106
 20
6.7475
 30
0.0
 40
0
 41
0
  0
VERTEX
  8
0
 10
4.33106
 20
7.07667
 30
0.0
 40
0
 41
0
  0
SEQEND
 8
0
  0
POLYLINE
  8
0
 62
     0
 66
     1
 10
0
 20
0
 30
0.0
 70
     1
 40
0.75
 41
0.75
  0
VERTEX
  8
0
 10
4.33106
 20
7.07667
 30
0.0
 40
0.0104167
 41
0.0104167
  0
VERTEX
  8
0
 10
4.62625
 20
7.07667
 30
0.0
 40
0.0104167
 41
0.0104167
  0
VERTEX
  8
0
 10
4.62625
 20
6.7475
 30
0.0
 40
0.0104167
 41
0.0104167
  0
VERTEX
  8
0
 10
4.33106
 20
6.7475
 30
0.0
 40
0.0104167
 41
0.0104167
  0
VERTEX
  8
0
 10
4.33106
 20
7.07667
 30
0.0
 40
0.0104167
 41
0.0104167
  0
SEQEND
 8
0
  0
POLYLINE
  8
0
 62
     7
 66
     1
 10
0
 20
0
 30
0.0
 70
     1
 40
0
 41
0
  0
VERTEX
  8
0
 10
4.33106
 20
7.07667
 30
0.0
 40
0
 41
0
  0
VERTEX
  8
0
 10
4.62625
 20
7.07667
 30
0.0
 40
0
 41
0
  0
VERTEX
  8
0
 10
4.62625
 20
6.7475
 30
0.0
 40
0
 41
0
  0
VERTEX
  8
0
 10
4.33106
 20
6.7475
 30
0.0
 40
0
 41
0
  0
VERTEX
  8
0
 10
4.33106
 20
7.07667
 30
0.0
 40
0
 41
0
  0
SEQEND
 8
0
  0
POLYLINE
  8
0
 62
     0
 66
     1
 10
0
 20
0
 30
0.0
 70
     1
 40
0.75
 41
0.75
  0
VERTEX
  8
0
 10
4.33106
 20
7.07667
 30
0.0
 40
0.0104167
 41
0.0104167
  0
VERTEX
  8
0
 10
4.62625
 20
7.07667
 30
0.0
 40
0.0104167
 41
0.0104167
  0
VERTEX
  8
0
 10
4.62625
 20
6.7475
 30
0.0
 40
0.0104167
 41
0.0104167
  0
VERTEX
  8
0
 10
4.33106
 20
6.7475
 30
0.0
 40
0.0104167
 41
0.0104167
  0
VERTEX
  8
0
 10
4.33106
 20
7.07667
 30
0.0
 40
0.0104167
 41
0.0104167
  0
SEQEND
 8
0
  0
POLYLINE
  8
0
 62
     0
 66
     1
 10
0
 20
0
 30
0.0
 40
0.75
 41
0.75
  0
VERTEX
  8
0
 10
4.47868
 20
6.82563
 30
0.0
 40
0.0104167
 41
0.0104167
  0
VERTEX
  8
0
 10
4.47868
 20
6.99858
 30
0.0
 40
0.0104167
 41
0.0104167
  0
SEQEND
 8
0
  0
POLYLINE
  8
0
 62
     0
 66
     1
 10
0
 20
0
 30
0.0
 40
0.75
 41
0.75
  0
VERTEX
  8
0
 10
4.62625
 20
6.82563
 30
0.0
 40
0.0104167
 41
0.0104167
  0
VERTEX
  8
0
 10
4.33106
 20
6.82563
 30
0.0
 40
0.0104167
 41
0.0104167
  0
SEQEND
 8
0
  0
POLYLINE
  8
0
 62
     0
 66
     1
 10
0
 20
0
 30
0.0
 40
0.75
 41
0.75
  0
VERTEX
  8
0
 10
4.62625
 20
6.99858
 30
0.0
 40
0.0104167
 41
0.0104167
  0
VERTEX
  8
0
 10
4.33106
 20
6.99858
 30
0.0
 40
0.0104167
 41
0.0104167
  0
SEQEND
 8
0
  0
POLYLINE
  8
0
 62
     7
 66
     1
 10
0
 20
0
 30
0.0
 70
     1
 40
0
 41
0
  0
VERTEX
  8
0
 10
4.33106
 20
5.13336
 30
0.0
 40
0
 41
0
  0
VERTEX
  8
0
 10
4.62625
 20
5.13336
 30
0.0
 40
0
 41
0
  0
VERTEX
  8
0
 10
4.62625
 20
4.45367
 30
0.0
 40
0
 41
0
  0
VERTEX
  8
0
 10
4.33106
 20
4.45367
 30
0.0
 40
0
 41
0
  0
VERTEX
  8
0
 10
4.33106
 20
5.13336
 30
0.0
 40
0
 41
0
  0
SEQEND
 8
0
  0
POLYLINE
  8
0
 62
     0
 66
     1
 10
0
 20
0
 30
0.0
 70
     1
 40
0.75
 41
0.75
  0
VERTEX
  8
0
 10
4.33106
 20
5.13336
 30
0.0
 40
0.0104167
 41
0.0104167
  0
VERTEX
  8
0
 10
4.62625
 20
5.13336
 30
0.0
 40
0.0104167
 41
0.0104167
  0
VERTEX
  8
0
 10
4.62625
 20
4.45367
 30
0.0
 40
0.0104167
 41
0.0104167
  0
VERTEX
  8
0
 10
4.33106
 20
4.45367
 30
0.0
 40
0.0104167
 41
0.0104167
  0
VERTEX
  8
0
 10
4.33106
 20
5.13336
 30
0.0
 40
0.0104167
 41
0.0104167
  0
SEQEND
 8
0
  0
POLYLINE
  8
0
 62
     7
 66
     1
 10
0
 20
0
 30
0.0
 70
     1
 40
0
 41
0
  0
VERTEX
  8
0
 10
4.33106
 20
5.13336
 30
0.0
 40
0
 41
0
  0
VERTEX
  8
0
 10
4.62625
 20
5.13336
 30
0.0
 40
0
 41
0
  0
VERTEX
  8
0
 10
4.62625
 20
4.45367
 30
0.0
 40
0
 41
0
  0
VERTEX
  8
0
 10
4.33106
 20
4.45367
 30
0.0
 40
0
 41
0
  0
VERTEX
  8
0
 10
4.33106
 20
5.13336
 30
0.0
 40
0
 41
0
  0
SEQEND
 8
0
  0
POLYLINE
  8
0
 62
     0
 66
     1
 10
0
 20
0
 30
0.0
 70
     1
 40
0.75
 41
0.75
  0
VERTEX
  8
0
 10
4.33106
 20
5.13336
 30
0.0
 40
0.0104167
 41
0.0104167
  0
VERTEX
  8
0
 10
4.62625
 20
5.13336
 30
0.0
 40
0.0104167
 41
0.0104167
  0
VERTEX
  8
0
 10
4.62625
 20
4.45367
 30
0.0
 40
0.0104167
 41
0.0104167
  0
VERTEX
  8
0
 10
4.33106
 20
4.45367
 30
0.0
 40
0.0104167
 41
0.0104167
  0
VERTEX
  8
0
 10
4.33106
 20
5.13336
 30
0.0
 40
0.0104167
 41
0.0104167
  0
SEQEND
 8
0
  0
POLYLINE
  8
0
 62
     0
 66
     1
 10
0
 20
0
 30
0.0
 40
0.75
 41
0.75
  0
VERTEX
  8
0
 10
4.47868
 20
4.53179
 30
0.0
 40
0.0104167
 41
0.0104167
  0
VERTEX
  8
0
 10
4.47868
 20
5.05524
 30
0.0
 40
0.0104167
 41
0.0104167
  0
SEQEND
 8
0
  0
POLYLINE
  8
0
 62
     0
 66
     1
 10
0
 20
0
 30
0.0
 40
0.75
 41
0.75
  0
VERTEX
  8
0
 10
4.62625
 20
4.53179
 30
0.0
 40
0.0104167
 41
0.0104167
  0
VERTEX
  8
0
 10
4.33106
 20
4.53179
 30
0.0
 40
0.0104167
 41
0.0104167
  0
SEQEND
 8
0
  0
POLYLINE
  8
0
 62
     0
 66
     1
 10
0
 20
0
 30
0.0
 40
0.75
 41
0.75
  0
VERTEX
  8
0
 10
4.62625
 20
5.05524
 30
0.0
 40
0.0104167
 41
0.0104167
  0
VERTEX
  8
0
 10
4.33106
 20
5.05524
 30
0.0
 40
0.0104167
 41
0.0104167
  0
SEQEND
 8
0
  0
POLYLINE
  8
0
 62
     7
 66
     1
 10
0
 20
0
 30
0.0
 70
     1
 40
0
 41
0
  0
VERTEX
  8
0
 10
4.33106
 20
3.57226
 30
0.0
 40
0
 41
0
  0
VERTEX
  8
0
 10
4.62625
 20
3.57226
 30
0.0
 40
0
 41
0
  0
VERTEX
  8
0
 10
4.62625
 20
2.28728
 30
0.0
 40
0
 41
0
  0
VERTEX
  8
0
 10
4.33106
 20
2.28728
 30
0.0
 40
0
 41
0
  0
VERTEX
  8
0
 10
4.33106
 20
3.57226
 30
0.0
 40
0
 41
0
  0
SEQEND
 8
0
  0
POLYLINE
  8
0
 62
     0
 66
     1
 10
0
 20
0
 30
0.0
 70
     1
 40
0.75
 41
0.75
  0
VERTEX
  8
0
 10
4.33106
 20
3.57226
 30
0.0
 40
0.0104167
 41
0.0104167
  0
VERTEX
  8
0
 10
4.62625
 20
3.57226
 30
0.0
 40
0.0104167
 41
0.0104167
  0
VERTEX
  8
0
 10
4.62625
 20
2.28728
 30
0.0
 40
0.0104167
 41
0.0104167
  0
VERTEX
  8
0
 10
4.33106
 20
2.28728
 30
0.0
 40
0.0104167
 41
0.0104167
  0
VERTEX
  8
0
 10
4.33106
 20
3.57226
 30
0.0
 40
0.0104167
 41
0.0104167
  0
SEQEND
 8
0
  0
POLYLINE
  8
0
 62
     7
 66
     1
 10
0
 20
0
 30
0.0
 70
     1
 40
0
 41
0
  0
VERTEX
  8
0
 10
4.33106
 20
3.57226
 30
0.0
 40
0
 41
0
  0
VERTEX
  8
0
 10
4.62625
 20
3.57226
 30
0.0
 40
0
 41
0
  0
VERTEX
  8
0
 10
4.62625
 20
2.28728
 30
0.0
 40
0
 41
0
  0
VERTEX
  8
0
 10
4.33106
 20
2.28728
 30
0.0
 40
0
 41
0
  0
VERTEX
  8
0
 10
4.33106
 20
3.57226
 30
0.0
 40
0
 41
0
  0
SEQEND
 8
0
  0
POLYLINE
  8
0
 62
     0
 66
     1
 10
0
 20
0
 30
0.0
 70
     1
 40
0.75
 41
0.75
  0
VERTEX
  8
0
 10
4.33106
 20
3.57226
 30
0.0
 40
0.0104167
 41
0.0104167
  0
VERTEX
  8
0
 10
4.62625
 20
3.57226
 30
0.0
 40
0.0104167
 41
0.0104167
  0
VERTEX
  8
0
 10
4.62625
 20
2.28728
 30
0.0
 40
0.0104167
 41
0.0104167
  0
VERTEX
  8
0
 10
4.33106
 20
2.28728
 30
0.0
 40
0.0104167
 41
0.0104167
  0
VERTEX
  8
0
 10
4.33106
 20
3.57226
 30
0.0
 40
0.0104167
 41
0.0104167
  0
SEQEND
 8
0
  0
POLYLINE
  8
0
 62
     0
 66
     1
 10
0
 20
0
 30
0.0
 40
0.75
 41
0.75
  0
VERTEX
  8
0
 10
4.47868
 20
2.36546
 30
0.0
 40
0.0104167
 41
0.0104167
  0
VERTEX
  8
0
 10
4.47868
 20
3.49414
 30
0.0
 40
0.0104167
 41
0.0104167
  0
SEQEND
 8
0
  0
POLYLINE
  8
0
 62
     0
 66
     1
 10
0
 20
0
 30
0.0
 40
0.75
 41
0.75
  0
VERTEX
  8
0
 10
4.62625
 20
2.36546
 30
0.0
 40
0.0104167
 41
0.0104167
  0
VERTEX
  8
0
 10
4.33106
 20
2.36546
 30
0.0
 40
0.0104167
 41
0.0104167
  0
SEQEND
 8
0
  0
POLYLINE
  8
0
 62
     0
 66
     1
 10
0
 20
0
 30
0.0
 40
0.75
 41
0.75
  0
VERTEX
  8
0
 10
4.62625
 20
3.49414
 30
0.0
 40
0.0104167
 41
0.0104167
  0
VERTEX
  8
0
 10
4.33106
 20
3.49414
 30
0.0
 40
0.0104167
 41
0.0104167
  0
SEQEND
 8
0
  0
POLYLINE
  8
0
 62
     7
 66
     1
 10
0
 20
0
 30
0.0
 70
     1
 40
0
 41
0
  0
VERTEX
  8
0
 10
4.33106
 20
2.28728
 30
0.0
 40
0
 41
0
  0
VERTEX
  8
0
 10
4.62625
 20
2.28728
 30
0.0
 40
0
 41
0
  0
VERTEX
  8
0
 10
4.62625
 20
1.97939
 30
0.0
 40
0
 41
0
  0
VERTEX
  8
0
 10
4.33106
 20
1.97939
 30
0.0
 40
0
 41
0
  0
VERTEX
  8
0
 10
4.33106
 20
2.28728
 30
0.0
 40
0
 41
0
  0
SEQEND
 8
0
  0
POLYLINE
  8
0
 62
     0
 66
     1
 10
0
 20
0
 30
0.0
 70
     1
 40
0.75
 41
0.75
  0
VERTEX
  8
0
 10
4.33106
 20
2.28728
 30
0.0
 40
0.0104167
 41
0.0104167
  0
VERTEX
  8
0
 10
4.62625
 20
2.28728
 30
0.0
 40
0.0104167
 41
0.0104167
  0
VERTEX
  8
0
 10
4.62625
 20
1.97939
 30
0.0
 40
0.0104167
 41
0.0104167
  0
VERTEX
  8
0
 10
4.33106
 20
1.97939
 30
0.0
 40
0.0104167
 41
0.0104167
  0
VERTEX
  8
0
 10
4.33106
 20
2.28728
 30
0.0
 40
0.0104167
 41
0.0104167
  0
SEQEND
 8
0
  0
POLYLINE
  8
0
 62
     7
 66
     1
 10
0
 20
0
 30
0.0
 70
     1
 40
0
 41
0
  0
VERTEX
  8
0
 10
4.33106
 20
2.28728
 30
0.0
 40
0
 41
0
  0
VERTEX
  8
0
 10
4.62625
 20
2.28728
 30
0.0
 40
0
 41
0
  0
VERTEX
  8
0
 10
4.62625
 20
1.97939
 30
0.0
 40
0
 41
0
  0
VERTEX
  8
0
 10
4.33106
 20
1.97939
 30
0.0
 40
0
 41
0
  0
VERTEX
  8
0
 10
4.33106
 20
2.28728
 30
0.0
 40
0
 41
0
  0
SEQEND
 8
0
  0
POLYLINE
  8
0
 62
     0
 66
     1
 10
0
 20
0
 30
0.0
 70
     1
 40
0.75
 41
0.75
  0
VERTEX
  8
0
 10
4.33106
 20
2.28728
 30
0.0
 40
0.0104167
 41
0.0104167
  0
VERTEX
  8
0
 10
4.62625
 20
2.28728
 30
0.0
 40
0.0104167
 41
0.0104167
  0
VERTEX
  8
0
 10
4.62625
 20
1.97939
 30
0.0
 40
0.0104167
 41
0.0104167
  0
VERTEX
  8
0
 10
4.33106
 20
1.97939
 30
0.0
 40
0.0104167
 41
0.0104167
  0
VERTEX
  8
0
 10
4.33106
 20
2.28728
 30
0.0
 40
0.0104167
 41
0.0104167
  0
SEQEND
 8
0
  0
POLYLINE
  8
0
 62
     0
 66
     1
 10
0
 20
0
 30
0.0
 40
0.75
 41
0.75
  0
VERTEX
  8
0
 10
4.47868
 20
2.05746
 30
0.0
 40
0.0104167
 41
0.0104167
  0
VERTEX
  8
0
 10
4.47868
 20
2.20921
 30
0.0
 40
0.0104167
 41
0.0104167
  0
SEQEND
 8
0
  0
POLYLINE
  8
0
 62
     0
 66
     1
 10
0
 20
0
 30
0.0
 40
0.75
 41
0.75
  0
VERTEX
  8
0
 10
4.62625
 20
2.05746
 30
0.0
 40
0.0104167
 41
0.0104167
  0
VERTEX
  8
0
 10
4.33106
 20
2.05746
 30
0.0
 40
0.0104167
 41
0.0104167
  0
SEQEND
 8
0
  0
POLYLINE
  8
0
 62
     0
 66
     1
 10
0
 20
0
 30
0.0
 40
0.75
 41
0.75
  0
VERTEX
  8
0
 10
4.62625
 20
2.20921
 30
0.0
 40
0.0104167
 41
0.0104167
  0
VERTEX
  8
0
 10
4.33106
 20
2.20921
 30
0.0
 40
0.0104167
 41
0.0104167
  0
SEQEND
 8
0
  0
POLYLINE
  8
0
 62
     0
 66
     1
 10
0
 20
0
 30
0.0
 70
     1
 40
0
 41
0
  0
VERTEX
  8
0
 10
8.20258
 20
9.67969
 30
0.0
 40
0
 41
0
  0
VERTEX
  8
0
 10
8.20258
 20
6.36128
 30
0.0
 40
0
 41
0
  0
VERTEX
  8
0
 10
8.338
 20
6.67156
 30
0.0
 40
0
 41
0
  0
VERTEX
  8
0
 10
8.338
 20
9.67969
 30
0.0
 40
0
 41
0
  0
VERTEX
  8
0
 10
8.20258
 20
9.67969
 30
0.0
 40
0
 41
0
  0
SEQEND
 8
0
  0
POLYLINE
  8
0
 62
     0
 66
     1
 10
0
 20
0
 30
0.0
 70
     1
 40
0.15
 41
0.15
  0
VERTEX
  8
0
 10
8.20258
 20
9.67969
 30
0.0
 40
0.00208333
 41
0.00208333
  0
VERTEX
  8
0
 10
8.20258
 20
6.36128
 30
0.0
 40
0.00208333
 41
0.00208333
  0
VERTEX
  8
0
 10
8.338
 20
6.67156
 30
0.0
 40
0.00208333
 41
0.00208333
  0
VERTEX
  8
0
 10
8.338
 20
9.67969
 30
0.0
 40
0.00208333
 41
0.00208333
  0
VERTEX
  8
0
 10
8.20258
 20
9.67969
 30
0.0
 40
0.00208333
 41
0.00208333
  0
SEQEND
 8
0
  0
POLYLINE
  8
0
 62
     0
 66
     1
 10
0
 20
0
 30
0.0
 70
     1
 40
0
 41
0
  0
VERTEX
  8
0
 10
8.20258
 20
6.36128
 30
0.0
 40
0
 41
0
  0
VERTEX
  8
0
 10
8.98904
 20
6.36128
 30
0.0
 40
0
 41
0
  0
VERTEX
  8
0
 10
8.98904
 20
6.67156
 30
0.0
 40
0
 41
0
  0
VERTEX
  8
0
 10
8.338
 20
6.67156
 30
0.0
 40
0
 41
0
  0
VERTEX
  8
0
 10
8.20258
 20
6.36128
 30
0.0
 40
0
 41
0
  0
SEQEND
 8
0
  0
POLYLINE
  8
0
 62
     0
 66
     1
 10
0
 20
0
 30
0.0
 70
     1
 40
0.15
 41
0.15
  0
VERTEX
  8
0
 10
8.20258
 20
6.36128
 30
0.0
 40
0.00208333
 41
0.00208333
  0
VERTEX
  8
0
 10
8.98904
 20
6.36128
 30
0.0
 40
0.00208333
 41
0.00208333
  0
VERTEX
  8
0
 10
8.98904
 20
6.67156
 30
0.0
 40
0.00208333
 41
0.00208333
  0
VERTEX
  8
0
 10
8.338
 20
6.67156
 30
0.0
 40
0.00208333
 41
0.00208333
  0
VERTEX
  8
0
 10
8.20258
 20
6.36128
 30
0.0
 40
0.00208333
 41
0.00208333
  0
SEQEND
 8
0
  0
POLYLINE
  8
0
 62
     0
 66
     1
 10
0
 20
0
 30
0.0
 70
     1
 40
0
 41
0
  0
VERTEX
  8
0
 10
9.97314
 20
6.36128
 30
0.0
 40
0
 41
0
  0
VERTEX
  8
0
 10
11.7319
 20
6.36128
 30
0.0
 40
0
 41
0
  0
VERTEX
  8
0
 10
11.5965
 20
6.49669
 30
0.0
 40
0
 41
0
  0
VERTEX
  8
0
 10
9.97314
 20
6.49669
 30
0.0
 40
0
 41
0
  0
VERTEX
  8
0
 10
9.97314
 20
6.36128
 30
0.0
 40
0
 41
0
  0
SEQEND
 8
0
  0
POLYLINE
  8
0
 62
     0
 66
     1
 10
0
 20
0
 30
0.0
 70
     1
 40
0.15
 41
0.15
  0
VERTEX
  8
0
 10
9.97314
 20
6.36128
 30
0.0
 40
0.00208333
 41
0.00208333
  0
VERTEX
  8
0
 10
11.7319
 20
6.36128
 30
0.0
 40
0.00208333
 41
0.00208333
  0
VERTEX
  8
0
 10
11.5965
 20
6.49669
 30
0.0
 40
0.00208333
 41
0.00208333
  0
VERTEX
  8
0
 10
9.97314
 20
6.49669
 30
0.0
 40
0.00208333
 41
0.00208333
  0
VERTEX
  8
0
 10
9.97314
 20
6.36128
 30
0.0
 40
0.00208333
 41
0.00208333
  0
SEQEND
 8
0
  0
POLYLINE
  8
0
 62
     0
 66
     1
 10
0
 20
0
 30
0.0
 70
     1
 40
0
 41
0
  0
VERTEX
  8
0
 10
11.7319
 20
6.36128
 30
0.0
 40
0
 41
0
  0
VERTEX
  8
0
 10
11.7319
 20
7.1525
 30
0.0
 40
0
 41
0
  0
VERTEX
  8
0
 10
11.5965
 20
7.1525
 30
0.0
 40
0
 41
0
  0
VERTEX
  8
0
 10
11.5965
 20
6.49669
 30
0.0
 40
0
 41
0
  0
VERTEX
  8
0
 10
11.7319
 20
6.36128
 30
0.0
 40
0
 41
0
  0
SEQEND
 8
0
  0
POLYLINE
  8
0
 62
     0
 66
     1
 10
0
 20
0
 30
0.0
 70
     1
 40
0.15
 41
0.15
  0
VERTEX
  8
0
 10
11.7319
 20
6.36128
 30
0.0
 40
0.00208333
 41
0.00208333
  0
VERTEX
  8
0
 10
11.7319
 20
7.1525
 30
0.0
 40
0.00208333
 41
0.00208333
  0
VERTEX
  8
0
 10
11.5965
 20
7.1525
 30
0.0
 40
0.00208333
 41
0.00208333
  0
VERTEX
  8
0
 10
11.5965
 20
6.49669
 30
0.0
 40
0.00208333
 41
0.00208333
  0
VERTEX
  8
0
 10
11.7319
 20
6.36128
 30
0.0
 40
0.00208333
 41
0.00208333
  0
SEQEND
 8
0
  0
POLYLINE
  8
0
 62
     0
 66
     1
 10
0
 20
0
 30
0.0
 70
     1
 40
0
 41
0
  0
VERTEX
  8
0
 10
8.87169
 20
6.49669
 30
0.0
 40
0
 41
0
  0
VERTEX
  8
0
 10
8.87169
 20
4.13135
 30
0.0
 40
0
 41
0
  0
VERTEX
  8
0
 10
8.98904
 20
4.01856
 30
0.0
 40
0
 41
0
  0
VERTEX
  8
0
 10
8.98904
 20
6.49669
 30
0.0
 40
0
 41
0
  0
VERTEX
  8
0
 10
8.87169
 20
6.49669
 30
0.0
 40
0
 41
0
  0
SEQEND
 8
0
  0
POLYLINE
  8
0
 62
     0
 66
     1
 10
0
 20
0
 30
0.0
 70
     1
 40
0.15
 41
0.15
  0
VERTEX
  8
0
 10
8.87169
 20
6.49669
 30
0.0
 40
0.00208333
 41
0.00208333
  0
VERTEX
  8
0
 10
8.87169
 20
4.13135
 30
0.0
 40
0.00208333
 41
0.00208333
  0
VERTEX
  8
0
 10
8.98904
 20
4.01856
 30
0.0
 40
0.00208333
 41
0.00208333
  0
VERTEX
  8
0
 10
8.98904
 20
6.49669
 30
0.0
 40
0.00208333
 41
0.00208333
  0
VERTEX
  8
0
 10
8.87169
 20
6.49669
 30
0.0
 40
0.00208333
 41
0.00208333
  0
SEQEND
 8
0
  0
POLYLINE
  8
0
 62
     7
 66
     1
 10
0
 20
0
 30
0.0
 70
     1
 40
0
 41
0
  0
VERTEX
  8
0
 10
8.87169
 20
4.87147
 30
0.0
 40
0
 41
0
  0
VERTEX
  8
0
 10
8.98904
 20
4.87147
 30
0.0
 40
0
 41
0
  0
VERTEX
  8
0
 10
8.98904
 20
4.18479
 30
0.0
 40
0
 41
0
  0
VERTEX
  8
0
 10
8.87169
 20
4.18479
 30
0.0
 40
0
 41
0
  0
VERTEX
  8
0
 10
8.87169
 20
4.87147
 30
0.0
 40
0
 41
0
  0
SEQEND
 8
0
  0
POLYLINE
  8
0
 62
     0
 66
     1
 10
0
 20
0
 30
0.0
 70
     1
 40
0.75
 41
0.75
  0
VERTEX
  8
0
 10
8.87169
 20
4.87147
 30
0.0
 40
0.0104167
 41
0.0104167
  0
VERTEX
  8
0
 10
8.98904
 20
4.87147
 30
0.0
 40
0.0104167
 41
0.0104167
  0
VERTEX
  8
0
 10
8.98904
 20
4.18479
 30
0.0
 40
0.0104167
 41
0.0104167
  0
VERTEX
  8
0
 10
8.87169
 20
4.18479
 30
0.0
 40
0.0104167
 41
0.0104167
  0
VERTEX
  8
0
 10
8.87169
 20
4.87147
 30
0.0
 40
0.0104167
 41
0.0104167
  0
SEQEND
 8
0
  0
POLYLINE
  8
0
 62
     7
 66
     1
 10
0
 20
0
 30
0.0
 70
     1
 40
0
 41
0
  0
VERTEX
  8
0
 10
8.87169
 20
4.87147
 30
0.0
 40
0
 41
0
  0
VERTEX
  8
0
 10
8.98904
 20
4.87147
 30
0.0
 40
0
 41
0
  0
VERTEX
  8
0
 10
8.98904
 20
4.18479
 30
0.0
 40
0
 41
0
  0
VERTEX
  8
0
 10
8.87169
 20
4.18479
 30
0.0
 40
0
 41
0
  0
VERTEX
  8
0
 10
8.87169
 20
4.87147
 30
0.0
 40
0
 41
0
  0
SEQEND
 8
0
  0
POLYLINE
  8
0
 62
     0
 66
     1
 10
0
 20
0
 30
0.0
 70
     1
 40
0.75
 41
0.75
  0
VERTEX
  8
0
 10
8.87169
 20
4.87147
 30
0.0
 40
0.0104167
 41
0.0104167
  0
VERTEX
  8
0
 10
8.98904
 20
4.87147
 30
0.0
 40
0.0104167
 41
0.0104167
  0
VERTEX
  8
0
 10
8.98904
 20
4.18479
 30
0.0
 40
0.0104167
 41
0.0104167
  0
VERTEX
  8
0
 10
8.87169
 20
4.18479
 30
0.0
 40
0.0104167
 41
0.0104167
  0
VERTEX
  8
0
 10
8.87169
 20
4.87147
 30
0.0
 40
0.0104167
 41
0.0104167
  0
SEQEND
 8
0
  0
POLYLINE
  8
0
 62
     0
 66
     1
 10
0
 20
0
 30
0.0
 70
     1
 40
0.75
 41
0.75
  0
VERTEX
  8
0
 10
8.98904
 20
4.87147
 30
0.0
 40
0.0104167
 41
0.0104167
  0
VERTEX
  8
0
 10
9.02924
 20
4.87147
 30
0.0
 40
0.0104167
 41
0.0104167
  0
VERTEX
  8
0
 10
9.14996
 20
4.86079
 30
0.0
 40
0.0104167
 41
0.0104167
  0
VERTEX
  8
0
 10
9.28944
 20
4.82856
 30
0.0
 40
0.0104167
 41
0.0104167
  0
VERTEX
  8
0
 10
9.40744
 20
4.77496
 30
0.0
 40
0.0104167
 41
0.0104167
  0
VERTEX
  8
0
 10
9.50401
 20
4.69982
 30
0.0
 40
0.0104167
 41
0.0104167
  0
VERTEX
  8
0
 10
9.57915
 20
4.60325
 30
0.0
 40
0.0104167
 41
0.0104167
  0
VERTEX
  8
0
 10
9.63276
 20
4.48525
 30
0.0
 40
0.0104167
 41
0.0104167
  0
VERTEX
  8
0
 10
9.66499
 20
4.34576
 30
0.0
 40
0.0104167
 41
0.0104167
  0
VERTEX
  8
0
 10
9.67572
 20
4.22504
 30
0.0
 40
0.0104167
 41
0.0104167
  0
VERTEX
  8
0
 10
9.67572
 20
4.18479
 30
0.0
 40
0.0104167
 41
0.0104167
  0
VERTEX
  8
0
 10
8.98904
 20
4.18479
 30
0.0
 40
0.0104167
 41
0.0104167
  0
VERTEX
  8
0
 10
8.98904
 20
4.87147
 30
0.0
 40
0.0104167
 41
0.0104167
  0
SEQEND
 8
0
  0
POLYLINE
  8
0
 62
     7
 66
     1
 10
0
 20
0
 30
0.0
 70
     1
 40
0
 41
0
  0
VERTEX
  8
0
 10
8.87169
 20
6.29428
 30
0.0
 40
0
 41
0
  0
VERTEX
  8
0
 10
8.98904
 20
6.29428
 30
0.0
 40
0
 41
0
  0
VERTEX
  8
0
 10
8.98904
 20
5.48019
 30
0.0
 40
0
 41
0
  0
VERTEX
  8
0
 10
8.87169
 20
5.48019
 30
0.0
 40
0
 41
0
  0
VERTEX
  8
0
 10
8.87169
 20
6.29428
 30
0.0
 40
0
 41
0
  0
SEQEND
 8
0
  0
POLYLINE
  8
0
 62
     0
 66
     1
 10
0
 20
0
 30
0.0
 70
     1
 40
0.75
 41
0.75
  0
VERTEX
  8
0
 10
8.87169
 20
6.29428
 30
0.0
 40
0.0104167
 41
0.0104167
  0
VERTEX
  8
0
 10
8.98904
 20
6.29428
 30
0.0
 40
0.0104167
 41
0.0104167
  0
VERTEX
  8
0
 10
8.98904
 20
5.48019
 30
0.0
 40
0.0104167
 41
0.0104167
  0
VERTEX
  8
0
 10
8.87169
 20
5.48019
 30
0.0
 40
0.0104167
 41
0.0104167
  0
VERTEX
  8
0
 10
8.87169
 20
6.29428
 30
0.0
 40
0.0104167
 41
0.0104167
  0
SEQEND
 8
0
  0
POLYLINE
  8
0
 62
     7
 66
     1
 10
0
 20
0
 30
0.0
 70
     1
 40
0
 41
0
  0
VERTEX
  8
0
 10
8.87169
 20
6.29428
 30
0.0
 40
0
 41
0
  0
VERTEX
  8
0
 10
8.98904
 20
6.29428
 30
0.0
 40
0
 41
0
  0
VERTEX
  8
0
 10
8.98904
 20
5.48019
 30
0.0
 40
0
 41
0
  0
VERTEX
  8
0
 10
8.87169
 20
5.48019
 30
0.0
 40
0
 41
0
  0
VERTEX
  8
0
 10
8.87169
 20
6.29428
 30
0.0
 40
0
 41
0
  0
SEQEND
 8
0
  0
POLYLINE
  8
0
 62
     0
 66
     1
 10
0
 20
0
 30
0.0
 70
     1
 40
0.75
 41
0.75
  0
VERTEX
  8
0
 10
8.87169
 20
6.29428
 30
0.0
 40
0.0104167
 41
0.0104167
  0
VERTEX
  8
0
 10
8.98904
 20
6.29428
 30
0.0
 40
0.0104167
 41
0.0104167
  0
VERTEX
  8
0
 10
8.98904
 20
5.48019
 30
0.0
 40
0.0104167
 41
0.0104167
  0
VERTEX
  8
0
 10
8.87169
 20
5.48019
 30
0.0
 40
0.0104167
 41
0.0104167
  0
VERTEX
  8
0
 10
8.87169
 20
6.29428
 30
0.0
 40
0.0104167
 41
0.0104167
  0
SEQEND
 8
0
  0
POLYLINE
  8
0
 62
     0
 66
     1
 10
0
 20
0
 30
0.0
 70
     1
 40
0.75
 41
0.75
  0
VERTEX
  8
0
 10
8.87169
 20
6.29428
 30
0.0
 40
0.0104167
 41
0.0104167
  0
VERTEX
  8
0
 10
8.82394
 20
6.29428
 30
0.0
 40
0.0104167
 41
0.0104167
  0
VERTEX
  8
0
 10
8.68088
 20
6.28157
 30
0.0
 40
0.0104167
 41
0.0104167
  0
VERTEX
  8
0
 10
8.51551
 20
6.24343
 30
0.0
 40
0.0104167
 41
0.0104167
  0
VERTEX
  8
0
 10
8.3756
 20
6.17979
 30
0.0
 40
0.0104167
 41
0.0104167
  0
VERTEX
  8
0
 10
8.26113
 20
6.09076
 30
0.0
 40
0.0104167
 41
0.0104167
  0
VERTEX
  8
0
 10
8.17204
 20
5.97629
 30
0.0
 40
0.0104167
 41
0.0104167
  0
VERTEX
  8
0
 10
8.10846
 20
5.83637
 30
0.0
 40
0.0104167
 41
0.0104167
  0
VERTEX
  8
0
 10
8.07032
 20
5.67101
 30
0.0
 40
0.0104167
 41
0.0104167
  0
VERTEX
  8
0
 10
8.05761
 20
5.52794
 30
0.0
 40
0.0104167
 41
0.0104167
  0
VERTEX
  8
0
 10
8.05761
 20
5.48019
 30
0.0
 40
0.0104167
 41
0.0104167
  0
VERTEX
  8
0
 10
8.87169
 20
5.48019
 30
0.0
 40
0.0104167
 41
0.0104167
  0
VERTEX
  8
0
 10
8.87169
 20
6.29428
 30
0.0
 40
0.0104167
 41
0.0104167
  0
SEQEND
 8
0
  0
POLYLINE
  8
0
 62
     0
 66
     1
 10
0
 20
0
 30
0.0
 70
     1
 40
0
 41
0
  0
VERTEX
  8
0
 10
8.87169
 20
4.13135
 30
0.0
 40
0
 41
0
  0
VERTEX
  8
0
 10
7.39447
 20
4.13135
 30
0.0
 40
0
 41
0
  0
VERTEX
  8
0
 10
7.28624
 20
4.01856
 30
0.0
 40
0
 41
0
  0
VERTEX
  8
0
 10
8.98904
 20
4.01856
 30
0.0
 40
0
 41
0
  0
VERTEX
  8
0
 10
8.87169
 20
4.13135
 30
0.0
 40
0
 41
0
  0
SEQEND
 8
0
  0
POLYLINE
  8
0
 62
     0
 66
     1
 10
0
 20
0
 30
0.0
 70
     1
 40
0.15
 41
0.15
  0
VERTEX
  8
0
 10
8.87169
 20
4.13135
 30
0.0
 40
0.00208333
 41
0.00208333
  0
VERTEX
  8
0
 10
7.39447
 20
4.13135
 30
0.0
 40
0.00208333
 41
0.00208333
  0
VERTEX
  8
0
 10
7.28624
 20
4.01856
 30
0.0
 40
0.00208333
 41
0.00208333
  0
VERTEX
  8
0
 10
8.98904
 20
4.01856
 30
0.0
 40
0.00208333
 41
0.00208333
  0
VERTEX
  8
0
 10
8.87169
 20
4.13135
 30
0.0
 40
0.00208333
 41
0.00208333
  0
SEQEND
 8
0
  0
POLYLINE
  8
0
 62
     0
 66
     1
 10
0
 20
0
 30
0.0
 70
     1
 40
0
 41
0
  0
VERTEX
  8
0
 10
7.39447
 20
4.13135
 30
0.0
 40
0
 41
0
  0
VERTEX
  8
0
 10
7.39447
 20
5.29992
 30
0.0
 40
0
 41
0
  0
VERTEX
  8
0
 10
7.28624
 20
5.4221
 30
0.0
 40
0
 41
0
  0
VERTEX
  8
0
 10
7.28624
 20
4.01856
 30
0.0
 40
0
 41
0
  0
VERTEX
  8
0
 10
7.39447
 20
4.13135
 30
0.0
 40
0
 41
0
  0
SEQEND
 8
0
  0
POLYLINE
  8
0
 62
     0
 66
     1
 10
0
 20
0
 30
0.0
 70
     1
 40
0.15
 41
0.15
  0
VERTEX
  8
0
 10
7.39447
 20
4.13135
 30
0.0
 40
0.00208333
 41
0.00208333
  0
VERTEX
  8
0
 10
7.39447
 20
5.29992
 30
0.0
 40
0.00208333
 41
0.00208333
  0
VERTEX
  8
0
 10
7.28624
 20
5.4221
 30
0.0
 40
0.00208333
 41
0.00208333
  0
VERTEX
  8
0
 10
7.28624
 20
4.01856
 30
0.0
 40
0.00208333
 41
0.00208333
  0
VERTEX
  8
0
 10
7.39447
 20
4.13135
 30
0.0
 40
0.00208333
 41
0.00208333
  0
SEQEND
 8
0
  0
POLYLINE
  8
0
 62
     0
 66
     1
 10
0
 20
0
 30
0.0
 70
     1
 40
0
 41
0
  0
VERTEX
  8
0
 10
7.39447
 20
5.29992
 30
0.0
 40
0
 41
0
  0
VERTEX
  8
0
 10
8.98904
 20
5.29992
 30
0.0
 40
0
 41
0
  0
VERTEX
  8
0
 10
8.98904
 20
5.4221
 30
0.0
 40
0
 41
0
  0
VERTEX
  8
0
 10
7.28624
 20
5.4221
 30
0.0
 40
0
 41
0
  0
VERTEX
  8
0
 10
7.39447
 20
5.29992
 30
0.0
 40
0
 41
0
  0
SEQEND
 8
0
  0
POLYLINE
  8
0
 62
     0
 66
     1
 10
0
 20
0
 30
0.0
 70
     1
 40
0.15
 41
0.15
  0
VERTEX
  8
0
 10
7.39447
 20
5.29992
 30
0.0
 40
0.00208333
 41
0.00208333
  0
VERTEX
  8
0
 10
8.98904
 20
5.29992
 30
0.0
 40
0.00208333
 41
0.00208333
  0
VERTEX
  8
0
 10
8.98904
 20
5.4221
 30
0.0
 40
0.00208333
 41
0.00208333
  0
VERTEX
  8
0
 10
7.28624
 20
5.4221
 30
0.0
 40
0.00208333
 41
0.00208333
  0
VERTEX
  8
0
 10
7.39447
 20
5.29992
 30
0.0
 40
0.00208333
 41
0.00208333
  0
SEQEND
 8
0
  0
POLYLINE
  8
0
 62
     0
 66
     1
 10
0
 20
0
 30
0.0
 70
     1
 40
0
 41
0
  0
VERTEX
  8
0
 10
4.33106
 20
5.28
 30
0.0
 40
0
 41
0
  0
VERTEX
  8
0
 10
6.11524
 20
5.28
 30
0.0
 40
0
 41
0
  0
VERTEX
  8
0
 10
6.21957
 20
5.41542
 30
0.0
 40
0
 41
0
  0
VERTEX
  8
0
 10
4.33106
 20
5.41542
 30
0.0
 40
0
 41
0
  0
VERTEX
  8
0
 10
4.33106
 20
5.28
 30
0.0
 40
0
 41
0
  0
SEQEND
 8
0
  0
POLYLINE
  8
0
 62
     0
 66
     1
 10
0
 20
0
 30
0.0
 70
     1
 40
0.15
 41
0.15
  0
VERTEX
  8
0
 10
4.33106
 20
5.28
 30
0.0
 40
0.00208333
 41
0.00208333
  0
VERTEX
  8
0
 10
6.11524
 20
5.28
 30
0.0
 40
0.00208333
 41
0.00208333
  0
VERTEX
  8
0
 10
6.21957
 20
5.41542
 30
0.0
 40
0.00208333
 41
0.00208333
  0
VERTEX
  8
0
 10
4.33106
 20
5.41542
 30
0.0
 40
0.00208333
 41
0.00208333
  0
VERTEX
  8
0
 10
4.33106
 20
5.28
 30
0.0
 40
0.00208333
 41
0.00208333
  0
SEQEND
 8
0
  0
POLYLINE
  8
0
 62
     0
 66
     1
 10
0
 20
0
 30
0.0
 70
     1
 40
0
 41
0
  0
VERTEX
  8
0
 10
6.11524
 20
5.28
 30
0.0
 40
0
 41
0
  0
VERTEX
  8
0
 10
6.11524
 20
4.16439
 30
0.0
 40
0
 41
0
  0
VERTEX
  8
0
 10
6.21957
 20
4.02897
 30
0.0
 40
0
 41
0
  0
VERTEX
  8
0
 10
6.21957
 20
5.41542
 30
0.0
 40
0
 41
0
  0
VERTEX
  8
0
 10
6.11524
 20
5.28
 30
0.0
 40
0
 41
0
  0
SEQEND
 8
0
  0
POLYLINE
  8
0
 62
     0
 66
     1
 10
0
 20
0
 30
0.0
 70
     1
 40
0.15
 41
0.15
  0
VERTEX
  8
0
 10
6.11524
 20
5.28
 30
0.0
 40
0.00208333
 41
0.00208333
  0
VERTEX
  8
0
 10
6.11524
 20
4.16439
 30
0.0
 40
0.00208333
 41
0.00208333
  0
VERTEX
  8
0
 10
6.21957
 20
4.02897
 30
0.0
 40
0.00208333
 41
0.00208333
  0
VERTEX
  8
0
 10
6.21957
 20
5.41542
 30
0.0
 40
0.00208333
 41
0.00208333
  0
VERTEX
  8
0
 10
6.11524
 20
5.28
 30
0.0
 40
0.00208333
 41
0.00208333
  0
SEQEND
 8
0
  0
POLYLINE
  8
0
 62
     0
 66
     1
 10
0
 20
0
 30
0.0
 70
     1
 40
0
 41
0
  0
VERTEX
  8
0
 10
6.11524
 20
4.16439
 30
0.0
 40
0
 41
0
  0
VERTEX
  8
0
 10
4.33106
 20
4.16439
 30
0.0
 40
0
 41
0
  0
VERTEX
  8
0
 10
4.33106
 20
4.02897
 30
0.0
 40
0
 41
0
  0
VERTEX
  8
0
 10
6.21957
 20
4.02897
 30
0.0
 40
0
 41
0
  0
VERTEX
  8
0
 10
6.11524
 20
4.16439
 30
0.0
 40
0
 41
0
  0
SEQEND
 8
0
  0
POLYLINE
  8
0
 62
     0
 66
     1
 10
0
 20
0
 30
0.0
 70
     1
 40
0.15
 41
0.15
  0
VERTEX
  8
0
 10
6.11524
 20
4.16439
 30
0.0
 40
0.00208333
 41
0.00208333
  0
VERTEX
  8
0
 10
4.33106
 20
4.16439
 30
0.0
 40
0.00208333
 41
0.00208333
  0
VERTEX
  8
0
 10
4.33106
 20
4.02897
 30
0.0
 40
0.00208333
 41
0.00208333
  0
VERTEX
  8
0
 10
6.21957
 20
4.02897
 30
0.0
 40
0.00208333
 41
0.00208333
  0
VERTEX
  8
0
 10
6.11524
 20
4.16439
 30
0.0
 40
0.00208333
 41
0.00208333
  0
SEQEND
 8
0
  0
POLYLINE
  8
0
 62
     7
 66
     1
 10
0
 20
0
 30
0.0
 70
     1
 40
0
 41
0
  0
VERTEX
  8
0
 10
5.06407
 20
4.16439
 30
0.0
 40
0
 41
0
  0
VERTEX
  8
0
 10
5.69021
 20
4.16439
 30
0.0
 40
0
 41
0
  0
VERTEX
  8
0
 10
5.69021
 20
4.02897
 30
0.0
 40
0
 41
0
  0
VERTEX
  8
0
 10
5.06407
 20
4.02897
 30
0.0
 40
0
 41
0
  0
VERTEX
  8
0
 10
5.06407
 20
4.16439
 30
0.0
 40
0
 41
0
  0
SEQEND
 8
0
  0
POLYLINE
  8
0
 62
     0
 66
     1
 10
0
 20
0
 30
0.0
 70
     1
 40
0.75
 41
0.75
  0
VERTEX
  8
0
 10
5.06407
 20
4.16439
 30
0.0
 40
0.0104167
 41
0.0104167
  0
VERTEX
  8
0
 10
5.69021
 20
4.16439
 30
0.0
 40
0.0104167
 41
0.0104167
  0
VERTEX
  8
0
 10
5.69021
 20
4.02897
 30
0.0
 40
0.0104167
 41
0.0104167
  0
VERTEX
  8
0
 10
5.06407
 20
4.02897
 30
0.0
 40
0.0104167
 41
0.0104167
  0
VERTEX
  8
0
 10
5.06407
 20
4.16439
 30
0.0
 40
0.0104167
 41
0.0104167
  0
SEQEND
 8
0
  0
POLYLINE
  8
0
 62
     7
 66
     1
 10
0
 20
0
 30
0.0
 70
     1
 40
0
 41
0
  0
VERTEX
  8
0
 10
5.06407
 20
4.16439
 30
0.0
 40
0
 41
0
  0
VERTEX
  8
0
 10
5.69021
 20
4.16439
 30
0.0
 40
0
 41
0
  0
VERTEX
  8
0
 10
5.69021
 20
4.02897
 30
0.0
 40
0
 41
0
  0
VERTEX
  8
0
 10
5.06407
 20
4.02897
 30
0.0
 40
0
 41
0
  0
VERTEX
  8
0
 10
5.06407
 20
4.16439
 30
0.0
 40
0
 41
0
  0
SEQEND
 8
0
  0
POLYLINE
  8
0
 62
     0
 66
     1
 10
0
 20
0
 30
0.0
 70
     1
 40
0.75
 41
0.75
  0
VERTEX
  8
0
 10
5.06407
 20
4.16439
 30
0.0
 40
0.0104167
 41
0.0104167
  0
VERTEX
  8
0
 10
5.69021
 20
4.16439
 30
0.0
 40
0.0104167
 41
0.0104167
  0
VERTEX
  8
0
 10
5.69021
 20
4.02897
 30
0.0
 40
0.0104167
 41
0.0104167
  0
VERTEX
  8
0
 10
5.06407
 20
4.02897
 30
0.0
 40
0.0104167
 41
0.0104167
  0
VERTEX
  8
0
 10
5.06407
 20
4.16439
 30
0.0
 40
0.0104167
 41
0.0104167
  0
SEQEND
 8
0
  0
POLYLINE
  8
0
 62
     0
 66
     1
 10
0
 20
0
 30
0.0
 70
     1
 40
0.75
 41
0.75
  0
VERTEX
  8
0
 10
5.69021
 20
4.02897
 30
0.0
 40
0.0104167
 41
0.0104167
  0
VERTEX
  8
0
 10
5.69021
 20
3.99229
 30
0.0
 40
0.0104167
 41
0.0104167
  0
VERTEX
  8
0
 10
5.68039
 20
3.88226
 30
0.0
 40
0.0104167
 41
0.0104167
  0
VERTEX
  8
0
 10
5.65104
 20
3.75504
 30
0.0
 40
0.0104167
 41
0.0104167
  0
VERTEX
  8
0
 10
5.60215
 20
3.64746
 30
0.0
 40
0.0104167
 41
0.0104167
  0
VERTEX
  8
0
 10
5.53364
 20
3.5594
 30
0.0
 40
0.0104167
 41
0.0104167
  0
VERTEX
  8
0
 10
5.44558
 20
3.49089
 30
0.0
 40
0.0104167
 41
0.0104167
  0
VERTEX
  8
0
 10
5.338
 20
3.442
 30
0.0
 40
0.0104167
 41
0.0104167
  0
VERTEX
  8
0
 10
5.21078
 20
3.41265
 30
0.0
 40
0.0104167
 41
0.0104167
  0
VERTEX
  8
0
 10
5.10075
 20
3.40283
 30
0.0
 40
0.0104167
 41
0.0104167
  0
VERTEX
  8
0
 10
5.06407
 20
3.40283
 30
0.0
 40
0.0104167
 41
0.0104167
  0
VERTEX
  8
0
 10
5.06407
 20
4.02897
 30
0.0
 40
0.0104167
 41
0.0104167
  0
VERTEX
  8
0
 10
5.69021
 20
4.02897
 30
0.0
 40
0.0104167
 41
0.0104167
  0
SEQEND
 8
0
  0
POLYLINE
  8
0
 62
     0
 66
     1
 10
0
 20
0
 30
0.0
 70
     1
 40
0
 41
0
  0
VERTEX
  8
0
 10
6.11524
 20
4.77582
 30
0.0
 40
0
 41
0
  0
VERTEX
  8
0
 10
7.39447
 20
4.77582
 30
0.0
 40
0
 41
0
  0
VERTEX
  8
0
 10
7.39447
 20
4.68207
 30
0.0
 40
0
 41
0
  0
VERTEX
  8
0
 10
6.11524
 20
4.68207
 30
0.0
 40
0
 41
0
  0
VERTEX
  8
0
 10
6.11524
 20
4.77582
 30
0.0
 40
0
 41
0
  0
SEQEND
 8
0
  0
POLYLINE
  8
0
 62
     0
 66
     1
 10
0
 20
0
 30
0.0
 70
     1
 40
0.15
 41
0.15
  0
VERTEX
  8
0
 10
6.11524
 20
4.77582
 30
0.0
 40
0.00208333
 41
0.00208333
  0
VERTEX
  8
0
 10
7.39447
 20
4.77582
 30
0.0
 40
0.00208333
 41
0.00208333
  0
VERTEX
  8
0
 10
7.39447
 20
4.68207
 30
0.0
 40
0.00208333
 41
0.00208333
  0
VERTEX
  8
0
 10
6.11524
 20
4.68207
 30
0.0
 40
0.00208333
 41
0.00208333
  0
VERTEX
  8
0
 10
6.11524
 20
4.77582
 30
0.0
 40
0.00208333
 41
0.00208333
  0
SEQEND
 8
0
  0
POLYLINE
  8
0
 62
     0
 66
     1
 10
0
 20
0
 30
0.0
 70
     1
 40
0
 41
0
  0
VERTEX
  8
0
 10
8.8954
 20
4.13135
 30
0.0
 40
0
 41
0
  0
VERTEX
  8
0
 10
8.8954
 20
3.03863
 30
0.0
 40
0
 41
0
  0
VERTEX
  8
0
 10
8.98915
 20
2.94488
 30
0.0
 40
0
 41
0
  0
VERTEX
  8
0
 10
8.98915
 20
4.13135
 30
0.0
 40
0
 41
0
  0
VERTEX
  8
0
 10
8.8954
 20
4.13135
 30
0.0
 40
0
 41
0
  0
SEQEND
 8
0
  0
POLYLINE
  8
0
 62
     0
 66
     1
 10
0
 20
0
 30
0.0
 70
     1
 40
0.15
 41
0.15
  0
VERTEX
  8
0
 10
8.8954
 20
4.13135
 30
0.0
 40
0.00208333
 41
0.00208333
  0
VERTEX
  8
0
 10
8.8954
 20
3.03863
 30
0.0
 40
0.00208333
 41
0.00208333
  0
VERTEX
  8
0
 10
8.98915
 20
2.94488
 30
0.0
 40
0.00208333
 41
0.00208333
  0
VERTEX
  8
0
 10
8.98915
 20
4.13135
 30
0.0
 40
0.00208333
 41
0.00208333
  0
VERTEX
  8
0
 10
8.8954
 20
4.13135
 30
0.0
 40
0.00208333
 41
0.00208333
  0
SEQEND
 8
0
  0
POLYLINE
  8
0
 62
     7
 66
     1
 10
0
 20
0
 30
0.0
 70
     1
 40
0
 41
0
  0
VERTEX
  8
0
 10
8.8954
 20
3.95247
 30
0.0
 40
0
 41
0
  0
VERTEX
  8
0
 10
8.98915
 20
3.95247
 30
0.0
 40
0
 41
0
  0
VERTEX
  8
0
 10
8.98915
 20
3.1345
 30
0.0
 40
0
 41
0
  0
VERTEX
  8
0
 10
8.8954
 20
3.1345
 30
0.0
 40
0
 41
0
  0
VERTEX
  8
0
 10
8.8954
 20
3.95247
 30
0.0
 40
0
 41
0
  0
SEQEND
 8
0
  0
POLYLINE
  8
0
 62
     0
 66
     1
 10
0
 20
0
 30
0.0
 70
     1
 40
0.75
 41
0.75
  0
VERTEX
  8
0
 10
8.8954
 20
3.95247
 30
0.0
 40
0.0104167
 41
0.0104167
  0
VERTEX
  8
0
 10
8.98915
 20
3.95247
 30
0.0
 40
0.0104167
 41
0.0104167
  0
VERTEX
  8
0
 10
8.98915
 20
3.1345
 30
0.0
 40
0.0104167
 41
0.0104167
  0
VERTEX
  8
0
 10
8.8954
 20
3.1345
 30
0.0
 40
0.0104167
 41
0.0104167
  0
VERTEX
  8
0
 10
8.8954
 20
3.95247
 30
0.0
 40
0.0104167
 41
0.0104167
  0
SEQEND
 8
0
  0
POLYLINE
  8
0
 62
     7
 66
     1
 10
0
 20
0
 30
0.0
 70
     1
 40
0
 41
0
  0
VERTEX
  8
0
 10
8.8954
 20
3.95247
 30
0.0
 40
0
 41
0
  0
VERTEX
  8
0
 10
8.98915
 20
3.95247
 30
0.0
 40
0
 41
0
  0
VERTEX
  8
0
 10
8.98915
 20
3.1345
 30
0.0
 40
0
 41
0
  0
VERTEX
  8
0
 10
8.8954
 20
3.1345
 30
0.0
 40
0
 41
0
  0
VERTEX
  8
0
 10
8.8954
 20
3.95247
 30
0.0
 40
0
 41
0
  0
SEQEND
 8
0
  0
POLYLINE
  8
0
 62
     0
 66
     1
 10
0
 20
0
 30
0.0
 70
     1
 40
0.75
 41
0.75
  0
VERTEX
  8
0
 10
8.8954
 20
3.95247
 30
0.0
 40
0.0104167
 41
0.0104167
  0
VERTEX
  8
0
 10
8.98915
 20
3.95247
 30
0.0
 40
0.0104167
 41
0.0104167
  0
VERTEX
  8
0
 10
8.98915
 20
3.1345
 30
0.0
 40
0.0104167
 41
0.0104167
  0
VERTEX
  8
0
 10
8.8954
 20
3.1345
 30
0.0
 40
0.0104167
 41
0.0104167
  0
VERTEX
  8
0
 10
8.8954
 20
3.95247
 30
0.0
 40
0.0104167
 41
0.0104167
  0
SEQEND
 8
0
  0
POLYLINE
  8
0
 62
     0
 66
     1
 10
0
 20
0
 30
0.0
 70
     1
 40
0.75
 41
0.75
  0
VERTEX
  8
0
 10
8.8954
 20
3.1345
 30
0.0
 40
0.0104167
 41
0.0104167
  0
VERTEX
  8
0
 10
8.84744
 20
3.1345
 30
0.0
 40
0.0104167
 41
0.0104167
  0
VERTEX
  8
0
 10
8.70367
 20
3.14729
 30
0.0
 40
0.0104167
 41
0.0104167
  0
VERTEX
  8
0
 10
8.53749
 20
3.18565
 30
0.0
 40
0.0104167
 41
0.0104167
  0
VERTEX
  8
0
 10
8.39692
 20
3.24957
 30
0.0
 40
0.0104167
 41
0.0104167
  0
VERTEX
  8
0
 10
8.2819
 20
3.33903
 30
0.0
 40
0.0104167
 41
0.0104167
  0
VERTEX
  8
0
 10
8.19243
 20
3.45404
 30
0.0
 40
0.0104167
 41
0.0104167
  0
VERTEX
  8
0
 10
8.12853
 20
3.59462
 30
0.0
 40
0.0104167
 41
0.0104167
  0
VERTEX
  8
0
 10
8.09017
 20
3.76079
 30
0.0
 40
0.0104167
 41
0.0104167
  0
VERTEX
  8
0
 10
8.07742
 20
3.90457
 30
0.0
 40
0.0104167
 41
0.0104167
  0
VERTEX
  8
0
 10
8.07742
 20
3.95247
 30
0.0
 40
0.0104167
 41
0.0104167
  0
VERTEX
  8
0
 10
8.8954
 20
3.95247
 30
0.0
 40
0.0104167
 41
0.0104167
  0
VERTEX
  8
0
 10
8.8954
 20
3.1345
 30
0.0
 40
0.0104167
 41
0.0104167
  0
SEQEND
 8
0
  0
POLYLINE
  8
0
 62
     0
 66
     1
 10
0
 20
0
 30
0.0
 70
     1
 40
0
 41
0
  0
VERTEX
  8
0
 10
8.8954
 20
3.03863
 30
0.0
 40
0
 41
0
  0
VERTEX
  8
0
 10
8.58718
 20
3.03863
 30
0.0
 40
0
 41
0
  0
VERTEX
  8
0
 10
8.70383
 20
2.94488
 30
0.0
 40
0
 41
0
  0
VERTEX
  8
0
 10
8.98915
 20
2.94488
 30
0.0
 40
0
 41
0
  0
VERTEX
  8
0
 10
8.8954
 20
3.03863
 30
0.0
 40
0
 41
0
  0
SEQEND
 8
0
  0
POLYLINE
  8
0
 62
     0
 66
     1
 10
0
 20
0
 30
0.0
 70
     1
 40
0.15
 41
0.15
  0
VERTEX
  8
0
 10
8.8954
 20
3.03863
 30
0.0
 40
0.00208333
 41
0.00208333
  0
VERTEX
  8
0
 10
8.58718
 20
3.03863
 30
0.0
 40
0.00208333
 41
0.00208333
  0
VERTEX
  8
0
 10
8.70383
 20
2.94488
 30
0.0
 40
0.00208333
 41
0.00208333
  0
VERTEX
  8
0
 10
8.98915
 20
2.94488
 30
0.0
 40
0.00208333
 41
0.00208333
  0
VERTEX
  8
0
 10
8.8954
 20
3.03863
 30
0.0
 40
0.00208333
 41
0.00208333
  0
SEQEND
 8
0
  0
POLYLINE
  8
0
 62
     0
 66
     1
 10
0
 20
0
 30
0.0
 70
     1
 40
0
 41
0
  0
VERTEX
  8
0
 10
8.58718
 20
3.03863
 30
0.0
 40
0
 41
0
  0
VERTEX
  8
0
 10
8.58718
 20
0.650011
 30
0.0
 40
0
 41
0
  0
VERTEX
  8
0
 10
8.70383
 20
0.650011
 30
0.0
 40
0
 41
0
  0
VERTEX
  8
0
 10
8.70383
 20
2.94488
 30
0.0
 40
0
 41
0
  0
VERTEX
  8
0
 10
8.58718
 20
3.03863
 30
0.0
 40
0
 41
0
  0
SEQEND
 8
0
  0
POLYLINE
  8
0
 62
     0
 66
     1
 10
0
 20
0
 30
0.0
 70
     1
 40
0.15
 41
0.15
  0
VERTEX
  8
0
 10
8.58718
 20
3.03863
 30
0.0
 40
0.00208333
 41
0.00208333
  0
VERTEX
  8
0
 10
8.58718
 20
0.650011
 30
0.0
 40
0.00208333
 41
0.00208333
  0
VERTEX
  8
0
 10
8.70383
 20
0.650011
 30
0.0
 40
0.00208333
 41
0.00208333
  0
VERTEX
  8
0
 10
8.70383
 20
2.94488
 30
0.0
 40
0.00208333
 41
0.00208333
  0
VERTEX
  8
0
 10
8.58718
 20
3.03863
 30
0.0
 40
0.00208333
 41
0.00208333
  0
SEQEND
 8
0
  0
POLYLINE
  8
0
 62
     0
 66
     1
 10
0
 20
0
 30
0.0
 70
     1
 40
0
 41
0
  0
VERTEX
  8
0
 10
12.6819
 20
5.17518
 30
0.0
 40
0
 41
0
  0
VERTEX
  8
0
 10
10.6585
 20
5.17518
 30
0.0
 40
0
 41
0
  0
VERTEX
  8
0
 10
10.7523
 20
5.08143
 30
0.0
 40
0
 41
0
  0
VERTEX
  8
0
 10
12.6819
 20
5.08143
 30
0.0
 40
0
 41
0
  0
VERTEX
  8
0
 10
12.6819
 20
5.17518
 30
0.0
 40
0
 41
0
  0
SEQEND
 8
0
  0
POLYLINE
  8
0
 62
     0
 66
     1
 10
0
 20
0
 30
0.0
 70
     1
 40
0.15
 41
0.15
  0
VERTEX
  8
0
 10
12.6819
 20
5.17518
 30
0.0
 40
0.00208333
 41
0.00208333
  0
VERTEX
  8
0
 10
10.6585
 20
5.17518
 30
0.0
 40
0.00208333
 41
0.00208333
  0
VERTEX
  8
0
 10
10.7523
 20
5.08143
 30
0.0
 40
0.00208333
 41
0.00208333
  0
VERTEX
  8
0
 10
12.6819
 20
5.08143
 30
0.0
 40
0.00208333
 41
0.00208333
  0
VERTEX
  8
0
 10
12.6819
 20
5.17518
 30
0.0
 40
0.00208333
 41
0.00208333
  0
SEQEND
 8
0
  0
POLYLINE
  8
0
 62
     0
 66
     1
 10
0
 20
0
 30
0.0
 70
     1
 40
0
 41
0
  0
VERTEX
  8
0
 10
10.6585
 20
5.17518
 30
0.0
 40
0
 41
0
  0
VERTEX
  8
0
 10
10.6585
 20
2.9005
 30
0.0
 40
0
 41
0
  0
VERTEX
  8
0
 10
10.7523
 20
3.01958
 30
0.0
 40
0
 41
0
  0
VERTEX
  8
0
 10
10.7523
 20
5.08143
 30
0.0
 40
0
 41
0
  0
VERTEX
  8
0
 10
10.6585
 20
5.17518
 30
0.0
 40
0
 41
0
  0
SEQEND
 8
0
  0
POLYLINE
  8
0
 62
     0
 66
     1
 10
0
 20
0
 30
0.0
 70
     1
 40
0.15
 41
0.15
  0
VERTEX
  8
0
 10
10.6585
 20
5.17518
 30
0.0
 40
0.00208333
 41
0.00208333
  0
VERTEX
  8
0
 10
10.6585
 20
2.9005
 30
0.0
 40
0.00208333
 41
0.00208333
  0
VERTEX
  8
0
 10
10.7523
 20
3.01958
 30
0.0
 40
0.00208333
 41
0.00208333
  0
VERTEX
  8
0
 10
10.7523
 20
5.08143
 30
0.0
 40
0.00208333
 41
0.00208333
  0
VERTEX
  8
0
 10
10.6585
 20
5.17518
 30
0.0
 40
0.00208333
 41
0.00208333
  0
SEQEND
 8
0
  0
POLYLINE
  8
0
 62
     7
 66
     1
 10
0
 20
0
 30
0.0
 70
     1
 40
0
 41
0
  0
VERTEX
  8
0
 10
10.6585
 20
4.34636
 30
0.0
 40
0
 41
0
  0
VERTEX
  8
0
 10
10.7523
 20
4.34636
 30
0.0
 40
0
 41
0
  0
VERTEX
  8
0
 10
10.7523
 20
3.61925
 30
0.0
 40
0
 41
0
  0
VERTEX
  8
0
 10
10.6585
 20
3.61925
 30
0.0
 40
0
 41
0
  0
VERTEX
  8
0
 10
10.6585
 20
4.34636
 30
0.0
 40
0
 41
0
  0
SEQEND
 8
0
  0
POLYLINE
  8
0
 62
     0
 66
     1
 10
0
 20
0
 30
0.0
 70
     1
 40
0.75
 41
0.75
  0
VERTEX
  8
0
 10
10.6585
 20
4.34636
 30
0.0
 40
0.0104167
 41
0.0104167
  0
VERTEX
  8
0
 10
10.7523
 20
4.34636
 30
0.0
 40
0.0104167
 41
0.0104167
  0
VERTEX
  8
0
 10
10.7523
 20
3.61925
 30
0.0
 40
0.0104167
 41
0.0104167
  0
VERTEX
  8
0
 10
10.6585
 20
3.61925
 30
0.0
 40
0.0104167
 41
0.0104167
  0
VERTEX
  8
0
 10
10.6585
 20
4.34636
 30
0.0
 40
0.0104167
 41
0.0104167
  0
SEQEND
 8
0
  0
POLYLINE
  8
0
 62
     7
 66
     1
 10
0
 20
0
 30
0.0
 70
     1
 40
0
 41
0
  0
VERTEX
  8
0
 10
10.6585
 20
4.34636
 30
0.0
 40
0
 41
0
  0
VERTEX
  8
0
 10
10.7523
 20
4.34636
 30
0.0
 40
0
 41
0
  0
VERTEX
  8
0
 10
10.7523
 20
3.61925
 30
0.0
 40
0
 41
0
  0
VERTEX
  8
0
 10
10.6585
 20
3.61925
 30
0.0
 40
0
 41
0
  0
VERTEX
  8
0
 10
10.6585
 20
4.34636
 30
0.0
 40
0
 41
0
  0
SEQEND
 8
0
  0
POLYLINE
  8
0
 62
     0
 66
     1
 10
0
 20
0
 30
0.0
 70
     1
 40
0.75
 41
0.75
  0
VERTEX
  8
0
 10
10.6585
 20
4.34636
 30
0.0
 40
0.0104167
 41
0.0104167
  0
VERTEX
  8
0
 10
10.7523
 20
4.34636
 30
0.0
 40
0.0104167
 41
0.0104167
  0
VERTEX
  8
0
 10
10.7523
 20
3.61925
 30
0.0
 40
0.0104167
 41
0.0104167
  0
VERTEX
  8
0
 10
10.6585
 20
3.61925
 30
0.0
 40
0.0104167
 41
0.0104167
  0
VERTEX
  8
0
 10
10.6585
 20
4.34636
 30
0.0
 40
0.0104167
 41
0.0104167
  0
SEQEND
 8
0
  0
POLYLINE
  8
0
 62
     0
 66
     1
 10
0
 20
0
 30
0.0
 70
     1
 40
0.75
 41
0.75
  0
VERTEX
  8
0
 10
10.6585
 20
3.61925
 30
0.0
 40
0.0104167
 41
0.0104167
  0
VERTEX
  8
0
 10
10.6159
 20
3.61925
 30
0.0
 40
0.0104167
 41
0.0104167
  0
VERTEX
  8
0
 10
10.4881
 20
3.63064
 30
0.0
 40
0.0104167
 41
0.0104167
  0
VERTEX
  8
0
 10
10.3404
 20
3.66471
 30
0.0
 40
0.0104167
 41
0.0104167
  0
VERTEX
  8
0
 10
10.2154
 20
3.72151
 30
0.0
 40
0.0104167
 41
0.0104167
  0
VERTEX
  8
0
 10
10.1132
 20
3.80106
 30
0.0
 40
0.0104167
 41
0.0104167
  0
VERTEX
  8
0
 10
10.0337
 20
3.90332
 30
0.0
 40
0.0104167
 41
0.0104167
  0
VERTEX
  8
0
 10
9.97689
 20
4.02826
 30
0.0
 40
0.0104167
 41
0.0104167
  0
VERTEX
  8
0
 10
9.94282
 20
4.176
 30
0.0
 40
0.0104167
 41
0.0104167
  0
VERTEX
  8
0
 10
9.93147
 20
4.30376
 30
0.0
 40
0.0104167
 41
0.0104167
  0
VERTEX
  8
0
 10
9.93147
 20
4.34636
 30
0.0
 40
0.0104167
 41
0.0104167
  0
VERTEX
  8
0
 10
10.6585
 20
4.34636
 30
0.0
 40
0.0104167
 41
0.0104167
  0
VERTEX
  8
0
 10
10.6585
 20
3.61925
 30
0.0
 40
0.0104167
 41
0.0104167
  0
SEQEND
 8
0
  0
POLYLINE
  8
0
 62
     0
 66
     1
 10
0
 20
0
 30
0.0
 70
     1
 40
0
 41
0
  0
VERTEX
  8
0
 10
10.6585
 20
2.9005
 30
0.0
 40
0
 41
0
  0
VERTEX
  8
0
 10
12.6819
 20
2.9005
 30
0.0
 40
0
 41
0
  0
VERTEX
  8
0
 10
12.6819
 20
3.01958
 30
0.0
 40
0
 41
0
  0
VERTEX
  8
0
 10
10.7523
 20
3.01958
 30
0.0
 40
0
 41
0
  0
VERTEX
  8
0
 10
10.6585
 20
2.9005
 30
0.0
 40
0
 41
0
  0
SEQEND
 8
0
  0
POLYLINE
  8
0
 62
     0
 66
     1
 10
0
 20
0
 30
0.0
 70
     1
 40
0.15
 41
0.15
  0
VERTEX
  8
0
 10
10.6585
 20
2.9005
 30
0.0
 40
0.00208333
 41
0.00208333
  0
VERTEX
  8
0
 10
12.6819
 20
2.9005
 30
0.0
 40
0.00208333
 41
0.00208333
  0
VERTEX
  8
0
 10
12.6819
 20
3.01958
 30
0.0
 40
0.00208333
 41
0.00208333
  0
VERTEX
  8
0
 10
10.7523
 20
3.01958
 30
0.0
 40
0.00208333
 41
0.00208333
  0
VERTEX
  8
0
 10
10.6585
 20
2.9005
 30
0.0
 40
0.00208333
 41
0.00208333
  0
SEQEND
 8
0
  0
POLYLINE
  8
0
 62
     7
 66
     1
 10
0
 20
0
 30
0.0
 70
     1
 40
0
 41
0
  0
VERTEX
  8
0
 10
10.8303
 20
3.01958
 30
0.0
 40
0
 41
0
  0
VERTEX
  8
0
 10
11.4262
 20
3.01958
 30
0.0
 40
0
 41
0
  0
VERTEX
  8
0
 10
11.4262
 20
2.9005
 30
0.0
 40
0
 41
0
  0
VERTEX
  8
0
 10
10.8303
 20
2.9005
 30
0.0
 40
0
 41
0
  0
VERTEX
  8
0
 10
10.8303
 20
3.01958
 30
0.0
 40
0
 41
0
  0
SEQEND
 8
0
  0
POLYLINE
  8
0
 62
     0
 66
     1
 10
0
 20
0
 30
0.0
 70
     1
 40
0.75
 41
0.75
  0
VERTEX
  8
0
 10
10.8303
 20
3.01958
 30
0.0
 40
0.0104167
 41
0.0104167
  0
VERTEX
  8
0
 10
11.4262
 20
3.01958
 30
0.0
 40
0.0104167
 41
0.0104167
  0
VERTEX
  8
0
 10
11.4262
 20
2.9005
 30
0.0
 40
0.0104167
 41
0.0104167
  0
VERTEX
  8
0
 10
10.8303
 20
2.9005
 30
0.0
 40
0.0104167
 41
0.0104167
  0
VERTEX
  8
0
 10
10.8303
 20
3.01958
 30
0.0
 40
0.0104167
 41
0.0104167
  0
SEQEND
 8
0
  0
POLYLINE
  8
0
 62
     7
 66
     1
 10
0
 20
0
 30
0.0
 70
     1
 40
0
 41
0
  0
VERTEX
  8
0
 10
10.8303
 20
3.01958
 30
0.0
 40
0
 41
0
  0
VERTEX
  8
0
 10
11.4262
 20
3.01958
 30
0.0
 40
0
 41
0
  0
VERTEX
  8
0
 10
11.4262
 20
2.9005
 30
0.0
 40
0
 41
0
  0
VERTEX
  8
0
 10
10.8303
 20
2.9005
 30
0.0
 40
0
 41
0
  0
VERTEX
  8
0
 10
10.8303
 20
3.01958
 30
0.0
 40
0
 41
0
  0
SEQEND
 8
0
  0
POLYLINE
  8
0
 62
     0
 66
     1
 10
0
 20
0
 30
0.0
 70
     1
 40
0.75
 41
0.75
  0
VERTEX
  8
0
 10
10.8303
 20
3.01958
 30
0.0
 40
0.0104167
 41
0.0104167
  0
VERTEX
  8
0
 10
11.4262
 20
3.01958
 30
0.0
 40
0.0104167
 41
0.0104167
  0
VERTEX
  8
0
 10
11.4262
 20
2.9005
 30
0.0
 40
0.0104167
 41
0.0104167
  0
VERTEX
  8
0
 10
10.8303
 20
2.9005
 30
0.0
 40
0.0104167
 41
0.0104167
  0
VERTEX
  8
0
 10
10.8303
 20
3.01958
 30
0.0
 40
0.0104167
 41
0.0104167
  0
SEQEND
 8
0
  0
POLYLINE
  8
0
 62
     0
 66
     1
 10
0
 20
0
 30
0.0
 70
     1
 40
0.75
 41
0.75
  0
VERTEX
  8
0
 10
11.4262
 20
3.01958
 30
0.0
 40
0.0104167
 41
0.0104167
  0
VERTEX
  8
0
 10
11.4262
 20
3.05453
 30
0.0
 40
0.0104167
 41
0.0104167
  0
VERTEX
  8
0
 10
11.4168
 20
3.15929
 30
0.0
 40
0.0104167
 41
0.0104167
  0
VERTEX
  8
0
 10
11.3889
 20
3.28028
 30
0.0
 40
0.0104167
 41
0.0104167
  0
VERTEX
  8
0
 10
11.3423
 20
3.38271
 30
0.0
 40
0.0104167
 41
0.0104167
  0
VERTEX
  8
0
 10
11.2772
 20
3.46647
 30
0.0
 40
0.0104167
 41
0.0104167
  0
VERTEX
  8
0
 10
11.1934
 20
3.53162
 30
0.0
 40
0.0104167
 41
0.0104167
  0
VERTEX
  8
0
 10
11.091
 20
3.57818
 30
0.0
 40
0.0104167
 41
0.0104167
  0
VERTEX
  8
0
 10
10.9699
 20
3.60612
 30
0.0
 40
0.0104167
 41
0.0104167
  0
VERTEX
  8
0
 10
10.8652
 20
3.6154
 30
0.0
 40
0.0104167
 41
0.0104167
  0
VERTEX
  8
0
 10
10.8303
 20
3.6154
 30
0.0
 40
0.0104167
 41
0.0104167
  0
VERTEX
  8
0
 10
10.8303
 20
3.01958
 30
0.0
 40
0.0104167
 41
0.0104167
  0
VERTEX
  8
0
 10
11.4262
 20
3.01958
 30
0.0
 40
0.0104167
 41
0.0104167
  0
SEQEND
 8
0
  0
POLYLINE
  8
0
 62
     0
 66
     1
 10
0
 20
0
 30
0.0
 70
     1
 40
0
 41
0
  0
VERTEX
  8
0
 10
10.6569
 20
3.01958
 30
0.0
 40
0
 41
0
  0
VERTEX
  8
0
 10
10.7935
 20
3.01958
 30
0.0
 40
0
 41
0
  0
VERTEX
  8
0
 10
10.7935
 20
0.882704
 30
0.0
 40
0
 41
0
  0
VERTEX
  8
0
 10
10.6569
 20
0.882704
 30
0.0
 40
0
 41
0
  0
VERTEX
  8
0
 10
10.6569
 20
3.01958
 30
0.0
 40
0
 41
0
  0
SEQEND
 8
0
  0
POLYLINE
  8
0
 62
     0
 66
     1
 10
0
 20
0
 30
0.0
 70
     1
 40
0.15
 41
0.15
  0
VERTEX
  8
0
 10
10.6569
 20
3.01958
 30
0.0
 40
0.00208333
 41
0.00208333
  0
VERTEX
  8
0
 10
10.7935
 20
3.01958
 30
0.0
 40
0.00208333
 41
0.00208333
  0
VERTEX
  8
0
 10
10.7935
 20
0.882704
 30
0.0
 40
0.00208333
 41
0.00208333
  0
VERTEX
  8
0
 10
10.6569
 20
0.882704
 30
0.0
 40
0.00208333
 41
0.00208333
  0
VERTEX
  8
0
 10
10.6569
 20
3.01958
 30
0.0
 40
0.00208333
 41
0.00208333
  0
SEQEND
 8
0
  0
POLYLINE
  8
0
 62
     0
 66
     1
 10
0
 20
0
 30
0.0
 70
     1
 40
0
 41
0
  0
VERTEX
  8
0
 10
16.9978
 20
5.16476
 30
0.0
 40
0
 41
0
  0
VERTEX
  8
0
 10
19.3286
 20
5.16476
 30
0.0
 40
0
 41
0
  0
VERTEX
  8
0
 10
19.3286
 20
5.01281
 30
0.0
 40
0
 41
0
  0
VERTEX
  8
0
 10
16.9978
 20
5.01281
 30
0.0
 40
0
 41
0
  0
VERTEX
  8
0
 10
16.9978
 20
5.16476
 30
0.0
 40
0
 41
0
  0
SEQEND
 8
0
  0
POLYLINE
  8
0
 62
     0
 66
     1
 10
0
 20
0
 30
0.0
 70
     1
 40
0.15
 41
0.15
  0
VERTEX
  8
0
 10
16.9978
 20
5.16476
 30
0.0
 40
0.00208333
 41
0.00208333
  0
VERTEX
  8
0
 10
19.3286
 20
5.16476
 30
0.0
 40
0.00208333
 41
0.00208333
  0
VERTEX
  8
0
 10
19.3286
 20
5.01281
 30
0.0
 40
0.00208333
 41
0.00208333
  0
VERTEX
  8
0
 10
16.9978
 20
5.01281
 30
0.0
 40
0.00208333
 41
0.00208333
  0
VERTEX
  8
0
 10
16.9978
 20
5.16476
 30
0.0
 40
0.00208333
 41
0.00208333
  0
SEQEND
 8
0
  0
POLYLINE
  8
0
 62
     0
 66
     1
 10
0
 20
0
 30
0.0
 70
     1
 40
0
 41
0
  0
VERTEX
  8
0
 10
19.3286
 20
8.74533
 30
0.0
 40
0
 41
0
  0
VERTEX
  8
0
 10
18.5774
 20
9.46658
 30
0.0
 40
0
 41
0
  0
VERTEX
  8
0
 10
18.4551
 20
9.33925
 30
0.0
 40
0
 41
0
  0
VERTEX
  8
0
 10
19.2064
 20
8.618
 30
0.0
 40
0
 41
0
  0
VERTEX
  8
0
 10
19.3286
 20
8.74533
 30
0.0
 40
0
 41
0
  0
SEQEND
 8
0
  0
POLYLINE
  8
0
 62
     0
 66
     1
 10
0
 20
0
 30
0.0
 70
     1
 40
0.15
 41
0.15
  0
VERTEX
  8
0
 10
19.3286
 20
8.74533
 30
0.0
 40
0.00208333
 41
0.00208333
  0
VERTEX
  8
0
 10
18.5774
 20
9.46658
 30
0.0
 40
0.00208333
 41
0.00208333
  0
VERTEX
  8
0
 10
18.4551
 20
9.33925
 30
0.0
 40
0.00208333
 41
0.00208333
  0
VERTEX
  8
0
 10
19.2064
 20
8.618
 30
0.0
 40
0.00208333
 41
0.00208333
  0
VERTEX
  8
0
 10
19.3286
 20
8.74533
 30
0.0
 40
0.00208333
 41
0.00208333
  0
SEQEND
 8
0
  0
POLYLINE
  8
0
 62
     7
 66
     1
 10
0
 20
0
 30
0.0
 70
     1
 40
0
 41
0
  0
VERTEX
  8
0
 10
19.2275
 20
8.84229
 30
0.0
 40
0
 41
0
  0
VERTEX
  8
0
 10
18.7089
 20
9.34033
 30
0.0
 40
0
 41
0
  0
VERTEX
  8
0
 10
18.5867
 20
9.213
 30
0.0
 40
0
 41
0
  0
VERTEX
  8
0
 10
19.1053
 20
8.71511
 30
0.0
 40
0
 41
0
  0
VERTEX
  8
0
 10
19.2275
 20
8.84229
 30
0.0
 40
0
 41
0
  0
SEQEND
 8
0
  0
POLYLINE
  8
0
 62
     0
 66
     1
 10
0
 20
0
 30
0.0
 70
     1
 40
0.75
 41
0.75
  0
VERTEX
  8
0
 10
19.2275
 20
8.84229
 30
0.0
 40
0.0104167
 41
0.0104167
  0
VERTEX
  8
0
 10
18.7089
 20
9.34033
 30
0.0
 40
0.0104167
 41
0.0104167
  0
VERTEX
  8
0
 10
18.5867
 20
9.213
 30
0.0
 40
0.0104167
 41
0.0104167
  0
VERTEX
  8
0
 10
19.1053
 20
8.71511
 30
0.0
 40
0.0104167
 41
0.0104167
  0
VERTEX
  8
0
 10
19.2275
 20
8.84229
 30
0.0
 40
0.0104167
 41
0.0104167
  0
SEQEND
 8
0
  0
POLYLINE
  8
0
 62
     7
 66
     1
 10
0
 20
0
 30
0.0
 70
     1
 40
0
 41
0
  0
VERTEX
  8
0
 10
19.2275
 20
8.84229
 30
0.0
 40
0
 41
0
  0
VERTEX
  8
0
 10
18.7089
 20
9.34033
 30
0.0
 40
0
 41
0
  0
VERTEX
  8
0
 10
18.5867
 20
9.213
 30
0.0
 40
0
 41
0
  0
VERTEX
  8
0
 10
19.1053
 20
8.71511
 30
0.0
 40
0
 41
0
  0
VERTEX
  8
0
 10
19.2275
 20
8.84229
 30
0.0
 40
0
 41
0
  0
SEQEND
 8
0
  0
POLYLINE
  8
0
 62
     0
 66
     1
 10
0
 20
0
 30
0.0
 70
     1
 40
0.75
 41
0.75
  0
VERTEX
  8
0
 10
19.2275
 20
8.84229
 30
0.0
 40
0.0104167
 41
0.0104167
  0
VERTEX
  8
0
 10
18.7089
 20
9.34033
 30
0.0
 40
0.0104167
 41
0.0104167
  0
VERTEX
  8
0
 10
18.5867
 20
9.213
 30
0.0
 40
0.0104167
 41
0.0104167
  0
VERTEX
  8
0
 10
19.1053
 20
8.71511
 30
0.0
 40
0.0104167
 41
0.0104167
  0
VERTEX
  8
0
 10
19.2275
 20
8.84229
 30
0.0
 40
0.0104167
 41
0.0104167
  0
SEQEND
 8
0
  0
POLYLINE
  8
0
 62
     7
 66
     1
 10
0
 20
0
 30
0.0
 70
     1
 40
0
 41
0
  0
VERTEX
  8
0
 10
19.11
 20
8.83285
 30
0.0
 40
0
 41
0
  0
VERTEX
  8
0
 10
18.7042
 20
9.2226
 30
0.0
 40
0
 41
0
  0
SEQEND
 8
0
  0
POLYLINE
  8
0
 62
     0
 66
     1
 10
0
 20
0
 30
0.0
 40
0.75
 41
0.75
  0
VERTEX
  8
0
 10
19.11
 20
8.83285
 30
0.0
 40
0.0104167
 41
0.0104167
  0
VERTEX
  8
0
 10
18.7042
 20
9.2226
 30
0.0
 40
0.0104167
 41
0.0104167
  0
SEQEND
 8
0
  0
POLYLINE
  8
0
 62
     7
 66
     1
 10
0
 20
0
 30
0.0
 70
     1
 40
0
 41
0
  0
VERTEX
  8
0
 10
19.1711
 20
8.89643
 30
0.0
 40
0
 41
0
  0
VERTEX
  8
0
 10
19.0489
 20
8.76921
 30
0.0
 40
0
 41
0
  0
SEQEND
 8
0
  0
POLYLINE
  8
0
 62
     0
 66
     1
 10
0
 20
0
 30
0.0
 40
0.75
 41
0.75
  0
VERTEX
  8
0
 10
19.1711
 20
8.89643
 30
0.0
 40
0.0104167
 41
0.0104167
  0
VERTEX
  8
0
 10
19.0489
 20
8.76921
 30
0.0
 40
0.0104167
 41
0.0104167
  0
SEQEND
 8
0
  0
POLYLINE
  8
0
 62
     7
 66
     1
 10
0
 20
0
 30
0.0
 70
     1
 40
0
 41
0
  0
VERTEX
  8
0
 10
18.7651
 20
9.28618
 30
0.0
 40
0
 41
0
  0
VERTEX
  8
0
 10
18.6431
 20
9.15896
 30
0.0
 40
0
 41
0
  0
SEQEND
 8
0
  0
POLYLINE
  8
0
 62
     0
 66
     1
 10
0
 20
0
 30
0.0
 40
0.75
 41
0.75
  0
VERTEX
  8
0
 10
18.7651
 20
9.28618
 30
0.0
 40
0.0104167
 41
0.0104167
  0
VERTEX
  8
0
 10
18.6431
 20
9.15896
 30
0.0
 40
0.0104167
 41
0.0104167
  0
SEQEND
 8
0
  0
POLYLINE
  8
0
 62
     7
 66
     1
 10
0
 20
0
 30
0.0
 70
     1
 40
0
 41
0
  0
VERTEX
  8
0
 10
16.9978
 20
9.46658
 30
0.0
 40
0
 41
0
  0
VERTEX
  8
0
 10
18.5774
 20
9.46658
 30
0.0
 40
0
 41
0
  0
VERTEX
  8
0
 10
18.5774
 20
9.33117
 30
0.0
 40
0
 41
0
  0
VERTEX
  8
0
 10
16.9978
 20
9.33117
 30
0.0
 40
0
 41
0
  0
VERTEX
  8
0
 10
16.9978
 20
9.46658
 30
0.0
 40
0
 41
0
  0
SEQEND
 8
0
  0
POLYLINE
  8
0
 62
     0
 66
     1
 10
0
 20
0
 30
0.0
 70
     1
 40
0.15
 41
0.15
  0
VERTEX
  8
0
 10
16.9978
 20
9.46658
 30
0.0
 40
0.00208333
 41
0.00208333
  0
VERTEX
  8
0
 10
18.5774
 20
9.46658
 30
0.0
 40
0.00208333
 41
0.00208333
  0
VERTEX
  8
0
 10
18.5774
 20
9.33117
 30
0.0
 40
0.00208333
 41
0.00208333
  0
VERTEX
  8
0
 10
16.9978
 20
9.33117
 30
0.0
 40
0.00208333
 41
0.00208333
  0
VERTEX
  8
0
 10
16.9978
 20
9.46658
 30
0.0
 40
0.00208333
 41
0.00208333
  0
SEQEND
 8
0
  0
POLYLINE
  8
0
 62
     7
 66
     1
 10
0
 20
0
 30
0.0
 70
     1
 40
0
 41
0
  0
VERTEX
  8
0
 10
19.1932
 20
8.74533
 30
0.0
 40
0
 41
0
  0
VERTEX
  8
0
 10
19.3286
 20
8.74533
 30
0.0
 40
0
 41
0
  0
VERTEX
  8
0
 10
19.3286
 20
5.16476
 30
0.0
 40
0
 41
0
  0
VERTEX
  8
0
 10
19.1932
 20
5.16476
 30
0.0
 40
0
 41
0
  0
VERTEX
  8
0
 10
19.1932
 20
8.74533
 30
0.0
 40
0
 41
0
  0
SEQEND
 8
0
  0
POLYLINE
  8
0
 62
     0
 66
     1
 10
0
 20
0
 30
0.0
 70
     1
 40
0.15
 41
0.15
  0
VERTEX
  8
0
 10
19.1932
 20
8.74533
 30
0.0
 40
0.00208333
 41
0.00208333
  0
VERTEX
  8
0
 10
19.3286
 20
8.74533
 30
0.0
 40
0.00208333
 41
0.00208333
  0
VERTEX
  8
0
 10
19.3286
 20
5.16476
 30
0.0
 40
0.00208333
 41
0.00208333
  0
VERTEX
  8
0
 10
19.1932
 20
5.16476
 30
0.0
 40
0.00208333
 41
0.00208333
  0
VERTEX
  8
0
 10
19.1932
 20
8.74533
 30
0.0
 40
0.00208333
 41
0.00208333
  0
SEQEND
 8
0
  0
POLYLINE
  8
0
 62
     0
 66
     1
 10
0
 20
0
 30
0.0
 70
     1
 40
0
 41
0
  0
VERTEX
  8
0
 10
7.28624
 20
5.31565
 30
0.0
 40
0
 41
0
  0
VERTEX
  8
0
 10
7.67085
 20
5.31565
 30
0.0
 40
0
 41
0
  0
VERTEX
  8
0
 10
7.67085
 20
4.80447
 30
0.0
 40
0
 41
0
  0
VERTEX
  8
0
 10
7.28624
 20
4.80447
 30
0.0
 40
0
 41
0
  0
VERTEX
  8
0
 10
7.28624
 20
5.31565
 30
0.0
 40
0
 41
0
  0
SEQEND
 8
0
  0
POLYLINE
  8
0
 62
     0
 66
     1
 10
0
 20
0
 30
0.0
 70
     1
 40
0.15
 41
0.15
  0
VERTEX
  8
0
 10
7.28624
 20
5.31565
 30
0.0
 40
0.00208333
 41
0.00208333
  0
VERTEX
  8
0
 10
7.67085
 20
5.31565
 30
0.0
 40
0.00208333
 41
0.00208333
  0
VERTEX
  8
0
 10
7.67085
 20
4.80447
 30
0.0
 40
0.00208333
 41
0.00208333
  0
VERTEX
  8
0
 10
7.28624
 20
4.80447
 30
0.0
 40
0.00208333
 41
0.00208333
  0
VERTEX
  8
0
 10
7.28624
 20
5.31565
 30
0.0
 40
0.00208333
 41
0.00208333
  0
SEQEND
 8
0
  0
POLYLINE
  8
0
 62
     0
 66
     1
 10
0
 20
0
 30
0.0
 70
     1
 40
0
 41
0
  0
VERTEX
  8
0
 10
5.70665
 20
4.66917
 30
0.0
 40
0
 41
0
  0
VERTEX
  8
0
 10
6.21957
 20
4.66917
 30
0.0
 40
0
 41
0
  0
VERTEX
  8
0
 10
6.21957
 20
4.14378
 30
0.0
 40
0
 41
0
  0
VERTEX
  8
0
 10
5.70665
 20
4.14378
 30
0.0
 40
0
 41
0
  0
VERTEX
  8
0
 10
5.70665
 20
4.66917
 30
0.0
 40
0
 41
0
  0
SEQEND
 8
0
  0
POLYLINE
  8
0
 62
     0
 66
     1
 10
0
 20
0
 30
0.0
 70
     1
 40
0.15
 41
0.15
  0
VERTEX
  8
0
 10
5.70665
 20
4.66917
 30
0.0
 40
0.00208333
 41
0.00208333
  0
VERTEX
  8
0
 10
6.21957
 20
4.66917
 30
0.0
 40
0.00208333
 41
0.00208333
  0
VERTEX
  8
0
 10
6.21957
 20
4.14378
 30
0.0
 40
0.00208333
 41
0.00208333
  0
VERTEX
  8
0
 10
5.70665
 20
4.14378
 30
0.0
 40
0.00208333
 41
0.00208333
  0
VERTEX
  8
0
 10
5.70665
 20
4.66917
 30
0.0
 40
0.00208333
 41
0.00208333
  0
SEQEND
 8
0
  0
POLYLINE
  8
0
 62
     0
 66
     1
 10
0
 20
0
 30
0.0
 70
     1
 40
0
 41
0
  0
VERTEX
  8
0
 10
10.6585
 20
5.07981
 30
0.0
 40
0
 41
0
  0
VERTEX
  8
0
 10
10.9508
 20
5.07981
 30
0.0
 40
0
 41
0
  0
VERTEX
  8
0
 10
10.9508
 20
4.39031
 30
0.0
 40
0
 41
0
  0
VERTEX
  8
0
 10
10.6585
 20
4.39031
 30
0.0
 40
0
 41
0
  0
VERTEX
  8
0
 10
10.6585
 20
5.07981
 30
0.0
 40
0
 41
0
  0
SEQEND
 8
0
  0
POLYLINE
  8
0
 62
     0
 66
     1
 10
0
 20
0
 30
0.0
 70
     1
 40
0.15
 41
0.15
  0
VERTEX
  8
0
 10
10.6585
 20
5.07981
 30
0.0
 40
0.00208333
 41
0.00208333
  0
VERTEX
  8
0
 10
10.9508
 20
5.07981
 30
0.0
 40
0.00208333
 41
0.00208333
  0
VERTEX
  8
0
 10
10.9508
 20
4.39031
 30
0.0
 40
0.00208333
 41
0.00208333
  0
VERTEX
  8
0
 10
10.6585
 20
4.39031
 30
0.0
 40
0.00208333
 41
0.00208333
  0
VERTEX
  8
0
 10
10.6585
 20
5.07981
 30
0.0
 40
0.00208333
 41
0.00208333
  0
SEQEND
 8
0
  0
POLYLINE
  8
0
 62
     7
 66
     1
 10
0
 20
0
 30
0.0
 70
     1
 40
0
 41
0
  0
VERTEX
  8
0
 10
5.18474
 20
5.2774
 30
0.0
 40
0
 41
0
  0
VERTEX
  8
0
 10
6.11518
 20
5.2774
 30
0.0
 40
0
 41
0
  0
VERTEX
  8
0
 10
6.11518
 20
4.6524
 30
0.0
 40
0
 41
0
  0
VERTEX
  8
0
 10
5.18474
 20
4.6524
 30
0.0
 40
0
 41
0
  0
VERTEX
  8
0
 10
5.18474
 20
5.2774
 30
0.0
 40
0
 41
0
  0
SEQEND
 8
0
  0
POLYLINE
  8
0
 62
     0
 66
     1
 10
0
 20
0
 30
0.0
 70
     1
 40
0.75
 41
0.75
  0
VERTEX
  8
0
 10
5.18474
 20
5.2774
 30
0.0
 40
0.0104167
 41
0.0104167
  0
VERTEX
  8
0
 10
6.11518
 20
5.2774
 30
0.0
 40
0.0104167
 41
0.0104167
  0
VERTEX
  8
0
 10
6.11518
 20
4.6524
 30
0.0
 40
0.0104167
 41
0.0104167
  0
VERTEX
  8
0
 10
5.18474
 20
4.6524
 30
0.0
 40
0.0104167
 41
0.0104167
  0
VERTEX
  8
0
 10
5.18474
 20
5.2774
 30
0.0
 40
0.0104167
 41
0.0104167
  0
SEQEND
 8
0
  0
POLYLINE
  8
0
 62
     253
 66
     1
 10
0
 20
0
 30
0.0
 40
0.75
 41
0.75
  0
VERTEX
  8
0
 10
5.18474
 20
4.9649
 30
0.0
 40
0.0104167
 41
0.0104167
  0
VERTEX
  8
0
 10
6.11518
 20
4.9649
 30
0.0
 40
0.0104167
 41
0.0104167
  0
SEQEND
 8
0
  0
POLYLINE
  8
0
 62
     7
 66
     1
 10
0
 20
0
 30
0.0
 70
     1
 40
0
 41
0
  0
VERTEX
  8
0
 10
4.62885
 20
5.28526
 30
0.0
 40
0
 41
0
  0
VERTEX
  8
0
 10
5.023
 20
5.28526
 30
0.0
 40
0
 41
0
  0
VERTEX
  8
0
 10
5.023
 20
4.16444
 30
0.0
 40
0
 41
0
  0
VERTEX
  8
0
 10
4.62885
 20
4.16444
 30
0.0
 40
0
 41
0
  0
VERTEX
  8
0
 10
4.62885
 20
5.28526
 30
0.0
 40
0
 41
0
  0
SEQEND
 8
0
  0
POLYLINE
  8
0
 62
     0
 66
     1
 10
0
 20
0
 30
0.0
 70
     1
 40
0.75
 41
0.75
  0
VERTEX
  8
0
 10
4.62885
 20
5.28526
 30
0.0
 40
0.0104167
 41
0.0104167
  0
VERTEX
  8
0
 10
4.62885
 20
4.16444
 30
0.0
 40
0.0104167
 41
0.0104167
  0
VERTEX
  8
0
 10
5.023
 20
4.16444
 30
0.0
 40
0.0104167
 41
0.0104167
  0
VERTEX
  8
0
 10
5.023
 20
5.28526
 30
0.0
 40
0.0104167
 41
0.0104167
  0
VERTEX
  8
0
 10
4.62885
 20
5.28526
 30
0.0
 40
0.0104167
 41
0.0104167
  0
SEQEND
 8
0
  0
POLYLINE
  8
0
 62
     7
 66
     1
 10
0
 20
0
 30
0.0
 70
     1
 40
0
 41
0
  0
VERTEX
  8
0
 10
6.22396
 20
4.68207
 30
0.0
 40
0
 41
0
  0
VERTEX
  8
0
 10
6.7551
 20
4.68207
 30
0.0
 40
0
 41
0
  0
VERTEX
  8
0
 10
6.7551
 20
4.03022
 30
0.0
 40
0
 41
0
  0
VERTEX
  8
0
 10
6.22396
 20
4.03022
 30
0.0
 40
0
 41
0
  0
VERTEX
  8
0
 10
6.22396
 20
4.68207
 30
0.0
 40
0
 41
0
  0
SEQEND
 8
0
  0
POLYLINE
  8
0
 62
     0
 66
     1
 10
0
 20
0
 30
0.0
 70
     1
 40
0.75
 41
0.75
  0
VERTEX
  8
0
 10
6.22396
 20
4.68207
 30
0.0
 40
0.0104167
 41
0.0104167
  0
VERTEX
  8
0
 10
6.7551
 20
4.68207
 30
0.0
 40
0.0104167
 41
0.0104167
  0
VERTEX
  8
0
 10
6.7551
 20
4.03022
 30
0.0
 40
0.0104167
 41
0.0104167
  0
VERTEX
  8
0
 10
6.22396
 20
4.03022
 30
0.0
 40
0.0104167
 41
0.0104167
  0
VERTEX
  8
0
 10
6.22396
 20
4.68207
 30
0.0
 40
0.0104167
 41
0.0104167
  0
SEQEND
 8
0
  0
POLYLINE
  8
0
 62
     7
 66
     1
 10
0
 20
0
 30
0.0
 70
     1
 40
0
 41
0
  0
VERTEX
  8
0
 10
6.7551
 20
4.68207
 30
0.0
 40
0
 41
0
  0
VERTEX
  8
0
 10
7.28624
 20
4.68207
 30
0.0
 40
0
 41
0
  0
VERTEX
  8
0
 10
7.28624
 20
4.03022
 30
0.0
 40
0
 41
0
  0
VERTEX
  8
0
 10
6.7551
 20
4.03022
 30
0.0
 40
0
 41
0
  0
VERTEX
  8
0
 10
6.7551
 20
4.68207
 30
0.0
 40
0
 41
0
  0
SEQEND
 8
0
  0
POLYLINE
  8
0
 62
     0
 66
     1
 10
0
 20
0
 30
0.0
 70
     1
 40
0.75
 41
0.75
  0
VERTEX
  8
0
 10
6.7551
 20
4.68207
 30
0.0
 40
0.0104167
 41
0.0104167
  0
VERTEX
  8
0
 10
7.28624
 20
4.68207
 30
0.0
 40
0.0104167
 41
0.0104167
  0
VERTEX
  8
0
 10
7.28624
 20
4.03022
 30
0.0
 40
0.0104167
 41
0.0104167
  0
VERTEX
  8
0
 10
6.7551
 20
4.03022
 30
0.0
 40
0.0104167
 41
0.0104167
  0
VERTEX
  8
0
 10
6.7551
 20
4.68207
 30
0.0
 40
0.0104167
 41
0.0104167
  0
SEQEND
 8
0
  0
POLYLINE
  8
0
 62
     7
 66
     1
 10
0
 20
0
 30
0.0
 70
     1
 40
0
 41
0
  0
VERTEX
  8
0
 10
6.7551
 20
5.40246
 30
0.0
 40
0
 41
0
  0
VERTEX
  8
0
 10
7.28624
 20
5.40246
 30
0.0
 40
0
 41
0
  0
VERTEX
  8
0
 10
7.28624
 20
4.77746
 30
0.0
 40
0
 41
0
  0
VERTEX
  8
0
 10
6.7551
 20
4.77746
 30
0.0
 40
0
 41
0
  0
VERTEX
  8
0
 10
6.7551
 20
5.40246
 30
0.0
 40
0
 41
0
  0
SEQEND
 8
0
  0
POLYLINE
  8
0
 62
     0
 66
     1
 10
0
 20
0
 30
0.0
 70
     1
 40
0.75
 41
0.75
  0
VERTEX
  8
0
 10
6.7551
 20
5.40246
 30
0.0
 40
0.0104167
 41
0.0104167
  0
VERTEX
  8
0
 10
7.28624
 20
5.40246
 30
0.0
 40
0.0104167
 41
0.0104167
  0
VERTEX
  8
0
 10
7.28624
 20
4.77746
 30
0.0
 40
0.0104167
 41
0.0104167
  0
VERTEX
  8
0
 10
6.7551
 20
4.77746
 30
0.0
 40
0.0104167
 41
0.0104167
  0
VERTEX
  8
0
 10
6.7551
 20
5.40246
 30
0.0
 40
0.0104167
 41
0.0104167
  0
SEQEND
 8
0
  0
POLYLINE
  8
0
 62
     7
 66
     1
 10
0
 20
0
 30
0.0
 70
     1
 40
0
 41
0
  0
VERTEX
  8
0
 10
6.22396
 20
5.40246
 30
0.0
 40
0
 41
0
  0
VERTEX
  8
0
 10
6.7551
 20
5.40246
 30
0.0
 40
0
 41
0
  0
VERTEX
  8
0
 10
6.7551
 20
4.77746
 30
0.0
 40
0
 41
0
  0
VERTEX
  8
0
 10
6.22396
 20
4.77746
 30
0.0
 40
0
 41
0
  0
VERTEX
  8
0
 10
6.22396
 20
5.40246
 30
0.0
 40
0
 41
0
  0
SEQEND
 8
0
  0
POLYLINE
  8
0
 62
     0
 66
     1
 10
0
 20
0
 30
0.0
 70
     1
 40
0.75
 41
0.75
  0
VERTEX
  8
0
 10
6.22396
 20
5.40246
 30
0.0
 40
0.0104167
 41
0.0104167
  0
VERTEX
  8
0
 10
6.7551
 20
5.40246
 30
0.0
 40
0.0104167
 41
0.0104167
  0
VERTEX
  8
0
 10
6.7551
 20
4.77746
 30
0.0
 40
0.0104167
 41
0.0104167
  0
VERTEX
  8
0
 10
6.22396
 20
4.77746
 30
0.0
 40
0.0104167
 41
0.0104167
  0
VERTEX
  8
0
 10
6.22396
 20
5.40246
 30
0.0
 40
0.0104167
 41
0.0104167
  0
SEQEND
 8
0
  0
POLYLINE
  8
0
 62
     7
 66
     1
 10
0
 20
0
 30
0.0
 70
     1
 40
0
 41
0
  0
VERTEX
  8
0
 10
7.39974
 20
4.74192
 30
0.0
 40
0
 41
0
  0
VERTEX
  8
0
 10
7.58703
 20
4.74192
 30
0.0
 40
0
 41
0
  0
VERTEX
  8
0
 10
7.58703
 20
4.32536
 30
0.0
 40
0
 41
0
  0
VERTEX
  8
0
 10
7.39974
 20
4.32536
 30
0.0
 40
0
 41
0
  0
VERTEX
  8
0
 10
7.39974
 20
4.74192
 30
0.0
 40
0
 41
0
  0
SEQEND
 8
0
  0
POLYLINE
  8
0
 62
     0
 66
     1
 10
0
 20
0
 30
0.0
 70
     1
 40
0.75
 41
0.75
  0
VERTEX
  8
0
 10
7.39974
 20
4.74192
 30
0.0
 40
0.0104167
 41
0.0104167
  0
VERTEX
  8
0
 10
7.39974
 20
4.32536
 30
0.0
 40
0.0104167
 41
0.0104167
  0
VERTEX
  8
0
 10
7.58703
 20
4.32536
 30
0.0
 40
0.0104167
 41
0.0104167
  0
VERTEX
  8
0
 10
7.58703
 20
4.74192
 30
0.0
 40
0.0104167
 41
0.0104167
  0
VERTEX
  8
0
 10
7.39974
 20
4.74192
 30
0.0
 40
0.0104167
 41
0.0104167
  0
SEQEND
 8
0
  0
POLYLINE
  8
0
 62
     7
 66
     1
 10
0
 20
0
 30
0.0
 70
     1
 40
0
 41
0
  0
VERTEX
  8
0
 10
7.85531
 20
4.74192
 30
0.0
 40
0
 41
0
  0
VERTEX
  8
0
 10
7.85531
 20
4.74192
 30
0.0
 40
0
 41
0
  0
VERTEX
  8
0
 10
7.86703
 20
4.74203
 30
0.0
 40
0
 41
0
  0
VERTEX
  8
0
 10
7.898
 20
4.7404
 30
0.0
 40
0
 41
0
  0
VERTEX
  8
0
 10
7.94185
 20
4.73426
 30
0.0
 40
0
 41
0
  0
VERTEX
  8
0
 10
7.99208
 20
4.72086
 30
0.0
 40
0
 41
0
  0
VERTEX
  8
0
 10
8.04232
 20
4.69732
 30
0.0
 40
0
 41
0
  0
VERTEX
  8
0
 10
8.08615
 20
4.66086
 30
0.0
 40
0
 41
0
  0
VERTEX
  8
0
 10
8.11714
 20
4.60867
 30
0.0
 40
0
 41
0
  0
VERTEX
  8
0
 10
8.1289
 20
4.55561
 30
0.0
 40
0
 41
0
  0
VERTEX
  8
0
 10
8.1289
 20
4.53792
 30
0.0
 40
0
 41
0
  0
VERTEX
  8
0
 10
8.1289
 20
4.51964
 30
0.0
 40
0
 41
0
  0
VERTEX
  8
0
 10
8.11714
 20
4.46479
 30
0.0
 40
0
 41
0
  0
VERTEX
  8
0
 10
8.08615
 20
4.41075
 30
0.0
 40
0
 41
0
  0
VERTEX
  8
0
 10
8.04232
 20
4.37294
 30
0.0
 40
0
 41
0
  0
VERTEX
  8
0
 10
7.99208
 20
4.34847
 30
0.0
 40
0
 41
0
  0
VERTEX
  8
0
 10
7.94185
 20
4.33447
 30
0.0
 40
0
 41
0
  0
VERTEX
  8
0
 10
7.898
 20
4.32807
 30
0.0
 40
0
 41
0
  0
VERTEX
  8
0
 10
7.86703
 20
4.32633
 30
0.0
 40
0
 41
0
  0
VERTEX
  8
0
 10
7.85531
 20
4.32639
 30
0.0
 40
0
 41
0
  0
VERTEX
  8
0
 10
7.85531
 20
4.32639
 30
0.0
 40
0
 41
0
  0
VERTEX
  8
0
 10
7.58703
 20
4.32536
 30
0.0
 40
0
 41
0
  0
VERTEX
  8
0
 10
7.58703
 20
4.74192
 30
0.0
 40
0
 41
0
  0
VERTEX
  8
0
 10
7.85531
 20
4.74192
 30
0.0
 40
0
 41
0
  0
SEQEND
 8
0
  0
POLYLINE
  8
0
 62
     0
 66
     1
 10
0
 20
0
 30
0.0
 70
     1
 40
0.75
 41
0.75
  0
VERTEX
  8
0
 10
7.85531
 20
4.74192
 30
0.0
 40
0.0104167
 41
0.0104167
  0
VERTEX
  8
0
 10
7.85531
 20
4.74192
 30
0.0
 40
0.0104167
 41
0.0104167
  0
VERTEX
  8
0
 10
7.86703
 20
4.74203
 30
0.0
 40
0.0104167
 41
0.0104167
  0
VERTEX
  8
0
 10
7.898
 20
4.7404
 30
0.0
 40
0.0104167
 41
0.0104167
  0
VERTEX
  8
0
 10
7.94185
 20
4.73426
 30
0.0
 40
0.0104167
 41
0.0104167
  0
VERTEX
  8
0
 10
7.99208
 20
4.72086
 30
0.0
 40
0.0104167
 41
0.0104167
  0
VERTEX
  8
0
 10
8.04232
 20
4.69732
 30
0.0
 40
0.0104167
 41
0.0104167
  0
VERTEX
  8
0
 10
8.08615
 20
4.66086
 30
0.0
 40
0.0104167
 41
0.0104167
  0
VERTEX
  8
0
 10
8.11714
 20
4.60867
 30
0.0
 40
0.0104167
 41
0.0104167
  0
VERTEX
  8
0
 10
8.1289
 20
4.55561
 30
0.0
 40
0.0104167
 41
0.0104167
  0
VERTEX
  8
0
 10
8.1289
 20
4.53792
 30
0.0
 40
0.0104167
 41
0.0104167
  0
VERTEX
  8
0
 10
8.1289
 20
4.51964
 30
0.0
 40
0.0104167
 41
0.0104167
  0
VERTEX
  8
0
 10
8.11714
 20
4.46479
 30
0.0
 40
0.0104167
 41
0.0104167
  0
VERTEX
  8
0
 10
8.08615
 20
4.41075
 30
0.0
 40
0.0104167
 41
0.0104167
  0
VERTEX
  8
0
 10
8.04232
 20
4.37294
 30
0.0
 40
0.0104167
 41
0.0104167
  0
VERTEX
  8
0
 10
7.99208
 20
4.34847
 30
0.0
 40
0.0104167
 41
0.0104167
  0
VERTEX
  8
0
 10
7.94185
 20
4.33447
 30
0.0
 40
0.0104167
 41
0.0104167
  0
VERTEX
  8
0
 10
7.898
 20
4.32807
 30
0.0
 40
0.0104167
 41
0.0104167
  0
VERTEX
  8
0
 10
7.86703
 20
4.32633
 30
0.0
 40
0.0104167
 41
0.0104167
  0
VERTEX
  8
0
 10
7.85531
 20
4.32639
 30
0.0
 40
0.0104167
 41
0.0104167
  0
VERTEX
  8
0
 10
7.85531
 20
4.32639
 30
0.0
 40
0.0104167
 41
0.0104167
  0
VERTEX
  8
0
 10
7.58703
 20
4.32536
 30
0.0
 40
0.0104167
 41
0.0104167
  0
VERTEX
  8
0
 10
7.58703
 20
4.74192
 30
0.0
 40
0.0104167
 41
0.0104167
  0
VERTEX
  8
0
 10
7.85531
 20
4.74192
 30
0.0
 40
0.0104167
 41
0.0104167
  0
SEQEND
 8
0
  0
POLYLINE
  8
0
 62
     7
 66
     1
 10
0
 20
0
 30
0.0
 70
     1
 40
0
 41
0
  0
VERTEX
  8
0
 10
7.4776
 20
4.56679
 30
0.0
 40
0
 41
0
  0
VERTEX
  8
0
 10
7.50917
 20
4.56679
 30
0.0
 40
0
 41
0
  0
VERTEX
  8
0
 10
7.50917
 20
4.50054
 30
0.0
 40
0
 41
0
  0
VERTEX
  8
0
 10
7.4776
 20
4.50054
 30
0.0
 40
0
 41
0
  0
VERTEX
  8
0
 10
7.4776
 20
4.56679
 30
0.0
 40
0
 41
0
  0
SEQEND
 8
0
  0
POLYLINE
  8
0
 62
     0
 66
     1
 10
0
 20
0
 30
0.0
 70
     1
 40
0.75
 41
0.75
  0
VERTEX
  8
0
 10
7.4776
 20
4.56679
 30
0.0
 40
0.0104167
 41
0.0104167
  0
VERTEX
  8
0
 10
7.4776
 20
4.50054
 30
0.0
 40
0.0104167
 41
0.0104167
  0
VERTEX
  8
0
 10
7.50917
 20
4.50054
 30
0.0
 40
0.0104167
 41
0.0104167
  0
VERTEX
  8
0
 10
7.50917
 20
4.56679
 30
0.0
 40
0.0104167
 41
0.0104167
  0
VERTEX
  8
0
 10
7.4776
 20
4.56679
 30
0.0
 40
0.0104167
 41
0.0104167
  0
SEQEND
 8
0
  0
POLYLINE
  8
0
 62
     7
 66
     1
 10
0
 20
0
 30
0.0
 70
     1
 40
0
 41
0
  0
VERTEX
  8
0
 10
8.15528
 20
5.29844
 30
0.0
 40
0
 41
0
  0
VERTEX
  8
0
 10
8.78028
 20
5.29844
 30
0.0
 40
0
 41
0
  0
VERTEX
  8
0
 10
8.78028
 20
4.78168
 30
0.0
 40
0
 41
0
  0
VERTEX
  8
0
 10
8.15528
 20
4.78168
 30
0.0
 40
0
 41
0
  0
VERTEX
  8
0
 10
8.15528
 20
5.29844
 30
0.0
 40
0
 41
0
  0
SEQEND
 8
0
  0
POLYLINE
  8
0
 62
     0
 66
     1
 10
0
 20
0
 30
0.0
 70
     1
 40
0.75
 41
0.75
  0
VERTEX
  8
0
 10
8.15528
 20
5.29844
 30
0.0
 40
0.0104167
 41
0.0104167
  0
VERTEX
  8
0
 10
8.78028
 20
5.29844
 30
0.0
 40
0.0104167
 41
0.0104167
  0
VERTEX
  8
0
 10
8.78028
 20
4.78168
 30
0.0
 40
0.0104167
 41
0.0104167
  0
VERTEX
  8
0
 10
8.15528
 20
4.78168
 30
0.0
 40
0.0104167
 41
0.0104167
  0
VERTEX
  8
0
 10
8.15528
 20
5.29844
 30
0.0
 40
0.0104167
 41
0.0104167
  0
SEQEND
 8
0
  0
POLYLINE
  8
0
 62
     7
 66
     1
 10
0
 20
0
 30
0.0
 70
     1
 40
0
 41
0
  0
VERTEX
  8
0
 10
8.20736
 20
5.19738
 30
0.0
 40
0
 41
0
  0
VERTEX
  8
0
 10
8.72819
 20
5.19738
 30
0.0
 40
0
 41
0
  0
VERTEX
  8
0
 10
8.72819
 20
4.82731
 30
0.0
 40
0
 41
0
  0
VERTEX
  8
0
 10
8.20736
 20
4.82731
 30
0.0
 40
0
 41
0
  0
VERTEX
  8
0
 10
8.20736
 20
5.19738
 30
0.0
 40
0
 41
0
  0
SEQEND
 8
0
  0
POLYLINE
  8
0
 62
     0
 66
     1
 10
0
 20
0
 30
0.0
 70
     1
 40
0.75
 41
0.75
  0
VERTEX
  8
0
 10
8.20736
 20
5.19738
 30
0.0
 40
0.0104167
 41
0.0104167
  0
VERTEX
  8
0
 10
8.72819
 20
5.19738
 30
0.0
 40
0.0104167
 41
0.0104167
  0
VERTEX
  8
0
 10
8.72819
 20
4.82731
 30
0.0
 40
0.0104167
 41
0.0104167
  0
VERTEX
  8
0
 10
8.20736
 20
4.82731
 30
0.0
 40
0.0104167
 41
0.0104167
  0
VERTEX
  8
0
 10
8.20736
 20
5.19738
 30
0.0
 40
0.0104167
 41
0.0104167
  0
SEQEND
 8
0
  0
POLYLINE
  8
0
 62
     7
 66
     1
 10
0
 20
0
 30
0.0
 70
     1
 40
0
 41
0
  0
VERTEX
  8
0
 10
8.50424
 20
5.02111
 30
0.0
 40
0
 41
0
  0
VERTEX
  8
0
 10
8.50424
 20
5.01471
 30
0.0
 40
0
 41
0
  0
VERTEX
  8
0
 10
8.49354
 20
4.99533
 30
0.0
 40
0
 41
0
  0
VERTEX
  8
0
 10
8.47418
 20
4.98465
 30
0.0
 40
0
 41
0
  0
VERTEX
  8
0
 10
8.46778
 20
4.98465
 30
0.0
 40
0
 41
0
  0
VERTEX
  8
0
 10
8.46132
 20
4.98465
 30
0.0
 40
0
 41
0
  0
VERTEX
  8
0
 10
8.44194
 20
4.99533
 30
0.0
 40
0
 41
0
  0
VERTEX
  8
0
 10
8.43132
 20
5.01471
 30
0.0
 40
0
 41
0
  0
VERTEX
  8
0
 10
8.43132
 20
5.02111
 30
0.0
 40
0
 41
0
  0
VERTEX
  8
0
 10
8.43132
 20
5.02756
 30
0.0
 40
0
 41
0
  0
VERTEX
  8
0
 10
8.44194
 20
5.04693
 30
0.0
 40
0
 41
0
  0
VERTEX
  8
0
 10
8.46132
 20
5.05757
 30
0.0
 40
0
 41
0
  0
VERTEX
  8
0
 10
8.46778
 20
5.05757
 30
0.0
 40
0
 41
0
  0
VERTEX
  8
0
 10
8.47418
 20
5.05757
 30
0.0
 40
0
 41
0
  0
VERTEX
  8
0
 10
8.49354
 20
5.04693
 30
0.0
 40
0
 41
0
  0
VERTEX
  8
0
 10
8.50424
 20
5.02756
 30
0.0
 40
0
 41
0
  0
VERTEX
  8
0
 10
8.50424
 20
5.02111
 30
0.0
 40
0
 41
0
  0
SEQEND
 8
0
  0
POLYLINE
  8
0
 62
     0
 66
     1
 10
0
 20
0
 30
0.0
 70
     1
 40
0.6
 41
0.6
  0
VERTEX
  8
0
 10
8.50424
 20
5.02111
 30
0.0
 40
0.00833333
 41
0.00833333
  0
VERTEX
  8
0
 10
8.50424
 20
5.01471
 30
0.0
 40
0.00833333
 41
0.00833333
  0
VERTEX
  8
0
 10
8.49354
 20
4.99533
 30
0.0
 40
0.00833333
 41
0.00833333
  0
VERTEX
  8
0
 10
8.47418
 20
4.98465
 30
0.0
 40
0.00833333
 41
0.00833333
  0
VERTEX
  8
0
 10
8.46778
 20
4.98465
 30
0.0
 40
0.00833333
 41
0.00833333
  0
VERTEX
  8
0
 10
8.46132
 20
4.98465
 30
0.0
 40
0.00833333
 41
0.00833333
  0
VERTEX
  8
0
 10
8.44194
 20
4.99533
 30
0.0
 40
0.00833333
 41
0.00833333
  0
VERTEX
  8
0
 10
8.43132
 20
5.01471
 30
0.0
 40
0.00833333
 41
0.00833333
  0
VERTEX
  8
0
 10
8.43132
 20
5.02111
 30
0.0
 40
0.00833333
 41
0.00833333
  0
VERTEX
  8
0
 10
8.43132
 20
5.02756
 30
0.0
 40
0.00833333
 41
0.00833333
  0
VERTEX
  8
0
 10
8.44194
 20
5.04693
 30
0.0
 40
0.00833333
 41
0.00833333
  0
VERTEX
  8
0
 10
8.46132
 20
5.05757
 30
0.0
 40
0.00833333
 41
0.00833333
  0
VERTEX
  8
0
 10
8.46778
 20
5.05757
 30
0.0
 40
0.00833333
 41
0.00833333
  0
VERTEX
  8
0
 10
8.47418
 20
5.05757
 30
0.0
 40
0.00833333
 41
0.00833333
  0
VERTEX
  8
0
 10
8.49354
 20
5.04693
 30
0.0
 40
0.00833333
 41
0.00833333
  0
VERTEX
  8
0
 10
8.50424
 20
5.02756
 30
0.0
 40
0.00833333
 41
0.00833333
  0
VERTEX
  8
0
 10
8.50424
 20
5.02111
 30
0.0
 40
0.00833333
 41
0.00833333
  0
SEQEND
 8
0
  0
POLYLINE
  8
0
 62
     7
 66
     1
 10
0
 20
0
 30
0.0
 70
     1
 40
0
 41
0
  0
VERTEX
  8
0
 10
8.48861
 20
5.02111
 30
0.0
 40
0
 41
0
  0
VERTEX
  8
0
 10
8.48861
 20
5.01747
 30
0.0
 40
0
 41
0
  0
VERTEX
  8
0
 10
8.48247
 20
5.0064
 30
0.0
 40
0
 41
0
  0
VERTEX
  8
0
 10
8.4714
 20
5.00028
 30
0.0
 40
0
 41
0
  0
VERTEX
  8
0
 10
8.46778
 20
5.00028
 30
0.0
 40
0
 41
0
  0
VERTEX
  8
0
 10
8.46408
 20
5.00028
 30
0.0
 40
0
 41
0
  0
VERTEX
  8
0
 10
8.45301
 20
5.0064
 30
0.0
 40
0
 41
0
  0
VERTEX
  8
0
 10
8.44694
 20
5.01747
 30
0.0
 40
0
 41
0
  0
VERTEX
  8
0
 10
8.44694
 20
5.02111
 30
0.0
 40
0
 41
0
  0
VERTEX
  8
0
 10
8.44694
 20
5.02479
 30
0.0
 40
0
 41
0
  0
VERTEX
  8
0
 10
8.45301
 20
5.03586
 30
0.0
 40
0
 41
0
  0
VERTEX
  8
0
 10
8.46408
 20
5.04194
 30
0.0
 40
0
 41
0
  0
VERTEX
  8
0
 10
8.46778
 20
5.04194
 30
0.0
 40
0
 41
0
  0
VERTEX
  8
0
 10
8.4714
 20
5.04194
 30
0.0
 40
0
 41
0
  0
VERTEX
  8
0
 10
8.48247
 20
5.03586
 30
0.0
 40
0
 41
0
  0
VERTEX
  8
0
 10
8.48861
 20
5.02479
 30
0.0
 40
0
 41
0
  0
VERTEX
  8
0
 10
8.48861
 20
5.02111
 30
0.0
 40
0
 41
0
  0
SEQEND
 8
0
  0
POLYLINE
  8
0
 62
     0
 66
     1
 10
0
 20
0
 30
0.0
 70
     1
 40
0.6
 41
0.6
  0
VERTEX
  8
0
 10
8.48861
 20
5.02111
 30
0.0
 40
0.00833333
 41
0.00833333
  0
VERTEX
  8
0
 10
8.48861
 20
5.01747
 30
0.0
 40
0.00833333
 41
0.00833333
  0
VERTEX
  8
0
 10
8.48247
 20
5.0064
 30
0.0
 40
0.00833333
 41
0.00833333
  0
VERTEX
  8
0
 10
8.4714
 20
5.00028
 30
0.0
 40
0.00833333
 41
0.00833333
  0
VERTEX
  8
0
 10
8.46778
 20
5.00028
 30
0.0
 40
0.00833333
 41
0.00833333
  0
VERTEX
  8
0
 10
8.46408
 20
5.00028
 30
0.0
 40
0.00833333
 41
0.00833333
  0
VERTEX
  8
0
 10
8.45301
 20
5.0064
 30
0.0
 40
0.00833333
 41
0.00833333
  0
VERTEX
  8
0
 10
8.44694
 20
5.01747
 30
0.0
 40
0.00833333
 41
0.00833333
  0
VERTEX
  8
0
 10
8.44694
 20
5.02111
 30
0.0
 40
0.00833333
 41
0.00833333
  0
VERTEX
  8
0
 10
8.44694
 20
5.02479
 30
0.0
 40
0.00833333
 41
0.00833333
  0
VERTEX
  8
0
 10
8.45301
 20
5.03586
 30
0.0
 40
0.00833333
 41
0.00833333
  0
VERTEX
  8
0
 10
8.46408
 20
5.04194
 30
0.0
 40
0.00833333
 41
0.00833333
  0
VERTEX
  8
0
 10
8.46778
 20
5.04194
 30
0.0
 40
0.00833333
 41
0.00833333
  0
VERTEX
  8
0
 10
8.4714
 20
5.04194
 30
0.0
 40
0.00833333
 41
0.00833333
  0
VERTEX
  8
0
 10
8.48247
 20
5.03586
 30
0.0
 40
0.00833333
 41
0.00833333
  0
VERTEX
  8
0
 10
8.48861
 20
5.02479
 30
0.0
 40
0.00833333
 41
0.00833333
  0
VERTEX
  8
0
 10
8.48861
 20
5.02111
 30
0.0
 40
0.00833333
 41
0.00833333
  0
SEQEND
 8
0
  0
POLYLINE
  8
0
 62
     7
 66
     1
 10
0
 20
0
 30
0.0
 70
     1
 40
0
 41
0
  0
VERTEX
  8
0
 10
8.43653
 20
5.25543
 30
0.0
 40
0
 41
0
  0
VERTEX
  8
0
 10
8.49903
 20
5.25543
 30
0.0
 40
0
 41
0
  0
VERTEX
  8
0
 10
8.49903
 20
5.1096
 30
0.0
 40
0
 41
0
  0
VERTEX
  8
0
 10
8.43653
 20
5.1096
 30
0.0
 40
0
 41
0
  0
VERTEX
  8
0
 10
8.43653
 20
5.25543
 30
0.0
 40
0
 41
0
  0
SEQEND
 8
0
  0
POLYLINE
  8
0
 62
     0
 66
     1
 10
0
 20
0
 30
0.0
 70
     1
 40
0.75
 41
0.75
  0
VERTEX
  8
0
 10
8.43653
 20
5.25543
 30
0.0
 40
0.0104167
 41
0.0104167
  0
VERTEX
  8
0
 10
8.49903
 20
5.25543
 30
0.0
 40
0.0104167
 41
0.0104167
  0
VERTEX
  8
0
 10
8.49903
 20
5.1096
 30
0.0
 40
0.0104167
 41
0.0104167
  0
VERTEX
  8
0
 10
8.43653
 20
5.1096
 30
0.0
 40
0.0104167
 41
0.0104167
  0
VERTEX
  8
0
 10
8.43653
 20
5.25543
 30
0.0
 40
0.0104167
 41
0.0104167
  0
SEQEND
 8
0
  0
POLYLINE
  8
0
 62
     7
 66
     1
 10
0
 20
0
 30
0.0
 70
     1
 40
0
 41
0
  0
VERTEX
  8
0
 10
12.0127
 20
3.08838
 30
0.0
 40
0
 41
0
  0
VERTEX
  8
0
 10
12.1294
 20
3.08838
 30
0.0
 40
0
 41
0
  0
VERTEX
  8
0
 10
12.1294
 20
3.02485
 30
0.0
 40
0
 41
0
  0
VERTEX
  8
0
 10
12.0127
 20
3.02485
 30
0.0
 40
0
 41
0
  0
VERTEX
  8
0
 10
12.0127
 20
3.08838
 30
0.0
 40
0
 41
0
  0
SEQEND
 8
0
  0
POLYLINE
  8
0
 62
     0
 66
     1
 10
0
 20
0
 30
0.0
 70
     1
 40
0.75
 41
0.75
  0
VERTEX
  8
0
 10
12.0127
 20
3.08838
 30
0.0
 40
0.0104167
 41
0.0104167
  0
VERTEX
  8
0
 10
12.1294
 20
3.08838
 30
0.0
 40
0.0104167
 41
0.0104167
  0
VERTEX
  8
0
 10
12.1294
 20
3.02485
 30
0.0
 40
0.0104167
 41
0.0104167
  0
VERTEX
  8
0
 10
12.0127
 20
3.02485
 30
0.0
 40
0.0104167
 41
0.0104167
  0
VERTEX
  8
0
 10
12.0127
 20
3.08838
 30
0.0
 40
0.0104167
 41
0.0104167
  0
SEQEND
 8
0
  0
POLYLINE
  8
0
 62
     7
 66
     1
 10
0
 20
0
 30
0.0
 70
     1
 40
0
 41
0
  0
VERTEX
  8
0
 10
11.8679
 20
3.08838
 30
0.0
 40
0
 41
0
  0
VERTEX
  8
0
 10
11.9846
 20
3.08838
 30
0.0
 40
0
 41
0
  0
VERTEX
  8
0
 10
11.9846
 20
3.02485
 30
0.0
 40
0
 41
0
  0
VERTEX
  8
0
 10
11.8679
 20
3.02485
 30
0.0
 40
0
 41
0
  0
VERTEX
  8
0
 10
11.8679
 20
3.08838
 30
0.0
 40
0
 41
0
  0
SEQEND
 8
0
  0
POLYLINE
  8
0
 62
     0
 66
     1
 10
0
 20
0
 30
0.0
 70
     1
 40
0.75
 41
0.75
  0
VERTEX
  8
0
 10
11.8679
 20
3.08838
 30
0.0
 40
0.0104167
 41
0.0104167
  0
VERTEX
  8
0
 10
11.9846
 20
3.08838
 30
0.0
 40
0.0104167
 41
0.0104167
  0
VERTEX
  8
0
 10
11.9846
 20
3.02485
 30
0.0
 40
0.0104167
 41
0.0104167
  0
VERTEX
  8
0
 10
11.8679
 20
3.02485
 30
0.0
 40
0.0104167
 41
0.0104167
  0
VERTEX
  8
0
 10
11.8679
 20
3.08838
 30
0.0
 40
0.0104167
 41
0.0104167
  0
SEQEND
 8
0
  0
POLYLINE
  8
0
 62
     7
 66
     1
 10
0
 20
0
 30
0.0
 70
     1
 40
0
 41
0
  0
VERTEX
  8
0
 10
11.8336
 20
3.08838
 30
0.0
 40
0
 41
0
  0
VERTEX
  8
0
 10
11.869
 20
3.08838
 30
0.0
 40
0
 41
0
  0
VERTEX
  8
0
 10
11.869
 20
3.02485
 30
0.0
 40
0
 41
0
  0
VERTEX
  8
0
 10
11.8336
 20
3.02485
 30
0.0
 40
0
 41
0
  0
VERTEX
  8
0
 10
11.8336
 20
3.08838
 30
0.0
 40
0
 41
0
  0
SEQEND
 8
0
  0
POLYLINE
  8
0
 62
     0
 66
     1
 10
0
 20
0
 30
0.0
 70
     1
 40
0.75
 41
0.75
  0
VERTEX
  8
0
 10
11.8336
 20
3.08838
 30
0.0
 40
0.0104167
 41
0.0104167
  0
VERTEX
  8
0
 10
11.869
 20
3.08838
 30
0.0
 40
0.0104167
 41
0.0104167
  0
VERTEX
  8
0
 10
11.869
 20
3.02485
 30
0.0
 40
0.0104167
 41
0.0104167
  0
VERTEX
  8
0
 10
11.8336
 20
3.02485
 30
0.0
 40
0.0104167
 41
0.0104167
  0
VERTEX
  8
0
 10
11.8336
 20
3.08838
 30
0.0
 40
0.0104167
 41
0.0104167
  0
SEQEND
 8
0
  0
POLYLINE
  8
0
 62
     7
 66
     1
 10
0
 20
0
 30
0.0
 70
     1
 40
0
 41
0
  0
VERTEX
  8
0
 10
12.1294
 20
3.08838
 30
0.0
 40
0
 41
0
  0
VERTEX
  8
0
 10
12.1627
 20
3.08838
 30
0.0
 40
0
 41
0
  0
VERTEX
  8
0
 10
12.1627
 20
3.02485
 30
0.0
 40
0
 41
0
  0
VERTEX
  8
0
 10
12.1294
 20
3.02485
 30
0.0
 40
0
 41
0
  0
VERTEX
  8
0
 10
12.1294
 20
3.08838
 30
0.0
 40
0
 41
0
  0
SEQEND
 8
0
  0
POLYLINE
  8
0
 62
     0
 66
     1
 10
0
 20
0
 30
0.0
 70
     1
 40
0.75
 41
0.75
  0
VERTEX
  8
0
 10
12.1294
 20
3.08838
 30
0.0
 40
0.0104167
 41
0.0104167
  0
VERTEX
  8
0
 10
12.1627
 20
3.08838
 30
0.0
 40
0.0104167
 41
0.0104167
  0
VERTEX
  8
0
 10
12.1627
 20
3.02485
 30
0.0
 40
0.0104167
 41
0.0104167
  0
VERTEX
  8
0
 10
12.1294
 20
3.02485
 30
0.0
 40
0.0104167
 41
0.0104167
  0
VERTEX
  8
0
 10
12.1294
 20
3.08838
 30
0.0
 40
0.0104167
 41
0.0104167
  0
SEQEND
 8
0
  0
POLYLINE
  8
0
 62
     7
 66
     1
 10
0
 20
0
 30
0.0
 70
     1
 40
0
 41
0
  0
VERTEX
  8
0
 10
12.0127
 20
3.10818
 30
0.0
 40
0
 41
0
  0
VERTEX
  8
0
 10
12.0127
 20
3.11453
 30
0.0
 40
0
 41
0
  0
VERTEX
  8
0
 10
12.0163
 20
3.13346
 30
0.0
 40
0
 41
0
  0
VERTEX
  8
0
 10
12.0263
 20
3.15588
 30
0.0
 40
0
 41
0
  0
VERTEX
  8
0
 10
12.0294
 20
3.16026
 30
0.0
 40
0
 41
0
  0
VERTEX
  8
0
 10
12.0304
 20
3.16183
 30
0.0
 40
0
 41
0
  0
VERTEX
  8
0
 10
12.0406
 20
3.17643
 30
0.0
 40
0
 41
0
  0
VERTEX
  8
0
 10
12.0408
 20
3.17796
 30
0.0
 40
0
 41
0
  0
VERTEX
  8
0
 10
12.0413
 20
3.18083
 30
0.0
 40
0
 41
0
  0
VERTEX
  8
0
 10
12.0372
 20
3.19738
 30
0.0
 40
0
 41
0
  0
VERTEX
  8
0
 10
12.0205
 20
3.21024
 30
0.0
 40
0
 41
0
  0
VERTEX
  8
0
 10
12.0148
 20
3.21126
 30
0.0
 40
0
 41
0
  0
VERTEX
  8
0
 10
12.0135
 20
3.21153
 30
0.0
 40
0
 41
0
  0
VERTEX
  8
0
 10
12.002
 20
3.21235
 30
0.0
 40
0
 41
0
  0
VERTEX
  8
0
 10
11.9982
 20
3.21235
 30
0.0
 40
0
 41
0
  0
VERTEX
  8
0
 10
11.9992
 20
3.21235
 30
0.0
 40
0
 41
0
  0
VERTEX
  8
0
 10
11.995
 20
3.21235
 30
0.0
 40
0
 41
0
  0
VERTEX
  8
0
 10
11.9838
 20
3.21153
 30
0.0
 40
0
 41
0
  0
VERTEX
  8
0
 10
11.9825
 20
3.21126
 30
0.0
 40
0
 41
0
  0
VERTEX
  8
0
 10
11.9768
 20
3.21024
 30
0.0
 40
0
 41
0
  0
VERTEX
  8
0
 10
11.9601
 20
3.19738
 30
0.0
 40
0
 41
0
  0
VERTEX
  8
0
 10
11.9559
 20
3.18083
 30
0.0
 40
0
 41
0
  0
VERTEX
  8
0
 10
11.9565
 20
3.17796
 30
0.0
 40
0
 41
0
  0
VERTEX
  8
0
 10
11.9567
 20
3.17643
 30
0.0
 40
0
 41
0
  0
VERTEX
  8
0
 10
11.9668
 20
3.16183
 30
0.0
 40
0
 41
0
  0
VERTEX
  8
0
 10
11.9679
 20
3.16026
 30
0.0
 40
0
 41
0
  0
VERTEX
  8
0
 10
11.971
 20
3.15588
 30
0.0
 40
0
 41
0
  0
VERTEX
  8
0
 10
11.9809
 20
3.13346
 30
0.0
 40
0
 41
0
  0
VERTEX
  8
0
 10
11.9846
 20
3.11453
 30
0.0
 40
0
 41
0
  0
VERTEX
  8
0
 10
11.9846
 20
3.10818
 30
0.0
 40
0
 41
0
  0
SEQEND
 8
0
  0
POLYLINE
  8
0
 62
     0
 66
     1
 10
0
 20
0
 30
0.0
 40
0.75
 41
0.75
  0
VERTEX
  8
0
 10
12.0127
 20
3.10818
 30
0.0
 40
0.0104167
 41
0.0104167
  0
VERTEX
  8
0
 10
12.0127
 20
3.11453
 30
0.0
 40
0.0104167
 41
0.0104167
  0
VERTEX
  8
0
 10
12.0163
 20
3.13346
 30
0.0
 40
0.0104167
 41
0.0104167
  0
VERTEX
  8
0
 10
12.0263
 20
3.15588
 30
0.0
 40
0.0104167
 41
0.0104167
  0
VERTEX
  8
0
 10
12.0294
 20
3.16026
 30
0.0
 40
0.0104167
 41
0.0104167
  0
VERTEX
  8
0
 10
12.0304
 20
3.16183
 30
0.0
 40
0.0104167
 41
0.0104167
  0
VERTEX
  8
0
 10
12.0406
 20
3.17643
 30
0.0
 40
0.0104167
 41
0.0104167
  0
VERTEX
  8
0
 10
12.0408
 20
3.17796
 30
0.0
 40
0.0104167
 41
0.0104167
  0
VERTEX
  8
0
 10
12.0413
 20
3.18083
 30
0.0
 40
0.0104167
 41
0.0104167
  0
VERTEX
  8
0
 10
12.0372
 20
3.19738
 30
0.0
 40
0.0104167
 41
0.0104167
  0
VERTEX
  8
0
 10
12.0205
 20
3.21024
 30
0.0
 40
0.0104167
 41
0.0104167
  0
VERTEX
  8
0
 10
12.0148
 20
3.21126
 30
0.0
 40
0.0104167
 41
0.0104167
  0
VERTEX
  8
0
 10
12.0135
 20
3.21153
 30
0.0
 40
0.0104167
 41
0.0104167
  0
VERTEX
  8
0
 10
12.002
 20
3.21235
 30
0.0
 40
0.0104167
 41
0.0104167
  0
VERTEX
  8
0
 10
11.9982
 20
3.21235
 30
0.0
 40
0.0104167
 41
0.0104167
  0
VERTEX
  8
0
 10
11.9992
 20
3.21235
 30
0.0
 40
0.0104167
 41
0.0104167
  0
VERTEX
  8
0
 10
11.995
 20
3.21235
 30
0.0
 40
0.0104167
 41
0.0104167
  0
VERTEX
  8
0
 10
11.9838
 20
3.21153
 30
0.0
 40
0.0104167
 41
0.0104167
  0
VERTEX
  8
0
 10
11.9825
 20
3.21126
 30
0.0
 40
0.0104167
 41
0.0104167
  0
VERTEX
  8
0
 10
11.9768
 20
3.21024
 30
0.0
 40
0.0104167
 41
0.0104167
  0
VERTEX
  8
0
 10
11.9601
 20
3.19738
 30
0.0
 40
0.0104167
 41
0.0104167
  0
VERTEX
  8
0
 10
11.9559
 20
3.18083
 30
0.0
 40
0.0104167
 41
0.0104167
  0
VERTEX
  8
0
 10
11.9565
 20
3.17796
 30
0.0
 40
0.0104167
 41
0.0104167
  0
VERTEX
  8
0
 10
11.9567
 20
3.17643
 30
0.0
 40
0.0104167
 41
0.0104167
  0
VERTEX
  8
0
 10
11.9668
 20
3.16183
 30
0.0
 40
0.0104167
 41
0.0104167
  0
VERTEX
  8
0
 10
11.9679
 20
3.16026
 30
0.0
 40
0.0104167
 41
0.0104167
  0
VERTEX
  8
0
 10
11.971
 20
3.15588
 30
0.0
 40
0.0104167
 41
0.0104167
  0
VERTEX
  8
0
 10
11.9809
 20
3.13346
 30
0.0
 40
0.0104167
 41
0.0104167
  0
VERTEX
  8
0
 10
11.9846
 20
3.11453
 30
0.0
 40
0.0104167
 41
0.0104167
  0
VERTEX
  8
0
 10
11.9846
 20
3.10818
 30
0.0
 40
0.0104167
 41
0.0104167
  0
SEQEND
 8
0
  0
POLYLINE
  8
0
 62
     7
 66
     1
 10
0
 20
0
 30
0.0
 70
     1
 40
0
 41
0
  0
VERTEX
  8
0
 10
12.0408
 20
3.17899
 30
0.0
 40
0
 41
0
  0
VERTEX
  8
0
 10
12.0406
 20
3.17953
 30
0.0
 40
0
 41
0
  0
VERTEX
  8
0
 10
12.0287
 20
3.18972
 30
0.0
 40
0
 41
0
  0
VERTEX
  8
0
 10
12.0049
 20
3.19879
 30
0.0
 40
0
 41
0
  0
VERTEX
  8
0
 10
11.9971
 20
3.19879
 30
0.0
 40
0
 41
0
  0
VERTEX
  8
0
 10
11.9908
 20
3.19857
 30
0.0
 40
0
 41
0
  0
VERTEX
  8
0
 10
11.9682
 20
3.18929
 30
0.0
 40
0
 41
0
  0
VERTEX
  8
0
 10
11.957
 20
3.17953
 30
0.0
 40
0
 41
0
  0
VERTEX
  8
0
 10
11.9565
 20
3.17899
 30
0.0
 40
0
 41
0
  0
SEQEND
 8
0
  0
POLYLINE
  8
0
 62
     0
 66
     1
 10
0
 20
0
 30
0.0
 40
0.75
 41
0.75
  0
VERTEX
  8
0
 10
12.0408
 20
3.17899
 30
0.0
 40
0.0104167
 41
0.0104167
  0
VERTEX
  8
0
 10
12.0406
 20
3.17953
 30
0.0
 40
0.0104167
 41
0.0104167
  0
VERTEX
  8
0
 10
12.0287
 20
3.18972
 30
0.0
 40
0.0104167
 41
0.0104167
  0
VERTEX
  8
0
 10
12.0049
 20
3.19879
 30
0.0
 40
0.0104167
 41
0.0104167
  0
VERTEX
  8
0
 10
11.9971
 20
3.19879
 30
0.0
 40
0.0104167
 41
0.0104167
  0
VERTEX
  8
0
 10
11.9908
 20
3.19857
 30
0.0
 40
0.0104167
 41
0.0104167
  0
VERTEX
  8
0
 10
11.9682
 20
3.18929
 30
0.0
 40
0.0104167
 41
0.0104167
  0
VERTEX
  8
0
 10
11.957
 20
3.17953
 30
0.0
 40
0.0104167
 41
0.0104167
  0
VERTEX
  8
0
 10
11.9565
 20
3.17899
 30
0.0
 40
0.0104167
 41
0.0104167
  0
SEQEND
 8
0
  0
POLYLINE
  8
0
 62
     7
 66
     1
 10
0
 20
0
 30
0.0
 70
     1
 40
0
 41
0
  0
VERTEX
  8
0
 10
12.0127
 20
3.02485
 30
0.0
 40
0
 41
0
  0
VERTEX
  8
0
 10
11.9846
 20
3.02485
 30
0.0
 40
0
 41
0
  0
VERTEX
  8
0
 10
11.9846
 20
3.10818
 30
0.0
 40
0
 41
0
  0
VERTEX
  8
0
 10
11.9916
 20
3.10818
 30
0.0
 40
0
 41
0
  0
VERTEX
  8
0
 10
12.0074
 20
3.10818
 30
0.0
 40
0
 41
0
  0
VERTEX
  8
0
 10
12.0127
 20
3.10818
 30
0.0
 40
0
 41
0
  0
VERTEX
  8
0
 10
12.0127
 20
3.08735
 30
0.0
 40
0
 41
0
  0
VERTEX
  8
0
 10
12.0127
 20
3.04047
 30
0.0
 40
0
 41
0
  0
VERTEX
  8
0
 10
12.0127
 20
3.02485
 30
0.0
 40
0
 41
0
  0
SEQEND
 8
0
  0
POLYLINE
  8
0
 62
     0
 66
     1
 10
0
 20
0
 30
0.0
 70
     1
 40
0.75
 41
0.75
  0
VERTEX
  8
0
 10
12.0127
 20
3.02485
 30
0.0
 40
0.0104167
 41
0.0104167
  0
VERTEX
  8
0
 10
11.9846
 20
3.02485
 30
0.0
 40
0.0104167
 41
0.0104167
  0
VERTEX
  8
0
 10
11.9846
 20
3.10818
 30
0.0
 40
0.0104167
 41
0.0104167
  0
VERTEX
  8
0
 10
11.9916
 20
3.10818
 30
0.0
 40
0.0104167
 41
0.0104167
  0
VERTEX
  8
0
 10
12.0074
 20
3.10818
 30
0.0
 40
0.0104167
 41
0.0104167
  0
VERTEX
  8
0
 10
12.0127
 20
3.10818
 30
0.0
 40
0.0104167
 41
0.0104167
  0
VERTEX
  8
0
 10
12.0127
 20
3.08735
 30
0.0
 40
0.0104167
 41
0.0104167
  0
VERTEX
  8
0
 10
12.0127
 20
3.04047
 30
0.0
 40
0.0104167
 41
0.0104167
  0
VERTEX
  8
0
 10
12.0127
 20
3.02485
 30
0.0
 40
0.0104167
 41
0.0104167
  0
SEQEND
 8
0
  0
POLYLINE
  8
0
 62
     7
 66
     1
 10
0
 20
0
 30
0.0
 70
     1
 40
0
 41
0
  0
VERTEX
  8
0
 10
12.1294
 20
3.05713
 30
0.0
 40
0
 41
0
  0
VERTEX
  8
0
 10
12.1261
 20
3.05593
 30
0.0
 40
0
 41
0
  0
VERTEX
  8
0
 10
12.1165
 20
3.05208
 30
0.0
 40
0
 41
0
  0
VERTEX
  8
0
 10
12.1138
 20
3.05089
 30
0.0
 40
0
 41
0
  0
VERTEX
  8
0
 10
12.1138
 20
3.05089
 30
0.0
 40
0
 41
0
  0
VERTEX
  8
0
 10
12.1138
 20
3.05236
 30
0.0
 40
0
 41
0
  0
VERTEX
  8
0
 10
12.1138
 20
3.05664
 30
0.0
 40
0
 41
0
  0
VERTEX
  8
0
 10
12.1138
 20
3.06093
 30
0.0
 40
0
 41
0
  0
VERTEX
  8
0
 10
12.1138
 20
3.06233
 30
0.0
 40
0
 41
0
  0
VERTEX
  8
0
 10
12.1138
 20
3.06233
 30
0.0
 40
0
 41
0
  0
VERTEX
  8
0
 10
12.1161
 20
3.06168
 30
0.0
 40
0
 41
0
  0
VERTEX
  8
0
 10
12.1261
 20
3.05832
 30
0.0
 40
0
 41
0
  0
VERTEX
  8
0
 10
12.1294
 20
3.05713
 30
0.0
 40
0
 41
0
  0
SEQEND
 8
0
  0
POLYLINE
  8
0
 62
     0
 66
     1
 10
0
 20
0
 30
0.0
 70
     1
 40
0.75
 41
0.75
  0
VERTEX
  8
0
 10
12.1294
 20
3.05713
 30
0.0
 40
0.0104167
 41
0.0104167
  0
VERTEX
  8
0
 10
12.1261
 20
3.05593
 30
0.0
 40
0.0104167
 41
0.0104167
  0
VERTEX
  8
0
 10
12.1165
 20
3.05208
 30
0.0
 40
0.0104167
 41
0.0104167
  0
VERTEX
  8
0
 10
12.1138
 20
3.05089
 30
0.0
 40
0.0104167
 41
0.0104167
  0
VERTEX
  8
0
 10
12.1138
 20
3.05089
 30
0.0
 40
0.0104167
 41
0.0104167
  0
VERTEX
  8
0
 10
12.1138
 20
3.05236
 30
0.0
 40
0.0104167
 41
0.0104167
  0
VERTEX
  8
0
 10
12.1138
 20
3.05664
 30
0.0
 40
0.0104167
 41
0.0104167
  0
VERTEX
  8
0
 10
12.1138
 20
3.06093
 30
0.0
 40
0.0104167
 41
0.0104167
  0
VERTEX
  8
0
 10
12.1138
 20
3.06233
 30
0.0
 40
0.0104167
 41
0.0104167
  0
VERTEX
  8
0
 10
12.1138
 20
3.06233
 30
0.0
 40
0.0104167
 41
0.0104167
  0
VERTEX
  8
0
 10
12.1161
 20
3.06168
 30
0.0
 40
0.0104167
 41
0.0104167
  0
VERTEX
  8
0
 10
12.1261
 20
3.05832
 30
0.0
 40
0.0104167
 41
0.0104167
  0
VERTEX
  8
0
 10
12.1294
 20
3.05713
 30
0.0
 40
0.0104167
 41
0.0104167
  0
SEQEND
 8
0
  0
POLYLINE
  8
0
 62
     7
 66
     1
 10
0
 20
0
 30
0.0
 70
     1
 40
0
 41
0
  0
VERTEX
  8
0
 10
11.869
 20
3.05713
 30
0.0
 40
0
 41
0
  0
VERTEX
  8
0
 10
11.8722
 20
3.05593
 30
0.0
 40
0
 41
0
  0
VERTEX
  8
0
 10
11.8818
 20
3.05208
 30
0.0
 40
0
 41
0
  0
VERTEX
  8
0
 10
11.8846
 20
3.05089
 30
0.0
 40
0
 41
0
  0
VERTEX
  8
0
 10
11.8846
 20
3.05089
 30
0.0
 40
0
 41
0
  0
VERTEX
  8
0
 10
11.8846
 20
3.05236
 30
0.0
 40
0
 41
0
  0
VERTEX
  8
0
 10
11.8846
 20
3.05664
 30
0.0
 40
0
 41
0
  0
VERTEX
  8
0
 10
11.8846
 20
3.06093
 30
0.0
 40
0
 41
0
  0
VERTEX
  8
0
 10
11.8846
 20
3.06233
 30
0.0
 40
0
 41
0
  0
VERTEX
  8
0
 10
11.8846
 20
3.06233
 30
0.0
 40
0
 41
0
  0
VERTEX
  8
0
 10
11.8822
 20
3.06168
 30
0.0
 40
0
 41
0
  0
VERTEX
  8
0
 10
11.8722
 20
3.05832
 30
0.0
 40
0
 41
0
  0
VERTEX
  8
0
 10
11.869
 20
3.05713
 30
0.0
 40
0
 41
0
  0
SEQEND
 8
0
  0
POLYLINE
  8
0
 62
     0
 66
     1
 10
0
 20
0
 30
0.0
 70
     1
 40
0.75
 41
0.75
  0
VERTEX
  8
0
 10
11.869
 20
3.05713
 30
0.0
 40
0.0104167
 41
0.0104167
  0
VERTEX
  8
0
 10
11.8722
 20
3.05593
 30
0.0
 40
0.0104167
 41
0.0104167
  0
VERTEX
  8
0
 10
11.8818
 20
3.05208
 30
0.0
 40
0.0104167
 41
0.0104167
  0
VERTEX
  8
0
 10
11.8846
 20
3.05089
 30
0.0
 40
0.0104167
 41
0.0104167
  0
VERTEX
  8
0
 10
11.8846
 20
3.05089
 30
0.0
 40
0.0104167
 41
0.0104167
  0
VERTEX
  8
0
 10
11.8846
 20
3.05236
 30
0.0
 40
0.0104167
 41
0.0104167
  0
VERTEX
  8
0
 10
11.8846
 20
3.05664
 30
0.0
 40
0.0104167
 41
0.0104167
  0
VERTEX
  8
0
 10
11.8846
 20
3.06093
 30
0.0
 40
0.0104167
 41
0.0104167
  0
VERTEX
  8
0
 10
11.8846
 20
3.06233
 30
0.0
 40
0.0104167
 41
0.0104167
  0
VERTEX
  8
0
 10
11.8846
 20
3.06233
 30
0.0
 40
0.0104167
 41
0.0104167
  0
VERTEX
  8
0
 10
11.8822
 20
3.06168
 30
0.0
 40
0.0104167
 41
0.0104167
  0
VERTEX
  8
0
 10
11.8722
 20
3.05832
 30
0.0
 40
0.0104167
 41
0.0104167
  0
VERTEX
  8
0
 10
11.869
 20
3.05713
 30
0.0
 40
0.0104167
 41
0.0104167
  0
SEQEND
 8
0
  0
POLYLINE
  8
0
 62
     7
 66
     1
 10
0
 20
0
 30
0.0
 70
     1
 40
0
 41
0
  0
VERTEX
  8
0
 10
10.9508
 20
5.08149
 30
0.0
 40
0
 41
0
  0
VERTEX
  8
0
 10
11.6744
 20
5.08149
 30
0.0
 40
0
 41
0
  0
VERTEX
  8
0
 10
11.6744
 20
4.38829
 30
0.0
 40
0
 41
0
  0
VERTEX
  8
0
 10
10.9508
 20
4.38829
 30
0.0
 40
0
 41
0
  0
VERTEX
  8
0
 10
10.9508
 20
5.08149
 30
0.0
 40
0
 41
0
  0
SEQEND
 8
0
  0
POLYLINE
  8
0
 62
     0
 66
     1
 10
0
 20
0
 30
0.0
 70
     1
 40
0.868275
 41
0.868275
  0
VERTEX
  8
0
 10
10.9508
 20
5.08149
 30
0.0
 40
0.0120594
 41
0.0120594
  0
VERTEX
  8
0
 10
11.6744
 20
5.08149
 30
0.0
 40
0.0120594
 41
0.0120594
  0
VERTEX
  8
0
 10
11.6744
 20
4.38829
 30
0.0
 40
0.0120594
 41
0.0120594
  0
VERTEX
  8
0
 10
10.9508
 20
4.38829
 30
0.0
 40
0.0120594
 41
0.0120594
  0
VERTEX
  8
0
 10
10.9508
 20
5.08149
 30
0.0
 40
0.0120594
 41
0.0120594
  0
SEQEND
 8
0
  0
POLYLINE
  8
0
 62
     0
 66
     1
 10
0
 20
0
 30
0.0
 40
0.868275
 41
0.868275
  0
VERTEX
  8
0
 10
10.9508
 20
5.08149
 30
0.0
 40
0.0120594
 41
0.0120594
  0
VERTEX
  8
0
 10
11.3139
 20
4.62169
 30
0.0
 40
0.0120594
 41
0.0120594
  0
VERTEX
  8
0
 10
11.3139
 20
4.85736
 30
0.0
 40
0.0120594
 41
0.0120594
  0
VERTEX
  8
0
 10
11.6732
 20
4.38829
 30
0.0
 40
0.0120594
 41
0.0120594
  0
SEQEND
 8
0
  0
POLYLINE
  8
0
 62
     7
 66
     1
 10
0
 20
0
 30
0.0
 70
     1
 40
0
 41
0
  0
VERTEX
  8
0
 10
8.70389
 20
1.63086
 30
0.0
 40
0
 41
0
  0
VERTEX
  8
0
 10
9.32889
 20
1.63086
 30
0.0
 40
0
 41
0
  0
VERTEX
  8
0
 10
9.32889
 20
1.04943
 30
0.0
 40
0
 41
0
  0
VERTEX
  8
0
 10
8.70389
 20
1.04943
 30
0.0
 40
0
 41
0
  0
VERTEX
  8
0
 10
8.70389
 20
1.63086
 30
0.0
 40
0
 41
0
  0
SEQEND
 8
0
  0
POLYLINE
  8
0
 62
     0
 66
     1
 10
0
 20
0
 30
0.0
 70
     1
 40
0.75
 41
0.75
  0
VERTEX
  8
0
 10
8.70389
 20
1.63086
 30
0.0
 40
0.0104167
 41
0.0104167
  0
VERTEX
  8
0
 10
8.70389
 20
1.04943
 30
0.0
 40
0.0104167
 41
0.0104167
  0
VERTEX
  8
0
 10
9.32889
 20
1.04943
 30
0.0
 40
0.0104167
 41
0.0104167
  0
VERTEX
  8
0
 10
9.32889
 20
1.63086
 30
0.0
 40
0.0104167
 41
0.0104167
  0
VERTEX
  8
0
 10
8.70389
 20
1.63086
 30
0.0
 40
0.0104167
 41
0.0104167
  0
SEQEND
 8
0
  0
POLYLINE
  8
0
 62
     7
 66
     1
 10
0
 20
0
 30
0.0
 70
     1
 40
0
 41
0
  0
VERTEX
  8
0
 10
8.70389
 20
2.93679
 30
0.0
 40
0
 41
0
  0
VERTEX
  8
0
 10
9.32889
 20
2.93679
 30
0.0
 40
0
 41
0
  0
VERTEX
  8
0
 10
9.32889
 20
1.63086
 30
0.0
 40
0
 41
0
  0
VERTEX
  8
0
 10
8.70389
 20
1.63086
 30
0.0
 40
0
 41
0
  0
VERTEX
  8
0
 10
8.70389
 20
2.93679
 30
0.0
 40
0
 41
0
  0
SEQEND
 8
0
  0
POLYLINE
  8
0
 62
     0
 66
     1
 10
0
 20
0
 30
0.0
 70
     1
 40
0.75
 41
0.75
  0
VERTEX
  8
0
 10
8.70389
 20
2.93679
 30
0.0
 40
0.0104167
 41
0.0104167
  0
VERTEX
  8
0
 10
8.70389
 20
1.63086
 30
0.0
 40
0.0104167
 41
0.0104167
  0
VERTEX
  8
0
 10
9.32889
 20
1.63086
 30
0.0
 40
0.0104167
 41
0.0104167
  0
VERTEX
  8
0
 10
9.32889
 20
2.93679
 30
0.0
 40
0.0104167
 41
0.0104167
  0
VERTEX
  8
0
 10
8.70389
 20
2.93679
 30
0.0
 40
0.0104167
 41
0.0104167
  0
SEQEND
 8
0
  0
POLYLINE
  8
0
 62
     253
 66
     1
 10
0
 20
0
 30
0.0
 40
0.75
 41
0.75
  0
VERTEX
  8
0
 10
9.01639
 20
1.63086
 30
0.0
 40
0.0104167
 41
0.0104167
  0
VERTEX
  8
0
 10
9.01639
 20
2.93685
 30
0.0
 40
0.0104167
 41
0.0104167
  0
SEQEND
 8
0
  0
POLYLINE
  8
0
 62
     7
 66
     1
 10
0
 20
0
 30
0.0
 70
     1
 40
0
 41
0
  0
VERTEX
  8
0
 10
10.7992
 20
1.71593
 30
0.0
 40
0
 41
0
  0
VERTEX
  8
0
 10
12.4298
 20
1.71593
 30
0.0
 40
0
 41
0
  0
VERTEX
  8
0
 10
12.4298
 20
1.14052
 30
0.0
 40
0
 41
0
  0
VERTEX
  8
0
 10
10.7992
 20
1.14052
 30
0.0
 40
0
 41
0
  0
VERTEX
  8
0
 10
10.7992
 20
1.71593
 30
0.0
 40
0
 41
0
  0
SEQEND
 8
0
  0
POLYLINE
  8
0
 62
     0
 66
     1
 10
0
 20
0
 30
0.0
 70
     1
 40
0.75
 41
0.75
  0
VERTEX
  8
0
 10
10.7992
 20
1.71593
 30
0.0
 40
0.0104167
 41
0.0104167
  0
VERTEX
  8
0
 10
12.4298
 20
1.71593
 30
0.0
 40
0.0104167
 41
0.0104167
  0
VERTEX
  8
0
 10
12.4298
 20
1.14052
 30
0.0
 40
0.0104167
 41
0.0104167
  0
VERTEX
  8
0
 10
10.7992
 20
1.14052
 30
0.0
 40
0.0104167
 41
0.0104167
  0
VERTEX
  8
0
 10
10.7992
 20
1.71593
 30
0.0
 40
0.0104167
 41
0.0104167
  0
SEQEND
 8
0
  0
POLYLINE
  8
0
 62
     253
 66
     1
 10
0
 20
0
 30
0.0
 40
0.375
 41
0.375
  0
VERTEX
  8
0
 10
12.4298
 20
1.17887
 30
0.0
 40
0.00520833
 41
0.00520833
  0
VERTEX
  8
0
 10
10.7992
 20
1.17887
 30
0.0
 40
0.00520833
 41
0.00520833
  0
SEQEND
 8
0
  0
POLYLINE
  8
0
 62
     253
 66
     1
 10
0
 20
0
 30
0.0
 40
0.375
 41
0.375
  0
VERTEX
  8
0
 10
12.4298
 20
1.21723
 30
0.0
 40
0.00520833
 41
0.00520833
  0
VERTEX
  8
0
 10
10.7992
 20
1.21723
 30
0.0
 40
0.00520833
 41
0.00520833
  0
SEQEND
 8
0
  0
POLYLINE
  8
0
 62
     253
 66
     1
 10
0
 20
0
 30
0.0
 40
0.375
 41
0.375
  0
VERTEX
  8
0
 10
12.4298
 20
1.25559
 30
0.0
 40
0.00520833
 41
0.00520833
  0
VERTEX
  8
0
 10
10.7992
 20
1.25559
 30
0.0
 40
0.00520833
 41
0.00520833
  0
SEQEND
 8
0
  0
POLYLINE
  8
0
 62
     253
 66
     1
 10
0
 20
0
 30
0.0
 40
0.375
 41
0.375
  0
VERTEX
  8
0
 10
12.4298
 20
1.29395
 30
0.0
 40
0.00520833
 41
0.00520833
  0
VERTEX
  8
0
 10
10.7992
 20
1.29395
 30
0.0
 40
0.00520833
 41
0.00520833
  0
SEQEND
 8
0
  0
POLYLINE
  8
0
 62
     253
 66
     1
 10
0
 20
0
 30
0.0
 40
0.375
 41
0.375
  0
VERTEX
  8
0
 10
12.4298
 20
1.3323
 30
0.0
 40
0.00520833
 41
0.00520833
  0
VERTEX
  8
0
 10
10.7992
 20
1.3323
 30
0.0
 40
0.00520833
 41
0.00520833
  0
SEQEND
 8
0
  0
POLYLINE
  8
0
 62
     253
 66
     1
 10
0
 20
0
 30
0.0
 40
0.375
 41
0.375
  0
VERTEX
  8
0
 10
12.4298
 20
1.37071
 30
0.0
 40
0.00520833
 41
0.00520833
  0
VERTEX
  8
0
 10
10.7992
 20
1.37071
 30
0.0
 40
0.00520833
 41
0.00520833
  0
SEQEND
 8
0
  0
POLYLINE
  8
0
 62
     253
 66
     1
 10
0
 20
0
 30
0.0
 40
0.375
 41
0.375
  0
VERTEX
  8
0
 10
12.4298
 20
1.40907
 30
0.0
 40
0.00520833
 41
0.00520833
  0
VERTEX
  8
0
 10
10.7992
 20
1.40907
 30
0.0
 40
0.00520833
 41
0.00520833
  0
SEQEND
 8
0
  0
POLYLINE
  8
0
 62
     253
 66
     1
 10
0
 20
0
 30
0.0
 40
0.375
 41
0.375
  0
VERTEX
  8
0
 10
12.4298
 20
1.44743
 30
0.0
 40
0.00520833
 41
0.00520833
  0
VERTEX
  8
0
 10
10.7992
 20
1.44743
 30
0.0
 40
0.00520833
 41
0.00520833
  0
SEQEND
 8
0
  0
POLYLINE
  8
0
 62
     253
 66
     1
 10
0
 20
0
 30
0.0
 40
0.375
 41
0.375
  0
VERTEX
  8
0
 10
12.4298
 20
1.48579
 30
0.0
 40
0.00520833
 41
0.00520833
  0
VERTEX
  8
0
 10
10.7992
 20
1.48579
 30
0.0
 40
0.00520833
 41
0.00520833
  0
SEQEND
 8
0
  0
POLYLINE
  8
0
 62
     253
 66
     1
 10
0
 20
0
 30
0.0
 40
0.375
 41
0.375
  0
VERTEX
  8
0
 10
12.4298
 20
1.52414
 30
0.0
 40
0.00520833
 41
0.00520833
  0
VERTEX
  8
0
 10
10.7992
 20
1.52414
 30
0.0
 40
0.00520833
 41
0.00520833
  0
SEQEND
 8
0
  0
POLYLINE
  8
0
 62
     253
 66
     1
 10
0
 20
0
 30
0.0
 40
0.375
 41
0.375
  0
VERTEX
  8
0
 10
12.4298
 20
1.5625
 30
0.0
 40
0.00520833
 41
0.00520833
  0
VERTEX
  8
0
 10
10.7992
 20
1.5625
 30
0.0
 40
0.00520833
 41
0.00520833
  0
SEQEND
 8
0
  0
POLYLINE
  8
0
 62
     253
 66
     1
 10
0
 20
0
 30
0.0
 40
0.375
 41
0.375
  0
VERTEX
  8
0
 10
12.4298
 20
1.60086
 30
0.0
 40
0.00520833
 41
0.00520833
  0
VERTEX
  8
0
 10
10.7992
 20
1.60086
 30
0.0
 40
0.00520833
 41
0.00520833
  0
SEQEND
 8
0
  0
POLYLINE
  8
0
 62
     253
 66
     1
 10
0
 20
0
 30
0.0
 40
0.375
 41
0.375
  0
VERTEX
  8
0
 10
12.4298
 20
1.63921
 30
0.0
 40
0.00520833
 41
0.00520833
  0
VERTEX
  8
0
 10
10.7992
 20
1.63921
 30
0.0
 40
0.00520833
 41
0.00520833
  0
SEQEND
 8
0
  0
POLYLINE
  8
0
 62
     253
 66
     1
 10
0
 20
0
 30
0.0
 40
0.375
 41
0.375
  0
VERTEX
  8
0
 10
12.4298
 20
1.67757
 30
0.0
 40
0.00520833
 41
0.00520833
  0
VERTEX
  8
0
 10
10.7992
 20
1.67757
 30
0.0
 40
0.00520833
 41
0.00520833
  0
SEQEND
 8
0
  0
POLYLINE
  8
0
 62
     7
 66
     1
 10
0
 20
0
 30
0.0
 70
     1
 40
0
 41
0
  0
VERTEX
  8
0
 10
10.7994
 20
2.13569
 30
0.0
 40
0
 41
0
  0
VERTEX
  8
0
 10
12.4298
 20
2.13569
 30
0.0
 40
0
 41
0
  0
VERTEX
  8
0
 10
12.4298
 20
1.71903
 30
0.0
 40
0
 41
0
  0
VERTEX
  8
0
 10
10.7994
 20
1.71903
 30
0.0
 40
0
 41
0
  0
VERTEX
  8
0
 10
10.7994
 20
2.13569
 30
0.0
 40
0
 41
0
  0
SEQEND
 8
0
  0
POLYLINE
  8
0
 62
     0
 66
     1
 10
0
 20
0
 30
0.0
 70
     1
 40
0.75
 41
0.75
  0
VERTEX
  8
0
 10
10.7994
 20
2.13569
 30
0.0
 40
0.0104167
 41
0.0104167
  0
VERTEX
  8
0
 10
12.4298
 20
2.13569
 30
0.0
 40
0.0104167
 41
0.0104167
  0
VERTEX
  8
0
 10
12.4298
 20
1.71903
 30
0.0
 40
0.0104167
 41
0.0104167
  0
VERTEX
  8
0
 10
10.7994
 20
1.71903
 30
0.0
 40
0.0104167
 41
0.0104167
  0
VERTEX
  8
0
 10
10.7994
 20
2.13569
 30
0.0
 40
0.0104167
 41
0.0104167
  0
SEQEND
 8
0
  0
POLYLINE
  8
0
 62
     253
 66
     1
 10
0
 20
0
 30
0.0
 40
0.375
 41
0.375
  0
VERTEX
  8
0
 10
12.4298
 20
1.76069
 30
0.0
 40
0.00520833
 41
0.00520833
  0
VERTEX
  8
0
 10
10.7994
 20
1.76069
 30
0.0
 40
0.00520833
 41
0.00520833
  0
SEQEND
 8
0
  0
POLYLINE
  8
0
 62
     253
 66
     1
 10
0
 20
0
 30
0.0
 40
0.375
 41
0.375
  0
VERTEX
  8
0
 10
12.4298
 20
1.80236
 30
0.0
 40
0.00520833
 41
0.00520833
  0
VERTEX
  8
0
 10
10.7994
 20
1.80236
 30
0.0
 40
0.00520833
 41
0.00520833
  0
SEQEND
 8
0
  0
POLYLINE
  8
0
 62
     253
 66
     1
 10
0
 20
0
 30
0.0
 40
0.375
 41
0.375
  0
VERTEX
  8
0
 10
12.4298
 20
1.84403
 30
0.0
 40
0.00520833
 41
0.00520833
  0
VERTEX
  8
0
 10
10.7994
 20
1.84403
 30
0.0
 40
0.00520833
 41
0.00520833
  0
SEQEND
 8
0
  0
POLYLINE
  8
0
 62
     253
 66
     1
 10
0
 20
0
 30
0.0
 40
0.375
 41
0.375
  0
VERTEX
  8
0
 10
12.4298
 20
1.88569
 30
0.0
 40
0.00520833
 41
0.00520833
  0
VERTEX
  8
0
 10
10.7994
 20
1.88569
 30
0.0
 40
0.00520833
 41
0.00520833
  0
SEQEND
 8
0
  0
POLYLINE
  8
0
 62
     253
 66
     1
 10
0
 20
0
 30
0.0
 40
0.375
 41
0.375
  0
VERTEX
  8
0
 10
12.4298
 20
1.92736
 30
0.0
 40
0.00520833
 41
0.00520833
  0
VERTEX
  8
0
 10
10.7994
 20
1.92736
 30
0.0
 40
0.00520833
 41
0.00520833
  0
SEQEND
 8
0
  0
POLYLINE
  8
0
 62
     253
 66
     1
 10
0
 20
0
 30
0.0
 40
0.375
 41
0.375
  0
VERTEX
  8
0
 10
12.4298
 20
1.96903
 30
0.0
 40
0.00520833
 41
0.00520833
  0
VERTEX
  8
0
 10
10.7994
 20
1.96903
 30
0.0
 40
0.00520833
 41
0.00520833
  0
SEQEND
 8
0
  0
POLYLINE
  8
0
 62
     253
 66
     1
 10
0
 20
0
 30
0.0
 40
0.375
 41
0.375
  0
VERTEX
  8
0
 10
12.4298
 20
2.01069
 30
0.0
 40
0.00520833
 41
0.00520833
  0
VERTEX
  8
0
 10
10.7994
 20
2.01069
 30
0.0
 40
0.00520833
 41
0.00520833
  0
SEQEND
 8
0
  0
POLYLINE
  8
0
 62
     253
 66
     1
 10
0
 20
0
 30
0.0
 40
0.375
 41
0.375
  0
VERTEX
  8
0
 10
12.4298
 20
2.05236
 30
0.0
 40
0.00520833
 41
0.00520833
  0
VERTEX
  8
0
 10
10.7994
 20
2.05236
 30
0.0
 40
0.00520833
 41
0.00520833
  0
SEQEND
 8
0
  0
POLYLINE
  8
0
 62
     253
 66
     1
 10
0
 20
0
 30
0.0
 40
0.375
 41
0.375
  0
VERTEX
  8
0
 10
12.4298
 20
2.09403
 30
0.0
 40
0.00520833
 41
0.00520833
  0
VERTEX
  8
0
 10
10.7994
 20
2.09403
 30
0.0
 40
0.00520833
 41
0.00520833
  0
SEQEND
 8
0
  0
POLYLINE
  8
0
 62
     7
 66
     1
 10
0
 20
0
 30
0.0
 70
     1
 40
0
 41
0
  0
VERTEX
  8
0
 10
11.755
 20
2.71843
 30
0.0
 40
0
 41
0
  0
VERTEX
  8
0
 10
12.3412
 20
2.71843
 30
0.0
 40
0
 41
0
  0
VERTEX
  8
0
 10
12.3412
 20
2.34901
 30
0.0
 40
0
 41
0
  0
VERTEX
  8
0
 10
11.755
 20
2.34901
 30
0.0
 40
0
 41
0
  0
VERTEX
  8
0
 10
11.755
 20
2.71843
 30
0.0
 40
0
 41
0
  0
SEQEND
 8
0
  0
POLYLINE
  8
0
 62
     0
 66
     1
 10
0
 20
0
 30
0.0
 70
     1
 40
0.703275
 41
0.703275
  0
VERTEX
  8
0
 10
11.755
 20
2.71843
 30
0.0
 40
0.00976771
 41
0.00976771
  0
VERTEX
  8
0
 10
12.3412
 20
2.71843
 30
0.0
 40
0.00976771
 41
0.00976771
  0
VERTEX
  8
0
 10
12.3412
 20
2.34901
 30
0.0
 40
0.00976771
 41
0.00976771
  0
VERTEX
  8
0
 10
11.755
 20
2.34901
 30
0.0
 40
0.00976771
 41
0.00976771
  0
VERTEX
  8
0
 10
11.755
 20
2.71843
 30
0.0
 40
0.00976771
 41
0.00976771
  0
SEQEND
 8
0
  0
POLYLINE
  8
0
 62
     0
 66
     1
 10
0
 20
0
 30
0.0
 40
0.703275
 41
0.703275
  0
VERTEX
  8
0
 10
11.755
 20
2.34901
 30
0.0
 40
0.00976771
 41
0.00976771
  0
VERTEX
  8
0
 10
12.1428
 20
2.53369
 30
0.0
 40
0.00976771
 41
0.00976771
  0
VERTEX
  8
0
 10
11.9641
 20
2.53369
 30
0.0
 40
0.00976771
 41
0.00976771
  0
VERTEX
  8
0
 10
12.3412
 20
2.71843
 30
0.0
 40
0.00976771
 41
0.00976771
  0
SEQEND
 8
0
  0
POLYLINE
  8
0
 62
     7
 66
     1
 10
0
 20
0
 30
0.0
 70
     1
 40
0
 41
0
  0
VERTEX
  8
0
 10
10.9714
 20
7.09864
 30
0.0
 40
0
 41
0
  0
VERTEX
  8
0
 10
11.5964
 20
7.09864
 30
0.0
 40
0
 41
0
  0
VERTEX
  8
0
 10
11.5964
 20
6.49729
 30
0.0
 40
0
 41
0
  0
VERTEX
  8
0
 10
10.9714
 20
6.49729
 30
0.0
 40
0
 41
0
  0
VERTEX
  8
0
 10
10.9714
 20
7.09864
 30
0.0
 40
0
 41
0
  0
SEQEND
 8
0
  0
POLYLINE
  8
0
 62
     0
 66
     1
 10
0
 20
0
 30
0.0
 70
     1
 40
0.75
 41
0.75
  0
VERTEX
  8
0
 10
10.9714
 20
7.09864
 30
0.0
 40
0.0104167
 41
0.0104167
  0
VERTEX
  8
0
 10
11.5964
 20
7.09864
 30
0.0
 40
0.0104167
 41
0.0104167
  0
VERTEX
  8
0
 10
11.5964
 20
6.49729
 30
0.0
 40
0.0104167
 41
0.0104167
  0
VERTEX
  8
0
 10
10.9714
 20
6.49729
 30
0.0
 40
0.0104167
 41
0.0104167
  0
VERTEX
  8
0
 10
10.9714
 20
7.09864
 30
0.0
 40
0.0104167
 41
0.0104167
  0
SEQEND
 8
0
  0
POLYLINE
  8
0
 62
     0
 66
     1
 10
0
 20
0
 30
0.0
 40
0.75
 41
0.75
  0
VERTEX
  8
0
 10
11.5964
 20
6.49729
 30
0.0
 40
0.0104167
 41
0.0104167
  0
VERTEX
  8
0
 10
11.2839
 20
6.86914
 30
0.0
 40
0.0104167
 41
0.0104167
  0
VERTEX
  8
0
 10
11.2839
 20
6.68875
 30
0.0
 40
0.0104167
 41
0.0104167
  0
VERTEX
  8
0
 10
10.9714
 20
7.06153
 30
0.0
 40
0.0104167
 41
0.0104167
  0
SEQEND
 8
0
  0
POLYLINE
  8
0
 62
     7
 66
     1
 10
0
 20
0
 30
0.0
 70
     1
 40
0
 41
0
  0
VERTEX
  8
0
 10
10.9714
 20
7.09864
 30
0.0
 40
0
 41
0
  0
VERTEX
  8
0
 10
11.5964
 20
7.09864
 30
0.0
 40
0
 41
0
  0
VERTEX
  8
0
 10
11.5964
 20
7.05854
 30
0.0
 40
0
 41
0
  0
VERTEX
  8
0
 10
10.9714
 20
7.05854
 30
0.0
 40
0
 41
0
  0
VERTEX
  8
0
 10
10.9714
 20
7.09864
 30
0.0
 40
0
 41
0
  0
SEQEND
 8
0
  0
POLYLINE
  8
0
 62
     0
 66
     1
 10
0
 20
0
 30
0.0
 70
     1
 40
0.75
 41
0.75
  0
VERTEX
  8
0
 10
10.9714
 20
7.09864
 30
0.0
 40
0.0104167
 41
0.0104167
  0
VERTEX
  8
0
 10
11.5964
 20
7.09864
 30
0.0
 40
0.0104167
 41
0.0104167
  0
VERTEX
  8
0
 10
11.5964
 20
7.05854
 30
0.0
 40
0.0104167
 41
0.0104167
  0
VERTEX
  8
0
 10
10.9714
 20
7.05854
 30
0.0
 40
0.0104167
 41
0.0104167
  0
VERTEX
  8
0
 10
10.9714
 20
7.09864
 30
0.0
 40
0.0104167
 41
0.0104167
  0
SEQEND
 8
0
  0
POLYLINE
  8
0
 62
     7
 66
     1
 10
0
 20
0
 30
0.0
 70
     1
 40
0
 41
0
  0
VERTEX
  8
0
 10
9.98589
 20
7.09793
 30
0.0
 40
0
 41
0
  0
VERTEX
  8
0
 10
10.9714
 20
7.09793
 30
0.0
 40
0
 41
0
  0
VERTEX
  8
0
 10
10.9714
 20
6.49669
 30
0.0
 40
0
 41
0
  0
VERTEX
  8
0
 10
9.98589
 20
6.49669
 30
0.0
 40
0
 41
0
  0
VERTEX
  8
0
 10
9.98589
 20
7.09793
 30
0.0
 40
0
 41
0
  0
SEQEND
 8
0
  0
POLYLINE
  8
0
 62
     0
 66
     1
 10
0
 20
0
 30
0.0
 70
     1
 40
0.75
 41
0.75
  0
VERTEX
  8
0
 10
9.98589
 20
7.09793
 30
0.0
 40
0.0104167
 41
0.0104167
  0
VERTEX
  8
0
 10
10.9714
 20
7.09793
 30
0.0
 40
0.0104167
 41
0.0104167
  0
VERTEX
  8
0
 10
10.9714
 20
6.49669
 30
0.0
 40
0.0104167
 41
0.0104167
  0
VERTEX
  8
0
 10
9.98589
 20
6.49669
 30
0.0
 40
0.0104167
 41
0.0104167
  0
VERTEX
  8
0
 10
9.98589
 20
7.09793
 30
0.0
 40
0.0104167
 41
0.0104167
  0
SEQEND
 8
0
  0
POLYLINE
  8
0
 62
     0
 66
     1
 10
0
 20
0
 30
0.0
 70
     1
 40
0.75
 41
0.75
  0
VERTEX
  8
0
 10
9.98497
 20
6.81
 30
0.0
 40
0.0104167
 41
0.0104167
  0
VERTEX
  8
0
 10
10.9714
 20
6.81
 30
0.0
 40
0.0104167
 41
0.0104167
  0
VERTEX
  8
0
 10
10.9714
 20
6.4975
 30
0.0
 40
0.0104167
 41
0.0104167
  0
VERTEX
  8
0
 10
9.98497
 20
6.4975
 30
0.0
 40
0.0104167
 41
0.0104167
  0
VERTEX
  8
0
 10
9.98497
 20
6.81
 30
0.0
 40
0.0104167
 41
0.0104167
  0
SEQEND
 8
0
  0
POLYLINE
  8
0
 62
     7
 66
     1
 10
0
 20
0
 30
0.0
 70
     1
 40
0
 41
0
  0
VERTEX
  8
0
 10
8.33979
 20
9.30469
 30
0.0
 40
0
 41
0
  0
VERTEX
  8
0
 10
8.98178
 20
9.30469
 30
0.0
 40
0
 41
0
  0
VERTEX
  8
0
 10
8.98178
 20
6.66439
 30
0.0
 40
0
 41
0
  0
VERTEX
  8
0
 10
8.33979
 20
6.66439
 30
0.0
 40
0
 41
0
  0
VERTEX
  8
0
 10
8.33979
 20
9.30469
 30
0.0
 40
0
 41
0
  0
SEQEND
 8
0
  0
POLYLINE
  8
0
 62
     0
 66
     1
 10
0
 20
0
 30
0.0
 70
     1
 40
0.75
 41
0.75
  0
VERTEX
  8
0
 10
8.33979
 20
9.30469
 30
0.0
 40
0.0104167
 41
0.0104167
  0
VERTEX
  8
0
 10
8.33979
 20
6.66439
 30
0.0
 40
0.0104167
 41
0.0104167
  0
VERTEX
  8
0
 10
8.98178
 20
6.66439
 30
0.0
 40
0.0104167
 41
0.0104167
  0
VERTEX
  8
0
 10
8.98178
 20
9.30469
 30
0.0
 40
0.0104167
 41
0.0104167
  0
VERTEX
  8
0
 10
8.33979
 20
9.30469
 30
0.0
 40
0.0104167
 41
0.0104167
  0
SEQEND
 8
0
  0
POLYLINE
  8
0
 62
     7
 66
     1
 10
0
 20
0
 30
0.0
 70
     1
 40
0
 41
0
  0
VERTEX
  8
0
 10
8.33811
 20
7.54286
 30
0.0
 40
0
 41
0
  0
VERTEX
  8
0
 10
8.98133
 20
7.54286
 30
0.0
 40
0
 41
0
  0
VERTEX
  8
0
 10
8.98133
 20
6.97711
 30
0.0
 40
0
 41
0
  0
VERTEX
  8
0
 10
8.33811
 20
6.97711
 30
0.0
 40
0
 41
0
  0
VERTEX
  8
0
 10
8.33811
 20
7.54286
 30
0.0
 40
0
 41
0
  0
SEQEND
 8
0
  0
POLYLINE
  8
0
 62
     0
 66
     1
 10
0
 20
0
 30
0.0
 70
     1
 40
0.75
 41
0.75
  0
VERTEX
  8
0
 10
8.33811
 20
7.54286
 30
0.0
 40
0.0104167
 41
0.0104167
  0
VERTEX
  8
0
 10
8.33811
 20
6.97711
 30
0.0
 40
0.0104167
 41
0.0104167
  0
VERTEX
  8
0
 10
8.98133
 20
6.97711
 30
0.0
 40
0.0104167
 41
0.0104167
  0
VERTEX
  8
0
 10
8.98133
 20
7.54286
 30
0.0
 40
0.0104167
 41
0.0104167
  0
VERTEX
  8
0
 10
8.33811
 20
7.54286
 30
0.0
 40
0.0104167
 41
0.0104167
  0
SEQEND
 8
0
  0
POLYLINE
  8
0
 62
     7
 66
     1
 10
0
 20
0
 30
0.0
 70
     1
 40
0
 41
0
  0
VERTEX
  8
0
 10
8.50043
 20
7.20144
 30
0.0
 40
0
 41
0
  0
VERTEX
  8
0
 10
8.50851
 20
7.20144
 30
0.0
 40
0
 41
0
  0
VERTEX
  8
0
 10
8.53282
 20
7.19493
 30
0.0
 40
0
 41
0
  0
VERTEX
  8
0
 10
8.55935
 20
7.17703
 30
0.0
 40
0
 41
0
  0
VERTEX
  8
0
 10
8.57721
 20
7.15056
 30
0.0
 40
0
 41
0
  0
VERTEX
  8
0
 10
8.58376
 20
7.12625
 30
0.0
 40
0
 41
0
  0
VERTEX
  8
0
 10
8.58376
 20
7.11811
 30
0.0
 40
0
 41
0
  0
VERTEX
  8
0
 10
8.58376
 20
7.11003
 30
0.0
 40
0
 41
0
  0
VERTEX
  8
0
 10
8.57721
 20
7.08567
 30
0.0
 40
0
 41
0
  0
VERTEX
  8
0
 10
8.55935
 20
7.05919
 30
0.0
 40
0
 41
0
  0
VERTEX
  8
0
 10
8.53282
 20
7.04135
 30
0.0
 40
0
 41
0
  0
VERTEX
  8
0
 10
8.50851
 20
7.03478
 30
0.0
 40
0
 41
0
  0
VERTEX
  8
0
 10
8.50043
 20
7.03478
 30
0.0
 40
0
 41
0
  0
VERTEX
  8
0
 10
8.49229
 20
7.03478
 30
0.0
 40
0
 41
0
  0
VERTEX
  8
0
 10
8.46799
 20
7.04135
 30
0.0
 40
0
 41
0
  0
VERTEX
  8
0
 10
8.44151
 20
7.05919
 30
0.0
 40
0
 41
0
  0
VERTEX
  8
0
 10
8.42361
 20
7.08567
 30
0.0
 40
0
 41
0
  0
VERTEX
  8
0
 10
8.4171
 20
7.11003
 30
0.0
 40
0
 41
0
  0
VERTEX
  8
0
 10
8.4171
 20
7.11811
 30
0.0
 40
0
 41
0
  0
VERTEX
  8
0
 10
8.4171
 20
7.12625
 30
0.0
 40
0
 41
0
  0
VERTEX
  8
0
 10
8.42361
 20
7.15056
 30
0.0
 40
0
 41
0
  0
VERTEX
  8
0
 10
8.44151
 20
7.17703
 30
0.0
 40
0
 41
0
  0
VERTEX
  8
0
 10
8.46799
 20
7.19493
 30
0.0
 40
0
 41
0
  0
VERTEX
  8
0
 10
8.49229
 20
7.20144
 30
0.0
 40
0
 41
0
  0
VERTEX
  8
0
 10
8.50043
 20
7.20144
 30
0.0
 40
0
 41
0
  0
SEQEND
 8
0
  0
POLYLINE
  8
0
 62
     0
 66
     1
 10
0
 20
0
 30
0.0
 70
     1
 40
0.75
 41
0.75
  0
VERTEX
  8
0
 10
8.50043
 20
7.20144
 30
0.0
 40
0.0104167
 41
0.0104167
  0
VERTEX
  8
0
 10
8.50851
 20
7.20144
 30
0.0
 40
0.0104167
 41
0.0104167
  0
VERTEX
  8
0
 10
8.53282
 20
7.19493
 30
0.0
 40
0.0104167
 41
0.0104167
  0
VERTEX
  8
0
 10
8.55935
 20
7.17703
 30
0.0
 40
0.0104167
 41
0.0104167
  0
VERTEX
  8
0
 10
8.57721
 20
7.15056
 30
0.0
 40
0.0104167
 41
0.0104167
  0
VERTEX
  8
0
 10
8.58376
 20
7.12625
 30
0.0
 40
0.0104167
 41
0.0104167
  0
VERTEX
  8
0
 10
8.58376
 20
7.11811
 30
0.0
 40
0.0104167
 41
0.0104167
  0
VERTEX
  8
0
 10
8.58376
 20
7.11003
 30
0.0
 40
0.0104167
 41
0.0104167
  0
VERTEX
  8
0
 10
8.57721
 20
7.08567
 30
0.0
 40
0.0104167
 41
0.0104167
  0
VERTEX
  8
0
 10
8.55935
 20
7.05919
 30
0.0
 40
0.0104167
 41
0.0104167
  0
VERTEX
  8
0
 10
8.53282
 20
7.04135
 30
0.0
 40
0.0104167
 41
0.0104167
  0
VERTEX
  8
0
 10
8.50851
 20
7.03478
 30
0.0
 40
0.0104167
 41
0.0104167
  0
VERTEX
  8
0
 10
8.50043
 20
7.03478
 30
0.0
 40
0.0104167
 41
0.0104167
  0
VERTEX
  8
0
 10
8.49229
 20
7.03478
 30
0.0
 40
0.0104167
 41
0.0104167
  0
VERTEX
  8
0
 10
8.46799
 20
7.04135
 30
0.0
 40
0.0104167
 41
0.0104167
  0
VERTEX
  8
0
 10
8.44151
 20
7.05919
 30
0.0
 40
0.0104167
 41
0.0104167
  0
VERTEX
  8
0
 10
8.42361
 20
7.08567
 30
0.0
 40
0.0104167
 41
0.0104167
  0
VERTEX
  8
0
 10
8.4171
 20
7.11003
 30
0.0
 40
0.0104167
 41
0.0104167
  0
VERTEX
  8
0
 10
8.4171
 20
7.11811
 30
0.0
 40
0.0104167
 41
0.0104167
  0
VERTEX
  8
0
 10
8.4171
 20
7.12625
 30
0.0
 40
0.0104167
 41
0.0104167
  0
VERTEX
  8
0
 10
8.42361
 20
7.15056
 30
0.0
 40
0.0104167
 41
0.0104167
  0
VERTEX
  8
0
 10
8.44151
 20
7.17703
 30
0.0
 40
0.0104167
 41
0.0104167
  0
VERTEX
  8
0
 10
8.46799
 20
7.19493
 30
0.0
 40
0.0104167
 41
0.0104167
  0
VERTEX
  8
0
 10
8.49229
 20
7.20144
 30
0.0
 40
0.0104167
 41
0.0104167
  0
VERTEX
  8
0
 10
8.50043
 20
7.20144
 30
0.0
 40
0.0104167
 41
0.0104167
  0
SEQEND
 8
0
  0
POLYLINE
  8
0
 62
     7
 66
     1
 10
0
 20
0
 30
0.0
 70
     1
 40
0
 41
0
  0
VERTEX
  8
0
 10
8.50043
 20
7.4846
 30
0.0
 40
0
 41
0
  0
VERTEX
  8
0
 10
8.50851
 20
7.4846
 30
0.0
 40
0
 41
0
  0
VERTEX
  8
0
 10
8.53282
 20
7.47808
 30
0.0
 40
0
 41
0
  0
VERTEX
  8
0
 10
8.55935
 20
7.46018
 30
0.0
 40
0
 41
0
  0
VERTEX
  8
0
 10
8.57721
 20
7.43371
 30
0.0
 40
0
 41
0
  0
VERTEX
  8
0
 10
8.58376
 20
7.4094
 30
0.0
 40
0
 41
0
  0
VERTEX
  8
0
 10
8.58376
 20
7.40126
 30
0.0
 40
0
 41
0
  0
VERTEX
  8
0
 10
8.58376
 20
7.39318
 30
0.0
 40
0
 41
0
  0
VERTEX
  8
0
 10
8.57721
 20
7.36888
 30
0.0
 40
0
 41
0
  0
VERTEX
  8
0
 10
8.55935
 20
7.34233
 30
0.0
 40
0
 41
0
  0
VERTEX
  8
0
 10
8.53282
 20
7.32449
 30
0.0
 40
0
 41
0
  0
VERTEX
  8
0
 10
8.50851
 20
7.31793
 30
0.0
 40
0
 41
0
  0
VERTEX
  8
0
 10
8.50043
 20
7.31793
 30
0.0
 40
0
 41
0
  0
VERTEX
  8
0
 10
8.49229
 20
7.31793
 30
0.0
 40
0
 41
0
  0
VERTEX
  8
0
 10
8.46799
 20
7.32449
 30
0.0
 40
0
 41
0
  0
VERTEX
  8
0
 10
8.44151
 20
7.34233
 30
0.0
 40
0
 41
0
  0
VERTEX
  8
0
 10
8.42361
 20
7.36888
 30
0.0
 40
0
 41
0
  0
VERTEX
  8
0
 10
8.4171
 20
7.39318
 30
0.0
 40
0
 41
0
  0
VERTEX
  8
0
 10
8.4171
 20
7.40126
 30
0.0
 40
0
 41
0
  0
VERTEX
  8
0
 10
8.4171
 20
7.4094
 30
0.0
 40
0
 41
0
  0
VERTEX
  8
0
 10
8.42361
 20
7.43371
 30
0.0
 40
0
 41
0
  0
VERTEX
  8
0
 10
8.44151
 20
7.46018
 30
0.0
 40
0
 41
0
  0
VERTEX
  8
0
 10
8.46799
 20
7.47808
 30
0.0
 40
0
 41
0
  0
VERTEX
  8
0
 10
8.49229
 20
7.4846
 30
0.0
 40
0
 41
0
  0
VERTEX
  8
0
 10
8.50043
 20
7.4846
 30
0.0
 40
0
 41
0
  0
SEQEND
 8
0
  0
POLYLINE
  8
0
 62
     0
 66
     1
 10
0
 20
0
 30
0.0
 70
     1
 40
0.75
 41
0.75
  0
VERTEX
  8
0
 10
8.50043
 20
7.4846
 30
0.0
 40
0.0104167
 41
0.0104167
  0
VERTEX
  8
0
 10
8.50851
 20
7.4846
 30
0.0
 40
0.0104167
 41
0.0104167
  0
VERTEX
  8
0
 10
8.53282
 20
7.47808
 30
0.0
 40
0.0104167
 41
0.0104167
  0
VERTEX
  8
0
 10
8.55935
 20
7.46018
 30
0.0
 40
0.0104167
 41
0.0104167
  0
VERTEX
  8
0
 10
8.57721
 20
7.43371
 30
0.0
 40
0.0104167
 41
0.0104167
  0
VERTEX
  8
0
 10
8.58376
 20
7.4094
 30
0.0
 40
0.0104167
 41
0.0104167
  0
VERTEX
  8
0
 10
8.58376
 20
7.40126
 30
0.0
 40
0.0104167
 41
0.0104167
  0
VERTEX
  8
0
 10
8.58376
 20
7.39318
 30
0.0
 40
0.0104167
 41
0.0104167
  0
VERTEX
  8
0
 10
8.57721
 20
7.36888
 30
0.0
 40
0.0104167
 41
0.0104167
  0
VERTEX
  8
0
 10
8.55935
 20
7.34233
 30
0.0
 40
0.0104167
 41
0.0104167
  0
VERTEX
  8
0
 10
8.53282
 20
7.32449
 30
0.0
 40
0.0104167
 41
0.0104167
  0
VERTEX
  8
0
 10
8.50851
 20
7.31793
 30
0.0
 40
0.0104167
 41
0.0104167
  0
VERTEX
  8
0
 10
8.50043
 20
7.31793
 30
0.0
 40
0.0104167
 41
0.0104167
  0
VERTEX
  8
0
 10
8.49229
 20
7.31793
 30
0.0
 40
0.0104167
 41
0.0104167
  0
VERTEX
  8
0
 10
8.46799
 20
7.32449
 30
0.0
 40
0.0104167
 41
0.0104167
  0
VERTEX
  8
0
 10
8.44151
 20
7.34233
 30
0.0
 40
0.0104167
 41
0.0104167
  0
VERTEX
  8
0
 10
8.42361
 20
7.36888
 30
0.0
 40
0.0104167
 41
0.0104167
  0
VERTEX
  8
0
 10
8.4171
 20
7.39318
 30
0.0
 40
0.0104167
 41
0.0104167
  0
VERTEX
  8
0
 10
8.4171
 20
7.40126
 30
0.0
 40
0.0104167
 41
0.0104167
  0
VERTEX
  8
0
 10
8.4171
 20
7.4094
 30
0.0
 40
0.0104167
 41
0.0104167
  0
VERTEX
  8
0
 10
8.42361
 20
7.43371
 30
0.0
 40
0.0104167
 41
0.0104167
  0
VERTEX
  8
0
 10
8.44151
 20
7.46018
 30
0.0
 40
0.0104167
 41
0.0104167
  0
VERTEX
  8
0
 10
8.46799
 20
7.47808
 30
0.0
 40
0.0104167
 41
0.0104167
  0
VERTEX
  8
0
 10
8.49229
 20
7.4846
 30
0.0
 40
0.0104167
 41
0.0104167
  0
VERTEX
  8
0
 10
8.50043
 20
7.4846
 30
0.0
 40
0.0104167
 41
0.0104167
  0
SEQEND
 8
0
  0
POLYLINE
  8
0
 62
     7
 66
     1
 10
0
 20
0
 30
0.0
 70
     1
 40
0
 41
0
  0
VERTEX
  8
0
 10
8.82101
 20
7.20144
 30
0.0
 40
0
 41
0
  0
VERTEX
  8
0
 10
8.8291
 20
7.20144
 30
0.0
 40
0
 41
0
  0
VERTEX
  8
0
 10
8.8534
 20
7.19493
 30
0.0
 40
0
 41
0
  0
VERTEX
  8
0
 10
8.87993
 20
7.17703
 30
0.0
 40
0
 41
0
  0
VERTEX
  8
0
 10
8.89779
 20
7.15056
 30
0.0
 40
0
 41
0
  0
VERTEX
  8
0
 10
8.90435
 20
7.12625
 30
0.0
 40
0
 41
0
  0
VERTEX
  8
0
 10
8.90435
 20
7.11811
 30
0.0
 40
0
 41
0
  0
VERTEX
  8
0
 10
8.90435
 20
7.11003
 30
0.0
 40
0
 41
0
  0
VERTEX
  8
0
 10
8.89779
 20
7.08567
 30
0.0
 40
0
 41
0
  0
VERTEX
  8
0
 10
8.87993
 20
7.05919
 30
0.0
 40
0
 41
0
  0
VERTEX
  8
0
 10
8.8534
 20
7.04135
 30
0.0
 40
0
 41
0
  0
VERTEX
  8
0
 10
8.8291
 20
7.03478
 30
0.0
 40
0
 41
0
  0
VERTEX
  8
0
 10
8.82101
 20
7.03478
 30
0.0
 40
0
 41
0
  0
VERTEX
  8
0
 10
8.81287
 20
7.03478
 30
0.0
 40
0
 41
0
  0
VERTEX
  8
0
 10
8.78851
 20
7.04135
 30
0.0
 40
0
 41
0
  0
VERTEX
  8
0
 10
8.76204
 20
7.05919
 30
0.0
 40
0
 41
0
  0
VERTEX
  8
0
 10
8.74419
 20
7.08567
 30
0.0
 40
0
 41
0
  0
VERTEX
  8
0
 10
8.73768
 20
7.11003
 30
0.0
 40
0
 41
0
  0
VERTEX
  8
0
 10
8.73768
 20
7.11811
 30
0.0
 40
0
 41
0
  0
VERTEX
  8
0
 10
8.73768
 20
7.12625
 30
0.0
 40
0
 41
0
  0
VERTEX
  8
0
 10
8.74419
 20
7.15056
 30
0.0
 40
0
 41
0
  0
VERTEX
  8
0
 10
8.76204
 20
7.17703
 30
0.0
 40
0
 41
0
  0
VERTEX
  8
0
 10
8.78851
 20
7.19493
 30
0.0
 40
0
 41
0
  0
VERTEX
  8
0
 10
8.81287
 20
7.20144
 30
0.0
 40
0
 41
0
  0
VERTEX
  8
0
 10
8.82101
 20
7.20144
 30
0.0
 40
0
 41
0
  0
SEQEND
 8
0
  0
POLYLINE
  8
0
 62
     0
 66
     1
 10
0
 20
0
 30
0.0
 70
     1
 40
0.75
 41
0.75
  0
VERTEX
  8
0
 10
8.82101
 20
7.20144
 30
0.0
 40
0.0104167
 41
0.0104167
  0
VERTEX
  8
0
 10
8.8291
 20
7.20144
 30
0.0
 40
0.0104167
 41
0.0104167
  0
VERTEX
  8
0
 10
8.8534
 20
7.19493
 30
0.0
 40
0.0104167
 41
0.0104167
  0
VERTEX
  8
0
 10
8.87993
 20
7.17703
 30
0.0
 40
0.0104167
 41
0.0104167
  0
VERTEX
  8
0
 10
8.89779
 20
7.15056
 30
0.0
 40
0.0104167
 41
0.0104167
  0
VERTEX
  8
0
 10
8.90435
 20
7.12625
 30
0.0
 40
0.0104167
 41
0.0104167
  0
VERTEX
  8
0
 10
8.90435
 20
7.11811
 30
0.0
 40
0.0104167
 41
0.0104167
  0
VERTEX
  8
0
 10
8.90435
 20
7.11003
 30
0.0
 40
0.0104167
 41
0.0104167
  0
VERTEX
  8
0
 10
8.89779
 20
7.08567
 30
0.0
 40
0.0104167
 41
0.0104167
  0
VERTEX
  8
0
 10
8.87993
 20
7.05919
 30
0.0
 40
0.0104167
 41
0.0104167
  0
VERTEX
  8
0
 10
8.8534
 20
7.04135
 30
0.0
 40
0.0104167
 41
0.0104167
  0
VERTEX
  8
0
 10
8.8291
 20
7.03478
 30
0.0
 40
0.0104167
 41
0.0104167
  0
VERTEX
  8
0
 10
8.82101
 20
7.03478
 30
0.0
 40
0.0104167
 41
0.0104167
  0
VERTEX
  8
0
 10
8.81287
 20
7.03478
 30
0.0
 40
0.0104167
 41
0.0104167
  0
VERTEX
  8
0
 10
8.78851
 20
7.04135
 30
0.0
 40
0.0104167
 41
0.0104167
  0
VERTEX
  8
0
 10
8.76204
 20
7.05919
 30
0.0
 40
0.0104167
 41
0.0104167
  0
VERTEX
  8
0
 10
8.74419
 20
7.08567
 30
0.0
 40
0.0104167
 41
0.0104167
  0
VERTEX
  8
0
 10
8.73768
 20
7.11003
 30
0.0
 40
0.0104167
 41
0.0104167
  0
VERTEX
  8
0
 10
8.73768
 20
7.11811
 30
0.0
 40
0.0104167
 41
0.0104167
  0
VERTEX
  8
0
 10
8.73768
 20
7.12625
 30
0.0
 40
0.0104167
 41
0.0104167
  0
VERTEX
  8
0
 10
8.74419
 20
7.15056
 30
0.0
 40
0.0104167
 41
0.0104167
  0
VERTEX
  8
0
 10
8.76204
 20
7.17703
 30
0.0
 40
0.0104167
 41
0.0104167
  0
VERTEX
  8
0
 10
8.78851
 20
7.19493
 30
0.0
 40
0.0104167
 41
0.0104167
  0
VERTEX
  8
0
 10
8.81287
 20
7.20144
 30
0.0
 40
0.0104167
 41
0.0104167
  0
VERTEX
  8
0
 10
8.82101
 20
7.20144
 30
0.0
 40
0.0104167
 41
0.0104167
  0
SEQEND
 8
0
  0
POLYLINE
  8
0
 62
     7
 66
     1
 10
0
 20
0
 30
0.0
 70
     1
 40
0
 41
0
  0
VERTEX
  8
0
 10
8.82101
 20
7.4846
 30
0.0
 40
0
 41
0
  0
VERTEX
  8
0
 10
8.8291
 20
7.4846
 30
0.0
 40
0
 41
0
  0
VERTEX
  8
0
 10
8.8534
 20
7.47808
 30
0.0
 40
0
 41
0
  0
VERTEX
  8
0
 10
8.87993
 20
7.46018
 30
0.0
 40
0
 41
0
  0
VERTEX
  8
0
 10
8.89779
 20
7.43371
 30
0.0
 40
0
 41
0
  0
VERTEX
  8
0
 10
8.90435
 20
7.4094
 30
0.0
 40
0
 41
0
  0
VERTEX
  8
0
 10
8.90435
 20
7.40126
 30
0.0
 40
0
 41
0
  0
VERTEX
  8
0
 10
8.90435
 20
7.39318
 30
0.0
 40
0
 41
0
  0
VERTEX
  8
0
 10
8.89779
 20
7.36888
 30
0.0
 40
0
 41
0
  0
VERTEX
  8
0
 10
8.87993
 20
7.34233
 30
0.0
 40
0
 41
0
  0
VERTEX
  8
0
 10
8.8534
 20
7.32449
 30
0.0
 40
0
 41
0
  0
VERTEX
  8
0
 10
8.8291
 20
7.31793
 30
0.0
 40
0
 41
0
  0
VERTEX
  8
0
 10
8.82101
 20
7.31793
 30
0.0
 40
0
 41
0
  0
VERTEX
  8
0
 10
8.81287
 20
7.31793
 30
0.0
 40
0
 41
0
  0
VERTEX
  8
0
 10
8.78851
 20
7.32449
 30
0.0
 40
0
 41
0
  0
VERTEX
  8
0
 10
8.76204
 20
7.34233
 30
0.0
 40
0
 41
0
  0
VERTEX
  8
0
 10
8.74419
 20
7.36888
 30
0.0
 40
0
 41
0
  0
VERTEX
  8
0
 10
8.73768
 20
7.39318
 30
0.0
 40
0
 41
0
  0
VERTEX
  8
0
 10
8.73768
 20
7.40126
 30
0.0
 40
0
 41
0
  0
VERTEX
  8
0
 10
8.73768
 20
7.4094
 30
0.0
 40
0
 41
0
  0
VERTEX
  8
0
 10
8.74419
 20
7.43371
 30
0.0
 40
0
 41
0
  0
VERTEX
  8
0
 10
8.76204
 20
7.46018
 30
0.0
 40
0
 41
0
  0
VERTEX
  8
0
 10
8.78851
 20
7.47808
 30
0.0
 40
0
 41
0
  0
VERTEX
  8
0
 10
8.81287
 20
7.4846
 30
0.0
 40
0
 41
0
  0
VERTEX
  8
0
 10
8.82101
 20
7.4846
 30
0.0
 40
0
 41
0
  0
SEQEND
 8
0
  0
POLYLINE
  8
0
 62
     0
 66
     1
 10
0
 20
0
 30
0.0
 70
     1
 40
0.75
 41
0.75
  0
VERTEX
  8
0
 10
8.82101
 20
7.4846
 30
0.0
 40
0.0104167
 41
0.0104167
  0
VERTEX
  8
0
 10
8.8291
 20
7.4846
 30
0.0
 40
0.0104167
 41
0.0104167
  0
VERTEX
  8
0
 10
8.8534
 20
7.47808
 30
0.0
 40
0.0104167
 41
0.0104167
  0
VERTEX
  8
0
 10
8.87993
 20
7.46018
 30
0.0
 40
0.0104167
 41
0.0104167
  0
VERTEX
  8
0
 10
8.89779
 20
7.43371
 30
0.0
 40
0.0104167
 41
0.0104167
  0
VERTEX
  8
0
 10
8.90435
 20
7.4094
 30
0.0
 40
0.0104167
 41
0.0104167
  0
VERTEX
  8
0
 10
8.90435
 20
7.40126
 30
0.0
 40
0.0104167
 41
0.0104167
  0
VERTEX
  8
0
 10
8.90435
 20
7.39318
 30
0.0
 40
0.0104167
 41
0.0104167
  0
VERTEX
  8
0
 10
8.89779
 20
7.36888
 30
0.0
 40
0.0104167
 41
0.0104167
  0
VERTEX
  8
0
 10
8.87993
 20
7.34233
 30
0.0
 40
0.0104167
 41
0.0104167
  0
VERTEX
  8
0
 10
8.8534
 20
7.32449
 30
0.0
 40
0.0104167
 41
0.0104167
  0
VERTEX
  8
0
 10
8.8291
 20
7.31793
 30
0.0
 40
0.0104167
 41
0.0104167
  0
VERTEX
  8
0
 10
8.82101
 20
7.31793
 30
0.0
 40
0.0104167
 41
0.0104167
  0
VERTEX
  8
0
 10
8.81287
 20
7.31793
 30
0.0
 40
0.0104167
 41
0.0104167
  0
VERTEX
  8
0
 10
8.78851
 20
7.32449
 30
0.0
 40
0.0104167
 41
0.0104167
  0
VERTEX
  8
0
 10
8.76204
 20
7.34233
 30
0.0
 40
0.0104167
 41
0.0104167
  0
VERTEX
  8
0
 10
8.74419
 20
7.36888
 30
0.0
 40
0.0104167
 41
0.0104167
  0
VERTEX
  8
0
 10
8.73768
 20
7.39318
 30
0.0
 40
0.0104167
 41
0.0104167
  0
VERTEX
  8
0
 10
8.73768
 20
7.40126
 30
0.0
 40
0.0104167
 41
0.0104167
  0
VERTEX
  8
0
 10
8.73768
 20
7.4094
 30
0.0
 40
0.0104167
 41
0.0104167
  0
VERTEX
  8
0
 10
8.74419
 20
7.43371
 30
0.0
 40
0.0104167
 41
0.0104167
  0
VERTEX
  8
0
 10
8.76204
 20
7.46018
 30
0.0
 40
0.0104167
 41
0.0104167
  0
VERTEX
  8
0
 10
8.78851
 20
7.47808
 30
0.0
 40
0.0104167
 41
0.0104167
  0
VERTEX
  8
0
 10
8.81287
 20
7.4846
 30
0.0
 40
0.0104167
 41
0.0104167
  0
VERTEX
  8
0
 10
8.82101
 20
7.4846
 30
0.0
 40
0.0104167
 41
0.0104167
  0
SEQEND
 8
0
  0
POLYLINE
  8
0
 62
     7
 66
     1
 10
0
 20
0
 30
0.0
 70
     1
 40
0
 41
0
  0
VERTEX
  8
0
 10
8.33979
 20
9.30474
 30
0.0
 40
0
 41
0
  0
VERTEX
  8
0
 10
8.98247
 20
9.30474
 30
0.0
 40
0
 41
0
  0
VERTEX
  8
0
 10
8.98247
 20
8.71511
 30
0.0
 40
0
 41
0
  0
VERTEX
  8
0
 10
8.33979
 20
8.71511
 30
0.0
 40
0
 41
0
  0
VERTEX
  8
0
 10
8.33979
 20
9.30474
 30
0.0
 40
0
 41
0
  0
SEQEND
 8
0
  0
POLYLINE
  8
0
 62
     0
 66
     1
 10
0
 20
0
 30
0.0
 70
     1
 40
0.70755
 41
0.70755
  0
VERTEX
  8
0
 10
8.33979
 20
9.30474
 30
0.0
 40
0.00982708
 41
0.00982708
  0
VERTEX
  8
0
 10
8.33979
 20
8.71511
 30
0.0
 40
0.00982708
 41
0.00982708
  0
VERTEX
  8
0
 10
8.98247
 20
8.71511
 30
0.0
 40
0.00982708
 41
0.00982708
  0
VERTEX
  8
0
 10
8.98247
 20
9.30474
 30
0.0
 40
0.00982708
 41
0.00982708
  0
VERTEX
  8
0
 10
8.33979
 20
9.30474
 30
0.0
 40
0.00982708
 41
0.00982708
  0
SEQEND
 8
0
  0
POLYLINE
  8
0
 62
     0
 66
     1
 10
0
 20
0
 30
0.0
 40
0.70755
 41
0.70755
  0
VERTEX
  8
0
 10
8.33979
 20
8.71511
 30
0.0
 40
0.00982708
 41
0.00982708
  0
VERTEX
  8
0
 10
8.76606
 20
9.0109
 30
0.0
 40
0.00982708
 41
0.00982708
  0
VERTEX
  8
0
 10
8.54758
 20
9.0109
 30
0.0
 40
0.00982708
 41
0.00982708
  0
VERTEX
  8
0
 10
8.98247
 20
9.30371
 30
0.0
 40
0.00982708
 41
0.00982708
  0
SEQEND
 8
0
  0
POLYLINE
  8
0
 62
     7
 66
     1
 10
0
 20
0
 30
0.0
 70
     1
 40
0
 41
0
  0
VERTEX
  8
0
 10
8.66525
 20
8.49457
 30
0.0
 40
0
 41
0
  0
VERTEX
  8
0
 10
8.68744
 20
8.49457
 30
0.0
 40
0
 41
0
  0
VERTEX
  8
0
 10
8.75401
 20
8.47575
 30
0.0
 40
0
 41
0
  0
VERTEX
  8
0
 10
8.8265
 20
8.42443
 30
0.0
 40
0
 41
0
  0
VERTEX
  8
0
 10
8.87537
 20
8.34825
 30
0.0
 40
0
 41
0
  0
VERTEX
  8
0
 10
8.89333
 20
8.27832
 30
0.0
 40
0
 41
0
  0
VERTEX
  8
0
 10
8.89333
 20
8.25499
 30
0.0
 40
0
 41
0
  0
VERTEX
  8
0
 10
8.89333
 20
8.23172
 30
0.0
 40
0
 41
0
  0
VERTEX
  8
0
 10
8.87537
 20
8.16178
 30
0.0
 40
0
 41
0
  0
VERTEX
  8
0
 10
8.8265
 20
8.08561
 30
0.0
 40
0
 41
0
  0
VERTEX
  8
0
 10
8.75401
 20
8.03429
 30
0.0
 40
0
 41
0
  0
VERTEX
  8
0
 10
8.68744
 20
8.0154
 30
0.0
 40
0
 41
0
  0
VERTEX
  8
0
 10
8.66525
 20
8.0154
 30
0.0
 40
0
 41
0
  0
VERTEX
  8
0
 10
8.64307
 20
8.0154
 30
0.0
 40
0
 41
0
  0
VERTEX
  8
0
 10
8.5765
 20
8.03429
 30
0.0
 40
0
 41
0
  0
VERTEX
  8
0
 10
8.50401
 20
8.08561
 30
0.0
 40
0
 41
0
  0
VERTEX
  8
0
 10
8.45514
 20
8.16178
 30
0.0
 40
0
 41
0
  0
VERTEX
  8
0
 10
8.43722
 20
8.23172
 30
0.0
 40
0
 41
0
  0
VERTEX
  8
0
 10
8.43722
 20
8.25499
 30
0.0
 40
0
 41
0
  0
VERTEX
  8
0
 10
8.43722
 20
8.27832
 30
0.0
 40
0
 41
0
  0
VERTEX
  8
0
 10
8.45514
 20
8.34825
 30
0.0
 40
0
 41
0
  0
VERTEX
  8
0
 10
8.50401
 20
8.42443
 30
0.0
 40
0
 41
0
  0
VERTEX
  8
0
 10
8.5765
 20
8.47575
 30
0.0
 40
0
 41
0
  0
VERTEX
  8
0
 10
8.64307
 20
8.49457
 30
0.0
 40
0
 41
0
  0
VERTEX
  8
0
 10
8.66525
 20
8.49457
 30
0.0
 40
0
 41
0
  0
SEQEND
 8
0
  0
POLYLINE
  8
0
 62
     0
 66
     1
 10
0
 20
0
 30
0.0
 70
     1
 40
0.75
 41
0.75
  0
VERTEX
  8
0
 10
8.66525
 20
8.49457
 30
0.0
 40
0.0104167
 41
0.0104167
  0
VERTEX
  8
0
 10
8.68744
 20
8.49457
 30
0.0
 40
0.0104167
 41
0.0104167
  0
VERTEX
  8
0
 10
8.75401
 20
8.47575
 30
0.0
 40
0.0104167
 41
0.0104167
  0
VERTEX
  8
0
 10
8.8265
 20
8.42443
 30
0.0
 40
0.0104167
 41
0.0104167
  0
VERTEX
  8
0
 10
8.87537
 20
8.34825
 30
0.0
 40
0.0104167
 41
0.0104167
  0
VERTEX
  8
0
 10
8.89333
 20
8.27832
 30
0.0
 40
0.0104167
 41
0.0104167
  0
VERTEX
  8
0
 10
8.89333
 20
8.25499
 30
0.0
 40
0.0104167
 41
0.0104167
  0
VERTEX
  8
0
 10
8.89333
 20
8.23172
 30
0.0
 40
0.0104167
 41
0.0104167
  0
VERTEX
  8
0
 10
8.87537
 20
8.16178
 30
0.0
 40
0.0104167
 41
0.0104167
  0
VERTEX
  8
0
 10
8.8265
 20
8.08561
 30
0.0
 40
0.0104167
 41
0.0104167
  0
VERTEX
  8
0
 10
8.75401
 20
8.03429
 30
0.0
 40
0.0104167
 41
0.0104167
  0
VERTEX
  8
0
 10
8.68744
 20
8.0154
 30
0.0
 40
0.0104167
 41
0.0104167
  0
VERTEX
  8
0
 10
8.66525
 20
8.0154
 30
0.0
 40
0.0104167
 41
0.0104167
  0
VERTEX
  8
0
 10
8.64307
 20
8.0154
 30
0.0
 40
0.0104167
 41
0.0104167
  0
VERTEX
  8
0
 10
8.5765
 20
8.03429
 30
0.0
 40
0.0104167
 41
0.0104167
  0
VERTEX
  8
0
 10
8.50401
 20
8.08561
 30
0.0
 40
0.0104167
 41
0.0104167
  0
VERTEX
  8
0
 10
8.45514
 20
8.16178
 30
0.0
 40
0.0104167
 41
0.0104167
  0
VERTEX
  8
0
 10
8.43722
 20
8.23172
 30
0.0
 40
0.0104167
 41
0.0104167
  0
VERTEX
  8
0
 10
8.43722
 20
8.25499
 30
0.0
 40
0.0104167
 41
0.0104167
  0
VERTEX
  8
0
 10
8.43722
 20
8.27832
 30
0.0
 40
0.0104167
 41
0.0104167
  0
VERTEX
  8
0
 10
8.45514
 20
8.34825
 30
0.0
 40
0.0104167
 41
0.0104167
  0
VERTEX
  8
0
 10
8.50401
 20
8.42443
 30
0.0
 40
0.0104167
 41
0.0104167
  0
VERTEX
  8
0
 10
8.5765
 20
8.47575
 30
0.0
 40
0.0104167
 41
0.0104167
  0
VERTEX
  8
0
 10
8.64307
 20
8.49457
 30
0.0
 40
0.0104167
 41
0.0104167
  0
VERTEX
  8
0
 10
8.66525
 20
8.49457
 30
0.0
 40
0.0104167
 41
0.0104167
  0
SEQEND
 8
0
  0
POLYLINE
  8
0
 62
     7
 66
     1
 10
0
 20
0
 30
0.0
 70
     1
 40
0
 41
0
  0
VERTEX
  8
0
 10
8.66525
 20
8.29144
 30
0.0
 40
0
 41
0
  0
VERTEX
  8
0
 10
8.67139
 20
8.29144
 30
0.0
 40
0
 41
0
  0
VERTEX
  8
0
 10
8.68978
 20
8.28082
 30
0.0
 40
0
 41
0
  0
VERTEX
  8
0
 10
8.69997
 20
8.26144
 30
0.0
 40
0
 41
0
  0
VERTEX
  8
0
 10
8.69997
 20
8.25499
 30
0.0
 40
0
 41
0
  0
VERTEX
  8
0
 10
8.69997
 20
8.24858
 30
0.0
 40
0
 41
0
  0
VERTEX
  8
0
 10
8.68978
 20
8.22922
 30
0.0
 40
0
 41
0
  0
VERTEX
  8
0
 10
8.67139
 20
8.21853
 30
0.0
 40
0
 41
0
  0
VERTEX
  8
0
 10
8.66525
 20
8.21853
 30
0.0
 40
0
 41
0
  0
VERTEX
  8
0
 10
8.65912
 20
8.21853
 30
0.0
 40
0
 41
0
  0
VERTEX
  8
0
 10
8.64074
 20
8.22922
 30
0.0
 40
0
 41
0
  0
VERTEX
  8
0
 10
8.63058
 20
8.24858
 30
0.0
 40
0
 41
0
  0
VERTEX
  8
0
 10
8.63058
 20
8.25499
 30
0.0
 40
0
 41
0
  0
VERTEX
  8
0
 10
8.63058
 20
8.26144
 30
0.0
 40
0
 41
0
  0
VERTEX
  8
0
 10
8.64074
 20
8.28082
 30
0.0
 40
0
 41
0
  0
VERTEX
  8
0
 10
8.65912
 20
8.29144
 30
0.0
 40
0
 41
0
  0
VERTEX
  8
0
 10
8.66525
 20
8.29144
 30
0.0
 40
0
 41
0
  0
SEQEND
 8
0
  0
POLYLINE
  8
0
 62
     0
 66
     1
 10
0
 20
0
 30
0.0
 70
     1
 40
0.75
 41
0.75
  0
VERTEX
  8
0
 10
8.66525
 20
8.29144
 30
0.0
 40
0.0104167
 41
0.0104167
  0
VERTEX
  8
0
 10
8.67139
 20
8.29144
 30
0.0
 40
0.0104167
 41
0.0104167
  0
VERTEX
  8
0
 10
8.68978
 20
8.28082
 30
0.0
 40
0.0104167
 41
0.0104167
  0
VERTEX
  8
0
 10
8.69997
 20
8.26144
 30
0.0
 40
0.0104167
 41
0.0104167
  0
VERTEX
  8
0
 10
8.69997
 20
8.25499
 30
0.0
 40
0.0104167
 41
0.0104167
  0
VERTEX
  8
0
 10
8.69997
 20
8.24858
 30
0.0
 40
0.0104167
 41
0.0104167
  0
VERTEX
  8
0
 10
8.68978
 20
8.22922
 30
0.0
 40
0.0104167
 41
0.0104167
  0
VERTEX
  8
0
 10
8.67139
 20
8.21853
 30
0.0
 40
0.0104167
 41
0.0104167
  0
VERTEX
  8
0
 10
8.66525
 20
8.21853
 30
0.0
 40
0.0104167
 41
0.0104167
  0
VERTEX
  8
0
 10
8.65912
 20
8.21853
 30
0.0
 40
0.0104167
 41
0.0104167
  0
VERTEX
  8
0
 10
8.64074
 20
8.22922
 30
0.0
 40
0.0104167
 41
0.0104167
  0
VERTEX
  8
0
 10
8.63058
 20
8.24858
 30
0.0
 40
0.0104167
 41
0.0104167
  0
VERTEX
  8
0
 10
8.63058
 20
8.25499
 30
0.0
 40
0.0104167
 41
0.0104167
  0
VERTEX
  8
0
 10
8.63058
 20
8.26144
 30
0.0
 40
0.0104167
 41
0.0104167
  0
VERTEX
  8
0
 10
8.64074
 20
8.28082
 30
0.0
 40
0.0104167
 41
0.0104167
  0
VERTEX
  8
0
 10
8.65912
 20
8.29144
 30
0.0
 40
0.0104167
 41
0.0104167
  0
VERTEX
  8
0
 10
8.66525
 20
8.29144
 30
0.0
 40
0.0104167
 41
0.0104167
  0
SEQEND
 8
0
  0
POLYLINE
  8
0
 62
     7
 66
     1
 10
0
 20
0
 30
0.0
 70
     1
 40
0
 41
0
  0
VERTEX
  8
0
 10
8.66525
 20
8.27582
 30
0.0
 40
0
 41
0
  0
VERTEX
  8
0
 10
8.66872
 20
8.27582
 30
0.0
 40
0
 41
0
  0
VERTEX
  8
0
 10
8.67925
 20
8.26975
 30
0.0
 40
0
 41
0
  0
VERTEX
  8
0
 10
8.68511
 20
8.25868
 30
0.0
 40
0
 41
0
  0
VERTEX
  8
0
 10
8.68511
 20
8.25499
 30
0.0
 40
0
 41
0
  0
VERTEX
  8
0
 10
8.68511
 20
8.25136
 30
0.0
 40
0
 41
0
  0
VERTEX
  8
0
 10
8.67925
 20
8.24029
 30
0.0
 40
0
 41
0
  0
VERTEX
  8
0
 10
8.66872
 20
8.23415
 30
0.0
 40
0
 41
0
  0
VERTEX
  8
0
 10
8.66525
 20
8.23415
 30
0.0
 40
0
 41
0
  0
VERTEX
  8
0
 10
8.66174
 20
8.23415
 30
0.0
 40
0
 41
0
  0
VERTEX
  8
0
 10
8.65126
 20
8.24029
 30
0.0
 40
0
 41
0
  0
VERTEX
  8
0
 10
8.64546
 20
8.25136
 30
0.0
 40
0
 41
0
  0
VERTEX
  8
0
 10
8.64546
 20
8.25499
 30
0.0
 40
0
 41
0
  0
VERTEX
  8
0
 10
8.64546
 20
8.25868
 30
0.0
 40
0
 41
0
  0
VERTEX
  8
0
 10
8.65126
 20
8.26975
 30
0.0
 40
0
 41
0
  0
VERTEX
  8
0
 10
8.66174
 20
8.27582
 30
0.0
 40
0
 41
0
  0
VERTEX
  8
0
 10
8.66525
 20
8.27582
 30
0.0
 40
0
 41
0
  0
SEQEND
 8
0
  0
POLYLINE
  8
0
 62
     0
 66
     1
 10
0
 20
0
 30
0.0
 70
     1
 40
0.75
 41
0.75
  0
VERTEX
  8
0
 10
8.66525
 20
8.27582
 30
0.0
 40
0.0104167
 41
0.0104167
  0
VERTEX
  8
0
 10
8.66872
 20
8.27582
 30
0.0
 40
0.0104167
 41
0.0104167
  0
VERTEX
  8
0
 10
8.67925
 20
8.26975
 30
0.0
 40
0.0104167
 41
0.0104167
  0
VERTEX
  8
0
 10
8.68511
 20
8.25868
 30
0.0
 40
0.0104167
 41
0.0104167
  0
VERTEX
  8
0
 10
8.68511
 20
8.25499
 30
0.0
 40
0.0104167
 41
0.0104167
  0
VERTEX
  8
0
 10
8.68511
 20
8.25136
 30
0.0
 40
0.0104167
 41
0.0104167
  0
VERTEX
  8
0
 10
8.67925
 20
8.24029
 30
0.0
 40
0.0104167
 41
0.0104167
  0
VERTEX
  8
0
 10
8.66872
 20
8.23415
 30
0.0
 40
0.0104167
 41
0.0104167
  0
VERTEX
  8
0
 10
8.66525
 20
8.23415
 30
0.0
 40
0.0104167
 41
0.0104167
  0
VERTEX
  8
0
 10
8.66174
 20
8.23415
 30
0.0
 40
0.0104167
 41
0.0104167
  0
VERTEX
  8
0
 10
8.65126
 20
8.24029
 30
0.0
 40
0.0104167
 41
0.0104167
  0
VERTEX
  8
0
 10
8.64546
 20
8.25136
 30
0.0
 40
0.0104167
 41
0.0104167
  0
VERTEX
  8
0
 10
8.64546
 20
8.25499
 30
0.0
 40
0.0104167
 41
0.0104167
  0
VERTEX
  8
0
 10
8.64546
 20
8.25868
 30
0.0
 40
0.0104167
 41
0.0104167
  0
VERTEX
  8
0
 10
8.65126
 20
8.26975
 30
0.0
 40
0.0104167
 41
0.0104167
  0
VERTEX
  8
0
 10
8.66174
 20
8.27582
 30
0.0
 40
0.0104167
 41
0.0104167
  0
VERTEX
  8
0
 10
8.66525
 20
8.27582
 30
0.0
 40
0.0104167
 41
0.0104167
  0
SEQEND
 8
0
  0
POLYLINE
  8
0
 62
     7
 66
     1
 10
0
 20
0
 30
0.0
 70
     1
 40
0
 41
0
  0
VERTEX
  8
0
 10
8.39757
 20
8.28624
 30
0.0
 40
0
 41
0
  0
VERTEX
  8
0
 10
8.5364
 20
8.28624
 30
0.0
 40
0
 41
0
  0
VERTEX
  8
0
 10
8.5364
 20
8.22374
 30
0.0
 40
0
 41
0
  0
VERTEX
  8
0
 10
8.39757
 20
8.22374
 30
0.0
 40
0
 41
0
  0
VERTEX
  8
0
 10
8.39757
 20
8.28624
 30
0.0
 40
0
 41
0
  0
SEQEND
 8
0
  0
POLYLINE
  8
0
 62
     0
 66
     1
 10
0
 20
0
 30
0.0
 70
     1
 40
0.75
 41
0.75
  0
VERTEX
  8
0
 10
8.39757
 20
8.28624
 30
0.0
 40
0.0104167
 41
0.0104167
  0
VERTEX
  8
0
 10
8.39757
 20
8.22374
 30
0.0
 40
0.0104167
 41
0.0104167
  0
VERTEX
  8
0
 10
8.5364
 20
8.22374
 30
0.0
 40
0.0104167
 41
0.0104167
  0
VERTEX
  8
0
 10
8.5364
 20
8.28624
 30
0.0
 40
0.0104167
 41
0.0104167
  0
VERTEX
  8
0
 10
8.39757
 20
8.28624
 30
0.0
 40
0.0104167
 41
0.0104167
  0
SEQEND
 8
0
  0
POLYLINE
  8
0
 62
     0
 66
     1
 10
0
 20
0
 30
0.0
 70
     1
 40
0.75
 41
0.75
  0
VERTEX
  8
0
 10
8.33979
 20
6.66439
 30
0.0
 40
0.0104167
 41
0.0104167
  0
VERTEX
  8
0
 10
8.67378
 20
6.66439
 30
0.0
 40
0.0104167
 41
0.0104167
  0
VERTEX
  8
0
 10
8.67378
 20
6.98014
 30
0.0
 40
0.0104167
 41
0.0104167
  0
VERTEX
  8
0
 10
8.78928
 20
6.98014
 30
0.0
 40
0.0104167
 41
0.0104167
  0
VERTEX
  8
0
 10
8.78928
 20
7.54775
 30
0.0
 40
0.0104167
 41
0.0104167
  0
VERTEX
  8
0
 10
8.67854
 20
7.54775
 30
0.0
 40
0.0104167
 41
0.0104167
  0
VERTEX
  8
0
 10
8.67854
 20
9.30479
 30
0.0
 40
0.0104167
 41
0.0104167
  0
VERTEX
  8
0
 10
8.33979
 20
9.30469
 30
0.0
 40
0.0104167
 41
0.0104167
  0
VERTEX
  8
0
 10
8.338
 20
6.6716
 30
0.0
 40
0.0104167
 41
0.0104167
  0
VERTEX
  8
0
 10
8.33979
 20
6.66439
 30
0.0
 40
0.0104167
 41
0.0104167
  0
SEQEND
 8
0
  0
ENDSEC
  0
EOF
