  0
SECTION
  2
HEADER
  9
$ACADVER
  1
AC1009
  9
$FILLMODE
 70
 0
  9
$SPLFRAME
 70
 1
  9
$EXTMIN
 10
0
 20
0
 30
0.0
  9
$EXTMAX
 10
41.6667
 20
41.6667
 30
0.0
  0
ENDSEC
  0
SECTION
  2
TABLES
  0
TABLE
  2
LAYER
 70
1
  0
LAYER
  2
0
 70
     0
 62
     7
  6
CONTINUOUS
  0
ENDTAB
  0
ENDSEC
  0
SECTION
  2
ENTITIES
  0
POLYLINE
  8
0
 62
     7
 66
     1
 10
0
 20
0
 30
0.0
 70
     1
 40
0
 41
0
  0
VERTEX
  8
0
 10
3.59239
 20
12.7266
 30
0.0
 40
0
 41
0
  0
VERTEX
  8
0
 10
7.96479
 20
12.7266
 30
0.0
 40
0
 41
0
  0
VERTEX
  8
0
 10
7.96479
 20
9.88542
 30
0.0
 40
0
 41
0
  0
VERTEX
  8
0
 10
3.59239
 20
9.88542
 30
0.0
 40
0
 41
0
  0
VERTEX
  8
0
 10
3.59239
 20
12.7266
 30
0.0
 40
0
 41
0
  0
SEQEND
 8
0
  0
POLYLINE
  8
0
 62
     0
 66
     1
 10
0
 20
0
 30
0.0
 70
     1
 40
0.15
 41
0.15
  0
VERTEX
  8
0
 10
3.59239
 20
12.7266
 30
0.0
 40
0.00208333
 41
0.00208333
  0
VERTEX
  8
0
 10
7.96479
 20
12.7266
 30
0.0
 40
0.00208333
 41
0.00208333
  0
VERTEX
  8
0
 10
7.96479
 20
9.88542
 30
0.0
 40
0.00208333
 41
0.00208333
  0
VERTEX
  8
0
 10
3.59239
 20
9.88542
 30
0.0
 40
0.00208333
 41
0.00208333
  0
VERTEX
  8
0
 10
3.59239
 20
12.7266
 30
0.0
 40
0.00208333
 41
0.00208333
  0
SEQEND
 8
0
  0
TEXT
  8
0
 62
     0
 10
5.04835
 20
11.2411
 30
0.0
 40
0.34375
  1
P
 50
0
  0
TEXT
  8
0
 62
     0
 10
5.24735
 20
11.2411
 30
0.0
 40
0.34375
  1
ARVEKE
 50
0
  0
POLYLINE
  8
0
 62
     7
 66
     1
 10
0
 20
0
 30
0.0
 70
     1
 40
0
 41
0
  0
VERTEX
  8
0
 10
10.4654
 20
4.2545
 30
0.0
 40
0
 41
0
  0
VERTEX
  8
0
 10
9.79665
 20
4.2545
 30
0.0
 40
0
 41
0
  0
VERTEX
  8
0
 10
9.79665
 20
3.82383
 30
0.0
 40
0
 41
0
  0
VERTEX
  8
0
 10
10.4654
 20
3.82383
 30
0.0
 40
0
 41
0
  0
VERTEX
  8
0
 10
10.4654
 20
1.48665
 30
0.0
 40
0
 41
0
  0
VERTEX
  8
0
 10
8.64344
 20
1.48665
 30
0.0
 40
0
 41
0
  0
VERTEX
  8
0
 10
8.64344
 20
2.1174
 30
0.0
 40
0
 41
0
  0
VERTEX
  8
0
 10
8.63732
 20
2.1174
 30
0.0
 40
0
 41
0
  0
VERTEX
  8
0
 10
8.63732
 20
4.19249
 30
0.0
 40
0
 41
0
  0
VERTEX
  8
0
 10
4.66292
 20
4.19249
 30
0.0
 40
0
 41
0
  0
VERTEX
  8
0
 10
4.66292
 20
5.41906
 30
0.0
 40
0
 41
0
  0
VERTEX
  8
0
 10
6.36094
 20
5.41906
 30
0.0
 40
0
 41
0
  0
VERTEX
  8
0
 10
6.36094
 20
5.43832
 30
0.0
 40
0
 41
0
  0
VERTEX
  8
0
 10
10.4654
 20
5.43832
 30
0.0
 40
0
 41
0
  0
VERTEX
  8
0
 10
10.4654
 20
4.2545
 30
0.0
 40
0
 41
0
  0
SEQEND
 8
0
  0
POLYLINE
  8
0
 62
     7
 66
     1
 10
0
 20
0
 30
0.0
 70
     1
 40
0.15
 41
0.15
  0
VERTEX
  8
0
 10
10.4654
 20
4.2545
 30
0.0
 40
0.00208333
 41
0.00208333
  0
VERTEX
  8
0
 10
9.79665
 20
4.2545
 30
0.0
 40
0.00208333
 41
0.00208333
  0
VERTEX
  8
0
 10
9.79665
 20
3.82383
 30
0.0
 40
0.00208333
 41
0.00208333
  0
VERTEX
  8
0
 10
10.4654
 20
3.82383
 30
0.0
 40
0.00208333
 41
0.00208333
  0
VERTEX
  8
0
 10
10.4654
 20
1.48665
 30
0.0
 40
0.00208333
 41
0.00208333
  0
VERTEX
  8
0
 10
8.64344
 20
1.48665
 30
0.0
 40
0.00208333
 41
0.00208333
  0
VERTEX
  8
0
 10
8.64344
 20
2.1174
 30
0.0
 40
0.00208333
 41
0.00208333
  0
VERTEX
  8
0
 10
8.63732
 20
2.1174
 30
0.0
 40
0.00208333
 41
0.00208333
  0
VERTEX
  8
0
 10
8.63732
 20
4.19249
 30
0.0
 40
0.00208333
 41
0.00208333
  0
VERTEX
  8
0
 10
4.66292
 20
4.19249
 30
0.0
 40
0.00208333
 41
0.00208333
  0
VERTEX
  8
0
 10
4.66292
 20
5.41906
 30
0.0
 40
0.00208333
 41
0.00208333
  0
VERTEX
  8
0
 10
6.36094
 20
5.41906
 30
0.0
 40
0.00208333
 41
0.00208333
  0
VERTEX
  8
0
 10
6.36094
 20
5.43832
 30
0.0
 40
0.00208333
 41
0.00208333
  0
VERTEX
  8
0
 10
10.4654
 20
5.43832
 30
0.0
 40
0.00208333
 41
0.00208333
  0
VERTEX
  8
0
 10
10.4654
 20
4.2545
 30
0.0
 40
0.00208333
 41
0.00208333
  0
SEQEND
 8
0
  0
TEXT
  8
0
 62
     0
 10
9.02442
 20
3.86451
 30
0.0
 40
0.34375
  1
ET
 50
0
  0
POLYLINE
  8
0
 62
     7
 66
     1
 10
0
 20
0
 30
0.0
 70
     1
 40
0
 41
0
  0
VERTEX
  8
0
 10
6.36094
 20
9.38542
 30
0.0
 40
0
 41
0
  0
VERTEX
  8
0
 10
10.4654
 20
9.38542
 30
0.0
 40
0
 41
0
  0
VERTEX
  8
0
 10
10.4654
 20
5.43832
 30
0.0
 40
0
 41
0
  0
VERTEX
  8
0
 10
6.36094
 20
5.43832
 30
0.0
 40
0
 41
0
  0
VERTEX
  8
0
 10
6.36094
 20
9.38542
 30
0.0
 40
0
 41
0
  0
SEQEND
 8
0
  0
POLYLINE
  8
0
 62
     7
 66
     1
 10
0
 20
0
 30
0.0
 70
     1
 40
0.15
 41
0.15
  0
VERTEX
  8
0
 10
6.36094
 20
9.38542
 30
0.0
 40
0.00208333
 41
0.00208333
  0
VERTEX
  8
0
 10
10.4654
 20
9.38542
 30
0.0
 40
0.00208333
 41
0.00208333
  0
VERTEX
  8
0
 10
10.4654
 20
5.43832
 30
0.0
 40
0.00208333
 41
0.00208333
  0
VERTEX
  8
0
 10
6.36094
 20
5.43832
 30
0.0
 40
0.00208333
 41
0.00208333
  0
VERTEX
  8
0
 10
6.36094
 20
9.38542
 30
0.0
 40
0.00208333
 41
0.00208333
  0
SEQEND
 8
0
  0
TEXT
  8
0
 62
     0
 10
8.28814
 20
7.32729
 30
0.0
 40
0.34375
  1
OH
 50
0
  0
POLYLINE
  8
0
 62
     7
 66
     1
 10
0
 20
0
 30
0.0
 70
     1
 40
0
 41
0
  0
VERTEX
  8
0
 10
8.63732
 20
2.1174
 30
0.0
 40
0
 41
0
  0
VERTEX
  8
0
 10
8.52886
 20
2.1174
 30
0.0
 40
0
 41
0
  0
VERTEX
  8
0
 10
8.52886
 20
1.48665
 30
0.0
 40
0
 41
0
  0
VERTEX
  8
0
 10
4.66292
 20
1.48665
 30
0.0
 40
0
 41
0
  0
VERTEX
  8
0
 10
4.66292
 20
4.19249
 30
0.0
 40
0
 41
0
  0
VERTEX
  8
0
 10
8.63732
 20
4.19249
 30
0.0
 40
0
 41
0
  0
VERTEX
  8
0
 10
8.63732
 20
2.1174
 30
0.0
 40
0
 41
0
  0
SEQEND
 8
0
  0
POLYLINE
  8
0
 62
     7
 66
     1
 10
0
 20
0
 30
0.0
 70
     1
 40
0.15
 41
0.15
  0
VERTEX
  8
0
 10
8.63732
 20
2.1174
 30
0.0
 40
0.00208333
 41
0.00208333
  0
VERTEX
  8
0
 10
8.52886
 20
2.1174
 30
0.0
 40
0.00208333
 41
0.00208333
  0
VERTEX
  8
0
 10
8.52886
 20
1.48665
 30
0.0
 40
0.00208333
 41
0.00208333
  0
VERTEX
  8
0
 10
4.66292
 20
1.48665
 30
0.0
 40
0.00208333
 41
0.00208333
  0
VERTEX
  8
0
 10
4.66292
 20
4.19249
 30
0.0
 40
0.00208333
 41
0.00208333
  0
VERTEX
  8
0
 10
8.63732
 20
4.19249
 30
0.0
 40
0.00208333
 41
0.00208333
  0
VERTEX
  8
0
 10
8.63732
 20
2.1174
 30
0.0
 40
0.00208333
 41
0.00208333
  0
SEQEND
 8
0
  0
TEXT
  8
0
 62
     0
 10
7.43607
 20
2.74165
 30
0.0
 40
0.34375
  1
K
 50
0
  0
POLYLINE
  8
0
 62
     7
 66
     1
 10
0
 20
0
 30
0.0
 70
     1
 40
0
 41
0
  0
VERTEX
  8
0
 10
6.72592
 20
4.2545
 30
0.0
 40
0
 41
0
  0
VERTEX
  8
0
 10
8.64344
 20
4.2545
 30
0.0
 40
0
 41
0
  0
VERTEX
  8
0
 10
8.64344
 20
4.13992
 30
0.0
 40
0
 41
0
  0
VERTEX
  8
0
 10
6.72592
 20
4.13992
 30
0.0
 40
0
 41
0
  0
VERTEX
  8
0
 10
6.72592
 20
4.2545
 30
0.0
 40
0
 41
0
  0
SEQEND
 8
0
  0
POLYLINE
  8
0
 62
     7
 66
     1
 10
0
 20
0
 30
0.0
 70
     1
 40
0.15
 41
0.15
  0
VERTEX
  8
0
 10
6.72592
 20
4.2545
 30
0.0
 40
0.00208333
 41
0.00208333
  0
VERTEX
  8
0
 10
8.64344
 20
4.2545
 30
0.0
 40
0.00208333
 41
0.00208333
  0
VERTEX
  8
0
 10
8.64344
 20
4.13992
 30
0.0
 40
0.00208333
 41
0.00208333
  0
VERTEX
  8
0
 10
6.72592
 20
4.13992
 30
0.0
 40
0.00208333
 41
0.00208333
  0
VERTEX
  8
0
 10
6.72592
 20
4.2545
 30
0.0
 40
0.00208333
 41
0.00208333
  0
SEQEND
 8
0
  0
TEXT
  8
0
 62
     0
 10
6.78328
 20
4.19724
 30
0.0
 40
0.34375
  1
UNDEFINED
 50
0
  0
POLYLINE
  8
0
 62
     7
 66
     1
 10
0
 20
0
 30
0.0
 70
     1
 40
0
 41
0
  0
VERTEX
  8
0
 10
6.24636
 20
5.53364
 30
0.0
 40
0
 41
0
  0
VERTEX
  8
0
 10
4.66292
 20
5.53364
 30
0.0
 40
0
 41
0
  0
VERTEX
  8
0
 10
4.66292
 20
6.23844
 30
0.0
 40
0
 41
0
  0
VERTEX
  8
0
 10
2.63917
 20
6.23844
 30
0.0
 40
0
 41
0
  0
VERTEX
  8
0
 10
2.63917
 20
9.38542
 30
0.0
 40
0
 41
0
  0
VERTEX
  8
0
 10
6.24636
 20
9.38542
 30
0.0
 40
0
 41
0
  0
VERTEX
  8
0
 10
6.24636
 20
5.53364
 30
0.0
 40
0
 41
0
  0
SEQEND
 8
0
  0
POLYLINE
  8
0
 62
     7
 66
     1
 10
0
 20
0
 30
0.0
 70
     1
 40
0.15
 41
0.15
  0
VERTEX
  8
0
 10
6.24636
 20
5.53364
 30
0.0
 40
0.00208333
 41
0.00208333
  0
VERTEX
  8
0
 10
4.66292
 20
5.53364
 30
0.0
 40
0.00208333
 41
0.00208333
  0
VERTEX
  8
0
 10
4.66292
 20
6.23844
 30
0.0
 40
0.00208333
 41
0.00208333
  0
VERTEX
  8
0
 10
2.63917
 20
6.23844
 30
0.0
 40
0.00208333
 41
0.00208333
  0
VERTEX
  8
0
 10
2.63917
 20
9.38542
 30
0.0
 40
0.00208333
 41
0.00208333
  0
VERTEX
  8
0
 10
6.24636
 20
9.38542
 30
0.0
 40
0.00208333
 41
0.00208333
  0
VERTEX
  8
0
 10
6.24636
 20
5.53364
 30
0.0
 40
0.00208333
 41
0.00208333
  0
SEQEND
 8
0
  0
TEXT
  8
0
 62
     0
 10
4.27025
 20
7.78307
 30
0.0
 40
0.34375
  1
MH
 50
0
  0
POLYLINE
  8
0
 62
     7
 66
     1
 10
0
 20
0
 30
0.0
 70
     1
 40
0
 41
0
  0
VERTEX
  8
0
 10
2.63917
 20
6.10303
 30
0.0
 40
0
 41
0
  0
VERTEX
  8
0
 10
4.5275
 20
6.10303
 30
0.0
 40
0
 41
0
  0
VERTEX
  8
0
 10
4.5275
 20
3.06603
 30
0.0
 40
0
 41
0
  0
VERTEX
  8
0
 10
2.63917
 20
3.06603
 30
0.0
 40
0
 41
0
  0
VERTEX
  8
0
 10
2.63917
 20
6.10303
 30
0.0
 40
0
 41
0
  0
SEQEND
 8
0
  0
POLYLINE
  8
0
 62
     7
 66
     1
 10
0
 20
0
 30
0.0
 70
     1
 40
0.15
 41
0.15
  0
VERTEX
  8
0
 10
2.63917
 20
6.10303
 30
0.0
 40
0.00208333
 41
0.00208333
  0
VERTEX
  8
0
 10
4.5275
 20
6.10303
 30
0.0
 40
0.00208333
 41
0.00208333
  0
VERTEX
  8
0
 10
4.5275
 20
3.06603
 30
0.0
 40
0.00208333
 41
0.00208333
  0
VERTEX
  8
0
 10
2.63917
 20
3.06603
 30
0.0
 40
0.00208333
 41
0.00208333
  0
VERTEX
  8
0
 10
2.63917
 20
6.10303
 30
0.0
 40
0.00208333
 41
0.00208333
  0
SEQEND
 8
0
  0
TEXT
  8
0
 62
     0
 10
3.7086
 20
4.58279
 30
0.0
 40
0.34375
  1
PE
 50
0
  0
POLYLINE
  8
0
 62
     7
 66
     1
 10
0
 20
0
 30
0.0
 70
     1
 40
0
 41
0
  0
VERTEX
  8
0
 10
2.67008
 20
2.91103
 30
0.0
 40
0
 41
0
  0
VERTEX
  8
0
 10
4.4451
 20
2.91103
 30
0.0
 40
0
 41
0
  0
VERTEX
  8
0
 10
4.4451
 20
1.54075
 30
0.0
 40
0
 41
0
  0
VERTEX
  8
0
 10
2.67008
 20
1.54075
 30
0.0
 40
0
 41
0
  0
VERTEX
  8
0
 10
2.67008
 20
2.91103
 30
0.0
 40
0
 41
0
  0
SEQEND
 8
0
  0
POLYLINE
  8
0
 62
     7
 66
     1
 10
0
 20
0
 30
0.0
 70
     1
 40
0.15
 41
0.15
  0
VERTEX
  8
0
 10
2.67008
 20
2.91103
 30
0.0
 40
0.00208333
 41
0.00208333
  0
VERTEX
  8
0
 10
4.4451
 20
2.91103
 30
0.0
 40
0.00208333
 41
0.00208333
  0
VERTEX
  8
0
 10
4.4451
 20
1.54075
 30
0.0
 40
0.00208333
 41
0.00208333
  0
VERTEX
  8
0
 10
2.67008
 20
1.54075
 30
0.0
 40
0.00208333
 41
0.00208333
  0
VERTEX
  8
0
 10
2.67008
 20
2.91103
 30
0.0
 40
0.00208333
 41
0.00208333
  0
SEQEND
 8
0
  0
TEXT
  8
0
 62
     0
 10
3.35521
 20
2.22592
 30
0.0
 40
0.34375
  1
UNDEFINED
 50
0
  0
POLYLINE
  8
0
 62
     0
 66
     1
 10
0
 20
0
 30
0.0
 70
     1
 40
0
 41
0
  0
VERTEX
  8
0
 10
10.6903
 20
0.986654
 30
0.0
 40
0
 41
0
  0
VERTEX
  8
0
 10
10.6903
 20
9.88542
 30
0.0
 40
0
 41
0
  0
VERTEX
  8
0
 10
10.4654
 20
9.38542
 30
0.0
 40
0
 41
0
  0
VERTEX
  8
0
 10
10.4654
 20
1.48665
 30
0.0
 40
0
 41
0
  0
VERTEX
  8
0
 10
10.6903
 20
0.986654
 30
0.0
 40
0
 41
0
  0
SEQEND
 8
0
  0
POLYLINE
  8
0
 62
     0
 66
     1
 10
0
 20
0
 30
0.0
 70
     1
 40
0.15
 41
0.15
  0
VERTEX
  8
0
 10
10.6903
 20
0.986654
 30
0.0
 40
0.00208333
 41
0.00208333
  0
VERTEX
  8
0
 10
10.6903
 20
9.88542
 30
0.0
 40
0.00208333
 41
0.00208333
  0
VERTEX
  8
0
 10
10.4654
 20
9.38542
 30
0.0
 40
0.00208333
 41
0.00208333
  0
VERTEX
  8
0
 10
10.4654
 20
1.48665
 30
0.0
 40
0.00208333
 41
0.00208333
  0
VERTEX
  8
0
 10
10.6903
 20
0.986654
 30
0.0
 40
0.00208333
 41
0.00208333
  0
SEQEND
 8
0
  0
POLYLINE
  8
0
 62
     0
 66
     1
 10
0
 20
0
 30
0.0
 70
     1
 40
0
 41
0
  0
VERTEX
  8
0
 10
10.6903
 20
9.88542
 30
0.0
 40
0
 41
0
  0
VERTEX
  8
0
 10
2.22385
 20
9.88542
 30
0.0
 40
0
 41
0
  0
VERTEX
  8
0
 10
2.63917
 20
9.38542
 30
0.0
 40
0
 41
0
  0
VERTEX
  8
0
 10
10.4654
 20
9.38542
 30
0.0
 40
0
 41
0
  0
VERTEX
  8
0
 10
10.6903
 20
9.88542
 30
0.0
 40
0
 41
0
  0
SEQEND
 8
0
  0
POLYLINE
  8
0
 62
     0
 66
     1
 10
0
 20
0
 30
0.0
 70
     1
 40
0.15
 41
0.15
  0
VERTEX
  8
0
 10
10.6903
 20
9.88542
 30
0.0
 40
0.00208333
 41
0.00208333
  0
VERTEX
  8
0
 10
2.22385
 20
9.88542
 30
0.0
 40
0.00208333
 41
0.00208333
  0
VERTEX
  8
0
 10
2.63917
 20
9.38542
 30
0.0
 40
0.00208333
 41
0.00208333
  0
VERTEX
  8
0
 10
10.4654
 20
9.38542
 30
0.0
 40
0.00208333
 41
0.00208333
  0
VERTEX
  8
0
 10
10.6903
 20
9.88542
 30
0.0
 40
0.00208333
 41
0.00208333
  0
SEQEND
 8
0
  0
POLYLINE
  8
0
 62
     7
 66
     1
 10
0
 20
0
 30
0.0
 70
     1
 40
0
 41
0
  0
VERTEX
  8
0
 10
3.84831
 20
9.88542
 30
0.0
 40
0
 41
0
  0
VERTEX
  8
0
 10
5.4145
 20
9.88542
 30
0.0
 40
0
 41
0
  0
VERTEX
  8
0
 10
5.4145
 20
9.38542
 30
0.0
 40
0
 41
0
  0
VERTEX
  8
0
 10
3.84831
 20
9.38542
 30
0.0
 40
0
 41
0
  0
VERTEX
  8
0
 10
3.84831
 20
9.88542
 30
0.0
 40
0
 41
0
  0
SEQEND
 8
0
  0
POLYLINE
  8
0
 62
     0
 66
     1
 10
0
 20
0
 30
0.0
 70
     1
 40
0.75
 41
0.75
  0
VERTEX
  8
0
 10
3.84831
 20
9.88542
 30
0.0
 40
0.0104167
 41
0.0104167
  0
VERTEX
  8
0
 10
5.4145
 20
9.88542
 30
0.0
 40
0.0104167
 41
0.0104167
  0
VERTEX
  8
0
 10
5.4145
 20
9.38542
 30
0.0
 40
0.0104167
 41
0.0104167
  0
VERTEX
  8
0
 10
3.84831
 20
9.38542
 30
0.0
 40
0.0104167
 41
0.0104167
  0
VERTEX
  8
0
 10
3.84831
 20
9.88542
 30
0.0
 40
0.0104167
 41
0.0104167
  0
SEQEND
 8
0
  0
POLYLINE
  8
0
 62
     7
 66
     1
 10
0
 20
0
 30
0.0
 70
     1
 40
0
 41
0
  0
VERTEX
  8
0
 10
3.84831
 20
9.88542
 30
0.0
 40
0
 41
0
  0
VERTEX
  8
0
 10
5.4145
 20
9.88542
 30
0.0
 40
0
 41
0
  0
VERTEX
  8
0
 10
5.4145
 20
9.38542
 30
0.0
 40
0
 41
0
  0
VERTEX
  8
0
 10
3.84831
 20
9.38542
 30
0.0
 40
0
 41
0
  0
VERTEX
  8
0
 10
3.84831
 20
9.88542
 30
0.0
 40
0
 41
0
  0
SEQEND
 8
0
  0
POLYLINE
  8
0
 62
     0
 66
     1
 10
0
 20
0
 30
0.0
 70
     1
 40
0.75
 41
0.75
  0
VERTEX
  8
0
 10
3.84831
 20
9.88542
 30
0.0
 40
0.0104167
 41
0.0104167
  0
VERTEX
  8
0
 10
5.4145
 20
9.88542
 30
0.0
 40
0.0104167
 41
0.0104167
  0
VERTEX
  8
0
 10
5.4145
 20
9.38542
 30
0.0
 40
0.0104167
 41
0.0104167
  0
VERTEX
  8
0
 10
3.84831
 20
9.38542
 30
0.0
 40
0.0104167
 41
0.0104167
  0
VERTEX
  8
0
 10
3.84831
 20
9.88542
 30
0.0
 40
0.0104167
 41
0.0104167
  0
SEQEND
 8
0
  0
POLYLINE
  8
0
 62
     0
 66
     1
 10
0
 20
0
 30
0.0
 40
0.75
 41
0.75
  0
VERTEX
  8
0
 10
5.33632
 20
9.63542
 30
0.0
 40
0.0104167
 41
0.0104167
  0
VERTEX
  8
0
 10
3.92649
 20
9.63542
 30
0.0
 40
0.0104167
 41
0.0104167
  0
SEQEND
 8
0
  0
POLYLINE
  8
0
 62
     0
 66
     1
 10
0
 20
0
 30
0.0
 40
0.75
 41
0.75
  0
VERTEX
  8
0
 10
5.33632
 20
9.88542
 30
0.0
 40
0.0104167
 41
0.0104167
  0
VERTEX
  8
0
 10
5.33632
 20
9.38542
 30
0.0
 40
0.0104167
 41
0.0104167
  0
SEQEND
 8
0
  0
POLYLINE
  8
0
 62
     0
 66
     1
 10
0
 20
0
 30
0.0
 40
0.75
 41
0.75
  0
VERTEX
  8
0
 10
3.92649
 20
9.88542
 30
0.0
 40
0.0104167
 41
0.0104167
  0
VERTEX
  8
0
 10
3.92649
 20
9.38542
 30
0.0
 40
0.0104167
 41
0.0104167
  0
SEQEND
 8
0
  0
POLYLINE
  8
0
 62
     7
 66
     1
 10
0
 20
0
 30
0.0
 70
     1
 40
0
 41
0
  0
VERTEX
  8
0
 10
6.87815
 20
9.88542
 30
0.0
 40
0
 41
0
  0
VERTEX
  8
0
 10
7.73801
 20
9.88542
 30
0.0
 40
0
 41
0
  0
VERTEX
  8
0
 10
7.73801
 20
9.38542
 30
0.0
 40
0
 41
0
  0
VERTEX
  8
0
 10
6.87815
 20
9.38542
 30
0.0
 40
0
 41
0
  0
VERTEX
  8
0
 10
6.87815
 20
9.88542
 30
0.0
 40
0
 41
0
  0
SEQEND
 8
0
  0
POLYLINE
  8
0
 62
     0
 66
     1
 10
0
 20
0
 30
0.0
 70
     1
 40
0.75
 41
0.75
  0
VERTEX
  8
0
 10
6.87815
 20
9.88542
 30
0.0
 40
0.0104167
 41
0.0104167
  0
VERTEX
  8
0
 10
7.73801
 20
9.88542
 30
0.0
 40
0.0104167
 41
0.0104167
  0
VERTEX
  8
0
 10
7.73801
 20
9.38542
 30
0.0
 40
0.0104167
 41
0.0104167
  0
VERTEX
  8
0
 10
6.87815
 20
9.38542
 30
0.0
 40
0.0104167
 41
0.0104167
  0
VERTEX
  8
0
 10
6.87815
 20
9.88542
 30
0.0
 40
0.0104167
 41
0.0104167
  0
SEQEND
 8
0
  0
POLYLINE
  8
0
 62
     7
 66
     1
 10
0
 20
0
 30
0.0
 70
     1
 40
0
 41
0
  0
VERTEX
  8
0
 10
6.87815
 20
9.88542
 30
0.0
 40
0
 41
0
  0
VERTEX
  8
0
 10
7.73801
 20
9.88542
 30
0.0
 40
0
 41
0
  0
VERTEX
  8
0
 10
7.73801
 20
9.38542
 30
0.0
 40
0
 41
0
  0
VERTEX
  8
0
 10
6.87815
 20
9.38542
 30
0.0
 40
0
 41
0
  0
VERTEX
  8
0
 10
6.87815
 20
9.88542
 30
0.0
 40
0
 41
0
  0
SEQEND
 8
0
  0
POLYLINE
  8
0
 62
     0
 66
     1
 10
0
 20
0
 30
0.0
 70
     1
 40
0.75
 41
0.75
  0
VERTEX
  8
0
 10
6.87815
 20
9.88542
 30
0.0
 40
0.0104167
 41
0.0104167
  0
VERTEX
  8
0
 10
7.73801
 20
9.88542
 30
0.0
 40
0.0104167
 41
0.0104167
  0
VERTEX
  8
0
 10
7.73801
 20
9.38542
 30
0.0
 40
0.0104167
 41
0.0104167
  0
VERTEX
  8
0
 10
6.87815
 20
9.38542
 30
0.0
 40
0.0104167
 41
0.0104167
  0
VERTEX
  8
0
 10
6.87815
 20
9.88542
 30
0.0
 40
0.0104167
 41
0.0104167
  0
SEQEND
 8
0
  0
POLYLINE
  8
0
 62
     0
 66
     1
 10
0
 20
0
 30
0.0
 70
     1
 40
0.75
 41
0.75
  0
VERTEX
  8
0
 10
6.87815
 20
9.88542
 30
0.0
 40
0.0104167
 41
0.0104167
  0
VERTEX
  8
0
 10
6.87815
 20
9.93582
 30
0.0
 40
0.0104167
 41
0.0104167
  0
VERTEX
  8
0
 10
6.89154
 20
10.087
 30
0.0
 40
0.0104167
 41
0.0104167
  0
VERTEX
  8
0
 10
6.93186
 20
10.2616
 30
0.0
 40
0.0104167
 41
0.0104167
  0
VERTEX
  8
0
 10
6.99903
 20
10.4094
 30
0.0
 40
0.0104167
 41
0.0104167
  0
VERTEX
  8
0
 10
7.09304
 20
10.5303
 30
0.0
 40
0.0104167
 41
0.0104167
  0
VERTEX
  8
0
 10
7.21397
 20
10.6243
 30
0.0
 40
0.0104167
 41
0.0104167
  0
VERTEX
  8
0
 10
7.36171
 20
10.6915
 30
0.0
 40
0.0104167
 41
0.0104167
  0
VERTEX
  8
0
 10
7.53635
 20
10.7318
 30
0.0
 40
0.0104167
 41
0.0104167
  0
VERTEX
  8
0
 10
7.6875
 20
10.7452
 30
0.0
 40
0.0104167
 41
0.0104167
  0
VERTEX
  8
0
 10
7.7379
 20
10.7452
 30
0.0
 40
0.0104167
 41
0.0104167
  0
VERTEX
  8
0
 10
7.7379
 20
9.88542
 30
0.0
 40
0.0104167
 41
0.0104167
  0
VERTEX
  8
0
 10
6.87815
 20
9.88542
 30
0.0
 40
0.0104167
 41
0.0104167
  0
SEQEND
 8
0
  0
POLYLINE
  8
0
 62
     7
 66
     1
 10
0
 20
0
 30
0.0
 70
     1
 40
0
 41
0
  0
VERTEX
  8
0
 10
8.07915
 20
9.88542
 30
0.0
 40
0
 41
0
  0
VERTEX
  8
0
 10
10.1809
 20
9.88542
 30
0.0
 40
0
 41
0
  0
VERTEX
  8
0
 10
10.1809
 20
9.38542
 30
0.0
 40
0
 41
0
  0
VERTEX
  8
0
 10
8.07915
 20
9.38542
 30
0.0
 40
0
 41
0
  0
VERTEX
  8
0
 10
8.07915
 20
9.88542
 30
0.0
 40
0
 41
0
  0
SEQEND
 8
0
  0
POLYLINE
  8
0
 62
     0
 66
     1
 10
0
 20
0
 30
0.0
 70
     1
 40
0.75
 41
0.75
  0
VERTEX
  8
0
 10
8.07915
 20
9.88542
 30
0.0
 40
0.0104167
 41
0.0104167
  0
VERTEX
  8
0
 10
10.1809
 20
9.88542
 30
0.0
 40
0.0104167
 41
0.0104167
  0
VERTEX
  8
0
 10
10.1809
 20
9.38542
 30
0.0
 40
0.0104167
 41
0.0104167
  0
VERTEX
  8
0
 10
8.07915
 20
9.38542
 30
0.0
 40
0.0104167
 41
0.0104167
  0
VERTEX
  8
0
 10
8.07915
 20
9.88542
 30
0.0
 40
0.0104167
 41
0.0104167
  0
SEQEND
 8
0
  0
POLYLINE
  8
0
 62
     7
 66
     1
 10
0
 20
0
 30
0.0
 70
     1
 40
0
 41
0
  0
VERTEX
  8
0
 10
8.07915
 20
9.88542
 30
0.0
 40
0
 41
0
  0
VERTEX
  8
0
 10
10.1809
 20
9.88542
 30
0.0
 40
0
 41
0
  0
VERTEX
  8
0
 10
10.1809
 20
9.38542
 30
0.0
 40
0
 41
0
  0
VERTEX
  8
0
 10
8.07915
 20
9.38542
 30
0.0
 40
0
 41
0
  0
VERTEX
  8
0
 10
8.07915
 20
9.88542
 30
0.0
 40
0
 41
0
  0
SEQEND
 8
0
  0
POLYLINE
  8
0
 62
     0
 66
     1
 10
0
 20
0
 30
0.0
 70
     1
 40
0.75
 41
0.75
  0
VERTEX
  8
0
 10
8.07915
 20
9.88542
 30
0.0
 40
0.0104167
 41
0.0104167
  0
VERTEX
  8
0
 10
10.1809
 20
9.88542
 30
0.0
 40
0.0104167
 41
0.0104167
  0
VERTEX
  8
0
 10
10.1809
 20
9.38542
 30
0.0
 40
0.0104167
 41
0.0104167
  0
VERTEX
  8
0
 10
8.07915
 20
9.38542
 30
0.0
 40
0.0104167
 41
0.0104167
  0
VERTEX
  8
0
 10
8.07915
 20
9.88542
 30
0.0
 40
0.0104167
 41
0.0104167
  0
SEQEND
 8
0
  0
POLYLINE
  8
0
 62
     0
 66
     1
 10
0
 20
0
 30
0.0
 40
0.75
 41
0.75
  0
VERTEX
  8
0
 10
10.1028
 20
9.63542
 30
0.0
 40
0.0104167
 41
0.0104167
  0
VERTEX
  8
0
 10
8.15728
 20
9.63542
 30
0.0
 40
0.0104167
 41
0.0104167
  0
SEQEND
 8
0
  0
POLYLINE
  8
0
 62
     0
 66
     1
 10
0
 20
0
 30
0.0
 40
0.75
 41
0.75
  0
VERTEX
  8
0
 10
10.1028
 20
9.88542
 30
0.0
 40
0.0104167
 41
0.0104167
  0
VERTEX
  8
0
 10
10.1028
 20
9.38542
 30
0.0
 40
0.0104167
 41
0.0104167
  0
SEQEND
 8
0
  0
POLYLINE
  8
0
 62
     0
 66
     1
 10
0
 20
0
 30
0.0
 40
0.75
 41
0.75
  0
VERTEX
  8
0
 10
8.15728
 20
9.88542
 30
0.0
 40
0.0104167
 41
0.0104167
  0
VERTEX
  8
0
 10
8.15728
 20
9.38542
 30
0.0
 40
0.0104167
 41
0.0104167
  0
SEQEND
 8
0
  0
POLYLINE
  8
0
 62
     7
 66
     1
 10
0
 20
0
 30
0.0
 70
     1
 40
0
 41
0
  0
VERTEX
  8
0
 10
3.68614
 20
9.88542
 30
0.0
 40
0
 41
0
  0
VERTEX
  8
0
 10
3.68614
 20
12.6328
 30
0.0
 40
0
 41
0
  0
VERTEX
  8
0
 10
3.59239
 20
12.7266
 30
0.0
 40
0
 41
0
  0
VERTEX
  8
0
 10
3.59239
 20
9.88542
 30
0.0
 40
0
 41
0
  0
VERTEX
  8
0
 10
3.68614
 20
9.88542
 30
0.0
 40
0
 41
0
  0
SEQEND
 8
0
  0
POLYLINE
  8
0
 62
     0
 66
     1
 10
0
 20
0
 30
0.0
 70
     1
 40
0.15
 41
0.15
  0
VERTEX
  8
0
 10
3.68614
 20
9.88542
 30
0.0
 40
0.00208333
 41
0.00208333
  0
VERTEX
  8
0
 10
3.68614
 20
12.6328
 30
0.0
 40
0.00208333
 41
0.00208333
  0
VERTEX
  8
0
 10
3.59239
 20
12.7266
 30
0.0
 40
0.00208333
 41
0.00208333
  0
VERTEX
  8
0
 10
3.59239
 20
9.88542
 30
0.0
 40
0.00208333
 41
0.00208333
  0
VERTEX
  8
0
 10
3.68614
 20
9.88542
 30
0.0
 40
0.00208333
 41
0.00208333
  0
SEQEND
 8
0
  0
POLYLINE
  8
0
 62
     7
 66
     1
 10
0
 20
0
 30
0.0
 70
     1
 40
0
 41
0
  0
VERTEX
  8
0
 10
3.68614
 20
12.6328
 30
0.0
 40
0
 41
0
  0
VERTEX
  8
0
 10
7.87104
 20
12.6328
 30
0.0
 40
0
 41
0
  0
VERTEX
  8
0
 10
7.96479
 20
12.7266
 30
0.0
 40
0
 41
0
  0
VERTEX
  8
0
 10
3.59239
 20
12.7266
 30
0.0
 40
0
 41
0
  0
VERTEX
  8
0
 10
3.68614
 20
12.6328
 30
0.0
 40
0
 41
0
  0
SEQEND
 8
0
  0
POLYLINE
  8
0
 62
     0
 66
     1
 10
0
 20
0
 30
0.0
 70
     1
 40
0.15
 41
0.15
  0
VERTEX
  8
0
 10
3.68614
 20
12.6328
 30
0.0
 40
0.00208333
 41
0.00208333
  0
VERTEX
  8
0
 10
7.87104
 20
12.6328
 30
0.0
 40
0.00208333
 41
0.00208333
  0
VERTEX
  8
0
 10
7.96479
 20
12.7266
 30
0.0
 40
0.00208333
 41
0.00208333
  0
VERTEX
  8
0
 10
3.59239
 20
12.7266
 30
0.0
 40
0.00208333
 41
0.00208333
  0
VERTEX
  8
0
 10
3.68614
 20
12.6328
 30
0.0
 40
0.00208333
 41
0.00208333
  0
SEQEND
 8
0
  0
POLYLINE
  8
0
 62
     7
 66
     1
 10
0
 20
0
 30
0.0
 70
     1
 40
0
 41
0
  0
VERTEX
  8
0
 10
7.87104
 20
12.6328
 30
0.0
 40
0
 41
0
  0
VERTEX
  8
0
 10
7.87104
 20
9.88542
 30
0.0
 40
0
 41
0
  0
VERTEX
  8
0
 10
7.96479
 20
9.88542
 30
0.0
 40
0
 41
0
  0
VERTEX
  8
0
 10
7.96479
 20
12.7266
 30
0.0
 40
0
 41
0
  0
VERTEX
  8
0
 10
7.87104
 20
12.6328
 30
0.0
 40
0
 41
0
  0
SEQEND
 8
0
  0
POLYLINE
  8
0
 62
     0
 66
     1
 10
0
 20
0
 30
0.0
 70
     1
 40
0.15
 41
0.15
  0
VERTEX
  8
0
 10
7.87104
 20
12.6328
 30
0.0
 40
0.00208333
 41
0.00208333
  0
VERTEX
  8
0
 10
7.87104
 20
9.88542
 30
0.0
 40
0.00208333
 41
0.00208333
  0
VERTEX
  8
0
 10
7.96479
 20
9.88542
 30
0.0
 40
0.00208333
 41
0.00208333
  0
VERTEX
  8
0
 10
7.96479
 20
12.7266
 30
0.0
 40
0.00208333
 41
0.00208333
  0
VERTEX
  8
0
 10
7.87104
 20
12.6328
 30
0.0
 40
0.00208333
 41
0.00208333
  0
SEQEND
 8
0
  0
POLYLINE
  8
0
 62
     0
 66
     1
 10
0
 20
0
 30
0.0
 70
     1
 40
0
 41
0
  0
VERTEX
  8
0
 10
2.22385
 20
6.10303
 30
0.0
 40
0
 41
0
  0
VERTEX
  8
0
 10
4.5275
 20
6.10303
 30
0.0
 40
0
 41
0
  0
VERTEX
  8
0
 10
4.66292
 20
6.23844
 30
0.0
 40
0
 41
0
  0
VERTEX
  8
0
 10
2.22385
 20
6.23844
 30
0.0
 40
0
 41
0
  0
VERTEX
  8
0
 10
2.22385
 20
6.10303
 30
0.0
 40
0
 41
0
  0
SEQEND
 8
0
  0
POLYLINE
  8
0
 62
     0
 66
     1
 10
0
 20
0
 30
0.0
 70
     1
 40
0.15
 41
0.15
  0
VERTEX
  8
0
 10
2.22385
 20
6.10303
 30
0.0
 40
0.00208333
 41
0.00208333
  0
VERTEX
  8
0
 10
4.5275
 20
6.10303
 30
0.0
 40
0.00208333
 41
0.00208333
  0
VERTEX
  8
0
 10
4.66292
 20
6.23844
 30
0.0
 40
0.00208333
 41
0.00208333
  0
VERTEX
  8
0
 10
2.22385
 20
6.23844
 30
0.0
 40
0.00208333
 41
0.00208333
  0
VERTEX
  8
0
 10
2.22385
 20
6.10303
 30
0.0
 40
0.00208333
 41
0.00208333
  0
SEQEND
 8
0
  0
POLYLINE
  8
0
 62
     0
 66
     1
 10
0
 20
0
 30
0.0
 70
     1
 40
0
 41
0
  0
VERTEX
  8
0
 10
4.5275
 20
6.10303
 30
0.0
 40
0
 41
0
  0
VERTEX
  8
0
 10
4.5275
 20
3.06603
 30
0.0
 40
0
 41
0
  0
VERTEX
  8
0
 10
4.66292
 20
2.91103
 30
0.0
 40
0
 41
0
  0
VERTEX
  8
0
 10
4.66292
 20
6.23844
 30
0.0
 40
0
 41
0
  0
VERTEX
  8
0
 10
4.5275
 20
6.10303
 30
0.0
 40
0
 41
0
  0
SEQEND
 8
0
  0
POLYLINE
  8
0
 62
     0
 66
     1
 10
0
 20
0
 30
0.0
 70
     1
 40
0.15
 41
0.15
  0
VERTEX
  8
0
 10
4.5275
 20
6.10303
 30
0.0
 40
0.00208333
 41
0.00208333
  0
VERTEX
  8
0
 10
4.5275
 20
3.06603
 30
0.0
 40
0.00208333
 41
0.00208333
  0
VERTEX
  8
0
 10
4.66292
 20
2.91103
 30
0.0
 40
0.00208333
 41
0.00208333
  0
VERTEX
  8
0
 10
4.66292
 20
6.23844
 30
0.0
 40
0.00208333
 41
0.00208333
  0
VERTEX
  8
0
 10
4.5275
 20
6.10303
 30
0.0
 40
0.00208333
 41
0.00208333
  0
SEQEND
 8
0
  0
POLYLINE
  8
0
 62
     7
 66
     1
 10
0
 20
0
 30
0.0
 70
     1
 40
0
 41
0
  0
VERTEX
  8
0
 10
4.5275
 20
5.32856
 30
0.0
 40
0
 41
0
  0
VERTEX
  8
0
 10
4.66292
 20
5.32856
 30
0.0
 40
0
 41
0
  0
VERTEX
  8
0
 10
4.66292
 20
4.47635
 30
0.0
 40
0
 41
0
  0
VERTEX
  8
0
 10
4.5275
 20
4.47635
 30
0.0
 40
0
 41
0
  0
VERTEX
  8
0
 10
4.5275
 20
5.32856
 30
0.0
 40
0
 41
0
  0
SEQEND
 8
0
  0
POLYLINE
  8
0
 62
     0
 66
     1
 10
0
 20
0
 30
0.0
 70
     1
 40
0.75
 41
0.75
  0
VERTEX
  8
0
 10
4.5275
 20
5.32856
 30
0.0
 40
0.0104167
 41
0.0104167
  0
VERTEX
  8
0
 10
4.66292
 20
5.32856
 30
0.0
 40
0.0104167
 41
0.0104167
  0
VERTEX
  8
0
 10
4.66292
 20
4.47635
 30
0.0
 40
0.0104167
 41
0.0104167
  0
VERTEX
  8
0
 10
4.5275
 20
4.47635
 30
0.0
 40
0.0104167
 41
0.0104167
  0
VERTEX
  8
0
 10
4.5275
 20
5.32856
 30
0.0
 40
0.0104167
 41
0.0104167
  0
SEQEND
 8
0
  0
POLYLINE
  8
0
 62
     7
 66
     1
 10
0
 20
0
 30
0.0
 70
     1
 40
0
 41
0
  0
VERTEX
  8
0
 10
4.5275
 20
5.32856
 30
0.0
 40
0
 41
0
  0
VERTEX
  8
0
 10
4.66292
 20
5.32856
 30
0.0
 40
0
 41
0
  0
VERTEX
  8
0
 10
4.66292
 20
4.47635
 30
0.0
 40
0
 41
0
  0
VERTEX
  8
0
 10
4.5275
 20
4.47635
 30
0.0
 40
0
 41
0
  0
VERTEX
  8
0
 10
4.5275
 20
5.32856
 30
0.0
 40
0
 41
0
  0
SEQEND
 8
0
  0
POLYLINE
  8
0
 62
     0
 66
     1
 10
0
 20
0
 30
0.0
 70
     1
 40
0.75
 41
0.75
  0
VERTEX
  8
0
 10
4.5275
 20
5.32856
 30
0.0
 40
0.0104167
 41
0.0104167
  0
VERTEX
  8
0
 10
4.66292
 20
5.32856
 30
0.0
 40
0.0104167
 41
0.0104167
  0
VERTEX
  8
0
 10
4.66292
 20
4.47635
 30
0.0
 40
0.0104167
 41
0.0104167
  0
VERTEX
  8
0
 10
4.5275
 20
4.47635
 30
0.0
 40
0.0104167
 41
0.0104167
  0
VERTEX
  8
0
 10
4.5275
 20
5.32856
 30
0.0
 40
0.0104167
 41
0.0104167
  0
SEQEND
 8
0
  0
POLYLINE
  8
0
 62
     0
 66
     1
 10
0
 20
0
 30
0.0
 70
     1
 40
0.75
 41
0.75
  0
VERTEX
  8
0
 10
4.66292
 20
4.47635
 30
0.0
 40
0.0104167
 41
0.0104167
  0
VERTEX
  8
0
 10
4.71283
 20
4.47635
 30
0.0
 40
0.0104167
 41
0.0104167
  0
VERTEX
  8
0
 10
4.86263
 20
4.48969
 30
0.0
 40
0.0104167
 41
0.0104167
  0
VERTEX
  8
0
 10
5.03575
 20
4.52962
 30
0.0
 40
0.0104167
 41
0.0104167
  0
VERTEX
  8
0
 10
5.18218
 20
4.59619
 30
0.0
 40
0.0104167
 41
0.0104167
  0
VERTEX
  8
0
 10
5.30203
 20
4.6894
 30
0.0
 40
0.0104167
 41
0.0104167
  0
VERTEX
  8
0
 10
5.39524
 20
4.80925
 30
0.0
 40
0.0104167
 41
0.0104167
  0
VERTEX
  8
0
 10
5.46181
 20
4.95574
 30
0.0
 40
0.0104167
 41
0.0104167
  0
VERTEX
  8
0
 10
5.50174
 20
5.12885
 30
0.0
 40
0.0104167
 41
0.0104167
  0
VERTEX
  8
0
 10
5.51508
 20
5.27865
 30
0.0
 40
0.0104167
 41
0.0104167
  0
VERTEX
  8
0
 10
5.51508
 20
5.32856
 30
0.0
 40
0.0104167
 41
0.0104167
  0
VERTEX
  8
0
 10
4.66292
 20
5.32856
 30
0.0
 40
0.0104167
 41
0.0104167
  0
VERTEX
  8
0
 10
4.66292
 20
4.47635
 30
0.0
 40
0.0104167
 41
0.0104167
  0
SEQEND
 8
0
  0
POLYLINE
  8
0
 62
     0
 66
     1
 10
0
 20
0
 30
0.0
 70
     1
 40
0
 41
0
  0
VERTEX
  8
0
 10
4.66292
 20
3.06603
 30
0.0
 40
0
 41
0
  0
VERTEX
  8
0
 10
2.63917
 20
3.06603
 30
0.0
 40
0
 41
0
  0
VERTEX
  8
0
 10
2.63917
 20
2.91103
 30
0.0
 40
0
 41
0
  0
VERTEX
  8
0
 10
4.4451
 20
2.91103
 30
0.0
 40
0
 41
0
  0
VERTEX
  8
0
 10
4.66292
 20
3.06603
 30
0.0
 40
0
 41
0
  0
SEQEND
 8
0
  0
POLYLINE
  8
0
 62
     0
 66
     1
 10
0
 20
0
 30
0.0
 70
     1
 40
0.15
 41
0.15
  0
VERTEX
  8
0
 10
4.66292
 20
3.06603
 30
0.0
 40
0.00208333
 41
0.00208333
  0
VERTEX
  8
0
 10
2.63917
 20
3.06603
 30
0.0
 40
0.00208333
 41
0.00208333
  0
VERTEX
  8
0
 10
2.63917
 20
2.91103
 30
0.0
 40
0.00208333
 41
0.00208333
  0
VERTEX
  8
0
 10
4.4451
 20
2.91103
 30
0.0
 40
0.00208333
 41
0.00208333
  0
VERTEX
  8
0
 10
4.66292
 20
3.06603
 30
0.0
 40
0.00208333
 41
0.00208333
  0
SEQEND
 8
0
  0
POLYLINE
  8
0
 62
     7
 66
     1
 10
0
 20
0
 30
0.0
 70
     1
 40
0
 41
0
  0
VERTEX
  8
0
 10
3.597
 20
3.06603
 30
0.0
 40
0
 41
0
  0
VERTEX
  8
0
 10
4.43479
 20
3.06603
 30
0.0
 40
0
 41
0
  0
VERTEX
  8
0
 10
4.43479
 20
2.91103
 30
0.0
 40
0
 41
0
  0
VERTEX
  8
0
 10
3.597
 20
2.91103
 30
0.0
 40
0
 41
0
  0
VERTEX
  8
0
 10
3.597
 20
3.06603
 30
0.0
 40
0
 41
0
  0
SEQEND
 8
0
  0
POLYLINE
  8
0
 62
     0
 66
     1
 10
0
 20
0
 30
0.0
 70
     1
 40
0.75
 41
0.75
  0
VERTEX
  8
0
 10
3.597
 20
3.06603
 30
0.0
 40
0.0104167
 41
0.0104167
  0
VERTEX
  8
0
 10
4.43479
 20
3.06603
 30
0.0
 40
0.0104167
 41
0.0104167
  0
VERTEX
  8
0
 10
4.43479
 20
2.91103
 30
0.0
 40
0.0104167
 41
0.0104167
  0
VERTEX
  8
0
 10
3.597
 20
2.91103
 30
0.0
 40
0.0104167
 41
0.0104167
  0
VERTEX
  8
0
 10
3.597
 20
3.06603
 30
0.0
 40
0.0104167
 41
0.0104167
  0
SEQEND
 8
0
  0
POLYLINE
  8
0
 62
     7
 66
     1
 10
0
 20
0
 30
0.0
 70
     1
 40
0
 41
0
  0
VERTEX
  8
0
 10
3.597
 20
3.06603
 30
0.0
 40
0
 41
0
  0
VERTEX
  8
0
 10
4.43479
 20
3.06603
 30
0.0
 40
0
 41
0
  0
VERTEX
  8
0
 10
4.43479
 20
2.91103
 30
0.0
 40
0
 41
0
  0
VERTEX
  8
0
 10
3.597
 20
2.91103
 30
0.0
 40
0
 41
0
  0
VERTEX
  8
0
 10
3.597
 20
3.06603
 30
0.0
 40
0
 41
0
  0
SEQEND
 8
0
  0
POLYLINE
  8
0
 62
     0
 66
     1
 10
0
 20
0
 30
0.0
 70
     1
 40
0.75
 41
0.75
  0
VERTEX
  8
0
 10
3.597
 20
3.06603
 30
0.0
 40
0.0104167
 41
0.0104167
  0
VERTEX
  8
0
 10
4.43479
 20
3.06603
 30
0.0
 40
0.0104167
 41
0.0104167
  0
VERTEX
  8
0
 10
4.43479
 20
2.91103
 30
0.0
 40
0.0104167
 41
0.0104167
  0
VERTEX
  8
0
 10
3.597
 20
2.91103
 30
0.0
 40
0.0104167
 41
0.0104167
  0
VERTEX
  8
0
 10
3.597
 20
3.06603
 30
0.0
 40
0.0104167
 41
0.0104167
  0
SEQEND
 8
0
  0
POLYLINE
  8
0
 62
     0
 66
     1
 10
0
 20
0
 30
0.0
 70
     1
 40
0.75
 41
0.75
  0
VERTEX
  8
0
 10
3.597
 20
3.06603
 30
0.0
 40
0.0104167
 41
0.0104167
  0
VERTEX
  8
0
 10
3.597
 20
3.11513
 30
0.0
 40
0.0104167
 41
0.0104167
  0
VERTEX
  8
0
 10
3.61008
 20
3.26243
 30
0.0
 40
0.0104167
 41
0.0104167
  0
VERTEX
  8
0
 10
3.64936
 20
3.43261
 30
0.0
 40
0.0104167
 41
0.0104167
  0
VERTEX
  8
0
 10
3.71479
 20
3.57661
 30
0.0
 40
0.0104167
 41
0.0104167
  0
VERTEX
  8
0
 10
3.80643
 20
3.69444
 30
0.0
 40
0.0104167
 41
0.0104167
  0
VERTEX
  8
0
 10
3.92421
 20
3.78608
 30
0.0
 40
0.0104167
 41
0.0104167
  0
VERTEX
  8
0
 10
4.06819
 20
3.85151
 30
0.0
 40
0.0104167
 41
0.0104167
  0
VERTEX
  8
0
 10
4.23839
 20
3.89079
 30
0.0
 40
0.0104167
 41
0.0104167
  0
VERTEX
  8
0
 10
4.38569
 20
3.90386
 30
0.0
 40
0.0104167
 41
0.0104167
  0
VERTEX
  8
0
 10
4.43479
 20
3.90386
 30
0.0
 40
0.0104167
 41
0.0104167
  0
VERTEX
  8
0
 10
4.43479
 20
3.06603
 30
0.0
 40
0.0104167
 41
0.0104167
  0
VERTEX
  8
0
 10
3.597
 20
3.06603
 30
0.0
 40
0.0104167
 41
0.0104167
  0
SEQEND
 8
0
  0
POLYLINE
  8
0
 62
     0
 66
     1
 10
0
 20
0
 30
0.0
 70
     1
 40
0
 41
0
  0
VERTEX
  8
0
 10
4.66292
 20
3.06603
 30
0.0
 40
0
 41
0
  0
VERTEX
  8
0
 10
4.66292
 20
0.986654
 30
0.0
 40
0
 41
0
  0
VERTEX
  8
0
 10
4.4451
 20
1.48665
 30
0.0
 40
0
 41
0
  0
VERTEX
  8
0
 10
4.4451
 20
2.91103
 30
0.0
 40
0
 41
0
  0
VERTEX
  8
0
 10
4.66292
 20
3.06603
 30
0.0
 40
0
 41
0
  0
SEQEND
 8
0
  0
POLYLINE
  8
0
 62
     0
 66
     1
 10
0
 20
0
 30
0.0
 70
     1
 40
0.15
 41
0.15
  0
VERTEX
  8
0
 10
4.66292
 20
3.06603
 30
0.0
 40
0.00208333
 41
0.00208333
  0
VERTEX
  8
0
 10
4.66292
 20
0.986654
 30
0.0
 40
0.00208333
 41
0.00208333
  0
VERTEX
  8
0
 10
4.4451
 20
1.48665
 30
0.0
 40
0.00208333
 41
0.00208333
  0
VERTEX
  8
0
 10
4.4451
 20
2.91103
 30
0.0
 40
0.00208333
 41
0.00208333
  0
VERTEX
  8
0
 10
4.66292
 20
3.06603
 30
0.0
 40
0.00208333
 41
0.00208333
  0
SEQEND
 8
0
  0
POLYLINE
  8
0
 62
     0
 66
     1
 10
0
 20
0
 30
0.0
 70
     1
 40
0
 41
0
  0
VERTEX
  8
0
 10
2.22385
 20
0.986654
 30
0.0
 40
0
 41
0
  0
VERTEX
  8
0
 10
4.66292
 20
0.986654
 30
0.0
 40
0
 41
0
  0
VERTEX
  8
0
 10
4.66292
 20
1.54075
 30
0.0
 40
0
 41
0
  0
VERTEX
  8
0
 10
2.67008
 20
1.54075
 30
0.0
 40
0
 41
0
  0
VERTEX
  8
0
 10
2.22385
 20
0.986654
 30
0.0
 40
0
 41
0
  0
SEQEND
 8
0
  0
POLYLINE
  8
0
 62
     0
 66
     1
 10
0
 20
0
 30
0.0
 70
     1
 40
0.15
 41
0.15
  0
VERTEX
  8
0
 10
2.22385
 20
0.986654
 30
0.0
 40
0.00208333
 41
0.00208333
  0
VERTEX
  8
0
 10
4.66292
 20
0.986654
 30
0.0
 40
0.00208333
 41
0.00208333
  0
VERTEX
  8
0
 10
4.66292
 20
1.54075
 30
0.0
 40
0.00208333
 41
0.00208333
  0
VERTEX
  8
0
 10
2.67008
 20
1.54075
 30
0.0
 40
0.00208333
 41
0.00208333
  0
VERTEX
  8
0
 10
2.22385
 20
0.986654
 30
0.0
 40
0.00208333
 41
0.00208333
  0
SEQEND
 8
0
  0
POLYLINE
  8
0
 62
     0
 66
     1
 10
0
 20
0
 30
0.0
 70
     1
 40
0
 41
0
  0
VERTEX
  8
0
 10
4.66292
 20
0.986654
 30
0.0
 40
0
 41
0
  0
VERTEX
  8
0
 10
10.6903
 20
0.986654
 30
0.0
 40
0
 41
0
  0
VERTEX
  8
0
 10
10.4654
 20
1.48665
 30
0.0
 40
0
 41
0
  0
VERTEX
  8
0
 10
4.66292
 20
1.48665
 30
0.0
 40
0
 41
0
  0
VERTEX
  8
0
 10
4.66292
 20
0.986654
 30
0.0
 40
0
 41
0
  0
SEQEND
 8
0
  0
POLYLINE
  8
0
 62
     0
 66
     1
 10
0
 20
0
 30
0.0
 70
     1
 40
0.15
 41
0.15
  0
VERTEX
  8
0
 10
4.66292
 20
0.986654
 30
0.0
 40
0.00208333
 41
0.00208333
  0
VERTEX
  8
0
 10
10.6903
 20
0.986654
 30
0.0
 40
0.00208333
 41
0.00208333
  0
VERTEX
  8
0
 10
10.4654
 20
1.48665
 30
0.0
 40
0.00208333
 41
0.00208333
  0
VERTEX
  8
0
 10
4.66292
 20
1.48665
 30
0.0
 40
0.00208333
 41
0.00208333
  0
VERTEX
  8
0
 10
4.66292
 20
0.986654
 30
0.0
 40
0.00208333
 41
0.00208333
  0
SEQEND
 8
0
  0
POLYLINE
  8
0
 62
     7
 66
     1
 10
0
 20
0
 30
0.0
 70
     1
 40
0
 41
0
  0
VERTEX
  8
0
 10
4.85883
 20
1.48665
 30
0.0
 40
0
 41
0
  0
VERTEX
  8
0
 10
6.25532
 20
1.48665
 30
0.0
 40
0
 41
0
  0
VERTEX
  8
0
 10
6.25532
 20
0.986654
 30
0.0
 40
0
 41
0
  0
VERTEX
  8
0
 10
4.85883
 20
0.986654
 30
0.0
 40
0
 41
0
  0
VERTEX
  8
0
 10
4.85883
 20
1.48665
 30
0.0
 40
0
 41
0
  0
SEQEND
 8
0
  0
POLYLINE
  8
0
 62
     0
 66
     1
 10
0
 20
0
 30
0.0
 70
     1
 40
0.75
 41
0.75
  0
VERTEX
  8
0
 10
4.85883
 20
1.48665
 30
0.0
 40
0.0104167
 41
0.0104167
  0
VERTEX
  8
0
 10
6.25532
 20
1.48665
 30
0.0
 40
0.0104167
 41
0.0104167
  0
VERTEX
  8
0
 10
6.25532
 20
0.986654
 30
0.0
 40
0.0104167
 41
0.0104167
  0
VERTEX
  8
0
 10
4.85883
 20
0.986654
 30
0.0
 40
0.0104167
 41
0.0104167
  0
VERTEX
  8
0
 10
4.85883
 20
1.48665
 30
0.0
 40
0.0104167
 41
0.0104167
  0
SEQEND
 8
0
  0
POLYLINE
  8
0
 62
     7
 66
     1
 10
0
 20
0
 30
0.0
 70
     1
 40
0
 41
0
  0
VERTEX
  8
0
 10
4.85883
 20
1.48665
 30
0.0
 40
0
 41
0
  0
VERTEX
  8
0
 10
6.25532
 20
1.48665
 30
0.0
 40
0
 41
0
  0
VERTEX
  8
0
 10
6.25532
 20
0.986654
 30
0.0
 40
0
 41
0
  0
VERTEX
  8
0
 10
4.85883
 20
0.986654
 30
0.0
 40
0
 41
0
  0
VERTEX
  8
0
 10
4.85883
 20
1.48665
 30
0.0
 40
0
 41
0
  0
SEQEND
 8
0
  0
POLYLINE
  8
0
 62
     0
 66
     1
 10
0
 20
0
 30
0.0
 70
     1
 40
0.75
 41
0.75
  0
VERTEX
  8
0
 10
4.85883
 20
1.48665
 30
0.0
 40
0.0104167
 41
0.0104167
  0
VERTEX
  8
0
 10
6.25532
 20
1.48665
 30
0.0
 40
0.0104167
 41
0.0104167
  0
VERTEX
  8
0
 10
6.25532
 20
0.986654
 30
0.0
 40
0.0104167
 41
0.0104167
  0
VERTEX
  8
0
 10
4.85883
 20
0.986654
 30
0.0
 40
0.0104167
 41
0.0104167
  0
VERTEX
  8
0
 10
4.85883
 20
1.48665
 30
0.0
 40
0.0104167
 41
0.0104167
  0
SEQEND
 8
0
  0
POLYLINE
  8
0
 62
     0
 66
     1
 10
0
 20
0
 30
0.0
 40
0.75
 41
0.75
  0
VERTEX
  8
0
 10
4.93701
 20
1.23671
 30
0.0
 40
0.0104167
 41
0.0104167
  0
VERTEX
  8
0
 10
6.17714
 20
1.23671
 30
0.0
 40
0.0104167
 41
0.0104167
  0
SEQEND
 8
0
  0
POLYLINE
  8
0
 62
     0
 66
     1
 10
0
 20
0
 30
0.0
 40
0.75
 41
0.75
  0
VERTEX
  8
0
 10
4.93701
 20
0.986708
 30
0.0
 40
0.0104167
 41
0.0104167
  0
VERTEX
  8
0
 10
4.93701
 20
1.48671
 30
0.0
 40
0.0104167
 41
0.0104167
  0
SEQEND
 8
0
  0
POLYLINE
  8
0
 62
     0
 66
     1
 10
0
 20
0
 30
0.0
 40
0.75
 41
0.75
  0
VERTEX
  8
0
 10
6.17714
 20
0.986708
 30
0.0
 40
0.0104167
 41
0.0104167
  0
VERTEX
  8
0
 10
6.17714
 20
1.48671
 30
0.0
 40
0.0104167
 41
0.0104167
  0
SEQEND
 8
0
  0
POLYLINE
  8
0
 62
     7
 66
     1
 10
0
 20
0
 30
0.0
 70
     1
 40
0
 41
0
  0
VERTEX
  8
0
 10
8.70008
 20
1.48665
 30
0.0
 40
0
 41
0
  0
VERTEX
  8
0
 10
9.68083
 20
1.48665
 30
0.0
 40
0
 41
0
  0
VERTEX
  8
0
 10
9.68083
 20
0.986654
 30
0.0
 40
0
 41
0
  0
VERTEX
  8
0
 10
8.70008
 20
0.986654
 30
0.0
 40
0
 41
0
  0
VERTEX
  8
0
 10
8.70008
 20
1.48665
 30
0.0
 40
0
 41
0
  0
SEQEND
 8
0
  0
POLYLINE
  8
0
 62
     0
 66
     1
 10
0
 20
0
 30
0.0
 70
     1
 40
0.75
 41
0.75
  0
VERTEX
  8
0
 10
8.70008
 20
1.48665
 30
0.0
 40
0.0104167
 41
0.0104167
  0
VERTEX
  8
0
 10
9.68083
 20
1.48665
 30
0.0
 40
0.0104167
 41
0.0104167
  0
VERTEX
  8
0
 10
9.68083
 20
0.986654
 30
0.0
 40
0.0104167
 41
0.0104167
  0
VERTEX
  8
0
 10
8.70008
 20
0.986654
 30
0.0
 40
0.0104167
 41
0.0104167
  0
VERTEX
  8
0
 10
8.70008
 20
1.48665
 30
0.0
 40
0.0104167
 41
0.0104167
  0
SEQEND
 8
0
  0
POLYLINE
  8
0
 62
     7
 66
     1
 10
0
 20
0
 30
0.0
 70
     1
 40
0
 41
0
  0
VERTEX
  8
0
 10
8.70008
 20
1.48665
 30
0.0
 40
0
 41
0
  0
VERTEX
  8
0
 10
9.68083
 20
1.48665
 30
0.0
 40
0
 41
0
  0
VERTEX
  8
0
 10
9.68083
 20
0.986654
 30
0.0
 40
0
 41
0
  0
VERTEX
  8
0
 10
8.70008
 20
0.986654
 30
0.0
 40
0
 41
0
  0
VERTEX
  8
0
 10
8.70008
 20
1.48665
 30
0.0
 40
0
 41
0
  0
SEQEND
 8
0
  0
POLYLINE
  8
0
 62
     0
 66
     1
 10
0
 20
0
 30
0.0
 70
     1
 40
0.75
 41
0.75
  0
VERTEX
  8
0
 10
8.70008
 20
1.48665
 30
0.0
 40
0.0104167
 41
0.0104167
  0
VERTEX
  8
0
 10
9.68083
 20
1.48665
 30
0.0
 40
0.0104167
 41
0.0104167
  0
VERTEX
  8
0
 10
9.68083
 20
0.986654
 30
0.0
 40
0.0104167
 41
0.0104167
  0
VERTEX
  8
0
 10
8.70008
 20
0.986654
 30
0.0
 40
0.0104167
 41
0.0104167
  0
VERTEX
  8
0
 10
8.70008
 20
1.48665
 30
0.0
 40
0.0104167
 41
0.0104167
  0
SEQEND
 8
0
  0
POLYLINE
  8
0
 62
     0
 66
     1
 10
0
 20
0
 30
0.0
 70
     1
 40
0.75
 41
0.75
  0
VERTEX
  8
0
 10
9.68083
 20
0.986654
 30
0.0
 40
0.0104167
 41
0.0104167
  0
VERTEX
  8
0
 10
9.68083
 20
0.929199
 30
0.0
 40
0.0104167
 41
0.0104167
  0
VERTEX
  8
0
 10
9.66547
 20
0.756836
 30
0.0
 40
0.0104167
 41
0.0104167
  0
VERTEX
  8
0
 10
9.61951
 20
0.557671
 30
0.0
 40
0.0104167
 41
0.0104167
  0
VERTEX
  8
0
 10
9.54292
 20
0.389106
 30
0.0
 40
0.0104167
 41
0.0104167
  0
VERTEX
  8
0
 10
9.43565
 20
0.251193
 30
0.0
 40
0.0104167
 41
0.0104167
  0
VERTEX
  8
0
 10
9.29775
 20
0.143935
 30
0.0
 40
0.0104167
 41
0.0104167
  0
VERTEX
  8
0
 10
9.12918
 20
0.0673286
 30
0.0
 40
0.0104167
 41
0.0104167
  0
VERTEX
  8
0
 10
8.93001
 20
0.0213758
 30
0.0
 40
0.0104167
 41
0.0104167
  0
VERTEX
  8
0
 10
8.75765
 20
0.00602214
 30
0.0
 40
0.0104167
 41
0.0104167
  0
VERTEX
  8
0
 10
8.70019
 20
0.00602214
 30
0.0
 40
0.0104167
 41
0.0104167
  0
VERTEX
  8
0
 10
8.70019
 20
0.986654
 30
0.0
 40
0.0104167
 41
0.0104167
  0
VERTEX
  8
0
 10
9.68083
 20
0.986654
 30
0.0
 40
0.0104167
 41
0.0104167
  0
SEQEND
 8
0
  0
POLYLINE
  8
0
 62
     0
 66
     1
 10
0
 20
0
 30
0.0
 70
     1
 40
0
 41
0
  0
VERTEX
  8
0
 10
2.22385
 20
9.88542
 30
0.0
 40
0
 41
0
  0
VERTEX
  8
0
 10
2.22385
 20
3.06603
 30
0.0
 40
0
 41
0
  0
VERTEX
  8
0
 10
2.63917
 20
3.06603
 30
0.0
 40
0
 41
0
  0
VERTEX
  8
0
 10
2.63917
 20
9.38542
 30
0.0
 40
0
 41
0
  0
VERTEX
  8
0
 10
2.22385
 20
9.88542
 30
0.0
 40
0
 41
0
  0
SEQEND
 8
0
  0
POLYLINE
  8
0
 62
     0
 66
     1
 10
0
 20
0
 30
0.0
 70
     1
 40
0.15
 41
0.15
  0
VERTEX
  8
0
 10
2.22385
 20
9.88542
 30
0.0
 40
0.00208333
 41
0.00208333
  0
VERTEX
  8
0
 10
2.22385
 20
3.06603
 30
0.0
 40
0.00208333
 41
0.00208333
  0
VERTEX
  8
0
 10
2.63917
 20
3.06603
 30
0.0
 40
0.00208333
 41
0.00208333
  0
VERTEX
  8
0
 10
2.63917
 20
9.38542
 30
0.0
 40
0.00208333
 41
0.00208333
  0
VERTEX
  8
0
 10
2.22385
 20
9.88542
 30
0.0
 40
0.00208333
 41
0.00208333
  0
SEQEND
 8
0
  0
POLYLINE
  8
0
 62
     0
 66
     1
 10
0
 20
0
 30
0.0
 70
     1
 40
0
 41
0
  0
VERTEX
  8
0
 10
2.22385
 20
3.06603
 30
0.0
 40
0
 41
0
  0
VERTEX
  8
0
 10
2.22385
 20
0.986654
 30
0.0
 40
0
 41
0
  0
VERTEX
  8
0
 10
2.67008
 20
1.54075
 30
0.0
 40
0
 41
0
  0
VERTEX
  8
0
 10
2.67008
 20
3.06603
 30
0.0
 40
0
 41
0
  0
VERTEX
  8
0
 10
2.22385
 20
3.06603
 30
0.0
 40
0
 41
0
  0
SEQEND
 8
0
  0
POLYLINE
  8
0
 62
     0
 66
     1
 10
0
 20
0
 30
0.0
 70
     1
 40
0.15
 41
0.15
  0
VERTEX
  8
0
 10
2.22385
 20
3.06603
 30
0.0
 40
0.00208333
 41
0.00208333
  0
VERTEX
  8
0
 10
2.22385
 20
0.986654
 30
0.0
 40
0.00208333
 41
0.00208333
  0
VERTEX
  8
0
 10
2.67008
 20
1.54075
 30
0.0
 40
0.00208333
 41
0.00208333
  0
VERTEX
  8
0
 10
2.67008
 20
3.06603
 30
0.0
 40
0.00208333
 41
0.00208333
  0
VERTEX
  8
0
 10
2.22385
 20
3.06603
 30
0.0
 40
0.00208333
 41
0.00208333
  0
SEQEND
 8
0
  0
POLYLINE
  8
0
 62
     0
 66
     1
 10
0
 20
0
 30
0.0
 70
     1
 40
0
 41
0
  0
VERTEX
  8
0
 10
4.5275
 20
5.41906
 30
0.0
 40
0
 41
0
  0
VERTEX
  8
0
 10
6.36094
 20
5.41906
 30
0.0
 40
0
 41
0
  0
VERTEX
  8
0
 10
6.24636
 20
5.53364
 30
0.0
 40
0
 41
0
  0
VERTEX
  8
0
 10
4.5275
 20
5.53364
 30
0.0
 40
0
 41
0
  0
VERTEX
  8
0
 10
4.5275
 20
5.41906
 30
0.0
 40
0
 41
0
  0
SEQEND
 8
0
  0
POLYLINE
  8
0
 62
     0
 66
     1
 10
0
 20
0
 30
0.0
 70
     1
 40
0.15
 41
0.15
  0
VERTEX
  8
0
 10
4.5275
 20
5.41906
 30
0.0
 40
0.00208333
 41
0.00208333
  0
VERTEX
  8
0
 10
6.36094
 20
5.41906
 30
0.0
 40
0.00208333
 41
0.00208333
  0
VERTEX
  8
0
 10
6.24636
 20
5.53364
 30
0.0
 40
0.00208333
 41
0.00208333
  0
VERTEX
  8
0
 10
4.5275
 20
5.53364
 30
0.0
 40
0.00208333
 41
0.00208333
  0
VERTEX
  8
0
 10
4.5275
 20
5.41906
 30
0.0
 40
0.00208333
 41
0.00208333
  0
SEQEND
 8
0
  0
POLYLINE
  8
0
 62
     0
 66
     1
 10
0
 20
0
 30
0.0
 70
     1
 40
0
 41
0
  0
VERTEX
  8
0
 10
6.36094
 20
5.41906
 30
0.0
 40
0
 41
0
  0
VERTEX
  8
0
 10
6.36094
 20
9.38542
 30
0.0
 40
0
 41
0
  0
VERTEX
  8
0
 10
6.24636
 20
9.38542
 30
0.0
 40
0
 41
0
  0
VERTEX
  8
0
 10
6.24636
 20
5.53364
 30
0.0
 40
0
 41
0
  0
VERTEX
  8
0
 10
6.36094
 20
5.41906
 30
0.0
 40
0
 41
0
  0
SEQEND
 8
0
  0
POLYLINE
  8
0
 62
     0
 66
     1
 10
0
 20
0
 30
0.0
 70
     1
 40
0.15
 41
0.15
  0
VERTEX
  8
0
 10
6.36094
 20
5.41906
 30
0.0
 40
0.00208333
 41
0.00208333
  0
VERTEX
  8
0
 10
6.36094
 20
9.38542
 30
0.0
 40
0.00208333
 41
0.00208333
  0
VERTEX
  8
0
 10
6.24636
 20
9.38542
 30
0.0
 40
0.00208333
 41
0.00208333
  0
VERTEX
  8
0
 10
6.24636
 20
5.53364
 30
0.0
 40
0.00208333
 41
0.00208333
  0
VERTEX
  8
0
 10
6.36094
 20
5.41906
 30
0.0
 40
0.00208333
 41
0.00208333
  0
SEQEND
 8
0
  0
POLYLINE
  8
0
 62
     7
 66
     1
 10
0
 20
0
 30
0.0
 70
     1
 40
0
 41
0
  0
VERTEX
  8
0
 10
6.24636
 20
7.12885
 30
0.0
 40
0
 41
0
  0
VERTEX
  8
0
 10
6.36094
 20
7.12885
 30
0.0
 40
0
 41
0
  0
VERTEX
  8
0
 10
6.36094
 20
6.25553
 30
0.0
 40
0
 41
0
  0
VERTEX
  8
0
 10
6.24636
 20
6.25553
 30
0.0
 40
0
 41
0
  0
VERTEX
  8
0
 10
6.24636
 20
7.12885
 30
0.0
 40
0
 41
0
  0
SEQEND
 8
0
  0
POLYLINE
  8
0
 62
     0
 66
     1
 10
0
 20
0
 30
0.0
 70
     1
 40
0.75
 41
0.75
  0
VERTEX
  8
0
 10
6.24636
 20
7.12885
 30
0.0
 40
0.0104167
 41
0.0104167
  0
VERTEX
  8
0
 10
6.36094
 20
7.12885
 30
0.0
 40
0.0104167
 41
0.0104167
  0
VERTEX
  8
0
 10
6.36094
 20
6.25553
 30
0.0
 40
0.0104167
 41
0.0104167
  0
VERTEX
  8
0
 10
6.24636
 20
6.25553
 30
0.0
 40
0.0104167
 41
0.0104167
  0
VERTEX
  8
0
 10
6.24636
 20
7.12885
 30
0.0
 40
0.0104167
 41
0.0104167
  0
SEQEND
 8
0
  0
POLYLINE
  8
0
 62
     7
 66
     1
 10
0
 20
0
 30
0.0
 70
     1
 40
0
 41
0
  0
VERTEX
  8
0
 10
6.24636
 20
7.12885
 30
0.0
 40
0
 41
0
  0
VERTEX
  8
0
 10
6.36094
 20
7.12885
 30
0.0
 40
0
 41
0
  0
VERTEX
  8
0
 10
6.36094
 20
6.25553
 30
0.0
 40
0
 41
0
  0
VERTEX
  8
0
 10
6.24636
 20
6.25553
 30
0.0
 40
0
 41
0
  0
VERTEX
  8
0
 10
6.24636
 20
7.12885
 30
0.0
 40
0
 41
0
  0
SEQEND
 8
0
  0
POLYLINE
  8
0
 62
     0
 66
     1
 10
0
 20
0
 30
0.0
 70
     1
 40
0.75
 41
0.75
  0
VERTEX
  8
0
 10
6.24636
 20
7.12885
 30
0.0
 40
0.0104167
 41
0.0104167
  0
VERTEX
  8
0
 10
6.36094
 20
7.12885
 30
0.0
 40
0.0104167
 41
0.0104167
  0
VERTEX
  8
0
 10
6.36094
 20
6.25553
 30
0.0
 40
0.0104167
 41
0.0104167
  0
VERTEX
  8
0
 10
6.24636
 20
6.25553
 30
0.0
 40
0.0104167
 41
0.0104167
  0
VERTEX
  8
0
 10
6.24636
 20
7.12885
 30
0.0
 40
0.0104167
 41
0.0104167
  0
SEQEND
 8
0
  0
POLYLINE
  8
0
 62
     0
 66
     1
 10
0
 20
0
 30
0.0
 70
     1
 40
0.75
 41
0.75
  0
VERTEX
  8
0
 10
6.24636
 20
7.12885
 30
0.0
 40
0.0104167
 41
0.0104167
  0
VERTEX
  8
0
 10
6.19515
 20
7.12885
 30
0.0
 40
0.0104167
 41
0.0104167
  0
VERTEX
  8
0
 10
6.04167
 20
7.11524
 30
0.0
 40
0.0104167
 41
0.0104167
  0
VERTEX
  8
0
 10
5.86426
 20
7.07428
 30
0.0
 40
0.0104167
 41
0.0104167
  0
VERTEX
  8
0
 10
5.71414
 20
7.00608
 30
0.0
 40
0.0104167
 41
0.0104167
  0
VERTEX
  8
0
 10
5.59136
 20
6.91054
 30
0.0
 40
0.0104167
 41
0.0104167
  0
VERTEX
  8
0
 10
5.49582
 20
6.78771
 30
0.0
 40
0.0104167
 41
0.0104167
  0
VERTEX
  8
0
 10
5.42757
 20
6.63764
 30
0.0
 40
0.0104167
 41
0.0104167
  0
VERTEX
  8
0
 10
5.38667
 20
6.46024
 30
0.0
 40
0.0104167
 41
0.0104167
  0
VERTEX
  8
0
 10
5.37304
 20
6.30675
 30
0.0
 40
0.0104167
 41
0.0104167
  0
VERTEX
  8
0
 10
5.37304
 20
6.25553
 30
0.0
 40
0.0104167
 41
0.0104167
  0
VERTEX
  8
0
 10
6.24636
 20
6.25553
 30
0.0
 40
0.0104167
 41
0.0104167
  0
VERTEX
  8
0
 10
6.24636
 20
7.12885
 30
0.0
 40
0.0104167
 41
0.0104167
  0
SEQEND
 8
0
  0
POLYLINE
  8
0
 62
     0
 66
     1
 10
0
 20
0
 30
0.0
 70
     1
 40
0
 41
0
  0
VERTEX
  8
0
 10
6.72592
 20
4.2545
 30
0.0
 40
0
 41
0
  0
VERTEX
  8
0
 10
8.64344
 20
4.2545
 30
0.0
 40
0
 41
0
  0
VERTEX
  8
0
 10
8.64344
 20
4.13992
 30
0.0
 40
0
 41
0
  0
VERTEX
  8
0
 10
6.72592
 20
4.13992
 30
0.0
 40
0
 41
0
  0
VERTEX
  8
0
 10
6.72592
 20
4.2545
 30
0.0
 40
0
 41
0
  0
SEQEND
 8
0
  0
POLYLINE
  8
0
 62
     0
 66
     1
 10
0
 20
0
 30
0.0
 70
     1
 40
0.15
 41
0.15
  0
VERTEX
  8
0
 10
6.72592
 20
4.2545
 30
0.0
 40
0.00208333
 41
0.00208333
  0
VERTEX
  8
0
 10
8.64344
 20
4.2545
 30
0.0
 40
0.00208333
 41
0.00208333
  0
VERTEX
  8
0
 10
8.64344
 20
4.13992
 30
0.0
 40
0.00208333
 41
0.00208333
  0
VERTEX
  8
0
 10
6.72592
 20
4.13992
 30
0.0
 40
0.00208333
 41
0.00208333
  0
VERTEX
  8
0
 10
6.72592
 20
4.2545
 30
0.0
 40
0.00208333
 41
0.00208333
  0
SEQEND
 8
0
  0
POLYLINE
  8
0
 62
     0
 66
     1
 10
0
 20
0
 30
0.0
 70
     1
 40
0
 41
0
  0
VERTEX
  8
0
 10
8.52886
 20
2.1174
 30
0.0
 40
0
 41
0
  0
VERTEX
  8
0
 10
8.64344
 20
2.1174
 30
0.0
 40
0
 41
0
  0
VERTEX
  8
0
 10
8.64344
 20
0.986654
 30
0.0
 40
0
 41
0
  0
VERTEX
  8
0
 10
8.52886
 20
0.986654
 30
0.0
 40
0
 41
0
  0
VERTEX
  8
0
 10
8.52886
 20
2.1174
 30
0.0
 40
0
 41
0
  0
SEQEND
 8
0
  0
POLYLINE
  8
0
 62
     0
 66
     1
 10
0
 20
0
 30
0.0
 70
     1
 40
0.15
 41
0.15
  0
VERTEX
  8
0
 10
8.52886
 20
2.1174
 30
0.0
 40
0.00208333
 41
0.00208333
  0
VERTEX
  8
0
 10
8.64344
 20
2.1174
 30
0.0
 40
0.00208333
 41
0.00208333
  0
VERTEX
  8
0
 10
8.64344
 20
0.986654
 30
0.0
 40
0.00208333
 41
0.00208333
  0
VERTEX
  8
0
 10
8.52886
 20
0.986654
 30
0.0
 40
0.00208333
 41
0.00208333
  0
VERTEX
  8
0
 10
8.52886
 20
2.1174
 30
0.0
 40
0.00208333
 41
0.00208333
  0
SEQEND
 8
0
  0
POLYLINE
  8
0
 62
     0
 66
     1
 10
0
 20
0
 30
0.0
 70
     1
 40
0
 41
0
  0
VERTEX
  8
0
 10
9.79665
 20
4.2545
 30
0.0
 40
0
 41
0
  0
VERTEX
  8
0
 10
10.6903
 20
4.2545
 30
0.0
 40
0
 41
0
  0
VERTEX
  8
0
 10
10.6903
 20
3.82383
 30
0.0
 40
0
 41
0
  0
VERTEX
  8
0
 10
9.79665
 20
3.82383
 30
0.0
 40
0
 41
0
  0
VERTEX
  8
0
 10
9.79665
 20
4.2545
 30
0.0
 40
0
 41
0
  0
SEQEND
 8
0
  0
POLYLINE
  8
0
 62
     0
 66
     1
 10
0
 20
0
 30
0.0
 70
     1
 40
0.15
 41
0.15
  0
VERTEX
  8
0
 10
9.79665
 20
4.2545
 30
0.0
 40
0.00208333
 41
0.00208333
  0
VERTEX
  8
0
 10
10.6903
 20
4.2545
 30
0.0
 40
0.00208333
 41
0.00208333
  0
VERTEX
  8
0
 10
10.6903
 20
3.82383
 30
0.0
 40
0.00208333
 41
0.00208333
  0
VERTEX
  8
0
 10
9.79665
 20
3.82383
 30
0.0
 40
0.00208333
 41
0.00208333
  0
VERTEX
  8
0
 10
9.79665
 20
4.2545
 30
0.0
 40
0.00208333
 41
0.00208333
  0
SEQEND
 8
0
  0
POLYLINE
  8
0
 62
     0
 66
     1
 10
0
 20
0
 30
0.0
 70
     1
 40
0
 41
0
  0
VERTEX
  8
0
 10
4.66292
 20
6.23844
 30
0.0
 40
0
 41
0
  0
VERTEX
  8
0
 10
5.00863
 20
6.23844
 30
0.0
 40
0
 41
0
  0
VERTEX
  8
0
 10
5.00863
 20
5.50353
 30
0.0
 40
0
 41
0
  0
VERTEX
  8
0
 10
4.66292
 20
5.50353
 30
0.0
 40
0
 41
0
  0
VERTEX
  8
0
 10
4.66292
 20
6.23844
 30
0.0
 40
0
 41
0
  0
SEQEND
 8
0
  0
POLYLINE
  8
0
 62
     7
 66
     1
 10
0
 20
0
 30
0.0
 70
     1
 40
0
 41
0
  0
VERTEX
  8
0
 10
5.00863
 20
6.16092
 30
0.0
 40
0
 41
0
  0
VERTEX
  8
0
 10
5.63363
 20
6.16092
 30
0.0
 40
0
 41
0
  0
VERTEX
  8
0
 10
5.63363
 20
5.53592
 30
0.0
 40
0
 41
0
  0
VERTEX
  8
0
 10
5.00863
 20
5.53592
 30
0.0
 40
0
 41
0
  0
VERTEX
  8
0
 10
5.00863
 20
6.16092
 30
0.0
 40
0
 41
0
  0
SEQEND
 8
0
  0
POLYLINE
  8
0
 62
     0
 66
     1
 10
0
 20
0
 30
0.0
 70
     1
 40
0.75
 41
0.75
  0
VERTEX
  8
0
 10
5.00863
 20
6.16092
 30
0.0
 40
0.0104167
 41
0.0104167
  0
VERTEX
  8
0
 10
5.63363
 20
6.16092
 30
0.0
 40
0.0104167
 41
0.0104167
  0
VERTEX
  8
0
 10
5.63363
 20
5.53592
 30
0.0
 40
0.0104167
 41
0.0104167
  0
VERTEX
  8
0
 10
5.00863
 20
5.53592
 30
0.0
 40
0.0104167
 41
0.0104167
  0
VERTEX
  8
0
 10
5.00863
 20
6.16092
 30
0.0
 40
0.0104167
 41
0.0104167
  0
SEQEND
 8
0
  0
POLYLINE
  8
0
 62
     7
 66
     1
 10
0
 20
0
 30
0.0
 70
     1
 40
0
 41
0
  0
VERTEX
  8
0
 10
5.63368
 20
6.16092
 30
0.0
 40
0
 41
0
  0
VERTEX
  8
0
 10
6.15474
 20
6.16092
 30
0.0
 40
0
 41
0
  0
VERTEX
  8
0
 10
6.15474
 20
5.53592
 30
0.0
 40
0
 41
0
  0
VERTEX
  8
0
 10
5.63368
 20
5.53592
 30
0.0
 40
0
 41
0
  0
VERTEX
  8
0
 10
5.63368
 20
6.16092
 30
0.0
 40
0
 41
0
  0
SEQEND
 8
0
  0
POLYLINE
  8
0
 62
     0
 66
     1
 10
0
 20
0
 30
0.0
 70
     1
 40
0.75
 41
0.75
  0
VERTEX
  8
0
 10
5.63368
 20
6.16092
 30
0.0
 40
0.0104167
 41
0.0104167
  0
VERTEX
  8
0
 10
6.15474
 20
6.16092
 30
0.0
 40
0.0104167
 41
0.0104167
  0
VERTEX
  8
0
 10
6.15474
 20
5.53592
 30
0.0
 40
0.0104167
 41
0.0104167
  0
VERTEX
  8
0
 10
5.63368
 20
5.53592
 30
0.0
 40
0.0104167
 41
0.0104167
  0
VERTEX
  8
0
 10
5.63368
 20
6.16092
 30
0.0
 40
0.0104167
 41
0.0104167
  0
SEQEND
 8
0
  0
POLYLINE
  8
0
 62
     253
 66
     1
 10
0
 20
0
 30
0.0
 40
0.75
 41
0.75
  0
VERTEX
  8
0
 10
6.15474
 20
5.84842
 30
0.0
 40
0.0104167
 41
0.0104167
  0
VERTEX
  8
0
 10
5.63363
 20
5.84842
 30
0.0
 40
0.0104167
 41
0.0104167
  0
SEQEND
 8
0
  0
POLYLINE
  8
0
 62
     7
 66
     1
 10
0
 20
0
 30
0.0
 70
     1
 40
0
 41
0
  0
VERTEX
  8
0
 10
6.15761
 20
6.16092
 30
0.0
 40
0
 41
0
  0
VERTEX
  8
0
 10
6.24631
 20
6.16092
 30
0.0
 40
0
 41
0
  0
VERTEX
  8
0
 10
6.24631
 20
5.53592
 30
0.0
 40
0
 41
0
  0
VERTEX
  8
0
 10
6.15761
 20
5.53592
 30
0.0
 40
0
 41
0
  0
VERTEX
  8
0
 10
6.15761
 20
6.16092
 30
0.0
 40
0
 41
0
  0
SEQEND
 8
0
  0
POLYLINE
  8
0
 62
     0
 66
     1
 10
0
 20
0
 30
0.0
 70
     1
 40
0.6387
 41
0.6387
  0
VERTEX
  8
0
 10
6.15761
 20
6.16092
 30
0.0
 40
0.00887083
 41
0.00887083
  0
VERTEX
  8
0
 10
6.24631
 20
6.16092
 30
0.0
 40
0.00887083
 41
0.00887083
  0
VERTEX
  8
0
 10
6.24631
 20
5.53592
 30
0.0
 40
0.00887083
 41
0.00887083
  0
VERTEX
  8
0
 10
6.15761
 20
5.53592
 30
0.0
 40
0.00887083
 41
0.00887083
  0
VERTEX
  8
0
 10
6.15761
 20
6.16092
 30
0.0
 40
0.00887083
 41
0.00887083
  0
SEQEND
 8
0
  0
POLYLINE
  8
0
 62
     7
 66
     1
 10
0
 20
0
 30
0.0
 70
     1
 40
0
 41
0
  0
VERTEX
  8
0
 10
2.64019
 20
6.10297
 30
0.0
 40
0
 41
0
  0
VERTEX
  8
0
 10
3.27701
 20
6.10297
 30
0.0
 40
0
 41
0
  0
VERTEX
  8
0
 10
3.27701
 20
5.47797
 30
0.0
 40
0
 41
0
  0
VERTEX
  8
0
 10
2.64019
 20
5.47797
 30
0.0
 40
0
 41
0
  0
VERTEX
  8
0
 10
2.64019
 20
6.10297
 30
0.0
 40
0
 41
0
  0
SEQEND
 8
0
  0
POLYLINE
  8
0
 62
     0
 66
     1
 10
0
 20
0
 30
0.0
 70
     1
 40
0.75
 41
0.75
  0
VERTEX
  8
0
 10
2.64019
 20
6.10297
 30
0.0
 40
0.0104167
 41
0.0104167
  0
VERTEX
  8
0
 10
2.64019
 20
5.47797
 30
0.0
 40
0.0104167
 41
0.0104167
  0
VERTEX
  8
0
 10
3.27701
 20
5.47797
 30
0.0
 40
0.0104167
 41
0.0104167
  0
VERTEX
  8
0
 10
3.27701
 20
6.10297
 30
0.0
 40
0.0104167
 41
0.0104167
  0
VERTEX
  8
0
 10
2.64019
 20
6.10297
 30
0.0
 40
0.0104167
 41
0.0104167
  0
SEQEND
 8
0
  0
POLYLINE
  8
0
 62
     0
 66
     1
 10
0
 20
0
 30
0.0
 40
0.75
 41
0.75
  0
VERTEX
  8
0
 10
2.64019
 20
5.47797
 30
0.0
 40
0.0104167
 41
0.0104167
  0
VERTEX
  8
0
 10
3.06261
 20
5.7915
 30
0.0
 40
0.0104167
 41
0.0104167
  0
VERTEX
  8
0
 10
2.84608
 20
5.7915
 30
0.0
 40
0.0104167
 41
0.0104167
  0
VERTEX
  8
0
 10
3.27701
 20
6.10194
 30
0.0
 40
0.0104167
 41
0.0104167
  0
SEQEND
 8
0
  0
POLYLINE
  8
0
 62
     7
 66
     1
 10
0
 20
0
 30
0.0
 70
     1
 40
0
 41
0
  0
VERTEX
  8
0
 10
2.64144
 20
5.39638
 30
0.0
 40
0
 41
0
  0
VERTEX
  8
0
 10
3.12967
 20
5.39638
 30
0.0
 40
0
 41
0
  0
VERTEX
  8
0
 10
3.12967
 20
4.77138
 30
0.0
 40
0
 41
0
  0
VERTEX
  8
0
 10
2.64144
 20
4.77138
 30
0.0
 40
0
 41
0
  0
VERTEX
  8
0
 10
2.64144
 20
5.39638
 30
0.0
 40
0
 41
0
  0
SEQEND
 8
0
  0
POLYLINE
  8
0
 62
     0
 66
     1
 10
0
 20
0
 30
0.0
 70
     1
 40
0.75
 41
0.75
  0
VERTEX
  8
0
 10
2.64144
 20
5.39638
 30
0.0
 40
0.0104167
 41
0.0104167
  0
VERTEX
  8
0
 10
2.64144
 20
4.77138
 30
0.0
 40
0.0104167
 41
0.0104167
  0
VERTEX
  8
0
 10
3.12967
 20
4.77138
 30
0.0
 40
0.0104167
 41
0.0104167
  0
VERTEX
  8
0
 10
3.12967
 20
5.39638
 30
0.0
 40
0.0104167
 41
0.0104167
  0
VERTEX
  8
0
 10
2.64144
 20
5.39638
 30
0.0
 40
0.0104167
 41
0.0104167
  0
SEQEND
 8
0
  0
POLYLINE
  8
0
 62
     7
 66
     1
 10
0
 20
0
 30
0.0
 70
     1
 40
0
 41
0
  0
VERTEX
  8
0
 10
2.74251
 20
5.34429
 30
0.0
 40
0
 41
0
  0
VERTEX
  8
0
 10
3.08653
 20
5.34429
 30
0.0
 40
0
 41
0
  0
VERTEX
  8
0
 10
3.08653
 20
4.82346
 30
0.0
 40
0
 41
0
  0
VERTEX
  8
0
 10
2.74251
 20
4.82346
 30
0.0
 40
0
 41
0
  0
VERTEX
  8
0
 10
2.74251
 20
5.34429
 30
0.0
 40
0
 41
0
  0
SEQEND
 8
0
  0
POLYLINE
  8
0
 62
     0
 66
     1
 10
0
 20
0
 30
0.0
 70
     1
 40
0.75
 41
0.75
  0
VERTEX
  8
0
 10
2.74251
 20
5.34429
 30
0.0
 40
0.0104167
 41
0.0104167
  0
VERTEX
  8
0
 10
2.74251
 20
4.82346
 30
0.0
 40
0.0104167
 41
0.0104167
  0
VERTEX
  8
0
 10
3.08653
 20
4.82346
 30
0.0
 40
0.0104167
 41
0.0104167
  0
VERTEX
  8
0
 10
3.08653
 20
5.34429
 30
0.0
 40
0.0104167
 41
0.0104167
  0
VERTEX
  8
0
 10
2.74251
 20
5.34429
 30
0.0
 40
0.0104167
 41
0.0104167
  0
SEQEND
 8
0
  0
POLYLINE
  8
0
 62
     7
 66
     1
 10
0
 20
0
 30
0.0
 70
     1
 40
0
 41
0
  0
VERTEX
  8
0
 10
2.90349
 20
5.12033
 30
0.0
 40
0
 41
0
  0
VERTEX
  8
0
 10
2.90989
 20
5.12033
 30
0.0
 40
0
 41
0
  0
VERTEX
  8
0
 10
2.92925
 20
5.10969
 30
0.0
 40
0
 41
0
  0
VERTEX
  8
0
 10
2.93994
 20
5.09033
 30
0.0
 40
0
 41
0
  0
VERTEX
  8
0
 10
2.93994
 20
5.08388
 30
0.0
 40
0
 41
0
  0
VERTEX
  8
0
 10
2.93994
 20
5.07747
 30
0.0
 40
0
 41
0
  0
VERTEX
  8
0
 10
2.92925
 20
5.05811
 30
0.0
 40
0
 41
0
  0
VERTEX
  8
0
 10
2.90989
 20
5.04742
 30
0.0
 40
0
 41
0
  0
VERTEX
  8
0
 10
2.90349
 20
5.04742
 30
0.0
 40
0
 41
0
  0
VERTEX
  8
0
 10
2.89703
 20
5.04742
 30
0.0
 40
0
 41
0
  0
VERTEX
  8
0
 10
2.87765
 20
5.05811
 30
0.0
 40
0
 41
0
  0
VERTEX
  8
0
 10
2.86703
 20
5.07747
 30
0.0
 40
0
 41
0
  0
VERTEX
  8
0
 10
2.86703
 20
5.08388
 30
0.0
 40
0
 41
0
  0
VERTEX
  8
0
 10
2.86703
 20
5.09033
 30
0.0
 40
0
 41
0
  0
VERTEX
  8
0
 10
2.87765
 20
5.10969
 30
0.0
 40
0
 41
0
  0
VERTEX
  8
0
 10
2.89703
 20
5.12033
 30
0.0
 40
0
 41
0
  0
VERTEX
  8
0
 10
2.90349
 20
5.12033
 30
0.0
 40
0
 41
0
  0
SEQEND
 8
0
  0
POLYLINE
  8
0
 62
     0
 66
     1
 10
0
 20
0
 30
0.0
 70
     1
 40
0.6
 41
0.6
  0
VERTEX
  8
0
 10
2.90349
 20
5.12033
 30
0.0
 40
0.00833333
 41
0.00833333
  0
VERTEX
  8
0
 10
2.90989
 20
5.12033
 30
0.0
 40
0.00833333
 41
0.00833333
  0
VERTEX
  8
0
 10
2.92925
 20
5.10969
 30
0.0
 40
0.00833333
 41
0.00833333
  0
VERTEX
  8
0
 10
2.93994
 20
5.09033
 30
0.0
 40
0.00833333
 41
0.00833333
  0
VERTEX
  8
0
 10
2.93994
 20
5.08388
 30
0.0
 40
0.00833333
 41
0.00833333
  0
VERTEX
  8
0
 10
2.93994
 20
5.07747
 30
0.0
 40
0.00833333
 41
0.00833333
  0
VERTEX
  8
0
 10
2.92925
 20
5.05811
 30
0.0
 40
0.00833333
 41
0.00833333
  0
VERTEX
  8
0
 10
2.90989
 20
5.04742
 30
0.0
 40
0.00833333
 41
0.00833333
  0
VERTEX
  8
0
 10
2.90349
 20
5.04742
 30
0.0
 40
0.00833333
 41
0.00833333
  0
VERTEX
  8
0
 10
2.89703
 20
5.04742
 30
0.0
 40
0.00833333
 41
0.00833333
  0
VERTEX
  8
0
 10
2.87765
 20
5.05811
 30
0.0
 40
0.00833333
 41
0.00833333
  0
VERTEX
  8
0
 10
2.86703
 20
5.07747
 30
0.0
 40
0.00833333
 41
0.00833333
  0
VERTEX
  8
0
 10
2.86703
 20
5.08388
 30
0.0
 40
0.00833333
 41
0.00833333
  0
VERTEX
  8
0
 10
2.86703
 20
5.09033
 30
0.0
 40
0.00833333
 41
0.00833333
  0
VERTEX
  8
0
 10
2.87765
 20
5.10969
 30
0.0
 40
0.00833333
 41
0.00833333
  0
VERTEX
  8
0
 10
2.89703
 20
5.12033
 30
0.0
 40
0.00833333
 41
0.00833333
  0
VERTEX
  8
0
 10
2.90349
 20
5.12033
 30
0.0
 40
0.00833333
 41
0.00833333
  0
SEQEND
 8
0
  0
POLYLINE
  8
0
 62
     7
 66
     1
 10
0
 20
0
 30
0.0
 70
     1
 40
0
 41
0
  0
VERTEX
  8
0
 10
2.90349
 20
5.10471
 30
0.0
 40
0
 41
0
  0
VERTEX
  8
0
 10
2.90713
 20
5.10471
 30
0.0
 40
0
 41
0
  0
VERTEX
  8
0
 10
2.91818
 20
5.09864
 30
0.0
 40
0
 41
0
  0
VERTEX
  8
0
 10
2.92432
 20
5.08757
 30
0.0
 40
0
 41
0
  0
VERTEX
  8
0
 10
2.92432
 20
5.08388
 30
0.0
 40
0
 41
0
  0
VERTEX
  8
0
 10
2.92432
 20
5.08024
 30
0.0
 40
0
 41
0
  0
VERTEX
  8
0
 10
2.91818
 20
5.06917
 30
0.0
 40
0
 41
0
  0
VERTEX
  8
0
 10
2.90713
 20
5.06304
 30
0.0
 40
0
 41
0
  0
VERTEX
  8
0
 10
2.90349
 20
5.06304
 30
0.0
 40
0
 41
0
  0
VERTEX
  8
0
 10
2.89979
 20
5.06304
 30
0.0
 40
0
 41
0
  0
VERTEX
  8
0
 10
2.88872
 20
5.06917
 30
0.0
 40
0
 41
0
  0
VERTEX
  8
0
 10
2.88265
 20
5.08024
 30
0.0
 40
0
 41
0
  0
VERTEX
  8
0
 10
2.88265
 20
5.08388
 30
0.0
 40
0
 41
0
  0
VERTEX
  8
0
 10
2.88265
 20
5.08757
 30
0.0
 40
0
 41
0
  0
VERTEX
  8
0
 10
2.88872
 20
5.09864
 30
0.0
 40
0
 41
0
  0
VERTEX
  8
0
 10
2.89979
 20
5.10471
 30
0.0
 40
0
 41
0
  0
VERTEX
  8
0
 10
2.90349
 20
5.10471
 30
0.0
 40
0
 41
0
  0
SEQEND
 8
0
  0
POLYLINE
  8
0
 62
     0
 66
     1
 10
0
 20
0
 30
0.0
 70
     1
 40
0.6
 41
0.6
  0
VERTEX
  8
0
 10
2.90349
 20
5.10471
 30
0.0
 40
0.00833333
 41
0.00833333
  0
VERTEX
  8
0
 10
2.90713
 20
5.10471
 30
0.0
 40
0.00833333
 41
0.00833333
  0
VERTEX
  8
0
 10
2.91818
 20
5.09864
 30
0.0
 40
0.00833333
 41
0.00833333
  0
VERTEX
  8
0
 10
2.92432
 20
5.08757
 30
0.0
 40
0.00833333
 41
0.00833333
  0
VERTEX
  8
0
 10
2.92432
 20
5.08388
 30
0.0
 40
0.00833333
 41
0.00833333
  0
VERTEX
  8
0
 10
2.92432
 20
5.08024
 30
0.0
 40
0.00833333
 41
0.00833333
  0
VERTEX
  8
0
 10
2.91818
 20
5.06917
 30
0.0
 40
0.00833333
 41
0.00833333
  0
VERTEX
  8
0
 10
2.90713
 20
5.06304
 30
0.0
 40
0.00833333
 41
0.00833333
  0
VERTEX
  8
0
 10
2.90349
 20
5.06304
 30
0.0
 40
0.00833333
 41
0.00833333
  0
VERTEX
  8
0
 10
2.89979
 20
5.06304
 30
0.0
 40
0.00833333
 41
0.00833333
  0
VERTEX
  8
0
 10
2.88872
 20
5.06917
 30
0.0
 40
0.00833333
 41
0.00833333
  0
VERTEX
  8
0
 10
2.88265
 20
5.08024
 30
0.0
 40
0.00833333
 41
0.00833333
  0
VERTEX
  8
0
 10
2.88265
 20
5.08388
 30
0.0
 40
0.00833333
 41
0.00833333
  0
VERTEX
  8
0
 10
2.88265
 20
5.08757
 30
0.0
 40
0.00833333
 41
0.00833333
  0
VERTEX
  8
0
 10
2.88872
 20
5.09864
 30
0.0
 40
0.00833333
 41
0.00833333
  0
VERTEX
  8
0
 10
2.89979
 20
5.10471
 30
0.0
 40
0.00833333
 41
0.00833333
  0
VERTEX
  8
0
 10
2.90349
 20
5.10471
 30
0.0
 40
0.00833333
 41
0.00833333
  0
SEQEND
 8
0
  0
POLYLINE
  8
0
 62
     7
 66
     1
 10
0
 20
0
 30
0.0
 70
     1
 40
0
 41
0
  0
VERTEX
  8
0
 10
2.68218
 20
5.11513
 30
0.0
 40
0
 41
0
  0
VERTEX
  8
0
 10
2.82801
 20
5.11513
 30
0.0
 40
0
 41
0
  0
VERTEX
  8
0
 10
2.82801
 20
5.05263
 30
0.0
 40
0
 41
0
  0
VERTEX
  8
0
 10
2.68218
 20
5.05263
 30
0.0
 40
0
 41
0
  0
VERTEX
  8
0
 10
2.68218
 20
5.11513
 30
0.0
 40
0
 41
0
  0
SEQEND
 8
0
  0
POLYLINE
  8
0
 62
     0
 66
     1
 10
0
 20
0
 30
0.0
 70
     1
 40
0.75
 41
0.75
  0
VERTEX
  8
0
 10
2.68218
 20
5.11513
 30
0.0
 40
0.0104167
 41
0.0104167
  0
VERTEX
  8
0
 10
2.68218
 20
5.05263
 30
0.0
 40
0.0104167
 41
0.0104167
  0
VERTEX
  8
0
 10
2.82801
 20
5.05263
 30
0.0
 40
0.0104167
 41
0.0104167
  0
VERTEX
  8
0
 10
2.82801
 20
5.11513
 30
0.0
 40
0.0104167
 41
0.0104167
  0
VERTEX
  8
0
 10
2.68218
 20
5.11513
 30
0.0
 40
0.0104167
 41
0.0104167
  0
SEQEND
 8
0
  0
POLYLINE
  8
0
 62
     0
 66
     1
 10
0
 20
0
 30
0.0
 70
     1
 40
0.75
 41
0.75
  0
VERTEX
  8
0
 10
2.64372
 20
5.39638
 30
0.0
 40
0.0104167
 41
0.0104167
  0
VERTEX
  8
0
 10
2.64372
 20
4.77138
 30
0.0
 40
0.0104167
 41
0.0104167
  0
VERTEX
  8
0
 10
2.90289
 20
4.77138
 30
0.0
 40
0.0104167
 41
0.0104167
  0
VERTEX
  8
0
 10
2.90289
 20
5.39638
 30
0.0
 40
0.0104167
 41
0.0104167
  0
VERTEX
  8
0
 10
2.64372
 20
5.39638
 30
0.0
 40
0.0104167
 41
0.0104167
  0
SEQEND
 8
0
  0
POLYLINE
  8
0
 62
     7
 66
     1
 10
0
 20
0
 30
0.0
 70
     1
 40
0
 41
0
  0
VERTEX
  8
0
 10
2.64438
 20
4.60335
 30
0.0
 40
0
 41
0
  0
VERTEX
  8
0
 10
2.83165
 20
4.60335
 30
0.0
 40
0
 41
0
  0
VERTEX
  8
0
 10
2.83165
 20
4.18679
 30
0.0
 40
0
 41
0
  0
VERTEX
  8
0
 10
2.64438
 20
4.18679
 30
0.0
 40
0
 41
0
  0
VERTEX
  8
0
 10
2.64438
 20
4.60335
 30
0.0
 40
0
 41
0
  0
SEQEND
 8
0
  0
POLYLINE
  8
0
 62
     0
 66
     1
 10
0
 20
0
 30
0.0
 70
     1
 40
0.75
 41
0.75
  0
VERTEX
  8
0
 10
2.64438
 20
4.60335
 30
0.0
 40
0.0104167
 41
0.0104167
  0
VERTEX
  8
0
 10
2.64438
 20
4.18679
 30
0.0
 40
0.0104167
 41
0.0104167
  0
VERTEX
  8
0
 10
2.83165
 20
4.18679
 30
0.0
 40
0.0104167
 41
0.0104167
  0
VERTEX
  8
0
 10
2.83165
 20
4.60335
 30
0.0
 40
0.0104167
 41
0.0104167
  0
VERTEX
  8
0
 10
2.64438
 20
4.60335
 30
0.0
 40
0.0104167
 41
0.0104167
  0
SEQEND
 8
0
  0
POLYLINE
  8
0
 62
     7
 66
     1
 10
0
 20
0
 30
0.0
 70
     1
 40
0
 41
0
  0
VERTEX
  8
0
 10
3.09999
 20
4.60335
 30
0.0
 40
0
 41
0
  0
VERTEX
  8
0
 10
3.09999
 20
4.60335
 30
0.0
 40
0
 41
0
  0
VERTEX
  8
0
 10
3.11171
 20
4.60346
 30
0.0
 40
0
 41
0
  0
VERTEX
  8
0
 10
3.14268
 20
4.60183
 30
0.0
 40
0
 41
0
  0
VERTEX
  8
0
 10
3.18653
 20
4.59571
 30
0.0
 40
0
 41
0
  0
VERTEX
  8
0
 10
3.23676
 20
4.58231
 30
0.0
 40
0
 41
0
  0
VERTEX
  8
0
 10
3.28694
 20
4.55875
 30
0.0
 40
0
 41
0
  0
VERTEX
  8
0
 10
3.33078
 20
4.52229
 30
0.0
 40
0
 41
0
  0
VERTEX
  8
0
 10
3.36176
 20
4.47011
 30
0.0
 40
0
 41
0
  0
VERTEX
  8
0
 10
3.37354
 20
4.41704
 30
0.0
 40
0
 41
0
  0
VERTEX
  8
0
 10
3.37354
 20
4.39936
 30
0.0
 40
0
 41
0
  0
VERTEX
  8
0
 10
3.37354
 20
4.38108
 30
0.0
 40
0
 41
0
  0
VERTEX
  8
0
 10
3.36176
 20
4.32622
 30
0.0
 40
0
 41
0
  0
VERTEX
  8
0
 10
3.33078
 20
4.27219
 30
0.0
 40
0
 41
0
  0
VERTEX
  8
0
 10
3.28694
 20
4.23438
 30
0.0
 40
0
 41
0
  0
VERTEX
  8
0
 10
3.23676
 20
4.2099
 30
0.0
 40
0
 41
0
  0
VERTEX
  8
0
 10
3.18653
 20
4.1959
 30
0.0
 40
0
 41
0
  0
VERTEX
  8
0
 10
3.14268
 20
4.18951
 30
0.0
 40
0
 41
0
  0
VERTEX
  8
0
 10
3.11171
 20
4.18778
 30
0.0
 40
0
 41
0
  0
VERTEX
  8
0
 10
3.09999
 20
4.18782
 30
0.0
 40
0
 41
0
  0
VERTEX
  8
0
 10
3.09999
 20
4.18782
 30
0.0
 40
0
 41
0
  0
VERTEX
  8
0
 10
2.83165
 20
4.18679
 30
0.0
 40
0
 41
0
  0
VERTEX
  8
0
 10
2.83165
 20
4.60335
 30
0.0
 40
0
 41
0
  0
VERTEX
  8
0
 10
3.09999
 20
4.60335
 30
0.0
 40
0
 41
0
  0
SEQEND
 8
0
  0
POLYLINE
  8
0
 62
     0
 66
     1
 10
0
 20
0
 30
0.0
 70
     1
 40
0.75
 41
0.75
  0
VERTEX
  8
0
 10
3.09999
 20
4.60335
 30
0.0
 40
0.0104167
 41
0.0104167
  0
VERTEX
  8
0
 10
3.09999
 20
4.60335
 30
0.0
 40
0.0104167
 41
0.0104167
  0
VERTEX
  8
0
 10
3.11171
 20
4.60346
 30
0.0
 40
0.0104167
 41
0.0104167
  0
VERTEX
  8
0
 10
3.14268
 20
4.60183
 30
0.0
 40
0.0104167
 41
0.0104167
  0
VERTEX
  8
0
 10
3.18653
 20
4.59571
 30
0.0
 40
0.0104167
 41
0.0104167
  0
VERTEX
  8
0
 10
3.23676
 20
4.58231
 30
0.0
 40
0.0104167
 41
0.0104167
  0
VERTEX
  8
0
 10
3.28694
 20
4.55875
 30
0.0
 40
0.0104167
 41
0.0104167
  0
VERTEX
  8
0
 10
3.33078
 20
4.52229
 30
0.0
 40
0.0104167
 41
0.0104167
  0
VERTEX
  8
0
 10
3.36176
 20
4.47011
 30
0.0
 40
0.0104167
 41
0.0104167
  0
VERTEX
  8
0
 10
3.37354
 20
4.41704
 30
0.0
 40
0.0104167
 41
0.0104167
  0
VERTEX
  8
0
 10
3.37354
 20
4.39936
 30
0.0
 40
0.0104167
 41
0.0104167
  0
VERTEX
  8
0
 10
3.37354
 20
4.38108
 30
0.0
 40
0.0104167
 41
0.0104167
  0
VERTEX
  8
0
 10
3.36176
 20
4.32622
 30
0.0
 40
0.0104167
 41
0.0104167
  0
VERTEX
  8
0
 10
3.33078
 20
4.27219
 30
0.0
 40
0.0104167
 41
0.0104167
  0
VERTEX
  8
0
 10
3.28694
 20
4.23438
 30
0.0
 40
0.0104167
 41
0.0104167
  0
VERTEX
  8
0
 10
3.23676
 20
4.2099
 30
0.0
 40
0.0104167
 41
0.0104167
  0
VERTEX
  8
0
 10
3.18653
 20
4.1959
 30
0.0
 40
0.0104167
 41
0.0104167
  0
VERTEX
  8
0
 10
3.14268
 20
4.18951
 30
0.0
 40
0.0104167
 41
0.0104167
  0
VERTEX
  8
0
 10
3.11171
 20
4.18778
 30
0.0
 40
0.0104167
 41
0.0104167
  0
VERTEX
  8
0
 10
3.09999
 20
4.18782
 30
0.0
 40
0.0104167
 41
0.0104167
  0
VERTEX
  8
0
 10
3.09999
 20
4.18782
 30
0.0
 40
0.0104167
 41
0.0104167
  0
VERTEX
  8
0
 10
2.83165
 20
4.18679
 30
0.0
 40
0.0104167
 41
0.0104167
  0
VERTEX
  8
0
 10
2.83165
 20
4.60335
 30
0.0
 40
0.0104167
 41
0.0104167
  0
VERTEX
  8
0
 10
3.09999
 20
4.60335
 30
0.0
 40
0.0104167
 41
0.0104167
  0
SEQEND
 8
0
  0
POLYLINE
  8
0
 62
     7
 66
     1
 10
0
 20
0
 30
0.0
 70
     1
 40
0
 41
0
  0
VERTEX
  8
0
 10
2.72222
 20
4.42822
 30
0.0
 40
0
 41
0
  0
VERTEX
  8
0
 10
2.75379
 20
4.42822
 30
0.0
 40
0
 41
0
  0
VERTEX
  8
0
 10
2.75379
 20
4.36199
 30
0.0
 40
0
 41
0
  0
VERTEX
  8
0
 10
2.72222
 20
4.36199
 30
0.0
 40
0
 41
0
  0
VERTEX
  8
0
 10
2.72222
 20
4.42822
 30
0.0
 40
0
 41
0
  0
SEQEND
 8
0
  0
POLYLINE
  8
0
 62
     0
 66
     1
 10
0
 20
0
 30
0.0
 70
     1
 40
0.75
 41
0.75
  0
VERTEX
  8
0
 10
2.72222
 20
4.42822
 30
0.0
 40
0.0104167
 41
0.0104167
  0
VERTEX
  8
0
 10
2.72222
 20
4.36199
 30
0.0
 40
0.0104167
 41
0.0104167
  0
VERTEX
  8
0
 10
2.75379
 20
4.36199
 30
0.0
 40
0.0104167
 41
0.0104167
  0
VERTEX
  8
0
 10
2.75379
 20
4.42822
 30
0.0
 40
0.0104167
 41
0.0104167
  0
VERTEX
  8
0
 10
2.72222
 20
4.42822
 30
0.0
 40
0.0104167
 41
0.0104167
  0
SEQEND
 8
0
  0
POLYLINE
  8
0
 62
     7
 66
     1
 10
0
 20
0
 30
0.0
 70
     1
 40
0
 41
0
  0
VERTEX
  8
0
 10
3.11025
 20
3.13476
 30
0.0
 40
0
 41
0
  0
VERTEX
  8
0
 10
3.22694
 20
3.13476
 30
0.0
 40
0
 41
0
  0
VERTEX
  8
0
 10
3.22694
 20
3.07124
 30
0.0
 40
0
 41
0
  0
VERTEX
  8
0
 10
3.11025
 20
3.07124
 30
0.0
 40
0
 41
0
  0
VERTEX
  8
0
 10
3.11025
 20
3.13476
 30
0.0
 40
0
 41
0
  0
SEQEND
 8
0
  0
POLYLINE
  8
0
 62
     0
 66
     1
 10
0
 20
0
 30
0.0
 70
     1
 40
0.75
 41
0.75
  0
VERTEX
  8
0
 10
3.11025
 20
3.13476
 30
0.0
 40
0.0104167
 41
0.0104167
  0
VERTEX
  8
0
 10
3.22694
 20
3.13476
 30
0.0
 40
0.0104167
 41
0.0104167
  0
VERTEX
  8
0
 10
3.22694
 20
3.07124
 30
0.0
 40
0.0104167
 41
0.0104167
  0
VERTEX
  8
0
 10
3.11025
 20
3.07124
 30
0.0
 40
0.0104167
 41
0.0104167
  0
VERTEX
  8
0
 10
3.11025
 20
3.13476
 30
0.0
 40
0.0104167
 41
0.0104167
  0
SEQEND
 8
0
  0
POLYLINE
  8
0
 62
     7
 66
     1
 10
0
 20
0
 30
0.0
 70
     1
 40
0
 41
0
  0
VERTEX
  8
0
 10
2.9655
 20
3.13476
 30
0.0
 40
0
 41
0
  0
VERTEX
  8
0
 10
3.08214
 20
3.13476
 30
0.0
 40
0
 41
0
  0
VERTEX
  8
0
 10
3.08214
 20
3.07124
 30
0.0
 40
0
 41
0
  0
VERTEX
  8
0
 10
2.9655
 20
3.07124
 30
0.0
 40
0
 41
0
  0
VERTEX
  8
0
 10
2.9655
 20
3.13476
 30
0.0
 40
0
 41
0
  0
SEQEND
 8
0
  0
POLYLINE
  8
0
 62
     0
 66
     1
 10
0
 20
0
 30
0.0
 70
     1
 40
0.75
 41
0.75
  0
VERTEX
  8
0
 10
2.9655
 20
3.13476
 30
0.0
 40
0.0104167
 41
0.0104167
  0
VERTEX
  8
0
 10
3.08214
 20
3.13476
 30
0.0
 40
0.0104167
 41
0.0104167
  0
VERTEX
  8
0
 10
3.08214
 20
3.07124
 30
0.0
 40
0.0104167
 41
0.0104167
  0
VERTEX
  8
0
 10
2.9655
 20
3.07124
 30
0.0
 40
0.0104167
 41
0.0104167
  0
VERTEX
  8
0
 10
2.9655
 20
3.13476
 30
0.0
 40
0.0104167
 41
0.0104167
  0
SEQEND
 8
0
  0
POLYLINE
  8
0
 62
     7
 66
     1
 10
0
 20
0
 30
0.0
 70
     1
 40
0
 41
0
  0
VERTEX
  8
0
 10
2.9311
 20
3.13476
 30
0.0
 40
0
 41
0
  0
VERTEX
  8
0
 10
2.96653
 20
3.13476
 30
0.0
 40
0
 41
0
  0
VERTEX
  8
0
 10
2.96653
 20
3.07124
 30
0.0
 40
0
 41
0
  0
VERTEX
  8
0
 10
2.9311
 20
3.07124
 30
0.0
 40
0
 41
0
  0
VERTEX
  8
0
 10
2.9311
 20
3.13476
 30
0.0
 40
0
 41
0
  0
SEQEND
 8
0
  0
POLYLINE
  8
0
 62
     0
 66
     1
 10
0
 20
0
 30
0.0
 70
     1
 40
0.75
 41
0.75
  0
VERTEX
  8
0
 10
2.9311
 20
3.13476
 30
0.0
 40
0.0104167
 41
0.0104167
  0
VERTEX
  8
0
 10
2.96653
 20
3.13476
 30
0.0
 40
0.0104167
 41
0.0104167
  0
VERTEX
  8
0
 10
2.96653
 20
3.07124
 30
0.0
 40
0.0104167
 41
0.0104167
  0
VERTEX
  8
0
 10
2.9311
 20
3.07124
 30
0.0
 40
0.0104167
 41
0.0104167
  0
VERTEX
  8
0
 10
2.9311
 20
3.13476
 30
0.0
 40
0.0104167
 41
0.0104167
  0
SEQEND
 8
0
  0
POLYLINE
  8
0
 62
     7
 66
     1
 10
0
 20
0
 30
0.0
 70
     1
 40
0
 41
0
  0
VERTEX
  8
0
 10
3.22694
 20
3.13476
 30
0.0
 40
0
 41
0
  0
VERTEX
  8
0
 10
3.26025
 20
3.13476
 30
0.0
 40
0
 41
0
  0
VERTEX
  8
0
 10
3.26025
 20
3.07124
 30
0.0
 40
0
 41
0
  0
VERTEX
  8
0
 10
3.22694
 20
3.07124
 30
0.0
 40
0
 41
0
  0
VERTEX
  8
0
 10
3.22694
 20
3.13476
 30
0.0
 40
0
 41
0
  0
SEQEND
 8
0
  0
POLYLINE
  8
0
 62
     0
 66
     1
 10
0
 20
0
 30
0.0
 70
     1
 40
0.75
 41
0.75
  0
VERTEX
  8
0
 10
3.22694
 20
3.13476
 30
0.0
 40
0.0104167
 41
0.0104167
  0
VERTEX
  8
0
 10
3.26025
 20
3.13476
 30
0.0
 40
0.0104167
 41
0.0104167
  0
VERTEX
  8
0
 10
3.26025
 20
3.07124
 30
0.0
 40
0.0104167
 41
0.0104167
  0
VERTEX
  8
0
 10
3.22694
 20
3.07124
 30
0.0
 40
0.0104167
 41
0.0104167
  0
VERTEX
  8
0
 10
3.22694
 20
3.13476
 30
0.0
 40
0.0104167
 41
0.0104167
  0
SEQEND
 8
0
  0
POLYLINE
  8
0
 62
     7
 66
     1
 10
0
 20
0
 30
0.0
 70
     1
 40
0
 41
0
  0
VERTEX
  8
0
 10
3.11025
 20
3.15457
 30
0.0
 40
0
 41
0
  0
VERTEX
  8
0
 10
3.11025
 20
3.16092
 30
0.0
 40
0
 41
0
  0
VERTEX
  8
0
 10
3.11388
 20
3.17985
 30
0.0
 40
0
 41
0
  0
VERTEX
  8
0
 10
3.12381
 20
3.20226
 30
0.0
 40
0
 41
0
  0
VERTEX
  8
0
 10
3.12696
 20
3.20665
 30
0.0
 40
0
 41
0
  0
VERTEX
  8
0
 10
3.12799
 20
3.20822
 30
0.0
 40
0
 41
0
  0
VERTEX
  8
0
 10
3.13813
 20
3.22282
 30
0.0
 40
0
 41
0
  0
VERTEX
  8
0
 10
3.1384
 20
3.22433
 30
0.0
 40
0
 41
0
  0
VERTEX
  8
0
 10
3.13889
 20
3.22721
 30
0.0
 40
0
 41
0
  0
VERTEX
  8
0
 10
3.13471
 20
3.24382
 30
0.0
 40
0
 41
0
  0
VERTEX
  8
0
 10
3.11806
 20
3.25667
 30
0.0
 40
0
 41
0
  0
VERTEX
  8
0
 10
3.11236
 20
3.25771
 30
0.0
 40
0
 41
0
  0
VERTEX
  8
0
 10
3.11106
 20
3.25797
 30
0.0
 40
0
 41
0
  0
VERTEX
  8
0
 10
3.0995
 20
3.25874
 30
0.0
 40
0
 41
0
  0
VERTEX
  8
0
 10
3.09571
 20
3.25874
 30
0.0
 40
0
 41
0
  0
VERTEX
  8
0
 10
3.09674
 20
3.25874
 30
0.0
 40
0
 41
0
  0
VERTEX
  8
0
 10
3.09256
 20
3.25874
 30
0.0
 40
0
 41
0
  0
VERTEX
  8
0
 10
3.08137
 20
3.25797
 30
0.0
 40
0
 41
0
  0
VERTEX
  8
0
 10
3.08008
 20
3.25771
 30
0.0
 40
0
 41
0
  0
VERTEX
  8
0
 10
3.07433
 20
3.25667
 30
0.0
 40
0
 41
0
  0
VERTEX
  8
0
 10
3.05761
 20
3.24382
 30
0.0
 40
0
 41
0
  0
VERTEX
  8
0
 10
3.0535
 20
3.22721
 30
0.0
 40
0
 41
0
  0
VERTEX
  8
0
 10
3.05404
 20
3.22433
 30
0.0
 40
0
 41
0
  0
VERTEX
  8
0
 10
3.05425
 20
3.22282
 30
0.0
 40
0
 41
0
  0
VERTEX
  8
0
 10
3.0644
 20
3.20822
 30
0.0
 40
0
 41
0
  0
VERTEX
  8
0
 10
3.06549
 20
3.20665
 30
0.0
 40
0
 41
0
  0
VERTEX
  8
0
 10
3.06858
 20
3.20226
 30
0.0
 40
0
 41
0
  0
VERTEX
  8
0
 10
3.07844
 20
3.17985
 30
0.0
 40
0
 41
0
  0
VERTEX
  8
0
 10
3.08214
 20
3.16092
 30
0.0
 40
0
 41
0
  0
VERTEX
  8
0
 10
3.08214
 20
3.15457
 30
0.0
 40
0
 41
0
  0
SEQEND
 8
0
  0
POLYLINE
  8
0
 62
     0
 66
     1
 10
0
 20
0
 30
0.0
 40
0.75
 41
0.75
  0
VERTEX
  8
0
 10
3.11025
 20
3.15457
 30
0.0
 40
0.0104167
 41
0.0104167
  0
VERTEX
  8
0
 10
3.11025
 20
3.16092
 30
0.0
 40
0.0104167
 41
0.0104167
  0
VERTEX
  8
0
 10
3.11388
 20
3.17985
 30
0.0
 40
0.0104167
 41
0.0104167
  0
VERTEX
  8
0
 10
3.12381
 20
3.20226
 30
0.0
 40
0.0104167
 41
0.0104167
  0
VERTEX
  8
0
 10
3.12696
 20
3.20665
 30
0.0
 40
0.0104167
 41
0.0104167
  0
VERTEX
  8
0
 10
3.12799
 20
3.20822
 30
0.0
 40
0.0104167
 41
0.0104167
  0
VERTEX
  8
0
 10
3.13813
 20
3.22282
 30
0.0
 40
0.0104167
 41
0.0104167
  0
VERTEX
  8
0
 10
3.1384
 20
3.22433
 30
0.0
 40
0.0104167
 41
0.0104167
  0
VERTEX
  8
0
 10
3.13889
 20
3.22721
 30
0.0
 40
0.0104167
 41
0.0104167
  0
VERTEX
  8
0
 10
3.13471
 20
3.24382
 30
0.0
 40
0.0104167
 41
0.0104167
  0
VERTEX
  8
0
 10
3.11806
 20
3.25667
 30
0.0
 40
0.0104167
 41
0.0104167
  0
VERTEX
  8
0
 10
3.11236
 20
3.25771
 30
0.0
 40
0.0104167
 41
0.0104167
  0
VERTEX
  8
0
 10
3.11106
 20
3.25797
 30
0.0
 40
0.0104167
 41
0.0104167
  0
VERTEX
  8
0
 10
3.0995
 20
3.25874
 30
0.0
 40
0.0104167
 41
0.0104167
  0
VERTEX
  8
0
 10
3.09571
 20
3.25874
 30
0.0
 40
0.0104167
 41
0.0104167
  0
VERTEX
  8
0
 10
3.09674
 20
3.25874
 30
0.0
 40
0.0104167
 41
0.0104167
  0
VERTEX
  8
0
 10
3.09256
 20
3.25874
 30
0.0
 40
0.0104167
 41
0.0104167
  0
VERTEX
  8
0
 10
3.08137
 20
3.25797
 30
0.0
 40
0.0104167
 41
0.0104167
  0
VERTEX
  8
0
 10
3.08008
 20
3.25771
 30
0.0
 40
0.0104167
 41
0.0104167
  0
VERTEX
  8
0
 10
3.07433
 20
3.25667
 30
0.0
 40
0.0104167
 41
0.0104167
  0
VERTEX
  8
0
 10
3.05761
 20
3.24382
 30
0.0
 40
0.0104167
 41
0.0104167
  0
VERTEX
  8
0
 10
3.0535
 20
3.22721
 30
0.0
 40
0.0104167
 41
0.0104167
  0
VERTEX
  8
0
 10
3.05404
 20
3.22433
 30
0.0
 40
0.0104167
 41
0.0104167
  0
VERTEX
  8
0
 10
3.05425
 20
3.22282
 30
0.0
 40
0.0104167
 41
0.0104167
  0
VERTEX
  8
0
 10
3.0644
 20
3.20822
 30
0.0
 40
0.0104167
 41
0.0104167
  0
VERTEX
  8
0
 10
3.06549
 20
3.20665
 30
0.0
 40
0.0104167
 41
0.0104167
  0
VERTEX
  8
0
 10
3.06858
 20
3.20226
 30
0.0
 40
0.0104167
 41
0.0104167
  0
VERTEX
  8
0
 10
3.07844
 20
3.17985
 30
0.0
 40
0.0104167
 41
0.0104167
  0
VERTEX
  8
0
 10
3.08214
 20
3.16092
 30
0.0
 40
0.0104167
 41
0.0104167
  0
VERTEX
  8
0
 10
3.08214
 20
3.15457
 30
0.0
 40
0.0104167
 41
0.0104167
  0
SEQEND
 8
0
  0
POLYLINE
  8
0
 62
     7
 66
     1
 10
0
 20
0
 30
0.0
 70
     1
 40
0
 41
0
  0
VERTEX
  8
0
 10
3.1384
 20
3.22542
 30
0.0
 40
0
 41
0
  0
VERTEX
  8
0
 10
3.13813
 20
3.22597
 30
0.0
 40
0
 41
0
  0
VERTEX
  8
0
 10
3.12625
 20
3.23611
 30
0.0
 40
0
 41
0
  0
VERTEX
  8
0
 10
3.10249
 20
3.24517
 30
0.0
 40
0
 41
0
  0
VERTEX
  8
0
 10
3.09463
 20
3.24517
 30
0.0
 40
0
 41
0
  0
VERTEX
  8
0
 10
3.08838
 20
3.24496
 30
0.0
 40
0
 41
0
  0
VERTEX
  8
0
 10
3.06569
 20
3.23574
 30
0.0
 40
0
 41
0
  0
VERTEX
  8
0
 10
3.05453
 20
3.22597
 30
0.0
 40
0
 41
0
  0
VERTEX
  8
0
 10
3.05404
 20
3.22542
 30
0.0
 40
0
 41
0
  0
SEQEND
 8
0
  0
POLYLINE
  8
0
 62
     0
 66
     1
 10
0
 20
0
 30
0.0
 40
0.75
 41
0.75
  0
VERTEX
  8
0
 10
3.1384
 20
3.22542
 30
0.0
 40
0.0104167
 41
0.0104167
  0
VERTEX
  8
0
 10
3.13813
 20
3.22597
 30
0.0
 40
0.0104167
 41
0.0104167
  0
VERTEX
  8
0
 10
3.12625
 20
3.23611
 30
0.0
 40
0.0104167
 41
0.0104167
  0
VERTEX
  8
0
 10
3.10249
 20
3.24517
 30
0.0
 40
0.0104167
 41
0.0104167
  0
VERTEX
  8
0
 10
3.09463
 20
3.24517
 30
0.0
 40
0.0104167
 41
0.0104167
  0
VERTEX
  8
0
 10
3.08838
 20
3.24496
 30
0.0
 40
0.0104167
 41
0.0104167
  0
VERTEX
  8
0
 10
3.06569
 20
3.23574
 30
0.0
 40
0.0104167
 41
0.0104167
  0
VERTEX
  8
0
 10
3.05453
 20
3.22597
 30
0.0
 40
0.0104167
 41
0.0104167
  0
VERTEX
  8
0
 10
3.05404
 20
3.22542
 30
0.0
 40
0.0104167
 41
0.0104167
  0
SEQEND
 8
0
  0
POLYLINE
  8
0
 62
     7
 66
     1
 10
0
 20
0
 30
0.0
 70
     1
 40
0
 41
0
  0
VERTEX
  8
0
 10
3.11025
 20
3.07124
 30
0.0
 40
0
 41
0
  0
VERTEX
  8
0
 10
3.08214
 20
3.07124
 30
0.0
 40
0
 41
0
  0
VERTEX
  8
0
 10
3.08214
 20
3.15457
 30
0.0
 40
0
 41
0
  0
VERTEX
  8
0
 10
3.08914
 20
3.15457
 30
0.0
 40
0
 41
0
  0
VERTEX
  8
0
 10
3.10493
 20
3.15457
 30
0.0
 40
0
 41
0
  0
VERTEX
  8
0
 10
3.11025
 20
3.15457
 30
0.0
 40
0
 41
0
  0
VERTEX
  8
0
 10
3.11025
 20
3.13374
 30
0.0
 40
0
 41
0
  0
VERTEX
  8
0
 10
3.11025
 20
3.08686
 30
0.0
 40
0
 41
0
  0
VERTEX
  8
0
 10
3.11025
 20
3.07124
 30
0.0
 40
0
 41
0
  0
SEQEND
 8
0
  0
POLYLINE
  8
0
 62
     0
 66
     1
 10
0
 20
0
 30
0.0
 70
     1
 40
0.75
 41
0.75
  0
VERTEX
  8
0
 10
3.11025
 20
3.07124
 30
0.0
 40
0.0104167
 41
0.0104167
  0
VERTEX
  8
0
 10
3.08214
 20
3.07124
 30
0.0
 40
0.0104167
 41
0.0104167
  0
VERTEX
  8
0
 10
3.08214
 20
3.15457
 30
0.0
 40
0.0104167
 41
0.0104167
  0
VERTEX
  8
0
 10
3.08914
 20
3.15457
 30
0.0
 40
0.0104167
 41
0.0104167
  0
VERTEX
  8
0
 10
3.10493
 20
3.15457
 30
0.0
 40
0.0104167
 41
0.0104167
  0
VERTEX
  8
0
 10
3.11025
 20
3.15457
 30
0.0
 40
0.0104167
 41
0.0104167
  0
VERTEX
  8
0
 10
3.11025
 20
3.13374
 30
0.0
 40
0.0104167
 41
0.0104167
  0
VERTEX
  8
0
 10
3.11025
 20
3.08686
 30
0.0
 40
0.0104167
 41
0.0104167
  0
VERTEX
  8
0
 10
3.11025
 20
3.07124
 30
0.0
 40
0.0104167
 41
0.0104167
  0
SEQEND
 8
0
  0
POLYLINE
  8
0
 62
     7
 66
     1
 10
0
 20
0
 30
0.0
 70
     1
 40
0
 41
0
  0
VERTEX
  8
0
 10
3.22694
 20
3.10351
 30
0.0
 40
0
 41
0
  0
VERTEX
  8
0
 10
3.22368
 20
3.10232
 30
0.0
 40
0
 41
0
  0
VERTEX
  8
0
 10
3.21403
 20
3.09847
 30
0.0
 40
0
 41
0
  0
VERTEX
  8
0
 10
3.21132
 20
3.09728
 30
0.0
 40
0
 41
0
  0
VERTEX
  8
0
 10
3.21132
 20
3.09728
 30
0.0
 40
0
 41
0
  0
VERTEX
  8
0
 10
3.21132
 20
3.09874
 30
0.0
 40
0
 41
0
  0
VERTEX
  8
0
 10
3.21132
 20
3.10303
 30
0.0
 40
0
 41
0
  0
VERTEX
  8
0
 10
3.21132
 20
3.10732
 30
0.0
 40
0
 41
0
  0
VERTEX
  8
0
 10
3.21132
 20
3.10872
 30
0.0
 40
0
 41
0
  0
VERTEX
  8
0
 10
3.21132
 20
3.10872
 30
0.0
 40
0
 41
0
  0
VERTEX
  8
0
 10
3.21365
 20
3.10807
 30
0.0
 40
0
 41
0
  0
VERTEX
  8
0
 10
3.22364
 20
3.10471
 30
0.0
 40
0
 41
0
  0
VERTEX
  8
0
 10
3.22694
 20
3.10351
 30
0.0
 40
0
 41
0
  0
SEQEND
 8
0
  0
POLYLINE
  8
0
 62
     0
 66
     1
 10
0
 20
0
 30
0.0
 70
     1
 40
0.75
 41
0.75
  0
VERTEX
  8
0
 10
3.22694
 20
3.10351
 30
0.0
 40
0.0104167
 41
0.0104167
  0
VERTEX
  8
0
 10
3.22368
 20
3.10232
 30
0.0
 40
0.0104167
 41
0.0104167
  0
VERTEX
  8
0
 10
3.21403
 20
3.09847
 30
0.0
 40
0.0104167
 41
0.0104167
  0
VERTEX
  8
0
 10
3.21132
 20
3.09728
 30
0.0
 40
0.0104167
 41
0.0104167
  0
VERTEX
  8
0
 10
3.21132
 20
3.09728
 30
0.0
 40
0.0104167
 41
0.0104167
  0
VERTEX
  8
0
 10
3.21132
 20
3.09874
 30
0.0
 40
0.0104167
 41
0.0104167
  0
VERTEX
  8
0
 10
3.21132
 20
3.10303
 30
0.0
 40
0.0104167
 41
0.0104167
  0
VERTEX
  8
0
 10
3.21132
 20
3.10732
 30
0.0
 40
0.0104167
 41
0.0104167
  0
VERTEX
  8
0
 10
3.21132
 20
3.10872
 30
0.0
 40
0.0104167
 41
0.0104167
  0
VERTEX
  8
0
 10
3.21132
 20
3.10872
 30
0.0
 40
0.0104167
 41
0.0104167
  0
VERTEX
  8
0
 10
3.21365
 20
3.10807
 30
0.0
 40
0.0104167
 41
0.0104167
  0
VERTEX
  8
0
 10
3.22364
 20
3.10471
 30
0.0
 40
0.0104167
 41
0.0104167
  0
VERTEX
  8
0
 10
3.22694
 20
3.10351
 30
0.0
 40
0.0104167
 41
0.0104167
  0
SEQEND
 8
0
  0
POLYLINE
  8
0
 62
     7
 66
     1
 10
0
 20
0
 30
0.0
 70
     1
 40
0
 41
0
  0
VERTEX
  8
0
 10
2.96653
 20
3.10351
 30
0.0
 40
0
 41
0
  0
VERTEX
  8
0
 10
2.96972
 20
3.10232
 30
0.0
 40
0
 41
0
  0
VERTEX
  8
0
 10
2.97939
 20
3.09847
 30
0.0
 40
0
 41
0
  0
VERTEX
  8
0
 10
2.98215
 20
3.09728
 30
0.0
 40
0
 41
0
  0
VERTEX
  8
0
 10
2.98215
 20
3.09728
 30
0.0
 40
0
 41
0
  0
VERTEX
  8
0
 10
2.98215
 20
3.09874
 30
0.0
 40
0
 41
0
  0
VERTEX
  8
0
 10
2.98215
 20
3.10303
 30
0.0
 40
0
 41
0
  0
VERTEX
  8
0
 10
2.98215
 20
3.10732
 30
0.0
 40
0
 41
0
  0
VERTEX
  8
0
 10
2.98215
 20
3.10872
 30
0.0
 40
0
 41
0
  0
VERTEX
  8
0
 10
2.98215
 20
3.10872
 30
0.0
 40
0
 41
0
  0
VERTEX
  8
0
 10
2.97976
 20
3.10807
 30
0.0
 40
0
 41
0
  0
VERTEX
  8
0
 10
2.96978
 20
3.10471
 30
0.0
 40
0
 41
0
  0
VERTEX
  8
0
 10
2.96653
 20
3.10351
 30
0.0
 40
0
 41
0
  0
SEQEND
 8
0
  0
POLYLINE
  8
0
 62
     0
 66
     1
 10
0
 20
0
 30
0.0
 70
     1
 40
0.75
 41
0.75
  0
VERTEX
  8
0
 10
2.96653
 20
3.10351
 30
0.0
 40
0.0104167
 41
0.0104167
  0
VERTEX
  8
0
 10
2.96972
 20
3.10232
 30
0.0
 40
0.0104167
 41
0.0104167
  0
VERTEX
  8
0
 10
2.97939
 20
3.09847
 30
0.0
 40
0.0104167
 41
0.0104167
  0
VERTEX
  8
0
 10
2.98215
 20
3.09728
 30
0.0
 40
0.0104167
 41
0.0104167
  0
VERTEX
  8
0
 10
2.98215
 20
3.09728
 30
0.0
 40
0.0104167
 41
0.0104167
  0
VERTEX
  8
0
 10
2.98215
 20
3.09874
 30
0.0
 40
0.0104167
 41
0.0104167
  0
VERTEX
  8
0
 10
2.98215
 20
3.10303
 30
0.0
 40
0.0104167
 41
0.0104167
  0
VERTEX
  8
0
 10
2.98215
 20
3.10732
 30
0.0
 40
0.0104167
 41
0.0104167
  0
VERTEX
  8
0
 10
2.98215
 20
3.10872
 30
0.0
 40
0.0104167
 41
0.0104167
  0
VERTEX
  8
0
 10
2.98215
 20
3.10872
 30
0.0
 40
0.0104167
 41
0.0104167
  0
VERTEX
  8
0
 10
2.97976
 20
3.10807
 30
0.0
 40
0.0104167
 41
0.0104167
  0
VERTEX
  8
0
 10
2.96978
 20
3.10471
 30
0.0
 40
0.0104167
 41
0.0104167
  0
VERTEX
  8
0
 10
2.96653
 20
3.10351
 30
0.0
 40
0.0104167
 41
0.0104167
  0
SEQEND
 8
0
  0
POLYLINE
  8
0
 62
     7
 66
     1
 10
0
 20
0
 30
0.0
 70
     1
 40
0
 41
0
  0
VERTEX
  8
0
 10
2.67008
 20
2.05029
 30
0.0
 40
0
 41
0
  0
VERTEX
  8
0
 10
4.44499
 20
2.05029
 30
0.0
 40
0
 41
0
  0
VERTEX
  8
0
 10
4.44499
 20
1.54172
 30
0.0
 40
0
 41
0
  0
VERTEX
  8
0
 10
2.67008
 20
1.54172
 30
0.0
 40
0
 41
0
  0
VERTEX
  8
0
 10
2.67008
 20
2.05029
 30
0.0
 40
0
 41
0
  0
SEQEND
 8
0
  0
POLYLINE
  8
0
 62
     0
 66
     1
 10
0
 20
0
 30
0.0
 70
     1
 40
0.75
 41
0.75
  0
VERTEX
  8
0
 10
2.67008
 20
2.05029
 30
0.0
 40
0.0104167
 41
0.0104167
  0
VERTEX
  8
0
 10
4.44499
 20
2.05029
 30
0.0
 40
0.0104167
 41
0.0104167
  0
VERTEX
  8
0
 10
4.44499
 20
1.54172
 30
0.0
 40
0.0104167
 41
0.0104167
  0
VERTEX
  8
0
 10
2.67008
 20
1.54172
 30
0.0
 40
0.0104167
 41
0.0104167
  0
VERTEX
  8
0
 10
2.67008
 20
2.05029
 30
0.0
 40
0.0104167
 41
0.0104167
  0
SEQEND
 8
0
  0
POLYLINE
  8
0
 62
     253
 66
     1
 10
0
 20
0
 30
0.0
 40
0.375
 41
0.375
  0
VERTEX
  8
0
 10
4.44499
 20
1.57563
 30
0.0
 40
0.00520833
 41
0.00520833
  0
VERTEX
  8
0
 10
2.67008
 20
1.57563
 30
0.0
 40
0.00520833
 41
0.00520833
  0
SEQEND
 8
0
  0
POLYLINE
  8
0
 62
     253
 66
     1
 10
0
 20
0
 30
0.0
 40
0.375
 41
0.375
  0
VERTEX
  8
0
 10
4.44499
 20
1.60954
 30
0.0
 40
0.00520833
 41
0.00520833
  0
VERTEX
  8
0
 10
2.67008
 20
1.60954
 30
0.0
 40
0.00520833
 41
0.00520833
  0
SEQEND
 8
0
  0
POLYLINE
  8
0
 62
     253
 66
     1
 10
0
 20
0
 30
0.0
 40
0.375
 41
0.375
  0
VERTEX
  8
0
 10
4.44499
 20
1.64344
 30
0.0
 40
0.00520833
 41
0.00520833
  0
VERTEX
  8
0
 10
2.67008
 20
1.64344
 30
0.0
 40
0.00520833
 41
0.00520833
  0
SEQEND
 8
0
  0
POLYLINE
  8
0
 62
     253
 66
     1
 10
0
 20
0
 30
0.0
 40
0.375
 41
0.375
  0
VERTEX
  8
0
 10
4.44499
 20
1.67736
 30
0.0
 40
0.00520833
 41
0.00520833
  0
VERTEX
  8
0
 10
2.67008
 20
1.67736
 30
0.0
 40
0.00520833
 41
0.00520833
  0
SEQEND
 8
0
  0
POLYLINE
  8
0
 62
     253
 66
     1
 10
0
 20
0
 30
0.0
 40
0.375
 41
0.375
  0
VERTEX
  8
0
 10
4.44499
 20
1.71126
 30
0.0
 40
0.00520833
 41
0.00520833
  0
VERTEX
  8
0
 10
2.67008
 20
1.71126
 30
0.0
 40
0.00520833
 41
0.00520833
  0
SEQEND
 8
0
  0
POLYLINE
  8
0
 62
     253
 66
     1
 10
0
 20
0
 30
0.0
 40
0.375
 41
0.375
  0
VERTEX
  8
0
 10
4.44499
 20
1.74517
 30
0.0
 40
0.00520833
 41
0.00520833
  0
VERTEX
  8
0
 10
2.67008
 20
1.74517
 30
0.0
 40
0.00520833
 41
0.00520833
  0
SEQEND
 8
0
  0
POLYLINE
  8
0
 62
     253
 66
     1
 10
0
 20
0
 30
0.0
 40
0.375
 41
0.375
  0
VERTEX
  8
0
 10
4.44499
 20
1.77908
 30
0.0
 40
0.00520833
 41
0.00520833
  0
VERTEX
  8
0
 10
2.67008
 20
1.77908
 30
0.0
 40
0.00520833
 41
0.00520833
  0
SEQEND
 8
0
  0
POLYLINE
  8
0
 62
     253
 66
     1
 10
0
 20
0
 30
0.0
 40
0.375
 41
0.375
  0
VERTEX
  8
0
 10
4.44499
 20
1.81299
 30
0.0
 40
0.00520833
 41
0.00520833
  0
VERTEX
  8
0
 10
2.67008
 20
1.81299
 30
0.0
 40
0.00520833
 41
0.00520833
  0
SEQEND
 8
0
  0
POLYLINE
  8
0
 62
     253
 66
     1
 10
0
 20
0
 30
0.0
 40
0.375
 41
0.375
  0
VERTEX
  8
0
 10
4.44499
 20
1.8469
 30
0.0
 40
0.00520833
 41
0.00520833
  0
VERTEX
  8
0
 10
2.67008
 20
1.8469
 30
0.0
 40
0.00520833
 41
0.00520833
  0
SEQEND
 8
0
  0
POLYLINE
  8
0
 62
     253
 66
     1
 10
0
 20
0
 30
0.0
 40
0.375
 41
0.375
  0
VERTEX
  8
0
 10
4.44499
 20
1.88081
 30
0.0
 40
0.00520833
 41
0.00520833
  0
VERTEX
  8
0
 10
2.67008
 20
1.88081
 30
0.0
 40
0.00520833
 41
0.00520833
  0
SEQEND
 8
0
  0
POLYLINE
  8
0
 62
     253
 66
     1
 10
0
 20
0
 30
0.0
 40
0.375
 41
0.375
  0
VERTEX
  8
0
 10
4.44499
 20
1.91471
 30
0.0
 40
0.00520833
 41
0.00520833
  0
VERTEX
  8
0
 10
2.67008
 20
1.91471
 30
0.0
 40
0.00520833
 41
0.00520833
  0
SEQEND
 8
0
  0
POLYLINE
  8
0
 62
     253
 66
     1
 10
0
 20
0
 30
0.0
 40
0.375
 41
0.375
  0
VERTEX
  8
0
 10
4.44499
 20
1.94862
 30
0.0
 40
0.00520833
 41
0.00520833
  0
VERTEX
  8
0
 10
2.67008
 20
1.94862
 30
0.0
 40
0.00520833
 41
0.00520833
  0
SEQEND
 8
0
  0
POLYLINE
  8
0
 62
     253
 66
     1
 10
0
 20
0
 30
0.0
 40
0.375
 41
0.375
  0
VERTEX
  8
0
 10
4.44499
 20
1.98253
 30
0.0
 40
0.00520833
 41
0.00520833
  0
VERTEX
  8
0
 10
2.67008
 20
1.98253
 30
0.0
 40
0.00520833
 41
0.00520833
  0
SEQEND
 8
0
  0
POLYLINE
  8
0
 62
     253
 66
     1
 10
0
 20
0
 30
0.0
 40
0.375
 41
0.375
  0
VERTEX
  8
0
 10
4.44499
 20
2.01644
 30
0.0
 40
0.00520833
 41
0.00520833
  0
VERTEX
  8
0
 10
2.67008
 20
2.01644
 30
0.0
 40
0.00520833
 41
0.00520833
  0
SEQEND
 8
0
  0
POLYLINE
  8
0
 62
     7
 66
     1
 10
0
 20
0
 30
0.0
 70
     1
 40
0
 41
0
  0
VERTEX
  8
0
 10
2.67008
 20
2.38938
 30
0.0
 40
0
 41
0
  0
VERTEX
  8
0
 10
4.44499
 20
2.38938
 30
0.0
 40
0
 41
0
  0
VERTEX
  8
0
 10
4.44499
 20
2.05035
 30
0.0
 40
0
 41
0
  0
VERTEX
  8
0
 10
2.67008
 20
2.05035
 30
0.0
 40
0
 41
0
  0
VERTEX
  8
0
 10
2.67008
 20
2.38938
 30
0.0
 40
0
 41
0
  0
SEQEND
 8
0
  0
POLYLINE
  8
0
 62
     0
 66
     1
 10
0
 20
0
 30
0.0
 70
     1
 40
0.75
 41
0.75
  0
VERTEX
  8
0
 10
2.67008
 20
2.38938
 30
0.0
 40
0.0104167
 41
0.0104167
  0
VERTEX
  8
0
 10
4.44499
 20
2.38938
 30
0.0
 40
0.0104167
 41
0.0104167
  0
VERTEX
  8
0
 10
4.44499
 20
2.05035
 30
0.0
 40
0.0104167
 41
0.0104167
  0
VERTEX
  8
0
 10
2.67008
 20
2.05035
 30
0.0
 40
0.0104167
 41
0.0104167
  0
VERTEX
  8
0
 10
2.67008
 20
2.38938
 30
0.0
 40
0.0104167
 41
0.0104167
  0
SEQEND
 8
0
  0
POLYLINE
  8
0
 62
     253
 66
     1
 10
0
 20
0
 30
0.0
 40
0.375
 41
0.375
  0
VERTEX
  8
0
 10
4.44499
 20
2.08421
 30
0.0
 40
0.00520833
 41
0.00520833
  0
VERTEX
  8
0
 10
2.67008
 20
2.08421
 30
0.0
 40
0.00520833
 41
0.00520833
  0
SEQEND
 8
0
  0
POLYLINE
  8
0
 62
     253
 66
     1
 10
0
 20
0
 30
0.0
 40
0.375
 41
0.375
  0
VERTEX
  8
0
 10
4.44499
 20
2.11811
 30
0.0
 40
0.00520833
 41
0.00520833
  0
VERTEX
  8
0
 10
2.67008
 20
2.11811
 30
0.0
 40
0.00520833
 41
0.00520833
  0
SEQEND
 8
0
  0
POLYLINE
  8
0
 62
     253
 66
     1
 10
0
 20
0
 30
0.0
 40
0.375
 41
0.375
  0
VERTEX
  8
0
 10
4.44499
 20
2.15201
 30
0.0
 40
0.00520833
 41
0.00520833
  0
VERTEX
  8
0
 10
2.67008
 20
2.15201
 30
0.0
 40
0.00520833
 41
0.00520833
  0
SEQEND
 8
0
  0
POLYLINE
  8
0
 62
     253
 66
     1
 10
0
 20
0
 30
0.0
 40
0.375
 41
0.375
  0
VERTEX
  8
0
 10
4.44499
 20
2.18593
 30
0.0
 40
0.00520833
 41
0.00520833
  0
VERTEX
  8
0
 10
2.67008
 20
2.18593
 30
0.0
 40
0.00520833
 41
0.00520833
  0
SEQEND
 8
0
  0
POLYLINE
  8
0
 62
     253
 66
     1
 10
0
 20
0
 30
0.0
 40
0.375
 41
0.375
  0
VERTEX
  8
0
 10
4.44499
 20
2.21983
 30
0.0
 40
0.00520833
 41
0.00520833
  0
VERTEX
  8
0
 10
2.67008
 20
2.21983
 30
0.0
 40
0.00520833
 41
0.00520833
  0
SEQEND
 8
0
  0
POLYLINE
  8
0
 62
     253
 66
     1
 10
0
 20
0
 30
0.0
 40
0.375
 41
0.375
  0
VERTEX
  8
0
 10
4.44499
 20
2.25375
 30
0.0
 40
0.00520833
 41
0.00520833
  0
VERTEX
  8
0
 10
2.67008
 20
2.25375
 30
0.0
 40
0.00520833
 41
0.00520833
  0
SEQEND
 8
0
  0
POLYLINE
  8
0
 62
     253
 66
     1
 10
0
 20
0
 30
0.0
 40
0.375
 41
0.375
  0
VERTEX
  8
0
 10
4.44499
 20
2.28765
 30
0.0
 40
0.00520833
 41
0.00520833
  0
VERTEX
  8
0
 10
2.67008
 20
2.28765
 30
0.0
 40
0.00520833
 41
0.00520833
  0
SEQEND
 8
0
  0
POLYLINE
  8
0
 62
     253
 66
     1
 10
0
 20
0
 30
0.0
 40
0.375
 41
0.375
  0
VERTEX
  8
0
 10
4.44499
 20
2.32156
 30
0.0
 40
0.00520833
 41
0.00520833
  0
VERTEX
  8
0
 10
2.67008
 20
2.32156
 30
0.0
 40
0.00520833
 41
0.00520833
  0
SEQEND
 8
0
  0
POLYLINE
  8
0
 62
     253
 66
     1
 10
0
 20
0
 30
0.0
 40
0.375
 41
0.375
  0
VERTEX
  8
0
 10
4.44499
 20
2.35547
 30
0.0
 40
0.00520833
 41
0.00520833
  0
VERTEX
  8
0
 10
2.67008
 20
2.35547
 30
0.0
 40
0.00520833
 41
0.00520833
  0
SEQEND
 8
0
  0
POLYLINE
  8
0
 62
     7
 66
     1
 10
0
 20
0
 30
0.0
 70
     1
 40
0
 41
0
  0
VERTEX
  8
0
 10
3.57194
 20
2.72846
 30
0.0
 40
0
 41
0
  0
VERTEX
  8
0
 10
4.44499
 20
2.72846
 30
0.0
 40
0
 41
0
  0
VERTEX
  8
0
 10
4.44499
 20
2.38938
 30
0.0
 40
0
 41
0
  0
VERTEX
  8
0
 10
3.57194
 20
2.38938
 30
0.0
 40
0
 41
0
  0
VERTEX
  8
0
 10
3.57194
 20
2.72846
 30
0.0
 40
0
 41
0
  0
SEQEND
 8
0
  0
POLYLINE
  8
0
 62
     0
 66
     1
 10
0
 20
0
 30
0.0
 70
     1
 40
0.75
 41
0.75
  0
VERTEX
  8
0
 10
3.57194
 20
2.72846
 30
0.0
 40
0.0104167
 41
0.0104167
  0
VERTEX
  8
0
 10
4.44499
 20
2.72846
 30
0.0
 40
0.0104167
 41
0.0104167
  0
VERTEX
  8
0
 10
4.44499
 20
2.38938
 30
0.0
 40
0.0104167
 41
0.0104167
  0
VERTEX
  8
0
 10
3.57194
 20
2.38938
 30
0.0
 40
0.0104167
 41
0.0104167
  0
VERTEX
  8
0
 10
3.57194
 20
2.72846
 30
0.0
 40
0.0104167
 41
0.0104167
  0
SEQEND
 8
0
  0
POLYLINE
  8
0
 62
     253
 66
     1
 10
0
 20
0
 30
0.0
 40
0.375
 41
0.375
  0
VERTEX
  8
0
 10
4.44499
 20
2.42329
 30
0.0
 40
0.00520833
 41
0.00520833
  0
VERTEX
  8
0
 10
3.57194
 20
2.42329
 30
0.0
 40
0.00520833
 41
0.00520833
  0
SEQEND
 8
0
  0
POLYLINE
  8
0
 62
     253
 66
     1
 10
0
 20
0
 30
0.0
 40
0.375
 41
0.375
  0
VERTEX
  8
0
 10
4.44499
 20
2.45719
 30
0.0
 40
0.00520833
 41
0.00520833
  0
VERTEX
  8
0
 10
3.57194
 20
2.45719
 30
0.0
 40
0.00520833
 41
0.00520833
  0
SEQEND
 8
0
  0
POLYLINE
  8
0
 62
     253
 66
     1
 10
0
 20
0
 30
0.0
 40
0.375
 41
0.375
  0
VERTEX
  8
0
 10
4.44499
 20
2.4911
 30
0.0
 40
0.00520833
 41
0.00520833
  0
VERTEX
  8
0
 10
3.57194
 20
2.4911
 30
0.0
 40
0.00520833
 41
0.00520833
  0
SEQEND
 8
0
  0
POLYLINE
  8
0
 62
     253
 66
     1
 10
0
 20
0
 30
0.0
 40
0.375
 41
0.375
  0
VERTEX
  8
0
 10
4.44499
 20
2.52501
 30
0.0
 40
0.00520833
 41
0.00520833
  0
VERTEX
  8
0
 10
3.57194
 20
2.52501
 30
0.0
 40
0.00520833
 41
0.00520833
  0
SEQEND
 8
0
  0
POLYLINE
  8
0
 62
     253
 66
     1
 10
0
 20
0
 30
0.0
 40
0.375
 41
0.375
  0
VERTEX
  8
0
 10
4.44499
 20
2.55892
 30
0.0
 40
0.00520833
 41
0.00520833
  0
VERTEX
  8
0
 10
3.57194
 20
2.55892
 30
0.0
 40
0.00520833
 41
0.00520833
  0
SEQEND
 8
0
  0
POLYLINE
  8
0
 62
     253
 66
     1
 10
0
 20
0
 30
0.0
 40
0.375
 41
0.375
  0
VERTEX
  8
0
 10
4.44499
 20
2.59283
 30
0.0
 40
0.00520833
 41
0.00520833
  0
VERTEX
  8
0
 10
3.57194
 20
2.59283
 30
0.0
 40
0.00520833
 41
0.00520833
  0
SEQEND
 8
0
  0
POLYLINE
  8
0
 62
     253
 66
     1
 10
0
 20
0
 30
0.0
 40
0.375
 41
0.375
  0
VERTEX
  8
0
 10
4.44499
 20
2.62674
 30
0.0
 40
0.00520833
 41
0.00520833
  0
VERTEX
  8
0
 10
3.57194
 20
2.62674
 30
0.0
 40
0.00520833
 41
0.00520833
  0
SEQEND
 8
0
  0
POLYLINE
  8
0
 62
     253
 66
     1
 10
0
 20
0
 30
0.0
 40
0.375
 41
0.375
  0
VERTEX
  8
0
 10
4.44499
 20
2.66064
 30
0.0
 40
0.00520833
 41
0.00520833
  0
VERTEX
  8
0
 10
3.57194
 20
2.66064
 30
0.0
 40
0.00520833
 41
0.00520833
  0
SEQEND
 8
0
  0
POLYLINE
  8
0
 62
     253
 66
     1
 10
0
 20
0
 30
0.0
 40
0.375
 41
0.375
  0
VERTEX
  8
0
 10
4.44499
 20
2.6945
 30
0.0
 40
0.00520833
 41
0.00520833
  0
VERTEX
  8
0
 10
3.57194
 20
2.6945
 30
0.0
 40
0.00520833
 41
0.00520833
  0
SEQEND
 8
0
  0
POLYLINE
  8
0
 62
     7
 66
     1
 10
0
 20
0
 30
0.0
 70
     1
 40
0
 41
0
  0
VERTEX
  8
0
 10
2.77821
 20
2.90972
 30
0.0
 40
0
 41
0
  0
VERTEX
  8
0
 10
3.29015
 20
2.90972
 30
0.0
 40
0
 41
0
  0
VERTEX
  8
0
 10
3.29015
 20
2.58225
 30
0.0
 40
0
 41
0
  0
VERTEX
  8
0
 10
2.77821
 20
2.58225
 30
0.0
 40
0
 41
0
  0
VERTEX
  8
0
 10
2.77821
 20
2.90972
 30
0.0
 40
0
 41
0
  0
SEQEND
 8
0
  0
POLYLINE
  8
0
 62
     0
 66
     1
 10
0
 20
0
 30
0.0
 70
     1
 40
0.614325
 41
0.614325
  0
VERTEX
  8
0
 10
2.77821
 20
2.90972
 30
0.0
 40
0.00853229
 41
0.00853229
  0
VERTEX
  8
0
 10
3.29015
 20
2.90972
 30
0.0
 40
0.00853229
 41
0.00853229
  0
VERTEX
  8
0
 10
3.29015
 20
2.58225
 30
0.0
 40
0.00853229
 41
0.00853229
  0
VERTEX
  8
0
 10
2.77821
 20
2.58225
 30
0.0
 40
0.00853229
 41
0.00853229
  0
VERTEX
  8
0
 10
2.77821
 20
2.90972
 30
0.0
 40
0.00853229
 41
0.00853229
  0
SEQEND
 8
0
  0
POLYLINE
  8
0
 62
     0
 66
     1
 10
0
 20
0
 30
0.0
 40
0.614325
 41
0.614325
  0
VERTEX
  8
0
 10
2.77821
 20
2.58225
 30
0.0
 40
0.00853229
 41
0.00853229
  0
VERTEX
  8
0
 10
3.11697
 20
2.74599
 30
0.0
 40
0.00853229
 41
0.00853229
  0
VERTEX
  8
0
 10
2.96083
 20
2.74599
 30
0.0
 40
0.00853229
 41
0.00853229
  0
VERTEX
  8
0
 10
3.29015
 20
2.90972
 30
0.0
 40
0.00853229
 41
0.00853229
  0
SEQEND
 8
0
  0
POLYLINE
  8
0
 62
     7
 66
     1
 10
0
 20
0
 30
0.0
 70
     1
 40
0
 41
0
  0
VERTEX
  8
0
 10
7.88558
 20
2.11187
 30
0.0
 40
0
 41
0
  0
VERTEX
  8
0
 10
8.52886
 20
2.11187
 30
0.0
 40
0
 41
0
  0
VERTEX
  8
0
 10
8.52886
 20
1.48688
 30
0.0
 40
0
 41
0
  0
VERTEX
  8
0
 10
7.88558
 20
1.48688
 30
0.0
 40
0
 41
0
  0
VERTEX
  8
0
 10
7.88558
 20
2.11187
 30
0.0
 40
0
 41
0
  0
SEQEND
 8
0
  0
POLYLINE
  8
0
 62
     0
 66
     1
 10
0
 20
0
 30
0.0
 70
     1
 40
0.771975
 41
0.771975
  0
VERTEX
  8
0
 10
7.88558
 20
2.11187
 30
0.0
 40
0.0107219
 41
0.0107219
  0
VERTEX
  8
0
 10
8.52886
 20
2.11187
 30
0.0
 40
0.0107219
 41
0.0107219
  0
VERTEX
  8
0
 10
8.52886
 20
1.48688
 30
0.0
 40
0.0107219
 41
0.0107219
  0
VERTEX
  8
0
 10
7.88558
 20
1.48688
 30
0.0
 40
0.0107219
 41
0.0107219
  0
VERTEX
  8
0
 10
7.88558
 20
2.11187
 30
0.0
 40
0.0107219
 41
0.0107219
  0
SEQEND
 8
0
  0
POLYLINE
  8
0
 62
     0
 66
     1
 10
0
 20
0
 30
0.0
 40
0.771975
 41
0.771975
  0
VERTEX
  8
0
 10
8.52886
 20
1.48688
 30
0.0
 40
0.0107219
 41
0.0107219
  0
VERTEX
  8
0
 10
8.20719
 20
1.87332
 30
0.0
 40
0.0107219
 41
0.0107219
  0
VERTEX
  8
0
 10
8.20719
 20
1.68582
 30
0.0
 40
0.0107219
 41
0.0107219
  0
VERTEX
  8
0
 10
7.88558
 20
2.07335
 30
0.0
 40
0.0107219
 41
0.0107219
  0
SEQEND
 8
0
  0
POLYLINE
  8
0
 62
     7
 66
     1
 10
0
 20
0
 30
0.0
 70
     1
 40
0
 41
0
  0
VERTEX
  8
0
 10
7.88558
 20
2.11187
 30
0.0
 40
0
 41
0
  0
VERTEX
  8
0
 10
8.52886
 20
2.11187
 30
0.0
 40
0
 41
0
  0
VERTEX
  8
0
 10
8.52886
 20
2.07021
 30
0.0
 40
0
 41
0
  0
VERTEX
  8
0
 10
7.88558
 20
2.07021
 30
0.0
 40
0
 41
0
  0
VERTEX
  8
0
 10
7.88558
 20
2.11187
 30
0.0
 40
0
 41
0
  0
SEQEND
 8
0
  0
POLYLINE
  8
0
 62
     0
 66
     1
 10
0
 20
0
 30
0.0
 70
     1
 40
0.771975
 41
0.771975
  0
VERTEX
  8
0
 10
7.88558
 20
2.11187
 30
0.0
 40
0.0107219
 41
0.0107219
  0
VERTEX
  8
0
 10
8.52886
 20
2.11187
 30
0.0
 40
0.0107219
 41
0.0107219
  0
VERTEX
  8
0
 10
8.52886
 20
2.07021
 30
0.0
 40
0.0107219
 41
0.0107219
  0
VERTEX
  8
0
 10
7.88558
 20
2.07021
 30
0.0
 40
0.0107219
 41
0.0107219
  0
VERTEX
  8
0
 10
7.88558
 20
2.11187
 30
0.0
 40
0.0107219
 41
0.0107219
  0
SEQEND
 8
0
  0
POLYLINE
  8
0
 62
     7
 66
     1
 10
0
 20
0
 30
0.0
 70
     1
 40
0
 41
0
  0
VERTEX
  8
0
 10
6.29981
 20
2.11367
 30
0.0
 40
0
 41
0
  0
VERTEX
  8
0
 10
7.88553
 20
2.11367
 30
0.0
 40
0
 41
0
  0
VERTEX
  8
0
 10
7.88553
 20
1.48867
 30
0.0
 40
0
 41
0
  0
VERTEX
  8
0
 10
6.29981
 20
1.48867
 30
0.0
 40
0
 41
0
  0
VERTEX
  8
0
 10
6.29981
 20
2.11367
 30
0.0
 40
0
 41
0
  0
SEQEND
 8
0
  0
POLYLINE
  8
0
 62
     0
 66
     1
 10
0
 20
0
 30
0.0
 70
     1
 40
0.75
 41
0.75
  0
VERTEX
  8
0
 10
6.29981
 20
2.11367
 30
0.0
 40
0.0104167
 41
0.0104167
  0
VERTEX
  8
0
 10
7.88553
 20
2.11367
 30
0.0
 40
0.0104167
 41
0.0104167
  0
VERTEX
  8
0
 10
7.88553
 20
1.48867
 30
0.0
 40
0.0104167
 41
0.0104167
  0
VERTEX
  8
0
 10
6.29981
 20
1.48867
 30
0.0
 40
0.0104167
 41
0.0104167
  0
VERTEX
  8
0
 10
6.29981
 20
2.11367
 30
0.0
 40
0.0104167
 41
0.0104167
  0
SEQEND
 8
0
  0
POLYLINE
  8
0
 62
     7
 66
     1
 10
0
 20
0
 30
0.0
 70
     1
 40
0
 41
0
  0
VERTEX
  8
0
 10
6.71386
 20
2.09283
 30
0.0
 40
0
 41
0
  0
VERTEX
  8
0
 10
7.24468
 20
2.09283
 30
0.0
 40
0
 41
0
  0
VERTEX
  8
0
 10
7.24468
 20
1.5095
 30
0.0
 40
0
 41
0
  0
VERTEX
  8
0
 10
6.71386
 20
1.5095
 30
0.0
 40
0
 41
0
  0
VERTEX
  8
0
 10
6.71386
 20
2.09283
 30
0.0
 40
0
 41
0
  0
SEQEND
 8
0
  0
POLYLINE
  8
0
 62
     0
 66
     1
 10
0
 20
0
 30
0.0
 70
     1
 40
0.75
 41
0.75
  0
VERTEX
  8
0
 10
6.71386
 20
2.09283
 30
0.0
 40
0.0104167
 41
0.0104167
  0
VERTEX
  8
0
 10
7.24468
 20
2.09283
 30
0.0
 40
0.0104167
 41
0.0104167
  0
VERTEX
  8
0
 10
7.24468
 20
1.5095
 30
0.0
 40
0.0104167
 41
0.0104167
  0
VERTEX
  8
0
 10
6.71386
 20
1.5095
 30
0.0
 40
0.0104167
 41
0.0104167
  0
VERTEX
  8
0
 10
6.71386
 20
2.09283
 30
0.0
 40
0.0104167
 41
0.0104167
  0
SEQEND
 8
0
  0
POLYLINE
  8
0
 62
     7
 66
     1
 10
0
 20
0
 30
0.0
 70
     1
 40
0
 41
0
  0
VERTEX
  8
0
 10
7.03
 20
1.65533
 30
0.0
 40
0
 41
0
  0
VERTEX
  8
0
 10
7.03
 20
1.66347
 30
0.0
 40
0
 41
0
  0
VERTEX
  8
0
 10
7.03651
 20
1.68778
 30
0.0
 40
0
 41
0
  0
VERTEX
  8
0
 10
7.05442
 20
1.71425
 30
0.0
 40
0
 41
0
  0
VERTEX
  8
0
 10
7.08089
 20
1.73215
 30
0.0
 40
0
 41
0
  0
VERTEX
  8
0
 10
7.10519
 20
1.73867
 30
0.0
 40
0
 41
0
  0
VERTEX
  8
0
 10
7.11333
 20
1.73867
 30
0.0
 40
0
 41
0
  0
VERTEX
  8
0
 10
7.12142
 20
1.73867
 30
0.0
 40
0
 41
0
  0
VERTEX
  8
0
 10
7.14578
 20
1.73215
 30
0.0
 40
0
 41
0
  0
VERTEX
  8
0
 10
7.17225
 20
1.71425
 30
0.0
 40
0
 41
0
  0
VERTEX
  8
0
 10
7.19011
 20
1.68778
 30
0.0
 40
0
 41
0
  0
VERTEX
  8
0
 10
7.19667
 20
1.66347
 30
0.0
 40
0
 41
0
  0
VERTEX
  8
0
 10
7.19667
 20
1.65533
 30
0.0
 40
0
 41
0
  0
VERTEX
  8
0
 10
7.19667
 20
1.64725
 30
0.0
 40
0
 41
0
  0
VERTEX
  8
0
 10
7.19011
 20
1.62294
 30
0.0
 40
0
 41
0
  0
VERTEX
  8
0
 10
7.17225
 20
1.5964
 30
0.0
 40
0
 41
0
  0
VERTEX
  8
0
 10
7.14578
 20
1.57856
 30
0.0
 40
0
 41
0
  0
VERTEX
  8
0
 10
7.12142
 20
1.572
 30
0.0
 40
0
 41
0
  0
VERTEX
  8
0
 10
7.11333
 20
1.572
 30
0.0
 40
0
 41
0
  0
VERTEX
  8
0
 10
7.10519
 20
1.572
 30
0.0
 40
0
 41
0
  0
VERTEX
  8
0
 10
7.08089
 20
1.57856
 30
0.0
 40
0
 41
0
  0
VERTEX
  8
0
 10
7.05442
 20
1.5964
 30
0.0
 40
0
 41
0
  0
VERTEX
  8
0
 10
7.03651
 20
1.62294
 30
0.0
 40
0
 41
0
  0
VERTEX
  8
0
 10
7.03
 20
1.64725
 30
0.0
 40
0
 41
0
  0
VERTEX
  8
0
 10
7.03
 20
1.65533
 30
0.0
 40
0
 41
0
  0
SEQEND
 8
0
  0
POLYLINE
  8
0
 62
     0
 66
     1
 10
0
 20
0
 30
0.0
 70
     1
 40
0.75
 41
0.75
  0
VERTEX
  8
0
 10
7.03
 20
1.65533
 30
0.0
 40
0.0104167
 41
0.0104167
  0
VERTEX
  8
0
 10
7.03
 20
1.66347
 30
0.0
 40
0.0104167
 41
0.0104167
  0
VERTEX
  8
0
 10
7.03651
 20
1.68778
 30
0.0
 40
0.0104167
 41
0.0104167
  0
VERTEX
  8
0
 10
7.05442
 20
1.71425
 30
0.0
 40
0.0104167
 41
0.0104167
  0
VERTEX
  8
0
 10
7.08089
 20
1.73215
 30
0.0
 40
0.0104167
 41
0.0104167
  0
VERTEX
  8
0
 10
7.10519
 20
1.73867
 30
0.0
 40
0.0104167
 41
0.0104167
  0
VERTEX
  8
0
 10
7.11333
 20
1.73867
 30
0.0
 40
0.0104167
 41
0.0104167
  0
VERTEX
  8
0
 10
7.12142
 20
1.73867
 30
0.0
 40
0.0104167
 41
0.0104167
  0
VERTEX
  8
0
 10
7.14578
 20
1.73215
 30
0.0
 40
0.0104167
 41
0.0104167
  0
VERTEX
  8
0
 10
7.17225
 20
1.71425
 30
0.0
 40
0.0104167
 41
0.0104167
  0
VERTEX
  8
0
 10
7.19011
 20
1.68778
 30
0.0
 40
0.0104167
 41
0.0104167
  0
VERTEX
  8
0
 10
7.19667
 20
1.66347
 30
0.0
 40
0.0104167
 41
0.0104167
  0
VERTEX
  8
0
 10
7.19667
 20
1.65533
 30
0.0
 40
0.0104167
 41
0.0104167
  0
VERTEX
  8
0
 10
7.19667
 20
1.64725
 30
0.0
 40
0.0104167
 41
0.0104167
  0
VERTEX
  8
0
 10
7.19011
 20
1.62294
 30
0.0
 40
0.0104167
 41
0.0104167
  0
VERTEX
  8
0
 10
7.17225
 20
1.5964
 30
0.0
 40
0.0104167
 41
0.0104167
  0
VERTEX
  8
0
 10
7.14578
 20
1.57856
 30
0.0
 40
0.0104167
 41
0.0104167
  0
VERTEX
  8
0
 10
7.12142
 20
1.572
 30
0.0
 40
0.0104167
 41
0.0104167
  0
VERTEX
  8
0
 10
7.11333
 20
1.572
 30
0.0
 40
0.0104167
 41
0.0104167
  0
VERTEX
  8
0
 10
7.10519
 20
1.572
 30
0.0
 40
0.0104167
 41
0.0104167
  0
VERTEX
  8
0
 10
7.08089
 20
1.57856
 30
0.0
 40
0.0104167
 41
0.0104167
  0
VERTEX
  8
0
 10
7.05442
 20
1.5964
 30
0.0
 40
0.0104167
 41
0.0104167
  0
VERTEX
  8
0
 10
7.03651
 20
1.62294
 30
0.0
 40
0.0104167
 41
0.0104167
  0
VERTEX
  8
0
 10
7.03
 20
1.64725
 30
0.0
 40
0.0104167
 41
0.0104167
  0
VERTEX
  8
0
 10
7.03
 20
1.65533
 30
0.0
 40
0.0104167
 41
0.0104167
  0
SEQEND
 8
0
  0
POLYLINE
  8
0
 62
     7
 66
     1
 10
0
 20
0
 30
0.0
 70
     1
 40
0
 41
0
  0
VERTEX
  8
0
 10
6.76372
 20
1.65533
 30
0.0
 40
0
 41
0
  0
VERTEX
  8
0
 10
6.76372
 20
1.66347
 30
0.0
 40
0
 41
0
  0
VERTEX
  8
0
 10
6.77024
 20
1.68778
 30
0.0
 40
0
 41
0
  0
VERTEX
  8
0
 10
6.78814
 20
1.71425
 30
0.0
 40
0
 41
0
  0
VERTEX
  8
0
 10
6.81461
 20
1.73215
 30
0.0
 40
0
 41
0
  0
VERTEX
  8
0
 10
6.83892
 20
1.73867
 30
0.0
 40
0
 41
0
  0
VERTEX
  8
0
 10
6.84706
 20
1.73867
 30
0.0
 40
0
 41
0
  0
VERTEX
  8
0
 10
6.85514
 20
1.73867
 30
0.0
 40
0
 41
0
  0
VERTEX
  8
0
 10
6.87944
 20
1.73215
 30
0.0
 40
0
 41
0
  0
VERTEX
  8
0
 10
6.90597
 20
1.71425
 30
0.0
 40
0
 41
0
  0
VERTEX
  8
0
 10
6.92383
 20
1.68778
 30
0.0
 40
0
 41
0
  0
VERTEX
  8
0
 10
6.93039
 20
1.66347
 30
0.0
 40
0
 41
0
  0
VERTEX
  8
0
 10
6.93039
 20
1.65533
 30
0.0
 40
0
 41
0
  0
VERTEX
  8
0
 10
6.93039
 20
1.64725
 30
0.0
 40
0
 41
0
  0
VERTEX
  8
0
 10
6.92383
 20
1.62294
 30
0.0
 40
0
 41
0
  0
VERTEX
  8
0
 10
6.90597
 20
1.5964
 30
0.0
 40
0
 41
0
  0
VERTEX
  8
0
 10
6.87944
 20
1.57856
 30
0.0
 40
0
 41
0
  0
VERTEX
  8
0
 10
6.85514
 20
1.572
 30
0.0
 40
0
 41
0
  0
VERTEX
  8
0
 10
6.84706
 20
1.572
 30
0.0
 40
0
 41
0
  0
VERTEX
  8
0
 10
6.83892
 20
1.572
 30
0.0
 40
0
 41
0
  0
VERTEX
  8
0
 10
6.81461
 20
1.57856
 30
0.0
 40
0
 41
0
  0
VERTEX
  8
0
 10
6.78814
 20
1.5964
 30
0.0
 40
0
 41
0
  0
VERTEX
  8
0
 10
6.77024
 20
1.62294
 30
0.0
 40
0
 41
0
  0
VERTEX
  8
0
 10
6.76372
 20
1.64725
 30
0.0
 40
0
 41
0
  0
VERTEX
  8
0
 10
6.76372
 20
1.65533
 30
0.0
 40
0
 41
0
  0
SEQEND
 8
0
  0
POLYLINE
  8
0
 62
     0
 66
     1
 10
0
 20
0
 30
0.0
 70
     1
 40
0.75
 41
0.75
  0
VERTEX
  8
0
 10
6.76372
 20
1.65533
 30
0.0
 40
0.0104167
 41
0.0104167
  0
VERTEX
  8
0
 10
6.76372
 20
1.66347
 30
0.0
 40
0.0104167
 41
0.0104167
  0
VERTEX
  8
0
 10
6.77024
 20
1.68778
 30
0.0
 40
0.0104167
 41
0.0104167
  0
VERTEX
  8
0
 10
6.78814
 20
1.71425
 30
0.0
 40
0.0104167
 41
0.0104167
  0
VERTEX
  8
0
 10
6.81461
 20
1.73215
 30
0.0
 40
0.0104167
 41
0.0104167
  0
VERTEX
  8
0
 10
6.83892
 20
1.73867
 30
0.0
 40
0.0104167
 41
0.0104167
  0
VERTEX
  8
0
 10
6.84706
 20
1.73867
 30
0.0
 40
0.0104167
 41
0.0104167
  0
VERTEX
  8
0
 10
6.85514
 20
1.73867
 30
0.0
 40
0.0104167
 41
0.0104167
  0
VERTEX
  8
0
 10
6.87944
 20
1.73215
 30
0.0
 40
0.0104167
 41
0.0104167
  0
VERTEX
  8
0
 10
6.90597
 20
1.71425
 30
0.0
 40
0.0104167
 41
0.0104167
  0
VERTEX
  8
0
 10
6.92383
 20
1.68778
 30
0.0
 40
0.0104167
 41
0.0104167
  0
VERTEX
  8
0
 10
6.93039
 20
1.66347
 30
0.0
 40
0.0104167
 41
0.0104167
  0
VERTEX
  8
0
 10
6.93039
 20
1.65533
 30
0.0
 40
0.0104167
 41
0.0104167
  0
VERTEX
  8
0
 10
6.93039
 20
1.64725
 30
0.0
 40
0.0104167
 41
0.0104167
  0
VERTEX
  8
0
 10
6.92383
 20
1.62294
 30
0.0
 40
0.0104167
 41
0.0104167
  0
VERTEX
  8
0
 10
6.90597
 20
1.5964
 30
0.0
 40
0.0104167
 41
0.0104167
  0
VERTEX
  8
0
 10
6.87944
 20
1.57856
 30
0.0
 40
0.0104167
 41
0.0104167
  0
VERTEX
  8
0
 10
6.85514
 20
1.572
 30
0.0
 40
0.0104167
 41
0.0104167
  0
VERTEX
  8
0
 10
6.84706
 20
1.572
 30
0.0
 40
0.0104167
 41
0.0104167
  0
VERTEX
  8
0
 10
6.83892
 20
1.572
 30
0.0
 40
0.0104167
 41
0.0104167
  0
VERTEX
  8
0
 10
6.81461
 20
1.57856
 30
0.0
 40
0.0104167
 41
0.0104167
  0
VERTEX
  8
0
 10
6.78814
 20
1.5964
 30
0.0
 40
0.0104167
 41
0.0104167
  0
VERTEX
  8
0
 10
6.77024
 20
1.62294
 30
0.0
 40
0.0104167
 41
0.0104167
  0
VERTEX
  8
0
 10
6.76372
 20
1.64725
 30
0.0
 40
0.0104167
 41
0.0104167
  0
VERTEX
  8
0
 10
6.76372
 20
1.65533
 30
0.0
 40
0.0104167
 41
0.0104167
  0
SEQEND
 8
0
  0
POLYLINE
  8
0
 62
     7
 66
     1
 10
0
 20
0
 30
0.0
 70
     1
 40
0
 41
0
  0
VERTEX
  8
0
 10
7.03
 20
1.947
 30
0.0
 40
0
 41
0
  0
VERTEX
  8
0
 10
7.03
 20
1.95514
 30
0.0
 40
0
 41
0
  0
VERTEX
  8
0
 10
7.03651
 20
1.97944
 30
0.0
 40
0
 41
0
  0
VERTEX
  8
0
 10
7.05442
 20
2.00592
 30
0.0
 40
0
 41
0
  0
VERTEX
  8
0
 10
7.08089
 20
2.02382
 30
0.0
 40
0
 41
0
  0
VERTEX
  8
0
 10
7.10519
 20
2.03033
 30
0.0
 40
0
 41
0
  0
VERTEX
  8
0
 10
7.11333
 20
2.03033
 30
0.0
 40
0
 41
0
  0
VERTEX
  8
0
 10
7.12142
 20
2.03033
 30
0.0
 40
0
 41
0
  0
VERTEX
  8
0
 10
7.14578
 20
2.02382
 30
0.0
 40
0
 41
0
  0
VERTEX
  8
0
 10
7.17225
 20
2.00592
 30
0.0
 40
0
 41
0
  0
VERTEX
  8
0
 10
7.19011
 20
1.97944
 30
0.0
 40
0
 41
0
  0
VERTEX
  8
0
 10
7.19667
 20
1.95514
 30
0.0
 40
0
 41
0
  0
VERTEX
  8
0
 10
7.19667
 20
1.947
 30
0.0
 40
0
 41
0
  0
VERTEX
  8
0
 10
7.19667
 20
1.93892
 30
0.0
 40
0
 41
0
  0
VERTEX
  8
0
 10
7.19011
 20
1.91461
 30
0.0
 40
0
 41
0
  0
VERTEX
  8
0
 10
7.17225
 20
1.88807
 30
0.0
 40
0
 41
0
  0
VERTEX
  8
0
 10
7.14578
 20
1.87022
 30
0.0
 40
0
 41
0
  0
VERTEX
  8
0
 10
7.12142
 20
1.86367
 30
0.0
 40
0
 41
0
  0
VERTEX
  8
0
 10
7.11333
 20
1.86367
 30
0.0
 40
0
 41
0
  0
VERTEX
  8
0
 10
7.10519
 20
1.86367
 30
0.0
 40
0
 41
0
  0
VERTEX
  8
0
 10
7.08089
 20
1.87022
 30
0.0
 40
0
 41
0
  0
VERTEX
  8
0
 10
7.05442
 20
1.88807
 30
0.0
 40
0
 41
0
  0
VERTEX
  8
0
 10
7.03651
 20
1.91461
 30
0.0
 40
0
 41
0
  0
VERTEX
  8
0
 10
7.03
 20
1.93892
 30
0.0
 40
0
 41
0
  0
VERTEX
  8
0
 10
7.03
 20
1.947
 30
0.0
 40
0
 41
0
  0
SEQEND
 8
0
  0
POLYLINE
  8
0
 62
     0
 66
     1
 10
0
 20
0
 30
0.0
 70
     1
 40
0.75
 41
0.75
  0
VERTEX
  8
0
 10
7.03
 20
1.947
 30
0.0
 40
0.0104167
 41
0.0104167
  0
VERTEX
  8
0
 10
7.03
 20
1.95514
 30
0.0
 40
0.0104167
 41
0.0104167
  0
VERTEX
  8
0
 10
7.03651
 20
1.97944
 30
0.0
 40
0.0104167
 41
0.0104167
  0
VERTEX
  8
0
 10
7.05442
 20
2.00592
 30
0.0
 40
0.0104167
 41
0.0104167
  0
VERTEX
  8
0
 10
7.08089
 20
2.02382
 30
0.0
 40
0.0104167
 41
0.0104167
  0
VERTEX
  8
0
 10
7.10519
 20
2.03033
 30
0.0
 40
0.0104167
 41
0.0104167
  0
VERTEX
  8
0
 10
7.11333
 20
2.03033
 30
0.0
 40
0.0104167
 41
0.0104167
  0
VERTEX
  8
0
 10
7.12142
 20
2.03033
 30
0.0
 40
0.0104167
 41
0.0104167
  0
VERTEX
  8
0
 10
7.14578
 20
2.02382
 30
0.0
 40
0.0104167
 41
0.0104167
  0
VERTEX
  8
0
 10
7.17225
 20
2.00592
 30
0.0
 40
0.0104167
 41
0.0104167
  0
VERTEX
  8
0
 10
7.19011
 20
1.97944
 30
0.0
 40
0.0104167
 41
0.0104167
  0
VERTEX
  8
0
 10
7.19667
 20
1.95514
 30
0.0
 40
0.0104167
 41
0.0104167
  0
VERTEX
  8
0
 10
7.19667
 20
1.947
 30
0.0
 40
0.0104167
 41
0.0104167
  0
VERTEX
  8
0
 10
7.19667
 20
1.93892
 30
0.0
 40
0.0104167
 41
0.0104167
  0
VERTEX
  8
0
 10
7.19011
 20
1.91461
 30
0.0
 40
0.0104167
 41
0.0104167
  0
VERTEX
  8
0
 10
7.17225
 20
1.88807
 30
0.0
 40
0.0104167
 41
0.0104167
  0
VERTEX
  8
0
 10
7.14578
 20
1.87022
 30
0.0
 40
0.0104167
 41
0.0104167
  0
VERTEX
  8
0
 10
7.12142
 20
1.86367
 30
0.0
 40
0.0104167
 41
0.0104167
  0
VERTEX
  8
0
 10
7.11333
 20
1.86367
 30
0.0
 40
0.0104167
 41
0.0104167
  0
VERTEX
  8
0
 10
7.10519
 20
1.86367
 30
0.0
 40
0.0104167
 41
0.0104167
  0
VERTEX
  8
0
 10
7.08089
 20
1.87022
 30
0.0
 40
0.0104167
 41
0.0104167
  0
VERTEX
  8
0
 10
7.05442
 20
1.88807
 30
0.0
 40
0.0104167
 41
0.0104167
  0
VERTEX
  8
0
 10
7.03651
 20
1.91461
 30
0.0
 40
0.0104167
 41
0.0104167
  0
VERTEX
  8
0
 10
7.03
 20
1.93892
 30
0.0
 40
0.0104167
 41
0.0104167
  0
VERTEX
  8
0
 10
7.03
 20
1.947
 30
0.0
 40
0.0104167
 41
0.0104167
  0
SEQEND
 8
0
  0
POLYLINE
  8
0
 62
     7
 66
     1
 10
0
 20
0
 30
0.0
 70
     1
 40
0
 41
0
  0
VERTEX
  8
0
 10
6.76372
 20
1.947
 30
0.0
 40
0
 41
0
  0
VERTEX
  8
0
 10
6.76372
 20
1.95514
 30
0.0
 40
0
 41
0
  0
VERTEX
  8
0
 10
6.77024
 20
1.97944
 30
0.0
 40
0
 41
0
  0
VERTEX
  8
0
 10
6.78814
 20
2.00592
 30
0.0
 40
0
 41
0
  0
VERTEX
  8
0
 10
6.81461
 20
2.02382
 30
0.0
 40
0
 41
0
  0
VERTEX
  8
0
 10
6.83892
 20
2.03033
 30
0.0
 40
0
 41
0
  0
VERTEX
  8
0
 10
6.84706
 20
2.03033
 30
0.0
 40
0
 41
0
  0
VERTEX
  8
0
 10
6.85514
 20
2.03033
 30
0.0
 40
0
 41
0
  0
VERTEX
  8
0
 10
6.87944
 20
2.02382
 30
0.0
 40
0
 41
0
  0
VERTEX
  8
0
 10
6.90597
 20
2.00592
 30
0.0
 40
0
 41
0
  0
VERTEX
  8
0
 10
6.92383
 20
1.97944
 30
0.0
 40
0
 41
0
  0
VERTEX
  8
0
 10
6.93039
 20
1.95514
 30
0.0
 40
0
 41
0
  0
VERTEX
  8
0
 10
6.93039
 20
1.947
 30
0.0
 40
0
 41
0
  0
VERTEX
  8
0
 10
6.93039
 20
1.93892
 30
0.0
 40
0
 41
0
  0
VERTEX
  8
0
 10
6.92383
 20
1.91461
 30
0.0
 40
0
 41
0
  0
VERTEX
  8
0
 10
6.90597
 20
1.88807
 30
0.0
 40
0
 41
0
  0
VERTEX
  8
0
 10
6.87944
 20
1.87022
 30
0.0
 40
0
 41
0
  0
VERTEX
  8
0
 10
6.85514
 20
1.86367
 30
0.0
 40
0
 41
0
  0
VERTEX
  8
0
 10
6.84706
 20
1.86367
 30
0.0
 40
0
 41
0
  0
VERTEX
  8
0
 10
6.83892
 20
1.86367
 30
0.0
 40
0
 41
0
  0
VERTEX
  8
0
 10
6.81461
 20
1.87022
 30
0.0
 40
0
 41
0
  0
VERTEX
  8
0
 10
6.78814
 20
1.88807
 30
0.0
 40
0
 41
0
  0
VERTEX
  8
0
 10
6.77024
 20
1.91461
 30
0.0
 40
0
 41
0
  0
VERTEX
  8
0
 10
6.76372
 20
1.93892
 30
0.0
 40
0
 41
0
  0
VERTEX
  8
0
 10
6.76372
 20
1.947
 30
0.0
 40
0
 41
0
  0
SEQEND
 8
0
  0
POLYLINE
  8
0
 62
     0
 66
     1
 10
0
 20
0
 30
0.0
 70
     1
 40
0.75
 41
0.75
  0
VERTEX
  8
0
 10
6.76372
 20
1.947
 30
0.0
 40
0.0104167
 41
0.0104167
  0
VERTEX
  8
0
 10
6.76372
 20
1.95514
 30
0.0
 40
0.0104167
 41
0.0104167
  0
VERTEX
  8
0
 10
6.77024
 20
1.97944
 30
0.0
 40
0.0104167
 41
0.0104167
  0
VERTEX
  8
0
 10
6.78814
 20
2.00592
 30
0.0
 40
0.0104167
 41
0.0104167
  0
VERTEX
  8
0
 10
6.81461
 20
2.02382
 30
0.0
 40
0.0104167
 41
0.0104167
  0
VERTEX
  8
0
 10
6.83892
 20
2.03033
 30
0.0
 40
0.0104167
 41
0.0104167
  0
VERTEX
  8
0
 10
6.84706
 20
2.03033
 30
0.0
 40
0.0104167
 41
0.0104167
  0
VERTEX
  8
0
 10
6.85514
 20
2.03033
 30
0.0
 40
0.0104167
 41
0.0104167
  0
VERTEX
  8
0
 10
6.87944
 20
2.02382
 30
0.0
 40
0.0104167
 41
0.0104167
  0
VERTEX
  8
0
 10
6.90597
 20
2.00592
 30
0.0
 40
0.0104167
 41
0.0104167
  0
VERTEX
  8
0
 10
6.92383
 20
1.97944
 30
0.0
 40
0.0104167
 41
0.0104167
  0
VERTEX
  8
0
 10
6.93039
 20
1.95514
 30
0.0
 40
0.0104167
 41
0.0104167
  0
VERTEX
  8
0
 10
6.93039
 20
1.947
 30
0.0
 40
0.0104167
 41
0.0104167
  0
VERTEX
  8
0
 10
6.93039
 20
1.93892
 30
0.0
 40
0.0104167
 41
0.0104167
  0
VERTEX
  8
0
 10
6.92383
 20
1.91461
 30
0.0
 40
0.0104167
 41
0.0104167
  0
VERTEX
  8
0
 10
6.90597
 20
1.88807
 30
0.0
 40
0.0104167
 41
0.0104167
  0
VERTEX
  8
0
 10
6.87944
 20
1.87022
 30
0.0
 40
0.0104167
 41
0.0104167
  0
VERTEX
  8
0
 10
6.85514
 20
1.86367
 30
0.0
 40
0.0104167
 41
0.0104167
  0
VERTEX
  8
0
 10
6.84706
 20
1.86367
 30
0.0
 40
0.0104167
 41
0.0104167
  0
VERTEX
  8
0
 10
6.83892
 20
1.86367
 30
0.0
 40
0.0104167
 41
0.0104167
  0
VERTEX
  8
0
 10
6.81461
 20
1.87022
 30
0.0
 40
0.0104167
 41
0.0104167
  0
VERTEX
  8
0
 10
6.78814
 20
1.88807
 30
0.0
 40
0.0104167
 41
0.0104167
  0
VERTEX
  8
0
 10
6.77024
 20
1.91461
 30
0.0
 40
0.0104167
 41
0.0104167
  0
VERTEX
  8
0
 10
6.76372
 20
1.93892
 30
0.0
 40
0.0104167
 41
0.0104167
  0
VERTEX
  8
0
 10
6.76372
 20
1.947
 30
0.0
 40
0.0104167
 41
0.0104167
  0
SEQEND
 8
0
  0
POLYLINE
  8
0
 62
     0
 66
     1
 10
0
 20
0
 30
0.0
 70
     1
 40
0.75
 41
0.75
  0
VERTEX
  8
0
 10
6.29986
 20
1.80311
 30
0.0
 40
0.0104167
 41
0.0104167
  0
VERTEX
  8
0
 10
7.88183
 20
1.80311
 30
0.0
 40
0.0104167
 41
0.0104167
  0
VERTEX
  8
0
 10
7.88183
 20
1.49061
 30
0.0
 40
0.0104167
 41
0.0104167
  0
VERTEX
  8
0
 10
6.29986
 20
1.49061
 30
0.0
 40
0.0104167
 41
0.0104167
  0
VERTEX
  8
0
 10
6.29986
 20
1.80311
 30
0.0
 40
0.0104167
 41
0.0104167
  0
SEQEND
 8
0
  0
POLYLINE
  8
0
 62
     7
 66
     1
 10
0
 20
0
 30
0.0
 70
     1
 40
0
 41
0
  0
VERTEX
  8
0
 10
6.72499
 20
4.13992
 30
0.0
 40
0
 41
0
  0
VERTEX
  8
0
 10
8.62999
 20
4.13992
 30
0.0
 40
0
 41
0
  0
VERTEX
  8
0
 10
8.62999
 20
3.51492
 30
0.0
 40
0
 41
0
  0
VERTEX
  8
0
 10
6.72499
 20
3.51492
 30
0.0
 40
0
 41
0
  0
VERTEX
  8
0
 10
6.72499
 20
4.13992
 30
0.0
 40
0
 41
0
  0
SEQEND
 8
0
  0
POLYLINE
  8
0
 62
     0
 66
     1
 10
0
 20
0
 30
0.0
 70
     1
 40
0.75
 41
0.75
  0
VERTEX
  8
0
 10
6.72499
 20
4.13992
 30
0.0
 40
0.0104167
 41
0.0104167
  0
VERTEX
  8
0
 10
8.62999
 20
4.13992
 30
0.0
 40
0.0104167
 41
0.0104167
  0
VERTEX
  8
0
 10
8.62999
 20
3.51492
 30
0.0
 40
0.0104167
 41
0.0104167
  0
VERTEX
  8
0
 10
6.72499
 20
3.51492
 30
0.0
 40
0.0104167
 41
0.0104167
  0
VERTEX
  8
0
 10
6.72499
 20
4.13992
 30
0.0
 40
0.0104167
 41
0.0104167
  0
SEQEND
 8
0
  0
POLYLINE
  8
0
 62
     7
 66
     1
 10
0
 20
0
 30
0.0
 70
     1
 40
0
 41
0
  0
VERTEX
  8
0
 10
7.98421
 20
4.13992
 30
0.0
 40
0
 41
0
  0
VERTEX
  8
0
 10
8.60921
 20
4.13992
 30
0.0
 40
0
 41
0
  0
VERTEX
  8
0
 10
8.60921
 20
3.51492
 30
0.0
 40
0
 41
0
  0
VERTEX
  8
0
 10
7.98421
 20
3.51492
 30
0.0
 40
0
 41
0
  0
VERTEX
  8
0
 10
7.98421
 20
4.13992
 30
0.0
 40
0
 41
0
  0
SEQEND
 8
0
  0
POLYLINE
  8
0
 62
     0
 66
     1
 10
0
 20
0
 30
0.0
 70
     1
 40
0.75
 41
0.75
  0
VERTEX
  8
0
 10
7.98421
 20
4.13992
 30
0.0
 40
0.0104167
 41
0.0104167
  0
VERTEX
  8
0
 10
8.60921
 20
4.13992
 30
0.0
 40
0.0104167
 41
0.0104167
  0
VERTEX
  8
0
 10
8.60921
 20
3.51492
 30
0.0
 40
0.0104167
 41
0.0104167
  0
VERTEX
  8
0
 10
7.98421
 20
3.51492
 30
0.0
 40
0.0104167
 41
0.0104167
  0
VERTEX
  8
0
 10
7.98421
 20
4.13992
 30
0.0
 40
0.0104167
 41
0.0104167
  0
SEQEND
 8
0
  0
POLYLINE
  8
0
 62
     0
 66
     1
 10
0
 20
0
 30
0.0
 40
0.75
 41
0.75
  0
VERTEX
  8
0
 10
7.98421
 20
4.13992
 30
0.0
 40
0.0104167
 41
0.0104167
  0
VERTEX
  8
0
 10
8.29775
 20
3.72537
 30
0.0
 40
0.0104167
 41
0.0104167
  0
VERTEX
  8
0
 10
8.29775
 20
3.93788
 30
0.0
 40
0.0104167
 41
0.0104167
  0
VERTEX
  8
0
 10
8.60812
 20
3.51492
 30
0.0
 40
0.0104167
 41
0.0104167
  0
SEQEND
 8
0
  0
POLYLINE
  8
0
 62
     7
 66
     1
 10
0
 20
0
 30
0.0
 70
     1
 40
0
 41
0
  0
VERTEX
  8
0
 10
7.28771
 20
4.03683
 30
0.0
 40
0
 41
0
  0
VERTEX
  8
0
 10
7.49149
 20
4.03683
 30
0.0
 40
0
 41
0
  0
VERTEX
  8
0
 10
7.49149
 20
3.56808
 30
0.0
 40
0
 41
0
  0
VERTEX
  8
0
 10
7.28771
 20
3.56808
 30
0.0
 40
0
 41
0
  0
VERTEX
  8
0
 10
7.28771
 20
4.03683
 30
0.0
 40
0
 41
0
  0
SEQEND
 8
0
  0
POLYLINE
  8
0
 62
     0
 66
     1
 10
0
 20
0
 30
0.0
 70
     1
 40
0.75
 41
0.75
  0
VERTEX
  8
0
 10
7.28771
 20
4.03683
 30
0.0
 40
0.0104167
 41
0.0104167
  0
VERTEX
  8
0
 10
7.49149
 20
4.03683
 30
0.0
 40
0.0104167
 41
0.0104167
  0
VERTEX
  8
0
 10
7.49149
 20
3.56808
 30
0.0
 40
0.0104167
 41
0.0104167
  0
VERTEX
  8
0
 10
7.28771
 20
3.56808
 30
0.0
 40
0.0104167
 41
0.0104167
  0
VERTEX
  8
0
 10
7.28771
 20
4.03683
 30
0.0
 40
0.0104167
 41
0.0104167
  0
SEQEND
 8
0
  0
POLYLINE
  8
0
 62
     7
 66
     1
 10
0
 20
0
 30
0.0
 70
     1
 40
0
 41
0
  0
VERTEX
  8
0
 10
7.52208
 20
4.03575
 30
0.0
 40
0
 41
0
  0
VERTEX
  8
0
 10
7.89908
 20
4.03575
 30
0.0
 40
0
 41
0
  0
VERTEX
  8
0
 10
7.89908
 20
3.567
 30
0.0
 40
0
 41
0
  0
VERTEX
  8
0
 10
7.52208
 20
3.567
 30
0.0
 40
0
 41
0
  0
VERTEX
  8
0
 10
7.52208
 20
4.03575
 30
0.0
 40
0
 41
0
  0
SEQEND
 8
0
  0
POLYLINE
  8
0
 62
     0
 66
     1
 10
0
 20
0
 30
0.0
 70
     1
 40
0.75
 41
0.75
  0
VERTEX
  8
0
 10
7.52208
 20
4.03575
 30
0.0
 40
0.0104167
 41
0.0104167
  0
VERTEX
  8
0
 10
7.89908
 20
4.03575
 30
0.0
 40
0.0104167
 41
0.0104167
  0
VERTEX
  8
0
 10
7.89908
 20
3.567
 30
0.0
 40
0.0104167
 41
0.0104167
  0
VERTEX
  8
0
 10
7.52208
 20
3.567
 30
0.0
 40
0.0104167
 41
0.0104167
  0
VERTEX
  8
0
 10
7.52208
 20
4.03575
 30
0.0
 40
0.0104167
 41
0.0104167
  0
SEQEND
 8
0
  0
POLYLINE
  8
0
 62
     7
 66
     1
 10
0
 20
0
 30
0.0
 70
     1
 40
0
 41
0
  0
VERTEX
  8
0
 10
7.42611
 20
3.80138
 30
0.0
 40
0
 41
0
  0
VERTEX
  8
0
 10
7.42611
 20
3.79497
 30
0.0
 40
0
 41
0
  0
VERTEX
  8
0
 10
7.41542
 20
3.77561
 30
0.0
 40
0
 41
0
  0
VERTEX
  8
0
 10
7.39606
 20
3.76492
 30
0.0
 40
0
 41
0
  0
VERTEX
  8
0
 10
7.38965
 20
3.76492
 30
0.0
 40
0
 41
0
  0
VERTEX
  8
0
 10
7.38319
 20
3.76492
 30
0.0
 40
0
 41
0
  0
VERTEX
  8
0
 10
7.36382
 20
3.77561
 30
0.0
 40
0
 41
0
  0
VERTEX
  8
0
 10
7.35319
 20
3.79497
 30
0.0
 40
0
 41
0
  0
VERTEX
  8
0
 10
7.35319
 20
3.80138
 30
0.0
 40
0
 41
0
  0
VERTEX
  8
0
 10
7.35319
 20
3.80783
 30
0.0
 40
0
 41
0
  0
VERTEX
  8
0
 10
7.36382
 20
3.82721
 30
0.0
 40
0
 41
0
  0
VERTEX
  8
0
 10
7.38319
 20
3.83783
 30
0.0
 40
0
 41
0
  0
VERTEX
  8
0
 10
7.38965
 20
3.83783
 30
0.0
 40
0
 41
0
  0
VERTEX
  8
0
 10
7.39606
 20
3.83783
 30
0.0
 40
0
 41
0
  0
VERTEX
  8
0
 10
7.41542
 20
3.82721
 30
0.0
 40
0
 41
0
  0
VERTEX
  8
0
 10
7.42611
 20
3.80783
 30
0.0
 40
0
 41
0
  0
VERTEX
  8
0
 10
7.42611
 20
3.80138
 30
0.0
 40
0
 41
0
  0
SEQEND
 8
0
  0
POLYLINE
  8
0
 62
     0
 66
     1
 10
0
 20
0
 30
0.0
 70
     1
 40
0.6
 41
0.6
  0
VERTEX
  8
0
 10
7.42611
 20
3.80138
 30
0.0
 40
0.00833333
 41
0.00833333
  0
VERTEX
  8
0
 10
7.42611
 20
3.79497
 30
0.0
 40
0.00833333
 41
0.00833333
  0
VERTEX
  8
0
 10
7.41542
 20
3.77561
 30
0.0
 40
0.00833333
 41
0.00833333
  0
VERTEX
  8
0
 10
7.39606
 20
3.76492
 30
0.0
 40
0.00833333
 41
0.00833333
  0
VERTEX
  8
0
 10
7.38965
 20
3.76492
 30
0.0
 40
0.00833333
 41
0.00833333
  0
VERTEX
  8
0
 10
7.38319
 20
3.76492
 30
0.0
 40
0.00833333
 41
0.00833333
  0
VERTEX
  8
0
 10
7.36382
 20
3.77561
 30
0.0
 40
0.00833333
 41
0.00833333
  0
VERTEX
  8
0
 10
7.35319
 20
3.79497
 30
0.0
 40
0.00833333
 41
0.00833333
  0
VERTEX
  8
0
 10
7.35319
 20
3.80138
 30
0.0
 40
0.00833333
 41
0.00833333
  0
VERTEX
  8
0
 10
7.35319
 20
3.80783
 30
0.0
 40
0.00833333
 41
0.00833333
  0
VERTEX
  8
0
 10
7.36382
 20
3.82721
 30
0.0
 40
0.00833333
 41
0.00833333
  0
VERTEX
  8
0
 10
7.38319
 20
3.83783
 30
0.0
 40
0.00833333
 41
0.00833333
  0
VERTEX
  8
0
 10
7.38965
 20
3.83783
 30
0.0
 40
0.00833333
 41
0.00833333
  0
VERTEX
  8
0
 10
7.39606
 20
3.83783
 30
0.0
 40
0.00833333
 41
0.00833333
  0
VERTEX
  8
0
 10
7.41542
 20
3.82721
 30
0.0
 40
0.00833333
 41
0.00833333
  0
VERTEX
  8
0
 10
7.42611
 20
3.80783
 30
0.0
 40
0.00833333
 41
0.00833333
  0
VERTEX
  8
0
 10
7.42611
 20
3.80138
 30
0.0
 40
0.00833333
 41
0.00833333
  0
SEQEND
 8
0
  0
POLYLINE
  8
0
 62
     7
 66
     1
 10
0
 20
0
 30
0.0
 70
     1
 40
0
 41
0
  0
VERTEX
  8
0
 10
7.74192
 20
3.80138
 30
0.0
 40
0
 41
0
  0
VERTEX
  8
0
 10
7.74192
 20
3.79497
 30
0.0
 40
0
 41
0
  0
VERTEX
  8
0
 10
7.73122
 20
3.77561
 30
0.0
 40
0
 41
0
  0
VERTEX
  8
0
 10
7.71186
 20
3.76492
 30
0.0
 40
0
 41
0
  0
VERTEX
  8
0
 10
7.70546
 20
3.76492
 30
0.0
 40
0
 41
0
  0
VERTEX
  8
0
 10
7.699
 20
3.76492
 30
0.0
 40
0
 41
0
  0
VERTEX
  8
0
 10
7.67964
 20
3.77561
 30
0.0
 40
0
 41
0
  0
VERTEX
  8
0
 10
7.669
 20
3.79497
 30
0.0
 40
0
 41
0
  0
VERTEX
  8
0
 10
7.669
 20
3.80138
 30
0.0
 40
0
 41
0
  0
VERTEX
  8
0
 10
7.669
 20
3.80783
 30
0.0
 40
0
 41
0
  0
VERTEX
  8
0
 10
7.67964
 20
3.82721
 30
0.0
 40
0
 41
0
  0
VERTEX
  8
0
 10
7.699
 20
3.83783
 30
0.0
 40
0
 41
0
  0
VERTEX
  8
0
 10
7.70546
 20
3.83783
 30
0.0
 40
0
 41
0
  0
VERTEX
  8
0
 10
7.71186
 20
3.83783
 30
0.0
 40
0
 41
0
  0
VERTEX
  8
0
 10
7.73122
 20
3.82721
 30
0.0
 40
0
 41
0
  0
VERTEX
  8
0
 10
7.74192
 20
3.80783
 30
0.0
 40
0
 41
0
  0
VERTEX
  8
0
 10
7.74192
 20
3.80138
 30
0.0
 40
0
 41
0
  0
SEQEND
 8
0
  0
POLYLINE
  8
0
 62
     0
 66
     1
 10
0
 20
0
 30
0.0
 70
     1
 40
0.6
 41
0.6
  0
VERTEX
  8
0
 10
7.74192
 20
3.80138
 30
0.0
 40
0.00833333
 41
0.00833333
  0
VERTEX
  8
0
 10
7.74192
 20
3.79497
 30
0.0
 40
0.00833333
 41
0.00833333
  0
VERTEX
  8
0
 10
7.73122
 20
3.77561
 30
0.0
 40
0.00833333
 41
0.00833333
  0
VERTEX
  8
0
 10
7.71186
 20
3.76492
 30
0.0
 40
0.00833333
 41
0.00833333
  0
VERTEX
  8
0
 10
7.70546
 20
3.76492
 30
0.0
 40
0.00833333
 41
0.00833333
  0
VERTEX
  8
0
 10
7.699
 20
3.76492
 30
0.0
 40
0.00833333
 41
0.00833333
  0
VERTEX
  8
0
 10
7.67964
 20
3.77561
 30
0.0
 40
0.00833333
 41
0.00833333
  0
VERTEX
  8
0
 10
7.669
 20
3.79497
 30
0.0
 40
0.00833333
 41
0.00833333
  0
VERTEX
  8
0
 10
7.669
 20
3.80138
 30
0.0
 40
0.00833333
 41
0.00833333
  0
VERTEX
  8
0
 10
7.669
 20
3.80783
 30
0.0
 40
0.00833333
 41
0.00833333
  0
VERTEX
  8
0
 10
7.67964
 20
3.82721
 30
0.0
 40
0.00833333
 41
0.00833333
  0
VERTEX
  8
0
 10
7.699
 20
3.83783
 30
0.0
 40
0.00833333
 41
0.00833333
  0
VERTEX
  8
0
 10
7.70546
 20
3.83783
 30
0.0
 40
0.00833333
 41
0.00833333
  0
VERTEX
  8
0
 10
7.71186
 20
3.83783
 30
0.0
 40
0.00833333
 41
0.00833333
  0
VERTEX
  8
0
 10
7.73122
 20
3.82721
 30
0.0
 40
0.00833333
 41
0.00833333
  0
VERTEX
  8
0
 10
7.74192
 20
3.80783
 30
0.0
 40
0.00833333
 41
0.00833333
  0
VERTEX
  8
0
 10
7.74192
 20
3.80138
 30
0.0
 40
0.00833333
 41
0.00833333
  0
SEQEND
 8
0
  0
POLYLINE
  8
0
 62
     7
 66
     1
 10
0
 20
0
 30
0.0
 70
     1
 40
0
 41
0
  0
VERTEX
  8
0
 10
7.41049
 20
3.80138
 30
0.0
 40
0
 41
0
  0
VERTEX
  8
0
 10
7.41049
 20
3.79775
 30
0.0
 40
0
 41
0
  0
VERTEX
  8
0
 10
7.40435
 20
3.78668
 30
0.0
 40
0
 41
0
  0
VERTEX
  8
0
 10
7.39328
 20
3.78054
 30
0.0
 40
0
 41
0
  0
VERTEX
  8
0
 10
7.38965
 20
3.78054
 30
0.0
 40
0
 41
0
  0
VERTEX
  8
0
 10
7.38596
 20
3.78054
 30
0.0
 40
0
 41
0
  0
VERTEX
  8
0
 10
7.37489
 20
3.78668
 30
0.0
 40
0
 41
0
  0
VERTEX
  8
0
 10
7.36882
 20
3.79775
 30
0.0
 40
0
 41
0
  0
VERTEX
  8
0
 10
7.36882
 20
3.80138
 30
0.0
 40
0
 41
0
  0
VERTEX
  8
0
 10
7.36882
 20
3.80507
 30
0.0
 40
0
 41
0
  0
VERTEX
  8
0
 10
7.37489
 20
3.81614
 30
0.0
 40
0
 41
0
  0
VERTEX
  8
0
 10
7.38596
 20
3.82221
 30
0.0
 40
0
 41
0
  0
VERTEX
  8
0
 10
7.38965
 20
3.82221
 30
0.0
 40
0
 41
0
  0
VERTEX
  8
0
 10
7.39328
 20
3.82221
 30
0.0
 40
0
 41
0
  0
VERTEX
  8
0
 10
7.40435
 20
3.81614
 30
0.0
 40
0
 41
0
  0
VERTEX
  8
0
 10
7.41049
 20
3.80507
 30
0.0
 40
0
 41
0
  0
VERTEX
  8
0
 10
7.41049
 20
3.80138
 30
0.0
 40
0
 41
0
  0
SEQEND
 8
0
  0
POLYLINE
  8
0
 62
     0
 66
     1
 10
0
 20
0
 30
0.0
 70
     1
 40
0.6
 41
0.6
  0
VERTEX
  8
0
 10
7.41049
 20
3.80138
 30
0.0
 40
0.00833333
 41
0.00833333
  0
VERTEX
  8
0
 10
7.41049
 20
3.79775
 30
0.0
 40
0.00833333
 41
0.00833333
  0
VERTEX
  8
0
 10
7.40435
 20
3.78668
 30
0.0
 40
0.00833333
 41
0.00833333
  0
VERTEX
  8
0
 10
7.39328
 20
3.78054
 30
0.0
 40
0.00833333
 41
0.00833333
  0
VERTEX
  8
0
 10
7.38965
 20
3.78054
 30
0.0
 40
0.00833333
 41
0.00833333
  0
VERTEX
  8
0
 10
7.38596
 20
3.78054
 30
0.0
 40
0.00833333
 41
0.00833333
  0
VERTEX
  8
0
 10
7.37489
 20
3.78668
 30
0.0
 40
0.00833333
 41
0.00833333
  0
VERTEX
  8
0
 10
7.36882
 20
3.79775
 30
0.0
 40
0.00833333
 41
0.00833333
  0
VERTEX
  8
0
 10
7.36882
 20
3.80138
 30
0.0
 40
0.00833333
 41
0.00833333
  0
VERTEX
  8
0
 10
7.36882
 20
3.80507
 30
0.0
 40
0.00833333
 41
0.00833333
  0
VERTEX
  8
0
 10
7.37489
 20
3.81614
 30
0.0
 40
0.00833333
 41
0.00833333
  0
VERTEX
  8
0
 10
7.38596
 20
3.82221
 30
0.0
 40
0.00833333
 41
0.00833333
  0
VERTEX
  8
0
 10
7.38965
 20
3.82221
 30
0.0
 40
0.00833333
 41
0.00833333
  0
VERTEX
  8
0
 10
7.39328
 20
3.82221
 30
0.0
 40
0.00833333
 41
0.00833333
  0
VERTEX
  8
0
 10
7.40435
 20
3.81614
 30
0.0
 40
0.00833333
 41
0.00833333
  0
VERTEX
  8
0
 10
7.41049
 20
3.80507
 30
0.0
 40
0.00833333
 41
0.00833333
  0
VERTEX
  8
0
 10
7.41049
 20
3.80138
 30
0.0
 40
0.00833333
 41
0.00833333
  0
SEQEND
 8
0
  0
POLYLINE
  8
0
 62
     7
 66
     1
 10
0
 20
0
 30
0.0
 70
     1
 40
0
 41
0
  0
VERTEX
  8
0
 10
7.72629
 20
3.80138
 30
0.0
 40
0
 41
0
  0
VERTEX
  8
0
 10
7.72629
 20
3.79775
 30
0.0
 40
0
 41
0
  0
VERTEX
  8
0
 10
7.72017
 20
3.78668
 30
0.0
 40
0
 41
0
  0
VERTEX
  8
0
 10
7.7091
 20
3.78054
 30
0.0
 40
0
 41
0
  0
VERTEX
  8
0
 10
7.70546
 20
3.78054
 30
0.0
 40
0
 41
0
  0
VERTEX
  8
0
 10
7.70176
 20
3.78054
 30
0.0
 40
0
 41
0
  0
VERTEX
  8
0
 10
7.69069
 20
3.78668
 30
0.0
 40
0
 41
0
  0
VERTEX
  8
0
 10
7.68463
 20
3.79775
 30
0.0
 40
0
 41
0
  0
VERTEX
  8
0
 10
7.68463
 20
3.80138
 30
0.0
 40
0
 41
0
  0
VERTEX
  8
0
 10
7.68463
 20
3.80507
 30
0.0
 40
0
 41
0
  0
VERTEX
  8
0
 10
7.69069
 20
3.81614
 30
0.0
 40
0
 41
0
  0
VERTEX
  8
0
 10
7.70176
 20
3.82221
 30
0.0
 40
0
 41
0
  0
VERTEX
  8
0
 10
7.70546
 20
3.82221
 30
0.0
 40
0
 41
0
  0
VERTEX
  8
0
 10
7.7091
 20
3.82221
 30
0.0
 40
0
 41
0
  0
VERTEX
  8
0
 10
7.72017
 20
3.81614
 30
0.0
 40
0
 41
0
  0
VERTEX
  8
0
 10
7.72629
 20
3.80507
 30
0.0
 40
0
 41
0
  0
VERTEX
  8
0
 10
7.72629
 20
3.80138
 30
0.0
 40
0
 41
0
  0
SEQEND
 8
0
  0
POLYLINE
  8
0
 62
     0
 66
     1
 10
0
 20
0
 30
0.0
 70
     1
 40
0.6
 41
0.6
  0
VERTEX
  8
0
 10
7.72629
 20
3.80138
 30
0.0
 40
0.00833333
 41
0.00833333
  0
VERTEX
  8
0
 10
7.72629
 20
3.79775
 30
0.0
 40
0.00833333
 41
0.00833333
  0
VERTEX
  8
0
 10
7.72017
 20
3.78668
 30
0.0
 40
0.00833333
 41
0.00833333
  0
VERTEX
  8
0
 10
7.7091
 20
3.78054
 30
0.0
 40
0.00833333
 41
0.00833333
  0
VERTEX
  8
0
 10
7.70546
 20
3.78054
 30
0.0
 40
0.00833333
 41
0.00833333
  0
VERTEX
  8
0
 10
7.70176
 20
3.78054
 30
0.0
 40
0.00833333
 41
0.00833333
  0
VERTEX
  8
0
 10
7.69069
 20
3.78668
 30
0.0
 40
0.00833333
 41
0.00833333
  0
VERTEX
  8
0
 10
7.68463
 20
3.79775
 30
0.0
 40
0.00833333
 41
0.00833333
  0
VERTEX
  8
0
 10
7.68463
 20
3.80138
 30
0.0
 40
0.00833333
 41
0.00833333
  0
VERTEX
  8
0
 10
7.68463
 20
3.80507
 30
0.0
 40
0.00833333
 41
0.00833333
  0
VERTEX
  8
0
 10
7.69069
 20
3.81614
 30
0.0
 40
0.00833333
 41
0.00833333
  0
VERTEX
  8
0
 10
7.70176
 20
3.82221
 30
0.0
 40
0.00833333
 41
0.00833333
  0
VERTEX
  8
0
 10
7.70546
 20
3.82221
 30
0.0
 40
0.00833333
 41
0.00833333
  0
VERTEX
  8
0
 10
7.7091
 20
3.82221
 30
0.0
 40
0.00833333
 41
0.00833333
  0
VERTEX
  8
0
 10
7.72017
 20
3.81614
 30
0.0
 40
0.00833333
 41
0.00833333
  0
VERTEX
  8
0
 10
7.72629
 20
3.80507
 30
0.0
 40
0.00833333
 41
0.00833333
  0
VERTEX
  8
0
 10
7.72629
 20
3.80138
 30
0.0
 40
0.00833333
 41
0.00833333
  0
SEQEND
 8
0
  0
POLYLINE
  8
0
 62
     7
 66
     1
 10
0
 20
0
 30
0.0
 70
     1
 40
0
 41
0
  0
VERTEX
  8
0
 10
7.56282
 20
4.08892
 30
0.0
 40
0
 41
0
  0
VERTEX
  8
0
 10
7.62532
 20
4.08892
 30
0.0
 40
0
 41
0
  0
VERTEX
  8
0
 10
7.62532
 20
3.94308
 30
0.0
 40
0
 41
0
  0
VERTEX
  8
0
 10
7.56282
 20
3.94308
 30
0.0
 40
0
 41
0
  0
VERTEX
  8
0
 10
7.56282
 20
4.08892
 30
0.0
 40
0
 41
0
  0
SEQEND
 8
0
  0
POLYLINE
  8
0
 62
     0
 66
     1
 10
0
 20
0
 30
0.0
 70
     1
 40
0.75
 41
0.75
  0
VERTEX
  8
0
 10
7.56282
 20
4.08892
 30
0.0
 40
0.0104167
 41
0.0104167
  0
VERTEX
  8
0
 10
7.62532
 20
4.08892
 30
0.0
 40
0.0104167
 41
0.0104167
  0
VERTEX
  8
0
 10
7.62532
 20
3.94308
 30
0.0
 40
0.0104167
 41
0.0104167
  0
VERTEX
  8
0
 10
7.56282
 20
3.94308
 30
0.0
 40
0.0104167
 41
0.0104167
  0
VERTEX
  8
0
 10
7.56282
 20
4.08892
 30
0.0
 40
0.0104167
 41
0.0104167
  0
SEQEND
 8
0
  0
POLYLINE
  8
0
 62
     0
 66
     1
 10
0
 20
0
 30
0.0
 70
     1
 40
0.75
 41
0.75
  0
VERTEX
  8
0
 10
7.29699
 20
4.13992
 30
0.0
 40
0.0104167
 41
0.0104167
  0
VERTEX
  8
0
 10
8.62999
 20
4.13992
 30
0.0
 40
0.0104167
 41
0.0104167
  0
VERTEX
  8
0
 10
8.62999
 20
3.82742
 30
0.0
 40
0.0104167
 41
0.0104167
  0
VERTEX
  8
0
 10
7.29699
 20
3.82742
 30
0.0
 40
0.0104167
 41
0.0104167
  0
VERTEX
  8
0
 10
7.29699
 20
4.13992
 30
0.0
 40
0.0104167
 41
0.0104167
  0
SEQEND
 8
0
  0
POLYLINE
  8
0
 62
     7
 66
     1
 10
0
 20
0
 30
0.0
 70
     1
 40
0
 41
0
  0
VERTEX
  8
0
 10
9.84039
 20
3.82389
 30
0.0
 40
0
 41
0
  0
VERTEX
  8
0
 10
10.4654
 20
3.82389
 30
0.0
 40
0
 41
0
  0
VERTEX
  8
0
 10
10.4654
 20
3.16536
 30
0.0
 40
0
 41
0
  0
VERTEX
  8
0
 10
9.84039
 20
3.16536
 30
0.0
 40
0
 41
0
  0
VERTEX
  8
0
 10
9.84039
 20
3.82389
 30
0.0
 40
0
 41
0
  0
SEQEND
 8
0
  0
POLYLINE
  8
0
 62
     0
 66
     1
 10
0
 20
0
 30
0.0
 70
     1
 40
0.75
 41
0.75
  0
VERTEX
  8
0
 10
9.84039
 20
3.82389
 30
0.0
 40
0.0104167
 41
0.0104167
  0
VERTEX
  8
0
 10
9.84039
 20
3.16536
 30
0.0
 40
0.0104167
 41
0.0104167
  0
VERTEX
  8
0
 10
10.4654
 20
3.16536
 30
0.0
 40
0.0104167
 41
0.0104167
  0
VERTEX
  8
0
 10
10.4654
 20
3.82389
 30
0.0
 40
0.0104167
 41
0.0104167
  0
VERTEX
  8
0
 10
9.84039
 20
3.82389
 30
0.0
 40
0.0104167
 41
0.0104167
  0
SEQEND
 8
0
  0
POLYLINE
  8
0
 62
     7
 66
     1
 10
0
 20
0
 30
0.0
 70
     1
 40
0
 41
0
  0
VERTEX
  8
0
 10
9.84039
 20
3.16542
 30
0.0
 40
0
 41
0
  0
VERTEX
  8
0
 10
10.4654
 20
3.16542
 30
0.0
 40
0
 41
0
  0
VERTEX
  8
0
 10
10.4654
 20
1.89529
 30
0.0
 40
0
 41
0
  0
VERTEX
  8
0
 10
9.84039
 20
1.89529
 30
0.0
 40
0
 41
0
  0
VERTEX
  8
0
 10
9.84039
 20
3.16542
 30
0.0
 40
0
 41
0
  0
SEQEND
 8
0
  0
POLYLINE
  8
0
 62
     0
 66
     1
 10
0
 20
0
 30
0.0
 70
     1
 40
0.75
 41
0.75
  0
VERTEX
  8
0
 10
9.84039
 20
3.16542
 30
0.0
 40
0.0104167
 41
0.0104167
  0
VERTEX
  8
0
 10
9.84039
 20
1.89529
 30
0.0
 40
0.0104167
 41
0.0104167
  0
VERTEX
  8
0
 10
10.4654
 20
1.89529
 30
0.0
 40
0.0104167
 41
0.0104167
  0
VERTEX
  8
0
 10
10.4654
 20
3.16542
 30
0.0
 40
0.0104167
 41
0.0104167
  0
VERTEX
  8
0
 10
9.84039
 20
3.16542
 30
0.0
 40
0.0104167
 41
0.0104167
  0
SEQEND
 8
0
  0
POLYLINE
  8
0
 62
     253
 66
     1
 10
0
 20
0
 30
0.0
 40
0.75
 41
0.75
  0
VERTEX
  8
0
 10
10.1529
 20
3.16542
 30
0.0
 40
0.0104167
 41
0.0104167
  0
VERTEX
  8
0
 10
10.1529
 20
1.89529
 30
0.0
 40
0.0104167
 41
0.0104167
  0
SEQEND
 8
0
  0
POLYLINE
  8
0
 62
     7
 66
     1
 10
0
 20
0
 30
0.0
 70
     1
 40
0
 41
0
  0
VERTEX
  8
0
 10
9.84039
 20
1.89529
 30
0.0
 40
0
 41
0
  0
VERTEX
  8
0
 10
10.4654
 20
1.89529
 30
0.0
 40
0
 41
0
  0
VERTEX
  8
0
 10
10.4654
 20
1.48622
 30
0.0
 40
0
 41
0
  0
VERTEX
  8
0
 10
9.84039
 20
1.48622
 30
0.0
 40
0
 41
0
  0
VERTEX
  8
0
 10
9.84039
 20
1.89529
 30
0.0
 40
0
 41
0
  0
SEQEND
 8
0
  0
POLYLINE
  8
0
 62
     0
 66
     1
 10
0
 20
0
 30
0.0
 70
     1
 40
0.75
 41
0.75
  0
VERTEX
  8
0
 10
9.84039
 20
1.89529
 30
0.0
 40
0.0104167
 41
0.0104167
  0
VERTEX
  8
0
 10
9.84039
 20
1.48622
 30
0.0
 40
0.0104167
 41
0.0104167
  0
VERTEX
  8
0
 10
10.4654
 20
1.48622
 30
0.0
 40
0.0104167
 41
0.0104167
  0
VERTEX
  8
0
 10
10.4654
 20
1.89529
 30
0.0
 40
0.0104167
 41
0.0104167
  0
VERTEX
  8
0
 10
9.84039
 20
1.89529
 30
0.0
 40
0.0104167
 41
0.0104167
  0
SEQEND
 8
0
  0
ENDSEC
  0
EOF
