<?xml version="1.0"?>
<svg xmlns="http://www.w3.org/2000/svg" xmlns:xlink="http://www.w3.org/1999/xlink" height="1103.249984741211" version="1.1" width="1069.0827331542969" id="temp" viewBox="0 0 1069.0827331542969 1103.249984741211"><defs/><g id="Model" class="Model v1-1"><g class="Floor"><g id="Floor-1" class="Floorplan Floor-1"><g id="2fd0bf10-78af-4b91-82f1-be806ac25b71" fill="#ffffff" stroke="#000000" style="fill-opacity: 1; stroke-opacity: 1; stroke-width: 0.2;" class="Space Outdoor"><polygon points="542.38,1103.25 542.38,933.62 693.45,933.62 692.80,1103.25 542.38,1103.25 542.38,1103.25 "/><g transform="matrix(1,0,0,1,542.38,933.6215)" class="Dimension"><g transform="matrix(1,0,0,1,0,0)" style="display: none;" class="Visual"><g id="mark1" fill="#000000" stroke="none" transform="matrix(1,0,0,1,75.5349,0)" style="fill-opacity: 1; pointer-events: visible;" class="DimensionMark"><polygon points="-5,5,0,0,5,5"/></g><g id="mark2" fill="#000000" stroke="none" transform="matrix(1,0,0,1,150.7448,84.813)" style="fill-opacity: 1; pointer-events: visible;" class="DimensionMark"><polygon points="-5,-5,0,0,-5,5"/></g><g id="mark3" fill="#000000" stroke="none" transform="matrix(1,0,0,1,75.5349,169.6285)" style="fill-opacity: 1; pointer-events: visible;" class="DimensionMark"><polygon points="-5,-5,0,0,5,-5"/></g><g id="mark4" fill="#000000" stroke="none" transform="matrix(1,0,0,1,0,84.813)" style="fill-opacity: 1; pointer-events: visible;" class="DimensionMark"><polygon points="5,5,0,0,5,-5"/></g></g><g transform="matrix(1,0,0,1,75.3725,84.7533)" class="SpaceDimensionsLabel"><g id="NameLabel" style="display: block;" class="TextLabel NameLabel"><text x="0" y="0em" fill="#000000" stroke="none" style="font-family: Verdana; font-size: 33px; fill-opacity: 1; cursor: default;">ULKOTILA</text></g><g id="DimensionMeasureLabel" transform="matrix(1,0,0,1,-57.0235,79.0781)" style="display: none;" class="TextLabel DimensionMeasureLabel"><text x="42.1796875" y="-1.2em" fill="#000000" stroke="none" style="font-family: Verdana; font-size: 33px; fill-opacity: 1; cursor: default;">4'11" x 5'7"</text><text x="0" y="0em" fill="#000000" stroke="none" style="font-family: Verdana; font-size: 33px; fill-opacity: 1; cursor: default;">1.51 m x 1.70 m</text></g></g></g></g><g id="80083032-78a4-4b2a-addb-8238b041cfde" fill="#ffffff" stroke="#ffffff" style="fill-opacity: 1; stroke-opacity: 1; stroke-width: 0.2;" class="Space Kitchen Open"><polygon points="707.29,187.82 707.29,382.51 678.15,382.51 678.15,546.22 707.29,546.22 707.00,703.00 194.40,703.00 194.40,187.28 "/><g transform="matrix(1,0,0,1,194.4047,187.5519)" class="Dimension"><g transform="matrix(1,0,0,1,0,0)" style="display: none;" class="Visual"><g id="mark1" fill="#000000" stroke="none" transform="matrix(1,0,0,1,256.4416,0)" style="fill-opacity: 1; pointer-events: visible;" class="DimensionMark"><polygon points="-5,5,0,0,5,5"/></g><g id="mark2" fill="#000000" stroke="none" transform="matrix(1,0,0,1,483.7451,257.5884)" style="fill-opacity: 1; pointer-events: visible;" class="DimensionMark"><polygon points="-5,-5,0,0,-5,5"/></g><g id="mark3" fill="#000000" stroke="none" transform="matrix(1,0,0,1,256.4416,515.4476)" style="fill-opacity: 1; pointer-events: visible;" class="DimensionMark"><polygon points="-5,-5,0,0,5,-5"/></g><g id="mark4" fill="#000000" stroke="none" transform="matrix(1,0,0,1,0,257.5884)" style="fill-opacity: 1; pointer-events: visible;" class="DimensionMark"><polygon points="5,5,0,0,5,-5"/></g></g><g transform="matrix(1,0,0,1,75.3638,267.5736)" class="SpaceDimensionsLabel" style="display: block;"><g id="NameLabel" style="display: block;" class="TextLabel NameLabel"><text x="0" y="0em" fill="#000000" stroke="none" style="font-family: Verdana; font-size: 33px; fill-opacity: 1; cursor: default;">TUPAKEITTI&#xD6;</text></g><g id="DimensionMeasureLabel" transform="matrix(1,0,0,1,-28.7734,79.9375)" style="display: none;" class="TextLabel DimensionMeasureLabel"><text x="10.71875" y="-1.2em" fill="#000000" stroke="none" style="font-family: Verdana; font-size: 33px; fill-opacity: 1; cursor: default;">15'10" x 16'11"</text><text x="0" y="0em" fill="#000000" stroke="none" style="font-family: Verdana; font-size: 33px; fill-opacity: 1; cursor: default;">4.84 m x 5.15 m</text></g></g></g></g><g id="e7c5adf6-2f9c-4d2b-a036-99b7cb234cb4" fill="#ffffff" stroke="#ffffff" style="fill-opacity: 1; stroke-opacity: 1; stroke-width: 0.2;" class="Space Bedroom"><polygon points="1039.08,703.26 739.75,703.26 722.00,703.00 722.29,350.61 1039.08,350.61 "/><g transform="matrix(1,0,0,1,722.1441,350.6121)" class="Dimension"><g transform="matrix(1,0,0,1,0,0)" style="display: none;" class="Visual"><g id="mark1" fill="#000000" stroke="none" transform="matrix(1,0,0,1,158.3973,0)" style="fill-opacity: 1; pointer-events: visible;" class="DimensionMark"><polygon points="-5,5,0,0,5,5"/></g><g id="mark2" fill="#000000" stroke="none" transform="matrix(1,0,0,1,316.9387,176.323)" style="fill-opacity: 1; pointer-events: visible;" class="DimensionMark"><polygon points="-5,-5,0,0,-5,5"/></g><g id="mark3" fill="#000000" stroke="none" transform="matrix(1,0,0,1,158.3973,352.6457)" style="fill-opacity: 1; pointer-events: visible;" class="DimensionMark"><polygon points="-5,-5,0,0,5,-5"/></g><g id="mark4" fill="#000000" stroke="none" transform="matrix(1,0,0,1,0,176.323)" style="fill-opacity: 1; pointer-events: visible;" class="DimensionMark"><polygon points="5,5,0,0,5,-5"/></g></g><g transform="matrix(1,0,0,1,134.0277,214.8032)" class="SpaceDimensionsLabel" style="display: block;"><g id="NameLabel" style="display: block;" class="TextLabel NameLabel"><text x="0" y="0em" fill="#000000" stroke="none" style="font-family: Verdana; font-size: 33px; fill-opacity: 1; cursor: default;">MH</text></g><g id="DimensionMeasureLabel" transform="matrix(1,0,0,1,-113.6328,80.6407)" style="display: none;" class="TextLabel DimensionMeasureLabel"><text x="31.671875" y="-1.2em" fill="#000000" stroke="none" style="font-family: Verdana; font-size: 33px; fill-opacity: 1; cursor: default;">10'5" x 11'7"</text><text x="0" y="0em" fill="#000000" stroke="none" style="font-family: Verdana; font-size: 33px; fill-opacity: 1; cursor: default;">3.17 m x 3.53 m</text></g></g></g></g><g id="847164de-6de7-4ce4-8853-68fe3d5a9407" fill="#ffffff" stroke="#ffffff" style="fill-opacity: 1; stroke-opacity: 1; stroke-width: 0.2;" class="Space Storage"><polygon points="1039.08,335.61 722.29,335.61 722.29,187.82 1039.08,187.82 "/><g transform="matrix(1,0,0,1,722.2884,187.8239)" class="Dimension"><g transform="matrix(1,0,0,1,0,0)" style="display: none;" class="Visual"><g id="mark1" fill="#000000" stroke="none" transform="matrix(1,0,0,1,158.3972,0)" style="fill-opacity: 1; pointer-events: visible;" class="DimensionMark"><polygon points="-5,5,0,0,5,5"/></g><g id="mark2" fill="#000000" stroke="none" transform="matrix(1,0,0,1,316.7944,73.8941)" style="fill-opacity: 1; pointer-events: visible;" class="DimensionMark"><polygon points="-5,-5,0,0,-5,5"/></g><g id="mark3" fill="#000000" stroke="none" transform="matrix(1,0,0,1,158.3972,147.7882)" style="fill-opacity: 1; pointer-events: visible;" class="DimensionMark"><polygon points="-5,-5,0,0,5,-5"/></g><g id="mark4" fill="#000000" stroke="none" transform="matrix(1,0,0,1,0,73.8941)" style="fill-opacity: 1; pointer-events: visible;" class="DimensionMark"><polygon points="5,5,0,0,5,-5"/></g></g><g transform="matrix(1,0,0,1,95.0785,105.3338)" class="SpaceDimensionsLabel" style="display: block;"><g id="NameLabel" style="display: block;" class="TextLabel NameLabel"><text x="0" y="0em" fill="#000000" stroke="none" style="font-family: Verdana; font-size: 33px; fill-opacity: 1; cursor: default;">VARASTO</text></g><g id="DimensionMeasureLabel" transform="matrix(1,0,0,1,-61.2188,80.0937)" style="display: none;" class="TextLabel DimensionMeasureLabel"><text x="31.6875" y="-1.2em" fill="#000000" stroke="none" style="font-family: Verdana; font-size: 33px; fill-opacity: 1; cursor: default;">10'5" x 4'10"</text><text x="0" y="0em" fill="#000000" stroke="none" style="font-family: Verdana; font-size: 33px; fill-opacity: 1; cursor: default;">3.17 m x 1.48 m</text></g></g></g></g><g id="bd71ff5c-d5d9-4625-a474-92db34a77898" fill="#ffffff" stroke="#ffffff" style="fill-opacity: 1; stroke-opacity: 1; stroke-width: 0.2;" class="Space UserDefined"><polygon points="739.75,906.62 486.23,906.62 486.23,733.00 739.72,733.26 739.75,703.26 "/><g transform="matrix(1,0,0,1,486.2297,733.1289)" class="Dimension"><g transform="matrix(1,0,0,1,0,0)" style="display: none;" class="Visual"><g id="mark1" fill="#000000" stroke="none" transform="matrix(1,0,0,1,126.7284,0)" style="fill-opacity: 1; pointer-events: visible;" class="DimensionMark"><polygon points="-5,5,0,0,5,5"/></g><g id="mark2" fill="#000000" stroke="none" transform="matrix(1,0,0,1,253.5175,71.8108)" style="fill-opacity: 1; pointer-events: visible;" class="DimensionMark"><polygon points="-5,-5,0,0,-5,5"/></g><g id="mark3" fill="#000000" stroke="none" transform="matrix(1,0,0,1,126.7284,173.4926)" style="fill-opacity: 1; pointer-events: visible;" class="DimensionMark"><polygon points="-5,-5,0,0,5,-5"/></g><g id="mark4" fill="#000000" stroke="none" transform="matrix(1,0,0,1,0,71.8108)" style="fill-opacity: 1; pointer-events: visible;" class="DimensionMark"><polygon points="5,5,0,0,5,-5"/></g></g><g transform="matrix(1,0,0,1,33.6804,131.7536)" class="SpaceDimensionsLabel" style="display: block;"><g id="NameLabel" style="display: block;" class="TextLabel NameLabel"><text x="0" y="0em" fill="#000000" stroke="none" style="font-family: Verdana; font-size: 33px; fill-opacity: 1; cursor: default;">ET( KYLM&#xC4; )</text></g><g id="DimensionMeasureLabel" transform="matrix(1,0,0,1,-36.8593,79.8281)" style="display: none;" class="TextLabel DimensionMeasureLabel"><text x="52.65625" y="-1.2em" fill="#000000" stroke="none" style="font-family: Verdana; font-size: 33px; fill-opacity: 1; cursor: default;">8'4" x 5'8"</text><text x="0" y="0em" fill="#000000" stroke="none" style="font-family: Verdana; font-size: 33px; fill-opacity: 1; cursor: default;">2.54 m x 1.73 m</text></g></g></g></g><g id="Wall" fill="#000000" stroke="#000000" style="fill-opacity: 1; stroke-opacity: 1; stroke-width: 0.2;" class="Wall External"><polygon points="167.40,157.26 167.40,730.00 194.40,703.00 194.40,187.28 "/><g id="Window" fill="#f0f0ff" stroke="#000000" style="fill-opacity: 1; stroke-width: 1; stroke-opacity: 1;" class="Window Regular"><polygon points="167.40,374.11 167.40,438.67 194.40,438.67 194.40,374.11 "/><g id="Glass" class="Glass"><polygon points="167.40,374.11 167.40,438.67 194.40,438.67 194.40,374.11 "/></g><g id="Panel" class="Panel"><line x1="180.90465672795722" x2="180.90465672795722" y1="381.61173978430605" y2="431.16642820059826"/><line x1="167.40465672795722" x2="194.40465672795722" y1="381.61173978430605" y2="381.61173978430605"/><line x1="167.40465672795722" x2="194.40465672795722" y1="431.16642820059826" y2="431.16642820059826"/></g></g><g id="Window" fill="#f0f0ff" stroke="#000000" style="fill-opacity: 1; stroke-width: 1; stroke-opacity: 1;" class="Window Regular"><polygon points="167.40,438.07 167.40,503.82 194.40,503.82 194.40,438.07 "/><g id="Glass" class="Glass"><polygon points="167.40,438.07 167.40,503.82 194.40,503.82 194.40,438.07 "/></g><g id="Panel" class="Panel"><line x1="180.90465672795722" x2="180.90465672795722" y1="445.5686996041511" y2="496.3188452133376"/><line x1="167.40465672795722" x2="194.40465672795722" y1="445.5686996041511" y2="445.5686996041511"/><line x1="167.40465672795722" x2="194.40465672795722" y1="496.3188452133376" y2="496.3188452133376"/></g></g></g><g id="Wall" fill="#000000" stroke="#000000" style="fill-opacity: 1; stroke-opacity: 1; stroke-width: 0.2;" class="Wall External"><polygon points="167.40,730.00 459.23,730.00 486.23,703.00 194.40,703.00 "/><g id="Window" fill="#f0f0ff" stroke="#000000" style="fill-opacity: 1; stroke-width: 1; stroke-opacity: 1;" class="Window Regular"><polygon points="260.94,730.00 325.84,730.00 325.84,703.00 260.94,703.00 "/><g id="Glass" class="Glass"><polygon points="260.94,730.00 325.84,730.00 325.84,703.00 260.94,703.00 "/></g><g id="Panel" class="Panel"><line x1="268.44086349539714" x2="318.3384671205697" y1="716.4989483159254" y2="716.4989483159254"/><line x1="268.44086349539714" x2="268.44086349539714" y1="729.9989483159254" y2="702.9989483159254"/><line x1="318.3384671205697" x2="318.3384671205697" y1="729.9989483159254" y2="702.9989483159254"/></g></g><g id="Window" fill="#f0f0ff" stroke="#000000" style="fill-opacity: 1; stroke-width: 1; stroke-opacity: 1;" class="Window Regular"><polygon points="325.12,730.00 396.50,730.00 396.50,703.00 325.12,703.00 "/><g id="Glass" class="Glass"><polygon points="325.12,730.00 396.50,730.00 396.50,703.00 325.12,703.00 "/></g><g id="Panel" class="Panel"><line x1="332.61738263584556" x2="389.0047466235354" y1="716.4989483159254" y2="716.4989483159254"/><line x1="332.61738263584556" x2="332.61738263584556" y1="729.9989483159254" y2="702.9989483159254"/><line x1="389.0047466235354" x2="389.0047466235354" y1="729.9989483159254" y2="702.9989483159254"/></g></g></g><g id="Wall" fill="#000000" stroke="#000000" style="fill-opacity: 1; stroke-opacity: 1; stroke-width: 0.2;" class="Wall External"><polygon points="459.23,730.00 459.23,933.62 486.23,906.62 486.23,703.00 "/><g id="Window" fill="#f0f0ff" stroke="#000000" style="fill-opacity: 1; stroke-width: 1; stroke-opacity: 1;" class="Window Regular"><polygon points="459.23,852.66 459.23,904.51 486.23,904.51 486.23,852.66 "/><g id="Glass" class="Glass"><polygon points="459.23,852.66 459.23,904.51 486.23,904.51 486.23,852.66 "/></g><g id="Panel" class="Panel"><line x1="472.7296716286596" x2="472.7296716286596" y1="860.1553721155452" y2="897.0130099611777"/><line x1="459.2296716286596" x2="486.2296716286596" y1="860.1553721155452" y2="860.1553721155452"/><line x1="459.2296716286596" x2="486.2296716286596" y1="897.0130099611777" y2="897.0130099611777"/></g></g></g><g id="Wall" fill="#000000" stroke="#000000" style="fill-opacity: 1; stroke-opacity: 1; stroke-width: 0.2;" class="Wall External"><polygon points="459.23,933.62 766.75,933.62 739.75,906.62 486.23,906.62 "/><g id="Window" fill="#f0f0ff" stroke="#000000" style="fill-opacity: 1; stroke-width: 1; stroke-opacity: 1;" class="Window Regular"><polygon points="488.63,933.62 546.17,933.62 546.17,906.62 488.63,906.62 "/><g id="Glass" class="Glass"><polygon points="488.63,933.62 546.17,933.62 546.17,906.62 488.63,906.62 "/></g><g id="Panel" class="Panel"><line x1="496.12958896889427" x2="538.6702556195276" y1="920.1214856454943" y2="920.1214856454943"/><line x1="496.12958896889427" x2="496.12958896889427" y1="933.6214856454943" y2="906.6214856454943"/><line x1="538.6702556195276" x2="538.6702556195276" y1="933.6214856454943" y2="906.6214856454943"/></g></g><g id="Window" fill="#f0f0ff" stroke="#000000" style="fill-opacity: 1; stroke-width: 1; stroke-opacity: 1;" class="Window Regular"><polygon points="691.09,933.62 739.39,933.62 739.39,906.62 691.09,906.62 "/><g id="Glass" class="Glass"><polygon points="691.09,933.62 739.39,933.62 739.39,906.62 691.09,906.62 "/></g><g id="Panel" class="Panel"><line x1="698.5874901470481" x2="731.8932349895551" y1="920.1214856454943" y2="920.1214856454943"/><line x1="698.5874901470481" x2="698.5874901470481" y1="933.6214856454943" y2="906.6214856454943"/><line x1="731.8932349895551" x2="731.8932349895551" y1="933.6214856454943" y2="906.6214856454943"/></g></g><g id="Door" fill="#ffffff" stroke="#000000" style="fill-opacity: 1; stroke-width: 1; stroke-opacity: 1;" class="Door Swing Beside"><polygon points="571.74,933.62 656.99,933.62 656.99,906.62 571.74,906.62 "/><g id="Threshold" class="Threshold"><polygon points="571.74,933.62 656.99,933.62 656.99,906.62 571.74,906.62 "/></g><g id="Panel" fill="none" style="" class="Panel Left Negative"><g id="PanelArea" fill="none" stroke="none" style="" class="PanelArea"><polygon points="571.74,933.62 656.99,933.62 656.99,906.62 571.74,906.62 "/></g><path d="M571.74,933.62 q0.00,85.25 85.25,85.25 l0.00,-85.25Z"/></g></g></g><g id="Wall" fill="#000000" stroke="#000000" style="fill-opacity: 1; stroke-opacity: 1; stroke-width: 0.2;" class="Wall External"><polygon points="766.75,933.62 766.75,730.26 739.75,703.26 739.75,906.62 "/><g id="Window" fill="#f0f0ff" stroke="#000000" style="fill-opacity: 1; stroke-width: 1; stroke-opacity: 1;" class="Window Regular"><polygon points="766.75,905.93 766.75,851.23 739.75,851.23 739.75,905.93 "/><g id="Glass" class="Glass"><polygon points="766.75,905.93 766.75,851.23 739.75,851.23 739.75,905.93 "/></g><g id="Panel" class="Panel"><line x1="753.2471979235754" x2="753.2471979235754" y1="898.4337671624278" y2="858.734614914295"/><line x1="766.7471979235754" x2="739.7471979235754" y1="898.4337671624278" y2="898.4337671624278"/><line x1="766.7471979235754" x2="739.7471979235754" y1="858.734614914295" y2="858.734614914295"/></g></g></g><g id="Wall" fill="#000000" stroke="#000000" style="fill-opacity: 1; stroke-opacity: 1; stroke-width: 0.2;" class="Wall External"><polygon points="739.75,703.26 1039.08,703.26 1069.08,730.26 766.75,730.26 "/><g id="Window" fill="#f0f0ff" stroke="#000000" style="fill-opacity: 1; stroke-width: 1; stroke-opacity: 1;" class="Window Regular"><polygon points="845.92,703.26 909.22,703.26 909.22,730.26 845.92,730.26 "/><g id="Glass" class="Glass"><polygon points="845.92,703.26 909.22,703.26 909.22,730.26 845.92,730.26 "/></g><g id="Panel" class="Panel"><line x1="853.4157144551341" x2="901.7153788388335" y1="716.7577841958462" y2="716.7577841958462"/><line x1="853.4157144551341" x2="853.4157144551341" y1="703.2577841958462" y2="730.2577841958462"/><line x1="901.7153788388335" x2="901.7153788388335" y1="703.2577841958462" y2="730.2577841958462"/></g></g><g id="Window" fill="#f0f0ff" stroke="#000000" style="fill-opacity: 1; stroke-width: 1; stroke-opacity: 1;" class="Window Regular"><polygon points="909.22,703.26 973.86,703.26 973.86,730.26 909.22,730.26 "/><g id="Glass" class="Glass"><polygon points="909.22,703.26 973.86,703.26 973.86,730.26 909.22,730.26 "/></g><g id="Panel" class="Panel"><line x1="916.7153788388335" x2="966.3618445923989" y1="716.7577841958462" y2="716.7577841958462"/><line x1="916.7153788388335" x2="916.7153788388335" y1="703.2577841958462" y2="730.2577841958462"/><line x1="966.3618445923989" x2="966.3618445923989" y1="703.2577841958462" y2="730.2577841958462"/></g></g></g><g id="Wall" fill="#000000" stroke="#000000" style="fill-opacity: 1; stroke-opacity: 1; stroke-width: 0.2;" class="Wall External"><polygon points="1069.08,730.26 1069.08,157.84 1039.08,187.82 1039.08,703.26 "/><g id="Window" fill="#f0f0ff" stroke="#000000" style="fill-opacity: 1; stroke-width: 1; stroke-opacity: 1;" class="Window Regular"><polygon points="1069.08,309.91 1069.08,246.72 1039.08,246.72 1039.08,309.91 "/><g id="Glass" class="Glass"><polygon points="1069.08,309.91 1069.08,246.72 1039.08,246.72 1039.08,309.91 "/></g><g id="Panel" class="Panel"><line x1="1054.0827902387673" x2="1054.0827902387673" y1="302.405760896725" y2="254.21870749497612"/><line x1="1069.0827902387673" x2="1039.0827902387673" y1="302.405760896725" y2="302.405760896725"/><line x1="1069.0827902387673" x2="1039.0827902387673" y1="254.21870749497612" y2="254.21870749497612"/></g></g><g id="Window" fill="#f0f0ff" stroke="#000000" style="fill-opacity: 1; stroke-width: 1; stroke-opacity: 1;" class="Window Regular"><polygon points="1069.08,634.77 1069.08,574.54 1039.08,574.54 1039.08,634.77 "/><g id="Glass" class="Glass"><polygon points="1069.08,634.77 1069.08,574.54 1039.08,574.54 1039.08,634.77 "/></g><g id="Panel" class="Panel"><line x1="1054.0827902387673" x2="1054.0827902387673" y1="627.2738243607197" y2="582.0408353755854"/><line x1="1069.0827902387673" x2="1039.0827902387673" y1="627.2738243607197" y2="627.2738243607197"/><line x1="1069.0827902387673" x2="1039.0827902387673" y1="582.0408353755854" y2="582.0408353755854"/></g></g></g><g id="Wall" fill="#000000" stroke="#000000" style="fill-opacity: 1; stroke-opacity: 1; stroke-width: 0.2;" class="Wall External"><polygon points="1069.08,157.84 167.40,157.26 194.40,187.28 1039.08,187.82 "/><g id="Window" fill="#f0f0ff" stroke="#000000" style="fill-opacity: 1; stroke-width: 1; stroke-opacity: 1;" class="Window Regular"><polygon points="325.76,157.36 263.08,157.32 263.06,187.32 325.74,187.36 "/><g id="Glass" class="Glass"><polygon points="325.76,157.36 263.08,157.32 263.06,187.32 325.74,187.36 "/></g><g id="Panel" class="Panel"><line x1="318.24968020287474" x2="270.56628932544623" y1="172.35966098190616" y2="172.32895170272235"/><line x1="318.2593405706412" x2="318.2400198351083" y1="157.3596640926633" y2="187.35965787114898"/><line x1="270.57594969321275" x2="270.55662895767983" y1="157.3289548134795" y2="187.32894859196517"/></g></g><g id="Window" fill="#f0f0ff" stroke="#000000" style="fill-opacity: 1; stroke-width: 1; stroke-opacity: 1;" class="Window Regular"><polygon points="390.80,157.41 325.76,157.36 325.74,187.36 390.79,187.41 "/><g id="Glass" class="Glass"><polygon points="390.80,157.41 325.76,157.36 325.74,187.36 390.79,187.41 "/></g><g id="Panel" class="Panel"><line x1="383.295298108882" x2="333.24967709211757" y1="172.4015519632982" y2="172.3693213496726"/><line x1="383.30495847664844" x2="383.2856377411155" y1="157.40155507405538" y2="187.40154885254105"/><line x1="333.2593374598841" x2="333.24001672435116" y1="157.36932446042977" y2="187.36931823891544"/></g></g></g><g id="Wall" fill="#000000" stroke="#000000" style="fill-opacity: 1; stroke-opacity: 1; stroke-width: 0.2;" class="Wall"><polygon points="486.23,703.00 739.75,703.26 739.72,733.26 486.20,733.00 "/><g id="Door" fill="#ffffff" stroke="#000000" style="fill-opacity: 1; stroke-width: 1; stroke-opacity: 1;" class="Door Swing Beside"><polygon points="570.78,703.09 660.60,703.18 660.57,733.18 570.74,733.09 "/><g id="Threshold" class="Threshold"><polygon points="570.78,703.09 660.60,703.18 660.57,733.18 570.74,733.09 "/></g><g id="Panel" fill="none" style="" class="Panel Right Positive"><g id="PanelArea" fill="none" stroke="none" style="" class="PanelArea"><polygon points="570.78,703.09 660.60,703.18 660.57,733.18 570.74,733.09 "/></g><path d="M570.74,733.09 q-0.09,89.82 89.73,89.92 l0.09,-89.82Z"/></g></g></g><g id="Wall" fill="#000000" stroke="#000000" style="fill-opacity: 1; stroke-opacity: 1; stroke-width: 0.2;" class="Wall"><polygon points="707.29,157.61 707.29,733.22 722.29,733.22 722.29,157.61 "/><g id="Door" fill="#ffffff" stroke="#000000" style="fill-opacity: 1; stroke-width: 1; stroke-opacity: 1;" class="Door Swing Beside"><polygon points="707.29,253.45 707.29,333.05 722.29,333.05 722.29,253.45 "/><g id="Threshold" class="Threshold"><polygon points="707.29,253.45 707.29,333.05 722.29,333.05 722.29,253.45 "/></g><g id="Panel" fill="none" style="" class="Panel Right Positive"><g id="PanelArea" fill="none" stroke="none" style="" class="PanelArea"><polygon points="707.29,253.45 707.29,333.05 722.29,333.05 722.29,253.45 "/></g><path d="M722.29,253.45 q79.60,-0.00 79.60,79.60 l-79.60,0.00Z"/></g></g><g id="Door" fill="#ffffff" stroke="#000000" style="fill-opacity: 1; stroke-width: 1; stroke-opacity: 1;" class="Door Swing Beside"><polygon points="707.29,582.37 707.29,662.86 722.29,662.86 722.29,582.37 "/><g id="Threshold" class="Threshold"><polygon points="707.29,582.37 707.29,662.86 722.29,662.86 722.29,582.37 "/></g><g id="Panel" fill="none" style="" class="Panel Right Negative"><g id="PanelArea" fill="none" stroke="none" style="" class="PanelArea"><polygon points="707.29,582.37 707.29,662.86 722.29,662.86 722.29,582.37 "/></g><path d="M707.29,662.86 q-80.49,0.00 -80.49,-80.49 l80.49,-0.00Z"/></g></g></g><g id="Wall" fill="#000000" stroke="#000000" style="fill-opacity: 1; stroke-opacity: 1; stroke-width: 0.2;" class="Wall"><polygon points="707.29,350.61 1069.08,350.61 1069.08,335.61 707.29,335.61 "/></g><g class="FixedFurniture BaseCabinet" fill="#ffffff" stroke="#000000" transform="matrix(1,0,0,1,527.9184,187.865)" style="fill-opacity: 1; stroke-opacity: 1;">
        <g class="BoundaryPolygon">
            <polygon points="0.00,0.00 179.37,0.00 179.37,60.00 0.00,60.00 "/>
        </g>
        <g class="Direction" fill-opacity="0.9" style="display: none;">
            <polygon points="95.69,55.20 95.69,44.58 92.68,44.58 92.68,55.20 88.88,55.20 94.18,60.00 99.49,55.20 95.69,55.20 " fill="#444444"/>
        </g> 
        <g class="Name" fill-opacity="0.9" style="display: none;">
            <text transform="translate(3 12)" font-size="12" font-family="Verdana, Sans-Serif">CB</text>
        </g>
        <desc>Width:60 Height:90 Depth:60 Elevation:0</desc>
    </g><g class="FixedFurniture ElectricalAppliance Refrigerator" fill="#ffffff" stroke="#000000" transform="matrix(1.1082,0,0,1,461.4264,187.4729)" style="fill-opacity: 1; stroke-opacity: 1;">
        <g class="BoundaryPolygon">
            <polygon points="0,0 60,0 60,60 0,60"/>
        </g>
        <g class="electricitySign" fill="none">
            <path d="M0,0,30,37.1v-18L60,56.3"/>
        </g>
        <g class="Doors">
            <rect y="56" width="60" height="4"/>
        </g>
        <g class="Direction" fill-opacity="0.9" style="display: none;">
            <polygon points="32.009 55.197 32.009 44.581 29 44.581 29 55.197 25.197 55.197 30.5 60 35.803 55.197 32.009 55.197" fill="#444444"/>
        </g> 
        <g class="Name" fill-opacity="0.9" style="display: none;">
            <text transform="translate(3 12)" font-size="12" font-family="Verdana, Sans-Serif">REF</text>
        </g>
        <desc>Width:60 Height:170 Depth:60 Elevation:0</desc>
    </g><g class="FixedFurniture ElectricalAppliance IntegratedStove" fill="#ffffff" stroke="#000000" transform="matrix(1,0,0,1,526.1795,185.4839)" style="fill-opacity: 1; stroke-opacity: 1;">
        <g class="BoundaryPolygon" fill="none" stroke="none">
            <polygon points="0.00,0.00 61.44,0.00 61.44,64.33 0.00,64.33 "/>
        </g>
        <g class="InnerPolygon">
            <polygon points="2.00,2.00 59.39,2.00 59.39,62.19 2.00,62.19 "/>
        </g>
        <g class="OuterCircle">
            <circle cx="16.382763941538528" cy="17.155978561813516" r="8"/>
            <circle cx="45.052600839230955" cy="17.155978561813516" r="8"/>
            <circle cx="16.382763941538528" cy="47.178941044987134" r="8"/>
            <circle cx="45.052600839230955" cy="47.178941044987134" r="8"/>
        </g>
        <g class="Direction" fill-opacity="0.9" style="display: none;">
            <polygon points="32.77,59.18 32.77,48.57 29.77,48.57 29.77,59.18 25.96,59.18 31.27,63.99 36.57,59.18 32.77,59.18 " fill="#444444"/>
        </g> 
        <g class="Name" fill-opacity="0.9" style="display: none;">
            <text transform="translate(3 12)" font-size="12" font-family="Verdana, Sans-Serif">INT_STOVE</text>
        </g>
        <desc>Width:60 Height:90 Depth:30 Elevation:0</desc>
    </g><g class="FixedFurniture WallCabinet" fill="#ffffff" stroke="#000000" transform="matrix(1,0,0,1,527.9196,188.0368)" style="fill-opacity: 0.7; stroke-opacity: 1;">	
        <g class="BoundaryPolygon">
            <polygon points="0.00,0.00 179.55,0.00 179.55,30.00 0.00,30.00 "/>
        </g>
        <g class="Direction" fill-opacity="0.9" style="display: none;">
            <polygon points="95.79,25.20 95.79,14.58 92.78,14.58 92.78,25.20 88.97,25.20 94.28,30.00 99.58,25.20 95.79,25.20 " fill="#444444"/>
        </g> 
        <g class="Name" fill-opacity="0.9" style="display: none;">
            <text transform="translate(3 12)" font-size="12" font-family="Verdana, Sans-Serif">UC</text>
        </g>
        <desc>Width:60 Height:60 Depth:30 Elevation:140</desc>
    </g><g id="Wall" fill="#000000" stroke="#000000" style="fill-opacity: 1; stroke-opacity: 1; stroke-width: 0.2;" class="Wall"><polygon points="678.15,382.51 678.15,546.22 709.92,546.22 709.92,382.51 "/></g><g class="FixedFurniture CoatCloset" fill="#ffffff" stroke="#000000" transform="matrix(1,0,0,1,722.2883,350.6434)" style="fill-opacity: 1; stroke-opacity: 1;">
        <g class="BoundaryPolygon">
            <polygon points="0.00,0.00 61.59,0.00 61.59,60.00 0.00,60.00 "/>
        </g>
        <g class="Hanger" stroke="#9a9a9a" stroke-dasharray="5,5">
            <line x1="0" y1="30" x2="61.59110415544614" y2="30"/>
        </g>
        <g class="Direction" fill-opacity="0.9" style="display: none;">
            <polygon points="32.34,54.70 32.34,44.08 29.34,44.08 29.34,54.70 25.53,54.70 30.84,60.00 36.14,54.70 32.34,54.70 " fill="#444444"/>
        </g> 
        <g class="Name" fill-opacity="0.9" style="display: none;">
            <text transform="translate(3 12)" font-size="12" font-family="Verdana, Sans-Serif">CWH</text>
        </g>
        <desc>Width:60 Height:200 Depth:60 Elevation:0</desc>
     </g><g class="FixedFurniture CoatCloset" fill="#ffffff" stroke="#000000" transform="matrix(1,0,0,1,987.2256,350.6122)" style="fill-opacity: 1; stroke-opacity: 1;">
        <g class="BoundaryPolygon">
            <polygon points="0.00,0.00 52.01,0.00 52.01,60.00 0.00,60.00 "/>
        </g>
        <g class="Hanger" stroke="#9a9a9a" stroke-dasharray="5,5">
            <line x1="0" y1="30" x2="52.0139046697672" y2="30"/>
        </g>
        <g class="Direction" fill-opacity="0.9" style="display: none;">
            <polygon points="27.32,54.70 27.32,44.08 24.31,44.08 24.31,54.70 20.50,54.70 25.81,60.00 31.11,54.70 27.32,54.70 " fill="#444444"/>
        </g> 
        <g class="Name" fill-opacity="0.9" style="display: none;">
            <text transform="translate(3 12)" font-size="12" font-family="Verdana, Sans-Serif">CWH</text>
        </g>
        <desc>Width:60 Height:200 Depth:60 Elevation:0</desc>
     </g><g id="FixedFurnitureSet" transform="matrix(1,0,0,1,722.2884,187.6525)" class="FixedFurnitureSet" fill="#ffffff" stroke="#000000" style="fill-opacity: 0.4; stroke-opacity: 0.4;"><g class="FixedFurniture Closet" fill="#ffffff" stroke="#000000" transform="matrix(1,0,0,1,0,0)" style="fill-opacity: 1; stroke-opacity: 1;">
        <g class="BoundaryPolygon">
            <polygon points="0.00,0.00 50.65,0.00 50.65,60.00 0.00,60.00 "/>
        </g>
        <g class="Direction" fill-opacity="0.9" style="display: none;">
            <polygon points="26.60,54.70 26.60,44.08 23.59,44.08 23.59,54.70 19.79,54.70 25.09,60.00 30.39,54.70 26.60,54.70 " fill="#444444"/>
        </g> 
        <g class="Name" fill-opacity="0.9" style="display: none;">
            <text transform="translate(3 12)" font-size="12" font-family="Verdana, Sans-Serif">CL</text>
        </g>
        <desc>Width:60 Height:200 Depth:60 Elevation:0</desc>
    </g><g class="FixedFurniture Closet" fill="#ffffff" stroke="#000000" transform="matrix(1,0,0,1,50.6498,0)" style="fill-opacity: 1; stroke-opacity: 1;">
        <g class="BoundaryPolygon">
            <polygon points="0.00,0.00 50.65,0.00 50.65,60.00 0.00,60.00 "/>
        </g>
        <g class="Direction" fill-opacity="0.9" style="display: none;">
            <polygon points="26.60,54.70 26.60,44.08 23.59,44.08 23.59,54.70 19.79,54.70 25.09,60.00 30.39,54.70 26.60,54.70 " fill="#444444"/>
        </g> 
        <g class="Name" fill-opacity="0.9" style="display: none;">
            <text transform="translate(3 12)" font-size="12" font-family="Verdana, Sans-Serif">CL</text>
        </g>
        <desc>Width:60 Height:200 Depth:60 Elevation:0</desc>
     </g></g><g class="FixedFurniture WallCabinet" fill="#ffffff" stroke="#000000" transform="matrix(-1,0,0,-1,1039.0828,335.4558)" style="fill-opacity: 0.7; stroke-opacity: 1;">	
        <g class="BoundaryPolygon">
            <polygon points="0.00,0.00 205.38,0.00 205.38,25.39 0.00,25.39 "/>
        </g>
        <g class="Direction" fill-opacity="0.9" style="display: none;">
            <polygon points="109.57,21.33 109.57,10.71 106.56,10.71 106.56,21.33 102.75,21.33 108.06,26.13 113.36,21.33 109.57,21.33 " fill="#444444"/>
        </g> 
        <g class="Name" fill-opacity="0.9" style="display: none;">
            <text transform="translate(3 12)" font-size="12" font-family="Verdana, Sans-Serif">UC</text>
        </g>
        <desc>Width:60 Height:60 Depth:30 Elevation:140</desc>
    </g><g id="Stairs" fill="#ffffff" stroke="#000000" style="fill-opacity: 1; stroke-opacity: 1;" class="Stairs"><g id="Flight" class="Flight"><polygon points="542.38,1103.25 542.38,1042.81 692.80,1042.81 692.80,1103.25 "/><g class="WalkinLine "><path fill="none" stroke="#d3d3d3" d="M617.59,1103.25 L617.59,1042.81 " style="pointer-events: none; marker-end: url(&quot;#Marker2&quot;);"/><defs><marker viewBox="0 0 12 12" markerWidth="12" markerHeight="12" orient="auto" refX="11" refY="6" id="Marker2" fill="#d3d3d3" stroke="#d3d3d3" style="pointer-events: none;"><polygon points="0.00,0.00 0.00,12.00 10.00,6.00 0.00,0.00 "/></marker></defs></g><g id="Steps" class="Steps"><line x1="542.3829997251061" x2="692.7951301500151" y1="1103.2477147194788" y2="1103.2477147194788"/><line x1="542.3829997251061" x2="692.7951301500151" y1="1073.029846631174" y2="1073.029846631174"/><line x1="542.3829997251061" x2="692.7951301500151" y1="1042.8119785428692" y2="1042.8119785428692"/></g></g></g><g class="FixedFurniture ElectricalAppliance" fill="#ffffff" stroke="#000000" transform="matrix(2.0018,0,0,1.1489,832.5109,187.8911)" style="fill-opacity: 1; stroke-opacity: 1;">
	    <g class="BoundaryPolygon"> 
		    <polygon points="0,0 60,0 60,60 0,60"/>
		</g>	
	    <g class="electricitySign" fill="none">
            <path d="M0,0,30.1,39.8V19.4L59.9,60"/>
		</g>
        <g class="Direction" fill-opacity="0.9" style="display: none;">
            <polygon points="32.009 55.197 32.009 44.581 29 44.581 29 55.197 25.197 55.197 30.5 60 35.803 55.197 32.009 55.197" fill="#444444"/>
        </g> 
        <g class="Name" fill-opacity="0.9" style="display: none;">
            <text transform="translate(3 12)" font-size="12" font-family="Verdana, Sans-Serif">LEB</text>
        </g>
        <desc>Width:60 Height:90 Depth:60 Elevation:0</desc>
	</g><g class="FixedFurniture WallCabinet" fill="#ffffff" stroke="#000000" transform="matrix(1,0,0,1,832.511,187.898)" style="fill-opacity: 0.7; stroke-opacity: 1;">	
        <g class="BoundaryPolygon">
            <polygon points="0.00,0.00 206.44,0.00 206.44,30.00 0.00,30.00 "/>
        </g>
        <g class="Direction" fill-opacity="0.9" style="display: none;">
            <polygon points="110.13,25.20 110.13,14.58 107.12,14.58 107.12,25.20 103.32,25.20 108.62,30.00 113.93,25.20 110.13,25.20 " fill="#444444"/>
        </g> 
        <g class="Name" fill-opacity="0.9" style="display: none;">
            <text transform="translate(3 12)" font-size="12" font-family="Verdana, Sans-Serif">UC</text>
        </g>
        <desc>Width:60 Height:60 Depth:30 Elevation:140</desc>
    </g><g class="FixedFurniture BaseCabinet" fill="#ffffff" stroke="#000000" transform="matrix(-1,0,0,-1,678.1493,443.2795)" style="fill-opacity: 1; stroke-opacity: 1;">
        <g class="BoundaryPolygon">
            <polygon points="0.00,0.00 137.00,0.00 137.00,78.82 0.00,78.82 "/>
        </g>
        <g class="Direction" fill-opacity="0.9" style="display: none;">
            <polygon points="73.09,72.51 73.09,61.90 70.08,61.90 70.08,72.51 66.28,72.51 71.58,77.32 76.88,72.51 73.09,72.51 " fill="#444444"/>
        </g> 
        <g class="Name" fill-opacity="0.9" style="display: none;">
            <text transform="translate(3 12)" font-size="12" font-family="Verdana, Sans-Serif">CB</text>
        </g>
        <desc>Width:60 Height:90 Depth:60 Elevation:0</desc>
    </g><g class="FixedFurniture WoodStove" fill="#ffffff" stroke="#000000" transform="matrix(1,0,0,1,541.1475,364.1395)" style="fill-opacity: 1; stroke-opacity: 1;">
	   <g class="BoundaryPolygon"> 
            <polygon points="0.00,0.00 137.28,0.00 137.28,79.14 0.00,79.14 "/>
        </g>	
	    <g class="OuterCircle">
		    <circle cx="38.02732158770301" cy="39.936135802972835" r="19.6"/>
		    <circle cx="102.82477931115363" cy="39.936135802972835" r="14.7"/>
		</g>
        <desc>Width:100 Height:90 Depth:65 Elevation:0</desc>
	</g><g class="FixedFurniture Fireplace" fill="#ffffff" stroke="#000000" transform="matrix(0,1.5619,-2.277,0,678.0437,443.2795)" style="fill-opacity: 1; stroke-opacity: 1;">     
	    <g class="BoundaryPolygon"> 
		    <polygon points="0,0 75,0 75,60 0,60"/> 
		</g>
	    <g class="Lines" fill="none" stroke="#4c4c4c"> 
		    <line x1="0.629" y1="9.556" x2="51.294" y2="60.205"/>
            <line x1="0.598" y1="25.167" x2="35.942" y2="60.5"/>
            <line x1="0.5" y1="40.841" x2="20.479" y2="60.5"/>
            <line x1="40.648" y1="0.5" x2="75.432" y2="35.274"/>
            <line x1="8.329" y1="0.5" x2="68.348" y2="60.5"/>
            <line x1="24.88" y1="0.5" x2="75.5" y2="51.104"/>
            <line x1="56.774" y1="0.5" x2="75.5" y2="19.22"/>
		</g>
	    <g class="FireBox">  &gt;	
		    <rect x="22.053" y="19.92" width="32.571" height="40.58"/>
	    </g>
        <g class="Direction" fill-opacity="0.9" style="display: none;">
            <polygon points="39.409 54.797 39.409 44.181 36.4 44.181 36.4 54.797 32.597 54.797 37.9 60.1 43.203 54.797 39.409 54.797" fill="#444444"/>
        </g> 
        <g class="Name" fill-opacity="0.9" style="display: none;">
            <text transform="translate(3 12)" font-size="12" font-family="Verdana, Sans-Serif">FP</text>
        </g>
        <desc>Width:75 Height:120 Depth:60 Elevation:0</desc>
    </g><g fill="#0000ff" stroke="#0000ff" style="display: none;" class="SelectionControls"><g style="display: none;" class="rotateControl"><circle cx="380.4247067279572" cy="392.09425130881607" r="5" style="stroke : none; fill-opacity: 0.5; cursor:crosshair"/></g><g style="display: none;" class="ResizeNControl"><circle cx="0" cy="0" r="5" style="stroke : none; fill-opacity: 0.5"/></g><g style="display: none;" class="ResizeNEControl"><circle cx="0" cy="0" r="5" style="stroke : none; fill-opacity: 0.5"/></g><g style="display: none;" class="ResizeEControl"><circle cx="0" cy="0" r="5" style="stroke : none; fill-opacity: 0.5"/></g><g style="display: none;" class="ResizeSEControl"><circle cx="0" cy="0" r="5" style="stroke : none; fill-opacity: 0.5"/></g><g style="display: none;" class="ResizeSControl"><circle cx="0" cy="0" r="5" style="stroke : none; fill-opacity: 0.5"/></g><g style="display: none;" class="ResizeSWControl"><circle cx="0" cy="0" r="5" style="stroke : none; fill-opacity: 0.5"/></g><g style="display: none;" class="ResizeWControl"><circle cx="0" cy="0" r="5" style="stroke : none; fill-opacity: 0.5"/></g><g style="display: none;" class="ResizeNWControl"><circle cx="0" cy="0" r="5" style="stroke : none; fill-opacity: 0.5"/></g><g style="display: none;" class="removeControl"><polygon style="stroke : none; fill-opacity: 0.1" points="267.94,422.09 492.91,422.09 492.91,462.45 267.94,462.45 "/></g><g style="display: none;" class="copyPasteControl"><polygon style="stroke : none; fill-opacity: 0.1"/></g><g style="display: none;" class="translateControl"><polygon style="stroke : none; fill-opacity: 0.1; cursor:move" points="267.94,422.09 492.91,422.09 492.91,462.45 267.94,462.45 "/></g></g><g fill="#0000ff" stroke="#0000ff" style="display: none;" class="SelectionControls"><polygon fill="none" stroke="#0000ff" style="" points="194.40,187.55 707.29,187.55 707.29,703.27 194.40,703.27 "/><g style="display: none;" class="rotateControl"><circle cx="450.8465207416291" cy="157.55190130881607" r="5" style="stroke : none; fill-opacity: 0.5; cursor:crosshair"/></g><g style="display: none;" class="ResizeNControl"><circle cx="0" cy="0" r="5" style="stroke : none; fill-opacity: 0.5"/></g><g style="display: none;" class="ResizeNEControl"><circle cx="0" cy="0" r="5" style="stroke : none; fill-opacity: 0.5"/></g><g style="display: none;" class="ResizeEControl"><circle cx="0" cy="0" r="5" style="stroke : none; fill-opacity: 0.5"/></g><g style="display: none;" class="ResizeSEControl"><circle cx="0" cy="0" r="5" style="stroke : none; fill-opacity: 0.5"/></g><g style="display: none;" class="ResizeSControl"><circle cx="0" cy="0" r="5" style="stroke : none; fill-opacity: 0.5"/></g><g style="display: none;" class="ResizeSWControl"><circle cx="0" cy="0" r="5" style="stroke : none; fill-opacity: 0.5"/></g><g style="display: none;" class="ResizeWControl"><circle cx="0" cy="0" r="5" style="stroke : none; fill-opacity: 0.5"/></g><g style="display: none;" class="ResizeNWControl"><circle cx="0" cy="0" r="5" style="stroke : none; fill-opacity: 0.5"/></g><g style="display: none;" class="removeControl"><polygon style="stroke : none; fill-opacity: 0.1"/></g><g style="display: none;" class="copyPasteControl"><polygon style="stroke : none; fill-opacity: 0.1"/></g><g style="display: none;" class="translateControl"><polygon style="stroke : none; fill-opacity: 0.1; cursor:move"/></g></g></g></g></g></svg>
