  0
SECTION
  2
HEADER
  9
$ACADVER
  1
AC1009
  9
$FILLMODE
 70
 0
  9
$SPLFRAME
 70
 1
  9
$EXTMIN
 10
0
 20
0
 30
0.0
  9
$EXTMAX
 10
41.6667
 20
41.6667
 30
0.0
  0
ENDSEC
  0
SECTION
  2
TABLES
  0
TABLE
  2
LAYER
 70
1
  0
LAYER
  2
0
 70
     0
 62
     7
  6
CONTINUOUS
  0
ENDTAB
  0
ENDSEC
  0
SECTION
  2
ENTITIES
  0
POLYLINE
  8
0
 62
     7
 66
     1
 10
0
 20
0
 30
0.0
 70
     1
 40
0
 41
0
  0
VERTEX
  8
0
 10
1.25374
 20
9.39529
 30
0.0
 40
0
 41
0
  0
VERTEX
  8
0
 10
1.25374
 20
11.927
 30
0.0
 40
0
 41
0
  0
VERTEX
  8
0
 10
8.67344
 20
11.9254
 30
0.0
 40
0
 41
0
  0
VERTEX
  8
0
 10
8.67404
 20
9.51406
 30
0.0
 40
0
 41
0
  0
VERTEX
  8
0
 10
7.67378
 20
9.51281
 30
0.0
 40
0
 41
0
  0
VERTEX
  8
0
 10
7.67378
 20
9.39529
 30
0.0
 40
0
 41
0
  0
VERTEX
  8
0
 10
1.25374
 20
9.39529
 30
0.0
 40
0
 41
0
  0
SEQEND
 8
0
  0
POLYLINE
  8
0
 62
     0
 66
     1
 10
0
 20
0
 30
0.0
 70
     1
 40
0.15
 41
0.15
  0
VERTEX
  8
0
 10
1.25374
 20
9.39529
 30
0.0
 40
0.00208333
 41
0.00208333
  0
VERTEX
  8
0
 10
1.25374
 20
11.927
 30
0.0
 40
0.00208333
 41
0.00208333
  0
VERTEX
  8
0
 10
8.67344
 20
11.9254
 30
0.0
 40
0.00208333
 41
0.00208333
  0
VERTEX
  8
0
 10
8.67404
 20
9.51406
 30
0.0
 40
0.00208333
 41
0.00208333
  0
VERTEX
  8
0
 10
7.67378
 20
9.51281
 30
0.0
 40
0.00208333
 41
0.00208333
  0
VERTEX
  8
0
 10
7.67378
 20
9.39529
 30
0.0
 40
0.00208333
 41
0.00208333
  0
VERTEX
  8
0
 10
1.25374
 20
9.39529
 30
0.0
 40
0.00208333
 41
0.00208333
  0
SEQEND
 8
0
  0
TEXT
  8
0
 62
     0
 10
4.06733
 20
10.4892
 30
0.0
 40
0.34375
  1
P
 50
0
  0
TEXT
  8
0
 62
     0
 10
4.26633
 20
10.4892
 30
0.0
 40
0.34375
  1
ARVEKE
 50
0
  0
POLYLINE
  8
0
 62
     7
 66
     1
 10
0
 20
0
 30
0.0
 70
     1
 40
0
 41
0
  0
VERTEX
  8
0
 10
5.06044
 20
1.14258
 30
0.0
 40
0
 41
0
  0
VERTEX
  8
0
 10
2.94146
 20
1.14258
 30
0.0
 40
0
 41
0
  0
VERTEX
  8
0
 10
2.94146
 20
2.70594
 30
0.0
 40
0
 41
0
  0
VERTEX
  8
0
 10
4.08946
 20
2.70594
 30
0.0
 40
0
 41
0
  0
VERTEX
  8
0
 10
4.08946
 20
4.66971
 30
0.0
 40
0
 41
0
  0
VERTEX
  8
0
 10
5.06044
 20
4.66971
 30
0.0
 40
0
 41
0
  0
VERTEX
  8
0
 10
5.06044
 20
1.14258
 30
0.0
 40
0
 41
0
  0
SEQEND
 8
0
  0
POLYLINE
  8
0
 62
     7
 66
     1
 10
0
 20
0
 30
0.0
 70
     1
 40
0.15
 41
0.15
  0
VERTEX
  8
0
 10
5.06044
 20
1.14258
 30
0.0
 40
0.00208333
 41
0.00208333
  0
VERTEX
  8
0
 10
2.94146
 20
1.14258
 30
0.0
 40
0.00208333
 41
0.00208333
  0
VERTEX
  8
0
 10
2.94146
 20
2.70594
 30
0.0
 40
0.00208333
 41
0.00208333
  0
VERTEX
  8
0
 10
4.08946
 20
2.70594
 30
0.0
 40
0.00208333
 41
0.00208333
  0
VERTEX
  8
0
 10
4.08946
 20
4.66971
 30
0.0
 40
0.00208333
 41
0.00208333
  0
VERTEX
  8
0
 10
5.06044
 20
4.66971
 30
0.0
 40
0.00208333
 41
0.00208333
  0
VERTEX
  8
0
 10
5.06044
 20
1.14258
 30
0.0
 40
0.00208333
 41
0.00208333
  0
SEQEND
 8
0
  0
TEXT
  8
0
 62
     0
 10
4.30893
 20
2.12581
 30
0.0
 40
0.34375
  1
ET
 50
0
  0
POLYLINE
  8
0
 62
     7
 66
     1
 10
0
 20
0
 30
0.0
 70
     1
 40
0
 41
0
  0
VERTEX
  8
0
 10
10.7351
 20
4.66971
 30
0.0
 40
0
 41
0
  0
VERTEX
  8
0
 10
4.08946
 20
4.66971
 30
0.0
 40
0
 41
0
  0
VERTEX
  8
0
 10
4.08946
 20
9.12446
 30
0.0
 40
0
 41
0
  0
VERTEX
  8
0
 10
7.67378
 20
9.12446
 30
0.0
 40
0
 41
0
  0
VERTEX
  8
0
 10
7.67378
 20
9.12739
 30
0.0
 40
0
 41
0
  0
VERTEX
  8
0
 10
10.7351
 20
9.12739
 30
0.0
 40
0
 41
0
  0
VERTEX
  8
0
 10
10.7351
 20
4.66971
 30
0.0
 40
0
 41
0
  0
SEQEND
 8
0
  0
POLYLINE
  8
0
 62
     7
 66
     1
 10
0
 20
0
 30
0.0
 70
     1
 40
0.15
 41
0.15
  0
VERTEX
  8
0
 10
10.7351
 20
4.66971
 30
0.0
 40
0.00208333
 41
0.00208333
  0
VERTEX
  8
0
 10
4.08946
 20
4.66971
 30
0.0
 40
0.00208333
 41
0.00208333
  0
VERTEX
  8
0
 10
4.08946
 20
9.12446
 30
0.0
 40
0.00208333
 41
0.00208333
  0
VERTEX
  8
0
 10
7.67378
 20
9.12446
 30
0.0
 40
0.00208333
 41
0.00208333
  0
VERTEX
  8
0
 10
7.67378
 20
9.12739
 30
0.0
 40
0.00208333
 41
0.00208333
  0
VERTEX
  8
0
 10
10.7351
 20
9.12739
 30
0.0
 40
0.00208333
 41
0.00208333
  0
VERTEX
  8
0
 10
10.7351
 20
4.66971
 30
0.0
 40
0.00208333
 41
0.00208333
  0
SEQEND
 8
0
  0
TEXT
  8
0
 62
     0
 10
7.17353
 20
6.69467
 30
0.0
 40
0.34375
  1
OH
 50
0
  0
POLYLINE
  8
0
 62
     7
 66
     1
 10
0
 20
0
 30
0.0
 70
     1
 40
0
 41
0
  0
VERTEX
  8
0
 10
1.25374
 20
9.12446
 30
0.0
 40
0
 41
0
  0
VERTEX
  8
0
 10
3.97488
 20
9.12446
 30
0.0
 40
0
 41
0
  0
VERTEX
  8
0
 10
3.97488
 20
4.89979
 30
0.0
 40
0
 41
0
  0
VERTEX
  8
0
 10
1.25374
 20
4.89979
 30
0.0
 40
0
 41
0
  0
VERTEX
  8
0
 10
1.25374
 20
9.12446
 30
0.0
 40
0
 41
0
  0
SEQEND
 8
0
  0
POLYLINE
  8
0
 62
     7
 66
     1
 10
0
 20
0
 30
0.0
 70
     1
 40
0.15
 41
0.15
  0
VERTEX
  8
0
 10
1.25374
 20
9.12446
 30
0.0
 40
0.00208333
 41
0.00208333
  0
VERTEX
  8
0
 10
3.97488
 20
9.12446
 30
0.0
 40
0.00208333
 41
0.00208333
  0
VERTEX
  8
0
 10
3.97488
 20
4.89979
 30
0.0
 40
0.00208333
 41
0.00208333
  0
VERTEX
  8
0
 10
1.25374
 20
4.89979
 30
0.0
 40
0.00208333
 41
0.00208333
  0
VERTEX
  8
0
 10
1.25374
 20
9.12446
 30
0.0
 40
0.00208333
 41
0.00208333
  0
SEQEND
 8
0
  0
TEXT
  8
0
 62
     0
 10
2.31781
 20
6.85418
 30
0.0
 40
0.34375
  1
MH
 50
0
  0
POLYLINE
  8
0
 62
     7
 66
     1
 10
0
 20
0
 30
0.0
 70
     1
 40
0
 41
0
  0
VERTEX
  8
0
 10
7.71707
 20
4.56554
 30
0.0
 40
0
 41
0
  0
VERTEX
  8
0
 10
10.7351
 20
4.56554
 30
0.0
 40
0
 41
0
  0
VERTEX
  8
0
 10
10.7351
 20
1.14258
 30
0.0
 40
0
 41
0
  0
VERTEX
  8
0
 10
7.71707
 20
1.14258
 30
0.0
 40
0
 41
0
  0
VERTEX
  8
0
 10
7.71707
 20
4.56554
 30
0.0
 40
0
 41
0
  0
SEQEND
 8
0
  0
POLYLINE
  8
0
 62
     7
 66
     1
 10
0
 20
0
 30
0.0
 70
     1
 40
0.15
 41
0.15
  0
VERTEX
  8
0
 10
7.71707
 20
4.56554
 30
0.0
 40
0.00208333
 41
0.00208333
  0
VERTEX
  8
0
 10
10.7351
 20
4.56554
 30
0.0
 40
0.00208333
 41
0.00208333
  0
VERTEX
  8
0
 10
10.7351
 20
1.14258
 30
0.0
 40
0.00208333
 41
0.00208333
  0
VERTEX
  8
0
 10
7.71707
 20
1.14258
 30
0.0
 40
0.00208333
 41
0.00208333
  0
VERTEX
  8
0
 10
7.71707
 20
4.56554
 30
0.0
 40
0.00208333
 41
0.00208333
  0
SEQEND
 8
0
  0
TEXT
  8
0
 62
     0
 10
9.00957
 20
2.58825
 30
0.0
 40
0.34375
  1
MH
 50
0
  0
POLYLINE
  8
0
 62
     7
 66
     1
 10
0
 20
0
 30
0.0
 70
     1
 40
0
 41
0
  0
VERTEX
  8
0
 10
7.6129
 20
1.68158
 30
0.0
 40
0
 41
0
  0
VERTEX
  8
0
 10
7.20324
 20
1.66971
 30
0.0
 40
0
 41
0
  0
VERTEX
  8
0
 10
7.21875
 20
1.14258
 30
0.0
 40
0
 41
0
  0
VERTEX
  8
0
 10
5.18544
 20
1.14258
 30
0.0
 40
0
 41
0
  0
VERTEX
  8
0
 10
5.18544
 20
4.56554
 30
0.0
 40
0
 41
0
  0
VERTEX
  8
0
 10
7.6129
 20
4.56554
 30
0.0
 40
0
 41
0
  0
VERTEX
  8
0
 10
7.6129
 20
1.68158
 30
0.0
 40
0
 41
0
  0
SEQEND
 8
0
  0
POLYLINE
  8
0
 62
     7
 66
     1
 10
0
 20
0
 30
0.0
 70
     1
 40
0.15
 41
0.15
  0
VERTEX
  8
0
 10
7.6129
 20
1.68158
 30
0.0
 40
0.00208333
 41
0.00208333
  0
VERTEX
  8
0
 10
7.20324
 20
1.66971
 30
0.0
 40
0.00208333
 41
0.00208333
  0
VERTEX
  8
0
 10
7.21875
 20
1.14258
 30
0.0
 40
0.00208333
 41
0.00208333
  0
VERTEX
  8
0
 10
5.18544
 20
1.14258
 30
0.0
 40
0.00208333
 41
0.00208333
  0
VERTEX
  8
0
 10
5.18544
 20
4.56554
 30
0.0
 40
0.00208333
 41
0.00208333
  0
VERTEX
  8
0
 10
7.6129
 20
4.56554
 30
0.0
 40
0.00208333
 41
0.00208333
  0
VERTEX
  8
0
 10
7.6129
 20
1.68158
 30
0.0
 40
0.00208333
 41
0.00208333
  0
SEQEND
 8
0
  0
TEXT
  8
0
 62
     0
 10
6.27629
 20
2.82604
 30
0.0
 40
0.34375
  1
K
 50
0
  0
POLYLINE
  8
0
 62
     7
 66
     1
 10
0
 20
0
 30
0.0
 70
     1
 40
0
 41
0
  0
VERTEX
  8
0
 10
3.97488
 20
2.82053
 30
0.0
 40
0
 41
0
  0
VERTEX
  8
0
 10
1.25374
 20
2.82053
 30
0.0
 40
0
 41
0
  0
VERTEX
  8
0
 10
1.25374
 20
4.46636
 30
0.0
 40
0
 41
0
  0
VERTEX
  8
0
 10
1.82042
 20
4.46636
 30
0.0
 40
0
 41
0
  0
VERTEX
  8
0
 10
1.82042
 20
4.79563
 30
0.0
 40
0
 41
0
  0
VERTEX
  8
0
 10
3.97488
 20
4.79563
 30
0.0
 40
0
 41
0
  0
VERTEX
  8
0
 10
3.97488
 20
2.82053
 30
0.0
 40
0
 41
0
  0
SEQEND
 8
0
  0
POLYLINE
  8
0
 62
     7
 66
     1
 10
0
 20
0
 30
0.0
 70
     1
 40
0.15
 41
0.15
  0
VERTEX
  8
0
 10
3.97488
 20
2.82053
 30
0.0
 40
0.00208333
 41
0.00208333
  0
VERTEX
  8
0
 10
1.25374
 20
2.82053
 30
0.0
 40
0.00208333
 41
0.00208333
  0
VERTEX
  8
0
 10
1.25374
 20
4.46636
 30
0.0
 40
0.00208333
 41
0.00208333
  0
VERTEX
  8
0
 10
1.82042
 20
4.46636
 30
0.0
 40
0.00208333
 41
0.00208333
  0
VERTEX
  8
0
 10
1.82042
 20
4.79563
 30
0.0
 40
0.00208333
 41
0.00208333
  0
VERTEX
  8
0
 10
3.97488
 20
4.79563
 30
0.0
 40
0.00208333
 41
0.00208333
  0
VERTEX
  8
0
 10
3.97488
 20
2.82053
 30
0.0
 40
0.00208333
 41
0.00208333
  0
SEQEND
 8
0
  0
TEXT
  8
0
 62
     0
 10
2.31774
 20
3.57814
 30
0.0
 40
0.34375
  1
KH
 50
0
  0
POLYLINE
  8
0
 62
     7
 66
     1
 10
0
 20
0
 30
0.0
 70
     1
 40
0
 41
0
  0
VERTEX
  8
0
 10
1.31624
 20
2.70594
 30
0.0
 40
0
 41
0
  0
VERTEX
  8
0
 10
2.82688
 20
2.70594
 30
0.0
 40
0
 41
0
  0
VERTEX
  8
0
 10
2.82688
 20
1.21549
 30
0.0
 40
0
 41
0
  0
VERTEX
  8
0
 10
1.31624
 20
1.21549
 30
0.0
 40
0
 41
0
  0
VERTEX
  8
0
 10
1.31624
 20
2.70594
 30
0.0
 40
0
 41
0
  0
SEQEND
 8
0
  0
POLYLINE
  8
0
 62
     7
 66
     1
 10
0
 20
0
 30
0.0
 70
     1
 40
0.15
 41
0.15
  0
VERTEX
  8
0
 10
1.31624
 20
2.70594
 30
0.0
 40
0.00208333
 41
0.00208333
  0
VERTEX
  8
0
 10
2.82688
 20
2.70594
 30
0.0
 40
0.00208333
 41
0.00208333
  0
VERTEX
  8
0
 10
2.82688
 20
1.21549
 30
0.0
 40
0.00208333
 41
0.00208333
  0
VERTEX
  8
0
 10
1.31624
 20
1.21549
 30
0.0
 40
0.00208333
 41
0.00208333
  0
VERTEX
  8
0
 10
1.31624
 20
2.70594
 30
0.0
 40
0.00208333
 41
0.00208333
  0
SEQEND
 8
0
  0
TEXT
  8
0
 62
     0
 10
2.06143
 20
1.96071
 30
0.0
 40
0.34375
  1
UNDEFINED
 50
0
  0
POLYLINE
  8
0
 62
     7
 66
     1
 10
0
 20
0
 30
0.0
 70
     1
 40
0
 41
0
  0
VERTEX
  8
0
 10
1.25374
 20
4.79563
 30
0.0
 40
0
 41
0
  0
VERTEX
  8
0
 10
1.75792
 20
4.79563
 30
0.0
 40
0
 41
0
  0
VERTEX
  8
0
 10
1.75792
 20
4.52886
 30
0.0
 40
0
 41
0
  0
VERTEX
  8
0
 10
1.25374
 20
4.52886
 30
0.0
 40
0
 41
0
  0
VERTEX
  8
0
 10
1.25374
 20
4.79563
 30
0.0
 40
0
 41
0
  0
SEQEND
 8
0
  0
POLYLINE
  8
0
 62
     7
 66
     1
 10
0
 20
0
 30
0.0
 70
     1
 40
0.15
 41
0.15
  0
VERTEX
  8
0
 10
1.25374
 20
4.79563
 30
0.0
 40
0.00208333
 41
0.00208333
  0
VERTEX
  8
0
 10
1.75792
 20
4.79563
 30
0.0
 40
0.00208333
 41
0.00208333
  0
VERTEX
  8
0
 10
1.75792
 20
4.52886
 30
0.0
 40
0.00208333
 41
0.00208333
  0
VERTEX
  8
0
 10
1.25374
 20
4.52886
 30
0.0
 40
0.00208333
 41
0.00208333
  0
VERTEX
  8
0
 10
1.25374
 20
4.79563
 30
0.0
 40
0.00208333
 41
0.00208333
  0
SEQEND
 8
0
  0
TEXT
  8
0
 62
     0
 10
1.38712
 20
4.66221
 30
0.0
 40
0.34375
  1
UNDEFINED
 50
0
  0
POLYLINE
  8
0
 62
     0
 66
     1
 10
0
 20
0
 30
0.0
 70
     1
 40
0
 41
0
  0
VERTEX
  8
0
 10
1.06624
 20
9.39529
 30
0.0
 40
0
 41
0
  0
VERTEX
  8
0
 10
1.06624
 20
2.82053
 30
0.0
 40
0
 41
0
  0
VERTEX
  8
0
 10
1.25374
 20
2.82053
 30
0.0
 40
0
 41
0
  0
VERTEX
  8
0
 10
1.25374
 20
9.12446
 30
0.0
 40
0
 41
0
  0
VERTEX
  8
0
 10
1.06624
 20
9.39529
 30
0.0
 40
0
 41
0
  0
SEQEND
 8
0
  0
POLYLINE
  8
0
 62
     0
 66
     1
 10
0
 20
0
 30
0.0
 70
     1
 40
0.15
 41
0.15
  0
VERTEX
  8
0
 10
1.06624
 20
9.39529
 30
0.0
 40
0.00208333
 41
0.00208333
  0
VERTEX
  8
0
 10
1.06624
 20
2.82053
 30
0.0
 40
0.00208333
 41
0.00208333
  0
VERTEX
  8
0
 10
1.25374
 20
2.82053
 30
0.0
 40
0.00208333
 41
0.00208333
  0
VERTEX
  8
0
 10
1.25374
 20
9.12446
 30
0.0
 40
0.00208333
 41
0.00208333
  0
VERTEX
  8
0
 10
1.06624
 20
9.39529
 30
0.0
 40
0.00208333
 41
0.00208333
  0
SEQEND
 8
0
  0
POLYLINE
  8
0
 62
     0
 66
     1
 10
0
 20
0
 30
0.0
 70
     1
 40
0
 41
0
  0
VERTEX
  8
0
 10
1.06624
 20
2.82053
 30
0.0
 40
0
 41
0
  0
VERTEX
  8
0
 10
1.06624
 20
0.934244
 30
0.0
 40
0
 41
0
  0
VERTEX
  8
0
 10
1.31624
 20
1.21549
 30
0.0
 40
0
 41
0
  0
VERTEX
  8
0
 10
1.31624
 20
2.82053
 30
0.0
 40
0
 41
0
  0
VERTEX
  8
0
 10
1.06624
 20
2.82053
 30
0.0
 40
0
 41
0
  0
SEQEND
 8
0
  0
POLYLINE
  8
0
 62
     0
 66
     1
 10
0
 20
0
 30
0.0
 70
     1
 40
0.15
 41
0.15
  0
VERTEX
  8
0
 10
1.06624
 20
2.82053
 30
0.0
 40
0.00208333
 41
0.00208333
  0
VERTEX
  8
0
 10
1.06624
 20
0.934244
 30
0.0
 40
0.00208333
 41
0.00208333
  0
VERTEX
  8
0
 10
1.31624
 20
1.21549
 30
0.0
 40
0.00208333
 41
0.00208333
  0
VERTEX
  8
0
 10
1.31624
 20
2.82053
 30
0.0
 40
0.00208333
 41
0.00208333
  0
VERTEX
  8
0
 10
1.06624
 20
2.82053
 30
0.0
 40
0.00208333
 41
0.00208333
  0
SEQEND
 8
0
  0
POLYLINE
  8
0
 62
     0
 66
     1
 10
0
 20
0
 30
0.0
 70
     1
 40
0
 41
0
  0
VERTEX
  8
0
 10
1.06624
 20
0.934244
 30
0.0
 40
0
 41
0
  0
VERTEX
  8
0
 10
2.94146
 20
0.934244
 30
0.0
 40
0
 41
0
  0
VERTEX
  8
0
 10
2.94146
 20
1.21549
 30
0.0
 40
0
 41
0
  0
VERTEX
  8
0
 10
1.31624
 20
1.21549
 30
0.0
 40
0
 41
0
  0
VERTEX
  8
0
 10
1.06624
 20
0.934244
 30
0.0
 40
0
 41
0
  0
SEQEND
 8
0
  0
POLYLINE
  8
0
 62
     0
 66
     1
 10
0
 20
0
 30
0.0
 70
     1
 40
0.15
 41
0.15
  0
VERTEX
  8
0
 10
1.06624
 20
0.934244
 30
0.0
 40
0.00208333
 41
0.00208333
  0
VERTEX
  8
0
 10
2.94146
 20
0.934244
 30
0.0
 40
0.00208333
 41
0.00208333
  0
VERTEX
  8
0
 10
2.94146
 20
1.21549
 30
0.0
 40
0.00208333
 41
0.00208333
  0
VERTEX
  8
0
 10
1.31624
 20
1.21549
 30
0.0
 40
0.00208333
 41
0.00208333
  0
VERTEX
  8
0
 10
1.06624
 20
0.934244
 30
0.0
 40
0.00208333
 41
0.00208333
  0
SEQEND
 8
0
  0
POLYLINE
  8
0
 62
     0
 66
     1
 10
0
 20
0
 30
0.0
 70
     1
 40
0
 41
0
  0
VERTEX
  8
0
 10
2.94146
 20
0.934244
 30
0.0
 40
0
 41
0
  0
VERTEX
  8
0
 10
11.2351
 20
0.934244
 30
0.0
 40
0
 41
0
  0
VERTEX
  8
0
 10
10.7351
 20
1.14258
 30
0.0
 40
0
 41
0
  0
VERTEX
  8
0
 10
2.94146
 20
1.14258
 30
0.0
 40
0
 41
0
  0
VERTEX
  8
0
 10
2.94146
 20
0.934244
 30
0.0
 40
0
 41
0
  0
SEQEND
 8
0
  0
POLYLINE
  8
0
 62
     0
 66
     1
 10
0
 20
0
 30
0.0
 70
     1
 40
0.15
 41
0.15
  0
VERTEX
  8
0
 10
2.94146
 20
0.934244
 30
0.0
 40
0.00208333
 41
0.00208333
  0
VERTEX
  8
0
 10
11.2351
 20
0.934244
 30
0.0
 40
0.00208333
 41
0.00208333
  0
VERTEX
  8
0
 10
10.7351
 20
1.14258
 30
0.0
 40
0.00208333
 41
0.00208333
  0
VERTEX
  8
0
 10
2.94146
 20
1.14258
 30
0.0
 40
0.00208333
 41
0.00208333
  0
VERTEX
  8
0
 10
2.94146
 20
0.934244
 30
0.0
 40
0.00208333
 41
0.00208333
  0
SEQEND
 8
0
  0
POLYLINE
  8
0
 62
     7
 66
     1
 10
0
 20
0
 30
0.0
 70
     1
 40
0
 41
0
  0
VERTEX
  8
0
 10
3.64865
 20
1.14258
 30
0.0
 40
0
 41
0
  0
VERTEX
  8
0
 10
4.57596
 20
1.14258
 30
0.0
 40
0
 41
0
  0
VERTEX
  8
0
 10
4.57596
 20
0.934244
 30
0.0
 40
0
 41
0
  0
VERTEX
  8
0
 10
3.64865
 20
0.934244
 30
0.0
 40
0
 41
0
  0
VERTEX
  8
0
 10
3.64865
 20
1.14258
 30
0.0
 40
0
 41
0
  0
SEQEND
 8
0
  0
POLYLINE
  8
0
 62
     0
 66
     1
 10
0
 20
0
 30
0.0
 70
     1
 40
0.75
 41
0.75
  0
VERTEX
  8
0
 10
3.64865
 20
1.14258
 30
0.0
 40
0.0104167
 41
0.0104167
  0
VERTEX
  8
0
 10
4.57596
 20
1.14258
 30
0.0
 40
0.0104167
 41
0.0104167
  0
VERTEX
  8
0
 10
4.57596
 20
0.934244
 30
0.0
 40
0.0104167
 41
0.0104167
  0
VERTEX
  8
0
 10
3.64865
 20
0.934244
 30
0.0
 40
0.0104167
 41
0.0104167
  0
VERTEX
  8
0
 10
3.64865
 20
1.14258
 30
0.0
 40
0.0104167
 41
0.0104167
  0
SEQEND
 8
0
  0
POLYLINE
  8
0
 62
     7
 66
     1
 10
0
 20
0
 30
0.0
 70
     1
 40
0
 41
0
  0
VERTEX
  8
0
 10
3.64865
 20
1.14258
 30
0.0
 40
0
 41
0
  0
VERTEX
  8
0
 10
4.57596
 20
1.14258
 30
0.0
 40
0
 41
0
  0
VERTEX
  8
0
 10
4.57596
 20
0.934244
 30
0.0
 40
0
 41
0
  0
VERTEX
  8
0
 10
3.64865
 20
0.934244
 30
0.0
 40
0
 41
0
  0
VERTEX
  8
0
 10
3.64865
 20
1.14258
 30
0.0
 40
0
 41
0
  0
SEQEND
 8
0
  0
POLYLINE
  8
0
 62
     0
 66
     1
 10
0
 20
0
 30
0.0
 70
     1
 40
0.75
 41
0.75
  0
VERTEX
  8
0
 10
3.64865
 20
1.14258
 30
0.0
 40
0.0104167
 41
0.0104167
  0
VERTEX
  8
0
 10
4.57596
 20
1.14258
 30
0.0
 40
0.0104167
 41
0.0104167
  0
VERTEX
  8
0
 10
4.57596
 20
0.934244
 30
0.0
 40
0.0104167
 41
0.0104167
  0
VERTEX
  8
0
 10
3.64865
 20
0.934244
 30
0.0
 40
0.0104167
 41
0.0104167
  0
VERTEX
  8
0
 10
3.64865
 20
1.14258
 30
0.0
 40
0.0104167
 41
0.0104167
  0
SEQEND
 8
0
  0
POLYLINE
  8
0
 62
     0
 66
     1
 10
0
 20
0
 30
0.0
 70
     1
 40
0.75
 41
0.75
  0
VERTEX
  8
0
 10
3.64865
 20
0.934244
 30
0.0
 40
0.0104167
 41
0.0104167
  0
VERTEX
  8
0
 10
3.64865
 20
0.879937
 30
0.0
 40
0.0104167
 41
0.0104167
  0
VERTEX
  8
0
 10
3.66314
 20
0.71696
 30
0.0
 40
0.0104167
 41
0.0104167
  0
VERTEX
  8
0
 10
3.7066
 20
0.528592
 30
0.0
 40
0.0104167
 41
0.0104167
  0
VERTEX
  8
0
 10
3.77903
 20
0.369249
 30
0.0
 40
0.0104167
 41
0.0104167
  0
VERTEX
  8
0
 10
3.88043
 20
0.238824
 30
0.0
 40
0.0104167
 41
0.0104167
  0
VERTEX
  8
0
 10
4.01085
 20
0.137424
 30
0.0
 40
0.0104167
 41
0.0104167
  0
VERTEX
  8
0
 10
4.17025
 20
0.0649957
 30
0.0
 40
0.0104167
 41
0.0104167
  0
VERTEX
  8
0
 10
4.35856
 20
0.0215386
 30
0.0
 40
0.0104167
 41
0.0104167
  0
VERTEX
  8
0
 10
4.5216
 20
0.00699869
 30
0.0
 40
0.0104167
 41
0.0104167
  0
VERTEX
  8
0
 10
4.57596
 20
0.00699869
 30
0.0
 40
0.0104167
 41
0.0104167
  0
VERTEX
  8
0
 10
4.57596
 20
0.934244
 30
0.0
 40
0.0104167
 41
0.0104167
  0
VERTEX
  8
0
 10
3.64865
 20
0.934244
 30
0.0
 40
0.0104167
 41
0.0104167
  0
SEQEND
 8
0
  0
POLYLINE
  8
0
 62
     0
 66
     1
 10
0
 20
0
 30
0.0
 70
     1
 40
0.75
 41
0.75
  0
VERTEX
  8
0
 10
4.57596
 20
1.14258
 30
0.0
 40
0.0104167
 41
0.0104167
  0
VERTEX
  8
0
 10
4.57596
 20
1.19694
 30
0.0
 40
0.0104167
 41
0.0104167
  0
VERTEX
  8
0
 10
4.56142
 20
1.35997
 30
0.0
 40
0.0104167
 41
0.0104167
  0
VERTEX
  8
0
 10
4.51796
 20
1.54829
 30
0.0
 40
0.0104167
 41
0.0104167
  0
VERTEX
  8
0
 10
4.44553
 20
1.70768
 30
0.0
 40
0.0104167
 41
0.0104167
  0
VERTEX
  8
0
 10
4.34407
 20
1.83811
 30
0.0
 40
0.0104167
 41
0.0104167
  0
VERTEX
  8
0
 10
4.21371
 20
1.93951
 30
0.0
 40
0.0104167
 41
0.0104167
  0
VERTEX
  8
0
 10
4.05431
 20
2.01193
 30
0.0
 40
0.0104167
 41
0.0104167
  0
VERTEX
  8
0
 10
3.86594
 20
2.05539
 30
0.0
 40
0.0104167
 41
0.0104167
  0
VERTEX
  8
0
 10
3.70296
 20
2.06988
 30
0.0
 40
0.0104167
 41
0.0104167
  0
VERTEX
  8
0
 10
3.64865
 20
2.06988
 30
0.0
 40
0.0104167
 41
0.0104167
  0
VERTEX
  8
0
 10
3.64865
 20
1.14258
 30
0.0
 40
0.0104167
 41
0.0104167
  0
VERTEX
  8
0
 10
4.57596
 20
1.14258
 30
0.0
 40
0.0104167
 41
0.0104167
  0
SEQEND
 8
0
  0
POLYLINE
  8
0
 62
     7
 66
     1
 10
0
 20
0
 30
0.0
 70
     1
 40
0
 41
0
  0
VERTEX
  8
0
 10
6.60846
 20
1.14258
 30
0.0
 40
0
 41
0
  0
VERTEX
  8
0
 10
7.04563
 20
1.14258
 30
0.0
 40
0
 41
0
  0
VERTEX
  8
0
 10
7.04563
 20
0.934244
 30
0.0
 40
0
 41
0
  0
VERTEX
  8
0
 10
6.60846
 20
0.934244
 30
0.0
 40
0
 41
0
  0
VERTEX
  8
0
 10
6.60846
 20
1.14258
 30
0.0
 40
0
 41
0
  0
SEQEND
 8
0
  0
POLYLINE
  8
0
 62
     0
 66
     1
 10
0
 20
0
 30
0.0
 70
     1
 40
0.75
 41
0.75
  0
VERTEX
  8
0
 10
6.60846
 20
1.14258
 30
0.0
 40
0.0104167
 41
0.0104167
  0
VERTEX
  8
0
 10
7.04563
 20
1.14258
 30
0.0
 40
0.0104167
 41
0.0104167
  0
VERTEX
  8
0
 10
7.04563
 20
0.934244
 30
0.0
 40
0.0104167
 41
0.0104167
  0
VERTEX
  8
0
 10
6.60846
 20
0.934244
 30
0.0
 40
0.0104167
 41
0.0104167
  0
VERTEX
  8
0
 10
6.60846
 20
1.14258
 30
0.0
 40
0.0104167
 41
0.0104167
  0
SEQEND
 8
0
  0
POLYLINE
  8
0
 62
     7
 66
     1
 10
0
 20
0
 30
0.0
 70
     1
 40
0
 41
0
  0
VERTEX
  8
0
 10
6.60846
 20
1.14258
 30
0.0
 40
0
 41
0
  0
VERTEX
  8
0
 10
7.04563
 20
1.14258
 30
0.0
 40
0
 41
0
  0
VERTEX
  8
0
 10
7.04563
 20
0.934244
 30
0.0
 40
0
 41
0
  0
VERTEX
  8
0
 10
6.60846
 20
0.934244
 30
0.0
 40
0
 41
0
  0
VERTEX
  8
0
 10
6.60846
 20
1.14258
 30
0.0
 40
0
 41
0
  0
SEQEND
 8
0
  0
POLYLINE
  8
0
 62
     0
 66
     1
 10
0
 20
0
 30
0.0
 70
     1
 40
0.75
 41
0.75
  0
VERTEX
  8
0
 10
6.60846
 20
1.14258
 30
0.0
 40
0.0104167
 41
0.0104167
  0
VERTEX
  8
0
 10
7.04563
 20
1.14258
 30
0.0
 40
0.0104167
 41
0.0104167
  0
VERTEX
  8
0
 10
7.04563
 20
0.934244
 30
0.0
 40
0.0104167
 41
0.0104167
  0
VERTEX
  8
0
 10
6.60846
 20
0.934244
 30
0.0
 40
0.0104167
 41
0.0104167
  0
VERTEX
  8
0
 10
6.60846
 20
1.14258
 30
0.0
 40
0.0104167
 41
0.0104167
  0
SEQEND
 8
0
  0
POLYLINE
  8
0
 62
     0
 66
     1
 10
0
 20
0
 30
0.0
 40
0.75
 41
0.75
  0
VERTEX
  8
0
 10
6.68653
 20
1.03847
 30
0.0
 40
0.0104167
 41
0.0104167
  0
VERTEX
  8
0
 10
6.9675
 20
1.03847
 30
0.0
 40
0.0104167
 41
0.0104167
  0
SEQEND
 8
0
  0
POLYLINE
  8
0
 62
     0
 66
     1
 10
0
 20
0
 30
0.0
 40
0.75
 41
0.75
  0
VERTEX
  8
0
 10
6.68653
 20
0.934299
 30
0.0
 40
0.0104167
 41
0.0104167
  0
VERTEX
  8
0
 10
6.68653
 20
1.14263
 30
0.0
 40
0.0104167
 41
0.0104167
  0
SEQEND
 8
0
  0
POLYLINE
  8
0
 62
     0
 66
     1
 10
0
 20
0
 30
0.0
 40
0.75
 41
0.75
  0
VERTEX
  8
0
 10
6.9675
 20
0.934299
 30
0.0
 40
0.0104167
 41
0.0104167
  0
VERTEX
  8
0
 10
6.9675
 20
1.14263
 30
0.0
 40
0.0104167
 41
0.0104167
  0
SEQEND
 8
0
  0
POLYLINE
  8
0
 62
     7
 66
     1
 10
0
 20
0
 30
0.0
 70
     1
 40
0
 41
0
  0
VERTEX
  8
0
 10
8.46149
 20
1.14258
 30
0.0
 40
0
 41
0
  0
VERTEX
  8
0
 10
10.5603
 20
1.14258
 30
0.0
 40
0
 41
0
  0
VERTEX
  8
0
 10
10.5603
 20
0.934244
 30
0.0
 40
0
 41
0
  0
VERTEX
  8
0
 10
8.46149
 20
0.934244
 30
0.0
 40
0
 41
0
  0
VERTEX
  8
0
 10
8.46149
 20
1.14258
 30
0.0
 40
0
 41
0
  0
SEQEND
 8
0
  0
POLYLINE
  8
0
 62
     0
 66
     1
 10
0
 20
0
 30
0.0
 70
     1
 40
0.75
 41
0.75
  0
VERTEX
  8
0
 10
8.46149
 20
1.14258
 30
0.0
 40
0.0104167
 41
0.0104167
  0
VERTEX
  8
0
 10
10.5603
 20
1.14258
 30
0.0
 40
0.0104167
 41
0.0104167
  0
VERTEX
  8
0
 10
10.5603
 20
0.934244
 30
0.0
 40
0.0104167
 41
0.0104167
  0
VERTEX
  8
0
 10
8.46149
 20
0.934244
 30
0.0
 40
0.0104167
 41
0.0104167
  0
VERTEX
  8
0
 10
8.46149
 20
1.14258
 30
0.0
 40
0.0104167
 41
0.0104167
  0
SEQEND
 8
0
  0
POLYLINE
  8
0
 62
     7
 66
     1
 10
0
 20
0
 30
0.0
 70
     1
 40
0
 41
0
  0
VERTEX
  8
0
 10
8.46149
 20
1.14258
 30
0.0
 40
0
 41
0
  0
VERTEX
  8
0
 10
10.5603
 20
1.14258
 30
0.0
 40
0
 41
0
  0
VERTEX
  8
0
 10
10.5603
 20
0.934244
 30
0.0
 40
0
 41
0
  0
VERTEX
  8
0
 10
8.46149
 20
0.934244
 30
0.0
 40
0
 41
0
  0
VERTEX
  8
0
 10
8.46149
 20
1.14258
 30
0.0
 40
0
 41
0
  0
SEQEND
 8
0
  0
POLYLINE
  8
0
 62
     0
 66
     1
 10
0
 20
0
 30
0.0
 70
     1
 40
0.75
 41
0.75
  0
VERTEX
  8
0
 10
8.46149
 20
1.14258
 30
0.0
 40
0.0104167
 41
0.0104167
  0
VERTEX
  8
0
 10
10.5603
 20
1.14258
 30
0.0
 40
0.0104167
 41
0.0104167
  0
VERTEX
  8
0
 10
10.5603
 20
0.934244
 30
0.0
 40
0.0104167
 41
0.0104167
  0
VERTEX
  8
0
 10
8.46149
 20
0.934244
 30
0.0
 40
0.0104167
 41
0.0104167
  0
VERTEX
  8
0
 10
8.46149
 20
1.14258
 30
0.0
 40
0.0104167
 41
0.0104167
  0
SEQEND
 8
0
  0
POLYLINE
  8
0
 62
     0
 66
     1
 10
0
 20
0
 30
0.0
 40
0.75
 41
0.75
  0
VERTEX
  8
0
 10
8.53956
 20
1.03847
 30
0.0
 40
0.0104167
 41
0.0104167
  0
VERTEX
  8
0
 10
10.4822
 20
1.03847
 30
0.0
 40
0.0104167
 41
0.0104167
  0
SEQEND
 8
0
  0
POLYLINE
  8
0
 62
     0
 66
     1
 10
0
 20
0
 30
0.0
 40
0.75
 41
0.75
  0
VERTEX
  8
0
 10
8.53956
 20
0.934299
 30
0.0
 40
0.0104167
 41
0.0104167
  0
VERTEX
  8
0
 10
8.53956
 20
1.14263
 30
0.0
 40
0.0104167
 41
0.0104167
  0
SEQEND
 8
0
  0
POLYLINE
  8
0
 62
     0
 66
     1
 10
0
 20
0
 30
0.0
 40
0.75
 41
0.75
  0
VERTEX
  8
0
 10
10.4822
 20
0.934299
 30
0.0
 40
0.0104167
 41
0.0104167
  0
VERTEX
  8
0
 10
10.4822
 20
1.14263
 30
0.0
 40
0.0104167
 41
0.0104167
  0
SEQEND
 8
0
  0
POLYLINE
  8
0
 62
     0
 66
     1
 10
0
 20
0
 30
0.0
 70
     1
 40
0
 41
0
  0
VERTEX
  8
0
 10
11.2351
 20
0.934244
 30
0.0
 40
0
 41
0
  0
VERTEX
  8
0
 10
11.2351
 20
9.51281
 30
0.0
 40
0
 41
0
  0
VERTEX
  8
0
 10
10.7351
 20
9.12739
 30
0.0
 40
0
 41
0
  0
VERTEX
  8
0
 10
10.7351
 20
1.14258
 30
0.0
 40
0
 41
0
  0
VERTEX
  8
0
 10
11.2351
 20
0.934244
 30
0.0
 40
0
 41
0
  0
SEQEND
 8
0
  0
POLYLINE
  8
0
 62
     0
 66
     1
 10
0
 20
0
 30
0.0
 70
     1
 40
0.15
 41
0.15
  0
VERTEX
  8
0
 10
11.2351
 20
0.934244
 30
0.0
 40
0.00208333
 41
0.00208333
  0
VERTEX
  8
0
 10
11.2351
 20
9.51281
 30
0.0
 40
0.00208333
 41
0.00208333
  0
VERTEX
  8
0
 10
10.7351
 20
9.12739
 30
0.0
 40
0.00208333
 41
0.00208333
  0
VERTEX
  8
0
 10
10.7351
 20
1.14258
 30
0.0
 40
0.00208333
 41
0.00208333
  0
VERTEX
  8
0
 10
11.2351
 20
0.934244
 30
0.0
 40
0.00208333
 41
0.00208333
  0
SEQEND
 8
0
  0
POLYLINE
  8
0
 62
     7
 66
     1
 10
0
 20
0
 30
0.0
 70
     1
 40
0
 41
0
  0
VERTEX
  8
0
 10
10.7351
 20
8.81054
 30
0.0
 40
0
 41
0
  0
VERTEX
  8
0
 10
11.2351
 20
8.81054
 30
0.0
 40
0
 41
0
  0
VERTEX
  8
0
 10
11.2351
 20
6.37418
 30
0.0
 40
0
 41
0
  0
VERTEX
  8
0
 10
10.7351
 20
6.37418
 30
0.0
 40
0
 41
0
  0
VERTEX
  8
0
 10
10.7351
 20
8.81054
 30
0.0
 40
0
 41
0
  0
SEQEND
 8
0
  0
POLYLINE
  8
0
 62
     0
 66
     1
 10
0
 20
0
 30
0.0
 70
     1
 40
0.75
 41
0.75
  0
VERTEX
  8
0
 10
10.7351
 20
8.81054
 30
0.0
 40
0.0104167
 41
0.0104167
  0
VERTEX
  8
0
 10
11.2351
 20
8.81054
 30
0.0
 40
0.0104167
 41
0.0104167
  0
VERTEX
  8
0
 10
11.2351
 20
6.37418
 30
0.0
 40
0.0104167
 41
0.0104167
  0
VERTEX
  8
0
 10
10.7351
 20
6.37418
 30
0.0
 40
0.0104167
 41
0.0104167
  0
VERTEX
  8
0
 10
10.7351
 20
8.81054
 30
0.0
 40
0.0104167
 41
0.0104167
  0
SEQEND
 8
0
  0
POLYLINE
  8
0
 62
     7
 66
     1
 10
0
 20
0
 30
0.0
 70
     1
 40
0
 41
0
  0
VERTEX
  8
0
 10
10.7351
 20
8.81054
 30
0.0
 40
0
 41
0
  0
VERTEX
  8
0
 10
11.2351
 20
8.81054
 30
0.0
 40
0
 41
0
  0
VERTEX
  8
0
 10
11.2351
 20
6.37418
 30
0.0
 40
0
 41
0
  0
VERTEX
  8
0
 10
10.7351
 20
6.37418
 30
0.0
 40
0
 41
0
  0
VERTEX
  8
0
 10
10.7351
 20
8.81054
 30
0.0
 40
0
 41
0
  0
SEQEND
 8
0
  0
POLYLINE
  8
0
 62
     0
 66
     1
 10
0
 20
0
 30
0.0
 70
     1
 40
0.75
 41
0.75
  0
VERTEX
  8
0
 10
10.7351
 20
8.81054
 30
0.0
 40
0.0104167
 41
0.0104167
  0
VERTEX
  8
0
 10
11.2351
 20
8.81054
 30
0.0
 40
0.0104167
 41
0.0104167
  0
VERTEX
  8
0
 10
11.2351
 20
6.37418
 30
0.0
 40
0.0104167
 41
0.0104167
  0
VERTEX
  8
0
 10
10.7351
 20
6.37418
 30
0.0
 40
0.0104167
 41
0.0104167
  0
VERTEX
  8
0
 10
10.7351
 20
8.81054
 30
0.0
 40
0.0104167
 41
0.0104167
  0
SEQEND
 8
0
  0
POLYLINE
  8
0
 62
     0
 66
     1
 10
0
 20
0
 30
0.0
 40
0.75
 41
0.75
  0
VERTEX
  8
0
 10
10.9851
 20
6.45231
 30
0.0
 40
0.0104167
 41
0.0104167
  0
VERTEX
  8
0
 10
10.9851
 20
8.73242
 30
0.0
 40
0.0104167
 41
0.0104167
  0
SEQEND
 8
0
  0
POLYLINE
  8
0
 62
     0
 66
     1
 10
0
 20
0
 30
0.0
 40
0.75
 41
0.75
  0
VERTEX
  8
0
 10
11.2351
 20
6.45231
 30
0.0
 40
0.0104167
 41
0.0104167
  0
VERTEX
  8
0
 10
10.7351
 20
6.45231
 30
0.0
 40
0.0104167
 41
0.0104167
  0
SEQEND
 8
0
  0
POLYLINE
  8
0
 62
     0
 66
     1
 10
0
 20
0
 30
0.0
 40
0.75
 41
0.75
  0
VERTEX
  8
0
 10
11.2351
 20
8.73242
 30
0.0
 40
0.0104167
 41
0.0104167
  0
VERTEX
  8
0
 10
10.7351
 20
8.73242
 30
0.0
 40
0.0104167
 41
0.0104167
  0
SEQEND
 8
0
  0
POLYLINE
  8
0
 62
     7
 66
     1
 10
0
 20
0
 30
0.0
 70
     1
 40
0
 41
0
  0
VERTEX
  8
0
 10
10.7351
 20
1.82721
 30
0.0
 40
0
 41
0
  0
VERTEX
  8
0
 10
11.2351
 20
1.82721
 30
0.0
 40
0
 41
0
  0
VERTEX
  8
0
 10
11.2351
 20
1.30821
 30
0.0
 40
0
 41
0
  0
VERTEX
  8
0
 10
10.7351
 20
1.30821
 30
0.0
 40
0
 41
0
  0
VERTEX
  8
0
 10
10.7351
 20
1.82721
 30
0.0
 40
0
 41
0
  0
SEQEND
 8
0
  0
POLYLINE
  8
0
 62
     0
 66
     1
 10
0
 20
0
 30
0.0
 70
     1
 40
0.75
 41
0.75
  0
VERTEX
  8
0
 10
10.7351
 20
1.82721
 30
0.0
 40
0.0104167
 41
0.0104167
  0
VERTEX
  8
0
 10
11.2351
 20
1.82721
 30
0.0
 40
0.0104167
 41
0.0104167
  0
VERTEX
  8
0
 10
11.2351
 20
1.30821
 30
0.0
 40
0.0104167
 41
0.0104167
  0
VERTEX
  8
0
 10
10.7351
 20
1.30821
 30
0.0
 40
0.0104167
 41
0.0104167
  0
VERTEX
  8
0
 10
10.7351
 20
1.82721
 30
0.0
 40
0.0104167
 41
0.0104167
  0
SEQEND
 8
0
  0
POLYLINE
  8
0
 62
     7
 66
     1
 10
0
 20
0
 30
0.0
 70
     1
 40
0
 41
0
  0
VERTEX
  8
0
 10
10.7351
 20
1.82721
 30
0.0
 40
0
 41
0
  0
VERTEX
  8
0
 10
11.2351
 20
1.82721
 30
0.0
 40
0
 41
0
  0
VERTEX
  8
0
 10
11.2351
 20
1.30821
 30
0.0
 40
0
 41
0
  0
VERTEX
  8
0
 10
10.7351
 20
1.30821
 30
0.0
 40
0
 41
0
  0
VERTEX
  8
0
 10
10.7351
 20
1.82721
 30
0.0
 40
0
 41
0
  0
SEQEND
 8
0
  0
POLYLINE
  8
0
 62
     0
 66
     1
 10
0
 20
0
 30
0.0
 70
     1
 40
0.75
 41
0.75
  0
VERTEX
  8
0
 10
10.7351
 20
1.82721
 30
0.0
 40
0.0104167
 41
0.0104167
  0
VERTEX
  8
0
 10
11.2351
 20
1.82721
 30
0.0
 40
0.0104167
 41
0.0104167
  0
VERTEX
  8
0
 10
11.2351
 20
1.30821
 30
0.0
 40
0.0104167
 41
0.0104167
  0
VERTEX
  8
0
 10
10.7351
 20
1.30821
 30
0.0
 40
0.0104167
 41
0.0104167
  0
VERTEX
  8
0
 10
10.7351
 20
1.82721
 30
0.0
 40
0.0104167
 41
0.0104167
  0
SEQEND
 8
0
  0
POLYLINE
  8
0
 62
     0
 66
     1
 10
0
 20
0
 30
0.0
 40
0.75
 41
0.75
  0
VERTEX
  8
0
 10
10.9851
 20
1.38634
 30
0.0
 40
0.0104167
 41
0.0104167
  0
VERTEX
  8
0
 10
10.9851
 20
1.74908
 30
0.0
 40
0.0104167
 41
0.0104167
  0
SEQEND
 8
0
  0
POLYLINE
  8
0
 62
     0
 66
     1
 10
0
 20
0
 30
0.0
 40
0.75
 41
0.75
  0
VERTEX
  8
0
 10
11.2351
 20
1.38634
 30
0.0
 40
0.0104167
 41
0.0104167
  0
VERTEX
  8
0
 10
10.7351
 20
1.38634
 30
0.0
 40
0.0104167
 41
0.0104167
  0
SEQEND
 8
0
  0
POLYLINE
  8
0
 62
     0
 66
     1
 10
0
 20
0
 30
0.0
 40
0.75
 41
0.75
  0
VERTEX
  8
0
 10
11.2351
 20
1.74908
 30
0.0
 40
0.0104167
 41
0.0104167
  0
VERTEX
  8
0
 10
10.7351
 20
1.74908
 30
0.0
 40
0.0104167
 41
0.0104167
  0
SEQEND
 8
0
  0
POLYLINE
  8
0
 62
     0
 66
     1
 10
0
 20
0
 30
0.0
 70
     1
 40
0
 41
0
  0
VERTEX
  8
0
 10
11.2351
 20
9.51281
 30
0.0
 40
0
 41
0
  0
VERTEX
  8
0
 10
7.67378
 20
9.51281
 30
0.0
 40
0
 41
0
  0
VERTEX
  8
0
 10
7.67378
 20
9.12739
 30
0.0
 40
0
 41
0
  0
VERTEX
  8
0
 10
10.7351
 20
9.12739
 30
0.0
 40
0
 41
0
  0
VERTEX
  8
0
 10
11.2351
 20
9.51281
 30
0.0
 40
0
 41
0
  0
SEQEND
 8
0
  0
POLYLINE
  8
0
 62
     0
 66
     1
 10
0
 20
0
 30
0.0
 70
     1
 40
0.15
 41
0.15
  0
VERTEX
  8
0
 10
11.2351
 20
9.51281
 30
0.0
 40
0.00208333
 41
0.00208333
  0
VERTEX
  8
0
 10
7.67378
 20
9.51281
 30
0.0
 40
0.00208333
 41
0.00208333
  0
VERTEX
  8
0
 10
7.67378
 20
9.12739
 30
0.0
 40
0.00208333
 41
0.00208333
  0
VERTEX
  8
0
 10
10.7351
 20
9.12739
 30
0.0
 40
0.00208333
 41
0.00208333
  0
VERTEX
  8
0
 10
11.2351
 20
9.51281
 30
0.0
 40
0.00208333
 41
0.00208333
  0
SEQEND
 8
0
  0
POLYLINE
  8
0
 62
     7
 66
     1
 10
0
 20
0
 30
0.0
 70
     1
 40
0
 41
0
  0
VERTEX
  8
0
 10
8.7576
 20
9.51281
 30
0.0
 40
0
 41
0
  0
VERTEX
  8
0
 10
9.3929
 20
9.51281
 30
0.0
 40
0
 41
0
  0
VERTEX
  8
0
 10
9.3929
 20
9.12739
 30
0.0
 40
0
 41
0
  0
VERTEX
  8
0
 10
8.7576
 20
9.12739
 30
0.0
 40
0
 41
0
  0
VERTEX
  8
0
 10
8.7576
 20
9.51281
 30
0.0
 40
0
 41
0
  0
SEQEND
 8
0
  0
POLYLINE
  8
0
 62
     0
 66
     1
 10
0
 20
0
 30
0.0
 70
     1
 40
0.75
 41
0.75
  0
VERTEX
  8
0
 10
8.7576
 20
9.51281
 30
0.0
 40
0.0104167
 41
0.0104167
  0
VERTEX
  8
0
 10
9.3929
 20
9.51281
 30
0.0
 40
0.0104167
 41
0.0104167
  0
VERTEX
  8
0
 10
9.3929
 20
9.12739
 30
0.0
 40
0.0104167
 41
0.0104167
  0
VERTEX
  8
0
 10
8.7576
 20
9.12739
 30
0.0
 40
0.0104167
 41
0.0104167
  0
VERTEX
  8
0
 10
8.7576
 20
9.51281
 30
0.0
 40
0.0104167
 41
0.0104167
  0
SEQEND
 8
0
  0
POLYLINE
  8
0
 62
     7
 66
     1
 10
0
 20
0
 30
0.0
 70
     1
 40
0
 41
0
  0
VERTEX
  8
0
 10
8.7576
 20
9.51281
 30
0.0
 40
0
 41
0
  0
VERTEX
  8
0
 10
9.3929
 20
9.51281
 30
0.0
 40
0
 41
0
  0
VERTEX
  8
0
 10
9.3929
 20
9.12739
 30
0.0
 40
0
 41
0
  0
VERTEX
  8
0
 10
8.7576
 20
9.12739
 30
0.0
 40
0
 41
0
  0
VERTEX
  8
0
 10
8.7576
 20
9.51281
 30
0.0
 40
0
 41
0
  0
SEQEND
 8
0
  0
POLYLINE
  8
0
 62
     0
 66
     1
 10
0
 20
0
 30
0.0
 70
     1
 40
0.75
 41
0.75
  0
VERTEX
  8
0
 10
8.7576
 20
9.51281
 30
0.0
 40
0.0104167
 41
0.0104167
  0
VERTEX
  8
0
 10
9.3929
 20
9.51281
 30
0.0
 40
0.0104167
 41
0.0104167
  0
VERTEX
  8
0
 10
9.3929
 20
9.12739
 30
0.0
 40
0.0104167
 41
0.0104167
  0
VERTEX
  8
0
 10
8.7576
 20
9.12739
 30
0.0
 40
0.0104167
 41
0.0104167
  0
VERTEX
  8
0
 10
8.7576
 20
9.51281
 30
0.0
 40
0.0104167
 41
0.0104167
  0
SEQEND
 8
0
  0
POLYLINE
  8
0
 62
     0
 66
     1
 10
0
 20
0
 30
0.0
 40
0.75
 41
0.75
  0
VERTEX
  8
0
 10
9.31472
 20
9.3201
 30
0.0
 40
0.0104167
 41
0.0104167
  0
VERTEX
  8
0
 10
8.83567
 20
9.3201
 30
0.0
 40
0.0104167
 41
0.0104167
  0
SEQEND
 8
0
  0
POLYLINE
  8
0
 62
     0
 66
     1
 10
0
 20
0
 30
0.0
 40
0.75
 41
0.75
  0
VERTEX
  8
0
 10
9.31472
 20
9.51281
 30
0.0
 40
0.0104167
 41
0.0104167
  0
VERTEX
  8
0
 10
9.31472
 20
9.12739
 30
0.0
 40
0.0104167
 41
0.0104167
  0
SEQEND
 8
0
  0
POLYLINE
  8
0
 62
     0
 66
     1
 10
0
 20
0
 30
0.0
 40
0.75
 41
0.75
  0
VERTEX
  8
0
 10
8.83567
 20
9.51281
 30
0.0
 40
0.0104167
 41
0.0104167
  0
VERTEX
  8
0
 10
8.83567
 20
9.12739
 30
0.0
 40
0.0104167
 41
0.0104167
  0
SEQEND
 8
0
  0
POLYLINE
  8
0
 62
     0
 66
     1
 10
0
 20
0
 30
0.0
 70
     1
 40
0
 41
0
  0
VERTEX
  8
0
 10
1.06624
 20
9.39529
 30
0.0
 40
0
 41
0
  0
VERTEX
  8
0
 10
7.67378
 20
9.39529
 30
0.0
 40
0
 41
0
  0
VERTEX
  8
0
 10
7.67378
 20
9.12446
 30
0.0
 40
0
 41
0
  0
VERTEX
  8
0
 10
1.25374
 20
9.12446
 30
0.0
 40
0
 41
0
  0
VERTEX
  8
0
 10
1.06624
 20
9.39529
 30
0.0
 40
0
 41
0
  0
SEQEND
 8
0
  0
POLYLINE
  8
0
 62
     0
 66
     1
 10
0
 20
0
 30
0.0
 70
     1
 40
0.15
 41
0.15
  0
VERTEX
  8
0
 10
1.06624
 20
9.39529
 30
0.0
 40
0.00208333
 41
0.00208333
  0
VERTEX
  8
0
 10
7.67378
 20
9.39529
 30
0.0
 40
0.00208333
 41
0.00208333
  0
VERTEX
  8
0
 10
7.67378
 20
9.12446
 30
0.0
 40
0.00208333
 41
0.00208333
  0
VERTEX
  8
0
 10
1.25374
 20
9.12446
 30
0.0
 40
0.00208333
 41
0.00208333
  0
VERTEX
  8
0
 10
1.06624
 20
9.39529
 30
0.0
 40
0.00208333
 41
0.00208333
  0
SEQEND
 8
0
  0
POLYLINE
  8
0
 62
     7
 66
     1
 10
0
 20
0
 30
0.0
 70
     1
 40
0
 41
0
  0
VERTEX
  8
0
 10
2.46967
 20
9.39529
 30
0.0
 40
0
 41
0
  0
VERTEX
  8
0
 10
3.67844
 20
9.39529
 30
0.0
 40
0
 41
0
  0
VERTEX
  8
0
 10
3.67844
 20
9.12446
 30
0.0
 40
0
 41
0
  0
VERTEX
  8
0
 10
2.46967
 20
9.12446
 30
0.0
 40
0
 41
0
  0
VERTEX
  8
0
 10
2.46967
 20
9.39529
 30
0.0
 40
0
 41
0
  0
SEQEND
 8
0
  0
POLYLINE
  8
0
 62
     0
 66
     1
 10
0
 20
0
 30
0.0
 70
     1
 40
0.75
 41
0.75
  0
VERTEX
  8
0
 10
2.46967
 20
9.39529
 30
0.0
 40
0.0104167
 41
0.0104167
  0
VERTEX
  8
0
 10
3.67844
 20
9.39529
 30
0.0
 40
0.0104167
 41
0.0104167
  0
VERTEX
  8
0
 10
3.67844
 20
9.12446
 30
0.0
 40
0.0104167
 41
0.0104167
  0
VERTEX
  8
0
 10
2.46967
 20
9.12446
 30
0.0
 40
0.0104167
 41
0.0104167
  0
VERTEX
  8
0
 10
2.46967
 20
9.39529
 30
0.0
 40
0.0104167
 41
0.0104167
  0
SEQEND
 8
0
  0
POLYLINE
  8
0
 62
     7
 66
     1
 10
0
 20
0
 30
0.0
 70
     1
 40
0
 41
0
  0
VERTEX
  8
0
 10
2.46967
 20
9.39529
 30
0.0
 40
0
 41
0
  0
VERTEX
  8
0
 10
3.67844
 20
9.39529
 30
0.0
 40
0
 41
0
  0
VERTEX
  8
0
 10
3.67844
 20
9.12446
 30
0.0
 40
0
 41
0
  0
VERTEX
  8
0
 10
2.46967
 20
9.12446
 30
0.0
 40
0
 41
0
  0
VERTEX
  8
0
 10
2.46967
 20
9.39529
 30
0.0
 40
0
 41
0
  0
SEQEND
 8
0
  0
POLYLINE
  8
0
 62
     0
 66
     1
 10
0
 20
0
 30
0.0
 70
     1
 40
0.75
 41
0.75
  0
VERTEX
  8
0
 10
2.46967
 20
9.39529
 30
0.0
 40
0.0104167
 41
0.0104167
  0
VERTEX
  8
0
 10
3.67844
 20
9.39529
 30
0.0
 40
0.0104167
 41
0.0104167
  0
VERTEX
  8
0
 10
3.67844
 20
9.12446
 30
0.0
 40
0.0104167
 41
0.0104167
  0
VERTEX
  8
0
 10
2.46967
 20
9.12446
 30
0.0
 40
0.0104167
 41
0.0104167
  0
VERTEX
  8
0
 10
2.46967
 20
9.39529
 30
0.0
 40
0.0104167
 41
0.0104167
  0
SEQEND
 8
0
  0
POLYLINE
  8
0
 62
     0
 66
     1
 10
0
 20
0
 30
0.0
 40
0.75
 41
0.75
  0
VERTEX
  8
0
 10
2.54775
 20
9.25988
 30
0.0
 40
0.0104167
 41
0.0104167
  0
VERTEX
  8
0
 10
3.60032
 20
9.25988
 30
0.0
 40
0.0104167
 41
0.0104167
  0
SEQEND
 8
0
  0
POLYLINE
  8
0
 62
     0
 66
     1
 10
0
 20
0
 30
0.0
 40
0.75
 41
0.75
  0
VERTEX
  8
0
 10
2.54775
 20
9.39529
 30
0.0
 40
0.0104167
 41
0.0104167
  0
VERTEX
  8
0
 10
2.54775
 20
9.12446
 30
0.0
 40
0.0104167
 41
0.0104167
  0
SEQEND
 8
0
  0
POLYLINE
  8
0
 62
     0
 66
     1
 10
0
 20
0
 30
0.0
 40
0.75
 41
0.75
  0
VERTEX
  8
0
 10
3.60032
 20
9.39529
 30
0.0
 40
0.0104167
 41
0.0104167
  0
VERTEX
  8
0
 10
3.60032
 20
9.12446
 30
0.0
 40
0.0104167
 41
0.0104167
  0
SEQEND
 8
0
  0
POLYLINE
  8
0
 62
     7
 66
     1
 10
0
 20
0
 30
0.0
 70
     1
 40
0
 41
0
  0
VERTEX
  8
0
 10
4.66303
 20
9.39529
 30
0.0
 40
0
 41
0
  0
VERTEX
  8
0
 10
5.50836
 20
9.39529
 30
0.0
 40
0
 41
0
  0
VERTEX
  8
0
 10
5.50836
 20
9.12446
 30
0.0
 40
0
 41
0
  0
VERTEX
  8
0
 10
4.66303
 20
9.12446
 30
0.0
 40
0
 41
0
  0
VERTEX
  8
0
 10
4.66303
 20
9.39529
 30
0.0
 40
0
 41
0
  0
SEQEND
 8
0
  0
POLYLINE
  8
0
 62
     0
 66
     1
 10
0
 20
0
 30
0.0
 70
     1
 40
0.75
 41
0.75
  0
VERTEX
  8
0
 10
4.66303
 20
9.39529
 30
0.0
 40
0.0104167
 41
0.0104167
  0
VERTEX
  8
0
 10
5.50836
 20
9.39529
 30
0.0
 40
0.0104167
 41
0.0104167
  0
VERTEX
  8
0
 10
5.50836
 20
9.12446
 30
0.0
 40
0.0104167
 41
0.0104167
  0
VERTEX
  8
0
 10
4.66303
 20
9.12446
 30
0.0
 40
0.0104167
 41
0.0104167
  0
VERTEX
  8
0
 10
4.66303
 20
9.39529
 30
0.0
 40
0.0104167
 41
0.0104167
  0
SEQEND
 8
0
  0
POLYLINE
  8
0
 62
     7
 66
     1
 10
0
 20
0
 30
0.0
 70
     1
 40
0
 41
0
  0
VERTEX
  8
0
 10
4.66303
 20
9.39529
 30
0.0
 40
0
 41
0
  0
VERTEX
  8
0
 10
5.50836
 20
9.39529
 30
0.0
 40
0
 41
0
  0
VERTEX
  8
0
 10
5.50836
 20
9.12446
 30
0.0
 40
0
 41
0
  0
VERTEX
  8
0
 10
4.66303
 20
9.12446
 30
0.0
 40
0
 41
0
  0
VERTEX
  8
0
 10
4.66303
 20
9.39529
 30
0.0
 40
0
 41
0
  0
SEQEND
 8
0
  0
POLYLINE
  8
0
 62
     0
 66
     1
 10
0
 20
0
 30
0.0
 70
     1
 40
0.75
 41
0.75
  0
VERTEX
  8
0
 10
4.66303
 20
9.39529
 30
0.0
 40
0.0104167
 41
0.0104167
  0
VERTEX
  8
0
 10
5.50836
 20
9.39529
 30
0.0
 40
0.0104167
 41
0.0104167
  0
VERTEX
  8
0
 10
5.50836
 20
9.12446
 30
0.0
 40
0.0104167
 41
0.0104167
  0
VERTEX
  8
0
 10
4.66303
 20
9.12446
 30
0.0
 40
0.0104167
 41
0.0104167
  0
VERTEX
  8
0
 10
4.66303
 20
9.39529
 30
0.0
 40
0.0104167
 41
0.0104167
  0
SEQEND
 8
0
  0
POLYLINE
  8
0
 62
     0
 66
     1
 10
0
 20
0
 30
0.0
 70
     1
 40
0.75
 41
0.75
  0
VERTEX
  8
0
 10
5.50836
 20
9.39529
 30
0.0
 40
0.0104167
 41
0.0104167
  0
VERTEX
  8
0
 10
5.50836
 20
9.44482
 30
0.0
 40
0.0104167
 41
0.0104167
  0
VERTEX
  8
0
 10
5.49511
 20
9.59343
 30
0.0
 40
0.0104167
 41
0.0104167
  0
VERTEX
  8
0
 10
5.45551
 20
9.76514
 30
0.0
 40
0.0104167
 41
0.0104167
  0
VERTEX
  8
0
 10
5.38943
 20
9.91043
 30
0.0
 40
0.0104167
 41
0.0104167
  0
VERTEX
  8
0
 10
5.29699
 20
10.0293
 30
0.0
 40
0.0104167
 41
0.0104167
  0
VERTEX
  8
0
 10
5.17811
 20
10.1218
 30
0.0
 40
0.0104167
 41
0.0104167
  0
VERTEX
  8
0
 10
5.03282
 20
10.1878
 30
0.0
 40
0.0104167
 41
0.0104167
  0
VERTEX
  8
0
 10
4.86111
 20
10.2274
 30
0.0
 40
0.0104167
 41
0.0104167
  0
VERTEX
  8
0
 10
4.71251
 20
10.2406
 30
0.0
 40
0.0104167
 41
0.0104167
  0
VERTEX
  8
0
 10
4.66303
 20
10.2406
 30
0.0
 40
0.0104167
 41
0.0104167
  0
VERTEX
  8
0
 10
4.66303
 20
9.39529
 30
0.0
 40
0.0104167
 41
0.0104167
  0
VERTEX
  8
0
 10
5.50836
 20
9.39529
 30
0.0
 40
0.0104167
 41
0.0104167
  0
SEQEND
 8
0
  0
POLYLINE
  8
0
 62
     7
 66
     1
 10
0
 20
0
 30
0.0
 70
     1
 40
0
 41
0
  0
VERTEX
  8
0
 10
5.58231
 20
9.39529
 30
0.0
 40
0
 41
0
  0
VERTEX
  8
0
 10
7.63769
 20
9.39529
 30
0.0
 40
0
 41
0
  0
VERTEX
  8
0
 10
7.63769
 20
9.12446
 30
0.0
 40
0
 41
0
  0
VERTEX
  8
0
 10
5.58231
 20
9.12446
 30
0.0
 40
0
 41
0
  0
VERTEX
  8
0
 10
5.58231
 20
9.39529
 30
0.0
 40
0
 41
0
  0
SEQEND
 8
0
  0
POLYLINE
  8
0
 62
     0
 66
     1
 10
0
 20
0
 30
0.0
 70
     1
 40
0.75
 41
0.75
  0
VERTEX
  8
0
 10
5.58231
 20
9.39529
 30
0.0
 40
0.0104167
 41
0.0104167
  0
VERTEX
  8
0
 10
7.63769
 20
9.39529
 30
0.0
 40
0.0104167
 41
0.0104167
  0
VERTEX
  8
0
 10
7.63769
 20
9.12446
 30
0.0
 40
0.0104167
 41
0.0104167
  0
VERTEX
  8
0
 10
5.58231
 20
9.12446
 30
0.0
 40
0.0104167
 41
0.0104167
  0
VERTEX
  8
0
 10
5.58231
 20
9.39529
 30
0.0
 40
0.0104167
 41
0.0104167
  0
SEQEND
 8
0
  0
POLYLINE
  8
0
 62
     7
 66
     1
 10
0
 20
0
 30
0.0
 70
     1
 40
0
 41
0
  0
VERTEX
  8
0
 10
5.58231
 20
9.39529
 30
0.0
 40
0
 41
0
  0
VERTEX
  8
0
 10
7.63769
 20
9.39529
 30
0.0
 40
0
 41
0
  0
VERTEX
  8
0
 10
7.63769
 20
9.12446
 30
0.0
 40
0
 41
0
  0
VERTEX
  8
0
 10
5.58231
 20
9.12446
 30
0.0
 40
0
 41
0
  0
VERTEX
  8
0
 10
5.58231
 20
9.39529
 30
0.0
 40
0
 41
0
  0
SEQEND
 8
0
  0
POLYLINE
  8
0
 62
     0
 66
     1
 10
0
 20
0
 30
0.0
 70
     1
 40
0.75
 41
0.75
  0
VERTEX
  8
0
 10
5.58231
 20
9.39529
 30
0.0
 40
0.0104167
 41
0.0104167
  0
VERTEX
  8
0
 10
7.63769
 20
9.39529
 30
0.0
 40
0.0104167
 41
0.0104167
  0
VERTEX
  8
0
 10
7.63769
 20
9.12446
 30
0.0
 40
0.0104167
 41
0.0104167
  0
VERTEX
  8
0
 10
5.58231
 20
9.12446
 30
0.0
 40
0.0104167
 41
0.0104167
  0
VERTEX
  8
0
 10
5.58231
 20
9.39529
 30
0.0
 40
0.0104167
 41
0.0104167
  0
SEQEND
 8
0
  0
POLYLINE
  8
0
 62
     0
 66
     1
 10
0
 20
0
 30
0.0
 40
0.75
 41
0.75
  0
VERTEX
  8
0
 10
5.66038
 20
9.25988
 30
0.0
 40
0.0104167
 41
0.0104167
  0
VERTEX
  8
0
 10
7.55957
 20
9.25988
 30
0.0
 40
0.0104167
 41
0.0104167
  0
SEQEND
 8
0
  0
POLYLINE
  8
0
 62
     0
 66
     1
 10
0
 20
0
 30
0.0
 40
0.75
 41
0.75
  0
VERTEX
  8
0
 10
5.66038
 20
9.39529
 30
0.0
 40
0.0104167
 41
0.0104167
  0
VERTEX
  8
0
 10
5.66038
 20
9.12446
 30
0.0
 40
0.0104167
 41
0.0104167
  0
SEQEND
 8
0
  0
POLYLINE
  8
0
 62
     0
 66
     1
 10
0
 20
0
 30
0.0
 40
0.75
 41
0.75
  0
VERTEX
  8
0
 10
7.55957
 20
9.39529
 30
0.0
 40
0.0104167
 41
0.0104167
  0
VERTEX
  8
0
 10
7.55957
 20
9.12446
 30
0.0
 40
0.0104167
 41
0.0104167
  0
SEQEND
 8
0
  0
POLYLINE
  8
0
 62
     0
 66
     1
 10
0
 20
0
 30
0.0
 70
     1
 40
0
 41
0
  0
VERTEX
  8
0
 10
1.06624
 20
2.82053
 30
0.0
 40
0
 41
0
  0
VERTEX
  8
0
 10
3.97488
 20
2.82053
 30
0.0
 40
0
 41
0
  0
VERTEX
  8
0
 10
4.08946
 20
2.70594
 30
0.0
 40
0
 41
0
  0
VERTEX
  8
0
 10
1.06624
 20
2.70594
 30
0.0
 40
0
 41
0
  0
VERTEX
  8
0
 10
1.06624
 20
2.82053
 30
0.0
 40
0
 41
0
  0
SEQEND
 8
0
  0
POLYLINE
  8
0
 62
     0
 66
     1
 10
0
 20
0
 30
0.0
 70
     1
 40
0.15
 41
0.15
  0
VERTEX
  8
0
 10
1.06624
 20
2.82053
 30
0.0
 40
0.00208333
 41
0.00208333
  0
VERTEX
  8
0
 10
3.97488
 20
2.82053
 30
0.0
 40
0.00208333
 41
0.00208333
  0
VERTEX
  8
0
 10
4.08946
 20
2.70594
 30
0.0
 40
0.00208333
 41
0.00208333
  0
VERTEX
  8
0
 10
1.06624
 20
2.70594
 30
0.0
 40
0.00208333
 41
0.00208333
  0
VERTEX
  8
0
 10
1.06624
 20
2.82053
 30
0.0
 40
0.00208333
 41
0.00208333
  0
SEQEND
 8
0
  0
POLYLINE
  8
0
 62
     7
 66
     1
 10
0
 20
0
 30
0.0
 70
     1
 40
0
 41
0
  0
VERTEX
  8
0
 10
2.17947
 20
2.82053
 30
0.0
 40
0
 41
0
  0
VERTEX
  8
0
 10
2.80615
 20
2.82053
 30
0.0
 40
0
 41
0
  0
VERTEX
  8
0
 10
2.80615
 20
2.70594
 30
0.0
 40
0
 41
0
  0
VERTEX
  8
0
 10
2.17947
 20
2.70594
 30
0.0
 40
0
 41
0
  0
VERTEX
  8
0
 10
2.17947
 20
2.82053
 30
0.0
 40
0
 41
0
  0
SEQEND
 8
0
  0
POLYLINE
  8
0
 62
     0
 66
     1
 10
0
 20
0
 30
0.0
 70
     1
 40
0.75
 41
0.75
  0
VERTEX
  8
0
 10
2.17947
 20
2.82053
 30
0.0
 40
0.0104167
 41
0.0104167
  0
VERTEX
  8
0
 10
2.80615
 20
2.82053
 30
0.0
 40
0.0104167
 41
0.0104167
  0
VERTEX
  8
0
 10
2.80615
 20
2.70594
 30
0.0
 40
0.0104167
 41
0.0104167
  0
VERTEX
  8
0
 10
2.17947
 20
2.70594
 30
0.0
 40
0.0104167
 41
0.0104167
  0
VERTEX
  8
0
 10
2.17947
 20
2.82053
 30
0.0
 40
0.0104167
 41
0.0104167
  0
SEQEND
 8
0
  0
POLYLINE
  8
0
 62
     7
 66
     1
 10
0
 20
0
 30
0.0
 70
     1
 40
0
 41
0
  0
VERTEX
  8
0
 10
2.17947
 20
2.82053
 30
0.0
 40
0
 41
0
  0
VERTEX
  8
0
 10
2.80615
 20
2.82053
 30
0.0
 40
0
 41
0
  0
VERTEX
  8
0
 10
2.80615
 20
2.70594
 30
0.0
 40
0
 41
0
  0
VERTEX
  8
0
 10
2.17947
 20
2.70594
 30
0.0
 40
0
 41
0
  0
VERTEX
  8
0
 10
2.17947
 20
2.82053
 30
0.0
 40
0
 41
0
  0
SEQEND
 8
0
  0
POLYLINE
  8
0
 62
     0
 66
     1
 10
0
 20
0
 30
0.0
 70
     1
 40
0.75
 41
0.75
  0
VERTEX
  8
0
 10
2.17947
 20
2.82053
 30
0.0
 40
0.0104167
 41
0.0104167
  0
VERTEX
  8
0
 10
2.80615
 20
2.82053
 30
0.0
 40
0.0104167
 41
0.0104167
  0
VERTEX
  8
0
 10
2.80615
 20
2.70594
 30
0.0
 40
0.0104167
 41
0.0104167
  0
VERTEX
  8
0
 10
2.17947
 20
2.70594
 30
0.0
 40
0.0104167
 41
0.0104167
  0
VERTEX
  8
0
 10
2.17947
 20
2.82053
 30
0.0
 40
0.0104167
 41
0.0104167
  0
SEQEND
 8
0
  0
POLYLINE
  8
0
 62
     0
 66
     1
 10
0
 20
0
 30
0.0
 70
     1
 40
0.75
 41
0.75
  0
VERTEX
  8
0
 10
2.17947
 20
2.82053
 30
0.0
 40
0.0104167
 41
0.0104167
  0
VERTEX
  8
0
 10
2.17947
 20
2.85726
 30
0.0
 40
0.0104167
 41
0.0104167
  0
VERTEX
  8
0
 10
2.18924
 20
2.96744
 30
0.0
 40
0.0104167
 41
0.0104167
  0
VERTEX
  8
0
 10
2.21858
 20
3.09472
 30
0.0
 40
0.0104167
 41
0.0104167
  0
VERTEX
  8
0
 10
2.26758
 20
3.20242
 30
0.0
 40
0.0104167
 41
0.0104167
  0
VERTEX
  8
0
 10
2.3361
 20
3.29053
 30
0.0
 40
0.0104167
 41
0.0104167
  0
VERTEX
  8
0
 10
2.42421
 20
3.3591
 30
0.0
 40
0.0104167
 41
0.0104167
  0
VERTEX
  8
0
 10
2.53196
 20
3.40804
 30
0.0
 40
0.0104167
 41
0.0104167
  0
VERTEX
  8
0
 10
2.65924
 20
3.43744
 30
0.0
 40
0.0104167
 41
0.0104167
  0
VERTEX
  8
0
 10
2.76942
 20
3.44721
 30
0.0
 40
0.0104167
 41
0.0104167
  0
VERTEX
  8
0
 10
2.80615
 20
3.44721
 30
0.0
 40
0.0104167
 41
0.0104167
  0
VERTEX
  8
0
 10
2.80615
 20
2.82053
 30
0.0
 40
0.0104167
 41
0.0104167
  0
VERTEX
  8
0
 10
2.17947
 20
2.82053
 30
0.0
 40
0.0104167
 41
0.0104167
  0
SEQEND
 8
0
  0
POLYLINE
  8
0
 62
     0
 66
     1
 10
0
 20
0
 30
0.0
 70
     1
 40
0
 41
0
  0
VERTEX
  8
0
 10
4.08946
 20
2.70594
 30
0.0
 40
0
 41
0
  0
VERTEX
  8
0
 10
4.08946
 20
9.39529
 30
0.0
 40
0
 41
0
  0
VERTEX
  8
0
 10
3.97488
 20
9.39529
 30
0.0
 40
0
 41
0
  0
VERTEX
  8
0
 10
3.97488
 20
2.82053
 30
0.0
 40
0
 41
0
  0
VERTEX
  8
0
 10
4.08946
 20
2.70594
 30
0.0
 40
0
 41
0
  0
SEQEND
 8
0
  0
POLYLINE
  8
0
 62
     0
 66
     1
 10
0
 20
0
 30
0.0
 70
     1
 40
0.15
 41
0.15
  0
VERTEX
  8
0
 10
4.08946
 20
2.70594
 30
0.0
 40
0.00208333
 41
0.00208333
  0
VERTEX
  8
0
 10
4.08946
 20
9.39529
 30
0.0
 40
0.00208333
 41
0.00208333
  0
VERTEX
  8
0
 10
3.97488
 20
9.39529
 30
0.0
 40
0.00208333
 41
0.00208333
  0
VERTEX
  8
0
 10
3.97488
 20
2.82053
 30
0.0
 40
0.00208333
 41
0.00208333
  0
VERTEX
  8
0
 10
4.08946
 20
2.70594
 30
0.0
 40
0.00208333
 41
0.00208333
  0
SEQEND
 8
0
  0
POLYLINE
  8
0
 62
     7
 66
     1
 10
0
 20
0
 30
0.0
 70
     1
 40
0
 41
0
  0
VERTEX
  8
0
 10
3.97488
 20
6.347
 30
0.0
 40
0
 41
0
  0
VERTEX
  8
0
 10
4.08946
 20
6.347
 30
0.0
 40
0
 41
0
  0
VERTEX
  8
0
 10
4.08946
 20
5.53771
 30
0.0
 40
0
 41
0
  0
VERTEX
  8
0
 10
3.97488
 20
5.53771
 30
0.0
 40
0
 41
0
  0
VERTEX
  8
0
 10
3.97488
 20
6.347
 30
0.0
 40
0
 41
0
  0
SEQEND
 8
0
  0
POLYLINE
  8
0
 62
     0
 66
     1
 10
0
 20
0
 30
0.0
 70
     1
 40
0.75
 41
0.75
  0
VERTEX
  8
0
 10
3.97488
 20
6.347
 30
0.0
 40
0.0104167
 41
0.0104167
  0
VERTEX
  8
0
 10
4.08946
 20
6.347
 30
0.0
 40
0.0104167
 41
0.0104167
  0
VERTEX
  8
0
 10
4.08946
 20
5.53771
 30
0.0
 40
0.0104167
 41
0.0104167
  0
VERTEX
  8
0
 10
3.97488
 20
5.53771
 30
0.0
 40
0.0104167
 41
0.0104167
  0
VERTEX
  8
0
 10
3.97488
 20
6.347
 30
0.0
 40
0.0104167
 41
0.0104167
  0
SEQEND
 8
0
  0
POLYLINE
  8
0
 62
     7
 66
     1
 10
0
 20
0
 30
0.0
 70
     1
 40
0
 41
0
  0
VERTEX
  8
0
 10
3.97488
 20
6.347
 30
0.0
 40
0
 41
0
  0
VERTEX
  8
0
 10
4.08946
 20
6.347
 30
0.0
 40
0
 41
0
  0
VERTEX
  8
0
 10
4.08946
 20
5.53771
 30
0.0
 40
0
 41
0
  0
VERTEX
  8
0
 10
3.97488
 20
5.53771
 30
0.0
 40
0
 41
0
  0
VERTEX
  8
0
 10
3.97488
 20
6.347
 30
0.0
 40
0
 41
0
  0
SEQEND
 8
0
  0
POLYLINE
  8
0
 62
     0
 66
     1
 10
0
 20
0
 30
0.0
 70
     1
 40
0.75
 41
0.75
  0
VERTEX
  8
0
 10
3.97488
 20
6.347
 30
0.0
 40
0.0104167
 41
0.0104167
  0
VERTEX
  8
0
 10
4.08946
 20
6.347
 30
0.0
 40
0.0104167
 41
0.0104167
  0
VERTEX
  8
0
 10
4.08946
 20
5.53771
 30
0.0
 40
0.0104167
 41
0.0104167
  0
VERTEX
  8
0
 10
3.97488
 20
5.53771
 30
0.0
 40
0.0104167
 41
0.0104167
  0
VERTEX
  8
0
 10
3.97488
 20
6.347
 30
0.0
 40
0.0104167
 41
0.0104167
  0
SEQEND
 8
0
  0
POLYLINE
  8
0
 62
     0
 66
     1
 10
0
 20
0
 30
0.0
 70
     1
 40
0.75
 41
0.75
  0
VERTEX
  8
0
 10
3.97488
 20
6.347
 30
0.0
 40
0.0104167
 41
0.0104167
  0
VERTEX
  8
0
 10
3.92746
 20
6.347
 30
0.0
 40
0.0104167
 41
0.0104167
  0
VERTEX
  8
0
 10
3.78521
 20
6.33436
 30
0.0
 40
0.0104167
 41
0.0104167
  0
VERTEX
  8
0
 10
3.62082
 20
6.29644
 30
0.0
 40
0.0104167
 41
0.0104167
  0
VERTEX
  8
0
 10
3.48172
 20
6.23324
 30
0.0
 40
0.0104167
 41
0.0104167
  0
VERTEX
  8
0
 10
3.36794
 20
6.14469
 30
0.0
 40
0.0104167
 41
0.0104167
  0
VERTEX
  8
0
 10
3.2794
 20
6.03087
 30
0.0
 40
0.0104167
 41
0.0104167
  0
VERTEX
  8
0
 10
3.21619
 20
5.89176
 30
0.0
 40
0.0104167
 41
0.0104167
  0
VERTEX
  8
0
 10
3.17828
 20
5.72738
 30
0.0
 40
0.0104167
 41
0.0104167
  0
VERTEX
  8
0
 10
3.16564
 20
5.58513
 30
0.0
 40
0.0104167
 41
0.0104167
  0
VERTEX
  8
0
 10
3.16564
 20
5.53771
 30
0.0
 40
0.0104167
 41
0.0104167
  0
VERTEX
  8
0
 10
3.97488
 20
5.53771
 30
0.0
 40
0.0104167
 41
0.0104167
  0
VERTEX
  8
0
 10
3.97488
 20
6.347
 30
0.0
 40
0.0104167
 41
0.0104167
  0
SEQEND
 8
0
  0
POLYLINE
  8
0
 62
     7
 66
     1
 10
0
 20
0
 30
0.0
 70
     1
 40
0
 41
0
  0
VERTEX
  8
0
 10
3.97488
 20
3.88303
 30
0.0
 40
0
 41
0
  0
VERTEX
  8
0
 10
4.08946
 20
3.88303
 30
0.0
 40
0
 41
0
  0
VERTEX
  8
0
 10
4.08946
 20
3.0746
 30
0.0
 40
0
 41
0
  0
VERTEX
  8
0
 10
3.97488
 20
3.0746
 30
0.0
 40
0
 41
0
  0
VERTEX
  8
0
 10
3.97488
 20
3.88303
 30
0.0
 40
0
 41
0
  0
SEQEND
 8
0
  0
POLYLINE
  8
0
 62
     0
 66
     1
 10
0
 20
0
 30
0.0
 70
     1
 40
0.75
 41
0.75
  0
VERTEX
  8
0
 10
3.97488
 20
3.88303
 30
0.0
 40
0.0104167
 41
0.0104167
  0
VERTEX
  8
0
 10
4.08946
 20
3.88303
 30
0.0
 40
0.0104167
 41
0.0104167
  0
VERTEX
  8
0
 10
4.08946
 20
3.0746
 30
0.0
 40
0.0104167
 41
0.0104167
  0
VERTEX
  8
0
 10
3.97488
 20
3.0746
 30
0.0
 40
0.0104167
 41
0.0104167
  0
VERTEX
  8
0
 10
3.97488
 20
3.88303
 30
0.0
 40
0.0104167
 41
0.0104167
  0
SEQEND
 8
0
  0
POLYLINE
  8
0
 62
     7
 66
     1
 10
0
 20
0
 30
0.0
 70
     1
 40
0
 41
0
  0
VERTEX
  8
0
 10
3.97488
 20
3.88303
 30
0.0
 40
0
 41
0
  0
VERTEX
  8
0
 10
4.08946
 20
3.88303
 30
0.0
 40
0
 41
0
  0
VERTEX
  8
0
 10
4.08946
 20
3.0746
 30
0.0
 40
0
 41
0
  0
VERTEX
  8
0
 10
3.97488
 20
3.0746
 30
0.0
 40
0
 41
0
  0
VERTEX
  8
0
 10
3.97488
 20
3.88303
 30
0.0
 40
0
 41
0
  0
SEQEND
 8
0
  0
POLYLINE
  8
0
 62
     0
 66
     1
 10
0
 20
0
 30
0.0
 70
     1
 40
0.75
 41
0.75
  0
VERTEX
  8
0
 10
3.97488
 20
3.88303
 30
0.0
 40
0.0104167
 41
0.0104167
  0
VERTEX
  8
0
 10
4.08946
 20
3.88303
 30
0.0
 40
0.0104167
 41
0.0104167
  0
VERTEX
  8
0
 10
4.08946
 20
3.0746
 30
0.0
 40
0.0104167
 41
0.0104167
  0
VERTEX
  8
0
 10
3.97488
 20
3.0746
 30
0.0
 40
0.0104167
 41
0.0104167
  0
VERTEX
  8
0
 10
3.97488
 20
3.88303
 30
0.0
 40
0.0104167
 41
0.0104167
  0
SEQEND
 8
0
  0
POLYLINE
  8
0
 62
     0
 66
     1
 10
0
 20
0
 30
0.0
 70
     1
 40
0.75
 41
0.75
  0
VERTEX
  8
0
 10
4.08946
 20
3.88303
 30
0.0
 40
0.0104167
 41
0.0104167
  0
VERTEX
  8
0
 10
4.13683
 20
3.88303
 30
0.0
 40
0.0104167
 41
0.0104167
  0
VERTEX
  8
0
 10
4.27892
 20
3.87044
 30
0.0
 40
0.0104167
 41
0.0104167
  0
VERTEX
  8
0
 10
4.44308
 20
3.83251
 30
0.0
 40
0.0104167
 41
0.0104167
  0
VERTEX
  8
0
 10
4.58203
 20
3.76937
 30
0.0
 40
0.0104167
 41
0.0104167
  0
VERTEX
  8
0
 10
4.69569
 20
3.68093
 30
0.0
 40
0.0104167
 41
0.0104167
  0
VERTEX
  8
0
 10
4.78407
 20
3.56728
 30
0.0
 40
0.0104167
 41
0.0104167
  0
VERTEX
  8
0
 10
4.84722
 20
3.42839
 30
0.0
 40
0.0104167
 41
0.0104167
  0
VERTEX
  8
0
 10
4.88514
 20
3.26417
 30
0.0
 40
0.0104167
 41
0.0104167
  0
VERTEX
  8
0
 10
4.89779
 20
3.12207
 30
0.0
 40
0.0104167
 41
0.0104167
  0
VERTEX
  8
0
 10
4.89779
 20
3.07471
 30
0.0
 40
0.0104167
 41
0.0104167
  0
VERTEX
  8
0
 10
4.08946
 20
3.07471
 30
0.0
 40
0.0104167
 41
0.0104167
  0
VERTEX
  8
0
 10
4.08946
 20
3.88303
 30
0.0
 40
0.0104167
 41
0.0104167
  0
SEQEND
 8
0
  0
POLYLINE
  8
0
 62
     0
 66
     1
 10
0
 20
0
 30
0.0
 70
     1
 40
0
 41
0
  0
VERTEX
  8
0
 10
2.82688
 20
2.82053
 30
0.0
 40
0
 41
0
  0
VERTEX
  8
0
 10
2.94146
 20
2.82053
 30
0.0
 40
0
 41
0
  0
VERTEX
  8
0
 10
2.94146
 20
0.934244
 30
0.0
 40
0
 41
0
  0
VERTEX
  8
0
 10
2.82688
 20
0.934244
 30
0.0
 40
0
 41
0
  0
VERTEX
  8
0
 10
2.82688
 20
2.82053
 30
0.0
 40
0
 41
0
  0
SEQEND
 8
0
  0
POLYLINE
  8
0
 62
     0
 66
     1
 10
0
 20
0
 30
0.0
 70
     1
 40
0.15
 41
0.15
  0
VERTEX
  8
0
 10
2.82688
 20
2.82053
 30
0.0
 40
0.00208333
 41
0.00208333
  0
VERTEX
  8
0
 10
2.94146
 20
2.82053
 30
0.0
 40
0.00208333
 41
0.00208333
  0
VERTEX
  8
0
 10
2.94146
 20
0.934244
 30
0.0
 40
0.00208333
 41
0.00208333
  0
VERTEX
  8
0
 10
2.82688
 20
0.934244
 30
0.0
 40
0.00208333
 41
0.00208333
  0
VERTEX
  8
0
 10
2.82688
 20
2.82053
 30
0.0
 40
0.00208333
 41
0.00208333
  0
SEQEND
 8
0
  0
POLYLINE
  8
0
 62
     0
 66
     1
 10
0
 20
0
 30
0.0
 70
     1
 40
0
 41
0
  0
VERTEX
  8
0
 10
5.06044
 20
0.934244
 30
0.0
 40
0
 41
0
  0
VERTEX
  8
0
 10
5.06044
 20
4.66971
 30
0.0
 40
0
 41
0
  0
VERTEX
  8
0
 10
5.18544
 20
4.56554
 30
0.0
 40
0
 41
0
  0
VERTEX
  8
0
 10
5.18544
 20
0.934244
 30
0.0
 40
0
 41
0
  0
VERTEX
  8
0
 10
5.06044
 20
0.934244
 30
0.0
 40
0
 41
0
  0
SEQEND
 8
0
  0
POLYLINE
  8
0
 62
     0
 66
     1
 10
0
 20
0
 30
0.0
 70
     1
 40
0.15
 41
0.15
  0
VERTEX
  8
0
 10
5.06044
 20
0.934244
 30
0.0
 40
0.00208333
 41
0.00208333
  0
VERTEX
  8
0
 10
5.06044
 20
4.66971
 30
0.0
 40
0.00208333
 41
0.00208333
  0
VERTEX
  8
0
 10
5.18544
 20
4.56554
 30
0.0
 40
0.00208333
 41
0.00208333
  0
VERTEX
  8
0
 10
5.18544
 20
0.934244
 30
0.0
 40
0.00208333
 41
0.00208333
  0
VERTEX
  8
0
 10
5.06044
 20
0.934244
 30
0.0
 40
0.00208333
 41
0.00208333
  0
SEQEND
 8
0
  0
POLYLINE
  8
0
 62
     7
 66
     1
 10
0
 20
0
 30
0.0
 70
     1
 40
0
 41
0
  0
VERTEX
  8
0
 10
5.06044
 20
2.67063
 30
0.0
 40
0
 41
0
  0
VERTEX
  8
0
 10
5.18544
 20
2.67063
 30
0.0
 40
0
 41
0
  0
VERTEX
  8
0
 10
5.18544
 20
1.71843
 30
0.0
 40
0
 41
0
  0
VERTEX
  8
0
 10
5.06044
 20
1.71843
 30
0.0
 40
0
 41
0
  0
VERTEX
  8
0
 10
5.06044
 20
2.67063
 30
0.0
 40
0
 41
0
  0
SEQEND
 8
0
  0
POLYLINE
  8
0
 62
     0
 66
     1
 10
0
 20
0
 30
0.0
 70
     1
 40
0.75
 41
0.75
  0
VERTEX
  8
0
 10
5.06044
 20
2.67063
 30
0.0
 40
0.0104167
 41
0.0104167
  0
VERTEX
  8
0
 10
5.18544
 20
2.67063
 30
0.0
 40
0.0104167
 41
0.0104167
  0
VERTEX
  8
0
 10
5.18544
 20
1.71843
 30
0.0
 40
0.0104167
 41
0.0104167
  0
VERTEX
  8
0
 10
5.06044
 20
1.71843
 30
0.0
 40
0.0104167
 41
0.0104167
  0
VERTEX
  8
0
 10
5.06044
 20
2.67063
 30
0.0
 40
0.0104167
 41
0.0104167
  0
SEQEND
 8
0
  0
POLYLINE
  8
0
 62
     7
 66
     1
 10
0
 20
0
 30
0.0
 70
     1
 40
0
 41
0
  0
VERTEX
  8
0
 10
5.06044
 20
2.67063
 30
0.0
 40
0
 41
0
  0
VERTEX
  8
0
 10
5.18544
 20
2.67063
 30
0.0
 40
0
 41
0
  0
VERTEX
  8
0
 10
5.18544
 20
1.71843
 30
0.0
 40
0
 41
0
  0
VERTEX
  8
0
 10
5.06044
 20
1.71843
 30
0.0
 40
0
 41
0
  0
VERTEX
  8
0
 10
5.06044
 20
2.67063
 30
0.0
 40
0
 41
0
  0
SEQEND
 8
0
  0
POLYLINE
  8
0
 62
     7
 66
     1
 10
0
 20
0
 30
0.0
 70
     1
 40
0.75
 41
0.75
  0
VERTEX
  8
0
 10
5.06044
 20
2.67063
 30
0.0
 40
0.0104167
 41
0.0104167
  0
VERTEX
  8
0
 10
5.18544
 20
2.67063
 30
0.0
 40
0.0104167
 41
0.0104167
  0
VERTEX
  8
0
 10
5.18544
 20
1.71843
 30
0.0
 40
0.0104167
 41
0.0104167
  0
VERTEX
  8
0
 10
5.06044
 20
1.71843
 30
0.0
 40
0.0104167
 41
0.0104167
  0
VERTEX
  8
0
 10
5.06044
 20
2.67063
 30
0.0
 40
0.0104167
 41
0.0104167
  0
SEQEND
 8
0
  0
POLYLINE
  8
0
 62
     0
 66
     1
 10
0
 20
0
 30
0.0
 70
     1
 40
0
 41
0
  0
VERTEX
  8
0
 10
5.06044
 20
4.66971
 30
0.0
 40
0
 41
0
  0
VERTEX
  8
0
 10
11.2351
 20
4.66971
 30
0.0
 40
0
 41
0
  0
VERTEX
  8
0
 10
11.2351
 20
4.56554
 30
0.0
 40
0
 41
0
  0
VERTEX
  8
0
 10
5.18544
 20
4.56554
 30
0.0
 40
0
 41
0
  0
VERTEX
  8
0
 10
5.06044
 20
4.66971
 30
0.0
 40
0
 41
0
  0
SEQEND
 8
0
  0
POLYLINE
  8
0
 62
     0
 66
     1
 10
0
 20
0
 30
0.0
 70
     1
 40
0.15
 41
0.15
  0
VERTEX
  8
0
 10
5.06044
 20
4.66971
 30
0.0
 40
0.00208333
 41
0.00208333
  0
VERTEX
  8
0
 10
11.2351
 20
4.66971
 30
0.0
 40
0.00208333
 41
0.00208333
  0
VERTEX
  8
0
 10
11.2351
 20
4.56554
 30
0.0
 40
0.00208333
 41
0.00208333
  0
VERTEX
  8
0
 10
5.18544
 20
4.56554
 30
0.0
 40
0.00208333
 41
0.00208333
  0
VERTEX
  8
0
 10
5.06044
 20
4.66971
 30
0.0
 40
0.00208333
 41
0.00208333
  0
SEQEND
 8
0
  0
POLYLINE
  8
0
 62
     7
 66
     1
 10
0
 20
0
 30
0.0
 70
     1
 40
0
 41
0
  0
VERTEX
  8
0
 10
5.86231
 20
4.66971
 30
0.0
 40
0
 41
0
  0
VERTEX
  8
0
 10
6.97228
 20
4.66971
 30
0.0
 40
0
 41
0
  0
VERTEX
  8
0
 10
6.97228
 20
4.56554
 30
0.0
 40
0
 41
0
  0
VERTEX
  8
0
 10
5.86231
 20
4.56554
 30
0.0
 40
0
 41
0
  0
VERTEX
  8
0
 10
5.86231
 20
4.66971
 30
0.0
 40
0
 41
0
  0
SEQEND
 8
0
  0
POLYLINE
  8
0
 62
     0
 66
     1
 10
0
 20
0
 30
0.0
 70
     1
 40
0.75
 41
0.75
  0
VERTEX
  8
0
 10
5.86231
 20
4.66971
 30
0.0
 40
0.0104167
 41
0.0104167
  0
VERTEX
  8
0
 10
6.97228
 20
4.66971
 30
0.0
 40
0.0104167
 41
0.0104167
  0
VERTEX
  8
0
 10
6.97228
 20
4.56554
 30
0.0
 40
0.0104167
 41
0.0104167
  0
VERTEX
  8
0
 10
5.86231
 20
4.56554
 30
0.0
 40
0.0104167
 41
0.0104167
  0
VERTEX
  8
0
 10
5.86231
 20
4.66971
 30
0.0
 40
0.0104167
 41
0.0104167
  0
SEQEND
 8
0
  0
POLYLINE
  8
0
 62
     7
 66
     1
 10
0
 20
0
 30
0.0
 70
     1
 40
0
 41
0
  0
VERTEX
  8
0
 10
5.86231
 20
4.66971
 30
0.0
 40
0
 41
0
  0
VERTEX
  8
0
 10
6.97228
 20
4.66971
 30
0.0
 40
0
 41
0
  0
VERTEX
  8
0
 10
6.97228
 20
4.56554
 30
0.0
 40
0
 41
0
  0
VERTEX
  8
0
 10
5.86231
 20
4.56554
 30
0.0
 40
0
 41
0
  0
VERTEX
  8
0
 10
5.86231
 20
4.66971
 30
0.0
 40
0
 41
0
  0
SEQEND
 8
0
  0
POLYLINE
  8
0
 62
     7
 66
     1
 10
0
 20
0
 30
0.0
 70
     1
 40
0.75
 41
0.75
  0
VERTEX
  8
0
 10
5.86231
 20
4.66971
 30
0.0
 40
0.0104167
 41
0.0104167
  0
VERTEX
  8
0
 10
6.97228
 20
4.66971
 30
0.0
 40
0.0104167
 41
0.0104167
  0
VERTEX
  8
0
 10
6.97228
 20
4.56554
 30
0.0
 40
0.0104167
 41
0.0104167
  0
VERTEX
  8
0
 10
5.86231
 20
4.56554
 30
0.0
 40
0.0104167
 41
0.0104167
  0
VERTEX
  8
0
 10
5.86231
 20
4.66971
 30
0.0
 40
0.0104167
 41
0.0104167
  0
SEQEND
 8
0
  0
POLYLINE
  8
0
 62
     7
 66
     1
 10
0
 20
0
 30
0.0
 70
     1
 40
0
 41
0
  0
VERTEX
  8
0
 10
7.73529
 20
4.66971
 30
0.0
 40
0
 41
0
  0
VERTEX
  8
0
 10
8.69385
 20
4.66971
 30
0.0
 40
0
 41
0
  0
VERTEX
  8
0
 10
8.69385
 20
4.56554
 30
0.0
 40
0
 41
0
  0
VERTEX
  8
0
 10
7.73529
 20
4.56554
 30
0.0
 40
0
 41
0
  0
VERTEX
  8
0
 10
7.73529
 20
4.66971
 30
0.0
 40
0
 41
0
  0
SEQEND
 8
0
  0
POLYLINE
  8
0
 62
     0
 66
     1
 10
0
 20
0
 30
0.0
 70
     1
 40
0.75
 41
0.75
  0
VERTEX
  8
0
 10
7.73529
 20
4.66971
 30
0.0
 40
0.0104167
 41
0.0104167
  0
VERTEX
  8
0
 10
8.69385
 20
4.66971
 30
0.0
 40
0.0104167
 41
0.0104167
  0
VERTEX
  8
0
 10
8.69385
 20
4.56554
 30
0.0
 40
0.0104167
 41
0.0104167
  0
VERTEX
  8
0
 10
7.73529
 20
4.56554
 30
0.0
 40
0.0104167
 41
0.0104167
  0
VERTEX
  8
0
 10
7.73529
 20
4.66971
 30
0.0
 40
0.0104167
 41
0.0104167
  0
SEQEND
 8
0
  0
POLYLINE
  8
0
 62
     7
 66
     1
 10
0
 20
0
 30
0.0
 70
     1
 40
0
 41
0
  0
VERTEX
  8
0
 10
7.73529
 20
4.66971
 30
0.0
 40
0
 41
0
  0
VERTEX
  8
0
 10
8.69385
 20
4.66971
 30
0.0
 40
0
 41
0
  0
VERTEX
  8
0
 10
8.69385
 20
4.56554
 30
0.0
 40
0
 41
0
  0
VERTEX
  8
0
 10
7.73529
 20
4.56554
 30
0.0
 40
0
 41
0
  0
VERTEX
  8
0
 10
7.73529
 20
4.66971
 30
0.0
 40
0
 41
0
  0
SEQEND
 8
0
  0
POLYLINE
  8
0
 62
     7
 66
     1
 10
0
 20
0
 30
0.0
 70
     1
 40
0.75
 41
0.75
  0
VERTEX
  8
0
 10
7.73529
 20
4.66971
 30
0.0
 40
0.0104167
 41
0.0104167
  0
VERTEX
  8
0
 10
8.69385
 20
4.66971
 30
0.0
 40
0.0104167
 41
0.0104167
  0
VERTEX
  8
0
 10
8.69385
 20
4.56554
 30
0.0
 40
0.0104167
 41
0.0104167
  0
VERTEX
  8
0
 10
7.73529
 20
4.56554
 30
0.0
 40
0.0104167
 41
0.0104167
  0
VERTEX
  8
0
 10
7.73529
 20
4.66971
 30
0.0
 40
0.0104167
 41
0.0104167
  0
SEQEND
 8
0
  0
POLYLINE
  8
0
 62
     7
 66
     1
 10
0
 20
0
 30
0.0
 70
     1
 40
0
 41
0
  0
VERTEX
  8
0
 10
8.21457
 20
4.75304
 30
0.0
 40
0
 41
0
  0
VERTEX
  8
0
 10
9.17313
 20
4.75304
 30
0.0
 40
0
 41
0
  0
VERTEX
  8
0
 10
9.17313
 20
4.71137
 30
0.0
 40
0
 41
0
  0
VERTEX
  8
0
 10
8.21457
 20
4.71137
 30
0.0
 40
0
 41
0
  0
VERTEX
  8
0
 10
8.21457
 20
4.75304
 30
0.0
 40
0
 41
0
  0
SEQEND
 8
0
  0
POLYLINE
  8
0
 62
     0
 66
     1
 10
0
 20
0
 30
0.0
 70
     1
 40
0.75
 41
0.75
  0
VERTEX
  8
0
 10
8.21457
 20
4.75304
 30
0.0
 40
0.0104167
 41
0.0104167
  0
VERTEX
  8
0
 10
9.17313
 20
4.75304
 30
0.0
 40
0.0104167
 41
0.0104167
  0
VERTEX
  8
0
 10
9.17313
 20
4.71137
 30
0.0
 40
0.0104167
 41
0.0104167
  0
VERTEX
  8
0
 10
8.21457
 20
4.71137
 30
0.0
 40
0.0104167
 41
0.0104167
  0
VERTEX
  8
0
 10
8.21457
 20
4.75304
 30
0.0
 40
0.0104167
 41
0.0104167
  0
SEQEND
 8
0
  0
POLYLINE
  8
0
 62
     0
 66
     1
 10
0
 20
0
 30
0.0
 70
     1
 40
0
 41
0
  0
VERTEX
  8
0
 10
7.6129
 20
4.66971
 30
0.0
 40
0
 41
0
  0
VERTEX
  8
0
 10
7.71707
 20
4.66971
 30
0.0
 40
0
 41
0
  0
VERTEX
  8
0
 10
7.71707
 20
0.934244
 30
0.0
 40
0
 41
0
  0
VERTEX
  8
0
 10
7.6129
 20
0.934244
 30
0.0
 40
0
 41
0
  0
VERTEX
  8
0
 10
7.6129
 20
4.66971
 30
0.0
 40
0
 41
0
  0
SEQEND
 8
0
  0
POLYLINE
  8
0
 62
     0
 66
     1
 10
0
 20
0
 30
0.0
 70
     1
 40
0.15
 41
0.15
  0
VERTEX
  8
0
 10
7.6129
 20
4.66971
 30
0.0
 40
0.00208333
 41
0.00208333
  0
VERTEX
  8
0
 10
7.71707
 20
4.66971
 30
0.0
 40
0.00208333
 41
0.00208333
  0
VERTEX
  8
0
 10
7.71707
 20
0.934244
 30
0.0
 40
0.00208333
 41
0.00208333
  0
VERTEX
  8
0
 10
7.6129
 20
0.934244
 30
0.0
 40
0.00208333
 41
0.00208333
  0
VERTEX
  8
0
 10
7.6129
 20
4.66971
 30
0.0
 40
0.00208333
 41
0.00208333
  0
SEQEND
 8
0
  0
POLYLINE
  8
0
 62
     0
 66
     1
 10
0
 20
0
 30
0.0
 70
     1
 40
0
 41
0
  0
VERTEX
  8
0
 10
1.06624
 20
4.89979
 30
0.0
 40
0
 41
0
  0
VERTEX
  8
0
 10
4.08946
 20
4.89979
 30
0.0
 40
0
 41
0
  0
VERTEX
  8
0
 10
4.08946
 20
4.79563
 30
0.0
 40
0
 41
0
  0
VERTEX
  8
0
 10
1.06624
 20
4.79563
 30
0.0
 40
0
 41
0
  0
VERTEX
  8
0
 10
1.06624
 20
4.89979
 30
0.0
 40
0
 41
0
  0
SEQEND
 8
0
  0
POLYLINE
  8
0
 62
     0
 66
     1
 10
0
 20
0
 30
0.0
 70
     1
 40
0.15
 41
0.15
  0
VERTEX
  8
0
 10
1.06624
 20
4.89979
 30
0.0
 40
0.00208333
 41
0.00208333
  0
VERTEX
  8
0
 10
4.08946
 20
4.89979
 30
0.0
 40
0.00208333
 41
0.00208333
  0
VERTEX
  8
0
 10
4.08946
 20
4.79563
 30
0.0
 40
0.00208333
 41
0.00208333
  0
VERTEX
  8
0
 10
1.06624
 20
4.79563
 30
0.0
 40
0.00208333
 41
0.00208333
  0
VERTEX
  8
0
 10
1.06624
 20
4.89979
 30
0.0
 40
0.00208333
 41
0.00208333
  0
SEQEND
 8
0
  0
POLYLINE
  8
0
 62
     0
 66
     1
 10
0
 20
0
 30
0.0
 70
     1
 40
0
 41
0
  0
VERTEX
  8
0
 10
1.06624
 20
9.39529
 30
0.0
 40
0
 41
0
  0
VERTEX
  8
0
 10
1.06624
 20
12.1225
 30
0.0
 40
0
 41
0
  0
VERTEX
  8
0
 10
1.25374
 20
11.9248
 30
0.0
 40
0
 41
0
  0
VERTEX
  8
0
 10
1.25374
 20
9.39529
 30
0.0
 40
0
 41
0
  0
VERTEX
  8
0
 10
1.06624
 20
9.39529
 30
0.0
 40
0
 41
0
  0
SEQEND
 8
0
  0
POLYLINE
  8
0
 62
     0
 66
     1
 10
0
 20
0
 30
0.0
 70
     1
 40
0.15
 41
0.15
  0
VERTEX
  8
0
 10
1.06624
 20
9.39529
 30
0.0
 40
0.00208333
 41
0.00208333
  0
VERTEX
  8
0
 10
1.06624
 20
12.1225
 30
0.0
 40
0.00208333
 41
0.00208333
  0
VERTEX
  8
0
 10
1.25374
 20
11.9248
 30
0.0
 40
0.00208333
 41
0.00208333
  0
VERTEX
  8
0
 10
1.25374
 20
9.39529
 30
0.0
 40
0.00208333
 41
0.00208333
  0
VERTEX
  8
0
 10
1.06624
 20
9.39529
 30
0.0
 40
0.00208333
 41
0.00208333
  0
SEQEND
 8
0
  0
POLYLINE
  8
0
 62
     7
 66
     1
 10
0
 20
0
 30
0.0
 70
     1
 40
0
 41
0
  0
VERTEX
  8
0
 10
2.43343
 20
12.1241
 30
0.0
 40
0
 41
0
  0
VERTEX
  8
0
 10
2.43343
 20
11.9254
 30
0.0
 40
0
 41
0
  0
VERTEX
  8
0
 10
2.51676
 20
12.0087
 30
0.0
 40
0
 41
0
  0
VERTEX
  8
0
 10
2.51676
 20
12.1241
 30
0.0
 40
0
 41
0
  0
VERTEX
  8
0
 10
2.43343
 20
12.1241
 30
0.0
 40
0
 41
0
  0
SEQEND
 8
0
  0
POLYLINE
  8
0
 62
     0
 66
     1
 10
0
 20
0
 30
0.0
 70
     1
 40
0.15
 41
0.15
  0
VERTEX
  8
0
 10
2.43343
 20
12.1241
 30
0.0
 40
0.00208333
 41
0.00208333
  0
VERTEX
  8
0
 10
2.43343
 20
11.9254
 30
0.0
 40
0.00208333
 41
0.00208333
  0
VERTEX
  8
0
 10
2.51676
 20
12.0087
 30
0.0
 40
0.00208333
 41
0.00208333
  0
VERTEX
  8
0
 10
2.51676
 20
12.1241
 30
0.0
 40
0.00208333
 41
0.00208333
  0
VERTEX
  8
0
 10
2.43343
 20
12.1241
 30
0.0
 40
0.00208333
 41
0.00208333
  0
SEQEND
 8
0
  0
POLYLINE
  8
0
 62
     7
 66
     1
 10
0
 20
0
 30
0.0
 70
     1
 40
0
 41
0
  0
VERTEX
  8
0
 10
2.43343
 20
11.9254
 30
0.0
 40
0
 41
0
  0
VERTEX
  8
0
 10
6.91461
 20
11.9254
 30
0.0
 40
0
 41
0
  0
VERTEX
  8
0
 10
6.91461
 20
12.0087
 30
0.0
 40
0
 41
0
  0
VERTEX
  8
0
 10
2.51676
 20
12.0087
 30
0.0
 40
0
 41
0
  0
VERTEX
  8
0
 10
2.43343
 20
11.9254
 30
0.0
 40
0
 41
0
  0
SEQEND
 8
0
  0
POLYLINE
  8
0
 62
     0
 66
     1
 10
0
 20
0
 30
0.0
 70
     1
 40
0.15
 41
0.15
  0
VERTEX
  8
0
 10
2.43343
 20
11.9254
 30
0.0
 40
0.00208333
 41
0.00208333
  0
VERTEX
  8
0
 10
6.91461
 20
11.9254
 30
0.0
 40
0.00208333
 41
0.00208333
  0
VERTEX
  8
0
 10
6.91461
 20
12.0087
 30
0.0
 40
0.00208333
 41
0.00208333
  0
VERTEX
  8
0
 10
2.51676
 20
12.0087
 30
0.0
 40
0.00208333
 41
0.00208333
  0
VERTEX
  8
0
 10
2.43343
 20
11.9254
 30
0.0
 40
0.00208333
 41
0.00208333
  0
SEQEND
 8
0
  0
POLYLINE
  8
0
 62
     0
 66
     1
 10
0
 20
0
 30
0.0
 70
     1
 40
0
 41
0
  0
VERTEX
  8
0
 10
6.91461
 20
12.0087
 30
0.0
 40
0
 41
0
  0
VERTEX
  8
0
 10
8.67404
 20
12.0087
 30
0.0
 40
0
 41
0
  0
VERTEX
  8
0
 10
8.67404
 20
11.9254
 30
0.0
 40
0
 41
0
  0
VERTEX
  8
0
 10
6.91461
 20
11.9254
 30
0.0
 40
0
 41
0
  0
VERTEX
  8
0
 10
6.91461
 20
12.0087
 30
0.0
 40
0
 41
0
  0
SEQEND
 8
0
  0
POLYLINE
  8
0
 62
     0
 66
     1
 10
0
 20
0
 30
0.0
 70
     1
 40
0.15
 41
0.15
  0
VERTEX
  8
0
 10
6.91461
 20
12.0087
 30
0.0
 40
0.00208333
 41
0.00208333
  0
VERTEX
  8
0
 10
8.67404
 20
12.0087
 30
0.0
 40
0.00208333
 41
0.00208333
  0
VERTEX
  8
0
 10
8.67404
 20
11.9254
 30
0.0
 40
0.00208333
 41
0.00208333
  0
VERTEX
  8
0
 10
6.91461
 20
11.9254
 30
0.0
 40
0.00208333
 41
0.00208333
  0
VERTEX
  8
0
 10
6.91461
 20
12.0087
 30
0.0
 40
0.00208333
 41
0.00208333
  0
SEQEND
 8
0
  0
POLYLINE
  8
0
 62
     7
 66
     1
 10
0
 20
0
 30
0.0
 70
     1
 40
0
 41
0
  0
VERTEX
  8
0
 10
8.67404
 20
12.0087
 30
0.0
 40
0
 41
0
  0
VERTEX
  8
0
 10
8.75738
 20
12.0087
 30
0.0
 40
0
 41
0
  0
VERTEX
  8
0
 10
8.75738
 20
9.51281
 30
0.0
 40
0
 41
0
  0
VERTEX
  8
0
 10
8.67404
 20
9.51281
 30
0.0
 40
0
 41
0
  0
VERTEX
  8
0
 10
8.67404
 20
12.0087
 30
0.0
 40
0
 41
0
  0
SEQEND
 8
0
  0
POLYLINE
  8
0
 62
     0
 66
     1
 10
0
 20
0
 30
0.0
 70
     1
 40
0.15
 41
0.15
  0
VERTEX
  8
0
 10
8.67404
 20
12.0087
 30
0.0
 40
0.00208333
 41
0.00208333
  0
VERTEX
  8
0
 10
8.75738
 20
12.0087
 30
0.0
 40
0.00208333
 41
0.00208333
  0
VERTEX
  8
0
 10
8.75738
 20
9.51281
 30
0.0
 40
0.00208333
 41
0.00208333
  0
VERTEX
  8
0
 10
8.67404
 20
9.51281
 30
0.0
 40
0.00208333
 41
0.00208333
  0
VERTEX
  8
0
 10
8.67404
 20
12.0087
 30
0.0
 40
0.00208333
 41
0.00208333
  0
SEQEND
 8
0
  0
POLYLINE
  8
0
 62
     7
 66
     1
 10
0
 20
0
 30
0.0
 70
     1
 40
0
 41
0
  0
VERTEX
  8
0
 10
9.66124
 20
4.56337
 30
0.0
 40
0
 41
0
  0
VERTEX
  8
0
 10
10.7351
 20
4.56337
 30
0.0
 40
0
 41
0
  0
VERTEX
  8
0
 10
10.7351
 20
3.93837
 30
0.0
 40
0
 41
0
  0
VERTEX
  8
0
 10
9.66124
 20
3.93837
 30
0.0
 40
0
 41
0
  0
VERTEX
  8
0
 10
9.66124
 20
4.56337
 30
0.0
 40
0
 41
0
  0
SEQEND
 8
0
  0
POLYLINE
  8
0
 62
     0
 66
     1
 10
0
 20
0
 30
0.0
 70
     1
 40
0.75
 41
0.75
  0
VERTEX
  8
0
 10
9.66124
 20
4.56337
 30
0.0
 40
0.0104167
 41
0.0104167
  0
VERTEX
  8
0
 10
10.7351
 20
4.56337
 30
0.0
 40
0.0104167
 41
0.0104167
  0
VERTEX
  8
0
 10
10.7351
 20
3.93837
 30
0.0
 40
0.0104167
 41
0.0104167
  0
VERTEX
  8
0
 10
9.66124
 20
3.93837
 30
0.0
 40
0.0104167
 41
0.0104167
  0
VERTEX
  8
0
 10
9.66124
 20
4.56337
 30
0.0
 40
0.0104167
 41
0.0104167
  0
SEQEND
 8
0
  0
POLYLINE
  8
0
 62
     253
 66
     1
 10
0
 20
0
 30
0.0
 40
0.75
 41
0.75
  0
VERTEX
  8
0
 10
9.66124
 20
4.25087
 30
0.0
 40
0.0104167
 41
0.0104167
  0
VERTEX
  8
0
 10
10.7351
 20
4.25087
 30
0.0
 40
0.0104167
 41
0.0104167
  0
SEQEND
 8
0
  0
POLYLINE
  8
0
 62
     7
 66
     1
 10
0
 20
0
 30
0.0
 70
     1
 40
0
 41
0
  0
VERTEX
  8
0
 10
9.05821
 20
4.56337
 30
0.0
 40
0
 41
0
  0
VERTEX
  8
0
 10
9.66124
 20
4.56337
 30
0.0
 40
0
 41
0
  0
VERTEX
  8
0
 10
9.66124
 20
3.93837
 30
0.0
 40
0
 41
0
  0
VERTEX
  8
0
 10
9.05821
 20
3.93837
 30
0.0
 40
0
 41
0
  0
VERTEX
  8
0
 10
9.05821
 20
4.56337
 30
0.0
 40
0
 41
0
  0
SEQEND
 8
0
  0
POLYLINE
  8
0
 62
     0
 66
     1
 10
0
 20
0
 30
0.0
 70
     1
 40
0.75
 41
0.75
  0
VERTEX
  8
0
 10
9.05821
 20
4.56337
 30
0.0
 40
0.0104167
 41
0.0104167
  0
VERTEX
  8
0
 10
9.66124
 20
4.56337
 30
0.0
 40
0.0104167
 41
0.0104167
  0
VERTEX
  8
0
 10
9.66124
 20
3.93837
 30
0.0
 40
0.0104167
 41
0.0104167
  0
VERTEX
  8
0
 10
9.05821
 20
3.93837
 30
0.0
 40
0.0104167
 41
0.0104167
  0
VERTEX
  8
0
 10
9.05821
 20
4.56337
 30
0.0
 40
0.0104167
 41
0.0104167
  0
SEQEND
 8
0
  0
POLYLINE
  8
0
 62
     7
 66
     1
 10
0
 20
0
 30
0.0
 70
     1
 40
0
 41
0
  0
VERTEX
  8
0
 10
2.9414
 20
1.64665
 30
0.0
 40
0
 41
0
  0
VERTEX
  8
0
 10
3.5664
 20
1.64665
 30
0.0
 40
0
 41
0
  0
VERTEX
  8
0
 10
3.5664
 20
1.14263
 30
0.0
 40
0
 41
0
  0
VERTEX
  8
0
 10
2.9414
 20
1.14263
 30
0.0
 40
0
 41
0
  0
VERTEX
  8
0
 10
2.9414
 20
1.64665
 30
0.0
 40
0
 41
0
  0
SEQEND
 8
0
  0
POLYLINE
  8
0
 62
     0
 66
     1
 10
0
 20
0
 30
0.0
 70
     1
 40
0.75
 41
0.75
  0
VERTEX
  8
0
 10
2.9414
 20
1.64665
 30
0.0
 40
0.0104167
 41
0.0104167
  0
VERTEX
  8
0
 10
2.9414
 20
1.14263
 30
0.0
 40
0.0104167
 41
0.0104167
  0
VERTEX
  8
0
 10
3.5664
 20
1.14263
 30
0.0
 40
0.0104167
 41
0.0104167
  0
VERTEX
  8
0
 10
3.5664
 20
1.64665
 30
0.0
 40
0.0104167
 41
0.0104167
  0
VERTEX
  8
0
 10
2.9414
 20
1.64665
 30
0.0
 40
0.0104167
 41
0.0104167
  0
SEQEND
 8
0
  0
POLYLINE
  8
0
 62
     7
 66
     1
 10
0
 20
0
 30
0.0
 70
     1
 40
0
 41
0
  0
VERTEX
  8
0
 10
2.9414
 20
2.70458
 30
0.0
 40
0
 41
0
  0
VERTEX
  8
0
 10
3.5664
 20
2.70458
 30
0.0
 40
0
 41
0
  0
VERTEX
  8
0
 10
3.5664
 20
1.64665
 30
0.0
 40
0
 41
0
  0
VERTEX
  8
0
 10
2.9414
 20
1.64665
 30
0.0
 40
0
 41
0
  0
VERTEX
  8
0
 10
2.9414
 20
2.70458
 30
0.0
 40
0
 41
0
  0
SEQEND
 8
0
  0
POLYLINE
  8
0
 62
     0
 66
     1
 10
0
 20
0
 30
0.0
 70
     1
 40
0.75
 41
0.75
  0
VERTEX
  8
0
 10
2.9414
 20
2.70458
 30
0.0
 40
0.0104167
 41
0.0104167
  0
VERTEX
  8
0
 10
2.9414
 20
1.64665
 30
0.0
 40
0.0104167
 41
0.0104167
  0
VERTEX
  8
0
 10
3.5664
 20
1.64665
 30
0.0
 40
0.0104167
 41
0.0104167
  0
VERTEX
  8
0
 10
3.5664
 20
2.70458
 30
0.0
 40
0.0104167
 41
0.0104167
  0
VERTEX
  8
0
 10
2.9414
 20
2.70458
 30
0.0
 40
0.0104167
 41
0.0104167
  0
SEQEND
 8
0
  0
POLYLINE
  8
0
 62
     253
 66
     1
 10
0
 20
0
 30
0.0
 40
0.75
 41
0.75
  0
VERTEX
  8
0
 10
3.2539
 20
1.64665
 30
0.0
 40
0.0104167
 41
0.0104167
  0
VERTEX
  8
0
 10
3.2539
 20
2.70454
 30
0.0
 40
0.0104167
 41
0.0104167
  0
SEQEND
 8
0
  0
POLYLINE
  8
0
 62
     7
 66
     1
 10
0
 20
0
 30
0.0
 70
     1
 40
0
 41
0
  0
VERTEX
  8
0
 10
1.31624
 20
1.64844
 30
0.0
 40
0
 41
0
  0
VERTEX
  8
0
 10
2.81646
 20
1.64844
 30
0.0
 40
0
 41
0
  0
VERTEX
  8
0
 10
2.81646
 20
1.21555
 30
0.0
 40
0
 41
0
  0
VERTEX
  8
0
 10
1.31624
 20
1.21555
 30
0.0
 40
0
 41
0
  0
VERTEX
  8
0
 10
1.31624
 20
1.64844
 30
0.0
 40
0
 41
0
  0
SEQEND
 8
0
  0
POLYLINE
  8
0
 62
     0
 66
     1
 10
0
 20
0
 30
0.0
 70
     1
 40
0.75
 41
0.75
  0
VERTEX
  8
0
 10
1.31624
 20
1.64844
 30
0.0
 40
0.0104167
 41
0.0104167
  0
VERTEX
  8
0
 10
2.81646
 20
1.64844
 30
0.0
 40
0.0104167
 41
0.0104167
  0
VERTEX
  8
0
 10
2.81646
 20
1.21555
 30
0.0
 40
0.0104167
 41
0.0104167
  0
VERTEX
  8
0
 10
1.31624
 20
1.21555
 30
0.0
 40
0.0104167
 41
0.0104167
  0
VERTEX
  8
0
 10
1.31624
 20
1.64844
 30
0.0
 40
0.0104167
 41
0.0104167
  0
SEQEND
 8
0
  0
POLYLINE
  8
0
 62
     253
 66
     1
 10
0
 20
0
 30
0.0
 40
0.375
 41
0.375
  0
VERTEX
  8
0
 10
2.81646
 20
1.24436
 30
0.0
 40
0.00520833
 41
0.00520833
  0
VERTEX
  8
0
 10
1.31624
 20
1.24436
 30
0.0
 40
0.00520833
 41
0.00520833
  0
SEQEND
 8
0
  0
POLYLINE
  8
0
 62
     253
 66
     1
 10
0
 20
0
 30
0.0
 40
0.375
 41
0.375
  0
VERTEX
  8
0
 10
2.81646
 20
1.27322
 30
0.0
 40
0.00520833
 41
0.00520833
  0
VERTEX
  8
0
 10
1.31624
 20
1.27322
 30
0.0
 40
0.00520833
 41
0.00520833
  0
SEQEND
 8
0
  0
POLYLINE
  8
0
 62
     253
 66
     1
 10
0
 20
0
 30
0.0
 40
0.375
 41
0.375
  0
VERTEX
  8
0
 10
2.81646
 20
1.30208
 30
0.0
 40
0.00520833
 41
0.00520833
  0
VERTEX
  8
0
 10
1.31624
 20
1.30208
 30
0.0
 40
0.00520833
 41
0.00520833
  0
SEQEND
 8
0
  0
POLYLINE
  8
0
 62
     253
 66
     1
 10
0
 20
0
 30
0.0
 40
0.375
 41
0.375
  0
VERTEX
  8
0
 10
2.81646
 20
1.33095
 30
0.0
 40
0.00520833
 41
0.00520833
  0
VERTEX
  8
0
 10
1.31624
 20
1.33095
 30
0.0
 40
0.00520833
 41
0.00520833
  0
SEQEND
 8
0
  0
POLYLINE
  8
0
 62
     253
 66
     1
 10
0
 20
0
 30
0.0
 40
0.375
 41
0.375
  0
VERTEX
  8
0
 10
2.81646
 20
1.35981
 30
0.0
 40
0.00520833
 41
0.00520833
  0
VERTEX
  8
0
 10
1.31624
 20
1.35981
 30
0.0
 40
0.00520833
 41
0.00520833
  0
SEQEND
 8
0
  0
POLYLINE
  8
0
 62
     253
 66
     1
 10
0
 20
0
 30
0.0
 40
0.375
 41
0.375
  0
VERTEX
  8
0
 10
2.81646
 20
1.38867
 30
0.0
 40
0.00520833
 41
0.00520833
  0
VERTEX
  8
0
 10
1.31624
 20
1.38867
 30
0.0
 40
0.00520833
 41
0.00520833
  0
SEQEND
 8
0
  0
POLYLINE
  8
0
 62
     253
 66
     1
 10
0
 20
0
 30
0.0
 40
0.375
 41
0.375
  0
VERTEX
  8
0
 10
2.81646
 20
1.41754
 30
0.0
 40
0.00520833
 41
0.00520833
  0
VERTEX
  8
0
 10
1.31624
 20
1.41754
 30
0.0
 40
0.00520833
 41
0.00520833
  0
SEQEND
 8
0
  0
POLYLINE
  8
0
 62
     253
 66
     1
 10
0
 20
0
 30
0.0
 40
0.375
 41
0.375
  0
VERTEX
  8
0
 10
2.81646
 20
1.4464
 30
0.0
 40
0.00520833
 41
0.00520833
  0
VERTEX
  8
0
 10
1.31624
 20
1.4464
 30
0.0
 40
0.00520833
 41
0.00520833
  0
SEQEND
 8
0
  0
POLYLINE
  8
0
 62
     253
 66
     1
 10
0
 20
0
 30
0.0
 40
0.375
 41
0.375
  0
VERTEX
  8
0
 10
2.81646
 20
1.47526
 30
0.0
 40
0.00520833
 41
0.00520833
  0
VERTEX
  8
0
 10
1.31624
 20
1.47526
 30
0.0
 40
0.00520833
 41
0.00520833
  0
SEQEND
 8
0
  0
POLYLINE
  8
0
 62
     253
 66
     1
 10
0
 20
0
 30
0.0
 40
0.375
 41
0.375
  0
VERTEX
  8
0
 10
2.81646
 20
1.50412
 30
0.0
 40
0.00520833
 41
0.00520833
  0
VERTEX
  8
0
 10
1.31624
 20
1.50412
 30
0.0
 40
0.00520833
 41
0.00520833
  0
SEQEND
 8
0
  0
POLYLINE
  8
0
 62
     253
 66
     1
 10
0
 20
0
 30
0.0
 40
0.375
 41
0.375
  0
VERTEX
  8
0
 10
2.81646
 20
1.53299
 30
0.0
 40
0.00520833
 41
0.00520833
  0
VERTEX
  8
0
 10
1.31624
 20
1.53299
 30
0.0
 40
0.00520833
 41
0.00520833
  0
SEQEND
 8
0
  0
POLYLINE
  8
0
 62
     253
 66
     1
 10
0
 20
0
 30
0.0
 40
0.375
 41
0.375
  0
VERTEX
  8
0
 10
2.81646
 20
1.56185
 30
0.0
 40
0.00520833
 41
0.00520833
  0
VERTEX
  8
0
 10
1.31624
 20
1.56185
 30
0.0
 40
0.00520833
 41
0.00520833
  0
SEQEND
 8
0
  0
POLYLINE
  8
0
 62
     253
 66
     1
 10
0
 20
0
 30
0.0
 40
0.375
 41
0.375
  0
VERTEX
  8
0
 10
2.81646
 20
1.59071
 30
0.0
 40
0.00520833
 41
0.00520833
  0
VERTEX
  8
0
 10
1.31624
 20
1.59071
 30
0.0
 40
0.00520833
 41
0.00520833
  0
SEQEND
 8
0
  0
POLYLINE
  8
0
 62
     253
 66
     1
 10
0
 20
0
 30
0.0
 40
0.375
 41
0.375
  0
VERTEX
  8
0
 10
2.81646
 20
1.61957
 30
0.0
 40
0.00520833
 41
0.00520833
  0
VERTEX
  8
0
 10
1.31624
 20
1.61957
 30
0.0
 40
0.00520833
 41
0.00520833
  0
SEQEND
 8
0
  0
POLYLINE
  8
0
 62
     7
 66
     1
 10
0
 20
0
 30
0.0
 70
     1
 40
0
 41
0
  0
VERTEX
  8
0
 10
1.31624
 20
1.93707
 30
0.0
 40
0
 41
0
  0
VERTEX
  8
0
 10
2.81646
 20
1.93707
 30
0.0
 40
0
 41
0
  0
VERTEX
  8
0
 10
2.81646
 20
1.64844
 30
0.0
 40
0
 41
0
  0
VERTEX
  8
0
 10
1.31624
 20
1.64844
 30
0.0
 40
0
 41
0
  0
VERTEX
  8
0
 10
1.31624
 20
1.93707
 30
0.0
 40
0
 41
0
  0
SEQEND
 8
0
  0
POLYLINE
  8
0
 62
     0
 66
     1
 10
0
 20
0
 30
0.0
 70
     1
 40
0.75
 41
0.75
  0
VERTEX
  8
0
 10
1.31624
 20
1.93707
 30
0.0
 40
0.0104167
 41
0.0104167
  0
VERTEX
  8
0
 10
2.81646
 20
1.93707
 30
0.0
 40
0.0104167
 41
0.0104167
  0
VERTEX
  8
0
 10
2.81646
 20
1.64844
 30
0.0
 40
0.0104167
 41
0.0104167
  0
VERTEX
  8
0
 10
1.31624
 20
1.64844
 30
0.0
 40
0.0104167
 41
0.0104167
  0
VERTEX
  8
0
 10
1.31624
 20
1.93707
 30
0.0
 40
0.0104167
 41
0.0104167
  0
SEQEND
 8
0
  0
POLYLINE
  8
0
 62
     253
 66
     1
 10
0
 20
0
 30
0.0
 40
0.375
 41
0.375
  0
VERTEX
  8
0
 10
2.81646
 20
1.67731
 30
0.0
 40
0.00520833
 41
0.00520833
  0
VERTEX
  8
0
 10
1.31624
 20
1.67731
 30
0.0
 40
0.00520833
 41
0.00520833
  0
SEQEND
 8
0
  0
POLYLINE
  8
0
 62
     253
 66
     1
 10
0
 20
0
 30
0.0
 40
0.375
 41
0.375
  0
VERTEX
  8
0
 10
2.81646
 20
1.70617
 30
0.0
 40
0.00520833
 41
0.00520833
  0
VERTEX
  8
0
 10
1.31624
 20
1.70617
 30
0.0
 40
0.00520833
 41
0.00520833
  0
SEQEND
 8
0
  0
POLYLINE
  8
0
 62
     253
 66
     1
 10
0
 20
0
 30
0.0
 40
0.375
 41
0.375
  0
VERTEX
  8
0
 10
2.81646
 20
1.73503
 30
0.0
 40
0.00520833
 41
0.00520833
  0
VERTEX
  8
0
 10
1.31624
 20
1.73503
 30
0.0
 40
0.00520833
 41
0.00520833
  0
SEQEND
 8
0
  0
POLYLINE
  8
0
 62
     253
 66
     1
 10
0
 20
0
 30
0.0
 40
0.375
 41
0.375
  0
VERTEX
  8
0
 10
2.81646
 20
1.76389
 30
0.0
 40
0.00520833
 41
0.00520833
  0
VERTEX
  8
0
 10
1.31624
 20
1.76389
 30
0.0
 40
0.00520833
 41
0.00520833
  0
SEQEND
 8
0
  0
POLYLINE
  8
0
 62
     253
 66
     1
 10
0
 20
0
 30
0.0
 40
0.375
 41
0.375
  0
VERTEX
  8
0
 10
2.81646
 20
1.79275
 30
0.0
 40
0.00520833
 41
0.00520833
  0
VERTEX
  8
0
 10
1.31624
 20
1.79275
 30
0.0
 40
0.00520833
 41
0.00520833
  0
SEQEND
 8
0
  0
POLYLINE
  8
0
 62
     253
 66
     1
 10
0
 20
0
 30
0.0
 40
0.375
 41
0.375
  0
VERTEX
  8
0
 10
2.81646
 20
1.82161
 30
0.0
 40
0.00520833
 41
0.00520833
  0
VERTEX
  8
0
 10
1.31624
 20
1.82161
 30
0.0
 40
0.00520833
 41
0.00520833
  0
SEQEND
 8
0
  0
POLYLINE
  8
0
 62
     253
 66
     1
 10
0
 20
0
 30
0.0
 40
0.375
 41
0.375
  0
VERTEX
  8
0
 10
2.81646
 20
1.85042
 30
0.0
 40
0.00520833
 41
0.00520833
  0
VERTEX
  8
0
 10
1.31624
 20
1.85042
 30
0.0
 40
0.00520833
 41
0.00520833
  0
SEQEND
 8
0
  0
POLYLINE
  8
0
 62
     253
 66
     1
 10
0
 20
0
 30
0.0
 40
0.375
 41
0.375
  0
VERTEX
  8
0
 10
2.81646
 20
1.87929
 30
0.0
 40
0.00520833
 41
0.00520833
  0
VERTEX
  8
0
 10
1.31624
 20
1.87929
 30
0.0
 40
0.00520833
 41
0.00520833
  0
SEQEND
 8
0
  0
POLYLINE
  8
0
 62
     253
 66
     1
 10
0
 20
0
 30
0.0
 40
0.375
 41
0.375
  0
VERTEX
  8
0
 10
2.81646
 20
1.90815
 30
0.0
 40
0.00520833
 41
0.00520833
  0
VERTEX
  8
0
 10
1.31624
 20
1.90815
 30
0.0
 40
0.00520833
 41
0.00520833
  0
SEQEND
 8
0
  0
POLYLINE
  8
0
 62
     7
 66
     1
 10
0
 20
0
 30
0.0
 70
     1
 40
0
 41
0
  0
VERTEX
  8
0
 10
2.07856
 20
2.22569
 30
0.0
 40
0
 41
0
  0
VERTEX
  8
0
 10
2.81646
 20
2.22569
 30
0.0
 40
0
 41
0
  0
VERTEX
  8
0
 10
2.81646
 20
1.93701
 30
0.0
 40
0
 41
0
  0
VERTEX
  8
0
 10
2.07856
 20
1.93701
 30
0.0
 40
0
 41
0
  0
VERTEX
  8
0
 10
2.07856
 20
2.22569
 30
0.0
 40
0
 41
0
  0
SEQEND
 8
0
  0
POLYLINE
  8
0
 62
     0
 66
     1
 10
0
 20
0
 30
0.0
 70
     1
 40
0.75
 41
0.75
  0
VERTEX
  8
0
 10
2.07856
 20
2.22569
 30
0.0
 40
0.0104167
 41
0.0104167
  0
VERTEX
  8
0
 10
2.81646
 20
2.22569
 30
0.0
 40
0.0104167
 41
0.0104167
  0
VERTEX
  8
0
 10
2.81646
 20
1.93701
 30
0.0
 40
0.0104167
 41
0.0104167
  0
VERTEX
  8
0
 10
2.07856
 20
1.93701
 30
0.0
 40
0.0104167
 41
0.0104167
  0
VERTEX
  8
0
 10
2.07856
 20
2.22569
 30
0.0
 40
0.0104167
 41
0.0104167
  0
SEQEND
 8
0
  0
POLYLINE
  8
0
 62
     253
 66
     1
 10
0
 20
0
 30
0.0
 40
0.375
 41
0.375
  0
VERTEX
  8
0
 10
2.81646
 20
1.96588
 30
0.0
 40
0.00520833
 41
0.00520833
  0
VERTEX
  8
0
 10
2.0785
 20
1.96588
 30
0.0
 40
0.00520833
 41
0.00520833
  0
SEQEND
 8
0
  0
POLYLINE
  8
0
 62
     253
 66
     1
 10
0
 20
0
 30
0.0
 40
0.375
 41
0.375
  0
VERTEX
  8
0
 10
2.81646
 20
1.99474
 30
0.0
 40
0.00520833
 41
0.00520833
  0
VERTEX
  8
0
 10
2.0785
 20
1.99474
 30
0.0
 40
0.00520833
 41
0.00520833
  0
SEQEND
 8
0
  0
POLYLINE
  8
0
 62
     253
 66
     1
 10
0
 20
0
 30
0.0
 40
0.375
 41
0.375
  0
VERTEX
  8
0
 10
2.81646
 20
2.0236
 30
0.0
 40
0.00520833
 41
0.00520833
  0
VERTEX
  8
0
 10
2.0785
 20
2.0236
 30
0.0
 40
0.00520833
 41
0.00520833
  0
SEQEND
 8
0
  0
POLYLINE
  8
0
 62
     253
 66
     1
 10
0
 20
0
 30
0.0
 40
0.375
 41
0.375
  0
VERTEX
  8
0
 10
2.81646
 20
2.05246
 30
0.0
 40
0.00520833
 41
0.00520833
  0
VERTEX
  8
0
 10
2.0785
 20
2.05246
 30
0.0
 40
0.00520833
 41
0.00520833
  0
SEQEND
 8
0
  0
POLYLINE
  8
0
 62
     253
 66
     1
 10
0
 20
0
 30
0.0
 40
0.375
 41
0.375
  0
VERTEX
  8
0
 10
2.81646
 20
2.08132
 30
0.0
 40
0.00520833
 41
0.00520833
  0
VERTEX
  8
0
 10
2.0785
 20
2.08132
 30
0.0
 40
0.00520833
 41
0.00520833
  0
SEQEND
 8
0
  0
POLYLINE
  8
0
 62
     253
 66
     1
 10
0
 20
0
 30
0.0
 40
0.375
 41
0.375
  0
VERTEX
  8
0
 10
2.81646
 20
2.11019
 30
0.0
 40
0.00520833
 41
0.00520833
  0
VERTEX
  8
0
 10
2.0785
 20
2.11019
 30
0.0
 40
0.00520833
 41
0.00520833
  0
SEQEND
 8
0
  0
POLYLINE
  8
0
 62
     253
 66
     1
 10
0
 20
0
 30
0.0
 40
0.375
 41
0.375
  0
VERTEX
  8
0
 10
2.81646
 20
2.13906
 30
0.0
 40
0.00520833
 41
0.00520833
  0
VERTEX
  8
0
 10
2.0785
 20
2.13906
 30
0.0
 40
0.00520833
 41
0.00520833
  0
SEQEND
 8
0
  0
POLYLINE
  8
0
 62
     253
 66
     1
 10
0
 20
0
 30
0.0
 40
0.375
 41
0.375
  0
VERTEX
  8
0
 10
2.81646
 20
2.16792
 30
0.0
 40
0.00520833
 41
0.00520833
  0
VERTEX
  8
0
 10
2.0785
 20
2.16792
 30
0.0
 40
0.00520833
 41
0.00520833
  0
SEQEND
 8
0
  0
POLYLINE
  8
0
 62
     253
 66
     1
 10
0
 20
0
 30
0.0
 40
0.375
 41
0.375
  0
VERTEX
  8
0
 10
2.81646
 20
2.19678
 30
0.0
 40
0.00520833
 41
0.00520833
  0
VERTEX
  8
0
 10
2.0785
 20
2.19678
 30
0.0
 40
0.00520833
 41
0.00520833
  0
SEQEND
 8
0
  0
POLYLINE
  8
0
 62
     7
 66
     1
 10
0
 20
0
 30
0.0
 70
     1
 40
0
 41
0
  0
VERTEX
  8
0
 10
1.38276
 20
2.60693
 30
0.0
 40
0
 41
0
  0
VERTEX
  8
0
 10
2.00776
 20
2.60693
 30
0.0
 40
0
 41
0
  0
VERTEX
  8
0
 10
2.00776
 20
2.24235
 30
0.0
 40
0
 41
0
  0
VERTEX
  8
0
 10
1.38276
 20
2.24235
 30
0.0
 40
0
 41
0
  0
VERTEX
  8
0
 10
1.38276
 20
2.60693
 30
0.0
 40
0
 41
0
  0
SEQEND
 8
0
  0
POLYLINE
  8
0
 62
     0
 66
     1
 10
0
 20
0
 30
0.0
 70
     1
 40
0.75
 41
0.75
  0
VERTEX
  8
0
 10
1.38276
 20
2.60693
 30
0.0
 40
0.0104167
 41
0.0104167
  0
VERTEX
  8
0
 10
2.00776
 20
2.60693
 30
0.0
 40
0.0104167
 41
0.0104167
  0
VERTEX
  8
0
 10
2.00776
 20
2.24235
 30
0.0
 40
0.0104167
 41
0.0104167
  0
VERTEX
  8
0
 10
1.38276
 20
2.24235
 30
0.0
 40
0.0104167
 41
0.0104167
  0
VERTEX
  8
0
 10
1.38276
 20
2.60693
 30
0.0
 40
0.0104167
 41
0.0104167
  0
SEQEND
 8
0
  0
POLYLINE
  8
0
 62
     0
 66
     1
 10
0
 20
0
 30
0.0
 40
0.75
 41
0.75
  0
VERTEX
  8
0
 10
1.38276
 20
2.24235
 30
0.0
 40
0.0104167
 41
0.0104167
  0
VERTEX
  8
0
 10
1.79633
 20
2.42464
 30
0.0
 40
0.0104167
 41
0.0104167
  0
VERTEX
  8
0
 10
1.60568
 20
2.42464
 30
0.0
 40
0.0104167
 41
0.0104167
  0
VERTEX
  8
0
 10
2.00776
 20
2.60693
 30
0.0
 40
0.0104167
 41
0.0104167
  0
SEQEND
 8
0
  0
POLYLINE
  8
0
 62
     0
 66
     1
 10
0
 20
0
 30
0.0
 70
     1
 40
0
 41
0
  0
VERTEX
  8
0
 10
1.06624
 20
4.46636
 30
0.0
 40
0
 41
0
  0
VERTEX
  8
0
 10
1.82042
 20
4.46636
 30
0.0
 40
0
 41
0
  0
VERTEX
  8
0
 10
1.75792
 20
4.52886
 30
0.0
 40
0
 41
0
  0
VERTEX
  8
0
 10
1.06624
 20
4.52886
 30
0.0
 40
0
 41
0
  0
VERTEX
  8
0
 10
1.06624
 20
4.46636
 30
0.0
 40
0
 41
0
  0
SEQEND
 8
0
  0
POLYLINE
  8
0
 62
     0
 66
     1
 10
0
 20
0
 30
0.0
 70
     1
 40
0.15
 41
0.15
  0
VERTEX
  8
0
 10
1.06624
 20
4.46636
 30
0.0
 40
0.00208333
 41
0.00208333
  0
VERTEX
  8
0
 10
1.82042
 20
4.46636
 30
0.0
 40
0.00208333
 41
0.00208333
  0
VERTEX
  8
0
 10
1.75792
 20
4.52886
 30
0.0
 40
0.00208333
 41
0.00208333
  0
VERTEX
  8
0
 10
1.06624
 20
4.52886
 30
0.0
 40
0.00208333
 41
0.00208333
  0
VERTEX
  8
0
 10
1.06624
 20
4.46636
 30
0.0
 40
0.00208333
 41
0.00208333
  0
SEQEND
 8
0
  0
POLYLINE
  8
0
 62
     0
 66
     1
 10
0
 20
0
 30
0.0
 70
     1
 40
0
 41
0
  0
VERTEX
  8
0
 10
1.82042
 20
4.46636
 30
0.0
 40
0
 41
0
  0
VERTEX
  8
0
 10
1.82042
 20
4.89979
 30
0.0
 40
0
 41
0
  0
VERTEX
  8
0
 10
1.75792
 20
4.89979
 30
0.0
 40
0
 41
0
  0
VERTEX
  8
0
 10
1.75792
 20
4.52886
 30
0.0
 40
0
 41
0
  0
VERTEX
  8
0
 10
1.82042
 20
4.46636
 30
0.0
 40
0
 41
0
  0
SEQEND
 8
0
  0
POLYLINE
  8
0
 62
     0
 66
     1
 10
0
 20
0
 30
0.0
 70
     1
 40
0.15
 41
0.15
  0
VERTEX
  8
0
 10
1.82042
 20
4.46636
 30
0.0
 40
0.00208333
 41
0.00208333
  0
VERTEX
  8
0
 10
1.82042
 20
4.89979
 30
0.0
 40
0.00208333
 41
0.00208333
  0
VERTEX
  8
0
 10
1.75792
 20
4.89979
 30
0.0
 40
0.00208333
 41
0.00208333
  0
VERTEX
  8
0
 10
1.75792
 20
4.52886
 30
0.0
 40
0.00208333
 41
0.00208333
  0
VERTEX
  8
0
 10
1.82042
 20
4.46636
 30
0.0
 40
0.00208333
 41
0.00208333
  0
SEQEND
 8
0
  0
POLYLINE
  8
0
 62
     7
 66
     1
 10
0
 20
0
 30
0.0
 70
     1
 40
0
 41
0
  0
VERTEX
  8
0
 10
1.68067
 20
2.88921
 30
0.0
 40
0
 41
0
  0
VERTEX
  8
0
 10
1.79731
 20
2.88921
 30
0.0
 40
0
 41
0
  0
VERTEX
  8
0
 10
1.79731
 20
2.82568
 30
0.0
 40
0
 41
0
  0
VERTEX
  8
0
 10
1.68067
 20
2.82568
 30
0.0
 40
0
 41
0
  0
VERTEX
  8
0
 10
1.68067
 20
2.88921
 30
0.0
 40
0
 41
0
  0
SEQEND
 8
0
  0
POLYLINE
  8
0
 62
     0
 66
     1
 10
0
 20
0
 30
0.0
 70
     1
 40
0.75
 41
0.75
  0
VERTEX
  8
0
 10
1.68067
 20
2.88921
 30
0.0
 40
0.0104167
 41
0.0104167
  0
VERTEX
  8
0
 10
1.79731
 20
2.88921
 30
0.0
 40
0.0104167
 41
0.0104167
  0
VERTEX
  8
0
 10
1.79731
 20
2.82568
 30
0.0
 40
0.0104167
 41
0.0104167
  0
VERTEX
  8
0
 10
1.68067
 20
2.82568
 30
0.0
 40
0.0104167
 41
0.0104167
  0
VERTEX
  8
0
 10
1.68067
 20
2.88921
 30
0.0
 40
0.0104167
 41
0.0104167
  0
SEQEND
 8
0
  0
POLYLINE
  8
0
 62
     7
 66
     1
 10
0
 20
0
 30
0.0
 70
     1
 40
0
 41
0
  0
VERTEX
  8
0
 10
1.53586
 20
2.88921
 30
0.0
 40
0
 41
0
  0
VERTEX
  8
0
 10
1.65256
 20
2.88921
 30
0.0
 40
0
 41
0
  0
VERTEX
  8
0
 10
1.65256
 20
2.82568
 30
0.0
 40
0
 41
0
  0
VERTEX
  8
0
 10
1.53586
 20
2.82568
 30
0.0
 40
0
 41
0
  0
VERTEX
  8
0
 10
1.53586
 20
2.88921
 30
0.0
 40
0
 41
0
  0
SEQEND
 8
0
  0
POLYLINE
  8
0
 62
     0
 66
     1
 10
0
 20
0
 30
0.0
 70
     1
 40
0.75
 41
0.75
  0
VERTEX
  8
0
 10
1.53586
 20
2.88921
 30
0.0
 40
0.0104167
 41
0.0104167
  0
VERTEX
  8
0
 10
1.65256
 20
2.88921
 30
0.0
 40
0.0104167
 41
0.0104167
  0
VERTEX
  8
0
 10
1.65256
 20
2.82568
 30
0.0
 40
0.0104167
 41
0.0104167
  0
VERTEX
  8
0
 10
1.53586
 20
2.82568
 30
0.0
 40
0.0104167
 41
0.0104167
  0
VERTEX
  8
0
 10
1.53586
 20
2.88921
 30
0.0
 40
0.0104167
 41
0.0104167
  0
SEQEND
 8
0
  0
POLYLINE
  8
0
 62
     7
 66
     1
 10
0
 20
0
 30
0.0
 70
     1
 40
0
 41
0
  0
VERTEX
  8
0
 10
1.50151
 20
2.88921
 30
0.0
 40
0
 41
0
  0
VERTEX
  8
0
 10
1.53689
 20
2.88921
 30
0.0
 40
0
 41
0
  0
VERTEX
  8
0
 10
1.53689
 20
2.82568
 30
0.0
 40
0
 41
0
  0
VERTEX
  8
0
 10
1.50151
 20
2.82568
 30
0.0
 40
0
 41
0
  0
VERTEX
  8
0
 10
1.50151
 20
2.88921
 30
0.0
 40
0
 41
0
  0
SEQEND
 8
0
  0
POLYLINE
  8
0
 62
     0
 66
     1
 10
0
 20
0
 30
0.0
 70
     1
 40
0.75
 41
0.75
  0
VERTEX
  8
0
 10
1.50151
 20
2.88921
 30
0.0
 40
0.0104167
 41
0.0104167
  0
VERTEX
  8
0
 10
1.53689
 20
2.88921
 30
0.0
 40
0.0104167
 41
0.0104167
  0
VERTEX
  8
0
 10
1.53689
 20
2.82568
 30
0.0
 40
0.0104167
 41
0.0104167
  0
VERTEX
  8
0
 10
1.50151
 20
2.82568
 30
0.0
 40
0.0104167
 41
0.0104167
  0
VERTEX
  8
0
 10
1.50151
 20
2.88921
 30
0.0
 40
0.0104167
 41
0.0104167
  0
SEQEND
 8
0
  0
POLYLINE
  8
0
 62
     7
 66
     1
 10
0
 20
0
 30
0.0
 70
     1
 40
0
 41
0
  0
VERTEX
  8
0
 10
1.79731
 20
2.88921
 30
0.0
 40
0
 41
0
  0
VERTEX
  8
0
 10
1.83068
 20
2.88921
 30
0.0
 40
0
 41
0
  0
VERTEX
  8
0
 10
1.83068
 20
2.82568
 30
0.0
 40
0
 41
0
  0
VERTEX
  8
0
 10
1.79731
 20
2.82568
 30
0.0
 40
0
 41
0
  0
VERTEX
  8
0
 10
1.79731
 20
2.88921
 30
0.0
 40
0
 41
0
  0
SEQEND
 8
0
  0
POLYLINE
  8
0
 62
     0
 66
     1
 10
0
 20
0
 30
0.0
 70
     1
 40
0.75
 41
0.75
  0
VERTEX
  8
0
 10
1.79731
 20
2.88921
 30
0.0
 40
0.0104167
 41
0.0104167
  0
VERTEX
  8
0
 10
1.83068
 20
2.88921
 30
0.0
 40
0.0104167
 41
0.0104167
  0
VERTEX
  8
0
 10
1.83068
 20
2.82568
 30
0.0
 40
0.0104167
 41
0.0104167
  0
VERTEX
  8
0
 10
1.79731
 20
2.82568
 30
0.0
 40
0.0104167
 41
0.0104167
  0
VERTEX
  8
0
 10
1.79731
 20
2.88921
 30
0.0
 40
0.0104167
 41
0.0104167
  0
SEQEND
 8
0
  0
POLYLINE
  8
0
 62
     7
 66
     1
 10
0
 20
0
 30
0.0
 70
     1
 40
0
 41
0
  0
VERTEX
  8
0
 10
1.68067
 20
2.90901
 30
0.0
 40
0
 41
0
  0
VERTEX
  8
0
 10
1.68067
 20
2.91536
 30
0.0
 40
0
 41
0
  0
VERTEX
  8
0
 10
1.68431
 20
2.93431
 30
0.0
 40
0
 41
0
  0
VERTEX
  8
0
 10
1.69417
 20
2.95671
 30
0.0
 40
0
 41
0
  0
VERTEX
  8
0
 10
1.69732
 20
2.9611
 30
0.0
 40
0
 41
0
  0
VERTEX
  8
0
 10
1.69835
 20
2.96268
 30
0.0
 40
0
 41
0
  0
VERTEX
  8
0
 10
1.7085
 20
2.97726
 30
0.0
 40
0
 41
0
  0
VERTEX
  8
0
 10
1.70876
 20
2.97879
 30
0.0
 40
0
 41
0
  0
VERTEX
  8
0
 10
1.70925
 20
2.98167
 30
0.0
 40
0
 41
0
  0
VERTEX
  8
0
 10
1.70514
 20
2.99826
 30
0.0
 40
0
 41
0
  0
VERTEX
  8
0
 10
1.68842
 20
3.01112
 30
0.0
 40
0
 41
0
  0
VERTEX
  8
0
 10
1.68272
 20
3.01215
 30
0.0
 40
0
 41
0
  0
VERTEX
  8
0
 10
1.68143
 20
3.01243
 30
0.0
 40
0
 41
0
  0
VERTEX
  8
0
 10
1.66986
 20
3.01318
 30
0.0
 40
0
 41
0
  0
VERTEX
  8
0
 10
1.66607
 20
3.01318
 30
0.0
 40
0
 41
0
  0
VERTEX
  8
0
 10
1.6671
 20
3.01318
 30
0.0
 40
0
 41
0
  0
VERTEX
  8
0
 10
1.66292
 20
3.01318
 30
0.0
 40
0
 41
0
  0
VERTEX
  8
0
 10
1.65175
 20
3.01243
 30
0.0
 40
0
 41
0
  0
VERTEX
  8
0
 10
1.65044
 20
3.01215
 30
0.0
 40
0
 41
0
  0
VERTEX
  8
0
 10
1.64469
 20
3.01112
 30
0.0
 40
0
 41
0
  0
VERTEX
  8
0
 10
1.62804
 20
2.99826
 30
0.0
 40
0
 41
0
  0
VERTEX
  8
0
 10
1.62386
 20
2.98167
 30
0.0
 40
0
 41
0
  0
VERTEX
  8
0
 10
1.6244
 20
2.97879
 30
0.0
 40
0
 41
0
  0
VERTEX
  8
0
 10
1.62463
 20
2.97726
 30
0.0
 40
0
 41
0
  0
VERTEX
  8
0
 10
1.63482
 20
2.96268
 30
0.0
 40
0
 41
0
  0
VERTEX
  8
0
 10
1.63585
 20
2.9611
 30
0.0
 40
0
 41
0
  0
VERTEX
  8
0
 10
1.63894
 20
2.95671
 30
0.0
 40
0
 41
0
  0
VERTEX
  8
0
 10
1.64888
 20
2.93431
 30
0.0
 40
0
 41
0
  0
VERTEX
  8
0
 10
1.65256
 20
2.91536
 30
0.0
 40
0
 41
0
  0
VERTEX
  8
0
 10
1.65256
 20
2.90901
 30
0.0
 40
0
 41
0
  0
SEQEND
 8
0
  0
POLYLINE
  8
0
 62
     0
 66
     1
 10
0
 20
0
 30
0.0
 40
0.75
 41
0.75
  0
VERTEX
  8
0
 10
1.68067
 20
2.90901
 30
0.0
 40
0.0104167
 41
0.0104167
  0
VERTEX
  8
0
 10
1.68067
 20
2.91536
 30
0.0
 40
0.0104167
 41
0.0104167
  0
VERTEX
  8
0
 10
1.68431
 20
2.93431
 30
0.0
 40
0.0104167
 41
0.0104167
  0
VERTEX
  8
0
 10
1.69417
 20
2.95671
 30
0.0
 40
0.0104167
 41
0.0104167
  0
VERTEX
  8
0
 10
1.69732
 20
2.9611
 30
0.0
 40
0.0104167
 41
0.0104167
  0
VERTEX
  8
0
 10
1.69835
 20
2.96268
 30
0.0
 40
0.0104167
 41
0.0104167
  0
VERTEX
  8
0
 10
1.7085
 20
2.97726
 30
0.0
 40
0.0104167
 41
0.0104167
  0
VERTEX
  8
0
 10
1.70876
 20
2.97879
 30
0.0
 40
0.0104167
 41
0.0104167
  0
VERTEX
  8
0
 10
1.70925
 20
2.98167
 30
0.0
 40
0.0104167
 41
0.0104167
  0
VERTEX
  8
0
 10
1.70514
 20
2.99826
 30
0.0
 40
0.0104167
 41
0.0104167
  0
VERTEX
  8
0
 10
1.68842
 20
3.01112
 30
0.0
 40
0.0104167
 41
0.0104167
  0
VERTEX
  8
0
 10
1.68272
 20
3.01215
 30
0.0
 40
0.0104167
 41
0.0104167
  0
VERTEX
  8
0
 10
1.68143
 20
3.01243
 30
0.0
 40
0.0104167
 41
0.0104167
  0
VERTEX
  8
0
 10
1.66986
 20
3.01318
 30
0.0
 40
0.0104167
 41
0.0104167
  0
VERTEX
  8
0
 10
1.66607
 20
3.01318
 30
0.0
 40
0.0104167
 41
0.0104167
  0
VERTEX
  8
0
 10
1.6671
 20
3.01318
 30
0.0
 40
0.0104167
 41
0.0104167
  0
VERTEX
  8
0
 10
1.66292
 20
3.01318
 30
0.0
 40
0.0104167
 41
0.0104167
  0
VERTEX
  8
0
 10
1.65175
 20
3.01243
 30
0.0
 40
0.0104167
 41
0.0104167
  0
VERTEX
  8
0
 10
1.65044
 20
3.01215
 30
0.0
 40
0.0104167
 41
0.0104167
  0
VERTEX
  8
0
 10
1.64469
 20
3.01112
 30
0.0
 40
0.0104167
 41
0.0104167
  0
VERTEX
  8
0
 10
1.62804
 20
2.99826
 30
0.0
 40
0.0104167
 41
0.0104167
  0
VERTEX
  8
0
 10
1.62386
 20
2.98167
 30
0.0
 40
0.0104167
 41
0.0104167
  0
VERTEX
  8
0
 10
1.6244
 20
2.97879
 30
0.0
 40
0.0104167
 41
0.0104167
  0
VERTEX
  8
0
 10
1.62463
 20
2.97726
 30
0.0
 40
0.0104167
 41
0.0104167
  0
VERTEX
  8
0
 10
1.63482
 20
2.96268
 30
0.0
 40
0.0104167
 41
0.0104167
  0
VERTEX
  8
0
 10
1.63585
 20
2.9611
 30
0.0
 40
0.0104167
 41
0.0104167
  0
VERTEX
  8
0
 10
1.63894
 20
2.95671
 30
0.0
 40
0.0104167
 41
0.0104167
  0
VERTEX
  8
0
 10
1.64888
 20
2.93431
 30
0.0
 40
0.0104167
 41
0.0104167
  0
VERTEX
  8
0
 10
1.65256
 20
2.91536
 30
0.0
 40
0.0104167
 41
0.0104167
  0
VERTEX
  8
0
 10
1.65256
 20
2.90901
 30
0.0
 40
0.0104167
 41
0.0104167
  0
SEQEND
 8
0
  0
POLYLINE
  8
0
 62
     7
 66
     1
 10
0
 20
0
 30
0.0
 70
     1
 40
0
 41
0
  0
VERTEX
  8
0
 10
1.70876
 20
2.97987
 30
0.0
 40
0
 41
0
  0
VERTEX
  8
0
 10
1.7085
 20
2.98042
 30
0.0
 40
0
 41
0
  0
VERTEX
  8
0
 10
1.69667
 20
2.99056
 30
0.0
 40
0
 41
0
  0
VERTEX
  8
0
 10
1.6729
 20
2.99963
 30
0.0
 40
0
 41
0
  0
VERTEX
  8
0
 10
1.66504
 20
2.99963
 30
0.0
 40
0
 41
0
  0
VERTEX
  8
0
 10
1.65875
 20
2.9994
 30
0.0
 40
0
 41
0
  0
VERTEX
  8
0
 10
1.63613
 20
2.99018
 30
0.0
 40
0
 41
0
  0
VERTEX
  8
0
 10
1.62489
 20
2.98042
 30
0.0
 40
0
 41
0
  0
VERTEX
  8
0
 10
1.6244
 20
2.97987
 30
0.0
 40
0
 41
0
  0
SEQEND
 8
0
  0
POLYLINE
  8
0
 62
     0
 66
     1
 10
0
 20
0
 30
0.0
 40
0.75
 41
0.75
  0
VERTEX
  8
0
 10
1.70876
 20
2.97987
 30
0.0
 40
0.0104167
 41
0.0104167
  0
VERTEX
  8
0
 10
1.7085
 20
2.98042
 30
0.0
 40
0.0104167
 41
0.0104167
  0
VERTEX
  8
0
 10
1.69667
 20
2.99056
 30
0.0
 40
0.0104167
 41
0.0104167
  0
VERTEX
  8
0
 10
1.6729
 20
2.99963
 30
0.0
 40
0.0104167
 41
0.0104167
  0
VERTEX
  8
0
 10
1.66504
 20
2.99963
 30
0.0
 40
0.0104167
 41
0.0104167
  0
VERTEX
  8
0
 10
1.65875
 20
2.9994
 30
0.0
 40
0.0104167
 41
0.0104167
  0
VERTEX
  8
0
 10
1.63613
 20
2.99018
 30
0.0
 40
0.0104167
 41
0.0104167
  0
VERTEX
  8
0
 10
1.62489
 20
2.98042
 30
0.0
 40
0.0104167
 41
0.0104167
  0
VERTEX
  8
0
 10
1.6244
 20
2.97987
 30
0.0
 40
0.0104167
 41
0.0104167
  0
SEQEND
 8
0
  0
POLYLINE
  8
0
 62
     7
 66
     1
 10
0
 20
0
 30
0.0
 70
     1
 40
0
 41
0
  0
VERTEX
  8
0
 10
1.68067
 20
2.82568
 30
0.0
 40
0
 41
0
  0
VERTEX
  8
0
 10
1.65256
 20
2.82568
 30
0.0
 40
0
 41
0
  0
VERTEX
  8
0
 10
1.65256
 20
2.90901
 30
0.0
 40
0
 41
0
  0
VERTEX
  8
0
 10
1.65956
 20
2.90901
 30
0.0
 40
0
 41
0
  0
VERTEX
  8
0
 10
1.67535
 20
2.90901
 30
0.0
 40
0
 41
0
  0
VERTEX
  8
0
 10
1.68067
 20
2.90901
 30
0.0
 40
0
 41
0
  0
VERTEX
  8
0
 10
1.68067
 20
2.88818
 30
0.0
 40
0
 41
0
  0
VERTEX
  8
0
 10
1.68067
 20
2.84131
 30
0.0
 40
0
 41
0
  0
VERTEX
  8
0
 10
1.68067
 20
2.82568
 30
0.0
 40
0
 41
0
  0
SEQEND
 8
0
  0
POLYLINE
  8
0
 62
     0
 66
     1
 10
0
 20
0
 30
0.0
 70
     1
 40
0.75
 41
0.75
  0
VERTEX
  8
0
 10
1.68067
 20
2.82568
 30
0.0
 40
0.0104167
 41
0.0104167
  0
VERTEX
  8
0
 10
1.65256
 20
2.82568
 30
0.0
 40
0.0104167
 41
0.0104167
  0
VERTEX
  8
0
 10
1.65256
 20
2.90901
 30
0.0
 40
0.0104167
 41
0.0104167
  0
VERTEX
  8
0
 10
1.65956
 20
2.90901
 30
0.0
 40
0.0104167
 41
0.0104167
  0
VERTEX
  8
0
 10
1.67535
 20
2.90901
 30
0.0
 40
0.0104167
 41
0.0104167
  0
VERTEX
  8
0
 10
1.68067
 20
2.90901
 30
0.0
 40
0.0104167
 41
0.0104167
  0
VERTEX
  8
0
 10
1.68067
 20
2.88818
 30
0.0
 40
0.0104167
 41
0.0104167
  0
VERTEX
  8
0
 10
1.68067
 20
2.84131
 30
0.0
 40
0.0104167
 41
0.0104167
  0
VERTEX
  8
0
 10
1.68067
 20
2.82568
 30
0.0
 40
0.0104167
 41
0.0104167
  0
SEQEND
 8
0
  0
POLYLINE
  8
0
 62
     7
 66
     1
 10
0
 20
0
 30
0.0
 70
     1
 40
0
 41
0
  0
VERTEX
  8
0
 10
1.79731
 20
2.85796
 30
0.0
 40
0
 41
0
  0
VERTEX
  8
0
 10
1.79406
 20
2.85678
 30
0.0
 40
0
 41
0
  0
VERTEX
  8
0
 10
1.7844
 20
2.85292
 30
0.0
 40
0
 41
0
  0
VERTEX
  8
0
 10
1.78168
 20
2.85172
 30
0.0
 40
0
 41
0
  0
VERTEX
  8
0
 10
1.78168
 20
2.85172
 30
0.0
 40
0
 41
0
  0
VERTEX
  8
0
 10
1.78168
 20
2.85319
 30
0.0
 40
0
 41
0
  0
VERTEX
  8
0
 10
1.78168
 20
2.85747
 30
0.0
 40
0
 41
0
  0
VERTEX
  8
0
 10
1.78168
 20
2.86176
 30
0.0
 40
0
 41
0
  0
VERTEX
  8
0
 10
1.78168
 20
2.86317
 30
0.0
 40
0
 41
0
  0
VERTEX
  8
0
 10
1.78168
 20
2.86317
 30
0.0
 40
0
 41
0
  0
VERTEX
  8
0
 10
1.78401
 20
2.86253
 30
0.0
 40
0
 41
0
  0
VERTEX
  8
0
 10
1.794
 20
2.85915
 30
0.0
 40
0
 41
0
  0
VERTEX
  8
0
 10
1.79731
 20
2.85796
 30
0.0
 40
0
 41
0
  0
SEQEND
 8
0
  0
POLYLINE
  8
0
 62
     0
 66
     1
 10
0
 20
0
 30
0.0
 70
     1
 40
0.75
 41
0.75
  0
VERTEX
  8
0
 10
1.79731
 20
2.85796
 30
0.0
 40
0.0104167
 41
0.0104167
  0
VERTEX
  8
0
 10
1.79406
 20
2.85678
 30
0.0
 40
0.0104167
 41
0.0104167
  0
VERTEX
  8
0
 10
1.7844
 20
2.85292
 30
0.0
 40
0.0104167
 41
0.0104167
  0
VERTEX
  8
0
 10
1.78168
 20
2.85172
 30
0.0
 40
0.0104167
 41
0.0104167
  0
VERTEX
  8
0
 10
1.78168
 20
2.85172
 30
0.0
 40
0.0104167
 41
0.0104167
  0
VERTEX
  8
0
 10
1.78168
 20
2.85319
 30
0.0
 40
0.0104167
 41
0.0104167
  0
VERTEX
  8
0
 10
1.78168
 20
2.85747
 30
0.0
 40
0.0104167
 41
0.0104167
  0
VERTEX
  8
0
 10
1.78168
 20
2.86176
 30
0.0
 40
0.0104167
 41
0.0104167
  0
VERTEX
  8
0
 10
1.78168
 20
2.86317
 30
0.0
 40
0.0104167
 41
0.0104167
  0
VERTEX
  8
0
 10
1.78168
 20
2.86317
 30
0.0
 40
0.0104167
 41
0.0104167
  0
VERTEX
  8
0
 10
1.78401
 20
2.86253
 30
0.0
 40
0.0104167
 41
0.0104167
  0
VERTEX
  8
0
 10
1.794
 20
2.85915
 30
0.0
 40
0.0104167
 41
0.0104167
  0
VERTEX
  8
0
 10
1.79731
 20
2.85796
 30
0.0
 40
0.0104167
 41
0.0104167
  0
SEQEND
 8
0
  0
POLYLINE
  8
0
 62
     7
 66
     1
 10
0
 20
0
 30
0.0
 70
     1
 40
0
 41
0
  0
VERTEX
  8
0
 10
1.53689
 20
2.85796
 30
0.0
 40
0
 41
0
  0
VERTEX
  8
0
 10
1.5401
 20
2.85678
 30
0.0
 40
0
 41
0
  0
VERTEX
  8
0
 10
1.54975
 20
2.85292
 30
0.0
 40
0
 41
0
  0
VERTEX
  8
0
 10
1.55251
 20
2.85172
 30
0.0
 40
0
 41
0
  0
VERTEX
  8
0
 10
1.55251
 20
2.85172
 30
0.0
 40
0
 41
0
  0
VERTEX
  8
0
 10
1.55251
 20
2.85319
 30
0.0
 40
0
 41
0
  0
VERTEX
  8
0
 10
1.55251
 20
2.85747
 30
0.0
 40
0
 41
0
  0
VERTEX
  8
0
 10
1.55251
 20
2.86176
 30
0.0
 40
0
 41
0
  0
VERTEX
  8
0
 10
1.55251
 20
2.86317
 30
0.0
 40
0
 41
0
  0
VERTEX
  8
0
 10
1.55251
 20
2.86317
 30
0.0
 40
0
 41
0
  0
VERTEX
  8
0
 10
1.55013
 20
2.86253
 30
0.0
 40
0
 41
0
  0
VERTEX
  8
0
 10
1.54015
 20
2.85915
 30
0.0
 40
0
 41
0
  0
VERTEX
  8
0
 10
1.53689
 20
2.85796
 30
0.0
 40
0
 41
0
  0
SEQEND
 8
0
  0
POLYLINE
  8
0
 62
     0
 66
     1
 10
0
 20
0
 30
0.0
 70
     1
 40
0.75
 41
0.75
  0
VERTEX
  8
0
 10
1.53689
 20
2.85796
 30
0.0
 40
0.0104167
 41
0.0104167
  0
VERTEX
  8
0
 10
1.5401
 20
2.85678
 30
0.0
 40
0.0104167
 41
0.0104167
  0
VERTEX
  8
0
 10
1.54975
 20
2.85292
 30
0.0
 40
0.0104167
 41
0.0104167
  0
VERTEX
  8
0
 10
1.55251
 20
2.85172
 30
0.0
 40
0.0104167
 41
0.0104167
  0
VERTEX
  8
0
 10
1.55251
 20
2.85172
 30
0.0
 40
0.0104167
 41
0.0104167
  0
VERTEX
  8
0
 10
1.55251
 20
2.85319
 30
0.0
 40
0.0104167
 41
0.0104167
  0
VERTEX
  8
0
 10
1.55251
 20
2.85747
 30
0.0
 40
0.0104167
 41
0.0104167
  0
VERTEX
  8
0
 10
1.55251
 20
2.86176
 30
0.0
 40
0.0104167
 41
0.0104167
  0
VERTEX
  8
0
 10
1.55251
 20
2.86317
 30
0.0
 40
0.0104167
 41
0.0104167
  0
VERTEX
  8
0
 10
1.55251
 20
2.86317
 30
0.0
 40
0.0104167
 41
0.0104167
  0
VERTEX
  8
0
 10
1.55013
 20
2.86253
 30
0.0
 40
0.0104167
 41
0.0104167
  0
VERTEX
  8
0
 10
1.54015
 20
2.85915
 30
0.0
 40
0.0104167
 41
0.0104167
  0
VERTEX
  8
0
 10
1.53689
 20
2.85796
 30
0.0
 40
0.0104167
 41
0.0104167
  0
SEQEND
 8
0
  0
POLYLINE
  8
0
 62
     0
 66
     1
 10
0
 20
0
 30
0.0
 40
1.35
 41
1.35
  0
VERTEX
  8
0
 10
2.15474
 20
2.82047
 30
0.0
 40
0.01875
 41
0.01875
  0
VERTEX
  8
0
 10
2.15474
 20
3.73014
 30
0.0
 40
0.01875
 41
0.01875
  0
VERTEX
  8
0
 10
1.25369
 20
3.73014
 30
0.0
 40
0.01875
 41
0.01875
  0
SEQEND
 8
0
  0
POLYLINE
  8
0
 62
     7
 66
     1
 10
0
 20
0
 30
0.0
 70
     1
 40
0
 41
0
  0
VERTEX
  8
0
 10
1.25895
 20
4.30985
 30
0.0
 40
0
 41
0
  0
VERTEX
  8
0
 10
1.44624
 20
4.30985
 30
0.0
 40
0
 41
0
  0
VERTEX
  8
0
 10
1.44624
 20
3.89328
 30
0.0
 40
0
 41
0
  0
VERTEX
  8
0
 10
1.25895
 20
3.89328
 30
0.0
 40
0
 41
0
  0
VERTEX
  8
0
 10
1.25895
 20
4.30985
 30
0.0
 40
0
 41
0
  0
SEQEND
 8
0
  0
POLYLINE
  8
0
 62
     0
 66
     1
 10
0
 20
0
 30
0.0
 70
     1
 40
0.75
 41
0.75
  0
VERTEX
  8
0
 10
1.25895
 20
4.30985
 30
0.0
 40
0.0104167
 41
0.0104167
  0
VERTEX
  8
0
 10
1.25895
 20
3.89328
 30
0.0
 40
0.0104167
 41
0.0104167
  0
VERTEX
  8
0
 10
1.44624
 20
3.89328
 30
0.0
 40
0.0104167
 41
0.0104167
  0
VERTEX
  8
0
 10
1.44624
 20
4.30985
 30
0.0
 40
0.0104167
 41
0.0104167
  0
VERTEX
  8
0
 10
1.25895
 20
4.30985
 30
0.0
 40
0.0104167
 41
0.0104167
  0
SEQEND
 8
0
  0
POLYLINE
  8
0
 62
     7
 66
     1
 10
0
 20
0
 30
0.0
 70
     1
 40
0
 41
0
  0
VERTEX
  8
0
 10
1.71457
 20
4.30985
 30
0.0
 40
0
 41
0
  0
VERTEX
  8
0
 10
1.71457
 20
4.30985
 30
0.0
 40
0
 41
0
  0
VERTEX
  8
0
 10
1.72629
 20
4.30994
 30
0.0
 40
0
 41
0
  0
VERTEX
  8
0
 10
1.75726
 20
4.30832
 30
0.0
 40
0
 41
0
  0
VERTEX
  8
0
 10
1.80111
 20
4.30219
 30
0.0
 40
0
 41
0
  0
VERTEX
  8
0
 10
1.85135
 20
4.28874
 30
0.0
 40
0
 41
0
  0
VERTEX
  8
0
 10
1.90153
 20
4.26519
 30
0.0
 40
0
 41
0
  0
VERTEX
  8
0
 10
1.94536
 20
4.22874
 30
0.0
 40
0
 41
0
  0
VERTEX
  8
0
 10
1.97635
 20
4.1766
 30
0.0
 40
0
 41
0
  0
VERTEX
  8
0
 10
1.98813
 20
4.12354
 30
0.0
 40
0
 41
0
  0
VERTEX
  8
0
 10
1.98813
 20
4.10585
 30
0.0
 40
0
 41
0
  0
VERTEX
  8
0
 10
1.98813
 20
4.08757
 30
0.0
 40
0
 41
0
  0
VERTEX
  8
0
 10
1.97635
 20
4.03271
 30
0.0
 40
0
 41
0
  0
VERTEX
  8
0
 10
1.94536
 20
3.97863
 30
0.0
 40
0
 41
0
  0
VERTEX
  8
0
 10
1.90153
 20
3.94081
 30
0.0
 40
0
 41
0
  0
VERTEX
  8
0
 10
1.85135
 20
3.91639
 30
0.0
 40
0
 41
0
  0
VERTEX
  8
0
 10
1.80111
 20
3.9024
 30
0.0
 40
0
 41
0
  0
VERTEX
  8
0
 10
1.75726
 20
3.896
 30
0.0
 40
0
 41
0
  0
VERTEX
  8
0
 10
1.72629
 20
3.89426
 30
0.0
 40
0
 41
0
  0
VERTEX
  8
0
 10
1.71457
 20
3.89432
 30
0.0
 40
0
 41
0
  0
VERTEX
  8
0
 10
1.71457
 20
3.89432
 30
0.0
 40
0
 41
0
  0
VERTEX
  8
0
 10
1.44624
 20
3.89328
 30
0.0
 40
0
 41
0
  0
VERTEX
  8
0
 10
1.44624
 20
4.30985
 30
0.0
 40
0
 41
0
  0
VERTEX
  8
0
 10
1.71457
 20
4.30985
 30
0.0
 40
0
 41
0
  0
SEQEND
 8
0
  0
POLYLINE
  8
0
 62
     0
 66
     1
 10
0
 20
0
 30
0.0
 70
     1
 40
0.75
 41
0.75
  0
VERTEX
  8
0
 10
1.71457
 20
4.30985
 30
0.0
 40
0.0104167
 41
0.0104167
  0
VERTEX
  8
0
 10
1.71457
 20
4.30985
 30
0.0
 40
0.0104167
 41
0.0104167
  0
VERTEX
  8
0
 10
1.72629
 20
4.30994
 30
0.0
 40
0.0104167
 41
0.0104167
  0
VERTEX
  8
0
 10
1.75726
 20
4.30832
 30
0.0
 40
0.0104167
 41
0.0104167
  0
VERTEX
  8
0
 10
1.80111
 20
4.30219
 30
0.0
 40
0.0104167
 41
0.0104167
  0
VERTEX
  8
0
 10
1.85135
 20
4.28874
 30
0.0
 40
0.0104167
 41
0.0104167
  0
VERTEX
  8
0
 10
1.90153
 20
4.26519
 30
0.0
 40
0.0104167
 41
0.0104167
  0
VERTEX
  8
0
 10
1.94536
 20
4.22874
 30
0.0
 40
0.0104167
 41
0.0104167
  0
VERTEX
  8
0
 10
1.97635
 20
4.1766
 30
0.0
 40
0.0104167
 41
0.0104167
  0
VERTEX
  8
0
 10
1.98813
 20
4.12354
 30
0.0
 40
0.0104167
 41
0.0104167
  0
VERTEX
  8
0
 10
1.98813
 20
4.10585
 30
0.0
 40
0.0104167
 41
0.0104167
  0
VERTEX
  8
0
 10
1.98813
 20
4.08757
 30
0.0
 40
0.0104167
 41
0.0104167
  0
VERTEX
  8
0
 10
1.97635
 20
4.03271
 30
0.0
 40
0.0104167
 41
0.0104167
  0
VERTEX
  8
0
 10
1.94536
 20
3.97863
 30
0.0
 40
0.0104167
 41
0.0104167
  0
VERTEX
  8
0
 10
1.90153
 20
3.94081
 30
0.0
 40
0.0104167
 41
0.0104167
  0
VERTEX
  8
0
 10
1.85135
 20
3.91639
 30
0.0
 40
0.0104167
 41
0.0104167
  0
VERTEX
  8
0
 10
1.80111
 20
3.9024
 30
0.0
 40
0.0104167
 41
0.0104167
  0
VERTEX
  8
0
 10
1.75726
 20
3.896
 30
0.0
 40
0.0104167
 41
0.0104167
  0
VERTEX
  8
0
 10
1.72629
 20
3.89426
 30
0.0
 40
0.0104167
 41
0.0104167
  0
VERTEX
  8
0
 10
1.71457
 20
3.89432
 30
0.0
 40
0.0104167
 41
0.0104167
  0
VERTEX
  8
0
 10
1.71457
 20
3.89432
 30
0.0
 40
0.0104167
 41
0.0104167
  0
VERTEX
  8
0
 10
1.44624
 20
3.89328
 30
0.0
 40
0.0104167
 41
0.0104167
  0
VERTEX
  8
0
 10
1.44624
 20
4.30985
 30
0.0
 40
0.0104167
 41
0.0104167
  0
VERTEX
  8
0
 10
1.71457
 20
4.30985
 30
0.0
 40
0.0104167
 41
0.0104167
  0
SEQEND
 8
0
  0
POLYLINE
  8
0
 62
     7
 66
     1
 10
0
 20
0
 30
0.0
 70
     1
 40
0
 41
0
  0
VERTEX
  8
0
 10
1.33681
 20
4.13465
 30
0.0
 40
0
 41
0
  0
VERTEX
  8
0
 10
1.36838
 20
4.13465
 30
0.0
 40
0
 41
0
  0
VERTEX
  8
0
 10
1.36838
 20
4.06847
 30
0.0
 40
0
 41
0
  0
VERTEX
  8
0
 10
1.33681
 20
4.06847
 30
0.0
 40
0
 41
0
  0
VERTEX
  8
0
 10
1.33681
 20
4.13465
 30
0.0
 40
0
 41
0
  0
SEQEND
 8
0
  0
POLYLINE
  8
0
 62
     0
 66
     1
 10
0
 20
0
 30
0.0
 70
     1
 40
0.75
 41
0.75
  0
VERTEX
  8
0
 10
1.33681
 20
4.13465
 30
0.0
 40
0.0104167
 41
0.0104167
  0
VERTEX
  8
0
 10
1.33681
 20
4.06847
 30
0.0
 40
0.0104167
 41
0.0104167
  0
VERTEX
  8
0
 10
1.36838
 20
4.06847
 30
0.0
 40
0.0104167
 41
0.0104167
  0
VERTEX
  8
0
 10
1.36838
 20
4.13465
 30
0.0
 40
0.0104167
 41
0.0104167
  0
VERTEX
  8
0
 10
1.33681
 20
4.13465
 30
0.0
 40
0.0104167
 41
0.0104167
  0
SEQEND
 8
0
  0
POLYLINE
  8
0
 62
     7
 66
     1
 10
0
 20
0
 30
0.0
 70
     1
 40
0
 41
0
  0
VERTEX
  8
0
 10
1.99333
 20
4.79557
 30
0.0
 40
0
 41
0
  0
VERTEX
  8
0
 10
2.61833
 20
4.79557
 30
0.0
 40
0
 41
0
  0
VERTEX
  8
0
 10
2.61833
 20
4.31651
 30
0.0
 40
0
 41
0
  0
VERTEX
  8
0
 10
1.99333
 20
4.31651
 30
0.0
 40
0
 41
0
  0
VERTEX
  8
0
 10
1.99333
 20
4.79557
 30
0.0
 40
0
 41
0
  0
SEQEND
 8
0
  0
POLYLINE
  8
0
 62
     0
 66
     1
 10
0
 20
0
 30
0.0
 70
     1
 40
0.75
 41
0.75
  0
VERTEX
  8
0
 10
1.99333
 20
4.79557
 30
0.0
 40
0.0104167
 41
0.0104167
  0
VERTEX
  8
0
 10
2.61833
 20
4.79557
 30
0.0
 40
0.0104167
 41
0.0104167
  0
VERTEX
  8
0
 10
2.61833
 20
4.31651
 30
0.0
 40
0.0104167
 41
0.0104167
  0
VERTEX
  8
0
 10
1.99333
 20
4.31651
 30
0.0
 40
0.0104167
 41
0.0104167
  0
VERTEX
  8
0
 10
1.99333
 20
4.79557
 30
0.0
 40
0.0104167
 41
0.0104167
  0
SEQEND
 8
0
  0
POLYLINE
  8
0
 62
     7
 66
     1
 10
0
 20
0
 30
0.0
 70
     1
 40
0
 41
0
  0
VERTEX
  8
0
 10
2.04542
 20
4.69456
 30
0.0
 40
0
 41
0
  0
VERTEX
  8
0
 10
2.56625
 20
4.69456
 30
0.0
 40
0
 41
0
  0
VERTEX
  8
0
 10
2.56625
 20
4.35889
 30
0.0
 40
0
 41
0
  0
VERTEX
  8
0
 10
2.04542
 20
4.35889
 30
0.0
 40
0
 41
0
  0
VERTEX
  8
0
 10
2.04542
 20
4.69456
 30
0.0
 40
0
 41
0
  0
SEQEND
 8
0
  0
POLYLINE
  8
0
 62
     0
 66
     1
 10
0
 20
0
 30
0.0
 70
     1
 40
0.75
 41
0.75
  0
VERTEX
  8
0
 10
2.04542
 20
4.69456
 30
0.0
 40
0.0104167
 41
0.0104167
  0
VERTEX
  8
0
 10
2.56625
 20
4.69456
 30
0.0
 40
0.0104167
 41
0.0104167
  0
VERTEX
  8
0
 10
2.56625
 20
4.35889
 30
0.0
 40
0.0104167
 41
0.0104167
  0
VERTEX
  8
0
 10
2.04542
 20
4.35889
 30
0.0
 40
0.0104167
 41
0.0104167
  0
VERTEX
  8
0
 10
2.04542
 20
4.69456
 30
0.0
 40
0.0104167
 41
0.0104167
  0
SEQEND
 8
0
  0
POLYLINE
  8
0
 62
     7
 66
     1
 10
0
 20
0
 30
0.0
 70
     1
 40
0
 41
0
  0
VERTEX
  8
0
 10
2.34229
 20
4.53851
 30
0.0
 40
0
 41
0
  0
VERTEX
  8
0
 10
2.34229
 20
4.53212
 30
0.0
 40
0
 41
0
  0
VERTEX
  8
0
 10
2.3316
 20
4.51275
 30
0.0
 40
0
 41
0
  0
VERTEX
  8
0
 10
2.31222
 20
4.50206
 30
0.0
 40
0
 41
0
  0
VERTEX
  8
0
 10
2.30583
 20
4.50206
 30
0.0
 40
0
 41
0
  0
VERTEX
  8
0
 10
2.29937
 20
4.50206
 30
0.0
 40
0
 41
0
  0
VERTEX
  8
0
 10
2.28
 20
4.51275
 30
0.0
 40
0
 41
0
  0
VERTEX
  8
0
 10
2.26938
 20
4.53212
 30
0.0
 40
0
 41
0
  0
VERTEX
  8
0
 10
2.26938
 20
4.53851
 30
0.0
 40
0
 41
0
  0
VERTEX
  8
0
 10
2.26938
 20
4.54497
 30
0.0
 40
0
 41
0
  0
VERTEX
  8
0
 10
2.28
 20
4.56435
 30
0.0
 40
0
 41
0
  0
VERTEX
  8
0
 10
2.29937
 20
4.57497
 30
0.0
 40
0
 41
0
  0
VERTEX
  8
0
 10
2.30583
 20
4.57497
 30
0.0
 40
0
 41
0
  0
VERTEX
  8
0
 10
2.31222
 20
4.57497
 30
0.0
 40
0
 41
0
  0
VERTEX
  8
0
 10
2.3316
 20
4.56435
 30
0.0
 40
0
 41
0
  0
VERTEX
  8
0
 10
2.34229
 20
4.54497
 30
0.0
 40
0
 41
0
  0
VERTEX
  8
0
 10
2.34229
 20
4.53851
 30
0.0
 40
0
 41
0
  0
SEQEND
 8
0
  0
POLYLINE
  8
0
 62
     0
 66
     1
 10
0
 20
0
 30
0.0
 70
     1
 40
0.6
 41
0.6
  0
VERTEX
  8
0
 10
2.34229
 20
4.53851
 30
0.0
 40
0.00833333
 41
0.00833333
  0
VERTEX
  8
0
 10
2.34229
 20
4.53212
 30
0.0
 40
0.00833333
 41
0.00833333
  0
VERTEX
  8
0
 10
2.3316
 20
4.51275
 30
0.0
 40
0.00833333
 41
0.00833333
  0
VERTEX
  8
0
 10
2.31222
 20
4.50206
 30
0.0
 40
0.00833333
 41
0.00833333
  0
VERTEX
  8
0
 10
2.30583
 20
4.50206
 30
0.0
 40
0.00833333
 41
0.00833333
  0
VERTEX
  8
0
 10
2.29937
 20
4.50206
 30
0.0
 40
0.00833333
 41
0.00833333
  0
VERTEX
  8
0
 10
2.28
 20
4.51275
 30
0.0
 40
0.00833333
 41
0.00833333
  0
VERTEX
  8
0
 10
2.26938
 20
4.53212
 30
0.0
 40
0.00833333
 41
0.00833333
  0
VERTEX
  8
0
 10
2.26938
 20
4.53851
 30
0.0
 40
0.00833333
 41
0.00833333
  0
VERTEX
  8
0
 10
2.26938
 20
4.54497
 30
0.0
 40
0.00833333
 41
0.00833333
  0
VERTEX
  8
0
 10
2.28
 20
4.56435
 30
0.0
 40
0.00833333
 41
0.00833333
  0
VERTEX
  8
0
 10
2.29937
 20
4.57497
 30
0.0
 40
0.00833333
 41
0.00833333
  0
VERTEX
  8
0
 10
2.30583
 20
4.57497
 30
0.0
 40
0.00833333
 41
0.00833333
  0
VERTEX
  8
0
 10
2.31222
 20
4.57497
 30
0.0
 40
0.00833333
 41
0.00833333
  0
VERTEX
  8
0
 10
2.3316
 20
4.56435
 30
0.0
 40
0.00833333
 41
0.00833333
  0
VERTEX
  8
0
 10
2.34229
 20
4.54497
 30
0.0
 40
0.00833333
 41
0.00833333
  0
VERTEX
  8
0
 10
2.34229
 20
4.53851
 30
0.0
 40
0.00833333
 41
0.00833333
  0
SEQEND
 8
0
  0
POLYLINE
  8
0
 62
     7
 66
     1
 10
0
 20
0
 30
0.0
 70
     1
 40
0
 41
0
  0
VERTEX
  8
0
 10
2.32667
 20
4.53851
 30
0.0
 40
0
 41
0
  0
VERTEX
  8
0
 10
2.32667
 20
4.53489
 30
0.0
 40
0
 41
0
  0
VERTEX
  8
0
 10
2.32053
 20
4.52382
 30
0.0
 40
0
 41
0
  0
VERTEX
  8
0
 10
2.30946
 20
4.51768
 30
0.0
 40
0
 41
0
  0
VERTEX
  8
0
 10
2.30583
 20
4.51768
 30
0.0
 40
0
 41
0
  0
VERTEX
  8
0
 10
2.30214
 20
4.51768
 30
0.0
 40
0
 41
0
  0
VERTEX
  8
0
 10
2.29107
 20
4.52382
 30
0.0
 40
0
 41
0
  0
VERTEX
  8
0
 10
2.285
 20
4.53489
 30
0.0
 40
0
 41
0
  0
VERTEX
  8
0
 10
2.285
 20
4.53851
 30
0.0
 40
0
 41
0
  0
VERTEX
  8
0
 10
2.285
 20
4.54221
 30
0.0
 40
0
 41
0
  0
VERTEX
  8
0
 10
2.29107
 20
4.55328
 30
0.0
 40
0
 41
0
  0
VERTEX
  8
0
 10
2.30214
 20
4.55935
 30
0.0
 40
0
 41
0
  0
VERTEX
  8
0
 10
2.30583
 20
4.55935
 30
0.0
 40
0
 41
0
  0
VERTEX
  8
0
 10
2.30946
 20
4.55935
 30
0.0
 40
0
 41
0
  0
VERTEX
  8
0
 10
2.32053
 20
4.55328
 30
0.0
 40
0
 41
0
  0
VERTEX
  8
0
 10
2.32667
 20
4.54221
 30
0.0
 40
0
 41
0
  0
VERTEX
  8
0
 10
2.32667
 20
4.53851
 30
0.0
 40
0
 41
0
  0
SEQEND
 8
0
  0
POLYLINE
  8
0
 62
     0
 66
     1
 10
0
 20
0
 30
0.0
 70
     1
 40
0.6
 41
0.6
  0
VERTEX
  8
0
 10
2.32667
 20
4.53851
 30
0.0
 40
0.00833333
 41
0.00833333
  0
VERTEX
  8
0
 10
2.32667
 20
4.53489
 30
0.0
 40
0.00833333
 41
0.00833333
  0
VERTEX
  8
0
 10
2.32053
 20
4.52382
 30
0.0
 40
0.00833333
 41
0.00833333
  0
VERTEX
  8
0
 10
2.30946
 20
4.51768
 30
0.0
 40
0.00833333
 41
0.00833333
  0
VERTEX
  8
0
 10
2.30583
 20
4.51768
 30
0.0
 40
0.00833333
 41
0.00833333
  0
VERTEX
  8
0
 10
2.30214
 20
4.51768
 30
0.0
 40
0.00833333
 41
0.00833333
  0
VERTEX
  8
0
 10
2.29107
 20
4.52382
 30
0.0
 40
0.00833333
 41
0.00833333
  0
VERTEX
  8
0
 10
2.285
 20
4.53489
 30
0.0
 40
0.00833333
 41
0.00833333
  0
VERTEX
  8
0
 10
2.285
 20
4.53851
 30
0.0
 40
0.00833333
 41
0.00833333
  0
VERTEX
  8
0
 10
2.285
 20
4.54221
 30
0.0
 40
0.00833333
 41
0.00833333
  0
VERTEX
  8
0
 10
2.29107
 20
4.55328
 30
0.0
 40
0.00833333
 41
0.00833333
  0
VERTEX
  8
0
 10
2.30214
 20
4.55935
 30
0.0
 40
0.00833333
 41
0.00833333
  0
VERTEX
  8
0
 10
2.30583
 20
4.55935
 30
0.0
 40
0.00833333
 41
0.00833333
  0
VERTEX
  8
0
 10
2.30946
 20
4.55935
 30
0.0
 40
0.00833333
 41
0.00833333
  0
VERTEX
  8
0
 10
2.32053
 20
4.55328
 30
0.0
 40
0.00833333
 41
0.00833333
  0
VERTEX
  8
0
 10
2.32667
 20
4.54221
 30
0.0
 40
0.00833333
 41
0.00833333
  0
VERTEX
  8
0
 10
2.32667
 20
4.53851
 30
0.0
 40
0.00833333
 41
0.00833333
  0
SEQEND
 8
0
  0
POLYLINE
  8
0
 62
     7
 66
     1
 10
0
 20
0
 30
0.0
 70
     1
 40
0
 41
0
  0
VERTEX
  8
0
 10
2.27458
 20
4.75569
 30
0.0
 40
0
 41
0
  0
VERTEX
  8
0
 10
2.33708
 20
4.75569
 30
0.0
 40
0
 41
0
  0
VERTEX
  8
0
 10
2.33708
 20
4.60986
 30
0.0
 40
0
 41
0
  0
VERTEX
  8
0
 10
2.27458
 20
4.60986
 30
0.0
 40
0
 41
0
  0
VERTEX
  8
0
 10
2.27458
 20
4.75569
 30
0.0
 40
0
 41
0
  0
SEQEND
 8
0
  0
POLYLINE
  8
0
 62
     0
 66
     1
 10
0
 20
0
 30
0.0
 70
     1
 40
0.75
 41
0.75
  0
VERTEX
  8
0
 10
2.27458
 20
4.75569
 30
0.0
 40
0.0104167
 41
0.0104167
  0
VERTEX
  8
0
 10
2.33708
 20
4.75569
 30
0.0
 40
0.0104167
 41
0.0104167
  0
VERTEX
  8
0
 10
2.33708
 20
4.60986
 30
0.0
 40
0.0104167
 41
0.0104167
  0
VERTEX
  8
0
 10
2.27458
 20
4.60986
 30
0.0
 40
0.0104167
 41
0.0104167
  0
VERTEX
  8
0
 10
2.27458
 20
4.75569
 30
0.0
 40
0.0104167
 41
0.0104167
  0
SEQEND
 8
0
  0
POLYLINE
  8
0
 62
     0
 66
     1
 10
0
 20
0
 30
0.0
 70
     1
 40
0.75
 41
0.75
  0
VERTEX
  8
0
 10
1.99333
 20
4.79557
 30
0.0
 40
0.0104167
 41
0.0104167
  0
VERTEX
  8
0
 10
2.61833
 20
4.79557
 30
0.0
 40
0.0104167
 41
0.0104167
  0
VERTEX
  8
0
 10
2.61833
 20
4.55089
 30
0.0
 40
0.0104167
 41
0.0104167
  0
VERTEX
  8
0
 10
1.99333
 20
4.55089
 30
0.0
 40
0.0104167
 41
0.0104167
  0
VERTEX
  8
0
 10
1.99333
 20
4.79557
 30
0.0
 40
0.0104167
 41
0.0104167
  0
SEQEND
 8
0
  0
POLYLINE
  8
0
 62
     7
 66
     1
 10
0
 20
0
 30
0.0
 70
     1
 40
0
 41
0
  0
VERTEX
  8
0
 10
2.72493
 20
4.79525
 30
0.0
 40
0
 41
0
  0
VERTEX
  8
0
 10
3.34993
 20
4.79525
 30
0.0
 40
0
 41
0
  0
VERTEX
  8
0
 10
3.34993
 20
4.17025
 30
0.0
 40
0
 41
0
  0
VERTEX
  8
0
 10
2.72493
 20
4.17025
 30
0.0
 40
0
 41
0
  0
VERTEX
  8
0
 10
2.72493
 20
4.79525
 30
0.0
 40
0
 41
0
  0
SEQEND
 8
0
  0
POLYLINE
  8
0
 62
     0
 66
     1
 10
0
 20
0
 30
0.0
 70
     1
 40
0.75
 41
0.75
  0
VERTEX
  8
0
 10
2.72493
 20
4.79525
 30
0.0
 40
0.0104167
 41
0.0104167
  0
VERTEX
  8
0
 10
3.34993
 20
4.79525
 30
0.0
 40
0.0104167
 41
0.0104167
  0
VERTEX
  8
0
 10
3.34993
 20
4.17025
 30
0.0
 40
0.0104167
 41
0.0104167
  0
VERTEX
  8
0
 10
2.72493
 20
4.17025
 30
0.0
 40
0.0104167
 41
0.0104167
  0
VERTEX
  8
0
 10
2.72493
 20
4.79525
 30
0.0
 40
0.0104167
 41
0.0104167
  0
SEQEND
 8
0
  0
POLYLINE
  8
0
 62
     0
 66
     1
 10
0
 20
0
 30
0.0
 40
0.75
 41
0.75
  0
VERTEX
  8
0
 10
2.72493
 20
4.79525
 30
0.0
 40
0.0104167
 41
0.0104167
  0
VERTEX
  8
0
 10
3.03847
 20
4.38064
 30
0.0
 40
0.0104167
 41
0.0104167
  0
VERTEX
  8
0
 10
3.03847
 20
4.59315
 30
0.0
 40
0.0104167
 41
0.0104167
  0
VERTEX
  8
0
 10
3.34885
 20
4.17025
 30
0.0
 40
0.0104167
 41
0.0104167
  0
SEQEND
 8
0
  0
POLYLINE
  8
0
 62
     7
 66
     1
 10
0
 20
0
 30
0.0
 70
     1
 40
0
 41
0
  0
VERTEX
  8
0
 10
3.3591
 20
5.48768
 30
0.0
 40
0
 41
0
  0
VERTEX
  8
0
 10
3.97493
 20
5.48768
 30
0.0
 40
0
 41
0
  0
VERTEX
  8
0
 10
3.97493
 20
4.90072
 30
0.0
 40
0
 41
0
  0
VERTEX
  8
0
 10
3.3591
 20
4.90072
 30
0.0
 40
0
 41
0
  0
VERTEX
  8
0
 10
3.3591
 20
5.48768
 30
0.0
 40
0
 41
0
  0
SEQEND
 8
0
  0
POLYLINE
  8
0
 62
     0
 66
     1
 10
0
 20
0
 30
0.0
 70
     1
 40
0.75
 41
0.75
  0
VERTEX
  8
0
 10
3.3591
 20
5.48768
 30
0.0
 40
0.0104167
 41
0.0104167
  0
VERTEX
  8
0
 10
3.97493
 20
5.48768
 30
0.0
 40
0.0104167
 41
0.0104167
  0
VERTEX
  8
0
 10
3.97493
 20
4.90072
 30
0.0
 40
0.0104167
 41
0.0104167
  0
VERTEX
  8
0
 10
3.3591
 20
4.90072
 30
0.0
 40
0.0104167
 41
0.0104167
  0
VERTEX
  8
0
 10
3.3591
 20
5.48768
 30
0.0
 40
0.0104167
 41
0.0104167
  0
SEQEND
 8
0
  0
POLYLINE
  8
0
 62
     7
 66
     1
 10
0
 20
0
 30
0.0
 70
     1
 40
0
 41
0
  0
VERTEX
  8
0
 10
2.56011
 20
5.4866
 30
0.0
 40
0
 41
0
  0
VERTEX
  8
0
 10
3.35906
 20
5.4866
 30
0.0
 40
0
 41
0
  0
VERTEX
  8
0
 10
3.35906
 20
4.90283
 30
0.0
 40
0
 41
0
  0
VERTEX
  8
0
 10
2.56011
 20
4.90283
 30
0.0
 40
0
 41
0
  0
VERTEX
  8
0
 10
2.56011
 20
5.4866
 30
0.0
 40
0
 41
0
  0
SEQEND
 8
0
  0
POLYLINE
  8
0
 62
     0
 66
     1
 10
0
 20
0
 30
0.0
 70
     1
 40
0.75
 41
0.75
  0
VERTEX
  8
0
 10
2.56011
 20
5.4866
 30
0.0
 40
0.0104167
 41
0.0104167
  0
VERTEX
  8
0
 10
3.35906
 20
5.4866
 30
0.0
 40
0.0104167
 41
0.0104167
  0
VERTEX
  8
0
 10
3.35906
 20
4.90283
 30
0.0
 40
0.0104167
 41
0.0104167
  0
VERTEX
  8
0
 10
2.56011
 20
4.90283
 30
0.0
 40
0.0104167
 41
0.0104167
  0
VERTEX
  8
0
 10
2.56011
 20
5.4866
 30
0.0
 40
0.0104167
 41
0.0104167
  0
SEQEND
 8
0
  0
POLYLINE
  8
0
 62
     253
 66
     1
 10
0
 20
0
 30
0.0
 40
0.75
 41
0.75
  0
VERTEX
  8
0
 10
3.35906
 20
5.19472
 30
0.0
 40
0.0104167
 41
0.0104167
  0
VERTEX
  8
0
 10
2.56017
 20
5.19472
 30
0.0
 40
0.0104167
 41
0.0104167
  0
SEQEND
 8
0
  0
POLYLINE
  8
0
 62
     7
 66
     1
 10
0
 20
0
 30
0.0
 70
     1
 40
0
 41
0
  0
VERTEX
  8
0
 10
1.76118
 20
5.4866
 30
0.0
 40
0
 41
0
  0
VERTEX
  8
0
 10
2.56017
 20
5.4866
 30
0.0
 40
0
 41
0
  0
VERTEX
  8
0
 10
2.56017
 20
4.90283
 30
0.0
 40
0
 41
0
  0
VERTEX
  8
0
 10
1.76118
 20
4.90283
 30
0.0
 40
0
 41
0
  0
VERTEX
  8
0
 10
1.76118
 20
5.4866
 30
0.0
 40
0
 41
0
  0
SEQEND
 8
0
  0
POLYLINE
  8
0
 62
     0
 66
     1
 10
0
 20
0
 30
0.0
 70
     1
 40
0.75
 41
0.75
  0
VERTEX
  8
0
 10
1.76118
 20
5.4866
 30
0.0
 40
0.0104167
 41
0.0104167
  0
VERTEX
  8
0
 10
2.56017
 20
5.4866
 30
0.0
 40
0.0104167
 41
0.0104167
  0
VERTEX
  8
0
 10
2.56017
 20
4.90283
 30
0.0
 40
0.0104167
 41
0.0104167
  0
VERTEX
  8
0
 10
1.76118
 20
4.90283
 30
0.0
 40
0.0104167
 41
0.0104167
  0
VERTEX
  8
0
 10
1.76118
 20
5.4866
 30
0.0
 40
0.0104167
 41
0.0104167
  0
SEQEND
 8
0
  0
POLYLINE
  8
0
 62
     253
 66
     1
 10
0
 20
0
 30
0.0
 40
0.75
 41
0.75
  0
VERTEX
  8
0
 10
2.56017
 20
5.19472
 30
0.0
 40
0.0104167
 41
0.0104167
  0
VERTEX
  8
0
 10
1.76124
 20
5.19472
 30
0.0
 40
0.0104167
 41
0.0104167
  0
SEQEND
 8
0
  0
POLYLINE
  8
0
 62
     7
 66
     1
 10
0
 20
0
 30
0.0
 70
     1
 40
0
 41
0
  0
VERTEX
  8
0
 10
1.2532
 20
5.48714
 30
0.0
 40
0
 41
0
  0
VERTEX
  8
0
 10
1.76118
 20
5.48714
 30
0.0
 40
0
 41
0
  0
VERTEX
  8
0
 10
1.76118
 20
4.90201
 30
0.0
 40
0
 41
0
  0
VERTEX
  8
0
 10
1.2532
 20
4.90201
 30
0.0
 40
0
 41
0
  0
VERTEX
  8
0
 10
1.2532
 20
5.48714
 30
0.0
 40
0
 41
0
  0
SEQEND
 8
0
  0
POLYLINE
  8
0
 62
     0
 66
     1
 10
0
 20
0
 30
0.0
 70
     1
 40
0.75
 41
0.75
  0
VERTEX
  8
0
 10
1.2532
 20
5.48714
 30
0.0
 40
0.0104167
 41
0.0104167
  0
VERTEX
  8
0
 10
1.76118
 20
5.48714
 30
0.0
 40
0.0104167
 41
0.0104167
  0
VERTEX
  8
0
 10
1.76118
 20
4.90201
 30
0.0
 40
0.0104167
 41
0.0104167
  0
VERTEX
  8
0
 10
1.2532
 20
4.90201
 30
0.0
 40
0.0104167
 41
0.0104167
  0
VERTEX
  8
0
 10
1.2532
 20
5.48714
 30
0.0
 40
0.0104167
 41
0.0104167
  0
SEQEND
 8
0
  0
POLYLINE
  8
0
 62
     7
 66
     1
 10
0
 20
0
 30
0.0
 70
     1
 40
0
 41
0
  0
VERTEX
  8
0
 10
5.18896
 20
4.56549
 30
0.0
 40
0
 41
0
  0
VERTEX
  8
0
 10
5.81396
 20
4.56549
 30
0.0
 40
0
 41
0
  0
VERTEX
  8
0
 10
5.81396
 20
2.68528
 30
0.0
 40
0
 41
0
  0
VERTEX
  8
0
 10
5.18896
 20
2.68528
 30
0.0
 40
0
 41
0
  0
VERTEX
  8
0
 10
5.18896
 20
4.56549
 30
0.0
 40
0
 41
0
  0
SEQEND
 8
0
  0
POLYLINE
  8
0
 62
     0
 66
     1
 10
0
 20
0
 30
0.0
 70
     1
 40
0.75
 41
0.75
  0
VERTEX
  8
0
 10
5.18896
 20
4.56549
 30
0.0
 40
0.0104167
 41
0.0104167
  0
VERTEX
  8
0
 10
5.18896
 20
2.68528
 30
0.0
 40
0.0104167
 41
0.0104167
  0
VERTEX
  8
0
 10
5.81396
 20
2.68528
 30
0.0
 40
0.0104167
 41
0.0104167
  0
VERTEX
  8
0
 10
5.81396
 20
4.56549
 30
0.0
 40
0.0104167
 41
0.0104167
  0
VERTEX
  8
0
 10
5.18896
 20
4.56549
 30
0.0
 40
0.0104167
 41
0.0104167
  0
SEQEND
 8
0
  0
POLYLINE
  8
0
 62
     0
 66
     1
 10
0
 20
0
 30
0.0
 70
     1
 40
0.75
 41
0.75
  0
VERTEX
  8
0
 10
5.19254
 20
4.56549
 30
0.0
 40
0.0104167
 41
0.0104167
  0
VERTEX
  8
0
 10
5.19254
 20
2.68528
 30
0.0
 40
0.0104167
 41
0.0104167
  0
VERTEX
  8
0
 10
5.50504
 20
2.68528
 30
0.0
 40
0.0104167
 41
0.0104167
  0
VERTEX
  8
0
 10
5.50504
 20
4.56549
 30
0.0
 40
0.0104167
 41
0.0104167
  0
VERTEX
  8
0
 10
5.19254
 20
4.56549
 30
0.0
 40
0.0104167
 41
0.0104167
  0
SEQEND
 8
0
  0
POLYLINE
  8
0
 62
     7
 66
     1
 10
0
 20
0
 30
0.0
 70
     1
 40
0
 41
0
  0
VERTEX
  8
0
 10
5.18539
 20
1.69515
 30
0.0
 40
0
 41
0
  0
VERTEX
  8
0
 10
5.81039
 20
1.69515
 30
0.0
 40
0
 41
0
  0
VERTEX
  8
0
 10
5.81039
 20
1.14345
 30
0.0
 40
0
 41
0
  0
VERTEX
  8
0
 10
5.18539
 20
1.14345
 30
0.0
 40
0
 41
0
  0
VERTEX
  8
0
 10
5.18539
 20
1.69515
 30
0.0
 40
0
 41
0
  0
SEQEND
 8
0
  0
POLYLINE
  8
0
 62
     0
 66
     1
 10
0
 20
0
 30
0.0
 70
     1
 40
0.75
 41
0.75
  0
VERTEX
  8
0
 10
5.18539
 20
1.69515
 30
0.0
 40
0.0104167
 41
0.0104167
  0
VERTEX
  8
0
 10
5.81039
 20
1.69515
 30
0.0
 40
0.0104167
 41
0.0104167
  0
VERTEX
  8
0
 10
5.81039
 20
1.14345
 30
0.0
 40
0.0104167
 41
0.0104167
  0
VERTEX
  8
0
 10
5.18539
 20
1.14345
 30
0.0
 40
0.0104167
 41
0.0104167
  0
VERTEX
  8
0
 10
5.18539
 20
1.69515
 30
0.0
 40
0.0104167
 41
0.0104167
  0
SEQEND
 8
0
  0
POLYLINE
  8
0
 62
     0
 66
     1
 10
0
 20
0
 30
0.0
 40
0.75
 41
0.75
  0
VERTEX
  8
0
 10
5.81039
 20
1.14345
 30
0.0
 40
0.0104167
 41
0.0104167
  0
VERTEX
  8
0
 10
5.49685
 20
1.50944
 30
0.0
 40
0.0104167
 41
0.0104167
  0
VERTEX
  8
0
 10
5.49685
 20
1.32183
 30
0.0
 40
0.0104167
 41
0.0104167
  0
VERTEX
  8
0
 10
5.18647
 20
1.69515
 30
0.0
 40
0.0104167
 41
0.0104167
  0
SEQEND
 8
0
  0
POLYLINE
  8
0
 62
     7
 66
     1
 10
0
 20
0
 30
0.0
 70
     1
 40
0
 41
0
  0
VERTEX
  8
0
 10
5.81039
 20
1.69288
 30
0.0
 40
0
 41
0
  0
VERTEX
  8
0
 10
6.4094
 20
1.69288
 30
0.0
 40
0
 41
0
  0
VERTEX
  8
0
 10
6.4094
 20
1.14301
 30
0.0
 40
0
 41
0
  0
VERTEX
  8
0
 10
5.81039
 20
1.14301
 30
0.0
 40
0
 41
0
  0
VERTEX
  8
0
 10
5.81039
 20
1.69288
 30
0.0
 40
0
 41
0
  0
SEQEND
 8
0
  0
POLYLINE
  8
0
 62
     0
 66
     1
 10
0
 20
0
 30
0.0
 70
     1
 40
0.7188
 41
0.7188
  0
VERTEX
  8
0
 10
5.81039
 20
1.69288
 30
0.0
 40
0.00998333
 41
0.00998333
  0
VERTEX
  8
0
 10
6.4094
 20
1.69288
 30
0.0
 40
0.00998333
 41
0.00998333
  0
VERTEX
  8
0
 10
6.4094
 20
1.14301
 30
0.0
 40
0.00998333
 41
0.00998333
  0
VERTEX
  8
0
 10
5.81039
 20
1.14301
 30
0.0
 40
0.00998333
 41
0.00998333
  0
VERTEX
  8
0
 10
5.81039
 20
1.69288
 30
0.0
 40
0.00998333
 41
0.00998333
  0
SEQEND
 8
0
  0
POLYLINE
  8
0
 62
     0
 66
     1
 10
0
 20
0
 30
0.0
 40
0.7188
 41
0.7188
  0
VERTEX
  8
0
 10
6.4094
 20
1.14301
 30
0.0
 40
0.00998333
 41
0.00998333
  0
VERTEX
  8
0
 10
6.10992
 20
1.48301
 30
0.0
 40
0.00998333
 41
0.00998333
  0
VERTEX
  8
0
 10
6.10992
 20
1.31803
 30
0.0
 40
0.00998333
 41
0.00998333
  0
VERTEX
  8
0
 10
5.81039
 20
1.65896
 30
0.0
 40
0.00998333
 41
0.00998333
  0
SEQEND
 8
0
  0
POLYLINE
  8
0
 62
     7
 66
     1
 10
0
 20
0
 30
0.0
 70
     1
 40
0
 41
0
  0
VERTEX
  8
0
 10
5.81039
 20
1.69288
 30
0.0
 40
0
 41
0
  0
VERTEX
  8
0
 10
6.4094
 20
1.69288
 30
0.0
 40
0
 41
0
  0
VERTEX
  8
0
 10
6.4094
 20
1.65619
 30
0.0
 40
0
 41
0
  0
VERTEX
  8
0
 10
5.81039
 20
1.65619
 30
0.0
 40
0
 41
0
  0
VERTEX
  8
0
 10
5.81039
 20
1.69288
 30
0.0
 40
0
 41
0
  0
SEQEND
 8
0
  0
POLYLINE
  8
0
 62
     0
 66
     1
 10
0
 20
0
 30
0.0
 70
     1
 40
0.7188
 41
0.7188
  0
VERTEX
  8
0
 10
5.81039
 20
1.69288
 30
0.0
 40
0.00998333
 41
0.00998333
  0
VERTEX
  8
0
 10
6.4094
 20
1.69288
 30
0.0
 40
0.00998333
 41
0.00998333
  0
VERTEX
  8
0
 10
6.4094
 20
1.65619
 30
0.0
 40
0.00998333
 41
0.00998333
  0
VERTEX
  8
0
 10
5.81039
 20
1.65619
 30
0.0
 40
0.00998333
 41
0.00998333
  0
VERTEX
  8
0
 10
5.81039
 20
1.69288
 30
0.0
 40
0.00998333
 41
0.00998333
  0
SEQEND
 8
0
  0
POLYLINE
  8
0
 62
     7
 66
     1
 10
0
 20
0
 30
0.0
 70
     1
 40
0
 41
0
  0
VERTEX
  8
0
 10
6.4094
 20
1.69331
 30
0.0
 40
0
 41
0
  0
VERTEX
  8
0
 10
7.00233
 20
1.69331
 30
0.0
 40
0
 41
0
  0
VERTEX
  8
0
 10
7.00233
 20
4.56164
 30
0.0
 40
0
 41
0
  0
VERTEX
  8
0
 10
7.61285
 20
4.56164
 30
0.0
 40
0
 41
0
  0
VERTEX
  8
0
 10
7.61469
 20
1.14817
 30
0.0
 40
0
 41
0
  0
VERTEX
  8
0
 10
6.4094
 20
1.14307
 30
0.0
 40
0
 41
0
  0
VERTEX
  8
0
 10
6.4094
 20
1.69331
 30
0.0
 40
0
 41
0
  0
SEQEND
 8
0
  0
POLYLINE
  8
0
 62
     0
 66
     1
 10
0
 20
0
 30
0.0
 70
     1
 40
0.75
 41
0.75
  0
VERTEX
  8
0
 10
6.4094
 20
1.69331
 30
0.0
 40
0.0104167
 41
0.0104167
  0
VERTEX
  8
0
 10
7.00233
 20
1.69331
 30
0.0
 40
0.0104167
 41
0.0104167
  0
VERTEX
  8
0
 10
7.00233
 20
4.56164
 30
0.0
 40
0.0104167
 41
0.0104167
  0
VERTEX
  8
0
 10
7.61285
 20
4.56164
 30
0.0
 40
0.0104167
 41
0.0104167
  0
VERTEX
  8
0
 10
7.61469
 20
1.14817
 30
0.0
 40
0.0104167
 41
0.0104167
  0
VERTEX
  8
0
 10
6.4094
 20
1.14307
 30
0.0
 40
0.0104167
 41
0.0104167
  0
VERTEX
  8
0
 10
6.4094
 20
1.69331
 30
0.0
 40
0.0104167
 41
0.0104167
  0
SEQEND
 8
0
  0
POLYLINE
  8
0
 62
     7
 66
     1
 10
0
 20
0
 30
0.0
 70
     1
 40
0
 41
0
  0
VERTEX
  8
0
 10
6.99972
 20
3.89046
 30
0.0
 40
0
 41
0
  0
VERTEX
  8
0
 10
7.60856
 20
3.89046
 30
0.0
 40
0
 41
0
  0
VERTEX
  8
0
 10
7.60856
 20
3.30713
 30
0.0
 40
0
 41
0
  0
VERTEX
  8
0
 10
6.99972
 20
3.30713
 30
0.0
 40
0
 41
0
  0
VERTEX
  8
0
 10
6.99972
 20
3.89046
 30
0.0
 40
0
 41
0
  0
SEQEND
 8
0
  0
POLYLINE
  8
0
 62
     0
 66
     1
 10
0
 20
0
 30
0.0
 70
     1
 40
0.75
 41
0.75
  0
VERTEX
  8
0
 10
6.99972
 20
3.89046
 30
0.0
 40
0.0104167
 41
0.0104167
  0
VERTEX
  8
0
 10
6.99972
 20
3.30713
 30
0.0
 40
0.0104167
 41
0.0104167
  0
VERTEX
  8
0
 10
7.60856
 20
3.30713
 30
0.0
 40
0.0104167
 41
0.0104167
  0
VERTEX
  8
0
 10
7.60856
 20
3.89046
 30
0.0
 40
0.0104167
 41
0.0104167
  0
VERTEX
  8
0
 10
6.99972
 20
3.89046
 30
0.0
 40
0.0104167
 41
0.0104167
  0
SEQEND
 8
0
  0
POLYLINE
  8
0
 62
     7
 66
     1
 10
0
 20
0
 30
0.0
 70
     1
 40
0
 41
0
  0
VERTEX
  8
0
 10
7.45574
 20
3.66129
 30
0.0
 40
0
 41
0
  0
VERTEX
  8
0
 10
7.4476
 20
3.66129
 30
0.0
 40
0
 41
0
  0
VERTEX
  8
0
 10
7.42324
 20
3.66786
 30
0.0
 40
0
 41
0
  0
VERTEX
  8
0
 10
7.39675
 20
3.68571
 30
0.0
 40
0
 41
0
  0
VERTEX
  8
0
 10
7.3789
 20
3.71218
 30
0.0
 40
0
 41
0
  0
VERTEX
  8
0
 10
7.3724
 20
3.73654
 30
0.0
 40
0
 41
0
  0
VERTEX
  8
0
 10
7.3724
 20
3.74463
 30
0.0
 40
0
 41
0
  0
VERTEX
  8
0
 10
7.3724
 20
3.75276
 30
0.0
 40
0
 41
0
  0
VERTEX
  8
0
 10
7.3789
 20
3.77707
 30
0.0
 40
0
 41
0
  0
VERTEX
  8
0
 10
7.39675
 20
3.80354
 30
0.0
 40
0
 41
0
  0
VERTEX
  8
0
 10
7.42324
 20
3.82146
 30
0.0
 40
0
 41
0
  0
VERTEX
  8
0
 10
7.4476
 20
3.82796
 30
0.0
 40
0
 41
0
  0
VERTEX
  8
0
 10
7.45574
 20
3.82796
 30
0.0
 40
0
 41
0
  0
VERTEX
  8
0
 10
7.46382
 20
3.82796
 30
0.0
 40
0
 41
0
  0
VERTEX
  8
0
 10
7.48813
 20
3.82146
 30
0.0
 40
0
 41
0
  0
VERTEX
  8
0
 10
7.51465
 20
3.80354
 30
0.0
 40
0
 41
0
  0
VERTEX
  8
0
 10
7.5325
 20
3.77707
 30
0.0
 40
0
 41
0
  0
VERTEX
  8
0
 10
7.53907
 20
3.75276
 30
0.0
 40
0
 41
0
  0
VERTEX
  8
0
 10
7.53907
 20
3.74463
 30
0.0
 40
0
 41
0
  0
VERTEX
  8
0
 10
7.53907
 20
3.73654
 30
0.0
 40
0
 41
0
  0
VERTEX
  8
0
 10
7.5325
 20
3.71218
 30
0.0
 40
0
 41
0
  0
VERTEX
  8
0
 10
7.51465
 20
3.68571
 30
0.0
 40
0
 41
0
  0
VERTEX
  8
0
 10
7.48813
 20
3.66786
 30
0.0
 40
0
 41
0
  0
VERTEX
  8
0
 10
7.46382
 20
3.66129
 30
0.0
 40
0
 41
0
  0
VERTEX
  8
0
 10
7.45574
 20
3.66129
 30
0.0
 40
0
 41
0
  0
SEQEND
 8
0
  0
POLYLINE
  8
0
 62
     0
 66
     1
 10
0
 20
0
 30
0.0
 70
     1
 40
0.75
 41
0.75
  0
VERTEX
  8
0
 10
7.45574
 20
3.66129
 30
0.0
 40
0.0104167
 41
0.0104167
  0
VERTEX
  8
0
 10
7.4476
 20
3.66129
 30
0.0
 40
0.0104167
 41
0.0104167
  0
VERTEX
  8
0
 10
7.42324
 20
3.66786
 30
0.0
 40
0.0104167
 41
0.0104167
  0
VERTEX
  8
0
 10
7.39675
 20
3.68571
 30
0.0
 40
0.0104167
 41
0.0104167
  0
VERTEX
  8
0
 10
7.3789
 20
3.71218
 30
0.0
 40
0.0104167
 41
0.0104167
  0
VERTEX
  8
0
 10
7.3724
 20
3.73654
 30
0.0
 40
0.0104167
 41
0.0104167
  0
VERTEX
  8
0
 10
7.3724
 20
3.74463
 30
0.0
 40
0.0104167
 41
0.0104167
  0
VERTEX
  8
0
 10
7.3724
 20
3.75276
 30
0.0
 40
0.0104167
 41
0.0104167
  0
VERTEX
  8
0
 10
7.3789
 20
3.77707
 30
0.0
 40
0.0104167
 41
0.0104167
  0
VERTEX
  8
0
 10
7.39675
 20
3.80354
 30
0.0
 40
0.0104167
 41
0.0104167
  0
VERTEX
  8
0
 10
7.42324
 20
3.82146
 30
0.0
 40
0.0104167
 41
0.0104167
  0
VERTEX
  8
0
 10
7.4476
 20
3.82796
 30
0.0
 40
0.0104167
 41
0.0104167
  0
VERTEX
  8
0
 10
7.45574
 20
3.82796
 30
0.0
 40
0.0104167
 41
0.0104167
  0
VERTEX
  8
0
 10
7.46382
 20
3.82796
 30
0.0
 40
0.0104167
 41
0.0104167
  0
VERTEX
  8
0
 10
7.48813
 20
3.82146
 30
0.0
 40
0.0104167
 41
0.0104167
  0
VERTEX
  8
0
 10
7.51465
 20
3.80354
 30
0.0
 40
0.0104167
 41
0.0104167
  0
VERTEX
  8
0
 10
7.5325
 20
3.77707
 30
0.0
 40
0.0104167
 41
0.0104167
  0
VERTEX
  8
0
 10
7.53907
 20
3.75276
 30
0.0
 40
0.0104167
 41
0.0104167
  0
VERTEX
  8
0
 10
7.53907
 20
3.74463
 30
0.0
 40
0.0104167
 41
0.0104167
  0
VERTEX
  8
0
 10
7.53907
 20
3.73654
 30
0.0
 40
0.0104167
 41
0.0104167
  0
VERTEX
  8
0
 10
7.5325
 20
3.71218
 30
0.0
 40
0.0104167
 41
0.0104167
  0
VERTEX
  8
0
 10
7.51465
 20
3.68571
 30
0.0
 40
0.0104167
 41
0.0104167
  0
VERTEX
  8
0
 10
7.48813
 20
3.66786
 30
0.0
 40
0.0104167
 41
0.0104167
  0
VERTEX
  8
0
 10
7.46382
 20
3.66129
 30
0.0
 40
0.0104167
 41
0.0104167
  0
VERTEX
  8
0
 10
7.45574
 20
3.66129
 30
0.0
 40
0.0104167
 41
0.0104167
  0
SEQEND
 8
0
  0
POLYLINE
  8
0
 62
     7
 66
     1
 10
0
 20
0
 30
0.0
 70
     1
 40
0
 41
0
  0
VERTEX
  8
0
 10
7.45574
 20
3.36963
 30
0.0
 40
0
 41
0
  0
VERTEX
  8
0
 10
7.4476
 20
3.36963
 30
0.0
 40
0
 41
0
  0
VERTEX
  8
0
 10
7.42324
 20
3.37619
 30
0.0
 40
0
 41
0
  0
VERTEX
  8
0
 10
7.39675
 20
3.39404
 30
0.0
 40
0
 41
0
  0
VERTEX
  8
0
 10
7.3789
 20
3.42051
 30
0.0
 40
0
 41
0
  0
VERTEX
  8
0
 10
7.3724
 20
3.44488
 30
0.0
 40
0
 41
0
  0
VERTEX
  8
0
 10
7.3724
 20
3.45296
 30
0.0
 40
0
 41
0
  0
VERTEX
  8
0
 10
7.3724
 20
3.4611
 30
0.0
 40
0
 41
0
  0
VERTEX
  8
0
 10
7.3789
 20
3.4854
 30
0.0
 40
0
 41
0
  0
VERTEX
  8
0
 10
7.39675
 20
3.51187
 30
0.0
 40
0
 41
0
  0
VERTEX
  8
0
 10
7.42324
 20
3.52979
 30
0.0
 40
0
 41
0
  0
VERTEX
  8
0
 10
7.4476
 20
3.53629
 30
0.0
 40
0
 41
0
  0
VERTEX
  8
0
 10
7.45574
 20
3.53629
 30
0.0
 40
0
 41
0
  0
VERTEX
  8
0
 10
7.46382
 20
3.53629
 30
0.0
 40
0
 41
0
  0
VERTEX
  8
0
 10
7.48813
 20
3.52979
 30
0.0
 40
0
 41
0
  0
VERTEX
  8
0
 10
7.51465
 20
3.51187
 30
0.0
 40
0
 41
0
  0
VERTEX
  8
0
 10
7.5325
 20
3.4854
 30
0.0
 40
0
 41
0
  0
VERTEX
  8
0
 10
7.53907
 20
3.4611
 30
0.0
 40
0
 41
0
  0
VERTEX
  8
0
 10
7.53907
 20
3.45296
 30
0.0
 40
0
 41
0
  0
VERTEX
  8
0
 10
7.53907
 20
3.44488
 30
0.0
 40
0
 41
0
  0
VERTEX
  8
0
 10
7.5325
 20
3.42051
 30
0.0
 40
0
 41
0
  0
VERTEX
  8
0
 10
7.51465
 20
3.39404
 30
0.0
 40
0
 41
0
  0
VERTEX
  8
0
 10
7.48813
 20
3.37619
 30
0.0
 40
0
 41
0
  0
VERTEX
  8
0
 10
7.46382
 20
3.36963
 30
0.0
 40
0
 41
0
  0
VERTEX
  8
0
 10
7.45574
 20
3.36963
 30
0.0
 40
0
 41
0
  0
SEQEND
 8
0
  0
POLYLINE
  8
0
 62
     0
 66
     1
 10
0
 20
0
 30
0.0
 70
     1
 40
0.75
 41
0.75
  0
VERTEX
  8
0
 10
7.45574
 20
3.36963
 30
0.0
 40
0.0104167
 41
0.0104167
  0
VERTEX
  8
0
 10
7.4476
 20
3.36963
 30
0.0
 40
0.0104167
 41
0.0104167
  0
VERTEX
  8
0
 10
7.42324
 20
3.37619
 30
0.0
 40
0.0104167
 41
0.0104167
  0
VERTEX
  8
0
 10
7.39675
 20
3.39404
 30
0.0
 40
0.0104167
 41
0.0104167
  0
VERTEX
  8
0
 10
7.3789
 20
3.42051
 30
0.0
 40
0.0104167
 41
0.0104167
  0
VERTEX
  8
0
 10
7.3724
 20
3.44488
 30
0.0
 40
0.0104167
 41
0.0104167
  0
VERTEX
  8
0
 10
7.3724
 20
3.45296
 30
0.0
 40
0.0104167
 41
0.0104167
  0
VERTEX
  8
0
 10
7.3724
 20
3.4611
 30
0.0
 40
0.0104167
 41
0.0104167
  0
VERTEX
  8
0
 10
7.3789
 20
3.4854
 30
0.0
 40
0.0104167
 41
0.0104167
  0
VERTEX
  8
0
 10
7.39675
 20
3.51187
 30
0.0
 40
0.0104167
 41
0.0104167
  0
VERTEX
  8
0
 10
7.42324
 20
3.52979
 30
0.0
 40
0.0104167
 41
0.0104167
  0
VERTEX
  8
0
 10
7.4476
 20
3.53629
 30
0.0
 40
0.0104167
 41
0.0104167
  0
VERTEX
  8
0
 10
7.45574
 20
3.53629
 30
0.0
 40
0.0104167
 41
0.0104167
  0
VERTEX
  8
0
 10
7.46382
 20
3.53629
 30
0.0
 40
0.0104167
 41
0.0104167
  0
VERTEX
  8
0
 10
7.48813
 20
3.52979
 30
0.0
 40
0.0104167
 41
0.0104167
  0
VERTEX
  8
0
 10
7.51465
 20
3.51187
 30
0.0
 40
0.0104167
 41
0.0104167
  0
VERTEX
  8
0
 10
7.5325
 20
3.4854
 30
0.0
 40
0.0104167
 41
0.0104167
  0
VERTEX
  8
0
 10
7.53907
 20
3.4611
 30
0.0
 40
0.0104167
 41
0.0104167
  0
VERTEX
  8
0
 10
7.53907
 20
3.45296
 30
0.0
 40
0.0104167
 41
0.0104167
  0
VERTEX
  8
0
 10
7.53907
 20
3.44488
 30
0.0
 40
0.0104167
 41
0.0104167
  0
VERTEX
  8
0
 10
7.5325
 20
3.42051
 30
0.0
 40
0.0104167
 41
0.0104167
  0
VERTEX
  8
0
 10
7.51465
 20
3.39404
 30
0.0
 40
0.0104167
 41
0.0104167
  0
VERTEX
  8
0
 10
7.48813
 20
3.37619
 30
0.0
 40
0.0104167
 41
0.0104167
  0
VERTEX
  8
0
 10
7.46382
 20
3.36963
 30
0.0
 40
0.0104167
 41
0.0104167
  0
VERTEX
  8
0
 10
7.45574
 20
3.36963
 30
0.0
 40
0.0104167
 41
0.0104167
  0
SEQEND
 8
0
  0
POLYLINE
  8
0
 62
     7
 66
     1
 10
0
 20
0
 30
0.0
 70
     1
 40
0
 41
0
  0
VERTEX
  8
0
 10
7.15175
 20
3.66129
 30
0.0
 40
0
 41
0
  0
VERTEX
  8
0
 10
7.14361
 20
3.66129
 30
0.0
 40
0
 41
0
  0
VERTEX
  8
0
 10
7.11925
 20
3.66786
 30
0.0
 40
0
 41
0
  0
VERTEX
  8
0
 10
7.09278
 20
3.68571
 30
0.0
 40
0
 41
0
  0
VERTEX
  8
0
 10
7.07493
 20
3.71218
 30
0.0
 40
0
 41
0
  0
VERTEX
  8
0
 10
7.06842
 20
3.73654
 30
0.0
 40
0
 41
0
  0
VERTEX
  8
0
 10
7.06842
 20
3.74463
 30
0.0
 40
0
 41
0
  0
VERTEX
  8
0
 10
7.06842
 20
3.75276
 30
0.0
 40
0
 41
0
  0
VERTEX
  8
0
 10
7.07493
 20
3.77707
 30
0.0
 40
0
 41
0
  0
VERTEX
  8
0
 10
7.09278
 20
3.80354
 30
0.0
 40
0
 41
0
  0
VERTEX
  8
0
 10
7.11925
 20
3.82146
 30
0.0
 40
0
 41
0
  0
VERTEX
  8
0
 10
7.14361
 20
3.82796
 30
0.0
 40
0
 41
0
  0
VERTEX
  8
0
 10
7.15175
 20
3.82796
 30
0.0
 40
0
 41
0
  0
VERTEX
  8
0
 10
7.15983
 20
3.82796
 30
0.0
 40
0
 41
0
  0
VERTEX
  8
0
 10
7.18414
 20
3.82146
 30
0.0
 40
0
 41
0
  0
VERTEX
  8
0
 10
7.21067
 20
3.80354
 30
0.0
 40
0
 41
0
  0
VERTEX
  8
0
 10
7.22851
 20
3.77707
 30
0.0
 40
0
 41
0
  0
VERTEX
  8
0
 10
7.23508
 20
3.75276
 30
0.0
 40
0
 41
0
  0
VERTEX
  8
0
 10
7.23508
 20
3.74463
 30
0.0
 40
0
 41
0
  0
VERTEX
  8
0
 10
7.23508
 20
3.73654
 30
0.0
 40
0
 41
0
  0
VERTEX
  8
0
 10
7.22851
 20
3.71218
 30
0.0
 40
0
 41
0
  0
VERTEX
  8
0
 10
7.21067
 20
3.68571
 30
0.0
 40
0
 41
0
  0
VERTEX
  8
0
 10
7.18414
 20
3.66786
 30
0.0
 40
0
 41
0
  0
VERTEX
  8
0
 10
7.15983
 20
3.66129
 30
0.0
 40
0
 41
0
  0
VERTEX
  8
0
 10
7.15175
 20
3.66129
 30
0.0
 40
0
 41
0
  0
SEQEND
 8
0
  0
POLYLINE
  8
0
 62
     0
 66
     1
 10
0
 20
0
 30
0.0
 70
     1
 40
0.75
 41
0.75
  0
VERTEX
  8
0
 10
7.15175
 20
3.66129
 30
0.0
 40
0.0104167
 41
0.0104167
  0
VERTEX
  8
0
 10
7.14361
 20
3.66129
 30
0.0
 40
0.0104167
 41
0.0104167
  0
VERTEX
  8
0
 10
7.11925
 20
3.66786
 30
0.0
 40
0.0104167
 41
0.0104167
  0
VERTEX
  8
0
 10
7.09278
 20
3.68571
 30
0.0
 40
0.0104167
 41
0.0104167
  0
VERTEX
  8
0
 10
7.07493
 20
3.71218
 30
0.0
 40
0.0104167
 41
0.0104167
  0
VERTEX
  8
0
 10
7.06842
 20
3.73654
 30
0.0
 40
0.0104167
 41
0.0104167
  0
VERTEX
  8
0
 10
7.06842
 20
3.74463
 30
0.0
 40
0.0104167
 41
0.0104167
  0
VERTEX
  8
0
 10
7.06842
 20
3.75276
 30
0.0
 40
0.0104167
 41
0.0104167
  0
VERTEX
  8
0
 10
7.07493
 20
3.77707
 30
0.0
 40
0.0104167
 41
0.0104167
  0
VERTEX
  8
0
 10
7.09278
 20
3.80354
 30
0.0
 40
0.0104167
 41
0.0104167
  0
VERTEX
  8
0
 10
7.11925
 20
3.82146
 30
0.0
 40
0.0104167
 41
0.0104167
  0
VERTEX
  8
0
 10
7.14361
 20
3.82796
 30
0.0
 40
0.0104167
 41
0.0104167
  0
VERTEX
  8
0
 10
7.15175
 20
3.82796
 30
0.0
 40
0.0104167
 41
0.0104167
  0
VERTEX
  8
0
 10
7.15983
 20
3.82796
 30
0.0
 40
0.0104167
 41
0.0104167
  0
VERTEX
  8
0
 10
7.18414
 20
3.82146
 30
0.0
 40
0.0104167
 41
0.0104167
  0
VERTEX
  8
0
 10
7.21067
 20
3.80354
 30
0.0
 40
0.0104167
 41
0.0104167
  0
VERTEX
  8
0
 10
7.22851
 20
3.77707
 30
0.0
 40
0.0104167
 41
0.0104167
  0
VERTEX
  8
0
 10
7.23508
 20
3.75276
 30
0.0
 40
0.0104167
 41
0.0104167
  0
VERTEX
  8
0
 10
7.23508
 20
3.74463
 30
0.0
 40
0.0104167
 41
0.0104167
  0
VERTEX
  8
0
 10
7.23508
 20
3.73654
 30
0.0
 40
0.0104167
 41
0.0104167
  0
VERTEX
  8
0
 10
7.22851
 20
3.71218
 30
0.0
 40
0.0104167
 41
0.0104167
  0
VERTEX
  8
0
 10
7.21067
 20
3.68571
 30
0.0
 40
0.0104167
 41
0.0104167
  0
VERTEX
  8
0
 10
7.18414
 20
3.66786
 30
0.0
 40
0.0104167
 41
0.0104167
  0
VERTEX
  8
0
 10
7.15983
 20
3.66129
 30
0.0
 40
0.0104167
 41
0.0104167
  0
VERTEX
  8
0
 10
7.15175
 20
3.66129
 30
0.0
 40
0.0104167
 41
0.0104167
  0
SEQEND
 8
0
  0
POLYLINE
  8
0
 62
     7
 66
     1
 10
0
 20
0
 30
0.0
 70
     1
 40
0
 41
0
  0
VERTEX
  8
0
 10
7.15175
 20
3.36963
 30
0.0
 40
0
 41
0
  0
VERTEX
  8
0
 10
7.14361
 20
3.36963
 30
0.0
 40
0
 41
0
  0
VERTEX
  8
0
 10
7.11925
 20
3.37619
 30
0.0
 40
0
 41
0
  0
VERTEX
  8
0
 10
7.09278
 20
3.39404
 30
0.0
 40
0
 41
0
  0
VERTEX
  8
0
 10
7.07493
 20
3.42051
 30
0.0
 40
0
 41
0
  0
VERTEX
  8
0
 10
7.06842
 20
3.44488
 30
0.0
 40
0
 41
0
  0
VERTEX
  8
0
 10
7.06842
 20
3.45296
 30
0.0
 40
0
 41
0
  0
VERTEX
  8
0
 10
7.06842
 20
3.4611
 30
0.0
 40
0
 41
0
  0
VERTEX
  8
0
 10
7.07493
 20
3.4854
 30
0.0
 40
0
 41
0
  0
VERTEX
  8
0
 10
7.09278
 20
3.51187
 30
0.0
 40
0
 41
0
  0
VERTEX
  8
0
 10
7.11925
 20
3.52979
 30
0.0
 40
0
 41
0
  0
VERTEX
  8
0
 10
7.14361
 20
3.53629
 30
0.0
 40
0
 41
0
  0
VERTEX
  8
0
 10
7.15175
 20
3.53629
 30
0.0
 40
0
 41
0
  0
VERTEX
  8
0
 10
7.15983
 20
3.53629
 30
0.0
 40
0
 41
0
  0
VERTEX
  8
0
 10
7.18414
 20
3.52979
 30
0.0
 40
0
 41
0
  0
VERTEX
  8
0
 10
7.21067
 20
3.51187
 30
0.0
 40
0
 41
0
  0
VERTEX
  8
0
 10
7.22851
 20
3.4854
 30
0.0
 40
0
 41
0
  0
VERTEX
  8
0
 10
7.23508
 20
3.4611
 30
0.0
 40
0
 41
0
  0
VERTEX
  8
0
 10
7.23508
 20
3.45296
 30
0.0
 40
0
 41
0
  0
VERTEX
  8
0
 10
7.23508
 20
3.44488
 30
0.0
 40
0
 41
0
  0
VERTEX
  8
0
 10
7.22851
 20
3.42051
 30
0.0
 40
0
 41
0
  0
VERTEX
  8
0
 10
7.21067
 20
3.39404
 30
0.0
 40
0
 41
0
  0
VERTEX
  8
0
 10
7.18414
 20
3.37619
 30
0.0
 40
0
 41
0
  0
VERTEX
  8
0
 10
7.15983
 20
3.36963
 30
0.0
 40
0
 41
0
  0
VERTEX
  8
0
 10
7.15175
 20
3.36963
 30
0.0
 40
0
 41
0
  0
SEQEND
 8
0
  0
POLYLINE
  8
0
 62
     0
 66
     1
 10
0
 20
0
 30
0.0
 70
     1
 40
0.75
 41
0.75
  0
VERTEX
  8
0
 10
7.15175
 20
3.36963
 30
0.0
 40
0.0104167
 41
0.0104167
  0
VERTEX
  8
0
 10
7.14361
 20
3.36963
 30
0.0
 40
0.0104167
 41
0.0104167
  0
VERTEX
  8
0
 10
7.11925
 20
3.37619
 30
0.0
 40
0.0104167
 41
0.0104167
  0
VERTEX
  8
0
 10
7.09278
 20
3.39404
 30
0.0
 40
0.0104167
 41
0.0104167
  0
VERTEX
  8
0
 10
7.07493
 20
3.42051
 30
0.0
 40
0.0104167
 41
0.0104167
  0
VERTEX
  8
0
 10
7.06842
 20
3.44488
 30
0.0
 40
0.0104167
 41
0.0104167
  0
VERTEX
  8
0
 10
7.06842
 20
3.45296
 30
0.0
 40
0.0104167
 41
0.0104167
  0
VERTEX
  8
0
 10
7.06842
 20
3.4611
 30
0.0
 40
0.0104167
 41
0.0104167
  0
VERTEX
  8
0
 10
7.07493
 20
3.4854
 30
0.0
 40
0.0104167
 41
0.0104167
  0
VERTEX
  8
0
 10
7.09278
 20
3.51187
 30
0.0
 40
0.0104167
 41
0.0104167
  0
VERTEX
  8
0
 10
7.11925
 20
3.52979
 30
0.0
 40
0.0104167
 41
0.0104167
  0
VERTEX
  8
0
 10
7.14361
 20
3.53629
 30
0.0
 40
0.0104167
 41
0.0104167
  0
VERTEX
  8
0
 10
7.15175
 20
3.53629
 30
0.0
 40
0.0104167
 41
0.0104167
  0
VERTEX
  8
0
 10
7.15983
 20
3.53629
 30
0.0
 40
0.0104167
 41
0.0104167
  0
VERTEX
  8
0
 10
7.18414
 20
3.52979
 30
0.0
 40
0.0104167
 41
0.0104167
  0
VERTEX
  8
0
 10
7.21067
 20
3.51187
 30
0.0
 40
0.0104167
 41
0.0104167
  0
VERTEX
  8
0
 10
7.22851
 20
3.4854
 30
0.0
 40
0.0104167
 41
0.0104167
  0
VERTEX
  8
0
 10
7.23508
 20
3.4611
 30
0.0
 40
0.0104167
 41
0.0104167
  0
VERTEX
  8
0
 10
7.23508
 20
3.45296
 30
0.0
 40
0.0104167
 41
0.0104167
  0
VERTEX
  8
0
 10
7.23508
 20
3.44488
 30
0.0
 40
0.0104167
 41
0.0104167
  0
VERTEX
  8
0
 10
7.22851
 20
3.42051
 30
0.0
 40
0.0104167
 41
0.0104167
  0
VERTEX
  8
0
 10
7.21067
 20
3.39404
 30
0.0
 40
0.0104167
 41
0.0104167
  0
VERTEX
  8
0
 10
7.18414
 20
3.37619
 30
0.0
 40
0.0104167
 41
0.0104167
  0
VERTEX
  8
0
 10
7.15983
 20
3.36963
 30
0.0
 40
0.0104167
 41
0.0104167
  0
VERTEX
  8
0
 10
7.15175
 20
3.36963
 30
0.0
 40
0.0104167
 41
0.0104167
  0
SEQEND
 8
0
  0
POLYLINE
  8
0
 62
     7
 66
     1
 10
0
 20
0
 30
0.0
 70
     1
 40
0
 41
0
  0
VERTEX
  8
0
 10
7.00265
 20
2.98014
 30
0.0
 40
0
 41
0
  0
VERTEX
  8
0
 10
7.6129
 20
2.98014
 30
0.0
 40
0
 41
0
  0
VERTEX
  8
0
 10
7.6129
 20
2.35514
 30
0.0
 40
0
 41
0
  0
VERTEX
  8
0
 10
7.00265
 20
2.35514
 30
0.0
 40
0
 41
0
  0
VERTEX
  8
0
 10
7.00265
 20
2.98014
 30
0.0
 40
0
 41
0
  0
SEQEND
 8
0
  0
POLYLINE
  8
0
 62
     0
 66
     1
 10
0
 20
0
 30
0.0
 70
     1
 40
0.75
 41
0.75
  0
VERTEX
  8
0
 10
7.00265
 20
2.98014
 30
0.0
 40
0.0104167
 41
0.0104167
  0
VERTEX
  8
0
 10
7.00265
 20
2.35514
 30
0.0
 40
0.0104167
 41
0.0104167
  0
VERTEX
  8
0
 10
7.6129
 20
2.35514
 30
0.0
 40
0.0104167
 41
0.0104167
  0
VERTEX
  8
0
 10
7.6129
 20
2.98014
 30
0.0
 40
0.0104167
 41
0.0104167
  0
VERTEX
  8
0
 10
7.00265
 20
2.98014
 30
0.0
 40
0.0104167
 41
0.0104167
  0
SEQEND
 8
0
  0
POLYLINE
  8
0
 62
     0
 66
     1
 10
0
 20
0
 30
0.0
 40
0.75
 41
0.75
  0
VERTEX
  8
0
 10
7.6129
 20
2.98014
 30
0.0
 40
0.0104167
 41
0.0104167
  0
VERTEX
  8
0
 10
7.20811
 20
2.66656
 30
0.0
 40
0.0104167
 41
0.0104167
  0
VERTEX
  8
0
 10
7.41564
 20
2.66656
 30
0.0
 40
0.0104167
 41
0.0104167
  0
VERTEX
  8
0
 10
7.00265
 20
2.35618
 30
0.0
 40
0.0104167
 41
0.0104167
  0
SEQEND
 8
0
  0
POLYLINE
  8
0
 62
     7
 66
     1
 10
0
 20
0
 30
0.0
 70
     1
 40
0
 41
0
  0
VERTEX
  8
0
 10
7.09299
 20
2.2966
 30
0.0
 40
0
 41
0
  0
VERTEX
  8
0
 10
7.49886
 20
2.2966
 30
0.0
 40
0
 41
0
  0
VERTEX
  8
0
 10
7.49886
 20
2.0981
 30
0.0
 40
0
 41
0
  0
VERTEX
  8
0
 10
7.09299
 20
2.0981
 30
0.0
 40
0
 41
0
  0
VERTEX
  8
0
 10
7.09299
 20
2.2966
 30
0.0
 40
0
 41
0
  0
SEQEND
 8
0
  0
POLYLINE
  8
0
 62
     0
 66
     1
 10
0
 20
0
 30
0.0
 70
     1
 40
0.75
 41
0.75
  0
VERTEX
  8
0
 10
7.09299
 20
2.2966
 30
0.0
 40
0.0104167
 41
0.0104167
  0
VERTEX
  8
0
 10
7.09299
 20
2.0981
 30
0.0
 40
0.0104167
 41
0.0104167
  0
VERTEX
  8
0
 10
7.49886
 20
2.0981
 30
0.0
 40
0.0104167
 41
0.0104167
  0
VERTEX
  8
0
 10
7.49886
 20
2.2966
 30
0.0
 40
0.0104167
 41
0.0104167
  0
VERTEX
  8
0
 10
7.09299
 20
2.2966
 30
0.0
 40
0.0104167
 41
0.0104167
  0
SEQEND
 8
0
  0
POLYLINE
  8
0
 62
     7
 66
     1
 10
0
 20
0
 30
0.0
 70
     1
 40
0
 41
0
  0
VERTEX
  8
0
 10
7.09218
 20
2.06831
 30
0.0
 40
0
 41
0
  0
VERTEX
  8
0
 10
7.49778
 20
2.06831
 30
0.0
 40
0
 41
0
  0
VERTEX
  8
0
 10
7.49778
 20
1.70111
 30
0.0
 40
0
 41
0
  0
VERTEX
  8
0
 10
7.09218
 20
1.70111
 30
0.0
 40
0
 41
0
  0
VERTEX
  8
0
 10
7.09218
 20
2.06831
 30
0.0
 40
0
 41
0
  0
SEQEND
 8
0
  0
POLYLINE
  8
0
 62
     0
 66
     1
 10
0
 20
0
 30
0.0
 70
     1
 40
0.75
 41
0.75
  0
VERTEX
  8
0
 10
7.09218
 20
2.06831
 30
0.0
 40
0.0104167
 41
0.0104167
  0
VERTEX
  8
0
 10
7.09218
 20
1.70111
 30
0.0
 40
0.0104167
 41
0.0104167
  0
VERTEX
  8
0
 10
7.49778
 20
1.70111
 30
0.0
 40
0.0104167
 41
0.0104167
  0
VERTEX
  8
0
 10
7.49778
 20
2.06831
 30
0.0
 40
0.0104167
 41
0.0104167
  0
VERTEX
  8
0
 10
7.09218
 20
2.06831
 30
0.0
 40
0.0104167
 41
0.0104167
  0
SEQEND
 8
0
  0
POLYLINE
  8
0
 62
     7
 66
     1
 10
0
 20
0
 30
0.0
 70
     1
 40
0
 41
0
  0
VERTEX
  8
0
 10
7.30067
 20
2.16086
 30
0.0
 40
0
 41
0
  0
VERTEX
  8
0
 10
7.29422
 20
2.16086
 30
0.0
 40
0
 41
0
  0
VERTEX
  8
0
 10
7.27485
 20
2.17156
 30
0.0
 40
0
 41
0
  0
VERTEX
  8
0
 10
7.26421
 20
2.19092
 30
0.0
 40
0
 41
0
  0
VERTEX
  8
0
 10
7.26421
 20
2.19732
 30
0.0
 40
0
 41
0
  0
VERTEX
  8
0
 10
7.26421
 20
2.20378
 30
0.0
 40
0
 41
0
  0
VERTEX
  8
0
 10
7.27485
 20
2.22314
 30
0.0
 40
0
 41
0
  0
VERTEX
  8
0
 10
7.29422
 20
2.23378
 30
0.0
 40
0
 41
0
  0
VERTEX
  8
0
 10
7.30067
 20
2.23378
 30
0.0
 40
0
 41
0
  0
VERTEX
  8
0
 10
7.30707
 20
2.23378
 30
0.0
 40
0
 41
0
  0
VERTEX
  8
0
 10
7.32644
 20
2.22314
 30
0.0
 40
0
 41
0
  0
VERTEX
  8
0
 10
7.33713
 20
2.20378
 30
0.0
 40
0
 41
0
  0
VERTEX
  8
0
 10
7.33713
 20
2.19732
 30
0.0
 40
0
 41
0
  0
VERTEX
  8
0
 10
7.33713
 20
2.19092
 30
0.0
 40
0
 41
0
  0
VERTEX
  8
0
 10
7.32644
 20
2.17156
 30
0.0
 40
0
 41
0
  0
VERTEX
  8
0
 10
7.30707
 20
2.16086
 30
0.0
 40
0
 41
0
  0
VERTEX
  8
0
 10
7.30067
 20
2.16086
 30
0.0
 40
0
 41
0
  0
SEQEND
 8
0
  0
POLYLINE
  8
0
 62
     0
 66
     1
 10
0
 20
0
 30
0.0
 70
     1
 40
0.6
 41
0.6
  0
VERTEX
  8
0
 10
7.30067
 20
2.16086
 30
0.0
 40
0.00833333
 41
0.00833333
  0
VERTEX
  8
0
 10
7.29422
 20
2.16086
 30
0.0
 40
0.00833333
 41
0.00833333
  0
VERTEX
  8
0
 10
7.27485
 20
2.17156
 30
0.0
 40
0.00833333
 41
0.00833333
  0
VERTEX
  8
0
 10
7.26421
 20
2.19092
 30
0.0
 40
0.00833333
 41
0.00833333
  0
VERTEX
  8
0
 10
7.26421
 20
2.19732
 30
0.0
 40
0.00833333
 41
0.00833333
  0
VERTEX
  8
0
 10
7.26421
 20
2.20378
 30
0.0
 40
0.00833333
 41
0.00833333
  0
VERTEX
  8
0
 10
7.27485
 20
2.22314
 30
0.0
 40
0.00833333
 41
0.00833333
  0
VERTEX
  8
0
 10
7.29422
 20
2.23378
 30
0.0
 40
0.00833333
 41
0.00833333
  0
VERTEX
  8
0
 10
7.30067
 20
2.23378
 30
0.0
 40
0.00833333
 41
0.00833333
  0
VERTEX
  8
0
 10
7.30707
 20
2.23378
 30
0.0
 40
0.00833333
 41
0.00833333
  0
VERTEX
  8
0
 10
7.32644
 20
2.22314
 30
0.0
 40
0.00833333
 41
0.00833333
  0
VERTEX
  8
0
 10
7.33713
 20
2.20378
 30
0.0
 40
0.00833333
 41
0.00833333
  0
VERTEX
  8
0
 10
7.33713
 20
2.19732
 30
0.0
 40
0.00833333
 41
0.00833333
  0
VERTEX
  8
0
 10
7.33713
 20
2.19092
 30
0.0
 40
0.00833333
 41
0.00833333
  0
VERTEX
  8
0
 10
7.32644
 20
2.17156
 30
0.0
 40
0.00833333
 41
0.00833333
  0
VERTEX
  8
0
 10
7.30707
 20
2.16086
 30
0.0
 40
0.00833333
 41
0.00833333
  0
VERTEX
  8
0
 10
7.30067
 20
2.16086
 30
0.0
 40
0.00833333
 41
0.00833333
  0
SEQEND
 8
0
  0
POLYLINE
  8
0
 62
     7
 66
     1
 10
0
 20
0
 30
0.0
 70
     1
 40
0
 41
0
  0
VERTEX
  8
0
 10
7.30067
 20
1.85319
 30
0.0
 40
0
 41
0
  0
VERTEX
  8
0
 10
7.29422
 20
1.85319
 30
0.0
 40
0
 41
0
  0
VERTEX
  8
0
 10
7.27485
 20
1.86388
 30
0.0
 40
0
 41
0
  0
VERTEX
  8
0
 10
7.26421
 20
1.88325
 30
0.0
 40
0
 41
0
  0
VERTEX
  8
0
 10
7.26421
 20
1.88965
 30
0.0
 40
0
 41
0
  0
VERTEX
  8
0
 10
7.26421
 20
1.89611
 30
0.0
 40
0
 41
0
  0
VERTEX
  8
0
 10
7.27485
 20
1.91547
 30
0.0
 40
0
 41
0
  0
VERTEX
  8
0
 10
7.29422
 20
1.92611
 30
0.0
 40
0
 41
0
  0
VERTEX
  8
0
 10
7.30067
 20
1.92611
 30
0.0
 40
0
 41
0
  0
VERTEX
  8
0
 10
7.30707
 20
1.92611
 30
0.0
 40
0
 41
0
  0
VERTEX
  8
0
 10
7.32644
 20
1.91547
 30
0.0
 40
0
 41
0
  0
VERTEX
  8
0
 10
7.33713
 20
1.89611
 30
0.0
 40
0
 41
0
  0
VERTEX
  8
0
 10
7.33713
 20
1.88965
 30
0.0
 40
0
 41
0
  0
VERTEX
  8
0
 10
7.33713
 20
1.88325
 30
0.0
 40
0
 41
0
  0
VERTEX
  8
0
 10
7.32644
 20
1.86388
 30
0.0
 40
0
 41
0
  0
VERTEX
  8
0
 10
7.30707
 20
1.85319
 30
0.0
 40
0
 41
0
  0
VERTEX
  8
0
 10
7.30067
 20
1.85319
 30
0.0
 40
0
 41
0
  0
SEQEND
 8
0
  0
POLYLINE
  8
0
 62
     0
 66
     1
 10
0
 20
0
 30
0.0
 70
     1
 40
0.6
 41
0.6
  0
VERTEX
  8
0
 10
7.30067
 20
1.85319
 30
0.0
 40
0.00833333
 41
0.00833333
  0
VERTEX
  8
0
 10
7.29422
 20
1.85319
 30
0.0
 40
0.00833333
 41
0.00833333
  0
VERTEX
  8
0
 10
7.27485
 20
1.86388
 30
0.0
 40
0.00833333
 41
0.00833333
  0
VERTEX
  8
0
 10
7.26421
 20
1.88325
 30
0.0
 40
0.00833333
 41
0.00833333
  0
VERTEX
  8
0
 10
7.26421
 20
1.88965
 30
0.0
 40
0.00833333
 41
0.00833333
  0
VERTEX
  8
0
 10
7.26421
 20
1.89611
 30
0.0
 40
0.00833333
 41
0.00833333
  0
VERTEX
  8
0
 10
7.27485
 20
1.91547
 30
0.0
 40
0.00833333
 41
0.00833333
  0
VERTEX
  8
0
 10
7.29422
 20
1.92611
 30
0.0
 40
0.00833333
 41
0.00833333
  0
VERTEX
  8
0
 10
7.30067
 20
1.92611
 30
0.0
 40
0.00833333
 41
0.00833333
  0
VERTEX
  8
0
 10
7.30707
 20
1.92611
 30
0.0
 40
0.00833333
 41
0.00833333
  0
VERTEX
  8
0
 10
7.32644
 20
1.91547
 30
0.0
 40
0.00833333
 41
0.00833333
  0
VERTEX
  8
0
 10
7.33713
 20
1.89611
 30
0.0
 40
0.00833333
 41
0.00833333
  0
VERTEX
  8
0
 10
7.33713
 20
1.88965
 30
0.0
 40
0.00833333
 41
0.00833333
  0
VERTEX
  8
0
 10
7.33713
 20
1.88325
 30
0.0
 40
0.00833333
 41
0.00833333
  0
VERTEX
  8
0
 10
7.32644
 20
1.86388
 30
0.0
 40
0.00833333
 41
0.00833333
  0
VERTEX
  8
0
 10
7.30707
 20
1.85319
 30
0.0
 40
0.00833333
 41
0.00833333
  0
VERTEX
  8
0
 10
7.30067
 20
1.85319
 30
0.0
 40
0.00833333
 41
0.00833333
  0
SEQEND
 8
0
  0
POLYLINE
  8
0
 62
     7
 66
     1
 10
0
 20
0
 30
0.0
 70
     1
 40
0
 41
0
  0
VERTEX
  8
0
 10
7.30067
 20
2.17649
 30
0.0
 40
0
 41
0
  0
VERTEX
  8
0
 10
7.29699
 20
2.17649
 30
0.0
 40
0
 41
0
  0
VERTEX
  8
0
 10
7.28592
 20
2.18261
 30
0.0
 40
0
 41
0
  0
VERTEX
  8
0
 10
7.27983
 20
2.19368
 30
0.0
 40
0
 41
0
  0
VERTEX
  8
0
 10
7.27983
 20
2.19732
 30
0.0
 40
0
 41
0
  0
VERTEX
  8
0
 10
7.27983
 20
2.20101
 30
0.0
 40
0
 41
0
  0
VERTEX
  8
0
 10
7.28592
 20
2.21208
 30
0.0
 40
0
 41
0
  0
VERTEX
  8
0
 10
7.29699
 20
2.21815
 30
0.0
 40
0
 41
0
  0
VERTEX
  8
0
 10
7.30067
 20
2.21815
 30
0.0
 40
0
 41
0
  0
VERTEX
  8
0
 10
7.30431
 20
2.21815
 30
0.0
 40
0
 41
0
  0
VERTEX
  8
0
 10
7.31537
 20
2.21208
 30
0.0
 40
0
 41
0
  0
VERTEX
  8
0
 10
7.3215
 20
2.20101
 30
0.0
 40
0
 41
0
  0
VERTEX
  8
0
 10
7.3215
 20
2.19732
 30
0.0
 40
0
 41
0
  0
VERTEX
  8
0
 10
7.3215
 20
2.19368
 30
0.0
 40
0
 41
0
  0
VERTEX
  8
0
 10
7.31537
 20
2.18261
 30
0.0
 40
0
 41
0
  0
VERTEX
  8
0
 10
7.30431
 20
2.17649
 30
0.0
 40
0
 41
0
  0
VERTEX
  8
0
 10
7.30067
 20
2.17649
 30
0.0
 40
0
 41
0
  0
SEQEND
 8
0
  0
POLYLINE
  8
0
 62
     0
 66
     1
 10
0
 20
0
 30
0.0
 70
     1
 40
0.6
 41
0.6
  0
VERTEX
  8
0
 10
7.30067
 20
2.17649
 30
0.0
 40
0.00833333
 41
0.00833333
  0
VERTEX
  8
0
 10
7.29699
 20
2.17649
 30
0.0
 40
0.00833333
 41
0.00833333
  0
VERTEX
  8
0
 10
7.28592
 20
2.18261
 30
0.0
 40
0.00833333
 41
0.00833333
  0
VERTEX
  8
0
 10
7.27983
 20
2.19368
 30
0.0
 40
0.00833333
 41
0.00833333
  0
VERTEX
  8
0
 10
7.27983
 20
2.19732
 30
0.0
 40
0.00833333
 41
0.00833333
  0
VERTEX
  8
0
 10
7.27983
 20
2.20101
 30
0.0
 40
0.00833333
 41
0.00833333
  0
VERTEX
  8
0
 10
7.28592
 20
2.21208
 30
0.0
 40
0.00833333
 41
0.00833333
  0
VERTEX
  8
0
 10
7.29699
 20
2.21815
 30
0.0
 40
0.00833333
 41
0.00833333
  0
VERTEX
  8
0
 10
7.30067
 20
2.21815
 30
0.0
 40
0.00833333
 41
0.00833333
  0
VERTEX
  8
0
 10
7.30431
 20
2.21815
 30
0.0
 40
0.00833333
 41
0.00833333
  0
VERTEX
  8
0
 10
7.31537
 20
2.21208
 30
0.0
 40
0.00833333
 41
0.00833333
  0
VERTEX
  8
0
 10
7.3215
 20
2.20101
 30
0.0
 40
0.00833333
 41
0.00833333
  0
VERTEX
  8
0
 10
7.3215
 20
2.19732
 30
0.0
 40
0.00833333
 41
0.00833333
  0
VERTEX
  8
0
 10
7.3215
 20
2.19368
 30
0.0
 40
0.00833333
 41
0.00833333
  0
VERTEX
  8
0
 10
7.31537
 20
2.18261
 30
0.0
 40
0.00833333
 41
0.00833333
  0
VERTEX
  8
0
 10
7.30431
 20
2.17649
 30
0.0
 40
0.00833333
 41
0.00833333
  0
VERTEX
  8
0
 10
7.30067
 20
2.17649
 30
0.0
 40
0.00833333
 41
0.00833333
  0
SEQEND
 8
0
  0
POLYLINE
  8
0
 62
     7
 66
     1
 10
0
 20
0
 30
0.0
 70
     1
 40
0
 41
0
  0
VERTEX
  8
0
 10
7.30067
 20
1.86882
 30
0.0
 40
0
 41
0
  0
VERTEX
  8
0
 10
7.29699
 20
1.86882
 30
0.0
 40
0
 41
0
  0
VERTEX
  8
0
 10
7.28592
 20
1.87494
 30
0.0
 40
0
 41
0
  0
VERTEX
  8
0
 10
7.27983
 20
1.88601
 30
0.0
 40
0
 41
0
  0
VERTEX
  8
0
 10
7.27983
 20
1.88965
 30
0.0
 40
0
 41
0
  0
VERTEX
  8
0
 10
7.27983
 20
1.89333
 30
0.0
 40
0
 41
0
  0
VERTEX
  8
0
 10
7.28592
 20
1.9044
 30
0.0
 40
0
 41
0
  0
VERTEX
  8
0
 10
7.29699
 20
1.91049
 30
0.0
 40
0
 41
0
  0
VERTEX
  8
0
 10
7.30067
 20
1.91049
 30
0.0
 40
0
 41
0
  0
VERTEX
  8
0
 10
7.30431
 20
1.91049
 30
0.0
 40
0
 41
0
  0
VERTEX
  8
0
 10
7.31537
 20
1.9044
 30
0.0
 40
0
 41
0
  0
VERTEX
  8
0
 10
7.3215
 20
1.89333
 30
0.0
 40
0
 41
0
  0
VERTEX
  8
0
 10
7.3215
 20
1.88965
 30
0.0
 40
0
 41
0
  0
VERTEX
  8
0
 10
7.3215
 20
1.88601
 30
0.0
 40
0
 41
0
  0
VERTEX
  8
0
 10
7.31537
 20
1.87494
 30
0.0
 40
0
 41
0
  0
VERTEX
  8
0
 10
7.30431
 20
1.86882
 30
0.0
 40
0
 41
0
  0
VERTEX
  8
0
 10
7.30067
 20
1.86882
 30
0.0
 40
0
 41
0
  0
SEQEND
 8
0
  0
POLYLINE
  8
0
 62
     0
 66
     1
 10
0
 20
0
 30
0.0
 70
     1
 40
0.6
 41
0.6
  0
VERTEX
  8
0
 10
7.30067
 20
1.86882
 30
0.0
 40
0.00833333
 41
0.00833333
  0
VERTEX
  8
0
 10
7.29699
 20
1.86882
 30
0.0
 40
0.00833333
 41
0.00833333
  0
VERTEX
  8
0
 10
7.28592
 20
1.87494
 30
0.0
 40
0.00833333
 41
0.00833333
  0
VERTEX
  8
0
 10
7.27983
 20
1.88601
 30
0.0
 40
0.00833333
 41
0.00833333
  0
VERTEX
  8
0
 10
7.27983
 20
1.88965
 30
0.0
 40
0.00833333
 41
0.00833333
  0
VERTEX
  8
0
 10
7.27983
 20
1.89333
 30
0.0
 40
0.00833333
 41
0.00833333
  0
VERTEX
  8
0
 10
7.28592
 20
1.9044
 30
0.0
 40
0.00833333
 41
0.00833333
  0
VERTEX
  8
0
 10
7.29699
 20
1.91049
 30
0.0
 40
0.00833333
 41
0.00833333
  0
VERTEX
  8
0
 10
7.30067
 20
1.91049
 30
0.0
 40
0.00833333
 41
0.00833333
  0
VERTEX
  8
0
 10
7.30431
 20
1.91049
 30
0.0
 40
0.00833333
 41
0.00833333
  0
VERTEX
  8
0
 10
7.31537
 20
1.9044
 30
0.0
 40
0.00833333
 41
0.00833333
  0
VERTEX
  8
0
 10
7.3215
 20
1.89333
 30
0.0
 40
0.00833333
 41
0.00833333
  0
VERTEX
  8
0
 10
7.3215
 20
1.88965
 30
0.0
 40
0.00833333
 41
0.00833333
  0
VERTEX
  8
0
 10
7.3215
 20
1.88601
 30
0.0
 40
0.00833333
 41
0.00833333
  0
VERTEX
  8
0
 10
7.31537
 20
1.87494
 30
0.0
 40
0.00833333
 41
0.00833333
  0
VERTEX
  8
0
 10
7.30431
 20
1.86882
 30
0.0
 40
0.00833333
 41
0.00833333
  0
VERTEX
  8
0
 10
7.30067
 20
1.86882
 30
0.0
 40
0.00833333
 41
0.00833333
  0
SEQEND
 8
0
  0
POLYLINE
  8
0
 62
     7
 66
     1
 10
0
 20
0
 30
0.0
 70
     1
 40
0
 41
0
  0
VERTEX
  8
0
 10
7.41069
 20
2.0286
 30
0.0
 40
0
 41
0
  0
VERTEX
  8
0
 10
7.55653
 20
2.0286
 30
0.0
 40
0
 41
0
  0
VERTEX
  8
0
 10
7.55653
 20
1.9661
 30
0.0
 40
0
 41
0
  0
VERTEX
  8
0
 10
7.41069
 20
1.9661
 30
0.0
 40
0
 41
0
  0
VERTEX
  8
0
 10
7.41069
 20
2.0286
 30
0.0
 40
0
 41
0
  0
SEQEND
 8
0
  0
POLYLINE
  8
0
 62
     0
 66
     1
 10
0
 20
0
 30
0.0
 70
     1
 40
0.75
 41
0.75
  0
VERTEX
  8
0
 10
7.41069
 20
2.0286
 30
0.0
 40
0.0104167
 41
0.0104167
  0
VERTEX
  8
0
 10
7.41069
 20
1.9661
 30
0.0
 40
0.0104167
 41
0.0104167
  0
VERTEX
  8
0
 10
7.55653
 20
1.9661
 30
0.0
 40
0.0104167
 41
0.0104167
  0
VERTEX
  8
0
 10
7.55653
 20
2.0286
 30
0.0
 40
0.0104167
 41
0.0104167
  0
VERTEX
  8
0
 10
7.41069
 20
2.0286
 30
0.0
 40
0.0104167
 41
0.0104167
  0
SEQEND
 8
0
  0
POLYLINE
  8
0
 62
     0
 66
     1
 10
0
 20
0
 30
0.0
 70
     1
 40
0.75
 41
0.75
  0
VERTEX
  8
0
 10
6.4094
 20
1.3935
 30
0.0
 40
0.0104167
 41
0.0104167
  0
VERTEX
  8
0
 10
7.3074
 20
1.3935
 30
0.0
 40
0.0104167
 41
0.0104167
  0
VERTEX
  8
0
 10
7.3074
 20
4.56082
 30
0.0
 40
0.0104167
 41
0.0104167
  0
VERTEX
  8
0
 10
7.61285
 20
4.56082
 30
0.0
 40
0.0104167
 41
0.0104167
  0
VERTEX
  8
0
 10
7.602
 20
1.15267
 30
0.0
 40
0.0104167
 41
0.0104167
  0
VERTEX
  8
0
 10
6.4094
 20
1.14301
 30
0.0
 40
0.0104167
 41
0.0104167
  0
VERTEX
  8
0
 10
6.4094
 20
1.39432
 30
0.0
 40
0.0104167
 41
0.0104167
  0
VERTEX
  8
0
 10
6.4094
 20
1.3935
 30
0.0
 40
0.0104167
 41
0.0104167
  0
SEQEND
 8
0
  0
POLYLINE
  8
0
 62
     0
 66
     1
 10
0
 20
0
 30
0.0
 70
     1
 40
0
 41
0
  0
VERTEX
  8
0
 10
7.62842
 20
1.14258
 30
0.0
 40
0
 41
0
  0
VERTEX
  8
0
 10
7.6129
 20
1.68158
 30
0.0
 40
0
 41
0
  0
VERTEX
  8
0
 10
7.20324
 20
1.66971
 30
0.0
 40
0
 41
0
  0
VERTEX
  8
0
 10
7.21875
 20
1.13075
 30
0.0
 40
0
 41
0
  0
VERTEX
  8
0
 10
7.62842
 20
1.14258
 30
0.0
 40
0
 41
0
  0
SEQEND
 8
0
  0
POLYLINE
  8
0
 62
     0
 66
     1
 10
0
 20
0
 30
0.0
 70
     1
 40
0.15
 41
0.15
  0
VERTEX
  8
0
 10
7.62842
 20
1.14258
 30
0.0
 40
0.00208333
 41
0.00208333
  0
VERTEX
  8
0
 10
7.6129
 20
1.68158
 30
0.0
 40
0.00208333
 41
0.00208333
  0
VERTEX
  8
0
 10
7.20324
 20
1.66971
 30
0.0
 40
0.00208333
 41
0.00208333
  0
VERTEX
  8
0
 10
7.21875
 20
1.13075
 30
0.0
 40
0.00208333
 41
0.00208333
  0
VERTEX
  8
0
 10
7.62842
 20
1.14258
 30
0.0
 40
0.00208333
 41
0.00208333
  0
SEQEND
 8
0
  0
POLYLINE
  8
0
 62
     7
 66
     1
 10
0
 20
0
 30
0.0
 70
     1
 40
0
 41
0
  0
VERTEX
  8
0
 10
3.34993
 20
4.79215
 30
0.0
 40
0
 41
0
  0
VERTEX
  8
0
 10
3.97493
 20
4.79215
 30
0.0
 40
0
 41
0
  0
VERTEX
  8
0
 10
3.97493
 20
4.16715
 30
0.0
 40
0
 41
0
  0
VERTEX
  8
0
 10
3.34993
 20
4.16715
 30
0.0
 40
0
 41
0
  0
VERTEX
  8
0
 10
3.34993
 20
4.79215
 30
0.0
 40
0
 41
0
  0
SEQEND
 8
0
  0
POLYLINE
  8
0
 62
     0
 66
     1
 10
0
 20
0
 30
0.0
 70
     1
 40
0.75
 41
0.75
  0
VERTEX
  8
0
 10
3.34993
 20
4.79215
 30
0.0
 40
0.0104167
 41
0.0104167
  0
VERTEX
  8
0
 10
3.97493
 20
4.79215
 30
0.0
 40
0.0104167
 41
0.0104167
  0
VERTEX
  8
0
 10
3.97493
 20
4.16715
 30
0.0
 40
0.0104167
 41
0.0104167
  0
VERTEX
  8
0
 10
3.34993
 20
4.16715
 30
0.0
 40
0.0104167
 41
0.0104167
  0
VERTEX
  8
0
 10
3.34993
 20
4.79215
 30
0.0
 40
0.0104167
 41
0.0104167
  0
SEQEND
 8
0
  0
POLYLINE
  8
0
 62
     0
 66
     1
 10
0
 20
0
 30
0.0
 40
0.75
 41
0.75
  0
VERTEX
  8
0
 10
3.34993
 20
4.79215
 30
0.0
 40
0.0104167
 41
0.0104167
  0
VERTEX
  8
0
 10
3.66347
 20
4.37756
 30
0.0
 40
0.0104167
 41
0.0104167
  0
VERTEX
  8
0
 10
3.66347
 20
4.59006
 30
0.0
 40
0.0104167
 41
0.0104167
  0
VERTEX
  8
0
 10
3.97385
 20
4.16715
 30
0.0
 40
0.0104167
 41
0.0104167
  0
SEQEND
 8
0
  0
POLYLINE
  8
0
 62
     0
 66
     1
 10
0
 20
0
 30
0.0
 70
     1
 40
0
 41
0
  0
VERTEX
  8
0
 10
1.06624
 20
12.1225
 30
0.0
 40
0
 41
0
  0
VERTEX
  8
0
 10
2.44114
 20
12.124
 30
0.0
 40
0
 41
0
  0
VERTEX
  8
0
 10
2.44135
 20
11.9261
 30
0.0
 40
0
 41
0
  0
VERTEX
  8
0
 10
1.25374
 20
11.9248
 30
0.0
 40
0
 41
0
  0
VERTEX
  8
0
 10
1.06624
 20
12.1225
 30
0.0
 40
0
 41
0
  0
SEQEND
 8
0
  0
POLYLINE
  8
0
 62
     0
 66
     1
 10
0
 20
0
 30
0.0
 70
     1
 40
0.15
 41
0.15
  0
VERTEX
  8
0
 10
1.06624
 20
12.1225
 30
0.0
 40
0.00208333
 41
0.00208333
  0
VERTEX
  8
0
 10
2.44114
 20
12.124
 30
0.0
 40
0.00208333
 41
0.00208333
  0
VERTEX
  8
0
 10
2.44135
 20
11.9261
 30
0.0
 40
0.00208333
 41
0.00208333
  0
VERTEX
  8
0
 10
1.25374
 20
11.9248
 30
0.0
 40
0.00208333
 41
0.00208333
  0
VERTEX
  8
0
 10
1.06624
 20
12.1225
 30
0.0
 40
0.00208333
 41
0.00208333
  0
SEQEND
 8
0
  0
POLYLINE
  8
0
 62
     0
 66
     1
 10
0
 20
0
 30
0.0
 70
     1
 40
0
 41
0
  0
VERTEX
  8
0
 10
8.54189
 20
9.72407
 30
0.0
 40
0
 41
0
  0
VERTEX
  8
0
 10
8.54189
 20
9.71457
 30
0.0
 40
0
 41
0
  0
VERTEX
  8
0
 10
8.53418
 20
9.68608
 30
0.0
 40
0
 41
0
  0
VERTEX
  8
0
 10
8.51324
 20
9.65506
 30
0.0
 40
0
 41
0
  0
VERTEX
  8
0
 10
8.48221
 20
9.63411
 30
0.0
 40
0
 41
0
  0
VERTEX
  8
0
 10
8.45367
 20
9.62642
 30
0.0
 40
0
 41
0
  0
VERTEX
  8
0
 10
8.44417
 20
9.62642
 30
0.0
 40
0
 41
0
  0
VERTEX
  8
0
 10
8.43463
 20
9.62642
 30
0.0
 40
0
 41
0
  0
VERTEX
  8
0
 10
8.40614
 20
9.63411
 30
0.0
 40
0
 41
0
  0
VERTEX
  8
0
 10
8.37511
 20
9.65506
 30
0.0
 40
0
 41
0
  0
VERTEX
  8
0
 10
8.35417
 20
9.68608
 30
0.0
 40
0
 41
0
  0
VERTEX
  8
0
 10
8.34651
 20
9.71457
 30
0.0
 40
0
 41
0
  0
VERTEX
  8
0
 10
8.34651
 20
9.72407
 30
0.0
 40
0
 41
0
  0
VERTEX
  8
0
 10
8.34651
 20
9.73361
 30
0.0
 40
0
 41
0
  0
VERTEX
  8
0
 10
8.35417
 20
9.7621
 30
0.0
 40
0
 41
0
  0
VERTEX
  8
0
 10
8.37511
 20
9.79312
 30
0.0
 40
0
 41
0
  0
VERTEX
  8
0
 10
8.40614
 20
9.81407
 30
0.0
 40
0
 41
0
  0
VERTEX
  8
0
 10
8.43463
 20
9.82172
 30
0.0
 40
0
 41
0
  0
VERTEX
  8
0
 10
8.44417
 20
9.82172
 30
0.0
 40
0
 41
0
  0
VERTEX
  8
0
 10
8.45367
 20
9.82172
 30
0.0
 40
0
 41
0
  0
VERTEX
  8
0
 10
8.48221
 20
9.81407
 30
0.0
 40
0
 41
0
  0
VERTEX
  8
0
 10
8.51324
 20
9.79312
 30
0.0
 40
0
 41
0
  0
VERTEX
  8
0
 10
8.53418
 20
9.7621
 30
0.0
 40
0
 41
0
  0
VERTEX
  8
0
 10
8.54189
 20
9.73361
 30
0.0
 40
0
 41
0
  0
VERTEX
  8
0
 10
8.54189
 20
9.72407
 30
0.0
 40
0
 41
0
  0
SEQEND
 8
0
  0
POLYLINE
  8
0
 62
     0
 66
     1
 10
0
 20
0
 30
0.0
 70
     1
 40
0
 41
0
  0
VERTEX
  8
0
 10
8.56597
 20
11.6918
 30
0.0
 40
0
 41
0
  0
VERTEX
  8
0
 10
8.56597
 20
11.6823
 30
0.0
 40
0
 41
0
  0
VERTEX
  8
0
 10
8.55826
 20
11.6538
 30
0.0
 40
0
 41
0
  0
VERTEX
  8
0
 10
8.53733
 20
11.6228
 30
0.0
 40
0
 41
0
  0
VERTEX
  8
0
 10
8.50629
 20
11.6018
 30
0.0
 40
0
 41
0
  0
VERTEX
  8
0
 10
8.47781
 20
11.5941
 30
0.0
 40
0
 41
0
  0
VERTEX
  8
0
 10
8.46832
 20
11.5941
 30
0.0
 40
0
 41
0
  0
VERTEX
  8
0
 10
8.45876
 20
11.5941
 30
0.0
 40
0
 41
0
  0
VERTEX
  8
0
 10
8.43028
 20
11.6018
 30
0.0
 40
0
 41
0
  0
VERTEX
  8
0
 10
8.39925
 20
11.6228
 30
0.0
 40
0
 41
0
  0
VERTEX
  8
0
 10
8.37831
 20
11.6538
 30
0.0
 40
0
 41
0
  0
VERTEX
  8
0
 10
8.37067
 20
11.6823
 30
0.0
 40
0
 41
0
  0
VERTEX
  8
0
 10
8.37067
 20
11.6918
 30
0.0
 40
0
 41
0
  0
VERTEX
  8
0
 10
8.37067
 20
11.7013
 30
0.0
 40
0
 41
0
  0
VERTEX
  8
0
 10
8.37831
 20
11.7299
 30
0.0
 40
0
 41
0
  0
VERTEX
  8
0
 10
8.39925
 20
11.7609
 30
0.0
 40
0
 41
0
  0
VERTEX
  8
0
 10
8.43028
 20
11.7818
 30
0.0
 40
0
 41
0
  0
VERTEX
  8
0
 10
8.45876
 20
11.7895
 30
0.0
 40
0
 41
0
  0
VERTEX
  8
0
 10
8.46832
 20
11.7895
 30
0.0
 40
0
 41
0
  0
VERTEX
  8
0
 10
8.47781
 20
11.7895
 30
0.0
 40
0
 41
0
  0
VERTEX
  8
0
 10
8.50629
 20
11.7818
 30
0.0
 40
0
 41
0
  0
VERTEX
  8
0
 10
8.53733
 20
11.7609
 30
0.0
 40
0
 41
0
  0
VERTEX
  8
0
 10
8.55826
 20
11.7299
 30
0.0
 40
0
 41
0
  0
VERTEX
  8
0
 10
8.56597
 20
11.7013
 30
0.0
 40
0
 41
0
  0
VERTEX
  8
0
 10
8.56597
 20
11.6918
 30
0.0
 40
0
 41
0
  0
SEQEND
 8
0
  0
ENDSEC
  0
EOF
