  0
SECTION
  2
HEADER
  9
$ACADVER
  1
AC1009
  9
$FILLMODE
 70
 0
  9
$SPLFRAME
 70
 1
  9
$EXTMIN
 10
0
 20
0
 30
0.0
  9
$EXTMAX
 10
41.6667
 20
41.6667
 30
0.0
  0
ENDSEC
  0
SECTION
  2
TABLES
  0
TABLE
  2
LAYER
 70
1
  0
LAYER
  2
0
 70
     0
 62
     7
  6
CONTINUOUS
  0
ENDTAB
  0
ENDSEC
  0
SECTION
  2
ENTITIES
  0
POLYLINE
  8
0
 62
     7
 66
     1
 10
0
 20
0
 30
0.0
 70
     1
 40
0
 41
0
  0
VERTEX
  8
0
 10
3.02208
 20
1.162
 30
0.0
 40
0
 41
0
  0
VERTEX
  8
0
 10
4.51133
 20
1.162
 30
0.0
 40
0
 41
0
  0
VERTEX
  8
0
 10
4.51133
 20
4.90907
 30
0.0
 40
0
 41
0
  0
VERTEX
  8
0
 10
2.29406
 20
4.90907
 30
0.0
 40
0
 41
0
  0
VERTEX
  8
0
 10
2.2901
 20
3.85335
 30
0.0
 40
0
 41
0
  0
VERTEX
  8
0
 10
2.67563
 20
3.85335
 30
0.0
 40
0
 41
0
  0
VERTEX
  8
0
 10
2.67563
 20
3.35921
 30
0.0
 40
0
 41
0
  0
VERTEX
  8
0
 10
3.02208
 20
3.36399
 30
0.0
 40
0
 41
0
  0
VERTEX
  8
0
 10
3.02208
 20
1.162
 30
0.0
 40
0
 41
0
  0
SEQEND
 8
0
  0
POLYLINE
  8
0
 62
     7
 66
     1
 10
0
 20
0
 30
0.0
 70
     1
 40
0.15
 41
0.15
  0
VERTEX
  8
0
 10
3.02208
 20
1.162
 30
0.0
 40
0.00208333
 41
0.00208333
  0
VERTEX
  8
0
 10
4.51133
 20
1.162
 30
0.0
 40
0.00208333
 41
0.00208333
  0
VERTEX
  8
0
 10
4.51133
 20
4.90907
 30
0.0
 40
0.00208333
 41
0.00208333
  0
VERTEX
  8
0
 10
2.29406
 20
4.90907
 30
0.0
 40
0.00208333
 41
0.00208333
  0
VERTEX
  8
0
 10
2.2901
 20
3.85335
 30
0.0
 40
0.00208333
 41
0.00208333
  0
VERTEX
  8
0
 10
2.67563
 20
3.85335
 30
0.0
 40
0.00208333
 41
0.00208333
  0
VERTEX
  8
0
 10
2.67563
 20
3.35921
 30
0.0
 40
0.00208333
 41
0.00208333
  0
VERTEX
  8
0
 10
3.02208
 20
3.36399
 30
0.0
 40
0.00208333
 41
0.00208333
  0
VERTEX
  8
0
 10
3.02208
 20
1.162
 30
0.0
 40
0.00208333
 41
0.00208333
  0
SEQEND
 8
0
  0
TEXT
  8
0
 62
     0
 10
3.38765
 20
3.81403
 30
0.0
 40
0.34375
  1
ET
 50
0
  0
POLYLINE
  8
0
 62
     7
 66
     1
 10
0
 20
0
 30
0.0
 70
     1
 40
0
 41
0
  0
VERTEX
  8
0
 10
2.70865
 20
10.8296
 30
0.0
 40
0
 41
0
  0
VERTEX
  8
0
 10
5.86074
 20
10.8296
 30
0.0
 40
0
 41
0
  0
VERTEX
  8
0
 10
5.86074
 20
8.94993
 30
0.0
 40
0
 41
0
  0
VERTEX
  8
0
 10
2.70865
 20
8.94993
 30
0.0
 40
0
 41
0
  0
VERTEX
  8
0
 10
2.70865
 20
10.8296
 30
0.0
 40
0
 41
0
  0
SEQEND
 8
0
  0
POLYLINE
  8
0
 62
     0
 66
     1
 10
0
 20
0
 30
0.0
 70
     1
 40
0.15
 41
0.15
  0
VERTEX
  8
0
 10
2.70865
 20
10.8296
 30
0.0
 40
0.00208333
 41
0.00208333
  0
VERTEX
  8
0
 10
5.86074
 20
10.8296
 30
0.0
 40
0.00208333
 41
0.00208333
  0
VERTEX
  8
0
 10
5.86074
 20
8.94993
 30
0.0
 40
0.00208333
 41
0.00208333
  0
VERTEX
  8
0
 10
2.70865
 20
8.94993
 30
0.0
 40
0.00208333
 41
0.00208333
  0
VERTEX
  8
0
 10
2.70865
 20
10.8296
 30
0.0
 40
0.00208333
 41
0.00208333
  0
SEQEND
 8
0
  0
TEXT
  8
0
 62
     0
 10
4.28468
 20
9.88974
 30
0.0
 40
0.34375
  1
ULK
 50
0
  0
TEXT
  8
0
 62
     0
 10
4.96229
 20
9.88974
 30
0.0
 40
0.34375
  1
O
 50
0
  0
TEXT
  8
0
 62
     0
 10
5.2246
 20
9.88974
 30
0.0
 40
0.34375
  1
TILA
 50
0
  0
POLYLINE
  8
0
 62
     7
 66
     1
 10
0
 20
0
 30
0.0
 70
     1
 40
0
 41
0
  0
VERTEX
  8
0
 10
5.85032
 20
1.60129
 30
0.0
 40
0
 41
0
  0
VERTEX
  8
0
 10
5.22592
 20
1.60129
 30
0.0
 40
0
 41
0
  0
VERTEX
  8
0
 10
5.22592
 20
1.162
 30
0.0
 40
0
 41
0
  0
VERTEX
  8
0
 10
4.50575
 20
1.162
 30
0.0
 40
0
 41
0
  0
VERTEX
  8
0
 10
4.50575
 20
4.90543
 30
0.0
 40
0
 41
0
  0
VERTEX
  8
0
 10
5.85032
 20
4.90543
 30
0.0
 40
0
 41
0
  0
VERTEX
  8
0
 10
5.85032
 20
1.60129
 30
0.0
 40
0
 41
0
  0
SEQEND
 8
0
  0
POLYLINE
  8
0
 62
     7
 66
     1
 10
0
 20
0
 30
0.0
 70
     1
 40
0.15
 41
0.15
  0
VERTEX
  8
0
 10
5.85032
 20
1.60129
 30
0.0
 40
0.00208333
 41
0.00208333
  0
VERTEX
  8
0
 10
5.22592
 20
1.60129
 30
0.0
 40
0.00208333
 41
0.00208333
  0
VERTEX
  8
0
 10
5.22592
 20
1.162
 30
0.0
 40
0.00208333
 41
0.00208333
  0
VERTEX
  8
0
 10
4.50575
 20
1.162
 30
0.0
 40
0.00208333
 41
0.00208333
  0
VERTEX
  8
0
 10
4.50575
 20
4.90543
 30
0.0
 40
0.00208333
 41
0.00208333
  0
VERTEX
  8
0
 10
5.85032
 20
4.90543
 30
0.0
 40
0.00208333
 41
0.00208333
  0
VERTEX
  8
0
 10
5.85032
 20
1.60129
 30
0.0
 40
0.00208333
 41
0.00208333
  0
SEQEND
 8
0
  0
TEXT
  8
0
 62
     0
 10
4.74701
 20
3.08158
 30
0.0
 40
0.34375
  1
K
 50
0
  0
POLYLINE
  8
0
 62
     7
 66
     1
 10
0
 20
0
 30
0.0
 70
     1
 40
0
 41
0
  0
VERTEX
  8
0
 10
5.85032
 20
4.90543
 30
0.0
 40
0
 41
0
  0
VERTEX
  8
0
 10
3.01833
 20
4.90543
 30
0.0
 40
0
 41
0
  0
VERTEX
  8
0
 10
3.01833
 20
4.91889
 30
0.0
 40
0
 41
0
  0
VERTEX
  8
0
 10
3.00749
 20
4.91889
 30
0.0
 40
0
 41
0
  0
VERTEX
  8
0
 10
3.00749
 20
5.84744
 30
0.0
 40
0
 41
0
  0
VERTEX
  8
0
 10
3.01981
 20
5.84744
 30
0.0
 40
0
 41
0
  0
VERTEX
  8
0
 10
3.01981
 20
8.46035
 30
0.0
 40
0
 41
0
  0
VERTEX
  8
0
 10
5.85032
 20
8.46035
 30
0.0
 40
0
 41
0
  0
VERTEX
  8
0
 10
5.85032
 20
4.90543
 30
0.0
 40
0
 41
0
  0
SEQEND
 8
0
  0
POLYLINE
  8
0
 62
     7
 66
     1
 10
0
 20
0
 30
0.0
 70
     1
 40
0.15
 41
0.15
  0
VERTEX
  8
0
 10
5.85032
 20
4.90543
 30
0.0
 40
0.00208333
 41
0.00208333
  0
VERTEX
  8
0
 10
3.01833
 20
4.90543
 30
0.0
 40
0.00208333
 41
0.00208333
  0
VERTEX
  8
0
 10
3.01833
 20
4.91889
 30
0.0
 40
0.00208333
 41
0.00208333
  0
VERTEX
  8
0
 10
3.00749
 20
4.91889
 30
0.0
 40
0.00208333
 41
0.00208333
  0
VERTEX
  8
0
 10
3.00749
 20
5.84744
 30
0.0
 40
0.00208333
 41
0.00208333
  0
VERTEX
  8
0
 10
3.01981
 20
5.84744
 30
0.0
 40
0.00208333
 41
0.00208333
  0
VERTEX
  8
0
 10
3.01981
 20
8.46035
 30
0.0
 40
0.00208333
 41
0.00208333
  0
VERTEX
  8
0
 10
5.85032
 20
8.46035
 30
0.0
 40
0.00208333
 41
0.00208333
  0
VERTEX
  8
0
 10
5.85032
 20
4.90543
 30
0.0
 40
0.00208333
 41
0.00208333
  0
SEQEND
 8
0
  0
TEXT
  8
0
 62
     0
 10
4.17892
 20
6.57996
 30
0.0
 40
0.34375
  1
OH
 50
0
  0
POLYLINE
  8
0
 62
     7
 66
     1
 10
0
 20
0
 30
0.0
 70
     1
 40
0
 41
0
  0
VERTEX
  8
0
 10
2.92606
 20
5.84744
 30
0.0
 40
0
 41
0
  0
VERTEX
  8
0
 10
3.00749
 20
5.84744
 30
0.0
 40
0
 41
0
  0
VERTEX
  8
0
 10
3.00749
 20
4.91889
 30
0.0
 40
0
 41
0
  0
VERTEX
  8
0
 10
0.619249
 20
4.91889
 30
0.0
 40
0
 41
0
  0
VERTEX
  8
0
 10
0.633626
 20
8.46035
 30
0.0
 40
0
 41
0
  0
VERTEX
  8
0
 10
2.92606
 20
8.46035
 30
0.0
 40
0
 41
0
  0
VERTEX
  8
0
 10
2.92606
 20
5.84744
 30
0.0
 40
0
 41
0
  0
SEQEND
 8
0
  0
POLYLINE
  8
0
 62
     7
 66
     1
 10
0
 20
0
 30
0.0
 70
     1
 40
0.15
 41
0.15
  0
VERTEX
  8
0
 10
2.92606
 20
5.84744
 30
0.0
 40
0.00208333
 41
0.00208333
  0
VERTEX
  8
0
 10
3.00749
 20
5.84744
 30
0.0
 40
0.00208333
 41
0.00208333
  0
VERTEX
  8
0
 10
3.00749
 20
4.91889
 30
0.0
 40
0.00208333
 41
0.00208333
  0
VERTEX
  8
0
 10
0.619249
 20
4.91889
 30
0.0
 40
0.00208333
 41
0.00208333
  0
VERTEX
  8
0
 10
0.633626
 20
8.46035
 30
0.0
 40
0.00208333
 41
0.00208333
  0
VERTEX
  8
0
 10
2.92606
 20
8.46035
 30
0.0
 40
0.00208333
 41
0.00208333
  0
VERTEX
  8
0
 10
2.92606
 20
5.84744
 30
0.0
 40
0.00208333
 41
0.00208333
  0
SEQEND
 8
0
  0
TEXT
  8
0
 62
     0
 10
1.53262
 20
6.62358
 30
0.0
 40
0.34375
  1
MH
 50
0
  0
POLYLINE
  8
0
 62
     7
 66
     1
 10
0
 20
0
 30
0.0
 70
     1
 40
0
 41
0
  0
VERTEX
  8
0
 10
0.712999
 20
3.27024
 30
0.0
 40
0
 41
0
  0
VERTEX
  8
0
 10
2.92833
 20
3.27024
 30
0.0
 40
0
 41
0
  0
VERTEX
  8
0
 10
2.92833
 20
1.287
 30
0.0
 40
0
 41
0
  0
VERTEX
  8
0
 10
0.712999
 20
1.287
 30
0.0
 40
0
 41
0
  0
VERTEX
  8
0
 10
0.712999
 20
3.27024
 30
0.0
 40
0
 41
0
  0
SEQEND
 8
0
  0
POLYLINE
  8
0
 62
     7
 66
     1
 10
0
 20
0
 30
0.0
 70
     1
 40
0.15
 41
0.15
  0
VERTEX
  8
0
 10
0.712999
 20
3.27024
 30
0.0
 40
0.00208333
 41
0.00208333
  0
VERTEX
  8
0
 10
2.92833
 20
3.27024
 30
0.0
 40
0.00208333
 41
0.00208333
  0
VERTEX
  8
0
 10
2.92833
 20
1.287
 30
0.0
 40
0.00208333
 41
0.00208333
  0
VERTEX
  8
0
 10
0.712999
 20
1.287
 30
0.0
 40
0.00208333
 41
0.00208333
  0
VERTEX
  8
0
 10
0.712999
 20
3.27024
 30
0.0
 40
0.00208333
 41
0.00208333
  0
SEQEND
 8
0
  0
TEXT
  8
0
 62
     0
 10
1.63478
 20
2.38054
 30
0.0
 40
0.34375
  1
SH
 50
0
  0
POLYLINE
  8
0
 62
     7
 66
     1
 10
0
 20
0
 30
0.0
 70
     1
 40
0
 41
0
  0
VERTEX
  8
0
 10
2.19596
 20
3.36399
 30
0.0
 40
0
 41
0
  0
VERTEX
  8
0
 10
1.33502
 20
3.36399
 30
0.0
 40
0
 41
0
  0
VERTEX
  8
0
 10
1.33502
 20
3.76921
 30
0.0
 40
0
 41
0
  0
VERTEX
  8
0
 10
0.619249
 20
3.76921
 30
0.0
 40
0
 41
0
  0
VERTEX
  8
0
 10
0.619249
 20
4.56754
 30
0.0
 40
0
 41
0
  0
VERTEX
  8
0
 10
0.894476
 20
4.56754
 30
0.0
 40
0
 41
0
  0
VERTEX
  8
0
 10
0.894476
 20
4.82514
 30
0.0
 40
0
 41
0
  0
VERTEX
  8
0
 10
2.19596
 20
4.82514
 30
0.0
 40
0
 41
0
  0
VERTEX
  8
0
 10
2.19596
 20
3.36399
 30
0.0
 40
0
 41
0
  0
SEQEND
 8
0
  0
POLYLINE
  8
0
 62
     7
 66
     1
 10
0
 20
0
 30
0.0
 70
     1
 40
0.15
 41
0.15
  0
VERTEX
  8
0
 10
2.19596
 20
3.36399
 30
0.0
 40
0.00208333
 41
0.00208333
  0
VERTEX
  8
0
 10
1.33502
 20
3.36399
 30
0.0
 40
0.00208333
 41
0.00208333
  0
VERTEX
  8
0
 10
1.33502
 20
3.76921
 30
0.0
 40
0.00208333
 41
0.00208333
  0
VERTEX
  8
0
 10
0.619249
 20
3.76921
 30
0.0
 40
0.00208333
 41
0.00208333
  0
VERTEX
  8
0
 10
0.619249
 20
4.56754
 30
0.0
 40
0.00208333
 41
0.00208333
  0
VERTEX
  8
0
 10
0.894476
 20
4.56754
 30
0.0
 40
0.00208333
 41
0.00208333
  0
VERTEX
  8
0
 10
0.894476
 20
4.82514
 30
0.0
 40
0.00208333
 41
0.00208333
  0
VERTEX
  8
0
 10
2.19596
 20
4.82514
 30
0.0
 40
0.00208333
 41
0.00208333
  0
VERTEX
  8
0
 10
2.19596
 20
3.36399
 30
0.0
 40
0.00208333
 41
0.00208333
  0
SEQEND
 8
0
  0
TEXT
  8
0
 62
     0
 10
1.4511
 20
4.12758
 30
0.0
 40
0.34375
  1
VH
 50
0
  0
POLYLINE
  8
0
 62
     0
 66
     1
 10
0
 20
0
 30
0.0
 70
     1
 40
0
 41
0
  0
VERTEX
  8
0
 10
0.405925
 20
8.94993
 30
0.0
 40
0
 41
0
  0
VERTEX
  8
0
 10
6.04824
 20
8.94993
 30
0.0
 40
0
 41
0
  0
VERTEX
  8
0
 10
5.85032
 20
8.46035
 30
0.0
 40
0
 41
0
  0
VERTEX
  8
0
 10
0.633626
 20
8.46035
 30
0.0
 40
0
 41
0
  0
VERTEX
  8
0
 10
0.405925
 20
8.94993
 30
0.0
 40
0
 41
0
  0
SEQEND
 8
0
  0
POLYLINE
  8
0
 62
     0
 66
     1
 10
0
 20
0
 30
0.0
 70
     1
 40
0.15
 41
0.15
  0
VERTEX
  8
0
 10
0.405925
 20
8.94993
 30
0.0
 40
0.00208333
 41
0.00208333
  0
VERTEX
  8
0
 10
6.04824
 20
8.94993
 30
0.0
 40
0.00208333
 41
0.00208333
  0
VERTEX
  8
0
 10
5.85032
 20
8.46035
 30
0.0
 40
0.00208333
 41
0.00208333
  0
VERTEX
  8
0
 10
0.633626
 20
8.46035
 30
0.0
 40
0.00208333
 41
0.00208333
  0
VERTEX
  8
0
 10
0.405925
 20
8.94993
 30
0.0
 40
0.00208333
 41
0.00208333
  0
SEQEND
 8
0
  0
POLYLINE
  8
0
 62
     7
 66
     1
 10
0
 20
0
 30
0.0
 70
     1
 40
0
 41
0
  0
VERTEX
  8
0
 10
3.27219
 20
8.94993
 30
0.0
 40
0
 41
0
  0
VERTEX
  8
0
 10
4.19635
 20
8.94993
 30
0.0
 40
0
 41
0
  0
VERTEX
  8
0
 10
4.19635
 20
8.46035
 30
0.0
 40
0
 41
0
  0
VERTEX
  8
0
 10
3.27219
 20
8.46035
 30
0.0
 40
0
 41
0
  0
VERTEX
  8
0
 10
3.27219
 20
8.94993
 30
0.0
 40
0
 41
0
  0
SEQEND
 8
0
  0
POLYLINE
  8
0
 62
     0
 66
     1
 10
0
 20
0
 30
0.0
 70
     1
 40
0.75
 41
0.75
  0
VERTEX
  8
0
 10
3.27219
 20
8.94993
 30
0.0
 40
0.0104167
 41
0.0104167
  0
VERTEX
  8
0
 10
4.19635
 20
8.94993
 30
0.0
 40
0.0104167
 41
0.0104167
  0
VERTEX
  8
0
 10
4.19635
 20
8.46035
 30
0.0
 40
0.0104167
 41
0.0104167
  0
VERTEX
  8
0
 10
3.27219
 20
8.46035
 30
0.0
 40
0.0104167
 41
0.0104167
  0
VERTEX
  8
0
 10
3.27219
 20
8.94993
 30
0.0
 40
0.0104167
 41
0.0104167
  0
SEQEND
 8
0
  0
POLYLINE
  8
0
 62
     7
 66
     1
 10
0
 20
0
 30
0.0
 70
     1
 40
0
 41
0
  0
VERTEX
  8
0
 10
3.27219
 20
8.94993
 30
0.0
 40
0
 41
0
  0
VERTEX
  8
0
 10
4.19635
 20
8.94993
 30
0.0
 40
0
 41
0
  0
VERTEX
  8
0
 10
4.19635
 20
8.46035
 30
0.0
 40
0
 41
0
  0
VERTEX
  8
0
 10
3.27219
 20
8.46035
 30
0.0
 40
0
 41
0
  0
VERTEX
  8
0
 10
3.27219
 20
8.94993
 30
0.0
 40
0
 41
0
  0
SEQEND
 8
0
  0
POLYLINE
  8
0
 62
     0
 66
     1
 10
0
 20
0
 30
0.0
 70
     1
 40
0.75
 41
0.75
  0
VERTEX
  8
0
 10
3.27219
 20
8.94993
 30
0.0
 40
0.0104167
 41
0.0104167
  0
VERTEX
  8
0
 10
4.19635
 20
8.94993
 30
0.0
 40
0.0104167
 41
0.0104167
  0
VERTEX
  8
0
 10
4.19635
 20
8.46035
 30
0.0
 40
0.0104167
 41
0.0104167
  0
VERTEX
  8
0
 10
3.27219
 20
8.46035
 30
0.0
 40
0.0104167
 41
0.0104167
  0
VERTEX
  8
0
 10
3.27219
 20
8.94993
 30
0.0
 40
0.0104167
 41
0.0104167
  0
SEQEND
 8
0
  0
POLYLINE
  8
0
 62
     0
 66
     1
 10
0
 20
0
 30
0.0
 70
     1
 40
0.75
 41
0.75
  0
VERTEX
  8
0
 10
4.19635
 20
8.94993
 30
0.0
 40
0.0104167
 41
0.0104167
  0
VERTEX
  8
0
 10
4.19635
 20
9.00407
 30
0.0
 40
0.0104167
 41
0.0104167
  0
VERTEX
  8
0
 10
4.18186
 20
9.1665
 30
0.0
 40
0.0104167
 41
0.0104167
  0
VERTEX
  8
0
 10
4.13857
 20
9.35422
 30
0.0
 40
0.0104167
 41
0.0104167
  0
VERTEX
  8
0
 10
4.06635
 20
9.51307
 30
0.0
 40
0.0104167
 41
0.0104167
  0
VERTEX
  8
0
 10
3.96533
 20
9.64301
 30
0.0
 40
0.0104167
 41
0.0104167
  0
VERTEX
  8
0
 10
3.83539
 20
9.74403
 30
0.0
 40
0.0104167
 41
0.0104167
  0
VERTEX
  8
0
 10
3.67654
 20
9.81625
 30
0.0
 40
0.0104167
 41
0.0104167
  0
VERTEX
  8
0
 10
3.48882
 20
9.85954
 30
0.0
 40
0.0104167
 41
0.0104167
  0
VERTEX
  8
0
 10
3.32639
 20
9.87397
 30
0.0
 40
0.0104167
 41
0.0104167
  0
VERTEX
  8
0
 10
3.27229
 20
9.87397
 30
0.0
 40
0.0104167
 41
0.0104167
  0
VERTEX
  8
0
 10
3.27229
 20
8.94993
 30
0.0
 40
0.0104167
 41
0.0104167
  0
VERTEX
  8
0
 10
4.19635
 20
8.94993
 30
0.0
 40
0.0104167
 41
0.0104167
  0
SEQEND
 8
0
  0
POLYLINE
  8
0
 62
     7
 66
     1
 10
0
 20
0
 30
0.0
 70
     1
 40
0
 41
0
  0
VERTEX
  8
0
 10
1.25206
 20
8.94993
 30
0.0
 40
0
 41
0
  0
VERTEX
  8
0
 10
2.19769
 20
8.94993
 30
0.0
 40
0
 41
0
  0
VERTEX
  8
0
 10
2.19769
 20
8.46035
 30
0.0
 40
0
 41
0
  0
VERTEX
  8
0
 10
1.25206
 20
8.46035
 30
0.0
 40
0
 41
0
  0
VERTEX
  8
0
 10
1.25206
 20
8.94993
 30
0.0
 40
0
 41
0
  0
SEQEND
 8
0
  0
POLYLINE
  8
0
 62
     0
 66
     1
 10
0
 20
0
 30
0.0
 70
     1
 40
0.75
 41
0.75
  0
VERTEX
  8
0
 10
1.25206
 20
8.94993
 30
0.0
 40
0.0104167
 41
0.0104167
  0
VERTEX
  8
0
 10
2.19769
 20
8.94993
 30
0.0
 40
0.0104167
 41
0.0104167
  0
VERTEX
  8
0
 10
2.19769
 20
8.46035
 30
0.0
 40
0.0104167
 41
0.0104167
  0
VERTEX
  8
0
 10
1.25206
 20
8.46035
 30
0.0
 40
0.0104167
 41
0.0104167
  0
VERTEX
  8
0
 10
1.25206
 20
8.94993
 30
0.0
 40
0.0104167
 41
0.0104167
  0
SEQEND
 8
0
  0
POLYLINE
  8
0
 62
     7
 66
     1
 10
0
 20
0
 30
0.0
 70
     1
 40
0
 41
0
  0
VERTEX
  8
0
 10
1.25206
 20
8.94993
 30
0.0
 40
0
 41
0
  0
VERTEX
  8
0
 10
2.19769
 20
8.94993
 30
0.0
 40
0
 41
0
  0
VERTEX
  8
0
 10
2.19769
 20
8.46035
 30
0.0
 40
0
 41
0
  0
VERTEX
  8
0
 10
1.25206
 20
8.46035
 30
0.0
 40
0
 41
0
  0
VERTEX
  8
0
 10
1.25206
 20
8.94993
 30
0.0
 40
0
 41
0
  0
SEQEND
 8
0
  0
POLYLINE
  8
0
 62
     0
 66
     1
 10
0
 20
0
 30
0.0
 70
     1
 40
0.75
 41
0.75
  0
VERTEX
  8
0
 10
1.25206
 20
8.94993
 30
0.0
 40
0.0104167
 41
0.0104167
  0
VERTEX
  8
0
 10
2.19769
 20
8.94993
 30
0.0
 40
0.0104167
 41
0.0104167
  0
VERTEX
  8
0
 10
2.19769
 20
8.46035
 30
0.0
 40
0.0104167
 41
0.0104167
  0
VERTEX
  8
0
 10
1.25206
 20
8.46035
 30
0.0
 40
0.0104167
 41
0.0104167
  0
VERTEX
  8
0
 10
1.25206
 20
8.94993
 30
0.0
 40
0.0104167
 41
0.0104167
  0
SEQEND
 8
0
  0
POLYLINE
  8
0
 62
     0
 66
     1
 10
0
 20
0
 30
0.0
 40
0.75
 41
0.75
  0
VERTEX
  8
0
 10
1.33019
 20
8.70514
 30
0.0
 40
0.0104167
 41
0.0104167
  0
VERTEX
  8
0
 10
2.11957
 20
8.70514
 30
0.0
 40
0.0104167
 41
0.0104167
  0
SEQEND
 8
0
  0
POLYLINE
  8
0
 62
     0
 66
     1
 10
0
 20
0
 30
0.0
 40
0.75
 41
0.75
  0
VERTEX
  8
0
 10
1.33019
 20
8.94993
 30
0.0
 40
0.0104167
 41
0.0104167
  0
VERTEX
  8
0
 10
1.33019
 20
8.46035
 30
0.0
 40
0.0104167
 41
0.0104167
  0
SEQEND
 8
0
  0
POLYLINE
  8
0
 62
     0
 66
     1
 10
0
 20
0
 30
0.0
 40
0.75
 41
0.75
  0
VERTEX
  8
0
 10
2.11957
 20
8.94993
 30
0.0
 40
0.0104167
 41
0.0104167
  0
VERTEX
  8
0
 10
2.11957
 20
8.46035
 30
0.0
 40
0.0104167
 41
0.0104167
  0
SEQEND
 8
0
  0
POLYLINE
  8
0
 62
     7
 66
     1
 10
0
 20
0
 30
0.0
 70
     1
 40
0
 41
0
  0
VERTEX
  8
0
 10
2.19769
 20
8.94993
 30
0.0
 40
0
 41
0
  0
VERTEX
  8
0
 10
2.53792
 20
8.94993
 30
0.0
 40
0
 41
0
  0
VERTEX
  8
0
 10
2.53792
 20
8.46035
 30
0.0
 40
0
 41
0
  0
VERTEX
  8
0
 10
2.19769
 20
8.46035
 30
0.0
 40
0
 41
0
  0
VERTEX
  8
0
 10
2.19769
 20
8.94993
 30
0.0
 40
0
 41
0
  0
SEQEND
 8
0
  0
POLYLINE
  8
0
 62
     0
 66
     1
 10
0
 20
0
 30
0.0
 70
     1
 40
0.75
 41
0.75
  0
VERTEX
  8
0
 10
2.19769
 20
8.94993
 30
0.0
 40
0.0104167
 41
0.0104167
  0
VERTEX
  8
0
 10
2.53792
 20
8.94993
 30
0.0
 40
0.0104167
 41
0.0104167
  0
VERTEX
  8
0
 10
2.53792
 20
8.46035
 30
0.0
 40
0.0104167
 41
0.0104167
  0
VERTEX
  8
0
 10
2.19769
 20
8.46035
 30
0.0
 40
0.0104167
 41
0.0104167
  0
VERTEX
  8
0
 10
2.19769
 20
8.94993
 30
0.0
 40
0.0104167
 41
0.0104167
  0
SEQEND
 8
0
  0
POLYLINE
  8
0
 62
     7
 66
     1
 10
0
 20
0
 30
0.0
 70
     1
 40
0
 41
0
  0
VERTEX
  8
0
 10
2.19769
 20
8.94993
 30
0.0
 40
0
 41
0
  0
VERTEX
  8
0
 10
2.53792
 20
8.94993
 30
0.0
 40
0
 41
0
  0
VERTEX
  8
0
 10
2.53792
 20
8.46035
 30
0.0
 40
0
 41
0
  0
VERTEX
  8
0
 10
2.19769
 20
8.46035
 30
0.0
 40
0
 41
0
  0
VERTEX
  8
0
 10
2.19769
 20
8.94993
 30
0.0
 40
0
 41
0
  0
SEQEND
 8
0
  0
POLYLINE
  8
0
 62
     0
 66
     1
 10
0
 20
0
 30
0.0
 70
     1
 40
0.75
 41
0.75
  0
VERTEX
  8
0
 10
2.19769
 20
8.94993
 30
0.0
 40
0.0104167
 41
0.0104167
  0
VERTEX
  8
0
 10
2.53792
 20
8.94993
 30
0.0
 40
0.0104167
 41
0.0104167
  0
VERTEX
  8
0
 10
2.53792
 20
8.46035
 30
0.0
 40
0.0104167
 41
0.0104167
  0
VERTEX
  8
0
 10
2.19769
 20
8.46035
 30
0.0
 40
0.0104167
 41
0.0104167
  0
VERTEX
  8
0
 10
2.19769
 20
8.94993
 30
0.0
 40
0.0104167
 41
0.0104167
  0
SEQEND
 8
0
  0
POLYLINE
  8
0
 62
     0
 66
     1
 10
0
 20
0
 30
0.0
 40
0.75
 41
0.75
  0
VERTEX
  8
0
 10
2.27582
 20
8.70514
 30
0.0
 40
0.0104167
 41
0.0104167
  0
VERTEX
  8
0
 10
2.45985
 20
8.70514
 30
0.0
 40
0.0104167
 41
0.0104167
  0
SEQEND
 8
0
  0
POLYLINE
  8
0
 62
     0
 66
     1
 10
0
 20
0
 30
0.0
 40
0.75
 41
0.75
  0
VERTEX
  8
0
 10
2.27582
 20
8.94993
 30
0.0
 40
0.0104167
 41
0.0104167
  0
VERTEX
  8
0
 10
2.27582
 20
8.46035
 30
0.0
 40
0.0104167
 41
0.0104167
  0
SEQEND
 8
0
  0
POLYLINE
  8
0
 62
     0
 66
     1
 10
0
 20
0
 30
0.0
 40
0.75
 41
0.75
  0
VERTEX
  8
0
 10
2.45985
 20
8.94993
 30
0.0
 40
0.0104167
 41
0.0104167
  0
VERTEX
  8
0
 10
2.45985
 20
8.46035
 30
0.0
 40
0.0104167
 41
0.0104167
  0
SEQEND
 8
0
  0
POLYLINE
  8
0
 62
     7
 66
     1
 10
0
 20
0
 30
0.0
 70
     1
 40
0
 41
0
  0
VERTEX
  8
0
 10
4.2895
 20
8.94993
 30
0.0
 40
0
 41
0
  0
VERTEX
  8
0
 10
5.41064
 20
8.94993
 30
0.0
 40
0
 41
0
  0
VERTEX
  8
0
 10
5.41064
 20
8.46035
 30
0.0
 40
0
 41
0
  0
VERTEX
  8
0
 10
4.2895
 20
8.46035
 30
0.0
 40
0
 41
0
  0
VERTEX
  8
0
 10
4.2895
 20
8.94993
 30
0.0
 40
0
 41
0
  0
SEQEND
 8
0
  0
POLYLINE
  8
0
 62
     0
 66
     1
 10
0
 20
0
 30
0.0
 70
     1
 40
0.75
 41
0.75
  0
VERTEX
  8
0
 10
4.2895
 20
8.94993
 30
0.0
 40
0.0104167
 41
0.0104167
  0
VERTEX
  8
0
 10
5.41064
 20
8.94993
 30
0.0
 40
0.0104167
 41
0.0104167
  0
VERTEX
  8
0
 10
5.41064
 20
8.46035
 30
0.0
 40
0.0104167
 41
0.0104167
  0
VERTEX
  8
0
 10
4.2895
 20
8.46035
 30
0.0
 40
0.0104167
 41
0.0104167
  0
VERTEX
  8
0
 10
4.2895
 20
8.94993
 30
0.0
 40
0.0104167
 41
0.0104167
  0
SEQEND
 8
0
  0
POLYLINE
  8
0
 62
     7
 66
     1
 10
0
 20
0
 30
0.0
 70
     1
 40
0
 41
0
  0
VERTEX
  8
0
 10
4.2895
 20
8.94993
 30
0.0
 40
0
 41
0
  0
VERTEX
  8
0
 10
5.41064
 20
8.94993
 30
0.0
 40
0
 41
0
  0
VERTEX
  8
0
 10
5.41064
 20
8.46035
 30
0.0
 40
0
 41
0
  0
VERTEX
  8
0
 10
4.2895
 20
8.46035
 30
0.0
 40
0
 41
0
  0
VERTEX
  8
0
 10
4.2895
 20
8.94993
 30
0.0
 40
0
 41
0
  0
SEQEND
 8
0
  0
POLYLINE
  8
0
 62
     0
 66
     1
 10
0
 20
0
 30
0.0
 70
     1
 40
0.75
 41
0.75
  0
VERTEX
  8
0
 10
4.2895
 20
8.94993
 30
0.0
 40
0.0104167
 41
0.0104167
  0
VERTEX
  8
0
 10
5.41064
 20
8.94993
 30
0.0
 40
0.0104167
 41
0.0104167
  0
VERTEX
  8
0
 10
5.41064
 20
8.46035
 30
0.0
 40
0.0104167
 41
0.0104167
  0
VERTEX
  8
0
 10
4.2895
 20
8.46035
 30
0.0
 40
0.0104167
 41
0.0104167
  0
VERTEX
  8
0
 10
4.2895
 20
8.94993
 30
0.0
 40
0.0104167
 41
0.0104167
  0
SEQEND
 8
0
  0
POLYLINE
  8
0
 62
     0
 66
     1
 10
0
 20
0
 30
0.0
 40
0.75
 41
0.75
  0
VERTEX
  8
0
 10
4.36762
 20
8.70514
 30
0.0
 40
0.0104167
 41
0.0104167
  0
VERTEX
  8
0
 10
5.33247
 20
8.70514
 30
0.0
 40
0.0104167
 41
0.0104167
  0
SEQEND
 8
0
  0
POLYLINE
  8
0
 62
     0
 66
     1
 10
0
 20
0
 30
0.0
 40
0.75
 41
0.75
  0
VERTEX
  8
0
 10
4.36762
 20
8.94993
 30
0.0
 40
0.0104167
 41
0.0104167
  0
VERTEX
  8
0
 10
4.36762
 20
8.46035
 30
0.0
 40
0.0104167
 41
0.0104167
  0
SEQEND
 8
0
  0
POLYLINE
  8
0
 62
     0
 66
     1
 10
0
 20
0
 30
0.0
 40
0.75
 41
0.75
  0
VERTEX
  8
0
 10
5.33247
 20
8.94993
 30
0.0
 40
0.0104167
 41
0.0104167
  0
VERTEX
  8
0
 10
5.33247
 20
8.46035
 30
0.0
 40
0.0104167
 41
0.0104167
  0
SEQEND
 8
0
  0
POLYLINE
  8
0
 62
     0
 66
     1
 10
0
 20
0
 30
0.0
 70
     1
 40
0
 41
0
  0
VERTEX
  8
0
 10
6.04824
 20
8.94993
 30
0.0
 40
0
 41
0
  0
VERTEX
  8
0
 10
6.04824
 20
0.964085
 30
0.0
 40
0
 41
0
  0
VERTEX
  8
0
 10
5.85032
 20
1.60129
 30
0.0
 40
0
 41
0
  0
VERTEX
  8
0
 10
5.85032
 20
8.46035
 30
0.0
 40
0
 41
0
  0
VERTEX
  8
0
 10
6.04824
 20
8.94993
 30
0.0
 40
0
 41
0
  0
SEQEND
 8
0
  0
POLYLINE
  8
0
 62
     0
 66
     1
 10
0
 20
0
 30
0.0
 70
     1
 40
0.15
 41
0.15
  0
VERTEX
  8
0
 10
6.04824
 20
8.94993
 30
0.0
 40
0.00208333
 41
0.00208333
  0
VERTEX
  8
0
 10
6.04824
 20
0.964085
 30
0.0
 40
0.00208333
 41
0.00208333
  0
VERTEX
  8
0
 10
5.85032
 20
1.60129
 30
0.0
 40
0.00208333
 41
0.00208333
  0
VERTEX
  8
0
 10
5.85032
 20
8.46035
 30
0.0
 40
0.00208333
 41
0.00208333
  0
VERTEX
  8
0
 10
6.04824
 20
8.94993
 30
0.0
 40
0.00208333
 41
0.00208333
  0
SEQEND
 8
0
  0
POLYLINE
  8
0
 62
     0
 66
     1
 10
0
 20
0
 30
0.0
 70
     1
 40
0
 41
0
  0
VERTEX
  8
0
 10
6.04824
 20
0.964085
 30
0.0
 40
0
 41
0
  0
VERTEX
  8
0
 10
5.22592
 20
0.964085
 30
0.0
 40
0
 41
0
  0
VERTEX
  8
0
 10
5.22592
 20
1.60129
 30
0.0
 40
0
 41
0
  0
VERTEX
  8
0
 10
5.85032
 20
1.60129
 30
0.0
 40
0
 41
0
  0
VERTEX
  8
0
 10
6.04824
 20
0.964085
 30
0.0
 40
0
 41
0
  0
SEQEND
 8
0
  0
POLYLINE
  8
0
 62
     0
 66
     1
 10
0
 20
0
 30
0.0
 70
     1
 40
0.15
 41
0.15
  0
VERTEX
  8
0
 10
6.04824
 20
0.964085
 30
0.0
 40
0.00208333
 41
0.00208333
  0
VERTEX
  8
0
 10
5.22592
 20
0.964085
 30
0.0
 40
0.00208333
 41
0.00208333
  0
VERTEX
  8
0
 10
5.22592
 20
1.60129
 30
0.0
 40
0.00208333
 41
0.00208333
  0
VERTEX
  8
0
 10
5.85032
 20
1.60129
 30
0.0
 40
0.00208333
 41
0.00208333
  0
VERTEX
  8
0
 10
6.04824
 20
0.964085
 30
0.0
 40
0.00208333
 41
0.00208333
  0
SEQEND
 8
0
  0
POLYLINE
  8
0
 62
     0
 66
     1
 10
0
 20
0
 30
0.0
 70
     1
 40
0
 41
0
  0
VERTEX
  8
0
 10
3.02208
 20
1.162
 30
0.0
 40
0
 41
0
  0
VERTEX
  8
0
 10
5.22592
 20
1.162
 30
0.0
 40
0
 41
0
  0
VERTEX
  8
0
 10
5.22592
 20
0.964085
 30
0.0
 40
0
 41
0
  0
VERTEX
  8
0
 10
3.02208
 20
0.964085
 30
0.0
 40
0
 41
0
  0
VERTEX
  8
0
 10
3.02208
 20
1.162
 30
0.0
 40
0
 41
0
  0
SEQEND
 8
0
  0
POLYLINE
  8
0
 62
     0
 66
     1
 10
0
 20
0
 30
0.0
 70
     1
 40
0.15
 41
0.15
  0
VERTEX
  8
0
 10
3.02208
 20
1.162
 30
0.0
 40
0.00208333
 41
0.00208333
  0
VERTEX
  8
0
 10
5.22592
 20
1.162
 30
0.0
 40
0.00208333
 41
0.00208333
  0
VERTEX
  8
0
 10
5.22592
 20
0.964085
 30
0.0
 40
0.00208333
 41
0.00208333
  0
VERTEX
  8
0
 10
3.02208
 20
0.964085
 30
0.0
 40
0.00208333
 41
0.00208333
  0
VERTEX
  8
0
 10
3.02208
 20
1.162
 30
0.0
 40
0.00208333
 41
0.00208333
  0
SEQEND
 8
0
  0
POLYLINE
  8
0
 62
     7
 66
     1
 10
0
 20
0
 30
0.0
 70
     1
 40
0
 41
0
  0
VERTEX
  8
0
 10
3.28603
 20
1.162
 30
0.0
 40
0
 41
0
  0
VERTEX
  8
0
 10
4.2404
 20
1.162
 30
0.0
 40
0
 41
0
  0
VERTEX
  8
0
 10
4.2404
 20
0.964085
 30
0.0
 40
0
 41
0
  0
VERTEX
  8
0
 10
3.28603
 20
0.964085
 30
0.0
 40
0
 41
0
  0
VERTEX
  8
0
 10
3.28603
 20
1.162
 30
0.0
 40
0
 41
0
  0
SEQEND
 8
0
  0
POLYLINE
  8
0
 62
     0
 66
     1
 10
0
 20
0
 30
0.0
 70
     1
 40
0.75
 41
0.75
  0
VERTEX
  8
0
 10
3.28603
 20
1.162
 30
0.0
 40
0.0104167
 41
0.0104167
  0
VERTEX
  8
0
 10
4.2404
 20
1.162
 30
0.0
 40
0.0104167
 41
0.0104167
  0
VERTEX
  8
0
 10
4.2404
 20
0.964085
 30
0.0
 40
0.0104167
 41
0.0104167
  0
VERTEX
  8
0
 10
3.28603
 20
0.964085
 30
0.0
 40
0.0104167
 41
0.0104167
  0
VERTEX
  8
0
 10
3.28603
 20
1.162
 30
0.0
 40
0.0104167
 41
0.0104167
  0
SEQEND
 8
0
  0
POLYLINE
  8
0
 62
     7
 66
     1
 10
0
 20
0
 30
0.0
 70
     1
 40
0
 41
0
  0
VERTEX
  8
0
 10
3.28603
 20
1.162
 30
0.0
 40
0
 41
0
  0
VERTEX
  8
0
 10
4.2404
 20
1.162
 30
0.0
 40
0
 41
0
  0
VERTEX
  8
0
 10
4.2404
 20
0.964085
 30
0.0
 40
0
 41
0
  0
VERTEX
  8
0
 10
3.28603
 20
0.964085
 30
0.0
 40
0
 41
0
  0
VERTEX
  8
0
 10
3.28603
 20
1.162
 30
0.0
 40
0
 41
0
  0
SEQEND
 8
0
  0
POLYLINE
  8
0
 62
     0
 66
     1
 10
0
 20
0
 30
0.0
 70
     1
 40
0.75
 41
0.75
  0
VERTEX
  8
0
 10
3.28603
 20
1.162
 30
0.0
 40
0.0104167
 41
0.0104167
  0
VERTEX
  8
0
 10
4.2404
 20
1.162
 30
0.0
 40
0.0104167
 41
0.0104167
  0
VERTEX
  8
0
 10
4.2404
 20
0.964085
 30
0.0
 40
0.0104167
 41
0.0104167
  0
VERTEX
  8
0
 10
3.28603
 20
0.964085
 30
0.0
 40
0.0104167
 41
0.0104167
  0
VERTEX
  8
0
 10
3.28603
 20
1.162
 30
0.0
 40
0.0104167
 41
0.0104167
  0
SEQEND
 8
0
  0
POLYLINE
  8
0
 62
     0
 66
     1
 10
0
 20
0
 30
0.0
 70
     1
 40
0.75
 41
0.75
  0
VERTEX
  8
0
 10
3.28603
 20
0.964085
 30
0.0
 40
0.0104167
 41
0.0104167
  0
VERTEX
  8
0
 10
3.28603
 20
0.908203
 30
0.0
 40
0.0104167
 41
0.0104167
  0
VERTEX
  8
0
 10
3.30089
 20
0.740451
 30
0.0
 40
0.0104167
 41
0.0104167
  0
VERTEX
  8
0
 10
3.34565
 20
0.546604
 30
0.0
 40
0.0104167
 41
0.0104167
  0
VERTEX
  8
0
 10
3.42019
 20
0.382542
 30
0.0
 40
0.0104167
 41
0.0104167
  0
VERTEX
  8
0
 10
3.52458
 20
0.248318
 30
0.0
 40
0.0104167
 41
0.0104167
  0
VERTEX
  8
0
 10
3.65881
 20
0.143935
 30
0.0
 40
0.0104167
 41
0.0104167
  0
VERTEX
  8
0
 10
3.82286
 20
0.0693901
 30
0.0
 40
0.0104167
 41
0.0104167
  0
VERTEX
  8
0
 10
4.01671
 20
0.0246311
 30
0.0
 40
0.0104167
 41
0.0104167
  0
VERTEX
  8
0
 10
4.18446
 20
0.00971137
 30
0.0
 40
0.0104167
 41
0.0104167
  0
VERTEX
  8
0
 10
4.2404
 20
0.00971137
 30
0.0
 40
0.0104167
 41
0.0104167
  0
VERTEX
  8
0
 10
4.2404
 20
0.964085
 30
0.0
 40
0.0104167
 41
0.0104167
  0
VERTEX
  8
0
 10
3.28603
 20
0.964085
 30
0.0
 40
0.0104167
 41
0.0104167
  0
SEQEND
 8
0
  0
POLYLINE
  8
0
 62
     0
 66
     1
 10
0
 20
0
 30
0.0
 70
     1
 40
0.75
 41
0.75
  0
VERTEX
  8
0
 10
3.28603
 20
1.162
 30
0.0
 40
0.0104167
 41
0.0104167
  0
VERTEX
  8
0
 10
3.28603
 20
1.21794
 30
0.0
 40
0.0104167
 41
0.0104167
  0
VERTEX
  8
0
 10
3.30089
 20
1.38574
 30
0.0
 40
0.0104167
 41
0.0104167
  0
VERTEX
  8
0
 10
3.34565
 20
1.57958
 30
0.0
 40
0.0104167
 41
0.0104167
  0
VERTEX
  8
0
 10
3.42019
 20
1.7436
 30
0.0
 40
0.0104167
 41
0.0104167
  0
VERTEX
  8
0
 10
3.52458
 20
1.87782
 30
0.0
 40
0.0104167
 41
0.0104167
  0
VERTEX
  8
0
 10
3.65881
 20
1.98221
 30
0.0
 40
0.0104167
 41
0.0104167
  0
VERTEX
  8
0
 10
3.82286
 20
2.05675
 30
0.0
 40
0.0104167
 41
0.0104167
  0
VERTEX
  8
0
 10
4.01671
 20
2.10151
 30
0.0
 40
0.0104167
 41
0.0104167
  0
VERTEX
  8
0
 10
4.18446
 20
2.11637
 30
0.0
 40
0.0104167
 41
0.0104167
  0
VERTEX
  8
0
 10
4.2404
 20
2.11637
 30
0.0
 40
0.0104167
 41
0.0104167
  0
VERTEX
  8
0
 10
4.2404
 20
1.162
 30
0.0
 40
0.0104167
 41
0.0104167
  0
VERTEX
  8
0
 10
3.28603
 20
1.162
 30
0.0
 40
0.0104167
 41
0.0104167
  0
SEQEND
 8
0
  0
POLYLINE
  8
0
 62
     0
 66
     1
 10
0
 20
0
 30
0.0
 70
     1
 40
0
 41
0
  0
VERTEX
  8
0
 10
3.02208
 20
0.964085
 30
0.0
 40
0
 41
0
  0
VERTEX
  8
0
 10
0.390082
 20
0.964085
 30
0.0
 40
0
 41
0
  0
VERTEX
  8
0
 10
0.712999
 20
1.287
 30
0.0
 40
0
 41
0
  0
VERTEX
  8
0
 10
3.02208
 20
1.287
 30
0.0
 40
0
 41
0
  0
VERTEX
  8
0
 10
3.02208
 20
0.964085
 30
0.0
 40
0
 41
0
  0
SEQEND
 8
0
  0
POLYLINE
  8
0
 62
     0
 66
     1
 10
0
 20
0
 30
0.0
 70
     1
 40
0.15
 41
0.15
  0
VERTEX
  8
0
 10
3.02208
 20
0.964085
 30
0.0
 40
0.00208333
 41
0.00208333
  0
VERTEX
  8
0
 10
0.390082
 20
0.964085
 30
0.0
 40
0.00208333
 41
0.00208333
  0
VERTEX
  8
0
 10
0.712999
 20
1.287
 30
0.0
 40
0.00208333
 41
0.00208333
  0
VERTEX
  8
0
 10
3.02208
 20
1.287
 30
0.0
 40
0.00208333
 41
0.00208333
  0
VERTEX
  8
0
 10
3.02208
 20
0.964085
 30
0.0
 40
0.00208333
 41
0.00208333
  0
SEQEND
 8
0
  0
POLYLINE
  8
0
 62
     0
 66
     1
 10
0
 20
0
 30
0.0
 70
     1
 40
0
 41
0
  0
VERTEX
  8
0
 10
0.390082
 20
0.964085
 30
0.0
 40
0
 41
0
  0
VERTEX
  8
0
 10
0.390082
 20
3.76867
 30
0.0
 40
0
 41
0
  0
VERTEX
  8
0
 10
0.712999
 20
3.76867
 30
0.0
 40
0
 41
0
  0
VERTEX
  8
0
 10
0.712999
 20
1.287
 30
0.0
 40
0
 41
0
  0
VERTEX
  8
0
 10
0.390082
 20
0.964085
 30
0.0
 40
0
 41
0
  0
SEQEND
 8
0
  0
POLYLINE
  8
0
 62
     0
 66
     1
 10
0
 20
0
 30
0.0
 70
     1
 40
0.15
 41
0.15
  0
VERTEX
  8
0
 10
0.390082
 20
0.964085
 30
0.0
 40
0.00208333
 41
0.00208333
  0
VERTEX
  8
0
 10
0.390082
 20
3.76867
 30
0.0
 40
0.00208333
 41
0.00208333
  0
VERTEX
  8
0
 10
0.712999
 20
3.76867
 30
0.0
 40
0.00208333
 41
0.00208333
  0
VERTEX
  8
0
 10
0.712999
 20
1.287
 30
0.0
 40
0.00208333
 41
0.00208333
  0
VERTEX
  8
0
 10
0.390082
 20
0.964085
 30
0.0
 40
0.00208333
 41
0.00208333
  0
SEQEND
 8
0
  0
POLYLINE
  8
0
 62
     0
 66
     1
 10
0
 20
0
 30
0.0
 70
     1
 40
0
 41
0
  0
VERTEX
  8
0
 10
0.390082
 20
3.76867
 30
0.0
 40
0
 41
0
  0
VERTEX
  8
0
 10
0.405925
 20
8.94993
 30
0.0
 40
0
 41
0
  0
VERTEX
  8
0
 10
0.633626
 20
8.46035
 30
0.0
 40
0
 41
0
  0
VERTEX
  8
0
 10
0.619249
 20
3.76796
 30
0.0
 40
0
 41
0
  0
VERTEX
  8
0
 10
0.390082
 20
3.76867
 30
0.0
 40
0
 41
0
  0
SEQEND
 8
0
  0
POLYLINE
  8
0
 62
     0
 66
     1
 10
0
 20
0
 30
0.0
 70
     1
 40
0.15
 41
0.15
  0
VERTEX
  8
0
 10
0.390082
 20
3.76867
 30
0.0
 40
0.00208333
 41
0.00208333
  0
VERTEX
  8
0
 10
0.405925
 20
8.94993
 30
0.0
 40
0.00208333
 41
0.00208333
  0
VERTEX
  8
0
 10
0.633626
 20
8.46035
 30
0.0
 40
0.00208333
 41
0.00208333
  0
VERTEX
  8
0
 10
0.619249
 20
3.76796
 30
0.0
 40
0.00208333
 41
0.00208333
  0
VERTEX
  8
0
 10
0.390082
 20
3.76867
 30
0.0
 40
0.00208333
 41
0.00208333
  0
SEQEND
 8
0
  0
POLYLINE
  8
0
 62
     0
 66
     1
 10
0
 20
0
 30
0.0
 70
     1
 40
0
 41
0
  0
VERTEX
  8
0
 10
4.37033
 20
1.26964
 30
0.0
 40
0
 41
0
  0
VERTEX
  8
0
 10
4.50575
 20
1.26964
 30
0.0
 40
0
 41
0
  0
VERTEX
  8
0
 10
4.50575
 20
0.964085
 30
0.0
 40
0
 41
0
  0
VERTEX
  8
0
 10
4.37033
 20
0.964085
 30
0.0
 40
0
 41
0
  0
VERTEX
  8
0
 10
4.37033
 20
1.26964
 30
0.0
 40
0
 41
0
  0
SEQEND
 8
0
  0
POLYLINE
  8
0
 62
     0
 66
     1
 10
0
 20
0
 30
0.0
 70
     1
 40
0.15
 41
0.15
  0
VERTEX
  8
0
 10
4.37033
 20
1.26964
 30
0.0
 40
0.00208333
 41
0.00208333
  0
VERTEX
  8
0
 10
4.50575
 20
1.26964
 30
0.0
 40
0.00208333
 41
0.00208333
  0
VERTEX
  8
0
 10
4.50575
 20
0.964085
 30
0.0
 40
0.00208333
 41
0.00208333
  0
VERTEX
  8
0
 10
4.37033
 20
0.964085
 30
0.0
 40
0.00208333
 41
0.00208333
  0
VERTEX
  8
0
 10
4.37033
 20
1.26964
 30
0.0
 40
0.00208333
 41
0.00208333
  0
SEQEND
 8
0
  0
POLYLINE
  8
0
 62
     0
 66
     1
 10
0
 20
0
 30
0.0
 70
     1
 40
0
 41
0
  0
VERTEX
  8
0
 10
4.44325
 20
1.79525
 30
0.0
 40
0
 41
0
  0
VERTEX
  8
0
 10
4.50575
 20
1.79525
 30
0.0
 40
0
 41
0
  0
VERTEX
  8
0
 10
4.50575
 20
1.26964
 30
0.0
 40
0
 41
0
  0
VERTEX
  8
0
 10
4.44325
 20
1.26964
 30
0.0
 40
0
 41
0
  0
VERTEX
  8
0
 10
4.44325
 20
1.79525
 30
0.0
 40
0
 41
0
  0
SEQEND
 8
0
  0
POLYLINE
  8
0
 62
     0
 66
     1
 10
0
 20
0
 30
0.0
 70
     1
 40
0.15
 41
0.15
  0
VERTEX
  8
0
 10
4.44325
 20
1.79525
 30
0.0
 40
0.00208333
 41
0.00208333
  0
VERTEX
  8
0
 10
4.50575
 20
1.79525
 30
0.0
 40
0.00208333
 41
0.00208333
  0
VERTEX
  8
0
 10
4.50575
 20
1.26964
 30
0.0
 40
0.00208333
 41
0.00208333
  0
VERTEX
  8
0
 10
4.44325
 20
1.26964
 30
0.0
 40
0.00208333
 41
0.00208333
  0
VERTEX
  8
0
 10
4.44325
 20
1.79525
 30
0.0
 40
0.00208333
 41
0.00208333
  0
SEQEND
 8
0
  0
POLYLINE
  8
0
 62
     0
 66
     1
 10
0
 20
0
 30
0.0
 70
     1
 40
0
 41
0
  0
VERTEX
  8
0
 10
4.3731
 20
1.90044
 30
0.0
 40
0
 41
0
  0
VERTEX
  8
0
 10
4.50575
 20
1.90044
 30
0.0
 40
0
 41
0
  0
VERTEX
  8
0
 10
4.50575
 20
1.79525
 30
0.0
 40
0
 41
0
  0
VERTEX
  8
0
 10
4.3731
 20
1.79525
 30
0.0
 40
0
 41
0
  0
VERTEX
  8
0
 10
4.3731
 20
1.90044
 30
0.0
 40
0
 41
0
  0
SEQEND
 8
0
  0
POLYLINE
  8
0
 62
     0
 66
     1
 10
0
 20
0
 30
0.0
 70
     1
 40
0.15
 41
0.15
  0
VERTEX
  8
0
 10
4.3731
 20
1.90044
 30
0.0
 40
0.00208333
 41
0.00208333
  0
VERTEX
  8
0
 10
4.50575
 20
1.90044
 30
0.0
 40
0.00208333
 41
0.00208333
  0
VERTEX
  8
0
 10
4.50575
 20
1.79525
 30
0.0
 40
0.00208333
 41
0.00208333
  0
VERTEX
  8
0
 10
4.3731
 20
1.79525
 30
0.0
 40
0.00208333
 41
0.00208333
  0
VERTEX
  8
0
 10
4.3731
 20
1.90044
 30
0.0
 40
0.00208333
 41
0.00208333
  0
SEQEND
 8
0
  0
POLYLINE
  8
0
 62
     0
 66
     1
 10
0
 20
0
 30
0.0
 70
     1
 40
0
 41
0
  0
VERTEX
  8
0
 10
3.02208
 20
0.964085
 30
0.0
 40
0
 41
0
  0
VERTEX
  8
0
 10
3.02208
 20
3.36399
 30
0.0
 40
0
 41
0
  0
VERTEX
  8
0
 10
2.92833
 20
3.27024
 30
0.0
 40
0
 41
0
  0
VERTEX
  8
0
 10
2.92833
 20
0.964085
 30
0.0
 40
0
 41
0
  0
VERTEX
  8
0
 10
3.02208
 20
0.964085
 30
0.0
 40
0
 41
0
  0
SEQEND
 8
0
  0
POLYLINE
  8
0
 62
     0
 66
     1
 10
0
 20
0
 30
0.0
 70
     1
 40
0.15
 41
0.15
  0
VERTEX
  8
0
 10
3.02208
 20
0.964085
 30
0.0
 40
0.00208333
 41
0.00208333
  0
VERTEX
  8
0
 10
3.02208
 20
3.36399
 30
0.0
 40
0.00208333
 41
0.00208333
  0
VERTEX
  8
0
 10
2.92833
 20
3.27024
 30
0.0
 40
0.00208333
 41
0.00208333
  0
VERTEX
  8
0
 10
2.92833
 20
0.964085
 30
0.0
 40
0.00208333
 41
0.00208333
  0
VERTEX
  8
0
 10
3.02208
 20
0.964085
 30
0.0
 40
0.00208333
 41
0.00208333
  0
SEQEND
 8
0
  0
POLYLINE
  8
0
 62
     7
 66
     1
 10
0
 20
0
 30
0.0
 70
     1
 40
0
 41
0
  0
VERTEX
  8
0
 10
2.92833
 20
2.98817
 30
0.0
 40
0
 41
0
  0
VERTEX
  8
0
 10
3.02208
 20
2.98817
 30
0.0
 40
0
 41
0
  0
VERTEX
  8
0
 10
3.02208
 20
2.16243
 30
0.0
 40
0
 41
0
  0
VERTEX
  8
0
 10
2.92833
 20
2.16243
 30
0.0
 40
0
 41
0
  0
VERTEX
  8
0
 10
2.92833
 20
2.98817
 30
0.0
 40
0
 41
0
  0
SEQEND
 8
0
  0
POLYLINE
  8
0
 62
     0
 66
     1
 10
0
 20
0
 30
0.0
 70
     1
 40
0.75
 41
0.75
  0
VERTEX
  8
0
 10
2.92833
 20
2.98817
 30
0.0
 40
0.0104167
 41
0.0104167
  0
VERTEX
  8
0
 10
3.02208
 20
2.98817
 30
0.0
 40
0.0104167
 41
0.0104167
  0
VERTEX
  8
0
 10
3.02208
 20
2.16243
 30
0.0
 40
0.0104167
 41
0.0104167
  0
VERTEX
  8
0
 10
2.92833
 20
2.16243
 30
0.0
 40
0.0104167
 41
0.0104167
  0
VERTEX
  8
0
 10
2.92833
 20
2.98817
 30
0.0
 40
0.0104167
 41
0.0104167
  0
SEQEND
 8
0
  0
POLYLINE
  8
0
 62
     7
 66
     1
 10
0
 20
0
 30
0.0
 70
     1
 40
0
 41
0
  0
VERTEX
  8
0
 10
2.92833
 20
2.98817
 30
0.0
 40
0
 41
0
  0
VERTEX
  8
0
 10
3.02208
 20
2.98817
 30
0.0
 40
0
 41
0
  0
VERTEX
  8
0
 10
3.02208
 20
2.16243
 30
0.0
 40
0
 41
0
  0
VERTEX
  8
0
 10
2.92833
 20
2.16243
 30
0.0
 40
0
 41
0
  0
VERTEX
  8
0
 10
2.92833
 20
2.98817
 30
0.0
 40
0
 41
0
  0
SEQEND
 8
0
  0
POLYLINE
  8
0
 62
     0
 66
     1
 10
0
 20
0
 30
0.0
 70
     1
 40
0.75
 41
0.75
  0
VERTEX
  8
0
 10
2.92833
 20
2.98817
 30
0.0
 40
0.0104167
 41
0.0104167
  0
VERTEX
  8
0
 10
3.02208
 20
2.98817
 30
0.0
 40
0.0104167
 41
0.0104167
  0
VERTEX
  8
0
 10
3.02208
 20
2.16243
 30
0.0
 40
0.0104167
 41
0.0104167
  0
VERTEX
  8
0
 10
2.92833
 20
2.16243
 30
0.0
 40
0.0104167
 41
0.0104167
  0
VERTEX
  8
0
 10
2.92833
 20
2.98817
 30
0.0
 40
0.0104167
 41
0.0104167
  0
SEQEND
 8
0
  0
POLYLINE
  8
0
 62
     0
 66
     1
 10
0
 20
0
 30
0.0
 70
     1
 40
0.75
 41
0.75
  0
VERTEX
  8
0
 10
3.02208
 20
2.16243
 30
0.0
 40
0.0104167
 41
0.0104167
  0
VERTEX
  8
0
 10
3.07042
 20
2.16243
 30
0.0
 40
0.0104167
 41
0.0104167
  0
VERTEX
  8
0
 10
3.2156
 20
2.17535
 30
0.0
 40
0.0104167
 41
0.0104167
  0
VERTEX
  8
0
 10
3.38336
 20
2.21408
 30
0.0
 40
0.0104167
 41
0.0104167
  0
VERTEX
  8
0
 10
3.52528
 20
2.2786
 30
0.0
 40
0.0104167
 41
0.0104167
  0
VERTEX
  8
0
 10
3.64144
 20
2.36893
 30
0.0
 40
0.0104167
 41
0.0104167
  0
VERTEX
  8
0
 10
3.73178
 20
2.48508
 30
0.0
 40
0.0104167
 41
0.0104167
  0
VERTEX
  8
0
 10
3.79628
 20
2.62701
 30
0.0
 40
0.0104167
 41
0.0104167
  0
VERTEX
  8
0
 10
3.83501
 20
2.79476
 30
0.0
 40
0.0104167
 41
0.0104167
  0
VERTEX
  8
0
 10
3.84793
 20
2.93994
 30
0.0
 40
0.0104167
 41
0.0104167
  0
VERTEX
  8
0
 10
3.84793
 20
2.98828
 30
0.0
 40
0.0104167
 41
0.0104167
  0
VERTEX
  8
0
 10
3.02208
 20
2.98828
 30
0.0
 40
0.0104167
 41
0.0104167
  0
VERTEX
  8
0
 10
3.02208
 20
2.16243
 30
0.0
 40
0.0104167
 41
0.0104167
  0
SEQEND
 8
0
  0
POLYLINE
  8
0
 62
     0
 66
     1
 10
0
 20
0
 30
0.0
 70
     1
 40
0
 41
0
  0
VERTEX
  8
0
 10
3.02208
 20
3.36399
 30
0.0
 40
0
 41
0
  0
VERTEX
  8
0
 10
1.33502
 20
3.36399
 30
0.0
 40
0
 41
0
  0
VERTEX
  8
0
 10
1.33502
 20
3.27024
 30
0.0
 40
0
 41
0
  0
VERTEX
  8
0
 10
2.92833
 20
3.27024
 30
0.0
 40
0
 41
0
  0
VERTEX
  8
0
 10
3.02208
 20
3.36399
 30
0.0
 40
0
 41
0
  0
SEQEND
 8
0
  0
POLYLINE
  8
0
 62
     0
 66
     1
 10
0
 20
0
 30
0.0
 70
     1
 40
0.15
 41
0.15
  0
VERTEX
  8
0
 10
3.02208
 20
3.36399
 30
0.0
 40
0.00208333
 41
0.00208333
  0
VERTEX
  8
0
 10
1.33502
 20
3.36399
 30
0.0
 40
0.00208333
 41
0.00208333
  0
VERTEX
  8
0
 10
1.33502
 20
3.27024
 30
0.0
 40
0.00208333
 41
0.00208333
  0
VERTEX
  8
0
 10
2.92833
 20
3.27024
 30
0.0
 40
0.00208333
 41
0.00208333
  0
VERTEX
  8
0
 10
3.02208
 20
3.36399
 30
0.0
 40
0.00208333
 41
0.00208333
  0
SEQEND
 8
0
  0
POLYLINE
  8
0
 62
     0
 66
     1
 10
0
 20
0
 30
0.0
 70
     1
 40
0
 41
0
  0
VERTEX
  8
0
 10
0.390082
 20
3.76921
 30
0.0
 40
0
 41
0
  0
VERTEX
  8
0
 10
1.33502
 20
3.76921
 30
0.0
 40
0
 41
0
  0
VERTEX
  8
0
 10
1.33502
 20
3.27024
 30
0.0
 40
0
 41
0
  0
VERTEX
  8
0
 10
0.390082
 20
3.27024
 30
0.0
 40
0
 41
0
  0
VERTEX
  8
0
 10
0.390082
 20
3.76921
 30
0.0
 40
0
 41
0
  0
SEQEND
 8
0
  0
POLYLINE
  8
0
 62
     0
 66
     1
 10
0
 20
0
 30
0.0
 70
     1
 40
0.15
 41
0.15
  0
VERTEX
  8
0
 10
0.390082
 20
3.76921
 30
0.0
 40
0.00208333
 41
0.00208333
  0
VERTEX
  8
0
 10
1.33502
 20
3.76921
 30
0.0
 40
0.00208333
 41
0.00208333
  0
VERTEX
  8
0
 10
1.33502
 20
3.27024
 30
0.0
 40
0.00208333
 41
0.00208333
  0
VERTEX
  8
0
 10
0.390082
 20
3.27024
 30
0.0
 40
0.00208333
 41
0.00208333
  0
VERTEX
  8
0
 10
0.390082
 20
3.76921
 30
0.0
 40
0.00208333
 41
0.00208333
  0
SEQEND
 8
0
  0
POLYLINE
  8
0
 62
     0
 66
     1
 10
0
 20
0
 30
0.0
 70
     1
 40
0
 41
0
  0
VERTEX
  8
0
 10
0.393664
 20
4.91889
 30
0.0
 40
0
 41
0
  0
VERTEX
  8
0
 10
0.894476
 20
4.91889
 30
0.0
 40
0
 41
0
  0
VERTEX
  8
0
 10
0.894476
 20
4.56754
 30
0.0
 40
0
 41
0
  0
VERTEX
  8
0
 10
0.393664
 20
4.56754
 30
0.0
 40
0
 41
0
  0
VERTEX
  8
0
 10
0.393664
 20
4.91889
 30
0.0
 40
0
 41
0
  0
SEQEND
 8
0
  0
POLYLINE
  8
0
 62
     0
 66
     1
 10
0
 20
0
 30
0.0
 70
     1
 40
0.15
 41
0.15
  0
VERTEX
  8
0
 10
0.393664
 20
4.91889
 30
0.0
 40
0.00208333
 41
0.00208333
  0
VERTEX
  8
0
 10
0.894476
 20
4.91889
 30
0.0
 40
0.00208333
 41
0.00208333
  0
VERTEX
  8
0
 10
0.894476
 20
4.56754
 30
0.0
 40
0.00208333
 41
0.00208333
  0
VERTEX
  8
0
 10
0.393664
 20
4.56754
 30
0.0
 40
0.00208333
 41
0.00208333
  0
VERTEX
  8
0
 10
0.393664
 20
4.91889
 30
0.0
 40
0.00208333
 41
0.00208333
  0
SEQEND
 8
0
  0
POLYLINE
  8
0
 62
     0
 66
     1
 10
0
 20
0
 30
0.0
 70
     1
 40
0
 41
0
  0
VERTEX
  8
0
 10
0.894476
 20
4.91889
 30
0.0
 40
0
 41
0
  0
VERTEX
  8
0
 10
3.01833
 20
4.91889
 30
0.0
 40
0
 41
0
  0
VERTEX
  8
0
 10
3.01833
 20
4.82514
 30
0.0
 40
0
 41
0
  0
VERTEX
  8
0
 10
0.894476
 20
4.82514
 30
0.0
 40
0
 41
0
  0
VERTEX
  8
0
 10
0.894476
 20
4.91889
 30
0.0
 40
0
 41
0
  0
SEQEND
 8
0
  0
POLYLINE
  8
0
 62
     0
 66
     1
 10
0
 20
0
 30
0.0
 70
     1
 40
0.15
 41
0.15
  0
VERTEX
  8
0
 10
0.894476
 20
4.91889
 30
0.0
 40
0.00208333
 41
0.00208333
  0
VERTEX
  8
0
 10
3.01833
 20
4.91889
 30
0.0
 40
0.00208333
 41
0.00208333
  0
VERTEX
  8
0
 10
3.01833
 20
4.82514
 30
0.0
 40
0.00208333
 41
0.00208333
  0
VERTEX
  8
0
 10
0.894476
 20
4.82514
 30
0.0
 40
0.00208333
 41
0.00208333
  0
VERTEX
  8
0
 10
0.894476
 20
4.91889
 30
0.0
 40
0.00208333
 41
0.00208333
  0
SEQEND
 8
0
  0
POLYLINE
  8
0
 62
     7
 66
     1
 10
0
 20
0
 30
0.0
 70
     1
 40
0
 41
0
  0
VERTEX
  8
0
 10
1.30219
 20
4.91889
 30
0.0
 40
0
 41
0
  0
VERTEX
  8
0
 10
2.0224
 20
4.91889
 30
0.0
 40
0
 41
0
  0
VERTEX
  8
0
 10
2.0224
 20
4.82514
 30
0.0
 40
0
 41
0
  0
VERTEX
  8
0
 10
1.30219
 20
4.82514
 30
0.0
 40
0
 41
0
  0
VERTEX
  8
0
 10
1.30219
 20
4.91889
 30
0.0
 40
0
 41
0
  0
SEQEND
 8
0
  0
POLYLINE
  8
0
 62
     0
 66
     1
 10
0
 20
0
 30
0.0
 70
     1
 40
0.75
 41
0.75
  0
VERTEX
  8
0
 10
1.30219
 20
4.91889
 30
0.0
 40
0.0104167
 41
0.0104167
  0
VERTEX
  8
0
 10
2.0224
 20
4.91889
 30
0.0
 40
0.0104167
 41
0.0104167
  0
VERTEX
  8
0
 10
2.0224
 20
4.82514
 30
0.0
 40
0.0104167
 41
0.0104167
  0
VERTEX
  8
0
 10
1.30219
 20
4.82514
 30
0.0
 40
0.0104167
 41
0.0104167
  0
VERTEX
  8
0
 10
1.30219
 20
4.91889
 30
0.0
 40
0.0104167
 41
0.0104167
  0
SEQEND
 8
0
  0
POLYLINE
  8
0
 62
     7
 66
     1
 10
0
 20
0
 30
0.0
 70
     1
 40
0
 41
0
  0
VERTEX
  8
0
 10
1.30219
 20
4.91889
 30
0.0
 40
0
 41
0
  0
VERTEX
  8
0
 10
2.0224
 20
4.91889
 30
0.0
 40
0
 41
0
  0
VERTEX
  8
0
 10
2.0224
 20
4.82514
 30
0.0
 40
0
 41
0
  0
VERTEX
  8
0
 10
1.30219
 20
4.82514
 30
0.0
 40
0
 41
0
  0
VERTEX
  8
0
 10
1.30219
 20
4.91889
 30
0.0
 40
0
 41
0
  0
SEQEND
 8
0
  0
POLYLINE
  8
0
 62
     0
 66
     1
 10
0
 20
0
 30
0.0
 70
     1
 40
0.75
 41
0.75
  0
VERTEX
  8
0
 10
1.30219
 20
4.91889
 30
0.0
 40
0.0104167
 41
0.0104167
  0
VERTEX
  8
0
 10
2.0224
 20
4.91889
 30
0.0
 40
0.0104167
 41
0.0104167
  0
VERTEX
  8
0
 10
2.0224
 20
4.82514
 30
0.0
 40
0.0104167
 41
0.0104167
  0
VERTEX
  8
0
 10
1.30219
 20
4.82514
 30
0.0
 40
0.0104167
 41
0.0104167
  0
VERTEX
  8
0
 10
1.30219
 20
4.91889
 30
0.0
 40
0.0104167
 41
0.0104167
  0
SEQEND
 8
0
  0
POLYLINE
  8
0
 62
     0
 66
     1
 10
0
 20
0
 30
0.0
 70
     1
 40
0.75
 41
0.75
  0
VERTEX
  8
0
 10
2.0224
 20
4.91889
 30
0.0
 40
0.0104167
 41
0.0104167
  0
VERTEX
  8
0
 10
2.0224
 20
4.9611
 30
0.0
 40
0.0104167
 41
0.0104167
  0
VERTEX
  8
0
 10
2.01112
 20
5.08772
 30
0.0
 40
0.0104167
 41
0.0104167
  0
VERTEX
  8
0
 10
1.97738
 20
5.234
 30
0.0
 40
0.0104167
 41
0.0104167
  0
VERTEX
  8
0
 10
1.92111
 20
5.35781
 30
0.0
 40
0.0104167
 41
0.0104167
  0
VERTEX
  8
0
 10
1.84233
 20
5.4591
 30
0.0
 40
0.0104167
 41
0.0104167
  0
VERTEX
  8
0
 10
1.74104
 20
5.53787
 30
0.0
 40
0.0104167
 41
0.0104167
  0
VERTEX
  8
0
 10
1.61724
 20
5.59413
 30
0.0
 40
0.0104167
 41
0.0104167
  0
VERTEX
  8
0
 10
1.47097
 20
5.62788
 30
0.0
 40
0.0104167
 41
0.0104167
  0
VERTEX
  8
0
 10
1.34435
 20
5.63911
 30
0.0
 40
0.0104167
 41
0.0104167
  0
VERTEX
  8
0
 10
1.30219
 20
5.63911
 30
0.0
 40
0.0104167
 41
0.0104167
  0
VERTEX
  8
0
 10
1.30219
 20
4.91889
 30
0.0
 40
0.0104167
 41
0.0104167
  0
VERTEX
  8
0
 10
2.0224
 20
4.91889
 30
0.0
 40
0.0104167
 41
0.0104167
  0
SEQEND
 8
0
  0
POLYLINE
  8
0
 62
     0
 66
     1
 10
0
 20
0
 30
0.0
 70
     1
 40
0
 41
0
  0
VERTEX
  8
0
 10
2.19596
 20
3.85335
 30
0.0
 40
0
 41
0
  0
VERTEX
  8
0
 10
2.67563
 20
3.85335
 30
0.0
 40
0
 41
0
  0
VERTEX
  8
0
 10
2.67563
 20
3.27024
 30
0.0
 40
0
 41
0
  0
VERTEX
  8
0
 10
2.19596
 20
3.27024
 30
0.0
 40
0
 41
0
  0
VERTEX
  8
0
 10
2.19596
 20
3.85335
 30
0.0
 40
0
 41
0
  0
SEQEND
 8
0
  0
POLYLINE
  8
0
 62
     0
 66
     1
 10
0
 20
0
 30
0.0
 70
     1
 40
0.15
 41
0.15
  0
VERTEX
  8
0
 10
2.19596
 20
3.85335
 30
0.0
 40
0.00208333
 41
0.00208333
  0
VERTEX
  8
0
 10
2.67563
 20
3.85335
 30
0.0
 40
0.00208333
 41
0.00208333
  0
VERTEX
  8
0
 10
2.67563
 20
3.27024
 30
0.0
 40
0.00208333
 41
0.00208333
  0
VERTEX
  8
0
 10
2.19596
 20
3.27024
 30
0.0
 40
0.00208333
 41
0.00208333
  0
VERTEX
  8
0
 10
2.19596
 20
3.85335
 30
0.0
 40
0.00208333
 41
0.00208333
  0
SEQEND
 8
0
  0
POLYLINE
  8
0
 62
     0
 66
     1
 10
0
 20
0
 30
0.0
 70
     1
 40
0
 41
0
  0
VERTEX
  8
0
 10
2.19596
 20
4.91889
 30
0.0
 40
0
 41
0
  0
VERTEX
  8
0
 10
2.28971
 20
4.91889
 30
0.0
 40
0
 41
0
  0
VERTEX
  8
0
 10
2.28971
 20
3.85335
 30
0.0
 40
0
 41
0
  0
VERTEX
  8
0
 10
2.19596
 20
3.85335
 30
0.0
 40
0
 41
0
  0
VERTEX
  8
0
 10
2.19596
 20
4.91889
 30
0.0
 40
0
 41
0
  0
SEQEND
 8
0
  0
POLYLINE
  8
0
 62
     0
 66
     1
 10
0
 20
0
 30
0.0
 70
     1
 40
0.15
 41
0.15
  0
VERTEX
  8
0
 10
2.19596
 20
4.91889
 30
0.0
 40
0.00208333
 41
0.00208333
  0
VERTEX
  8
0
 10
2.28971
 20
4.91889
 30
0.0
 40
0.00208333
 41
0.00208333
  0
VERTEX
  8
0
 10
2.28971
 20
3.85335
 30
0.0
 40
0.00208333
 41
0.00208333
  0
VERTEX
  8
0
 10
2.19596
 20
3.85335
 30
0.0
 40
0.00208333
 41
0.00208333
  0
VERTEX
  8
0
 10
2.19596
 20
4.91889
 30
0.0
 40
0.00208333
 41
0.00208333
  0
SEQEND
 8
0
  0
POLYLINE
  8
0
 62
     0
 66
     1
 10
0
 20
0
 30
0.0
 70
     1
 40
0
 41
0
  0
VERTEX
  8
0
 10
2.92606
 20
8.94993
 30
0.0
 40
0
 41
0
  0
VERTEX
  8
0
 10
3.01981
 20
8.94993
 30
0.0
 40
0
 41
0
  0
VERTEX
  8
0
 10
3.01981
 20
5.84744
 30
0.0
 40
0
 41
0
  0
VERTEX
  8
0
 10
2.92606
 20
5.84744
 30
0.0
 40
0
 41
0
  0
VERTEX
  8
0
 10
2.92606
 20
8.94993
 30
0.0
 40
0
 41
0
  0
SEQEND
 8
0
  0
POLYLINE
  8
0
 62
     0
 66
     1
 10
0
 20
0
 30
0.0
 70
     1
 40
0.15
 41
0.15
  0
VERTEX
  8
0
 10
2.92606
 20
8.94993
 30
0.0
 40
0.00208333
 41
0.00208333
  0
VERTEX
  8
0
 10
3.01981
 20
8.94993
 30
0.0
 40
0.00208333
 41
0.00208333
  0
VERTEX
  8
0
 10
3.01981
 20
5.84744
 30
0.0
 40
0.00208333
 41
0.00208333
  0
VERTEX
  8
0
 10
2.92606
 20
5.84744
 30
0.0
 40
0.00208333
 41
0.00208333
  0
VERTEX
  8
0
 10
2.92606
 20
8.94993
 30
0.0
 40
0.00208333
 41
0.00208333
  0
SEQEND
 8
0
  0
POLYLINE
  8
0
 62
     0
 66
     1
 10
0
 20
0
 30
0.0
 70
     1
 40
0
 41
0
  0
VERTEX
  8
0
 10
5.86074
 20
10.9338
 30
0.0
 40
0
 41
0
  0
VERTEX
  8
0
 10
6.04824
 20
10.9338
 30
0.0
 40
0
 41
0
  0
VERTEX
  8
0
 10
6.04824
 20
8.94993
 30
0.0
 40
0
 41
0
  0
VERTEX
  8
0
 10
5.86074
 20
8.94993
 30
0.0
 40
0
 41
0
  0
VERTEX
  8
0
 10
5.86074
 20
10.9338
 30
0.0
 40
0
 41
0
  0
SEQEND
 8
0
  0
POLYLINE
  8
0
 62
     0
 66
     1
 10
0
 20
0
 30
0.0
 70
     1
 40
0.15
 41
0.15
  0
VERTEX
  8
0
 10
5.86074
 20
10.9338
 30
0.0
 40
0.00208333
 41
0.00208333
  0
VERTEX
  8
0
 10
6.04824
 20
10.9338
 30
0.0
 40
0.00208333
 41
0.00208333
  0
VERTEX
  8
0
 10
6.04824
 20
8.94993
 30
0.0
 40
0.00208333
 41
0.00208333
  0
VERTEX
  8
0
 10
5.86074
 20
8.94993
 30
0.0
 40
0.00208333
 41
0.00208333
  0
VERTEX
  8
0
 10
5.86074
 20
10.9338
 30
0.0
 40
0.00208333
 41
0.00208333
  0
SEQEND
 8
0
  0
POLYLINE
  8
0
 62
     7
 66
     1
 10
0
 20
0
 30
0.0
 70
     1
 40
0
 41
0
  0
VERTEX
  8
0
 10
5.86074
 20
10.9338
 30
0.0
 40
0
 41
0
  0
VERTEX
  8
0
 10
2.60449
 20
10.9338
 30
0.0
 40
0
 41
0
  0
VERTEX
  8
0
 10
2.70865
 20
10.8296
 30
0.0
 40
0
 41
0
  0
VERTEX
  8
0
 10
5.86074
 20
10.8296
 30
0.0
 40
0
 41
0
  0
VERTEX
  8
0
 10
5.86074
 20
10.9338
 30
0.0
 40
0
 41
0
  0
SEQEND
 8
0
  0
POLYLINE
  8
0
 62
     0
 66
     1
 10
0
 20
0
 30
0.0
 70
     1
 40
0.15
 41
0.15
  0
VERTEX
  8
0
 10
5.86074
 20
10.9338
 30
0.0
 40
0.00208333
 41
0.00208333
  0
VERTEX
  8
0
 10
2.60449
 20
10.9338
 30
0.0
 40
0.00208333
 41
0.00208333
  0
VERTEX
  8
0
 10
2.70865
 20
10.8296
 30
0.0
 40
0.00208333
 41
0.00208333
  0
VERTEX
  8
0
 10
5.86074
 20
10.8296
 30
0.0
 40
0.00208333
 41
0.00208333
  0
VERTEX
  8
0
 10
5.86074
 20
10.9338
 30
0.0
 40
0.00208333
 41
0.00208333
  0
SEQEND
 8
0
  0
POLYLINE
  8
0
 62
     7
 66
     1
 10
0
 20
0
 30
0.0
 70
     1
 40
0
 41
0
  0
VERTEX
  8
0
 10
2.60449
 20
10.9338
 30
0.0
 40
0
 41
0
  0
VERTEX
  8
0
 10
2.60449
 20
8.94993
 30
0.0
 40
0
 41
0
  0
VERTEX
  8
0
 10
2.70865
 20
8.94993
 30
0.0
 40
0
 41
0
  0
VERTEX
  8
0
 10
2.70865
 20
10.8296
 30
0.0
 40
0
 41
0
  0
VERTEX
  8
0
 10
2.60449
 20
10.9338
 30
0.0
 40
0
 41
0
  0
SEQEND
 8
0
  0
POLYLINE
  8
0
 62
     0
 66
     1
 10
0
 20
0
 30
0.0
 70
     1
 40
0.15
 41
0.15
  0
VERTEX
  8
0
 10
2.60449
 20
10.9338
 30
0.0
 40
0.00208333
 41
0.00208333
  0
VERTEX
  8
0
 10
2.60449
 20
8.94993
 30
0.0
 40
0.00208333
 41
0.00208333
  0
VERTEX
  8
0
 10
2.70865
 20
8.94993
 30
0.0
 40
0.00208333
 41
0.00208333
  0
VERTEX
  8
0
 10
2.70865
 20
10.8296
 30
0.0
 40
0.00208333
 41
0.00208333
  0
VERTEX
  8
0
 10
2.60449
 20
10.9338
 30
0.0
 40
0.00208333
 41
0.00208333
  0
SEQEND
 8
0
  0
POLYLINE
  8
0
 62
     0
 66
     1
 10
0
 20
0
 30
0.0
 70
     1
 40
0
 41
0
  0
VERTEX
  8
0
 10
3.50049
 20
10.3042
 30
0.0
 40
0
 41
0
  0
VERTEX
  8
0
 10
3.50049
 20
10.2884
 30
0.0
 40
0
 41
0
  0
VERTEX
  8
0
 10
3.48762
 20
10.2408
 30
0.0
 40
0
 41
0
  0
VERTEX
  8
0
 10
3.45275
 20
10.189
 30
0.0
 40
0
 41
0
  0
VERTEX
  8
0
 10
3.40093
 20
10.1541
 30
0.0
 40
0
 41
0
  0
VERTEX
  8
0
 10
3.35335
 20
10.1412
 30
0.0
 40
0
 41
0
  0
VERTEX
  8
0
 10
3.33751
 20
10.1412
 30
0.0
 40
0
 41
0
  0
VERTEX
  8
0
 10
3.32161
 20
10.1412
 30
0.0
 40
0
 41
0
  0
VERTEX
  8
0
 10
3.27403
 20
10.1541
 30
0.0
 40
0
 41
0
  0
VERTEX
  8
0
 10
3.22222
 20
10.189
 30
0.0
 40
0
 41
0
  0
VERTEX
  8
0
 10
3.18733
 20
10.2408
 30
0.0
 40
0
 41
0
  0
VERTEX
  8
0
 10
3.17453
 20
10.2884
 30
0.0
 40
0
 41
0
  0
VERTEX
  8
0
 10
3.17453
 20
10.3042
 30
0.0
 40
0
 41
0
  0
VERTEX
  8
0
 10
3.17453
 20
10.3201
 30
0.0
 40
0
 41
0
  0
VERTEX
  8
0
 10
3.18733
 20
10.3677
 30
0.0
 40
0
 41
0
  0
VERTEX
  8
0
 10
3.22222
 20
10.4195
 30
0.0
 40
0
 41
0
  0
VERTEX
  8
0
 10
3.27403
 20
10.4544
 30
0.0
 40
0
 41
0
  0
VERTEX
  8
0
 10
3.32161
 20
10.4672
 30
0.0
 40
0
 41
0
  0
VERTEX
  8
0
 10
3.33751
 20
10.4672
 30
0.0
 40
0
 41
0
  0
VERTEX
  8
0
 10
3.35335
 20
10.4672
 30
0.0
 40
0
 41
0
  0
VERTEX
  8
0
 10
3.40093
 20
10.4544
 30
0.0
 40
0
 41
0
  0
VERTEX
  8
0
 10
3.45275
 20
10.4195
 30
0.0
 40
0
 41
0
  0
VERTEX
  8
0
 10
3.48762
 20
10.3677
 30
0.0
 40
0
 41
0
  0
VERTEX
  8
0
 10
3.50049
 20
10.3201
 30
0.0
 40
0
 41
0
  0
VERTEX
  8
0
 10
3.50049
 20
10.3042
 30
0.0
 40
0
 41
0
  0
SEQEND
 8
0
  0
POLYLINE
  8
0
 62
     7
 66
     1
 10
0
 20
0
 30
0.0
 70
     1
 40
0
 41
0
  0
VERTEX
  8
0
 10
4.37158
 20
1.79449
 30
0.0
 40
0
 41
0
  0
VERTEX
  8
0
 10
4.44293
 20
1.79449
 30
0.0
 40
0
 41
0
  0
VERTEX
  8
0
 10
4.44293
 20
1.26959
 30
0.0
 40
0
 41
0
  0
VERTEX
  8
0
 10
4.37158
 20
1.26959
 30
0.0
 40
0
 41
0
  0
VERTEX
  8
0
 10
4.37158
 20
1.79449
 30
0.0
 40
0
 41
0
  0
SEQEND
 8
0
  0
POLYLINE
  8
0
 62
     0
 66
     1
 10
0
 20
0
 30
0.0
 70
     1
 40
0.629925
 41
0.629925
  0
VERTEX
  8
0
 10
4.37158
 20
1.79449
 30
0.0
 40
0.00874896
 41
0.00874896
  0
VERTEX
  8
0
 10
4.37158
 20
1.26959
 30
0.0
 40
0.00874896
 41
0.00874896
  0
VERTEX
  8
0
 10
4.44293
 20
1.26959
 30
0.0
 40
0.00874896
 41
0.00874896
  0
VERTEX
  8
0
 10
4.44293
 20
1.79449
 30
0.0
 40
0.00874896
 41
0.00874896
  0
VERTEX
  8
0
 10
4.37158
 20
1.79449
 30
0.0
 40
0.00874896
 41
0.00874896
  0
SEQEND
 8
0
  0
POLYLINE
  8
0
 62
     0
 66
     1
 10
0
 20
0
 30
0.0
 40
0.629925
 41
0.629925
  0
VERTEX
  8
0
 10
4.44293
 20
1.79449
 30
0.0
 40
0.00874896
 41
0.00874896
  0
VERTEX
  8
0
 10
4.39561
 20
1.53114
 30
0.0
 40
0.00874896
 41
0.00874896
  0
VERTEX
  8
0
 10
4.41986
 20
1.53114
 30
0.0
 40
0.00874896
 41
0.00874896
  0
VERTEX
  8
0
 10
4.37158
 20
1.27045
 30
0.0
 40
0.00874896
 41
0.00874896
  0
SEQEND
 8
0
  0
POLYLINE
  8
0
 62
     7
 66
     1
 10
0
 20
0
 30
0.0
 70
     1
 40
0
 41
0
  0
VERTEX
  8
0
 10
0.718207
 20
2.80186
 30
0.0
 40
0
 41
0
  0
VERTEX
  8
0
 10
0.781793
 20
2.80186
 30
0.0
 40
0
 41
0
  0
VERTEX
  8
0
 10
0.781793
 20
2.68522
 30
0.0
 40
0
 41
0
  0
VERTEX
  8
0
 10
0.718207
 20
2.68522
 30
0.0
 40
0
 41
0
  0
VERTEX
  8
0
 10
0.718207
 20
2.80186
 30
0.0
 40
0
 41
0
  0
SEQEND
 8
0
  0
POLYLINE
  8
0
 62
     0
 66
     1
 10
0
 20
0
 30
0.0
 70
     1
 40
0.75
 41
0.75
  0
VERTEX
  8
0
 10
0.718207
 20
2.80186
 30
0.0
 40
0.0104167
 41
0.0104167
  0
VERTEX
  8
0
 10
0.718207
 20
2.68522
 30
0.0
 40
0.0104167
 41
0.0104167
  0
VERTEX
  8
0
 10
0.781793
 20
2.68522
 30
0.0
 40
0.0104167
 41
0.0104167
  0
VERTEX
  8
0
 10
0.781793
 20
2.80186
 30
0.0
 40
0.0104167
 41
0.0104167
  0
VERTEX
  8
0
 10
0.718207
 20
2.80186
 30
0.0
 40
0.0104167
 41
0.0104167
  0
SEQEND
 8
0
  0
POLYLINE
  8
0
 62
     7
 66
     1
 10
0
 20
0
 30
0.0
 70
     1
 40
0
 41
0
  0
VERTEX
  8
0
 10
0.718207
 20
2.94667
 30
0.0
 40
0
 41
0
  0
VERTEX
  8
0
 10
0.781793
 20
2.94667
 30
0.0
 40
0
 41
0
  0
VERTEX
  8
0
 10
0.781793
 20
2.83003
 30
0.0
 40
0
 41
0
  0
VERTEX
  8
0
 10
0.718207
 20
2.83003
 30
0.0
 40
0
 41
0
  0
VERTEX
  8
0
 10
0.718207
 20
2.94667
 30
0.0
 40
0
 41
0
  0
SEQEND
 8
0
  0
POLYLINE
  8
0
 62
     0
 66
     1
 10
0
 20
0
 30
0.0
 70
     1
 40
0.75
 41
0.75
  0
VERTEX
  8
0
 10
0.718207
 20
2.94667
 30
0.0
 40
0.0104167
 41
0.0104167
  0
VERTEX
  8
0
 10
0.718207
 20
2.83003
 30
0.0
 40
0.0104167
 41
0.0104167
  0
VERTEX
  8
0
 10
0.781793
 20
2.83003
 30
0.0
 40
0.0104167
 41
0.0104167
  0
VERTEX
  8
0
 10
0.781793
 20
2.94667
 30
0.0
 40
0.0104167
 41
0.0104167
  0
VERTEX
  8
0
 10
0.718207
 20
2.94667
 30
0.0
 40
0.0104167
 41
0.0104167
  0
SEQEND
 8
0
  0
POLYLINE
  8
0
 62
     7
 66
     1
 10
0
 20
0
 30
0.0
 70
     1
 40
0
 41
0
  0
VERTEX
  8
0
 10
0.718207
 20
2.98107
 30
0.0
 40
0
 41
0
  0
VERTEX
  8
0
 10
0.781793
 20
2.98107
 30
0.0
 40
0
 41
0
  0
VERTEX
  8
0
 10
0.781793
 20
2.94564
 30
0.0
 40
0
 41
0
  0
VERTEX
  8
0
 10
0.718207
 20
2.94564
 30
0.0
 40
0
 41
0
  0
VERTEX
  8
0
 10
0.718207
 20
2.98107
 30
0.0
 40
0
 41
0
  0
SEQEND
 8
0
  0
POLYLINE
  8
0
 62
     0
 66
     1
 10
0
 20
0
 30
0.0
 70
     1
 40
0.75
 41
0.75
  0
VERTEX
  8
0
 10
0.718207
 20
2.98107
 30
0.0
 40
0.0104167
 41
0.0104167
  0
VERTEX
  8
0
 10
0.718207
 20
2.94564
 30
0.0
 40
0.0104167
 41
0.0104167
  0
VERTEX
  8
0
 10
0.781793
 20
2.94564
 30
0.0
 40
0.0104167
 41
0.0104167
  0
VERTEX
  8
0
 10
0.781793
 20
2.98107
 30
0.0
 40
0.0104167
 41
0.0104167
  0
VERTEX
  8
0
 10
0.718207
 20
2.98107
 30
0.0
 40
0.0104167
 41
0.0104167
  0
SEQEND
 8
0
  0
POLYLINE
  8
0
 62
     7
 66
     1
 10
0
 20
0
 30
0.0
 70
     1
 40
0
 41
0
  0
VERTEX
  8
0
 10
0.718207
 20
2.68522
 30
0.0
 40
0
 41
0
  0
VERTEX
  8
0
 10
0.781793
 20
2.68522
 30
0.0
 40
0
 41
0
  0
VERTEX
  8
0
 10
0.781793
 20
2.65192
 30
0.0
 40
0
 41
0
  0
VERTEX
  8
0
 10
0.718207
 20
2.65192
 30
0.0
 40
0
 41
0
  0
VERTEX
  8
0
 10
0.718207
 20
2.68522
 30
0.0
 40
0
 41
0
  0
SEQEND
 8
0
  0
POLYLINE
  8
0
 62
     0
 66
     1
 10
0
 20
0
 30
0.0
 70
     1
 40
0.75
 41
0.75
  0
VERTEX
  8
0
 10
0.718207
 20
2.68522
 30
0.0
 40
0.0104167
 41
0.0104167
  0
VERTEX
  8
0
 10
0.718207
 20
2.65192
 30
0.0
 40
0.0104167
 41
0.0104167
  0
VERTEX
  8
0
 10
0.781793
 20
2.65192
 30
0.0
 40
0.0104167
 41
0.0104167
  0
VERTEX
  8
0
 10
0.781793
 20
2.68522
 30
0.0
 40
0.0104167
 41
0.0104167
  0
VERTEX
  8
0
 10
0.718207
 20
2.68522
 30
0.0
 40
0.0104167
 41
0.0104167
  0
SEQEND
 8
0
  0
POLYLINE
  8
0
 62
     7
 66
     1
 10
0
 20
0
 30
0.0
 70
     1
 40
0
 41
0
  0
VERTEX
  8
0
 10
0.80154
 20
2.80186
 30
0.0
 40
0
 41
0
  0
VERTEX
  8
0
 10
0.807835
 20
2.80186
 30
0.0
 40
0
 41
0
  0
VERTEX
  8
0
 10
0.826768
 20
2.79829
 30
0.0
 40
0
 41
0
  0
VERTEX
  8
0
 10
0.849175
 20
2.78836
 30
0.0
 40
0
 41
0
  0
VERTEX
  8
0
 10
0.853624
 20
2.78521
 30
0.0
 40
0
 41
0
  0
VERTEX
  8
0
 10
0.855197
 20
2.78418
 30
0.0
 40
0
 41
0
  0
VERTEX
  8
0
 10
0.869792
 20
2.77403
 30
0.0
 40
0
 41
0
  0
VERTEX
  8
0
 10
0.871365
 20
2.77376
 30
0.0
 40
0
 41
0
  0
VERTEX
  8
0
 10
0.874186
 20
2.77328
 30
0.0
 40
0
 41
0
  0
VERTEX
  8
0
 10
0.890733
 20
2.77746
 30
0.0
 40
0
 41
0
  0
VERTEX
  8
0
 10
0.903592
 20
2.79411
 30
0.0
 40
0
 41
0
  0
VERTEX
  8
0
 10
0.904676
 20
2.79981
 30
0.0
 40
0
 41
0
  0
VERTEX
  8
0
 10
0.904893
 20
2.80111
 30
0.0
 40
0
 41
0
  0
VERTEX
  8
0
 10
0.905707
 20
2.81267
 30
0.0
 40
0
 41
0
  0
VERTEX
  8
0
 10
0.905707
 20
2.81646
 30
0.0
 40
0
 41
0
  0
VERTEX
  8
0
 10
0.905707
 20
2.81543
 30
0.0
 40
0
 41
0
  0
VERTEX
  8
0
 10
0.905707
 20
2.81961
 30
0.0
 40
0
 41
0
  0
VERTEX
  8
0
 10
0.904893
 20
2.83078
 30
0.0
 40
0
 41
0
  0
VERTEX
  8
0
 10
0.904676
 20
2.83208
 30
0.0
 40
0
 41
0
  0
VERTEX
  8
0
 10
0.903592
 20
2.83783
 30
0.0
 40
0
 41
0
  0
VERTEX
  8
0
 10
0.890733
 20
2.85454
 30
0.0
 40
0
 41
0
  0
VERTEX
  8
0
 10
0.874186
 20
2.85867
 30
0.0
 40
0
 41
0
  0
VERTEX
  8
0
 10
0.871365
 20
2.85813
 30
0.0
 40
0
 41
0
  0
VERTEX
  8
0
 10
0.869792
 20
2.85792
 30
0.0
 40
0
 41
0
  0
VERTEX
  8
0
 10
0.855197
 20
2.84776
 30
0.0
 40
0
 41
0
  0
VERTEX
  8
0
 10
0.853624
 20
2.84668
 30
0.0
 40
0
 41
0
  0
VERTEX
  8
0
 10
0.849175
 20
2.84358
 30
0.0
 40
0
 41
0
  0
VERTEX
  8
0
 10
0.826768
 20
2.83371
 30
0.0
 40
0
 41
0
  0
VERTEX
  8
0
 10
0.807835
 20
2.83003
 30
0.0
 40
0
 41
0
  0
VERTEX
  8
0
 10
0.80154
 20
2.83003
 30
0.0
 40
0
 41
0
  0
SEQEND
 8
0
  0
POLYLINE
  8
0
 62
     0
 66
     1
 10
0
 20
0
 30
0.0
 40
0.75
 41
0.75
  0
VERTEX
  8
0
 10
0.80154
 20
2.80186
 30
0.0
 40
0.0104167
 41
0.0104167
  0
VERTEX
  8
0
 10
0.807835
 20
2.80186
 30
0.0
 40
0.0104167
 41
0.0104167
  0
VERTEX
  8
0
 10
0.826768
 20
2.79829
 30
0.0
 40
0.0104167
 41
0.0104167
  0
VERTEX
  8
0
 10
0.849175
 20
2.78836
 30
0.0
 40
0.0104167
 41
0.0104167
  0
VERTEX
  8
0
 10
0.853624
 20
2.78521
 30
0.0
 40
0.0104167
 41
0.0104167
  0
VERTEX
  8
0
 10
0.855197
 20
2.78418
 30
0.0
 40
0.0104167
 41
0.0104167
  0
VERTEX
  8
0
 10
0.869792
 20
2.77403
 30
0.0
 40
0.0104167
 41
0.0104167
  0
VERTEX
  8
0
 10
0.871365
 20
2.77376
 30
0.0
 40
0.0104167
 41
0.0104167
  0
VERTEX
  8
0
 10
0.874186
 20
2.77328
 30
0.0
 40
0.0104167
 41
0.0104167
  0
VERTEX
  8
0
 10
0.890733
 20
2.77746
 30
0.0
 40
0.0104167
 41
0.0104167
  0
VERTEX
  8
0
 10
0.903592
 20
2.79411
 30
0.0
 40
0.0104167
 41
0.0104167
  0
VERTEX
  8
0
 10
0.904676
 20
2.79981
 30
0.0
 40
0.0104167
 41
0.0104167
  0
VERTEX
  8
0
 10
0.904893
 20
2.80111
 30
0.0
 40
0.0104167
 41
0.0104167
  0
VERTEX
  8
0
 10
0.905707
 20
2.81267
 30
0.0
 40
0.0104167
 41
0.0104167
  0
VERTEX
  8
0
 10
0.905707
 20
2.81646
 30
0.0
 40
0.0104167
 41
0.0104167
  0
VERTEX
  8
0
 10
0.905707
 20
2.81543
 30
0.0
 40
0.0104167
 41
0.0104167
  0
VERTEX
  8
0
 10
0.905707
 20
2.81961
 30
0.0
 40
0.0104167
 41
0.0104167
  0
VERTEX
  8
0
 10
0.904893
 20
2.83078
 30
0.0
 40
0.0104167
 41
0.0104167
  0
VERTEX
  8
0
 10
0.904676
 20
2.83208
 30
0.0
 40
0.0104167
 41
0.0104167
  0
VERTEX
  8
0
 10
0.903592
 20
2.83783
 30
0.0
 40
0.0104167
 41
0.0104167
  0
VERTEX
  8
0
 10
0.890733
 20
2.85454
 30
0.0
 40
0.0104167
 41
0.0104167
  0
VERTEX
  8
0
 10
0.874186
 20
2.85867
 30
0.0
 40
0.0104167
 41
0.0104167
  0
VERTEX
  8
0
 10
0.871365
 20
2.85813
 30
0.0
 40
0.0104167
 41
0.0104167
  0
VERTEX
  8
0
 10
0.869792
 20
2.85792
 30
0.0
 40
0.0104167
 41
0.0104167
  0
VERTEX
  8
0
 10
0.855197
 20
2.84776
 30
0.0
 40
0.0104167
 41
0.0104167
  0
VERTEX
  8
0
 10
0.853624
 20
2.84668
 30
0.0
 40
0.0104167
 41
0.0104167
  0
VERTEX
  8
0
 10
0.849175
 20
2.84358
 30
0.0
 40
0.0104167
 41
0.0104167
  0
VERTEX
  8
0
 10
0.826768
 20
2.83371
 30
0.0
 40
0.0104167
 41
0.0104167
  0
VERTEX
  8
0
 10
0.807835
 20
2.83003
 30
0.0
 40
0.0104167
 41
0.0104167
  0
VERTEX
  8
0
 10
0.80154
 20
2.83003
 30
0.0
 40
0.0104167
 41
0.0104167
  0
SEQEND
 8
0
  0
POLYLINE
  8
0
 62
     7
 66
     1
 10
0
 20
0
 30
0.0
 70
     1
 40
0
 41
0
  0
VERTEX
  8
0
 10
0.872396
 20
2.77376
 30
0.0
 40
0
 41
0
  0
VERTEX
  8
0
 10
0.872885
 20
2.77403
 30
0.0
 40
0
 41
0
  0
VERTEX
  8
0
 10
0.883029
 20
2.78586
 30
0.0
 40
0
 41
0
  0
VERTEX
  8
0
 10
0.892199
 20
2.80963
 30
0.0
 40
0
 41
0
  0
VERTEX
  8
0
 10
0.892199
 20
2.81749
 30
0.0
 40
0
 41
0
  0
VERTEX
  8
0
 10
0.891928
 20
2.82379
 30
0.0
 40
0
 41
0
  0
VERTEX
  8
0
 10
0.88265
 20
2.84646
 30
0.0
 40
0
 41
0
  0
VERTEX
  8
0
 10
0.872885
 20
2.85764
 30
0.0
 40
0
 41
0
  0
VERTEX
  8
0
 10
0.872396
 20
2.85813
 30
0.0
 40
0
 41
0
  0
SEQEND
 8
0
  0
POLYLINE
  8
0
 62
     0
 66
     1
 10
0
 20
0
 30
0.0
 40
0.75
 41
0.75
  0
VERTEX
  8
0
 10
0.872396
 20
2.77376
 30
0.0
 40
0.0104167
 41
0.0104167
  0
VERTEX
  8
0
 10
0.872885
 20
2.77403
 30
0.0
 40
0.0104167
 41
0.0104167
  0
VERTEX
  8
0
 10
0.883029
 20
2.78586
 30
0.0
 40
0.0104167
 41
0.0104167
  0
VERTEX
  8
0
 10
0.892199
 20
2.80963
 30
0.0
 40
0.0104167
 41
0.0104167
  0
VERTEX
  8
0
 10
0.892199
 20
2.81749
 30
0.0
 40
0.0104167
 41
0.0104167
  0
VERTEX
  8
0
 10
0.891928
 20
2.82379
 30
0.0
 40
0.0104167
 41
0.0104167
  0
VERTEX
  8
0
 10
0.88265
 20
2.84646
 30
0.0
 40
0.0104167
 41
0.0104167
  0
VERTEX
  8
0
 10
0.872885
 20
2.85764
 30
0.0
 40
0.0104167
 41
0.0104167
  0
VERTEX
  8
0
 10
0.872396
 20
2.85813
 30
0.0
 40
0.0104167
 41
0.0104167
  0
SEQEND
 8
0
  0
POLYLINE
  8
0
 62
     7
 66
     1
 10
0
 20
0
 30
0.0
 70
     1
 40
0
 41
0
  0
VERTEX
  8
0
 10
0.718207
 20
2.80186
 30
0.0
 40
0
 41
0
  0
VERTEX
  8
0
 10
0.718207
 20
2.83003
 30
0.0
 40
0
 41
0
  0
VERTEX
  8
0
 10
0.80154
 20
2.83003
 30
0.0
 40
0
 41
0
  0
VERTEX
  8
0
 10
0.80154
 20
2.82303
 30
0.0
 40
0
 41
0
  0
VERTEX
  8
0
 10
0.80154
 20
2.80718
 30
0.0
 40
0
 41
0
  0
VERTEX
  8
0
 10
0.80154
 20
2.80186
 30
0.0
 40
0
 41
0
  0
VERTEX
  8
0
 10
0.780707
 20
2.80186
 30
0.0
 40
0
 41
0
  0
VERTEX
  8
0
 10
0.733832
 20
2.80186
 30
0.0
 40
0
 41
0
  0
VERTEX
  8
0
 10
0.718207
 20
2.80186
 30
0.0
 40
0
 41
0
  0
SEQEND
 8
0
  0
POLYLINE
  8
0
 62
     0
 66
     1
 10
0
 20
0
 30
0.0
 70
     1
 40
0.75
 41
0.75
  0
VERTEX
  8
0
 10
0.718207
 20
2.80186
 30
0.0
 40
0.0104167
 41
0.0104167
  0
VERTEX
  8
0
 10
0.718207
 20
2.83003
 30
0.0
 40
0.0104167
 41
0.0104167
  0
VERTEX
  8
0
 10
0.80154
 20
2.83003
 30
0.0
 40
0.0104167
 41
0.0104167
  0
VERTEX
  8
0
 10
0.80154
 20
2.82303
 30
0.0
 40
0.0104167
 41
0.0104167
  0
VERTEX
  8
0
 10
0.80154
 20
2.80718
 30
0.0
 40
0.0104167
 41
0.0104167
  0
VERTEX
  8
0
 10
0.80154
 20
2.80186
 30
0.0
 40
0.0104167
 41
0.0104167
  0
VERTEX
  8
0
 10
0.780707
 20
2.80186
 30
0.0
 40
0.0104167
 41
0.0104167
  0
VERTEX
  8
0
 10
0.733832
 20
2.80186
 30
0.0
 40
0.0104167
 41
0.0104167
  0
VERTEX
  8
0
 10
0.718207
 20
2.80186
 30
0.0
 40
0.0104167
 41
0.0104167
  0
SEQEND
 8
0
  0
POLYLINE
  8
0
 62
     7
 66
     1
 10
0
 20
0
 30
0.0
 70
     1
 40
0
 41
0
  0
VERTEX
  8
0
 10
0.750543
 20
2.68522
 30
0.0
 40
0
 41
0
  0
VERTEX
  8
0
 10
0.749294
 20
2.68847
 30
0.0
 40
0
 41
0
  0
VERTEX
  8
0
 10
0.745443
 20
2.69814
 30
0.0
 40
0
 41
0
  0
VERTEX
  8
0
 10
0.744249
 20
2.70085
 30
0.0
 40
0
 41
0
  0
VERTEX
  8
0
 10
0.744249
 20
2.70085
 30
0.0
 40
0
 41
0
  0
VERTEX
  8
0
 10
0.74566
 20
2.70085
 30
0.0
 40
0
 41
0
  0
VERTEX
  8
0
 10
0.75
 20
2.70085
 30
0.0
 40
0
 41
0
  0
VERTEX
  8
0
 10
0.754286
 20
2.70085
 30
0.0
 40
0
 41
0
  0
VERTEX
  8
0
 10
0.755751
 20
2.70085
 30
0.0
 40
0
 41
0
  0
VERTEX
  8
0
 10
0.755751
 20
2.70085
 30
0.0
 40
0
 41
0
  0
VERTEX
  8
0
 10
0.7551
 20
2.69851
 30
0.0
 40
0
 41
0
  0
VERTEX
  8
0
 10
0.751682
 20
2.68853
 30
0.0
 40
0
 41
0
  0
VERTEX
  8
0
 10
0.750543
 20
2.68522
 30
0.0
 40
0
 41
0
  0
SEQEND
 8
0
  0
POLYLINE
  8
0
 62
     0
 66
     1
 10
0
 20
0
 30
0.0
 70
     1
 40
0.75
 41
0.75
  0
VERTEX
  8
0
 10
0.750543
 20
2.68522
 30
0.0
 40
0.0104167
 41
0.0104167
  0
VERTEX
  8
0
 10
0.749294
 20
2.68847
 30
0.0
 40
0.0104167
 41
0.0104167
  0
VERTEX
  8
0
 10
0.745443
 20
2.69814
 30
0.0
 40
0.0104167
 41
0.0104167
  0
VERTEX
  8
0
 10
0.744249
 20
2.70085
 30
0.0
 40
0.0104167
 41
0.0104167
  0
VERTEX
  8
0
 10
0.744249
 20
2.70085
 30
0.0
 40
0.0104167
 41
0.0104167
  0
VERTEX
  8
0
 10
0.74566
 20
2.70085
 30
0.0
 40
0.0104167
 41
0.0104167
  0
VERTEX
  8
0
 10
0.75
 20
2.70085
 30
0.0
 40
0.0104167
 41
0.0104167
  0
VERTEX
  8
0
 10
0.754286
 20
2.70085
 30
0.0
 40
0.0104167
 41
0.0104167
  0
VERTEX
  8
0
 10
0.755751
 20
2.70085
 30
0.0
 40
0.0104167
 41
0.0104167
  0
VERTEX
  8
0
 10
0.755751
 20
2.70085
 30
0.0
 40
0.0104167
 41
0.0104167
  0
VERTEX
  8
0
 10
0.7551
 20
2.69851
 30
0.0
 40
0.0104167
 41
0.0104167
  0
VERTEX
  8
0
 10
0.751682
 20
2.68853
 30
0.0
 40
0.0104167
 41
0.0104167
  0
VERTEX
  8
0
 10
0.750543
 20
2.68522
 30
0.0
 40
0.0104167
 41
0.0104167
  0
SEQEND
 8
0
  0
POLYLINE
  8
0
 62
     7
 66
     1
 10
0
 20
0
 30
0.0
 70
     1
 40
0
 41
0
  0
VERTEX
  8
0
 10
0.750543
 20
2.94564
 30
0.0
 40
0
 41
0
  0
VERTEX
  8
0
 10
0.749294
 20
2.94243
 30
0.0
 40
0
 41
0
  0
VERTEX
  8
0
 10
0.745443
 20
2.93278
 30
0.0
 40
0
 41
0
  0
VERTEX
  8
0
 10
0.744249
 20
2.93001
 30
0.0
 40
0
 41
0
  0
VERTEX
  8
0
 10
0.744249
 20
2.93001
 30
0.0
 40
0
 41
0
  0
VERTEX
  8
0
 10
0.74566
 20
2.93001
 30
0.0
 40
0
 41
0
  0
VERTEX
  8
0
 10
0.75
 20
2.93001
 30
0.0
 40
0
 41
0
  0
VERTEX
  8
0
 10
0.754286
 20
2.93001
 30
0.0
 40
0
 41
0
  0
VERTEX
  8
0
 10
0.755751
 20
2.93001
 30
0.0
 40
0
 41
0
  0
VERTEX
  8
0
 10
0.755751
 20
2.93001
 30
0.0
 40
0
 41
0
  0
VERTEX
  8
0
 10
0.7551
 20
2.9324
 30
0.0
 40
0
 41
0
  0
VERTEX
  8
0
 10
0.751682
 20
2.94239
 30
0.0
 40
0
 41
0
  0
VERTEX
  8
0
 10
0.750543
 20
2.94564
 30
0.0
 40
0
 41
0
  0
SEQEND
 8
0
  0
POLYLINE
  8
0
 62
     0
 66
     1
 10
0
 20
0
 30
0.0
 70
     1
 40
0.75
 41
0.75
  0
VERTEX
  8
0
 10
0.750543
 20
2.94564
 30
0.0
 40
0.0104167
 41
0.0104167
  0
VERTEX
  8
0
 10
0.749294
 20
2.94243
 30
0.0
 40
0.0104167
 41
0.0104167
  0
VERTEX
  8
0
 10
0.745443
 20
2.93278
 30
0.0
 40
0.0104167
 41
0.0104167
  0
VERTEX
  8
0
 10
0.744249
 20
2.93001
 30
0.0
 40
0.0104167
 41
0.0104167
  0
VERTEX
  8
0
 10
0.744249
 20
2.93001
 30
0.0
 40
0.0104167
 41
0.0104167
  0
VERTEX
  8
0
 10
0.74566
 20
2.93001
 30
0.0
 40
0.0104167
 41
0.0104167
  0
VERTEX
  8
0
 10
0.75
 20
2.93001
 30
0.0
 40
0.0104167
 41
0.0104167
  0
VERTEX
  8
0
 10
0.754286
 20
2.93001
 30
0.0
 40
0.0104167
 41
0.0104167
  0
VERTEX
  8
0
 10
0.755751
 20
2.93001
 30
0.0
 40
0.0104167
 41
0.0104167
  0
VERTEX
  8
0
 10
0.755751
 20
2.93001
 30
0.0
 40
0.0104167
 41
0.0104167
  0
VERTEX
  8
0
 10
0.7551
 20
2.9324
 30
0.0
 40
0.0104167
 41
0.0104167
  0
VERTEX
  8
0
 10
0.751682
 20
2.94239
 30
0.0
 40
0.0104167
 41
0.0104167
  0
VERTEX
  8
0
 10
0.750543
 20
2.94564
 30
0.0
 40
0.0104167
 41
0.0104167
  0
SEQEND
 8
0
  0
POLYLINE
  8
0
 62
     7
 66
     1
 10
0
 20
0
 30
0.0
 70
     1
 40
0
 41
0
  0
VERTEX
  8
0
 10
0.771593
 20
2.1715
 30
0.0
 40
0
 41
0
  0
VERTEX
  8
0
 10
0.958876
 20
2.1715
 30
0.0
 40
0
 41
0
  0
VERTEX
  8
0
 10
0.958876
 20
1.75493
 30
0.0
 40
0
 41
0
  0
VERTEX
  8
0
 10
0.771593
 20
1.75493
 30
0.0
 40
0
 41
0
  0
VERTEX
  8
0
 10
0.771593
 20
2.1715
 30
0.0
 40
0
 41
0
  0
SEQEND
 8
0
  0
POLYLINE
  8
0
 62
     0
 66
     1
 10
0
 20
0
 30
0.0
 70
     1
 40
0.75
 41
0.75
  0
VERTEX
  8
0
 10
0.771593
 20
2.1715
 30
0.0
 40
0.0104167
 41
0.0104167
  0
VERTEX
  8
0
 10
0.771593
 20
1.75493
 30
0.0
 40
0.0104167
 41
0.0104167
  0
VERTEX
  8
0
 10
0.958876
 20
1.75493
 30
0.0
 40
0.0104167
 41
0.0104167
  0
VERTEX
  8
0
 10
0.958876
 20
2.1715
 30
0.0
 40
0.0104167
 41
0.0104167
  0
VERTEX
  8
0
 10
0.771593
 20
2.1715
 30
0.0
 40
0.0104167
 41
0.0104167
  0
SEQEND
 8
0
  0
POLYLINE
  8
0
 62
     7
 66
     1
 10
0
 20
0
 30
0.0
 70
     1
 40
0
 41
0
  0
VERTEX
  8
0
 10
1.22721
 20
2.1715
 30
0.0
 40
0
 41
0
  0
VERTEX
  8
0
 10
1.22721
 20
2.1715
 30
0.0
 40
0
 41
0
  0
VERTEX
  8
0
 10
1.23893
 20
2.1716
 30
0.0
 40
0
 41
0
  0
VERTEX
  8
0
 10
1.26991
 20
2.16997
 30
0.0
 40
0
 41
0
  0
VERTEX
  8
0
 10
1.31375
 20
2.16385
 30
0.0
 40
0
 41
0
  0
VERTEX
  8
0
 10
1.36399
 20
2.15044
 30
0.0
 40
0
 41
0
  0
VERTEX
  8
0
 10
1.41417
 20
2.1269
 30
0.0
 40
0
 41
0
  0
VERTEX
  8
0
 10
1.45801
 20
2.09044
 30
0.0
 40
0
 41
0
  0
VERTEX
  8
0
 10
1.48899
 20
2.03825
 30
0.0
 40
0
 41
0
  0
VERTEX
  8
0
 10
1.50076
 20
1.98519
 30
0.0
 40
0
 41
0
  0
VERTEX
  8
0
 10
1.50076
 20
1.9675
 30
0.0
 40
0
 41
0
  0
VERTEX
  8
0
 10
1.50076
 20
1.94922
 30
0.0
 40
0
 41
0
  0
VERTEX
  8
0
 10
1.48899
 20
1.89438
 30
0.0
 40
0
 41
0
  0
VERTEX
  8
0
 10
1.45801
 20
1.84033
 30
0.0
 40
0
 41
0
  0
VERTEX
  8
0
 10
1.41417
 20
1.80251
 30
0.0
 40
0
 41
0
  0
VERTEX
  8
0
 10
1.36399
 20
1.77806
 30
0.0
 40
0
 41
0
  0
VERTEX
  8
0
 10
1.31375
 20
1.76406
 30
0.0
 40
0
 41
0
  0
VERTEX
  8
0
 10
1.26991
 20
1.75765
 30
0.0
 40
0
 41
0
  0
VERTEX
  8
0
 10
1.23893
 20
1.75592
 30
0.0
 40
0
 41
0
  0
VERTEX
  8
0
 10
1.22721
 20
1.75597
 30
0.0
 40
0
 41
0
  0
VERTEX
  8
0
 10
1.22721
 20
1.75597
 30
0.0
 40
0
 41
0
  0
VERTEX
  8
0
 10
0.958876
 20
1.75493
 30
0.0
 40
0
 41
0
  0
VERTEX
  8
0
 10
0.958876
 20
2.1715
 30
0.0
 40
0
 41
0
  0
VERTEX
  8
0
 10
1.22721
 20
2.1715
 30
0.0
 40
0
 41
0
  0
SEQEND
 8
0
  0
POLYLINE
  8
0
 62
     0
 66
     1
 10
0
 20
0
 30
0.0
 70
     1
 40
0.75
 41
0.75
  0
VERTEX
  8
0
 10
1.22721
 20
2.1715
 30
0.0
 40
0.0104167
 41
0.0104167
  0
VERTEX
  8
0
 10
1.22721
 20
2.1715
 30
0.0
 40
0.0104167
 41
0.0104167
  0
VERTEX
  8
0
 10
1.23893
 20
2.1716
 30
0.0
 40
0.0104167
 41
0.0104167
  0
VERTEX
  8
0
 10
1.26991
 20
2.16997
 30
0.0
 40
0.0104167
 41
0.0104167
  0
VERTEX
  8
0
 10
1.31375
 20
2.16385
 30
0.0
 40
0.0104167
 41
0.0104167
  0
VERTEX
  8
0
 10
1.36399
 20
2.15044
 30
0.0
 40
0.0104167
 41
0.0104167
  0
VERTEX
  8
0
 10
1.41417
 20
2.1269
 30
0.0
 40
0.0104167
 41
0.0104167
  0
VERTEX
  8
0
 10
1.45801
 20
2.09044
 30
0.0
 40
0.0104167
 41
0.0104167
  0
VERTEX
  8
0
 10
1.48899
 20
2.03825
 30
0.0
 40
0.0104167
 41
0.0104167
  0
VERTEX
  8
0
 10
1.50076
 20
1.98519
 30
0.0
 40
0.0104167
 41
0.0104167
  0
VERTEX
  8
0
 10
1.50076
 20
1.9675
 30
0.0
 40
0.0104167
 41
0.0104167
  0
VERTEX
  8
0
 10
1.50076
 20
1.94922
 30
0.0
 40
0.0104167
 41
0.0104167
  0
VERTEX
  8
0
 10
1.48899
 20
1.89438
 30
0.0
 40
0.0104167
 41
0.0104167
  0
VERTEX
  8
0
 10
1.45801
 20
1.84033
 30
0.0
 40
0.0104167
 41
0.0104167
  0
VERTEX
  8
0
 10
1.41417
 20
1.80251
 30
0.0
 40
0.0104167
 41
0.0104167
  0
VERTEX
  8
0
 10
1.36399
 20
1.77806
 30
0.0
 40
0.0104167
 41
0.0104167
  0
VERTEX
  8
0
 10
1.31375
 20
1.76406
 30
0.0
 40
0.0104167
 41
0.0104167
  0
VERTEX
  8
0
 10
1.26991
 20
1.75765
 30
0.0
 40
0.0104167
 41
0.0104167
  0
VERTEX
  8
0
 10
1.23893
 20
1.75592
 30
0.0
 40
0.0104167
 41
0.0104167
  0
VERTEX
  8
0
 10
1.22721
 20
1.75597
 30
0.0
 40
0.0104167
 41
0.0104167
  0
VERTEX
  8
0
 10
1.22721
 20
1.75597
 30
0.0
 40
0.0104167
 41
0.0104167
  0
VERTEX
  8
0
 10
0.958876
 20
1.75493
 30
0.0
 40
0.0104167
 41
0.0104167
  0
VERTEX
  8
0
 10
0.958876
 20
2.1715
 30
0.0
 40
0.0104167
 41
0.0104167
  0
VERTEX
  8
0
 10
1.22721
 20
2.1715
 30
0.0
 40
0.0104167
 41
0.0104167
  0
SEQEND
 8
0
  0
POLYLINE
  8
0
 62
     7
 66
     1
 10
0
 20
0
 30
0.0
 70
     1
 40
0
 41
0
  0
VERTEX
  8
0
 10
0.849447
 20
1.99636
 30
0.0
 40
0
 41
0
  0
VERTEX
  8
0
 10
0.881022
 20
1.99636
 30
0.0
 40
0
 41
0
  0
VERTEX
  8
0
 10
0.881022
 20
1.93012
 30
0.0
 40
0
 41
0
  0
VERTEX
  8
0
 10
0.849447
 20
1.93012
 30
0.0
 40
0
 41
0
  0
VERTEX
  8
0
 10
0.849447
 20
1.99636
 30
0.0
 40
0
 41
0
  0
SEQEND
 8
0
  0
POLYLINE
  8
0
 62
     0
 66
     1
 10
0
 20
0
 30
0.0
 70
     1
 40
0.75
 41
0.75
  0
VERTEX
  8
0
 10
0.849447
 20
1.99636
 30
0.0
 40
0.0104167
 41
0.0104167
  0
VERTEX
  8
0
 10
0.849447
 20
1.93012
 30
0.0
 40
0.0104167
 41
0.0104167
  0
VERTEX
  8
0
 10
0.881022
 20
1.93012
 30
0.0
 40
0.0104167
 41
0.0104167
  0
VERTEX
  8
0
 10
0.881022
 20
1.99636
 30
0.0
 40
0.0104167
 41
0.0104167
  0
VERTEX
  8
0
 10
0.849447
 20
1.99636
 30
0.0
 40
0.0104167
 41
0.0104167
  0
SEQEND
 8
0
  0
POLYLINE
  8
0
 62
     7
 66
     1
 10
0
 20
0
 30
0.0
 70
     1
 40
0
 41
0
  0
VERTEX
  8
0
 10
1.59592
 20
1.68994
 30
0.0
 40
0
 41
0
  0
VERTEX
  8
0
 10
2.17449
 20
1.68994
 30
0.0
 40
0
 41
0
  0
VERTEX
  8
0
 10
2.17449
 20
1.28814
 30
0.0
 40
0
 41
0
  0
VERTEX
  8
0
 10
1.59592
 20
1.28814
 30
0.0
 40
0
 41
0
  0
VERTEX
  8
0
 10
1.59592
 20
1.68994
 30
0.0
 40
0
 41
0
  0
SEQEND
 8
0
  0
POLYLINE
  8
0
 62
     0
 66
     1
 10
0
 20
0
 30
0.0
 70
     1
 40
0.75
 41
0.75
  0
VERTEX
  8
0
 10
1.59592
 20
1.68994
 30
0.0
 40
0.0104167
 41
0.0104167
  0
VERTEX
  8
0
 10
2.17449
 20
1.68994
 30
0.0
 40
0.0104167
 41
0.0104167
  0
VERTEX
  8
0
 10
2.17449
 20
1.28814
 30
0.0
 40
0.0104167
 41
0.0104167
  0
VERTEX
  8
0
 10
1.59592
 20
1.28814
 30
0.0
 40
0.0104167
 41
0.0104167
  0
VERTEX
  8
0
 10
1.59592
 20
1.68994
 30
0.0
 40
0.0104167
 41
0.0104167
  0
SEQEND
 8
0
  0
POLYLINE
  8
0
 62
     7
 66
     1
 10
0
 20
0
 30
0.0
 70
     1
 40
0
 41
0
  0
VERTEX
  8
0
 10
1.64415
 20
1.6544
 30
0.0
 40
0
 41
0
  0
VERTEX
  8
0
 10
2.12625
 20
1.6544
 30
0.0
 40
0
 41
0
  0
VERTEX
  8
0
 10
2.12625
 20
1.38921
 30
0.0
 40
0
 41
0
  0
VERTEX
  8
0
 10
1.64415
 20
1.38921
 30
0.0
 40
0
 41
0
  0
VERTEX
  8
0
 10
1.64415
 20
1.6544
 30
0.0
 40
0
 41
0
  0
SEQEND
 8
0
  0
POLYLINE
  8
0
 62
     0
 66
     1
 10
0
 20
0
 30
0.0
 70
     1
 40
0.75
 41
0.75
  0
VERTEX
  8
0
 10
1.64415
 20
1.6544
 30
0.0
 40
0.0104167
 41
0.0104167
  0
VERTEX
  8
0
 10
2.12625
 20
1.6544
 30
0.0
 40
0.0104167
 41
0.0104167
  0
VERTEX
  8
0
 10
2.12625
 20
1.38921
 30
0.0
 40
0.0104167
 41
0.0104167
  0
VERTEX
  8
0
 10
1.64415
 20
1.38921
 30
0.0
 40
0.0104167
 41
0.0104167
  0
VERTEX
  8
0
 10
1.64415
 20
1.6544
 30
0.0
 40
0.0104167
 41
0.0104167
  0
SEQEND
 8
0
  0
POLYLINE
  8
0
 62
     7
 66
     1
 10
0
 20
0
 30
0.0
 70
     1
 40
0
 41
0
  0
VERTEX
  8
0
 10
1.84874
 20
1.50379
 30
0.0
 40
0
 41
0
  0
VERTEX
  8
0
 10
1.84874
 20
1.51025
 30
0.0
 40
0
 41
0
  0
VERTEX
  8
0
 10
1.85938
 20
1.52963
 30
0.0
 40
0
 41
0
  0
VERTEX
  8
0
 10
1.87875
 20
1.54025
 30
0.0
 40
0
 41
0
  0
VERTEX
  8
0
 10
1.88519
 20
1.54025
 30
0.0
 40
0
 41
0
  0
VERTEX
  8
0
 10
1.8916
 20
1.54025
 30
0.0
 40
0
 41
0
  0
VERTEX
  8
0
 10
1.91097
 20
1.52963
 30
0.0
 40
0
 41
0
  0
VERTEX
  8
0
 10
1.92165
 20
1.51025
 30
0.0
 40
0
 41
0
  0
VERTEX
  8
0
 10
1.92165
 20
1.50379
 30
0.0
 40
0
 41
0
  0
VERTEX
  8
0
 10
1.92165
 20
1.4974
 30
0.0
 40
0
 41
0
  0
VERTEX
  8
0
 10
1.91097
 20
1.47803
 30
0.0
 40
0
 41
0
  0
VERTEX
  8
0
 10
1.8916
 20
1.46733
 30
0.0
 40
0
 41
0
  0
VERTEX
  8
0
 10
1.88519
 20
1.46733
 30
0.0
 40
0
 41
0
  0
VERTEX
  8
0
 10
1.87875
 20
1.46733
 30
0.0
 40
0
 41
0
  0
VERTEX
  8
0
 10
1.85938
 20
1.47803
 30
0.0
 40
0
 41
0
  0
VERTEX
  8
0
 10
1.84874
 20
1.4974
 30
0.0
 40
0
 41
0
  0
VERTEX
  8
0
 10
1.84874
 20
1.50379
 30
0.0
 40
0
 41
0
  0
SEQEND
 8
0
  0
POLYLINE
  8
0
 62
     0
 66
     1
 10
0
 20
0
 30
0.0
 70
     1
 40
0.6
 41
0.6
  0
VERTEX
  8
0
 10
1.84874
 20
1.50379
 30
0.0
 40
0.00833333
 41
0.00833333
  0
VERTEX
  8
0
 10
1.84874
 20
1.51025
 30
0.0
 40
0.00833333
 41
0.00833333
  0
VERTEX
  8
0
 10
1.85938
 20
1.52963
 30
0.0
 40
0.00833333
 41
0.00833333
  0
VERTEX
  8
0
 10
1.87875
 20
1.54025
 30
0.0
 40
0.00833333
 41
0.00833333
  0
VERTEX
  8
0
 10
1.88519
 20
1.54025
 30
0.0
 40
0.00833333
 41
0.00833333
  0
VERTEX
  8
0
 10
1.8916
 20
1.54025
 30
0.0
 40
0.00833333
 41
0.00833333
  0
VERTEX
  8
0
 10
1.91097
 20
1.52963
 30
0.0
 40
0.00833333
 41
0.00833333
  0
VERTEX
  8
0
 10
1.92165
 20
1.51025
 30
0.0
 40
0.00833333
 41
0.00833333
  0
VERTEX
  8
0
 10
1.92165
 20
1.50379
 30
0.0
 40
0.00833333
 41
0.00833333
  0
VERTEX
  8
0
 10
1.92165
 20
1.4974
 30
0.0
 40
0.00833333
 41
0.00833333
  0
VERTEX
  8
0
 10
1.91097
 20
1.47803
 30
0.0
 40
0.00833333
 41
0.00833333
  0
VERTEX
  8
0
 10
1.8916
 20
1.46733
 30
0.0
 40
0.00833333
 41
0.00833333
  0
VERTEX
  8
0
 10
1.88519
 20
1.46733
 30
0.0
 40
0.00833333
 41
0.00833333
  0
VERTEX
  8
0
 10
1.87875
 20
1.46733
 30
0.0
 40
0.00833333
 41
0.00833333
  0
VERTEX
  8
0
 10
1.85938
 20
1.47803
 30
0.0
 40
0.00833333
 41
0.00833333
  0
VERTEX
  8
0
 10
1.84874
 20
1.4974
 30
0.0
 40
0.00833333
 41
0.00833333
  0
VERTEX
  8
0
 10
1.84874
 20
1.50379
 30
0.0
 40
0.00833333
 41
0.00833333
  0
SEQEND
 8
0
  0
POLYLINE
  8
0
 62
     7
 66
     1
 10
0
 20
0
 30
0.0
 70
     1
 40
0
 41
0
  0
VERTEX
  8
0
 10
1.86436
 20
1.50379
 30
0.0
 40
0
 41
0
  0
VERTEX
  8
0
 10
1.86436
 20
1.50749
 30
0.0
 40
0
 41
0
  0
VERTEX
  8
0
 10
1.87044
 20
1.51856
 30
0.0
 40
0
 41
0
  0
VERTEX
  8
0
 10
1.88151
 20
1.52463
 30
0.0
 40
0
 41
0
  0
VERTEX
  8
0
 10
1.88519
 20
1.52463
 30
0.0
 40
0
 41
0
  0
VERTEX
  8
0
 10
1.88883
 20
1.52463
 30
0.0
 40
0
 41
0
  0
VERTEX
  8
0
 10
1.8999
 20
1.51856
 30
0.0
 40
0
 41
0
  0
VERTEX
  8
0
 10
1.90603
 20
1.50749
 30
0.0
 40
0
 41
0
  0
VERTEX
  8
0
 10
1.90603
 20
1.50379
 30
0.0
 40
0
 41
0
  0
VERTEX
  8
0
 10
1.90603
 20
1.50017
 30
0.0
 40
0
 41
0
  0
VERTEX
  8
0
 10
1.8999
 20
1.4891
 30
0.0
 40
0
 41
0
  0
VERTEX
  8
0
 10
1.88883
 20
1.48296
 30
0.0
 40
0
 41
0
  0
VERTEX
  8
0
 10
1.88519
 20
1.48296
 30
0.0
 40
0
 41
0
  0
VERTEX
  8
0
 10
1.88151
 20
1.48296
 30
0.0
 40
0
 41
0
  0
VERTEX
  8
0
 10
1.87044
 20
1.4891
 30
0.0
 40
0
 41
0
  0
VERTEX
  8
0
 10
1.86436
 20
1.50017
 30
0.0
 40
0
 41
0
  0
VERTEX
  8
0
 10
1.86436
 20
1.50379
 30
0.0
 40
0
 41
0
  0
SEQEND
 8
0
  0
POLYLINE
  8
0
 62
     0
 66
     1
 10
0
 20
0
 30
0.0
 70
     1
 40
0.6
 41
0.6
  0
VERTEX
  8
0
 10
1.86436
 20
1.50379
 30
0.0
 40
0.00833333
 41
0.00833333
  0
VERTEX
  8
0
 10
1.86436
 20
1.50749
 30
0.0
 40
0.00833333
 41
0.00833333
  0
VERTEX
  8
0
 10
1.87044
 20
1.51856
 30
0.0
 40
0.00833333
 41
0.00833333
  0
VERTEX
  8
0
 10
1.88151
 20
1.52463
 30
0.0
 40
0.00833333
 41
0.00833333
  0
VERTEX
  8
0
 10
1.88519
 20
1.52463
 30
0.0
 40
0.00833333
 41
0.00833333
  0
VERTEX
  8
0
 10
1.88883
 20
1.52463
 30
0.0
 40
0.00833333
 41
0.00833333
  0
VERTEX
  8
0
 10
1.8999
 20
1.51856
 30
0.0
 40
0.00833333
 41
0.00833333
  0
VERTEX
  8
0
 10
1.90603
 20
1.50749
 30
0.0
 40
0.00833333
 41
0.00833333
  0
VERTEX
  8
0
 10
1.90603
 20
1.50379
 30
0.0
 40
0.00833333
 41
0.00833333
  0
VERTEX
  8
0
 10
1.90603
 20
1.50017
 30
0.0
 40
0.00833333
 41
0.00833333
  0
VERTEX
  8
0
 10
1.8999
 20
1.4891
 30
0.0
 40
0.00833333
 41
0.00833333
  0
VERTEX
  8
0
 10
1.88883
 20
1.48296
 30
0.0
 40
0.00833333
 41
0.00833333
  0
VERTEX
  8
0
 10
1.88519
 20
1.48296
 30
0.0
 40
0.00833333
 41
0.00833333
  0
VERTEX
  8
0
 10
1.88151
 20
1.48296
 30
0.0
 40
0.00833333
 41
0.00833333
  0
VERTEX
  8
0
 10
1.87044
 20
1.4891
 30
0.0
 40
0.00833333
 41
0.00833333
  0
VERTEX
  8
0
 10
1.86436
 20
1.50017
 30
0.0
 40
0.00833333
 41
0.00833333
  0
VERTEX
  8
0
 10
1.86436
 20
1.50379
 30
0.0
 40
0.00833333
 41
0.00833333
  0
SEQEND
 8
0
  0
POLYLINE
  8
0
 62
     7
 66
     1
 10
0
 20
0
 30
0.0
 70
     1
 40
0
 41
0
  0
VERTEX
  8
0
 10
1.85167
 20
1.46739
 30
0.0
 40
0
 41
0
  0
VERTEX
  8
0
 10
1.91417
 20
1.46739
 30
0.0
 40
0
 41
0
  0
VERTEX
  8
0
 10
1.91417
 20
1.32156
 30
0.0
 40
0
 41
0
  0
VERTEX
  8
0
 10
1.85167
 20
1.32156
 30
0.0
 40
0
 41
0
  0
VERTEX
  8
0
 10
1.85167
 20
1.46739
 30
0.0
 40
0
 41
0
  0
SEQEND
 8
0
  0
POLYLINE
  8
0
 62
     0
 66
     1
 10
0
 20
0
 30
0.0
 70
     1
 40
0.75
 41
0.75
  0
VERTEX
  8
0
 10
1.85167
 20
1.46739
 30
0.0
 40
0.0104167
 41
0.0104167
  0
VERTEX
  8
0
 10
1.91417
 20
1.46739
 30
0.0
 40
0.0104167
 41
0.0104167
  0
VERTEX
  8
0
 10
1.91417
 20
1.32156
 30
0.0
 40
0.0104167
 41
0.0104167
  0
VERTEX
  8
0
 10
1.85167
 20
1.32156
 30
0.0
 40
0.0104167
 41
0.0104167
  0
VERTEX
  8
0
 10
1.85167
 20
1.46739
 30
0.0
 40
0.0104167
 41
0.0104167
  0
SEQEND
 8
0
  0
POLYLINE
  8
0
 62
     0
 66
     1
 10
0
 20
0
 30
0.0
 70
     1
 40
0.75
 41
0.75
  0
VERTEX
  8
0
 10
1.56825
 20
1.43869
 30
0.0
 40
0.0104167
 41
0.0104167
  0
VERTEX
  8
0
 10
2.20454
 20
1.43869
 30
0.0
 40
0.0104167
 41
0.0104167
  0
VERTEX
  8
0
 10
2.20454
 20
1.28906
 30
0.0
 40
0.0104167
 41
0.0104167
  0
VERTEX
  8
0
 10
1.56825
 20
1.28906
 30
0.0
 40
0.0104167
 41
0.0104167
  0
VERTEX
  8
0
 10
1.56825
 20
1.43869
 30
0.0
 40
0.0104167
 41
0.0104167
  0
SEQEND
 8
0
  0
POLYLINE
  8
0
 62
     7
 66
     1
 10
0
 20
0
 30
0.0
 70
     1
 40
0
 41
0
  0
VERTEX
  8
0
 10
2.27897
 20
1.93858
 30
0.0
 40
0
 41
0
  0
VERTEX
  8
0
 10
2.92686
 20
1.93858
 30
0.0
 40
0
 41
0
  0
VERTEX
  8
0
 10
2.92686
 20
1.31358
 30
0.0
 40
0
 41
0
  0
VERTEX
  8
0
 10
2.27897
 20
1.31358
 30
0.0
 40
0
 41
0
  0
VERTEX
  8
0
 10
2.27897
 20
1.93858
 30
0.0
 40
0
 41
0
  0
SEQEND
 8
0
  0
POLYLINE
  8
0
 62
     0
 66
     1
 10
0
 20
0
 30
0.0
 70
     1
 40
0.77745
 41
0.77745
  0
VERTEX
  8
0
 10
2.27897
 20
1.93858
 30
0.0
 40
0.0107979
 41
0.0107979
  0
VERTEX
  8
0
 10
2.92686
 20
1.93858
 30
0.0
 40
0.0107979
 41
0.0107979
  0
VERTEX
  8
0
 10
2.92686
 20
1.31358
 30
0.0
 40
0.0107979
 41
0.0107979
  0
VERTEX
  8
0
 10
2.27897
 20
1.31358
 30
0.0
 40
0.0107979
 41
0.0107979
  0
VERTEX
  8
0
 10
2.27897
 20
1.93858
 30
0.0
 40
0.0107979
 41
0.0107979
  0
SEQEND
 8
0
  0
POLYLINE
  8
0
 62
     0
 66
     1
 10
0
 20
0
 30
0.0
 40
0.77745
 41
0.77745
  0
VERTEX
  8
0
 10
2.92686
 20
1.31358
 30
0.0
 40
0.0107979
 41
0.0107979
  0
VERTEX
  8
0
 10
2.60183
 20
1.72819
 30
0.0
 40
0.0107979
 41
0.0107979
  0
VERTEX
  8
0
 10
2.60183
 20
1.51568
 30
0.0
 40
0.0107979
 41
0.0107979
  0
VERTEX
  8
0
 10
2.28006
 20
1.93858
 30
0.0
 40
0.0107979
 41
0.0107979
  0
SEQEND
 8
0
  0
POLYLINE
  8
0
 62
     7
 66
     1
 10
0
 20
0
 30
0.0
 70
     1
 40
0
 41
0
  0
VERTEX
  8
0
 10
2.2901
 20
3.91553
 30
0.0
 40
0
 41
0
  0
VERTEX
  8
0
 10
2.65072
 20
3.91553
 30
0.0
 40
0
 41
0
  0
VERTEX
  8
0
 10
2.65072
 20
3.85335
 30
0.0
 40
0
 41
0
  0
VERTEX
  8
0
 10
2.2901
 20
3.85335
 30
0.0
 40
0
 41
0
  0
VERTEX
  8
0
 10
2.2901
 20
3.91553
 30
0.0
 40
0
 41
0
  0
SEQEND
 8
0
  0
POLYLINE
  8
0
 62
     0
 66
     1
 10
0
 20
0
 30
0.0
 70
     1
 40
0.447525
 41
0.447525
  0
VERTEX
  8
0
 10
2.2901
 20
3.91553
 30
0.0
 40
0.00621562
 41
0.00621562
  0
VERTEX
  8
0
 10
2.2901
 20
3.85335
 30
0.0
 40
0.00621562
 41
0.00621562
  0
VERTEX
  8
0
 10
2.65072
 20
3.85335
 30
0.0
 40
0.00621562
 41
0.00621562
  0
VERTEX
  8
0
 10
2.65072
 20
3.91553
 30
0.0
 40
0.00621562
 41
0.00621562
  0
VERTEX
  8
0
 10
2.2901
 20
3.91553
 30
0.0
 40
0.00621562
 41
0.00621562
  0
SEQEND
 8
0
  0
POLYLINE
  8
0
 62
     7
 66
     1
 10
0
 20
0
 30
0.0
 70
     1
 40
0
 41
0
  0
VERTEX
  8
0
 10
2.29085
 20
4.34304
 30
0.0
 40
0
 41
0
  0
VERTEX
  8
0
 10
2.88222
 20
4.34304
 30
0.0
 40
0
 41
0
  0
VERTEX
  8
0
 10
2.88222
 20
3.91553
 30
0.0
 40
0
 41
0
  0
VERTEX
  8
0
 10
2.29085
 20
3.91553
 30
0.0
 40
0
 41
0
  0
VERTEX
  8
0
 10
2.29085
 20
4.34304
 30
0.0
 40
0
 41
0
  0
SEQEND
 8
0
  0
POLYLINE
  8
0
 62
     0
 66
     1
 10
0
 20
0
 30
0.0
 70
     1
 40
0.75
 41
0.75
  0
VERTEX
  8
0
 10
2.29085
 20
4.34304
 30
0.0
 40
0.0104167
 41
0.0104167
  0
VERTEX
  8
0
 10
2.29085
 20
3.91553
 30
0.0
 40
0.0104167
 41
0.0104167
  0
VERTEX
  8
0
 10
2.88222
 20
3.91553
 30
0.0
 40
0.0104167
 41
0.0104167
  0
VERTEX
  8
0
 10
2.88222
 20
4.34304
 30
0.0
 40
0.0104167
 41
0.0104167
  0
VERTEX
  8
0
 10
2.29085
 20
4.34304
 30
0.0
 40
0.0104167
 41
0.0104167
  0
SEQEND
 8
0
  0
POLYLINE
  8
0
 62
     253
 66
     1
 10
0
 20
0
 30
0.0
 40
0.75
 41
0.75
  0
VERTEX
  8
0
 10
2.58649
 20
3.91553
 30
0.0
 40
0.0104167
 41
0.0104167
  0
VERTEX
  8
0
 10
2.58649
 20
4.34299
 30
0.0
 40
0.0104167
 41
0.0104167
  0
SEQEND
 8
0
  0
POLYLINE
  8
0
 62
     7
 66
     1
 10
0
 20
0
 30
0.0
 70
     1
 40
0
 41
0
  0
VERTEX
  8
0
 10
2.29085
 20
4.75672
 30
0.0
 40
0
 41
0
  0
VERTEX
  8
0
 10
2.88222
 20
4.75672
 30
0.0
 40
0
 41
0
  0
VERTEX
  8
0
 10
2.88222
 20
4.34299
 30
0.0
 40
0
 41
0
  0
VERTEX
  8
0
 10
2.29085
 20
4.34299
 30
0.0
 40
0
 41
0
  0
VERTEX
  8
0
 10
2.29085
 20
4.75672
 30
0.0
 40
0
 41
0
  0
SEQEND
 8
0
  0
POLYLINE
  8
0
 62
     0
 66
     1
 10
0
 20
0
 30
0.0
 70
     1
 40
0.75
 41
0.75
  0
VERTEX
  8
0
 10
2.29085
 20
4.75672
 30
0.0
 40
0.0104167
 41
0.0104167
  0
VERTEX
  8
0
 10
2.29085
 20
4.34299
 30
0.0
 40
0.0104167
 41
0.0104167
  0
VERTEX
  8
0
 10
2.88222
 20
4.34299
 30
0.0
 40
0.0104167
 41
0.0104167
  0
VERTEX
  8
0
 10
2.88222
 20
4.75672
 30
0.0
 40
0.0104167
 41
0.0104167
  0
VERTEX
  8
0
 10
2.29085
 20
4.75672
 30
0.0
 40
0.0104167
 41
0.0104167
  0
SEQEND
 8
0
  0
POLYLINE
  8
0
 62
     7
 66
     1
 10
0
 20
0
 30
0.0
 70
     1
 40
0
 41
0
  0
VERTEX
  8
0
 10
2.29101
 20
4.82374
 30
0.0
 40
0
 41
0
  0
VERTEX
  8
0
 10
2.85986
 20
4.82374
 30
0.0
 40
0
 41
0
  0
VERTEX
  8
0
 10
2.85986
 20
4.75672
 30
0.0
 40
0
 41
0
  0
VERTEX
  8
0
 10
2.29101
 20
4.75672
 30
0.0
 40
0
 41
0
  0
VERTEX
  8
0
 10
2.29101
 20
4.82374
 30
0.0
 40
0
 41
0
  0
SEQEND
 8
0
  0
POLYLINE
  8
0
 62
     0
 66
     1
 10
0
 20
0
 30
0.0
 70
     1
 40
0.4827
 41
0.4827
  0
VERTEX
  8
0
 10
2.29101
 20
4.82374
 30
0.0
 40
0.00670417
 41
0.00670417
  0
VERTEX
  8
0
 10
2.29101
 20
4.75672
 30
0.0
 40
0.00670417
 41
0.00670417
  0
VERTEX
  8
0
 10
2.85986
 20
4.75672
 30
0.0
 40
0.00670417
 41
0.00670417
  0
VERTEX
  8
0
 10
2.85986
 20
4.82374
 30
0.0
 40
0.00670417
 41
0.00670417
  0
VERTEX
  8
0
 10
2.29101
 20
4.82374
 30
0.0
 40
0.00670417
 41
0.00670417
  0
SEQEND
 8
0
  0
POLYLINE
  8
0
 62
     7
 66
     1
 10
0
 20
0
 30
0.0
 70
     1
 40
0
 41
0
  0
VERTEX
  8
0
 10
2.90001
 20
6.87603
 30
0.0
 40
0
 41
0
  0
VERTEX
  8
0
 10
2.92606
 20
6.87603
 30
0.0
 40
0
 41
0
  0
VERTEX
  8
0
 10
2.92606
 20
5.73529
 30
0.0
 40
0
 41
0
  0
VERTEX
  8
0
 10
2.90001
 20
5.73529
 30
0.0
 40
0
 41
0
  0
VERTEX
  8
0
 10
2.90001
 20
6.87603
 30
0.0
 40
0
 41
0
  0
SEQEND
 8
0
  0
POLYLINE
  8
0
 62
     0
 66
     1
 10
0
 20
0
 30
0.0
 70
     1
 40
0.75
 41
0.75
  0
VERTEX
  8
0
 10
2.90001
 20
6.87603
 30
0.0
 40
0.0104167
 41
0.0104167
  0
VERTEX
  8
0
 10
2.92606
 20
6.87603
 30
0.0
 40
0.0104167
 41
0.0104167
  0
VERTEX
  8
0
 10
2.92606
 20
5.73529
 30
0.0
 40
0.0104167
 41
0.0104167
  0
VERTEX
  8
0
 10
2.90001
 20
5.73529
 30
0.0
 40
0.0104167
 41
0.0104167
  0
VERTEX
  8
0
 10
2.90001
 20
6.87603
 30
0.0
 40
0.0104167
 41
0.0104167
  0
SEQEND
 8
0
  0
POLYLINE
  8
0
 62
     7
 66
     1
 10
0
 20
0
 30
0.0
 70
     1
 40
0
 41
0
  0
VERTEX
  8
0
 10
2.90001
 20
6.87603
 30
0.0
 40
0
 41
0
  0
VERTEX
  8
0
 10
2.92606
 20
6.87603
 30
0.0
 40
0
 41
0
  0
VERTEX
  8
0
 10
2.92606
 20
5.73529
 30
0.0
 40
0
 41
0
  0
VERTEX
  8
0
 10
2.90001
 20
5.73529
 30
0.0
 40
0
 41
0
  0
VERTEX
  8
0
 10
2.90001
 20
6.87603
 30
0.0
 40
0
 41
0
  0
SEQEND
 8
0
  0
POLYLINE
  8
0
 62
     0
 66
     1
 10
0
 20
0
 30
0.0
 70
     1
 40
0.75
 41
0.75
  0
VERTEX
  8
0
 10
2.90001
 20
6.87603
 30
0.0
 40
0.0104167
 41
0.0104167
  0
VERTEX
  8
0
 10
2.92606
 20
6.87603
 30
0.0
 40
0.0104167
 41
0.0104167
  0
VERTEX
  8
0
 10
2.92606
 20
5.73529
 30
0.0
 40
0.0104167
 41
0.0104167
  0
VERTEX
  8
0
 10
2.90001
 20
5.73529
 30
0.0
 40
0.0104167
 41
0.0104167
  0
VERTEX
  8
0
 10
2.90001
 20
6.87603
 30
0.0
 40
0.0104167
 41
0.0104167
  0
SEQEND
 8
0
  0
POLYLINE
  8
0
 62
     7
 66
     1
 10
0
 20
0
 30
0.0
 70
     1
 40
0
 41
0
  0
VERTEX
  8
0
 10
4.5931
 20
1.78749
 30
0.0
 40
0
 41
0
  0
VERTEX
  8
0
 10
5.22592
 20
1.78749
 30
0.0
 40
0
 41
0
  0
VERTEX
  8
0
 10
5.22592
 20
1.16249
 30
0.0
 40
0
 41
0
  0
VERTEX
  8
0
 10
4.5931
 20
1.16249
 30
0.0
 40
0
 41
0
  0
VERTEX
  8
0
 10
4.5931
 20
1.78749
 30
0.0
 40
0
 41
0
  0
SEQEND
 8
0
  0
POLYLINE
  8
0
 62
     0
 66
     1
 10
0
 20
0
 30
0.0
 70
     1
 40
0.759375
 41
0.759375
  0
VERTEX
  8
0
 10
4.5931
 20
1.78749
 30
0.0
 40
0.0105469
 41
0.0105469
  0
VERTEX
  8
0
 10
5.22592
 20
1.78749
 30
0.0
 40
0.0105469
 41
0.0105469
  0
VERTEX
  8
0
 10
5.22592
 20
1.16249
 30
0.0
 40
0.0105469
 41
0.0105469
  0
VERTEX
  8
0
 10
4.5931
 20
1.16249
 30
0.0
 40
0.0105469
 41
0.0105469
  0
VERTEX
  8
0
 10
4.5931
 20
1.78749
 30
0.0
 40
0.0105469
 41
0.0105469
  0
SEQEND
 8
0
  0
POLYLINE
  8
0
 62
     0
 66
     1
 10
0
 20
0
 30
0.0
 40
0.759375
 41
0.759375
  0
VERTEX
  8
0
 10
5.22592
 20
1.16249
 30
0.0
 40
0.0105469
 41
0.0105469
  0
VERTEX
  8
0
 10
4.9095
 20
1.54893
 30
0.0
 40
0.0105469
 41
0.0105469
  0
VERTEX
  8
0
 10
4.9095
 20
1.36144
 30
0.0
 40
0.0105469
 41
0.0105469
  0
VERTEX
  8
0
 10
4.5931
 20
1.74897
 30
0.0
 40
0.0105469
 41
0.0105469
  0
SEQEND
 8
0
  0
POLYLINE
  8
0
 62
     7
 66
     1
 10
0
 20
0
 30
0.0
 70
     1
 40
0
 41
0
  0
VERTEX
  8
0
 10
4.5931
 20
1.78749
 30
0.0
 40
0
 41
0
  0
VERTEX
  8
0
 10
5.22592
 20
1.78749
 30
0.0
 40
0
 41
0
  0
VERTEX
  8
0
 10
5.22592
 20
1.74582
 30
0.0
 40
0
 41
0
  0
VERTEX
  8
0
 10
4.5931
 20
1.74582
 30
0.0
 40
0
 41
0
  0
VERTEX
  8
0
 10
4.5931
 20
1.78749
 30
0.0
 40
0
 41
0
  0
SEQEND
 8
0
  0
POLYLINE
  8
0
 62
     0
 66
     1
 10
0
 20
0
 30
0.0
 70
     1
 40
0.759375
 41
0.759375
  0
VERTEX
  8
0
 10
4.5931
 20
1.78749
 30
0.0
 40
0.0105469
 41
0.0105469
  0
VERTEX
  8
0
 10
5.22592
 20
1.78749
 30
0.0
 40
0.0105469
 41
0.0105469
  0
VERTEX
  8
0
 10
5.22592
 20
1.74582
 30
0.0
 40
0.0105469
 41
0.0105469
  0
VERTEX
  8
0
 10
4.5931
 20
1.74582
 30
0.0
 40
0.0105469
 41
0.0105469
  0
VERTEX
  8
0
 10
4.5931
 20
1.78749
 30
0.0
 40
0.0105469
 41
0.0105469
  0
SEQEND
 8
0
  0
POLYLINE
  8
0
 62
     7
 66
     1
 10
0
 20
0
 30
0.0
 70
     1
 40
0
 41
0
  0
VERTEX
  8
0
 10
4.50896
 20
1.78717
 30
0.0
 40
0
 41
0
  0
VERTEX
  8
0
 10
4.5931
 20
1.78717
 30
0.0
 40
0
 41
0
  0
VERTEX
  8
0
 10
4.5931
 20
1.16216
 30
0.0
 40
0
 41
0
  0
VERTEX
  8
0
 10
4.50896
 20
1.16216
 30
0.0
 40
0
 41
0
  0
VERTEX
  8
0
 10
4.50896
 20
1.78717
 30
0.0
 40
0
 41
0
  0
SEQEND
 8
0
  0
POLYLINE
  8
0
 62
     0
 66
     1
 10
0
 20
0
 30
0.0
 70
     1
 40
0.605775
 41
0.605775
  0
VERTEX
  8
0
 10
4.50896
 20
1.78717
 30
0.0
 40
0.00841354
 41
0.00841354
  0
VERTEX
  8
0
 10
4.5931
 20
1.78717
 30
0.0
 40
0.00841354
 41
0.00841354
  0
VERTEX
  8
0
 10
4.5931
 20
1.16216
 30
0.0
 40
0.00841354
 41
0.00841354
  0
VERTEX
  8
0
 10
4.50896
 20
1.16216
 30
0.0
 40
0.00841354
 41
0.00841354
  0
VERTEX
  8
0
 10
4.50896
 20
1.78717
 30
0.0
 40
0.00841354
 41
0.00841354
  0
SEQEND
 8
0
  0
POLYLINE
  8
0
 62
     7
 66
     1
 10
0
 20
0
 30
0.0
 70
     1
 40
0
 41
0
  0
VERTEX
  8
0
 10
5.23008
 20
4.28043
 30
0.0
 40
0
 41
0
  0
VERTEX
  8
0
 10
5.84967
 20
4.28043
 30
0.0
 40
0
 41
0
  0
VERTEX
  8
0
 10
5.84967
 20
1.60124
 30
0.0
 40
0
 41
0
  0
VERTEX
  8
0
 10
5.23008
 20
1.60124
 30
0.0
 40
0
 41
0
  0
VERTEX
  8
0
 10
5.23008
 20
4.28043
 30
0.0
 40
0
 41
0
  0
SEQEND
 8
0
  0
POLYLINE
  8
0
 62
     0
 66
     1
 10
0
 20
0
 30
0.0
 70
     1
 40
0.75
 41
0.75
  0
VERTEX
  8
0
 10
5.23008
 20
4.28043
 30
0.0
 40
0.0104167
 41
0.0104167
  0
VERTEX
  8
0
 10
5.23008
 20
1.60124
 30
0.0
 40
0.0104167
 41
0.0104167
  0
VERTEX
  8
0
 10
5.84967
 20
1.60124
 30
0.0
 40
0.0104167
 41
0.0104167
  0
VERTEX
  8
0
 10
5.84967
 20
4.28043
 30
0.0
 40
0.0104167
 41
0.0104167
  0
VERTEX
  8
0
 10
5.23008
 20
4.28043
 30
0.0
 40
0.0104167
 41
0.0104167
  0
SEQEND
 8
0
  0
POLYLINE
  8
0
 62
     7
 66
     1
 10
0
 20
0
 30
0.0
 70
     1
 40
0
 41
0
  0
VERTEX
  8
0
 10
5.34853
 20
2.46408
 30
0.0
 40
0
 41
0
  0
VERTEX
  8
0
 10
5.71636
 20
2.46408
 30
0.0
 40
0
 41
0
  0
VERTEX
  8
0
 10
5.71636
 20
2.27783
 30
0.0
 40
0
 41
0
  0
VERTEX
  8
0
 10
5.34853
 20
2.27783
 30
0.0
 40
0
 41
0
  0
VERTEX
  8
0
 10
5.34853
 20
2.46408
 30
0.0
 40
0
 41
0
  0
SEQEND
 8
0
  0
POLYLINE
  8
0
 62
     0
 66
     1
 10
0
 20
0
 30
0.0
 70
     1
 40
0.75
 41
0.75
  0
VERTEX
  8
0
 10
5.34853
 20
2.46408
 30
0.0
 40
0.0104167
 41
0.0104167
  0
VERTEX
  8
0
 10
5.34853
 20
2.27783
 30
0.0
 40
0.0104167
 41
0.0104167
  0
VERTEX
  8
0
 10
5.71636
 20
2.27783
 30
0.0
 40
0.0104167
 41
0.0104167
  0
VERTEX
  8
0
 10
5.71636
 20
2.46408
 30
0.0
 40
0.0104167
 41
0.0104167
  0
VERTEX
  8
0
 10
5.34853
 20
2.46408
 30
0.0
 40
0.0104167
 41
0.0104167
  0
SEQEND
 8
0
  0
POLYLINE
  8
0
 62
     7
 66
     1
 10
0
 20
0
 30
0.0
 70
     1
 40
0
 41
0
  0
VERTEX
  8
0
 10
5.34771
 20
2.24994
 30
0.0
 40
0
 41
0
  0
VERTEX
  8
0
 10
5.71528
 20
2.24994
 30
0.0
 40
0
 41
0
  0
VERTEX
  8
0
 10
5.71528
 20
1.90533
 30
0.0
 40
0
 41
0
  0
VERTEX
  8
0
 10
5.34771
 20
1.90533
 30
0.0
 40
0
 41
0
  0
VERTEX
  8
0
 10
5.34771
 20
2.24994
 30
0.0
 40
0
 41
0
  0
SEQEND
 8
0
  0
POLYLINE
  8
0
 62
     0
 66
     1
 10
0
 20
0
 30
0.0
 70
     1
 40
0.75
 41
0.75
  0
VERTEX
  8
0
 10
5.34771
 20
2.24994
 30
0.0
 40
0.0104167
 41
0.0104167
  0
VERTEX
  8
0
 10
5.34771
 20
1.90533
 30
0.0
 40
0.0104167
 41
0.0104167
  0
VERTEX
  8
0
 10
5.71528
 20
1.90533
 30
0.0
 40
0.0104167
 41
0.0104167
  0
VERTEX
  8
0
 10
5.71528
 20
2.24994
 30
0.0
 40
0.0104167
 41
0.0104167
  0
VERTEX
  8
0
 10
5.34771
 20
2.24994
 30
0.0
 40
0.0104167
 41
0.0104167
  0
SEQEND
 8
0
  0
POLYLINE
  8
0
 62
     7
 66
     1
 10
0
 20
0
 30
0.0
 70
     1
 40
0
 41
0
  0
VERTEX
  8
0
 10
5.54069
 20
2.33453
 30
0.0
 40
0
 41
0
  0
VERTEX
  8
0
 10
5.53424
 20
2.33453
 30
0.0
 40
0
 41
0
  0
VERTEX
  8
0
 10
5.51486
 20
2.34521
 30
0.0
 40
0
 41
0
  0
VERTEX
  8
0
 10
5.50424
 20
2.36458
 30
0.0
 40
0
 41
0
  0
VERTEX
  8
0
 10
5.50424
 20
2.37099
 30
0.0
 40
0
 41
0
  0
VERTEX
  8
0
 10
5.50424
 20
2.37744
 30
0.0
 40
0
 41
0
  0
VERTEX
  8
0
 10
5.51486
 20
2.39681
 30
0.0
 40
0
 41
0
  0
VERTEX
  8
0
 10
5.53424
 20
2.40744
 30
0.0
 40
0
 41
0
  0
VERTEX
  8
0
 10
5.54069
 20
2.40744
 30
0.0
 40
0
 41
0
  0
VERTEX
  8
0
 10
5.5471
 20
2.40744
 30
0.0
 40
0
 41
0
  0
VERTEX
  8
0
 10
5.56646
 20
2.39681
 30
0.0
 40
0
 41
0
  0
VERTEX
  8
0
 10
5.57715
 20
2.37744
 30
0.0
 40
0
 41
0
  0
VERTEX
  8
0
 10
5.57715
 20
2.37099
 30
0.0
 40
0
 41
0
  0
VERTEX
  8
0
 10
5.57715
 20
2.36458
 30
0.0
 40
0
 41
0
  0
VERTEX
  8
0
 10
5.56646
 20
2.34521
 30
0.0
 40
0
 41
0
  0
VERTEX
  8
0
 10
5.5471
 20
2.33453
 30
0.0
 40
0
 41
0
  0
VERTEX
  8
0
 10
5.54069
 20
2.33453
 30
0.0
 40
0
 41
0
  0
SEQEND
 8
0
  0
POLYLINE
  8
0
 62
     0
 66
     1
 10
0
 20
0
 30
0.0
 70
     1
 40
0.6
 41
0.6
  0
VERTEX
  8
0
 10
5.54069
 20
2.33453
 30
0.0
 40
0.00833333
 41
0.00833333
  0
VERTEX
  8
0
 10
5.53424
 20
2.33453
 30
0.0
 40
0.00833333
 41
0.00833333
  0
VERTEX
  8
0
 10
5.51486
 20
2.34521
 30
0.0
 40
0.00833333
 41
0.00833333
  0
VERTEX
  8
0
 10
5.50424
 20
2.36458
 30
0.0
 40
0.00833333
 41
0.00833333
  0
VERTEX
  8
0
 10
5.50424
 20
2.37099
 30
0.0
 40
0.00833333
 41
0.00833333
  0
VERTEX
  8
0
 10
5.50424
 20
2.37744
 30
0.0
 40
0.00833333
 41
0.00833333
  0
VERTEX
  8
0
 10
5.51486
 20
2.39681
 30
0.0
 40
0.00833333
 41
0.00833333
  0
VERTEX
  8
0
 10
5.53424
 20
2.40744
 30
0.0
 40
0.00833333
 41
0.00833333
  0
VERTEX
  8
0
 10
5.54069
 20
2.40744
 30
0.0
 40
0.00833333
 41
0.00833333
  0
VERTEX
  8
0
 10
5.5471
 20
2.40744
 30
0.0
 40
0.00833333
 41
0.00833333
  0
VERTEX
  8
0
 10
5.56646
 20
2.39681
 30
0.0
 40
0.00833333
 41
0.00833333
  0
VERTEX
  8
0
 10
5.57715
 20
2.37744
 30
0.0
 40
0.00833333
 41
0.00833333
  0
VERTEX
  8
0
 10
5.57715
 20
2.37099
 30
0.0
 40
0.00833333
 41
0.00833333
  0
VERTEX
  8
0
 10
5.57715
 20
2.36458
 30
0.0
 40
0.00833333
 41
0.00833333
  0
VERTEX
  8
0
 10
5.56646
 20
2.34521
 30
0.0
 40
0.00833333
 41
0.00833333
  0
VERTEX
  8
0
 10
5.5471
 20
2.33453
 30
0.0
 40
0.00833333
 41
0.00833333
  0
VERTEX
  8
0
 10
5.54069
 20
2.33453
 30
0.0
 40
0.00833333
 41
0.00833333
  0
SEQEND
 8
0
  0
POLYLINE
  8
0
 62
     7
 66
     1
 10
0
 20
0
 30
0.0
 70
     1
 40
0
 41
0
  0
VERTEX
  8
0
 10
5.54069
 20
2.04579
 30
0.0
 40
0
 41
0
  0
VERTEX
  8
0
 10
5.53424
 20
2.04579
 30
0.0
 40
0
 41
0
  0
VERTEX
  8
0
 10
5.51486
 20
2.05647
 30
0.0
 40
0
 41
0
  0
VERTEX
  8
0
 10
5.50424
 20
2.07585
 30
0.0
 40
0
 41
0
  0
VERTEX
  8
0
 10
5.50424
 20
2.08225
 30
0.0
 40
0
 41
0
  0
VERTEX
  8
0
 10
5.50424
 20
2.08871
 30
0.0
 40
0
 41
0
  0
VERTEX
  8
0
 10
5.51486
 20
2.10807
 30
0.0
 40
0
 41
0
  0
VERTEX
  8
0
 10
5.53424
 20
2.11871
 30
0.0
 40
0
 41
0
  0
VERTEX
  8
0
 10
5.54069
 20
2.11871
 30
0.0
 40
0
 41
0
  0
VERTEX
  8
0
 10
5.5471
 20
2.11871
 30
0.0
 40
0
 41
0
  0
VERTEX
  8
0
 10
5.56646
 20
2.10807
 30
0.0
 40
0
 41
0
  0
VERTEX
  8
0
 10
5.57715
 20
2.08871
 30
0.0
 40
0
 41
0
  0
VERTEX
  8
0
 10
5.57715
 20
2.08225
 30
0.0
 40
0
 41
0
  0
VERTEX
  8
0
 10
5.57715
 20
2.07585
 30
0.0
 40
0
 41
0
  0
VERTEX
  8
0
 10
5.56646
 20
2.05647
 30
0.0
 40
0
 41
0
  0
VERTEX
  8
0
 10
5.5471
 20
2.04579
 30
0.0
 40
0
 41
0
  0
VERTEX
  8
0
 10
5.54069
 20
2.04579
 30
0.0
 40
0
 41
0
  0
SEQEND
 8
0
  0
POLYLINE
  8
0
 62
     0
 66
     1
 10
0
 20
0
 30
0.0
 70
     1
 40
0.6
 41
0.6
  0
VERTEX
  8
0
 10
5.54069
 20
2.04579
 30
0.0
 40
0.00833333
 41
0.00833333
  0
VERTEX
  8
0
 10
5.53424
 20
2.04579
 30
0.0
 40
0.00833333
 41
0.00833333
  0
VERTEX
  8
0
 10
5.51486
 20
2.05647
 30
0.0
 40
0.00833333
 41
0.00833333
  0
VERTEX
  8
0
 10
5.50424
 20
2.07585
 30
0.0
 40
0.00833333
 41
0.00833333
  0
VERTEX
  8
0
 10
5.50424
 20
2.08225
 30
0.0
 40
0.00833333
 41
0.00833333
  0
VERTEX
  8
0
 10
5.50424
 20
2.08871
 30
0.0
 40
0.00833333
 41
0.00833333
  0
VERTEX
  8
0
 10
5.51486
 20
2.10807
 30
0.0
 40
0.00833333
 41
0.00833333
  0
VERTEX
  8
0
 10
5.53424
 20
2.11871
 30
0.0
 40
0.00833333
 41
0.00833333
  0
VERTEX
  8
0
 10
5.54069
 20
2.11871
 30
0.0
 40
0.00833333
 41
0.00833333
  0
VERTEX
  8
0
 10
5.5471
 20
2.11871
 30
0.0
 40
0.00833333
 41
0.00833333
  0
VERTEX
  8
0
 10
5.56646
 20
2.10807
 30
0.0
 40
0.00833333
 41
0.00833333
  0
VERTEX
  8
0
 10
5.57715
 20
2.08871
 30
0.0
 40
0.00833333
 41
0.00833333
  0
VERTEX
  8
0
 10
5.57715
 20
2.08225
 30
0.0
 40
0.00833333
 41
0.00833333
  0
VERTEX
  8
0
 10
5.57715
 20
2.07585
 30
0.0
 40
0.00833333
 41
0.00833333
  0
VERTEX
  8
0
 10
5.56646
 20
2.05647
 30
0.0
 40
0.00833333
 41
0.00833333
  0
VERTEX
  8
0
 10
5.5471
 20
2.04579
 30
0.0
 40
0.00833333
 41
0.00833333
  0
VERTEX
  8
0
 10
5.54069
 20
2.04579
 30
0.0
 40
0.00833333
 41
0.00833333
  0
SEQEND
 8
0
  0
POLYLINE
  8
0
 62
     7
 66
     1
 10
0
 20
0
 30
0.0
 70
     1
 40
0
 41
0
  0
VERTEX
  8
0
 10
5.54069
 20
2.35015
 30
0.0
 40
0
 41
0
  0
VERTEX
  8
0
 10
5.537
 20
2.35015
 30
0.0
 40
0
 41
0
  0
VERTEX
  8
0
 10
5.52593
 20
2.35628
 30
0.0
 40
0
 41
0
  0
VERTEX
  8
0
 10
5.51986
 20
2.36735
 30
0.0
 40
0
 41
0
  0
VERTEX
  8
0
 10
5.51986
 20
2.37099
 30
0.0
 40
0
 41
0
  0
VERTEX
  8
0
 10
5.51986
 20
2.37468
 30
0.0
 40
0
 41
0
  0
VERTEX
  8
0
 10
5.52593
 20
2.38574
 30
0.0
 40
0
 41
0
  0
VERTEX
  8
0
 10
5.537
 20
2.39182
 30
0.0
 40
0
 41
0
  0
VERTEX
  8
0
 10
5.54069
 20
2.39182
 30
0.0
 40
0
 41
0
  0
VERTEX
  8
0
 10
5.54432
 20
2.39182
 30
0.0
 40
0
 41
0
  0
VERTEX
  8
0
 10
5.55539
 20
2.38574
 30
0.0
 40
0
 41
0
  0
VERTEX
  8
0
 10
5.56153
 20
2.37468
 30
0.0
 40
0
 41
0
  0
VERTEX
  8
0
 10
5.56153
 20
2.37099
 30
0.0
 40
0
 41
0
  0
VERTEX
  8
0
 10
5.56153
 20
2.36735
 30
0.0
 40
0
 41
0
  0
VERTEX
  8
0
 10
5.55539
 20
2.35628
 30
0.0
 40
0
 41
0
  0
VERTEX
  8
0
 10
5.54432
 20
2.35015
 30
0.0
 40
0
 41
0
  0
VERTEX
  8
0
 10
5.54069
 20
2.35015
 30
0.0
 40
0
 41
0
  0
SEQEND
 8
0
  0
POLYLINE
  8
0
 62
     0
 66
     1
 10
0
 20
0
 30
0.0
 70
     1
 40
0.6
 41
0.6
  0
VERTEX
  8
0
 10
5.54069
 20
2.35015
 30
0.0
 40
0.00833333
 41
0.00833333
  0
VERTEX
  8
0
 10
5.537
 20
2.35015
 30
0.0
 40
0.00833333
 41
0.00833333
  0
VERTEX
  8
0
 10
5.52593
 20
2.35628
 30
0.0
 40
0.00833333
 41
0.00833333
  0
VERTEX
  8
0
 10
5.51986
 20
2.36735
 30
0.0
 40
0.00833333
 41
0.00833333
  0
VERTEX
  8
0
 10
5.51986
 20
2.37099
 30
0.0
 40
0.00833333
 41
0.00833333
  0
VERTEX
  8
0
 10
5.51986
 20
2.37468
 30
0.0
 40
0.00833333
 41
0.00833333
  0
VERTEX
  8
0
 10
5.52593
 20
2.38574
 30
0.0
 40
0.00833333
 41
0.00833333
  0
VERTEX
  8
0
 10
5.537
 20
2.39182
 30
0.0
 40
0.00833333
 41
0.00833333
  0
VERTEX
  8
0
 10
5.54069
 20
2.39182
 30
0.0
 40
0.00833333
 41
0.00833333
  0
VERTEX
  8
0
 10
5.54432
 20
2.39182
 30
0.0
 40
0.00833333
 41
0.00833333
  0
VERTEX
  8
0
 10
5.55539
 20
2.38574
 30
0.0
 40
0.00833333
 41
0.00833333
  0
VERTEX
  8
0
 10
5.56153
 20
2.37468
 30
0.0
 40
0.00833333
 41
0.00833333
  0
VERTEX
  8
0
 10
5.56153
 20
2.37099
 30
0.0
 40
0.00833333
 41
0.00833333
  0
VERTEX
  8
0
 10
5.56153
 20
2.36735
 30
0.0
 40
0.00833333
 41
0.00833333
  0
VERTEX
  8
0
 10
5.55539
 20
2.35628
 30
0.0
 40
0.00833333
 41
0.00833333
  0
VERTEX
  8
0
 10
5.54432
 20
2.35015
 30
0.0
 40
0.00833333
 41
0.00833333
  0
VERTEX
  8
0
 10
5.54069
 20
2.35015
 30
0.0
 40
0.00833333
 41
0.00833333
  0
SEQEND
 8
0
  0
POLYLINE
  8
0
 62
     7
 66
     1
 10
0
 20
0
 30
0.0
 70
     1
 40
0
 41
0
  0
VERTEX
  8
0
 10
5.54069
 20
2.06142
 30
0.0
 40
0
 41
0
  0
VERTEX
  8
0
 10
5.537
 20
2.06142
 30
0.0
 40
0
 41
0
  0
VERTEX
  8
0
 10
5.52593
 20
2.06754
 30
0.0
 40
0
 41
0
  0
VERTEX
  8
0
 10
5.51986
 20
2.07861
 30
0.0
 40
0
 41
0
  0
VERTEX
  8
0
 10
5.51986
 20
2.08225
 30
0.0
 40
0
 41
0
  0
VERTEX
  8
0
 10
5.51986
 20
2.08594
 30
0.0
 40
0
 41
0
  0
VERTEX
  8
0
 10
5.52593
 20
2.097
 30
0.0
 40
0
 41
0
  0
VERTEX
  8
0
 10
5.537
 20
2.10308
 30
0.0
 40
0
 41
0
  0
VERTEX
  8
0
 10
5.54069
 20
2.10308
 30
0.0
 40
0
 41
0
  0
VERTEX
  8
0
 10
5.54432
 20
2.10308
 30
0.0
 40
0
 41
0
  0
VERTEX
  8
0
 10
5.55539
 20
2.097
 30
0.0
 40
0
 41
0
  0
VERTEX
  8
0
 10
5.56153
 20
2.08594
 30
0.0
 40
0
 41
0
  0
VERTEX
  8
0
 10
5.56153
 20
2.08225
 30
0.0
 40
0
 41
0
  0
VERTEX
  8
0
 10
5.56153
 20
2.07861
 30
0.0
 40
0
 41
0
  0
VERTEX
  8
0
 10
5.55539
 20
2.06754
 30
0.0
 40
0
 41
0
  0
VERTEX
  8
0
 10
5.54432
 20
2.06142
 30
0.0
 40
0
 41
0
  0
VERTEX
  8
0
 10
5.54069
 20
2.06142
 30
0.0
 40
0
 41
0
  0
SEQEND
 8
0
  0
POLYLINE
  8
0
 62
     0
 66
     1
 10
0
 20
0
 30
0.0
 70
     1
 40
0.6
 41
0.6
  0
VERTEX
  8
0
 10
5.54069
 20
2.06142
 30
0.0
 40
0.00833333
 41
0.00833333
  0
VERTEX
  8
0
 10
5.537
 20
2.06142
 30
0.0
 40
0.00833333
 41
0.00833333
  0
VERTEX
  8
0
 10
5.52593
 20
2.06754
 30
0.0
 40
0.00833333
 41
0.00833333
  0
VERTEX
  8
0
 10
5.51986
 20
2.07861
 30
0.0
 40
0.00833333
 41
0.00833333
  0
VERTEX
  8
0
 10
5.51986
 20
2.08225
 30
0.0
 40
0.00833333
 41
0.00833333
  0
VERTEX
  8
0
 10
5.51986
 20
2.08594
 30
0.0
 40
0.00833333
 41
0.00833333
  0
VERTEX
  8
0
 10
5.52593
 20
2.097
 30
0.0
 40
0.00833333
 41
0.00833333
  0
VERTEX
  8
0
 10
5.537
 20
2.10308
 30
0.0
 40
0.00833333
 41
0.00833333
  0
VERTEX
  8
0
 10
5.54069
 20
2.10308
 30
0.0
 40
0.00833333
 41
0.00833333
  0
VERTEX
  8
0
 10
5.54432
 20
2.10308
 30
0.0
 40
0.00833333
 41
0.00833333
  0
VERTEX
  8
0
 10
5.55539
 20
2.097
 30
0.0
 40
0.00833333
 41
0.00833333
  0
VERTEX
  8
0
 10
5.56153
 20
2.08594
 30
0.0
 40
0.00833333
 41
0.00833333
  0
VERTEX
  8
0
 10
5.56153
 20
2.08225
 30
0.0
 40
0.00833333
 41
0.00833333
  0
VERTEX
  8
0
 10
5.56153
 20
2.07861
 30
0.0
 40
0.00833333
 41
0.00833333
  0
VERTEX
  8
0
 10
5.55539
 20
2.06754
 30
0.0
 40
0.00833333
 41
0.00833333
  0
VERTEX
  8
0
 10
5.54432
 20
2.06142
 30
0.0
 40
0.00833333
 41
0.00833333
  0
VERTEX
  8
0
 10
5.54069
 20
2.06142
 30
0.0
 40
0.00833333
 41
0.00833333
  0
SEQEND
 8
0
  0
POLYLINE
  8
0
 62
     7
 66
     1
 10
0
 20
0
 30
0.0
 70
     1
 40
0
 41
0
  0
VERTEX
  8
0
 10
5.63167
 20
2.21263
 30
0.0
 40
0
 41
0
  0
VERTEX
  8
0
 10
5.7775
 20
2.21263
 30
0.0
 40
0
 41
0
  0
VERTEX
  8
0
 10
5.7775
 20
2.15013
 30
0.0
 40
0
 41
0
  0
VERTEX
  8
0
 10
5.63167
 20
2.15013
 30
0.0
 40
0
 41
0
  0
VERTEX
  8
0
 10
5.63167
 20
2.21263
 30
0.0
 40
0
 41
0
  0
SEQEND
 8
0
  0
POLYLINE
  8
0
 62
     0
 66
     1
 10
0
 20
0
 30
0.0
 70
     1
 40
0.75
 41
0.75
  0
VERTEX
  8
0
 10
5.63167
 20
2.21263
 30
0.0
 40
0.0104167
 41
0.0104167
  0
VERTEX
  8
0
 10
5.63167
 20
2.15013
 30
0.0
 40
0.0104167
 41
0.0104167
  0
VERTEX
  8
0
 10
5.7775
 20
2.15013
 30
0.0
 40
0.0104167
 41
0.0104167
  0
VERTEX
  8
0
 10
5.7775
 20
2.21263
 30
0.0
 40
0.0104167
 41
0.0104167
  0
VERTEX
  8
0
 10
5.63167
 20
2.21263
 30
0.0
 40
0.0104167
 41
0.0104167
  0
SEQEND
 8
0
  0
POLYLINE
  8
0
 62
     7
 66
     1
 10
0
 20
0
 30
0.0
 70
     1
 40
0
 41
0
  0
VERTEX
  8
0
 10
5.22786
 20
3.13569
 30
0.0
 40
0
 41
0
  0
VERTEX
  8
0
 10
5.8495
 20
3.13569
 30
0.0
 40
0
 41
0
  0
VERTEX
  8
0
 10
5.8495
 20
2.51069
 30
0.0
 40
0
 41
0
  0
VERTEX
  8
0
 10
5.22786
 20
2.51069
 30
0.0
 40
0
 41
0
  0
VERTEX
  8
0
 10
5.22786
 20
3.13569
 30
0.0
 40
0
 41
0
  0
SEQEND
 8
0
  0
POLYLINE
  8
0
 62
     0
 66
     1
 10
0
 20
0
 30
0.0
 70
     1
 40
0.75
 41
0.75
  0
VERTEX
  8
0
 10
5.22786
 20
3.13569
 30
0.0
 40
0.0104167
 41
0.0104167
  0
VERTEX
  8
0
 10
5.22786
 20
2.51069
 30
0.0
 40
0.0104167
 41
0.0104167
  0
VERTEX
  8
0
 10
5.8495
 20
2.51069
 30
0.0
 40
0.0104167
 41
0.0104167
  0
VERTEX
  8
0
 10
5.8495
 20
3.13569
 30
0.0
 40
0.0104167
 41
0.0104167
  0
VERTEX
  8
0
 10
5.22786
 20
3.13569
 30
0.0
 40
0.0104167
 41
0.0104167
  0
SEQEND
 8
0
  0
POLYLINE
  8
0
 62
     0
 66
     1
 10
0
 20
0
 30
0.0
 40
0.75
 41
0.75
  0
VERTEX
  8
0
 10
5.8495
 20
3.13569
 30
0.0
 40
0.0104167
 41
0.0104167
  0
VERTEX
  8
0
 10
5.44646
 20
2.82319
 30
0.0
 40
0.0104167
 41
0.0104167
  0
VERTEX
  8
0
 10
5.65369
 20
2.82319
 30
0.0
 40
0.0104167
 41
0.0104167
  0
VERTEX
  8
0
 10
5.22786
 20
2.51069
 30
0.0
 40
0.0104167
 41
0.0104167
  0
SEQEND
 8
0
  0
POLYLINE
  8
0
 62
     0
 66
     1
 10
0
 20
0
 30
0.0
 40
0.75
 41
0.75
  0
VERTEX
  8
0
 10
5.23204
 20
3.03153
 30
0.0
 40
0.0104167
 41
0.0104167
  0
VERTEX
  8
0
 10
5.23204
 20
2.61692
 30
0.0
 40
0.0104167
 41
0.0104167
  0
SEQEND
 8
0
  0
POLYLINE
  8
0
 62
     7
 66
     1
 10
0
 20
0
 30
0.0
 70
     1
 40
0
 41
0
  0
VERTEX
  8
0
 10
5.23144
 20
3.75006
 30
0.0
 40
0
 41
0
  0
VERTEX
  8
0
 10
5.84603
 20
3.75006
 30
0.0
 40
0
 41
0
  0
VERTEX
  8
0
 10
5.84603
 20
3.16672
 30
0.0
 40
0
 41
0
  0
VERTEX
  8
0
 10
5.23144
 20
3.16672
 30
0.0
 40
0
 41
0
  0
VERTEX
  8
0
 10
5.23144
 20
3.75006
 30
0.0
 40
0
 41
0
  0
SEQEND
 8
0
  0
POLYLINE
  8
0
 62
     0
 66
     1
 10
0
 20
0
 30
0.0
 70
     1
 40
0.75
 41
0.75
  0
VERTEX
  8
0
 10
5.23144
 20
3.75006
 30
0.0
 40
0.0104167
 41
0.0104167
  0
VERTEX
  8
0
 10
5.23144
 20
3.16672
 30
0.0
 40
0.0104167
 41
0.0104167
  0
VERTEX
  8
0
 10
5.84603
 20
3.16672
 30
0.0
 40
0.0104167
 41
0.0104167
  0
VERTEX
  8
0
 10
5.84603
 20
3.75006
 30
0.0
 40
0.0104167
 41
0.0104167
  0
VERTEX
  8
0
 10
5.23144
 20
3.75006
 30
0.0
 40
0.0104167
 41
0.0104167
  0
SEQEND
 8
0
  0
POLYLINE
  8
0
 62
     7
 66
     1
 10
0
 20
0
 30
0.0
 70
     1
 40
0
 41
0
  0
VERTEX
  8
0
 10
5.69157
 20
3.52089
 30
0.0
 40
0
 41
0
  0
VERTEX
  8
0
 10
5.68343
 20
3.52089
 30
0.0
 40
0
 41
0
  0
VERTEX
  8
0
 10
5.65913
 20
3.52746
 30
0.0
 40
0
 41
0
  0
VERTEX
  8
0
 10
5.63265
 20
3.54531
 30
0.0
 40
0
 41
0
  0
VERTEX
  8
0
 10
5.61475
 20
3.57178
 30
0.0
 40
0
 41
0
  0
VERTEX
  8
0
 10
5.60824
 20
3.59614
 30
0.0
 40
0
 41
0
  0
VERTEX
  8
0
 10
5.60824
 20
3.60422
 30
0.0
 40
0
 41
0
  0
VERTEX
  8
0
 10
5.60824
 20
3.61236
 30
0.0
 40
0
 41
0
  0
VERTEX
  8
0
 10
5.61475
 20
3.63667
 30
0.0
 40
0
 41
0
  0
VERTEX
  8
0
 10
5.63265
 20
3.66314
 30
0.0
 40
0
 41
0
  0
VERTEX
  8
0
 10
5.65913
 20
3.68104
 30
0.0
 40
0
 41
0
  0
VERTEX
  8
0
 10
5.68343
 20
3.68756
 30
0.0
 40
0
 41
0
  0
VERTEX
  8
0
 10
5.69157
 20
3.68756
 30
0.0
 40
0
 41
0
  0
VERTEX
  8
0
 10
5.69965
 20
3.68756
 30
0.0
 40
0
 41
0
  0
VERTEX
  8
0
 10
5.72401
 20
3.68104
 30
0.0
 40
0
 41
0
  0
VERTEX
  8
0
 10
5.75049
 20
3.66314
 30
0.0
 40
0
 41
0
  0
VERTEX
  8
0
 10
5.76833
 20
3.63667
 30
0.0
 40
0
 41
0
  0
VERTEX
  8
0
 10
5.7749
 20
3.61236
 30
0.0
 40
0
 41
0
  0
VERTEX
  8
0
 10
5.7749
 20
3.60422
 30
0.0
 40
0
 41
0
  0
VERTEX
  8
0
 10
5.7749
 20
3.59614
 30
0.0
 40
0
 41
0
  0
VERTEX
  8
0
 10
5.76833
 20
3.57178
 30
0.0
 40
0
 41
0
  0
VERTEX
  8
0
 10
5.75049
 20
3.54531
 30
0.0
 40
0
 41
0
  0
VERTEX
  8
0
 10
5.72401
 20
3.52746
 30
0.0
 40
0
 41
0
  0
VERTEX
  8
0
 10
5.69965
 20
3.52089
 30
0.0
 40
0
 41
0
  0
VERTEX
  8
0
 10
5.69157
 20
3.52089
 30
0.0
 40
0
 41
0
  0
SEQEND
 8
0
  0
POLYLINE
  8
0
 62
     0
 66
     1
 10
0
 20
0
 30
0.0
 70
     1
 40
0.75
 41
0.75
  0
VERTEX
  8
0
 10
5.69157
 20
3.52089
 30
0.0
 40
0.0104167
 41
0.0104167
  0
VERTEX
  8
0
 10
5.68343
 20
3.52089
 30
0.0
 40
0.0104167
 41
0.0104167
  0
VERTEX
  8
0
 10
5.65913
 20
3.52746
 30
0.0
 40
0.0104167
 41
0.0104167
  0
VERTEX
  8
0
 10
5.63265
 20
3.54531
 30
0.0
 40
0.0104167
 41
0.0104167
  0
VERTEX
  8
0
 10
5.61475
 20
3.57178
 30
0.0
 40
0.0104167
 41
0.0104167
  0
VERTEX
  8
0
 10
5.60824
 20
3.59614
 30
0.0
 40
0.0104167
 41
0.0104167
  0
VERTEX
  8
0
 10
5.60824
 20
3.60422
 30
0.0
 40
0.0104167
 41
0.0104167
  0
VERTEX
  8
0
 10
5.60824
 20
3.61236
 30
0.0
 40
0.0104167
 41
0.0104167
  0
VERTEX
  8
0
 10
5.61475
 20
3.63667
 30
0.0
 40
0.0104167
 41
0.0104167
  0
VERTEX
  8
0
 10
5.63265
 20
3.66314
 30
0.0
 40
0.0104167
 41
0.0104167
  0
VERTEX
  8
0
 10
5.65913
 20
3.68104
 30
0.0
 40
0.0104167
 41
0.0104167
  0
VERTEX
  8
0
 10
5.68343
 20
3.68756
 30
0.0
 40
0.0104167
 41
0.0104167
  0
VERTEX
  8
0
 10
5.69157
 20
3.68756
 30
0.0
 40
0.0104167
 41
0.0104167
  0
VERTEX
  8
0
 10
5.69965
 20
3.68756
 30
0.0
 40
0.0104167
 41
0.0104167
  0
VERTEX
  8
0
 10
5.72401
 20
3.68104
 30
0.0
 40
0.0104167
 41
0.0104167
  0
VERTEX
  8
0
 10
5.75049
 20
3.66314
 30
0.0
 40
0.0104167
 41
0.0104167
  0
VERTEX
  8
0
 10
5.76833
 20
3.63667
 30
0.0
 40
0.0104167
 41
0.0104167
  0
VERTEX
  8
0
 10
5.7749
 20
3.61236
 30
0.0
 40
0.0104167
 41
0.0104167
  0
VERTEX
  8
0
 10
5.7749
 20
3.60422
 30
0.0
 40
0.0104167
 41
0.0104167
  0
VERTEX
  8
0
 10
5.7749
 20
3.59614
 30
0.0
 40
0.0104167
 41
0.0104167
  0
VERTEX
  8
0
 10
5.76833
 20
3.57178
 30
0.0
 40
0.0104167
 41
0.0104167
  0
VERTEX
  8
0
 10
5.75049
 20
3.54531
 30
0.0
 40
0.0104167
 41
0.0104167
  0
VERTEX
  8
0
 10
5.72401
 20
3.52746
 30
0.0
 40
0.0104167
 41
0.0104167
  0
VERTEX
  8
0
 10
5.69965
 20
3.52089
 30
0.0
 40
0.0104167
 41
0.0104167
  0
VERTEX
  8
0
 10
5.69157
 20
3.52089
 30
0.0
 40
0.0104167
 41
0.0104167
  0
SEQEND
 8
0
  0
POLYLINE
  8
0
 62
     7
 66
     1
 10
0
 20
0
 30
0.0
 70
     1
 40
0
 41
0
  0
VERTEX
  8
0
 10
5.69157
 20
3.22922
 30
0.0
 40
0
 41
0
  0
VERTEX
  8
0
 10
5.68343
 20
3.22922
 30
0.0
 40
0
 41
0
  0
VERTEX
  8
0
 10
5.65913
 20
3.23579
 30
0.0
 40
0
 41
0
  0
VERTEX
  8
0
 10
5.63265
 20
3.25364
 30
0.0
 40
0
 41
0
  0
VERTEX
  8
0
 10
5.61475
 20
3.28011
 30
0.0
 40
0
 41
0
  0
VERTEX
  8
0
 10
5.60824
 20
3.30447
 30
0.0
 40
0
 41
0
  0
VERTEX
  8
0
 10
5.60824
 20
3.31256
 30
0.0
 40
0
 41
0
  0
VERTEX
  8
0
 10
5.60824
 20
3.32069
 30
0.0
 40
0
 41
0
  0
VERTEX
  8
0
 10
5.61475
 20
3.345
 30
0.0
 40
0
 41
0
  0
VERTEX
  8
0
 10
5.63265
 20
3.37147
 30
0.0
 40
0
 41
0
  0
VERTEX
  8
0
 10
5.65913
 20
3.38938
 30
0.0
 40
0
 41
0
  0
VERTEX
  8
0
 10
5.68343
 20
3.39589
 30
0.0
 40
0
 41
0
  0
VERTEX
  8
0
 10
5.69157
 20
3.39589
 30
0.0
 40
0
 41
0
  0
VERTEX
  8
0
 10
5.69965
 20
3.39589
 30
0.0
 40
0
 41
0
  0
VERTEX
  8
0
 10
5.72401
 20
3.38938
 30
0.0
 40
0
 41
0
  0
VERTEX
  8
0
 10
5.75049
 20
3.37147
 30
0.0
 40
0
 41
0
  0
VERTEX
  8
0
 10
5.76833
 20
3.345
 30
0.0
 40
0
 41
0
  0
VERTEX
  8
0
 10
5.7749
 20
3.32069
 30
0.0
 40
0
 41
0
  0
VERTEX
  8
0
 10
5.7749
 20
3.31256
 30
0.0
 40
0
 41
0
  0
VERTEX
  8
0
 10
5.7749
 20
3.30447
 30
0.0
 40
0
 41
0
  0
VERTEX
  8
0
 10
5.76833
 20
3.28011
 30
0.0
 40
0
 41
0
  0
VERTEX
  8
0
 10
5.75049
 20
3.25364
 30
0.0
 40
0
 41
0
  0
VERTEX
  8
0
 10
5.72401
 20
3.23579
 30
0.0
 40
0
 41
0
  0
VERTEX
  8
0
 10
5.69965
 20
3.22922
 30
0.0
 40
0
 41
0
  0
VERTEX
  8
0
 10
5.69157
 20
3.22922
 30
0.0
 40
0
 41
0
  0
SEQEND
 8
0
  0
POLYLINE
  8
0
 62
     0
 66
     1
 10
0
 20
0
 30
0.0
 70
     1
 40
0.75
 41
0.75
  0
VERTEX
  8
0
 10
5.69157
 20
3.22922
 30
0.0
 40
0.0104167
 41
0.0104167
  0
VERTEX
  8
0
 10
5.68343
 20
3.22922
 30
0.0
 40
0.0104167
 41
0.0104167
  0
VERTEX
  8
0
 10
5.65913
 20
3.23579
 30
0.0
 40
0.0104167
 41
0.0104167
  0
VERTEX
  8
0
 10
5.63265
 20
3.25364
 30
0.0
 40
0.0104167
 41
0.0104167
  0
VERTEX
  8
0
 10
5.61475
 20
3.28011
 30
0.0
 40
0.0104167
 41
0.0104167
  0
VERTEX
  8
0
 10
5.60824
 20
3.30447
 30
0.0
 40
0.0104167
 41
0.0104167
  0
VERTEX
  8
0
 10
5.60824
 20
3.31256
 30
0.0
 40
0.0104167
 41
0.0104167
  0
VERTEX
  8
0
 10
5.60824
 20
3.32069
 30
0.0
 40
0.0104167
 41
0.0104167
  0
VERTEX
  8
0
 10
5.61475
 20
3.345
 30
0.0
 40
0.0104167
 41
0.0104167
  0
VERTEX
  8
0
 10
5.63265
 20
3.37147
 30
0.0
 40
0.0104167
 41
0.0104167
  0
VERTEX
  8
0
 10
5.65913
 20
3.38938
 30
0.0
 40
0.0104167
 41
0.0104167
  0
VERTEX
  8
0
 10
5.68343
 20
3.39589
 30
0.0
 40
0.0104167
 41
0.0104167
  0
VERTEX
  8
0
 10
5.69157
 20
3.39589
 30
0.0
 40
0.0104167
 41
0.0104167
  0
VERTEX
  8
0
 10
5.69965
 20
3.39589
 30
0.0
 40
0.0104167
 41
0.0104167
  0
VERTEX
  8
0
 10
5.72401
 20
3.38938
 30
0.0
 40
0.0104167
 41
0.0104167
  0
VERTEX
  8
0
 10
5.75049
 20
3.37147
 30
0.0
 40
0.0104167
 41
0.0104167
  0
VERTEX
  8
0
 10
5.76833
 20
3.345
 30
0.0
 40
0.0104167
 41
0.0104167
  0
VERTEX
  8
0
 10
5.7749
 20
3.32069
 30
0.0
 40
0.0104167
 41
0.0104167
  0
VERTEX
  8
0
 10
5.7749
 20
3.31256
 30
0.0
 40
0.0104167
 41
0.0104167
  0
VERTEX
  8
0
 10
5.7749
 20
3.30447
 30
0.0
 40
0.0104167
 41
0.0104167
  0
VERTEX
  8
0
 10
5.76833
 20
3.28011
 30
0.0
 40
0.0104167
 41
0.0104167
  0
VERTEX
  8
0
 10
5.75049
 20
3.25364
 30
0.0
 40
0.0104167
 41
0.0104167
  0
VERTEX
  8
0
 10
5.72401
 20
3.23579
 30
0.0
 40
0.0104167
 41
0.0104167
  0
VERTEX
  8
0
 10
5.69965
 20
3.22922
 30
0.0
 40
0.0104167
 41
0.0104167
  0
VERTEX
  8
0
 10
5.69157
 20
3.22922
 30
0.0
 40
0.0104167
 41
0.0104167
  0
SEQEND
 8
0
  0
POLYLINE
  8
0
 62
     7
 66
     1
 10
0
 20
0
 30
0.0
 70
     1
 40
0
 41
0
  0
VERTEX
  8
0
 10
5.38482
 20
3.52089
 30
0.0
 40
0
 41
0
  0
VERTEX
  8
0
 10
5.37668
 20
3.52089
 30
0.0
 40
0
 41
0
  0
VERTEX
  8
0
 10
5.35232
 20
3.52746
 30
0.0
 40
0
 41
0
  0
VERTEX
  8
0
 10
5.32585
 20
3.54531
 30
0.0
 40
0
 41
0
  0
VERTEX
  8
0
 10
5.308
 20
3.57178
 30
0.0
 40
0
 41
0
  0
VERTEX
  8
0
 10
5.30149
 20
3.59614
 30
0.0
 40
0
 41
0
  0
VERTEX
  8
0
 10
5.30149
 20
3.60422
 30
0.0
 40
0
 41
0
  0
VERTEX
  8
0
 10
5.30149
 20
3.61236
 30
0.0
 40
0
 41
0
  0
VERTEX
  8
0
 10
5.308
 20
3.63667
 30
0.0
 40
0
 41
0
  0
VERTEX
  8
0
 10
5.32585
 20
3.66314
 30
0.0
 40
0
 41
0
  0
VERTEX
  8
0
 10
5.35232
 20
3.68104
 30
0.0
 40
0
 41
0
  0
VERTEX
  8
0
 10
5.37668
 20
3.68756
 30
0.0
 40
0
 41
0
  0
VERTEX
  8
0
 10
5.38482
 20
3.68756
 30
0.0
 40
0
 41
0
  0
VERTEX
  8
0
 10
5.3929
 20
3.68756
 30
0.0
 40
0
 41
0
  0
VERTEX
  8
0
 10
5.41721
 20
3.68104
 30
0.0
 40
0
 41
0
  0
VERTEX
  8
0
 10
5.44374
 20
3.66314
 30
0.0
 40
0
 41
0
  0
VERTEX
  8
0
 10
5.46158
 20
3.63667
 30
0.0
 40
0
 41
0
  0
VERTEX
  8
0
 10
5.46815
 20
3.61236
 30
0.0
 40
0
 41
0
  0
VERTEX
  8
0
 10
5.46815
 20
3.60422
 30
0.0
 40
0
 41
0
  0
VERTEX
  8
0
 10
5.46815
 20
3.59614
 30
0.0
 40
0
 41
0
  0
VERTEX
  8
0
 10
5.46158
 20
3.57178
 30
0.0
 40
0
 41
0
  0
VERTEX
  8
0
 10
5.44374
 20
3.54531
 30
0.0
 40
0
 41
0
  0
VERTEX
  8
0
 10
5.41721
 20
3.52746
 30
0.0
 40
0
 41
0
  0
VERTEX
  8
0
 10
5.3929
 20
3.52089
 30
0.0
 40
0
 41
0
  0
VERTEX
  8
0
 10
5.38482
 20
3.52089
 30
0.0
 40
0
 41
0
  0
SEQEND
 8
0
  0
POLYLINE
  8
0
 62
     0
 66
     1
 10
0
 20
0
 30
0.0
 70
     1
 40
0.75
 41
0.75
  0
VERTEX
  8
0
 10
5.38482
 20
3.52089
 30
0.0
 40
0.0104167
 41
0.0104167
  0
VERTEX
  8
0
 10
5.37668
 20
3.52089
 30
0.0
 40
0.0104167
 41
0.0104167
  0
VERTEX
  8
0
 10
5.35232
 20
3.52746
 30
0.0
 40
0.0104167
 41
0.0104167
  0
VERTEX
  8
0
 10
5.32585
 20
3.54531
 30
0.0
 40
0.0104167
 41
0.0104167
  0
VERTEX
  8
0
 10
5.308
 20
3.57178
 30
0.0
 40
0.0104167
 41
0.0104167
  0
VERTEX
  8
0
 10
5.30149
 20
3.59614
 30
0.0
 40
0.0104167
 41
0.0104167
  0
VERTEX
  8
0
 10
5.30149
 20
3.60422
 30
0.0
 40
0.0104167
 41
0.0104167
  0
VERTEX
  8
0
 10
5.30149
 20
3.61236
 30
0.0
 40
0.0104167
 41
0.0104167
  0
VERTEX
  8
0
 10
5.308
 20
3.63667
 30
0.0
 40
0.0104167
 41
0.0104167
  0
VERTEX
  8
0
 10
5.32585
 20
3.66314
 30
0.0
 40
0.0104167
 41
0.0104167
  0
VERTEX
  8
0
 10
5.35232
 20
3.68104
 30
0.0
 40
0.0104167
 41
0.0104167
  0
VERTEX
  8
0
 10
5.37668
 20
3.68756
 30
0.0
 40
0.0104167
 41
0.0104167
  0
VERTEX
  8
0
 10
5.38482
 20
3.68756
 30
0.0
 40
0.0104167
 41
0.0104167
  0
VERTEX
  8
0
 10
5.3929
 20
3.68756
 30
0.0
 40
0.0104167
 41
0.0104167
  0
VERTEX
  8
0
 10
5.41721
 20
3.68104
 30
0.0
 40
0.0104167
 41
0.0104167
  0
VERTEX
  8
0
 10
5.44374
 20
3.66314
 30
0.0
 40
0.0104167
 41
0.0104167
  0
VERTEX
  8
0
 10
5.46158
 20
3.63667
 30
0.0
 40
0.0104167
 41
0.0104167
  0
VERTEX
  8
0
 10
5.46815
 20
3.61236
 30
0.0
 40
0.0104167
 41
0.0104167
  0
VERTEX
  8
0
 10
5.46815
 20
3.60422
 30
0.0
 40
0.0104167
 41
0.0104167
  0
VERTEX
  8
0
 10
5.46815
 20
3.59614
 30
0.0
 40
0.0104167
 41
0.0104167
  0
VERTEX
  8
0
 10
5.46158
 20
3.57178
 30
0.0
 40
0.0104167
 41
0.0104167
  0
VERTEX
  8
0
 10
5.44374
 20
3.54531
 30
0.0
 40
0.0104167
 41
0.0104167
  0
VERTEX
  8
0
 10
5.41721
 20
3.52746
 30
0.0
 40
0.0104167
 41
0.0104167
  0
VERTEX
  8
0
 10
5.3929
 20
3.52089
 30
0.0
 40
0.0104167
 41
0.0104167
  0
VERTEX
  8
0
 10
5.38482
 20
3.52089
 30
0.0
 40
0.0104167
 41
0.0104167
  0
SEQEND
 8
0
  0
POLYLINE
  8
0
 62
     7
 66
     1
 10
0
 20
0
 30
0.0
 70
     1
 40
0
 41
0
  0
VERTEX
  8
0
 10
5.38482
 20
3.22922
 30
0.0
 40
0
 41
0
  0
VERTEX
  8
0
 10
5.37668
 20
3.22922
 30
0.0
 40
0
 41
0
  0
VERTEX
  8
0
 10
5.35232
 20
3.23579
 30
0.0
 40
0
 41
0
  0
VERTEX
  8
0
 10
5.32585
 20
3.25364
 30
0.0
 40
0
 41
0
  0
VERTEX
  8
0
 10
5.308
 20
3.28011
 30
0.0
 40
0
 41
0
  0
VERTEX
  8
0
 10
5.30149
 20
3.30447
 30
0.0
 40
0
 41
0
  0
VERTEX
  8
0
 10
5.30149
 20
3.31256
 30
0.0
 40
0
 41
0
  0
VERTEX
  8
0
 10
5.30149
 20
3.32069
 30
0.0
 40
0
 41
0
  0
VERTEX
  8
0
 10
5.308
 20
3.345
 30
0.0
 40
0
 41
0
  0
VERTEX
  8
0
 10
5.32585
 20
3.37147
 30
0.0
 40
0
 41
0
  0
VERTEX
  8
0
 10
5.35232
 20
3.38938
 30
0.0
 40
0
 41
0
  0
VERTEX
  8
0
 10
5.37668
 20
3.39589
 30
0.0
 40
0
 41
0
  0
VERTEX
  8
0
 10
5.38482
 20
3.39589
 30
0.0
 40
0
 41
0
  0
VERTEX
  8
0
 10
5.3929
 20
3.39589
 30
0.0
 40
0
 41
0
  0
VERTEX
  8
0
 10
5.41721
 20
3.38938
 30
0.0
 40
0
 41
0
  0
VERTEX
  8
0
 10
5.44374
 20
3.37147
 30
0.0
 40
0
 41
0
  0
VERTEX
  8
0
 10
5.46158
 20
3.345
 30
0.0
 40
0
 41
0
  0
VERTEX
  8
0
 10
5.46815
 20
3.32069
 30
0.0
 40
0
 41
0
  0
VERTEX
  8
0
 10
5.46815
 20
3.31256
 30
0.0
 40
0
 41
0
  0
VERTEX
  8
0
 10
5.46815
 20
3.30447
 30
0.0
 40
0
 41
0
  0
VERTEX
  8
0
 10
5.46158
 20
3.28011
 30
0.0
 40
0
 41
0
  0
VERTEX
  8
0
 10
5.44374
 20
3.25364
 30
0.0
 40
0
 41
0
  0
VERTEX
  8
0
 10
5.41721
 20
3.23579
 30
0.0
 40
0
 41
0
  0
VERTEX
  8
0
 10
5.3929
 20
3.22922
 30
0.0
 40
0
 41
0
  0
VERTEX
  8
0
 10
5.38482
 20
3.22922
 30
0.0
 40
0
 41
0
  0
SEQEND
 8
0
  0
POLYLINE
  8
0
 62
     0
 66
     1
 10
0
 20
0
 30
0.0
 70
     1
 40
0.75
 41
0.75
  0
VERTEX
  8
0
 10
5.38482
 20
3.22922
 30
0.0
 40
0.0104167
 41
0.0104167
  0
VERTEX
  8
0
 10
5.37668
 20
3.22922
 30
0.0
 40
0.0104167
 41
0.0104167
  0
VERTEX
  8
0
 10
5.35232
 20
3.23579
 30
0.0
 40
0.0104167
 41
0.0104167
  0
VERTEX
  8
0
 10
5.32585
 20
3.25364
 30
0.0
 40
0.0104167
 41
0.0104167
  0
VERTEX
  8
0
 10
5.308
 20
3.28011
 30
0.0
 40
0.0104167
 41
0.0104167
  0
VERTEX
  8
0
 10
5.30149
 20
3.30447
 30
0.0
 40
0.0104167
 41
0.0104167
  0
VERTEX
  8
0
 10
5.30149
 20
3.31256
 30
0.0
 40
0.0104167
 41
0.0104167
  0
VERTEX
  8
0
 10
5.30149
 20
3.32069
 30
0.0
 40
0.0104167
 41
0.0104167
  0
VERTEX
  8
0
 10
5.308
 20
3.345
 30
0.0
 40
0.0104167
 41
0.0104167
  0
VERTEX
  8
0
 10
5.32585
 20
3.37147
 30
0.0
 40
0.0104167
 41
0.0104167
  0
VERTEX
  8
0
 10
5.35232
 20
3.38938
 30
0.0
 40
0.0104167
 41
0.0104167
  0
VERTEX
  8
0
 10
5.37668
 20
3.39589
 30
0.0
 40
0.0104167
 41
0.0104167
  0
VERTEX
  8
0
 10
5.38482
 20
3.39589
 30
0.0
 40
0.0104167
 41
0.0104167
  0
VERTEX
  8
0
 10
5.3929
 20
3.39589
 30
0.0
 40
0.0104167
 41
0.0104167
  0
VERTEX
  8
0
 10
5.41721
 20
3.38938
 30
0.0
 40
0.0104167
 41
0.0104167
  0
VERTEX
  8
0
 10
5.44374
 20
3.37147
 30
0.0
 40
0.0104167
 41
0.0104167
  0
VERTEX
  8
0
 10
5.46158
 20
3.345
 30
0.0
 40
0.0104167
 41
0.0104167
  0
VERTEX
  8
0
 10
5.46815
 20
3.32069
 30
0.0
 40
0.0104167
 41
0.0104167
  0
VERTEX
  8
0
 10
5.46815
 20
3.31256
 30
0.0
 40
0.0104167
 41
0.0104167
  0
VERTEX
  8
0
 10
5.46815
 20
3.30447
 30
0.0
 40
0.0104167
 41
0.0104167
  0
VERTEX
  8
0
 10
5.46158
 20
3.28011
 30
0.0
 40
0.0104167
 41
0.0104167
  0
VERTEX
  8
0
 10
5.44374
 20
3.25364
 30
0.0
 40
0.0104167
 41
0.0104167
  0
VERTEX
  8
0
 10
5.41721
 20
3.23579
 30
0.0
 40
0.0104167
 41
0.0104167
  0
VERTEX
  8
0
 10
5.3929
 20
3.22922
 30
0.0
 40
0.0104167
 41
0.0104167
  0
VERTEX
  8
0
 10
5.38482
 20
3.22922
 30
0.0
 40
0.0104167
 41
0.0104167
  0
SEQEND
 8
0
  0
POLYLINE
  8
0
 62
     0
 66
     1
 10
0
 20
0
 30
0.0
 70
     1
 40
0.75
 41
0.75
  0
VERTEX
  8
0
 10
5.84967
 20
1.60124
 30
0.0
 40
0.0104167
 41
0.0104167
  0
VERTEX
  8
0
 10
5.84967
 20
4.28043
 30
0.0
 40
0.0104167
 41
0.0104167
  0
VERTEX
  8
0
 10
5.48508
 20
4.28043
 30
0.0
 40
0.0104167
 41
0.0104167
  0
VERTEX
  8
0
 10
5.48508
 20
3.75065
 30
0.0
 40
0.0104167
 41
0.0104167
  0
VERTEX
  8
0
 10
5.34885
 20
3.75065
 30
0.0
 40
0.0104167
 41
0.0104167
  0
VERTEX
  8
0
 10
5.34885
 20
3.16689
 30
0.0
 40
0.0104167
 41
0.0104167
  0
VERTEX
  8
0
 10
5.48519
 20
3.16689
 30
0.0
 40
0.0104167
 41
0.0104167
  0
VERTEX
  8
0
 10
5.48519
 20
1.60042
 30
0.0
 40
0.0104167
 41
0.0104167
  0
VERTEX
  8
0
 10
5.84967
 20
1.60124
 30
0.0
 40
0.0104167
 41
0.0104167
  0
SEQEND
 8
0
  0
POLYLINE
  8
0
 62
     7
 66
     1
 10
0
 20
0
 30
0.0
 70
     1
 40
0
 41
0
  0
VERTEX
  8
0
 10
5.22971
 20
4.90543
 30
0.0
 40
0
 41
0
  0
VERTEX
  8
0
 10
5.8495
 20
4.90543
 30
0.0
 40
0
 41
0
  0
VERTEX
  8
0
 10
5.8495
 20
4.28043
 30
0.0
 40
0
 41
0
  0
VERTEX
  8
0
 10
5.22971
 20
4.28043
 30
0.0
 40
0
 41
0
  0
VERTEX
  8
0
 10
5.22971
 20
4.90543
 30
0.0
 40
0
 41
0
  0
SEQEND
 8
0
  0
POLYLINE
  8
0
 62
     0
 66
     1
 10
0
 20
0
 30
0.0
 70
     1
 40
0.75
 41
0.75
  0
VERTEX
  8
0
 10
5.22971
 20
4.90543
 30
0.0
 40
0.0104167
 41
0.0104167
  0
VERTEX
  8
0
 10
5.22971
 20
4.28043
 30
0.0
 40
0.0104167
 41
0.0104167
  0
VERTEX
  8
0
 10
5.8495
 20
4.28043
 30
0.0
 40
0.0104167
 41
0.0104167
  0
VERTEX
  8
0
 10
5.8495
 20
4.90543
 30
0.0
 40
0.0104167
 41
0.0104167
  0
VERTEX
  8
0
 10
5.22971
 20
4.90543
 30
0.0
 40
0.0104167
 41
0.0104167
  0
SEQEND
 8
0
  0
POLYLINE
  8
0
 62
     7
 66
     1
 10
0
 20
0
 30
0.0
 70
     1
 40
0
 41
0
  0
VERTEX
  8
0
 10
1.33502
 20
3.78603
 30
0.0
 40
0
 41
0
  0
VERTEX
  8
0
 10
2.18294
 20
3.78603
 30
0.0
 40
0
 41
0
  0
VERTEX
  8
0
 10
2.18294
 20
3.38363
 30
0.0
 40
0
 41
0
  0
VERTEX
  8
0
 10
1.33502
 20
3.38363
 30
0.0
 40
0
 41
0
  0
VERTEX
  8
0
 10
1.33502
 20
3.78603
 30
0.0
 40
0
 41
0
  0
SEQEND
 8
0
  0
POLYLINE
  8
0
 62
     0
 66
     1
 10
0
 20
0
 30
0.0
 70
     1
 40
0.75
 41
0.75
  0
VERTEX
  8
0
 10
1.33502
 20
3.78603
 30
0.0
 40
0.0104167
 41
0.0104167
  0
VERTEX
  8
0
 10
2.18294
 20
3.78603
 30
0.0
 40
0.0104167
 41
0.0104167
  0
VERTEX
  8
0
 10
2.18294
 20
3.38363
 30
0.0
 40
0.0104167
 41
0.0104167
  0
VERTEX
  8
0
 10
1.33502
 20
3.38363
 30
0.0
 40
0.0104167
 41
0.0104167
  0
VERTEX
  8
0
 10
1.33502
 20
3.78603
 30
0.0
 40
0.0104167
 41
0.0104167
  0
SEQEND
 8
0
  0
POLYLINE
  8
0
 62
     7
 66
     1
 10
0
 20
0
 30
0.0
 70
     1
 40
0
 41
0
  0
VERTEX
  8
0
 10
0.621474
 20
4.56868
 30
0.0
 40
0
 41
0
  0
VERTEX
  8
0
 10
1.23096
 20
4.56868
 30
0.0
 40
0
 41
0
  0
VERTEX
  8
0
 10
1.23096
 20
3.76921
 30
0.0
 40
0
 41
0
  0
VERTEX
  8
0
 10
0.621474
 20
3.76921
 30
0.0
 40
0
 41
0
  0
VERTEX
  8
0
 10
0.621474
 20
4.56868
 30
0.0
 40
0
 41
0
  0
SEQEND
 8
0
  0
POLYLINE
  8
0
 62
     0
 66
     1
 10
0
 20
0
 30
0.0
 70
     1
 40
0.75
 41
0.75
  0
VERTEX
  8
0
 10
0.621474
 20
4.56868
 30
0.0
 40
0.0104167
 41
0.0104167
  0
VERTEX
  8
0
 10
0.621474
 20
3.76921
 30
0.0
 40
0.0104167
 41
0.0104167
  0
VERTEX
  8
0
 10
1.23096
 20
3.76921
 30
0.0
 40
0.0104167
 41
0.0104167
  0
VERTEX
  8
0
 10
1.23096
 20
4.56868
 30
0.0
 40
0.0104167
 41
0.0104167
  0
VERTEX
  8
0
 10
0.621474
 20
4.56868
 30
0.0
 40
0.0104167
 41
0.0104167
  0
SEQEND
 8
0
  0
POLYLINE
  8
0
 62
     253
 66
     1
 10
0
 20
0
 30
0.0
 40
0.75
 41
0.75
  0
VERTEX
  8
0
 10
0.926215
 20
3.76921
 30
0.0
 40
0.0104167
 41
0.0104167
  0
VERTEX
  8
0
 10
0.926215
 20
4.56868
 30
0.0
 40
0.0104167
 41
0.0104167
  0
SEQEND
 8
0
  0
ENDSEC
  0
EOF
