  0
SECTION
  2
HEADER
  9
$ACADVER
  1
AC1009
  9
$FILLMODE
 70
 0
  9
$SPLFRAME
 70
 1
  9
$EXTMIN
 10
0
 20
0
 30
0.0
  9
$EXTMAX
 10
41.6667
 20
41.6667
 30
0.0
  0
ENDSEC
  0
SECTION
  2
TABLES
  0
TABLE
  2
LAYER
 70
1
  0
LAYER
  2
0
 70
     0
 62
     7
  6
CONTINUOUS
  0
ENDTAB
  0
ENDSEC
  0
SECTION
  2
ENTITIES
  0
POLYLINE
  8
0
 62
     7
 66
     1
 10
0
 20
0
 30
0.0
 70
     1
 40
0
 41
0
  0
VERTEX
  8
0
 10
0.606554
 20
1.91683
 30
0.0
 40
0
 41
0
  0
VERTEX
  8
0
 10
0.606554
 20
0.497233
 30
0.0
 40
0
 41
0
  0
VERTEX
  8
0
 10
7.48813
 20
0.497233
 30
0.0
 40
0
 41
0
  0
VERTEX
  8
0
 10
7.48813
 20
1.95383
 30
0.0
 40
0
 41
0
  0
VERTEX
  8
0
 10
0.612631
 20
1.95383
 30
0.0
 40
0
 41
0
  0
VERTEX
  8
0
 10
0.606554
 20
1.91683
 30
0.0
 40
0
 41
0
  0
SEQEND
 8
0
  0
POLYLINE
  8
0
 62
     0
 66
     1
 10
0
 20
0
 30
0.0
 70
     1
 40
0.15
 41
0.15
  0
VERTEX
  8
0
 10
0.606554
 20
1.91683
 30
0.0
 40
0.00208333
 41
0.00208333
  0
VERTEX
  8
0
 10
0.606554
 20
0.497233
 30
0.0
 40
0.00208333
 41
0.00208333
  0
VERTEX
  8
0
 10
7.48813
 20
0.497233
 30
0.0
 40
0.00208333
 41
0.00208333
  0
VERTEX
  8
0
 10
7.48813
 20
1.95383
 30
0.0
 40
0.00208333
 41
0.00208333
  0
VERTEX
  8
0
 10
0.612631
 20
1.95383
 30
0.0
 40
0.00208333
 41
0.00208333
  0
VERTEX
  8
0
 10
0.606554
 20
1.91683
 30
0.0
 40
0.00208333
 41
0.00208333
  0
SEQEND
 8
0
  0
TEXT
  8
0
 62
     0
 10
2.79132
 20
1.22553
 30
0.0
 40
0.34375
  1
ULK
 50
0
  0
TEXT
  8
0
 62
     0
 10
3.46893
 20
1.22553
 30
0.0
 40
0.34375
  1
O
 50
0
  0
TEXT
  8
0
 62
     0
 10
3.73124
 20
1.22553
 30
0.0
 40
0.34375
  1
TILA
 50
0
  0
POLYLINE
  8
0
 62
     7
 66
     1
 10
0
 20
0
 30
0.0
 70
     1
 40
0
 41
0
  0
VERTEX
  8
0
 10
0.59375
 20
11.6097
 30
0.0
 40
0
 41
0
  0
VERTEX
  8
0
 10
0.59375
 20
13.3387
 30
0.0
 40
0
 41
0
  0
VERTEX
  8
0
 10
9.09125
 20
13.3387
 30
0.0
 40
0
 41
0
  0
VERTEX
  8
0
 10
9.09179
 20
11.622
 30
0.0
 40
0
 41
0
  0
VERTEX
  8
0
 10
0.59375
 20
11.6097
 30
0.0
 40
0
 41
0
  0
SEQEND
 8
0
  0
POLYLINE
  8
0
 62
     0
 66
     1
 10
0
 20
0
 30
0.0
 70
     1
 40
0.15
 41
0.15
  0
VERTEX
  8
0
 10
0.59375
 20
11.6097
 30
0.0
 40
0.00208333
 41
0.00208333
  0
VERTEX
  8
0
 10
0.59375
 20
13.3387
 30
0.0
 40
0.00208333
 41
0.00208333
  0
VERTEX
  8
0
 10
9.09125
 20
13.3387
 30
0.0
 40
0.00208333
 41
0.00208333
  0
VERTEX
  8
0
 10
9.09179
 20
11.622
 30
0.0
 40
0.00208333
 41
0.00208333
  0
VERTEX
  8
0
 10
0.59375
 20
11.6097
 30
0.0
 40
0.00208333
 41
0.00208333
  0
SEQEND
 8
0
  0
TEXT
  8
0
 62
     0
 10
1.45826
 20
12.4742
 30
0.0
 40
0.34375
  1
ULK
 50
0
  0
TEXT
  8
0
 62
     0
 10
2.13586
 20
12.4742
 30
0.0
 40
0.34375
  1
O
 50
0
  0
TEXT
  8
0
 62
     0
 10
2.39818
 20
12.4742
 30
0.0
 40
0.34375
  1
TILA
 50
0
  0
POLYLINE
  8
0
 62
     7
 66
     1
 10
0
 20
0
 30
0.0
 70
     1
 40
0
 41
0
  0
VERTEX
  8
0
 10
3.67301
 20
7.31424
 30
0.0
 40
0
 41
0
  0
VERTEX
  8
0
 10
5.31125
 20
7.31424
 30
0.0
 40
0
 41
0
  0
VERTEX
  8
0
 10
5.31125
 20
3.33518
 30
0.0
 40
0
 41
0
  0
VERTEX
  8
0
 10
3.67301
 20
3.33518
 30
0.0
 40
0
 41
0
  0
VERTEX
  8
0
 10
3.67301
 20
7.31424
 30
0.0
 40
0
 41
0
  0
SEQEND
 8
0
  0
POLYLINE
  8
0
 62
     7
 66
     1
 10
0
 20
0
 30
0.0
 70
     1
 40
0.15
 41
0.15
  0
VERTEX
  8
0
 10
3.67301
 20
7.31424
 30
0.0
 40
0.00208333
 41
0.00208333
  0
VERTEX
  8
0
 10
5.31125
 20
7.31424
 30
0.0
 40
0.00208333
 41
0.00208333
  0
VERTEX
  8
0
 10
5.31125
 20
3.33518
 30
0.0
 40
0.00208333
 41
0.00208333
  0
VERTEX
  8
0
 10
3.67301
 20
3.33518
 30
0.0
 40
0.00208333
 41
0.00208333
  0
VERTEX
  8
0
 10
3.67301
 20
7.31424
 30
0.0
 40
0.00208333
 41
0.00208333
  0
SEQEND
 8
0
  0
TEXT
  8
0
 62
     0
 10
4.27926
 20
5.75931
 30
0.0
 40
0.34375
  1
ET
 50
0
  0
POLYLINE
  8
0
 62
     7
 66
     1
 10
0
 20
0
 30
0.0
 70
     1
 40
0
 41
0
  0
VERTEX
  8
0
 10
5.31125
 20
7.31424
 30
0.0
 40
0
 41
0
  0
VERTEX
  8
0
 10
3.67301
 20
7.31424
 30
0.0
 40
0
 41
0
  0
VERTEX
  8
0
 10
3.67301
 20
7.33464
 30
0.0
 40
0
 41
0
  0
VERTEX
  8
0
 10
0.70779
 20
7.33464
 30
0.0
 40
0
 41
0
  0
VERTEX
  8
0
 10
0.70779
 20
11.3303
 30
0.0
 40
0
 41
0
  0
VERTEX
  8
0
 10
5.31125
 20
11.3303
 30
0.0
 40
0
 41
0
  0
VERTEX
  8
0
 10
5.31125
 20
7.31424
 30
0.0
 40
0
 41
0
  0
SEQEND
 8
0
  0
POLYLINE
  8
0
 62
     7
 66
     1
 10
0
 20
0
 30
0.0
 70
     1
 40
0.15
 41
0.15
  0
VERTEX
  8
0
 10
5.31125
 20
7.31424
 30
0.0
 40
0.00208333
 41
0.00208333
  0
VERTEX
  8
0
 10
3.67301
 20
7.31424
 30
0.0
 40
0.00208333
 41
0.00208333
  0
VERTEX
  8
0
 10
3.67301
 20
7.33464
 30
0.0
 40
0.00208333
 41
0.00208333
  0
VERTEX
  8
0
 10
0.70779
 20
7.33464
 30
0.0
 40
0.00208333
 41
0.00208333
  0
VERTEX
  8
0
 10
0.70779
 20
11.3303
 30
0.0
 40
0.00208333
 41
0.00208333
  0
VERTEX
  8
0
 10
5.31125
 20
11.3303
 30
0.0
 40
0.00208333
 41
0.00208333
  0
VERTEX
  8
0
 10
5.31125
 20
7.31424
 30
0.0
 40
0.00208333
 41
0.00208333
  0
SEQEND
 8
0
  0
TEXT
  8
0
 62
     0
 10
2.75883
 20
9.24665
 30
0.0
 40
0.34375
  1
OH
 50
0
  0
POLYLINE
  8
0
 62
     7
 66
     1
 10
0
 20
0
 30
0.0
 70
     1
 40
0
 41
0
  0
VERTEX
  8
0
 10
8.97721
 20
2.24914
 30
0.0
 40
0
 41
0
  0
VERTEX
  8
0
 10
5.44667
 20
2.24914
 30
0.0
 40
0
 41
0
  0
VERTEX
  8
0
 10
5.44667
 20
5.57124
 30
0.0
 40
0
 41
0
  0
VERTEX
  8
0
 10
7.2404
 20
5.57124
 30
0.0
 40
0
 41
0
  0
VERTEX
  8
0
 10
7.2404
 20
6.15246
 30
0.0
 40
0
 41
0
  0
VERTEX
  8
0
 10
8.97721
 20
6.15246
 30
0.0
 40
0
 41
0
  0
VERTEX
  8
0
 10
8.97721
 20
2.24914
 30
0.0
 40
0
 41
0
  0
SEQEND
 8
0
  0
POLYLINE
  8
0
 62
     7
 66
     1
 10
0
 20
0
 30
0.0
 70
     1
 40
0.15
 41
0.15
  0
VERTEX
  8
0
 10
8.97721
 20
2.24914
 30
0.0
 40
0.00208333
 41
0.00208333
  0
VERTEX
  8
0
 10
5.44667
 20
2.24914
 30
0.0
 40
0.00208333
 41
0.00208333
  0
VERTEX
  8
0
 10
5.44667
 20
5.57124
 30
0.0
 40
0.00208333
 41
0.00208333
  0
VERTEX
  8
0
 10
7.2404
 20
5.57124
 30
0.0
 40
0.00208333
 41
0.00208333
  0
VERTEX
  8
0
 10
7.2404
 20
6.15246
 30
0.0
 40
0.00208333
 41
0.00208333
  0
VERTEX
  8
0
 10
8.97721
 20
6.15246
 30
0.0
 40
0.00208333
 41
0.00208333
  0
VERTEX
  8
0
 10
8.97721
 20
2.24914
 30
0.0
 40
0.00208333
 41
0.00208333
  0
SEQEND
 8
0
  0
TEXT
  8
0
 62
     0
 10
7.02121
 20
3.79375
 30
0.0
 40
0.34375
  1
MH
 50
0
  0
POLYLINE
  8
0
 62
     7
 66
     1
 10
0
 20
0
 30
0.0
 70
     1
 40
0
 41
0
  0
VERTEX
  8
0
 10
5.44667
 20
11.3303
 30
0.0
 40
0
 41
0
  0
VERTEX
  8
0
 10
8.97721
 20
11.3303
 30
0.0
 40
0
 41
0
  0
VERTEX
  8
0
 10
8.97721
 20
8.02713
 30
0.0
 40
0
 41
0
  0
VERTEX
  8
0
 10
5.44667
 20
8.02713
 30
0.0
 40
0
 41
0
  0
VERTEX
  8
0
 10
5.44667
 20
11.3303
 30
0.0
 40
0
 41
0
  0
SEQEND
 8
0
  0
POLYLINE
  8
0
 62
     7
 66
     1
 10
0
 20
0
 30
0.0
 70
     1
 40
0.15
 41
0.15
  0
VERTEX
  8
0
 10
5.44667
 20
11.3303
 30
0.0
 40
0.00208333
 41
0.00208333
  0
VERTEX
  8
0
 10
8.97721
 20
11.3303
 30
0.0
 40
0.00208333
 41
0.00208333
  0
VERTEX
  8
0
 10
8.97721
 20
8.02713
 30
0.0
 40
0.00208333
 41
0.00208333
  0
VERTEX
  8
0
 10
5.44667
 20
8.02713
 30
0.0
 40
0.00208333
 41
0.00208333
  0
VERTEX
  8
0
 10
5.44667
 20
11.3303
 30
0.0
 40
0.00208333
 41
0.00208333
  0
SEQEND
 8
0
  0
TEXT
  8
0
 62
     0
 10
6.92042
 20
9.63704
 30
0.0
 40
0.34375
  1
K
 50
0
  0
POLYLINE
  8
0
 62
     7
 66
     1
 10
0
 20
0
 30
0.0
 70
     1
 40
0
 41
0
  0
VERTEX
  8
0
 10
0.70779
 20
5.8731
 30
0.0
 40
0
 41
0
  0
VERTEX
  8
0
 10
3.55843
 20
5.8731
 30
0.0
 40
0
 41
0
  0
VERTEX
  8
0
 10
3.55843
 20
2.24914
 30
0.0
 40
0
 41
0
  0
VERTEX
  8
0
 10
0.70779
 20
2.24914
 30
0.0
 40
0
 41
0
  0
VERTEX
  8
0
 10
0.70779
 20
5.8731
 30
0.0
 40
0
 41
0
  0
SEQEND
 8
0
  0
POLYLINE
  8
0
 62
     7
 66
     1
 10
0
 20
0
 30
0.0
 70
     1
 40
0.15
 41
0.15
  0
VERTEX
  8
0
 10
0.70779
 20
5.8731
 30
0.0
 40
0.00208333
 41
0.00208333
  0
VERTEX
  8
0
 10
3.55843
 20
5.8731
 30
0.0
 40
0.00208333
 41
0.00208333
  0
VERTEX
  8
0
 10
3.55843
 20
2.24914
 30
0.0
 40
0.00208333
 41
0.00208333
  0
VERTEX
  8
0
 10
0.70779
 20
2.24914
 30
0.0
 40
0.00208333
 41
0.00208333
  0
VERTEX
  8
0
 10
0.70779
 20
5.8731
 30
0.0
 40
0.00208333
 41
0.00208333
  0
SEQEND
 8
0
  0
TEXT
  8
0
 62
     0
 10
1.95136
 20
3.87639
 30
0.0
 40
0.34375
  1
MH
 50
0
  0
POLYLINE
  8
0
 62
     7
 66
     1
 10
0
 20
0
 30
0.0
 70
     1
 40
0
 41
0
  0
VERTEX
  8
0
 10
5.44667
 20
7.92296
 30
0.0
 40
0
 41
0
  0
VERTEX
  8
0
 10
7.13624
 20
7.92296
 30
0.0
 40
0
 41
0
  0
VERTEX
  8
0
 10
7.13624
 20
5.63807
 30
0.0
 40
0
 41
0
  0
VERTEX
  8
0
 10
5.44667
 20
5.63807
 30
0.0
 40
0
 41
0
  0
VERTEX
  8
0
 10
5.44667
 20
7.92296
 30
0.0
 40
0
 41
0
  0
SEQEND
 8
0
  0
POLYLINE
  8
0
 62
     7
 66
     1
 10
0
 20
0
 30
0.0
 70
     1
 40
0.15
 41
0.15
  0
VERTEX
  8
0
 10
5.44667
 20
7.92296
 30
0.0
 40
0.00208333
 41
0.00208333
  0
VERTEX
  8
0
 10
7.13624
 20
7.92296
 30
0.0
 40
0.00208333
 41
0.00208333
  0
VERTEX
  8
0
 10
7.13624
 20
5.63807
 30
0.0
 40
0.00208333
 41
0.00208333
  0
VERTEX
  8
0
 10
5.44667
 20
5.63807
 30
0.0
 40
0.00208333
 41
0.00208333
  0
VERTEX
  8
0
 10
5.44667
 20
7.92296
 30
0.0
 40
0.00208333
 41
0.00208333
  0
SEQEND
 8
0
  0
TEXT
  8
0
 62
     0
 10
5.76875
 20
6.61579
 30
0.0
 40
0.34375
  1
KH
 50
0
  0
POLYLINE
  8
0
 62
     7
 66
     1
 10
0
 20
0
 30
0.0
 70
     1
 40
0
 41
0
  0
VERTEX
  8
0
 10
7.27012
 20
7.92296
 30
0.0
 40
0
 41
0
  0
VERTEX
  8
0
 10
8.97721
 20
7.92296
 30
0.0
 40
0
 41
0
  0
VERTEX
  8
0
 10
8.97721
 20
6.3209
 30
0.0
 40
0
 41
0
  0
VERTEX
  8
0
 10
7.27012
 20
6.3209
 30
0.0
 40
0
 41
0
  0
VERTEX
  8
0
 10
7.27012
 20
7.92296
 30
0.0
 40
0
 41
0
  0
SEQEND
 8
0
  0
POLYLINE
  8
0
 62
     7
 66
     1
 10
0
 20
0
 30
0.0
 70
     1
 40
0.15
 41
0.15
  0
VERTEX
  8
0
 10
7.27012
 20
7.92296
 30
0.0
 40
0.00208333
 41
0.00208333
  0
VERTEX
  8
0
 10
8.97721
 20
7.92296
 30
0.0
 40
0.00208333
 41
0.00208333
  0
VERTEX
  8
0
 10
8.97721
 20
6.3209
 30
0.0
 40
0.00208333
 41
0.00208333
  0
VERTEX
  8
0
 10
7.27012
 20
6.3209
 30
0.0
 40
0.00208333
 41
0.00208333
  0
VERTEX
  8
0
 10
7.27012
 20
7.92296
 30
0.0
 40
0.00208333
 41
0.00208333
  0
SEQEND
 8
0
  0
TEXT
  8
0
 62
     0
 10
8.07112
 20
7.12196
 30
0.0
 40
0.34375
  1
UNDEFINED
 50
0
  0
POLYLINE
  8
0
 62
     7
 66
     1
 10
0
 20
0
 30
0.0
 70
     1
 40
0
 41
0
  0
VERTEX
  8
0
 10
7.61176
 20
1.93978
 30
0.0
 40
0
 41
0
  0
VERTEX
  8
0
 10
9.07096
 20
1.93978
 30
0.0
 40
0
 41
0
  0
VERTEX
  8
0
 10
9.07096
 20
0.115668
 30
0.0
 40
0
 41
0
  0
VERTEX
  8
0
 10
7.61176
 20
0.115668
 30
0.0
 40
0
 41
0
  0
VERTEX
  8
0
 10
7.61176
 20
1.93978
 30
0.0
 40
0
 41
0
  0
SEQEND
 8
0
  0
POLYLINE
  8
0
 62
     7
 66
     1
 10
0
 20
0
 30
0.0
 70
     1
 40
0.15
 41
0.15
  0
VERTEX
  8
0
 10
7.61176
 20
1.93978
 30
0.0
 40
0.00208333
 41
0.00208333
  0
VERTEX
  8
0
 10
9.07096
 20
1.93978
 30
0.0
 40
0.00208333
 41
0.00208333
  0
VERTEX
  8
0
 10
9.07096
 20
0.115668
 30
0.0
 40
0.00208333
 41
0.00208333
  0
VERTEX
  8
0
 10
7.61176
 20
0.115668
 30
0.0
 40
0.00208333
 41
0.00208333
  0
VERTEX
  8
0
 10
7.61176
 20
1.93978
 30
0.0
 40
0.00208333
 41
0.00208333
  0
SEQEND
 8
0
  0
TEXT
  8
0
 62
     0
 10
8.00846
 20
0.717571
 30
0.0
 40
0.34375
  1
V
 50
0
  0
TEXT
  8
0
 62
     0
 10
8.23346
 20
0.717571
 30
0.0
 40
0.34375
  1
AR
 50
0
  0
POLYLINE
  8
0
 62
     7
 66
     1
 10
0
 20
0
 30
0.0
 70
     1
 40
0
 41
0
  0
VERTEX
  8
0
 10
3.67301
 20
3.19976
 30
0.0
 40
0
 41
0
  0
VERTEX
  8
0
 10
5.31125
 20
3.19976
 30
0.0
 40
0
 41
0
  0
VERTEX
  8
0
 10
5.31125
 20
2.24914
 30
0.0
 40
0
 41
0
  0
VERTEX
  8
0
 10
3.67301
 20
2.24914
 30
0.0
 40
0
 41
0
  0
VERTEX
  8
0
 10
3.67301
 20
3.19976
 30
0.0
 40
0
 41
0
  0
SEQEND
 8
0
  0
POLYLINE
  8
0
 62
     7
 66
     1
 10
0
 20
0
 30
0.0
 70
     1
 40
0.15
 41
0.15
  0
VERTEX
  8
0
 10
3.67301
 20
3.19976
 30
0.0
 40
0.00208333
 41
0.00208333
  0
VERTEX
  8
0
 10
5.31125
 20
3.19976
 30
0.0
 40
0.00208333
 41
0.00208333
  0
VERTEX
  8
0
 10
5.31125
 20
2.24914
 30
0.0
 40
0.00208333
 41
0.00208333
  0
VERTEX
  8
0
 10
3.67301
 20
2.24914
 30
0.0
 40
0.00208333
 41
0.00208333
  0
VERTEX
  8
0
 10
3.67301
 20
3.19976
 30
0.0
 40
0.00208333
 41
0.00208333
  0
SEQEND
 8
0
  0
TEXT
  8
0
 62
     0
 10
4.49453
 20
2.57803
 30
0.0
 40
0.34375
  1
TK
 50
0
  0
POLYLINE
  8
0
 62
     7
 66
     1
 10
0
 20
0
 30
0.0
 70
     1
 40
0
 41
0
  0
VERTEX
  8
0
 10
2.13792
 20
7.22006
 30
0.0
 40
0
 41
0
  0
VERTEX
  8
0
 10
3.55843
 20
7.22006
 30
0.0
 40
0
 41
0
  0
VERTEX
  8
0
 10
3.55843
 20
5.97726
 30
0.0
 40
0
 41
0
  0
VERTEX
  8
0
 10
2.13792
 20
5.97726
 30
0.0
 40
0
 41
0
  0
VERTEX
  8
0
 10
2.13792
 20
7.22006
 30
0.0
 40
0
 41
0
  0
SEQEND
 8
0
  0
POLYLINE
  8
0
 62
     7
 66
     1
 10
0
 20
0
 30
0.0
 70
     1
 40
0.15
 41
0.15
  0
VERTEX
  8
0
 10
2.13792
 20
7.22006
 30
0.0
 40
0.00208333
 41
0.00208333
  0
VERTEX
  8
0
 10
3.55843
 20
7.22006
 30
0.0
 40
0.00208333
 41
0.00208333
  0
VERTEX
  8
0
 10
3.55843
 20
5.97726
 30
0.0
 40
0.00208333
 41
0.00208333
  0
VERTEX
  8
0
 10
2.13792
 20
5.97726
 30
0.0
 40
0.00208333
 41
0.00208333
  0
VERTEX
  8
0
 10
2.13792
 20
7.22006
 30
0.0
 40
0.00208333
 41
0.00208333
  0
SEQEND
 8
0
  0
TEXT
  8
0
 62
     0
 10
2.88986
 20
6.68171
 30
0.0
 40
0.34375
  1
WC
 50
0
  0
POLYLINE
  8
0
 62
     7
 66
     1
 10
0
 20
0
 30
0.0
 70
     1
 40
0
 41
0
  0
VERTEX
  8
0
 10
0.70779
 20
7.22006
 30
0.0
 40
0
 41
0
  0
VERTEX
  8
0
 10
2.0025
 20
7.22006
 30
0.0
 40
0
 41
0
  0
VERTEX
  8
0
 10
2.0025
 20
5.97726
 30
0.0
 40
0
 41
0
  0
VERTEX
  8
0
 10
0.70779
 20
5.97726
 30
0.0
 40
0
 41
0
  0
VERTEX
  8
0
 10
0.70779
 20
7.22006
 30
0.0
 40
0
 41
0
  0
SEQEND
 8
0
  0
POLYLINE
  8
0
 62
     7
 66
     1
 10
0
 20
0
 30
0.0
 70
     1
 40
0.15
 41
0.15
  0
VERTEX
  8
0
 10
0.70779
 20
7.22006
 30
0.0
 40
0.00208333
 41
0.00208333
  0
VERTEX
  8
0
 10
2.0025
 20
7.22006
 30
0.0
 40
0.00208333
 41
0.00208333
  0
VERTEX
  8
0
 10
2.0025
 20
5.97726
 30
0.0
 40
0.00208333
 41
0.00208333
  0
VERTEX
  8
0
 10
0.70779
 20
5.97726
 30
0.0
 40
0.00208333
 41
0.00208333
  0
VERTEX
  8
0
 10
0.70779
 20
7.22006
 30
0.0
 40
0.00208333
 41
0.00208333
  0
SEQEND
 8
0
  0
TEXT
  8
0
 62
     0
 10
1.41232
 20
6.30196
 30
0.0
 40
0.34375
  1
VH
 50
0
  0
POLYLINE
  8
0
 62
     0
 66
     1
 10
0
 20
0
 30
0.0
 70
     1
 40
0
 41
0
  0
VERTEX
  8
0
 10
0.478624
 20
11.622
 30
0.0
 40
0
 41
0
  0
VERTEX
  8
0
 10
9.20638
 20
11.622
 30
0.0
 40
0
 41
0
  0
VERTEX
  8
0
 10
8.97721
 20
11.3303
 30
0.0
 40
0
 41
0
  0
VERTEX
  8
0
 10
0.70779
 20
11.3303
 30
0.0
 40
0
 41
0
  0
VERTEX
  8
0
 10
0.478624
 20
11.622
 30
0.0
 40
0
 41
0
  0
SEQEND
 8
0
  0
POLYLINE
  8
0
 62
     0
 66
     1
 10
0
 20
0
 30
0.0
 70
     1
 40
0.15
 41
0.15
  0
VERTEX
  8
0
 10
0.478624
 20
11.622
 30
0.0
 40
0.00208333
 41
0.00208333
  0
VERTEX
  8
0
 10
9.20638
 20
11.622
 30
0.0
 40
0.00208333
 41
0.00208333
  0
VERTEX
  8
0
 10
8.97721
 20
11.3303
 30
0.0
 40
0.00208333
 41
0.00208333
  0
VERTEX
  8
0
 10
0.70779
 20
11.3303
 30
0.0
 40
0.00208333
 41
0.00208333
  0
VERTEX
  8
0
 10
0.478624
 20
11.622
 30
0.0
 40
0.00208333
 41
0.00208333
  0
SEQEND
 8
0
  0
POLYLINE
  8
0
 62
     7
 66
     1
 10
0
 20
0
 30
0.0
 70
     1
 40
0
 41
0
  0
VERTEX
  8
0
 10
1.62989
 20
11.622
 30
0.0
 40
0
 41
0
  0
VERTEX
  8
0
 10
3.85406
 20
11.622
 30
0.0
 40
0
 41
0
  0
VERTEX
  8
0
 10
3.85406
 20
11.3303
 30
0.0
 40
0
 41
0
  0
VERTEX
  8
0
 10
1.62989
 20
11.3303
 30
0.0
 40
0
 41
0
  0
VERTEX
  8
0
 10
1.62989
 20
11.622
 30
0.0
 40
0
 41
0
  0
SEQEND
 8
0
  0
POLYLINE
  8
0
 62
     0
 66
     1
 10
0
 20
0
 30
0.0
 70
     1
 40
0.75
 41
0.75
  0
VERTEX
  8
0
 10
1.62989
 20
11.622
 30
0.0
 40
0.0104167
 41
0.0104167
  0
VERTEX
  8
0
 10
3.85406
 20
11.622
 30
0.0
 40
0.0104167
 41
0.0104167
  0
VERTEX
  8
0
 10
3.85406
 20
11.3303
 30
0.0
 40
0.0104167
 41
0.0104167
  0
VERTEX
  8
0
 10
1.62989
 20
11.3303
 30
0.0
 40
0.0104167
 41
0.0104167
  0
VERTEX
  8
0
 10
1.62989
 20
11.622
 30
0.0
 40
0.0104167
 41
0.0104167
  0
SEQEND
 8
0
  0
POLYLINE
  8
0
 62
     7
 66
     1
 10
0
 20
0
 30
0.0
 70
     1
 40
0
 41
0
  0
VERTEX
  8
0
 10
1.62989
 20
11.622
 30
0.0
 40
0
 41
0
  0
VERTEX
  8
0
 10
3.85406
 20
11.622
 30
0.0
 40
0
 41
0
  0
VERTEX
  8
0
 10
3.85406
 20
11.3303
 30
0.0
 40
0
 41
0
  0
VERTEX
  8
0
 10
1.62989
 20
11.3303
 30
0.0
 40
0
 41
0
  0
VERTEX
  8
0
 10
1.62989
 20
11.622
 30
0.0
 40
0
 41
0
  0
SEQEND
 8
0
  0
POLYLINE
  8
0
 62
     0
 66
     1
 10
0
 20
0
 30
0.0
 70
     1
 40
0.75
 41
0.75
  0
VERTEX
  8
0
 10
1.62989
 20
11.622
 30
0.0
 40
0.0104167
 41
0.0104167
  0
VERTEX
  8
0
 10
3.85406
 20
11.622
 30
0.0
 40
0.0104167
 41
0.0104167
  0
VERTEX
  8
0
 10
3.85406
 20
11.3303
 30
0.0
 40
0.0104167
 41
0.0104167
  0
VERTEX
  8
0
 10
1.62989
 20
11.3303
 30
0.0
 40
0.0104167
 41
0.0104167
  0
VERTEX
  8
0
 10
1.62989
 20
11.622
 30
0.0
 40
0.0104167
 41
0.0104167
  0
SEQEND
 8
0
  0
POLYLINE
  8
0
 62
     0
 66
     1
 10
0
 20
0
 30
0.0
 40
0.75
 41
0.75
  0
VERTEX
  8
0
 10
1.70801
 20
11.4761
 30
0.0
 40
0.0104167
 41
0.0104167
  0
VERTEX
  8
0
 10
3.77593
 20
11.4761
 30
0.0
 40
0.0104167
 41
0.0104167
  0
SEQEND
 8
0
  0
POLYLINE
  8
0
 62
     0
 66
     1
 10
0
 20
0
 30
0.0
 40
0.75
 41
0.75
  0
VERTEX
  8
0
 10
1.70801
 20
11.6219
 30
0.0
 40
0.0104167
 41
0.0104167
  0
VERTEX
  8
0
 10
1.70801
 20
11.3302
 30
0.0
 40
0.0104167
 41
0.0104167
  0
SEQEND
 8
0
  0
POLYLINE
  8
0
 62
     0
 66
     1
 10
0
 20
0
 30
0.0
 40
0.75
 41
0.75
  0
VERTEX
  8
0
 10
3.77593
 20
11.6219
 30
0.0
 40
0.0104167
 41
0.0104167
  0
VERTEX
  8
0
 10
3.77593
 20
11.3302
 30
0.0
 40
0.0104167
 41
0.0104167
  0
SEQEND
 8
0
  0
POLYLINE
  8
0
 62
     7
 66
     1
 10
0
 20
0
 30
0.0
 70
     1
 40
0
 41
0
  0
VERTEX
  8
0
 10
6.00439
 20
11.622
 30
0.0
 40
0
 41
0
  0
VERTEX
  8
0
 10
7.91237
 20
11.622
 30
0.0
 40
0
 41
0
  0
VERTEX
  8
0
 10
7.91237
 20
11.3303
 30
0.0
 40
0
 41
0
  0
VERTEX
  8
0
 10
6.00439
 20
11.3303
 30
0.0
 40
0
 41
0
  0
VERTEX
  8
0
 10
6.00439
 20
11.622
 30
0.0
 40
0
 41
0
  0
SEQEND
 8
0
  0
POLYLINE
  8
0
 62
     0
 66
     1
 10
0
 20
0
 30
0.0
 70
     1
 40
0.75
 41
0.75
  0
VERTEX
  8
0
 10
6.00439
 20
11.622
 30
0.0
 40
0.0104167
 41
0.0104167
  0
VERTEX
  8
0
 10
7.91237
 20
11.622
 30
0.0
 40
0.0104167
 41
0.0104167
  0
VERTEX
  8
0
 10
7.91237
 20
11.3303
 30
0.0
 40
0.0104167
 41
0.0104167
  0
VERTEX
  8
0
 10
6.00439
 20
11.3303
 30
0.0
 40
0.0104167
 41
0.0104167
  0
VERTEX
  8
0
 10
6.00439
 20
11.622
 30
0.0
 40
0.0104167
 41
0.0104167
  0
SEQEND
 8
0
  0
POLYLINE
  8
0
 62
     7
 66
     1
 10
0
 20
0
 30
0.0
 70
     1
 40
0
 41
0
  0
VERTEX
  8
0
 10
6.00439
 20
11.622
 30
0.0
 40
0
 41
0
  0
VERTEX
  8
0
 10
7.91237
 20
11.622
 30
0.0
 40
0
 41
0
  0
VERTEX
  8
0
 10
7.91237
 20
11.3303
 30
0.0
 40
0
 41
0
  0
VERTEX
  8
0
 10
6.00439
 20
11.3303
 30
0.0
 40
0
 41
0
  0
VERTEX
  8
0
 10
6.00439
 20
11.622
 30
0.0
 40
0
 41
0
  0
SEQEND
 8
0
  0
POLYLINE
  8
0
 62
     0
 66
     1
 10
0
 20
0
 30
0.0
 70
     1
 40
0.75
 41
0.75
  0
VERTEX
  8
0
 10
6.00439
 20
11.622
 30
0.0
 40
0.0104167
 41
0.0104167
  0
VERTEX
  8
0
 10
7.91237
 20
11.622
 30
0.0
 40
0.0104167
 41
0.0104167
  0
VERTEX
  8
0
 10
7.91237
 20
11.3303
 30
0.0
 40
0.0104167
 41
0.0104167
  0
VERTEX
  8
0
 10
6.00439
 20
11.3303
 30
0.0
 40
0.0104167
 41
0.0104167
  0
VERTEX
  8
0
 10
6.00439
 20
11.622
 30
0.0
 40
0.0104167
 41
0.0104167
  0
SEQEND
 8
0
  0
POLYLINE
  8
0
 62
     0
 66
     1
 10
0
 20
0
 30
0.0
 40
0.75
 41
0.75
  0
VERTEX
  8
0
 10
6.08257
 20
11.4761
 30
0.0
 40
0.0104167
 41
0.0104167
  0
VERTEX
  8
0
 10
7.83425
 20
11.4761
 30
0.0
 40
0.0104167
 41
0.0104167
  0
SEQEND
 8
0
  0
POLYLINE
  8
0
 62
     0
 66
     1
 10
0
 20
0
 30
0.0
 40
0.75
 41
0.75
  0
VERTEX
  8
0
 10
6.08257
 20
11.6219
 30
0.0
 40
0.0104167
 41
0.0104167
  0
VERTEX
  8
0
 10
6.08257
 20
11.3302
 30
0.0
 40
0.0104167
 41
0.0104167
  0
SEQEND
 8
0
  0
POLYLINE
  8
0
 62
     0
 66
     1
 10
0
 20
0
 30
0.0
 40
0.75
 41
0.75
  0
VERTEX
  8
0
 10
7.83425
 20
11.6219
 30
0.0
 40
0.0104167
 41
0.0104167
  0
VERTEX
  8
0
 10
7.83425
 20
11.3302
 30
0.0
 40
0.0104167
 41
0.0104167
  0
SEQEND
 8
0
  0
POLYLINE
  8
0
 62
     7
 66
     1
 10
0
 20
0
 30
0.0
 70
     1
 40
0
 41
0
  0
VERTEX
  8
0
 10
3.88167
 20
11.622
 30
0.0
 40
0
 41
0
  0
VERTEX
  8
0
 10
4.7474
 20
11.622
 30
0.0
 40
0
 41
0
  0
VERTEX
  8
0
 10
4.7474
 20
11.3303
 30
0.0
 40
0
 41
0
  0
VERTEX
  8
0
 10
3.88167
 20
11.3303
 30
0.0
 40
0
 41
0
  0
VERTEX
  8
0
 10
3.88167
 20
11.622
 30
0.0
 40
0
 41
0
  0
SEQEND
 8
0
  0
POLYLINE
  8
0
 62
     0
 66
     1
 10
0
 20
0
 30
0.0
 70
     1
 40
0.75
 41
0.75
  0
VERTEX
  8
0
 10
3.88167
 20
11.622
 30
0.0
 40
0.0104167
 41
0.0104167
  0
VERTEX
  8
0
 10
4.7474
 20
11.622
 30
0.0
 40
0.0104167
 41
0.0104167
  0
VERTEX
  8
0
 10
4.7474
 20
11.3303
 30
0.0
 40
0.0104167
 41
0.0104167
  0
VERTEX
  8
0
 10
3.88167
 20
11.3303
 30
0.0
 40
0.0104167
 41
0.0104167
  0
VERTEX
  8
0
 10
3.88167
 20
11.622
 30
0.0
 40
0.0104167
 41
0.0104167
  0
SEQEND
 8
0
  0
POLYLINE
  8
0
 62
     7
 66
     1
 10
0
 20
0
 30
0.0
 70
     1
 40
0
 41
0
  0
VERTEX
  8
0
 10
3.88167
 20
11.622
 30
0.0
 40
0
 41
0
  0
VERTEX
  8
0
 10
4.7474
 20
11.622
 30
0.0
 40
0
 41
0
  0
VERTEX
  8
0
 10
4.7474
 20
11.3303
 30
0.0
 40
0
 41
0
  0
VERTEX
  8
0
 10
3.88167
 20
11.3303
 30
0.0
 40
0
 41
0
  0
VERTEX
  8
0
 10
3.88167
 20
11.622
 30
0.0
 40
0
 41
0
  0
SEQEND
 8
0
  0
POLYLINE
  8
0
 62
     0
 66
     1
 10
0
 20
0
 30
0.0
 70
     1
 40
0.75
 41
0.75
  0
VERTEX
  8
0
 10
3.88167
 20
11.622
 30
0.0
 40
0.0104167
 41
0.0104167
  0
VERTEX
  8
0
 10
4.7474
 20
11.622
 30
0.0
 40
0.0104167
 41
0.0104167
  0
VERTEX
  8
0
 10
4.7474
 20
11.3303
 30
0.0
 40
0.0104167
 41
0.0104167
  0
VERTEX
  8
0
 10
3.88167
 20
11.3303
 30
0.0
 40
0.0104167
 41
0.0104167
  0
VERTEX
  8
0
 10
3.88167
 20
11.622
 30
0.0
 40
0.0104167
 41
0.0104167
  0
SEQEND
 8
0
  0
POLYLINE
  8
0
 62
     0
 66
     1
 10
0
 20
0
 30
0.0
 70
     1
 40
0.75
 41
0.75
  0
VERTEX
  8
0
 10
3.88167
 20
11.622
 30
0.0
 40
0.0104167
 41
0.0104167
  0
VERTEX
  8
0
 10
3.88167
 20
11.6727
 30
0.0
 40
0.0104167
 41
0.0104167
  0
VERTEX
  8
0
 10
3.89518
 20
11.8249
 30
0.0
 40
0.0104167
 41
0.0104167
  0
VERTEX
  8
0
 10
3.93576
 20
12.0007
 30
0.0
 40
0.0104167
 41
0.0104167
  0
VERTEX
  8
0
 10
4.00336
 20
12.1495
 30
0.0
 40
0.0104167
 41
0.0104167
  0
VERTEX
  8
0
 10
4.09804
 20
12.2712
 30
0.0
 40
0.0104167
 41
0.0104167
  0
VERTEX
  8
0
 10
4.21978
 20
12.3659
 30
0.0
 40
0.0104167
 41
0.0104167
  0
VERTEX
  8
0
 10
4.36854
 20
12.4335
 30
0.0
 40
0.0104167
 41
0.0104167
  0
VERTEX
  8
0
 10
4.54438
 20
12.4741
 30
0.0
 40
0.0104167
 41
0.0104167
  0
VERTEX
  8
0
 10
4.69656
 20
12.4876
 30
0.0
 40
0.0104167
 41
0.0104167
  0
VERTEX
  8
0
 10
4.74729
 20
12.4876
 30
0.0
 40
0.0104167
 41
0.0104167
  0
VERTEX
  8
0
 10
4.74729
 20
11.622
 30
0.0
 40
0.0104167
 41
0.0104167
  0
VERTEX
  8
0
 10
3.88167
 20
11.622
 30
0.0
 40
0.0104167
 41
0.0104167
  0
SEQEND
 8
0
  0
POLYLINE
  8
0
 62
     0
 66
     1
 10
0
 20
0
 30
0.0
 70
     1
 40
0.75
 41
0.75
  0
VERTEX
  8
0
 10
3.88167
 20
11.3303
 30
0.0
 40
0.0104167
 41
0.0104167
  0
VERTEX
  8
0
 10
3.88167
 20
11.2796
 30
0.0
 40
0.0104167
 41
0.0104167
  0
VERTEX
  8
0
 10
3.89518
 20
11.1274
 30
0.0
 40
0.0104167
 41
0.0104167
  0
VERTEX
  8
0
 10
3.93576
 20
10.9516
 30
0.0
 40
0.0104167
 41
0.0104167
  0
VERTEX
  8
0
 10
4.00336
 20
10.8028
 30
0.0
 40
0.0104167
 41
0.0104167
  0
VERTEX
  8
0
 10
4.09804
 20
10.6811
 30
0.0
 40
0.0104167
 41
0.0104167
  0
VERTEX
  8
0
 10
4.21978
 20
10.5864
 30
0.0
 40
0.0104167
 41
0.0104167
  0
VERTEX
  8
0
 10
4.36854
 20
10.5188
 30
0.0
 40
0.0104167
 41
0.0104167
  0
VERTEX
  8
0
 10
4.54438
 20
10.4782
 30
0.0
 40
0.0104167
 41
0.0104167
  0
VERTEX
  8
0
 10
4.69656
 20
10.4646
 30
0.0
 40
0.0104167
 41
0.0104167
  0
VERTEX
  8
0
 10
4.74729
 20
10.4646
 30
0.0
 40
0.0104167
 41
0.0104167
  0
VERTEX
  8
0
 10
4.74729
 20
11.3303
 30
0.0
 40
0.0104167
 41
0.0104167
  0
VERTEX
  8
0
 10
3.88167
 20
11.3303
 30
0.0
 40
0.0104167
 41
0.0104167
  0
SEQEND
 8
0
  0
POLYLINE
  8
0
 62
     0
 66
     1
 10
0
 20
0
 30
0.0
 70
     1
 40
0
 41
0
  0
VERTEX
  8
0
 10
9.20638
 20
11.622
 30
0.0
 40
0
 41
0
  0
VERTEX
  8
0
 10
9.20638
 20
1.93978
 30
0.0
 40
0
 41
0
  0
VERTEX
  8
0
 10
8.97721
 20
1.93978
 30
0.0
 40
0
 41
0
  0
VERTEX
  8
0
 10
8.97721
 20
11.3303
 30
0.0
 40
0
 41
0
  0
VERTEX
  8
0
 10
9.20638
 20
11.622
 30
0.0
 40
0
 41
0
  0
SEQEND
 8
0
  0
POLYLINE
  8
0
 62
     0
 66
     1
 10
0
 20
0
 30
0.0
 70
     1
 40
0.15
 41
0.15
  0
VERTEX
  8
0
 10
9.20638
 20
11.622
 30
0.0
 40
0.00208333
 41
0.00208333
  0
VERTEX
  8
0
 10
9.20638
 20
1.93978
 30
0.0
 40
0.00208333
 41
0.00208333
  0
VERTEX
  8
0
 10
8.97721
 20
1.93978
 30
0.0
 40
0.00208333
 41
0.00208333
  0
VERTEX
  8
0
 10
8.97721
 20
11.3303
 30
0.0
 40
0.00208333
 41
0.00208333
  0
VERTEX
  8
0
 10
9.20638
 20
11.622
 30
0.0
 40
0.00208333
 41
0.00208333
  0
SEQEND
 8
0
  0
POLYLINE
  8
0
 62
     0
 66
     1
 10
0
 20
0
 30
0.0
 70
     1
 40
0
 41
0
  0
VERTEX
  8
0
 10
9.20638
 20
1.93978
 30
0.0
 40
0
 41
0
  0
VERTEX
  8
0
 10
0.478624
 20
1.93978
 30
0.0
 40
0
 41
0
  0
VERTEX
  8
0
 10
0.478624
 20
2.24914
 30
0.0
 40
0
 41
0
  0
VERTEX
  8
0
 10
8.97721
 20
2.24914
 30
0.0
 40
0
 41
0
  0
VERTEX
  8
0
 10
9.20638
 20
1.93978
 30
0.0
 40
0
 41
0
  0
SEQEND
 8
0
  0
POLYLINE
  8
0
 62
     0
 66
     1
 10
0
 20
0
 30
0.0
 70
     1
 40
0.15
 41
0.15
  0
VERTEX
  8
0
 10
9.20638
 20
1.93978
 30
0.0
 40
0.00208333
 41
0.00208333
  0
VERTEX
  8
0
 10
0.478624
 20
1.93978
 30
0.0
 40
0.00208333
 41
0.00208333
  0
VERTEX
  8
0
 10
0.478624
 20
2.24914
 30
0.0
 40
0.00208333
 41
0.00208333
  0
VERTEX
  8
0
 10
8.97721
 20
2.24914
 30
0.0
 40
0.00208333
 41
0.00208333
  0
VERTEX
  8
0
 10
9.20638
 20
1.93978
 30
0.0
 40
0.00208333
 41
0.00208333
  0
SEQEND
 8
0
  0
POLYLINE
  8
0
 62
     7
 66
     1
 10
0
 20
0
 30
0.0
 70
     1
 40
0
 41
0
  0
VERTEX
  8
0
 10
5.92854
 20
2.24914
 30
0.0
 40
0
 41
0
  0
VERTEX
  8
0
 10
7.45638
 20
2.24914
 30
0.0
 40
0
 41
0
  0
VERTEX
  8
0
 10
7.45638
 20
1.93978
 30
0.0
 40
0
 41
0
  0
VERTEX
  8
0
 10
5.92854
 20
1.93978
 30
0.0
 40
0
 41
0
  0
VERTEX
  8
0
 10
5.92854
 20
2.24914
 30
0.0
 40
0
 41
0
  0
SEQEND
 8
0
  0
POLYLINE
  8
0
 62
     0
 66
     1
 10
0
 20
0
 30
0.0
 70
     1
 40
0.75
 41
0.75
  0
VERTEX
  8
0
 10
5.92854
 20
2.24914
 30
0.0
 40
0.0104167
 41
0.0104167
  0
VERTEX
  8
0
 10
7.45638
 20
2.24914
 30
0.0
 40
0.0104167
 41
0.0104167
  0
VERTEX
  8
0
 10
7.45638
 20
1.93978
 30
0.0
 40
0.0104167
 41
0.0104167
  0
VERTEX
  8
0
 10
5.92854
 20
1.93978
 30
0.0
 40
0.0104167
 41
0.0104167
  0
VERTEX
  8
0
 10
5.92854
 20
2.24914
 30
0.0
 40
0.0104167
 41
0.0104167
  0
SEQEND
 8
0
  0
POLYLINE
  8
0
 62
     7
 66
     1
 10
0
 20
0
 30
0.0
 70
     1
 40
0
 41
0
  0
VERTEX
  8
0
 10
5.92854
 20
2.24914
 30
0.0
 40
0
 41
0
  0
VERTEX
  8
0
 10
7.45638
 20
2.24914
 30
0.0
 40
0
 41
0
  0
VERTEX
  8
0
 10
7.45638
 20
1.93978
 30
0.0
 40
0
 41
0
  0
VERTEX
  8
0
 10
5.92854
 20
1.93978
 30
0.0
 40
0
 41
0
  0
VERTEX
  8
0
 10
5.92854
 20
2.24914
 30
0.0
 40
0
 41
0
  0
SEQEND
 8
0
  0
POLYLINE
  8
0
 62
     0
 66
     1
 10
0
 20
0
 30
0.0
 70
     1
 40
0.75
 41
0.75
  0
VERTEX
  8
0
 10
5.92854
 20
2.24914
 30
0.0
 40
0.0104167
 41
0.0104167
  0
VERTEX
  8
0
 10
7.45638
 20
2.24914
 30
0.0
 40
0.0104167
 41
0.0104167
  0
VERTEX
  8
0
 10
7.45638
 20
1.93978
 30
0.0
 40
0.0104167
 41
0.0104167
  0
VERTEX
  8
0
 10
5.92854
 20
1.93978
 30
0.0
 40
0.0104167
 41
0.0104167
  0
VERTEX
  8
0
 10
5.92854
 20
2.24914
 30
0.0
 40
0.0104167
 41
0.0104167
  0
SEQEND
 8
0
  0
POLYLINE
  8
0
 62
     0
 66
     1
 10
0
 20
0
 30
0.0
 40
0.75
 41
0.75
  0
VERTEX
  8
0
 10
7.37825
 20
2.09446
 30
0.0
 40
0.0104167
 41
0.0104167
  0
VERTEX
  8
0
 10
6.00672
 20
2.09446
 30
0.0
 40
0.0104167
 41
0.0104167
  0
SEQEND
 8
0
  0
POLYLINE
  8
0
 62
     0
 66
     1
 10
0
 20
0
 30
0.0
 40
0.75
 41
0.75
  0
VERTEX
  8
0
 10
7.37825
 20
1.93978
 30
0.0
 40
0.0104167
 41
0.0104167
  0
VERTEX
  8
0
 10
7.37825
 20
2.24918
 30
0.0
 40
0.0104167
 41
0.0104167
  0
SEQEND
 8
0
  0
POLYLINE
  8
0
 62
     0
 66
     1
 10
0
 20
0
 30
0.0
 40
0.75
 41
0.75
  0
VERTEX
  8
0
 10
6.00672
 20
1.93978
 30
0.0
 40
0.0104167
 41
0.0104167
  0
VERTEX
  8
0
 10
6.00672
 20
2.24918
 30
0.0
 40
0.0104167
 41
0.0104167
  0
SEQEND
 8
0
  0
POLYLINE
  8
0
 62
     7
 66
     1
 10
0
 20
0
 30
0.0
 70
     1
 40
0
 41
0
  0
VERTEX
  8
0
 10
1.36865
 20
2.24914
 30
0.0
 40
0
 41
0
  0
VERTEX
  8
0
 10
2.85101
 20
2.24914
 30
0.0
 40
0
 41
0
  0
VERTEX
  8
0
 10
2.85101
 20
1.93978
 30
0.0
 40
0
 41
0
  0
VERTEX
  8
0
 10
1.36865
 20
1.93978
 30
0.0
 40
0
 41
0
  0
VERTEX
  8
0
 10
1.36865
 20
2.24914
 30
0.0
 40
0
 41
0
  0
SEQEND
 8
0
  0
POLYLINE
  8
0
 62
     0
 66
     1
 10
0
 20
0
 30
0.0
 70
     1
 40
0.75
 41
0.75
  0
VERTEX
  8
0
 10
1.36865
 20
2.24914
 30
0.0
 40
0.0104167
 41
0.0104167
  0
VERTEX
  8
0
 10
2.85101
 20
2.24914
 30
0.0
 40
0.0104167
 41
0.0104167
  0
VERTEX
  8
0
 10
2.85101
 20
1.93978
 30
0.0
 40
0.0104167
 41
0.0104167
  0
VERTEX
  8
0
 10
1.36865
 20
1.93978
 30
0.0
 40
0.0104167
 41
0.0104167
  0
VERTEX
  8
0
 10
1.36865
 20
2.24914
 30
0.0
 40
0.0104167
 41
0.0104167
  0
SEQEND
 8
0
  0
POLYLINE
  8
0
 62
     7
 66
     1
 10
0
 20
0
 30
0.0
 70
     1
 40
0
 41
0
  0
VERTEX
  8
0
 10
1.36865
 20
2.24914
 30
0.0
 40
0
 41
0
  0
VERTEX
  8
0
 10
2.85101
 20
2.24914
 30
0.0
 40
0
 41
0
  0
VERTEX
  8
0
 10
2.85101
 20
1.93978
 30
0.0
 40
0
 41
0
  0
VERTEX
  8
0
 10
1.36865
 20
1.93978
 30
0.0
 40
0
 41
0
  0
VERTEX
  8
0
 10
1.36865
 20
2.24914
 30
0.0
 40
0
 41
0
  0
SEQEND
 8
0
  0
POLYLINE
  8
0
 62
     0
 66
     1
 10
0
 20
0
 30
0.0
 70
     1
 40
0.75
 41
0.75
  0
VERTEX
  8
0
 10
1.36865
 20
2.24914
 30
0.0
 40
0.0104167
 41
0.0104167
  0
VERTEX
  8
0
 10
2.85101
 20
2.24914
 30
0.0
 40
0.0104167
 41
0.0104167
  0
VERTEX
  8
0
 10
2.85101
 20
1.93978
 30
0.0
 40
0.0104167
 41
0.0104167
  0
VERTEX
  8
0
 10
1.36865
 20
1.93978
 30
0.0
 40
0.0104167
 41
0.0104167
  0
VERTEX
  8
0
 10
1.36865
 20
2.24914
 30
0.0
 40
0.0104167
 41
0.0104167
  0
SEQEND
 8
0
  0
POLYLINE
  8
0
 62
     0
 66
     1
 10
0
 20
0
 30
0.0
 40
0.75
 41
0.75
  0
VERTEX
  8
0
 10
2.77289
 20
2.09446
 30
0.0
 40
0.0104167
 41
0.0104167
  0
VERTEX
  8
0
 10
1.44678
 20
2.09446
 30
0.0
 40
0.0104167
 41
0.0104167
  0
SEQEND
 8
0
  0
POLYLINE
  8
0
 62
     0
 66
     1
 10
0
 20
0
 30
0.0
 40
0.75
 41
0.75
  0
VERTEX
  8
0
 10
2.77289
 20
1.93978
 30
0.0
 40
0.0104167
 41
0.0104167
  0
VERTEX
  8
0
 10
2.77289
 20
2.24918
 30
0.0
 40
0.0104167
 41
0.0104167
  0
SEQEND
 8
0
  0
POLYLINE
  8
0
 62
     0
 66
     1
 10
0
 20
0
 30
0.0
 40
0.75
 41
0.75
  0
VERTEX
  8
0
 10
1.44678
 20
1.93978
 30
0.0
 40
0.0104167
 41
0.0104167
  0
VERTEX
  8
0
 10
1.44678
 20
2.24918
 30
0.0
 40
0.0104167
 41
0.0104167
  0
SEQEND
 8
0
  0
POLYLINE
  8
0
 62
     7
 66
     1
 10
0
 20
0
 30
0.0
 70
     1
 40
0
 41
0
  0
VERTEX
  8
0
 10
4.38769
 20
2.24914
 30
0.0
 40
0
 41
0
  0
VERTEX
  8
0
 10
5.2424
 20
2.24914
 30
0.0
 40
0
 41
0
  0
VERTEX
  8
0
 10
5.2424
 20
1.93978
 30
0.0
 40
0
 41
0
  0
VERTEX
  8
0
 10
4.38769
 20
1.93978
 30
0.0
 40
0
 41
0
  0
VERTEX
  8
0
 10
4.38769
 20
2.24914
 30
0.0
 40
0
 41
0
  0
SEQEND
 8
0
  0
POLYLINE
  8
0
 62
     0
 66
     1
 10
0
 20
0
 30
0.0
 70
     1
 40
0.75
 41
0.75
  0
VERTEX
  8
0
 10
4.38769
 20
2.24914
 30
0.0
 40
0.0104167
 41
0.0104167
  0
VERTEX
  8
0
 10
5.2424
 20
2.24914
 30
0.0
 40
0.0104167
 41
0.0104167
  0
VERTEX
  8
0
 10
5.2424
 20
1.93978
 30
0.0
 40
0.0104167
 41
0.0104167
  0
VERTEX
  8
0
 10
4.38769
 20
1.93978
 30
0.0
 40
0.0104167
 41
0.0104167
  0
VERTEX
  8
0
 10
4.38769
 20
2.24914
 30
0.0
 40
0.0104167
 41
0.0104167
  0
SEQEND
 8
0
  0
POLYLINE
  8
0
 62
     7
 66
     1
 10
0
 20
0
 30
0.0
 70
     1
 40
0
 41
0
  0
VERTEX
  8
0
 10
4.38769
 20
2.24914
 30
0.0
 40
0
 41
0
  0
VERTEX
  8
0
 10
5.2424
 20
2.24914
 30
0.0
 40
0
 41
0
  0
VERTEX
  8
0
 10
5.2424
 20
1.93978
 30
0.0
 40
0
 41
0
  0
VERTEX
  8
0
 10
4.38769
 20
1.93978
 30
0.0
 40
0
 41
0
  0
VERTEX
  8
0
 10
4.38769
 20
2.24914
 30
0.0
 40
0
 41
0
  0
SEQEND
 8
0
  0
POLYLINE
  8
0
 62
     0
 66
     1
 10
0
 20
0
 30
0.0
 70
     1
 40
0.75
 41
0.75
  0
VERTEX
  8
0
 10
4.38769
 20
2.24914
 30
0.0
 40
0.0104167
 41
0.0104167
  0
VERTEX
  8
0
 10
5.2424
 20
2.24914
 30
0.0
 40
0.0104167
 41
0.0104167
  0
VERTEX
  8
0
 10
5.2424
 20
1.93978
 30
0.0
 40
0.0104167
 41
0.0104167
  0
VERTEX
  8
0
 10
4.38769
 20
1.93978
 30
0.0
 40
0.0104167
 41
0.0104167
  0
VERTEX
  8
0
 10
4.38769
 20
2.24914
 30
0.0
 40
0.0104167
 41
0.0104167
  0
SEQEND
 8
0
  0
POLYLINE
  8
0
 62
     0
 66
     1
 10
0
 20
0
 30
0.0
 70
     1
 40
0.75
 41
0.75
  0
VERTEX
  8
0
 10
5.2424
 20
1.93978
 30
0.0
 40
0.0104167
 41
0.0104167
  0
VERTEX
  8
0
 10
5.2424
 20
1.88971
 30
0.0
 40
0.0104167
 41
0.0104167
  0
VERTEX
  8
0
 10
5.229
 20
1.73947
 30
0.0
 40
0.0104167
 41
0.0104167
  0
VERTEX
  8
0
 10
5.18896
 20
1.56592
 30
0.0
 40
0.0104167
 41
0.0104167
  0
VERTEX
  8
0
 10
5.12218
 20
1.419
 30
0.0
 40
0.0104167
 41
0.0104167
  0
VERTEX
  8
0
 10
5.02869
 20
1.29883
 30
0.0
 40
0.0104167
 41
0.0104167
  0
VERTEX
  8
0
 10
4.90853
 20
1.20535
 30
0.0
 40
0.0104167
 41
0.0104167
  0
VERTEX
  8
0
 10
4.76167
 20
1.13862
 30
0.0
 40
0.0104167
 41
0.0104167
  0
VERTEX
  8
0
 10
4.58806
 20
1.09858
 30
0.0
 40
0.0104167
 41
0.0104167
  0
VERTEX
  8
0
 10
4.43782
 20
1.08518
 30
0.0
 40
0.0104167
 41
0.0104167
  0
VERTEX
  8
0
 10
4.38781
 20
1.08518
 30
0.0
 40
0.0104167
 41
0.0104167
  0
VERTEX
  8
0
 10
4.38781
 20
1.93978
 30
0.0
 40
0.0104167
 41
0.0104167
  0
VERTEX
  8
0
 10
5.2424
 20
1.93978
 30
0.0
 40
0.0104167
 41
0.0104167
  0
SEQEND
 8
0
  0
POLYLINE
  8
0
 62
     0
 66
     1
 10
0
 20
0
 30
0.0
 70
     1
 40
0
 41
0
  0
VERTEX
  8
0
 10
0.478624
 20
2.15994
 30
0.0
 40
0
 41
0
  0
VERTEX
  8
0
 10
0.478624
 20
11.622
 30
0.0
 40
0
 41
0
  0
VERTEX
  8
0
 10
0.70779
 20
11.3303
 30
0.0
 40
0
 41
0
  0
VERTEX
  8
0
 10
0.70779
 20
2.15994
 30
0.0
 40
0
 41
0
  0
VERTEX
  8
0
 10
0.478624
 20
2.15994
 30
0.0
 40
0
 41
0
  0
SEQEND
 8
0
  0
POLYLINE
  8
0
 62
     0
 66
     1
 10
0
 20
0
 30
0.0
 70
     1
 40
0.15
 41
0.15
  0
VERTEX
  8
0
 10
0.478624
 20
2.15994
 30
0.0
 40
0.00208333
 41
0.00208333
  0
VERTEX
  8
0
 10
0.478624
 20
11.622
 30
0.0
 40
0.00208333
 41
0.00208333
  0
VERTEX
  8
0
 10
0.70779
 20
11.3303
 30
0.0
 40
0.00208333
 41
0.00208333
  0
VERTEX
  8
0
 10
0.70779
 20
2.15994
 30
0.0
 40
0.00208333
 41
0.00208333
  0
VERTEX
  8
0
 10
0.478624
 20
2.15994
 30
0.0
 40
0.00208333
 41
0.00208333
  0
SEQEND
 8
0
  0
POLYLINE
  8
0
 62
     0
 66
     1
 10
0
 20
0
 30
0.0
 70
     1
 40
0
 41
0
  0
VERTEX
  8
0
 10
5.31125
 20
11.622
 30
0.0
 40
0
 41
0
  0
VERTEX
  8
0
 10
5.44667
 20
11.622
 30
0.0
 40
0
 41
0
  0
VERTEX
  8
0
 10
5.44667
 20
1.93978
 30
0.0
 40
0
 41
0
  0
VERTEX
  8
0
 10
5.31125
 20
1.93978
 30
0.0
 40
0
 41
0
  0
VERTEX
  8
0
 10
5.31125
 20
11.622
 30
0.0
 40
0
 41
0
  0
SEQEND
 8
0
  0
POLYLINE
  8
0
 62
     0
 66
     1
 10
0
 20
0
 30
0.0
 70
     1
 40
0.15
 41
0.15
  0
VERTEX
  8
0
 10
5.31125
 20
11.622
 30
0.0
 40
0.00208333
 41
0.00208333
  0
VERTEX
  8
0
 10
5.44667
 20
11.622
 30
0.0
 40
0.00208333
 41
0.00208333
  0
VERTEX
  8
0
 10
5.44667
 20
1.93978
 30
0.0
 40
0.00208333
 41
0.00208333
  0
VERTEX
  8
0
 10
5.31125
 20
1.93978
 30
0.0
 40
0.00208333
 41
0.00208333
  0
VERTEX
  8
0
 10
5.31125
 20
11.622
 30
0.0
 40
0.00208333
 41
0.00208333
  0
SEQEND
 8
0
  0
POLYLINE
  8
0
 62
     7
 66
     1
 10
0
 20
0
 30
0.0
 70
     1
 40
0
 41
0
  0
VERTEX
  8
0
 10
5.31125
 20
5.42236
 30
0.0
 40
0
 41
0
  0
VERTEX
  8
0
 10
5.44667
 20
5.42236
 30
0.0
 40
0
 41
0
  0
VERTEX
  8
0
 10
5.44667
 20
4.59901
 30
0.0
 40
0
 41
0
  0
VERTEX
  8
0
 10
5.31125
 20
4.59901
 30
0.0
 40
0
 41
0
  0
VERTEX
  8
0
 10
5.31125
 20
5.42236
 30
0.0
 40
0
 41
0
  0
SEQEND
 8
0
  0
POLYLINE
  8
0
 62
     0
 66
     1
 10
0
 20
0
 30
0.0
 70
     1
 40
0.75
 41
0.75
  0
VERTEX
  8
0
 10
5.31125
 20
5.42236
 30
0.0
 40
0.0104167
 41
0.0104167
  0
VERTEX
  8
0
 10
5.44667
 20
5.42236
 30
0.0
 40
0.0104167
 41
0.0104167
  0
VERTEX
  8
0
 10
5.44667
 20
4.59901
 30
0.0
 40
0.0104167
 41
0.0104167
  0
VERTEX
  8
0
 10
5.31125
 20
4.59901
 30
0.0
 40
0.0104167
 41
0.0104167
  0
VERTEX
  8
0
 10
5.31125
 20
5.42236
 30
0.0
 40
0.0104167
 41
0.0104167
  0
SEQEND
 8
0
  0
POLYLINE
  8
0
 62
     7
 66
     1
 10
0
 20
0
 30
0.0
 70
     1
 40
0
 41
0
  0
VERTEX
  8
0
 10
5.31125
 20
5.42236
 30
0.0
 40
0
 41
0
  0
VERTEX
  8
0
 10
5.44667
 20
5.42236
 30
0.0
 40
0
 41
0
  0
VERTEX
  8
0
 10
5.44667
 20
4.59901
 30
0.0
 40
0
 41
0
  0
VERTEX
  8
0
 10
5.31125
 20
4.59901
 30
0.0
 40
0
 41
0
  0
VERTEX
  8
0
 10
5.31125
 20
5.42236
 30
0.0
 40
0
 41
0
  0
SEQEND
 8
0
  0
POLYLINE
  8
0
 62
     0
 66
     1
 10
0
 20
0
 30
0.0
 70
     1
 40
0.75
 41
0.75
  0
VERTEX
  8
0
 10
5.31125
 20
5.42236
 30
0.0
 40
0.0104167
 41
0.0104167
  0
VERTEX
  8
0
 10
5.44667
 20
5.42236
 30
0.0
 40
0.0104167
 41
0.0104167
  0
VERTEX
  8
0
 10
5.44667
 20
4.59901
 30
0.0
 40
0.0104167
 41
0.0104167
  0
VERTEX
  8
0
 10
5.31125
 20
4.59901
 30
0.0
 40
0.0104167
 41
0.0104167
  0
VERTEX
  8
0
 10
5.31125
 20
5.42236
 30
0.0
 40
0.0104167
 41
0.0104167
  0
SEQEND
 8
0
  0
POLYLINE
  8
0
 62
     0
 66
     1
 10
0
 20
0
 30
0.0
 70
     1
 40
0.75
 41
0.75
  0
VERTEX
  8
0
 10
5.44667
 20
4.59901
 30
0.0
 40
0.0104167
 41
0.0104167
  0
VERTEX
  8
0
 10
5.4949
 20
4.59901
 30
0.0
 40
0.0104167
 41
0.0104167
  0
VERTEX
  8
0
 10
5.6396
 20
4.61193
 30
0.0
 40
0.0104167
 41
0.0104167
  0
VERTEX
  8
0
 10
5.80686
 20
4.6505
 30
0.0
 40
0.0104167
 41
0.0104167
  0
VERTEX
  8
0
 10
5.94835
 20
4.71485
 30
0.0
 40
0.0104167
 41
0.0104167
  0
VERTEX
  8
0
 10
6.06413
 20
4.8049
 30
0.0
 40
0.0104167
 41
0.0104167
  0
VERTEX
  8
0
 10
6.15419
 20
4.92068
 30
0.0
 40
0.0104167
 41
0.0104167
  0
VERTEX
  8
0
 10
6.21853
 20
5.06218
 30
0.0
 40
0.0104167
 41
0.0104167
  0
VERTEX
  8
0
 10
6.25711
 20
5.22944
 30
0.0
 40
0.0104167
 41
0.0104167
  0
VERTEX
  8
0
 10
6.27001
 20
5.37414
 30
0.0
 40
0.0104167
 41
0.0104167
  0
VERTEX
  8
0
 10
6.27001
 20
5.42236
 30
0.0
 40
0.0104167
 41
0.0104167
  0
VERTEX
  8
0
 10
5.44667
 20
5.42236
 30
0.0
 40
0.0104167
 41
0.0104167
  0
VERTEX
  8
0
 10
5.44667
 20
4.59901
 30
0.0
 40
0.0104167
 41
0.0104167
  0
SEQEND
 8
0
  0
POLYLINE
  8
0
 62
     7
 66
     1
 10
0
 20
0
 30
0.0
 70
     1
 40
0
 41
0
  0
VERTEX
  8
0
 10
5.31125
 20
7.10796
 30
0.0
 40
0
 41
0
  0
VERTEX
  8
0
 10
5.44667
 20
7.10796
 30
0.0
 40
0
 41
0
  0
VERTEX
  8
0
 10
5.44667
 20
6.34164
 30
0.0
 40
0
 41
0
  0
VERTEX
  8
0
 10
5.31125
 20
6.34164
 30
0.0
 40
0
 41
0
  0
VERTEX
  8
0
 10
5.31125
 20
7.10796
 30
0.0
 40
0
 41
0
  0
SEQEND
 8
0
  0
POLYLINE
  8
0
 62
     0
 66
     1
 10
0
 20
0
 30
0.0
 70
     1
 40
0.75
 41
0.75
  0
VERTEX
  8
0
 10
5.31125
 20
7.10796
 30
0.0
 40
0.0104167
 41
0.0104167
  0
VERTEX
  8
0
 10
5.44667
 20
7.10796
 30
0.0
 40
0.0104167
 41
0.0104167
  0
VERTEX
  8
0
 10
5.44667
 20
6.34164
 30
0.0
 40
0.0104167
 41
0.0104167
  0
VERTEX
  8
0
 10
5.31125
 20
6.34164
 30
0.0
 40
0.0104167
 41
0.0104167
  0
VERTEX
  8
0
 10
5.31125
 20
7.10796
 30
0.0
 40
0.0104167
 41
0.0104167
  0
SEQEND
 8
0
  0
POLYLINE
  8
0
 62
     7
 66
     1
 10
0
 20
0
 30
0.0
 70
     1
 40
0
 41
0
  0
VERTEX
  8
0
 10
5.31125
 20
7.10796
 30
0.0
 40
0
 41
0
  0
VERTEX
  8
0
 10
5.44667
 20
7.10796
 30
0.0
 40
0
 41
0
  0
VERTEX
  8
0
 10
5.44667
 20
6.34164
 30
0.0
 40
0
 41
0
  0
VERTEX
  8
0
 10
5.31125
 20
6.34164
 30
0.0
 40
0
 41
0
  0
VERTEX
  8
0
 10
5.31125
 20
7.10796
 30
0.0
 40
0
 41
0
  0
SEQEND
 8
0
  0
POLYLINE
  8
0
 62
     0
 66
     1
 10
0
 20
0
 30
0.0
 70
     1
 40
0.75
 41
0.75
  0
VERTEX
  8
0
 10
5.31125
 20
7.10796
 30
0.0
 40
0.0104167
 41
0.0104167
  0
VERTEX
  8
0
 10
5.44667
 20
7.10796
 30
0.0
 40
0.0104167
 41
0.0104167
  0
VERTEX
  8
0
 10
5.44667
 20
6.34164
 30
0.0
 40
0.0104167
 41
0.0104167
  0
VERTEX
  8
0
 10
5.31125
 20
6.34164
 30
0.0
 40
0.0104167
 41
0.0104167
  0
VERTEX
  8
0
 10
5.31125
 20
7.10796
 30
0.0
 40
0.0104167
 41
0.0104167
  0
SEQEND
 8
0
  0
POLYLINE
  8
0
 62
     0
 66
     1
 10
0
 20
0
 30
0.0
 70
     1
 40
0.75
 41
0.75
  0
VERTEX
  8
0
 10
5.31125
 20
6.34164
 30
0.0
 40
0.0104167
 41
0.0104167
  0
VERTEX
  8
0
 10
5.26633
 20
6.34164
 30
0.0
 40
0.0104167
 41
0.0104167
  0
VERTEX
  8
0
 10
5.13162
 20
6.35363
 30
0.0
 40
0.0104167
 41
0.0104167
  0
VERTEX
  8
0
 10
4.97597
 20
6.38954
 30
0.0
 40
0.0104167
 41
0.0104167
  0
VERTEX
  8
0
 10
4.84424
 20
6.44943
 30
0.0
 40
0.0104167
 41
0.0104167
  0
VERTEX
  8
0
 10
4.73649
 20
6.53326
 30
0.0
 40
0.0104167
 41
0.0104167
  0
VERTEX
  8
0
 10
4.65267
 20
6.641
 30
0.0
 40
0.0104167
 41
0.0104167
  0
VERTEX
  8
0
 10
4.59278
 20
6.77274
 30
0.0
 40
0.0104167
 41
0.0104167
  0
VERTEX
  8
0
 10
4.55686
 20
6.92839
 30
0.0
 40
0.0104167
 41
0.0104167
  0
VERTEX
  8
0
 10
4.54492
 20
7.0631
 30
0.0
 40
0.0104167
 41
0.0104167
  0
VERTEX
  8
0
 10
4.54492
 20
7.10796
 30
0.0
 40
0.0104167
 41
0.0104167
  0
VERTEX
  8
0
 10
5.31125
 20
7.10796
 30
0.0
 40
0.0104167
 41
0.0104167
  0
VERTEX
  8
0
 10
5.31125
 20
6.34164
 30
0.0
 40
0.0104167
 41
0.0104167
  0
SEQEND
 8
0
  0
POLYLINE
  8
0
 62
     7
 66
     1
 10
0
 20
0
 30
0.0
 70
     1
 40
0
 41
0
  0
VERTEX
  8
0
 10
5.31125
 20
9.87446
 30
0.0
 40
0
 41
0
  0
VERTEX
  8
0
 10
5.44667
 20
9.87446
 30
0.0
 40
0
 41
0
  0
VERTEX
  8
0
 10
5.44667
 20
8.8061
 30
0.0
 40
0
 41
0
  0
VERTEX
  8
0
 10
5.31125
 20
8.8061
 30
0.0
 40
0
 41
0
  0
VERTEX
  8
0
 10
5.31125
 20
9.87446
 30
0.0
 40
0
 41
0
  0
SEQEND
 8
0
  0
POLYLINE
  8
0
 62
     0
 66
     1
 10
0
 20
0
 30
0.0
 70
     1
 40
0.75
 41
0.75
  0
VERTEX
  8
0
 10
5.31125
 20
9.87446
 30
0.0
 40
0.0104167
 41
0.0104167
  0
VERTEX
  8
0
 10
5.44667
 20
9.87446
 30
0.0
 40
0.0104167
 41
0.0104167
  0
VERTEX
  8
0
 10
5.44667
 20
8.8061
 30
0.0
 40
0.0104167
 41
0.0104167
  0
VERTEX
  8
0
 10
5.31125
 20
8.8061
 30
0.0
 40
0.0104167
 41
0.0104167
  0
VERTEX
  8
0
 10
5.31125
 20
9.87446
 30
0.0
 40
0.0104167
 41
0.0104167
  0
SEQEND
 8
0
  0
POLYLINE
  8
0
 62
     7
 66
     1
 10
0
 20
0
 30
0.0
 70
     1
 40
0
 41
0
  0
VERTEX
  8
0
 10
5.31125
 20
9.87446
 30
0.0
 40
0
 41
0
  0
VERTEX
  8
0
 10
5.44667
 20
9.87446
 30
0.0
 40
0
 41
0
  0
VERTEX
  8
0
 10
5.44667
 20
8.8061
 30
0.0
 40
0
 41
0
  0
VERTEX
  8
0
 10
5.31125
 20
8.8061
 30
0.0
 40
0
 41
0
  0
VERTEX
  8
0
 10
5.31125
 20
9.87446
 30
0.0
 40
0
 41
0
  0
SEQEND
 8
0
  0
POLYLINE
  8
0
 62
     7
 66
     1
 10
0
 20
0
 30
0.0
 70
     1
 40
0.75
 41
0.75
  0
VERTEX
  8
0
 10
5.31125
 20
9.87446
 30
0.0
 40
0.0104167
 41
0.0104167
  0
VERTEX
  8
0
 10
5.44667
 20
9.87446
 30
0.0
 40
0.0104167
 41
0.0104167
  0
VERTEX
  8
0
 10
5.44667
 20
8.8061
 30
0.0
 40
0.0104167
 41
0.0104167
  0
VERTEX
  8
0
 10
5.31125
 20
8.8061
 30
0.0
 40
0.0104167
 41
0.0104167
  0
VERTEX
  8
0
 10
5.31125
 20
9.87446
 30
0.0
 40
0.0104167
 41
0.0104167
  0
SEQEND
 8
0
  0
POLYLINE
  8
0
 62
     7
 66
     1
 10
0
 20
0
 30
0.0
 70
     1
 40
0
 41
0
  0
VERTEX
  8
0
 10
5.48833
 20
10.4086
 30
0.0
 40
0
 41
0
  0
VERTEX
  8
0
 10
5.53
 20
10.4086
 30
0.0
 40
0
 41
0
  0
VERTEX
  8
0
 10
5.53
 20
9.34028
 30
0.0
 40
0
 41
0
  0
VERTEX
  8
0
 10
5.48833
 20
9.34028
 30
0.0
 40
0
 41
0
  0
VERTEX
  8
0
 10
5.48833
 20
10.4086
 30
0.0
 40
0
 41
0
  0
SEQEND
 8
0
  0
POLYLINE
  8
0
 62
     0
 66
     1
 10
0
 20
0
 30
0.0
 70
     1
 40
0.75
 41
0.75
  0
VERTEX
  8
0
 10
5.48833
 20
10.4086
 30
0.0
 40
0.0104167
 41
0.0104167
  0
VERTEX
  8
0
 10
5.53
 20
10.4086
 30
0.0
 40
0.0104167
 41
0.0104167
  0
VERTEX
  8
0
 10
5.53
 20
9.34028
 30
0.0
 40
0.0104167
 41
0.0104167
  0
VERTEX
  8
0
 10
5.48833
 20
9.34028
 30
0.0
 40
0.0104167
 41
0.0104167
  0
VERTEX
  8
0
 10
5.48833
 20
10.4086
 30
0.0
 40
0.0104167
 41
0.0104167
  0
SEQEND
 8
0
  0
POLYLINE
  8
0
 62
     0
 66
     1
 10
0
 20
0
 30
0.0
 70
     1
 40
0
 41
0
  0
VERTEX
  8
0
 10
5.31125
 20
8.02713
 30
0.0
 40
0
 41
0
  0
VERTEX
  8
0
 10
9.20638
 20
8.02713
 30
0.0
 40
0
 41
0
  0
VERTEX
  8
0
 10
9.20638
 20
7.92296
 30
0.0
 40
0
 41
0
  0
VERTEX
  8
0
 10
5.31125
 20
7.92296
 30
0.0
 40
0
 41
0
  0
VERTEX
  8
0
 10
5.31125
 20
8.02713
 30
0.0
 40
0
 41
0
  0
SEQEND
 8
0
  0
POLYLINE
  8
0
 62
     0
 66
     1
 10
0
 20
0
 30
0.0
 70
     1
 40
0.15
 41
0.15
  0
VERTEX
  8
0
 10
5.31125
 20
8.02713
 30
0.0
 40
0.00208333
 41
0.00208333
  0
VERTEX
  8
0
 10
9.20638
 20
8.02713
 30
0.0
 40
0.00208333
 41
0.00208333
  0
VERTEX
  8
0
 10
9.20638
 20
7.92296
 30
0.0
 40
0.00208333
 41
0.00208333
  0
VERTEX
  8
0
 10
5.31125
 20
7.92296
 30
0.0
 40
0.00208333
 41
0.00208333
  0
VERTEX
  8
0
 10
5.31125
 20
8.02713
 30
0.0
 40
0.00208333
 41
0.00208333
  0
SEQEND
 8
0
  0
POLYLINE
  8
0
 62
     0
 66
     1
 10
0
 20
0
 30
0.0
 70
     1
 40
0
 41
0
  0
VERTEX
  8
0
 10
9.20638
 20
6.15246
 30
0.0
 40
0
 41
0
  0
VERTEX
  8
0
 10
7.2404
 20
6.15246
 30
0.0
 40
0
 41
0
  0
VERTEX
  8
0
 10
7.13624
 20
6.3209
 30
0.0
 40
0
 41
0
  0
VERTEX
  8
0
 10
9.20638
 20
6.3209
 30
0.0
 40
0
 41
0
  0
VERTEX
  8
0
 10
9.20638
 20
6.15246
 30
0.0
 40
0
 41
0
  0
SEQEND
 8
0
  0
POLYLINE
  8
0
 62
     0
 66
     1
 10
0
 20
0
 30
0.0
 70
     1
 40
0.15
 41
0.15
  0
VERTEX
  8
0
 10
9.20638
 20
6.15246
 30
0.0
 40
0.00208333
 41
0.00208333
  0
VERTEX
  8
0
 10
7.2404
 20
6.15246
 30
0.0
 40
0.00208333
 41
0.00208333
  0
VERTEX
  8
0
 10
7.13624
 20
6.3209
 30
0.0
 40
0.00208333
 41
0.00208333
  0
VERTEX
  8
0
 10
9.20638
 20
6.3209
 30
0.0
 40
0.00208333
 41
0.00208333
  0
VERTEX
  8
0
 10
9.20638
 20
6.15246
 30
0.0
 40
0.00208333
 41
0.00208333
  0
SEQEND
 8
0
  0
POLYLINE
  8
0
 62
     0
 66
     1
 10
0
 20
0
 30
0.0
 70
     1
 40
0
 41
0
  0
VERTEX
  8
0
 10
7.13624
 20
8.02713
 30
0.0
 40
0
 41
0
  0
VERTEX
  8
0
 10
7.27012
 20
8.02713
 30
0.0
 40
0
 41
0
  0
VERTEX
  8
0
 10
7.27012
 20
6.15246
 30
0.0
 40
0
 41
0
  0
VERTEX
  8
0
 10
7.13624
 20
6.15246
 30
0.0
 40
0
 41
0
  0
VERTEX
  8
0
 10
7.13624
 20
8.02713
 30
0.0
 40
0
 41
0
  0
SEQEND
 8
0
  0
POLYLINE
  8
0
 62
     0
 66
     1
 10
0
 20
0
 30
0.0
 70
     1
 40
0.15
 41
0.15
  0
VERTEX
  8
0
 10
7.13624
 20
8.02713
 30
0.0
 40
0.00208333
 41
0.00208333
  0
VERTEX
  8
0
 10
7.27012
 20
8.02713
 30
0.0
 40
0.00208333
 41
0.00208333
  0
VERTEX
  8
0
 10
7.27012
 20
6.15246
 30
0.0
 40
0.00208333
 41
0.00208333
  0
VERTEX
  8
0
 10
7.13624
 20
6.15246
 30
0.0
 40
0.00208333
 41
0.00208333
  0
VERTEX
  8
0
 10
7.13624
 20
8.02713
 30
0.0
 40
0.00208333
 41
0.00208333
  0
SEQEND
 8
0
  0
POLYLINE
  8
0
 62
     7
 66
     1
 10
0
 20
0
 30
0.0
 70
     1
 40
0
 41
0
  0
VERTEX
  8
0
 10
7.13624
 20
6.94092
 30
0.0
 40
0
 41
0
  0
VERTEX
  8
0
 10
7.27012
 20
6.94092
 30
0.0
 40
0
 41
0
  0
VERTEX
  8
0
 10
7.27012
 20
6.35476
 30
0.0
 40
0
 41
0
  0
VERTEX
  8
0
 10
7.13624
 20
6.35476
 30
0.0
 40
0
 41
0
  0
VERTEX
  8
0
 10
7.13624
 20
6.94092
 30
0.0
 40
0
 41
0
  0
SEQEND
 8
0
  0
POLYLINE
  8
0
 62
     0
 66
     1
 10
0
 20
0
 30
0.0
 70
     1
 40
0.75
 41
0.75
  0
VERTEX
  8
0
 10
7.13624
 20
6.94092
 30
0.0
 40
0.0104167
 41
0.0104167
  0
VERTEX
  8
0
 10
7.27012
 20
6.94092
 30
0.0
 40
0.0104167
 41
0.0104167
  0
VERTEX
  8
0
 10
7.27012
 20
6.35476
 30
0.0
 40
0.0104167
 41
0.0104167
  0
VERTEX
  8
0
 10
7.13624
 20
6.35476
 30
0.0
 40
0.0104167
 41
0.0104167
  0
VERTEX
  8
0
 10
7.13624
 20
6.94092
 30
0.0
 40
0.0104167
 41
0.0104167
  0
SEQEND
 8
0
  0
POLYLINE
  8
0
 62
     7
 66
     1
 10
0
 20
0
 30
0.0
 70
     1
 40
0
 41
0
  0
VERTEX
  8
0
 10
7.13624
 20
6.94092
 30
0.0
 40
0
 41
0
  0
VERTEX
  8
0
 10
7.27012
 20
6.94092
 30
0.0
 40
0
 41
0
  0
VERTEX
  8
0
 10
7.27012
 20
6.35476
 30
0.0
 40
0
 41
0
  0
VERTEX
  8
0
 10
7.13624
 20
6.35476
 30
0.0
 40
0
 41
0
  0
VERTEX
  8
0
 10
7.13624
 20
6.94092
 30
0.0
 40
0
 41
0
  0
SEQEND
 8
0
  0
POLYLINE
  8
0
 62
     0
 66
     1
 10
0
 20
0
 30
0.0
 70
     1
 40
0.75
 41
0.75
  0
VERTEX
  8
0
 10
7.13624
 20
6.94092
 30
0.0
 40
0.0104167
 41
0.0104167
  0
VERTEX
  8
0
 10
7.27012
 20
6.94092
 30
0.0
 40
0.0104167
 41
0.0104167
  0
VERTEX
  8
0
 10
7.27012
 20
6.35476
 30
0.0
 40
0.0104167
 41
0.0104167
  0
VERTEX
  8
0
 10
7.13624
 20
6.35476
 30
0.0
 40
0.0104167
 41
0.0104167
  0
VERTEX
  8
0
 10
7.13624
 20
6.94092
 30
0.0
 40
0.0104167
 41
0.0104167
  0
SEQEND
 8
0
  0
POLYLINE
  8
0
 62
     0
 66
     1
 10
0
 20
0
 30
0.0
 70
     1
 40
0.75
 41
0.75
  0
VERTEX
  8
0
 10
7.13624
 20
6.94092
 30
0.0
 40
0.0104167
 41
0.0104167
  0
VERTEX
  8
0
 10
7.10189
 20
6.94092
 30
0.0
 40
0.0104167
 41
0.0104167
  0
VERTEX
  8
0
 10
6.99886
 20
6.93181
 30
0.0
 40
0.0104167
 41
0.0104167
  0
VERTEX
  8
0
 10
6.87978
 20
6.90429
 30
0.0
 40
0.0104167
 41
0.0104167
  0
VERTEX
  8
0
 10
6.77903
 20
6.85851
 30
0.0
 40
0.0104167
 41
0.0104167
  0
VERTEX
  8
0
 10
6.69661
 20
6.79438
 30
0.0
 40
0.0104167
 41
0.0104167
  0
VERTEX
  8
0
 10
6.63254
 20
6.71197
 30
0.0
 40
0.0104167
 41
0.0104167
  0
VERTEX
  8
0
 10
6.58675
 20
6.61122
 30
0.0
 40
0.0104167
 41
0.0104167
  0
VERTEX
  8
0
 10
6.55925
 20
6.49214
 30
0.0
 40
0.0104167
 41
0.0104167
  0
VERTEX
  8
0
 10
6.55013
 20
6.38911
 30
0.0
 40
0.0104167
 41
0.0104167
  0
VERTEX
  8
0
 10
6.55013
 20
6.35476
 30
0.0
 40
0.0104167
 41
0.0104167
  0
VERTEX
  8
0
 10
7.13624
 20
6.35476
 30
0.0
 40
0.0104167
 41
0.0104167
  0
VERTEX
  8
0
 10
7.13624
 20
6.94092
 30
0.0
 40
0.0104167
 41
0.0104167
  0
SEQEND
 8
0
  0
POLYLINE
  8
0
 62
     0
 66
     1
 10
0
 20
0
 30
0.0
 70
     1
 40
0
 41
0
  0
VERTEX
  8
0
 10
7.13624
 20
6.3209
 30
0.0
 40
0
 41
0
  0
VERTEX
  8
0
 10
7.13624
 20
5.63807
 30
0.0
 40
0
 41
0
  0
VERTEX
  8
0
 10
7.2404
 20
5.57124
 30
0.0
 40
0
 41
0
  0
VERTEX
  8
0
 10
7.2404
 20
6.15246
 30
0.0
 40
0
 41
0
  0
VERTEX
  8
0
 10
7.13624
 20
6.3209
 30
0.0
 40
0
 41
0
  0
SEQEND
 8
0
  0
POLYLINE
  8
0
 62
     0
 66
     1
 10
0
 20
0
 30
0.0
 70
     1
 40
0.15
 41
0.15
  0
VERTEX
  8
0
 10
7.13624
 20
6.3209
 30
0.0
 40
0.00208333
 41
0.00208333
  0
VERTEX
  8
0
 10
7.13624
 20
5.63807
 30
0.0
 40
0.00208333
 41
0.00208333
  0
VERTEX
  8
0
 10
7.2404
 20
5.57124
 30
0.0
 40
0.00208333
 41
0.00208333
  0
VERTEX
  8
0
 10
7.2404
 20
6.15246
 30
0.0
 40
0.00208333
 41
0.00208333
  0
VERTEX
  8
0
 10
7.13624
 20
6.3209
 30
0.0
 40
0.00208333
 41
0.00208333
  0
SEQEND
 8
0
  0
POLYLINE
  8
0
 62
     0
 66
     1
 10
0
 20
0
 30
0.0
 70
     1
 40
0
 41
0
  0
VERTEX
  8
0
 10
7.13624
 20
5.63807
 30
0.0
 40
0
 41
0
  0
VERTEX
  8
0
 10
5.31125
 20
5.63807
 30
0.0
 40
0
 41
0
  0
VERTEX
  8
0
 10
5.31125
 20
5.57124
 30
0.0
 40
0
 41
0
  0
VERTEX
  8
0
 10
7.2404
 20
5.57124
 30
0.0
 40
0
 41
0
  0
VERTEX
  8
0
 10
7.13624
 20
5.63807
 30
0.0
 40
0
 41
0
  0
SEQEND
 8
0
  0
POLYLINE
  8
0
 62
     0
 66
     1
 10
0
 20
0
 30
0.0
 70
     1
 40
0.15
 41
0.15
  0
VERTEX
  8
0
 10
7.13624
 20
5.63807
 30
0.0
 40
0.00208333
 41
0.00208333
  0
VERTEX
  8
0
 10
5.31125
 20
5.63807
 30
0.0
 40
0.00208333
 41
0.00208333
  0
VERTEX
  8
0
 10
5.31125
 20
5.57124
 30
0.0
 40
0.00208333
 41
0.00208333
  0
VERTEX
  8
0
 10
7.2404
 20
5.57124
 30
0.0
 40
0.00208333
 41
0.00208333
  0
VERTEX
  8
0
 10
7.13624
 20
5.63807
 30
0.0
 40
0.00208333
 41
0.00208333
  0
SEQEND
 8
0
  0
POLYLINE
  8
0
 62
     0
 66
     1
 10
0
 20
0
 30
0.0
 70
     1
 40
0
 41
0
  0
VERTEX
  8
0
 10
3.67301
 20
1.93978
 30
0.0
 40
0
 41
0
  0
VERTEX
  8
0
 10
3.67301
 20
7.33464
 30
0.0
 40
0
 41
0
  0
VERTEX
  8
0
 10
3.55843
 20
7.22006
 30
0.0
 40
0
 41
0
  0
VERTEX
  8
0
 10
3.55843
 20
1.93978
 30
0.0
 40
0
 41
0
  0
VERTEX
  8
0
 10
3.67301
 20
1.93978
 30
0.0
 40
0
 41
0
  0
SEQEND
 8
0
  0
POLYLINE
  8
0
 62
     0
 66
     1
 10
0
 20
0
 30
0.0
 70
     1
 40
0.15
 41
0.15
  0
VERTEX
  8
0
 10
3.67301
 20
1.93978
 30
0.0
 40
0.00208333
 41
0.00208333
  0
VERTEX
  8
0
 10
3.67301
 20
7.33464
 30
0.0
 40
0.00208333
 41
0.00208333
  0
VERTEX
  8
0
 10
3.55843
 20
7.22006
 30
0.0
 40
0.00208333
 41
0.00208333
  0
VERTEX
  8
0
 10
3.55843
 20
1.93978
 30
0.0
 40
0.00208333
 41
0.00208333
  0
VERTEX
  8
0
 10
3.67301
 20
1.93978
 30
0.0
 40
0.00208333
 41
0.00208333
  0
SEQEND
 8
0
  0
POLYLINE
  8
0
 62
     7
 66
     1
 10
0
 20
0
 30
0.0
 70
     1
 40
0
 41
0
  0
VERTEX
  8
0
 10
3.55843
 20
7.13151
 30
0.0
 40
0
 41
0
  0
VERTEX
  8
0
 10
3.67301
 20
7.13151
 30
0.0
 40
0
 41
0
  0
VERTEX
  8
0
 10
3.67301
 20
6.58664
 30
0.0
 40
0
 41
0
  0
VERTEX
  8
0
 10
3.55843
 20
6.58664
 30
0.0
 40
0
 41
0
  0
VERTEX
  8
0
 10
3.55843
 20
7.13151
 30
0.0
 40
0
 41
0
  0
SEQEND
 8
0
  0
POLYLINE
  8
0
 62
     0
 66
     1
 10
0
 20
0
 30
0.0
 70
     1
 40
0.75
 41
0.75
  0
VERTEX
  8
0
 10
3.55843
 20
7.13151
 30
0.0
 40
0.0104167
 41
0.0104167
  0
VERTEX
  8
0
 10
3.67301
 20
7.13151
 30
0.0
 40
0.0104167
 41
0.0104167
  0
VERTEX
  8
0
 10
3.67301
 20
6.58664
 30
0.0
 40
0.0104167
 41
0.0104167
  0
VERTEX
  8
0
 10
3.55843
 20
6.58664
 30
0.0
 40
0.0104167
 41
0.0104167
  0
VERTEX
  8
0
 10
3.55843
 20
7.13151
 30
0.0
 40
0.0104167
 41
0.0104167
  0
SEQEND
 8
0
  0
POLYLINE
  8
0
 62
     7
 66
     1
 10
0
 20
0
 30
0.0
 70
     1
 40
0
 41
0
  0
VERTEX
  8
0
 10
3.55843
 20
7.13151
 30
0.0
 40
0
 41
0
  0
VERTEX
  8
0
 10
3.67301
 20
7.13151
 30
0.0
 40
0
 41
0
  0
VERTEX
  8
0
 10
3.67301
 20
6.58664
 30
0.0
 40
0
 41
0
  0
VERTEX
  8
0
 10
3.55843
 20
6.58664
 30
0.0
 40
0
 41
0
  0
VERTEX
  8
0
 10
3.55843
 20
7.13151
 30
0.0
 40
0
 41
0
  0
SEQEND
 8
0
  0
POLYLINE
  8
0
 62
     0
 66
     1
 10
0
 20
0
 30
0.0
 70
     1
 40
0.75
 41
0.75
  0
VERTEX
  8
0
 10
3.55843
 20
7.13151
 30
0.0
 40
0.0104167
 41
0.0104167
  0
VERTEX
  8
0
 10
3.67301
 20
7.13151
 30
0.0
 40
0.0104167
 41
0.0104167
  0
VERTEX
  8
0
 10
3.67301
 20
6.58664
 30
0.0
 40
0.0104167
 41
0.0104167
  0
VERTEX
  8
0
 10
3.55843
 20
6.58664
 30
0.0
 40
0.0104167
 41
0.0104167
  0
VERTEX
  8
0
 10
3.55843
 20
7.13151
 30
0.0
 40
0.0104167
 41
0.0104167
  0
SEQEND
 8
0
  0
POLYLINE
  8
0
 62
     0
 66
     1
 10
0
 20
0
 30
0.0
 70
     1
 40
0.75
 41
0.75
  0
VERTEX
  8
0
 10
3.67301
 20
6.58664
 30
0.0
 40
0.0104167
 41
0.0104167
  0
VERTEX
  8
0
 10
3.70492
 20
6.58664
 30
0.0
 40
0.0104167
 41
0.0104167
  0
VERTEX
  8
0
 10
3.80072
 20
6.59517
 30
0.0
 40
0.0104167
 41
0.0104167
  0
VERTEX
  8
0
 10
3.9114
 20
6.62071
 30
0.0
 40
0.0104167
 41
0.0104167
  0
VERTEX
  8
0
 10
4.00504
 20
6.66331
 30
0.0
 40
0.0104167
 41
0.0104167
  0
VERTEX
  8
0
 10
4.08171
 20
6.72288
 30
0.0
 40
0.0104167
 41
0.0104167
  0
VERTEX
  8
0
 10
4.14128
 20
6.79953
 30
0.0
 40
0.0104167
 41
0.0104167
  0
VERTEX
  8
0
 10
4.18386
 20
6.89318
 30
0.0
 40
0.0104167
 41
0.0104167
  0
VERTEX
  8
0
 10
4.20942
 20
7.00385
 30
0.0
 40
0.0104167
 41
0.0104167
  0
VERTEX
  8
0
 10
4.21793
 20
7.09961
 30
0.0
 40
0.0104167
 41
0.0104167
  0
VERTEX
  8
0
 10
4.21793
 20
7.13151
 30
0.0
 40
0.0104167
 41
0.0104167
  0
VERTEX
  8
0
 10
3.67301
 20
7.13151
 30
0.0
 40
0.0104167
 41
0.0104167
  0
VERTEX
  8
0
 10
3.67301
 20
6.58664
 30
0.0
 40
0.0104167
 41
0.0104167
  0
SEQEND
 8
0
  0
POLYLINE
  8
0
 62
     7
 66
     1
 10
0
 20
0
 30
0.0
 70
     1
 40
0
 41
0
  0
VERTEX
  8
0
 10
3.55843
 20
5.80588
 30
0.0
 40
0
 41
0
  0
VERTEX
  8
0
 10
3.67301
 20
5.80588
 30
0.0
 40
0
 41
0
  0
VERTEX
  8
0
 10
3.67301
 20
4.99821
 30
0.0
 40
0
 41
0
  0
VERTEX
  8
0
 10
3.55843
 20
4.99821
 30
0.0
 40
0
 41
0
  0
VERTEX
  8
0
 10
3.55843
 20
5.80588
 30
0.0
 40
0
 41
0
  0
SEQEND
 8
0
  0
POLYLINE
  8
0
 62
     0
 66
     1
 10
0
 20
0
 30
0.0
 70
     1
 40
0.75
 41
0.75
  0
VERTEX
  8
0
 10
3.55843
 20
5.80588
 30
0.0
 40
0.0104167
 41
0.0104167
  0
VERTEX
  8
0
 10
3.67301
 20
5.80588
 30
0.0
 40
0.0104167
 41
0.0104167
  0
VERTEX
  8
0
 10
3.67301
 20
4.99821
 30
0.0
 40
0.0104167
 41
0.0104167
  0
VERTEX
  8
0
 10
3.55843
 20
4.99821
 30
0.0
 40
0.0104167
 41
0.0104167
  0
VERTEX
  8
0
 10
3.55843
 20
5.80588
 30
0.0
 40
0.0104167
 41
0.0104167
  0
SEQEND
 8
0
  0
POLYLINE
  8
0
 62
     7
 66
     1
 10
0
 20
0
 30
0.0
 70
     1
 40
0
 41
0
  0
VERTEX
  8
0
 10
3.55843
 20
5.80588
 30
0.0
 40
0
 41
0
  0
VERTEX
  8
0
 10
3.67301
 20
5.80588
 30
0.0
 40
0
 41
0
  0
VERTEX
  8
0
 10
3.67301
 20
4.99821
 30
0.0
 40
0
 41
0
  0
VERTEX
  8
0
 10
3.55843
 20
4.99821
 30
0.0
 40
0
 41
0
  0
VERTEX
  8
0
 10
3.55843
 20
5.80588
 30
0.0
 40
0
 41
0
  0
SEQEND
 8
0
  0
POLYLINE
  8
0
 62
     0
 66
     1
 10
0
 20
0
 30
0.0
 70
     1
 40
0.75
 41
0.75
  0
VERTEX
  8
0
 10
3.55843
 20
5.80588
 30
0.0
 40
0.0104167
 41
0.0104167
  0
VERTEX
  8
0
 10
3.67301
 20
5.80588
 30
0.0
 40
0.0104167
 41
0.0104167
  0
VERTEX
  8
0
 10
3.67301
 20
4.99821
 30
0.0
 40
0.0104167
 41
0.0104167
  0
VERTEX
  8
0
 10
3.55843
 20
4.99821
 30
0.0
 40
0.0104167
 41
0.0104167
  0
VERTEX
  8
0
 10
3.55843
 20
5.80588
 30
0.0
 40
0.0104167
 41
0.0104167
  0
SEQEND
 8
0
  0
POLYLINE
  8
0
 62
     0
 66
     1
 10
0
 20
0
 30
0.0
 70
     1
 40
0.75
 41
0.75
  0
VERTEX
  8
0
 10
3.55843
 20
4.99821
 30
0.0
 40
0.0104167
 41
0.0104167
  0
VERTEX
  8
0
 10
3.51107
 20
4.99821
 30
0.0
 40
0.0104167
 41
0.0104167
  0
VERTEX
  8
0
 10
3.36908
 20
5.01085
 30
0.0
 40
0.0104167
 41
0.0104167
  0
VERTEX
  8
0
 10
3.20503
 20
5.04872
 30
0.0
 40
0.0104167
 41
0.0104167
  0
VERTEX
  8
0
 10
3.06619
 20
5.11182
 30
0.0
 40
0.0104167
 41
0.0104167
  0
VERTEX
  8
0
 10
2.95264
 20
5.20014
 30
0.0
 40
0.0104167
 41
0.0104167
  0
VERTEX
  8
0
 10
2.86426
 20
5.31375
 30
0.0
 40
0.0104167
 41
0.0104167
  0
VERTEX
  8
0
 10
2.80117
 20
5.45253
 30
0.0
 40
0.0104167
 41
0.0104167
  0
VERTEX
  8
0
 10
2.76329
 20
5.6166
 30
0.0
 40
0.0104167
 41
0.0104167
  0
VERTEX
  8
0
 10
2.75071
 20
5.75857
 30
0.0
 40
0.0104167
 41
0.0104167
  0
VERTEX
  8
0
 10
2.75071
 20
5.80588
 30
0.0
 40
0.0104167
 41
0.0104167
  0
VERTEX
  8
0
 10
3.55843
 20
5.80588
 30
0.0
 40
0.0104167
 41
0.0104167
  0
VERTEX
  8
0
 10
3.55843
 20
4.99821
 30
0.0
 40
0.0104167
 41
0.0104167
  0
SEQEND
 8
0
  0
POLYLINE
  8
0
 62
     0
 66
     1
 10
0
 20
0
 30
0.0
 70
     1
 40
0
 41
0
  0
VERTEX
  8
0
 10
3.67301
 20
7.33464
 30
0.0
 40
0
 41
0
  0
VERTEX
  8
0
 10
0.478624
 20
7.33464
 30
0.0
 40
0
 41
0
  0
VERTEX
  8
0
 10
0.478624
 20
7.22006
 30
0.0
 40
0
 41
0
  0
VERTEX
  8
0
 10
3.55843
 20
7.22006
 30
0.0
 40
0
 41
0
  0
VERTEX
  8
0
 10
3.67301
 20
7.33464
 30
0.0
 40
0
 41
0
  0
SEQEND
 8
0
  0
POLYLINE
  8
0
 62
     0
 66
     1
 10
0
 20
0
 30
0.0
 70
     1
 40
0.15
 41
0.15
  0
VERTEX
  8
0
 10
3.67301
 20
7.33464
 30
0.0
 40
0.00208333
 41
0.00208333
  0
VERTEX
  8
0
 10
0.478624
 20
7.33464
 30
0.0
 40
0.00208333
 41
0.00208333
  0
VERTEX
  8
0
 10
0.478624
 20
7.22006
 30
0.0
 40
0.00208333
 41
0.00208333
  0
VERTEX
  8
0
 10
3.55843
 20
7.22006
 30
0.0
 40
0.00208333
 41
0.00208333
  0
VERTEX
  8
0
 10
3.67301
 20
7.33464
 30
0.0
 40
0.00208333
 41
0.00208333
  0
SEQEND
 8
0
  0
POLYLINE
  8
0
 62
     0
 66
     1
 10
0
 20
0
 30
0.0
 70
     1
 40
0
 41
0
  0
VERTEX
  8
0
 10
0.478624
 20
5.97726
 30
0.0
 40
0
 41
0
  0
VERTEX
  8
0
 10
3.67301
 20
5.97726
 30
0.0
 40
0
 41
0
  0
VERTEX
  8
0
 10
3.67301
 20
5.8731
 30
0.0
 40
0
 41
0
  0
VERTEX
  8
0
 10
0.478624
 20
5.8731
 30
0.0
 40
0
 41
0
  0
VERTEX
  8
0
 10
0.478624
 20
5.97726
 30
0.0
 40
0
 41
0
  0
SEQEND
 8
0
  0
POLYLINE
  8
0
 62
     0
 66
     1
 10
0
 20
0
 30
0.0
 70
     1
 40
0.15
 41
0.15
  0
VERTEX
  8
0
 10
0.478624
 20
5.97726
 30
0.0
 40
0.00208333
 41
0.00208333
  0
VERTEX
  8
0
 10
3.67301
 20
5.97726
 30
0.0
 40
0.00208333
 41
0.00208333
  0
VERTEX
  8
0
 10
3.67301
 20
5.8731
 30
0.0
 40
0.00208333
 41
0.00208333
  0
VERTEX
  8
0
 10
0.478624
 20
5.8731
 30
0.0
 40
0.00208333
 41
0.00208333
  0
VERTEX
  8
0
 10
0.478624
 20
5.97726
 30
0.0
 40
0.00208333
 41
0.00208333
  0
SEQEND
 8
0
  0
POLYLINE
  8
0
 62
     7
 66
     1
 10
0
 20
0
 30
0.0
 70
     1
 40
0
 41
0
  0
VERTEX
  8
0
 10
1.33436
 20
5.97726
 30
0.0
 40
0
 41
0
  0
VERTEX
  8
0
 10
1.97478
 20
5.97726
 30
0.0
 40
0
 41
0
  0
VERTEX
  8
0
 10
1.97478
 20
5.8731
 30
0.0
 40
0
 41
0
  0
VERTEX
  8
0
 10
1.33436
 20
5.8731
 30
0.0
 40
0
 41
0
  0
VERTEX
  8
0
 10
1.33436
 20
5.97726
 30
0.0
 40
0
 41
0
  0
SEQEND
 8
0
  0
POLYLINE
  8
0
 62
     0
 66
     1
 10
0
 20
0
 30
0.0
 70
     1
 40
0.75
 41
0.75
  0
VERTEX
  8
0
 10
1.33436
 20
5.97726
 30
0.0
 40
0.0104167
 41
0.0104167
  0
VERTEX
  8
0
 10
1.97478
 20
5.97726
 30
0.0
 40
0.0104167
 41
0.0104167
  0
VERTEX
  8
0
 10
1.97478
 20
5.8731
 30
0.0
 40
0.0104167
 41
0.0104167
  0
VERTEX
  8
0
 10
1.33436
 20
5.8731
 30
0.0
 40
0.0104167
 41
0.0104167
  0
VERTEX
  8
0
 10
1.33436
 20
5.97726
 30
0.0
 40
0.0104167
 41
0.0104167
  0
SEQEND
 8
0
  0
POLYLINE
  8
0
 62
     7
 66
     1
 10
0
 20
0
 30
0.0
 70
     1
 40
0
 41
0
  0
VERTEX
  8
0
 10
1.33436
 20
5.97726
 30
0.0
 40
0
 41
0
  0
VERTEX
  8
0
 10
1.97478
 20
5.97726
 30
0.0
 40
0
 41
0
  0
VERTEX
  8
0
 10
1.97478
 20
5.8731
 30
0.0
 40
0
 41
0
  0
VERTEX
  8
0
 10
1.33436
 20
5.8731
 30
0.0
 40
0
 41
0
  0
VERTEX
  8
0
 10
1.33436
 20
5.97726
 30
0.0
 40
0
 41
0
  0
SEQEND
 8
0
  0
POLYLINE
  8
0
 62
     0
 66
     1
 10
0
 20
0
 30
0.0
 70
     1
 40
0.75
 41
0.75
  0
VERTEX
  8
0
 10
1.33436
 20
5.97726
 30
0.0
 40
0.0104167
 41
0.0104167
  0
VERTEX
  8
0
 10
1.97478
 20
5.97726
 30
0.0
 40
0.0104167
 41
0.0104167
  0
VERTEX
  8
0
 10
1.97478
 20
5.8731
 30
0.0
 40
0.0104167
 41
0.0104167
  0
VERTEX
  8
0
 10
1.33436
 20
5.8731
 30
0.0
 40
0.0104167
 41
0.0104167
  0
VERTEX
  8
0
 10
1.33436
 20
5.97726
 30
0.0
 40
0.0104167
 41
0.0104167
  0
SEQEND
 8
0
  0
POLYLINE
  8
0
 62
     0
 66
     1
 10
0
 20
0
 30
0.0
 70
     1
 40
0.75
 41
0.75
  0
VERTEX
  8
0
 10
1.97478
 20
5.8731
 30
0.0
 40
0.0104167
 41
0.0104167
  0
VERTEX
  8
0
 10
1.97478
 20
5.83561
 30
0.0
 40
0.0104167
 41
0.0104167
  0
VERTEX
  8
0
 10
1.96474
 20
5.72304
 30
0.0
 40
0.0104167
 41
0.0104167
  0
VERTEX
  8
0
 10
1.93474
 20
5.59293
 30
0.0
 40
0.0104167
 41
0.0104167
  0
VERTEX
  8
0
 10
1.88471
 20
5.48286
 30
0.0
 40
0.0104167
 41
0.0104167
  0
VERTEX
  8
0
 10
1.81467
 20
5.39279
 30
0.0
 40
0.0104167
 41
0.0104167
  0
VERTEX
  8
0
 10
1.72461
 20
5.32275
 30
0.0
 40
0.0104167
 41
0.0104167
  0
VERTEX
  8
0
 10
1.61453
 20
5.27274
 30
0.0
 40
0.0104167
 41
0.0104167
  0
VERTEX
  8
0
 10
1.48443
 20
5.24274
 30
0.0
 40
0.0104167
 41
0.0104167
  0
VERTEX
  8
0
 10
1.37185
 20
5.23269
 30
0.0
 40
0.0104167
 41
0.0104167
  0
VERTEX
  8
0
 10
1.33436
 20
5.23269
 30
0.0
 40
0.0104167
 41
0.0104167
  0
VERTEX
  8
0
 10
1.33436
 20
5.8731
 30
0.0
 40
0.0104167
 41
0.0104167
  0
VERTEX
  8
0
 10
1.97478
 20
5.8731
 30
0.0
 40
0.0104167
 41
0.0104167
  0
SEQEND
 8
0
  0
POLYLINE
  8
0
 62
     0
 66
     1
 10
0
 20
0
 30
0.0
 70
     1
 40
0
 41
0
  0
VERTEX
  8
0
 10
2.0025
 20
7.33464
 30
0.0
 40
0
 41
0
  0
VERTEX
  8
0
 10
2.13792
 20
7.33464
 30
0.0
 40
0
 41
0
  0
VERTEX
  8
0
 10
2.13792
 20
5.8731
 30
0.0
 40
0
 41
0
  0
VERTEX
  8
0
 10
2.0025
 20
5.8731
 30
0.0
 40
0
 41
0
  0
VERTEX
  8
0
 10
2.0025
 20
7.33464
 30
0.0
 40
0
 41
0
  0
SEQEND
 8
0
  0
POLYLINE
  8
0
 62
     0
 66
     1
 10
0
 20
0
 30
0.0
 70
     1
 40
0.15
 41
0.15
  0
VERTEX
  8
0
 10
2.0025
 20
7.33464
 30
0.0
 40
0.00208333
 41
0.00208333
  0
VERTEX
  8
0
 10
2.13792
 20
7.33464
 30
0.0
 40
0.00208333
 41
0.00208333
  0
VERTEX
  8
0
 10
2.13792
 20
5.8731
 30
0.0
 40
0.00208333
 41
0.00208333
  0
VERTEX
  8
0
 10
2.0025
 20
5.8731
 30
0.0
 40
0.00208333
 41
0.00208333
  0
VERTEX
  8
0
 10
2.0025
 20
7.33464
 30
0.0
 40
0.00208333
 41
0.00208333
  0
SEQEND
 8
0
  0
POLYLINE
  8
0
 62
     0
 66
     1
 10
0
 20
0
 30
0.0
 70
     1
 40
0
 41
0
  0
VERTEX
  8
0
 10
3.55843
 20
3.33518
 30
0.0
 40
0
 41
0
  0
VERTEX
  8
0
 10
5.44667
 20
3.33518
 30
0.0
 40
0
 41
0
  0
VERTEX
  8
0
 10
5.44667
 20
3.19976
 30
0.0
 40
0
 41
0
  0
VERTEX
  8
0
 10
3.55843
 20
3.19976
 30
0.0
 40
0
 41
0
  0
VERTEX
  8
0
 10
3.55843
 20
3.33518
 30
0.0
 40
0
 41
0
  0
SEQEND
 8
0
  0
POLYLINE
  8
0
 62
     0
 66
     1
 10
0
 20
0
 30
0.0
 70
     1
 40
0.15
 41
0.15
  0
VERTEX
  8
0
 10
3.55843
 20
3.33518
 30
0.0
 40
0.00208333
 41
0.00208333
  0
VERTEX
  8
0
 10
5.44667
 20
3.33518
 30
0.0
 40
0.00208333
 41
0.00208333
  0
VERTEX
  8
0
 10
5.44667
 20
3.19976
 30
0.0
 40
0.00208333
 41
0.00208333
  0
VERTEX
  8
0
 10
3.55843
 20
3.19976
 30
0.0
 40
0.00208333
 41
0.00208333
  0
VERTEX
  8
0
 10
3.55843
 20
3.33518
 30
0.0
 40
0.00208333
 41
0.00208333
  0
SEQEND
 8
0
  0
POLYLINE
  8
0
 62
     7
 66
     1
 10
0
 20
0
 30
0.0
 70
     1
 40
0
 41
0
  0
VERTEX
  8
0
 10
4.39388
 20
3.33518
 30
0.0
 40
0
 41
0
  0
VERTEX
  8
0
 10
5.25456
 20
3.33518
 30
0.0
 40
0
 41
0
  0
VERTEX
  8
0
 10
5.25456
 20
3.19976
 30
0.0
 40
0
 41
0
  0
VERTEX
  8
0
 10
4.39388
 20
3.19976
 30
0.0
 40
0
 41
0
  0
VERTEX
  8
0
 10
4.39388
 20
3.33518
 30
0.0
 40
0
 41
0
  0
SEQEND
 8
0
  0
POLYLINE
  8
0
 62
     0
 66
     1
 10
0
 20
0
 30
0.0
 70
     1
 40
0.75
 41
0.75
  0
VERTEX
  8
0
 10
4.39388
 20
3.33518
 30
0.0
 40
0.0104167
 41
0.0104167
  0
VERTEX
  8
0
 10
5.25456
 20
3.33518
 30
0.0
 40
0.0104167
 41
0.0104167
  0
VERTEX
  8
0
 10
5.25456
 20
3.19976
 30
0.0
 40
0.0104167
 41
0.0104167
  0
VERTEX
  8
0
 10
4.39388
 20
3.19976
 30
0.0
 40
0.0104167
 41
0.0104167
  0
VERTEX
  8
0
 10
4.39388
 20
3.33518
 30
0.0
 40
0.0104167
 41
0.0104167
  0
SEQEND
 8
0
  0
POLYLINE
  8
0
 62
     7
 66
     1
 10
0
 20
0
 30
0.0
 70
     1
 40
0
 41
0
  0
VERTEX
  8
0
 10
4.39388
 20
3.33518
 30
0.0
 40
0
 41
0
  0
VERTEX
  8
0
 10
5.25456
 20
3.33518
 30
0.0
 40
0
 41
0
  0
VERTEX
  8
0
 10
5.25456
 20
3.19976
 30
0.0
 40
0
 41
0
  0
VERTEX
  8
0
 10
4.39388
 20
3.19976
 30
0.0
 40
0
 41
0
  0
VERTEX
  8
0
 10
4.39388
 20
3.33518
 30
0.0
 40
0
 41
0
  0
SEQEND
 8
0
  0
POLYLINE
  8
0
 62
     0
 66
     1
 10
0
 20
0
 30
0.0
 70
     1
 40
0.75
 41
0.75
  0
VERTEX
  8
0
 10
4.39388
 20
3.33518
 30
0.0
 40
0.0104167
 41
0.0104167
  0
VERTEX
  8
0
 10
5.25456
 20
3.33518
 30
0.0
 40
0.0104167
 41
0.0104167
  0
VERTEX
  8
0
 10
5.25456
 20
3.19976
 30
0.0
 40
0.0104167
 41
0.0104167
  0
VERTEX
  8
0
 10
4.39388
 20
3.19976
 30
0.0
 40
0.0104167
 41
0.0104167
  0
VERTEX
  8
0
 10
4.39388
 20
3.33518
 30
0.0
 40
0.0104167
 41
0.0104167
  0
SEQEND
 8
0
  0
POLYLINE
  8
0
 62
     0
 66
     1
 10
0
 20
0
 30
0.0
 70
     1
 40
0.75
 41
0.75
  0
VERTEX
  8
0
 10
5.25456
 20
3.33518
 30
0.0
 40
0.0104167
 41
0.0104167
  0
VERTEX
  8
0
 10
5.25456
 20
3.38564
 30
0.0
 40
0.0104167
 41
0.0104167
  0
VERTEX
  8
0
 10
5.2411
 20
3.53694
 30
0.0
 40
0.0104167
 41
0.0104167
  0
VERTEX
  8
0
 10
5.20074
 20
3.71181
 30
0.0
 40
0.0104167
 41
0.0104167
  0
VERTEX
  8
0
 10
5.13351
 20
3.85969
 30
0.0
 40
0.0104167
 41
0.0104167
  0
VERTEX
  8
0
 10
5.03939
 20
3.98074
 30
0.0
 40
0.0104167
 41
0.0104167
  0
VERTEX
  8
0
 10
4.91835
 20
4.07493
 30
0.0
 40
0.0104167
 41
0.0104167
  0
VERTEX
  8
0
 10
4.7704
 20
4.14214
 30
0.0
 40
0.0104167
 41
0.0104167
  0
VERTEX
  8
0
 10
4.5956
 20
4.18251
 30
0.0
 40
0.0104167
 41
0.0104167
  0
VERTEX
  8
0
 10
4.44428
 20
4.1959
 30
0.0
 40
0.0104167
 41
0.0104167
  0
VERTEX
  8
0
 10
4.39388
 20
4.1959
 30
0.0
 40
0.0104167
 41
0.0104167
  0
VERTEX
  8
0
 10
4.39388
 20
3.33518
 30
0.0
 40
0.0104167
 41
0.0104167
  0
VERTEX
  8
0
 10
5.25456
 20
3.33518
 30
0.0
 40
0.0104167
 41
0.0104167
  0
SEQEND
 8
0
  0
POLYLINE
  8
0
 62
     7
 66
     1
 10
0
 20
0
 30
0.0
 70
     1
 40
0
 41
0
  0
VERTEX
  8
0
 10
0.478624
 20
1.93978
 30
0.0
 40
0
 41
0
  0
VERTEX
  8
0
 10
0.61404
 20
1.93978
 30
0.0
 40
0
 41
0
  0
VERTEX
  8
0
 10
0.61404
 20
0.7028
 30
0.0
 40
0
 41
0
  0
VERTEX
  8
0
 10
0.478624
 20
0.7028
 30
0.0
 40
0
 41
0
  0
VERTEX
  8
0
 10
0.478624
 20
1.93978
 30
0.0
 40
0
 41
0
  0
SEQEND
 8
0
  0
POLYLINE
  8
0
 62
     0
 66
     1
 10
0
 20
0
 30
0.0
 70
     1
 40
0.15
 41
0.15
  0
VERTEX
  8
0
 10
0.478624
 20
1.93978
 30
0.0
 40
0.00208333
 41
0.00208333
  0
VERTEX
  8
0
 10
0.61404
 20
1.93978
 30
0.0
 40
0.00208333
 41
0.00208333
  0
VERTEX
  8
0
 10
0.61404
 20
0.7028
 30
0.0
 40
0.00208333
 41
0.00208333
  0
VERTEX
  8
0
 10
0.478624
 20
0.7028
 30
0.0
 40
0.00208333
 41
0.00208333
  0
VERTEX
  8
0
 10
0.478624
 20
1.93978
 30
0.0
 40
0.00208333
 41
0.00208333
  0
SEQEND
 8
0
  0
POLYLINE
  8
0
 62
     0
 66
     1
 10
0
 20
0
 30
0.0
 70
     1
 40
0
 41
0
  0
VERTEX
  8
0
 10
9.20638
 20
1.93978
 30
0.0
 40
0
 41
0
  0
VERTEX
  8
0
 10
9.20638
 20
0.00108507
 30
0.0
 40
0
 41
0
  0
VERTEX
  8
0
 10
9.07096
 20
0.115668
 30
0.0
 40
0
 41
0
  0
VERTEX
  8
0
 10
9.07096
 20
1.93978
 30
0.0
 40
0
 41
0
  0
VERTEX
  8
0
 10
9.20638
 20
1.93978
 30
0.0
 40
0
 41
0
  0
SEQEND
 8
0
  0
POLYLINE
  8
0
 62
     0
 66
     1
 10
0
 20
0
 30
0.0
 70
     1
 40
0.15
 41
0.15
  0
VERTEX
  8
0
 10
9.20638
 20
1.93978
 30
0.0
 40
0.00208333
 41
0.00208333
  0
VERTEX
  8
0
 10
9.20638
 20
0.00108507
 30
0.0
 40
0.00208333
 41
0.00208333
  0
VERTEX
  8
0
 10
9.07096
 20
0.115668
 30
0.0
 40
0.00208333
 41
0.00208333
  0
VERTEX
  8
0
 10
9.07096
 20
1.93978
 30
0.0
 40
0.00208333
 41
0.00208333
  0
VERTEX
  8
0
 10
9.20638
 20
1.93978
 30
0.0
 40
0.00208333
 41
0.00208333
  0
SEQEND
 8
0
  0
POLYLINE
  8
0
 62
     0
 66
     1
 10
0
 20
0
 30
0.0
 70
     1
 40
0
 41
0
  0
VERTEX
  8
0
 10
9.20638
 20
0.00108507
 30
0.0
 40
0
 41
0
  0
VERTEX
  8
0
 10
7.49718
 20
0.00108507
 30
0.0
 40
0
 41
0
  0
VERTEX
  8
0
 10
7.61176
 20
0.115668
 30
0.0
 40
0
 41
0
  0
VERTEX
  8
0
 10
9.07096
 20
0.115668
 30
0.0
 40
0
 41
0
  0
VERTEX
  8
0
 10
9.20638
 20
0.00108507
 30
0.0
 40
0
 41
0
  0
SEQEND
 8
0
  0
POLYLINE
  8
0
 62
     0
 66
     1
 10
0
 20
0
 30
0.0
 70
     1
 40
0.15
 41
0.15
  0
VERTEX
  8
0
 10
9.20638
 20
0.00108507
 30
0.0
 40
0.00208333
 41
0.00208333
  0
VERTEX
  8
0
 10
7.49718
 20
0.00108507
 30
0.0
 40
0.00208333
 41
0.00208333
  0
VERTEX
  8
0
 10
7.61176
 20
0.115668
 30
0.0
 40
0.00208333
 41
0.00208333
  0
VERTEX
  8
0
 10
9.07096
 20
0.115668
 30
0.0
 40
0.00208333
 41
0.00208333
  0
VERTEX
  8
0
 10
9.20638
 20
0.00108507
 30
0.0
 40
0.00208333
 41
0.00208333
  0
SEQEND
 8
0
  0
POLYLINE
  8
0
 62
     0
 66
     1
 10
0
 20
0
 30
0.0
 70
     1
 40
0
 41
0
  0
VERTEX
  8
0
 10
7.49718
 20
0.00108507
 30
0.0
 40
0
 41
0
  0
VERTEX
  8
0
 10
7.49718
 20
2.24914
 30
0.0
 40
0
 41
0
  0
VERTEX
  8
0
 10
7.61176
 20
2.24914
 30
0.0
 40
0
 41
0
  0
VERTEX
  8
0
 10
7.61176
 20
0.115668
 30
0.0
 40
0
 41
0
  0
VERTEX
  8
0
 10
7.49718
 20
0.00108507
 30
0.0
 40
0
 41
0
  0
SEQEND
 8
0
  0
POLYLINE
  8
0
 62
     0
 66
     1
 10
0
 20
0
 30
0.0
 70
     1
 40
0.15
 41
0.15
  0
VERTEX
  8
0
 10
7.49718
 20
0.00108507
 30
0.0
 40
0.00208333
 41
0.00208333
  0
VERTEX
  8
0
 10
7.49718
 20
2.24914
 30
0.0
 40
0.00208333
 41
0.00208333
  0
VERTEX
  8
0
 10
7.61176
 20
2.24914
 30
0.0
 40
0.00208333
 41
0.00208333
  0
VERTEX
  8
0
 10
7.61176
 20
0.115668
 30
0.0
 40
0.00208333
 41
0.00208333
  0
VERTEX
  8
0
 10
7.49718
 20
0.00108507
 30
0.0
 40
0.00208333
 41
0.00208333
  0
SEQEND
 8
0
  0
POLYLINE
  8
0
 62
     7
 66
     1
 10
0
 20
0
 30
0.0
 70
     1
 40
0
 41
0
  0
VERTEX
  8
0
 10
7.49718
 20
1.43485
 30
0.0
 40
0
 41
0
  0
VERTEX
  8
0
 10
7.61176
 20
1.43485
 30
0.0
 40
0
 41
0
  0
VERTEX
  8
0
 10
7.61176
 20
0.712565
 30
0.0
 40
0
 41
0
  0
VERTEX
  8
0
 10
7.49718
 20
0.712565
 30
0.0
 40
0
 41
0
  0
VERTEX
  8
0
 10
7.49718
 20
1.43485
 30
0.0
 40
0
 41
0
  0
SEQEND
 8
0
  0
POLYLINE
  8
0
 62
     0
 66
     1
 10
0
 20
0
 30
0.0
 70
     1
 40
0.75
 41
0.75
  0
VERTEX
  8
0
 10
7.49718
 20
1.43485
 30
0.0
 40
0.0104167
 41
0.0104167
  0
VERTEX
  8
0
 10
7.61176
 20
1.43485
 30
0.0
 40
0.0104167
 41
0.0104167
  0
VERTEX
  8
0
 10
7.61176
 20
0.712565
 30
0.0
 40
0.0104167
 41
0.0104167
  0
VERTEX
  8
0
 10
7.49718
 20
0.712565
 30
0.0
 40
0.0104167
 41
0.0104167
  0
VERTEX
  8
0
 10
7.49718
 20
1.43485
 30
0.0
 40
0.0104167
 41
0.0104167
  0
SEQEND
 8
0
  0
POLYLINE
  8
0
 62
     7
 66
     1
 10
0
 20
0
 30
0.0
 70
     1
 40
0
 41
0
  0
VERTEX
  8
0
 10
7.49718
 20
1.43485
 30
0.0
 40
0
 41
0
  0
VERTEX
  8
0
 10
7.61176
 20
1.43485
 30
0.0
 40
0
 41
0
  0
VERTEX
  8
0
 10
7.61176
 20
0.712565
 30
0.0
 40
0
 41
0
  0
VERTEX
  8
0
 10
7.49718
 20
0.712565
 30
0.0
 40
0
 41
0
  0
VERTEX
  8
0
 10
7.49718
 20
1.43485
 30
0.0
 40
0
 41
0
  0
SEQEND
 8
0
  0
POLYLINE
  8
0
 62
     0
 66
     1
 10
0
 20
0
 30
0.0
 70
     1
 40
0.75
 41
0.75
  0
VERTEX
  8
0
 10
7.49718
 20
1.43485
 30
0.0
 40
0.0104167
 41
0.0104167
  0
VERTEX
  8
0
 10
7.61176
 20
1.43485
 30
0.0
 40
0.0104167
 41
0.0104167
  0
VERTEX
  8
0
 10
7.61176
 20
0.712565
 30
0.0
 40
0.0104167
 41
0.0104167
  0
VERTEX
  8
0
 10
7.49718
 20
0.712565
 30
0.0
 40
0.0104167
 41
0.0104167
  0
VERTEX
  8
0
 10
7.49718
 20
1.43485
 30
0.0
 40
0.0104167
 41
0.0104167
  0
SEQEND
 8
0
  0
POLYLINE
  8
0
 62
     0
 66
     1
 10
0
 20
0
 30
0.0
 70
     1
 40
0.75
 41
0.75
  0
VERTEX
  8
0
 10
7.49718
 20
1.43485
 30
0.0
 40
0.0104167
 41
0.0104167
  0
VERTEX
  8
0
 10
7.45481
 20
1.43485
 30
0.0
 40
0.0104167
 41
0.0104167
  0
VERTEX
  8
0
 10
7.32785
 20
1.42361
 30
0.0
 40
0.0104167
 41
0.0104167
  0
VERTEX
  8
0
 10
7.18115
 20
1.38976
 30
0.0
 40
0.0104167
 41
0.0104167
  0
VERTEX
  8
0
 10
7.05701
 20
1.33333
 30
0.0
 40
0.0104167
 41
0.0104167
  0
VERTEX
  8
0
 10
6.95546
 20
1.25429
 30
0.0
 40
0.0104167
 41
0.0104167
  0
VERTEX
  8
0
 10
6.87646
 20
1.15272
 30
0.0
 40
0.0104167
 41
0.0104167
  0
VERTEX
  8
0
 10
6.82004
 20
1.02859
 30
0.0
 40
0.0104167
 41
0.0104167
  0
VERTEX
  8
0
 10
6.78618
 20
0.88189
 30
0.0
 40
0.0104167
 41
0.0104167
  0
VERTEX
  8
0
 10
6.7749
 20
0.754937
 30
0.0
 40
0.0104167
 41
0.0104167
  0
VERTEX
  8
0
 10
6.7749
 20
0.712565
 30
0.0
 40
0.0104167
 41
0.0104167
  0
VERTEX
  8
0
 10
7.49718
 20
0.712565
 30
0.0
 40
0.0104167
 41
0.0104167
  0
VERTEX
  8
0
 10
7.49718
 20
1.43485
 30
0.0
 40
0.0104167
 41
0.0104167
  0
SEQEND
 8
0
  0
POLYLINE
  8
0
 62
     7
 66
     1
 10
0
 20
0
 30
0.0
 70
     1
 40
0
 41
0
  0
VERTEX
  8
0
 10
0.478624
 20
13.3553
 30
0.0
 40
0
 41
0
  0
VERTEX
  8
0
 10
0.593207
 20
13.3553
 30
0.0
 40
0
 41
0
  0
VERTEX
  8
0
 10
0.593207
 20
11.622
 30
0.0
 40
0
 41
0
  0
VERTEX
  8
0
 10
0.478624
 20
11.622
 30
0.0
 40
0
 41
0
  0
VERTEX
  8
0
 10
0.478624
 20
13.3553
 30
0.0
 40
0
 41
0
  0
SEQEND
 8
0
  0
POLYLINE
  8
0
 62
     0
 66
     1
 10
0
 20
0
 30
0.0
 70
     1
 40
0.15
 41
0.15
  0
VERTEX
  8
0
 10
0.478624
 20
13.3553
 30
0.0
 40
0.00208333
 41
0.00208333
  0
VERTEX
  8
0
 10
0.593207
 20
13.3553
 30
0.0
 40
0.00208333
 41
0.00208333
  0
VERTEX
  8
0
 10
0.593207
 20
11.622
 30
0.0
 40
0.00208333
 41
0.00208333
  0
VERTEX
  8
0
 10
0.478624
 20
11.622
 30
0.0
 40
0.00208333
 41
0.00208333
  0
VERTEX
  8
0
 10
0.478624
 20
13.3553
 30
0.0
 40
0.00208333
 41
0.00208333
  0
SEQEND
 8
0
  0
POLYLINE
  8
0
 62
     7
 66
     1
 10
0
 20
0
 30
0.0
 70
     1
 40
0
 41
0
  0
VERTEX
  8
0
 10
9.09179
 20
13.3707
 30
0.0
 40
0
 41
0
  0
VERTEX
  8
0
 10
9.20638
 20
13.3707
 30
0.0
 40
0
 41
0
  0
VERTEX
  8
0
 10
9.20638
 20
11.622
 30
0.0
 40
0
 41
0
  0
VERTEX
  8
0
 10
9.09179
 20
11.622
 30
0.0
 40
0
 41
0
  0
VERTEX
  8
0
 10
9.09179
 20
13.3707
 30
0.0
 40
0
 41
0
  0
SEQEND
 8
0
  0
POLYLINE
  8
0
 62
     0
 66
     1
 10
0
 20
0
 30
0.0
 70
     1
 40
0.15
 41
0.15
  0
VERTEX
  8
0
 10
9.09179
 20
13.3707
 30
0.0
 40
0.00208333
 41
0.00208333
  0
VERTEX
  8
0
 10
9.20638
 20
13.3707
 30
0.0
 40
0.00208333
 41
0.00208333
  0
VERTEX
  8
0
 10
9.20638
 20
11.622
 30
0.0
 40
0.00208333
 41
0.00208333
  0
VERTEX
  8
0
 10
9.09179
 20
11.622
 30
0.0
 40
0.00208333
 41
0.00208333
  0
VERTEX
  8
0
 10
9.09179
 20
13.3707
 30
0.0
 40
0.00208333
 41
0.00208333
  0
SEQEND
 8
0
  0
POLYLINE
  8
0
 62
     7
 66
     1
 10
0
 20
0
 30
0.0
 70
     1
 40
0
 41
0
  0
VERTEX
  8
0
 10
8.34924
 20
7.9254
 30
0.0
 40
0
 41
0
  0
VERTEX
  8
0
 10
8.97424
 20
7.9254
 30
0.0
 40
0
 41
0
  0
VERTEX
  8
0
 10
8.97424
 20
6.32096
 30
0.0
 40
0
 41
0
  0
VERTEX
  8
0
 10
8.34924
 20
6.32096
 30
0.0
 40
0
 41
0
  0
VERTEX
  8
0
 10
8.34924
 20
7.9254
 30
0.0
 40
0
 41
0
  0
SEQEND
 8
0
  0
POLYLINE
  8
0
 62
     0
 66
     1
 10
0
 20
0
 30
0.0
 70
     1
 40
0.75
 41
0.75
  0
VERTEX
  8
0
 10
8.34924
 20
7.9254
 30
0.0
 40
0.0104167
 41
0.0104167
  0
VERTEX
  8
0
 10
8.34924
 20
6.32096
 30
0.0
 40
0.0104167
 41
0.0104167
  0
VERTEX
  8
0
 10
8.97424
 20
6.32096
 30
0.0
 40
0.0104167
 41
0.0104167
  0
VERTEX
  8
0
 10
8.97424
 20
7.9254
 30
0.0
 40
0.0104167
 41
0.0104167
  0
VERTEX
  8
0
 10
8.34924
 20
7.9254
 30
0.0
 40
0.0104167
 41
0.0104167
  0
SEQEND
 8
0
  0
POLYLINE
  8
0
 62
     253
 66
     1
 10
0
 20
0
 30
0.0
 40
0.375
 41
0.375
  0
VERTEX
  8
0
 10
8.93257
 20
7.9254
 30
0.0
 40
0.00520833
 41
0.00520833
  0
VERTEX
  8
0
 10
8.93257
 20
6.32096
 30
0.0
 40
0.00520833
 41
0.00520833
  0
SEQEND
 8
0
  0
POLYLINE
  8
0
 62
     253
 66
     1
 10
0
 20
0
 30
0.0
 40
0.375
 41
0.375
  0
VERTEX
  8
0
 10
8.8909
 20
7.9254
 30
0.0
 40
0.00520833
 41
0.00520833
  0
VERTEX
  8
0
 10
8.8909
 20
6.32096
 30
0.0
 40
0.00520833
 41
0.00520833
  0
SEQEND
 8
0
  0
POLYLINE
  8
0
 62
     253
 66
     1
 10
0
 20
0
 30
0.0
 40
0.375
 41
0.375
  0
VERTEX
  8
0
 10
8.84924
 20
7.9254
 30
0.0
 40
0.00520833
 41
0.00520833
  0
VERTEX
  8
0
 10
8.84924
 20
6.32096
 30
0.0
 40
0.00520833
 41
0.00520833
  0
SEQEND
 8
0
  0
POLYLINE
  8
0
 62
     253
 66
     1
 10
0
 20
0
 30
0.0
 40
0.375
 41
0.375
  0
VERTEX
  8
0
 10
8.80757
 20
7.9254
 30
0.0
 40
0.00520833
 41
0.00520833
  0
VERTEX
  8
0
 10
8.80757
 20
6.32096
 30
0.0
 40
0.00520833
 41
0.00520833
  0
SEQEND
 8
0
  0
POLYLINE
  8
0
 62
     253
 66
     1
 10
0
 20
0
 30
0.0
 40
0.375
 41
0.375
  0
VERTEX
  8
0
 10
8.7659
 20
7.9254
 30
0.0
 40
0.00520833
 41
0.00520833
  0
VERTEX
  8
0
 10
8.7659
 20
6.32096
 30
0.0
 40
0.00520833
 41
0.00520833
  0
SEQEND
 8
0
  0
POLYLINE
  8
0
 62
     253
 66
     1
 10
0
 20
0
 30
0.0
 40
0.375
 41
0.375
  0
VERTEX
  8
0
 10
8.72424
 20
7.9254
 30
0.0
 40
0.00520833
 41
0.00520833
  0
VERTEX
  8
0
 10
8.72424
 20
6.32096
 30
0.0
 40
0.00520833
 41
0.00520833
  0
SEQEND
 8
0
  0
POLYLINE
  8
0
 62
     253
 66
     1
 10
0
 20
0
 30
0.0
 40
0.375
 41
0.375
  0
VERTEX
  8
0
 10
8.68257
 20
7.9254
 30
0.0
 40
0.00520833
 41
0.00520833
  0
VERTEX
  8
0
 10
8.68257
 20
6.32096
 30
0.0
 40
0.00520833
 41
0.00520833
  0
SEQEND
 8
0
  0
POLYLINE
  8
0
 62
     253
 66
     1
 10
0
 20
0
 30
0.0
 40
0.375
 41
0.375
  0
VERTEX
  8
0
 10
8.6409
 20
7.9254
 30
0.0
 40
0.00520833
 41
0.00520833
  0
VERTEX
  8
0
 10
8.6409
 20
6.32096
 30
0.0
 40
0.00520833
 41
0.00520833
  0
SEQEND
 8
0
  0
POLYLINE
  8
0
 62
     253
 66
     1
 10
0
 20
0
 30
0.0
 40
0.375
 41
0.375
  0
VERTEX
  8
0
 10
8.59924
 20
7.9254
 30
0.0
 40
0.00520833
 41
0.00520833
  0
VERTEX
  8
0
 10
8.59924
 20
6.32096
 30
0.0
 40
0.00520833
 41
0.00520833
  0
SEQEND
 8
0
  0
POLYLINE
  8
0
 62
     253
 66
     1
 10
0
 20
0
 30
0.0
 40
0.375
 41
0.375
  0
VERTEX
  8
0
 10
8.55757
 20
7.9254
 30
0.0
 40
0.00520833
 41
0.00520833
  0
VERTEX
  8
0
 10
8.55757
 20
6.32096
 30
0.0
 40
0.00520833
 41
0.00520833
  0
SEQEND
 8
0
  0
POLYLINE
  8
0
 62
     253
 66
     1
 10
0
 20
0
 30
0.0
 40
0.375
 41
0.375
  0
VERTEX
  8
0
 10
8.5159
 20
7.9254
 30
0.0
 40
0.00520833
 41
0.00520833
  0
VERTEX
  8
0
 10
8.5159
 20
6.32096
 30
0.0
 40
0.00520833
 41
0.00520833
  0
SEQEND
 8
0
  0
POLYLINE
  8
0
 62
     253
 66
     1
 10
0
 20
0
 30
0.0
 40
0.375
 41
0.375
  0
VERTEX
  8
0
 10
8.47424
 20
7.9254
 30
0.0
 40
0.00520833
 41
0.00520833
  0
VERTEX
  8
0
 10
8.47424
 20
6.32096
 30
0.0
 40
0.00520833
 41
0.00520833
  0
SEQEND
 8
0
  0
POLYLINE
  8
0
 62
     253
 66
     1
 10
0
 20
0
 30
0.0
 40
0.375
 41
0.375
  0
VERTEX
  8
0
 10
8.43257
 20
7.9254
 30
0.0
 40
0.00520833
 41
0.00520833
  0
VERTEX
  8
0
 10
8.43257
 20
6.32096
 30
0.0
 40
0.00520833
 41
0.00520833
  0
SEQEND
 8
0
  0
POLYLINE
  8
0
 62
     253
 66
     1
 10
0
 20
0
 30
0.0
 40
0.375
 41
0.375
  0
VERTEX
  8
0
 10
8.3909
 20
7.9254
 30
0.0
 40
0.00520833
 41
0.00520833
  0
VERTEX
  8
0
 10
8.3909
 20
6.32096
 30
0.0
 40
0.00520833
 41
0.00520833
  0
SEQEND
 8
0
  0
POLYLINE
  8
0
 62
     7
 66
     1
 10
0
 20
0
 30
0.0
 70
     1
 40
0
 41
0
  0
VERTEX
  8
0
 10
7.93257
 20
7.9254
 30
0.0
 40
0
 41
0
  0
VERTEX
  8
0
 10
8.34924
 20
7.9254
 30
0.0
 40
0
 41
0
  0
VERTEX
  8
0
 10
8.34924
 20
6.32096
 30
0.0
 40
0
 41
0
  0
VERTEX
  8
0
 10
7.93257
 20
6.32096
 30
0.0
 40
0
 41
0
  0
VERTEX
  8
0
 10
7.93257
 20
7.9254
 30
0.0
 40
0
 41
0
  0
SEQEND
 8
0
  0
POLYLINE
  8
0
 62
     0
 66
     1
 10
0
 20
0
 30
0.0
 70
     1
 40
0.75
 41
0.75
  0
VERTEX
  8
0
 10
7.93257
 20
7.9254
 30
0.0
 40
0.0104167
 41
0.0104167
  0
VERTEX
  8
0
 10
7.93257
 20
6.32096
 30
0.0
 40
0.0104167
 41
0.0104167
  0
VERTEX
  8
0
 10
8.34924
 20
6.32096
 30
0.0
 40
0.0104167
 41
0.0104167
  0
VERTEX
  8
0
 10
8.34924
 20
7.9254
 30
0.0
 40
0.0104167
 41
0.0104167
  0
VERTEX
  8
0
 10
7.93257
 20
7.9254
 30
0.0
 40
0.0104167
 41
0.0104167
  0
SEQEND
 8
0
  0
POLYLINE
  8
0
 62
     253
 66
     1
 10
0
 20
0
 30
0.0
 40
0.375
 41
0.375
  0
VERTEX
  8
0
 10
8.30757
 20
7.9254
 30
0.0
 40
0.00520833
 41
0.00520833
  0
VERTEX
  8
0
 10
8.30757
 20
6.32096
 30
0.0
 40
0.00520833
 41
0.00520833
  0
SEQEND
 8
0
  0
POLYLINE
  8
0
 62
     253
 66
     1
 10
0
 20
0
 30
0.0
 40
0.375
 41
0.375
  0
VERTEX
  8
0
 10
8.2659
 20
7.9254
 30
0.0
 40
0.00520833
 41
0.00520833
  0
VERTEX
  8
0
 10
8.2659
 20
6.32096
 30
0.0
 40
0.00520833
 41
0.00520833
  0
SEQEND
 8
0
  0
POLYLINE
  8
0
 62
     253
 66
     1
 10
0
 20
0
 30
0.0
 40
0.375
 41
0.375
  0
VERTEX
  8
0
 10
8.22424
 20
7.9254
 30
0.0
 40
0.00520833
 41
0.00520833
  0
VERTEX
  8
0
 10
8.22424
 20
6.32096
 30
0.0
 40
0.00520833
 41
0.00520833
  0
SEQEND
 8
0
  0
POLYLINE
  8
0
 62
     253
 66
     1
 10
0
 20
0
 30
0.0
 40
0.375
 41
0.375
  0
VERTEX
  8
0
 10
8.18257
 20
7.9254
 30
0.0
 40
0.00520833
 41
0.00520833
  0
VERTEX
  8
0
 10
8.18257
 20
6.32096
 30
0.0
 40
0.00520833
 41
0.00520833
  0
SEQEND
 8
0
  0
POLYLINE
  8
0
 62
     253
 66
     1
 10
0
 20
0
 30
0.0
 40
0.375
 41
0.375
  0
VERTEX
  8
0
 10
8.1409
 20
7.9254
 30
0.0
 40
0.00520833
 41
0.00520833
  0
VERTEX
  8
0
 10
8.1409
 20
6.32096
 30
0.0
 40
0.00520833
 41
0.00520833
  0
SEQEND
 8
0
  0
POLYLINE
  8
0
 62
     253
 66
     1
 10
0
 20
0
 30
0.0
 40
0.375
 41
0.375
  0
VERTEX
  8
0
 10
8.09924
 20
7.9254
 30
0.0
 40
0.00520833
 41
0.00520833
  0
VERTEX
  8
0
 10
8.09924
 20
6.32096
 30
0.0
 40
0.00520833
 41
0.00520833
  0
SEQEND
 8
0
  0
POLYLINE
  8
0
 62
     253
 66
     1
 10
0
 20
0
 30
0.0
 40
0.375
 41
0.375
  0
VERTEX
  8
0
 10
8.05757
 20
7.9254
 30
0.0
 40
0.00520833
 41
0.00520833
  0
VERTEX
  8
0
 10
8.05757
 20
6.32096
 30
0.0
 40
0.00520833
 41
0.00520833
  0
SEQEND
 8
0
  0
POLYLINE
  8
0
 62
     253
 66
     1
 10
0
 20
0
 30
0.0
 40
0.375
 41
0.375
  0
VERTEX
  8
0
 10
8.0159
 20
7.9254
 30
0.0
 40
0.00520833
 41
0.00520833
  0
VERTEX
  8
0
 10
8.0159
 20
6.32096
 30
0.0
 40
0.00520833
 41
0.00520833
  0
SEQEND
 8
0
  0
POLYLINE
  8
0
 62
     253
 66
     1
 10
0
 20
0
 30
0.0
 40
0.375
 41
0.375
  0
VERTEX
  8
0
 10
7.97424
 20
7.9254
 30
0.0
 40
0.00520833
 41
0.00520833
  0
VERTEX
  8
0
 10
7.97424
 20
6.32096
 30
0.0
 40
0.00520833
 41
0.00520833
  0
SEQEND
 8
0
  0
POLYLINE
  8
0
 62
     7
 66
     1
 10
0
 20
0
 30
0.0
 70
     1
 40
0
 41
0
  0
VERTEX
  8
0
 10
7.5159
 20
7.11019
 30
0.0
 40
0
 41
0
  0
VERTEX
  8
0
 10
7.93257
 20
7.11019
 30
0.0
 40
0
 41
0
  0
VERTEX
  8
0
 10
7.93257
 20
6.32101
 30
0.0
 40
0
 41
0
  0
VERTEX
  8
0
 10
7.5159
 20
6.32101
 30
0.0
 40
0
 41
0
  0
VERTEX
  8
0
 10
7.5159
 20
7.11019
 30
0.0
 40
0
 41
0
  0
SEQEND
 8
0
  0
POLYLINE
  8
0
 62
     0
 66
     1
 10
0
 20
0
 30
0.0
 70
     1
 40
0.75
 41
0.75
  0
VERTEX
  8
0
 10
7.5159
 20
7.11019
 30
0.0
 40
0.0104167
 41
0.0104167
  0
VERTEX
  8
0
 10
7.5159
 20
6.32101
 30
0.0
 40
0.0104167
 41
0.0104167
  0
VERTEX
  8
0
 10
7.93257
 20
6.32101
 30
0.0
 40
0.0104167
 41
0.0104167
  0
VERTEX
  8
0
 10
7.93257
 20
7.11019
 30
0.0
 40
0.0104167
 41
0.0104167
  0
VERTEX
  8
0
 10
7.5159
 20
7.11019
 30
0.0
 40
0.0104167
 41
0.0104167
  0
SEQEND
 8
0
  0
POLYLINE
  8
0
 62
     253
 66
     1
 10
0
 20
0
 30
0.0
 40
0.375
 41
0.375
  0
VERTEX
  8
0
 10
7.8909
 20
7.11019
 30
0.0
 40
0.00520833
 41
0.00520833
  0
VERTEX
  8
0
 10
7.8909
 20
6.32096
 30
0.0
 40
0.00520833
 41
0.00520833
  0
SEQEND
 8
0
  0
POLYLINE
  8
0
 62
     253
 66
     1
 10
0
 20
0
 30
0.0
 40
0.375
 41
0.375
  0
VERTEX
  8
0
 10
7.84924
 20
7.11019
 30
0.0
 40
0.00520833
 41
0.00520833
  0
VERTEX
  8
0
 10
7.84924
 20
6.32096
 30
0.0
 40
0.00520833
 41
0.00520833
  0
SEQEND
 8
0
  0
POLYLINE
  8
0
 62
     253
 66
     1
 10
0
 20
0
 30
0.0
 40
0.375
 41
0.375
  0
VERTEX
  8
0
 10
7.80757
 20
7.11019
 30
0.0
 40
0.00520833
 41
0.00520833
  0
VERTEX
  8
0
 10
7.80757
 20
6.32096
 30
0.0
 40
0.00520833
 41
0.00520833
  0
SEQEND
 8
0
  0
POLYLINE
  8
0
 62
     253
 66
     1
 10
0
 20
0
 30
0.0
 40
0.375
 41
0.375
  0
VERTEX
  8
0
 10
7.7659
 20
7.11019
 30
0.0
 40
0.00520833
 41
0.00520833
  0
VERTEX
  8
0
 10
7.7659
 20
6.32096
 30
0.0
 40
0.00520833
 41
0.00520833
  0
SEQEND
 8
0
  0
POLYLINE
  8
0
 62
     253
 66
     1
 10
0
 20
0
 30
0.0
 40
0.375
 41
0.375
  0
VERTEX
  8
0
 10
7.72424
 20
7.11019
 30
0.0
 40
0.00520833
 41
0.00520833
  0
VERTEX
  8
0
 10
7.72424
 20
6.32096
 30
0.0
 40
0.00520833
 41
0.00520833
  0
SEQEND
 8
0
  0
POLYLINE
  8
0
 62
     253
 66
     1
 10
0
 20
0
 30
0.0
 40
0.375
 41
0.375
  0
VERTEX
  8
0
 10
7.68257
 20
7.11019
 30
0.0
 40
0.00520833
 41
0.00520833
  0
VERTEX
  8
0
 10
7.68257
 20
6.32096
 30
0.0
 40
0.00520833
 41
0.00520833
  0
SEQEND
 8
0
  0
POLYLINE
  8
0
 62
     253
 66
     1
 10
0
 20
0
 30
0.0
 40
0.375
 41
0.375
  0
VERTEX
  8
0
 10
7.6409
 20
7.11019
 30
0.0
 40
0.00520833
 41
0.00520833
  0
VERTEX
  8
0
 10
7.6409
 20
6.32096
 30
0.0
 40
0.00520833
 41
0.00520833
  0
SEQEND
 8
0
  0
POLYLINE
  8
0
 62
     253
 66
     1
 10
0
 20
0
 30
0.0
 40
0.375
 41
0.375
  0
VERTEX
  8
0
 10
7.59924
 20
7.11019
 30
0.0
 40
0.00520833
 41
0.00520833
  0
VERTEX
  8
0
 10
7.59924
 20
6.32096
 30
0.0
 40
0.00520833
 41
0.00520833
  0
SEQEND
 8
0
  0
POLYLINE
  8
0
 62
     253
 66
     1
 10
0
 20
0
 30
0.0
 40
0.375
 41
0.375
  0
VERTEX
  8
0
 10
7.55757
 20
7.11019
 30
0.0
 40
0.00520833
 41
0.00520833
  0
VERTEX
  8
0
 10
7.55757
 20
6.32096
 30
0.0
 40
0.00520833
 41
0.00520833
  0
SEQEND
 8
0
  0
POLYLINE
  8
0
 62
     7
 66
     1
 10
0
 20
0
 30
0.0
 70
     1
 40
0
 41
0
  0
VERTEX
  8
0
 10
7.27012
 20
7.92296
 30
0.0
 40
0
 41
0
  0
VERTEX
  8
0
 10
7.63471
 20
7.92296
 30
0.0
 40
0
 41
0
  0
VERTEX
  8
0
 10
7.63471
 20
7.3814
 30
0.0
 40
0
 41
0
  0
VERTEX
  8
0
 10
7.27012
 20
7.3814
 30
0.0
 40
0
 41
0
  0
VERTEX
  8
0
 10
7.27012
 20
7.92296
 30
0.0
 40
0
 41
0
  0
SEQEND
 8
0
  0
POLYLINE
  8
0
 62
     0
 66
     1
 10
0
 20
0
 30
0.0
 70
     1
 40
0.649875
 41
0.649875
  0
VERTEX
  8
0
 10
7.27012
 20
7.92296
 30
0.0
 40
0.00902604
 41
0.00902604
  0
VERTEX
  8
0
 10
7.27012
 20
7.3814
 30
0.0
 40
0.00902604
 41
0.00902604
  0
VERTEX
  8
0
 10
7.63471
 20
7.3814
 30
0.0
 40
0.00902604
 41
0.00902604
  0
VERTEX
  8
0
 10
7.63471
 20
7.92296
 30
0.0
 40
0.00902604
 41
0.00902604
  0
VERTEX
  8
0
 10
7.27012
 20
7.92296
 30
0.0
 40
0.00902604
 41
0.00902604
  0
SEQEND
 8
0
  0
POLYLINE
  8
0
 62
     0
 66
     1
 10
0
 20
0
 30
0.0
 40
0.649875
 41
0.649875
  0
VERTEX
  8
0
 10
7.63471
 20
7.3814
 30
0.0
 40
0.00902604
 41
0.00902604
  0
VERTEX
  8
0
 10
7.45242
 20
7.73975
 30
0.0
 40
0.00902604
 41
0.00902604
  0
VERTEX
  8
0
 10
7.45242
 20
7.57454
 30
0.0
 40
0.00902604
 41
0.00902604
  0
VERTEX
  8
0
 10
7.27012
 20
7.92296
 30
0.0
 40
0.00902604
 41
0.00902604
  0
SEQEND
 8
0
  0
POLYLINE
  8
0
 62
     7
 66
     1
 10
0
 20
0
 30
0.0
 70
     1
 40
0
 41
0
  0
VERTEX
  8
0
 10
0.708822
 20
7.22
 30
0.0
 40
0
 41
0
  0
VERTEX
  8
0
 10
1.28749
 20
7.22
 30
0.0
 40
0
 41
0
  0
VERTEX
  8
0
 10
1.28749
 20
5.97667
 30
0.0
 40
0
 41
0
  0
VERTEX
  8
0
 10
0.708822
 20
5.97667
 30
0.0
 40
0
 41
0
  0
VERTEX
  8
0
 10
0.708822
 20
7.22
 30
0.0
 40
0
 41
0
  0
SEQEND
 8
0
  0
POLYLINE
  8
0
 62
     0
 66
     1
 10
0
 20
0
 30
0.0
 70
     1
 40
0.75
 41
0.75
  0
VERTEX
  8
0
 10
0.708822
 20
7.22
 30
0.0
 40
0.0104167
 41
0.0104167
  0
VERTEX
  8
0
 10
0.708822
 20
5.97667
 30
0.0
 40
0.0104167
 41
0.0104167
  0
VERTEX
  8
0
 10
1.28749
 20
5.97667
 30
0.0
 40
0.0104167
 41
0.0104167
  0
VERTEX
  8
0
 10
1.28749
 20
7.22
 30
0.0
 40
0.0104167
 41
0.0104167
  0
VERTEX
  8
0
 10
0.708822
 20
7.22
 30
0.0
 40
0.0104167
 41
0.0104167
  0
SEQEND
 8
0
  0
POLYLINE
  8
0
 62
     253
 66
     1
 10
0
 20
0
 30
0.0
 40
0.75
 41
0.75
  0
VERTEX
  8
0
 10
0.998156
 20
5.97667
 30
0.0
 40
0.0104167
 41
0.0104167
  0
VERTEX
  8
0
 10
0.998156
 20
7.22006
 30
0.0
 40
0.0104167
 41
0.0104167
  0
SEQEND
 8
0
  0
POLYLINE
  8
0
 62
     7
 66
     1
 10
0
 20
0
 30
0.0
 70
     1
 40
0
 41
0
  0
VERTEX
  8
0
 10
1.28749
 20
7.21744
 30
0.0
 40
0
 41
0
  0
VERTEX
  8
0
 10
2.00521
 20
7.21744
 30
0.0
 40
0
 41
0
  0
VERTEX
  8
0
 10
2.00521
 20
6.86388
 30
0.0
 40
0
 41
0
  0
VERTEX
  8
0
 10
1.28749
 20
6.86388
 30
0.0
 40
0
 41
0
  0
VERTEX
  8
0
 10
1.28749
 20
7.21744
 30
0.0
 40
0
 41
0
  0
SEQEND
 8
0
  0
POLYLINE
  8
0
 62
     0
 66
     1
 10
0
 20
0
 30
0.0
 70
     1
 40
0.75
 41
0.75
  0
VERTEX
  8
0
 10
1.28749
 20
7.21744
 30
0.0
 40
0.0104167
 41
0.0104167
  0
VERTEX
  8
0
 10
2.00521
 20
7.21744
 30
0.0
 40
0.0104167
 41
0.0104167
  0
VERTEX
  8
0
 10
2.00521
 20
6.86388
 30
0.0
 40
0.0104167
 41
0.0104167
  0
VERTEX
  8
0
 10
1.28749
 20
6.86388
 30
0.0
 40
0.0104167
 41
0.0104167
  0
VERTEX
  8
0
 10
1.28749
 20
7.21744
 30
0.0
 40
0.0104167
 41
0.0104167
  0
SEQEND
 8
0
  0
POLYLINE
  8
0
 62
     7
 66
     1
 10
0
 20
0
 30
0.0
 70
     1
 40
0
 41
0
  0
VERTEX
  8
0
 10
2.14312
 20
7.0541
 30
0.0
 40
0
 41
0
  0
VERTEX
  8
0
 10
2.3304
 20
7.0541
 30
0.0
 40
0
 41
0
  0
VERTEX
  8
0
 10
2.3304
 20
6.63753
 30
0.0
 40
0
 41
0
  0
VERTEX
  8
0
 10
2.14312
 20
6.63753
 30
0.0
 40
0
 41
0
  0
VERTEX
  8
0
 10
2.14312
 20
7.0541
 30
0.0
 40
0
 41
0
  0
SEQEND
 8
0
  0
POLYLINE
  8
0
 62
     0
 66
     1
 10
0
 20
0
 30
0.0
 70
     1
 40
0.75
 41
0.75
  0
VERTEX
  8
0
 10
2.14312
 20
7.0541
 30
0.0
 40
0.0104167
 41
0.0104167
  0
VERTEX
  8
0
 10
2.14312
 20
6.63753
 30
0.0
 40
0.0104167
 41
0.0104167
  0
VERTEX
  8
0
 10
2.3304
 20
6.63753
 30
0.0
 40
0.0104167
 41
0.0104167
  0
VERTEX
  8
0
 10
2.3304
 20
7.0541
 30
0.0
 40
0.0104167
 41
0.0104167
  0
VERTEX
  8
0
 10
2.14312
 20
7.0541
 30
0.0
 40
0.0104167
 41
0.0104167
  0
SEQEND
 8
0
  0
POLYLINE
  8
0
 62
     7
 66
     1
 10
0
 20
0
 30
0.0
 70
     1
 40
0
 41
0
  0
VERTEX
  8
0
 10
2.59874
 20
7.0541
 30
0.0
 40
0
 41
0
  0
VERTEX
  8
0
 10
2.59874
 20
7.0541
 30
0.0
 40
0
 41
0
  0
VERTEX
  8
0
 10
2.61046
 20
7.05419
 30
0.0
 40
0
 41
0
  0
VERTEX
  8
0
 10
2.64144
 20
7.05257
 30
0.0
 40
0
 41
0
  0
VERTEX
  8
0
 10
2.68528
 20
7.04644
 30
0.0
 40
0
 41
0
  0
VERTEX
  8
0
 10
2.73551
 20
7.03304
 30
0.0
 40
0
 41
0
  0
VERTEX
  8
0
 10
2.78569
 20
7.0095
 30
0.0
 40
0
 41
0
  0
VERTEX
  8
0
 10
2.82954
 20
6.97304
 30
0.0
 40
0
 41
0
  0
VERTEX
  8
0
 10
2.86051
 20
6.92085
 30
0.0
 40
0
 41
0
  0
VERTEX
  8
0
 10
2.87229
 20
6.86778
 30
0.0
 40
0
 41
0
  0
VERTEX
  8
0
 10
2.87229
 20
6.8501
 30
0.0
 40
0
 41
0
  0
VERTEX
  8
0
 10
2.87229
 20
6.83182
 30
0.0
 40
0
 41
0
  0
VERTEX
  8
0
 10
2.86051
 20
6.77696
 30
0.0
 40
0
 41
0
  0
VERTEX
  8
0
 10
2.82954
 20
6.72288
 30
0.0
 40
0
 41
0
  0
VERTEX
  8
0
 10
2.78569
 20
6.68506
 30
0.0
 40
0
 41
0
  0
VERTEX
  8
0
 10
2.73551
 20
6.66064
 30
0.0
 40
0
 41
0
  0
VERTEX
  8
0
 10
2.68528
 20
6.64665
 30
0.0
 40
0
 41
0
  0
VERTEX
  8
0
 10
2.64144
 20
6.64025
 30
0.0
 40
0
 41
0
  0
VERTEX
  8
0
 10
2.61046
 20
6.63851
 30
0.0
 40
0
 41
0
  0
VERTEX
  8
0
 10
2.59874
 20
6.63857
 30
0.0
 40
0
 41
0
  0
VERTEX
  8
0
 10
2.59874
 20
6.63857
 30
0.0
 40
0
 41
0
  0
VERTEX
  8
0
 10
2.3304
 20
6.63753
 30
0.0
 40
0
 41
0
  0
VERTEX
  8
0
 10
2.3304
 20
7.0541
 30
0.0
 40
0
 41
0
  0
VERTEX
  8
0
 10
2.59874
 20
7.0541
 30
0.0
 40
0
 41
0
  0
SEQEND
 8
0
  0
POLYLINE
  8
0
 62
     0
 66
     1
 10
0
 20
0
 30
0.0
 70
     1
 40
0.75
 41
0.75
  0
VERTEX
  8
0
 10
2.59874
 20
7.0541
 30
0.0
 40
0.0104167
 41
0.0104167
  0
VERTEX
  8
0
 10
2.59874
 20
7.0541
 30
0.0
 40
0.0104167
 41
0.0104167
  0
VERTEX
  8
0
 10
2.61046
 20
7.05419
 30
0.0
 40
0.0104167
 41
0.0104167
  0
VERTEX
  8
0
 10
2.64144
 20
7.05257
 30
0.0
 40
0.0104167
 41
0.0104167
  0
VERTEX
  8
0
 10
2.68528
 20
7.04644
 30
0.0
 40
0.0104167
 41
0.0104167
  0
VERTEX
  8
0
 10
2.73551
 20
7.03304
 30
0.0
 40
0.0104167
 41
0.0104167
  0
VERTEX
  8
0
 10
2.78569
 20
7.0095
 30
0.0
 40
0.0104167
 41
0.0104167
  0
VERTEX
  8
0
 10
2.82954
 20
6.97304
 30
0.0
 40
0.0104167
 41
0.0104167
  0
VERTEX
  8
0
 10
2.86051
 20
6.92085
 30
0.0
 40
0.0104167
 41
0.0104167
  0
VERTEX
  8
0
 10
2.87229
 20
6.86778
 30
0.0
 40
0.0104167
 41
0.0104167
  0
VERTEX
  8
0
 10
2.87229
 20
6.8501
 30
0.0
 40
0.0104167
 41
0.0104167
  0
VERTEX
  8
0
 10
2.87229
 20
6.83182
 30
0.0
 40
0.0104167
 41
0.0104167
  0
VERTEX
  8
0
 10
2.86051
 20
6.77696
 30
0.0
 40
0.0104167
 41
0.0104167
  0
VERTEX
  8
0
 10
2.82954
 20
6.72288
 30
0.0
 40
0.0104167
 41
0.0104167
  0
VERTEX
  8
0
 10
2.78569
 20
6.68506
 30
0.0
 40
0.0104167
 41
0.0104167
  0
VERTEX
  8
0
 10
2.73551
 20
6.66064
 30
0.0
 40
0.0104167
 41
0.0104167
  0
VERTEX
  8
0
 10
2.68528
 20
6.64665
 30
0.0
 40
0.0104167
 41
0.0104167
  0
VERTEX
  8
0
 10
2.64144
 20
6.64025
 30
0.0
 40
0.0104167
 41
0.0104167
  0
VERTEX
  8
0
 10
2.61046
 20
6.63851
 30
0.0
 40
0.0104167
 41
0.0104167
  0
VERTEX
  8
0
 10
2.59874
 20
6.63857
 30
0.0
 40
0.0104167
 41
0.0104167
  0
VERTEX
  8
0
 10
2.59874
 20
6.63857
 30
0.0
 40
0.0104167
 41
0.0104167
  0
VERTEX
  8
0
 10
2.3304
 20
6.63753
 30
0.0
 40
0.0104167
 41
0.0104167
  0
VERTEX
  8
0
 10
2.3304
 20
7.0541
 30
0.0
 40
0.0104167
 41
0.0104167
  0
VERTEX
  8
0
 10
2.59874
 20
7.0541
 30
0.0
 40
0.0104167
 41
0.0104167
  0
SEQEND
 8
0
  0
POLYLINE
  8
0
 62
     7
 66
     1
 10
0
 20
0
 30
0.0
 70
     1
 40
0
 41
0
  0
VERTEX
  8
0
 10
2.22103
 20
6.8789
 30
0.0
 40
0
 41
0
  0
VERTEX
  8
0
 10
2.25256
 20
6.8789
 30
0.0
 40
0
 41
0
  0
VERTEX
  8
0
 10
2.25256
 20
6.81272
 30
0.0
 40
0
 41
0
  0
VERTEX
  8
0
 10
2.22103
 20
6.81272
 30
0.0
 40
0
 41
0
  0
VERTEX
  8
0
 10
2.22103
 20
6.8789
 30
0.0
 40
0
 41
0
  0
SEQEND
 8
0
  0
POLYLINE
  8
0
 62
     0
 66
     1
 10
0
 20
0
 30
0.0
 70
     1
 40
0.75
 41
0.75
  0
VERTEX
  8
0
 10
2.22103
 20
6.8789
 30
0.0
 40
0.0104167
 41
0.0104167
  0
VERTEX
  8
0
 10
2.22103
 20
6.81272
 30
0.0
 40
0.0104167
 41
0.0104167
  0
VERTEX
  8
0
 10
2.25256
 20
6.81272
 30
0.0
 40
0.0104167
 41
0.0104167
  0
VERTEX
  8
0
 10
2.25256
 20
6.8789
 30
0.0
 40
0.0104167
 41
0.0104167
  0
VERTEX
  8
0
 10
2.22103
 20
6.8789
 30
0.0
 40
0.0104167
 41
0.0104167
  0
SEQEND
 8
0
  0
POLYLINE
  8
0
 62
     7
 66
     1
 10
0
 20
0
 30
0.0
 70
     1
 40
0
 41
0
  0
VERTEX
  8
0
 10
2.84011
 20
6.45096
 30
0.0
 40
0
 41
0
  0
VERTEX
  8
0
 10
3.55849
 20
6.45096
 30
0.0
 40
0
 41
0
  0
VERTEX
  8
0
 10
3.55849
 20
5.97889
 30
0.0
 40
0
 41
0
  0
VERTEX
  8
0
 10
2.84011
 20
5.97889
 30
0.0
 40
0
 41
0
  0
VERTEX
  8
0
 10
2.84011
 20
6.45096
 30
0.0
 40
0
 41
0
  0
SEQEND
 8
0
  0
POLYLINE
  8
0
 62
     0
 66
     1
 10
0
 20
0
 30
0.0
 70
     1
 40
0.75
 41
0.75
  0
VERTEX
  8
0
 10
2.84011
 20
6.45096
 30
0.0
 40
0.0104167
 41
0.0104167
  0
VERTEX
  8
0
 10
3.55849
 20
6.45096
 30
0.0
 40
0.0104167
 41
0.0104167
  0
VERTEX
  8
0
 10
3.55849
 20
5.97889
 30
0.0
 40
0.0104167
 41
0.0104167
  0
VERTEX
  8
0
 10
2.84011
 20
5.97889
 30
0.0
 40
0.0104167
 41
0.0104167
  0
VERTEX
  8
0
 10
2.84011
 20
6.45096
 30
0.0
 40
0.0104167
 41
0.0104167
  0
SEQEND
 8
0
  0
POLYLINE
  8
0
 62
     7
 66
     1
 10
0
 20
0
 30
0.0
 70
     1
 40
0
 41
0
  0
VERTEX
  8
0
 10
2.8999
 20
6.40918
 30
0.0
 40
0
 41
0
  0
VERTEX
  8
0
 10
3.49858
 20
6.40918
 30
0.0
 40
0
 41
0
  0
VERTEX
  8
0
 10
3.49858
 20
6.07992
 30
0.0
 40
0
 41
0
  0
VERTEX
  8
0
 10
2.8999
 20
6.07992
 30
0.0
 40
0
 41
0
  0
VERTEX
  8
0
 10
2.8999
 20
6.40918
 30
0.0
 40
0
 41
0
  0
SEQEND
 8
0
  0
POLYLINE
  8
0
 62
     0
 66
     1
 10
0
 20
0
 30
0.0
 70
     1
 40
0.75
 41
0.75
  0
VERTEX
  8
0
 10
2.8999
 20
6.40918
 30
0.0
 40
0.0104167
 41
0.0104167
  0
VERTEX
  8
0
 10
3.49858
 20
6.40918
 30
0.0
 40
0.0104167
 41
0.0104167
  0
VERTEX
  8
0
 10
3.49858
 20
6.07992
 30
0.0
 40
0.0104167
 41
0.0104167
  0
VERTEX
  8
0
 10
2.8999
 20
6.07992
 30
0.0
 40
0.0104167
 41
0.0104167
  0
VERTEX
  8
0
 10
2.8999
 20
6.40918
 30
0.0
 40
0.0104167
 41
0.0104167
  0
SEQEND
 8
0
  0
POLYLINE
  8
0
 62
     7
 66
     1
 10
0
 20
0
 30
0.0
 70
     1
 40
0
 41
0
  0
VERTEX
  8
0
 10
3.16282
 20
6.23221
 30
0.0
 40
0
 41
0
  0
VERTEX
  8
0
 10
3.16282
 20
6.23867
 30
0.0
 40
0
 41
0
  0
VERTEX
  8
0
 10
3.17344
 20
6.25803
 30
0.0
 40
0
 41
0
  0
VERTEX
  8
0
 10
3.19282
 20
6.26867
 30
0.0
 40
0
 41
0
  0
VERTEX
  8
0
 10
3.19928
 20
6.26867
 30
0.0
 40
0
 41
0
  0
VERTEX
  8
0
 10
3.20568
 20
6.26867
 30
0.0
 40
0
 41
0
  0
VERTEX
  8
0
 10
3.22504
 20
6.25803
 30
0.0
 40
0
 41
0
  0
VERTEX
  8
0
 10
3.23574
 20
6.23867
 30
0.0
 40
0
 41
0
  0
VERTEX
  8
0
 10
3.23574
 20
6.23221
 30
0.0
 40
0
 41
0
  0
VERTEX
  8
0
 10
3.23574
 20
6.22581
 30
0.0
 40
0
 41
0
  0
VERTEX
  8
0
 10
3.22504
 20
6.20643
 30
0.0
 40
0
 41
0
  0
VERTEX
  8
0
 10
3.20568
 20
6.19575
 30
0.0
 40
0
 41
0
  0
VERTEX
  8
0
 10
3.19928
 20
6.19575
 30
0.0
 40
0
 41
0
  0
VERTEX
  8
0
 10
3.19282
 20
6.19575
 30
0.0
 40
0
 41
0
  0
VERTEX
  8
0
 10
3.17344
 20
6.20643
 30
0.0
 40
0
 41
0
  0
VERTEX
  8
0
 10
3.16282
 20
6.22581
 30
0.0
 40
0
 41
0
  0
VERTEX
  8
0
 10
3.16282
 20
6.23221
 30
0.0
 40
0
 41
0
  0
SEQEND
 8
0
  0
POLYLINE
  8
0
 62
     0
 66
     1
 10
0
 20
0
 30
0.0
 70
     1
 40
0.6
 41
0.6
  0
VERTEX
  8
0
 10
3.16282
 20
6.23221
 30
0.0
 40
0.00833333
 41
0.00833333
  0
VERTEX
  8
0
 10
3.16282
 20
6.23867
 30
0.0
 40
0.00833333
 41
0.00833333
  0
VERTEX
  8
0
 10
3.17344
 20
6.25803
 30
0.0
 40
0.00833333
 41
0.00833333
  0
VERTEX
  8
0
 10
3.19282
 20
6.26867
 30
0.0
 40
0.00833333
 41
0.00833333
  0
VERTEX
  8
0
 10
3.19928
 20
6.26867
 30
0.0
 40
0.00833333
 41
0.00833333
  0
VERTEX
  8
0
 10
3.20568
 20
6.26867
 30
0.0
 40
0.00833333
 41
0.00833333
  0
VERTEX
  8
0
 10
3.22504
 20
6.25803
 30
0.0
 40
0.00833333
 41
0.00833333
  0
VERTEX
  8
0
 10
3.23574
 20
6.23867
 30
0.0
 40
0.00833333
 41
0.00833333
  0
VERTEX
  8
0
 10
3.23574
 20
6.23221
 30
0.0
 40
0.00833333
 41
0.00833333
  0
VERTEX
  8
0
 10
3.23574
 20
6.22581
 30
0.0
 40
0.00833333
 41
0.00833333
  0
VERTEX
  8
0
 10
3.22504
 20
6.20643
 30
0.0
 40
0.00833333
 41
0.00833333
  0
VERTEX
  8
0
 10
3.20568
 20
6.19575
 30
0.0
 40
0.00833333
 41
0.00833333
  0
VERTEX
  8
0
 10
3.19928
 20
6.19575
 30
0.0
 40
0.00833333
 41
0.00833333
  0
VERTEX
  8
0
 10
3.19282
 20
6.19575
 30
0.0
 40
0.00833333
 41
0.00833333
  0
VERTEX
  8
0
 10
3.17344
 20
6.20643
 30
0.0
 40
0.00833333
 41
0.00833333
  0
VERTEX
  8
0
 10
3.16282
 20
6.22581
 30
0.0
 40
0.00833333
 41
0.00833333
  0
VERTEX
  8
0
 10
3.16282
 20
6.23221
 30
0.0
 40
0.00833333
 41
0.00833333
  0
SEQEND
 8
0
  0
POLYLINE
  8
0
 62
     7
 66
     1
 10
0
 20
0
 30
0.0
 70
     1
 40
0
 41
0
  0
VERTEX
  8
0
 10
3.17844
 20
6.23221
 30
0.0
 40
0
 41
0
  0
VERTEX
  8
0
 10
3.17844
 20
6.23589
 30
0.0
 40
0
 41
0
  0
VERTEX
  8
0
 10
3.18451
 20
6.24696
 30
0.0
 40
0
 41
0
  0
VERTEX
  8
0
 10
3.19558
 20
6.25304
 30
0.0
 40
0
 41
0
  0
VERTEX
  8
0
 10
3.19928
 20
6.25304
 30
0.0
 40
0
 41
0
  0
VERTEX
  8
0
 10
3.2029
 20
6.25304
 30
0.0
 40
0
 41
0
  0
VERTEX
  8
0
 10
3.21397
 20
6.24696
 30
0.0
 40
0
 41
0
  0
VERTEX
  8
0
 10
3.22011
 20
6.23589
 30
0.0
 40
0
 41
0
  0
VERTEX
  8
0
 10
3.22011
 20
6.23221
 30
0.0
 40
0
 41
0
  0
VERTEX
  8
0
 10
3.22011
 20
6.22857
 30
0.0
 40
0
 41
0
  0
VERTEX
  8
0
 10
3.21397
 20
6.2175
 30
0.0
 40
0
 41
0
  0
VERTEX
  8
0
 10
3.2029
 20
6.21137
 30
0.0
 40
0
 41
0
  0
VERTEX
  8
0
 10
3.19928
 20
6.21137
 30
0.0
 40
0
 41
0
  0
VERTEX
  8
0
 10
3.19558
 20
6.21137
 30
0.0
 40
0
 41
0
  0
VERTEX
  8
0
 10
3.18451
 20
6.2175
 30
0.0
 40
0
 41
0
  0
VERTEX
  8
0
 10
3.17844
 20
6.22857
 30
0.0
 40
0
 41
0
  0
VERTEX
  8
0
 10
3.17844
 20
6.23221
 30
0.0
 40
0
 41
0
  0
SEQEND
 8
0
  0
POLYLINE
  8
0
 62
     0
 66
     1
 10
0
 20
0
 30
0.0
 70
     1
 40
0.6
 41
0.6
  0
VERTEX
  8
0
 10
3.17844
 20
6.23221
 30
0.0
 40
0.00833333
 41
0.00833333
  0
VERTEX
  8
0
 10
3.17844
 20
6.23589
 30
0.0
 40
0.00833333
 41
0.00833333
  0
VERTEX
  8
0
 10
3.18451
 20
6.24696
 30
0.0
 40
0.00833333
 41
0.00833333
  0
VERTEX
  8
0
 10
3.19558
 20
6.25304
 30
0.0
 40
0.00833333
 41
0.00833333
  0
VERTEX
  8
0
 10
3.19928
 20
6.25304
 30
0.0
 40
0.00833333
 41
0.00833333
  0
VERTEX
  8
0
 10
3.2029
 20
6.25304
 30
0.0
 40
0.00833333
 41
0.00833333
  0
VERTEX
  8
0
 10
3.21397
 20
6.24696
 30
0.0
 40
0.00833333
 41
0.00833333
  0
VERTEX
  8
0
 10
3.22011
 20
6.23589
 30
0.0
 40
0.00833333
 41
0.00833333
  0
VERTEX
  8
0
 10
3.22011
 20
6.23221
 30
0.0
 40
0.00833333
 41
0.00833333
  0
VERTEX
  8
0
 10
3.22011
 20
6.22857
 30
0.0
 40
0.00833333
 41
0.00833333
  0
VERTEX
  8
0
 10
3.21397
 20
6.2175
 30
0.0
 40
0.00833333
 41
0.00833333
  0
VERTEX
  8
0
 10
3.2029
 20
6.21137
 30
0.0
 40
0.00833333
 41
0.00833333
  0
VERTEX
  8
0
 10
3.19928
 20
6.21137
 30
0.0
 40
0.00833333
 41
0.00833333
  0
VERTEX
  8
0
 10
3.19558
 20
6.21137
 30
0.0
 40
0.00833333
 41
0.00833333
  0
VERTEX
  8
0
 10
3.18451
 20
6.2175
 30
0.0
 40
0.00833333
 41
0.00833333
  0
VERTEX
  8
0
 10
3.17844
 20
6.22857
 30
0.0
 40
0.00833333
 41
0.00833333
  0
VERTEX
  8
0
 10
3.17844
 20
6.23221
 30
0.0
 40
0.00833333
 41
0.00833333
  0
SEQEND
 8
0
  0
POLYLINE
  8
0
 62
     7
 66
     1
 10
0
 20
0
 30
0.0
 70
     1
 40
0
 41
0
  0
VERTEX
  8
0
 10
3.17275
 20
6.16407
 30
0.0
 40
0
 41
0
  0
VERTEX
  8
0
 10
3.23525
 20
6.16407
 30
0.0
 40
0
 41
0
  0
VERTEX
  8
0
 10
3.23525
 20
6.01824
 30
0.0
 40
0
 41
0
  0
VERTEX
  8
0
 10
3.17275
 20
6.01824
 30
0.0
 40
0
 41
0
  0
VERTEX
  8
0
 10
3.17275
 20
6.16407
 30
0.0
 40
0
 41
0
  0
SEQEND
 8
0
  0
POLYLINE
  8
0
 62
     0
 66
     1
 10
0
 20
0
 30
0.0
 70
     1
 40
0.75
 41
0.75
  0
VERTEX
  8
0
 10
3.17275
 20
6.16407
 30
0.0
 40
0.0104167
 41
0.0104167
  0
VERTEX
  8
0
 10
3.23525
 20
6.16407
 30
0.0
 40
0.0104167
 41
0.0104167
  0
VERTEX
  8
0
 10
3.23525
 20
6.01824
 30
0.0
 40
0.0104167
 41
0.0104167
  0
VERTEX
  8
0
 10
3.17275
 20
6.01824
 30
0.0
 40
0.0104167
 41
0.0104167
  0
VERTEX
  8
0
 10
3.17275
 20
6.16407
 30
0.0
 40
0.0104167
 41
0.0104167
  0
SEQEND
 8
0
  0
POLYLINE
  8
0
 62
     7
 66
     1
 10
0
 20
0
 30
0.0
 70
     1
 40
0
 41
0
  0
VERTEX
  8
0
 10
3.67307
 20
3.86697
 30
0.0
 40
0
 41
0
  0
VERTEX
  8
0
 10
4.29807
 20
3.86697
 30
0.0
 40
0
 41
0
  0
VERTEX
  8
0
 10
4.29807
 20
3.33524
 30
0.0
 40
0
 41
0
  0
VERTEX
  8
0
 10
3.67307
 20
3.33524
 30
0.0
 40
0
 41
0
  0
VERTEX
  8
0
 10
3.67307
 20
3.86697
 30
0.0
 40
0
 41
0
  0
SEQEND
 8
0
  0
POLYLINE
  8
0
 62
     0
 66
     1
 10
0
 20
0
 30
0.0
 70
     1
 40
0.75
 41
0.75
  0
VERTEX
  8
0
 10
3.67307
 20
3.86697
 30
0.0
 40
0.0104167
 41
0.0104167
  0
VERTEX
  8
0
 10
3.67307
 20
3.33524
 30
0.0
 40
0.0104167
 41
0.0104167
  0
VERTEX
  8
0
 10
4.29807
 20
3.33524
 30
0.0
 40
0.0104167
 41
0.0104167
  0
VERTEX
  8
0
 10
4.29807
 20
3.86697
 30
0.0
 40
0.0104167
 41
0.0104167
  0
VERTEX
  8
0
 10
3.67307
 20
3.86697
 30
0.0
 40
0.0104167
 41
0.0104167
  0
SEQEND
 8
0
  0
POLYLINE
  8
0
 62
     7
 66
     1
 10
0
 20
0
 30
0.0
 70
     1
 40
0
 41
0
  0
VERTEX
  8
0
 10
3.67307
 20
4.89936
 30
0.0
 40
0
 41
0
  0
VERTEX
  8
0
 10
4.29807
 20
4.89936
 30
0.0
 40
0
 41
0
  0
VERTEX
  8
0
 10
4.29807
 20
3.86697
 30
0.0
 40
0
 41
0
  0
VERTEX
  8
0
 10
3.67307
 20
3.86697
 30
0.0
 40
0
 41
0
  0
VERTEX
  8
0
 10
3.67307
 20
4.89936
 30
0.0
 40
0
 41
0
  0
SEQEND
 8
0
  0
POLYLINE
  8
0
 62
     0
 66
     1
 10
0
 20
0
 30
0.0
 70
     1
 40
0.75
 41
0.75
  0
VERTEX
  8
0
 10
3.67307
 20
4.89936
 30
0.0
 40
0.0104167
 41
0.0104167
  0
VERTEX
  8
0
 10
3.67307
 20
3.86697
 30
0.0
 40
0.0104167
 41
0.0104167
  0
VERTEX
  8
0
 10
4.29807
 20
3.86697
 30
0.0
 40
0.0104167
 41
0.0104167
  0
VERTEX
  8
0
 10
4.29807
 20
4.89936
 30
0.0
 40
0.0104167
 41
0.0104167
  0
VERTEX
  8
0
 10
3.67307
 20
4.89936
 30
0.0
 40
0.0104167
 41
0.0104167
  0
SEQEND
 8
0
  0
POLYLINE
  8
0
 62
     253
 66
     1
 10
0
 20
0
 30
0.0
 40
0.75
 41
0.75
  0
VERTEX
  8
0
 10
3.98557
 20
3.86697
 30
0.0
 40
0.0104167
 41
0.0104167
  0
VERTEX
  8
0
 10
3.98557
 20
4.89936
 30
0.0
 40
0.0104167
 41
0.0104167
  0
SEQEND
 8
0
  0
POLYLINE
  8
0
 62
     7
 66
     1
 10
0
 20
0
 30
0.0
 70
     1
 40
0
 41
0
  0
VERTEX
  8
0
 10
6.5541
 20
7.91775
 30
0.0
 40
0
 41
0
  0
VERTEX
  8
0
 10
6.67074
 20
7.91775
 30
0.0
 40
0
 41
0
  0
VERTEX
  8
0
 10
6.67074
 20
7.85422
 30
0.0
 40
0
 41
0
  0
VERTEX
  8
0
 10
6.5541
 20
7.85422
 30
0.0
 40
0
 41
0
  0
VERTEX
  8
0
 10
6.5541
 20
7.91775
 30
0.0
 40
0
 41
0
  0
SEQEND
 8
0
  0
POLYLINE
  8
0
 62
     0
 66
     1
 10
0
 20
0
 30
0.0
 70
     1
 40
0.75
 41
0.75
  0
VERTEX
  8
0
 10
6.5541
 20
7.91775
 30
0.0
 40
0.0104167
 41
0.0104167
  0
VERTEX
  8
0
 10
6.67074
 20
7.91775
 30
0.0
 40
0.0104167
 41
0.0104167
  0
VERTEX
  8
0
 10
6.67074
 20
7.85422
 30
0.0
 40
0.0104167
 41
0.0104167
  0
VERTEX
  8
0
 10
6.5541
 20
7.85422
 30
0.0
 40
0.0104167
 41
0.0104167
  0
VERTEX
  8
0
 10
6.5541
 20
7.91775
 30
0.0
 40
0.0104167
 41
0.0104167
  0
SEQEND
 8
0
  0
POLYLINE
  8
0
 62
     7
 66
     1
 10
0
 20
0
 30
0.0
 70
     1
 40
0
 41
0
  0
VERTEX
  8
0
 10
6.69889
 20
7.91775
 30
0.0
 40
0
 41
0
  0
VERTEX
  8
0
 10
6.81554
 20
7.91775
 30
0.0
 40
0
 41
0
  0
VERTEX
  8
0
 10
6.81554
 20
7.85422
 30
0.0
 40
0
 41
0
  0
VERTEX
  8
0
 10
6.69889
 20
7.85422
 30
0.0
 40
0
 41
0
  0
VERTEX
  8
0
 10
6.69889
 20
7.91775
 30
0.0
 40
0
 41
0
  0
SEQEND
 8
0
  0
POLYLINE
  8
0
 62
     0
 66
     1
 10
0
 20
0
 30
0.0
 70
     1
 40
0.75
 41
0.75
  0
VERTEX
  8
0
 10
6.69889
 20
7.91775
 30
0.0
 40
0.0104167
 41
0.0104167
  0
VERTEX
  8
0
 10
6.81554
 20
7.91775
 30
0.0
 40
0.0104167
 41
0.0104167
  0
VERTEX
  8
0
 10
6.81554
 20
7.85422
 30
0.0
 40
0.0104167
 41
0.0104167
  0
VERTEX
  8
0
 10
6.69889
 20
7.85422
 30
0.0
 40
0.0104167
 41
0.0104167
  0
VERTEX
  8
0
 10
6.69889
 20
7.91775
 30
0.0
 40
0.0104167
 41
0.0104167
  0
SEQEND
 8
0
  0
POLYLINE
  8
0
 62
     7
 66
     1
 10
0
 20
0
 30
0.0
 70
     1
 40
0
 41
0
  0
VERTEX
  8
0
 10
6.81451
 20
7.91775
 30
0.0
 40
0
 41
0
  0
VERTEX
  8
0
 10
6.84993
 20
7.91775
 30
0.0
 40
0
 41
0
  0
VERTEX
  8
0
 10
6.84993
 20
7.85422
 30
0.0
 40
0
 41
0
  0
VERTEX
  8
0
 10
6.81451
 20
7.85422
 30
0.0
 40
0
 41
0
  0
VERTEX
  8
0
 10
6.81451
 20
7.91775
 30
0.0
 40
0
 41
0
  0
SEQEND
 8
0
  0
POLYLINE
  8
0
 62
     0
 66
     1
 10
0
 20
0
 30
0.0
 70
     1
 40
0.75
 41
0.75
  0
VERTEX
  8
0
 10
6.81451
 20
7.91775
 30
0.0
 40
0.0104167
 41
0.0104167
  0
VERTEX
  8
0
 10
6.84993
 20
7.91775
 30
0.0
 40
0.0104167
 41
0.0104167
  0
VERTEX
  8
0
 10
6.84993
 20
7.85422
 30
0.0
 40
0.0104167
 41
0.0104167
  0
VERTEX
  8
0
 10
6.81451
 20
7.85422
 30
0.0
 40
0.0104167
 41
0.0104167
  0
VERTEX
  8
0
 10
6.81451
 20
7.91775
 30
0.0
 40
0.0104167
 41
0.0104167
  0
SEQEND
 8
0
  0
POLYLINE
  8
0
 62
     7
 66
     1
 10
0
 20
0
 30
0.0
 70
     1
 40
0
 41
0
  0
VERTEX
  8
0
 10
6.52078
 20
7.91775
 30
0.0
 40
0
 41
0
  0
VERTEX
  8
0
 10
6.5541
 20
7.91775
 30
0.0
 40
0
 41
0
  0
VERTEX
  8
0
 10
6.5541
 20
7.85422
 30
0.0
 40
0
 41
0
  0
VERTEX
  8
0
 10
6.52078
 20
7.85422
 30
0.0
 40
0
 41
0
  0
VERTEX
  8
0
 10
6.52078
 20
7.91775
 30
0.0
 40
0
 41
0
  0
SEQEND
 8
0
  0
POLYLINE
  8
0
 62
     0
 66
     1
 10
0
 20
0
 30
0.0
 70
     1
 40
0.75
 41
0.75
  0
VERTEX
  8
0
 10
6.52078
 20
7.91775
 30
0.0
 40
0.0104167
 41
0.0104167
  0
VERTEX
  8
0
 10
6.5541
 20
7.91775
 30
0.0
 40
0.0104167
 41
0.0104167
  0
VERTEX
  8
0
 10
6.5541
 20
7.85422
 30
0.0
 40
0.0104167
 41
0.0104167
  0
VERTEX
  8
0
 10
6.52078
 20
7.85422
 30
0.0
 40
0.0104167
 41
0.0104167
  0
VERTEX
  8
0
 10
6.52078
 20
7.91775
 30
0.0
 40
0.0104167
 41
0.0104167
  0
SEQEND
 8
0
  0
POLYLINE
  8
0
 62
     7
 66
     1
 10
0
 20
0
 30
0.0
 70
     1
 40
0
 41
0
  0
VERTEX
  8
0
 10
6.67074
 20
7.83442
 30
0.0
 40
0
 41
0
  0
VERTEX
  8
0
 10
6.67074
 20
7.82813
 30
0.0
 40
0
 41
0
  0
VERTEX
  8
0
 10
6.6671
 20
7.80919
 30
0.0
 40
0
 41
0
  0
VERTEX
  8
0
 10
6.65717
 20
7.78678
 30
0.0
 40
0
 41
0
  0
VERTEX
  8
0
 10
6.65408
 20
7.78233
 30
0.0
 40
0
 41
0
  0
VERTEX
  8
0
 10
6.653
 20
7.78082
 30
0.0
 40
0
 41
0
  0
VERTEX
  8
0
 10
6.64285
 20
7.76622
 30
0.0
 40
0
 41
0
  0
VERTEX
  8
0
 10
6.64264
 20
7.76465
 30
0.0
 40
0
 41
0
  0
VERTEX
  8
0
 10
6.64208
 20
7.76183
 30
0.0
 40
0
 41
0
  0
VERTEX
  8
0
 10
6.64626
 20
7.74528
 30
0.0
 40
0
 41
0
  0
VERTEX
  8
0
 10
6.66292
 20
7.73236
 30
0.0
 40
0
 41
0
  0
VERTEX
  8
0
 10
6.66868
 20
7.73128
 30
0.0
 40
0
 41
0
  0
VERTEX
  8
0
 10
6.66997
 20
7.73107
 30
0.0
 40
0
 41
0
  0
VERTEX
  8
0
 10
6.68147
 20
7.73025
 30
0.0
 40
0
 41
0
  0
VERTEX
  8
0
 10
6.68533
 20
7.73025
 30
0.0
 40
0
 41
0
  0
VERTEX
  8
0
 10
6.68431
 20
7.73025
 30
0.0
 40
0
 41
0
  0
VERTEX
  8
0
 10
6.68842
 20
7.73025
 30
0.0
 40
0
 41
0
  0
VERTEX
  8
0
 10
6.69965
 20
7.73107
 30
0.0
 40
0
 41
0
  0
VERTEX
  8
0
 10
6.70096
 20
7.73128
 30
0.0
 40
0
 41
0
  0
VERTEX
  8
0
 10
6.70665
 20
7.73236
 30
0.0
 40
0
 41
0
  0
VERTEX
  8
0
 10
6.72336
 20
7.74528
 30
0.0
 40
0
 41
0
  0
VERTEX
  8
0
 10
6.72749
 20
7.76183
 30
0.0
 40
0
 41
0
  0
VERTEX
  8
0
 10
6.727
 20
7.76465
 30
0.0
 40
0
 41
0
  0
VERTEX
  8
0
 10
6.72672
 20
7.76622
 30
0.0
 40
0
 41
0
  0
VERTEX
  8
0
 10
6.71658
 20
7.78082
 30
0.0
 40
0
 41
0
  0
VERTEX
  8
0
 10
6.71556
 20
7.78233
 30
0.0
 40
0
 41
0
  0
VERTEX
  8
0
 10
6.7124
 20
7.78678
 30
0.0
 40
0
 41
0
  0
VERTEX
  8
0
 10
6.70253
 20
7.80919
 30
0.0
 40
0
 41
0
  0
VERTEX
  8
0
 10
6.69889
 20
7.82813
 30
0.0
 40
0
 41
0
  0
VERTEX
  8
0
 10
6.69889
 20
7.83442
 30
0.0
 40
0
 41
0
  0
SEQEND
 8
0
  0
POLYLINE
  8
0
 62
     0
 66
     1
 10
0
 20
0
 30
0.0
 40
0.75
 41
0.75
  0
VERTEX
  8
0
 10
6.67074
 20
7.83442
 30
0.0
 40
0.0104167
 41
0.0104167
  0
VERTEX
  8
0
 10
6.67074
 20
7.82813
 30
0.0
 40
0.0104167
 41
0.0104167
  0
VERTEX
  8
0
 10
6.6671
 20
7.80919
 30
0.0
 40
0.0104167
 41
0.0104167
  0
VERTEX
  8
0
 10
6.65717
 20
7.78678
 30
0.0
 40
0.0104167
 41
0.0104167
  0
VERTEX
  8
0
 10
6.65408
 20
7.78233
 30
0.0
 40
0.0104167
 41
0.0104167
  0
VERTEX
  8
0
 10
6.653
 20
7.78082
 30
0.0
 40
0.0104167
 41
0.0104167
  0
VERTEX
  8
0
 10
6.64285
 20
7.76622
 30
0.0
 40
0.0104167
 41
0.0104167
  0
VERTEX
  8
0
 10
6.64264
 20
7.76465
 30
0.0
 40
0.0104167
 41
0.0104167
  0
VERTEX
  8
0
 10
6.64208
 20
7.76183
 30
0.0
 40
0.0104167
 41
0.0104167
  0
VERTEX
  8
0
 10
6.64626
 20
7.74528
 30
0.0
 40
0.0104167
 41
0.0104167
  0
VERTEX
  8
0
 10
6.66292
 20
7.73236
 30
0.0
 40
0.0104167
 41
0.0104167
  0
VERTEX
  8
0
 10
6.66868
 20
7.73128
 30
0.0
 40
0.0104167
 41
0.0104167
  0
VERTEX
  8
0
 10
6.66997
 20
7.73107
 30
0.0
 40
0.0104167
 41
0.0104167
  0
VERTEX
  8
0
 10
6.68147
 20
7.73025
 30
0.0
 40
0.0104167
 41
0.0104167
  0
VERTEX
  8
0
 10
6.68533
 20
7.73025
 30
0.0
 40
0.0104167
 41
0.0104167
  0
VERTEX
  8
0
 10
6.68431
 20
7.73025
 30
0.0
 40
0.0104167
 41
0.0104167
  0
VERTEX
  8
0
 10
6.68842
 20
7.73025
 30
0.0
 40
0.0104167
 41
0.0104167
  0
VERTEX
  8
0
 10
6.69965
 20
7.73107
 30
0.0
 40
0.0104167
 41
0.0104167
  0
VERTEX
  8
0
 10
6.70096
 20
7.73128
 30
0.0
 40
0.0104167
 41
0.0104167
  0
VERTEX
  8
0
 10
6.70665
 20
7.73236
 30
0.0
 40
0.0104167
 41
0.0104167
  0
VERTEX
  8
0
 10
6.72336
 20
7.74528
 30
0.0
 40
0.0104167
 41
0.0104167
  0
VERTEX
  8
0
 10
6.72749
 20
7.76183
 30
0.0
 40
0.0104167
 41
0.0104167
  0
VERTEX
  8
0
 10
6.727
 20
7.76465
 30
0.0
 40
0.0104167
 41
0.0104167
  0
VERTEX
  8
0
 10
6.72672
 20
7.76622
 30
0.0
 40
0.0104167
 41
0.0104167
  0
VERTEX
  8
0
 10
6.71658
 20
7.78082
 30
0.0
 40
0.0104167
 41
0.0104167
  0
VERTEX
  8
0
 10
6.71556
 20
7.78233
 30
0.0
 40
0.0104167
 41
0.0104167
  0
VERTEX
  8
0
 10
6.7124
 20
7.78678
 30
0.0
 40
0.0104167
 41
0.0104167
  0
VERTEX
  8
0
 10
6.70253
 20
7.80919
 30
0.0
 40
0.0104167
 41
0.0104167
  0
VERTEX
  8
0
 10
6.69889
 20
7.82813
 30
0.0
 40
0.0104167
 41
0.0104167
  0
VERTEX
  8
0
 10
6.69889
 20
7.83442
 30
0.0
 40
0.0104167
 41
0.0104167
  0
SEQEND
 8
0
  0
POLYLINE
  8
0
 62
     7
 66
     1
 10
0
 20
0
 30
0.0
 70
     1
 40
0
 41
0
  0
VERTEX
  8
0
 10
6.64264
 20
7.76361
 30
0.0
 40
0
 41
0
  0
VERTEX
  8
0
 10
6.64285
 20
7.76313
 30
0.0
 40
0
 41
0
  0
VERTEX
  8
0
 10
6.65474
 20
7.75293
 30
0.0
 40
0
 41
0
  0
VERTEX
  8
0
 10
6.67844
 20
7.74382
 30
0.0
 40
0
 41
0
  0
VERTEX
  8
0
 10
6.68636
 20
7.74382
 30
0.0
 40
0
 41
0
  0
VERTEX
  8
0
 10
6.6926
 20
7.74408
 30
0.0
 40
0
 41
0
  0
VERTEX
  8
0
 10
6.71528
 20
7.75331
 30
0.0
 40
0
 41
0
  0
VERTEX
  8
0
 10
6.72646
 20
7.76313
 30
0.0
 40
0
 41
0
  0
VERTEX
  8
0
 10
6.727
 20
7.76361
 30
0.0
 40
0
 41
0
  0
SEQEND
 8
0
  0
POLYLINE
  8
0
 62
     0
 66
     1
 10
0
 20
0
 30
0.0
 40
0.75
 41
0.75
  0
VERTEX
  8
0
 10
6.64264
 20
7.76361
 30
0.0
 40
0.0104167
 41
0.0104167
  0
VERTEX
  8
0
 10
6.64285
 20
7.76313
 30
0.0
 40
0.0104167
 41
0.0104167
  0
VERTEX
  8
0
 10
6.65474
 20
7.75293
 30
0.0
 40
0.0104167
 41
0.0104167
  0
VERTEX
  8
0
 10
6.67844
 20
7.74382
 30
0.0
 40
0.0104167
 41
0.0104167
  0
VERTEX
  8
0
 10
6.68636
 20
7.74382
 30
0.0
 40
0.0104167
 41
0.0104167
  0
VERTEX
  8
0
 10
6.6926
 20
7.74408
 30
0.0
 40
0.0104167
 41
0.0104167
  0
VERTEX
  8
0
 10
6.71528
 20
7.75331
 30
0.0
 40
0.0104167
 41
0.0104167
  0
VERTEX
  8
0
 10
6.72646
 20
7.76313
 30
0.0
 40
0.0104167
 41
0.0104167
  0
VERTEX
  8
0
 10
6.727
 20
7.76361
 30
0.0
 40
0.0104167
 41
0.0104167
  0
SEQEND
 8
0
  0
POLYLINE
  8
0
 62
     7
 66
     1
 10
0
 20
0
 30
0.0
 70
     1
 40
0
 41
0
  0
VERTEX
  8
0
 10
6.67074
 20
7.91775
 30
0.0
 40
0
 41
0
  0
VERTEX
  8
0
 10
6.69889
 20
7.91775
 30
0.0
 40
0
 41
0
  0
VERTEX
  8
0
 10
6.69889
 20
7.83442
 30
0.0
 40
0
 41
0
  0
VERTEX
  8
0
 10
6.69185
 20
7.83442
 30
0.0
 40
0
 41
0
  0
VERTEX
  8
0
 10
6.676
 20
7.83442
 30
0.0
 40
0
 41
0
  0
VERTEX
  8
0
 10
6.67074
 20
7.83442
 30
0.0
 40
0
 41
0
  0
VERTEX
  8
0
 10
6.67074
 20
7.85525
 30
0.0
 40
0
 41
0
  0
VERTEX
  8
0
 10
6.67074
 20
7.90213
 30
0.0
 40
0
 41
0
  0
VERTEX
  8
0
 10
6.67074
 20
7.91775
 30
0.0
 40
0
 41
0
  0
SEQEND
 8
0
  0
POLYLINE
  8
0
 62
     0
 66
     1
 10
0
 20
0
 30
0.0
 70
     1
 40
0.75
 41
0.75
  0
VERTEX
  8
0
 10
6.67074
 20
7.91775
 30
0.0
 40
0.0104167
 41
0.0104167
  0
VERTEX
  8
0
 10
6.69889
 20
7.91775
 30
0.0
 40
0.0104167
 41
0.0104167
  0
VERTEX
  8
0
 10
6.69889
 20
7.83442
 30
0.0
 40
0.0104167
 41
0.0104167
  0
VERTEX
  8
0
 10
6.69185
 20
7.83442
 30
0.0
 40
0.0104167
 41
0.0104167
  0
VERTEX
  8
0
 10
6.676
 20
7.83442
 30
0.0
 40
0.0104167
 41
0.0104167
  0
VERTEX
  8
0
 10
6.67074
 20
7.83442
 30
0.0
 40
0.0104167
 41
0.0104167
  0
VERTEX
  8
0
 10
6.67074
 20
7.85525
 30
0.0
 40
0.0104167
 41
0.0104167
  0
VERTEX
  8
0
 10
6.67074
 20
7.90213
 30
0.0
 40
0.0104167
 41
0.0104167
  0
VERTEX
  8
0
 10
6.67074
 20
7.91775
 30
0.0
 40
0.0104167
 41
0.0104167
  0
SEQEND
 8
0
  0
POLYLINE
  8
0
 62
     7
 66
     1
 10
0
 20
0
 30
0.0
 70
     1
 40
0
 41
0
  0
VERTEX
  8
0
 10
6.5541
 20
7.88547
 30
0.0
 40
0
 41
0
  0
VERTEX
  8
0
 10
6.55729
 20
7.88672
 30
0.0
 40
0
 41
0
  0
VERTEX
  8
0
 10
6.56694
 20
7.89057
 30
0.0
 40
0
 41
0
  0
VERTEX
  8
0
 10
6.56972
 20
7.89171
 30
0.0
 40
0
 41
0
  0
VERTEX
  8
0
 10
6.56972
 20
7.89171
 30
0.0
 40
0
 41
0
  0
VERTEX
  8
0
 10
6.56972
 20
7.89031
 30
0.0
 40
0
 41
0
  0
VERTEX
  8
0
 10
6.56972
 20
7.88601
 30
0.0
 40
0
 41
0
  0
VERTEX
  8
0
 10
6.56972
 20
7.88172
 30
0.0
 40
0
 41
0
  0
VERTEX
  8
0
 10
6.56972
 20
7.88026
 30
0.0
 40
0
 41
0
  0
VERTEX
  8
0
 10
6.56972
 20
7.88026
 30
0.0
 40
0
 41
0
  0
VERTEX
  8
0
 10
6.56733
 20
7.88092
 30
0.0
 40
0
 41
0
  0
VERTEX
  8
0
 10
6.55735
 20
7.88433
 30
0.0
 40
0
 41
0
  0
VERTEX
  8
0
 10
6.5541
 20
7.88547
 30
0.0
 40
0
 41
0
  0
SEQEND
 8
0
  0
POLYLINE
  8
0
 62
     0
 66
     1
 10
0
 20
0
 30
0.0
 70
     1
 40
0.75
 41
0.75
  0
VERTEX
  8
0
 10
6.5541
 20
7.88547
 30
0.0
 40
0.0104167
 41
0.0104167
  0
VERTEX
  8
0
 10
6.55729
 20
7.88672
 30
0.0
 40
0.0104167
 41
0.0104167
  0
VERTEX
  8
0
 10
6.56694
 20
7.89057
 30
0.0
 40
0.0104167
 41
0.0104167
  0
VERTEX
  8
0
 10
6.56972
 20
7.89171
 30
0.0
 40
0.0104167
 41
0.0104167
  0
VERTEX
  8
0
 10
6.56972
 20
7.89171
 30
0.0
 40
0.0104167
 41
0.0104167
  0
VERTEX
  8
0
 10
6.56972
 20
7.89031
 30
0.0
 40
0.0104167
 41
0.0104167
  0
VERTEX
  8
0
 10
6.56972
 20
7.88601
 30
0.0
 40
0.0104167
 41
0.0104167
  0
VERTEX
  8
0
 10
6.56972
 20
7.88172
 30
0.0
 40
0.0104167
 41
0.0104167
  0
VERTEX
  8
0
 10
6.56972
 20
7.88026
 30
0.0
 40
0.0104167
 41
0.0104167
  0
VERTEX
  8
0
 10
6.56972
 20
7.88026
 30
0.0
 40
0.0104167
 41
0.0104167
  0
VERTEX
  8
0
 10
6.56733
 20
7.88092
 30
0.0
 40
0.0104167
 41
0.0104167
  0
VERTEX
  8
0
 10
6.55735
 20
7.88433
 30
0.0
 40
0.0104167
 41
0.0104167
  0
VERTEX
  8
0
 10
6.5541
 20
7.88547
 30
0.0
 40
0.0104167
 41
0.0104167
  0
SEQEND
 8
0
  0
POLYLINE
  8
0
 62
     7
 66
     1
 10
0
 20
0
 30
0.0
 70
     1
 40
0
 41
0
  0
VERTEX
  8
0
 10
6.81451
 20
7.88547
 30
0.0
 40
0
 41
0
  0
VERTEX
  8
0
 10
6.81125
 20
7.88672
 30
0.0
 40
0
 41
0
  0
VERTEX
  8
0
 10
6.8016
 20
7.89057
 30
0.0
 40
0
 41
0
  0
VERTEX
  8
0
 10
6.79889
 20
7.89171
 30
0.0
 40
0
 41
0
  0
VERTEX
  8
0
 10
6.79889
 20
7.89171
 30
0.0
 40
0
 41
0
  0
VERTEX
  8
0
 10
6.79889
 20
7.89031
 30
0.0
 40
0
 41
0
  0
VERTEX
  8
0
 10
6.79889
 20
7.88601
 30
0.0
 40
0
 41
0
  0
VERTEX
  8
0
 10
6.79889
 20
7.88172
 30
0.0
 40
0
 41
0
  0
VERTEX
  8
0
 10
6.79889
 20
7.88026
 30
0.0
 40
0
 41
0
  0
VERTEX
  8
0
 10
6.79889
 20
7.88026
 30
0.0
 40
0
 41
0
  0
VERTEX
  8
0
 10
6.80122
 20
7.88092
 30
0.0
 40
0
 41
0
  0
VERTEX
  8
0
 10
6.81119
 20
7.88433
 30
0.0
 40
0
 41
0
  0
VERTEX
  8
0
 10
6.81451
 20
7.88547
 30
0.0
 40
0
 41
0
  0
SEQEND
 8
0
  0
POLYLINE
  8
0
 62
     0
 66
     1
 10
0
 20
0
 30
0.0
 70
     1
 40
0.75
 41
0.75
  0
VERTEX
  8
0
 10
6.81451
 20
7.88547
 30
0.0
 40
0.0104167
 41
0.0104167
  0
VERTEX
  8
0
 10
6.81125
 20
7.88672
 30
0.0
 40
0.0104167
 41
0.0104167
  0
VERTEX
  8
0
 10
6.8016
 20
7.89057
 30
0.0
 40
0.0104167
 41
0.0104167
  0
VERTEX
  8
0
 10
6.79889
 20
7.89171
 30
0.0
 40
0.0104167
 41
0.0104167
  0
VERTEX
  8
0
 10
6.79889
 20
7.89171
 30
0.0
 40
0.0104167
 41
0.0104167
  0
VERTEX
  8
0
 10
6.79889
 20
7.89031
 30
0.0
 40
0.0104167
 41
0.0104167
  0
VERTEX
  8
0
 10
6.79889
 20
7.88601
 30
0.0
 40
0.0104167
 41
0.0104167
  0
VERTEX
  8
0
 10
6.79889
 20
7.88172
 30
0.0
 40
0.0104167
 41
0.0104167
  0
VERTEX
  8
0
 10
6.79889
 20
7.88026
 30
0.0
 40
0.0104167
 41
0.0104167
  0
VERTEX
  8
0
 10
6.79889
 20
7.88026
 30
0.0
 40
0.0104167
 41
0.0104167
  0
VERTEX
  8
0
 10
6.80122
 20
7.88092
 30
0.0
 40
0.0104167
 41
0.0104167
  0
VERTEX
  8
0
 10
6.81119
 20
7.88433
 30
0.0
 40
0.0104167
 41
0.0104167
  0
VERTEX
  8
0
 10
6.81451
 20
7.88547
 30
0.0
 40
0.0104167
 41
0.0104167
  0
SEQEND
 8
0
  0
POLYLINE
  8
0
 62
     7
 66
     1
 10
0
 20
0
 30
0.0
 70
     1
 40
0
 41
0
  0
VERTEX
  8
0
 10
6.20285
 20
7.92296
 30
0.0
 40
0
 41
0
  0
VERTEX
  8
0
 10
6.22889
 20
7.92296
 30
0.0
 40
0
 41
0
  0
VERTEX
  8
0
 10
6.22889
 20
7.11051
 30
0.0
 40
0
 41
0
  0
VERTEX
  8
0
 10
6.20285
 20
7.11051
 30
0.0
 40
0
 41
0
  0
VERTEX
  8
0
 10
6.20285
 20
7.92296
 30
0.0
 40
0
 41
0
  0
SEQEND
 8
0
  0
POLYLINE
  8
0
 62
     0
 66
     1
 10
0
 20
0
 30
0.0
 70
     1
 40
0.75
 41
0.75
  0
VERTEX
  8
0
 10
6.20285
 20
7.92296
 30
0.0
 40
0.0104167
 41
0.0104167
  0
VERTEX
  8
0
 10
6.22889
 20
7.92296
 30
0.0
 40
0.0104167
 41
0.0104167
  0
VERTEX
  8
0
 10
6.22889
 20
7.11051
 30
0.0
 40
0.0104167
 41
0.0104167
  0
VERTEX
  8
0
 10
6.20285
 20
7.11051
 30
0.0
 40
0.0104167
 41
0.0104167
  0
VERTEX
  8
0
 10
6.20285
 20
7.92296
 30
0.0
 40
0.0104167
 41
0.0104167
  0
SEQEND
 8
0
  0
POLYLINE
  8
0
 62
     7
 66
     1
 10
0
 20
0
 30
0.0
 70
     1
 40
0
 41
0
  0
VERTEX
  8
0
 10
6.20285
 20
7.92296
 30
0.0
 40
0
 41
0
  0
VERTEX
  8
0
 10
6.22889
 20
7.92296
 30
0.0
 40
0
 41
0
  0
VERTEX
  8
0
 10
6.22889
 20
7.11051
 30
0.0
 40
0
 41
0
  0
VERTEX
  8
0
 10
6.20285
 20
7.11051
 30
0.0
 40
0
 41
0
  0
VERTEX
  8
0
 10
6.20285
 20
7.92296
 30
0.0
 40
0
 41
0
  0
SEQEND
 8
0
  0
POLYLINE
  8
0
 62
     0
 66
     1
 10
0
 20
0
 30
0.0
 70
     1
 40
0.75
 41
0.75
  0
VERTEX
  8
0
 10
6.20285
 20
7.92296
 30
0.0
 40
0.0104167
 41
0.0104167
  0
VERTEX
  8
0
 10
6.22889
 20
7.92296
 30
0.0
 40
0.0104167
 41
0.0104167
  0
VERTEX
  8
0
 10
6.22889
 20
7.11051
 30
0.0
 40
0.0104167
 41
0.0104167
  0
VERTEX
  8
0
 10
6.20285
 20
7.11051
 30
0.0
 40
0.0104167
 41
0.0104167
  0
VERTEX
  8
0
 10
6.20285
 20
7.92296
 30
0.0
 40
0.0104167
 41
0.0104167
  0
SEQEND
 8
0
  0
POLYLINE
  8
0
 62
     7
 66
     1
 10
0
 20
0
 30
0.0
 70
     1
 40
0
 41
0
  0
VERTEX
  8
0
 10
5.44661
 20
7.92215
 30
0.0
 40
0
 41
0
  0
VERTEX
  8
0
 10
6.07161
 20
7.92215
 30
0.0
 40
0
 41
0
  0
VERTEX
  8
0
 10
6.07161
 20
7.44319
 30
0.0
 40
0
 41
0
  0
VERTEX
  8
0
 10
5.44661
 20
7.44319
 30
0.0
 40
0
 41
0
  0
VERTEX
  8
0
 10
5.44661
 20
7.92215
 30
0.0
 40
0
 41
0
  0
SEQEND
 8
0
  0
POLYLINE
  8
0
 62
     0
 66
     1
 10
0
 20
0
 30
0.0
 70
     1
 40
0.75
 41
0.75
  0
VERTEX
  8
0
 10
5.44661
 20
7.92215
 30
0.0
 40
0.0104167
 41
0.0104167
  0
VERTEX
  8
0
 10
6.07161
 20
7.92215
 30
0.0
 40
0.0104167
 41
0.0104167
  0
VERTEX
  8
0
 10
6.07161
 20
7.44319
 30
0.0
 40
0.0104167
 41
0.0104167
  0
VERTEX
  8
0
 10
5.44661
 20
7.44319
 30
0.0
 40
0.0104167
 41
0.0104167
  0
VERTEX
  8
0
 10
5.44661
 20
7.92215
 30
0.0
 40
0.0104167
 41
0.0104167
  0
SEQEND
 8
0
  0
POLYLINE
  8
0
 62
     7
 66
     1
 10
0
 20
0
 30
0.0
 70
     1
 40
0
 41
0
  0
VERTEX
  8
0
 10
5.49869
 20
7.82112
 30
0.0
 40
0
 41
0
  0
VERTEX
  8
0
 10
6.01953
 20
7.82112
 30
0.0
 40
0
 41
0
  0
VERTEX
  8
0
 10
6.01953
 20
7.48563
 30
0.0
 40
0
 41
0
  0
VERTEX
  8
0
 10
5.49869
 20
7.48563
 30
0.0
 40
0
 41
0
  0
VERTEX
  8
0
 10
5.49869
 20
7.82112
 30
0.0
 40
0
 41
0
  0
SEQEND
 8
0
  0
POLYLINE
  8
0
 62
     0
 66
     1
 10
0
 20
0
 30
0.0
 70
     1
 40
0.75
 41
0.75
  0
VERTEX
  8
0
 10
5.49869
 20
7.82112
 30
0.0
 40
0.0104167
 41
0.0104167
  0
VERTEX
  8
0
 10
6.01953
 20
7.82112
 30
0.0
 40
0.0104167
 41
0.0104167
  0
VERTEX
  8
0
 10
6.01953
 20
7.48563
 30
0.0
 40
0.0104167
 41
0.0104167
  0
VERTEX
  8
0
 10
5.49869
 20
7.48563
 30
0.0
 40
0.0104167
 41
0.0104167
  0
VERTEX
  8
0
 10
5.49869
 20
7.82112
 30
0.0
 40
0.0104167
 41
0.0104167
  0
SEQEND
 8
0
  0
POLYLINE
  8
0
 62
     7
 66
     1
 10
0
 20
0
 30
0.0
 70
     1
 40
0
 41
0
  0
VERTEX
  8
0
 10
5.79557
 20
7.66515
 30
0.0
 40
0
 41
0
  0
VERTEX
  8
0
 10
5.79557
 20
7.65875
 30
0.0
 40
0
 41
0
  0
VERTEX
  8
0
 10
5.78489
 20
7.63937
 30
0.0
 40
0
 41
0
  0
VERTEX
  8
0
 10
5.76551
 20
7.62869
 30
0.0
 40
0
 41
0
  0
VERTEX
  8
0
 10
5.75911
 20
7.62869
 30
0.0
 40
0
 41
0
  0
VERTEX
  8
0
 10
5.75265
 20
7.62869
 30
0.0
 40
0
 41
0
  0
VERTEX
  8
0
 10
5.73329
 20
7.63937
 30
0.0
 40
0
 41
0
  0
VERTEX
  8
0
 10
5.72265
 20
7.65875
 30
0.0
 40
0
 41
0
  0
VERTEX
  8
0
 10
5.72265
 20
7.66515
 30
0.0
 40
0
 41
0
  0
VERTEX
  8
0
 10
5.72265
 20
7.6716
 30
0.0
 40
0
 41
0
  0
VERTEX
  8
0
 10
5.73329
 20
7.69097
 30
0.0
 40
0
 41
0
  0
VERTEX
  8
0
 10
5.75265
 20
7.70161
 30
0.0
 40
0
 41
0
  0
VERTEX
  8
0
 10
5.75911
 20
7.70161
 30
0.0
 40
0
 41
0
  0
VERTEX
  8
0
 10
5.76551
 20
7.70161
 30
0.0
 40
0
 41
0
  0
VERTEX
  8
0
 10
5.78489
 20
7.69097
 30
0.0
 40
0
 41
0
  0
VERTEX
  8
0
 10
5.79557
 20
7.6716
 30
0.0
 40
0
 41
0
  0
VERTEX
  8
0
 10
5.79557
 20
7.66515
 30
0.0
 40
0
 41
0
  0
SEQEND
 8
0
  0
POLYLINE
  8
0
 62
     0
 66
     1
 10
0
 20
0
 30
0.0
 70
     1
 40
0.6
 41
0.6
  0
VERTEX
  8
0
 10
5.79557
 20
7.66515
 30
0.0
 40
0.00833333
 41
0.00833333
  0
VERTEX
  8
0
 10
5.79557
 20
7.65875
 30
0.0
 40
0.00833333
 41
0.00833333
  0
VERTEX
  8
0
 10
5.78489
 20
7.63937
 30
0.0
 40
0.00833333
 41
0.00833333
  0
VERTEX
  8
0
 10
5.76551
 20
7.62869
 30
0.0
 40
0.00833333
 41
0.00833333
  0
VERTEX
  8
0
 10
5.75911
 20
7.62869
 30
0.0
 40
0.00833333
 41
0.00833333
  0
VERTEX
  8
0
 10
5.75265
 20
7.62869
 30
0.0
 40
0.00833333
 41
0.00833333
  0
VERTEX
  8
0
 10
5.73329
 20
7.63937
 30
0.0
 40
0.00833333
 41
0.00833333
  0
VERTEX
  8
0
 10
5.72265
 20
7.65875
 30
0.0
 40
0.00833333
 41
0.00833333
  0
VERTEX
  8
0
 10
5.72265
 20
7.66515
 30
0.0
 40
0.00833333
 41
0.00833333
  0
VERTEX
  8
0
 10
5.72265
 20
7.6716
 30
0.0
 40
0.00833333
 41
0.00833333
  0
VERTEX
  8
0
 10
5.73329
 20
7.69097
 30
0.0
 40
0.00833333
 41
0.00833333
  0
VERTEX
  8
0
 10
5.75265
 20
7.70161
 30
0.0
 40
0.00833333
 41
0.00833333
  0
VERTEX
  8
0
 10
5.75911
 20
7.70161
 30
0.0
 40
0.00833333
 41
0.00833333
  0
VERTEX
  8
0
 10
5.76551
 20
7.70161
 30
0.0
 40
0.00833333
 41
0.00833333
  0
VERTEX
  8
0
 10
5.78489
 20
7.69097
 30
0.0
 40
0.00833333
 41
0.00833333
  0
VERTEX
  8
0
 10
5.79557
 20
7.6716
 30
0.0
 40
0.00833333
 41
0.00833333
  0
VERTEX
  8
0
 10
5.79557
 20
7.66515
 30
0.0
 40
0.00833333
 41
0.00833333
  0
SEQEND
 8
0
  0
POLYLINE
  8
0
 62
     7
 66
     1
 10
0
 20
0
 30
0.0
 70
     1
 40
0
 41
0
  0
VERTEX
  8
0
 10
5.77994
 20
7.66515
 30
0.0
 40
0
 41
0
  0
VERTEX
  8
0
 10
5.77994
 20
7.66151
 30
0.0
 40
0
 41
0
  0
VERTEX
  8
0
 10
5.77382
 20
7.65044
 30
0.0
 40
0
 41
0
  0
VERTEX
  8
0
 10
5.76275
 20
7.64432
 30
0.0
 40
0
 41
0
  0
VERTEX
  8
0
 10
5.75911
 20
7.64432
 30
0.0
 40
0
 41
0
  0
VERTEX
  8
0
 10
5.75543
 20
7.64432
 30
0.0
 40
0
 41
0
  0
VERTEX
  8
0
 10
5.74436
 20
7.65044
 30
0.0
 40
0
 41
0
  0
VERTEX
  8
0
 10
5.73828
 20
7.66151
 30
0.0
 40
0
 41
0
  0
VERTEX
  8
0
 10
5.73828
 20
7.66515
 30
0.0
 40
0
 41
0
  0
VERTEX
  8
0
 10
5.73828
 20
7.66883
 30
0.0
 40
0
 41
0
  0
VERTEX
  8
0
 10
5.74436
 20
7.6799
 30
0.0
 40
0
 41
0
  0
VERTEX
  8
0
 10
5.75543
 20
7.68599
 30
0.0
 40
0
 41
0
  0
VERTEX
  8
0
 10
5.75911
 20
7.68599
 30
0.0
 40
0
 41
0
  0
VERTEX
  8
0
 10
5.76275
 20
7.68599
 30
0.0
 40
0
 41
0
  0
VERTEX
  8
0
 10
5.77382
 20
7.6799
 30
0.0
 40
0
 41
0
  0
VERTEX
  8
0
 10
5.77994
 20
7.66883
 30
0.0
 40
0
 41
0
  0
VERTEX
  8
0
 10
5.77994
 20
7.66515
 30
0.0
 40
0
 41
0
  0
SEQEND
 8
0
  0
POLYLINE
  8
0
 62
     0
 66
     1
 10
0
 20
0
 30
0.0
 70
     1
 40
0.6
 41
0.6
  0
VERTEX
  8
0
 10
5.77994
 20
7.66515
 30
0.0
 40
0.00833333
 41
0.00833333
  0
VERTEX
  8
0
 10
5.77994
 20
7.66151
 30
0.0
 40
0.00833333
 41
0.00833333
  0
VERTEX
  8
0
 10
5.77382
 20
7.65044
 30
0.0
 40
0.00833333
 41
0.00833333
  0
VERTEX
  8
0
 10
5.76275
 20
7.64432
 30
0.0
 40
0.00833333
 41
0.00833333
  0
VERTEX
  8
0
 10
5.75911
 20
7.64432
 30
0.0
 40
0.00833333
 41
0.00833333
  0
VERTEX
  8
0
 10
5.75543
 20
7.64432
 30
0.0
 40
0.00833333
 41
0.00833333
  0
VERTEX
  8
0
 10
5.74436
 20
7.65044
 30
0.0
 40
0.00833333
 41
0.00833333
  0
VERTEX
  8
0
 10
5.73828
 20
7.66151
 30
0.0
 40
0.00833333
 41
0.00833333
  0
VERTEX
  8
0
 10
5.73828
 20
7.66515
 30
0.0
 40
0.00833333
 41
0.00833333
  0
VERTEX
  8
0
 10
5.73828
 20
7.66883
 30
0.0
 40
0.00833333
 41
0.00833333
  0
VERTEX
  8
0
 10
5.74436
 20
7.6799
 30
0.0
 40
0.00833333
 41
0.00833333
  0
VERTEX
  8
0
 10
5.75543
 20
7.68599
 30
0.0
 40
0.00833333
 41
0.00833333
  0
VERTEX
  8
0
 10
5.75911
 20
7.68599
 30
0.0
 40
0.00833333
 41
0.00833333
  0
VERTEX
  8
0
 10
5.76275
 20
7.68599
 30
0.0
 40
0.00833333
 41
0.00833333
  0
VERTEX
  8
0
 10
5.77382
 20
7.6799
 30
0.0
 40
0.00833333
 41
0.00833333
  0
VERTEX
  8
0
 10
5.77994
 20
7.66883
 30
0.0
 40
0.00833333
 41
0.00833333
  0
VERTEX
  8
0
 10
5.77994
 20
7.66515
 30
0.0
 40
0.00833333
 41
0.00833333
  0
SEQEND
 8
0
  0
POLYLINE
  8
0
 62
     7
 66
     1
 10
0
 20
0
 30
0.0
 70
     1
 40
0
 41
0
  0
VERTEX
  8
0
 10
5.72786
 20
7.88226
 30
0.0
 40
0
 41
0
  0
VERTEX
  8
0
 10
5.79036
 20
7.88226
 30
0.0
 40
0
 41
0
  0
VERTEX
  8
0
 10
5.79036
 20
7.73643
 30
0.0
 40
0
 41
0
  0
VERTEX
  8
0
 10
5.72786
 20
7.73643
 30
0.0
 40
0
 41
0
  0
VERTEX
  8
0
 10
5.72786
 20
7.88226
 30
0.0
 40
0
 41
0
  0
SEQEND
 8
0
  0
POLYLINE
  8
0
 62
     0
 66
     1
 10
0
 20
0
 30
0.0
 70
     1
 40
0.75
 41
0.75
  0
VERTEX
  8
0
 10
5.72786
 20
7.88226
 30
0.0
 40
0.0104167
 41
0.0104167
  0
VERTEX
  8
0
 10
5.79036
 20
7.88226
 30
0.0
 40
0.0104167
 41
0.0104167
  0
VERTEX
  8
0
 10
5.79036
 20
7.73643
 30
0.0
 40
0.0104167
 41
0.0104167
  0
VERTEX
  8
0
 10
5.72786
 20
7.73643
 30
0.0
 40
0.0104167
 41
0.0104167
  0
VERTEX
  8
0
 10
5.72786
 20
7.88226
 30
0.0
 40
0.0104167
 41
0.0104167
  0
SEQEND
 8
0
  0
POLYLINE
  8
0
 62
     7
 66
     1
 10
0
 20
0
 30
0.0
 70
     1
 40
0
 41
0
  0
VERTEX
  8
0
 10
5.44661
 20
6.30106
 30
0.0
 40
0
 41
0
  0
VERTEX
  8
0
 10
6.07161
 20
6.30106
 30
0.0
 40
0
 41
0
  0
VERTEX
  8
0
 10
6.07161
 20
5.63813
 30
0.0
 40
0
 41
0
  0
VERTEX
  8
0
 10
5.44661
 20
5.63813
 30
0.0
 40
0
 41
0
  0
VERTEX
  8
0
 10
5.44661
 20
6.30106
 30
0.0
 40
0
 41
0
  0
SEQEND
 8
0
  0
POLYLINE
  8
0
 62
     0
 66
     1
 10
0
 20
0
 30
0.0
 70
     1
 40
0.75
 41
0.75
  0
VERTEX
  8
0
 10
5.44661
 20
6.30106
 30
0.0
 40
0.0104167
 41
0.0104167
  0
VERTEX
  8
0
 10
6.07161
 20
6.30106
 30
0.0
 40
0.0104167
 41
0.0104167
  0
VERTEX
  8
0
 10
6.07161
 20
5.63813
 30
0.0
 40
0.0104167
 41
0.0104167
  0
VERTEX
  8
0
 10
5.44661
 20
5.63813
 30
0.0
 40
0.0104167
 41
0.0104167
  0
VERTEX
  8
0
 10
5.44661
 20
6.30106
 30
0.0
 40
0.0104167
 41
0.0104167
  0
SEQEND
 8
0
  0
POLYLINE
  8
0
 62
     0
 66
     1
 10
0
 20
0
 30
0.0
 40
0.75
 41
0.75
  0
VERTEX
  8
0
 10
6.07161
 20
5.63813
 30
0.0
 40
0.0104167
 41
0.0104167
  0
VERTEX
  8
0
 10
5.75808
 20
6.07785
 30
0.0
 40
0.0104167
 41
0.0104167
  0
VERTEX
  8
0
 10
5.75808
 20
5.85249
 30
0.0
 40
0.0104167
 41
0.0104167
  0
VERTEX
  8
0
 10
5.44769
 20
6.30106
 30
0.0
 40
0.0104167
 41
0.0104167
  0
SEQEND
 8
0
  0
POLYLINE
  8
0
 62
     7
 66
     1
 10
0
 20
0
 30
0.0
 70
     1
 40
0
 41
0
  0
VERTEX
  8
0
 10
6.62213
 20
6.26992
 30
0.0
 40
0
 41
0
  0
VERTEX
  8
0
 10
7.13265
 20
6.26992
 30
0.0
 40
0
 41
0
  0
VERTEX
  8
0
 10
7.13265
 20
5.73301
 30
0.0
 40
0
 41
0
  0
VERTEX
  8
0
 10
6.62213
 20
5.73301
 30
0.0
 40
0
 41
0
  0
VERTEX
  8
0
 10
6.62213
 20
6.26992
 30
0.0
 40
0
 41
0
  0
SEQEND
 8
0
  0
POLYLINE
  8
0
 62
     0
 66
     1
 10
0
 20
0
 30
0.0
 70
     1
 40
0.75
 41
0.75
  0
VERTEX
  8
0
 10
6.62213
 20
6.26992
 30
0.0
 40
0.0104167
 41
0.0104167
  0
VERTEX
  8
0
 10
6.62213
 20
5.73301
 30
0.0
 40
0.0104167
 41
0.0104167
  0
VERTEX
  8
0
 10
7.13265
 20
5.73301
 30
0.0
 40
0.0104167
 41
0.0104167
  0
VERTEX
  8
0
 10
7.13265
 20
6.26992
 30
0.0
 40
0.0104167
 41
0.0104167
  0
VERTEX
  8
0
 10
6.62213
 20
6.26992
 30
0.0
 40
0.0104167
 41
0.0104167
  0
SEQEND
 8
0
  0
POLYLINE
  8
0
 62
     7
 66
     1
 10
0
 20
0
 30
0.0
 70
     1
 40
0
 41
0
  0
VERTEX
  8
0
 10
6.62283
 20
5.72971
 30
0.0
 40
0
 41
0
  0
VERTEX
  8
0
 10
7.13265
 20
5.72971
 30
0.0
 40
0
 41
0
  0
VERTEX
  8
0
 10
7.13265
 20
5.63813
 30
0.0
 40
0
 41
0
  0
VERTEX
  8
0
 10
6.62283
 20
5.63813
 30
0.0
 40
0
 41
0
  0
VERTEX
  8
0
 10
6.62283
 20
5.72971
 30
0.0
 40
0
 41
0
  0
SEQEND
 8
0
  0
POLYLINE
  8
0
 62
     0
 66
     1
 10
0
 20
0
 30
0.0
 70
     1
 40
0.659475
 41
0.659475
  0
VERTEX
  8
0
 10
6.62283
 20
5.72971
 30
0.0
 40
0.00915938
 41
0.00915938
  0
VERTEX
  8
0
 10
6.62283
 20
5.63813
 30
0.0
 40
0.00915938
 41
0.00915938
  0
VERTEX
  8
0
 10
7.13265
 20
5.63813
 30
0.0
 40
0.00915938
 41
0.00915938
  0
VERTEX
  8
0
 10
7.13265
 20
5.72971
 30
0.0
 40
0.00915938
 41
0.00915938
  0
VERTEX
  8
0
 10
6.62283
 20
5.72971
 30
0.0
 40
0.00915938
 41
0.00915938
  0
SEQEND
 8
0
  0
POLYLINE
  8
0
 62
     7
 66
     1
 10
0
 20
0
 30
0.0
 70
     1
 40
0
 41
0
  0
VERTEX
  8
0
 10
5.44661
 20
8.65588
 30
0.0
 40
0
 41
0
  0
VERTEX
  8
0
 10
6.07161
 20
8.65588
 30
0.0
 40
0
 41
0
  0
VERTEX
  8
0
 10
6.07161
 20
8.03088
 30
0.0
 40
0
 41
0
  0
VERTEX
  8
0
 10
5.44661
 20
8.03088
 30
0.0
 40
0
 41
0
  0
VERTEX
  8
0
 10
5.44661
 20
8.65588
 30
0.0
 40
0
 41
0
  0
SEQEND
 8
0
  0
POLYLINE
  8
0
 62
     0
 66
     1
 10
0
 20
0
 30
0.0
 70
     1
 40
0.75
 41
0.75
  0
VERTEX
  8
0
 10
5.44661
 20
8.65588
 30
0.0
 40
0.0104167
 41
0.0104167
  0
VERTEX
  8
0
 10
6.07161
 20
8.65588
 30
0.0
 40
0.0104167
 41
0.0104167
  0
VERTEX
  8
0
 10
6.07161
 20
8.03088
 30
0.0
 40
0.0104167
 41
0.0104167
  0
VERTEX
  8
0
 10
5.44661
 20
8.03088
 30
0.0
 40
0.0104167
 41
0.0104167
  0
VERTEX
  8
0
 10
5.44661
 20
8.65588
 30
0.0
 40
0.0104167
 41
0.0104167
  0
SEQEND
 8
0
  0
POLYLINE
  8
0
 62
     0
 66
     1
 10
0
 20
0
 30
0.0
 40
0.75
 41
0.75
  0
VERTEX
  8
0
 10
6.07161
 20
8.03088
 30
0.0
 40
0.0104167
 41
0.0104167
  0
VERTEX
  8
0
 10
5.75808
 20
8.44547
 30
0.0
 40
0.0104167
 41
0.0104167
  0
VERTEX
  8
0
 10
5.75808
 20
8.23296
 30
0.0
 40
0.0104167
 41
0.0104167
  0
VERTEX
  8
0
 10
5.44769
 20
8.65588
 30
0.0
 40
0.0104167
 41
0.0104167
  0
SEQEND
 8
0
  0
POLYLINE
  8
0
 62
     7
 66
     1
 10
0
 20
0
 30
0.0
 70
     1
 40
0
 41
0
  0
VERTEX
  8
0
 10
6.07161
 20
8.65588
 30
0.0
 40
0
 41
0
  0
VERTEX
  8
0
 10
6.69661
 20
8.65588
 30
0.0
 40
0
 41
0
  0
VERTEX
  8
0
 10
6.69661
 20
8.03088
 30
0.0
 40
0
 41
0
  0
VERTEX
  8
0
 10
6.07161
 20
8.03088
 30
0.0
 40
0
 41
0
  0
VERTEX
  8
0
 10
6.07161
 20
8.65588
 30
0.0
 40
0
 41
0
  0
SEQEND
 8
0
  0
POLYLINE
  8
0
 62
     0
 66
     1
 10
0
 20
0
 30
0.0
 70
     1
 40
0.75
 41
0.75
  0
VERTEX
  8
0
 10
6.07161
 20
8.65588
 30
0.0
 40
0.0104167
 41
0.0104167
  0
VERTEX
  8
0
 10
6.69661
 20
8.65588
 30
0.0
 40
0.0104167
 41
0.0104167
  0
VERTEX
  8
0
 10
6.69661
 20
8.03088
 30
0.0
 40
0.0104167
 41
0.0104167
  0
VERTEX
  8
0
 10
6.07161
 20
8.03088
 30
0.0
 40
0.0104167
 41
0.0104167
  0
VERTEX
  8
0
 10
6.07161
 20
8.65588
 30
0.0
 40
0.0104167
 41
0.0104167
  0
SEQEND
 8
0
  0
POLYLINE
  8
0
 62
     0
 66
     1
 10
0
 20
0
 30
0.0
 40
0.75
 41
0.75
  0
VERTEX
  8
0
 10
6.69661
 20
8.03088
 30
0.0
 40
0.0104167
 41
0.0104167
  0
VERTEX
  8
0
 10
6.38411
 20
8.41732
 30
0.0
 40
0.0104167
 41
0.0104167
  0
VERTEX
  8
0
 10
6.38411
 20
8.22982
 30
0.0
 40
0.0104167
 41
0.0104167
  0
VERTEX
  8
0
 10
6.07161
 20
8.61735
 30
0.0
 40
0.0104167
 41
0.0104167
  0
SEQEND
 8
0
  0
POLYLINE
  8
0
 62
     7
 66
     1
 10
0
 20
0
 30
0.0
 70
     1
 40
0
 41
0
  0
VERTEX
  8
0
 10
6.07161
 20
8.65588
 30
0.0
 40
0
 41
0
  0
VERTEX
  8
0
 10
6.69661
 20
8.65588
 30
0.0
 40
0
 41
0
  0
VERTEX
  8
0
 10
6.69661
 20
8.61421
 30
0.0
 40
0
 41
0
  0
VERTEX
  8
0
 10
6.07161
 20
8.61421
 30
0.0
 40
0
 41
0
  0
VERTEX
  8
0
 10
6.07161
 20
8.65588
 30
0.0
 40
0
 41
0
  0
SEQEND
 8
0
  0
POLYLINE
  8
0
 62
     0
 66
     1
 10
0
 20
0
 30
0.0
 70
     1
 40
0.75
 41
0.75
  0
VERTEX
  8
0
 10
6.07161
 20
8.65588
 30
0.0
 40
0.0104167
 41
0.0104167
  0
VERTEX
  8
0
 10
6.69661
 20
8.65588
 30
0.0
 40
0.0104167
 41
0.0104167
  0
VERTEX
  8
0
 10
6.69661
 20
8.61421
 30
0.0
 40
0.0104167
 41
0.0104167
  0
VERTEX
  8
0
 10
6.07161
 20
8.61421
 30
0.0
 40
0.0104167
 41
0.0104167
  0
VERTEX
  8
0
 10
6.07161
 20
8.65588
 30
0.0
 40
0.0104167
 41
0.0104167
  0
SEQEND
 8
0
  0
POLYLINE
  8
0
 62
     7
 66
     1
 10
0
 20
0
 30
0.0
 70
     1
 40
0
 41
0
  0
VERTEX
  8
0
 10
8.42931
 20
11.3302
 30
0.0
 40
0
 41
0
  0
VERTEX
  8
0
 10
8.97683
 20
11.3302
 30
0.0
 40
0
 41
0
  0
VERTEX
  8
0
 10
8.97683
 20
11.194
 30
0.0
 40
0
 41
0
  0
VERTEX
  8
0
 10
8.42931
 20
11.194
 30
0.0
 40
0
 41
0
  0
VERTEX
  8
0
 10
8.42931
 20
11.3302
 30
0.0
 40
0
 41
0
  0
SEQEND
 8
0
  0
POLYLINE
  8
0
 62
     0
 66
     1
 10
0
 20
0
 30
0.0
 70
     1
 40
0.981225
 41
0.981225
  0
VERTEX
  8
0
 10
8.42931
 20
11.3302
 30
0.0
 40
0.0136281
 41
0.0136281
  0
VERTEX
  8
0
 10
8.42931
 20
11.194
 30
0.0
 40
0.0136281
 41
0.0136281
  0
VERTEX
  8
0
 10
8.97683
 20
11.194
 30
0.0
 40
0.0136281
 41
0.0136281
  0
VERTEX
  8
0
 10
8.97683
 20
11.3302
 30
0.0
 40
0.0136281
 41
0.0136281
  0
VERTEX
  8
0
 10
8.42931
 20
11.3302
 30
0.0
 40
0.0136281
 41
0.0136281
  0
SEQEND
 8
0
  0
POLYLINE
  8
0
 62
     7
 66
     1
 10
0
 20
0
 30
0.0
 70
     1
 40
0
 41
0
  0
VERTEX
  8
0
 10
8.35215
 20
11.194
 30
0.0
 40
0
 41
0
  0
VERTEX
  8
0
 10
8.97715
 20
11.194
 30
0.0
 40
0
 41
0
  0
VERTEX
  8
0
 10
8.97715
 20
10.6078
 30
0.0
 40
0
 41
0
  0
VERTEX
  8
0
 10
8.35215
 20
10.6078
 30
0.0
 40
0
 41
0
  0
VERTEX
  8
0
 10
8.35215
 20
11.194
 30
0.0
 40
0
 41
0
  0
SEQEND
 8
0
  0
POLYLINE
  8
0
 62
     0
 66
     1
 10
0
 20
0
 30
0.0
 70
     1
 40
0.75
 41
0.75
  0
VERTEX
  8
0
 10
8.35215
 20
11.194
 30
0.0
 40
0.0104167
 41
0.0104167
  0
VERTEX
  8
0
 10
8.35215
 20
10.6078
 30
0.0
 40
0.0104167
 41
0.0104167
  0
VERTEX
  8
0
 10
8.97715
 20
10.6078
 30
0.0
 40
0.0104167
 41
0.0104167
  0
VERTEX
  8
0
 10
8.97715
 20
11.194
 30
0.0
 40
0.0104167
 41
0.0104167
  0
VERTEX
  8
0
 10
8.35215
 20
11.194
 30
0.0
 40
0.0104167
 41
0.0104167
  0
SEQEND
 8
0
  0
POLYLINE
  8
0
 62
     7
 66
     1
 10
0
 20
0
 30
0.0
 70
     1
 40
0
 41
0
  0
VERTEX
  8
0
 10
8.35215
 20
10.6078
 30
0.0
 40
0
 41
0
  0
VERTEX
  8
0
 10
8.35215
 20
8.65864
 30
0.0
 40
0
 41
0
  0
VERTEX
  8
0
 10
6.69661
 20
8.65967
 30
0.0
 40
0
 41
0
  0
VERTEX
  8
0
 10
6.69661
 20
8.03093
 30
0.0
 40
0
 41
0
  0
VERTEX
  8
0
 10
8.98986
 20
8.03093
 30
0.0
 40
0
 41
0
  0
VERTEX
  8
0
 10
8.98986
 20
10.6157
 30
0.0
 40
0
 41
0
  0
VERTEX
  8
0
 10
8.36111
 20
10.6157
 30
0.0
 40
0
 41
0
  0
VERTEX
  8
0
 10
8.35215
 20
10.6078
 30
0.0
 40
0
 41
0
  0
SEQEND
 8
0
  0
POLYLINE
  8
0
 62
     0
 66
     1
 10
0
 20
0
 30
0.0
 70
     1
 40
0.75
 41
0.75
  0
VERTEX
  8
0
 10
8.35215
 20
10.6078
 30
0.0
 40
0.0104167
 41
0.0104167
  0
VERTEX
  8
0
 10
8.35215
 20
8.65864
 30
0.0
 40
0.0104167
 41
0.0104167
  0
VERTEX
  8
0
 10
6.69661
 20
8.65967
 30
0.0
 40
0.0104167
 41
0.0104167
  0
VERTEX
  8
0
 10
6.69661
 20
8.03093
 30
0.0
 40
0.0104167
 41
0.0104167
  0
VERTEX
  8
0
 10
8.98986
 20
8.03093
 30
0.0
 40
0.0104167
 41
0.0104167
  0
VERTEX
  8
0
 10
8.98986
 20
10.6157
 30
0.0
 40
0.0104167
 41
0.0104167
  0
VERTEX
  8
0
 10
8.36111
 20
10.6157
 30
0.0
 40
0.0104167
 41
0.0104167
  0
VERTEX
  8
0
 10
8.35215
 20
10.6078
 30
0.0
 40
0.0104167
 41
0.0104167
  0
SEQEND
 8
0
  0
POLYLINE
  8
0
 62
     7
 66
     1
 10
0
 20
0
 30
0.0
 70
     1
 40
0
 41
0
  0
VERTEX
  8
0
 10
6.69661
 20
8.65213
 30
0.0
 40
0
 41
0
  0
VERTEX
  8
0
 10
7.32161
 20
8.65213
 30
0.0
 40
0
 41
0
  0
VERTEX
  8
0
 10
7.32161
 20
8.02713
 30
0.0
 40
0
 41
0
  0
VERTEX
  8
0
 10
6.69661
 20
8.02713
 30
0.0
 40
0
 41
0
  0
VERTEX
  8
0
 10
6.69661
 20
8.65213
 30
0.0
 40
0
 41
0
  0
SEQEND
 8
0
  0
POLYLINE
  8
0
 62
     0
 66
     1
 10
0
 20
0
 30
0.0
 70
     1
 40
0.75
 41
0.75
  0
VERTEX
  8
0
 10
6.69661
 20
8.65213
 30
0.0
 40
0.0104167
 41
0.0104167
  0
VERTEX
  8
0
 10
7.32161
 20
8.65213
 30
0.0
 40
0.0104167
 41
0.0104167
  0
VERTEX
  8
0
 10
7.32161
 20
8.02713
 30
0.0
 40
0.0104167
 41
0.0104167
  0
VERTEX
  8
0
 10
6.69661
 20
8.02713
 30
0.0
 40
0.0104167
 41
0.0104167
  0
VERTEX
  8
0
 10
6.69661
 20
8.65213
 30
0.0
 40
0.0104167
 41
0.0104167
  0
SEQEND
 8
0
  0
POLYLINE
  8
0
 62
     0
 66
     1
 10
0
 20
0
 30
0.0
 40
0.75
 41
0.75
  0
VERTEX
  8
0
 10
7.32161
 20
8.02713
 30
0.0
 40
0.0104167
 41
0.0104167
  0
VERTEX
  8
0
 10
7.00808
 20
8.44174
 30
0.0
 40
0.0104167
 41
0.0104167
  0
VERTEX
  8
0
 10
7.00808
 20
8.22922
 30
0.0
 40
0.0104167
 41
0.0104167
  0
VERTEX
  8
0
 10
6.69769
 20
8.65213
 30
0.0
 40
0.0104167
 41
0.0104167
  0
SEQEND
 8
0
  0
POLYLINE
  8
0
 62
     7
 66
     1
 10
0
 20
0
 30
0.0
 70
     1
 40
0
 41
0
  0
VERTEX
  8
0
 10
7.73156
 20
8.59901
 30
0.0
 40
0
 41
0
  0
VERTEX
  8
0
 10
8.05154
 20
8.59901
 30
0.0
 40
0
 41
0
  0
VERTEX
  8
0
 10
8.05154
 20
8.13026
 30
0.0
 40
0
 41
0
  0
VERTEX
  8
0
 10
7.73156
 20
8.13026
 30
0.0
 40
0
 41
0
  0
VERTEX
  8
0
 10
7.73156
 20
8.59901
 30
0.0
 40
0
 41
0
  0
SEQEND
 8
0
  0
POLYLINE
  8
0
 62
     0
 66
     1
 10
0
 20
0
 30
0.0
 70
     1
 40
0.75
 41
0.75
  0
VERTEX
  8
0
 10
7.73156
 20
8.59901
 30
0.0
 40
0.0104167
 41
0.0104167
  0
VERTEX
  8
0
 10
8.05154
 20
8.59901
 30
0.0
 40
0.0104167
 41
0.0104167
  0
VERTEX
  8
0
 10
8.05154
 20
8.13026
 30
0.0
 40
0.0104167
 41
0.0104167
  0
VERTEX
  8
0
 10
7.73156
 20
8.13026
 30
0.0
 40
0.0104167
 41
0.0104167
  0
VERTEX
  8
0
 10
7.73156
 20
8.59901
 30
0.0
 40
0.0104167
 41
0.0104167
  0
SEQEND
 8
0
  0
POLYLINE
  8
0
 62
     7
 66
     1
 10
0
 20
0
 30
0.0
 70
     1
 40
0
 41
0
  0
VERTEX
  8
0
 10
7.37776
 20
8.60004
 30
0.0
 40
0
 41
0
  0
VERTEX
  8
0
 10
7.69781
 20
8.60004
 30
0.0
 40
0
 41
0
  0
VERTEX
  8
0
 10
7.69781
 20
8.13129
 30
0.0
 40
0
 41
0
  0
VERTEX
  8
0
 10
7.37776
 20
8.13129
 30
0.0
 40
0
 41
0
  0
VERTEX
  8
0
 10
7.37776
 20
8.60004
 30
0.0
 40
0
 41
0
  0
SEQEND
 8
0
  0
POLYLINE
  8
0
 62
     0
 66
     1
 10
0
 20
0
 30
0.0
 70
     1
 40
0.75
 41
0.75
  0
VERTEX
  8
0
 10
7.37776
 20
8.60004
 30
0.0
 40
0.0104167
 41
0.0104167
  0
VERTEX
  8
0
 10
7.69781
 20
8.60004
 30
0.0
 40
0.0104167
 41
0.0104167
  0
VERTEX
  8
0
 10
7.69781
 20
8.13129
 30
0.0
 40
0.0104167
 41
0.0104167
  0
VERTEX
  8
0
 10
7.37776
 20
8.13129
 30
0.0
 40
0.0104167
 41
0.0104167
  0
VERTEX
  8
0
 10
7.37776
 20
8.60004
 30
0.0
 40
0.0104167
 41
0.0104167
  0
SEQEND
 8
0
  0
POLYLINE
  8
0
 62
     7
 66
     1
 10
0
 20
0
 30
0.0
 70
     1
 40
0
 41
0
  0
VERTEX
  8
0
 10
7.84999
 20
8.36567
 30
0.0
 40
0
 41
0
  0
VERTEX
  8
0
 10
7.84999
 20
8.37213
 30
0.0
 40
0
 41
0
  0
VERTEX
  8
0
 10
7.86063
 20
8.3915
 30
0.0
 40
0
 41
0
  0
VERTEX
  8
0
 10
7.87999
 20
8.40213
 30
0.0
 40
0
 41
0
  0
VERTEX
  8
0
 10
7.88644
 20
8.40213
 30
0.0
 40
0
 41
0
  0
VERTEX
  8
0
 10
7.89285
 20
8.40213
 30
0.0
 40
0
 41
0
  0
VERTEX
  8
0
 10
7.91222
 20
8.3915
 30
0.0
 40
0
 41
0
  0
VERTEX
  8
0
 10
7.9229
 20
8.37213
 30
0.0
 40
0
 41
0
  0
VERTEX
  8
0
 10
7.9229
 20
8.36567
 30
0.0
 40
0
 41
0
  0
VERTEX
  8
0
 10
7.9229
 20
8.35926
 30
0.0
 40
0
 41
0
  0
VERTEX
  8
0
 10
7.91222
 20
8.3399
 30
0.0
 40
0
 41
0
  0
VERTEX
  8
0
 10
7.89285
 20
8.32921
 30
0.0
 40
0
 41
0
  0
VERTEX
  8
0
 10
7.88644
 20
8.32921
 30
0.0
 40
0
 41
0
  0
VERTEX
  8
0
 10
7.87999
 20
8.32921
 30
0.0
 40
0
 41
0
  0
VERTEX
  8
0
 10
7.86063
 20
8.3399
 30
0.0
 40
0
 41
0
  0
VERTEX
  8
0
 10
7.84999
 20
8.35926
 30
0.0
 40
0
 41
0
  0
VERTEX
  8
0
 10
7.84999
 20
8.36567
 30
0.0
 40
0
 41
0
  0
SEQEND
 8
0
  0
POLYLINE
  8
0
 62
     0
 66
     1
 10
0
 20
0
 30
0.0
 70
     1
 40
0.6
 41
0.6
  0
VERTEX
  8
0
 10
7.84999
 20
8.36567
 30
0.0
 40
0.00833333
 41
0.00833333
  0
VERTEX
  8
0
 10
7.84999
 20
8.37213
 30
0.0
 40
0.00833333
 41
0.00833333
  0
VERTEX
  8
0
 10
7.86063
 20
8.3915
 30
0.0
 40
0.00833333
 41
0.00833333
  0
VERTEX
  8
0
 10
7.87999
 20
8.40213
 30
0.0
 40
0.00833333
 41
0.00833333
  0
VERTEX
  8
0
 10
7.88644
 20
8.40213
 30
0.0
 40
0.00833333
 41
0.00833333
  0
VERTEX
  8
0
 10
7.89285
 20
8.40213
 30
0.0
 40
0.00833333
 41
0.00833333
  0
VERTEX
  8
0
 10
7.91222
 20
8.3915
 30
0.0
 40
0.00833333
 41
0.00833333
  0
VERTEX
  8
0
 10
7.9229
 20
8.37213
 30
0.0
 40
0.00833333
 41
0.00833333
  0
VERTEX
  8
0
 10
7.9229
 20
8.36567
 30
0.0
 40
0.00833333
 41
0.00833333
  0
VERTEX
  8
0
 10
7.9229
 20
8.35926
 30
0.0
 40
0.00833333
 41
0.00833333
  0
VERTEX
  8
0
 10
7.91222
 20
8.3399
 30
0.0
 40
0.00833333
 41
0.00833333
  0
VERTEX
  8
0
 10
7.89285
 20
8.32921
 30
0.0
 40
0.00833333
 41
0.00833333
  0
VERTEX
  8
0
 10
7.88644
 20
8.32921
 30
0.0
 40
0.00833333
 41
0.00833333
  0
VERTEX
  8
0
 10
7.87999
 20
8.32921
 30
0.0
 40
0.00833333
 41
0.00833333
  0
VERTEX
  8
0
 10
7.86063
 20
8.3399
 30
0.0
 40
0.00833333
 41
0.00833333
  0
VERTEX
  8
0
 10
7.84999
 20
8.35926
 30
0.0
 40
0.00833333
 41
0.00833333
  0
VERTEX
  8
0
 10
7.84999
 20
8.36567
 30
0.0
 40
0.00833333
 41
0.00833333
  0
SEQEND
 8
0
  0
POLYLINE
  8
0
 62
     7
 66
     1
 10
0
 20
0
 30
0.0
 70
     1
 40
0
 41
0
  0
VERTEX
  8
0
 10
7.50754
 20
8.36567
 30
0.0
 40
0
 41
0
  0
VERTEX
  8
0
 10
7.50754
 20
8.37213
 30
0.0
 40
0
 41
0
  0
VERTEX
  8
0
 10
7.51818
 20
8.3915
 30
0.0
 40
0
 41
0
  0
VERTEX
  8
0
 10
7.53754
 20
8.40213
 30
0.0
 40
0
 41
0
  0
VERTEX
  8
0
 10
7.544
 20
8.40213
 30
0.0
 40
0
 41
0
  0
VERTEX
  8
0
 10
7.5504
 20
8.40213
 30
0.0
 40
0
 41
0
  0
VERTEX
  8
0
 10
7.56976
 20
8.3915
 30
0.0
 40
0
 41
0
  0
VERTEX
  8
0
 10
7.58046
 20
8.37213
 30
0.0
 40
0
 41
0
  0
VERTEX
  8
0
 10
7.58046
 20
8.36567
 30
0.0
 40
0
 41
0
  0
VERTEX
  8
0
 10
7.58046
 20
8.35926
 30
0.0
 40
0
 41
0
  0
VERTEX
  8
0
 10
7.56976
 20
8.3399
 30
0.0
 40
0
 41
0
  0
VERTEX
  8
0
 10
7.5504
 20
8.32921
 30
0.0
 40
0
 41
0
  0
VERTEX
  8
0
 10
7.544
 20
8.32921
 30
0.0
 40
0
 41
0
  0
VERTEX
  8
0
 10
7.53754
 20
8.32921
 30
0.0
 40
0
 41
0
  0
VERTEX
  8
0
 10
7.51818
 20
8.3399
 30
0.0
 40
0
 41
0
  0
VERTEX
  8
0
 10
7.50754
 20
8.35926
 30
0.0
 40
0
 41
0
  0
VERTEX
  8
0
 10
7.50754
 20
8.36567
 30
0.0
 40
0
 41
0
  0
SEQEND
 8
0
  0
POLYLINE
  8
0
 62
     0
 66
     1
 10
0
 20
0
 30
0.0
 70
     1
 40
0.6
 41
0.6
  0
VERTEX
  8
0
 10
7.50754
 20
8.36567
 30
0.0
 40
0.00833333
 41
0.00833333
  0
VERTEX
  8
0
 10
7.50754
 20
8.37213
 30
0.0
 40
0.00833333
 41
0.00833333
  0
VERTEX
  8
0
 10
7.51818
 20
8.3915
 30
0.0
 40
0.00833333
 41
0.00833333
  0
VERTEX
  8
0
 10
7.53754
 20
8.40213
 30
0.0
 40
0.00833333
 41
0.00833333
  0
VERTEX
  8
0
 10
7.544
 20
8.40213
 30
0.0
 40
0.00833333
 41
0.00833333
  0
VERTEX
  8
0
 10
7.5504
 20
8.40213
 30
0.0
 40
0.00833333
 41
0.00833333
  0
VERTEX
  8
0
 10
7.56976
 20
8.3915
 30
0.0
 40
0.00833333
 41
0.00833333
  0
VERTEX
  8
0
 10
7.58046
 20
8.37213
 30
0.0
 40
0.00833333
 41
0.00833333
  0
VERTEX
  8
0
 10
7.58046
 20
8.36567
 30
0.0
 40
0.00833333
 41
0.00833333
  0
VERTEX
  8
0
 10
7.58046
 20
8.35926
 30
0.0
 40
0.00833333
 41
0.00833333
  0
VERTEX
  8
0
 10
7.56976
 20
8.3399
 30
0.0
 40
0.00833333
 41
0.00833333
  0
VERTEX
  8
0
 10
7.5504
 20
8.32921
 30
0.0
 40
0.00833333
 41
0.00833333
  0
VERTEX
  8
0
 10
7.544
 20
8.32921
 30
0.0
 40
0.00833333
 41
0.00833333
  0
VERTEX
  8
0
 10
7.53754
 20
8.32921
 30
0.0
 40
0.00833333
 41
0.00833333
  0
VERTEX
  8
0
 10
7.51818
 20
8.3399
 30
0.0
 40
0.00833333
 41
0.00833333
  0
VERTEX
  8
0
 10
7.50754
 20
8.35926
 30
0.0
 40
0.00833333
 41
0.00833333
  0
VERTEX
  8
0
 10
7.50754
 20
8.36567
 30
0.0
 40
0.00833333
 41
0.00833333
  0
SEQEND
 8
0
  0
POLYLINE
  8
0
 62
     7
 66
     1
 10
0
 20
0
 30
0.0
 70
     1
 40
0
 41
0
  0
VERTEX
  8
0
 10
7.86561
 20
8.36567
 30
0.0
 40
0
 41
0
  0
VERTEX
  8
0
 10
7.86561
 20
8.36936
 30
0.0
 40
0
 41
0
  0
VERTEX
  8
0
 10
7.87169
 20
8.38043
 30
0.0
 40
0
 41
0
  0
VERTEX
  8
0
 10
7.88276
 20
8.3865
 30
0.0
 40
0
 41
0
  0
VERTEX
  8
0
 10
7.88644
 20
8.3865
 30
0.0
 40
0
 41
0
  0
VERTEX
  8
0
 10
7.89008
 20
8.3865
 30
0.0
 40
0
 41
0
  0
VERTEX
  8
0
 10
7.90115
 20
8.38043
 30
0.0
 40
0
 41
0
  0
VERTEX
  8
0
 10
7.90728
 20
8.36936
 30
0.0
 40
0
 41
0
  0
VERTEX
  8
0
 10
7.90728
 20
8.36567
 30
0.0
 40
0
 41
0
  0
VERTEX
  8
0
 10
7.90728
 20
8.36203
 30
0.0
 40
0
 41
0
  0
VERTEX
  8
0
 10
7.90115
 20
8.35097
 30
0.0
 40
0
 41
0
  0
VERTEX
  8
0
 10
7.89008
 20
8.34483
 30
0.0
 40
0
 41
0
  0
VERTEX
  8
0
 10
7.88644
 20
8.34483
 30
0.0
 40
0
 41
0
  0
VERTEX
  8
0
 10
7.88276
 20
8.34483
 30
0.0
 40
0
 41
0
  0
VERTEX
  8
0
 10
7.87169
 20
8.35097
 30
0.0
 40
0
 41
0
  0
VERTEX
  8
0
 10
7.86561
 20
8.36203
 30
0.0
 40
0
 41
0
  0
VERTEX
  8
0
 10
7.86561
 20
8.36567
 30
0.0
 40
0
 41
0
  0
SEQEND
 8
0
  0
POLYLINE
  8
0
 62
     0
 66
     1
 10
0
 20
0
 30
0.0
 70
     1
 40
0.6
 41
0.6
  0
VERTEX
  8
0
 10
7.86561
 20
8.36567
 30
0.0
 40
0.00833333
 41
0.00833333
  0
VERTEX
  8
0
 10
7.86561
 20
8.36936
 30
0.0
 40
0.00833333
 41
0.00833333
  0
VERTEX
  8
0
 10
7.87169
 20
8.38043
 30
0.0
 40
0.00833333
 41
0.00833333
  0
VERTEX
  8
0
 10
7.88276
 20
8.3865
 30
0.0
 40
0.00833333
 41
0.00833333
  0
VERTEX
  8
0
 10
7.88644
 20
8.3865
 30
0.0
 40
0.00833333
 41
0.00833333
  0
VERTEX
  8
0
 10
7.89008
 20
8.3865
 30
0.0
 40
0.00833333
 41
0.00833333
  0
VERTEX
  8
0
 10
7.90115
 20
8.38043
 30
0.0
 40
0.00833333
 41
0.00833333
  0
VERTEX
  8
0
 10
7.90728
 20
8.36936
 30
0.0
 40
0.00833333
 41
0.00833333
  0
VERTEX
  8
0
 10
7.90728
 20
8.36567
 30
0.0
 40
0.00833333
 41
0.00833333
  0
VERTEX
  8
0
 10
7.90728
 20
8.36203
 30
0.0
 40
0.00833333
 41
0.00833333
  0
VERTEX
  8
0
 10
7.90115
 20
8.35097
 30
0.0
 40
0.00833333
 41
0.00833333
  0
VERTEX
  8
0
 10
7.89008
 20
8.34483
 30
0.0
 40
0.00833333
 41
0.00833333
  0
VERTEX
  8
0
 10
7.88644
 20
8.34483
 30
0.0
 40
0.00833333
 41
0.00833333
  0
VERTEX
  8
0
 10
7.88276
 20
8.34483
 30
0.0
 40
0.00833333
 41
0.00833333
  0
VERTEX
  8
0
 10
7.87169
 20
8.35097
 30
0.0
 40
0.00833333
 41
0.00833333
  0
VERTEX
  8
0
 10
7.86561
 20
8.36203
 30
0.0
 40
0.00833333
 41
0.00833333
  0
VERTEX
  8
0
 10
7.86561
 20
8.36567
 30
0.0
 40
0.00833333
 41
0.00833333
  0
SEQEND
 8
0
  0
POLYLINE
  8
0
 62
     7
 66
     1
 10
0
 20
0
 30
0.0
 70
     1
 40
0
 41
0
  0
VERTEX
  8
0
 10
7.52317
 20
8.36567
 30
0.0
 40
0
 41
0
  0
VERTEX
  8
0
 10
7.52317
 20
8.36936
 30
0.0
 40
0
 41
0
  0
VERTEX
  8
0
 10
7.52924
 20
8.38043
 30
0.0
 40
0
 41
0
  0
VERTEX
  8
0
 10
7.54031
 20
8.3865
 30
0.0
 40
0
 41
0
  0
VERTEX
  8
0
 10
7.544
 20
8.3865
 30
0.0
 40
0
 41
0
  0
VERTEX
  8
0
 10
7.54764
 20
8.3865
 30
0.0
 40
0
 41
0
  0
VERTEX
  8
0
 10
7.55871
 20
8.38043
 30
0.0
 40
0
 41
0
  0
VERTEX
  8
0
 10
7.56483
 20
8.36936
 30
0.0
 40
0
 41
0
  0
VERTEX
  8
0
 10
7.56483
 20
8.36567
 30
0.0
 40
0
 41
0
  0
VERTEX
  8
0
 10
7.56483
 20
8.36203
 30
0.0
 40
0
 41
0
  0
VERTEX
  8
0
 10
7.55871
 20
8.35097
 30
0.0
 40
0
 41
0
  0
VERTEX
  8
0
 10
7.54764
 20
8.34483
 30
0.0
 40
0
 41
0
  0
VERTEX
  8
0
 10
7.544
 20
8.34483
 30
0.0
 40
0
 41
0
  0
VERTEX
  8
0
 10
7.54031
 20
8.34483
 30
0.0
 40
0
 41
0
  0
VERTEX
  8
0
 10
7.52924
 20
8.35097
 30
0.0
 40
0
 41
0
  0
VERTEX
  8
0
 10
7.52317
 20
8.36203
 30
0.0
 40
0
 41
0
  0
VERTEX
  8
0
 10
7.52317
 20
8.36567
 30
0.0
 40
0
 41
0
  0
SEQEND
 8
0
  0
POLYLINE
  8
0
 62
     0
 66
     1
 10
0
 20
0
 30
0.0
 70
     1
 40
0.6
 41
0.6
  0
VERTEX
  8
0
 10
7.52317
 20
8.36567
 30
0.0
 40
0.00833333
 41
0.00833333
  0
VERTEX
  8
0
 10
7.52317
 20
8.36936
 30
0.0
 40
0.00833333
 41
0.00833333
  0
VERTEX
  8
0
 10
7.52924
 20
8.38043
 30
0.0
 40
0.00833333
 41
0.00833333
  0
VERTEX
  8
0
 10
7.54031
 20
8.3865
 30
0.0
 40
0.00833333
 41
0.00833333
  0
VERTEX
  8
0
 10
7.544
 20
8.3865
 30
0.0
 40
0.00833333
 41
0.00833333
  0
VERTEX
  8
0
 10
7.54764
 20
8.3865
 30
0.0
 40
0.00833333
 41
0.00833333
  0
VERTEX
  8
0
 10
7.55871
 20
8.38043
 30
0.0
 40
0.00833333
 41
0.00833333
  0
VERTEX
  8
0
 10
7.56483
 20
8.36936
 30
0.0
 40
0.00833333
 41
0.00833333
  0
VERTEX
  8
0
 10
7.56483
 20
8.36567
 30
0.0
 40
0.00833333
 41
0.00833333
  0
VERTEX
  8
0
 10
7.56483
 20
8.36203
 30
0.0
 40
0.00833333
 41
0.00833333
  0
VERTEX
  8
0
 10
7.55871
 20
8.35097
 30
0.0
 40
0.00833333
 41
0.00833333
  0
VERTEX
  8
0
 10
7.54764
 20
8.34483
 30
0.0
 40
0.00833333
 41
0.00833333
  0
VERTEX
  8
0
 10
7.544
 20
8.34483
 30
0.0
 40
0.00833333
 41
0.00833333
  0
VERTEX
  8
0
 10
7.54031
 20
8.34483
 30
0.0
 40
0.00833333
 41
0.00833333
  0
VERTEX
  8
0
 10
7.52924
 20
8.35097
 30
0.0
 40
0.00833333
 41
0.00833333
  0
VERTEX
  8
0
 10
7.52317
 20
8.36203
 30
0.0
 40
0.00833333
 41
0.00833333
  0
VERTEX
  8
0
 10
7.52317
 20
8.36567
 30
0.0
 40
0.00833333
 41
0.00833333
  0
SEQEND
 8
0
  0
POLYLINE
  8
0
 62
     7
 66
     1
 10
0
 20
0
 30
0.0
 70
     1
 40
0
 41
0
  0
VERTEX
  8
0
 10
7.68582
 20
8.22401
 30
0.0
 40
0
 41
0
  0
VERTEX
  8
0
 10
7.74832
 20
8.22401
 30
0.0
 40
0
 41
0
  0
VERTEX
  8
0
 10
7.74832
 20
8.07818
 30
0.0
 40
0
 41
0
  0
VERTEX
  8
0
 10
7.68582
 20
8.07818
 30
0.0
 40
0
 41
0
  0
VERTEX
  8
0
 10
7.68582
 20
8.22401
 30
0.0
 40
0
 41
0
  0
SEQEND
 8
0
  0
POLYLINE
  8
0
 62
     0
 66
     1
 10
0
 20
0
 30
0.0
 70
     1
 40
0.75
 41
0.75
  0
VERTEX
  8
0
 10
7.68582
 20
8.22401
 30
0.0
 40
0.0104167
 41
0.0104167
  0
VERTEX
  8
0
 10
7.74832
 20
8.22401
 30
0.0
 40
0.0104167
 41
0.0104167
  0
VERTEX
  8
0
 10
7.74832
 20
8.07818
 30
0.0
 40
0.0104167
 41
0.0104167
  0
VERTEX
  8
0
 10
7.68582
 20
8.07818
 30
0.0
 40
0.0104167
 41
0.0104167
  0
VERTEX
  8
0
 10
7.68582
 20
8.22401
 30
0.0
 40
0.0104167
 41
0.0104167
  0
SEQEND
 8
0
  0
POLYLINE
  8
0
 62
     7
 66
     1
 10
0
 20
0
 30
0.0
 70
     1
 40
0
 41
0
  0
VERTEX
  8
0
 10
8.38406
 20
9.5689
 30
0.0
 40
0
 41
0
  0
VERTEX
  8
0
 10
8.96739
 20
9.5689
 30
0.0
 40
0
 41
0
  0
VERTEX
  8
0
 10
8.96739
 20
9.08692
 30
0.0
 40
0
 41
0
  0
VERTEX
  8
0
 10
8.38406
 20
9.08692
 30
0.0
 40
0
 41
0
  0
VERTEX
  8
0
 10
8.38406
 20
9.5689
 30
0.0
 40
0
 41
0
  0
SEQEND
 8
0
  0
POLYLINE
  8
0
 62
     0
 66
     1
 10
0
 20
0
 30
0.0
 70
     1
 40
0.75
 41
0.75
  0
VERTEX
  8
0
 10
8.38406
 20
9.5689
 30
0.0
 40
0.0104167
 41
0.0104167
  0
VERTEX
  8
0
 10
8.38406
 20
9.08692
 30
0.0
 40
0.0104167
 41
0.0104167
  0
VERTEX
  8
0
 10
8.96739
 20
9.08692
 30
0.0
 40
0.0104167
 41
0.0104167
  0
VERTEX
  8
0
 10
8.96739
 20
9.5689
 30
0.0
 40
0.0104167
 41
0.0104167
  0
VERTEX
  8
0
 10
8.38406
 20
9.5689
 30
0.0
 40
0.0104167
 41
0.0104167
  0
SEQEND
 8
0
  0
POLYLINE
  8
0
 62
     7
 66
     1
 10
0
 20
0
 30
0.0
 70
     1
 40
0
 41
0
  0
VERTEX
  8
0
 10
8.82156
 20
9.36768
 30
0.0
 40
0
 41
0
  0
VERTEX
  8
0
 10
8.81342
 20
9.36768
 30
0.0
 40
0
 41
0
  0
VERTEX
  8
0
 10
8.78911
 20
9.37424
 30
0.0
 40
0
 41
0
  0
VERTEX
  8
0
 10
8.76264
 20
9.39208
 30
0.0
 40
0
 41
0
  0
VERTEX
  8
0
 10
8.74474
 20
9.41862
 30
0.0
 40
0
 41
0
  0
VERTEX
  8
0
 10
8.73822
 20
9.44293
 30
0.0
 40
0
 41
0
  0
VERTEX
  8
0
 10
8.73822
 20
9.45101
 30
0.0
 40
0
 41
0
  0
VERTEX
  8
0
 10
8.73822
 20
9.45915
 30
0.0
 40
0
 41
0
  0
VERTEX
  8
0
 10
8.74474
 20
9.48346
 30
0.0
 40
0
 41
0
  0
VERTEX
  8
0
 10
8.76264
 20
9.50993
 30
0.0
 40
0
 41
0
  0
VERTEX
  8
0
 10
8.78911
 20
9.52783
 30
0.0
 40
0
 41
0
  0
VERTEX
  8
0
 10
8.81342
 20
9.53435
 30
0.0
 40
0
 41
0
  0
VERTEX
  8
0
 10
8.82156
 20
9.53435
 30
0.0
 40
0
 41
0
  0
VERTEX
  8
0
 10
8.82964
 20
9.53435
 30
0.0
 40
0
 41
0
  0
VERTEX
  8
0
 10
8.85394
 20
9.52783
 30
0.0
 40
0
 41
0
  0
VERTEX
  8
0
 10
8.88049
 20
9.50993
 30
0.0
 40
0
 41
0
  0
VERTEX
  8
0
 10
8.89833
 20
9.48346
 30
0.0
 40
0
 41
0
  0
VERTEX
  8
0
 10
8.90489
 20
9.45915
 30
0.0
 40
0
 41
0
  0
VERTEX
  8
0
 10
8.90489
 20
9.45101
 30
0.0
 40
0
 41
0
  0
VERTEX
  8
0
 10
8.90489
 20
9.44293
 30
0.0
 40
0
 41
0
  0
VERTEX
  8
0
 10
8.89833
 20
9.41862
 30
0.0
 40
0
 41
0
  0
VERTEX
  8
0
 10
8.88049
 20
9.39208
 30
0.0
 40
0
 41
0
  0
VERTEX
  8
0
 10
8.85394
 20
9.37424
 30
0.0
 40
0
 41
0
  0
VERTEX
  8
0
 10
8.82964
 20
9.36768
 30
0.0
 40
0
 41
0
  0
VERTEX
  8
0
 10
8.82156
 20
9.36768
 30
0.0
 40
0
 41
0
  0
SEQEND
 8
0
  0
POLYLINE
  8
0
 62
     0
 66
     1
 10
0
 20
0
 30
0.0
 70
     1
 40
0.75
 41
0.75
  0
VERTEX
  8
0
 10
8.82156
 20
9.36768
 30
0.0
 40
0.0104167
 41
0.0104167
  0
VERTEX
  8
0
 10
8.81342
 20
9.36768
 30
0.0
 40
0.0104167
 41
0.0104167
  0
VERTEX
  8
0
 10
8.78911
 20
9.37424
 30
0.0
 40
0.0104167
 41
0.0104167
  0
VERTEX
  8
0
 10
8.76264
 20
9.39208
 30
0.0
 40
0.0104167
 41
0.0104167
  0
VERTEX
  8
0
 10
8.74474
 20
9.41862
 30
0.0
 40
0.0104167
 41
0.0104167
  0
VERTEX
  8
0
 10
8.73822
 20
9.44293
 30
0.0
 40
0.0104167
 41
0.0104167
  0
VERTEX
  8
0
 10
8.73822
 20
9.45101
 30
0.0
 40
0.0104167
 41
0.0104167
  0
VERTEX
  8
0
 10
8.73822
 20
9.45915
 30
0.0
 40
0.0104167
 41
0.0104167
  0
VERTEX
  8
0
 10
8.74474
 20
9.48346
 30
0.0
 40
0.0104167
 41
0.0104167
  0
VERTEX
  8
0
 10
8.76264
 20
9.50993
 30
0.0
 40
0.0104167
 41
0.0104167
  0
VERTEX
  8
0
 10
8.78911
 20
9.52783
 30
0.0
 40
0.0104167
 41
0.0104167
  0
VERTEX
  8
0
 10
8.81342
 20
9.53435
 30
0.0
 40
0.0104167
 41
0.0104167
  0
VERTEX
  8
0
 10
8.82156
 20
9.53435
 30
0.0
 40
0.0104167
 41
0.0104167
  0
VERTEX
  8
0
 10
8.82964
 20
9.53435
 30
0.0
 40
0.0104167
 41
0.0104167
  0
VERTEX
  8
0
 10
8.85394
 20
9.52783
 30
0.0
 40
0.0104167
 41
0.0104167
  0
VERTEX
  8
0
 10
8.88049
 20
9.50993
 30
0.0
 40
0.0104167
 41
0.0104167
  0
VERTEX
  8
0
 10
8.89833
 20
9.48346
 30
0.0
 40
0.0104167
 41
0.0104167
  0
VERTEX
  8
0
 10
8.90489
 20
9.45915
 30
0.0
 40
0.0104167
 41
0.0104167
  0
VERTEX
  8
0
 10
8.90489
 20
9.45101
 30
0.0
 40
0.0104167
 41
0.0104167
  0
VERTEX
  8
0
 10
8.90489
 20
9.44293
 30
0.0
 40
0.0104167
 41
0.0104167
  0
VERTEX
  8
0
 10
8.89833
 20
9.41862
 30
0.0
 40
0.0104167
 41
0.0104167
  0
VERTEX
  8
0
 10
8.88049
 20
9.39208
 30
0.0
 40
0.0104167
 41
0.0104167
  0
VERTEX
  8
0
 10
8.85394
 20
9.37424
 30
0.0
 40
0.0104167
 41
0.0104167
  0
VERTEX
  8
0
 10
8.82964
 20
9.36768
 30
0.0
 40
0.0104167
 41
0.0104167
  0
VERTEX
  8
0
 10
8.82156
 20
9.36768
 30
0.0
 40
0.0104167
 41
0.0104167
  0
SEQEND
 8
0
  0
POLYLINE
  8
0
 62
     7
 66
     1
 10
0
 20
0
 30
0.0
 70
     1
 40
0
 41
0
  0
VERTEX
  8
0
 10
8.82156
 20
9.12494
 30
0.0
 40
0
 41
0
  0
VERTEX
  8
0
 10
8.81342
 20
9.12494
 30
0.0
 40
0
 41
0
  0
VERTEX
  8
0
 10
8.78911
 20
9.13151
 30
0.0
 40
0
 41
0
  0
VERTEX
  8
0
 10
8.76264
 20
9.14936
 30
0.0
 40
0
 41
0
  0
VERTEX
  8
0
 10
8.74474
 20
9.17583
 30
0.0
 40
0
 41
0
  0
VERTEX
  8
0
 10
8.73822
 20
9.20019
 30
0.0
 40
0
 41
0
  0
VERTEX
  8
0
 10
8.73822
 20
9.20828
 30
0.0
 40
0
 41
0
  0
VERTEX
  8
0
 10
8.73822
 20
9.21642
 30
0.0
 40
0
 41
0
  0
VERTEX
  8
0
 10
8.74474
 20
9.24072
 30
0.0
 40
0
 41
0
  0
VERTEX
  8
0
 10
8.76264
 20
9.26719
 30
0.0
 40
0
 41
0
  0
VERTEX
  8
0
 10
8.78911
 20
9.2851
 30
0.0
 40
0
 41
0
  0
VERTEX
  8
0
 10
8.81342
 20
9.29161
 30
0.0
 40
0
 41
0
  0
VERTEX
  8
0
 10
8.82156
 20
9.29161
 30
0.0
 40
0
 41
0
  0
VERTEX
  8
0
 10
8.82964
 20
9.29161
 30
0.0
 40
0
 41
0
  0
VERTEX
  8
0
 10
8.85394
 20
9.2851
 30
0.0
 40
0
 41
0
  0
VERTEX
  8
0
 10
8.88049
 20
9.26719
 30
0.0
 40
0
 41
0
  0
VERTEX
  8
0
 10
8.89833
 20
9.24072
 30
0.0
 40
0
 41
0
  0
VERTEX
  8
0
 10
8.90489
 20
9.21642
 30
0.0
 40
0
 41
0
  0
VERTEX
  8
0
 10
8.90489
 20
9.20828
 30
0.0
 40
0
 41
0
  0
VERTEX
  8
0
 10
8.90489
 20
9.20019
 30
0.0
 40
0
 41
0
  0
VERTEX
  8
0
 10
8.89833
 20
9.17583
 30
0.0
 40
0
 41
0
  0
VERTEX
  8
0
 10
8.88049
 20
9.14936
 30
0.0
 40
0
 41
0
  0
VERTEX
  8
0
 10
8.85394
 20
9.13151
 30
0.0
 40
0
 41
0
  0
VERTEX
  8
0
 10
8.82964
 20
9.12494
 30
0.0
 40
0
 41
0
  0
VERTEX
  8
0
 10
8.82156
 20
9.12494
 30
0.0
 40
0
 41
0
  0
SEQEND
 8
0
  0
POLYLINE
  8
0
 62
     0
 66
     1
 10
0
 20
0
 30
0.0
 70
     1
 40
0.75
 41
0.75
  0
VERTEX
  8
0
 10
8.82156
 20
9.12494
 30
0.0
 40
0.0104167
 41
0.0104167
  0
VERTEX
  8
0
 10
8.81342
 20
9.12494
 30
0.0
 40
0.0104167
 41
0.0104167
  0
VERTEX
  8
0
 10
8.78911
 20
9.13151
 30
0.0
 40
0.0104167
 41
0.0104167
  0
VERTEX
  8
0
 10
8.76264
 20
9.14936
 30
0.0
 40
0.0104167
 41
0.0104167
  0
VERTEX
  8
0
 10
8.74474
 20
9.17583
 30
0.0
 40
0.0104167
 41
0.0104167
  0
VERTEX
  8
0
 10
8.73822
 20
9.20019
 30
0.0
 40
0.0104167
 41
0.0104167
  0
VERTEX
  8
0
 10
8.73822
 20
9.20828
 30
0.0
 40
0.0104167
 41
0.0104167
  0
VERTEX
  8
0
 10
8.73822
 20
9.21642
 30
0.0
 40
0.0104167
 41
0.0104167
  0
VERTEX
  8
0
 10
8.74474
 20
9.24072
 30
0.0
 40
0.0104167
 41
0.0104167
  0
VERTEX
  8
0
 10
8.76264
 20
9.26719
 30
0.0
 40
0.0104167
 41
0.0104167
  0
VERTEX
  8
0
 10
8.78911
 20
9.2851
 30
0.0
 40
0.0104167
 41
0.0104167
  0
VERTEX
  8
0
 10
8.81342
 20
9.29161
 30
0.0
 40
0.0104167
 41
0.0104167
  0
VERTEX
  8
0
 10
8.82156
 20
9.29161
 30
0.0
 40
0.0104167
 41
0.0104167
  0
VERTEX
  8
0
 10
8.82964
 20
9.29161
 30
0.0
 40
0.0104167
 41
0.0104167
  0
VERTEX
  8
0
 10
8.85394
 20
9.2851
 30
0.0
 40
0.0104167
 41
0.0104167
  0
VERTEX
  8
0
 10
8.88049
 20
9.26719
 30
0.0
 40
0.0104167
 41
0.0104167
  0
VERTEX
  8
0
 10
8.89833
 20
9.24072
 30
0.0
 40
0.0104167
 41
0.0104167
  0
VERTEX
  8
0
 10
8.90489
 20
9.21642
 30
0.0
 40
0.0104167
 41
0.0104167
  0
VERTEX
  8
0
 10
8.90489
 20
9.20828
 30
0.0
 40
0.0104167
 41
0.0104167
  0
VERTEX
  8
0
 10
8.90489
 20
9.20019
 30
0.0
 40
0.0104167
 41
0.0104167
  0
VERTEX
  8
0
 10
8.89833
 20
9.17583
 30
0.0
 40
0.0104167
 41
0.0104167
  0
VERTEX
  8
0
 10
8.88049
 20
9.14936
 30
0.0
 40
0.0104167
 41
0.0104167
  0
VERTEX
  8
0
 10
8.85394
 20
9.13151
 30
0.0
 40
0.0104167
 41
0.0104167
  0
VERTEX
  8
0
 10
8.82964
 20
9.12494
 30
0.0
 40
0.0104167
 41
0.0104167
  0
VERTEX
  8
0
 10
8.82156
 20
9.12494
 30
0.0
 40
0.0104167
 41
0.0104167
  0
SEQEND
 8
0
  0
POLYLINE
  8
0
 62
     7
 66
     1
 10
0
 20
0
 30
0.0
 70
     1
 40
0
 41
0
  0
VERTEX
  8
0
 10
8.52989
 20
9.36768
 30
0.0
 40
0
 41
0
  0
VERTEX
  8
0
 10
8.52175
 20
9.36768
 30
0.0
 40
0
 41
0
  0
VERTEX
  8
0
 10
8.49744
 20
9.37424
 30
0.0
 40
0
 41
0
  0
VERTEX
  8
0
 10
8.47097
 20
9.39208
 30
0.0
 40
0
 41
0
  0
VERTEX
  8
0
 10
8.45307
 20
9.41862
 30
0.0
 40
0
 41
0
  0
VERTEX
  8
0
 10
8.44656
 20
9.44293
 30
0.0
 40
0
 41
0
  0
VERTEX
  8
0
 10
8.44656
 20
9.45101
 30
0.0
 40
0
 41
0
  0
VERTEX
  8
0
 10
8.44656
 20
9.45915
 30
0.0
 40
0
 41
0
  0
VERTEX
  8
0
 10
8.45307
 20
9.48346
 30
0.0
 40
0
 41
0
  0
VERTEX
  8
0
 10
8.47097
 20
9.50993
 30
0.0
 40
0
 41
0
  0
VERTEX
  8
0
 10
8.49744
 20
9.52783
 30
0.0
 40
0
 41
0
  0
VERTEX
  8
0
 10
8.52175
 20
9.53435
 30
0.0
 40
0
 41
0
  0
VERTEX
  8
0
 10
8.52989
 20
9.53435
 30
0.0
 40
0
 41
0
  0
VERTEX
  8
0
 10
8.53797
 20
9.53435
 30
0.0
 40
0
 41
0
  0
VERTEX
  8
0
 10
8.56228
 20
9.52783
 30
0.0
 40
0
 41
0
  0
VERTEX
  8
0
 10
8.58882
 20
9.50993
 30
0.0
 40
0
 41
0
  0
VERTEX
  8
0
 10
8.60667
 20
9.48346
 30
0.0
 40
0
 41
0
  0
VERTEX
  8
0
 10
8.61322
 20
9.45915
 30
0.0
 40
0
 41
0
  0
VERTEX
  8
0
 10
8.61322
 20
9.45101
 30
0.0
 40
0
 41
0
  0
VERTEX
  8
0
 10
8.61322
 20
9.44293
 30
0.0
 40
0
 41
0
  0
VERTEX
  8
0
 10
8.60667
 20
9.41862
 30
0.0
 40
0
 41
0
  0
VERTEX
  8
0
 10
8.58882
 20
9.39208
 30
0.0
 40
0
 41
0
  0
VERTEX
  8
0
 10
8.56228
 20
9.37424
 30
0.0
 40
0
 41
0
  0
VERTEX
  8
0
 10
8.53797
 20
9.36768
 30
0.0
 40
0
 41
0
  0
VERTEX
  8
0
 10
8.52989
 20
9.36768
 30
0.0
 40
0
 41
0
  0
SEQEND
 8
0
  0
POLYLINE
  8
0
 62
     0
 66
     1
 10
0
 20
0
 30
0.0
 70
     1
 40
0.75
 41
0.75
  0
VERTEX
  8
0
 10
8.52989
 20
9.36768
 30
0.0
 40
0.0104167
 41
0.0104167
  0
VERTEX
  8
0
 10
8.52175
 20
9.36768
 30
0.0
 40
0.0104167
 41
0.0104167
  0
VERTEX
  8
0
 10
8.49744
 20
9.37424
 30
0.0
 40
0.0104167
 41
0.0104167
  0
VERTEX
  8
0
 10
8.47097
 20
9.39208
 30
0.0
 40
0.0104167
 41
0.0104167
  0
VERTEX
  8
0
 10
8.45307
 20
9.41862
 30
0.0
 40
0.0104167
 41
0.0104167
  0
VERTEX
  8
0
 10
8.44656
 20
9.44293
 30
0.0
 40
0.0104167
 41
0.0104167
  0
VERTEX
  8
0
 10
8.44656
 20
9.45101
 30
0.0
 40
0.0104167
 41
0.0104167
  0
VERTEX
  8
0
 10
8.44656
 20
9.45915
 30
0.0
 40
0.0104167
 41
0.0104167
  0
VERTEX
  8
0
 10
8.45307
 20
9.48346
 30
0.0
 40
0.0104167
 41
0.0104167
  0
VERTEX
  8
0
 10
8.47097
 20
9.50993
 30
0.0
 40
0.0104167
 41
0.0104167
  0
VERTEX
  8
0
 10
8.49744
 20
9.52783
 30
0.0
 40
0.0104167
 41
0.0104167
  0
VERTEX
  8
0
 10
8.52175
 20
9.53435
 30
0.0
 40
0.0104167
 41
0.0104167
  0
VERTEX
  8
0
 10
8.52989
 20
9.53435
 30
0.0
 40
0.0104167
 41
0.0104167
  0
VERTEX
  8
0
 10
8.53797
 20
9.53435
 30
0.0
 40
0.0104167
 41
0.0104167
  0
VERTEX
  8
0
 10
8.56228
 20
9.52783
 30
0.0
 40
0.0104167
 41
0.0104167
  0
VERTEX
  8
0
 10
8.58882
 20
9.50993
 30
0.0
 40
0.0104167
 41
0.0104167
  0
VERTEX
  8
0
 10
8.60667
 20
9.48346
 30
0.0
 40
0.0104167
 41
0.0104167
  0
VERTEX
  8
0
 10
8.61322
 20
9.45915
 30
0.0
 40
0.0104167
 41
0.0104167
  0
VERTEX
  8
0
 10
8.61322
 20
9.45101
 30
0.0
 40
0.0104167
 41
0.0104167
  0
VERTEX
  8
0
 10
8.61322
 20
9.44293
 30
0.0
 40
0.0104167
 41
0.0104167
  0
VERTEX
  8
0
 10
8.60667
 20
9.41862
 30
0.0
 40
0.0104167
 41
0.0104167
  0
VERTEX
  8
0
 10
8.58882
 20
9.39208
 30
0.0
 40
0.0104167
 41
0.0104167
  0
VERTEX
  8
0
 10
8.56228
 20
9.37424
 30
0.0
 40
0.0104167
 41
0.0104167
  0
VERTEX
  8
0
 10
8.53797
 20
9.36768
 30
0.0
 40
0.0104167
 41
0.0104167
  0
VERTEX
  8
0
 10
8.52989
 20
9.36768
 30
0.0
 40
0.0104167
 41
0.0104167
  0
SEQEND
 8
0
  0
POLYLINE
  8
0
 62
     7
 66
     1
 10
0
 20
0
 30
0.0
 70
     1
 40
0
 41
0
  0
VERTEX
  8
0
 10
8.52989
 20
9.12494
 30
0.0
 40
0
 41
0
  0
VERTEX
  8
0
 10
8.52175
 20
9.12494
 30
0.0
 40
0
 41
0
  0
VERTEX
  8
0
 10
8.49744
 20
9.13151
 30
0.0
 40
0
 41
0
  0
VERTEX
  8
0
 10
8.47097
 20
9.14936
 30
0.0
 40
0
 41
0
  0
VERTEX
  8
0
 10
8.45307
 20
9.17583
 30
0.0
 40
0
 41
0
  0
VERTEX
  8
0
 10
8.44656
 20
9.20019
 30
0.0
 40
0
 41
0
  0
VERTEX
  8
0
 10
8.44656
 20
9.20828
 30
0.0
 40
0
 41
0
  0
VERTEX
  8
0
 10
8.44656
 20
9.21642
 30
0.0
 40
0
 41
0
  0
VERTEX
  8
0
 10
8.45307
 20
9.24072
 30
0.0
 40
0
 41
0
  0
VERTEX
  8
0
 10
8.47097
 20
9.26719
 30
0.0
 40
0
 41
0
  0
VERTEX
  8
0
 10
8.49744
 20
9.2851
 30
0.0
 40
0
 41
0
  0
VERTEX
  8
0
 10
8.52175
 20
9.29161
 30
0.0
 40
0
 41
0
  0
VERTEX
  8
0
 10
8.52989
 20
9.29161
 30
0.0
 40
0
 41
0
  0
VERTEX
  8
0
 10
8.53797
 20
9.29161
 30
0.0
 40
0
 41
0
  0
VERTEX
  8
0
 10
8.56228
 20
9.2851
 30
0.0
 40
0
 41
0
  0
VERTEX
  8
0
 10
8.58882
 20
9.26719
 30
0.0
 40
0
 41
0
  0
VERTEX
  8
0
 10
8.60667
 20
9.24072
 30
0.0
 40
0
 41
0
  0
VERTEX
  8
0
 10
8.61322
 20
9.21642
 30
0.0
 40
0
 41
0
  0
VERTEX
  8
0
 10
8.61322
 20
9.20828
 30
0.0
 40
0
 41
0
  0
VERTEX
  8
0
 10
8.61322
 20
9.20019
 30
0.0
 40
0
 41
0
  0
VERTEX
  8
0
 10
8.60667
 20
9.17583
 30
0.0
 40
0
 41
0
  0
VERTEX
  8
0
 10
8.58882
 20
9.14936
 30
0.0
 40
0
 41
0
  0
VERTEX
  8
0
 10
8.56228
 20
9.13151
 30
0.0
 40
0
 41
0
  0
VERTEX
  8
0
 10
8.53797
 20
9.12494
 30
0.0
 40
0
 41
0
  0
VERTEX
  8
0
 10
8.52989
 20
9.12494
 30
0.0
 40
0
 41
0
  0
SEQEND
 8
0
  0
POLYLINE
  8
0
 62
     0
 66
     1
 10
0
 20
0
 30
0.0
 70
     1
 40
0.75
 41
0.75
  0
VERTEX
  8
0
 10
8.52989
 20
9.12494
 30
0.0
 40
0.0104167
 41
0.0104167
  0
VERTEX
  8
0
 10
8.52175
 20
9.12494
 30
0.0
 40
0.0104167
 41
0.0104167
  0
VERTEX
  8
0
 10
8.49744
 20
9.13151
 30
0.0
 40
0.0104167
 41
0.0104167
  0
VERTEX
  8
0
 10
8.47097
 20
9.14936
 30
0.0
 40
0.0104167
 41
0.0104167
  0
VERTEX
  8
0
 10
8.45307
 20
9.17583
 30
0.0
 40
0.0104167
 41
0.0104167
  0
VERTEX
  8
0
 10
8.44656
 20
9.20019
 30
0.0
 40
0.0104167
 41
0.0104167
  0
VERTEX
  8
0
 10
8.44656
 20
9.20828
 30
0.0
 40
0.0104167
 41
0.0104167
  0
VERTEX
  8
0
 10
8.44656
 20
9.21642
 30
0.0
 40
0.0104167
 41
0.0104167
  0
VERTEX
  8
0
 10
8.45307
 20
9.24072
 30
0.0
 40
0.0104167
 41
0.0104167
  0
VERTEX
  8
0
 10
8.47097
 20
9.26719
 30
0.0
 40
0.0104167
 41
0.0104167
  0
VERTEX
  8
0
 10
8.49744
 20
9.2851
 30
0.0
 40
0.0104167
 41
0.0104167
  0
VERTEX
  8
0
 10
8.52175
 20
9.29161
 30
0.0
 40
0.0104167
 41
0.0104167
  0
VERTEX
  8
0
 10
8.52989
 20
9.29161
 30
0.0
 40
0.0104167
 41
0.0104167
  0
VERTEX
  8
0
 10
8.53797
 20
9.29161
 30
0.0
 40
0.0104167
 41
0.0104167
  0
VERTEX
  8
0
 10
8.56228
 20
9.2851
 30
0.0
 40
0.0104167
 41
0.0104167
  0
VERTEX
  8
0
 10
8.58882
 20
9.26719
 30
0.0
 40
0.0104167
 41
0.0104167
  0
VERTEX
  8
0
 10
8.60667
 20
9.24072
 30
0.0
 40
0.0104167
 41
0.0104167
  0
VERTEX
  8
0
 10
8.61322
 20
9.21642
 30
0.0
 40
0.0104167
 41
0.0104167
  0
VERTEX
  8
0
 10
8.61322
 20
9.20828
 30
0.0
 40
0.0104167
 41
0.0104167
  0
VERTEX
  8
0
 10
8.61322
 20
9.20019
 30
0.0
 40
0.0104167
 41
0.0104167
  0
VERTEX
  8
0
 10
8.60667
 20
9.17583
 30
0.0
 40
0.0104167
 41
0.0104167
  0
VERTEX
  8
0
 10
8.58882
 20
9.14936
 30
0.0
 40
0.0104167
 41
0.0104167
  0
VERTEX
  8
0
 10
8.56228
 20
9.13151
 30
0.0
 40
0.0104167
 41
0.0104167
  0
VERTEX
  8
0
 10
8.53797
 20
9.12494
 30
0.0
 40
0.0104167
 41
0.0104167
  0
VERTEX
  8
0
 10
8.52989
 20
9.12494
 30
0.0
 40
0.0104167
 41
0.0104167
  0
SEQEND
 8
0
  0
POLYLINE
  8
0
 62
     0
 66
     1
 10
0
 20
0
 30
0.0
 70
     1
 40
0.75
 41
0.75
  0
VERTEX
  8
0
 10
8.97715
 20
10.6078
 30
0.0
 40
0.0104167
 41
0.0104167
  0
VERTEX
  8
0
 10
8.97715
 20
8.03185
 30
0.0
 40
0.0104167
 41
0.0104167
  0
VERTEX
  8
0
 10
6.69661
 20
8.03093
 30
0.0
 40
0.0104167
 41
0.0104167
  0
VERTEX
  8
0
 10
6.69661
 20
8.34864
 30
0.0
 40
0.0104167
 41
0.0104167
  0
VERTEX
  8
0
 10
8.37744
 20
8.34864
 30
0.0
 40
0.0104167
 41
0.0104167
  0
VERTEX
  8
0
 10
8.68713
 20
8.63737
 30
0.0
 40
0.0104167
 41
0.0104167
  0
VERTEX
  8
0
 10
8.68713
 20
10.617
 30
0.0
 40
0.0104167
 41
0.0104167
  0
VERTEX
  8
0
 10
8.98247
 20
10.617
 30
0.0
 40
0.0104167
 41
0.0104167
  0
VERTEX
  8
0
 10
8.97715
 20
10.6078
 30
0.0
 40
0.0104167
 41
0.0104167
  0
SEQEND
 8
0
  0
POLYLINE
  8
0
 62
     7
 66
     1
 10
0
 20
0
 30
0.0
 70
     1
 40
0
 41
0
  0
VERTEX
  8
0
 10
3.67453
 20
2.72293
 30
0.0
 40
0
 41
0
  0
VERTEX
  8
0
 10
4.29953
 20
2.72293
 30
0.0
 40
0
 41
0
  0
VERTEX
  8
0
 10
4.29953
 20
2.24918
 30
0.0
 40
0
 41
0
  0
VERTEX
  8
0
 10
3.67453
 20
2.24918
 30
0.0
 40
0
 41
0
  0
VERTEX
  8
0
 10
3.67453
 20
2.72293
 30
0.0
 40
0
 41
0
  0
SEQEND
 8
0
  0
POLYLINE
  8
0
 62
     0
 66
     1
 10
0
 20
0
 30
0.0
 70
     1
 40
0.75
 41
0.75
  0
VERTEX
  8
0
 10
3.67453
 20
2.72293
 30
0.0
 40
0.0104167
 41
0.0104167
  0
VERTEX
  8
0
 10
3.67453
 20
2.24918
 30
0.0
 40
0.0104167
 41
0.0104167
  0
VERTEX
  8
0
 10
4.29953
 20
2.24918
 30
0.0
 40
0.0104167
 41
0.0104167
  0
VERTEX
  8
0
 10
4.29953
 20
2.72293
 30
0.0
 40
0.0104167
 41
0.0104167
  0
VERTEX
  8
0
 10
3.67453
 20
2.72293
 30
0.0
 40
0.0104167
 41
0.0104167
  0
SEQEND
 8
0
  0
POLYLINE
  8
0
 62
     253
 66
     1
 10
0
 20
0
 30
0.0
 40
0.75
 41
0.75
  0
VERTEX
  8
0
 10
3.98703
 20
2.24918
 30
0.0
 40
0.0104167
 41
0.0104167
  0
VERTEX
  8
0
 10
3.98703
 20
2.72293
 30
0.0
 40
0.0104167
 41
0.0104167
  0
SEQEND
 8
0
  0
POLYLINE
  8
0
 62
     7
 66
     1
 10
0
 20
0
 30
0.0
 70
     1
 40
0
 41
0
  0
VERTEX
  8
0
 10
3.67453
 20
3.19672
 30
0.0
 40
0
 41
0
  0
VERTEX
  8
0
 10
4.29953
 20
3.19672
 30
0.0
 40
0
 41
0
  0
VERTEX
  8
0
 10
4.29953
 20
2.72293
 30
0.0
 40
0
 41
0
  0
VERTEX
  8
0
 10
3.67453
 20
2.72293
 30
0.0
 40
0
 41
0
  0
VERTEX
  8
0
 10
3.67453
 20
3.19672
 30
0.0
 40
0
 41
0
  0
SEQEND
 8
0
  0
POLYLINE
  8
0
 62
     0
 66
     1
 10
0
 20
0
 30
0.0
 70
     1
 40
0.75
 41
0.75
  0
VERTEX
  8
0
 10
3.67453
 20
3.19672
 30
0.0
 40
0.0104167
 41
0.0104167
  0
VERTEX
  8
0
 10
3.67453
 20
2.72293
 30
0.0
 40
0.0104167
 41
0.0104167
  0
VERTEX
  8
0
 10
4.29953
 20
2.72293
 30
0.0
 40
0.0104167
 41
0.0104167
  0
VERTEX
  8
0
 10
4.29953
 20
3.19672
 30
0.0
 40
0.0104167
 41
0.0104167
  0
VERTEX
  8
0
 10
3.67453
 20
3.19672
 30
0.0
 40
0.0104167
 41
0.0104167
  0
SEQEND
 8
0
  0
POLYLINE
  8
0
 62
     253
 66
     1
 10
0
 20
0
 30
0.0
 40
0.75
 41
0.75
  0
VERTEX
  8
0
 10
3.98703
 20
2.72293
 30
0.0
 40
0.0104167
 41
0.0104167
  0
VERTEX
  8
0
 10
3.98703
 20
3.19672
 30
0.0
 40
0.0104167
 41
0.0104167
  0
SEQEND
 8
0
  0
POLYLINE
  8
0
 62
     7
 66
     1
 10
0
 20
0
 30
0.0
 70
     1
 40
0
 41
0
  0
VERTEX
  8
0
 10
7.61171
 20
1.93668
 30
0.0
 40
0
 41
0
  0
VERTEX
  8
0
 10
9.07206
 20
1.93668
 30
0.0
 40
0
 41
0
  0
VERTEX
  8
0
 10
9.07206
 20
1.48525
 30
0.0
 40
0
 41
0
  0
VERTEX
  8
0
 10
7.61171
 20
1.48525
 30
0.0
 40
0
 41
0
  0
VERTEX
  8
0
 10
7.61171
 20
1.93668
 30
0.0
 40
0
 41
0
  0
SEQEND
 8
0
  0
POLYLINE
  8
0
 62
     0
 66
     1
 10
0
 20
0
 30
0.0
 70
     1
 40
0.75
 41
0.75
  0
VERTEX
  8
0
 10
7.61171
 20
1.93668
 30
0.0
 40
0.0104167
 41
0.0104167
  0
VERTEX
  8
0
 10
9.07206
 20
1.93668
 30
0.0
 40
0.0104167
 41
0.0104167
  0
VERTEX
  8
0
 10
9.07206
 20
1.48525
 30
0.0
 40
0.0104167
 41
0.0104167
  0
VERTEX
  8
0
 10
7.61171
 20
1.48525
 30
0.0
 40
0.0104167
 41
0.0104167
  0
VERTEX
  8
0
 10
7.61171
 20
1.93668
 30
0.0
 40
0.0104167
 41
0.0104167
  0
SEQEND
 8
0
  0
POLYLINE
  8
0
 62
     0
 66
     1
 10
0
 20
0
 30
0.0
 70
     1
 40
0
 41
0
  0
VERTEX
  8
0
 10
0.593261
 20
12.9214
 30
0.0
 40
0
 41
0
  0
VERTEX
  8
0
 10
0.593261
 20
12.9164
 30
0.0
 40
0
 41
0
  0
VERTEX
  8
0
 10
0.589193
 20
12.9013
 30
0.0
 40
0
 41
0
  0
VERTEX
  8
0
 10
0.578125
 20
12.8849
 30
0.0
 40
0
 41
0
  0
VERTEX
  8
0
 10
0.561686
 20
12.8738
 30
0.0
 40
0
 41
0
  0
VERTEX
  8
0
 10
0.546604
 20
12.8697
 30
0.0
 40
0
 41
0
  0
VERTEX
  8
0
 10
0.541613
 20
12.8697
 30
0.0
 40
0
 41
0
  0
VERTEX
  8
0
 10
0.536567
 20
12.8697
 30
0.0
 40
0
 41
0
  0
VERTEX
  8
0
 10
0.521485
 20
12.8738
 30
0.0
 40
0
 41
0
  0
VERTEX
  8
0
 10
0.505046
 20
12.8849
 30
0.0
 40
0
 41
0
  0
VERTEX
  8
0
 10
0.493978
 20
12.9013
 30
0.0
 40
0
 41
0
  0
VERTEX
  8
0
 10
0.489963
 20
12.9164
 30
0.0
 40
0
 41
0
  0
VERTEX
  8
0
 10
0.489963
 20
12.9214
 30
0.0
 40
0
 41
0
  0
VERTEX
  8
0
 10
0.489963
 20
12.9264
 30
0.0
 40
0
 41
0
  0
VERTEX
  8
0
 10
0.493978
 20
12.9415
 30
0.0
 40
0
 41
0
  0
VERTEX
  8
0
 10
0.505046
 20
12.9579
 30
0.0
 40
0
 41
0
  0
VERTEX
  8
0
 10
0.521485
 20
12.969
 30
0.0
 40
0
 41
0
  0
VERTEX
  8
0
 10
0.536567
 20
12.973
 30
0.0
 40
0
 41
0
  0
VERTEX
  8
0
 10
0.541613
 20
12.973
 30
0.0
 40
0
 41
0
  0
VERTEX
  8
0
 10
0.546604
 20
12.973
 30
0.0
 40
0
 41
0
  0
VERTEX
  8
0
 10
0.561686
 20
12.969
 30
0.0
 40
0
 41
0
  0
VERTEX
  8
0
 10
0.578125
 20
12.9579
 30
0.0
 40
0
 41
0
  0
VERTEX
  8
0
 10
0.589193
 20
12.9415
 30
0.0
 40
0
 41
0
  0
VERTEX
  8
0
 10
0.593261
 20
12.9264
 30
0.0
 40
0
 41
0
  0
VERTEX
  8
0
 10
0.593261
 20
12.9214
 30
0.0
 40
0
 41
0
  0
SEQEND
 8
0
  0
POLYLINE
  8
0
 62
     0
 66
     1
 10
0
 20
0
 30
0.0
 70
     1
 40
0
 41
0
  0
VERTEX
  8
0
 10
9.19504
 20
12.9649
 30
0.0
 40
0
 41
0
  0
VERTEX
  8
0
 10
9.19504
 20
12.9599
 30
0.0
 40
0
 41
0
  0
VERTEX
  8
0
 10
9.19097
 20
12.9448
 30
0.0
 40
0
 41
0
  0
VERTEX
  8
0
 10
9.17985
 20
12.9284
 30
0.0
 40
0
 41
0
  0
VERTEX
  8
0
 10
9.16347
 20
12.9173
 30
0.0
 40
0
 41
0
  0
VERTEX
  8
0
 10
9.14839
 20
12.9133
 30
0.0
 40
0
 41
0
  0
VERTEX
  8
0
 10
9.14339
 20
12.9133
 30
0.0
 40
0
 41
0
  0
VERTEX
  8
0
 10
9.13835
 20
12.9133
 30
0.0
 40
0
 41
0
  0
VERTEX
  8
0
 10
9.12326
 20
12.9173
 30
0.0
 40
0
 41
0
  0
VERTEX
  8
0
 10
9.10682
 20
12.9284
 30
0.0
 40
0
 41
0
  0
VERTEX
  8
0
 10
9.09576
 20
12.9448
 30
0.0
 40
0
 41
0
  0
VERTEX
  8
0
 10
9.09174
 20
12.9599
 30
0.0
 40
0
 41
0
  0
VERTEX
  8
0
 10
9.09174
 20
12.9649
 30
0.0
 40
0
 41
0
  0
VERTEX
  8
0
 10
9.09174
 20
12.9699
 30
0.0
 40
0
 41
0
  0
VERTEX
  8
0
 10
9.09576
 20
12.985
 30
0.0
 40
0
 41
0
  0
VERTEX
  8
0
 10
9.10682
 20
13.0015
 30
0.0
 40
0
 41
0
  0
VERTEX
  8
0
 10
9.12326
 20
13.0125
 30
0.0
 40
0
 41
0
  0
VERTEX
  8
0
 10
9.13835
 20
13.0165
 30
0.0
 40
0
 41
0
  0
VERTEX
  8
0
 10
9.14339
 20
13.0165
 30
0.0
 40
0
 41
0
  0
VERTEX
  8
0
 10
9.14839
 20
13.0165
 30
0.0
 40
0
 41
0
  0
VERTEX
  8
0
 10
9.16347
 20
13.0125
 30
0.0
 40
0
 41
0
  0
VERTEX
  8
0
 10
9.17985
 20
13.0015
 30
0.0
 40
0
 41
0
  0
VERTEX
  8
0
 10
9.19097
 20
12.985
 30
0.0
 40
0
 41
0
  0
VERTEX
  8
0
 10
9.19504
 20
12.9699
 30
0.0
 40
0
 41
0
  0
VERTEX
  8
0
 10
9.19504
 20
12.9649
 30
0.0
 40
0
 41
0
  0
SEQEND
 8
0
  0
POLYLINE
  8
0
 62
     0
 66
     1
 10
0
 20
0
 30
0.0
 70
     1
 40
0
 41
0
  0
VERTEX
  8
0
 10
0.645617
 20
0.619303
 30
0.0
 40
0
 41
0
  0
VERTEX
  8
0
 10
0.645617
 20
0.611219
 30
0.0
 40
0
 41
0
  0
VERTEX
  8
0
 10
0.639051
 20
0.586806
 30
0.0
 40
0
 41
0
  0
VERTEX
  8
0
 10
0.621149
 20
0.560275
 30
0.0
 40
0
 41
0
  0
VERTEX
  8
0
 10
0.594618
 20
0.542372
 30
0.0
 40
0
 41
0
  0
VERTEX
  8
0
 10
0.570258
 20
0.535807
 30
0.0
 40
0
 41
0
  0
VERTEX
  8
0
 10
0.562175
 20
0.535807
 30
0.0
 40
0
 41
0
  0
VERTEX
  8
0
 10
0.554036
 20
0.535807
 30
0.0
 40
0
 41
0
  0
VERTEX
  8
0
 10
0.529622
 20
0.542372
 30
0.0
 40
0
 41
0
  0
VERTEX
  8
0
 10
0.503093
 20
0.560275
 30
0.0
 40
0
 41
0
  0
VERTEX
  8
0
 10
0.485189
 20
0.586806
 30
0.0
 40
0
 41
0
  0
VERTEX
  8
0
 10
0.478678
 20
0.611219
 30
0.0
 40
0
 41
0
  0
VERTEX
  8
0
 10
0.478678
 20
0.619303
 30
0.0
 40
0
 41
0
  0
VERTEX
  8
0
 10
0.478678
 20
0.627442
 30
0.0
 40
0
 41
0
  0
VERTEX
  8
0
 10
0.485189
 20
0.651801
 30
0.0
 40
0
 41
0
  0
VERTEX
  8
0
 10
0.503093
 20
0.678331
 30
0.0
 40
0
 41
0
  0
VERTEX
  8
0
 10
0.529622
 20
0.696235
 30
0.0
 40
0
 41
0
  0
VERTEX
  8
0
 10
0.554036
 20
0.702746
 30
0.0
 40
0
 41
0
  0
VERTEX
  8
0
 10
0.562175
 20
0.702746
 30
0.0
 40
0
 41
0
  0
VERTEX
  8
0
 10
0.570258
 20
0.702746
 30
0.0
 40
0
 41
0
  0
VERTEX
  8
0
 10
0.594618
 20
0.696235
 30
0.0
 40
0
 41
0
  0
VERTEX
  8
0
 10
0.621149
 20
0.678331
 30
0.0
 40
0
 41
0
  0
VERTEX
  8
0
 10
0.639051
 20
0.651801
 30
0.0
 40
0
 41
0
  0
VERTEX
  8
0
 10
0.645617
 20
0.627442
 30
0.0
 40
0
 41
0
  0
VERTEX
  8
0
 10
0.645617
 20
0.619303
 30
0.0
 40
0
 41
0
  0
SEQEND
 8
0
  0
POLYLINE
  8
0
 62
     0
 66
     1
 10
0
 20
0
 30
0.0
 70
     1
 40
0
 41
0
  0
VERTEX
  8
0
 10
9.09174
 20
12.9821
 30
0.0
 40
0
 41
0
  0
VERTEX
  8
0
 10
9.09174
 20
12.9749
 30
0.0
 40
0
 41
0
  0
VERTEX
  8
0
 10
9.08583
 20
12.9531
 30
0.0
 40
0
 41
0
  0
VERTEX
  8
0
 10
9.06988
 20
12.9293
 30
0.0
 40
0
 41
0
  0
VERTEX
  8
0
 10
9.04611
 20
12.9134
 30
0.0
 40
0
 41
0
  0
VERTEX
  8
0
 10
9.02431
 20
12.9074
 30
0.0
 40
0
 41
0
  0
VERTEX
  8
0
 10
9.01708
 20
12.9074
 30
0.0
 40
0
 41
0
  0
VERTEX
  8
0
 10
9.00982
 20
12.9074
 30
0.0
 40
0
 41
0
  0
VERTEX
  8
0
 10
8.98801
 20
12.9134
 30
0.0
 40
0
 41
0
  0
VERTEX
  8
0
 10
8.96431
 20
12.9293
 30
0.0
 40
0
 41
0
  0
VERTEX
  8
0
 10
8.94835
 20
12.9531
 30
0.0
 40
0
 41
0
  0
VERTEX
  8
0
 10
8.94249
 20
12.9749
 30
0.0
 40
0
 41
0
  0
VERTEX
  8
0
 10
8.94249
 20
12.9821
 30
0.0
 40
0
 41
0
  0
VERTEX
  8
0
 10
8.94249
 20
12.9894
 30
0.0
 40
0
 41
0
  0
VERTEX
  8
0
 10
8.94835
 20
13.0112
 30
0.0
 40
0
 41
0
  0
VERTEX
  8
0
 10
8.96431
 20
13.0349
 30
0.0
 40
0
 41
0
  0
VERTEX
  8
0
 10
8.98801
 20
13.0508
 30
0.0
 40
0
 41
0
  0
VERTEX
  8
0
 10
9.00982
 20
13.0567
 30
0.0
 40
0
 41
0
  0
VERTEX
  8
0
 10
9.01708
 20
13.0567
 30
0.0
 40
0
 41
0
  0
VERTEX
  8
0
 10
9.02431
 20
13.0567
 30
0.0
 40
0
 41
0
  0
VERTEX
  8
0
 10
9.04611
 20
13.0508
 30
0.0
 40
0
 41
0
  0
VERTEX
  8
0
 10
9.06988
 20
13.0349
 30
0.0
 40
0
 41
0
  0
VERTEX
  8
0
 10
9.08583
 20
13.0112
 30
0.0
 40
0
 41
0
  0
VERTEX
  8
0
 10
9.09174
 20
12.9894
 30
0.0
 40
0
 41
0
  0
VERTEX
  8
0
 10
9.09174
 20
12.9821
 30
0.0
 40
0
 41
0
  0
SEQEND
 8
0
  0
POLYLINE
  8
0
 62
     7
 66
     1
 10
0
 20
0
 30
0.0
 70
     1
 40
0
 41
0
  0
VERTEX
  8
0
 10
7.2404
 20
6.15246
 30
0.0
 40
0
 41
0
  0
VERTEX
  8
0
 10
7.80393
 20
6.15246
 30
0.0
 40
0
 41
0
  0
VERTEX
  8
0
 10
7.80393
 20
5.56912
 30
0.0
 40
0
 41
0
  0
VERTEX
  8
0
 10
7.2404
 20
5.56912
 30
0.0
 40
0
 41
0
  0
VERTEX
  8
0
 10
7.2404
 20
6.15246
 30
0.0
 40
0
 41
0
  0
SEQEND
 8
0
  0
POLYLINE
  8
0
 62
     0
 66
     1
 10
0
 20
0
 30
0.0
 70
     1
 40
0.75
 41
0.75
  0
VERTEX
  8
0
 10
7.2404
 20
6.15246
 30
0.0
 40
0.0104167
 41
0.0104167
  0
VERTEX
  8
0
 10
7.80393
 20
6.15246
 30
0.0
 40
0.0104167
 41
0.0104167
  0
VERTEX
  8
0
 10
7.80393
 20
5.56912
 30
0.0
 40
0.0104167
 41
0.0104167
  0
VERTEX
  8
0
 10
7.2404
 20
5.56912
 30
0.0
 40
0.0104167
 41
0.0104167
  0
VERTEX
  8
0
 10
7.2404
 20
6.15246
 30
0.0
 40
0.0104167
 41
0.0104167
  0
SEQEND
 8
0
  0
POLYLINE
  8
0
 62
     7
 66
     1
 10
0
 20
0
 30
0.0
 70
     1
 40
0
 41
0
  0
VERTEX
  8
0
 10
7.80399
 20
6.15246
 30
0.0
 40
0
 41
0
  0
VERTEX
  8
0
 10
8.36751
 20
6.15246
 30
0.0
 40
0
 41
0
  0
VERTEX
  8
0
 10
8.36751
 20
5.56912
 30
0.0
 40
0
 41
0
  0
VERTEX
  8
0
 10
7.80399
 20
5.56912
 30
0.0
 40
0
 41
0
  0
VERTEX
  8
0
 10
7.80399
 20
6.15246
 30
0.0
 40
0
 41
0
  0
SEQEND
 8
0
  0
POLYLINE
  8
0
 62
     0
 66
     1
 10
0
 20
0
 30
0.0
 70
     1
 40
0.75
 41
0.75
  0
VERTEX
  8
0
 10
7.80399
 20
6.15246
 30
0.0
 40
0.0104167
 41
0.0104167
  0
VERTEX
  8
0
 10
8.36751
 20
6.15246
 30
0.0
 40
0.0104167
 41
0.0104167
  0
VERTEX
  8
0
 10
8.36751
 20
5.56912
 30
0.0
 40
0.0104167
 41
0.0104167
  0
VERTEX
  8
0
 10
7.80399
 20
5.56912
 30
0.0
 40
0.0104167
 41
0.0104167
  0
VERTEX
  8
0
 10
7.80399
 20
6.15246
 30
0.0
 40
0.0104167
 41
0.0104167
  0
SEQEND
 8
0
  0
POLYLINE
  8
0
 62
     7
 66
     1
 10
0
 20
0
 30
0.0
 70
     1
 40
0
 41
0
  0
VERTEX
  8
0
 10
8.36257
 20
6.15246
 30
0.0
 40
0
 41
0
  0
VERTEX
  8
0
 10
8.97715
 20
6.15246
 30
0.0
 40
0
 41
0
  0
VERTEX
  8
0
 10
8.97715
 20
5.56912
 30
0.0
 40
0
 41
0
  0
VERTEX
  8
0
 10
8.36257
 20
5.56912
 30
0.0
 40
0
 41
0
  0
VERTEX
  8
0
 10
8.36257
 20
6.15246
 30
0.0
 40
0
 41
0
  0
SEQEND
 8
0
  0
POLYLINE
  8
0
 62
     0
 66
     1
 10
0
 20
0
 30
0.0
 70
     1
 40
0.75
 41
0.75
  0
VERTEX
  8
0
 10
8.36257
 20
6.15246
 30
0.0
 40
0.0104167
 41
0.0104167
  0
VERTEX
  8
0
 10
8.97715
 20
6.15246
 30
0.0
 40
0.0104167
 41
0.0104167
  0
VERTEX
  8
0
 10
8.97715
 20
5.56912
 30
0.0
 40
0.0104167
 41
0.0104167
  0
VERTEX
  8
0
 10
8.36257
 20
5.56912
 30
0.0
 40
0.0104167
 41
0.0104167
  0
VERTEX
  8
0
 10
8.36257
 20
6.15246
 30
0.0
 40
0.0104167
 41
0.0104167
  0
SEQEND
 8
0
  0
POLYLINE
  8
0
 62
     253
 66
     1
 10
0
 20
0
 30
0.0
 40
0.75
 41
0.75
  0
VERTEX
  8
0
 10
8.36257
 20
5.86079
 30
0.0
 40
0.0104167
 41
0.0104167
  0
VERTEX
  8
0
 10
8.97711
 20
5.86079
 30
0.0
 40
0.0104167
 41
0.0104167
  0
SEQEND
 8
0
  0
ENDSEC
  0
EOF
