  0
SECTION
  2
HEADER
  9
$ACADVER
  1
AC1009
  9
$FILLMODE
 70
 0
  9
$SPLFRAME
 70
 1
  9
$EXTMIN
 10
0
 20
0
 30
0.0
  9
$EXTMAX
 10
41.6667
 20
41.6667
 30
0.0
  0
ENDSEC
  0
SECTION
  2
TABLES
  0
TABLE
  2
LAYER
 70
1
  0
LAYER
  2
0
 70
     0
 62
     7
  6
CONTINUOUS
  0
ENDTAB
  0
ENDSEC
  0
SECTION
  2
ENTITIES
  0
POLYLINE
  8
0
 62
     7
 66
     1
 10
0
 20
0
 30
0.0
 70
     1
 40
0
 41
0
  0
VERTEX
  8
0
 10
4.64219
 20
1.63271
 30
0.0
 40
0
 41
0
  0
VERTEX
  8
0
 10
0.465007
 20
1.63271
 30
0.0
 40
0
 41
0
  0
VERTEX
  8
0
 10
0.465007
 20
4.63542
 30
0.0
 40
0
 41
0
  0
VERTEX
  8
0
 10
4.64492
 20
4.63542
 30
0.0
 40
0
 41
0
  0
VERTEX
  8
0
 10
4.64219
 20
1.63271
 30
0.0
 40
0
 41
0
  0
SEQEND
 8
0
  0
POLYLINE
  8
0
 62
     7
 66
     1
 10
0
 20
0
 30
0.0
 70
     1
 40
0.15
 41
0.15
  0
VERTEX
  8
0
 10
4.64219
 20
1.63271
 30
0.0
 40
0.00208333
 41
0.00208333
  0
VERTEX
  8
0
 10
0.465007
 20
1.63271
 30
0.0
 40
0.00208333
 41
0.00208333
  0
VERTEX
  8
0
 10
0.465007
 20
4.63542
 30
0.0
 40
0.00208333
 41
0.00208333
  0
VERTEX
  8
0
 10
4.64492
 20
4.63542
 30
0.0
 40
0.00208333
 41
0.00208333
  0
VERTEX
  8
0
 10
4.64219
 20
1.63271
 30
0.0
 40
0.00208333
 41
0.00208333
  0
SEQEND
 8
0
  0
TEXT
  8
0
 62
     0
 10
2.28592
 20
3.04082
 30
0.0
 40
0.34375
  1
MH
 50
0
  0
POLYLINE
  8
0
 62
     7
 66
     1
 10
0
 20
0
 30
0.0
 70
     1
 40
0
 41
0
  0
VERTEX
  8
0
 10
2.56853
 20
1.46604
 30
0.0
 40
0
 41
0
  0
VERTEX
  8
0
 10
0.466146
 20
1.46907
 30
0.0
 40
0
 41
0
  0
VERTEX
  8
0
 10
0.465494
 20
0.1926
 30
0.0
 40
0
 41
0
  0
VERTEX
  8
0
 10
2.56717
 20
0.1926
 30
0.0
 40
0
 41
0
  0
VERTEX
  8
0
 10
2.56853
 20
1.46604
 30
0.0
 40
0
 41
0
  0
SEQEND
 8
0
  0
POLYLINE
  8
0
 62
     7
 66
     1
 10
0
 20
0
 30
0.0
 70
     1
 40
0.15
 41
0.15
  0
VERTEX
  8
0
 10
2.56853
 20
1.46604
 30
0.0
 40
0.00208333
 41
0.00208333
  0
VERTEX
  8
0
 10
0.466146
 20
1.46907
 30
0.0
 40
0.00208333
 41
0.00208333
  0
VERTEX
  8
0
 10
0.465494
 20
0.1926
 30
0.0
 40
0.00208333
 41
0.00208333
  0
VERTEX
  8
0
 10
2.56717
 20
0.1926
 30
0.0
 40
0.00208333
 41
0.00208333
  0
VERTEX
  8
0
 10
2.56853
 20
1.46604
 30
0.0
 40
0.00208333
 41
0.00208333
  0
SEQEND
 8
0
  0
TEXT
  8
0
 62
     0
 10
1.29677
 20
1.0129
 30
0.0
 40
0.34375
  1
VH
 50
0
  0
POLYLINE
  8
0
 62
     7
 66
     1
 10
0
 20
0
 30
0.0
 70
     1
 40
0
 41
0
  0
VERTEX
  8
0
 10
13.6713
 20
12.0069
 30
0.0
 40
0
 41
0
  0
VERTEX
  8
0
 10
15.226
 20
12.0069
 30
0.0
 40
0
 41
0
  0
VERTEX
  8
0
 10
15.226
 20
7.86908
 30
0.0
 40
0
 41
0
  0
VERTEX
  8
0
 10
13.6713
 20
7.86908
 30
0.0
 40
0
 41
0
  0
VERTEX
  8
0
 10
13.6713
 20
12.0069
 30
0.0
 40
0
 41
0
  0
SEQEND
 8
0
  0
POLYLINE
  8
0
 62
     0
 66
     1
 10
0
 20
0
 30
0.0
 70
     1
 40
0.15
 41
0.15
  0
VERTEX
  8
0
 10
13.6713
 20
12.0069
 30
0.0
 40
0.00208333
 41
0.00208333
  0
VERTEX
  8
0
 10
15.226
 20
12.0069
 30
0.0
 40
0.00208333
 41
0.00208333
  0
VERTEX
  8
0
 10
15.226
 20
7.86908
 30
0.0
 40
0.00208333
 41
0.00208333
  0
VERTEX
  8
0
 10
13.6713
 20
7.86908
 30
0.0
 40
0.00208333
 41
0.00208333
  0
VERTEX
  8
0
 10
13.6713
 20
12.0069
 30
0.0
 40
0.00208333
 41
0.00208333
  0
SEQEND
 8
0
  0
TEXT
  8
0
 62
     0
 10
14.6032
 20
9.8454
 30
0.0
 40
0.34375
  1
P
 50
90
  0
TEXT
  8
0
 62
     0
 10
14.6032
 20
10.0444
 30
0.0
 40
0.34375
  1
ARVEKE
 50
90
  0
POLYLINE
  8
0
 62
     7
 66
     1
 10
0
 20
0
 30
0.0
 70
     1
 40
0
 41
0
  0
VERTEX
  8
0
 10
3.5695
 20
12.0069
 30
0.0
 40
0
 41
0
  0
VERTEX
  8
0
 10
7.88396
 20
12.0069
 30
0.0
 40
0
 41
0
  0
VERTEX
  8
0
 10
7.88396
 20
9.21918
 30
0.0
 40
0
 41
0
  0
VERTEX
  8
0
 10
3.5695
 20
9.21918
 30
0.0
 40
0
 41
0
  0
VERTEX
  8
0
 10
3.5695
 20
12.0069
 30
0.0
 40
0
 41
0
  0
SEQEND
 8
0
  0
POLYLINE
  8
0
 62
     7
 66
     1
 10
0
 20
0
 30
0.0
 70
     1
 40
0.15
 41
0.15
  0
VERTEX
  8
0
 10
3.5695
 20
12.0069
 30
0.0
 40
0.00208333
 41
0.00208333
  0
VERTEX
  8
0
 10
7.88396
 20
12.0069
 30
0.0
 40
0.00208333
 41
0.00208333
  0
VERTEX
  8
0
 10
7.88396
 20
9.21918
 30
0.0
 40
0.00208333
 41
0.00208333
  0
VERTEX
  8
0
 10
3.5695
 20
9.21918
 30
0.0
 40
0.00208333
 41
0.00208333
  0
VERTEX
  8
0
 10
3.5695
 20
12.0069
 30
0.0
 40
0.00208333
 41
0.00208333
  0
SEQEND
 8
0
  0
TEXT
  8
0
 62
     0
 10
5.89956
 20
10.4366
 30
0.0
 40
0.34375
  1
K
 50
0
  0
POLYLINE
  8
0
 62
     7
 66
     1
 10
0
 20
0
 30
0.0
 70
     1
 40
0
 41
0
  0
VERTEX
  8
0
 10
7.88396
 20
7.86908
 30
0.0
 40
0
 41
0
  0
VERTEX
  8
0
 10
7.51947
 20
7.86908
 30
0.0
 40
0
 41
0
  0
VERTEX
  8
0
 10
7.51947
 20
6.73122
 30
0.0
 40
0
 41
0
  0
VERTEX
  8
0
 10
4.64219
 20
6.73122
 30
0.0
 40
0
 41
0
  0
VERTEX
  8
0
 10
4.64219
 20
4.79156
 30
0.0
 40
0
 41
0
  0
VERTEX
  8
0
 10
3.5695
 20
4.79156
 30
0.0
 40
0
 41
0
  0
VERTEX
  8
0
 10
3.5695
 20
9.06293
 30
0.0
 40
0
 41
0
  0
VERTEX
  8
0
 10
7.88396
 20
9.06293
 30
0.0
 40
0
 41
0
  0
VERTEX
  8
0
 10
7.88396
 20
7.86908
 30
0.0
 40
0
 41
0
  0
SEQEND
 8
0
  0
POLYLINE
  8
0
 62
     7
 66
     1
 10
0
 20
0
 30
0.0
 70
     1
 40
0.15
 41
0.15
  0
VERTEX
  8
0
 10
7.88396
 20
7.86908
 30
0.0
 40
0.00208333
 41
0.00208333
  0
VERTEX
  8
0
 10
7.51947
 20
7.86908
 30
0.0
 40
0.00208333
 41
0.00208333
  0
VERTEX
  8
0
 10
7.51947
 20
6.73122
 30
0.0
 40
0.00208333
 41
0.00208333
  0
VERTEX
  8
0
 10
4.64219
 20
6.73122
 30
0.0
 40
0.00208333
 41
0.00208333
  0
VERTEX
  8
0
 10
4.64219
 20
4.79156
 30
0.0
 40
0.00208333
 41
0.00208333
  0
VERTEX
  8
0
 10
3.5695
 20
4.79156
 30
0.0
 40
0.00208333
 41
0.00208333
  0
VERTEX
  8
0
 10
3.5695
 20
9.06293
 30
0.0
 40
0.00208333
 41
0.00208333
  0
VERTEX
  8
0
 10
7.88396
 20
9.06293
 30
0.0
 40
0.00208333
 41
0.00208333
  0
VERTEX
  8
0
 10
7.88396
 20
7.86908
 30
0.0
 40
0.00208333
 41
0.00208333
  0
SEQEND
 8
0
  0
TEXT
  8
0
 62
     0
 10
5.73853
 20
7.89496
 30
0.0
 40
0.34375
  1
UNDEFINED
 50
0
  0
POLYLINE
  8
0
 62
     7
 66
     1
 10
0
 20
0
 30
0.0
 70
     1
 40
0
 41
0
  0
VERTEX
  8
0
 10
7.88396
 20
12.0069
 30
0.0
 40
0
 41
0
  0
VERTEX
  8
0
 10
13.4099
 20
12.0069
 30
0.0
 40
0
 41
0
  0
VERTEX
  8
0
 10
13.4099
 20
7.86908
 30
0.0
 40
0
 41
0
  0
VERTEX
  8
0
 10
7.88396
 20
7.86908
 30
0.0
 40
0
 41
0
  0
VERTEX
  8
0
 10
7.88396
 20
12.0069
 30
0.0
 40
0
 41
0
  0
SEQEND
 8
0
  0
POLYLINE
  8
0
 62
     7
 66
     1
 10
0
 20
0
 30
0.0
 70
     1
 40
0.15
 41
0.15
  0
VERTEX
  8
0
 10
7.88396
 20
12.0069
 30
0.0
 40
0.00208333
 41
0.00208333
  0
VERTEX
  8
0
 10
13.4099
 20
12.0069
 30
0.0
 40
0.00208333
 41
0.00208333
  0
VERTEX
  8
0
 10
13.4099
 20
7.86908
 30
0.0
 40
0.00208333
 41
0.00208333
  0
VERTEX
  8
0
 10
7.88396
 20
7.86908
 30
0.0
 40
0.00208333
 41
0.00208333
  0
VERTEX
  8
0
 10
7.88396
 20
12.0069
 30
0.0
 40
0.00208333
 41
0.00208333
  0
SEQEND
 8
0
  0
TEXT
  8
0
 62
     0
 10
10.4782
 20
9.90001
 30
0.0
 40
0.34375
  1
OH
 50
0
  0
POLYLINE
  8
0
 62
     7
 66
     1
 10
0
 20
0
 30
0.0
 70
     1
 40
0
 41
0
  0
VERTEX
  8
0
 10
3.56976
 20
12.0069
 30
0.0
 40
0
 41
0
  0
VERTEX
  8
0
 10
4.19586
 20
12.0069
 30
0.0
 40
0
 41
0
  0
VERTEX
  8
0
 10
4.19586
 20
11.7891
 30
0.0
 40
0
 41
0
  0
VERTEX
  8
0
 10
3.56976
 20
11.7891
 30
0.0
 40
0
 41
0
  0
VERTEX
  8
0
 10
3.56976
 20
12.0069
 30
0.0
 40
0
 41
0
  0
SEQEND
 8
0
  0
POLYLINE
  8
0
 62
     7
 66
     1
 10
0
 20
0
 30
0.0
 70
     1
 40
0.15
 41
0.15
  0
VERTEX
  8
0
 10
3.56976
 20
12.0069
 30
0.0
 40
0.00208333
 41
0.00208333
  0
VERTEX
  8
0
 10
4.19586
 20
12.0069
 30
0.0
 40
0.00208333
 41
0.00208333
  0
VERTEX
  8
0
 10
4.19586
 20
11.7891
 30
0.0
 40
0.00208333
 41
0.00208333
  0
VERTEX
  8
0
 10
3.56976
 20
11.7891
 30
0.0
 40
0.00208333
 41
0.00208333
  0
VERTEX
  8
0
 10
3.56976
 20
12.0069
 30
0.0
 40
0.00208333
 41
0.00208333
  0
SEQEND
 8
0
  0
TEXT
  8
0
 62
     0
 10
3.67876
 20
11.898
 30
0.0
 40
0.34375
  1
UNDEFINED
 50
0
  0
POLYLINE
  8
0
 62
     7
 66
     1
 10
0
 20
0
 30
0.0
 70
     1
 40
0
 41
0
  0
VERTEX
  8
0
 10
0.465494
 20
12.0069
 30
0.0
 40
0
 41
0
  0
VERTEX
  8
0
 10
3.4681
 20
12.0069
 30
0.0
 40
0
 41
0
  0
VERTEX
  8
0
 10
3.4681
 20
7.87332
 30
0.0
 40
0
 41
0
  0
VERTEX
  8
0
 10
0.465494
 20
7.87332
 30
0.0
 40
0
 41
0
  0
VERTEX
  8
0
 10
0.465494
 20
12.0069
 30
0.0
 40
0
 41
0
  0
SEQEND
 8
0
  0
POLYLINE
  8
0
 62
     7
 66
     1
 10
0
 20
0
 30
0.0
 70
     1
 40
0.15
 41
0.15
  0
VERTEX
  8
0
 10
0.465494
 20
12.0069
 30
0.0
 40
0.00208333
 41
0.00208333
  0
VERTEX
  8
0
 10
3.4681
 20
12.0069
 30
0.0
 40
0.00208333
 41
0.00208333
  0
VERTEX
  8
0
 10
3.4681
 20
7.87332
 30
0.0
 40
0.00208333
 41
0.00208333
  0
VERTEX
  8
0
 10
0.465494
 20
7.87332
 30
0.0
 40
0.00208333
 41
0.00208333
  0
VERTEX
  8
0
 10
0.465494
 20
12.0069
 30
0.0
 40
0.00208333
 41
0.00208333
  0
SEQEND
 8
0
  0
TEXT
  8
0
 62
     0
 10
1.35937
 20
9.91236
 30
0.0
 40
0.34375
  1
MH
 50
0
  0
POLYLINE
  8
0
 62
     7
 66
     1
 10
0
 20
0
 30
0.0
 70
     1
 40
0
 41
0
  0
VERTEX
  8
0
 10
0.465494
 20
7.69
 30
0.0
 40
0
 41
0
  0
VERTEX
  8
0
 10
3.4681
 20
7.69
 30
0.0
 40
0
 41
0
  0
VERTEX
  8
0
 10
3.4681
 20
6.11914
 30
0.0
 40
0
 41
0
  0
VERTEX
  8
0
 10
0.465494
 20
6.11914
 30
0.0
 40
0
 41
0
  0
VERTEX
  8
0
 10
0.465494
 20
7.69
 30
0.0
 40
0
 41
0
  0
SEQEND
 8
0
  0
POLYLINE
  8
0
 62
     7
 66
     1
 10
0
 20
0
 30
0.0
 70
     1
 40
0.15
 41
0.15
  0
VERTEX
  8
0
 10
0.465494
 20
7.69
 30
0.0
 40
0.00208333
 41
0.00208333
  0
VERTEX
  8
0
 10
3.4681
 20
7.69
 30
0.0
 40
0.00208333
 41
0.00208333
  0
VERTEX
  8
0
 10
3.4681
 20
6.11914
 30
0.0
 40
0.00208333
 41
0.00208333
  0
VERTEX
  8
0
 10
0.465494
 20
6.11914
 30
0.0
 40
0.00208333
 41
0.00208333
  0
VERTEX
  8
0
 10
0.465494
 20
7.69
 30
0.0
 40
0.00208333
 41
0.00208333
  0
SEQEND
 8
0
  0
TEXT
  8
0
 62
     0
 10
1.65756
 20
7.13218
 30
0.0
 40
0.34375
  1
KPH
 50
0
  0
POLYLINE
  8
0
 62
     7
 66
     1
 10
0
 20
0
 30
0.0
 70
     1
 40
0
 41
0
  0
VERTEX
  8
0
 10
3.4681
 20
4.79156
 30
0.0
 40
0
 41
0
  0
VERTEX
  8
0
 10
0.465494
 20
4.79156
 30
0.0
 40
0
 41
0
  0
VERTEX
  8
0
 10
0.465494
 20
5.68321
 30
0.0
 40
0
 41
0
  0
VERTEX
  8
0
 10
1.41092
 20
5.68321
 30
0.0
 40
0
 41
0
  0
VERTEX
  8
0
 10
1.41092
 20
6.00456
 30
0.0
 40
0
 41
0
  0
VERTEX
  8
0
 10
3.4681
 20
6.00456
 30
0.0
 40
0
 41
0
  0
VERTEX
  8
0
 10
3.4681
 20
4.79156
 30
0.0
 40
0
 41
0
  0
SEQEND
 8
0
  0
POLYLINE
  8
0
 62
     7
 66
     1
 10
0
 20
0
 30
0.0
 70
     1
 40
0.15
 41
0.15
  0
VERTEX
  8
0
 10
3.4681
 20
4.79156
 30
0.0
 40
0.00208333
 41
0.00208333
  0
VERTEX
  8
0
 10
0.465494
 20
4.79156
 30
0.0
 40
0.00208333
 41
0.00208333
  0
VERTEX
  8
0
 10
0.465494
 20
5.68321
 30
0.0
 40
0.00208333
 41
0.00208333
  0
VERTEX
  8
0
 10
1.41092
 20
5.68321
 30
0.0
 40
0.00208333
 41
0.00208333
  0
VERTEX
  8
0
 10
1.41092
 20
6.00456
 30
0.0
 40
0.00208333
 41
0.00208333
  0
VERTEX
  8
0
 10
3.4681
 20
6.00456
 30
0.0
 40
0.00208333
 41
0.00208333
  0
VERTEX
  8
0
 10
3.4681
 20
4.79156
 30
0.0
 40
0.00208333
 41
0.00208333
  0
SEQEND
 8
0
  0
TEXT
  8
0
 62
     0
 10
2.43092
 20
5.06621
 30
0.0
 40
0.34375
  1
SH
 50
0
  0
POLYLINE
  8
0
 62
     0
 66
     1
 10
0
 20
0
 30
0.0
 70
     1
 40
0
 41
0
  0
VERTEX
  8
0
 10
13.6713
 20
12.3715
 30
0.0
 40
0
 41
0
  0
VERTEX
  8
0
 10
0.215494
 20
12.3715
 30
0.0
 40
0
 41
0
  0
VERTEX
  8
0
 10
0.465494
 20
12.0069
 30
0.0
 40
0
 41
0
  0
VERTEX
  8
0
 10
13.4099
 20
12.0069
 30
0.0
 40
0
 41
0
  0
VERTEX
  8
0
 10
13.6713
 20
12.3715
 30
0.0
 40
0
 41
0
  0
SEQEND
 8
0
  0
POLYLINE
  8
0
 62
     0
 66
     1
 10
0
 20
0
 30
0.0
 70
     1
 40
0.15
 41
0.15
  0
VERTEX
  8
0
 10
13.6713
 20
12.3715
 30
0.0
 40
0.00208333
 41
0.00208333
  0
VERTEX
  8
0
 10
0.215494
 20
12.3715
 30
0.0
 40
0.00208333
 41
0.00208333
  0
VERTEX
  8
0
 10
0.465494
 20
12.0069
 30
0.0
 40
0.00208333
 41
0.00208333
  0
VERTEX
  8
0
 10
13.4099
 20
12.0069
 30
0.0
 40
0.00208333
 41
0.00208333
  0
VERTEX
  8
0
 10
13.6713
 20
12.3715
 30
0.0
 40
0.00208333
 41
0.00208333
  0
SEQEND
 8
0
  0
POLYLINE
  8
0
 62
     7
 66
     1
 10
0
 20
0
 30
0.0
 70
     1
 40
0
 41
0
  0
VERTEX
  8
0
 10
1.35124
 20
12.3715
 30
0.0
 40
0
 41
0
  0
VERTEX
  8
0
 10
2.64469
 20
12.3715
 30
0.0
 40
0
 41
0
  0
VERTEX
  8
0
 10
2.64469
 20
12.0069
 30
0.0
 40
0
 41
0
  0
VERTEX
  8
0
 10
1.35124
 20
12.0069
 30
0.0
 40
0
 41
0
  0
VERTEX
  8
0
 10
1.35124
 20
12.3715
 30
0.0
 40
0
 41
0
  0
SEQEND
 8
0
  0
POLYLINE
  8
0
 62
     0
 66
     1
 10
0
 20
0
 30
0.0
 70
     1
 40
0.75
 41
0.75
  0
VERTEX
  8
0
 10
1.35124
 20
12.3715
 30
0.0
 40
0.0104167
 41
0.0104167
  0
VERTEX
  8
0
 10
2.64469
 20
12.3715
 30
0.0
 40
0.0104167
 41
0.0104167
  0
VERTEX
  8
0
 10
2.64469
 20
12.0069
 30
0.0
 40
0.0104167
 41
0.0104167
  0
VERTEX
  8
0
 10
1.35124
 20
12.0069
 30
0.0
 40
0.0104167
 41
0.0104167
  0
VERTEX
  8
0
 10
1.35124
 20
12.3715
 30
0.0
 40
0.0104167
 41
0.0104167
  0
SEQEND
 8
0
  0
POLYLINE
  8
0
 62
     7
 66
     1
 10
0
 20
0
 30
0.0
 70
     1
 40
0
 41
0
  0
VERTEX
  8
0
 10
1.35124
 20
12.3715
 30
0.0
 40
0
 41
0
  0
VERTEX
  8
0
 10
2.64469
 20
12.3715
 30
0.0
 40
0
 41
0
  0
VERTEX
  8
0
 10
2.64469
 20
12.0069
 30
0.0
 40
0
 41
0
  0
VERTEX
  8
0
 10
1.35124
 20
12.0069
 30
0.0
 40
0
 41
0
  0
VERTEX
  8
0
 10
1.35124
 20
12.3715
 30
0.0
 40
0
 41
0
  0
SEQEND
 8
0
  0
POLYLINE
  8
0
 62
     0
 66
     1
 10
0
 20
0
 30
0.0
 70
     1
 40
0.75
 41
0.75
  0
VERTEX
  8
0
 10
1.35124
 20
12.3715
 30
0.0
 40
0.0104167
 41
0.0104167
  0
VERTEX
  8
0
 10
2.64469
 20
12.3715
 30
0.0
 40
0.0104167
 41
0.0104167
  0
VERTEX
  8
0
 10
2.64469
 20
12.0069
 30
0.0
 40
0.0104167
 41
0.0104167
  0
VERTEX
  8
0
 10
1.35124
 20
12.0069
 30
0.0
 40
0.0104167
 41
0.0104167
  0
VERTEX
  8
0
 10
1.35124
 20
12.3715
 30
0.0
 40
0.0104167
 41
0.0104167
  0
SEQEND
 8
0
  0
POLYLINE
  8
0
 62
     0
 66
     1
 10
0
 20
0
 30
0.0
 40
0.75
 41
0.75
  0
VERTEX
  8
0
 10
2.56651
 20
12.1892
 30
0.0
 40
0.0104167
 41
0.0104167
  0
VERTEX
  8
0
 10
1.42936
 20
12.1892
 30
0.0
 40
0.0104167
 41
0.0104167
  0
SEQEND
 8
0
  0
POLYLINE
  8
0
 62
     0
 66
     1
 10
0
 20
0
 30
0.0
 40
0.75
 41
0.75
  0
VERTEX
  8
0
 10
2.56651
 20
12.3715
 30
0.0
 40
0.0104167
 41
0.0104167
  0
VERTEX
  8
0
 10
2.56651
 20
12.0069
 30
0.0
 40
0.0104167
 41
0.0104167
  0
SEQEND
 8
0
  0
POLYLINE
  8
0
 62
     0
 66
     1
 10
0
 20
0
 30
0.0
 40
0.75
 41
0.75
  0
VERTEX
  8
0
 10
1.42936
 20
12.3715
 30
0.0
 40
0.0104167
 41
0.0104167
  0
VERTEX
  8
0
 10
1.42936
 20
12.0069
 30
0.0
 40
0.0104167
 41
0.0104167
  0
SEQEND
 8
0
  0
POLYLINE
  8
0
 62
     7
 66
     1
 10
0
 20
0
 30
0.0
 70
     1
 40
0
 41
0
  0
VERTEX
  8
0
 10
4.20383
 20
12.3715
 30
0.0
 40
0
 41
0
  0
VERTEX
  8
0
 10
5.2175
 20
12.3715
 30
0.0
 40
0
 41
0
  0
VERTEX
  8
0
 10
5.2175
 20
12.0069
 30
0.0
 40
0
 41
0
  0
VERTEX
  8
0
 10
4.20383
 20
12.0069
 30
0.0
 40
0
 41
0
  0
VERTEX
  8
0
 10
4.20383
 20
12.3715
 30
0.0
 40
0
 41
0
  0
SEQEND
 8
0
  0
POLYLINE
  8
0
 62
     0
 66
     1
 10
0
 20
0
 30
0.0
 70
     1
 40
0.75
 41
0.75
  0
VERTEX
  8
0
 10
4.20383
 20
12.3715
 30
0.0
 40
0.0104167
 41
0.0104167
  0
VERTEX
  8
0
 10
5.2175
 20
12.3715
 30
0.0
 40
0.0104167
 41
0.0104167
  0
VERTEX
  8
0
 10
5.2175
 20
12.0069
 30
0.0
 40
0.0104167
 41
0.0104167
  0
VERTEX
  8
0
 10
4.20383
 20
12.0069
 30
0.0
 40
0.0104167
 41
0.0104167
  0
VERTEX
  8
0
 10
4.20383
 20
12.3715
 30
0.0
 40
0.0104167
 41
0.0104167
  0
SEQEND
 8
0
  0
POLYLINE
  8
0
 62
     7
 66
     1
 10
0
 20
0
 30
0.0
 70
     1
 40
0
 41
0
  0
VERTEX
  8
0
 10
4.20383
 20
12.3715
 30
0.0
 40
0
 41
0
  0
VERTEX
  8
0
 10
5.2175
 20
12.3715
 30
0.0
 40
0
 41
0
  0
VERTEX
  8
0
 10
5.2175
 20
12.0069
 30
0.0
 40
0
 41
0
  0
VERTEX
  8
0
 10
4.20383
 20
12.0069
 30
0.0
 40
0
 41
0
  0
VERTEX
  8
0
 10
4.20383
 20
12.3715
 30
0.0
 40
0
 41
0
  0
SEQEND
 8
0
  0
POLYLINE
  8
0
 62
     0
 66
     1
 10
0
 20
0
 30
0.0
 70
     1
 40
0.75
 41
0.75
  0
VERTEX
  8
0
 10
4.20383
 20
12.3715
 30
0.0
 40
0.0104167
 41
0.0104167
  0
VERTEX
  8
0
 10
5.2175
 20
12.3715
 30
0.0
 40
0.0104167
 41
0.0104167
  0
VERTEX
  8
0
 10
5.2175
 20
12.0069
 30
0.0
 40
0.0104167
 41
0.0104167
  0
VERTEX
  8
0
 10
4.20383
 20
12.0069
 30
0.0
 40
0.0104167
 41
0.0104167
  0
VERTEX
  8
0
 10
4.20383
 20
12.3715
 30
0.0
 40
0.0104167
 41
0.0104167
  0
SEQEND
 8
0
  0
POLYLINE
  8
0
 62
     0
 66
     1
 10
0
 20
0
 30
0.0
 40
0.75
 41
0.75
  0
VERTEX
  8
0
 10
5.13938
 20
12.1892
 30
0.0
 40
0.0104167
 41
0.0104167
  0
VERTEX
  8
0
 10
4.28196
 20
12.1892
 30
0.0
 40
0.0104167
 41
0.0104167
  0
SEQEND
 8
0
  0
POLYLINE
  8
0
 62
     0
 66
     1
 10
0
 20
0
 30
0.0
 40
0.75
 41
0.75
  0
VERTEX
  8
0
 10
5.13938
 20
12.3715
 30
0.0
 40
0.0104167
 41
0.0104167
  0
VERTEX
  8
0
 10
5.13938
 20
12.0069
 30
0.0
 40
0.0104167
 41
0.0104167
  0
SEQEND
 8
0
  0
POLYLINE
  8
0
 62
     0
 66
     1
 10
0
 20
0
 30
0.0
 40
0.75
 41
0.75
  0
VERTEX
  8
0
 10
4.28196
 20
12.3715
 30
0.0
 40
0.0104167
 41
0.0104167
  0
VERTEX
  8
0
 10
4.28196
 20
12.0069
 30
0.0
 40
0.0104167
 41
0.0104167
  0
SEQEND
 8
0
  0
POLYLINE
  8
0
 62
     7
 66
     1
 10
0
 20
0
 30
0.0
 70
     1
 40
0
 41
0
  0
VERTEX
  8
0
 10
6.06896
 20
12.3715
 30
0.0
 40
0
 41
0
  0
VERTEX
  8
0
 10
7.51346
 20
12.3715
 30
0.0
 40
0
 41
0
  0
VERTEX
  8
0
 10
7.51346
 20
12.0069
 30
0.0
 40
0
 41
0
  0
VERTEX
  8
0
 10
6.06896
 20
12.0069
 30
0.0
 40
0
 41
0
  0
VERTEX
  8
0
 10
6.06896
 20
12.3715
 30
0.0
 40
0
 41
0
  0
SEQEND
 8
0
  0
POLYLINE
  8
0
 62
     0
 66
     1
 10
0
 20
0
 30
0.0
 70
     1
 40
0.75
 41
0.75
  0
VERTEX
  8
0
 10
6.06896
 20
12.3715
 30
0.0
 40
0.0104167
 41
0.0104167
  0
VERTEX
  8
0
 10
7.51346
 20
12.3715
 30
0.0
 40
0.0104167
 41
0.0104167
  0
VERTEX
  8
0
 10
7.51346
 20
12.0069
 30
0.0
 40
0.0104167
 41
0.0104167
  0
VERTEX
  8
0
 10
6.06896
 20
12.0069
 30
0.0
 40
0.0104167
 41
0.0104167
  0
VERTEX
  8
0
 10
6.06896
 20
12.3715
 30
0.0
 40
0.0104167
 41
0.0104167
  0
SEQEND
 8
0
  0
POLYLINE
  8
0
 62
     7
 66
     1
 10
0
 20
0
 30
0.0
 70
     1
 40
0
 41
0
  0
VERTEX
  8
0
 10
6.06896
 20
12.3715
 30
0.0
 40
0
 41
0
  0
VERTEX
  8
0
 10
7.51346
 20
12.3715
 30
0.0
 40
0
 41
0
  0
VERTEX
  8
0
 10
7.51346
 20
12.0069
 30
0.0
 40
0
 41
0
  0
VERTEX
  8
0
 10
6.06896
 20
12.0069
 30
0.0
 40
0
 41
0
  0
VERTEX
  8
0
 10
6.06896
 20
12.3715
 30
0.0
 40
0
 41
0
  0
SEQEND
 8
0
  0
POLYLINE
  8
0
 62
     0
 66
     1
 10
0
 20
0
 30
0.0
 70
     1
 40
0.75
 41
0.75
  0
VERTEX
  8
0
 10
6.06896
 20
12.3715
 30
0.0
 40
0.0104167
 41
0.0104167
  0
VERTEX
  8
0
 10
7.51346
 20
12.3715
 30
0.0
 40
0.0104167
 41
0.0104167
  0
VERTEX
  8
0
 10
7.51346
 20
12.0069
 30
0.0
 40
0.0104167
 41
0.0104167
  0
VERTEX
  8
0
 10
6.06896
 20
12.0069
 30
0.0
 40
0.0104167
 41
0.0104167
  0
VERTEX
  8
0
 10
6.06896
 20
12.3715
 30
0.0
 40
0.0104167
 41
0.0104167
  0
SEQEND
 8
0
  0
POLYLINE
  8
0
 62
     0
 66
     1
 10
0
 20
0
 30
0.0
 40
0.75
 41
0.75
  0
VERTEX
  8
0
 10
7.43539
 20
12.1892
 30
0.0
 40
0.0104167
 41
0.0104167
  0
VERTEX
  8
0
 10
6.14714
 20
12.1892
 30
0.0
 40
0.0104167
 41
0.0104167
  0
SEQEND
 8
0
  0
POLYLINE
  8
0
 62
     0
 66
     1
 10
0
 20
0
 30
0.0
 40
0.75
 41
0.75
  0
VERTEX
  8
0
 10
7.43539
 20
12.3715
 30
0.0
 40
0.0104167
 41
0.0104167
  0
VERTEX
  8
0
 10
7.43539
 20
12.0069
 30
0.0
 40
0.0104167
 41
0.0104167
  0
SEQEND
 8
0
  0
POLYLINE
  8
0
 62
     0
 66
     1
 10
0
 20
0
 30
0.0
 40
0.75
 41
0.75
  0
VERTEX
  8
0
 10
6.14714
 20
12.3715
 30
0.0
 40
0.0104167
 41
0.0104167
  0
VERTEX
  8
0
 10
6.14714
 20
12.0069
 30
0.0
 40
0.0104167
 41
0.0104167
  0
SEQEND
 8
0
  0
POLYLINE
  8
0
 62
     0
 66
     1
 10
0
 20
0
 30
0.0
 70
     1
 40
0
 41
0
  0
VERTEX
  8
0
 10
0.215494
 20
12.3715
 30
0.0
 40
0
 41
0
  0
VERTEX
  8
0
 10
0.215494
 20
0.00450304
 30
0.0
 40
0
 41
0
  0
VERTEX
  8
0
 10
0.465494
 20
0.192003
 30
0.0
 40
0
 41
0
  0
VERTEX
  8
0
 10
0.465494
 20
12.0069
 30
0.0
 40
0
 41
0
  0
VERTEX
  8
0
 10
0.215494
 20
12.3715
 30
0.0
 40
0
 41
0
  0
SEQEND
 8
0
  0
POLYLINE
  8
0
 62
     0
 66
     1
 10
0
 20
0
 30
0.0
 70
     1
 40
0.15
 41
0.15
  0
VERTEX
  8
0
 10
0.215494
 20
12.3715
 30
0.0
 40
0.00208333
 41
0.00208333
  0
VERTEX
  8
0
 10
0.215494
 20
0.00450304
 30
0.0
 40
0.00208333
 41
0.00208333
  0
VERTEX
  8
0
 10
0.465494
 20
0.192003
 30
0.0
 40
0.00208333
 41
0.00208333
  0
VERTEX
  8
0
 10
0.465494
 20
12.0069
 30
0.0
 40
0.00208333
 41
0.00208333
  0
VERTEX
  8
0
 10
0.215494
 20
12.3715
 30
0.0
 40
0.00208333
 41
0.00208333
  0
SEQEND
 8
0
  0
POLYLINE
  8
0
 62
     7
 66
     1
 10
0
 20
0
 30
0.0
 70
     1
 40
0
 41
0
  0
VERTEX
  8
0
 10
0.215494
 20
1.45915
 30
0.0
 40
0
 41
0
  0
VERTEX
  8
0
 10
0.465494
 20
1.45915
 30
0.0
 40
0
 41
0
  0
VERTEX
  8
0
 10
0.465494
 20
0.200738
 30
0.0
 40
0
 41
0
  0
VERTEX
  8
0
 10
0.215494
 20
0.200738
 30
0.0
 40
0
 41
0
  0
VERTEX
  8
0
 10
0.215494
 20
1.45915
 30
0.0
 40
0
 41
0
  0
SEQEND
 8
0
  0
POLYLINE
  8
0
 62
     0
 66
     1
 10
0
 20
0
 30
0.0
 70
     1
 40
0.75
 41
0.75
  0
VERTEX
  8
0
 10
0.215494
 20
1.45915
 30
0.0
 40
0.0104167
 41
0.0104167
  0
VERTEX
  8
0
 10
0.465494
 20
1.45915
 30
0.0
 40
0.0104167
 41
0.0104167
  0
VERTEX
  8
0
 10
0.465494
 20
0.200738
 30
0.0
 40
0.0104167
 41
0.0104167
  0
VERTEX
  8
0
 10
0.215494
 20
0.200738
 30
0.0
 40
0.0104167
 41
0.0104167
  0
VERTEX
  8
0
 10
0.215494
 20
1.45915
 30
0.0
 40
0.0104167
 41
0.0104167
  0
SEQEND
 8
0
  0
POLYLINE
  8
0
 62
     7
 66
     1
 10
0
 20
0
 30
0.0
 70
     1
 40
0
 41
0
  0
VERTEX
  8
0
 10
0.215494
 20
1.45915
 30
0.0
 40
0
 41
0
  0
VERTEX
  8
0
 10
0.465494
 20
1.45915
 30
0.0
 40
0
 41
0
  0
VERTEX
  8
0
 10
0.465494
 20
0.200738
 30
0.0
 40
0
 41
0
  0
VERTEX
  8
0
 10
0.215494
 20
0.200738
 30
0.0
 40
0
 41
0
  0
VERTEX
  8
0
 10
0.215494
 20
1.45915
 30
0.0
 40
0
 41
0
  0
SEQEND
 8
0
  0
POLYLINE
  8
0
 62
     0
 66
     1
 10
0
 20
0
 30
0.0
 70
     1
 40
0.75
 41
0.75
  0
VERTEX
  8
0
 10
0.215494
 20
1.45915
 30
0.0
 40
0.0104167
 41
0.0104167
  0
VERTEX
  8
0
 10
0.465494
 20
1.45915
 30
0.0
 40
0.0104167
 41
0.0104167
  0
VERTEX
  8
0
 10
0.465494
 20
0.200738
 30
0.0
 40
0.0104167
 41
0.0104167
  0
VERTEX
  8
0
 10
0.215494
 20
0.200738
 30
0.0
 40
0.0104167
 41
0.0104167
  0
VERTEX
  8
0
 10
0.215494
 20
1.45915
 30
0.0
 40
0.0104167
 41
0.0104167
  0
SEQEND
 8
0
  0
POLYLINE
  8
0
 62
     0
 66
     1
 10
0
 20
0
 30
0.0
 40
0.75
 41
0.75
  0
VERTEX
  8
0
 10
0.340494
 20
1.38102
 30
0.0
 40
0.0104167
 41
0.0104167
  0
VERTEX
  8
0
 10
0.340494
 20
0.278863
 30
0.0
 40
0.0104167
 41
0.0104167
  0
SEQEND
 8
0
  0
POLYLINE
  8
0
 62
     0
 66
     1
 10
0
 20
0
 30
0.0
 40
0.75
 41
0.75
  0
VERTEX
  8
0
 10
0.215494
 20
1.38102
 30
0.0
 40
0.0104167
 41
0.0104167
  0
VERTEX
  8
0
 10
0.465494
 20
1.38102
 30
0.0
 40
0.0104167
 41
0.0104167
  0
SEQEND
 8
0
  0
POLYLINE
  8
0
 62
     0
 66
     1
 10
0
 20
0
 30
0.0
 40
0.75
 41
0.75
  0
VERTEX
  8
0
 10
0.215494
 20
0.278863
 30
0.0
 40
0.0104167
 41
0.0104167
  0
VERTEX
  8
0
 10
0.465494
 20
0.278863
 30
0.0
 40
0.0104167
 41
0.0104167
  0
SEQEND
 8
0
  0
POLYLINE
  8
0
 62
     7
 66
     1
 10
0
 20
0
 30
0.0
 70
     1
 40
0
 41
0
  0
VERTEX
  8
0
 10
0.215494
 20
4.62864
 30
0.0
 40
0
 41
0
  0
VERTEX
  8
0
 10
0.465494
 20
4.62864
 30
0.0
 40
0
 41
0
  0
VERTEX
  8
0
 10
0.465494
 20
1.63721
 30
0.0
 40
0
 41
0
  0
VERTEX
  8
0
 10
0.215494
 20
1.63721
 30
0.0
 40
0
 41
0
  0
VERTEX
  8
0
 10
0.215494
 20
4.62864
 30
0.0
 40
0
 41
0
  0
SEQEND
 8
0
  0
POLYLINE
  8
0
 62
     0
 66
     1
 10
0
 20
0
 30
0.0
 70
     1
 40
0.75
 41
0.75
  0
VERTEX
  8
0
 10
0.215494
 20
4.62864
 30
0.0
 40
0.0104167
 41
0.0104167
  0
VERTEX
  8
0
 10
0.465494
 20
4.62864
 30
0.0
 40
0.0104167
 41
0.0104167
  0
VERTEX
  8
0
 10
0.465494
 20
1.63721
 30
0.0
 40
0.0104167
 41
0.0104167
  0
VERTEX
  8
0
 10
0.215494
 20
1.63721
 30
0.0
 40
0.0104167
 41
0.0104167
  0
VERTEX
  8
0
 10
0.215494
 20
4.62864
 30
0.0
 40
0.0104167
 41
0.0104167
  0
SEQEND
 8
0
  0
POLYLINE
  8
0
 62
     7
 66
     1
 10
0
 20
0
 30
0.0
 70
     1
 40
0
 41
0
  0
VERTEX
  8
0
 10
0.215494
 20
4.62864
 30
0.0
 40
0
 41
0
  0
VERTEX
  8
0
 10
0.465494
 20
4.62864
 30
0.0
 40
0
 41
0
  0
VERTEX
  8
0
 10
0.465494
 20
1.63721
 30
0.0
 40
0
 41
0
  0
VERTEX
  8
0
 10
0.215494
 20
1.63721
 30
0.0
 40
0
 41
0
  0
VERTEX
  8
0
 10
0.215494
 20
4.62864
 30
0.0
 40
0
 41
0
  0
SEQEND
 8
0
  0
POLYLINE
  8
0
 62
     0
 66
     1
 10
0
 20
0
 30
0.0
 70
     1
 40
0.75
 41
0.75
  0
VERTEX
  8
0
 10
0.215494
 20
4.62864
 30
0.0
 40
0.0104167
 41
0.0104167
  0
VERTEX
  8
0
 10
0.465494
 20
4.62864
 30
0.0
 40
0.0104167
 41
0.0104167
  0
VERTEX
  8
0
 10
0.465494
 20
1.63721
 30
0.0
 40
0.0104167
 41
0.0104167
  0
VERTEX
  8
0
 10
0.215494
 20
1.63721
 30
0.0
 40
0.0104167
 41
0.0104167
  0
VERTEX
  8
0
 10
0.215494
 20
4.62864
 30
0.0
 40
0.0104167
 41
0.0104167
  0
SEQEND
 8
0
  0
POLYLINE
  8
0
 62
     0
 66
     1
 10
0
 20
0
 30
0.0
 40
0.75
 41
0.75
  0
VERTEX
  8
0
 10
0.340494
 20
4.55057
 30
0.0
 40
0.0104167
 41
0.0104167
  0
VERTEX
  8
0
 10
0.340494
 20
1.71533
 30
0.0
 40
0.0104167
 41
0.0104167
  0
SEQEND
 8
0
  0
POLYLINE
  8
0
 62
     0
 66
     1
 10
0
 20
0
 30
0.0
 40
0.75
 41
0.75
  0
VERTEX
  8
0
 10
0.215494
 20
4.55057
 30
0.0
 40
0.0104167
 41
0.0104167
  0
VERTEX
  8
0
 10
0.465494
 20
4.55057
 30
0.0
 40
0.0104167
 41
0.0104167
  0
SEQEND
 8
0
  0
POLYLINE
  8
0
 62
     0
 66
     1
 10
0
 20
0
 30
0.0
 40
0.75
 41
0.75
  0
VERTEX
  8
0
 10
0.215494
 20
1.71533
 30
0.0
 40
0.0104167
 41
0.0104167
  0
VERTEX
  8
0
 10
0.465494
 20
1.71533
 30
0.0
 40
0.0104167
 41
0.0104167
  0
SEQEND
 8
0
  0
POLYLINE
  8
0
 62
     7
 66
     1
 10
0
 20
0
 30
0.0
 70
     1
 40
0
 41
0
  0
VERTEX
  8
0
 10
0.215494
 20
5.64551
 30
0.0
 40
0
 41
0
  0
VERTEX
  8
0
 10
0.465494
 20
5.64551
 30
0.0
 40
0
 41
0
  0
VERTEX
  8
0
 10
0.465494
 20
4.80051
 30
0.0
 40
0
 41
0
  0
VERTEX
  8
0
 10
0.215494
 20
4.80051
 30
0.0
 40
0
 41
0
  0
VERTEX
  8
0
 10
0.215494
 20
5.64551
 30
0.0
 40
0
 41
0
  0
SEQEND
 8
0
  0
POLYLINE
  8
0
 62
     0
 66
     1
 10
0
 20
0
 30
0.0
 70
     1
 40
0.75
 41
0.75
  0
VERTEX
  8
0
 10
0.215494
 20
5.64551
 30
0.0
 40
0.0104167
 41
0.0104167
  0
VERTEX
  8
0
 10
0.465494
 20
5.64551
 30
0.0
 40
0.0104167
 41
0.0104167
  0
VERTEX
  8
0
 10
0.465494
 20
4.80051
 30
0.0
 40
0.0104167
 41
0.0104167
  0
VERTEX
  8
0
 10
0.215494
 20
4.80051
 30
0.0
 40
0.0104167
 41
0.0104167
  0
VERTEX
  8
0
 10
0.215494
 20
5.64551
 30
0.0
 40
0.0104167
 41
0.0104167
  0
SEQEND
 8
0
  0
POLYLINE
  8
0
 62
     7
 66
     1
 10
0
 20
0
 30
0.0
 70
     1
 40
0
 41
0
  0
VERTEX
  8
0
 10
0.215494
 20
5.64551
 30
0.0
 40
0
 41
0
  0
VERTEX
  8
0
 10
0.465494
 20
5.64551
 30
0.0
 40
0
 41
0
  0
VERTEX
  8
0
 10
0.465494
 20
4.80051
 30
0.0
 40
0
 41
0
  0
VERTEX
  8
0
 10
0.215494
 20
4.80051
 30
0.0
 40
0
 41
0
  0
VERTEX
  8
0
 10
0.215494
 20
5.64551
 30
0.0
 40
0
 41
0
  0
SEQEND
 8
0
  0
POLYLINE
  8
0
 62
     0
 66
     1
 10
0
 20
0
 30
0.0
 70
     1
 40
0.75
 41
0.75
  0
VERTEX
  8
0
 10
0.215494
 20
5.64551
 30
0.0
 40
0.0104167
 41
0.0104167
  0
VERTEX
  8
0
 10
0.465494
 20
5.64551
 30
0.0
 40
0.0104167
 41
0.0104167
  0
VERTEX
  8
0
 10
0.465494
 20
4.80051
 30
0.0
 40
0.0104167
 41
0.0104167
  0
VERTEX
  8
0
 10
0.215494
 20
4.80051
 30
0.0
 40
0.0104167
 41
0.0104167
  0
VERTEX
  8
0
 10
0.215494
 20
5.64551
 30
0.0
 40
0.0104167
 41
0.0104167
  0
SEQEND
 8
0
  0
POLYLINE
  8
0
 62
     0
 66
     1
 10
0
 20
0
 30
0.0
 40
0.75
 41
0.75
  0
VERTEX
  8
0
 10
0.340494
 20
5.56739
 30
0.0
 40
0.0104167
 41
0.0104167
  0
VERTEX
  8
0
 10
0.340494
 20
4.87858
 30
0.0
 40
0.0104167
 41
0.0104167
  0
SEQEND
 8
0
  0
POLYLINE
  8
0
 62
     0
 66
     1
 10
0
 20
0
 30
0.0
 40
0.75
 41
0.75
  0
VERTEX
  8
0
 10
0.215494
 20
5.56739
 30
0.0
 40
0.0104167
 41
0.0104167
  0
VERTEX
  8
0
 10
0.465494
 20
5.56739
 30
0.0
 40
0.0104167
 41
0.0104167
  0
SEQEND
 8
0
  0
POLYLINE
  8
0
 62
     0
 66
     1
 10
0
 20
0
 30
0.0
 40
0.75
 41
0.75
  0
VERTEX
  8
0
 10
0.215494
 20
4.87858
 30
0.0
 40
0.0104167
 41
0.0104167
  0
VERTEX
  8
0
 10
0.465494
 20
4.87858
 30
0.0
 40
0.0104167
 41
0.0104167
  0
SEQEND
 8
0
  0
POLYLINE
  8
0
 62
     7
 66
     1
 10
0
 20
0
 30
0.0
 70
     1
 40
0
 41
0
  0
VERTEX
  8
0
 10
0.215494
 20
7.68126
 30
0.0
 40
0
 41
0
  0
VERTEX
  8
0
 10
0.465494
 20
7.68126
 30
0.0
 40
0
 41
0
  0
VERTEX
  8
0
 10
0.465494
 20
6.12408
 30
0.0
 40
0
 41
0
  0
VERTEX
  8
0
 10
0.215494
 20
6.12408
 30
0.0
 40
0
 41
0
  0
VERTEX
  8
0
 10
0.215494
 20
7.68126
 30
0.0
 40
0
 41
0
  0
SEQEND
 8
0
  0
POLYLINE
  8
0
 62
     0
 66
     1
 10
0
 20
0
 30
0.0
 70
     1
 40
0.75
 41
0.75
  0
VERTEX
  8
0
 10
0.215494
 20
7.68126
 30
0.0
 40
0.0104167
 41
0.0104167
  0
VERTEX
  8
0
 10
0.465494
 20
7.68126
 30
0.0
 40
0.0104167
 41
0.0104167
  0
VERTEX
  8
0
 10
0.465494
 20
6.12408
 30
0.0
 40
0.0104167
 41
0.0104167
  0
VERTEX
  8
0
 10
0.215494
 20
6.12408
 30
0.0
 40
0.0104167
 41
0.0104167
  0
VERTEX
  8
0
 10
0.215494
 20
7.68126
 30
0.0
 40
0.0104167
 41
0.0104167
  0
SEQEND
 8
0
  0
POLYLINE
  8
0
 62
     7
 66
     1
 10
0
 20
0
 30
0.0
 70
     1
 40
0
 41
0
  0
VERTEX
  8
0
 10
0.215494
 20
7.68126
 30
0.0
 40
0
 41
0
  0
VERTEX
  8
0
 10
0.465494
 20
7.68126
 30
0.0
 40
0
 41
0
  0
VERTEX
  8
0
 10
0.465494
 20
6.12408
 30
0.0
 40
0
 41
0
  0
VERTEX
  8
0
 10
0.215494
 20
6.12408
 30
0.0
 40
0
 41
0
  0
VERTEX
  8
0
 10
0.215494
 20
7.68126
 30
0.0
 40
0
 41
0
  0
SEQEND
 8
0
  0
POLYLINE
  8
0
 62
     0
 66
     1
 10
0
 20
0
 30
0.0
 70
     1
 40
0.75
 41
0.75
  0
VERTEX
  8
0
 10
0.215494
 20
7.68126
 30
0.0
 40
0.0104167
 41
0.0104167
  0
VERTEX
  8
0
 10
0.465494
 20
7.68126
 30
0.0
 40
0.0104167
 41
0.0104167
  0
VERTEX
  8
0
 10
0.465494
 20
6.12408
 30
0.0
 40
0.0104167
 41
0.0104167
  0
VERTEX
  8
0
 10
0.215494
 20
6.12408
 30
0.0
 40
0.0104167
 41
0.0104167
  0
VERTEX
  8
0
 10
0.215494
 20
7.68126
 30
0.0
 40
0.0104167
 41
0.0104167
  0
SEQEND
 8
0
  0
POLYLINE
  8
0
 62
     0
 66
     1
 10
0
 20
0
 30
0.0
 40
0.75
 41
0.75
  0
VERTEX
  8
0
 10
0.340494
 20
7.60308
 30
0.0
 40
0.0104167
 41
0.0104167
  0
VERTEX
  8
0
 10
0.340494
 20
6.20215
 30
0.0
 40
0.0104167
 41
0.0104167
  0
SEQEND
 8
0
  0
POLYLINE
  8
0
 62
     0
 66
     1
 10
0
 20
0
 30
0.0
 40
0.75
 41
0.75
  0
VERTEX
  8
0
 10
0.215494
 20
7.60308
 30
0.0
 40
0.0104167
 41
0.0104167
  0
VERTEX
  8
0
 10
0.465494
 20
7.60308
 30
0.0
 40
0.0104167
 41
0.0104167
  0
SEQEND
 8
0
  0
POLYLINE
  8
0
 62
     0
 66
     1
 10
0
 20
0
 30
0.0
 40
0.75
 41
0.75
  0
VERTEX
  8
0
 10
0.215494
 20
6.20215
 30
0.0
 40
0.0104167
 41
0.0104167
  0
VERTEX
  8
0
 10
0.465494
 20
6.20215
 30
0.0
 40
0.0104167
 41
0.0104167
  0
SEQEND
 8
0
  0
POLYLINE
  8
0
 62
     0
 66
     1
 10
0
 20
0
 30
0.0
 70
     1
 40
0
 41
0
  0
VERTEX
  8
0
 10
0.215494
 20
0.00450304
 30
0.0
 40
0
 41
0
  0
VERTEX
  8
0
 10
2.72478
 20
0.00450304
 30
0.0
 40
0
 41
0
  0
VERTEX
  8
0
 10
2.56853
 20
0.192003
 30
0.0
 40
0
 41
0
  0
VERTEX
  8
0
 10
0.465494
 20
0.192003
 30
0.0
 40
0
 41
0
  0
VERTEX
  8
0
 10
0.215494
 20
0.00450304
 30
0.0
 40
0
 41
0
  0
SEQEND
 8
0
  0
POLYLINE
  8
0
 62
     0
 66
     1
 10
0
 20
0
 30
0.0
 70
     1
 40
0.15
 41
0.15
  0
VERTEX
  8
0
 10
0.215494
 20
0.00450304
 30
0.0
 40
0.00208333
 41
0.00208333
  0
VERTEX
  8
0
 10
2.72478
 20
0.00450304
 30
0.0
 40
0.00208333
 41
0.00208333
  0
VERTEX
  8
0
 10
2.56853
 20
0.192003
 30
0.0
 40
0.00208333
 41
0.00208333
  0
VERTEX
  8
0
 10
0.465494
 20
0.192003
 30
0.0
 40
0.00208333
 41
0.00208333
  0
VERTEX
  8
0
 10
0.215494
 20
0.00450304
 30
0.0
 40
0.00208333
 41
0.00208333
  0
SEQEND
 8
0
  0
POLYLINE
  8
0
 62
     0
 66
     1
 10
0
 20
0
 30
0.0
 70
     1
 40
0
 41
0
  0
VERTEX
  8
0
 10
2.72478
 20
0.00450304
 30
0.0
 40
0
 41
0
  0
VERTEX
  8
0
 10
2.72478
 20
1.46039
 30
0.0
 40
0
 41
0
  0
VERTEX
  8
0
 10
2.56853
 20
1.63271
 30
0.0
 40
0
 41
0
  0
VERTEX
  8
0
 10
2.56853
 20
0.192003
 30
0.0
 40
0
 41
0
  0
VERTEX
  8
0
 10
2.72478
 20
0.00450304
 30
0.0
 40
0
 41
0
  0
SEQEND
 8
0
  0
POLYLINE
  8
0
 62
     0
 66
     1
 10
0
 20
0
 30
0.0
 70
     1
 40
0.15
 41
0.15
  0
VERTEX
  8
0
 10
2.72478
 20
0.00450304
 30
0.0
 40
0.00208333
 41
0.00208333
  0
VERTEX
  8
0
 10
2.72478
 20
1.46039
 30
0.0
 40
0.00208333
 41
0.00208333
  0
VERTEX
  8
0
 10
2.56853
 20
1.63271
 30
0.0
 40
0.00208333
 41
0.00208333
  0
VERTEX
  8
0
 10
2.56853
 20
0.192003
 30
0.0
 40
0.00208333
 41
0.00208333
  0
VERTEX
  8
0
 10
2.72478
 20
0.00450304
 30
0.0
 40
0.00208333
 41
0.00208333
  0
SEQEND
 8
0
  0
POLYLINE
  8
0
 62
     0
 66
     1
 10
0
 20
0
 30
0.0
 70
     1
 40
0
 41
0
  0
VERTEX
  8
0
 10
2.72478
 20
1.46039
 30
0.0
 40
0
 41
0
  0
VERTEX
  8
0
 10
4.82053
 20
1.46039
 30
0.0
 40
0
 41
0
  0
VERTEX
  8
0
 10
4.64219
 20
1.63271
 30
0.0
 40
0
 41
0
  0
VERTEX
  8
0
 10
2.56853
 20
1.63271
 30
0.0
 40
0
 41
0
  0
VERTEX
  8
0
 10
2.72478
 20
1.46039
 30
0.0
 40
0
 41
0
  0
SEQEND
 8
0
  0
POLYLINE
  8
0
 62
     0
 66
     1
 10
0
 20
0
 30
0.0
 70
     1
 40
0.15
 41
0.15
  0
VERTEX
  8
0
 10
2.72478
 20
1.46039
 30
0.0
 40
0.00208333
 41
0.00208333
  0
VERTEX
  8
0
 10
4.82053
 20
1.46039
 30
0.0
 40
0.00208333
 41
0.00208333
  0
VERTEX
  8
0
 10
4.64219
 20
1.63271
 30
0.0
 40
0.00208333
 41
0.00208333
  0
VERTEX
  8
0
 10
2.56853
 20
1.63271
 30
0.0
 40
0.00208333
 41
0.00208333
  0
VERTEX
  8
0
 10
2.72478
 20
1.46039
 30
0.0
 40
0.00208333
 41
0.00208333
  0
SEQEND
 8
0
  0
POLYLINE
  8
0
 62
     0
 66
     1
 10
0
 20
0
 30
0.0
 70
     1
 40
0
 41
0
  0
VERTEX
  8
0
 10
4.82053
 20
1.46039
 30
0.0
 40
0
 41
0
  0
VERTEX
  8
0
 10
4.82053
 20
6.55414
 30
0.0
 40
0
 41
0
  0
VERTEX
  8
0
 10
4.64219
 20
6.73122
 30
0.0
 40
0
 41
0
  0
VERTEX
  8
0
 10
4.64219
 20
1.63271
 30
0.0
 40
0
 41
0
  0
VERTEX
  8
0
 10
4.82053
 20
1.46039
 30
0.0
 40
0
 41
0
  0
SEQEND
 8
0
  0
POLYLINE
  8
0
 62
     0
 66
     1
 10
0
 20
0
 30
0.0
 70
     1
 40
0.15
 41
0.15
  0
VERTEX
  8
0
 10
4.82053
 20
1.46039
 30
0.0
 40
0.00208333
 41
0.00208333
  0
VERTEX
  8
0
 10
4.82053
 20
6.55414
 30
0.0
 40
0.00208333
 41
0.00208333
  0
VERTEX
  8
0
 10
4.64219
 20
6.73122
 30
0.0
 40
0.00208333
 41
0.00208333
  0
VERTEX
  8
0
 10
4.64219
 20
1.63271
 30
0.0
 40
0.00208333
 41
0.00208333
  0
VERTEX
  8
0
 10
4.82053
 20
1.46039
 30
0.0
 40
0.00208333
 41
0.00208333
  0
SEQEND
 8
0
  0
POLYLINE
  8
0
 62
     7
 66
     1
 10
0
 20
0
 30
0.0
 70
     1
 40
0
 41
0
  0
VERTEX
  8
0
 10
4.64219
 20
6.16075
 30
0.0
 40
0
 41
0
  0
VERTEX
  8
0
 10
4.82053
 20
6.16075
 30
0.0
 40
0
 41
0
  0
VERTEX
  8
0
 10
4.82053
 20
5.21625
 30
0.0
 40
0
 41
0
  0
VERTEX
  8
0
 10
4.64219
 20
5.21625
 30
0.0
 40
0
 41
0
  0
VERTEX
  8
0
 10
4.64219
 20
6.16075
 30
0.0
 40
0
 41
0
  0
SEQEND
 8
0
  0
POLYLINE
  8
0
 62
     0
 66
     1
 10
0
 20
0
 30
0.0
 70
     1
 40
0.75
 41
0.75
  0
VERTEX
  8
0
 10
4.64219
 20
6.16075
 30
0.0
 40
0.0104167
 41
0.0104167
  0
VERTEX
  8
0
 10
4.82053
 20
6.16075
 30
0.0
 40
0.0104167
 41
0.0104167
  0
VERTEX
  8
0
 10
4.82053
 20
5.21625
 30
0.0
 40
0.0104167
 41
0.0104167
  0
VERTEX
  8
0
 10
4.64219
 20
5.21625
 30
0.0
 40
0.0104167
 41
0.0104167
  0
VERTEX
  8
0
 10
4.64219
 20
6.16075
 30
0.0
 40
0.0104167
 41
0.0104167
  0
SEQEND
 8
0
  0
POLYLINE
  8
0
 62
     7
 66
     1
 10
0
 20
0
 30
0.0
 70
     1
 40
0
 41
0
  0
VERTEX
  8
0
 10
4.64219
 20
6.16075
 30
0.0
 40
0
 41
0
  0
VERTEX
  8
0
 10
4.82053
 20
6.16075
 30
0.0
 40
0
 41
0
  0
VERTEX
  8
0
 10
4.82053
 20
5.21625
 30
0.0
 40
0
 41
0
  0
VERTEX
  8
0
 10
4.64219
 20
5.21625
 30
0.0
 40
0
 41
0
  0
VERTEX
  8
0
 10
4.64219
 20
6.16075
 30
0.0
 40
0
 41
0
  0
SEQEND
 8
0
  0
POLYLINE
  8
0
 62
     0
 66
     1
 10
0
 20
0
 30
0.0
 70
     1
 40
0.75
 41
0.75
  0
VERTEX
  8
0
 10
4.64219
 20
6.16075
 30
0.0
 40
0.0104167
 41
0.0104167
  0
VERTEX
  8
0
 10
4.82053
 20
6.16075
 30
0.0
 40
0.0104167
 41
0.0104167
  0
VERTEX
  8
0
 10
4.82053
 20
5.21625
 30
0.0
 40
0.0104167
 41
0.0104167
  0
VERTEX
  8
0
 10
4.64219
 20
5.21625
 30
0.0
 40
0.0104167
 41
0.0104167
  0
VERTEX
  8
0
 10
4.64219
 20
6.16075
 30
0.0
 40
0.0104167
 41
0.0104167
  0
SEQEND
 8
0
  0
POLYLINE
  8
0
 62
     0
 66
     1
 10
0
 20
0
 30
0.0
 70
     1
 40
0.75
 41
0.75
  0
VERTEX
  8
0
 10
4.82053
 20
6.16075
 30
0.0
 40
0.0104167
 41
0.0104167
  0
VERTEX
  8
0
 10
4.87587
 20
6.16075
 30
0.0
 40
0.0104167
 41
0.0104167
  0
VERTEX
  8
0
 10
5.04189
 20
6.146
 30
0.0
 40
0.0104167
 41
0.0104167
  0
VERTEX
  8
0
 10
5.23372
 20
6.10172
 30
0.0
 40
0.0104167
 41
0.0104167
  0
VERTEX
  8
0
 10
5.39606
 20
6.02794
 30
0.0
 40
0.0104167
 41
0.0104167
  0
VERTEX
  8
0
 10
5.52886
 20
5.92464
 30
0.0
 40
0.0104167
 41
0.0104167
  0
VERTEX
  8
0
 10
5.63217
 20
5.79183
 30
0.0
 40
0.0104167
 41
0.0104167
  0
VERTEX
  8
0
 10
5.70594
 20
5.6295
 30
0.0
 40
0.0104167
 41
0.0104167
  0
VERTEX
  8
0
 10
5.75022
 20
5.43767
 30
0.0
 40
0.0104167
 41
0.0104167
  0
VERTEX
  8
0
 10
5.76497
 20
5.27165
 30
0.0
 40
0.0104167
 41
0.0104167
  0
VERTEX
  8
0
 10
5.76497
 20
5.21625
 30
0.0
 40
0.0104167
 41
0.0104167
  0
VERTEX
  8
0
 10
4.82053
 20
5.21625
 30
0.0
 40
0.0104167
 41
0.0104167
  0
VERTEX
  8
0
 10
4.82053
 20
6.16075
 30
0.0
 40
0.0104167
 41
0.0104167
  0
SEQEND
 8
0
  0
POLYLINE
  8
0
 62
     0
 66
     1
 10
0
 20
0
 30
0.0
 70
     1
 40
0.75
 41
0.75
  0
VERTEX
  8
0
 10
4.64219
 20
6.16075
 30
0.0
 40
0.0104167
 41
0.0104167
  0
VERTEX
  8
0
 10
4.58681
 20
6.16075
 30
0.0
 40
0.0104167
 41
0.0104167
  0
VERTEX
  8
0
 10
4.42079
 20
6.146
 30
0.0
 40
0.0104167
 41
0.0104167
  0
VERTEX
  8
0
 10
4.22894
 20
6.10172
 30
0.0
 40
0.0104167
 41
0.0104167
  0
VERTEX
  8
0
 10
4.06662
 20
6.02794
 30
0.0
 40
0.0104167
 41
0.0104167
  0
VERTEX
  8
0
 10
3.93381
 20
5.92464
 30
0.0
 40
0.0104167
 41
0.0104167
  0
VERTEX
  8
0
 10
3.83051
 20
5.79183
 30
0.0
 40
0.0104167
 41
0.0104167
  0
VERTEX
  8
0
 10
3.75672
 20
5.6295
 30
0.0
 40
0.0104167
 41
0.0104167
  0
VERTEX
  8
0
 10
3.71246
 20
5.43767
 30
0.0
 40
0.0104167
 41
0.0104167
  0
VERTEX
  8
0
 10
3.69769
 20
5.27165
 30
0.0
 40
0.0104167
 41
0.0104167
  0
VERTEX
  8
0
 10
3.69769
 20
5.21625
 30
0.0
 40
0.0104167
 41
0.0104167
  0
VERTEX
  8
0
 10
4.64219
 20
5.21625
 30
0.0
 40
0.0104167
 41
0.0104167
  0
VERTEX
  8
0
 10
4.64219
 20
6.16075
 30
0.0
 40
0.0104167
 41
0.0104167
  0
SEQEND
 8
0
  0
POLYLINE
  8
0
 62
     0
 66
     1
 10
0
 20
0
 30
0.0
 70
     1
 40
0
 41
0
  0
VERTEX
  8
0
 10
4.82053
 20
6.55414
 30
0.0
 40
0
 41
0
  0
VERTEX
  8
0
 10
7.67572
 20
6.55414
 30
0.0
 40
0
 41
0
  0
VERTEX
  8
0
 10
7.51947
 20
6.73122
 30
0.0
 40
0
 41
0
  0
VERTEX
  8
0
 10
4.64219
 20
6.73122
 30
0.0
 40
0
 41
0
  0
VERTEX
  8
0
 10
4.82053
 20
6.55414
 30
0.0
 40
0
 41
0
  0
SEQEND
 8
0
  0
POLYLINE
  8
0
 62
     0
 66
     1
 10
0
 20
0
 30
0.0
 70
     1
 40
0.15
 41
0.15
  0
VERTEX
  8
0
 10
4.82053
 20
6.55414
 30
0.0
 40
0.00208333
 41
0.00208333
  0
VERTEX
  8
0
 10
7.67572
 20
6.55414
 30
0.0
 40
0.00208333
 41
0.00208333
  0
VERTEX
  8
0
 10
7.51947
 20
6.73122
 30
0.0
 40
0.00208333
 41
0.00208333
  0
VERTEX
  8
0
 10
4.64219
 20
6.73122
 30
0.0
 40
0.00208333
 41
0.00208333
  0
VERTEX
  8
0
 10
4.82053
 20
6.55414
 30
0.0
 40
0.00208333
 41
0.00208333
  0
SEQEND
 8
0
  0
POLYLINE
  8
0
 62
     7
 66
     1
 10
0
 20
0
 30
0.0
 70
     1
 40
0
 41
0
  0
VERTEX
  8
0
 10
6.40657
 20
6.73122
 30
0.0
 40
0
 41
0
  0
VERTEX
  8
0
 10
7.35747
 20
6.73122
 30
0.0
 40
0
 41
0
  0
VERTEX
  8
0
 10
7.35747
 20
6.55414
 30
0.0
 40
0
 41
0
  0
VERTEX
  8
0
 10
6.40657
 20
6.55414
 30
0.0
 40
0
 41
0
  0
VERTEX
  8
0
 10
6.40657
 20
6.73122
 30
0.0
 40
0
 41
0
  0
SEQEND
 8
0
  0
POLYLINE
  8
0
 62
     0
 66
     1
 10
0
 20
0
 30
0.0
 70
     1
 40
0.75
 41
0.75
  0
VERTEX
  8
0
 10
6.40657
 20
6.73122
 30
0.0
 40
0.0104167
 41
0.0104167
  0
VERTEX
  8
0
 10
7.35747
 20
6.73122
 30
0.0
 40
0.0104167
 41
0.0104167
  0
VERTEX
  8
0
 10
7.35747
 20
6.55414
 30
0.0
 40
0.0104167
 41
0.0104167
  0
VERTEX
  8
0
 10
6.40657
 20
6.55414
 30
0.0
 40
0.0104167
 41
0.0104167
  0
VERTEX
  8
0
 10
6.40657
 20
6.73122
 30
0.0
 40
0.0104167
 41
0.0104167
  0
SEQEND
 8
0
  0
POLYLINE
  8
0
 62
     7
 66
     1
 10
0
 20
0
 30
0.0
 70
     1
 40
0
 41
0
  0
VERTEX
  8
0
 10
6.40657
 20
6.73122
 30
0.0
 40
0
 41
0
  0
VERTEX
  8
0
 10
7.35747
 20
6.73122
 30
0.0
 40
0
 41
0
  0
VERTEX
  8
0
 10
7.35747
 20
6.55414
 30
0.0
 40
0
 41
0
  0
VERTEX
  8
0
 10
6.40657
 20
6.55414
 30
0.0
 40
0
 41
0
  0
VERTEX
  8
0
 10
6.40657
 20
6.73122
 30
0.0
 40
0
 41
0
  0
SEQEND
 8
0
  0
POLYLINE
  8
0
 62
     0
 66
     1
 10
0
 20
0
 30
0.0
 70
     1
 40
0.75
 41
0.75
  0
VERTEX
  8
0
 10
6.40657
 20
6.73122
 30
0.0
 40
0.0104167
 41
0.0104167
  0
VERTEX
  8
0
 10
7.35747
 20
6.73122
 30
0.0
 40
0.0104167
 41
0.0104167
  0
VERTEX
  8
0
 10
7.35747
 20
6.55414
 30
0.0
 40
0.0104167
 41
0.0104167
  0
VERTEX
  8
0
 10
6.40657
 20
6.55414
 30
0.0
 40
0.0104167
 41
0.0104167
  0
VERTEX
  8
0
 10
6.40657
 20
6.73122
 30
0.0
 40
0.0104167
 41
0.0104167
  0
SEQEND
 8
0
  0
POLYLINE
  8
0
 62
     0
 66
     1
 10
0
 20
0
 30
0.0
 70
     1
 40
0.75
 41
0.75
  0
VERTEX
  8
0
 10
6.40657
 20
6.55414
 30
0.0
 40
0.0104167
 41
0.0104167
  0
VERTEX
  8
0
 10
6.40657
 20
6.49849
 30
0.0
 40
0.0104167
 41
0.0104167
  0
VERTEX
  8
0
 10
6.42139
 20
6.33132
 30
0.0
 40
0.0104167
 41
0.0104167
  0
VERTEX
  8
0
 10
6.46599
 20
6.13813
 30
0.0
 40
0.0104167
 41
0.0104167
  0
VERTEX
  8
0
 10
6.54025
 20
5.97472
 30
0.0
 40
0.0104167
 41
0.0104167
  0
VERTEX
  8
0
 10
6.64426
 20
5.84099
 30
0.0
 40
0.0104167
 41
0.0104167
  0
VERTEX
  8
0
 10
6.778
 20
5.73699
 30
0.0
 40
0.0104167
 41
0.0104167
  0
VERTEX
  8
0
 10
6.9414
 20
5.66271
 30
0.0
 40
0.0104167
 41
0.0104167
  0
VERTEX
  8
0
 10
7.1346
 20
5.61811
 30
0.0
 40
0.0104167
 41
0.0104167
  0
VERTEX
  8
0
 10
7.30176
 20
5.60325
 30
0.0
 40
0.0104167
 41
0.0104167
  0
VERTEX
  8
0
 10
7.35747
 20
5.60325
 30
0.0
 40
0.0104167
 41
0.0104167
  0
VERTEX
  8
0
 10
7.35747
 20
6.55414
 30
0.0
 40
0.0104167
 41
0.0104167
  0
VERTEX
  8
0
 10
6.40657
 20
6.55414
 30
0.0
 40
0.0104167
 41
0.0104167
  0
SEQEND
 8
0
  0
POLYLINE
  8
0
 62
     0
 66
     1
 10
0
 20
0
 30
0.0
 70
     1
 40
0.75
 41
0.75
  0
VERTEX
  8
0
 10
6.40657
 20
6.73122
 30
0.0
 40
0.0104167
 41
0.0104167
  0
VERTEX
  8
0
 10
6.40657
 20
6.787
 30
0.0
 40
0.0104167
 41
0.0104167
  0
VERTEX
  8
0
 10
6.42139
 20
6.95415
 30
0.0
 40
0.0104167
 41
0.0104167
  0
VERTEX
  8
0
 10
6.46599
 20
7.14729
 30
0.0
 40
0.0104167
 41
0.0104167
  0
VERTEX
  8
0
 10
6.54025
 20
7.31076
 30
0.0
 40
0.0104167
 41
0.0104167
  0
VERTEX
  8
0
 10
6.64426
 20
7.4445
 30
0.0
 40
0.0104167
 41
0.0104167
  0
VERTEX
  8
0
 10
6.778
 20
7.5485
 30
0.0
 40
0.0104167
 41
0.0104167
  0
VERTEX
  8
0
 10
6.9414
 20
7.62278
 30
0.0
 40
0.0104167
 41
0.0104167
  0
VERTEX
  8
0
 10
7.1346
 20
7.66738
 30
0.0
 40
0.0104167
 41
0.0104167
  0
VERTEX
  8
0
 10
7.30176
 20
7.68218
 30
0.0
 40
0.0104167
 41
0.0104167
  0
VERTEX
  8
0
 10
7.35747
 20
7.68218
 30
0.0
 40
0.0104167
 41
0.0104167
  0
VERTEX
  8
0
 10
7.35747
 20
6.73122
 30
0.0
 40
0.0104167
 41
0.0104167
  0
VERTEX
  8
0
 10
6.40657
 20
6.73122
 30
0.0
 40
0.0104167
 41
0.0104167
  0
SEQEND
 8
0
  0
POLYLINE
  8
0
 62
     0
 66
     1
 10
0
 20
0
 30
0.0
 70
     1
 40
0
 41
0
  0
VERTEX
  8
0
 10
7.67572
 20
6.55414
 30
0.0
 40
0
 41
0
  0
VERTEX
  8
0
 10
7.67572
 20
7.692
 30
0.0
 40
0
 41
0
  0
VERTEX
  8
0
 10
7.51947
 20
7.86908
 30
0.0
 40
0
 41
0
  0
VERTEX
  8
0
 10
7.51947
 20
6.73122
 30
0.0
 40
0
 41
0
  0
VERTEX
  8
0
 10
7.67572
 20
6.55414
 30
0.0
 40
0
 41
0
  0
SEQEND
 8
0
  0
POLYLINE
  8
0
 62
     0
 66
     1
 10
0
 20
0
 30
0.0
 70
     1
 40
0.15
 41
0.15
  0
VERTEX
  8
0
 10
7.67572
 20
6.55414
 30
0.0
 40
0.00208333
 41
0.00208333
  0
VERTEX
  8
0
 10
7.67572
 20
7.692
 30
0.0
 40
0.00208333
 41
0.00208333
  0
VERTEX
  8
0
 10
7.51947
 20
7.86908
 30
0.0
 40
0.00208333
 41
0.00208333
  0
VERTEX
  8
0
 10
7.51947
 20
6.73122
 30
0.0
 40
0.00208333
 41
0.00208333
  0
VERTEX
  8
0
 10
7.67572
 20
6.55414
 30
0.0
 40
0.00208333
 41
0.00208333
  0
SEQEND
 8
0
  0
POLYLINE
  8
0
 62
     0
 66
     1
 10
0
 20
0
 30
0.0
 70
     1
 40
0
 41
0
  0
VERTEX
  8
0
 10
7.67572
 20
7.692
 30
0.0
 40
0
 41
0
  0
VERTEX
  8
0
 10
13.6713
 20
7.692
 30
0.0
 40
0
 41
0
  0
VERTEX
  8
0
 10
13.4099
 20
7.86908
 30
0.0
 40
0
 41
0
  0
VERTEX
  8
0
 10
7.51947
 20
7.86908
 30
0.0
 40
0
 41
0
  0
VERTEX
  8
0
 10
7.67572
 20
7.692
 30
0.0
 40
0
 41
0
  0
SEQEND
 8
0
  0
POLYLINE
  8
0
 62
     0
 66
     1
 10
0
 20
0
 30
0.0
 70
     1
 40
0.15
 41
0.15
  0
VERTEX
  8
0
 10
7.67572
 20
7.692
 30
0.0
 40
0.00208333
 41
0.00208333
  0
VERTEX
  8
0
 10
13.6713
 20
7.692
 30
0.0
 40
0.00208333
 41
0.00208333
  0
VERTEX
  8
0
 10
13.4099
 20
7.86908
 30
0.0
 40
0.00208333
 41
0.00208333
  0
VERTEX
  8
0
 10
7.51947
 20
7.86908
 30
0.0
 40
0.00208333
 41
0.00208333
  0
VERTEX
  8
0
 10
7.67572
 20
7.692
 30
0.0
 40
0.00208333
 41
0.00208333
  0
SEQEND
 8
0
  0
POLYLINE
  8
0
 62
     0
 66
     1
 10
0
 20
0
 30
0.0
 70
     1
 40
0
 41
0
  0
VERTEX
  8
0
 10
13.6713
 20
7.692
 30
0.0
 40
0
 41
0
  0
VERTEX
  8
0
 10
13.6713
 20
12.3715
 30
0.0
 40
0
 41
0
  0
VERTEX
  8
0
 10
13.4099
 20
12.0069
 30
0.0
 40
0
 41
0
  0
VERTEX
  8
0
 10
13.4099
 20
7.86908
 30
0.0
 40
0
 41
0
  0
VERTEX
  8
0
 10
13.6713
 20
7.692
 30
0.0
 40
0
 41
0
  0
SEQEND
 8
0
  0
POLYLINE
  8
0
 62
     0
 66
     1
 10
0
 20
0
 30
0.0
 70
     1
 40
0.15
 41
0.15
  0
VERTEX
  8
0
 10
13.6713
 20
7.692
 30
0.0
 40
0.00208333
 41
0.00208333
  0
VERTEX
  8
0
 10
13.6713
 20
12.3715
 30
0.0
 40
0.00208333
 41
0.00208333
  0
VERTEX
  8
0
 10
13.4099
 20
12.0069
 30
0.0
 40
0.00208333
 41
0.00208333
  0
VERTEX
  8
0
 10
13.4099
 20
7.86908
 30
0.0
 40
0.00208333
 41
0.00208333
  0
VERTEX
  8
0
 10
13.6713
 20
7.692
 30
0.0
 40
0.00208333
 41
0.00208333
  0
SEQEND
 8
0
  0
POLYLINE
  8
0
 62
     7
 66
     1
 10
0
 20
0
 30
0.0
 70
     1
 40
0
 41
0
  0
VERTEX
  8
0
 10
13.4099
 20
11.999
 30
0.0
 40
0
 41
0
  0
VERTEX
  8
0
 10
13.6713
 20
11.999
 30
0.0
 40
0
 41
0
  0
VERTEX
  8
0
 10
13.6713
 20
9.4221
 30
0.0
 40
0
 41
0
  0
VERTEX
  8
0
 10
13.4099
 20
9.4221
 30
0.0
 40
0
 41
0
  0
VERTEX
  8
0
 10
13.4099
 20
11.999
 30
0.0
 40
0
 41
0
  0
SEQEND
 8
0
  0
POLYLINE
  8
0
 62
     0
 66
     1
 10
0
 20
0
 30
0.0
 70
     1
 40
0.75
 41
0.75
  0
VERTEX
  8
0
 10
13.4099
 20
11.999
 30
0.0
 40
0.0104167
 41
0.0104167
  0
VERTEX
  8
0
 10
13.6713
 20
11.999
 30
0.0
 40
0.0104167
 41
0.0104167
  0
VERTEX
  8
0
 10
13.6713
 20
9.4221
 30
0.0
 40
0.0104167
 41
0.0104167
  0
VERTEX
  8
0
 10
13.4099
 20
9.4221
 30
0.0
 40
0.0104167
 41
0.0104167
  0
VERTEX
  8
0
 10
13.4099
 20
11.999
 30
0.0
 40
0.0104167
 41
0.0104167
  0
SEQEND
 8
0
  0
POLYLINE
  8
0
 62
     7
 66
     1
 10
0
 20
0
 30
0.0
 70
     1
 40
0
 41
0
  0
VERTEX
  8
0
 10
13.4099
 20
11.999
 30
0.0
 40
0
 41
0
  0
VERTEX
  8
0
 10
13.6713
 20
11.999
 30
0.0
 40
0
 41
0
  0
VERTEX
  8
0
 10
13.6713
 20
9.4221
 30
0.0
 40
0
 41
0
  0
VERTEX
  8
0
 10
13.4099
 20
9.4221
 30
0.0
 40
0
 41
0
  0
VERTEX
  8
0
 10
13.4099
 20
11.999
 30
0.0
 40
0
 41
0
  0
SEQEND
 8
0
  0
POLYLINE
  8
0
 62
     0
 66
     1
 10
0
 20
0
 30
0.0
 70
     1
 40
0.75
 41
0.75
  0
VERTEX
  8
0
 10
13.4099
 20
11.999
 30
0.0
 40
0.0104167
 41
0.0104167
  0
VERTEX
  8
0
 10
13.6713
 20
11.999
 30
0.0
 40
0.0104167
 41
0.0104167
  0
VERTEX
  8
0
 10
13.6713
 20
9.4221
 30
0.0
 40
0.0104167
 41
0.0104167
  0
VERTEX
  8
0
 10
13.4099
 20
9.4221
 30
0.0
 40
0.0104167
 41
0.0104167
  0
VERTEX
  8
0
 10
13.4099
 20
11.999
 30
0.0
 40
0.0104167
 41
0.0104167
  0
SEQEND
 8
0
  0
POLYLINE
  8
0
 62
     0
 66
     1
 10
0
 20
0
 30
0.0
 40
0.75
 41
0.75
  0
VERTEX
  8
0
 10
13.5406
 20
9.50022
 30
0.0
 40
0.0104167
 41
0.0104167
  0
VERTEX
  8
0
 10
13.5406
 20
11.9208
 30
0.0
 40
0.0104167
 41
0.0104167
  0
SEQEND
 8
0
  0
POLYLINE
  8
0
 62
     0
 66
     1
 10
0
 20
0
 30
0.0
 40
0.75
 41
0.75
  0
VERTEX
  8
0
 10
13.6713
 20
9.50022
 30
0.0
 40
0.0104167
 41
0.0104167
  0
VERTEX
  8
0
 10
13.4099
 20
9.50022
 30
0.0
 40
0.0104167
 41
0.0104167
  0
SEQEND
 8
0
  0
POLYLINE
  8
0
 62
     0
 66
     1
 10
0
 20
0
 30
0.0
 40
0.75
 41
0.75
  0
VERTEX
  8
0
 10
13.6713
 20
11.9208
 30
0.0
 40
0.0104167
 41
0.0104167
  0
VERTEX
  8
0
 10
13.4099
 20
11.9208
 30
0.0
 40
0.0104167
 41
0.0104167
  0
SEQEND
 8
0
  0
POLYLINE
  8
0
 62
     7
 66
     1
 10
0
 20
0
 30
0.0
 70
     1
 40
0
 41
0
  0
VERTEX
  8
0
 10
13.4099
 20
9.37918
 30
0.0
 40
0
 41
0
  0
VERTEX
  8
0
 10
13.6713
 20
9.37918
 30
0.0
 40
0
 41
0
  0
VERTEX
  8
0
 10
13.6713
 20
8.53033
 30
0.0
 40
0
 41
0
  0
VERTEX
  8
0
 10
13.4099
 20
8.53033
 30
0.0
 40
0
 41
0
  0
VERTEX
  8
0
 10
13.4099
 20
9.37918
 30
0.0
 40
0
 41
0
  0
SEQEND
 8
0
  0
POLYLINE
  8
0
 62
     0
 66
     1
 10
0
 20
0
 30
0.0
 70
     1
 40
0.75
 41
0.75
  0
VERTEX
  8
0
 10
13.4099
 20
9.37918
 30
0.0
 40
0.0104167
 41
0.0104167
  0
VERTEX
  8
0
 10
13.6713
 20
9.37918
 30
0.0
 40
0.0104167
 41
0.0104167
  0
VERTEX
  8
0
 10
13.6713
 20
8.53033
 30
0.0
 40
0.0104167
 41
0.0104167
  0
VERTEX
  8
0
 10
13.4099
 20
8.53033
 30
0.0
 40
0.0104167
 41
0.0104167
  0
VERTEX
  8
0
 10
13.4099
 20
9.37918
 30
0.0
 40
0.0104167
 41
0.0104167
  0
SEQEND
 8
0
  0
POLYLINE
  8
0
 62
     7
 66
     1
 10
0
 20
0
 30
0.0
 70
     1
 40
0
 41
0
  0
VERTEX
  8
0
 10
13.4099
 20
9.37918
 30
0.0
 40
0
 41
0
  0
VERTEX
  8
0
 10
13.6713
 20
9.37918
 30
0.0
 40
0
 41
0
  0
VERTEX
  8
0
 10
13.6713
 20
8.53033
 30
0.0
 40
0
 41
0
  0
VERTEX
  8
0
 10
13.4099
 20
8.53033
 30
0.0
 40
0
 41
0
  0
VERTEX
  8
0
 10
13.4099
 20
9.37918
 30
0.0
 40
0
 41
0
  0
SEQEND
 8
0
  0
POLYLINE
  8
0
 62
     0
 66
     1
 10
0
 20
0
 30
0.0
 70
     1
 40
0.75
 41
0.75
  0
VERTEX
  8
0
 10
13.4099
 20
9.37918
 30
0.0
 40
0.0104167
 41
0.0104167
  0
VERTEX
  8
0
 10
13.6713
 20
9.37918
 30
0.0
 40
0.0104167
 41
0.0104167
  0
VERTEX
  8
0
 10
13.6713
 20
8.53033
 30
0.0
 40
0.0104167
 41
0.0104167
  0
VERTEX
  8
0
 10
13.4099
 20
8.53033
 30
0.0
 40
0.0104167
 41
0.0104167
  0
VERTEX
  8
0
 10
13.4099
 20
9.37918
 30
0.0
 40
0.0104167
 41
0.0104167
  0
SEQEND
 8
0
  0
POLYLINE
  8
0
 62
     0
 66
     1
 10
0
 20
0
 30
0.0
 70
     1
 40
0.75
 41
0.75
  0
VERTEX
  8
0
 10
13.6713
 20
9.37918
 30
0.0
 40
0.0104167
 41
0.0104167
  0
VERTEX
  8
0
 10
13.721
 20
9.37918
 30
0.0
 40
0.0104167
 41
0.0104167
  0
VERTEX
  8
0
 10
13.8703
 20
9.36594
 30
0.0
 40
0.0104167
 41
0.0104167
  0
VERTEX
  8
0
 10
14.0426
 20
9.32617
 30
0.0
 40
0.0104167
 41
0.0104167
  0
VERTEX
  8
0
 10
14.1886
 20
9.25982
 30
0.0
 40
0.0104167
 41
0.0104167
  0
VERTEX
  8
0
 10
14.3079
 20
9.16699
 30
0.0
 40
0.0104167
 41
0.0104167
  0
VERTEX
  8
0
 10
14.4008
 20
9.04758
 30
0.0
 40
0.0104167
 41
0.0104167
  0
VERTEX
  8
0
 10
14.4671
 20
8.90169
 30
0.0
 40
0.0104167
 41
0.0104167
  0
VERTEX
  8
0
 10
14.5069
 20
8.72928
 30
0.0
 40
0.0104167
 41
0.0104167
  0
VERTEX
  8
0
 10
14.5201
 20
8.58008
 30
0.0
 40
0.0104167
 41
0.0104167
  0
VERTEX
  8
0
 10
14.5201
 20
8.53033
 30
0.0
 40
0.0104167
 41
0.0104167
  0
VERTEX
  8
0
 10
13.6713
 20
8.53033
 30
0.0
 40
0.0104167
 41
0.0104167
  0
VERTEX
  8
0
 10
13.6713
 20
9.37918
 30
0.0
 40
0.0104167
 41
0.0104167
  0
SEQEND
 8
0
  0
POLYLINE
  8
0
 62
     7
 66
     1
 10
0
 20
0
 30
0.0
 70
     1
 40
0
 41
0
  0
VERTEX
  8
0
 10
13.4099
 20
8.48383
 30
0.0
 40
0
 41
0
  0
VERTEX
  8
0
 10
13.6713
 20
8.48383
 30
0.0
 40
0
 41
0
  0
VERTEX
  8
0
 10
13.6713
 20
7.87582
 30
0.0
 40
0
 41
0
  0
VERTEX
  8
0
 10
13.4099
 20
7.87582
 30
0.0
 40
0
 41
0
  0
VERTEX
  8
0
 10
13.4099
 20
8.48383
 30
0.0
 40
0
 41
0
  0
SEQEND
 8
0
  0
POLYLINE
  8
0
 62
     0
 66
     1
 10
0
 20
0
 30
0.0
 70
     1
 40
0.75
 41
0.75
  0
VERTEX
  8
0
 10
13.4099
 20
8.48383
 30
0.0
 40
0.0104167
 41
0.0104167
  0
VERTEX
  8
0
 10
13.6713
 20
8.48383
 30
0.0
 40
0.0104167
 41
0.0104167
  0
VERTEX
  8
0
 10
13.6713
 20
7.87582
 30
0.0
 40
0.0104167
 41
0.0104167
  0
VERTEX
  8
0
 10
13.4099
 20
7.87582
 30
0.0
 40
0.0104167
 41
0.0104167
  0
VERTEX
  8
0
 10
13.4099
 20
8.48383
 30
0.0
 40
0.0104167
 41
0.0104167
  0
SEQEND
 8
0
  0
POLYLINE
  8
0
 62
     7
 66
     1
 10
0
 20
0
 30
0.0
 70
     1
 40
0
 41
0
  0
VERTEX
  8
0
 10
13.4099
 20
8.48383
 30
0.0
 40
0
 41
0
  0
VERTEX
  8
0
 10
13.6713
 20
8.48383
 30
0.0
 40
0
 41
0
  0
VERTEX
  8
0
 10
13.6713
 20
7.87582
 30
0.0
 40
0
 41
0
  0
VERTEX
  8
0
 10
13.4099
 20
7.87582
 30
0.0
 40
0
 41
0
  0
VERTEX
  8
0
 10
13.4099
 20
8.48383
 30
0.0
 40
0
 41
0
  0
SEQEND
 8
0
  0
POLYLINE
  8
0
 62
     0
 66
     1
 10
0
 20
0
 30
0.0
 70
     1
 40
0.75
 41
0.75
  0
VERTEX
  8
0
 10
13.4099
 20
8.48383
 30
0.0
 40
0.0104167
 41
0.0104167
  0
VERTEX
  8
0
 10
13.6713
 20
8.48383
 30
0.0
 40
0.0104167
 41
0.0104167
  0
VERTEX
  8
0
 10
13.6713
 20
7.87582
 30
0.0
 40
0.0104167
 41
0.0104167
  0
VERTEX
  8
0
 10
13.4099
 20
7.87582
 30
0.0
 40
0.0104167
 41
0.0104167
  0
VERTEX
  8
0
 10
13.4099
 20
8.48383
 30
0.0
 40
0.0104167
 41
0.0104167
  0
SEQEND
 8
0
  0
POLYLINE
  8
0
 62
     0
 66
     1
 10
0
 20
0
 30
0.0
 40
0.75
 41
0.75
  0
VERTEX
  8
0
 10
13.5406
 20
7.954
 30
0.0
 40
0.0104167
 41
0.0104167
  0
VERTEX
  8
0
 10
13.5406
 20
8.40565
 30
0.0
 40
0.0104167
 41
0.0104167
  0
SEQEND
 8
0
  0
POLYLINE
  8
0
 62
     0
 66
     1
 10
0
 20
0
 30
0.0
 40
0.75
 41
0.75
  0
VERTEX
  8
0
 10
13.6713
 20
7.954
 30
0.0
 40
0.0104167
 41
0.0104167
  0
VERTEX
  8
0
 10
13.4099
 20
7.954
 30
0.0
 40
0.0104167
 41
0.0104167
  0
SEQEND
 8
0
  0
POLYLINE
  8
0
 62
     0
 66
     1
 10
0
 20
0
 30
0.0
 40
0.75
 41
0.75
  0
VERTEX
  8
0
 10
13.6713
 20
8.40565
 30
0.0
 40
0.0104167
 41
0.0104167
  0
VERTEX
  8
0
 10
13.4099
 20
8.40565
 30
0.0
 40
0.0104167
 41
0.0104167
  0
SEQEND
 8
0
  0
POLYLINE
  8
0
 62
     0
 66
     1
 10
0
 20
0
 30
0.0
 70
     1
 40
0
 41
0
  0
VERTEX
  8
0
 10
0.215494
 20
4.79156
 30
0.0
 40
0
 41
0
  0
VERTEX
  8
0
 10
4.82053
 20
4.79156
 30
0.0
 40
0
 41
0
  0
VERTEX
  8
0
 10
4.82053
 20
4.63531
 30
0.0
 40
0
 41
0
  0
VERTEX
  8
0
 10
0.215494
 20
4.63531
 30
0.0
 40
0
 41
0
  0
VERTEX
  8
0
 10
0.215494
 20
4.79156
 30
0.0
 40
0
 41
0
  0
SEQEND
 8
0
  0
POLYLINE
  8
0
 62
     0
 66
     1
 10
0
 20
0
 30
0.0
 70
     1
 40
0.15
 41
0.15
  0
VERTEX
  8
0
 10
0.215494
 20
4.79156
 30
0.0
 40
0.00208333
 41
0.00208333
  0
VERTEX
  8
0
 10
4.82053
 20
4.79156
 30
0.0
 40
0.00208333
 41
0.00208333
  0
VERTEX
  8
0
 10
4.82053
 20
4.63531
 30
0.0
 40
0.00208333
 41
0.00208333
  0
VERTEX
  8
0
 10
0.215494
 20
4.63531
 30
0.0
 40
0.00208333
 41
0.00208333
  0
VERTEX
  8
0
 10
0.215494
 20
4.79156
 30
0.0
 40
0.00208333
 41
0.00208333
  0
SEQEND
 8
0
  0
POLYLINE
  8
0
 62
     7
 66
     1
 10
0
 20
0
 30
0.0
 70
     1
 40
0
 41
0
  0
VERTEX
  8
0
 10
3.66928
 20
4.79156
 30
0.0
 40
0
 41
0
  0
VERTEX
  8
0
 10
4.52399
 20
4.79156
 30
0.0
 40
0
 41
0
  0
VERTEX
  8
0
 10
4.52399
 20
4.63531
 30
0.0
 40
0
 41
0
  0
VERTEX
  8
0
 10
3.66928
 20
4.63531
 30
0.0
 40
0
 41
0
  0
VERTEX
  8
0
 10
3.66928
 20
4.79156
 30
0.0
 40
0
 41
0
  0
SEQEND
 8
0
  0
POLYLINE
  8
0
 62
     0
 66
     1
 10
0
 20
0
 30
0.0
 70
     1
 40
0.75
 41
0.75
  0
VERTEX
  8
0
 10
3.66928
 20
4.79156
 30
0.0
 40
0.0104167
 41
0.0104167
  0
VERTEX
  8
0
 10
4.52399
 20
4.79156
 30
0.0
 40
0.0104167
 41
0.0104167
  0
VERTEX
  8
0
 10
4.52399
 20
4.63531
 30
0.0
 40
0.0104167
 41
0.0104167
  0
VERTEX
  8
0
 10
3.66928
 20
4.63531
 30
0.0
 40
0.0104167
 41
0.0104167
  0
VERTEX
  8
0
 10
3.66928
 20
4.79156
 30
0.0
 40
0.0104167
 41
0.0104167
  0
SEQEND
 8
0
  0
POLYLINE
  8
0
 62
     7
 66
     1
 10
0
 20
0
 30
0.0
 70
     1
 40
0
 41
0
  0
VERTEX
  8
0
 10
3.66928
 20
4.79156
 30
0.0
 40
0
 41
0
  0
VERTEX
  8
0
 10
4.52399
 20
4.79156
 30
0.0
 40
0
 41
0
  0
VERTEX
  8
0
 10
4.52399
 20
4.63531
 30
0.0
 40
0
 41
0
  0
VERTEX
  8
0
 10
3.66928
 20
4.63531
 30
0.0
 40
0
 41
0
  0
VERTEX
  8
0
 10
3.66928
 20
4.79156
 30
0.0
 40
0
 41
0
  0
SEQEND
 8
0
  0
POLYLINE
  8
0
 62
     0
 66
     1
 10
0
 20
0
 30
0.0
 70
     1
 40
0.75
 41
0.75
  0
VERTEX
  8
0
 10
3.66928
 20
4.79156
 30
0.0
 40
0.0104167
 41
0.0104167
  0
VERTEX
  8
0
 10
4.52399
 20
4.79156
 30
0.0
 40
0.0104167
 41
0.0104167
  0
VERTEX
  8
0
 10
4.52399
 20
4.63531
 30
0.0
 40
0.0104167
 41
0.0104167
  0
VERTEX
  8
0
 10
3.66928
 20
4.63531
 30
0.0
 40
0.0104167
 41
0.0104167
  0
VERTEX
  8
0
 10
3.66928
 20
4.79156
 30
0.0
 40
0.0104167
 41
0.0104167
  0
SEQEND
 8
0
  0
POLYLINE
  8
0
 62
     0
 66
     1
 10
0
 20
0
 30
0.0
 70
     1
 40
0.75
 41
0.75
  0
VERTEX
  8
0
 10
3.66928
 20
4.63531
 30
0.0
 40
0.0104167
 41
0.0104167
  0
VERTEX
  8
0
 10
3.66928
 20
4.58524
 30
0.0
 40
0.0104167
 41
0.0104167
  0
VERTEX
  8
0
 10
3.68261
 20
4.435
 30
0.0
 40
0.0104167
 41
0.0104167
  0
VERTEX
  8
0
 10
3.72265
 20
4.26133
 30
0.0
 40
0.0104167
 41
0.0104167
  0
VERTEX
  8
0
 10
3.78944
 20
4.11447
 30
0.0
 40
0.0104167
 41
0.0104167
  0
VERTEX
  8
0
 10
3.88297
 20
3.99425
 30
0.0
 40
0.0104167
 41
0.0104167
  0
VERTEX
  8
0
 10
4.00315
 20
3.90076
 30
0.0
 40
0.0104167
 41
0.0104167
  0
VERTEX
  8
0
 10
4.15007
 20
3.83399
 30
0.0
 40
0.0104167
 41
0.0104167
  0
VERTEX
  8
0
 10
4.32374
 20
3.79394
 30
0.0
 40
0.0104167
 41
0.0104167
  0
VERTEX
  8
0
 10
4.47396
 20
3.78054
 30
0.0
 40
0.0104167
 41
0.0104167
  0
VERTEX
  8
0
 10
4.52408
 20
3.78054
 30
0.0
 40
0.0104167
 41
0.0104167
  0
VERTEX
  8
0
 10
4.52408
 20
4.63531
 30
0.0
 40
0.0104167
 41
0.0104167
  0
VERTEX
  8
0
 10
3.66928
 20
4.63531
 30
0.0
 40
0.0104167
 41
0.0104167
  0
SEQEND
 8
0
  0
POLYLINE
  8
0
 62
     0
 66
     1
 10
0
 20
0
 30
0.0
 70
     1
 40
0
 41
0
  0
VERTEX
  8
0
 10
3.4681
 20
12.3715
 30
0.0
 40
0
 41
0
  0
VERTEX
  8
0
 10
3.5695
 20
12.3715
 30
0.0
 40
0
 41
0
  0
VERTEX
  8
0
 10
3.5695
 20
4.63531
 30
0.0
 40
0
 41
0
  0
VERTEX
  8
0
 10
3.4681
 20
4.63531
 30
0.0
 40
0
 41
0
  0
VERTEX
  8
0
 10
3.4681
 20
12.3715
 30
0.0
 40
0
 41
0
  0
SEQEND
 8
0
  0
POLYLINE
  8
0
 62
     0
 66
     1
 10
0
 20
0
 30
0.0
 70
     1
 40
0.15
 41
0.15
  0
VERTEX
  8
0
 10
3.4681
 20
12.3715
 30
0.0
 40
0.00208333
 41
0.00208333
  0
VERTEX
  8
0
 10
3.5695
 20
12.3715
 30
0.0
 40
0.00208333
 41
0.00208333
  0
VERTEX
  8
0
 10
3.5695
 20
4.63531
 30
0.0
 40
0.00208333
 41
0.00208333
  0
VERTEX
  8
0
 10
3.4681
 20
4.63531
 30
0.0
 40
0.00208333
 41
0.00208333
  0
VERTEX
  8
0
 10
3.4681
 20
12.3715
 30
0.0
 40
0.00208333
 41
0.00208333
  0
SEQEND
 8
0
  0
POLYLINE
  8
0
 62
     7
 66
     1
 10
0
 20
0
 30
0.0
 70
     1
 40
0
 41
0
  0
VERTEX
  8
0
 10
3.4681
 20
5.58843
 30
0.0
 40
0
 41
0
  0
VERTEX
  8
0
 10
3.5695
 20
5.58843
 30
0.0
 40
0
 41
0
  0
VERTEX
  8
0
 10
3.5695
 20
4.94586
 30
0.0
 40
0
 41
0
  0
VERTEX
  8
0
 10
3.4681
 20
4.94586
 30
0.0
 40
0
 41
0
  0
VERTEX
  8
0
 10
3.4681
 20
5.58843
 30
0.0
 40
0
 41
0
  0
SEQEND
 8
0
  0
POLYLINE
  8
0
 62
     0
 66
     1
 10
0
 20
0
 30
0.0
 70
     1
 40
0.75
 41
0.75
  0
VERTEX
  8
0
 10
3.4681
 20
5.58843
 30
0.0
 40
0.0104167
 41
0.0104167
  0
VERTEX
  8
0
 10
3.5695
 20
5.58843
 30
0.0
 40
0.0104167
 41
0.0104167
  0
VERTEX
  8
0
 10
3.5695
 20
4.94586
 30
0.0
 40
0.0104167
 41
0.0104167
  0
VERTEX
  8
0
 10
3.4681
 20
4.94586
 30
0.0
 40
0.0104167
 41
0.0104167
  0
VERTEX
  8
0
 10
3.4681
 20
5.58843
 30
0.0
 40
0.0104167
 41
0.0104167
  0
SEQEND
 8
0
  0
POLYLINE
  8
0
 62
     7
 66
     1
 10
0
 20
0
 30
0.0
 70
     1
 40
0
 41
0
  0
VERTEX
  8
0
 10
3.4681
 20
5.58843
 30
0.0
 40
0
 41
0
  0
VERTEX
  8
0
 10
3.5695
 20
5.58843
 30
0.0
 40
0
 41
0
  0
VERTEX
  8
0
 10
3.5695
 20
4.94586
 30
0.0
 40
0
 41
0
  0
VERTEX
  8
0
 10
3.4681
 20
4.94586
 30
0.0
 40
0
 41
0
  0
VERTEX
  8
0
 10
3.4681
 20
5.58843
 30
0.0
 40
0
 41
0
  0
SEQEND
 8
0
  0
POLYLINE
  8
0
 62
     0
 66
     1
 10
0
 20
0
 30
0.0
 70
     1
 40
0.75
 41
0.75
  0
VERTEX
  8
0
 10
3.4681
 20
5.58843
 30
0.0
 40
0.0104167
 41
0.0104167
  0
VERTEX
  8
0
 10
3.5695
 20
5.58843
 30
0.0
 40
0.0104167
 41
0.0104167
  0
VERTEX
  8
0
 10
3.5695
 20
4.94586
 30
0.0
 40
0.0104167
 41
0.0104167
  0
VERTEX
  8
0
 10
3.4681
 20
4.94586
 30
0.0
 40
0.0104167
 41
0.0104167
  0
VERTEX
  8
0
 10
3.4681
 20
5.58843
 30
0.0
 40
0.0104167
 41
0.0104167
  0
SEQEND
 8
0
  0
POLYLINE
  8
0
 62
     0
 66
     1
 10
0
 20
0
 30
0.0
 70
     1
 40
0.75
 41
0.75
  0
VERTEX
  8
0
 10
3.5695
 20
5.58843
 30
0.0
 40
0.0104167
 41
0.0104167
  0
VERTEX
  8
0
 10
3.6071
 20
5.58843
 30
0.0
 40
0.0104167
 41
0.0104167
  0
VERTEX
  8
0
 10
3.72006
 20
5.5784
 30
0.0
 40
0.0104167
 41
0.0104167
  0
VERTEX
  8
0
 10
3.85058
 20
5.54829
 30
0.0
 40
0.0104167
 41
0.0104167
  0
VERTEX
  8
0
 10
3.96104
 20
5.4981
 30
0.0
 40
0.0104167
 41
0.0104167
  0
VERTEX
  8
0
 10
4.05143
 20
5.42779
 30
0.0
 40
0.0104167
 41
0.0104167
  0
VERTEX
  8
0
 10
4.12169
 20
5.33746
 30
0.0
 40
0.0104167
 41
0.0104167
  0
VERTEX
  8
0
 10
4.17188
 20
5.227
 30
0.0
 40
0.0104167
 41
0.0104167
  0
VERTEX
  8
0
 10
4.20199
 20
5.09646
 30
0.0
 40
0.0104167
 41
0.0104167
  0
VERTEX
  8
0
 10
4.21208
 20
4.98351
 30
0.0
 40
0.0104167
 41
0.0104167
  0
VERTEX
  8
0
 10
4.21208
 20
4.94586
 30
0.0
 40
0.0104167
 41
0.0104167
  0
VERTEX
  8
0
 10
3.5695
 20
4.94586
 30
0.0
 40
0.0104167
 41
0.0104167
  0
VERTEX
  8
0
 10
3.5695
 20
5.58843
 30
0.0
 40
0.0104167
 41
0.0104167
  0
SEQEND
 8
0
  0
POLYLINE
  8
0
 62
     7
 66
     1
 10
0
 20
0
 30
0.0
 70
     1
 40
0
 41
0
  0
VERTEX
  8
0
 10
3.4681
 20
7.66314
 30
0.0
 40
0
 41
0
  0
VERTEX
  8
0
 10
3.5695
 20
7.66314
 30
0.0
 40
0
 41
0
  0
VERTEX
  8
0
 10
3.5695
 20
7.01292
 30
0.0
 40
0
 41
0
  0
VERTEX
  8
0
 10
3.4681
 20
7.01292
 30
0.0
 40
0
 41
0
  0
VERTEX
  8
0
 10
3.4681
 20
7.66314
 30
0.0
 40
0
 41
0
  0
SEQEND
 8
0
  0
POLYLINE
  8
0
 62
     0
 66
     1
 10
0
 20
0
 30
0.0
 70
     1
 40
0.75
 41
0.75
  0
VERTEX
  8
0
 10
3.4681
 20
7.66314
 30
0.0
 40
0.0104167
 41
0.0104167
  0
VERTEX
  8
0
 10
3.5695
 20
7.66314
 30
0.0
 40
0.0104167
 41
0.0104167
  0
VERTEX
  8
0
 10
3.5695
 20
7.01292
 30
0.0
 40
0.0104167
 41
0.0104167
  0
VERTEX
  8
0
 10
3.4681
 20
7.01292
 30
0.0
 40
0.0104167
 41
0.0104167
  0
VERTEX
  8
0
 10
3.4681
 20
7.66314
 30
0.0
 40
0.0104167
 41
0.0104167
  0
SEQEND
 8
0
  0
POLYLINE
  8
0
 62
     7
 66
     1
 10
0
 20
0
 30
0.0
 70
     1
 40
0
 41
0
  0
VERTEX
  8
0
 10
3.4681
 20
7.66314
 30
0.0
 40
0
 41
0
  0
VERTEX
  8
0
 10
3.5695
 20
7.66314
 30
0.0
 40
0
 41
0
  0
VERTEX
  8
0
 10
3.5695
 20
7.01292
 30
0.0
 40
0
 41
0
  0
VERTEX
  8
0
 10
3.4681
 20
7.01292
 30
0.0
 40
0
 41
0
  0
VERTEX
  8
0
 10
3.4681
 20
7.66314
 30
0.0
 40
0
 41
0
  0
SEQEND
 8
0
  0
POLYLINE
  8
0
 62
     0
 66
     1
 10
0
 20
0
 30
0.0
 70
     1
 40
0.75
 41
0.75
  0
VERTEX
  8
0
 10
3.4681
 20
7.66314
 30
0.0
 40
0.0104167
 41
0.0104167
  0
VERTEX
  8
0
 10
3.5695
 20
7.66314
 30
0.0
 40
0.0104167
 41
0.0104167
  0
VERTEX
  8
0
 10
3.5695
 20
7.01292
 30
0.0
 40
0.0104167
 41
0.0104167
  0
VERTEX
  8
0
 10
3.4681
 20
7.01292
 30
0.0
 40
0.0104167
 41
0.0104167
  0
VERTEX
  8
0
 10
3.4681
 20
7.66314
 30
0.0
 40
0.0104167
 41
0.0104167
  0
SEQEND
 8
0
  0
POLYLINE
  8
0
 62
     0
 66
     1
 10
0
 20
0
 30
0.0
 70
     1
 40
0.75
 41
0.75
  0
VERTEX
  8
0
 10
3.5695
 20
7.66314
 30
0.0
 40
0.0104167
 41
0.0104167
  0
VERTEX
  8
0
 10
3.60758
 20
7.66314
 30
0.0
 40
0.0104167
 41
0.0104167
  0
VERTEX
  8
0
 10
3.72185
 20
7.653
 30
0.0
 40
0.0104167
 41
0.0104167
  0
VERTEX
  8
0
 10
3.85389
 20
7.6225
 30
0.0
 40
0.0104167
 41
0.0104167
  0
VERTEX
  8
0
 10
3.96565
 20
7.57172
 30
0.0
 40
0.0104167
 41
0.0104167
  0
VERTEX
  8
0
 10
4.05707
 20
7.5006
 30
0.0
 40
0.0104167
 41
0.0104167
  0
VERTEX
  8
0
 10
4.12819
 20
7.40918
 30
0.0
 40
0.0104167
 41
0.0104167
  0
VERTEX
  8
0
 10
4.17899
 20
7.29742
 30
0.0
 40
0.0104167
 41
0.0104167
  0
VERTEX
  8
0
 10
4.20947
 20
7.16531
 30
0.0
 40
0.0104167
 41
0.0104167
  0
VERTEX
  8
0
 10
4.21967
 20
7.05106
 30
0.0
 40
0.0104167
 41
0.0104167
  0
VERTEX
  8
0
 10
4.21967
 20
7.01292
 30
0.0
 40
0.0104167
 41
0.0104167
  0
VERTEX
  8
0
 10
3.5695
 20
7.01292
 30
0.0
 40
0.0104167
 41
0.0104167
  0
VERTEX
  8
0
 10
3.5695
 20
7.66314
 30
0.0
 40
0.0104167
 41
0.0104167
  0
SEQEND
 8
0
  0
POLYLINE
  8
0
 62
     7
 66
     1
 10
0
 20
0
 30
0.0
 70
     1
 40
0
 41
0
  0
VERTEX
  8
0
 10
3.4681
 20
8.75261
 30
0.0
 40
0
 41
0
  0
VERTEX
  8
0
 10
3.5695
 20
8.75261
 30
0.0
 40
0
 41
0
  0
VERTEX
  8
0
 10
3.5695
 20
7.90603
 30
0.0
 40
0
 41
0
  0
VERTEX
  8
0
 10
3.4681
 20
7.90603
 30
0.0
 40
0
 41
0
  0
VERTEX
  8
0
 10
3.4681
 20
8.75261
 30
0.0
 40
0
 41
0
  0
SEQEND
 8
0
  0
POLYLINE
  8
0
 62
     0
 66
     1
 10
0
 20
0
 30
0.0
 70
     1
 40
0.75
 41
0.75
  0
VERTEX
  8
0
 10
3.4681
 20
8.75261
 30
0.0
 40
0.0104167
 41
0.0104167
  0
VERTEX
  8
0
 10
3.5695
 20
8.75261
 30
0.0
 40
0.0104167
 41
0.0104167
  0
VERTEX
  8
0
 10
3.5695
 20
7.90603
 30
0.0
 40
0.0104167
 41
0.0104167
  0
VERTEX
  8
0
 10
3.4681
 20
7.90603
 30
0.0
 40
0.0104167
 41
0.0104167
  0
VERTEX
  8
0
 10
3.4681
 20
8.75261
 30
0.0
 40
0.0104167
 41
0.0104167
  0
SEQEND
 8
0
  0
POLYLINE
  8
0
 62
     7
 66
     1
 10
0
 20
0
 30
0.0
 70
     1
 40
0
 41
0
  0
VERTEX
  8
0
 10
3.4681
 20
8.75261
 30
0.0
 40
0
 41
0
  0
VERTEX
  8
0
 10
3.5695
 20
8.75261
 30
0.0
 40
0
 41
0
  0
VERTEX
  8
0
 10
3.5695
 20
7.90603
 30
0.0
 40
0
 41
0
  0
VERTEX
  8
0
 10
3.4681
 20
7.90603
 30
0.0
 40
0
 41
0
  0
VERTEX
  8
0
 10
3.4681
 20
8.75261
 30
0.0
 40
0
 41
0
  0
SEQEND
 8
0
  0
POLYLINE
  8
0
 62
     0
 66
     1
 10
0
 20
0
 30
0.0
 70
     1
 40
0.75
 41
0.75
  0
VERTEX
  8
0
 10
3.4681
 20
8.75261
 30
0.0
 40
0.0104167
 41
0.0104167
  0
VERTEX
  8
0
 10
3.5695
 20
8.75261
 30
0.0
 40
0.0104167
 41
0.0104167
  0
VERTEX
  8
0
 10
3.5695
 20
7.90603
 30
0.0
 40
0.0104167
 41
0.0104167
  0
VERTEX
  8
0
 10
3.4681
 20
7.90603
 30
0.0
 40
0.0104167
 41
0.0104167
  0
VERTEX
  8
0
 10
3.4681
 20
8.75261
 30
0.0
 40
0.0104167
 41
0.0104167
  0
SEQEND
 8
0
  0
POLYLINE
  8
0
 62
     0
 66
     1
 10
0
 20
0
 30
0.0
 70
     1
 40
0.75
 41
0.75
  0
VERTEX
  8
0
 10
3.4681
 20
8.75261
 30
0.0
 40
0.0104167
 41
0.0104167
  0
VERTEX
  8
0
 10
3.41846
 20
8.75261
 30
0.0
 40
0.0104167
 41
0.0104167
  0
VERTEX
  8
0
 10
3.26969
 20
8.73942
 30
0.0
 40
0.0104167
 41
0.0104167
  0
VERTEX
  8
0
 10
3.09771
 20
8.69971
 30
0.0
 40
0.0104167
 41
0.0104167
  0
VERTEX
  8
0
 10
2.95221
 20
8.63357
 30
0.0
 40
0.0104167
 41
0.0104167
  0
VERTEX
  8
0
 10
2.83317
 20
8.54101
 30
0.0
 40
0.0104167
 41
0.0104167
  0
VERTEX
  8
0
 10
2.74061
 20
8.42193
 30
0.0
 40
0.0104167
 41
0.0104167
  0
VERTEX
  8
0
 10
2.67449
 20
8.27642
 30
0.0
 40
0.0104167
 41
0.0104167
  0
VERTEX
  8
0
 10
2.63476
 20
8.10449
 30
0.0
 40
0.0104167
 41
0.0104167
  0
VERTEX
  8
0
 10
2.62158
 20
7.95568
 30
0.0
 40
0.0104167
 41
0.0104167
  0
VERTEX
  8
0
 10
2.62158
 20
7.90603
 30
0.0
 40
0.0104167
 41
0.0104167
  0
VERTEX
  8
0
 10
3.4681
 20
7.90603
 30
0.0
 40
0.0104167
 41
0.0104167
  0
VERTEX
  8
0
 10
3.4681
 20
8.75261
 30
0.0
 40
0.0104167
 41
0.0104167
  0
SEQEND
 8
0
  0
POLYLINE
  8
0
 62
     0
 66
     1
 10
0
 20
0
 30
0.0
 70
     1
 40
0
 41
0
  0
VERTEX
  8
0
 10
0.215494
 20
6.11914
 30
0.0
 40
0
 41
0
  0
VERTEX
  8
0
 10
3.5695
 20
6.11914
 30
0.0
 40
0
 41
0
  0
VERTEX
  8
0
 10
3.5695
 20
6.00456
 30
0.0
 40
0
 41
0
  0
VERTEX
  8
0
 10
0.215494
 20
6.00456
 30
0.0
 40
0
 41
0
  0
VERTEX
  8
0
 10
0.215494
 20
6.11914
 30
0.0
 40
0
 41
0
  0
SEQEND
 8
0
  0
POLYLINE
  8
0
 62
     0
 66
     1
 10
0
 20
0
 30
0.0
 70
     1
 40
0.15
 41
0.15
  0
VERTEX
  8
0
 10
0.215494
 20
6.11914
 30
0.0
 40
0.00208333
 41
0.00208333
  0
VERTEX
  8
0
 10
3.5695
 20
6.11914
 30
0.0
 40
0.00208333
 41
0.00208333
  0
VERTEX
  8
0
 10
3.5695
 20
6.00456
 30
0.0
 40
0.00208333
 41
0.00208333
  0
VERTEX
  8
0
 10
0.215494
 20
6.00456
 30
0.0
 40
0.00208333
 41
0.00208333
  0
VERTEX
  8
0
 10
0.215494
 20
6.11914
 30
0.0
 40
0.00208333
 41
0.00208333
  0
SEQEND
 8
0
  0
POLYLINE
  8
0
 62
     0
 66
     1
 10
0
 20
0
 30
0.0
 70
     1
 40
0
 41
0
  0
VERTEX
  8
0
 10
0.215494
 20
7.87332
 30
0.0
 40
0
 41
0
  0
VERTEX
  8
0
 10
3.5695
 20
7.87332
 30
0.0
 40
0
 41
0
  0
VERTEX
  8
0
 10
3.5695
 20
7.69
 30
0.0
 40
0
 41
0
  0
VERTEX
  8
0
 10
0.215494
 20
7.69
 30
0.0
 40
0
 41
0
  0
VERTEX
  8
0
 10
0.215494
 20
7.87332
 30
0.0
 40
0
 41
0
  0
SEQEND
 8
0
  0
POLYLINE
  8
0
 62
     0
 66
     1
 10
0
 20
0
 30
0.0
 70
     1
 40
0.15
 41
0.15
  0
VERTEX
  8
0
 10
0.215494
 20
7.87332
 30
0.0
 40
0.00208333
 41
0.00208333
  0
VERTEX
  8
0
 10
3.5695
 20
7.87332
 30
0.0
 40
0.00208333
 41
0.00208333
  0
VERTEX
  8
0
 10
3.5695
 20
7.69
 30
0.0
 40
0.00208333
 41
0.00208333
  0
VERTEX
  8
0
 10
0.215494
 20
7.69
 30
0.0
 40
0.00208333
 41
0.00208333
  0
VERTEX
  8
0
 10
0.215494
 20
7.87332
 30
0.0
 40
0.00208333
 41
0.00208333
  0
SEQEND
 8
0
  0
POLYLINE
  8
0
 62
     0
 66
     1
 10
0
 20
0
 30
0.0
 70
     1
 40
0
 41
0
  0
VERTEX
  8
0
 10
3.4681
 20
9.21918
 30
0.0
 40
0
 41
0
  0
VERTEX
  8
0
 10
7.88396
 20
9.21918
 30
0.0
 40
0
 41
0
  0
VERTEX
  8
0
 10
7.88396
 20
9.06293
 30
0.0
 40
0
 41
0
  0
VERTEX
  8
0
 10
3.4681
 20
9.06293
 30
0.0
 40
0
 41
0
  0
VERTEX
  8
0
 10
3.4681
 20
9.21918
 30
0.0
 40
0
 41
0
  0
SEQEND
 8
0
  0
POLYLINE
  8
0
 62
     0
 66
     1
 10
0
 20
0
 30
0.0
 70
     1
 40
0.15
 41
0.15
  0
VERTEX
  8
0
 10
3.4681
 20
9.21918
 30
0.0
 40
0.00208333
 41
0.00208333
  0
VERTEX
  8
0
 10
7.88396
 20
9.21918
 30
0.0
 40
0.00208333
 41
0.00208333
  0
VERTEX
  8
0
 10
7.88396
 20
9.06293
 30
0.0
 40
0.00208333
 41
0.00208333
  0
VERTEX
  8
0
 10
3.4681
 20
9.06293
 30
0.0
 40
0.00208333
 41
0.00208333
  0
VERTEX
  8
0
 10
3.4681
 20
9.21918
 30
0.0
 40
0.00208333
 41
0.00208333
  0
SEQEND
 8
0
  0
POLYLINE
  8
0
 62
     7
 66
     1
 10
0
 20
0
 30
0.0
 70
     1
 40
0
 41
0
  0
VERTEX
  8
0
 10
4.3246
 20
9.21918
 30
0.0
 40
0
 41
0
  0
VERTEX
  8
0
 10
5.0975
 20
9.21918
 30
0.0
 40
0
 41
0
  0
VERTEX
  8
0
 10
5.0975
 20
9.06293
 30
0.0
 40
0
 41
0
  0
VERTEX
  8
0
 10
4.3246
 20
9.06293
 30
0.0
 40
0
 41
0
  0
VERTEX
  8
0
 10
4.3246
 20
9.21918
 30
0.0
 40
0
 41
0
  0
SEQEND
 8
0
  0
POLYLINE
  8
0
 62
     0
 66
     1
 10
0
 20
0
 30
0.0
 70
     1
 40
0.75
 41
0.75
  0
VERTEX
  8
0
 10
4.3246
 20
9.21918
 30
0.0
 40
0.0104167
 41
0.0104167
  0
VERTEX
  8
0
 10
5.0975
 20
9.21918
 30
0.0
 40
0.0104167
 41
0.0104167
  0
VERTEX
  8
0
 10
5.0975
 20
9.06293
 30
0.0
 40
0.0104167
 41
0.0104167
  0
VERTEX
  8
0
 10
4.3246
 20
9.06293
 30
0.0
 40
0.0104167
 41
0.0104167
  0
VERTEX
  8
0
 10
4.3246
 20
9.21918
 30
0.0
 40
0.0104167
 41
0.0104167
  0
SEQEND
 8
0
  0
POLYLINE
  8
0
 62
     7
 66
     1
 10
0
 20
0
 30
0.0
 70
     1
 40
0
 41
0
  0
VERTEX
  8
0
 10
4.3246
 20
9.21918
 30
0.0
 40
0
 41
0
  0
VERTEX
  8
0
 10
5.0975
 20
9.21918
 30
0.0
 40
0
 41
0
  0
VERTEX
  8
0
 10
5.0975
 20
9.06293
 30
0.0
 40
0
 41
0
  0
VERTEX
  8
0
 10
4.3246
 20
9.06293
 30
0.0
 40
0
 41
0
  0
VERTEX
  8
0
 10
4.3246
 20
9.21918
 30
0.0
 40
0
 41
0
  0
SEQEND
 8
0
  0
POLYLINE
  8
0
 62
     0
 66
     1
 10
0
 20
0
 30
0.0
 70
     1
 40
0.75
 41
0.75
  0
VERTEX
  8
0
 10
4.3246
 20
9.21918
 30
0.0
 40
0.0104167
 41
0.0104167
  0
VERTEX
  8
0
 10
5.0975
 20
9.21918
 30
0.0
 40
0.0104167
 41
0.0104167
  0
VERTEX
  8
0
 10
5.0975
 20
9.06293
 30
0.0
 40
0.0104167
 41
0.0104167
  0
VERTEX
  8
0
 10
4.3246
 20
9.06293
 30
0.0
 40
0.0104167
 41
0.0104167
  0
VERTEX
  8
0
 10
4.3246
 20
9.21918
 30
0.0
 40
0.0104167
 41
0.0104167
  0
SEQEND
 8
0
  0
POLYLINE
  8
0
 62
     0
 66
     1
 10
0
 20
0
 30
0.0
 70
     1
 40
0.75
 41
0.75
  0
VERTEX
  8
0
 10
5.0975
 20
9.06293
 30
0.0
 40
0.0104167
 41
0.0104167
  0
VERTEX
  8
0
 10
5.0975
 20
9.01768
 30
0.0
 40
0.0104167
 41
0.0104167
  0
VERTEX
  8
0
 10
5.08539
 20
8.88178
 30
0.0
 40
0.0104167
 41
0.0104167
  0
VERTEX
  8
0
 10
5.04915
 20
8.72478
 30
0.0
 40
0.0104167
 41
0.0104167
  0
VERTEX
  8
0
 10
4.98876
 20
8.59196
 30
0.0
 40
0.0104167
 41
0.0104167
  0
VERTEX
  8
0
 10
4.90424
 20
8.48324
 30
0.0
 40
0.0104167
 41
0.0104167
  0
VERTEX
  8
0
 10
4.79557
 20
8.39871
 30
0.0
 40
0.0104167
 41
0.0104167
  0
VERTEX
  8
0
 10
4.66271
 20
8.33832
 30
0.0
 40
0.0104167
 41
0.0104167
  0
VERTEX
  8
0
 10
4.50569
 20
8.30208
 30
0.0
 40
0.0104167
 41
0.0104167
  0
VERTEX
  8
0
 10
4.36985
 20
8.28999
 30
0.0
 40
0.0104167
 41
0.0104167
  0
VERTEX
  8
0
 10
4.3246
 20
8.28999
 30
0.0
 40
0.0104167
 41
0.0104167
  0
VERTEX
  8
0
 10
4.3246
 20
9.06293
 30
0.0
 40
0.0104167
 41
0.0104167
  0
VERTEX
  8
0
 10
5.0975
 20
9.06293
 30
0.0
 40
0.0104167
 41
0.0104167
  0
SEQEND
 8
0
  0
POLYLINE
  8
0
 62
     0
 66
     1
 10
0
 20
0
 30
0.0
 70
     1
 40
0
 41
0
  0
VERTEX
  8
0
 10
13.6713
 20
7.86908
 30
0.0
 40
0
 41
0
  0
VERTEX
  8
0
 10
15.226
 20
7.86908
 30
0.0
 40
0
 41
0
  0
VERTEX
  8
0
 10
15.226
 20
7.692
 30
0.0
 40
0
 41
0
  0
VERTEX
  8
0
 10
13.6713
 20
7.692
 30
0.0
 40
0
 41
0
  0
VERTEX
  8
0
 10
13.6713
 20
7.86908
 30
0.0
 40
0
 41
0
  0
SEQEND
 8
0
  0
POLYLINE
  8
0
 62
     0
 66
     1
 10
0
 20
0
 30
0.0
 70
     1
 40
0.15
 41
0.15
  0
VERTEX
  8
0
 10
13.6713
 20
7.86908
 30
0.0
 40
0.00208333
 41
0.00208333
  0
VERTEX
  8
0
 10
15.226
 20
7.86908
 30
0.0
 40
0.00208333
 41
0.00208333
  0
VERTEX
  8
0
 10
15.226
 20
7.692
 30
0.0
 40
0.00208333
 41
0.00208333
  0
VERTEX
  8
0
 10
13.6713
 20
7.692
 30
0.0
 40
0.00208333
 41
0.00208333
  0
VERTEX
  8
0
 10
13.6713
 20
7.86908
 30
0.0
 40
0.00208333
 41
0.00208333
  0
SEQEND
 8
0
  0
POLYLINE
  8
0
 62
     0
 66
     1
 10
0
 20
0
 30
0.0
 70
     1
 40
0
 41
0
  0
VERTEX
  8
0
 10
13.6713
 20
12.3715
 30
0.0
 40
0
 41
0
  0
VERTEX
  8
0
 10
15.226
 20
12.3715
 30
0.0
 40
0
 41
0
  0
VERTEX
  8
0
 10
15.226
 20
12.0069
 30
0.0
 40
0
 41
0
  0
VERTEX
  8
0
 10
13.6713
 20
12.0069
 30
0.0
 40
0
 41
0
  0
VERTEX
  8
0
 10
13.6713
 20
12.3715
 30
0.0
 40
0
 41
0
  0
SEQEND
 8
0
  0
POLYLINE
  8
0
 62
     0
 66
     1
 10
0
 20
0
 30
0.0
 70
     1
 40
0.15
 41
0.15
  0
VERTEX
  8
0
 10
13.6713
 20
12.3715
 30
0.0
 40
0.00208333
 41
0.00208333
  0
VERTEX
  8
0
 10
15.226
 20
12.3715
 30
0.0
 40
0.00208333
 41
0.00208333
  0
VERTEX
  8
0
 10
15.226
 20
12.0069
 30
0.0
 40
0.00208333
 41
0.00208333
  0
VERTEX
  8
0
 10
13.6713
 20
12.0069
 30
0.0
 40
0.00208333
 41
0.00208333
  0
VERTEX
  8
0
 10
13.6713
 20
12.3715
 30
0.0
 40
0.00208333
 41
0.00208333
  0
SEQEND
 8
0
  0
POLYLINE
  8
0
 62
     7
 66
     1
 10
0
 20
0
 30
0.0
 70
     1
 40
0
 41
0
  0
VERTEX
  8
0
 10
15.226
 20
12.1704
 30
0.0
 40
0
 41
0
  0
VERTEX
  8
0
 10
15.3093
 20
12.1704
 30
0.0
 40
0
 41
0
  0
VERTEX
  8
0
 10
15.3093
 20
7.692
 30
0.0
 40
0
 41
0
  0
VERTEX
  8
0
 10
15.226
 20
7.692
 30
0.0
 40
0
 41
0
  0
VERTEX
  8
0
 10
15.226
 20
12.1704
 30
0.0
 40
0
 41
0
  0
SEQEND
 8
0
  0
POLYLINE
  8
0
 62
     0
 66
     1
 10
0
 20
0
 30
0.0
 70
     1
 40
0.15
 41
0.15
  0
VERTEX
  8
0
 10
15.226
 20
12.1704
 30
0.0
 40
0.00208333
 41
0.00208333
  0
VERTEX
  8
0
 10
15.3093
 20
12.1704
 30
0.0
 40
0.00208333
 41
0.00208333
  0
VERTEX
  8
0
 10
15.3093
 20
7.692
 30
0.0
 40
0.00208333
 41
0.00208333
  0
VERTEX
  8
0
 10
15.226
 20
7.692
 30
0.0
 40
0.00208333
 41
0.00208333
  0
VERTEX
  8
0
 10
15.226
 20
12.1704
 30
0.0
 40
0.00208333
 41
0.00208333
  0
SEQEND
 8
0
  0
POLYLINE
  8
0
 62
     0
 66
     1
 10
0
 20
0
 30
0.0
 70
     1
 40
0
 41
0
  0
VERTEX
  8
0
 10
3.56976
 20
12.0069
 30
0.0
 40
0
 41
0
  0
VERTEX
  8
0
 10
4.19586
 20
12.0069
 30
0.0
 40
0
 41
0
  0
VERTEX
  8
0
 10
4.19586
 20
11.7891
 30
0.0
 40
0
 41
0
  0
VERTEX
  8
0
 10
3.56976
 20
11.7891
 30
0.0
 40
0
 41
0
  0
VERTEX
  8
0
 10
3.56976
 20
12.0069
 30
0.0
 40
0
 41
0
  0
SEQEND
 8
0
  0
POLYLINE
  8
0
 62
     0
 66
     1
 10
0
 20
0
 30
0.0
 70
     1
 40
0.15
 41
0.15
  0
VERTEX
  8
0
 10
3.56976
 20
12.0069
 30
0.0
 40
0.00208333
 41
0.00208333
  0
VERTEX
  8
0
 10
4.19586
 20
12.0069
 30
0.0
 40
0.00208333
 41
0.00208333
  0
VERTEX
  8
0
 10
4.19586
 20
11.7891
 30
0.0
 40
0.00208333
 41
0.00208333
  0
VERTEX
  8
0
 10
3.56976
 20
11.7891
 30
0.0
 40
0.00208333
 41
0.00208333
  0
VERTEX
  8
0
 10
3.56976
 20
12.0069
 30
0.0
 40
0.00208333
 41
0.00208333
  0
SEQEND
 8
0
  0
POLYLINE
  8
0
 62
     0
 66
     1
 10
0
 20
0
 30
0.0
 70
     1
 40
0
 41
0
  0
VERTEX
  8
0
 10
0.465494
 20
6.00456
 30
0.0
 40
0
 41
0
  0
VERTEX
  8
0
 10
1.41092
 20
6.00456
 30
0.0
 40
0
 41
0
  0
VERTEX
  8
0
 10
1.41092
 20
5.68321
 30
0.0
 40
0
 41
0
  0
VERTEX
  8
0
 10
0.465494
 20
5.68321
 30
0.0
 40
0
 41
0
  0
VERTEX
  8
0
 10
0.465494
 20
6.00456
 30
0.0
 40
0
 41
0
  0
SEQEND
 8
0
  0
POLYLINE
  8
0
 62
     0
 66
     1
 10
0
 20
0
 30
0.0
 70
     1
 40
0.15
 41
0.15
  0
VERTEX
  8
0
 10
0.465494
 20
6.00456
 30
0.0
 40
0.00208333
 41
0.00208333
  0
VERTEX
  8
0
 10
1.41092
 20
6.00456
 30
0.0
 40
0.00208333
 41
0.00208333
  0
VERTEX
  8
0
 10
1.41092
 20
5.68321
 30
0.0
 40
0.00208333
 41
0.00208333
  0
VERTEX
  8
0
 10
0.465494
 20
5.68321
 30
0.0
 40
0.00208333
 41
0.00208333
  0
VERTEX
  8
0
 10
0.465494
 20
6.00456
 30
0.0
 40
0.00208333
 41
0.00208333
  0
SEQEND
 8
0
  0
POLYLINE
  8
0
 62
     7
 66
     1
 10
0
 20
0
 30
0.0
 70
     1
 40
0
 41
0
  0
VERTEX
  8
0
 10
0.465494
 20
0.847765
 30
0.0
 40
0
 41
0
  0
VERTEX
  8
0
 10
2.56717
 20
0.847765
 30
0.0
 40
0
 41
0
  0
VERTEX
  8
0
 10
2.56717
 20
0.192654
 30
0.0
 40
0
 41
0
  0
VERTEX
  8
0
 10
0.465494
 20
0.192654
 30
0.0
 40
0
 41
0
  0
VERTEX
  8
0
 10
0.465494
 20
0.847765
 30
0.0
 40
0
 41
0
  0
SEQEND
 8
0
  0
POLYLINE
  8
0
 62
     0
 66
     1
 10
0
 20
0
 30
0.0
 70
     1
 40
0.75
 41
0.75
  0
VERTEX
  8
0
 10
0.465494
 20
0.847765
 30
0.0
 40
0.0104167
 41
0.0104167
  0
VERTEX
  8
0
 10
2.56717
 20
0.847765
 30
0.0
 40
0.0104167
 41
0.0104167
  0
VERTEX
  8
0
 10
2.56717
 20
0.192654
 30
0.0
 40
0.0104167
 41
0.0104167
  0
VERTEX
  8
0
 10
0.465494
 20
0.192654
 30
0.0
 40
0.0104167
 41
0.0104167
  0
VERTEX
  8
0
 10
0.465494
 20
0.847765
 30
0.0
 40
0.0104167
 41
0.0104167
  0
SEQEND
 8
0
  0
POLYLINE
  8
0
 62
     253
 66
     1
 10
0
 20
0
 30
0.0
 40
0.75
 41
0.75
  0
VERTEX
  8
0
 10
2.56717
 20
0.520236
 30
0.0
 40
0.0104167
 41
0.0104167
  0
VERTEX
  8
0
 10
0.465494
 20
0.520236
 30
0.0
 40
0.0104167
 41
0.0104167
  0
SEQEND
 8
0
  0
POLYLINE
  8
0
 62
     7
 66
     1
 10
0
 20
0
 30
0.0
 70
     1
 40
0
 41
0
  0
VERTEX
  8
0
 10
0.466146
 20
1.46903
 30
0.0
 40
0
 41
0
  0
VERTEX
  8
0
 10
0.989367
 20
1.46903
 30
0.0
 40
0
 41
0
  0
VERTEX
  8
0
 10
0.989367
 20
0.847819
 30
0.0
 40
0
 41
0
  0
VERTEX
  8
0
 10
0.466146
 20
0.847819
 30
0.0
 40
0
 41
0
  0
VERTEX
  8
0
 10
0.466146
 20
1.46903
 30
0.0
 40
0
 41
0
  0
SEQEND
 8
0
  0
POLYLINE
  8
0
 62
     0
 66
     1
 10
0
 20
0
 30
0.0
 70
     1
 40
0.75
 41
0.75
  0
VERTEX
  8
0
 10
0.466146
 20
1.46903
 30
0.0
 40
0.0104167
 41
0.0104167
  0
VERTEX
  8
0
 10
0.466146
 20
0.847819
 30
0.0
 40
0.0104167
 41
0.0104167
  0
VERTEX
  8
0
 10
0.989367
 20
0.847819
 30
0.0
 40
0.0104167
 41
0.0104167
  0
VERTEX
  8
0
 10
0.989367
 20
1.46903
 30
0.0
 40
0.0104167
 41
0.0104167
  0
VERTEX
  8
0
 10
0.466146
 20
1.46903
 30
0.0
 40
0.0104167
 41
0.0104167
  0
SEQEND
 8
0
  0
POLYLINE
  8
0
 62
     7
 66
     1
 10
0
 20
0
 30
0.0
 70
     1
 40
0
 41
0
  0
VERTEX
  8
0
 10
2.04465
 20
1.46604
 30
0.0
 40
0
 41
0
  0
VERTEX
  8
0
 10
2.56787
 20
1.46604
 30
0.0
 40
0
 41
0
  0
VERTEX
  8
0
 10
2.56787
 20
0.849935
 30
0.0
 40
0
 41
0
  0
VERTEX
  8
0
 10
2.04465
 20
0.849935
 30
0.0
 40
0
 41
0
  0
VERTEX
  8
0
 10
2.04465
 20
1.46604
 30
0.0
 40
0
 41
0
  0
SEQEND
 8
0
  0
POLYLINE
  8
0
 62
     0
 66
     1
 10
0
 20
0
 30
0.0
 70
     1
 40
0.75
 41
0.75
  0
VERTEX
  8
0
 10
2.04465
 20
1.46604
 30
0.0
 40
0.0104167
 41
0.0104167
  0
VERTEX
  8
0
 10
2.04465
 20
0.849935
 30
0.0
 40
0.0104167
 41
0.0104167
  0
VERTEX
  8
0
 10
2.56787
 20
0.849935
 30
0.0
 40
0.0104167
 41
0.0104167
  0
VERTEX
  8
0
 10
2.56787
 20
1.46604
 30
0.0
 40
0.0104167
 41
0.0104167
  0
VERTEX
  8
0
 10
2.04465
 20
1.46604
 30
0.0
 40
0.0104167
 41
0.0104167
  0
SEQEND
 8
0
  0
POLYLINE
  8
0
 62
     7
 66
     1
 10
0
 20
0
 30
0.0
 70
     1
 40
0
 41
0
  0
VERTEX
  8
0
 10
0.57601
 20
5.43039
 30
0.0
 40
0
 41
0
  0
VERTEX
  8
0
 10
1.20101
 20
5.43039
 30
0.0
 40
0
 41
0
  0
VERTEX
  8
0
 10
1.20101
 20
4.97353
 30
0.0
 40
0
 41
0
  0
VERTEX
  8
0
 10
0.57601
 20
4.97353
 30
0.0
 40
0
 41
0
  0
VERTEX
  8
0
 10
0.57601
 20
5.43039
 30
0.0
 40
0
 41
0
  0
SEQEND
 8
0
  0
POLYLINE
  8
0
 62
     0
 66
     1
 10
0
 20
0
 30
0.0
 70
     1
 40
0.54825
 41
0.54825
  0
VERTEX
  8
0
 10
0.57601
 20
5.43039
 30
0.0
 40
0.00761458
 41
0.00761458
  0
VERTEX
  8
0
 10
0.57601
 20
4.97353
 30
0.0
 40
0.00761458
 41
0.00761458
  0
VERTEX
  8
0
 10
1.20101
 20
4.97353
 30
0.0
 40
0.00761458
 41
0.00761458
  0
VERTEX
  8
0
 10
1.20101
 20
5.43039
 30
0.0
 40
0.00761458
 41
0.00761458
  0
VERTEX
  8
0
 10
0.57601
 20
5.43039
 30
0.0
 40
0.00761458
 41
0.00761458
  0
SEQEND
 8
0
  0
POLYLINE
  8
0
 62
     0
 66
     1
 10
0
 20
0
 30
0.0
 40
0.54825
 41
0.54825
  0
VERTEX
  8
0
 10
0.57601
 20
4.97353
 30
0.0
 40
0.00761458
 41
0.00761458
  0
VERTEX
  8
0
 10
1.00309
 20
5.20193
 30
0.0
 40
0.00761458
 41
0.00761458
  0
VERTEX
  8
0
 10
0.792643
 20
5.20193
 30
0.0
 40
0.00761458
 41
0.00761458
  0
VERTEX
  8
0
 10
1.20101
 20
5.43039
 30
0.0
 40
0.00761458
 41
0.00761458
  0
SEQEND
 8
0
  0
POLYLINE
  8
0
 62
     0
 66
     1
 10
0
 20
0
 30
0.0
 40
0.54825
 41
0.54825
  0
VERTEX
  8
0
 10
1.19477
 20
4.99408
 30
0.0
 40
0.00761458
 41
0.00761458
  0
VERTEX
  8
0
 10
1.19477
 20
5.40983
 30
0.0
 40
0.00761458
 41
0.00761458
  0
SEQEND
 8
0
  0
POLYLINE
  8
0
 62
     7
 66
     1
 10
0
 20
0
 30
0.0
 70
     1
 40
0
 41
0
  0
VERTEX
  8
0
 10
1.60633
 20
5.99935
 30
0.0
 40
0
 41
0
  0
VERTEX
  8
0
 10
2.02289
 20
5.99935
 30
0.0
 40
0
 41
0
  0
VERTEX
  8
0
 10
2.02289
 20
5.81201
 30
0.0
 40
0
 41
0
  0
VERTEX
  8
0
 10
1.60633
 20
5.81201
 30
0.0
 40
0
 41
0
  0
VERTEX
  8
0
 10
1.60633
 20
5.99935
 30
0.0
 40
0
 41
0
  0
SEQEND
 8
0
  0
POLYLINE
  8
0
 62
     0
 66
     1
 10
0
 20
0
 30
0.0
 70
     1
 40
0.75
 41
0.75
  0
VERTEX
  8
0
 10
1.60633
 20
5.99935
 30
0.0
 40
0.0104167
 41
0.0104167
  0
VERTEX
  8
0
 10
2.02289
 20
5.99935
 30
0.0
 40
0.0104167
 41
0.0104167
  0
VERTEX
  8
0
 10
2.02289
 20
5.81201
 30
0.0
 40
0.0104167
 41
0.0104167
  0
VERTEX
  8
0
 10
1.60633
 20
5.81201
 30
0.0
 40
0.0104167
 41
0.0104167
  0
VERTEX
  8
0
 10
1.60633
 20
5.99935
 30
0.0
 40
0.0104167
 41
0.0104167
  0
SEQEND
 8
0
  0
POLYLINE
  8
0
 62
     7
 66
     1
 10
0
 20
0
 30
0.0
 70
     1
 40
0
 41
0
  0
VERTEX
  8
0
 10
2.02289
 20
5.54372
 30
0.0
 40
0
 41
0
  0
VERTEX
  8
0
 10
2.02289
 20
5.54372
 30
0.0
 40
0
 41
0
  0
VERTEX
  8
0
 10
2.02294
 20
5.53201
 30
0.0
 40
0
 41
0
  0
VERTEX
  8
0
 10
2.02132
 20
5.50103
 30
0.0
 40
0
 41
0
  0
VERTEX
  8
0
 10
2.01519
 20
5.45719
 30
0.0
 40
0
 41
0
  0
VERTEX
  8
0
 10
2.00179
 20
5.40696
 30
0.0
 40
0
 41
0
  0
VERTEX
  8
0
 10
1.97825
 20
5.35678
 30
0.0
 40
0
 41
0
  0
VERTEX
  8
0
 10
1.94179
 20
5.31293
 30
0.0
 40
0
 41
0
  0
VERTEX
  8
0
 10
1.8896
 20
5.28196
 30
0.0
 40
0
 41
0
  0
VERTEX
  8
0
 10
1.83653
 20
5.27018
 30
0.0
 40
0
 41
0
  0
VERTEX
  8
0
 10
1.8189
 20
5.27018
 30
0.0
 40
0
 41
0
  0
VERTEX
  8
0
 10
1.80057
 20
5.27018
 30
0.0
 40
0
 41
0
  0
VERTEX
  8
0
 10
1.74571
 20
5.28196
 30
0.0
 40
0
 41
0
  0
VERTEX
  8
0
 10
1.69162
 20
5.31293
 30
0.0
 40
0
 41
0
  0
VERTEX
  8
0
 10
1.65381
 20
5.35678
 30
0.0
 40
0
 41
0
  0
VERTEX
  8
0
 10
1.62939
 20
5.40696
 30
0.0
 40
0
 41
0
  0
VERTEX
  8
0
 10
1.6154
 20
5.45719
 30
0.0
 40
0
 41
0
  0
VERTEX
  8
0
 10
1.609
 20
5.50103
 30
0.0
 40
0
 41
0
  0
VERTEX
  8
0
 10
1.60726
 20
5.53201
 30
0.0
 40
0
 41
0
  0
VERTEX
  8
0
 10
1.60736
 20
5.54372
 30
0.0
 40
0
 41
0
  0
VERTEX
  8
0
 10
1.60736
 20
5.54372
 30
0.0
 40
0
 41
0
  0
VERTEX
  8
0
 10
1.60633
 20
5.81201
 30
0.0
 40
0
 41
0
  0
VERTEX
  8
0
 10
2.02289
 20
5.81201
 30
0.0
 40
0
 41
0
  0
VERTEX
  8
0
 10
2.02289
 20
5.54372
 30
0.0
 40
0
 41
0
  0
SEQEND
 8
0
  0
POLYLINE
  8
0
 62
     0
 66
     1
 10
0
 20
0
 30
0.0
 70
     1
 40
0.75
 41
0.75
  0
VERTEX
  8
0
 10
2.02289
 20
5.54372
 30
0.0
 40
0.0104167
 41
0.0104167
  0
VERTEX
  8
0
 10
2.02289
 20
5.54372
 30
0.0
 40
0.0104167
 41
0.0104167
  0
VERTEX
  8
0
 10
2.02294
 20
5.53201
 30
0.0
 40
0.0104167
 41
0.0104167
  0
VERTEX
  8
0
 10
2.02132
 20
5.50103
 30
0.0
 40
0.0104167
 41
0.0104167
  0
VERTEX
  8
0
 10
2.01519
 20
5.45719
 30
0.0
 40
0.0104167
 41
0.0104167
  0
VERTEX
  8
0
 10
2.00179
 20
5.40696
 30
0.0
 40
0.0104167
 41
0.0104167
  0
VERTEX
  8
0
 10
1.97825
 20
5.35678
 30
0.0
 40
0.0104167
 41
0.0104167
  0
VERTEX
  8
0
 10
1.94179
 20
5.31293
 30
0.0
 40
0.0104167
 41
0.0104167
  0
VERTEX
  8
0
 10
1.8896
 20
5.28196
 30
0.0
 40
0.0104167
 41
0.0104167
  0
VERTEX
  8
0
 10
1.83653
 20
5.27018
 30
0.0
 40
0.0104167
 41
0.0104167
  0
VERTEX
  8
0
 10
1.8189
 20
5.27018
 30
0.0
 40
0.0104167
 41
0.0104167
  0
VERTEX
  8
0
 10
1.80057
 20
5.27018
 30
0.0
 40
0.0104167
 41
0.0104167
  0
VERTEX
  8
0
 10
1.74571
 20
5.28196
 30
0.0
 40
0.0104167
 41
0.0104167
  0
VERTEX
  8
0
 10
1.69162
 20
5.31293
 30
0.0
 40
0.0104167
 41
0.0104167
  0
VERTEX
  8
0
 10
1.65381
 20
5.35678
 30
0.0
 40
0.0104167
 41
0.0104167
  0
VERTEX
  8
0
 10
1.62939
 20
5.40696
 30
0.0
 40
0.0104167
 41
0.0104167
  0
VERTEX
  8
0
 10
1.6154
 20
5.45719
 30
0.0
 40
0.0104167
 41
0.0104167
  0
VERTEX
  8
0
 10
1.609
 20
5.50103
 30
0.0
 40
0.0104167
 41
0.0104167
  0
VERTEX
  8
0
 10
1.60726
 20
5.53201
 30
0.0
 40
0.0104167
 41
0.0104167
  0
VERTEX
  8
0
 10
1.60736
 20
5.54372
 30
0.0
 40
0.0104167
 41
0.0104167
  0
VERTEX
  8
0
 10
1.60736
 20
5.54372
 30
0.0
 40
0.0104167
 41
0.0104167
  0
VERTEX
  8
0
 10
1.60633
 20
5.81201
 30
0.0
 40
0.0104167
 41
0.0104167
  0
VERTEX
  8
0
 10
2.02289
 20
5.81201
 30
0.0
 40
0.0104167
 41
0.0104167
  0
VERTEX
  8
0
 10
2.02289
 20
5.54372
 30
0.0
 40
0.0104167
 41
0.0104167
  0
SEQEND
 8
0
  0
POLYLINE
  8
0
 62
     7
 66
     1
 10
0
 20
0
 30
0.0
 70
     1
 40
0
 41
0
  0
VERTEX
  8
0
 10
1.78153
 20
5.92144
 30
0.0
 40
0
 41
0
  0
VERTEX
  8
0
 10
1.84771
 20
5.92144
 30
0.0
 40
0
 41
0
  0
VERTEX
  8
0
 10
1.84771
 20
5.88992
 30
0.0
 40
0
 41
0
  0
VERTEX
  8
0
 10
1.78153
 20
5.88992
 30
0.0
 40
0
 41
0
  0
VERTEX
  8
0
 10
1.78153
 20
5.92144
 30
0.0
 40
0
 41
0
  0
SEQEND
 8
0
  0
POLYLINE
  8
0
 62
     0
 66
     1
 10
0
 20
0
 30
0.0
 70
     1
 40
0.75
 41
0.75
  0
VERTEX
  8
0
 10
1.78153
 20
5.92144
 30
0.0
 40
0.0104167
 41
0.0104167
  0
VERTEX
  8
0
 10
1.84771
 20
5.92144
 30
0.0
 40
0.0104167
 41
0.0104167
  0
VERTEX
  8
0
 10
1.84771
 20
5.88992
 30
0.0
 40
0.0104167
 41
0.0104167
  0
VERTEX
  8
0
 10
1.78153
 20
5.88992
 30
0.0
 40
0.0104167
 41
0.0104167
  0
VERTEX
  8
0
 10
1.78153
 20
5.92144
 30
0.0
 40
0.0104167
 41
0.0104167
  0
SEQEND
 8
0
  0
POLYLINE
  8
0
 62
     7
 66
     1
 10
0
 20
0
 30
0.0
 70
     1
 40
0
 41
0
  0
VERTEX
  8
0
 10
2.26563
 20
6.00358
 30
0.0
 40
0
 41
0
  0
VERTEX
  8
0
 10
2.81039
 20
6.00358
 30
0.0
 40
0
 41
0
  0
VERTEX
  8
0
 10
2.81039
 20
5.60178
 30
0.0
 40
0
 41
0
  0
VERTEX
  8
0
 10
2.26563
 20
5.60178
 30
0.0
 40
0
 41
0
  0
VERTEX
  8
0
 10
2.26563
 20
6.00358
 30
0.0
 40
0
 41
0
  0
SEQEND
 8
0
  0
POLYLINE
  8
0
 62
     0
 66
     1
 10
0
 20
0
 30
0.0
 70
     1
 40
0.75
 41
0.75
  0
VERTEX
  8
0
 10
2.26563
 20
6.00358
 30
0.0
 40
0.0104167
 41
0.0104167
  0
VERTEX
  8
0
 10
2.81039
 20
6.00358
 30
0.0
 40
0.0104167
 41
0.0104167
  0
VERTEX
  8
0
 10
2.81039
 20
5.60178
 30
0.0
 40
0.0104167
 41
0.0104167
  0
VERTEX
  8
0
 10
2.26563
 20
5.60178
 30
0.0
 40
0.0104167
 41
0.0104167
  0
VERTEX
  8
0
 10
2.26563
 20
6.00358
 30
0.0
 40
0.0104167
 41
0.0104167
  0
SEQEND
 8
0
  0
POLYLINE
  8
0
 62
     7
 66
     1
 10
0
 20
0
 30
0.0
 70
     1
 40
0
 41
0
  0
VERTEX
  8
0
 10
2.31104
 20
5.9025
 30
0.0
 40
0
 41
0
  0
VERTEX
  8
0
 10
2.76497
 20
5.9025
 30
0.0
 40
0
 41
0
  0
VERTEX
  8
0
 10
2.76497
 20
5.63721
 30
0.0
 40
0
 41
0
  0
VERTEX
  8
0
 10
2.31104
 20
5.63721
 30
0.0
 40
0
 41
0
  0
VERTEX
  8
0
 10
2.31104
 20
5.9025
 30
0.0
 40
0
 41
0
  0
SEQEND
 8
0
  0
POLYLINE
  8
0
 62
     0
 66
     1
 10
0
 20
0
 30
0.0
 70
     1
 40
0.75
 41
0.75
  0
VERTEX
  8
0
 10
2.31104
 20
5.9025
 30
0.0
 40
0.0104167
 41
0.0104167
  0
VERTEX
  8
0
 10
2.76497
 20
5.9025
 30
0.0
 40
0.0104167
 41
0.0104167
  0
VERTEX
  8
0
 10
2.76497
 20
5.63721
 30
0.0
 40
0.0104167
 41
0.0104167
  0
VERTEX
  8
0
 10
2.31104
 20
5.63721
 30
0.0
 40
0.0104167
 41
0.0104167
  0
VERTEX
  8
0
 10
2.31104
 20
5.9025
 30
0.0
 40
0.0104167
 41
0.0104167
  0
SEQEND
 8
0
  0
POLYLINE
  8
0
 62
     7
 66
     1
 10
0
 20
0
 30
0.0
 70
     1
 40
0
 41
0
  0
VERTEX
  8
0
 10
2.57443
 20
5.78792
 30
0.0
 40
0
 41
0
  0
VERTEX
  8
0
 10
2.57443
 20
5.78153
 30
0.0
 40
0
 41
0
  0
VERTEX
  8
0
 10
2.56375
 20
5.76215
 30
0.0
 40
0
 41
0
  0
VERTEX
  8
0
 10
2.54438
 20
5.75146
 30
0.0
 40
0
 41
0
  0
VERTEX
  8
0
 10
2.53797
 20
5.75146
 30
0.0
 40
0
 41
0
  0
VERTEX
  8
0
 10
2.53153
 20
5.75146
 30
0.0
 40
0
 41
0
  0
VERTEX
  8
0
 10
2.51215
 20
5.76215
 30
0.0
 40
0
 41
0
  0
VERTEX
  8
0
 10
2.50151
 20
5.78153
 30
0.0
 40
0
 41
0
  0
VERTEX
  8
0
 10
2.50151
 20
5.78792
 30
0.0
 40
0
 41
0
  0
VERTEX
  8
0
 10
2.50151
 20
5.79438
 30
0.0
 40
0
 41
0
  0
VERTEX
  8
0
 10
2.51215
 20
5.81375
 30
0.0
 40
0
 41
0
  0
VERTEX
  8
0
 10
2.53153
 20
5.82438
 30
0.0
 40
0
 41
0
  0
VERTEX
  8
0
 10
2.53797
 20
5.82438
 30
0.0
 40
0
 41
0
  0
VERTEX
  8
0
 10
2.54438
 20
5.82438
 30
0.0
 40
0
 41
0
  0
VERTEX
  8
0
 10
2.56375
 20
5.81375
 30
0.0
 40
0
 41
0
  0
VERTEX
  8
0
 10
2.57443
 20
5.79438
 30
0.0
 40
0
 41
0
  0
VERTEX
  8
0
 10
2.57443
 20
5.78792
 30
0.0
 40
0
 41
0
  0
SEQEND
 8
0
  0
POLYLINE
  8
0
 62
     0
 66
     1
 10
0
 20
0
 30
0.0
 70
     1
 40
0.6
 41
0.6
  0
VERTEX
  8
0
 10
2.57443
 20
5.78792
 30
0.0
 40
0.00833333
 41
0.00833333
  0
VERTEX
  8
0
 10
2.57443
 20
5.78153
 30
0.0
 40
0.00833333
 41
0.00833333
  0
VERTEX
  8
0
 10
2.56375
 20
5.76215
 30
0.0
 40
0.00833333
 41
0.00833333
  0
VERTEX
  8
0
 10
2.54438
 20
5.75146
 30
0.0
 40
0.00833333
 41
0.00833333
  0
VERTEX
  8
0
 10
2.53797
 20
5.75146
 30
0.0
 40
0.00833333
 41
0.00833333
  0
VERTEX
  8
0
 10
2.53153
 20
5.75146
 30
0.0
 40
0.00833333
 41
0.00833333
  0
VERTEX
  8
0
 10
2.51215
 20
5.76215
 30
0.0
 40
0.00833333
 41
0.00833333
  0
VERTEX
  8
0
 10
2.50151
 20
5.78153
 30
0.0
 40
0.00833333
 41
0.00833333
  0
VERTEX
  8
0
 10
2.50151
 20
5.78792
 30
0.0
 40
0.00833333
 41
0.00833333
  0
VERTEX
  8
0
 10
2.50151
 20
5.79438
 30
0.0
 40
0.00833333
 41
0.00833333
  0
VERTEX
  8
0
 10
2.51215
 20
5.81375
 30
0.0
 40
0.00833333
 41
0.00833333
  0
VERTEX
  8
0
 10
2.53153
 20
5.82438
 30
0.0
 40
0.00833333
 41
0.00833333
  0
VERTEX
  8
0
 10
2.53797
 20
5.82438
 30
0.0
 40
0.00833333
 41
0.00833333
  0
VERTEX
  8
0
 10
2.54438
 20
5.82438
 30
0.0
 40
0.00833333
 41
0.00833333
  0
VERTEX
  8
0
 10
2.56375
 20
5.81375
 30
0.0
 40
0.00833333
 41
0.00833333
  0
VERTEX
  8
0
 10
2.57443
 20
5.79438
 30
0.0
 40
0.00833333
 41
0.00833333
  0
VERTEX
  8
0
 10
2.57443
 20
5.78792
 30
0.0
 40
0.00833333
 41
0.00833333
  0
SEQEND
 8
0
  0
POLYLINE
  8
0
 62
     7
 66
     1
 10
0
 20
0
 30
0.0
 70
     1
 40
0
 41
0
  0
VERTEX
  8
0
 10
2.55881
 20
5.78792
 30
0.0
 40
0
 41
0
  0
VERTEX
  8
0
 10
2.55881
 20
5.78429
 30
0.0
 40
0
 41
0
  0
VERTEX
  8
0
 10
2.55268
 20
5.77322
 30
0.0
 40
0
 41
0
  0
VERTEX
  8
0
 10
2.54161
 20
5.76708
 30
0.0
 40
0
 41
0
  0
VERTEX
  8
0
 10
2.53797
 20
5.76708
 30
0.0
 40
0
 41
0
  0
VERTEX
  8
0
 10
2.53429
 20
5.76708
 30
0.0
 40
0
 41
0
  0
VERTEX
  8
0
 10
2.52322
 20
5.77322
 30
0.0
 40
0
 41
0
  0
VERTEX
  8
0
 10
2.51714
 20
5.78429
 30
0.0
 40
0
 41
0
  0
VERTEX
  8
0
 10
2.51714
 20
5.78792
 30
0.0
 40
0
 41
0
  0
VERTEX
  8
0
 10
2.51714
 20
5.79161
 30
0.0
 40
0
 41
0
  0
VERTEX
  8
0
 10
2.52322
 20
5.80268
 30
0.0
 40
0
 41
0
  0
VERTEX
  8
0
 10
2.53429
 20
5.80875
 30
0.0
 40
0
 41
0
  0
VERTEX
  8
0
 10
2.53797
 20
5.80875
 30
0.0
 40
0
 41
0
  0
VERTEX
  8
0
 10
2.54161
 20
5.80875
 30
0.0
 40
0
 41
0
  0
VERTEX
  8
0
 10
2.55268
 20
5.80268
 30
0.0
 40
0
 41
0
  0
VERTEX
  8
0
 10
2.55881
 20
5.79161
 30
0.0
 40
0
 41
0
  0
VERTEX
  8
0
 10
2.55881
 20
5.78792
 30
0.0
 40
0
 41
0
  0
SEQEND
 8
0
  0
POLYLINE
  8
0
 62
     0
 66
     1
 10
0
 20
0
 30
0.0
 70
     1
 40
0.6
 41
0.6
  0
VERTEX
  8
0
 10
2.55881
 20
5.78792
 30
0.0
 40
0.00833333
 41
0.00833333
  0
VERTEX
  8
0
 10
2.55881
 20
5.78429
 30
0.0
 40
0.00833333
 41
0.00833333
  0
VERTEX
  8
0
 10
2.55268
 20
5.77322
 30
0.0
 40
0.00833333
 41
0.00833333
  0
VERTEX
  8
0
 10
2.54161
 20
5.76708
 30
0.0
 40
0.00833333
 41
0.00833333
  0
VERTEX
  8
0
 10
2.53797
 20
5.76708
 30
0.0
 40
0.00833333
 41
0.00833333
  0
VERTEX
  8
0
 10
2.53429
 20
5.76708
 30
0.0
 40
0.00833333
 41
0.00833333
  0
VERTEX
  8
0
 10
2.52322
 20
5.77322
 30
0.0
 40
0.00833333
 41
0.00833333
  0
VERTEX
  8
0
 10
2.51714
 20
5.78429
 30
0.0
 40
0.00833333
 41
0.00833333
  0
VERTEX
  8
0
 10
2.51714
 20
5.78792
 30
0.0
 40
0.00833333
 41
0.00833333
  0
VERTEX
  8
0
 10
2.51714
 20
5.79161
 30
0.0
 40
0.00833333
 41
0.00833333
  0
VERTEX
  8
0
 10
2.52322
 20
5.80268
 30
0.0
 40
0.00833333
 41
0.00833333
  0
VERTEX
  8
0
 10
2.53429
 20
5.80875
 30
0.0
 40
0.00833333
 41
0.00833333
  0
VERTEX
  8
0
 10
2.53797
 20
5.80875
 30
0.0
 40
0.00833333
 41
0.00833333
  0
VERTEX
  8
0
 10
2.54161
 20
5.80875
 30
0.0
 40
0.00833333
 41
0.00833333
  0
VERTEX
  8
0
 10
2.55268
 20
5.80268
 30
0.0
 40
0.00833333
 41
0.00833333
  0
VERTEX
  8
0
 10
2.55881
 20
5.79161
 30
0.0
 40
0.00833333
 41
0.00833333
  0
VERTEX
  8
0
 10
2.55881
 20
5.78792
 30
0.0
 40
0.00833333
 41
0.00833333
  0
SEQEND
 8
0
  0
POLYLINE
  8
0
 62
     7
 66
     1
 10
0
 20
0
 30
0.0
 70
     1
 40
0
 41
0
  0
VERTEX
  8
0
 10
2.51069
 20
5.97011
 30
0.0
 40
0
 41
0
  0
VERTEX
  8
0
 10
2.57319
 20
5.97011
 30
0.0
 40
0
 41
0
  0
VERTEX
  8
0
 10
2.57319
 20
5.82428
 30
0.0
 40
0
 41
0
  0
VERTEX
  8
0
 10
2.51069
 20
5.82428
 30
0.0
 40
0
 41
0
  0
VERTEX
  8
0
 10
2.51069
 20
5.97011
 30
0.0
 40
0
 41
0
  0
SEQEND
 8
0
  0
POLYLINE
  8
0
 62
     0
 66
     1
 10
0
 20
0
 30
0.0
 70
     1
 40
0.75
 41
0.75
  0
VERTEX
  8
0
 10
2.51069
 20
5.97011
 30
0.0
 40
0.0104167
 41
0.0104167
  0
VERTEX
  8
0
 10
2.57319
 20
5.97011
 30
0.0
 40
0.0104167
 41
0.0104167
  0
VERTEX
  8
0
 10
2.57319
 20
5.82428
 30
0.0
 40
0.0104167
 41
0.0104167
  0
VERTEX
  8
0
 10
2.51069
 20
5.82428
 30
0.0
 40
0.0104167
 41
0.0104167
  0
VERTEX
  8
0
 10
2.51069
 20
5.97011
 30
0.0
 40
0.0104167
 41
0.0104167
  0
SEQEND
 8
0
  0
POLYLINE
  8
0
 62
     7
 66
     1
 10
0
 20
0
 30
0.0
 70
     1
 40
0
 41
0
  0
VERTEX
  8
0
 10
3.06413
 20
6.74625
 30
0.0
 40
0
 41
0
  0
VERTEX
  8
0
 10
3.46815
 20
6.74625
 30
0.0
 40
0
 41
0
  0
VERTEX
  8
0
 10
3.46815
 20
6.12125
 30
0.0
 40
0
 41
0
  0
VERTEX
  8
0
 10
3.06413
 20
6.12125
 30
0.0
 40
0
 41
0
  0
VERTEX
  8
0
 10
3.06413
 20
6.74625
 30
0.0
 40
0
 41
0
  0
SEQEND
 8
0
  0
POLYLINE
  8
0
 62
     0
 66
     1
 10
0
 20
0
 30
0.0
 70
     1
 40
0.75
 41
0.75
  0
VERTEX
  8
0
 10
3.06413
 20
6.74625
 30
0.0
 40
0.0104167
 41
0.0104167
  0
VERTEX
  8
0
 10
3.46815
 20
6.74625
 30
0.0
 40
0.0104167
 41
0.0104167
  0
VERTEX
  8
0
 10
3.46815
 20
6.12125
 30
0.0
 40
0.0104167
 41
0.0104167
  0
VERTEX
  8
0
 10
3.06413
 20
6.12125
 30
0.0
 40
0.0104167
 41
0.0104167
  0
VERTEX
  8
0
 10
3.06413
 20
6.74625
 30
0.0
 40
0.0104167
 41
0.0104167
  0
SEQEND
 8
0
  0
POLYLINE
  8
0
 62
     7
 66
     1
 10
0
 20
0
 30
0.0
 70
     1
 40
0
 41
0
  0
VERTEX
  8
0
 10
1.19341
 20
6.523
 30
0.0
 40
0
 41
0
  0
VERTEX
  8
0
 10
1.73822
 20
6.523
 30
0.0
 40
0
 41
0
  0
VERTEX
  8
0
 10
1.73822
 20
6.12125
 30
0.0
 40
0
 41
0
  0
VERTEX
  8
0
 10
1.19341
 20
6.12125
 30
0.0
 40
0
 41
0
  0
VERTEX
  8
0
 10
1.19341
 20
6.523
 30
0.0
 40
0
 41
0
  0
SEQEND
 8
0
  0
POLYLINE
  8
0
 62
     0
 66
     1
 10
0
 20
0
 30
0.0
 70
     1
 40
0.75
 41
0.75
  0
VERTEX
  8
0
 10
1.19341
 20
6.523
 30
0.0
 40
0.0104167
 41
0.0104167
  0
VERTEX
  8
0
 10
1.73822
 20
6.523
 30
0.0
 40
0.0104167
 41
0.0104167
  0
VERTEX
  8
0
 10
1.73822
 20
6.12125
 30
0.0
 40
0.0104167
 41
0.0104167
  0
VERTEX
  8
0
 10
1.19341
 20
6.12125
 30
0.0
 40
0.0104167
 41
0.0104167
  0
VERTEX
  8
0
 10
1.19341
 20
6.523
 30
0.0
 40
0.0104167
 41
0.0104167
  0
SEQEND
 8
0
  0
POLYLINE
  8
0
 62
     7
 66
     1
 10
0
 20
0
 30
0.0
 70
     1
 40
0
 41
0
  0
VERTEX
  8
0
 10
1.23882
 20
6.48757
 30
0.0
 40
0
 41
0
  0
VERTEX
  8
0
 10
1.69282
 20
6.48757
 30
0.0
 40
0
 41
0
  0
VERTEX
  8
0
 10
1.69282
 20
6.22228
 30
0.0
 40
0
 41
0
  0
VERTEX
  8
0
 10
1.23882
 20
6.22228
 30
0.0
 40
0
 41
0
  0
VERTEX
  8
0
 10
1.23882
 20
6.48757
 30
0.0
 40
0
 41
0
  0
SEQEND
 8
0
  0
POLYLINE
  8
0
 62
     0
 66
     1
 10
0
 20
0
 30
0.0
 70
     1
 40
0.75
 41
0.75
  0
VERTEX
  8
0
 10
1.23882
 20
6.48757
 30
0.0
 40
0.0104167
 41
0.0104167
  0
VERTEX
  8
0
 10
1.69282
 20
6.48757
 30
0.0
 40
0.0104167
 41
0.0104167
  0
VERTEX
  8
0
 10
1.69282
 20
6.22228
 30
0.0
 40
0.0104167
 41
0.0104167
  0
VERTEX
  8
0
 10
1.23882
 20
6.22228
 30
0.0
 40
0.0104167
 41
0.0104167
  0
VERTEX
  8
0
 10
1.23882
 20
6.48757
 30
0.0
 40
0.0104167
 41
0.0104167
  0
SEQEND
 8
0
  0
POLYLINE
  8
0
 62
     7
 66
     1
 10
0
 20
0
 30
0.0
 70
     1
 40
0
 41
0
  0
VERTEX
  8
0
 10
1.42936
 20
6.33686
 30
0.0
 40
0
 41
0
  0
VERTEX
  8
0
 10
1.42936
 20
6.34332
 30
0.0
 40
0
 41
0
  0
VERTEX
  8
0
 10
1.44
 20
6.36268
 30
0.0
 40
0
 41
0
  0
VERTEX
  8
0
 10
1.45936
 20
6.37332
 30
0.0
 40
0
 41
0
  0
VERTEX
  8
0
 10
1.46582
 20
6.37332
 30
0.0
 40
0
 41
0
  0
VERTEX
  8
0
 10
1.47222
 20
6.37332
 30
0.0
 40
0
 41
0
  0
VERTEX
  8
0
 10
1.4916
 20
6.36268
 30
0.0
 40
0
 41
0
  0
VERTEX
  8
0
 10
1.50228
 20
6.34332
 30
0.0
 40
0
 41
0
  0
VERTEX
  8
0
 10
1.50228
 20
6.33686
 30
0.0
 40
0
 41
0
  0
VERTEX
  8
0
 10
1.50228
 20
6.33046
 30
0.0
 40
0
 41
0
  0
VERTEX
  8
0
 10
1.4916
 20
6.31108
 30
0.0
 40
0
 41
0
  0
VERTEX
  8
0
 10
1.47222
 20
6.3004
 30
0.0
 40
0
 41
0
  0
VERTEX
  8
0
 10
1.46582
 20
6.3004
 30
0.0
 40
0
 41
0
  0
VERTEX
  8
0
 10
1.45936
 20
6.3004
 30
0.0
 40
0
 41
0
  0
VERTEX
  8
0
 10
1.44
 20
6.31108
 30
0.0
 40
0
 41
0
  0
VERTEX
  8
0
 10
1.42936
 20
6.33046
 30
0.0
 40
0
 41
0
  0
VERTEX
  8
0
 10
1.42936
 20
6.33686
 30
0.0
 40
0
 41
0
  0
SEQEND
 8
0
  0
POLYLINE
  8
0
 62
     0
 66
     1
 10
0
 20
0
 30
0.0
 70
     1
 40
0.6
 41
0.6
  0
VERTEX
  8
0
 10
1.42936
 20
6.33686
 30
0.0
 40
0.00833333
 41
0.00833333
  0
VERTEX
  8
0
 10
1.42936
 20
6.34332
 30
0.0
 40
0.00833333
 41
0.00833333
  0
VERTEX
  8
0
 10
1.44
 20
6.36268
 30
0.0
 40
0.00833333
 41
0.00833333
  0
VERTEX
  8
0
 10
1.45936
 20
6.37332
 30
0.0
 40
0.00833333
 41
0.00833333
  0
VERTEX
  8
0
 10
1.46582
 20
6.37332
 30
0.0
 40
0.00833333
 41
0.00833333
  0
VERTEX
  8
0
 10
1.47222
 20
6.37332
 30
0.0
 40
0.00833333
 41
0.00833333
  0
VERTEX
  8
0
 10
1.4916
 20
6.36268
 30
0.0
 40
0.00833333
 41
0.00833333
  0
VERTEX
  8
0
 10
1.50228
 20
6.34332
 30
0.0
 40
0.00833333
 41
0.00833333
  0
VERTEX
  8
0
 10
1.50228
 20
6.33686
 30
0.0
 40
0.00833333
 41
0.00833333
  0
VERTEX
  8
0
 10
1.50228
 20
6.33046
 30
0.0
 40
0.00833333
 41
0.00833333
  0
VERTEX
  8
0
 10
1.4916
 20
6.31108
 30
0.0
 40
0.00833333
 41
0.00833333
  0
VERTEX
  8
0
 10
1.47222
 20
6.3004
 30
0.0
 40
0.00833333
 41
0.00833333
  0
VERTEX
  8
0
 10
1.46582
 20
6.3004
 30
0.0
 40
0.00833333
 41
0.00833333
  0
VERTEX
  8
0
 10
1.45936
 20
6.3004
 30
0.0
 40
0.00833333
 41
0.00833333
  0
VERTEX
  8
0
 10
1.44
 20
6.31108
 30
0.0
 40
0.00833333
 41
0.00833333
  0
VERTEX
  8
0
 10
1.42936
 20
6.33046
 30
0.0
 40
0.00833333
 41
0.00833333
  0
VERTEX
  8
0
 10
1.42936
 20
6.33686
 30
0.0
 40
0.00833333
 41
0.00833333
  0
SEQEND
 8
0
  0
POLYLINE
  8
0
 62
     7
 66
     1
 10
0
 20
0
 30
0.0
 70
     1
 40
0
 41
0
  0
VERTEX
  8
0
 10
1.44499
 20
6.33686
 30
0.0
 40
0
 41
0
  0
VERTEX
  8
0
 10
1.44499
 20
6.34056
 30
0.0
 40
0
 41
0
  0
VERTEX
  8
0
 10
1.45107
 20
6.35161
 30
0.0
 40
0
 41
0
  0
VERTEX
  8
0
 10
1.46213
 20
6.35769
 30
0.0
 40
0
 41
0
  0
VERTEX
  8
0
 10
1.46582
 20
6.35769
 30
0.0
 40
0
 41
0
  0
VERTEX
  8
0
 10
1.46946
 20
6.35769
 30
0.0
 40
0
 41
0
  0
VERTEX
  8
0
 10
1.48053
 20
6.35161
 30
0.0
 40
0
 41
0
  0
VERTEX
  8
0
 10
1.48665
 20
6.34056
 30
0.0
 40
0
 41
0
  0
VERTEX
  8
0
 10
1.48665
 20
6.33686
 30
0.0
 40
0
 41
0
  0
VERTEX
  8
0
 10
1.48665
 20
6.33322
 30
0.0
 40
0
 41
0
  0
VERTEX
  8
0
 10
1.48053
 20
6.32215
 30
0.0
 40
0
 41
0
  0
VERTEX
  8
0
 10
1.46946
 20
6.31603
 30
0.0
 40
0
 41
0
  0
VERTEX
  8
0
 10
1.46582
 20
6.31603
 30
0.0
 40
0
 41
0
  0
VERTEX
  8
0
 10
1.46213
 20
6.31603
 30
0.0
 40
0
 41
0
  0
VERTEX
  8
0
 10
1.45107
 20
6.32215
 30
0.0
 40
0
 41
0
  0
VERTEX
  8
0
 10
1.44499
 20
6.33322
 30
0.0
 40
0
 41
0
  0
VERTEX
  8
0
 10
1.44499
 20
6.33686
 30
0.0
 40
0
 41
0
  0
SEQEND
 8
0
  0
POLYLINE
  8
0
 62
     0
 66
     1
 10
0
 20
0
 30
0.0
 70
     1
 40
0.6
 41
0.6
  0
VERTEX
  8
0
 10
1.44499
 20
6.33686
 30
0.0
 40
0.00833333
 41
0.00833333
  0
VERTEX
  8
0
 10
1.44499
 20
6.34056
 30
0.0
 40
0.00833333
 41
0.00833333
  0
VERTEX
  8
0
 10
1.45107
 20
6.35161
 30
0.0
 40
0.00833333
 41
0.00833333
  0
VERTEX
  8
0
 10
1.46213
 20
6.35769
 30
0.0
 40
0.00833333
 41
0.00833333
  0
VERTEX
  8
0
 10
1.46582
 20
6.35769
 30
0.0
 40
0.00833333
 41
0.00833333
  0
VERTEX
  8
0
 10
1.46946
 20
6.35769
 30
0.0
 40
0.00833333
 41
0.00833333
  0
VERTEX
  8
0
 10
1.48053
 20
6.35161
 30
0.0
 40
0.00833333
 41
0.00833333
  0
VERTEX
  8
0
 10
1.48665
 20
6.34056
 30
0.0
 40
0.00833333
 41
0.00833333
  0
VERTEX
  8
0
 10
1.48665
 20
6.33686
 30
0.0
 40
0.00833333
 41
0.00833333
  0
VERTEX
  8
0
 10
1.48665
 20
6.33322
 30
0.0
 40
0.00833333
 41
0.00833333
  0
VERTEX
  8
0
 10
1.48053
 20
6.32215
 30
0.0
 40
0.00833333
 41
0.00833333
  0
VERTEX
  8
0
 10
1.46946
 20
6.31603
 30
0.0
 40
0.00833333
 41
0.00833333
  0
VERTEX
  8
0
 10
1.46582
 20
6.31603
 30
0.0
 40
0.00833333
 41
0.00833333
  0
VERTEX
  8
0
 10
1.46213
 20
6.31603
 30
0.0
 40
0.00833333
 41
0.00833333
  0
VERTEX
  8
0
 10
1.45107
 20
6.32215
 30
0.0
 40
0.00833333
 41
0.00833333
  0
VERTEX
  8
0
 10
1.44499
 20
6.33322
 30
0.0
 40
0.00833333
 41
0.00833333
  0
VERTEX
  8
0
 10
1.44499
 20
6.33686
 30
0.0
 40
0.00833333
 41
0.00833333
  0
SEQEND
 8
0
  0
POLYLINE
  8
0
 62
     7
 66
     1
 10
0
 20
0
 30
0.0
 70
     1
 40
0
 41
0
  0
VERTEX
  8
0
 10
1.43061
 20
6.30051
 30
0.0
 40
0
 41
0
  0
VERTEX
  8
0
 10
1.49311
 20
6.30051
 30
0.0
 40
0
 41
0
  0
VERTEX
  8
0
 10
1.49311
 20
6.15468
 30
0.0
 40
0
 41
0
  0
VERTEX
  8
0
 10
1.43061
 20
6.15468
 30
0.0
 40
0
 41
0
  0
VERTEX
  8
0
 10
1.43061
 20
6.30051
 30
0.0
 40
0
 41
0
  0
SEQEND
 8
0
  0
POLYLINE
  8
0
 62
     0
 66
     1
 10
0
 20
0
 30
0.0
 70
     1
 40
0.75
 41
0.75
  0
VERTEX
  8
0
 10
1.43061
 20
6.30051
 30
0.0
 40
0.0104167
 41
0.0104167
  0
VERTEX
  8
0
 10
1.49311
 20
6.30051
 30
0.0
 40
0.0104167
 41
0.0104167
  0
VERTEX
  8
0
 10
1.49311
 20
6.15468
 30
0.0
 40
0.0104167
 41
0.0104167
  0
VERTEX
  8
0
 10
1.43061
 20
6.15468
 30
0.0
 40
0.0104167
 41
0.0104167
  0
VERTEX
  8
0
 10
1.43061
 20
6.30051
 30
0.0
 40
0.0104167
 41
0.0104167
  0
SEQEND
 8
0
  0
POLYLINE
  8
0
 62
     7
 66
     1
 10
0
 20
0
 30
0.0
 70
     1
 40
0
 41
0
  0
VERTEX
  8
0
 10
1.87076
 20
6.31164
 30
0.0
 40
0
 41
0
  0
VERTEX
  8
0
 10
2.28728
 20
6.31164
 30
0.0
 40
0
 41
0
  0
VERTEX
  8
0
 10
2.28728
 20
6.12435
 30
0.0
 40
0
 41
0
  0
VERTEX
  8
0
 10
1.87076
 20
6.12435
 30
0.0
 40
0
 41
0
  0
VERTEX
  8
0
 10
1.87076
 20
6.31164
 30
0.0
 40
0
 41
0
  0
SEQEND
 8
0
  0
POLYLINE
  8
0
 62
     0
 66
     1
 10
0
 20
0
 30
0.0
 70
     1
 40
0.75
 41
0.75
  0
VERTEX
  8
0
 10
1.87076
 20
6.31164
 30
0.0
 40
0.0104167
 41
0.0104167
  0
VERTEX
  8
0
 10
2.28728
 20
6.31164
 30
0.0
 40
0.0104167
 41
0.0104167
  0
VERTEX
  8
0
 10
2.28728
 20
6.12435
 30
0.0
 40
0.0104167
 41
0.0104167
  0
VERTEX
  8
0
 10
1.87076
 20
6.12435
 30
0.0
 40
0.0104167
 41
0.0104167
  0
VERTEX
  8
0
 10
1.87076
 20
6.31164
 30
0.0
 40
0.0104167
 41
0.0104167
  0
SEQEND
 8
0
  0
POLYLINE
  8
0
 62
     7
 66
     1
 10
0
 20
0
 30
0.0
 70
     1
 40
0
 41
0
  0
VERTEX
  8
0
 10
1.87076
 20
6.57992
 30
0.0
 40
0
 41
0
  0
VERTEX
  8
0
 10
1.87076
 20
6.57992
 30
0.0
 40
0
 41
0
  0
VERTEX
  8
0
 10
1.87067
 20
6.59169
 30
0.0
 40
0
 41
0
  0
VERTEX
  8
0
 10
1.87229
 20
6.62267
 30
0.0
 40
0
 41
0
  0
VERTEX
  8
0
 10
1.87842
 20
6.6665
 30
0.0
 40
0
 41
0
  0
VERTEX
  8
0
 10
1.89182
 20
6.71674
 30
0.0
 40
0
 41
0
  0
VERTEX
  8
0
 10
1.91536
 20
6.76699
 30
0.0
 40
0
 41
0
  0
VERTEX
  8
0
 10
1.95182
 20
6.81082
 30
0.0
 40
0
 41
0
  0
VERTEX
  8
0
 10
2.00401
 20
6.84179
 30
0.0
 40
0
 41
0
  0
VERTEX
  8
0
 10
2.05707
 20
6.85351
 30
0.0
 40
0
 41
0
  0
VERTEX
  8
0
 10
2.07476
 20
6.85351
 30
0.0
 40
0
 41
0
  0
VERTEX
  8
0
 10
2.09304
 20
6.85351
 30
0.0
 40
0
 41
0
  0
VERTEX
  8
0
 10
2.14789
 20
6.84179
 30
0.0
 40
0
 41
0
  0
VERTEX
  8
0
 10
2.20193
 20
6.81082
 30
0.0
 40
0
 41
0
  0
VERTEX
  8
0
 10
2.23975
 20
6.76699
 30
0.0
 40
0
 41
0
  0
VERTEX
  8
0
 10
2.26421
 20
6.71674
 30
0.0
 40
0
 41
0
  0
VERTEX
  8
0
 10
2.27821
 20
6.6665
 30
0.0
 40
0
 41
0
  0
VERTEX
  8
0
 10
2.28461
 20
6.62267
 30
0.0
 40
0
 41
0
  0
VERTEX
  8
0
 10
2.28635
 20
6.59169
 30
0.0
 40
0
 41
0
  0
VERTEX
  8
0
 10
2.28629
 20
6.57992
 30
0.0
 40
0
 41
0
  0
VERTEX
  8
0
 10
2.28629
 20
6.57992
 30
0.0
 40
0
 41
0
  0
VERTEX
  8
0
 10
2.28733
 20
6.31164
 30
0.0
 40
0
 41
0
  0
VERTEX
  8
0
 10
1.87076
 20
6.31164
 30
0.0
 40
0
 41
0
  0
VERTEX
  8
0
 10
1.87076
 20
6.57992
 30
0.0
 40
0
 41
0
  0
SEQEND
 8
0
  0
POLYLINE
  8
0
 62
     0
 66
     1
 10
0
 20
0
 30
0.0
 70
     1
 40
0.75
 41
0.75
  0
VERTEX
  8
0
 10
1.87076
 20
6.57992
 30
0.0
 40
0.0104167
 41
0.0104167
  0
VERTEX
  8
0
 10
1.87076
 20
6.57992
 30
0.0
 40
0.0104167
 41
0.0104167
  0
VERTEX
  8
0
 10
1.87067
 20
6.59169
 30
0.0
 40
0.0104167
 41
0.0104167
  0
VERTEX
  8
0
 10
1.87229
 20
6.62267
 30
0.0
 40
0.0104167
 41
0.0104167
  0
VERTEX
  8
0
 10
1.87842
 20
6.6665
 30
0.0
 40
0.0104167
 41
0.0104167
  0
VERTEX
  8
0
 10
1.89182
 20
6.71674
 30
0.0
 40
0.0104167
 41
0.0104167
  0
VERTEX
  8
0
 10
1.91536
 20
6.76699
 30
0.0
 40
0.0104167
 41
0.0104167
  0
VERTEX
  8
0
 10
1.95182
 20
6.81082
 30
0.0
 40
0.0104167
 41
0.0104167
  0
VERTEX
  8
0
 10
2.00401
 20
6.84179
 30
0.0
 40
0.0104167
 41
0.0104167
  0
VERTEX
  8
0
 10
2.05707
 20
6.85351
 30
0.0
 40
0.0104167
 41
0.0104167
  0
VERTEX
  8
0
 10
2.07476
 20
6.85351
 30
0.0
 40
0.0104167
 41
0.0104167
  0
VERTEX
  8
0
 10
2.09304
 20
6.85351
 30
0.0
 40
0.0104167
 41
0.0104167
  0
VERTEX
  8
0
 10
2.14789
 20
6.84179
 30
0.0
 40
0.0104167
 41
0.0104167
  0
VERTEX
  8
0
 10
2.20193
 20
6.81082
 30
0.0
 40
0.0104167
 41
0.0104167
  0
VERTEX
  8
0
 10
2.23975
 20
6.76699
 30
0.0
 40
0.0104167
 41
0.0104167
  0
VERTEX
  8
0
 10
2.26421
 20
6.71674
 30
0.0
 40
0.0104167
 41
0.0104167
  0
VERTEX
  8
0
 10
2.27821
 20
6.6665
 30
0.0
 40
0.0104167
 41
0.0104167
  0
VERTEX
  8
0
 10
2.28461
 20
6.62267
 30
0.0
 40
0.0104167
 41
0.0104167
  0
VERTEX
  8
0
 10
2.28635
 20
6.59169
 30
0.0
 40
0.0104167
 41
0.0104167
  0
VERTEX
  8
0
 10
2.28629
 20
6.57992
 30
0.0
 40
0.0104167
 41
0.0104167
  0
VERTEX
  8
0
 10
2.28629
 20
6.57992
 30
0.0
 40
0.0104167
 41
0.0104167
  0
VERTEX
  8
0
 10
2.28733
 20
6.31164
 30
0.0
 40
0.0104167
 41
0.0104167
  0
VERTEX
  8
0
 10
1.87076
 20
6.31164
 30
0.0
 40
0.0104167
 41
0.0104167
  0
VERTEX
  8
0
 10
1.87076
 20
6.57992
 30
0.0
 40
0.0104167
 41
0.0104167
  0
SEQEND
 8
0
  0
POLYLINE
  8
0
 62
     7
 66
     1
 10
0
 20
0
 30
0.0
 70
     1
 40
0
 41
0
  0
VERTEX
  8
0
 10
2.0459
 20
6.23378
 30
0.0
 40
0
 41
0
  0
VERTEX
  8
0
 10
2.11214
 20
6.23378
 30
0.0
 40
0
 41
0
  0
VERTEX
  8
0
 10
2.11214
 20
6.20221
 30
0.0
 40
0
 41
0
  0
VERTEX
  8
0
 10
2.0459
 20
6.20221
 30
0.0
 40
0
 41
0
  0
VERTEX
  8
0
 10
2.0459
 20
6.23378
 30
0.0
 40
0
 41
0
  0
SEQEND
 8
0
  0
POLYLINE
  8
0
 62
     0
 66
     1
 10
0
 20
0
 30
0.0
 70
     1
 40
0.75
 41
0.75
  0
VERTEX
  8
0
 10
2.0459
 20
6.23378
 30
0.0
 40
0.0104167
 41
0.0104167
  0
VERTEX
  8
0
 10
2.11214
 20
6.23378
 30
0.0
 40
0.0104167
 41
0.0104167
  0
VERTEX
  8
0
 10
2.11214
 20
6.20221
 30
0.0
 40
0.0104167
 41
0.0104167
  0
VERTEX
  8
0
 10
2.0459
 20
6.20221
 30
0.0
 40
0.0104167
 41
0.0104167
  0
VERTEX
  8
0
 10
2.0459
 20
6.23378
 30
0.0
 40
0.0104167
 41
0.0104167
  0
SEQEND
 8
0
  0
POLYLINE
  8
0
 62
     7
 66
     1
 10
0
 20
0
 30
0.0
 70
     1
 40
0
 41
0
  0
VERTEX
  8
0
 10
1.16737
 20
6.74414
 30
0.0
 40
0
 41
0
  0
VERTEX
  8
0
 10
1.19341
 20
6.74414
 30
0.0
 40
0
 41
0
  0
VERTEX
  8
0
 10
1.19341
 20
6.11914
 30
0.0
 40
0
 41
0
  0
VERTEX
  8
0
 10
1.16737
 20
6.11914
 30
0.0
 40
0
 41
0
  0
VERTEX
  8
0
 10
1.16737
 20
6.74414
 30
0.0
 40
0
 41
0
  0
SEQEND
 8
0
  0
POLYLINE
  8
0
 62
     0
 66
     1
 10
0
 20
0
 30
0.0
 70
     1
 40
0.75
 41
0.75
  0
VERTEX
  8
0
 10
1.16737
 20
6.74414
 30
0.0
 40
0.0104167
 41
0.0104167
  0
VERTEX
  8
0
 10
1.19341
 20
6.74414
 30
0.0
 40
0.0104167
 41
0.0104167
  0
VERTEX
  8
0
 10
1.19341
 20
6.11914
 30
0.0
 40
0.0104167
 41
0.0104167
  0
VERTEX
  8
0
 10
1.16737
 20
6.11914
 30
0.0
 40
0.0104167
 41
0.0104167
  0
VERTEX
  8
0
 10
1.16737
 20
6.74414
 30
0.0
 40
0.0104167
 41
0.0104167
  0
SEQEND
 8
0
  0
POLYLINE
  8
0
 62
     7
 66
     1
 10
0
 20
0
 30
0.0
 70
     1
 40
0
 41
0
  0
VERTEX
  8
0
 10
1.16737
 20
6.74414
 30
0.0
 40
0
 41
0
  0
VERTEX
  8
0
 10
1.19341
 20
6.74414
 30
0.0
 40
0
 41
0
  0
VERTEX
  8
0
 10
1.19341
 20
6.11914
 30
0.0
 40
0
 41
0
  0
VERTEX
  8
0
 10
1.16737
 20
6.11914
 30
0.0
 40
0
 41
0
  0
VERTEX
  8
0
 10
1.16737
 20
6.74414
 30
0.0
 40
0
 41
0
  0
SEQEND
 8
0
  0
POLYLINE
  8
0
 62
     0
 66
     1
 10
0
 20
0
 30
0.0
 70
     1
 40
0.75
 41
0.75
  0
VERTEX
  8
0
 10
1.16737
 20
6.74414
 30
0.0
 40
0.0104167
 41
0.0104167
  0
VERTEX
  8
0
 10
1.19341
 20
6.74414
 30
0.0
 40
0.0104167
 41
0.0104167
  0
VERTEX
  8
0
 10
1.19341
 20
6.11914
 30
0.0
 40
0.0104167
 41
0.0104167
  0
VERTEX
  8
0
 10
1.16737
 20
6.11914
 30
0.0
 40
0.0104167
 41
0.0104167
  0
VERTEX
  8
0
 10
1.16737
 20
6.74414
 30
0.0
 40
0.0104167
 41
0.0104167
  0
SEQEND
 8
0
  0
POLYLINE
  8
0
 62
     7
 66
     1
 10
0
 20
0
 30
0.0
 70
     1
 40
0
 41
0
  0
VERTEX
  8
0
 10
0.791124
 20
6.18788
 30
0.0
 40
0
 41
0
  0
VERTEX
  8
0
 10
0.907769
 20
6.18788
 30
0.0
 40
0
 41
0
  0
VERTEX
  8
0
 10
0.907769
 20
6.12435
 30
0.0
 40
0
 41
0
  0
VERTEX
  8
0
 10
0.791124
 20
6.12435
 30
0.0
 40
0
 41
0
  0
VERTEX
  8
0
 10
0.791124
 20
6.18788
 30
0.0
 40
0
 41
0
  0
SEQEND
 8
0
  0
POLYLINE
  8
0
 62
     0
 66
     1
 10
0
 20
0
 30
0.0
 70
     1
 40
0.75
 41
0.75
  0
VERTEX
  8
0
 10
0.791124
 20
6.18788
 30
0.0
 40
0.0104167
 41
0.0104167
  0
VERTEX
  8
0
 10
0.907769
 20
6.18788
 30
0.0
 40
0.0104167
 41
0.0104167
  0
VERTEX
  8
0
 10
0.907769
 20
6.12435
 30
0.0
 40
0.0104167
 41
0.0104167
  0
VERTEX
  8
0
 10
0.791124
 20
6.12435
 30
0.0
 40
0.0104167
 41
0.0104167
  0
VERTEX
  8
0
 10
0.791124
 20
6.18788
 30
0.0
 40
0.0104167
 41
0.0104167
  0
SEQEND
 8
0
  0
POLYLINE
  8
0
 62
     7
 66
     1
 10
0
 20
0
 30
0.0
 70
     1
 40
0
 41
0
  0
VERTEX
  8
0
 10
0.646322
 20
6.18788
 30
0.0
 40
0
 41
0
  0
VERTEX
  8
0
 10
0.762967
 20
6.18788
 30
0.0
 40
0
 41
0
  0
VERTEX
  8
0
 10
0.762967
 20
6.12435
 30
0.0
 40
0
 41
0
  0
VERTEX
  8
0
 10
0.646322
 20
6.12435
 30
0.0
 40
0
 41
0
  0
VERTEX
  8
0
 10
0.646322
 20
6.18788
 30
0.0
 40
0
 41
0
  0
SEQEND
 8
0
  0
POLYLINE
  8
0
 62
     0
 66
     1
 10
0
 20
0
 30
0.0
 70
     1
 40
0.75
 41
0.75
  0
VERTEX
  8
0
 10
0.646322
 20
6.18788
 30
0.0
 40
0.0104167
 41
0.0104167
  0
VERTEX
  8
0
 10
0.762967
 20
6.18788
 30
0.0
 40
0.0104167
 41
0.0104167
  0
VERTEX
  8
0
 10
0.762967
 20
6.12435
 30
0.0
 40
0.0104167
 41
0.0104167
  0
VERTEX
  8
0
 10
0.646322
 20
6.12435
 30
0.0
 40
0.0104167
 41
0.0104167
  0
VERTEX
  8
0
 10
0.646322
 20
6.18788
 30
0.0
 40
0.0104167
 41
0.0104167
  0
SEQEND
 8
0
  0
POLYLINE
  8
0
 62
     7
 66
     1
 10
0
 20
0
 30
0.0
 70
     1
 40
0
 41
0
  0
VERTEX
  8
0
 10
0.611925
 20
6.18788
 30
0.0
 40
0
 41
0
  0
VERTEX
  8
0
 10
0.647353
 20
6.18788
 30
0.0
 40
0
 41
0
  0
VERTEX
  8
0
 10
0.647353
 20
6.12435
 30
0.0
 40
0
 41
0
  0
VERTEX
  8
0
 10
0.611925
 20
6.12435
 30
0.0
 40
0
 41
0
  0
VERTEX
  8
0
 10
0.611925
 20
6.18788
 30
0.0
 40
0
 41
0
  0
SEQEND
 8
0
  0
POLYLINE
  8
0
 62
     0
 66
     1
 10
0
 20
0
 30
0.0
 70
     1
 40
0.75
 41
0.75
  0
VERTEX
  8
0
 10
0.611925
 20
6.18788
 30
0.0
 40
0.0104167
 41
0.0104167
  0
VERTEX
  8
0
 10
0.647353
 20
6.18788
 30
0.0
 40
0.0104167
 41
0.0104167
  0
VERTEX
  8
0
 10
0.647353
 20
6.12435
 30
0.0
 40
0.0104167
 41
0.0104167
  0
VERTEX
  8
0
 10
0.611925
 20
6.12435
 30
0.0
 40
0.0104167
 41
0.0104167
  0
VERTEX
  8
0
 10
0.611925
 20
6.18788
 30
0.0
 40
0.0104167
 41
0.0104167
  0
SEQEND
 8
0
  0
POLYLINE
  8
0
 62
     7
 66
     1
 10
0
 20
0
 30
0.0
 70
     1
 40
0
 41
0
  0
VERTEX
  8
0
 10
0.907769
 20
6.18788
 30
0.0
 40
0
 41
0
  0
VERTEX
  8
0
 10
0.941081
 20
6.18788
 30
0.0
 40
0
 41
0
  0
VERTEX
  8
0
 10
0.941081
 20
6.12435
 30
0.0
 40
0
 41
0
  0
VERTEX
  8
0
 10
0.907769
 20
6.12435
 30
0.0
 40
0
 41
0
  0
VERTEX
  8
0
 10
0.907769
 20
6.18788
 30
0.0
 40
0
 41
0
  0
SEQEND
 8
0
  0
POLYLINE
  8
0
 62
     0
 66
     1
 10
0
 20
0
 30
0.0
 70
     1
 40
0.75
 41
0.75
  0
VERTEX
  8
0
 10
0.907769
 20
6.18788
 30
0.0
 40
0.0104167
 41
0.0104167
  0
VERTEX
  8
0
 10
0.941081
 20
6.18788
 30
0.0
 40
0.0104167
 41
0.0104167
  0
VERTEX
  8
0
 10
0.941081
 20
6.12435
 30
0.0
 40
0.0104167
 41
0.0104167
  0
VERTEX
  8
0
 10
0.907769
 20
6.12435
 30
0.0
 40
0.0104167
 41
0.0104167
  0
VERTEX
  8
0
 10
0.907769
 20
6.18788
 30
0.0
 40
0.0104167
 41
0.0104167
  0
SEQEND
 8
0
  0
POLYLINE
  8
0
 62
     7
 66
     1
 10
0
 20
0
 30
0.0
 70
     1
 40
0
 41
0
  0
VERTEX
  8
0
 10
0.791124
 20
6.20768
 30
0.0
 40
0
 41
0
  0
VERTEX
  8
0
 10
0.791124
 20
6.21403
 30
0.0
 40
0
 41
0
  0
VERTEX
  8
0
 10
0.794706
 20
6.23296
 30
0.0
 40
0
 41
0
  0
VERTEX
  8
0
 10
0.804633
 20
6.25537
 30
0.0
 40
0
 41
0
  0
VERTEX
  8
0
 10
0.807781
 20
6.25976
 30
0.0
 40
0
 41
0
  0
VERTEX
  8
0
 10
0.808811
 20
6.26133
 30
0.0
 40
0
 41
0
  0
VERTEX
  8
0
 10
0.818956
 20
6.27593
 30
0.0
 40
0
 41
0
  0
VERTEX
  8
0
 10
0.819228
 20
6.27746
 30
0.0
 40
0
 41
0
  0
VERTEX
  8
0
 10
0.819715
 20
6.28033
 30
0.0
 40
0
 41
0
  0
VERTEX
  8
0
 10
0.815539
 20
6.29688
 30
0.0
 40
0
 41
0
  0
VERTEX
  8
0
 10
0.798882
 20
6.30974
 30
0.0
 40
0
 41
0
  0
VERTEX
  8
0
 10
0.793186
 20
6.31076
 30
0.0
 40
0
 41
0
  0
VERTEX
  8
0
 10
0.791883
 20
6.31104
 30
0.0
 40
0
 41
0
  0
VERTEX
  8
0
 10
0.780328
 20
6.31185
 30
0.0
 40
0
 41
0
  0
VERTEX
  8
0
 10
0.776531
 20
6.31185
 30
0.0
 40
0
 41
0
  0
VERTEX
  8
0
 10
0.777561
 20
6.31185
 30
0.0
 40
0
 41
0
  0
VERTEX
  8
0
 10
0.773383
 20
6.31185
 30
0.0
 40
0
 41
0
  0
VERTEX
  8
0
 10
0.762207
 20
6.31104
 30
0.0
 40
0
 41
0
  0
VERTEX
  8
0
 10
0.760906
 20
6.31076
 30
0.0
 40
0
 41
0
  0
VERTEX
  8
0
 10
0.755154
 20
6.30974
 30
0.0
 40
0
 41
0
  0
VERTEX
  8
0
 10
0.738444
 20
6.29688
 30
0.0
 40
0
 41
0
  0
VERTEX
  8
0
 10
0.734321
 20
6.28033
 30
0.0
 40
0
 41
0
  0
VERTEX
  8
0
 10
0.734864
 20
6.27746
 30
0.0
 40
0
 41
0
  0
VERTEX
  8
0
 10
0.735081
 20
6.27593
 30
0.0
 40
0
 41
0
  0
VERTEX
  8
0
 10
0.745226
 20
6.26133
 30
0.0
 40
0
 41
0
  0
VERTEX
  8
0
 10
0.746311
 20
6.25976
 30
0.0
 40
0
 41
0
  0
VERTEX
  8
0
 10
0.749403
 20
6.25537
 30
0.0
 40
0
 41
0
  0
VERTEX
  8
0
 10
0.759278
 20
6.23296
 30
0.0
 40
0
 41
0
  0
VERTEX
  8
0
 10
0.762967
 20
6.21403
 30
0.0
 40
0
 41
0
  0
VERTEX
  8
0
 10
0.762967
 20
6.20768
 30
0.0
 40
0
 41
0
  0
SEQEND
 8
0
  0
POLYLINE
  8
0
 62
     0
 66
     1
 10
0
 20
0
 30
0.0
 40
0.75
 41
0.75
  0
VERTEX
  8
0
 10
0.791124
 20
6.20768
 30
0.0
 40
0.0104167
 41
0.0104167
  0
VERTEX
  8
0
 10
0.791124
 20
6.21403
 30
0.0
 40
0.0104167
 41
0.0104167
  0
VERTEX
  8
0
 10
0.794706
 20
6.23296
 30
0.0
 40
0.0104167
 41
0.0104167
  0
VERTEX
  8
0
 10
0.804633
 20
6.25537
 30
0.0
 40
0.0104167
 41
0.0104167
  0
VERTEX
  8
0
 10
0.807781
 20
6.25976
 30
0.0
 40
0.0104167
 41
0.0104167
  0
VERTEX
  8
0
 10
0.808811
 20
6.26133
 30
0.0
 40
0.0104167
 41
0.0104167
  0
VERTEX
  8
0
 10
0.818956
 20
6.27593
 30
0.0
 40
0.0104167
 41
0.0104167
  0
VERTEX
  8
0
 10
0.819228
 20
6.27746
 30
0.0
 40
0.0104167
 41
0.0104167
  0
VERTEX
  8
0
 10
0.819715
 20
6.28033
 30
0.0
 40
0.0104167
 41
0.0104167
  0
VERTEX
  8
0
 10
0.815539
 20
6.29688
 30
0.0
 40
0.0104167
 41
0.0104167
  0
VERTEX
  8
0
 10
0.798882
 20
6.30974
 30
0.0
 40
0.0104167
 41
0.0104167
  0
VERTEX
  8
0
 10
0.793186
 20
6.31076
 30
0.0
 40
0.0104167
 41
0.0104167
  0
VERTEX
  8
0
 10
0.791883
 20
6.31104
 30
0.0
 40
0.0104167
 41
0.0104167
  0
VERTEX
  8
0
 10
0.780328
 20
6.31185
 30
0.0
 40
0.0104167
 41
0.0104167
  0
VERTEX
  8
0
 10
0.776531
 20
6.31185
 30
0.0
 40
0.0104167
 41
0.0104167
  0
VERTEX
  8
0
 10
0.777561
 20
6.31185
 30
0.0
 40
0.0104167
 41
0.0104167
  0
VERTEX
  8
0
 10
0.773383
 20
6.31185
 30
0.0
 40
0.0104167
 41
0.0104167
  0
VERTEX
  8
0
 10
0.762207
 20
6.31104
 30
0.0
 40
0.0104167
 41
0.0104167
  0
VERTEX
  8
0
 10
0.760906
 20
6.31076
 30
0.0
 40
0.0104167
 41
0.0104167
  0
VERTEX
  8
0
 10
0.755154
 20
6.30974
 30
0.0
 40
0.0104167
 41
0.0104167
  0
VERTEX
  8
0
 10
0.738444
 20
6.29688
 30
0.0
 40
0.0104167
 41
0.0104167
  0
VERTEX
  8
0
 10
0.734321
 20
6.28033
 30
0.0
 40
0.0104167
 41
0.0104167
  0
VERTEX
  8
0
 10
0.734864
 20
6.27746
 30
0.0
 40
0.0104167
 41
0.0104167
  0
VERTEX
  8
0
 10
0.735081
 20
6.27593
 30
0.0
 40
0.0104167
 41
0.0104167
  0
VERTEX
  8
0
 10
0.745226
 20
6.26133
 30
0.0
 40
0.0104167
 41
0.0104167
  0
VERTEX
  8
0
 10
0.746311
 20
6.25976
 30
0.0
 40
0.0104167
 41
0.0104167
  0
VERTEX
  8
0
 10
0.749403
 20
6.25537
 30
0.0
 40
0.0104167
 41
0.0104167
  0
VERTEX
  8
0
 10
0.759278
 20
6.23296
 30
0.0
 40
0.0104167
 41
0.0104167
  0
VERTEX
  8
0
 10
0.762967
 20
6.21403
 30
0.0
 40
0.0104167
 41
0.0104167
  0
VERTEX
  8
0
 10
0.762967
 20
6.20768
 30
0.0
 40
0.0104167
 41
0.0104167
  0
SEQEND
 8
0
  0
POLYLINE
  8
0
 62
     7
 66
     1
 10
0
 20
0
 30
0.0
 70
     1
 40
0
 41
0
  0
VERTEX
  8
0
 10
0.819228
 20
6.27849
 30
0.0
 40
0
 41
0
  0
VERTEX
  8
0
 10
0.818956
 20
6.27903
 30
0.0
 40
0
 41
0
  0
VERTEX
  8
0
 10
0.807129
 20
6.28922
 30
0.0
 40
0
 41
0
  0
VERTEX
  8
0
 10
0.783365
 20
6.29829
 30
0.0
 40
0
 41
0
  0
VERTEX
  8
0
 10
0.775499
 20
6.29829
 30
0.0
 40
0
 41
0
  0
VERTEX
  8
0
 10
0.769206
 20
6.29807
 30
0.0
 40
0
 41
0
  0
VERTEX
  8
0
 10
0.746528
 20
6.28879
 30
0.0
 40
0
 41
0
  0
VERTEX
  8
0
 10
0.735351
 20
6.27903
 30
0.0
 40
0
 41
0
  0
VERTEX
  8
0
 10
0.734864
 20
6.27849
 30
0.0
 40
0
 41
0
  0
SEQEND
 8
0
  0
POLYLINE
  8
0
 62
     0
 66
     1
 10
0
 20
0
 30
0.0
 40
0.75
 41
0.75
  0
VERTEX
  8
0
 10
0.819228
 20
6.27849
 30
0.0
 40
0.0104167
 41
0.0104167
  0
VERTEX
  8
0
 10
0.818956
 20
6.27903
 30
0.0
 40
0.0104167
 41
0.0104167
  0
VERTEX
  8
0
 10
0.807129
 20
6.28922
 30
0.0
 40
0.0104167
 41
0.0104167
  0
VERTEX
  8
0
 10
0.783365
 20
6.29829
 30
0.0
 40
0.0104167
 41
0.0104167
  0
VERTEX
  8
0
 10
0.775499
 20
6.29829
 30
0.0
 40
0.0104167
 41
0.0104167
  0
VERTEX
  8
0
 10
0.769206
 20
6.29807
 30
0.0
 40
0.0104167
 41
0.0104167
  0
VERTEX
  8
0
 10
0.746528
 20
6.28879
 30
0.0
 40
0.0104167
 41
0.0104167
  0
VERTEX
  8
0
 10
0.735351
 20
6.27903
 30
0.0
 40
0.0104167
 41
0.0104167
  0
VERTEX
  8
0
 10
0.734864
 20
6.27849
 30
0.0
 40
0.0104167
 41
0.0104167
  0
SEQEND
 8
0
  0
POLYLINE
  8
0
 62
     7
 66
     1
 10
0
 20
0
 30
0.0
 70
     1
 40
0
 41
0
  0
VERTEX
  8
0
 10
0.791124
 20
6.12435
 30
0.0
 40
0
 41
0
  0
VERTEX
  8
0
 10
0.762967
 20
6.12435
 30
0.0
 40
0
 41
0
  0
VERTEX
  8
0
 10
0.762967
 20
6.20768
 30
0.0
 40
0
 41
0
  0
VERTEX
  8
0
 10
0.769965
 20
6.20768
 30
0.0
 40
0
 41
0
  0
VERTEX
  8
0
 10
0.785807
 20
6.20768
 30
0.0
 40
0
 41
0
  0
VERTEX
  8
0
 10
0.791124
 20
6.20768
 30
0.0
 40
0
 41
0
  0
VERTEX
  8
0
 10
0.791124
 20
6.18685
 30
0.0
 40
0
 41
0
  0
VERTEX
  8
0
 10
0.791124
 20
6.13997
 30
0.0
 40
0
 41
0
  0
VERTEX
  8
0
 10
0.791124
 20
6.12435
 30
0.0
 40
0
 41
0
  0
SEQEND
 8
0
  0
POLYLINE
  8
0
 62
     0
 66
     1
 10
0
 20
0
 30
0.0
 70
     1
 40
0.75
 41
0.75
  0
VERTEX
  8
0
 10
0.791124
 20
6.12435
 30
0.0
 40
0.0104167
 41
0.0104167
  0
VERTEX
  8
0
 10
0.762967
 20
6.12435
 30
0.0
 40
0.0104167
 41
0.0104167
  0
VERTEX
  8
0
 10
0.762967
 20
6.20768
 30
0.0
 40
0.0104167
 41
0.0104167
  0
VERTEX
  8
0
 10
0.769965
 20
6.20768
 30
0.0
 40
0.0104167
 41
0.0104167
  0
VERTEX
  8
0
 10
0.785807
 20
6.20768
 30
0.0
 40
0.0104167
 41
0.0104167
  0
VERTEX
  8
0
 10
0.791124
 20
6.20768
 30
0.0
 40
0.0104167
 41
0.0104167
  0
VERTEX
  8
0
 10
0.791124
 20
6.18685
 30
0.0
 40
0.0104167
 41
0.0104167
  0
VERTEX
  8
0
 10
0.791124
 20
6.13997
 30
0.0
 40
0.0104167
 41
0.0104167
  0
VERTEX
  8
0
 10
0.791124
 20
6.12435
 30
0.0
 40
0.0104167
 41
0.0104167
  0
SEQEND
 8
0
  0
POLYLINE
  8
0
 62
     7
 66
     1
 10
0
 20
0
 30
0.0
 70
     1
 40
0
 41
0
  0
VERTEX
  8
0
 10
0.907769
 20
6.15663
 30
0.0
 40
0
 41
0
  0
VERTEX
  8
0
 10
0.904514
 20
6.15543
 30
0.0
 40
0
 41
0
  0
VERTEX
  8
0
 10
0.894857
 20
6.15158
 30
0.0
 40
0
 41
0
  0
VERTEX
  8
0
 10
0.892144
 20
6.15039
 30
0.0
 40
0
 41
0
  0
VERTEX
  8
0
 10
0.892144
 20
6.15039
 30
0.0
 40
0
 41
0
  0
VERTEX
  8
0
 10
0.892144
 20
6.15186
 30
0.0
 40
0
 41
0
  0
VERTEX
  8
0
 10
0.892144
 20
6.15614
 30
0.0
 40
0
 41
0
  0
VERTEX
  8
0
 10
0.892144
 20
6.16043
 30
0.0
 40
0
 41
0
  0
VERTEX
  8
0
 10
0.892144
 20
6.16183
 30
0.0
 40
0
 41
0
  0
VERTEX
  8
0
 10
0.892144
 20
6.16183
 30
0.0
 40
0
 41
0
  0
VERTEX
  8
0
 10
0.894476
 20
6.16118
 30
0.0
 40
0
 41
0
  0
VERTEX
  8
0
 10
0.90446
 20
6.15782
 30
0.0
 40
0
 41
0
  0
VERTEX
  8
0
 10
0.907769
 20
6.15663
 30
0.0
 40
0
 41
0
  0
SEQEND
 8
0
  0
POLYLINE
  8
0
 62
     0
 66
     1
 10
0
 20
0
 30
0.0
 70
     1
 40
0.75
 41
0.75
  0
VERTEX
  8
0
 10
0.907769
 20
6.15663
 30
0.0
 40
0.0104167
 41
0.0104167
  0
VERTEX
  8
0
 10
0.904514
 20
6.15543
 30
0.0
 40
0.0104167
 41
0.0104167
  0
VERTEX
  8
0
 10
0.894857
 20
6.15158
 30
0.0
 40
0.0104167
 41
0.0104167
  0
VERTEX
  8
0
 10
0.892144
 20
6.15039
 30
0.0
 40
0.0104167
 41
0.0104167
  0
VERTEX
  8
0
 10
0.892144
 20
6.15039
 30
0.0
 40
0.0104167
 41
0.0104167
  0
VERTEX
  8
0
 10
0.892144
 20
6.15186
 30
0.0
 40
0.0104167
 41
0.0104167
  0
VERTEX
  8
0
 10
0.892144
 20
6.15614
 30
0.0
 40
0.0104167
 41
0.0104167
  0
VERTEX
  8
0
 10
0.892144
 20
6.16043
 30
0.0
 40
0.0104167
 41
0.0104167
  0
VERTEX
  8
0
 10
0.892144
 20
6.16183
 30
0.0
 40
0.0104167
 41
0.0104167
  0
VERTEX
  8
0
 10
0.892144
 20
6.16183
 30
0.0
 40
0.0104167
 41
0.0104167
  0
VERTEX
  8
0
 10
0.894476
 20
6.16118
 30
0.0
 40
0.0104167
 41
0.0104167
  0
VERTEX
  8
0
 10
0.90446
 20
6.15782
 30
0.0
 40
0.0104167
 41
0.0104167
  0
VERTEX
  8
0
 10
0.907769
 20
6.15663
 30
0.0
 40
0.0104167
 41
0.0104167
  0
SEQEND
 8
0
  0
POLYLINE
  8
0
 62
     7
 66
     1
 10
0
 20
0
 30
0.0
 70
     1
 40
0
 41
0
  0
VERTEX
  8
0
 10
0.647353
 20
6.15663
 30
0.0
 40
0
 41
0
  0
VERTEX
  8
0
 10
0.650553
 20
6.15543
 30
0.0
 40
0
 41
0
  0
VERTEX
  8
0
 10
0.660211
 20
6.15158
 30
0.0
 40
0
 41
0
  0
VERTEX
  8
0
 10
0.662978
 20
6.15039
 30
0.0
 40
0
 41
0
  0
VERTEX
  8
0
 10
0.662978
 20
6.15039
 30
0.0
 40
0
 41
0
  0
VERTEX
  8
0
 10
0.662978
 20
6.15186
 30
0.0
 40
0
 41
0
  0
VERTEX
  8
0
 10
0.662978
 20
6.15614
 30
0.0
 40
0
 41
0
  0
VERTEX
  8
0
 10
0.662978
 20
6.16043
 30
0.0
 40
0
 41
0
  0
VERTEX
  8
0
 10
0.662978
 20
6.16183
 30
0.0
 40
0
 41
0
  0
VERTEX
  8
0
 10
0.662978
 20
6.16183
 30
0.0
 40
0
 41
0
  0
VERTEX
  8
0
 10
0.66059
 20
6.16118
 30
0.0
 40
0
 41
0
  0
VERTEX
  8
0
 10
0.650608
 20
6.15782
 30
0.0
 40
0
 41
0
  0
VERTEX
  8
0
 10
0.647353
 20
6.15663
 30
0.0
 40
0
 41
0
  0
SEQEND
 8
0
  0
POLYLINE
  8
0
 62
     0
 66
     1
 10
0
 20
0
 30
0.0
 70
     1
 40
0.75
 41
0.75
  0
VERTEX
  8
0
 10
0.647353
 20
6.15663
 30
0.0
 40
0.0104167
 41
0.0104167
  0
VERTEX
  8
0
 10
0.650553
 20
6.15543
 30
0.0
 40
0.0104167
 41
0.0104167
  0
VERTEX
  8
0
 10
0.660211
 20
6.15158
 30
0.0
 40
0.0104167
 41
0.0104167
  0
VERTEX
  8
0
 10
0.662978
 20
6.15039
 30
0.0
 40
0.0104167
 41
0.0104167
  0
VERTEX
  8
0
 10
0.662978
 20
6.15039
 30
0.0
 40
0.0104167
 41
0.0104167
  0
VERTEX
  8
0
 10
0.662978
 20
6.15186
 30
0.0
 40
0.0104167
 41
0.0104167
  0
VERTEX
  8
0
 10
0.662978
 20
6.15614
 30
0.0
 40
0.0104167
 41
0.0104167
  0
VERTEX
  8
0
 10
0.662978
 20
6.16043
 30
0.0
 40
0.0104167
 41
0.0104167
  0
VERTEX
  8
0
 10
0.662978
 20
6.16183
 30
0.0
 40
0.0104167
 41
0.0104167
  0
VERTEX
  8
0
 10
0.662978
 20
6.16183
 30
0.0
 40
0.0104167
 41
0.0104167
  0
VERTEX
  8
0
 10
0.66059
 20
6.16118
 30
0.0
 40
0.0104167
 41
0.0104167
  0
VERTEX
  8
0
 10
0.650608
 20
6.15782
 30
0.0
 40
0.0104167
 41
0.0104167
  0
VERTEX
  8
0
 10
0.647353
 20
6.15663
 30
0.0
 40
0.0104167
 41
0.0104167
  0
SEQEND
 8
0
  0
POLYLINE
  8
0
 62
     7
 66
     1
 10
0
 20
0
 30
0.0
 70
     1
 40
0
 41
0
  0
VERTEX
  8
0
 10
4.64735
 20
7.35628
 30
0.0
 40
0
 41
0
  0
VERTEX
  8
0
 10
5.06765
 20
7.35628
 30
0.0
 40
0
 41
0
  0
VERTEX
  8
0
 10
5.06765
 20
6.73128
 30
0.0
 40
0
 41
0
  0
VERTEX
  8
0
 10
4.64735
 20
6.73128
 30
0.0
 40
0
 41
0
  0
VERTEX
  8
0
 10
4.64735
 20
7.35628
 30
0.0
 40
0
 41
0
  0
SEQEND
 8
0
  0
POLYLINE
  8
0
 62
     0
 66
     1
 10
0
 20
0
 30
0.0
 70
     1
 40
0.75
 41
0.75
  0
VERTEX
  8
0
 10
4.64735
 20
7.35628
 30
0.0
 40
0.0104167
 41
0.0104167
  0
VERTEX
  8
0
 10
5.06765
 20
7.35628
 30
0.0
 40
0.0104167
 41
0.0104167
  0
VERTEX
  8
0
 10
5.06765
 20
6.73128
 30
0.0
 40
0.0104167
 41
0.0104167
  0
VERTEX
  8
0
 10
4.64735
 20
6.73128
 30
0.0
 40
0.0104167
 41
0.0104167
  0
VERTEX
  8
0
 10
4.64735
 20
7.35628
 30
0.0
 40
0.0104167
 41
0.0104167
  0
SEQEND
 8
0
  0
POLYLINE
  8
0
 62
     7
 66
     1
 10
0
 20
0
 30
0.0
 70
     1
 40
0
 41
0
  0
VERTEX
  8
0
 10
5.06765
 20
7.35628
 30
0.0
 40
0
 41
0
  0
VERTEX
  8
0
 10
6.09164
 20
7.35628
 30
0.0
 40
0
 41
0
  0
VERTEX
  8
0
 10
6.09164
 20
6.73128
 30
0.0
 40
0
 41
0
  0
VERTEX
  8
0
 10
5.06765
 20
6.73128
 30
0.0
 40
0
 41
0
  0
VERTEX
  8
0
 10
5.06765
 20
7.35628
 30
0.0
 40
0
 41
0
  0
SEQEND
 8
0
  0
POLYLINE
  8
0
 62
     0
 66
     1
 10
0
 20
0
 30
0.0
 70
     1
 40
0.75
 41
0.75
  0
VERTEX
  8
0
 10
5.06765
 20
7.35628
 30
0.0
 40
0.0104167
 41
0.0104167
  0
VERTEX
  8
0
 10
6.09164
 20
7.35628
 30
0.0
 40
0.0104167
 41
0.0104167
  0
VERTEX
  8
0
 10
6.09164
 20
6.73128
 30
0.0
 40
0.0104167
 41
0.0104167
  0
VERTEX
  8
0
 10
5.06765
 20
6.73128
 30
0.0
 40
0.0104167
 41
0.0104167
  0
VERTEX
  8
0
 10
5.06765
 20
7.35628
 30
0.0
 40
0.0104167
 41
0.0104167
  0
SEQEND
 8
0
  0
POLYLINE
  8
0
 62
     253
 66
     1
 10
0
 20
0
 30
0.0
 40
0.75
 41
0.75
  0
VERTEX
  8
0
 10
6.09164
 20
7.04378
 30
0.0
 40
0.0104167
 41
0.0104167
  0
VERTEX
  8
0
 10
5.06765
 20
7.04378
 30
0.0
 40
0.0104167
 41
0.0104167
  0
SEQEND
 8
0
  0
POLYLINE
  8
0
 62
     7
 66
     1
 10
0
 20
0
 30
0.0
 70
     1
 40
0
 41
0
  0
VERTEX
  8
0
 10
2.84315
 20
11.4035
 30
0.0
 40
0
 41
0
  0
VERTEX
  8
0
 10
3.46815
 20
11.4035
 30
0.0
 40
0
 41
0
  0
VERTEX
  8
0
 10
3.46815
 20
10.7785
 30
0.0
 40
0
 41
0
  0
VERTEX
  8
0
 10
2.84315
 20
10.7785
 30
0.0
 40
0
 41
0
  0
VERTEX
  8
0
 10
2.84315
 20
11.4035
 30
0.0
 40
0
 41
0
  0
SEQEND
 8
0
  0
POLYLINE
  8
0
 62
     0
 66
     1
 10
0
 20
0
 30
0.0
 70
     1
 40
0.75
 41
0.75
  0
VERTEX
  8
0
 10
2.84315
 20
11.4035
 30
0.0
 40
0.0104167
 41
0.0104167
  0
VERTEX
  8
0
 10
2.84315
 20
10.7785
 30
0.0
 40
0.0104167
 41
0.0104167
  0
VERTEX
  8
0
 10
3.46815
 20
10.7785
 30
0.0
 40
0.0104167
 41
0.0104167
  0
VERTEX
  8
0
 10
3.46815
 20
11.4035
 30
0.0
 40
0.0104167
 41
0.0104167
  0
VERTEX
  8
0
 10
2.84315
 20
11.4035
 30
0.0
 40
0.0104167
 41
0.0104167
  0
SEQEND
 8
0
  0
POLYLINE
  8
0
 62
     7
 66
     1
 10
0
 20
0
 30
0.0
 70
     1
 40
0
 41
0
  0
VERTEX
  8
0
 10
2.84315
 20
10.7785
 30
0.0
 40
0
 41
0
  0
VERTEX
  8
0
 10
3.46815
 20
10.7785
 30
0.0
 40
0
 41
0
  0
VERTEX
  8
0
 10
3.46815
 20
10.1535
 30
0.0
 40
0
 41
0
  0
VERTEX
  8
0
 10
2.84315
 20
10.1535
 30
0.0
 40
0
 41
0
  0
VERTEX
  8
0
 10
2.84315
 20
10.7785
 30
0.0
 40
0
 41
0
  0
SEQEND
 8
0
  0
POLYLINE
  8
0
 62
     0
 66
     1
 10
0
 20
0
 30
0.0
 70
     1
 40
0.75
 41
0.75
  0
VERTEX
  8
0
 10
2.84315
 20
10.7785
 30
0.0
 40
0.0104167
 41
0.0104167
  0
VERTEX
  8
0
 10
2.84315
 20
10.1535
 30
0.0
 40
0.0104167
 41
0.0104167
  0
VERTEX
  8
0
 10
3.46815
 20
10.1535
 30
0.0
 40
0.0104167
 41
0.0104167
  0
VERTEX
  8
0
 10
3.46815
 20
10.7785
 30
0.0
 40
0.0104167
 41
0.0104167
  0
VERTEX
  8
0
 10
2.84315
 20
10.7785
 30
0.0
 40
0.0104167
 41
0.0104167
  0
SEQEND
 8
0
  0
POLYLINE
  8
0
 62
     7
 66
     1
 10
0
 20
0
 30
0.0
 70
     1
 40
0
 41
0
  0
VERTEX
  8
0
 10
2.84315
 20
10.1535
 30
0.0
 40
0
 41
0
  0
VERTEX
  8
0
 10
3.46815
 20
10.1535
 30
0.0
 40
0
 41
0
  0
VERTEX
  8
0
 10
3.46815
 20
9.52849
 30
0.0
 40
0
 41
0
  0
VERTEX
  8
0
 10
2.84315
 20
9.52849
 30
0.0
 40
0
 41
0
  0
VERTEX
  8
0
 10
2.84315
 20
10.1535
 30
0.0
 40
0
 41
0
  0
SEQEND
 8
0
  0
POLYLINE
  8
0
 62
     0
 66
     1
 10
0
 20
0
 30
0.0
 70
     1
 40
0.75
 41
0.75
  0
VERTEX
  8
0
 10
2.84315
 20
10.1535
 30
0.0
 40
0.0104167
 41
0.0104167
  0
VERTEX
  8
0
 10
2.84315
 20
9.52849
 30
0.0
 40
0.0104167
 41
0.0104167
  0
VERTEX
  8
0
 10
3.46815
 20
9.52849
 30
0.0
 40
0.0104167
 41
0.0104167
  0
VERTEX
  8
0
 10
3.46815
 20
10.1535
 30
0.0
 40
0.0104167
 41
0.0104167
  0
VERTEX
  8
0
 10
2.84315
 20
10.1535
 30
0.0
 40
0.0104167
 41
0.0104167
  0
SEQEND
 8
0
  0
POLYLINE
  8
0
 62
     7
 66
     1
 10
0
 20
0
 30
0.0
 70
     1
 40
0
 41
0
  0
VERTEX
  8
0
 10
2.84315
 20
9.52849
 30
0.0
 40
0
 41
0
  0
VERTEX
  8
0
 10
3.46815
 20
9.52849
 30
0.0
 40
0
 41
0
  0
VERTEX
  8
0
 10
3.46815
 20
8.90349
 30
0.0
 40
0
 41
0
  0
VERTEX
  8
0
 10
2.84315
 20
8.90349
 30
0.0
 40
0
 41
0
  0
VERTEX
  8
0
 10
2.84315
 20
9.52849
 30
0.0
 40
0
 41
0
  0
SEQEND
 8
0
  0
POLYLINE
  8
0
 62
     0
 66
     1
 10
0
 20
0
 30
0.0
 70
     1
 40
0.75
 41
0.75
  0
VERTEX
  8
0
 10
2.84315
 20
9.52849
 30
0.0
 40
0.0104167
 41
0.0104167
  0
VERTEX
  8
0
 10
2.84315
 20
8.90349
 30
0.0
 40
0.0104167
 41
0.0104167
  0
VERTEX
  8
0
 10
3.46815
 20
8.90349
 30
0.0
 40
0.0104167
 41
0.0104167
  0
VERTEX
  8
0
 10
3.46815
 20
9.52849
 30
0.0
 40
0.0104167
 41
0.0104167
  0
VERTEX
  8
0
 10
2.84315
 20
9.52849
 30
0.0
 40
0.0104167
 41
0.0104167
  0
SEQEND
 8
0
  0
POLYLINE
  8
0
 62
     7
 66
     1
 10
0
 20
0
 30
0.0
 70
     1
 40
0
 41
0
  0
VERTEX
  8
0
 10
2.84315
 20
11.9037
 30
0.0
 40
0
 41
0
  0
VERTEX
  8
0
 10
3.46815
 20
11.9037
 30
0.0
 40
0
 41
0
  0
VERTEX
  8
0
 10
3.46815
 20
11.4035
 30
0.0
 40
0
 41
0
  0
VERTEX
  8
0
 10
2.84315
 20
11.4035
 30
0.0
 40
0
 41
0
  0
VERTEX
  8
0
 10
2.84315
 20
11.9037
 30
0.0
 40
0
 41
0
  0
SEQEND
 8
0
  0
POLYLINE
  8
0
 62
     0
 66
     1
 10
0
 20
0
 30
0.0
 70
     1
 40
0.75
 41
0.75
  0
VERTEX
  8
0
 10
2.84315
 20
11.9037
 30
0.0
 40
0.0104167
 41
0.0104167
  0
VERTEX
  8
0
 10
2.84315
 20
11.4035
 30
0.0
 40
0.0104167
 41
0.0104167
  0
VERTEX
  8
0
 10
3.46815
 20
11.4035
 30
0.0
 40
0.0104167
 41
0.0104167
  0
VERTEX
  8
0
 10
3.46815
 20
11.9037
 30
0.0
 40
0.0104167
 41
0.0104167
  0
VERTEX
  8
0
 10
2.84315
 20
11.9037
 30
0.0
 40
0.0104167
 41
0.0104167
  0
SEQEND
 8
0
  0
POLYLINE
  8
0
 62
     7
 66
     1
 10
0
 20
0
 30
0.0
 70
     1
 40
0
 41
0
  0
VERTEX
  8
0
 10
5.12235
 20
9.84526
 30
0.0
 40
0
 41
0
  0
VERTEX
  8
0
 10
5.74735
 20
9.84526
 30
0.0
 40
0
 41
0
  0
VERTEX
  8
0
 10
5.74735
 20
9.22026
 30
0.0
 40
0
 41
0
  0
VERTEX
  8
0
 10
5.12235
 20
9.22026
 30
0.0
 40
0
 41
0
  0
VERTEX
  8
0
 10
5.12235
 20
9.84526
 30
0.0
 40
0
 41
0
  0
SEQEND
 8
0
  0
POLYLINE
  8
0
 62
     0
 66
     1
 10
0
 20
0
 30
0.0
 70
     1
 40
0.75
 41
0.75
  0
VERTEX
  8
0
 10
5.12235
 20
9.84526
 30
0.0
 40
0.0104167
 41
0.0104167
  0
VERTEX
  8
0
 10
5.74735
 20
9.84526
 30
0.0
 40
0.0104167
 41
0.0104167
  0
VERTEX
  8
0
 10
5.74735
 20
9.22026
 30
0.0
 40
0.0104167
 41
0.0104167
  0
VERTEX
  8
0
 10
5.12235
 20
9.22026
 30
0.0
 40
0.0104167
 41
0.0104167
  0
VERTEX
  8
0
 10
5.12235
 20
9.84526
 30
0.0
 40
0.0104167
 41
0.0104167
  0
SEQEND
 8
0
  0
POLYLINE
  8
0
 62
     0
 66
     1
 10
0
 20
0
 30
0.0
 40
0.75
 41
0.75
  0
VERTEX
  8
0
 10
5.74735
 20
9.22026
 30
0.0
 40
0.0104167
 41
0.0104167
  0
VERTEX
  8
0
 10
5.43485
 20
9.60678
 30
0.0
 40
0.0104167
 41
0.0104167
  0
VERTEX
  8
0
 10
5.43485
 20
9.41928
 30
0.0
 40
0.0104167
 41
0.0104167
  0
VERTEX
  8
0
 10
5.12235
 20
9.80675
 30
0.0
 40
0.0104167
 41
0.0104167
  0
SEQEND
 8
0
  0
POLYLINE
  8
0
 62
     7
 66
     1
 10
0
 20
0
 30
0.0
 70
     1
 40
0
 41
0
  0
VERTEX
  8
0
 10
5.12235
 20
9.84526
 30
0.0
 40
0
 41
0
  0
VERTEX
  8
0
 10
5.74735
 20
9.84526
 30
0.0
 40
0
 41
0
  0
VERTEX
  8
0
 10
5.74735
 20
9.8036
 30
0.0
 40
0
 41
0
  0
VERTEX
  8
0
 10
5.12235
 20
9.8036
 30
0.0
 40
0
 41
0
  0
VERTEX
  8
0
 10
5.12235
 20
9.84526
 30
0.0
 40
0
 41
0
  0
SEQEND
 8
0
  0
POLYLINE
  8
0
 62
     0
 66
     1
 10
0
 20
0
 30
0.0
 70
     1
 40
0.75
 41
0.75
  0
VERTEX
  8
0
 10
5.12235
 20
9.84526
 30
0.0
 40
0.0104167
 41
0.0104167
  0
VERTEX
  8
0
 10
5.74735
 20
9.84526
 30
0.0
 40
0.0104167
 41
0.0104167
  0
VERTEX
  8
0
 10
5.74735
 20
9.8036
 30
0.0
 40
0.0104167
 41
0.0104167
  0
VERTEX
  8
0
 10
5.12235
 20
9.8036
 30
0.0
 40
0.0104167
 41
0.0104167
  0
VERTEX
  8
0
 10
5.12235
 20
9.84526
 30
0.0
 40
0.0104167
 41
0.0104167
  0
SEQEND
 8
0
  0
POLYLINE
  8
0
 62
     7
 66
     1
 10
0
 20
0
 30
0.0
 70
     1
 40
0
 41
0
  0
VERTEX
  8
0
 10
5.74735
 20
9.84526
 30
0.0
 40
0
 41
0
  0
VERTEX
  8
0
 10
6.37235
 20
9.84526
 30
0.0
 40
0
 41
0
  0
VERTEX
  8
0
 10
6.37235
 20
9.22026
 30
0.0
 40
0
 41
0
  0
VERTEX
  8
0
 10
5.74735
 20
9.22026
 30
0.0
 40
0
 41
0
  0
VERTEX
  8
0
 10
5.74735
 20
9.84526
 30
0.0
 40
0
 41
0
  0
SEQEND
 8
0
  0
POLYLINE
  8
0
 62
     0
 66
     1
 10
0
 20
0
 30
0.0
 70
     1
 40
0.75
 41
0.75
  0
VERTEX
  8
0
 10
5.74735
 20
9.84526
 30
0.0
 40
0.0104167
 41
0.0104167
  0
VERTEX
  8
0
 10
6.37235
 20
9.84526
 30
0.0
 40
0.0104167
 41
0.0104167
  0
VERTEX
  8
0
 10
6.37235
 20
9.22026
 30
0.0
 40
0.0104167
 41
0.0104167
  0
VERTEX
  8
0
 10
5.74735
 20
9.22026
 30
0.0
 40
0.0104167
 41
0.0104167
  0
VERTEX
  8
0
 10
5.74735
 20
9.84526
 30
0.0
 40
0.0104167
 41
0.0104167
  0
SEQEND
 8
0
  0
POLYLINE
  8
0
 62
     0
 66
     1
 10
0
 20
0
 30
0.0
 40
0.75
 41
0.75
  0
VERTEX
  8
0
 10
6.37235
 20
9.22026
 30
0.0
 40
0.0104167
 41
0.0104167
  0
VERTEX
  8
0
 10
6.05881
 20
9.63488
 30
0.0
 40
0.0104167
 41
0.0104167
  0
VERTEX
  8
0
 10
6.05881
 20
9.42236
 30
0.0
 40
0.0104167
 41
0.0104167
  0
VERTEX
  8
0
 10
5.74837
 20
9.84526
 30
0.0
 40
0.0104167
 41
0.0104167
  0
SEQEND
 8
0
  0
POLYLINE
  8
0
 62
     7
 66
     1
 10
0
 20
0
 30
0.0
 70
     1
 40
0
 41
0
  0
VERTEX
  8
0
 10
4.19581
 20
12.0069
 30
0.0
 40
0
 41
0
  0
VERTEX
  8
0
 10
5.22217
 20
12.0069
 30
0.0
 40
0
 41
0
  0
VERTEX
  8
0
 10
5.22217
 20
11.2649
 30
0.0
 40
0
 41
0
  0
VERTEX
  8
0
 10
4.19581
 20
11.2649
 30
0.0
 40
0
 41
0
  0
VERTEX
  8
0
 10
4.19581
 20
9.21912
 30
0.0
 40
0
 41
0
  0
VERTEX
  8
0
 10
3.56799
 20
9.21912
 30
0.0
 40
0
 41
0
  0
VERTEX
  8
0
 10
3.56988
 20
11.789
 30
0.0
 40
0
 41
0
  0
VERTEX
  8
0
 10
4.19581
 20
11.789
 30
0.0
 40
0
 41
0
  0
VERTEX
  8
0
 10
4.19581
 20
12.0069
 30
0.0
 40
0
 41
0
  0
SEQEND
 8
0
  0
POLYLINE
  8
0
 62
     0
 66
     1
 10
0
 20
0
 30
0.0
 70
     1
 40
0.75
 41
0.75
  0
VERTEX
  8
0
 10
4.19581
 20
12.0069
 30
0.0
 40
0.0104167
 41
0.0104167
  0
VERTEX
  8
0
 10
5.22217
 20
12.0069
 30
0.0
 40
0.0104167
 41
0.0104167
  0
VERTEX
  8
0
 10
5.22217
 20
11.2649
 30
0.0
 40
0.0104167
 41
0.0104167
  0
VERTEX
  8
0
 10
4.19581
 20
11.2649
 30
0.0
 40
0.0104167
 41
0.0104167
  0
VERTEX
  8
0
 10
4.19581
 20
9.21912
 30
0.0
 40
0.0104167
 41
0.0104167
  0
VERTEX
  8
0
 10
3.56799
 20
9.21912
 30
0.0
 40
0.0104167
 41
0.0104167
  0
VERTEX
  8
0
 10
3.56988
 20
11.789
 30
0.0
 40
0.0104167
 41
0.0104167
  0
VERTEX
  8
0
 10
4.19581
 20
11.789
 30
0.0
 40
0.0104167
 41
0.0104167
  0
VERTEX
  8
0
 10
4.19581
 20
12.0069
 30
0.0
 40
0.0104167
 41
0.0104167
  0
SEQEND
 8
0
  0
POLYLINE
  8
0
 62
     7
 66
     1
 10
0
 20
0
 30
0.0
 70
     1
 40
0
 41
0
  0
VERTEX
  8
0
 10
5.22618
 20
11.8891
 30
0.0
 40
0
 41
0
  0
VERTEX
  8
0
 10
5.85118
 20
11.8891
 30
0.0
 40
0
 41
0
  0
VERTEX
  8
0
 10
5.85118
 20
11.2641
 30
0.0
 40
0
 41
0
  0
VERTEX
  8
0
 10
5.22618
 20
11.2641
 30
0.0
 40
0
 41
0
  0
VERTEX
  8
0
 10
5.22618
 20
11.8891
 30
0.0
 40
0
 41
0
  0
SEQEND
 8
0
  0
POLYLINE
  8
0
 62
     0
 66
     1
 10
0
 20
0
 30
0.0
 70
     1
 40
0.75
 41
0.75
  0
VERTEX
  8
0
 10
5.22618
 20
11.8891
 30
0.0
 40
0.0104167
 41
0.0104167
  0
VERTEX
  8
0
 10
5.85118
 20
11.8891
 30
0.0
 40
0.0104167
 41
0.0104167
  0
VERTEX
  8
0
 10
5.85118
 20
11.2641
 30
0.0
 40
0.0104167
 41
0.0104167
  0
VERTEX
  8
0
 10
5.22618
 20
11.2641
 30
0.0
 40
0.0104167
 41
0.0104167
  0
VERTEX
  8
0
 10
5.22618
 20
11.8891
 30
0.0
 40
0.0104167
 41
0.0104167
  0
SEQEND
 8
0
  0
POLYLINE
  8
0
 62
     7
 66
     1
 10
0
 20
0
 30
0.0
 70
     1
 40
0
 41
0
  0
VERTEX
  8
0
 10
5.22765
 20
12.002
 30
0.0
 40
0
 41
0
  0
VERTEX
  8
0
 10
5.85265
 20
12.002
 30
0.0
 40
0
 41
0
  0
VERTEX
  8
0
 10
5.85265
 20
11.8891
 30
0.0
 40
0
 41
0
  0
VERTEX
  8
0
 10
5.22765
 20
11.8891
 30
0.0
 40
0
 41
0
  0
VERTEX
  8
0
 10
5.22765
 20
12.002
 30
0.0
 40
0
 41
0
  0
SEQEND
 8
0
  0
POLYLINE
  8
0
 62
     0
 66
     1
 10
0
 20
0
 30
0.0
 70
     1
 40
0.812475
 41
0.812475
  0
VERTEX
  8
0
 10
5.22765
 20
12.002
 30
0.0
 40
0.0112844
 41
0.0112844
  0
VERTEX
  8
0
 10
5.22765
 20
11.8891
 30
0.0
 40
0.0112844
 41
0.0112844
  0
VERTEX
  8
0
 10
5.85265
 20
11.8891
 30
0.0
 40
0.0112844
 41
0.0112844
  0
VERTEX
  8
0
 10
5.85265
 20
12.002
 30
0.0
 40
0.0112844
 41
0.0112844
  0
VERTEX
  8
0
 10
5.22765
 20
12.002
 30
0.0
 40
0.0112844
 41
0.0112844
  0
SEQEND
 8
0
  0
POLYLINE
  8
0
 62
     7
 66
     1
 10
0
 20
0
 30
0.0
 70
     1
 40
0
 41
0
  0
VERTEX
  8
0
 10
3.59147
 20
11.2664
 30
0.0
 40
0
 41
0
  0
VERTEX
  8
0
 10
4.17481
 20
11.2664
 30
0.0
 40
0
 41
0
  0
VERTEX
  8
0
 10
4.17481
 20
10.6831
 30
0.0
 40
0
 41
0
  0
VERTEX
  8
0
 10
3.59147
 20
10.6831
 30
0.0
 40
0
 41
0
  0
VERTEX
  8
0
 10
3.59147
 20
11.2664
 30
0.0
 40
0
 41
0
  0
SEQEND
 8
0
  0
POLYLINE
  8
0
 62
     0
 66
     1
 10
0
 20
0
 30
0.0
 70
     1
 40
0.75
 41
0.75
  0
VERTEX
  8
0
 10
3.59147
 20
11.2664
 30
0.0
 40
0.0104167
 41
0.0104167
  0
VERTEX
  8
0
 10
3.59147
 20
10.6831
 30
0.0
 40
0.0104167
 41
0.0104167
  0
VERTEX
  8
0
 10
4.17481
 20
10.6831
 30
0.0
 40
0.0104167
 41
0.0104167
  0
VERTEX
  8
0
 10
4.17481
 20
11.2664
 30
0.0
 40
0.0104167
 41
0.0104167
  0
VERTEX
  8
0
 10
3.59147
 20
11.2664
 30
0.0
 40
0.0104167
 41
0.0104167
  0
SEQEND
 8
0
  0
POLYLINE
  8
0
 62
     7
 66
     1
 10
0
 20
0
 30
0.0
 70
     1
 40
0
 41
0
  0
VERTEX
  8
0
 10
3.73731
 20
10.9122
 30
0.0
 40
0
 41
0
  0
VERTEX
  8
0
 10
3.74539
 20
10.9122
 30
0.0
 40
0
 41
0
  0
VERTEX
  8
0
 10
3.76969
 20
10.9057
 30
0.0
 40
0
 41
0
  0
VERTEX
  8
0
 10
3.79622
 20
10.8878
 30
0.0
 40
0
 41
0
  0
VERTEX
  8
0
 10
3.81407
 20
10.8613
 30
0.0
 40
0
 41
0
  0
VERTEX
  8
0
 10
3.82064
 20
10.837
 30
0.0
 40
0
 41
0
  0
VERTEX
  8
0
 10
3.82064
 20
10.8289
 30
0.0
 40
0
 41
0
  0
VERTEX
  8
0
 10
3.82064
 20
10.8208
 30
0.0
 40
0
 41
0
  0
VERTEX
  8
0
 10
3.81407
 20
10.7964
 30
0.0
 40
0
 41
0
  0
VERTEX
  8
0
 10
3.79622
 20
10.77
 30
0.0
 40
0
 41
0
  0
VERTEX
  8
0
 10
3.76969
 20
10.7521
 30
0.0
 40
0
 41
0
  0
VERTEX
  8
0
 10
3.74539
 20
10.7456
 30
0.0
 40
0
 41
0
  0
VERTEX
  8
0
 10
3.73731
 20
10.7456
 30
0.0
 40
0
 41
0
  0
VERTEX
  8
0
 10
3.72917
 20
10.7456
 30
0.0
 40
0
 41
0
  0
VERTEX
  8
0
 10
3.70481
 20
10.7521
 30
0.0
 40
0
 41
0
  0
VERTEX
  8
0
 10
3.67833
 20
10.77
 30
0.0
 40
0
 41
0
  0
VERTEX
  8
0
 10
3.66049
 20
10.7964
 30
0.0
 40
0
 41
0
  0
VERTEX
  8
0
 10
3.65397
 20
10.8208
 30
0.0
 40
0
 41
0
  0
VERTEX
  8
0
 10
3.65397
 20
10.8289
 30
0.0
 40
0
 41
0
  0
VERTEX
  8
0
 10
3.65397
 20
10.837
 30
0.0
 40
0
 41
0
  0
VERTEX
  8
0
 10
3.66049
 20
10.8613
 30
0.0
 40
0
 41
0
  0
VERTEX
  8
0
 10
3.67833
 20
10.8878
 30
0.0
 40
0
 41
0
  0
VERTEX
  8
0
 10
3.70481
 20
10.9057
 30
0.0
 40
0
 41
0
  0
VERTEX
  8
0
 10
3.72917
 20
10.9122
 30
0.0
 40
0
 41
0
  0
VERTEX
  8
0
 10
3.73731
 20
10.9122
 30
0.0
 40
0
 41
0
  0
SEQEND
 8
0
  0
POLYLINE
  8
0
 62
     0
 66
     1
 10
0
 20
0
 30
0.0
 70
     1
 40
0.75
 41
0.75
  0
VERTEX
  8
0
 10
3.73731
 20
10.9122
 30
0.0
 40
0.0104167
 41
0.0104167
  0
VERTEX
  8
0
 10
3.74539
 20
10.9122
 30
0.0
 40
0.0104167
 41
0.0104167
  0
VERTEX
  8
0
 10
3.76969
 20
10.9057
 30
0.0
 40
0.0104167
 41
0.0104167
  0
VERTEX
  8
0
 10
3.79622
 20
10.8878
 30
0.0
 40
0.0104167
 41
0.0104167
  0
VERTEX
  8
0
 10
3.81407
 20
10.8613
 30
0.0
 40
0.0104167
 41
0.0104167
  0
VERTEX
  8
0
 10
3.82064
 20
10.837
 30
0.0
 40
0.0104167
 41
0.0104167
  0
VERTEX
  8
0
 10
3.82064
 20
10.8289
 30
0.0
 40
0.0104167
 41
0.0104167
  0
VERTEX
  8
0
 10
3.82064
 20
10.8208
 30
0.0
 40
0.0104167
 41
0.0104167
  0
VERTEX
  8
0
 10
3.81407
 20
10.7964
 30
0.0
 40
0.0104167
 41
0.0104167
  0
VERTEX
  8
0
 10
3.79622
 20
10.77
 30
0.0
 40
0.0104167
 41
0.0104167
  0
VERTEX
  8
0
 10
3.76969
 20
10.7521
 30
0.0
 40
0.0104167
 41
0.0104167
  0
VERTEX
  8
0
 10
3.74539
 20
10.7456
 30
0.0
 40
0.0104167
 41
0.0104167
  0
VERTEX
  8
0
 10
3.73731
 20
10.7456
 30
0.0
 40
0.0104167
 41
0.0104167
  0
VERTEX
  8
0
 10
3.72917
 20
10.7456
 30
0.0
 40
0.0104167
 41
0.0104167
  0
VERTEX
  8
0
 10
3.70481
 20
10.7521
 30
0.0
 40
0.0104167
 41
0.0104167
  0
VERTEX
  8
0
 10
3.67833
 20
10.77
 30
0.0
 40
0.0104167
 41
0.0104167
  0
VERTEX
  8
0
 10
3.66049
 20
10.7964
 30
0.0
 40
0.0104167
 41
0.0104167
  0
VERTEX
  8
0
 10
3.65397
 20
10.8208
 30
0.0
 40
0.0104167
 41
0.0104167
  0
VERTEX
  8
0
 10
3.65397
 20
10.8289
 30
0.0
 40
0.0104167
 41
0.0104167
  0
VERTEX
  8
0
 10
3.65397
 20
10.837
 30
0.0
 40
0.0104167
 41
0.0104167
  0
VERTEX
  8
0
 10
3.66049
 20
10.8613
 30
0.0
 40
0.0104167
 41
0.0104167
  0
VERTEX
  8
0
 10
3.67833
 20
10.8878
 30
0.0
 40
0.0104167
 41
0.0104167
  0
VERTEX
  8
0
 10
3.70481
 20
10.9057
 30
0.0
 40
0.0104167
 41
0.0104167
  0
VERTEX
  8
0
 10
3.72917
 20
10.9122
 30
0.0
 40
0.0104167
 41
0.0104167
  0
VERTEX
  8
0
 10
3.73731
 20
10.9122
 30
0.0
 40
0.0104167
 41
0.0104167
  0
SEQEND
 8
0
  0
POLYLINE
  8
0
 62
     7
 66
     1
 10
0
 20
0
 30
0.0
 70
     1
 40
0
 41
0
  0
VERTEX
  8
0
 10
3.73731
 20
11.2039
 30
0.0
 40
0
 41
0
  0
VERTEX
  8
0
 10
3.74539
 20
11.2039
 30
0.0
 40
0
 41
0
  0
VERTEX
  8
0
 10
3.76969
 20
11.1974
 30
0.0
 40
0
 41
0
  0
VERTEX
  8
0
 10
3.79622
 20
11.1795
 30
0.0
 40
0
 41
0
  0
VERTEX
  8
0
 10
3.81407
 20
11.153
 30
0.0
 40
0
 41
0
  0
VERTEX
  8
0
 10
3.82064
 20
11.1287
 30
0.0
 40
0
 41
0
  0
VERTEX
  8
0
 10
3.82064
 20
11.1206
 30
0.0
 40
0
 41
0
  0
VERTEX
  8
0
 10
3.82064
 20
11.1125
 30
0.0
 40
0
 41
0
  0
VERTEX
  8
0
 10
3.81407
 20
11.0881
 30
0.0
 40
0
 41
0
  0
VERTEX
  8
0
 10
3.79622
 20
11.0616
 30
0.0
 40
0
 41
0
  0
VERTEX
  8
0
 10
3.76969
 20
11.0438
 30
0.0
 40
0
 41
0
  0
VERTEX
  8
0
 10
3.74539
 20
11.0372
 30
0.0
 40
0
 41
0
  0
VERTEX
  8
0
 10
3.73731
 20
11.0372
 30
0.0
 40
0
 41
0
  0
VERTEX
  8
0
 10
3.72917
 20
11.0372
 30
0.0
 40
0
 41
0
  0
VERTEX
  8
0
 10
3.70481
 20
11.0438
 30
0.0
 40
0
 41
0
  0
VERTEX
  8
0
 10
3.67833
 20
11.0616
 30
0.0
 40
0
 41
0
  0
VERTEX
  8
0
 10
3.66049
 20
11.0881
 30
0.0
 40
0
 41
0
  0
VERTEX
  8
0
 10
3.65397
 20
11.1125
 30
0.0
 40
0
 41
0
  0
VERTEX
  8
0
 10
3.65397
 20
11.1206
 30
0.0
 40
0
 41
0
  0
VERTEX
  8
0
 10
3.65397
 20
11.1287
 30
0.0
 40
0
 41
0
  0
VERTEX
  8
0
 10
3.66049
 20
11.153
 30
0.0
 40
0
 41
0
  0
VERTEX
  8
0
 10
3.67833
 20
11.1795
 30
0.0
 40
0
 41
0
  0
VERTEX
  8
0
 10
3.70481
 20
11.1974
 30
0.0
 40
0
 41
0
  0
VERTEX
  8
0
 10
3.72917
 20
11.2039
 30
0.0
 40
0
 41
0
  0
VERTEX
  8
0
 10
3.73731
 20
11.2039
 30
0.0
 40
0
 41
0
  0
SEQEND
 8
0
  0
POLYLINE
  8
0
 62
     0
 66
     1
 10
0
 20
0
 30
0.0
 70
     1
 40
0.75
 41
0.75
  0
VERTEX
  8
0
 10
3.73731
 20
11.2039
 30
0.0
 40
0.0104167
 41
0.0104167
  0
VERTEX
  8
0
 10
3.74539
 20
11.2039
 30
0.0
 40
0.0104167
 41
0.0104167
  0
VERTEX
  8
0
 10
3.76969
 20
11.1974
 30
0.0
 40
0.0104167
 41
0.0104167
  0
VERTEX
  8
0
 10
3.79622
 20
11.1795
 30
0.0
 40
0.0104167
 41
0.0104167
  0
VERTEX
  8
0
 10
3.81407
 20
11.153
 30
0.0
 40
0.0104167
 41
0.0104167
  0
VERTEX
  8
0
 10
3.82064
 20
11.1287
 30
0.0
 40
0.0104167
 41
0.0104167
  0
VERTEX
  8
0
 10
3.82064
 20
11.1206
 30
0.0
 40
0.0104167
 41
0.0104167
  0
VERTEX
  8
0
 10
3.82064
 20
11.1125
 30
0.0
 40
0.0104167
 41
0.0104167
  0
VERTEX
  8
0
 10
3.81407
 20
11.0881
 30
0.0
 40
0.0104167
 41
0.0104167
  0
VERTEX
  8
0
 10
3.79622
 20
11.0616
 30
0.0
 40
0.0104167
 41
0.0104167
  0
VERTEX
  8
0
 10
3.76969
 20
11.0438
 30
0.0
 40
0.0104167
 41
0.0104167
  0
VERTEX
  8
0
 10
3.74539
 20
11.0372
 30
0.0
 40
0.0104167
 41
0.0104167
  0
VERTEX
  8
0
 10
3.73731
 20
11.0372
 30
0.0
 40
0.0104167
 41
0.0104167
  0
VERTEX
  8
0
 10
3.72917
 20
11.0372
 30
0.0
 40
0.0104167
 41
0.0104167
  0
VERTEX
  8
0
 10
3.70481
 20
11.0438
 30
0.0
 40
0.0104167
 41
0.0104167
  0
VERTEX
  8
0
 10
3.67833
 20
11.0616
 30
0.0
 40
0.0104167
 41
0.0104167
  0
VERTEX
  8
0
 10
3.66049
 20
11.0881
 30
0.0
 40
0.0104167
 41
0.0104167
  0
VERTEX
  8
0
 10
3.65397
 20
11.1125
 30
0.0
 40
0.0104167
 41
0.0104167
  0
VERTEX
  8
0
 10
3.65397
 20
11.1206
 30
0.0
 40
0.0104167
 41
0.0104167
  0
VERTEX
  8
0
 10
3.65397
 20
11.1287
 30
0.0
 40
0.0104167
 41
0.0104167
  0
VERTEX
  8
0
 10
3.66049
 20
11.153
 30
0.0
 40
0.0104167
 41
0.0104167
  0
VERTEX
  8
0
 10
3.67833
 20
11.1795
 30
0.0
 40
0.0104167
 41
0.0104167
  0
VERTEX
  8
0
 10
3.70481
 20
11.1974
 30
0.0
 40
0.0104167
 41
0.0104167
  0
VERTEX
  8
0
 10
3.72917
 20
11.2039
 30
0.0
 40
0.0104167
 41
0.0104167
  0
VERTEX
  8
0
 10
3.73731
 20
11.2039
 30
0.0
 40
0.0104167
 41
0.0104167
  0
SEQEND
 8
0
  0
POLYLINE
  8
0
 62
     7
 66
     1
 10
0
 20
0
 30
0.0
 70
     1
 40
0
 41
0
  0
VERTEX
  8
0
 10
4.02897
 20
10.9122
 30
0.0
 40
0
 41
0
  0
VERTEX
  8
0
 10
4.03706
 20
10.9122
 30
0.0
 40
0
 41
0
  0
VERTEX
  8
0
 10
4.06136
 20
10.9057
 30
0.0
 40
0
 41
0
  0
VERTEX
  8
0
 10
4.08789
 20
10.8878
 30
0.0
 40
0
 41
0
  0
VERTEX
  8
0
 10
4.10574
 20
10.8613
 30
0.0
 40
0
 41
0
  0
VERTEX
  8
0
 10
4.11231
 20
10.837
 30
0.0
 40
0
 41
0
  0
VERTEX
  8
0
 10
4.11231
 20
10.8289
 30
0.0
 40
0
 41
0
  0
VERTEX
  8
0
 10
4.11231
 20
10.8208
 30
0.0
 40
0
 41
0
  0
VERTEX
  8
0
 10
4.10574
 20
10.7964
 30
0.0
 40
0
 41
0
  0
VERTEX
  8
0
 10
4.08789
 20
10.77
 30
0.0
 40
0
 41
0
  0
VERTEX
  8
0
 10
4.06136
 20
10.7521
 30
0.0
 40
0
 41
0
  0
VERTEX
  8
0
 10
4.03706
 20
10.7456
 30
0.0
 40
0
 41
0
  0
VERTEX
  8
0
 10
4.02897
 20
10.7456
 30
0.0
 40
0
 41
0
  0
VERTEX
  8
0
 10
4.02083
 20
10.7456
 30
0.0
 40
0
 41
0
  0
VERTEX
  8
0
 10
3.99647
 20
10.7521
 30
0.0
 40
0
 41
0
  0
VERTEX
  8
0
 10
3.97
 20
10.77
 30
0.0
 40
0
 41
0
  0
VERTEX
  8
0
 10
3.95215
 20
10.7964
 30
0.0
 40
0
 41
0
  0
VERTEX
  8
0
 10
3.94564
 20
10.8208
 30
0.0
 40
0
 41
0
  0
VERTEX
  8
0
 10
3.94564
 20
10.8289
 30
0.0
 40
0
 41
0
  0
VERTEX
  8
0
 10
3.94564
 20
10.837
 30
0.0
 40
0
 41
0
  0
VERTEX
  8
0
 10
3.95215
 20
10.8613
 30
0.0
 40
0
 41
0
  0
VERTEX
  8
0
 10
3.97
 20
10.8878
 30
0.0
 40
0
 41
0
  0
VERTEX
  8
0
 10
3.99647
 20
10.9057
 30
0.0
 40
0
 41
0
  0
VERTEX
  8
0
 10
4.02083
 20
10.9122
 30
0.0
 40
0
 41
0
  0
VERTEX
  8
0
 10
4.02897
 20
10.9122
 30
0.0
 40
0
 41
0
  0
SEQEND
 8
0
  0
POLYLINE
  8
0
 62
     0
 66
     1
 10
0
 20
0
 30
0.0
 70
     1
 40
0.75
 41
0.75
  0
VERTEX
  8
0
 10
4.02897
 20
10.9122
 30
0.0
 40
0.0104167
 41
0.0104167
  0
VERTEX
  8
0
 10
4.03706
 20
10.9122
 30
0.0
 40
0.0104167
 41
0.0104167
  0
VERTEX
  8
0
 10
4.06136
 20
10.9057
 30
0.0
 40
0.0104167
 41
0.0104167
  0
VERTEX
  8
0
 10
4.08789
 20
10.8878
 30
0.0
 40
0.0104167
 41
0.0104167
  0
VERTEX
  8
0
 10
4.10574
 20
10.8613
 30
0.0
 40
0.0104167
 41
0.0104167
  0
VERTEX
  8
0
 10
4.11231
 20
10.837
 30
0.0
 40
0.0104167
 41
0.0104167
  0
VERTEX
  8
0
 10
4.11231
 20
10.8289
 30
0.0
 40
0.0104167
 41
0.0104167
  0
VERTEX
  8
0
 10
4.11231
 20
10.8208
 30
0.0
 40
0.0104167
 41
0.0104167
  0
VERTEX
  8
0
 10
4.10574
 20
10.7964
 30
0.0
 40
0.0104167
 41
0.0104167
  0
VERTEX
  8
0
 10
4.08789
 20
10.77
 30
0.0
 40
0.0104167
 41
0.0104167
  0
VERTEX
  8
0
 10
4.06136
 20
10.7521
 30
0.0
 40
0.0104167
 41
0.0104167
  0
VERTEX
  8
0
 10
4.03706
 20
10.7456
 30
0.0
 40
0.0104167
 41
0.0104167
  0
VERTEX
  8
0
 10
4.02897
 20
10.7456
 30
0.0
 40
0.0104167
 41
0.0104167
  0
VERTEX
  8
0
 10
4.02083
 20
10.7456
 30
0.0
 40
0.0104167
 41
0.0104167
  0
VERTEX
  8
0
 10
3.99647
 20
10.7521
 30
0.0
 40
0.0104167
 41
0.0104167
  0
VERTEX
  8
0
 10
3.97
 20
10.77
 30
0.0
 40
0.0104167
 41
0.0104167
  0
VERTEX
  8
0
 10
3.95215
 20
10.7964
 30
0.0
 40
0.0104167
 41
0.0104167
  0
VERTEX
  8
0
 10
3.94564
 20
10.8208
 30
0.0
 40
0.0104167
 41
0.0104167
  0
VERTEX
  8
0
 10
3.94564
 20
10.8289
 30
0.0
 40
0.0104167
 41
0.0104167
  0
VERTEX
  8
0
 10
3.94564
 20
10.837
 30
0.0
 40
0.0104167
 41
0.0104167
  0
VERTEX
  8
0
 10
3.95215
 20
10.8613
 30
0.0
 40
0.0104167
 41
0.0104167
  0
VERTEX
  8
0
 10
3.97
 20
10.8878
 30
0.0
 40
0.0104167
 41
0.0104167
  0
VERTEX
  8
0
 10
3.99647
 20
10.9057
 30
0.0
 40
0.0104167
 41
0.0104167
  0
VERTEX
  8
0
 10
4.02083
 20
10.9122
 30
0.0
 40
0.0104167
 41
0.0104167
  0
VERTEX
  8
0
 10
4.02897
 20
10.9122
 30
0.0
 40
0.0104167
 41
0.0104167
  0
SEQEND
 8
0
  0
POLYLINE
  8
0
 62
     7
 66
     1
 10
0
 20
0
 30
0.0
 70
     1
 40
0
 41
0
  0
VERTEX
  8
0
 10
4.02897
 20
11.2039
 30
0.0
 40
0
 41
0
  0
VERTEX
  8
0
 10
4.03706
 20
11.2039
 30
0.0
 40
0
 41
0
  0
VERTEX
  8
0
 10
4.06136
 20
11.1974
 30
0.0
 40
0
 41
0
  0
VERTEX
  8
0
 10
4.08789
 20
11.1795
 30
0.0
 40
0
 41
0
  0
VERTEX
  8
0
 10
4.10574
 20
11.153
 30
0.0
 40
0
 41
0
  0
VERTEX
  8
0
 10
4.11231
 20
11.1287
 30
0.0
 40
0
 41
0
  0
VERTEX
  8
0
 10
4.11231
 20
11.1206
 30
0.0
 40
0
 41
0
  0
VERTEX
  8
0
 10
4.11231
 20
11.1125
 30
0.0
 40
0
 41
0
  0
VERTEX
  8
0
 10
4.10574
 20
11.0881
 30
0.0
 40
0
 41
0
  0
VERTEX
  8
0
 10
4.08789
 20
11.0616
 30
0.0
 40
0
 41
0
  0
VERTEX
  8
0
 10
4.06136
 20
11.0438
 30
0.0
 40
0
 41
0
  0
VERTEX
  8
0
 10
4.03706
 20
11.0372
 30
0.0
 40
0
 41
0
  0
VERTEX
  8
0
 10
4.02897
 20
11.0372
 30
0.0
 40
0
 41
0
  0
VERTEX
  8
0
 10
4.02083
 20
11.0372
 30
0.0
 40
0
 41
0
  0
VERTEX
  8
0
 10
3.99647
 20
11.0438
 30
0.0
 40
0
 41
0
  0
VERTEX
  8
0
 10
3.97
 20
11.0616
 30
0.0
 40
0
 41
0
  0
VERTEX
  8
0
 10
3.95215
 20
11.0881
 30
0.0
 40
0
 41
0
  0
VERTEX
  8
0
 10
3.94564
 20
11.1125
 30
0.0
 40
0
 41
0
  0
VERTEX
  8
0
 10
3.94564
 20
11.1206
 30
0.0
 40
0
 41
0
  0
VERTEX
  8
0
 10
3.94564
 20
11.1287
 30
0.0
 40
0
 41
0
  0
VERTEX
  8
0
 10
3.95215
 20
11.153
 30
0.0
 40
0
 41
0
  0
VERTEX
  8
0
 10
3.97
 20
11.1795
 30
0.0
 40
0
 41
0
  0
VERTEX
  8
0
 10
3.99647
 20
11.1974
 30
0.0
 40
0
 41
0
  0
VERTEX
  8
0
 10
4.02083
 20
11.2039
 30
0.0
 40
0
 41
0
  0
VERTEX
  8
0
 10
4.02897
 20
11.2039
 30
0.0
 40
0
 41
0
  0
SEQEND
 8
0
  0
POLYLINE
  8
0
 62
     0
 66
     1
 10
0
 20
0
 30
0.0
 70
     1
 40
0.75
 41
0.75
  0
VERTEX
  8
0
 10
4.02897
 20
11.2039
 30
0.0
 40
0.0104167
 41
0.0104167
  0
VERTEX
  8
0
 10
4.03706
 20
11.2039
 30
0.0
 40
0.0104167
 41
0.0104167
  0
VERTEX
  8
0
 10
4.06136
 20
11.1974
 30
0.0
 40
0.0104167
 41
0.0104167
  0
VERTEX
  8
0
 10
4.08789
 20
11.1795
 30
0.0
 40
0.0104167
 41
0.0104167
  0
VERTEX
  8
0
 10
4.10574
 20
11.153
 30
0.0
 40
0.0104167
 41
0.0104167
  0
VERTEX
  8
0
 10
4.11231
 20
11.1287
 30
0.0
 40
0.0104167
 41
0.0104167
  0
VERTEX
  8
0
 10
4.11231
 20
11.1206
 30
0.0
 40
0.0104167
 41
0.0104167
  0
VERTEX
  8
0
 10
4.11231
 20
11.1125
 30
0.0
 40
0.0104167
 41
0.0104167
  0
VERTEX
  8
0
 10
4.10574
 20
11.0881
 30
0.0
 40
0.0104167
 41
0.0104167
  0
VERTEX
  8
0
 10
4.08789
 20
11.0616
 30
0.0
 40
0.0104167
 41
0.0104167
  0
VERTEX
  8
0
 10
4.06136
 20
11.0438
 30
0.0
 40
0.0104167
 41
0.0104167
  0
VERTEX
  8
0
 10
4.03706
 20
11.0372
 30
0.0
 40
0.0104167
 41
0.0104167
  0
VERTEX
  8
0
 10
4.02897
 20
11.0372
 30
0.0
 40
0.0104167
 41
0.0104167
  0
VERTEX
  8
0
 10
4.02083
 20
11.0372
 30
0.0
 40
0.0104167
 41
0.0104167
  0
VERTEX
  8
0
 10
3.99647
 20
11.0438
 30
0.0
 40
0.0104167
 41
0.0104167
  0
VERTEX
  8
0
 10
3.97
 20
11.0616
 30
0.0
 40
0.0104167
 41
0.0104167
  0
VERTEX
  8
0
 10
3.95215
 20
11.0881
 30
0.0
 40
0.0104167
 41
0.0104167
  0
VERTEX
  8
0
 10
3.94564
 20
11.1125
 30
0.0
 40
0.0104167
 41
0.0104167
  0
VERTEX
  8
0
 10
3.94564
 20
11.1206
 30
0.0
 40
0.0104167
 41
0.0104167
  0
VERTEX
  8
0
 10
3.94564
 20
11.1287
 30
0.0
 40
0.0104167
 41
0.0104167
  0
VERTEX
  8
0
 10
3.95215
 20
11.153
 30
0.0
 40
0.0104167
 41
0.0104167
  0
VERTEX
  8
0
 10
3.97
 20
11.1795
 30
0.0
 40
0.0104167
 41
0.0104167
  0
VERTEX
  8
0
 10
3.99647
 20
11.1974
 30
0.0
 40
0.0104167
 41
0.0104167
  0
VERTEX
  8
0
 10
4.02083
 20
11.2039
 30
0.0
 40
0.0104167
 41
0.0104167
  0
VERTEX
  8
0
 10
4.02897
 20
11.2039
 30
0.0
 40
0.0104167
 41
0.0104167
  0
SEQEND
 8
0
  0
POLYLINE
  8
0
 62
     7
 66
     1
 10
0
 20
0
 30
0.0
 70
     1
 40
0
 41
0
  0
VERTEX
  8
0
 10
3.67188
 20
10.459
 30
0.0
 40
0
 41
0
  0
VERTEX
  8
0
 10
4.14063
 20
10.459
 30
0.0
 40
0
 41
0
  0
VERTEX
  8
0
 10
4.14063
 20
10.0774
 30
0.0
 40
0
 41
0
  0
VERTEX
  8
0
 10
3.67188
 20
10.0774
 30
0.0
 40
0
 41
0
  0
VERTEX
  8
0
 10
3.67188
 20
10.459
 30
0.0
 40
0
 41
0
  0
SEQEND
 8
0
  0
POLYLINE
  8
0
 62
     0
 66
     1
 10
0
 20
0
 30
0.0
 70
     1
 40
0.75
 41
0.75
  0
VERTEX
  8
0
 10
3.67188
 20
10.459
 30
0.0
 40
0.0104167
 41
0.0104167
  0
VERTEX
  8
0
 10
3.67188
 20
10.0774
 30
0.0
 40
0.0104167
 41
0.0104167
  0
VERTEX
  8
0
 10
4.14063
 20
10.0774
 30
0.0
 40
0.0104167
 41
0.0104167
  0
VERTEX
  8
0
 10
4.14063
 20
10.459
 30
0.0
 40
0.0104167
 41
0.0104167
  0
VERTEX
  8
0
 10
3.67188
 20
10.459
 30
0.0
 40
0.0104167
 41
0.0104167
  0
SEQEND
 8
0
  0
POLYLINE
  8
0
 62
     7
 66
     1
 10
0
 20
0
 30
0.0
 70
     1
 40
0
 41
0
  0
VERTEX
  8
0
 10
3.90625
 20
10.3047
 30
0.0
 40
0
 41
0
  0
VERTEX
  8
0
 10
3.91265
 20
10.3047
 30
0.0
 40
0
 41
0
  0
VERTEX
  8
0
 10
3.93201
 20
10.2941
 30
0.0
 40
0
 41
0
  0
VERTEX
  8
0
 10
3.94271
 20
10.2747
 30
0.0
 40
0
 41
0
  0
VERTEX
  8
0
 10
3.94271
 20
10.2682
 30
0.0
 40
0
 41
0
  0
VERTEX
  8
0
 10
3.94271
 20
10.2618
 30
0.0
 40
0
 41
0
  0
VERTEX
  8
0
 10
3.93201
 20
10.2425
 30
0.0
 40
0
 41
0
  0
VERTEX
  8
0
 10
3.91265
 20
10.2318
 30
0.0
 40
0
 41
0
  0
VERTEX
  8
0
 10
3.90625
 20
10.2318
 30
0.0
 40
0
 41
0
  0
VERTEX
  8
0
 10
3.89979
 20
10.2318
 30
0.0
 40
0
 41
0
  0
VERTEX
  8
0
 10
3.88043
 20
10.2425
 30
0.0
 40
0
 41
0
  0
VERTEX
  8
0
 10
3.86979
 20
10.2618
 30
0.0
 40
0
 41
0
  0
VERTEX
  8
0
 10
3.86979
 20
10.2682
 30
0.0
 40
0
 41
0
  0
VERTEX
  8
0
 10
3.86979
 20
10.2747
 30
0.0
 40
0
 41
0
  0
VERTEX
  8
0
 10
3.88043
 20
10.2941
 30
0.0
 40
0
 41
0
  0
VERTEX
  8
0
 10
3.89979
 20
10.3047
 30
0.0
 40
0
 41
0
  0
VERTEX
  8
0
 10
3.90625
 20
10.3047
 30
0.0
 40
0
 41
0
  0
SEQEND
 8
0
  0
POLYLINE
  8
0
 62
     0
 66
     1
 10
0
 20
0
 30
0.0
 70
     1
 40
0.6
 41
0.6
  0
VERTEX
  8
0
 10
3.90625
 20
10.3047
 30
0.0
 40
0.00833333
 41
0.00833333
  0
VERTEX
  8
0
 10
3.91265
 20
10.3047
 30
0.0
 40
0.00833333
 41
0.00833333
  0
VERTEX
  8
0
 10
3.93201
 20
10.2941
 30
0.0
 40
0.00833333
 41
0.00833333
  0
VERTEX
  8
0
 10
3.94271
 20
10.2747
 30
0.0
 40
0.00833333
 41
0.00833333
  0
VERTEX
  8
0
 10
3.94271
 20
10.2682
 30
0.0
 40
0.00833333
 41
0.00833333
  0
VERTEX
  8
0
 10
3.94271
 20
10.2618
 30
0.0
 40
0.00833333
 41
0.00833333
  0
VERTEX
  8
0
 10
3.93201
 20
10.2425
 30
0.0
 40
0.00833333
 41
0.00833333
  0
VERTEX
  8
0
 10
3.91265
 20
10.2318
 30
0.0
 40
0.00833333
 41
0.00833333
  0
VERTEX
  8
0
 10
3.90625
 20
10.2318
 30
0.0
 40
0.00833333
 41
0.00833333
  0
VERTEX
  8
0
 10
3.89979
 20
10.2318
 30
0.0
 40
0.00833333
 41
0.00833333
  0
VERTEX
  8
0
 10
3.88043
 20
10.2425
 30
0.0
 40
0.00833333
 41
0.00833333
  0
VERTEX
  8
0
 10
3.86979
 20
10.2618
 30
0.0
 40
0.00833333
 41
0.00833333
  0
VERTEX
  8
0
 10
3.86979
 20
10.2682
 30
0.0
 40
0.00833333
 41
0.00833333
  0
VERTEX
  8
0
 10
3.86979
 20
10.2747
 30
0.0
 40
0.00833333
 41
0.00833333
  0
VERTEX
  8
0
 10
3.88043
 20
10.2941
 30
0.0
 40
0.00833333
 41
0.00833333
  0
VERTEX
  8
0
 10
3.89979
 20
10.3047
 30
0.0
 40
0.00833333
 41
0.00833333
  0
VERTEX
  8
0
 10
3.90625
 20
10.3047
 30
0.0
 40
0.00833333
 41
0.00833333
  0
SEQEND
 8
0
  0
POLYLINE
  8
0
 62
     7
 66
     1
 10
0
 20
0
 30
0.0
 70
     1
 40
0
 41
0
  0
VERTEX
  8
0
 10
3.90625
 20
10.2891
 30
0.0
 40
0
 41
0
  0
VERTEX
  8
0
 10
3.90989
 20
10.2891
 30
0.0
 40
0
 41
0
  0
VERTEX
  8
0
 10
3.92096
 20
10.283
 30
0.0
 40
0
 41
0
  0
VERTEX
  8
0
 10
3.92708
 20
10.2719
 30
0.0
 40
0
 41
0
  0
VERTEX
  8
0
 10
3.92708
 20
10.2682
 30
0.0
 40
0
 41
0
  0
VERTEX
  8
0
 10
3.92708
 20
10.2646
 30
0.0
 40
0
 41
0
  0
VERTEX
  8
0
 10
3.92096
 20
10.2535
 30
0.0
 40
0
 41
0
  0
VERTEX
  8
0
 10
3.90989
 20
10.2474
 30
0.0
 40
0
 41
0
  0
VERTEX
  8
0
 10
3.90625
 20
10.2474
 30
0.0
 40
0
 41
0
  0
VERTEX
  8
0
 10
3.90256
 20
10.2474
 30
0.0
 40
0
 41
0
  0
VERTEX
  8
0
 10
3.8915
 20
10.2535
 30
0.0
 40
0
 41
0
  0
VERTEX
  8
0
 10
3.88542
 20
10.2646
 30
0.0
 40
0
 41
0
  0
VERTEX
  8
0
 10
3.88542
 20
10.2682
 30
0.0
 40
0
 41
0
  0
VERTEX
  8
0
 10
3.88542
 20
10.2719
 30
0.0
 40
0
 41
0
  0
VERTEX
  8
0
 10
3.8915
 20
10.283
 30
0.0
 40
0
 41
0
  0
VERTEX
  8
0
 10
3.90256
 20
10.2891
 30
0.0
 40
0
 41
0
  0
VERTEX
  8
0
 10
3.90625
 20
10.2891
 30
0.0
 40
0
 41
0
  0
SEQEND
 8
0
  0
POLYLINE
  8
0
 62
     0
 66
     1
 10
0
 20
0
 30
0.0
 70
     1
 40
0.6
 41
0.6
  0
VERTEX
  8
0
 10
3.90625
 20
10.2891
 30
0.0
 40
0.00833333
 41
0.00833333
  0
VERTEX
  8
0
 10
3.90989
 20
10.2891
 30
0.0
 40
0.00833333
 41
0.00833333
  0
VERTEX
  8
0
 10
3.92096
 20
10.283
 30
0.0
 40
0.00833333
 41
0.00833333
  0
VERTEX
  8
0
 10
3.92708
 20
10.2719
 30
0.0
 40
0.00833333
 41
0.00833333
  0
VERTEX
  8
0
 10
3.92708
 20
10.2682
 30
0.0
 40
0.00833333
 41
0.00833333
  0
VERTEX
  8
0
 10
3.92708
 20
10.2646
 30
0.0
 40
0.00833333
 41
0.00833333
  0
VERTEX
  8
0
 10
3.92096
 20
10.2535
 30
0.0
 40
0.00833333
 41
0.00833333
  0
VERTEX
  8
0
 10
3.90989
 20
10.2474
 30
0.0
 40
0.00833333
 41
0.00833333
  0
VERTEX
  8
0
 10
3.90625
 20
10.2474
 30
0.0
 40
0.00833333
 41
0.00833333
  0
VERTEX
  8
0
 10
3.90256
 20
10.2474
 30
0.0
 40
0.00833333
 41
0.00833333
  0
VERTEX
  8
0
 10
3.8915
 20
10.2535
 30
0.0
 40
0.00833333
 41
0.00833333
  0
VERTEX
  8
0
 10
3.88542
 20
10.2646
 30
0.0
 40
0.00833333
 41
0.00833333
  0
VERTEX
  8
0
 10
3.88542
 20
10.2682
 30
0.0
 40
0.00833333
 41
0.00833333
  0
VERTEX
  8
0
 10
3.88542
 20
10.2719
 30
0.0
 40
0.00833333
 41
0.00833333
  0
VERTEX
  8
0
 10
3.8915
 20
10.283
 30
0.0
 40
0.00833333
 41
0.00833333
  0
VERTEX
  8
0
 10
3.90256
 20
10.2891
 30
0.0
 40
0.00833333
 41
0.00833333
  0
VERTEX
  8
0
 10
3.90625
 20
10.2891
 30
0.0
 40
0.00833333
 41
0.00833333
  0
SEQEND
 8
0
  0
POLYLINE
  8
0
 62
     7
 66
     1
 10
0
 20
0
 30
0.0
 70
     1
 40
0
 41
0
  0
VERTEX
  8
0
 10
3.62289
 20
10.3078
 30
0.0
 40
0
 41
0
  0
VERTEX
  8
0
 10
3.76872
 20
10.3078
 30
0.0
 40
0
 41
0
  0
VERTEX
  8
0
 10
3.76872
 20
10.2453
 30
0.0
 40
0
 41
0
  0
VERTEX
  8
0
 10
3.62289
 20
10.2453
 30
0.0
 40
0
 41
0
  0
VERTEX
  8
0
 10
3.62289
 20
10.3078
 30
0.0
 40
0
 41
0
  0
SEQEND
 8
0
  0
POLYLINE
  8
0
 62
     0
 66
     1
 10
0
 20
0
 30
0.0
 70
     1
 40
0.75
 41
0.75
  0
VERTEX
  8
0
 10
3.62289
 20
10.3078
 30
0.0
 40
0.0104167
 41
0.0104167
  0
VERTEX
  8
0
 10
3.62289
 20
10.2453
 30
0.0
 40
0.0104167
 41
0.0104167
  0
VERTEX
  8
0
 10
3.76872
 20
10.2453
 30
0.0
 40
0.0104167
 41
0.0104167
  0
VERTEX
  8
0
 10
3.76872
 20
10.3078
 30
0.0
 40
0.0104167
 41
0.0104167
  0
VERTEX
  8
0
 10
3.62289
 20
10.3078
 30
0.0
 40
0.0104167
 41
0.0104167
  0
SEQEND
 8
0
  0
POLYLINE
  8
0
 62
     7
 66
     1
 10
0
 20
0
 30
0.0
 70
     1
 40
0
 41
0
  0
VERTEX
  8
0
 10
3.57081
 20
9.84412
 30
0.0
 40
0
 41
0
  0
VERTEX
  8
0
 10
4.19581
 20
9.84412
 30
0.0
 40
0
 41
0
  0
VERTEX
  8
0
 10
4.19581
 20
9.21912
 30
0.0
 40
0
 41
0
  0
VERTEX
  8
0
 10
3.57081
 20
9.21912
 30
0.0
 40
0
 41
0
  0
VERTEX
  8
0
 10
3.57081
 20
9.84412
 30
0.0
 40
0
 41
0
  0
SEQEND
 8
0
  0
POLYLINE
  8
0
 62
     0
 66
     1
 10
0
 20
0
 30
0.0
 70
     1
 40
0.75
 41
0.75
  0
VERTEX
  8
0
 10
3.57081
 20
9.84412
 30
0.0
 40
0.0104167
 41
0.0104167
  0
VERTEX
  8
0
 10
3.57081
 20
9.21912
 30
0.0
 40
0.0104167
 41
0.0104167
  0
VERTEX
  8
0
 10
4.19581
 20
9.21912
 30
0.0
 40
0.0104167
 41
0.0104167
  0
VERTEX
  8
0
 10
4.19581
 20
9.84412
 30
0.0
 40
0.0104167
 41
0.0104167
  0
VERTEX
  8
0
 10
3.57081
 20
9.84412
 30
0.0
 40
0.0104167
 41
0.0104167
  0
SEQEND
 8
0
  0
POLYLINE
  8
0
 62
     0
 66
     1
 10
0
 20
0
 30
0.0
 40
0.75
 41
0.75
  0
VERTEX
  8
0
 10
3.57081
 20
9.21912
 30
0.0
 40
0.0104167
 41
0.0104167
  0
VERTEX
  8
0
 10
3.9854
 20
9.53267
 30
0.0
 40
0.0104167
 41
0.0104167
  0
VERTEX
  8
0
 10
3.77289
 20
9.53267
 30
0.0
 40
0.0104167
 41
0.0104167
  0
VERTEX
  8
0
 10
4.19581
 20
9.8431
 30
0.0
 40
0.0104167
 41
0.0104167
  0
SEQEND
 8
0
  0
POLYLINE
  8
0
 62
     0
 66
     1
 10
0
 20
0
 30
0.0
 70
     1
 40
0.75
 41
0.75
  0
VERTEX
  8
0
 10
3.56999
 20
11.7891
 30
0.0
 40
0.0104167
 41
0.0104167
  0
VERTEX
  8
0
 10
3.56999
 20
9.21897
 30
0.0
 40
0.0104167
 41
0.0104167
  0
VERTEX
  8
0
 10
3.88249
 20
9.21897
 30
0.0
 40
0.0104167
 41
0.0104167
  0
VERTEX
  8
0
 10
3.88249
 20
11.7891
 30
0.0
 40
0.0104167
 41
0.0104167
  0
VERTEX
  8
0
 10
3.56999
 20
11.7891
 30
0.0
 40
0.0104167
 41
0.0104167
  0
SEQEND
 8
0
  0
POLYLINE
  8
0
 62
     0
 66
     1
 10
0
 20
0
 30
0.0
 70
     1
 40
0
 41
0
  0
VERTEX
  8
0
 10
0.215494
 20
1.63271
 30
0.0
 40
0
 41
0
  0
VERTEX
  8
0
 10
2.56853
 20
1.63271
 30
0.0
 40
0
 41
0
  0
VERTEX
  8
0
 10
2.56853
 20
1.46604
 30
0.0
 40
0
 41
0
  0
VERTEX
  8
0
 10
0.215494
 20
1.46604
 30
0.0
 40
0
 41
0
  0
VERTEX
  8
0
 10
0.215494
 20
1.63271
 30
0.0
 40
0
 41
0
  0
SEQEND
 8
0
  0
POLYLINE
  8
0
 62
     0
 66
     1
 10
0
 20
0
 30
0.0
 70
     1
 40
0.15
 41
0.15
  0
VERTEX
  8
0
 10
0.215494
 20
1.63271
 30
0.0
 40
0.00208333
 41
0.00208333
  0
VERTEX
  8
0
 10
2.56853
 20
1.63271
 30
0.0
 40
0.00208333
 41
0.00208333
  0
VERTEX
  8
0
 10
2.56853
 20
1.46604
 30
0.0
 40
0.00208333
 41
0.00208333
  0
VERTEX
  8
0
 10
0.215494
 20
1.46604
 30
0.0
 40
0.00208333
 41
0.00208333
  0
VERTEX
  8
0
 10
0.215494
 20
1.63271
 30
0.0
 40
0.00208333
 41
0.00208333
  0
SEQEND
 8
0
  0
POLYLINE
  8
0
 62
     7
 66
     1
 10
0
 20
0
 30
0.0
 70
     1
 40
0
 41
0
  0
VERTEX
  8
0
 10
1.15158
 20
1.63271
 30
0.0
 40
0
 41
0
  0
VERTEX
  8
0
 10
1.79904
 20
1.63271
 30
0.0
 40
0
 41
0
  0
VERTEX
  8
0
 10
1.79904
 20
1.46604
 30
0.0
 40
0
 41
0
  0
VERTEX
  8
0
 10
1.15158
 20
1.46604
 30
0.0
 40
0
 41
0
  0
VERTEX
  8
0
 10
1.15158
 20
1.63271
 30
0.0
 40
0
 41
0
  0
SEQEND
 8
0
  0
POLYLINE
  8
0
 62
     0
 66
     1
 10
0
 20
0
 30
0.0
 70
     1
 40
0.75
 41
0.75
  0
VERTEX
  8
0
 10
1.15158
 20
1.63271
 30
0.0
 40
0.0104167
 41
0.0104167
  0
VERTEX
  8
0
 10
1.79904
 20
1.63271
 30
0.0
 40
0.0104167
 41
0.0104167
  0
VERTEX
  8
0
 10
1.79904
 20
1.46604
 30
0.0
 40
0.0104167
 41
0.0104167
  0
VERTEX
  8
0
 10
1.15158
 20
1.46604
 30
0.0
 40
0.0104167
 41
0.0104167
  0
VERTEX
  8
0
 10
1.15158
 20
1.63271
 30
0.0
 40
0.0104167
 41
0.0104167
  0
SEQEND
 8
0
  0
POLYLINE
  8
0
 62
     7
 66
     1
 10
0
 20
0
 30
0.0
 70
     1
 40
0
 41
0
  0
VERTEX
  8
0
 10
1.15158
 20
1.63271
 30
0.0
 40
0
 41
0
  0
VERTEX
  8
0
 10
1.79904
 20
1.63271
 30
0.0
 40
0
 41
0
  0
VERTEX
  8
0
 10
1.79904
 20
1.46604
 30
0.0
 40
0
 41
0
  0
VERTEX
  8
0
 10
1.15158
 20
1.46604
 30
0.0
 40
0
 41
0
  0
VERTEX
  8
0
 10
1.15158
 20
1.63271
 30
0.0
 40
0
 41
0
  0
SEQEND
 8
0
  0
POLYLINE
  8
0
 62
     0
 66
     1
 10
0
 20
0
 30
0.0
 70
     1
 40
0.75
 41
0.75
  0
VERTEX
  8
0
 10
1.15158
 20
1.63271
 30
0.0
 40
0.0104167
 41
0.0104167
  0
VERTEX
  8
0
 10
1.79904
 20
1.63271
 30
0.0
 40
0.0104167
 41
0.0104167
  0
VERTEX
  8
0
 10
1.79904
 20
1.46604
 30
0.0
 40
0.0104167
 41
0.0104167
  0
VERTEX
  8
0
 10
1.15158
 20
1.46604
 30
0.0
 40
0.0104167
 41
0.0104167
  0
VERTEX
  8
0
 10
1.15158
 20
1.63271
 30
0.0
 40
0.0104167
 41
0.0104167
  0
SEQEND
 8
0
  0
POLYLINE
  8
0
 62
     0
 66
     1
 10
0
 20
0
 30
0.0
 70
     1
 40
0.75
 41
0.75
  0
VERTEX
  8
0
 10
1.79904
 20
1.63271
 30
0.0
 40
0.0104167
 41
0.0104167
  0
VERTEX
  8
0
 10
1.79904
 20
1.67068
 30
0.0
 40
0.0104167
 41
0.0104167
  0
VERTEX
  8
0
 10
1.7889
 20
1.78444
 30
0.0
 40
0.0104167
 41
0.0104167
  0
VERTEX
  8
0
 10
1.75857
 20
1.91596
 30
0.0
 40
0.0104167
 41
0.0104167
  0
VERTEX
  8
0
 10
1.70801
 20
2.02724
 30
0.0
 40
0.0104167
 41
0.0104167
  0
VERTEX
  8
0
 10
1.63721
 20
2.11828
 30
0.0
 40
0.0104167
 41
0.0104167
  0
VERTEX
  8
0
 10
1.54617
 20
2.18907
 30
0.0
 40
0.0104167
 41
0.0104167
  0
VERTEX
  8
0
 10
1.4349
 20
2.23969
 30
0.0
 40
0.0104167
 41
0.0104167
  0
VERTEX
  8
0
 10
1.30339
 20
2.27001
 30
0.0
 40
0.0104167
 41
0.0104167
  0
VERTEX
  8
0
 10
1.18962
 20
2.28011
 30
0.0
 40
0.0104167
 41
0.0104167
  0
VERTEX
  8
0
 10
1.15169
 20
2.28011
 30
0.0
 40
0.0104167
 41
0.0104167
  0
VERTEX
  8
0
 10
1.15169
 20
1.63271
 30
0.0
 40
0.0104167
 41
0.0104167
  0
VERTEX
  8
0
 10
1.79904
 20
1.63271
 30
0.0
 40
0.0104167
 41
0.0104167
  0
SEQEND
 8
0
  0
ENDSEC
  0
EOF
