  0
SECTION
  2
HEADER
  9
$ACADVER
  1
AC1009
  9
$FILLMODE
 70
 0
  9
$SPLFRAME
 70
 1
  9
$EXTMIN
 10
0
 20
0
 30
0.0
  9
$EXTMAX
 10
41.6667
 20
41.6667
 30
0.0
  0
ENDSEC
  0
SECTION
  2
TABLES
  0
TABLE
  2
LAYER
 70
1
  0
LAYER
  2
0
 70
     0
 62
     7
  6
CONTINUOUS
  0
ENDTAB
  0
ENDSEC
  0
SECTION
  2
ENTITIES
  0
POLYLINE
  8
0
 62
     7
 66
     1
 10
0
 20
0
 30
0.0
 70
     1
 40
0
 41
0
  0
VERTEX
  8
0
 10
6.46739
 20
12.206
 30
0.0
 40
0
 41
0
  0
VERTEX
  8
0
 10
10.6261
 20
12.206
 30
0.0
 40
0
 41
0
  0
VERTEX
  8
0
 10
10.6261
 20
9.85807
 30
0.0
 40
0
 41
0
  0
VERTEX
  8
0
 10
6.46739
 20
9.85807
 30
0.0
 40
0
 41
0
  0
VERTEX
  8
0
 10
6.46739
 20
12.206
 30
0.0
 40
0
 41
0
  0
SEQEND
 8
0
  0
POLYLINE
  8
0
 62
     0
 66
     1
 10
0
 20
0
 30
0.0
 70
     1
 40
0.15
 41
0.15
  0
VERTEX
  8
0
 10
6.46739
 20
12.206
 30
0.0
 40
0.00208333
 41
0.00208333
  0
VERTEX
  8
0
 10
10.6261
 20
12.206
 30
0.0
 40
0.00208333
 41
0.00208333
  0
VERTEX
  8
0
 10
10.6261
 20
9.85807
 30
0.0
 40
0.00208333
 41
0.00208333
  0
VERTEX
  8
0
 10
6.46739
 20
9.85807
 30
0.0
 40
0.00208333
 41
0.00208333
  0
VERTEX
  8
0
 10
6.46739
 20
12.206
 30
0.0
 40
0.00208333
 41
0.00208333
  0
SEQEND
 8
0
  0
TEXT
  8
0
 62
     0
 10
7.64136
 20
11.0321
 30
0.0
 40
0.34375
  1
ULK
 50
0
  0
TEXT
  8
0
 62
     0
 10
8.31896
 20
11.0321
 30
0.0
 40
0.34375
  1
O
 50
0
  0
TEXT
  8
0
 62
     0
 10
8.58128
 20
11.0321
 30
0.0
 40
0.34375
  1
TILA
 50
0
  0
POLYLINE
  8
0
 62
     7
 66
     1
 10
0
 20
0
 30
0.0
 70
     1
 40
0
 41
0
  0
VERTEX
  8
0
 10
4.52843
 20
2.85883
 30
0.0
 40
0
 41
0
  0
VERTEX
  8
0
 10
5.91992
 20
2.85883
 30
0.0
 40
0
 41
0
  0
VERTEX
  8
0
 10
5.91992
 20
1.14144
 30
0.0
 40
0
 41
0
  0
VERTEX
  8
0
 10
4.52843
 20
1.14144
 30
0.0
 40
0
 41
0
  0
VERTEX
  8
0
 10
4.52843
 20
2.85883
 30
0.0
 40
0
 41
0
  0
SEQEND
 8
0
  0
POLYLINE
  8
0
 62
     7
 66
     1
 10
0
 20
0
 30
0.0
 70
     1
 40
0.15
 41
0.15
  0
VERTEX
  8
0
 10
4.52843
 20
2.85883
 30
0.0
 40
0.00208333
 41
0.00208333
  0
VERTEX
  8
0
 10
5.91992
 20
2.85883
 30
0.0
 40
0.00208333
 41
0.00208333
  0
VERTEX
  8
0
 10
5.91992
 20
1.14144
 30
0.0
 40
0.00208333
 41
0.00208333
  0
VERTEX
  8
0
 10
4.52843
 20
1.14144
 30
0.0
 40
0.00208333
 41
0.00208333
  0
VERTEX
  8
0
 10
4.52843
 20
2.85883
 30
0.0
 40
0.00208333
 41
0.00208333
  0
SEQEND
 8
0
  0
TEXT
  8
0
 62
     0
 10
5.22415
 20
2.16311
 30
0.0
 40
0.34375
  1
UNDEFINED
 50
0
  0
POLYLINE
  8
0
 62
     7
 66
     1
 10
0
 20
0
 30
0.0
 70
     1
 40
0
 41
0
  0
VERTEX
  8
0
 10
9.21875
 20
1.88194
 30
0.0
 40
0
 41
0
  0
VERTEX
  8
0
 10
9.22293
 20
1.88151
 30
0.0
 40
0
 41
0
  0
VERTEX
  8
0
 10
9.22293
 20
1.14144
 30
0.0
 40
0
 41
0
  0
VERTEX
  8
0
 10
6.06575
 20
1.14144
 30
0.0
 40
0
 41
0
  0
VERTEX
  8
0
 10
6.06575
 20
2.85883
 30
0.0
 40
0
 41
0
  0
VERTEX
  8
0
 10
8.65479
 20
2.85883
 30
0.0
 40
0
 41
0
  0
VERTEX
  8
0
 10
9.21875
 20
1.88194
 30
0.0
 40
0
 41
0
  0
SEQEND
 8
0
  0
POLYLINE
  8
0
 62
     7
 66
     1
 10
0
 20
0
 30
0.0
 70
     1
 40
0.15
 41
0.15
  0
VERTEX
  8
0
 10
9.21875
 20
1.88194
 30
0.0
 40
0.00208333
 41
0.00208333
  0
VERTEX
  8
0
 10
9.22293
 20
1.88151
 30
0.0
 40
0.00208333
 41
0.00208333
  0
VERTEX
  8
0
 10
9.22293
 20
1.14144
 30
0.0
 40
0.00208333
 41
0.00208333
  0
VERTEX
  8
0
 10
6.06575
 20
1.14144
 30
0.0
 40
0.00208333
 41
0.00208333
  0
VERTEX
  8
0
 10
6.06575
 20
2.85883
 30
0.0
 40
0.00208333
 41
0.00208333
  0
VERTEX
  8
0
 10
8.65479
 20
2.85883
 30
0.0
 40
0.00208333
 41
0.00208333
  0
VERTEX
  8
0
 10
9.21875
 20
1.88194
 30
0.0
 40
0.00208333
 41
0.00208333
  0
SEQEND
 8
0
  0
TEXT
  8
0
 62
     0
 10
6.92437
 20
2.00014
 30
0.0
 40
0.34375
  1
PESUH
 50
0
  0
POLYLINE
  8
0
 62
     7
 66
     1
 10
0
 20
0
 30
0.0
 70
     1
 40
0
 41
0
  0
VERTEX
  8
0
 10
4.3826
 20
4.7736
 30
0.0
 40
0
 41
0
  0
VERTEX
  8
0
 10
1.37999
 20
4.7736
 30
0.0
 40
0
 41
0
  0
VERTEX
  8
0
 10
1.37999
 20
9.35807
 30
0.0
 40
0
 41
0
  0
VERTEX
  8
0
 10
4.37793
 20
9.35807
 30
0.0
 40
0
 41
0
  0
VERTEX
  8
0
 10
4.3826
 20
4.7736
 30
0.0
 40
0
 41
0
  0
SEQEND
 8
0
  0
POLYLINE
  8
0
 62
     7
 66
     1
 10
0
 20
0
 30
0.0
 70
     1
 40
0.15
 41
0.15
  0
VERTEX
  8
0
 10
4.3826
 20
4.7736
 30
0.0
 40
0.00208333
 41
0.00208333
  0
VERTEX
  8
0
 10
1.37999
 20
4.7736
 30
0.0
 40
0.00208333
 41
0.00208333
  0
VERTEX
  8
0
 10
1.37999
 20
9.35807
 30
0.0
 40
0.00208333
 41
0.00208333
  0
VERTEX
  8
0
 10
4.37793
 20
9.35807
 30
0.0
 40
0.00208333
 41
0.00208333
  0
VERTEX
  8
0
 10
4.3826
 20
4.7736
 30
0.0
 40
0.00208333
 41
0.00208333
  0
SEQEND
 8
0
  0
TEXT
  8
0
 62
     0
 10
2.63135
 20
6.97642
 30
0.0
 40
0.34375
  1
MH
 50
0
  0
POLYLINE
  8
0
 62
     7
 66
     1
 10
0
 20
0
 30
0.0
 70
     1
 40
0
 41
0
  0
VERTEX
  8
0
 10
8.74164
 20
4.85861
 30
0.0
 40
0
 41
0
  0
VERTEX
  8
0
 10
8.73867
 20
4.85861
 30
0.0
 40
0
 41
0
  0
VERTEX
  8
0
 10
8.73867
 20
4.71278
 30
0.0
 40
0
 41
0
  0
VERTEX
  8
0
 10
8.74164
 20
4.71278
 30
0.0
 40
0
 41
0
  0
VERTEX
  8
0
 10
8.7379
 20
3.00467
 30
0.0
 40
0
 41
0
  0
VERTEX
  8
0
 10
4.52843
 20
3.00467
 30
0.0
 40
0
 41
0
  0
VERTEX
  8
0
 10
4.52843
 20
9.35807
 30
0.0
 40
0
 41
0
  0
VERTEX
  8
0
 10
8.74164
 20
9.35807
 30
0.0
 40
0
 41
0
  0
VERTEX
  8
0
 10
8.74164
 20
4.85861
 30
0.0
 40
0
 41
0
  0
SEQEND
 8
0
  0
POLYLINE
  8
0
 62
     7
 66
     1
 10
0
 20
0
 30
0.0
 70
     1
 40
0.15
 41
0.15
  0
VERTEX
  8
0
 10
8.74164
 20
4.85861
 30
0.0
 40
0.00208333
 41
0.00208333
  0
VERTEX
  8
0
 10
8.73867
 20
4.85861
 30
0.0
 40
0.00208333
 41
0.00208333
  0
VERTEX
  8
0
 10
8.73867
 20
4.71278
 30
0.0
 40
0.00208333
 41
0.00208333
  0
VERTEX
  8
0
 10
8.74164
 20
4.71278
 30
0.0
 40
0.00208333
 41
0.00208333
  0
VERTEX
  8
0
 10
8.7379
 20
3.00467
 30
0.0
 40
0.00208333
 41
0.00208333
  0
VERTEX
  8
0
 10
4.52843
 20
3.00467
 30
0.0
 40
0.00208333
 41
0.00208333
  0
VERTEX
  8
0
 10
4.52843
 20
9.35807
 30
0.0
 40
0.00208333
 41
0.00208333
  0
VERTEX
  8
0
 10
8.74164
 20
9.35807
 30
0.0
 40
0.00208333
 41
0.00208333
  0
VERTEX
  8
0
 10
8.74164
 20
4.85861
 30
0.0
 40
0.00208333
 41
0.00208333
  0
SEQEND
 8
0
  0
TEXT
  8
0
 62
     0
 10
6.17312
 20
5.97225
 30
0.0
 40
0.34375
  1
OH
 50
0
  0
POLYLINE
  8
0
 62
     7
 66
     1
 10
0
 20
0
 30
0.0
 70
     1
 40
0
 41
0
  0
VERTEX
  8
0
 10
8.74164
 20
9.35807
 30
0.0
 40
0
 41
0
  0
VERTEX
  8
0
 10
10.6574
 20
9.35807
 30
0.0
 40
0
 41
0
  0
VERTEX
  8
0
 10
10.6574
 20
4.85861
 30
0.0
 40
0
 41
0
  0
VERTEX
  8
0
 10
8.74164
 20
4.85861
 30
0.0
 40
0
 41
0
  0
VERTEX
  8
0
 10
8.74164
 20
9.35807
 30
0.0
 40
0
 41
0
  0
SEQEND
 8
0
  0
POLYLINE
  8
0
 62
     7
 66
     1
 10
0
 20
0
 30
0.0
 70
     1
 40
0.15
 41
0.15
  0
VERTEX
  8
0
 10
8.74164
 20
9.35807
 30
0.0
 40
0.00208333
 41
0.00208333
  0
VERTEX
  8
0
 10
10.6574
 20
9.35807
 30
0.0
 40
0.00208333
 41
0.00208333
  0
VERTEX
  8
0
 10
10.6574
 20
4.85861
 30
0.0
 40
0.00208333
 41
0.00208333
  0
VERTEX
  8
0
 10
8.74164
 20
4.85861
 30
0.0
 40
0.00208333
 41
0.00208333
  0
VERTEX
  8
0
 10
8.74164
 20
9.35807
 30
0.0
 40
0.00208333
 41
0.00208333
  0
SEQEND
 8
0
  0
TEXT
  8
0
 62
     0
 10
9.32643
 20
6.98401
 30
0.0
 40
0.34375
  1
K
 50
0
  0
POLYLINE
  8
0
 62
     7
 66
     1
 10
0
 20
0
 30
0.0
 70
     1
 40
0
 41
0
  0
VERTEX
  8
0
 10
8.74164
 20
4.71278
 30
0.0
 40
0
 41
0
  0
VERTEX
  8
0
 10
10.6574
 20
4.71278
 30
0.0
 40
0
 41
0
  0
VERTEX
  8
0
 10
10.6574
 20
4.71186
 30
0.0
 40
0
 41
0
  0
VERTEX
  8
0
 10
8.74164
 20
4.71186
 30
0.0
 40
0
 41
0
  0
VERTEX
  8
0
 10
8.74164
 20
4.71278
 30
0.0
 40
0
 41
0
  0
SEQEND
 8
0
  0
POLYLINE
  8
0
 62
     7
 66
     1
 10
0
 20
0
 30
0.0
 70
     1
 40
0.15
 41
0.15
  0
VERTEX
  8
0
 10
8.74164
 20
4.71278
 30
0.0
 40
0.00208333
 41
0.00208333
  0
VERTEX
  8
0
 10
10.6574
 20
4.71278
 30
0.0
 40
0.00208333
 41
0.00208333
  0
VERTEX
  8
0
 10
10.6574
 20
4.71186
 30
0.0
 40
0.00208333
 41
0.00208333
  0
VERTEX
  8
0
 10
8.74164
 20
4.71186
 30
0.0
 40
0.00208333
 41
0.00208333
  0
VERTEX
  8
0
 10
8.74164
 20
4.71278
 30
0.0
 40
0.00208333
 41
0.00208333
  0
SEQEND
 8
0
  0
TEXT
  8
0
 62
     0
 10
8.74219
 20
4.71232
 30
0.0
 40
0.34375
  1
UNDEFINED
 50
0
  0
POLYLINE
  8
0
 62
     7
 66
     1
 10
0
 20
0
 30
0.0
 70
     1
 40
0
 41
0
  0
VERTEX
  8
0
 10
10.6574
 20
1.14144
 30
0.0
 40
0
 41
0
  0
VERTEX
  8
0
 10
9.36876
 20
1.14144
 30
0.0
 40
0
 41
0
  0
VERTEX
  8
0
 10
9.36876
 20
1.9209
 30
0.0
 40
0
 41
0
  0
VERTEX
  8
0
 10
8.73867
 20
3.00467
 30
0.0
 40
0
 41
0
  0
VERTEX
  8
0
 10
8.7379
 20
3.00467
 30
0.0
 40
0
 41
0
  0
VERTEX
  8
0
 10
8.74164
 20
4.71186
 30
0.0
 40
0
 41
0
  0
VERTEX
  8
0
 10
10.6574
 20
4.71186
 30
0.0
 40
0
 41
0
  0
VERTEX
  8
0
 10
10.6574
 20
1.14144
 30
0.0
 40
0
 41
0
  0
SEQEND
 8
0
  0
POLYLINE
  8
0
 62
     7
 66
     1
 10
0
 20
0
 30
0.0
 70
     1
 40
0.15
 41
0.15
  0
VERTEX
  8
0
 10
10.6574
 20
1.14144
 30
0.0
 40
0.00208333
 41
0.00208333
  0
VERTEX
  8
0
 10
9.36876
 20
1.14144
 30
0.0
 40
0.00208333
 41
0.00208333
  0
VERTEX
  8
0
 10
9.36876
 20
1.9209
 30
0.0
 40
0.00208333
 41
0.00208333
  0
VERTEX
  8
0
 10
8.73867
 20
3.00467
 30
0.0
 40
0.00208333
 41
0.00208333
  0
VERTEX
  8
0
 10
8.7379
 20
3.00467
 30
0.0
 40
0.00208333
 41
0.00208333
  0
VERTEX
  8
0
 10
8.74164
 20
4.71186
 30
0.0
 40
0.00208333
 41
0.00208333
  0
VERTEX
  8
0
 10
10.6574
 20
4.71186
 30
0.0
 40
0.00208333
 41
0.00208333
  0
VERTEX
  8
0
 10
10.6574
 20
1.14144
 30
0.0
 40
0.00208333
 41
0.00208333
  0
SEQEND
 8
0
  0
TEXT
  8
0
 62
     0
 10
9.69765
 20
3.2724
 30
0.0
 40
0.34375
  1
ET
 50
0
  0
POLYLINE
  8
0
 62
     7
 66
     1
 10
0
 20
0
 30
0.0
 70
     1
 40
0
 41
0
  0
VERTEX
  8
0
 10
1.37999
 20
4.62776
 30
0.0
 40
0
 41
0
  0
VERTEX
  8
0
 10
4.3826
 20
4.62776
 30
0.0
 40
0
 41
0
  0
VERTEX
  8
0
 10
4.3826
 20
1.14144
 30
0.0
 40
0
 41
0
  0
VERTEX
  8
0
 10
1.37999
 20
1.14144
 30
0.0
 40
0
 41
0
  0
VERTEX
  8
0
 10
1.37999
 20
4.62776
 30
0.0
 40
0
 41
0
  0
SEQEND
 8
0
  0
POLYLINE
  8
0
 62
     7
 66
     1
 10
0
 20
0
 30
0.0
 70
     1
 40
0.15
 41
0.15
  0
VERTEX
  8
0
 10
1.37999
 20
4.62776
 30
0.0
 40
0.00208333
 41
0.00208333
  0
VERTEX
  8
0
 10
4.3826
 20
4.62776
 30
0.0
 40
0.00208333
 41
0.00208333
  0
VERTEX
  8
0
 10
4.3826
 20
1.14144
 30
0.0
 40
0.00208333
 41
0.00208333
  0
VERTEX
  8
0
 10
1.37999
 20
1.14144
 30
0.0
 40
0.00208333
 41
0.00208333
  0
VERTEX
  8
0
 10
1.37999
 20
4.62776
 30
0.0
 40
0.00208333
 41
0.00208333
  0
SEQEND
 8
0
  0
TEXT
  8
0
 62
     0
 10
2.17058
 20
2.60032
 30
0.0
 40
0.34375
  1
MH/TYÖH
 50
0
  0
POLYLINE
  8
0
 62
     0
 66
     1
 10
0
 20
0
 30
0.0
 70
     1
 40
0
 41
0
  0
VERTEX
  8
0
 10
1.02582
 20
9.85807
 30
0.0
 40
0
 41
0
  0
VERTEX
  8
0
 10
1.02582
 20
0.943522
 30
0.0
 40
0
 41
0
  0
VERTEX
  8
0
 10
1.37999
 20
1.14144
 30
0.0
 40
0
 41
0
  0
VERTEX
  8
0
 10
1.37999
 20
9.35807
 30
0.0
 40
0
 41
0
  0
VERTEX
  8
0
 10
1.02582
 20
9.85807
 30
0.0
 40
0
 41
0
  0
SEQEND
 8
0
  0
POLYLINE
  8
0
 62
     0
 66
     1
 10
0
 20
0
 30
0.0
 70
     1
 40
0.15
 41
0.15
  0
VERTEX
  8
0
 10
1.02582
 20
9.85807
 30
0.0
 40
0.00208333
 41
0.00208333
  0
VERTEX
  8
0
 10
1.02582
 20
0.943522
 30
0.0
 40
0.00208333
 41
0.00208333
  0
VERTEX
  8
0
 10
1.37999
 20
1.14144
 30
0.0
 40
0.00208333
 41
0.00208333
  0
VERTEX
  8
0
 10
1.37999
 20
9.35807
 30
0.0
 40
0.00208333
 41
0.00208333
  0
VERTEX
  8
0
 10
1.02582
 20
9.85807
 30
0.0
 40
0.00208333
 41
0.00208333
  0
SEQEND
 8
0
  0
POLYLINE
  8
0
 62
     7
 66
     1
 10
0
 20
0
 30
0.0
 70
     1
 40
0
 41
0
  0
VERTEX
  8
0
 10
1.02582
 20
7.33436
 30
0.0
 40
0
 41
0
  0
VERTEX
  8
0
 10
1.37999
 20
7.33436
 30
0.0
 40
0
 41
0
  0
VERTEX
  8
0
 10
1.37999
 20
5.62913
 30
0.0
 40
0
 41
0
  0
VERTEX
  8
0
 10
1.02582
 20
5.62913
 30
0.0
 40
0
 41
0
  0
VERTEX
  8
0
 10
1.02582
 20
7.33436
 30
0.0
 40
0
 41
0
  0
SEQEND
 8
0
  0
POLYLINE
  8
0
 62
     0
 66
     1
 10
0
 20
0
 30
0.0
 70
     1
 40
0.75
 41
0.75
  0
VERTEX
  8
0
 10
1.02582
 20
7.33436
 30
0.0
 40
0.0104167
 41
0.0104167
  0
VERTEX
  8
0
 10
1.37999
 20
7.33436
 30
0.0
 40
0.0104167
 41
0.0104167
  0
VERTEX
  8
0
 10
1.37999
 20
5.62913
 30
0.0
 40
0.0104167
 41
0.0104167
  0
VERTEX
  8
0
 10
1.02582
 20
5.62913
 30
0.0
 40
0.0104167
 41
0.0104167
  0
VERTEX
  8
0
 10
1.02582
 20
7.33436
 30
0.0
 40
0.0104167
 41
0.0104167
  0
SEQEND
 8
0
  0
POLYLINE
  8
0
 62
     7
 66
     1
 10
0
 20
0
 30
0.0
 70
     1
 40
0
 41
0
  0
VERTEX
  8
0
 10
1.02582
 20
7.33436
 30
0.0
 40
0
 41
0
  0
VERTEX
  8
0
 10
1.37999
 20
7.33436
 30
0.0
 40
0
 41
0
  0
VERTEX
  8
0
 10
1.37999
 20
5.62913
 30
0.0
 40
0
 41
0
  0
VERTEX
  8
0
 10
1.02582
 20
5.62913
 30
0.0
 40
0
 41
0
  0
VERTEX
  8
0
 10
1.02582
 20
7.33436
 30
0.0
 40
0
 41
0
  0
SEQEND
 8
0
  0
POLYLINE
  8
0
 62
     0
 66
     1
 10
0
 20
0
 30
0.0
 70
     1
 40
0.75
 41
0.75
  0
VERTEX
  8
0
 10
1.02582
 20
7.33436
 30
0.0
 40
0.0104167
 41
0.0104167
  0
VERTEX
  8
0
 10
1.37999
 20
7.33436
 30
0.0
 40
0.0104167
 41
0.0104167
  0
VERTEX
  8
0
 10
1.37999
 20
5.62913
 30
0.0
 40
0.0104167
 41
0.0104167
  0
VERTEX
  8
0
 10
1.02582
 20
5.62913
 30
0.0
 40
0.0104167
 41
0.0104167
  0
VERTEX
  8
0
 10
1.02582
 20
7.33436
 30
0.0
 40
0.0104167
 41
0.0104167
  0
SEQEND
 8
0
  0
POLYLINE
  8
0
 62
     0
 66
     1
 10
0
 20
0
 30
0.0
 40
0.75
 41
0.75
  0
VERTEX
  8
0
 10
1.20285
 20
7.25624
 30
0.0
 40
0.0104167
 41
0.0104167
  0
VERTEX
  8
0
 10
1.20285
 20
5.70731
 30
0.0
 40
0.0104167
 41
0.0104167
  0
SEQEND
 8
0
  0
POLYLINE
  8
0
 62
     0
 66
     1
 10
0
 20
0
 30
0.0
 40
0.75
 41
0.75
  0
VERTEX
  8
0
 10
1.02577
 20
7.25624
 30
0.0
 40
0.0104167
 41
0.0104167
  0
VERTEX
  8
0
 10
1.37994
 20
7.25624
 30
0.0
 40
0.0104167
 41
0.0104167
  0
SEQEND
 8
0
  0
POLYLINE
  8
0
 62
     0
 66
     1
 10
0
 20
0
 30
0.0
 40
0.75
 41
0.75
  0
VERTEX
  8
0
 10
1.02577
 20
5.70731
 30
0.0
 40
0.0104167
 41
0.0104167
  0
VERTEX
  8
0
 10
1.37994
 20
5.70731
 30
0.0
 40
0.0104167
 41
0.0104167
  0
SEQEND
 8
0
  0
POLYLINE
  8
0
 62
     7
 66
     1
 10
0
 20
0
 30
0.0
 70
     1
 40
0
 41
0
  0
VERTEX
  8
0
 10
1.02582
 20
4.00353
 30
0.0
 40
0
 41
0
  0
VERTEX
  8
0
 10
1.37999
 20
4.00353
 30
0.0
 40
0
 41
0
  0
VERTEX
  8
0
 10
1.37999
 20
2.32476
 30
0.0
 40
0
 41
0
  0
VERTEX
  8
0
 10
1.02582
 20
2.32476
 30
0.0
 40
0
 41
0
  0
VERTEX
  8
0
 10
1.02582
 20
4.00353
 30
0.0
 40
0
 41
0
  0
SEQEND
 8
0
  0
POLYLINE
  8
0
 62
     0
 66
     1
 10
0
 20
0
 30
0.0
 70
     1
 40
0.75
 41
0.75
  0
VERTEX
  8
0
 10
1.02582
 20
4.00353
 30
0.0
 40
0.0104167
 41
0.0104167
  0
VERTEX
  8
0
 10
1.37999
 20
4.00353
 30
0.0
 40
0.0104167
 41
0.0104167
  0
VERTEX
  8
0
 10
1.37999
 20
2.32476
 30
0.0
 40
0.0104167
 41
0.0104167
  0
VERTEX
  8
0
 10
1.02582
 20
2.32476
 30
0.0
 40
0.0104167
 41
0.0104167
  0
VERTEX
  8
0
 10
1.02582
 20
4.00353
 30
0.0
 40
0.0104167
 41
0.0104167
  0
SEQEND
 8
0
  0
POLYLINE
  8
0
 62
     7
 66
     1
 10
0
 20
0
 30
0.0
 70
     1
 40
0
 41
0
  0
VERTEX
  8
0
 10
1.02582
 20
4.00353
 30
0.0
 40
0
 41
0
  0
VERTEX
  8
0
 10
1.37999
 20
4.00353
 30
0.0
 40
0
 41
0
  0
VERTEX
  8
0
 10
1.37999
 20
2.32476
 30
0.0
 40
0
 41
0
  0
VERTEX
  8
0
 10
1.02582
 20
2.32476
 30
0.0
 40
0
 41
0
  0
VERTEX
  8
0
 10
1.02582
 20
4.00353
 30
0.0
 40
0
 41
0
  0
SEQEND
 8
0
  0
POLYLINE
  8
0
 62
     0
 66
     1
 10
0
 20
0
 30
0.0
 70
     1
 40
0.75
 41
0.75
  0
VERTEX
  8
0
 10
1.02582
 20
4.00353
 30
0.0
 40
0.0104167
 41
0.0104167
  0
VERTEX
  8
0
 10
1.37999
 20
4.00353
 30
0.0
 40
0.0104167
 41
0.0104167
  0
VERTEX
  8
0
 10
1.37999
 20
2.32476
 30
0.0
 40
0.0104167
 41
0.0104167
  0
VERTEX
  8
0
 10
1.02582
 20
2.32476
 30
0.0
 40
0.0104167
 41
0.0104167
  0
VERTEX
  8
0
 10
1.02582
 20
4.00353
 30
0.0
 40
0.0104167
 41
0.0104167
  0
SEQEND
 8
0
  0
POLYLINE
  8
0
 62
     0
 66
     1
 10
0
 20
0
 30
0.0
 40
0.75
 41
0.75
  0
VERTEX
  8
0
 10
1.20285
 20
3.92535
 30
0.0
 40
0.0104167
 41
0.0104167
  0
VERTEX
  8
0
 10
1.20285
 20
2.40294
 30
0.0
 40
0.0104167
 41
0.0104167
  0
SEQEND
 8
0
  0
POLYLINE
  8
0
 62
     0
 66
     1
 10
0
 20
0
 30
0.0
 40
0.75
 41
0.75
  0
VERTEX
  8
0
 10
1.02577
 20
3.92535
 30
0.0
 40
0.0104167
 41
0.0104167
  0
VERTEX
  8
0
 10
1.37994
 20
3.92535
 30
0.0
 40
0.0104167
 41
0.0104167
  0
SEQEND
 8
0
  0
POLYLINE
  8
0
 62
     0
 66
     1
 10
0
 20
0
 30
0.0
 40
0.75
 41
0.75
  0
VERTEX
  8
0
 10
1.02577
 20
2.40294
 30
0.0
 40
0.0104167
 41
0.0104167
  0
VERTEX
  8
0
 10
1.37994
 20
2.40294
 30
0.0
 40
0.0104167
 41
0.0104167
  0
SEQEND
 8
0
  0
POLYLINE
  8
0
 62
     0
 66
     1
 10
0
 20
0
 30
0.0
 70
     1
 40
0
 41
0
  0
VERTEX
  8
0
 10
1.02582
 20
0.943522
 30
0.0
 40
0
 41
0
  0
VERTEX
  8
0
 10
10.8553
 20
0.943522
 30
0.0
 40
0
 41
0
  0
VERTEX
  8
0
 10
10.6574
 20
1.14144
 30
0.0
 40
0
 41
0
  0
VERTEX
  8
0
 10
1.37999
 20
1.14144
 30
0.0
 40
0
 41
0
  0
VERTEX
  8
0
 10
1.02582
 20
0.943522
 30
0.0
 40
0
 41
0
  0
SEQEND
 8
0
  0
POLYLINE
  8
0
 62
     0
 66
     1
 10
0
 20
0
 30
0.0
 70
     1
 40
0.15
 41
0.15
  0
VERTEX
  8
0
 10
1.02582
 20
0.943522
 30
0.0
 40
0.00208333
 41
0.00208333
  0
VERTEX
  8
0
 10
10.8553
 20
0.943522
 30
0.0
 40
0.00208333
 41
0.00208333
  0
VERTEX
  8
0
 10
10.6574
 20
1.14144
 30
0.0
 40
0.00208333
 41
0.00208333
  0
VERTEX
  8
0
 10
1.37999
 20
1.14144
 30
0.0
 40
0.00208333
 41
0.00208333
  0
VERTEX
  8
0
 10
1.02582
 20
0.943522
 30
0.0
 40
0.00208333
 41
0.00208333
  0
SEQEND
 8
0
  0
POLYLINE
  8
0
 62
     7
 66
     1
 10
0
 20
0
 30
0.0
 70
     1
 40
0
 41
0
  0
VERTEX
  8
0
 10
9.66749
 20
1.14144
 30
0.0
 40
0
 41
0
  0
VERTEX
  8
0
 10
10.6001
 20
1.14144
 30
0.0
 40
0
 41
0
  0
VERTEX
  8
0
 10
10.6001
 20
0.943522
 30
0.0
 40
0
 41
0
  0
VERTEX
  8
0
 10
9.66749
 20
0.943522
 30
0.0
 40
0
 41
0
  0
VERTEX
  8
0
 10
9.66749
 20
1.14144
 30
0.0
 40
0
 41
0
  0
SEQEND
 8
0
  0
POLYLINE
  8
0
 62
     0
 66
     1
 10
0
 20
0
 30
0.0
 70
     1
 40
0.75
 41
0.75
  0
VERTEX
  8
0
 10
9.66749
 20
1.14144
 30
0.0
 40
0.0104167
 41
0.0104167
  0
VERTEX
  8
0
 10
10.6001
 20
1.14144
 30
0.0
 40
0.0104167
 41
0.0104167
  0
VERTEX
  8
0
 10
10.6001
 20
0.943522
 30
0.0
 40
0.0104167
 41
0.0104167
  0
VERTEX
  8
0
 10
9.66749
 20
0.943522
 30
0.0
 40
0.0104167
 41
0.0104167
  0
VERTEX
  8
0
 10
9.66749
 20
1.14144
 30
0.0
 40
0.0104167
 41
0.0104167
  0
SEQEND
 8
0
  0
POLYLINE
  8
0
 62
     7
 66
     1
 10
0
 20
0
 30
0.0
 70
     1
 40
0
 41
0
  0
VERTEX
  8
0
 10
9.66749
 20
1.14144
 30
0.0
 40
0
 41
0
  0
VERTEX
  8
0
 10
10.6001
 20
1.14144
 30
0.0
 40
0
 41
0
  0
VERTEX
  8
0
 10
10.6001
 20
0.943522
 30
0.0
 40
0
 41
0
  0
VERTEX
  8
0
 10
9.66749
 20
0.943522
 30
0.0
 40
0
 41
0
  0
VERTEX
  8
0
 10
9.66749
 20
1.14144
 30
0.0
 40
0
 41
0
  0
SEQEND
 8
0
  0
POLYLINE
  8
0
 62
     0
 66
     1
 10
0
 20
0
 30
0.0
 70
     1
 40
0.75
 41
0.75
  0
VERTEX
  8
0
 10
9.66749
 20
1.14144
 30
0.0
 40
0.0104167
 41
0.0104167
  0
VERTEX
  8
0
 10
10.6001
 20
1.14144
 30
0.0
 40
0.0104167
 41
0.0104167
  0
VERTEX
  8
0
 10
10.6001
 20
0.943522
 30
0.0
 40
0.0104167
 41
0.0104167
  0
VERTEX
  8
0
 10
9.66749
 20
0.943522
 30
0.0
 40
0.0104167
 41
0.0104167
  0
VERTEX
  8
0
 10
9.66749
 20
1.14144
 30
0.0
 40
0.0104167
 41
0.0104167
  0
SEQEND
 8
0
  0
POLYLINE
  8
0
 62
     0
 66
     1
 10
0
 20
0
 30
0.0
 70
     1
 40
0.75
 41
0.75
  0
VERTEX
  8
0
 10
9.66749
 20
0.943522
 30
0.0
 40
0.0104167
 41
0.0104167
  0
VERTEX
  8
0
 10
9.66749
 20
0.888889
 30
0.0
 40
0.0104167
 41
0.0104167
  0
VERTEX
  8
0
 10
9.68201
 20
0.724989
 30
0.0
 40
0.0104167
 41
0.0104167
  0
VERTEX
  8
0
 10
9.72575
 20
0.535536
 30
0.0
 40
0.0104167
 41
0.0104167
  0
VERTEX
  8
0
 10
9.79861
 20
0.375217
 30
0.0
 40
0.0104167
 41
0.0104167
  0
VERTEX
  8
0
 10
9.90061
 20
0.244086
 30
0.0
 40
0.0104167
 41
0.0104167
  0
VERTEX
  8
0
 10
10.0317
 20
0.14209
 30
0.0
 40
0.0104167
 41
0.0104167
  0
VERTEX
  8
0
 10
10.1921
 20
0.0692275
 30
0.0
 40
0.0104167
 41
0.0104167
  0
VERTEX
  8
0
 10
10.3815
 20
0.0254992
 30
0.0
 40
0.0104167
 41
0.0104167
  0
VERTEX
  8
0
 10
10.5454
 20
0.0109049
 30
0.0
 40
0.0104167
 41
0.0104167
  0
VERTEX
  8
0
 10
10.6001
 20
0.0109049
 30
0.0
 40
0.0104167
 41
0.0104167
  0
VERTEX
  8
0
 10
10.6001
 20
0.943522
 30
0.0
 40
0.0104167
 41
0.0104167
  0
VERTEX
  8
0
 10
9.66749
 20
0.943522
 30
0.0
 40
0.0104167
 41
0.0104167
  0
SEQEND
 8
0
  0
POLYLINE
  8
0
 62
     0
 66
     1
 10
0
 20
0
 30
0.0
 70
     1
 40
0.75
 41
0.75
  0
VERTEX
  8
0
 10
9.66749
 20
1.14144
 30
0.0
 40
0.0104167
 41
0.0104167
  0
VERTEX
  8
0
 10
9.66749
 20
1.19613
 30
0.0
 40
0.0104167
 41
0.0104167
  0
VERTEX
  8
0
 10
9.68201
 20
1.36003
 30
0.0
 40
0.0104167
 41
0.0104167
  0
VERTEX
  8
0
 10
9.72575
 20
1.54949
 30
0.0
 40
0.0104167
 41
0.0104167
  0
VERTEX
  8
0
 10
9.79861
 20
1.70975
 30
0.0
 40
0.0104167
 41
0.0104167
  0
VERTEX
  8
0
 10
9.90061
 20
1.84088
 30
0.0
 40
0.0104167
 41
0.0104167
  0
VERTEX
  8
0
 10
10.0317
 20
1.94287
 30
0.0
 40
0.0104167
 41
0.0104167
  0
VERTEX
  8
0
 10
10.1921
 20
2.01574
 30
0.0
 40
0.0104167
 41
0.0104167
  0
VERTEX
  8
0
 10
10.3815
 20
2.05946
 30
0.0
 40
0.0104167
 41
0.0104167
  0
VERTEX
  8
0
 10
10.5454
 20
2.074
 30
0.0
 40
0.0104167
 41
0.0104167
  0
VERTEX
  8
0
 10
10.6001
 20
2.074
 30
0.0
 40
0.0104167
 41
0.0104167
  0
VERTEX
  8
0
 10
10.6001
 20
1.14144
 30
0.0
 40
0.0104167
 41
0.0104167
  0
VERTEX
  8
0
 10
9.66749
 20
1.14144
 30
0.0
 40
0.0104167
 41
0.0104167
  0
SEQEND
 8
0
  0
POLYLINE
  8
0
 62
     0
 66
     1
 10
0
 20
0
 30
0.0
 70
     1
 40
0
 41
0
  0
VERTEX
  8
0
 10
10.8553
 20
0.943522
 30
0.0
 40
0
 41
0
  0
VERTEX
  8
0
 10
10.8553
 20
9.85807
 30
0.0
 40
0
 41
0
  0
VERTEX
  8
0
 10
10.6574
 20
9.35807
 30
0.0
 40
0
 41
0
  0
VERTEX
  8
0
 10
10.6574
 20
1.14144
 30
0.0
 40
0
 41
0
  0
VERTEX
  8
0
 10
10.8553
 20
0.943522
 30
0.0
 40
0
 41
0
  0
SEQEND
 8
0
  0
POLYLINE
  8
0
 62
     0
 66
     1
 10
0
 20
0
 30
0.0
 70
     1
 40
0.15
 41
0.15
  0
VERTEX
  8
0
 10
10.8553
 20
0.943522
 30
0.0
 40
0.00208333
 41
0.00208333
  0
VERTEX
  8
0
 10
10.8553
 20
9.85807
 30
0.0
 40
0.00208333
 41
0.00208333
  0
VERTEX
  8
0
 10
10.6574
 20
9.35807
 30
0.0
 40
0.00208333
 41
0.00208333
  0
VERTEX
  8
0
 10
10.6574
 20
1.14144
 30
0.0
 40
0.00208333
 41
0.00208333
  0
VERTEX
  8
0
 10
10.8553
 20
0.943522
 30
0.0
 40
0.00208333
 41
0.00208333
  0
SEQEND
 8
0
  0
POLYLINE
  8
0
 62
     0
 66
     1
 10
0
 20
0
 30
0.0
 70
     1
 40
0
 41
0
  0
VERTEX
  8
0
 10
10.8553
 20
9.85807
 30
0.0
 40
0
 41
0
  0
VERTEX
  8
0
 10
1.02582
 20
9.85807
 30
0.0
 40
0
 41
0
  0
VERTEX
  8
0
 10
1.37999
 20
9.35807
 30
0.0
 40
0
 41
0
  0
VERTEX
  8
0
 10
10.6574
 20
9.35807
 30
0.0
 40
0
 41
0
  0
VERTEX
  8
0
 10
10.8553
 20
9.85807
 30
0.0
 40
0
 41
0
  0
SEQEND
 8
0
  0
POLYLINE
  8
0
 62
     0
 66
     1
 10
0
 20
0
 30
0.0
 70
     1
 40
0.15
 41
0.15
  0
VERTEX
  8
0
 10
10.8553
 20
9.85807
 30
0.0
 40
0.00208333
 41
0.00208333
  0
VERTEX
  8
0
 10
1.02582
 20
9.85807
 30
0.0
 40
0.00208333
 41
0.00208333
  0
VERTEX
  8
0
 10
1.37999
 20
9.35807
 30
0.0
 40
0.00208333
 41
0.00208333
  0
VERTEX
  8
0
 10
10.6574
 20
9.35807
 30
0.0
 40
0.00208333
 41
0.00208333
  0
VERTEX
  8
0
 10
10.8553
 20
9.85807
 30
0.0
 40
0.00208333
 41
0.00208333
  0
SEQEND
 8
0
  0
POLYLINE
  8
0
 62
     7
 66
     1
 10
0
 20
0
 30
0.0
 70
     1
 40
0
 41
0
  0
VERTEX
  8
0
 10
6.65386
 20
9.85807
 30
0.0
 40
0
 41
0
  0
VERTEX
  8
0
 10
7.61029
 20
9.85807
 30
0.0
 40
0
 41
0
  0
VERTEX
  8
0
 10
7.61029
 20
9.35807
 30
0.0
 40
0
 41
0
  0
VERTEX
  8
0
 10
6.65386
 20
9.35807
 30
0.0
 40
0
 41
0
  0
VERTEX
  8
0
 10
6.65386
 20
9.85807
 30
0.0
 40
0
 41
0
  0
SEQEND
 8
0
  0
POLYLINE
  8
0
 62
     0
 66
     1
 10
0
 20
0
 30
0.0
 70
     1
 40
0.75
 41
0.75
  0
VERTEX
  8
0
 10
6.65386
 20
9.85807
 30
0.0
 40
0.0104167
 41
0.0104167
  0
VERTEX
  8
0
 10
7.61029
 20
9.85807
 30
0.0
 40
0.0104167
 41
0.0104167
  0
VERTEX
  8
0
 10
7.61029
 20
9.35807
 30
0.0
 40
0.0104167
 41
0.0104167
  0
VERTEX
  8
0
 10
6.65386
 20
9.35807
 30
0.0
 40
0.0104167
 41
0.0104167
  0
VERTEX
  8
0
 10
6.65386
 20
9.85807
 30
0.0
 40
0.0104167
 41
0.0104167
  0
SEQEND
 8
0
  0
POLYLINE
  8
0
 62
     7
 66
     1
 10
0
 20
0
 30
0.0
 70
     1
 40
0
 41
0
  0
VERTEX
  8
0
 10
6.65386
 20
9.85807
 30
0.0
 40
0
 41
0
  0
VERTEX
  8
0
 10
7.61029
 20
9.85807
 30
0.0
 40
0
 41
0
  0
VERTEX
  8
0
 10
7.61029
 20
9.35807
 30
0.0
 40
0
 41
0
  0
VERTEX
  8
0
 10
6.65386
 20
9.35807
 30
0.0
 40
0
 41
0
  0
VERTEX
  8
0
 10
6.65386
 20
9.85807
 30
0.0
 40
0
 41
0
  0
SEQEND
 8
0
  0
POLYLINE
  8
0
 62
     0
 66
     1
 10
0
 20
0
 30
0.0
 70
     1
 40
0.75
 41
0.75
  0
VERTEX
  8
0
 10
6.65386
 20
9.85807
 30
0.0
 40
0.0104167
 41
0.0104167
  0
VERTEX
  8
0
 10
7.61029
 20
9.85807
 30
0.0
 40
0.0104167
 41
0.0104167
  0
VERTEX
  8
0
 10
7.61029
 20
9.35807
 30
0.0
 40
0.0104167
 41
0.0104167
  0
VERTEX
  8
0
 10
6.65386
 20
9.35807
 30
0.0
 40
0.0104167
 41
0.0104167
  0
VERTEX
  8
0
 10
6.65386
 20
9.85807
 30
0.0
 40
0.0104167
 41
0.0104167
  0
SEQEND
 8
0
  0
POLYLINE
  8
0
 62
     0
 66
     1
 10
0
 20
0
 30
0.0
 70
     1
 40
0.75
 41
0.75
  0
VERTEX
  8
0
 10
7.61029
 20
9.85807
 30
0.0
 40
0.0104167
 41
0.0104167
  0
VERTEX
  8
0
 10
7.61029
 20
9.91411
 30
0.0
 40
0.0104167
 41
0.0104167
  0
VERTEX
  8
0
 10
7.59532
 20
10.0823
 30
0.0
 40
0.0104167
 41
0.0104167
  0
VERTEX
  8
0
 10
7.55051
 20
10.2765
 30
0.0
 40
0.0104167
 41
0.0104167
  0
VERTEX
  8
0
 10
7.47581
 20
10.4409
 30
0.0
 40
0.0104167
 41
0.0104167
  0
VERTEX
  8
0
 10
7.37121
 20
10.5754
 30
0.0
 40
0.0104167
 41
0.0104167
  0
VERTEX
  8
0
 10
7.23671
 20
10.68
 30
0.0
 40
0.0104167
 41
0.0104167
  0
VERTEX
  8
0
 10
7.07232
 20
10.7547
 30
0.0
 40
0.0104167
 41
0.0104167
  0
VERTEX
  8
0
 10
6.8781
 20
10.7995
 30
0.0
 40
0.0104167
 41
0.0104167
  0
VERTEX
  8
0
 10
6.70996
 20
10.8145
 30
0.0
 40
0.0104167
 41
0.0104167
  0
VERTEX
  8
0
 10
6.65397
 20
10.8145
 30
0.0
 40
0.0104167
 41
0.0104167
  0
VERTEX
  8
0
 10
6.65397
 20
9.85807
 30
0.0
 40
0.0104167
 41
0.0104167
  0
VERTEX
  8
0
 10
7.61029
 20
9.85807
 30
0.0
 40
0.0104167
 41
0.0104167
  0
SEQEND
 8
0
  0
POLYLINE
  8
0
 62
     0
 66
     1
 10
0
 20
0
 30
0.0
 70
     1
 40
0.75
 41
0.75
  0
VERTEX
  8
0
 10
7.61029
 20
9.35807
 30
0.0
 40
0.0104167
 41
0.0104167
  0
VERTEX
  8
0
 10
7.61029
 20
9.30208
 30
0.0
 40
0.0104167
 41
0.0104167
  0
VERTEX
  8
0
 10
7.59532
 20
9.13396
 30
0.0
 40
0.0104167
 41
0.0104167
  0
VERTEX
  8
0
 10
7.55051
 20
8.93972
 30
0.0
 40
0.0104167
 41
0.0104167
  0
VERTEX
  8
0
 10
7.47581
 20
8.77533
 30
0.0
 40
0.0104167
 41
0.0104167
  0
VERTEX
  8
0
 10
7.37121
 20
8.64085
 30
0.0
 40
0.0104167
 41
0.0104167
  0
VERTEX
  8
0
 10
7.23671
 20
8.53624
 30
0.0
 40
0.0104167
 41
0.0104167
  0
VERTEX
  8
0
 10
7.07232
 20
8.46153
 30
0.0
 40
0.0104167
 41
0.0104167
  0
VERTEX
  8
0
 10
6.8781
 20
8.41672
 30
0.0
 40
0.0104167
 41
0.0104167
  0
VERTEX
  8
0
 10
6.70996
 20
8.40175
 30
0.0
 40
0.0104167
 41
0.0104167
  0
VERTEX
  8
0
 10
6.65397
 20
8.40175
 30
0.0
 40
0.0104167
 41
0.0104167
  0
VERTEX
  8
0
 10
6.65397
 20
9.35807
 30
0.0
 40
0.0104167
 41
0.0104167
  0
VERTEX
  8
0
 10
7.61029
 20
9.35807
 30
0.0
 40
0.0104167
 41
0.0104167
  0
SEQEND
 8
0
  0
POLYLINE
  8
0
 62
     7
 66
     1
 10
0
 20
0
 30
0.0
 70
     1
 40
0
 41
0
  0
VERTEX
  8
0
 10
1.83137
 20
9.85807
 30
0.0
 40
0
 41
0
  0
VERTEX
  8
0
 10
3.47749
 20
9.85807
 30
0.0
 40
0
 41
0
  0
VERTEX
  8
0
 10
3.47749
 20
9.35807
 30
0.0
 40
0
 41
0
  0
VERTEX
  8
0
 10
1.83137
 20
9.35807
 30
0.0
 40
0
 41
0
  0
VERTEX
  8
0
 10
1.83137
 20
9.85807
 30
0.0
 40
0
 41
0
  0
SEQEND
 8
0
  0
POLYLINE
  8
0
 62
     0
 66
     1
 10
0
 20
0
 30
0.0
 70
     1
 40
0.75
 41
0.75
  0
VERTEX
  8
0
 10
1.83137
 20
9.85807
 30
0.0
 40
0.0104167
 41
0.0104167
  0
VERTEX
  8
0
 10
3.47749
 20
9.85807
 30
0.0
 40
0.0104167
 41
0.0104167
  0
VERTEX
  8
0
 10
3.47749
 20
9.35807
 30
0.0
 40
0.0104167
 41
0.0104167
  0
VERTEX
  8
0
 10
1.83137
 20
9.35807
 30
0.0
 40
0.0104167
 41
0.0104167
  0
VERTEX
  8
0
 10
1.83137
 20
9.85807
 30
0.0
 40
0.0104167
 41
0.0104167
  0
SEQEND
 8
0
  0
POLYLINE
  8
0
 62
     7
 66
     1
 10
0
 20
0
 30
0.0
 70
     1
 40
0
 41
0
  0
VERTEX
  8
0
 10
1.83137
 20
9.85807
 30
0.0
 40
0
 41
0
  0
VERTEX
  8
0
 10
3.47749
 20
9.85807
 30
0.0
 40
0
 41
0
  0
VERTEX
  8
0
 10
3.47749
 20
9.35807
 30
0.0
 40
0
 41
0
  0
VERTEX
  8
0
 10
1.83137
 20
9.35807
 30
0.0
 40
0
 41
0
  0
VERTEX
  8
0
 10
1.83137
 20
9.85807
 30
0.0
 40
0
 41
0
  0
SEQEND
 8
0
  0
POLYLINE
  8
0
 62
     0
 66
     1
 10
0
 20
0
 30
0.0
 70
     1
 40
0.75
 41
0.75
  0
VERTEX
  8
0
 10
1.83137
 20
9.85807
 30
0.0
 40
0.0104167
 41
0.0104167
  0
VERTEX
  8
0
 10
3.47749
 20
9.85807
 30
0.0
 40
0.0104167
 41
0.0104167
  0
VERTEX
  8
0
 10
3.47749
 20
9.35807
 30
0.0
 40
0.0104167
 41
0.0104167
  0
VERTEX
  8
0
 10
1.83137
 20
9.35807
 30
0.0
 40
0.0104167
 41
0.0104167
  0
VERTEX
  8
0
 10
1.83137
 20
9.85807
 30
0.0
 40
0.0104167
 41
0.0104167
  0
SEQEND
 8
0
  0
POLYLINE
  8
0
 62
     0
 66
     1
 10
0
 20
0
 30
0.0
 40
0.75
 41
0.75
  0
VERTEX
  8
0
 10
3.39936
 20
9.60812
 30
0.0
 40
0.0104167
 41
0.0104167
  0
VERTEX
  8
0
 10
1.90944
 20
9.60812
 30
0.0
 40
0.0104167
 41
0.0104167
  0
SEQEND
 8
0
  0
POLYLINE
  8
0
 62
     0
 66
     1
 10
0
 20
0
 30
0.0
 40
0.75
 41
0.75
  0
VERTEX
  8
0
 10
3.39936
 20
9.85812
 30
0.0
 40
0.0104167
 41
0.0104167
  0
VERTEX
  8
0
 10
3.39936
 20
9.35812
 30
0.0
 40
0.0104167
 41
0.0104167
  0
SEQEND
 8
0
  0
POLYLINE
  8
0
 62
     0
 66
     1
 10
0
 20
0
 30
0.0
 40
0.75
 41
0.75
  0
VERTEX
  8
0
 10
1.90944
 20
9.85812
 30
0.0
 40
0.0104167
 41
0.0104167
  0
VERTEX
  8
0
 10
1.90944
 20
9.35812
 30
0.0
 40
0.0104167
 41
0.0104167
  0
SEQEND
 8
0
  0
POLYLINE
  8
0
 62
     7
 66
     1
 10
0
 20
0
 30
0.0
 70
     1
 40
0
 41
0
  0
VERTEX
  8
0
 10
4.72374
 20
9.85807
 30
0.0
 40
0
 41
0
  0
VERTEX
  8
0
 10
6.08008
 20
9.85807
 30
0.0
 40
0
 41
0
  0
VERTEX
  8
0
 10
6.08008
 20
9.35807
 30
0.0
 40
0
 41
0
  0
VERTEX
  8
0
 10
4.72374
 20
9.35807
 30
0.0
 40
0
 41
0
  0
VERTEX
  8
0
 10
4.72374
 20
9.85807
 30
0.0
 40
0
 41
0
  0
SEQEND
 8
0
  0
POLYLINE
  8
0
 62
     0
 66
     1
 10
0
 20
0
 30
0.0
 70
     1
 40
0.75
 41
0.75
  0
VERTEX
  8
0
 10
4.72374
 20
9.85807
 30
0.0
 40
0.0104167
 41
0.0104167
  0
VERTEX
  8
0
 10
6.08008
 20
9.85807
 30
0.0
 40
0.0104167
 41
0.0104167
  0
VERTEX
  8
0
 10
6.08008
 20
9.35807
 30
0.0
 40
0.0104167
 41
0.0104167
  0
VERTEX
  8
0
 10
4.72374
 20
9.35807
 30
0.0
 40
0.0104167
 41
0.0104167
  0
VERTEX
  8
0
 10
4.72374
 20
9.85807
 30
0.0
 40
0.0104167
 41
0.0104167
  0
SEQEND
 8
0
  0
POLYLINE
  8
0
 62
     7
 66
     1
 10
0
 20
0
 30
0.0
 70
     1
 40
0
 41
0
  0
VERTEX
  8
0
 10
4.72374
 20
9.85807
 30
0.0
 40
0
 41
0
  0
VERTEX
  8
0
 10
6.08008
 20
9.85807
 30
0.0
 40
0
 41
0
  0
VERTEX
  8
0
 10
6.08008
 20
9.35807
 30
0.0
 40
0
 41
0
  0
VERTEX
  8
0
 10
4.72374
 20
9.35807
 30
0.0
 40
0
 41
0
  0
VERTEX
  8
0
 10
4.72374
 20
9.85807
 30
0.0
 40
0
 41
0
  0
SEQEND
 8
0
  0
POLYLINE
  8
0
 62
     0
 66
     1
 10
0
 20
0
 30
0.0
 70
     1
 40
0.75
 41
0.75
  0
VERTEX
  8
0
 10
4.72374
 20
9.85807
 30
0.0
 40
0.0104167
 41
0.0104167
  0
VERTEX
  8
0
 10
6.08008
 20
9.85807
 30
0.0
 40
0.0104167
 41
0.0104167
  0
VERTEX
  8
0
 10
6.08008
 20
9.35807
 30
0.0
 40
0.0104167
 41
0.0104167
  0
VERTEX
  8
0
 10
4.72374
 20
9.35807
 30
0.0
 40
0.0104167
 41
0.0104167
  0
VERTEX
  8
0
 10
4.72374
 20
9.85807
 30
0.0
 40
0.0104167
 41
0.0104167
  0
SEQEND
 8
0
  0
POLYLINE
  8
0
 62
     0
 66
     1
 10
0
 20
0
 30
0.0
 40
0.75
 41
0.75
  0
VERTEX
  8
0
 10
6.00196
 20
9.60812
 30
0.0
 40
0.0104167
 41
0.0104167
  0
VERTEX
  8
0
 10
4.80181
 20
9.60812
 30
0.0
 40
0.0104167
 41
0.0104167
  0
SEQEND
 8
0
  0
POLYLINE
  8
0
 62
     0
 66
     1
 10
0
 20
0
 30
0.0
 40
0.75
 41
0.75
  0
VERTEX
  8
0
 10
6.00196
 20
9.85812
 30
0.0
 40
0.0104167
 41
0.0104167
  0
VERTEX
  8
0
 10
6.00196
 20
9.35812
 30
0.0
 40
0.0104167
 41
0.0104167
  0
SEQEND
 8
0
  0
POLYLINE
  8
0
 62
     0
 66
     1
 10
0
 20
0
 30
0.0
 40
0.75
 41
0.75
  0
VERTEX
  8
0
 10
4.80181
 20
9.85812
 30
0.0
 40
0.0104167
 41
0.0104167
  0
VERTEX
  8
0
 10
4.80181
 20
9.35812
 30
0.0
 40
0.0104167
 41
0.0104167
  0
SEQEND
 8
0
  0
POLYLINE
  8
0
 62
     7
 66
     1
 10
0
 20
0
 30
0.0
 70
     1
 40
0
 41
0
  0
VERTEX
  8
0
 10
8.07981
 20
9.85807
 30
0.0
 40
0
 41
0
  0
VERTEX
  8
0
 10
9.83029
 20
9.85807
 30
0.0
 40
0
 41
0
  0
VERTEX
  8
0
 10
9.83029
 20
9.35807
 30
0.0
 40
0
 41
0
  0
VERTEX
  8
0
 10
8.07981
 20
9.35807
 30
0.0
 40
0
 41
0
  0
VERTEX
  8
0
 10
8.07981
 20
9.85807
 30
0.0
 40
0
 41
0
  0
SEQEND
 8
0
  0
POLYLINE
  8
0
 62
     0
 66
     1
 10
0
 20
0
 30
0.0
 70
     1
 40
0.75
 41
0.75
  0
VERTEX
  8
0
 10
8.07981
 20
9.85807
 30
0.0
 40
0.0104167
 41
0.0104167
  0
VERTEX
  8
0
 10
9.83029
 20
9.85807
 30
0.0
 40
0.0104167
 41
0.0104167
  0
VERTEX
  8
0
 10
9.83029
 20
9.35807
 30
0.0
 40
0.0104167
 41
0.0104167
  0
VERTEX
  8
0
 10
8.07981
 20
9.35807
 30
0.0
 40
0.0104167
 41
0.0104167
  0
VERTEX
  8
0
 10
8.07981
 20
9.85807
 30
0.0
 40
0.0104167
 41
0.0104167
  0
SEQEND
 8
0
  0
POLYLINE
  8
0
 62
     7
 66
     1
 10
0
 20
0
 30
0.0
 70
     1
 40
0
 41
0
  0
VERTEX
  8
0
 10
8.07981
 20
9.85807
 30
0.0
 40
0
 41
0
  0
VERTEX
  8
0
 10
9.83029
 20
9.85807
 30
0.0
 40
0
 41
0
  0
VERTEX
  8
0
 10
9.83029
 20
9.35807
 30
0.0
 40
0
 41
0
  0
VERTEX
  8
0
 10
8.07981
 20
9.35807
 30
0.0
 40
0
 41
0
  0
VERTEX
  8
0
 10
8.07981
 20
9.85807
 30
0.0
 40
0
 41
0
  0
SEQEND
 8
0
  0
POLYLINE
  8
0
 62
     0
 66
     1
 10
0
 20
0
 30
0.0
 70
     1
 40
0.75
 41
0.75
  0
VERTEX
  8
0
 10
8.07981
 20
9.85807
 30
0.0
 40
0.0104167
 41
0.0104167
  0
VERTEX
  8
0
 10
9.83029
 20
9.85807
 30
0.0
 40
0.0104167
 41
0.0104167
  0
VERTEX
  8
0
 10
9.83029
 20
9.35807
 30
0.0
 40
0.0104167
 41
0.0104167
  0
VERTEX
  8
0
 10
8.07981
 20
9.35807
 30
0.0
 40
0.0104167
 41
0.0104167
  0
VERTEX
  8
0
 10
8.07981
 20
9.85807
 30
0.0
 40
0.0104167
 41
0.0104167
  0
SEQEND
 8
0
  0
POLYLINE
  8
0
 62
     0
 66
     1
 10
0
 20
0
 30
0.0
 40
0.75
 41
0.75
  0
VERTEX
  8
0
 10
9.75217
 20
9.60812
 30
0.0
 40
0.0104167
 41
0.0104167
  0
VERTEX
  8
0
 10
8.15793
 20
9.60812
 30
0.0
 40
0.0104167
 41
0.0104167
  0
SEQEND
 8
0
  0
POLYLINE
  8
0
 62
     0
 66
     1
 10
0
 20
0
 30
0.0
 40
0.75
 41
0.75
  0
VERTEX
  8
0
 10
9.75217
 20
9.85812
 30
0.0
 40
0.0104167
 41
0.0104167
  0
VERTEX
  8
0
 10
9.75217
 20
9.35812
 30
0.0
 40
0.0104167
 41
0.0104167
  0
SEQEND
 8
0
  0
POLYLINE
  8
0
 62
     0
 66
     1
 10
0
 20
0
 30
0.0
 40
0.75
 41
0.75
  0
VERTEX
  8
0
 10
8.15793
 20
9.85812
 30
0.0
 40
0.0104167
 41
0.0104167
  0
VERTEX
  8
0
 10
8.15793
 20
9.35812
 30
0.0
 40
0.0104167
 41
0.0104167
  0
SEQEND
 8
0
  0
POLYLINE
  8
0
 62
     0
 66
     1
 10
0
 20
0
 30
0.0
 70
     1
 40
0
 41
0
  0
VERTEX
  8
0
 10
10.6261
 20
12.3727
 30
0.0
 40
0
 41
0
  0
VERTEX
  8
0
 10
10.8553
 20
12.3727
 30
0.0
 40
0
 41
0
  0
VERTEX
  8
0
 10
10.8553
 20
9.85807
 30
0.0
 40
0
 41
0
  0
VERTEX
  8
0
 10
10.6261
 20
9.85807
 30
0.0
 40
0
 41
0
  0
VERTEX
  8
0
 10
10.6261
 20
12.3727
 30
0.0
 40
0
 41
0
  0
SEQEND
 8
0
  0
POLYLINE
  8
0
 62
     0
 66
     1
 10
0
 20
0
 30
0.0
 70
     1
 40
0.15
 41
0.15
  0
VERTEX
  8
0
 10
10.6261
 20
12.3727
 30
0.0
 40
0.00208333
 41
0.00208333
  0
VERTEX
  8
0
 10
10.8553
 20
12.3727
 30
0.0
 40
0.00208333
 41
0.00208333
  0
VERTEX
  8
0
 10
10.8553
 20
9.85807
 30
0.0
 40
0.00208333
 41
0.00208333
  0
VERTEX
  8
0
 10
10.6261
 20
9.85807
 30
0.0
 40
0.00208333
 41
0.00208333
  0
VERTEX
  8
0
 10
10.6261
 20
12.3727
 30
0.0
 40
0.00208333
 41
0.00208333
  0
SEQEND
 8
0
  0
POLYLINE
  8
0
 62
     7
 66
     1
 10
0
 20
0
 30
0.0
 70
     1
 40
0
 41
0
  0
VERTEX
  8
0
 10
10.6261
 20
12.3727
 30
0.0
 40
0
 41
0
  0
VERTEX
  8
0
 10
6.30072
 20
12.3727
 30
0.0
 40
0
 41
0
  0
VERTEX
  8
0
 10
6.46739
 20
12.206
 30
0.0
 40
0
 41
0
  0
VERTEX
  8
0
 10
10.6261
 20
12.206
 30
0.0
 40
0
 41
0
  0
VERTEX
  8
0
 10
10.6261
 20
12.3727
 30
0.0
 40
0
 41
0
  0
SEQEND
 8
0
  0
POLYLINE
  8
0
 62
     0
 66
     1
 10
0
 20
0
 30
0.0
 70
     1
 40
0.15
 41
0.15
  0
VERTEX
  8
0
 10
10.6261
 20
12.3727
 30
0.0
 40
0.00208333
 41
0.00208333
  0
VERTEX
  8
0
 10
6.30072
 20
12.3727
 30
0.0
 40
0.00208333
 41
0.00208333
  0
VERTEX
  8
0
 10
6.46739
 20
12.206
 30
0.0
 40
0.00208333
 41
0.00208333
  0
VERTEX
  8
0
 10
10.6261
 20
12.206
 30
0.0
 40
0.00208333
 41
0.00208333
  0
VERTEX
  8
0
 10
10.6261
 20
12.3727
 30
0.0
 40
0.00208333
 41
0.00208333
  0
SEQEND
 8
0
  0
POLYLINE
  8
0
 62
     7
 66
     1
 10
0
 20
0
 30
0.0
 70
     1
 40
0
 41
0
  0
VERTEX
  8
0
 10
6.46739
 20
12.206
 30
0.0
 40
0
 41
0
  0
VERTEX
  8
0
 10
6.46739
 20
9.85807
 30
0.0
 40
0
 41
0
  0
VERTEX
  8
0
 10
6.30072
 20
9.85807
 30
0.0
 40
0
 41
0
  0
VERTEX
  8
0
 10
6.30072
 20
12.3727
 30
0.0
 40
0
 41
0
  0
VERTEX
  8
0
 10
6.46739
 20
12.206
 30
0.0
 40
0
 41
0
  0
SEQEND
 8
0
  0
POLYLINE
  8
0
 62
     0
 66
     1
 10
0
 20
0
 30
0.0
 70
     1
 40
0.15
 41
0.15
  0
VERTEX
  8
0
 10
6.46739
 20
12.206
 30
0.0
 40
0.00208333
 41
0.00208333
  0
VERTEX
  8
0
 10
6.46739
 20
9.85807
 30
0.0
 40
0.00208333
 41
0.00208333
  0
VERTEX
  8
0
 10
6.30072
 20
9.85807
 30
0.0
 40
0.00208333
 41
0.00208333
  0
VERTEX
  8
0
 10
6.30072
 20
12.3727
 30
0.0
 40
0.00208333
 41
0.00208333
  0
VERTEX
  8
0
 10
6.46739
 20
12.206
 30
0.0
 40
0.00208333
 41
0.00208333
  0
SEQEND
 8
0
  0
POLYLINE
  8
0
 62
     0
 66
     1
 10
0
 20
0
 30
0.0
 70
     1
 40
0
 41
0
  0
VERTEX
  8
0
 10
4.3826
 20
9.35807
 30
0.0
 40
0
 41
0
  0
VERTEX
  8
0
 10
4.52843
 20
9.35807
 30
0.0
 40
0
 41
0
  0
VERTEX
  8
0
 10
4.52843
 20
1.14144
 30
0.0
 40
0
 41
0
  0
VERTEX
  8
0
 10
4.3826
 20
1.14144
 30
0.0
 40
0
 41
0
  0
VERTEX
  8
0
 10
4.3826
 20
9.35807
 30
0.0
 40
0
 41
0
  0
SEQEND
 8
0
  0
POLYLINE
  8
0
 62
     0
 66
     1
 10
0
 20
0
 30
0.0
 70
     1
 40
0.15
 41
0.15
  0
VERTEX
  8
0
 10
4.3826
 20
9.35807
 30
0.0
 40
0.00208333
 41
0.00208333
  0
VERTEX
  8
0
 10
4.52843
 20
9.35807
 30
0.0
 40
0.00208333
 41
0.00208333
  0
VERTEX
  8
0
 10
4.52843
 20
1.14144
 30
0.0
 40
0.00208333
 41
0.00208333
  0
VERTEX
  8
0
 10
4.3826
 20
1.14144
 30
0.0
 40
0.00208333
 41
0.00208333
  0
VERTEX
  8
0
 10
4.3826
 20
9.35807
 30
0.0
 40
0.00208333
 41
0.00208333
  0
SEQEND
 8
0
  0
POLYLINE
  8
0
 62
     7
 66
     1
 10
0
 20
0
 30
0.0
 70
     1
 40
0
 41
0
  0
VERTEX
  8
0
 10
4.3826
 20
3.90994
 30
0.0
 40
0
 41
0
  0
VERTEX
  8
0
 10
4.52843
 20
3.90994
 30
0.0
 40
0
 41
0
  0
VERTEX
  8
0
 10
4.52843
 20
3.06651
 30
0.0
 40
0
 41
0
  0
VERTEX
  8
0
 10
4.3826
 20
3.06651
 30
0.0
 40
0
 41
0
  0
VERTEX
  8
0
 10
4.3826
 20
3.90994
 30
0.0
 40
0
 41
0
  0
SEQEND
 8
0
  0
POLYLINE
  8
0
 62
     0
 66
     1
 10
0
 20
0
 30
0.0
 70
     1
 40
0.75
 41
0.75
  0
VERTEX
  8
0
 10
4.3826
 20
3.90994
 30
0.0
 40
0.0104167
 41
0.0104167
  0
VERTEX
  8
0
 10
4.52843
 20
3.90994
 30
0.0
 40
0.0104167
 41
0.0104167
  0
VERTEX
  8
0
 10
4.52843
 20
3.06651
 30
0.0
 40
0.0104167
 41
0.0104167
  0
VERTEX
  8
0
 10
4.3826
 20
3.06651
 30
0.0
 40
0.0104167
 41
0.0104167
  0
VERTEX
  8
0
 10
4.3826
 20
3.90994
 30
0.0
 40
0.0104167
 41
0.0104167
  0
SEQEND
 8
0
  0
POLYLINE
  8
0
 62
     7
 66
     1
 10
0
 20
0
 30
0.0
 70
     1
 40
0
 41
0
  0
VERTEX
  8
0
 10
4.3826
 20
3.90994
 30
0.0
 40
0
 41
0
  0
VERTEX
  8
0
 10
4.52843
 20
3.90994
 30
0.0
 40
0
 41
0
  0
VERTEX
  8
0
 10
4.52843
 20
3.06651
 30
0.0
 40
0
 41
0
  0
VERTEX
  8
0
 10
4.3826
 20
3.06651
 30
0.0
 40
0
 41
0
  0
VERTEX
  8
0
 10
4.3826
 20
3.90994
 30
0.0
 40
0
 41
0
  0
SEQEND
 8
0
  0
POLYLINE
  8
0
 62
     0
 66
     1
 10
0
 20
0
 30
0.0
 70
     1
 40
0.75
 41
0.75
  0
VERTEX
  8
0
 10
4.3826
 20
3.90994
 30
0.0
 40
0.0104167
 41
0.0104167
  0
VERTEX
  8
0
 10
4.52843
 20
3.90994
 30
0.0
 40
0.0104167
 41
0.0104167
  0
VERTEX
  8
0
 10
4.52843
 20
3.06651
 30
0.0
 40
0.0104167
 41
0.0104167
  0
VERTEX
  8
0
 10
4.3826
 20
3.06651
 30
0.0
 40
0.0104167
 41
0.0104167
  0
VERTEX
  8
0
 10
4.3826
 20
3.90994
 30
0.0
 40
0.0104167
 41
0.0104167
  0
SEQEND
 8
0
  0
POLYLINE
  8
0
 62
     0
 66
     1
 10
0
 20
0
 30
0.0
 70
     1
 40
0.75
 41
0.75
  0
VERTEX
  8
0
 10
4.3826
 20
3.06651
 30
0.0
 40
0.0104167
 41
0.0104167
  0
VERTEX
  8
0
 10
4.33317
 20
3.06651
 30
0.0
 40
0.0104167
 41
0.0104167
  0
VERTEX
  8
0
 10
4.1849
 20
3.07969
 30
0.0
 40
0.0104167
 41
0.0104167
  0
VERTEX
  8
0
 10
4.01357
 20
3.11925
 30
0.0
 40
0.0104167
 41
0.0104167
  0
VERTEX
  8
0
 10
3.8686
 20
3.18517
 30
0.0
 40
0.0104167
 41
0.0104167
  0
VERTEX
  8
0
 10
3.75
 20
3.2774
 30
0.0
 40
0.0104167
 41
0.0104167
  0
VERTEX
  8
0
 10
3.65776
 20
3.396
 30
0.0
 40
0.0104167
 41
0.0104167
  0
VERTEX
  8
0
 10
3.59185
 20
3.54096
 30
0.0
 40
0.0104167
 41
0.0104167
  0
VERTEX
  8
0
 10
3.55231
 20
3.71229
 30
0.0
 40
0.0104167
 41
0.0104167
  0
VERTEX
  8
0
 10
3.53917
 20
3.86057
 30
0.0
 40
0.0104167
 41
0.0104167
  0
VERTEX
  8
0
 10
3.53917
 20
3.90994
 30
0.0
 40
0.0104167
 41
0.0104167
  0
VERTEX
  8
0
 10
4.3826
 20
3.90994
 30
0.0
 40
0.0104167
 41
0.0104167
  0
VERTEX
  8
0
 10
4.3826
 20
3.06651
 30
0.0
 40
0.0104167
 41
0.0104167
  0
SEQEND
 8
0
  0
POLYLINE
  8
0
 62
     7
 66
     1
 10
0
 20
0
 30
0.0
 70
     1
 40
0
 41
0
  0
VERTEX
  8
0
 10
4.3826
 20
6.25265
 30
0.0
 40
0
 41
0
  0
VERTEX
  8
0
 10
4.52843
 20
6.25265
 30
0.0
 40
0
 41
0
  0
VERTEX
  8
0
 10
4.52843
 20
5.44239
 30
0.0
 40
0
 41
0
  0
VERTEX
  8
0
 10
4.3826
 20
5.44239
 30
0.0
 40
0
 41
0
  0
VERTEX
  8
0
 10
4.3826
 20
6.25265
 30
0.0
 40
0
 41
0
  0
SEQEND
 8
0
  0
POLYLINE
  8
0
 62
     0
 66
     1
 10
0
 20
0
 30
0.0
 70
     1
 40
0.75
 41
0.75
  0
VERTEX
  8
0
 10
4.3826
 20
6.25265
 30
0.0
 40
0.0104167
 41
0.0104167
  0
VERTEX
  8
0
 10
4.52843
 20
6.25265
 30
0.0
 40
0.0104167
 41
0.0104167
  0
VERTEX
  8
0
 10
4.52843
 20
5.44239
 30
0.0
 40
0.0104167
 41
0.0104167
  0
VERTEX
  8
0
 10
4.3826
 20
5.44239
 30
0.0
 40
0.0104167
 41
0.0104167
  0
VERTEX
  8
0
 10
4.3826
 20
6.25265
 30
0.0
 40
0.0104167
 41
0.0104167
  0
SEQEND
 8
0
  0
POLYLINE
  8
0
 62
     7
 66
     1
 10
0
 20
0
 30
0.0
 70
     1
 40
0
 41
0
  0
VERTEX
  8
0
 10
4.3826
 20
6.25265
 30
0.0
 40
0
 41
0
  0
VERTEX
  8
0
 10
4.52843
 20
6.25265
 30
0.0
 40
0
 41
0
  0
VERTEX
  8
0
 10
4.52843
 20
5.44239
 30
0.0
 40
0
 41
0
  0
VERTEX
  8
0
 10
4.3826
 20
5.44239
 30
0.0
 40
0
 41
0
  0
VERTEX
  8
0
 10
4.3826
 20
6.25265
 30
0.0
 40
0
 41
0
  0
SEQEND
 8
0
  0
POLYLINE
  8
0
 62
     0
 66
     1
 10
0
 20
0
 30
0.0
 70
     1
 40
0.75
 41
0.75
  0
VERTEX
  8
0
 10
4.3826
 20
6.25265
 30
0.0
 40
0.0104167
 41
0.0104167
  0
VERTEX
  8
0
 10
4.52843
 20
6.25265
 30
0.0
 40
0.0104167
 41
0.0104167
  0
VERTEX
  8
0
 10
4.52843
 20
5.44239
 30
0.0
 40
0.0104167
 41
0.0104167
  0
VERTEX
  8
0
 10
4.3826
 20
5.44239
 30
0.0
 40
0.0104167
 41
0.0104167
  0
VERTEX
  8
0
 10
4.3826
 20
6.25265
 30
0.0
 40
0.0104167
 41
0.0104167
  0
SEQEND
 8
0
  0
POLYLINE
  8
0
 62
     0
 66
     1
 10
0
 20
0
 30
0.0
 70
     1
 40
0.75
 41
0.75
  0
VERTEX
  8
0
 10
4.3826
 20
6.25265
 30
0.0
 40
0.0104167
 41
0.0104167
  0
VERTEX
  8
0
 10
4.33507
 20
6.25265
 30
0.0
 40
0.0104167
 41
0.0104167
  0
VERTEX
  8
0
 10
4.19265
 20
6.24001
 30
0.0
 40
0.0104167
 41
0.0104167
  0
VERTEX
  8
0
 10
4.02806
 20
6.20204
 30
0.0
 40
0.0104167
 41
0.0104167
  0
VERTEX
  8
0
 10
3.88878
 20
6.13872
 30
0.0
 40
0.0104167
 41
0.0104167
  0
VERTEX
  8
0
 10
3.77485
 20
6.05013
 30
0.0
 40
0.0104167
 41
0.0104167
  0
VERTEX
  8
0
 10
3.68619
 20
5.93619
 30
0.0
 40
0.0104167
 41
0.0104167
  0
VERTEX
  8
0
 10
3.62289
 20
5.79693
 30
0.0
 40
0.0104167
 41
0.0104167
  0
VERTEX
  8
0
 10
3.5849
 20
5.63232
 30
0.0
 40
0.0104167
 41
0.0104167
  0
VERTEX
  8
0
 10
3.57226
 20
5.4899
 30
0.0
 40
0.0104167
 41
0.0104167
  0
VERTEX
  8
0
 10
3.57226
 20
5.44239
 30
0.0
 40
0.0104167
 41
0.0104167
  0
VERTEX
  8
0
 10
4.3826
 20
5.44239
 30
0.0
 40
0.0104167
 41
0.0104167
  0
VERTEX
  8
0
 10
4.3826
 20
6.25265
 30
0.0
 40
0.0104167
 41
0.0104167
  0
SEQEND
 8
0
  0
POLYLINE
  8
0
 62
     0
 66
     1
 10
0
 20
0
 30
0.0
 70
     1
 40
0
 41
0
  0
VERTEX
  8
0
 10
1.37999
 20
4.7736
 30
0.0
 40
0
 41
0
  0
VERTEX
  8
0
 10
4.3826
 20
4.7736
 30
0.0
 40
0
 41
0
  0
VERTEX
  8
0
 10
4.3826
 20
4.62776
 30
0.0
 40
0
 41
0
  0
VERTEX
  8
0
 10
1.37999
 20
4.62776
 30
0.0
 40
0
 41
0
  0
VERTEX
  8
0
 10
1.37999
 20
4.7736
 30
0.0
 40
0
 41
0
  0
SEQEND
 8
0
  0
POLYLINE
  8
0
 62
     0
 66
     1
 10
0
 20
0
 30
0.0
 70
     1
 40
0.15
 41
0.15
  0
VERTEX
  8
0
 10
1.37999
 20
4.7736
 30
0.0
 40
0.00208333
 41
0.00208333
  0
VERTEX
  8
0
 10
4.3826
 20
4.7736
 30
0.0
 40
0.00208333
 41
0.00208333
  0
VERTEX
  8
0
 10
4.3826
 20
4.62776
 30
0.0
 40
0.00208333
 41
0.00208333
  0
VERTEX
  8
0
 10
1.37999
 20
4.62776
 30
0.0
 40
0.00208333
 41
0.00208333
  0
VERTEX
  8
0
 10
1.37999
 20
4.7736
 30
0.0
 40
0.00208333
 41
0.00208333
  0
SEQEND
 8
0
  0
POLYLINE
  8
0
 62
     0
 66
     1
 10
0
 20
0
 30
0.0
 70
     1
 40
0
 41
0
  0
VERTEX
  8
0
 10
4.52843
 20
2.85883
 30
0.0
 40
0
 41
0
  0
VERTEX
  8
0
 10
8.65479
 20
2.85883
 30
0.0
 40
0
 41
0
  0
VERTEX
  8
0
 10
8.73867
 20
3.00467
 30
0.0
 40
0
 41
0
  0
VERTEX
  8
0
 10
4.52843
 20
3.00467
 30
0.0
 40
0
 41
0
  0
VERTEX
  8
0
 10
4.52843
 20
2.85883
 30
0.0
 40
0
 41
0
  0
SEQEND
 8
0
  0
POLYLINE
  8
0
 62
     0
 66
     1
 10
0
 20
0
 30
0.0
 70
     1
 40
0.15
 41
0.15
  0
VERTEX
  8
0
 10
4.52843
 20
2.85883
 30
0.0
 40
0.00208333
 41
0.00208333
  0
VERTEX
  8
0
 10
8.65479
 20
2.85883
 30
0.0
 40
0.00208333
 41
0.00208333
  0
VERTEX
  8
0
 10
8.73867
 20
3.00467
 30
0.0
 40
0.00208333
 41
0.00208333
  0
VERTEX
  8
0
 10
4.52843
 20
3.00467
 30
0.0
 40
0.00208333
 41
0.00208333
  0
VERTEX
  8
0
 10
4.52843
 20
2.85883
 30
0.0
 40
0.00208333
 41
0.00208333
  0
SEQEND
 8
0
  0
POLYLINE
  8
0
 62
     0
 66
     1
 10
0
 20
0
 30
0.0
 70
     1
 40
0
 41
0
  0
VERTEX
  8
0
 10
8.65479
 20
2.85883
 30
0.0
 40
0
 41
0
  0
VERTEX
  8
0
 10
9.22293
 20
1.88151
 30
0.0
 40
0
 41
0
  0
VERTEX
  8
0
 10
9.36876
 20
1.9209
 30
0.0
 40
0
 41
0
  0
VERTEX
  8
0
 10
8.73867
 20
3.00467
 30
0.0
 40
0
 41
0
  0
VERTEX
  8
0
 10
8.65479
 20
2.85883
 30
0.0
 40
0
 41
0
  0
SEQEND
 8
0
  0
POLYLINE
  8
0
 62
     0
 66
     1
 10
0
 20
0
 30
0.0
 70
     1
 40
0.15
 41
0.15
  0
VERTEX
  8
0
 10
8.65479
 20
2.85883
 30
0.0
 40
0.00208333
 41
0.00208333
  0
VERTEX
  8
0
 10
9.22293
 20
1.88151
 30
0.0
 40
0.00208333
 41
0.00208333
  0
VERTEX
  8
0
 10
9.36876
 20
1.9209
 30
0.0
 40
0.00208333
 41
0.00208333
  0
VERTEX
  8
0
 10
8.73867
 20
3.00467
 30
0.0
 40
0.00208333
 41
0.00208333
  0
VERTEX
  8
0
 10
8.65479
 20
2.85883
 30
0.0
 40
0.00208333
 41
0.00208333
  0
SEQEND
 8
0
  0
POLYLINE
  8
0
 62
     7
 66
     1
 10
0
 20
0
 30
0.0
 70
     1
 40
0
 41
0
  0
VERTEX
  8
0
 10
8.72478
 20
2.73839
 30
0.0
 40
0
 41
0
  0
VERTEX
  8
0
 10
9.13883
 20
2.02621
 30
0.0
 40
0
 41
0
  0
VERTEX
  8
0
 10
9.26492
 20
2.09956
 30
0.0
 40
0
 41
0
  0
VERTEX
  8
0
 10
8.85086
 20
2.81174
 30
0.0
 40
0
 41
0
  0
VERTEX
  8
0
 10
8.72478
 20
2.73839
 30
0.0
 40
0
 41
0
  0
SEQEND
 8
0
  0
POLYLINE
  8
0
 62
     0
 66
     1
 10
0
 20
0
 30
0.0
 70
     1
 40
0.75
 41
0.75
  0
VERTEX
  8
0
 10
8.72478
 20
2.73839
 30
0.0
 40
0.0104167
 41
0.0104167
  0
VERTEX
  8
0
 10
9.13883
 20
2.02621
 30
0.0
 40
0.0104167
 41
0.0104167
  0
VERTEX
  8
0
 10
9.26492
 20
2.09956
 30
0.0
 40
0.0104167
 41
0.0104167
  0
VERTEX
  8
0
 10
8.85086
 20
2.81174
 30
0.0
 40
0.0104167
 41
0.0104167
  0
VERTEX
  8
0
 10
8.72478
 20
2.73839
 30
0.0
 40
0.0104167
 41
0.0104167
  0
SEQEND
 8
0
  0
POLYLINE
  8
0
 62
     7
 66
     1
 10
0
 20
0
 30
0.0
 70
     1
 40
0
 41
0
  0
VERTEX
  8
0
 10
8.72478
 20
2.73839
 30
0.0
 40
0
 41
0
  0
VERTEX
  8
0
 10
9.13883
 20
2.02621
 30
0.0
 40
0
 41
0
  0
VERTEX
  8
0
 10
9.26492
 20
2.09956
 30
0.0
 40
0
 41
0
  0
VERTEX
  8
0
 10
8.85086
 20
2.81174
 30
0.0
 40
0
 41
0
  0
VERTEX
  8
0
 10
8.72478
 20
2.73839
 30
0.0
 40
0
 41
0
  0
SEQEND
 8
0
  0
POLYLINE
  8
0
 62
     0
 66
     1
 10
0
 20
0
 30
0.0
 70
     1
 40
0.75
 41
0.75
  0
VERTEX
  8
0
 10
8.72478
 20
2.73839
 30
0.0
 40
0.0104167
 41
0.0104167
  0
VERTEX
  8
0
 10
9.13883
 20
2.02621
 30
0.0
 40
0.0104167
 41
0.0104167
  0
VERTEX
  8
0
 10
9.26492
 20
2.09956
 30
0.0
 40
0.0104167
 41
0.0104167
  0
VERTEX
  8
0
 10
8.85086
 20
2.81174
 30
0.0
 40
0.0104167
 41
0.0104167
  0
VERTEX
  8
0
 10
8.72478
 20
2.73839
 30
0.0
 40
0.0104167
 41
0.0104167
  0
SEQEND
 8
0
  0
POLYLINE
  8
0
 62
     0
 66
     1
 10
0
 20
0
 30
0.0
 70
     1
 40
0.75
 41
0.75
  0
VERTEX
  8
0
 10
8.85086
 20
2.81174
 30
0.0
 40
0.0104167
 41
0.0104167
  0
VERTEX
  8
0
 10
8.89258
 20
2.83599
 30
0.0
 40
0.0104167
 41
0.0104167
  0
VERTEX
  8
0
 10
9.02419
 20
2.89768
 30
0.0
 40
0.0104167
 41
0.0104167
  0
VERTEX
  8
0
 10
9.18826
 20
2.9484
 30
0.0
 40
0.0104167
 41
0.0104167
  0
VERTEX
  8
0
 10
9.34304
 20
2.96392
 30
0.0
 40
0.0104167
 41
0.0104167
  0
VERTEX
  8
0
 10
9.4885
 20
2.94428
 30
0.0
 40
0.0104167
 41
0.0104167
  0
VERTEX
  8
0
 10
9.62463
 20
2.88938
 30
0.0
 40
0.0104167
 41
0.0104167
  0
VERTEX
  8
0
 10
9.75142
 20
2.79932
 30
0.0
 40
0.0104167
 41
0.0104167
  0
VERTEX
  8
0
 10
9.86893
 20
2.6741
 30
0.0
 40
0.0104167
 41
0.0104167
  0
VERTEX
  8
0
 10
9.95281
 20
2.55539
 30
0.0
 40
0.0104167
 41
0.0104167
  0
VERTEX
  8
0
 10
9.97711
 20
2.51361
 30
0.0
 40
0.0104167
 41
0.0104167
  0
VERTEX
  8
0
 10
9.26492
 20
2.09956
 30
0.0
 40
0.0104167
 41
0.0104167
  0
VERTEX
  8
0
 10
8.85086
 20
2.81174
 30
0.0
 40
0.0104167
 41
0.0104167
  0
SEQEND
 8
0
  0
POLYLINE
  8
0
 62
     0
 66
     1
 10
0
 20
0
 30
0.0
 70
     1
 40
0
 41
0
  0
VERTEX
  8
0
 10
9.22293
 20
1.88151
 30
0.0
 40
0
 41
0
  0
VERTEX
  8
0
 10
9.22293
 20
1.14144
 30
0.0
 40
0
 41
0
  0
VERTEX
  8
0
 10
9.36876
 20
1.14144
 30
0.0
 40
0
 41
0
  0
VERTEX
  8
0
 10
9.36876
 20
1.9209
 30
0.0
 40
0
 41
0
  0
VERTEX
  8
0
 10
9.22293
 20
1.88151
 30
0.0
 40
0
 41
0
  0
SEQEND
 8
0
  0
POLYLINE
  8
0
 62
     0
 66
     1
 10
0
 20
0
 30
0.0
 70
     1
 40
0.15
 41
0.15
  0
VERTEX
  8
0
 10
9.22293
 20
1.88151
 30
0.0
 40
0.00208333
 41
0.00208333
  0
VERTEX
  8
0
 10
9.22293
 20
1.14144
 30
0.0
 40
0.00208333
 41
0.00208333
  0
VERTEX
  8
0
 10
9.36876
 20
1.14144
 30
0.0
 40
0.00208333
 41
0.00208333
  0
VERTEX
  8
0
 10
9.36876
 20
1.9209
 30
0.0
 40
0.00208333
 41
0.00208333
  0
VERTEX
  8
0
 10
9.22293
 20
1.88151
 30
0.0
 40
0.00208333
 41
0.00208333
  0
SEQEND
 8
0
  0
POLYLINE
  8
0
 62
     0
 66
     1
 10
0
 20
0
 30
0.0
 70
     1
 40
0
 41
0
  0
VERTEX
  8
0
 10
8.73867
 20
4.85861
 30
0.0
 40
0
 41
0
  0
VERTEX
  8
0
 10
10.6574
 20
4.85861
 30
0.0
 40
0
 41
0
  0
VERTEX
  8
0
 10
10.6574
 20
4.71278
 30
0.0
 40
0
 41
0
  0
VERTEX
  8
0
 10
8.73867
 20
4.71278
 30
0.0
 40
0
 41
0
  0
VERTEX
  8
0
 10
8.73867
 20
4.85861
 30
0.0
 40
0
 41
0
  0
SEQEND
 8
0
  0
POLYLINE
  8
0
 62
     0
 66
     1
 10
0
 20
0
 30
0.0
 70
     1
 40
0.15
 41
0.15
  0
VERTEX
  8
0
 10
8.73867
 20
4.85861
 30
0.0
 40
0.00208333
 41
0.00208333
  0
VERTEX
  8
0
 10
10.6574
 20
4.85861
 30
0.0
 40
0.00208333
 41
0.00208333
  0
VERTEX
  8
0
 10
10.6574
 20
4.71278
 30
0.0
 40
0.00208333
 41
0.00208333
  0
VERTEX
  8
0
 10
8.73867
 20
4.71278
 30
0.0
 40
0.00208333
 41
0.00208333
  0
VERTEX
  8
0
 10
8.73867
 20
4.85861
 30
0.0
 40
0.00208333
 41
0.00208333
  0
SEQEND
 8
0
  0
POLYLINE
  8
0
 62
     0
 66
     1
 10
0
 20
0
 30
0.0
 70
     1
 40
0
 41
0
  0
VERTEX
  8
0
 10
5.91992
 20
2.85883
 30
0.0
 40
0
 41
0
  0
VERTEX
  8
0
 10
6.06575
 20
2.85883
 30
0.0
 40
0
 41
0
  0
VERTEX
  8
0
 10
6.06575
 20
1.14144
 30
0.0
 40
0
 41
0
  0
VERTEX
  8
0
 10
5.91992
 20
1.14144
 30
0.0
 40
0
 41
0
  0
VERTEX
  8
0
 10
5.91992
 20
2.85883
 30
0.0
 40
0
 41
0
  0
SEQEND
 8
0
  0
POLYLINE
  8
0
 62
     0
 66
     1
 10
0
 20
0
 30
0.0
 70
     1
 40
0.15
 41
0.15
  0
VERTEX
  8
0
 10
5.91992
 20
2.85883
 30
0.0
 40
0.00208333
 41
0.00208333
  0
VERTEX
  8
0
 10
6.06575
 20
2.85883
 30
0.0
 40
0.00208333
 41
0.00208333
  0
VERTEX
  8
0
 10
6.06575
 20
1.14144
 30
0.0
 40
0.00208333
 41
0.00208333
  0
VERTEX
  8
0
 10
5.91992
 20
1.14144
 30
0.0
 40
0.00208333
 41
0.00208333
  0
VERTEX
  8
0
 10
5.91992
 20
2.85883
 30
0.0
 40
0.00208333
 41
0.00208333
  0
SEQEND
 8
0
  0
POLYLINE
  8
0
 62
     7
 66
     1
 10
0
 20
0
 30
0.0
 70
     1
 40
0
 41
0
  0
VERTEX
  8
0
 10
5.91992
 20
2.78694
 30
0.0
 40
0
 41
0
  0
VERTEX
  8
0
 10
6.06575
 20
2.78694
 30
0.0
 40
0
 41
0
  0
VERTEX
  8
0
 10
6.06575
 20
2.01215
 30
0.0
 40
0
 41
0
  0
VERTEX
  8
0
 10
5.91992
 20
2.01215
 30
0.0
 40
0
 41
0
  0
VERTEX
  8
0
 10
5.91992
 20
2.78694
 30
0.0
 40
0
 41
0
  0
SEQEND
 8
0
  0
POLYLINE
  8
0
 62
     0
 66
     1
 10
0
 20
0
 30
0.0
 70
     1
 40
0.75
 41
0.75
  0
VERTEX
  8
0
 10
5.91992
 20
2.78694
 30
0.0
 40
0.0104167
 41
0.0104167
  0
VERTEX
  8
0
 10
6.06575
 20
2.78694
 30
0.0
 40
0.0104167
 41
0.0104167
  0
VERTEX
  8
0
 10
6.06575
 20
2.01215
 30
0.0
 40
0.0104167
 41
0.0104167
  0
VERTEX
  8
0
 10
5.91992
 20
2.01215
 30
0.0
 40
0.0104167
 41
0.0104167
  0
VERTEX
  8
0
 10
5.91992
 20
2.78694
 30
0.0
 40
0.0104167
 41
0.0104167
  0
SEQEND
 8
0
  0
POLYLINE
  8
0
 62
     7
 66
     1
 10
0
 20
0
 30
0.0
 70
     1
 40
0
 41
0
  0
VERTEX
  8
0
 10
5.91992
 20
2.78694
 30
0.0
 40
0
 41
0
  0
VERTEX
  8
0
 10
6.06575
 20
2.78694
 30
0.0
 40
0
 41
0
  0
VERTEX
  8
0
 10
6.06575
 20
2.01215
 30
0.0
 40
0
 41
0
  0
VERTEX
  8
0
 10
5.91992
 20
2.01215
 30
0.0
 40
0
 41
0
  0
VERTEX
  8
0
 10
5.91992
 20
2.78694
 30
0.0
 40
0
 41
0
  0
SEQEND
 8
0
  0
POLYLINE
  8
0
 62
     0
 66
     1
 10
0
 20
0
 30
0.0
 70
     1
 40
0.75
 41
0.75
  0
VERTEX
  8
0
 10
5.91992
 20
2.78694
 30
0.0
 40
0.0104167
 41
0.0104167
  0
VERTEX
  8
0
 10
6.06575
 20
2.78694
 30
0.0
 40
0.0104167
 41
0.0104167
  0
VERTEX
  8
0
 10
6.06575
 20
2.01215
 30
0.0
 40
0.0104167
 41
0.0104167
  0
VERTEX
  8
0
 10
5.91992
 20
2.01215
 30
0.0
 40
0.0104167
 41
0.0104167
  0
VERTEX
  8
0
 10
5.91992
 20
2.78694
 30
0.0
 40
0.0104167
 41
0.0104167
  0
SEQEND
 8
0
  0
POLYLINE
  8
0
 62
     0
 66
     1
 10
0
 20
0
 30
0.0
 70
     1
 40
0.75
 41
0.75
  0
VERTEX
  8
0
 10
6.06575
 20
2.01215
 30
0.0
 40
0.0104167
 41
0.0104167
  0
VERTEX
  8
0
 10
6.11111
 20
2.01215
 30
0.0
 40
0.0104167
 41
0.0104167
  0
VERTEX
  8
0
 10
6.24729
 20
2.02431
 30
0.0
 40
0.0104167
 41
0.0104167
  0
VERTEX
  8
0
 10
6.40468
 20
2.0606
 30
0.0
 40
0.0104167
 41
0.0104167
  0
VERTEX
  8
0
 10
6.53782
 20
2.12115
 30
0.0
 40
0.0104167
 41
0.0104167
  0
VERTEX
  8
0
 10
6.64681
 20
2.20589
 30
0.0
 40
0.0104167
 41
0.0104167
  0
VERTEX
  8
0
 10
6.7315
 20
2.31483
 30
0.0
 40
0.0104167
 41
0.0104167
  0
VERTEX
  8
0
 10
6.79204
 20
2.44797
 30
0.0
 40
0.0104167
 41
0.0104167
  0
VERTEX
  8
0
 10
6.82835
 20
2.60536
 30
0.0
 40
0.0104167
 41
0.0104167
  0
VERTEX
  8
0
 10
6.8405
 20
2.7416
 30
0.0
 40
0.0104167
 41
0.0104167
  0
VERTEX
  8
0
 10
6.8405
 20
2.78694
 30
0.0
 40
0.0104167
 41
0.0104167
  0
VERTEX
  8
0
 10
6.06575
 20
2.78694
 30
0.0
 40
0.0104167
 41
0.0104167
  0
VERTEX
  8
0
 10
6.06575
 20
2.01215
 30
0.0
 40
0.0104167
 41
0.0104167
  0
SEQEND
 8
0
  0
POLYLINE
  8
0
 62
     7
 66
     1
 10
0
 20
0
 30
0.0
 70
     1
 40
0
 41
0
  0
VERTEX
  8
0
 10
4.53039
 20
2.85878
 30
0.0
 40
0
 41
0
  0
VERTEX
  8
0
 10
5.07813
 20
2.85878
 30
0.0
 40
0
 41
0
  0
VERTEX
  8
0
 10
5.07813
 20
1.13949
 30
0.0
 40
0
 41
0
  0
VERTEX
  8
0
 10
4.53039
 20
1.13949
 30
0.0
 40
0
 41
0
  0
VERTEX
  8
0
 10
4.53039
 20
2.85878
 30
0.0
 40
0
 41
0
  0
SEQEND
 8
0
  0
POLYLINE
  8
0
 62
     0
 66
     1
 10
0
 20
0
 30
0.0
 70
     1
 40
0.75
 41
0.75
  0
VERTEX
  8
0
 10
4.53039
 20
2.85878
 30
0.0
 40
0.0104167
 41
0.0104167
  0
VERTEX
  8
0
 10
4.53039
 20
1.13949
 30
0.0
 40
0.0104167
 41
0.0104167
  0
VERTEX
  8
0
 10
5.07813
 20
1.13949
 30
0.0
 40
0.0104167
 41
0.0104167
  0
VERTEX
  8
0
 10
5.07813
 20
2.85878
 30
0.0
 40
0.0104167
 41
0.0104167
  0
VERTEX
  8
0
 10
4.53039
 20
2.85878
 30
0.0
 40
0.0104167
 41
0.0104167
  0
SEQEND
 8
0
  0
POLYLINE
  8
0
 62
     253
 66
     1
 10
0
 20
0
 30
0.0
 40
0.375
 41
0.375
  0
VERTEX
  8
0
 10
4.56689
 20
1.13949
 30
0.0
 40
0.00520833
 41
0.00520833
  0
VERTEX
  8
0
 10
4.56689
 20
2.85878
 30
0.0
 40
0.00520833
 41
0.00520833
  0
SEQEND
 8
0
  0
POLYLINE
  8
0
 62
     253
 66
     1
 10
0
 20
0
 30
0.0
 40
0.375
 41
0.375
  0
VERTEX
  8
0
 10
4.6034
 20
1.13949
 30
0.0
 40
0.00520833
 41
0.00520833
  0
VERTEX
  8
0
 10
4.6034
 20
2.85878
 30
0.0
 40
0.00520833
 41
0.00520833
  0
SEQEND
 8
0
  0
POLYLINE
  8
0
 62
     253
 66
     1
 10
0
 20
0
 30
0.0
 40
0.375
 41
0.375
  0
VERTEX
  8
0
 10
4.63992
 20
1.13949
 30
0.0
 40
0.00520833
 41
0.00520833
  0
VERTEX
  8
0
 10
4.63992
 20
2.85878
 30
0.0
 40
0.00520833
 41
0.00520833
  0
SEQEND
 8
0
  0
POLYLINE
  8
0
 62
     253
 66
     1
 10
0
 20
0
 30
0.0
 40
0.375
 41
0.375
  0
VERTEX
  8
0
 10
4.67643
 20
1.13949
 30
0.0
 40
0.00520833
 41
0.00520833
  0
VERTEX
  8
0
 10
4.67643
 20
2.85878
 30
0.0
 40
0.00520833
 41
0.00520833
  0
SEQEND
 8
0
  0
POLYLINE
  8
0
 62
     253
 66
     1
 10
0
 20
0
 30
0.0
 40
0.375
 41
0.375
  0
VERTEX
  8
0
 10
4.71294
 20
1.13949
 30
0.0
 40
0.00520833
 41
0.00520833
  0
VERTEX
  8
0
 10
4.71294
 20
2.85878
 30
0.0
 40
0.00520833
 41
0.00520833
  0
SEQEND
 8
0
  0
POLYLINE
  8
0
 62
     253
 66
     1
 10
0
 20
0
 30
0.0
 40
0.375
 41
0.375
  0
VERTEX
  8
0
 10
4.74951
 20
1.13949
 30
0.0
 40
0.00520833
 41
0.00520833
  0
VERTEX
  8
0
 10
4.74951
 20
2.85878
 30
0.0
 40
0.00520833
 41
0.00520833
  0
SEQEND
 8
0
  0
POLYLINE
  8
0
 62
     253
 66
     1
 10
0
 20
0
 30
0.0
 40
0.375
 41
0.375
  0
VERTEX
  8
0
 10
4.78603
 20
1.13949
 30
0.0
 40
0.00520833
 41
0.00520833
  0
VERTEX
  8
0
 10
4.78603
 20
2.85878
 30
0.0
 40
0.00520833
 41
0.00520833
  0
SEQEND
 8
0
  0
POLYLINE
  8
0
 62
     253
 66
     1
 10
0
 20
0
 30
0.0
 40
0.375
 41
0.375
  0
VERTEX
  8
0
 10
4.82254
 20
1.13949
 30
0.0
 40
0.00520833
 41
0.00520833
  0
VERTEX
  8
0
 10
4.82254
 20
2.85878
 30
0.0
 40
0.00520833
 41
0.00520833
  0
SEQEND
 8
0
  0
POLYLINE
  8
0
 62
     253
 66
     1
 10
0
 20
0
 30
0.0
 40
0.375
 41
0.375
  0
VERTEX
  8
0
 10
4.85906
 20
1.13949
 30
0.0
 40
0.00520833
 41
0.00520833
  0
VERTEX
  8
0
 10
4.85906
 20
2.85878
 30
0.0
 40
0.00520833
 41
0.00520833
  0
SEQEND
 8
0
  0
POLYLINE
  8
0
 62
     253
 66
     1
 10
0
 20
0
 30
0.0
 40
0.375
 41
0.375
  0
VERTEX
  8
0
 10
4.89556
 20
1.13949
 30
0.0
 40
0.00520833
 41
0.00520833
  0
VERTEX
  8
0
 10
4.89556
 20
2.85878
 30
0.0
 40
0.00520833
 41
0.00520833
  0
SEQEND
 8
0
  0
POLYLINE
  8
0
 62
     253
 66
     1
 10
0
 20
0
 30
0.0
 40
0.375
 41
0.375
  0
VERTEX
  8
0
 10
4.93207
 20
1.13949
 30
0.0
 40
0.00520833
 41
0.00520833
  0
VERTEX
  8
0
 10
4.93207
 20
2.85878
 30
0.0
 40
0.00520833
 41
0.00520833
  0
SEQEND
 8
0
  0
POLYLINE
  8
0
 62
     253
 66
     1
 10
0
 20
0
 30
0.0
 40
0.375
 41
0.375
  0
VERTEX
  8
0
 10
4.96858
 20
1.13949
 30
0.0
 40
0.00520833
 41
0.00520833
  0
VERTEX
  8
0
 10
4.96858
 20
2.85878
 30
0.0
 40
0.00520833
 41
0.00520833
  0
SEQEND
 8
0
  0
POLYLINE
  8
0
 62
     253
 66
     1
 10
0
 20
0
 30
0.0
 40
0.375
 41
0.375
  0
VERTEX
  8
0
 10
5.0051
 20
1.13949
 30
0.0
 40
0.00520833
 41
0.00520833
  0
VERTEX
  8
0
 10
5.0051
 20
2.85878
 30
0.0
 40
0.00520833
 41
0.00520833
  0
SEQEND
 8
0
  0
POLYLINE
  8
0
 62
     253
 66
     1
 10
0
 20
0
 30
0.0
 40
0.375
 41
0.375
  0
VERTEX
  8
0
 10
5.04161
 20
1.13949
 30
0.0
 40
0.00520833
 41
0.00520833
  0
VERTEX
  8
0
 10
5.04161
 20
2.85878
 30
0.0
 40
0.00520833
 41
0.00520833
  0
SEQEND
 8
0
  0
POLYLINE
  8
0
 62
     7
 66
     1
 10
0
 20
0
 30
0.0
 70
     1
 40
0
 41
0
  0
VERTEX
  8
0
 10
5.07813
 20
2.85878
 30
0.0
 40
0
 41
0
  0
VERTEX
  8
0
 10
5.44325
 20
2.85878
 30
0.0
 40
0
 41
0
  0
VERTEX
  8
0
 10
5.44325
 20
1.13949
 30
0.0
 40
0
 41
0
  0
VERTEX
  8
0
 10
5.07813
 20
1.13949
 30
0.0
 40
0
 41
0
  0
VERTEX
  8
0
 10
5.07813
 20
2.85878
 30
0.0
 40
0
 41
0
  0
SEQEND
 8
0
  0
POLYLINE
  8
0
 62
     0
 66
     1
 10
0
 20
0
 30
0.0
 70
     1
 40
0.75
 41
0.75
  0
VERTEX
  8
0
 10
5.07813
 20
2.85878
 30
0.0
 40
0.0104167
 41
0.0104167
  0
VERTEX
  8
0
 10
5.07813
 20
1.13949
 30
0.0
 40
0.0104167
 41
0.0104167
  0
VERTEX
  8
0
 10
5.44325
 20
1.13949
 30
0.0
 40
0.0104167
 41
0.0104167
  0
VERTEX
  8
0
 10
5.44325
 20
2.85878
 30
0.0
 40
0.0104167
 41
0.0104167
  0
VERTEX
  8
0
 10
5.07813
 20
2.85878
 30
0.0
 40
0.0104167
 41
0.0104167
  0
SEQEND
 8
0
  0
POLYLINE
  8
0
 62
     253
 66
     1
 10
0
 20
0
 30
0.0
 40
0.375
 41
0.375
  0
VERTEX
  8
0
 10
5.11464
 20
1.13949
 30
0.0
 40
0.00520833
 41
0.00520833
  0
VERTEX
  8
0
 10
5.11464
 20
2.85878
 30
0.0
 40
0.00520833
 41
0.00520833
  0
SEQEND
 8
0
  0
POLYLINE
  8
0
 62
     253
 66
     1
 10
0
 20
0
 30
0.0
 40
0.375
 41
0.375
  0
VERTEX
  8
0
 10
5.15115
 20
1.13949
 30
0.0
 40
0.00520833
 41
0.00520833
  0
VERTEX
  8
0
 10
5.15115
 20
2.85878
 30
0.0
 40
0.00520833
 41
0.00520833
  0
SEQEND
 8
0
  0
POLYLINE
  8
0
 62
     253
 66
     1
 10
0
 20
0
 30
0.0
 40
0.375
 41
0.375
  0
VERTEX
  8
0
 10
5.18767
 20
1.13949
 30
0.0
 40
0.00520833
 41
0.00520833
  0
VERTEX
  8
0
 10
5.18767
 20
2.85878
 30
0.0
 40
0.00520833
 41
0.00520833
  0
SEQEND
 8
0
  0
POLYLINE
  8
0
 62
     253
 66
     1
 10
0
 20
0
 30
0.0
 40
0.375
 41
0.375
  0
VERTEX
  8
0
 10
5.22418
 20
1.13949
 30
0.0
 40
0.00520833
 41
0.00520833
  0
VERTEX
  8
0
 10
5.22418
 20
2.85878
 30
0.0
 40
0.00520833
 41
0.00520833
  0
SEQEND
 8
0
  0
POLYLINE
  8
0
 62
     253
 66
     1
 10
0
 20
0
 30
0.0
 40
0.375
 41
0.375
  0
VERTEX
  8
0
 10
5.26069
 20
1.13949
 30
0.0
 40
0.00520833
 41
0.00520833
  0
VERTEX
  8
0
 10
5.26069
 20
2.85878
 30
0.0
 40
0.00520833
 41
0.00520833
  0
SEQEND
 8
0
  0
POLYLINE
  8
0
 62
     253
 66
     1
 10
0
 20
0
 30
0.0
 40
0.375
 41
0.375
  0
VERTEX
  8
0
 10
5.29719
 20
1.13949
 30
0.0
 40
0.00520833
 41
0.00520833
  0
VERTEX
  8
0
 10
5.29719
 20
2.85878
 30
0.0
 40
0.00520833
 41
0.00520833
  0
SEQEND
 8
0
  0
POLYLINE
  8
0
 62
     253
 66
     1
 10
0
 20
0
 30
0.0
 40
0.375
 41
0.375
  0
VERTEX
  8
0
 10
5.33371
 20
1.13949
 30
0.0
 40
0.00520833
 41
0.00520833
  0
VERTEX
  8
0
 10
5.33371
 20
2.85878
 30
0.0
 40
0.00520833
 41
0.00520833
  0
SEQEND
 8
0
  0
POLYLINE
  8
0
 62
     253
 66
     1
 10
0
 20
0
 30
0.0
 40
0.375
 41
0.375
  0
VERTEX
  8
0
 10
5.37028
 20
1.13949
 30
0.0
 40
0.00520833
 41
0.00520833
  0
VERTEX
  8
0
 10
5.37028
 20
2.85878
 30
0.0
 40
0.00520833
 41
0.00520833
  0
SEQEND
 8
0
  0
POLYLINE
  8
0
 62
     253
 66
     1
 10
0
 20
0
 30
0.0
 40
0.375
 41
0.375
  0
VERTEX
  8
0
 10
5.40679
 20
1.13949
 30
0.0
 40
0.00520833
 41
0.00520833
  0
VERTEX
  8
0
 10
5.40679
 20
2.85878
 30
0.0
 40
0.00520833
 41
0.00520833
  0
SEQEND
 8
0
  0
POLYLINE
  8
0
 62
     7
 66
     1
 10
0
 20
0
 30
0.0
 70
     1
 40
0
 41
0
  0
VERTEX
  8
0
 10
5.44331
 20
2.85883
 30
0.0
 40
0
 41
0
  0
VERTEX
  8
0
 10
5.80838
 20
2.85883
 30
0.0
 40
0
 41
0
  0
VERTEX
  8
0
 10
5.80838
 20
2.01307
 30
0.0
 40
0
 41
0
  0
VERTEX
  8
0
 10
5.44331
 20
2.01307
 30
0.0
 40
0
 41
0
  0
VERTEX
  8
0
 10
5.44331
 20
2.85883
 30
0.0
 40
0
 41
0
  0
SEQEND
 8
0
  0
POLYLINE
  8
0
 62
     0
 66
     1
 10
0
 20
0
 30
0.0
 70
     1
 40
0.75
 41
0.75
  0
VERTEX
  8
0
 10
5.44331
 20
2.85883
 30
0.0
 40
0.0104167
 41
0.0104167
  0
VERTEX
  8
0
 10
5.44331
 20
2.01307
 30
0.0
 40
0.0104167
 41
0.0104167
  0
VERTEX
  8
0
 10
5.80838
 20
2.01307
 30
0.0
 40
0.0104167
 41
0.0104167
  0
VERTEX
  8
0
 10
5.80838
 20
2.85883
 30
0.0
 40
0.0104167
 41
0.0104167
  0
VERTEX
  8
0
 10
5.44331
 20
2.85883
 30
0.0
 40
0.0104167
 41
0.0104167
  0
SEQEND
 8
0
  0
POLYLINE
  8
0
 62
     253
 66
     1
 10
0
 20
0
 30
0.0
 40
0.375
 41
0.375
  0
VERTEX
  8
0
 10
5.47982
 20
2.01307
 30
0.0
 40
0.00520833
 41
0.00520833
  0
VERTEX
  8
0
 10
5.47982
 20
2.85878
 30
0.0
 40
0.00520833
 41
0.00520833
  0
SEQEND
 8
0
  0
POLYLINE
  8
0
 62
     253
 66
     1
 10
0
 20
0
 30
0.0
 40
0.375
 41
0.375
  0
VERTEX
  8
0
 10
5.51633
 20
2.01307
 30
0.0
 40
0.00520833
 41
0.00520833
  0
VERTEX
  8
0
 10
5.51633
 20
2.85878
 30
0.0
 40
0.00520833
 41
0.00520833
  0
SEQEND
 8
0
  0
POLYLINE
  8
0
 62
     253
 66
     1
 10
0
 20
0
 30
0.0
 40
0.375
 41
0.375
  0
VERTEX
  8
0
 10
5.55285
 20
2.01307
 30
0.0
 40
0.00520833
 41
0.00520833
  0
VERTEX
  8
0
 10
5.55285
 20
2.85878
 30
0.0
 40
0.00520833
 41
0.00520833
  0
SEQEND
 8
0
  0
POLYLINE
  8
0
 62
     253
 66
     1
 10
0
 20
0
 30
0.0
 40
0.375
 41
0.375
  0
VERTEX
  8
0
 10
5.58936
 20
2.01307
 30
0.0
 40
0.00520833
 41
0.00520833
  0
VERTEX
  8
0
 10
5.58936
 20
2.85878
 30
0.0
 40
0.00520833
 41
0.00520833
  0
SEQEND
 8
0
  0
POLYLINE
  8
0
 62
     253
 66
     1
 10
0
 20
0
 30
0.0
 40
0.375
 41
0.375
  0
VERTEX
  8
0
 10
5.62587
 20
2.01307
 30
0.0
 40
0.00520833
 41
0.00520833
  0
VERTEX
  8
0
 10
5.62587
 20
2.85878
 30
0.0
 40
0.00520833
 41
0.00520833
  0
SEQEND
 8
0
  0
POLYLINE
  8
0
 62
     253
 66
     1
 10
0
 20
0
 30
0.0
 40
0.375
 41
0.375
  0
VERTEX
  8
0
 10
5.66238
 20
2.01307
 30
0.0
 40
0.00520833
 41
0.00520833
  0
VERTEX
  8
0
 10
5.66238
 20
2.85878
 30
0.0
 40
0.00520833
 41
0.00520833
  0
SEQEND
 8
0
  0
POLYLINE
  8
0
 62
     253
 66
     1
 10
0
 20
0
 30
0.0
 40
0.375
 41
0.375
  0
VERTEX
  8
0
 10
5.69889
 20
2.01307
 30
0.0
 40
0.00520833
 41
0.00520833
  0
VERTEX
  8
0
 10
5.69889
 20
2.85878
 30
0.0
 40
0.00520833
 41
0.00520833
  0
SEQEND
 8
0
  0
POLYLINE
  8
0
 62
     253
 66
     1
 10
0
 20
0
 30
0.0
 40
0.375
 41
0.375
  0
VERTEX
  8
0
 10
5.7354
 20
2.01307
 30
0.0
 40
0.00520833
 41
0.00520833
  0
VERTEX
  8
0
 10
5.7354
 20
2.85878
 30
0.0
 40
0.00520833
 41
0.00520833
  0
SEQEND
 8
0
  0
POLYLINE
  8
0
 62
     253
 66
     1
 10
0
 20
0
 30
0.0
 40
0.375
 41
0.375
  0
VERTEX
  8
0
 10
5.77192
 20
2.01307
 30
0.0
 40
0.00520833
 41
0.00520833
  0
VERTEX
  8
0
 10
5.77192
 20
2.85878
 30
0.0
 40
0.00520833
 41
0.00520833
  0
SEQEND
 8
0
  0
POLYLINE
  8
0
 62
     7
 66
     1
 10
0
 20
0
 30
0.0
 70
     1
 40
0
 41
0
  0
VERTEX
  8
0
 10
5.55333
 20
1.88633
 30
0.0
 40
0
 41
0
  0
VERTEX
  8
0
 10
5.91792
 20
1.88633
 30
0.0
 40
0
 41
0
  0
VERTEX
  8
0
 10
5.91792
 20
1.26134
 30
0.0
 40
0
 41
0
  0
VERTEX
  8
0
 10
5.55333
 20
1.26134
 30
0.0
 40
0
 41
0
  0
VERTEX
  8
0
 10
5.55333
 20
1.88633
 30
0.0
 40
0
 41
0
  0
SEQEND
 8
0
  0
POLYLINE
  8
0
 62
     0
 66
     1
 10
0
 20
0
 30
0.0
 70
     1
 40
0.75
 41
0.75
  0
VERTEX
  8
0
 10
5.55333
 20
1.88633
 30
0.0
 40
0.0104167
 41
0.0104167
  0
VERTEX
  8
0
 10
5.55333
 20
1.26134
 30
0.0
 40
0.0104167
 41
0.0104167
  0
VERTEX
  8
0
 10
5.91792
 20
1.26134
 30
0.0
 40
0.0104167
 41
0.0104167
  0
VERTEX
  8
0
 10
5.91792
 20
1.88633
 30
0.0
 40
0.0104167
 41
0.0104167
  0
VERTEX
  8
0
 10
5.55333
 20
1.88633
 30
0.0
 40
0.0104167
 41
0.0104167
  0
SEQEND
 8
0
  0
POLYLINE
  8
0
 62
     0
 66
     1
 10
0
 20
0
 30
0.0
 40
0.75
 41
0.75
  0
VERTEX
  8
0
 10
5.55333
 20
1.88633
 30
0.0
 40
0.0104167
 41
0.0104167
  0
VERTEX
  8
0
 10
5.73562
 20
1.47276
 30
0.0
 40
0.0104167
 41
0.0104167
  0
VERTEX
  8
0
 10
5.73562
 20
1.66342
 30
0.0
 40
0.0104167
 41
0.0104167
  0
VERTEX
  8
0
 10
5.91792
 20
1.26134
 30
0.0
 40
0.0104167
 41
0.0104167
  0
SEQEND
 8
0
  0
POLYLINE
  8
0
 62
     7
 66
     1
 10
0
 20
0
 30
0.0
 70
     1
 40
0
 41
0
  0
VERTEX
  8
0
 10
6.0709
 20
1.5829
 30
0.0
 40
0
 41
0
  0
VERTEX
  8
0
 10
6.13444
 20
1.5829
 30
0.0
 40
0
 41
0
  0
VERTEX
  8
0
 10
6.13444
 20
1.46625
 30
0.0
 40
0
 41
0
  0
VERTEX
  8
0
 10
6.0709
 20
1.46625
 30
0.0
 40
0
 41
0
  0
VERTEX
  8
0
 10
6.0709
 20
1.5829
 30
0.0
 40
0
 41
0
  0
SEQEND
 8
0
  0
POLYLINE
  8
0
 62
     0
 66
     1
 10
0
 20
0
 30
0.0
 70
     1
 40
0.75
 41
0.75
  0
VERTEX
  8
0
 10
6.0709
 20
1.5829
 30
0.0
 40
0.0104167
 41
0.0104167
  0
VERTEX
  8
0
 10
6.0709
 20
1.46625
 30
0.0
 40
0.0104167
 41
0.0104167
  0
VERTEX
  8
0
 10
6.13444
 20
1.46625
 30
0.0
 40
0.0104167
 41
0.0104167
  0
VERTEX
  8
0
 10
6.13444
 20
1.5829
 30
0.0
 40
0.0104167
 41
0.0104167
  0
VERTEX
  8
0
 10
6.0709
 20
1.5829
 30
0.0
 40
0.0104167
 41
0.0104167
  0
SEQEND
 8
0
  0
POLYLINE
  8
0
 62
     7
 66
     1
 10
0
 20
0
 30
0.0
 70
     1
 40
0
 41
0
  0
VERTEX
  8
0
 10
6.0709
 20
1.72771
 30
0.0
 40
0
 41
0
  0
VERTEX
  8
0
 10
6.13444
 20
1.72771
 30
0.0
 40
0
 41
0
  0
VERTEX
  8
0
 10
6.13444
 20
1.61106
 30
0.0
 40
0
 41
0
  0
VERTEX
  8
0
 10
6.0709
 20
1.61106
 30
0.0
 40
0
 41
0
  0
VERTEX
  8
0
 10
6.0709
 20
1.72771
 30
0.0
 40
0
 41
0
  0
SEQEND
 8
0
  0
POLYLINE
  8
0
 62
     0
 66
     1
 10
0
 20
0
 30
0.0
 70
     1
 40
0.75
 41
0.75
  0
VERTEX
  8
0
 10
6.0709
 20
1.72771
 30
0.0
 40
0.0104167
 41
0.0104167
  0
VERTEX
  8
0
 10
6.0709
 20
1.61106
 30
0.0
 40
0.0104167
 41
0.0104167
  0
VERTEX
  8
0
 10
6.13444
 20
1.61106
 30
0.0
 40
0.0104167
 41
0.0104167
  0
VERTEX
  8
0
 10
6.13444
 20
1.72771
 30
0.0
 40
0.0104167
 41
0.0104167
  0
VERTEX
  8
0
 10
6.0709
 20
1.72771
 30
0.0
 40
0.0104167
 41
0.0104167
  0
SEQEND
 8
0
  0
POLYLINE
  8
0
 62
     7
 66
     1
 10
0
 20
0
 30
0.0
 70
     1
 40
0
 41
0
  0
VERTEX
  8
0
 10
6.0709
 20
1.7621
 30
0.0
 40
0
 41
0
  0
VERTEX
  8
0
 10
6.13444
 20
1.7621
 30
0.0
 40
0
 41
0
  0
VERTEX
  8
0
 10
6.13444
 20
1.72667
 30
0.0
 40
0
 41
0
  0
VERTEX
  8
0
 10
6.0709
 20
1.72667
 30
0.0
 40
0
 41
0
  0
VERTEX
  8
0
 10
6.0709
 20
1.7621
 30
0.0
 40
0
 41
0
  0
SEQEND
 8
0
  0
POLYLINE
  8
0
 62
     0
 66
     1
 10
0
 20
0
 30
0.0
 70
     1
 40
0.75
 41
0.75
  0
VERTEX
  8
0
 10
6.0709
 20
1.7621
 30
0.0
 40
0.0104167
 41
0.0104167
  0
VERTEX
  8
0
 10
6.0709
 20
1.72667
 30
0.0
 40
0.0104167
 41
0.0104167
  0
VERTEX
  8
0
 10
6.13444
 20
1.72667
 30
0.0
 40
0.0104167
 41
0.0104167
  0
VERTEX
  8
0
 10
6.13444
 20
1.7621
 30
0.0
 40
0.0104167
 41
0.0104167
  0
VERTEX
  8
0
 10
6.0709
 20
1.7621
 30
0.0
 40
0.0104167
 41
0.0104167
  0
SEQEND
 8
0
  0
POLYLINE
  8
0
 62
     7
 66
     1
 10
0
 20
0
 30
0.0
 70
     1
 40
0
 41
0
  0
VERTEX
  8
0
 10
6.0709
 20
1.46625
 30
0.0
 40
0
 41
0
  0
VERTEX
  8
0
 10
6.13444
 20
1.46625
 30
0.0
 40
0
 41
0
  0
VERTEX
  8
0
 10
6.13444
 20
1.43294
 30
0.0
 40
0
 41
0
  0
VERTEX
  8
0
 10
6.0709
 20
1.43294
 30
0.0
 40
0
 41
0
  0
VERTEX
  8
0
 10
6.0709
 20
1.46625
 30
0.0
 40
0
 41
0
  0
SEQEND
 8
0
  0
POLYLINE
  8
0
 62
     0
 66
     1
 10
0
 20
0
 30
0.0
 70
     1
 40
0.75
 41
0.75
  0
VERTEX
  8
0
 10
6.0709
 20
1.46625
 30
0.0
 40
0.0104167
 41
0.0104167
  0
VERTEX
  8
0
 10
6.0709
 20
1.43294
 30
0.0
 40
0.0104167
 41
0.0104167
  0
VERTEX
  8
0
 10
6.13444
 20
1.43294
 30
0.0
 40
0.0104167
 41
0.0104167
  0
VERTEX
  8
0
 10
6.13444
 20
1.46625
 30
0.0
 40
0.0104167
 41
0.0104167
  0
VERTEX
  8
0
 10
6.0709
 20
1.46625
 30
0.0
 40
0.0104167
 41
0.0104167
  0
SEQEND
 8
0
  0
POLYLINE
  8
0
 62
     7
 66
     1
 10
0
 20
0
 30
0.0
 70
     1
 40
0
 41
0
  0
VERTEX
  8
0
 10
6.15424
 20
1.5829
 30
0.0
 40
0
 41
0
  0
VERTEX
  8
0
 10
6.16054
 20
1.5829
 30
0.0
 40
0
 41
0
  0
VERTEX
  8
0
 10
6.17947
 20
1.57932
 30
0.0
 40
0
 41
0
  0
VERTEX
  8
0
 10
6.20188
 20
1.56939
 30
0.0
 40
0
 41
0
  0
VERTEX
  8
0
 10
6.20632
 20
1.56625
 30
0.0
 40
0
 41
0
  0
VERTEX
  8
0
 10
6.20785
 20
1.56521
 30
0.0
 40
0
 41
0
  0
VERTEX
  8
0
 10
6.22244
 20
1.55507
 30
0.0
 40
0
 41
0
  0
VERTEX
  8
0
 10
6.22401
 20
1.55479
 30
0.0
 40
0
 41
0
  0
VERTEX
  8
0
 10
6.22683
 20
1.55431
 30
0.0
 40
0
 41
0
  0
VERTEX
  8
0
 10
6.24338
 20
1.55849
 30
0.0
 40
0
 41
0
  0
VERTEX
  8
0
 10
6.25629
 20
1.57514
 30
0.0
 40
0
 41
0
  0
VERTEX
  8
0
 10
6.25738
 20
1.58083
 30
0.0
 40
0
 41
0
  0
VERTEX
  8
0
 10
6.2576
 20
1.58214
 30
0.0
 40
0
 41
0
  0
VERTEX
  8
0
 10
6.2584
 20
1.59369
 30
0.0
 40
0
 41
0
  0
VERTEX
  8
0
 10
6.2584
 20
1.5975
 30
0.0
 40
0
 41
0
  0
VERTEX
  8
0
 10
6.2584
 20
1.59646
 30
0.0
 40
0
 41
0
  0
VERTEX
  8
0
 10
6.2584
 20
1.60064
 30
0.0
 40
0
 41
0
  0
VERTEX
  8
0
 10
6.2576
 20
1.61182
 30
0.0
 40
0
 41
0
  0
VERTEX
  8
0
 10
6.25738
 20
1.61312
 30
0.0
 40
0
 41
0
  0
VERTEX
  8
0
 10
6.25629
 20
1.61887
 30
0.0
 40
0
 41
0
  0
VERTEX
  8
0
 10
6.24338
 20
1.63558
 30
0.0
 40
0
 41
0
  0
VERTEX
  8
0
 10
6.22683
 20
1.63971
 30
0.0
 40
0
 41
0
  0
VERTEX
  8
0
 10
6.22401
 20
1.63917
 30
0.0
 40
0
 41
0
  0
VERTEX
  8
0
 10
6.22244
 20
1.63894
 30
0.0
 40
0
 41
0
  0
VERTEX
  8
0
 10
6.20785
 20
1.62879
 30
0.0
 40
0
 41
0
  0
VERTEX
  8
0
 10
6.20632
 20
1.62771
 30
0.0
 40
0
 41
0
  0
VERTEX
  8
0
 10
6.20188
 20
1.62463
 30
0.0
 40
0
 41
0
  0
VERTEX
  8
0
 10
6.17947
 20
1.61475
 30
0.0
 40
0
 41
0
  0
VERTEX
  8
0
 10
6.16054
 20
1.61106
 30
0.0
 40
0
 41
0
  0
VERTEX
  8
0
 10
6.15424
 20
1.61106
 30
0.0
 40
0
 41
0
  0
SEQEND
 8
0
  0
POLYLINE
  8
0
 62
     0
 66
     1
 10
0
 20
0
 30
0.0
 40
0.75
 41
0.75
  0
VERTEX
  8
0
 10
6.15424
 20
1.5829
 30
0.0
 40
0.0104167
 41
0.0104167
  0
VERTEX
  8
0
 10
6.16054
 20
1.5829
 30
0.0
 40
0.0104167
 41
0.0104167
  0
VERTEX
  8
0
 10
6.17947
 20
1.57932
 30
0.0
 40
0.0104167
 41
0.0104167
  0
VERTEX
  8
0
 10
6.20188
 20
1.56939
 30
0.0
 40
0.0104167
 41
0.0104167
  0
VERTEX
  8
0
 10
6.20632
 20
1.56625
 30
0.0
 40
0.0104167
 41
0.0104167
  0
VERTEX
  8
0
 10
6.20785
 20
1.56521
 30
0.0
 40
0.0104167
 41
0.0104167
  0
VERTEX
  8
0
 10
6.22244
 20
1.55507
 30
0.0
 40
0.0104167
 41
0.0104167
  0
VERTEX
  8
0
 10
6.22401
 20
1.55479
 30
0.0
 40
0.0104167
 41
0.0104167
  0
VERTEX
  8
0
 10
6.22683
 20
1.55431
 30
0.0
 40
0.0104167
 41
0.0104167
  0
VERTEX
  8
0
 10
6.24338
 20
1.55849
 30
0.0
 40
0.0104167
 41
0.0104167
  0
VERTEX
  8
0
 10
6.25629
 20
1.57514
 30
0.0
 40
0.0104167
 41
0.0104167
  0
VERTEX
  8
0
 10
6.25738
 20
1.58083
 30
0.0
 40
0.0104167
 41
0.0104167
  0
VERTEX
  8
0
 10
6.2576
 20
1.58214
 30
0.0
 40
0.0104167
 41
0.0104167
  0
VERTEX
  8
0
 10
6.2584
 20
1.59369
 30
0.0
 40
0.0104167
 41
0.0104167
  0
VERTEX
  8
0
 10
6.2584
 20
1.5975
 30
0.0
 40
0.0104167
 41
0.0104167
  0
VERTEX
  8
0
 10
6.2584
 20
1.59646
 30
0.0
 40
0.0104167
 41
0.0104167
  0
VERTEX
  8
0
 10
6.2584
 20
1.60064
 30
0.0
 40
0.0104167
 41
0.0104167
  0
VERTEX
  8
0
 10
6.2576
 20
1.61182
 30
0.0
 40
0.0104167
 41
0.0104167
  0
VERTEX
  8
0
 10
6.25738
 20
1.61312
 30
0.0
 40
0.0104167
 41
0.0104167
  0
VERTEX
  8
0
 10
6.25629
 20
1.61887
 30
0.0
 40
0.0104167
 41
0.0104167
  0
VERTEX
  8
0
 10
6.24338
 20
1.63558
 30
0.0
 40
0.0104167
 41
0.0104167
  0
VERTEX
  8
0
 10
6.22683
 20
1.63971
 30
0.0
 40
0.0104167
 41
0.0104167
  0
VERTEX
  8
0
 10
6.22401
 20
1.63917
 30
0.0
 40
0.0104167
 41
0.0104167
  0
VERTEX
  8
0
 10
6.22244
 20
1.63894
 30
0.0
 40
0.0104167
 41
0.0104167
  0
VERTEX
  8
0
 10
6.20785
 20
1.62879
 30
0.0
 40
0.0104167
 41
0.0104167
  0
VERTEX
  8
0
 10
6.20632
 20
1.62771
 30
0.0
 40
0.0104167
 41
0.0104167
  0
VERTEX
  8
0
 10
6.20188
 20
1.62463
 30
0.0
 40
0.0104167
 41
0.0104167
  0
VERTEX
  8
0
 10
6.17947
 20
1.61475
 30
0.0
 40
0.0104167
 41
0.0104167
  0
VERTEX
  8
0
 10
6.16054
 20
1.61106
 30
0.0
 40
0.0104167
 41
0.0104167
  0
VERTEX
  8
0
 10
6.15424
 20
1.61106
 30
0.0
 40
0.0104167
 41
0.0104167
  0
SEQEND
 8
0
  0
POLYLINE
  8
0
 62
     7
 66
     1
 10
0
 20
0
 30
0.0
 70
     1
 40
0
 41
0
  0
VERTEX
  8
0
 10
6.22504
 20
1.55479
 30
0.0
 40
0
 41
0
  0
VERTEX
  8
0
 10
6.22553
 20
1.55507
 30
0.0
 40
0
 41
0
  0
VERTEX
  8
0
 10
6.23574
 20
1.56689
 30
0.0
 40
0
 41
0
  0
VERTEX
  8
0
 10
6.24485
 20
1.59065
 30
0.0
 40
0
 41
0
  0
VERTEX
  8
0
 10
6.24485
 20
1.59853
 30
0.0
 40
0
 41
0
  0
VERTEX
  8
0
 10
6.24457
 20
1.60482
 30
0.0
 40
0
 41
0
  0
VERTEX
  8
0
 10
6.23535
 20
1.6275
 30
0.0
 40
0
 41
0
  0
VERTEX
  8
0
 10
6.22553
 20
1.63867
 30
0.0
 40
0
 41
0
  0
VERTEX
  8
0
 10
6.22504
 20
1.63917
 30
0.0
 40
0
 41
0
  0
SEQEND
 8
0
  0
POLYLINE
  8
0
 62
     0
 66
     1
 10
0
 20
0
 30
0.0
 40
0.75
 41
0.75
  0
VERTEX
  8
0
 10
6.22504
 20
1.55479
 30
0.0
 40
0.0104167
 41
0.0104167
  0
VERTEX
  8
0
 10
6.22553
 20
1.55507
 30
0.0
 40
0.0104167
 41
0.0104167
  0
VERTEX
  8
0
 10
6.23574
 20
1.56689
 30
0.0
 40
0.0104167
 41
0.0104167
  0
VERTEX
  8
0
 10
6.24485
 20
1.59065
 30
0.0
 40
0.0104167
 41
0.0104167
  0
VERTEX
  8
0
 10
6.24485
 20
1.59853
 30
0.0
 40
0.0104167
 41
0.0104167
  0
VERTEX
  8
0
 10
6.24457
 20
1.60482
 30
0.0
 40
0.0104167
 41
0.0104167
  0
VERTEX
  8
0
 10
6.23535
 20
1.6275
 30
0.0
 40
0.0104167
 41
0.0104167
  0
VERTEX
  8
0
 10
6.22553
 20
1.63867
 30
0.0
 40
0.0104167
 41
0.0104167
  0
VERTEX
  8
0
 10
6.22504
 20
1.63917
 30
0.0
 40
0.0104167
 41
0.0104167
  0
SEQEND
 8
0
  0
POLYLINE
  8
0
 62
     7
 66
     1
 10
0
 20
0
 30
0.0
 70
     1
 40
0
 41
0
  0
VERTEX
  8
0
 10
6.0709
 20
1.5829
 30
0.0
 40
0
 41
0
  0
VERTEX
  8
0
 10
6.0709
 20
1.61106
 30
0.0
 40
0
 41
0
  0
VERTEX
  8
0
 10
6.15424
 20
1.61106
 30
0.0
 40
0
 41
0
  0
VERTEX
  8
0
 10
6.15424
 20
1.60406
 30
0.0
 40
0
 41
0
  0
VERTEX
  8
0
 10
6.15424
 20
1.58822
 30
0.0
 40
0
 41
0
  0
VERTEX
  8
0
 10
6.15424
 20
1.5829
 30
0.0
 40
0
 41
0
  0
VERTEX
  8
0
 10
6.1334
 20
1.5829
 30
0.0
 40
0
 41
0
  0
VERTEX
  8
0
 10
6.08653
 20
1.5829
 30
0.0
 40
0
 41
0
  0
VERTEX
  8
0
 10
6.0709
 20
1.5829
 30
0.0
 40
0
 41
0
  0
SEQEND
 8
0
  0
POLYLINE
  8
0
 62
     0
 66
     1
 10
0
 20
0
 30
0.0
 70
     1
 40
0.75
 41
0.75
  0
VERTEX
  8
0
 10
6.0709
 20
1.5829
 30
0.0
 40
0.0104167
 41
0.0104167
  0
VERTEX
  8
0
 10
6.0709
 20
1.61106
 30
0.0
 40
0.0104167
 41
0.0104167
  0
VERTEX
  8
0
 10
6.15424
 20
1.61106
 30
0.0
 40
0.0104167
 41
0.0104167
  0
VERTEX
  8
0
 10
6.15424
 20
1.60406
 30
0.0
 40
0.0104167
 41
0.0104167
  0
VERTEX
  8
0
 10
6.15424
 20
1.58822
 30
0.0
 40
0.0104167
 41
0.0104167
  0
VERTEX
  8
0
 10
6.15424
 20
1.5829
 30
0.0
 40
0.0104167
 41
0.0104167
  0
VERTEX
  8
0
 10
6.1334
 20
1.5829
 30
0.0
 40
0.0104167
 41
0.0104167
  0
VERTEX
  8
0
 10
6.08653
 20
1.5829
 30
0.0
 40
0.0104167
 41
0.0104167
  0
VERTEX
  8
0
 10
6.0709
 20
1.5829
 30
0.0
 40
0.0104167
 41
0.0104167
  0
SEQEND
 8
0
  0
POLYLINE
  8
0
 62
     7
 66
     1
 10
0
 20
0
 30
0.0
 70
     1
 40
0
 41
0
  0
VERTEX
  8
0
 10
6.10319
 20
1.46625
 30
0.0
 40
0
 41
0
  0
VERTEX
  8
0
 10
6.10194
 20
1.46951
 30
0.0
 40
0
 41
0
  0
VERTEX
  8
0
 10
6.0981
 20
1.47917
 30
0.0
 40
0
 41
0
  0
VERTEX
  8
0
 10
6.09694
 20
1.48188
 30
0.0
 40
0
 41
0
  0
VERTEX
  8
0
 10
6.09694
 20
1.48188
 30
0.0
 40
0
 41
0
  0
VERTEX
  8
0
 10
6.09836
 20
1.48188
 30
0.0
 40
0
 41
0
  0
VERTEX
  8
0
 10
6.10265
 20
1.48188
 30
0.0
 40
0
 41
0
  0
VERTEX
  8
0
 10
6.10693
 20
1.48188
 30
0.0
 40
0
 41
0
  0
VERTEX
  8
0
 10
6.1084
 20
1.48188
 30
0.0
 40
0
 41
0
  0
VERTEX
  8
0
 10
6.1084
 20
1.48188
 30
0.0
 40
0
 41
0
  0
VERTEX
  8
0
 10
6.10775
 20
1.47954
 30
0.0
 40
0
 41
0
  0
VERTEX
  8
0
 10
6.10433
 20
1.46957
 30
0.0
 40
0
 41
0
  0
VERTEX
  8
0
 10
6.10319
 20
1.46625
 30
0.0
 40
0
 41
0
  0
SEQEND
 8
0
  0
POLYLINE
  8
0
 62
     0
 66
     1
 10
0
 20
0
 30
0.0
 70
     1
 40
0.75
 41
0.75
  0
VERTEX
  8
0
 10
6.10319
 20
1.46625
 30
0.0
 40
0.0104167
 41
0.0104167
  0
VERTEX
  8
0
 10
6.10194
 20
1.46951
 30
0.0
 40
0.0104167
 41
0.0104167
  0
VERTEX
  8
0
 10
6.0981
 20
1.47917
 30
0.0
 40
0.0104167
 41
0.0104167
  0
VERTEX
  8
0
 10
6.09694
 20
1.48188
 30
0.0
 40
0.0104167
 41
0.0104167
  0
VERTEX
  8
0
 10
6.09694
 20
1.48188
 30
0.0
 40
0.0104167
 41
0.0104167
  0
VERTEX
  8
0
 10
6.09836
 20
1.48188
 30
0.0
 40
0.0104167
 41
0.0104167
  0
VERTEX
  8
0
 10
6.10265
 20
1.48188
 30
0.0
 40
0.0104167
 41
0.0104167
  0
VERTEX
  8
0
 10
6.10693
 20
1.48188
 30
0.0
 40
0.0104167
 41
0.0104167
  0
VERTEX
  8
0
 10
6.1084
 20
1.48188
 30
0.0
 40
0.0104167
 41
0.0104167
  0
VERTEX
  8
0
 10
6.1084
 20
1.48188
 30
0.0
 40
0.0104167
 41
0.0104167
  0
VERTEX
  8
0
 10
6.10775
 20
1.47954
 30
0.0
 40
0.0104167
 41
0.0104167
  0
VERTEX
  8
0
 10
6.10433
 20
1.46957
 30
0.0
 40
0.0104167
 41
0.0104167
  0
VERTEX
  8
0
 10
6.10319
 20
1.46625
 30
0.0
 40
0.0104167
 41
0.0104167
  0
SEQEND
 8
0
  0
POLYLINE
  8
0
 62
     7
 66
     1
 10
0
 20
0
 30
0.0
 70
     1
 40
0
 41
0
  0
VERTEX
  8
0
 10
6.10319
 20
1.72667
 30
0.0
 40
0
 41
0
  0
VERTEX
  8
0
 10
6.10194
 20
1.72347
 30
0.0
 40
0
 41
0
  0
VERTEX
  8
0
 10
6.0981
 20
1.71382
 30
0.0
 40
0
 41
0
  0
VERTEX
  8
0
 10
6.09694
 20
1.71104
 30
0.0
 40
0
 41
0
  0
VERTEX
  8
0
 10
6.09694
 20
1.71104
 30
0.0
 40
0
 41
0
  0
VERTEX
  8
0
 10
6.09836
 20
1.71104
 30
0.0
 40
0
 41
0
  0
VERTEX
  8
0
 10
6.10265
 20
1.71104
 30
0.0
 40
0
 41
0
  0
VERTEX
  8
0
 10
6.10693
 20
1.71104
 30
0.0
 40
0
 41
0
  0
VERTEX
  8
0
 10
6.1084
 20
1.71104
 30
0.0
 40
0
 41
0
  0
VERTEX
  8
0
 10
6.1084
 20
1.71104
 30
0.0
 40
0
 41
0
  0
VERTEX
  8
0
 10
6.10775
 20
1.71343
 30
0.0
 40
0
 41
0
  0
VERTEX
  8
0
 10
6.10433
 20
1.72342
 30
0.0
 40
0
 41
0
  0
VERTEX
  8
0
 10
6.10319
 20
1.72667
 30
0.0
 40
0
 41
0
  0
SEQEND
 8
0
  0
POLYLINE
  8
0
 62
     0
 66
     1
 10
0
 20
0
 30
0.0
 70
     1
 40
0.75
 41
0.75
  0
VERTEX
  8
0
 10
6.10319
 20
1.72667
 30
0.0
 40
0.0104167
 41
0.0104167
  0
VERTEX
  8
0
 10
6.10194
 20
1.72347
 30
0.0
 40
0.0104167
 41
0.0104167
  0
VERTEX
  8
0
 10
6.0981
 20
1.71382
 30
0.0
 40
0.0104167
 41
0.0104167
  0
VERTEX
  8
0
 10
6.09694
 20
1.71104
 30
0.0
 40
0.0104167
 41
0.0104167
  0
VERTEX
  8
0
 10
6.09694
 20
1.71104
 30
0.0
 40
0.0104167
 41
0.0104167
  0
VERTEX
  8
0
 10
6.09836
 20
1.71104
 30
0.0
 40
0.0104167
 41
0.0104167
  0
VERTEX
  8
0
 10
6.10265
 20
1.71104
 30
0.0
 40
0.0104167
 41
0.0104167
  0
VERTEX
  8
0
 10
6.10693
 20
1.71104
 30
0.0
 40
0.0104167
 41
0.0104167
  0
VERTEX
  8
0
 10
6.1084
 20
1.71104
 30
0.0
 40
0.0104167
 41
0.0104167
  0
VERTEX
  8
0
 10
6.1084
 20
1.71104
 30
0.0
 40
0.0104167
 41
0.0104167
  0
VERTEX
  8
0
 10
6.10775
 20
1.71343
 30
0.0
 40
0.0104167
 41
0.0104167
  0
VERTEX
  8
0
 10
6.10433
 20
1.72342
 30
0.0
 40
0.0104167
 41
0.0104167
  0
VERTEX
  8
0
 10
6.10319
 20
1.72667
 30
0.0
 40
0.0104167
 41
0.0104167
  0
SEQEND
 8
0
  0
POLYLINE
  8
0
 62
     7
 66
     1
 10
0
 20
0
 30
0.0
 70
     1
 40
0
 41
0
  0
VERTEX
  8
0
 10
7.01682
 20
1.33393
 30
0.0
 40
0
 41
0
  0
VERTEX
  8
0
 10
7.43338
 20
1.33393
 30
0.0
 40
0
 41
0
  0
VERTEX
  8
0
 10
7.43338
 20
1.14665
 30
0.0
 40
0
 41
0
  0
VERTEX
  8
0
 10
7.01682
 20
1.14665
 30
0.0
 40
0
 41
0
  0
VERTEX
  8
0
 10
7.01682
 20
1.33393
 30
0.0
 40
0
 41
0
  0
SEQEND
 8
0
  0
POLYLINE
  8
0
 62
     0
 66
     1
 10
0
 20
0
 30
0.0
 70
     1
 40
0.75
 41
0.75
  0
VERTEX
  8
0
 10
7.01682
 20
1.33393
 30
0.0
 40
0.0104167
 41
0.0104167
  0
VERTEX
  8
0
 10
7.43338
 20
1.33393
 30
0.0
 40
0.0104167
 41
0.0104167
  0
VERTEX
  8
0
 10
7.43338
 20
1.14665
 30
0.0
 40
0.0104167
 41
0.0104167
  0
VERTEX
  8
0
 10
7.01682
 20
1.14665
 30
0.0
 40
0.0104167
 41
0.0104167
  0
VERTEX
  8
0
 10
7.01682
 20
1.33393
 30
0.0
 40
0.0104167
 41
0.0104167
  0
SEQEND
 8
0
  0
POLYLINE
  8
0
 62
     7
 66
     1
 10
0
 20
0
 30
0.0
 70
     1
 40
0
 41
0
  0
VERTEX
  8
0
 10
7.01682
 20
1.60226
 30
0.0
 40
0
 41
0
  0
VERTEX
  8
0
 10
7.01682
 20
1.60226
 30
0.0
 40
0
 41
0
  0
VERTEX
  8
0
 10
7.01671
 20
1.61404
 30
0.0
 40
0
 41
0
  0
VERTEX
  8
0
 10
7.01833
 20
1.64501
 30
0.0
 40
0
 41
0
  0
VERTEX
  8
0
 10
7.02447
 20
1.68886
 30
0.0
 40
0
 41
0
  0
VERTEX
  8
0
 10
7.03787
 20
1.73904
 30
0.0
 40
0
 41
0
  0
VERTEX
  8
0
 10
7.06142
 20
1.78928
 30
0.0
 40
0
 41
0
  0
VERTEX
  8
0
 10
7.09788
 20
1.83311
 30
0.0
 40
0
 41
0
  0
VERTEX
  8
0
 10
7.15007
 20
1.8641
 30
0.0
 40
0
 41
0
  0
VERTEX
  8
0
 10
7.20313
 20
1.87582
 30
0.0
 40
0
 41
0
  0
VERTEX
  8
0
 10
7.22081
 20
1.87582
 30
0.0
 40
0
 41
0
  0
VERTEX
  8
0
 10
7.2391
 20
1.87582
 30
0.0
 40
0
 41
0
  0
VERTEX
  8
0
 10
7.29394
 20
1.8641
 30
0.0
 40
0
 41
0
  0
VERTEX
  8
0
 10
7.34804
 20
1.83311
 30
0.0
 40
0
 41
0
  0
VERTEX
  8
0
 10
7.38585
 20
1.78928
 30
0.0
 40
0
 41
0
  0
VERTEX
  8
0
 10
7.41026
 20
1.73904
 30
0.0
 40
0
 41
0
  0
VERTEX
  8
0
 10
7.42426
 20
1.68886
 30
0.0
 40
0
 41
0
  0
VERTEX
  8
0
 10
7.43067
 20
1.64501
 30
0.0
 40
0
 41
0
  0
VERTEX
  8
0
 10
7.4324
 20
1.61404
 30
0.0
 40
0
 41
0
  0
VERTEX
  8
0
 10
7.43235
 20
1.60226
 30
0.0
 40
0
 41
0
  0
VERTEX
  8
0
 10
7.43235
 20
1.60226
 30
0.0
 40
0
 41
0
  0
VERTEX
  8
0
 10
7.43338
 20
1.33393
 30
0.0
 40
0
 41
0
  0
VERTEX
  8
0
 10
7.01682
 20
1.33393
 30
0.0
 40
0
 41
0
  0
VERTEX
  8
0
 10
7.01682
 20
1.60226
 30
0.0
 40
0
 41
0
  0
SEQEND
 8
0
  0
POLYLINE
  8
0
 62
     0
 66
     1
 10
0
 20
0
 30
0.0
 70
     1
 40
0.75
 41
0.75
  0
VERTEX
  8
0
 10
7.01682
 20
1.60226
 30
0.0
 40
0.0104167
 41
0.0104167
  0
VERTEX
  8
0
 10
7.01682
 20
1.60226
 30
0.0
 40
0.0104167
 41
0.0104167
  0
VERTEX
  8
0
 10
7.01671
 20
1.61404
 30
0.0
 40
0.0104167
 41
0.0104167
  0
VERTEX
  8
0
 10
7.01833
 20
1.64501
 30
0.0
 40
0.0104167
 41
0.0104167
  0
VERTEX
  8
0
 10
7.02447
 20
1.68886
 30
0.0
 40
0.0104167
 41
0.0104167
  0
VERTEX
  8
0
 10
7.03787
 20
1.73904
 30
0.0
 40
0.0104167
 41
0.0104167
  0
VERTEX
  8
0
 10
7.06142
 20
1.78928
 30
0.0
 40
0.0104167
 41
0.0104167
  0
VERTEX
  8
0
 10
7.09788
 20
1.83311
 30
0.0
 40
0.0104167
 41
0.0104167
  0
VERTEX
  8
0
 10
7.15007
 20
1.8641
 30
0.0
 40
0.0104167
 41
0.0104167
  0
VERTEX
  8
0
 10
7.20313
 20
1.87582
 30
0.0
 40
0.0104167
 41
0.0104167
  0
VERTEX
  8
0
 10
7.22081
 20
1.87582
 30
0.0
 40
0.0104167
 41
0.0104167
  0
VERTEX
  8
0
 10
7.2391
 20
1.87582
 30
0.0
 40
0.0104167
 41
0.0104167
  0
VERTEX
  8
0
 10
7.29394
 20
1.8641
 30
0.0
 40
0.0104167
 41
0.0104167
  0
VERTEX
  8
0
 10
7.34804
 20
1.83311
 30
0.0
 40
0.0104167
 41
0.0104167
  0
VERTEX
  8
0
 10
7.38585
 20
1.78928
 30
0.0
 40
0.0104167
 41
0.0104167
  0
VERTEX
  8
0
 10
7.41026
 20
1.73904
 30
0.0
 40
0.0104167
 41
0.0104167
  0
VERTEX
  8
0
 10
7.42426
 20
1.68886
 30
0.0
 40
0.0104167
 41
0.0104167
  0
VERTEX
  8
0
 10
7.43067
 20
1.64501
 30
0.0
 40
0.0104167
 41
0.0104167
  0
VERTEX
  8
0
 10
7.4324
 20
1.61404
 30
0.0
 40
0.0104167
 41
0.0104167
  0
VERTEX
  8
0
 10
7.43235
 20
1.60226
 30
0.0
 40
0.0104167
 41
0.0104167
  0
VERTEX
  8
0
 10
7.43235
 20
1.60226
 30
0.0
 40
0.0104167
 41
0.0104167
  0
VERTEX
  8
0
 10
7.43338
 20
1.33393
 30
0.0
 40
0.0104167
 41
0.0104167
  0
VERTEX
  8
0
 10
7.01682
 20
1.33393
 30
0.0
 40
0.0104167
 41
0.0104167
  0
VERTEX
  8
0
 10
7.01682
 20
1.60226
 30
0.0
 40
0.0104167
 41
0.0104167
  0
SEQEND
 8
0
  0
POLYLINE
  8
0
 62
     7
 66
     1
 10
0
 20
0
 30
0.0
 70
     1
 40
0
 41
0
  0
VERTEX
  8
0
 10
7.192
 20
1.25608
 30
0.0
 40
0
 41
0
  0
VERTEX
  8
0
 10
7.25819
 20
1.25608
 30
0.0
 40
0
 41
0
  0
VERTEX
  8
0
 10
7.25819
 20
1.22456
 30
0.0
 40
0
 41
0
  0
VERTEX
  8
0
 10
7.192
 20
1.22456
 30
0.0
 40
0
 41
0
  0
VERTEX
  8
0
 10
7.192
 20
1.25608
 30
0.0
 40
0
 41
0
  0
SEQEND
 8
0
  0
POLYLINE
  8
0
 62
     0
 66
     1
 10
0
 20
0
 30
0.0
 70
     1
 40
0.75
 41
0.75
  0
VERTEX
  8
0
 10
7.192
 20
1.25608
 30
0.0
 40
0.0104167
 41
0.0104167
  0
VERTEX
  8
0
 10
7.25819
 20
1.25608
 30
0.0
 40
0.0104167
 41
0.0104167
  0
VERTEX
  8
0
 10
7.25819
 20
1.22456
 30
0.0
 40
0.0104167
 41
0.0104167
  0
VERTEX
  8
0
 10
7.192
 20
1.22456
 30
0.0
 40
0.0104167
 41
0.0104167
  0
VERTEX
  8
0
 10
7.192
 20
1.25608
 30
0.0
 40
0.0104167
 41
0.0104167
  0
SEQEND
 8
0
  0
POLYLINE
  8
0
 62
     7
 66
     1
 10
0
 20
0
 30
0.0
 70
     1
 40
0
 41
0
  0
VERTEX
  8
0
 10
7.54047
 20
1.58843
 30
0.0
 40
0
 41
0
  0
VERTEX
  8
0
 10
8.16547
 20
1.58843
 30
0.0
 40
0
 41
0
  0
VERTEX
  8
0
 10
8.16547
 20
1.14339
 30
0.0
 40
0
 41
0
  0
VERTEX
  8
0
 10
7.54047
 20
1.14339
 30
0.0
 40
0
 41
0
  0
VERTEX
  8
0
 10
7.54047
 20
1.58843
 30
0.0
 40
0
 41
0
  0
SEQEND
 8
0
  0
POLYLINE
  8
0
 62
     0
 66
     1
 10
0
 20
0
 30
0.0
 70
     1
 40
0.75
 41
0.75
  0
VERTEX
  8
0
 10
7.54047
 20
1.58843
 30
0.0
 40
0.0104167
 41
0.0104167
  0
VERTEX
  8
0
 10
8.16547
 20
1.58843
 30
0.0
 40
0.0104167
 41
0.0104167
  0
VERTEX
  8
0
 10
8.16547
 20
1.14339
 30
0.0
 40
0.0104167
 41
0.0104167
  0
VERTEX
  8
0
 10
7.54047
 20
1.14339
 30
0.0
 40
0.0104167
 41
0.0104167
  0
VERTEX
  8
0
 10
7.54047
 20
1.58843
 30
0.0
 40
0.0104167
 41
0.0104167
  0
SEQEND
 8
0
  0
POLYLINE
  8
0
 62
     7
 66
     1
 10
0
 20
0
 30
0.0
 70
     1
 40
0
 41
0
  0
VERTEX
  8
0
 10
7.59256
 20
1.54915
 30
0.0
 40
0
 41
0
  0
VERTEX
  8
0
 10
8.11339
 20
1.54915
 30
0.0
 40
0
 41
0
  0
VERTEX
  8
0
 10
8.11339
 20
1.24447
 30
0.0
 40
0
 41
0
  0
VERTEX
  8
0
 10
7.59256
 20
1.24447
 30
0.0
 40
0
 41
0
  0
VERTEX
  8
0
 10
7.59256
 20
1.54915
 30
0.0
 40
0
 41
0
  0
SEQEND
 8
0
  0
POLYLINE
  8
0
 62
     0
 66
     1
 10
0
 20
0
 30
0.0
 70
     1
 40
0.75
 41
0.75
  0
VERTEX
  8
0
 10
7.59256
 20
1.54915
 30
0.0
 40
0.0104167
 41
0.0104167
  0
VERTEX
  8
0
 10
8.11339
 20
1.54915
 30
0.0
 40
0.0104167
 41
0.0104167
  0
VERTEX
  8
0
 10
8.11339
 20
1.24447
 30
0.0
 40
0.0104167
 41
0.0104167
  0
VERTEX
  8
0
 10
7.59256
 20
1.24447
 30
0.0
 40
0.0104167
 41
0.0104167
  0
VERTEX
  8
0
 10
7.59256
 20
1.54915
 30
0.0
 40
0.0104167
 41
0.0104167
  0
SEQEND
 8
0
  0
POLYLINE
  8
0
 62
     7
 66
     1
 10
0
 20
0
 30
0.0
 70
     1
 40
0
 41
0
  0
VERTEX
  8
0
 10
7.81651
 20
1.38227
 30
0.0
 40
0
 41
0
  0
VERTEX
  8
0
 10
7.81651
 20
1.38873
 30
0.0
 40
0
 41
0
  0
VERTEX
  8
0
 10
7.82715
 20
1.4081
 30
0.0
 40
0
 41
0
  0
VERTEX
  8
0
 10
7.84651
 20
1.41872
 30
0.0
 40
0
 41
0
  0
VERTEX
  8
0
 10
7.85297
 20
1.41872
 30
0.0
 40
0
 41
0
  0
VERTEX
  8
0
 10
7.85938
 20
1.41872
 30
0.0
 40
0
 41
0
  0
VERTEX
  8
0
 10
7.87875
 20
1.4081
 30
0.0
 40
0
 41
0
  0
VERTEX
  8
0
 10
7.88943
 20
1.38873
 30
0.0
 40
0
 41
0
  0
VERTEX
  8
0
 10
7.88943
 20
1.38227
 30
0.0
 40
0
 41
0
  0
VERTEX
  8
0
 10
7.88943
 20
1.37587
 30
0.0
 40
0
 41
0
  0
VERTEX
  8
0
 10
7.87875
 20
1.3565
 30
0.0
 40
0
 41
0
  0
VERTEX
  8
0
 10
7.85938
 20
1.34581
 30
0.0
 40
0
 41
0
  0
VERTEX
  8
0
 10
7.85297
 20
1.34581
 30
0.0
 40
0
 41
0
  0
VERTEX
  8
0
 10
7.84651
 20
1.34581
 30
0.0
 40
0
 41
0
  0
VERTEX
  8
0
 10
7.82715
 20
1.3565
 30
0.0
 40
0
 41
0
  0
VERTEX
  8
0
 10
7.81651
 20
1.37587
 30
0.0
 40
0
 41
0
  0
VERTEX
  8
0
 10
7.81651
 20
1.38227
 30
0.0
 40
0
 41
0
  0
SEQEND
 8
0
  0
POLYLINE
  8
0
 62
     0
 66
     1
 10
0
 20
0
 30
0.0
 70
     1
 40
0.6
 41
0.6
  0
VERTEX
  8
0
 10
7.81651
 20
1.38227
 30
0.0
 40
0.00833333
 41
0.00833333
  0
VERTEX
  8
0
 10
7.81651
 20
1.38873
 30
0.0
 40
0.00833333
 41
0.00833333
  0
VERTEX
  8
0
 10
7.82715
 20
1.4081
 30
0.0
 40
0.00833333
 41
0.00833333
  0
VERTEX
  8
0
 10
7.84651
 20
1.41872
 30
0.0
 40
0.00833333
 41
0.00833333
  0
VERTEX
  8
0
 10
7.85297
 20
1.41872
 30
0.0
 40
0.00833333
 41
0.00833333
  0
VERTEX
  8
0
 10
7.85938
 20
1.41872
 30
0.0
 40
0.00833333
 41
0.00833333
  0
VERTEX
  8
0
 10
7.87875
 20
1.4081
 30
0.0
 40
0.00833333
 41
0.00833333
  0
VERTEX
  8
0
 10
7.88943
 20
1.38873
 30
0.0
 40
0.00833333
 41
0.00833333
  0
VERTEX
  8
0
 10
7.88943
 20
1.38227
 30
0.0
 40
0.00833333
 41
0.00833333
  0
VERTEX
  8
0
 10
7.88943
 20
1.37587
 30
0.0
 40
0.00833333
 41
0.00833333
  0
VERTEX
  8
0
 10
7.87875
 20
1.3565
 30
0.0
 40
0.00833333
 41
0.00833333
  0
VERTEX
  8
0
 10
7.85938
 20
1.34581
 30
0.0
 40
0.00833333
 41
0.00833333
  0
VERTEX
  8
0
 10
7.85297
 20
1.34581
 30
0.0
 40
0.00833333
 41
0.00833333
  0
VERTEX
  8
0
 10
7.84651
 20
1.34581
 30
0.0
 40
0.00833333
 41
0.00833333
  0
VERTEX
  8
0
 10
7.82715
 20
1.3565
 30
0.0
 40
0.00833333
 41
0.00833333
  0
VERTEX
  8
0
 10
7.81651
 20
1.37587
 30
0.0
 40
0.00833333
 41
0.00833333
  0
VERTEX
  8
0
 10
7.81651
 20
1.38227
 30
0.0
 40
0.00833333
 41
0.00833333
  0
SEQEND
 8
0
  0
POLYLINE
  8
0
 62
     7
 66
     1
 10
0
 20
0
 30
0.0
 70
     1
 40
0
 41
0
  0
VERTEX
  8
0
 10
7.83214
 20
1.38227
 30
0.0
 40
0
 41
0
  0
VERTEX
  8
0
 10
7.83214
 20
1.38596
 30
0.0
 40
0
 41
0
  0
VERTEX
  8
0
 10
7.83822
 20
1.39703
 30
0.0
 40
0
 41
0
  0
VERTEX
  8
0
 10
7.84928
 20
1.4031
 30
0.0
 40
0
 41
0
  0
VERTEX
  8
0
 10
7.85297
 20
1.4031
 30
0.0
 40
0
 41
0
  0
VERTEX
  8
0
 10
7.85661
 20
1.4031
 30
0.0
 40
0
 41
0
  0
VERTEX
  8
0
 10
7.86768
 20
1.39703
 30
0.0
 40
0
 41
0
  0
VERTEX
  8
0
 10
7.87381
 20
1.38596
 30
0.0
 40
0
 41
0
  0
VERTEX
  8
0
 10
7.87381
 20
1.38227
 30
0.0
 40
0
 41
0
  0
VERTEX
  8
0
 10
7.87381
 20
1.37863
 30
0.0
 40
0
 41
0
  0
VERTEX
  8
0
 10
7.86768
 20
1.36757
 30
0.0
 40
0
 41
0
  0
VERTEX
  8
0
 10
7.85661
 20
1.36144
 30
0.0
 40
0
 41
0
  0
VERTEX
  8
0
 10
7.85297
 20
1.36144
 30
0.0
 40
0
 41
0
  0
VERTEX
  8
0
 10
7.84928
 20
1.36144
 30
0.0
 40
0
 41
0
  0
VERTEX
  8
0
 10
7.83822
 20
1.36757
 30
0.0
 40
0
 41
0
  0
VERTEX
  8
0
 10
7.83214
 20
1.37863
 30
0.0
 40
0
 41
0
  0
VERTEX
  8
0
 10
7.83214
 20
1.38227
 30
0.0
 40
0
 41
0
  0
SEQEND
 8
0
  0
POLYLINE
  8
0
 62
     0
 66
     1
 10
0
 20
0
 30
0.0
 70
     1
 40
0.6
 41
0.6
  0
VERTEX
  8
0
 10
7.83214
 20
1.38227
 30
0.0
 40
0.00833333
 41
0.00833333
  0
VERTEX
  8
0
 10
7.83214
 20
1.38596
 30
0.0
 40
0.00833333
 41
0.00833333
  0
VERTEX
  8
0
 10
7.83822
 20
1.39703
 30
0.0
 40
0.00833333
 41
0.00833333
  0
VERTEX
  8
0
 10
7.84928
 20
1.4031
 30
0.0
 40
0.00833333
 41
0.00833333
  0
VERTEX
  8
0
 10
7.85297
 20
1.4031
 30
0.0
 40
0.00833333
 41
0.00833333
  0
VERTEX
  8
0
 10
7.85661
 20
1.4031
 30
0.0
 40
0.00833333
 41
0.00833333
  0
VERTEX
  8
0
 10
7.86768
 20
1.39703
 30
0.0
 40
0.00833333
 41
0.00833333
  0
VERTEX
  8
0
 10
7.87381
 20
1.38596
 30
0.0
 40
0.00833333
 41
0.00833333
  0
VERTEX
  8
0
 10
7.87381
 20
1.38227
 30
0.0
 40
0.00833333
 41
0.00833333
  0
VERTEX
  8
0
 10
7.87381
 20
1.37863
 30
0.0
 40
0.00833333
 41
0.00833333
  0
VERTEX
  8
0
 10
7.86768
 20
1.36757
 30
0.0
 40
0.00833333
 41
0.00833333
  0
VERTEX
  8
0
 10
7.85661
 20
1.36144
 30
0.0
 40
0.00833333
 41
0.00833333
  0
VERTEX
  8
0
 10
7.85297
 20
1.36144
 30
0.0
 40
0.00833333
 41
0.00833333
  0
VERTEX
  8
0
 10
7.84928
 20
1.36144
 30
0.0
 40
0.00833333
 41
0.00833333
  0
VERTEX
  8
0
 10
7.83822
 20
1.36757
 30
0.0
 40
0.00833333
 41
0.00833333
  0
VERTEX
  8
0
 10
7.83214
 20
1.37863
 30
0.0
 40
0.00833333
 41
0.00833333
  0
VERTEX
  8
0
 10
7.83214
 20
1.38227
 30
0.0
 40
0.00833333
 41
0.00833333
  0
SEQEND
 8
0
  0
POLYLINE
  8
0
 62
     7
 66
     1
 10
0
 20
0
 30
0.0
 70
     1
 40
0
 41
0
  0
VERTEX
  8
0
 10
7.82172
 20
1.32633
 30
0.0
 40
0
 41
0
  0
VERTEX
  8
0
 10
7.88422
 20
1.32633
 30
0.0
 40
0
 41
0
  0
VERTEX
  8
0
 10
7.88422
 20
1.1805
 30
0.0
 40
0
 41
0
  0
VERTEX
  8
0
 10
7.82172
 20
1.1805
 30
0.0
 40
0
 41
0
  0
VERTEX
  8
0
 10
7.82172
 20
1.32633
 30
0.0
 40
0
 41
0
  0
SEQEND
 8
0
  0
POLYLINE
  8
0
 62
     0
 66
     1
 10
0
 20
0
 30
0.0
 70
     1
 40
0.75
 41
0.75
  0
VERTEX
  8
0
 10
7.82172
 20
1.32633
 30
0.0
 40
0.0104167
 41
0.0104167
  0
VERTEX
  8
0
 10
7.88422
 20
1.32633
 30
0.0
 40
0.0104167
 41
0.0104167
  0
VERTEX
  8
0
 10
7.88422
 20
1.1805
 30
0.0
 40
0.0104167
 41
0.0104167
  0
VERTEX
  8
0
 10
7.82172
 20
1.1805
 30
0.0
 40
0.0104167
 41
0.0104167
  0
VERTEX
  8
0
 10
7.82172
 20
1.32633
 30
0.0
 40
0.0104167
 41
0.0104167
  0
SEQEND
 8
0
  0
POLYLINE
  8
0
 62
     7
 66
     1
 10
0
 20
0
 30
0.0
 70
     1
 40
0
 41
0
  0
VERTEX
  8
0
 10
8.78863
 20
1.65978
 30
0.0
 40
0
 41
0
  0
VERTEX
  8
0
 10
9.22293
 20
1.65978
 30
0.0
 40
0
 41
0
  0
VERTEX
  8
0
 10
9.22293
 20
1.14339
 30
0.0
 40
0
 41
0
  0
VERTEX
  8
0
 10
8.78863
 20
1.14339
 30
0.0
 40
0
 41
0
  0
VERTEX
  8
0
 10
8.78863
 20
1.65978
 30
0.0
 40
0
 41
0
  0
SEQEND
 8
0
  0
POLYLINE
  8
0
 62
     0
 66
     1
 10
0
 20
0
 30
0.0
 70
     1
 40
0.75
 41
0.75
  0
VERTEX
  8
0
 10
8.78863
 20
1.65978
 30
0.0
 40
0.0104167
 41
0.0104167
  0
VERTEX
  8
0
 10
9.22293
 20
1.65978
 30
0.0
 40
0.0104167
 41
0.0104167
  0
VERTEX
  8
0
 10
9.22293
 20
1.14339
 30
0.0
 40
0.0104167
 41
0.0104167
  0
VERTEX
  8
0
 10
8.78863
 20
1.14339
 30
0.0
 40
0.0104167
 41
0.0104167
  0
VERTEX
  8
0
 10
8.78863
 20
1.65978
 30
0.0
 40
0.0104167
 41
0.0104167
  0
SEQEND
 8
0
  0
POLYLINE
  8
0
 62
     7
 66
     1
 10
0
 20
0
 30
0.0
 70
     1
 40
0
 41
0
  0
VERTEX
  8
0
 10
8.20454
 20
1.76644
 30
0.0
 40
0
 41
0
  0
VERTEX
  8
0
 10
8.78868
 20
1.76644
 30
0.0
 40
0
 41
0
  0
VERTEX
  8
0
 10
8.78868
 20
1.14144
 30
0.0
 40
0
 41
0
  0
VERTEX
  8
0
 10
8.20454
 20
1.14144
 30
0.0
 40
0
 41
0
  0
VERTEX
  8
0
 10
8.20454
 20
1.76644
 30
0.0
 40
0
 41
0
  0
SEQEND
 8
0
  0
POLYLINE
  8
0
 62
     0
 66
     1
 10
0
 20
0
 30
0.0
 70
     1
 40
0.70095
 41
0.70095
  0
VERTEX
  8
0
 10
8.20454
 20
1.76644
 30
0.0
 40
0.00973542
 41
0.00973542
  0
VERTEX
  8
0
 10
8.78868
 20
1.76644
 30
0.0
 40
0.00973542
 41
0.00973542
  0
VERTEX
  8
0
 10
8.78868
 20
1.14144
 30
0.0
 40
0.00973542
 41
0.00973542
  0
VERTEX
  8
0
 10
8.20454
 20
1.14144
 30
0.0
 40
0.00973542
 41
0.00973542
  0
VERTEX
  8
0
 10
8.20454
 20
1.76644
 30
0.0
 40
0.00973542
 41
0.00973542
  0
SEQEND
 8
0
  0
POLYLINE
  8
0
 62
     0
 66
     1
 10
0
 20
0
 30
0.0
 40
0.70095
 41
0.70095
  0
VERTEX
  8
0
 10
8.78868
 20
1.14144
 30
0.0
 40
0.00973542
 41
0.00973542
  0
VERTEX
  8
0
 10
8.49561
 20
1.55604
 30
0.0
 40
0.00973542
 41
0.00973542
  0
VERTEX
  8
0
 10
8.49561
 20
1.34353
 30
0.0
 40
0.00973542
 41
0.00973542
  0
VERTEX
  8
0
 10
8.20551
 20
1.76644
 30
0.0
 40
0.00973542
 41
0.00973542
  0
SEQEND
 8
0
  0
POLYLINE
  8
0
 62
     7
 66
     1
 10
0
 20
0
 30
0.0
 70
     1
 40
0
 41
0
  0
VERTEX
  8
0
 10
9.40739
 20
4.71181
 30
0.0
 40
0
 41
0
  0
VERTEX
  8
0
 10
10.6574
 20
4.71181
 30
0.0
 40
0
 41
0
  0
VERTEX
  8
0
 10
10.6574
 20
4.08681
 30
0.0
 40
0
 41
0
  0
VERTEX
  8
0
 10
9.40739
 20
4.08681
 30
0.0
 40
0
 41
0
  0
VERTEX
  8
0
 10
9.40739
 20
4.71181
 30
0.0
 40
0
 41
0
  0
SEQEND
 8
0
  0
POLYLINE
  8
0
 62
     0
 66
     1
 10
0
 20
0
 30
0.0
 70
     1
 40
0.75
 41
0.75
  0
VERTEX
  8
0
 10
9.40739
 20
4.71181
 30
0.0
 40
0.0104167
 41
0.0104167
  0
VERTEX
  8
0
 10
10.6574
 20
4.71181
 30
0.0
 40
0.0104167
 41
0.0104167
  0
VERTEX
  8
0
 10
10.6574
 20
4.08681
 30
0.0
 40
0.0104167
 41
0.0104167
  0
VERTEX
  8
0
 10
9.40739
 20
4.08681
 30
0.0
 40
0.0104167
 41
0.0104167
  0
VERTEX
  8
0
 10
9.40739
 20
4.71181
 30
0.0
 40
0.0104167
 41
0.0104167
  0
SEQEND
 8
0
  0
POLYLINE
  8
0
 62
     253
 66
     1
 10
0
 20
0
 30
0.0
 40
0.75
 41
0.75
  0
VERTEX
  8
0
 10
9.40739
 20
4.39931
 30
0.0
 40
0.0104167
 41
0.0104167
  0
VERTEX
  8
0
 10
10.6574
 20
4.39931
 30
0.0
 40
0.0104167
 41
0.0104167
  0
SEQEND
 8
0
  0
POLYLINE
  8
0
 62
     0
 66
     1
 10
0
 20
0
 30
0.0
 70
     1
 40
0
 41
0
  0
VERTEX
  8
0
 10
8.73867
 20
4.71186
 30
0.0
 40
0
 41
0
  0
VERTEX
  8
0
 10
9.40739
 20
4.71186
 30
0.0
 40
0
 41
0
  0
VERTEX
  8
0
 10
9.40739
 20
4.08578
 30
0.0
 40
0
 41
0
  0
VERTEX
  8
0
 10
8.73867
 20
4.08578
 30
0.0
 40
0
 41
0
  0
VERTEX
  8
0
 10
8.73867
 20
4.71186
 30
0.0
 40
0
 41
0
  0
SEQEND
 8
0
  0
POLYLINE
  8
0
 62
     7
 66
     1
 10
0
 20
0
 30
0.0
 70
     1
 40
0
 41
0
  0
VERTEX
  8
0
 10
1.37994
 20
4.62761
 30
0.0
 40
0
 41
0
  0
VERTEX
  8
0
 10
1.56131
 20
4.62761
 30
0.0
 40
0
 41
0
  0
VERTEX
  8
0
 10
1.56131
 20
4.00261
 30
0.0
 40
0
 41
0
  0
VERTEX
  8
0
 10
1.37994
 20
4.00261
 30
0.0
 40
0
 41
0
  0
VERTEX
  8
0
 10
1.37994
 20
4.62761
 30
0.0
 40
0
 41
0
  0
SEQEND
 8
0
  0
POLYLINE
  8
0
 62
     0
 66
     1
 10
0
 20
0
 30
0.0
 70
     1
 40
1.3059
 41
1.3059
  0
VERTEX
  8
0
 10
1.37994
 20
4.62761
 30
0.0
 40
0.0181375
 41
0.0181375
  0
VERTEX
  8
0
 10
1.56131
 20
4.62761
 30
0.0
 40
0.0181375
 41
0.0181375
  0
VERTEX
  8
0
 10
1.56131
 20
4.00261
 30
0.0
 40
0.0181375
 41
0.0181375
  0
VERTEX
  8
0
 10
1.37994
 20
4.00261
 30
0.0
 40
0.0181375
 41
0.0181375
  0
VERTEX
  8
0
 10
1.37994
 20
4.62761
 30
0.0
 40
0.0181375
 41
0.0181375
  0
SEQEND
 8
0
  0
POLYLINE
  8
0
 62
     7
 66
     1
 10
0
 20
0
 30
0.0
 70
     1
 40
0
 41
0
  0
VERTEX
  8
0
 10
1.39393
 20
5.39876
 30
0.0
 40
0
 41
0
  0
VERTEX
  8
0
 10
1.57536
 20
5.39876
 30
0.0
 40
0
 41
0
  0
VERTEX
  8
0
 10
1.57536
 20
4.77376
 30
0.0
 40
0
 41
0
  0
VERTEX
  8
0
 10
1.39393
 20
4.77376
 30
0.0
 40
0
 41
0
  0
VERTEX
  8
0
 10
1.39393
 20
5.39876
 30
0.0
 40
0
 41
0
  0
SEQEND
 8
0
  0
POLYLINE
  8
0
 62
     0
 66
     1
 10
0
 20
0
 30
0.0
 70
     1
 40
1.3059
 41
1.3059
  0
VERTEX
  8
0
 10
1.39393
 20
5.39876
 30
0.0
 40
0.0181375
 41
0.0181375
  0
VERTEX
  8
0
 10
1.57536
 20
5.39876
 30
0.0
 40
0.0181375
 41
0.0181375
  0
VERTEX
  8
0
 10
1.57536
 20
4.77376
 30
0.0
 40
0.0181375
 41
0.0181375
  0
VERTEX
  8
0
 10
1.39393
 20
4.77376
 30
0.0
 40
0.0181375
 41
0.0181375
  0
VERTEX
  8
0
 10
1.39393
 20
5.39876
 30
0.0
 40
0.0181375
 41
0.0181375
  0
SEQEND
 8
0
  0
POLYLINE
  8
0
 62
     7
 66
     1
 10
0
 20
0
 30
0.0
 70
     1
 40
0
 41
0
  0
VERTEX
  8
0
 10
1.56131
 20
4.62776
 30
0.0
 40
0
 41
0
  0
VERTEX
  8
0
 10
2.10883
 20
4.62776
 30
0.0
 40
0
 41
0
  0
VERTEX
  8
0
 10
2.10883
 20
4.00276
 30
0.0
 40
0
 41
0
  0
VERTEX
  8
0
 10
1.56131
 20
4.00276
 30
0.0
 40
0
 41
0
  0
VERTEX
  8
0
 10
1.56131
 20
4.62776
 30
0.0
 40
0
 41
0
  0
SEQEND
 8
0
  0
POLYLINE
  8
0
 62
     0
 66
     1
 10
0
 20
0
 30
0.0
 70
     1
 40
0.75
 41
0.75
  0
VERTEX
  8
0
 10
1.56131
 20
4.62776
 30
0.0
 40
0.0104167
 41
0.0104167
  0
VERTEX
  8
0
 10
2.10883
 20
4.62776
 30
0.0
 40
0.0104167
 41
0.0104167
  0
VERTEX
  8
0
 10
2.10883
 20
4.00276
 30
0.0
 40
0.0104167
 41
0.0104167
  0
VERTEX
  8
0
 10
1.56131
 20
4.00276
 30
0.0
 40
0.0104167
 41
0.0104167
  0
VERTEX
  8
0
 10
1.56131
 20
4.62776
 30
0.0
 40
0.0104167
 41
0.0104167
  0
SEQEND
 8
0
  0
POLYLINE
  8
0
 62
     7
 66
     1
 10
0
 20
0
 30
0.0
 70
     1
 40
0
 41
0
  0
VERTEX
  8
0
 10
2.10878
 20
4.62776
 30
0.0
 40
0
 41
0
  0
VERTEX
  8
0
 10
3.21474
 20
4.62776
 30
0.0
 40
0
 41
0
  0
VERTEX
  8
0
 10
3.21474
 20
4.00276
 30
0.0
 40
0
 41
0
  0
VERTEX
  8
0
 10
2.10878
 20
4.00276
 30
0.0
 40
0
 41
0
  0
VERTEX
  8
0
 10
2.10878
 20
4.62776
 30
0.0
 40
0
 41
0
  0
SEQEND
 8
0
  0
POLYLINE
  8
0
 62
     0
 66
     1
 10
0
 20
0
 30
0.0
 70
     1
 40
0.75
 41
0.75
  0
VERTEX
  8
0
 10
2.10878
 20
4.62776
 30
0.0
 40
0.0104167
 41
0.0104167
  0
VERTEX
  8
0
 10
3.21474
 20
4.62776
 30
0.0
 40
0.0104167
 41
0.0104167
  0
VERTEX
  8
0
 10
3.21474
 20
4.00276
 30
0.0
 40
0.0104167
 41
0.0104167
  0
VERTEX
  8
0
 10
2.10878
 20
4.00276
 30
0.0
 40
0.0104167
 41
0.0104167
  0
VERTEX
  8
0
 10
2.10878
 20
4.62776
 30
0.0
 40
0.0104167
 41
0.0104167
  0
SEQEND
 8
0
  0
POLYLINE
  8
0
 62
     253
 66
     1
 10
0
 20
0
 30
0.0
 40
0.75
 41
0.75
  0
VERTEX
  8
0
 10
2.10878
 20
4.31526
 30
0.0
 40
0.0104167
 41
0.0104167
  0
VERTEX
  8
0
 10
3.21479
 20
4.31526
 30
0.0
 40
0.0104167
 41
0.0104167
  0
SEQEND
 8
0
  0
POLYLINE
  8
0
 62
     7
 66
     1
 10
0
 20
0
 30
0.0
 70
     1
 40
0
 41
0
  0
VERTEX
  8
0
 10
3.21739
 20
4.62776
 30
0.0
 40
0
 41
0
  0
VERTEX
  8
0
 10
3.83512
 20
4.62776
 30
0.0
 40
0
 41
0
  0
VERTEX
  8
0
 10
3.83512
 20
4.00276
 30
0.0
 40
0
 41
0
  0
VERTEX
  8
0
 10
3.21739
 20
4.00276
 30
0.0
 40
0
 41
0
  0
VERTEX
  8
0
 10
3.21739
 20
4.62776
 30
0.0
 40
0
 41
0
  0
SEQEND
 8
0
  0
POLYLINE
  8
0
 62
     0
 66
     1
 10
0
 20
0
 30
0.0
 70
     1
 40
0.75
 41
0.75
  0
VERTEX
  8
0
 10
3.21739
 20
4.62776
 30
0.0
 40
0.0104167
 41
0.0104167
  0
VERTEX
  8
0
 10
3.83512
 20
4.62776
 30
0.0
 40
0.0104167
 41
0.0104167
  0
VERTEX
  8
0
 10
3.83512
 20
4.00276
 30
0.0
 40
0.0104167
 41
0.0104167
  0
VERTEX
  8
0
 10
3.21739
 20
4.00276
 30
0.0
 40
0.0104167
 41
0.0104167
  0
VERTEX
  8
0
 10
3.21739
 20
4.62776
 30
0.0
 40
0.0104167
 41
0.0104167
  0
SEQEND
 8
0
  0
POLYLINE
  8
0
 62
     7
 66
     1
 10
0
 20
0
 30
0.0
 70
     1
 40
0
 41
0
  0
VERTEX
  8
0
 10
3.83512
 20
4.62776
 30
0.0
 40
0
 41
0
  0
VERTEX
  8
0
 10
4.3826
 20
4.62776
 30
0.0
 40
0
 41
0
  0
VERTEX
  8
0
 10
4.3826
 20
4.00276
 30
0.0
 40
0
 41
0
  0
VERTEX
  8
0
 10
3.83512
 20
4.00276
 30
0.0
 40
0
 41
0
  0
VERTEX
  8
0
 10
3.83512
 20
4.62776
 30
0.0
 40
0
 41
0
  0
SEQEND
 8
0
  0
POLYLINE
  8
0
 62
     0
 66
     1
 10
0
 20
0
 30
0.0
 70
     1
 40
0.75
 41
0.75
  0
VERTEX
  8
0
 10
3.83512
 20
4.62776
 30
0.0
 40
0.0104167
 41
0.0104167
  0
VERTEX
  8
0
 10
4.3826
 20
4.62776
 30
0.0
 40
0.0104167
 41
0.0104167
  0
VERTEX
  8
0
 10
4.3826
 20
4.00276
 30
0.0
 40
0.0104167
 41
0.0104167
  0
VERTEX
  8
0
 10
3.83512
 20
4.00276
 30
0.0
 40
0.0104167
 41
0.0104167
  0
VERTEX
  8
0
 10
3.83512
 20
4.62776
 30
0.0
 40
0.0104167
 41
0.0104167
  0
SEQEND
 8
0
  0
POLYLINE
  8
0
 62
     253
 66
     1
 10
0
 20
0
 30
0.0
 40
0.75
 41
0.75
  0
VERTEX
  8
0
 10
3.83512
 20
4.31526
 30
0.0
 40
0.0104167
 41
0.0104167
  0
VERTEX
  8
0
 10
4.38254
 20
4.31526
 30
0.0
 40
0.0104167
 41
0.0104167
  0
SEQEND
 8
0
  0
POLYLINE
  8
0
 62
     7
 66
     1
 10
0
 20
0
 30
0.0
 70
     1
 40
0
 41
0
  0
VERTEX
  8
0
 10
1.57536
 20
5.3986
 30
0.0
 40
0
 41
0
  0
VERTEX
  8
0
 10
2.12283
 20
5.3986
 30
0.0
 40
0
 41
0
  0
VERTEX
  8
0
 10
2.12283
 20
4.7736
 30
0.0
 40
0
 41
0
  0
VERTEX
  8
0
 10
1.57536
 20
4.7736
 30
0.0
 40
0
 41
0
  0
VERTEX
  8
0
 10
1.57536
 20
5.3986
 30
0.0
 40
0
 41
0
  0
SEQEND
 8
0
  0
POLYLINE
  8
0
 62
     0
 66
     1
 10
0
 20
0
 30
0.0
 70
     1
 40
0.75
 41
0.75
  0
VERTEX
  8
0
 10
1.57536
 20
5.3986
 30
0.0
 40
0.0104167
 41
0.0104167
  0
VERTEX
  8
0
 10
2.12283
 20
5.3986
 30
0.0
 40
0.0104167
 41
0.0104167
  0
VERTEX
  8
0
 10
2.12283
 20
4.7736
 30
0.0
 40
0.0104167
 41
0.0104167
  0
VERTEX
  8
0
 10
1.57536
 20
4.7736
 30
0.0
 40
0.0104167
 41
0.0104167
  0
VERTEX
  8
0
 10
1.57536
 20
5.3986
 30
0.0
 40
0.0104167
 41
0.0104167
  0
SEQEND
 8
0
  0
POLYLINE
  8
0
 62
     7
 66
     1
 10
0
 20
0
 30
0.0
 70
     1
 40
0
 41
0
  0
VERTEX
  8
0
 10
2.12289
 20
5.3986
 30
0.0
 40
0
 41
0
  0
VERTEX
  8
0
 10
3.22885
 20
5.3986
 30
0.0
 40
0
 41
0
  0
VERTEX
  8
0
 10
3.22885
 20
4.7736
 30
0.0
 40
0
 41
0
  0
VERTEX
  8
0
 10
2.12289
 20
4.7736
 30
0.0
 40
0
 41
0
  0
VERTEX
  8
0
 10
2.12289
 20
5.3986
 30
0.0
 40
0
 41
0
  0
SEQEND
 8
0
  0
POLYLINE
  8
0
 62
     0
 66
     1
 10
0
 20
0
 30
0.0
 70
     1
 40
0.75
 41
0.75
  0
VERTEX
  8
0
 10
2.12289
 20
5.3986
 30
0.0
 40
0.0104167
 41
0.0104167
  0
VERTEX
  8
0
 10
3.22885
 20
5.3986
 30
0.0
 40
0.0104167
 41
0.0104167
  0
VERTEX
  8
0
 10
3.22885
 20
4.7736
 30
0.0
 40
0.0104167
 41
0.0104167
  0
VERTEX
  8
0
 10
2.12289
 20
4.7736
 30
0.0
 40
0.0104167
 41
0.0104167
  0
VERTEX
  8
0
 10
2.12289
 20
5.3986
 30
0.0
 40
0.0104167
 41
0.0104167
  0
SEQEND
 8
0
  0
POLYLINE
  8
0
 62
     253
 66
     1
 10
0
 20
0
 30
0.0
 40
0.75
 41
0.75
  0
VERTEX
  8
0
 10
3.22885
 20
5.0861
 30
0.0
 40
0.0104167
 41
0.0104167
  0
VERTEX
  8
0
 10
2.12283
 20
5.0861
 30
0.0
 40
0.0104167
 41
0.0104167
  0
SEQEND
 8
0
  0
POLYLINE
  8
0
 62
     7
 66
     1
 10
0
 20
0
 30
0.0
 70
     1
 40
0
 41
0
  0
VERTEX
  8
0
 10
3.22885
 20
5.3986
 30
0.0
 40
0
 41
0
  0
VERTEX
  8
0
 10
3.84651
 20
5.3986
 30
0.0
 40
0
 41
0
  0
VERTEX
  8
0
 10
3.84651
 20
4.7736
 30
0.0
 40
0
 41
0
  0
VERTEX
  8
0
 10
3.22885
 20
4.7736
 30
0.0
 40
0
 41
0
  0
VERTEX
  8
0
 10
3.22885
 20
5.3986
 30
0.0
 40
0
 41
0
  0
SEQEND
 8
0
  0
POLYLINE
  8
0
 62
     0
 66
     1
 10
0
 20
0
 30
0.0
 70
     1
 40
0.75
 41
0.75
  0
VERTEX
  8
0
 10
3.22885
 20
5.3986
 30
0.0
 40
0.0104167
 41
0.0104167
  0
VERTEX
  8
0
 10
3.84651
 20
5.3986
 30
0.0
 40
0.0104167
 41
0.0104167
  0
VERTEX
  8
0
 10
3.84651
 20
4.7736
 30
0.0
 40
0.0104167
 41
0.0104167
  0
VERTEX
  8
0
 10
3.22885
 20
4.7736
 30
0.0
 40
0.0104167
 41
0.0104167
  0
VERTEX
  8
0
 10
3.22885
 20
5.3986
 30
0.0
 40
0.0104167
 41
0.0104167
  0
SEQEND
 8
0
  0
POLYLINE
  8
0
 62
     7
 66
     1
 10
0
 20
0
 30
0.0
 70
     1
 40
0
 41
0
  0
VERTEX
  8
0
 10
3.84651
 20
5.3986
 30
0.0
 40
0
 41
0
  0
VERTEX
  8
0
 10
4.39404
 20
5.3986
 30
0.0
 40
0
 41
0
  0
VERTEX
  8
0
 10
4.39404
 20
4.7736
 30
0.0
 40
0
 41
0
  0
VERTEX
  8
0
 10
3.84651
 20
4.7736
 30
0.0
 40
0
 41
0
  0
VERTEX
  8
0
 10
3.84651
 20
5.3986
 30
0.0
 40
0
 41
0
  0
SEQEND
 8
0
  0
POLYLINE
  8
0
 62
     0
 66
     1
 10
0
 20
0
 30
0.0
 70
     1
 40
0.75
 41
0.75
  0
VERTEX
  8
0
 10
3.84651
 20
5.3986
 30
0.0
 40
0.0104167
 41
0.0104167
  0
VERTEX
  8
0
 10
4.39404
 20
5.3986
 30
0.0
 40
0.0104167
 41
0.0104167
  0
VERTEX
  8
0
 10
4.39404
 20
4.7736
 30
0.0
 40
0.0104167
 41
0.0104167
  0
VERTEX
  8
0
 10
3.84651
 20
4.7736
 30
0.0
 40
0.0104167
 41
0.0104167
  0
VERTEX
  8
0
 10
3.84651
 20
5.3986
 30
0.0
 40
0.0104167
 41
0.0104167
  0
SEQEND
 8
0
  0
POLYLINE
  8
0
 62
     253
 66
     1
 10
0
 20
0
 30
0.0
 40
0.75
 41
0.75
  0
VERTEX
  8
0
 10
4.39404
 20
5.0861
 30
0.0
 40
0.0104167
 41
0.0104167
  0
VERTEX
  8
0
 10
3.84657
 20
5.0861
 30
0.0
 40
0.0104167
 41
0.0104167
  0
SEQEND
 8
0
  0
POLYLINE
  8
0
 62
     7
 66
     1
 10
0
 20
0
 30
0.0
 70
     1
 40
0
 41
0
  0
VERTEX
  8
0
 10
10.0306
 20
9.35812
 30
0.0
 40
0
 41
0
  0
VERTEX
  8
0
 10
10.6556
 20
9.35812
 30
0.0
 40
0
 41
0
  0
VERTEX
  8
0
 10
10.6556
 20
9.18713
 30
0.0
 40
0
 41
0
  0
VERTEX
  8
0
 10
10.0306
 20
9.18713
 30
0.0
 40
0
 41
0
  0
VERTEX
  8
0
 10
10.0306
 20
9.35812
 30
0.0
 40
0
 41
0
  0
SEQEND
 8
0
  0
POLYLINE
  8
0
 62
     0
 66
     1
 10
0
 20
0
 30
0.0
 70
     1
 40
1.23143
 41
1.23143
  0
VERTEX
  8
0
 10
10.0306
 20
9.35812
 30
0.0
 40
0.0171032
 41
0.0171032
  0
VERTEX
  8
0
 10
10.0306
 20
9.18713
 30
0.0
 40
0.0171032
 41
0.0171032
  0
VERTEX
  8
0
 10
10.6556
 20
9.18713
 30
0.0
 40
0.0171032
 41
0.0171032
  0
VERTEX
  8
0
 10
10.6556
 20
9.35812
 30
0.0
 40
0.0171032
 41
0.0171032
  0
VERTEX
  8
0
 10
10.0306
 20
9.35812
 30
0.0
 40
0.0171032
 41
0.0171032
  0
SEQEND
 8
0
  0
POLYLINE
  8
0
 62
     7
 66
     1
 10
0
 20
0
 30
0.0
 70
     1
 40
0
 41
0
  0
VERTEX
  8
0
 10
10.0319
 20
9.18713
 30
0.0
 40
0
 41
0
  0
VERTEX
  8
0
 10
10.6569
 20
9.18713
 30
0.0
 40
0
 41
0
  0
VERTEX
  8
0
 10
10.6569
 20
8.56213
 30
0.0
 40
0
 41
0
  0
VERTEX
  8
0
 10
10.0319
 20
8.56213
 30
0.0
 40
0
 41
0
  0
VERTEX
  8
0
 10
10.0319
 20
9.18713
 30
0.0
 40
0
 41
0
  0
SEQEND
 8
0
  0
POLYLINE
  8
0
 62
     0
 66
     1
 10
0
 20
0
 30
0.0
 70
     1
 40
0.75
 41
0.75
  0
VERTEX
  8
0
 10
10.0319
 20
9.18713
 30
0.0
 40
0.0104167
 41
0.0104167
  0
VERTEX
  8
0
 10
10.0319
 20
8.56213
 30
0.0
 40
0.0104167
 41
0.0104167
  0
VERTEX
  8
0
 10
10.6569
 20
8.56213
 30
0.0
 40
0.0104167
 41
0.0104167
  0
VERTEX
  8
0
 10
10.6569
 20
9.18713
 30
0.0
 40
0.0104167
 41
0.0104167
  0
VERTEX
  8
0
 10
10.0319
 20
9.18713
 30
0.0
 40
0.0104167
 41
0.0104167
  0
SEQEND
 8
0
  0
POLYLINE
  8
0
 62
     0
 66
     1
 10
0
 20
0
 30
0.0
 40
0.75
 41
0.75
  0
VERTEX
  8
0
 10
10.6569
 20
9.18713
 30
0.0
 40
0.0104167
 41
0.0104167
  0
VERTEX
  8
0
 10
10.2423
 20
8.87358
 30
0.0
 40
0.0104167
 41
0.0104167
  0
VERTEX
  8
0
 10
10.4548
 20
8.87358
 30
0.0
 40
0.0104167
 41
0.0104167
  0
VERTEX
  8
0
 10
10.0319
 20
8.56315
 30
0.0
 40
0.0104167
 41
0.0104167
  0
SEQEND
 8
0
  0
POLYLINE
  8
0
 62
     7
 66
     1
 10
0
 20
0
 30
0.0
 70
     1
 40
0
 41
0
  0
VERTEX
  8
0
 10
10.0324
 20
8.56213
 30
0.0
 40
0
 41
0
  0
VERTEX
  8
0
 10
10.6574
 20
8.56213
 30
0.0
 40
0
 41
0
  0
VERTEX
  8
0
 10
10.6574
 20
7.89399
 30
0.0
 40
0
 41
0
  0
VERTEX
  8
0
 10
10.0324
 20
7.89399
 30
0.0
 40
0
 41
0
  0
VERTEX
  8
0
 10
10.0324
 20
8.56213
 30
0.0
 40
0
 41
0
  0
SEQEND
 8
0
  0
POLYLINE
  8
0
 62
     0
 66
     1
 10
0
 20
0
 30
0.0
 70
     1
 40
0.80175
 41
0.80175
  0
VERTEX
  8
0
 10
10.0324
 20
8.56213
 30
0.0
 40
0.0111354
 41
0.0111354
  0
VERTEX
  8
0
 10
10.0324
 20
7.89399
 30
0.0
 40
0.0111354
 41
0.0111354
  0
VERTEX
  8
0
 10
10.6574
 20
7.89399
 30
0.0
 40
0.0111354
 41
0.0111354
  0
VERTEX
  8
0
 10
10.6574
 20
8.56213
 30
0.0
 40
0.0111354
 41
0.0111354
  0
VERTEX
  8
0
 10
10.0324
 20
8.56213
 30
0.0
 40
0.0111354
 41
0.0111354
  0
SEQEND
 8
0
  0
POLYLINE
  8
0
 62
     0
 66
     1
 10
0
 20
0
 30
0.0
 40
0.80175
 41
0.80175
  0
VERTEX
  8
0
 10
10.6574
 20
8.56213
 30
0.0
 40
0.0111354
 41
0.0111354
  0
VERTEX
  8
0
 10
10.2709
 20
8.22803
 30
0.0
 40
0.0111354
 41
0.0111354
  0
VERTEX
  8
0
 10
10.4584
 20
8.22803
 30
0.0
 40
0.0111354
 41
0.0111354
  0
VERTEX
  8
0
 10
10.0709
 20
7.89399
 30
0.0
 40
0.0111354
 41
0.0111354
  0
SEQEND
 8
0
  0
POLYLINE
  8
0
 62
     7
 66
     1
 10
0
 20
0
 30
0.0
 70
     1
 40
0
 41
0
  0
VERTEX
  8
0
 10
10.0324
 20
8.56213
 30
0.0
 40
0
 41
0
  0
VERTEX
  8
0
 10
10.0741
 20
8.56213
 30
0.0
 40
0
 41
0
  0
VERTEX
  8
0
 10
10.0741
 20
7.89399
 30
0.0
 40
0
 41
0
  0
VERTEX
  8
0
 10
10.0324
 20
7.89399
 30
0.0
 40
0
 41
0
  0
VERTEX
  8
0
 10
10.0324
 20
8.56213
 30
0.0
 40
0
 41
0
  0
SEQEND
 8
0
  0
POLYLINE
  8
0
 62
     0
 66
     1
 10
0
 20
0
 30
0.0
 70
     1
 40
0.80175
 41
0.80175
  0
VERTEX
  8
0
 10
10.0324
 20
8.56213
 30
0.0
 40
0.0111354
 41
0.0111354
  0
VERTEX
  8
0
 10
10.0324
 20
7.89399
 30
0.0
 40
0.0111354
 41
0.0111354
  0
VERTEX
  8
0
 10
10.0741
 20
7.89399
 30
0.0
 40
0.0111354
 41
0.0111354
  0
VERTEX
  8
0
 10
10.0741
 20
8.56213
 30
0.0
 40
0.0111354
 41
0.0111354
  0
VERTEX
  8
0
 10
10.0324
 20
8.56213
 30
0.0
 40
0.0111354
 41
0.0111354
  0
SEQEND
 8
0
  0
POLYLINE
  8
0
 62
     7
 66
     1
 10
0
 20
0
 30
0.0
 70
     1
 40
0
 41
0
  0
VERTEX
  8
0
 10
8.74169
 20
5.48394
 30
0.0
 40
0
 41
0
  0
VERTEX
  8
0
 10
9.36669
 20
5.48394
 30
0.0
 40
0
 41
0
  0
VERTEX
  8
0
 10
9.36669
 20
4.85894
 30
0.0
 40
0
 41
0
  0
VERTEX
  8
0
 10
8.74169
 20
4.85894
 30
0.0
 40
0
 41
0
  0
VERTEX
  8
0
 10
8.74169
 20
5.48394
 30
0.0
 40
0
 41
0
  0
SEQEND
 8
0
  0
POLYLINE
  8
0
 62
     0
 66
     1
 10
0
 20
0
 30
0.0
 70
     1
 40
0.75
 41
0.75
  0
VERTEX
  8
0
 10
8.74169
 20
5.48394
 30
0.0
 40
0.0104167
 41
0.0104167
  0
VERTEX
  8
0
 10
9.36669
 20
5.48394
 30
0.0
 40
0.0104167
 41
0.0104167
  0
VERTEX
  8
0
 10
9.36669
 20
4.85894
 30
0.0
 40
0.0104167
 41
0.0104167
  0
VERTEX
  8
0
 10
8.74169
 20
4.85894
 30
0.0
 40
0.0104167
 41
0.0104167
  0
VERTEX
  8
0
 10
8.74169
 20
5.48394
 30
0.0
 40
0.0104167
 41
0.0104167
  0
SEQEND
 8
0
  0
POLYLINE
  8
0
 62
     7
 66
     1
 10
0
 20
0
 30
0.0
 70
     1
 40
0
 41
0
  0
VERTEX
  8
0
 10
10.6574
 20
7.89399
 30
0.0
 40
0
 41
0
  0
VERTEX
  8
0
 10
10.0324
 20
7.89399
 30
0.0
 40
0
 41
0
  0
VERTEX
  8
0
 10
10.0324
 20
5.48432
 30
0.0
 40
0
 41
0
  0
VERTEX
  8
0
 10
9.36675
 20
5.48432
 30
0.0
 40
0
 41
0
  0
VERTEX
  8
0
 10
9.36675
 20
4.859
 30
0.0
 40
0
 41
0
  0
VERTEX
  8
0
 10
10.6574
 20
4.859
 30
0.0
 40
0
 41
0
  0
VERTEX
  8
0
 10
10.6574
 20
7.89399
 30
0.0
 40
0
 41
0
  0
SEQEND
 8
0
  0
POLYLINE
  8
0
 62
     0
 66
     1
 10
0
 20
0
 30
0.0
 70
     1
 40
0.75
 41
0.75
  0
VERTEX
  8
0
 10
10.6574
 20
7.89399
 30
0.0
 40
0.0104167
 41
0.0104167
  0
VERTEX
  8
0
 10
10.0324
 20
7.89399
 30
0.0
 40
0.0104167
 41
0.0104167
  0
VERTEX
  8
0
 10
10.0324
 20
5.48432
 30
0.0
 40
0.0104167
 41
0.0104167
  0
VERTEX
  8
0
 10
9.36675
 20
5.48432
 30
0.0
 40
0.0104167
 41
0.0104167
  0
VERTEX
  8
0
 10
9.36675
 20
4.859
 30
0.0
 40
0.0104167
 41
0.0104167
  0
VERTEX
  8
0
 10
10.6574
 20
4.859
 30
0.0
 40
0.0104167
 41
0.0104167
  0
VERTEX
  8
0
 10
10.6574
 20
7.89399
 30
0.0
 40
0.0104167
 41
0.0104167
  0
SEQEND
 8
0
  0
POLYLINE
  8
0
 62
     7
 66
     1
 10
0
 20
0
 30
0.0
 70
     1
 40
0
 41
0
  0
VERTEX
  8
0
 10
10.0855
 20
6.09538
 30
0.0
 40
0
 41
0
  0
VERTEX
  8
0
 10
10.5543
 20
6.09538
 30
0.0
 40
0
 41
0
  0
VERTEX
  8
0
 10
10.5543
 20
5.91092
 30
0.0
 40
0
 41
0
  0
VERTEX
  8
0
 10
10.0855
 20
5.91092
 30
0.0
 40
0
 41
0
  0
VERTEX
  8
0
 10
10.0855
 20
6.09538
 30
0.0
 40
0
 41
0
  0
SEQEND
 8
0
  0
POLYLINE
  8
0
 62
     0
 66
     1
 10
0
 20
0
 30
0.0
 70
     1
 40
0.75
 41
0.75
  0
VERTEX
  8
0
 10
10.0855
 20
6.09538
 30
0.0
 40
0.0104167
 41
0.0104167
  0
VERTEX
  8
0
 10
10.0855
 20
5.91092
 30
0.0
 40
0.0104167
 41
0.0104167
  0
VERTEX
  8
0
 10
10.5543
 20
5.91092
 30
0.0
 40
0.0104167
 41
0.0104167
  0
VERTEX
  8
0
 10
10.5543
 20
6.09538
 30
0.0
 40
0.0104167
 41
0.0104167
  0
VERTEX
  8
0
 10
10.0855
 20
6.09538
 30
0.0
 40
0.0104167
 41
0.0104167
  0
SEQEND
 8
0
  0
POLYLINE
  8
0
 62
     7
 66
     1
 10
0
 20
0
 30
0.0
 70
     1
 40
0
 41
0
  0
VERTEX
  8
0
 10
10.0845
 20
5.88319
 30
0.0
 40
0
 41
0
  0
VERTEX
  8
0
 10
10.5532
 20
5.88319
 30
0.0
 40
0
 41
0
  0
VERTEX
  8
0
 10
10.5532
 20
5.54183
 30
0.0
 40
0
 41
0
  0
VERTEX
  8
0
 10
10.0845
 20
5.54183
 30
0.0
 40
0
 41
0
  0
VERTEX
  8
0
 10
10.0845
 20
5.88319
 30
0.0
 40
0
 41
0
  0
SEQEND
 8
0
  0
POLYLINE
  8
0
 62
     0
 66
     1
 10
0
 20
0
 30
0.0
 70
     1
 40
0.75
 41
0.75
  0
VERTEX
  8
0
 10
10.0845
 20
5.88319
 30
0.0
 40
0.0104167
 41
0.0104167
  0
VERTEX
  8
0
 10
10.0845
 20
5.54183
 30
0.0
 40
0.0104167
 41
0.0104167
  0
VERTEX
  8
0
 10
10.5532
 20
5.54183
 30
0.0
 40
0.0104167
 41
0.0104167
  0
VERTEX
  8
0
 10
10.5532
 20
5.88319
 30
0.0
 40
0.0104167
 41
0.0104167
  0
VERTEX
  8
0
 10
10.0845
 20
5.88319
 30
0.0
 40
0.0104167
 41
0.0104167
  0
SEQEND
 8
0
  0
POLYLINE
  8
0
 62
     7
 66
     1
 10
0
 20
0
 30
0.0
 70
     1
 40
0
 41
0
  0
VERTEX
  8
0
 10
10.3188
 20
5.96669
 30
0.0
 40
0
 41
0
  0
VERTEX
  8
0
 10
10.3124
 20
5.96669
 30
0.0
 40
0
 41
0
  0
VERTEX
  8
0
 10
10.293
 20
5.97738
 30
0.0
 40
0
 41
0
  0
VERTEX
  8
0
 10
10.2824
 20
5.99675
 30
0.0
 40
0
 41
0
  0
VERTEX
  8
0
 10
10.2824
 20
6.00315
 30
0.0
 40
0
 41
0
  0
VERTEX
  8
0
 10
10.2824
 20
6.0096
 30
0.0
 40
0
 41
0
  0
VERTEX
  8
0
 10
10.293
 20
6.02897
 30
0.0
 40
0
 41
0
  0
VERTEX
  8
0
 10
10.3124
 20
6.03961
 30
0.0
 40
0
 41
0
  0
VERTEX
  8
0
 10
10.3188
 20
6.03961
 30
0.0
 40
0
 41
0
  0
VERTEX
  8
0
 10
10.3253
 20
6.03961
 30
0.0
 40
0
 41
0
  0
VERTEX
  8
0
 10
10.3446
 20
6.02897
 30
0.0
 40
0
 41
0
  0
VERTEX
  8
0
 10
10.3553
 20
6.0096
 30
0.0
 40
0
 41
0
  0
VERTEX
  8
0
 10
10.3553
 20
6.00315
 30
0.0
 40
0
 41
0
  0
VERTEX
  8
0
 10
10.3553
 20
5.99675
 30
0.0
 40
0
 41
0
  0
VERTEX
  8
0
 10
10.3446
 20
5.97738
 30
0.0
 40
0
 41
0
  0
VERTEX
  8
0
 10
10.3253
 20
5.96669
 30
0.0
 40
0
 41
0
  0
VERTEX
  8
0
 10
10.3188
 20
5.96669
 30
0.0
 40
0
 41
0
  0
SEQEND
 8
0
  0
POLYLINE
  8
0
 62
     0
 66
     1
 10
0
 20
0
 30
0.0
 70
     1
 40
0.6
 41
0.6
  0
VERTEX
  8
0
 10
10.3188
 20
5.96669
 30
0.0
 40
0.00833333
 41
0.00833333
  0
VERTEX
  8
0
 10
10.3124
 20
5.96669
 30
0.0
 40
0.00833333
 41
0.00833333
  0
VERTEX
  8
0
 10
10.293
 20
5.97738
 30
0.0
 40
0.00833333
 41
0.00833333
  0
VERTEX
  8
0
 10
10.2824
 20
5.99675
 30
0.0
 40
0.00833333
 41
0.00833333
  0
VERTEX
  8
0
 10
10.2824
 20
6.00315
 30
0.0
 40
0.00833333
 41
0.00833333
  0
VERTEX
  8
0
 10
10.2824
 20
6.0096
 30
0.0
 40
0.00833333
 41
0.00833333
  0
VERTEX
  8
0
 10
10.293
 20
6.02897
 30
0.0
 40
0.00833333
 41
0.00833333
  0
VERTEX
  8
0
 10
10.3124
 20
6.03961
 30
0.0
 40
0.00833333
 41
0.00833333
  0
VERTEX
  8
0
 10
10.3188
 20
6.03961
 30
0.0
 40
0.00833333
 41
0.00833333
  0
VERTEX
  8
0
 10
10.3253
 20
6.03961
 30
0.0
 40
0.00833333
 41
0.00833333
  0
VERTEX
  8
0
 10
10.3446
 20
6.02897
 30
0.0
 40
0.00833333
 41
0.00833333
  0
VERTEX
  8
0
 10
10.3553
 20
6.0096
 30
0.0
 40
0.00833333
 41
0.00833333
  0
VERTEX
  8
0
 10
10.3553
 20
6.00315
 30
0.0
 40
0.00833333
 41
0.00833333
  0
VERTEX
  8
0
 10
10.3553
 20
5.99675
 30
0.0
 40
0.00833333
 41
0.00833333
  0
VERTEX
  8
0
 10
10.3446
 20
5.97738
 30
0.0
 40
0.00833333
 41
0.00833333
  0
VERTEX
  8
0
 10
10.3253
 20
5.96669
 30
0.0
 40
0.00833333
 41
0.00833333
  0
VERTEX
  8
0
 10
10.3188
 20
5.96669
 30
0.0
 40
0.00833333
 41
0.00833333
  0
SEQEND
 8
0
  0
POLYLINE
  8
0
 62
     7
 66
     1
 10
0
 20
0
 30
0.0
 70
     1
 40
0
 41
0
  0
VERTEX
  8
0
 10
10.3188
 20
5.68067
 30
0.0
 40
0
 41
0
  0
VERTEX
  8
0
 10
10.3124
 20
5.68067
 30
0.0
 40
0
 41
0
  0
VERTEX
  8
0
 10
10.293
 20
5.69135
 30
0.0
 40
0
 41
0
  0
VERTEX
  8
0
 10
10.2824
 20
5.71072
 30
0.0
 40
0
 41
0
  0
VERTEX
  8
0
 10
10.2824
 20
5.71712
 30
0.0
 40
0
 41
0
  0
VERTEX
  8
0
 10
10.2824
 20
5.72358
 30
0.0
 40
0
 41
0
  0
VERTEX
  8
0
 10
10.293
 20
5.74294
 30
0.0
 40
0
 41
0
  0
VERTEX
  8
0
 10
10.3124
 20
5.75358
 30
0.0
 40
0
 41
0
  0
VERTEX
  8
0
 10
10.3188
 20
5.75358
 30
0.0
 40
0
 41
0
  0
VERTEX
  8
0
 10
10.3253
 20
5.75358
 30
0.0
 40
0
 41
0
  0
VERTEX
  8
0
 10
10.3446
 20
5.74294
 30
0.0
 40
0
 41
0
  0
VERTEX
  8
0
 10
10.3553
 20
5.72358
 30
0.0
 40
0
 41
0
  0
VERTEX
  8
0
 10
10.3553
 20
5.71712
 30
0.0
 40
0
 41
0
  0
VERTEX
  8
0
 10
10.3553
 20
5.71072
 30
0.0
 40
0
 41
0
  0
VERTEX
  8
0
 10
10.3446
 20
5.69135
 30
0.0
 40
0
 41
0
  0
VERTEX
  8
0
 10
10.3253
 20
5.68067
 30
0.0
 40
0
 41
0
  0
VERTEX
  8
0
 10
10.3188
 20
5.68067
 30
0.0
 40
0
 41
0
  0
SEQEND
 8
0
  0
POLYLINE
  8
0
 62
     0
 66
     1
 10
0
 20
0
 30
0.0
 70
     1
 40
0.6
 41
0.6
  0
VERTEX
  8
0
 10
10.3188
 20
5.68067
 30
0.0
 40
0.00833333
 41
0.00833333
  0
VERTEX
  8
0
 10
10.3124
 20
5.68067
 30
0.0
 40
0.00833333
 41
0.00833333
  0
VERTEX
  8
0
 10
10.293
 20
5.69135
 30
0.0
 40
0.00833333
 41
0.00833333
  0
VERTEX
  8
0
 10
10.2824
 20
5.71072
 30
0.0
 40
0.00833333
 41
0.00833333
  0
VERTEX
  8
0
 10
10.2824
 20
5.71712
 30
0.0
 40
0.00833333
 41
0.00833333
  0
VERTEX
  8
0
 10
10.2824
 20
5.72358
 30
0.0
 40
0.00833333
 41
0.00833333
  0
VERTEX
  8
0
 10
10.293
 20
5.74294
 30
0.0
 40
0.00833333
 41
0.00833333
  0
VERTEX
  8
0
 10
10.3124
 20
5.75358
 30
0.0
 40
0.00833333
 41
0.00833333
  0
VERTEX
  8
0
 10
10.3188
 20
5.75358
 30
0.0
 40
0.00833333
 41
0.00833333
  0
VERTEX
  8
0
 10
10.3253
 20
5.75358
 30
0.0
 40
0.00833333
 41
0.00833333
  0
VERTEX
  8
0
 10
10.3446
 20
5.74294
 30
0.0
 40
0.00833333
 41
0.00833333
  0
VERTEX
  8
0
 10
10.3553
 20
5.72358
 30
0.0
 40
0.00833333
 41
0.00833333
  0
VERTEX
  8
0
 10
10.3553
 20
5.71712
 30
0.0
 40
0.00833333
 41
0.00833333
  0
VERTEX
  8
0
 10
10.3553
 20
5.71072
 30
0.0
 40
0.00833333
 41
0.00833333
  0
VERTEX
  8
0
 10
10.3446
 20
5.69135
 30
0.0
 40
0.00833333
 41
0.00833333
  0
VERTEX
  8
0
 10
10.3253
 20
5.68067
 30
0.0
 40
0.00833333
 41
0.00833333
  0
VERTEX
  8
0
 10
10.3188
 20
5.68067
 30
0.0
 40
0.00833333
 41
0.00833333
  0
SEQEND
 8
0
  0
POLYLINE
  8
0
 62
     7
 66
     1
 10
0
 20
0
 30
0.0
 70
     1
 40
0
 41
0
  0
VERTEX
  8
0
 10
10.3188
 20
5.98232
 30
0.0
 40
0
 41
0
  0
VERTEX
  8
0
 10
10.3152
 20
5.98232
 30
0.0
 40
0
 41
0
  0
VERTEX
  8
0
 10
10.3041
 20
5.98844
 30
0.0
 40
0
 41
0
  0
VERTEX
  8
0
 10
10.298
 20
5.99951
 30
0.0
 40
0
 41
0
  0
VERTEX
  8
0
 10
10.298
 20
6.00315
 30
0.0
 40
0
 41
0
  0
VERTEX
  8
0
 10
10.298
 20
6.00683
 30
0.0
 40
0
 41
0
  0
VERTEX
  8
0
 10
10.3041
 20
6.0179
 30
0.0
 40
0
 41
0
  0
VERTEX
  8
0
 10
10.3152
 20
6.02399
 30
0.0
 40
0
 41
0
  0
VERTEX
  8
0
 10
10.3188
 20
6.02399
 30
0.0
 40
0
 41
0
  0
VERTEX
  8
0
 10
10.3225
 20
6.02399
 30
0.0
 40
0
 41
0
  0
VERTEX
  8
0
 10
10.3336
 20
6.0179
 30
0.0
 40
0
 41
0
  0
VERTEX
  8
0
 10
10.3397
 20
6.00683
 30
0.0
 40
0
 41
0
  0
VERTEX
  8
0
 10
10.3397
 20
6.00315
 30
0.0
 40
0
 41
0
  0
VERTEX
  8
0
 10
10.3397
 20
5.99951
 30
0.0
 40
0
 41
0
  0
VERTEX
  8
0
 10
10.3336
 20
5.98844
 30
0.0
 40
0
 41
0
  0
VERTEX
  8
0
 10
10.3225
 20
5.98232
 30
0.0
 40
0
 41
0
  0
VERTEX
  8
0
 10
10.3188
 20
5.98232
 30
0.0
 40
0
 41
0
  0
SEQEND
 8
0
  0
POLYLINE
  8
0
 62
     0
 66
     1
 10
0
 20
0
 30
0.0
 70
     1
 40
0.6
 41
0.6
  0
VERTEX
  8
0
 10
10.3188
 20
5.98232
 30
0.0
 40
0.00833333
 41
0.00833333
  0
VERTEX
  8
0
 10
10.3152
 20
5.98232
 30
0.0
 40
0.00833333
 41
0.00833333
  0
VERTEX
  8
0
 10
10.3041
 20
5.98844
 30
0.0
 40
0.00833333
 41
0.00833333
  0
VERTEX
  8
0
 10
10.298
 20
5.99951
 30
0.0
 40
0.00833333
 41
0.00833333
  0
VERTEX
  8
0
 10
10.298
 20
6.00315
 30
0.0
 40
0.00833333
 41
0.00833333
  0
VERTEX
  8
0
 10
10.298
 20
6.00683
 30
0.0
 40
0.00833333
 41
0.00833333
  0
VERTEX
  8
0
 10
10.3041
 20
6.0179
 30
0.0
 40
0.00833333
 41
0.00833333
  0
VERTEX
  8
0
 10
10.3152
 20
6.02399
 30
0.0
 40
0.00833333
 41
0.00833333
  0
VERTEX
  8
0
 10
10.3188
 20
6.02399
 30
0.0
 40
0.00833333
 41
0.00833333
  0
VERTEX
  8
0
 10
10.3225
 20
6.02399
 30
0.0
 40
0.00833333
 41
0.00833333
  0
VERTEX
  8
0
 10
10.3336
 20
6.0179
 30
0.0
 40
0.00833333
 41
0.00833333
  0
VERTEX
  8
0
 10
10.3397
 20
6.00683
 30
0.0
 40
0.00833333
 41
0.00833333
  0
VERTEX
  8
0
 10
10.3397
 20
6.00315
 30
0.0
 40
0.00833333
 41
0.00833333
  0
VERTEX
  8
0
 10
10.3397
 20
5.99951
 30
0.0
 40
0.00833333
 41
0.00833333
  0
VERTEX
  8
0
 10
10.3336
 20
5.98844
 30
0.0
 40
0.00833333
 41
0.00833333
  0
VERTEX
  8
0
 10
10.3225
 20
5.98232
 30
0.0
 40
0.00833333
 41
0.00833333
  0
VERTEX
  8
0
 10
10.3188
 20
5.98232
 30
0.0
 40
0.00833333
 41
0.00833333
  0
SEQEND
 8
0
  0
POLYLINE
  8
0
 62
     7
 66
     1
 10
0
 20
0
 30
0.0
 70
     1
 40
0
 41
0
  0
VERTEX
  8
0
 10
10.3188
 20
5.69629
 30
0.0
 40
0
 41
0
  0
VERTEX
  8
0
 10
10.3152
 20
5.69629
 30
0.0
 40
0
 41
0
  0
VERTEX
  8
0
 10
10.3041
 20
5.70242
 30
0.0
 40
0
 41
0
  0
VERTEX
  8
0
 10
10.298
 20
5.71349
 30
0.0
 40
0
 41
0
  0
VERTEX
  8
0
 10
10.298
 20
5.71712
 30
0.0
 40
0
 41
0
  0
VERTEX
  8
0
 10
10.298
 20
5.72081
 30
0.0
 40
0
 41
0
  0
VERTEX
  8
0
 10
10.3041
 20
5.73188
 30
0.0
 40
0
 41
0
  0
VERTEX
  8
0
 10
10.3152
 20
5.73796
 30
0.0
 40
0
 41
0
  0
VERTEX
  8
0
 10
10.3188
 20
5.73796
 30
0.0
 40
0
 41
0
  0
VERTEX
  8
0
 10
10.3225
 20
5.73796
 30
0.0
 40
0
 41
0
  0
VERTEX
  8
0
 10
10.3336
 20
5.73188
 30
0.0
 40
0
 41
0
  0
VERTEX
  8
0
 10
10.3397
 20
5.72081
 30
0.0
 40
0
 41
0
  0
VERTEX
  8
0
 10
10.3397
 20
5.71712
 30
0.0
 40
0
 41
0
  0
VERTEX
  8
0
 10
10.3397
 20
5.71349
 30
0.0
 40
0
 41
0
  0
VERTEX
  8
0
 10
10.3336
 20
5.70242
 30
0.0
 40
0
 41
0
  0
VERTEX
  8
0
 10
10.3225
 20
5.69629
 30
0.0
 40
0
 41
0
  0
VERTEX
  8
0
 10
10.3188
 20
5.69629
 30
0.0
 40
0
 41
0
  0
SEQEND
 8
0
  0
POLYLINE
  8
0
 62
     0
 66
     1
 10
0
 20
0
 30
0.0
 70
     1
 40
0.6
 41
0.6
  0
VERTEX
  8
0
 10
10.3188
 20
5.69629
 30
0.0
 40
0.00833333
 41
0.00833333
  0
VERTEX
  8
0
 10
10.3152
 20
5.69629
 30
0.0
 40
0.00833333
 41
0.00833333
  0
VERTEX
  8
0
 10
10.3041
 20
5.70242
 30
0.0
 40
0.00833333
 41
0.00833333
  0
VERTEX
  8
0
 10
10.298
 20
5.71349
 30
0.0
 40
0.00833333
 41
0.00833333
  0
VERTEX
  8
0
 10
10.298
 20
5.71712
 30
0.0
 40
0.00833333
 41
0.00833333
  0
VERTEX
  8
0
 10
10.298
 20
5.72081
 30
0.0
 40
0.00833333
 41
0.00833333
  0
VERTEX
  8
0
 10
10.3041
 20
5.73188
 30
0.0
 40
0.00833333
 41
0.00833333
  0
VERTEX
  8
0
 10
10.3152
 20
5.73796
 30
0.0
 40
0.00833333
 41
0.00833333
  0
VERTEX
  8
0
 10
10.3188
 20
5.73796
 30
0.0
 40
0.00833333
 41
0.00833333
  0
VERTEX
  8
0
 10
10.3225
 20
5.73796
 30
0.0
 40
0.00833333
 41
0.00833333
  0
VERTEX
  8
0
 10
10.3336
 20
5.73188
 30
0.0
 40
0.00833333
 41
0.00833333
  0
VERTEX
  8
0
 10
10.3397
 20
5.72081
 30
0.0
 40
0.00833333
 41
0.00833333
  0
VERTEX
  8
0
 10
10.3397
 20
5.71712
 30
0.0
 40
0.00833333
 41
0.00833333
  0
VERTEX
  8
0
 10
10.3397
 20
5.71349
 30
0.0
 40
0.00833333
 41
0.00833333
  0
VERTEX
  8
0
 10
10.3336
 20
5.70242
 30
0.0
 40
0.00833333
 41
0.00833333
  0
VERTEX
  8
0
 10
10.3225
 20
5.69629
 30
0.0
 40
0.00833333
 41
0.00833333
  0
VERTEX
  8
0
 10
10.3188
 20
5.69629
 30
0.0
 40
0.00833333
 41
0.00833333
  0
SEQEND
 8
0
  0
POLYLINE
  8
0
 62
     7
 66
     1
 10
0
 20
0
 30
0.0
 70
     1
 40
0
 41
0
  0
VERTEX
  8
0
 10
10.4605
 20
5.84631
 30
0.0
 40
0
 41
0
  0
VERTEX
  8
0
 10
10.6063
 20
5.84631
 30
0.0
 40
0
 41
0
  0
VERTEX
  8
0
 10
10.6063
 20
5.78381
 30
0.0
 40
0
 41
0
  0
VERTEX
  8
0
 10
10.4605
 20
5.78381
 30
0.0
 40
0
 41
0
  0
VERTEX
  8
0
 10
10.4605
 20
5.84631
 30
0.0
 40
0
 41
0
  0
SEQEND
 8
0
  0
POLYLINE
  8
0
 62
     0
 66
     1
 10
0
 20
0
 30
0.0
 70
     1
 40
0.75
 41
0.75
  0
VERTEX
  8
0
 10
10.4605
 20
5.84631
 30
0.0
 40
0.0104167
 41
0.0104167
  0
VERTEX
  8
0
 10
10.4605
 20
5.78381
 30
0.0
 40
0.0104167
 41
0.0104167
  0
VERTEX
  8
0
 10
10.6063
 20
5.78381
 30
0.0
 40
0.0104167
 41
0.0104167
  0
VERTEX
  8
0
 10
10.6063
 20
5.84631
 30
0.0
 40
0.0104167
 41
0.0104167
  0
VERTEX
  8
0
 10
10.4605
 20
5.84631
 30
0.0
 40
0.0104167
 41
0.0104167
  0
SEQEND
 8
0
  0
POLYLINE
  8
0
 62
     7
 66
     1
 10
0
 20
0
 30
0.0
 70
     1
 40
0
 41
0
  0
VERTEX
  8
0
 10
10.0324
 20
6.76654
 30
0.0
 40
0
 41
0
  0
VERTEX
  8
0
 10
10.6574
 20
6.76654
 30
0.0
 40
0
 41
0
  0
VERTEX
  8
0
 10
10.6574
 20
6.14154
 30
0.0
 40
0
 41
0
  0
VERTEX
  8
0
 10
10.0324
 20
6.14154
 30
0.0
 40
0
 41
0
  0
VERTEX
  8
0
 10
10.0324
 20
6.76654
 30
0.0
 40
0
 41
0
  0
SEQEND
 8
0
  0
POLYLINE
  8
0
 62
     0
 66
     1
 10
0
 20
0
 30
0.0
 70
     1
 40
0.75
 41
0.75
  0
VERTEX
  8
0
 10
10.0324
 20
6.76654
 30
0.0
 40
0.0104167
 41
0.0104167
  0
VERTEX
  8
0
 10
10.0324
 20
6.14154
 30
0.0
 40
0.0104167
 41
0.0104167
  0
VERTEX
  8
0
 10
10.6574
 20
6.14154
 30
0.0
 40
0.0104167
 41
0.0104167
  0
VERTEX
  8
0
 10
10.6574
 20
6.76654
 30
0.0
 40
0.0104167
 41
0.0104167
  0
VERTEX
  8
0
 10
10.0324
 20
6.76654
 30
0.0
 40
0.0104167
 41
0.0104167
  0
SEQEND
 8
0
  0
POLYLINE
  8
0
 62
     0
 66
     1
 10
0
 20
0
 30
0.0
 40
0.75
 41
0.75
  0
VERTEX
  8
0
 10
10.6574
 20
6.76654
 30
0.0
 40
0.0104167
 41
0.0104167
  0
VERTEX
  8
0
 10
10.2428
 20
6.45296
 30
0.0
 40
0.0104167
 41
0.0104167
  0
VERTEX
  8
0
 10
10.4553
 20
6.45296
 30
0.0
 40
0.0104167
 41
0.0104167
  0
VERTEX
  8
0
 10
10.0324
 20
6.14258
 30
0.0
 40
0.0104167
 41
0.0104167
  0
SEQEND
 8
0
  0
POLYLINE
  8
0
 62
     7
 66
     1
 10
0
 20
0
 30
0.0
 70
     1
 40
0
 41
0
  0
VERTEX
  8
0
 10
10.0532
 20
7.28603
 30
0.0
 40
0
 41
0
  0
VERTEX
  8
0
 10
10.6366
 20
7.28603
 30
0.0
 40
0
 41
0
  0
VERTEX
  8
0
 10
10.6366
 20
6.7901
 30
0.0
 40
0
 41
0
  0
VERTEX
  8
0
 10
10.0532
 20
6.7901
 30
0.0
 40
0
 41
0
  0
VERTEX
  8
0
 10
10.0532
 20
7.28603
 30
0.0
 40
0
 41
0
  0
SEQEND
 8
0
  0
POLYLINE
  8
0
 62
     0
 66
     1
 10
0
 20
0
 30
0.0
 70
     1
 40
0.75
 41
0.75
  0
VERTEX
  8
0
 10
10.0532
 20
7.28603
 30
0.0
 40
0.0104167
 41
0.0104167
  0
VERTEX
  8
0
 10
10.0532
 20
6.7901
 30
0.0
 40
0.0104167
 41
0.0104167
  0
VERTEX
  8
0
 10
10.6366
 20
6.7901
 30
0.0
 40
0.0104167
 41
0.0104167
  0
VERTEX
  8
0
 10
10.6366
 20
7.28603
 30
0.0
 40
0.0104167
 41
0.0104167
  0
VERTEX
  8
0
 10
10.0532
 20
7.28603
 30
0.0
 40
0.0104167
 41
0.0104167
  0
SEQEND
 8
0
  0
POLYLINE
  8
0
 62
     7
 66
     1
 10
0
 20
0
 30
0.0
 70
     1
 40
0
 41
0
  0
VERTEX
  8
0
 10
10.4907
 20
7.08094
 30
0.0
 40
0
 41
0
  0
VERTEX
  8
0
 10
10.4826
 20
7.08094
 30
0.0
 40
0
 41
0
  0
VERTEX
  8
0
 10
10.4582
 20
7.08751
 30
0.0
 40
0
 41
0
  0
VERTEX
  8
0
 10
10.4318
 20
7.10536
 30
0.0
 40
0
 41
0
  0
VERTEX
  8
0
 10
10.4139
 20
7.13189
 30
0.0
 40
0
 41
0
  0
VERTEX
  8
0
 10
10.4074
 20
7.15619
 30
0.0
 40
0
 41
0
  0
VERTEX
  8
0
 10
10.4074
 20
7.16428
 30
0.0
 40
0
 41
0
  0
VERTEX
  8
0
 10
10.4074
 20
7.17242
 30
0.0
 40
0
 41
0
  0
VERTEX
  8
0
 10
10.4139
 20
7.19678
 30
0.0
 40
0
 41
0
  0
VERTEX
  8
0
 10
10.4318
 20
7.22325
 30
0.0
 40
0
 41
0
  0
VERTEX
  8
0
 10
10.4582
 20
7.2411
 30
0.0
 40
0
 41
0
  0
VERTEX
  8
0
 10
10.4826
 20
7.24761
 30
0.0
 40
0
 41
0
  0
VERTEX
  8
0
 10
10.4907
 20
7.24761
 30
0.0
 40
0
 41
0
  0
VERTEX
  8
0
 10
10.4988
 20
7.24761
 30
0.0
 40
0
 41
0
  0
VERTEX
  8
0
 10
10.5231
 20
7.2411
 30
0.0
 40
0
 41
0
  0
VERTEX
  8
0
 10
10.5496
 20
7.22325
 30
0.0
 40
0
 41
0
  0
VERTEX
  8
0
 10
10.5675
 20
7.19678
 30
0.0
 40
0
 41
0
  0
VERTEX
  8
0
 10
10.5741
 20
7.17242
 30
0.0
 40
0
 41
0
  0
VERTEX
  8
0
 10
10.5741
 20
7.16428
 30
0.0
 40
0
 41
0
  0
VERTEX
  8
0
 10
10.5741
 20
7.15619
 30
0.0
 40
0
 41
0
  0
VERTEX
  8
0
 10
10.5675
 20
7.13189
 30
0.0
 40
0
 41
0
  0
VERTEX
  8
0
 10
10.5496
 20
7.10536
 30
0.0
 40
0
 41
0
  0
VERTEX
  8
0
 10
10.5231
 20
7.08751
 30
0.0
 40
0
 41
0
  0
VERTEX
  8
0
 10
10.4988
 20
7.08094
 30
0.0
 40
0
 41
0
  0
VERTEX
  8
0
 10
10.4907
 20
7.08094
 30
0.0
 40
0
 41
0
  0
SEQEND
 8
0
  0
POLYLINE
  8
0
 62
     0
 66
     1
 10
0
 20
0
 30
0.0
 70
     1
 40
0.75
 41
0.75
  0
VERTEX
  8
0
 10
10.4907
 20
7.08094
 30
0.0
 40
0.0104167
 41
0.0104167
  0
VERTEX
  8
0
 10
10.4826
 20
7.08094
 30
0.0
 40
0.0104167
 41
0.0104167
  0
VERTEX
  8
0
 10
10.4582
 20
7.08751
 30
0.0
 40
0.0104167
 41
0.0104167
  0
VERTEX
  8
0
 10
10.4318
 20
7.10536
 30
0.0
 40
0.0104167
 41
0.0104167
  0
VERTEX
  8
0
 10
10.4139
 20
7.13189
 30
0.0
 40
0.0104167
 41
0.0104167
  0
VERTEX
  8
0
 10
10.4074
 20
7.15619
 30
0.0
 40
0.0104167
 41
0.0104167
  0
VERTEX
  8
0
 10
10.4074
 20
7.16428
 30
0.0
 40
0.0104167
 41
0.0104167
  0
VERTEX
  8
0
 10
10.4074
 20
7.17242
 30
0.0
 40
0.0104167
 41
0.0104167
  0
VERTEX
  8
0
 10
10.4139
 20
7.19678
 30
0.0
 40
0.0104167
 41
0.0104167
  0
VERTEX
  8
0
 10
10.4318
 20
7.22325
 30
0.0
 40
0.0104167
 41
0.0104167
  0
VERTEX
  8
0
 10
10.4582
 20
7.2411
 30
0.0
 40
0.0104167
 41
0.0104167
  0
VERTEX
  8
0
 10
10.4826
 20
7.24761
 30
0.0
 40
0.0104167
 41
0.0104167
  0
VERTEX
  8
0
 10
10.4907
 20
7.24761
 30
0.0
 40
0.0104167
 41
0.0104167
  0
VERTEX
  8
0
 10
10.4988
 20
7.24761
 30
0.0
 40
0.0104167
 41
0.0104167
  0
VERTEX
  8
0
 10
10.5231
 20
7.2411
 30
0.0
 40
0.0104167
 41
0.0104167
  0
VERTEX
  8
0
 10
10.5496
 20
7.22325
 30
0.0
 40
0.0104167
 41
0.0104167
  0
VERTEX
  8
0
 10
10.5675
 20
7.19678
 30
0.0
 40
0.0104167
 41
0.0104167
  0
VERTEX
  8
0
 10
10.5741
 20
7.17242
 30
0.0
 40
0.0104167
 41
0.0104167
  0
VERTEX
  8
0
 10
10.5741
 20
7.16428
 30
0.0
 40
0.0104167
 41
0.0104167
  0
VERTEX
  8
0
 10
10.5741
 20
7.15619
 30
0.0
 40
0.0104167
 41
0.0104167
  0
VERTEX
  8
0
 10
10.5675
 20
7.13189
 30
0.0
 40
0.0104167
 41
0.0104167
  0
VERTEX
  8
0
 10
10.5496
 20
7.10536
 30
0.0
 40
0.0104167
 41
0.0104167
  0
VERTEX
  8
0
 10
10.5231
 20
7.08751
 30
0.0
 40
0.0104167
 41
0.0104167
  0
VERTEX
  8
0
 10
10.4988
 20
7.08094
 30
0.0
 40
0.0104167
 41
0.0104167
  0
VERTEX
  8
0
 10
10.4907
 20
7.08094
 30
0.0
 40
0.0104167
 41
0.0104167
  0
SEQEND
 8
0
  0
POLYLINE
  8
0
 62
     7
 66
     1
 10
0
 20
0
 30
0.0
 70
     1
 40
0
 41
0
  0
VERTEX
  8
0
 10
10.4907
 20
6.83149
 30
0.0
 40
0
 41
0
  0
VERTEX
  8
0
 10
10.4826
 20
6.83149
 30
0.0
 40
0
 41
0
  0
VERTEX
  8
0
 10
10.4582
 20
6.83806
 30
0.0
 40
0
 41
0
  0
VERTEX
  8
0
 10
10.4318
 20
6.8559
 30
0.0
 40
0
 41
0
  0
VERTEX
  8
0
 10
10.4139
 20
6.88243
 30
0.0
 40
0
 41
0
  0
VERTEX
  8
0
 10
10.4074
 20
6.90674
 30
0.0
 40
0
 41
0
  0
VERTEX
  8
0
 10
10.4074
 20
6.91482
 30
0.0
 40
0
 41
0
  0
VERTEX
  8
0
 10
10.4074
 20
6.92296
 30
0.0
 40
0
 41
0
  0
VERTEX
  8
0
 10
10.4139
 20
6.94732
 30
0.0
 40
0
 41
0
  0
VERTEX
  8
0
 10
10.4318
 20
6.97379
 30
0.0
 40
0
 41
0
  0
VERTEX
  8
0
 10
10.4582
 20
6.99164
 30
0.0
 40
0
 41
0
  0
VERTEX
  8
0
 10
10.4826
 20
6.99815
 30
0.0
 40
0
 41
0
  0
VERTEX
  8
0
 10
10.4907
 20
6.99815
 30
0.0
 40
0
 41
0
  0
VERTEX
  8
0
 10
10.4988
 20
6.99815
 30
0.0
 40
0
 41
0
  0
VERTEX
  8
0
 10
10.5231
 20
6.99164
 30
0.0
 40
0
 41
0
  0
VERTEX
  8
0
 10
10.5496
 20
6.97379
 30
0.0
 40
0
 41
0
  0
VERTEX
  8
0
 10
10.5675
 20
6.94732
 30
0.0
 40
0
 41
0
  0
VERTEX
  8
0
 10
10.5741
 20
6.92296
 30
0.0
 40
0
 41
0
  0
VERTEX
  8
0
 10
10.5741
 20
6.91482
 30
0.0
 40
0
 41
0
  0
VERTEX
  8
0
 10
10.5741
 20
6.90674
 30
0.0
 40
0
 41
0
  0
VERTEX
  8
0
 10
10.5675
 20
6.88243
 30
0.0
 40
0
 41
0
  0
VERTEX
  8
0
 10
10.5496
 20
6.8559
 30
0.0
 40
0
 41
0
  0
VERTEX
  8
0
 10
10.5231
 20
6.83806
 30
0.0
 40
0
 41
0
  0
VERTEX
  8
0
 10
10.4988
 20
6.83149
 30
0.0
 40
0
 41
0
  0
VERTEX
  8
0
 10
10.4907
 20
6.83149
 30
0.0
 40
0
 41
0
  0
SEQEND
 8
0
  0
POLYLINE
  8
0
 62
     0
 66
     1
 10
0
 20
0
 30
0.0
 70
     1
 40
0.75
 41
0.75
  0
VERTEX
  8
0
 10
10.4907
 20
6.83149
 30
0.0
 40
0.0104167
 41
0.0104167
  0
VERTEX
  8
0
 10
10.4826
 20
6.83149
 30
0.0
 40
0.0104167
 41
0.0104167
  0
VERTEX
  8
0
 10
10.4582
 20
6.83806
 30
0.0
 40
0.0104167
 41
0.0104167
  0
VERTEX
  8
0
 10
10.4318
 20
6.8559
 30
0.0
 40
0.0104167
 41
0.0104167
  0
VERTEX
  8
0
 10
10.4139
 20
6.88243
 30
0.0
 40
0.0104167
 41
0.0104167
  0
VERTEX
  8
0
 10
10.4074
 20
6.90674
 30
0.0
 40
0.0104167
 41
0.0104167
  0
VERTEX
  8
0
 10
10.4074
 20
6.91482
 30
0.0
 40
0.0104167
 41
0.0104167
  0
VERTEX
  8
0
 10
10.4074
 20
6.92296
 30
0.0
 40
0.0104167
 41
0.0104167
  0
VERTEX
  8
0
 10
10.4139
 20
6.94732
 30
0.0
 40
0.0104167
 41
0.0104167
  0
VERTEX
  8
0
 10
10.4318
 20
6.97379
 30
0.0
 40
0.0104167
 41
0.0104167
  0
VERTEX
  8
0
 10
10.4582
 20
6.99164
 30
0.0
 40
0.0104167
 41
0.0104167
  0
VERTEX
  8
0
 10
10.4826
 20
6.99815
 30
0.0
 40
0.0104167
 41
0.0104167
  0
VERTEX
  8
0
 10
10.4907
 20
6.99815
 30
0.0
 40
0.0104167
 41
0.0104167
  0
VERTEX
  8
0
 10
10.4988
 20
6.99815
 30
0.0
 40
0.0104167
 41
0.0104167
  0
VERTEX
  8
0
 10
10.5231
 20
6.99164
 30
0.0
 40
0.0104167
 41
0.0104167
  0
VERTEX
  8
0
 10
10.5496
 20
6.97379
 30
0.0
 40
0.0104167
 41
0.0104167
  0
VERTEX
  8
0
 10
10.5675
 20
6.94732
 30
0.0
 40
0.0104167
 41
0.0104167
  0
VERTEX
  8
0
 10
10.5741
 20
6.92296
 30
0.0
 40
0.0104167
 41
0.0104167
  0
VERTEX
  8
0
 10
10.5741
 20
6.91482
 30
0.0
 40
0.0104167
 41
0.0104167
  0
VERTEX
  8
0
 10
10.5741
 20
6.90674
 30
0.0
 40
0.0104167
 41
0.0104167
  0
VERTEX
  8
0
 10
10.5675
 20
6.88243
 30
0.0
 40
0.0104167
 41
0.0104167
  0
VERTEX
  8
0
 10
10.5496
 20
6.8559
 30
0.0
 40
0.0104167
 41
0.0104167
  0
VERTEX
  8
0
 10
10.5231
 20
6.83806
 30
0.0
 40
0.0104167
 41
0.0104167
  0
VERTEX
  8
0
 10
10.4988
 20
6.83149
 30
0.0
 40
0.0104167
 41
0.0104167
  0
VERTEX
  8
0
 10
10.4907
 20
6.83149
 30
0.0
 40
0.0104167
 41
0.0104167
  0
SEQEND
 8
0
  0
POLYLINE
  8
0
 62
     7
 66
     1
 10
0
 20
0
 30
0.0
 70
     1
 40
0
 41
0
  0
VERTEX
  8
0
 10
10.1991
 20
7.08094
 30
0.0
 40
0
 41
0
  0
VERTEX
  8
0
 10
10.1909
 20
7.08094
 30
0.0
 40
0
 41
0
  0
VERTEX
  8
0
 10
10.1666
 20
7.08751
 30
0.0
 40
0
 41
0
  0
VERTEX
  8
0
 10
10.1401
 20
7.10536
 30
0.0
 40
0
 41
0
  0
VERTEX
  8
0
 10
10.1222
 20
7.13189
 30
0.0
 40
0
 41
0
  0
VERTEX
  8
0
 10
10.1157
 20
7.15619
 30
0.0
 40
0
 41
0
  0
VERTEX
  8
0
 10
10.1157
 20
7.16428
 30
0.0
 40
0
 41
0
  0
VERTEX
  8
0
 10
10.1157
 20
7.17242
 30
0.0
 40
0
 41
0
  0
VERTEX
  8
0
 10
10.1222
 20
7.19678
 30
0.0
 40
0
 41
0
  0
VERTEX
  8
0
 10
10.1401
 20
7.22325
 30
0.0
 40
0
 41
0
  0
VERTEX
  8
0
 10
10.1666
 20
7.2411
 30
0.0
 40
0
 41
0
  0
VERTEX
  8
0
 10
10.1909
 20
7.24761
 30
0.0
 40
0
 41
0
  0
VERTEX
  8
0
 10
10.1991
 20
7.24761
 30
0.0
 40
0
 41
0
  0
VERTEX
  8
0
 10
10.2071
 20
7.24761
 30
0.0
 40
0
 41
0
  0
VERTEX
  8
0
 10
10.2314
 20
7.2411
 30
0.0
 40
0
 41
0
  0
VERTEX
  8
0
 10
10.258
 20
7.22325
 30
0.0
 40
0
 41
0
  0
VERTEX
  8
0
 10
10.2758
 20
7.19678
 30
0.0
 40
0
 41
0
  0
VERTEX
  8
0
 10
10.2824
 20
7.17242
 30
0.0
 40
0
 41
0
  0
VERTEX
  8
0
 10
10.2824
 20
7.16428
 30
0.0
 40
0
 41
0
  0
VERTEX
  8
0
 10
10.2824
 20
7.15619
 30
0.0
 40
0
 41
0
  0
VERTEX
  8
0
 10
10.2758
 20
7.13189
 30
0.0
 40
0
 41
0
  0
VERTEX
  8
0
 10
10.258
 20
7.10536
 30
0.0
 40
0
 41
0
  0
VERTEX
  8
0
 10
10.2314
 20
7.08751
 30
0.0
 40
0
 41
0
  0
VERTEX
  8
0
 10
10.2071
 20
7.08094
 30
0.0
 40
0
 41
0
  0
VERTEX
  8
0
 10
10.1991
 20
7.08094
 30
0.0
 40
0
 41
0
  0
SEQEND
 8
0
  0
POLYLINE
  8
0
 62
     0
 66
     1
 10
0
 20
0
 30
0.0
 70
     1
 40
0.75
 41
0.75
  0
VERTEX
  8
0
 10
10.1991
 20
7.08094
 30
0.0
 40
0.0104167
 41
0.0104167
  0
VERTEX
  8
0
 10
10.1909
 20
7.08094
 30
0.0
 40
0.0104167
 41
0.0104167
  0
VERTEX
  8
0
 10
10.1666
 20
7.08751
 30
0.0
 40
0.0104167
 41
0.0104167
  0
VERTEX
  8
0
 10
10.1401
 20
7.10536
 30
0.0
 40
0.0104167
 41
0.0104167
  0
VERTEX
  8
0
 10
10.1222
 20
7.13189
 30
0.0
 40
0.0104167
 41
0.0104167
  0
VERTEX
  8
0
 10
10.1157
 20
7.15619
 30
0.0
 40
0.0104167
 41
0.0104167
  0
VERTEX
  8
0
 10
10.1157
 20
7.16428
 30
0.0
 40
0.0104167
 41
0.0104167
  0
VERTEX
  8
0
 10
10.1157
 20
7.17242
 30
0.0
 40
0.0104167
 41
0.0104167
  0
VERTEX
  8
0
 10
10.1222
 20
7.19678
 30
0.0
 40
0.0104167
 41
0.0104167
  0
VERTEX
  8
0
 10
10.1401
 20
7.22325
 30
0.0
 40
0.0104167
 41
0.0104167
  0
VERTEX
  8
0
 10
10.1666
 20
7.2411
 30
0.0
 40
0.0104167
 41
0.0104167
  0
VERTEX
  8
0
 10
10.1909
 20
7.24761
 30
0.0
 40
0.0104167
 41
0.0104167
  0
VERTEX
  8
0
 10
10.1991
 20
7.24761
 30
0.0
 40
0.0104167
 41
0.0104167
  0
VERTEX
  8
0
 10
10.2071
 20
7.24761
 30
0.0
 40
0.0104167
 41
0.0104167
  0
VERTEX
  8
0
 10
10.2314
 20
7.2411
 30
0.0
 40
0.0104167
 41
0.0104167
  0
VERTEX
  8
0
 10
10.258
 20
7.22325
 30
0.0
 40
0.0104167
 41
0.0104167
  0
VERTEX
  8
0
 10
10.2758
 20
7.19678
 30
0.0
 40
0.0104167
 41
0.0104167
  0
VERTEX
  8
0
 10
10.2824
 20
7.17242
 30
0.0
 40
0.0104167
 41
0.0104167
  0
VERTEX
  8
0
 10
10.2824
 20
7.16428
 30
0.0
 40
0.0104167
 41
0.0104167
  0
VERTEX
  8
0
 10
10.2824
 20
7.15619
 30
0.0
 40
0.0104167
 41
0.0104167
  0
VERTEX
  8
0
 10
10.2758
 20
7.13189
 30
0.0
 40
0.0104167
 41
0.0104167
  0
VERTEX
  8
0
 10
10.258
 20
7.10536
 30
0.0
 40
0.0104167
 41
0.0104167
  0
VERTEX
  8
0
 10
10.2314
 20
7.08751
 30
0.0
 40
0.0104167
 41
0.0104167
  0
VERTEX
  8
0
 10
10.2071
 20
7.08094
 30
0.0
 40
0.0104167
 41
0.0104167
  0
VERTEX
  8
0
 10
10.1991
 20
7.08094
 30
0.0
 40
0.0104167
 41
0.0104167
  0
SEQEND
 8
0
  0
POLYLINE
  8
0
 62
     7
 66
     1
 10
0
 20
0
 30
0.0
 70
     1
 40
0
 41
0
  0
VERTEX
  8
0
 10
10.1991
 20
6.83149
 30
0.0
 40
0
 41
0
  0
VERTEX
  8
0
 10
10.1909
 20
6.83149
 30
0.0
 40
0
 41
0
  0
VERTEX
  8
0
 10
10.1666
 20
6.83806
 30
0.0
 40
0
 41
0
  0
VERTEX
  8
0
 10
10.1401
 20
6.8559
 30
0.0
 40
0
 41
0
  0
VERTEX
  8
0
 10
10.1222
 20
6.88243
 30
0.0
 40
0
 41
0
  0
VERTEX
  8
0
 10
10.1157
 20
6.90674
 30
0.0
 40
0
 41
0
  0
VERTEX
  8
0
 10
10.1157
 20
6.91482
 30
0.0
 40
0
 41
0
  0
VERTEX
  8
0
 10
10.1157
 20
6.92296
 30
0.0
 40
0
 41
0
  0
VERTEX
  8
0
 10
10.1222
 20
6.94732
 30
0.0
 40
0
 41
0
  0
VERTEX
  8
0
 10
10.1401
 20
6.97379
 30
0.0
 40
0
 41
0
  0
VERTEX
  8
0
 10
10.1666
 20
6.99164
 30
0.0
 40
0
 41
0
  0
VERTEX
  8
0
 10
10.1909
 20
6.99815
 30
0.0
 40
0
 41
0
  0
VERTEX
  8
0
 10
10.1991
 20
6.99815
 30
0.0
 40
0
 41
0
  0
VERTEX
  8
0
 10
10.2071
 20
6.99815
 30
0.0
 40
0
 41
0
  0
VERTEX
  8
0
 10
10.2314
 20
6.99164
 30
0.0
 40
0
 41
0
  0
VERTEX
  8
0
 10
10.258
 20
6.97379
 30
0.0
 40
0
 41
0
  0
VERTEX
  8
0
 10
10.2758
 20
6.94732
 30
0.0
 40
0
 41
0
  0
VERTEX
  8
0
 10
10.2824
 20
6.92296
 30
0.0
 40
0
 41
0
  0
VERTEX
  8
0
 10
10.2824
 20
6.91482
 30
0.0
 40
0
 41
0
  0
VERTEX
  8
0
 10
10.2824
 20
6.90674
 30
0.0
 40
0
 41
0
  0
VERTEX
  8
0
 10
10.2758
 20
6.88243
 30
0.0
 40
0
 41
0
  0
VERTEX
  8
0
 10
10.258
 20
6.8559
 30
0.0
 40
0
 41
0
  0
VERTEX
  8
0
 10
10.2314
 20
6.83806
 30
0.0
 40
0
 41
0
  0
VERTEX
  8
0
 10
10.2071
 20
6.83149
 30
0.0
 40
0
 41
0
  0
VERTEX
  8
0
 10
10.1991
 20
6.83149
 30
0.0
 40
0
 41
0
  0
SEQEND
 8
0
  0
POLYLINE
  8
0
 62
     0
 66
     1
 10
0
 20
0
 30
0.0
 70
     1
 40
0.75
 41
0.75
  0
VERTEX
  8
0
 10
10.1991
 20
6.83149
 30
0.0
 40
0.0104167
 41
0.0104167
  0
VERTEX
  8
0
 10
10.1909
 20
6.83149
 30
0.0
 40
0.0104167
 41
0.0104167
  0
VERTEX
  8
0
 10
10.1666
 20
6.83806
 30
0.0
 40
0.0104167
 41
0.0104167
  0
VERTEX
  8
0
 10
10.1401
 20
6.8559
 30
0.0
 40
0.0104167
 41
0.0104167
  0
VERTEX
  8
0
 10
10.1222
 20
6.88243
 30
0.0
 40
0.0104167
 41
0.0104167
  0
VERTEX
  8
0
 10
10.1157
 20
6.90674
 30
0.0
 40
0.0104167
 41
0.0104167
  0
VERTEX
  8
0
 10
10.1157
 20
6.91482
 30
0.0
 40
0.0104167
 41
0.0104167
  0
VERTEX
  8
0
 10
10.1157
 20
6.92296
 30
0.0
 40
0.0104167
 41
0.0104167
  0
VERTEX
  8
0
 10
10.1222
 20
6.94732
 30
0.0
 40
0.0104167
 41
0.0104167
  0
VERTEX
  8
0
 10
10.1401
 20
6.97379
 30
0.0
 40
0.0104167
 41
0.0104167
  0
VERTEX
  8
0
 10
10.1666
 20
6.99164
 30
0.0
 40
0.0104167
 41
0.0104167
  0
VERTEX
  8
0
 10
10.1909
 20
6.99815
 30
0.0
 40
0.0104167
 41
0.0104167
  0
VERTEX
  8
0
 10
10.1991
 20
6.99815
 30
0.0
 40
0.0104167
 41
0.0104167
  0
VERTEX
  8
0
 10
10.2071
 20
6.99815
 30
0.0
 40
0.0104167
 41
0.0104167
  0
VERTEX
  8
0
 10
10.2314
 20
6.99164
 30
0.0
 40
0.0104167
 41
0.0104167
  0
VERTEX
  8
0
 10
10.258
 20
6.97379
 30
0.0
 40
0.0104167
 41
0.0104167
  0
VERTEX
  8
0
 10
10.2758
 20
6.94732
 30
0.0
 40
0.0104167
 41
0.0104167
  0
VERTEX
  8
0
 10
10.2824
 20
6.92296
 30
0.0
 40
0.0104167
 41
0.0104167
  0
VERTEX
  8
0
 10
10.2824
 20
6.91482
 30
0.0
 40
0.0104167
 41
0.0104167
  0
VERTEX
  8
0
 10
10.2824
 20
6.90674
 30
0.0
 40
0.0104167
 41
0.0104167
  0
VERTEX
  8
0
 10
10.2758
 20
6.88243
 30
0.0
 40
0.0104167
 41
0.0104167
  0
VERTEX
  8
0
 10
10.258
 20
6.8559
 30
0.0
 40
0.0104167
 41
0.0104167
  0
VERTEX
  8
0
 10
10.2314
 20
6.83806
 30
0.0
 40
0.0104167
 41
0.0104167
  0
VERTEX
  8
0
 10
10.2071
 20
6.83149
 30
0.0
 40
0.0104167
 41
0.0104167
  0
VERTEX
  8
0
 10
10.1991
 20
6.83149
 30
0.0
 40
0.0104167
 41
0.0104167
  0
SEQEND
 8
0
  0
POLYLINE
  8
0
 62
     0
 66
     1
 10
0
 20
0
 30
0.0
 70
     1
 40
0.75
 41
0.75
  0
VERTEX
  8
0
 10
10.6574
 20
7.89399
 30
0.0
 40
0.0104167
 41
0.0104167
  0
VERTEX
  8
0
 10
10.6574
 20
4.859
 30
0.0
 40
0.0104167
 41
0.0104167
  0
VERTEX
  8
0
 10
9.36675
 20
4.859
 30
0.0
 40
0.0104167
 41
0.0104167
  0
VERTEX
  8
0
 10
9.36675
 20
5.13564
 30
0.0
 40
0.0104167
 41
0.0104167
  0
VERTEX
  8
0
 10
10.3303
 20
5.13564
 30
0.0
 40
0.0104167
 41
0.0104167
  0
VERTEX
  8
0
 10
10.3303
 20
7.89399
 30
0.0
 40
0.0104167
 41
0.0104167
  0
VERTEX
  8
0
 10
10.6574
 20
7.89399
 30
0.0
 40
0.0104167
 41
0.0104167
  0
SEQEND
 8
0
  0
POLYLINE
  8
0
 62
     0
 66
     1
 10
0
 20
0
 30
0.0
 70
     1
 40
0
 41
0
  0
VERTEX
  8
0
 10
6.73665
 20
11.4339
 30
0.0
 40
0
 41
0
  0
VERTEX
  8
0
 10
6.73665
 20
11.4208
 30
0.0
 40
0
 41
0
  0
VERTEX
  8
0
 10
6.72607
 20
11.3815
 30
0.0
 40
0
 41
0
  0
VERTEX
  8
0
 10
6.69721
 20
11.3387
 30
0.0
 40
0
 41
0
  0
VERTEX
  8
0
 10
6.6544
 20
11.3098
 30
0.0
 40
0
 41
0
  0
VERTEX
  8
0
 10
6.61513
 20
11.2993
 30
0.0
 40
0
 41
0
  0
VERTEX
  8
0
 10
6.60206
 20
11.2993
 30
0.0
 40
0
 41
0
  0
VERTEX
  8
0
 10
6.58892
 20
11.2993
 30
0.0
 40
0
 41
0
  0
VERTEX
  8
0
 10
6.54964
 20
11.3098
 30
0.0
 40
0
 41
0
  0
VERTEX
  8
0
 10
6.50683
 20
11.3387
 30
0.0
 40
0
 41
0
  0
VERTEX
  8
0
 10
6.47803
 20
11.3815
 30
0.0
 40
0
 41
0
  0
VERTEX
  8
0
 10
6.46744
 20
11.4208
 30
0.0
 40
0
 41
0
  0
VERTEX
  8
0
 10
6.46744
 20
11.4339
 30
0.0
 40
0
 41
0
  0
VERTEX
  8
0
 10
6.46744
 20
11.447
 30
0.0
 40
0
 41
0
  0
VERTEX
  8
0
 10
6.47803
 20
11.4863
 30
0.0
 40
0
 41
0
  0
VERTEX
  8
0
 10
6.50683
 20
11.5291
 30
0.0
 40
0
 41
0
  0
VERTEX
  8
0
 10
6.54964
 20
11.5579
 30
0.0
 40
0
 41
0
  0
VERTEX
  8
0
 10
6.58892
 20
11.5685
 30
0.0
 40
0
 41
0
  0
VERTEX
  8
0
 10
6.60206
 20
11.5685
 30
0.0
 40
0
 41
0
  0
VERTEX
  8
0
 10
6.61513
 20
11.5685
 30
0.0
 40
0
 41
0
  0
VERTEX
  8
0
 10
6.6544
 20
11.5579
 30
0.0
 40
0
 41
0
  0
VERTEX
  8
0
 10
6.69721
 20
11.5291
 30
0.0
 40
0
 41
0
  0
VERTEX
  8
0
 10
6.72607
 20
11.4863
 30
0.0
 40
0
 41
0
  0
VERTEX
  8
0
 10
6.73665
 20
11.447
 30
0.0
 40
0
 41
0
  0
VERTEX
  8
0
 10
6.73665
 20
11.4339
 30
0.0
 40
0
 41
0
  0
SEQEND
 8
0
  0
POLYLINE
  8
0
 62
     5
 66
     1
 10
0
 20
0
 30
0.0
 70
     1
 40
0.75
 41
0.75
  0
VERTEX
  8
0
 10
1.37999
 20
4.62776
 30
0.0
 40
0.0104167
 41
0.0104167
  0
VERTEX
  8
0
 10
4.3826
 20
4.62776
 30
0.0
 40
0.0104167
 41
0.0104167
  0
VERTEX
  8
0
 10
4.3826
 20
1.14144
 30
0.0
 40
0.0104167
 41
0.0104167
  0
VERTEX
  8
0
 10
1.37999
 20
1.14144
 30
0.0
 40
0.0104167
 41
0.0104167
  0
VERTEX
  8
0
 10
1.37999
 20
4.62776
 30
0.0
 40
0.0104167
 41
0.0104167
  0
SEQEND
 8
0
  0
ENDSEC
  0
EOF
