  0
SECTION
  2
HEADER
  9
$ACADVER
  1
AC1009
  9
$FILLMODE
 70
 0
  9
$SPLFRAME
 70
 1
  9
$EXTMIN
 10
0
 20
0
 30
0.0
  9
$EXTMAX
 10
41.6667
 20
41.6667
 30
0.0
  0
ENDSEC
  0
SECTION
  2
TABLES
  0
TABLE
  2
LAYER
 70
1
  0
LAYER
  2
0
 70
     0
 62
     7
  6
CONTINUOUS
  0
ENDTAB
  0
ENDSEC
  0
SECTION
  2
ENTITIES
  0
POLYLINE
  8
0
 62
     7
 66
     1
 10
0
 20
0
 30
0.0
 70
     1
 40
0
 41
0
  0
VERTEX
  8
0
 10
3.87082
 20
9.43767
 30
0.0
 40
0
 41
0
  0
VERTEX
  8
0
 10
6.65554
 20
9.43767
 30
0.0
 40
0
 41
0
  0
VERTEX
  8
0
 10
6.65554
 20
7.86757
 30
0.0
 40
0
 41
0
  0
VERTEX
  8
0
 10
3.87082
 20
7.86757
 30
0.0
 40
0
 41
0
  0
VERTEX
  8
0
 10
3.87082
 20
9.43767
 30
0.0
 40
0
 41
0
  0
SEQEND
 8
0
  0
POLYLINE
  8
0
 62
     0
 66
     1
 10
0
 20
0
 30
0.0
 70
     1
 40
0.15
 41
0.15
  0
VERTEX
  8
0
 10
3.87082
 20
9.43767
 30
0.0
 40
0.00208333
 41
0.00208333
  0
VERTEX
  8
0
 10
6.65554
 20
9.43767
 30
0.0
 40
0.00208333
 41
0.00208333
  0
VERTEX
  8
0
 10
6.65554
 20
7.86757
 30
0.0
 40
0.00208333
 41
0.00208333
  0
VERTEX
  8
0
 10
3.87082
 20
7.86757
 30
0.0
 40
0.00208333
 41
0.00208333
  0
VERTEX
  8
0
 10
3.87082
 20
9.43767
 30
0.0
 40
0.00208333
 41
0.00208333
  0
SEQEND
 8
0
  0
TEXT
  8
0
 62
     0
 10
4.57296
 20
8.77418
 30
0.0
 40
0.34375
  1
P
 50
0
  0
TEXT
  8
0
 62
     0
 10
4.77196
 20
8.77418
 30
0.0
 40
0.34375
  1
ARVEKE
 50
0
  0
POLYLINE
  8
0
 62
     7
 66
     1
 10
0
 20
0
 30
0.0
 70
     1
 40
0
 41
0
  0
VERTEX
  8
0
 10
0.831054
 20
7.52165
 30
0.0
 40
0
 41
0
  0
VERTEX
  8
0
 10
6.347
 20
7.52165
 30
0.0
 40
0
 41
0
  0
VERTEX
  8
0
 10
6.347
 20
3.62765
 30
0.0
 40
0
 41
0
  0
VERTEX
  8
0
 10
0.831054
 20
3.62765
 30
0.0
 40
0
 41
0
  0
VERTEX
  8
0
 10
0.831054
 20
7.52165
 30
0.0
 40
0
 41
0
  0
SEQEND
 8
0
  0
POLYLINE
  8
0
 62
     7
 66
     1
 10
0
 20
0
 30
0.0
 70
     1
 40
0.15
 41
0.15
  0
VERTEX
  8
0
 10
0.831054
 20
7.52165
 30
0.0
 40
0.00208333
 41
0.00208333
  0
VERTEX
  8
0
 10
6.347
 20
7.52165
 30
0.0
 40
0.00208333
 41
0.00208333
  0
VERTEX
  8
0
 10
6.347
 20
3.62765
 30
0.0
 40
0.00208333
 41
0.00208333
  0
VERTEX
  8
0
 10
0.831054
 20
3.62765
 30
0.0
 40
0.00208333
 41
0.00208333
  0
VERTEX
  8
0
 10
0.831054
 20
7.52165
 30
0.0
 40
0.00208333
 41
0.00208333
  0
SEQEND
 8
0
  0
TEXT
  8
0
 62
     0
 10
3.38292
 20
5.50953
 30
0.0
 40
0.34375
  1
OH
 50
0
  0
POLYLINE
  8
0
 62
     7
 66
     1
 10
0
 20
0
 30
0.0
 70
     1
 40
0
 41
0
  0
VERTEX
  8
0
 10
6.347
 20
7.52165
 30
0.0
 40
0
 41
0
  0
VERTEX
  8
0
 10
9.62739
 20
7.52165
 30
0.0
 40
0
 41
0
  0
VERTEX
  8
0
 10
9.62739
 20
3.62765
 30
0.0
 40
0
 41
0
  0
VERTEX
  8
0
 10
6.347
 20
3.62765
 30
0.0
 40
0
 41
0
  0
VERTEX
  8
0
 10
6.347
 20
7.52165
 30
0.0
 40
0
 41
0
  0
SEQEND
 8
0
  0
POLYLINE
  8
0
 62
     7
 66
     1
 10
0
 20
0
 30
0.0
 70
     1
 40
0.15
 41
0.15
  0
VERTEX
  8
0
 10
6.347
 20
7.52165
 30
0.0
 40
0.00208333
 41
0.00208333
  0
VERTEX
  8
0
 10
9.62739
 20
7.52165
 30
0.0
 40
0.00208333
 41
0.00208333
  0
VERTEX
  8
0
 10
9.62739
 20
3.62765
 30
0.0
 40
0.00208333
 41
0.00208333
  0
VERTEX
  8
0
 10
6.347
 20
3.62765
 30
0.0
 40
0.00208333
 41
0.00208333
  0
VERTEX
  8
0
 10
6.347
 20
7.52165
 30
0.0
 40
0.00208333
 41
0.00208333
  0
SEQEND
 8
0
  0
TEXT
  8
0
 62
     0
 10
7.88481
 20
5.68635
 30
0.0
 40
0.34375
  1
MH
 50
0
  0
POLYLINE
  8
0
 62
     7
 66
     1
 10
0
 20
0
 30
0.0
 70
     1
 40
0
 41
0
  0
VERTEX
  8
0
 10
4.84782
 20
1.85613
 30
0.0
 40
0
 41
0
  0
VERTEX
  8
0
 10
4.11051
 20
1.85613
 30
0.0
 40
0
 41
0
  0
VERTEX
  8
0
 10
4.11051
 20
0.149957
 30
0.0
 40
0
 41
0
  0
VERTEX
  8
0
 10
0.831054
 20
0.149957
 30
0.0
 40
0
 41
0
  0
VERTEX
  8
0
 10
0.831054
 20
3.48182
 30
0.0
 40
0
 41
0
  0
VERTEX
  8
0
 10
4.84782
 20
3.48182
 30
0.0
 40
0
 41
0
  0
VERTEX
  8
0
 10
4.84782
 20
1.85613
 30
0.0
 40
0
 41
0
  0
SEQEND
 8
0
  0
POLYLINE
  8
0
 62
     7
 66
     1
 10
0
 20
0
 30
0.0
 70
     1
 40
0.15
 41
0.15
  0
VERTEX
  8
0
 10
4.84782
 20
1.85613
 30
0.0
 40
0.00208333
 41
0.00208333
  0
VERTEX
  8
0
 10
4.11051
 20
1.85613
 30
0.0
 40
0.00208333
 41
0.00208333
  0
VERTEX
  8
0
 10
4.11051
 20
0.149957
 30
0.0
 40
0.00208333
 41
0.00208333
  0
VERTEX
  8
0
 10
0.831054
 20
0.149957
 30
0.0
 40
0.00208333
 41
0.00208333
  0
VERTEX
  8
0
 10
0.831054
 20
3.48182
 30
0.0
 40
0.00208333
 41
0.00208333
  0
VERTEX
  8
0
 10
4.84782
 20
3.48182
 30
0.0
 40
0.00208333
 41
0.00208333
  0
VERTEX
  8
0
 10
4.84782
 20
1.85613
 30
0.0
 40
0.00208333
 41
0.00208333
  0
SEQEND
 8
0
  0
TEXT
  8
0
 62
     0
 10
1.8905
 20
2.05301
 30
0.0
 40
0.34375
  1
K
 50
0
  0
POLYLINE
  8
0
 62
     7
 66
     1
 10
0
 20
0
 30
0.0
 70
     1
 40
0
 41
0
  0
VERTEX
  8
0
 10
9.62739
 20
1.54204
 30
0.0
 40
0
 41
0
  0
VERTEX
  8
0
 10
8.12478
 20
1.54204
 30
0.0
 40
0
 41
0
  0
VERTEX
  8
0
 10
8.12478
 20
1.85613
 30
0.0
 40
0
 41
0
  0
VERTEX
  8
0
 10
4.92074
 20
1.85613
 30
0.0
 40
0
 41
0
  0
VERTEX
  8
0
 10
4.92074
 20
3.48182
 30
0.0
 40
0
 41
0
  0
VERTEX
  8
0
 10
9.62739
 20
3.48182
 30
0.0
 40
0
 41
0
  0
VERTEX
  8
0
 10
9.62739
 20
1.54204
 30
0.0
 40
0
 41
0
  0
SEQEND
 8
0
  0
POLYLINE
  8
0
 62
     7
 66
     1
 10
0
 20
0
 30
0.0
 70
     1
 40
0.15
 41
0.15
  0
VERTEX
  8
0
 10
9.62739
 20
1.54204
 30
0.0
 40
0.00208333
 41
0.00208333
  0
VERTEX
  8
0
 10
8.12478
 20
1.54204
 30
0.0
 40
0.00208333
 41
0.00208333
  0
VERTEX
  8
0
 10
8.12478
 20
1.85613
 30
0.0
 40
0.00208333
 41
0.00208333
  0
VERTEX
  8
0
 10
4.92074
 20
1.85613
 30
0.0
 40
0.00208333
 41
0.00208333
  0
VERTEX
  8
0
 10
4.92074
 20
3.48182
 30
0.0
 40
0.00208333
 41
0.00208333
  0
VERTEX
  8
0
 10
9.62739
 20
3.48182
 30
0.0
 40
0.00208333
 41
0.00208333
  0
VERTEX
  8
0
 10
9.62739
 20
1.54204
 30
0.0
 40
0.00208333
 41
0.00208333
  0
SEQEND
 8
0
  0
TEXT
  8
0
 62
     0
 10
6.23685
 20
2.60271
 30
0.0
 40
0.34375
  1
ET
 50
0
  0
POLYLINE
  8
0
 62
     7
 66
     1
 10
0
 20
0
 30
0.0
 70
     1
 40
0
 41
0
  0
VERTEX
  8
0
 10
4.18343
 20
1.78321
 30
0.0
 40
0
 41
0
  0
VERTEX
  8
0
 10
6.43658
 20
1.78321
 30
0.0
 40
0
 41
0
  0
VERTEX
  8
0
 10
6.43658
 20
0.149957
 30
0.0
 40
0
 41
0
  0
VERTEX
  8
0
 10
4.18343
 20
0.149957
 30
0.0
 40
0
 41
0
  0
VERTEX
  8
0
 10
4.18343
 20
1.78321
 30
0.0
 40
0
 41
0
  0
SEQEND
 8
0
  0
POLYLINE
  8
0
 62
     7
 66
     1
 10
0
 20
0
 30
0.0
 70
     1
 40
0.15
 41
0.15
  0
VERTEX
  8
0
 10
4.18343
 20
1.78321
 30
0.0
 40
0.00208333
 41
0.00208333
  0
VERTEX
  8
0
 10
6.43658
 20
1.78321
 30
0.0
 40
0.00208333
 41
0.00208333
  0
VERTEX
  8
0
 10
6.43658
 20
0.149957
 30
0.0
 40
0.00208333
 41
0.00208333
  0
VERTEX
  8
0
 10
4.18343
 20
0.149957
 30
0.0
 40
0.00208333
 41
0.00208333
  0
VERTEX
  8
0
 10
4.18343
 20
1.78321
 30
0.0
 40
0.00208333
 41
0.00208333
  0
SEQEND
 8
0
  0
TEXT
  8
0
 62
     0
 10
5.36189
 20
1.23795
 30
0.0
 40
0.34375
  1
KPH
 50
0
  0
POLYLINE
  8
0
 62
     7
 66
     1
 10
0
 20
0
 30
0.0
 70
     1
 40
0
 41
0
  0
VERTEX
  8
0
 10
6.5095
 20
1.78321
 30
0.0
 40
0
 41
0
  0
VERTEX
  8
0
 10
7.97894
 20
1.78321
 30
0.0
 40
0
 41
0
  0
VERTEX
  8
0
 10
7.97894
 20
0.149957
 30
0.0
 40
0
 41
0
  0
VERTEX
  8
0
 10
6.5095
 20
0.149957
 30
0.0
 40
0
 41
0
  0
VERTEX
  8
0
 10
6.5095
 20
1.78321
 30
0.0
 40
0
 41
0
  0
SEQEND
 8
0
  0
POLYLINE
  8
0
 62
     7
 66
     1
 10
0
 20
0
 30
0.0
 70
     1
 40
0.15
 41
0.15
  0
VERTEX
  8
0
 10
6.5095
 20
1.78321
 30
0.0
 40
0.00208333
 41
0.00208333
  0
VERTEX
  8
0
 10
7.97894
 20
1.78321
 30
0.0
 40
0.00208333
 41
0.00208333
  0
VERTEX
  8
0
 10
7.97894
 20
0.149957
 30
0.0
 40
0.00208333
 41
0.00208333
  0
VERTEX
  8
0
 10
6.5095
 20
0.149957
 30
0.0
 40
0.00208333
 41
0.00208333
  0
VERTEX
  8
0
 10
6.5095
 20
1.78321
 30
0.0
 40
0.00208333
 41
0.00208333
  0
SEQEND
 8
0
  0
TEXT
  8
0
 62
     0
 10
7.0256
 20
0.875044
 30
0.0
 40
0.34375
  1
VH
 50
0
  0
POLYLINE
  8
0
 62
     0
 66
     1
 10
0
 20
0
 30
0.0
 70
     1
 40
0
 41
0
  0
VERTEX
  8
0
 10
0.831054
 20
7.52165
 30
0.0
 40
0
 41
0
  0
VERTEX
  8
0
 10
0.831054
 20
0.149957
 30
0.0
 40
0
 41
0
  0
VERTEX
  8
0
 10
0.601887
 20
0.00726997
 30
0.0
 40
0
 41
0
  0
VERTEX
  8
0
 10
0.601887
 20
7.86757
 30
0.0
 40
0
 41
0
  0
VERTEX
  8
0
 10
0.831054
 20
7.52165
 30
0.0
 40
0
 41
0
  0
SEQEND
 8
0
  0
POLYLINE
  8
0
 62
     0
 66
     1
 10
0
 20
0
 30
0.0
 70
     1
 40
0.15
 41
0.15
  0
VERTEX
  8
0
 10
0.831054
 20
7.52165
 30
0.0
 40
0.00208333
 41
0.00208333
  0
VERTEX
  8
0
 10
0.831054
 20
0.149957
 30
0.0
 40
0.00208333
 41
0.00208333
  0
VERTEX
  8
0
 10
0.601887
 20
0.00726997
 30
0.0
 40
0.00208333
 41
0.00208333
  0
VERTEX
  8
0
 10
0.601887
 20
7.86757
 30
0.0
 40
0.00208333
 41
0.00208333
  0
VERTEX
  8
0
 10
0.831054
 20
7.52165
 30
0.0
 40
0.00208333
 41
0.00208333
  0
SEQEND
 8
0
  0
POLYLINE
  8
0
 62
     7
 66
     1
 10
0
 20
0
 30
0.0
 70
     1
 40
0
 41
0
  0
VERTEX
  8
0
 10
0.601887
 20
7.01476
 30
0.0
 40
0
 41
0
  0
VERTEX
  8
0
 10
0.831054
 20
7.01476
 30
0.0
 40
0
 41
0
  0
VERTEX
  8
0
 10
0.831054
 20
4.17236
 30
0.0
 40
0
 41
0
  0
VERTEX
  8
0
 10
0.601887
 20
4.17236
 30
0.0
 40
0
 41
0
  0
VERTEX
  8
0
 10
0.601887
 20
7.01476
 30
0.0
 40
0
 41
0
  0
SEQEND
 8
0
  0
POLYLINE
  8
0
 62
     0
 66
     1
 10
0
 20
0
 30
0.0
 70
     1
 40
0.75
 41
0.75
  0
VERTEX
  8
0
 10
0.601887
 20
7.01476
 30
0.0
 40
0.0104167
 41
0.0104167
  0
VERTEX
  8
0
 10
0.831054
 20
7.01476
 30
0.0
 40
0.0104167
 41
0.0104167
  0
VERTEX
  8
0
 10
0.831054
 20
4.17236
 30
0.0
 40
0.0104167
 41
0.0104167
  0
VERTEX
  8
0
 10
0.601887
 20
4.17236
 30
0.0
 40
0.0104167
 41
0.0104167
  0
VERTEX
  8
0
 10
0.601887
 20
7.01476
 30
0.0
 40
0.0104167
 41
0.0104167
  0
SEQEND
 8
0
  0
POLYLINE
  8
0
 62
     7
 66
     1
 10
0
 20
0
 30
0.0
 70
     1
 40
0
 41
0
  0
VERTEX
  8
0
 10
0.601887
 20
7.01476
 30
0.0
 40
0
 41
0
  0
VERTEX
  8
0
 10
0.831054
 20
7.01476
 30
0.0
 40
0
 41
0
  0
VERTEX
  8
0
 10
0.831054
 20
4.17236
 30
0.0
 40
0
 41
0
  0
VERTEX
  8
0
 10
0.601887
 20
4.17236
 30
0.0
 40
0
 41
0
  0
VERTEX
  8
0
 10
0.601887
 20
7.01476
 30
0.0
 40
0
 41
0
  0
SEQEND
 8
0
  0
POLYLINE
  8
0
 62
     0
 66
     1
 10
0
 20
0
 30
0.0
 70
     1
 40
0.75
 41
0.75
  0
VERTEX
  8
0
 10
0.601887
 20
7.01476
 30
0.0
 40
0.0104167
 41
0.0104167
  0
VERTEX
  8
0
 10
0.831054
 20
7.01476
 30
0.0
 40
0.0104167
 41
0.0104167
  0
VERTEX
  8
0
 10
0.831054
 20
4.17236
 30
0.0
 40
0.0104167
 41
0.0104167
  0
VERTEX
  8
0
 10
0.601887
 20
4.17236
 30
0.0
 40
0.0104167
 41
0.0104167
  0
VERTEX
  8
0
 10
0.601887
 20
7.01476
 30
0.0
 40
0.0104167
 41
0.0104167
  0
SEQEND
 8
0
  0
POLYLINE
  8
0
 62
     0
 66
     1
 10
0
 20
0
 30
0.0
 40
0.75
 41
0.75
  0
VERTEX
  8
0
 10
0.716471
 20
6.93658
 30
0.0
 40
0.0104167
 41
0.0104167
  0
VERTEX
  8
0
 10
0.716471
 20
4.25049
 30
0.0
 40
0.0104167
 41
0.0104167
  0
SEQEND
 8
0
  0
POLYLINE
  8
0
 62
     0
 66
     1
 10
0
 20
0
 30
0.0
 40
0.75
 41
0.75
  0
VERTEX
  8
0
 10
0.831054
 20
6.93658
 30
0.0
 40
0.0104167
 41
0.0104167
  0
VERTEX
  8
0
 10
0.601887
 20
6.93658
 30
0.0
 40
0.0104167
 41
0.0104167
  0
SEQEND
 8
0
  0
POLYLINE
  8
0
 62
     0
 66
     1
 10
0
 20
0
 30
0.0
 40
0.75
 41
0.75
  0
VERTEX
  8
0
 10
0.831054
 20
4.25049
 30
0.0
 40
0.0104167
 41
0.0104167
  0
VERTEX
  8
0
 10
0.601887
 20
4.25049
 30
0.0
 40
0.0104167
 41
0.0104167
  0
SEQEND
 8
0
  0
POLYLINE
  8
0
 62
     7
 66
     1
 10
0
 20
0
 30
0.0
 70
     1
 40
0
 41
0
  0
VERTEX
  8
0
 10
0.601887
 20
2.90728
 30
0.0
 40
0
 41
0
  0
VERTEX
  8
0
 10
0.831054
 20
2.90728
 30
0.0
 40
0
 41
0
  0
VERTEX
  8
0
 10
0.831054
 20
0.817546
 30
0.0
 40
0
 41
0
  0
VERTEX
  8
0
 10
0.601887
 20
0.817546
 30
0.0
 40
0
 41
0
  0
VERTEX
  8
0
 10
0.601887
 20
2.90728
 30
0.0
 40
0
 41
0
  0
SEQEND
 8
0
  0
POLYLINE
  8
0
 62
     0
 66
     1
 10
0
 20
0
 30
0.0
 70
     1
 40
0.75
 41
0.75
  0
VERTEX
  8
0
 10
0.601887
 20
2.90728
 30
0.0
 40
0.0104167
 41
0.0104167
  0
VERTEX
  8
0
 10
0.831054
 20
2.90728
 30
0.0
 40
0.0104167
 41
0.0104167
  0
VERTEX
  8
0
 10
0.831054
 20
0.817546
 30
0.0
 40
0.0104167
 41
0.0104167
  0
VERTEX
  8
0
 10
0.601887
 20
0.817546
 30
0.0
 40
0.0104167
 41
0.0104167
  0
VERTEX
  8
0
 10
0.601887
 20
2.90728
 30
0.0
 40
0.0104167
 41
0.0104167
  0
SEQEND
 8
0
  0
POLYLINE
  8
0
 62
     7
 66
     1
 10
0
 20
0
 30
0.0
 70
     1
 40
0
 41
0
  0
VERTEX
  8
0
 10
0.601887
 20
2.90728
 30
0.0
 40
0
 41
0
  0
VERTEX
  8
0
 10
0.831054
 20
2.90728
 30
0.0
 40
0
 41
0
  0
VERTEX
  8
0
 10
0.831054
 20
0.817546
 30
0.0
 40
0
 41
0
  0
VERTEX
  8
0
 10
0.601887
 20
0.817546
 30
0.0
 40
0
 41
0
  0
VERTEX
  8
0
 10
0.601887
 20
2.90728
 30
0.0
 40
0
 41
0
  0
SEQEND
 8
0
  0
POLYLINE
  8
0
 62
     0
 66
     1
 10
0
 20
0
 30
0.0
 70
     1
 40
0.75
 41
0.75
  0
VERTEX
  8
0
 10
0.601887
 20
2.90728
 30
0.0
 40
0.0104167
 41
0.0104167
  0
VERTEX
  8
0
 10
0.831054
 20
2.90728
 30
0.0
 40
0.0104167
 41
0.0104167
  0
VERTEX
  8
0
 10
0.831054
 20
0.817546
 30
0.0
 40
0.0104167
 41
0.0104167
  0
VERTEX
  8
0
 10
0.601887
 20
0.817546
 30
0.0
 40
0.0104167
 41
0.0104167
  0
VERTEX
  8
0
 10
0.601887
 20
2.90728
 30
0.0
 40
0.0104167
 41
0.0104167
  0
SEQEND
 8
0
  0
POLYLINE
  8
0
 62
     0
 66
     1
 10
0
 20
0
 30
0.0
 40
0.75
 41
0.75
  0
VERTEX
  8
0
 10
0.716471
 20
2.82915
 30
0.0
 40
0.0104167
 41
0.0104167
  0
VERTEX
  8
0
 10
0.716471
 20
0.895671
 30
0.0
 40
0.0104167
 41
0.0104167
  0
SEQEND
 8
0
  0
POLYLINE
  8
0
 62
     0
 66
     1
 10
0
 20
0
 30
0.0
 40
0.75
 41
0.75
  0
VERTEX
  8
0
 10
0.831054
 20
2.82915
 30
0.0
 40
0.0104167
 41
0.0104167
  0
VERTEX
  8
0
 10
0.601887
 20
2.82915
 30
0.0
 40
0.0104167
 41
0.0104167
  0
SEQEND
 8
0
  0
POLYLINE
  8
0
 62
     0
 66
     1
 10
0
 20
0
 30
0.0
 40
0.75
 41
0.75
  0
VERTEX
  8
0
 10
0.831054
 20
0.895671
 30
0.0
 40
0.0104167
 41
0.0104167
  0
VERTEX
  8
0
 10
0.601887
 20
0.895671
 30
0.0
 40
0.0104167
 41
0.0104167
  0
SEQEND
 8
0
  0
POLYLINE
  8
0
 62
     0
 66
     1
 10
0
 20
0
 30
0.0
 70
     1
 40
0
 41
0
  0
VERTEX
  8
0
 10
0.831054
 20
0.149957
 30
0.0
 40
0
 41
0
  0
VERTEX
  8
0
 10
7.97894
 20
0.149957
 30
0.0
 40
0
 41
0
  0
VERTEX
  8
0
 10
8.12169
 20
0.00726997
 30
0.0
 40
0
 41
0
  0
VERTEX
  8
0
 10
0.601887
 20
0.00726997
 30
0.0
 40
0
 41
0
  0
VERTEX
  8
0
 10
0.831054
 20
0.149957
 30
0.0
 40
0
 41
0
  0
SEQEND
 8
0
  0
POLYLINE
  8
0
 62
     0
 66
     1
 10
0
 20
0
 30
0.0
 70
     1
 40
0.15
 41
0.15
  0
VERTEX
  8
0
 10
0.831054
 20
0.149957
 30
0.0
 40
0.00208333
 41
0.00208333
  0
VERTEX
  8
0
 10
7.97894
 20
0.149957
 30
0.0
 40
0.00208333
 41
0.00208333
  0
VERTEX
  8
0
 10
8.12169
 20
0.00726997
 30
0.0
 40
0.00208333
 41
0.00208333
  0
VERTEX
  8
0
 10
0.601887
 20
0.00726997
 30
0.0
 40
0.00208333
 41
0.00208333
  0
VERTEX
  8
0
 10
0.831054
 20
0.149957
 30
0.0
 40
0.00208333
 41
0.00208333
  0
SEQEND
 8
0
  0
POLYLINE
  8
0
 62
     0
 66
     1
 10
0
 20
0
 30
0.0
 70
     1
 40
0
 41
0
  0
VERTEX
  8
0
 10
7.97894
 20
0.149957
 30
0.0
 40
0
 41
0
  0
VERTEX
  8
0
 10
7.97894
 20
1.54204
 30
0.0
 40
0
 41
0
  0
VERTEX
  8
0
 10
8.12169
 20
1.39339
 30
0.0
 40
0
 41
0
  0
VERTEX
  8
0
 10
8.12169
 20
0.00726997
 30
0.0
 40
0
 41
0
  0
VERTEX
  8
0
 10
7.97894
 20
0.149957
 30
0.0
 40
0
 41
0
  0
SEQEND
 8
0
  0
POLYLINE
  8
0
 62
     0
 66
     1
 10
0
 20
0
 30
0.0
 70
     1
 40
0.15
 41
0.15
  0
VERTEX
  8
0
 10
7.97894
 20
0.149957
 30
0.0
 40
0.00208333
 41
0.00208333
  0
VERTEX
  8
0
 10
7.97894
 20
1.54204
 30
0.0
 40
0.00208333
 41
0.00208333
  0
VERTEX
  8
0
 10
8.12169
 20
1.39339
 30
0.0
 40
0.00208333
 41
0.00208333
  0
VERTEX
  8
0
 10
8.12169
 20
0.00726997
 30
0.0
 40
0.00208333
 41
0.00208333
  0
VERTEX
  8
0
 10
7.97894
 20
0.149957
 30
0.0
 40
0.00208333
 41
0.00208333
  0
SEQEND
 8
0
  0
POLYLINE
  8
0
 62
     0
 66
     1
 10
0
 20
0
 30
0.0
 70
     1
 40
0
 41
0
  0
VERTEX
  8
0
 10
7.97894
 20
1.54204
 30
0.0
 40
0
 41
0
  0
VERTEX
  8
0
 10
9.62739
 20
1.54204
 30
0.0
 40
0
 41
0
  0
VERTEX
  8
0
 10
9.74946
 20
1.39339
 30
0.0
 40
0
 41
0
  0
VERTEX
  8
0
 10
8.12169
 20
1.39339
 30
0.0
 40
0
 41
0
  0
VERTEX
  8
0
 10
7.97894
 20
1.54204
 30
0.0
 40
0
 41
0
  0
SEQEND
 8
0
  0
POLYLINE
  8
0
 62
     0
 66
     1
 10
0
 20
0
 30
0.0
 70
     1
 40
0.15
 41
0.15
  0
VERTEX
  8
0
 10
7.97894
 20
1.54204
 30
0.0
 40
0.00208333
 41
0.00208333
  0
VERTEX
  8
0
 10
9.62739
 20
1.54204
 30
0.0
 40
0.00208333
 41
0.00208333
  0
VERTEX
  8
0
 10
9.74946
 20
1.39339
 30
0.0
 40
0.00208333
 41
0.00208333
  0
VERTEX
  8
0
 10
8.12169
 20
1.39339
 30
0.0
 40
0.00208333
 41
0.00208333
  0
VERTEX
  8
0
 10
7.97894
 20
1.54204
 30
0.0
 40
0.00208333
 41
0.00208333
  0
SEQEND
 8
0
  0
POLYLINE
  8
0
 62
     7
 66
     1
 10
0
 20
0
 30
0.0
 70
     1
 40
0
 41
0
  0
VERTEX
  8
0
 10
8.19407
 20
1.54204
 30
0.0
 40
0
 41
0
  0
VERTEX
  8
0
 10
9.04562
 20
1.54204
 30
0.0
 40
0
 41
0
  0
VERTEX
  8
0
 10
9.04562
 20
1.39339
 30
0.0
 40
0
 41
0
  0
VERTEX
  8
0
 10
8.19407
 20
1.39339
 30
0.0
 40
0
 41
0
  0
VERTEX
  8
0
 10
8.19407
 20
1.54204
 30
0.0
 40
0
 41
0
  0
SEQEND
 8
0
  0
POLYLINE
  8
0
 62
     0
 66
     1
 10
0
 20
0
 30
0.0
 70
     1
 40
0.75
 41
0.75
  0
VERTEX
  8
0
 10
8.19407
 20
1.54204
 30
0.0
 40
0.0104167
 41
0.0104167
  0
VERTEX
  8
0
 10
9.04562
 20
1.54204
 30
0.0
 40
0.0104167
 41
0.0104167
  0
VERTEX
  8
0
 10
9.04562
 20
1.39339
 30
0.0
 40
0.0104167
 41
0.0104167
  0
VERTEX
  8
0
 10
8.19407
 20
1.39339
 30
0.0
 40
0.0104167
 41
0.0104167
  0
VERTEX
  8
0
 10
8.19407
 20
1.54204
 30
0.0
 40
0.0104167
 41
0.0104167
  0
SEQEND
 8
0
  0
POLYLINE
  8
0
 62
     7
 66
     1
 10
0
 20
0
 30
0.0
 70
     1
 40
0
 41
0
  0
VERTEX
  8
0
 10
8.19407
 20
1.54204
 30
0.0
 40
0
 41
0
  0
VERTEX
  8
0
 10
9.04562
 20
1.54204
 30
0.0
 40
0
 41
0
  0
VERTEX
  8
0
 10
9.04562
 20
1.39339
 30
0.0
 40
0
 41
0
  0
VERTEX
  8
0
 10
8.19407
 20
1.39339
 30
0.0
 40
0
 41
0
  0
VERTEX
  8
0
 10
8.19407
 20
1.54204
 30
0.0
 40
0
 41
0
  0
SEQEND
 8
0
  0
POLYLINE
  8
0
 62
     0
 66
     1
 10
0
 20
0
 30
0.0
 70
     1
 40
0.75
 41
0.75
  0
VERTEX
  8
0
 10
8.19407
 20
1.54204
 30
0.0
 40
0.0104167
 41
0.0104167
  0
VERTEX
  8
0
 10
9.04562
 20
1.54204
 30
0.0
 40
0.0104167
 41
0.0104167
  0
VERTEX
  8
0
 10
9.04562
 20
1.39339
 30
0.0
 40
0.0104167
 41
0.0104167
  0
VERTEX
  8
0
 10
8.19407
 20
1.39339
 30
0.0
 40
0.0104167
 41
0.0104167
  0
VERTEX
  8
0
 10
8.19407
 20
1.54204
 30
0.0
 40
0.0104167
 41
0.0104167
  0
SEQEND
 8
0
  0
POLYLINE
  8
0
 62
     0
 66
     1
 10
0
 20
0
 30
0.0
 70
     1
 40
0.75
 41
0.75
  0
VERTEX
  8
0
 10
8.19407
 20
1.54204
 30
0.0
 40
0.0104167
 41
0.0104167
  0
VERTEX
  8
0
 10
8.19407
 20
1.59196
 30
0.0
 40
0.0104167
 41
0.0104167
  0
VERTEX
  8
0
 10
8.20736
 20
1.74164
 30
0.0
 40
0.0104167
 41
0.0104167
  0
VERTEX
  8
0
 10
8.24729
 20
1.91461
 30
0.0
 40
0.0104167
 41
0.0104167
  0
VERTEX
  8
0
 10
8.31381
 20
2.06099
 30
0.0
 40
0.0104167
 41
0.0104167
  0
VERTEX
  8
0
 10
8.40696
 20
2.18072
 30
0.0
 40
0.0104167
 41
0.0104167
  0
VERTEX
  8
0
 10
8.52669
 20
2.27387
 30
0.0
 40
0.0104167
 41
0.0104167
  0
VERTEX
  8
0
 10
8.67307
 20
2.34039
 30
0.0
 40
0.0104167
 41
0.0104167
  0
VERTEX
  8
0
 10
8.84603
 20
2.38032
 30
0.0
 40
0.0104167
 41
0.0104167
  0
VERTEX
  8
0
 10
8.99571
 20
2.39361
 30
0.0
 40
0.0104167
 41
0.0104167
  0
VERTEX
  8
0
 10
9.04562
 20
2.39361
 30
0.0
 40
0.0104167
 41
0.0104167
  0
VERTEX
  8
0
 10
9.04562
 20
1.54204
 30
0.0
 40
0.0104167
 41
0.0104167
  0
VERTEX
  8
0
 10
8.19407
 20
1.54204
 30
0.0
 40
0.0104167
 41
0.0104167
  0
SEQEND
 8
0
  0
POLYLINE
  8
0
 62
     0
 66
     1
 10
0
 20
0
 30
0.0
 70
     1
 40
0.75
 41
0.75
  0
VERTEX
  8
0
 10
9.04562
 20
1.39339
 30
0.0
 40
0.0104167
 41
0.0104167
  0
VERTEX
  8
0
 10
9.04562
 20
1.34353
 30
0.0
 40
0.0104167
 41
0.0104167
  0
VERTEX
  8
0
 10
9.03228
 20
1.19385
 30
0.0
 40
0.0104167
 41
0.0104167
  0
VERTEX
  8
0
 10
8.9924
 20
1.02083
 30
0.0
 40
0.0104167
 41
0.0104167
  0
VERTEX
  8
0
 10
8.92583
 20
0.874511
 30
0.0
 40
0.0104167
 41
0.0104167
  0
VERTEX
  8
0
 10
8.83274
 20
0.754719
 30
0.0
 40
0.0104167
 41
0.0104167
  0
VERTEX
  8
0
 10
8.71294
 20
0.661621
 30
0.0
 40
0.0104167
 41
0.0104167
  0
VERTEX
  8
0
 10
8.56663
 20
0.595053
 30
0.0
 40
0.0104167
 41
0.0104167
  0
VERTEX
  8
0
 10
8.39361
 20
0.555176
 30
0.0
 40
0.0104167
 41
0.0104167
  0
VERTEX
  8
0
 10
8.24393
 20
0.541829
 30
0.0
 40
0.0104167
 41
0.0104167
  0
VERTEX
  8
0
 10
8.19407
 20
0.541829
 30
0.0
 40
0.0104167
 41
0.0104167
  0
VERTEX
  8
0
 10
8.19407
 20
1.39339
 30
0.0
 40
0.0104167
 41
0.0104167
  0
VERTEX
  8
0
 10
9.04562
 20
1.39339
 30
0.0
 40
0.0104167
 41
0.0104167
  0
SEQEND
 8
0
  0
POLYLINE
  8
0
 62
     0
 66
     1
 10
0
 20
0
 30
0.0
 70
     1
 40
0
 41
0
  0
VERTEX
  8
0
 10
9.62739
 20
1.54204
 30
0.0
 40
0
 41
0
  0
VERTEX
  8
0
 10
9.62739
 20
7.52165
 30
0.0
 40
0
 41
0
  0
VERTEX
  8
0
 10
9.74946
 20
7.86757
 30
0.0
 40
0
 41
0
  0
VERTEX
  8
0
 10
9.74946
 20
1.39339
 30
0.0
 40
0
 41
0
  0
VERTEX
  8
0
 10
9.62739
 20
1.54204
 30
0.0
 40
0
 41
0
  0
SEQEND
 8
0
  0
POLYLINE
  8
0
 62
     0
 66
     1
 10
0
 20
0
 30
0.0
 70
     1
 40
0.15
 41
0.15
  0
VERTEX
  8
0
 10
9.62739
 20
1.54204
 30
0.0
 40
0.00208333
 41
0.00208333
  0
VERTEX
  8
0
 10
9.62739
 20
7.52165
 30
0.0
 40
0.00208333
 41
0.00208333
  0
VERTEX
  8
0
 10
9.74946
 20
7.86757
 30
0.0
 40
0.00208333
 41
0.00208333
  0
VERTEX
  8
0
 10
9.74946
 20
1.39339
 30
0.0
 40
0.00208333
 41
0.00208333
  0
VERTEX
  8
0
 10
9.62739
 20
1.54204
 30
0.0
 40
0.00208333
 41
0.00208333
  0
SEQEND
 8
0
  0
POLYLINE
  8
0
 62
     0
 66
     1
 10
0
 20
0
 30
0.0
 70
     1
 40
0
 41
0
  0
VERTEX
  8
0
 10
9.62739
 20
7.52165
 30
0.0
 40
0
 41
0
  0
VERTEX
  8
0
 10
0.831054
 20
7.52165
 30
0.0
 40
0
 41
0
  0
VERTEX
  8
0
 10
0.601887
 20
7.86757
 30
0.0
 40
0
 41
0
  0
VERTEX
  8
0
 10
9.74946
 20
7.86757
 30
0.0
 40
0
 41
0
  0
VERTEX
  8
0
 10
9.62739
 20
7.52165
 30
0.0
 40
0
 41
0
  0
SEQEND
 8
0
  0
POLYLINE
  8
0
 62
     0
 66
     1
 10
0
 20
0
 30
0.0
 70
     1
 40
0.15
 41
0.15
  0
VERTEX
  8
0
 10
9.62739
 20
7.52165
 30
0.0
 40
0.00208333
 41
0.00208333
  0
VERTEX
  8
0
 10
0.831054
 20
7.52165
 30
0.0
 40
0.00208333
 41
0.00208333
  0
VERTEX
  8
0
 10
0.601887
 20
7.86757
 30
0.0
 40
0.00208333
 41
0.00208333
  0
VERTEX
  8
0
 10
9.74946
 20
7.86757
 30
0.0
 40
0.00208333
 41
0.00208333
  0
VERTEX
  8
0
 10
9.62739
 20
7.52165
 30
0.0
 40
0.00208333
 41
0.00208333
  0
SEQEND
 8
0
  0
POLYLINE
  8
0
 62
     7
 66
     1
 10
0
 20
0
 30
0.0
 70
     1
 40
0
 41
0
  0
VERTEX
  8
0
 10
7.1205
 20
7.86757
 30
0.0
 40
0
 41
0
  0
VERTEX
  8
0
 10
9.14518
 20
7.86757
 30
0.0
 40
0
 41
0
  0
VERTEX
  8
0
 10
9.14518
 20
7.52165
 30
0.0
 40
0
 41
0
  0
VERTEX
  8
0
 10
7.1205
 20
7.52165
 30
0.0
 40
0
 41
0
  0
VERTEX
  8
0
 10
7.1205
 20
7.86757
 30
0.0
 40
0
 41
0
  0
SEQEND
 8
0
  0
POLYLINE
  8
0
 62
     0
 66
     1
 10
0
 20
0
 30
0.0
 70
     1
 40
0.75
 41
0.75
  0
VERTEX
  8
0
 10
7.1205
 20
7.86757
 30
0.0
 40
0.0104167
 41
0.0104167
  0
VERTEX
  8
0
 10
9.14518
 20
7.86757
 30
0.0
 40
0.0104167
 41
0.0104167
  0
VERTEX
  8
0
 10
9.14518
 20
7.52165
 30
0.0
 40
0.0104167
 41
0.0104167
  0
VERTEX
  8
0
 10
7.1205
 20
7.52165
 30
0.0
 40
0.0104167
 41
0.0104167
  0
VERTEX
  8
0
 10
7.1205
 20
7.86757
 30
0.0
 40
0.0104167
 41
0.0104167
  0
SEQEND
 8
0
  0
POLYLINE
  8
0
 62
     7
 66
     1
 10
0
 20
0
 30
0.0
 70
     1
 40
0
 41
0
  0
VERTEX
  8
0
 10
7.1205
 20
7.86757
 30
0.0
 40
0
 41
0
  0
VERTEX
  8
0
 10
9.14518
 20
7.86757
 30
0.0
 40
0
 41
0
  0
VERTEX
  8
0
 10
9.14518
 20
7.52165
 30
0.0
 40
0
 41
0
  0
VERTEX
  8
0
 10
7.1205
 20
7.52165
 30
0.0
 40
0
 41
0
  0
VERTEX
  8
0
 10
7.1205
 20
7.86757
 30
0.0
 40
0
 41
0
  0
SEQEND
 8
0
  0
POLYLINE
  8
0
 62
     0
 66
     1
 10
0
 20
0
 30
0.0
 70
     1
 40
0.75
 41
0.75
  0
VERTEX
  8
0
 10
7.1205
 20
7.86757
 30
0.0
 40
0.0104167
 41
0.0104167
  0
VERTEX
  8
0
 10
9.14518
 20
7.86757
 30
0.0
 40
0.0104167
 41
0.0104167
  0
VERTEX
  8
0
 10
9.14518
 20
7.52165
 30
0.0
 40
0.0104167
 41
0.0104167
  0
VERTEX
  8
0
 10
7.1205
 20
7.52165
 30
0.0
 40
0.0104167
 41
0.0104167
  0
VERTEX
  8
0
 10
7.1205
 20
7.86757
 30
0.0
 40
0.0104167
 41
0.0104167
  0
SEQEND
 8
0
  0
POLYLINE
  8
0
 62
     0
 66
     1
 10
0
 20
0
 30
0.0
 40
0.75
 41
0.75
  0
VERTEX
  8
0
 10
9.06706
 20
7.69461
 30
0.0
 40
0.0104167
 41
0.0104167
  0
VERTEX
  8
0
 10
7.19863
 20
7.69461
 30
0.0
 40
0.0104167
 41
0.0104167
  0
SEQEND
 8
0
  0
POLYLINE
  8
0
 62
     0
 66
     1
 10
0
 20
0
 30
0.0
 40
0.75
 41
0.75
  0
VERTEX
  8
0
 10
9.06706
 20
7.52165
 30
0.0
 40
0.0104167
 41
0.0104167
  0
VERTEX
  8
0
 10
9.06706
 20
7.86762
 30
0.0
 40
0.0104167
 41
0.0104167
  0
SEQEND
 8
0
  0
POLYLINE
  8
0
 62
     0
 66
     1
 10
0
 20
0
 30
0.0
 40
0.75
 41
0.75
  0
VERTEX
  8
0
 10
7.19863
 20
7.52165
 30
0.0
 40
0.0104167
 41
0.0104167
  0
VERTEX
  8
0
 10
7.19863
 20
7.86762
 30
0.0
 40
0.0104167
 41
0.0104167
  0
SEQEND
 8
0
  0
POLYLINE
  8
0
 62
     7
 66
     1
 10
0
 20
0
 30
0.0
 70
     1
 40
0
 41
0
  0
VERTEX
  8
0
 10
5.13699
 20
7.86757
 30
0.0
 40
0
 41
0
  0
VERTEX
  8
0
 10
6.29801
 20
7.86757
 30
0.0
 40
0
 41
0
  0
VERTEX
  8
0
 10
6.29801
 20
7.52165
 30
0.0
 40
0
 41
0
  0
VERTEX
  8
0
 10
5.13699
 20
7.52165
 30
0.0
 40
0
 41
0
  0
VERTEX
  8
0
 10
5.13699
 20
7.86757
 30
0.0
 40
0
 41
0
  0
SEQEND
 8
0
  0
POLYLINE
  8
0
 62
     0
 66
     1
 10
0
 20
0
 30
0.0
 70
     1
 40
0.75
 41
0.75
  0
VERTEX
  8
0
 10
5.13699
 20
7.86757
 30
0.0
 40
0.0104167
 41
0.0104167
  0
VERTEX
  8
0
 10
6.29801
 20
7.86757
 30
0.0
 40
0.0104167
 41
0.0104167
  0
VERTEX
  8
0
 10
6.29801
 20
7.52165
 30
0.0
 40
0.0104167
 41
0.0104167
  0
VERTEX
  8
0
 10
5.13699
 20
7.52165
 30
0.0
 40
0.0104167
 41
0.0104167
  0
VERTEX
  8
0
 10
5.13699
 20
7.86757
 30
0.0
 40
0.0104167
 41
0.0104167
  0
SEQEND
 8
0
  0
POLYLINE
  8
0
 62
     7
 66
     1
 10
0
 20
0
 30
0.0
 70
     1
 40
0
 41
0
  0
VERTEX
  8
0
 10
5.13699
 20
7.86757
 30
0.0
 40
0
 41
0
  0
VERTEX
  8
0
 10
6.29801
 20
7.86757
 30
0.0
 40
0
 41
0
  0
VERTEX
  8
0
 10
6.29801
 20
7.52165
 30
0.0
 40
0
 41
0
  0
VERTEX
  8
0
 10
5.13699
 20
7.52165
 30
0.0
 40
0
 41
0
  0
VERTEX
  8
0
 10
5.13699
 20
7.86757
 30
0.0
 40
0
 41
0
  0
SEQEND
 8
0
  0
POLYLINE
  8
0
 62
     0
 66
     1
 10
0
 20
0
 30
0.0
 70
     1
 40
0.75
 41
0.75
  0
VERTEX
  8
0
 10
5.13699
 20
7.86757
 30
0.0
 40
0.0104167
 41
0.0104167
  0
VERTEX
  8
0
 10
6.29801
 20
7.86757
 30
0.0
 40
0.0104167
 41
0.0104167
  0
VERTEX
  8
0
 10
6.29801
 20
7.52165
 30
0.0
 40
0.0104167
 41
0.0104167
  0
VERTEX
  8
0
 10
5.13699
 20
7.52165
 30
0.0
 40
0.0104167
 41
0.0104167
  0
VERTEX
  8
0
 10
5.13699
 20
7.86757
 30
0.0
 40
0.0104167
 41
0.0104167
  0
SEQEND
 8
0
  0
POLYLINE
  8
0
 62
     0
 66
     1
 10
0
 20
0
 30
0.0
 40
0.75
 41
0.75
  0
VERTEX
  8
0
 10
6.21989
 20
7.69461
 30
0.0
 40
0.0104167
 41
0.0104167
  0
VERTEX
  8
0
 10
5.21517
 20
7.69461
 30
0.0
 40
0.0104167
 41
0.0104167
  0
SEQEND
 8
0
  0
POLYLINE
  8
0
 62
     0
 66
     1
 10
0
 20
0
 30
0.0
 40
0.75
 41
0.75
  0
VERTEX
  8
0
 10
6.21989
 20
7.52165
 30
0.0
 40
0.0104167
 41
0.0104167
  0
VERTEX
  8
0
 10
6.21989
 20
7.86762
 30
0.0
 40
0.0104167
 41
0.0104167
  0
SEQEND
 8
0
  0
POLYLINE
  8
0
 62
     0
 66
     1
 10
0
 20
0
 30
0.0
 40
0.75
 41
0.75
  0
VERTEX
  8
0
 10
5.21517
 20
7.52165
 30
0.0
 40
0.0104167
 41
0.0104167
  0
VERTEX
  8
0
 10
5.21517
 20
7.86762
 30
0.0
 40
0.0104167
 41
0.0104167
  0
SEQEND
 8
0
  0
POLYLINE
  8
0
 62
     7
 66
     1
 10
0
 20
0
 30
0.0
 70
     1
 40
0
 41
0
  0
VERTEX
  8
0
 10
4.28033
 20
7.86757
 30
0.0
 40
0
 41
0
  0
VERTEX
  8
0
 10
5.08094
 20
7.86757
 30
0.0
 40
0
 41
0
  0
VERTEX
  8
0
 10
5.08094
 20
7.52165
 30
0.0
 40
0
 41
0
  0
VERTEX
  8
0
 10
4.28033
 20
7.52165
 30
0.0
 40
0
 41
0
  0
VERTEX
  8
0
 10
4.28033
 20
7.86757
 30
0.0
 40
0
 41
0
  0
SEQEND
 8
0
  0
POLYLINE
  8
0
 62
     0
 66
     1
 10
0
 20
0
 30
0.0
 70
     1
 40
0.75
 41
0.75
  0
VERTEX
  8
0
 10
4.28033
 20
7.86757
 30
0.0
 40
0.0104167
 41
0.0104167
  0
VERTEX
  8
0
 10
5.08094
 20
7.86757
 30
0.0
 40
0.0104167
 41
0.0104167
  0
VERTEX
  8
0
 10
5.08094
 20
7.52165
 30
0.0
 40
0.0104167
 41
0.0104167
  0
VERTEX
  8
0
 10
4.28033
 20
7.52165
 30
0.0
 40
0.0104167
 41
0.0104167
  0
VERTEX
  8
0
 10
4.28033
 20
7.86757
 30
0.0
 40
0.0104167
 41
0.0104167
  0
SEQEND
 8
0
  0
POLYLINE
  8
0
 62
     7
 66
     1
 10
0
 20
0
 30
0.0
 70
     1
 40
0
 41
0
  0
VERTEX
  8
0
 10
4.28033
 20
7.86757
 30
0.0
 40
0
 41
0
  0
VERTEX
  8
0
 10
5.08094
 20
7.86757
 30
0.0
 40
0
 41
0
  0
VERTEX
  8
0
 10
5.08094
 20
7.52165
 30
0.0
 40
0
 41
0
  0
VERTEX
  8
0
 10
4.28033
 20
7.52165
 30
0.0
 40
0
 41
0
  0
VERTEX
  8
0
 10
4.28033
 20
7.86757
 30
0.0
 40
0
 41
0
  0
SEQEND
 8
0
  0
POLYLINE
  8
0
 62
     0
 66
     1
 10
0
 20
0
 30
0.0
 70
     1
 40
0.75
 41
0.75
  0
VERTEX
  8
0
 10
4.28033
 20
7.86757
 30
0.0
 40
0.0104167
 41
0.0104167
  0
VERTEX
  8
0
 10
5.08094
 20
7.86757
 30
0.0
 40
0.0104167
 41
0.0104167
  0
VERTEX
  8
0
 10
5.08094
 20
7.52165
 30
0.0
 40
0.0104167
 41
0.0104167
  0
VERTEX
  8
0
 10
4.28033
 20
7.52165
 30
0.0
 40
0.0104167
 41
0.0104167
  0
VERTEX
  8
0
 10
4.28033
 20
7.86757
 30
0.0
 40
0.0104167
 41
0.0104167
  0
SEQEND
 8
0
  0
POLYLINE
  8
0
 62
     0
 66
     1
 10
0
 20
0
 30
0.0
 70
     1
 40
0.75
 41
0.75
  0
VERTEX
  8
0
 10
5.08094
 20
7.86757
 30
0.0
 40
0.0104167
 41
0.0104167
  0
VERTEX
  8
0
 10
5.08094
 20
7.9145
 30
0.0
 40
0.0104167
 41
0.0104167
  0
VERTEX
  8
0
 10
5.06842
 20
8.05524
 30
0.0
 40
0.0104167
 41
0.0104167
  0
VERTEX
  8
0
 10
5.03087
 20
8.21789
 30
0.0
 40
0.0104167
 41
0.0104167
  0
VERTEX
  8
0
 10
4.96832
 20
8.35547
 30
0.0
 40
0.0104167
 41
0.0104167
  0
VERTEX
  8
0
 10
4.88075
 20
8.46804
 30
0.0
 40
0.0104167
 41
0.0104167
  0
VERTEX
  8
0
 10
4.76818
 20
8.55561
 30
0.0
 40
0.0104167
 41
0.0104167
  0
VERTEX
  8
0
 10
4.63058
 20
8.61817
 30
0.0
 40
0.0104167
 41
0.0104167
  0
VERTEX
  8
0
 10
4.46793
 20
8.65571
 30
0.0
 40
0.0104167
 41
0.0104167
  0
VERTEX
  8
0
 10
4.32721
 20
8.66818
 30
0.0
 40
0.0104167
 41
0.0104167
  0
VERTEX
  8
0
 10
4.28033
 20
8.66818
 30
0.0
 40
0.0104167
 41
0.0104167
  0
VERTEX
  8
0
 10
4.28033
 20
7.86757
 30
0.0
 40
0.0104167
 41
0.0104167
  0
VERTEX
  8
0
 10
5.08094
 20
7.86757
 30
0.0
 40
0.0104167
 41
0.0104167
  0
SEQEND
 8
0
  0
POLYLINE
  8
0
 62
     0
 66
     1
 10
0
 20
0
 30
0.0
 70
     1
 40
0
 41
0
  0
VERTEX
  8
0
 10
3.87082
 20
7.86757
 30
0.0
 40
0
 41
0
  0
VERTEX
  8
0
 10
3.87082
 20
9.44965
 30
0.0
 40
0
 41
0
  0
VERTEX
  8
0
 10
3.72499
 20
9.52257
 30
0.0
 40
0
 41
0
  0
VERTEX
  8
0
 10
3.72499
 20
7.86757
 30
0.0
 40
0
 41
0
  0
VERTEX
  8
0
 10
3.87082
 20
7.86757
 30
0.0
 40
0
 41
0
  0
SEQEND
 8
0
  0
POLYLINE
  8
0
 62
     0
 66
     1
 10
0
 20
0
 30
0.0
 70
     1
 40
0.15
 41
0.15
  0
VERTEX
  8
0
 10
3.87082
 20
7.86757
 30
0.0
 40
0.00208333
 41
0.00208333
  0
VERTEX
  8
0
 10
3.87082
 20
9.44965
 30
0.0
 40
0.00208333
 41
0.00208333
  0
VERTEX
  8
0
 10
3.72499
 20
9.52257
 30
0.0
 40
0.00208333
 41
0.00208333
  0
VERTEX
  8
0
 10
3.72499
 20
7.86757
 30
0.0
 40
0.00208333
 41
0.00208333
  0
VERTEX
  8
0
 10
3.87082
 20
7.86757
 30
0.0
 40
0.00208333
 41
0.00208333
  0
SEQEND
 8
0
  0
POLYLINE
  8
0
 62
     0
 66
     1
 10
0
 20
0
 30
0.0
 70
     1
 40
0
 41
0
  0
VERTEX
  8
0
 10
6.80138
 20
7.86757
 30
0.0
 40
0
 41
0
  0
VERTEX
  8
0
 10
6.80138
 20
9.52257
 30
0.0
 40
0
 41
0
  0
VERTEX
  8
0
 10
6.65554
 20
9.44965
 30
0.0
 40
0
 41
0
  0
VERTEX
  8
0
 10
6.65554
 20
7.86757
 30
0.0
 40
0
 41
0
  0
VERTEX
  8
0
 10
6.80138
 20
7.86757
 30
0.0
 40
0
 41
0
  0
SEQEND
 8
0
  0
POLYLINE
  8
0
 62
     0
 66
     1
 10
0
 20
0
 30
0.0
 70
     1
 40
0.15
 41
0.15
  0
VERTEX
  8
0
 10
6.80138
 20
7.86757
 30
0.0
 40
0.00208333
 41
0.00208333
  0
VERTEX
  8
0
 10
6.80138
 20
9.52257
 30
0.0
 40
0.00208333
 41
0.00208333
  0
VERTEX
  8
0
 10
6.65554
 20
9.44965
 30
0.0
 40
0.00208333
 41
0.00208333
  0
VERTEX
  8
0
 10
6.65554
 20
7.86757
 30
0.0
 40
0.00208333
 41
0.00208333
  0
VERTEX
  8
0
 10
6.80138
 20
7.86757
 30
0.0
 40
0.00208333
 41
0.00208333
  0
SEQEND
 8
0
  0
POLYLINE
  8
0
 62
     0
 66
     1
 10
0
 20
0
 30
0.0
 70
     1
 40
0
 41
0
  0
VERTEX
  8
0
 10
0.831054
 20
3.62765
 30
0.0
 40
0
 41
0
  0
VERTEX
  8
0
 10
9.62739
 20
3.62765
 30
0.0
 40
0
 41
0
  0
VERTEX
  8
0
 10
9.62739
 20
3.48182
 30
0.0
 40
0
 41
0
  0
VERTEX
  8
0
 10
0.831054
 20
3.48182
 30
0.0
 40
0
 41
0
  0
VERTEX
  8
0
 10
0.831054
 20
3.62765
 30
0.0
 40
0
 41
0
  0
SEQEND
 8
0
  0
POLYLINE
  8
0
 62
     0
 66
     1
 10
0
 20
0
 30
0.0
 70
     1
 40
0.15
 41
0.15
  0
VERTEX
  8
0
 10
0.831054
 20
3.62765
 30
0.0
 40
0.00208333
 41
0.00208333
  0
VERTEX
  8
0
 10
9.62739
 20
3.62765
 30
0.0
 40
0.00208333
 41
0.00208333
  0
VERTEX
  8
0
 10
9.62739
 20
3.48182
 30
0.0
 40
0.00208333
 41
0.00208333
  0
VERTEX
  8
0
 10
0.831054
 20
3.48182
 30
0.0
 40
0.00208333
 41
0.00208333
  0
VERTEX
  8
0
 10
0.831054
 20
3.62765
 30
0.0
 40
0.00208333
 41
0.00208333
  0
SEQEND
 8
0
  0
POLYLINE
  8
0
 62
     7
 66
     1
 10
0
 20
0
 30
0.0
 70
     1
 40
0
 41
0
  0
VERTEX
  8
0
 10
5.49083
 20
3.62765
 30
0.0
 40
0
 41
0
  0
VERTEX
  8
0
 10
6.29085
 20
3.62765
 30
0.0
 40
0
 41
0
  0
VERTEX
  8
0
 10
6.29085
 20
3.48182
 30
0.0
 40
0
 41
0
  0
VERTEX
  8
0
 10
5.49083
 20
3.48182
 30
0.0
 40
0
 41
0
  0
VERTEX
  8
0
 10
5.49083
 20
3.62765
 30
0.0
 40
0
 41
0
  0
SEQEND
 8
0
  0
POLYLINE
  8
0
 62
     0
 66
     1
 10
0
 20
0
 30
0.0
 70
     1
 40
0.75
 41
0.75
  0
VERTEX
  8
0
 10
5.49083
 20
3.62765
 30
0.0
 40
0.0104167
 41
0.0104167
  0
VERTEX
  8
0
 10
6.29085
 20
3.62765
 30
0.0
 40
0.0104167
 41
0.0104167
  0
VERTEX
  8
0
 10
6.29085
 20
3.48182
 30
0.0
 40
0.0104167
 41
0.0104167
  0
VERTEX
  8
0
 10
5.49083
 20
3.48182
 30
0.0
 40
0.0104167
 41
0.0104167
  0
VERTEX
  8
0
 10
5.49083
 20
3.62765
 30
0.0
 40
0.0104167
 41
0.0104167
  0
SEQEND
 8
0
  0
POLYLINE
  8
0
 62
     7
 66
     1
 10
0
 20
0
 30
0.0
 70
     1
 40
0
 41
0
  0
VERTEX
  8
0
 10
5.49083
 20
3.62765
 30
0.0
 40
0
 41
0
  0
VERTEX
  8
0
 10
6.29085
 20
3.62765
 30
0.0
 40
0
 41
0
  0
VERTEX
  8
0
 10
6.29085
 20
3.48182
 30
0.0
 40
0
 41
0
  0
VERTEX
  8
0
 10
5.49083
 20
3.48182
 30
0.0
 40
0
 41
0
  0
VERTEX
  8
0
 10
5.49083
 20
3.62765
 30
0.0
 40
0
 41
0
  0
SEQEND
 8
0
  0
POLYLINE
  8
0
 62
     0
 66
     1
 10
0
 20
0
 30
0.0
 70
     1
 40
0.75
 41
0.75
  0
VERTEX
  8
0
 10
5.49083
 20
3.62765
 30
0.0
 40
0.0104167
 41
0.0104167
  0
VERTEX
  8
0
 10
6.29085
 20
3.62765
 30
0.0
 40
0.0104167
 41
0.0104167
  0
VERTEX
  8
0
 10
6.29085
 20
3.48182
 30
0.0
 40
0.0104167
 41
0.0104167
  0
VERTEX
  8
0
 10
5.49083
 20
3.48182
 30
0.0
 40
0.0104167
 41
0.0104167
  0
VERTEX
  8
0
 10
5.49083
 20
3.62765
 30
0.0
 40
0.0104167
 41
0.0104167
  0
SEQEND
 8
0
  0
POLYLINE
  8
0
 62
     0
 66
     1
 10
0
 20
0
 30
0.0
 70
     1
 40
0.75
 41
0.75
  0
VERTEX
  8
0
 10
5.49083
 20
3.62765
 30
0.0
 40
0.0104167
 41
0.0104167
  0
VERTEX
  8
0
 10
5.49083
 20
3.67458
 30
0.0
 40
0.0104167
 41
0.0104167
  0
VERTEX
  8
0
 10
5.50331
 20
3.81521
 30
0.0
 40
0.0104167
 41
0.0104167
  0
VERTEX
  8
0
 10
5.54081
 20
3.97771
 30
0.0
 40
0.0104167
 41
0.0104167
  0
VERTEX
  8
0
 10
5.60331
 20
4.11518
 30
0.0
 40
0.0104167
 41
0.0104167
  0
VERTEX
  8
0
 10
5.69081
 20
4.22771
 30
0.0
 40
0.0104167
 41
0.0104167
  0
VERTEX
  8
0
 10
5.80333
 20
4.31521
 30
0.0
 40
0.0104167
 41
0.0104167
  0
VERTEX
  8
0
 10
5.94081
 20
4.37771
 30
0.0
 40
0.0104167
 41
0.0104167
  0
VERTEX
  8
0
 10
6.10331
 20
4.41521
 30
0.0
 40
0.0104167
 41
0.0104167
  0
VERTEX
  8
0
 10
6.24393
 20
4.42768
 30
0.0
 40
0.0104167
 41
0.0104167
  0
VERTEX
  8
0
 10
6.29085
 20
4.42768
 30
0.0
 40
0.0104167
 41
0.0104167
  0
VERTEX
  8
0
 10
6.29085
 20
3.62765
 30
0.0
 40
0.0104167
 41
0.0104167
  0
VERTEX
  8
0
 10
5.49083
 20
3.62765
 30
0.0
 40
0.0104167
 41
0.0104167
  0
SEQEND
 8
0
  0
POLYLINE
  8
0
 62
     7
 66
     1
 10
0
 20
0
 30
0.0
 70
     1
 40
0
 41
0
  0
VERTEX
  8
0
 10
6.46511
 20
3.62765
 30
0.0
 40
0
 41
0
  0
VERTEX
  8
0
 10
7.29085
 20
3.62765
 30
0.0
 40
0
 41
0
  0
VERTEX
  8
0
 10
7.29085
 20
3.48182
 30
0.0
 40
0
 41
0
  0
VERTEX
  8
0
 10
6.46511
 20
3.48182
 30
0.0
 40
0
 41
0
  0
VERTEX
  8
0
 10
6.46511
 20
3.62765
 30
0.0
 40
0
 41
0
  0
SEQEND
 8
0
  0
POLYLINE
  8
0
 62
     0
 66
     1
 10
0
 20
0
 30
0.0
 70
     1
 40
0.75
 41
0.75
  0
VERTEX
  8
0
 10
6.46511
 20
3.62765
 30
0.0
 40
0.0104167
 41
0.0104167
  0
VERTEX
  8
0
 10
7.29085
 20
3.62765
 30
0.0
 40
0.0104167
 41
0.0104167
  0
VERTEX
  8
0
 10
7.29085
 20
3.48182
 30
0.0
 40
0.0104167
 41
0.0104167
  0
VERTEX
  8
0
 10
6.46511
 20
3.48182
 30
0.0
 40
0.0104167
 41
0.0104167
  0
VERTEX
  8
0
 10
6.46511
 20
3.62765
 30
0.0
 40
0.0104167
 41
0.0104167
  0
SEQEND
 8
0
  0
POLYLINE
  8
0
 62
     7
 66
     1
 10
0
 20
0
 30
0.0
 70
     1
 40
0
 41
0
  0
VERTEX
  8
0
 10
6.46511
 20
3.62765
 30
0.0
 40
0
 41
0
  0
VERTEX
  8
0
 10
7.29085
 20
3.62765
 30
0.0
 40
0
 41
0
  0
VERTEX
  8
0
 10
7.29085
 20
3.48182
 30
0.0
 40
0
 41
0
  0
VERTEX
  8
0
 10
6.46511
 20
3.48182
 30
0.0
 40
0
 41
0
  0
VERTEX
  8
0
 10
6.46511
 20
3.62765
 30
0.0
 40
0
 41
0
  0
SEQEND
 8
0
  0
POLYLINE
  8
0
 62
     0
 66
     1
 10
0
 20
0
 30
0.0
 70
     1
 40
0.75
 41
0.75
  0
VERTEX
  8
0
 10
6.46511
 20
3.62765
 30
0.0
 40
0.0104167
 41
0.0104167
  0
VERTEX
  8
0
 10
7.29085
 20
3.62765
 30
0.0
 40
0.0104167
 41
0.0104167
  0
VERTEX
  8
0
 10
7.29085
 20
3.48182
 30
0.0
 40
0.0104167
 41
0.0104167
  0
VERTEX
  8
0
 10
6.46511
 20
3.48182
 30
0.0
 40
0.0104167
 41
0.0104167
  0
VERTEX
  8
0
 10
6.46511
 20
3.62765
 30
0.0
 40
0.0104167
 41
0.0104167
  0
SEQEND
 8
0
  0
POLYLINE
  8
0
 62
     0
 66
     1
 10
0
 20
0
 30
0.0
 70
     1
 40
0.75
 41
0.75
  0
VERTEX
  8
0
 10
7.29085
 20
3.62765
 30
0.0
 40
0.0104167
 41
0.0104167
  0
VERTEX
  8
0
 10
7.29085
 20
3.67606
 30
0.0
 40
0.0104167
 41
0.0104167
  0
VERTEX
  8
0
 10
7.27794
 20
3.82124
 30
0.0
 40
0.0104167
 41
0.0104167
  0
VERTEX
  8
0
 10
7.23921
 20
3.98899
 30
0.0
 40
0.0104167
 41
0.0104167
  0
VERTEX
  8
0
 10
7.17469
 20
4.13092
 30
0.0
 40
0.0104167
 41
0.0104167
  0
VERTEX
  8
0
 10
7.08436
 20
4.24707
 30
0.0
 40
0.0104167
 41
0.0104167
  0
VERTEX
  8
0
 10
6.96821
 20
4.3374
 30
0.0
 40
0.0104167
 41
0.0104167
  0
VERTEX
  8
0
 10
6.82628
 20
4.40192
 30
0.0
 40
0.0104167
 41
0.0104167
  0
VERTEX
  8
0
 10
6.65853
 20
4.44065
 30
0.0
 40
0.0104167
 41
0.0104167
  0
VERTEX
  8
0
 10
6.51335
 20
4.4535
 30
0.0
 40
0.0104167
 41
0.0104167
  0
VERTEX
  8
0
 10
6.465
 20
4.4535
 30
0.0
 40
0.0104167
 41
0.0104167
  0
VERTEX
  8
0
 10
6.465
 20
3.62765
 30
0.0
 40
0.0104167
 41
0.0104167
  0
VERTEX
  8
0
 10
7.29085
 20
3.62765
 30
0.0
 40
0.0104167
 41
0.0104167
  0
SEQEND
 8
0
  0
POLYLINE
  8
0
 62
     0
 66
     1
 10
0
 20
0
 30
0.0
 70
     1
 40
0
 41
0
  0
VERTEX
  8
0
 10
6.347
 20
7.52165
 30
0.0
 40
0
 41
0
  0
VERTEX
  8
0
 10
6.4151
 20
7.52165
 30
0.0
 40
0
 41
0
  0
VERTEX
  8
0
 10
6.4151
 20
3.62765
 30
0.0
 40
0
 41
0
  0
VERTEX
  8
0
 10
6.347
 20
3.62765
 30
0.0
 40
0
 41
0
  0
VERTEX
  8
0
 10
6.347
 20
7.52165
 30
0.0
 40
0
 41
0
  0
SEQEND
 8
0
  0
POLYLINE
  8
0
 62
     0
 66
     1
 10
0
 20
0
 30
0.0
 70
     1
 40
0.15
 41
0.15
  0
VERTEX
  8
0
 10
6.347
 20
7.52165
 30
0.0
 40
0.00208333
 41
0.00208333
  0
VERTEX
  8
0
 10
6.4151
 20
7.52165
 30
0.0
 40
0.00208333
 41
0.00208333
  0
VERTEX
  8
0
 10
6.4151
 20
3.62765
 30
0.0
 40
0.00208333
 41
0.00208333
  0
VERTEX
  8
0
 10
6.347
 20
3.62765
 30
0.0
 40
0.00208333
 41
0.00208333
  0
VERTEX
  8
0
 10
6.347
 20
7.52165
 30
0.0
 40
0.00208333
 41
0.00208333
  0
SEQEND
 8
0
  0
POLYLINE
  8
0
 62
     0
 66
     1
 10
0
 20
0
 30
0.0
 70
     1
 40
0
 41
0
  0
VERTEX
  8
0
 10
7.97894
 20
1.54204
 30
0.0
 40
0
 41
0
  0
VERTEX
  8
0
 10
7.97894
 20
1.78321
 30
0.0
 40
0
 41
0
  0
VERTEX
  8
0
 10
8.12478
 20
1.85613
 30
0.0
 40
0
 41
0
  0
VERTEX
  8
0
 10
8.12478
 20
1.54204
 30
0.0
 40
0
 41
0
  0
VERTEX
  8
0
 10
7.97894
 20
1.54204
 30
0.0
 40
0
 41
0
  0
SEQEND
 8
0
  0
POLYLINE
  8
0
 62
     0
 66
     1
 10
0
 20
0
 30
0.0
 70
     1
 40
0.15
 41
0.15
  0
VERTEX
  8
0
 10
7.97894
 20
1.54204
 30
0.0
 40
0.00208333
 41
0.00208333
  0
VERTEX
  8
0
 10
7.97894
 20
1.78321
 30
0.0
 40
0.00208333
 41
0.00208333
  0
VERTEX
  8
0
 10
8.12478
 20
1.85613
 30
0.0
 40
0.00208333
 41
0.00208333
  0
VERTEX
  8
0
 10
8.12478
 20
1.54204
 30
0.0
 40
0.00208333
 41
0.00208333
  0
VERTEX
  8
0
 10
7.97894
 20
1.54204
 30
0.0
 40
0.00208333
 41
0.00208333
  0
SEQEND
 8
0
  0
POLYLINE
  8
0
 62
     0
 66
     1
 10
0
 20
0
 30
0.0
 70
     1
 40
0
 41
0
  0
VERTEX
  8
0
 10
7.97894
 20
1.78321
 30
0.0
 40
0
 41
0
  0
VERTEX
  8
0
 10
4.18343
 20
1.78321
 30
0.0
 40
0
 41
0
  0
VERTEX
  8
0
 10
4.11051
 20
1.85613
 30
0.0
 40
0
 41
0
  0
VERTEX
  8
0
 10
8.12478
 20
1.85613
 30
0.0
 40
0
 41
0
  0
VERTEX
  8
0
 10
7.97894
 20
1.78321
 30
0.0
 40
0
 41
0
  0
SEQEND
 8
0
  0
POLYLINE
  8
0
 62
     0
 66
     1
 10
0
 20
0
 30
0.0
 70
     1
 40
0.15
 41
0.15
  0
VERTEX
  8
0
 10
7.97894
 20
1.78321
 30
0.0
 40
0.00208333
 41
0.00208333
  0
VERTEX
  8
0
 10
4.18343
 20
1.78321
 30
0.0
 40
0.00208333
 41
0.00208333
  0
VERTEX
  8
0
 10
4.11051
 20
1.85613
 30
0.0
 40
0.00208333
 41
0.00208333
  0
VERTEX
  8
0
 10
8.12478
 20
1.85613
 30
0.0
 40
0.00208333
 41
0.00208333
  0
VERTEX
  8
0
 10
7.97894
 20
1.78321
 30
0.0
 40
0.00208333
 41
0.00208333
  0
SEQEND
 8
0
  0
POLYLINE
  8
0
 62
     7
 66
     1
 10
0
 20
0
 30
0.0
 70
     1
 40
0
 41
0
  0
VERTEX
  8
0
 10
6.97467
 20
1.85613
 30
0.0
 40
0
 41
0
  0
VERTEX
  8
0
 10
7.58763
 20
1.85613
 30
0.0
 40
0
 41
0
  0
VERTEX
  8
0
 10
7.58763
 20
1.78321
 30
0.0
 40
0
 41
0
  0
VERTEX
  8
0
 10
6.97467
 20
1.78321
 30
0.0
 40
0
 41
0
  0
VERTEX
  8
0
 10
6.97467
 20
1.85613
 30
0.0
 40
0
 41
0
  0
SEQEND
 8
0
  0
POLYLINE
  8
0
 62
     0
 66
     1
 10
0
 20
0
 30
0.0
 70
     1
 40
0.75
 41
0.75
  0
VERTEX
  8
0
 10
6.97467
 20
1.85613
 30
0.0
 40
0.0104167
 41
0.0104167
  0
VERTEX
  8
0
 10
7.58763
 20
1.85613
 30
0.0
 40
0.0104167
 41
0.0104167
  0
VERTEX
  8
0
 10
7.58763
 20
1.78321
 30
0.0
 40
0.0104167
 41
0.0104167
  0
VERTEX
  8
0
 10
6.97467
 20
1.78321
 30
0.0
 40
0.0104167
 41
0.0104167
  0
VERTEX
  8
0
 10
6.97467
 20
1.85613
 30
0.0
 40
0.0104167
 41
0.0104167
  0
SEQEND
 8
0
  0
POLYLINE
  8
0
 62
     7
 66
     1
 10
0
 20
0
 30
0.0
 70
     1
 40
0
 41
0
  0
VERTEX
  8
0
 10
6.97467
 20
1.85613
 30
0.0
 40
0
 41
0
  0
VERTEX
  8
0
 10
7.58763
 20
1.85613
 30
0.0
 40
0
 41
0
  0
VERTEX
  8
0
 10
7.58763
 20
1.78321
 30
0.0
 40
0
 41
0
  0
VERTEX
  8
0
 10
6.97467
 20
1.78321
 30
0.0
 40
0
 41
0
  0
VERTEX
  8
0
 10
6.97467
 20
1.85613
 30
0.0
 40
0
 41
0
  0
SEQEND
 8
0
  0
POLYLINE
  8
0
 62
     0
 66
     1
 10
0
 20
0
 30
0.0
 70
     1
 40
0.75
 41
0.75
  0
VERTEX
  8
0
 10
6.97467
 20
1.85613
 30
0.0
 40
0.0104167
 41
0.0104167
  0
VERTEX
  8
0
 10
7.58763
 20
1.85613
 30
0.0
 40
0.0104167
 41
0.0104167
  0
VERTEX
  8
0
 10
7.58763
 20
1.78321
 30
0.0
 40
0.0104167
 41
0.0104167
  0
VERTEX
  8
0
 10
6.97467
 20
1.78321
 30
0.0
 40
0.0104167
 41
0.0104167
  0
VERTEX
  8
0
 10
6.97467
 20
1.85613
 30
0.0
 40
0.0104167
 41
0.0104167
  0
SEQEND
 8
0
  0
POLYLINE
  8
0
 62
     0
 66
     1
 10
0
 20
0
 30
0.0
 70
     1
 40
0.75
 41
0.75
  0
VERTEX
  8
0
 10
6.97467
 20
1.85613
 30
0.0
 40
0.0104167
 41
0.0104167
  0
VERTEX
  8
0
 10
6.97467
 20
1.89204
 30
0.0
 40
0.0104167
 41
0.0104167
  0
VERTEX
  8
0
 10
6.98421
 20
1.99978
 30
0.0
 40
0.0104167
 41
0.0104167
  0
VERTEX
  8
0
 10
7.01297
 20
2.12429
 30
0.0
 40
0.0104167
 41
0.0104167
  0
VERTEX
  8
0
 10
7.06082
 20
2.2296
 30
0.0
 40
0.0104167
 41
0.0104167
  0
VERTEX
  8
0
 10
7.12787
 20
2.31581
 30
0.0
 40
0.0104167
 41
0.0104167
  0
VERTEX
  8
0
 10
7.21408
 20
2.38286
 30
0.0
 40
0.0104167
 41
0.0104167
  0
VERTEX
  8
0
 10
7.31944
 20
2.43072
 30
0.0
 40
0.0104167
 41
0.0104167
  0
VERTEX
  8
0
 10
7.44396
 20
2.45947
 30
0.0
 40
0.0104167
 41
0.0104167
  0
VERTEX
  8
0
 10
7.55171
 20
2.46903
 30
0.0
 40
0.0104167
 41
0.0104167
  0
VERTEX
  8
0
 10
7.58763
 20
2.46903
 30
0.0
 40
0.0104167
 41
0.0104167
  0
VERTEX
  8
0
 10
7.58763
 20
1.85613
 30
0.0
 40
0.0104167
 41
0.0104167
  0
VERTEX
  8
0
 10
6.97467
 20
1.85613
 30
0.0
 40
0.0104167
 41
0.0104167
  0
SEQEND
 8
0
  0
POLYLINE
  8
0
 62
     7
 66
     1
 10
0
 20
0
 30
0.0
 70
     1
 40
0
 41
0
  0
VERTEX
  8
0
 10
5.14253
 20
1.85613
 30
0.0
 40
0
 41
0
  0
VERTEX
  8
0
 10
5.76833
 20
1.85613
 30
0.0
 40
0
 41
0
  0
VERTEX
  8
0
 10
5.76833
 20
1.78321
 30
0.0
 40
0
 41
0
  0
VERTEX
  8
0
 10
5.14253
 20
1.78321
 30
0.0
 40
0
 41
0
  0
VERTEX
  8
0
 10
5.14253
 20
1.85613
 30
0.0
 40
0
 41
0
  0
SEQEND
 8
0
  0
POLYLINE
  8
0
 62
     0
 66
     1
 10
0
 20
0
 30
0.0
 70
     1
 40
0.75
 41
0.75
  0
VERTEX
  8
0
 10
5.14253
 20
1.85613
 30
0.0
 40
0.0104167
 41
0.0104167
  0
VERTEX
  8
0
 10
5.76833
 20
1.85613
 30
0.0
 40
0.0104167
 41
0.0104167
  0
VERTEX
  8
0
 10
5.76833
 20
1.78321
 30
0.0
 40
0.0104167
 41
0.0104167
  0
VERTEX
  8
0
 10
5.14253
 20
1.78321
 30
0.0
 40
0.0104167
 41
0.0104167
  0
VERTEX
  8
0
 10
5.14253
 20
1.85613
 30
0.0
 40
0.0104167
 41
0.0104167
  0
SEQEND
 8
0
  0
POLYLINE
  8
0
 62
     7
 66
     1
 10
0
 20
0
 30
0.0
 70
     1
 40
0
 41
0
  0
VERTEX
  8
0
 10
5.14253
 20
1.85613
 30
0.0
 40
0
 41
0
  0
VERTEX
  8
0
 10
5.76833
 20
1.85613
 30
0.0
 40
0
 41
0
  0
VERTEX
  8
0
 10
5.76833
 20
1.78321
 30
0.0
 40
0
 41
0
  0
VERTEX
  8
0
 10
5.14253
 20
1.78321
 30
0.0
 40
0
 41
0
  0
VERTEX
  8
0
 10
5.14253
 20
1.85613
 30
0.0
 40
0
 41
0
  0
SEQEND
 8
0
  0
POLYLINE
  8
0
 62
     0
 66
     1
 10
0
 20
0
 30
0.0
 70
     1
 40
0.75
 41
0.75
  0
VERTEX
  8
0
 10
5.14253
 20
1.85613
 30
0.0
 40
0.0104167
 41
0.0104167
  0
VERTEX
  8
0
 10
5.76833
 20
1.85613
 30
0.0
 40
0.0104167
 41
0.0104167
  0
VERTEX
  8
0
 10
5.76833
 20
1.78321
 30
0.0
 40
0.0104167
 41
0.0104167
  0
VERTEX
  8
0
 10
5.14253
 20
1.78321
 30
0.0
 40
0.0104167
 41
0.0104167
  0
VERTEX
  8
0
 10
5.14253
 20
1.85613
 30
0.0
 40
0.0104167
 41
0.0104167
  0
SEQEND
 8
0
  0
POLYLINE
  8
0
 62
     0
 66
     1
 10
0
 20
0
 30
0.0
 70
     1
 40
0.75
 41
0.75
  0
VERTEX
  8
0
 10
5.76833
 20
1.85613
 30
0.0
 40
0.0104167
 41
0.0104167
  0
VERTEX
  8
0
 10
5.76833
 20
1.89279
 30
0.0
 40
0.0104167
 41
0.0104167
  0
VERTEX
  8
0
 10
5.75851
 20
2.00282
 30
0.0
 40
0.0104167
 41
0.0104167
  0
VERTEX
  8
0
 10
5.72922
 20
2.12993
 30
0.0
 40
0.0104167
 41
0.0104167
  0
VERTEX
  8
0
 10
5.68028
 20
2.23753
 30
0.0
 40
0.0104167
 41
0.0104167
  0
VERTEX
  8
0
 10
5.61187
 20
2.32553
 30
0.0
 40
0.0104167
 41
0.0104167
  0
VERTEX
  8
0
 10
5.52387
 20
2.39393
 30
0.0
 40
0.0104167
 41
0.0104167
  0
VERTEX
  8
0
 10
5.41629
 20
2.44287
 30
0.0
 40
0.0104167
 41
0.0104167
  0
VERTEX
  8
0
 10
5.28917
 20
2.47217
 30
0.0
 40
0.0104167
 41
0.0104167
  0
VERTEX
  8
0
 10
5.17914
 20
2.48193
 30
0.0
 40
0.0104167
 41
0.0104167
  0
VERTEX
  8
0
 10
5.14253
 20
2.48193
 30
0.0
 40
0.0104167
 41
0.0104167
  0
VERTEX
  8
0
 10
5.14253
 20
1.85613
 30
0.0
 40
0.0104167
 41
0.0104167
  0
VERTEX
  8
0
 10
5.76833
 20
1.85613
 30
0.0
 40
0.0104167
 41
0.0104167
  0
SEQEND
 8
0
  0
POLYLINE
  8
0
 62
     0
 66
     1
 10
0
 20
0
 30
0.0
 70
     1
 40
0
 41
0
  0
VERTEX
  8
0
 10
4.18343
 20
1.78321
 30
0.0
 40
0
 41
0
  0
VERTEX
  8
0
 10
4.18343
 20
0.149957
 30
0.0
 40
0
 41
0
  0
VERTEX
  8
0
 10
4.11051
 20
0.149957
 30
0.0
 40
0
 41
0
  0
VERTEX
  8
0
 10
4.11051
 20
1.85613
 30
0.0
 40
0
 41
0
  0
VERTEX
  8
0
 10
4.18343
 20
1.78321
 30
0.0
 40
0
 41
0
  0
SEQEND
 8
0
  0
POLYLINE
  8
0
 62
     0
 66
     1
 10
0
 20
0
 30
0.0
 70
     1
 40
0.15
 41
0.15
  0
VERTEX
  8
0
 10
4.18343
 20
1.78321
 30
0.0
 40
0.00208333
 41
0.00208333
  0
VERTEX
  8
0
 10
4.18343
 20
0.149957
 30
0.0
 40
0.00208333
 41
0.00208333
  0
VERTEX
  8
0
 10
4.11051
 20
0.149957
 30
0.0
 40
0.00208333
 41
0.00208333
  0
VERTEX
  8
0
 10
4.11051
 20
1.85613
 30
0.0
 40
0.00208333
 41
0.00208333
  0
VERTEX
  8
0
 10
4.18343
 20
1.78321
 30
0.0
 40
0.00208333
 41
0.00208333
  0
SEQEND
 8
0
  0
POLYLINE
  8
0
 62
     0
 66
     1
 10
0
 20
0
 30
0.0
 70
     1
 40
0
 41
0
  0
VERTEX
  8
0
 10
6.43658
 20
1.78321
 30
0.0
 40
0
 41
0
  0
VERTEX
  8
0
 10
6.5095
 20
1.78321
 30
0.0
 40
0
 41
0
  0
VERTEX
  8
0
 10
6.5095
 20
0.149957
 30
0.0
 40
0
 41
0
  0
VERTEX
  8
0
 10
6.43658
 20
0.149957
 30
0.0
 40
0
 41
0
  0
VERTEX
  8
0
 10
6.43658
 20
1.78321
 30
0.0
 40
0
 41
0
  0
SEQEND
 8
0
  0
POLYLINE
  8
0
 62
     0
 66
     1
 10
0
 20
0
 30
0.0
 70
     1
 40
0.15
 41
0.15
  0
VERTEX
  8
0
 10
6.43658
 20
1.78321
 30
0.0
 40
0.00208333
 41
0.00208333
  0
VERTEX
  8
0
 10
6.5095
 20
1.78321
 30
0.0
 40
0.00208333
 41
0.00208333
  0
VERTEX
  8
0
 10
6.5095
 20
0.149957
 30
0.0
 40
0.00208333
 41
0.00208333
  0
VERTEX
  8
0
 10
6.43658
 20
0.149957
 30
0.0
 40
0.00208333
 41
0.00208333
  0
VERTEX
  8
0
 10
6.43658
 20
1.78321
 30
0.0
 40
0.00208333
 41
0.00208333
  0
SEQEND
 8
0
  0
POLYLINE
  8
0
 62
     0
 66
     1
 10
0
 20
0
 30
0.0
 70
     1
 40
0
 41
0
  0
VERTEX
  8
0
 10
3.76053
 20
1.85613
 30
0.0
 40
0
 41
0
  0
VERTEX
  8
0
 10
4.11051
 20
1.85613
 30
0.0
 40
0
 41
0
  0
VERTEX
  8
0
 10
4.11051
 20
0.149957
 30
0.0
 40
0
 41
0
  0
VERTEX
  8
0
 10
3.76053
 20
0.149957
 30
0.0
 40
0
 41
0
  0
VERTEX
  8
0
 10
3.76053
 20
1.85613
 30
0.0
 40
0
 41
0
  0
SEQEND
 8
0
  0
POLYLINE
  8
0
 62
     0
 66
     1
 10
0
 20
0
 30
0.0
 70
     1
 40
0
 41
0
  0
VERTEX
  8
0
 10
4.84782
 20
3.48182
 30
0.0
 40
0
 41
0
  0
VERTEX
  8
0
 10
4.92074
 20
3.48182
 30
0.0
 40
0
 41
0
  0
VERTEX
  8
0
 10
4.92074
 20
1.85613
 30
0.0
 40
0
 41
0
  0
VERTEX
  8
0
 10
4.84782
 20
1.85613
 30
0.0
 40
0
 41
0
  0
VERTEX
  8
0
 10
4.84782
 20
3.48182
 30
0.0
 40
0
 41
0
  0
SEQEND
 8
0
  0
POLYLINE
  8
0
 62
     0
 66
     1
 10
0
 20
0
 30
0.0
 70
     1
 40
0.15
 41
0.15
  0
VERTEX
  8
0
 10
4.84782
 20
3.48182
 30
0.0
 40
0.00208333
 41
0.00208333
  0
VERTEX
  8
0
 10
4.92074
 20
3.48182
 30
0.0
 40
0.00208333
 41
0.00208333
  0
VERTEX
  8
0
 10
4.92074
 20
1.85613
 30
0.0
 40
0.00208333
 41
0.00208333
  0
VERTEX
  8
0
 10
4.84782
 20
1.85613
 30
0.0
 40
0.00208333
 41
0.00208333
  0
VERTEX
  8
0
 10
4.84782
 20
3.48182
 30
0.0
 40
0.00208333
 41
0.00208333
  0
SEQEND
 8
0
  0
POLYLINE
  8
0
 62
     7
 66
     1
 10
0
 20
0
 30
0.0
 70
     1
 40
0
 41
0
  0
VERTEX
  8
0
 10
4.84782
 20
3.41319
 30
0.0
 40
0
 41
0
  0
VERTEX
  8
0
 10
4.92074
 20
3.41319
 30
0.0
 40
0
 41
0
  0
VERTEX
  8
0
 10
4.92074
 20
2.581
 30
0.0
 40
0
 41
0
  0
VERTEX
  8
0
 10
4.84782
 20
2.581
 30
0.0
 40
0
 41
0
  0
VERTEX
  8
0
 10
4.84782
 20
3.41319
 30
0.0
 40
0
 41
0
  0
SEQEND
 8
0
  0
POLYLINE
  8
0
 62
     0
 66
     1
 10
0
 20
0
 30
0.0
 70
     1
 40
0.75
 41
0.75
  0
VERTEX
  8
0
 10
4.84782
 20
3.41319
 30
0.0
 40
0.0104167
 41
0.0104167
  0
VERTEX
  8
0
 10
4.92074
 20
3.41319
 30
0.0
 40
0.0104167
 41
0.0104167
  0
VERTEX
  8
0
 10
4.92074
 20
2.581
 30
0.0
 40
0.0104167
 41
0.0104167
  0
VERTEX
  8
0
 10
4.84782
 20
2.581
 30
0.0
 40
0.0104167
 41
0.0104167
  0
VERTEX
  8
0
 10
4.84782
 20
3.41319
 30
0.0
 40
0.0104167
 41
0.0104167
  0
SEQEND
 8
0
  0
POLYLINE
  8
0
 62
     7
 66
     1
 10
0
 20
0
 30
0.0
 70
     1
 40
0
 41
0
  0
VERTEX
  8
0
 10
4.84782
 20
3.41319
 30
0.0
 40
0
 41
0
  0
VERTEX
  8
0
 10
4.92074
 20
3.41319
 30
0.0
 40
0
 41
0
  0
VERTEX
  8
0
 10
4.92074
 20
2.581
 30
0.0
 40
0
 41
0
  0
VERTEX
  8
0
 10
4.84782
 20
2.581
 30
0.0
 40
0
 41
0
  0
VERTEX
  8
0
 10
4.84782
 20
3.41319
 30
0.0
 40
0
 41
0
  0
SEQEND
 8
0
  0
POLYLINE
  8
0
 62
     0
 66
     1
 10
0
 20
0
 30
0.0
 70
     1
 40
0.75
 41
0.75
  0
VERTEX
  8
0
 10
4.84782
 20
3.41319
 30
0.0
 40
0.0104167
 41
0.0104167
  0
VERTEX
  8
0
 10
4.92074
 20
3.41319
 30
0.0
 40
0.0104167
 41
0.0104167
  0
VERTEX
  8
0
 10
4.92074
 20
2.581
 30
0.0
 40
0.0104167
 41
0.0104167
  0
VERTEX
  8
0
 10
4.84782
 20
2.581
 30
0.0
 40
0.0104167
 41
0.0104167
  0
VERTEX
  8
0
 10
4.84782
 20
3.41319
 30
0.0
 40
0.0104167
 41
0.0104167
  0
SEQEND
 8
0
  0
POLYLINE
  8
0
 62
     0
 66
     1
 10
0
 20
0
 30
0.0
 70
     1
 40
0.75
 41
0.75
  0
VERTEX
  8
0
 10
4.84782
 20
2.581
 30
0.0
 40
0.0104167
 41
0.0104167
  0
VERTEX
  8
0
 10
4.79904
 20
2.581
 30
0.0
 40
0.0104167
 41
0.0104167
  0
VERTEX
  8
0
 10
4.65272
 20
2.59403
 30
0.0
 40
0.0104167
 41
0.0104167
  0
VERTEX
  8
0
 10
4.48367
 20
2.63303
 30
0.0
 40
0.0104167
 41
0.0104167
  0
VERTEX
  8
0
 10
4.3406
 20
2.69808
 30
0.0
 40
0.0104167
 41
0.0104167
  0
VERTEX
  8
0
 10
4.22358
 20
2.78911
 30
0.0
 40
0.0104167
 41
0.0104167
  0
VERTEX
  8
0
 10
4.13254
 20
2.90614
 30
0.0
 40
0.0104167
 41
0.0104167
  0
VERTEX
  8
0
 10
4.06749
 20
3.04921
 30
0.0
 40
0.0104167
 41
0.0104167
  0
VERTEX
  8
0
 10
4.02849
 20
3.21826
 30
0.0
 40
0.0104167
 41
0.0104167
  0
VERTEX
  8
0
 10
4.01551
 20
3.36458
 30
0.0
 40
0.0104167
 41
0.0104167
  0
VERTEX
  8
0
 10
4.01551
 20
3.41331
 30
0.0
 40
0.0104167
 41
0.0104167
  0
VERTEX
  8
0
 10
4.84782
 20
3.41331
 30
0.0
 40
0.0104167
 41
0.0104167
  0
VERTEX
  8
0
 10
4.84782
 20
2.581
 30
0.0
 40
0.0104167
 41
0.0104167
  0
SEQEND
 8
0
  0
POLYLINE
  8
0
 62
     0
 66
     1
 10
0
 20
0
 30
0.0
 70
     1
 40
0
 41
0
  0
VERTEX
  8
0
 10
3.72499
 20
9.52257
 30
0.0
 40
0
 41
0
  0
VERTEX
  8
0
 10
6.80138
 20
9.52257
 30
0.0
 40
0
 41
0
  0
VERTEX
  8
0
 10
6.65554
 20
9.44965
 30
0.0
 40
0
 41
0
  0
VERTEX
  8
0
 10
3.87082
 20
9.44965
 30
0.0
 40
0
 41
0
  0
VERTEX
  8
0
 10
3.72499
 20
9.52257
 30
0.0
 40
0
 41
0
  0
SEQEND
 8
0
  0
POLYLINE
  8
0
 62
     0
 66
     1
 10
0
 20
0
 30
0.0
 70
     1
 40
0.15
 41
0.15
  0
VERTEX
  8
0
 10
3.72499
 20
9.52257
 30
0.0
 40
0.00208333
 41
0.00208333
  0
VERTEX
  8
0
 10
6.80138
 20
9.52257
 30
0.0
 40
0.00208333
 41
0.00208333
  0
VERTEX
  8
0
 10
6.65554
 20
9.44965
 30
0.0
 40
0.00208333
 41
0.00208333
  0
VERTEX
  8
0
 10
3.87082
 20
9.44965
 30
0.0
 40
0.00208333
 41
0.00208333
  0
VERTEX
  8
0
 10
3.72499
 20
9.52257
 30
0.0
 40
0.00208333
 41
0.00208333
  0
SEQEND
 8
0
  0
POLYLINE
  8
0
 62
     7
 66
     1
 10
0
 20
0
 30
0.0
 70
     1
 40
0
 41
0
  0
VERTEX
  8
0
 10
3.93593
 20
9.52257
 30
0.0
 40
0
 41
0
  0
VERTEX
  8
0
 10
6.60688
 20
9.52257
 30
0.0
 40
0
 41
0
  0
VERTEX
  8
0
 10
6.60688
 20
9.44965
 30
0.0
 40
0
 41
0
  0
VERTEX
  8
0
 10
3.93593
 20
9.44965
 30
0.0
 40
0
 41
0
  0
VERTEX
  8
0
 10
3.93593
 20
9.52257
 30
0.0
 40
0
 41
0
  0
SEQEND
 8
0
  0
POLYLINE
  8
0
 62
     0
 66
     1
 10
0
 20
0
 30
0.0
 70
     1
 40
0.75
 41
0.75
  0
VERTEX
  8
0
 10
3.93593
 20
9.52257
 30
0.0
 40
0.0104167
 41
0.0104167
  0
VERTEX
  8
0
 10
6.60688
 20
9.52257
 30
0.0
 40
0.0104167
 41
0.0104167
  0
VERTEX
  8
0
 10
6.60688
 20
9.44965
 30
0.0
 40
0.0104167
 41
0.0104167
  0
VERTEX
  8
0
 10
3.93593
 20
9.44965
 30
0.0
 40
0.0104167
 41
0.0104167
  0
VERTEX
  8
0
 10
3.93593
 20
9.52257
 30
0.0
 40
0.0104167
 41
0.0104167
  0
SEQEND
 8
0
  0
POLYLINE
  8
0
 62
     7
 66
     1
 10
0
 20
0
 30
0.0
 70
     1
 40
0
 41
0
  0
VERTEX
  8
0
 10
3.93593
 20
9.52257
 30
0.0
 40
0
 41
0
  0
VERTEX
  8
0
 10
6.60688
 20
9.52257
 30
0.0
 40
0
 41
0
  0
VERTEX
  8
0
 10
6.60688
 20
9.44965
 30
0.0
 40
0
 41
0
  0
VERTEX
  8
0
 10
3.93593
 20
9.44965
 30
0.0
 40
0
 41
0
  0
VERTEX
  8
0
 10
3.93593
 20
9.52257
 30
0.0
 40
0
 41
0
  0
SEQEND
 8
0
  0
POLYLINE
  8
0
 62
     0
 66
     1
 10
0
 20
0
 30
0.0
 70
     1
 40
0.75
 41
0.75
  0
VERTEX
  8
0
 10
3.93593
 20
9.52257
 30
0.0
 40
0.0104167
 41
0.0104167
  0
VERTEX
  8
0
 10
6.60688
 20
9.52257
 30
0.0
 40
0.0104167
 41
0.0104167
  0
VERTEX
  8
0
 10
6.60688
 20
9.44965
 30
0.0
 40
0.0104167
 41
0.0104167
  0
VERTEX
  8
0
 10
3.93593
 20
9.44965
 30
0.0
 40
0.0104167
 41
0.0104167
  0
VERTEX
  8
0
 10
3.93593
 20
9.52257
 30
0.0
 40
0.0104167
 41
0.0104167
  0
SEQEND
 8
0
  0
POLYLINE
  8
0
 62
     0
 66
     1
 10
0
 20
0
 30
0.0
 40
0.75
 41
0.75
  0
VERTEX
  8
0
 10
4.01411
 20
9.48611
 30
0.0
 40
0.0104167
 41
0.0104167
  0
VERTEX
  8
0
 10
6.52875
 20
9.48611
 30
0.0
 40
0.0104167
 41
0.0104167
  0
SEQEND
 8
0
  0
POLYLINE
  8
0
 62
     0
 66
     1
 10
0
 20
0
 30
0.0
 40
0.75
 41
0.75
  0
VERTEX
  8
0
 10
4.01411
 20
9.52257
 30
0.0
 40
0.0104167
 41
0.0104167
  0
VERTEX
  8
0
 10
4.01411
 20
9.44965
 30
0.0
 40
0.0104167
 41
0.0104167
  0
SEQEND
 8
0
  0
POLYLINE
  8
0
 62
     0
 66
     1
 10
0
 20
0
 30
0.0
 40
0.75
 41
0.75
  0
VERTEX
  8
0
 10
6.52875
 20
9.52257
 30
0.0
 40
0.0104167
 41
0.0104167
  0
VERTEX
  8
0
 10
6.52875
 20
9.44965
 30
0.0
 40
0.0104167
 41
0.0104167
  0
SEQEND
 8
0
  0
POLYLINE
  8
0
 62
     7
 66
     1
 10
0
 20
0
 30
0.0
 70
     1
 40
0
 41
0
  0
VERTEX
  8
0
 10
7.54562
 20
1.78321
 30
0.0
 40
0
 41
0
  0
VERTEX
  8
0
 10
7.97894
 20
1.78321
 30
0.0
 40
0
 41
0
  0
VERTEX
  8
0
 10
7.97894
 20
0.149957
 30
0.0
 40
0
 41
0
  0
VERTEX
  8
0
 10
7.54562
 20
0.149957
 30
0.0
 40
0
 41
0
  0
VERTEX
  8
0
 10
7.54562
 20
1.78321
 30
0.0
 40
0
 41
0
  0
SEQEND
 8
0
  0
POLYLINE
  8
0
 62
     0
 66
     1
 10
0
 20
0
 30
0.0
 70
     1
 40
0.75
 41
0.75
  0
VERTEX
  8
0
 10
7.54562
 20
1.78321
 30
0.0
 40
0.0104167
 41
0.0104167
  0
VERTEX
  8
0
 10
7.54562
 20
0.149957
 30
0.0
 40
0.0104167
 41
0.0104167
  0
VERTEX
  8
0
 10
7.97894
 20
0.149957
 30
0.0
 40
0.0104167
 41
0.0104167
  0
VERTEX
  8
0
 10
7.97894
 20
1.78321
 30
0.0
 40
0.0104167
 41
0.0104167
  0
VERTEX
  8
0
 10
7.54562
 20
1.78321
 30
0.0
 40
0.0104167
 41
0.0104167
  0
SEQEND
 8
0
  0
POLYLINE
  8
0
 62
     7
 66
     1
 10
0
 20
0
 30
0.0
 70
     1
 40
0
 41
0
  0
VERTEX
  8
0
 10
6.50944
 20
1.78315
 30
0.0
 40
0
 41
0
  0
VERTEX
  8
0
 10
6.99349
 20
1.78315
 30
0.0
 40
0
 41
0
  0
VERTEX
  8
0
 10
6.99349
 20
0.149957
 30
0.0
 40
0
 41
0
  0
VERTEX
  8
0
 10
6.50944
 20
0.149957
 30
0.0
 40
0
 41
0
  0
VERTEX
  8
0
 10
6.50944
 20
1.78315
 30
0.0
 40
0
 41
0
  0
SEQEND
 8
0
  0
POLYLINE
  8
0
 62
     0
 66
     1
 10
0
 20
0
 30
0.0
 70
     1
 40
0.75
 41
0.75
  0
VERTEX
  8
0
 10
6.50944
 20
1.78315
 30
0.0
 40
0.0104167
 41
0.0104167
  0
VERTEX
  8
0
 10
6.50944
 20
0.149957
 30
0.0
 40
0.0104167
 41
0.0104167
  0
VERTEX
  8
0
 10
6.99349
 20
0.149957
 30
0.0
 40
0.0104167
 41
0.0104167
  0
VERTEX
  8
0
 10
6.99349
 20
1.78315
 30
0.0
 40
0.0104167
 41
0.0104167
  0
VERTEX
  8
0
 10
6.50944
 20
1.78315
 30
0.0
 40
0.0104167
 41
0.0104167
  0
SEQEND
 8
0
  0
POLYLINE
  8
0
 62
     253
 66
     1
 10
0
 20
0
 30
0.0
 40
0.75
 41
0.75
  0
VERTEX
  8
0
 10
6.75146
 20
0.149957
 30
0.0
 40
0.0104167
 41
0.0104167
  0
VERTEX
  8
0
 10
6.75146
 20
1.78321
 30
0.0
 40
0.0104167
 41
0.0104167
  0
SEQEND
 8
0
  0
POLYLINE
  8
0
 62
     7
 66
     1
 10
0
 20
0
 30
0.0
 70
     1
 40
0
 41
0
  0
VERTEX
  8
0
 10
4.18869
 20
1.57146
 30
0.0
 40
0
 41
0
  0
VERTEX
  8
0
 10
4.37597
 20
1.57146
 30
0.0
 40
0
 41
0
  0
VERTEX
  8
0
 10
4.37597
 20
1.15489
 30
0.0
 40
0
 41
0
  0
VERTEX
  8
0
 10
4.18869
 20
1.15489
 30
0.0
 40
0
 41
0
  0
VERTEX
  8
0
 10
4.18869
 20
1.57146
 30
0.0
 40
0
 41
0
  0
SEQEND
 8
0
  0
POLYLINE
  8
0
 62
     0
 66
     1
 10
0
 20
0
 30
0.0
 70
     1
 40
0.75
 41
0.75
  0
VERTEX
  8
0
 10
4.18869
 20
1.57146
 30
0.0
 40
0.0104167
 41
0.0104167
  0
VERTEX
  8
0
 10
4.18869
 20
1.15489
 30
0.0
 40
0.0104167
 41
0.0104167
  0
VERTEX
  8
0
 10
4.37597
 20
1.15489
 30
0.0
 40
0.0104167
 41
0.0104167
  0
VERTEX
  8
0
 10
4.37597
 20
1.57146
 30
0.0
 40
0.0104167
 41
0.0104167
  0
VERTEX
  8
0
 10
4.18869
 20
1.57146
 30
0.0
 40
0.0104167
 41
0.0104167
  0
SEQEND
 8
0
  0
POLYLINE
  8
0
 62
     7
 66
     1
 10
0
 20
0
 30
0.0
 70
     1
 40
0
 41
0
  0
VERTEX
  8
0
 10
4.64426
 20
1.57146
 30
0.0
 40
0
 41
0
  0
VERTEX
  8
0
 10
4.64426
 20
1.57146
 30
0.0
 40
0
 41
0
  0
VERTEX
  8
0
 10
4.65597
 20
1.57156
 30
0.0
 40
0
 41
0
  0
VERTEX
  8
0
 10
4.68696
 20
1.56993
 30
0.0
 40
0
 41
0
  0
VERTEX
  8
0
 10
4.73079
 20
1.56381
 30
0.0
 40
0
 41
0
  0
VERTEX
  8
0
 10
4.78103
 20
1.5504
 30
0.0
 40
0
 41
0
  0
VERTEX
  8
0
 10
4.83128
 20
1.52686
 30
0.0
 40
0
 41
0
  0
VERTEX
  8
0
 10
4.87511
 20
1.4904
 30
0.0
 40
0
 41
0
  0
VERTEX
  8
0
 10
4.90608
 20
1.43821
 30
0.0
 40
0
 41
0
  0
VERTEX
  8
0
 10
4.91786
 20
1.38515
 30
0.0
 40
0
 41
0
  0
VERTEX
  8
0
 10
4.91786
 20
1.36746
 30
0.0
 40
0
 41
0
  0
VERTEX
  8
0
 10
4.91786
 20
1.34918
 30
0.0
 40
0
 41
0
  0
VERTEX
  8
0
 10
4.90608
 20
1.29432
 30
0.0
 40
0
 41
0
  0
VERTEX
  8
0
 10
4.87511
 20
1.24029
 30
0.0
 40
0
 41
0
  0
VERTEX
  8
0
 10
4.83128
 20
1.20247
 30
0.0
 40
0
 41
0
  0
VERTEX
  8
0
 10
4.78103
 20
1.17801
 30
0.0
 40
0
 41
0
  0
VERTEX
  8
0
 10
4.73079
 20
1.16401
 30
0.0
 40
0
 41
0
  0
VERTEX
  8
0
 10
4.68696
 20
1.15761
 30
0.0
 40
0
 41
0
  0
VERTEX
  8
0
 10
4.65597
 20
1.15587
 30
0.0
 40
0
 41
0
  0
VERTEX
  8
0
 10
4.64426
 20
1.15593
 30
0.0
 40
0
 41
0
  0
VERTEX
  8
0
 10
4.64426
 20
1.15593
 30
0.0
 40
0
 41
0
  0
VERTEX
  8
0
 10
4.37597
 20
1.15489
 30
0.0
 40
0
 41
0
  0
VERTEX
  8
0
 10
4.37597
 20
1.57146
 30
0.0
 40
0
 41
0
  0
VERTEX
  8
0
 10
4.64426
 20
1.57146
 30
0.0
 40
0
 41
0
  0
SEQEND
 8
0
  0
POLYLINE
  8
0
 62
     0
 66
     1
 10
0
 20
0
 30
0.0
 70
     1
 40
0.75
 41
0.75
  0
VERTEX
  8
0
 10
4.64426
 20
1.57146
 30
0.0
 40
0.0104167
 41
0.0104167
  0
VERTEX
  8
0
 10
4.64426
 20
1.57146
 30
0.0
 40
0.0104167
 41
0.0104167
  0
VERTEX
  8
0
 10
4.65597
 20
1.57156
 30
0.0
 40
0.0104167
 41
0.0104167
  0
VERTEX
  8
0
 10
4.68696
 20
1.56993
 30
0.0
 40
0.0104167
 41
0.0104167
  0
VERTEX
  8
0
 10
4.73079
 20
1.56381
 30
0.0
 40
0.0104167
 41
0.0104167
  0
VERTEX
  8
0
 10
4.78103
 20
1.5504
 30
0.0
 40
0.0104167
 41
0.0104167
  0
VERTEX
  8
0
 10
4.83128
 20
1.52686
 30
0.0
 40
0.0104167
 41
0.0104167
  0
VERTEX
  8
0
 10
4.87511
 20
1.4904
 30
0.0
 40
0.0104167
 41
0.0104167
  0
VERTEX
  8
0
 10
4.90608
 20
1.43821
 30
0.0
 40
0.0104167
 41
0.0104167
  0
VERTEX
  8
0
 10
4.91786
 20
1.38515
 30
0.0
 40
0.0104167
 41
0.0104167
  0
VERTEX
  8
0
 10
4.91786
 20
1.36746
 30
0.0
 40
0.0104167
 41
0.0104167
  0
VERTEX
  8
0
 10
4.91786
 20
1.34918
 30
0.0
 40
0.0104167
 41
0.0104167
  0
VERTEX
  8
0
 10
4.90608
 20
1.29432
 30
0.0
 40
0.0104167
 41
0.0104167
  0
VERTEX
  8
0
 10
4.87511
 20
1.24029
 30
0.0
 40
0.0104167
 41
0.0104167
  0
VERTEX
  8
0
 10
4.83128
 20
1.20247
 30
0.0
 40
0.0104167
 41
0.0104167
  0
VERTEX
  8
0
 10
4.78103
 20
1.17801
 30
0.0
 40
0.0104167
 41
0.0104167
  0
VERTEX
  8
0
 10
4.73079
 20
1.16401
 30
0.0
 40
0.0104167
 41
0.0104167
  0
VERTEX
  8
0
 10
4.68696
 20
1.15761
 30
0.0
 40
0.0104167
 41
0.0104167
  0
VERTEX
  8
0
 10
4.65597
 20
1.15587
 30
0.0
 40
0.0104167
 41
0.0104167
  0
VERTEX
  8
0
 10
4.64426
 20
1.15593
 30
0.0
 40
0.0104167
 41
0.0104167
  0
VERTEX
  8
0
 10
4.64426
 20
1.15593
 30
0.0
 40
0.0104167
 41
0.0104167
  0
VERTEX
  8
0
 10
4.37597
 20
1.15489
 30
0.0
 40
0.0104167
 41
0.0104167
  0
VERTEX
  8
0
 10
4.37597
 20
1.57146
 30
0.0
 40
0.0104167
 41
0.0104167
  0
VERTEX
  8
0
 10
4.64426
 20
1.57146
 30
0.0
 40
0.0104167
 41
0.0104167
  0
SEQEND
 8
0
  0
POLYLINE
  8
0
 62
     7
 66
     1
 10
0
 20
0
 30
0.0
 70
     1
 40
0
 41
0
  0
VERTEX
  8
0
 10
4.26654
 20
1.39632
 30
0.0
 40
0
 41
0
  0
VERTEX
  8
0
 10
4.29812
 20
1.39632
 30
0.0
 40
0
 41
0
  0
VERTEX
  8
0
 10
4.29812
 20
1.33008
 30
0.0
 40
0
 41
0
  0
VERTEX
  8
0
 10
4.26654
 20
1.33008
 30
0.0
 40
0
 41
0
  0
VERTEX
  8
0
 10
4.26654
 20
1.39632
 30
0.0
 40
0
 41
0
  0
SEQEND
 8
0
  0
POLYLINE
  8
0
 62
     0
 66
     1
 10
0
 20
0
 30
0.0
 70
     1
 40
0.75
 41
0.75
  0
VERTEX
  8
0
 10
4.26654
 20
1.39632
 30
0.0
 40
0.0104167
 41
0.0104167
  0
VERTEX
  8
0
 10
4.26654
 20
1.33008
 30
0.0
 40
0.0104167
 41
0.0104167
  0
VERTEX
  8
0
 10
4.29812
 20
1.33008
 30
0.0
 40
0.0104167
 41
0.0104167
  0
VERTEX
  8
0
 10
4.29812
 20
1.39632
 30
0.0
 40
0.0104167
 41
0.0104167
  0
VERTEX
  8
0
 10
4.26654
 20
1.39632
 30
0.0
 40
0.0104167
 41
0.0104167
  0
SEQEND
 8
0
  0
POLYLINE
  8
0
 62
     7
 66
     1
 10
0
 20
0
 30
0.0
 70
     1
 40
0
 41
0
  0
VERTEX
  8
0
 10
5.66097
 20
0.635092
 30
0.0
 40
0
 41
0
  0
VERTEX
  8
0
 10
6.28597
 20
0.635092
 30
0.0
 40
0
 41
0
  0
VERTEX
  8
0
 10
6.28597
 20
0.15294
 30
0.0
 40
0
 41
0
  0
VERTEX
  8
0
 10
5.66097
 20
0.15294
 30
0.0
 40
0
 41
0
  0
VERTEX
  8
0
 10
5.66097
 20
0.635092
 30
0.0
 40
0
 41
0
  0
SEQEND
 8
0
  0
POLYLINE
  8
0
 62
     0
 66
     1
 10
0
 20
0
 30
0.0
 70
     1
 40
0.75
 41
0.75
  0
VERTEX
  8
0
 10
5.66097
 20
0.635092
 30
0.0
 40
0.0104167
 41
0.0104167
  0
VERTEX
  8
0
 10
6.28597
 20
0.635092
 30
0.0
 40
0.0104167
 41
0.0104167
  0
VERTEX
  8
0
 10
6.28597
 20
0.15294
 30
0.0
 40
0.0104167
 41
0.0104167
  0
VERTEX
  8
0
 10
5.66097
 20
0.15294
 30
0.0
 40
0.0104167
 41
0.0104167
  0
VERTEX
  8
0
 10
5.66097
 20
0.635092
 30
0.0
 40
0.0104167
 41
0.0104167
  0
SEQEND
 8
0
  0
POLYLINE
  8
0
 62
     7
 66
     1
 10
0
 20
0
 30
0.0
 70
     1
 40
0
 41
0
  0
VERTEX
  8
0
 10
5.71306
 20
0.592503
 30
0.0
 40
0
 41
0
  0
VERTEX
  8
0
 10
6.23389
 20
0.592503
 30
0.0
 40
0
 41
0
  0
VERTEX
  8
0
 10
6.23389
 20
0.253961
 30
0.0
 40
0
 41
0
  0
VERTEX
  8
0
 10
5.71306
 20
0.253961
 30
0.0
 40
0
 41
0
  0
VERTEX
  8
0
 10
5.71306
 20
0.592503
 30
0.0
 40
0
 41
0
  0
SEQEND
 8
0
  0
POLYLINE
  8
0
 62
     0
 66
     1
 10
0
 20
0
 30
0.0
 70
     1
 40
0.75
 41
0.75
  0
VERTEX
  8
0
 10
5.71306
 20
0.592503
 30
0.0
 40
0.0104167
 41
0.0104167
  0
VERTEX
  8
0
 10
6.23389
 20
0.592503
 30
0.0
 40
0.0104167
 41
0.0104167
  0
VERTEX
  8
0
 10
6.23389
 20
0.253961
 30
0.0
 40
0.0104167
 41
0.0104167
  0
VERTEX
  8
0
 10
5.71306
 20
0.253961
 30
0.0
 40
0.0104167
 41
0.0104167
  0
VERTEX
  8
0
 10
5.71306
 20
0.592503
 30
0.0
 40
0.0104167
 41
0.0104167
  0
SEQEND
 8
0
  0
POLYLINE
  8
0
 62
     7
 66
     1
 10
0
 20
0
 30
0.0
 70
     1
 40
0
 41
0
  0
VERTEX
  8
0
 10
5.93701
 20
0.411729
 30
0.0
 40
0
 41
0
  0
VERTEX
  8
0
 10
5.93701
 20
0.418186
 30
0.0
 40
0
 41
0
  0
VERTEX
  8
0
 10
5.94764
 20
0.437554
 30
0.0
 40
0
 41
0
  0
VERTEX
  8
0
 10
5.96701
 20
0.448188
 30
0.0
 40
0
 41
0
  0
VERTEX
  8
0
 10
5.97347
 20
0.448188
 30
0.0
 40
0
 41
0
  0
VERTEX
  8
0
 10
5.97987
 20
0.448188
 30
0.0
 40
0
 41
0
  0
VERTEX
  8
0
 10
5.99924
 20
0.437554
 30
0.0
 40
0
 41
0
  0
VERTEX
  8
0
 10
6.00993
 20
0.418186
 30
0.0
 40
0
 41
0
  0
VERTEX
  8
0
 10
6.00993
 20
0.411729
 30
0.0
 40
0
 41
0
  0
VERTEX
  8
0
 10
6.00993
 20
0.405328
 30
0.0
 40
0
 41
0
  0
VERTEX
  8
0
 10
5.99924
 20
0.38596
 30
0.0
 40
0
 41
0
  0
VERTEX
  8
0
 10
5.97987
 20
0.375271
 30
0.0
 40
0
 41
0
  0
VERTEX
  8
0
 10
5.97347
 20
0.375271
 30
0.0
 40
0
 41
0
  0
VERTEX
  8
0
 10
5.96701
 20
0.375271
 30
0.0
 40
0
 41
0
  0
VERTEX
  8
0
 10
5.94764
 20
0.38596
 30
0.0
 40
0
 41
0
  0
VERTEX
  8
0
 10
5.93701
 20
0.405328
 30
0.0
 40
0
 41
0
  0
VERTEX
  8
0
 10
5.93701
 20
0.411729
 30
0.0
 40
0
 41
0
  0
SEQEND
 8
0
  0
POLYLINE
  8
0
 62
     0
 66
     1
 10
0
 20
0
 30
0.0
 70
     1
 40
0.6
 41
0.6
  0
VERTEX
  8
0
 10
5.93701
 20
0.411729
 30
0.0
 40
0.00833333
 41
0.00833333
  0
VERTEX
  8
0
 10
5.93701
 20
0.418186
 30
0.0
 40
0.00833333
 41
0.00833333
  0
VERTEX
  8
0
 10
5.94764
 20
0.437554
 30
0.0
 40
0.00833333
 41
0.00833333
  0
VERTEX
  8
0
 10
5.96701
 20
0.448188
 30
0.0
 40
0.00833333
 41
0.00833333
  0
VERTEX
  8
0
 10
5.97347
 20
0.448188
 30
0.0
 40
0.00833333
 41
0.00833333
  0
VERTEX
  8
0
 10
5.97987
 20
0.448188
 30
0.0
 40
0.00833333
 41
0.00833333
  0
VERTEX
  8
0
 10
5.99924
 20
0.437554
 30
0.0
 40
0.00833333
 41
0.00833333
  0
VERTEX
  8
0
 10
6.00993
 20
0.418186
 30
0.0
 40
0.00833333
 41
0.00833333
  0
VERTEX
  8
0
 10
6.00993
 20
0.411729
 30
0.0
 40
0.00833333
 41
0.00833333
  0
VERTEX
  8
0
 10
6.00993
 20
0.405328
 30
0.0
 40
0.00833333
 41
0.00833333
  0
VERTEX
  8
0
 10
5.99924
 20
0.38596
 30
0.0
 40
0.00833333
 41
0.00833333
  0
VERTEX
  8
0
 10
5.97987
 20
0.375271
 30
0.0
 40
0.00833333
 41
0.00833333
  0
VERTEX
  8
0
 10
5.97347
 20
0.375271
 30
0.0
 40
0.00833333
 41
0.00833333
  0
VERTEX
  8
0
 10
5.96701
 20
0.375271
 30
0.0
 40
0.00833333
 41
0.00833333
  0
VERTEX
  8
0
 10
5.94764
 20
0.38596
 30
0.0
 40
0.00833333
 41
0.00833333
  0
VERTEX
  8
0
 10
5.93701
 20
0.405328
 30
0.0
 40
0.00833333
 41
0.00833333
  0
VERTEX
  8
0
 10
5.93701
 20
0.411729
 30
0.0
 40
0.00833333
 41
0.00833333
  0
SEQEND
 8
0
  0
POLYLINE
  8
0
 62
     7
 66
     1
 10
0
 20
0
 30
0.0
 70
     1
 40
0
 41
0
  0
VERTEX
  8
0
 10
5.95264
 20
0.411729
 30
0.0
 40
0
 41
0
  0
VERTEX
  8
0
 10
5.95264
 20
0.415419
 30
0.0
 40
0
 41
0
  0
VERTEX
  8
0
 10
5.95871
 20
0.426486
 30
0.0
 40
0
 41
0
  0
VERTEX
  8
0
 10
5.96978
 20
0.432563
 30
0.0
 40
0
 41
0
  0
VERTEX
  8
0
 10
5.97347
 20
0.432563
 30
0.0
 40
0
 41
0
  0
VERTEX
  8
0
 10
5.97711
 20
0.432563
 30
0.0
 40
0
 41
0
  0
VERTEX
  8
0
 10
5.98817
 20
0.426486
 30
0.0
 40
0
 41
0
  0
VERTEX
  8
0
 10
5.99431
 20
0.415419
 30
0.0
 40
0
 41
0
  0
VERTEX
  8
0
 10
5.99431
 20
0.411729
 30
0.0
 40
0
 41
0
  0
VERTEX
  8
0
 10
5.99431
 20
0.408094
 30
0.0
 40
0
 41
0
  0
VERTEX
  8
0
 10
5.98817
 20
0.397026
 30
0.0
 40
0
 41
0
  0
VERTEX
  8
0
 10
5.97711
 20
0.390896
 30
0.0
 40
0
 41
0
  0
VERTEX
  8
0
 10
5.97347
 20
0.390896
 30
0.0
 40
0
 41
0
  0
VERTEX
  8
0
 10
5.96978
 20
0.390896
 30
0.0
 40
0
 41
0
  0
VERTEX
  8
0
 10
5.95871
 20
0.397026
 30
0.0
 40
0
 41
0
  0
VERTEX
  8
0
 10
5.95264
 20
0.408094
 30
0.0
 40
0
 41
0
  0
VERTEX
  8
0
 10
5.95264
 20
0.411729
 30
0.0
 40
0
 41
0
  0
SEQEND
 8
0
  0
POLYLINE
  8
0
 62
     0
 66
     1
 10
0
 20
0
 30
0.0
 70
     1
 40
0.6
 41
0.6
  0
VERTEX
  8
0
 10
5.95264
 20
0.411729
 30
0.0
 40
0.00833333
 41
0.00833333
  0
VERTEX
  8
0
 10
5.95264
 20
0.415419
 30
0.0
 40
0.00833333
 41
0.00833333
  0
VERTEX
  8
0
 10
5.95871
 20
0.426486
 30
0.0
 40
0.00833333
 41
0.00833333
  0
VERTEX
  8
0
 10
5.96978
 20
0.432563
 30
0.0
 40
0.00833333
 41
0.00833333
  0
VERTEX
  8
0
 10
5.97347
 20
0.432563
 30
0.0
 40
0.00833333
 41
0.00833333
  0
VERTEX
  8
0
 10
5.97711
 20
0.432563
 30
0.0
 40
0.00833333
 41
0.00833333
  0
VERTEX
  8
0
 10
5.98817
 20
0.426486
 30
0.0
 40
0.00833333
 41
0.00833333
  0
VERTEX
  8
0
 10
5.99431
 20
0.415419
 30
0.0
 40
0.00833333
 41
0.00833333
  0
VERTEX
  8
0
 10
5.99431
 20
0.411729
 30
0.0
 40
0.00833333
 41
0.00833333
  0
VERTEX
  8
0
 10
5.99431
 20
0.408094
 30
0.0
 40
0.00833333
 41
0.00833333
  0
VERTEX
  8
0
 10
5.98817
 20
0.397026
 30
0.0
 40
0.00833333
 41
0.00833333
  0
VERTEX
  8
0
 10
5.97711
 20
0.390896
 30
0.0
 40
0.00833333
 41
0.00833333
  0
VERTEX
  8
0
 10
5.97347
 20
0.390896
 30
0.0
 40
0.00833333
 41
0.00833333
  0
VERTEX
  8
0
 10
5.96978
 20
0.390896
 30
0.0
 40
0.00833333
 41
0.00833333
  0
VERTEX
  8
0
 10
5.95871
 20
0.397026
 30
0.0
 40
0.00833333
 41
0.00833333
  0
VERTEX
  8
0
 10
5.95264
 20
0.408094
 30
0.0
 40
0.00833333
 41
0.00833333
  0
VERTEX
  8
0
 10
5.95264
 20
0.411729
 30
0.0
 40
0.00833333
 41
0.00833333
  0
SEQEND
 8
0
  0
POLYLINE
  8
0
 62
     7
 66
     1
 10
0
 20
0
 30
0.0
 70
     1
 40
0
 41
0
  0
VERTEX
  8
0
 10
5.94222
 20
0.338976
 30
0.0
 40
0
 41
0
  0
VERTEX
  8
0
 10
6.00472
 20
0.338976
 30
0.0
 40
0
 41
0
  0
VERTEX
  8
0
 10
6.00472
 20
0.193143
 30
0.0
 40
0
 41
0
  0
VERTEX
  8
0
 10
5.94222
 20
0.193143
 30
0.0
 40
0
 41
0
  0
VERTEX
  8
0
 10
5.94222
 20
0.338976
 30
0.0
 40
0
 41
0
  0
SEQEND
 8
0
  0
POLYLINE
  8
0
 62
     0
 66
     1
 10
0
 20
0
 30
0.0
 70
     1
 40
0.75
 41
0.75
  0
VERTEX
  8
0
 10
5.94222
 20
0.338976
 30
0.0
 40
0.0104167
 41
0.0104167
  0
VERTEX
  8
0
 10
6.00472
 20
0.338976
 30
0.0
 40
0.0104167
 41
0.0104167
  0
VERTEX
  8
0
 10
6.00472
 20
0.193143
 30
0.0
 40
0.0104167
 41
0.0104167
  0
VERTEX
  8
0
 10
5.94222
 20
0.193143
 30
0.0
 40
0.0104167
 41
0.0104167
  0
VERTEX
  8
0
 10
5.94222
 20
0.338976
 30
0.0
 40
0.0104167
 41
0.0104167
  0
SEQEND
 8
0
  0
POLYLINE
  8
0
 62
     7
 66
     1
 10
0
 20
0
 30
0.0
 70
     1
 40
0
 41
0
  0
VERTEX
  8
0
 10
4.98557
 20
0.21875
 30
0.0
 40
0
 41
0
  0
VERTEX
  8
0
 10
5.10221
 20
0.21875
 30
0.0
 40
0
 41
0
  0
VERTEX
  8
0
 10
5.10221
 20
0.155219
 30
0.0
 40
0
 41
0
  0
VERTEX
  8
0
 10
4.98557
 20
0.155219
 30
0.0
 40
0
 41
0
  0
VERTEX
  8
0
 10
4.98557
 20
0.21875
 30
0.0
 40
0
 41
0
  0
SEQEND
 8
0
  0
POLYLINE
  8
0
 62
     0
 66
     1
 10
0
 20
0
 30
0.0
 70
     1
 40
0.75
 41
0.75
  0
VERTEX
  8
0
 10
4.98557
 20
0.21875
 30
0.0
 40
0.0104167
 41
0.0104167
  0
VERTEX
  8
0
 10
5.10221
 20
0.21875
 30
0.0
 40
0.0104167
 41
0.0104167
  0
VERTEX
  8
0
 10
5.10221
 20
0.155219
 30
0.0
 40
0.0104167
 41
0.0104167
  0
VERTEX
  8
0
 10
4.98557
 20
0.155219
 30
0.0
 40
0.0104167
 41
0.0104167
  0
VERTEX
  8
0
 10
4.98557
 20
0.21875
 30
0.0
 40
0.0104167
 41
0.0104167
  0
SEQEND
 8
0
  0
POLYLINE
  8
0
 62
     7
 66
     1
 10
0
 20
0
 30
0.0
 70
     1
 40
0
 41
0
  0
VERTEX
  8
0
 10
4.84076
 20
0.21875
 30
0.0
 40
0
 41
0
  0
VERTEX
  8
0
 10
4.95742
 20
0.21875
 30
0.0
 40
0
 41
0
  0
VERTEX
  8
0
 10
4.95742
 20
0.155219
 30
0.0
 40
0
 41
0
  0
VERTEX
  8
0
 10
4.84076
 20
0.155219
 30
0.0
 40
0
 41
0
  0
VERTEX
  8
0
 10
4.84076
 20
0.21875
 30
0.0
 40
0
 41
0
  0
SEQEND
 8
0
  0
POLYLINE
  8
0
 62
     0
 66
     1
 10
0
 20
0
 30
0.0
 70
     1
 40
0.75
 41
0.75
  0
VERTEX
  8
0
 10
4.84076
 20
0.21875
 30
0.0
 40
0.0104167
 41
0.0104167
  0
VERTEX
  8
0
 10
4.95742
 20
0.21875
 30
0.0
 40
0.0104167
 41
0.0104167
  0
VERTEX
  8
0
 10
4.95742
 20
0.155219
 30
0.0
 40
0.0104167
 41
0.0104167
  0
VERTEX
  8
0
 10
4.84076
 20
0.155219
 30
0.0
 40
0.0104167
 41
0.0104167
  0
VERTEX
  8
0
 10
4.84076
 20
0.21875
 30
0.0
 40
0.0104167
 41
0.0104167
  0
SEQEND
 8
0
  0
POLYLINE
  8
0
 62
     7
 66
     1
 10
0
 20
0
 30
0.0
 70
     1
 40
0
 41
0
  0
VERTEX
  8
0
 10
4.80637
 20
0.21875
 30
0.0
 40
0
 41
0
  0
VERTEX
  8
0
 10
4.84179
 20
0.21875
 30
0.0
 40
0
 41
0
  0
VERTEX
  8
0
 10
4.84179
 20
0.155219
 30
0.0
 40
0
 41
0
  0
VERTEX
  8
0
 10
4.80637
 20
0.155219
 30
0.0
 40
0
 41
0
  0
VERTEX
  8
0
 10
4.80637
 20
0.21875
 30
0.0
 40
0
 41
0
  0
SEQEND
 8
0
  0
POLYLINE
  8
0
 62
     0
 66
     1
 10
0
 20
0
 30
0.0
 70
     1
 40
0.75
 41
0.75
  0
VERTEX
  8
0
 10
4.80637
 20
0.21875
 30
0.0
 40
0.0104167
 41
0.0104167
  0
VERTEX
  8
0
 10
4.84179
 20
0.21875
 30
0.0
 40
0.0104167
 41
0.0104167
  0
VERTEX
  8
0
 10
4.84179
 20
0.155219
 30
0.0
 40
0.0104167
 41
0.0104167
  0
VERTEX
  8
0
 10
4.80637
 20
0.155219
 30
0.0
 40
0.0104167
 41
0.0104167
  0
VERTEX
  8
0
 10
4.80637
 20
0.21875
 30
0.0
 40
0.0104167
 41
0.0104167
  0
SEQEND
 8
0
  0
POLYLINE
  8
0
 62
     7
 66
     1
 10
0
 20
0
 30
0.0
 70
     1
 40
0
 41
0
  0
VERTEX
  8
0
 10
5.10221
 20
0.21875
 30
0.0
 40
0
 41
0
  0
VERTEX
  8
0
 10
5.13553
 20
0.21875
 30
0.0
 40
0
 41
0
  0
VERTEX
  8
0
 10
5.13553
 20
0.155219
 30
0.0
 40
0
 41
0
  0
VERTEX
  8
0
 10
5.10221
 20
0.155219
 30
0.0
 40
0
 41
0
  0
VERTEX
  8
0
 10
5.10221
 20
0.21875
 30
0.0
 40
0
 41
0
  0
SEQEND
 8
0
  0
POLYLINE
  8
0
 62
     0
 66
     1
 10
0
 20
0
 30
0.0
 70
     1
 40
0.75
 41
0.75
  0
VERTEX
  8
0
 10
5.10221
 20
0.21875
 30
0.0
 40
0.0104167
 41
0.0104167
  0
VERTEX
  8
0
 10
5.13553
 20
0.21875
 30
0.0
 40
0.0104167
 41
0.0104167
  0
VERTEX
  8
0
 10
5.13553
 20
0.155219
 30
0.0
 40
0.0104167
 41
0.0104167
  0
VERTEX
  8
0
 10
5.10221
 20
0.155219
 30
0.0
 40
0.0104167
 41
0.0104167
  0
VERTEX
  8
0
 10
5.10221
 20
0.21875
 30
0.0
 40
0.0104167
 41
0.0104167
  0
SEQEND
 8
0
  0
POLYLINE
  8
0
 62
     7
 66
     1
 10
0
 20
0
 30
0.0
 70
     1
 40
0
 41
0
  0
VERTEX
  8
0
 10
4.98557
 20
0.238553
 30
0.0
 40
0
 41
0
  0
VERTEX
  8
0
 10
4.98557
 20
0.2449
 30
0.0
 40
0
 41
0
  0
VERTEX
  8
0
 10
4.98915
 20
0.263835
 30
0.0
 40
0
 41
0
  0
VERTEX
  8
0
 10
4.99908
 20
0.286242
 30
0.0
 40
0
 41
0
  0
VERTEX
  8
0
 10
5.00222
 20
0.290636
 30
0.0
 40
0
 41
0
  0
VERTEX
  8
0
 10
5.00325
 20
0.29221
 30
0.0
 40
0
 41
0
  0
VERTEX
  8
0
 10
5.0134
 20
0.306803
 30
0.0
 40
0
 41
0
  0
VERTEX
  8
0
 10
5.01367
 20
0.308322
 30
0.0
 40
0
 41
0
  0
VERTEX
  8
0
 10
5.01417
 20
0.311199
 30
0.0
 40
0
 41
0
  0
VERTEX
  8
0
 10
5.00999
 20
0.327746
 30
0.0
 40
0
 41
0
  0
VERTEX
  8
0
 10
4.99333
 20
0.340603
 30
0.0
 40
0
 41
0
  0
VERTEX
  8
0
 10
4.98763
 20
0.341635
 30
0.0
 40
0
 41
0
  0
VERTEX
  8
0
 10
4.98633
 20
0.341906
 30
0.0
 40
0
 41
0
  0
VERTEX
  8
0
 10
4.97478
 20
0.342719
 30
0.0
 40
0
 41
0
  0
VERTEX
  8
0
 10
4.97097
 20
0.342719
 30
0.0
 40
0
 41
0
  0
VERTEX
  8
0
 10
4.972
 20
0.342719
 30
0.0
 40
0
 41
0
  0
VERTEX
  8
0
 10
4.96783
 20
0.342719
 30
0.0
 40
0
 41
0
  0
VERTEX
  8
0
 10
4.95665
 20
0.341906
 30
0.0
 40
0
 41
0
  0
VERTEX
  8
0
 10
4.95535
 20
0.341635
 30
0.0
 40
0
 41
0
  0
VERTEX
  8
0
 10
4.9496
 20
0.340603
 30
0.0
 40
0
 41
0
  0
VERTEX
  8
0
 10
4.93289
 20
0.327746
 30
0.0
 40
0
 41
0
  0
VERTEX
  8
0
 10
4.92876
 20
0.311199
 30
0.0
 40
0
 41
0
  0
VERTEX
  8
0
 10
4.92931
 20
0.308322
 30
0.0
 40
0
 41
0
  0
VERTEX
  8
0
 10
4.92953
 20
0.306803
 30
0.0
 40
0
 41
0
  0
VERTEX
  8
0
 10
4.93967
 20
0.29221
 30
0.0
 40
0
 41
0
  0
VERTEX
  8
0
 10
4.94075
 20
0.290636
 30
0.0
 40
0
 41
0
  0
VERTEX
  8
0
 10
4.94385
 20
0.286242
 30
0.0
 40
0
 41
0
  0
VERTEX
  8
0
 10
4.95372
 20
0.263835
 30
0.0
 40
0
 41
0
  0
VERTEX
  8
0
 10
4.95742
 20
0.2449
 30
0.0
 40
0
 41
0
  0
VERTEX
  8
0
 10
4.95742
 20
0.238553
 30
0.0
 40
0
 41
0
  0
SEQEND
 8
0
  0
POLYLINE
  8
0
 62
     0
 66
     1
 10
0
 20
0
 30
0.0
 40
0.75
 41
0.75
  0
VERTEX
  8
0
 10
4.98557
 20
0.238553
 30
0.0
 40
0.0104167
 41
0.0104167
  0
VERTEX
  8
0
 10
4.98557
 20
0.2449
 30
0.0
 40
0.0104167
 41
0.0104167
  0
VERTEX
  8
0
 10
4.98915
 20
0.263835
 30
0.0
 40
0.0104167
 41
0.0104167
  0
VERTEX
  8
0
 10
4.99908
 20
0.286242
 30
0.0
 40
0.0104167
 41
0.0104167
  0
VERTEX
  8
0
 10
5.00222
 20
0.290636
 30
0.0
 40
0.0104167
 41
0.0104167
  0
VERTEX
  8
0
 10
5.00325
 20
0.29221
 30
0.0
 40
0.0104167
 41
0.0104167
  0
VERTEX
  8
0
 10
5.0134
 20
0.306803
 30
0.0
 40
0.0104167
 41
0.0104167
  0
VERTEX
  8
0
 10
5.01367
 20
0.308322
 30
0.0
 40
0.0104167
 41
0.0104167
  0
VERTEX
  8
0
 10
5.01417
 20
0.311199
 30
0.0
 40
0.0104167
 41
0.0104167
  0
VERTEX
  8
0
 10
5.00999
 20
0.327746
 30
0.0
 40
0.0104167
 41
0.0104167
  0
VERTEX
  8
0
 10
4.99333
 20
0.340603
 30
0.0
 40
0.0104167
 41
0.0104167
  0
VERTEX
  8
0
 10
4.98763
 20
0.341635
 30
0.0
 40
0.0104167
 41
0.0104167
  0
VERTEX
  8
0
 10
4.98633
 20
0.341906
 30
0.0
 40
0.0104167
 41
0.0104167
  0
VERTEX
  8
0
 10
4.97478
 20
0.342719
 30
0.0
 40
0.0104167
 41
0.0104167
  0
VERTEX
  8
0
 10
4.97097
 20
0.342719
 30
0.0
 40
0.0104167
 41
0.0104167
  0
VERTEX
  8
0
 10
4.972
 20
0.342719
 30
0.0
 40
0.0104167
 41
0.0104167
  0
VERTEX
  8
0
 10
4.96783
 20
0.342719
 30
0.0
 40
0.0104167
 41
0.0104167
  0
VERTEX
  8
0
 10
4.95665
 20
0.341906
 30
0.0
 40
0.0104167
 41
0.0104167
  0
VERTEX
  8
0
 10
4.95535
 20
0.341635
 30
0.0
 40
0.0104167
 41
0.0104167
  0
VERTEX
  8
0
 10
4.9496
 20
0.340603
 30
0.0
 40
0.0104167
 41
0.0104167
  0
VERTEX
  8
0
 10
4.93289
 20
0.327746
 30
0.0
 40
0.0104167
 41
0.0104167
  0
VERTEX
  8
0
 10
4.92876
 20
0.311199
 30
0.0
 40
0.0104167
 41
0.0104167
  0
VERTEX
  8
0
 10
4.92931
 20
0.308322
 30
0.0
 40
0.0104167
 41
0.0104167
  0
VERTEX
  8
0
 10
4.92953
 20
0.306803
 30
0.0
 40
0.0104167
 41
0.0104167
  0
VERTEX
  8
0
 10
4.93967
 20
0.29221
 30
0.0
 40
0.0104167
 41
0.0104167
  0
VERTEX
  8
0
 10
4.94075
 20
0.290636
 30
0.0
 40
0.0104167
 41
0.0104167
  0
VERTEX
  8
0
 10
4.94385
 20
0.286242
 30
0.0
 40
0.0104167
 41
0.0104167
  0
VERTEX
  8
0
 10
4.95372
 20
0.263835
 30
0.0
 40
0.0104167
 41
0.0104167
  0
VERTEX
  8
0
 10
4.95742
 20
0.2449
 30
0.0
 40
0.0104167
 41
0.0104167
  0
VERTEX
  8
0
 10
4.95742
 20
0.238553
 30
0.0
 40
0.0104167
 41
0.0104167
  0
SEQEND
 8
0
  0
POLYLINE
  8
0
 62
     7
 66
     1
 10
0
 20
0
 30
0.0
 70
     1
 40
0
 41
0
  0
VERTEX
  8
0
 10
5.01367
 20
0.309353
 30
0.0
 40
0
 41
0
  0
VERTEX
  8
0
 10
5.0134
 20
0.309896
 30
0.0
 40
0
 41
0
  0
VERTEX
  8
0
 10
5.00157
 20
0.320096
 30
0.0
 40
0
 41
0
  0
VERTEX
  8
0
 10
4.97781
 20
0.329156
 30
0.0
 40
0
 41
0
  0
VERTEX
  8
0
 10
4.96994
 20
0.329156
 30
0.0
 40
0
 41
0
  0
VERTEX
  8
0
 10
4.96365
 20
0.328939
 30
0.0
 40
0
 41
0
  0
VERTEX
  8
0
 10
4.94097
 20
0.319661
 30
0.0
 40
0
 41
0
  0
VERTEX
  8
0
 10
4.92979
 20
0.309896
 30
0.0
 40
0
 41
0
  0
VERTEX
  8
0
 10
4.92931
 20
0.309353
 30
0.0
 40
0
 41
0
  0
SEQEND
 8
0
  0
POLYLINE
  8
0
 62
     0
 66
     1
 10
0
 20
0
 30
0.0
 40
0.75
 41
0.75
  0
VERTEX
  8
0
 10
5.01367
 20
0.309353
 30
0.0
 40
0.0104167
 41
0.0104167
  0
VERTEX
  8
0
 10
5.0134
 20
0.309896
 30
0.0
 40
0.0104167
 41
0.0104167
  0
VERTEX
  8
0
 10
5.00157
 20
0.320096
 30
0.0
 40
0.0104167
 41
0.0104167
  0
VERTEX
  8
0
 10
4.97781
 20
0.329156
 30
0.0
 40
0.0104167
 41
0.0104167
  0
VERTEX
  8
0
 10
4.96994
 20
0.329156
 30
0.0
 40
0.0104167
 41
0.0104167
  0
VERTEX
  8
0
 10
4.96365
 20
0.328939
 30
0.0
 40
0.0104167
 41
0.0104167
  0
VERTEX
  8
0
 10
4.94097
 20
0.319661
 30
0.0
 40
0.0104167
 41
0.0104167
  0
VERTEX
  8
0
 10
4.92979
 20
0.309896
 30
0.0
 40
0.0104167
 41
0.0104167
  0
VERTEX
  8
0
 10
4.92931
 20
0.309353
 30
0.0
 40
0.0104167
 41
0.0104167
  0
SEQEND
 8
0
  0
POLYLINE
  8
0
 62
     7
 66
     1
 10
0
 20
0
 30
0.0
 70
     1
 40
0
 41
0
  0
VERTEX
  8
0
 10
4.98557
 20
0.155219
 30
0.0
 40
0
 41
0
  0
VERTEX
  8
0
 10
4.95742
 20
0.155219
 30
0.0
 40
0
 41
0
  0
VERTEX
  8
0
 10
4.95742
 20
0.238553
 30
0.0
 40
0
 41
0
  0
VERTEX
  8
0
 10
4.96442
 20
0.238553
 30
0.0
 40
0
 41
0
  0
VERTEX
  8
0
 10
4.98025
 20
0.238553
 30
0.0
 40
0
 41
0
  0
VERTEX
  8
0
 10
4.98557
 20
0.238553
 30
0.0
 40
0
 41
0
  0
VERTEX
  8
0
 10
4.98557
 20
0.217719
 30
0.0
 40
0
 41
0
  0
VERTEX
  8
0
 10
4.98557
 20
0.170844
 30
0.0
 40
0
 41
0
  0
VERTEX
  8
0
 10
4.98557
 20
0.155219
 30
0.0
 40
0
 41
0
  0
SEQEND
 8
0
  0
POLYLINE
  8
0
 62
     0
 66
     1
 10
0
 20
0
 30
0.0
 70
     1
 40
0.75
 41
0.75
  0
VERTEX
  8
0
 10
4.98557
 20
0.155219
 30
0.0
 40
0.0104167
 41
0.0104167
  0
VERTEX
  8
0
 10
4.95742
 20
0.155219
 30
0.0
 40
0.0104167
 41
0.0104167
  0
VERTEX
  8
0
 10
4.95742
 20
0.238553
 30
0.0
 40
0.0104167
 41
0.0104167
  0
VERTEX
  8
0
 10
4.96442
 20
0.238553
 30
0.0
 40
0.0104167
 41
0.0104167
  0
VERTEX
  8
0
 10
4.98025
 20
0.238553
 30
0.0
 40
0.0104167
 41
0.0104167
  0
VERTEX
  8
0
 10
4.98557
 20
0.238553
 30
0.0
 40
0.0104167
 41
0.0104167
  0
VERTEX
  8
0
 10
4.98557
 20
0.217719
 30
0.0
 40
0.0104167
 41
0.0104167
  0
VERTEX
  8
0
 10
4.98557
 20
0.170844
 30
0.0
 40
0.0104167
 41
0.0104167
  0
VERTEX
  8
0
 10
4.98557
 20
0.155219
 30
0.0
 40
0.0104167
 41
0.0104167
  0
SEQEND
 8
0
  0
POLYLINE
  8
0
 62
     7
 66
     1
 10
0
 20
0
 30
0.0
 70
     1
 40
0
 41
0
  0
VERTEX
  8
0
 10
5.10221
 20
0.1875
 30
0.0
 40
0
 41
0
  0
VERTEX
  8
0
 10
5.09896
 20
0.186307
 30
0.0
 40
0
 41
0
  0
VERTEX
  8
0
 10
5.08931
 20
0.182454
 30
0.0
 40
0
 41
0
  0
VERTEX
  8
0
 10
5.08658
 20
0.181261
 30
0.0
 40
0
 41
0
  0
VERTEX
  8
0
 10
5.08658
 20
0.181261
 30
0.0
 40
0
 41
0
  0
VERTEX
  8
0
 10
5.08658
 20
0.182726
 30
0.0
 40
0
 41
0
  0
VERTEX
  8
0
 10
5.08658
 20
0.187011
 30
0.0
 40
0
 41
0
  0
VERTEX
  8
0
 10
5.08658
 20
0.191297
 30
0.0
 40
0
 41
0
  0
VERTEX
  8
0
 10
5.08658
 20
0.192708
 30
0.0
 40
0
 41
0
  0
VERTEX
  8
0
 10
5.08658
 20
0.192708
 30
0.0
 40
0
 41
0
  0
VERTEX
  8
0
 10
5.08892
 20
0.192057
 30
0.0
 40
0
 41
0
  0
VERTEX
  8
0
 10
5.0989
 20
0.188693
 30
0.0
 40
0
 41
0
  0
VERTEX
  8
0
 10
5.10221
 20
0.1875
 30
0.0
 40
0
 41
0
  0
SEQEND
 8
0
  0
POLYLINE
  8
0
 62
     0
 66
     1
 10
0
 20
0
 30
0.0
 70
     1
 40
0.75
 41
0.75
  0
VERTEX
  8
0
 10
5.10221
 20
0.1875
 30
0.0
 40
0.0104167
 41
0.0104167
  0
VERTEX
  8
0
 10
5.09896
 20
0.186307
 30
0.0
 40
0.0104167
 41
0.0104167
  0
VERTEX
  8
0
 10
5.08931
 20
0.182454
 30
0.0
 40
0.0104167
 41
0.0104167
  0
VERTEX
  8
0
 10
5.08658
 20
0.181261
 30
0.0
 40
0.0104167
 41
0.0104167
  0
VERTEX
  8
0
 10
5.08658
 20
0.181261
 30
0.0
 40
0.0104167
 41
0.0104167
  0
VERTEX
  8
0
 10
5.08658
 20
0.182726
 30
0.0
 40
0.0104167
 41
0.0104167
  0
VERTEX
  8
0
 10
5.08658
 20
0.187011
 30
0.0
 40
0.0104167
 41
0.0104167
  0
VERTEX
  8
0
 10
5.08658
 20
0.191297
 30
0.0
 40
0.0104167
 41
0.0104167
  0
VERTEX
  8
0
 10
5.08658
 20
0.192708
 30
0.0
 40
0.0104167
 41
0.0104167
  0
VERTEX
  8
0
 10
5.08658
 20
0.192708
 30
0.0
 40
0.0104167
 41
0.0104167
  0
VERTEX
  8
0
 10
5.08892
 20
0.192057
 30
0.0
 40
0.0104167
 41
0.0104167
  0
VERTEX
  8
0
 10
5.0989
 20
0.188693
 30
0.0
 40
0.0104167
 41
0.0104167
  0
VERTEX
  8
0
 10
5.10221
 20
0.1875
 30
0.0
 40
0.0104167
 41
0.0104167
  0
SEQEND
 8
0
  0
POLYLINE
  8
0
 62
     7
 66
     1
 10
0
 20
0
 30
0.0
 70
     1
 40
0
 41
0
  0
VERTEX
  8
0
 10
4.84179
 20
0.1875
 30
0.0
 40
0
 41
0
  0
VERTEX
  8
0
 10
4.845
 20
0.186307
 30
0.0
 40
0
 41
0
  0
VERTEX
  8
0
 10
4.85465
 20
0.182454
 30
0.0
 40
0
 41
0
  0
VERTEX
  8
0
 10
4.85742
 20
0.181261
 30
0.0
 40
0
 41
0
  0
VERTEX
  8
0
 10
4.85742
 20
0.181261
 30
0.0
 40
0
 41
0
  0
VERTEX
  8
0
 10
4.85742
 20
0.182726
 30
0.0
 40
0
 41
0
  0
VERTEX
  8
0
 10
4.85742
 20
0.187011
 30
0.0
 40
0
 41
0
  0
VERTEX
  8
0
 10
4.85742
 20
0.191297
 30
0.0
 40
0
 41
0
  0
VERTEX
  8
0
 10
4.85742
 20
0.192708
 30
0.0
 40
0
 41
0
  0
VERTEX
  8
0
 10
4.85742
 20
0.192708
 30
0.0
 40
0
 41
0
  0
VERTEX
  8
0
 10
4.85504
 20
0.192057
 30
0.0
 40
0
 41
0
  0
VERTEX
  8
0
 10
4.84506
 20
0.188693
 30
0.0
 40
0
 41
0
  0
VERTEX
  8
0
 10
4.84179
 20
0.1875
 30
0.0
 40
0
 41
0
  0
SEQEND
 8
0
  0
POLYLINE
  8
0
 62
     0
 66
     1
 10
0
 20
0
 30
0.0
 70
     1
 40
0.75
 41
0.75
  0
VERTEX
  8
0
 10
4.84179
 20
0.1875
 30
0.0
 40
0.0104167
 41
0.0104167
  0
VERTEX
  8
0
 10
4.845
 20
0.186307
 30
0.0
 40
0.0104167
 41
0.0104167
  0
VERTEX
  8
0
 10
4.85465
 20
0.182454
 30
0.0
 40
0.0104167
 41
0.0104167
  0
VERTEX
  8
0
 10
4.85742
 20
0.181261
 30
0.0
 40
0.0104167
 41
0.0104167
  0
VERTEX
  8
0
 10
4.85742
 20
0.181261
 30
0.0
 40
0.0104167
 41
0.0104167
  0
VERTEX
  8
0
 10
4.85742
 20
0.182726
 30
0.0
 40
0.0104167
 41
0.0104167
  0
VERTEX
  8
0
 10
4.85742
 20
0.187011
 30
0.0
 40
0.0104167
 41
0.0104167
  0
VERTEX
  8
0
 10
4.85742
 20
0.191297
 30
0.0
 40
0.0104167
 41
0.0104167
  0
VERTEX
  8
0
 10
4.85742
 20
0.192708
 30
0.0
 40
0.0104167
 41
0.0104167
  0
VERTEX
  8
0
 10
4.85742
 20
0.192708
 30
0.0
 40
0.0104167
 41
0.0104167
  0
VERTEX
  8
0
 10
4.85504
 20
0.192057
 30
0.0
 40
0.0104167
 41
0.0104167
  0
VERTEX
  8
0
 10
4.84506
 20
0.188693
 30
0.0
 40
0.0104167
 41
0.0104167
  0
VERTEX
  8
0
 10
4.84179
 20
0.1875
 30
0.0
 40
0.0104167
 41
0.0104167
  0
SEQEND
 8
0
  0
POLYLINE
  8
0
 62
     7
 66
     1
 10
0
 20
0
 30
0.0
 70
     1
 40
0
 41
0
  0
VERTEX
  8
0
 10
9.34765
 20
3.3355
 30
0.0
 40
0
 41
0
  0
VERTEX
  8
0
 10
9.62463
 20
3.3355
 30
0.0
 40
0
 41
0
  0
VERTEX
  8
0
 10
9.62463
 20
2.74061
 30
0.0
 40
0
 41
0
  0
VERTEX
  8
0
 10
9.34765
 20
2.74061
 30
0.0
 40
0
 41
0
  0
VERTEX
  8
0
 10
9.34765
 20
3.3355
 30
0.0
 40
0
 41
0
  0
SEQEND
 8
0
  0
POLYLINE
  8
0
 62
     0
 66
     1
 10
0
 20
0
 30
0.0
 70
     1
 40
0.75
 41
0.75
  0
VERTEX
  8
0
 10
9.34765
 20
3.3355
 30
0.0
 40
0.0104167
 41
0.0104167
  0
VERTEX
  8
0
 10
9.34765
 20
2.74061
 30
0.0
 40
0.0104167
 41
0.0104167
  0
VERTEX
  8
0
 10
9.62463
 20
2.74061
 30
0.0
 40
0.0104167
 41
0.0104167
  0
VERTEX
  8
0
 10
9.62463
 20
3.3355
 30
0.0
 40
0.0104167
 41
0.0104167
  0
VERTEX
  8
0
 10
9.34765
 20
3.3355
 30
0.0
 40
0.0104167
 41
0.0104167
  0
SEQEND
 8
0
  0
POLYLINE
  8
0
 62
     0
 66
     1
 10
0
 20
0
 30
0.0
 40
0.4875
 41
0.4875
  0
VERTEX
  8
0
 10
9.58583
 20
3.3355
 30
0.0
 40
0.00677083
 41
0.00677083
  0
VERTEX
  8
0
 10
9.58583
 20
2.74056
 30
0.0
 40
0.00677083
 41
0.00677083
  0
SEQEND
 8
0
  0
POLYLINE
  8
0
 62
     0
 66
     1
 10
0
 20
0
 30
0.0
 40
0.4875
 41
0.4875
  0
VERTEX
  8
0
 10
9.55171
 20
3.3355
 30
0.0
 40
0.00677083
 41
0.00677083
  0
VERTEX
  8
0
 10
9.55171
 20
2.74056
 30
0.0
 40
0.00677083
 41
0.00677083
  0
SEQEND
 8
0
  0
POLYLINE
  8
0
 62
     0
 66
     1
 10
0
 20
0
 30
0.0
 40
0.4875
 41
0.4875
  0
VERTEX
  8
0
 10
9.51844
 20
3.3355
 30
0.0
 40
0.00677083
 41
0.00677083
  0
VERTEX
  8
0
 10
9.51844
 20
2.74056
 30
0.0
 40
0.00677083
 41
0.00677083
  0
SEQEND
 8
0
  0
POLYLINE
  8
0
 62
     0
 66
     1
 10
0
 20
0
 30
0.0
 40
0.4875
 41
0.4875
  0
VERTEX
  8
0
 10
9.48611
 20
3.3355
 30
0.0
 40
0.00677083
 41
0.00677083
  0
VERTEX
  8
0
 10
9.48611
 20
2.74056
 30
0.0
 40
0.00677083
 41
0.00677083
  0
SEQEND
 8
0
  0
POLYLINE
  8
0
 62
     0
 66
     1
 10
0
 20
0
 30
0.0
 40
0.4875
 41
0.4875
  0
VERTEX
  8
0
 10
9.4529
 20
3.3355
 30
0.0
 40
0.00677083
 41
0.00677083
  0
VERTEX
  8
0
 10
9.4529
 20
2.74056
 30
0.0
 40
0.00677083
 41
0.00677083
  0
SEQEND
 8
0
  0
POLYLINE
  8
0
 62
     0
 66
     1
 10
0
 20
0
 30
0.0
 40
0.4875
 41
0.4875
  0
VERTEX
  8
0
 10
9.41965
 20
3.3355
 30
0.0
 40
0.00677083
 41
0.00677083
  0
VERTEX
  8
0
 10
9.41965
 20
2.74056
 30
0.0
 40
0.00677083
 41
0.00677083
  0
SEQEND
 8
0
  0
POLYLINE
  8
0
 62
     0
 66
     1
 10
0
 20
0
 30
0.0
 40
0.4875
 41
0.4875
  0
VERTEX
  8
0
 10
9.38553
 20
3.3355
 30
0.0
 40
0.00677083
 41
0.00677083
  0
VERTEX
  8
0
 10
9.38553
 20
2.74056
 30
0.0
 40
0.00677083
 41
0.00677083
  0
SEQEND
 8
0
  0
POLYLINE
  8
0
 62
     7
 66
     1
 10
0
 20
0
 30
0.0
 70
     1
 40
0
 41
0
  0
VERTEX
  8
0
 10
7.90474
 20
3.47894
 30
0.0
 40
0
 41
0
  0
VERTEX
  8
0
 10
8.36838
 20
3.47894
 30
0.0
 40
0
 41
0
  0
VERTEX
  8
0
 10
8.36838
 20
3.01714
 30
0.0
 40
0
 41
0
  0
VERTEX
  8
0
 10
7.90474
 20
3.01714
 30
0.0
 40
0
 41
0
  0
VERTEX
  8
0
 10
7.90474
 20
3.47894
 30
0.0
 40
0
 41
0
  0
SEQEND
 8
0
  0
POLYLINE
  8
0
 62
     0
 66
     1
 10
0
 20
0
 30
0.0
 70
     1
 40
0.75
 41
0.75
  0
VERTEX
  8
0
 10
7.90474
 20
3.47894
 30
0.0
 40
0.0104167
 41
0.0104167
  0
VERTEX
  8
0
 10
8.36838
 20
3.47894
 30
0.0
 40
0.0104167
 41
0.0104167
  0
VERTEX
  8
0
 10
8.36838
 20
3.01714
 30
0.0
 40
0.0104167
 41
0.0104167
  0
VERTEX
  8
0
 10
7.90474
 20
3.01714
 30
0.0
 40
0.0104167
 41
0.0104167
  0
VERTEX
  8
0
 10
7.90474
 20
3.47894
 30
0.0
 40
0.0104167
 41
0.0104167
  0
SEQEND
 8
0
  0
POLYLINE
  8
0
 62
     7
 66
     1
 10
0
 20
0
 30
0.0
 70
     1
 40
0
 41
0
  0
VERTEX
  8
0
 10
8.36833
 20
3.47894
 30
0.0
 40
0
 41
0
  0
VERTEX
  8
0
 10
8.83197
 20
3.47894
 30
0.0
 40
0
 41
0
  0
VERTEX
  8
0
 10
8.83197
 20
3.01714
 30
0.0
 40
0
 41
0
  0
VERTEX
  8
0
 10
8.36833
 20
3.01714
 30
0.0
 40
0
 41
0
  0
VERTEX
  8
0
 10
8.36833
 20
3.47894
 30
0.0
 40
0
 41
0
  0
SEQEND
 8
0
  0
POLYLINE
  8
0
 62
     0
 66
     1
 10
0
 20
0
 30
0.0
 70
     1
 40
0.75
 41
0.75
  0
VERTEX
  8
0
 10
8.36833
 20
3.47894
 30
0.0
 40
0.0104167
 41
0.0104167
  0
VERTEX
  8
0
 10
8.83197
 20
3.47894
 30
0.0
 40
0.0104167
 41
0.0104167
  0
VERTEX
  8
0
 10
8.83197
 20
3.01714
 30
0.0
 40
0.0104167
 41
0.0104167
  0
VERTEX
  8
0
 10
8.36833
 20
3.01714
 30
0.0
 40
0.0104167
 41
0.0104167
  0
VERTEX
  8
0
 10
8.36833
 20
3.47894
 30
0.0
 40
0.0104167
 41
0.0104167
  0
SEQEND
 8
0
  0
POLYLINE
  8
0
 62
     7
 66
     1
 10
0
 20
0
 30
0.0
 70
     1
 40
0
 41
0
  0
VERTEX
  8
0
 10
9.06646
 20
4.21479
 30
0.0
 40
0
 41
0
  0
VERTEX
  8
0
 10
9.62739
 20
4.21479
 30
0.0
 40
0
 41
0
  0
VERTEX
  8
0
 10
9.62739
 20
3.63058
 30
0.0
 40
0
 41
0
  0
VERTEX
  8
0
 10
9.06646
 20
3.63058
 30
0.0
 40
0
 41
0
  0
VERTEX
  8
0
 10
9.06646
 20
4.21479
 30
0.0
 40
0
 41
0
  0
SEQEND
 8
0
  0
POLYLINE
  8
0
 62
     0
 66
     1
 10
0
 20
0
 30
0.0
 70
     1
 40
0.75
 41
0.75
  0
VERTEX
  8
0
 10
9.06646
 20
4.21479
 30
0.0
 40
0.0104167
 41
0.0104167
  0
VERTEX
  8
0
 10
9.62739
 20
4.21479
 30
0.0
 40
0.0104167
 41
0.0104167
  0
VERTEX
  8
0
 10
9.62739
 20
3.63058
 30
0.0
 40
0.0104167
 41
0.0104167
  0
VERTEX
  8
0
 10
9.06646
 20
3.63058
 30
0.0
 40
0.0104167
 41
0.0104167
  0
VERTEX
  8
0
 10
9.06646
 20
4.21479
 30
0.0
 40
0.0104167
 41
0.0104167
  0
SEQEND
 8
0
  0
POLYLINE
  8
0
 62
     7
 66
     1
 10
0
 20
0
 30
0.0
 70
     1
 40
0
 41
0
  0
VERTEX
  8
0
 10
8.50549
 20
4.21479
 30
0.0
 40
0
 41
0
  0
VERTEX
  8
0
 10
9.0664
 20
4.21479
 30
0.0
 40
0
 41
0
  0
VERTEX
  8
0
 10
9.0664
 20
3.63058
 30
0.0
 40
0
 41
0
  0
VERTEX
  8
0
 10
8.50549
 20
3.63058
 30
0.0
 40
0
 41
0
  0
VERTEX
  8
0
 10
8.50549
 20
4.21479
 30
0.0
 40
0
 41
0
  0
SEQEND
 8
0
  0
POLYLINE
  8
0
 62
     0
 66
     1
 10
0
 20
0
 30
0.0
 70
     1
 40
0.75
 41
0.75
  0
VERTEX
  8
0
 10
8.50549
 20
4.21479
 30
0.0
 40
0.0104167
 41
0.0104167
  0
VERTEX
  8
0
 10
9.0664
 20
4.21479
 30
0.0
 40
0.0104167
 41
0.0104167
  0
VERTEX
  8
0
 10
9.0664
 20
3.63058
 30
0.0
 40
0.0104167
 41
0.0104167
  0
VERTEX
  8
0
 10
8.50549
 20
3.63058
 30
0.0
 40
0.0104167
 41
0.0104167
  0
VERTEX
  8
0
 10
8.50549
 20
4.21479
 30
0.0
 40
0.0104167
 41
0.0104167
  0
SEQEND
 8
0
  0
POLYLINE
  8
0
 62
     7
 66
     1
 10
0
 20
0
 30
0.0
 70
     1
 40
0
 41
0
  0
VERTEX
  8
0
 10
7.94456
 20
4.21479
 30
0.0
 40
0
 41
0
  0
VERTEX
  8
0
 10
8.50549
 20
4.21479
 30
0.0
 40
0
 41
0
  0
VERTEX
  8
0
 10
8.50549
 20
3.63058
 30
0.0
 40
0
 41
0
  0
VERTEX
  8
0
 10
7.94456
 20
3.63058
 30
0.0
 40
0
 41
0
  0
VERTEX
  8
0
 10
7.94456
 20
4.21479
 30
0.0
 40
0
 41
0
  0
SEQEND
 8
0
  0
POLYLINE
  8
0
 62
     0
 66
     1
 10
0
 20
0
 30
0.0
 70
     1
 40
0.75
 41
0.75
  0
VERTEX
  8
0
 10
7.94456
 20
4.21479
 30
0.0
 40
0.0104167
 41
0.0104167
  0
VERTEX
  8
0
 10
8.50549
 20
4.21479
 30
0.0
 40
0.0104167
 41
0.0104167
  0
VERTEX
  8
0
 10
8.50549
 20
3.63058
 30
0.0
 40
0.0104167
 41
0.0104167
  0
VERTEX
  8
0
 10
7.94456
 20
3.63058
 30
0.0
 40
0.0104167
 41
0.0104167
  0
VERTEX
  8
0
 10
7.94456
 20
4.21479
 30
0.0
 40
0.0104167
 41
0.0104167
  0
SEQEND
 8
0
  0
POLYLINE
  8
0
 62
     7
 66
     1
 10
0
 20
0
 30
0.0
 70
     1
 40
0
 41
0
  0
VERTEX
  8
0
 10
7.38357
 20
4.21479
 30
0.0
 40
0
 41
0
  0
VERTEX
  8
0
 10
7.9445
 20
4.21479
 30
0.0
 40
0
 41
0
  0
VERTEX
  8
0
 10
7.9445
 20
3.63058
 30
0.0
 40
0
 41
0
  0
VERTEX
  8
0
 10
7.38357
 20
3.63058
 30
0.0
 40
0
 41
0
  0
VERTEX
  8
0
 10
7.38357
 20
4.21479
 30
0.0
 40
0
 41
0
  0
SEQEND
 8
0
  0
POLYLINE
  8
0
 62
     0
 66
     1
 10
0
 20
0
 30
0.0
 70
     1
 40
0.75
 41
0.75
  0
VERTEX
  8
0
 10
7.38357
 20
4.21479
 30
0.0
 40
0.0104167
 41
0.0104167
  0
VERTEX
  8
0
 10
7.9445
 20
4.21479
 30
0.0
 40
0.0104167
 41
0.0104167
  0
VERTEX
  8
0
 10
7.9445
 20
3.63058
 30
0.0
 40
0.0104167
 41
0.0104167
  0
VERTEX
  8
0
 10
7.38357
 20
3.63058
 30
0.0
 40
0.0104167
 41
0.0104167
  0
VERTEX
  8
0
 10
7.38357
 20
4.21479
 30
0.0
 40
0.0104167
 41
0.0104167
  0
SEQEND
 8
0
  0
POLYLINE
  8
0
 62
     7
 66
     1
 10
0
 20
0
 30
0.0
 70
     1
 40
0
 41
0
  0
VERTEX
  8
0
 10
4.35558
 20
2.48113
 30
0.0
 40
0
 41
0
  0
VERTEX
  8
0
 10
4.84782
 20
2.48113
 30
0.0
 40
0
 41
0
  0
VERTEX
  8
0
 10
4.84782
 20
1.85613
 30
0.0
 40
0
 41
0
  0
VERTEX
  8
0
 10
4.35558
 20
1.85613
 30
0.0
 40
0
 41
0
  0
VERTEX
  8
0
 10
4.35558
 20
2.48113
 30
0.0
 40
0
 41
0
  0
SEQEND
 8
0
  0
POLYLINE
  8
0
 62
     0
 66
     1
 10
0
 20
0
 30
0.0
 70
     1
 40
0.75
 41
0.75
  0
VERTEX
  8
0
 10
4.35558
 20
2.48113
 30
0.0
 40
0.0104167
 41
0.0104167
  0
VERTEX
  8
0
 10
4.84782
 20
2.48113
 30
0.0
 40
0.0104167
 41
0.0104167
  0
VERTEX
  8
0
 10
4.84782
 20
1.85613
 30
0.0
 40
0.0104167
 41
0.0104167
  0
VERTEX
  8
0
 10
4.35558
 20
1.85613
 30
0.0
 40
0.0104167
 41
0.0104167
  0
VERTEX
  8
0
 10
4.35558
 20
2.48113
 30
0.0
 40
0.0104167
 41
0.0104167
  0
SEQEND
 8
0
  0
POLYLINE
  8
0
 62
     7
 66
     1
 10
0
 20
0
 30
0.0
 70
     1
 40
0
 41
0
  0
VERTEX
  8
0
 10
3.7609
 20
2.48113
 30
0.0
 40
0
 41
0
  0
VERTEX
  8
0
 10
4.35558
 20
2.48113
 30
0.0
 40
0
 41
0
  0
VERTEX
  8
0
 10
4.35558
 20
1.85613
 30
0.0
 40
0
 41
0
  0
VERTEX
  8
0
 10
3.7609
 20
1.85613
 30
0.0
 40
0
 41
0
  0
VERTEX
  8
0
 10
3.7609
 20
2.48113
 30
0.0
 40
0
 41
0
  0
SEQEND
 8
0
  0
POLYLINE
  8
0
 62
     0
 66
     1
 10
0
 20
0
 30
0.0
 70
     1
 40
0.713625
 41
0.713625
  0
VERTEX
  8
0
 10
3.7609
 20
2.48113
 30
0.0
 40
0.00991146
 41
0.00991146
  0
VERTEX
  8
0
 10
4.35558
 20
2.48113
 30
0.0
 40
0.00991146
 41
0.00991146
  0
VERTEX
  8
0
 10
4.35558
 20
1.85613
 30
0.0
 40
0.00991146
 41
0.00991146
  0
VERTEX
  8
0
 10
3.7609
 20
1.85613
 30
0.0
 40
0.00991146
 41
0.00991146
  0
VERTEX
  8
0
 10
3.7609
 20
2.48113
 30
0.0
 40
0.00991146
 41
0.00991146
  0
SEQEND
 8
0
  0
POLYLINE
  8
0
 62
     0
 66
     1
 10
0
 20
0
 30
0.0
 40
0.713625
 41
0.713625
  0
VERTEX
  8
0
 10
4.35558
 20
1.85613
 30
0.0
 40
0.00991146
 41
0.00991146
  0
VERTEX
  8
0
 10
4.05821
 20
2.24257
 30
0.0
 40
0.00991146
 41
0.00991146
  0
VERTEX
  8
0
 10
4.05821
 20
2.05507
 30
0.0
 40
0.00991146
 41
0.00991146
  0
VERTEX
  8
0
 10
3.7609
 20
2.44254
 30
0.0
 40
0.00991146
 41
0.00991146
  0
SEQEND
 8
0
  0
POLYLINE
  8
0
 62
     7
 66
     1
 10
0
 20
0
 30
0.0
 70
     1
 40
0
 41
0
  0
VERTEX
  8
0
 10
3.7609
 20
2.48113
 30
0.0
 40
0
 41
0
  0
VERTEX
  8
0
 10
4.35558
 20
2.48113
 30
0.0
 40
0
 41
0
  0
VERTEX
  8
0
 10
4.35558
 20
2.43946
 30
0.0
 40
0
 41
0
  0
VERTEX
  8
0
 10
3.7609
 20
2.43946
 30
0.0
 40
0
 41
0
  0
VERTEX
  8
0
 10
3.7609
 20
2.48113
 30
0.0
 40
0
 41
0
  0
SEQEND
 8
0
  0
POLYLINE
  8
0
 62
     0
 66
     1
 10
0
 20
0
 30
0.0
 70
     1
 40
0.713625
 41
0.713625
  0
VERTEX
  8
0
 10
3.7609
 20
2.48113
 30
0.0
 40
0.00991146
 41
0.00991146
  0
VERTEX
  8
0
 10
4.35558
 20
2.48113
 30
0.0
 40
0.00991146
 41
0.00991146
  0
VERTEX
  8
0
 10
4.35558
 20
2.43946
 30
0.0
 40
0.00991146
 41
0.00991146
  0
VERTEX
  8
0
 10
3.7609
 20
2.43946
 30
0.0
 40
0.00991146
 41
0.00991146
  0
VERTEX
  8
0
 10
3.7609
 20
2.48113
 30
0.0
 40
0.00991146
 41
0.00991146
  0
SEQEND
 8
0
  0
POLYLINE
  8
0
 62
     7
 66
     1
 10
0
 20
0
 30
0.0
 70
     1
 40
0
 41
0
  0
VERTEX
  8
0
 10
3.76053
 20
2.48844
 30
0.0
 40
0
 41
0
  0
VERTEX
  8
0
 10
3.13417
 20
2.48844
 30
0.0
 40
0
 41
0
  0
VERTEX
  8
0
 10
3.13417
 20
0.782281
 30
0.0
 40
0
 41
0
  0
VERTEX
  8
0
 10
0.827311
 20
0.777615
 30
0.0
 40
0
 41
0
  0
VERTEX
  8
0
 10
0.831976
 20
0.150011
 30
0.0
 40
0
 41
0
  0
VERTEX
  8
0
 10
3.76053
 20
0.157281
 30
0.0
 40
0
 41
0
  0
VERTEX
  8
0
 10
3.76053
 20
2.48844
 30
0.0
 40
0
 41
0
  0
SEQEND
 8
0
  0
POLYLINE
  8
0
 62
     0
 66
     1
 10
0
 20
0
 30
0.0
 70
     1
 40
0.75
 41
0.75
  0
VERTEX
  8
0
 10
3.76053
 20
2.48844
 30
0.0
 40
0.0104167
 41
0.0104167
  0
VERTEX
  8
0
 10
3.13417
 20
2.48844
 30
0.0
 40
0.0104167
 41
0.0104167
  0
VERTEX
  8
0
 10
3.13417
 20
0.782281
 30
0.0
 40
0.0104167
 41
0.0104167
  0
VERTEX
  8
0
 10
0.827311
 20
0.777615
 30
0.0
 40
0.0104167
 41
0.0104167
  0
VERTEX
  8
0
 10
0.831976
 20
0.150011
 30
0.0
 40
0.0104167
 41
0.0104167
  0
VERTEX
  8
0
 10
3.76053
 20
0.157281
 30
0.0
 40
0.0104167
 41
0.0104167
  0
VERTEX
  8
0
 10
3.76053
 20
2.48844
 30
0.0
 40
0.0104167
 41
0.0104167
  0
SEQEND
 8
0
  0
POLYLINE
  8
0
 62
     7
 66
     1
 10
0
 20
0
 30
0.0
 70
     1
 40
0
 41
0
  0
VERTEX
  8
0
 10
2.55214
 20
0.760742
 30
0.0
 40
0
 41
0
  0
VERTEX
  8
0
 10
3.13547
 20
0.760742
 30
0.0
 40
0
 41
0
  0
VERTEX
  8
0
 10
3.13547
 20
0.177408
 30
0.0
 40
0
 41
0
  0
VERTEX
  8
0
 10
2.55214
 20
0.177408
 30
0.0
 40
0
 41
0
  0
VERTEX
  8
0
 10
2.55214
 20
0.760742
 30
0.0
 40
0
 41
0
  0
SEQEND
 8
0
  0
POLYLINE
  8
0
 62
     0
 66
     1
 10
0
 20
0
 30
0.0
 70
     1
 40
0.75
 41
0.75
  0
VERTEX
  8
0
 10
2.55214
 20
0.760742
 30
0.0
 40
0.0104167
 41
0.0104167
  0
VERTEX
  8
0
 10
3.13547
 20
0.760742
 30
0.0
 40
0.0104167
 41
0.0104167
  0
VERTEX
  8
0
 10
3.13547
 20
0.177408
 30
0.0
 40
0.0104167
 41
0.0104167
  0
VERTEX
  8
0
 10
2.55214
 20
0.177408
 30
0.0
 40
0.0104167
 41
0.0104167
  0
VERTEX
  8
0
 10
2.55214
 20
0.760742
 30
0.0
 40
0.0104167
 41
0.0104167
  0
SEQEND
 8
0
  0
POLYLINE
  8
0
 62
     7
 66
     1
 10
0
 20
0
 30
0.0
 70
     1
 40
0
 41
0
  0
VERTEX
  8
0
 10
2.90631
 20
0.323242
 30
0.0
 40
0
 41
0
  0
VERTEX
  8
0
 10
2.90631
 20
0.331381
 30
0.0
 40
0
 41
0
  0
VERTEX
  8
0
 10
2.91282
 20
0.355686
 30
0.0
 40
0
 41
0
  0
VERTEX
  8
0
 10
2.93072
 20
0.382161
 30
0.0
 40
0
 41
0
  0
VERTEX
  8
0
 10
2.95719
 20
0.400065
 30
0.0
 40
0
 41
0
  0
VERTEX
  8
0
 10
2.9815
 20
0.406575
 30
0.0
 40
0
 41
0
  0
VERTEX
  8
0
 10
2.98964
 20
0.406575
 30
0.0
 40
0
 41
0
  0
VERTEX
  8
0
 10
2.99772
 20
0.406575
 30
0.0
 40
0
 41
0
  0
VERTEX
  8
0
 10
3.02208
 20
0.400065
 30
0.0
 40
0
 41
0
  0
VERTEX
  8
0
 10
3.04856
 20
0.382161
 30
0.0
 40
0
 41
0
  0
VERTEX
  8
0
 10
3.0664
 20
0.355686
 30
0.0
 40
0
 41
0
  0
VERTEX
  8
0
 10
3.07297
 20
0.331381
 30
0.0
 40
0
 41
0
  0
VERTEX
  8
0
 10
3.07297
 20
0.323242
 30
0.0
 40
0
 41
0
  0
VERTEX
  8
0
 10
3.07297
 20
0.315158
 30
0.0
 40
0
 41
0
  0
VERTEX
  8
0
 10
3.0664
 20
0.290799
 30
0.0
 40
0
 41
0
  0
VERTEX
  8
0
 10
3.04856
 20
0.264324
 30
0.0
 40
0
 41
0
  0
VERTEX
  8
0
 10
3.02208
 20
0.246474
 30
0.0
 40
0
 41
0
  0
VERTEX
  8
0
 10
2.99772
 20
0.239908
 30
0.0
 40
0
 41
0
  0
VERTEX
  8
0
 10
2.98964
 20
0.239908
 30
0.0
 40
0
 41
0
  0
VERTEX
  8
0
 10
2.9815
 20
0.239908
 30
0.0
 40
0
 41
0
  0
VERTEX
  8
0
 10
2.95719
 20
0.246474
 30
0.0
 40
0
 41
0
  0
VERTEX
  8
0
 10
2.93072
 20
0.264324
 30
0.0
 40
0
 41
0
  0
VERTEX
  8
0
 10
2.91282
 20
0.290799
 30
0.0
 40
0
 41
0
  0
VERTEX
  8
0
 10
2.90631
 20
0.315158
 30
0.0
 40
0
 41
0
  0
VERTEX
  8
0
 10
2.90631
 20
0.323242
 30
0.0
 40
0
 41
0
  0
SEQEND
 8
0
  0
POLYLINE
  8
0
 62
     0
 66
     1
 10
0
 20
0
 30
0.0
 70
     1
 40
0.75
 41
0.75
  0
VERTEX
  8
0
 10
2.90631
 20
0.323242
 30
0.0
 40
0.0104167
 41
0.0104167
  0
VERTEX
  8
0
 10
2.90631
 20
0.331381
 30
0.0
 40
0.0104167
 41
0.0104167
  0
VERTEX
  8
0
 10
2.91282
 20
0.355686
 30
0.0
 40
0.0104167
 41
0.0104167
  0
VERTEX
  8
0
 10
2.93072
 20
0.382161
 30
0.0
 40
0.0104167
 41
0.0104167
  0
VERTEX
  8
0
 10
2.95719
 20
0.400065
 30
0.0
 40
0.0104167
 41
0.0104167
  0
VERTEX
  8
0
 10
2.9815
 20
0.406575
 30
0.0
 40
0.0104167
 41
0.0104167
  0
VERTEX
  8
0
 10
2.98964
 20
0.406575
 30
0.0
 40
0.0104167
 41
0.0104167
  0
VERTEX
  8
0
 10
2.99772
 20
0.406575
 30
0.0
 40
0.0104167
 41
0.0104167
  0
VERTEX
  8
0
 10
3.02208
 20
0.400065
 30
0.0
 40
0.0104167
 41
0.0104167
  0
VERTEX
  8
0
 10
3.04856
 20
0.382161
 30
0.0
 40
0.0104167
 41
0.0104167
  0
VERTEX
  8
0
 10
3.0664
 20
0.355686
 30
0.0
 40
0.0104167
 41
0.0104167
  0
VERTEX
  8
0
 10
3.07297
 20
0.331381
 30
0.0
 40
0.0104167
 41
0.0104167
  0
VERTEX
  8
0
 10
3.07297
 20
0.323242
 30
0.0
 40
0.0104167
 41
0.0104167
  0
VERTEX
  8
0
 10
3.07297
 20
0.315158
 30
0.0
 40
0.0104167
 41
0.0104167
  0
VERTEX
  8
0
 10
3.0664
 20
0.290799
 30
0.0
 40
0.0104167
 41
0.0104167
  0
VERTEX
  8
0
 10
3.04856
 20
0.264324
 30
0.0
 40
0.0104167
 41
0.0104167
  0
VERTEX
  8
0
 10
3.02208
 20
0.246474
 30
0.0
 40
0.0104167
 41
0.0104167
  0
VERTEX
  8
0
 10
2.99772
 20
0.239908
 30
0.0
 40
0.0104167
 41
0.0104167
  0
VERTEX
  8
0
 10
2.98964
 20
0.239908
 30
0.0
 40
0.0104167
 41
0.0104167
  0
VERTEX
  8
0
 10
2.9815
 20
0.239908
 30
0.0
 40
0.0104167
 41
0.0104167
  0
VERTEX
  8
0
 10
2.95719
 20
0.246474
 30
0.0
 40
0.0104167
 41
0.0104167
  0
VERTEX
  8
0
 10
2.93072
 20
0.264324
 30
0.0
 40
0.0104167
 41
0.0104167
  0
VERTEX
  8
0
 10
2.91282
 20
0.290799
 30
0.0
 40
0.0104167
 41
0.0104167
  0
VERTEX
  8
0
 10
2.90631
 20
0.315158
 30
0.0
 40
0.0104167
 41
0.0104167
  0
VERTEX
  8
0
 10
2.90631
 20
0.323242
 30
0.0
 40
0.0104167
 41
0.0104167
  0
SEQEND
 8
0
  0
POLYLINE
  8
0
 62
     7
 66
     1
 10
0
 20
0
 30
0.0
 70
     1
 40
0
 41
0
  0
VERTEX
  8
0
 10
2.61464
 20
0.323242
 30
0.0
 40
0
 41
0
  0
VERTEX
  8
0
 10
2.61464
 20
0.331381
 30
0.0
 40
0
 41
0
  0
VERTEX
  8
0
 10
2.62115
 20
0.355686
 30
0.0
 40
0
 41
0
  0
VERTEX
  8
0
 10
2.63906
 20
0.382161
 30
0.0
 40
0
 41
0
  0
VERTEX
  8
0
 10
2.66553
 20
0.400065
 30
0.0
 40
0
 41
0
  0
VERTEX
  8
0
 10
2.68983
 20
0.406575
 30
0.0
 40
0
 41
0
  0
VERTEX
  8
0
 10
2.69797
 20
0.406575
 30
0.0
 40
0
 41
0
  0
VERTEX
  8
0
 10
2.70606
 20
0.406575
 30
0.0
 40
0
 41
0
  0
VERTEX
  8
0
 10
2.73042
 20
0.400065
 30
0.0
 40
0
 41
0
  0
VERTEX
  8
0
 10
2.75689
 20
0.382161
 30
0.0
 40
0
 41
0
  0
VERTEX
  8
0
 10
2.77474
 20
0.355686
 30
0.0
 40
0
 41
0
  0
VERTEX
  8
0
 10
2.78131
 20
0.331381
 30
0.0
 40
0
 41
0
  0
VERTEX
  8
0
 10
2.78131
 20
0.323242
 30
0.0
 40
0
 41
0
  0
VERTEX
  8
0
 10
2.78131
 20
0.315158
 30
0.0
 40
0
 41
0
  0
VERTEX
  8
0
 10
2.77474
 20
0.290799
 30
0.0
 40
0
 41
0
  0
VERTEX
  8
0
 10
2.75689
 20
0.264324
 30
0.0
 40
0
 41
0
  0
VERTEX
  8
0
 10
2.73042
 20
0.246474
 30
0.0
 40
0
 41
0
  0
VERTEX
  8
0
 10
2.70606
 20
0.239908
 30
0.0
 40
0
 41
0
  0
VERTEX
  8
0
 10
2.69797
 20
0.239908
 30
0.0
 40
0
 41
0
  0
VERTEX
  8
0
 10
2.68983
 20
0.239908
 30
0.0
 40
0
 41
0
  0
VERTEX
  8
0
 10
2.66553
 20
0.246474
 30
0.0
 40
0
 41
0
  0
VERTEX
  8
0
 10
2.63906
 20
0.264324
 30
0.0
 40
0
 41
0
  0
VERTEX
  8
0
 10
2.62115
 20
0.290799
 30
0.0
 40
0
 41
0
  0
VERTEX
  8
0
 10
2.61464
 20
0.315158
 30
0.0
 40
0
 41
0
  0
VERTEX
  8
0
 10
2.61464
 20
0.323242
 30
0.0
 40
0
 41
0
  0
SEQEND
 8
0
  0
POLYLINE
  8
0
 62
     0
 66
     1
 10
0
 20
0
 30
0.0
 70
     1
 40
0.75
 41
0.75
  0
VERTEX
  8
0
 10
2.61464
 20
0.323242
 30
0.0
 40
0.0104167
 41
0.0104167
  0
VERTEX
  8
0
 10
2.61464
 20
0.331381
 30
0.0
 40
0.0104167
 41
0.0104167
  0
VERTEX
  8
0
 10
2.62115
 20
0.355686
 30
0.0
 40
0.0104167
 41
0.0104167
  0
VERTEX
  8
0
 10
2.63906
 20
0.382161
 30
0.0
 40
0.0104167
 41
0.0104167
  0
VERTEX
  8
0
 10
2.66553
 20
0.400065
 30
0.0
 40
0.0104167
 41
0.0104167
  0
VERTEX
  8
0
 10
2.68983
 20
0.406575
 30
0.0
 40
0.0104167
 41
0.0104167
  0
VERTEX
  8
0
 10
2.69797
 20
0.406575
 30
0.0
 40
0.0104167
 41
0.0104167
  0
VERTEX
  8
0
 10
2.70606
 20
0.406575
 30
0.0
 40
0.0104167
 41
0.0104167
  0
VERTEX
  8
0
 10
2.73042
 20
0.400065
 30
0.0
 40
0.0104167
 41
0.0104167
  0
VERTEX
  8
0
 10
2.75689
 20
0.382161
 30
0.0
 40
0.0104167
 41
0.0104167
  0
VERTEX
  8
0
 10
2.77474
 20
0.355686
 30
0.0
 40
0.0104167
 41
0.0104167
  0
VERTEX
  8
0
 10
2.78131
 20
0.331381
 30
0.0
 40
0.0104167
 41
0.0104167
  0
VERTEX
  8
0
 10
2.78131
 20
0.323242
 30
0.0
 40
0.0104167
 41
0.0104167
  0
VERTEX
  8
0
 10
2.78131
 20
0.315158
 30
0.0
 40
0.0104167
 41
0.0104167
  0
VERTEX
  8
0
 10
2.77474
 20
0.290799
 30
0.0
 40
0.0104167
 41
0.0104167
  0
VERTEX
  8
0
 10
2.75689
 20
0.264324
 30
0.0
 40
0.0104167
 41
0.0104167
  0
VERTEX
  8
0
 10
2.73042
 20
0.246474
 30
0.0
 40
0.0104167
 41
0.0104167
  0
VERTEX
  8
0
 10
2.70606
 20
0.239908
 30
0.0
 40
0.0104167
 41
0.0104167
  0
VERTEX
  8
0
 10
2.69797
 20
0.239908
 30
0.0
 40
0.0104167
 41
0.0104167
  0
VERTEX
  8
0
 10
2.68983
 20
0.239908
 30
0.0
 40
0.0104167
 41
0.0104167
  0
VERTEX
  8
0
 10
2.66553
 20
0.246474
 30
0.0
 40
0.0104167
 41
0.0104167
  0
VERTEX
  8
0
 10
2.63906
 20
0.264324
 30
0.0
 40
0.0104167
 41
0.0104167
  0
VERTEX
  8
0
 10
2.62115
 20
0.290799
 30
0.0
 40
0.0104167
 41
0.0104167
  0
VERTEX
  8
0
 10
2.61464
 20
0.315158
 30
0.0
 40
0.0104167
 41
0.0104167
  0
VERTEX
  8
0
 10
2.61464
 20
0.323242
 30
0.0
 40
0.0104167
 41
0.0104167
  0
SEQEND
 8
0
  0
POLYLINE
  8
0
 62
     7
 66
     1
 10
0
 20
0
 30
0.0
 70
     1
 40
0
 41
0
  0
VERTEX
  8
0
 10
2.90631
 20
0.614908
 30
0.0
 40
0
 41
0
  0
VERTEX
  8
0
 10
2.90631
 20
0.623047
 30
0.0
 40
0
 41
0
  0
VERTEX
  8
0
 10
2.91282
 20
0.647353
 30
0.0
 40
0
 41
0
  0
VERTEX
  8
0
 10
2.93072
 20
0.673828
 30
0.0
 40
0
 41
0
  0
VERTEX
  8
0
 10
2.95719
 20
0.691732
 30
0.0
 40
0
 41
0
  0
VERTEX
  8
0
 10
2.9815
 20
0.698242
 30
0.0
 40
0
 41
0
  0
VERTEX
  8
0
 10
2.98964
 20
0.698242
 30
0.0
 40
0
 41
0
  0
VERTEX
  8
0
 10
2.99772
 20
0.698242
 30
0.0
 40
0
 41
0
  0
VERTEX
  8
0
 10
3.02208
 20
0.691732
 30
0.0
 40
0
 41
0
  0
VERTEX
  8
0
 10
3.04856
 20
0.673828
 30
0.0
 40
0
 41
0
  0
VERTEX
  8
0
 10
3.0664
 20
0.647353
 30
0.0
 40
0
 41
0
  0
VERTEX
  8
0
 10
3.07297
 20
0.623047
 30
0.0
 40
0
 41
0
  0
VERTEX
  8
0
 10
3.07297
 20
0.614908
 30
0.0
 40
0
 41
0
  0
VERTEX
  8
0
 10
3.07297
 20
0.606825
 30
0.0
 40
0
 41
0
  0
VERTEX
  8
0
 10
3.0664
 20
0.582465
 30
0.0
 40
0
 41
0
  0
VERTEX
  8
0
 10
3.04856
 20
0.55599
 30
0.0
 40
0
 41
0
  0
VERTEX
  8
0
 10
3.02208
 20
0.53814
 30
0.0
 40
0
 41
0
  0
VERTEX
  8
0
 10
2.99772
 20
0.531575
 30
0.0
 40
0
 41
0
  0
VERTEX
  8
0
 10
2.98964
 20
0.531575
 30
0.0
 40
0
 41
0
  0
VERTEX
  8
0
 10
2.9815
 20
0.531575
 30
0.0
 40
0
 41
0
  0
VERTEX
  8
0
 10
2.95719
 20
0.53814
 30
0.0
 40
0
 41
0
  0
VERTEX
  8
0
 10
2.93072
 20
0.55599
 30
0.0
 40
0
 41
0
  0
VERTEX
  8
0
 10
2.91282
 20
0.582465
 30
0.0
 40
0
 41
0
  0
VERTEX
  8
0
 10
2.90631
 20
0.606825
 30
0.0
 40
0
 41
0
  0
VERTEX
  8
0
 10
2.90631
 20
0.614908
 30
0.0
 40
0
 41
0
  0
SEQEND
 8
0
  0
POLYLINE
  8
0
 62
     0
 66
     1
 10
0
 20
0
 30
0.0
 70
     1
 40
0.75
 41
0.75
  0
VERTEX
  8
0
 10
2.90631
 20
0.614908
 30
0.0
 40
0.0104167
 41
0.0104167
  0
VERTEX
  8
0
 10
2.90631
 20
0.623047
 30
0.0
 40
0.0104167
 41
0.0104167
  0
VERTEX
  8
0
 10
2.91282
 20
0.647353
 30
0.0
 40
0.0104167
 41
0.0104167
  0
VERTEX
  8
0
 10
2.93072
 20
0.673828
 30
0.0
 40
0.0104167
 41
0.0104167
  0
VERTEX
  8
0
 10
2.95719
 20
0.691732
 30
0.0
 40
0.0104167
 41
0.0104167
  0
VERTEX
  8
0
 10
2.9815
 20
0.698242
 30
0.0
 40
0.0104167
 41
0.0104167
  0
VERTEX
  8
0
 10
2.98964
 20
0.698242
 30
0.0
 40
0.0104167
 41
0.0104167
  0
VERTEX
  8
0
 10
2.99772
 20
0.698242
 30
0.0
 40
0.0104167
 41
0.0104167
  0
VERTEX
  8
0
 10
3.02208
 20
0.691732
 30
0.0
 40
0.0104167
 41
0.0104167
  0
VERTEX
  8
0
 10
3.04856
 20
0.673828
 30
0.0
 40
0.0104167
 41
0.0104167
  0
VERTEX
  8
0
 10
3.0664
 20
0.647353
 30
0.0
 40
0.0104167
 41
0.0104167
  0
VERTEX
  8
0
 10
3.07297
 20
0.623047
 30
0.0
 40
0.0104167
 41
0.0104167
  0
VERTEX
  8
0
 10
3.07297
 20
0.614908
 30
0.0
 40
0.0104167
 41
0.0104167
  0
VERTEX
  8
0
 10
3.07297
 20
0.606825
 30
0.0
 40
0.0104167
 41
0.0104167
  0
VERTEX
  8
0
 10
3.0664
 20
0.582465
 30
0.0
 40
0.0104167
 41
0.0104167
  0
VERTEX
  8
0
 10
3.04856
 20
0.55599
 30
0.0
 40
0.0104167
 41
0.0104167
  0
VERTEX
  8
0
 10
3.02208
 20
0.53814
 30
0.0
 40
0.0104167
 41
0.0104167
  0
VERTEX
  8
0
 10
2.99772
 20
0.531575
 30
0.0
 40
0.0104167
 41
0.0104167
  0
VERTEX
  8
0
 10
2.98964
 20
0.531575
 30
0.0
 40
0.0104167
 41
0.0104167
  0
VERTEX
  8
0
 10
2.9815
 20
0.531575
 30
0.0
 40
0.0104167
 41
0.0104167
  0
VERTEX
  8
0
 10
2.95719
 20
0.53814
 30
0.0
 40
0.0104167
 41
0.0104167
  0
VERTEX
  8
0
 10
2.93072
 20
0.55599
 30
0.0
 40
0.0104167
 41
0.0104167
  0
VERTEX
  8
0
 10
2.91282
 20
0.582465
 30
0.0
 40
0.0104167
 41
0.0104167
  0
VERTEX
  8
0
 10
2.90631
 20
0.606825
 30
0.0
 40
0.0104167
 41
0.0104167
  0
VERTEX
  8
0
 10
2.90631
 20
0.614908
 30
0.0
 40
0.0104167
 41
0.0104167
  0
SEQEND
 8
0
  0
POLYLINE
  8
0
 62
     7
 66
     1
 10
0
 20
0
 30
0.0
 70
     1
 40
0
 41
0
  0
VERTEX
  8
0
 10
2.61464
 20
0.614908
 30
0.0
 40
0
 41
0
  0
VERTEX
  8
0
 10
2.61464
 20
0.623047
 30
0.0
 40
0
 41
0
  0
VERTEX
  8
0
 10
2.62115
 20
0.647353
 30
0.0
 40
0
 41
0
  0
VERTEX
  8
0
 10
2.63906
 20
0.673828
 30
0.0
 40
0
 41
0
  0
VERTEX
  8
0
 10
2.66553
 20
0.691732
 30
0.0
 40
0
 41
0
  0
VERTEX
  8
0
 10
2.68983
 20
0.698242
 30
0.0
 40
0
 41
0
  0
VERTEX
  8
0
 10
2.69797
 20
0.698242
 30
0.0
 40
0
 41
0
  0
VERTEX
  8
0
 10
2.70606
 20
0.698242
 30
0.0
 40
0
 41
0
  0
VERTEX
  8
0
 10
2.73042
 20
0.691732
 30
0.0
 40
0
 41
0
  0
VERTEX
  8
0
 10
2.75689
 20
0.673828
 30
0.0
 40
0
 41
0
  0
VERTEX
  8
0
 10
2.77474
 20
0.647353
 30
0.0
 40
0
 41
0
  0
VERTEX
  8
0
 10
2.78131
 20
0.623047
 30
0.0
 40
0
 41
0
  0
VERTEX
  8
0
 10
2.78131
 20
0.614908
 30
0.0
 40
0
 41
0
  0
VERTEX
  8
0
 10
2.78131
 20
0.606825
 30
0.0
 40
0
 41
0
  0
VERTEX
  8
0
 10
2.77474
 20
0.582465
 30
0.0
 40
0
 41
0
  0
VERTEX
  8
0
 10
2.75689
 20
0.55599
 30
0.0
 40
0
 41
0
  0
VERTEX
  8
0
 10
2.73042
 20
0.53814
 30
0.0
 40
0
 41
0
  0
VERTEX
  8
0
 10
2.70606
 20
0.531575
 30
0.0
 40
0
 41
0
  0
VERTEX
  8
0
 10
2.69797
 20
0.531575
 30
0.0
 40
0
 41
0
  0
VERTEX
  8
0
 10
2.68983
 20
0.531575
 30
0.0
 40
0
 41
0
  0
VERTEX
  8
0
 10
2.66553
 20
0.53814
 30
0.0
 40
0
 41
0
  0
VERTEX
  8
0
 10
2.63906
 20
0.55599
 30
0.0
 40
0
 41
0
  0
VERTEX
  8
0
 10
2.62115
 20
0.582465
 30
0.0
 40
0
 41
0
  0
VERTEX
  8
0
 10
2.61464
 20
0.606825
 30
0.0
 40
0
 41
0
  0
VERTEX
  8
0
 10
2.61464
 20
0.614908
 30
0.0
 40
0
 41
0
  0
SEQEND
 8
0
  0
POLYLINE
  8
0
 62
     0
 66
     1
 10
0
 20
0
 30
0.0
 70
     1
 40
0.75
 41
0.75
  0
VERTEX
  8
0
 10
2.61464
 20
0.614908
 30
0.0
 40
0.0104167
 41
0.0104167
  0
VERTEX
  8
0
 10
2.61464
 20
0.623047
 30
0.0
 40
0.0104167
 41
0.0104167
  0
VERTEX
  8
0
 10
2.62115
 20
0.647353
 30
0.0
 40
0.0104167
 41
0.0104167
  0
VERTEX
  8
0
 10
2.63906
 20
0.673828
 30
0.0
 40
0.0104167
 41
0.0104167
  0
VERTEX
  8
0
 10
2.66553
 20
0.691732
 30
0.0
 40
0.0104167
 41
0.0104167
  0
VERTEX
  8
0
 10
2.68983
 20
0.698242
 30
0.0
 40
0.0104167
 41
0.0104167
  0
VERTEX
  8
0
 10
2.69797
 20
0.698242
 30
0.0
 40
0.0104167
 41
0.0104167
  0
VERTEX
  8
0
 10
2.70606
 20
0.698242
 30
0.0
 40
0.0104167
 41
0.0104167
  0
VERTEX
  8
0
 10
2.73042
 20
0.691732
 30
0.0
 40
0.0104167
 41
0.0104167
  0
VERTEX
  8
0
 10
2.75689
 20
0.673828
 30
0.0
 40
0.0104167
 41
0.0104167
  0
VERTEX
  8
0
 10
2.77474
 20
0.647353
 30
0.0
 40
0.0104167
 41
0.0104167
  0
VERTEX
  8
0
 10
2.78131
 20
0.623047
 30
0.0
 40
0.0104167
 41
0.0104167
  0
VERTEX
  8
0
 10
2.78131
 20
0.614908
 30
0.0
 40
0.0104167
 41
0.0104167
  0
VERTEX
  8
0
 10
2.78131
 20
0.606825
 30
0.0
 40
0.0104167
 41
0.0104167
  0
VERTEX
  8
0
 10
2.77474
 20
0.582465
 30
0.0
 40
0.0104167
 41
0.0104167
  0
VERTEX
  8
0
 10
2.75689
 20
0.55599
 30
0.0
 40
0.0104167
 41
0.0104167
  0
VERTEX
  8
0
 10
2.73042
 20
0.53814
 30
0.0
 40
0.0104167
 41
0.0104167
  0
VERTEX
  8
0
 10
2.70606
 20
0.531575
 30
0.0
 40
0.0104167
 41
0.0104167
  0
VERTEX
  8
0
 10
2.69797
 20
0.531575
 30
0.0
 40
0.0104167
 41
0.0104167
  0
VERTEX
  8
0
 10
2.68983
 20
0.531575
 30
0.0
 40
0.0104167
 41
0.0104167
  0
VERTEX
  8
0
 10
2.66553
 20
0.53814
 30
0.0
 40
0.0104167
 41
0.0104167
  0
VERTEX
  8
0
 10
2.63906
 20
0.55599
 30
0.0
 40
0.0104167
 41
0.0104167
  0
VERTEX
  8
0
 10
2.62115
 20
0.582465
 30
0.0
 40
0.0104167
 41
0.0104167
  0
VERTEX
  8
0
 10
2.61464
 20
0.606825
 30
0.0
 40
0.0104167
 41
0.0104167
  0
VERTEX
  8
0
 10
2.61464
 20
0.614908
 30
0.0
 40
0.0104167
 41
0.0104167
  0
SEQEND
 8
0
  0
POLYLINE
  8
0
 62
     7
 66
     1
 10
0
 20
0
 30
0.0
 70
     1
 40
0
 41
0
  0
VERTEX
  8
0
 10
3.20871
 20
1.79769
 30
0.0
 40
0
 41
0
  0
VERTEX
  8
0
 10
3.65608
 20
1.79769
 30
0.0
 40
0
 41
0
  0
VERTEX
  8
0
 10
3.65608
 20
1.46457
 30
0.0
 40
0
 41
0
  0
VERTEX
  8
0
 10
3.20871
 20
1.46457
 30
0.0
 40
0
 41
0
  0
VERTEX
  8
0
 10
3.20871
 20
1.79769
 30
0.0
 40
0
 41
0
  0
SEQEND
 8
0
  0
POLYLINE
  8
0
 62
     0
 66
     1
 10
0
 20
0
 30
0.0
 70
     1
 40
0.75
 41
0.75
  0
VERTEX
  8
0
 10
3.20871
 20
1.79769
 30
0.0
 40
0.0104167
 41
0.0104167
  0
VERTEX
  8
0
 10
3.20871
 20
1.46457
 30
0.0
 40
0.0104167
 41
0.0104167
  0
VERTEX
  8
0
 10
3.65608
 20
1.46457
 30
0.0
 40
0.0104167
 41
0.0104167
  0
VERTEX
  8
0
 10
3.65608
 20
1.79769
 30
0.0
 40
0.0104167
 41
0.0104167
  0
VERTEX
  8
0
 10
3.20871
 20
1.79769
 30
0.0
 40
0.0104167
 41
0.0104167
  0
SEQEND
 8
0
  0
POLYLINE
  8
0
 62
     7
 66
     1
 10
0
 20
0
 30
0.0
 70
     1
 40
0
 41
0
  0
VERTEX
  8
0
 10
3.20774
 20
1.42953
 30
0.0
 40
0
 41
0
  0
VERTEX
  8
0
 10
3.65506
 20
1.42953
 30
0.0
 40
0
 41
0
  0
VERTEX
  8
0
 10
3.65506
 20
1.09641
 30
0.0
 40
0
 41
0
  0
VERTEX
  8
0
 10
3.20774
 20
1.09641
 30
0.0
 40
0
 41
0
  0
VERTEX
  8
0
 10
3.20774
 20
1.42953
 30
0.0
 40
0
 41
0
  0
SEQEND
 8
0
  0
POLYLINE
  8
0
 62
     0
 66
     1
 10
0
 20
0
 30
0.0
 70
     1
 40
0.75
 41
0.75
  0
VERTEX
  8
0
 10
3.20774
 20
1.42953
 30
0.0
 40
0.0104167
 41
0.0104167
  0
VERTEX
  8
0
 10
3.20774
 20
1.09641
 30
0.0
 40
0.0104167
 41
0.0104167
  0
VERTEX
  8
0
 10
3.65506
 20
1.09641
 30
0.0
 40
0.0104167
 41
0.0104167
  0
VERTEX
  8
0
 10
3.65506
 20
1.42953
 30
0.0
 40
0.0104167
 41
0.0104167
  0
VERTEX
  8
0
 10
3.20774
 20
1.42953
 30
0.0
 40
0.0104167
 41
0.0104167
  0
SEQEND
 8
0
  0
POLYLINE
  8
0
 62
     7
 66
     1
 10
0
 20
0
 30
0.0
 70
     1
 40
0
 41
0
  0
VERTEX
  8
0
 10
3.43332
 20
1.58942
 30
0.0
 40
0
 41
0
  0
VERTEX
  8
0
 10
3.42686
 20
1.58942
 30
0.0
 40
0
 41
0
  0
VERTEX
  8
0
 10
3.4075
 20
1.6001
 30
0.0
 40
0
 41
0
  0
VERTEX
  8
0
 10
3.39686
 20
1.61947
 30
0.0
 40
0
 41
0
  0
VERTEX
  8
0
 10
3.39686
 20
1.62588
 30
0.0
 40
0
 41
0
  0
VERTEX
  8
0
 10
3.39686
 20
1.63232
 30
0.0
 40
0
 41
0
  0
VERTEX
  8
0
 10
3.4075
 20
1.65169
 30
0.0
 40
0
 41
0
  0
VERTEX
  8
0
 10
3.42686
 20
1.66233
 30
0.0
 40
0
 41
0
  0
VERTEX
  8
0
 10
3.43332
 20
1.66233
 30
0.0
 40
0
 41
0
  0
VERTEX
  8
0
 10
3.43972
 20
1.66233
 30
0.0
 40
0
 41
0
  0
VERTEX
  8
0
 10
3.4591
 20
1.65169
 30
0.0
 40
0
 41
0
  0
VERTEX
  8
0
 10
3.46978
 20
1.63232
 30
0.0
 40
0
 41
0
  0
VERTEX
  8
0
 10
3.46978
 20
1.62588
 30
0.0
 40
0
 41
0
  0
VERTEX
  8
0
 10
3.46978
 20
1.61947
 30
0.0
 40
0
 41
0
  0
VERTEX
  8
0
 10
3.4591
 20
1.6001
 30
0.0
 40
0
 41
0
  0
VERTEX
  8
0
 10
3.43972
 20
1.58942
 30
0.0
 40
0
 41
0
  0
VERTEX
  8
0
 10
3.43332
 20
1.58942
 30
0.0
 40
0
 41
0
  0
SEQEND
 8
0
  0
POLYLINE
  8
0
 62
     0
 66
     1
 10
0
 20
0
 30
0.0
 70
     1
 40
0.6
 41
0.6
  0
VERTEX
  8
0
 10
3.43332
 20
1.58942
 30
0.0
 40
0.00833333
 41
0.00833333
  0
VERTEX
  8
0
 10
3.42686
 20
1.58942
 30
0.0
 40
0.00833333
 41
0.00833333
  0
VERTEX
  8
0
 10
3.4075
 20
1.6001
 30
0.0
 40
0.00833333
 41
0.00833333
  0
VERTEX
  8
0
 10
3.39686
 20
1.61947
 30
0.0
 40
0.00833333
 41
0.00833333
  0
VERTEX
  8
0
 10
3.39686
 20
1.62588
 30
0.0
 40
0.00833333
 41
0.00833333
  0
VERTEX
  8
0
 10
3.39686
 20
1.63232
 30
0.0
 40
0.00833333
 41
0.00833333
  0
VERTEX
  8
0
 10
3.4075
 20
1.65169
 30
0.0
 40
0.00833333
 41
0.00833333
  0
VERTEX
  8
0
 10
3.42686
 20
1.66233
 30
0.0
 40
0.00833333
 41
0.00833333
  0
VERTEX
  8
0
 10
3.43332
 20
1.66233
 30
0.0
 40
0.00833333
 41
0.00833333
  0
VERTEX
  8
0
 10
3.43972
 20
1.66233
 30
0.0
 40
0.00833333
 41
0.00833333
  0
VERTEX
  8
0
 10
3.4591
 20
1.65169
 30
0.0
 40
0.00833333
 41
0.00833333
  0
VERTEX
  8
0
 10
3.46978
 20
1.63232
 30
0.0
 40
0.00833333
 41
0.00833333
  0
VERTEX
  8
0
 10
3.46978
 20
1.62588
 30
0.0
 40
0.00833333
 41
0.00833333
  0
VERTEX
  8
0
 10
3.46978
 20
1.61947
 30
0.0
 40
0.00833333
 41
0.00833333
  0
VERTEX
  8
0
 10
3.4591
 20
1.6001
 30
0.0
 40
0.00833333
 41
0.00833333
  0
VERTEX
  8
0
 10
3.43972
 20
1.58942
 30
0.0
 40
0.00833333
 41
0.00833333
  0
VERTEX
  8
0
 10
3.43332
 20
1.58942
 30
0.0
 40
0.00833333
 41
0.00833333
  0
SEQEND
 8
0
  0
POLYLINE
  8
0
 62
     7
 66
     1
 10
0
 20
0
 30
0.0
 70
     1
 40
0
 41
0
  0
VERTEX
  8
0
 10
3.43332
 20
1.23296
 30
0.0
 40
0
 41
0
  0
VERTEX
  8
0
 10
3.42686
 20
1.23296
 30
0.0
 40
0
 41
0
  0
VERTEX
  8
0
 10
3.4075
 20
1.24365
 30
0.0
 40
0
 41
0
  0
VERTEX
  8
0
 10
3.39686
 20
1.26302
 30
0.0
 40
0
 41
0
  0
VERTEX
  8
0
 10
3.39686
 20
1.26942
 30
0.0
 40
0
 41
0
  0
VERTEX
  8
0
 10
3.39686
 20
1.27588
 30
0.0
 40
0
 41
0
  0
VERTEX
  8
0
 10
3.4075
 20
1.29525
 30
0.0
 40
0
 41
0
  0
VERTEX
  8
0
 10
3.42686
 20
1.30588
 30
0.0
 40
0
 41
0
  0
VERTEX
  8
0
 10
3.43332
 20
1.30588
 30
0.0
 40
0
 41
0
  0
VERTEX
  8
0
 10
3.43972
 20
1.30588
 30
0.0
 40
0
 41
0
  0
VERTEX
  8
0
 10
3.4591
 20
1.29525
 30
0.0
 40
0
 41
0
  0
VERTEX
  8
0
 10
3.46978
 20
1.27588
 30
0.0
 40
0
 41
0
  0
VERTEX
  8
0
 10
3.46978
 20
1.26942
 30
0.0
 40
0
 41
0
  0
VERTEX
  8
0
 10
3.46978
 20
1.26302
 30
0.0
 40
0
 41
0
  0
VERTEX
  8
0
 10
3.4591
 20
1.24365
 30
0.0
 40
0
 41
0
  0
VERTEX
  8
0
 10
3.43972
 20
1.23296
 30
0.0
 40
0
 41
0
  0
VERTEX
  8
0
 10
3.43332
 20
1.23296
 30
0.0
 40
0
 41
0
  0
SEQEND
 8
0
  0
POLYLINE
  8
0
 62
     0
 66
     1
 10
0
 20
0
 30
0.0
 70
     1
 40
0.6
 41
0.6
  0
VERTEX
  8
0
 10
3.43332
 20
1.23296
 30
0.0
 40
0.00833333
 41
0.00833333
  0
VERTEX
  8
0
 10
3.42686
 20
1.23296
 30
0.0
 40
0.00833333
 41
0.00833333
  0
VERTEX
  8
0
 10
3.4075
 20
1.24365
 30
0.0
 40
0.00833333
 41
0.00833333
  0
VERTEX
  8
0
 10
3.39686
 20
1.26302
 30
0.0
 40
0.00833333
 41
0.00833333
  0
VERTEX
  8
0
 10
3.39686
 20
1.26942
 30
0.0
 40
0.00833333
 41
0.00833333
  0
VERTEX
  8
0
 10
3.39686
 20
1.27588
 30
0.0
 40
0.00833333
 41
0.00833333
  0
VERTEX
  8
0
 10
3.4075
 20
1.29525
 30
0.0
 40
0.00833333
 41
0.00833333
  0
VERTEX
  8
0
 10
3.42686
 20
1.30588
 30
0.0
 40
0.00833333
 41
0.00833333
  0
VERTEX
  8
0
 10
3.43332
 20
1.30588
 30
0.0
 40
0.00833333
 41
0.00833333
  0
VERTEX
  8
0
 10
3.43972
 20
1.30588
 30
0.0
 40
0.00833333
 41
0.00833333
  0
VERTEX
  8
0
 10
3.4591
 20
1.29525
 30
0.0
 40
0.00833333
 41
0.00833333
  0
VERTEX
  8
0
 10
3.46978
 20
1.27588
 30
0.0
 40
0.00833333
 41
0.00833333
  0
VERTEX
  8
0
 10
3.46978
 20
1.26942
 30
0.0
 40
0.00833333
 41
0.00833333
  0
VERTEX
  8
0
 10
3.46978
 20
1.26302
 30
0.0
 40
0.00833333
 41
0.00833333
  0
VERTEX
  8
0
 10
3.4591
 20
1.24365
 30
0.0
 40
0.00833333
 41
0.00833333
  0
VERTEX
  8
0
 10
3.43972
 20
1.23296
 30
0.0
 40
0.00833333
 41
0.00833333
  0
VERTEX
  8
0
 10
3.43332
 20
1.23296
 30
0.0
 40
0.00833333
 41
0.00833333
  0
SEQEND
 8
0
  0
POLYLINE
  8
0
 62
     7
 66
     1
 10
0
 20
0
 30
0.0
 70
     1
 40
0
 41
0
  0
VERTEX
  8
0
 10
3.43332
 20
1.60504
 30
0.0
 40
0
 41
0
  0
VERTEX
  8
0
 10
3.42964
 20
1.60504
 30
0.0
 40
0
 41
0
  0
VERTEX
  8
0
 10
3.41857
 20
1.61117
 30
0.0
 40
0
 41
0
  0
VERTEX
  8
0
 10
3.41249
 20
1.62224
 30
0.0
 40
0
 41
0
  0
VERTEX
  8
0
 10
3.41249
 20
1.62588
 30
0.0
 40
0
 41
0
  0
VERTEX
  8
0
 10
3.41249
 20
1.62956
 30
0.0
 40
0
 41
0
  0
VERTEX
  8
0
 10
3.41857
 20
1.64063
 30
0.0
 40
0
 41
0
  0
VERTEX
  8
0
 10
3.42964
 20
1.64671
 30
0.0
 40
0
 41
0
  0
VERTEX
  8
0
 10
3.43332
 20
1.64671
 30
0.0
 40
0
 41
0
  0
VERTEX
  8
0
 10
3.43696
 20
1.64671
 30
0.0
 40
0
 41
0
  0
VERTEX
  8
0
 10
3.44803
 20
1.64063
 30
0.0
 40
0
 41
0
  0
VERTEX
  8
0
 10
3.45415
 20
1.62956
 30
0.0
 40
0
 41
0
  0
VERTEX
  8
0
 10
3.45415
 20
1.62588
 30
0.0
 40
0
 41
0
  0
VERTEX
  8
0
 10
3.45415
 20
1.62224
 30
0.0
 40
0
 41
0
  0
VERTEX
  8
0
 10
3.44803
 20
1.61117
 30
0.0
 40
0
 41
0
  0
VERTEX
  8
0
 10
3.43696
 20
1.60504
 30
0.0
 40
0
 41
0
  0
VERTEX
  8
0
 10
3.43332
 20
1.60504
 30
0.0
 40
0
 41
0
  0
SEQEND
 8
0
  0
POLYLINE
  8
0
 62
     0
 66
     1
 10
0
 20
0
 30
0.0
 70
     1
 40
0.6
 41
0.6
  0
VERTEX
  8
0
 10
3.43332
 20
1.60504
 30
0.0
 40
0.00833333
 41
0.00833333
  0
VERTEX
  8
0
 10
3.42964
 20
1.60504
 30
0.0
 40
0.00833333
 41
0.00833333
  0
VERTEX
  8
0
 10
3.41857
 20
1.61117
 30
0.0
 40
0.00833333
 41
0.00833333
  0
VERTEX
  8
0
 10
3.41249
 20
1.62224
 30
0.0
 40
0.00833333
 41
0.00833333
  0
VERTEX
  8
0
 10
3.41249
 20
1.62588
 30
0.0
 40
0.00833333
 41
0.00833333
  0
VERTEX
  8
0
 10
3.41249
 20
1.62956
 30
0.0
 40
0.00833333
 41
0.00833333
  0
VERTEX
  8
0
 10
3.41857
 20
1.64063
 30
0.0
 40
0.00833333
 41
0.00833333
  0
VERTEX
  8
0
 10
3.42964
 20
1.64671
 30
0.0
 40
0.00833333
 41
0.00833333
  0
VERTEX
  8
0
 10
3.43332
 20
1.64671
 30
0.0
 40
0.00833333
 41
0.00833333
  0
VERTEX
  8
0
 10
3.43696
 20
1.64671
 30
0.0
 40
0.00833333
 41
0.00833333
  0
VERTEX
  8
0
 10
3.44803
 20
1.64063
 30
0.0
 40
0.00833333
 41
0.00833333
  0
VERTEX
  8
0
 10
3.45415
 20
1.62956
 30
0.0
 40
0.00833333
 41
0.00833333
  0
VERTEX
  8
0
 10
3.45415
 20
1.62588
 30
0.0
 40
0.00833333
 41
0.00833333
  0
VERTEX
  8
0
 10
3.45415
 20
1.62224
 30
0.0
 40
0.00833333
 41
0.00833333
  0
VERTEX
  8
0
 10
3.44803
 20
1.61117
 30
0.0
 40
0.00833333
 41
0.00833333
  0
VERTEX
  8
0
 10
3.43696
 20
1.60504
 30
0.0
 40
0.00833333
 41
0.00833333
  0
VERTEX
  8
0
 10
3.43332
 20
1.60504
 30
0.0
 40
0.00833333
 41
0.00833333
  0
SEQEND
 8
0
  0
POLYLINE
  8
0
 62
     7
 66
     1
 10
0
 20
0
 30
0.0
 70
     1
 40
0
 41
0
  0
VERTEX
  8
0
 10
3.43332
 20
1.24859
 30
0.0
 40
0
 41
0
  0
VERTEX
  8
0
 10
3.42964
 20
1.24859
 30
0.0
 40
0
 41
0
  0
VERTEX
  8
0
 10
3.41857
 20
1.25472
 30
0.0
 40
0
 41
0
  0
VERTEX
  8
0
 10
3.41249
 20
1.26579
 30
0.0
 40
0
 41
0
  0
VERTEX
  8
0
 10
3.41249
 20
1.26942
 30
0.0
 40
0
 41
0
  0
VERTEX
  8
0
 10
3.41249
 20
1.27311
 30
0.0
 40
0
 41
0
  0
VERTEX
  8
0
 10
3.41857
 20
1.28418
 30
0.0
 40
0
 41
0
  0
VERTEX
  8
0
 10
3.42964
 20
1.29026
 30
0.0
 40
0
 41
0
  0
VERTEX
  8
0
 10
3.43332
 20
1.29026
 30
0.0
 40
0
 41
0
  0
VERTEX
  8
0
 10
3.43696
 20
1.29026
 30
0.0
 40
0
 41
0
  0
VERTEX
  8
0
 10
3.44803
 20
1.28418
 30
0.0
 40
0
 41
0
  0
VERTEX
  8
0
 10
3.45415
 20
1.27311
 30
0.0
 40
0
 41
0
  0
VERTEX
  8
0
 10
3.45415
 20
1.26942
 30
0.0
 40
0
 41
0
  0
VERTEX
  8
0
 10
3.45415
 20
1.26579
 30
0.0
 40
0
 41
0
  0
VERTEX
  8
0
 10
3.44803
 20
1.25472
 30
0.0
 40
0
 41
0
  0
VERTEX
  8
0
 10
3.43696
 20
1.24859
 30
0.0
 40
0
 41
0
  0
VERTEX
  8
0
 10
3.43332
 20
1.24859
 30
0.0
 40
0
 41
0
  0
SEQEND
 8
0
  0
POLYLINE
  8
0
 62
     0
 66
     1
 10
0
 20
0
 30
0.0
 70
     1
 40
0.6
 41
0.6
  0
VERTEX
  8
0
 10
3.43332
 20
1.24859
 30
0.0
 40
0.00833333
 41
0.00833333
  0
VERTEX
  8
0
 10
3.42964
 20
1.24859
 30
0.0
 40
0.00833333
 41
0.00833333
  0
VERTEX
  8
0
 10
3.41857
 20
1.25472
 30
0.0
 40
0.00833333
 41
0.00833333
  0
VERTEX
  8
0
 10
3.41249
 20
1.26579
 30
0.0
 40
0.00833333
 41
0.00833333
  0
VERTEX
  8
0
 10
3.41249
 20
1.26942
 30
0.0
 40
0.00833333
 41
0.00833333
  0
VERTEX
  8
0
 10
3.41249
 20
1.27311
 30
0.0
 40
0.00833333
 41
0.00833333
  0
VERTEX
  8
0
 10
3.41857
 20
1.28418
 30
0.0
 40
0.00833333
 41
0.00833333
  0
VERTEX
  8
0
 10
3.42964
 20
1.29026
 30
0.0
 40
0.00833333
 41
0.00833333
  0
VERTEX
  8
0
 10
3.43332
 20
1.29026
 30
0.0
 40
0.00833333
 41
0.00833333
  0
VERTEX
  8
0
 10
3.43696
 20
1.29026
 30
0.0
 40
0.00833333
 41
0.00833333
  0
VERTEX
  8
0
 10
3.44803
 20
1.28418
 30
0.0
 40
0.00833333
 41
0.00833333
  0
VERTEX
  8
0
 10
3.45415
 20
1.27311
 30
0.0
 40
0.00833333
 41
0.00833333
  0
VERTEX
  8
0
 10
3.45415
 20
1.26942
 30
0.0
 40
0.00833333
 41
0.00833333
  0
VERTEX
  8
0
 10
3.45415
 20
1.26579
 30
0.0
 40
0.00833333
 41
0.00833333
  0
VERTEX
  8
0
 10
3.44803
 20
1.25472
 30
0.0
 40
0.00833333
 41
0.00833333
  0
VERTEX
  8
0
 10
3.43696
 20
1.24859
 30
0.0
 40
0.00833333
 41
0.00833333
  0
VERTEX
  8
0
 10
3.43332
 20
1.24859
 30
0.0
 40
0.00833333
 41
0.00833333
  0
SEQEND
 8
0
  0
POLYLINE
  8
0
 62
     7
 66
     1
 10
0
 20
0
 30
0.0
 70
     1
 40
0
 41
0
  0
VERTEX
  8
0
 10
3.56424
 20
1.48215
 30
0.0
 40
0
 41
0
  0
VERTEX
  8
0
 10
3.71007
 20
1.48215
 30
0.0
 40
0
 41
0
  0
VERTEX
  8
0
 10
3.71007
 20
1.41965
 30
0.0
 40
0
 41
0
  0
VERTEX
  8
0
 10
3.56424
 20
1.41965
 30
0.0
 40
0
 41
0
  0
VERTEX
  8
0
 10
3.56424
 20
1.48215
 30
0.0
 40
0
 41
0
  0
SEQEND
 8
0
  0
POLYLINE
  8
0
 62
     0
 66
     1
 10
0
 20
0
 30
0.0
 70
     1
 40
0.75
 41
0.75
  0
VERTEX
  8
0
 10
3.56424
 20
1.48215
 30
0.0
 40
0.0104167
 41
0.0104167
  0
VERTEX
  8
0
 10
3.56424
 20
1.41965
 30
0.0
 40
0.0104167
 41
0.0104167
  0
VERTEX
  8
0
 10
3.71007
 20
1.41965
 30
0.0
 40
0.0104167
 41
0.0104167
  0
VERTEX
  8
0
 10
3.71007
 20
1.48215
 30
0.0
 40
0.0104167
 41
0.0104167
  0
VERTEX
  8
0
 10
3.56424
 20
1.48215
 30
0.0
 40
0.0104167
 41
0.0104167
  0
SEQEND
 8
0
  0
POLYLINE
  8
0
 62
     0
 66
     1
 10
0
 20
0
 30
0.0
 70
     1
 40
0.75
 41
0.75
  0
VERTEX
  8
0
 10
3.44672
 20
2.48844
 30
0.0
 40
0.0104167
 41
0.0104167
  0
VERTEX
  8
0
 10
3.44672
 20
0.791233
 30
0.0
 40
0.0104167
 41
0.0104167
  0
VERTEX
  8
0
 10
3.75922
 20
0.791233
 30
0.0
 40
0.0104167
 41
0.0104167
  0
VERTEX
  8
0
 10
3.75922
 20
2.48844
 30
0.0
 40
0.0104167
 41
0.0104167
  0
VERTEX
  8
0
 10
3.44672
 20
2.48844
 30
0.0
 40
0.0104167
 41
0.0104167
  0
SEQEND
 8
0
  0
POLYLINE
  8
0
 62
     0
 66
     1
 10
0
 20
0
 30
0.0
 70
     1
 40
0.75
 41
0.75
  0
VERTEX
  8
0
 10
0.831054
 20
0.465929
 30
0.0
 40
0.0104167
 41
0.0104167
  0
VERTEX
  8
0
 10
2.54699
 20
0.465929
 30
0.0
 40
0.0104167
 41
0.0104167
  0
VERTEX
  8
0
 10
2.54699
 20
0.153429
 30
0.0
 40
0.0104167
 41
0.0104167
  0
VERTEX
  8
0
 10
0.831054
 20
0.153429
 30
0.0
 40
0.0104167
 41
0.0104167
  0
VERTEX
  8
0
 10
0.831054
 20
0.465929
 30
0.0
 40
0.0104167
 41
0.0104167
  0
SEQEND
 8
0
  0
POLYLINE
  8
0
 62
     7
 66
     1
 10
0
 20
0
 30
0.0
 70
     1
 40
0
 41
0
  0
VERTEX
  8
0
 10
9.35135
 20
2.74056
 30
0.0
 40
0
 41
0
  0
VERTEX
  8
0
 10
9.62739
 20
2.74056
 30
0.0
 40
0
 41
0
  0
VERTEX
  8
0
 10
9.62739
 20
1.74653
 30
0.0
 40
0
 41
0
  0
VERTEX
  8
0
 10
9.35135
 20
1.74653
 30
0.0
 40
0
 41
0
  0
VERTEX
  8
0
 10
9.35135
 20
2.74056
 30
0.0
 40
0
 41
0
  0
SEQEND
 8
0
  0
POLYLINE
  8
0
 62
     0
 66
     1
 10
0
 20
0
 30
0.0
 70
     1
 40
0.75
 41
0.75
  0
VERTEX
  8
0
 10
9.35135
 20
2.74056
 30
0.0
 40
0.0104167
 41
0.0104167
  0
VERTEX
  8
0
 10
9.35135
 20
1.74653
 30
0.0
 40
0.0104167
 41
0.0104167
  0
VERTEX
  8
0
 10
9.62739
 20
1.74653
 30
0.0
 40
0.0104167
 41
0.0104167
  0
VERTEX
  8
0
 10
9.62739
 20
2.74056
 30
0.0
 40
0.0104167
 41
0.0104167
  0
VERTEX
  8
0
 10
9.35135
 20
2.74056
 30
0.0
 40
0.0104167
 41
0.0104167
  0
SEQEND
 8
0
  0
POLYLINE
  8
0
 62
     253
 66
     1
 10
0
 20
0
 30
0.0
 40
0.75
 41
0.75
  0
VERTEX
  8
0
 10
9.48936
 20
2.74056
 30
0.0
 40
0.0104167
 41
0.0104167
  0
VERTEX
  8
0
 10
9.48936
 20
1.74647
 30
0.0
 40
0.0104167
 41
0.0104167
  0
SEQEND
 8
0
  0
ENDSEC
  0
EOF
