  0
SECTION
  2
HEADER
  9
$ACADVER
  1
AC1009
  9
$FILLMODE
 70
 0
  9
$SPLFRAME
 70
 1
  9
$EXTMIN
 10
0
 20
0
 30
0.0
  9
$EXTMAX
 10
41.6667
 20
41.6667
 30
0.0
  0
ENDSEC
  0
SECTION
  2
TABLES
  0
TABLE
  2
LAYER
 70
1
  0
LAYER
  2
0
 70
     0
 62
     7
  6
CONTINUOUS
  0
ENDTAB
  0
ENDSEC
  0
SECTION
  2
ENTITIES
  0
POLYLINE
  8
0
 62
     7
 66
     1
 10
0
 20
0
 30
0.0
 70
     1
 40
0
 41
0
  0
VERTEX
  8
0
 10
1.98904
 20
7.27599
 30
0.0
 40
0
 41
0
  0
VERTEX
  8
0
 10
0.717285
 20
7.27599
 30
0.0
 40
0
 41
0
  0
VERTEX
  8
0
 10
0.717285
 20
0.00960286
 30
0.0
 40
0
 41
0
  0
VERTEX
  8
0
 10
10.193
 20
0.00960286
 30
0.0
 40
0
 41
0
  0
VERTEX
  8
0
 10
10.193
 20
2.22939
 30
0.0
 40
0
 41
0
  0
VERTEX
  8
0
 10
5.84093
 20
2.22939
 30
0.0
 40
0
 41
0
  0
VERTEX
  8
0
 10
5.84093
 20
2.37261
 30
0.0
 40
0
 41
0
  0
VERTEX
  8
0
 10
4.69738
 20
2.37261
 30
0.0
 40
0
 41
0
  0
VERTEX
  8
0
 10
4.69883
 20
2.22939
 30
0.0
 40
0
 41
0
  0
VERTEX
  8
0
 10
2.10385
 20
2.21192
 30
0.0
 40
0
 41
0
  0
VERTEX
  8
0
 10
2.10385
 20
5.46099
 30
0.0
 40
0
 41
0
  0
VERTEX
  8
0
 10
2.26124
 20
5.46099
 30
0.0
 40
0
 41
0
  0
VERTEX
  8
0
 10
2.26124
 20
7.27681
 30
0.0
 40
0
 41
0
  0
VERTEX
  8
0
 10
1.98904
 20
7.27599
 30
0.0
 40
0
 41
0
  0
SEQEND
 8
0
  0
POLYLINE
  8
0
 62
     0
 66
     1
 10
0
 20
0
 30
0.0
 70
     1
 40
0.15
 41
0.15
  0
VERTEX
  8
0
 10
1.98904
 20
7.27599
 30
0.0
 40
0.00208333
 41
0.00208333
  0
VERTEX
  8
0
 10
0.717285
 20
7.27599
 30
0.0
 40
0.00208333
 41
0.00208333
  0
VERTEX
  8
0
 10
0.717285
 20
0.00960286
 30
0.0
 40
0.00208333
 41
0.00208333
  0
VERTEX
  8
0
 10
10.193
 20
0.00960286
 30
0.0
 40
0.00208333
 41
0.00208333
  0
VERTEX
  8
0
 10
10.193
 20
2.22939
 30
0.0
 40
0.00208333
 41
0.00208333
  0
VERTEX
  8
0
 10
5.84093
 20
2.22939
 30
0.0
 40
0.00208333
 41
0.00208333
  0
VERTEX
  8
0
 10
5.84093
 20
2.37261
 30
0.0
 40
0.00208333
 41
0.00208333
  0
VERTEX
  8
0
 10
4.69738
 20
2.37261
 30
0.0
 40
0.00208333
 41
0.00208333
  0
VERTEX
  8
0
 10
4.69883
 20
2.22939
 30
0.0
 40
0.00208333
 41
0.00208333
  0
VERTEX
  8
0
 10
2.10385
 20
2.21192
 30
0.0
 40
0.00208333
 41
0.00208333
  0
VERTEX
  8
0
 10
2.10385
 20
5.46099
 30
0.0
 40
0.00208333
 41
0.00208333
  0
VERTEX
  8
0
 10
2.26124
 20
5.46099
 30
0.0
 40
0.00208333
 41
0.00208333
  0
VERTEX
  8
0
 10
2.26124
 20
7.27681
 30
0.0
 40
0.00208333
 41
0.00208333
  0
VERTEX
  8
0
 10
1.98904
 20
7.27599
 30
0.0
 40
0.00208333
 41
0.00208333
  0
SEQEND
 8
0
  0
TEXT
  8
0
 62
     0
 10
2.85388
 20
0.952042
 30
0.0
 40
0.34375
  1
TERA
 50
0
  0
TEXT
  8
0
 62
     0
 10
3.75526
 20
0.952042
 30
0.0
 40
0.34375
  1
S
 50
0
  0
TEXT
  8
0
 62
     0
 10
3.98646
 20
0.952042
 30
0.0
 40
0.34375
  1
SI
 50
0
  0
POLYLINE
  8
0
 62
     7
 66
     1
 10
0
 20
0
 30
0.0
 70
     1
 40
0
 41
0
  0
VERTEX
  8
0
 10
10.0525
 20
2.64606
 30
0.0
 40
0
 41
0
  0
VERTEX
  8
0
 10
6.21425
 20
2.64606
 30
0.0
 40
0
 41
0
  0
VERTEX
  8
0
 10
6.21425
 20
4.02442
 30
0.0
 40
0
 41
0
  0
VERTEX
  8
0
 10
6.03717
 20
4.02442
 30
0.0
 40
0
 41
0
  0
VERTEX
  8
0
 10
6.03717
 20
2.64606
 30
0.0
 40
0
 41
0
  0
VERTEX
  8
0
 10
4.54508
 20
2.64606
 30
0.0
 40
0
 41
0
  0
VERTEX
  8
0
 10
4.54508
 20
4.01731
 30
0.0
 40
0
 41
0
  0
VERTEX
  8
0
 10
3.87875
 20
4.01731
 30
0.0
 40
0
 41
0
  0
VERTEX
  8
0
 10
3.87875
 20
5.12213
 30
0.0
 40
0
 41
0
  0
VERTEX
  8
0
 10
4.54497
 20
5.12213
 30
0.0
 40
0
 41
0
  0
VERTEX
  8
0
 10
4.54497
 20
8.25201
 30
0.0
 40
0
 41
0
  0
VERTEX
  8
0
 10
4.54633
 20
8.25201
 30
0.0
 40
0
 41
0
  0
VERTEX
  8
0
 10
4.54633
 20
9.50846
 30
0.0
 40
0
 41
0
  0
VERTEX
  8
0
 10
10.0525
 20
9.50846
 30
0.0
 40
0
 41
0
  0
VERTEX
  8
0
 10
10.0525
 20
2.64606
 30
0.0
 40
0
 41
0
  0
SEQEND
 8
0
  0
POLYLINE
  8
0
 62
     7
 66
     1
 10
0
 20
0
 30
0.0
 70
     1
 40
0.15
 41
0.15
  0
VERTEX
  8
0
 10
10.0525
 20
2.64606
 30
0.0
 40
0.00208333
 41
0.00208333
  0
VERTEX
  8
0
 10
6.21425
 20
2.64606
 30
0.0
 40
0.00208333
 41
0.00208333
  0
VERTEX
  8
0
 10
6.21425
 20
4.02442
 30
0.0
 40
0.00208333
 41
0.00208333
  0
VERTEX
  8
0
 10
6.03717
 20
4.02442
 30
0.0
 40
0.00208333
 41
0.00208333
  0
VERTEX
  8
0
 10
6.03717
 20
2.64606
 30
0.0
 40
0.00208333
 41
0.00208333
  0
VERTEX
  8
0
 10
4.54508
 20
2.64606
 30
0.0
 40
0.00208333
 41
0.00208333
  0
VERTEX
  8
0
 10
4.54508
 20
4.01731
 30
0.0
 40
0.00208333
 41
0.00208333
  0
VERTEX
  8
0
 10
3.87875
 20
4.01731
 30
0.0
 40
0.00208333
 41
0.00208333
  0
VERTEX
  8
0
 10
3.87875
 20
5.12213
 30
0.0
 40
0.00208333
 41
0.00208333
  0
VERTEX
  8
0
 10
4.54497
 20
5.12213
 30
0.0
 40
0.00208333
 41
0.00208333
  0
VERTEX
  8
0
 10
4.54497
 20
8.25201
 30
0.0
 40
0.00208333
 41
0.00208333
  0
VERTEX
  8
0
 10
4.54633
 20
8.25201
 30
0.0
 40
0.00208333
 41
0.00208333
  0
VERTEX
  8
0
 10
4.54633
 20
9.50846
 30
0.0
 40
0.00208333
 41
0.00208333
  0
VERTEX
  8
0
 10
10.0525
 20
9.50846
 30
0.0
 40
0.00208333
 41
0.00208333
  0
VERTEX
  8
0
 10
10.0525
 20
2.64606
 30
0.0
 40
0.00208333
 41
0.00208333
  0
SEQEND
 8
0
  0
TEXT
  8
0
 62
     0
 10
6.81306
 20
6.24933
 30
0.0
 40
0.34375
  1
TUP
 50
0
  0
TEXT
  8
0
 62
     0
 10
7.47544
 20
6.24933
 30
0.0
 40
0.34375
  1
AK
 50
0
  0
POLYLINE
  8
0
 62
     7
 66
     1
 10
0
 20
0
 30
0.0
 70
     1
 40
0
 41
0
  0
VERTEX
  8
0
 10
10.2088
 20
6.28836
 30
0.0
 40
0
 41
0
  0
VERTEX
  8
0
 10
14.0064
 20
6.28836
 30
0.0
 40
0
 41
0
  0
VERTEX
  8
0
 10
14.0064
 20
2.64606
 30
0.0
 40
0
 41
0
  0
VERTEX
  8
0
 10
10.2088
 20
2.64606
 30
0.0
 40
0
 41
0
  0
VERTEX
  8
0
 10
10.2088
 20
6.28836
 30
0.0
 40
0
 41
0
  0
SEQEND
 8
0
  0
POLYLINE
  8
0
 62
     7
 66
     1
 10
0
 20
0
 30
0.0
 70
     1
 40
0.15
 41
0.15
  0
VERTEX
  8
0
 10
10.2088
 20
6.28836
 30
0.0
 40
0.00208333
 41
0.00208333
  0
VERTEX
  8
0
 10
14.0064
 20
6.28836
 30
0.0
 40
0.00208333
 41
0.00208333
  0
VERTEX
  8
0
 10
14.0064
 20
2.64606
 30
0.0
 40
0.00208333
 41
0.00208333
  0
VERTEX
  8
0
 10
10.2088
 20
2.64606
 30
0.0
 40
0.00208333
 41
0.00208333
  0
VERTEX
  8
0
 10
10.2088
 20
6.28836
 30
0.0
 40
0.00208333
 41
0.00208333
  0
SEQEND
 8
0
  0
TEXT
  8
0
 62
     0
 10
11.8697
 20
4.25346
 30
0.0
 40
0.34375
  1
MH
 50
0
  0
POLYLINE
  8
0
 62
     7
 66
     1
 10
0
 20
0
 30
0.0
 70
     1
 40
0
 41
0
  0
VERTEX
  8
0
 10
10.2088
 20
9.50846
 30
0.0
 40
0
 41
0
  0
VERTEX
  8
0
 10
14.0064
 20
9.50846
 30
0.0
 40
0
 41
0
  0
VERTEX
  8
0
 10
14.0064
 20
6.42378
 30
0.0
 40
0
 41
0
  0
VERTEX
  8
0
 10
10.2088
 20
6.42378
 30
0.0
 40
0
 41
0
  0
VERTEX
  8
0
 10
10.2088
 20
9.50846
 30
0.0
 40
0
 41
0
  0
SEQEND
 8
0
  0
POLYLINE
  8
0
 62
     7
 66
     1
 10
0
 20
0
 30
0.0
 70
     1
 40
0.15
 41
0.15
  0
VERTEX
  8
0
 10
10.2088
 20
9.50846
 30
0.0
 40
0.00208333
 41
0.00208333
  0
VERTEX
  8
0
 10
14.0064
 20
9.50846
 30
0.0
 40
0.00208333
 41
0.00208333
  0
VERTEX
  8
0
 10
14.0064
 20
6.42378
 30
0.0
 40
0.00208333
 41
0.00208333
  0
VERTEX
  8
0
 10
10.2088
 20
6.42378
 30
0.0
 40
0.00208333
 41
0.00208333
  0
VERTEX
  8
0
 10
10.2088
 20
9.50846
 30
0.0
 40
0.00208333
 41
0.00208333
  0
SEQEND
 8
0
  0
TEXT
  8
0
 62
     0
 10
11.8931
 20
7.88521
 30
0.0
 40
0.34375
  1
MH
 50
0
  0
POLYLINE
  8
0
 62
     7
 66
     1
 10
0
 20
0
 30
0.0
 70
     1
 40
0
 41
0
  0
VERTEX
  8
0
 10
4.40956
 20
5.25754
 30
0.0
 40
0
 41
0
  0
VERTEX
  8
0
 10
3.75375
 20
5.25754
 30
0.0
 40
0
 41
0
  0
VERTEX
  8
0
 10
3.75375
 20
4.57357
 30
0.0
 40
0
 41
0
  0
VERTEX
  8
0
 10
2.63021
 20
4.57357
 30
0.0
 40
0
 41
0
  0
VERTEX
  8
0
 10
2.63021
 20
5.46099
 30
0.0
 40
0
 41
0
  0
VERTEX
  8
0
 10
2.51617
 20
5.46099
 30
0.0
 40
0
 41
0
  0
VERTEX
  8
0
 10
2.51617
 20
6.50922
 30
0.0
 40
0
 41
0
  0
VERTEX
  8
0
 10
2.64447
 20
6.50922
 30
0.0
 40
0
 41
0
  0
VERTEX
  8
0
 10
2.64447
 20
7.37224
 30
0.0
 40
0
 41
0
  0
VERTEX
  8
0
 10
4.40956
 20
7.37224
 30
0.0
 40
0
 41
0
  0
VERTEX
  8
0
 10
4.40956
 20
5.25754
 30
0.0
 40
0
 41
0
  0
SEQEND
 8
0
  0
POLYLINE
  8
0
 62
     7
 66
     1
 10
0
 20
0
 30
0.0
 70
     1
 40
0.15
 41
0.15
  0
VERTEX
  8
0
 10
4.40956
 20
5.25754
 30
0.0
 40
0.00208333
 41
0.00208333
  0
VERTEX
  8
0
 10
3.75375
 20
5.25754
 30
0.0
 40
0.00208333
 41
0.00208333
  0
VERTEX
  8
0
 10
3.75375
 20
4.57357
 30
0.0
 40
0.00208333
 41
0.00208333
  0
VERTEX
  8
0
 10
2.63021
 20
4.57357
 30
0.0
 40
0.00208333
 41
0.00208333
  0
VERTEX
  8
0
 10
2.63021
 20
5.46099
 30
0.0
 40
0.00208333
 41
0.00208333
  0
VERTEX
  8
0
 10
2.51617
 20
5.46099
 30
0.0
 40
0.00208333
 41
0.00208333
  0
VERTEX
  8
0
 10
2.51617
 20
6.50922
 30
0.0
 40
0.00208333
 41
0.00208333
  0
VERTEX
  8
0
 10
2.64447
 20
6.50922
 30
0.0
 40
0.00208333
 41
0.00208333
  0
VERTEX
  8
0
 10
2.64447
 20
7.37224
 30
0.0
 40
0.00208333
 41
0.00208333
  0
VERTEX
  8
0
 10
4.40956
 20
7.37224
 30
0.0
 40
0.00208333
 41
0.00208333
  0
VERTEX
  8
0
 10
4.40956
 20
5.25754
 30
0.0
 40
0.00208333
 41
0.00208333
  0
SEQEND
 8
0
  0
TEXT
  8
0
 62
     0
 10
3.17782
 20
6.07242
 30
0.0
 40
0.34375
  1
PH
 50
0
  0
POLYLINE
  8
0
 62
     7
 66
     1
 10
0
 20
0
 30
0.0
 70
     1
 40
0
 41
0
  0
VERTEX
  8
0
 10
4.32042
 20
8.25201
 30
0.0
 40
0
 41
0
  0
VERTEX
  8
0
 10
4.40956
 20
8.25201
 30
0.0
 40
0
 41
0
  0
VERTEX
  8
0
 10
4.40956
 20
7.48682
 30
0.0
 40
0
 41
0
  0
VERTEX
  8
0
 10
2.5096
 20
7.48682
 30
0.0
 40
0
 41
0
  0
VERTEX
  8
0
 10
2.5096
 20
9.46783
 30
0.0
 40
0
 41
0
  0
VERTEX
  8
0
 10
4.32042
 20
9.46783
 30
0.0
 40
0
 41
0
  0
VERTEX
  8
0
 10
4.32042
 20
8.25201
 30
0.0
 40
0
 41
0
  0
SEQEND
 8
0
  0
POLYLINE
  8
0
 62
     7
 66
     1
 10
0
 20
0
 30
0.0
 70
     1
 40
0.15
 41
0.15
  0
VERTEX
  8
0
 10
4.32042
 20
8.25201
 30
0.0
 40
0.00208333
 41
0.00208333
  0
VERTEX
  8
0
 10
4.40956
 20
8.25201
 30
0.0
 40
0.00208333
 41
0.00208333
  0
VERTEX
  8
0
 10
4.40956
 20
7.48682
 30
0.0
 40
0.00208333
 41
0.00208333
  0
VERTEX
  8
0
 10
2.5096
 20
7.48682
 30
0.0
 40
0.00208333
 41
0.00208333
  0
VERTEX
  8
0
 10
2.5096
 20
9.46783
 30
0.0
 40
0.00208333
 41
0.00208333
  0
VERTEX
  8
0
 10
4.32042
 20
9.46783
 30
0.0
 40
0.00208333
 41
0.00208333
  0
VERTEX
  8
0
 10
4.32042
 20
8.25201
 30
0.0
 40
0.00208333
 41
0.00208333
  0
SEQEND
 8
0
  0
TEXT
  8
0
 62
     0
 10
2.27806
 20
8.3135
 30
0.0
 40
0.34375
  1
UNDEFINED
 50
0
  0
POLYLINE
  8
0
 62
     7
 66
     1
 10
0
 20
0
 30
0.0
 70
     1
 40
0
 41
0
  0
VERTEX
  8
0
 10
3.75375
 20
3.88189
 30
0.0
 40
0
 41
0
  0
VERTEX
  8
0
 10
4.40967
 20
3.88189
 30
0.0
 40
0
 41
0
  0
VERTEX
  8
0
 10
4.40967
 20
2.64606
 30
0.0
 40
0
 41
0
  0
VERTEX
  8
0
 10
2.48926
 20
2.63118
 30
0.0
 40
0
 41
0
  0
VERTEX
  8
0
 10
2.48926
 20
4.43815
 30
0.0
 40
0
 41
0
  0
VERTEX
  8
0
 10
3.75375
 20
4.43815
 30
0.0
 40
0
 41
0
  0
VERTEX
  8
0
 10
3.75375
 20
3.88189
 30
0.0
 40
0
 41
0
  0
SEQEND
 8
0
  0
POLYLINE
  8
0
 62
     7
 66
     1
 10
0
 20
0
 30
0.0
 70
     1
 40
0.15
 41
0.15
  0
VERTEX
  8
0
 10
3.75375
 20
3.88189
 30
0.0
 40
0.00208333
 41
0.00208333
  0
VERTEX
  8
0
 10
4.40967
 20
3.88189
 30
0.0
 40
0.00208333
 41
0.00208333
  0
VERTEX
  8
0
 10
4.40967
 20
2.64606
 30
0.0
 40
0.00208333
 41
0.00208333
  0
VERTEX
  8
0
 10
2.48926
 20
2.63118
 30
0.0
 40
0.00208333
 41
0.00208333
  0
VERTEX
  8
0
 10
2.48926
 20
4.43815
 30
0.0
 40
0.00208333
 41
0.00208333
  0
VERTEX
  8
0
 10
3.75375
 20
4.43815
 30
0.0
 40
0.00208333
 41
0.00208333
  0
VERTEX
  8
0
 10
3.75375
 20
3.88189
 30
0.0
 40
0.00208333
 41
0.00208333
  0
SEQEND
 8
0
  0
TEXT
  8
0
 62
     0
 10
3.58263
 20
3.15071
 30
0.0
 40
0.34375
  1
WC
 50
0
  0
POLYLINE
  8
0
 62
     0
 66
     1
 10
0
 20
0
 30
0.0
 70
     1
 40
0
 41
0
  0
VERTEX
  8
0
 10
2.10385
 20
7.48682
 30
0.0
 40
0
 41
0
  0
VERTEX
  8
0
 10
2.64447
 20
7.48682
 30
0.0
 40
0
 41
0
  0
VERTEX
  8
0
 10
2.64447
 20
6.50922
 30
0.0
 40
0
 41
0
  0
VERTEX
  8
0
 10
2.10385
 20
6.50922
 30
0.0
 40
0
 41
0
  0
VERTEX
  8
0
 10
2.10385
 20
7.48682
 30
0.0
 40
0
 41
0
  0
SEQEND
 8
0
  0
POLYLINE
  8
0
 62
     0
 66
     1
 10
0
 20
0
 30
0.0
 70
     1
 40
0.15
 41
0.15
  0
VERTEX
  8
0
 10
2.10385
 20
7.48682
 30
0.0
 40
0.00208333
 41
0.00208333
  0
VERTEX
  8
0
 10
2.64447
 20
7.48682
 30
0.0
 40
0.00208333
 41
0.00208333
  0
VERTEX
  8
0
 10
2.64447
 20
6.50922
 30
0.0
 40
0.00208333
 41
0.00208333
  0
VERTEX
  8
0
 10
2.10385
 20
6.50922
 30
0.0
 40
0.00208333
 41
0.00208333
  0
VERTEX
  8
0
 10
2.10385
 20
7.48682
 30
0.0
 40
0.00208333
 41
0.00208333
  0
SEQEND
 8
0
  0
POLYLINE
  8
0
 62
     0
 66
     1
 10
0
 20
0
 30
0.0
 70
     1
 40
0
 41
0
  0
VERTEX
  8
0
 10
2.5096
 20
7.48682
 30
0.0
 40
0
 41
0
  0
VERTEX
  8
0
 10
2.5096
 20
9.46783
 30
0.0
 40
0
 41
0
  0
VERTEX
  8
0
 10
2.10385
 20
9.89388
 30
0.0
 40
0
 41
0
  0
VERTEX
  8
0
 10
2.10385
 20
7.48682
 30
0.0
 40
0
 41
0
  0
VERTEX
  8
0
 10
2.5096
 20
7.48682
 30
0.0
 40
0
 41
0
  0
SEQEND
 8
0
  0
POLYLINE
  8
0
 62
     0
 66
     1
 10
0
 20
0
 30
0.0
 70
     1
 40
0.15
 41
0.15
  0
VERTEX
  8
0
 10
2.5096
 20
7.48682
 30
0.0
 40
0.00208333
 41
0.00208333
  0
VERTEX
  8
0
 10
2.5096
 20
9.46783
 30
0.0
 40
0.00208333
 41
0.00208333
  0
VERTEX
  8
0
 10
2.10385
 20
9.89388
 30
0.0
 40
0.00208333
 41
0.00208333
  0
VERTEX
  8
0
 10
2.10385
 20
7.48682
 30
0.0
 40
0.00208333
 41
0.00208333
  0
VERTEX
  8
0
 10
2.5096
 20
7.48682
 30
0.0
 40
0.00208333
 41
0.00208333
  0
SEQEND
 8
0
  0
POLYLINE
  8
0
 62
     7
 66
     1
 10
0
 20
0
 30
0.0
 70
     1
 40
0
 41
0
  0
VERTEX
  8
0
 10
2.10385
 20
8.73286
 30
0.0
 40
0
 41
0
  0
VERTEX
  8
0
 10
2.5096
 20
8.73286
 30
0.0
 40
0
 41
0
  0
VERTEX
  8
0
 10
2.5096
 20
8.05647
 30
0.0
 40
0
 41
0
  0
VERTEX
  8
0
 10
2.10385
 20
8.05647
 30
0.0
 40
0
 41
0
  0
VERTEX
  8
0
 10
2.10385
 20
8.73286
 30
0.0
 40
0
 41
0
  0
SEQEND
 8
0
  0
POLYLINE
  8
0
 62
     0
 66
     1
 10
0
 20
0
 30
0.0
 70
     1
 40
0.75
 41
0.75
  0
VERTEX
  8
0
 10
2.10385
 20
8.73286
 30
0.0
 40
0.0104167
 41
0.0104167
  0
VERTEX
  8
0
 10
2.5096
 20
8.73286
 30
0.0
 40
0.0104167
 41
0.0104167
  0
VERTEX
  8
0
 10
2.5096
 20
8.05647
 30
0.0
 40
0.0104167
 41
0.0104167
  0
VERTEX
  8
0
 10
2.10385
 20
8.05647
 30
0.0
 40
0.0104167
 41
0.0104167
  0
VERTEX
  8
0
 10
2.10385
 20
8.73286
 30
0.0
 40
0.0104167
 41
0.0104167
  0
SEQEND
 8
0
  0
POLYLINE
  8
0
 62
     7
 66
     1
 10
0
 20
0
 30
0.0
 70
     1
 40
0
 41
0
  0
VERTEX
  8
0
 10
2.10385
 20
8.73286
 30
0.0
 40
0
 41
0
  0
VERTEX
  8
0
 10
2.5096
 20
8.73286
 30
0.0
 40
0
 41
0
  0
VERTEX
  8
0
 10
2.5096
 20
8.05647
 30
0.0
 40
0
 41
0
  0
VERTEX
  8
0
 10
2.10385
 20
8.05647
 30
0.0
 40
0
 41
0
  0
VERTEX
  8
0
 10
2.10385
 20
8.73286
 30
0.0
 40
0
 41
0
  0
SEQEND
 8
0
  0
POLYLINE
  8
0
 62
     0
 66
     1
 10
0
 20
0
 30
0.0
 70
     1
 40
0.75
 41
0.75
  0
VERTEX
  8
0
 10
2.10385
 20
8.73286
 30
0.0
 40
0.0104167
 41
0.0104167
  0
VERTEX
  8
0
 10
2.5096
 20
8.73286
 30
0.0
 40
0.0104167
 41
0.0104167
  0
VERTEX
  8
0
 10
2.5096
 20
8.05647
 30
0.0
 40
0.0104167
 41
0.0104167
  0
VERTEX
  8
0
 10
2.10385
 20
8.05647
 30
0.0
 40
0.0104167
 41
0.0104167
  0
VERTEX
  8
0
 10
2.10385
 20
8.73286
 30
0.0
 40
0.0104167
 41
0.0104167
  0
SEQEND
 8
0
  0
POLYLINE
  8
0
 62
     0
 66
     1
 10
0
 20
0
 30
0.0
 40
0.75
 41
0.75
  0
VERTEX
  8
0
 10
2.30675
 20
8.13465
 30
0.0
 40
0.0104167
 41
0.0104167
  0
VERTEX
  8
0
 10
2.30675
 20
8.65479
 30
0.0
 40
0.0104167
 41
0.0104167
  0
SEQEND
 8
0
  0
POLYLINE
  8
0
 62
     0
 66
     1
 10
0
 20
0
 30
0.0
 40
0.75
 41
0.75
  0
VERTEX
  8
0
 10
2.50965
 20
8.13465
 30
0.0
 40
0.0104167
 41
0.0104167
  0
VERTEX
  8
0
 10
2.10389
 20
8.13465
 30
0.0
 40
0.0104167
 41
0.0104167
  0
SEQEND
 8
0
  0
POLYLINE
  8
0
 62
     0
 66
     1
 10
0
 20
0
 30
0.0
 40
0.75
 41
0.75
  0
VERTEX
  8
0
 10
2.50965
 20
8.65479
 30
0.0
 40
0.0104167
 41
0.0104167
  0
VERTEX
  8
0
 10
2.10389
 20
8.65479
 30
0.0
 40
0.0104167
 41
0.0104167
  0
SEQEND
 8
0
  0
POLYLINE
  8
0
 62
     0
 66
     1
 10
0
 20
0
 30
0.0
 70
     1
 40
0
 41
0
  0
VERTEX
  8
0
 10
2.5096
 20
9.46783
 30
0.0
 40
0
 41
0
  0
VERTEX
  8
0
 10
4.45562
 20
9.46783
 30
0.0
 40
0
 41
0
  0
VERTEX
  8
0
 10
4.45562
 20
9.89388
 30
0.0
 40
0
 41
0
  0
VERTEX
  8
0
 10
2.10385
 20
9.89388
 30
0.0
 40
0
 41
0
  0
VERTEX
  8
0
 10
2.5096
 20
9.46783
 30
0.0
 40
0
 41
0
  0
SEQEND
 8
0
  0
POLYLINE
  8
0
 62
     0
 66
     1
 10
0
 20
0
 30
0.0
 70
     1
 40
0.15
 41
0.15
  0
VERTEX
  8
0
 10
2.5096
 20
9.46783
 30
0.0
 40
0.00208333
 41
0.00208333
  0
VERTEX
  8
0
 10
4.45562
 20
9.46783
 30
0.0
 40
0.00208333
 41
0.00208333
  0
VERTEX
  8
0
 10
4.45562
 20
9.89388
 30
0.0
 40
0.00208333
 41
0.00208333
  0
VERTEX
  8
0
 10
2.10385
 20
9.89388
 30
0.0
 40
0.00208333
 41
0.00208333
  0
VERTEX
  8
0
 10
2.5096
 20
9.46783
 30
0.0
 40
0.00208333
 41
0.00208333
  0
SEQEND
 8
0
  0
POLYLINE
  8
0
 62
     0
 66
     1
 10
0
 20
0
 30
0.0
 70
     1
 40
0
 41
0
  0
VERTEX
  8
0
 10
4.45562
 20
9.50846
 30
0.0
 40
0
 41
0
  0
VERTEX
  8
0
 10
14.0064
 20
9.50846
 30
0.0
 40
0
 41
0
  0
VERTEX
  8
0
 10
14.4335
 20
9.89388
 30
0.0
 40
0
 41
0
  0
VERTEX
  8
0
 10
4.45562
 20
9.89388
 30
0.0
 40
0
 41
0
  0
VERTEX
  8
0
 10
4.45562
 20
9.50846
 30
0.0
 40
0
 41
0
  0
SEQEND
 8
0
  0
POLYLINE
  8
0
 62
     0
 66
     1
 10
0
 20
0
 30
0.0
 70
     1
 40
0.15
 41
0.15
  0
VERTEX
  8
0
 10
4.45562
 20
9.50846
 30
0.0
 40
0.00208333
 41
0.00208333
  0
VERTEX
  8
0
 10
14.0064
 20
9.50846
 30
0.0
 40
0.00208333
 41
0.00208333
  0
VERTEX
  8
0
 10
14.4335
 20
9.89388
 30
0.0
 40
0.00208333
 41
0.00208333
  0
VERTEX
  8
0
 10
4.45562
 20
9.89388
 30
0.0
 40
0.00208333
 41
0.00208333
  0
VERTEX
  8
0
 10
4.45562
 20
9.50846
 30
0.0
 40
0.00208333
 41
0.00208333
  0
SEQEND
 8
0
  0
POLYLINE
  8
0
 62
     7
 66
     1
 10
0
 20
0
 30
0.0
 70
     1
 40
0
 41
0
  0
VERTEX
  8
0
 10
11.3821
 20
9.89388
 30
0.0
 40
0
 41
0
  0
VERTEX
  8
0
 10
12.4244
 20
9.89388
 30
0.0
 40
0
 41
0
  0
VERTEX
  8
0
 10
12.4244
 20
9.50846
 30
0.0
 40
0
 41
0
  0
VERTEX
  8
0
 10
11.3821
 20
9.50846
 30
0.0
 40
0
 41
0
  0
VERTEX
  8
0
 10
11.3821
 20
9.89388
 30
0.0
 40
0
 41
0
  0
SEQEND
 8
0
  0
POLYLINE
  8
0
 62
     0
 66
     1
 10
0
 20
0
 30
0.0
 70
     1
 40
0.75
 41
0.75
  0
VERTEX
  8
0
 10
11.3821
 20
9.89388
 30
0.0
 40
0.0104167
 41
0.0104167
  0
VERTEX
  8
0
 10
12.4244
 20
9.89388
 30
0.0
 40
0.0104167
 41
0.0104167
  0
VERTEX
  8
0
 10
12.4244
 20
9.50846
 30
0.0
 40
0.0104167
 41
0.0104167
  0
VERTEX
  8
0
 10
11.3821
 20
9.50846
 30
0.0
 40
0.0104167
 41
0.0104167
  0
VERTEX
  8
0
 10
11.3821
 20
9.89388
 30
0.0
 40
0.0104167
 41
0.0104167
  0
SEQEND
 8
0
  0
POLYLINE
  8
0
 62
     7
 66
     1
 10
0
 20
0
 30
0.0
 70
     1
 40
0
 41
0
  0
VERTEX
  8
0
 10
11.3821
 20
9.89388
 30
0.0
 40
0
 41
0
  0
VERTEX
  8
0
 10
12.4244
 20
9.89388
 30
0.0
 40
0
 41
0
  0
VERTEX
  8
0
 10
12.4244
 20
9.50846
 30
0.0
 40
0
 41
0
  0
VERTEX
  8
0
 10
11.3821
 20
9.50846
 30
0.0
 40
0
 41
0
  0
VERTEX
  8
0
 10
11.3821
 20
9.89388
 30
0.0
 40
0
 41
0
  0
SEQEND
 8
0
  0
POLYLINE
  8
0
 62
     0
 66
     1
 10
0
 20
0
 30
0.0
 70
     1
 40
0.75
 41
0.75
  0
VERTEX
  8
0
 10
11.3821
 20
9.89388
 30
0.0
 40
0.0104167
 41
0.0104167
  0
VERTEX
  8
0
 10
12.4244
 20
9.89388
 30
0.0
 40
0.0104167
 41
0.0104167
  0
VERTEX
  8
0
 10
12.4244
 20
9.50846
 30
0.0
 40
0.0104167
 41
0.0104167
  0
VERTEX
  8
0
 10
11.3821
 20
9.50846
 30
0.0
 40
0.0104167
 41
0.0104167
  0
VERTEX
  8
0
 10
11.3821
 20
9.89388
 30
0.0
 40
0.0104167
 41
0.0104167
  0
SEQEND
 8
0
  0
POLYLINE
  8
0
 62
     0
 66
     1
 10
0
 20
0
 30
0.0
 40
0.75
 41
0.75
  0
VERTEX
  8
0
 10
11.4602
 20
9.70122
 30
0.0
 40
0.0104167
 41
0.0104167
  0
VERTEX
  8
0
 10
12.3463
 20
9.70122
 30
0.0
 40
0.0104167
 41
0.0104167
  0
SEQEND
 8
0
  0
POLYLINE
  8
0
 62
     0
 66
     1
 10
0
 20
0
 30
0.0
 40
0.75
 41
0.75
  0
VERTEX
  8
0
 10
11.4602
 20
9.50851
 30
0.0
 40
0.0104167
 41
0.0104167
  0
VERTEX
  8
0
 10
11.4602
 20
9.89393
 30
0.0
 40
0.0104167
 41
0.0104167
  0
SEQEND
 8
0
  0
POLYLINE
  8
0
 62
     0
 66
     1
 10
0
 20
0
 30
0.0
 40
0.75
 41
0.75
  0
VERTEX
  8
0
 10
12.3463
 20
9.50851
 30
0.0
 40
0.0104167
 41
0.0104167
  0
VERTEX
  8
0
 10
12.3463
 20
9.89393
 30
0.0
 40
0.0104167
 41
0.0104167
  0
SEQEND
 8
0
  0
POLYLINE
  8
0
 62
     7
 66
     1
 10
0
 20
0
 30
0.0
 70
     1
 40
0
 41
0
  0
VERTEX
  8
0
 10
12.4392
 20
9.89388
 30
0.0
 40
0
 41
0
  0
VERTEX
  8
0
 10
12.7755
 20
9.89388
 30
0.0
 40
0
 41
0
  0
VERTEX
  8
0
 10
12.7755
 20
9.50846
 30
0.0
 40
0
 41
0
  0
VERTEX
  8
0
 10
12.4392
 20
9.50846
 30
0.0
 40
0
 41
0
  0
VERTEX
  8
0
 10
12.4392
 20
9.89388
 30
0.0
 40
0
 41
0
  0
SEQEND
 8
0
  0
POLYLINE
  8
0
 62
     0
 66
     1
 10
0
 20
0
 30
0.0
 70
     1
 40
0.75
 41
0.75
  0
VERTEX
  8
0
 10
12.4392
 20
9.89388
 30
0.0
 40
0.0104167
 41
0.0104167
  0
VERTEX
  8
0
 10
12.7755
 20
9.89388
 30
0.0
 40
0.0104167
 41
0.0104167
  0
VERTEX
  8
0
 10
12.7755
 20
9.50846
 30
0.0
 40
0.0104167
 41
0.0104167
  0
VERTEX
  8
0
 10
12.4392
 20
9.50846
 30
0.0
 40
0.0104167
 41
0.0104167
  0
VERTEX
  8
0
 10
12.4392
 20
9.89388
 30
0.0
 40
0.0104167
 41
0.0104167
  0
SEQEND
 8
0
  0
POLYLINE
  8
0
 62
     7
 66
     1
 10
0
 20
0
 30
0.0
 70
     1
 40
0
 41
0
  0
VERTEX
  8
0
 10
12.4392
 20
9.89388
 30
0.0
 40
0
 41
0
  0
VERTEX
  8
0
 10
12.7755
 20
9.89388
 30
0.0
 40
0
 41
0
  0
VERTEX
  8
0
 10
12.7755
 20
9.50846
 30
0.0
 40
0
 41
0
  0
VERTEX
  8
0
 10
12.4392
 20
9.50846
 30
0.0
 40
0
 41
0
  0
VERTEX
  8
0
 10
12.4392
 20
9.89388
 30
0.0
 40
0
 41
0
  0
SEQEND
 8
0
  0
POLYLINE
  8
0
 62
     0
 66
     1
 10
0
 20
0
 30
0.0
 70
     1
 40
0.75
 41
0.75
  0
VERTEX
  8
0
 10
12.4392
 20
9.89388
 30
0.0
 40
0.0104167
 41
0.0104167
  0
VERTEX
  8
0
 10
12.7755
 20
9.89388
 30
0.0
 40
0.0104167
 41
0.0104167
  0
VERTEX
  8
0
 10
12.7755
 20
9.50846
 30
0.0
 40
0.0104167
 41
0.0104167
  0
VERTEX
  8
0
 10
12.4392
 20
9.50846
 30
0.0
 40
0.0104167
 41
0.0104167
  0
VERTEX
  8
0
 10
12.4392
 20
9.89388
 30
0.0
 40
0.0104167
 41
0.0104167
  0
SEQEND
 8
0
  0
POLYLINE
  8
0
 62
     0
 66
     1
 10
0
 20
0
 30
0.0
 40
0.75
 41
0.75
  0
VERTEX
  8
0
 10
12.5173
 20
9.70122
 30
0.0
 40
0.0104167
 41
0.0104167
  0
VERTEX
  8
0
 10
12.6974
 20
9.70122
 30
0.0
 40
0.0104167
 41
0.0104167
  0
SEQEND
 8
0
  0
POLYLINE
  8
0
 62
     0
 66
     1
 10
0
 20
0
 30
0.0
 40
0.75
 41
0.75
  0
VERTEX
  8
0
 10
12.5173
 20
9.50851
 30
0.0
 40
0.0104167
 41
0.0104167
  0
VERTEX
  8
0
 10
12.5173
 20
9.89393
 30
0.0
 40
0.0104167
 41
0.0104167
  0
SEQEND
 8
0
  0
POLYLINE
  8
0
 62
     0
 66
     1
 10
0
 20
0
 30
0.0
 40
0.75
 41
0.75
  0
VERTEX
  8
0
 10
12.6974
 20
9.50851
 30
0.0
 40
0.0104167
 41
0.0104167
  0
VERTEX
  8
0
 10
12.6974
 20
9.89393
 30
0.0
 40
0.0104167
 41
0.0104167
  0
SEQEND
 8
0
  0
POLYLINE
  8
0
 62
     7
 66
     1
 10
0
 20
0
 30
0.0
 70
     1
 40
0
 41
0
  0
VERTEX
  8
0
 10
7.81168
 20
9.89388
 30
0.0
 40
0
 41
0
  0
VERTEX
  8
0
 10
8.21083
 20
9.89388
 30
0.0
 40
0
 41
0
  0
VERTEX
  8
0
 10
8.21083
 20
9.50846
 30
0.0
 40
0
 41
0
  0
VERTEX
  8
0
 10
7.81168
 20
9.50846
 30
0.0
 40
0
 41
0
  0
VERTEX
  8
0
 10
7.81168
 20
9.89388
 30
0.0
 40
0
 41
0
  0
SEQEND
 8
0
  0
POLYLINE
  8
0
 62
     0
 66
     1
 10
0
 20
0
 30
0.0
 70
     1
 40
0.75
 41
0.75
  0
VERTEX
  8
0
 10
7.81168
 20
9.89388
 30
0.0
 40
0.0104167
 41
0.0104167
  0
VERTEX
  8
0
 10
8.21083
 20
9.89388
 30
0.0
 40
0.0104167
 41
0.0104167
  0
VERTEX
  8
0
 10
8.21083
 20
9.50846
 30
0.0
 40
0.0104167
 41
0.0104167
  0
VERTEX
  8
0
 10
7.81168
 20
9.50846
 30
0.0
 40
0.0104167
 41
0.0104167
  0
VERTEX
  8
0
 10
7.81168
 20
9.89388
 30
0.0
 40
0.0104167
 41
0.0104167
  0
SEQEND
 8
0
  0
POLYLINE
  8
0
 62
     7
 66
     1
 10
0
 20
0
 30
0.0
 70
     1
 40
0
 41
0
  0
VERTEX
  8
0
 10
7.81168
 20
9.89388
 30
0.0
 40
0
 41
0
  0
VERTEX
  8
0
 10
8.21083
 20
9.89388
 30
0.0
 40
0
 41
0
  0
VERTEX
  8
0
 10
8.21083
 20
9.50846
 30
0.0
 40
0
 41
0
  0
VERTEX
  8
0
 10
7.81168
 20
9.50846
 30
0.0
 40
0
 41
0
  0
VERTEX
  8
0
 10
7.81168
 20
9.89388
 30
0.0
 40
0
 41
0
  0
SEQEND
 8
0
  0
POLYLINE
  8
0
 62
     0
 66
     1
 10
0
 20
0
 30
0.0
 70
     1
 40
0.75
 41
0.75
  0
VERTEX
  8
0
 10
7.81168
 20
9.89388
 30
0.0
 40
0.0104167
 41
0.0104167
  0
VERTEX
  8
0
 10
8.21083
 20
9.89388
 30
0.0
 40
0.0104167
 41
0.0104167
  0
VERTEX
  8
0
 10
8.21083
 20
9.50846
 30
0.0
 40
0.0104167
 41
0.0104167
  0
VERTEX
  8
0
 10
7.81168
 20
9.50846
 30
0.0
 40
0.0104167
 41
0.0104167
  0
VERTEX
  8
0
 10
7.81168
 20
9.89388
 30
0.0
 40
0.0104167
 41
0.0104167
  0
SEQEND
 8
0
  0
POLYLINE
  8
0
 62
     0
 66
     1
 10
0
 20
0
 30
0.0
 40
0.75
 41
0.75
  0
VERTEX
  8
0
 10
7.88981
 20
9.70122
 30
0.0
 40
0.0104167
 41
0.0104167
  0
VERTEX
  8
0
 10
8.13276
 20
9.70122
 30
0.0
 40
0.0104167
 41
0.0104167
  0
SEQEND
 8
0
  0
POLYLINE
  8
0
 62
     0
 66
     1
 10
0
 20
0
 30
0.0
 40
0.75
 41
0.75
  0
VERTEX
  8
0
 10
7.88981
 20
9.50851
 30
0.0
 40
0.0104167
 41
0.0104167
  0
VERTEX
  8
0
 10
7.88981
 20
9.89393
 30
0.0
 40
0.0104167
 41
0.0104167
  0
SEQEND
 8
0
  0
POLYLINE
  8
0
 62
     0
 66
     1
 10
0
 20
0
 30
0.0
 40
0.75
 41
0.75
  0
VERTEX
  8
0
 10
8.13276
 20
9.50851
 30
0.0
 40
0.0104167
 41
0.0104167
  0
VERTEX
  8
0
 10
8.13276
 20
9.89393
 30
0.0
 40
0.0104167
 41
0.0104167
  0
SEQEND
 8
0
  0
POLYLINE
  8
0
 62
     7
 66
     1
 10
0
 20
0
 30
0.0
 70
     1
 40
0
 41
0
  0
VERTEX
  8
0
 10
8.22564
 20
9.89388
 30
0.0
 40
0
 41
0
  0
VERTEX
  8
0
 10
9.58583
 20
9.89388
 30
0.0
 40
0
 41
0
  0
VERTEX
  8
0
 10
9.58583
 20
9.50846
 30
0.0
 40
0
 41
0
  0
VERTEX
  8
0
 10
8.22564
 20
9.50846
 30
0.0
 40
0
 41
0
  0
VERTEX
  8
0
 10
8.22564
 20
9.89388
 30
0.0
 40
0
 41
0
  0
SEQEND
 8
0
  0
POLYLINE
  8
0
 62
     0
 66
     1
 10
0
 20
0
 30
0.0
 70
     1
 40
0.75
 41
0.75
  0
VERTEX
  8
0
 10
8.22564
 20
9.89388
 30
0.0
 40
0.0104167
 41
0.0104167
  0
VERTEX
  8
0
 10
9.58583
 20
9.89388
 30
0.0
 40
0.0104167
 41
0.0104167
  0
VERTEX
  8
0
 10
9.58583
 20
9.50846
 30
0.0
 40
0.0104167
 41
0.0104167
  0
VERTEX
  8
0
 10
8.22564
 20
9.50846
 30
0.0
 40
0.0104167
 41
0.0104167
  0
VERTEX
  8
0
 10
8.22564
 20
9.89388
 30
0.0
 40
0.0104167
 41
0.0104167
  0
SEQEND
 8
0
  0
POLYLINE
  8
0
 62
     7
 66
     1
 10
0
 20
0
 30
0.0
 70
     1
 40
0
 41
0
  0
VERTEX
  8
0
 10
8.22564
 20
9.89388
 30
0.0
 40
0
 41
0
  0
VERTEX
  8
0
 10
9.58583
 20
9.89388
 30
0.0
 40
0
 41
0
  0
VERTEX
  8
0
 10
9.58583
 20
9.50846
 30
0.0
 40
0
 41
0
  0
VERTEX
  8
0
 10
8.22564
 20
9.50846
 30
0.0
 40
0
 41
0
  0
VERTEX
  8
0
 10
8.22564
 20
9.89388
 30
0.0
 40
0
 41
0
  0
SEQEND
 8
0
  0
POLYLINE
  8
0
 62
     0
 66
     1
 10
0
 20
0
 30
0.0
 70
     1
 40
0.75
 41
0.75
  0
VERTEX
  8
0
 10
8.22564
 20
9.89388
 30
0.0
 40
0.0104167
 41
0.0104167
  0
VERTEX
  8
0
 10
9.58583
 20
9.89388
 30
0.0
 40
0.0104167
 41
0.0104167
  0
VERTEX
  8
0
 10
9.58583
 20
9.50846
 30
0.0
 40
0.0104167
 41
0.0104167
  0
VERTEX
  8
0
 10
8.22564
 20
9.50846
 30
0.0
 40
0.0104167
 41
0.0104167
  0
VERTEX
  8
0
 10
8.22564
 20
9.89388
 30
0.0
 40
0.0104167
 41
0.0104167
  0
SEQEND
 8
0
  0
POLYLINE
  8
0
 62
     0
 66
     1
 10
0
 20
0
 30
0.0
 40
0.75
 41
0.75
  0
VERTEX
  8
0
 10
8.30376
 20
9.70122
 30
0.0
 40
0.0104167
 41
0.0104167
  0
VERTEX
  8
0
 10
9.50771
 20
9.70122
 30
0.0
 40
0.0104167
 41
0.0104167
  0
SEQEND
 8
0
  0
POLYLINE
  8
0
 62
     0
 66
     1
 10
0
 20
0
 30
0.0
 40
0.75
 41
0.75
  0
VERTEX
  8
0
 10
8.30376
 20
9.50851
 30
0.0
 40
0.0104167
 41
0.0104167
  0
VERTEX
  8
0
 10
8.30376
 20
9.89393
 30
0.0
 40
0.0104167
 41
0.0104167
  0
SEQEND
 8
0
  0
POLYLINE
  8
0
 62
     0
 66
     1
 10
0
 20
0
 30
0.0
 40
0.75
 41
0.75
  0
VERTEX
  8
0
 10
9.50771
 20
9.50851
 30
0.0
 40
0.0104167
 41
0.0104167
  0
VERTEX
  8
0
 10
9.50771
 20
9.89393
 30
0.0
 40
0.0104167
 41
0.0104167
  0
SEQEND
 8
0
  0
POLYLINE
  8
0
 62
     0
 66
     1
 10
0
 20
0
 30
0.0
 70
     1
 40
0
 41
0
  0
VERTEX
  8
0
 10
14.0064
 20
9.50846
 30
0.0
 40
0
 41
0
  0
VERTEX
  8
0
 10
14.0064
 20
2.64606
 30
0.0
 40
0
 41
0
  0
VERTEX
  8
0
 10
14.4335
 20
2.22939
 30
0.0
 40
0
 41
0
  0
VERTEX
  8
0
 10
14.4335
 20
9.89388
 30
0.0
 40
0
 41
0
  0
VERTEX
  8
0
 10
14.0064
 20
9.50846
 30
0.0
 40
0
 41
0
  0
SEQEND
 8
0
  0
POLYLINE
  8
0
 62
     0
 66
     1
 10
0
 20
0
 30
0.0
 70
     1
 40
0.15
 41
0.15
  0
VERTEX
  8
0
 10
14.0064
 20
9.50846
 30
0.0
 40
0.00208333
 41
0.00208333
  0
VERTEX
  8
0
 10
14.0064
 20
2.64606
 30
0.0
 40
0.00208333
 41
0.00208333
  0
VERTEX
  8
0
 10
14.4335
 20
2.22939
 30
0.0
 40
0.00208333
 41
0.00208333
  0
VERTEX
  8
0
 10
14.4335
 20
9.89388
 30
0.0
 40
0.00208333
 41
0.00208333
  0
VERTEX
  8
0
 10
14.0064
 20
9.50846
 30
0.0
 40
0.00208333
 41
0.00208333
  0
SEQEND
 8
0
  0
POLYLINE
  8
0
 62
     0
 66
     1
 10
0
 20
0
 30
0.0
 70
     1
 40
0
 41
0
  0
VERTEX
  8
0
 10
14.0064
 20
2.64606
 30
0.0
 40
0
 41
0
  0
VERTEX
  8
0
 10
5.84093
 20
2.64606
 30
0.0
 40
0
 41
0
  0
VERTEX
  8
0
 10
5.84093
 20
2.22939
 30
0.0
 40
0
 41
0
  0
VERTEX
  8
0
 10
14.4335
 20
2.22939
 30
0.0
 40
0
 41
0
  0
VERTEX
  8
0
 10
14.0064
 20
2.64606
 30
0.0
 40
0
 41
0
  0
SEQEND
 8
0
  0
POLYLINE
  8
0
 62
     0
 66
     1
 10
0
 20
0
 30
0.0
 70
     1
 40
0.15
 41
0.15
  0
VERTEX
  8
0
 10
14.0064
 20
2.64606
 30
0.0
 40
0.00208333
 41
0.00208333
  0
VERTEX
  8
0
 10
5.84093
 20
2.64606
 30
0.0
 40
0.00208333
 41
0.00208333
  0
VERTEX
  8
0
 10
5.84093
 20
2.22939
 30
0.0
 40
0.00208333
 41
0.00208333
  0
VERTEX
  8
0
 10
14.4335
 20
2.22939
 30
0.0
 40
0.00208333
 41
0.00208333
  0
VERTEX
  8
0
 10
14.0064
 20
2.64606
 30
0.0
 40
0.00208333
 41
0.00208333
  0
SEQEND
 8
0
  0
POLYLINE
  8
0
 62
     7
 66
     1
 10
0
 20
0
 30
0.0
 70
     1
 40
0
 41
0
  0
VERTEX
  8
0
 10
6.74978
 20
2.64606
 30
0.0
 40
0
 41
0
  0
VERTEX
  8
0
 10
7.88092
 20
2.64606
 30
0.0
 40
0
 41
0
  0
VERTEX
  8
0
 10
7.88092
 20
2.22939
 30
0.0
 40
0
 41
0
  0
VERTEX
  8
0
 10
6.74978
 20
2.22939
 30
0.0
 40
0
 41
0
  0
VERTEX
  8
0
 10
6.74978
 20
2.64606
 30
0.0
 40
0
 41
0
  0
SEQEND
 8
0
  0
POLYLINE
  8
0
 62
     0
 66
     1
 10
0
 20
0
 30
0.0
 70
     1
 40
0.75
 41
0.75
  0
VERTEX
  8
0
 10
6.74978
 20
2.64606
 30
0.0
 40
0.0104167
 41
0.0104167
  0
VERTEX
  8
0
 10
7.88092
 20
2.64606
 30
0.0
 40
0.0104167
 41
0.0104167
  0
VERTEX
  8
0
 10
7.88092
 20
2.22939
 30
0.0
 40
0.0104167
 41
0.0104167
  0
VERTEX
  8
0
 10
6.74978
 20
2.22939
 30
0.0
 40
0.0104167
 41
0.0104167
  0
VERTEX
  8
0
 10
6.74978
 20
2.64606
 30
0.0
 40
0.0104167
 41
0.0104167
  0
SEQEND
 8
0
  0
POLYLINE
  8
0
 62
     7
 66
     1
 10
0
 20
0
 30
0.0
 70
     1
 40
0
 41
0
  0
VERTEX
  8
0
 10
6.74978
 20
2.64606
 30
0.0
 40
0
 41
0
  0
VERTEX
  8
0
 10
7.88092
 20
2.64606
 30
0.0
 40
0
 41
0
  0
VERTEX
  8
0
 10
7.88092
 20
2.22939
 30
0.0
 40
0
 41
0
  0
VERTEX
  8
0
 10
6.74978
 20
2.22939
 30
0.0
 40
0
 41
0
  0
VERTEX
  8
0
 10
6.74978
 20
2.64606
 30
0.0
 40
0
 41
0
  0
SEQEND
 8
0
  0
POLYLINE
  8
0
 62
     0
 66
     1
 10
0
 20
0
 30
0.0
 70
     1
 40
0.75
 41
0.75
  0
VERTEX
  8
0
 10
6.74978
 20
2.64606
 30
0.0
 40
0.0104167
 41
0.0104167
  0
VERTEX
  8
0
 10
7.88092
 20
2.64606
 30
0.0
 40
0.0104167
 41
0.0104167
  0
VERTEX
  8
0
 10
7.88092
 20
2.22939
 30
0.0
 40
0.0104167
 41
0.0104167
  0
VERTEX
  8
0
 10
6.74978
 20
2.22939
 30
0.0
 40
0.0104167
 41
0.0104167
  0
VERTEX
  8
0
 10
6.74978
 20
2.64606
 30
0.0
 40
0.0104167
 41
0.0104167
  0
SEQEND
 8
0
  0
POLYLINE
  8
0
 62
     0
 66
     1
 10
0
 20
0
 30
0.0
 40
0.75
 41
0.75
  0
VERTEX
  8
0
 10
7.80279
 20
2.43772
 30
0.0
 40
0.0104167
 41
0.0104167
  0
VERTEX
  8
0
 10
6.8279
 20
2.43772
 30
0.0
 40
0.0104167
 41
0.0104167
  0
SEQEND
 8
0
  0
POLYLINE
  8
0
 62
     0
 66
     1
 10
0
 20
0
 30
0.0
 40
0.75
 41
0.75
  0
VERTEX
  8
0
 10
7.80279
 20
2.64606
 30
0.0
 40
0.0104167
 41
0.0104167
  0
VERTEX
  8
0
 10
7.80279
 20
2.22939
 30
0.0
 40
0.0104167
 41
0.0104167
  0
SEQEND
 8
0
  0
POLYLINE
  8
0
 62
     0
 66
     1
 10
0
 20
0
 30
0.0
 40
0.75
 41
0.75
  0
VERTEX
  8
0
 10
6.8279
 20
2.64606
 30
0.0
 40
0.0104167
 41
0.0104167
  0
VERTEX
  8
0
 10
6.8279
 20
2.22939
 30
0.0
 40
0.0104167
 41
0.0104167
  0
SEQEND
 8
0
  0
POLYLINE
  8
0
 62
     7
 66
     1
 10
0
 20
0
 30
0.0
 70
     1
 40
0
 41
0
  0
VERTEX
  8
0
 10
8.01508
 20
2.64606
 30
0.0
 40
0
 41
0
  0
VERTEX
  8
0
 10
9.18782
 20
2.64606
 30
0.0
 40
0
 41
0
  0
VERTEX
  8
0
 10
9.18782
 20
2.22939
 30
0.0
 40
0
 41
0
  0
VERTEX
  8
0
 10
8.01508
 20
2.22939
 30
0.0
 40
0
 41
0
  0
VERTEX
  8
0
 10
8.01508
 20
2.64606
 30
0.0
 40
0
 41
0
  0
SEQEND
 8
0
  0
POLYLINE
  8
0
 62
     0
 66
     1
 10
0
 20
0
 30
0.0
 70
     1
 40
0.75
 41
0.75
  0
VERTEX
  8
0
 10
8.01508
 20
2.64606
 30
0.0
 40
0.0104167
 41
0.0104167
  0
VERTEX
  8
0
 10
9.18782
 20
2.64606
 30
0.0
 40
0.0104167
 41
0.0104167
  0
VERTEX
  8
0
 10
9.18782
 20
2.22939
 30
0.0
 40
0.0104167
 41
0.0104167
  0
VERTEX
  8
0
 10
8.01508
 20
2.22939
 30
0.0
 40
0.0104167
 41
0.0104167
  0
VERTEX
  8
0
 10
8.01508
 20
2.64606
 30
0.0
 40
0.0104167
 41
0.0104167
  0
SEQEND
 8
0
  0
POLYLINE
  8
0
 62
     7
 66
     1
 10
0
 20
0
 30
0.0
 70
     1
 40
0
 41
0
  0
VERTEX
  8
0
 10
8.01508
 20
2.64606
 30
0.0
 40
0
 41
0
  0
VERTEX
  8
0
 10
9.18782
 20
2.64606
 30
0.0
 40
0
 41
0
  0
VERTEX
  8
0
 10
9.18782
 20
2.22939
 30
0.0
 40
0
 41
0
  0
VERTEX
  8
0
 10
8.01508
 20
2.22939
 30
0.0
 40
0
 41
0
  0
VERTEX
  8
0
 10
8.01508
 20
2.64606
 30
0.0
 40
0
 41
0
  0
SEQEND
 8
0
  0
POLYLINE
  8
0
 62
     0
 66
     1
 10
0
 20
0
 30
0.0
 70
     1
 40
0.75
 41
0.75
  0
VERTEX
  8
0
 10
8.01508
 20
2.64606
 30
0.0
 40
0.0104167
 41
0.0104167
  0
VERTEX
  8
0
 10
9.18782
 20
2.64606
 30
0.0
 40
0.0104167
 41
0.0104167
  0
VERTEX
  8
0
 10
9.18782
 20
2.22939
 30
0.0
 40
0.0104167
 41
0.0104167
  0
VERTEX
  8
0
 10
8.01508
 20
2.22939
 30
0.0
 40
0.0104167
 41
0.0104167
  0
VERTEX
  8
0
 10
8.01508
 20
2.64606
 30
0.0
 40
0.0104167
 41
0.0104167
  0
SEQEND
 8
0
  0
POLYLINE
  8
0
 62
     0
 66
     1
 10
0
 20
0
 30
0.0
 40
0.75
 41
0.75
  0
VERTEX
  8
0
 10
9.10975
 20
2.43772
 30
0.0
 40
0.0104167
 41
0.0104167
  0
VERTEX
  8
0
 10
8.09326
 20
2.43772
 30
0.0
 40
0.0104167
 41
0.0104167
  0
SEQEND
 8
0
  0
POLYLINE
  8
0
 62
     0
 66
     1
 10
0
 20
0
 30
0.0
 40
0.75
 41
0.75
  0
VERTEX
  8
0
 10
9.10975
 20
2.64606
 30
0.0
 40
0.0104167
 41
0.0104167
  0
VERTEX
  8
0
 10
9.10975
 20
2.22939
 30
0.0
 40
0.0104167
 41
0.0104167
  0
SEQEND
 8
0
  0
POLYLINE
  8
0
 62
     0
 66
     1
 10
0
 20
0
 30
0.0
 40
0.75
 41
0.75
  0
VERTEX
  8
0
 10
8.09326
 20
2.64606
 30
0.0
 40
0.0104167
 41
0.0104167
  0
VERTEX
  8
0
 10
8.09326
 20
2.22939
 30
0.0
 40
0.0104167
 41
0.0104167
  0
SEQEND
 8
0
  0
POLYLINE
  8
0
 62
     7
 66
     1
 10
0
 20
0
 30
0.0
 70
     1
 40
0
 41
0
  0
VERTEX
  8
0
 10
11.3479
 20
2.64606
 30
0.0
 40
0
 41
0
  0
VERTEX
  8
0
 10
12.3864
 20
2.64606
 30
0.0
 40
0
 41
0
  0
VERTEX
  8
0
 10
12.3864
 20
2.22939
 30
0.0
 40
0
 41
0
  0
VERTEX
  8
0
 10
11.3479
 20
2.22939
 30
0.0
 40
0
 41
0
  0
VERTEX
  8
0
 10
11.3479
 20
2.64606
 30
0.0
 40
0
 41
0
  0
SEQEND
 8
0
  0
POLYLINE
  8
0
 62
     0
 66
     1
 10
0
 20
0
 30
0.0
 70
     1
 40
0.75
 41
0.75
  0
VERTEX
  8
0
 10
11.3479
 20
2.64606
 30
0.0
 40
0.0104167
 41
0.0104167
  0
VERTEX
  8
0
 10
12.3864
 20
2.64606
 30
0.0
 40
0.0104167
 41
0.0104167
  0
VERTEX
  8
0
 10
12.3864
 20
2.22939
 30
0.0
 40
0.0104167
 41
0.0104167
  0
VERTEX
  8
0
 10
11.3479
 20
2.22939
 30
0.0
 40
0.0104167
 41
0.0104167
  0
VERTEX
  8
0
 10
11.3479
 20
2.64606
 30
0.0
 40
0.0104167
 41
0.0104167
  0
SEQEND
 8
0
  0
POLYLINE
  8
0
 62
     7
 66
     1
 10
0
 20
0
 30
0.0
 70
     1
 40
0
 41
0
  0
VERTEX
  8
0
 10
11.3479
 20
2.64606
 30
0.0
 40
0
 41
0
  0
VERTEX
  8
0
 10
12.3864
 20
2.64606
 30
0.0
 40
0
 41
0
  0
VERTEX
  8
0
 10
12.3864
 20
2.22939
 30
0.0
 40
0
 41
0
  0
VERTEX
  8
0
 10
11.3479
 20
2.22939
 30
0.0
 40
0
 41
0
  0
VERTEX
  8
0
 10
11.3479
 20
2.64606
 30
0.0
 40
0
 41
0
  0
SEQEND
 8
0
  0
POLYLINE
  8
0
 62
     0
 66
     1
 10
0
 20
0
 30
0.0
 70
     1
 40
0.75
 41
0.75
  0
VERTEX
  8
0
 10
11.3479
 20
2.64606
 30
0.0
 40
0.0104167
 41
0.0104167
  0
VERTEX
  8
0
 10
12.3864
 20
2.64606
 30
0.0
 40
0.0104167
 41
0.0104167
  0
VERTEX
  8
0
 10
12.3864
 20
2.22939
 30
0.0
 40
0.0104167
 41
0.0104167
  0
VERTEX
  8
0
 10
11.3479
 20
2.22939
 30
0.0
 40
0.0104167
 41
0.0104167
  0
VERTEX
  8
0
 10
11.3479
 20
2.64606
 30
0.0
 40
0.0104167
 41
0.0104167
  0
SEQEND
 8
0
  0
POLYLINE
  8
0
 62
     0
 66
     1
 10
0
 20
0
 30
0.0
 40
0.75
 41
0.75
  0
VERTEX
  8
0
 10
12.3083
 20
2.43772
 30
0.0
 40
0.0104167
 41
0.0104167
  0
VERTEX
  8
0
 10
11.4261
 20
2.43772
 30
0.0
 40
0.0104167
 41
0.0104167
  0
SEQEND
 8
0
  0
POLYLINE
  8
0
 62
     0
 66
     1
 10
0
 20
0
 30
0.0
 40
0.75
 41
0.75
  0
VERTEX
  8
0
 10
12.3083
 20
2.64606
 30
0.0
 40
0.0104167
 41
0.0104167
  0
VERTEX
  8
0
 10
12.3083
 20
2.22939
 30
0.0
 40
0.0104167
 41
0.0104167
  0
SEQEND
 8
0
  0
POLYLINE
  8
0
 62
     0
 66
     1
 10
0
 20
0
 30
0.0
 40
0.75
 41
0.75
  0
VERTEX
  8
0
 10
11.4261
 20
2.64606
 30
0.0
 40
0.0104167
 41
0.0104167
  0
VERTEX
  8
0
 10
11.4261
 20
2.22939
 30
0.0
 40
0.0104167
 41
0.0104167
  0
SEQEND
 8
0
  0
POLYLINE
  8
0
 62
     7
 66
     1
 10
0
 20
0
 30
0.0
 70
     1
 40
0
 41
0
  0
VERTEX
  8
0
 10
12.4024
 20
2.64606
 30
0.0
 40
0
 41
0
  0
VERTEX
  8
0
 10
12.7252
 20
2.64606
 30
0.0
 40
0
 41
0
  0
VERTEX
  8
0
 10
12.7252
 20
2.22939
 30
0.0
 40
0
 41
0
  0
VERTEX
  8
0
 10
12.4024
 20
2.22939
 30
0.0
 40
0
 41
0
  0
VERTEX
  8
0
 10
12.4024
 20
2.64606
 30
0.0
 40
0
 41
0
  0
SEQEND
 8
0
  0
POLYLINE
  8
0
 62
     0
 66
     1
 10
0
 20
0
 30
0.0
 70
     1
 40
0.75
 41
0.75
  0
VERTEX
  8
0
 10
12.4024
 20
2.64606
 30
0.0
 40
0.0104167
 41
0.0104167
  0
VERTEX
  8
0
 10
12.7252
 20
2.64606
 30
0.0
 40
0.0104167
 41
0.0104167
  0
VERTEX
  8
0
 10
12.7252
 20
2.22939
 30
0.0
 40
0.0104167
 41
0.0104167
  0
VERTEX
  8
0
 10
12.4024
 20
2.22939
 30
0.0
 40
0.0104167
 41
0.0104167
  0
VERTEX
  8
0
 10
12.4024
 20
2.64606
 30
0.0
 40
0.0104167
 41
0.0104167
  0
SEQEND
 8
0
  0
POLYLINE
  8
0
 62
     7
 66
     1
 10
0
 20
0
 30
0.0
 70
     1
 40
0
 41
0
  0
VERTEX
  8
0
 10
12.4024
 20
2.64606
 30
0.0
 40
0
 41
0
  0
VERTEX
  8
0
 10
12.7252
 20
2.64606
 30
0.0
 40
0
 41
0
  0
VERTEX
  8
0
 10
12.7252
 20
2.22939
 30
0.0
 40
0
 41
0
  0
VERTEX
  8
0
 10
12.4024
 20
2.22939
 30
0.0
 40
0
 41
0
  0
VERTEX
  8
0
 10
12.4024
 20
2.64606
 30
0.0
 40
0
 41
0
  0
SEQEND
 8
0
  0
POLYLINE
  8
0
 62
     0
 66
     1
 10
0
 20
0
 30
0.0
 70
     1
 40
0.75
 41
0.75
  0
VERTEX
  8
0
 10
12.4024
 20
2.64606
 30
0.0
 40
0.0104167
 41
0.0104167
  0
VERTEX
  8
0
 10
12.7252
 20
2.64606
 30
0.0
 40
0.0104167
 41
0.0104167
  0
VERTEX
  8
0
 10
12.7252
 20
2.22939
 30
0.0
 40
0.0104167
 41
0.0104167
  0
VERTEX
  8
0
 10
12.4024
 20
2.22939
 30
0.0
 40
0.0104167
 41
0.0104167
  0
VERTEX
  8
0
 10
12.4024
 20
2.64606
 30
0.0
 40
0.0104167
 41
0.0104167
  0
SEQEND
 8
0
  0
POLYLINE
  8
0
 62
     0
 66
     1
 10
0
 20
0
 30
0.0
 40
0.75
 41
0.75
  0
VERTEX
  8
0
 10
12.647
 20
2.43772
 30
0.0
 40
0.0104167
 41
0.0104167
  0
VERTEX
  8
0
 10
12.4805
 20
2.43772
 30
0.0
 40
0.0104167
 41
0.0104167
  0
SEQEND
 8
0
  0
POLYLINE
  8
0
 62
     0
 66
     1
 10
0
 20
0
 30
0.0
 40
0.75
 41
0.75
  0
VERTEX
  8
0
 10
12.647
 20
2.64606
 30
0.0
 40
0.0104167
 41
0.0104167
  0
VERTEX
  8
0
 10
12.647
 20
2.22939
 30
0.0
 40
0.0104167
 41
0.0104167
  0
SEQEND
 8
0
  0
POLYLINE
  8
0
 62
     0
 66
     1
 10
0
 20
0
 30
0.0
 40
0.75
 41
0.75
  0
VERTEX
  8
0
 10
12.4805
 20
2.64606
 30
0.0
 40
0.0104167
 41
0.0104167
  0
VERTEX
  8
0
 10
12.4805
 20
2.22939
 30
0.0
 40
0.0104167
 41
0.0104167
  0
SEQEND
 8
0
  0
POLYLINE
  8
0
 62
     0
 66
     1
 10
0
 20
0
 30
0.0
 70
     1
 40
0
 41
0
  0
VERTEX
  8
0
 10
4.69738
 20
2.64606
 30
0.0
 40
0
 41
0
  0
VERTEX
  8
0
 10
5.84093
 20
2.64606
 30
0.0
 40
0
 41
0
  0
VERTEX
  8
0
 10
5.84093
 20
2.37261
 30
0.0
 40
0
 41
0
  0
VERTEX
  8
0
 10
4.69738
 20
2.37261
 30
0.0
 40
0
 41
0
  0
VERTEX
  8
0
 10
4.69738
 20
2.64606
 30
0.0
 40
0
 41
0
  0
SEQEND
 8
0
  0
POLYLINE
  8
0
 62
     0
 66
     1
 10
0
 20
0
 30
0.0
 70
     1
 40
0.15
 41
0.15
  0
VERTEX
  8
0
 10
4.69738
 20
2.64606
 30
0.0
 40
0.00208333
 41
0.00208333
  0
VERTEX
  8
0
 10
5.84093
 20
2.64606
 30
0.0
 40
0.00208333
 41
0.00208333
  0
VERTEX
  8
0
 10
5.84093
 20
2.37261
 30
0.0
 40
0.00208333
 41
0.00208333
  0
VERTEX
  8
0
 10
4.69738
 20
2.37261
 30
0.0
 40
0.00208333
 41
0.00208333
  0
VERTEX
  8
0
 10
4.69738
 20
2.64606
 30
0.0
 40
0.00208333
 41
0.00208333
  0
SEQEND
 8
0
  0
POLYLINE
  8
0
 62
     7
 66
     1
 10
0
 20
0
 30
0.0
 70
     1
 40
0
 41
0
  0
VERTEX
  8
0
 10
4.76654
 20
2.64606
 30
0.0
 40
0
 41
0
  0
VERTEX
  8
0
 10
5.79542
 20
2.64606
 30
0.0
 40
0
 41
0
  0
VERTEX
  8
0
 10
5.79542
 20
2.37261
 30
0.0
 40
0
 41
0
  0
VERTEX
  8
0
 10
4.76654
 20
2.37261
 30
0.0
 40
0
 41
0
  0
VERTEX
  8
0
 10
4.76654
 20
2.64606
 30
0.0
 40
0
 41
0
  0
SEQEND
 8
0
  0
POLYLINE
  8
0
 62
     0
 66
     1
 10
0
 20
0
 30
0.0
 70
     1
 40
0.75
 41
0.75
  0
VERTEX
  8
0
 10
4.76654
 20
2.64606
 30
0.0
 40
0.0104167
 41
0.0104167
  0
VERTEX
  8
0
 10
5.79542
 20
2.64606
 30
0.0
 40
0.0104167
 41
0.0104167
  0
VERTEX
  8
0
 10
5.79542
 20
2.37261
 30
0.0
 40
0.0104167
 41
0.0104167
  0
VERTEX
  8
0
 10
4.76654
 20
2.37261
 30
0.0
 40
0.0104167
 41
0.0104167
  0
VERTEX
  8
0
 10
4.76654
 20
2.64606
 30
0.0
 40
0.0104167
 41
0.0104167
  0
SEQEND
 8
0
  0
POLYLINE
  8
0
 62
     7
 66
     1
 10
0
 20
0
 30
0.0
 70
     1
 40
0
 41
0
  0
VERTEX
  8
0
 10
4.76654
 20
2.64606
 30
0.0
 40
0
 41
0
  0
VERTEX
  8
0
 10
5.79542
 20
2.64606
 30
0.0
 40
0
 41
0
  0
VERTEX
  8
0
 10
5.79542
 20
2.37261
 30
0.0
 40
0
 41
0
  0
VERTEX
  8
0
 10
4.76654
 20
2.37261
 30
0.0
 40
0
 41
0
  0
VERTEX
  8
0
 10
4.76654
 20
2.64606
 30
0.0
 40
0
 41
0
  0
SEQEND
 8
0
  0
POLYLINE
  8
0
 62
     0
 66
     1
 10
0
 20
0
 30
0.0
 70
     1
 40
0.75
 41
0.75
  0
VERTEX
  8
0
 10
4.76654
 20
2.64606
 30
0.0
 40
0.0104167
 41
0.0104167
  0
VERTEX
  8
0
 10
5.79542
 20
2.64606
 30
0.0
 40
0.0104167
 41
0.0104167
  0
VERTEX
  8
0
 10
5.79542
 20
2.37261
 30
0.0
 40
0.0104167
 41
0.0104167
  0
VERTEX
  8
0
 10
4.76654
 20
2.37261
 30
0.0
 40
0.0104167
 41
0.0104167
  0
VERTEX
  8
0
 10
4.76654
 20
2.64606
 30
0.0
 40
0.0104167
 41
0.0104167
  0
SEQEND
 8
0
  0
POLYLINE
  8
0
 62
     0
 66
     1
 10
0
 20
0
 30
0.0
 70
     1
 40
0.75
 41
0.75
  0
VERTEX
  8
0
 10
5.79542
 20
2.37261
 30
0.0
 40
0.0104167
 41
0.0104167
  0
VERTEX
  8
0
 10
5.79542
 20
2.31233
 30
0.0
 40
0.0104167
 41
0.0104167
  0
VERTEX
  8
0
 10
5.77929
 20
2.13151
 30
0.0
 40
0.0104167
 41
0.0104167
  0
VERTEX
  8
0
 10
5.73107
 20
1.92253
 30
0.0
 40
0.0104167
 41
0.0104167
  0
VERTEX
  8
0
 10
5.65072
 20
1.74571
 30
0.0
 40
0.0104167
 41
0.0104167
  0
VERTEX
  8
0
 10
5.53819
 20
1.60101
 30
0.0
 40
0.0104167
 41
0.0104167
  0
VERTEX
  8
0
 10
5.3935
 20
1.4885
 30
0.0
 40
0.0104167
 41
0.0104167
  0
VERTEX
  8
0
 10
5.21664
 20
1.40815
 30
0.0
 40
0.0104167
 41
0.0104167
  0
VERTEX
  8
0
 10
5.00765
 20
1.35992
 30
0.0
 40
0.0104167
 41
0.0104167
  0
VERTEX
  8
0
 10
4.82682
 20
1.3438
 30
0.0
 40
0.0104167
 41
0.0104167
  0
VERTEX
  8
0
 10
4.76654
 20
1.3438
 30
0.0
 40
0.0104167
 41
0.0104167
  0
VERTEX
  8
0
 10
4.76654
 20
2.37261
 30
0.0
 40
0.0104167
 41
0.0104167
  0
VERTEX
  8
0
 10
5.79542
 20
2.37261
 30
0.0
 40
0.0104167
 41
0.0104167
  0
SEQEND
 8
0
  0
POLYLINE
  8
0
 62
     0
 66
     1
 10
0
 20
0
 30
0.0
 70
     1
 40
0
 41
0
  0
VERTEX
  8
0
 10
4.69738
 20
2.64606
 30
0.0
 40
0
 41
0
  0
VERTEX
  8
0
 10
2.48926
 20
2.63118
 30
0.0
 40
0
 41
0
  0
VERTEX
  8
0
 10
2.10385
 20
2.21192
 30
0.0
 40
0
 41
0
  0
VERTEX
  8
0
 10
4.69883
 20
2.22939
 30
0.0
 40
0
 41
0
  0
VERTEX
  8
0
 10
4.69738
 20
2.64606
 30
0.0
 40
0
 41
0
  0
SEQEND
 8
0
  0
POLYLINE
  8
0
 62
     0
 66
     1
 10
0
 20
0
 30
0.0
 70
     1
 40
0.15
 41
0.15
  0
VERTEX
  8
0
 10
4.69738
 20
2.64606
 30
0.0
 40
0.00208333
 41
0.00208333
  0
VERTEX
  8
0
 10
2.48926
 20
2.63118
 30
0.0
 40
0.00208333
 41
0.00208333
  0
VERTEX
  8
0
 10
2.10385
 20
2.21192
 30
0.0
 40
0.00208333
 41
0.00208333
  0
VERTEX
  8
0
 10
4.69883
 20
2.22939
 30
0.0
 40
0.00208333
 41
0.00208333
  0
VERTEX
  8
0
 10
4.69738
 20
2.64606
 30
0.0
 40
0.00208333
 41
0.00208333
  0
SEQEND
 8
0
  0
POLYLINE
  8
0
 62
     0
 66
     1
 10
0
 20
0
 30
0.0
 70
     1
 40
0
 41
0
  0
VERTEX
  8
0
 10
6.03717
 20
4.02442
 30
0.0
 40
0
 41
0
  0
VERTEX
  8
0
 10
6.21425
 20
4.02442
 30
0.0
 40
0
 41
0
  0
VERTEX
  8
0
 10
6.21425
 20
2.22939
 30
0.0
 40
0
 41
0
  0
VERTEX
  8
0
 10
6.03717
 20
2.22939
 30
0.0
 40
0
 41
0
  0
VERTEX
  8
0
 10
6.03717
 20
4.02442
 30
0.0
 40
0
 41
0
  0
SEQEND
 8
0
  0
POLYLINE
  8
0
 62
     0
 66
     1
 10
0
 20
0
 30
0.0
 70
     1
 40
0.15
 41
0.15
  0
VERTEX
  8
0
 10
6.03717
 20
4.02442
 30
0.0
 40
0.00208333
 41
0.00208333
  0
VERTEX
  8
0
 10
6.21425
 20
4.02442
 30
0.0
 40
0.00208333
 41
0.00208333
  0
VERTEX
  8
0
 10
6.21425
 20
2.22939
 30
0.0
 40
0.00208333
 41
0.00208333
  0
VERTEX
  8
0
 10
6.03717
 20
2.22939
 30
0.0
 40
0.00208333
 41
0.00208333
  0
VERTEX
  8
0
 10
6.03717
 20
4.02442
 30
0.0
 40
0.00208333
 41
0.00208333
  0
SEQEND
 8
0
  0
POLYLINE
  8
0
 62
     0
 66
     1
 10
0
 20
0
 30
0.0
 70
     1
 40
0
 41
0
  0
VERTEX
  8
0
 10
4.54508
 20
2.22835
 30
0.0
 40
0
 41
0
  0
VERTEX
  8
0
 10
4.54508
 20
4.01731
 30
0.0
 40
0
 41
0
  0
VERTEX
  8
0
 10
4.40967
 20
3.88189
 30
0.0
 40
0
 41
0
  0
VERTEX
  8
0
 10
4.40967
 20
2.22835
 30
0.0
 40
0
 41
0
  0
VERTEX
  8
0
 10
4.54508
 20
2.22835
 30
0.0
 40
0
 41
0
  0
SEQEND
 8
0
  0
POLYLINE
  8
0
 62
     0
 66
     1
 10
0
 20
0
 30
0.0
 70
     1
 40
0.15
 41
0.15
  0
VERTEX
  8
0
 10
4.54508
 20
2.22835
 30
0.0
 40
0.00208333
 41
0.00208333
  0
VERTEX
  8
0
 10
4.54508
 20
4.01731
 30
0.0
 40
0.00208333
 41
0.00208333
  0
VERTEX
  8
0
 10
4.40967
 20
3.88189
 30
0.0
 40
0.00208333
 41
0.00208333
  0
VERTEX
  8
0
 10
4.40967
 20
2.22835
 30
0.0
 40
0.00208333
 41
0.00208333
  0
VERTEX
  8
0
 10
4.54508
 20
2.22835
 30
0.0
 40
0.00208333
 41
0.00208333
  0
SEQEND
 8
0
  0
POLYLINE
  8
0
 62
     7
 66
     1
 10
0
 20
0
 30
0.0
 70
     1
 40
0
 41
0
  0
VERTEX
  8
0
 10
4.40967
 20
3.82096
 30
0.0
 40
0
 41
0
  0
VERTEX
  8
0
 10
4.54508
 20
3.82096
 30
0.0
 40
0
 41
0
  0
VERTEX
  8
0
 10
4.54508
 20
2.88482
 30
0.0
 40
0
 41
0
  0
VERTEX
  8
0
 10
4.40967
 20
2.88482
 30
0.0
 40
0
 41
0
  0
VERTEX
  8
0
 10
4.40967
 20
3.82096
 30
0.0
 40
0
 41
0
  0
SEQEND
 8
0
  0
POLYLINE
  8
0
 62
     0
 66
     1
 10
0
 20
0
 30
0.0
 70
     1
 40
0.75
 41
0.75
  0
VERTEX
  8
0
 10
4.40967
 20
3.82096
 30
0.0
 40
0.0104167
 41
0.0104167
  0
VERTEX
  8
0
 10
4.54508
 20
3.82096
 30
0.0
 40
0.0104167
 41
0.0104167
  0
VERTEX
  8
0
 10
4.54508
 20
2.88482
 30
0.0
 40
0.0104167
 41
0.0104167
  0
VERTEX
  8
0
 10
4.40967
 20
2.88482
 30
0.0
 40
0.0104167
 41
0.0104167
  0
VERTEX
  8
0
 10
4.40967
 20
3.82096
 30
0.0
 40
0.0104167
 41
0.0104167
  0
SEQEND
 8
0
  0
POLYLINE
  8
0
 62
     7
 66
     1
 10
0
 20
0
 30
0.0
 70
     1
 40
0
 41
0
  0
VERTEX
  8
0
 10
4.40967
 20
3.82096
 30
0.0
 40
0
 41
0
  0
VERTEX
  8
0
 10
4.54508
 20
3.82096
 30
0.0
 40
0
 41
0
  0
VERTEX
  8
0
 10
4.54508
 20
2.88482
 30
0.0
 40
0
 41
0
  0
VERTEX
  8
0
 10
4.40967
 20
2.88482
 30
0.0
 40
0
 41
0
  0
VERTEX
  8
0
 10
4.40967
 20
3.82096
 30
0.0
 40
0
 41
0
  0
SEQEND
 8
0
  0
POLYLINE
  8
0
 62
     0
 66
     1
 10
0
 20
0
 30
0.0
 70
     1
 40
0.75
 41
0.75
  0
VERTEX
  8
0
 10
4.40967
 20
3.82096
 30
0.0
 40
0.0104167
 41
0.0104167
  0
VERTEX
  8
0
 10
4.54508
 20
3.82096
 30
0.0
 40
0.0104167
 41
0.0104167
  0
VERTEX
  8
0
 10
4.54508
 20
2.88482
 30
0.0
 40
0.0104167
 41
0.0104167
  0
VERTEX
  8
0
 10
4.40967
 20
2.88482
 30
0.0
 40
0.0104167
 41
0.0104167
  0
VERTEX
  8
0
 10
4.40967
 20
3.82096
 30
0.0
 40
0.0104167
 41
0.0104167
  0
SEQEND
 8
0
  0
POLYLINE
  8
0
 62
     0
 66
     1
 10
0
 20
0
 30
0.0
 70
     1
 40
0.75
 41
0.75
  0
VERTEX
  8
0
 10
4.54508
 20
3.82096
 30
0.0
 40
0.0104167
 41
0.0104167
  0
VERTEX
  8
0
 10
4.59993
 20
3.82096
 30
0.0
 40
0.0104167
 41
0.0104167
  0
VERTEX
  8
0
 10
4.76449
 20
3.80637
 30
0.0
 40
0.0104167
 41
0.0104167
  0
VERTEX
  8
0
 10
4.95469
 20
3.76247
 30
0.0
 40
0.0104167
 41
0.0104167
  0
VERTEX
  8
0
 10
5.11561
 20
3.68935
 30
0.0
 40
0.0104167
 41
0.0104167
  0
VERTEX
  8
0
 10
5.24724
 20
3.58692
 30
0.0
 40
0.0104167
 41
0.0104167
  0
VERTEX
  8
0
 10
5.34967
 20
3.45529
 30
0.0
 40
0.0104167
 41
0.0104167
  0
VERTEX
  8
0
 10
5.42279
 20
3.29438
 30
0.0
 40
0.0104167
 41
0.0104167
  0
VERTEX
  8
0
 10
5.46669
 20
3.10417
 30
0.0
 40
0.0104167
 41
0.0104167
  0
VERTEX
  8
0
 10
5.48133
 20
2.93961
 30
0.0
 40
0.0104167
 41
0.0104167
  0
VERTEX
  8
0
 10
5.48133
 20
2.88471
 30
0.0
 40
0.0104167
 41
0.0104167
  0
VERTEX
  8
0
 10
4.54508
 20
2.88471
 30
0.0
 40
0.0104167
 41
0.0104167
  0
VERTEX
  8
0
 10
4.54508
 20
3.82096
 30
0.0
 40
0.0104167
 41
0.0104167
  0
SEQEND
 8
0
  0
POLYLINE
  8
0
 62
     0
 66
     1
 10
0
 20
0
 30
0.0
 70
     1
 40
0
 41
0
  0
VERTEX
  8
0
 10
4.40967
 20
3.88189
 30
0.0
 40
0
 41
0
  0
VERTEX
  8
0
 10
3.75375
 20
3.88189
 30
0.0
 40
0
 41
0
  0
VERTEX
  8
0
 10
3.87875
 20
4.01731
 30
0.0
 40
0
 41
0
  0
VERTEX
  8
0
 10
4.54508
 20
4.01731
 30
0.0
 40
0
 41
0
  0
VERTEX
  8
0
 10
4.40967
 20
3.88189
 30
0.0
 40
0
 41
0
  0
SEQEND
 8
0
  0
POLYLINE
  8
0
 62
     0
 66
     1
 10
0
 20
0
 30
0.0
 70
     1
 40
0.15
 41
0.15
  0
VERTEX
  8
0
 10
4.40967
 20
3.88189
 30
0.0
 40
0.00208333
 41
0.00208333
  0
VERTEX
  8
0
 10
3.75375
 20
3.88189
 30
0.0
 40
0.00208333
 41
0.00208333
  0
VERTEX
  8
0
 10
3.87875
 20
4.01731
 30
0.0
 40
0.00208333
 41
0.00208333
  0
VERTEX
  8
0
 10
4.54508
 20
4.01731
 30
0.0
 40
0.00208333
 41
0.00208333
  0
VERTEX
  8
0
 10
4.40967
 20
3.88189
 30
0.0
 40
0.00208333
 41
0.00208333
  0
SEQEND
 8
0
  0
POLYLINE
  8
0
 62
     0
 66
     1
 10
0
 20
0
 30
0.0
 70
     1
 40
0
 41
0
  0
VERTEX
  8
0
 10
3.75375
 20
3.88189
 30
0.0
 40
0
 41
0
  0
VERTEX
  8
0
 10
3.75375
 20
5.25754
 30
0.0
 40
0
 41
0
  0
VERTEX
  8
0
 10
3.87875
 20
5.12213
 30
0.0
 40
0
 41
0
  0
VERTEX
  8
0
 10
3.87875
 20
4.01731
 30
0.0
 40
0
 41
0
  0
VERTEX
  8
0
 10
3.75375
 20
3.88189
 30
0.0
 40
0
 41
0
  0
SEQEND
 8
0
  0
POLYLINE
  8
0
 62
     0
 66
     1
 10
0
 20
0
 30
0.0
 70
     1
 40
0.15
 41
0.15
  0
VERTEX
  8
0
 10
3.75375
 20
3.88189
 30
0.0
 40
0.00208333
 41
0.00208333
  0
VERTEX
  8
0
 10
3.75375
 20
5.25754
 30
0.0
 40
0.00208333
 41
0.00208333
  0
VERTEX
  8
0
 10
3.87875
 20
5.12213
 30
0.0
 40
0.00208333
 41
0.00208333
  0
VERTEX
  8
0
 10
3.87875
 20
4.01731
 30
0.0
 40
0.00208333
 41
0.00208333
  0
VERTEX
  8
0
 10
3.75375
 20
3.88189
 30
0.0
 40
0.00208333
 41
0.00208333
  0
SEQEND
 8
0
  0
POLYLINE
  8
0
 62
     0
 66
     1
 10
0
 20
0
 30
0.0
 70
     1
 40
0
 41
0
  0
VERTEX
  8
0
 10
3.75375
 20
5.25754
 30
0.0
 40
0
 41
0
  0
VERTEX
  8
0
 10
4.40956
 20
5.25754
 30
0.0
 40
0
 41
0
  0
VERTEX
  8
0
 10
4.54497
 20
5.12213
 30
0.0
 40
0
 41
0
  0
VERTEX
  8
0
 10
3.87875
 20
5.12213
 30
0.0
 40
0
 41
0
  0
VERTEX
  8
0
 10
3.75375
 20
5.25754
 30
0.0
 40
0
 41
0
  0
SEQEND
 8
0
  0
POLYLINE
  8
0
 62
     0
 66
     1
 10
0
 20
0
 30
0.0
 70
     1
 40
0.15
 41
0.15
  0
VERTEX
  8
0
 10
3.75375
 20
5.25754
 30
0.0
 40
0.00208333
 41
0.00208333
  0
VERTEX
  8
0
 10
4.40956
 20
5.25754
 30
0.0
 40
0.00208333
 41
0.00208333
  0
VERTEX
  8
0
 10
4.54497
 20
5.12213
 30
0.0
 40
0.00208333
 41
0.00208333
  0
VERTEX
  8
0
 10
3.87875
 20
5.12213
 30
0.0
 40
0.00208333
 41
0.00208333
  0
VERTEX
  8
0
 10
3.75375
 20
5.25754
 30
0.0
 40
0.00208333
 41
0.00208333
  0
SEQEND
 8
0
  0
POLYLINE
  8
0
 62
     0
 66
     1
 10
0
 20
0
 30
0.0
 70
     1
 40
0
 41
0
  0
VERTEX
  8
0
 10
4.54497
 20
5.12213
 30
0.0
 40
0
 41
0
  0
VERTEX
  8
0
 10
4.54497
 20
8.25201
 30
0.0
 40
0
 41
0
  0
VERTEX
  8
0
 10
4.40956
 20
8.25201
 30
0.0
 40
0
 41
0
  0
VERTEX
  8
0
 10
4.40956
 20
5.25754
 30
0.0
 40
0
 41
0
  0
VERTEX
  8
0
 10
4.54497
 20
5.12213
 30
0.0
 40
0
 41
0
  0
SEQEND
 8
0
  0
POLYLINE
  8
0
 62
     0
 66
     1
 10
0
 20
0
 30
0.0
 70
     1
 40
0.15
 41
0.15
  0
VERTEX
  8
0
 10
4.54497
 20
5.12213
 30
0.0
 40
0.00208333
 41
0.00208333
  0
VERTEX
  8
0
 10
4.54497
 20
8.25201
 30
0.0
 40
0.00208333
 41
0.00208333
  0
VERTEX
  8
0
 10
4.40956
 20
8.25201
 30
0.0
 40
0.00208333
 41
0.00208333
  0
VERTEX
  8
0
 10
4.40956
 20
5.25754
 30
0.0
 40
0.00208333
 41
0.00208333
  0
VERTEX
  8
0
 10
4.54497
 20
5.12213
 30
0.0
 40
0.00208333
 41
0.00208333
  0
SEQEND
 8
0
  0
POLYLINE
  8
0
 62
     7
 66
     1
 10
0
 20
0
 30
0.0
 70
     1
 40
0
 41
0
  0
VERTEX
  8
0
 10
4.40956
 20
6.2545
 30
0.0
 40
0
 41
0
  0
VERTEX
  8
0
 10
4.54497
 20
6.2545
 30
0.0
 40
0
 41
0
  0
VERTEX
  8
0
 10
4.54497
 20
5.31836
 30
0.0
 40
0
 41
0
  0
VERTEX
  8
0
 10
4.40956
 20
5.31836
 30
0.0
 40
0
 41
0
  0
VERTEX
  8
0
 10
4.40956
 20
6.2545
 30
0.0
 40
0
 41
0
  0
SEQEND
 8
0
  0
POLYLINE
  8
0
 62
     0
 66
     1
 10
0
 20
0
 30
0.0
 70
     1
 40
0.75
 41
0.75
  0
VERTEX
  8
0
 10
4.40956
 20
6.2545
 30
0.0
 40
0.0104167
 41
0.0104167
  0
VERTEX
  8
0
 10
4.54497
 20
6.2545
 30
0.0
 40
0.0104167
 41
0.0104167
  0
VERTEX
  8
0
 10
4.54497
 20
5.31836
 30
0.0
 40
0.0104167
 41
0.0104167
  0
VERTEX
  8
0
 10
4.40956
 20
5.31836
 30
0.0
 40
0.0104167
 41
0.0104167
  0
VERTEX
  8
0
 10
4.40956
 20
6.2545
 30
0.0
 40
0.0104167
 41
0.0104167
  0
SEQEND
 8
0
  0
POLYLINE
  8
0
 62
     7
 66
     1
 10
0
 20
0
 30
0.0
 70
     1
 40
0
 41
0
  0
VERTEX
  8
0
 10
4.40956
 20
6.2545
 30
0.0
 40
0
 41
0
  0
VERTEX
  8
0
 10
4.54497
 20
6.2545
 30
0.0
 40
0
 41
0
  0
VERTEX
  8
0
 10
4.54497
 20
5.31836
 30
0.0
 40
0
 41
0
  0
VERTEX
  8
0
 10
4.40956
 20
5.31836
 30
0.0
 40
0
 41
0
  0
VERTEX
  8
0
 10
4.40956
 20
6.2545
 30
0.0
 40
0
 41
0
  0
SEQEND
 8
0
  0
POLYLINE
  8
0
 62
     0
 66
     1
 10
0
 20
0
 30
0.0
 70
     1
 40
0.75
 41
0.75
  0
VERTEX
  8
0
 10
4.40956
 20
6.2545
 30
0.0
 40
0.0104167
 41
0.0104167
  0
VERTEX
  8
0
 10
4.54497
 20
6.2545
 30
0.0
 40
0.0104167
 41
0.0104167
  0
VERTEX
  8
0
 10
4.54497
 20
5.31836
 30
0.0
 40
0.0104167
 41
0.0104167
  0
VERTEX
  8
0
 10
4.40956
 20
5.31836
 30
0.0
 40
0.0104167
 41
0.0104167
  0
VERTEX
  8
0
 10
4.40956
 20
6.2545
 30
0.0
 40
0.0104167
 41
0.0104167
  0
SEQEND
 8
0
  0
POLYLINE
  8
0
 62
     0
 66
     1
 10
0
 20
0
 30
0.0
 70
     1
 40
0.75
 41
0.75
  0
VERTEX
  8
0
 10
4.40956
 20
6.2545
 30
0.0
 40
0.0104167
 41
0.0104167
  0
VERTEX
  8
0
 10
4.35471
 20
6.2545
 30
0.0
 40
0.0104167
 41
0.0104167
  0
VERTEX
  8
0
 10
4.19015
 20
6.2399
 30
0.0
 40
0.0104167
 41
0.0104167
  0
VERTEX
  8
0
 10
4
 20
6.19601
 30
0.0
 40
0.0104167
 41
0.0104167
  0
VERTEX
  8
0
 10
3.83914
 20
6.12289
 30
0.0
 40
0.0104167
 41
0.0104167
  0
VERTEX
  8
0
 10
3.70751
 20
6.02051
 30
0.0
 40
0.0104167
 41
0.0104167
  0
VERTEX
  8
0
 10
3.60514
 20
5.88889
 30
0.0
 40
0.0104167
 41
0.0104167
  0
VERTEX
  8
0
 10
3.53201
 20
5.72803
 30
0.0
 40
0.0104167
 41
0.0104167
  0
VERTEX
  8
0
 10
3.48813
 20
5.53787
 30
0.0
 40
0.0104167
 41
0.0104167
  0
VERTEX
  8
0
 10
3.47353
 20
5.37332
 30
0.0
 40
0.0104167
 41
0.0104167
  0
VERTEX
  8
0
 10
3.47353
 20
5.31847
 30
0.0
 40
0.0104167
 41
0.0104167
  0
VERTEX
  8
0
 10
4.40956
 20
5.31847
 30
0.0
 40
0.0104167
 41
0.0104167
  0
VERTEX
  8
0
 10
4.40956
 20
6.2545
 30
0.0
 40
0.0104167
 41
0.0104167
  0
SEQEND
 8
0
  0
POLYLINE
  8
0
 62
     0
 66
     1
 10
0
 20
0
 30
0.0
 70
     1
 40
0
 41
0
  0
VERTEX
  8
0
 10
4.32042
 20
9.89388
 30
0.0
 40
0
 41
0
  0
VERTEX
  8
0
 10
4.54633
 20
9.89388
 30
0.0
 40
0
 41
0
  0
VERTEX
  8
0
 10
4.54633
 20
8.25201
 30
0.0
 40
0
 41
0
  0
VERTEX
  8
0
 10
4.32042
 20
8.25201
 30
0.0
 40
0
 41
0
  0
VERTEX
  8
0
 10
4.32042
 20
9.89388
 30
0.0
 40
0
 41
0
  0
SEQEND
 8
0
  0
POLYLINE
  8
0
 62
     0
 66
     1
 10
0
 20
0
 30
0.0
 70
     1
 40
0.15
 41
0.15
  0
VERTEX
  8
0
 10
4.32042
 20
9.89388
 30
0.0
 40
0.00208333
 41
0.00208333
  0
VERTEX
  8
0
 10
4.54633
 20
9.89388
 30
0.0
 40
0.00208333
 41
0.00208333
  0
VERTEX
  8
0
 10
4.54633
 20
8.25201
 30
0.0
 40
0.00208333
 41
0.00208333
  0
VERTEX
  8
0
 10
4.32042
 20
8.25201
 30
0.0
 40
0.00208333
 41
0.00208333
  0
VERTEX
  8
0
 10
4.32042
 20
9.89388
 30
0.0
 40
0.00208333
 41
0.00208333
  0
SEQEND
 8
0
  0
POLYLINE
  8
0
 62
     0
 66
     1
 10
0
 20
0
 30
0.0
 70
     1
 40
0
 41
0
  0
VERTEX
  8
0
 10
2.10385
 20
7.48682
 30
0.0
 40
0
 41
0
  0
VERTEX
  8
0
 10
4.54497
 20
7.48682
 30
0.0
 40
0
 41
0
  0
VERTEX
  8
0
 10
4.54497
 20
7.37224
 30
0.0
 40
0
 41
0
  0
VERTEX
  8
0
 10
2.10385
 20
7.37224
 30
0.0
 40
0
 41
0
  0
VERTEX
  8
0
 10
2.10385
 20
7.48682
 30
0.0
 40
0
 41
0
  0
SEQEND
 8
0
  0
POLYLINE
  8
0
 62
     0
 66
     1
 10
0
 20
0
 30
0.0
 70
     1
 40
0.15
 41
0.15
  0
VERTEX
  8
0
 10
2.10385
 20
7.48682
 30
0.0
 40
0.00208333
 41
0.00208333
  0
VERTEX
  8
0
 10
4.54497
 20
7.48682
 30
0.0
 40
0.00208333
 41
0.00208333
  0
VERTEX
  8
0
 10
4.54497
 20
7.37224
 30
0.0
 40
0.00208333
 41
0.00208333
  0
VERTEX
  8
0
 10
2.10385
 20
7.37224
 30
0.0
 40
0.00208333
 41
0.00208333
  0
VERTEX
  8
0
 10
2.10385
 20
7.48682
 30
0.0
 40
0.00208333
 41
0.00208333
  0
SEQEND
 8
0
  0
POLYLINE
  8
0
 62
     7
 66
     1
 10
0
 20
0
 30
0.0
 70
     1
 40
0
 41
0
  0
VERTEX
  8
0
 10
2.69596
 20
7.48682
 30
0.0
 40
0
 41
0
  0
VERTEX
  8
0
 10
3.70042
 20
7.48682
 30
0.0
 40
0
 41
0
  0
VERTEX
  8
0
 10
3.70042
 20
7.37224
 30
0.0
 40
0
 41
0
  0
VERTEX
  8
0
 10
2.69596
 20
7.37224
 30
0.0
 40
0
 41
0
  0
VERTEX
  8
0
 10
2.69596
 20
7.48682
 30
0.0
 40
0
 41
0
  0
SEQEND
 8
0
  0
POLYLINE
  8
0
 62
     0
 66
     1
 10
0
 20
0
 30
0.0
 70
     1
 40
0.75
 41
0.75
  0
VERTEX
  8
0
 10
2.69596
 20
7.48682
 30
0.0
 40
0.0104167
 41
0.0104167
  0
VERTEX
  8
0
 10
3.70042
 20
7.48682
 30
0.0
 40
0.0104167
 41
0.0104167
  0
VERTEX
  8
0
 10
3.70042
 20
7.37224
 30
0.0
 40
0.0104167
 41
0.0104167
  0
VERTEX
  8
0
 10
2.69596
 20
7.37224
 30
0.0
 40
0.0104167
 41
0.0104167
  0
VERTEX
  8
0
 10
2.69596
 20
7.48682
 30
0.0
 40
0.0104167
 41
0.0104167
  0
SEQEND
 8
0
  0
POLYLINE
  8
0
 62
     7
 66
     1
 10
0
 20
0
 30
0.0
 70
     1
 40
0
 41
0
  0
VERTEX
  8
0
 10
2.69596
 20
7.48682
 30
0.0
 40
0
 41
0
  0
VERTEX
  8
0
 10
3.70042
 20
7.48682
 30
0.0
 40
0
 41
0
  0
VERTEX
  8
0
 10
3.70042
 20
7.37224
 30
0.0
 40
0
 41
0
  0
VERTEX
  8
0
 10
2.69596
 20
7.37224
 30
0.0
 40
0
 41
0
  0
VERTEX
  8
0
 10
2.69596
 20
7.48682
 30
0.0
 40
0
 41
0
  0
SEQEND
 8
0
  0
POLYLINE
  8
0
 62
     0
 66
     1
 10
0
 20
0
 30
0.0
 70
     1
 40
0.75
 41
0.75
  0
VERTEX
  8
0
 10
2.69596
 20
7.48682
 30
0.0
 40
0.0104167
 41
0.0104167
  0
VERTEX
  8
0
 10
3.70042
 20
7.48682
 30
0.0
 40
0.0104167
 41
0.0104167
  0
VERTEX
  8
0
 10
3.70042
 20
7.37224
 30
0.0
 40
0.0104167
 41
0.0104167
  0
VERTEX
  8
0
 10
2.69596
 20
7.37224
 30
0.0
 40
0.0104167
 41
0.0104167
  0
VERTEX
  8
0
 10
2.69596
 20
7.48682
 30
0.0
 40
0.0104167
 41
0.0104167
  0
SEQEND
 8
0
  0
POLYLINE
  8
0
 62
     0
 66
     1
 10
0
 20
0
 30
0.0
 70
     1
 40
0.75
 41
0.75
  0
VERTEX
  8
0
 10
3.70042
 20
7.37224
 30
0.0
 40
0.0104167
 41
0.0104167
  0
VERTEX
  8
0
 10
3.70042
 20
7.31342
 30
0.0
 40
0.0104167
 41
0.0104167
  0
VERTEX
  8
0
 10
3.68468
 20
7.13687
 30
0.0
 40
0.0104167
 41
0.0104167
  0
VERTEX
  8
0
 10
3.63758
 20
6.93283
 30
0.0
 40
0.0104167
 41
0.0104167
  0
VERTEX
  8
0
 10
3.55914
 20
6.76019
 30
0.0
 40
0.0104167
 41
0.0104167
  0
VERTEX
  8
0
 10
3.44928
 20
6.61897
 30
0.0
 40
0.0104167
 41
0.0104167
  0
VERTEX
  8
0
 10
3.30806
 20
6.50911
 30
0.0
 40
0.0104167
 41
0.0104167
  0
VERTEX
  8
0
 10
3.13542
 20
6.43067
 30
0.0
 40
0.0104167
 41
0.0104167
  0
VERTEX
  8
0
 10
2.93138
 20
6.38357
 30
0.0
 40
0.0104167
 41
0.0104167
  0
VERTEX
  8
0
 10
2.75483
 20
6.36783
 30
0.0
 40
0.0104167
 41
0.0104167
  0
VERTEX
  8
0
 10
2.69601
 20
6.36783
 30
0.0
 40
0.0104167
 41
0.0104167
  0
VERTEX
  8
0
 10
2.69601
 20
7.37224
 30
0.0
 40
0.0104167
 41
0.0104167
  0
VERTEX
  8
0
 10
3.70042
 20
7.37224
 30
0.0
 40
0.0104167
 41
0.0104167
  0
SEQEND
 8
0
  0
POLYLINE
  8
0
 62
     0
 66
     1
 10
0
 20
0
 30
0.0
 70
     1
 40
0
 41
0
  0
VERTEX
  8
0
 10
2.48926
 20
4.43815
 30
0.0
 40
0
 41
0
  0
VERTEX
  8
0
 10
3.87875
 20
4.43815
 30
0.0
 40
0
 41
0
  0
VERTEX
  8
0
 10
3.87875
 20
4.57357
 30
0.0
 40
0
 41
0
  0
VERTEX
  8
0
 10
2.10385
 20
4.57357
 30
0.0
 40
0
 41
0
  0
VERTEX
  8
0
 10
2.48926
 20
4.43815
 30
0.0
 40
0
 41
0
  0
SEQEND
 8
0
  0
POLYLINE
  8
0
 62
     0
 66
     1
 10
0
 20
0
 30
0.0
 70
     1
 40
0.15
 41
0.15
  0
VERTEX
  8
0
 10
2.48926
 20
4.43815
 30
0.0
 40
0.00208333
 41
0.00208333
  0
VERTEX
  8
0
 10
3.87875
 20
4.43815
 30
0.0
 40
0.00208333
 41
0.00208333
  0
VERTEX
  8
0
 10
3.87875
 20
4.57357
 30
0.0
 40
0.00208333
 41
0.00208333
  0
VERTEX
  8
0
 10
2.10385
 20
4.57357
 30
0.0
 40
0.00208333
 41
0.00208333
  0
VERTEX
  8
0
 10
2.48926
 20
4.43815
 30
0.0
 40
0.00208333
 41
0.00208333
  0
SEQEND
 8
0
  0
POLYLINE
  8
0
 62
     0
 66
     1
 10
0
 20
0
 30
0.0
 70
     1
 40
0
 41
0
  0
VERTEX
  8
0
 10
10.0525
 20
9.89388
 30
0.0
 40
0
 41
0
  0
VERTEX
  8
0
 10
10.2088
 20
9.89388
 30
0.0
 40
0
 41
0
  0
VERTEX
  8
0
 10
10.2088
 20
2.22939
 30
0.0
 40
0
 41
0
  0
VERTEX
  8
0
 10
10.0525
 20
2.22939
 30
0.0
 40
0
 41
0
  0
VERTEX
  8
0
 10
10.0525
 20
9.89388
 30
0.0
 40
0
 41
0
  0
SEQEND
 8
0
  0
POLYLINE
  8
0
 62
     0
 66
     1
 10
0
 20
0
 30
0.0
 70
     1
 40
0.15
 41
0.15
  0
VERTEX
  8
0
 10
10.0525
 20
9.89388
 30
0.0
 40
0.00208333
 41
0.00208333
  0
VERTEX
  8
0
 10
10.2088
 20
9.89388
 30
0.0
 40
0.00208333
 41
0.00208333
  0
VERTEX
  8
0
 10
10.2088
 20
2.22939
 30
0.0
 40
0.00208333
 41
0.00208333
  0
VERTEX
  8
0
 10
10.0525
 20
2.22939
 30
0.0
 40
0.00208333
 41
0.00208333
  0
VERTEX
  8
0
 10
10.0525
 20
9.89388
 30
0.0
 40
0.00208333
 41
0.00208333
  0
SEQEND
 8
0
  0
POLYLINE
  8
0
 62
     7
 66
     1
 10
0
 20
0
 30
0.0
 70
     1
 40
0
 41
0
  0
VERTEX
  8
0
 10
10.0525
 20
7.52544
 30
0.0
 40
0
 41
0
  0
VERTEX
  8
0
 10
10.2088
 20
7.52544
 30
0.0
 40
0
 41
0
  0
VERTEX
  8
0
 10
10.2088
 20
6.55431
 30
0.0
 40
0
 41
0
  0
VERTEX
  8
0
 10
10.0525
 20
6.55431
 30
0.0
 40
0
 41
0
  0
VERTEX
  8
0
 10
10.0525
 20
7.52544
 30
0.0
 40
0
 41
0
  0
SEQEND
 8
0
  0
POLYLINE
  8
0
 62
     0
 66
     1
 10
0
 20
0
 30
0.0
 70
     1
 40
0.75
 41
0.75
  0
VERTEX
  8
0
 10
10.0525
 20
7.52544
 30
0.0
 40
0.0104167
 41
0.0104167
  0
VERTEX
  8
0
 10
10.2088
 20
7.52544
 30
0.0
 40
0.0104167
 41
0.0104167
  0
VERTEX
  8
0
 10
10.2088
 20
6.55431
 30
0.0
 40
0.0104167
 41
0.0104167
  0
VERTEX
  8
0
 10
10.0525
 20
6.55431
 30
0.0
 40
0.0104167
 41
0.0104167
  0
VERTEX
  8
0
 10
10.0525
 20
7.52544
 30
0.0
 40
0.0104167
 41
0.0104167
  0
SEQEND
 8
0
  0
POLYLINE
  8
0
 62
     7
 66
     1
 10
0
 20
0
 30
0.0
 70
     1
 40
0
 41
0
  0
VERTEX
  8
0
 10
10.0525
 20
7.52544
 30
0.0
 40
0
 41
0
  0
VERTEX
  8
0
 10
10.2088
 20
7.52544
 30
0.0
 40
0
 41
0
  0
VERTEX
  8
0
 10
10.2088
 20
6.55431
 30
0.0
 40
0
 41
0
  0
VERTEX
  8
0
 10
10.0525
 20
6.55431
 30
0.0
 40
0
 41
0
  0
VERTEX
  8
0
 10
10.0525
 20
7.52544
 30
0.0
 40
0
 41
0
  0
SEQEND
 8
0
  0
POLYLINE
  8
0
 62
     0
 66
     1
 10
0
 20
0
 30
0.0
 70
     1
 40
0.75
 41
0.75
  0
VERTEX
  8
0
 10
10.0525
 20
7.52544
 30
0.0
 40
0.0104167
 41
0.0104167
  0
VERTEX
  8
0
 10
10.2088
 20
7.52544
 30
0.0
 40
0.0104167
 41
0.0104167
  0
VERTEX
  8
0
 10
10.2088
 20
6.55431
 30
0.0
 40
0.0104167
 41
0.0104167
  0
VERTEX
  8
0
 10
10.0525
 20
6.55431
 30
0.0
 40
0.0104167
 41
0.0104167
  0
VERTEX
  8
0
 10
10.0525
 20
7.52544
 30
0.0
 40
0.0104167
 41
0.0104167
  0
SEQEND
 8
0
  0
POLYLINE
  8
0
 62
     0
 66
     1
 10
0
 20
0
 30
0.0
 70
     1
 40
0.75
 41
0.75
  0
VERTEX
  8
0
 10
10.2088
 20
7.52544
 30
0.0
 40
0.0104167
 41
0.0104167
  0
VERTEX
  8
0
 10
10.2656
 20
7.52544
 30
0.0
 40
0.0104167
 41
0.0104167
  0
VERTEX
  8
0
 10
10.4364
 20
7.51031
 30
0.0
 40
0.0104167
 41
0.0104167
  0
VERTEX
  8
0
 10
10.6336
 20
7.46479
 30
0.0
 40
0.0104167
 41
0.0104167
  0
VERTEX
  8
0
 10
10.8006
 20
7.38889
 30
0.0
 40
0.0104167
 41
0.0104167
  0
VERTEX
  8
0
 10
10.9372
 20
7.28267
 30
0.0
 40
0.0104167
 41
0.0104167
  0
VERTEX
  8
0
 10
11.0434
 20
7.14611
 30
0.0
 40
0.0104167
 41
0.0104167
  0
VERTEX
  8
0
 10
11.1193
 20
6.97917
 30
0.0
 40
0.0104167
 41
0.0104167
  0
VERTEX
  8
0
 10
11.1648
 20
6.78185
 30
0.0
 40
0.0104167
 41
0.0104167
  0
VERTEX
  8
0
 10
11.18
 20
6.61111
 30
0.0
 40
0.0104167
 41
0.0104167
  0
VERTEX
  8
0
 10
11.18
 20
6.55419
 30
0.0
 40
0.0104167
 41
0.0104167
  0
VERTEX
  8
0
 10
10.2088
 20
6.55419
 30
0.0
 40
0.0104167
 41
0.0104167
  0
VERTEX
  8
0
 10
10.2088
 20
7.52544
 30
0.0
 40
0.0104167
 41
0.0104167
  0
SEQEND
 8
0
  0
POLYLINE
  8
0
 62
     7
 66
     1
 10
0
 20
0
 30
0.0
 70
     1
 40
0
 41
0
  0
VERTEX
  8
0
 10
10.0525
 20
6.16971
 30
0.0
 40
0
 41
0
  0
VERTEX
  8
0
 10
10.2088
 20
6.16971
 30
0.0
 40
0
 41
0
  0
VERTEX
  8
0
 10
10.2088
 20
5.17469
 30
0.0
 40
0
 41
0
  0
VERTEX
  8
0
 10
10.0525
 20
5.17469
 30
0.0
 40
0
 41
0
  0
VERTEX
  8
0
 10
10.0525
 20
6.16971
 30
0.0
 40
0
 41
0
  0
SEQEND
 8
0
  0
POLYLINE
  8
0
 62
     0
 66
     1
 10
0
 20
0
 30
0.0
 70
     1
 40
0.75
 41
0.75
  0
VERTEX
  8
0
 10
10.0525
 20
6.16971
 30
0.0
 40
0.0104167
 41
0.0104167
  0
VERTEX
  8
0
 10
10.2088
 20
6.16971
 30
0.0
 40
0.0104167
 41
0.0104167
  0
VERTEX
  8
0
 10
10.2088
 20
5.17469
 30
0.0
 40
0.0104167
 41
0.0104167
  0
VERTEX
  8
0
 10
10.0525
 20
5.17469
 30
0.0
 40
0.0104167
 41
0.0104167
  0
VERTEX
  8
0
 10
10.0525
 20
6.16971
 30
0.0
 40
0.0104167
 41
0.0104167
  0
SEQEND
 8
0
  0
POLYLINE
  8
0
 62
     7
 66
     1
 10
0
 20
0
 30
0.0
 70
     1
 40
0
 41
0
  0
VERTEX
  8
0
 10
10.0525
 20
6.16971
 30
0.0
 40
0
 41
0
  0
VERTEX
  8
0
 10
10.2088
 20
6.16971
 30
0.0
 40
0
 41
0
  0
VERTEX
  8
0
 10
10.2088
 20
5.17469
 30
0.0
 40
0
 41
0
  0
VERTEX
  8
0
 10
10.0525
 20
5.17469
 30
0.0
 40
0
 41
0
  0
VERTEX
  8
0
 10
10.0525
 20
6.16971
 30
0.0
 40
0
 41
0
  0
SEQEND
 8
0
  0
POLYLINE
  8
0
 62
     0
 66
     1
 10
0
 20
0
 30
0.0
 70
     1
 40
0.75
 41
0.75
  0
VERTEX
  8
0
 10
10.0525
 20
6.16971
 30
0.0
 40
0.0104167
 41
0.0104167
  0
VERTEX
  8
0
 10
10.2088
 20
6.16971
 30
0.0
 40
0.0104167
 41
0.0104167
  0
VERTEX
  8
0
 10
10.2088
 20
5.17469
 30
0.0
 40
0.0104167
 41
0.0104167
  0
VERTEX
  8
0
 10
10.0525
 20
5.17469
 30
0.0
 40
0.0104167
 41
0.0104167
  0
VERTEX
  8
0
 10
10.0525
 20
6.16971
 30
0.0
 40
0.0104167
 41
0.0104167
  0
SEQEND
 8
0
  0
POLYLINE
  8
0
 62
     0
 66
     1
 10
0
 20
0
 30
0.0
 70
     1
 40
0.75
 41
0.75
  0
VERTEX
  8
0
 10
10.2088
 20
5.17469
 30
0.0
 40
0.0104167
 41
0.0104167
  0
VERTEX
  8
0
 10
10.267
 20
5.17469
 30
0.0
 40
0.0104167
 41
0.0104167
  0
VERTEX
  8
0
 10
10.4419
 20
5.19026
 30
0.0
 40
0.0104167
 41
0.0104167
  0
VERTEX
  8
0
 10
10.644
 20
5.23693
 30
0.0
 40
0.0104167
 41
0.0104167
  0
VERTEX
  8
0
 10
10.8151
 20
5.31467
 30
0.0
 40
0.0104167
 41
0.0104167
  0
VERTEX
  8
0
 10
10.955
 20
5.4235
 30
0.0
 40
0.0104167
 41
0.0104167
  0
VERTEX
  8
0
 10
11.0638
 20
5.56342
 30
0.0
 40
0.0104167
 41
0.0104167
  0
VERTEX
  8
0
 10
11.1415
 20
5.73443
 30
0.0
 40
0.0104167
 41
0.0104167
  0
VERTEX
  8
0
 10
11.1882
 20
5.93653
 30
0.0
 40
0.0104167
 41
0.0104167
  0
VERTEX
  8
0
 10
11.2038
 20
6.11143
 30
0.0
 40
0.0104167
 41
0.0104167
  0
VERTEX
  8
0
 10
11.2038
 20
6.16971
 30
0.0
 40
0.0104167
 41
0.0104167
  0
VERTEX
  8
0
 10
10.2088
 20
6.16971
 30
0.0
 40
0.0104167
 41
0.0104167
  0
VERTEX
  8
0
 10
10.2088
 20
5.17469
 30
0.0
 40
0.0104167
 41
0.0104167
  0
SEQEND
 8
0
  0
POLYLINE
  8
0
 62
     0
 66
     1
 10
0
 20
0
 30
0.0
 70
     1
 40
0
 41
0
  0
VERTEX
  8
0
 10
10.0525
 20
6.42378
 30
0.0
 40
0
 41
0
  0
VERTEX
  8
0
 10
14.4335
 20
6.42378
 30
0.0
 40
0
 41
0
  0
VERTEX
  8
0
 10
14.4335
 20
6.28836
 30
0.0
 40
0
 41
0
  0
VERTEX
  8
0
 10
10.0525
 20
6.28836
 30
0.0
 40
0
 41
0
  0
VERTEX
  8
0
 10
10.0525
 20
6.42378
 30
0.0
 40
0
 41
0
  0
SEQEND
 8
0
  0
POLYLINE
  8
0
 62
     0
 66
     1
 10
0
 20
0
 30
0.0
 70
     1
 40
0.15
 41
0.15
  0
VERTEX
  8
0
 10
10.0525
 20
6.42378
 30
0.0
 40
0.00208333
 41
0.00208333
  0
VERTEX
  8
0
 10
14.4335
 20
6.42378
 30
0.0
 40
0.00208333
 41
0.00208333
  0
VERTEX
  8
0
 10
14.4335
 20
6.28836
 30
0.0
 40
0.00208333
 41
0.00208333
  0
VERTEX
  8
0
 10
10.0525
 20
6.28836
 30
0.0
 40
0.00208333
 41
0.00208333
  0
VERTEX
  8
0
 10
10.0525
 20
6.42378
 30
0.0
 40
0.00208333
 41
0.00208333
  0
SEQEND
 8
0
  0
POLYLINE
  8
0
 62
     7
 66
     1
 10
0
 20
0
 30
0.0
 70
     1
 40
0
 41
0
  0
VERTEX
  8
0
 10
10.193
 20
2.22939
 30
0.0
 40
0
 41
0
  0
VERTEX
  8
0
 10
10.193
 20
0.00960286
 30
0.0
 40
0
 41
0
  0
VERTEX
  8
0
 10
10.0576
 20
0.145019
 30
0.0
 40
0
 41
0
  0
VERTEX
  8
0
 10
10.0576
 20
2.22939
 30
0.0
 40
0
 41
0
  0
VERTEX
  8
0
 10
10.193
 20
2.22939
 30
0.0
 40
0
 41
0
  0
SEQEND
 8
0
  0
POLYLINE
  8
0
 62
     0
 66
     1
 10
0
 20
0
 30
0.0
 70
     1
 40
0.15
 41
0.15
  0
VERTEX
  8
0
 10
10.193
 20
2.22939
 30
0.0
 40
0.00208333
 41
0.00208333
  0
VERTEX
  8
0
 10
10.193
 20
0.00960286
 30
0.0
 40
0.00208333
 41
0.00208333
  0
VERTEX
  8
0
 10
10.0576
 20
0.145019
 30
0.0
 40
0.00208333
 41
0.00208333
  0
VERTEX
  8
0
 10
10.0576
 20
2.22939
 30
0.0
 40
0.00208333
 41
0.00208333
  0
VERTEX
  8
0
 10
10.193
 20
2.22939
 30
0.0
 40
0.00208333
 41
0.00208333
  0
SEQEND
 8
0
  0
POLYLINE
  8
0
 62
     7
 66
     1
 10
0
 20
0
 30
0.0
 70
     1
 40
0
 41
0
  0
VERTEX
  8
0
 10
10.193
 20
0.00960286
 30
0.0
 40
0
 41
0
  0
VERTEX
  8
0
 10
6.32428
 20
0.00960286
 30
0.0
 40
0
 41
0
  0
VERTEX
  8
0
 10
6.32428
 20
0.145019
 30
0.0
 40
0
 41
0
  0
VERTEX
  8
0
 10
10.0576
 20
0.145019
 30
0.0
 40
0
 41
0
  0
VERTEX
  8
0
 10
10.193
 20
0.00960286
 30
0.0
 40
0
 41
0
  0
SEQEND
 8
0
  0
POLYLINE
  8
0
 62
     0
 66
     1
 10
0
 20
0
 30
0.0
 70
     1
 40
0.15
 41
0.15
  0
VERTEX
  8
0
 10
10.193
 20
0.00960286
 30
0.0
 40
0.00208333
 41
0.00208333
  0
VERTEX
  8
0
 10
6.32428
 20
0.00960286
 30
0.0
 40
0.00208333
 41
0.00208333
  0
VERTEX
  8
0
 10
6.32428
 20
0.145019
 30
0.0
 40
0.00208333
 41
0.00208333
  0
VERTEX
  8
0
 10
10.0576
 20
0.145019
 30
0.0
 40
0.00208333
 41
0.00208333
  0
VERTEX
  8
0
 10
10.193
 20
0.00960286
 30
0.0
 40
0.00208333
 41
0.00208333
  0
SEQEND
 8
0
  0
POLYLINE
  8
0
 62
     7
 66
     1
 10
0
 20
0
 30
0.0
 70
     1
 40
0
 41
0
  0
VERTEX
  8
0
 10
4.32656
 20
0.00960286
 30
0.0
 40
0
 41
0
  0
VERTEX
  8
0
 10
0.717285
 20
0.00960286
 30
0.0
 40
0
 41
0
  0
VERTEX
  8
0
 10
0.852701
 20
0.145019
 30
0.0
 40
0
 41
0
  0
VERTEX
  8
0
 10
4.32656
 20
0.145019
 30
0.0
 40
0
 41
0
  0
VERTEX
  8
0
 10
4.32656
 20
0.00960286
 30
0.0
 40
0
 41
0
  0
SEQEND
 8
0
  0
POLYLINE
  8
0
 62
     0
 66
     1
 10
0
 20
0
 30
0.0
 70
     1
 40
0.15
 41
0.15
  0
VERTEX
  8
0
 10
4.32656
 20
0.00960286
 30
0.0
 40
0.00208333
 41
0.00208333
  0
VERTEX
  8
0
 10
0.717285
 20
0.00960286
 30
0.0
 40
0.00208333
 41
0.00208333
  0
VERTEX
  8
0
 10
0.852701
 20
0.145019
 30
0.0
 40
0.00208333
 41
0.00208333
  0
VERTEX
  8
0
 10
4.32656
 20
0.145019
 30
0.0
 40
0.00208333
 41
0.00208333
  0
VERTEX
  8
0
 10
4.32656
 20
0.00960286
 30
0.0
 40
0.00208333
 41
0.00208333
  0
SEQEND
 8
0
  0
POLYLINE
  8
0
 62
     7
 66
     1
 10
0
 20
0
 30
0.0
 70
     1
 40
0
 41
0
  0
VERTEX
  8
0
 10
0.717285
 20
0.00960286
 30
0.0
 40
0
 41
0
  0
VERTEX
  8
0
 10
0.717285
 20
7.27599
 30
0.0
 40
0
 41
0
  0
VERTEX
  8
0
 10
0.852701
 20
7.14057
 30
0.0
 40
0
 41
0
  0
VERTEX
  8
0
 10
0.852701
 20
0.145019
 30
0.0
 40
0
 41
0
  0
VERTEX
  8
0
 10
0.717285
 20
0.00960286
 30
0.0
 40
0
 41
0
  0
SEQEND
 8
0
  0
POLYLINE
  8
0
 62
     0
 66
     1
 10
0
 20
0
 30
0.0
 70
     1
 40
0.15
 41
0.15
  0
VERTEX
  8
0
 10
0.717285
 20
0.00960286
 30
0.0
 40
0.00208333
 41
0.00208333
  0
VERTEX
  8
0
 10
0.717285
 20
7.27599
 30
0.0
 40
0.00208333
 41
0.00208333
  0
VERTEX
  8
0
 10
0.852701
 20
7.14057
 30
0.0
 40
0.00208333
 41
0.00208333
  0
VERTEX
  8
0
 10
0.852701
 20
0.145019
 30
0.0
 40
0.00208333
 41
0.00208333
  0
VERTEX
  8
0
 10
0.717285
 20
0.00960286
 30
0.0
 40
0.00208333
 41
0.00208333
  0
SEQEND
 8
0
  0
POLYLINE
  8
0
 62
     7
 66
     1
 10
0
 20
0
 30
0.0
 70
     1
 40
0
 41
0
  0
VERTEX
  8
0
 10
0.717285
 20
7.27599
 30
0.0
 40
0
 41
0
  0
VERTEX
  8
0
 10
2.10385
 20
7.27599
 30
0.0
 40
0
 41
0
  0
VERTEX
  8
0
 10
2.10385
 20
7.14057
 30
0.0
 40
0
 41
0
  0
VERTEX
  8
0
 10
0.852701
 20
7.14057
 30
0.0
 40
0
 41
0
  0
VERTEX
  8
0
 10
0.717285
 20
7.27599
 30
0.0
 40
0
 41
0
  0
SEQEND
 8
0
  0
POLYLINE
  8
0
 62
     0
 66
     1
 10
0
 20
0
 30
0.0
 70
     1
 40
0.15
 41
0.15
  0
VERTEX
  8
0
 10
0.717285
 20
7.27599
 30
0.0
 40
0.00208333
 41
0.00208333
  0
VERTEX
  8
0
 10
2.10385
 20
7.27599
 30
0.0
 40
0.00208333
 41
0.00208333
  0
VERTEX
  8
0
 10
2.10385
 20
7.14057
 30
0.0
 40
0.00208333
 41
0.00208333
  0
VERTEX
  8
0
 10
0.852701
 20
7.14057
 30
0.0
 40
0.00208333
 41
0.00208333
  0
VERTEX
  8
0
 10
0.717285
 20
7.27599
 30
0.0
 40
0.00208333
 41
0.00208333
  0
SEQEND
 8
0
  0
POLYLINE
  8
0
 62
     0
 66
     1
 10
0
 20
0
 30
0.0
 70
     1
 40
0
 41
0
  0
VERTEX
  8
0
 10
2.48926
 20
2.63118
 30
0.0
 40
0
 41
0
  0
VERTEX
  8
0
 10
2.48926
 20
4.43815
 30
0.0
 40
0
 41
0
  0
VERTEX
  8
0
 10
2.10385
 20
4.43815
 30
0.0
 40
0
 41
0
  0
VERTEX
  8
0
 10
2.10385
 20
2.21192
 30
0.0
 40
0
 41
0
  0
VERTEX
  8
0
 10
2.48926
 20
2.63118
 30
0.0
 40
0
 41
0
  0
SEQEND
 8
0
  0
POLYLINE
  8
0
 62
     0
 66
     1
 10
0
 20
0
 30
0.0
 70
     1
 40
0.15
 41
0.15
  0
VERTEX
  8
0
 10
2.48926
 20
2.63118
 30
0.0
 40
0.00208333
 41
0.00208333
  0
VERTEX
  8
0
 10
2.48926
 20
4.43815
 30
0.0
 40
0.00208333
 41
0.00208333
  0
VERTEX
  8
0
 10
2.10385
 20
4.43815
 30
0.0
 40
0.00208333
 41
0.00208333
  0
VERTEX
  8
0
 10
2.10385
 20
2.21192
 30
0.0
 40
0.00208333
 41
0.00208333
  0
VERTEX
  8
0
 10
2.48926
 20
2.63118
 30
0.0
 40
0.00208333
 41
0.00208333
  0
SEQEND
 8
0
  0
POLYLINE
  8
0
 62
     7
 66
     1
 10
0
 20
0
 30
0.0
 70
     1
 40
0
 41
0
  0
VERTEX
  8
0
 10
2.10385
 20
4.01297
 30
0.0
 40
0
 41
0
  0
VERTEX
  8
0
 10
2.48926
 20
4.01297
 30
0.0
 40
0
 41
0
  0
VERTEX
  8
0
 10
2.48926
 20
3.36615
 30
0.0
 40
0
 41
0
  0
VERTEX
  8
0
 10
2.10385
 20
3.36615
 30
0.0
 40
0
 41
0
  0
VERTEX
  8
0
 10
2.10385
 20
4.01297
 30
0.0
 40
0
 41
0
  0
SEQEND
 8
0
  0
POLYLINE
  8
0
 62
     0
 66
     1
 10
0
 20
0
 30
0.0
 70
     1
 40
0.75
 41
0.75
  0
VERTEX
  8
0
 10
2.10385
 20
4.01297
 30
0.0
 40
0.0104167
 41
0.0104167
  0
VERTEX
  8
0
 10
2.48926
 20
4.01297
 30
0.0
 40
0.0104167
 41
0.0104167
  0
VERTEX
  8
0
 10
2.48926
 20
3.36615
 30
0.0
 40
0.0104167
 41
0.0104167
  0
VERTEX
  8
0
 10
2.10385
 20
3.36615
 30
0.0
 40
0.0104167
 41
0.0104167
  0
VERTEX
  8
0
 10
2.10385
 20
4.01297
 30
0.0
 40
0.0104167
 41
0.0104167
  0
SEQEND
 8
0
  0
POLYLINE
  8
0
 62
     7
 66
     1
 10
0
 20
0
 30
0.0
 70
     1
 40
0
 41
0
  0
VERTEX
  8
0
 10
2.10385
 20
4.01297
 30
0.0
 40
0
 41
0
  0
VERTEX
  8
0
 10
2.48926
 20
4.01297
 30
0.0
 40
0
 41
0
  0
VERTEX
  8
0
 10
2.48926
 20
3.36615
 30
0.0
 40
0
 41
0
  0
VERTEX
  8
0
 10
2.10385
 20
3.36615
 30
0.0
 40
0
 41
0
  0
VERTEX
  8
0
 10
2.10385
 20
4.01297
 30
0.0
 40
0
 41
0
  0
SEQEND
 8
0
  0
POLYLINE
  8
0
 62
     0
 66
     1
 10
0
 20
0
 30
0.0
 70
     1
 40
0.75
 41
0.75
  0
VERTEX
  8
0
 10
2.10385
 20
4.01297
 30
0.0
 40
0.0104167
 41
0.0104167
  0
VERTEX
  8
0
 10
2.48926
 20
4.01297
 30
0.0
 40
0.0104167
 41
0.0104167
  0
VERTEX
  8
0
 10
2.48926
 20
3.36615
 30
0.0
 40
0.0104167
 41
0.0104167
  0
VERTEX
  8
0
 10
2.10385
 20
3.36615
 30
0.0
 40
0.0104167
 41
0.0104167
  0
VERTEX
  8
0
 10
2.10385
 20
4.01297
 30
0.0
 40
0.0104167
 41
0.0104167
  0
SEQEND
 8
0
  0
POLYLINE
  8
0
 62
     0
 66
     1
 10
0
 20
0
 30
0.0
 40
0.75
 41
0.75
  0
VERTEX
  8
0
 10
2.2966
 20
3.44433
 30
0.0
 40
0.0104167
 41
0.0104167
  0
VERTEX
  8
0
 10
2.2966
 20
3.9349
 30
0.0
 40
0.0104167
 41
0.0104167
  0
SEQEND
 8
0
  0
POLYLINE
  8
0
 62
     0
 66
     1
 10
0
 20
0
 30
0.0
 40
0.75
 41
0.75
  0
VERTEX
  8
0
 10
2.48931
 20
3.44433
 30
0.0
 40
0.0104167
 41
0.0104167
  0
VERTEX
  8
0
 10
2.10389
 20
3.44433
 30
0.0
 40
0.0104167
 41
0.0104167
  0
SEQEND
 8
0
  0
POLYLINE
  8
0
 62
     0
 66
     1
 10
0
 20
0
 30
0.0
 40
0.75
 41
0.75
  0
VERTEX
  8
0
 10
2.48931
 20
3.9349
 30
0.0
 40
0.0104167
 41
0.0104167
  0
VERTEX
  8
0
 10
2.10389
 20
3.9349
 30
0.0
 40
0.0104167
 41
0.0104167
  0
SEQEND
 8
0
  0
POLYLINE
  8
0
 62
     0
 66
     1
 10
0
 20
0
 30
0.0
 70
     1
 40
0
 41
0
  0
VERTEX
  8
0
 10
2.10385
 20
5.46099
 30
0.0
 40
0
 41
0
  0
VERTEX
  8
0
 10
2.63021
 20
5.46099
 30
0.0
 40
0
 41
0
  0
VERTEX
  8
0
 10
2.63021
 20
4.43815
 30
0.0
 40
0
 41
0
  0
VERTEX
  8
0
 10
2.10385
 20
4.43815
 30
0.0
 40
0
 41
0
  0
VERTEX
  8
0
 10
2.10385
 20
5.46099
 30
0.0
 40
0
 41
0
  0
SEQEND
 8
0
  0
POLYLINE
  8
0
 62
     0
 66
     1
 10
0
 20
0
 30
0.0
 70
     1
 40
0.15
 41
0.15
  0
VERTEX
  8
0
 10
2.10385
 20
5.46099
 30
0.0
 40
0.00208333
 41
0.00208333
  0
VERTEX
  8
0
 10
2.63021
 20
5.46099
 30
0.0
 40
0.00208333
 41
0.00208333
  0
VERTEX
  8
0
 10
2.63021
 20
4.43815
 30
0.0
 40
0.00208333
 41
0.00208333
  0
VERTEX
  8
0
 10
2.10385
 20
4.43815
 30
0.0
 40
0.00208333
 41
0.00208333
  0
VERTEX
  8
0
 10
2.10385
 20
5.46099
 30
0.0
 40
0.00208333
 41
0.00208333
  0
SEQEND
 8
0
  0
POLYLINE
  8
0
 62
     0
 66
     1
 10
0
 20
0
 30
0.0
 70
     1
 40
0
 41
0
  0
VERTEX
  8
0
 10
2.26124
 20
6.50922
 30
0.0
 40
0
 41
0
  0
VERTEX
  8
0
 10
2.51617
 20
6.50922
 30
0.0
 40
0
 41
0
  0
VERTEX
  8
0
 10
2.51617
 20
5.46099
 30
0.0
 40
0
 41
0
  0
VERTEX
  8
0
 10
2.26124
 20
5.46099
 30
0.0
 40
0
 41
0
  0
VERTEX
  8
0
 10
2.26124
 20
6.50922
 30
0.0
 40
0
 41
0
  0
SEQEND
 8
0
  0
POLYLINE
  8
0
 62
     0
 66
     1
 10
0
 20
0
 30
0.0
 70
     1
 40
0.15
 41
0.15
  0
VERTEX
  8
0
 10
2.26124
 20
6.50922
 30
0.0
 40
0.00208333
 41
0.00208333
  0
VERTEX
  8
0
 10
2.51617
 20
6.50922
 30
0.0
 40
0.00208333
 41
0.00208333
  0
VERTEX
  8
0
 10
2.51617
 20
5.46099
 30
0.0
 40
0.00208333
 41
0.00208333
  0
VERTEX
  8
0
 10
2.26124
 20
5.46099
 30
0.0
 40
0.00208333
 41
0.00208333
  0
VERTEX
  8
0
 10
2.26124
 20
6.50922
 30
0.0
 40
0.00208333
 41
0.00208333
  0
SEQEND
 8
0
  0
POLYLINE
  8
0
 62
     7
 66
     1
 10
0
 20
0
 30
0.0
 70
     1
 40
0
 41
0
  0
VERTEX
  8
0
 10
2.26124
 20
6.42681
 30
0.0
 40
0
 41
0
  0
VERTEX
  8
0
 10
2.51617
 20
6.42681
 30
0.0
 40
0
 41
0
  0
VERTEX
  8
0
 10
2.51617
 20
5.53722
 30
0.0
 40
0
 41
0
  0
VERTEX
  8
0
 10
2.26124
 20
5.53722
 30
0.0
 40
0
 41
0
  0
VERTEX
  8
0
 10
2.26124
 20
6.42681
 30
0.0
 40
0
 41
0
  0
SEQEND
 8
0
  0
POLYLINE
  8
0
 62
     0
 66
     1
 10
0
 20
0
 30
0.0
 70
     1
 40
0.75
 41
0.75
  0
VERTEX
  8
0
 10
2.26124
 20
6.42681
 30
0.0
 40
0.0104167
 41
0.0104167
  0
VERTEX
  8
0
 10
2.51617
 20
6.42681
 30
0.0
 40
0.0104167
 41
0.0104167
  0
VERTEX
  8
0
 10
2.51617
 20
5.53722
 30
0.0
 40
0.0104167
 41
0.0104167
  0
VERTEX
  8
0
 10
2.26124
 20
5.53722
 30
0.0
 40
0.0104167
 41
0.0104167
  0
VERTEX
  8
0
 10
2.26124
 20
6.42681
 30
0.0
 40
0.0104167
 41
0.0104167
  0
SEQEND
 8
0
  0
POLYLINE
  8
0
 62
     7
 66
     1
 10
0
 20
0
 30
0.0
 70
     1
 40
0
 41
0
  0
VERTEX
  8
0
 10
2.26124
 20
6.42681
 30
0.0
 40
0
 41
0
  0
VERTEX
  8
0
 10
2.51617
 20
6.42681
 30
0.0
 40
0
 41
0
  0
VERTEX
  8
0
 10
2.51617
 20
5.53722
 30
0.0
 40
0
 41
0
  0
VERTEX
  8
0
 10
2.26124
 20
5.53722
 30
0.0
 40
0
 41
0
  0
VERTEX
  8
0
 10
2.26124
 20
6.42681
 30
0.0
 40
0
 41
0
  0
SEQEND
 8
0
  0
POLYLINE
  8
0
 62
     0
 66
     1
 10
0
 20
0
 30
0.0
 70
     1
 40
0.75
 41
0.75
  0
VERTEX
  8
0
 10
2.26124
 20
6.42681
 30
0.0
 40
0.0104167
 41
0.0104167
  0
VERTEX
  8
0
 10
2.51617
 20
6.42681
 30
0.0
 40
0.0104167
 41
0.0104167
  0
VERTEX
  8
0
 10
2.51617
 20
5.53722
 30
0.0
 40
0.0104167
 41
0.0104167
  0
VERTEX
  8
0
 10
2.26124
 20
5.53722
 30
0.0
 40
0.0104167
 41
0.0104167
  0
VERTEX
  8
0
 10
2.26124
 20
6.42681
 30
0.0
 40
0.0104167
 41
0.0104167
  0
SEQEND
 8
0
  0
POLYLINE
  8
0
 62
     0
 66
     1
 10
0
 20
0
 30
0.0
 70
     1
 40
0.75
 41
0.75
  0
VERTEX
  8
0
 10
2.26124
 20
6.42681
 30
0.0
 40
0.0104167
 41
0.0104167
  0
VERTEX
  8
0
 10
2.2091
 20
6.42681
 30
0.0
 40
0.0104167
 41
0.0104167
  0
VERTEX
  8
0
 10
2.05274
 20
6.41292
 30
0.0
 40
0.0104167
 41
0.0104167
  0
VERTEX
  8
0
 10
1.87207
 20
6.37125
 30
0.0
 40
0.0104167
 41
0.0104167
  0
VERTEX
  8
0
 10
1.71918
 20
6.30176
 30
0.0
 40
0.0104167
 41
0.0104167
  0
VERTEX
  8
0
 10
1.59407
 20
6.20449
 30
0.0
 40
0.0104167
 41
0.0104167
  0
VERTEX
  8
0
 10
1.49681
 20
6.07937
 30
0.0
 40
0.0104167
 41
0.0104167
  0
VERTEX
  8
0
 10
1.42731
 20
5.92649
 30
0.0
 40
0.0104167
 41
0.0104167
  0
VERTEX
  8
0
 10
1.38563
 20
5.74582
 30
0.0
 40
0.0104167
 41
0.0104167
  0
VERTEX
  8
0
 10
1.37174
 20
5.58946
 30
0.0
 40
0.0104167
 41
0.0104167
  0
VERTEX
  8
0
 10
1.37174
 20
5.53733
 30
0.0
 40
0.0104167
 41
0.0104167
  0
VERTEX
  8
0
 10
2.26124
 20
5.53733
 30
0.0
 40
0.0104167
 41
0.0104167
  0
VERTEX
  8
0
 10
2.26124
 20
6.42681
 30
0.0
 40
0.0104167
 41
0.0104167
  0
SEQEND
 8
0
  0
POLYLINE
  8
0
 62
     0
 66
     1
 10
0
 20
0
 30
0.0
 70
     1
 40
0
 41
0
  0
VERTEX
  8
0
 10
4.32656
 20
0.191081
 30
0.0
 40
0
 41
0
  0
VERTEX
  8
0
 10
4.47971
 20
0.191081
 30
0.0
 40
0
 41
0
  0
VERTEX
  8
0
 10
4.47971
 20
0.00960286
 30
0.0
 40
0
 41
0
  0
VERTEX
  8
0
 10
4.32656
 20
0.00960286
 30
0.0
 40
0
 41
0
  0
VERTEX
  8
0
 10
4.32656
 20
0.191081
 30
0.0
 40
0
 41
0
  0
SEQEND
 8
0
  0
POLYLINE
  8
0
 62
     0
 66
     1
 10
0
 20
0
 30
0.0
 70
     1
 40
0
 41
0
  0
VERTEX
  8
0
 10
6.17117
 20
0.191081
 30
0.0
 40
0
 41
0
  0
VERTEX
  8
0
 10
6.32428
 20
0.191081
 30
0.0
 40
0
 41
0
  0
VERTEX
  8
0
 10
6.32428
 20
0.00960286
 30
0.0
 40
0
 41
0
  0
VERTEX
  8
0
 10
6.17117
 20
0.00960286
 30
0.0
 40
0
 41
0
  0
VERTEX
  8
0
 10
6.17117
 20
0.191081
 30
0.0
 40
0
 41
0
  0
SEQEND
 8
0
  0
POLYLINE
  8
0
 62
     0
 66
     1
 10
0
 20
0
 30
0.0
 70
     1
 40
0
 41
0
  0
VERTEX
  8
0
 10
8.03228
 20
0.191081
 30
0.0
 40
0
 41
0
  0
VERTEX
  8
0
 10
8.18544
 20
0.191081
 30
0.0
 40
0
 41
0
  0
VERTEX
  8
0
 10
8.18544
 20
0.00960286
 30
0.0
 40
0
 41
0
  0
VERTEX
  8
0
 10
8.03228
 20
0.00960286
 30
0.0
 40
0
 41
0
  0
VERTEX
  8
0
 10
8.03228
 20
0.191081
 30
0.0
 40
0
 41
0
  0
SEQEND
 8
0
  0
POLYLINE
  8
0
 62
     0
 66
     1
 10
0
 20
0
 30
0.0
 70
     1
 40
0
 41
0
  0
VERTEX
  8
0
 10
10.0576
 20
0.145019
 30
0.0
 40
0
 41
0
  0
VERTEX
  8
0
 10
10.193
 20
0.145019
 30
0.0
 40
0
 41
0
  0
VERTEX
  8
0
 10
10.193
 20
0.00960286
 30
0.0
 40
0
 41
0
  0
VERTEX
  8
0
 10
10.0576
 20
0.00960286
 30
0.0
 40
0
 41
0
  0
VERTEX
  8
0
 10
10.0576
 20
0.145019
 30
0.0
 40
0
 41
0
  0
SEQEND
 8
0
  0
POLYLINE
  8
0
 62
     0
 66
     1
 10
0
 20
0
 30
0.0
 70
     1
 40
0
 41
0
  0
VERTEX
  8
0
 10
10.0226
 20
2.22939
 30
0.0
 40
0
 41
0
  0
VERTEX
  8
0
 10
10.193
 20
2.22939
 30
0.0
 40
0
 41
0
  0
VERTEX
  8
0
 10
10.193
 20
2.08826
 30
0.0
 40
0
 41
0
  0
VERTEX
  8
0
 10
10.0226
 20
2.08826
 30
0.0
 40
0
 41
0
  0
VERTEX
  8
0
 10
10.0226
 20
2.22939
 30
0.0
 40
0
 41
0
  0
SEQEND
 8
0
  0
POLYLINE
  8
0
 62
     0
 66
     1
 10
0
 20
0
 30
0.0
 70
     1
 40
0
 41
0
  0
VERTEX
  8
0
 10
2.14312
 20
0.191081
 30
0.0
 40
0
 41
0
  0
VERTEX
  8
0
 10
2.29622
 20
0.191081
 30
0.0
 40
0
 41
0
  0
VERTEX
  8
0
 10
2.29622
 20
0.00960286
 30
0.0
 40
0
 41
0
  0
VERTEX
  8
0
 10
2.14312
 20
0.00960286
 30
0.0
 40
0
 41
0
  0
VERTEX
  8
0
 10
2.14312
 20
0.191081
 30
0.0
 40
0
 41
0
  0
SEQEND
 8
0
  0
POLYLINE
  8
0
 62
     0
 66
     1
 10
0
 20
0
 30
0.0
 70
     1
 40
0
 41
0
  0
VERTEX
  8
0
 10
0.717285
 20
0.145019
 30
0.0
 40
0
 41
0
  0
VERTEX
  8
0
 10
0.852701
 20
0.145019
 30
0.0
 40
0
 41
0
  0
VERTEX
  8
0
 10
0.852701
 20
0.00960286
 30
0.0
 40
0
 41
0
  0
VERTEX
  8
0
 10
0.717285
 20
0.00960286
 30
0.0
 40
0
 41
0
  0
VERTEX
  8
0
 10
0.717285
 20
0.145019
 30
0.0
 40
0
 41
0
  0
SEQEND
 8
0
  0
POLYLINE
  8
0
 62
     0
 66
     1
 10
0
 20
0
 30
0.0
 70
     1
 40
0
 41
0
  0
VERTEX
  8
0
 10
0.717285
 20
2.57514
 30
0.0
 40
0
 41
0
  0
VERTEX
  8
0
 10
0.885851
 20
2.57514
 30
0.0
 40
0
 41
0
  0
VERTEX
  8
0
 10
0.885851
 20
2.4471
 30
0.0
 40
0
 41
0
  0
VERTEX
  8
0
 10
0.717285
 20
2.4471
 30
0.0
 40
0
 41
0
  0
VERTEX
  8
0
 10
0.717285
 20
2.57514
 30
0.0
 40
0
 41
0
  0
SEQEND
 8
0
  0
POLYLINE
  8
0
 62
     0
 66
     1
 10
0
 20
0
 30
0.0
 70
     1
 40
0
 41
0
  0
VERTEX
  8
0
 10
0.717285
 20
4.80263
 30
0.0
 40
0
 41
0
  0
VERTEX
  8
0
 10
0.885851
 20
4.80263
 30
0.0
 40
0
 41
0
  0
VERTEX
  8
0
 10
0.885851
 20
4.67464
 30
0.0
 40
0
 41
0
  0
VERTEX
  8
0
 10
0.717285
 20
4.67464
 30
0.0
 40
0
 41
0
  0
VERTEX
  8
0
 10
0.717285
 20
4.80263
 30
0.0
 40
0
 41
0
  0
SEQEND
 8
0
  0
POLYLINE
  8
0
 62
     0
 66
     1
 10
0
 20
0
 30
0.0
 70
     1
 40
0
 41
0
  0
VERTEX
  8
0
 10
1.98904
 20
7.27599
 30
0.0
 40
0
 41
0
  0
VERTEX
  8
0
 10
2.10385
 20
7.27599
 30
0.0
 40
0
 41
0
  0
VERTEX
  8
0
 10
2.10385
 20
7.11214
 30
0.0
 40
0
 41
0
  0
VERTEX
  8
0
 10
1.98904
 20
7.11214
 30
0.0
 40
0
 41
0
  0
VERTEX
  8
0
 10
1.98904
 20
7.27599
 30
0.0
 40
0
 41
0
  0
SEQEND
 8
0
  0
POLYLINE
  8
0
 62
     0
 66
     1
 10
0
 20
0
 30
0.0
 70
     1
 40
0
 41
0
  0
VERTEX
  8
0
 10
0.717285
 20
7.27599
 30
0.0
 40
0
 41
0
  0
VERTEX
  8
0
 10
0.852701
 20
7.27599
 30
0.0
 40
0
 41
0
  0
VERTEX
  8
0
 10
0.852701
 20
7.14057
 30
0.0
 40
0
 41
0
  0
VERTEX
  8
0
 10
0.717285
 20
7.14057
 30
0.0
 40
0
 41
0
  0
VERTEX
  8
0
 10
0.717285
 20
7.27599
 30
0.0
 40
0
 41
0
  0
SEQEND
 8
0
  0
POLYLINE
  8
0
 62
     7
 66
     1
 10
0
 20
0
 30
0.0
 70
     1
 40
0
 41
0
  0
VERTEX
  8
0
 10
2.50965
 20
9.46767
 30
0.0
 40
0
 41
0
  0
VERTEX
  8
0
 10
4.31651
 20
9.46767
 30
0.0
 40
0
 41
0
  0
VERTEX
  8
0
 10
4.31651
 20
8.87864
 30
0.0
 40
0
 41
0
  0
VERTEX
  8
0
 10
2.50965
 20
8.87864
 30
0.0
 40
0
 41
0
  0
VERTEX
  8
0
 10
2.50965
 20
9.46767
 30
0.0
 40
0
 41
0
  0
SEQEND
 8
0
  0
POLYLINE
  8
0
 62
     0
 66
     1
 10
0
 20
0
 30
0.0
 70
     1
 40
0.75
 41
0.75
  0
VERTEX
  8
0
 10
2.50965
 20
9.46767
 30
0.0
 40
0.0104167
 41
0.0104167
  0
VERTEX
  8
0
 10
4.31651
 20
9.46767
 30
0.0
 40
0.0104167
 41
0.0104167
  0
VERTEX
  8
0
 10
4.31651
 20
8.87864
 30
0.0
 40
0.0104167
 41
0.0104167
  0
VERTEX
  8
0
 10
2.50965
 20
8.87864
 30
0.0
 40
0.0104167
 41
0.0104167
  0
VERTEX
  8
0
 10
2.50965
 20
9.46767
 30
0.0
 40
0.0104167
 41
0.0104167
  0
SEQEND
 8
0
  0
POLYLINE
  8
0
 62
     253
 66
     1
 10
0
 20
0
 30
0.0
 40
0.375
 41
0.375
  0
VERTEX
  8
0
 10
2.50965
 20
9.42844
 30
0.0
 40
0.00520833
 41
0.00520833
  0
VERTEX
  8
0
 10
4.31657
 20
9.42844
 30
0.0
 40
0.00520833
 41
0.00520833
  0
SEQEND
 8
0
  0
POLYLINE
  8
0
 62
     253
 66
     1
 10
0
 20
0
 30
0.0
 40
0.375
 41
0.375
  0
VERTEX
  8
0
 10
2.50965
 20
9.38917
 30
0.0
 40
0.00520833
 41
0.00520833
  0
VERTEX
  8
0
 10
4.31657
 20
9.38917
 30
0.0
 40
0.00520833
 41
0.00520833
  0
SEQEND
 8
0
  0
POLYLINE
  8
0
 62
     253
 66
     1
 10
0
 20
0
 30
0.0
 40
0.375
 41
0.375
  0
VERTEX
  8
0
 10
2.50965
 20
9.34987
 30
0.0
 40
0.00520833
 41
0.00520833
  0
VERTEX
  8
0
 10
4.31657
 20
9.34987
 30
0.0
 40
0.00520833
 41
0.00520833
  0
SEQEND
 8
0
  0
POLYLINE
  8
0
 62
     253
 66
     1
 10
0
 20
0
 30
0.0
 40
0.375
 41
0.375
  0
VERTEX
  8
0
 10
2.50965
 20
9.3106
 30
0.0
 40
0.00520833
 41
0.00520833
  0
VERTEX
  8
0
 10
4.31657
 20
9.3106
 30
0.0
 40
0.00520833
 41
0.00520833
  0
SEQEND
 8
0
  0
POLYLINE
  8
0
 62
     253
 66
     1
 10
0
 20
0
 30
0.0
 40
0.375
 41
0.375
  0
VERTEX
  8
0
 10
2.50965
 20
9.27132
 30
0.0
 40
0.00520833
 41
0.00520833
  0
VERTEX
  8
0
 10
4.31657
 20
9.27132
 30
0.0
 40
0.00520833
 41
0.00520833
  0
SEQEND
 8
0
  0
POLYLINE
  8
0
 62
     253
 66
     1
 10
0
 20
0
 30
0.0
 40
0.375
 41
0.375
  0
VERTEX
  8
0
 10
2.50965
 20
9.23204
 30
0.0
 40
0.00520833
 41
0.00520833
  0
VERTEX
  8
0
 10
4.31657
 20
9.23204
 30
0.0
 40
0.00520833
 41
0.00520833
  0
SEQEND
 8
0
  0
POLYLINE
  8
0
 62
     253
 66
     1
 10
0
 20
0
 30
0.0
 40
0.375
 41
0.375
  0
VERTEX
  8
0
 10
2.50965
 20
9.19282
 30
0.0
 40
0.00520833
 41
0.00520833
  0
VERTEX
  8
0
 10
4.31657
 20
9.19282
 30
0.0
 40
0.00520833
 41
0.00520833
  0
SEQEND
 8
0
  0
POLYLINE
  8
0
 62
     253
 66
     1
 10
0
 20
0
 30
0.0
 40
0.375
 41
0.375
  0
VERTEX
  8
0
 10
2.50965
 20
9.15354
 30
0.0
 40
0.00520833
 41
0.00520833
  0
VERTEX
  8
0
 10
4.31657
 20
9.15354
 30
0.0
 40
0.00520833
 41
0.00520833
  0
SEQEND
 8
0
  0
POLYLINE
  8
0
 62
     253
 66
     1
 10
0
 20
0
 30
0.0
 40
0.375
 41
0.375
  0
VERTEX
  8
0
 10
2.50965
 20
9.11426
 30
0.0
 40
0.00520833
 41
0.00520833
  0
VERTEX
  8
0
 10
4.31657
 20
9.11426
 30
0.0
 40
0.00520833
 41
0.00520833
  0
SEQEND
 8
0
  0
POLYLINE
  8
0
 62
     253
 66
     1
 10
0
 20
0
 30
0.0
 40
0.375
 41
0.375
  0
VERTEX
  8
0
 10
2.50965
 20
9.07497
 30
0.0
 40
0.00520833
 41
0.00520833
  0
VERTEX
  8
0
 10
4.31657
 20
9.07497
 30
0.0
 40
0.00520833
 41
0.00520833
  0
SEQEND
 8
0
  0
POLYLINE
  8
0
 62
     253
 66
     1
 10
0
 20
0
 30
0.0
 40
0.375
 41
0.375
  0
VERTEX
  8
0
 10
2.50965
 20
9.03569
 30
0.0
 40
0.00520833
 41
0.00520833
  0
VERTEX
  8
0
 10
4.31657
 20
9.03569
 30
0.0
 40
0.00520833
 41
0.00520833
  0
SEQEND
 8
0
  0
POLYLINE
  8
0
 62
     253
 66
     1
 10
0
 20
0
 30
0.0
 40
0.375
 41
0.375
  0
VERTEX
  8
0
 10
2.50965
 20
8.99642
 30
0.0
 40
0.00520833
 41
0.00520833
  0
VERTEX
  8
0
 10
4.31657
 20
8.99642
 30
0.0
 40
0.00520833
 41
0.00520833
  0
SEQEND
 8
0
  0
POLYLINE
  8
0
 62
     253
 66
     1
 10
0
 20
0
 30
0.0
 40
0.375
 41
0.375
  0
VERTEX
  8
0
 10
2.50965
 20
8.95719
 30
0.0
 40
0.00520833
 41
0.00520833
  0
VERTEX
  8
0
 10
4.31657
 20
8.95719
 30
0.0
 40
0.00520833
 41
0.00520833
  0
SEQEND
 8
0
  0
POLYLINE
  8
0
 62
     253
 66
     1
 10
0
 20
0
 30
0.0
 40
0.375
 41
0.375
  0
VERTEX
  8
0
 10
2.50965
 20
8.91792
 30
0.0
 40
0.00520833
 41
0.00520833
  0
VERTEX
  8
0
 10
4.31657
 20
8.91792
 30
0.0
 40
0.00520833
 41
0.00520833
  0
SEQEND
 8
0
  0
POLYLINE
  8
0
 62
     7
 66
     1
 10
0
 20
0
 30
0.0
 70
     1
 40
0
 41
0
  0
VERTEX
  8
0
 10
2.50965
 20
8.87847
 30
0.0
 40
0
 41
0
  0
VERTEX
  8
0
 10
4.31597
 20
8.87847
 30
0.0
 40
0
 41
0
  0
VERTEX
  8
0
 10
4.31597
 20
8.4216
 30
0.0
 40
0
 41
0
  0
VERTEX
  8
0
 10
2.50965
 20
8.4216
 30
0.0
 40
0
 41
0
  0
VERTEX
  8
0
 10
2.50965
 20
8.87847
 30
0.0
 40
0
 41
0
  0
SEQEND
 8
0
  0
POLYLINE
  8
0
 62
     0
 66
     1
 10
0
 20
0
 30
0.0
 70
     1
 40
0.75
 41
0.75
  0
VERTEX
  8
0
 10
2.50965
 20
8.87847
 30
0.0
 40
0.0104167
 41
0.0104167
  0
VERTEX
  8
0
 10
4.31597
 20
8.87847
 30
0.0
 40
0.0104167
 41
0.0104167
  0
VERTEX
  8
0
 10
4.31597
 20
8.4216
 30
0.0
 40
0.0104167
 41
0.0104167
  0
VERTEX
  8
0
 10
2.50965
 20
8.4216
 30
0.0
 40
0.0104167
 41
0.0104167
  0
VERTEX
  8
0
 10
2.50965
 20
8.87847
 30
0.0
 40
0.0104167
 41
0.0104167
  0
SEQEND
 8
0
  0
POLYLINE
  8
0
 62
     253
 66
     1
 10
0
 20
0
 30
0.0
 40
0.375
 41
0.375
  0
VERTEX
  8
0
 10
2.50965
 20
8.83279
 30
0.0
 40
0.00520833
 41
0.00520833
  0
VERTEX
  8
0
 10
4.31603
 20
8.83279
 30
0.0
 40
0.00520833
 41
0.00520833
  0
SEQEND
 8
0
  0
POLYLINE
  8
0
 62
     253
 66
     1
 10
0
 20
0
 30
0.0
 40
0.375
 41
0.375
  0
VERTEX
  8
0
 10
2.50965
 20
8.78711
 30
0.0
 40
0.00520833
 41
0.00520833
  0
VERTEX
  8
0
 10
4.31603
 20
8.78711
 30
0.0
 40
0.00520833
 41
0.00520833
  0
SEQEND
 8
0
  0
POLYLINE
  8
0
 62
     253
 66
     1
 10
0
 20
0
 30
0.0
 40
0.375
 41
0.375
  0
VERTEX
  8
0
 10
2.50965
 20
8.74143
 30
0.0
 40
0.00520833
 41
0.00520833
  0
VERTEX
  8
0
 10
4.31603
 20
8.74143
 30
0.0
 40
0.00520833
 41
0.00520833
  0
SEQEND
 8
0
  0
POLYLINE
  8
0
 62
     253
 66
     1
 10
0
 20
0
 30
0.0
 40
0.375
 41
0.375
  0
VERTEX
  8
0
 10
2.50965
 20
8.69569
 30
0.0
 40
0.00520833
 41
0.00520833
  0
VERTEX
  8
0
 10
4.31603
 20
8.69569
 30
0.0
 40
0.00520833
 41
0.00520833
  0
SEQEND
 8
0
  0
POLYLINE
  8
0
 62
     253
 66
     1
 10
0
 20
0
 30
0.0
 40
0.375
 41
0.375
  0
VERTEX
  8
0
 10
2.50965
 20
8.65001
 30
0.0
 40
0.00520833
 41
0.00520833
  0
VERTEX
  8
0
 10
4.31603
 20
8.65001
 30
0.0
 40
0.00520833
 41
0.00520833
  0
SEQEND
 8
0
  0
POLYLINE
  8
0
 62
     253
 66
     1
 10
0
 20
0
 30
0.0
 40
0.375
 41
0.375
  0
VERTEX
  8
0
 10
2.50965
 20
8.60433
 30
0.0
 40
0.00520833
 41
0.00520833
  0
VERTEX
  8
0
 10
4.31603
 20
8.60433
 30
0.0
 40
0.00520833
 41
0.00520833
  0
SEQEND
 8
0
  0
POLYLINE
  8
0
 62
     253
 66
     1
 10
0
 20
0
 30
0.0
 40
0.375
 41
0.375
  0
VERTEX
  8
0
 10
2.50965
 20
8.55865
 30
0.0
 40
0.00520833
 41
0.00520833
  0
VERTEX
  8
0
 10
4.31603
 20
8.55865
 30
0.0
 40
0.00520833
 41
0.00520833
  0
SEQEND
 8
0
  0
POLYLINE
  8
0
 62
     253
 66
     1
 10
0
 20
0
 30
0.0
 40
0.375
 41
0.375
  0
VERTEX
  8
0
 10
2.50965
 20
8.51297
 30
0.0
 40
0.00520833
 41
0.00520833
  0
VERTEX
  8
0
 10
4.31603
 20
8.51297
 30
0.0
 40
0.00520833
 41
0.00520833
  0
SEQEND
 8
0
  0
POLYLINE
  8
0
 62
     253
 66
     1
 10
0
 20
0
 30
0.0
 40
0.375
 41
0.375
  0
VERTEX
  8
0
 10
2.50965
 20
8.46729
 30
0.0
 40
0.00520833
 41
0.00520833
  0
VERTEX
  8
0
 10
4.31603
 20
8.46729
 30
0.0
 40
0.00520833
 41
0.00520833
  0
SEQEND
 8
0
  0
POLYLINE
  8
0
 62
     7
 66
     1
 10
0
 20
0
 30
0.0
 70
     1
 40
0
 41
0
  0
VERTEX
  8
0
 10
2.50965
 20
8.42144
 30
0.0
 40
0
 41
0
  0
VERTEX
  8
0
 10
3.3189
 20
8.42144
 30
0.0
 40
0
 41
0
  0
VERTEX
  8
0
 10
3.3189
 20
8.12321
 30
0.0
 40
0
 41
0
  0
VERTEX
  8
0
 10
2.50965
 20
8.12321
 30
0.0
 40
0
 41
0
  0
VERTEX
  8
0
 10
2.50965
 20
8.42144
 30
0.0
 40
0
 41
0
  0
SEQEND
 8
0
  0
POLYLINE
  8
0
 62
     0
 66
     1
 10
0
 20
0
 30
0.0
 70
     1
 40
0.75
 41
0.75
  0
VERTEX
  8
0
 10
2.50965
 20
8.42144
 30
0.0
 40
0.0104167
 41
0.0104167
  0
VERTEX
  8
0
 10
3.3189
 20
8.42144
 30
0.0
 40
0.0104167
 41
0.0104167
  0
VERTEX
  8
0
 10
3.3189
 20
8.12321
 30
0.0
 40
0.0104167
 41
0.0104167
  0
VERTEX
  8
0
 10
2.50965
 20
8.12321
 30
0.0
 40
0.0104167
 41
0.0104167
  0
VERTEX
  8
0
 10
2.50965
 20
8.42144
 30
0.0
 40
0.0104167
 41
0.0104167
  0
SEQEND
 8
0
  0
POLYLINE
  8
0
 62
     253
 66
     1
 10
0
 20
0
 30
0.0
 40
0.375
 41
0.375
  0
VERTEX
  8
0
 10
2.50965
 20
8.3916
 30
0.0
 40
0.00520833
 41
0.00520833
  0
VERTEX
  8
0
 10
3.31896
 20
8.3916
 30
0.0
 40
0.00520833
 41
0.00520833
  0
SEQEND
 8
0
  0
POLYLINE
  8
0
 62
     253
 66
     1
 10
0
 20
0
 30
0.0
 40
0.375
 41
0.375
  0
VERTEX
  8
0
 10
2.50965
 20
8.36176
 30
0.0
 40
0.00520833
 41
0.00520833
  0
VERTEX
  8
0
 10
3.31896
 20
8.36176
 30
0.0
 40
0.00520833
 41
0.00520833
  0
SEQEND
 8
0
  0
POLYLINE
  8
0
 62
     253
 66
     1
 10
0
 20
0
 30
0.0
 40
0.375
 41
0.375
  0
VERTEX
  8
0
 10
2.50965
 20
8.33192
 30
0.0
 40
0.00520833
 41
0.00520833
  0
VERTEX
  8
0
 10
3.31896
 20
8.33192
 30
0.0
 40
0.00520833
 41
0.00520833
  0
SEQEND
 8
0
  0
POLYLINE
  8
0
 62
     253
 66
     1
 10
0
 20
0
 30
0.0
 40
0.375
 41
0.375
  0
VERTEX
  8
0
 10
2.50965
 20
8.30214
 30
0.0
 40
0.00520833
 41
0.00520833
  0
VERTEX
  8
0
 10
3.31896
 20
8.30214
 30
0.0
 40
0.00520833
 41
0.00520833
  0
SEQEND
 8
0
  0
POLYLINE
  8
0
 62
     253
 66
     1
 10
0
 20
0
 30
0.0
 40
0.375
 41
0.375
  0
VERTEX
  8
0
 10
2.50965
 20
8.27229
 30
0.0
 40
0.00520833
 41
0.00520833
  0
VERTEX
  8
0
 10
3.31896
 20
8.27229
 30
0.0
 40
0.00520833
 41
0.00520833
  0
SEQEND
 8
0
  0
POLYLINE
  8
0
 62
     253
 66
     1
 10
0
 20
0
 30
0.0
 40
0.375
 41
0.375
  0
VERTEX
  8
0
 10
2.50965
 20
8.24246
 30
0.0
 40
0.00520833
 41
0.00520833
  0
VERTEX
  8
0
 10
3.31896
 20
8.24246
 30
0.0
 40
0.00520833
 41
0.00520833
  0
SEQEND
 8
0
  0
POLYLINE
  8
0
 62
     253
 66
     1
 10
0
 20
0
 30
0.0
 40
0.375
 41
0.375
  0
VERTEX
  8
0
 10
2.50965
 20
8.21268
 30
0.0
 40
0.00520833
 41
0.00520833
  0
VERTEX
  8
0
 10
3.31896
 20
8.21268
 30
0.0
 40
0.00520833
 41
0.00520833
  0
SEQEND
 8
0
  0
POLYLINE
  8
0
 62
     253
 66
     1
 10
0
 20
0
 30
0.0
 40
0.375
 41
0.375
  0
VERTEX
  8
0
 10
2.50965
 20
8.18283
 30
0.0
 40
0.00520833
 41
0.00520833
  0
VERTEX
  8
0
 10
3.31896
 20
8.18283
 30
0.0
 40
0.00520833
 41
0.00520833
  0
SEQEND
 8
0
  0
POLYLINE
  8
0
 62
     253
 66
     1
 10
0
 20
0
 30
0.0
 40
0.375
 41
0.375
  0
VERTEX
  8
0
 10
2.50965
 20
8.153
 30
0.0
 40
0.00520833
 41
0.00520833
  0
VERTEX
  8
0
 10
3.31896
 20
8.153
 30
0.0
 40
0.00520833
 41
0.00520833
  0
SEQEND
 8
0
  0
POLYLINE
  8
0
 62
     7
 66
     1
 10
0
 20
0
 30
0.0
 70
     1
 40
0
 41
0
  0
VERTEX
  8
0
 10
3.9165
 20
7.98899
 30
0.0
 40
0
 41
0
  0
VERTEX
  8
0
 10
4.35818
 20
7.98899
 30
0.0
 40
0
 41
0
  0
VERTEX
  8
0
 10
4.35818
 20
7.54872
 30
0.0
 40
0
 41
0
  0
VERTEX
  8
0
 10
3.9165
 20
7.54872
 30
0.0
 40
0
 41
0
  0
VERTEX
  8
0
 10
3.9165
 20
7.98899
 30
0.0
 40
0
 41
0
  0
SEQEND
 8
0
  0
POLYLINE
  8
0
 62
     0
 66
     1
 10
0
 20
0
 30
0.0
 70
     1
 40
0.530025
 41
0.530025
  0
VERTEX
  8
0
 10
3.9165
 20
7.98899
 30
0.0
 40
0.00736146
 41
0.00736146
  0
VERTEX
  8
0
 10
4.35818
 20
7.98899
 30
0.0
 40
0.00736146
 41
0.00736146
  0
VERTEX
  8
0
 10
4.35818
 20
7.54872
 30
0.0
 40
0.00736146
 41
0.00736146
  0
VERTEX
  8
0
 10
3.9165
 20
7.54872
 30
0.0
 40
0.00736146
 41
0.00736146
  0
VERTEX
  8
0
 10
3.9165
 20
7.98899
 30
0.0
 40
0.00736146
 41
0.00736146
  0
SEQEND
 8
0
  0
POLYLINE
  8
0
 62
     0
 66
     1
 10
0
 20
0
 30
0.0
 40
0.530025
 41
0.530025
  0
VERTEX
  8
0
 10
4.35818
 20
7.98899
 30
0.0
 40
0.00736146
 41
0.00736146
  0
VERTEX
  8
0
 10
4.06592
 20
7.76882
 30
0.0
 40
0.00736146
 41
0.00736146
  0
VERTEX
  8
0
 10
4.20063
 20
7.76882
 30
0.0
 40
0.00736146
 41
0.00736146
  0
VERTEX
  8
0
 10
3.9165
 20
7.54872
 30
0.0
 40
0.00736146
 41
0.00736146
  0
SEQEND
 8
0
  0
POLYLINE
  8
0
 62
     7
 66
     1
 10
0
 20
0
 30
0.0
 70
     1
 40
0
 41
0
  0
VERTEX
  8
0
 10
4.54601
 20
7.36919
 30
0.0
 40
0
 41
0
  0
VERTEX
  8
0
 10
5.00657
 20
7.36919
 30
0.0
 40
0
 41
0
  0
VERTEX
  8
0
 10
5.00657
 20
6.96457
 30
0.0
 40
0
 41
0
  0
VERTEX
  8
0
 10
4.54601
 20
6.96457
 30
0.0
 40
0
 41
0
  0
VERTEX
  8
0
 10
4.54601
 20
7.36919
 30
0.0
 40
0
 41
0
  0
SEQEND
 8
0
  0
POLYLINE
  8
0
 62
     0
 66
     1
 10
0
 20
0
 30
0.0
 70
     1
 40
0.5826
 41
0.5826
  0
VERTEX
  8
0
 10
4.54601
 20
7.36919
 30
0.0
 40
0.00809167
 41
0.00809167
  0
VERTEX
  8
0
 10
4.54601
 20
6.96457
 30
0.0
 40
0.00809167
 41
0.00809167
  0
VERTEX
  8
0
 10
5.00657
 20
6.96457
 30
0.0
 40
0.00809167
 41
0.00809167
  0
VERTEX
  8
0
 10
5.00657
 20
7.36919
 30
0.0
 40
0.00809167
 41
0.00809167
  0
VERTEX
  8
0
 10
4.54601
 20
7.36919
 30
0.0
 40
0.00809167
 41
0.00809167
  0
SEQEND
 8
0
  0
POLYLINE
  8
0
 62
     7
 66
     1
 10
0
 20
0
 30
0.0
 70
     1
 40
0
 41
0
  0
VERTEX
  8
0
 10
4.77626
 20
7.26801
 30
0.0
 40
0
 41
0
  0
VERTEX
  8
0
 10
4.78743
 20
7.26801
 30
0.0
 40
0
 41
0
  0
VERTEX
  8
0
 10
4.82107
 20
7.2601
 30
0.0
 40
0
 41
0
  0
VERTEX
  8
0
 10
4.85764
 20
7.23844
 30
0.0
 40
0
 41
0
  0
VERTEX
  8
0
 10
4.88232
 20
7.20628
 30
0.0
 40
0
 41
0
  0
VERTEX
  8
0
 10
4.89139
 20
7.17676
 30
0.0
 40
0
 41
0
  0
VERTEX
  8
0
 10
4.89139
 20
7.16689
 30
0.0
 40
0
 41
0
  0
VERTEX
  8
0
 10
4.89139
 20
7.15707
 30
0.0
 40
0
 41
0
  0
VERTEX
  8
0
 10
4.88232
 20
7.12756
 30
0.0
 40
0
 41
0
  0
VERTEX
  8
0
 10
4.85764
 20
7.09538
 30
0.0
 40
0
 41
0
  0
VERTEX
  8
0
 10
4.82107
 20
7.07374
 30
0.0
 40
0
 41
0
  0
VERTEX
  8
0
 10
4.78743
 20
7.06575
 30
0.0
 40
0
 41
0
  0
VERTEX
  8
0
 10
4.77626
 20
7.06575
 30
0.0
 40
0
 41
0
  0
VERTEX
  8
0
 10
4.76503
 20
7.06575
 30
0.0
 40
0
 41
0
  0
VERTEX
  8
0
 10
4.73144
 20
7.07374
 30
0.0
 40
0
 41
0
  0
VERTEX
  8
0
 10
4.69482
 20
7.09538
 30
0.0
 40
0
 41
0
  0
VERTEX
  8
0
 10
4.67014
 20
7.12756
 30
0.0
 40
0
 41
0
  0
VERTEX
  8
0
 10
4.66114
 20
7.15707
 30
0.0
 40
0
 41
0
  0
VERTEX
  8
0
 10
4.66114
 20
7.16689
 30
0.0
 40
0
 41
0
  0
VERTEX
  8
0
 10
4.66114
 20
7.17676
 30
0.0
 40
0
 41
0
  0
VERTEX
  8
0
 10
4.67014
 20
7.20628
 30
0.0
 40
0
 41
0
  0
VERTEX
  8
0
 10
4.69482
 20
7.23844
 30
0.0
 40
0
 41
0
  0
VERTEX
  8
0
 10
4.73144
 20
7.2601
 30
0.0
 40
0
 41
0
  0
VERTEX
  8
0
 10
4.76503
 20
7.26801
 30
0.0
 40
0
 41
0
  0
VERTEX
  8
0
 10
4.77626
 20
7.26801
 30
0.0
 40
0
 41
0
  0
SEQEND
 8
0
  0
POLYLINE
  8
0
 62
     0
 66
     1
 10
0
 20
0
 30
0.0
 70
     1
 40
0.5826
 41
0.5826
  0
VERTEX
  8
0
 10
4.77626
 20
7.26801
 30
0.0
 40
0.00809167
 41
0.00809167
  0
VERTEX
  8
0
 10
4.78743
 20
7.26801
 30
0.0
 40
0.00809167
 41
0.00809167
  0
VERTEX
  8
0
 10
4.82107
 20
7.2601
 30
0.0
 40
0.00809167
 41
0.00809167
  0
VERTEX
  8
0
 10
4.85764
 20
7.23844
 30
0.0
 40
0.00809167
 41
0.00809167
  0
VERTEX
  8
0
 10
4.88232
 20
7.20628
 30
0.0
 40
0.00809167
 41
0.00809167
  0
VERTEX
  8
0
 10
4.89139
 20
7.17676
 30
0.0
 40
0.00809167
 41
0.00809167
  0
VERTEX
  8
0
 10
4.89139
 20
7.16689
 30
0.0
 40
0.00809167
 41
0.00809167
  0
VERTEX
  8
0
 10
4.89139
 20
7.15707
 30
0.0
 40
0.00809167
 41
0.00809167
  0
VERTEX
  8
0
 10
4.88232
 20
7.12756
 30
0.0
 40
0.00809167
 41
0.00809167
  0
VERTEX
  8
0
 10
4.85764
 20
7.09538
 30
0.0
 40
0.00809167
 41
0.00809167
  0
VERTEX
  8
0
 10
4.82107
 20
7.07374
 30
0.0
 40
0.00809167
 41
0.00809167
  0
VERTEX
  8
0
 10
4.78743
 20
7.06575
 30
0.0
 40
0.00809167
 41
0.00809167
  0
VERTEX
  8
0
 10
4.77626
 20
7.06575
 30
0.0
 40
0.00809167
 41
0.00809167
  0
VERTEX
  8
0
 10
4.76503
 20
7.06575
 30
0.0
 40
0.00809167
 41
0.00809167
  0
VERTEX
  8
0
 10
4.73144
 20
7.07374
 30
0.0
 40
0.00809167
 41
0.00809167
  0
VERTEX
  8
0
 10
4.69482
 20
7.09538
 30
0.0
 40
0.00809167
 41
0.00809167
  0
VERTEX
  8
0
 10
4.67014
 20
7.12756
 30
0.0
 40
0.00809167
 41
0.00809167
  0
VERTEX
  8
0
 10
4.66114
 20
7.15707
 30
0.0
 40
0.00809167
 41
0.00809167
  0
VERTEX
  8
0
 10
4.66114
 20
7.16689
 30
0.0
 40
0.00809167
 41
0.00809167
  0
VERTEX
  8
0
 10
4.66114
 20
7.17676
 30
0.0
 40
0.00809167
 41
0.00809167
  0
VERTEX
  8
0
 10
4.67014
 20
7.20628
 30
0.0
 40
0.00809167
 41
0.00809167
  0
VERTEX
  8
0
 10
4.69482
 20
7.23844
 30
0.0
 40
0.00809167
 41
0.00809167
  0
VERTEX
  8
0
 10
4.73144
 20
7.2601
 30
0.0
 40
0.00809167
 41
0.00809167
  0
VERTEX
  8
0
 10
4.76503
 20
7.26801
 30
0.0
 40
0.00809167
 41
0.00809167
  0
VERTEX
  8
0
 10
4.77626
 20
7.26801
 30
0.0
 40
0.00809167
 41
0.00809167
  0
SEQEND
 8
0
  0
POLYLINE
  8
0
 62
     7
 66
     1
 10
0
 20
0
 30
0.0
 70
     1
 40
0
 41
0
  0
VERTEX
  8
0
 10
4.54601
 20
7.77376
 30
0.0
 40
0
 41
0
  0
VERTEX
  8
0
 10
5.00657
 20
7.77376
 30
0.0
 40
0
 41
0
  0
VERTEX
  8
0
 10
5.00657
 20
7.36919
 30
0.0
 40
0
 41
0
  0
VERTEX
  8
0
 10
4.54601
 20
7.36919
 30
0.0
 40
0
 41
0
  0
VERTEX
  8
0
 10
4.54601
 20
7.77376
 30
0.0
 40
0
 41
0
  0
SEQEND
 8
0
  0
POLYLINE
  8
0
 62
     0
 66
     1
 10
0
 20
0
 30
0.0
 70
     1
 40
0.5826
 41
0.5826
  0
VERTEX
  8
0
 10
4.54601
 20
7.77376
 30
0.0
 40
0.00809167
 41
0.00809167
  0
VERTEX
  8
0
 10
4.54601
 20
7.36919
 30
0.0
 40
0.00809167
 41
0.00809167
  0
VERTEX
  8
0
 10
5.00657
 20
7.36919
 30
0.0
 40
0.00809167
 41
0.00809167
  0
VERTEX
  8
0
 10
5.00657
 20
7.77376
 30
0.0
 40
0.00809167
 41
0.00809167
  0
VERTEX
  8
0
 10
4.54601
 20
7.77376
 30
0.0
 40
0.00809167
 41
0.00809167
  0
SEQEND
 8
0
  0
POLYLINE
  8
0
 62
     7
 66
     1
 10
0
 20
0
 30
0.0
 70
     1
 40
0
 41
0
  0
VERTEX
  8
0
 10
4.77626
 20
7.67264
 30
0.0
 40
0
 41
0
  0
VERTEX
  8
0
 10
4.78743
 20
7.67264
 30
0.0
 40
0
 41
0
  0
VERTEX
  8
0
 10
4.82107
 20
7.66471
 30
0.0
 40
0
 41
0
  0
VERTEX
  8
0
 10
4.85764
 20
7.64301
 30
0.0
 40
0
 41
0
  0
VERTEX
  8
0
 10
4.88232
 20
7.61083
 30
0.0
 40
0
 41
0
  0
VERTEX
  8
0
 10
4.89139
 20
7.58132
 30
0.0
 40
0
 41
0
  0
VERTEX
  8
0
 10
4.89139
 20
7.57146
 30
0.0
 40
0
 41
0
  0
VERTEX
  8
0
 10
4.89139
 20
7.56164
 30
0.0
 40
0
 41
0
  0
VERTEX
  8
0
 10
4.88232
 20
7.53212
 30
0.0
 40
0
 41
0
  0
VERTEX
  8
0
 10
4.85764
 20
7.5
 30
0.0
 40
0
 41
0
  0
VERTEX
  8
0
 10
4.82107
 20
7.47831
 30
0.0
 40
0
 41
0
  0
VERTEX
  8
0
 10
4.78743
 20
7.47032
 30
0.0
 40
0
 41
0
  0
VERTEX
  8
0
 10
4.77626
 20
7.47032
 30
0.0
 40
0
 41
0
  0
VERTEX
  8
0
 10
4.76503
 20
7.47032
 30
0.0
 40
0
 41
0
  0
VERTEX
  8
0
 10
4.73144
 20
7.47831
 30
0.0
 40
0
 41
0
  0
VERTEX
  8
0
 10
4.69482
 20
7.5
 30
0.0
 40
0
 41
0
  0
VERTEX
  8
0
 10
4.67014
 20
7.53212
 30
0.0
 40
0
 41
0
  0
VERTEX
  8
0
 10
4.66114
 20
7.56164
 30
0.0
 40
0
 41
0
  0
VERTEX
  8
0
 10
4.66114
 20
7.57146
 30
0.0
 40
0
 41
0
  0
VERTEX
  8
0
 10
4.66114
 20
7.58132
 30
0.0
 40
0
 41
0
  0
VERTEX
  8
0
 10
4.67014
 20
7.61083
 30
0.0
 40
0
 41
0
  0
VERTEX
  8
0
 10
4.69482
 20
7.64301
 30
0.0
 40
0
 41
0
  0
VERTEX
  8
0
 10
4.73144
 20
7.66471
 30
0.0
 40
0
 41
0
  0
VERTEX
  8
0
 10
4.76503
 20
7.67264
 30
0.0
 40
0
 41
0
  0
VERTEX
  8
0
 10
4.77626
 20
7.67264
 30
0.0
 40
0
 41
0
  0
SEQEND
 8
0
  0
POLYLINE
  8
0
 62
     0
 66
     1
 10
0
 20
0
 30
0.0
 70
     1
 40
0.5826
 41
0.5826
  0
VERTEX
  8
0
 10
4.77626
 20
7.67264
 30
0.0
 40
0.00809167
 41
0.00809167
  0
VERTEX
  8
0
 10
4.78743
 20
7.67264
 30
0.0
 40
0.00809167
 41
0.00809167
  0
VERTEX
  8
0
 10
4.82107
 20
7.66471
 30
0.0
 40
0.00809167
 41
0.00809167
  0
VERTEX
  8
0
 10
4.85764
 20
7.64301
 30
0.0
 40
0.00809167
 41
0.00809167
  0
VERTEX
  8
0
 10
4.88232
 20
7.61083
 30
0.0
 40
0.00809167
 41
0.00809167
  0
VERTEX
  8
0
 10
4.89139
 20
7.58132
 30
0.0
 40
0.00809167
 41
0.00809167
  0
VERTEX
  8
0
 10
4.89139
 20
7.57146
 30
0.0
 40
0.00809167
 41
0.00809167
  0
VERTEX
  8
0
 10
4.89139
 20
7.56164
 30
0.0
 40
0.00809167
 41
0.00809167
  0
VERTEX
  8
0
 10
4.88232
 20
7.53212
 30
0.0
 40
0.00809167
 41
0.00809167
  0
VERTEX
  8
0
 10
4.85764
 20
7.5
 30
0.0
 40
0.00809167
 41
0.00809167
  0
VERTEX
  8
0
 10
4.82107
 20
7.47831
 30
0.0
 40
0.00809167
 41
0.00809167
  0
VERTEX
  8
0
 10
4.78743
 20
7.47032
 30
0.0
 40
0.00809167
 41
0.00809167
  0
VERTEX
  8
0
 10
4.77626
 20
7.47032
 30
0.0
 40
0.00809167
 41
0.00809167
  0
VERTEX
  8
0
 10
4.76503
 20
7.47032
 30
0.0
 40
0.00809167
 41
0.00809167
  0
VERTEX
  8
0
 10
4.73144
 20
7.47831
 30
0.0
 40
0.00809167
 41
0.00809167
  0
VERTEX
  8
0
 10
4.69482
 20
7.5
 30
0.0
 40
0.00809167
 41
0.00809167
  0
VERTEX
  8
0
 10
4.67014
 20
7.53212
 30
0.0
 40
0.00809167
 41
0.00809167
  0
VERTEX
  8
0
 10
4.66114
 20
7.56164
 30
0.0
 40
0.00809167
 41
0.00809167
  0
VERTEX
  8
0
 10
4.66114
 20
7.57146
 30
0.0
 40
0.00809167
 41
0.00809167
  0
VERTEX
  8
0
 10
4.66114
 20
7.58132
 30
0.0
 40
0.00809167
 41
0.00809167
  0
VERTEX
  8
0
 10
4.67014
 20
7.61083
 30
0.0
 40
0.00809167
 41
0.00809167
  0
VERTEX
  8
0
 10
4.69482
 20
7.64301
 30
0.0
 40
0.00809167
 41
0.00809167
  0
VERTEX
  8
0
 10
4.73144
 20
7.66471
 30
0.0
 40
0.00809167
 41
0.00809167
  0
VERTEX
  8
0
 10
4.76503
 20
7.67264
 30
0.0
 40
0.00809167
 41
0.00809167
  0
VERTEX
  8
0
 10
4.77626
 20
7.67264
 30
0.0
 40
0.00809167
 41
0.00809167
  0
SEQEND
 8
0
  0
POLYLINE
  8
0
 62
     7
 66
     1
 10
0
 20
0
 30
0.0
 70
     1
 40
0
 41
0
  0
VERTEX
  8
0
 10
5.08421
 20
7.82036
 30
0.0
 40
0
 41
0
  0
VERTEX
  8
0
 10
5.83535
 20
7.82036
 30
0.0
 40
0
 41
0
  0
VERTEX
  8
0
 10
5.83535
 20
6.91699
 30
0.0
 40
0
 41
0
  0
VERTEX
  8
0
 10
5.08421
 20
6.91699
 30
0.0
 40
0
 41
0
  0
VERTEX
  8
0
 10
5.08421
 20
7.82036
 30
0.0
 40
0
 41
0
  0
SEQEND
 8
0
  0
POLYLINE
  8
0
 62
     0
 66
     1
 10
0
 20
0
 30
0.0
 70
     1
 40
0.867225
 41
0.867225
  0
VERTEX
  8
0
 10
5.08421
 20
7.82036
 30
0.0
 40
0.0120448
 41
0.0120448
  0
VERTEX
  8
0
 10
5.08421
 20
6.91699
 30
0.0
 40
0.0120448
 41
0.0120448
  0
VERTEX
  8
0
 10
5.83535
 20
6.91699
 30
0.0
 40
0.0120448
 41
0.0120448
  0
VERTEX
  8
0
 10
5.83535
 20
7.82036
 30
0.0
 40
0.0120448
 41
0.0120448
  0
VERTEX
  8
0
 10
5.08421
 20
7.82036
 30
0.0
 40
0.0120448
 41
0.0120448
  0
SEQEND
 8
0
  0
POLYLINE
  8
0
 62
     251
 66
     1
 10
0
 20
0
 30
0.0
 40
0.867225
 41
0.867225
  0
VERTEX
  8
0
 10
5.20383
 20
6.92458
 30
0.0
 40
0.0120448
 41
0.0120448
  0
VERTEX
  8
0
 10
5.83789
 20
7.53483
 30
0.0
 40
0.0120448
 41
0.0120448
  0
SEQEND
 8
0
  0
POLYLINE
  8
0
 62
     251
 66
     1
 10
0
 20
0
 30
0.0
 40
0.867225
 41
0.867225
  0
VERTEX
  8
0
 10
5.39931
 20
6.92421
 30
0.0
 40
0.0120448
 41
0.0120448
  0
VERTEX
  8
0
 10
5.84164
 20
7.34993
 30
0.0
 40
0.0120448
 41
0.0120448
  0
SEQEND
 8
0
  0
POLYLINE
  8
0
 62
     251
 66
     1
 10
0
 20
0
 30
0.0
 40
0.867225
 41
0.867225
  0
VERTEX
  8
0
 10
5.59549
 20
6.92307
 30
0.0
 40
0.0120448
 41
0.0120448
  0
VERTEX
  8
0
 10
5.84164
 20
7.16368
 30
0.0
 40
0.0120448
 41
0.0120448
  0
SEQEND
 8
0
  0
POLYLINE
  8
0
 62
     251
 66
     1
 10
0
 20
0
 30
0.0
 40
0.867225
 41
0.867225
  0
VERTEX
  8
0
 10
5.0905
 20
7.40662
 30
0.0
 40
0.0120448
 41
0.0120448
  0
VERTEX
  8
0
 10
5.52582
 20
7.82557
 30
0.0
 40
0.0120448
 41
0.0120448
  0
SEQEND
 8
0
  0
POLYLINE
  8
0
 62
     251
 66
     1
 10
0
 20
0
 30
0.0
 40
0.867225
 41
0.867225
  0
VERTEX
  8
0
 10
5.0905
 20
7.01736
 30
0.0
 40
0.0120448
 41
0.0120448
  0
VERTEX
  8
0
 10
5.84164
 20
7.74024
 30
0.0
 40
0.0120448
 41
0.0120448
  0
SEQEND
 8
0
  0
POLYLINE
  8
0
 62
     251
 66
     1
 10
0
 20
0
 30
0.0
 40
0.867225
 41
0.867225
  0
VERTEX
  8
0
 10
5.0905
 20
7.21669
 30
0.0
 40
0.0120448
 41
0.0120448
  0
VERTEX
  8
0
 10
5.72396
 20
7.82639
 30
0.0
 40
0.0120448
 41
0.0120448
  0
SEQEND
 8
0
  0
POLYLINE
  8
0
 62
     251
 66
     1
 10
0
 20
0
 30
0.0
 40
0.867225
 41
0.867225
  0
VERTEX
  8
0
 10
5.0905
 20
7.60086
 30
0.0
 40
0.0120448
 41
0.0120448
  0
VERTEX
  8
0
 10
5.32482
 20
7.82639
 30
0.0
 40
0.0120448
 41
0.0120448
  0
SEQEND
 8
0
  0
POLYLINE
  8
0
 62
     7
 66
     1
 10
0
 20
0
 30
0.0
 70
     1
 40
0
 41
0
  0
VERTEX
  8
0
 10
5.33361
 20
7.57497
 30
0.0
 40
0
 41
0
  0
VERTEX
  8
0
 10
5.84164
 20
7.57497
 30
0.0
 40
0
 41
0
  0
VERTEX
  8
0
 10
5.84164
 20
7.18261
 30
0.0
 40
0
 41
0
  0
VERTEX
  8
0
 10
5.33361
 20
7.18261
 30
0.0
 40
0
 41
0
  0
VERTEX
  8
0
 10
5.33361
 20
7.57497
 30
0.0
 40
0
 41
0
  0
SEQEND
 8
0
  0
POLYLINE
  8
0
 62
     0
 66
     1
 10
0
 20
0
 30
0.0
 70
     1
 40
0.867225
 41
0.867225
  0
VERTEX
  8
0
 10
5.33361
 20
7.57497
 30
0.0
 40
0.0120448
 41
0.0120448
  0
VERTEX
  8
0
 10
5.33361
 20
7.18261
 30
0.0
 40
0.0120448
 41
0.0120448
  0
VERTEX
  8
0
 10
5.84164
 20
7.18261
 30
0.0
 40
0.0120448
 41
0.0120448
  0
VERTEX
  8
0
 10
5.84164
 20
7.57497
 30
0.0
 40
0.0120448
 41
0.0120448
  0
VERTEX
  8
0
 10
5.33361
 20
7.57497
 30
0.0
 40
0.0120448
 41
0.0120448
  0
SEQEND
 8
0
  0
POLYLINE
  8
0
 62
     7
 66
     1
 10
0
 20
0
 30
0.0
 70
     1
 40
0
 41
0
  0
VERTEX
  8
0
 10
4.54351
 20
7.92904
 30
0.0
 40
0
 41
0
  0
VERTEX
  8
0
 10
4.54351
 20
9.50917
 30
0.0
 40
0
 41
0
  0
VERTEX
  8
0
 10
7.27632
 20
9.50917
 30
0.0
 40
0
 41
0
  0
VERTEX
  8
0
 10
7.27632
 20
8.86143
 30
0.0
 40
0
 41
0
  0
VERTEX
  8
0
 10
5.22885
 20
8.86143
 30
0.0
 40
0
 41
0
  0
VERTEX
  8
0
 10
5.22885
 20
7.92871
 30
0.0
 40
0
 41
0
  0
VERTEX
  8
0
 10
4.54351
 20
7.92904
 30
0.0
 40
0
 41
0
  0
SEQEND
 8
0
  0
POLYLINE
  8
0
 62
     0
 66
     1
 10
0
 20
0
 30
0.0
 70
     1
 40
0.75
 41
0.75
  0
VERTEX
  8
0
 10
4.54351
 20
7.92904
 30
0.0
 40
0.0104167
 41
0.0104167
  0
VERTEX
  8
0
 10
4.54351
 20
9.50917
 30
0.0
 40
0.0104167
 41
0.0104167
  0
VERTEX
  8
0
 10
7.27632
 20
9.50917
 30
0.0
 40
0.0104167
 41
0.0104167
  0
VERTEX
  8
0
 10
7.27632
 20
8.86143
 30
0.0
 40
0.0104167
 41
0.0104167
  0
VERTEX
  8
0
 10
5.22885
 20
8.86143
 30
0.0
 40
0.0104167
 41
0.0104167
  0
VERTEX
  8
0
 10
5.22885
 20
7.92871
 30
0.0
 40
0.0104167
 41
0.0104167
  0
VERTEX
  8
0
 10
4.54351
 20
7.92904
 30
0.0
 40
0.0104167
 41
0.0104167
  0
SEQEND
 8
0
  0
POLYLINE
  8
0
 62
     7
 66
     1
 10
0
 20
0
 30
0.0
 70
     1
 40
0
 41
0
  0
VERTEX
  8
0
 10
4.34082
 20
7.06907
 30
0.0
 40
0
 41
0
  0
VERTEX
  8
0
 10
4.4044
 20
7.06907
 30
0.0
 40
0
 41
0
  0
VERTEX
  8
0
 10
4.4044
 20
6.95242
 30
0.0
 40
0
 41
0
  0
VERTEX
  8
0
 10
4.34082
 20
6.95242
 30
0.0
 40
0
 41
0
  0
VERTEX
  8
0
 10
4.34082
 20
7.06907
 30
0.0
 40
0
 41
0
  0
SEQEND
 8
0
  0
POLYLINE
  8
0
 62
     0
 66
     1
 10
0
 20
0
 30
0.0
 70
     1
 40
0.75
 41
0.75
  0
VERTEX
  8
0
 10
4.34082
 20
7.06907
 30
0.0
 40
0.0104167
 41
0.0104167
  0
VERTEX
  8
0
 10
4.34082
 20
6.95242
 30
0.0
 40
0.0104167
 41
0.0104167
  0
VERTEX
  8
0
 10
4.4044
 20
6.95242
 30
0.0
 40
0.0104167
 41
0.0104167
  0
VERTEX
  8
0
 10
4.4044
 20
7.06907
 30
0.0
 40
0.0104167
 41
0.0104167
  0
VERTEX
  8
0
 10
4.34082
 20
7.06907
 30
0.0
 40
0.0104167
 41
0.0104167
  0
SEQEND
 8
0
  0
POLYLINE
  8
0
 62
     7
 66
     1
 10
0
 20
0
 30
0.0
 70
     1
 40
0
 41
0
  0
VERTEX
  8
0
 10
4.34082
 20
6.92432
 30
0.0
 40
0
 41
0
  0
VERTEX
  8
0
 10
4.4044
 20
6.92432
 30
0.0
 40
0
 41
0
  0
VERTEX
  8
0
 10
4.4044
 20
6.80761
 30
0.0
 40
0
 41
0
  0
VERTEX
  8
0
 10
4.34082
 20
6.80761
 30
0.0
 40
0
 41
0
  0
VERTEX
  8
0
 10
4.34082
 20
6.92432
 30
0.0
 40
0
 41
0
  0
SEQEND
 8
0
  0
POLYLINE
  8
0
 62
     0
 66
     1
 10
0
 20
0
 30
0.0
 70
     1
 40
0.75
 41
0.75
  0
VERTEX
  8
0
 10
4.34082
 20
6.92432
 30
0.0
 40
0.0104167
 41
0.0104167
  0
VERTEX
  8
0
 10
4.34082
 20
6.80761
 30
0.0
 40
0.0104167
 41
0.0104167
  0
VERTEX
  8
0
 10
4.4044
 20
6.80761
 30
0.0
 40
0.0104167
 41
0.0104167
  0
VERTEX
  8
0
 10
4.4044
 20
6.92432
 30
0.0
 40
0.0104167
 41
0.0104167
  0
VERTEX
  8
0
 10
4.34082
 20
6.92432
 30
0.0
 40
0.0104167
 41
0.0104167
  0
SEQEND
 8
0
  0
POLYLINE
  8
0
 62
     7
 66
     1
 10
0
 20
0
 30
0.0
 70
     1
 40
0
 41
0
  0
VERTEX
  8
0
 10
4.34082
 20
6.80865
 30
0.0
 40
0
 41
0
  0
VERTEX
  8
0
 10
4.4044
 20
6.80865
 30
0.0
 40
0
 41
0
  0
VERTEX
  8
0
 10
4.4044
 20
6.77328
 30
0.0
 40
0
 41
0
  0
VERTEX
  8
0
 10
4.34082
 20
6.77328
 30
0.0
 40
0
 41
0
  0
VERTEX
  8
0
 10
4.34082
 20
6.80865
 30
0.0
 40
0
 41
0
  0
SEQEND
 8
0
  0
POLYLINE
  8
0
 62
     0
 66
     1
 10
0
 20
0
 30
0.0
 70
     1
 40
0.75
 41
0.75
  0
VERTEX
  8
0
 10
4.34082
 20
6.80865
 30
0.0
 40
0.0104167
 41
0.0104167
  0
VERTEX
  8
0
 10
4.34082
 20
6.77328
 30
0.0
 40
0.0104167
 41
0.0104167
  0
VERTEX
  8
0
 10
4.4044
 20
6.77328
 30
0.0
 40
0.0104167
 41
0.0104167
  0
VERTEX
  8
0
 10
4.4044
 20
6.80865
 30
0.0
 40
0.0104167
 41
0.0104167
  0
VERTEX
  8
0
 10
4.34082
 20
6.80865
 30
0.0
 40
0.0104167
 41
0.0104167
  0
SEQEND
 8
0
  0
POLYLINE
  8
0
 62
     7
 66
     1
 10
0
 20
0
 30
0.0
 70
     1
 40
0
 41
0
  0
VERTEX
  8
0
 10
4.34082
 20
7.10243
 30
0.0
 40
0
 41
0
  0
VERTEX
  8
0
 10
4.4044
 20
7.10243
 30
0.0
 40
0
 41
0
  0
VERTEX
  8
0
 10
4.4044
 20
7.06907
 30
0.0
 40
0
 41
0
  0
VERTEX
  8
0
 10
4.34082
 20
7.06907
 30
0.0
 40
0
 41
0
  0
VERTEX
  8
0
 10
4.34082
 20
7.10243
 30
0.0
 40
0
 41
0
  0
SEQEND
 8
0
  0
POLYLINE
  8
0
 62
     0
 66
     1
 10
0
 20
0
 30
0.0
 70
     1
 40
0.75
 41
0.75
  0
VERTEX
  8
0
 10
4.34082
 20
7.10243
 30
0.0
 40
0.0104167
 41
0.0104167
  0
VERTEX
  8
0
 10
4.34082
 20
7.06907
 30
0.0
 40
0.0104167
 41
0.0104167
  0
VERTEX
  8
0
 10
4.4044
 20
7.06907
 30
0.0
 40
0.0104167
 41
0.0104167
  0
VERTEX
  8
0
 10
4.4044
 20
7.10243
 30
0.0
 40
0.0104167
 41
0.0104167
  0
VERTEX
  8
0
 10
4.34082
 20
7.10243
 30
0.0
 40
0.0104167
 41
0.0104167
  0
SEQEND
 8
0
  0
POLYLINE
  8
0
 62
     7
 66
     1
 10
0
 20
0
 30
0.0
 70
     1
 40
0
 41
0
  0
VERTEX
  8
0
 10
4.32107
 20
6.95242
 30
0.0
 40
0
 41
0
  0
VERTEX
  8
0
 10
4.31472
 20
6.95242
 30
0.0
 40
0
 41
0
  0
VERTEX
  8
0
 10
4.29579
 20
6.95611
 30
0.0
 40
0
 41
0
  0
VERTEX
  8
0
 10
4.27339
 20
6.96599
 30
0.0
 40
0
 41
0
  0
VERTEX
  8
0
 10
4.26899
 20
6.96907
 30
0.0
 40
0
 41
0
  0
VERTEX
  8
0
 10
4.26742
 20
6.97017
 30
0.0
 40
0
 41
0
  0
VERTEX
  8
0
 10
4.25276
 20
6.98031
 30
0.0
 40
0
 41
0
  0
VERTEX
  8
0
 10
4.25125
 20
6.98053
 30
0.0
 40
0
 41
0
  0
VERTEX
  8
0
 10
4.24837
 20
6.98107
 30
0.0
 40
0
 41
0
  0
VERTEX
  8
0
 10
4.23182
 20
6.97694
 30
0.0
 40
0
 41
0
  0
VERTEX
  8
0
 10
4.21897
 20
6.96024
 30
0.0
 40
0
 41
0
  0
VERTEX
  8
0
 10
4.21793
 20
6.95449
 30
0.0
 40
0
 41
0
  0
VERTEX
  8
0
 10
4.21767
 20
6.95318
 30
0.0
 40
0
 41
0
  0
VERTEX
  8
0
 10
4.2169
 20
6.94168
 30
0.0
 40
0
 41
0
  0
VERTEX
  8
0
 10
4.2169
 20
6.93782
 30
0.0
 40
0
 41
0
  0
VERTEX
  8
0
 10
4.2169
 20
6.93886
 30
0.0
 40
0
 41
0
  0
VERTEX
  8
0
 10
4.2169
 20
6.93474
 30
0.0
 40
0
 41
0
  0
VERTEX
  8
0
 10
4.21767
 20
6.9235
 30
0.0
 40
0
 41
0
  0
VERTEX
  8
0
 10
4.21793
 20
6.92219
 30
0.0
 40
0
 41
0
  0
VERTEX
  8
0
 10
4.21897
 20
6.9165
 30
0.0
 40
0
 41
0
  0
VERTEX
  8
0
 10
4.23182
 20
6.89985
 30
0.0
 40
0
 41
0
  0
VERTEX
  8
0
 10
4.24837
 20
6.89567
 30
0.0
 40
0
 41
0
  0
VERTEX
  8
0
 10
4.25125
 20
6.89615
 30
0.0
 40
0
 41
0
  0
VERTEX
  8
0
 10
4.25276
 20
6.89643
 30
0.0
 40
0
 41
0
  0
VERTEX
  8
0
 10
4.26742
 20
6.90657
 30
0.0
 40
0
 41
0
  0
VERTEX
  8
0
 10
4.26899
 20
6.90761
 30
0.0
 40
0
 41
0
  0
VERTEX
  8
0
 10
4.27339
 20
6.91075
 30
0.0
 40
0
 41
0
  0
VERTEX
  8
0
 10
4.29579
 20
6.92068
 30
0.0
 40
0
 41
0
  0
VERTEX
  8
0
 10
4.31472
 20
6.92432
 30
0.0
 40
0
 41
0
  0
VERTEX
  8
0
 10
4.32107
 20
6.92432
 30
0.0
 40
0
 41
0
  0
SEQEND
 8
0
  0
POLYLINE
  8
0
 62
     0
 66
     1
 10
0
 20
0
 30
0.0
 40
0.75
 41
0.75
  0
VERTEX
  8
0
 10
4.32107
 20
6.95242
 30
0.0
 40
0.0104167
 41
0.0104167
  0
VERTEX
  8
0
 10
4.31472
 20
6.95242
 30
0.0
 40
0.0104167
 41
0.0104167
  0
VERTEX
  8
0
 10
4.29579
 20
6.95611
 30
0.0
 40
0.0104167
 41
0.0104167
  0
VERTEX
  8
0
 10
4.27339
 20
6.96599
 30
0.0
 40
0.0104167
 41
0.0104167
  0
VERTEX
  8
0
 10
4.26899
 20
6.96907
 30
0.0
 40
0.0104167
 41
0.0104167
  0
VERTEX
  8
0
 10
4.26742
 20
6.97017
 30
0.0
 40
0.0104167
 41
0.0104167
  0
VERTEX
  8
0
 10
4.25276
 20
6.98031
 30
0.0
 40
0.0104167
 41
0.0104167
  0
VERTEX
  8
0
 10
4.25125
 20
6.98053
 30
0.0
 40
0.0104167
 41
0.0104167
  0
VERTEX
  8
0
 10
4.24837
 20
6.98107
 30
0.0
 40
0.0104167
 41
0.0104167
  0
VERTEX
  8
0
 10
4.23182
 20
6.97694
 30
0.0
 40
0.0104167
 41
0.0104167
  0
VERTEX
  8
0
 10
4.21897
 20
6.96024
 30
0.0
 40
0.0104167
 41
0.0104167
  0
VERTEX
  8
0
 10
4.21793
 20
6.95449
 30
0.0
 40
0.0104167
 41
0.0104167
  0
VERTEX
  8
0
 10
4.21767
 20
6.95318
 30
0.0
 40
0.0104167
 41
0.0104167
  0
VERTEX
  8
0
 10
4.2169
 20
6.94168
 30
0.0
 40
0.0104167
 41
0.0104167
  0
VERTEX
  8
0
 10
4.2169
 20
6.93782
 30
0.0
 40
0.0104167
 41
0.0104167
  0
VERTEX
  8
0
 10
4.2169
 20
6.93886
 30
0.0
 40
0.0104167
 41
0.0104167
  0
VERTEX
  8
0
 10
4.2169
 20
6.93474
 30
0.0
 40
0.0104167
 41
0.0104167
  0
VERTEX
  8
0
 10
4.21767
 20
6.9235
 30
0.0
 40
0.0104167
 41
0.0104167
  0
VERTEX
  8
0
 10
4.21793
 20
6.92219
 30
0.0
 40
0.0104167
 41
0.0104167
  0
VERTEX
  8
0
 10
4.21897
 20
6.9165
 30
0.0
 40
0.0104167
 41
0.0104167
  0
VERTEX
  8
0
 10
4.23182
 20
6.89985
 30
0.0
 40
0.0104167
 41
0.0104167
  0
VERTEX
  8
0
 10
4.24837
 20
6.89567
 30
0.0
 40
0.0104167
 41
0.0104167
  0
VERTEX
  8
0
 10
4.25125
 20
6.89615
 30
0.0
 40
0.0104167
 41
0.0104167
  0
VERTEX
  8
0
 10
4.25276
 20
6.89643
 30
0.0
 40
0.0104167
 41
0.0104167
  0
VERTEX
  8
0
 10
4.26742
 20
6.90657
 30
0.0
 40
0.0104167
 41
0.0104167
  0
VERTEX
  8
0
 10
4.26899
 20
6.90761
 30
0.0
 40
0.0104167
 41
0.0104167
  0
VERTEX
  8
0
 10
4.27339
 20
6.91075
 30
0.0
 40
0.0104167
 41
0.0104167
  0
VERTEX
  8
0
 10
4.29579
 20
6.92068
 30
0.0
 40
0.0104167
 41
0.0104167
  0
VERTEX
  8
0
 10
4.31472
 20
6.92432
 30
0.0
 40
0.0104167
 41
0.0104167
  0
VERTEX
  8
0
 10
4.32107
 20
6.92432
 30
0.0
 40
0.0104167
 41
0.0104167
  0
SEQEND
 8
0
  0
POLYLINE
  8
0
 62
     7
 66
     1
 10
0
 20
0
 30
0.0
 70
     1
 40
0
 41
0
  0
VERTEX
  8
0
 10
4.25022
 20
6.98053
 30
0.0
 40
0
 41
0
  0
VERTEX
  8
0
 10
4.24968
 20
6.98031
 30
0.0
 40
0
 41
0
  0
VERTEX
  8
0
 10
4.23953
 20
6.96843
 30
0.0
 40
0
 41
0
  0
VERTEX
  8
0
 10
4.23042
 20
6.94472
 30
0.0
 40
0
 41
0
  0
VERTEX
  8
0
 10
4.23042
 20
6.93679
 30
0.0
 40
0
 41
0
  0
VERTEX
  8
0
 10
4.23063
 20
6.93056
 30
0.0
 40
0
 41
0
  0
VERTEX
  8
0
 10
4.2399
 20
6.90793
 30
0.0
 40
0
 41
0
  0
VERTEX
  8
0
 10
4.24968
 20
6.89671
 30
0.0
 40
0
 41
0
  0
VERTEX
  8
0
 10
4.25022
 20
6.89615
 30
0.0
 40
0
 41
0
  0
SEQEND
 8
0
  0
POLYLINE
  8
0
 62
     0
 66
     1
 10
0
 20
0
 30
0.0
 40
0.75
 41
0.75
  0
VERTEX
  8
0
 10
4.25022
 20
6.98053
 30
0.0
 40
0.0104167
 41
0.0104167
  0
VERTEX
  8
0
 10
4.24968
 20
6.98031
 30
0.0
 40
0.0104167
 41
0.0104167
  0
VERTEX
  8
0
 10
4.23953
 20
6.96843
 30
0.0
 40
0.0104167
 41
0.0104167
  0
VERTEX
  8
0
 10
4.23042
 20
6.94472
 30
0.0
 40
0.0104167
 41
0.0104167
  0
VERTEX
  8
0
 10
4.23042
 20
6.93679
 30
0.0
 40
0.0104167
 41
0.0104167
  0
VERTEX
  8
0
 10
4.23063
 20
6.93056
 30
0.0
 40
0.0104167
 41
0.0104167
  0
VERTEX
  8
0
 10
4.2399
 20
6.90793
 30
0.0
 40
0.0104167
 41
0.0104167
  0
VERTEX
  8
0
 10
4.24968
 20
6.89671
 30
0.0
 40
0.0104167
 41
0.0104167
  0
VERTEX
  8
0
 10
4.25022
 20
6.89615
 30
0.0
 40
0.0104167
 41
0.0104167
  0
SEQEND
 8
0
  0
POLYLINE
  8
0
 62
     7
 66
     1
 10
0
 20
0
 30
0.0
 70
     1
 40
0
 41
0
  0
VERTEX
  8
0
 10
4.4044
 20
6.95242
 30
0.0
 40
0
 41
0
  0
VERTEX
  8
0
 10
4.4044
 20
6.92432
 30
0.0
 40
0
 41
0
  0
VERTEX
  8
0
 10
4.32107
 20
6.92432
 30
0.0
 40
0
 41
0
  0
VERTEX
  8
0
 10
4.32107
 20
6.93137
 30
0.0
 40
0
 41
0
  0
VERTEX
  8
0
 10
4.32107
 20
6.94715
 30
0.0
 40
0
 41
0
  0
VERTEX
  8
0
 10
4.32107
 20
6.95242
 30
0.0
 40
0
 41
0
  0
VERTEX
  8
0
 10
4.3419
 20
6.95242
 30
0.0
 40
0
 41
0
  0
VERTEX
  8
0
 10
4.38878
 20
6.95242
 30
0.0
 40
0
 41
0
  0
VERTEX
  8
0
 10
4.4044
 20
6.95242
 30
0.0
 40
0
 41
0
  0
SEQEND
 8
0
  0
POLYLINE
  8
0
 62
     0
 66
     1
 10
0
 20
0
 30
0.0
 70
     1
 40
0.75
 41
0.75
  0
VERTEX
  8
0
 10
4.4044
 20
6.95242
 30
0.0
 40
0.0104167
 41
0.0104167
  0
VERTEX
  8
0
 10
4.4044
 20
6.92432
 30
0.0
 40
0.0104167
 41
0.0104167
  0
VERTEX
  8
0
 10
4.32107
 20
6.92432
 30
0.0
 40
0.0104167
 41
0.0104167
  0
VERTEX
  8
0
 10
4.32107
 20
6.93137
 30
0.0
 40
0.0104167
 41
0.0104167
  0
VERTEX
  8
0
 10
4.32107
 20
6.94715
 30
0.0
 40
0.0104167
 41
0.0104167
  0
VERTEX
  8
0
 10
4.32107
 20
6.95242
 30
0.0
 40
0.0104167
 41
0.0104167
  0
VERTEX
  8
0
 10
4.3419
 20
6.95242
 30
0.0
 40
0.0104167
 41
0.0104167
  0
VERTEX
  8
0
 10
4.38878
 20
6.95242
 30
0.0
 40
0.0104167
 41
0.0104167
  0
VERTEX
  8
0
 10
4.4044
 20
6.95242
 30
0.0
 40
0.0104167
 41
0.0104167
  0
SEQEND
 8
0
  0
POLYLINE
  8
0
 62
     7
 66
     1
 10
0
 20
0
 30
0.0
 70
     1
 40
0
 41
0
  0
VERTEX
  8
0
 10
4.37207
 20
7.06907
 30
0.0
 40
0
 41
0
  0
VERTEX
  8
0
 10
4.37326
 20
7.06586
 30
0.0
 40
0
 41
0
  0
VERTEX
  8
0
 10
4.37717
 20
7.05621
 30
0.0
 40
0
 41
0
  0
VERTEX
  8
0
 10
4.37836
 20
7.05344
 30
0.0
 40
0
 41
0
  0
VERTEX
  8
0
 10
4.37836
 20
7.05344
 30
0.0
 40
0
 41
0
  0
VERTEX
  8
0
 10
4.3769
 20
7.05344
 30
0.0
 40
0
 41
0
  0
VERTEX
  8
0
 10
4.37261
 20
7.05344
 30
0.0
 40
0
 41
0
  0
VERTEX
  8
0
 10
4.36828
 20
7.05344
 30
0.0
 40
0
 41
0
  0
VERTEX
  8
0
 10
4.36686
 20
7.05344
 30
0.0
 40
0
 41
0
  0
VERTEX
  8
0
 10
4.36686
 20
7.05344
 30
0.0
 40
0
 41
0
  0
VERTEX
  8
0
 10
4.36751
 20
7.05583
 30
0.0
 40
0
 41
0
  0
VERTEX
  8
0
 10
4.37088
 20
7.06581
 30
0.0
 40
0
 41
0
  0
VERTEX
  8
0
 10
4.37207
 20
7.06907
 30
0.0
 40
0
 41
0
  0
SEQEND
 8
0
  0
POLYLINE
  8
0
 62
     0
 66
     1
 10
0
 20
0
 30
0.0
 70
     1
 40
0.75
 41
0.75
  0
VERTEX
  8
0
 10
4.37207
 20
7.06907
 30
0.0
 40
0.0104167
 41
0.0104167
  0
VERTEX
  8
0
 10
4.37326
 20
7.06586
 30
0.0
 40
0.0104167
 41
0.0104167
  0
VERTEX
  8
0
 10
4.37717
 20
7.05621
 30
0.0
 40
0.0104167
 41
0.0104167
  0
VERTEX
  8
0
 10
4.37836
 20
7.05344
 30
0.0
 40
0.0104167
 41
0.0104167
  0
VERTEX
  8
0
 10
4.37836
 20
7.05344
 30
0.0
 40
0.0104167
 41
0.0104167
  0
VERTEX
  8
0
 10
4.3769
 20
7.05344
 30
0.0
 40
0.0104167
 41
0.0104167
  0
VERTEX
  8
0
 10
4.37261
 20
7.05344
 30
0.0
 40
0.0104167
 41
0.0104167
  0
VERTEX
  8
0
 10
4.36828
 20
7.05344
 30
0.0
 40
0.0104167
 41
0.0104167
  0
VERTEX
  8
0
 10
4.36686
 20
7.05344
 30
0.0
 40
0.0104167
 41
0.0104167
  0
VERTEX
  8
0
 10
4.36686
 20
7.05344
 30
0.0
 40
0.0104167
 41
0.0104167
  0
VERTEX
  8
0
 10
4.36751
 20
7.05583
 30
0.0
 40
0.0104167
 41
0.0104167
  0
VERTEX
  8
0
 10
4.37088
 20
7.06581
 30
0.0
 40
0.0104167
 41
0.0104167
  0
VERTEX
  8
0
 10
4.37207
 20
7.06907
 30
0.0
 40
0.0104167
 41
0.0104167
  0
SEQEND
 8
0
  0
POLYLINE
  8
0
 62
     7
 66
     1
 10
0
 20
0
 30
0.0
 70
     1
 40
0
 41
0
  0
VERTEX
  8
0
 10
4.37207
 20
6.80865
 30
0.0
 40
0
 41
0
  0
VERTEX
  8
0
 10
4.37326
 20
6.8119
 30
0.0
 40
0
 41
0
  0
VERTEX
  8
0
 10
4.37717
 20
6.82156
 30
0.0
 40
0
 41
0
  0
VERTEX
  8
0
 10
4.37836
 20
6.82428
 30
0.0
 40
0
 41
0
  0
VERTEX
  8
0
 10
4.37836
 20
6.82428
 30
0.0
 40
0
 41
0
  0
VERTEX
  8
0
 10
4.3769
 20
6.82428
 30
0.0
 40
0
 41
0
  0
VERTEX
  8
0
 10
4.37261
 20
6.82428
 30
0.0
 40
0
 41
0
  0
VERTEX
  8
0
 10
4.36828
 20
6.82428
 30
0.0
 40
0
 41
0
  0
VERTEX
  8
0
 10
4.36686
 20
6.82428
 30
0.0
 40
0
 41
0
  0
VERTEX
  8
0
 10
4.36686
 20
6.82428
 30
0.0
 40
0
 41
0
  0
VERTEX
  8
0
 10
4.36751
 20
6.82194
 30
0.0
 40
0
 41
0
  0
VERTEX
  8
0
 10
4.37088
 20
6.81196
 30
0.0
 40
0
 41
0
  0
VERTEX
  8
0
 10
4.37207
 20
6.80865
 30
0.0
 40
0
 41
0
  0
SEQEND
 8
0
  0
POLYLINE
  8
0
 62
     0
 66
     1
 10
0
 20
0
 30
0.0
 70
     1
 40
0.75
 41
0.75
  0
VERTEX
  8
0
 10
4.37207
 20
6.80865
 30
0.0
 40
0.0104167
 41
0.0104167
  0
VERTEX
  8
0
 10
4.37326
 20
6.8119
 30
0.0
 40
0.0104167
 41
0.0104167
  0
VERTEX
  8
0
 10
4.37717
 20
6.82156
 30
0.0
 40
0.0104167
 41
0.0104167
  0
VERTEX
  8
0
 10
4.37836
 20
6.82428
 30
0.0
 40
0.0104167
 41
0.0104167
  0
VERTEX
  8
0
 10
4.37836
 20
6.82428
 30
0.0
 40
0.0104167
 41
0.0104167
  0
VERTEX
  8
0
 10
4.3769
 20
6.82428
 30
0.0
 40
0.0104167
 41
0.0104167
  0
VERTEX
  8
0
 10
4.37261
 20
6.82428
 30
0.0
 40
0.0104167
 41
0.0104167
  0
VERTEX
  8
0
 10
4.36828
 20
6.82428
 30
0.0
 40
0.0104167
 41
0.0104167
  0
VERTEX
  8
0
 10
4.36686
 20
6.82428
 30
0.0
 40
0.0104167
 41
0.0104167
  0
VERTEX
  8
0
 10
4.36686
 20
6.82428
 30
0.0
 40
0.0104167
 41
0.0104167
  0
VERTEX
  8
0
 10
4.36751
 20
6.82194
 30
0.0
 40
0.0104167
 41
0.0104167
  0
VERTEX
  8
0
 10
4.37088
 20
6.81196
 30
0.0
 40
0.0104167
 41
0.0104167
  0
VERTEX
  8
0
 10
4.37207
 20
6.80865
 30
0.0
 40
0.0104167
 41
0.0104167
  0
SEQEND
 8
0
  0
POLYLINE
  8
0
 62
     7
 66
     1
 10
0
 20
0
 30
0.0
 70
     1
 40
0
 41
0
  0
VERTEX
  8
0
 10
3.12869
 20
5.24972
 30
0.0
 40
0
 41
0
  0
VERTEX
  8
0
 10
3.75369
 20
5.24972
 30
0.0
 40
0
 41
0
  0
VERTEX
  8
0
 10
3.75369
 20
4.57394
 30
0.0
 40
0
 41
0
  0
VERTEX
  8
0
 10
3.12869
 20
4.57394
 30
0.0
 40
0
 41
0
  0
VERTEX
  8
0
 10
3.12869
 20
5.24972
 30
0.0
 40
0
 41
0
  0
SEQEND
 8
0
  0
POLYLINE
  8
0
 62
     0
 66
     1
 10
0
 20
0
 30
0.0
 70
     1
 40
0.75
 41
0.75
  0
VERTEX
  8
0
 10
3.12869
 20
5.24972
 30
0.0
 40
0.0104167
 41
0.0104167
  0
VERTEX
  8
0
 10
3.75369
 20
5.24972
 30
0.0
 40
0.0104167
 41
0.0104167
  0
VERTEX
  8
0
 10
3.75369
 20
4.57394
 30
0.0
 40
0.0104167
 41
0.0104167
  0
VERTEX
  8
0
 10
3.12869
 20
4.57394
 30
0.0
 40
0.0104167
 41
0.0104167
  0
VERTEX
  8
0
 10
3.12869
 20
5.24972
 30
0.0
 40
0.0104167
 41
0.0104167
  0
SEQEND
 8
0
  0
POLYLINE
  8
0
 62
     0
 66
     1
 10
0
 20
0
 30
0.0
 40
0.75
 41
0.75
  0
VERTEX
  8
0
 10
3.75369
 20
4.57394
 30
0.0
 40
0.0104167
 41
0.0104167
  0
VERTEX
  8
0
 10
3.44119
 20
5.03575
 30
0.0
 40
0.0104167
 41
0.0104167
  0
VERTEX
  8
0
 10
3.44119
 20
4.80821
 30
0.0
 40
0.0104167
 41
0.0104167
  0
VERTEX
  8
0
 10
3.12869
 20
5.24972
 30
0.0
 40
0.0104167
 41
0.0104167
  0
SEQEND
 8
0
  0
POLYLINE
  8
0
 62
     0
 66
     1
 10
0
 20
0
 30
0.0
 40
0.75
 41
0.75
  0
VERTEX
  8
0
 10
3.72558
 20
5.243
 30
0.0
 40
0.0104167
 41
0.0104167
  0
VERTEX
  8
0
 10
3.15685
 20
5.243
 30
0.0
 40
0.0104167
 41
0.0104167
  0
SEQEND
 8
0
  0
POLYLINE
  8
0
 62
     7
 66
     1
 10
0
 20
0
 30
0.0
 70
     1
 40
0
 41
0
  0
VERTEX
  8
0
 10
2.63217
 20
5.25054
 30
0.0
 40
0
 41
0
  0
VERTEX
  8
0
 10
3.12869
 20
5.25054
 30
0.0
 40
0
 41
0
  0
VERTEX
  8
0
 10
3.12869
 20
4.57471
 30
0.0
 40
0
 41
0
  0
VERTEX
  8
0
 10
2.63217
 20
4.57471
 30
0.0
 40
0
 41
0
  0
VERTEX
  8
0
 10
2.63217
 20
5.25054
 30
0.0
 40
0
 41
0
  0
SEQEND
 8
0
  0
POLYLINE
  8
0
 62
     0
 66
     1
 10
0
 20
0
 30
0.0
 70
     1
 40
0.75
 41
0.75
  0
VERTEX
  8
0
 10
2.63217
 20
5.25054
 30
0.0
 40
0.0104167
 41
0.0104167
  0
VERTEX
  8
0
 10
3.12869
 20
5.25054
 30
0.0
 40
0.0104167
 41
0.0104167
  0
VERTEX
  8
0
 10
3.12869
 20
4.57471
 30
0.0
 40
0.0104167
 41
0.0104167
  0
VERTEX
  8
0
 10
2.63217
 20
4.57471
 30
0.0
 40
0.0104167
 41
0.0104167
  0
VERTEX
  8
0
 10
2.63217
 20
5.25054
 30
0.0
 40
0.0104167
 41
0.0104167
  0
SEQEND
 8
0
  0
POLYLINE
  8
0
 62
     0
 66
     1
 10
0
 20
0
 30
0.0
 70
     1
 40
0.75
 41
0.75
  0
VERTEX
  8
0
 10
3.12875
 20
4.93137
 30
0.0
 40
0.0104167
 41
0.0104167
  0
VERTEX
  8
0
 10
3.75375
 20
4.93137
 30
0.0
 40
0.0104167
 41
0.0104167
  0
VERTEX
  8
0
 10
3.75375
 20
4.57471
 30
0.0
 40
0.0104167
 41
0.0104167
  0
VERTEX
  8
0
 10
3.12875
 20
4.57471
 30
0.0
 40
0.0104167
 41
0.0104167
  0
VERTEX
  8
0
 10
3.12875
 20
4.93137
 30
0.0
 40
0.0104167
 41
0.0104167
  0
SEQEND
 8
0
  0
POLYLINE
  8
0
 62
     7
 66
     1
 10
0
 20
0
 30
0.0
 70
     1
 40
0
 41
0
  0
VERTEX
  8
0
 10
3.87901
 20
5.12207
 30
0.0
 40
0
 41
0
  0
VERTEX
  8
0
 10
4.54508
 20
5.12207
 30
0.0
 40
0
 41
0
  0
VERTEX
  8
0
 10
4.54508
 20
4.0204
 30
0.0
 40
0
 41
0
  0
VERTEX
  8
0
 10
3.87901
 20
4.0204
 30
0.0
 40
0
 41
0
  0
VERTEX
  8
0
 10
3.87901
 20
5.12207
 30
0.0
 40
0
 41
0
  0
SEQEND
 8
0
  0
POLYLINE
  8
0
 62
     0
 66
     1
 10
0
 20
0
 30
0.0
 70
     1
 40
0.75
 41
0.75
  0
VERTEX
  8
0
 10
3.87901
 20
5.12207
 30
0.0
 40
0.0104167
 41
0.0104167
  0
VERTEX
  8
0
 10
3.87901
 20
4.0204
 30
0.0
 40
0.0104167
 41
0.0104167
  0
VERTEX
  8
0
 10
4.54508
 20
4.0204
 30
0.0
 40
0.0104167
 41
0.0104167
  0
VERTEX
  8
0
 10
4.54508
 20
5.12207
 30
0.0
 40
0.0104167
 41
0.0104167
  0
VERTEX
  8
0
 10
3.87901
 20
5.12207
 30
0.0
 40
0.0104167
 41
0.0104167
  0
SEQEND
 8
0
  0
POLYLINE
  8
0
 62
     253
 66
     1
 10
0
 20
0
 30
0.0
 40
0.75
 41
0.75
  0
VERTEX
  8
0
 10
4.21208
 20
4.0204
 30
0.0
 40
0.0104167
 41
0.0104167
  0
VERTEX
  8
0
 10
4.21208
 20
5.12207
 30
0.0
 40
0.0104167
 41
0.0104167
  0
SEQEND
 8
0
  0
POLYLINE
  8
0
 62
     7
 66
     1
 10
0
 20
0
 30
0.0
 70
     1
 40
0
 41
0
  0
VERTEX
  8
0
 10
2.49382
 20
4.43815
 30
0.0
 40
0
 41
0
  0
VERTEX
  8
0
 10
3.75375
 20
4.43815
 30
0.0
 40
0
 41
0
  0
VERTEX
  8
0
 10
3.75375
 20
3.89785
 30
0.0
 40
0
 41
0
  0
VERTEX
  8
0
 10
2.49382
 20
3.89785
 30
0.0
 40
0
 41
0
  0
VERTEX
  8
0
 10
2.49382
 20
4.43815
 30
0.0
 40
0
 41
0
  0
SEQEND
 8
0
  0
POLYLINE
  8
0
 62
     0
 66
     1
 10
0
 20
0
 30
0.0
 70
     1
 40
0.75
 41
0.75
  0
VERTEX
  8
0
 10
2.49382
 20
4.43815
 30
0.0
 40
0.0104167
 41
0.0104167
  0
VERTEX
  8
0
 10
3.75375
 20
4.43815
 30
0.0
 40
0.0104167
 41
0.0104167
  0
VERTEX
  8
0
 10
3.75375
 20
3.89785
 30
0.0
 40
0.0104167
 41
0.0104167
  0
VERTEX
  8
0
 10
2.49382
 20
3.89785
 30
0.0
 40
0.0104167
 41
0.0104167
  0
VERTEX
  8
0
 10
2.49382
 20
4.43815
 30
0.0
 40
0.0104167
 41
0.0104167
  0
SEQEND
 8
0
  0
POLYLINE
  8
0
 62
     7
 66
     1
 10
0
 20
0
 30
0.0
 70
     1
 40
0
 41
0
  0
VERTEX
  8
0
 10
3.22597
 20
4.35243
 30
0.0
 40
0
 41
0
  0
VERTEX
  8
0
 10
3.6665
 20
4.35243
 30
0.0
 40
0
 41
0
  0
VERTEX
  8
0
 10
3.6665
 20
3.99251
 30
0.0
 40
0
 41
0
  0
VERTEX
  8
0
 10
3.22597
 20
3.99251
 30
0.0
 40
0
 41
0
  0
VERTEX
  8
0
 10
3.22597
 20
4.35243
 30
0.0
 40
0
 41
0
  0
SEQEND
 8
0
  0
POLYLINE
  8
0
 62
     0
 66
     1
 10
0
 20
0
 30
0.0
 70
     1
 40
0.75
 41
0.75
  0
VERTEX
  8
0
 10
3.22597
 20
4.35243
 30
0.0
 40
0.0104167
 41
0.0104167
  0
VERTEX
  8
0
 10
3.6665
 20
4.35243
 30
0.0
 40
0.0104167
 41
0.0104167
  0
VERTEX
  8
0
 10
3.6665
 20
3.99251
 30
0.0
 40
0.0104167
 41
0.0104167
  0
VERTEX
  8
0
 10
3.22597
 20
3.99251
 30
0.0
 40
0.0104167
 41
0.0104167
  0
VERTEX
  8
0
 10
3.22597
 20
4.35243
 30
0.0
 40
0.0104167
 41
0.0104167
  0
SEQEND
 8
0
  0
POLYLINE
  8
0
 62
     7
 66
     1
 10
0
 20
0
 30
0.0
 70
     1
 40
0
 41
0
  0
VERTEX
  8
0
 10
3.48264
 20
4.18213
 30
0.0
 40
0
 41
0
  0
VERTEX
  8
0
 10
3.48264
 20
4.17572
 30
0.0
 40
0
 41
0
  0
VERTEX
  8
0
 10
3.47194
 20
4.15636
 30
0.0
 40
0
 41
0
  0
VERTEX
  8
0
 10
3.45258
 20
4.14567
 30
0.0
 40
0
 41
0
  0
VERTEX
  8
0
 10
3.44618
 20
4.14567
 30
0.0
 40
0
 41
0
  0
VERTEX
  8
0
 10
3.43972
 20
4.14567
 30
0.0
 40
0
 41
0
  0
VERTEX
  8
0
 10
3.42036
 20
4.15636
 30
0.0
 40
0
 41
0
  0
VERTEX
  8
0
 10
3.40972
 20
4.17572
 30
0.0
 40
0
 41
0
  0
VERTEX
  8
0
 10
3.40972
 20
4.18213
 30
0.0
 40
0
 41
0
  0
VERTEX
  8
0
 10
3.40972
 20
4.18858
 30
0.0
 40
0
 41
0
  0
VERTEX
  8
0
 10
3.42036
 20
4.20796
 30
0.0
 40
0
 41
0
  0
VERTEX
  8
0
 10
3.43972
 20
4.21858
 30
0.0
 40
0
 41
0
  0
VERTEX
  8
0
 10
3.44618
 20
4.21858
 30
0.0
 40
0
 41
0
  0
VERTEX
  8
0
 10
3.45258
 20
4.21858
 30
0.0
 40
0
 41
0
  0
VERTEX
  8
0
 10
3.47194
 20
4.20796
 30
0.0
 40
0
 41
0
  0
VERTEX
  8
0
 10
3.48264
 20
4.18858
 30
0.0
 40
0
 41
0
  0
VERTEX
  8
0
 10
3.48264
 20
4.18213
 30
0.0
 40
0
 41
0
  0
SEQEND
 8
0
  0
POLYLINE
  8
0
 62
     0
 66
     1
 10
0
 20
0
 30
0.0
 70
     1
 40
0.6
 41
0.6
  0
VERTEX
  8
0
 10
3.48264
 20
4.18213
 30
0.0
 40
0.00833333
 41
0.00833333
  0
VERTEX
  8
0
 10
3.48264
 20
4.17572
 30
0.0
 40
0.00833333
 41
0.00833333
  0
VERTEX
  8
0
 10
3.47194
 20
4.15636
 30
0.0
 40
0.00833333
 41
0.00833333
  0
VERTEX
  8
0
 10
3.45258
 20
4.14567
 30
0.0
 40
0.00833333
 41
0.00833333
  0
VERTEX
  8
0
 10
3.44618
 20
4.14567
 30
0.0
 40
0.00833333
 41
0.00833333
  0
VERTEX
  8
0
 10
3.43972
 20
4.14567
 30
0.0
 40
0.00833333
 41
0.00833333
  0
VERTEX
  8
0
 10
3.42036
 20
4.15636
 30
0.0
 40
0.00833333
 41
0.00833333
  0
VERTEX
  8
0
 10
3.40972
 20
4.17572
 30
0.0
 40
0.00833333
 41
0.00833333
  0
VERTEX
  8
0
 10
3.40972
 20
4.18213
 30
0.0
 40
0.00833333
 41
0.00833333
  0
VERTEX
  8
0
 10
3.40972
 20
4.18858
 30
0.0
 40
0.00833333
 41
0.00833333
  0
VERTEX
  8
0
 10
3.42036
 20
4.20796
 30
0.0
 40
0.00833333
 41
0.00833333
  0
VERTEX
  8
0
 10
3.43972
 20
4.21858
 30
0.0
 40
0.00833333
 41
0.00833333
  0
VERTEX
  8
0
 10
3.44618
 20
4.21858
 30
0.0
 40
0.00833333
 41
0.00833333
  0
VERTEX
  8
0
 10
3.45258
 20
4.21858
 30
0.0
 40
0.00833333
 41
0.00833333
  0
VERTEX
  8
0
 10
3.47194
 20
4.20796
 30
0.0
 40
0.00833333
 41
0.00833333
  0
VERTEX
  8
0
 10
3.48264
 20
4.18858
 30
0.0
 40
0.00833333
 41
0.00833333
  0
VERTEX
  8
0
 10
3.48264
 20
4.18213
 30
0.0
 40
0.00833333
 41
0.00833333
  0
SEQEND
 8
0
  0
POLYLINE
  8
0
 62
     7
 66
     1
 10
0
 20
0
 30
0.0
 70
     1
 40
0
 41
0
  0
VERTEX
  8
0
 10
3.46701
 20
4.18213
 30
0.0
 40
0
 41
0
  0
VERTEX
  8
0
 10
3.46701
 20
4.1785
 30
0.0
 40
0
 41
0
  0
VERTEX
  8
0
 10
3.46089
 20
4.16743
 30
0.0
 40
0
 41
0
  0
VERTEX
  8
0
 10
3.44982
 20
4.16129
 30
0.0
 40
0
 41
0
  0
VERTEX
  8
0
 10
3.44618
 20
4.16129
 30
0.0
 40
0
 41
0
  0
VERTEX
  8
0
 10
3.44249
 20
4.16129
 30
0.0
 40
0
 41
0
  0
VERTEX
  8
0
 10
3.43143
 20
4.16743
 30
0.0
 40
0
 41
0
  0
VERTEX
  8
0
 10
3.42535
 20
4.1785
 30
0.0
 40
0
 41
0
  0
VERTEX
  8
0
 10
3.42535
 20
4.18213
 30
0.0
 40
0
 41
0
  0
VERTEX
  8
0
 10
3.42535
 20
4.18582
 30
0.0
 40
0
 41
0
  0
VERTEX
  8
0
 10
3.43143
 20
4.19689
 30
0.0
 40
0
 41
0
  0
VERTEX
  8
0
 10
3.44249
 20
4.20296
 30
0.0
 40
0
 41
0
  0
VERTEX
  8
0
 10
3.44618
 20
4.20296
 30
0.0
 40
0
 41
0
  0
VERTEX
  8
0
 10
3.44982
 20
4.20296
 30
0.0
 40
0
 41
0
  0
VERTEX
  8
0
 10
3.46089
 20
4.19689
 30
0.0
 40
0
 41
0
  0
VERTEX
  8
0
 10
3.46701
 20
4.18582
 30
0.0
 40
0
 41
0
  0
VERTEX
  8
0
 10
3.46701
 20
4.18213
 30
0.0
 40
0
 41
0
  0
SEQEND
 8
0
  0
POLYLINE
  8
0
 62
     0
 66
     1
 10
0
 20
0
 30
0.0
 70
     1
 40
0.6
 41
0.6
  0
VERTEX
  8
0
 10
3.46701
 20
4.18213
 30
0.0
 40
0.00833333
 41
0.00833333
  0
VERTEX
  8
0
 10
3.46701
 20
4.1785
 30
0.0
 40
0.00833333
 41
0.00833333
  0
VERTEX
  8
0
 10
3.46089
 20
4.16743
 30
0.0
 40
0.00833333
 41
0.00833333
  0
VERTEX
  8
0
 10
3.44982
 20
4.16129
 30
0.0
 40
0.00833333
 41
0.00833333
  0
VERTEX
  8
0
 10
3.44618
 20
4.16129
 30
0.0
 40
0.00833333
 41
0.00833333
  0
VERTEX
  8
0
 10
3.44249
 20
4.16129
 30
0.0
 40
0.00833333
 41
0.00833333
  0
VERTEX
  8
0
 10
3.43143
 20
4.16743
 30
0.0
 40
0.00833333
 41
0.00833333
  0
VERTEX
  8
0
 10
3.42535
 20
4.1785
 30
0.0
 40
0.00833333
 41
0.00833333
  0
VERTEX
  8
0
 10
3.42535
 20
4.18213
 30
0.0
 40
0.00833333
 41
0.00833333
  0
VERTEX
  8
0
 10
3.42535
 20
4.18582
 30
0.0
 40
0.00833333
 41
0.00833333
  0
VERTEX
  8
0
 10
3.43143
 20
4.19689
 30
0.0
 40
0.00833333
 41
0.00833333
  0
VERTEX
  8
0
 10
3.44249
 20
4.20296
 30
0.0
 40
0.00833333
 41
0.00833333
  0
VERTEX
  8
0
 10
3.44618
 20
4.20296
 30
0.0
 40
0.00833333
 41
0.00833333
  0
VERTEX
  8
0
 10
3.44982
 20
4.20296
 30
0.0
 40
0.00833333
 41
0.00833333
  0
VERTEX
  8
0
 10
3.46089
 20
4.19689
 30
0.0
 40
0.00833333
 41
0.00833333
  0
VERTEX
  8
0
 10
3.46701
 20
4.18582
 30
0.0
 40
0.00833333
 41
0.00833333
  0
VERTEX
  8
0
 10
3.46701
 20
4.18213
 30
0.0
 40
0.00833333
 41
0.00833333
  0
SEQEND
 8
0
  0
POLYLINE
  8
0
 62
     7
 66
     1
 10
0
 20
0
 30
0.0
 70
     1
 40
0
 41
0
  0
VERTEX
  8
0
 10
3.41982
 20
4.4114
 30
0.0
 40
0
 41
0
  0
VERTEX
  8
0
 10
3.48232
 20
4.4114
 30
0.0
 40
0
 41
0
  0
VERTEX
  8
0
 10
3.48232
 20
4.26557
 30
0.0
 40
0
 41
0
  0
VERTEX
  8
0
 10
3.41982
 20
4.26557
 30
0.0
 40
0
 41
0
  0
VERTEX
  8
0
 10
3.41982
 20
4.4114
 30
0.0
 40
0
 41
0
  0
SEQEND
 8
0
  0
POLYLINE
  8
0
 62
     0
 66
     1
 10
0
 20
0
 30
0.0
 70
     1
 40
0.75
 41
0.75
  0
VERTEX
  8
0
 10
3.41982
 20
4.4114
 30
0.0
 40
0.0104167
 41
0.0104167
  0
VERTEX
  8
0
 10
3.48232
 20
4.4114
 30
0.0
 40
0.0104167
 41
0.0104167
  0
VERTEX
  8
0
 10
3.48232
 20
4.26557
 30
0.0
 40
0.0104167
 41
0.0104167
  0
VERTEX
  8
0
 10
3.41982
 20
4.26557
 30
0.0
 40
0.0104167
 41
0.0104167
  0
VERTEX
  8
0
 10
3.41982
 20
4.4114
 30
0.0
 40
0.0104167
 41
0.0104167
  0
SEQEND
 8
0
  0
POLYLINE
  8
0
 62
     7
 66
     1
 10
0
 20
0
 30
0.0
 70
     1
 40
0
 41
0
  0
VERTEX
  8
0
 10
2.58763
 20
3.28321
 30
0.0
 40
0
 41
0
  0
VERTEX
  8
0
 10
2.7749
 20
3.28321
 30
0.0
 40
0
 41
0
  0
VERTEX
  8
0
 10
2.7749
 20
2.86664
 30
0.0
 40
0
 41
0
  0
VERTEX
  8
0
 10
2.58763
 20
2.86664
 30
0.0
 40
0
 41
0
  0
VERTEX
  8
0
 10
2.58763
 20
3.28321
 30
0.0
 40
0
 41
0
  0
SEQEND
 8
0
  0
POLYLINE
  8
0
 62
     0
 66
     1
 10
0
 20
0
 30
0.0
 70
     1
 40
0.75
 41
0.75
  0
VERTEX
  8
0
 10
2.58763
 20
3.28321
 30
0.0
 40
0.0104167
 41
0.0104167
  0
VERTEX
  8
0
 10
2.58763
 20
2.86664
 30
0.0
 40
0.0104167
 41
0.0104167
  0
VERTEX
  8
0
 10
2.7749
 20
2.86664
 30
0.0
 40
0.0104167
 41
0.0104167
  0
VERTEX
  8
0
 10
2.7749
 20
3.28321
 30
0.0
 40
0.0104167
 41
0.0104167
  0
VERTEX
  8
0
 10
2.58763
 20
3.28321
 30
0.0
 40
0.0104167
 41
0.0104167
  0
SEQEND
 8
0
  0
POLYLINE
  8
0
 62
     7
 66
     1
 10
0
 20
0
 30
0.0
 70
     1
 40
0
 41
0
  0
VERTEX
  8
0
 10
3.04318
 20
3.28321
 30
0.0
 40
0
 41
0
  0
VERTEX
  8
0
 10
3.04318
 20
3.28321
 30
0.0
 40
0
 41
0
  0
VERTEX
  8
0
 10
3.0549
 20
3.28331
 30
0.0
 40
0
 41
0
  0
VERTEX
  8
0
 10
3.08589
 20
3.28168
 30
0.0
 40
0
 41
0
  0
VERTEX
  8
0
 10
3.12972
 20
3.27556
 30
0.0
 40
0
 41
0
  0
VERTEX
  8
0
 10
3.17996
 20
3.2621
 30
0.0
 40
0
 41
0
  0
VERTEX
  8
0
 10
3.23019
 20
3.23856
 30
0.0
 40
0
 41
0
  0
VERTEX
  8
0
 10
3.27403
 20
3.2021
 30
0.0
 40
0
 41
0
  0
VERTEX
  8
0
 10
3.30501
 20
3.14996
 30
0.0
 40
0
 41
0
  0
VERTEX
  8
0
 10
3.31679
 20
3.0969
 30
0.0
 40
0
 41
0
  0
VERTEX
  8
0
 10
3.31679
 20
3.07921
 30
0.0
 40
0
 41
0
  0
VERTEX
  8
0
 10
3.31679
 20
3.06093
 30
0.0
 40
0
 41
0
  0
VERTEX
  8
0
 10
3.30501
 20
3.00608
 30
0.0
 40
0
 41
0
  0
VERTEX
  8
0
 10
3.27403
 20
2.95199
 30
0.0
 40
0
 41
0
  0
VERTEX
  8
0
 10
3.23019
 20
2.91417
 30
0.0
 40
0
 41
0
  0
VERTEX
  8
0
 10
3.17996
 20
2.88976
 30
0.0
 40
0
 41
0
  0
VERTEX
  8
0
 10
3.12972
 20
2.87576
 30
0.0
 40
0
 41
0
  0
VERTEX
  8
0
 10
3.08589
 20
2.86936
 30
0.0
 40
0
 41
0
  0
VERTEX
  8
0
 10
3.0549
 20
2.86762
 30
0.0
 40
0
 41
0
  0
VERTEX
  8
0
 10
3.04318
 20
2.86768
 30
0.0
 40
0
 41
0
  0
VERTEX
  8
0
 10
3.04318
 20
2.86768
 30
0.0
 40
0
 41
0
  0
VERTEX
  8
0
 10
2.7749
 20
2.8666
 30
0.0
 40
0
 41
0
  0
VERTEX
  8
0
 10
2.7749
 20
3.28321
 30
0.0
 40
0
 41
0
  0
VERTEX
  8
0
 10
3.04318
 20
3.28321
 30
0.0
 40
0
 41
0
  0
SEQEND
 8
0
  0
POLYLINE
  8
0
 62
     0
 66
     1
 10
0
 20
0
 30
0.0
 70
     1
 40
0.75
 41
0.75
  0
VERTEX
  8
0
 10
3.04318
 20
3.28321
 30
0.0
 40
0.0104167
 41
0.0104167
  0
VERTEX
  8
0
 10
3.04318
 20
3.28321
 30
0.0
 40
0.0104167
 41
0.0104167
  0
VERTEX
  8
0
 10
3.0549
 20
3.28331
 30
0.0
 40
0.0104167
 41
0.0104167
  0
VERTEX
  8
0
 10
3.08589
 20
3.28168
 30
0.0
 40
0.0104167
 41
0.0104167
  0
VERTEX
  8
0
 10
3.12972
 20
3.27556
 30
0.0
 40
0.0104167
 41
0.0104167
  0
VERTEX
  8
0
 10
3.17996
 20
3.2621
 30
0.0
 40
0.0104167
 41
0.0104167
  0
VERTEX
  8
0
 10
3.23019
 20
3.23856
 30
0.0
 40
0.0104167
 41
0.0104167
  0
VERTEX
  8
0
 10
3.27403
 20
3.2021
 30
0.0
 40
0.0104167
 41
0.0104167
  0
VERTEX
  8
0
 10
3.30501
 20
3.14996
 30
0.0
 40
0.0104167
 41
0.0104167
  0
VERTEX
  8
0
 10
3.31679
 20
3.0969
 30
0.0
 40
0.0104167
 41
0.0104167
  0
VERTEX
  8
0
 10
3.31679
 20
3.07921
 30
0.0
 40
0.0104167
 41
0.0104167
  0
VERTEX
  8
0
 10
3.31679
 20
3.06093
 30
0.0
 40
0.0104167
 41
0.0104167
  0
VERTEX
  8
0
 10
3.30501
 20
3.00608
 30
0.0
 40
0.0104167
 41
0.0104167
  0
VERTEX
  8
0
 10
3.27403
 20
2.95199
 30
0.0
 40
0.0104167
 41
0.0104167
  0
VERTEX
  8
0
 10
3.23019
 20
2.91417
 30
0.0
 40
0.0104167
 41
0.0104167
  0
VERTEX
  8
0
 10
3.17996
 20
2.88976
 30
0.0
 40
0.0104167
 41
0.0104167
  0
VERTEX
  8
0
 10
3.12972
 20
2.87576
 30
0.0
 40
0.0104167
 41
0.0104167
  0
VERTEX
  8
0
 10
3.08589
 20
2.86936
 30
0.0
 40
0.0104167
 41
0.0104167
  0
VERTEX
  8
0
 10
3.0549
 20
2.86762
 30
0.0
 40
0.0104167
 41
0.0104167
  0
VERTEX
  8
0
 10
3.04318
 20
2.86768
 30
0.0
 40
0.0104167
 41
0.0104167
  0
VERTEX
  8
0
 10
3.04318
 20
2.86768
 30
0.0
 40
0.0104167
 41
0.0104167
  0
VERTEX
  8
0
 10
2.7749
 20
2.8666
 30
0.0
 40
0.0104167
 41
0.0104167
  0
VERTEX
  8
0
 10
2.7749
 20
3.28321
 30
0.0
 40
0.0104167
 41
0.0104167
  0
VERTEX
  8
0
 10
3.04318
 20
3.28321
 30
0.0
 40
0.0104167
 41
0.0104167
  0
SEQEND
 8
0
  0
POLYLINE
  8
0
 62
     7
 66
     1
 10
0
 20
0
 30
0.0
 70
     1
 40
0
 41
0
  0
VERTEX
  8
0
 10
2.66547
 20
3.10801
 30
0.0
 40
0
 41
0
  0
VERTEX
  8
0
 10
2.69706
 20
3.10801
 30
0.0
 40
0
 41
0
  0
VERTEX
  8
0
 10
2.69706
 20
3.04178
 30
0.0
 40
0
 41
0
  0
VERTEX
  8
0
 10
2.66547
 20
3.04178
 30
0.0
 40
0
 41
0
  0
VERTEX
  8
0
 10
2.66547
 20
3.10801
 30
0.0
 40
0
 41
0
  0
SEQEND
 8
0
  0
POLYLINE
  8
0
 62
     0
 66
     1
 10
0
 20
0
 30
0.0
 70
     1
 40
0.75
 41
0.75
  0
VERTEX
  8
0
 10
2.66547
 20
3.10801
 30
0.0
 40
0.0104167
 41
0.0104167
  0
VERTEX
  8
0
 10
2.66547
 20
3.04178
 30
0.0
 40
0.0104167
 41
0.0104167
  0
VERTEX
  8
0
 10
2.69706
 20
3.04178
 30
0.0
 40
0.0104167
 41
0.0104167
  0
VERTEX
  8
0
 10
2.69706
 20
3.10801
 30
0.0
 40
0.0104167
 41
0.0104167
  0
VERTEX
  8
0
 10
2.66547
 20
3.10801
 30
0.0
 40
0.0104167
 41
0.0104167
  0
SEQEND
 8
0
  0
POLYLINE
  8
0
 62
     7
 66
     1
 10
0
 20
0
 30
0.0
 70
     1
 40
0
 41
0
  0
VERTEX
  8
0
 10
10.2087
 20
3.32156
 30
0.0
 40
0
 41
0
  0
VERTEX
  8
0
 10
10.8683
 20
3.32156
 30
0.0
 40
0
 41
0
  0
VERTEX
  8
0
 10
10.8683
 20
2.64606
 30
0.0
 40
0
 41
0
  0
VERTEX
  8
0
 10
10.2087
 20
2.64606
 30
0.0
 40
0
 41
0
  0
VERTEX
  8
0
 10
10.2087
 20
3.32156
 30
0.0
 40
0
 41
0
  0
SEQEND
 8
0
  0
POLYLINE
  8
0
 62
     0
 66
     1
 10
0
 20
0
 30
0.0
 70
     1
 40
0.75
 41
0.75
  0
VERTEX
  8
0
 10
10.2087
 20
3.32156
 30
0.0
 40
0.0104167
 41
0.0104167
  0
VERTEX
  8
0
 10
10.2087
 20
2.64606
 30
0.0
 40
0.0104167
 41
0.0104167
  0
VERTEX
  8
0
 10
10.8683
 20
2.64606
 30
0.0
 40
0.0104167
 41
0.0104167
  0
VERTEX
  8
0
 10
10.8683
 20
3.32156
 30
0.0
 40
0.0104167
 41
0.0104167
  0
VERTEX
  8
0
 10
10.2087
 20
3.32156
 30
0.0
 40
0.0104167
 41
0.0104167
  0
SEQEND
 8
0
  0
POLYLINE
  8
0
 62
     7
 66
     1
 10
0
 20
0
 30
0.0
 70
     1
 40
0
 41
0
  0
VERTEX
  8
0
 10
10.2087
 20
3.99713
 30
0.0
 40
0
 41
0
  0
VERTEX
  8
0
 10
10.8683
 20
3.99713
 30
0.0
 40
0
 41
0
  0
VERTEX
  8
0
 10
10.8683
 20
3.32161
 30
0.0
 40
0
 41
0
  0
VERTEX
  8
0
 10
10.2087
 20
3.32161
 30
0.0
 40
0
 41
0
  0
VERTEX
  8
0
 10
10.2087
 20
3.99713
 30
0.0
 40
0
 41
0
  0
SEQEND
 8
0
  0
POLYLINE
  8
0
 62
     0
 66
     1
 10
0
 20
0
 30
0.0
 70
     1
 40
0.75
 41
0.75
  0
VERTEX
  8
0
 10
10.2087
 20
3.99713
 30
0.0
 40
0.0104167
 41
0.0104167
  0
VERTEX
  8
0
 10
10.2087
 20
3.32161
 30
0.0
 40
0.0104167
 41
0.0104167
  0
VERTEX
  8
0
 10
10.8683
 20
3.32161
 30
0.0
 40
0.0104167
 41
0.0104167
  0
VERTEX
  8
0
 10
10.8683
 20
3.99713
 30
0.0
 40
0.0104167
 41
0.0104167
  0
VERTEX
  8
0
 10
10.2087
 20
3.99713
 30
0.0
 40
0.0104167
 41
0.0104167
  0
SEQEND
 8
0
  0
POLYLINE
  8
0
 62
     7
 66
     1
 10
0
 20
0
 30
0.0
 70
     1
 40
0
 41
0
  0
VERTEX
  8
0
 10
10.2087
 20
4.69721
 30
0.0
 40
0
 41
0
  0
VERTEX
  8
0
 10
10.8684
 20
4.69721
 30
0.0
 40
0
 41
0
  0
VERTEX
  8
0
 10
10.8684
 20
3.99713
 30
0.0
 40
0
 41
0
  0
VERTEX
  8
0
 10
10.2087
 20
3.99713
 30
0.0
 40
0
 41
0
  0
VERTEX
  8
0
 10
10.2087
 20
4.69721
 30
0.0
 40
0
 41
0
  0
SEQEND
 8
0
  0
POLYLINE
  8
0
 62
     0
 66
     1
 10
0
 20
0
 30
0.0
 70
     1
 40
0.75
 41
0.75
  0
VERTEX
  8
0
 10
10.2087
 20
4.69721
 30
0.0
 40
0.0104167
 41
0.0104167
  0
VERTEX
  8
0
 10
10.2087
 20
3.99713
 30
0.0
 40
0.0104167
 41
0.0104167
  0
VERTEX
  8
0
 10
10.8684
 20
3.99713
 30
0.0
 40
0.0104167
 41
0.0104167
  0
VERTEX
  8
0
 10
10.8684
 20
4.69721
 30
0.0
 40
0.0104167
 41
0.0104167
  0
VERTEX
  8
0
 10
10.2087
 20
4.69721
 30
0.0
 40
0.0104167
 41
0.0104167
  0
SEQEND
 8
0
  0
POLYLINE
  8
0
 62
     253
 66
     1
 10
0
 20
0
 30
0.0
 40
0.75
 41
0.75
  0
VERTEX
  8
0
 10
10.5385
 20
3.99713
 30
0.0
 40
0.0104167
 41
0.0104167
  0
VERTEX
  8
0
 10
10.5385
 20
4.69721
 30
0.0
 40
0.0104167
 41
0.0104167
  0
SEQEND
 8
0
  0
POLYLINE
  8
0
 62
     7
 66
     1
 10
0
 20
0
 30
0.0
 70
     1
 40
0
 41
0
  0
VERTEX
  8
0
 10
10.2092
 20
9.50851
 30
0.0
 40
0
 41
0
  0
VERTEX
  8
0
 10
10.9308
 20
9.50851
 30
0.0
 40
0
 41
0
  0
VERTEX
  8
0
 10
10.9308
 20
8.79139
 30
0.0
 40
0
 41
0
  0
VERTEX
  8
0
 10
10.2092
 20
8.79139
 30
0.0
 40
0
 41
0
  0
VERTEX
  8
0
 10
10.2092
 20
9.50851
 30
0.0
 40
0
 41
0
  0
SEQEND
 8
0
  0
POLYLINE
  8
0
 62
     0
 66
     1
 10
0
 20
0
 30
0.0
 70
     1
 40
0.75
 41
0.75
  0
VERTEX
  8
0
 10
10.2092
 20
9.50851
 30
0.0
 40
0.0104167
 41
0.0104167
  0
VERTEX
  8
0
 10
10.2092
 20
8.79139
 30
0.0
 40
0.0104167
 41
0.0104167
  0
VERTEX
  8
0
 10
10.9308
 20
8.79139
 30
0.0
 40
0.0104167
 41
0.0104167
  0
VERTEX
  8
0
 10
10.9308
 20
9.50851
 30
0.0
 40
0.0104167
 41
0.0104167
  0
VERTEX
  8
0
 10
10.2092
 20
9.50851
 30
0.0
 40
0.0104167
 41
0.0104167
  0
SEQEND
 8
0
  0
POLYLINE
  8
0
 62
     7
 66
     1
 10
0
 20
0
 30
0.0
 70
     1
 40
0
 41
0
  0
VERTEX
  8
0
 10
10.2092
 20
8.79139
 30
0.0
 40
0
 41
0
  0
VERTEX
  8
0
 10
10.9314
 20
8.79139
 30
0.0
 40
0
 41
0
  0
VERTEX
  8
0
 10
10.9314
 20
8.11529
 30
0.0
 40
0
 41
0
  0
VERTEX
  8
0
 10
10.2092
 20
8.11529
 30
0.0
 40
0
 41
0
  0
VERTEX
  8
0
 10
10.2092
 20
8.79139
 30
0.0
 40
0
 41
0
  0
SEQEND
 8
0
  0
POLYLINE
  8
0
 62
     0
 66
     1
 10
0
 20
0
 30
0.0
 70
     1
 40
0.75
 41
0.75
  0
VERTEX
  8
0
 10
10.2092
 20
8.79139
 30
0.0
 40
0.0104167
 41
0.0104167
  0
VERTEX
  8
0
 10
10.2092
 20
8.11529
 30
0.0
 40
0.0104167
 41
0.0104167
  0
VERTEX
  8
0
 10
10.9314
 20
8.11529
 30
0.0
 40
0.0104167
 41
0.0104167
  0
VERTEX
  8
0
 10
10.9314
 20
8.79139
 30
0.0
 40
0.0104167
 41
0.0104167
  0
VERTEX
  8
0
 10
10.2092
 20
8.79139
 30
0.0
 40
0.0104167
 41
0.0104167
  0
SEQEND
 8
0
  0
POLYLINE
  8
0
 62
     253
 66
     1
 10
0
 20
0
 30
0.0
 40
0.75
 41
0.75
  0
VERTEX
  8
0
 10
10.5703
 20
8.11529
 30
0.0
 40
0.0104167
 41
0.0104167
  0
VERTEX
  8
0
 10
10.5703
 20
8.79139
 30
0.0
 40
0.0104167
 41
0.0104167
  0
SEQEND
 8
0
  0
ENDSEC
  0
EOF
