  0
SECTION
  2
HEADER
  9
$ACADVER
  1
AC1009
  9
$FILLMODE
 70
 0
  9
$SPLFRAME
 70
 1
  9
$EXTMIN
 10
0
 20
0
 30
0.0
  9
$EXTMAX
 10
41.6667
 20
41.6667
 30
0.0
  0
ENDSEC
  0
SECTION
  2
TABLES
  0
TABLE
  2
LAYER
 70
1
  0
LAYER
  2
0
 70
     0
 62
     7
  6
CONTINUOUS
  0
ENDTAB
  0
ENDSEC
  0
SECTION
  2
ENTITIES
  0
POLYLINE
  8
0
 62
     7
 66
     1
 10
0
 20
0
 30
0.0
 70
     1
 40
0
 41
0
  0
VERTEX
  8
0
 10
12.3699
 20
2.31592
 30
0.0
 40
0
 41
0
  0
VERTEX
  8
0
 10
3.14844
 20
2.31592
 30
0.0
 40
0
 41
0
  0
VERTEX
  8
0
 10
3.14844
 20
0.763672
 30
0.0
 40
0
 41
0
  0
VERTEX
  8
0
 10
5.70242
 20
0.763672
 30
0.0
 40
0
 41
0
  0
VERTEX
  8
0
 10
5.70242
 20
0.0133464
 30
0.0
 40
0
 41
0
  0
VERTEX
  8
0
 10
12.3699
 20
0.0133464
 30
0.0
 40
0
 41
0
  0
VERTEX
  8
0
 10
12.3699
 20
2.31592
 30
0.0
 40
0
 41
0
  0
SEQEND
 8
0
  0
POLYLINE
  8
0
 62
     0
 66
     1
 10
0
 20
0
 30
0.0
 70
     1
 40
0.15
 41
0.15
  0
VERTEX
  8
0
 10
12.3699
 20
2.31592
 30
0.0
 40
0.00208333
 41
0.00208333
  0
VERTEX
  8
0
 10
3.14844
 20
2.31592
 30
0.0
 40
0.00208333
 41
0.00208333
  0
VERTEX
  8
0
 10
3.14844
 20
0.763672
 30
0.0
 40
0.00208333
 41
0.00208333
  0
VERTEX
  8
0
 10
5.70242
 20
0.763672
 30
0.0
 40
0.00208333
 41
0.00208333
  0
VERTEX
  8
0
 10
5.70242
 20
0.0133464
 30
0.0
 40
0.00208333
 41
0.00208333
  0
VERTEX
  8
0
 10
12.3699
 20
0.0133464
 30
0.0
 40
0.00208333
 41
0.00208333
  0
VERTEX
  8
0
 10
12.3699
 20
2.31592
 30
0.0
 40
0.00208333
 41
0.00208333
  0
SEQEND
 8
0
  0
TEXT
  8
0
 62
     0
 10
8.90488
 20
1.16466
 30
0.0
 40
0.34375
  1
ULK
 50
0
  0
TEXT
  8
0
 62
     0
 10
9.58249
 20
1.16466
 30
0.0
 40
0.34375
  1
O
 50
0
  0
TEXT
  8
0
 62
     0
 10
9.84479
 20
1.16466
 30
0.0
 40
0.34375
  1
TILA
 50
0
  0
POLYLINE
  8
0
 62
     7
 66
     1
 10
0
 20
0
 30
0.0
 70
     1
 40
0
 41
0
  0
VERTEX
  8
0
 10
3.52175
 20
9.73281
 30
0.0
 40
0
 41
0
  0
VERTEX
  8
0
 10
5.37446
 20
9.73281
 30
0.0
 40
0
 41
0
  0
VERTEX
  8
0
 10
5.37446
 20
5.89908
 30
0.0
 40
0
 41
0
  0
VERTEX
  8
0
 10
3.81478
 20
5.89908
 30
0.0
 40
0
 41
0
  0
VERTEX
  8
0
 10
3.8125
 20
5.61572
 30
0.0
 40
0
 41
0
  0
VERTEX
  8
0
 10
0.7028
 20
5.61572
 30
0.0
 40
0
 41
0
  0
VERTEX
  8
0
 10
0.7028
 20
9.73281
 30
0.0
 40
0
 41
0
  0
VERTEX
  8
0
 10
2.54633
 20
9.73281
 30
0.0
 40
0
 41
0
  0
VERTEX
  8
0
 10
2.54633
 20
9.80512
 30
0.0
 40
0
 41
0
  0
VERTEX
  8
0
 10
3.52175
 20
9.80512
 30
0.0
 40
0
 41
0
  0
VERTEX
  8
0
 10
3.52175
 20
9.73281
 30
0.0
 40
0
 41
0
  0
SEQEND
 8
0
  0
POLYLINE
  8
0
 62
     7
 66
     1
 10
0
 20
0
 30
0.0
 70
     1
 40
0.15
 41
0.15
  0
VERTEX
  8
0
 10
3.52175
 20
9.73281
 30
0.0
 40
0.00208333
 41
0.00208333
  0
VERTEX
  8
0
 10
5.37446
 20
9.73281
 30
0.0
 40
0.00208333
 41
0.00208333
  0
VERTEX
  8
0
 10
5.37446
 20
5.89908
 30
0.0
 40
0.00208333
 41
0.00208333
  0
VERTEX
  8
0
 10
3.81478
 20
5.89908
 30
0.0
 40
0.00208333
 41
0.00208333
  0
VERTEX
  8
0
 10
3.8125
 20
5.61572
 30
0.0
 40
0.00208333
 41
0.00208333
  0
VERTEX
  8
0
 10
0.7028
 20
5.61572
 30
0.0
 40
0.00208333
 41
0.00208333
  0
VERTEX
  8
0
 10
0.7028
 20
9.73281
 30
0.0
 40
0.00208333
 41
0.00208333
  0
VERTEX
  8
0
 10
2.54633
 20
9.73281
 30
0.0
 40
0.00208333
 41
0.00208333
  0
VERTEX
  8
0
 10
2.54633
 20
9.80512
 30
0.0
 40
0.00208333
 41
0.00208333
  0
VERTEX
  8
0
 10
3.52175
 20
9.80512
 30
0.0
 40
0.00208333
 41
0.00208333
  0
VERTEX
  8
0
 10
3.52175
 20
9.73281
 30
0.0
 40
0.00208333
 41
0.00208333
  0
SEQEND
 8
0
  0
TEXT
  8
0
 62
     0
 10
2.797
 20
7.72568
 30
0.0
 40
0.34375
  1
OH
 50
0
  0
POLYLINE
  8
0
 62
     7
 66
     1
 10
0
 20
0
 30
0.0
 70
     1
 40
0
 41
0
  0
VERTEX
  8
0
 10
8.08783
 20
9.5275
 30
0.0
 40
0
 41
0
  0
VERTEX
  8
0
 10
8.61908
 20
9.5275
 30
0.0
 40
0
 41
0
  0
VERTEX
  8
0
 10
8.61908
 20
6.66081
 30
0.0
 40
0
 41
0
  0
VERTEX
  8
0
 10
7.86208
 20
6.66081
 30
0.0
 40
0
 41
0
  0
VERTEX
  8
0
 10
7.86208
 20
6.54622
 30
0.0
 40
0
 41
0
  0
VERTEX
  8
0
 10
5.46821
 20
6.54519
 30
0.0
 40
0
 41
0
  0
VERTEX
  8
0
 10
5.46821
 20
5.89908
 30
0.0
 40
0
 41
0
  0
VERTEX
  8
0
 10
5.37446
 20
5.89908
 30
0.0
 40
0
 41
0
  0
VERTEX
  8
0
 10
5.37446
 20
9.73281
 30
0.0
 40
0
 41
0
  0
VERTEX
  8
0
 10
8.08783
 20
9.73281
 30
0.0
 40
0
 41
0
  0
VERTEX
  8
0
 10
8.08783
 20
9.5275
 30
0.0
 40
0
 41
0
  0
SEQEND
 8
0
  0
POLYLINE
  8
0
 62
     7
 66
     1
 10
0
 20
0
 30
0.0
 70
     1
 40
0.15
 41
0.15
  0
VERTEX
  8
0
 10
8.08783
 20
9.5275
 30
0.0
 40
0.00208333
 41
0.00208333
  0
VERTEX
  8
0
 10
8.61908
 20
9.5275
 30
0.0
 40
0.00208333
 41
0.00208333
  0
VERTEX
  8
0
 10
8.61908
 20
6.66081
 30
0.0
 40
0.00208333
 41
0.00208333
  0
VERTEX
  8
0
 10
7.86208
 20
6.66081
 30
0.0
 40
0.00208333
 41
0.00208333
  0
VERTEX
  8
0
 10
7.86208
 20
6.54622
 30
0.0
 40
0.00208333
 41
0.00208333
  0
VERTEX
  8
0
 10
5.46821
 20
6.54519
 30
0.0
 40
0.00208333
 41
0.00208333
  0
VERTEX
  8
0
 10
5.46821
 20
5.89908
 30
0.0
 40
0.00208333
 41
0.00208333
  0
VERTEX
  8
0
 10
5.37446
 20
5.89908
 30
0.0
 40
0.00208333
 41
0.00208333
  0
VERTEX
  8
0
 10
5.37446
 20
9.73281
 30
0.0
 40
0.00208333
 41
0.00208333
  0
VERTEX
  8
0
 10
8.08783
 20
9.73281
 30
0.0
 40
0.00208333
 41
0.00208333
  0
VERTEX
  8
0
 10
8.08783
 20
9.5275
 30
0.0
 40
0.00208333
 41
0.00208333
  0
SEQEND
 8
0
  0
TEXT
  8
0
 62
     0
 10
6.70287
 20
7.79033
 30
0.0
 40
0.34375
  1
K
 50
0
  0
POLYLINE
  8
0
 62
     7
 66
     1
 10
0
 20
0
 30
0.0
 70
     1
 40
0
 41
0
  0
VERTEX
  8
0
 10
8.61908
 20
6.21446
 30
0.0
 40
0
 41
0
  0
VERTEX
  8
0
 10
8.61376
 20
6.21897
 30
0.0
 40
0
 41
0
  0
VERTEX
  8
0
 10
8.61376
 20
5.90136
 30
0.0
 40
0
 41
0
  0
VERTEX
  8
0
 10
8.73876
 20
5.90136
 30
0.0
 40
0
 41
0
  0
VERTEX
  8
0
 10
8.73876
 20
5.95107
 30
0.0
 40
0
 41
0
  0
VERTEX
  8
0
 10
8.74094
 20
5.94792
 30
0.0
 40
0
 41
0
  0
VERTEX
  8
0
 10
9.46875
 20
5.34375
 30
0.0
 40
0
 41
0
  0
VERTEX
  8
0
 10
8.75489
 20
4.46186
 30
0.0
 40
0
 41
0
  0
VERTEX
  8
0
 10
4.37999
 20
4.46186
 30
0.0
 40
0
 41
0
  0
VERTEX
  8
0
 10
3.8125
 20
5.61458
 30
0.0
 40
0
 41
0
  0
VERTEX
  8
0
 10
3.81478
 20
5.89908
 30
0.0
 40
0
 41
0
  0
VERTEX
  8
0
 10
5.46821
 20
5.89908
 30
0.0
 40
0
 41
0
  0
VERTEX
  8
0
 10
5.46821
 20
6.54519
 30
0.0
 40
0
 41
0
  0
VERTEX
  8
0
 10
7.86404
 20
6.54622
 30
0.0
 40
0
 41
0
  0
VERTEX
  8
0
 10
8.61908
 20
6.54622
 30
0.0
 40
0
 41
0
  0
VERTEX
  8
0
 10
8.61908
 20
6.21446
 30
0.0
 40
0
 41
0
  0
SEQEND
 8
0
  0
POLYLINE
  8
0
 62
     7
 66
     1
 10
0
 20
0
 30
0.0
 70
     1
 40
0.15
 41
0.15
  0
VERTEX
  8
0
 10
8.61908
 20
6.21446
 30
0.0
 40
0.00208333
 41
0.00208333
  0
VERTEX
  8
0
 10
8.61376
 20
6.21897
 30
0.0
 40
0.00208333
 41
0.00208333
  0
VERTEX
  8
0
 10
8.61376
 20
5.90136
 30
0.0
 40
0.00208333
 41
0.00208333
  0
VERTEX
  8
0
 10
8.73876
 20
5.90136
 30
0.0
 40
0.00208333
 41
0.00208333
  0
VERTEX
  8
0
 10
8.73876
 20
5.95107
 30
0.0
 40
0.00208333
 41
0.00208333
  0
VERTEX
  8
0
 10
8.74094
 20
5.94792
 30
0.0
 40
0.00208333
 41
0.00208333
  0
VERTEX
  8
0
 10
9.46875
 20
5.34375
 30
0.0
 40
0.00208333
 41
0.00208333
  0
VERTEX
  8
0
 10
8.75489
 20
4.46186
 30
0.0
 40
0.00208333
 41
0.00208333
  0
VERTEX
  8
0
 10
4.37999
 20
4.46186
 30
0.0
 40
0.00208333
 41
0.00208333
  0
VERTEX
  8
0
 10
3.8125
 20
5.61458
 30
0.0
 40
0.00208333
 41
0.00208333
  0
VERTEX
  8
0
 10
3.81478
 20
5.89908
 30
0.0
 40
0.00208333
 41
0.00208333
  0
VERTEX
  8
0
 10
5.46821
 20
5.89908
 30
0.0
 40
0.00208333
 41
0.00208333
  0
VERTEX
  8
0
 10
5.46821
 20
6.54519
 30
0.0
 40
0.00208333
 41
0.00208333
  0
VERTEX
  8
0
 10
7.86404
 20
6.54622
 30
0.0
 40
0.00208333
 41
0.00208333
  0
VERTEX
  8
0
 10
8.61908
 20
6.54622
 30
0.0
 40
0.00208333
 41
0.00208333
  0
VERTEX
  8
0
 10
8.61908
 20
6.21446
 30
0.0
 40
0.00208333
 41
0.00208333
  0
SEQEND
 8
0
  0
TEXT
  8
0
 62
     0
 10
6.93896
 20
5.50406
 30
0.0
 40
0.34375
  1
UNDEFINED
 50
0
  0
POLYLINE
  8
0
 62
     7
 66
     1
 10
0
 20
0
 30
0.0
 70
     1
 40
0
 41
0
  0
VERTEX
  8
0
 10
0.634711
 20
12.2343
 30
0.0
 40
0
 41
0
  0
VERTEX
  8
0
 10
3.83197
 20
12.2343
 30
0.0
 40
0
 41
0
  0
VERTEX
  8
0
 10
3.83197
 20
10.0661
 30
0.0
 40
0
 41
0
  0
VERTEX
  8
0
 10
0.634711
 20
10.0661
 30
0.0
 40
0
 41
0
  0
VERTEX
  8
0
 10
0.634711
 20
12.2343
 30
0.0
 40
0
 41
0
  0
SEQEND
 8
0
  0
POLYLINE
  8
0
 62
     0
 66
     1
 10
0
 20
0
 30
0.0
 70
     1
 40
0.15
 41
0.15
  0
VERTEX
  8
0
 10
0.634711
 20
12.2343
 30
0.0
 40
0.00208333
 41
0.00208333
  0
VERTEX
  8
0
 10
3.83197
 20
12.2343
 30
0.0
 40
0.00208333
 41
0.00208333
  0
VERTEX
  8
0
 10
3.83197
 20
10.0661
 30
0.0
 40
0.00208333
 41
0.00208333
  0
VERTEX
  8
0
 10
0.634711
 20
10.0661
 30
0.0
 40
0.00208333
 41
0.00208333
  0
VERTEX
  8
0
 10
0.634711
 20
12.2343
 30
0.0
 40
0.00208333
 41
0.00208333
  0
SEQEND
 8
0
  0
TEXT
  8
0
 62
     0
 10
1.71876
 20
11.1502
 30
0.0
 40
0.34375
  1
ULK
 50
0
  0
TEXT
  8
0
 62
     0
 10
2.39638
 20
11.1502
 30
0.0
 40
0.34375
  1
O
 50
0
  0
TEXT
  8
0
 62
     0
 10
2.65868
 20
11.1502
 30
0.0
 40
0.34375
  1
TILA
 50
0
  0
POLYLINE
  8
0
 62
     7
 66
     1
 10
0
 20
0
 30
0.0
 70
     1
 40
0
 41
0
  0
VERTEX
  8
0
 10
12.1407
 20
5.61572
 30
0.0
 40
0
 41
0
  0
VERTEX
  8
0
 10
9.69075
 20
5.61572
 30
0.0
 40
0
 41
0
  0
VERTEX
  8
0
 10
9.54167
 20
5.4375
 30
0.0
 40
0
 41
0
  0
VERTEX
  8
0
 10
8.74408
 20
6.1096
 30
0.0
 40
0
 41
0
  0
VERTEX
  8
0
 10
8.74408
 20
9.73281
 30
0.0
 40
0
 41
0
  0
VERTEX
  8
0
 10
12.1407
 20
9.73281
 30
0.0
 40
0
 41
0
  0
VERTEX
  8
0
 10
12.1407
 20
5.61572
 30
0.0
 40
0
 41
0
  0
SEQEND
 8
0
  0
POLYLINE
  8
0
 62
     7
 66
     1
 10
0
 20
0
 30
0.0
 70
     1
 40
0.15
 41
0.15
  0
VERTEX
  8
0
 10
12.1407
 20
5.61572
 30
0.0
 40
0.00208333
 41
0.00208333
  0
VERTEX
  8
0
 10
9.69075
 20
5.61572
 30
0.0
 40
0.00208333
 41
0.00208333
  0
VERTEX
  8
0
 10
9.54167
 20
5.4375
 30
0.0
 40
0.00208333
 41
0.00208333
  0
VERTEX
  8
0
 10
8.74408
 20
6.1096
 30
0.0
 40
0.00208333
 41
0.00208333
  0
VERTEX
  8
0
 10
8.74408
 20
9.73281
 30
0.0
 40
0.00208333
 41
0.00208333
  0
VERTEX
  8
0
 10
12.1407
 20
9.73281
 30
0.0
 40
0.00208333
 41
0.00208333
  0
VERTEX
  8
0
 10
12.1407
 20
5.61572
 30
0.0
 40
0.00208333
 41
0.00208333
  0
SEQEND
 8
0
  0
TEXT
  8
0
 62
     0
 10
10.1916
 20
7.78349
 30
0.0
 40
0.34375
  1
MH
 50
0
  0
POLYLINE
  8
0
 62
     7
 66
     1
 10
0
 20
0
 30
0.0
 70
     1
 40
0
 41
0
  0
VERTEX
  8
0
 10
4.29042
 20
4.33686
 30
0.0
 40
0
 41
0
  0
VERTEX
  8
0
 10
4.99761
 20
4.33686
 30
0.0
 40
0
 41
0
  0
VERTEX
  8
0
 10
4.99761
 20
2.63883
 30
0.0
 40
0
 41
0
  0
VERTEX
  8
0
 10
0.7028
 20
2.63883
 30
0.0
 40
0
 41
0
  0
VERTEX
  8
0
 10
0.7028
 20
5.48031
 30
0.0
 40
0
 41
0
  0
VERTEX
  8
0
 10
3.73031
 20
5.48031
 30
0.0
 40
0
 41
0
  0
VERTEX
  8
0
 10
4.29042
 20
4.33686
 30
0.0
 40
0
 41
0
  0
SEQEND
 8
0
  0
POLYLINE
  8
0
 62
     7
 66
     1
 10
0
 20
0
 30
0.0
 70
     1
 40
0.15
 41
0.15
  0
VERTEX
  8
0
 10
4.29042
 20
4.33686
 30
0.0
 40
0.00208333
 41
0.00208333
  0
VERTEX
  8
0
 10
4.99761
 20
4.33686
 30
0.0
 40
0.00208333
 41
0.00208333
  0
VERTEX
  8
0
 10
4.99761
 20
2.63883
 30
0.0
 40
0.00208333
 41
0.00208333
  0
VERTEX
  8
0
 10
0.7028
 20
2.63883
 30
0.0
 40
0.00208333
 41
0.00208333
  0
VERTEX
  8
0
 10
0.7028
 20
5.48031
 30
0.0
 40
0.00208333
 41
0.00208333
  0
VERTEX
  8
0
 10
3.73031
 20
5.48031
 30
0.0
 40
0.00208333
 41
0.00208333
  0
VERTEX
  8
0
 10
4.29042
 20
4.33686
 30
0.0
 40
0.00208333
 41
0.00208333
  0
SEQEND
 8
0
  0
TEXT
  8
0
 62
     0
 10
2.12351
 20
3.79736
 30
0.0
 40
0.34375
  1
MH
 50
0
  0
POLYLINE
  8
0
 62
     7
 66
     1
 10
0
 20
0
 30
0.0
 70
     1
 40
0
 41
0
  0
VERTEX
  8
0
 10
12.1407
 20
4.49376
 30
0.0
 40
0
 41
0
  0
VERTEX
  8
0
 10
11.0599
 20
4.49376
 30
0.0
 40
0
 41
0
  0
VERTEX
  8
0
 10
10.2651
 20
3.52989
 30
0.0
 40
0
 41
0
  0
VERTEX
  8
0
 10
10.2651
 20
2.63883
 30
0.0
 40
0
 41
0
  0
VERTEX
  8
0
 10
8.76753
 20
2.63883
 30
0.0
 40
0
 41
0
  0
VERTEX
  8
0
 10
8.76753
 20
4.33686
 30
0.0
 40
0
 41
0
  0
VERTEX
  8
0
 10
8.80106
 20
4.33686
 30
0.0
 40
0
 41
0
  0
VERTEX
  8
0
 10
9.55208
 20
5.27083
 30
0.0
 40
0
 41
0
  0
VERTEX
  8
0
 10
9.55344
 20
5.26779
 30
0.0
 40
0
 41
0
  0
VERTEX
  8
0
 10
9.61458
 20
5.34375
 30
0.0
 40
0
 41
0
  0
VERTEX
  8
0
 10
9.74533
 20
5.50114
 30
0.0
 40
0
 41
0
  0
VERTEX
  8
0
 10
12.1407
 20
5.50114
 30
0.0
 40
0
 41
0
  0
VERTEX
  8
0
 10
12.1407
 20
4.49376
 30
0.0
 40
0
 41
0
  0
SEQEND
 8
0
  0
POLYLINE
  8
0
 62
     7
 66
     1
 10
0
 20
0
 30
0.0
 70
     1
 40
0.15
 41
0.15
  0
VERTEX
  8
0
 10
12.1407
 20
4.49376
 30
0.0
 40
0.00208333
 41
0.00208333
  0
VERTEX
  8
0
 10
11.0599
 20
4.49376
 30
0.0
 40
0.00208333
 41
0.00208333
  0
VERTEX
  8
0
 10
10.2651
 20
3.52989
 30
0.0
 40
0.00208333
 41
0.00208333
  0
VERTEX
  8
0
 10
10.2651
 20
2.63883
 30
0.0
 40
0.00208333
 41
0.00208333
  0
VERTEX
  8
0
 10
8.76753
 20
2.63883
 30
0.0
 40
0.00208333
 41
0.00208333
  0
VERTEX
  8
0
 10
8.76753
 20
4.33686
 30
0.0
 40
0.00208333
 41
0.00208333
  0
VERTEX
  8
0
 10
8.80106
 20
4.33686
 30
0.0
 40
0.00208333
 41
0.00208333
  0
VERTEX
  8
0
 10
9.55208
 20
5.27083
 30
0.0
 40
0.00208333
 41
0.00208333
  0
VERTEX
  8
0
 10
9.55344
 20
5.26779
 30
0.0
 40
0.00208333
 41
0.00208333
  0
VERTEX
  8
0
 10
9.61458
 20
5.34375
 30
0.0
 40
0.00208333
 41
0.00208333
  0
VERTEX
  8
0
 10
9.74533
 20
5.50114
 30
0.0
 40
0.00208333
 41
0.00208333
  0
VERTEX
  8
0
 10
12.1407
 20
5.50114
 30
0.0
 40
0.00208333
 41
0.00208333
  0
VERTEX
  8
0
 10
12.1407
 20
4.49376
 30
0.0
 40
0.00208333
 41
0.00208333
  0
SEQEND
 8
0
  0
TEXT
  8
0
 62
     0
 10
10.2062
 20
4.72611
 30
0.0
 40
0.34375
  1
PSH
 50
0
  0
POLYLINE
  8
0
 62
     7
 66
     1
 10
0
 20
0
 30
0.0
 70
     1
 40
0
 41
0
  0
VERTEX
  8
0
 10
5.13303
 20
4.33686
 30
0.0
 40
0
 41
0
  0
VERTEX
  8
0
 10
6.92833
 20
4.33686
 30
0.0
 40
0
 41
0
  0
VERTEX
  8
0
 10
6.92833
 20
2.63883
 30
0.0
 40
0
 41
0
  0
VERTEX
  8
0
 10
5.13303
 20
2.63883
 30
0.0
 40
0
 41
0
  0
VERTEX
  8
0
 10
5.13303
 20
4.33686
 30
0.0
 40
0
 41
0
  0
SEQEND
 8
0
  0
POLYLINE
  8
0
 62
     7
 66
     1
 10
0
 20
0
 30
0.0
 70
     1
 40
0.15
 41
0.15
  0
VERTEX
  8
0
 10
5.13303
 20
4.33686
 30
0.0
 40
0.00208333
 41
0.00208333
  0
VERTEX
  8
0
 10
6.92833
 20
4.33686
 30
0.0
 40
0.00208333
 41
0.00208333
  0
VERTEX
  8
0
 10
6.92833
 20
2.63883
 30
0.0
 40
0.00208333
 41
0.00208333
  0
VERTEX
  8
0
 10
5.13303
 20
2.63883
 30
0.0
 40
0.00208333
 41
0.00208333
  0
VERTEX
  8
0
 10
5.13303
 20
4.33686
 30
0.0
 40
0.00208333
 41
0.00208333
  0
SEQEND
 8
0
  0
TEXT
  8
0
 62
     0
 10
5.52806
 20
3.33492
 30
0.0
 40
0.34375
  1
TK
 50
0
  0
POLYLINE
  8
0
 62
     7
 66
     1
 10
0
 20
0
 30
0.0
 70
     1
 40
0
 41
0
  0
VERTEX
  8
0
 10
8.58946
 20
2.92031
 30
0.0
 40
0
 41
0
  0
VERTEX
  8
0
 10
8.16336
 20
2.92031
 30
0.0
 40
0
 41
0
  0
VERTEX
  8
0
 10
8.16336
 20
2.63883
 30
0.0
 40
0
 41
0
  0
VERTEX
  8
0
 10
7.06375
 20
2.63883
 30
0.0
 40
0
 41
0
  0
VERTEX
  8
0
 10
7.06375
 20
4.33686
 30
0.0
 40
0
 41
0
  0
VERTEX
  8
0
 10
8.58946
 20
4.33686
 30
0.0
 40
0
 41
0
  0
VERTEX
  8
0
 10
8.58946
 20
2.92031
 30
0.0
 40
0
 41
0
  0
SEQEND
 8
0
  0
POLYLINE
  8
0
 62
     7
 66
     1
 10
0
 20
0
 30
0.0
 70
     1
 40
0.15
 41
0.15
  0
VERTEX
  8
0
 10
8.58946
 20
2.92031
 30
0.0
 40
0.00208333
 41
0.00208333
  0
VERTEX
  8
0
 10
8.16336
 20
2.92031
 30
0.0
 40
0.00208333
 41
0.00208333
  0
VERTEX
  8
0
 10
8.16336
 20
2.63883
 30
0.0
 40
0.00208333
 41
0.00208333
  0
VERTEX
  8
0
 10
7.06375
 20
2.63883
 30
0.0
 40
0.00208333
 41
0.00208333
  0
VERTEX
  8
0
 10
7.06375
 20
4.33686
 30
0.0
 40
0.00208333
 41
0.00208333
  0
VERTEX
  8
0
 10
8.58946
 20
4.33686
 30
0.0
 40
0.00208333
 41
0.00208333
  0
VERTEX
  8
0
 10
8.58946
 20
2.92031
 30
0.0
 40
0.00208333
 41
0.00208333
  0
SEQEND
 8
0
  0
TEXT
  8
0
 62
     0
 10
7.35581
 20
3.78261
 30
0.0
 40
0.34375
  1
WC
 50
0
  0
POLYLINE
  8
0
 62
     7
 66
     1
 10
0
 20
0
 30
0.0
 70
     1
 40
0
 41
0
  0
VERTEX
  8
0
 10
12.0385
 20
2.72711
 30
0.0
 40
0
 41
0
  0
VERTEX
  8
0
 10
10.4213
 20
2.72711
 30
0.0
 40
0
 41
0
  0
VERTEX
  8
0
 10
10.4213
 20
3.47374
 30
0.0
 40
0
 41
0
  0
VERTEX
  8
0
 10
11.1335
 20
4.33751
 30
0.0
 40
0
 41
0
  0
VERTEX
  8
0
 10
12.0385
 20
4.33751
 30
0.0
 40
0
 41
0
  0
VERTEX
  8
0
 10
12.0385
 20
2.72711
 30
0.0
 40
0
 41
0
  0
SEQEND
 8
0
  0
POLYLINE
  8
0
 62
     7
 66
     1
 10
0
 20
0
 30
0.0
 70
     1
 40
0.15
 41
0.15
  0
VERTEX
  8
0
 10
12.0385
 20
2.72711
 30
0.0
 40
0.00208333
 41
0.00208333
  0
VERTEX
  8
0
 10
10.4213
 20
2.72711
 30
0.0
 40
0.00208333
 41
0.00208333
  0
VERTEX
  8
0
 10
10.4213
 20
3.47374
 30
0.0
 40
0.00208333
 41
0.00208333
  0
VERTEX
  8
0
 10
11.1335
 20
4.33751
 30
0.0
 40
0.00208333
 41
0.00208333
  0
VERTEX
  8
0
 10
12.0385
 20
4.33751
 30
0.0
 40
0.00208333
 41
0.00208333
  0
VERTEX
  8
0
 10
12.0385
 20
2.72711
 30
0.0
 40
0.00208333
 41
0.00208333
  0
SEQEND
 8
0
  0
TEXT
  8
0
 62
     0
 10
11.3209
 20
3.4379
 30
0.0
 40
0.34375
  1
UNDEFINED
 50
0
  0
POLYLINE
  8
0
 62
     0
 66
     1
 10
0
 20
0
 30
0.0
 70
     1
 40
0
 41
0
  0
VERTEX
  8
0
 10
0.7028
 20
9.73281
 30
0.0
 40
0
 41
0
  0
VERTEX
  8
0
 10
2.54633
 20
9.73281
 30
0.0
 40
0
 41
0
  0
VERTEX
  8
0
 10
2.54633
 20
10.0661
 30
0.0
 40
0
 41
0
  0
VERTEX
  8
0
 10
0.463217
 20
10.0661
 30
0.0
 40
0
 41
0
  0
VERTEX
  8
0
 10
0.7028
 20
9.73281
 30
0.0
 40
0
 41
0
  0
SEQEND
 8
0
  0
POLYLINE
  8
0
 62
     0
 66
     1
 10
0
 20
0
 30
0.0
 70
     1
 40
0.15
 41
0.15
  0
VERTEX
  8
0
 10
0.7028
 20
9.73281
 30
0.0
 40
0.00208333
 41
0.00208333
  0
VERTEX
  8
0
 10
2.54633
 20
9.73281
 30
0.0
 40
0.00208333
 41
0.00208333
  0
VERTEX
  8
0
 10
2.54633
 20
10.0661
 30
0.0
 40
0.00208333
 41
0.00208333
  0
VERTEX
  8
0
 10
0.463217
 20
10.0661
 30
0.0
 40
0.00208333
 41
0.00208333
  0
VERTEX
  8
0
 10
0.7028
 20
9.73281
 30
0.0
 40
0.00208333
 41
0.00208333
  0
SEQEND
 8
0
  0
POLYLINE
  8
0
 62
     7
 66
     1
 10
0
 20
0
 30
0.0
 70
     1
 40
0
 41
0
  0
VERTEX
  8
0
 10
0.91645
 20
10.0661
 30
0.0
 40
0
 41
0
  0
VERTEX
  8
0
 10
1.72711
 20
10.0661
 30
0.0
 40
0
 41
0
  0
VERTEX
  8
0
 10
1.72711
 20
9.73281
 30
0.0
 40
0
 41
0
  0
VERTEX
  8
0
 10
0.91645
 20
9.73281
 30
0.0
 40
0
 41
0
  0
VERTEX
  8
0
 10
0.91645
 20
10.0661
 30
0.0
 40
0
 41
0
  0
SEQEND
 8
0
  0
POLYLINE
  8
0
 62
     0
 66
     1
 10
0
 20
0
 30
0.0
 70
     1
 40
0.75
 41
0.75
  0
VERTEX
  8
0
 10
0.91645
 20
10.0661
 30
0.0
 40
0.0104167
 41
0.0104167
  0
VERTEX
  8
0
 10
1.72711
 20
10.0661
 30
0.0
 40
0.0104167
 41
0.0104167
  0
VERTEX
  8
0
 10
1.72711
 20
9.73281
 30
0.0
 40
0.0104167
 41
0.0104167
  0
VERTEX
  8
0
 10
0.91645
 20
9.73281
 30
0.0
 40
0.0104167
 41
0.0104167
  0
VERTEX
  8
0
 10
0.91645
 20
10.0661
 30
0.0
 40
0.0104167
 41
0.0104167
  0
SEQEND
 8
0
  0
POLYLINE
  8
0
 62
     7
 66
     1
 10
0
 20
0
 30
0.0
 70
     1
 40
0
 41
0
  0
VERTEX
  8
0
 10
0.91645
 20
10.0661
 30
0.0
 40
0
 41
0
  0
VERTEX
  8
0
 10
1.72711
 20
10.0661
 30
0.0
 40
0
 41
0
  0
VERTEX
  8
0
 10
1.72711
 20
9.73281
 30
0.0
 40
0
 41
0
  0
VERTEX
  8
0
 10
0.91645
 20
9.73281
 30
0.0
 40
0
 41
0
  0
VERTEX
  8
0
 10
0.91645
 20
10.0661
 30
0.0
 40
0
 41
0
  0
SEQEND
 8
0
  0
POLYLINE
  8
0
 62
     0
 66
     1
 10
0
 20
0
 30
0.0
 70
     1
 40
0.75
 41
0.75
  0
VERTEX
  8
0
 10
0.91645
 20
10.0661
 30
0.0
 40
0.0104167
 41
0.0104167
  0
VERTEX
  8
0
 10
1.72711
 20
10.0661
 30
0.0
 40
0.0104167
 41
0.0104167
  0
VERTEX
  8
0
 10
1.72711
 20
9.73281
 30
0.0
 40
0.0104167
 41
0.0104167
  0
VERTEX
  8
0
 10
0.91645
 20
9.73281
 30
0.0
 40
0.0104167
 41
0.0104167
  0
VERTEX
  8
0
 10
0.91645
 20
10.0661
 30
0.0
 40
0.0104167
 41
0.0104167
  0
SEQEND
 8
0
  0
POLYLINE
  8
0
 62
     0
 66
     1
 10
0
 20
0
 30
0.0
 40
0.75
 41
0.75
  0
VERTEX
  8
0
 10
0.994629
 20
9.89947
 30
0.0
 40
0.0104167
 41
0.0104167
  0
VERTEX
  8
0
 10
1.64899
 20
9.89947
 30
0.0
 40
0.0104167
 41
0.0104167
  0
SEQEND
 8
0
  0
POLYLINE
  8
0
 62
     0
 66
     1
 10
0
 20
0
 30
0.0
 40
0.75
 41
0.75
  0
VERTEX
  8
0
 10
0.994629
 20
9.73281
 30
0.0
 40
0.0104167
 41
0.0104167
  0
VERTEX
  8
0
 10
0.994629
 20
10.0661
 30
0.0
 40
0.0104167
 41
0.0104167
  0
SEQEND
 8
0
  0
POLYLINE
  8
0
 62
     0
 66
     1
 10
0
 20
0
 30
0.0
 40
0.75
 41
0.75
  0
VERTEX
  8
0
 10
1.64899
 20
9.73281
 30
0.0
 40
0.0104167
 41
0.0104167
  0
VERTEX
  8
0
 10
1.64899
 20
10.0661
 30
0.0
 40
0.0104167
 41
0.0104167
  0
SEQEND
 8
0
  0
POLYLINE
  8
0
 62
     7
 66
     1
 10
0
 20
0
 30
0.0
 70
     1
 40
0
 41
0
  0
VERTEX
  8
0
 10
1.72711
 20
10.0661
 30
0.0
 40
0
 41
0
  0
VERTEX
  8
0
 10
2.54482
 20
10.0661
 30
0.0
 40
0
 41
0
  0
VERTEX
  8
0
 10
2.54482
 20
9.73281
 30
0.0
 40
0
 41
0
  0
VERTEX
  8
0
 10
1.72711
 20
9.73281
 30
0.0
 40
0
 41
0
  0
VERTEX
  8
0
 10
1.72711
 20
10.0661
 30
0.0
 40
0
 41
0
  0
SEQEND
 8
0
  0
POLYLINE
  8
0
 62
     0
 66
     1
 10
0
 20
0
 30
0.0
 70
     1
 40
0.75
 41
0.75
  0
VERTEX
  8
0
 10
1.72711
 20
10.0661
 30
0.0
 40
0.0104167
 41
0.0104167
  0
VERTEX
  8
0
 10
2.54482
 20
10.0661
 30
0.0
 40
0.0104167
 41
0.0104167
  0
VERTEX
  8
0
 10
2.54482
 20
9.73281
 30
0.0
 40
0.0104167
 41
0.0104167
  0
VERTEX
  8
0
 10
1.72711
 20
9.73281
 30
0.0
 40
0.0104167
 41
0.0104167
  0
VERTEX
  8
0
 10
1.72711
 20
10.0661
 30
0.0
 40
0.0104167
 41
0.0104167
  0
SEQEND
 8
0
  0
POLYLINE
  8
0
 62
     7
 66
     1
 10
0
 20
0
 30
0.0
 70
     1
 40
0
 41
0
  0
VERTEX
  8
0
 10
1.72711
 20
10.0661
 30
0.0
 40
0
 41
0
  0
VERTEX
  8
0
 10
2.54482
 20
10.0661
 30
0.0
 40
0
 41
0
  0
VERTEX
  8
0
 10
2.54482
 20
9.73281
 30
0.0
 40
0
 41
0
  0
VERTEX
  8
0
 10
1.72711
 20
9.73281
 30
0.0
 40
0
 41
0
  0
VERTEX
  8
0
 10
1.72711
 20
10.0661
 30
0.0
 40
0
 41
0
  0
SEQEND
 8
0
  0
POLYLINE
  8
0
 62
     0
 66
     1
 10
0
 20
0
 30
0.0
 70
     1
 40
0.75
 41
0.75
  0
VERTEX
  8
0
 10
1.72711
 20
10.0661
 30
0.0
 40
0.0104167
 41
0.0104167
  0
VERTEX
  8
0
 10
2.54482
 20
10.0661
 30
0.0
 40
0.0104167
 41
0.0104167
  0
VERTEX
  8
0
 10
2.54482
 20
9.73281
 30
0.0
 40
0.0104167
 41
0.0104167
  0
VERTEX
  8
0
 10
1.72711
 20
9.73281
 30
0.0
 40
0.0104167
 41
0.0104167
  0
VERTEX
  8
0
 10
1.72711
 20
10.0661
 30
0.0
 40
0.0104167
 41
0.0104167
  0
SEQEND
 8
0
  0
POLYLINE
  8
0
 62
     0
 66
     1
 10
0
 20
0
 30
0.0
 40
0.75
 41
0.75
  0
VERTEX
  8
0
 10
1.80524
 20
9.89947
 30
0.0
 40
0.0104167
 41
0.0104167
  0
VERTEX
  8
0
 10
2.46669
 20
9.89947
 30
0.0
 40
0.0104167
 41
0.0104167
  0
SEQEND
 8
0
  0
POLYLINE
  8
0
 62
     0
 66
     1
 10
0
 20
0
 30
0.0
 40
0.75
 41
0.75
  0
VERTEX
  8
0
 10
1.80524
 20
9.73281
 30
0.0
 40
0.0104167
 41
0.0104167
  0
VERTEX
  8
0
 10
1.80524
 20
10.0661
 30
0.0
 40
0.0104167
 41
0.0104167
  0
SEQEND
 8
0
  0
POLYLINE
  8
0
 62
     0
 66
     1
 10
0
 20
0
 30
0.0
 40
0.75
 41
0.75
  0
VERTEX
  8
0
 10
2.46669
 20
9.73281
 30
0.0
 40
0.0104167
 41
0.0104167
  0
VERTEX
  8
0
 10
2.46669
 20
10.0661
 30
0.0
 40
0.0104167
 41
0.0104167
  0
SEQEND
 8
0
  0
POLYLINE
  8
0
 62
     0
 66
     1
 10
0
 20
0
 30
0.0
 70
     1
 40
0
 41
0
  0
VERTEX
  8
0
 10
2.54633
 20
10.0661
 30
0.0
 40
0
 41
0
  0
VERTEX
  8
0
 10
3.52175
 20
10.0661
 30
0.0
 40
0
 41
0
  0
VERTEX
  8
0
 10
3.52175
 20
9.80512
 30
0.0
 40
0
 41
0
  0
VERTEX
  8
0
 10
2.54633
 20
9.80512
 30
0.0
 40
0
 41
0
  0
VERTEX
  8
0
 10
2.54633
 20
10.0661
 30
0.0
 40
0
 41
0
  0
SEQEND
 8
0
  0
POLYLINE
  8
0
 62
     0
 66
     1
 10
0
 20
0
 30
0.0
 70
     1
 40
0.15
 41
0.15
  0
VERTEX
  8
0
 10
2.54633
 20
10.0661
 30
0.0
 40
0.00208333
 41
0.00208333
  0
VERTEX
  8
0
 10
3.52175
 20
10.0661
 30
0.0
 40
0.00208333
 41
0.00208333
  0
VERTEX
  8
0
 10
3.52175
 20
9.80512
 30
0.0
 40
0.00208333
 41
0.00208333
  0
VERTEX
  8
0
 10
2.54633
 20
9.80512
 30
0.0
 40
0.00208333
 41
0.00208333
  0
VERTEX
  8
0
 10
2.54633
 20
10.0661
 30
0.0
 40
0.00208333
 41
0.00208333
  0
SEQEND
 8
0
  0
POLYLINE
  8
0
 62
     7
 66
     1
 10
0
 20
0
 30
0.0
 70
     1
 40
0
 41
0
  0
VERTEX
  8
0
 10
2.58469
 20
10.0661
 30
0.0
 40
0
 41
0
  0
VERTEX
  8
0
 10
3.47179
 20
10.0661
 30
0.0
 40
0
 41
0
  0
VERTEX
  8
0
 10
3.47179
 20
9.80512
 30
0.0
 40
0
 41
0
  0
VERTEX
  8
0
 10
2.58469
 20
9.80512
 30
0.0
 40
0
 41
0
  0
VERTEX
  8
0
 10
2.58469
 20
10.0661
 30
0.0
 40
0
 41
0
  0
SEQEND
 8
0
  0
POLYLINE
  8
0
 62
     0
 66
     1
 10
0
 20
0
 30
0.0
 70
     1
 40
0.75
 41
0.75
  0
VERTEX
  8
0
 10
2.58469
 20
10.0661
 30
0.0
 40
0.0104167
 41
0.0104167
  0
VERTEX
  8
0
 10
3.47179
 20
10.0661
 30
0.0
 40
0.0104167
 41
0.0104167
  0
VERTEX
  8
0
 10
3.47179
 20
9.80512
 30
0.0
 40
0.0104167
 41
0.0104167
  0
VERTEX
  8
0
 10
2.58469
 20
9.80512
 30
0.0
 40
0.0104167
 41
0.0104167
  0
VERTEX
  8
0
 10
2.58469
 20
10.0661
 30
0.0
 40
0.0104167
 41
0.0104167
  0
SEQEND
 8
0
  0
POLYLINE
  8
0
 62
     7
 66
     1
 10
0
 20
0
 30
0.0
 70
     1
 40
0
 41
0
  0
VERTEX
  8
0
 10
2.58469
 20
10.0661
 30
0.0
 40
0
 41
0
  0
VERTEX
  8
0
 10
3.47179
 20
10.0661
 30
0.0
 40
0
 41
0
  0
VERTEX
  8
0
 10
3.47179
 20
9.80512
 30
0.0
 40
0
 41
0
  0
VERTEX
  8
0
 10
2.58469
 20
9.80512
 30
0.0
 40
0
 41
0
  0
VERTEX
  8
0
 10
2.58469
 20
10.0661
 30
0.0
 40
0
 41
0
  0
SEQEND
 8
0
  0
POLYLINE
  8
0
 62
     0
 66
     1
 10
0
 20
0
 30
0.0
 70
     1
 40
0.75
 41
0.75
  0
VERTEX
  8
0
 10
2.58469
 20
10.0661
 30
0.0
 40
0.0104167
 41
0.0104167
  0
VERTEX
  8
0
 10
3.47179
 20
10.0661
 30
0.0
 40
0.0104167
 41
0.0104167
  0
VERTEX
  8
0
 10
3.47179
 20
9.80512
 30
0.0
 40
0.0104167
 41
0.0104167
  0
VERTEX
  8
0
 10
2.58469
 20
9.80512
 30
0.0
 40
0.0104167
 41
0.0104167
  0
VERTEX
  8
0
 10
2.58469
 20
10.0661
 30
0.0
 40
0.0104167
 41
0.0104167
  0
SEQEND
 8
0
  0
POLYLINE
  8
0
 62
     0
 66
     1
 10
0
 20
0
 30
0.0
 70
     1
 40
0.75
 41
0.75
  0
VERTEX
  8
0
 10
2.58469
 20
10.0661
 30
0.0
 40
0.0104167
 41
0.0104167
  0
VERTEX
  8
0
 10
2.58469
 20
10.1182
 30
0.0
 40
0.0104167
 41
0.0104167
  0
VERTEX
  8
0
 10
2.59853
 20
10.2741
 30
0.0
 40
0.0104167
 41
0.0104167
  0
VERTEX
  8
0
 10
2.64008
 20
10.4543
 30
0.0
 40
0.0104167
 41
0.0104167
  0
VERTEX
  8
0
 10
2.70942
 20
10.6068
 30
0.0
 40
0.0104167
 41
0.0104167
  0
VERTEX
  8
0
 10
2.80643
 20
10.7315
 30
0.0
 40
0.0104167
 41
0.0104167
  0
VERTEX
  8
0
 10
2.93115
 20
10.8285
 30
0.0
 40
0.0104167
 41
0.0104167
  0
VERTEX
  8
0
 10
3.08365
 20
10.8978
 30
0.0
 40
0.0104167
 41
0.0104167
  0
VERTEX
  8
0
 10
3.26383
 20
10.9394
 30
0.0
 40
0.0104167
 41
0.0104167
  0
VERTEX
  8
0
 10
3.41976
 20
10.9532
 30
0.0
 40
0.0104167
 41
0.0104167
  0
VERTEX
  8
0
 10
3.47179
 20
10.9532
 30
0.0
 40
0.0104167
 41
0.0104167
  0
VERTEX
  8
0
 10
3.47179
 20
10.0661
 30
0.0
 40
0.0104167
 41
0.0104167
  0
VERTEX
  8
0
 10
2.58469
 20
10.0661
 30
0.0
 40
0.0104167
 41
0.0104167
  0
SEQEND
 8
0
  0
POLYLINE
  8
0
 62
     0
 66
     1
 10
0
 20
0
 30
0.0
 70
     1
 40
0
 41
0
  0
VERTEX
  8
0
 10
3.52175
 20
9.73281
 30
0.0
 40
0
 41
0
  0
VERTEX
  8
0
 10
12.1407
 20
9.73281
 30
0.0
 40
0
 41
0
  0
VERTEX
  8
0
 10
12.5366
 20
10.0661
 30
0.0
 40
0
 41
0
  0
VERTEX
  8
0
 10
3.52175
 20
10.0661
 30
0.0
 40
0
 41
0
  0
VERTEX
  8
0
 10
3.52175
 20
9.73281
 30
0.0
 40
0
 41
0
  0
SEQEND
 8
0
  0
POLYLINE
  8
0
 62
     0
 66
     1
 10
0
 20
0
 30
0.0
 70
     1
 40
0.15
 41
0.15
  0
VERTEX
  8
0
 10
3.52175
 20
9.73281
 30
0.0
 40
0.00208333
 41
0.00208333
  0
VERTEX
  8
0
 10
12.1407
 20
9.73281
 30
0.0
 40
0.00208333
 41
0.00208333
  0
VERTEX
  8
0
 10
12.5366
 20
10.0661
 30
0.0
 40
0.00208333
 41
0.00208333
  0
VERTEX
  8
0
 10
3.52175
 20
10.0661
 30
0.0
 40
0.00208333
 41
0.00208333
  0
VERTEX
  8
0
 10
3.52175
 20
9.73281
 30
0.0
 40
0.00208333
 41
0.00208333
  0
SEQEND
 8
0
  0
POLYLINE
  8
0
 62
     7
 66
     1
 10
0
 20
0
 30
0.0
 70
     1
 40
0
 41
0
  0
VERTEX
  8
0
 10
9.70833
 20
10.0661
 30
0.0
 40
0
 41
0
  0
VERTEX
  8
0
 10
11.3624
 20
10.0661
 30
0.0
 40
0
 41
0
  0
VERTEX
  8
0
 10
11.3624
 20
9.73281
 30
0.0
 40
0
 41
0
  0
VERTEX
  8
0
 10
9.70833
 20
9.73281
 30
0.0
 40
0
 41
0
  0
VERTEX
  8
0
 10
9.70833
 20
10.0661
 30
0.0
 40
0
 41
0
  0
SEQEND
 8
0
  0
POLYLINE
  8
0
 62
     0
 66
     1
 10
0
 20
0
 30
0.0
 70
     1
 40
0.75
 41
0.75
  0
VERTEX
  8
0
 10
9.70833
 20
10.0661
 30
0.0
 40
0.0104167
 41
0.0104167
  0
VERTEX
  8
0
 10
11.3624
 20
10.0661
 30
0.0
 40
0.0104167
 41
0.0104167
  0
VERTEX
  8
0
 10
11.3624
 20
9.73281
 30
0.0
 40
0.0104167
 41
0.0104167
  0
VERTEX
  8
0
 10
9.70833
 20
9.73281
 30
0.0
 40
0.0104167
 41
0.0104167
  0
VERTEX
  8
0
 10
9.70833
 20
10.0661
 30
0.0
 40
0.0104167
 41
0.0104167
  0
SEQEND
 8
0
  0
POLYLINE
  8
0
 62
     7
 66
     1
 10
0
 20
0
 30
0.0
 70
     1
 40
0
 41
0
  0
VERTEX
  8
0
 10
9.70833
 20
10.0661
 30
0.0
 40
0
 41
0
  0
VERTEX
  8
0
 10
11.3624
 20
10.0661
 30
0.0
 40
0
 41
0
  0
VERTEX
  8
0
 10
11.3624
 20
9.73281
 30
0.0
 40
0
 41
0
  0
VERTEX
  8
0
 10
9.70833
 20
9.73281
 30
0.0
 40
0
 41
0
  0
VERTEX
  8
0
 10
9.70833
 20
10.0661
 30
0.0
 40
0
 41
0
  0
SEQEND
 8
0
  0
POLYLINE
  8
0
 62
     0
 66
     1
 10
0
 20
0
 30
0.0
 70
     1
 40
0.75
 41
0.75
  0
VERTEX
  8
0
 10
9.70833
 20
10.0661
 30
0.0
 40
0.0104167
 41
0.0104167
  0
VERTEX
  8
0
 10
11.3624
 20
10.0661
 30
0.0
 40
0.0104167
 41
0.0104167
  0
VERTEX
  8
0
 10
11.3624
 20
9.73281
 30
0.0
 40
0.0104167
 41
0.0104167
  0
VERTEX
  8
0
 10
9.70833
 20
9.73281
 30
0.0
 40
0.0104167
 41
0.0104167
  0
VERTEX
  8
0
 10
9.70833
 20
10.0661
 30
0.0
 40
0.0104167
 41
0.0104167
  0
SEQEND
 8
0
  0
POLYLINE
  8
0
 62
     0
 66
     1
 10
0
 20
0
 30
0.0
 40
0.75
 41
0.75
  0
VERTEX
  8
0
 10
9.7864
 20
9.89947
 30
0.0
 40
0.0104167
 41
0.0104167
  0
VERTEX
  8
0
 10
11.2843
 20
9.89947
 30
0.0
 40
0.0104167
 41
0.0104167
  0
SEQEND
 8
0
  0
POLYLINE
  8
0
 62
     0
 66
     1
 10
0
 20
0
 30
0.0
 40
0.75
 41
0.75
  0
VERTEX
  8
0
 10
9.7864
 20
9.73281
 30
0.0
 40
0.0104167
 41
0.0104167
  0
VERTEX
  8
0
 10
9.7864
 20
10.0661
 30
0.0
 40
0.0104167
 41
0.0104167
  0
SEQEND
 8
0
  0
POLYLINE
  8
0
 62
     0
 66
     1
 10
0
 20
0
 30
0.0
 40
0.75
 41
0.75
  0
VERTEX
  8
0
 10
11.2843
 20
9.73281
 30
0.0
 40
0.0104167
 41
0.0104167
  0
VERTEX
  8
0
 10
11.2843
 20
10.0661
 30
0.0
 40
0.0104167
 41
0.0104167
  0
SEQEND
 8
0
  0
POLYLINE
  8
0
 62
     7
 66
     1
 10
0
 20
0
 30
0.0
 70
     1
 40
0
 41
0
  0
VERTEX
  8
0
 10
4.81917
 20
10.0661
 30
0.0
 40
0
 41
0
  0
VERTEX
  8
0
 10
6.4656
 20
10.0661
 30
0.0
 40
0
 41
0
  0
VERTEX
  8
0
 10
6.4656
 20
9.73281
 30
0.0
 40
0
 41
0
  0
VERTEX
  8
0
 10
4.81917
 20
9.73281
 30
0.0
 40
0
 41
0
  0
VERTEX
  8
0
 10
4.81917
 20
10.0661
 30
0.0
 40
0
 41
0
  0
SEQEND
 8
0
  0
POLYLINE
  8
0
 62
     0
 66
     1
 10
0
 20
0
 30
0.0
 70
     1
 40
0.75
 41
0.75
  0
VERTEX
  8
0
 10
4.81917
 20
10.0661
 30
0.0
 40
0.0104167
 41
0.0104167
  0
VERTEX
  8
0
 10
6.4656
 20
10.0661
 30
0.0
 40
0.0104167
 41
0.0104167
  0
VERTEX
  8
0
 10
6.4656
 20
9.73281
 30
0.0
 40
0.0104167
 41
0.0104167
  0
VERTEX
  8
0
 10
4.81917
 20
9.73281
 30
0.0
 40
0.0104167
 41
0.0104167
  0
VERTEX
  8
0
 10
4.81917
 20
10.0661
 30
0.0
 40
0.0104167
 41
0.0104167
  0
SEQEND
 8
0
  0
POLYLINE
  8
0
 62
     7
 66
     1
 10
0
 20
0
 30
0.0
 70
     1
 40
0
 41
0
  0
VERTEX
  8
0
 10
4.81917
 20
10.0661
 30
0.0
 40
0
 41
0
  0
VERTEX
  8
0
 10
6.4656
 20
10.0661
 30
0.0
 40
0
 41
0
  0
VERTEX
  8
0
 10
6.4656
 20
9.73281
 30
0.0
 40
0
 41
0
  0
VERTEX
  8
0
 10
4.81917
 20
9.73281
 30
0.0
 40
0
 41
0
  0
VERTEX
  8
0
 10
4.81917
 20
10.0661
 30
0.0
 40
0
 41
0
  0
SEQEND
 8
0
  0
POLYLINE
  8
0
 62
     0
 66
     1
 10
0
 20
0
 30
0.0
 70
     1
 40
0.75
 41
0.75
  0
VERTEX
  8
0
 10
4.81917
 20
10.0661
 30
0.0
 40
0.0104167
 41
0.0104167
  0
VERTEX
  8
0
 10
6.4656
 20
10.0661
 30
0.0
 40
0.0104167
 41
0.0104167
  0
VERTEX
  8
0
 10
6.4656
 20
9.73281
 30
0.0
 40
0.0104167
 41
0.0104167
  0
VERTEX
  8
0
 10
4.81917
 20
9.73281
 30
0.0
 40
0.0104167
 41
0.0104167
  0
VERTEX
  8
0
 10
4.81917
 20
10.0661
 30
0.0
 40
0.0104167
 41
0.0104167
  0
SEQEND
 8
0
  0
POLYLINE
  8
0
 62
     0
 66
     1
 10
0
 20
0
 30
0.0
 40
0.75
 41
0.75
  0
VERTEX
  8
0
 10
4.89725
 20
9.89947
 30
0.0
 40
0.0104167
 41
0.0104167
  0
VERTEX
  8
0
 10
6.38747
 20
9.89947
 30
0.0
 40
0.0104167
 41
0.0104167
  0
SEQEND
 8
0
  0
POLYLINE
  8
0
 62
     0
 66
     1
 10
0
 20
0
 30
0.0
 40
0.75
 41
0.75
  0
VERTEX
  8
0
 10
4.89725
 20
9.73281
 30
0.0
 40
0.0104167
 41
0.0104167
  0
VERTEX
  8
0
 10
4.89725
 20
10.0661
 30
0.0
 40
0.0104167
 41
0.0104167
  0
SEQEND
 8
0
  0
POLYLINE
  8
0
 62
     0
 66
     1
 10
0
 20
0
 30
0.0
 40
0.75
 41
0.75
  0
VERTEX
  8
0
 10
6.38747
 20
9.73281
 30
0.0
 40
0.0104167
 41
0.0104167
  0
VERTEX
  8
0
 10
6.38747
 20
10.0661
 30
0.0
 40
0.0104167
 41
0.0104167
  0
SEQEND
 8
0
  0
POLYLINE
  8
0
 62
     0
 66
     1
 10
0
 20
0
 30
0.0
 70
     1
 40
0
 41
0
  0
VERTEX
  8
0
 10
12.1407
 20
9.73281
 30
0.0
 40
0
 41
0
  0
VERTEX
  8
0
 10
12.1407
 20
8.00976
 30
0.0
 40
0
 41
0
  0
VERTEX
  8
0
 10
12.5366
 20
8.00976
 30
0.0
 40
0
 41
0
  0
VERTEX
  8
0
 10
12.5366
 20
10.0661
 30
0.0
 40
0
 41
0
  0
VERTEX
  8
0
 10
12.1407
 20
9.73281
 30
0.0
 40
0
 41
0
  0
SEQEND
 8
0
  0
POLYLINE
  8
0
 62
     0
 66
     1
 10
0
 20
0
 30
0.0
 70
     1
 40
0.15
 41
0.15
  0
VERTEX
  8
0
 10
12.1407
 20
9.73281
 30
0.0
 40
0.00208333
 41
0.00208333
  0
VERTEX
  8
0
 10
12.1407
 20
8.00976
 30
0.0
 40
0.00208333
 41
0.00208333
  0
VERTEX
  8
0
 10
12.5366
 20
8.00976
 30
0.0
 40
0.00208333
 41
0.00208333
  0
VERTEX
  8
0
 10
12.5366
 20
10.0661
 30
0.0
 40
0.00208333
 41
0.00208333
  0
VERTEX
  8
0
 10
12.1407
 20
9.73281
 30
0.0
 40
0.00208333
 41
0.00208333
  0
SEQEND
 8
0
  0
POLYLINE
  8
0
 62
     0
 66
     1
 10
0
 20
0
 30
0.0
 70
     1
 40
0
 41
0
  0
VERTEX
  8
0
 10
12.1407
 20
8.00976
 30
0.0
 40
0
 41
0
  0
VERTEX
  8
0
 10
12.3699
 20
8.00976
 30
0.0
 40
0
 41
0
  0
VERTEX
  8
0
 10
12.3699
 20
4.49376
 30
0.0
 40
0
 41
0
  0
VERTEX
  8
0
 10
12.1407
 20
4.49376
 30
0.0
 40
0
 41
0
  0
VERTEX
  8
0
 10
12.1407
 20
8.00976
 30
0.0
 40
0
 41
0
  0
SEQEND
 8
0
  0
POLYLINE
  8
0
 62
     0
 66
     1
 10
0
 20
0
 30
0.0
 70
     1
 40
0.15
 41
0.15
  0
VERTEX
  8
0
 10
12.1407
 20
8.00976
 30
0.0
 40
0.00208333
 41
0.00208333
  0
VERTEX
  8
0
 10
12.3699
 20
8.00976
 30
0.0
 40
0.00208333
 41
0.00208333
  0
VERTEX
  8
0
 10
12.3699
 20
4.49376
 30
0.0
 40
0.00208333
 41
0.00208333
  0
VERTEX
  8
0
 10
12.1407
 20
4.49376
 30
0.0
 40
0.00208333
 41
0.00208333
  0
VERTEX
  8
0
 10
12.1407
 20
8.00976
 30
0.0
 40
0.00208333
 41
0.00208333
  0
SEQEND
 8
0
  0
POLYLINE
  8
0
 62
     0
 66
     1
 10
0
 20
0
 30
0.0
 70
     1
 40
0
 41
0
  0
VERTEX
  8
0
 10
12.0385
 20
4.49376
 30
0.0
 40
0
 41
0
  0
VERTEX
  8
0
 10
12.0385
 20
2.72711
 30
0.0
 40
0
 41
0
  0
VERTEX
  8
0
 10
12.3699
 20
2.31592
 30
0.0
 40
0
 41
0
  0
VERTEX
  8
0
 10
12.3699
 20
4.49376
 30
0.0
 40
0
 41
0
  0
VERTEX
  8
0
 10
12.0385
 20
4.49376
 30
0.0
 40
0
 41
0
  0
SEQEND
 8
0
  0
POLYLINE
  8
0
 62
     0
 66
     1
 10
0
 20
0
 30
0.0
 70
     1
 40
0.15
 41
0.15
  0
VERTEX
  8
0
 10
12.0385
 20
4.49376
 30
0.0
 40
0.00208333
 41
0.00208333
  0
VERTEX
  8
0
 10
12.0385
 20
2.72711
 30
0.0
 40
0.00208333
 41
0.00208333
  0
VERTEX
  8
0
 10
12.3699
 20
2.31592
 30
0.0
 40
0.00208333
 41
0.00208333
  0
VERTEX
  8
0
 10
12.3699
 20
4.49376
 30
0.0
 40
0.00208333
 41
0.00208333
  0
VERTEX
  8
0
 10
12.0385
 20
4.49376
 30
0.0
 40
0.00208333
 41
0.00208333
  0
SEQEND
 8
0
  0
POLYLINE
  8
0
 62
     0
 66
     1
 10
0
 20
0
 30
0.0
 70
     1
 40
0
 41
0
  0
VERTEX
  8
0
 10
12.0385
 20
2.72711
 30
0.0
 40
0
 41
0
  0
VERTEX
  8
0
 10
10.2651
 20
2.72711
 30
0.0
 40
0
 41
0
  0
VERTEX
  8
0
 10
10.2651
 20
2.31592
 30
0.0
 40
0
 41
0
  0
VERTEX
  8
0
 10
12.3699
 20
2.31592
 30
0.0
 40
0
 41
0
  0
VERTEX
  8
0
 10
12.0385
 20
2.72711
 30
0.0
 40
0
 41
0
  0
SEQEND
 8
0
  0
POLYLINE
  8
0
 62
     0
 66
     1
 10
0
 20
0
 30
0.0
 70
     1
 40
0.15
 41
0.15
  0
VERTEX
  8
0
 10
12.0385
 20
2.72711
 30
0.0
 40
0.00208333
 41
0.00208333
  0
VERTEX
  8
0
 10
10.2651
 20
2.72711
 30
0.0
 40
0.00208333
 41
0.00208333
  0
VERTEX
  8
0
 10
10.2651
 20
2.31592
 30
0.0
 40
0.00208333
 41
0.00208333
  0
VERTEX
  8
0
 10
12.3699
 20
2.31592
 30
0.0
 40
0.00208333
 41
0.00208333
  0
VERTEX
  8
0
 10
12.0385
 20
2.72711
 30
0.0
 40
0.00208333
 41
0.00208333
  0
SEQEND
 8
0
  0
POLYLINE
  8
0
 62
     7
 66
     1
 10
0
 20
0
 30
0.0
 70
     1
 40
0
 41
0
  0
VERTEX
  8
0
 10
10.9915
 20
2.72711
 30
0.0
 40
0
 41
0
  0
VERTEX
  8
0
 10
11.4465
 20
2.72711
 30
0.0
 40
0
 41
0
  0
VERTEX
  8
0
 10
11.4465
 20
2.31592
 30
0.0
 40
0
 41
0
  0
VERTEX
  8
0
 10
10.9915
 20
2.31592
 30
0.0
 40
0
 41
0
  0
VERTEX
  8
0
 10
10.9915
 20
2.72711
 30
0.0
 40
0
 41
0
  0
SEQEND
 8
0
  0
POLYLINE
  8
0
 62
     0
 66
     1
 10
0
 20
0
 30
0.0
 70
     1
 40
0.75
 41
0.75
  0
VERTEX
  8
0
 10
10.9915
 20
2.72711
 30
0.0
 40
0.0104167
 41
0.0104167
  0
VERTEX
  8
0
 10
11.4465
 20
2.72711
 30
0.0
 40
0.0104167
 41
0.0104167
  0
VERTEX
  8
0
 10
11.4465
 20
2.31592
 30
0.0
 40
0.0104167
 41
0.0104167
  0
VERTEX
  8
0
 10
10.9915
 20
2.31592
 30
0.0
 40
0.0104167
 41
0.0104167
  0
VERTEX
  8
0
 10
10.9915
 20
2.72711
 30
0.0
 40
0.0104167
 41
0.0104167
  0
SEQEND
 8
0
  0
POLYLINE
  8
0
 62
     7
 66
     1
 10
0
 20
0
 30
0.0
 70
     1
 40
0
 41
0
  0
VERTEX
  8
0
 10
10.9915
 20
2.72711
 30
0.0
 40
0
 41
0
  0
VERTEX
  8
0
 10
11.4465
 20
2.72711
 30
0.0
 40
0
 41
0
  0
VERTEX
  8
0
 10
11.4465
 20
2.31592
 30
0.0
 40
0
 41
0
  0
VERTEX
  8
0
 10
10.9915
 20
2.31592
 30
0.0
 40
0
 41
0
  0
VERTEX
  8
0
 10
10.9915
 20
2.72711
 30
0.0
 40
0
 41
0
  0
SEQEND
 8
0
  0
POLYLINE
  8
0
 62
     0
 66
     1
 10
0
 20
0
 30
0.0
 70
     1
 40
0.75
 41
0.75
  0
VERTEX
  8
0
 10
10.9915
 20
2.72711
 30
0.0
 40
0.0104167
 41
0.0104167
  0
VERTEX
  8
0
 10
11.4465
 20
2.72711
 30
0.0
 40
0.0104167
 41
0.0104167
  0
VERTEX
  8
0
 10
11.4465
 20
2.31592
 30
0.0
 40
0.0104167
 41
0.0104167
  0
VERTEX
  8
0
 10
10.9915
 20
2.31592
 30
0.0
 40
0.0104167
 41
0.0104167
  0
VERTEX
  8
0
 10
10.9915
 20
2.72711
 30
0.0
 40
0.0104167
 41
0.0104167
  0
SEQEND
 8
0
  0
POLYLINE
  8
0
 62
     0
 66
     1
 10
0
 20
0
 30
0.0
 40
0.75
 41
0.75
  0
VERTEX
  8
0
 10
11.3684
 20
2.52149
 30
0.0
 40
0.0104167
 41
0.0104167
  0
VERTEX
  8
0
 10
11.0696
 20
2.52149
 30
0.0
 40
0.0104167
 41
0.0104167
  0
SEQEND
 8
0
  0
POLYLINE
  8
0
 62
     0
 66
     1
 10
0
 20
0
 30
0.0
 40
0.75
 41
0.75
  0
VERTEX
  8
0
 10
11.3684
 20
2.72706
 30
0.0
 40
0.0104167
 41
0.0104167
  0
VERTEX
  8
0
 10
11.3684
 20
2.31597
 30
0.0
 40
0.0104167
 41
0.0104167
  0
SEQEND
 8
0
  0
POLYLINE
  8
0
 62
     0
 66
     1
 10
0
 20
0
 30
0.0
 40
0.75
 41
0.75
  0
VERTEX
  8
0
 10
11.0696
 20
2.72706
 30
0.0
 40
0.0104167
 41
0.0104167
  0
VERTEX
  8
0
 10
11.0696
 20
2.31597
 30
0.0
 40
0.0104167
 41
0.0104167
  0
SEQEND
 8
0
  0
POLYLINE
  8
0
 62
     0
 66
     1
 10
0
 20
0
 30
0.0
 70
     1
 40
0
 41
0
  0
VERTEX
  8
0
 10
1.81885
 20
2.63883
 30
0.0
 40
0
 41
0
  0
VERTEX
  8
0
 10
10.2651
 20
2.63883
 30
0.0
 40
0
 41
0
  0
VERTEX
  8
0
 10
10.2651
 20
2.31592
 30
0.0
 40
0
 41
0
  0
VERTEX
  8
0
 10
1.81885
 20
2.31592
 30
0.0
 40
0
 41
0
  0
VERTEX
  8
0
 10
1.81885
 20
2.63883
 30
0.0
 40
0
 41
0
  0
SEQEND
 8
0
  0
POLYLINE
  8
0
 62
     0
 66
     1
 10
0
 20
0
 30
0.0
 70
     1
 40
0.15
 41
0.15
  0
VERTEX
  8
0
 10
1.81885
 20
2.63883
 30
0.0
 40
0.00208333
 41
0.00208333
  0
VERTEX
  8
0
 10
10.2651
 20
2.63883
 30
0.0
 40
0.00208333
 41
0.00208333
  0
VERTEX
  8
0
 10
10.2651
 20
2.31592
 30
0.0
 40
0.00208333
 41
0.00208333
  0
VERTEX
  8
0
 10
1.81885
 20
2.31592
 30
0.0
 40
0.00208333
 41
0.00208333
  0
VERTEX
  8
0
 10
1.81885
 20
2.63883
 30
0.0
 40
0.00208333
 41
0.00208333
  0
SEQEND
 8
0
  0
POLYLINE
  8
0
 62
     7
 66
     1
 10
0
 20
0
 30
0.0
 70
     1
 40
0
 41
0
  0
VERTEX
  8
0
 10
2.53749
 20
2.63883
 30
0.0
 40
0
 41
0
  0
VERTEX
  8
0
 10
3.54742
 20
2.63883
 30
0.0
 40
0
 41
0
  0
VERTEX
  8
0
 10
3.54742
 20
2.31592
 30
0.0
 40
0
 41
0
  0
VERTEX
  8
0
 10
2.53749
 20
2.31592
 30
0.0
 40
0
 41
0
  0
VERTEX
  8
0
 10
2.53749
 20
2.63883
 30
0.0
 40
0
 41
0
  0
SEQEND
 8
0
  0
POLYLINE
  8
0
 62
     0
 66
     1
 10
0
 20
0
 30
0.0
 70
     1
 40
0.75
 41
0.75
  0
VERTEX
  8
0
 10
2.53749
 20
2.63883
 30
0.0
 40
0.0104167
 41
0.0104167
  0
VERTEX
  8
0
 10
3.54742
 20
2.63883
 30
0.0
 40
0.0104167
 41
0.0104167
  0
VERTEX
  8
0
 10
3.54742
 20
2.31592
 30
0.0
 40
0.0104167
 41
0.0104167
  0
VERTEX
  8
0
 10
2.53749
 20
2.31592
 30
0.0
 40
0.0104167
 41
0.0104167
  0
VERTEX
  8
0
 10
2.53749
 20
2.63883
 30
0.0
 40
0.0104167
 41
0.0104167
  0
SEQEND
 8
0
  0
POLYLINE
  8
0
 62
     7
 66
     1
 10
0
 20
0
 30
0.0
 70
     1
 40
0
 41
0
  0
VERTEX
  8
0
 10
2.53749
 20
2.63883
 30
0.0
 40
0
 41
0
  0
VERTEX
  8
0
 10
3.54742
 20
2.63883
 30
0.0
 40
0
 41
0
  0
VERTEX
  8
0
 10
3.54742
 20
2.31592
 30
0.0
 40
0
 41
0
  0
VERTEX
  8
0
 10
2.53749
 20
2.31592
 30
0.0
 40
0
 41
0
  0
VERTEX
  8
0
 10
2.53749
 20
2.63883
 30
0.0
 40
0
 41
0
  0
SEQEND
 8
0
  0
POLYLINE
  8
0
 62
     0
 66
     1
 10
0
 20
0
 30
0.0
 70
     1
 40
0.75
 41
0.75
  0
VERTEX
  8
0
 10
2.53749
 20
2.63883
 30
0.0
 40
0.0104167
 41
0.0104167
  0
VERTEX
  8
0
 10
3.54742
 20
2.63883
 30
0.0
 40
0.0104167
 41
0.0104167
  0
VERTEX
  8
0
 10
3.54742
 20
2.31592
 30
0.0
 40
0.0104167
 41
0.0104167
  0
VERTEX
  8
0
 10
2.53749
 20
2.31592
 30
0.0
 40
0.0104167
 41
0.0104167
  0
VERTEX
  8
0
 10
2.53749
 20
2.63883
 30
0.0
 40
0.0104167
 41
0.0104167
  0
SEQEND
 8
0
  0
POLYLINE
  8
0
 62
     0
 66
     1
 10
0
 20
0
 30
0.0
 40
0.75
 41
0.75
  0
VERTEX
  8
0
 10
3.46929
 20
2.47743
 30
0.0
 40
0.0104167
 41
0.0104167
  0
VERTEX
  8
0
 10
2.61561
 20
2.47743
 30
0.0
 40
0.0104167
 41
0.0104167
  0
SEQEND
 8
0
  0
POLYLINE
  8
0
 62
     0
 66
     1
 10
0
 20
0
 30
0.0
 40
0.75
 41
0.75
  0
VERTEX
  8
0
 10
3.46929
 20
2.63889
 30
0.0
 40
0.0104167
 41
0.0104167
  0
VERTEX
  8
0
 10
3.46929
 20
2.31597
 30
0.0
 40
0.0104167
 41
0.0104167
  0
SEQEND
 8
0
  0
POLYLINE
  8
0
 62
     0
 66
     1
 10
0
 20
0
 30
0.0
 40
0.75
 41
0.75
  0
VERTEX
  8
0
 10
2.61561
 20
2.63889
 30
0.0
 40
0.0104167
 41
0.0104167
  0
VERTEX
  8
0
 10
2.61561
 20
2.31597
 30
0.0
 40
0.0104167
 41
0.0104167
  0
SEQEND
 8
0
  0
POLYLINE
  8
0
 62
     7
 66
     1
 10
0
 20
0
 30
0.0
 70
     1
 40
0
 41
0
  0
VERTEX
  8
0
 10
3.54742
 20
2.63883
 30
0.0
 40
0
 41
0
  0
VERTEX
  8
0
 10
3.87435
 20
2.63883
 30
0.0
 40
0
 41
0
  0
VERTEX
  8
0
 10
3.87435
 20
2.31592
 30
0.0
 40
0
 41
0
  0
VERTEX
  8
0
 10
3.54742
 20
2.31592
 30
0.0
 40
0
 41
0
  0
VERTEX
  8
0
 10
3.54742
 20
2.63883
 30
0.0
 40
0
 41
0
  0
SEQEND
 8
0
  0
POLYLINE
  8
0
 62
     0
 66
     1
 10
0
 20
0
 30
0.0
 70
     1
 40
0.75
 41
0.75
  0
VERTEX
  8
0
 10
3.54742
 20
2.63883
 30
0.0
 40
0.0104167
 41
0.0104167
  0
VERTEX
  8
0
 10
3.87435
 20
2.63883
 30
0.0
 40
0.0104167
 41
0.0104167
  0
VERTEX
  8
0
 10
3.87435
 20
2.31592
 30
0.0
 40
0.0104167
 41
0.0104167
  0
VERTEX
  8
0
 10
3.54742
 20
2.31592
 30
0.0
 40
0.0104167
 41
0.0104167
  0
VERTEX
  8
0
 10
3.54742
 20
2.63883
 30
0.0
 40
0.0104167
 41
0.0104167
  0
SEQEND
 8
0
  0
POLYLINE
  8
0
 62
     7
 66
     1
 10
0
 20
0
 30
0.0
 70
     1
 40
0
 41
0
  0
VERTEX
  8
0
 10
3.54742
 20
2.63883
 30
0.0
 40
0
 41
0
  0
VERTEX
  8
0
 10
3.87435
 20
2.63883
 30
0.0
 40
0
 41
0
  0
VERTEX
  8
0
 10
3.87435
 20
2.31592
 30
0.0
 40
0
 41
0
  0
VERTEX
  8
0
 10
3.54742
 20
2.31592
 30
0.0
 40
0
 41
0
  0
VERTEX
  8
0
 10
3.54742
 20
2.63883
 30
0.0
 40
0
 41
0
  0
SEQEND
 8
0
  0
POLYLINE
  8
0
 62
     0
 66
     1
 10
0
 20
0
 30
0.0
 70
     1
 40
0.75
 41
0.75
  0
VERTEX
  8
0
 10
3.54742
 20
2.63883
 30
0.0
 40
0.0104167
 41
0.0104167
  0
VERTEX
  8
0
 10
3.87435
 20
2.63883
 30
0.0
 40
0.0104167
 41
0.0104167
  0
VERTEX
  8
0
 10
3.87435
 20
2.31592
 30
0.0
 40
0.0104167
 41
0.0104167
  0
VERTEX
  8
0
 10
3.54742
 20
2.31592
 30
0.0
 40
0.0104167
 41
0.0104167
  0
VERTEX
  8
0
 10
3.54742
 20
2.63883
 30
0.0
 40
0.0104167
 41
0.0104167
  0
SEQEND
 8
0
  0
POLYLINE
  8
0
 62
     0
 66
     1
 10
0
 20
0
 30
0.0
 40
0.75
 41
0.75
  0
VERTEX
  8
0
 10
3.79628
 20
2.47743
 30
0.0
 40
0.0104167
 41
0.0104167
  0
VERTEX
  8
0
 10
3.62554
 20
2.47743
 30
0.0
 40
0.0104167
 41
0.0104167
  0
SEQEND
 8
0
  0
POLYLINE
  8
0
 62
     0
 66
     1
 10
0
 20
0
 30
0.0
 40
0.75
 41
0.75
  0
VERTEX
  8
0
 10
3.79628
 20
2.63889
 30
0.0
 40
0.0104167
 41
0.0104167
  0
VERTEX
  8
0
 10
3.79628
 20
2.31597
 30
0.0
 40
0.0104167
 41
0.0104167
  0
SEQEND
 8
0
  0
POLYLINE
  8
0
 62
     0
 66
     1
 10
0
 20
0
 30
0.0
 40
0.75
 41
0.75
  0
VERTEX
  8
0
 10
3.62554
 20
2.63889
 30
0.0
 40
0.0104167
 41
0.0104167
  0
VERTEX
  8
0
 10
3.62554
 20
2.31597
 30
0.0
 40
0.0104167
 41
0.0104167
  0
SEQEND
 8
0
  0
POLYLINE
  8
0
 62
     7
 66
     1
 10
0
 20
0
 30
0.0
 70
     1
 40
0
 41
0
  0
VERTEX
  8
0
 10
5.23699
 20
2.63883
 30
0.0
 40
0
 41
0
  0
VERTEX
  8
0
 10
6.24149
 20
2.63883
 30
0.0
 40
0
 41
0
  0
VERTEX
  8
0
 10
6.24149
 20
2.31592
 30
0.0
 40
0
 41
0
  0
VERTEX
  8
0
 10
5.23699
 20
2.31592
 30
0.0
 40
0
 41
0
  0
VERTEX
  8
0
 10
5.23699
 20
2.63883
 30
0.0
 40
0
 41
0
  0
SEQEND
 8
0
  0
POLYLINE
  8
0
 62
     0
 66
     1
 10
0
 20
0
 30
0.0
 70
     1
 40
0.75
 41
0.75
  0
VERTEX
  8
0
 10
5.23699
 20
2.63883
 30
0.0
 40
0.0104167
 41
0.0104167
  0
VERTEX
  8
0
 10
6.24149
 20
2.63883
 30
0.0
 40
0.0104167
 41
0.0104167
  0
VERTEX
  8
0
 10
6.24149
 20
2.31592
 30
0.0
 40
0.0104167
 41
0.0104167
  0
VERTEX
  8
0
 10
5.23699
 20
2.31592
 30
0.0
 40
0.0104167
 41
0.0104167
  0
VERTEX
  8
0
 10
5.23699
 20
2.63883
 30
0.0
 40
0.0104167
 41
0.0104167
  0
SEQEND
 8
0
  0
POLYLINE
  8
0
 62
     7
 66
     1
 10
0
 20
0
 30
0.0
 70
     1
 40
0
 41
0
  0
VERTEX
  8
0
 10
5.23699
 20
2.63883
 30
0.0
 40
0
 41
0
  0
VERTEX
  8
0
 10
6.24149
 20
2.63883
 30
0.0
 40
0
 41
0
  0
VERTEX
  8
0
 10
6.24149
 20
2.31592
 30
0.0
 40
0
 41
0
  0
VERTEX
  8
0
 10
5.23699
 20
2.31592
 30
0.0
 40
0
 41
0
  0
VERTEX
  8
0
 10
5.23699
 20
2.63883
 30
0.0
 40
0
 41
0
  0
SEQEND
 8
0
  0
POLYLINE
  8
0
 62
     0
 66
     1
 10
0
 20
0
 30
0.0
 70
     1
 40
0.75
 41
0.75
  0
VERTEX
  8
0
 10
5.23699
 20
2.63883
 30
0.0
 40
0.0104167
 41
0.0104167
  0
VERTEX
  8
0
 10
6.24149
 20
2.63883
 30
0.0
 40
0.0104167
 41
0.0104167
  0
VERTEX
  8
0
 10
6.24149
 20
2.31592
 30
0.0
 40
0.0104167
 41
0.0104167
  0
VERTEX
  8
0
 10
5.23699
 20
2.31592
 30
0.0
 40
0.0104167
 41
0.0104167
  0
VERTEX
  8
0
 10
5.23699
 20
2.63883
 30
0.0
 40
0.0104167
 41
0.0104167
  0
SEQEND
 8
0
  0
POLYLINE
  8
0
 62
     0
 66
     1
 10
0
 20
0
 30
0.0
 70
     1
 40
0.75
 41
0.75
  0
VERTEX
  8
0
 10
6.24149
 20
2.31592
 30
0.0
 40
0.0104167
 41
0.0104167
  0
VERTEX
  8
0
 10
6.24149
 20
2.25711
 30
0.0
 40
0.0104167
 41
0.0104167
  0
VERTEX
  8
0
 10
6.22575
 20
2.08051
 30
0.0
 40
0.0104167
 41
0.0104167
  0
VERTEX
  8
0
 10
6.17865
 20
1.87646
 30
0.0
 40
0.0104167
 41
0.0104167
  0
VERTEX
  8
0
 10
6.10021
 20
1.70383
 30
0.0
 40
0.0104167
 41
0.0104167
  0
VERTEX
  8
0
 10
5.99035
 20
1.56261
 30
0.0
 40
0.0104167
 41
0.0104167
  0
VERTEX
  8
0
 10
5.84907
 20
1.45275
 30
0.0
 40
0.0104167
 41
0.0104167
  0
VERTEX
  8
0
 10
5.67643
 20
1.37429
 30
0.0
 40
0.0104167
 41
0.0104167
  0
VERTEX
  8
0
 10
5.47239
 20
1.3272
 30
0.0
 40
0.0104167
 41
0.0104167
  0
VERTEX
  8
0
 10
5.29579
 20
1.31147
 30
0.0
 40
0.0104167
 41
0.0104167
  0
VERTEX
  8
0
 10
5.23699
 20
1.31147
 30
0.0
 40
0.0104167
 41
0.0104167
  0
VERTEX
  8
0
 10
5.23699
 20
2.31592
 30
0.0
 40
0.0104167
 41
0.0104167
  0
VERTEX
  8
0
 10
6.24149
 20
2.31592
 30
0.0
 40
0.0104167
 41
0.0104167
  0
SEQEND
 8
0
  0
POLYLINE
  8
0
 62
     7
 66
     1
 10
0
 20
0
 30
0.0
 70
     1
 40
0
 41
0
  0
VERTEX
  8
0
 10
7.29904
 20
2.63883
 30
0.0
 40
0
 41
0
  0
VERTEX
  8
0
 10
7.87283
 20
2.63883
 30
0.0
 40
0
 41
0
  0
VERTEX
  8
0
 10
7.87283
 20
2.31592
 30
0.0
 40
0
 41
0
  0
VERTEX
  8
0
 10
7.29904
 20
2.31592
 30
0.0
 40
0
 41
0
  0
VERTEX
  8
0
 10
7.29904
 20
2.63883
 30
0.0
 40
0
 41
0
  0
SEQEND
 8
0
  0
POLYLINE
  8
0
 62
     0
 66
     1
 10
0
 20
0
 30
0.0
 70
     1
 40
0.75
 41
0.75
  0
VERTEX
  8
0
 10
7.29904
 20
2.63883
 30
0.0
 40
0.0104167
 41
0.0104167
  0
VERTEX
  8
0
 10
7.87283
 20
2.63883
 30
0.0
 40
0.0104167
 41
0.0104167
  0
VERTEX
  8
0
 10
7.87283
 20
2.31592
 30
0.0
 40
0.0104167
 41
0.0104167
  0
VERTEX
  8
0
 10
7.29904
 20
2.31592
 30
0.0
 40
0.0104167
 41
0.0104167
  0
VERTEX
  8
0
 10
7.29904
 20
2.63883
 30
0.0
 40
0.0104167
 41
0.0104167
  0
SEQEND
 8
0
  0
POLYLINE
  8
0
 62
     7
 66
     1
 10
0
 20
0
 30
0.0
 70
     1
 40
0
 41
0
  0
VERTEX
  8
0
 10
7.29904
 20
2.63883
 30
0.0
 40
0
 41
0
  0
VERTEX
  8
0
 10
7.87283
 20
2.63883
 30
0.0
 40
0
 41
0
  0
VERTEX
  8
0
 10
7.87283
 20
2.31592
 30
0.0
 40
0
 41
0
  0
VERTEX
  8
0
 10
7.29904
 20
2.31592
 30
0.0
 40
0
 41
0
  0
VERTEX
  8
0
 10
7.29904
 20
2.63883
 30
0.0
 40
0
 41
0
  0
SEQEND
 8
0
  0
POLYLINE
  8
0
 62
     0
 66
     1
 10
0
 20
0
 30
0.0
 70
     1
 40
0.75
 41
0.75
  0
VERTEX
  8
0
 10
7.29904
 20
2.63883
 30
0.0
 40
0.0104167
 41
0.0104167
  0
VERTEX
  8
0
 10
7.87283
 20
2.63883
 30
0.0
 40
0.0104167
 41
0.0104167
  0
VERTEX
  8
0
 10
7.87283
 20
2.31592
 30
0.0
 40
0.0104167
 41
0.0104167
  0
VERTEX
  8
0
 10
7.29904
 20
2.31592
 30
0.0
 40
0.0104167
 41
0.0104167
  0
VERTEX
  8
0
 10
7.29904
 20
2.63883
 30
0.0
 40
0.0104167
 41
0.0104167
  0
SEQEND
 8
0
  0
POLYLINE
  8
0
 62
     0
 66
     1
 10
0
 20
0
 30
0.0
 40
0.75
 41
0.75
  0
VERTEX
  8
0
 10
7.79465
 20
2.47743
 30
0.0
 40
0.0104167
 41
0.0104167
  0
VERTEX
  8
0
 10
7.37717
 20
2.47743
 30
0.0
 40
0.0104167
 41
0.0104167
  0
SEQEND
 8
0
  0
POLYLINE
  8
0
 62
     0
 66
     1
 10
0
 20
0
 30
0.0
 40
0.75
 41
0.75
  0
VERTEX
  8
0
 10
7.79465
 20
2.63889
 30
0.0
 40
0.0104167
 41
0.0104167
  0
VERTEX
  8
0
 10
7.79465
 20
2.31597
 30
0.0
 40
0.0104167
 41
0.0104167
  0
SEQEND
 8
0
  0
POLYLINE
  8
0
 62
     0
 66
     1
 10
0
 20
0
 30
0.0
 40
0.75
 41
0.75
  0
VERTEX
  8
0
 10
7.37717
 20
2.63889
 30
0.0
 40
0.0104167
 41
0.0104167
  0
VERTEX
  8
0
 10
7.37717
 20
2.31597
 30
0.0
 40
0.0104167
 41
0.0104167
  0
SEQEND
 8
0
  0
POLYLINE
  8
0
 62
     0
 66
     1
 10
0
 20
0
 30
0.0
 70
     1
 40
0
 41
0
  0
VERTEX
  8
0
 10
1.81885
 20
2.63883
 30
0.0
 40
0
 41
0
  0
VERTEX
  8
0
 10
0.7028
 20
2.63883
 30
0.0
 40
0
 41
0
  0
VERTEX
  8
0
 10
0.463217
 20
2.41917
 30
0.0
 40
0
 41
0
  0
VERTEX
  8
0
 10
1.81885
 20
2.41917
 30
0.0
 40
0
 41
0
  0
VERTEX
  8
0
 10
1.81885
 20
2.63883
 30
0.0
 40
0
 41
0
  0
SEQEND
 8
0
  0
POLYLINE
  8
0
 62
     0
 66
     1
 10
0
 20
0
 30
0.0
 70
     1
 40
0.15
 41
0.15
  0
VERTEX
  8
0
 10
1.81885
 20
2.63883
 30
0.0
 40
0.00208333
 41
0.00208333
  0
VERTEX
  8
0
 10
0.7028
 20
2.63883
 30
0.0
 40
0.00208333
 41
0.00208333
  0
VERTEX
  8
0
 10
0.463217
 20
2.41917
 30
0.0
 40
0.00208333
 41
0.00208333
  0
VERTEX
  8
0
 10
1.81885
 20
2.41917
 30
0.0
 40
0.00208333
 41
0.00208333
  0
VERTEX
  8
0
 10
1.81885
 20
2.63883
 30
0.0
 40
0.00208333
 41
0.00208333
  0
SEQEND
 8
0
  0
POLYLINE
  8
0
 62
     0
 66
     1
 10
0
 20
0
 30
0.0
 70
     1
 40
0
 41
0
  0
VERTEX
  8
0
 10
0.463217
 20
2.41917
 30
0.0
 40
0
 41
0
  0
VERTEX
  8
0
 10
0.463217
 20
10.0661
 30
0.0
 40
0
 41
0
  0
VERTEX
  8
0
 10
0.7028
 20
9.73281
 30
0.0
 40
0
 41
0
  0
VERTEX
  8
0
 10
0.7028
 20
2.63883
 30
0.0
 40
0
 41
0
  0
VERTEX
  8
0
 10
0.463217
 20
2.41917
 30
0.0
 40
0
 41
0
  0
SEQEND
 8
0
  0
POLYLINE
  8
0
 62
     0
 66
     1
 10
0
 20
0
 30
0.0
 70
     1
 40
0.15
 41
0.15
  0
VERTEX
  8
0
 10
0.463217
 20
2.41917
 30
0.0
 40
0.00208333
 41
0.00208333
  0
VERTEX
  8
0
 10
0.463217
 20
10.0661
 30
0.0
 40
0.00208333
 41
0.00208333
  0
VERTEX
  8
0
 10
0.7028
 20
9.73281
 30
0.0
 40
0.00208333
 41
0.00208333
  0
VERTEX
  8
0
 10
0.7028
 20
2.63883
 30
0.0
 40
0.00208333
 41
0.00208333
  0
VERTEX
  8
0
 10
0.463217
 20
2.41917
 30
0.0
 40
0.00208333
 41
0.00208333
  0
SEQEND
 8
0
  0
POLYLINE
  8
0
 62
     0
 66
     1
 10
0
 20
0
 30
0.0
 70
     1
 40
0
 41
0
  0
VERTEX
  8
0
 10
12.3699
 20
4.49376
 30
0.0
 40
0
 41
0
  0
VERTEX
  8
0
 10
11.0599
 20
4.49376
 30
0.0
 40
0
 41
0
  0
VERTEX
  8
0
 10
11.1335
 20
4.33751
 30
0.0
 40
0
 41
0
  0
VERTEX
  8
0
 10
12.3699
 20
4.33751
 30
0.0
 40
0
 41
0
  0
VERTEX
  8
0
 10
12.3699
 20
4.49376
 30
0.0
 40
0
 41
0
  0
SEQEND
 8
0
  0
POLYLINE
  8
0
 62
     0
 66
     1
 10
0
 20
0
 30
0.0
 70
     1
 40
0.15
 41
0.15
  0
VERTEX
  8
0
 10
12.3699
 20
4.49376
 30
0.0
 40
0.00208333
 41
0.00208333
  0
VERTEX
  8
0
 10
11.0599
 20
4.49376
 30
0.0
 40
0.00208333
 41
0.00208333
  0
VERTEX
  8
0
 10
11.1335
 20
4.33751
 30
0.0
 40
0.00208333
 41
0.00208333
  0
VERTEX
  8
0
 10
12.3699
 20
4.33751
 30
0.0
 40
0.00208333
 41
0.00208333
  0
VERTEX
  8
0
 10
12.3699
 20
4.49376
 30
0.0
 40
0.00208333
 41
0.00208333
  0
SEQEND
 8
0
  0
POLYLINE
  8
0
 62
     0
 66
     1
 10
0
 20
0
 30
0.0
 70
     1
 40
0
 41
0
  0
VERTEX
  8
0
 10
10.2651
 20
2.31592
 30
0.0
 40
0
 41
0
  0
VERTEX
  8
0
 10
10.2651
 20
3.52989
 30
0.0
 40
0
 41
0
  0
VERTEX
  8
0
 10
10.4213
 20
3.47374
 30
0.0
 40
0
 41
0
  0
VERTEX
  8
0
 10
10.4213
 20
2.31592
 30
0.0
 40
0
 41
0
  0
VERTEX
  8
0
 10
10.2651
 20
2.31592
 30
0.0
 40
0
 41
0
  0
SEQEND
 8
0
  0
POLYLINE
  8
0
 62
     0
 66
     1
 10
0
 20
0
 30
0.0
 70
     1
 40
0.15
 41
0.15
  0
VERTEX
  8
0
 10
10.2651
 20
2.31592
 30
0.0
 40
0.00208333
 41
0.00208333
  0
VERTEX
  8
0
 10
10.2651
 20
3.52989
 30
0.0
 40
0.00208333
 41
0.00208333
  0
VERTEX
  8
0
 10
10.4213
 20
3.47374
 30
0.0
 40
0.00208333
 41
0.00208333
  0
VERTEX
  8
0
 10
10.4213
 20
2.31592
 30
0.0
 40
0.00208333
 41
0.00208333
  0
VERTEX
  8
0
 10
10.2651
 20
2.31592
 30
0.0
 40
0.00208333
 41
0.00208333
  0
SEQEND
 8
0
  0
POLYLINE
  8
0
 62
     0
 66
     1
 10
0
 20
0
 30
0.0
 70
     1
 40
0
 41
0
  0
VERTEX
  8
0
 10
10.2651
 20
3.52989
 30
0.0
 40
0
 41
0
  0
VERTEX
  8
0
 10
11.0599
 20
4.49376
 30
0.0
 40
0
 41
0
  0
VERTEX
  8
0
 10
11.1335
 20
4.33751
 30
0.0
 40
0
 41
0
  0
VERTEX
  8
0
 10
10.4213
 20
3.47374
 30
0.0
 40
0
 41
0
  0
VERTEX
  8
0
 10
10.2651
 20
3.52989
 30
0.0
 40
0
 41
0
  0
SEQEND
 8
0
  0
POLYLINE
  8
0
 62
     0
 66
     1
 10
0
 20
0
 30
0.0
 70
     1
 40
0.15
 41
0.15
  0
VERTEX
  8
0
 10
10.2651
 20
3.52989
 30
0.0
 40
0.00208333
 41
0.00208333
  0
VERTEX
  8
0
 10
11.0599
 20
4.49376
 30
0.0
 40
0.00208333
 41
0.00208333
  0
VERTEX
  8
0
 10
11.1335
 20
4.33751
 30
0.0
 40
0.00208333
 41
0.00208333
  0
VERTEX
  8
0
 10
10.4213
 20
3.47374
 30
0.0
 40
0.00208333
 41
0.00208333
  0
VERTEX
  8
0
 10
10.2651
 20
3.52989
 30
0.0
 40
0.00208333
 41
0.00208333
  0
SEQEND
 8
0
  0
POLYLINE
  8
0
 62
     7
 66
     1
 10
0
 20
0
 30
0.0
 70
     1
 40
0
 41
0
  0
VERTEX
  8
0
 10
10.4158
 20
3.71251
 30
0.0
 40
0
 41
0
  0
VERTEX
  8
0
 10
10.8429
 20
4.23063
 30
0.0
 40
0
 41
0
  0
VERTEX
  8
0
 10
10.9634
 20
4.13124
 30
0.0
 40
0
 41
0
  0
VERTEX
  8
0
 10
10.5362
 20
3.61312
 30
0.0
 40
0
 41
0
  0
VERTEX
  8
0
 10
10.4158
 20
3.71251
 30
0.0
 40
0
 41
0
  0
SEQEND
 8
0
  0
POLYLINE
  8
0
 62
     0
 66
     1
 10
0
 20
0
 30
0.0
 70
     1
 40
0.75
 41
0.75
  0
VERTEX
  8
0
 10
10.4158
 20
3.71251
 30
0.0
 40
0.0104167
 41
0.0104167
  0
VERTEX
  8
0
 10
10.8429
 20
4.23063
 30
0.0
 40
0.0104167
 41
0.0104167
  0
VERTEX
  8
0
 10
10.9634
 20
4.13124
 30
0.0
 40
0.0104167
 41
0.0104167
  0
VERTEX
  8
0
 10
10.5362
 20
3.61312
 30
0.0
 40
0.0104167
 41
0.0104167
  0
VERTEX
  8
0
 10
10.4158
 20
3.71251
 30
0.0
 40
0.0104167
 41
0.0104167
  0
SEQEND
 8
0
  0
POLYLINE
  8
0
 62
     7
 66
     1
 10
0
 20
0
 30
0.0
 70
     1
 40
0
 41
0
  0
VERTEX
  8
0
 10
10.4158
 20
3.71251
 30
0.0
 40
0
 41
0
  0
VERTEX
  8
0
 10
10.8429
 20
4.23063
 30
0.0
 40
0
 41
0
  0
VERTEX
  8
0
 10
10.9634
 20
4.13124
 30
0.0
 40
0
 41
0
  0
VERTEX
  8
0
 10
10.5362
 20
3.61312
 30
0.0
 40
0
 41
0
  0
VERTEX
  8
0
 10
10.4158
 20
3.71251
 30
0.0
 40
0
 41
0
  0
SEQEND
 8
0
  0
POLYLINE
  8
0
 62
     0
 66
     1
 10
0
 20
0
 30
0.0
 70
     1
 40
0.75
 41
0.75
  0
VERTEX
  8
0
 10
10.4158
 20
3.71251
 30
0.0
 40
0.0104167
 41
0.0104167
  0
VERTEX
  8
0
 10
10.8429
 20
4.23063
 30
0.0
 40
0.0104167
 41
0.0104167
  0
VERTEX
  8
0
 10
10.9634
 20
4.13124
 30
0.0
 40
0.0104167
 41
0.0104167
  0
VERTEX
  8
0
 10
10.5362
 20
3.61312
 30
0.0
 40
0.0104167
 41
0.0104167
  0
VERTEX
  8
0
 10
10.4158
 20
3.71251
 30
0.0
 40
0.0104167
 41
0.0104167
  0
SEQEND
 8
0
  0
POLYLINE
  8
0
 62
     0
 66
     1
 10
0
 20
0
 30
0.0
 70
     1
 40
0.75
 41
0.75
  0
VERTEX
  8
0
 10
10.8429
 20
4.23063
 30
0.0
 40
0.0104167
 41
0.0104167
  0
VERTEX
  8
0
 10
10.8126
 20
4.25569
 30
0.0
 40
0.0104167
 41
0.0104167
  0
VERTEX
  8
0
 10
10.7148
 20
4.32269
 30
0.0
 40
0.0104167
 41
0.0104167
  0
VERTEX
  8
0
 10
10.5895
 20
4.38514
 30
0.0
 40
0.0104167
 41
0.0104167
  0
VERTEX
  8
0
 10
10.4671
 20
4.41813
 30
0.0
 40
0.0104167
 41
0.0104167
  0
VERTEX
  8
0
 10
10.3475
 20
4.42156
 30
0.0
 40
0.0104167
 41
0.0104167
  0
VERTEX
  8
0
 10
10.2307
 20
4.3954
 30
0.0
 40
0.0104167
 41
0.0104167
  0
VERTEX
  8
0
 10
10.1169
 20
4.33974
 30
0.0
 40
0.0104167
 41
0.0104167
  0
VERTEX
  8
0
 10
10.0058
 20
4.25456
 30
0.0
 40
0.0104167
 41
0.0104167
  0
VERTEX
  8
0
 10
9.92264
 20
4.17019
 30
0.0
 40
0.0104167
 41
0.0104167
  0
VERTEX
  8
0
 10
9.89763
 20
4.13981
 30
0.0
 40
0.0104167
 41
0.0104167
  0
VERTEX
  8
0
 10
10.4158
 20
3.71262
 30
0.0
 40
0.0104167
 41
0.0104167
  0
VERTEX
  8
0
 10
10.8429
 20
4.23063
 30
0.0
 40
0.0104167
 41
0.0104167
  0
SEQEND
 8
0
  0
POLYLINE
  8
0
 62
     0
 66
     1
 10
0
 20
0
 30
0.0
 70
     1
 40
0
 41
0
  0
VERTEX
  8
0
 10
4.29042
 20
4.33686
 30
0.0
 40
0
 41
0
  0
VERTEX
  8
0
 10
8.80106
 20
4.33686
 30
0.0
 40
0
 41
0
  0
VERTEX
  8
0
 10
8.75489
 20
4.46186
 30
0.0
 40
0
 41
0
  0
VERTEX
  8
0
 10
4.37999
 20
4.46186
 30
0.0
 40
0
 41
0
  0
VERTEX
  8
0
 10
4.29042
 20
4.33686
 30
0.0
 40
0
 41
0
  0
SEQEND
 8
0
  0
POLYLINE
  8
0
 62
     0
 66
     1
 10
0
 20
0
 30
0.0
 70
     1
 40
0.15
 41
0.15
  0
VERTEX
  8
0
 10
4.29042
 20
4.33686
 30
0.0
 40
0.00208333
 41
0.00208333
  0
VERTEX
  8
0
 10
8.80106
 20
4.33686
 30
0.0
 40
0.00208333
 41
0.00208333
  0
VERTEX
  8
0
 10
8.75489
 20
4.46186
 30
0.0
 40
0.00208333
 41
0.00208333
  0
VERTEX
  8
0
 10
4.37999
 20
4.46186
 30
0.0
 40
0.00208333
 41
0.00208333
  0
VERTEX
  8
0
 10
4.29042
 20
4.33686
 30
0.0
 40
0.00208333
 41
0.00208333
  0
SEQEND
 8
0
  0
POLYLINE
  8
0
 62
     7
 66
     1
 10
0
 20
0
 30
0.0
 70
     1
 40
0
 41
0
  0
VERTEX
  8
0
 10
5.21354
 20
4.46186
 30
0.0
 40
0
 41
0
  0
VERTEX
  8
0
 10
6.20176
 20
4.46186
 30
0.0
 40
0
 41
0
  0
VERTEX
  8
0
 10
6.20176
 20
4.33686
 30
0.0
 40
0
 41
0
  0
VERTEX
  8
0
 10
5.21354
 20
4.33686
 30
0.0
 40
0
 41
0
  0
VERTEX
  8
0
 10
5.21354
 20
4.46186
 30
0.0
 40
0
 41
0
  0
SEQEND
 8
0
  0
POLYLINE
  8
0
 62
     0
 66
     1
 10
0
 20
0
 30
0.0
 70
     1
 40
0.75
 41
0.75
  0
VERTEX
  8
0
 10
5.21354
 20
4.46186
 30
0.0
 40
0.0104167
 41
0.0104167
  0
VERTEX
  8
0
 10
6.20176
 20
4.46186
 30
0.0
 40
0.0104167
 41
0.0104167
  0
VERTEX
  8
0
 10
6.20176
 20
4.33686
 30
0.0
 40
0.0104167
 41
0.0104167
  0
VERTEX
  8
0
 10
5.21354
 20
4.33686
 30
0.0
 40
0.0104167
 41
0.0104167
  0
VERTEX
  8
0
 10
5.21354
 20
4.46186
 30
0.0
 40
0.0104167
 41
0.0104167
  0
SEQEND
 8
0
  0
POLYLINE
  8
0
 62
     7
 66
     1
 10
0
 20
0
 30
0.0
 70
     1
 40
0
 41
0
  0
VERTEX
  8
0
 10
5.21354
 20
4.46186
 30
0.0
 40
0
 41
0
  0
VERTEX
  8
0
 10
6.20176
 20
4.46186
 30
0.0
 40
0
 41
0
  0
VERTEX
  8
0
 10
6.20176
 20
4.33686
 30
0.0
 40
0
 41
0
  0
VERTEX
  8
0
 10
5.21354
 20
4.33686
 30
0.0
 40
0
 41
0
  0
VERTEX
  8
0
 10
5.21354
 20
4.46186
 30
0.0
 40
0
 41
0
  0
SEQEND
 8
0
  0
POLYLINE
  8
0
 62
     0
 66
     1
 10
0
 20
0
 30
0.0
 70
     1
 40
0.75
 41
0.75
  0
VERTEX
  8
0
 10
5.21354
 20
4.46186
 30
0.0
 40
0.0104167
 41
0.0104167
  0
VERTEX
  8
0
 10
6.20176
 20
4.46186
 30
0.0
 40
0.0104167
 41
0.0104167
  0
VERTEX
  8
0
 10
6.20176
 20
4.33686
 30
0.0
 40
0.0104167
 41
0.0104167
  0
VERTEX
  8
0
 10
5.21354
 20
4.33686
 30
0.0
 40
0.0104167
 41
0.0104167
  0
VERTEX
  8
0
 10
5.21354
 20
4.46186
 30
0.0
 40
0.0104167
 41
0.0104167
  0
SEQEND
 8
0
  0
POLYLINE
  8
0
 62
     0
 66
     1
 10
0
 20
0
 30
0.0
 70
     1
 40
0.75
 41
0.75
  0
VERTEX
  8
0
 10
5.21354
 20
4.46186
 30
0.0
 40
0.0104167
 41
0.0104167
  0
VERTEX
  8
0
 10
5.21354
 20
4.51981
 30
0.0
 40
0.0104167
 41
0.0104167
  0
VERTEX
  8
0
 10
5.22894
 20
4.69353
 30
0.0
 40
0.0104167
 41
0.0104167
  0
VERTEX
  8
0
 10
5.27528
 20
4.89426
 30
0.0
 40
0.0104167
 41
0.0104167
  0
VERTEX
  8
0
 10
5.35249
 20
5.06413
 30
0.0
 40
0.0104167
 41
0.0104167
  0
VERTEX
  8
0
 10
5.46056
 20
5.20307
 30
0.0
 40
0.0104167
 41
0.0104167
  0
VERTEX
  8
0
 10
5.59956
 20
5.31114
 30
0.0
 40
0.0104167
 41
0.0104167
  0
VERTEX
  8
0
 10
5.76942
 20
5.38835
 30
0.0
 40
0.0104167
 41
0.0104167
  0
VERTEX
  8
0
 10
5.97011
 20
5.43468
 30
0.0
 40
0.0104167
 41
0.0104167
  0
VERTEX
  8
0
 10
6.14382
 20
5.45008
 30
0.0
 40
0.0104167
 41
0.0104167
  0
VERTEX
  8
0
 10
6.20176
 20
5.45008
 30
0.0
 40
0.0104167
 41
0.0104167
  0
VERTEX
  8
0
 10
6.20176
 20
4.46186
 30
0.0
 40
0.0104167
 41
0.0104167
  0
VERTEX
  8
0
 10
5.21354
 20
4.46186
 30
0.0
 40
0.0104167
 41
0.0104167
  0
SEQEND
 8
0
  0
POLYLINE
  8
0
 62
     7
 66
     1
 10
0
 20
0
 30
0.0
 70
     1
 40
0
 41
0
  0
VERTEX
  8
0
 10
7.11231
 20
4.46186
 30
0.0
 40
0
 41
0
  0
VERTEX
  8
0
 10
7.98926
 20
4.46186
 30
0.0
 40
0
 41
0
  0
VERTEX
  8
0
 10
7.98926
 20
4.33686
 30
0.0
 40
0
 41
0
  0
VERTEX
  8
0
 10
7.11231
 20
4.33686
 30
0.0
 40
0
 41
0
  0
VERTEX
  8
0
 10
7.11231
 20
4.46186
 30
0.0
 40
0
 41
0
  0
SEQEND
 8
0
  0
POLYLINE
  8
0
 62
     0
 66
     1
 10
0
 20
0
 30
0.0
 70
     1
 40
0.75
 41
0.75
  0
VERTEX
  8
0
 10
7.11231
 20
4.46186
 30
0.0
 40
0.0104167
 41
0.0104167
  0
VERTEX
  8
0
 10
7.98926
 20
4.46186
 30
0.0
 40
0.0104167
 41
0.0104167
  0
VERTEX
  8
0
 10
7.98926
 20
4.33686
 30
0.0
 40
0.0104167
 41
0.0104167
  0
VERTEX
  8
0
 10
7.11231
 20
4.33686
 30
0.0
 40
0.0104167
 41
0.0104167
  0
VERTEX
  8
0
 10
7.11231
 20
4.46186
 30
0.0
 40
0.0104167
 41
0.0104167
  0
SEQEND
 8
0
  0
POLYLINE
  8
0
 62
     7
 66
     1
 10
0
 20
0
 30
0.0
 70
     1
 40
0
 41
0
  0
VERTEX
  8
0
 10
7.11231
 20
4.46186
 30
0.0
 40
0
 41
0
  0
VERTEX
  8
0
 10
7.98926
 20
4.46186
 30
0.0
 40
0
 41
0
  0
VERTEX
  8
0
 10
7.98926
 20
4.33686
 30
0.0
 40
0
 41
0
  0
VERTEX
  8
0
 10
7.11231
 20
4.33686
 30
0.0
 40
0
 41
0
  0
VERTEX
  8
0
 10
7.11231
 20
4.46186
 30
0.0
 40
0
 41
0
  0
SEQEND
 8
0
  0
POLYLINE
  8
0
 62
     0
 66
     1
 10
0
 20
0
 30
0.0
 70
     1
 40
0.75
 41
0.75
  0
VERTEX
  8
0
 10
7.11231
 20
4.46186
 30
0.0
 40
0.0104167
 41
0.0104167
  0
VERTEX
  8
0
 10
7.98926
 20
4.46186
 30
0.0
 40
0.0104167
 41
0.0104167
  0
VERTEX
  8
0
 10
7.98926
 20
4.33686
 30
0.0
 40
0.0104167
 41
0.0104167
  0
VERTEX
  8
0
 10
7.11231
 20
4.33686
 30
0.0
 40
0.0104167
 41
0.0104167
  0
VERTEX
  8
0
 10
7.11231
 20
4.46186
 30
0.0
 40
0.0104167
 41
0.0104167
  0
SEQEND
 8
0
  0
POLYLINE
  8
0
 62
     0
 66
     1
 10
0
 20
0
 30
0.0
 70
     1
 40
0.75
 41
0.75
  0
VERTEX
  8
0
 10
7.11231
 20
4.46186
 30
0.0
 40
0.0104167
 41
0.0104167
  0
VERTEX
  8
0
 10
7.11231
 20
4.51329
 30
0.0
 40
0.0104167
 41
0.0104167
  0
VERTEX
  8
0
 10
7.12597
 20
4.66743
 30
0.0
 40
0.0104167
 41
0.0104167
  0
VERTEX
  8
0
 10
7.1671
 20
4.8456
 30
0.0
 40
0.0104167
 41
0.0104167
  0
VERTEX
  8
0
 10
7.23563
 20
4.99631
 30
0.0
 40
0.0104167
 41
0.0104167
  0
VERTEX
  8
0
 10
7.33154
 20
5.11963
 30
0.0
 40
0.0104167
 41
0.0104167
  0
VERTEX
  8
0
 10
7.45486
 20
5.21556
 30
0.0
 40
0.0104167
 41
0.0104167
  0
VERTEX
  8
0
 10
7.60558
 20
5.28407
 30
0.0
 40
0.0104167
 41
0.0104167
  0
VERTEX
  8
0
 10
7.78369
 20
5.32519
 30
0.0
 40
0.0104167
 41
0.0104167
  0
VERTEX
  8
0
 10
7.93782
 20
5.33886
 30
0.0
 40
0.0104167
 41
0.0104167
  0
VERTEX
  8
0
 10
7.98926
 20
5.33886
 30
0.0
 40
0.0104167
 41
0.0104167
  0
VERTEX
  8
0
 10
7.98926
 20
4.46186
 30
0.0
 40
0.0104167
 41
0.0104167
  0
VERTEX
  8
0
 10
7.11231
 20
4.46186
 30
0.0
 40
0.0104167
 41
0.0104167
  0
SEQEND
 8
0
  0
POLYLINE
  8
0
 62
     0
 66
     1
 10
0
 20
0
 30
0.0
 70
     1
 40
0
 41
0
  0
VERTEX
  8
0
 10
9.69075
 20
5.61572
 30
0.0
 40
0
 41
0
  0
VERTEX
  8
0
 10
12.3699
 20
5.61572
 30
0.0
 40
0
 41
0
  0
VERTEX
  8
0
 10
12.3699
 20
5.50114
 30
0.0
 40
0
 41
0
  0
VERTEX
  8
0
 10
9.74533
 20
5.50114
 30
0.0
 40
0
 41
0
  0
VERTEX
  8
0
 10
9.69075
 20
5.61572
 30
0.0
 40
0
 41
0
  0
SEQEND
 8
0
  0
POLYLINE
  8
0
 62
     0
 66
     1
 10
0
 20
0
 30
0.0
 70
     1
 40
0.15
 41
0.15
  0
VERTEX
  8
0
 10
9.69075
 20
5.61572
 30
0.0
 40
0.00208333
 41
0.00208333
  0
VERTEX
  8
0
 10
12.3699
 20
5.61572
 30
0.0
 40
0.00208333
 41
0.00208333
  0
VERTEX
  8
0
 10
12.3699
 20
5.50114
 30
0.0
 40
0.00208333
 41
0.00208333
  0
VERTEX
  8
0
 10
9.74533
 20
5.50114
 30
0.0
 40
0.00208333
 41
0.00208333
  0
VERTEX
  8
0
 10
9.69075
 20
5.61572
 30
0.0
 40
0.00208333
 41
0.00208333
  0
SEQEND
 8
0
  0
POLYLINE
  8
0
 62
     0
 66
     1
 10
0
 20
0
 30
0.0
 70
     1
 40
0
 41
0
  0
VERTEX
  8
0
 10
8.75489
 20
4.46186
 30
0.0
 40
0
 41
0
  0
VERTEX
  8
0
 10
9.69075
 20
5.61572
 30
0.0
 40
0
 41
0
  0
VERTEX
  8
0
 10
9.74533
 20
5.50114
 30
0.0
 40
0
 41
0
  0
VERTEX
  8
0
 10
8.80106
 20
4.33686
 30
0.0
 40
0
 41
0
  0
VERTEX
  8
0
 10
8.75489
 20
4.46186
 30
0.0
 40
0
 41
0
  0
SEQEND
 8
0
  0
POLYLINE
  8
0
 62
     0
 66
     1
 10
0
 20
0
 30
0.0
 70
     1
 40
0.15
 41
0.15
  0
VERTEX
  8
0
 10
8.75489
 20
4.46186
 30
0.0
 40
0.00208333
 41
0.00208333
  0
VERTEX
  8
0
 10
9.69075
 20
5.61572
 30
0.0
 40
0.00208333
 41
0.00208333
  0
VERTEX
  8
0
 10
9.74533
 20
5.50114
 30
0.0
 40
0.00208333
 41
0.00208333
  0
VERTEX
  8
0
 10
8.80106
 20
4.33686
 30
0.0
 40
0.00208333
 41
0.00208333
  0
VERTEX
  8
0
 10
8.75489
 20
4.46186
 30
0.0
 40
0.00208333
 41
0.00208333
  0
SEQEND
 8
0
  0
POLYLINE
  8
0
 62
     7
 66
     1
 10
0
 20
0
 30
0.0
 70
     1
 40
0
 41
0
  0
VERTEX
  8
0
 10
8.8399
 20
4.56679
 30
0.0
 40
0
 41
0
  0
VERTEX
  8
0
 10
9.40707
 20
5.26606
 30
0.0
 40
0
 41
0
  0
VERTEX
  8
0
 10
9.49604
 20
5.19385
 30
0.0
 40
0
 41
0
  0
VERTEX
  8
0
 10
8.92899
 20
4.49457
 30
0.0
 40
0
 41
0
  0
VERTEX
  8
0
 10
8.8399
 20
4.56679
 30
0.0
 40
0
 41
0
  0
SEQEND
 8
0
  0
POLYLINE
  8
0
 62
     0
 66
     1
 10
0
 20
0
 30
0.0
 70
     1
 40
0.75
 41
0.75
  0
VERTEX
  8
0
 10
8.8399
 20
4.56679
 30
0.0
 40
0.0104167
 41
0.0104167
  0
VERTEX
  8
0
 10
9.40707
 20
5.26606
 30
0.0
 40
0.0104167
 41
0.0104167
  0
VERTEX
  8
0
 10
9.49604
 20
5.19385
 30
0.0
 40
0.0104167
 41
0.0104167
  0
VERTEX
  8
0
 10
8.92899
 20
4.49457
 30
0.0
 40
0.0104167
 41
0.0104167
  0
VERTEX
  8
0
 10
8.8399
 20
4.56679
 30
0.0
 40
0.0104167
 41
0.0104167
  0
SEQEND
 8
0
  0
POLYLINE
  8
0
 62
     7
 66
     1
 10
0
 20
0
 30
0.0
 70
     1
 40
0
 41
0
  0
VERTEX
  8
0
 10
8.8399
 20
4.56679
 30
0.0
 40
0
 41
0
  0
VERTEX
  8
0
 10
9.40707
 20
5.26606
 30
0.0
 40
0
 41
0
  0
VERTEX
  8
0
 10
9.49604
 20
5.19385
 30
0.0
 40
0
 41
0
  0
VERTEX
  8
0
 10
8.92899
 20
4.49457
 30
0.0
 40
0
 41
0
  0
VERTEX
  8
0
 10
8.8399
 20
4.56679
 30
0.0
 40
0
 41
0
  0
SEQEND
 8
0
  0
POLYLINE
  8
0
 62
     0
 66
     1
 10
0
 20
0
 30
0.0
 70
     1
 40
0.75
 41
0.75
  0
VERTEX
  8
0
 10
8.8399
 20
4.56679
 30
0.0
 40
0.0104167
 41
0.0104167
  0
VERTEX
  8
0
 10
9.40707
 20
5.26606
 30
0.0
 40
0.0104167
 41
0.0104167
  0
VERTEX
  8
0
 10
9.49604
 20
5.19385
 30
0.0
 40
0.0104167
 41
0.0104167
  0
VERTEX
  8
0
 10
8.92899
 20
4.49457
 30
0.0
 40
0.0104167
 41
0.0104167
  0
VERTEX
  8
0
 10
8.8399
 20
4.56679
 30
0.0
 40
0.0104167
 41
0.0104167
  0
SEQEND
 8
0
  0
POLYLINE
  8
0
 62
     0
 66
     1
 10
0
 20
0
 30
0.0
 70
     1
 40
0.75
 41
0.75
  0
VERTEX
  8
0
 10
8.92899
 20
4.49457
 30
0.0
 40
0.0104167
 41
0.0104167
  0
VERTEX
  8
0
 10
8.96989
 20
4.46137
 30
0.0
 40
0.0104167
 41
0.0104167
  0
VERTEX
  8
0
 10
9.10167
 20
4.37261
 30
0.0
 40
0.0104167
 41
0.0104167
  0
VERTEX
  8
0
 10
9.27029
 20
4.29021
 30
0.0
 40
0.0104167
 41
0.0104167
  0
VERTEX
  8
0
 10
9.43474
 20
4.24735
 30
0.0
 40
0.0104167
 41
0.0104167
  0
VERTEX
  8
0
 10
9.59511
 20
4.24408
 30
0.0
 40
0.0104167
 41
0.0104167
  0
VERTEX
  8
0
 10
9.75131
 20
4.28039
 30
0.0
 40
0.0104167
 41
0.0104167
  0
VERTEX
  8
0
 10
9.90343
 20
4.35622
 30
0.0
 40
0.0104167
 41
0.0104167
  0
VERTEX
  8
0
 10
10.0514
 20
4.47168
 30
0.0
 40
0.0104167
 41
0.0104167
  0
VERTEX
  8
0
 10
10.1621
 20
4.58572
 30
0.0
 40
0.0104167
 41
0.0104167
  0
VERTEX
  8
0
 10
10.1953
 20
4.62668
 30
0.0
 40
0.0104167
 41
0.0104167
  0
VERTEX
  8
0
 10
9.49615
 20
5.19374
 30
0.0
 40
0.0104167
 41
0.0104167
  0
VERTEX
  8
0
 10
8.92899
 20
4.49457
 30
0.0
 40
0.0104167
 41
0.0104167
  0
SEQEND
 8
0
  0
POLYLINE
  8
0
 62
     0
 66
     1
 10
0
 20
0
 30
0.0
 70
     1
 40
0
 41
0
  0
VERTEX
  8
0
 10
8.58946
 20
4.46186
 30
0.0
 40
0
 41
0
  0
VERTEX
  8
0
 10
8.76753
 20
4.46186
 30
0.0
 40
0
 41
0
  0
VERTEX
  8
0
 10
8.76753
 20
2.92031
 30
0.0
 40
0
 41
0
  0
VERTEX
  8
0
 10
8.58946
 20
2.92031
 30
0.0
 40
0
 41
0
  0
VERTEX
  8
0
 10
8.58946
 20
4.46186
 30
0.0
 40
0
 41
0
  0
SEQEND
 8
0
  0
POLYLINE
  8
0
 62
     0
 66
     1
 10
0
 20
0
 30
0.0
 70
     1
 40
0.15
 41
0.15
  0
VERTEX
  8
0
 10
8.58946
 20
4.46186
 30
0.0
 40
0.00208333
 41
0.00208333
  0
VERTEX
  8
0
 10
8.76753
 20
4.46186
 30
0.0
 40
0.00208333
 41
0.00208333
  0
VERTEX
  8
0
 10
8.76753
 20
2.92031
 30
0.0
 40
0.00208333
 41
0.00208333
  0
VERTEX
  8
0
 10
8.58946
 20
2.92031
 30
0.0
 40
0.00208333
 41
0.00208333
  0
VERTEX
  8
0
 10
8.58946
 20
4.46186
 30
0.0
 40
0.00208333
 41
0.00208333
  0
SEQEND
 8
0
  0
POLYLINE
  8
0
 62
     0
 66
     1
 10
0
 20
0
 30
0.0
 70
     1
 40
0
 41
0
  0
VERTEX
  8
0
 10
3.81478
 20
5.61572
 30
0.0
 40
0
 41
0
  0
VERTEX
  8
0
 10
0.463217
 20
5.61572
 30
0.0
 40
0
 41
0
  0
VERTEX
  8
0
 10
0.463217
 20
5.48031
 30
0.0
 40
0
 41
0
  0
VERTEX
  8
0
 10
3.73031
 20
5.48031
 30
0.0
 40
0
 41
0
  0
VERTEX
  8
0
 10
3.81478
 20
5.61572
 30
0.0
 40
0
 41
0
  0
SEQEND
 8
0
  0
POLYLINE
  8
0
 62
     0
 66
     1
 10
0
 20
0
 30
0.0
 70
     1
 40
0.15
 41
0.15
  0
VERTEX
  8
0
 10
3.81478
 20
5.61572
 30
0.0
 40
0.00208333
 41
0.00208333
  0
VERTEX
  8
0
 10
0.463217
 20
5.61572
 30
0.0
 40
0.00208333
 41
0.00208333
  0
VERTEX
  8
0
 10
0.463217
 20
5.48031
 30
0.0
 40
0.00208333
 41
0.00208333
  0
VERTEX
  8
0
 10
3.73031
 20
5.48031
 30
0.0
 40
0.00208333
 41
0.00208333
  0
VERTEX
  8
0
 10
3.81478
 20
5.61572
 30
0.0
 40
0.00208333
 41
0.00208333
  0
SEQEND
 8
0
  0
POLYLINE
  8
0
 62
     0
 66
     1
 10
0
 20
0
 30
0.0
 70
     1
 40
0
 41
0
  0
VERTEX
  8
0
 10
3.81478
 20
5.61572
 30
0.0
 40
0
 41
0
  0
VERTEX
  8
0
 10
4.37999
 20
4.46186
 30
0.0
 40
0
 41
0
  0
VERTEX
  8
0
 10
4.29042
 20
4.33686
 30
0.0
 40
0
 41
0
  0
VERTEX
  8
0
 10
3.73031
 20
5.48031
 30
0.0
 40
0
 41
0
  0
VERTEX
  8
0
 10
3.81478
 20
5.61572
 30
0.0
 40
0
 41
0
  0
SEQEND
 8
0
  0
POLYLINE
  8
0
 62
     0
 66
     1
 10
0
 20
0
 30
0.0
 70
     1
 40
0.15
 41
0.15
  0
VERTEX
  8
0
 10
3.81478
 20
5.61572
 30
0.0
 40
0.00208333
 41
0.00208333
  0
VERTEX
  8
0
 10
4.37999
 20
4.46186
 30
0.0
 40
0.00208333
 41
0.00208333
  0
VERTEX
  8
0
 10
4.29042
 20
4.33686
 30
0.0
 40
0.00208333
 41
0.00208333
  0
VERTEX
  8
0
 10
3.73031
 20
5.48031
 30
0.0
 40
0.00208333
 41
0.00208333
  0
VERTEX
  8
0
 10
3.81478
 20
5.61572
 30
0.0
 40
0.00208333
 41
0.00208333
  0
SEQEND
 8
0
  0
POLYLINE
  8
0
 62
     7
 66
     1
 10
0
 20
0
 30
0.0
 70
     1
 40
0
 41
0
  0
VERTEX
  8
0
 10
3.93197
 20
5.37636
 30
0.0
 40
0
 41
0
  0
VERTEX
  8
0
 10
4.32167
 20
4.58083
 30
0.0
 40
0
 41
0
  0
VERTEX
  8
0
 10
4.20008
 20
4.52126
 30
0.0
 40
0
 41
0
  0
VERTEX
  8
0
 10
3.81044
 20
5.31679
 30
0.0
 40
0
 41
0
  0
VERTEX
  8
0
 10
3.93197
 20
5.37636
 30
0.0
 40
0
 41
0
  0
SEQEND
 8
0
  0
POLYLINE
  8
0
 62
     0
 66
     1
 10
0
 20
0
 30
0.0
 70
     1
 40
0.75
 41
0.75
  0
VERTEX
  8
0
 10
3.93197
 20
5.37636
 30
0.0
 40
0.0104167
 41
0.0104167
  0
VERTEX
  8
0
 10
4.32167
 20
4.58083
 30
0.0
 40
0.0104167
 41
0.0104167
  0
VERTEX
  8
0
 10
4.20008
 20
4.52126
 30
0.0
 40
0.0104167
 41
0.0104167
  0
VERTEX
  8
0
 10
3.81044
 20
5.31679
 30
0.0
 40
0.0104167
 41
0.0104167
  0
VERTEX
  8
0
 10
3.93197
 20
5.37636
 30
0.0
 40
0.0104167
 41
0.0104167
  0
SEQEND
 8
0
  0
POLYLINE
  8
0
 62
     7
 66
     1
 10
0
 20
0
 30
0.0
 70
     1
 40
0
 41
0
  0
VERTEX
  8
0
 10
3.93197
 20
5.37636
 30
0.0
 40
0
 41
0
  0
VERTEX
  8
0
 10
4.32167
 20
4.58083
 30
0.0
 40
0
 41
0
  0
VERTEX
  8
0
 10
4.20008
 20
4.52126
 30
0.0
 40
0
 41
0
  0
VERTEX
  8
0
 10
3.81044
 20
5.31679
 30
0.0
 40
0
 41
0
  0
VERTEX
  8
0
 10
3.93197
 20
5.37636
 30
0.0
 40
0
 41
0
  0
SEQEND
 8
0
  0
POLYLINE
  8
0
 62
     0
 66
     1
 10
0
 20
0
 30
0.0
 70
     1
 40
0.75
 41
0.75
  0
VERTEX
  8
0
 10
3.93197
 20
5.37636
 30
0.0
 40
0.0104167
 41
0.0104167
  0
VERTEX
  8
0
 10
4.32167
 20
4.58083
 30
0.0
 40
0.0104167
 41
0.0104167
  0
VERTEX
  8
0
 10
4.20008
 20
4.52126
 30
0.0
 40
0.0104167
 41
0.0104167
  0
VERTEX
  8
0
 10
3.81044
 20
5.31679
 30
0.0
 40
0.0104167
 41
0.0104167
  0
VERTEX
  8
0
 10
3.93197
 20
5.37636
 30
0.0
 40
0.0104167
 41
0.0104167
  0
SEQEND
 8
0
  0
POLYLINE
  8
0
 62
     0
 66
     1
 10
0
 20
0
 30
0.0
 70
     1
 40
0.75
 41
0.75
  0
VERTEX
  8
0
 10
4.20008
 20
4.52126
 30
0.0
 40
0.0104167
 41
0.0104167
  0
VERTEX
  8
0
 10
4.15349
 20
4.49849
 30
0.0
 40
0.0104167
 41
0.0104167
  0
VERTEX
  8
0
 10
4.00754
 20
4.44239
 30
0.0
 40
0.0104167
 41
0.0104167
  0
VERTEX
  8
0
 10
3.82769
 20
4.4005
 30
0.0
 40
0.0104167
 41
0.0104167
  0
VERTEX
  8
0
 10
3.66049
 20
4.39567
 30
0.0
 40
0.0104167
 41
0.0104167
  0
VERTEX
  8
0
 10
3.50603
 20
4.4279
 30
0.0
 40
0.0104167
 41
0.0104167
  0
VERTEX
  8
0
 10
3.36421
 20
4.49713
 30
0.0
 40
0.0104167
 41
0.0104167
  0
VERTEX
  8
0
 10
3.23508
 20
4.6034
 30
0.0
 40
0.0104167
 41
0.0104167
  0
VERTEX
  8
0
 10
3.11865
 20
4.74675
 30
0.0
 40
0.0104167
 41
0.0104167
  0
VERTEX
  8
0
 10
3.03771
 20
4.88049
 30
0.0
 40
0.0104167
 41
0.0104167
  0
VERTEX
  8
0
 10
3.01492
 20
4.92708
 30
0.0
 40
0.0104167
 41
0.0104167
  0
VERTEX
  8
0
 10
3.81044
 20
5.31679
 30
0.0
 40
0.0104167
 41
0.0104167
  0
VERTEX
  8
0
 10
4.20008
 20
4.52126
 30
0.0
 40
0.0104167
 41
0.0104167
  0
SEQEND
 8
0
  0
POLYLINE
  8
0
 62
     0
 66
     1
 10
0
 20
0
 30
0.0
 70
     1
 40
0
 41
0
  0
VERTEX
  8
0
 10
4.99761
 20
4.46186
 30
0.0
 40
0
 41
0
  0
VERTEX
  8
0
 10
5.13303
 20
4.46186
 30
0.0
 40
0
 41
0
  0
VERTEX
  8
0
 10
5.13303
 20
2.31592
 30
0.0
 40
0
 41
0
  0
VERTEX
  8
0
 10
4.99761
 20
2.31592
 30
0.0
 40
0
 41
0
  0
VERTEX
  8
0
 10
4.99761
 20
4.46186
 30
0.0
 40
0
 41
0
  0
SEQEND
 8
0
  0
POLYLINE
  8
0
 62
     0
 66
     1
 10
0
 20
0
 30
0.0
 70
     1
 40
0.15
 41
0.15
  0
VERTEX
  8
0
 10
4.99761
 20
4.46186
 30
0.0
 40
0.00208333
 41
0.00208333
  0
VERTEX
  8
0
 10
5.13303
 20
4.46186
 30
0.0
 40
0.00208333
 41
0.00208333
  0
VERTEX
  8
0
 10
5.13303
 20
2.31592
 30
0.0
 40
0.00208333
 41
0.00208333
  0
VERTEX
  8
0
 10
4.99761
 20
2.31592
 30
0.0
 40
0.00208333
 41
0.00208333
  0
VERTEX
  8
0
 10
4.99761
 20
4.46186
 30
0.0
 40
0.00208333
 41
0.00208333
  0
SEQEND
 8
0
  0
POLYLINE
  8
0
 62
     0
 66
     1
 10
0
 20
0
 30
0.0
 70
     1
 40
0
 41
0
  0
VERTEX
  8
0
 10
6.92833
 20
4.46186
 30
0.0
 40
0
 41
0
  0
VERTEX
  8
0
 10
7.06375
 20
4.46186
 30
0.0
 40
0
 41
0
  0
VERTEX
  8
0
 10
7.06375
 20
2.31592
 30
0.0
 40
0
 41
0
  0
VERTEX
  8
0
 10
6.92833
 20
2.31592
 30
0.0
 40
0
 41
0
  0
VERTEX
  8
0
 10
6.92833
 20
4.46186
 30
0.0
 40
0
 41
0
  0
SEQEND
 8
0
  0
POLYLINE
  8
0
 62
     0
 66
     1
 10
0
 20
0
 30
0.0
 70
     1
 40
0.15
 41
0.15
  0
VERTEX
  8
0
 10
6.92833
 20
4.46186
 30
0.0
 40
0.00208333
 41
0.00208333
  0
VERTEX
  8
0
 10
7.06375
 20
4.46186
 30
0.0
 40
0.00208333
 41
0.00208333
  0
VERTEX
  8
0
 10
7.06375
 20
2.31592
 30
0.0
 40
0.00208333
 41
0.00208333
  0
VERTEX
  8
0
 10
6.92833
 20
2.31592
 30
0.0
 40
0.00208333
 41
0.00208333
  0
VERTEX
  8
0
 10
6.92833
 20
4.46186
 30
0.0
 40
0.00208333
 41
0.00208333
  0
SEQEND
 8
0
  0
POLYLINE
  8
0
 62
     0
 66
     1
 10
0
 20
0
 30
0.0
 70
     1
 40
0
 41
0
  0
VERTEX
  8
0
 10
8.74408
 20
5.94646
 30
0.0
 40
0
 41
0
  0
VERTEX
  8
0
 10
8.74408
 20
9.5275
 30
0.0
 40
0
 41
0
  0
VERTEX
  8
0
 10
8.61908
 20
9.5275
 30
0.0
 40
0
 41
0
  0
VERTEX
  8
0
 10
8.61908
 20
6.21446
 30
0.0
 40
0
 41
0
  0
VERTEX
  8
0
 10
8.74408
 20
5.94646
 30
0.0
 40
0
 41
0
  0
SEQEND
 8
0
  0
POLYLINE
  8
0
 62
     0
 66
     1
 10
0
 20
0
 30
0.0
 70
     1
 40
0.15
 41
0.15
  0
VERTEX
  8
0
 10
8.74408
 20
5.94646
 30
0.0
 40
0.00208333
 41
0.00208333
  0
VERTEX
  8
0
 10
8.74408
 20
9.5275
 30
0.0
 40
0.00208333
 41
0.00208333
  0
VERTEX
  8
0
 10
8.61908
 20
9.5275
 30
0.0
 40
0.00208333
 41
0.00208333
  0
VERTEX
  8
0
 10
8.61908
 20
6.21446
 30
0.0
 40
0.00208333
 41
0.00208333
  0
VERTEX
  8
0
 10
8.74408
 20
5.94646
 30
0.0
 40
0.00208333
 41
0.00208333
  0
SEQEND
 8
0
  0
POLYLINE
  8
0
 62
     0
 66
     1
 10
0
 20
0
 30
0.0
 70
     1
 40
0
 41
0
  0
VERTEX
  8
0
 10
8.61376
 20
6.21897
 30
0.0
 40
0
 41
0
  0
VERTEX
  8
0
 10
8.61376
 20
5.90136
 30
0.0
 40
0
 41
0
  0
VERTEX
  8
0
 10
8.73876
 20
5.90136
 30
0.0
 40
0
 41
0
  0
VERTEX
  8
0
 10
8.73876
 20
5.95107
 30
0.0
 40
0
 41
0
  0
VERTEX
  8
0
 10
8.61376
 20
6.21897
 30
0.0
 40
0
 41
0
  0
SEQEND
 8
0
  0
POLYLINE
  8
0
 62
     0
 66
     1
 10
0
 20
0
 30
0.0
 70
     1
 40
0.15
 41
0.15
  0
VERTEX
  8
0
 10
8.61376
 20
6.21897
 30
0.0
 40
0.00208333
 41
0.00208333
  0
VERTEX
  8
0
 10
8.61376
 20
5.90136
 30
0.0
 40
0.00208333
 41
0.00208333
  0
VERTEX
  8
0
 10
8.73876
 20
5.90136
 30
0.0
 40
0.00208333
 41
0.00208333
  0
VERTEX
  8
0
 10
8.73876
 20
5.95107
 30
0.0
 40
0.00208333
 41
0.00208333
  0
VERTEX
  8
0
 10
8.61376
 20
6.21897
 30
0.0
 40
0.00208333
 41
0.00208333
  0
SEQEND
 8
0
  0
POLYLINE
  8
0
 62
     0
 66
     1
 10
0
 20
0
 30
0.0
 70
     1
 40
0
 41
0
  0
VERTEX
  8
0
 10
5.37446
 20
7.31739
 30
0.0
 40
0
 41
0
  0
VERTEX
  8
0
 10
5.46821
 20
7.31739
 30
0.0
 40
0
 41
0
  0
VERTEX
  8
0
 10
5.46821
 20
5.89908
 30
0.0
 40
0
 41
0
  0
VERTEX
  8
0
 10
5.37446
 20
5.89908
 30
0.0
 40
0
 41
0
  0
VERTEX
  8
0
 10
5.37446
 20
7.31739
 30
0.0
 40
0
 41
0
  0
SEQEND
 8
0
  0
POLYLINE
  8
0
 62
     0
 66
     1
 10
0
 20
0
 30
0.0
 70
     1
 40
0.15
 41
0.15
  0
VERTEX
  8
0
 10
5.37446
 20
7.31739
 30
0.0
 40
0.00208333
 41
0.00208333
  0
VERTEX
  8
0
 10
5.46821
 20
7.31739
 30
0.0
 40
0.00208333
 41
0.00208333
  0
VERTEX
  8
0
 10
5.46821
 20
5.89908
 30
0.0
 40
0.00208333
 41
0.00208333
  0
VERTEX
  8
0
 10
5.37446
 20
5.89908
 30
0.0
 40
0.00208333
 41
0.00208333
  0
VERTEX
  8
0
 10
5.37446
 20
7.31739
 30
0.0
 40
0.00208333
 41
0.00208333
  0
SEQEND
 8
0
  0
POLYLINE
  8
0
 62
     0
 66
     1
 10
0
 20
0
 30
0.0
 70
     1
 40
0
 41
0
  0
VERTEX
  8
0
 10
5.37446
 20
6.66081
 30
0.0
 40
0
 41
0
  0
VERTEX
  8
0
 10
6.9095
 20
6.66081
 30
0.0
 40
0
 41
0
  0
VERTEX
  8
0
 10
6.9095
 20
6.54622
 30
0.0
 40
0
 41
0
  0
VERTEX
  8
0
 10
5.37446
 20
6.54622
 30
0.0
 40
0
 41
0
  0
VERTEX
  8
0
 10
5.37446
 20
6.66081
 30
0.0
 40
0
 41
0
  0
SEQEND
 8
0
  0
POLYLINE
  8
0
 62
     0
 66
     1
 10
0
 20
0
 30
0.0
 70
     1
 40
0.15
 41
0.15
  0
VERTEX
  8
0
 10
5.37446
 20
6.66081
 30
0.0
 40
0.00208333
 41
0.00208333
  0
VERTEX
  8
0
 10
6.9095
 20
6.66081
 30
0.0
 40
0.00208333
 41
0.00208333
  0
VERTEX
  8
0
 10
6.9095
 20
6.54622
 30
0.0
 40
0.00208333
 41
0.00208333
  0
VERTEX
  8
0
 10
5.37446
 20
6.54622
 30
0.0
 40
0.00208333
 41
0.00208333
  0
VERTEX
  8
0
 10
5.37446
 20
6.66081
 30
0.0
 40
0.00208333
 41
0.00208333
  0
SEQEND
 8
0
  0
POLYLINE
  8
0
 62
     0
 66
     1
 10
0
 20
0
 30
0.0
 70
     1
 40
0
 41
0
  0
VERTEX
  8
0
 10
7.86208
 20
6.66081
 30
0.0
 40
0
 41
0
  0
VERTEX
  8
0
 10
8.73876
 20
6.66081
 30
0.0
 40
0
 41
0
  0
VERTEX
  8
0
 10
8.73876
 20
6.54622
 30
0.0
 40
0
 41
0
  0
VERTEX
  8
0
 10
7.86208
 20
6.54622
 30
0.0
 40
0
 41
0
  0
VERTEX
  8
0
 10
7.86208
 20
6.66081
 30
0.0
 40
0
 41
0
  0
SEQEND
 8
0
  0
POLYLINE
  8
0
 62
     0
 66
     1
 10
0
 20
0
 30
0.0
 70
     1
 40
0.15
 41
0.15
  0
VERTEX
  8
0
 10
7.86208
 20
6.66081
 30
0.0
 40
0.00208333
 41
0.00208333
  0
VERTEX
  8
0
 10
8.73876
 20
6.66081
 30
0.0
 40
0.00208333
 41
0.00208333
  0
VERTEX
  8
0
 10
8.73876
 20
6.54622
 30
0.0
 40
0.00208333
 41
0.00208333
  0
VERTEX
  8
0
 10
7.86208
 20
6.54622
 30
0.0
 40
0.00208333
 41
0.00208333
  0
VERTEX
  8
0
 10
7.86208
 20
6.66081
 30
0.0
 40
0.00208333
 41
0.00208333
  0
SEQEND
 8
0
  0
POLYLINE
  8
0
 62
     0
 66
     1
 10
0
 20
0
 30
0.0
 70
     1
 40
0
 41
0
  0
VERTEX
  8
0
 10
6.785
 20
7.31739
 30
0.0
 40
0
 41
0
  0
VERTEX
  8
0
 10
6.87386
 20
7.31739
 30
0.0
 40
0
 41
0
  0
VERTEX
  8
0
 10
6.87386
 20
6.54622
 30
0.0
 40
0
 41
0
  0
VERTEX
  8
0
 10
6.785
 20
6.54622
 30
0.0
 40
0
 41
0
  0
VERTEX
  8
0
 10
6.785
 20
7.31739
 30
0.0
 40
0
 41
0
  0
SEQEND
 8
0
  0
POLYLINE
  8
0
 62
     0
 66
     1
 10
0
 20
0
 30
0.0
 70
     1
 40
0.15
 41
0.15
  0
VERTEX
  8
0
 10
6.785
 20
7.31739
 30
0.0
 40
0.00208333
 41
0.00208333
  0
VERTEX
  8
0
 10
6.87386
 20
7.31739
 30
0.0
 40
0.00208333
 41
0.00208333
  0
VERTEX
  8
0
 10
6.87386
 20
6.54622
 30
0.0
 40
0.00208333
 41
0.00208333
  0
VERTEX
  8
0
 10
6.785
 20
6.54622
 30
0.0
 40
0.00208333
 41
0.00208333
  0
VERTEX
  8
0
 10
6.785
 20
7.31739
 30
0.0
 40
0.00208333
 41
0.00208333
  0
SEQEND
 8
0
  0
POLYLINE
  8
0
 62
     7
 66
     1
 10
0
 20
0
 30
0.0
 70
     1
 40
0
 41
0
  0
VERTEX
  8
0
 10
0.541015
 20
12.2343
 30
0.0
 40
0
 41
0
  0
VERTEX
  8
0
 10
0.634711
 20
12.2343
 30
0.0
 40
0
 41
0
  0
VERTEX
  8
0
 10
0.634711
 20
10.0661
 30
0.0
 40
0
 41
0
  0
VERTEX
  8
0
 10
0.541015
 20
10.0661
 30
0.0
 40
0
 41
0
  0
VERTEX
  8
0
 10
0.541015
 20
12.2343
 30
0.0
 40
0
 41
0
  0
SEQEND
 8
0
  0
POLYLINE
  8
0
 62
     0
 66
     1
 10
0
 20
0
 30
0.0
 70
     1
 40
0.15
 41
0.15
  0
VERTEX
  8
0
 10
0.541015
 20
12.2343
 30
0.0
 40
0.00208333
 41
0.00208333
  0
VERTEX
  8
0
 10
0.634711
 20
12.2343
 30
0.0
 40
0.00208333
 41
0.00208333
  0
VERTEX
  8
0
 10
0.634711
 20
10.0661
 30
0.0
 40
0.00208333
 41
0.00208333
  0
VERTEX
  8
0
 10
0.541015
 20
10.0661
 30
0.0
 40
0.00208333
 41
0.00208333
  0
VERTEX
  8
0
 10
0.541015
 20
12.2343
 30
0.0
 40
0.00208333
 41
0.00208333
  0
SEQEND
 8
0
  0
POLYLINE
  8
0
 62
     7
 66
     1
 10
0
 20
0
 30
0.0
 70
     1
 40
0
 41
0
  0
VERTEX
  8
0
 10
5.46826
 20
7.31739
 30
0.0
 40
0
 41
0
  0
VERTEX
  8
0
 10
6.12196
 20
7.31739
 30
0.0
 40
0
 41
0
  0
VERTEX
  8
0
 10
6.12196
 20
6.66114
 30
0.0
 40
0
 41
0
  0
VERTEX
  8
0
 10
5.46826
 20
6.66114
 30
0.0
 40
0
 41
0
  0
VERTEX
  8
0
 10
5.46826
 20
7.31739
 30
0.0
 40
0
 41
0
  0
SEQEND
 8
0
  0
POLYLINE
  8
0
 62
     0
 66
     1
 10
0
 20
0
 30
0.0
 70
     1
 40
0.784425
 41
0.784425
  0
VERTEX
  8
0
 10
5.46826
 20
7.31739
 30
0.0
 40
0.0108948
 41
0.0108948
  0
VERTEX
  8
0
 10
6.12196
 20
7.31739
 30
0.0
 40
0.0108948
 41
0.0108948
  0
VERTEX
  8
0
 10
6.12196
 20
6.66114
 30
0.0
 40
0.0108948
 41
0.0108948
  0
VERTEX
  8
0
 10
5.46826
 20
6.66114
 30
0.0
 40
0.0108948
 41
0.0108948
  0
VERTEX
  8
0
 10
5.46826
 20
7.31739
 30
0.0
 40
0.0108948
 41
0.0108948
  0
SEQEND
 8
0
  0
POLYLINE
  8
0
 62
     0
 66
     1
 10
0
 20
0
 30
0.0
 40
0.784425
 41
0.784425
  0
VERTEX
  8
0
 10
6.12196
 20
6.66114
 30
0.0
 40
0.0108948
 41
0.0108948
  0
VERTEX
  8
0
 10
5.79514
 20
7.06689
 30
0.0
 40
0.0108948
 41
0.0108948
  0
VERTEX
  8
0
 10
5.79514
 20
6.87007
 30
0.0
 40
0.0108948
 41
0.0108948
  0
VERTEX
  8
0
 10
5.46826
 20
7.27692
 30
0.0
 40
0.0108948
 41
0.0108948
  0
SEQEND
 8
0
  0
POLYLINE
  8
0
 62
     7
 66
     1
 10
0
 20
0
 30
0.0
 70
     1
 40
0
 41
0
  0
VERTEX
  8
0
 10
5.46826
 20
7.31739
 30
0.0
 40
0
 41
0
  0
VERTEX
  8
0
 10
6.12196
 20
7.31739
 30
0.0
 40
0
 41
0
  0
VERTEX
  8
0
 10
6.12196
 20
7.27365
 30
0.0
 40
0
 41
0
  0
VERTEX
  8
0
 10
5.46826
 20
7.27365
 30
0.0
 40
0
 41
0
  0
VERTEX
  8
0
 10
5.46826
 20
7.31739
 30
0.0
 40
0
 41
0
  0
SEQEND
 8
0
  0
POLYLINE
  8
0
 62
     0
 66
     1
 10
0
 20
0
 30
0.0
 70
     1
 40
0.784425
 41
0.784425
  0
VERTEX
  8
0
 10
5.46826
 20
7.31739
 30
0.0
 40
0.0108948
 41
0.0108948
  0
VERTEX
  8
0
 10
6.12196
 20
7.31739
 30
0.0
 40
0.0108948
 41
0.0108948
  0
VERTEX
  8
0
 10
6.12196
 20
7.27365
 30
0.0
 40
0.0108948
 41
0.0108948
  0
VERTEX
  8
0
 10
5.46826
 20
7.27365
 30
0.0
 40
0.0108948
 41
0.0108948
  0
VERTEX
  8
0
 10
5.46826
 20
7.31739
 30
0.0
 40
0.0108948
 41
0.0108948
  0
SEQEND
 8
0
  0
POLYLINE
  8
0
 62
     7
 66
     1
 10
0
 20
0
 30
0.0
 70
     1
 40
0
 41
0
  0
VERTEX
  8
0
 10
6.12196
 20
7.31825
 30
0.0
 40
0
 41
0
  0
VERTEX
  8
0
 10
6.78444
 20
7.31825
 30
0.0
 40
0
 41
0
  0
VERTEX
  8
0
 10
6.78444
 20
6.662
 30
0.0
 40
0
 41
0
  0
VERTEX
  8
0
 10
6.12196
 20
6.662
 30
0.0
 40
0
 41
0
  0
VERTEX
  8
0
 10
6.12196
 20
7.31825
 30
0.0
 40
0
 41
0
  0
SEQEND
 8
0
  0
POLYLINE
  8
0
 62
     0
 66
     1
 10
0
 20
0
 30
0.0
 70
     1
 40
0.795
 41
0.795
  0
VERTEX
  8
0
 10
6.12196
 20
7.31825
 30
0.0
 40
0.0110417
 41
0.0110417
  0
VERTEX
  8
0
 10
6.78444
 20
7.31825
 30
0.0
 40
0.0110417
 41
0.0110417
  0
VERTEX
  8
0
 10
6.78444
 20
6.662
 30
0.0
 40
0.0110417
 41
0.0110417
  0
VERTEX
  8
0
 10
6.12196
 20
6.662
 30
0.0
 40
0.0110417
 41
0.0110417
  0
VERTEX
  8
0
 10
6.12196
 20
7.31825
 30
0.0
 40
0.0110417
 41
0.0110417
  0
SEQEND
 8
0
  0
POLYLINE
  8
0
 62
     0
 66
     1
 10
0
 20
0
 30
0.0
 40
0.795
 41
0.795
  0
VERTEX
  8
0
 10
6.78444
 20
6.662
 30
0.0
 40
0.0110417
 41
0.0110417
  0
VERTEX
  8
0
 10
6.45324
 20
7.06776
 30
0.0
 40
0.0110417
 41
0.0110417
  0
VERTEX
  8
0
 10
6.45324
 20
6.87088
 30
0.0
 40
0.0110417
 41
0.0110417
  0
VERTEX
  8
0
 10
6.12196
 20
7.27778
 30
0.0
 40
0.0110417
 41
0.0110417
  0
SEQEND
 8
0
  0
POLYLINE
  8
0
 62
     7
 66
     1
 10
0
 20
0
 30
0.0
 70
     1
 40
0
 41
0
  0
VERTEX
  8
0
 10
6.12196
 20
7.31825
 30
0.0
 40
0
 41
0
  0
VERTEX
  8
0
 10
6.78444
 20
7.31825
 30
0.0
 40
0
 41
0
  0
VERTEX
  8
0
 10
6.78444
 20
7.27447
 30
0.0
 40
0
 41
0
  0
VERTEX
  8
0
 10
6.12196
 20
7.27447
 30
0.0
 40
0
 41
0
  0
VERTEX
  8
0
 10
6.12196
 20
7.31825
 30
0.0
 40
0
 41
0
  0
SEQEND
 8
0
  0
POLYLINE
  8
0
 62
     0
 66
     1
 10
0
 20
0
 30
0.0
 70
     1
 40
0.795
 41
0.795
  0
VERTEX
  8
0
 10
6.12196
 20
7.31825
 30
0.0
 40
0.0110417
 41
0.0110417
  0
VERTEX
  8
0
 10
6.78444
 20
7.31825
 30
0.0
 40
0.0110417
 41
0.0110417
  0
VERTEX
  8
0
 10
6.78444
 20
7.27447
 30
0.0
 40
0.0110417
 41
0.0110417
  0
VERTEX
  8
0
 10
6.12196
 20
7.27447
 30
0.0
 40
0.0110417
 41
0.0110417
  0
VERTEX
  8
0
 10
6.12196
 20
7.31825
 30
0.0
 40
0.0110417
 41
0.0110417
  0
SEQEND
 8
0
  0
POLYLINE
  8
0
 62
     7
 66
     1
 10
0
 20
0
 30
0.0
 70
     1
 40
0
 41
0
  0
VERTEX
  8
0
 10
5.46826
 20
6.54525
 30
0.0
 40
0
 41
0
  0
VERTEX
  8
0
 10
6.78299
 20
6.54525
 30
0.0
 40
0
 41
0
  0
VERTEX
  8
0
 10
6.78299
 20
5.91461
 30
0.0
 40
0
 41
0
  0
VERTEX
  8
0
 10
5.46826
 20
5.91461
 30
0.0
 40
0
 41
0
  0
VERTEX
  8
0
 10
5.46826
 20
6.54525
 30
0.0
 40
0
 41
0
  0
SEQEND
 8
0
  0
POLYLINE
  8
0
 62
     0
 66
     1
 10
0
 20
0
 30
0.0
 70
     1
 40
0.75
 41
0.75
  0
VERTEX
  8
0
 10
5.46826
 20
6.54525
 30
0.0
 40
0.0104167
 41
0.0104167
  0
VERTEX
  8
0
 10
6.78299
 20
6.54525
 30
0.0
 40
0.0104167
 41
0.0104167
  0
VERTEX
  8
0
 10
6.78299
 20
5.91461
 30
0.0
 40
0.0104167
 41
0.0104167
  0
VERTEX
  8
0
 10
5.46826
 20
5.91461
 30
0.0
 40
0.0104167
 41
0.0104167
  0
VERTEX
  8
0
 10
5.46826
 20
6.54525
 30
0.0
 40
0.0104167
 41
0.0104167
  0
SEQEND
 8
0
  0
POLYLINE
  8
0
 62
     253
 66
     1
 10
0
 20
0
 30
0.0
 40
0.75
 41
0.75
  0
VERTEX
  8
0
 10
5.46826
 20
6.22993
 30
0.0
 40
0.0104167
 41
0.0104167
  0
VERTEX
  8
0
 10
6.78299
 20
6.22993
 30
0.0
 40
0.0104167
 41
0.0104167
  0
SEQEND
 8
0
  0
POLYLINE
  8
0
 62
     7
 66
     1
 10
0
 20
0
 30
0.0
 70
     1
 40
0
 41
0
  0
VERTEX
  8
0
 10
7.98025
 20
6.54525
 30
0.0
 40
0
 41
0
  0
VERTEX
  8
0
 10
8.61372
 20
6.54525
 30
0.0
 40
0
 41
0
  0
VERTEX
  8
0
 10
8.61372
 20
5.90896
 30
0.0
 40
0
 41
0
  0
VERTEX
  8
0
 10
7.98025
 20
5.90896
 30
0.0
 40
0
 41
0
  0
VERTEX
  8
0
 10
7.98025
 20
6.54525
 30
0.0
 40
0
 41
0
  0
SEQEND
 8
0
  0
POLYLINE
  8
0
 62
     0
 66
     1
 10
0
 20
0
 30
0.0
 70
     1
 40
0.75
 41
0.75
  0
VERTEX
  8
0
 10
7.98025
 20
6.54525
 30
0.0
 40
0.0104167
 41
0.0104167
  0
VERTEX
  8
0
 10
8.61372
 20
6.54525
 30
0.0
 40
0.0104167
 41
0.0104167
  0
VERTEX
  8
0
 10
8.61372
 20
5.90896
 30
0.0
 40
0.0104167
 41
0.0104167
  0
VERTEX
  8
0
 10
7.98025
 20
5.90896
 30
0.0
 40
0.0104167
 41
0.0104167
  0
VERTEX
  8
0
 10
7.98025
 20
6.54525
 30
0.0
 40
0.0104167
 41
0.0104167
  0
SEQEND
 8
0
  0
POLYLINE
  8
0
 62
     7
 66
     1
 10
0
 20
0
 30
0.0
 70
     1
 40
0
 41
0
  0
VERTEX
  8
0
 10
11.4702
 20
6.26357
 30
0.0
 40
0
 41
0
  0
VERTEX
  8
0
 10
12.1407
 20
6.26357
 30
0.0
 40
0
 41
0
  0
VERTEX
  8
0
 10
12.1407
 20
5.61572
 30
0.0
 40
0
 41
0
  0
VERTEX
  8
0
 10
11.4702
 20
5.61572
 30
0.0
 40
0
 41
0
  0
VERTEX
  8
0
 10
11.4702
 20
6.26357
 30
0.0
 40
0
 41
0
  0
SEQEND
 8
0
  0
POLYLINE
  8
0
 62
     0
 66
     1
 10
0
 20
0
 30
0.0
 70
     1
 40
0.75
 41
0.75
  0
VERTEX
  8
0
 10
11.4702
 20
6.26357
 30
0.0
 40
0.0104167
 41
0.0104167
  0
VERTEX
  8
0
 10
12.1407
 20
6.26357
 30
0.0
 40
0.0104167
 41
0.0104167
  0
VERTEX
  8
0
 10
12.1407
 20
5.61572
 30
0.0
 40
0.0104167
 41
0.0104167
  0
VERTEX
  8
0
 10
11.4702
 20
5.61572
 30
0.0
 40
0.0104167
 41
0.0104167
  0
VERTEX
  8
0
 10
11.4702
 20
6.26357
 30
0.0
 40
0.0104167
 41
0.0104167
  0
SEQEND
 8
0
  0
POLYLINE
  8
0
 62
     7
 66
     1
 10
0
 20
0
 30
0.0
 70
     1
 40
0
 41
0
  0
VERTEX
  8
0
 10
10.8182
 20
6.26335
 30
0.0
 40
0
 41
0
  0
VERTEX
  8
0
 10
11.4702
 20
6.26335
 30
0.0
 40
0
 41
0
  0
VERTEX
  8
0
 10
11.4702
 20
5.61572
 30
0.0
 40
0
 41
0
  0
VERTEX
  8
0
 10
10.8182
 20
5.61572
 30
0.0
 40
0
 41
0
  0
VERTEX
  8
0
 10
10.8182
 20
6.26335
 30
0.0
 40
0
 41
0
  0
SEQEND
 8
0
  0
POLYLINE
  8
0
 62
     0
 66
     1
 10
0
 20
0
 30
0.0
 70
     1
 40
0.75
 41
0.75
  0
VERTEX
  8
0
 10
10.8182
 20
6.26335
 30
0.0
 40
0.0104167
 41
0.0104167
  0
VERTEX
  8
0
 10
11.4702
 20
6.26335
 30
0.0
 40
0.0104167
 41
0.0104167
  0
VERTEX
  8
0
 10
11.4702
 20
5.61572
 30
0.0
 40
0.0104167
 41
0.0104167
  0
VERTEX
  8
0
 10
10.8182
 20
5.61572
 30
0.0
 40
0.0104167
 41
0.0104167
  0
VERTEX
  8
0
 10
10.8182
 20
6.26335
 30
0.0
 40
0.0104167
 41
0.0104167
  0
SEQEND
 8
0
  0
POLYLINE
  8
0
 62
     253
 66
     1
 10
0
 20
0
 30
0.0
 40
0.75
 41
0.75
  0
VERTEX
  8
0
 10
11.4702
 20
5.93956
 30
0.0
 40
0.0104167
 41
0.0104167
  0
VERTEX
  8
0
 10
10.8181
 20
5.93956
 30
0.0
 40
0.0104167
 41
0.0104167
  0
SEQEND
 8
0
  0
POLYLINE
  8
0
 62
     7
 66
     1
 10
0
 20
0
 30
0.0
 70
     1
 40
0
 41
0
  0
VERTEX
  8
0
 10
10.1662
 20
6.26335
 30
0.0
 40
0
 41
0
  0
VERTEX
  8
0
 10
10.8181
 20
6.26335
 30
0.0
 40
0
 41
0
  0
VERTEX
  8
0
 10
10.8181
 20
5.61572
 30
0.0
 40
0
 41
0
  0
VERTEX
  8
0
 10
10.1662
 20
5.61572
 30
0.0
 40
0
 41
0
  0
VERTEX
  8
0
 10
10.1662
 20
6.26335
 30
0.0
 40
0
 41
0
  0
SEQEND
 8
0
  0
POLYLINE
  8
0
 62
     0
 66
     1
 10
0
 20
0
 30
0.0
 70
     1
 40
0.75
 41
0.75
  0
VERTEX
  8
0
 10
10.1662
 20
6.26335
 30
0.0
 40
0.0104167
 41
0.0104167
  0
VERTEX
  8
0
 10
10.8181
 20
6.26335
 30
0.0
 40
0.0104167
 41
0.0104167
  0
VERTEX
  8
0
 10
10.8181
 20
5.61572
 30
0.0
 40
0.0104167
 41
0.0104167
  0
VERTEX
  8
0
 10
10.1662
 20
5.61572
 30
0.0
 40
0.0104167
 41
0.0104167
  0
VERTEX
  8
0
 10
10.1662
 20
6.26335
 30
0.0
 40
0.0104167
 41
0.0104167
  0
SEQEND
 8
0
  0
POLYLINE
  8
0
 62
     253
 66
     1
 10
0
 20
0
 30
0.0
 40
0.75
 41
0.75
  0
VERTEX
  8
0
 10
10.8181
 20
5.93956
 30
0.0
 40
0.0104167
 41
0.0104167
  0
VERTEX
  8
0
 10
10.1661
 20
5.93956
 30
0.0
 40
0.0104167
 41
0.0104167
  0
SEQEND
 8
0
  0
POLYLINE
  8
0
 62
     7
 66
     1
 10
0
 20
0
 30
0.0
 70
     1
 40
0
 41
0
  0
VERTEX
  8
0
 10
12.0719
 20
5.16829
 30
0.0
 40
0
 41
0
  0
VERTEX
  8
0
 10
12.1355
 20
5.16829
 30
0.0
 40
0
 41
0
  0
VERTEX
  8
0
 10
12.1355
 20
5.05165
 30
0.0
 40
0
 41
0
  0
VERTEX
  8
0
 10
12.0719
 20
5.05165
 30
0.0
 40
0
 41
0
  0
VERTEX
  8
0
 10
12.0719
 20
5.16829
 30
0.0
 40
0
 41
0
  0
SEQEND
 8
0
  0
POLYLINE
  8
0
 62
     0
 66
     1
 10
0
 20
0
 30
0.0
 70
     1
 40
0.75
 41
0.75
  0
VERTEX
  8
0
 10
12.0719
 20
5.16829
 30
0.0
 40
0.0104167
 41
0.0104167
  0
VERTEX
  8
0
 10
12.0719
 20
5.05165
 30
0.0
 40
0.0104167
 41
0.0104167
  0
VERTEX
  8
0
 10
12.1355
 20
5.05165
 30
0.0
 40
0.0104167
 41
0.0104167
  0
VERTEX
  8
0
 10
12.1355
 20
5.16829
 30
0.0
 40
0.0104167
 41
0.0104167
  0
VERTEX
  8
0
 10
12.0719
 20
5.16829
 30
0.0
 40
0.0104167
 41
0.0104167
  0
SEQEND
 8
0
  0
POLYLINE
  8
0
 62
     7
 66
     1
 10
0
 20
0
 30
0.0
 70
     1
 40
0
 41
0
  0
VERTEX
  8
0
 10
12.0719
 20
5.02349
 30
0.0
 40
0
 41
0
  0
VERTEX
  8
0
 10
12.1355
 20
5.02349
 30
0.0
 40
0
 41
0
  0
VERTEX
  8
0
 10
12.1355
 20
4.90685
 30
0.0
 40
0
 41
0
  0
VERTEX
  8
0
 10
12.0719
 20
4.90685
 30
0.0
 40
0
 41
0
  0
VERTEX
  8
0
 10
12.0719
 20
5.02349
 30
0.0
 40
0
 41
0
  0
SEQEND
 8
0
  0
POLYLINE
  8
0
 62
     0
 66
     1
 10
0
 20
0
 30
0.0
 70
     1
 40
0.75
 41
0.75
  0
VERTEX
  8
0
 10
12.0719
 20
5.02349
 30
0.0
 40
0.0104167
 41
0.0104167
  0
VERTEX
  8
0
 10
12.0719
 20
4.90685
 30
0.0
 40
0.0104167
 41
0.0104167
  0
VERTEX
  8
0
 10
12.1355
 20
4.90685
 30
0.0
 40
0.0104167
 41
0.0104167
  0
VERTEX
  8
0
 10
12.1355
 20
5.02349
 30
0.0
 40
0.0104167
 41
0.0104167
  0
VERTEX
  8
0
 10
12.0719
 20
5.02349
 30
0.0
 40
0.0104167
 41
0.0104167
  0
SEQEND
 8
0
  0
POLYLINE
  8
0
 62
     7
 66
     1
 10
0
 20
0
 30
0.0
 70
     1
 40
0
 41
0
  0
VERTEX
  8
0
 10
12.0719
 20
4.90788
 30
0.0
 40
0
 41
0
  0
VERTEX
  8
0
 10
12.1355
 20
4.90788
 30
0.0
 40
0
 41
0
  0
VERTEX
  8
0
 10
12.1355
 20
4.87244
 30
0.0
 40
0
 41
0
  0
VERTEX
  8
0
 10
12.0719
 20
4.87244
 30
0.0
 40
0
 41
0
  0
VERTEX
  8
0
 10
12.0719
 20
4.90788
 30
0.0
 40
0
 41
0
  0
SEQEND
 8
0
  0
POLYLINE
  8
0
 62
     0
 66
     1
 10
0
 20
0
 30
0.0
 70
     1
 40
0.75
 41
0.75
  0
VERTEX
  8
0
 10
12.0719
 20
4.90788
 30
0.0
 40
0.0104167
 41
0.0104167
  0
VERTEX
  8
0
 10
12.0719
 20
4.87244
 30
0.0
 40
0.0104167
 41
0.0104167
  0
VERTEX
  8
0
 10
12.1355
 20
4.87244
 30
0.0
 40
0.0104167
 41
0.0104167
  0
VERTEX
  8
0
 10
12.1355
 20
4.90788
 30
0.0
 40
0.0104167
 41
0.0104167
  0
VERTEX
  8
0
 10
12.0719
 20
4.90788
 30
0.0
 40
0.0104167
 41
0.0104167
  0
SEQEND
 8
0
  0
POLYLINE
  8
0
 62
     7
 66
     1
 10
0
 20
0
 30
0.0
 70
     1
 40
0
 41
0
  0
VERTEX
  8
0
 10
12.0719
 20
5.20167
 30
0.0
 40
0
 41
0
  0
VERTEX
  8
0
 10
12.1355
 20
5.20167
 30
0.0
 40
0
 41
0
  0
VERTEX
  8
0
 10
12.1355
 20
5.16829
 30
0.0
 40
0
 41
0
  0
VERTEX
  8
0
 10
12.0719
 20
5.16829
 30
0.0
 40
0
 41
0
  0
VERTEX
  8
0
 10
12.0719
 20
5.20167
 30
0.0
 40
0
 41
0
  0
SEQEND
 8
0
  0
POLYLINE
  8
0
 62
     0
 66
     1
 10
0
 20
0
 30
0.0
 70
     1
 40
0.75
 41
0.75
  0
VERTEX
  8
0
 10
12.0719
 20
5.20167
 30
0.0
 40
0.0104167
 41
0.0104167
  0
VERTEX
  8
0
 10
12.0719
 20
5.16829
 30
0.0
 40
0.0104167
 41
0.0104167
  0
VERTEX
  8
0
 10
12.1355
 20
5.16829
 30
0.0
 40
0.0104167
 41
0.0104167
  0
VERTEX
  8
0
 10
12.1355
 20
5.20167
 30
0.0
 40
0.0104167
 41
0.0104167
  0
VERTEX
  8
0
 10
12.0719
 20
5.20167
 30
0.0
 40
0.0104167
 41
0.0104167
  0
SEQEND
 8
0
  0
POLYLINE
  8
0
 62
     7
 66
     1
 10
0
 20
0
 30
0.0
 70
     1
 40
0
 41
0
  0
VERTEX
  8
0
 10
12.0522
 20
5.05165
 30
0.0
 40
0
 41
0
  0
VERTEX
  8
0
 10
12.0458
 20
5.05165
 30
0.0
 40
0
 41
0
  0
VERTEX
  8
0
 10
12.0269
 20
5.05533
 30
0.0
 40
0
 41
0
  0
VERTEX
  8
0
 10
12.0045
 20
5.06521
 30
0.0
 40
0
 41
0
  0
VERTEX
  8
0
 10
12.0001
 20
5.06831
 30
0.0
 40
0
 41
0
  0
VERTEX
  8
0
 10
11.9985
 20
5.06939
 30
0.0
 40
0
 41
0
  0
VERTEX
  8
0
 10
11.9839
 20
5.07954
 30
0.0
 40
0
 41
0
  0
VERTEX
  8
0
 10
11.9824
 20
5.07975
 30
0.0
 40
0
 41
0
  0
VERTEX
  8
0
 10
11.9795
 20
5.08029
 30
0.0
 40
0
 41
0
  0
VERTEX
  8
0
 10
11.9629
 20
5.07617
 30
0.0
 40
0
 41
0
  0
VERTEX
  8
0
 10
11.9501
 20
5.05946
 30
0.0
 40
0
 41
0
  0
VERTEX
  8
0
 10
11.9491
 20
5.05371
 30
0.0
 40
0
 41
0
  0
VERTEX
  8
0
 10
11.9488
 20
5.0524
 30
0.0
 40
0
 41
0
  0
VERTEX
  8
0
 10
11.948
 20
5.0409
 30
0.0
 40
0
 41
0
  0
VERTEX
  8
0
 10
11.948
 20
5.03706
 30
0.0
 40
0
 41
0
  0
VERTEX
  8
0
 10
11.948
 20
5.03808
 30
0.0
 40
0
 41
0
  0
VERTEX
  8
0
 10
11.948
 20
5.03396
 30
0.0
 40
0
 41
0
  0
VERTEX
  8
0
 10
11.9488
 20
5.02274
 30
0.0
 40
0
 41
0
  0
VERTEX
  8
0
 10
11.9491
 20
5.02143
 30
0.0
 40
0
 41
0
  0
VERTEX
  8
0
 10
11.9501
 20
5.01574
 30
0.0
 40
0
 41
0
  0
VERTEX
  8
0
 10
11.9629
 20
4.99908
 30
0.0
 40
0
 41
0
  0
VERTEX
  8
0
 10
11.9795
 20
4.9949
 30
0.0
 40
0
 41
0
  0
VERTEX
  8
0
 10
11.9824
 20
4.99539
 30
0.0
 40
0
 41
0
  0
VERTEX
  8
0
 10
11.9839
 20
4.99567
 30
0.0
 40
0
 41
0
  0
VERTEX
  8
0
 10
11.9985
 20
5.00581
 30
0.0
 40
0
 41
0
  0
VERTEX
  8
0
 10
12.0001
 20
5.00683
 30
0.0
 40
0
 41
0
  0
VERTEX
  8
0
 10
12.0045
 20
5.00999
 30
0.0
 40
0
 41
0
  0
VERTEX
  8
0
 10
12.0269
 20
5.01992
 30
0.0
 40
0
 41
0
  0
VERTEX
  8
0
 10
12.0458
 20
5.02349
 30
0.0
 40
0
 41
0
  0
VERTEX
  8
0
 10
12.0522
 20
5.02349
 30
0.0
 40
0
 41
0
  0
SEQEND
 8
0
  0
POLYLINE
  8
0
 62
     0
 66
     1
 10
0
 20
0
 30
0.0
 40
0.75
 41
0.75
  0
VERTEX
  8
0
 10
12.0522
 20
5.05165
 30
0.0
 40
0.0104167
 41
0.0104167
  0
VERTEX
  8
0
 10
12.0458
 20
5.05165
 30
0.0
 40
0.0104167
 41
0.0104167
  0
VERTEX
  8
0
 10
12.0269
 20
5.05533
 30
0.0
 40
0.0104167
 41
0.0104167
  0
VERTEX
  8
0
 10
12.0045
 20
5.06521
 30
0.0
 40
0.0104167
 41
0.0104167
  0
VERTEX
  8
0
 10
12.0001
 20
5.06831
 30
0.0
 40
0.0104167
 41
0.0104167
  0
VERTEX
  8
0
 10
11.9985
 20
5.06939
 30
0.0
 40
0.0104167
 41
0.0104167
  0
VERTEX
  8
0
 10
11.9839
 20
5.07954
 30
0.0
 40
0.0104167
 41
0.0104167
  0
VERTEX
  8
0
 10
11.9824
 20
5.07975
 30
0.0
 40
0.0104167
 41
0.0104167
  0
VERTEX
  8
0
 10
11.9795
 20
5.08029
 30
0.0
 40
0.0104167
 41
0.0104167
  0
VERTEX
  8
0
 10
11.9629
 20
5.07617
 30
0.0
 40
0.0104167
 41
0.0104167
  0
VERTEX
  8
0
 10
11.9501
 20
5.05946
 30
0.0
 40
0.0104167
 41
0.0104167
  0
VERTEX
  8
0
 10
11.9491
 20
5.05371
 30
0.0
 40
0.0104167
 41
0.0104167
  0
VERTEX
  8
0
 10
11.9488
 20
5.0524
 30
0.0
 40
0.0104167
 41
0.0104167
  0
VERTEX
  8
0
 10
11.948
 20
5.0409
 30
0.0
 40
0.0104167
 41
0.0104167
  0
VERTEX
  8
0
 10
11.948
 20
5.03706
 30
0.0
 40
0.0104167
 41
0.0104167
  0
VERTEX
  8
0
 10
11.948
 20
5.03808
 30
0.0
 40
0.0104167
 41
0.0104167
  0
VERTEX
  8
0
 10
11.948
 20
5.03396
 30
0.0
 40
0.0104167
 41
0.0104167
  0
VERTEX
  8
0
 10
11.9488
 20
5.02274
 30
0.0
 40
0.0104167
 41
0.0104167
  0
VERTEX
  8
0
 10
11.9491
 20
5.02143
 30
0.0
 40
0.0104167
 41
0.0104167
  0
VERTEX
  8
0
 10
11.9501
 20
5.01574
 30
0.0
 40
0.0104167
 41
0.0104167
  0
VERTEX
  8
0
 10
11.9629
 20
4.99908
 30
0.0
 40
0.0104167
 41
0.0104167
  0
VERTEX
  8
0
 10
11.9795
 20
4.9949
 30
0.0
 40
0.0104167
 41
0.0104167
  0
VERTEX
  8
0
 10
11.9824
 20
4.99539
 30
0.0
 40
0.0104167
 41
0.0104167
  0
VERTEX
  8
0
 10
11.9839
 20
4.99567
 30
0.0
 40
0.0104167
 41
0.0104167
  0
VERTEX
  8
0
 10
11.9985
 20
5.00581
 30
0.0
 40
0.0104167
 41
0.0104167
  0
VERTEX
  8
0
 10
12.0001
 20
5.00683
 30
0.0
 40
0.0104167
 41
0.0104167
  0
VERTEX
  8
0
 10
12.0045
 20
5.00999
 30
0.0
 40
0.0104167
 41
0.0104167
  0
VERTEX
  8
0
 10
12.0269
 20
5.01992
 30
0.0
 40
0.0104167
 41
0.0104167
  0
VERTEX
  8
0
 10
12.0458
 20
5.02349
 30
0.0
 40
0.0104167
 41
0.0104167
  0
VERTEX
  8
0
 10
12.0522
 20
5.02349
 30
0.0
 40
0.0104167
 41
0.0104167
  0
SEQEND
 8
0
  0
POLYLINE
  8
0
 62
     7
 66
     1
 10
0
 20
0
 30
0.0
 70
     1
 40
0
 41
0
  0
VERTEX
  8
0
 10
11.9813
 20
5.07975
 30
0.0
 40
0
 41
0
  0
VERTEX
  8
0
 10
11.9808
 20
5.07954
 30
0.0
 40
0
 41
0
  0
VERTEX
  8
0
 10
11.9707
 20
5.06765
 30
0.0
 40
0
 41
0
  0
VERTEX
  8
0
 10
11.9615
 20
5.04394
 30
0.0
 40
0
 41
0
  0
VERTEX
  8
0
 10
11.9615
 20
5.03603
 30
0.0
 40
0
 41
0
  0
VERTEX
  8
0
 10
11.9617
 20
5.02979
 30
0.0
 40
0
 41
0
  0
VERTEX
  8
0
 10
11.971
 20
5.00711
 30
0.0
 40
0
 41
0
  0
VERTEX
  8
0
 10
11.9808
 20
4.99593
 30
0.0
 40
0
 41
0
  0
VERTEX
  8
0
 10
11.9813
 20
4.99539
 30
0.0
 40
0
 41
0
  0
SEQEND
 8
0
  0
POLYLINE
  8
0
 62
     0
 66
     1
 10
0
 20
0
 30
0.0
 40
0.75
 41
0.75
  0
VERTEX
  8
0
 10
11.9813
 20
5.07975
 30
0.0
 40
0.0104167
 41
0.0104167
  0
VERTEX
  8
0
 10
11.9808
 20
5.07954
 30
0.0
 40
0.0104167
 41
0.0104167
  0
VERTEX
  8
0
 10
11.9707
 20
5.06765
 30
0.0
 40
0.0104167
 41
0.0104167
  0
VERTEX
  8
0
 10
11.9615
 20
5.04394
 30
0.0
 40
0.0104167
 41
0.0104167
  0
VERTEX
  8
0
 10
11.9615
 20
5.03603
 30
0.0
 40
0.0104167
 41
0.0104167
  0
VERTEX
  8
0
 10
11.9617
 20
5.02979
 30
0.0
 40
0.0104167
 41
0.0104167
  0
VERTEX
  8
0
 10
11.971
 20
5.00711
 30
0.0
 40
0.0104167
 41
0.0104167
  0
VERTEX
  8
0
 10
11.9808
 20
4.99593
 30
0.0
 40
0.0104167
 41
0.0104167
  0
VERTEX
  8
0
 10
11.9813
 20
4.99539
 30
0.0
 40
0.0104167
 41
0.0104167
  0
SEQEND
 8
0
  0
POLYLINE
  8
0
 62
     7
 66
     1
 10
0
 20
0
 30
0.0
 70
     1
 40
0
 41
0
  0
VERTEX
  8
0
 10
12.1355
 20
5.05165
 30
0.0
 40
0
 41
0
  0
VERTEX
  8
0
 10
12.1355
 20
5.02349
 30
0.0
 40
0
 41
0
  0
VERTEX
  8
0
 10
12.0522
 20
5.02349
 30
0.0
 40
0
 41
0
  0
VERTEX
  8
0
 10
12.0522
 20
5.03054
 30
0.0
 40
0
 41
0
  0
VERTEX
  8
0
 10
12.0522
 20
5.04639
 30
0.0
 40
0
 41
0
  0
VERTEX
  8
0
 10
12.0522
 20
5.05165
 30
0.0
 40
0
 41
0
  0
VERTEX
  8
0
 10
12.073
 20
5.05165
 30
0.0
 40
0
 41
0
  0
VERTEX
  8
0
 10
12.1199
 20
5.05165
 30
0.0
 40
0
 41
0
  0
VERTEX
  8
0
 10
12.1355
 20
5.05165
 30
0.0
 40
0
 41
0
  0
SEQEND
 8
0
  0
POLYLINE
  8
0
 62
     0
 66
     1
 10
0
 20
0
 30
0.0
 70
     1
 40
0.75
 41
0.75
  0
VERTEX
  8
0
 10
12.1355
 20
5.05165
 30
0.0
 40
0.0104167
 41
0.0104167
  0
VERTEX
  8
0
 10
12.1355
 20
5.02349
 30
0.0
 40
0.0104167
 41
0.0104167
  0
VERTEX
  8
0
 10
12.0522
 20
5.02349
 30
0.0
 40
0.0104167
 41
0.0104167
  0
VERTEX
  8
0
 10
12.0522
 20
5.03054
 30
0.0
 40
0.0104167
 41
0.0104167
  0
VERTEX
  8
0
 10
12.0522
 20
5.04639
 30
0.0
 40
0.0104167
 41
0.0104167
  0
VERTEX
  8
0
 10
12.0522
 20
5.05165
 30
0.0
 40
0.0104167
 41
0.0104167
  0
VERTEX
  8
0
 10
12.073
 20
5.05165
 30
0.0
 40
0.0104167
 41
0.0104167
  0
VERTEX
  8
0
 10
12.1199
 20
5.05165
 30
0.0
 40
0.0104167
 41
0.0104167
  0
VERTEX
  8
0
 10
12.1355
 20
5.05165
 30
0.0
 40
0.0104167
 41
0.0104167
  0
SEQEND
 8
0
  0
POLYLINE
  8
0
 62
     7
 66
     1
 10
0
 20
0
 30
0.0
 70
     1
 40
0
 41
0
  0
VERTEX
  8
0
 10
12.1032
 20
5.16829
 30
0.0
 40
0
 41
0
  0
VERTEX
  8
0
 10
12.1044
 20
5.1651
 30
0.0
 40
0
 41
0
  0
VERTEX
  8
0
 10
12.1083
 20
5.15543
 30
0.0
 40
0
 41
0
  0
VERTEX
  8
0
 10
12.1095
 20
5.15267
 30
0.0
 40
0
 41
0
  0
VERTEX
  8
0
 10
12.1095
 20
5.15267
 30
0.0
 40
0
 41
0
  0
VERTEX
  8
0
 10
12.108
 20
5.15267
 30
0.0
 40
0
 41
0
  0
VERTEX
  8
0
 10
12.1037
 20
5.15267
 30
0.0
 40
0
 41
0
  0
VERTEX
  8
0
 10
12.0994
 20
5.15267
 30
0.0
 40
0
 41
0
  0
VERTEX
  8
0
 10
12.098
 20
5.15267
 30
0.0
 40
0
 41
0
  0
VERTEX
  8
0
 10
12.098
 20
5.15267
 30
0.0
 40
0
 41
0
  0
VERTEX
  8
0
 10
12.0986
 20
5.15506
 30
0.0
 40
0
 41
0
  0
VERTEX
  8
0
 10
12.102
 20
5.16504
 30
0.0
 40
0
 41
0
  0
VERTEX
  8
0
 10
12.1032
 20
5.16829
 30
0.0
 40
0
 41
0
  0
SEQEND
 8
0
  0
POLYLINE
  8
0
 62
     0
 66
     1
 10
0
 20
0
 30
0.0
 70
     1
 40
0.75
 41
0.75
  0
VERTEX
  8
0
 10
12.1032
 20
5.16829
 30
0.0
 40
0.0104167
 41
0.0104167
  0
VERTEX
  8
0
 10
12.1044
 20
5.1651
 30
0.0
 40
0.0104167
 41
0.0104167
  0
VERTEX
  8
0
 10
12.1083
 20
5.15543
 30
0.0
 40
0.0104167
 41
0.0104167
  0
VERTEX
  8
0
 10
12.1095
 20
5.15267
 30
0.0
 40
0.0104167
 41
0.0104167
  0
VERTEX
  8
0
 10
12.1095
 20
5.15267
 30
0.0
 40
0.0104167
 41
0.0104167
  0
VERTEX
  8
0
 10
12.108
 20
5.15267
 30
0.0
 40
0.0104167
 41
0.0104167
  0
VERTEX
  8
0
 10
12.1037
 20
5.15267
 30
0.0
 40
0.0104167
 41
0.0104167
  0
VERTEX
  8
0
 10
12.0994
 20
5.15267
 30
0.0
 40
0.0104167
 41
0.0104167
  0
VERTEX
  8
0
 10
12.098
 20
5.15267
 30
0.0
 40
0.0104167
 41
0.0104167
  0
VERTEX
  8
0
 10
12.098
 20
5.15267
 30
0.0
 40
0.0104167
 41
0.0104167
  0
VERTEX
  8
0
 10
12.0986
 20
5.15506
 30
0.0
 40
0.0104167
 41
0.0104167
  0
VERTEX
  8
0
 10
12.102
 20
5.16504
 30
0.0
 40
0.0104167
 41
0.0104167
  0
VERTEX
  8
0
 10
12.1032
 20
5.16829
 30
0.0
 40
0.0104167
 41
0.0104167
  0
SEQEND
 8
0
  0
POLYLINE
  8
0
 62
     7
 66
     1
 10
0
 20
0
 30
0.0
 70
     1
 40
0
 41
0
  0
VERTEX
  8
0
 10
12.1032
 20
4.90788
 30
0.0
 40
0
 41
0
  0
VERTEX
  8
0
 10
12.1044
 20
4.91114
 30
0.0
 40
0
 41
0
  0
VERTEX
  8
0
 10
12.1083
 20
4.92079
 30
0.0
 40
0
 41
0
  0
VERTEX
  8
0
 10
12.1095
 20
4.9235
 30
0.0
 40
0
 41
0
  0
VERTEX
  8
0
 10
12.1095
 20
4.9235
 30
0.0
 40
0
 41
0
  0
VERTEX
  8
0
 10
12.108
 20
4.9235
 30
0.0
 40
0
 41
0
  0
VERTEX
  8
0
 10
12.1037
 20
4.9235
 30
0.0
 40
0
 41
0
  0
VERTEX
  8
0
 10
12.0994
 20
4.9235
 30
0.0
 40
0
 41
0
  0
VERTEX
  8
0
 10
12.098
 20
4.9235
 30
0.0
 40
0
 41
0
  0
VERTEX
  8
0
 10
12.098
 20
4.9235
 30
0.0
 40
0
 41
0
  0
VERTEX
  8
0
 10
12.0986
 20
4.92117
 30
0.0
 40
0
 41
0
  0
VERTEX
  8
0
 10
12.102
 20
4.91118
 30
0.0
 40
0
 41
0
  0
VERTEX
  8
0
 10
12.1032
 20
4.90788
 30
0.0
 40
0
 41
0
  0
SEQEND
 8
0
  0
POLYLINE
  8
0
 62
     0
 66
     1
 10
0
 20
0
 30
0.0
 70
     1
 40
0.75
 41
0.75
  0
VERTEX
  8
0
 10
12.1032
 20
4.90788
 30
0.0
 40
0.0104167
 41
0.0104167
  0
VERTEX
  8
0
 10
12.1044
 20
4.91114
 30
0.0
 40
0.0104167
 41
0.0104167
  0
VERTEX
  8
0
 10
12.1083
 20
4.92079
 30
0.0
 40
0.0104167
 41
0.0104167
  0
VERTEX
  8
0
 10
12.1095
 20
4.9235
 30
0.0
 40
0.0104167
 41
0.0104167
  0
VERTEX
  8
0
 10
12.1095
 20
4.9235
 30
0.0
 40
0.0104167
 41
0.0104167
  0
VERTEX
  8
0
 10
12.108
 20
4.9235
 30
0.0
 40
0.0104167
 41
0.0104167
  0
VERTEX
  8
0
 10
12.1037
 20
4.9235
 30
0.0
 40
0.0104167
 41
0.0104167
  0
VERTEX
  8
0
 10
12.0994
 20
4.9235
 30
0.0
 40
0.0104167
 41
0.0104167
  0
VERTEX
  8
0
 10
12.098
 20
4.9235
 30
0.0
 40
0.0104167
 41
0.0104167
  0
VERTEX
  8
0
 10
12.098
 20
4.9235
 30
0.0
 40
0.0104167
 41
0.0104167
  0
VERTEX
  8
0
 10
12.0986
 20
4.92117
 30
0.0
 40
0.0104167
 41
0.0104167
  0
VERTEX
  8
0
 10
12.102
 20
4.91118
 30
0.0
 40
0.0104167
 41
0.0104167
  0
VERTEX
  8
0
 10
12.1032
 20
4.90788
 30
0.0
 40
0.0104167
 41
0.0104167
  0
SEQEND
 8
0
  0
POLYLINE
  8
0
 62
     7
 66
     1
 10
0
 20
0
 30
0.0
 70
     1
 40
0
 41
0
  0
VERTEX
  8
0
 10
11.7428
 20
3.86871
 30
0.0
 40
0
 41
0
  0
VERTEX
  8
0
 10
11.1335
 20
3.14258
 30
0.0
 40
0
 41
0
  0
VERTEX
  8
0
 10
10.6646
 20
3.53608
 30
0.0
 40
0
 41
0
  0
VERTEX
  8
0
 10
11.2739
 20
4.26221
 30
0.0
 40
0
 41
0
  0
VERTEX
  8
0
 10
11.7428
 20
3.86871
 30
0.0
 40
0
 41
0
  0
SEQEND
 8
0
  0
POLYLINE
  8
0
 62
     0
 66
     1
 10
0
 20
0
 30
0.0
 70
     1
 40
0.74998
 41
0.74998
  0
VERTEX
  8
0
 10
11.7428
 20
3.86871
 30
0.0
 40
0.0104164
 41
0.0104164
  0
VERTEX
  8
0
 10
11.1335
 20
3.14258
 30
0.0
 40
0.0104164
 41
0.0104164
  0
VERTEX
  8
0
 10
10.6646
 20
3.53608
 30
0.0
 40
0.0104164
 41
0.0104164
  0
VERTEX
  8
0
 10
11.2739
 20
4.26221
 30
0.0
 40
0.0104164
 41
0.0104164
  0
VERTEX
  8
0
 10
11.7428
 20
3.86871
 30
0.0
 40
0.0104164
 41
0.0104164
  0
SEQEND
 8
0
  0
POLYLINE
  8
0
 62
     7
 66
     1
 10
0
 20
0
 30
0.0
 70
     1
 40
0
 41
0
  0
VERTEX
  8
0
 10
11.696
 20
3.90804
 30
0.0
 40
0
 41
0
  0
VERTEX
  8
0
 10
11.0866
 20
3.18192
 30
0.0
 40
0
 41
0
  0
SEQEND
 8
0
  0
POLYLINE
  8
0
 62
     253
 66
     1
 10
0
 20
0
 30
0.0
 40
0.37499
 41
0.37499
  0
VERTEX
  8
0
 10
11.696
 20
3.90804
 30
0.0
 40
0.00520819
 41
0.00520819
  0
VERTEX
  8
0
 10
11.0866
 20
3.18192
 30
0.0
 40
0.00520819
 41
0.00520819
  0
SEQEND
 8
0
  0
POLYLINE
  8
0
 62
     7
 66
     1
 10
0
 20
0
 30
0.0
 70
     1
 40
0
 41
0
  0
VERTEX
  8
0
 10
11.649
 20
3.94738
 30
0.0
 40
0
 41
0
  0
VERTEX
  8
0
 10
11.0397
 20
3.22131
 30
0.0
 40
0
 41
0
  0
SEQEND
 8
0
  0
POLYLINE
  8
0
 62
     253
 66
     1
 10
0
 20
0
 30
0.0
 40
0.37499
 41
0.37499
  0
VERTEX
  8
0
 10
11.649
 20
3.94738
 30
0.0
 40
0.00520819
 41
0.00520819
  0
VERTEX
  8
0
 10
11.0397
 20
3.22131
 30
0.0
 40
0.00520819
 41
0.00520819
  0
SEQEND
 8
0
  0
POLYLINE
  8
0
 62
     7
 66
     1
 10
0
 20
0
 30
0.0
 70
     1
 40
0
 41
0
  0
VERTEX
  8
0
 10
11.6022
 20
3.98676
 30
0.0
 40
0
 41
0
  0
VERTEX
  8
0
 10
10.9928
 20
3.26064
 30
0.0
 40
0
 41
0
  0
SEQEND
 8
0
  0
POLYLINE
  8
0
 62
     253
 66
     1
 10
0
 20
0
 30
0.0
 40
0.37499
 41
0.37499
  0
VERTEX
  8
0
 10
11.6022
 20
3.98676
 30
0.0
 40
0.00520819
 41
0.00520819
  0
VERTEX
  8
0
 10
10.9928
 20
3.26064
 30
0.0
 40
0.00520819
 41
0.00520819
  0
SEQEND
 8
0
  0
POLYLINE
  8
0
 62
     7
 66
     1
 10
0
 20
0
 30
0.0
 70
     1
 40
0
 41
0
  0
VERTEX
  8
0
 10
11.5552
 20
4.0261
 30
0.0
 40
0
 41
0
  0
VERTEX
  8
0
 10
10.9459
 20
3.30003
 30
0.0
 40
0
 41
0
  0
SEQEND
 8
0
  0
POLYLINE
  8
0
 62
     253
 66
     1
 10
0
 20
0
 30
0.0
 40
0.37499
 41
0.37499
  0
VERTEX
  8
0
 10
11.5552
 20
4.0261
 30
0.0
 40
0.00520819
 41
0.00520819
  0
VERTEX
  8
0
 10
10.9459
 20
3.30003
 30
0.0
 40
0.00520819
 41
0.00520819
  0
SEQEND
 8
0
  0
POLYLINE
  8
0
 62
     7
 66
     1
 10
0
 20
0
 30
0.0
 70
     1
 40
0
 41
0
  0
VERTEX
  8
0
 10
11.5084
 20
4.06549
 30
0.0
 40
0
 41
0
  0
VERTEX
  8
0
 10
10.899
 20
3.33936
 30
0.0
 40
0
 41
0
  0
SEQEND
 8
0
  0
POLYLINE
  8
0
 62
     253
 66
     1
 10
0
 20
0
 30
0.0
 40
0.37499
 41
0.37499
  0
VERTEX
  8
0
 10
11.5084
 20
4.06549
 30
0.0
 40
0.00520819
 41
0.00520819
  0
VERTEX
  8
0
 10
10.899
 20
3.33936
 30
0.0
 40
0.00520819
 41
0.00520819
  0
SEQEND
 8
0
  0
POLYLINE
  8
0
 62
     7
 66
     1
 10
0
 20
0
 30
0.0
 70
     1
 40
0
 41
0
  0
VERTEX
  8
0
 10
11.4615
 20
4.10482
 30
0.0
 40
0
 41
0
  0
VERTEX
  8
0
 10
10.8522
 20
3.37869
 30
0.0
 40
0
 41
0
  0
SEQEND
 8
0
  0
POLYLINE
  8
0
 62
     253
 66
     1
 10
0
 20
0
 30
0.0
 40
0.37499
 41
0.37499
  0
VERTEX
  8
0
 10
11.4615
 20
4.10482
 30
0.0
 40
0.00520819
 41
0.00520819
  0
VERTEX
  8
0
 10
10.8522
 20
3.37869
 30
0.0
 40
0.00520819
 41
0.00520819
  0
SEQEND
 8
0
  0
POLYLINE
  8
0
 62
     7
 66
     1
 10
0
 20
0
 30
0.0
 70
     1
 40
0
 41
0
  0
VERTEX
  8
0
 10
11.4146
 20
4.14415
 30
0.0
 40
0
 41
0
  0
VERTEX
  8
0
 10
10.8052
 20
3.41808
 30
0.0
 40
0
 41
0
  0
SEQEND
 8
0
  0
POLYLINE
  8
0
 62
     253
 66
     1
 10
0
 20
0
 30
0.0
 40
0.37499
 41
0.37499
  0
VERTEX
  8
0
 10
11.4146
 20
4.14415
 30
0.0
 40
0.00520819
 41
0.00520819
  0
VERTEX
  8
0
 10
10.8052
 20
3.41808
 30
0.0
 40
0.00520819
 41
0.00520819
  0
SEQEND
 8
0
  0
POLYLINE
  8
0
 62
     7
 66
     1
 10
0
 20
0
 30
0.0
 70
     1
 40
0
 41
0
  0
VERTEX
  8
0
 10
11.3677
 20
4.18354
 30
0.0
 40
0
 41
0
  0
VERTEX
  8
0
 10
10.7584
 20
3.45742
 30
0.0
 40
0
 41
0
  0
SEQEND
 8
0
  0
POLYLINE
  8
0
 62
     253
 66
     1
 10
0
 20
0
 30
0.0
 40
0.37499
 41
0.37499
  0
VERTEX
  8
0
 10
11.3677
 20
4.18354
 30
0.0
 40
0.00520819
 41
0.00520819
  0
VERTEX
  8
0
 10
10.7584
 20
3.45742
 30
0.0
 40
0.00520819
 41
0.00520819
  0
SEQEND
 8
0
  0
POLYLINE
  8
0
 62
     7
 66
     1
 10
0
 20
0
 30
0.0
 70
     1
 40
0
 41
0
  0
VERTEX
  8
0
 10
11.3208
 20
4.22287
 30
0.0
 40
0
 41
0
  0
VERTEX
  8
0
 10
10.7114
 20
3.49675
 30
0.0
 40
0
 41
0
  0
SEQEND
 8
0
  0
POLYLINE
  8
0
 62
     253
 66
     1
 10
0
 20
0
 30
0.0
 40
0.37499
 41
0.37499
  0
VERTEX
  8
0
 10
11.3208
 20
4.22287
 30
0.0
 40
0.00520819
 41
0.00520819
  0
VERTEX
  8
0
 10
10.7114
 20
3.49675
 30
0.0
 40
0.00520819
 41
0.00520819
  0
SEQEND
 8
0
  0
POLYLINE
  8
0
 62
     7
 66
     1
 10
0
 20
0
 30
0.0
 70
     1
 40
0
 41
0
  0
VERTEX
  8
0
 10
11.4449
 20
4.33746
 30
0.0
 40
0
 41
0
  0
VERTEX
  8
0
 10
12.0807
 20
4.33746
 30
0.0
 40
0
 41
0
  0
VERTEX
  8
0
 10
12.0807
 20
2.72672
 30
0.0
 40
0
 41
0
  0
VERTEX
  8
0
 10
11.4449
 20
2.72672
 30
0.0
 40
0
 41
0
  0
VERTEX
  8
0
 10
11.4449
 20
4.33746
 30
0.0
 40
0
 41
0
  0
SEQEND
 8
0
  0
POLYLINE
  8
0
 62
     0
 66
     1
 10
0
 20
0
 30
0.0
 70
     1
 40
0.75
 41
0.75
  0
VERTEX
  8
0
 10
11.4449
 20
4.33746
 30
0.0
 40
0.0104167
 41
0.0104167
  0
VERTEX
  8
0
 10
11.4449
 20
2.72672
 30
0.0
 40
0.0104167
 41
0.0104167
  0
VERTEX
  8
0
 10
12.0807
 20
2.72672
 30
0.0
 40
0.0104167
 41
0.0104167
  0
VERTEX
  8
0
 10
12.0807
 20
4.33746
 30
0.0
 40
0.0104167
 41
0.0104167
  0
VERTEX
  8
0
 10
11.4449
 20
4.33746
 30
0.0
 40
0.0104167
 41
0.0104167
  0
SEQEND
 8
0
  0
POLYLINE
  8
0
 62
     253
 66
     1
 10
0
 20
0
 30
0.0
 40
0.375
 41
0.375
  0
VERTEX
  8
0
 10
12.0383
 20
4.33746
 30
0.0
 40
0.00520833
 41
0.00520833
  0
VERTEX
  8
0
 10
12.0383
 20
2.72667
 30
0.0
 40
0.00520833
 41
0.00520833
  0
SEQEND
 8
0
  0
POLYLINE
  8
0
 62
     253
 66
     1
 10
0
 20
0
 30
0.0
 40
0.375
 41
0.375
  0
VERTEX
  8
0
 10
11.9959
 20
4.33746
 30
0.0
 40
0.00520833
 41
0.00520833
  0
VERTEX
  8
0
 10
11.9959
 20
2.72667
 30
0.0
 40
0.00520833
 41
0.00520833
  0
SEQEND
 8
0
  0
POLYLINE
  8
0
 62
     253
 66
     1
 10
0
 20
0
 30
0.0
 40
0.375
 41
0.375
  0
VERTEX
  8
0
 10
11.9535
 20
4.33746
 30
0.0
 40
0.00520833
 41
0.00520833
  0
VERTEX
  8
0
 10
11.9535
 20
2.72667
 30
0.0
 40
0.00520833
 41
0.00520833
  0
SEQEND
 8
0
  0
POLYLINE
  8
0
 62
     253
 66
     1
 10
0
 20
0
 30
0.0
 40
0.375
 41
0.375
  0
VERTEX
  8
0
 10
11.9111
 20
4.33746
 30
0.0
 40
0.00520833
 41
0.00520833
  0
VERTEX
  8
0
 10
11.9111
 20
2.72667
 30
0.0
 40
0.00520833
 41
0.00520833
  0
SEQEND
 8
0
  0
POLYLINE
  8
0
 62
     253
 66
     1
 10
0
 20
0
 30
0.0
 40
0.375
 41
0.375
  0
VERTEX
  8
0
 10
11.8688
 20
4.33746
 30
0.0
 40
0.00520833
 41
0.00520833
  0
VERTEX
  8
0
 10
11.8688
 20
2.72667
 30
0.0
 40
0.00520833
 41
0.00520833
  0
SEQEND
 8
0
  0
POLYLINE
  8
0
 62
     253
 66
     1
 10
0
 20
0
 30
0.0
 40
0.375
 41
0.375
  0
VERTEX
  8
0
 10
11.8264
 20
4.33746
 30
0.0
 40
0.00520833
 41
0.00520833
  0
VERTEX
  8
0
 10
11.8264
 20
2.72667
 30
0.0
 40
0.00520833
 41
0.00520833
  0
SEQEND
 8
0
  0
POLYLINE
  8
0
 62
     253
 66
     1
 10
0
 20
0
 30
0.0
 40
0.375
 41
0.375
  0
VERTEX
  8
0
 10
11.784
 20
4.33746
 30
0.0
 40
0.00520833
 41
0.00520833
  0
VERTEX
  8
0
 10
11.784
 20
2.72667
 30
0.0
 40
0.00520833
 41
0.00520833
  0
SEQEND
 8
0
  0
POLYLINE
  8
0
 62
     253
 66
     1
 10
0
 20
0
 30
0.0
 40
0.375
 41
0.375
  0
VERTEX
  8
0
 10
11.7416
 20
4.33746
 30
0.0
 40
0.00520833
 41
0.00520833
  0
VERTEX
  8
0
 10
11.7416
 20
2.72667
 30
0.0
 40
0.00520833
 41
0.00520833
  0
SEQEND
 8
0
  0
POLYLINE
  8
0
 62
     253
 66
     1
 10
0
 20
0
 30
0.0
 40
0.375
 41
0.375
  0
VERTEX
  8
0
 10
11.6992
 20
4.33746
 30
0.0
 40
0.00520833
 41
0.00520833
  0
VERTEX
  8
0
 10
11.6992
 20
2.72667
 30
0.0
 40
0.00520833
 41
0.00520833
  0
SEQEND
 8
0
  0
POLYLINE
  8
0
 62
     253
 66
     1
 10
0
 20
0
 30
0.0
 40
0.375
 41
0.375
  0
VERTEX
  8
0
 10
11.6568
 20
4.33746
 30
0.0
 40
0.00520833
 41
0.00520833
  0
VERTEX
  8
0
 10
11.6568
 20
2.72667
 30
0.0
 40
0.00520833
 41
0.00520833
  0
SEQEND
 8
0
  0
POLYLINE
  8
0
 62
     253
 66
     1
 10
0
 20
0
 30
0.0
 40
0.375
 41
0.375
  0
VERTEX
  8
0
 10
11.6145
 20
4.33746
 30
0.0
 40
0.00520833
 41
0.00520833
  0
VERTEX
  8
0
 10
11.6145
 20
2.72667
 30
0.0
 40
0.00520833
 41
0.00520833
  0
SEQEND
 8
0
  0
POLYLINE
  8
0
 62
     253
 66
     1
 10
0
 20
0
 30
0.0
 40
0.375
 41
0.375
  0
VERTEX
  8
0
 10
11.5721
 20
4.33746
 30
0.0
 40
0.00520833
 41
0.00520833
  0
VERTEX
  8
0
 10
11.5721
 20
2.72667
 30
0.0
 40
0.00520833
 41
0.00520833
  0
SEQEND
 8
0
  0
POLYLINE
  8
0
 62
     253
 66
     1
 10
0
 20
0
 30
0.0
 40
0.375
 41
0.375
  0
VERTEX
  8
0
 10
11.5297
 20
4.33746
 30
0.0
 40
0.00520833
 41
0.00520833
  0
VERTEX
  8
0
 10
11.5297
 20
2.72667
 30
0.0
 40
0.00520833
 41
0.00520833
  0
SEQEND
 8
0
  0
POLYLINE
  8
0
 62
     253
 66
     1
 10
0
 20
0
 30
0.0
 40
0.375
 41
0.375
  0
VERTEX
  8
0
 10
11.4874
 20
4.33746
 30
0.0
 40
0.00520833
 41
0.00520833
  0
VERTEX
  8
0
 10
11.4874
 20
2.72667
 30
0.0
 40
0.00520833
 41
0.00520833
  0
SEQEND
 8
0
  0
POLYLINE
  8
0
 62
     7
 66
     1
 10
0
 20
0
 30
0.0
 70
     1
 40
0
 41
0
  0
VERTEX
  8
0
 10
11.1321
 20
4.33686
 30
0.0
 40
0
 41
0
  0
VERTEX
  8
0
 10
11.4441
 20
4.33686
 30
0.0
 40
0
 41
0
  0
VERTEX
  8
0
 10
11.4441
 20
2.72706
 30
0.0
 40
0
 41
0
  0
VERTEX
  8
0
 10
11.1321
 20
2.72706
 30
0.0
 40
0
 41
0
  0
VERTEX
  8
0
 10
11.1321
 20
4.33686
 30
0.0
 40
0
 41
0
  0
SEQEND
 8
0
  0
POLYLINE
  8
0
 62
     0
 66
     1
 10
0
 20
0
 30
0.0
 70
     1
 40
0.75
 41
0.75
  0
VERTEX
  8
0
 10
11.1321
 20
4.33686
 30
0.0
 40
0.0104167
 41
0.0104167
  0
VERTEX
  8
0
 10
11.1321
 20
2.72706
 30
0.0
 40
0.0104167
 41
0.0104167
  0
VERTEX
  8
0
 10
11.4441
 20
2.72706
 30
0.0
 40
0.0104167
 41
0.0104167
  0
VERTEX
  8
0
 10
11.4441
 20
4.33686
 30
0.0
 40
0.0104167
 41
0.0104167
  0
VERTEX
  8
0
 10
11.1321
 20
4.33686
 30
0.0
 40
0.0104167
 41
0.0104167
  0
SEQEND
 8
0
  0
POLYLINE
  8
0
 62
     253
 66
     1
 10
0
 20
0
 30
0.0
 40
0.375
 41
0.375
  0
VERTEX
  8
0
 10
11.4129
 20
4.33686
 30
0.0
 40
0.00520833
 41
0.00520833
  0
VERTEX
  8
0
 10
11.4129
 20
2.72706
 30
0.0
 40
0.00520833
 41
0.00520833
  0
SEQEND
 8
0
  0
POLYLINE
  8
0
 62
     253
 66
     1
 10
0
 20
0
 30
0.0
 40
0.375
 41
0.375
  0
VERTEX
  8
0
 10
11.3817
 20
4.33686
 30
0.0
 40
0.00520833
 41
0.00520833
  0
VERTEX
  8
0
 10
11.3817
 20
2.72706
 30
0.0
 40
0.00520833
 41
0.00520833
  0
SEQEND
 8
0
  0
POLYLINE
  8
0
 62
     253
 66
     1
 10
0
 20
0
 30
0.0
 40
0.375
 41
0.375
  0
VERTEX
  8
0
 10
11.3505
 20
4.33686
 30
0.0
 40
0.00520833
 41
0.00520833
  0
VERTEX
  8
0
 10
11.3505
 20
2.72706
 30
0.0
 40
0.00520833
 41
0.00520833
  0
SEQEND
 8
0
  0
POLYLINE
  8
0
 62
     253
 66
     1
 10
0
 20
0
 30
0.0
 40
0.375
 41
0.375
  0
VERTEX
  8
0
 10
11.3193
 20
4.33686
 30
0.0
 40
0.00520833
 41
0.00520833
  0
VERTEX
  8
0
 10
11.3193
 20
2.72706
 30
0.0
 40
0.00520833
 41
0.00520833
  0
SEQEND
 8
0
  0
POLYLINE
  8
0
 62
     253
 66
     1
 10
0
 20
0
 30
0.0
 40
0.375
 41
0.375
  0
VERTEX
  8
0
 10
11.2881
 20
4.33686
 30
0.0
 40
0.00520833
 41
0.00520833
  0
VERTEX
  8
0
 10
11.2881
 20
2.72706
 30
0.0
 40
0.00520833
 41
0.00520833
  0
SEQEND
 8
0
  0
POLYLINE
  8
0
 62
     253
 66
     1
 10
0
 20
0
 30
0.0
 40
0.375
 41
0.375
  0
VERTEX
  8
0
 10
11.2569
 20
4.33686
 30
0.0
 40
0.00520833
 41
0.00520833
  0
VERTEX
  8
0
 10
11.2569
 20
2.72706
 30
0.0
 40
0.00520833
 41
0.00520833
  0
SEQEND
 8
0
  0
POLYLINE
  8
0
 62
     253
 66
     1
 10
0
 20
0
 30
0.0
 40
0.375
 41
0.375
  0
VERTEX
  8
0
 10
11.2257
 20
4.33686
 30
0.0
 40
0.00520833
 41
0.00520833
  0
VERTEX
  8
0
 10
11.2257
 20
2.72706
 30
0.0
 40
0.00520833
 41
0.00520833
  0
SEQEND
 8
0
  0
POLYLINE
  8
0
 62
     253
 66
     1
 10
0
 20
0
 30
0.0
 40
0.375
 41
0.375
  0
VERTEX
  8
0
 10
11.1945
 20
4.33686
 30
0.0
 40
0.00520833
 41
0.00520833
  0
VERTEX
  8
0
 10
11.1945
 20
2.72706
 30
0.0
 40
0.00520833
 41
0.00520833
  0
SEQEND
 8
0
  0
POLYLINE
  8
0
 62
     253
 66
     1
 10
0
 20
0
 30
0.0
 40
0.375
 41
0.375
  0
VERTEX
  8
0
 10
11.1633
 20
4.33686
 30
0.0
 40
0.00520833
 41
0.00520833
  0
VERTEX
  8
0
 10
11.1633
 20
2.72706
 30
0.0
 40
0.00520833
 41
0.00520833
  0
SEQEND
 8
0
  0
POLYLINE
  8
0
 62
     7
 66
     1
 10
0
 20
0
 30
0.0
 70
     1
 40
0
 41
0
  0
VERTEX
  8
0
 10
10.4213
 20
3.09164
 30
0.0
 40
0
 41
0
  0
VERTEX
  8
0
 10
10.8887
 20
3.09164
 30
0.0
 40
0
 41
0
  0
VERTEX
  8
0
 10
10.8887
 20
2.77436
 30
0.0
 40
0
 41
0
  0
VERTEX
  8
0
 10
10.4213
 20
2.77436
 30
0.0
 40
0
 41
0
  0
VERTEX
  8
0
 10
10.4213
 20
3.09164
 30
0.0
 40
0
 41
0
  0
SEQEND
 8
0
  0
POLYLINE
  8
0
 62
     0
 66
     1
 10
0
 20
0
 30
0.0
 70
     1
 40
0.56085
 41
0.56085
  0
VERTEX
  8
0
 10
10.4213
 20
3.09164
 30
0.0
 40
0.00778958
 41
0.00778958
  0
VERTEX
  8
0
 10
10.8887
 20
3.09164
 30
0.0
 40
0.00778958
 41
0.00778958
  0
VERTEX
  8
0
 10
10.8887
 20
2.77436
 30
0.0
 40
0.00778958
 41
0.00778958
  0
VERTEX
  8
0
 10
10.4213
 20
2.77436
 30
0.0
 40
0.00778958
 41
0.00778958
  0
VERTEX
  8
0
 10
10.4213
 20
3.09164
 30
0.0
 40
0.00778958
 41
0.00778958
  0
SEQEND
 8
0
  0
POLYLINE
  8
0
 62
     0
 66
     1
 10
0
 20
0
 30
0.0
 40
0.56085
 41
0.56085
  0
VERTEX
  8
0
 10
10.8887
 20
3.09164
 30
0.0
 40
0.00778958
 41
0.00778958
  0
VERTEX
  8
0
 10
10.5795
 20
2.933
 30
0.0
 40
0.00778958
 41
0.00778958
  0
VERTEX
  8
0
 10
10.722
 20
2.933
 30
0.0
 40
0.00778958
 41
0.00778958
  0
VERTEX
  8
0
 10
10.4213
 20
2.77436
 30
0.0
 40
0.00778958
 41
0.00778958
  0
SEQEND
 8
0
  0
POLYLINE
  8
0
 62
     7
 66
     1
 10
0
 20
0
 30
0.0
 70
     1
 40
0
 41
0
  0
VERTEX
  8
0
 10
8.76747
 20
3.29997
 30
0.0
 40
0
 41
0
  0
VERTEX
  8
0
 10
9.41504
 20
3.29997
 30
0.0
 40
0
 41
0
  0
VERTEX
  8
0
 10
9.41504
 20
2.63889
 30
0.0
 40
0
 41
0
  0
VERTEX
  8
0
 10
8.76747
 20
2.63889
 30
0.0
 40
0
 41
0
  0
VERTEX
  8
0
 10
8.76747
 20
3.29997
 30
0.0
 40
0
 41
0
  0
SEQEND
 8
0
  0
POLYLINE
  8
0
 62
     0
 66
     1
 10
0
 20
0
 30
0.0
 70
     1
 40
0.777075
 41
0.777075
  0
VERTEX
  8
0
 10
8.76747
 20
3.29997
 30
0.0
 40
0.0107927
 41
0.0107927
  0
VERTEX
  8
0
 10
9.41504
 20
3.29997
 30
0.0
 40
0.0107927
 41
0.0107927
  0
VERTEX
  8
0
 10
9.41504
 20
2.63889
 30
0.0
 40
0.0107927
 41
0.0107927
  0
VERTEX
  8
0
 10
8.76747
 20
2.63889
 30
0.0
 40
0.0107927
 41
0.0107927
  0
VERTEX
  8
0
 10
8.76747
 20
3.29997
 30
0.0
 40
0.0107927
 41
0.0107927
  0
SEQEND
 8
0
  0
POLYLINE
  8
0
 62
     0
 66
     1
 10
0
 20
0
 30
0.0
 40
0.777075
 41
0.777075
  0
VERTEX
  8
0
 10
9.41504
 20
2.63889
 30
0.0
 40
0.0107927
 41
0.0107927
  0
VERTEX
  8
0
 10
9.09125
 20
3.09065
 30
0.0
 40
0.0107927
 41
0.0107927
  0
VERTEX
  8
0
 10
9.09125
 20
2.86806
 30
0.0
 40
0.0107927
 41
0.0107927
  0
VERTEX
  8
0
 10
8.76747
 20
3.29997
 30
0.0
 40
0.0107927
 41
0.0107927
  0
SEQEND
 8
0
  0
POLYLINE
  8
0
 62
     0
 66
     1
 10
0
 20
0
 30
0.0
 40
0.777075
 41
0.777075
  0
VERTEX
  8
0
 10
9.3859
 20
3.2934
 30
0.0
 40
0.0107927
 41
0.0107927
  0
VERTEX
  8
0
 10
8.7966
 20
3.2934
 30
0.0
 40
0.0107927
 41
0.0107927
  0
SEQEND
 8
0
  0
POLYLINE
  8
0
 62
     7
 66
     1
 10
0
 20
0
 30
0.0
 70
     1
 40
0
 41
0
  0
VERTEX
  8
0
 10
9.53304
 20
3.13004
 30
0.0
 40
0
 41
0
  0
VERTEX
  8
0
 10
10.14
 20
3.13004
 30
0.0
 40
0
 41
0
  0
VERTEX
  8
0
 10
10.14
 20
2.64019
 30
0.0
 40
0
 41
0
  0
VERTEX
  8
0
 10
9.53304
 20
2.64019
 30
0.0
 40
0
 41
0
  0
VERTEX
  8
0
 10
9.53304
 20
3.13004
 30
0.0
 40
0
 41
0
  0
SEQEND
 8
0
  0
POLYLINE
  8
0
 62
     0
 66
     1
 10
0
 20
0
 30
0.0
 70
     1
 40
0.75
 41
0.75
  0
VERTEX
  8
0
 10
9.53304
 20
3.13004
 30
0.0
 40
0.0104167
 41
0.0104167
  0
VERTEX
  8
0
 10
10.14
 20
3.13004
 30
0.0
 40
0.0104167
 41
0.0104167
  0
VERTEX
  8
0
 10
10.14
 20
2.64019
 30
0.0
 40
0.0104167
 41
0.0104167
  0
VERTEX
  8
0
 10
9.53304
 20
2.64019
 30
0.0
 40
0.0104167
 41
0.0104167
  0
VERTEX
  8
0
 10
9.53304
 20
3.13004
 30
0.0
 40
0.0104167
 41
0.0104167
  0
SEQEND
 8
0
  0
POLYLINE
  8
0
 62
     7
 66
     1
 10
0
 20
0
 30
0.0
 70
     1
 40
0
 41
0
  0
VERTEX
  8
0
 10
9.58365
 20
3.08686
 30
0.0
 40
0
 41
0
  0
VERTEX
  8
0
 10
10.0894
 20
3.08686
 30
0.0
 40
0
 41
0
  0
VERTEX
  8
0
 10
10.0894
 20
2.74121
 30
0.0
 40
0
 41
0
  0
VERTEX
  8
0
 10
9.58365
 20
2.74121
 30
0.0
 40
0
 41
0
  0
VERTEX
  8
0
 10
9.58365
 20
3.08686
 30
0.0
 40
0
 41
0
  0
SEQEND
 8
0
  0
POLYLINE
  8
0
 62
     0
 66
     1
 10
0
 20
0
 30
0.0
 70
     1
 40
0.75
 41
0.75
  0
VERTEX
  8
0
 10
9.58365
 20
3.08686
 30
0.0
 40
0.0104167
 41
0.0104167
  0
VERTEX
  8
0
 10
10.0894
 20
3.08686
 30
0.0
 40
0.0104167
 41
0.0104167
  0
VERTEX
  8
0
 10
10.0894
 20
2.74121
 30
0.0
 40
0.0104167
 41
0.0104167
  0
VERTEX
  8
0
 10
9.58365
 20
2.74121
 30
0.0
 40
0.0104167
 41
0.0104167
  0
VERTEX
  8
0
 10
9.58365
 20
3.08686
 30
0.0
 40
0.0104167
 41
0.0104167
  0
SEQEND
 8
0
  0
POLYLINE
  8
0
 62
     7
 66
     1
 10
0
 20
0
 30
0.0
 70
     1
 40
0
 41
0
  0
VERTEX
  8
0
 10
9.80007
 20
2.9031
 30
0.0
 40
0
 41
0
  0
VERTEX
  8
0
 10
9.80007
 20
2.90956
 30
0.0
 40
0
 41
0
  0
VERTEX
  8
0
 10
9.81071
 20
2.92893
 30
0.0
 40
0
 41
0
  0
VERTEX
  8
0
 10
9.83008
 20
2.93956
 30
0.0
 40
0
 41
0
  0
VERTEX
  8
0
 10
9.83653
 20
2.93956
 30
0.0
 40
0
 41
0
  0
VERTEX
  8
0
 10
9.84293
 20
2.93956
 30
0.0
 40
0
 41
0
  0
VERTEX
  8
0
 10
9.86231
 20
2.92893
 30
0.0
 40
0
 41
0
  0
VERTEX
  8
0
 10
9.87299
 20
2.90956
 30
0.0
 40
0
 41
0
  0
VERTEX
  8
0
 10
9.87299
 20
2.9031
 30
0.0
 40
0
 41
0
  0
VERTEX
  8
0
 10
9.87299
 20
2.89671
 30
0.0
 40
0
 41
0
  0
VERTEX
  8
0
 10
9.86231
 20
2.87733
 30
0.0
 40
0
 41
0
  0
VERTEX
  8
0
 10
9.84293
 20
2.86664
 30
0.0
 40
0
 41
0
  0
VERTEX
  8
0
 10
9.83653
 20
2.86664
 30
0.0
 40
0
 41
0
  0
VERTEX
  8
0
 10
9.83008
 20
2.86664
 30
0.0
 40
0
 41
0
  0
VERTEX
  8
0
 10
9.81071
 20
2.87733
 30
0.0
 40
0
 41
0
  0
VERTEX
  8
0
 10
9.80007
 20
2.89671
 30
0.0
 40
0
 41
0
  0
VERTEX
  8
0
 10
9.80007
 20
2.9031
 30
0.0
 40
0
 41
0
  0
SEQEND
 8
0
  0
POLYLINE
  8
0
 62
     0
 66
     1
 10
0
 20
0
 30
0.0
 70
     1
 40
0.6
 41
0.6
  0
VERTEX
  8
0
 10
9.80007
 20
2.9031
 30
0.0
 40
0.00833333
 41
0.00833333
  0
VERTEX
  8
0
 10
9.80007
 20
2.90956
 30
0.0
 40
0.00833333
 41
0.00833333
  0
VERTEX
  8
0
 10
9.81071
 20
2.92893
 30
0.0
 40
0.00833333
 41
0.00833333
  0
VERTEX
  8
0
 10
9.83008
 20
2.93956
 30
0.0
 40
0.00833333
 41
0.00833333
  0
VERTEX
  8
0
 10
9.83653
 20
2.93956
 30
0.0
 40
0.00833333
 41
0.00833333
  0
VERTEX
  8
0
 10
9.84293
 20
2.93956
 30
0.0
 40
0.00833333
 41
0.00833333
  0
VERTEX
  8
0
 10
9.86231
 20
2.92893
 30
0.0
 40
0.00833333
 41
0.00833333
  0
VERTEX
  8
0
 10
9.87299
 20
2.90956
 30
0.0
 40
0.00833333
 41
0.00833333
  0
VERTEX
  8
0
 10
9.87299
 20
2.9031
 30
0.0
 40
0.00833333
 41
0.00833333
  0
VERTEX
  8
0
 10
9.87299
 20
2.89671
 30
0.0
 40
0.00833333
 41
0.00833333
  0
VERTEX
  8
0
 10
9.86231
 20
2.87733
 30
0.0
 40
0.00833333
 41
0.00833333
  0
VERTEX
  8
0
 10
9.84293
 20
2.86664
 30
0.0
 40
0.00833333
 41
0.00833333
  0
VERTEX
  8
0
 10
9.83653
 20
2.86664
 30
0.0
 40
0.00833333
 41
0.00833333
  0
VERTEX
  8
0
 10
9.83008
 20
2.86664
 30
0.0
 40
0.00833333
 41
0.00833333
  0
VERTEX
  8
0
 10
9.81071
 20
2.87733
 30
0.0
 40
0.00833333
 41
0.00833333
  0
VERTEX
  8
0
 10
9.80007
 20
2.89671
 30
0.0
 40
0.00833333
 41
0.00833333
  0
VERTEX
  8
0
 10
9.80007
 20
2.9031
 30
0.0
 40
0.00833333
 41
0.00833333
  0
SEQEND
 8
0
  0
POLYLINE
  8
0
 62
     7
 66
     1
 10
0
 20
0
 30
0.0
 70
     1
 40
0
 41
0
  0
VERTEX
  8
0
 10
9.81569
 20
2.9031
 30
0.0
 40
0
 41
0
  0
VERTEX
  8
0
 10
9.81569
 20
2.90679
 30
0.0
 40
0
 41
0
  0
VERTEX
  8
0
 10
9.82178
 20
2.91786
 30
0.0
 40
0
 41
0
  0
VERTEX
  8
0
 10
9.83285
 20
2.92393
 30
0.0
 40
0
 41
0
  0
VERTEX
  8
0
 10
9.83653
 20
2.92393
 30
0.0
 40
0
 41
0
  0
VERTEX
  8
0
 10
9.84017
 20
2.92393
 30
0.0
 40
0
 41
0
  0
VERTEX
  8
0
 10
9.85124
 20
2.91786
 30
0.0
 40
0
 41
0
  0
VERTEX
  8
0
 10
9.85736
 20
2.90679
 30
0.0
 40
0
 41
0
  0
VERTEX
  8
0
 10
9.85736
 20
2.9031
 30
0.0
 40
0
 41
0
  0
VERTEX
  8
0
 10
9.85736
 20
2.89947
 30
0.0
 40
0
 41
0
  0
VERTEX
  8
0
 10
9.85124
 20
2.8884
 30
0.0
 40
0
 41
0
  0
VERTEX
  8
0
 10
9.84017
 20
2.88226
 30
0.0
 40
0
 41
0
  0
VERTEX
  8
0
 10
9.83653
 20
2.88226
 30
0.0
 40
0
 41
0
  0
VERTEX
  8
0
 10
9.83285
 20
2.88226
 30
0.0
 40
0
 41
0
  0
VERTEX
  8
0
 10
9.82178
 20
2.8884
 30
0.0
 40
0
 41
0
  0
VERTEX
  8
0
 10
9.81569
 20
2.89947
 30
0.0
 40
0
 41
0
  0
VERTEX
  8
0
 10
9.81569
 20
2.9031
 30
0.0
 40
0
 41
0
  0
SEQEND
 8
0
  0
POLYLINE
  8
0
 62
     0
 66
     1
 10
0
 20
0
 30
0.0
 70
     1
 40
0.6
 41
0.6
  0
VERTEX
  8
0
 10
9.81569
 20
2.9031
 30
0.0
 40
0.00833333
 41
0.00833333
  0
VERTEX
  8
0
 10
9.81569
 20
2.90679
 30
0.0
 40
0.00833333
 41
0.00833333
  0
VERTEX
  8
0
 10
9.82178
 20
2.91786
 30
0.0
 40
0.00833333
 41
0.00833333
  0
VERTEX
  8
0
 10
9.83285
 20
2.92393
 30
0.0
 40
0.00833333
 41
0.00833333
  0
VERTEX
  8
0
 10
9.83653
 20
2.92393
 30
0.0
 40
0.00833333
 41
0.00833333
  0
VERTEX
  8
0
 10
9.84017
 20
2.92393
 30
0.0
 40
0.00833333
 41
0.00833333
  0
VERTEX
  8
0
 10
9.85124
 20
2.91786
 30
0.0
 40
0.00833333
 41
0.00833333
  0
VERTEX
  8
0
 10
9.85736
 20
2.90679
 30
0.0
 40
0.00833333
 41
0.00833333
  0
VERTEX
  8
0
 10
9.85736
 20
2.9031
 30
0.0
 40
0.00833333
 41
0.00833333
  0
VERTEX
  8
0
 10
9.85736
 20
2.89947
 30
0.0
 40
0.00833333
 41
0.00833333
  0
VERTEX
  8
0
 10
9.85124
 20
2.8884
 30
0.0
 40
0.00833333
 41
0.00833333
  0
VERTEX
  8
0
 10
9.84017
 20
2.88226
 30
0.0
 40
0.00833333
 41
0.00833333
  0
VERTEX
  8
0
 10
9.83653
 20
2.88226
 30
0.0
 40
0.00833333
 41
0.00833333
  0
VERTEX
  8
0
 10
9.83285
 20
2.88226
 30
0.0
 40
0.00833333
 41
0.00833333
  0
VERTEX
  8
0
 10
9.82178
 20
2.8884
 30
0.0
 40
0.00833333
 41
0.00833333
  0
VERTEX
  8
0
 10
9.81569
 20
2.89947
 30
0.0
 40
0.00833333
 41
0.00833333
  0
VERTEX
  8
0
 10
9.81569
 20
2.9031
 30
0.0
 40
0.00833333
 41
0.00833333
  0
SEQEND
 8
0
  0
POLYLINE
  8
0
 62
     7
 66
     1
 10
0
 20
0
 30
0.0
 70
     1
 40
0
 41
0
  0
VERTEX
  8
0
 10
9.80436
 20
2.82682
 30
0.0
 40
0
 41
0
  0
VERTEX
  8
0
 10
9.86686
 20
2.82682
 30
0.0
 40
0
 41
0
  0
VERTEX
  8
0
 10
9.86686
 20
2.68099
 30
0.0
 40
0
 41
0
  0
VERTEX
  8
0
 10
9.80436
 20
2.68099
 30
0.0
 40
0
 41
0
  0
VERTEX
  8
0
 10
9.80436
 20
2.82682
 30
0.0
 40
0
 41
0
  0
SEQEND
 8
0
  0
POLYLINE
  8
0
 62
     0
 66
     1
 10
0
 20
0
 30
0.0
 70
     1
 40
0.75
 41
0.75
  0
VERTEX
  8
0
 10
9.80436
 20
2.82682
 30
0.0
 40
0.0104167
 41
0.0104167
  0
VERTEX
  8
0
 10
9.86686
 20
2.82682
 30
0.0
 40
0.0104167
 41
0.0104167
  0
VERTEX
  8
0
 10
9.86686
 20
2.68099
 30
0.0
 40
0.0104167
 41
0.0104167
  0
VERTEX
  8
0
 10
9.80436
 20
2.68099
 30
0.0
 40
0.0104167
 41
0.0104167
  0
VERTEX
  8
0
 10
9.80436
 20
2.82682
 30
0.0
 40
0.0104167
 41
0.0104167
  0
SEQEND
 8
0
  0
POLYLINE
  8
0
 62
     7
 66
     1
 10
0
 20
0
 30
0.0
 70
     1
 40
0
 41
0
  0
VERTEX
  8
0
 10
7.25532
 20
2.83137
 30
0.0
 40
0
 41
0
  0
VERTEX
  8
0
 10
7.67188
 20
2.83137
 30
0.0
 40
0
 41
0
  0
VERTEX
  8
0
 10
7.67188
 20
2.6441
 30
0.0
 40
0
 41
0
  0
VERTEX
  8
0
 10
7.25532
 20
2.6441
 30
0.0
 40
0
 41
0
  0
VERTEX
  8
0
 10
7.25532
 20
2.83137
 30
0.0
 40
0
 41
0
  0
SEQEND
 8
0
  0
POLYLINE
  8
0
 62
     0
 66
     1
 10
0
 20
0
 30
0.0
 70
     1
 40
0.75
 41
0.75
  0
VERTEX
  8
0
 10
7.25532
 20
2.83137
 30
0.0
 40
0.0104167
 41
0.0104167
  0
VERTEX
  8
0
 10
7.67188
 20
2.83137
 30
0.0
 40
0.0104167
 41
0.0104167
  0
VERTEX
  8
0
 10
7.67188
 20
2.6441
 30
0.0
 40
0.0104167
 41
0.0104167
  0
VERTEX
  8
0
 10
7.25532
 20
2.6441
 30
0.0
 40
0.0104167
 41
0.0104167
  0
VERTEX
  8
0
 10
7.25532
 20
2.83137
 30
0.0
 40
0.0104167
 41
0.0104167
  0
SEQEND
 8
0
  0
POLYLINE
  8
0
 62
     7
 66
     1
 10
0
 20
0
 30
0.0
 70
     1
 40
0
 41
0
  0
VERTEX
  8
0
 10
7.25532
 20
3.09967
 30
0.0
 40
0
 41
0
  0
VERTEX
  8
0
 10
7.25532
 20
3.09967
 30
0.0
 40
0
 41
0
  0
VERTEX
  8
0
 10
7.25521
 20
3.11143
 30
0.0
 40
0
 41
0
  0
VERTEX
  8
0
 10
7.25683
 20
3.14242
 30
0.0
 40
0
 41
0
  0
VERTEX
  8
0
 10
7.26297
 20
3.18625
 30
0.0
 40
0
 41
0
  0
VERTEX
  8
0
 10
7.27636
 20
3.23649
 30
0.0
 40
0
 41
0
  0
VERTEX
  8
0
 10
7.29992
 20
3.28674
 30
0.0
 40
0
 41
0
  0
VERTEX
  8
0
 10
7.33637
 20
3.33057
 30
0.0
 40
0
 41
0
  0
VERTEX
  8
0
 10
7.38857
 20
3.36154
 30
0.0
 40
0
 41
0
  0
VERTEX
  8
0
 10
7.44163
 20
3.37326
 30
0.0
 40
0
 41
0
  0
VERTEX
  8
0
 10
7.45931
 20
3.37326
 30
0.0
 40
0
 41
0
  0
VERTEX
  8
0
 10
7.4776
 20
3.37326
 30
0.0
 40
0
 41
0
  0
VERTEX
  8
0
 10
7.53244
 20
3.36154
 30
0.0
 40
0
 41
0
  0
VERTEX
  8
0
 10
7.58653
 20
3.33057
 30
0.0
 40
0
 41
0
  0
VERTEX
  8
0
 10
7.62435
 20
3.28674
 30
0.0
 40
0
 41
0
  0
VERTEX
  8
0
 10
7.64876
 20
3.23649
 30
0.0
 40
0
 41
0
  0
VERTEX
  8
0
 10
7.66276
 20
3.18625
 30
0.0
 40
0
 41
0
  0
VERTEX
  8
0
 10
7.66917
 20
3.14242
 30
0.0
 40
0
 41
0
  0
VERTEX
  8
0
 10
7.6709
 20
3.11143
 30
0.0
 40
0
 41
0
  0
VERTEX
  8
0
 10
7.67085
 20
3.09967
 30
0.0
 40
0
 41
0
  0
VERTEX
  8
0
 10
7.67085
 20
3.09967
 30
0.0
 40
0
 41
0
  0
VERTEX
  8
0
 10
7.67188
 20
2.83137
 30
0.0
 40
0
 41
0
  0
VERTEX
  8
0
 10
7.25532
 20
2.83137
 30
0.0
 40
0
 41
0
  0
VERTEX
  8
0
 10
7.25532
 20
3.09967
 30
0.0
 40
0
 41
0
  0
SEQEND
 8
0
  0
POLYLINE
  8
0
 62
     0
 66
     1
 10
0
 20
0
 30
0.0
 70
     1
 40
0.75
 41
0.75
  0
VERTEX
  8
0
 10
7.25532
 20
3.09967
 30
0.0
 40
0.0104167
 41
0.0104167
  0
VERTEX
  8
0
 10
7.25532
 20
3.09967
 30
0.0
 40
0.0104167
 41
0.0104167
  0
VERTEX
  8
0
 10
7.25521
 20
3.11143
 30
0.0
 40
0.0104167
 41
0.0104167
  0
VERTEX
  8
0
 10
7.25683
 20
3.14242
 30
0.0
 40
0.0104167
 41
0.0104167
  0
VERTEX
  8
0
 10
7.26297
 20
3.18625
 30
0.0
 40
0.0104167
 41
0.0104167
  0
VERTEX
  8
0
 10
7.27636
 20
3.23649
 30
0.0
 40
0.0104167
 41
0.0104167
  0
VERTEX
  8
0
 10
7.29992
 20
3.28674
 30
0.0
 40
0.0104167
 41
0.0104167
  0
VERTEX
  8
0
 10
7.33637
 20
3.33057
 30
0.0
 40
0.0104167
 41
0.0104167
  0
VERTEX
  8
0
 10
7.38857
 20
3.36154
 30
0.0
 40
0.0104167
 41
0.0104167
  0
VERTEX
  8
0
 10
7.44163
 20
3.37326
 30
0.0
 40
0.0104167
 41
0.0104167
  0
VERTEX
  8
0
 10
7.45931
 20
3.37326
 30
0.0
 40
0.0104167
 41
0.0104167
  0
VERTEX
  8
0
 10
7.4776
 20
3.37326
 30
0.0
 40
0.0104167
 41
0.0104167
  0
VERTEX
  8
0
 10
7.53244
 20
3.36154
 30
0.0
 40
0.0104167
 41
0.0104167
  0
VERTEX
  8
0
 10
7.58653
 20
3.33057
 30
0.0
 40
0.0104167
 41
0.0104167
  0
VERTEX
  8
0
 10
7.62435
 20
3.28674
 30
0.0
 40
0.0104167
 41
0.0104167
  0
VERTEX
  8
0
 10
7.64876
 20
3.23649
 30
0.0
 40
0.0104167
 41
0.0104167
  0
VERTEX
  8
0
 10
7.66276
 20
3.18625
 30
0.0
 40
0.0104167
 41
0.0104167
  0
VERTEX
  8
0
 10
7.66917
 20
3.14242
 30
0.0
 40
0.0104167
 41
0.0104167
  0
VERTEX
  8
0
 10
7.6709
 20
3.11143
 30
0.0
 40
0.0104167
 41
0.0104167
  0
VERTEX
  8
0
 10
7.67085
 20
3.09967
 30
0.0
 40
0.0104167
 41
0.0104167
  0
VERTEX
  8
0
 10
7.67085
 20
3.09967
 30
0.0
 40
0.0104167
 41
0.0104167
  0
VERTEX
  8
0
 10
7.67188
 20
2.83137
 30
0.0
 40
0.0104167
 41
0.0104167
  0
VERTEX
  8
0
 10
7.25532
 20
2.83137
 30
0.0
 40
0.0104167
 41
0.0104167
  0
VERTEX
  8
0
 10
7.25532
 20
3.09967
 30
0.0
 40
0.0104167
 41
0.0104167
  0
SEQEND
 8
0
  0
POLYLINE
  8
0
 62
     7
 66
     1
 10
0
 20
0
 30
0.0
 70
     1
 40
0
 41
0
  0
VERTEX
  8
0
 10
7.4305
 20
2.75353
 30
0.0
 40
0
 41
0
  0
VERTEX
  8
0
 10
7.49669
 20
2.75353
 30
0.0
 40
0
 41
0
  0
VERTEX
  8
0
 10
7.49669
 20
2.72194
 30
0.0
 40
0
 41
0
  0
VERTEX
  8
0
 10
7.4305
 20
2.72194
 30
0.0
 40
0
 41
0
  0
VERTEX
  8
0
 10
7.4305
 20
2.75353
 30
0.0
 40
0
 41
0
  0
SEQEND
 8
0
  0
POLYLINE
  8
0
 62
     0
 66
     1
 10
0
 20
0
 30
0.0
 70
     1
 40
0.75
 41
0.75
  0
VERTEX
  8
0
 10
7.4305
 20
2.75353
 30
0.0
 40
0.0104167
 41
0.0104167
  0
VERTEX
  8
0
 10
7.49669
 20
2.75353
 30
0.0
 40
0.0104167
 41
0.0104167
  0
VERTEX
  8
0
 10
7.49669
 20
2.72194
 30
0.0
 40
0.0104167
 41
0.0104167
  0
VERTEX
  8
0
 10
7.4305
 20
2.72194
 30
0.0
 40
0.0104167
 41
0.0104167
  0
VERTEX
  8
0
 10
7.4305
 20
2.75353
 30
0.0
 40
0.0104167
 41
0.0104167
  0
SEQEND
 8
0
  0
POLYLINE
  8
0
 62
     7
 66
     1
 10
0
 20
0
 30
0.0
 70
     1
 40
0
 41
0
  0
VERTEX
  8
0
 10
8.14154
 20
4.33692
 30
0.0
 40
0
 41
0
  0
VERTEX
  8
0
 10
8.58903
 20
4.33692
 30
0.0
 40
0
 41
0
  0
VERTEX
  8
0
 10
8.58903
 20
3.71192
 30
0.0
 40
0
 41
0
  0
VERTEX
  8
0
 10
8.14154
 20
3.71192
 30
0.0
 40
0
 41
0
  0
VERTEX
  8
0
 10
8.14154
 20
4.33692
 30
0.0
 40
0
 41
0
  0
SEQEND
 8
0
  0
POLYLINE
  8
0
 62
     0
 66
     1
 10
0
 20
0
 30
0.0
 70
     1
 40
0.75
 41
0.75
  0
VERTEX
  8
0
 10
8.14154
 20
4.33692
 30
0.0
 40
0.0104167
 41
0.0104167
  0
VERTEX
  8
0
 10
8.14154
 20
3.71192
 30
0.0
 40
0.0104167
 41
0.0104167
  0
VERTEX
  8
0
 10
8.58903
 20
3.71192
 30
0.0
 40
0.0104167
 41
0.0104167
  0
VERTEX
  8
0
 10
8.58903
 20
4.33692
 30
0.0
 40
0.0104167
 41
0.0104167
  0
VERTEX
  8
0
 10
8.14154
 20
4.33692
 30
0.0
 40
0.0104167
 41
0.0104167
  0
SEQEND
 8
0
  0
POLYLINE
  8
0
 62
     7
 66
     1
 10
0
 20
0
 30
0.0
 70
     1
 40
0
 41
0
  0
VERTEX
  8
0
 10
8.1811
 20
4.28483
 30
0.0
 40
0
 41
0
  0
VERTEX
  8
0
 10
8.48801
 20
4.28483
 30
0.0
 40
0
 41
0
  0
VERTEX
  8
0
 10
8.48801
 20
3.764
 30
0.0
 40
0
 41
0
  0
VERTEX
  8
0
 10
8.1811
 20
3.764
 30
0.0
 40
0
 41
0
  0
VERTEX
  8
0
 10
8.1811
 20
4.28483
 30
0.0
 40
0
 41
0
  0
SEQEND
 8
0
  0
POLYLINE
  8
0
 62
     0
 66
     1
 10
0
 20
0
 30
0.0
 70
     1
 40
0.75
 41
0.75
  0
VERTEX
  8
0
 10
8.1811
 20
4.28483
 30
0.0
 40
0.0104167
 41
0.0104167
  0
VERTEX
  8
0
 10
8.1811
 20
3.764
 30
0.0
 40
0.0104167
 41
0.0104167
  0
VERTEX
  8
0
 10
8.48801
 20
3.764
 30
0.0
 40
0.0104167
 41
0.0104167
  0
VERTEX
  8
0
 10
8.48801
 20
4.28483
 30
0.0
 40
0.0104167
 41
0.0104167
  0
VERTEX
  8
0
 10
8.1811
 20
4.28483
 30
0.0
 40
0.0104167
 41
0.0104167
  0
SEQEND
 8
0
  0
POLYLINE
  8
0
 62
     7
 66
     1
 10
0
 20
0
 30
0.0
 70
     1
 40
0
 41
0
  0
VERTEX
  8
0
 10
8.3489
 20
3.98796
 30
0.0
 40
0
 41
0
  0
VERTEX
  8
0
 10
8.34244
 20
3.98796
 30
0.0
 40
0
 41
0
  0
VERTEX
  8
0
 10
8.32308
 20
3.99864
 30
0.0
 40
0
 41
0
  0
VERTEX
  8
0
 10
8.31244
 20
4.01801
 30
0.0
 40
0
 41
0
  0
VERTEX
  8
0
 10
8.31244
 20
4.02442
 30
0.0
 40
0
 41
0
  0
VERTEX
  8
0
 10
8.31244
 20
4.03087
 30
0.0
 40
0
 41
0
  0
VERTEX
  8
0
 10
8.32308
 20
4.05024
 30
0.0
 40
0
 41
0
  0
VERTEX
  8
0
 10
8.34244
 20
4.06087
 30
0.0
 40
0
 41
0
  0
VERTEX
  8
0
 10
8.3489
 20
4.06087
 30
0.0
 40
0
 41
0
  0
VERTEX
  8
0
 10
8.35531
 20
4.06087
 30
0.0
 40
0
 41
0
  0
VERTEX
  8
0
 10
8.37468
 20
4.05024
 30
0.0
 40
0
 41
0
  0
VERTEX
  8
0
 10
8.38536
 20
4.03087
 30
0.0
 40
0
 41
0
  0
VERTEX
  8
0
 10
8.38536
 20
4.02442
 30
0.0
 40
0
 41
0
  0
VERTEX
  8
0
 10
8.38536
 20
4.01801
 30
0.0
 40
0
 41
0
  0
VERTEX
  8
0
 10
8.37468
 20
3.99864
 30
0.0
 40
0
 41
0
  0
VERTEX
  8
0
 10
8.35531
 20
3.98796
 30
0.0
 40
0
 41
0
  0
VERTEX
  8
0
 10
8.3489
 20
3.98796
 30
0.0
 40
0
 41
0
  0
SEQEND
 8
0
  0
POLYLINE
  8
0
 62
     0
 66
     1
 10
0
 20
0
 30
0.0
 70
     1
 40
0.6
 41
0.6
  0
VERTEX
  8
0
 10
8.3489
 20
3.98796
 30
0.0
 40
0.00833333
 41
0.00833333
  0
VERTEX
  8
0
 10
8.34244
 20
3.98796
 30
0.0
 40
0.00833333
 41
0.00833333
  0
VERTEX
  8
0
 10
8.32308
 20
3.99864
 30
0.0
 40
0.00833333
 41
0.00833333
  0
VERTEX
  8
0
 10
8.31244
 20
4.01801
 30
0.0
 40
0.00833333
 41
0.00833333
  0
VERTEX
  8
0
 10
8.31244
 20
4.02442
 30
0.0
 40
0.00833333
 41
0.00833333
  0
VERTEX
  8
0
 10
8.31244
 20
4.03087
 30
0.0
 40
0.00833333
 41
0.00833333
  0
VERTEX
  8
0
 10
8.32308
 20
4.05024
 30
0.0
 40
0.00833333
 41
0.00833333
  0
VERTEX
  8
0
 10
8.34244
 20
4.06087
 30
0.0
 40
0.00833333
 41
0.00833333
  0
VERTEX
  8
0
 10
8.3489
 20
4.06087
 30
0.0
 40
0.00833333
 41
0.00833333
  0
VERTEX
  8
0
 10
8.35531
 20
4.06087
 30
0.0
 40
0.00833333
 41
0.00833333
  0
VERTEX
  8
0
 10
8.37468
 20
4.05024
 30
0.0
 40
0.00833333
 41
0.00833333
  0
VERTEX
  8
0
 10
8.38536
 20
4.03087
 30
0.0
 40
0.00833333
 41
0.00833333
  0
VERTEX
  8
0
 10
8.38536
 20
4.02442
 30
0.0
 40
0.00833333
 41
0.00833333
  0
VERTEX
  8
0
 10
8.38536
 20
4.01801
 30
0.0
 40
0.00833333
 41
0.00833333
  0
VERTEX
  8
0
 10
8.37468
 20
3.99864
 30
0.0
 40
0.00833333
 41
0.00833333
  0
VERTEX
  8
0
 10
8.35531
 20
3.98796
 30
0.0
 40
0.00833333
 41
0.00833333
  0
VERTEX
  8
0
 10
8.3489
 20
3.98796
 30
0.0
 40
0.00833333
 41
0.00833333
  0
SEQEND
 8
0
  0
POLYLINE
  8
0
 62
     7
 66
     1
 10
0
 20
0
 30
0.0
 70
     1
 40
0
 41
0
  0
VERTEX
  8
0
 10
8.3489
 20
4.00358
 30
0.0
 40
0
 41
0
  0
VERTEX
  8
0
 10
8.34521
 20
4.00358
 30
0.0
 40
0
 41
0
  0
VERTEX
  8
0
 10
8.33415
 20
4.00971
 30
0.0
 40
0
 41
0
  0
VERTEX
  8
0
 10
8.32807
 20
4.02078
 30
0.0
 40
0
 41
0
  0
VERTEX
  8
0
 10
8.32807
 20
4.02442
 30
0.0
 40
0
 41
0
  0
VERTEX
  8
0
 10
8.32807
 20
4.0281
 30
0.0
 40
0
 41
0
  0
VERTEX
  8
0
 10
8.33415
 20
4.03917
 30
0.0
 40
0
 41
0
  0
VERTEX
  8
0
 10
8.34521
 20
4.04525
 30
0.0
 40
0
 41
0
  0
VERTEX
  8
0
 10
8.3489
 20
4.04525
 30
0.0
 40
0
 41
0
  0
VERTEX
  8
0
 10
8.35254
 20
4.04525
 30
0.0
 40
0
 41
0
  0
VERTEX
  8
0
 10
8.36361
 20
4.03917
 30
0.0
 40
0
 41
0
  0
VERTEX
  8
0
 10
8.36974
 20
4.0281
 30
0.0
 40
0
 41
0
  0
VERTEX
  8
0
 10
8.36974
 20
4.02442
 30
0.0
 40
0
 41
0
  0
VERTEX
  8
0
 10
8.36974
 20
4.02078
 30
0.0
 40
0
 41
0
  0
VERTEX
  8
0
 10
8.36361
 20
4.00971
 30
0.0
 40
0
 41
0
  0
VERTEX
  8
0
 10
8.35254
 20
4.00358
 30
0.0
 40
0
 41
0
  0
VERTEX
  8
0
 10
8.3489
 20
4.00358
 30
0.0
 40
0
 41
0
  0
SEQEND
 8
0
  0
POLYLINE
  8
0
 62
     0
 66
     1
 10
0
 20
0
 30
0.0
 70
     1
 40
0.6
 41
0.6
  0
VERTEX
  8
0
 10
8.3489
 20
4.00358
 30
0.0
 40
0.00833333
 41
0.00833333
  0
VERTEX
  8
0
 10
8.34521
 20
4.00358
 30
0.0
 40
0.00833333
 41
0.00833333
  0
VERTEX
  8
0
 10
8.33415
 20
4.00971
 30
0.0
 40
0.00833333
 41
0.00833333
  0
VERTEX
  8
0
 10
8.32807
 20
4.02078
 30
0.0
 40
0.00833333
 41
0.00833333
  0
VERTEX
  8
0
 10
8.32807
 20
4.02442
 30
0.0
 40
0.00833333
 41
0.00833333
  0
VERTEX
  8
0
 10
8.32807
 20
4.0281
 30
0.0
 40
0.00833333
 41
0.00833333
  0
VERTEX
  8
0
 10
8.33415
 20
4.03917
 30
0.0
 40
0.00833333
 41
0.00833333
  0
VERTEX
  8
0
 10
8.34521
 20
4.04525
 30
0.0
 40
0.00833333
 41
0.00833333
  0
VERTEX
  8
0
 10
8.3489
 20
4.04525
 30
0.0
 40
0.00833333
 41
0.00833333
  0
VERTEX
  8
0
 10
8.35254
 20
4.04525
 30
0.0
 40
0.00833333
 41
0.00833333
  0
VERTEX
  8
0
 10
8.36361
 20
4.03917
 30
0.0
 40
0.00833333
 41
0.00833333
  0
VERTEX
  8
0
 10
8.36974
 20
4.0281
 30
0.0
 40
0.00833333
 41
0.00833333
  0
VERTEX
  8
0
 10
8.36974
 20
4.02442
 30
0.0
 40
0.00833333
 41
0.00833333
  0
VERTEX
  8
0
 10
8.36974
 20
4.02078
 30
0.0
 40
0.00833333
 41
0.00833333
  0
VERTEX
  8
0
 10
8.36361
 20
4.00971
 30
0.0
 40
0.00833333
 41
0.00833333
  0
VERTEX
  8
0
 10
8.35254
 20
4.00358
 30
0.0
 40
0.00833333
 41
0.00833333
  0
VERTEX
  8
0
 10
8.3489
 20
4.00358
 30
0.0
 40
0.00833333
 41
0.00833333
  0
SEQEND
 8
0
  0
POLYLINE
  8
0
 62
     7
 66
     1
 10
0
 20
0
 30
0.0
 70
     1
 40
0
 41
0
  0
VERTEX
  8
0
 10
8.40593
 20
4.05567
 30
0.0
 40
0
 41
0
  0
VERTEX
  8
0
 10
8.55176
 20
4.05567
 30
0.0
 40
0
 41
0
  0
VERTEX
  8
0
 10
8.55176
 20
3.99317
 30
0.0
 40
0
 41
0
  0
VERTEX
  8
0
 10
8.40593
 20
3.99317
 30
0.0
 40
0
 41
0
  0
VERTEX
  8
0
 10
8.40593
 20
4.05567
 30
0.0
 40
0
 41
0
  0
SEQEND
 8
0
  0
POLYLINE
  8
0
 62
     0
 66
     1
 10
0
 20
0
 30
0.0
 70
     1
 40
0.75
 41
0.75
  0
VERTEX
  8
0
 10
8.40593
 20
4.05567
 30
0.0
 40
0.0104167
 41
0.0104167
  0
VERTEX
  8
0
 10
8.40593
 20
3.99317
 30
0.0
 40
0.0104167
 41
0.0104167
  0
VERTEX
  8
0
 10
8.55176
 20
3.99317
 30
0.0
 40
0.0104167
 41
0.0104167
  0
VERTEX
  8
0
 10
8.55176
 20
4.05567
 30
0.0
 40
0.0104167
 41
0.0104167
  0
VERTEX
  8
0
 10
8.40593
 20
4.05567
 30
0.0
 40
0.0104167
 41
0.0104167
  0
SEQEND
 8
0
  0
POLYLINE
  8
0
 62
     0
 66
     1
 10
0
 20
0
 30
0.0
 70
     1
 40
0
 41
0
  0
VERTEX
  8
0
 10
8.61376
 20
6.21897
 30
0.0
 40
0
 41
0
  0
VERTEX
  8
0
 10
8.61908
 20
6.21446
 30
0.0
 40
0
 41
0
  0
VERTEX
  8
0
 10
8.74408
 20
5.94646
 30
0.0
 40
0
 41
0
  0
VERTEX
  8
0
 10
8.73876
 20
5.95107
 30
0.0
 40
0
 41
0
  0
VERTEX
  8
0
 10
8.61376
 20
6.21897
 30
0.0
 40
0
 41
0
  0
SEQEND
 8
0
  0
POLYLINE
  8
0
 62
     0
 66
     1
 10
0
 20
0
 30
0.0
 70
     1
 40
0.15
 41
0.15
  0
VERTEX
  8
0
 10
8.61376
 20
6.21897
 30
0.0
 40
0.00208333
 41
0.00208333
  0
VERTEX
  8
0
 10
8.61908
 20
6.21446
 30
0.0
 40
0.00208333
 41
0.00208333
  0
VERTEX
  8
0
 10
8.74408
 20
5.94646
 30
0.0
 40
0.00208333
 41
0.00208333
  0
VERTEX
  8
0
 10
8.73876
 20
5.95107
 30
0.0
 40
0.00208333
 41
0.00208333
  0
VERTEX
  8
0
 10
8.61376
 20
6.21897
 30
0.0
 40
0.00208333
 41
0.00208333
  0
SEQEND
 8
0
  0
POLYLINE
  8
0
 62
     0
 66
     1
 10
0
 20
0
 30
0.0
 70
     1
 40
0
 41
0
  0
VERTEX
  8
0
 10
8.74408
 20
6.1096
 30
0.0
 40
0
 41
0
  0
VERTEX
  8
0
 10
9.63374
 20
5.36356
 30
0.0
 40
0
 41
0
  0
VERTEX
  8
0
 10
9.55344
 20
5.26779
 30
0.0
 40
0
 41
0
  0
VERTEX
  8
0
 10
8.66374
 20
6.01383
 30
0.0
 40
0
 41
0
  0
VERTEX
  8
0
 10
8.74408
 20
6.1096
 30
0.0
 40
0
 41
0
  0
SEQEND
 8
0
  0
POLYLINE
  8
0
 62
     0
 66
     1
 10
0
 20
0
 30
0.0
 70
     1
 40
0.15
 41
0.15
  0
VERTEX
  8
0
 10
8.74408
 20
6.1096
 30
0.0
 40
0.00208333
 41
0.00208333
  0
VERTEX
  8
0
 10
9.63374
 20
5.36356
 30
0.0
 40
0.00208333
 41
0.00208333
  0
VERTEX
  8
0
 10
9.55344
 20
5.26779
 30
0.0
 40
0.00208333
 41
0.00208333
  0
VERTEX
  8
0
 10
8.66374
 20
6.01383
 30
0.0
 40
0.00208333
 41
0.00208333
  0
VERTEX
  8
0
 10
8.74408
 20
6.1096
 30
0.0
 40
0.00208333
 41
0.00208333
  0
SEQEND
 8
0
  0
POLYLINE
  8
0
 62
     7
 66
     1
 10
0
 20
0
 30
0.0
 70
     1
 40
0
 41
0
  0
VERTEX
  8
0
 10
8.84928
 20
6.02149
 30
0.0
 40
0
 41
0
  0
VERTEX
  8
0
 10
9.50814
 20
5.46897
 30
0.0
 40
0
 41
0
  0
VERTEX
  8
0
 10
9.42779
 20
5.3731
 30
0.0
 40
0
 41
0
  0
VERTEX
  8
0
 10
8.76893
 20
5.92562
 30
0.0
 40
0
 41
0
  0
VERTEX
  8
0
 10
8.84928
 20
6.02149
 30
0.0
 40
0
 41
0
  0
SEQEND
 8
0
  0
POLYLINE
  8
0
 62
     0
 66
     1
 10
0
 20
0
 30
0.0
 70
     1
 40
0.75
 41
0.75
  0
VERTEX
  8
0
 10
8.84928
 20
6.02149
 30
0.0
 40
0.0104167
 41
0.0104167
  0
VERTEX
  8
0
 10
9.50814
 20
5.46897
 30
0.0
 40
0.0104167
 41
0.0104167
  0
VERTEX
  8
0
 10
9.42779
 20
5.3731
 30
0.0
 40
0.0104167
 41
0.0104167
  0
VERTEX
  8
0
 10
8.76893
 20
5.92562
 30
0.0
 40
0.0104167
 41
0.0104167
  0
VERTEX
  8
0
 10
8.84928
 20
6.02149
 30
0.0
 40
0.0104167
 41
0.0104167
  0
SEQEND
 8
0
  0
POLYLINE
  8
0
 62
     7
 66
     1
 10
0
 20
0
 30
0.0
 70
     1
 40
0
 41
0
  0
VERTEX
  8
0
 10
8.84928
 20
6.02149
 30
0.0
 40
0
 41
0
  0
VERTEX
  8
0
 10
9.50814
 20
5.46897
 30
0.0
 40
0
 41
0
  0
VERTEX
  8
0
 10
9.42779
 20
5.3731
 30
0.0
 40
0
 41
0
  0
VERTEX
  8
0
 10
8.76893
 20
5.92562
 30
0.0
 40
0
 41
0
  0
VERTEX
  8
0
 10
8.84928
 20
6.02149
 30
0.0
 40
0
 41
0
  0
SEQEND
 8
0
  0
POLYLINE
  8
0
 62
     0
 66
     1
 10
0
 20
0
 30
0.0
 70
     1
 40
0.75
 41
0.75
  0
VERTEX
  8
0
 10
8.84928
 20
6.02149
 30
0.0
 40
0.0104167
 41
0.0104167
  0
VERTEX
  8
0
 10
9.50814
 20
5.46897
 30
0.0
 40
0.0104167
 41
0.0104167
  0
VERTEX
  8
0
 10
9.42779
 20
5.3731
 30
0.0
 40
0.0104167
 41
0.0104167
  0
VERTEX
  8
0
 10
8.76893
 20
5.92562
 30
0.0
 40
0.0104167
 41
0.0104167
  0
VERTEX
  8
0
 10
8.84928
 20
6.02149
 30
0.0
 40
0.0104167
 41
0.0104167
  0
SEQEND
 8
0
  0
POLYLINE
  8
0
 62
     0
 66
     1
 10
0
 20
0
 30
0.0
 70
     1
 40
0.75
 41
0.75
  0
VERTEX
  8
0
 10
8.84928
 20
6.02149
 30
0.0
 40
0.0104167
 41
0.0104167
  0
VERTEX
  8
0
 10
8.88162
 20
6.06011
 30
0.0
 40
0.0104167
 41
0.0104167
  0
VERTEX
  8
0
 10
8.98904
 20
6.16732
 30
0.0
 40
0.0104167
 41
0.0104167
  0
VERTEX
  8
0
 10
9.13217
 20
6.27522
 30
0.0
 40
0.0104167
 41
0.0104167
  0
VERTEX
  8
0
 10
9.2786
 20
6.34532
 30
0.0
 40
0.0104167
 41
0.0104167
  0
VERTEX
  8
0
 10
9.42833
 20
6.3775
 30
0.0
 40
0.0104167
 41
0.0104167
  0
VERTEX
  8
0
 10
9.58138
 20
6.37185
 30
0.0
 40
0.0104167
 41
0.0104167
  0
VERTEX
  8
0
 10
9.73779
 20
6.3284
 30
0.0
 40
0.0104167
 41
0.0104167
  0
VERTEX
  8
0
 10
9.89751
 20
6.24707
 30
0.0
 40
0.0104167
 41
0.0104167
  0
VERTEX
  8
0
 10
10.022
 20
6.16021
 30
0.0
 40
0.0104167
 41
0.0104167
  0
VERTEX
  8
0
 10
10.0606
 20
6.12782
 30
0.0
 40
0.0104167
 41
0.0104167
  0
VERTEX
  8
0
 10
9.50814
 20
5.46897
 30
0.0
 40
0.0104167
 41
0.0104167
  0
VERTEX
  8
0
 10
8.84928
 20
6.02149
 30
0.0
 40
0.0104167
 41
0.0104167
  0
SEQEND
 8
0
  0
POLYLINE
  8
0
 62
     0
 66
     1
 10
0
 20
0
 30
0.0
 70
     1
 40
0
 41
0
  0
VERTEX
  8
0
 10
8.08783
 20
10.0661
 30
0.0
 40
0
 41
0
  0
VERTEX
  8
0
 10
8.74408
 20
10.0661
 30
0.0
 40
0
 41
0
  0
VERTEX
  8
0
 10
8.74408
 20
9.5275
 30
0.0
 40
0
 41
0
  0
VERTEX
  8
0
 10
8.08783
 20
9.5275
 30
0.0
 40
0
 41
0
  0
VERTEX
  8
0
 10
8.08783
 20
10.0661
 30
0.0
 40
0
 41
0
  0
SEQEND
 8
0
  0
POLYLINE
  8
0
 62
     0
 66
     1
 10
0
 20
0
 30
0.0
 70
     1
 40
0.15
 41
0.15
  0
VERTEX
  8
0
 10
8.08783
 20
10.0661
 30
0.0
 40
0.00208333
 41
0.00208333
  0
VERTEX
  8
0
 10
8.74408
 20
10.0661
 30
0.0
 40
0.00208333
 41
0.00208333
  0
VERTEX
  8
0
 10
8.74408
 20
9.5275
 30
0.0
 40
0.00208333
 41
0.00208333
  0
VERTEX
  8
0
 10
8.08783
 20
9.5275
 30
0.0
 40
0.00208333
 41
0.00208333
  0
VERTEX
  8
0
 10
8.08783
 20
10.0661
 30
0.0
 40
0.00208333
 41
0.00208333
  0
SEQEND
 8
0
  0
POLYLINE
  8
0
 62
     0
 66
     1
 10
0
 20
0
 30
0.0
 70
     1
 40
0
 41
0
  0
VERTEX
  8
0
 10
8.16336
 20
2.92031
 30
0.0
 40
0
 41
0
  0
VERTEX
  8
0
 10
8.76753
 20
2.92031
 30
0.0
 40
0
 41
0
  0
VERTEX
  8
0
 10
8.76753
 20
2.31592
 30
0.0
 40
0
 41
0
  0
VERTEX
  8
0
 10
8.16336
 20
2.31592
 30
0.0
 40
0
 41
0
  0
VERTEX
  8
0
 10
8.16336
 20
2.92031
 30
0.0
 40
0
 41
0
  0
SEQEND
 8
0
  0
POLYLINE
  8
0
 62
     0
 66
     1
 10
0
 20
0
 30
0.0
 70
     1
 40
0.15
 41
0.15
  0
VERTEX
  8
0
 10
8.16336
 20
2.92031
 30
0.0
 40
0.00208333
 41
0.00208333
  0
VERTEX
  8
0
 10
8.76753
 20
2.92031
 30
0.0
 40
0.00208333
 41
0.00208333
  0
VERTEX
  8
0
 10
8.76753
 20
2.31592
 30
0.0
 40
0.00208333
 41
0.00208333
  0
VERTEX
  8
0
 10
8.16336
 20
2.31592
 30
0.0
 40
0.00208333
 41
0.00208333
  0
VERTEX
  8
0
 10
8.16336
 20
2.92031
 30
0.0
 40
0.00208333
 41
0.00208333
  0
SEQEND
 8
0
  0
POLYLINE
  8
0
 62
     7
 66
     1
 10
0
 20
0
 30
0.0
 70
     1
 40
0
 41
0
  0
VERTEX
  8
0
 10
4.35861
 20
4.33692
 30
0.0
 40
0
 41
0
  0
VERTEX
  8
0
 10
4.99756
 20
4.33692
 30
0.0
 40
0
 41
0
  0
VERTEX
  8
0
 10
4.99756
 20
3.28543
 30
0.0
 40
0
 41
0
  0
VERTEX
  8
0
 10
4.35861
 20
3.28543
 30
0.0
 40
0
 41
0
  0
VERTEX
  8
0
 10
4.35861
 20
4.33692
 30
0.0
 40
0
 41
0
  0
SEQEND
 8
0
  0
POLYLINE
  8
0
 62
     0
 66
     1
 10
0
 20
0
 30
0.0
 70
     1
 40
0.75
 41
0.75
  0
VERTEX
  8
0
 10
4.35861
 20
4.33692
 30
0.0
 40
0.0104167
 41
0.0104167
  0
VERTEX
  8
0
 10
4.35861
 20
3.28543
 30
0.0
 40
0.0104167
 41
0.0104167
  0
VERTEX
  8
0
 10
4.99756
 20
3.28543
 30
0.0
 40
0.0104167
 41
0.0104167
  0
VERTEX
  8
0
 10
4.99756
 20
4.33692
 30
0.0
 40
0.0104167
 41
0.0104167
  0
VERTEX
  8
0
 10
4.35861
 20
4.33692
 30
0.0
 40
0.0104167
 41
0.0104167
  0
SEQEND
 8
0
  0
POLYLINE
  8
0
 62
     253
 66
     1
 10
0
 20
0
 30
0.0
 40
0.75
 41
0.75
  0
VERTEX
  8
0
 10
4.67811
 20
4.33692
 30
0.0
 40
0.0104167
 41
0.0104167
  0
VERTEX
  8
0
 10
4.67811
 20
3.28543
 30
0.0
 40
0.0104167
 41
0.0104167
  0
SEQEND
 8
0
  0
POLYLINE
  8
0
 62
     7
 66
     1
 10
0
 20
0
 30
0.0
 70
     1
 40
0
 41
0
  0
VERTEX
  8
0
 10
4.3591
 20
3.28489
 30
0.0
 40
0
 41
0
  0
VERTEX
  8
0
 10
4.9974
 20
3.28489
 30
0.0
 40
0
 41
0
  0
VERTEX
  8
0
 10
4.9974
 20
2.63889
 30
0.0
 40
0
 41
0
  0
VERTEX
  8
0
 10
4.3591
 20
2.63889
 30
0.0
 40
0
 41
0
  0
VERTEX
  8
0
 10
4.3591
 20
3.28489
 30
0.0
 40
0
 41
0
  0
SEQEND
 8
0
  0
POLYLINE
  8
0
 62
     0
 66
     1
 10
0
 20
0
 30
0.0
 70
     1
 40
0.75
 41
0.75
  0
VERTEX
  8
0
 10
4.3591
 20
3.28489
 30
0.0
 40
0.0104167
 41
0.0104167
  0
VERTEX
  8
0
 10
4.3591
 20
2.63889
 30
0.0
 40
0.0104167
 41
0.0104167
  0
VERTEX
  8
0
 10
4.9974
 20
2.63889
 30
0.0
 40
0.0104167
 41
0.0104167
  0
VERTEX
  8
0
 10
4.9974
 20
3.28489
 30
0.0
 40
0.0104167
 41
0.0104167
  0
VERTEX
  8
0
 10
4.3591
 20
3.28489
 30
0.0
 40
0.0104167
 41
0.0104167
  0
SEQEND
 8
0
  0
POLYLINE
  8
0
 62
     7
 66
     1
 10
0
 20
0
 30
0.0
 70
     1
 40
0
 41
0
  0
VERTEX
  8
0
 10
6.303
 20
4.33458
 30
0.0
 40
0
 41
0
  0
VERTEX
  8
0
 10
6.928
 20
4.33458
 30
0.0
 40
0
 41
0
  0
VERTEX
  8
0
 10
6.928
 20
2.63889
 30
0.0
 40
0
 41
0
  0
VERTEX
  8
0
 10
6.303
 20
2.63889
 30
0.0
 40
0
 41
0
  0
VERTEX
  8
0
 10
6.303
 20
4.33458
 30
0.0
 40
0
 41
0
  0
SEQEND
 8
0
  0
POLYLINE
  8
0
 62
     0
 66
     1
 10
0
 20
0
 30
0.0
 70
     1
 40
0.75
 41
0.75
  0
VERTEX
  8
0
 10
6.303
 20
4.33458
 30
0.0
 40
0.0104167
 41
0.0104167
  0
VERTEX
  8
0
 10
6.303
 20
2.63889
 30
0.0
 40
0.0104167
 41
0.0104167
  0
VERTEX
  8
0
 10
6.928
 20
2.63889
 30
0.0
 40
0.0104167
 41
0.0104167
  0
VERTEX
  8
0
 10
6.928
 20
4.33458
 30
0.0
 40
0.0104167
 41
0.0104167
  0
VERTEX
  8
0
 10
6.303
 20
4.33458
 30
0.0
 40
0.0104167
 41
0.0104167
  0
SEQEND
 8
0
  0
POLYLINE
  8
0
 62
     253
 66
     1
 10
0
 20
0
 30
0.0
 40
0.75
 41
0.75
  0
VERTEX
  8
0
 10
6.6155
 20
4.33458
 30
0.0
 40
0.0104167
 41
0.0104167
  0
VERTEX
  8
0
 10
6.6155
 20
2.63889
 30
0.0
 40
0.0104167
 41
0.0104167
  0
SEQEND
 8
0
  0
POLYLINE
  8
0
 62
     7
 66
     1
 10
0
 20
0
 30
0.0
 70
     1
 40
0
 41
0
  0
VERTEX
  8
0
 10
6.97863
 20
9.73281
 30
0.0
 40
0
 41
0
  0
VERTEX
  8
0
 10
8.08783
 20
9.73281
 30
0.0
 40
0
 41
0
  0
VERTEX
  8
0
 10
8.08783
 20
9.52929
 30
0.0
 40
0
 41
0
  0
VERTEX
  8
0
 10
8.61908
 20
9.52929
 30
0.0
 40
0
 41
0
  0
VERTEX
  8
0
 10
8.61789
 20
6.6626
 30
0.0
 40
0
 41
0
  0
VERTEX
  8
0
 10
7.99175
 20
6.6626
 30
0.0
 40
0
 41
0
  0
VERTEX
  8
0
 10
7.99175
 20
9.08783
 30
0.0
 40
0
 41
0
  0
VERTEX
  8
0
 10
6.97863
 20
9.08524
 30
0.0
 40
0
 41
0
  0
VERTEX
  8
0
 10
6.97863
 20
9.73281
 30
0.0
 40
0
 41
0
  0
SEQEND
 8
0
  0
POLYLINE
  8
0
 62
     0
 66
     1
 10
0
 20
0
 30
0.0
 70
     1
 40
0.75
 41
0.75
  0
VERTEX
  8
0
 10
6.97863
 20
9.73281
 30
0.0
 40
0.0104167
 41
0.0104167
  0
VERTEX
  8
0
 10
8.08783
 20
9.73281
 30
0.0
 40
0.0104167
 41
0.0104167
  0
VERTEX
  8
0
 10
8.08783
 20
9.52929
 30
0.0
 40
0.0104167
 41
0.0104167
  0
VERTEX
  8
0
 10
8.61908
 20
9.52929
 30
0.0
 40
0.0104167
 41
0.0104167
  0
VERTEX
  8
0
 10
8.61789
 20
6.6626
 30
0.0
 40
0.0104167
 41
0.0104167
  0
VERTEX
  8
0
 10
7.99175
 20
6.6626
 30
0.0
 40
0.0104167
 41
0.0104167
  0
VERTEX
  8
0
 10
7.99175
 20
9.08783
 30
0.0
 40
0.0104167
 41
0.0104167
  0
VERTEX
  8
0
 10
6.97863
 20
9.08524
 30
0.0
 40
0.0104167
 41
0.0104167
  0
VERTEX
  8
0
 10
6.97863
 20
9.73281
 30
0.0
 40
0.0104167
 41
0.0104167
  0
SEQEND
 8
0
  0
POLYLINE
  8
0
 62
     7
 66
     1
 10
0
 20
0
 30
0.0
 70
     1
 40
0
 41
0
  0
VERTEX
  8
0
 10
7.99447
 20
7.72613
 30
0.0
 40
0
 41
0
  0
VERTEX
  8
0
 10
8.61664
 20
7.72613
 30
0.0
 40
0
 41
0
  0
VERTEX
  8
0
 10
8.61664
 20
7.09457
 30
0.0
 40
0
 41
0
  0
VERTEX
  8
0
 10
7.99447
 20
7.09457
 30
0.0
 40
0
 41
0
  0
VERTEX
  8
0
 10
7.99447
 20
7.72613
 30
0.0
 40
0
 41
0
  0
SEQEND
 8
0
  0
POLYLINE
  8
0
 62
     0
 66
     1
 10
0
 20
0
 30
0.0
 70
     1
 40
0.75
 41
0.75
  0
VERTEX
  8
0
 10
7.99447
 20
7.72613
 30
0.0
 40
0.0104167
 41
0.0104167
  0
VERTEX
  8
0
 10
7.99447
 20
7.09457
 30
0.0
 40
0.0104167
 41
0.0104167
  0
VERTEX
  8
0
 10
8.61664
 20
7.09457
 30
0.0
 40
0.0104167
 41
0.0104167
  0
VERTEX
  8
0
 10
8.61664
 20
7.72613
 30
0.0
 40
0.0104167
 41
0.0104167
  0
VERTEX
  8
0
 10
7.99447
 20
7.72613
 30
0.0
 40
0.0104167
 41
0.0104167
  0
SEQEND
 8
0
  0
POLYLINE
  8
0
 62
     7
 66
     1
 10
0
 20
0
 30
0.0
 70
     1
 40
0
 41
0
  0
VERTEX
  8
0
 10
8.46007
 20
7.48367
 30
0.0
 40
0
 41
0
  0
VERTEX
  8
0
 10
8.45193
 20
7.48367
 30
0.0
 40
0
 41
0
  0
VERTEX
  8
0
 10
8.42763
 20
7.49024
 30
0.0
 40
0
 41
0
  0
VERTEX
  8
0
 10
8.40115
 20
7.50808
 30
0.0
 40
0
 41
0
  0
VERTEX
  8
0
 10
8.38325
 20
7.53461
 30
0.0
 40
0
 41
0
  0
VERTEX
  8
0
 10
8.37674
 20
7.55892
 30
0.0
 40
0
 41
0
  0
VERTEX
  8
0
 10
8.37674
 20
7.567
 30
0.0
 40
0
 41
0
  0
VERTEX
  8
0
 10
8.37674
 20
7.57514
 30
0.0
 40
0
 41
0
  0
VERTEX
  8
0
 10
8.38325
 20
7.59944
 30
0.0
 40
0
 41
0
  0
VERTEX
  8
0
 10
8.40115
 20
7.62592
 30
0.0
 40
0
 41
0
  0
VERTEX
  8
0
 10
8.42763
 20
7.64382
 30
0.0
 40
0
 41
0
  0
VERTEX
  8
0
 10
8.45193
 20
7.65033
 30
0.0
 40
0
 41
0
  0
VERTEX
  8
0
 10
8.46007
 20
7.65033
 30
0.0
 40
0
 41
0
  0
VERTEX
  8
0
 10
8.46815
 20
7.65033
 30
0.0
 40
0
 41
0
  0
VERTEX
  8
0
 10
8.49251
 20
7.64382
 30
0.0
 40
0
 41
0
  0
VERTEX
  8
0
 10
8.51899
 20
7.62592
 30
0.0
 40
0
 41
0
  0
VERTEX
  8
0
 10
8.53683
 20
7.59944
 30
0.0
 40
0
 41
0
  0
VERTEX
  8
0
 10
8.5434
 20
7.57514
 30
0.0
 40
0
 41
0
  0
VERTEX
  8
0
 10
8.5434
 20
7.567
 30
0.0
 40
0
 41
0
  0
VERTEX
  8
0
 10
8.5434
 20
7.55892
 30
0.0
 40
0
 41
0
  0
VERTEX
  8
0
 10
8.53683
 20
7.53461
 30
0.0
 40
0
 41
0
  0
VERTEX
  8
0
 10
8.51899
 20
7.50808
 30
0.0
 40
0
 41
0
  0
VERTEX
  8
0
 10
8.49251
 20
7.49024
 30
0.0
 40
0
 41
0
  0
VERTEX
  8
0
 10
8.46815
 20
7.48367
 30
0.0
 40
0
 41
0
  0
VERTEX
  8
0
 10
8.46007
 20
7.48367
 30
0.0
 40
0
 41
0
  0
SEQEND
 8
0
  0
POLYLINE
  8
0
 62
     0
 66
     1
 10
0
 20
0
 30
0.0
 70
     1
 40
0.75
 41
0.75
  0
VERTEX
  8
0
 10
8.46007
 20
7.48367
 30
0.0
 40
0.0104167
 41
0.0104167
  0
VERTEX
  8
0
 10
8.45193
 20
7.48367
 30
0.0
 40
0.0104167
 41
0.0104167
  0
VERTEX
  8
0
 10
8.42763
 20
7.49024
 30
0.0
 40
0.0104167
 41
0.0104167
  0
VERTEX
  8
0
 10
8.40115
 20
7.50808
 30
0.0
 40
0.0104167
 41
0.0104167
  0
VERTEX
  8
0
 10
8.38325
 20
7.53461
 30
0.0
 40
0.0104167
 41
0.0104167
  0
VERTEX
  8
0
 10
8.37674
 20
7.55892
 30
0.0
 40
0.0104167
 41
0.0104167
  0
VERTEX
  8
0
 10
8.37674
 20
7.567
 30
0.0
 40
0.0104167
 41
0.0104167
  0
VERTEX
  8
0
 10
8.37674
 20
7.57514
 30
0.0
 40
0.0104167
 41
0.0104167
  0
VERTEX
  8
0
 10
8.38325
 20
7.59944
 30
0.0
 40
0.0104167
 41
0.0104167
  0
VERTEX
  8
0
 10
8.40115
 20
7.62592
 30
0.0
 40
0.0104167
 41
0.0104167
  0
VERTEX
  8
0
 10
8.42763
 20
7.64382
 30
0.0
 40
0.0104167
 41
0.0104167
  0
VERTEX
  8
0
 10
8.45193
 20
7.65033
 30
0.0
 40
0.0104167
 41
0.0104167
  0
VERTEX
  8
0
 10
8.46007
 20
7.65033
 30
0.0
 40
0.0104167
 41
0.0104167
  0
VERTEX
  8
0
 10
8.46815
 20
7.65033
 30
0.0
 40
0.0104167
 41
0.0104167
  0
VERTEX
  8
0
 10
8.49251
 20
7.64382
 30
0.0
 40
0.0104167
 41
0.0104167
  0
VERTEX
  8
0
 10
8.51899
 20
7.62592
 30
0.0
 40
0.0104167
 41
0.0104167
  0
VERTEX
  8
0
 10
8.53683
 20
7.59944
 30
0.0
 40
0.0104167
 41
0.0104167
  0
VERTEX
  8
0
 10
8.5434
 20
7.57514
 30
0.0
 40
0.0104167
 41
0.0104167
  0
VERTEX
  8
0
 10
8.5434
 20
7.567
 30
0.0
 40
0.0104167
 41
0.0104167
  0
VERTEX
  8
0
 10
8.5434
 20
7.55892
 30
0.0
 40
0.0104167
 41
0.0104167
  0
VERTEX
  8
0
 10
8.53683
 20
7.53461
 30
0.0
 40
0.0104167
 41
0.0104167
  0
VERTEX
  8
0
 10
8.51899
 20
7.50808
 30
0.0
 40
0.0104167
 41
0.0104167
  0
VERTEX
  8
0
 10
8.49251
 20
7.49024
 30
0.0
 40
0.0104167
 41
0.0104167
  0
VERTEX
  8
0
 10
8.46815
 20
7.48367
 30
0.0
 40
0.0104167
 41
0.0104167
  0
VERTEX
  8
0
 10
8.46007
 20
7.48367
 30
0.0
 40
0.0104167
 41
0.0104167
  0
SEQEND
 8
0
  0
POLYLINE
  8
0
 62
     7
 66
     1
 10
0
 20
0
 30
0.0
 70
     1
 40
0
 41
0
  0
VERTEX
  8
0
 10
8.46007
 20
7.16868
 30
0.0
 40
0
 41
0
  0
VERTEX
  8
0
 10
8.45193
 20
7.16868
 30
0.0
 40
0
 41
0
  0
VERTEX
  8
0
 10
8.42763
 20
7.17524
 30
0.0
 40
0
 41
0
  0
VERTEX
  8
0
 10
8.40115
 20
7.19308
 30
0.0
 40
0
 41
0
  0
VERTEX
  8
0
 10
8.38325
 20
7.21962
 30
0.0
 40
0
 41
0
  0
VERTEX
  8
0
 10
8.37674
 20
7.24393
 30
0.0
 40
0
 41
0
  0
VERTEX
  8
0
 10
8.37674
 20
7.25201
 30
0.0
 40
0
 41
0
  0
VERTEX
  8
0
 10
8.37674
 20
7.26014
 30
0.0
 40
0
 41
0
  0
VERTEX
  8
0
 10
8.38325
 20
7.2845
 30
0.0
 40
0
 41
0
  0
VERTEX
  8
0
 10
8.40115
 20
7.31099
 30
0.0
 40
0
 41
0
  0
VERTEX
  8
0
 10
8.42763
 20
7.32883
 30
0.0
 40
0
 41
0
  0
VERTEX
  8
0
 10
8.45193
 20
7.33535
 30
0.0
 40
0
 41
0
  0
VERTEX
  8
0
 10
8.46007
 20
7.33535
 30
0.0
 40
0
 41
0
  0
VERTEX
  8
0
 10
8.46815
 20
7.33535
 30
0.0
 40
0
 41
0
  0
VERTEX
  8
0
 10
8.49251
 20
7.32883
 30
0.0
 40
0
 41
0
  0
VERTEX
  8
0
 10
8.51899
 20
7.31099
 30
0.0
 40
0
 41
0
  0
VERTEX
  8
0
 10
8.53683
 20
7.2845
 30
0.0
 40
0
 41
0
  0
VERTEX
  8
0
 10
8.5434
 20
7.26014
 30
0.0
 40
0
 41
0
  0
VERTEX
  8
0
 10
8.5434
 20
7.25201
 30
0.0
 40
0
 41
0
  0
VERTEX
  8
0
 10
8.5434
 20
7.24393
 30
0.0
 40
0
 41
0
  0
VERTEX
  8
0
 10
8.53683
 20
7.21962
 30
0.0
 40
0
 41
0
  0
VERTEX
  8
0
 10
8.51899
 20
7.19308
 30
0.0
 40
0
 41
0
  0
VERTEX
  8
0
 10
8.49251
 20
7.17524
 30
0.0
 40
0
 41
0
  0
VERTEX
  8
0
 10
8.46815
 20
7.16868
 30
0.0
 40
0
 41
0
  0
VERTEX
  8
0
 10
8.46007
 20
7.16868
 30
0.0
 40
0
 41
0
  0
SEQEND
 8
0
  0
POLYLINE
  8
0
 62
     0
 66
     1
 10
0
 20
0
 30
0.0
 70
     1
 40
0.75
 41
0.75
  0
VERTEX
  8
0
 10
8.46007
 20
7.16868
 30
0.0
 40
0.0104167
 41
0.0104167
  0
VERTEX
  8
0
 10
8.45193
 20
7.16868
 30
0.0
 40
0.0104167
 41
0.0104167
  0
VERTEX
  8
0
 10
8.42763
 20
7.17524
 30
0.0
 40
0.0104167
 41
0.0104167
  0
VERTEX
  8
0
 10
8.40115
 20
7.19308
 30
0.0
 40
0.0104167
 41
0.0104167
  0
VERTEX
  8
0
 10
8.38325
 20
7.21962
 30
0.0
 40
0.0104167
 41
0.0104167
  0
VERTEX
  8
0
 10
8.37674
 20
7.24393
 30
0.0
 40
0.0104167
 41
0.0104167
  0
VERTEX
  8
0
 10
8.37674
 20
7.25201
 30
0.0
 40
0.0104167
 41
0.0104167
  0
VERTEX
  8
0
 10
8.37674
 20
7.26014
 30
0.0
 40
0.0104167
 41
0.0104167
  0
VERTEX
  8
0
 10
8.38325
 20
7.2845
 30
0.0
 40
0.0104167
 41
0.0104167
  0
VERTEX
  8
0
 10
8.40115
 20
7.31099
 30
0.0
 40
0.0104167
 41
0.0104167
  0
VERTEX
  8
0
 10
8.42763
 20
7.32883
 30
0.0
 40
0.0104167
 41
0.0104167
  0
VERTEX
  8
0
 10
8.45193
 20
7.33535
 30
0.0
 40
0.0104167
 41
0.0104167
  0
VERTEX
  8
0
 10
8.46007
 20
7.33535
 30
0.0
 40
0.0104167
 41
0.0104167
  0
VERTEX
  8
0
 10
8.46815
 20
7.33535
 30
0.0
 40
0.0104167
 41
0.0104167
  0
VERTEX
  8
0
 10
8.49251
 20
7.32883
 30
0.0
 40
0.0104167
 41
0.0104167
  0
VERTEX
  8
0
 10
8.51899
 20
7.31099
 30
0.0
 40
0.0104167
 41
0.0104167
  0
VERTEX
  8
0
 10
8.53683
 20
7.2845
 30
0.0
 40
0.0104167
 41
0.0104167
  0
VERTEX
  8
0
 10
8.5434
 20
7.26014
 30
0.0
 40
0.0104167
 41
0.0104167
  0
VERTEX
  8
0
 10
8.5434
 20
7.25201
 30
0.0
 40
0.0104167
 41
0.0104167
  0
VERTEX
  8
0
 10
8.5434
 20
7.24393
 30
0.0
 40
0.0104167
 41
0.0104167
  0
VERTEX
  8
0
 10
8.53683
 20
7.21962
 30
0.0
 40
0.0104167
 41
0.0104167
  0
VERTEX
  8
0
 10
8.51899
 20
7.19308
 30
0.0
 40
0.0104167
 41
0.0104167
  0
VERTEX
  8
0
 10
8.49251
 20
7.17524
 30
0.0
 40
0.0104167
 41
0.0104167
  0
VERTEX
  8
0
 10
8.46815
 20
7.16868
 30
0.0
 40
0.0104167
 41
0.0104167
  0
VERTEX
  8
0
 10
8.46007
 20
7.16868
 30
0.0
 40
0.0104167
 41
0.0104167
  0
SEQEND
 8
0
  0
POLYLINE
  8
0
 62
     7
 66
     1
 10
0
 20
0
 30
0.0
 70
     1
 40
0
 41
0
  0
VERTEX
  8
0
 10
8.14963
 20
7.48367
 30
0.0
 40
0
 41
0
  0
VERTEX
  8
0
 10
8.1415
 20
7.48367
 30
0.0
 40
0
 41
0
  0
VERTEX
  8
0
 10
8.11719
 20
7.49024
 30
0.0
 40
0
 41
0
  0
VERTEX
  8
0
 10
8.09071
 20
7.50808
 30
0.0
 40
0
 41
0
  0
VERTEX
  8
0
 10
8.07281
 20
7.53461
 30
0.0
 40
0
 41
0
  0
VERTEX
  8
0
 10
8.06629
 20
7.55892
 30
0.0
 40
0
 41
0
  0
VERTEX
  8
0
 10
8.06629
 20
7.567
 30
0.0
 40
0
 41
0
  0
VERTEX
  8
0
 10
8.06629
 20
7.57514
 30
0.0
 40
0
 41
0
  0
VERTEX
  8
0
 10
8.07281
 20
7.59944
 30
0.0
 40
0
 41
0
  0
VERTEX
  8
0
 10
8.09071
 20
7.62592
 30
0.0
 40
0
 41
0
  0
VERTEX
  8
0
 10
8.11719
 20
7.64382
 30
0.0
 40
0
 41
0
  0
VERTEX
  8
0
 10
8.1415
 20
7.65033
 30
0.0
 40
0
 41
0
  0
VERTEX
  8
0
 10
8.14963
 20
7.65033
 30
0.0
 40
0
 41
0
  0
VERTEX
  8
0
 10
8.15771
 20
7.65033
 30
0.0
 40
0
 41
0
  0
VERTEX
  8
0
 10
8.18207
 20
7.64382
 30
0.0
 40
0
 41
0
  0
VERTEX
  8
0
 10
8.20856
 20
7.62592
 30
0.0
 40
0
 41
0
  0
VERTEX
  8
0
 10
8.2264
 20
7.59944
 30
0.0
 40
0
 41
0
  0
VERTEX
  8
0
 10
8.23296
 20
7.57514
 30
0.0
 40
0
 41
0
  0
VERTEX
  8
0
 10
8.23296
 20
7.567
 30
0.0
 40
0
 41
0
  0
VERTEX
  8
0
 10
8.23296
 20
7.55892
 30
0.0
 40
0
 41
0
  0
VERTEX
  8
0
 10
8.2264
 20
7.53461
 30
0.0
 40
0
 41
0
  0
VERTEX
  8
0
 10
8.20856
 20
7.50808
 30
0.0
 40
0
 41
0
  0
VERTEX
  8
0
 10
8.18207
 20
7.49024
 30
0.0
 40
0
 41
0
  0
VERTEX
  8
0
 10
8.15771
 20
7.48367
 30
0.0
 40
0
 41
0
  0
VERTEX
  8
0
 10
8.14963
 20
7.48367
 30
0.0
 40
0
 41
0
  0
SEQEND
 8
0
  0
POLYLINE
  8
0
 62
     0
 66
     1
 10
0
 20
0
 30
0.0
 70
     1
 40
0.75
 41
0.75
  0
VERTEX
  8
0
 10
8.14963
 20
7.48367
 30
0.0
 40
0.0104167
 41
0.0104167
  0
VERTEX
  8
0
 10
8.1415
 20
7.48367
 30
0.0
 40
0.0104167
 41
0.0104167
  0
VERTEX
  8
0
 10
8.11719
 20
7.49024
 30
0.0
 40
0.0104167
 41
0.0104167
  0
VERTEX
  8
0
 10
8.09071
 20
7.50808
 30
0.0
 40
0.0104167
 41
0.0104167
  0
VERTEX
  8
0
 10
8.07281
 20
7.53461
 30
0.0
 40
0.0104167
 41
0.0104167
  0
VERTEX
  8
0
 10
8.06629
 20
7.55892
 30
0.0
 40
0.0104167
 41
0.0104167
  0
VERTEX
  8
0
 10
8.06629
 20
7.567
 30
0.0
 40
0.0104167
 41
0.0104167
  0
VERTEX
  8
0
 10
8.06629
 20
7.57514
 30
0.0
 40
0.0104167
 41
0.0104167
  0
VERTEX
  8
0
 10
8.07281
 20
7.59944
 30
0.0
 40
0.0104167
 41
0.0104167
  0
VERTEX
  8
0
 10
8.09071
 20
7.62592
 30
0.0
 40
0.0104167
 41
0.0104167
  0
VERTEX
  8
0
 10
8.11719
 20
7.64382
 30
0.0
 40
0.0104167
 41
0.0104167
  0
VERTEX
  8
0
 10
8.1415
 20
7.65033
 30
0.0
 40
0.0104167
 41
0.0104167
  0
VERTEX
  8
0
 10
8.14963
 20
7.65033
 30
0.0
 40
0.0104167
 41
0.0104167
  0
VERTEX
  8
0
 10
8.15771
 20
7.65033
 30
0.0
 40
0.0104167
 41
0.0104167
  0
VERTEX
  8
0
 10
8.18207
 20
7.64382
 30
0.0
 40
0.0104167
 41
0.0104167
  0
VERTEX
  8
0
 10
8.20856
 20
7.62592
 30
0.0
 40
0.0104167
 41
0.0104167
  0
VERTEX
  8
0
 10
8.2264
 20
7.59944
 30
0.0
 40
0.0104167
 41
0.0104167
  0
VERTEX
  8
0
 10
8.23296
 20
7.57514
 30
0.0
 40
0.0104167
 41
0.0104167
  0
VERTEX
  8
0
 10
8.23296
 20
7.567
 30
0.0
 40
0.0104167
 41
0.0104167
  0
VERTEX
  8
0
 10
8.23296
 20
7.55892
 30
0.0
 40
0.0104167
 41
0.0104167
  0
VERTEX
  8
0
 10
8.2264
 20
7.53461
 30
0.0
 40
0.0104167
 41
0.0104167
  0
VERTEX
  8
0
 10
8.20856
 20
7.50808
 30
0.0
 40
0.0104167
 41
0.0104167
  0
VERTEX
  8
0
 10
8.18207
 20
7.49024
 30
0.0
 40
0.0104167
 41
0.0104167
  0
VERTEX
  8
0
 10
8.15771
 20
7.48367
 30
0.0
 40
0.0104167
 41
0.0104167
  0
VERTEX
  8
0
 10
8.14963
 20
7.48367
 30
0.0
 40
0.0104167
 41
0.0104167
  0
SEQEND
 8
0
  0
POLYLINE
  8
0
 62
     7
 66
     1
 10
0
 20
0
 30
0.0
 70
     1
 40
0
 41
0
  0
VERTEX
  8
0
 10
8.14963
 20
7.16868
 30
0.0
 40
0
 41
0
  0
VERTEX
  8
0
 10
8.1415
 20
7.16868
 30
0.0
 40
0
 41
0
  0
VERTEX
  8
0
 10
8.11719
 20
7.17524
 30
0.0
 40
0
 41
0
  0
VERTEX
  8
0
 10
8.09071
 20
7.19308
 30
0.0
 40
0
 41
0
  0
VERTEX
  8
0
 10
8.07281
 20
7.21962
 30
0.0
 40
0
 41
0
  0
VERTEX
  8
0
 10
8.06629
 20
7.24393
 30
0.0
 40
0
 41
0
  0
VERTEX
  8
0
 10
8.06629
 20
7.25201
 30
0.0
 40
0
 41
0
  0
VERTEX
  8
0
 10
8.06629
 20
7.26014
 30
0.0
 40
0
 41
0
  0
VERTEX
  8
0
 10
8.07281
 20
7.2845
 30
0.0
 40
0
 41
0
  0
VERTEX
  8
0
 10
8.09071
 20
7.31099
 30
0.0
 40
0
 41
0
  0
VERTEX
  8
0
 10
8.11719
 20
7.32883
 30
0.0
 40
0
 41
0
  0
VERTEX
  8
0
 10
8.1415
 20
7.33535
 30
0.0
 40
0
 41
0
  0
VERTEX
  8
0
 10
8.14963
 20
7.33535
 30
0.0
 40
0
 41
0
  0
VERTEX
  8
0
 10
8.15771
 20
7.33535
 30
0.0
 40
0
 41
0
  0
VERTEX
  8
0
 10
8.18207
 20
7.32883
 30
0.0
 40
0
 41
0
  0
VERTEX
  8
0
 10
8.20856
 20
7.31099
 30
0.0
 40
0
 41
0
  0
VERTEX
  8
0
 10
8.2264
 20
7.2845
 30
0.0
 40
0
 41
0
  0
VERTEX
  8
0
 10
8.23296
 20
7.26014
 30
0.0
 40
0
 41
0
  0
VERTEX
  8
0
 10
8.23296
 20
7.25201
 30
0.0
 40
0
 41
0
  0
VERTEX
  8
0
 10
8.23296
 20
7.24393
 30
0.0
 40
0
 41
0
  0
VERTEX
  8
0
 10
8.2264
 20
7.21962
 30
0.0
 40
0
 41
0
  0
VERTEX
  8
0
 10
8.20856
 20
7.19308
 30
0.0
 40
0
 41
0
  0
VERTEX
  8
0
 10
8.18207
 20
7.17524
 30
0.0
 40
0
 41
0
  0
VERTEX
  8
0
 10
8.15771
 20
7.16868
 30
0.0
 40
0
 41
0
  0
VERTEX
  8
0
 10
8.14963
 20
7.16868
 30
0.0
 40
0
 41
0
  0
SEQEND
 8
0
  0
POLYLINE
  8
0
 62
     0
 66
     1
 10
0
 20
0
 30
0.0
 70
     1
 40
0.75
 41
0.75
  0
VERTEX
  8
0
 10
8.14963
 20
7.16868
 30
0.0
 40
0.0104167
 41
0.0104167
  0
VERTEX
  8
0
 10
8.1415
 20
7.16868
 30
0.0
 40
0.0104167
 41
0.0104167
  0
VERTEX
  8
0
 10
8.11719
 20
7.17524
 30
0.0
 40
0.0104167
 41
0.0104167
  0
VERTEX
  8
0
 10
8.09071
 20
7.19308
 30
0.0
 40
0.0104167
 41
0.0104167
  0
VERTEX
  8
0
 10
8.07281
 20
7.21962
 30
0.0
 40
0.0104167
 41
0.0104167
  0
VERTEX
  8
0
 10
8.06629
 20
7.24393
 30
0.0
 40
0.0104167
 41
0.0104167
  0
VERTEX
  8
0
 10
8.06629
 20
7.25201
 30
0.0
 40
0.0104167
 41
0.0104167
  0
VERTEX
  8
0
 10
8.06629
 20
7.26014
 30
0.0
 40
0.0104167
 41
0.0104167
  0
VERTEX
  8
0
 10
8.07281
 20
7.2845
 30
0.0
 40
0.0104167
 41
0.0104167
  0
VERTEX
  8
0
 10
8.09071
 20
7.31099
 30
0.0
 40
0.0104167
 41
0.0104167
  0
VERTEX
  8
0
 10
8.11719
 20
7.32883
 30
0.0
 40
0.0104167
 41
0.0104167
  0
VERTEX
  8
0
 10
8.1415
 20
7.33535
 30
0.0
 40
0.0104167
 41
0.0104167
  0
VERTEX
  8
0
 10
8.14963
 20
7.33535
 30
0.0
 40
0.0104167
 41
0.0104167
  0
VERTEX
  8
0
 10
8.15771
 20
7.33535
 30
0.0
 40
0.0104167
 41
0.0104167
  0
VERTEX
  8
0
 10
8.18207
 20
7.32883
 30
0.0
 40
0.0104167
 41
0.0104167
  0
VERTEX
  8
0
 10
8.20856
 20
7.31099
 30
0.0
 40
0.0104167
 41
0.0104167
  0
VERTEX
  8
0
 10
8.2264
 20
7.2845
 30
0.0
 40
0.0104167
 41
0.0104167
  0
VERTEX
  8
0
 10
8.23296
 20
7.26014
 30
0.0
 40
0.0104167
 41
0.0104167
  0
VERTEX
  8
0
 10
8.23296
 20
7.25201
 30
0.0
 40
0.0104167
 41
0.0104167
  0
VERTEX
  8
0
 10
8.23296
 20
7.24393
 30
0.0
 40
0.0104167
 41
0.0104167
  0
VERTEX
  8
0
 10
8.2264
 20
7.21962
 30
0.0
 40
0.0104167
 41
0.0104167
  0
VERTEX
  8
0
 10
8.20856
 20
7.19308
 30
0.0
 40
0.0104167
 41
0.0104167
  0
VERTEX
  8
0
 10
8.18207
 20
7.17524
 30
0.0
 40
0.0104167
 41
0.0104167
  0
VERTEX
  8
0
 10
8.15771
 20
7.16868
 30
0.0
 40
0.0104167
 41
0.0104167
  0
VERTEX
  8
0
 10
8.14963
 20
7.16868
 30
0.0
 40
0.0104167
 41
0.0104167
  0
SEQEND
 8
0
  0
POLYLINE
  8
0
 62
     7
 66
     1
 10
0
 20
0
 30
0.0
 70
     1
 40
0
 41
0
  0
VERTEX
  8
0
 10
8.09256
 20
8.99963
 30
0.0
 40
0
 41
0
  0
VERTEX
  8
0
 10
8.52208
 20
8.99963
 30
0.0
 40
0
 41
0
  0
VERTEX
  8
0
 10
8.52208
 20
8.79568
 30
0.0
 40
0
 41
0
  0
VERTEX
  8
0
 10
8.09256
 20
8.79568
 30
0.0
 40
0
 41
0
  0
VERTEX
  8
0
 10
8.09256
 20
8.99963
 30
0.0
 40
0
 41
0
  0
SEQEND
 8
0
  0
POLYLINE
  8
0
 62
     0
 66
     1
 10
0
 20
0
 30
0.0
 70
     1
 40
0.75
 41
0.75
  0
VERTEX
  8
0
 10
8.09256
 20
8.99963
 30
0.0
 40
0.0104167
 41
0.0104167
  0
VERTEX
  8
0
 10
8.09256
 20
8.79568
 30
0.0
 40
0.0104167
 41
0.0104167
  0
VERTEX
  8
0
 10
8.52208
 20
8.79568
 30
0.0
 40
0.0104167
 41
0.0104167
  0
VERTEX
  8
0
 10
8.52208
 20
8.99963
 30
0.0
 40
0.0104167
 41
0.0104167
  0
VERTEX
  8
0
 10
8.09256
 20
8.99963
 30
0.0
 40
0.0104167
 41
0.0104167
  0
SEQEND
 8
0
  0
POLYLINE
  8
0
 62
     7
 66
     1
 10
0
 20
0
 30
0.0
 70
     1
 40
0
 41
0
  0
VERTEX
  8
0
 10
8.09153
 20
8.76514
 30
0.0
 40
0
 41
0
  0
VERTEX
  8
0
 10
8.521
 20
8.76514
 30
0.0
 40
0
 41
0
  0
VERTEX
  8
0
 10
8.521
 20
8.38775
 30
0.0
 40
0
 41
0
  0
VERTEX
  8
0
 10
8.09153
 20
8.38775
 30
0.0
 40
0
 41
0
  0
VERTEX
  8
0
 10
8.09153
 20
8.76514
 30
0.0
 40
0
 41
0
  0
SEQEND
 8
0
  0
POLYLINE
  8
0
 62
     0
 66
     1
 10
0
 20
0
 30
0.0
 70
     1
 40
0.75
 41
0.75
  0
VERTEX
  8
0
 10
8.09153
 20
8.76514
 30
0.0
 40
0.0104167
 41
0.0104167
  0
VERTEX
  8
0
 10
8.09153
 20
8.38775
 30
0.0
 40
0.0104167
 41
0.0104167
  0
VERTEX
  8
0
 10
8.521
 20
8.38775
 30
0.0
 40
0.0104167
 41
0.0104167
  0
VERTEX
  8
0
 10
8.521
 20
8.76514
 30
0.0
 40
0.0104167
 41
0.0104167
  0
VERTEX
  8
0
 10
8.09153
 20
8.76514
 30
0.0
 40
0.0104167
 41
0.0104167
  0
SEQEND
 8
0
  0
POLYLINE
  8
0
 62
     7
 66
     1
 10
0
 20
0
 30
0.0
 70
     1
 40
0
 41
0
  0
VERTEX
  8
0
 10
8.30985
 20
8.86128
 30
0.0
 40
0
 41
0
  0
VERTEX
  8
0
 10
8.30339
 20
8.86128
 30
0.0
 40
0
 41
0
  0
VERTEX
  8
0
 10
8.28401
 20
8.87196
 30
0.0
 40
0
 41
0
  0
VERTEX
  8
0
 10
8.27339
 20
8.89133
 30
0.0
 40
0
 41
0
  0
VERTEX
  8
0
 10
8.27339
 20
8.89774
 30
0.0
 40
0
 41
0
  0
VERTEX
  8
0
 10
8.27339
 20
8.90419
 30
0.0
 40
0
 41
0
  0
VERTEX
  8
0
 10
8.28401
 20
8.92356
 30
0.0
 40
0
 41
0
  0
VERTEX
  8
0
 10
8.30339
 20
8.93419
 30
0.0
 40
0
 41
0
  0
VERTEX
  8
0
 10
8.30985
 20
8.93419
 30
0.0
 40
0
 41
0
  0
VERTEX
  8
0
 10
8.31625
 20
8.93419
 30
0.0
 40
0
 41
0
  0
VERTEX
  8
0
 10
8.33561
 20
8.92356
 30
0.0
 40
0
 41
0
  0
VERTEX
  8
0
 10
8.34631
 20
8.90419
 30
0.0
 40
0
 41
0
  0
VERTEX
  8
0
 10
8.34631
 20
8.89774
 30
0.0
 40
0
 41
0
  0
VERTEX
  8
0
 10
8.34631
 20
8.89133
 30
0.0
 40
0
 41
0
  0
VERTEX
  8
0
 10
8.33561
 20
8.87196
 30
0.0
 40
0
 41
0
  0
VERTEX
  8
0
 10
8.31625
 20
8.86128
 30
0.0
 40
0
 41
0
  0
VERTEX
  8
0
 10
8.30985
 20
8.86128
 30
0.0
 40
0
 41
0
  0
SEQEND
 8
0
  0
POLYLINE
  8
0
 62
     0
 66
     1
 10
0
 20
0
 30
0.0
 70
     1
 40
0.6
 41
0.6
  0
VERTEX
  8
0
 10
8.30985
 20
8.86128
 30
0.0
 40
0.00833333
 41
0.00833333
  0
VERTEX
  8
0
 10
8.30339
 20
8.86128
 30
0.0
 40
0.00833333
 41
0.00833333
  0
VERTEX
  8
0
 10
8.28401
 20
8.87196
 30
0.0
 40
0.00833333
 41
0.00833333
  0
VERTEX
  8
0
 10
8.27339
 20
8.89133
 30
0.0
 40
0.00833333
 41
0.00833333
  0
VERTEX
  8
0
 10
8.27339
 20
8.89774
 30
0.0
 40
0.00833333
 41
0.00833333
  0
VERTEX
  8
0
 10
8.27339
 20
8.90419
 30
0.0
 40
0.00833333
 41
0.00833333
  0
VERTEX
  8
0
 10
8.28401
 20
8.92356
 30
0.0
 40
0.00833333
 41
0.00833333
  0
VERTEX
  8
0
 10
8.30339
 20
8.93419
 30
0.0
 40
0.00833333
 41
0.00833333
  0
VERTEX
  8
0
 10
8.30985
 20
8.93419
 30
0.0
 40
0.00833333
 41
0.00833333
  0
VERTEX
  8
0
 10
8.31625
 20
8.93419
 30
0.0
 40
0.00833333
 41
0.00833333
  0
VERTEX
  8
0
 10
8.33561
 20
8.92356
 30
0.0
 40
0.00833333
 41
0.00833333
  0
VERTEX
  8
0
 10
8.34631
 20
8.90419
 30
0.0
 40
0.00833333
 41
0.00833333
  0
VERTEX
  8
0
 10
8.34631
 20
8.89774
 30
0.0
 40
0.00833333
 41
0.00833333
  0
VERTEX
  8
0
 10
8.34631
 20
8.89133
 30
0.0
 40
0.00833333
 41
0.00833333
  0
VERTEX
  8
0
 10
8.33561
 20
8.87196
 30
0.0
 40
0.00833333
 41
0.00833333
  0
VERTEX
  8
0
 10
8.31625
 20
8.86128
 30
0.0
 40
0.00833333
 41
0.00833333
  0
VERTEX
  8
0
 10
8.30985
 20
8.86128
 30
0.0
 40
0.00833333
 41
0.00833333
  0
SEQEND
 8
0
  0
POLYLINE
  8
0
 62
     7
 66
     1
 10
0
 20
0
 30
0.0
 70
     1
 40
0
 41
0
  0
VERTEX
  8
0
 10
8.30985
 20
8.54508
 30
0.0
 40
0
 41
0
  0
VERTEX
  8
0
 10
8.30339
 20
8.54508
 30
0.0
 40
0
 41
0
  0
VERTEX
  8
0
 10
8.28401
 20
8.55578
 30
0.0
 40
0
 41
0
  0
VERTEX
  8
0
 10
8.27339
 20
8.57514
 30
0.0
 40
0
 41
0
  0
VERTEX
  8
0
 10
8.27339
 20
8.58154
 30
0.0
 40
0
 41
0
  0
VERTEX
  8
0
 10
8.27339
 20
8.588
 30
0.0
 40
0
 41
0
  0
VERTEX
  8
0
 10
8.28401
 20
8.60736
 30
0.0
 40
0
 41
0
  0
VERTEX
  8
0
 10
8.30339
 20
8.618
 30
0.0
 40
0
 41
0
  0
VERTEX
  8
0
 10
8.30985
 20
8.618
 30
0.0
 40
0
 41
0
  0
VERTEX
  8
0
 10
8.31625
 20
8.618
 30
0.0
 40
0
 41
0
  0
VERTEX
  8
0
 10
8.33561
 20
8.60736
 30
0.0
 40
0
 41
0
  0
VERTEX
  8
0
 10
8.34631
 20
8.588
 30
0.0
 40
0
 41
0
  0
VERTEX
  8
0
 10
8.34631
 20
8.58154
 30
0.0
 40
0
 41
0
  0
VERTEX
  8
0
 10
8.34631
 20
8.57514
 30
0.0
 40
0
 41
0
  0
VERTEX
  8
0
 10
8.33561
 20
8.55578
 30
0.0
 40
0
 41
0
  0
VERTEX
  8
0
 10
8.31625
 20
8.54508
 30
0.0
 40
0
 41
0
  0
VERTEX
  8
0
 10
8.30985
 20
8.54508
 30
0.0
 40
0
 41
0
  0
SEQEND
 8
0
  0
POLYLINE
  8
0
 62
     0
 66
     1
 10
0
 20
0
 30
0.0
 70
     1
 40
0.6
 41
0.6
  0
VERTEX
  8
0
 10
8.30985
 20
8.54508
 30
0.0
 40
0.00833333
 41
0.00833333
  0
VERTEX
  8
0
 10
8.30339
 20
8.54508
 30
0.0
 40
0.00833333
 41
0.00833333
  0
VERTEX
  8
0
 10
8.28401
 20
8.55578
 30
0.0
 40
0.00833333
 41
0.00833333
  0
VERTEX
  8
0
 10
8.27339
 20
8.57514
 30
0.0
 40
0.00833333
 41
0.00833333
  0
VERTEX
  8
0
 10
8.27339
 20
8.58154
 30
0.0
 40
0.00833333
 41
0.00833333
  0
VERTEX
  8
0
 10
8.27339
 20
8.588
 30
0.0
 40
0.00833333
 41
0.00833333
  0
VERTEX
  8
0
 10
8.28401
 20
8.60736
 30
0.0
 40
0.00833333
 41
0.00833333
  0
VERTEX
  8
0
 10
8.30339
 20
8.618
 30
0.0
 40
0.00833333
 41
0.00833333
  0
VERTEX
  8
0
 10
8.30985
 20
8.618
 30
0.0
 40
0.00833333
 41
0.00833333
  0
VERTEX
  8
0
 10
8.31625
 20
8.618
 30
0.0
 40
0.00833333
 41
0.00833333
  0
VERTEX
  8
0
 10
8.33561
 20
8.60736
 30
0.0
 40
0.00833333
 41
0.00833333
  0
VERTEX
  8
0
 10
8.34631
 20
8.588
 30
0.0
 40
0.00833333
 41
0.00833333
  0
VERTEX
  8
0
 10
8.34631
 20
8.58154
 30
0.0
 40
0.00833333
 41
0.00833333
  0
VERTEX
  8
0
 10
8.34631
 20
8.57514
 30
0.0
 40
0.00833333
 41
0.00833333
  0
VERTEX
  8
0
 10
8.33561
 20
8.55578
 30
0.0
 40
0.00833333
 41
0.00833333
  0
VERTEX
  8
0
 10
8.31625
 20
8.54508
 30
0.0
 40
0.00833333
 41
0.00833333
  0
VERTEX
  8
0
 10
8.30985
 20
8.54508
 30
0.0
 40
0.00833333
 41
0.00833333
  0
SEQEND
 8
0
  0
POLYLINE
  8
0
 62
     7
 66
     1
 10
0
 20
0
 30
0.0
 70
     1
 40
0
 41
0
  0
VERTEX
  8
0
 10
8.30985
 20
8.8769
 30
0.0
 40
0
 41
0
  0
VERTEX
  8
0
 10
8.30615
 20
8.8769
 30
0.0
 40
0
 41
0
  0
VERTEX
  8
0
 10
8.29508
 20
8.88303
 30
0.0
 40
0
 41
0
  0
VERTEX
  8
0
 10
8.28901
 20
8.8941
 30
0.0
 40
0
 41
0
  0
VERTEX
  8
0
 10
8.28901
 20
8.89774
 30
0.0
 40
0
 41
0
  0
VERTEX
  8
0
 10
8.28901
 20
8.90142
 30
0.0
 40
0
 41
0
  0
VERTEX
  8
0
 10
8.29508
 20
8.91249
 30
0.0
 40
0
 41
0
  0
VERTEX
  8
0
 10
8.30615
 20
8.91857
 30
0.0
 40
0
 41
0
  0
VERTEX
  8
0
 10
8.30985
 20
8.91857
 30
0.0
 40
0
 41
0
  0
VERTEX
  8
0
 10
8.31347
 20
8.91857
 30
0.0
 40
0
 41
0
  0
VERTEX
  8
0
 10
8.32454
 20
8.91249
 30
0.0
 40
0
 41
0
  0
VERTEX
  8
0
 10
8.33068
 20
8.90142
 30
0.0
 40
0
 41
0
  0
VERTEX
  8
0
 10
8.33068
 20
8.89774
 30
0.0
 40
0
 41
0
  0
VERTEX
  8
0
 10
8.33068
 20
8.8941
 30
0.0
 40
0
 41
0
  0
VERTEX
  8
0
 10
8.32454
 20
8.88303
 30
0.0
 40
0
 41
0
  0
VERTEX
  8
0
 10
8.31347
 20
8.8769
 30
0.0
 40
0
 41
0
  0
VERTEX
  8
0
 10
8.30985
 20
8.8769
 30
0.0
 40
0
 41
0
  0
SEQEND
 8
0
  0
POLYLINE
  8
0
 62
     0
 66
     1
 10
0
 20
0
 30
0.0
 70
     1
 40
0.6
 41
0.6
  0
VERTEX
  8
0
 10
8.30985
 20
8.8769
 30
0.0
 40
0.00833333
 41
0.00833333
  0
VERTEX
  8
0
 10
8.30615
 20
8.8769
 30
0.0
 40
0.00833333
 41
0.00833333
  0
VERTEX
  8
0
 10
8.29508
 20
8.88303
 30
0.0
 40
0.00833333
 41
0.00833333
  0
VERTEX
  8
0
 10
8.28901
 20
8.8941
 30
0.0
 40
0.00833333
 41
0.00833333
  0
VERTEX
  8
0
 10
8.28901
 20
8.89774
 30
0.0
 40
0.00833333
 41
0.00833333
  0
VERTEX
  8
0
 10
8.28901
 20
8.90142
 30
0.0
 40
0.00833333
 41
0.00833333
  0
VERTEX
  8
0
 10
8.29508
 20
8.91249
 30
0.0
 40
0.00833333
 41
0.00833333
  0
VERTEX
  8
0
 10
8.30615
 20
8.91857
 30
0.0
 40
0.00833333
 41
0.00833333
  0
VERTEX
  8
0
 10
8.30985
 20
8.91857
 30
0.0
 40
0.00833333
 41
0.00833333
  0
VERTEX
  8
0
 10
8.31347
 20
8.91857
 30
0.0
 40
0.00833333
 41
0.00833333
  0
VERTEX
  8
0
 10
8.32454
 20
8.91249
 30
0.0
 40
0.00833333
 41
0.00833333
  0
VERTEX
  8
0
 10
8.33068
 20
8.90142
 30
0.0
 40
0.00833333
 41
0.00833333
  0
VERTEX
  8
0
 10
8.33068
 20
8.89774
 30
0.0
 40
0.00833333
 41
0.00833333
  0
VERTEX
  8
0
 10
8.33068
 20
8.8941
 30
0.0
 40
0.00833333
 41
0.00833333
  0
VERTEX
  8
0
 10
8.32454
 20
8.88303
 30
0.0
 40
0.00833333
 41
0.00833333
  0
VERTEX
  8
0
 10
8.31347
 20
8.8769
 30
0.0
 40
0.00833333
 41
0.00833333
  0
VERTEX
  8
0
 10
8.30985
 20
8.8769
 30
0.0
 40
0.00833333
 41
0.00833333
  0
SEQEND
 8
0
  0
POLYLINE
  8
0
 62
     7
 66
     1
 10
0
 20
0
 30
0.0
 70
     1
 40
0
 41
0
  0
VERTEX
  8
0
 10
8.30985
 20
8.56071
 30
0.0
 40
0
 41
0
  0
VERTEX
  8
0
 10
8.30615
 20
8.56071
 30
0.0
 40
0
 41
0
  0
VERTEX
  8
0
 10
8.29508
 20
8.56685
 30
0.0
 40
0
 41
0
  0
VERTEX
  8
0
 10
8.28901
 20
8.5779
 30
0.0
 40
0
 41
0
  0
VERTEX
  8
0
 10
8.28901
 20
8.58154
 30
0.0
 40
0
 41
0
  0
VERTEX
  8
0
 10
8.28901
 20
8.58524
 30
0.0
 40
0
 41
0
  0
VERTEX
  8
0
 10
8.29508
 20
8.59631
 30
0.0
 40
0
 41
0
  0
VERTEX
  8
0
 10
8.30615
 20
8.60237
 30
0.0
 40
0
 41
0
  0
VERTEX
  8
0
 10
8.30985
 20
8.60237
 30
0.0
 40
0
 41
0
  0
VERTEX
  8
0
 10
8.31347
 20
8.60237
 30
0.0
 40
0
 41
0
  0
VERTEX
  8
0
 10
8.32454
 20
8.59631
 30
0.0
 40
0
 41
0
  0
VERTEX
  8
0
 10
8.33068
 20
8.58524
 30
0.0
 40
0
 41
0
  0
VERTEX
  8
0
 10
8.33068
 20
8.58154
 30
0.0
 40
0
 41
0
  0
VERTEX
  8
0
 10
8.33068
 20
8.5779
 30
0.0
 40
0
 41
0
  0
VERTEX
  8
0
 10
8.32454
 20
8.56685
 30
0.0
 40
0
 41
0
  0
VERTEX
  8
0
 10
8.31347
 20
8.56071
 30
0.0
 40
0
 41
0
  0
VERTEX
  8
0
 10
8.30985
 20
8.56071
 30
0.0
 40
0
 41
0
  0
SEQEND
 8
0
  0
POLYLINE
  8
0
 62
     0
 66
     1
 10
0
 20
0
 30
0.0
 70
     1
 40
0.6
 41
0.6
  0
VERTEX
  8
0
 10
8.30985
 20
8.56071
 30
0.0
 40
0.00833333
 41
0.00833333
  0
VERTEX
  8
0
 10
8.30615
 20
8.56071
 30
0.0
 40
0.00833333
 41
0.00833333
  0
VERTEX
  8
0
 10
8.29508
 20
8.56685
 30
0.0
 40
0.00833333
 41
0.00833333
  0
VERTEX
  8
0
 10
8.28901
 20
8.5779
 30
0.0
 40
0.00833333
 41
0.00833333
  0
VERTEX
  8
0
 10
8.28901
 20
8.58154
 30
0.0
 40
0.00833333
 41
0.00833333
  0
VERTEX
  8
0
 10
8.28901
 20
8.58524
 30
0.0
 40
0.00833333
 41
0.00833333
  0
VERTEX
  8
0
 10
8.29508
 20
8.59631
 30
0.0
 40
0.00833333
 41
0.00833333
  0
VERTEX
  8
0
 10
8.30615
 20
8.60237
 30
0.0
 40
0.00833333
 41
0.00833333
  0
VERTEX
  8
0
 10
8.30985
 20
8.60237
 30
0.0
 40
0.00833333
 41
0.00833333
  0
VERTEX
  8
0
 10
8.31347
 20
8.60237
 30
0.0
 40
0.00833333
 41
0.00833333
  0
VERTEX
  8
0
 10
8.32454
 20
8.59631
 30
0.0
 40
0.00833333
 41
0.00833333
  0
VERTEX
  8
0
 10
8.33068
 20
8.58524
 30
0.0
 40
0.00833333
 41
0.00833333
  0
VERTEX
  8
0
 10
8.33068
 20
8.58154
 30
0.0
 40
0.00833333
 41
0.00833333
  0
VERTEX
  8
0
 10
8.33068
 20
8.5779
 30
0.0
 40
0.00833333
 41
0.00833333
  0
VERTEX
  8
0
 10
8.32454
 20
8.56685
 30
0.0
 40
0.00833333
 41
0.00833333
  0
VERTEX
  8
0
 10
8.31347
 20
8.56071
 30
0.0
 40
0.00833333
 41
0.00833333
  0
VERTEX
  8
0
 10
8.30985
 20
8.56071
 30
0.0
 40
0.00833333
 41
0.00833333
  0
SEQEND
 8
0
  0
POLYLINE
  8
0
 62
     7
 66
     1
 10
0
 20
0
 30
0.0
 70
     1
 40
0
 41
0
  0
VERTEX
  8
0
 10
8.43186
 20
8.72433
 30
0.0
 40
0
 41
0
  0
VERTEX
  8
0
 10
8.57769
 20
8.72433
 30
0.0
 40
0
 41
0
  0
VERTEX
  8
0
 10
8.57769
 20
8.66183
 30
0.0
 40
0
 41
0
  0
VERTEX
  8
0
 10
8.43186
 20
8.66183
 30
0.0
 40
0
 41
0
  0
VERTEX
  8
0
 10
8.43186
 20
8.72433
 30
0.0
 40
0
 41
0
  0
SEQEND
 8
0
  0
POLYLINE
  8
0
 62
     0
 66
     1
 10
0
 20
0
 30
0.0
 70
     1
 40
0.75
 41
0.75
  0
VERTEX
  8
0
 10
8.43186
 20
8.72433
 30
0.0
 40
0.0104167
 41
0.0104167
  0
VERTEX
  8
0
 10
8.43186
 20
8.66183
 30
0.0
 40
0.0104167
 41
0.0104167
  0
VERTEX
  8
0
 10
8.57769
 20
8.66183
 30
0.0
 40
0.0104167
 41
0.0104167
  0
VERTEX
  8
0
 10
8.57769
 20
8.72433
 30
0.0
 40
0.0104167
 41
0.0104167
  0
VERTEX
  8
0
 10
8.43186
 20
8.72433
 30
0.0
 40
0.0104167
 41
0.0104167
  0
SEQEND
 8
0
  0
POLYLINE
  8
0
 62
     7
 66
     1
 10
0
 20
0
 30
0.0
 70
     1
 40
0
 41
0
  0
VERTEX
  8
0
 10
7.99175
 20
8.37196
 30
0.0
 40
0
 41
0
  0
VERTEX
  8
0
 10
8.61675
 20
8.37196
 30
0.0
 40
0
 41
0
  0
VERTEX
  8
0
 10
8.61675
 20
7.74696
 30
0.0
 40
0
 41
0
  0
VERTEX
  8
0
 10
7.99175
 20
7.74696
 30
0.0
 40
0
 41
0
  0
VERTEX
  8
0
 10
7.99175
 20
8.37196
 30
0.0
 40
0
 41
0
  0
SEQEND
 8
0
  0
POLYLINE
  8
0
 62
     0
 66
     1
 10
0
 20
0
 30
0.0
 70
     1
 40
0.75
 41
0.75
  0
VERTEX
  8
0
 10
7.99175
 20
8.37196
 30
0.0
 40
0.0104167
 41
0.0104167
  0
VERTEX
  8
0
 10
7.99175
 20
7.74696
 30
0.0
 40
0.0104167
 41
0.0104167
  0
VERTEX
  8
0
 10
8.61675
 20
7.74696
 30
0.0
 40
0.0104167
 41
0.0104167
  0
VERTEX
  8
0
 10
8.61675
 20
8.37196
 30
0.0
 40
0.0104167
 41
0.0104167
  0
VERTEX
  8
0
 10
7.99175
 20
8.37196
 30
0.0
 40
0.0104167
 41
0.0104167
  0
SEQEND
 8
0
  0
POLYLINE
  8
0
 62
     0
 66
     1
 10
0
 20
0
 30
0.0
 40
0.75
 41
0.75
  0
VERTEX
  8
0
 10
8.61675
 20
8.37196
 30
0.0
 40
0.0104167
 41
0.0104167
  0
VERTEX
  8
0
 10
8.21158
 20
8.05946
 30
0.0
 40
0.0104167
 41
0.0104167
  0
VERTEX
  8
0
 10
8.41992
 20
8.05946
 30
0.0
 40
0.0104167
 41
0.0104167
  0
VERTEX
  8
0
 10
7.99175
 20
7.74696
 30
0.0
 40
0.0104167
 41
0.0104167
  0
SEQEND
 8
0
  0
POLYLINE
  8
0
 62
     0
 66
     1
 10
0
 20
0
 30
0.0
 40
0.75
 41
0.75
  0
VERTEX
  8
0
 10
7.99593
 20
8.26779
 30
0.0
 40
0.0104167
 41
0.0104167
  0
VERTEX
  8
0
 10
7.99593
 20
7.85325
 30
0.0
 40
0.0104167
 41
0.0104167
  0
SEQEND
 8
0
  0
POLYLINE
  8
0
 62
     0
 66
     1
 10
0
 20
0
 30
0.0
 70
     1
 40
0.75
 41
0.75
  0
VERTEX
  8
0
 10
6.97863
 20
9.73281
 30
0.0
 40
0.0104167
 41
0.0104167
  0
VERTEX
  8
0
 10
6.97863
 20
9.41237
 30
0.0
 40
0.0104167
 41
0.0104167
  0
VERTEX
  8
0
 10
8.30479
 20
9.41237
 30
0.0
 40
0.0104167
 41
0.0104167
  0
VERTEX
  8
0
 10
8.30479
 20
6.6626
 30
0.0
 40
0.0104167
 41
0.0104167
  0
VERTEX
  8
0
 10
8.61908
 20
6.6626
 30
0.0
 40
0.0104167
 41
0.0104167
  0
VERTEX
  8
0
 10
8.61908
 20
9.5275
 30
0.0
 40
0.0104167
 41
0.0104167
  0
VERTEX
  8
0
 10
8.08783
 20
9.5275
 30
0.0
 40
0.0104167
 41
0.0104167
  0
VERTEX
  8
0
 10
8.08783
 20
9.73199
 30
0.0
 40
0.0104167
 41
0.0104167
  0
VERTEX
  8
0
 10
6.97863
 20
9.73281
 30
0.0
 40
0.0104167
 41
0.0104167
  0
SEQEND
 8
0
  0
POLYLINE
  8
0
 62
     0
 66
     1
 10
0
 20
0
 30
0.0
 70
     1
 40
0
 41
0
  0
VERTEX
  8
0
 10
3.73947
 20
12.0754
 30
0.0
 40
0
 41
0
  0
VERTEX
  8
0
 10
3.73947
 20
12.0677
 30
0.0
 40
0
 41
0
  0
VERTEX
  8
0
 10
3.73318
 20
12.0444
 30
0.0
 40
0
 41
0
  0
VERTEX
  8
0
 10
3.71615
 20
12.0191
 30
0.0
 40
0
 41
0
  0
VERTEX
  8
0
 10
3.69081
 20
12.002
 30
0.0
 40
0
 41
0
  0
VERTEX
  8
0
 10
3.66754
 20
11.9957
 30
0.0
 40
0
 41
0
  0
VERTEX
  8
0
 10
3.65983
 20
11.9957
 30
0.0
 40
0
 41
0
  0
VERTEX
  8
0
 10
3.65207
 20
11.9957
 30
0.0
 40
0
 41
0
  0
VERTEX
  8
0
 10
3.62879
 20
12.002
 30
0.0
 40
0
 41
0
  0
VERTEX
  8
0
 10
3.60346
 20
12.0191
 30
0.0
 40
0
 41
0
  0
VERTEX
  8
0
 10
3.58637
 20
12.0444
 30
0.0
 40
0
 41
0
  0
VERTEX
  8
0
 10
3.58014
 20
12.0677
 30
0.0
 40
0
 41
0
  0
VERTEX
  8
0
 10
3.58014
 20
12.0754
 30
0.0
 40
0
 41
0
  0
VERTEX
  8
0
 10
3.58014
 20
12.0832
 30
0.0
 40
0
 41
0
  0
VERTEX
  8
0
 10
3.58637
 20
12.1064
 30
0.0
 40
0
 41
0
  0
VERTEX
  8
0
 10
3.60346
 20
12.1318
 30
0.0
 40
0
 41
0
  0
VERTEX
  8
0
 10
3.62879
 20
12.1488
 30
0.0
 40
0
 41
0
  0
VERTEX
  8
0
 10
3.65207
 20
12.1551
 30
0.0
 40
0
 41
0
  0
VERTEX
  8
0
 10
3.65983
 20
12.1551
 30
0.0
 40
0
 41
0
  0
VERTEX
  8
0
 10
3.66754
 20
12.1551
 30
0.0
 40
0
 41
0
  0
VERTEX
  8
0
 10
3.69081
 20
12.1488
 30
0.0
 40
0
 41
0
  0
VERTEX
  8
0
 10
3.71615
 20
12.1318
 30
0.0
 40
0
 41
0
  0
VERTEX
  8
0
 10
3.73318
 20
12.1064
 30
0.0
 40
0
 41
0
  0
VERTEX
  8
0
 10
3.73947
 20
12.0832
 30
0.0
 40
0
 41
0
  0
VERTEX
  8
0
 10
3.73947
 20
12.0754
 30
0.0
 40
0
 41
0
  0
SEQEND
 8
0
  0
POLYLINE
  8
0
 62
     0
 66
     1
 10
0
 20
0
 30
0.0
 70
     1
 40
0
 41
0
  0
VERTEX
  8
0
 10
7.36035
 20
0.246799
 30
0.0
 40
0
 41
0
  0
VERTEX
  8
0
 10
7.36035
 20
0.238444
 30
0.0
 40
0
 41
0
  0
VERTEX
  8
0
 10
7.35357
 20
0.213271
 30
0.0
 40
0
 41
0
  0
VERTEX
  8
0
 10
7.33507
 20
0.185926
 30
0.0
 40
0
 41
0
  0
VERTEX
  8
0
 10
7.30772
 20
0.167426
 30
0.0
 40
0
 41
0
  0
VERTEX
  8
0
 10
7.28256
 20
0.160644
 30
0.0
 40
0
 41
0
  0
VERTEX
  8
0
 10
7.27419
 20
0.160644
 30
0.0
 40
0
 41
0
  0
VERTEX
  8
0
 10
7.26579
 20
0.160644
 30
0.0
 40
0
 41
0
  0
VERTEX
  8
0
 10
7.24067
 20
0.167426
 30
0.0
 40
0
 41
0
  0
VERTEX
  8
0
 10
7.21332
 20
0.185926
 30
0.0
 40
0
 41
0
  0
VERTEX
  8
0
 10
7.19482
 20
0.213271
 30
0.0
 40
0
 41
0
  0
VERTEX
  8
0
 10
7.1881
 20
0.238444
 30
0.0
 40
0
 41
0
  0
VERTEX
  8
0
 10
7.1881
 20
0.246799
 30
0.0
 40
0
 41
0
  0
VERTEX
  8
0
 10
7.1881
 20
0.255208
 30
0.0
 40
0
 41
0
  0
VERTEX
  8
0
 10
7.19482
 20
0.280328
 30
0.0
 40
0
 41
0
  0
VERTEX
  8
0
 10
7.21332
 20
0.307726
 30
0.0
 40
0
 41
0
  0
VERTEX
  8
0
 10
7.24067
 20
0.326172
 30
0.0
 40
0
 41
0
  0
VERTEX
  8
0
 10
7.26579
 20
0.3329
 30
0.0
 40
0
 41
0
  0
VERTEX
  8
0
 10
7.27419
 20
0.3329
 30
0.0
 40
0
 41
0
  0
VERTEX
  8
0
 10
7.28256
 20
0.3329
 30
0.0
 40
0
 41
0
  0
VERTEX
  8
0
 10
7.30772
 20
0.326172
 30
0.0
 40
0
 41
0
  0
VERTEX
  8
0
 10
7.33507
 20
0.307726
 30
0.0
 40
0
 41
0
  0
VERTEX
  8
0
 10
7.35357
 20
0.280328
 30
0.0
 40
0
 41
0
  0
VERTEX
  8
0
 10
7.36035
 20
0.255208
 30
0.0
 40
0
 41
0
  0
VERTEX
  8
0
 10
7.36035
 20
0.246799
 30
0.0
 40
0
 41
0
  0
SEQEND
 8
0
  0
POLYLINE
  8
0
 62
     0
 66
     1
 10
0
 20
0
 30
0.0
 70
     1
 40
0
 41
0
  0
VERTEX
  8
0
 10
12.2818
 20
0.248589
 30
0.0
 40
0
 41
0
  0
VERTEX
  8
0
 10
12.2818
 20
0.240235
 30
0.0
 40
0
 41
0
  0
VERTEX
  8
0
 10
12.275
 20
0.215115
 30
0.0
 40
0
 41
0
  0
VERTEX
  8
0
 10
12.2565
 20
0.187717
 30
0.0
 40
0
 41
0
  0
VERTEX
  8
0
 10
12.2292
 20
0.169271
 30
0.0
 40
0
 41
0
  0
VERTEX
  8
0
 10
12.204
 20
0.162489
 30
0.0
 40
0
 41
0
  0
VERTEX
  8
0
 10
12.1956
 20
0.162489
 30
0.0
 40
0
 41
0
  0
VERTEX
  8
0
 10
12.1872
 20
0.162489
 30
0.0
 40
0
 41
0
  0
VERTEX
  8
0
 10
12.1621
 20
0.169271
 30
0.0
 40
0
 41
0
  0
VERTEX
  8
0
 10
12.1348
 20
0.187717
 30
0.0
 40
0
 41
0
  0
VERTEX
  8
0
 10
12.1163
 20
0.215115
 30
0.0
 40
0
 41
0
  0
VERTEX
  8
0
 10
12.1095
 20
0.240235
 30
0.0
 40
0
 41
0
  0
VERTEX
  8
0
 10
12.1095
 20
0.248589
 30
0.0
 40
0
 41
0
  0
VERTEX
  8
0
 10
12.1095
 20
0.256999
 30
0.0
 40
0
 41
0
  0
VERTEX
  8
0
 10
12.1163
 20
0.282172
 30
0.0
 40
0
 41
0
  0
VERTEX
  8
0
 10
12.1348
 20
0.309517
 30
0.0
 40
0
 41
0
  0
VERTEX
  8
0
 10
12.1621
 20
0.328017
 30
0.0
 40
0
 41
0
  0
VERTEX
  8
0
 10
12.1872
 20
0.334744
 30
0.0
 40
0
 41
0
  0
VERTEX
  8
0
 10
12.1956
 20
0.334744
 30
0.0
 40
0
 41
0
  0
VERTEX
  8
0
 10
12.204
 20
0.334744
 30
0.0
 40
0
 41
0
  0
VERTEX
  8
0
 10
12.2292
 20
0.328017
 30
0.0
 40
0
 41
0
  0
VERTEX
  8
0
 10
12.2565
 20
0.309517
 30
0.0
 40
0
 41
0
  0
VERTEX
  8
0
 10
12.275
 20
0.282172
 30
0.0
 40
0
 41
0
  0
VERTEX
  8
0
 10
12.2818
 20
0.256999
 30
0.0
 40
0
 41
0
  0
VERTEX
  8
0
 10
12.2818
 20
0.248589
 30
0.0
 40
0
 41
0
  0
SEQEND
 8
0
  0
ENDSEC
  0
EOF
