<?xml version="1.0"?>
<svg xmlns="http://www.w3.org/2000/svg" xmlns:xlink="http://www.w3.org/1999/xlink" height="981.3599624633789" version="1.1" width="1243.3100204467773" id="temp" viewBox="0 0 1243.3100204467773 981.3599624633789"><defs/><g id="Model" class="Model v1-1"><g class="Floor"><g id="Floor-1" class="Floorplan Floor-1"><g id="94a8eda5-b40a-43db-8220-cf462e223b5d" fill="#ffffff" stroke="#ffffff" style="fill-opacity: 1; stroke-opacity: 1; stroke-width: 0.2;" class="Space Bedroom"><polygon points="455.99,620.98 130.96,620.98 130.96,388.74 455.99,388.74 "/><g transform="matrix(1,0,0,1,130.9597,388.742)" class="Dimension"><g transform="matrix(1,0,0,1,0,0)" style="display: none;" class="Visual"><g id="mark1" fill="#000000" stroke="none" transform="matrix(1,0,0,1,162.5167,0)" style="fill-opacity: 1; pointer-events: visible;" class="DimensionMark"><polygon points="-5,5,0,0,5,5"/></g><g id="mark2" fill="#000000" stroke="none" transform="matrix(1,0,0,1,325.0333,116.1184)" style="fill-opacity: 1; pointer-events: visible;" class="DimensionMark"><polygon points="-5,-5,0,0,-5,5"/></g><g id="mark3" fill="#000000" stroke="none" transform="matrix(1,0,0,1,162.5167,232.2367)" style="fill-opacity: 1; pointer-events: visible;" class="DimensionMark"><polygon points="-5,-5,0,0,5,-5"/></g><g id="mark4" fill="#000000" stroke="none" transform="matrix(1,0,0,1,0,116.1184)" style="fill-opacity: 1; pointer-events: visible;" class="DimensionMark"><polygon points="5,5,0,0,5,-5"/></g></g><g transform="matrix(1,0,0,1,149.5117,122.5401)" class="SpaceDimensionsLabel" style="display: block;"><g id="NameLabel" style="display: block;" class="TextLabel NameLabel"><text x="0" y="0em" fill="#000000" stroke="none" style="font-family: Verdana; font-size: 33px; fill-opacity: 1; cursor: default;">MH</text></g><g id="DimensionMeasureLabel" transform="matrix(1,0,0,1,-113.6875,79.4062)" style="display: none;" class="TextLabel DimensionMeasureLabel"><text x="42.1796875" y="-1.2em" fill="#000000" stroke="none" style="font-family: Verdana; font-size: 33px; fill-opacity: 1; cursor: default;">10'8" x 7'7"</text><text x="0" y="0em" fill="#000000" stroke="none" style="font-family: Verdana; font-size: 33px; fill-opacity: 1; cursor: default;">3.25 m x 2.32 m</text></g></g></g></g><g id="c6747339-432e-4fd0-9d15-8a295ef58787" fill="#ffffff" stroke="#000000" style="fill-opacity: 1; stroke-opacity: 1; stroke-width: 0.2;" class="Space Outdoor"><polygon points="1018.05,104.27 1129.46,104.27 1129.46,130.32 1134.16,130.32 1134.16,616.42 1018.05,616.42 1018.05,104.27 1018.05,104.27 "/><g transform="matrix(1,0,0,1,1018.0548,104.2689)" class="Dimension"><g transform="matrix(1,0,0,1,0,0)" style="display: none;" class="Visual"><g id="mark1" fill="#000000" stroke="none" transform="matrix(1,0,0,1,58.0521,0)" style="fill-opacity: 1; pointer-events: visible;" class="DimensionMark"><polygon points="-5,5,0,0,5,5"/></g><g id="mark2" fill="#000000" stroke="none" transform="matrix(1,0,0,1,116.1042,256.0736)" style="fill-opacity: 1; pointer-events: visible;" class="DimensionMark"><polygon points="-5,-5,0,0,-5,5"/></g><g id="mark3" fill="#000000" stroke="none" transform="matrix(1,0,0,1,58.0521,512.1471)" style="fill-opacity: 1; pointer-events: visible;" class="DimensionMark"><polygon points="-5,-5,0,0,5,-5"/></g><g id="mark4" fill="#000000" stroke="none" transform="matrix(1,0,0,1,0,256.0736)" style="fill-opacity: 1; pointer-events: visible;" class="DimensionMark"><polygon points="5,5,0,0,5,-5"/></g></g><g transform="matrix(1,0,0,1,58.0521,58.052)" class="SpaceDimensionsLabel"><g id="NameLabel" style="display: block;" class="TextLabel NameLabel"><text x="0" y="0em" fill="#000000" stroke="none" style="font-family: Verdana; font-size: 33px; fill-opacity: 1; cursor: default;">ULKOTILA</text></g><g id="DimensionMeasureLabel" transform="matrix(1,0,0,1,-57.3125,79.6719)" style="display: none;" class="TextLabel DimensionMeasureLabel"><text x="21.203125" y="-1.2em" fill="#000000" stroke="none" style="font-family: Verdana; font-size: 33px; fill-opacity: 1; cursor: default;">3'10" x 16'10"</text><text x="0" y="0em" fill="#000000" stroke="none" style="font-family: Verdana; font-size: 33px; fill-opacity: 1; cursor: default;">1.16 m x 5.12 m</text></g></g></g></g><g id="f63e5ce6-0a6d-40ad-abaf-9bd28158b32d" fill="#ffffff" stroke="#ffffff" style="fill-opacity: 1; stroke-opacity: 1; stroke-width: 0.2;" class="Space Undefined"><polygon points="558.85,517.01 567.85,517.01 567.85,475.97 673.82,475.97 673.82,515.26 681.82,515.26 681.82,628.42 584.46,628.42 584.46,883.37 464.99,883.37 464.99,388.74 558.85,388.74 "/><g transform="matrix(1,0,0,1,464.993,388.742)" class="Dimension"><g transform="matrix(1,0,0,1,0,0)" style="display: none;" class="Visual"><g id="mark1" fill="#000000" stroke="none" transform="matrix(1,0,0,1,93.8554,0)" style="fill-opacity: 1; pointer-events: visible;" class="DimensionMark"><polygon points="-5,5,0,0,5,5"/></g><g id="mark2" fill="#000000" stroke="none" transform="matrix(1,0,0,1,216.8228,239.674)" style="fill-opacity: 1; pointer-events: visible;" class="DimensionMark"><polygon points="-5,-5,0,0,-5,5"/></g><g id="mark3" fill="#000000" stroke="none" transform="matrix(1,0,0,1,93.8554,494.6295)" style="fill-opacity: 1; pointer-events: visible;" class="DimensionMark"><polygon points="-5,-5,0,0,5,-5"/></g><g id="mark4" fill="#000000" stroke="none" transform="matrix(1,0,0,1,0,239.674)" style="fill-opacity: 1; pointer-events: visible;" class="DimensionMark"><polygon points="5,5,0,0,5,-5"/></g></g><g transform="matrix(1,0,0,1,69.0276,192.6843)" class="SpaceDimensionsLabel"><g id="NameLabel" style="display: block;" class="TextLabel NameLabel"><text x="0" y="0em" fill="#000000" stroke="none" style="font-family: Verdana; font-size: 33px; fill-opacity: 1; cursor: default;">UNDEFINED</text></g><g id="DimensionMeasureLabel" transform="matrix(1,0,0,1,-40.5235,79.7969)" style="display: none;" class="TextLabel DimensionMeasureLabel"><text x="42.1875" y="-1.2em" fill="#000000" stroke="none" style="font-family: Verdana; font-size: 33px; fill-opacity: 1; cursor: default;">7'1" x 16'3"</text><text x="0" y="0em" fill="#000000" stroke="none" style="font-family: Verdana; font-size: 33px; fill-opacity: 1; cursor: default;">2.17 m x 4.95 m</text></g></g></g></g><g id="3001c07d-7611-419a-9c24-a53cac260130" fill="#ffffff" stroke="#ffffff" style="fill-opacity: 1; stroke-opacity: 1; stroke-width: 0.2;" class="Space LivingRoom"><polygon points="1000.05,628.42 681.82,628.42 681.82,129.27 1000.05,129.27 "/><g transform="matrix(1,0,0,1,681.8158,129.2689)" class="Dimension"><g transform="matrix(1,0,0,1,0,0)" style="display: none;" class="Visual"><g id="mark1" fill="#000000" stroke="none" transform="matrix(1,0,0,1,159.1195,0)" style="fill-opacity: 1; pointer-events: visible;" class="DimensionMark"><polygon points="-5,5,0,0,5,5"/></g><g id="mark2" fill="#000000" stroke="none" transform="matrix(1,0,0,1,318.239,249.5736)" style="fill-opacity: 1; pointer-events: visible;" class="DimensionMark"><polygon points="-5,-5,0,0,-5,5"/></g><g id="mark3" fill="#000000" stroke="none" transform="matrix(1,0,0,1,159.1195,499.1471)" style="fill-opacity: 1; pointer-events: visible;" class="DimensionMark"><polygon points="-5,-5,0,0,5,-5"/></g><g id="mark4" fill="#000000" stroke="none" transform="matrix(1,0,0,1,0,249.5736)" style="fill-opacity: 1; pointer-events: visible;" class="DimensionMark"><polygon points="5,5,0,0,5,-5"/></g></g><g transform="matrix(1,0,0,1,137.2854,249.0247)" class="SpaceDimensionsLabel"><g id="NameLabel" style="display: block;" class="TextLabel NameLabel"><text x="0" y="0em" fill="#000000" stroke="none" style="font-family: Verdana; font-size: 33px; fill-opacity: 1; cursor: default;">OH</text></g><g id="DimensionMeasureLabel" transform="matrix(1,0,0,1,-114.6093,79.4062)" style="display: none;" class="TextLabel DimensionMeasureLabel"><text x="31.6875" y="-1.2em" fill="#000000" stroke="none" style="font-family: Verdana; font-size: 33px; fill-opacity: 1; cursor: default;">10'5" x 16'5"</text><text x="0" y="0em" fill="#000000" stroke="none" style="font-family: Verdana; font-size: 33px; fill-opacity: 1; cursor: default;">3.18 m x 4.99 m</text></g></g></g></g><g id="58a3b681-d489-414a-a554-e473f55b4c97" fill="#ffffff" stroke="#ffffff" style="fill-opacity: 1; stroke-opacity: 1; stroke-width: 0.2;" class="Space Bedroom"><polygon points="558.85,379.74 130.96,379.74 130.96,129.27 558.85,129.27 "/><g transform="matrix(1,0,0,1,130.9597,129.2689)" class="Dimension"><g transform="matrix(1,0,0,1,0,0)" style="display: none;" class="Visual"><g id="mark1" fill="#000000" stroke="none" transform="matrix(1,0,0,1,213.9444,0)" style="fill-opacity: 1; pointer-events: visible;" class="DimensionMark"><polygon points="-5,5,0,0,5,5"/></g><g id="mark2" fill="#000000" stroke="none" transform="matrix(1,0,0,1,427.8887,125.2365)" style="fill-opacity: 1; pointer-events: visible;" class="DimensionMark"><polygon points="-5,-5,0,0,-5,5"/></g><g id="mark3" fill="#000000" stroke="none" transform="matrix(1,0,0,1,213.9444,250.4731)" style="fill-opacity: 1; pointer-events: visible;" class="DimensionMark"><polygon points="-5,-5,0,0,5,-5"/></g><g id="mark4" fill="#000000" stroke="none" transform="matrix(1,0,0,1,0,125.2365)" style="fill-opacity: 1; pointer-events: visible;" class="DimensionMark"><polygon points="5,5,0,0,5,-5"/></g></g><g transform="matrix(1,0,0,1,185.6884,140.6489)" class="SpaceDimensionsLabel"><g id="NameLabel" style="display: block;" class="TextLabel NameLabel"><text x="0" y="0em" fill="#000000" stroke="none" style="font-family: Verdana; font-size: 33px; fill-opacity: 1; cursor: default;">MH</text></g><g id="DimensionMeasureLabel" transform="matrix(1,0,0,1,-113.6875,79.4062)" style="display: none;" class="TextLabel DimensionMeasureLabel"><text x="42.1796875" y="-1.2em" fill="#000000" stroke="none" style="font-family: Verdana; font-size: 33px; fill-opacity: 1; cursor: default;">14'0" x 8'3"</text><text x="0" y="0em" fill="#000000" stroke="none" style="font-family: Verdana; font-size: 33px; fill-opacity: 1; cursor: default;">4.28 m x 2.50 m</text></g></g></g></g><g id="cbf4ecd9-1ac7-452f-84f8-8536a9974f7a" fill="#ffffff" stroke="#ffffff" style="fill-opacity: 1; stroke-opacity: 1; stroke-width: 0.2;" class="Space Kitchen"><polygon points="455.90,883.37 130.96,883.37 130.96,644.91 161.99,644.91 161.99,627.84 455.90,627.84 "/><g transform="matrix(1,0,0,1,130.9597,627.8422)" class="Dimension"><g transform="matrix(1,0,0,1,0,0)" style="display: none;" class="Visual"><g id="mark1" fill="#000000" stroke="none" transform="matrix(1,0,0,1,162.4713,0)" style="fill-opacity: 1; pointer-events: visible;" class="DimensionMark"><polygon points="-5,5,0,0,5,5"/></g><g id="mark2" fill="#000000" stroke="none" transform="matrix(1,0,0,1,324.9426,127.7647)" style="fill-opacity: 1; pointer-events: visible;" class="DimensionMark"><polygon points="-5,-5,0,0,-5,5"/></g><g id="mark3" fill="#000000" stroke="none" transform="matrix(1,0,0,1,162.4713,255.5293)" style="fill-opacity: 1; pointer-events: visible;" class="DimensionMark"><polygon points="-5,-5,0,0,5,-5"/></g><g id="mark4" fill="#000000" stroke="none" transform="matrix(1,0,0,1,0,127.7647)" style="fill-opacity: 1; pointer-events: visible;" class="DimensionMark"><polygon points="5,5,0,0,5,-5"/></g></g><g transform="matrix(1,0,0,1,126.4803,112.3523)" class="SpaceDimensionsLabel"><g id="NameLabel" style="display: block;" class="TextLabel NameLabel"><text x="0" y="0em" fill="#000000" stroke="none" style="font-family: Verdana; font-size: 33px; fill-opacity: 1; cursor: default;">K</text></g><g id="DimensionMeasureLabel" transform="matrix(1,0,0,1,-128.4297,79.4062)" style="display: none;" class="TextLabel DimensionMeasureLabel"><text x="42.1796875" y="-1.2em" fill="#000000" stroke="none" style="font-family: Verdana; font-size: 33px; fill-opacity: 1; cursor: default;">10'8" x 8'5"</text><text x="0" y="0em" fill="#000000" stroke="none" style="font-family: Verdana; font-size: 33px; fill-opacity: 1; cursor: default;">3.25 m x 2.56 m</text></g></g></g></g><g id="d382868d-9474-4c14-a3c8-13473b754347" fill="#ffffff" stroke="#ffffff" style="fill-opacity: 1; stroke-opacity: 1; stroke-width: 0.2;" class="Space Undefined"><polygon points="673.82,467.97 567.85,467.97 567.85,286.33 673.82,286.33 "/><g transform="matrix(1,0,0,1,567.8484,286.3336)" class="Dimension"><g transform="matrix(1,0,0,1,0,0)" style="display: none;" class="Visual"><g id="mark1" fill="#000000" stroke="none" transform="matrix(1,0,0,1,52.9837,0)" style="fill-opacity: 1; pointer-events: visible;" class="DimensionMark"><polygon points="-5,5,0,0,5,5"/></g><g id="mark2" fill="#000000" stroke="none" transform="matrix(1,0,0,1,105.9674,90.8203)" style="fill-opacity: 1; pointer-events: visible;" class="DimensionMark"><polygon points="-5,-5,0,0,-5,5"/></g><g id="mark3" fill="#000000" stroke="none" transform="matrix(1,0,0,1,52.9837,181.6405)" style="fill-opacity: 1; pointer-events: visible;" class="DimensionMark"><polygon points="-5,-5,0,0,5,-5"/></g><g id="mark4" fill="#000000" stroke="none" transform="matrix(1,0,0,1,0,90.8203)" style="fill-opacity: 1; pointer-events: visible;" class="DimensionMark"><polygon points="5,5,0,0,5,-5"/></g></g><g transform="matrix(1,0,0,1,10.5998,160.8699)" class="SpaceDimensionsLabel"><g id="NameLabel" style="display: block;" class="TextLabel NameLabel"><text x="0" y="0em" fill="#000000" stroke="none" style="font-family: Verdana; font-size: 33px; fill-opacity: 1; cursor: default;">UNDEFINED</text></g><g id="DimensionMeasureLabel" transform="matrix(1,0,0,1,-106.211,79.4062)" style="display: none;" class="TextLabel DimensionMeasureLabel"><text x="52.6640625" y="-1.2em" fill="#000000" stroke="none" style="font-family: Verdana; font-size: 33px; fill-opacity: 1; cursor: default;">3'6" x 6'0"</text><text x="0" y="0em" fill="#000000" stroke="none" style="font-family: Verdana; font-size: 33px; fill-opacity: 1; cursor: default;">1.06 m x 1.82 m</text></g></g></g></g><g id="8be1b62e-5096-490c-af23-2598c8ac8a10" fill="#ffffff" stroke="#ffffff" style="fill-opacity: 1; stroke-opacity: 1; stroke-width: 0.2;" class="Space Closet WalkIn"><polygon points="673.82,255.20 567.85,255.20 567.85,129.27 673.82,129.27 "/><g transform="matrix(1,0,0,1,567.8484,129.2689)" class="Dimension"><g transform="matrix(1,0,0,1,0,0)" style="display: none;" class="Visual"><g id="mark1" fill="#000000" stroke="none" transform="matrix(1,0,0,1,52.9837,0)" style="fill-opacity: 1; pointer-events: visible;" class="DimensionMark"><polygon points="-5,5,0,0,5,5"/></g><g id="mark2" fill="#000000" stroke="none" transform="matrix(1,0,0,1,105.9674,62.9648)" style="fill-opacity: 1; pointer-events: visible;" class="DimensionMark"><polygon points="-5,-5,0,0,-5,5"/></g><g id="mark3" fill="#000000" stroke="none" transform="matrix(1,0,0,1,52.9837,125.9296)" style="fill-opacity: 1; pointer-events: visible;" class="DimensionMark"><polygon points="-5,-5,0,0,5,-5"/></g><g id="mark4" fill="#000000" stroke="none" transform="matrix(1,0,0,1,0,62.9648)" style="fill-opacity: 1; pointer-events: visible;" class="DimensionMark"><polygon points="5,5,0,0,5,-5"/></g></g><g transform="matrix(1,0,0,1,27.2965,75.8084)" class="SpaceDimensionsLabel"><g id="NameLabel" style="display: block;" class="TextLabel NameLabel"><text x="0" y="0em" fill="#000000" stroke="none" style="font-family: Verdana; font-size: 33px; fill-opacity: 1; cursor: default;">VH</text></g><g id="DimensionMeasureLabel" transform="matrix(1,0,0,1,-116.3125,79.4062)" style="display: none;" class="TextLabel DimensionMeasureLabel"><text x="52.6640625" y="-1.2em" fill="#000000" stroke="none" style="font-family: Verdana; font-size: 33px; fill-opacity: 1; cursor: default;">3'6" x 4'2"</text><text x="0" y="0em" fill="#000000" stroke="none" style="font-family: Verdana; font-size: 33px; fill-opacity: 1; cursor: default;">1.06 m x 1.26 m</text></g></g></g></g><g id="Wall" fill="#000000" stroke="#000000" style="fill-opacity: 1; stroke-opacity: 1; stroke-width: 0.2;" class="Wall External"><polygon points="110.96,89.27 1018.05,89.27 1000.05,129.27 130.96,129.27 "/></g><g id="Wall" fill="#000000" stroke="#000000" style="fill-opacity: 1; stroke-opacity: 1; stroke-width: 0.2;" class="Wall External"><polygon points="1018.05,89.27 1018.05,644.42 1000.05,628.42 1000.05,129.27 "/><g id="Door" fill="#ffffff" stroke="#000000" style="fill-opacity: 1; stroke-width: 1; stroke-opacity: 1;" class="Door Swing Opposite"><polygon points="1018.05,536.04 1018.05,609.40 1000.05,609.40 1000.05,536.04 "/><g id="Threshold" class="Threshold"><polygon points="1018.05,536.04 1018.05,609.40 1000.05,609.40 1000.05,536.04 "/></g><g id="Panel" fill="none" style="" class="Panel Left Negative"><g id="PanelArea" fill="none" stroke="none" style="" class="PanelArea"><polygon points="1018.05,536.04 1018.05,609.40 1000.05,609.40 1000.05,536.04 "/></g><path d="M1018.05,536.04 q73.36,0.00 73.36,73.36 l-73.36,0.00Z"/></g><g id="Panel" fill="none" style="" class="Panel Right Positive"><g id="PanelArea" fill="none" stroke="none" style="" class="PanelArea"><polygon points="1018.05,536.04 1018.05,609.40 1000.05,609.40 1000.05,536.04 "/></g><path d="M1000.05,536.04 q-73.36,0.00 -73.36,73.36 l73.36,0.00Z"/></g></g><g id="Window" fill="#f0f0ff" stroke="#000000" style="fill-opacity: 1; stroke-width: 1; stroke-opacity: 1;" class="Window Regular"><polygon points="1018.05,218.53 1018.05,529.47 1000.05,529.47 1000.05,218.53 "/><g id="Glass" class="Glass"><polygon points="1018.05,218.53 1018.05,529.47 1000.05,529.47 1000.05,218.53 "/></g><g id="Panel" class="Panel"><line x1="1009.0548400000331" x2="1009.0548400000331" y1="226.02882565110906" y2="521.97205300105"/><line x1="1018.0548400000331" x2="1000.0548400000331" y1="226.02882565110906" y2="226.02882565110906"/><line x1="1018.0548400000331" x2="1000.0548400000331" y1="521.97205300105" y2="521.97205300105"/></g></g></g><g id="Wall" fill="#000000" stroke="#000000" style="fill-opacity: 1; stroke-opacity: 1; stroke-width: 0.2;" class="Wall External"><polygon points="1018.05,644.42 600.46,644.42 584.46,628.42 1000.05,628.42 "/></g><g id="Wall" fill="#000000" stroke="#000000" style="fill-opacity: 1; stroke-opacity: 1; stroke-width: 0.2;" class="Wall External"><polygon points="584.46,628.42 584.46,883.37 600.46,901.18 600.46,644.42 "/></g><g id="Wall" fill="#000000" stroke="#000000" style="fill-opacity: 1; stroke-opacity: 1; stroke-width: 0.2;" class="Wall External"><polygon points="600.46,901.18 110.96,901.18 130.96,883.37 584.46,883.37 "/><g id="Door" fill="#ffffff" stroke="#000000" style="fill-opacity: 1; stroke-width: 1; stroke-opacity: 1;" class="Door Swing Opposite"><polygon points="581.66,901.18 501.48,901.18 501.48,883.37 581.66,883.37 "/><g id="Threshold" class="Threshold"><polygon points="581.66,901.18 501.48,901.18 501.48,883.37 581.66,883.37 "/></g><g id="Panel" fill="none" style="" class="Panel Right Negative"><g id="PanelArea" fill="none" stroke="none" style="" class="PanelArea"><polygon points="581.66,901.18 501.48,901.18 501.48,883.37 581.66,883.37 "/></g><path d="M501.48,901.18 q0.00,80.18 80.18,80.18 l0.00,-80.18Z"/></g><g id="Panel" fill="none" style="" class="Panel Left Positive"><g id="PanelArea" fill="none" stroke="none" style="" class="PanelArea"><polygon points="581.66,901.18 501.48,901.18 501.48,883.37 581.66,883.37 "/></g><path d="M501.48,883.37 q0.00,-80.18 80.18,-80.18 l0.00,80.18Z"/></g></g></g><g id="Wall" fill="#000000" stroke="#000000" style="fill-opacity: 1; stroke-opacity: 1; stroke-width: 0.2;" class="Wall External"><polygon points="110.96,901.18 110.96,89.27 130.96,129.27 130.96,883.37 "/><g id="Window" fill="#f0f0ff" stroke="#000000" style="fill-opacity: 1; stroke-width: 1; stroke-opacity: 1;" class="Window Regular"><polygon points="110.96,823.59 110.96,647.75 130.96,647.75 130.96,823.59 "/><g id="Glass" class="Glass"><polygon points="110.96,823.59 110.96,647.75 130.96,647.75 130.96,823.59 "/></g><g id="Panel" class="Panel"><line x1="120.95967586492907" x2="120.95967586492905" y1="816.0946373992288" y2="655.2454781212373"/><line x1="110.95967586492905" x2="130.95967586492907" y1="816.0946373992288" y2="816.0946373992288"/><line x1="110.95967586492904" x2="130.95967586492904" y1="655.2454781212373" y2="655.2454781212373"/></g></g><g id="Window" fill="#f0f0ff" stroke="#000000" style="fill-opacity: 1; stroke-width: 1; stroke-opacity: 1;" class="Window Regular"><polygon points="110.96,613.65 110.96,393.67 130.96,393.67 130.96,613.65 "/><g id="Glass" class="Glass"><polygon points="110.96,613.65 110.96,393.67 130.96,393.67 130.96,613.65 "/></g><g id="Panel" class="Panel"><line x1="120.95967586492904" x2="120.95967586492901" y1="606.1454306320054" y2="401.16682453900455"/><line x1="110.95967586492904" x2="130.95967586492904" y1="606.1454306320054" y2="606.1454306320054"/><line x1="110.95967586492901" x2="130.959675864929" y1="401.16682453900455" y2="401.16682453900455"/></g></g><g id="Window" fill="#f0f0ff" stroke="#000000" style="fill-opacity: 1; stroke-width: 1; stroke-opacity: 1;" class="Window Regular"><polygon points="110.96,364.25 110.96,132.23 130.96,132.23 130.96,364.25 "/><g id="Glass" class="Glass"><polygon points="110.96,364.25 110.96,132.23 130.96,132.23 130.96,364.25 "/></g><g id="Panel" class="Panel"><line x1="120.95967586492901" x2="120.95967586492898" y1="356.74719332899826" y2="139.73328355917693"/><line x1="110.959675864929" x2="130.959675864929" y1="356.74719332899826" y2="356.74719332899826"/><line x1="110.95967586492897" x2="130.95967586492895" y1="139.73328355917693" y2="139.73328355917693"/></g></g></g><g id="Wall" fill="#000000" stroke="#000000" style="fill-opacity: 1; stroke-opacity: 1; stroke-width: 0.2;" class="Wall"><polygon points="464.99,901.18 464.99,620.98 455.90,620.98 455.90,901.18 "/><g id="Door" fill="#ffffff" stroke="#000000" style="fill-opacity: 1; stroke-width: 1; stroke-opacity: 1;" class="Door Swing Beside"><polygon points="464.99,815.80 464.99,749.65 455.90,749.65 455.90,815.80 "/><g id="Threshold" class="Threshold"><polygon points="464.99,815.80 464.99,749.65 455.90,749.65 455.90,815.80 "/></g><g id="Panel" fill="none" style="" class="Panel Right Negative"><g id="PanelArea" fill="none" stroke="none" style="" class="PanelArea"><polygon points="464.99,815.80 464.99,749.65 455.90,749.65 455.90,815.80 "/></g><path d="M464.99,749.65 q66.15,0.00 66.15,66.15 l-66.15,0.00Z"/></g></g></g><g id="Wall" fill="#000000" stroke="#000000" style="fill-opacity: 1; stroke-opacity: 1; stroke-width: 0.2;" class="Wall"><polygon points="455.90,620.98 161.99,620.98 161.99,627.84 455.90,627.84 "/><g id="Door" fill="#ffffff" stroke="#000000" style="fill-opacity: 1; stroke-width: 1; stroke-opacity: 1;" class="Door Swing Beside"><polygon points="448.86,620.98 398.31,620.98 398.31,627.84 448.86,627.84 "/><g id="Threshold" class="Threshold"><polygon points="448.86,620.98 398.31,620.98 398.31,627.84 448.86,627.84 "/></g><g id="Panel" fill="none" style="" class="Panel Right Negative"><g id="PanelArea" fill="none" stroke="none" style="" class="PanelArea"><polygon points="448.86,620.98 398.31,620.98 398.31,627.84 448.86,627.84 "/></g><path d="M398.31,620.98 q0.00,-50.55 50.55,-50.55 l0.00,50.55Z"/></g></g></g><g id="Wall" fill="#000000" stroke="#000000" style="fill-opacity: 1; stroke-opacity: 1; stroke-width: 0.2;" class="Wall"><polygon points="161.99,620.98 110.96,620.98 110.96,644.91 161.99,644.91 "/></g><g id="Wall" fill="#000000" stroke="#000000" style="fill-opacity: 1; stroke-opacity: 1; stroke-width: 0.2;" class="Wall"><polygon points="464.99,620.98 464.99,388.74 455.99,379.74 455.99,620.98 "/><g id="Door" fill="#ffffff" stroke="#000000" style="fill-opacity: 1; stroke-width: 1; stroke-opacity: 1;" class="Door Swing Beside"><polygon points="464.99,612.94 464.99,542.34 455.99,542.34 455.99,612.94 "/><g id="Threshold" class="Threshold"><polygon points="464.99,612.94 464.99,542.34 455.99,542.34 455.99,612.94 "/></g><g id="Panel" fill="none" style="" class="Panel Left Negative"><g id="PanelArea" fill="none" stroke="none" style="" class="PanelArea"><polygon points="464.99,612.94 464.99,542.34 455.99,542.34 455.99,612.94 "/></g><path d="M464.99,612.94 q70.60,0.00 70.60,-70.60 l-70.60,0.00Z"/></g></g></g><g id="Wall" fill="#000000" stroke="#000000" style="fill-opacity: 1; stroke-opacity: 1; stroke-width: 0.2;" class="Wall"><polygon points="464.99,379.74 110.96,379.74 110.96,388.74 464.99,388.74 "/></g><g id="Wall" fill="#000000" stroke="#000000" style="fill-opacity: 1; stroke-opacity: 1; stroke-width: 0.2;" class="Wall"><polygon points="455.99,379.74 567.85,379.74 558.85,388.74 464.99,388.74 "/><g id="Door" fill="#ffffff" stroke="#000000" style="fill-opacity: 1; stroke-width: 1; stroke-opacity: 1;" class="Door Swing Beside"><polygon points="476.19,379.74 552.09,379.74 552.09,388.74 476.19,388.74 "/><g id="Threshold" class="Threshold"><polygon points="476.19,379.74 552.09,379.74 552.09,388.74 476.19,388.74 "/></g><g id="Panel" fill="none" style="" class="Panel Left Negative"><g id="PanelArea" fill="none" stroke="none" style="" class="PanelArea"><polygon points="476.19,379.74 552.09,379.74 552.09,388.74 476.19,388.74 "/></g><path d="M476.19,379.74 q0.00,-75.90 75.90,-75.90 l0.00,75.90Z"/></g></g></g><g id="Wall" fill="#000000" stroke="#000000" style="fill-opacity: 1; stroke-opacity: 1; stroke-width: 0.2;" class="Wall"><polygon points="567.85,388.74 567.85,89.27 558.85,89.27 558.85,388.74 "/><g id="Door" fill="#ffffff" stroke="#000000" style="fill-opacity: 1; stroke-width: 1; stroke-opacity: 1;" class="Door Swing Beside"><polygon points="567.85,227.49 567.85,165.40 558.85,165.40 558.85,227.49 "/><g id="Threshold" class="Threshold"><polygon points="567.85,227.49 567.85,165.40 558.85,165.40 558.85,227.49 "/></g><g id="Panel" fill="none" style="" class="Panel Right Positive"><g id="PanelArea" fill="none" stroke="none" style="" class="PanelArea"><polygon points="567.85,227.49 567.85,165.40 558.85,165.40 558.85,227.49 "/></g><path d="M558.85,227.49 q-62.09,0.00 -62.09,-62.09 l62.09,0.00Z"/></g></g></g><g id="Wall" fill="#000000" stroke="#000000" style="fill-opacity: 1; stroke-opacity: 1; stroke-width: 0.2;" class="Wall"><polygon points="567.85,379.74 567.85,517.01 558.85,517.01 558.85,388.74 "/><g id="Door" fill="#ffffff" stroke="#000000" style="fill-opacity: 1; stroke-width: 1; stroke-opacity: 1;" class="Door Swing Beside"><polygon points="567.85,396.15 567.85,463.47 558.85,463.47 558.85,396.15 "/><g id="Threshold" class="Threshold"><polygon points="567.85,396.15 567.85,463.47 558.85,463.47 558.85,396.15 "/></g><g id="Panel" fill="none" style="" class="Panel Left Positive"><g id="PanelArea" fill="none" stroke="none" style="" class="PanelArea"><polygon points="567.85,396.15 567.85,463.47 558.85,463.47 558.85,396.15 "/></g><path d="M558.85,463.47 q-67.32,0.00 -67.32,-67.32 l67.32,0.00Z"/></g></g></g><g id="Wall" fill="#000000" stroke="#000000" style="fill-opacity: 1; stroke-opacity: 1; stroke-width: 0.2;" class="Wall"><polygon points="673.82,286.33 558.85,286.33 558.85,255.20 681.82,255.20 "/></g><g id="Wall" fill="#000000" stroke="#000000" style="fill-opacity: 1; stroke-opacity: 1; stroke-width: 0.2;" class="Wall"><polygon points="681.82,286.33 681.82,89.27 673.82,89.27 673.82,286.33 "/></g><g id="Wall" fill="#000000" stroke="#000000" style="fill-opacity: 1; stroke-opacity: 1; stroke-width: 0.2;" class="Wall"><polygon points="681.82,255.20 681.82,515.26 673.82,515.26 673.82,286.33 "/></g><g id="Wall" fill="#000000" stroke="#000000" style="fill-opacity: 1; stroke-opacity: 1; stroke-width: 0.2;" class="Wall"><polygon points="681.82,475.97 558.85,475.97 558.85,467.97 681.82,467.97 "/></g><g class="FixedFurniture Toilet" fill="#ffffff" stroke="#000000" transform="matrix(1,0,0,1,576.2578,286.3336)" style="fill-opacity: 1; stroke-opacity: 1;">
	   <g class="BoundaryPolygon" fill="none" stroke="none"> 
            <polygon points="0,0 41,0 41,71 0,71"/>
		</g>
        <g class="InnerPolygon">
            <rect x="0.502" y="0.5" width="39.989" height="17.98"/>
            <path d="M40.491,44.237S41.619,70.5,20.907,70.5C-.523,70.5.6,44.237.6,44.237L.5,18.48H40.491Z"/>
            <rect x="17.318" y="7.975" width="6.357" height="3.03"/>
        </g>
        <desc>Width:41 Height:85 Depth:71 Elevation:0</desc>
    </g><g class="FixedFurniture Shower" fill="#ffffff" stroke="#000000" transform="matrix(1,0,0,1,633.3485,286.3336)" style="fill-opacity: 1; stroke-opacity: 1;"> 
	    <g class="BoundaryPolygon" fill="none" stroke="none">
            <polygon points="0,0 32,0 32,19 0,19"/>
        </g>
        <g class="InnerPolygon"> 
			<rect x="3.7" y="0.5" width="11.2" height="6.1"/>
			<rect x="17.6" y="0.5" width="11.2" height="6.1"/>
			<rect x="28.7" y="0.5" width="3.4" height="6.1"/>
			<rect x="0.5" y="0.5" width="3.2" height="6.1"/>
			<path d="M14.9,8.5c0,1.5-0.4,3.3-1.6,5    c-0.4,0.6-1,1.1-1.1,1.7c-0.2,1.1,0.3,2.8,2.5,3.2c0.5,0.1,1.3,0.1,1.6,0.1h-0.1c0.3,0,1.1,0,1.6-0.1c2.2-0.4,2.7-2.1,2.5-3.2    c-0.1-0.6-0.7-1.1-1.1-1.7c-1.2-1.7-1.6-3.5-1.6-5"/>
			<path d="M12.2,15.3c0.1,0.2,1.6,1.9,4.2,1.9 c2.4-0.1,3.7-1.7,3.9-1.9"/>
			<path d="M14.9,0.5h2.7v8c-0.9,0-1.8,0-2.7,0l0,0 C14.9,5.9,14.9,3.2,14.9,0.5z"/>
		</g>
	    <g class="Indicator"> 
			<path d="M3.7,3.6C5,3.1,5.2,3,5.2,3 c0,1.1,0,0,0,1.1C5.2,4.1,5.1,4.1,3.7,3.6"/>
			<path d="M28.7,3.6 C27.4,3.1,27.2,3,27.2,3c0,1.1,0,0,0,1.1C27.2,4.1,27.3,4.1,28.7,3.6"/>	
		</g>
        <desc>Width:32 Height:97 Depth:19 Elevation:135</desc>
	</g><g id="FixedFurnitureSet" transform="matrix(0,1,-1,0,673.6595,351.1828)" class="FixedFurnitureSet" fill="#ffffff" stroke="#000000" style="fill-opacity: 0.4; stroke-opacity: 0.4;"><g class="FixedFurniture BaseCabinet" fill="#ffffff" stroke="#000000" transform="matrix(1,0,0,1,0,0)" style="fill-opacity: 1; stroke-opacity: 1;">
        <g class="BoundaryPolygon">
            <polygon points="0.00,0.00 53.92,0.00 53.92,35.64 0.00,35.64 "/>
        </g>
        <g class="Direction" fill-opacity="0.9" style="display: none;">
            <polygon points="28.76,32.79 28.76,22.17 25.76,22.17 25.76,32.79 21.95,32.79 27.26,37.59 32.56,32.79 28.76,32.79 " fill="#444444"/>
        </g> 
        <g class="Name" fill-opacity="0.9" style="display: none;">
            <text transform="translate(3 12)" font-size="12" font-family="Verdana, Sans-Serif">CB</text>
        </g>
        <desc>Width:60 Height:5 Depth:60 Elevation:105</desc>
    </g><g class="FixedFurniture Sink" fill="#ffffff" stroke="#000000" transform="matrix(1,0,0,1,0,0)" style="fill-opacity: 1; stroke-opacity: 1;">
        <g class="BoundaryPolygon" fill="none" stroke="none">
        <polygon points="0.00,0.00 53.92,0.00 53.92,35.64 0.00,35.64 "/>
        </g>
        <g class="InnerPolygon">
            <polygon points="4.49,9.70 49.43,9.70 49.43,32.49 4.49,32.49 "/>
        </g>
        <g class="OuterDrain" stroke-width="0.8">
            <circle cx="26.95932768155664" cy="19.12855817571711" r="3.5"/>
        </g>
        <g class="InnerDrain" stroke-width="0.8">
            <circle cx="26.95932768155664" cy="19.12855817571711" r="2"/>
        </g>
        <g class="Faucet">
            <polygon points="24.26,2.97 30.26,2.97 30.26,16.97 24.26,16.97 "/>
        </g>
        <g class="Direction" fill-opacity="0.9" style="display: none;">
            <polygon points="28.76,32.79 28.76,22.17 25.76,22.17 25.76,32.79 21.95,32.79 27.26,37.59 32.56,32.79 28.76,32.79 " fill="#444444"/>
        </g> 
        <g class="Name" fill-opacity="0.9" style="display: none;">
            <text transform="translate(3 12)" font-size="12" font-family="Verdana, Sans-Serif">SINK</text>
        </g>
        <desc>Width:60 Height:90 Depth:60 Elevation:0</desc>
    </g></g><g class="FixedFurniture BaseCabinet" fill="#ffffff" stroke="#000000" transform="matrix(-1,0,0,-1,425.14,883.1997)" style="fill-opacity: 1; stroke-opacity: 1;">
        <g class="BoundaryPolygon">
            <polygon points="0.00,0.00 241.88,0.00 241.88,60.00 0.00,60.00 "/>
        </g>
        <g class="Direction" fill-opacity="0.9" style="display: none;">
            <polygon points="129.04,55.20 129.04,44.58 126.03,44.58 126.03,55.20 122.23,55.20 127.53,60.00 132.83,55.20 129.04,55.20 " fill="#444444"/>
        </g> 
        <g class="Name" fill-opacity="0.9" style="display: none;">
            <text transform="translate(3 12)" font-size="12" font-family="Verdana, Sans-Serif">CB</text>
        </g>
        <desc>Width:60 Height:90 Depth:60 Elevation:0</desc>
    </g><g id="Column" fill="#000000" stroke="none" style="fill-opacity: 1;" class="Column Rectangle"><polygon points="456.04,823.22 425.14,823.22 425.14,883.43 456.04,883.43 "/></g><g class="FixedFurniture DoubleSink" fill="#ffffff" stroke="#000000" transform="matrix(-1,0,0,-1,419.3156,883.0278)" style="fill-opacity: 1; stroke-opacity: 1;">
        <g class="BoundaryPolygon" fill="none" stroke="none">
            <polygon points="0,0 70,0 70,60 0,60"/>
        </g>
        <g class="InnerPolygonLeft">
            <polygon points="5 9.9 33.5 9.9 33.5 54.9 5 54.9"/>
        </g>
        <g class="InnerPolygonRight">
            <polygon points="36.5 10 65 10 65 55 36.5 55"/>
        </g>
        <g class="OuterDrain" stroke-width="0.8">
            <circle cx="19.7" cy="32.5" r="3.5"/>
            <circle cx="50.2" cy="32.5" r="3.5"/>
        </g>
        <g class="InnerDrain" stroke-width="0.8">
            <circle cx="19.7" cy="32.5" r="2"/>
            <circle cx="50.2" cy="32.5" r="2"/>
        </g>
        <g class="Faucet">
            <polygon points="32 4.9 38 4.9 38 18.9 32 18.9"/>
        </g>
        <g class="Direction" fill-opacity="0.9" style="display: none;">
            <polygon points="36.509 54.697 36.509 44.081 33.5 44.081 33.5 54.697 29.697 54.697 35 60 40.303 54.697 36.509 54.697" fill="#444444"/>
        </g> 
        <g class="Name" fill-opacity="0.9" style="display: none;">
            <text transform="translate(3 12)" font-size="12" font-family="Verdana, Sans-Serif">DSINK</text>
        </g>
        <desc>Width:70 Height:90 Depth:60 Elevation:0</desc>
    </g><g class="FixedFurniture ElectricalAppliance IntegratedStove" fill="#ffffff" stroke="#000000" transform="matrix(-1,0,0,-1,307.9606,883.2778)" style="fill-opacity: 1; stroke-opacity: 1;">
        <g class="BoundaryPolygon" fill="none" stroke="none">
            <polygon points="0.00,0.00 51.68,0.00 51.68,60.00 0.00,60.00 "/>
        </g>
        <g class="InnerPolygon">
            <polygon points="2.00,2.00 49.96,2.00 49.96,58.00 2.00,58.00 "/>
        </g>
        <g class="OuterCircle">
            <circle cx="13.782178997001507" cy="16" r="8"/>
            <circle cx="37.90099224175415" cy="16" r="8"/>
            <circle cx="13.782178997001507" cy="44" r="8"/>
            <circle cx="37.90099224175415" cy="44" r="8"/>
        </g>
        <g class="Direction" fill-opacity="0.9" style="display: none;">
            <polygon points="27.57,55.20 27.57,44.58 24.56,44.58 24.56,55.20 20.76,55.20 26.06,60.00 31.37,55.20 27.57,55.20 " fill="#444444"/>
        </g> 
        <g class="Name" fill-opacity="0.9" style="display: none;">
            <text transform="translate(3 12)" font-size="12" font-family="Verdana, Sans-Serif">INT_STOVE</text>
        </g>
        <desc>Width:60 Height:90 Depth:30 Elevation:0</desc>
    </g><g class="FixedFurniture CoatCloset" fill="#ffffff" stroke="#000000" transform="matrix(-1,0,0,-1,455.9022,682.5622)" style="fill-opacity: 1; stroke-opacity: 1;">
        <g class="BoundaryPolygon">
            <polygon points="0.00,0.00 95.61,0.00 95.61,54.21 0.00,54.21 "/>
        </g>
        <g class="Hanger" stroke="#9a9a9a" stroke-dasharray="5,5">
            <line x1="0" y1="27.104438525011368" x2="95.60964927770922" y2="27.104438525011368"/>
        </g>
        <g class="Direction" fill-opacity="0.9" style="display: none;">
            <polygon points="50.21,49.42 50.21,38.80 47.20,38.80 47.20,49.42 43.40,49.42 48.70,54.72 54.00,49.42 50.21,49.42 " fill="#444444"/>
        </g> 
        <g class="Name" fill-opacity="0.9" style="display: none;">
            <text transform="translate(3 12)" font-size="12" font-family="Verdana, Sans-Serif">CWH</text>
        </g>
        <desc>Width:60 Height:200 Depth:60 Elevation:0</desc>
     </g><g class="FixedFurniture Closet" fill="#ffffff" stroke="#000000" transform="matrix(1,0,0,1,416.9222,682.5622)" style="fill-opacity: 1; stroke-opacity: 1;">
        <g class="BoundaryPolygon">
            <polygon points="0.00,0.00 38.98,0.00 38.98,56.14 0.00,56.14 "/>
        </g>
        <g class="Direction" fill-opacity="0.9" style="display: none;">
            <polygon points="20.47,51.18 20.47,40.56 17.46,40.56 17.46,51.18 13.66,51.18 18.96,56.48 24.26,51.18 20.47,51.18 " fill="#444444"/>
        </g> 
        <g class="Name" fill-opacity="0.9" style="display: none;">
            <text transform="translate(3 12)" font-size="12" font-family="Verdana, Sans-Serif">CL</text>
        </g>
        <desc>Width:60 Height:200 Depth:60 Elevation:0</desc>
     </g><g class="FixedFurniture ElectricalAppliance Refrigerator" fill="#ffffff" stroke="#000000" transform="matrix(0.9428,0,0,0.9358,360.3542,682.6499)" style="fill-opacity: 1; stroke-opacity: 1;">
        <g class="BoundaryPolygon">
            <polygon points="0,0 60,0 60,60 0,60"/>
        </g>
        <g class="electricitySign" fill="none">
            <path d="M0,0,30,37.1v-18L60,56.3"/>
        </g>
        <g class="Doors">
            <rect y="56" width="60" height="4"/>
        </g>
        <g class="Direction" fill-opacity="0.9" style="display: none;">
            <polygon points="32.009 55.197 32.009 44.581 29 44.581 29 55.197 25.197 55.197 30.5 60 35.803 55.197 32.009 55.197" fill="#444444"/>
        </g> 
        <g class="Name" fill-opacity="0.9" style="display: none;">
            <text transform="translate(3 12)" font-size="12" font-family="Verdana, Sans-Serif">REF</text>
        </g>
        <desc>Width:60 Height:170 Depth:60 Elevation:0</desc>
    </g><g class="FixedFurniture WallCabinet" fill="#ffffff" stroke="#000000" transform="matrix(-1,0,0,-1,425.14,883.3716)" style="fill-opacity: 0.7; stroke-opacity: 1;">	
        <g class="BoundaryPolygon">
            <polygon points="0.00,0.00 118.72,0.00 118.72,32.84 0.00,32.84 "/>
        </g>
        <g class="Direction" fill-opacity="0.9" style="display: none;">
            <polygon points="63.34,27.58 63.34,16.97 60.33,16.97 60.33,27.58 56.52,27.58 61.83,32.39 67.13,27.58 63.34,27.58 " fill="#444444"/>
        </g> 
        <g class="Name" fill-opacity="0.9" style="display: none;">
            <text transform="translate(3 12)" font-size="12" font-family="Verdana, Sans-Serif">UC</text>
        </g>
        <desc>Width:60 Height:60 Depth:30 Elevation:140</desc>
    </g><g class="FixedFurniture WallCabinet" fill="#ffffff" stroke="#000000" transform="matrix(-1,0,0,-1,257.9731,883.2778)" style="fill-opacity: 0.7; stroke-opacity: 1;">	
        <g class="BoundaryPolygon">
            <polygon points="0.00,0.00 74.71,0.00 74.71,32.60 0.00,32.60 "/>
        </g>
        <g class="Direction" fill-opacity="0.9" style="display: none;">
            <polygon points="39.85,27.38 39.85,16.77 36.85,16.77 36.85,27.38 33.04,27.38 38.35,32.18 43.65,27.38 39.85,27.38 " fill="#444444"/>
        </g> 
        <g class="Name" fill-opacity="0.9" style="display: none;">
            <text transform="translate(3 12)" font-size="12" font-family="Verdana, Sans-Serif">UC</text>
        </g>
        <desc>Width:60 Height:60 Depth:30 Elevation:140</desc>
    </g><g class="FixedFurniture CoatRack" fill="#ffffff" stroke="#000000" transform="matrix(1,0,0,1,568.4158,475.974)" style="fill-opacity: 1; stroke-opacity: 1;">
	   <g class="BoundaryPolygon"> 
		    <polygon points="0.00,0.00 105.40,0.00 105.40,30.00 0.00,30.00 "/>
		</g>	
	    <g class="Bar" stroke-width="0.65"> 
		    <line x1="0" y1="4.2" x2="105.39920467729391" y2="4.2"/>
            <line x1="0" y1="7.9" x2="105.39920467729391" y2="7.9"/>
            <line x1="0" y1="11.5" x2="105.39920467729391" y2="11.5"/>
            <line x1="0" y1="15" x2="105.39920467729391" y2="15"/>
            <line x1="0" y1="18.6" x2="105.39920467729391" y2="18.6"/>
            <line x1="0" y1="22.2" x2="105.39920467729391" y2="22.2"/>
            <line x1="0" y1="25.9" x2="105.39920467729391" y2="25.9"/>
		</g>
        <g class="Direction" fill-opacity="0.9" style="display: none;">
            <polygon points="54.47,24.70 54.47,14.08 51.46,14.08 51.46,24.70 47.65,24.70 52.96,30.00 58.26,24.70 54.47,24.70 " fill="#444444"/>
        </g> 
        <g class="Name" fill-opacity="0.9" style="display: none;">
            <text transform="translate(3 12)" font-size="12" font-family="Verdana, Sans-Serif">COATRACK</text>
        </g>
        <desc>Width:90 Height:30 Depth:30 Elevation:160</desc>
	</g><g class="FixedFurniture Closet" fill="#ffffff" stroke="#000000" transform="matrix(-1,0,0,-1,673.6484,255.1985)" style="fill-opacity: 1; stroke-opacity: 1;">
        <g class="BoundaryPolygon">
            <polygon points="0.00,0.00 105.80,0.00 105.80,28.79 0.00,28.79 "/>
        </g>
        <g class="Direction" fill-opacity="0.9" style="display: none;">
            <polygon points="55.56,26.24 55.56,15.63 52.55,15.63 52.55,26.24 48.75,26.24 54.05,31.54 59.36,26.24 55.56,26.24 " fill="#444444"/>
        </g> 
        <g class="Name" fill-opacity="0.9" style="display: none;">
            <text transform="translate(3 12)" font-size="12" font-family="Verdana, Sans-Serif">CL</text>
        </g>
        <desc>Width:60 Height:200 Depth:60 Elevation:0</desc>
     </g><g class="FixedFurniture CoatCloset" fill="#ffffff" stroke="#000000" transform="matrix(1,0,0,1,567.8484,129.269)" style="fill-opacity: 1; stroke-opacity: 1;">
        <g class="BoundaryPolygon">
            <polygon points="0.00,0.00 106.10,0.00 106.10,32.76 0.00,32.76 "/>
        </g>
        <g class="Hanger" fill="#ffffff" stroke="#9a9a9a" stroke-dasharray="5,5">
            <line x1="0" y1="16.37766312151654" x2="106.09547324530848" y2="16.37766312151654"/>
        </g>
        <g class="Direction" fill-opacity="0.9" style="display: none;">
            <polygon points="54.38,29.76 54.38,19.15 51.37,19.15 51.37,29.76 47.57,29.76 52.87,35.06 58.18,29.76 54.38,29.76 " fill="#444444"/>
        </g> 
        <g class="Name" fill-opacity="0.9" style="display: none;">
            <text transform="translate(3 12)" font-size="12" font-family="Verdana, Sans-Serif">CWH</text>
        </g>
        <desc>Width:120 Height:200 Depth:60 Elevation:0</desc>
     </g><g class="FixedFurniture Closet" fill="#ffffff" stroke="#000000" transform="matrix(-1,0,0,-1,183.2631,883.3716)" style="fill-opacity: 1; stroke-opacity: 1;">
        <g class="BoundaryPolygon">
            <polygon points="0.00,0.00 52.10,0.00 52.10,60.00 0.00,60.00 "/>
        </g>
        <g class="Direction" fill-opacity="0.9" style="display: none;">
            <polygon points="27.36,54.70 27.36,44.08 24.35,44.08 24.35,54.70 20.55,54.70 25.85,60.00 31.16,54.70 27.36,54.70 " fill="#444444"/>
        </g> 
        <g class="Name" fill-opacity="0.9" style="display: none;">
            <text transform="translate(3 12)" font-size="12" font-family="Verdana, Sans-Serif">CL</text>
        </g>
        <desc>Width:60 Height:200 Depth:60 Elevation:0</desc>
     </g><g id="Wall" fill="#000000" stroke="#000000" style="fill-opacity: 1; stroke-opacity: 1; stroke-width: 0.2;" class="Wall"><polygon points="1018.05,89.27 1144.46,89.27 1129.46,104.27 1018.05,104.27 "/></g><g id="Wall" fill="#000000" stroke="#000000" style="fill-opacity: 1; stroke-opacity: 1; stroke-width: 0.2;" class="Wall"><polygon points="1144.46,89.27 1144.46,130.32 1129.46,130.32 1129.46,104.27 "/></g><g id="Wall" fill="#000000" stroke="#000000" style="fill-opacity: 1; stroke-opacity: 1; stroke-width: 0.2;" class="Wall"><polygon points="1018.05,644.42 1139.17,644.42 1139.17,616.42 1018.05,616.42 "/></g><g id="Railing" fill="#ffffff" stroke="#000000" style="fill-opacity: 1; stroke-opacity: 1; stroke-width: 0.2;" class="Railing"><polygon points="1134.16,130.32 1134.16,616.42 1139.16,616.42 1139.16,130.32 " style="stroke-dasharray: 0;"/></g><g fill="#0000ff" stroke="#0000ff" style="display: none;" class="SelectionControls"><g style="display: none;" class="rotateControl"><circle cx="844.476204670919" cy="314.9030128931822" r="5" style="stroke : none; fill-opacity: 0.5; cursor:crosshair"/></g><g style="display: none;" class="ResizeNControl"><circle cx="0" cy="0" r="5" style="stroke : none; fill-opacity: 0.5"/></g><g style="display: none;" class="ResizeNEControl"><circle cx="0" cy="0" r="5" style="stroke : none; fill-opacity: 0.5"/></g><g style="display: none;" class="ResizeEControl"><circle cx="0" cy="0" r="5" style="stroke : none; fill-opacity: 0.5"/></g><g style="display: none;" class="ResizeSEControl"><circle cx="0" cy="0" r="5" style="stroke : none; fill-opacity: 0.5"/></g><g style="display: none;" class="ResizeSControl"><circle cx="0" cy="0" r="5" style="stroke : none; fill-opacity: 0.5"/></g><g style="display: none;" class="ResizeSWControl"><circle cx="0" cy="0" r="5" style="stroke : none; fill-opacity: 0.5"/></g><g style="display: none;" class="ResizeWControl"><circle cx="0" cy="0" r="5" style="stroke : none; fill-opacity: 0.5"/></g><g style="display: none;" class="ResizeNWControl"><circle cx="0" cy="0" r="5" style="stroke : none; fill-opacity: 0.5"/></g><g style="display: none;" class="removeControl"><polygon style="stroke : none; fill-opacity: 0.1" points="819.10,344.90 869.85,344.90 869.85,384.72 819.10,384.72 "/></g><g style="display: none;" class="copyPasteControl"><polygon style="stroke : none; fill-opacity: 0.1"/></g><g style="display: none;" class="translateControl"><polygon style="stroke : none; fill-opacity: 0.1; cursor:move" points="819.10,344.90 869.85,344.90 869.85,384.72 819.10,384.72 "/></g></g><g fill="#0000ff" stroke="#0000ff" style="display: none;" class="SelectionControls"><polygon fill="none" stroke="#0000ff" style="" points="681.82,129.27 1000.05,129.27 1000.05,628.42 681.82,628.42 "/><g style="display: none;" class="rotateControl"><circle cx="840.9353115068565" cy="99.26893789318223" r="5" style="stroke : none; fill-opacity: 0.5; cursor:crosshair"/></g><g style="display: none;" class="ResizeNControl"><circle cx="0" cy="0" r="5" style="stroke : none; fill-opacity: 0.5"/></g><g style="display: none;" class="ResizeNEControl"><circle cx="0" cy="0" r="5" style="stroke : none; fill-opacity: 0.5"/></g><g style="display: none;" class="ResizeEControl"><circle cx="0" cy="0" r="5" style="stroke : none; fill-opacity: 0.5"/></g><g style="display: none;" class="ResizeSEControl"><circle cx="0" cy="0" r="5" style="stroke : none; fill-opacity: 0.5"/></g><g style="display: none;" class="ResizeSControl"><circle cx="0" cy="0" r="5" style="stroke : none; fill-opacity: 0.5"/></g><g style="display: none;" class="ResizeSWControl"><circle cx="0" cy="0" r="5" style="stroke : none; fill-opacity: 0.5"/></g><g style="display: none;" class="ResizeWControl"><circle cx="0" cy="0" r="5" style="stroke : none; fill-opacity: 0.5"/></g><g style="display: none;" class="ResizeNWControl"><circle cx="0" cy="0" r="5" style="stroke : none; fill-opacity: 0.5"/></g><g style="display: none;" class="removeControl"><polygon style="stroke : none; fill-opacity: 0.1"/></g><g style="display: none;" class="copyPasteControl"><polygon style="stroke : none; fill-opacity: 0.1"/></g><g style="display: none;" class="translateControl"><polygon style="stroke : none; fill-opacity: 0.1; cursor:move"/></g></g></g></g></g></svg>
