  0
SECTION
  2
HEADER
  9
$ACADVER
  1
AC1009
  9
$FILLMODE
 70
 0
  9
$SPLFRAME
 70
 1
  9
$EXTMIN
 10
0
 20
0
 30
0.0
  9
$EXTMAX
 10
41.6667
 20
41.6667
 30
0.0
  0
ENDSEC
  0
SECTION
  2
TABLES
  0
TABLE
  2
LAYER
 70
1
  0
LAYER
  2
0
 70
     0
 62
     7
  6
CONTINUOUS
  0
ENDTAB
  0
ENDSEC
  0
SECTION
  2
ENTITIES
  0
POLYLINE
  8
0
 62
     7
 66
     1
 10
0
 20
0
 30
0.0
 70
     1
 40
0
 41
0
  0
VERTEX
  8
0
 10
1.36415
 20
6.18674
 30
0.0
 40
0
 41
0
  0
VERTEX
  8
0
 10
4.74989
 20
6.18674
 30
0.0
 40
0
 41
0
  0
VERTEX
  8
0
 10
4.74989
 20
3.76758
 30
0.0
 40
0
 41
0
  0
VERTEX
  8
0
 10
1.36415
 20
3.76758
 30
0.0
 40
0
 41
0
  0
VERTEX
  8
0
 10
1.36415
 20
6.18674
 30
0.0
 40
0
 41
0
  0
SEQEND
 8
0
  0
POLYLINE
  8
0
 62
     7
 66
     1
 10
0
 20
0
 30
0.0
 70
     1
 40
0.15
 41
0.15
  0
VERTEX
  8
0
 10
1.36415
 20
6.18674
 30
0.0
 40
0.00208333
 41
0.00208333
  0
VERTEX
  8
0
 10
4.74989
 20
6.18674
 30
0.0
 40
0.00208333
 41
0.00208333
  0
VERTEX
  8
0
 10
4.74989
 20
3.76758
 30
0.0
 40
0.00208333
 41
0.00208333
  0
VERTEX
  8
0
 10
1.36415
 20
3.76758
 30
0.0
 40
0.00208333
 41
0.00208333
  0
VERTEX
  8
0
 10
1.36415
 20
6.18674
 30
0.0
 40
0.00208333
 41
0.00208333
  0
SEQEND
 8
0
  0
TEXT
  8
0
 62
     0
 10
2.92158
 20
4.91025
 30
0.0
 40
0.34375
  1
MH
 50
0
  0
POLYLINE
  8
0
 62
     7
 66
     1
 10
0
 20
0
 30
0.0
 70
     1
 40
0
 41
0
  0
VERTEX
  8
0
 10
10.6047
 20
9.14996
 30
0.0
 40
0
 41
0
  0
VERTEX
  8
0
 10
11.7652
 20
9.14996
 30
0.0
 40
0
 41
0
  0
VERTEX
  8
0
 10
11.7652
 20
8.87864
 30
0.0
 40
0
 41
0
  0
VERTEX
  8
0
 10
11.8142
 20
8.87864
 30
0.0
 40
0
 41
0
  0
VERTEX
  8
0
 10
11.8142
 20
3.81506
 30
0.0
 40
0
 41
0
  0
VERTEX
  8
0
 10
10.6047
 20
3.81506
 30
0.0
 40
0
 41
0
  0
VERTEX
  8
0
 10
10.6047
 20
9.14996
 30
0.0
 40
0
 41
0
  0
SEQEND
 8
0
  0
POLYLINE
  8
0
 62
     0
 66
     1
 10
0
 20
0
 30
0.0
 70
     1
 40
0.15
 41
0.15
  0
VERTEX
  8
0
 10
10.6047
 20
9.14996
 30
0.0
 40
0.00208333
 41
0.00208333
  0
VERTEX
  8
0
 10
11.7652
 20
9.14996
 30
0.0
 40
0.00208333
 41
0.00208333
  0
VERTEX
  8
0
 10
11.7652
 20
8.87864
 30
0.0
 40
0.00208333
 41
0.00208333
  0
VERTEX
  8
0
 10
11.8142
 20
8.87864
 30
0.0
 40
0.00208333
 41
0.00208333
  0
VERTEX
  8
0
 10
11.8142
 20
3.81506
 30
0.0
 40
0.00208333
 41
0.00208333
  0
VERTEX
  8
0
 10
10.6047
 20
3.81506
 30
0.0
 40
0.00208333
 41
0.00208333
  0
VERTEX
  8
0
 10
10.6047
 20
9.14996
 30
0.0
 40
0.00208333
 41
0.00208333
  0
SEQEND
 8
0
  0
TEXT
  8
0
 62
     0
 10
11.2094
 20
8.54526
 30
0.0
 40
0.34375
  1
ULK
 50
0
  0
TEXT
  8
0
 62
     0
 10
11.8871
 20
8.54526
 30
0.0
 40
0.34375
  1
O
 50
0
  0
TEXT
  8
0
 62
     0
 10
12.1494
 20
8.54526
 30
0.0
 40
0.34375
  1
TILA
 50
0
  0
POLYLINE
  8
0
 62
     7
 66
     1
 10
0
 20
0
 30
0.0
 70
     1
 40
0
 41
0
  0
VERTEX
  8
0
 10
5.82135
 20
4.85058
 30
0.0
 40
0
 41
0
  0
VERTEX
  8
0
 10
5.9151
 20
4.85058
 30
0.0
 40
0
 41
0
  0
VERTEX
  8
0
 10
5.9151
 20
5.2781
 30
0.0
 40
0
 41
0
  0
VERTEX
  8
0
 10
7.01893
 20
5.2781
 30
0.0
 40
0
 41
0
  0
VERTEX
  8
0
 10
7.01893
 20
4.86882
 30
0.0
 40
0
 41
0
  0
VERTEX
  8
0
 10
7.10226
 20
4.86882
 30
0.0
 40
0
 41
0
  0
VERTEX
  8
0
 10
7.10226
 20
3.69006
 30
0.0
 40
0
 41
0
  0
VERTEX
  8
0
 10
6.08811
 20
3.69006
 30
0.0
 40
0
 41
0
  0
VERTEX
  8
0
 10
6.08811
 20
1.03434
 30
0.0
 40
0
 41
0
  0
VERTEX
  8
0
 10
4.84364
 20
1.03434
 30
0.0
 40
0
 41
0
  0
VERTEX
  8
0
 10
4.84364
 20
6.18674
 30
0.0
 40
0
 41
0
  0
VERTEX
  8
0
 10
5.82135
 20
6.18674
 30
0.0
 40
0
 41
0
  0
VERTEX
  8
0
 10
5.82135
 20
4.85058
 30
0.0
 40
0
 41
0
  0
SEQEND
 8
0
  0
POLYLINE
  8
0
 62
     7
 66
     1
 10
0
 20
0
 30
0.0
 70
     1
 40
0.15
 41
0.15
  0
VERTEX
  8
0
 10
5.82135
 20
4.85058
 30
0.0
 40
0.00208333
 41
0.00208333
  0
VERTEX
  8
0
 10
5.9151
 20
4.85058
 30
0.0
 40
0.00208333
 41
0.00208333
  0
VERTEX
  8
0
 10
5.9151
 20
5.2781
 30
0.0
 40
0.00208333
 41
0.00208333
  0
VERTEX
  8
0
 10
7.01893
 20
5.2781
 30
0.0
 40
0.00208333
 41
0.00208333
  0
VERTEX
  8
0
 10
7.01893
 20
4.86882
 30
0.0
 40
0.00208333
 41
0.00208333
  0
VERTEX
  8
0
 10
7.10226
 20
4.86882
 30
0.0
 40
0.00208333
 41
0.00208333
  0
VERTEX
  8
0
 10
7.10226
 20
3.69006
 30
0.0
 40
0.00208333
 41
0.00208333
  0
VERTEX
  8
0
 10
6.08811
 20
3.69006
 30
0.0
 40
0.00208333
 41
0.00208333
  0
VERTEX
  8
0
 10
6.08811
 20
1.03434
 30
0.0
 40
0.00208333
 41
0.00208333
  0
VERTEX
  8
0
 10
4.84364
 20
1.03434
 30
0.0
 40
0.00208333
 41
0.00208333
  0
VERTEX
  8
0
 10
4.84364
 20
6.18674
 30
0.0
 40
0.00208333
 41
0.00208333
  0
VERTEX
  8
0
 10
5.82135
 20
6.18674
 30
0.0
 40
0.00208333
 41
0.00208333
  0
VERTEX
  8
0
 10
5.82135
 20
4.85058
 30
0.0
 40
0.00208333
 41
0.00208333
  0
SEQEND
 8
0
  0
TEXT
  8
0
 62
     0
 10
5.56271
 20
4.17958
 30
0.0
 40
0.34375
  1
UNDEFINED
 50
0
  0
POLYLINE
  8
0
 62
     7
 66
     1
 10
0
 20
0
 30
0.0
 70
     1
 40
0
 41
0
  0
VERTEX
  8
0
 10
7.10226
 20
8.88954
 30
0.0
 40
0
 41
0
  0
VERTEX
  8
0
 10
10.4172
 20
8.88954
 30
0.0
 40
0
 41
0
  0
VERTEX
  8
0
 10
10.4172
 20
3.69006
 30
0.0
 40
0
 41
0
  0
VERTEX
  8
0
 10
7.10226
 20
3.69006
 30
0.0
 40
0
 41
0
  0
VERTEX
  8
0
 10
7.10226
 20
8.88954
 30
0.0
 40
0
 41
0
  0
SEQEND
 8
0
  0
POLYLINE
  8
0
 62
     7
 66
     1
 10
0
 20
0
 30
0.0
 70
     1
 40
0.15
 41
0.15
  0
VERTEX
  8
0
 10
7.10226
 20
8.88954
 30
0.0
 40
0.00208333
 41
0.00208333
  0
VERTEX
  8
0
 10
10.4172
 20
8.88954
 30
0.0
 40
0.00208333
 41
0.00208333
  0
VERTEX
  8
0
 10
10.4172
 20
3.69006
 30
0.0
 40
0.00208333
 41
0.00208333
  0
VERTEX
  8
0
 10
7.10226
 20
3.69006
 30
0.0
 40
0.00208333
 41
0.00208333
  0
VERTEX
  8
0
 10
7.10226
 20
8.88954
 30
0.0
 40
0.00208333
 41
0.00208333
  0
SEQEND
 8
0
  0
TEXT
  8
0
 62
     0
 10
8.53231
 20
6.29556
 30
0.0
 40
0.34375
  1
OH
 50
0
  0
POLYLINE
  8
0
 62
     7
 66
     1
 10
0
 20
0
 30
0.0
 70
     1
 40
0
 41
0
  0
VERTEX
  8
0
 10
1.36415
 20
8.88954
 30
0.0
 40
0
 41
0
  0
VERTEX
  8
0
 10
5.82135
 20
8.88954
 30
0.0
 40
0
 41
0
  0
VERTEX
  8
0
 10
5.82135
 20
6.28049
 30
0.0
 40
0
 41
0
  0
VERTEX
  8
0
 10
1.36415
 20
6.28049
 30
0.0
 40
0
 41
0
  0
VERTEX
  8
0
 10
1.36415
 20
8.88954
 30
0.0
 40
0
 41
0
  0
SEQEND
 8
0
  0
POLYLINE
  8
0
 62
     7
 66
     1
 10
0
 20
0
 30
0.0
 70
     1
 40
0.15
 41
0.15
  0
VERTEX
  8
0
 10
1.36415
 20
8.88954
 30
0.0
 40
0.00208333
 41
0.00208333
  0
VERTEX
  8
0
 10
5.82135
 20
8.88954
 30
0.0
 40
0.00208333
 41
0.00208333
  0
VERTEX
  8
0
 10
5.82135
 20
6.28049
 30
0.0
 40
0.00208333
 41
0.00208333
  0
VERTEX
  8
0
 10
1.36415
 20
6.28049
 30
0.0
 40
0.00208333
 41
0.00208333
  0
VERTEX
  8
0
 10
1.36415
 20
8.88954
 30
0.0
 40
0.00208333
 41
0.00208333
  0
SEQEND
 8
0
  0
TEXT
  8
0
 62
     0
 10
3.29842
 20
7.42447
 30
0.0
 40
0.34375
  1
MH
 50
0
  0
POLYLINE
  8
0
 62
     7
 66
     1
 10
0
 20
0
 30
0.0
 70
     1
 40
0
 41
0
  0
VERTEX
  8
0
 10
4.74897
 20
1.03434
 30
0.0
 40
0
 41
0
  0
VERTEX
  8
0
 10
1.36415
 20
1.03434
 30
0.0
 40
0
 41
0
  0
VERTEX
  8
0
 10
1.36415
 20
3.51828
 30
0.0
 40
0
 41
0
  0
VERTEX
  8
0
 10
1.68739
 20
3.51828
 30
0.0
 40
0
 41
0
  0
VERTEX
  8
0
 10
1.68739
 20
3.69613
 30
0.0
 40
0
 41
0
  0
VERTEX
  8
0
 10
4.74897
 20
3.69613
 30
0.0
 40
0
 41
0
  0
VERTEX
  8
0
 10
4.74897
 20
1.03434
 30
0.0
 40
0
 41
0
  0
SEQEND
 8
0
  0
POLYLINE
  8
0
 62
     7
 66
     1
 10
0
 20
0
 30
0.0
 70
     1
 40
0.15
 41
0.15
  0
VERTEX
  8
0
 10
4.74897
 20
1.03434
 30
0.0
 40
0.00208333
 41
0.00208333
  0
VERTEX
  8
0
 10
1.36415
 20
1.03434
 30
0.0
 40
0.00208333
 41
0.00208333
  0
VERTEX
  8
0
 10
1.36415
 20
3.51828
 30
0.0
 40
0.00208333
 41
0.00208333
  0
VERTEX
  8
0
 10
1.68739
 20
3.51828
 30
0.0
 40
0.00208333
 41
0.00208333
  0
VERTEX
  8
0
 10
1.68739
 20
3.69613
 30
0.0
 40
0.00208333
 41
0.00208333
  0
VERTEX
  8
0
 10
4.74897
 20
3.69613
 30
0.0
 40
0.00208333
 41
0.00208333
  0
VERTEX
  8
0
 10
4.74897
 20
1.03434
 30
0.0
 40
0.00208333
 41
0.00208333
  0
SEQEND
 8
0
  0
TEXT
  8
0
 62
     0
 10
2.68167
 20
2.52575
 30
0.0
 40
0.34375
  1
K
 50
0
  0
POLYLINE
  8
0
 62
     7
 66
     1
 10
0
 20
0
 30
0.0
 70
     1
 40
0
 41
0
  0
VERTEX
  8
0
 10
5.9151
 20
7.25353
 30
0.0
 40
0
 41
0
  0
VERTEX
  8
0
 10
7.01893
 20
7.25353
 30
0.0
 40
0
 41
0
  0
VERTEX
  8
0
 10
7.01893
 20
5.36143
 30
0.0
 40
0
 41
0
  0
VERTEX
  8
0
 10
5.9151
 20
5.36143
 30
0.0
 40
0
 41
0
  0
VERTEX
  8
0
 10
5.9151
 20
7.25353
 30
0.0
 40
0
 41
0
  0
SEQEND
 8
0
  0
POLYLINE
  8
0
 62
     7
 66
     1
 10
0
 20
0
 30
0.0
 70
     1
 40
0.15
 41
0.15
  0
VERTEX
  8
0
 10
5.9151
 20
7.25353
 30
0.0
 40
0.00208333
 41
0.00208333
  0
VERTEX
  8
0
 10
7.01893
 20
7.25353
 30
0.0
 40
0.00208333
 41
0.00208333
  0
VERTEX
  8
0
 10
7.01893
 20
5.36143
 30
0.0
 40
0.00208333
 41
0.00208333
  0
VERTEX
  8
0
 10
5.9151
 20
5.36143
 30
0.0
 40
0.00208333
 41
0.00208333
  0
VERTEX
  8
0
 10
5.9151
 20
7.25353
 30
0.0
 40
0.00208333
 41
0.00208333
  0
SEQEND
 8
0
  0
TEXT
  8
0
 62
     0
 10
6.0255
 20
5.57774
 30
0.0
 40
0.34375
  1
UNDEFINED
 50
0
  0
POLYLINE
  8
0
 62
     7
 66
     1
 10
0
 20
0
 30
0.0
 70
     1
 40
0
 41
0
  0
VERTEX
  8
0
 10
5.9151
 20
8.88954
 30
0.0
 40
0
 41
0
  0
VERTEX
  8
0
 10
7.01893
 20
8.88954
 30
0.0
 40
0
 41
0
  0
VERTEX
  8
0
 10
7.01893
 20
7.57781
 30
0.0
 40
0
 41
0
  0
VERTEX
  8
0
 10
5.9151
 20
7.57781
 30
0.0
 40
0
 41
0
  0
VERTEX
  8
0
 10
5.9151
 20
8.88954
 30
0.0
 40
0
 41
0
  0
SEQEND
 8
0
  0
POLYLINE
  8
0
 62
     7
 66
     1
 10
0
 20
0
 30
0.0
 70
     1
 40
0.15
 41
0.15
  0
VERTEX
  8
0
 10
5.9151
 20
8.88954
 30
0.0
 40
0.00208333
 41
0.00208333
  0
VERTEX
  8
0
 10
7.01893
 20
8.88954
 30
0.0
 40
0.00208333
 41
0.00208333
  0
VERTEX
  8
0
 10
7.01893
 20
7.57781
 30
0.0
 40
0.00208333
 41
0.00208333
  0
VERTEX
  8
0
 10
5.9151
 20
7.57781
 30
0.0
 40
0.00208333
 41
0.00208333
  0
VERTEX
  8
0
 10
5.9151
 20
8.88954
 30
0.0
 40
0.00208333
 41
0.00208333
  0
SEQEND
 8
0
  0
TEXT
  8
0
 62
     0
 10
6.19943
 20
8.09989
 30
0.0
 40
0.34375
  1
VH
 50
0
  0
POLYLINE
  8
0
 62
     0
 66
     1
 10
0
 20
0
 30
0.0
 70
     1
 40
0
 41
0
  0
VERTEX
  8
0
 10
1.15582
 20
9.30621
 30
0.0
 40
0
 41
0
  0
VERTEX
  8
0
 10
10.6047
 20
9.30621
 30
0.0
 40
0
 41
0
  0
VERTEX
  8
0
 10
10.4172
 20
8.88954
 30
0.0
 40
0
 41
0
  0
VERTEX
  8
0
 10
1.36415
 20
8.88954
 30
0.0
 40
0
 41
0
  0
VERTEX
  8
0
 10
1.15582
 20
9.30621
 30
0.0
 40
0
 41
0
  0
SEQEND
 8
0
  0
POLYLINE
  8
0
 62
     0
 66
     1
 10
0
 20
0
 30
0.0
 70
     1
 40
0.15
 41
0.15
  0
VERTEX
  8
0
 10
1.15582
 20
9.30621
 30
0.0
 40
0.00208333
 41
0.00208333
  0
VERTEX
  8
0
 10
10.6047
 20
9.30621
 30
0.0
 40
0.00208333
 41
0.00208333
  0
VERTEX
  8
0
 10
10.4172
 20
8.88954
 30
0.0
 40
0.00208333
 41
0.00208333
  0
VERTEX
  8
0
 10
1.36415
 20
8.88954
 30
0.0
 40
0.00208333
 41
0.00208333
  0
VERTEX
  8
0
 10
1.15582
 20
9.30621
 30
0.0
 40
0.00208333
 41
0.00208333
  0
SEQEND
 8
0
  0
POLYLINE
  8
0
 62
     0
 66
     1
 10
0
 20
0
 30
0.0
 70
     1
 40
0
 41
0
  0
VERTEX
  8
0
 10
10.6047
 20
9.30621
 30
0.0
 40
0
 41
0
  0
VERTEX
  8
0
 10
10.6047
 20
3.52339
 30
0.0
 40
0
 41
0
  0
VERTEX
  8
0
 10
10.4172
 20
3.69006
 30
0.0
 40
0
 41
0
  0
VERTEX
  8
0
 10
10.4172
 20
8.88954
 30
0.0
 40
0
 41
0
  0
VERTEX
  8
0
 10
10.6047
 20
9.30621
 30
0.0
 40
0
 41
0
  0
SEQEND
 8
0
  0
POLYLINE
  8
0
 62
     0
 66
     1
 10
0
 20
0
 30
0.0
 70
     1
 40
0.15
 41
0.15
  0
VERTEX
  8
0
 10
10.6047
 20
9.30621
 30
0.0
 40
0.00208333
 41
0.00208333
  0
VERTEX
  8
0
 10
10.6047
 20
3.52339
 30
0.0
 40
0.00208333
 41
0.00208333
  0
VERTEX
  8
0
 10
10.4172
 20
3.69006
 30
0.0
 40
0.00208333
 41
0.00208333
  0
VERTEX
  8
0
 10
10.4172
 20
8.88954
 30
0.0
 40
0.00208333
 41
0.00208333
  0
VERTEX
  8
0
 10
10.6047
 20
9.30621
 30
0.0
 40
0.00208333
 41
0.00208333
  0
SEQEND
 8
0
  0
POLYLINE
  8
0
 62
     7
 66
     1
 10
0
 20
0
 30
0.0
 70
     1
 40
0
 41
0
  0
VERTEX
  8
0
 10
10.4172
 20
4.65235
 30
0.0
 40
0
 41
0
  0
VERTEX
  8
0
 10
10.6047
 20
4.65235
 30
0.0
 40
0
 41
0
  0
VERTEX
  8
0
 10
10.6047
 20
3.88818
 30
0.0
 40
0
 41
0
  0
VERTEX
  8
0
 10
10.4172
 20
3.88818
 30
0.0
 40
0
 41
0
  0
VERTEX
  8
0
 10
10.4172
 20
4.65235
 30
0.0
 40
0
 41
0
  0
SEQEND
 8
0
  0
POLYLINE
  8
0
 62
     0
 66
     1
 10
0
 20
0
 30
0.0
 70
     1
 40
0.75
 41
0.75
  0
VERTEX
  8
0
 10
10.4172
 20
4.65235
 30
0.0
 40
0.0104167
 41
0.0104167
  0
VERTEX
  8
0
 10
10.6047
 20
4.65235
 30
0.0
 40
0.0104167
 41
0.0104167
  0
VERTEX
  8
0
 10
10.6047
 20
3.88818
 30
0.0
 40
0.0104167
 41
0.0104167
  0
VERTEX
  8
0
 10
10.4172
 20
3.88818
 30
0.0
 40
0.0104167
 41
0.0104167
  0
VERTEX
  8
0
 10
10.4172
 20
4.65235
 30
0.0
 40
0.0104167
 41
0.0104167
  0
SEQEND
 8
0
  0
POLYLINE
  8
0
 62
     7
 66
     1
 10
0
 20
0
 30
0.0
 70
     1
 40
0
 41
0
  0
VERTEX
  8
0
 10
10.4172
 20
4.65235
 30
0.0
 40
0
 41
0
  0
VERTEX
  8
0
 10
10.6047
 20
4.65235
 30
0.0
 40
0
 41
0
  0
VERTEX
  8
0
 10
10.6047
 20
3.88818
 30
0.0
 40
0
 41
0
  0
VERTEX
  8
0
 10
10.4172
 20
3.88818
 30
0.0
 40
0
 41
0
  0
VERTEX
  8
0
 10
10.4172
 20
4.65235
 30
0.0
 40
0
 41
0
  0
SEQEND
 8
0
  0
POLYLINE
  8
0
 62
     0
 66
     1
 10
0
 20
0
 30
0.0
 70
     1
 40
0.75
 41
0.75
  0
VERTEX
  8
0
 10
10.4172
 20
4.65235
 30
0.0
 40
0.0104167
 41
0.0104167
  0
VERTEX
  8
0
 10
10.6047
 20
4.65235
 30
0.0
 40
0.0104167
 41
0.0104167
  0
VERTEX
  8
0
 10
10.6047
 20
3.88818
 30
0.0
 40
0.0104167
 41
0.0104167
  0
VERTEX
  8
0
 10
10.4172
 20
3.88818
 30
0.0
 40
0.0104167
 41
0.0104167
  0
VERTEX
  8
0
 10
10.4172
 20
4.65235
 30
0.0
 40
0.0104167
 41
0.0104167
  0
SEQEND
 8
0
  0
POLYLINE
  8
0
 62
     0
 66
     1
 10
0
 20
0
 30
0.0
 70
     1
 40
0.75
 41
0.75
  0
VERTEX
  8
0
 10
10.6047
 20
4.65235
 30
0.0
 40
0.0104167
 41
0.0104167
  0
VERTEX
  8
0
 10
10.6495
 20
4.65235
 30
0.0
 40
0.0104167
 41
0.0104167
  0
VERTEX
  8
0
 10
10.7838
 20
4.6404
 30
0.0
 40
0.0104167
 41
0.0104167
  0
VERTEX
  8
0
 10
10.939
 20
4.6046
 30
0.0
 40
0.0104167
 41
0.0104167
  0
VERTEX
  8
0
 10
11.0704
 20
4.54492
 30
0.0
 40
0.0104167
 41
0.0104167
  0
VERTEX
  8
0
 10
11.1778
 20
4.46132
 30
0.0
 40
0.0104167
 41
0.0104167
  0
VERTEX
  8
0
 10
11.2614
 20
4.35389
 30
0.0
 40
0.0104167
 41
0.0104167
  0
VERTEX
  8
0
 10
11.3211
 20
4.22254
 30
0.0
 40
0.0104167
 41
0.0104167
  0
VERTEX
  8
0
 10
11.3569
 20
4.06733
 30
0.0
 40
0.0104167
 41
0.0104167
  0
VERTEX
  8
0
 10
11.3689
 20
3.933
 30
0.0
 40
0.0104167
 41
0.0104167
  0
VERTEX
  8
0
 10
11.3689
 20
3.88818
 30
0.0
 40
0.0104167
 41
0.0104167
  0
VERTEX
  8
0
 10
10.6047
 20
3.88818
 30
0.0
 40
0.0104167
 41
0.0104167
  0
VERTEX
  8
0
 10
10.6047
 20
4.65235
 30
0.0
 40
0.0104167
 41
0.0104167
  0
SEQEND
 8
0
  0
POLYLINE
  8
0
 62
     0
 66
     1
 10
0
 20
0
 30
0.0
 70
     1
 40
0.75
 41
0.75
  0
VERTEX
  8
0
 10
10.4172
 20
4.65235
 30
0.0
 40
0.0104167
 41
0.0104167
  0
VERTEX
  8
0
 10
10.3724
 20
4.65235
 30
0.0
 40
0.0104167
 41
0.0104167
  0
VERTEX
  8
0
 10
10.2381
 20
4.6404
 30
0.0
 40
0.0104167
 41
0.0104167
  0
VERTEX
  8
0
 10
10.0828
 20
4.6046
 30
0.0
 40
0.0104167
 41
0.0104167
  0
VERTEX
  8
0
 10
9.9515
 20
4.54492
 30
0.0
 40
0.0104167
 41
0.0104167
  0
VERTEX
  8
0
 10
9.84403
 20
4.46132
 30
0.0
 40
0.0104167
 41
0.0104167
  0
VERTEX
  8
0
 10
9.76047
 20
4.35389
 30
0.0
 40
0.0104167
 41
0.0104167
  0
VERTEX
  8
0
 10
9.70074
 20
4.22254
 30
0.0
 40
0.0104167
 41
0.0104167
  0
VERTEX
  8
0
 10
9.66493
 20
4.06733
 30
0.0
 40
0.0104167
 41
0.0104167
  0
VERTEX
  8
0
 10
9.653
 20
3.933
 30
0.0
 40
0.0104167
 41
0.0104167
  0
VERTEX
  8
0
 10
9.653
 20
3.88818
 30
0.0
 40
0.0104167
 41
0.0104167
  0
VERTEX
  8
0
 10
10.4172
 20
3.88818
 30
0.0
 40
0.0104167
 41
0.0104167
  0
VERTEX
  8
0
 10
10.4172
 20
4.65235
 30
0.0
 40
0.0104167
 41
0.0104167
  0
SEQEND
 8
0
  0
POLYLINE
  8
0
 62
     7
 66
     1
 10
0
 20
0
 30
0.0
 70
     1
 40
0
 41
0
  0
VERTEX
  8
0
 10
10.4172
 20
7.95975
 30
0.0
 40
0
 41
0
  0
VERTEX
  8
0
 10
10.6047
 20
7.95975
 30
0.0
 40
0
 41
0
  0
VERTEX
  8
0
 10
10.6047
 20
4.72081
 30
0.0
 40
0
 41
0
  0
VERTEX
  8
0
 10
10.4172
 20
4.72081
 30
0.0
 40
0
 41
0
  0
VERTEX
  8
0
 10
10.4172
 20
7.95975
 30
0.0
 40
0
 41
0
  0
SEQEND
 8
0
  0
POLYLINE
  8
0
 62
     0
 66
     1
 10
0
 20
0
 30
0.0
 70
     1
 40
0.75
 41
0.75
  0
VERTEX
  8
0
 10
10.4172
 20
7.95975
 30
0.0
 40
0.0104167
 41
0.0104167
  0
VERTEX
  8
0
 10
10.6047
 20
7.95975
 30
0.0
 40
0.0104167
 41
0.0104167
  0
VERTEX
  8
0
 10
10.6047
 20
4.72081
 30
0.0
 40
0.0104167
 41
0.0104167
  0
VERTEX
  8
0
 10
10.4172
 20
4.72081
 30
0.0
 40
0.0104167
 41
0.0104167
  0
VERTEX
  8
0
 10
10.4172
 20
7.95975
 30
0.0
 40
0.0104167
 41
0.0104167
  0
SEQEND
 8
0
  0
POLYLINE
  8
0
 62
     7
 66
     1
 10
0
 20
0
 30
0.0
 70
     1
 40
0
 41
0
  0
VERTEX
  8
0
 10
10.4172
 20
7.95975
 30
0.0
 40
0
 41
0
  0
VERTEX
  8
0
 10
10.6047
 20
7.95975
 30
0.0
 40
0
 41
0
  0
VERTEX
  8
0
 10
10.6047
 20
4.72081
 30
0.0
 40
0
 41
0
  0
VERTEX
  8
0
 10
10.4172
 20
4.72081
 30
0.0
 40
0
 41
0
  0
VERTEX
  8
0
 10
10.4172
 20
7.95975
 30
0.0
 40
0
 41
0
  0
SEQEND
 8
0
  0
POLYLINE
  8
0
 62
     0
 66
     1
 10
0
 20
0
 30
0.0
 70
     1
 40
0.75
 41
0.75
  0
VERTEX
  8
0
 10
10.4172
 20
7.95975
 30
0.0
 40
0.0104167
 41
0.0104167
  0
VERTEX
  8
0
 10
10.6047
 20
7.95975
 30
0.0
 40
0.0104167
 41
0.0104167
  0
VERTEX
  8
0
 10
10.6047
 20
4.72081
 30
0.0
 40
0.0104167
 41
0.0104167
  0
VERTEX
  8
0
 10
10.4172
 20
4.72081
 30
0.0
 40
0.0104167
 41
0.0104167
  0
VERTEX
  8
0
 10
10.4172
 20
7.95975
 30
0.0
 40
0.0104167
 41
0.0104167
  0
SEQEND
 8
0
  0
POLYLINE
  8
0
 62
     0
 66
     1
 10
0
 20
0
 30
0.0
 40
0.75
 41
0.75
  0
VERTEX
  8
0
 10
10.511
 20
7.88162
 30
0.0
 40
0.0104167
 41
0.0104167
  0
VERTEX
  8
0
 10
10.511
 20
4.79889
 30
0.0
 40
0.0104167
 41
0.0104167
  0
SEQEND
 8
0
  0
POLYLINE
  8
0
 62
     0
 66
     1
 10
0
 20
0
 30
0.0
 40
0.75
 41
0.75
  0
VERTEX
  8
0
 10
10.6048
 20
7.88162
 30
0.0
 40
0.0104167
 41
0.0104167
  0
VERTEX
  8
0
 10
10.4173
 20
7.88162
 30
0.0
 40
0.0104167
 41
0.0104167
  0
SEQEND
 8
0
  0
POLYLINE
  8
0
 62
     0
 66
     1
 10
0
 20
0
 30
0.0
 40
0.75
 41
0.75
  0
VERTEX
  8
0
 10
10.6048
 20
4.79889
 30
0.0
 40
0.0104167
 41
0.0104167
  0
VERTEX
  8
0
 10
10.4173
 20
4.79889
 30
0.0
 40
0.0104167
 41
0.0104167
  0
SEQEND
 8
0
  0
POLYLINE
  8
0
 62
     0
 66
     1
 10
0
 20
0
 30
0.0
 70
     1
 40
0
 41
0
  0
VERTEX
  8
0
 10
10.6047
 20
3.52339
 30
0.0
 40
0
 41
0
  0
VERTEX
  8
0
 10
6.25478
 20
3.52339
 30
0.0
 40
0
 41
0
  0
VERTEX
  8
0
 10
6.08811
 20
3.69006
 30
0.0
 40
0
 41
0
  0
VERTEX
  8
0
 10
10.4172
 20
3.69006
 30
0.0
 40
0
 41
0
  0
VERTEX
  8
0
 10
10.6047
 20
3.52339
 30
0.0
 40
0
 41
0
  0
SEQEND
 8
0
  0
POLYLINE
  8
0
 62
     0
 66
     1
 10
0
 20
0
 30
0.0
 70
     1
 40
0.15
 41
0.15
  0
VERTEX
  8
0
 10
10.6047
 20
3.52339
 30
0.0
 40
0.00208333
 41
0.00208333
  0
VERTEX
  8
0
 10
6.25478
 20
3.52339
 30
0.0
 40
0.00208333
 41
0.00208333
  0
VERTEX
  8
0
 10
6.08811
 20
3.69006
 30
0.0
 40
0.00208333
 41
0.00208333
  0
VERTEX
  8
0
 10
10.4172
 20
3.69006
 30
0.0
 40
0.00208333
 41
0.00208333
  0
VERTEX
  8
0
 10
10.6047
 20
3.52339
 30
0.0
 40
0.00208333
 41
0.00208333
  0
SEQEND
 8
0
  0
POLYLINE
  8
0
 62
     0
 66
     1
 10
0
 20
0
 30
0.0
 70
     1
 40
0
 41
0
  0
VERTEX
  8
0
 10
6.08811
 20
3.69006
 30
0.0
 40
0
 41
0
  0
VERTEX
  8
0
 10
6.08811
 20
1.03434
 30
0.0
 40
0
 41
0
  0
VERTEX
  8
0
 10
6.25478
 20
0.848796
 30
0.0
 40
0
 41
0
  0
VERTEX
  8
0
 10
6.25478
 20
3.52339
 30
0.0
 40
0
 41
0
  0
VERTEX
  8
0
 10
6.08811
 20
3.69006
 30
0.0
 40
0
 41
0
  0
SEQEND
 8
0
  0
POLYLINE
  8
0
 62
     0
 66
     1
 10
0
 20
0
 30
0.0
 70
     1
 40
0.15
 41
0.15
  0
VERTEX
  8
0
 10
6.08811
 20
3.69006
 30
0.0
 40
0.00208333
 41
0.00208333
  0
VERTEX
  8
0
 10
6.08811
 20
1.03434
 30
0.0
 40
0.00208333
 41
0.00208333
  0
VERTEX
  8
0
 10
6.25478
 20
0.848796
 30
0.0
 40
0.00208333
 41
0.00208333
  0
VERTEX
  8
0
 10
6.25478
 20
3.52339
 30
0.0
 40
0.00208333
 41
0.00208333
  0
VERTEX
  8
0
 10
6.08811
 20
3.69006
 30
0.0
 40
0.00208333
 41
0.00208333
  0
SEQEND
 8
0
  0
POLYLINE
  8
0
 62
     0
 66
     1
 10
0
 20
0
 30
0.0
 70
     1
 40
0
 41
0
  0
VERTEX
  8
0
 10
6.25478
 20
0.848796
 30
0.0
 40
0
 41
0
  0
VERTEX
  8
0
 10
1.15582
 20
0.848796
 30
0.0
 40
0
 41
0
  0
VERTEX
  8
0
 10
1.36415
 20
1.03434
 30
0.0
 40
0
 41
0
  0
VERTEX
  8
0
 10
6.08811
 20
1.03434
 30
0.0
 40
0
 41
0
  0
VERTEX
  8
0
 10
6.25478
 20
0.848796
 30
0.0
 40
0
 41
0
  0
SEQEND
 8
0
  0
POLYLINE
  8
0
 62
     0
 66
     1
 10
0
 20
0
 30
0.0
 70
     1
 40
0.15
 41
0.15
  0
VERTEX
  8
0
 10
6.25478
 20
0.848796
 30
0.0
 40
0.00208333
 41
0.00208333
  0
VERTEX
  8
0
 10
1.15582
 20
0.848796
 30
0.0
 40
0.00208333
 41
0.00208333
  0
VERTEX
  8
0
 10
1.36415
 20
1.03434
 30
0.0
 40
0.00208333
 41
0.00208333
  0
VERTEX
  8
0
 10
6.08811
 20
1.03434
 30
0.0
 40
0.00208333
 41
0.00208333
  0
VERTEX
  8
0
 10
6.25478
 20
0.848796
 30
0.0
 40
0.00208333
 41
0.00208333
  0
SEQEND
 8
0
  0
POLYLINE
  8
0
 62
     7
 66
     1
 10
0
 20
0
 30
0.0
 70
     1
 40
0
 41
0
  0
VERTEX
  8
0
 10
5.22374
 20
1.03434
 30
0.0
 40
0
 41
0
  0
VERTEX
  8
0
 10
6.05897
 20
1.03434
 30
0.0
 40
0
 41
0
  0
VERTEX
  8
0
 10
6.05897
 20
0.848796
 30
0.0
 40
0
 41
0
  0
VERTEX
  8
0
 10
5.22374
 20
0.848796
 30
0.0
 40
0
 41
0
  0
VERTEX
  8
0
 10
5.22374
 20
1.03434
 30
0.0
 40
0
 41
0
  0
SEQEND
 8
0
  0
POLYLINE
  8
0
 62
     0
 66
     1
 10
0
 20
0
 30
0.0
 70
     1
 40
0.75
 41
0.75
  0
VERTEX
  8
0
 10
5.22374
 20
1.03434
 30
0.0
 40
0.0104167
 41
0.0104167
  0
VERTEX
  8
0
 10
6.05897
 20
1.03434
 30
0.0
 40
0.0104167
 41
0.0104167
  0
VERTEX
  8
0
 10
6.05897
 20
0.848796
 30
0.0
 40
0.0104167
 41
0.0104167
  0
VERTEX
  8
0
 10
5.22374
 20
0.848796
 30
0.0
 40
0.0104167
 41
0.0104167
  0
VERTEX
  8
0
 10
5.22374
 20
1.03434
 30
0.0
 40
0.0104167
 41
0.0104167
  0
SEQEND
 8
0
  0
POLYLINE
  8
0
 62
     7
 66
     1
 10
0
 20
0
 30
0.0
 70
     1
 40
0
 41
0
  0
VERTEX
  8
0
 10
5.22374
 20
1.03434
 30
0.0
 40
0
 41
0
  0
VERTEX
  8
0
 10
6.05897
 20
1.03434
 30
0.0
 40
0
 41
0
  0
VERTEX
  8
0
 10
6.05897
 20
0.848796
 30
0.0
 40
0
 41
0
  0
VERTEX
  8
0
 10
5.22374
 20
0.848796
 30
0.0
 40
0
 41
0
  0
VERTEX
  8
0
 10
5.22374
 20
1.03434
 30
0.0
 40
0
 41
0
  0
SEQEND
 8
0
  0
POLYLINE
  8
0
 62
     0
 66
     1
 10
0
 20
0
 30
0.0
 70
     1
 40
0.75
 41
0.75
  0
VERTEX
  8
0
 10
5.22374
 20
1.03434
 30
0.0
 40
0.0104167
 41
0.0104167
  0
VERTEX
  8
0
 10
6.05897
 20
1.03434
 30
0.0
 40
0.0104167
 41
0.0104167
  0
VERTEX
  8
0
 10
6.05897
 20
0.848796
 30
0.0
 40
0.0104167
 41
0.0104167
  0
VERTEX
  8
0
 10
5.22374
 20
0.848796
 30
0.0
 40
0.0104167
 41
0.0104167
  0
VERTEX
  8
0
 10
5.22374
 20
1.03434
 30
0.0
 40
0.0104167
 41
0.0104167
  0
SEQEND
 8
0
  0
POLYLINE
  8
0
 62
     0
 66
     1
 10
0
 20
0
 30
0.0
 70
     1
 40
0.75
 41
0.75
  0
VERTEX
  8
0
 10
5.22374
 20
0.848796
 30
0.0
 40
0.0104167
 41
0.0104167
  0
VERTEX
  8
0
 10
5.22374
 20
0.799858
 30
0.0
 40
0.0104167
 41
0.0104167
  0
VERTEX
  8
0
 10
5.23676
 20
0.653049
 30
0.0
 40
0.0104167
 41
0.0104167
  0
VERTEX
  8
0
 10
5.27593
 20
0.483399
 30
0.0
 40
0.0104167
 41
0.0104167
  0
VERTEX
  8
0
 10
5.34119
 20
0.339899
 30
0.0
 40
0.0104167
 41
0.0104167
  0
VERTEX
  8
0
 10
5.43251
 20
0.222439
 30
0.0
 40
0.0104167
 41
0.0104167
  0
VERTEX
  8
0
 10
5.54997
 20
0.131076
 30
0.0
 40
0.0104167
 41
0.0104167
  0
VERTEX
  8
0
 10
5.69353
 20
0.0658637
 30
0.0
 40
0.0104167
 41
0.0104167
  0
VERTEX
  8
0
 10
5.86317
 20
0.0266928
 30
0.0
 40
0.0104167
 41
0.0104167
  0
VERTEX
  8
0
 10
6.00999
 20
0.0136176
 30
0.0
 40
0.0104167
 41
0.0104167
  0
VERTEX
  8
0
 10
6.05897
 20
0.0136176
 30
0.0
 40
0.0104167
 41
0.0104167
  0
VERTEX
  8
0
 10
6.05897
 20
0.848796
 30
0.0
 40
0.0104167
 41
0.0104167
  0
VERTEX
  8
0
 10
5.22374
 20
0.848796
 30
0.0
 40
0.0104167
 41
0.0104167
  0
SEQEND
 8
0
  0
POLYLINE
  8
0
 62
     0
 66
     1
 10
0
 20
0
 30
0.0
 70
     1
 40
0.75
 41
0.75
  0
VERTEX
  8
0
 10
5.22374
 20
1.03434
 30
0.0
 40
0.0104167
 41
0.0104167
  0
VERTEX
  8
0
 10
5.22374
 20
1.08333
 30
0.0
 40
0.0104167
 41
0.0104167
  0
VERTEX
  8
0
 10
5.23676
 20
1.23014
 30
0.0
 40
0.0104167
 41
0.0104167
  0
VERTEX
  8
0
 10
5.27593
 20
1.39979
 30
0.0
 40
0.0104167
 41
0.0104167
  0
VERTEX
  8
0
 10
5.34119
 20
1.54335
 30
0.0
 40
0.0104167
 41
0.0104167
  0
VERTEX
  8
0
 10
5.43251
 20
1.66081
 30
0.0
 40
0.0104167
 41
0.0104167
  0
VERTEX
  8
0
 10
5.54997
 20
1.75211
 30
0.0
 40
0.0104167
 41
0.0104167
  0
VERTEX
  8
0
 10
5.69353
 20
1.81739
 30
0.0
 40
0.0104167
 41
0.0104167
  0
VERTEX
  8
0
 10
5.86317
 20
1.85656
 30
0.0
 40
0.0104167
 41
0.0104167
  0
VERTEX
  8
0
 10
6.00999
 20
1.86957
 30
0.0
 40
0.0104167
 41
0.0104167
  0
VERTEX
  8
0
 10
6.05897
 20
1.86957
 30
0.0
 40
0.0104167
 41
0.0104167
  0
VERTEX
  8
0
 10
6.05897
 20
1.03434
 30
0.0
 40
0.0104167
 41
0.0104167
  0
VERTEX
  8
0
 10
5.22374
 20
1.03434
 30
0.0
 40
0.0104167
 41
0.0104167
  0
SEQEND
 8
0
  0
POLYLINE
  8
0
 62
     0
 66
     1
 10
0
 20
0
 30
0.0
 70
     1
 40
0
 41
0
  0
VERTEX
  8
0
 10
1.15582
 20
0.848796
 30
0.0
 40
0
 41
0
  0
VERTEX
  8
0
 10
1.15582
 20
9.30621
 30
0.0
 40
0
 41
0
  0
VERTEX
  8
0
 10
1.36415
 20
8.88954
 30
0.0
 40
0
 41
0
  0
VERTEX
  8
0
 10
1.36415
 20
1.03434
 30
0.0
 40
0
 41
0
  0
VERTEX
  8
0
 10
1.15582
 20
0.848796
 30
0.0
 40
0
 41
0
  0
SEQEND
 8
0
  0
POLYLINE
  8
0
 62
     0
 66
     1
 10
0
 20
0
 30
0.0
 70
     1
 40
0.15
 41
0.15
  0
VERTEX
  8
0
 10
1.15582
 20
0.848796
 30
0.0
 40
0.00208333
 41
0.00208333
  0
VERTEX
  8
0
 10
1.15582
 20
9.30621
 30
0.0
 40
0.00208333
 41
0.00208333
  0
VERTEX
  8
0
 10
1.36415
 20
8.88954
 30
0.0
 40
0.00208333
 41
0.00208333
  0
VERTEX
  8
0
 10
1.36415
 20
1.03434
 30
0.0
 40
0.00208333
 41
0.00208333
  0
VERTEX
  8
0
 10
1.15582
 20
0.848796
 30
0.0
 40
0.00208333
 41
0.00208333
  0
SEQEND
 8
0
  0
POLYLINE
  8
0
 62
     7
 66
     1
 10
0
 20
0
 30
0.0
 70
     1
 40
0
 41
0
  0
VERTEX
  8
0
 10
1.15582
 20
3.48872
 30
0.0
 40
0
 41
0
  0
VERTEX
  8
0
 10
1.36415
 20
3.48872
 30
0.0
 40
0
 41
0
  0
VERTEX
  8
0
 10
1.36415
 20
1.65707
 30
0.0
 40
0
 41
0
  0
VERTEX
  8
0
 10
1.15582
 20
1.65707
 30
0.0
 40
0
 41
0
  0
VERTEX
  8
0
 10
1.15582
 20
3.48872
 30
0.0
 40
0
 41
0
  0
SEQEND
 8
0
  0
POLYLINE
  8
0
 62
     0
 66
     1
 10
0
 20
0
 30
0.0
 70
     1
 40
0.75
 41
0.75
  0
VERTEX
  8
0
 10
1.15582
 20
3.48872
 30
0.0
 40
0.0104167
 41
0.0104167
  0
VERTEX
  8
0
 10
1.36415
 20
3.48872
 30
0.0
 40
0.0104167
 41
0.0104167
  0
VERTEX
  8
0
 10
1.36415
 20
1.65707
 30
0.0
 40
0.0104167
 41
0.0104167
  0
VERTEX
  8
0
 10
1.15582
 20
1.65707
 30
0.0
 40
0.0104167
 41
0.0104167
  0
VERTEX
  8
0
 10
1.15582
 20
3.48872
 30
0.0
 40
0.0104167
 41
0.0104167
  0
SEQEND
 8
0
  0
POLYLINE
  8
0
 62
     7
 66
     1
 10
0
 20
0
 30
0.0
 70
     1
 40
0
 41
0
  0
VERTEX
  8
0
 10
1.15582
 20
3.48872
 30
0.0
 40
0
 41
0
  0
VERTEX
  8
0
 10
1.36415
 20
3.48872
 30
0.0
 40
0
 41
0
  0
VERTEX
  8
0
 10
1.36415
 20
1.65707
 30
0.0
 40
0
 41
0
  0
VERTEX
  8
0
 10
1.15582
 20
1.65707
 30
0.0
 40
0
 41
0
  0
VERTEX
  8
0
 10
1.15582
 20
3.48872
 30
0.0
 40
0
 41
0
  0
SEQEND
 8
0
  0
POLYLINE
  8
0
 62
     0
 66
     1
 10
0
 20
0
 30
0.0
 70
     1
 40
0.75
 41
0.75
  0
VERTEX
  8
0
 10
1.15582
 20
3.48872
 30
0.0
 40
0.0104167
 41
0.0104167
  0
VERTEX
  8
0
 10
1.36415
 20
3.48872
 30
0.0
 40
0.0104167
 41
0.0104167
  0
VERTEX
  8
0
 10
1.36415
 20
1.65707
 30
0.0
 40
0.0104167
 41
0.0104167
  0
VERTEX
  8
0
 10
1.15582
 20
1.65707
 30
0.0
 40
0.0104167
 41
0.0104167
  0
VERTEX
  8
0
 10
1.15582
 20
3.48872
 30
0.0
 40
0.0104167
 41
0.0104167
  0
SEQEND
 8
0
  0
POLYLINE
  8
0
 62
     0
 66
     1
 10
0
 20
0
 30
0.0
 40
0.75
 41
0.75
  0
VERTEX
  8
0
 10
1.25998
 20
1.73514
 30
0.0
 40
0.0104167
 41
0.0104167
  0
VERTEX
  8
0
 10
1.25998
 20
3.41064
 30
0.0
 40
0.0104167
 41
0.0104167
  0
SEQEND
 8
0
  0
POLYLINE
  8
0
 62
     0
 66
     1
 10
0
 20
0
 30
0.0
 40
0.75
 41
0.75
  0
VERTEX
  8
0
 10
1.15582
 20
1.73514
 30
0.0
 40
0.0104167
 41
0.0104167
  0
VERTEX
  8
0
 10
1.36415
 20
1.73514
 30
0.0
 40
0.0104167
 41
0.0104167
  0
SEQEND
 8
0
  0
POLYLINE
  8
0
 62
     0
 66
     1
 10
0
 20
0
 30
0.0
 40
0.75
 41
0.75
  0
VERTEX
  8
0
 10
1.15582
 20
3.41064
 30
0.0
 40
0.0104167
 41
0.0104167
  0
VERTEX
  8
0
 10
1.36415
 20
3.41064
 30
0.0
 40
0.0104167
 41
0.0104167
  0
SEQEND
 8
0
  0
POLYLINE
  8
0
 62
     7
 66
     1
 10
0
 20
0
 30
0.0
 70
     1
 40
0
 41
0
  0
VERTEX
  8
0
 10
1.15582
 20
6.13536
 30
0.0
 40
0
 41
0
  0
VERTEX
  8
0
 10
1.36415
 20
6.13536
 30
0.0
 40
0
 41
0
  0
VERTEX
  8
0
 10
1.36415
 20
3.84392
 30
0.0
 40
0
 41
0
  0
VERTEX
  8
0
 10
1.15582
 20
3.84392
 30
0.0
 40
0
 41
0
  0
VERTEX
  8
0
 10
1.15582
 20
6.13536
 30
0.0
 40
0
 41
0
  0
SEQEND
 8
0
  0
POLYLINE
  8
0
 62
     0
 66
     1
 10
0
 20
0
 30
0.0
 70
     1
 40
0.75
 41
0.75
  0
VERTEX
  8
0
 10
1.15582
 20
6.13536
 30
0.0
 40
0.0104167
 41
0.0104167
  0
VERTEX
  8
0
 10
1.36415
 20
6.13536
 30
0.0
 40
0.0104167
 41
0.0104167
  0
VERTEX
  8
0
 10
1.36415
 20
3.84392
 30
0.0
 40
0.0104167
 41
0.0104167
  0
VERTEX
  8
0
 10
1.15582
 20
3.84392
 30
0.0
 40
0.0104167
 41
0.0104167
  0
VERTEX
  8
0
 10
1.15582
 20
6.13536
 30
0.0
 40
0.0104167
 41
0.0104167
  0
SEQEND
 8
0
  0
POLYLINE
  8
0
 62
     7
 66
     1
 10
0
 20
0
 30
0.0
 70
     1
 40
0
 41
0
  0
VERTEX
  8
0
 10
1.15582
 20
6.13536
 30
0.0
 40
0
 41
0
  0
VERTEX
  8
0
 10
1.36415
 20
6.13536
 30
0.0
 40
0
 41
0
  0
VERTEX
  8
0
 10
1.36415
 20
3.84392
 30
0.0
 40
0
 41
0
  0
VERTEX
  8
0
 10
1.15582
 20
3.84392
 30
0.0
 40
0
 41
0
  0
VERTEX
  8
0
 10
1.15582
 20
6.13536
 30
0.0
 40
0
 41
0
  0
SEQEND
 8
0
  0
POLYLINE
  8
0
 62
     0
 66
     1
 10
0
 20
0
 30
0.0
 70
     1
 40
0.75
 41
0.75
  0
VERTEX
  8
0
 10
1.15582
 20
6.13536
 30
0.0
 40
0.0104167
 41
0.0104167
  0
VERTEX
  8
0
 10
1.36415
 20
6.13536
 30
0.0
 40
0.0104167
 41
0.0104167
  0
VERTEX
  8
0
 10
1.36415
 20
3.84392
 30
0.0
 40
0.0104167
 41
0.0104167
  0
VERTEX
  8
0
 10
1.15582
 20
3.84392
 30
0.0
 40
0.0104167
 41
0.0104167
  0
VERTEX
  8
0
 10
1.15582
 20
6.13536
 30
0.0
 40
0.0104167
 41
0.0104167
  0
SEQEND
 8
0
  0
POLYLINE
  8
0
 62
     0
 66
     1
 10
0
 20
0
 30
0.0
 40
0.75
 41
0.75
  0
VERTEX
  8
0
 10
1.25998
 20
3.9221
 30
0.0
 40
0.0104167
 41
0.0104167
  0
VERTEX
  8
0
 10
1.25998
 20
6.05729
 30
0.0
 40
0.0104167
 41
0.0104167
  0
SEQEND
 8
0
  0
POLYLINE
  8
0
 62
     0
 66
     1
 10
0
 20
0
 30
0.0
 40
0.75
 41
0.75
  0
VERTEX
  8
0
 10
1.15582
 20
3.9221
 30
0.0
 40
0.0104167
 41
0.0104167
  0
VERTEX
  8
0
 10
1.36415
 20
3.9221
 30
0.0
 40
0.0104167
 41
0.0104167
  0
SEQEND
 8
0
  0
POLYLINE
  8
0
 62
     0
 66
     1
 10
0
 20
0
 30
0.0
 40
0.75
 41
0.75
  0
VERTEX
  8
0
 10
1.15582
 20
6.05729
 30
0.0
 40
0.0104167
 41
0.0104167
  0
VERTEX
  8
0
 10
1.36415
 20
6.05729
 30
0.0
 40
0.0104167
 41
0.0104167
  0
SEQEND
 8
0
  0
POLYLINE
  8
0
 62
     7
 66
     1
 10
0
 20
0
 30
0.0
 70
     1
 40
0
 41
0
  0
VERTEX
  8
0
 10
1.15582
 20
8.85872
 30
0.0
 40
0
 41
0
  0
VERTEX
  8
0
 10
1.36415
 20
8.85872
 30
0.0
 40
0
 41
0
  0
VERTEX
  8
0
 10
1.36415
 20
6.44185
 30
0.0
 40
0
 41
0
  0
VERTEX
  8
0
 10
1.15582
 20
6.44185
 30
0.0
 40
0
 41
0
  0
VERTEX
  8
0
 10
1.15582
 20
8.85872
 30
0.0
 40
0
 41
0
  0
SEQEND
 8
0
  0
POLYLINE
  8
0
 62
     0
 66
     1
 10
0
 20
0
 30
0.0
 70
     1
 40
0.75
 41
0.75
  0
VERTEX
  8
0
 10
1.15582
 20
8.85872
 30
0.0
 40
0.0104167
 41
0.0104167
  0
VERTEX
  8
0
 10
1.36415
 20
8.85872
 30
0.0
 40
0.0104167
 41
0.0104167
  0
VERTEX
  8
0
 10
1.36415
 20
6.44185
 30
0.0
 40
0.0104167
 41
0.0104167
  0
VERTEX
  8
0
 10
1.15582
 20
6.44185
 30
0.0
 40
0.0104167
 41
0.0104167
  0
VERTEX
  8
0
 10
1.15582
 20
8.85872
 30
0.0
 40
0.0104167
 41
0.0104167
  0
SEQEND
 8
0
  0
POLYLINE
  8
0
 62
     7
 66
     1
 10
0
 20
0
 30
0.0
 70
     1
 40
0
 41
0
  0
VERTEX
  8
0
 10
1.15582
 20
8.85872
 30
0.0
 40
0
 41
0
  0
VERTEX
  8
0
 10
1.36415
 20
8.85872
 30
0.0
 40
0
 41
0
  0
VERTEX
  8
0
 10
1.36415
 20
6.44185
 30
0.0
 40
0
 41
0
  0
VERTEX
  8
0
 10
1.15582
 20
6.44185
 30
0.0
 40
0
 41
0
  0
VERTEX
  8
0
 10
1.15582
 20
8.85872
 30
0.0
 40
0
 41
0
  0
SEQEND
 8
0
  0
POLYLINE
  8
0
 62
     0
 66
     1
 10
0
 20
0
 30
0.0
 70
     1
 40
0.75
 41
0.75
  0
VERTEX
  8
0
 10
1.15582
 20
8.85872
 30
0.0
 40
0.0104167
 41
0.0104167
  0
VERTEX
  8
0
 10
1.36415
 20
8.85872
 30
0.0
 40
0.0104167
 41
0.0104167
  0
VERTEX
  8
0
 10
1.36415
 20
6.44185
 30
0.0
 40
0.0104167
 41
0.0104167
  0
VERTEX
  8
0
 10
1.15582
 20
6.44185
 30
0.0
 40
0.0104167
 41
0.0104167
  0
VERTEX
  8
0
 10
1.15582
 20
8.85872
 30
0.0
 40
0.0104167
 41
0.0104167
  0
SEQEND
 8
0
  0
POLYLINE
  8
0
 62
     0
 66
     1
 10
0
 20
0
 30
0.0
 40
0.75
 41
0.75
  0
VERTEX
  8
0
 10
1.25998
 20
6.52001
 30
0.0
 40
0.0104167
 41
0.0104167
  0
VERTEX
  8
0
 10
1.25998
 20
8.78054
 30
0.0
 40
0.0104167
 41
0.0104167
  0
SEQEND
 8
0
  0
POLYLINE
  8
0
 62
     0
 66
     1
 10
0
 20
0
 30
0.0
 40
0.75
 41
0.75
  0
VERTEX
  8
0
 10
1.15582
 20
6.52001
 30
0.0
 40
0.0104167
 41
0.0104167
  0
VERTEX
  8
0
 10
1.36415
 20
6.52001
 30
0.0
 40
0.0104167
 41
0.0104167
  0
SEQEND
 8
0
  0
POLYLINE
  8
0
 62
     0
 66
     1
 10
0
 20
0
 30
0.0
 40
0.75
 41
0.75
  0
VERTEX
  8
0
 10
1.15582
 20
8.78054
 30
0.0
 40
0.0104167
 41
0.0104167
  0
VERTEX
  8
0
 10
1.36415
 20
8.78054
 30
0.0
 40
0.0104167
 41
0.0104167
  0
SEQEND
 8
0
  0
POLYLINE
  8
0
 62
     0
 66
     1
 10
0
 20
0
 30
0.0
 70
     1
 40
0
 41
0
  0
VERTEX
  8
0
 10
4.74897
 20
3.76758
 30
0.0
 40
0
 41
0
  0
VERTEX
  8
0
 10
4.84364
 20
3.76758
 30
0.0
 40
0
 41
0
  0
VERTEX
  8
0
 10
4.84364
 20
0.848796
 30
0.0
 40
0
 41
0
  0
VERTEX
  8
0
 10
4.74897
 20
0.848796
 30
0.0
 40
0
 41
0
  0
VERTEX
  8
0
 10
4.74897
 20
3.76758
 30
0.0
 40
0
 41
0
  0
SEQEND
 8
0
  0
POLYLINE
  8
0
 62
     0
 66
     1
 10
0
 20
0
 30
0.0
 70
     1
 40
0.15
 41
0.15
  0
VERTEX
  8
0
 10
4.74897
 20
3.76758
 30
0.0
 40
0.00208333
 41
0.00208333
  0
VERTEX
  8
0
 10
4.84364
 20
3.76758
 30
0.0
 40
0.00208333
 41
0.00208333
  0
VERTEX
  8
0
 10
4.84364
 20
0.848796
 30
0.0
 40
0.00208333
 41
0.00208333
  0
VERTEX
  8
0
 10
4.74897
 20
0.848796
 30
0.0
 40
0.00208333
 41
0.00208333
  0
VERTEX
  8
0
 10
4.74897
 20
3.76758
 30
0.0
 40
0.00208333
 41
0.00208333
  0
SEQEND
 8
0
  0
POLYLINE
  8
0
 62
     7
 66
     1
 10
0
 20
0
 30
0.0
 70
     1
 40
0
 41
0
  0
VERTEX
  8
0
 10
4.74897
 20
2.42725
 30
0.0
 40
0
 41
0
  0
VERTEX
  8
0
 10
4.84364
 20
2.42725
 30
0.0
 40
0
 41
0
  0
VERTEX
  8
0
 10
4.84364
 20
1.73817
 30
0.0
 40
0
 41
0
  0
VERTEX
  8
0
 10
4.74897
 20
1.73817
 30
0.0
 40
0
 41
0
  0
VERTEX
  8
0
 10
4.74897
 20
2.42725
 30
0.0
 40
0
 41
0
  0
SEQEND
 8
0
  0
POLYLINE
  8
0
 62
     0
 66
     1
 10
0
 20
0
 30
0.0
 70
     1
 40
0.75
 41
0.75
  0
VERTEX
  8
0
 10
4.74897
 20
2.42725
 30
0.0
 40
0.0104167
 41
0.0104167
  0
VERTEX
  8
0
 10
4.84364
 20
2.42725
 30
0.0
 40
0.0104167
 41
0.0104167
  0
VERTEX
  8
0
 10
4.84364
 20
1.73817
 30
0.0
 40
0.0104167
 41
0.0104167
  0
VERTEX
  8
0
 10
4.74897
 20
1.73817
 30
0.0
 40
0.0104167
 41
0.0104167
  0
VERTEX
  8
0
 10
4.74897
 20
2.42725
 30
0.0
 40
0.0104167
 41
0.0104167
  0
SEQEND
 8
0
  0
POLYLINE
  8
0
 62
     7
 66
     1
 10
0
 20
0
 30
0.0
 70
     1
 40
0
 41
0
  0
VERTEX
  8
0
 10
4.74897
 20
2.42725
 30
0.0
 40
0
 41
0
  0
VERTEX
  8
0
 10
4.84364
 20
2.42725
 30
0.0
 40
0
 41
0
  0
VERTEX
  8
0
 10
4.84364
 20
1.73817
 30
0.0
 40
0
 41
0
  0
VERTEX
  8
0
 10
4.74897
 20
1.73817
 30
0.0
 40
0
 41
0
  0
VERTEX
  8
0
 10
4.74897
 20
2.42725
 30
0.0
 40
0
 41
0
  0
SEQEND
 8
0
  0
POLYLINE
  8
0
 62
     0
 66
     1
 10
0
 20
0
 30
0.0
 70
     1
 40
0.75
 41
0.75
  0
VERTEX
  8
0
 10
4.74897
 20
2.42725
 30
0.0
 40
0.0104167
 41
0.0104167
  0
VERTEX
  8
0
 10
4.84364
 20
2.42725
 30
0.0
 40
0.0104167
 41
0.0104167
  0
VERTEX
  8
0
 10
4.84364
 20
1.73817
 30
0.0
 40
0.0104167
 41
0.0104167
  0
VERTEX
  8
0
 10
4.74897
 20
1.73817
 30
0.0
 40
0.0104167
 41
0.0104167
  0
VERTEX
  8
0
 10
4.74897
 20
2.42725
 30
0.0
 40
0.0104167
 41
0.0104167
  0
SEQEND
 8
0
  0
POLYLINE
  8
0
 62
     0
 66
     1
 10
0
 20
0
 30
0.0
 70
     1
 40
0.75
 41
0.75
  0
VERTEX
  8
0
 10
4.84364
 20
2.42725
 30
0.0
 40
0.0104167
 41
0.0104167
  0
VERTEX
  8
0
 10
4.884
 20
2.42725
 30
0.0
 40
0.0104167
 41
0.0104167
  0
VERTEX
  8
0
 10
5.0051
 20
2.4165
 30
0.0
 40
0.0104167
 41
0.0104167
  0
VERTEX
  8
0
 10
5.14507
 20
2.38422
 30
0.0
 40
0.0104167
 41
0.0104167
  0
VERTEX
  8
0
 10
5.26351
 20
2.3304
 30
0.0
 40
0.0104167
 41
0.0104167
  0
VERTEX
  8
0
 10
5.3604
 20
2.25499
 30
0.0
 40
0.0104167
 41
0.0104167
  0
VERTEX
  8
0
 10
5.43576
 20
2.1581
 30
0.0
 40
0.0104167
 41
0.0104167
  0
VERTEX
  8
0
 10
5.48964
 20
2.03965
 30
0.0
 40
0.0104167
 41
0.0104167
  0
VERTEX
  8
0
 10
5.52192
 20
1.89968
 30
0.0
 40
0.0104167
 41
0.0104167
  0
VERTEX
  8
0
 10
5.53271
 20
1.7786
 30
0.0
 40
0.0104167
 41
0.0104167
  0
VERTEX
  8
0
 10
5.53271
 20
1.73817
 30
0.0
 40
0.0104167
 41
0.0104167
  0
VERTEX
  8
0
 10
4.84364
 20
1.73817
 30
0.0
 40
0.0104167
 41
0.0104167
  0
VERTEX
  8
0
 10
4.84364
 20
2.42725
 30
0.0
 40
0.0104167
 41
0.0104167
  0
SEQEND
 8
0
  0
POLYLINE
  8
0
 62
     0
 66
     1
 10
0
 20
0
 30
0.0
 70
     1
 40
0
 41
0
  0
VERTEX
  8
0
 10
1.68739
 20
3.76758
 30
0.0
 40
0
 41
0
  0
VERTEX
  8
0
 10
4.74897
 20
3.76758
 30
0.0
 40
0
 41
0
  0
VERTEX
  8
0
 10
4.74897
 20
3.69613
 30
0.0
 40
0
 41
0
  0
VERTEX
  8
0
 10
1.68739
 20
3.69613
 30
0.0
 40
0
 41
0
  0
VERTEX
  8
0
 10
1.68739
 20
3.76758
 30
0.0
 40
0
 41
0
  0
SEQEND
 8
0
  0
POLYLINE
  8
0
 62
     0
 66
     1
 10
0
 20
0
 30
0.0
 70
     1
 40
0.15
 41
0.15
  0
VERTEX
  8
0
 10
1.68739
 20
3.76758
 30
0.0
 40
0.00208333
 41
0.00208333
  0
VERTEX
  8
0
 10
4.74897
 20
3.76758
 30
0.0
 40
0.00208333
 41
0.00208333
  0
VERTEX
  8
0
 10
4.74897
 20
3.69613
 30
0.0
 40
0.00208333
 41
0.00208333
  0
VERTEX
  8
0
 10
1.68739
 20
3.69613
 30
0.0
 40
0.00208333
 41
0.00208333
  0
VERTEX
  8
0
 10
1.68739
 20
3.76758
 30
0.0
 40
0.00208333
 41
0.00208333
  0
SEQEND
 8
0
  0
POLYLINE
  8
0
 62
     7
 66
     1
 10
0
 20
0
 30
0.0
 70
     1
 40
0
 41
0
  0
VERTEX
  8
0
 10
4.14908
 20
3.76758
 30
0.0
 40
0
 41
0
  0
VERTEX
  8
0
 10
4.67562
 20
3.76758
 30
0.0
 40
0
 41
0
  0
VERTEX
  8
0
 10
4.67562
 20
3.69613
 30
0.0
 40
0
 41
0
  0
VERTEX
  8
0
 10
4.14908
 20
3.69613
 30
0.0
 40
0
 41
0
  0
VERTEX
  8
0
 10
4.14908
 20
3.76758
 30
0.0
 40
0
 41
0
  0
SEQEND
 8
0
  0
POLYLINE
  8
0
 62
     0
 66
     1
 10
0
 20
0
 30
0.0
 70
     1
 40
0.75
 41
0.75
  0
VERTEX
  8
0
 10
4.14908
 20
3.76758
 30
0.0
 40
0.0104167
 41
0.0104167
  0
VERTEX
  8
0
 10
4.67562
 20
3.76758
 30
0.0
 40
0.0104167
 41
0.0104167
  0
VERTEX
  8
0
 10
4.67562
 20
3.69613
 30
0.0
 40
0.0104167
 41
0.0104167
  0
VERTEX
  8
0
 10
4.14908
 20
3.69613
 30
0.0
 40
0.0104167
 41
0.0104167
  0
VERTEX
  8
0
 10
4.14908
 20
3.76758
 30
0.0
 40
0.0104167
 41
0.0104167
  0
SEQEND
 8
0
  0
POLYLINE
  8
0
 62
     7
 66
     1
 10
0
 20
0
 30
0.0
 70
     1
 40
0
 41
0
  0
VERTEX
  8
0
 10
4.14908
 20
3.76758
 30
0.0
 40
0
 41
0
  0
VERTEX
  8
0
 10
4.67562
 20
3.76758
 30
0.0
 40
0
 41
0
  0
VERTEX
  8
0
 10
4.67562
 20
3.69613
 30
0.0
 40
0
 41
0
  0
VERTEX
  8
0
 10
4.14908
 20
3.69613
 30
0.0
 40
0
 41
0
  0
VERTEX
  8
0
 10
4.14908
 20
3.76758
 30
0.0
 40
0
 41
0
  0
SEQEND
 8
0
  0
POLYLINE
  8
0
 62
     0
 66
     1
 10
0
 20
0
 30
0.0
 70
     1
 40
0.75
 41
0.75
  0
VERTEX
  8
0
 10
4.14908
 20
3.76758
 30
0.0
 40
0.0104167
 41
0.0104167
  0
VERTEX
  8
0
 10
4.67562
 20
3.76758
 30
0.0
 40
0.0104167
 41
0.0104167
  0
VERTEX
  8
0
 10
4.67562
 20
3.69613
 30
0.0
 40
0.0104167
 41
0.0104167
  0
VERTEX
  8
0
 10
4.14908
 20
3.69613
 30
0.0
 40
0.0104167
 41
0.0104167
  0
VERTEX
  8
0
 10
4.14908
 20
3.76758
 30
0.0
 40
0.0104167
 41
0.0104167
  0
SEQEND
 8
0
  0
POLYLINE
  8
0
 62
     0
 66
     1
 10
0
 20
0
 30
0.0
 70
     1
 40
0.75
 41
0.75
  0
VERTEX
  8
0
 10
4.14908
 20
3.76758
 30
0.0
 40
0.0104167
 41
0.0104167
  0
VERTEX
  8
0
 10
4.14908
 20
3.79844
 30
0.0
 40
0.0104167
 41
0.0104167
  0
VERTEX
  8
0
 10
4.15728
 20
3.891
 30
0.0
 40
0.0104167
 41
0.0104167
  0
VERTEX
  8
0
 10
4.18197
 20
3.99794
 30
0.0
 40
0.0104167
 41
0.0104167
  0
VERTEX
  8
0
 10
4.2231
 20
4.08843
 30
0.0
 40
0.0104167
 41
0.0104167
  0
VERTEX
  8
0
 10
4.28071
 20
4.16249
 30
0.0
 40
0.0104167
 41
0.0104167
  0
VERTEX
  8
0
 10
4.35476
 20
4.22011
 30
0.0
 40
0.0104167
 41
0.0104167
  0
VERTEX
  8
0
 10
4.44526
 20
4.26124
 30
0.0
 40
0.0104167
 41
0.0104167
  0
VERTEX
  8
0
 10
4.55219
 20
4.28592
 30
0.0
 40
0.0104167
 41
0.0104167
  0
VERTEX
  8
0
 10
4.64475
 20
4.29411
 30
0.0
 40
0.0104167
 41
0.0104167
  0
VERTEX
  8
0
 10
4.67562
 20
4.29411
 30
0.0
 40
0.0104167
 41
0.0104167
  0
VERTEX
  8
0
 10
4.67562
 20
3.76758
 30
0.0
 40
0.0104167
 41
0.0104167
  0
VERTEX
  8
0
 10
4.14908
 20
3.76758
 30
0.0
 40
0.0104167
 41
0.0104167
  0
SEQEND
 8
0
  0
POLYLINE
  8
0
 62
     0
 66
     1
 10
0
 20
0
 30
0.0
 70
     1
 40
0
 41
0
  0
VERTEX
  8
0
 10
1.15582
 20
3.76758
 30
0.0
 40
0
 41
0
  0
VERTEX
  8
0
 10
1.68739
 20
3.76758
 30
0.0
 40
0
 41
0
  0
VERTEX
  8
0
 10
1.68739
 20
3.51828
 30
0.0
 40
0
 41
0
  0
VERTEX
  8
0
 10
1.15582
 20
3.51828
 30
0.0
 40
0
 41
0
  0
VERTEX
  8
0
 10
1.15582
 20
3.76758
 30
0.0
 40
0
 41
0
  0
SEQEND
 8
0
  0
POLYLINE
  8
0
 62
     0
 66
     1
 10
0
 20
0
 30
0.0
 70
     1
 40
0.15
 41
0.15
  0
VERTEX
  8
0
 10
1.15582
 20
3.76758
 30
0.0
 40
0.00208333
 41
0.00208333
  0
VERTEX
  8
0
 10
1.68739
 20
3.76758
 30
0.0
 40
0.00208333
 41
0.00208333
  0
VERTEX
  8
0
 10
1.68739
 20
3.51828
 30
0.0
 40
0.00208333
 41
0.00208333
  0
VERTEX
  8
0
 10
1.15582
 20
3.51828
 30
0.0
 40
0.00208333
 41
0.00208333
  0
VERTEX
  8
0
 10
1.15582
 20
3.76758
 30
0.0
 40
0.00208333
 41
0.00208333
  0
SEQEND
 8
0
  0
POLYLINE
  8
0
 62
     0
 66
     1
 10
0
 20
0
 30
0.0
 70
     1
 40
0
 41
0
  0
VERTEX
  8
0
 10
4.84364
 20
3.76758
 30
0.0
 40
0
 41
0
  0
VERTEX
  8
0
 10
4.84364
 20
6.18674
 30
0.0
 40
0
 41
0
  0
VERTEX
  8
0
 10
4.74989
 20
6.28049
 30
0.0
 40
0
 41
0
  0
VERTEX
  8
0
 10
4.74989
 20
3.76758
 30
0.0
 40
0
 41
0
  0
VERTEX
  8
0
 10
4.84364
 20
3.76758
 30
0.0
 40
0
 41
0
  0
SEQEND
 8
0
  0
POLYLINE
  8
0
 62
     0
 66
     1
 10
0
 20
0
 30
0.0
 70
     1
 40
0.15
 41
0.15
  0
VERTEX
  8
0
 10
4.84364
 20
3.76758
 30
0.0
 40
0.00208333
 41
0.00208333
  0
VERTEX
  8
0
 10
4.84364
 20
6.18674
 30
0.0
 40
0.00208333
 41
0.00208333
  0
VERTEX
  8
0
 10
4.74989
 20
6.28049
 30
0.0
 40
0.00208333
 41
0.00208333
  0
VERTEX
  8
0
 10
4.74989
 20
3.76758
 30
0.0
 40
0.00208333
 41
0.00208333
  0
VERTEX
  8
0
 10
4.84364
 20
3.76758
 30
0.0
 40
0.00208333
 41
0.00208333
  0
SEQEND
 8
0
  0
POLYLINE
  8
0
 62
     7
 66
     1
 10
0
 20
0
 30
0.0
 70
     1
 40
0
 41
0
  0
VERTEX
  8
0
 10
4.74989
 20
4.58675
 30
0.0
 40
0
 41
0
  0
VERTEX
  8
0
 10
4.84364
 20
4.58675
 30
0.0
 40
0
 41
0
  0
VERTEX
  8
0
 10
4.84364
 20
3.85135
 30
0.0
 40
0
 41
0
  0
VERTEX
  8
0
 10
4.74989
 20
3.85135
 30
0.0
 40
0
 41
0
  0
VERTEX
  8
0
 10
4.74989
 20
4.58675
 30
0.0
 40
0
 41
0
  0
SEQEND
 8
0
  0
POLYLINE
  8
0
 62
     0
 66
     1
 10
0
 20
0
 30
0.0
 70
     1
 40
0.75
 41
0.75
  0
VERTEX
  8
0
 10
4.74989
 20
4.58675
 30
0.0
 40
0.0104167
 41
0.0104167
  0
VERTEX
  8
0
 10
4.84364
 20
4.58675
 30
0.0
 40
0.0104167
 41
0.0104167
  0
VERTEX
  8
0
 10
4.84364
 20
3.85135
 30
0.0
 40
0.0104167
 41
0.0104167
  0
VERTEX
  8
0
 10
4.74989
 20
3.85135
 30
0.0
 40
0.0104167
 41
0.0104167
  0
VERTEX
  8
0
 10
4.74989
 20
4.58675
 30
0.0
 40
0.0104167
 41
0.0104167
  0
SEQEND
 8
0
  0
POLYLINE
  8
0
 62
     7
 66
     1
 10
0
 20
0
 30
0.0
 70
     1
 40
0
 41
0
  0
VERTEX
  8
0
 10
4.74989
 20
4.58675
 30
0.0
 40
0
 41
0
  0
VERTEX
  8
0
 10
4.84364
 20
4.58675
 30
0.0
 40
0
 41
0
  0
VERTEX
  8
0
 10
4.84364
 20
3.85135
 30
0.0
 40
0
 41
0
  0
VERTEX
  8
0
 10
4.74989
 20
3.85135
 30
0.0
 40
0
 41
0
  0
VERTEX
  8
0
 10
4.74989
 20
4.58675
 30
0.0
 40
0
 41
0
  0
SEQEND
 8
0
  0
POLYLINE
  8
0
 62
     0
 66
     1
 10
0
 20
0
 30
0.0
 70
     1
 40
0.75
 41
0.75
  0
VERTEX
  8
0
 10
4.74989
 20
4.58675
 30
0.0
 40
0.0104167
 41
0.0104167
  0
VERTEX
  8
0
 10
4.84364
 20
4.58675
 30
0.0
 40
0.0104167
 41
0.0104167
  0
VERTEX
  8
0
 10
4.84364
 20
3.85135
 30
0.0
 40
0.0104167
 41
0.0104167
  0
VERTEX
  8
0
 10
4.74989
 20
3.85135
 30
0.0
 40
0.0104167
 41
0.0104167
  0
VERTEX
  8
0
 10
4.74989
 20
4.58675
 30
0.0
 40
0.0104167
 41
0.0104167
  0
SEQEND
 8
0
  0
POLYLINE
  8
0
 62
     0
 66
     1
 10
0
 20
0
 30
0.0
 70
     1
 40
0.75
 41
0.75
  0
VERTEX
  8
0
 10
4.84364
 20
3.85135
 30
0.0
 40
0.0104167
 41
0.0104167
  0
VERTEX
  8
0
 10
4.88672
 20
3.85135
 30
0.0
 40
0.0104167
 41
0.0104167
  0
VERTEX
  8
0
 10
5.016
 20
3.86285
 30
0.0
 40
0.0104167
 41
0.0104167
  0
VERTEX
  8
0
 10
5.16536
 20
3.89735
 30
0.0
 40
0.0104167
 41
0.0104167
  0
VERTEX
  8
0
 10
5.29178
 20
3.95481
 30
0.0
 40
0.0104167
 41
0.0104167
  0
VERTEX
  8
0
 10
5.39518
 20
4.03521
 30
0.0
 40
0.0104167
 41
0.0104167
  0
VERTEX
  8
0
 10
5.47558
 20
4.13861
 30
0.0
 40
0.0104167
 41
0.0104167
  0
VERTEX
  8
0
 10
5.53304
 20
4.26503
 30
0.0
 40
0.0104167
 41
0.0104167
  0
VERTEX
  8
0
 10
5.56754
 20
4.41439
 30
0.0
 40
0.0104167
 41
0.0104167
  0
VERTEX
  8
0
 10
5.57904
 20
4.54368
 30
0.0
 40
0.0104167
 41
0.0104167
  0
VERTEX
  8
0
 10
5.57904
 20
4.58675
 30
0.0
 40
0.0104167
 41
0.0104167
  0
VERTEX
  8
0
 10
4.84364
 20
4.58675
 30
0.0
 40
0.0104167
 41
0.0104167
  0
VERTEX
  8
0
 10
4.84364
 20
3.85135
 30
0.0
 40
0.0104167
 41
0.0104167
  0
SEQEND
 8
0
  0
POLYLINE
  8
0
 62
     0
 66
     1
 10
0
 20
0
 30
0.0
 70
     1
 40
0
 41
0
  0
VERTEX
  8
0
 10
1.15582
 20
6.28049
 30
0.0
 40
0
 41
0
  0
VERTEX
  8
0
 10
4.84364
 20
6.28049
 30
0.0
 40
0
 41
0
  0
VERTEX
  8
0
 10
4.84364
 20
6.18674
 30
0.0
 40
0
 41
0
  0
VERTEX
  8
0
 10
1.15582
 20
6.18674
 30
0.0
 40
0
 41
0
  0
VERTEX
  8
0
 10
1.15582
 20
6.28049
 30
0.0
 40
0
 41
0
  0
SEQEND
 8
0
  0
POLYLINE
  8
0
 62
     0
 66
     1
 10
0
 20
0
 30
0.0
 70
     1
 40
0.15
 41
0.15
  0
VERTEX
  8
0
 10
1.15582
 20
6.28049
 30
0.0
 40
0.00208333
 41
0.00208333
  0
VERTEX
  8
0
 10
4.84364
 20
6.28049
 30
0.0
 40
0.00208333
 41
0.00208333
  0
VERTEX
  8
0
 10
4.84364
 20
6.18674
 30
0.0
 40
0.00208333
 41
0.00208333
  0
VERTEX
  8
0
 10
1.15582
 20
6.18674
 30
0.0
 40
0.00208333
 41
0.00208333
  0
VERTEX
  8
0
 10
1.15582
 20
6.28049
 30
0.0
 40
0.00208333
 41
0.00208333
  0
SEQEND
 8
0
  0
POLYLINE
  8
0
 62
     0
 66
     1
 10
0
 20
0
 30
0.0
 70
     1
 40
0
 41
0
  0
VERTEX
  8
0
 10
4.74989
 20
6.28049
 30
0.0
 40
0
 41
0
  0
VERTEX
  8
0
 10
5.9151
 20
6.28049
 30
0.0
 40
0
 41
0
  0
VERTEX
  8
0
 10
5.82135
 20
6.18674
 30
0.0
 40
0
 41
0
  0
VERTEX
  8
0
 10
4.84364
 20
6.18674
 30
0.0
 40
0
 41
0
  0
VERTEX
  8
0
 10
4.74989
 20
6.28049
 30
0.0
 40
0
 41
0
  0
SEQEND
 8
0
  0
POLYLINE
  8
0
 62
     0
 66
     1
 10
0
 20
0
 30
0.0
 70
     1
 40
0.15
 41
0.15
  0
VERTEX
  8
0
 10
4.74989
 20
6.28049
 30
0.0
 40
0.00208333
 41
0.00208333
  0
VERTEX
  8
0
 10
5.9151
 20
6.28049
 30
0.0
 40
0.00208333
 41
0.00208333
  0
VERTEX
  8
0
 10
5.82135
 20
6.18674
 30
0.0
 40
0.00208333
 41
0.00208333
  0
VERTEX
  8
0
 10
4.84364
 20
6.18674
 30
0.0
 40
0.00208333
 41
0.00208333
  0
VERTEX
  8
0
 10
4.74989
 20
6.28049
 30
0.0
 40
0.00208333
 41
0.00208333
  0
SEQEND
 8
0
  0
POLYLINE
  8
0
 62
     7
 66
     1
 10
0
 20
0
 30
0.0
 70
     1
 40
0
 41
0
  0
VERTEX
  8
0
 10
4.96029
 20
6.28049
 30
0.0
 40
0
 41
0
  0
VERTEX
  8
0
 10
5.75092
 20
6.28049
 30
0.0
 40
0
 41
0
  0
VERTEX
  8
0
 10
5.75092
 20
6.18674
 30
0.0
 40
0
 41
0
  0
VERTEX
  8
0
 10
4.96029
 20
6.18674
 30
0.0
 40
0
 41
0
  0
VERTEX
  8
0
 10
4.96029
 20
6.28049
 30
0.0
 40
0
 41
0
  0
SEQEND
 8
0
  0
POLYLINE
  8
0
 62
     0
 66
     1
 10
0
 20
0
 30
0.0
 70
     1
 40
0.75
 41
0.75
  0
VERTEX
  8
0
 10
4.96029
 20
6.28049
 30
0.0
 40
0.0104167
 41
0.0104167
  0
VERTEX
  8
0
 10
5.75092
 20
6.28049
 30
0.0
 40
0.0104167
 41
0.0104167
  0
VERTEX
  8
0
 10
5.75092
 20
6.18674
 30
0.0
 40
0.0104167
 41
0.0104167
  0
VERTEX
  8
0
 10
4.96029
 20
6.18674
 30
0.0
 40
0.0104167
 41
0.0104167
  0
VERTEX
  8
0
 10
4.96029
 20
6.28049
 30
0.0
 40
0.0104167
 41
0.0104167
  0
SEQEND
 8
0
  0
POLYLINE
  8
0
 62
     7
 66
     1
 10
0
 20
0
 30
0.0
 70
     1
 40
0
 41
0
  0
VERTEX
  8
0
 10
4.96029
 20
6.28049
 30
0.0
 40
0
 41
0
  0
VERTEX
  8
0
 10
5.75092
 20
6.28049
 30
0.0
 40
0
 41
0
  0
VERTEX
  8
0
 10
5.75092
 20
6.18674
 30
0.0
 40
0
 41
0
  0
VERTEX
  8
0
 10
4.96029
 20
6.18674
 30
0.0
 40
0
 41
0
  0
VERTEX
  8
0
 10
4.96029
 20
6.28049
 30
0.0
 40
0
 41
0
  0
SEQEND
 8
0
  0
POLYLINE
  8
0
 62
     0
 66
     1
 10
0
 20
0
 30
0.0
 70
     1
 40
0.75
 41
0.75
  0
VERTEX
  8
0
 10
4.96029
 20
6.28049
 30
0.0
 40
0.0104167
 41
0.0104167
  0
VERTEX
  8
0
 10
5.75092
 20
6.28049
 30
0.0
 40
0.0104167
 41
0.0104167
  0
VERTEX
  8
0
 10
5.75092
 20
6.18674
 30
0.0
 40
0.0104167
 41
0.0104167
  0
VERTEX
  8
0
 10
4.96029
 20
6.18674
 30
0.0
 40
0.0104167
 41
0.0104167
  0
VERTEX
  8
0
 10
4.96029
 20
6.28049
 30
0.0
 40
0.0104167
 41
0.0104167
  0
SEQEND
 8
0
  0
POLYLINE
  8
0
 62
     0
 66
     1
 10
0
 20
0
 30
0.0
 70
     1
 40
0.75
 41
0.75
  0
VERTEX
  8
0
 10
4.96029
 20
6.28049
 30
0.0
 40
0.0104167
 41
0.0104167
  0
VERTEX
  8
0
 10
4.96029
 20
6.32682
 30
0.0
 40
0.0104167
 41
0.0104167
  0
VERTEX
  8
0
 10
4.9726
 20
6.46582
 30
0.0
 40
0.0104167
 41
0.0104167
  0
VERTEX
  8
0
 10
5.00965
 20
6.62642
 30
0.0
 40
0.0104167
 41
0.0104167
  0
VERTEX
  8
0
 10
5.07146
 20
6.76232
 30
0.0
 40
0.0104167
 41
0.0104167
  0
VERTEX
  8
0
 10
5.15793
 20
6.87349
 30
0.0
 40
0.0104167
 41
0.0104167
  0
VERTEX
  8
0
 10
5.2691
 20
6.95996
 30
0.0
 40
0.0104167
 41
0.0104167
  0
VERTEX
  8
0
 10
5.405
 20
7.02175
 30
0.0
 40
0.0104167
 41
0.0104167
  0
VERTEX
  8
0
 10
5.5656
 20
7.05881
 30
0.0
 40
0.0104167
 41
0.0104167
  0
VERTEX
  8
0
 10
5.70458
 20
7.07113
 30
0.0
 40
0.0104167
 41
0.0104167
  0
VERTEX
  8
0
 10
5.75092
 20
7.07113
 30
0.0
 40
0.0104167
 41
0.0104167
  0
VERTEX
  8
0
 10
5.75092
 20
6.28049
 30
0.0
 40
0.0104167
 41
0.0104167
  0
VERTEX
  8
0
 10
4.96029
 20
6.28049
 30
0.0
 40
0.0104167
 41
0.0104167
  0
SEQEND
 8
0
  0
POLYLINE
  8
0
 62
     0
 66
     1
 10
0
 20
0
 30
0.0
 70
     1
 40
0
 41
0
  0
VERTEX
  8
0
 10
5.82135
 20
9.30621
 30
0.0
 40
0
 41
0
  0
VERTEX
  8
0
 10
5.9151
 20
9.30621
 30
0.0
 40
0
 41
0
  0
VERTEX
  8
0
 10
5.9151
 20
6.18674
 30
0.0
 40
0
 41
0
  0
VERTEX
  8
0
 10
5.82135
 20
6.18674
 30
0.0
 40
0
 41
0
  0
VERTEX
  8
0
 10
5.82135
 20
9.30621
 30
0.0
 40
0
 41
0
  0
SEQEND
 8
0
  0
POLYLINE
  8
0
 62
     0
 66
     1
 10
0
 20
0
 30
0.0
 70
     1
 40
0.15
 41
0.15
  0
VERTEX
  8
0
 10
5.82135
 20
9.30621
 30
0.0
 40
0.00208333
 41
0.00208333
  0
VERTEX
  8
0
 10
5.9151
 20
9.30621
 30
0.0
 40
0.00208333
 41
0.00208333
  0
VERTEX
  8
0
 10
5.9151
 20
6.18674
 30
0.0
 40
0.00208333
 41
0.00208333
  0
VERTEX
  8
0
 10
5.82135
 20
6.18674
 30
0.0
 40
0.00208333
 41
0.00208333
  0
VERTEX
  8
0
 10
5.82135
 20
9.30621
 30
0.0
 40
0.00208333
 41
0.00208333
  0
SEQEND
 8
0
  0
POLYLINE
  8
0
 62
     7
 66
     1
 10
0
 20
0
 30
0.0
 70
     1
 40
0
 41
0
  0
VERTEX
  8
0
 10
5.82135
 20
8.51318
 30
0.0
 40
0
 41
0
  0
VERTEX
  8
0
 10
5.9151
 20
8.51318
 30
0.0
 40
0
 41
0
  0
VERTEX
  8
0
 10
5.9151
 20
7.86643
 30
0.0
 40
0
 41
0
  0
VERTEX
  8
0
 10
5.82135
 20
7.86643
 30
0.0
 40
0
 41
0
  0
VERTEX
  8
0
 10
5.82135
 20
8.51318
 30
0.0
 40
0
 41
0
  0
SEQEND
 8
0
  0
POLYLINE
  8
0
 62
     0
 66
     1
 10
0
 20
0
 30
0.0
 70
     1
 40
0.75
 41
0.75
  0
VERTEX
  8
0
 10
5.82135
 20
8.51318
 30
0.0
 40
0.0104167
 41
0.0104167
  0
VERTEX
  8
0
 10
5.9151
 20
8.51318
 30
0.0
 40
0.0104167
 41
0.0104167
  0
VERTEX
  8
0
 10
5.9151
 20
7.86643
 30
0.0
 40
0.0104167
 41
0.0104167
  0
VERTEX
  8
0
 10
5.82135
 20
7.86643
 30
0.0
 40
0.0104167
 41
0.0104167
  0
VERTEX
  8
0
 10
5.82135
 20
8.51318
 30
0.0
 40
0.0104167
 41
0.0104167
  0
SEQEND
 8
0
  0
POLYLINE
  8
0
 62
     7
 66
     1
 10
0
 20
0
 30
0.0
 70
     1
 40
0
 41
0
  0
VERTEX
  8
0
 10
5.82135
 20
8.51318
 30
0.0
 40
0
 41
0
  0
VERTEX
  8
0
 10
5.9151
 20
8.51318
 30
0.0
 40
0
 41
0
  0
VERTEX
  8
0
 10
5.9151
 20
7.86643
 30
0.0
 40
0
 41
0
  0
VERTEX
  8
0
 10
5.82135
 20
7.86643
 30
0.0
 40
0
 41
0
  0
VERTEX
  8
0
 10
5.82135
 20
8.51318
 30
0.0
 40
0
 41
0
  0
SEQEND
 8
0
  0
POLYLINE
  8
0
 62
     0
 66
     1
 10
0
 20
0
 30
0.0
 70
     1
 40
0.75
 41
0.75
  0
VERTEX
  8
0
 10
5.82135
 20
8.51318
 30
0.0
 40
0.0104167
 41
0.0104167
  0
VERTEX
  8
0
 10
5.9151
 20
8.51318
 30
0.0
 40
0.0104167
 41
0.0104167
  0
VERTEX
  8
0
 10
5.9151
 20
7.86643
 30
0.0
 40
0.0104167
 41
0.0104167
  0
VERTEX
  8
0
 10
5.82135
 20
7.86643
 30
0.0
 40
0.0104167
 41
0.0104167
  0
VERTEX
  8
0
 10
5.82135
 20
8.51318
 30
0.0
 40
0.0104167
 41
0.0104167
  0
SEQEND
 8
0
  0
POLYLINE
  8
0
 62
     0
 66
     1
 10
0
 20
0
 30
0.0
 70
     1
 40
0.75
 41
0.75
  0
VERTEX
  8
0
 10
5.82135
 20
7.86643
 30
0.0
 40
0.0104167
 41
0.0104167
  0
VERTEX
  8
0
 10
5.78342
 20
7.86643
 30
0.0
 40
0.0104167
 41
0.0104167
  0
VERTEX
  8
0
 10
5.66976
 20
7.87657
 30
0.0
 40
0.0104167
 41
0.0104167
  0
VERTEX
  8
0
 10
5.53836
 20
7.9069
 30
0.0
 40
0.0104167
 41
0.0104167
  0
VERTEX
  8
0
 10
5.42719
 20
7.95742
 30
0.0
 40
0.0104167
 41
0.0104167
  0
VERTEX
  8
0
 10
5.33626
 20
8.02815
 30
0.0
 40
0.0104167
 41
0.0104167
  0
VERTEX
  8
0
 10
5.26551
 20
8.11908
 30
0.0
 40
0.0104167
 41
0.0104167
  0
VERTEX
  8
0
 10
5.215
 20
8.23025
 30
0.0
 40
0.0104167
 41
0.0104167
  0
VERTEX
  8
0
 10
5.18468
 20
8.36165
 30
0.0
 40
0.0104167
 41
0.0104167
  0
VERTEX
  8
0
 10
5.17458
 20
8.47532
 30
0.0
 40
0.0104167
 41
0.0104167
  0
VERTEX
  8
0
 10
5.17458
 20
8.51318
 30
0.0
 40
0.0104167
 41
0.0104167
  0
VERTEX
  8
0
 10
5.82135
 20
8.51318
 30
0.0
 40
0.0104167
 41
0.0104167
  0
VERTEX
  8
0
 10
5.82135
 20
7.86643
 30
0.0
 40
0.0104167
 41
0.0104167
  0
SEQEND
 8
0
  0
POLYLINE
  8
0
 62
     0
 66
     1
 10
0
 20
0
 30
0.0
 70
     1
 40
0
 41
0
  0
VERTEX
  8
0
 10
5.9151
 20
6.28049
 30
0.0
 40
0
 41
0
  0
VERTEX
  8
0
 10
5.9151
 20
4.85058
 30
0.0
 40
0
 41
0
  0
VERTEX
  8
0
 10
5.82135
 20
4.85058
 30
0.0
 40
0
 41
0
  0
VERTEX
  8
0
 10
5.82135
 20
6.18674
 30
0.0
 40
0
 41
0
  0
VERTEX
  8
0
 10
5.9151
 20
6.28049
 30
0.0
 40
0
 41
0
  0
SEQEND
 8
0
  0
POLYLINE
  8
0
 62
     0
 66
     1
 10
0
 20
0
 30
0.0
 70
     1
 40
0.15
 41
0.15
  0
VERTEX
  8
0
 10
5.9151
 20
6.28049
 30
0.0
 40
0.00208333
 41
0.00208333
  0
VERTEX
  8
0
 10
5.9151
 20
4.85058
 30
0.0
 40
0.00208333
 41
0.00208333
  0
VERTEX
  8
0
 10
5.82135
 20
4.85058
 30
0.0
 40
0.00208333
 41
0.00208333
  0
VERTEX
  8
0
 10
5.82135
 20
6.18674
 30
0.0
 40
0.00208333
 41
0.00208333
  0
VERTEX
  8
0
 10
5.9151
 20
6.28049
 30
0.0
 40
0.00208333
 41
0.00208333
  0
SEQEND
 8
0
  0
POLYLINE
  8
0
 62
     7
 66
     1
 10
0
 20
0
 30
0.0
 70
     1
 40
0
 41
0
  0
VERTEX
  8
0
 10
5.82135
 20
6.10954
 30
0.0
 40
0
 41
0
  0
VERTEX
  8
0
 10
5.9151
 20
6.10954
 30
0.0
 40
0
 41
0
  0
VERTEX
  8
0
 10
5.9151
 20
5.40831
 30
0.0
 40
0
 41
0
  0
VERTEX
  8
0
 10
5.82135
 20
5.40831
 30
0.0
 40
0
 41
0
  0
VERTEX
  8
0
 10
5.82135
 20
6.10954
 30
0.0
 40
0
 41
0
  0
SEQEND
 8
0
  0
POLYLINE
  8
0
 62
     0
 66
     1
 10
0
 20
0
 30
0.0
 70
     1
 40
0.75
 41
0.75
  0
VERTEX
  8
0
 10
5.82135
 20
6.10954
 30
0.0
 40
0.0104167
 41
0.0104167
  0
VERTEX
  8
0
 10
5.9151
 20
6.10954
 30
0.0
 40
0.0104167
 41
0.0104167
  0
VERTEX
  8
0
 10
5.9151
 20
5.40831
 30
0.0
 40
0.0104167
 41
0.0104167
  0
VERTEX
  8
0
 10
5.82135
 20
5.40831
 30
0.0
 40
0.0104167
 41
0.0104167
  0
VERTEX
  8
0
 10
5.82135
 20
6.10954
 30
0.0
 40
0.0104167
 41
0.0104167
  0
SEQEND
 8
0
  0
POLYLINE
  8
0
 62
     7
 66
     1
 10
0
 20
0
 30
0.0
 70
     1
 40
0
 41
0
  0
VERTEX
  8
0
 10
5.82135
 20
6.10954
 30
0.0
 40
0
 41
0
  0
VERTEX
  8
0
 10
5.9151
 20
6.10954
 30
0.0
 40
0
 41
0
  0
VERTEX
  8
0
 10
5.9151
 20
5.40831
 30
0.0
 40
0
 41
0
  0
VERTEX
  8
0
 10
5.82135
 20
5.40831
 30
0.0
 40
0
 41
0
  0
VERTEX
  8
0
 10
5.82135
 20
6.10954
 30
0.0
 40
0
 41
0
  0
SEQEND
 8
0
  0
POLYLINE
  8
0
 62
     0
 66
     1
 10
0
 20
0
 30
0.0
 70
     1
 40
0.75
 41
0.75
  0
VERTEX
  8
0
 10
5.82135
 20
6.10954
 30
0.0
 40
0.0104167
 41
0.0104167
  0
VERTEX
  8
0
 10
5.9151
 20
6.10954
 30
0.0
 40
0.0104167
 41
0.0104167
  0
VERTEX
  8
0
 10
5.9151
 20
5.40831
 30
0.0
 40
0.0104167
 41
0.0104167
  0
VERTEX
  8
0
 10
5.82135
 20
5.40831
 30
0.0
 40
0.0104167
 41
0.0104167
  0
VERTEX
  8
0
 10
5.82135
 20
6.10954
 30
0.0
 40
0.0104167
 41
0.0104167
  0
SEQEND
 8
0
  0
POLYLINE
  8
0
 62
     0
 66
     1
 10
0
 20
0
 30
0.0
 70
     1
 40
0.75
 41
0.75
  0
VERTEX
  8
0
 10
5.82135
 20
5.40831
 30
0.0
 40
0.0104167
 41
0.0104167
  0
VERTEX
  8
0
 10
5.78022
 20
5.40831
 30
0.0
 40
0.0104167
 41
0.0104167
  0
VERTEX
  8
0
 10
5.65696
 20
5.41928
 30
0.0
 40
0.0104167
 41
0.0104167
  0
VERTEX
  8
0
 10
5.51454
 20
5.45215
 30
0.0
 40
0.0104167
 41
0.0104167
  0
VERTEX
  8
0
 10
5.39399
 20
5.50694
 30
0.0
 40
0.0104167
 41
0.0104167
  0
VERTEX
  8
0
 10
5.29542
 20
5.58365
 30
0.0
 40
0.0104167
 41
0.0104167
  0
VERTEX
  8
0
 10
5.21869
 20
5.68224
 30
0.0
 40
0.0104167
 41
0.0104167
  0
VERTEX
  8
0
 10
5.1639
 20
5.80279
 30
0.0
 40
0.0104167
 41
0.0104167
  0
VERTEX
  8
0
 10
5.13103
 20
5.94521
 30
0.0
 40
0.0104167
 41
0.0104167
  0
VERTEX
  8
0
 10
5.12011
 20
6.06847
 30
0.0
 40
0.0104167
 41
0.0104167
  0
VERTEX
  8
0
 10
5.12011
 20
6.10954
 30
0.0
 40
0.0104167
 41
0.0104167
  0
VERTEX
  8
0
 10
5.82135
 20
6.10954
 30
0.0
 40
0.0104167
 41
0.0104167
  0
VERTEX
  8
0
 10
5.82135
 20
5.40831
 30
0.0
 40
0.0104167
 41
0.0104167
  0
SEQEND
 8
0
  0
POLYLINE
  8
0
 62
     0
 66
     1
 10
0
 20
0
 30
0.0
 70
     1
 40
0
 41
0
  0
VERTEX
  8
0
 10
7.01893
 20
7.25353
 30
0.0
 40
0
 41
0
  0
VERTEX
  8
0
 10
5.82135
 20
7.25353
 30
0.0
 40
0
 41
0
  0
VERTEX
  8
0
 10
5.82135
 20
7.57781
 30
0.0
 40
0
 41
0
  0
VERTEX
  8
0
 10
7.10226
 20
7.57781
 30
0.0
 40
0
 41
0
  0
VERTEX
  8
0
 10
7.01893
 20
7.25353
 30
0.0
 40
0
 41
0
  0
SEQEND
 8
0
  0
POLYLINE
  8
0
 62
     0
 66
     1
 10
0
 20
0
 30
0.0
 70
     1
 40
0.15
 41
0.15
  0
VERTEX
  8
0
 10
7.01893
 20
7.25353
 30
0.0
 40
0.00208333
 41
0.00208333
  0
VERTEX
  8
0
 10
5.82135
 20
7.25353
 30
0.0
 40
0.00208333
 41
0.00208333
  0
VERTEX
  8
0
 10
5.82135
 20
7.57781
 30
0.0
 40
0.00208333
 41
0.00208333
  0
VERTEX
  8
0
 10
7.10226
 20
7.57781
 30
0.0
 40
0.00208333
 41
0.00208333
  0
VERTEX
  8
0
 10
7.01893
 20
7.25353
 30
0.0
 40
0.00208333
 41
0.00208333
  0
SEQEND
 8
0
  0
POLYLINE
  8
0
 62
     0
 66
     1
 10
0
 20
0
 30
0.0
 70
     1
 40
0
 41
0
  0
VERTEX
  8
0
 10
7.01893
 20
9.30621
 30
0.0
 40
0
 41
0
  0
VERTEX
  8
0
 10
7.10226
 20
9.30621
 30
0.0
 40
0
 41
0
  0
VERTEX
  8
0
 10
7.10226
 20
7.25353
 30
0.0
 40
0
 41
0
  0
VERTEX
  8
0
 10
7.01893
 20
7.25353
 30
0.0
 40
0
 41
0
  0
VERTEX
  8
0
 10
7.01893
 20
9.30621
 30
0.0
 40
0
 41
0
  0
SEQEND
 8
0
  0
POLYLINE
  8
0
 62
     0
 66
     1
 10
0
 20
0
 30
0.0
 70
     1
 40
0.15
 41
0.15
  0
VERTEX
  8
0
 10
7.01893
 20
9.30621
 30
0.0
 40
0.00208333
 41
0.00208333
  0
VERTEX
  8
0
 10
7.10226
 20
9.30621
 30
0.0
 40
0.00208333
 41
0.00208333
  0
VERTEX
  8
0
 10
7.10226
 20
7.25353
 30
0.0
 40
0.00208333
 41
0.00208333
  0
VERTEX
  8
0
 10
7.01893
 20
7.25353
 30
0.0
 40
0.00208333
 41
0.00208333
  0
VERTEX
  8
0
 10
7.01893
 20
9.30621
 30
0.0
 40
0.00208333
 41
0.00208333
  0
SEQEND
 8
0
  0
POLYLINE
  8
0
 62
     0
 66
     1
 10
0
 20
0
 30
0.0
 70
     1
 40
0
 41
0
  0
VERTEX
  8
0
 10
7.10226
 20
7.57781
 30
0.0
 40
0
 41
0
  0
VERTEX
  8
0
 10
7.10226
 20
4.86882
 30
0.0
 40
0
 41
0
  0
VERTEX
  8
0
 10
7.01893
 20
4.86882
 30
0.0
 40
0
 41
0
  0
VERTEX
  8
0
 10
7.01893
 20
7.25353
 30
0.0
 40
0
 41
0
  0
VERTEX
  8
0
 10
7.10226
 20
7.57781
 30
0.0
 40
0
 41
0
  0
SEQEND
 8
0
  0
POLYLINE
  8
0
 62
     0
 66
     1
 10
0
 20
0
 30
0.0
 70
     1
 40
0.15
 41
0.15
  0
VERTEX
  8
0
 10
7.10226
 20
7.57781
 30
0.0
 40
0.00208333
 41
0.00208333
  0
VERTEX
  8
0
 10
7.10226
 20
4.86882
 30
0.0
 40
0.00208333
 41
0.00208333
  0
VERTEX
  8
0
 10
7.01893
 20
4.86882
 30
0.0
 40
0.00208333
 41
0.00208333
  0
VERTEX
  8
0
 10
7.01893
 20
7.25353
 30
0.0
 40
0.00208333
 41
0.00208333
  0
VERTEX
  8
0
 10
7.10226
 20
7.57781
 30
0.0
 40
0.00208333
 41
0.00208333
  0
SEQEND
 8
0
  0
POLYLINE
  8
0
 62
     0
 66
     1
 10
0
 20
0
 30
0.0
 70
     1
 40
0
 41
0
  0
VERTEX
  8
0
 10
5.82135
 20
5.36143
 30
0.0
 40
0
 41
0
  0
VERTEX
  8
0
 10
7.10226
 20
5.36143
 30
0.0
 40
0
 41
0
  0
VERTEX
  8
0
 10
7.10226
 20
5.2781
 30
0.0
 40
0
 41
0
  0
VERTEX
  8
0
 10
5.82135
 20
5.2781
 30
0.0
 40
0
 41
0
  0
VERTEX
  8
0
 10
5.82135
 20
5.36143
 30
0.0
 40
0
 41
0
  0
SEQEND
 8
0
  0
POLYLINE
  8
0
 62
     0
 66
     1
 10
0
 20
0
 30
0.0
 70
     1
 40
0.15
 41
0.15
  0
VERTEX
  8
0
 10
5.82135
 20
5.36143
 30
0.0
 40
0.00208333
 41
0.00208333
  0
VERTEX
  8
0
 10
7.10226
 20
5.36143
 30
0.0
 40
0.00208333
 41
0.00208333
  0
VERTEX
  8
0
 10
7.10226
 20
5.2781
 30
0.0
 40
0.00208333
 41
0.00208333
  0
VERTEX
  8
0
 10
5.82135
 20
5.2781
 30
0.0
 40
0.00208333
 41
0.00208333
  0
VERTEX
  8
0
 10
5.82135
 20
5.36143
 30
0.0
 40
0.00208333
 41
0.00208333
  0
SEQEND
 8
0
  0
POLYLINE
  8
0
 62
     7
 66
     1
 10
0
 20
0
 30
0.0
 70
     1
 40
0
 41
0
  0
VERTEX
  8
0
 10
6.00792
 20
7.24826
 30
0.0
 40
0
 41
0
  0
VERTEX
  8
0
 10
6.42449
 20
7.24826
 30
0.0
 40
0
 41
0
  0
VERTEX
  8
0
 10
6.42449
 20
7.06099
 30
0.0
 40
0
 41
0
  0
VERTEX
  8
0
 10
6.00792
 20
7.06099
 30
0.0
 40
0
 41
0
  0
VERTEX
  8
0
 10
6.00792
 20
7.24826
 30
0.0
 40
0
 41
0
  0
SEQEND
 8
0
  0
POLYLINE
  8
0
 62
     0
 66
     1
 10
0
 20
0
 30
0.0
 70
     1
 40
0.75
 41
0.75
  0
VERTEX
  8
0
 10
6.00792
 20
7.24826
 30
0.0
 40
0.0104167
 41
0.0104167
  0
VERTEX
  8
0
 10
6.42449
 20
7.24826
 30
0.0
 40
0.0104167
 41
0.0104167
  0
VERTEX
  8
0
 10
6.42449
 20
7.06099
 30
0.0
 40
0.0104167
 41
0.0104167
  0
VERTEX
  8
0
 10
6.00792
 20
7.06099
 30
0.0
 40
0.0104167
 41
0.0104167
  0
VERTEX
  8
0
 10
6.00792
 20
7.24826
 30
0.0
 40
0.0104167
 41
0.0104167
  0
SEQEND
 8
0
  0
POLYLINE
  8
0
 62
     7
 66
     1
 10
0
 20
0
 30
0.0
 70
     1
 40
0
 41
0
  0
VERTEX
  8
0
 10
6.42449
 20
6.79264
 30
0.0
 40
0
 41
0
  0
VERTEX
  8
0
 10
6.42449
 20
6.79264
 30
0.0
 40
0
 41
0
  0
VERTEX
  8
0
 10
6.42453
 20
6.78093
 30
0.0
 40
0
 41
0
  0
VERTEX
  8
0
 10
6.4229
 20
6.74994
 30
0.0
 40
0
 41
0
  0
VERTEX
  8
0
 10
6.41678
 20
6.70611
 30
0.0
 40
0
 41
0
  0
VERTEX
  8
0
 10
6.40338
 20
6.65587
 30
0.0
 40
0
 41
0
  0
VERTEX
  8
0
 10
6.37978
 20
6.60568
 30
0.0
 40
0
 41
0
  0
VERTEX
  8
0
 10
6.34332
 20
6.56185
 30
0.0
 40
0
 41
0
  0
VERTEX
  8
0
 10
6.29118
 20
6.53087
 30
0.0
 40
0
 41
0
  0
VERTEX
  8
0
 10
6.23812
 20
6.5191
 30
0.0
 40
0
 41
0
  0
VERTEX
  8
0
 10
6.22049
 20
6.5191
 30
0.0
 40
0
 41
0
  0
VERTEX
  8
0
 10
6.20215
 20
6.5191
 30
0.0
 40
0
 41
0
  0
VERTEX
  8
0
 10
6.14729
 20
6.53087
 30
0.0
 40
0
 41
0
  0
VERTEX
  8
0
 10
6.09321
 20
6.56185
 30
0.0
 40
0
 41
0
  0
VERTEX
  8
0
 10
6.05539
 20
6.60568
 30
0.0
 40
0
 41
0
  0
VERTEX
  8
0
 10
6.03097
 20
6.65587
 30
0.0
 40
0
 41
0
  0
VERTEX
  8
0
 10
6.01699
 20
6.70611
 30
0.0
 40
0
 41
0
  0
VERTEX
  8
0
 10
6.01058
 20
6.74994
 30
0.0
 40
0
 41
0
  0
VERTEX
  8
0
 10
6.00885
 20
6.78093
 30
0.0
 40
0
 41
0
  0
VERTEX
  8
0
 10
6.00896
 20
6.79264
 30
0.0
 40
0
 41
0
  0
VERTEX
  8
0
 10
6.00896
 20
6.79264
 30
0.0
 40
0
 41
0
  0
VERTEX
  8
0
 10
6.00786
 20
7.06099
 30
0.0
 40
0
 41
0
  0
VERTEX
  8
0
 10
6.42449
 20
7.06099
 30
0.0
 40
0
 41
0
  0
VERTEX
  8
0
 10
6.42449
 20
6.79264
 30
0.0
 40
0
 41
0
  0
SEQEND
 8
0
  0
POLYLINE
  8
0
 62
     0
 66
     1
 10
0
 20
0
 30
0.0
 70
     1
 40
0.75
 41
0.75
  0
VERTEX
  8
0
 10
6.42449
 20
6.79264
 30
0.0
 40
0.0104167
 41
0.0104167
  0
VERTEX
  8
0
 10
6.42449
 20
6.79264
 30
0.0
 40
0.0104167
 41
0.0104167
  0
VERTEX
  8
0
 10
6.42453
 20
6.78093
 30
0.0
 40
0.0104167
 41
0.0104167
  0
VERTEX
  8
0
 10
6.4229
 20
6.74994
 30
0.0
 40
0.0104167
 41
0.0104167
  0
VERTEX
  8
0
 10
6.41678
 20
6.70611
 30
0.0
 40
0.0104167
 41
0.0104167
  0
VERTEX
  8
0
 10
6.40338
 20
6.65587
 30
0.0
 40
0.0104167
 41
0.0104167
  0
VERTEX
  8
0
 10
6.37978
 20
6.60568
 30
0.0
 40
0.0104167
 41
0.0104167
  0
VERTEX
  8
0
 10
6.34332
 20
6.56185
 30
0.0
 40
0.0104167
 41
0.0104167
  0
VERTEX
  8
0
 10
6.29118
 20
6.53087
 30
0.0
 40
0.0104167
 41
0.0104167
  0
VERTEX
  8
0
 10
6.23812
 20
6.5191
 30
0.0
 40
0.0104167
 41
0.0104167
  0
VERTEX
  8
0
 10
6.22049
 20
6.5191
 30
0.0
 40
0.0104167
 41
0.0104167
  0
VERTEX
  8
0
 10
6.20215
 20
6.5191
 30
0.0
 40
0.0104167
 41
0.0104167
  0
VERTEX
  8
0
 10
6.14729
 20
6.53087
 30
0.0
 40
0.0104167
 41
0.0104167
  0
VERTEX
  8
0
 10
6.09321
 20
6.56185
 30
0.0
 40
0.0104167
 41
0.0104167
  0
VERTEX
  8
0
 10
6.05539
 20
6.60568
 30
0.0
 40
0.0104167
 41
0.0104167
  0
VERTEX
  8
0
 10
6.03097
 20
6.65587
 30
0.0
 40
0.0104167
 41
0.0104167
  0
VERTEX
  8
0
 10
6.01699
 20
6.70611
 30
0.0
 40
0.0104167
 41
0.0104167
  0
VERTEX
  8
0
 10
6.01058
 20
6.74994
 30
0.0
 40
0.0104167
 41
0.0104167
  0
VERTEX
  8
0
 10
6.00885
 20
6.78093
 30
0.0
 40
0.0104167
 41
0.0104167
  0
VERTEX
  8
0
 10
6.00896
 20
6.79264
 30
0.0
 40
0.0104167
 41
0.0104167
  0
VERTEX
  8
0
 10
6.00896
 20
6.79264
 30
0.0
 40
0.0104167
 41
0.0104167
  0
VERTEX
  8
0
 10
6.00786
 20
7.06099
 30
0.0
 40
0.0104167
 41
0.0104167
  0
VERTEX
  8
0
 10
6.42449
 20
7.06099
 30
0.0
 40
0.0104167
 41
0.0104167
  0
VERTEX
  8
0
 10
6.42449
 20
6.79264
 30
0.0
 40
0.0104167
 41
0.0104167
  0
SEQEND
 8
0
  0
POLYLINE
  8
0
 62
     7
 66
     1
 10
0
 20
0
 30
0.0
 70
     1
 40
0
 41
0
  0
VERTEX
  8
0
 10
6.18311
 20
7.17042
 30
0.0
 40
0
 41
0
  0
VERTEX
  8
0
 10
6.24929
 20
7.17042
 30
0.0
 40
0
 41
0
  0
VERTEX
  8
0
 10
6.24929
 20
7.13883
 30
0.0
 40
0
 41
0
  0
VERTEX
  8
0
 10
6.18311
 20
7.13883
 30
0.0
 40
0
 41
0
  0
VERTEX
  8
0
 10
6.18311
 20
7.17042
 30
0.0
 40
0
 41
0
  0
SEQEND
 8
0
  0
POLYLINE
  8
0
 62
     0
 66
     1
 10
0
 20
0
 30
0.0
 70
     1
 40
0.75
 41
0.75
  0
VERTEX
  8
0
 10
6.18311
 20
7.17042
 30
0.0
 40
0.0104167
 41
0.0104167
  0
VERTEX
  8
0
 10
6.24929
 20
7.17042
 30
0.0
 40
0.0104167
 41
0.0104167
  0
VERTEX
  8
0
 10
6.24929
 20
7.13883
 30
0.0
 40
0.0104167
 41
0.0104167
  0
VERTEX
  8
0
 10
6.18311
 20
7.13883
 30
0.0
 40
0.0104167
 41
0.0104167
  0
VERTEX
  8
0
 10
6.18311
 20
7.17042
 30
0.0
 40
0.0104167
 41
0.0104167
  0
SEQEND
 8
0
  0
POLYLINE
  8
0
 62
     7
 66
     1
 10
0
 20
0
 30
0.0
 70
     1
 40
0
 41
0
  0
VERTEX
  8
0
 10
6.6359
 20
7.24826
 30
0.0
 40
0
 41
0
  0
VERTEX
  8
0
 10
6.75261
 20
7.24826
 30
0.0
 40
0
 41
0
  0
VERTEX
  8
0
 10
6.75261
 20
7.18474
 30
0.0
 40
0
 41
0
  0
VERTEX
  8
0
 10
6.6359
 20
7.18474
 30
0.0
 40
0
 41
0
  0
VERTEX
  8
0
 10
6.6359
 20
7.24826
 30
0.0
 40
0
 41
0
  0
SEQEND
 8
0
  0
POLYLINE
  8
0
 62
     0
 66
     1
 10
0
 20
0
 30
0.0
 70
     1
 40
0.75
 41
0.75
  0
VERTEX
  8
0
 10
6.6359
 20
7.24826
 30
0.0
 40
0.0104167
 41
0.0104167
  0
VERTEX
  8
0
 10
6.75261
 20
7.24826
 30
0.0
 40
0.0104167
 41
0.0104167
  0
VERTEX
  8
0
 10
6.75261
 20
7.18474
 30
0.0
 40
0.0104167
 41
0.0104167
  0
VERTEX
  8
0
 10
6.6359
 20
7.18474
 30
0.0
 40
0.0104167
 41
0.0104167
  0
VERTEX
  8
0
 10
6.6359
 20
7.24826
 30
0.0
 40
0.0104167
 41
0.0104167
  0
SEQEND
 8
0
  0
POLYLINE
  8
0
 62
     7
 66
     1
 10
0
 20
0
 30
0.0
 70
     1
 40
0
 41
0
  0
VERTEX
  8
0
 10
6.78071
 20
7.24826
 30
0.0
 40
0
 41
0
  0
VERTEX
  8
0
 10
6.8974
 20
7.24826
 30
0.0
 40
0
 41
0
  0
VERTEX
  8
0
 10
6.8974
 20
7.18474
 30
0.0
 40
0
 41
0
  0
VERTEX
  8
0
 10
6.78071
 20
7.18474
 30
0.0
 40
0
 41
0
  0
VERTEX
  8
0
 10
6.78071
 20
7.24826
 30
0.0
 40
0
 41
0
  0
SEQEND
 8
0
  0
POLYLINE
  8
0
 62
     0
 66
     1
 10
0
 20
0
 30
0.0
 70
     1
 40
0.75
 41
0.75
  0
VERTEX
  8
0
 10
6.78071
 20
7.24826
 30
0.0
 40
0.0104167
 41
0.0104167
  0
VERTEX
  8
0
 10
6.8974
 20
7.24826
 30
0.0
 40
0.0104167
 41
0.0104167
  0
VERTEX
  8
0
 10
6.8974
 20
7.18474
 30
0.0
 40
0.0104167
 41
0.0104167
  0
VERTEX
  8
0
 10
6.78071
 20
7.18474
 30
0.0
 40
0.0104167
 41
0.0104167
  0
VERTEX
  8
0
 10
6.78071
 20
7.24826
 30
0.0
 40
0.0104167
 41
0.0104167
  0
SEQEND
 8
0
  0
POLYLINE
  8
0
 62
     7
 66
     1
 10
0
 20
0
 30
0.0
 70
     1
 40
0
 41
0
  0
VERTEX
  8
0
 10
6.89632
 20
7.24826
 30
0.0
 40
0
 41
0
  0
VERTEX
  8
0
 10
6.93175
 20
7.24826
 30
0.0
 40
0
 41
0
  0
VERTEX
  8
0
 10
6.93175
 20
7.18474
 30
0.0
 40
0
 41
0
  0
VERTEX
  8
0
 10
6.89632
 20
7.18474
 30
0.0
 40
0
 41
0
  0
VERTEX
  8
0
 10
6.89632
 20
7.24826
 30
0.0
 40
0
 41
0
  0
SEQEND
 8
0
  0
POLYLINE
  8
0
 62
     0
 66
     1
 10
0
 20
0
 30
0.0
 70
     1
 40
0.75
 41
0.75
  0
VERTEX
  8
0
 10
6.89632
 20
7.24826
 30
0.0
 40
0.0104167
 41
0.0104167
  0
VERTEX
  8
0
 10
6.93175
 20
7.24826
 30
0.0
 40
0.0104167
 41
0.0104167
  0
VERTEX
  8
0
 10
6.93175
 20
7.18474
 30
0.0
 40
0.0104167
 41
0.0104167
  0
VERTEX
  8
0
 10
6.89632
 20
7.18474
 30
0.0
 40
0.0104167
 41
0.0104167
  0
VERTEX
  8
0
 10
6.89632
 20
7.24826
 30
0.0
 40
0.0104167
 41
0.0104167
  0
SEQEND
 8
0
  0
POLYLINE
  8
0
 62
     7
 66
     1
 10
0
 20
0
 30
0.0
 70
     1
 40
0
 41
0
  0
VERTEX
  8
0
 10
6.6026
 20
7.24826
 30
0.0
 40
0
 41
0
  0
VERTEX
  8
0
 10
6.6359
 20
7.24826
 30
0.0
 40
0
 41
0
  0
VERTEX
  8
0
 10
6.6359
 20
7.18474
 30
0.0
 40
0
 41
0
  0
VERTEX
  8
0
 10
6.6026
 20
7.18474
 30
0.0
 40
0
 41
0
  0
VERTEX
  8
0
 10
6.6026
 20
7.24826
 30
0.0
 40
0
 41
0
  0
SEQEND
 8
0
  0
POLYLINE
  8
0
 62
     0
 66
     1
 10
0
 20
0
 30
0.0
 70
     1
 40
0.75
 41
0.75
  0
VERTEX
  8
0
 10
6.6026
 20
7.24826
 30
0.0
 40
0.0104167
 41
0.0104167
  0
VERTEX
  8
0
 10
6.6359
 20
7.24826
 30
0.0
 40
0.0104167
 41
0.0104167
  0
VERTEX
  8
0
 10
6.6359
 20
7.18474
 30
0.0
 40
0.0104167
 41
0.0104167
  0
VERTEX
  8
0
 10
6.6026
 20
7.18474
 30
0.0
 40
0.0104167
 41
0.0104167
  0
VERTEX
  8
0
 10
6.6026
 20
7.24826
 30
0.0
 40
0.0104167
 41
0.0104167
  0
SEQEND
 8
0
  0
POLYLINE
  8
0
 62
     7
 66
     1
 10
0
 20
0
 30
0.0
 70
     1
 40
0
 41
0
  0
VERTEX
  8
0
 10
6.75261
 20
7.16493
 30
0.0
 40
0
 41
0
  0
VERTEX
  8
0
 10
6.75261
 20
7.15864
 30
0.0
 40
0
 41
0
  0
VERTEX
  8
0
 10
6.74892
 20
7.13971
 30
0.0
 40
0
 41
0
  0
VERTEX
  8
0
 10
6.73904
 20
7.11729
 30
0.0
 40
0
 41
0
  0
VERTEX
  8
0
 10
6.73594
 20
7.11285
 30
0.0
 40
0
 41
0
  0
VERTEX
  8
0
 10
6.73486
 20
7.11133
 30
0.0
 40
0
 41
0
  0
VERTEX
  8
0
 10
6.72472
 20
7.09674
 30
0.0
 40
0
 41
0
  0
VERTEX
  8
0
 10
6.72444
 20
7.09517
 30
0.0
 40
0
 41
0
  0
VERTEX
  8
0
 10
6.7239
 20
7.09229
 30
0.0
 40
0
 41
0
  0
VERTEX
  8
0
 10
6.72808
 20
7.07574
 30
0.0
 40
0
 41
0
  0
VERTEX
  8
0
 10
6.74474
 20
7.06288
 30
0.0
 40
0
 41
0
  0
VERTEX
  8
0
 10
6.75049
 20
7.06179
 30
0.0
 40
0
 41
0
  0
VERTEX
  8
0
 10
6.75179
 20
7.06158
 30
0.0
 40
0
 41
0
  0
VERTEX
  8
0
 10
6.76335
 20
7.06076
 30
0.0
 40
0
 41
0
  0
VERTEX
  8
0
 10
6.76719
 20
7.06076
 30
0.0
 40
0
 41
0
  0
VERTEX
  8
0
 10
6.76611
 20
7.06076
 30
0.0
 40
0
 41
0
  0
VERTEX
  8
0
 10
6.77029
 20
7.06076
 30
0.0
 40
0
 41
0
  0
VERTEX
  8
0
 10
6.78153
 20
7.06158
 30
0.0
 40
0
 41
0
  0
VERTEX
  8
0
 10
6.78282
 20
7.06179
 30
0.0
 40
0
 41
0
  0
VERTEX
  8
0
 10
6.78851
 20
7.06288
 30
0.0
 40
0
 41
0
  0
VERTEX
  8
0
 10
6.80518
 20
7.07574
 30
0.0
 40
0
 41
0
  0
VERTEX
  8
0
 10
6.80935
 20
7.09229
 30
0.0
 40
0
 41
0
  0
VERTEX
  8
0
 10
6.80886
 20
7.09517
 30
0.0
 40
0
 41
0
  0
VERTEX
  8
0
 10
6.8086
 20
7.09674
 30
0.0
 40
0
 41
0
  0
VERTEX
  8
0
 10
6.79839
 20
7.11133
 30
0.0
 40
0
 41
0
  0
VERTEX
  8
0
 10
6.79736
 20
7.11285
 30
0.0
 40
0
 41
0
  0
VERTEX
  8
0
 10
6.79422
 20
7.11729
 30
0.0
 40
0
 41
0
  0
VERTEX
  8
0
 10
6.78435
 20
7.13971
 30
0.0
 40
0
 41
0
  0
VERTEX
  8
0
 10
6.78071
 20
7.15864
 30
0.0
 40
0
 41
0
  0
VERTEX
  8
0
 10
6.78071
 20
7.16493
 30
0.0
 40
0
 41
0
  0
SEQEND
 8
0
  0
POLYLINE
  8
0
 62
     0
 66
     1
 10
0
 20
0
 30
0.0
 40
0.75
 41
0.75
  0
VERTEX
  8
0
 10
6.75261
 20
7.16493
 30
0.0
 40
0.0104167
 41
0.0104167
  0
VERTEX
  8
0
 10
6.75261
 20
7.15864
 30
0.0
 40
0.0104167
 41
0.0104167
  0
VERTEX
  8
0
 10
6.74892
 20
7.13971
 30
0.0
 40
0.0104167
 41
0.0104167
  0
VERTEX
  8
0
 10
6.73904
 20
7.11729
 30
0.0
 40
0.0104167
 41
0.0104167
  0
VERTEX
  8
0
 10
6.73594
 20
7.11285
 30
0.0
 40
0.0104167
 41
0.0104167
  0
VERTEX
  8
0
 10
6.73486
 20
7.11133
 30
0.0
 40
0.0104167
 41
0.0104167
  0
VERTEX
  8
0
 10
6.72472
 20
7.09674
 30
0.0
 40
0.0104167
 41
0.0104167
  0
VERTEX
  8
0
 10
6.72444
 20
7.09517
 30
0.0
 40
0.0104167
 41
0.0104167
  0
VERTEX
  8
0
 10
6.7239
 20
7.09229
 30
0.0
 40
0.0104167
 41
0.0104167
  0
VERTEX
  8
0
 10
6.72808
 20
7.07574
 30
0.0
 40
0.0104167
 41
0.0104167
  0
VERTEX
  8
0
 10
6.74474
 20
7.06288
 30
0.0
 40
0.0104167
 41
0.0104167
  0
VERTEX
  8
0
 10
6.75049
 20
7.06179
 30
0.0
 40
0.0104167
 41
0.0104167
  0
VERTEX
  8
0
 10
6.75179
 20
7.06158
 30
0.0
 40
0.0104167
 41
0.0104167
  0
VERTEX
  8
0
 10
6.76335
 20
7.06076
 30
0.0
 40
0.0104167
 41
0.0104167
  0
VERTEX
  8
0
 10
6.76719
 20
7.06076
 30
0.0
 40
0.0104167
 41
0.0104167
  0
VERTEX
  8
0
 10
6.76611
 20
7.06076
 30
0.0
 40
0.0104167
 41
0.0104167
  0
VERTEX
  8
0
 10
6.77029
 20
7.06076
 30
0.0
 40
0.0104167
 41
0.0104167
  0
VERTEX
  8
0
 10
6.78153
 20
7.06158
 30
0.0
 40
0.0104167
 41
0.0104167
  0
VERTEX
  8
0
 10
6.78282
 20
7.06179
 30
0.0
 40
0.0104167
 41
0.0104167
  0
VERTEX
  8
0
 10
6.78851
 20
7.06288
 30
0.0
 40
0.0104167
 41
0.0104167
  0
VERTEX
  8
0
 10
6.80518
 20
7.07574
 30
0.0
 40
0.0104167
 41
0.0104167
  0
VERTEX
  8
0
 10
6.80935
 20
7.09229
 30
0.0
 40
0.0104167
 41
0.0104167
  0
VERTEX
  8
0
 10
6.80886
 20
7.09517
 30
0.0
 40
0.0104167
 41
0.0104167
  0
VERTEX
  8
0
 10
6.8086
 20
7.09674
 30
0.0
 40
0.0104167
 41
0.0104167
  0
VERTEX
  8
0
 10
6.79839
 20
7.11133
 30
0.0
 40
0.0104167
 41
0.0104167
  0
VERTEX
  8
0
 10
6.79736
 20
7.11285
 30
0.0
 40
0.0104167
 41
0.0104167
  0
VERTEX
  8
0
 10
6.79422
 20
7.11729
 30
0.0
 40
0.0104167
 41
0.0104167
  0
VERTEX
  8
0
 10
6.78435
 20
7.13971
 30
0.0
 40
0.0104167
 41
0.0104167
  0
VERTEX
  8
0
 10
6.78071
 20
7.15864
 30
0.0
 40
0.0104167
 41
0.0104167
  0
VERTEX
  8
0
 10
6.78071
 20
7.16493
 30
0.0
 40
0.0104167
 41
0.0104167
  0
SEQEND
 8
0
  0
POLYLINE
  8
0
 62
     7
 66
     1
 10
0
 20
0
 30
0.0
 70
     1
 40
0
 41
0
  0
VERTEX
  8
0
 10
6.72444
 20
7.09407
 30
0.0
 40
0
 41
0
  0
VERTEX
  8
0
 10
6.72472
 20
7.09358
 30
0.0
 40
0
 41
0
  0
VERTEX
  8
0
 10
6.73654
 20
7.08344
 30
0.0
 40
0
 41
0
  0
VERTEX
  8
0
 10
6.76031
 20
7.07433
 30
0.0
 40
0
 41
0
  0
VERTEX
  8
0
 10
6.76824
 20
7.07433
 30
0.0
 40
0
 41
0
  0
VERTEX
  8
0
 10
6.77447
 20
7.0746
 30
0.0
 40
0
 41
0
  0
VERTEX
  8
0
 10
6.7971
 20
7.08382
 30
0.0
 40
0
 41
0
  0
VERTEX
  8
0
 10
6.80832
 20
7.09358
 30
0.0
 40
0
 41
0
  0
VERTEX
  8
0
 10
6.80886
 20
7.09407
 30
0.0
 40
0
 41
0
  0
SEQEND
 8
0
  0
POLYLINE
  8
0
 62
     0
 66
     1
 10
0
 20
0
 30
0.0
 40
0.75
 41
0.75
  0
VERTEX
  8
0
 10
6.72444
 20
7.09407
 30
0.0
 40
0.0104167
 41
0.0104167
  0
VERTEX
  8
0
 10
6.72472
 20
7.09358
 30
0.0
 40
0.0104167
 41
0.0104167
  0
VERTEX
  8
0
 10
6.73654
 20
7.08344
 30
0.0
 40
0.0104167
 41
0.0104167
  0
VERTEX
  8
0
 10
6.76031
 20
7.07433
 30
0.0
 40
0.0104167
 41
0.0104167
  0
VERTEX
  8
0
 10
6.76824
 20
7.07433
 30
0.0
 40
0.0104167
 41
0.0104167
  0
VERTEX
  8
0
 10
6.77447
 20
7.0746
 30
0.0
 40
0.0104167
 41
0.0104167
  0
VERTEX
  8
0
 10
6.7971
 20
7.08382
 30
0.0
 40
0.0104167
 41
0.0104167
  0
VERTEX
  8
0
 10
6.80832
 20
7.09358
 30
0.0
 40
0.0104167
 41
0.0104167
  0
VERTEX
  8
0
 10
6.80886
 20
7.09407
 30
0.0
 40
0.0104167
 41
0.0104167
  0
SEQEND
 8
0
  0
POLYLINE
  8
0
 62
     7
 66
     1
 10
0
 20
0
 30
0.0
 70
     1
 40
0
 41
0
  0
VERTEX
  8
0
 10
6.75261
 20
7.24826
 30
0.0
 40
0
 41
0
  0
VERTEX
  8
0
 10
6.78071
 20
7.24826
 30
0.0
 40
0
 41
0
  0
VERTEX
  8
0
 10
6.78071
 20
7.16493
 30
0.0
 40
0
 41
0
  0
VERTEX
  8
0
 10
6.77365
 20
7.16493
 30
0.0
 40
0
 41
0
  0
VERTEX
  8
0
 10
6.75786
 20
7.16493
 30
0.0
 40
0
 41
0
  0
VERTEX
  8
0
 10
6.75261
 20
7.16493
 30
0.0
 40
0
 41
0
  0
VERTEX
  8
0
 10
6.75261
 20
7.18576
 30
0.0
 40
0
 41
0
  0
VERTEX
  8
0
 10
6.75261
 20
7.23264
 30
0.0
 40
0
 41
0
  0
VERTEX
  8
0
 10
6.75261
 20
7.24826
 30
0.0
 40
0
 41
0
  0
SEQEND
 8
0
  0
POLYLINE
  8
0
 62
     0
 66
     1
 10
0
 20
0
 30
0.0
 70
     1
 40
0.75
 41
0.75
  0
VERTEX
  8
0
 10
6.75261
 20
7.24826
 30
0.0
 40
0.0104167
 41
0.0104167
  0
VERTEX
  8
0
 10
6.78071
 20
7.24826
 30
0.0
 40
0.0104167
 41
0.0104167
  0
VERTEX
  8
0
 10
6.78071
 20
7.16493
 30
0.0
 40
0.0104167
 41
0.0104167
  0
VERTEX
  8
0
 10
6.77365
 20
7.16493
 30
0.0
 40
0.0104167
 41
0.0104167
  0
VERTEX
  8
0
 10
6.75786
 20
7.16493
 30
0.0
 40
0.0104167
 41
0.0104167
  0
VERTEX
  8
0
 10
6.75261
 20
7.16493
 30
0.0
 40
0.0104167
 41
0.0104167
  0
VERTEX
  8
0
 10
6.75261
 20
7.18576
 30
0.0
 40
0.0104167
 41
0.0104167
  0
VERTEX
  8
0
 10
6.75261
 20
7.23264
 30
0.0
 40
0.0104167
 41
0.0104167
  0
VERTEX
  8
0
 10
6.75261
 20
7.24826
 30
0.0
 40
0.0104167
 41
0.0104167
  0
SEQEND
 8
0
  0
POLYLINE
  8
0
 62
     7
 66
     1
 10
0
 20
0
 30
0.0
 70
     1
 40
0
 41
0
  0
VERTEX
  8
0
 10
6.6359
 20
7.21599
 30
0.0
 40
0
 41
0
  0
VERTEX
  8
0
 10
6.63911
 20
7.21724
 30
0.0
 40
0
 41
0
  0
VERTEX
  8
0
 10
6.64876
 20
7.22108
 30
0.0
 40
0
 41
0
  0
VERTEX
  8
0
 10
6.65153
 20
7.22222
 30
0.0
 40
0
 41
0
  0
VERTEX
  8
0
 10
6.65153
 20
7.22222
 30
0.0
 40
0
 41
0
  0
VERTEX
  8
0
 10
6.65153
 20
7.22081
 30
0.0
 40
0
 41
0
  0
VERTEX
  8
0
 10
6.65153
 20
7.21653
 30
0.0
 40
0
 41
0
  0
VERTEX
  8
0
 10
6.65153
 20
7.21224
 30
0.0
 40
0
 41
0
  0
VERTEX
  8
0
 10
6.65153
 20
7.21078
 30
0.0
 40
0
 41
0
  0
VERTEX
  8
0
 10
6.65153
 20
7.21078
 30
0.0
 40
0
 41
0
  0
VERTEX
  8
0
 10
6.64914
 20
7.21143
 30
0.0
 40
0
 41
0
  0
VERTEX
  8
0
 10
6.63917
 20
7.21485
 30
0.0
 40
0
 41
0
  0
VERTEX
  8
0
 10
6.6359
 20
7.21599
 30
0.0
 40
0
 41
0
  0
SEQEND
 8
0
  0
POLYLINE
  8
0
 62
     0
 66
     1
 10
0
 20
0
 30
0.0
 70
     1
 40
0.75
 41
0.75
  0
VERTEX
  8
0
 10
6.6359
 20
7.21599
 30
0.0
 40
0.0104167
 41
0.0104167
  0
VERTEX
  8
0
 10
6.63911
 20
7.21724
 30
0.0
 40
0.0104167
 41
0.0104167
  0
VERTEX
  8
0
 10
6.64876
 20
7.22108
 30
0.0
 40
0.0104167
 41
0.0104167
  0
VERTEX
  8
0
 10
6.65153
 20
7.22222
 30
0.0
 40
0.0104167
 41
0.0104167
  0
VERTEX
  8
0
 10
6.65153
 20
7.22222
 30
0.0
 40
0.0104167
 41
0.0104167
  0
VERTEX
  8
0
 10
6.65153
 20
7.22081
 30
0.0
 40
0.0104167
 41
0.0104167
  0
VERTEX
  8
0
 10
6.65153
 20
7.21653
 30
0.0
 40
0.0104167
 41
0.0104167
  0
VERTEX
  8
0
 10
6.65153
 20
7.21224
 30
0.0
 40
0.0104167
 41
0.0104167
  0
VERTEX
  8
0
 10
6.65153
 20
7.21078
 30
0.0
 40
0.0104167
 41
0.0104167
  0
VERTEX
  8
0
 10
6.65153
 20
7.21078
 30
0.0
 40
0.0104167
 41
0.0104167
  0
VERTEX
  8
0
 10
6.64914
 20
7.21143
 30
0.0
 40
0.0104167
 41
0.0104167
  0
VERTEX
  8
0
 10
6.63917
 20
7.21485
 30
0.0
 40
0.0104167
 41
0.0104167
  0
VERTEX
  8
0
 10
6.6359
 20
7.21599
 30
0.0
 40
0.0104167
 41
0.0104167
  0
SEQEND
 8
0
  0
POLYLINE
  8
0
 62
     7
 66
     1
 10
0
 20
0
 30
0.0
 70
     1
 40
0
 41
0
  0
VERTEX
  8
0
 10
6.89632
 20
7.21599
 30
0.0
 40
0
 41
0
  0
VERTEX
  8
0
 10
6.89307
 20
7.21724
 30
0.0
 40
0
 41
0
  0
VERTEX
  8
0
 10
6.8834
 20
7.22108
 30
0.0
 40
0
 41
0
  0
VERTEX
  8
0
 10
6.88069
 20
7.22222
 30
0.0
 40
0
 41
0
  0
VERTEX
  8
0
 10
6.88069
 20
7.22222
 30
0.0
 40
0
 41
0
  0
VERTEX
  8
0
 10
6.88069
 20
7.22081
 30
0.0
 40
0
 41
0
  0
VERTEX
  8
0
 10
6.88069
 20
7.21653
 30
0.0
 40
0
 41
0
  0
VERTEX
  8
0
 10
6.88069
 20
7.21224
 30
0.0
 40
0
 41
0
  0
VERTEX
  8
0
 10
6.88069
 20
7.21078
 30
0.0
 40
0
 41
0
  0
VERTEX
  8
0
 10
6.88069
 20
7.21078
 30
0.0
 40
0
 41
0
  0
VERTEX
  8
0
 10
6.88303
 20
7.21143
 30
0.0
 40
0
 41
0
  0
VERTEX
  8
0
 10
6.89301
 20
7.21485
 30
0.0
 40
0
 41
0
  0
VERTEX
  8
0
 10
6.89632
 20
7.21599
 30
0.0
 40
0
 41
0
  0
SEQEND
 8
0
  0
POLYLINE
  8
0
 62
     0
 66
     1
 10
0
 20
0
 30
0.0
 70
     1
 40
0.75
 41
0.75
  0
VERTEX
  8
0
 10
6.89632
 20
7.21599
 30
0.0
 40
0.0104167
 41
0.0104167
  0
VERTEX
  8
0
 10
6.89307
 20
7.21724
 30
0.0
 40
0.0104167
 41
0.0104167
  0
VERTEX
  8
0
 10
6.8834
 20
7.22108
 30
0.0
 40
0.0104167
 41
0.0104167
  0
VERTEX
  8
0
 10
6.88069
 20
7.22222
 30
0.0
 40
0.0104167
 41
0.0104167
  0
VERTEX
  8
0
 10
6.88069
 20
7.22222
 30
0.0
 40
0.0104167
 41
0.0104167
  0
VERTEX
  8
0
 10
6.88069
 20
7.22081
 30
0.0
 40
0.0104167
 41
0.0104167
  0
VERTEX
  8
0
 10
6.88069
 20
7.21653
 30
0.0
 40
0.0104167
 41
0.0104167
  0
VERTEX
  8
0
 10
6.88069
 20
7.21224
 30
0.0
 40
0.0104167
 41
0.0104167
  0
VERTEX
  8
0
 10
6.88069
 20
7.21078
 30
0.0
 40
0.0104167
 41
0.0104167
  0
VERTEX
  8
0
 10
6.88069
 20
7.21078
 30
0.0
 40
0.0104167
 41
0.0104167
  0
VERTEX
  8
0
 10
6.88303
 20
7.21143
 30
0.0
 40
0.0104167
 41
0.0104167
  0
VERTEX
  8
0
 10
6.89301
 20
7.21485
 30
0.0
 40
0.0104167
 41
0.0104167
  0
VERTEX
  8
0
 10
6.89632
 20
7.21599
 30
0.0
 40
0.0104167
 41
0.0104167
  0
SEQEND
 8
0
  0
POLYLINE
  8
0
 62
     7
 66
     1
 10
0
 20
0
 30
0.0
 70
     1
 40
0
 41
0
  0
VERTEX
  8
0
 10
6.64606
 20
6.57796
 30
0.0
 40
0
 41
0
  0
VERTEX
  8
0
 10
7.01731
 20
6.57796
 30
0.0
 40
0
 41
0
  0
VERTEX
  8
0
 10
7.01731
 20
6.01628
 30
0.0
 40
0
 41
0
  0
VERTEX
  8
0
 10
6.64606
 20
6.01628
 30
0.0
 40
0
 41
0
  0
VERTEX
  8
0
 10
6.64606
 20
6.57796
 30
0.0
 40
0
 41
0
  0
SEQEND
 8
0
  0
POLYLINE
  8
0
 62
     0
 66
     1
 10
0
 20
0
 30
0.0
 70
     1
 40
0.75
 41
0.75
  0
VERTEX
  8
0
 10
6.64606
 20
6.57796
 30
0.0
 40
0.0104167
 41
0.0104167
  0
VERTEX
  8
0
 10
6.64606
 20
6.01628
 30
0.0
 40
0.0104167
 41
0.0104167
  0
VERTEX
  8
0
 10
7.01731
 20
6.01628
 30
0.0
 40
0.0104167
 41
0.0104167
  0
VERTEX
  8
0
 10
7.01731
 20
6.57796
 30
0.0
 40
0.0104167
 41
0.0104167
  0
VERTEX
  8
0
 10
6.64606
 20
6.57796
 30
0.0
 40
0.0104167
 41
0.0104167
  0
SEQEND
 8
0
  0
POLYLINE
  8
0
 62
     7
 66
     1
 10
0
 20
0
 30
0.0
 70
     1
 40
0
 41
0
  0
VERTEX
  8
0
 10
6.67888
 20
6.53119
 30
0.0
 40
0
 41
0
  0
VERTEX
  8
0
 10
6.91624
 20
6.53119
 30
0.0
 40
0
 41
0
  0
VERTEX
  8
0
 10
6.91624
 20
6.06304
 30
0.0
 40
0
 41
0
  0
VERTEX
  8
0
 10
6.67888
 20
6.06304
 30
0.0
 40
0
 41
0
  0
VERTEX
  8
0
 10
6.67888
 20
6.53119
 30
0.0
 40
0
 41
0
  0
SEQEND
 8
0
  0
POLYLINE
  8
0
 62
     0
 66
     1
 10
0
 20
0
 30
0.0
 70
     1
 40
0.75
 41
0.75
  0
VERTEX
  8
0
 10
6.67888
 20
6.53119
 30
0.0
 40
0.0104167
 41
0.0104167
  0
VERTEX
  8
0
 10
6.67888
 20
6.06304
 30
0.0
 40
0.0104167
 41
0.0104167
  0
VERTEX
  8
0
 10
6.91624
 20
6.06304
 30
0.0
 40
0.0104167
 41
0.0104167
  0
VERTEX
  8
0
 10
6.91624
 20
6.53119
 30
0.0
 40
0.0104167
 41
0.0104167
  0
VERTEX
  8
0
 10
6.67888
 20
6.53119
 30
0.0
 40
0.0104167
 41
0.0104167
  0
SEQEND
 8
0
  0
POLYLINE
  8
0
 62
     7
 66
     1
 10
0
 20
0
 30
0.0
 70
     1
 40
0
 41
0
  0
VERTEX
  8
0
 10
6.81803
 20
6.26069
 30
0.0
 40
0
 41
0
  0
VERTEX
  8
0
 10
6.81158
 20
6.26069
 30
0.0
 40
0
 41
0
  0
VERTEX
  8
0
 10
6.79221
 20
6.27138
 30
0.0
 40
0
 41
0
  0
VERTEX
  8
0
 10
6.78157
 20
6.29075
 30
0.0
 40
0
 41
0
  0
VERTEX
  8
0
 10
6.78157
 20
6.29715
 30
0.0
 40
0
 41
0
  0
VERTEX
  8
0
 10
6.78157
 20
6.3036
 30
0.0
 40
0
 41
0
  0
VERTEX
  8
0
 10
6.79221
 20
6.32297
 30
0.0
 40
0
 41
0
  0
VERTEX
  8
0
 10
6.81158
 20
6.33361
 30
0.0
 40
0
 41
0
  0
VERTEX
  8
0
 10
6.81803
 20
6.33361
 30
0.0
 40
0
 41
0
  0
VERTEX
  8
0
 10
6.82443
 20
6.33361
 30
0.0
 40
0
 41
0
  0
VERTEX
  8
0
 10
6.84381
 20
6.32297
 30
0.0
 40
0
 41
0
  0
VERTEX
  8
0
 10
6.85449
 20
6.3036
 30
0.0
 40
0
 41
0
  0
VERTEX
  8
0
 10
6.85449
 20
6.29715
 30
0.0
 40
0
 41
0
  0
VERTEX
  8
0
 10
6.85449
 20
6.29075
 30
0.0
 40
0
 41
0
  0
VERTEX
  8
0
 10
6.84381
 20
6.27138
 30
0.0
 40
0
 41
0
  0
VERTEX
  8
0
 10
6.82443
 20
6.26069
 30
0.0
 40
0
 41
0
  0
VERTEX
  8
0
 10
6.81803
 20
6.26069
 30
0.0
 40
0
 41
0
  0
SEQEND
 8
0
  0
POLYLINE
  8
0
 62
     0
 66
     1
 10
0
 20
0
 30
0.0
 70
     1
 40
0.6
 41
0.6
  0
VERTEX
  8
0
 10
6.81803
 20
6.26069
 30
0.0
 40
0.00833333
 41
0.00833333
  0
VERTEX
  8
0
 10
6.81158
 20
6.26069
 30
0.0
 40
0.00833333
 41
0.00833333
  0
VERTEX
  8
0
 10
6.79221
 20
6.27138
 30
0.0
 40
0.00833333
 41
0.00833333
  0
VERTEX
  8
0
 10
6.78157
 20
6.29075
 30
0.0
 40
0.00833333
 41
0.00833333
  0
VERTEX
  8
0
 10
6.78157
 20
6.29715
 30
0.0
 40
0.00833333
 41
0.00833333
  0
VERTEX
  8
0
 10
6.78157
 20
6.3036
 30
0.0
 40
0.00833333
 41
0.00833333
  0
VERTEX
  8
0
 10
6.79221
 20
6.32297
 30
0.0
 40
0.00833333
 41
0.00833333
  0
VERTEX
  8
0
 10
6.81158
 20
6.33361
 30
0.0
 40
0.00833333
 41
0.00833333
  0
VERTEX
  8
0
 10
6.81803
 20
6.33361
 30
0.0
 40
0.00833333
 41
0.00833333
  0
VERTEX
  8
0
 10
6.82443
 20
6.33361
 30
0.0
 40
0.00833333
 41
0.00833333
  0
VERTEX
  8
0
 10
6.84381
 20
6.32297
 30
0.0
 40
0.00833333
 41
0.00833333
  0
VERTEX
  8
0
 10
6.85449
 20
6.3036
 30
0.0
 40
0.00833333
 41
0.00833333
  0
VERTEX
  8
0
 10
6.85449
 20
6.29715
 30
0.0
 40
0.00833333
 41
0.00833333
  0
VERTEX
  8
0
 10
6.85449
 20
6.29075
 30
0.0
 40
0.00833333
 41
0.00833333
  0
VERTEX
  8
0
 10
6.84381
 20
6.27138
 30
0.0
 40
0.00833333
 41
0.00833333
  0
VERTEX
  8
0
 10
6.82443
 20
6.26069
 30
0.0
 40
0.00833333
 41
0.00833333
  0
VERTEX
  8
0
 10
6.81803
 20
6.26069
 30
0.0
 40
0.00833333
 41
0.00833333
  0
SEQEND
 8
0
  0
POLYLINE
  8
0
 62
     7
 66
     1
 10
0
 20
0
 30
0.0
 70
     1
 40
0
 41
0
  0
VERTEX
  8
0
 10
6.81803
 20
6.27632
 30
0.0
 40
0
 41
0
  0
VERTEX
  8
0
 10
6.81435
 20
6.27632
 30
0.0
 40
0
 41
0
  0
VERTEX
  8
0
 10
6.80328
 20
6.28244
 30
0.0
 40
0
 41
0
  0
VERTEX
  8
0
 10
6.79719
 20
6.29351
 30
0.0
 40
0
 41
0
  0
VERTEX
  8
0
 10
6.79719
 20
6.29715
 30
0.0
 40
0
 41
0
  0
VERTEX
  8
0
 10
6.79719
 20
6.30083
 30
0.0
 40
0
 41
0
  0
VERTEX
  8
0
 10
6.80328
 20
6.3119
 30
0.0
 40
0
 41
0
  0
VERTEX
  8
0
 10
6.81435
 20
6.31799
 30
0.0
 40
0
 41
0
  0
VERTEX
  8
0
 10
6.81803
 20
6.31799
 30
0.0
 40
0
 41
0
  0
VERTEX
  8
0
 10
6.82167
 20
6.31799
 30
0.0
 40
0
 41
0
  0
VERTEX
  8
0
 10
6.83274
 20
6.3119
 30
0.0
 40
0
 41
0
  0
VERTEX
  8
0
 10
6.83886
 20
6.30083
 30
0.0
 40
0
 41
0
  0
VERTEX
  8
0
 10
6.83886
 20
6.29715
 30
0.0
 40
0
 41
0
  0
VERTEX
  8
0
 10
6.83886
 20
6.29351
 30
0.0
 40
0
 41
0
  0
VERTEX
  8
0
 10
6.83274
 20
6.28244
 30
0.0
 40
0
 41
0
  0
VERTEX
  8
0
 10
6.82167
 20
6.27632
 30
0.0
 40
0
 41
0
  0
VERTEX
  8
0
 10
6.81803
 20
6.27632
 30
0.0
 40
0
 41
0
  0
SEQEND
 8
0
  0
POLYLINE
  8
0
 62
     0
 66
     1
 10
0
 20
0
 30
0.0
 70
     1
 40
0.6
 41
0.6
  0
VERTEX
  8
0
 10
6.81803
 20
6.27632
 30
0.0
 40
0.00833333
 41
0.00833333
  0
VERTEX
  8
0
 10
6.81435
 20
6.27632
 30
0.0
 40
0.00833333
 41
0.00833333
  0
VERTEX
  8
0
 10
6.80328
 20
6.28244
 30
0.0
 40
0.00833333
 41
0.00833333
  0
VERTEX
  8
0
 10
6.79719
 20
6.29351
 30
0.0
 40
0.00833333
 41
0.00833333
  0
VERTEX
  8
0
 10
6.79719
 20
6.29715
 30
0.0
 40
0.00833333
 41
0.00833333
  0
VERTEX
  8
0
 10
6.79719
 20
6.30083
 30
0.0
 40
0.00833333
 41
0.00833333
  0
VERTEX
  8
0
 10
6.80328
 20
6.3119
 30
0.0
 40
0.00833333
 41
0.00833333
  0
VERTEX
  8
0
 10
6.81435
 20
6.31799
 30
0.0
 40
0.00833333
 41
0.00833333
  0
VERTEX
  8
0
 10
6.81803
 20
6.31799
 30
0.0
 40
0.00833333
 41
0.00833333
  0
VERTEX
  8
0
 10
6.82167
 20
6.31799
 30
0.0
 40
0.00833333
 41
0.00833333
  0
VERTEX
  8
0
 10
6.83274
 20
6.3119
 30
0.0
 40
0.00833333
 41
0.00833333
  0
VERTEX
  8
0
 10
6.83886
 20
6.30083
 30
0.0
 40
0.00833333
 41
0.00833333
  0
VERTEX
  8
0
 10
6.83886
 20
6.29715
 30
0.0
 40
0.00833333
 41
0.00833333
  0
VERTEX
  8
0
 10
6.83886
 20
6.29351
 30
0.0
 40
0.00833333
 41
0.00833333
  0
VERTEX
  8
0
 10
6.83274
 20
6.28244
 30
0.0
 40
0.00833333
 41
0.00833333
  0
VERTEX
  8
0
 10
6.82167
 20
6.27632
 30
0.0
 40
0.00833333
 41
0.00833333
  0
VERTEX
  8
0
 10
6.81803
 20
6.27632
 30
0.0
 40
0.00833333
 41
0.00833333
  0
SEQEND
 8
0
  0
POLYLINE
  8
0
 62
     7
 66
     1
 10
0
 20
0
 30
0.0
 70
     1
 40
0
 41
0
  0
VERTEX
  8
0
 10
6.8405
 20
6.32525
 30
0.0
 40
0
 41
0
  0
VERTEX
  8
0
 10
6.98633
 20
6.32525
 30
0.0
 40
0
 41
0
  0
VERTEX
  8
0
 10
6.98633
 20
6.26275
 30
0.0
 40
0
 41
0
  0
VERTEX
  8
0
 10
6.8405
 20
6.26275
 30
0.0
 40
0
 41
0
  0
VERTEX
  8
0
 10
6.8405
 20
6.32525
 30
0.0
 40
0
 41
0
  0
SEQEND
 8
0
  0
POLYLINE
  8
0
 62
     0
 66
     1
 10
0
 20
0
 30
0.0
 70
     1
 40
0.75
 41
0.75
  0
VERTEX
  8
0
 10
6.8405
 20
6.32525
 30
0.0
 40
0.0104167
 41
0.0104167
  0
VERTEX
  8
0
 10
6.8405
 20
6.26275
 30
0.0
 40
0.0104167
 41
0.0104167
  0
VERTEX
  8
0
 10
6.98633
 20
6.26275
 30
0.0
 40
0.0104167
 41
0.0104167
  0
VERTEX
  8
0
 10
6.98633
 20
6.32525
 30
0.0
 40
0.0104167
 41
0.0104167
  0
VERTEX
  8
0
 10
6.8405
 20
6.32525
 30
0.0
 40
0.0104167
 41
0.0104167
  0
SEQEND
 8
0
  0
POLYLINE
  8
0
 62
     7
 66
     1
 10
0
 20
0
 30
0.0
 70
     1
 40
0
 41
0
  0
VERTEX
  8
0
 10
1.90896
 20
1.66114
 30
0.0
 40
0
 41
0
  0
VERTEX
  8
0
 10
4.42854
 20
1.66114
 30
0.0
 40
0
 41
0
  0
VERTEX
  8
0
 10
4.42854
 20
1.03613
 30
0.0
 40
0
 41
0
  0
VERTEX
  8
0
 10
1.90896
 20
1.03613
 30
0.0
 40
0
 41
0
  0
VERTEX
  8
0
 10
1.90896
 20
1.66114
 30
0.0
 40
0
 41
0
  0
SEQEND
 8
0
  0
POLYLINE
  8
0
 62
     0
 66
     1
 10
0
 20
0
 30
0.0
 70
     1
 40
0.75
 41
0.75
  0
VERTEX
  8
0
 10
1.90896
 20
1.66114
 30
0.0
 40
0.0104167
 41
0.0104167
  0
VERTEX
  8
0
 10
4.42854
 20
1.66114
 30
0.0
 40
0.0104167
 41
0.0104167
  0
VERTEX
  8
0
 10
4.42854
 20
1.03613
 30
0.0
 40
0.0104167
 41
0.0104167
  0
VERTEX
  8
0
 10
1.90896
 20
1.03613
 30
0.0
 40
0.0104167
 41
0.0104167
  0
VERTEX
  8
0
 10
1.90896
 20
1.66114
 30
0.0
 40
0.0104167
 41
0.0104167
  0
SEQEND
 8
0
  0
POLYLINE
  8
0
 62
     0
 66
     1
 10
0
 20
0
 30
0.0
 70
     1
 40
0
 41
0
  0
VERTEX
  8
0
 10
4.42854
 20
1.66092
 30
0.0
 40
0
 41
0
  0
VERTEX
  8
0
 10
4.75043
 20
1.66092
 30
0.0
 40
0
 41
0
  0
VERTEX
  8
0
 10
4.75043
 20
1.03369
 30
0.0
 40
0
 41
0
  0
VERTEX
  8
0
 10
4.42854
 20
1.03369
 30
0.0
 40
0
 41
0
  0
VERTEX
  8
0
 10
4.42854
 20
1.66092
 30
0.0
 40
0
 41
0
  0
SEQEND
 8
0
  0
POLYLINE
  8
0
 62
     7
 66
     1
 10
0
 20
0
 30
0.0
 70
     1
 40
0
 41
0
  0
VERTEX
  8
0
 10
4.01893
 20
1.60975
 30
0.0
 40
0
 41
0
  0
VERTEX
  8
0
 10
4.31581
 20
1.60975
 30
0.0
 40
0
 41
0
  0
VERTEX
  8
0
 10
4.31581
 20
1.141
 30
0.0
 40
0
 41
0
  0
VERTEX
  8
0
 10
4.01893
 20
1.141
 30
0.0
 40
0
 41
0
  0
VERTEX
  8
0
 10
4.01893
 20
1.60975
 30
0.0
 40
0
 41
0
  0
SEQEND
 8
0
  0
POLYLINE
  8
0
 62
     0
 66
     1
 10
0
 20
0
 30
0.0
 70
     1
 40
0.75
 41
0.75
  0
VERTEX
  8
0
 10
4.01893
 20
1.60975
 30
0.0
 40
0.0104167
 41
0.0104167
  0
VERTEX
  8
0
 10
4.31581
 20
1.60975
 30
0.0
 40
0.0104167
 41
0.0104167
  0
VERTEX
  8
0
 10
4.31581
 20
1.141
 30
0.0
 40
0.0104167
 41
0.0104167
  0
VERTEX
  8
0
 10
4.01893
 20
1.141
 30
0.0
 40
0.0104167
 41
0.0104167
  0
VERTEX
  8
0
 10
4.01893
 20
1.60975
 30
0.0
 40
0.0104167
 41
0.0104167
  0
SEQEND
 8
0
  0
POLYLINE
  8
0
 62
     7
 66
     1
 10
0
 20
0
 30
0.0
 70
     1
 40
0
 41
0
  0
VERTEX
  8
0
 10
3.69081
 20
1.61083
 30
0.0
 40
0
 41
0
  0
VERTEX
  8
0
 10
3.98768
 20
1.61083
 30
0.0
 40
0
 41
0
  0
VERTEX
  8
0
 10
3.98768
 20
1.14209
 30
0.0
 40
0
 41
0
  0
VERTEX
  8
0
 10
3.69081
 20
1.14209
 30
0.0
 40
0
 41
0
  0
VERTEX
  8
0
 10
3.69081
 20
1.61083
 30
0.0
 40
0
 41
0
  0
SEQEND
 8
0
  0
POLYLINE
  8
0
 62
     0
 66
     1
 10
0
 20
0
 30
0.0
 70
     1
 40
0.75
 41
0.75
  0
VERTEX
  8
0
 10
3.69081
 20
1.61083
 30
0.0
 40
0.0104167
 41
0.0104167
  0
VERTEX
  8
0
 10
3.98768
 20
1.61083
 30
0.0
 40
0.0104167
 41
0.0104167
  0
VERTEX
  8
0
 10
3.98768
 20
1.14209
 30
0.0
 40
0.0104167
 41
0.0104167
  0
VERTEX
  8
0
 10
3.69081
 20
1.14209
 30
0.0
 40
0.0104167
 41
0.0104167
  0
VERTEX
  8
0
 10
3.69081
 20
1.61083
 30
0.0
 40
0.0104167
 41
0.0104167
  0
SEQEND
 8
0
  0
POLYLINE
  8
0
 62
     7
 66
     1
 10
0
 20
0
 30
0.0
 70
     1
 40
0
 41
0
  0
VERTEX
  8
0
 10
4.12619
 20
1.37647
 30
0.0
 40
0
 41
0
  0
VERTEX
  8
0
 10
4.12619
 20
1.38292
 30
0.0
 40
0
 41
0
  0
VERTEX
  8
0
 10
4.13683
 20
1.40229
 30
0.0
 40
0
 41
0
  0
VERTEX
  8
0
 10
4.15619
 20
1.41292
 30
0.0
 40
0
 41
0
  0
VERTEX
  8
0
 10
4.16265
 20
1.41292
 30
0.0
 40
0
 41
0
  0
VERTEX
  8
0
 10
4.16906
 20
1.41292
 30
0.0
 40
0
 41
0
  0
VERTEX
  8
0
 10
4.18842
 20
1.40229
 30
0.0
 40
0
 41
0
  0
VERTEX
  8
0
 10
4.19911
 20
1.38292
 30
0.0
 40
0
 41
0
  0
VERTEX
  8
0
 10
4.19911
 20
1.37647
 30
0.0
 40
0
 41
0
  0
VERTEX
  8
0
 10
4.19911
 20
1.37006
 30
0.0
 40
0
 41
0
  0
VERTEX
  8
0
 10
4.18842
 20
1.35069
 30
0.0
 40
0
 41
0
  0
VERTEX
  8
0
 10
4.16906
 20
1.34001
 30
0.0
 40
0
 41
0
  0
VERTEX
  8
0
 10
4.16265
 20
1.34001
 30
0.0
 40
0
 41
0
  0
VERTEX
  8
0
 10
4.15619
 20
1.34001
 30
0.0
 40
0
 41
0
  0
VERTEX
  8
0
 10
4.13683
 20
1.35069
 30
0.0
 40
0
 41
0
  0
VERTEX
  8
0
 10
4.12619
 20
1.37006
 30
0.0
 40
0
 41
0
  0
VERTEX
  8
0
 10
4.12619
 20
1.37647
 30
0.0
 40
0
 41
0
  0
SEQEND
 8
0
  0
POLYLINE
  8
0
 62
     0
 66
     1
 10
0
 20
0
 30
0.0
 70
     1
 40
0.6
 41
0.6
  0
VERTEX
  8
0
 10
4.12619
 20
1.37647
 30
0.0
 40
0.00833333
 41
0.00833333
  0
VERTEX
  8
0
 10
4.12619
 20
1.38292
 30
0.0
 40
0.00833333
 41
0.00833333
  0
VERTEX
  8
0
 10
4.13683
 20
1.40229
 30
0.0
 40
0.00833333
 41
0.00833333
  0
VERTEX
  8
0
 10
4.15619
 20
1.41292
 30
0.0
 40
0.00833333
 41
0.00833333
  0
VERTEX
  8
0
 10
4.16265
 20
1.41292
 30
0.0
 40
0.00833333
 41
0.00833333
  0
VERTEX
  8
0
 10
4.16906
 20
1.41292
 30
0.0
 40
0.00833333
 41
0.00833333
  0
VERTEX
  8
0
 10
4.18842
 20
1.40229
 30
0.0
 40
0.00833333
 41
0.00833333
  0
VERTEX
  8
0
 10
4.19911
 20
1.38292
 30
0.0
 40
0.00833333
 41
0.00833333
  0
VERTEX
  8
0
 10
4.19911
 20
1.37647
 30
0.0
 40
0.00833333
 41
0.00833333
  0
VERTEX
  8
0
 10
4.19911
 20
1.37006
 30
0.0
 40
0.00833333
 41
0.00833333
  0
VERTEX
  8
0
 10
4.18842
 20
1.35069
 30
0.0
 40
0.00833333
 41
0.00833333
  0
VERTEX
  8
0
 10
4.16906
 20
1.34001
 30
0.0
 40
0.00833333
 41
0.00833333
  0
VERTEX
  8
0
 10
4.16265
 20
1.34001
 30
0.0
 40
0.00833333
 41
0.00833333
  0
VERTEX
  8
0
 10
4.15619
 20
1.34001
 30
0.0
 40
0.00833333
 41
0.00833333
  0
VERTEX
  8
0
 10
4.13683
 20
1.35069
 30
0.0
 40
0.00833333
 41
0.00833333
  0
VERTEX
  8
0
 10
4.12619
 20
1.37006
 30
0.0
 40
0.00833333
 41
0.00833333
  0
VERTEX
  8
0
 10
4.12619
 20
1.37647
 30
0.0
 40
0.00833333
 41
0.00833333
  0
SEQEND
 8
0
  0
POLYLINE
  8
0
 62
     7
 66
     1
 10
0
 20
0
 30
0.0
 70
     1
 40
0
 41
0
  0
VERTEX
  8
0
 10
3.80849
 20
1.37647
 30
0.0
 40
0
 41
0
  0
VERTEX
  8
0
 10
3.80849
 20
1.38292
 30
0.0
 40
0
 41
0
  0
VERTEX
  8
0
 10
3.81912
 20
1.40229
 30
0.0
 40
0
 41
0
  0
VERTEX
  8
0
 10
3.83849
 20
1.41292
 30
0.0
 40
0
 41
0
  0
VERTEX
  8
0
 10
3.84494
 20
1.41292
 30
0.0
 40
0
 41
0
  0
VERTEX
  8
0
 10
3.85135
 20
1.41292
 30
0.0
 40
0
 41
0
  0
VERTEX
  8
0
 10
3.87071
 20
1.40229
 30
0.0
 40
0
 41
0
  0
VERTEX
  8
0
 10
3.8814
 20
1.38292
 30
0.0
 40
0
 41
0
  0
VERTEX
  8
0
 10
3.8814
 20
1.37647
 30
0.0
 40
0
 41
0
  0
VERTEX
  8
0
 10
3.8814
 20
1.37006
 30
0.0
 40
0
 41
0
  0
VERTEX
  8
0
 10
3.87071
 20
1.35069
 30
0.0
 40
0
 41
0
  0
VERTEX
  8
0
 10
3.85135
 20
1.34001
 30
0.0
 40
0
 41
0
  0
VERTEX
  8
0
 10
3.84494
 20
1.34001
 30
0.0
 40
0
 41
0
  0
VERTEX
  8
0
 10
3.83849
 20
1.34001
 30
0.0
 40
0
 41
0
  0
VERTEX
  8
0
 10
3.81912
 20
1.35069
 30
0.0
 40
0
 41
0
  0
VERTEX
  8
0
 10
3.80849
 20
1.37006
 30
0.0
 40
0
 41
0
  0
VERTEX
  8
0
 10
3.80849
 20
1.37647
 30
0.0
 40
0
 41
0
  0
SEQEND
 8
0
  0
POLYLINE
  8
0
 62
     0
 66
     1
 10
0
 20
0
 30
0.0
 70
     1
 40
0.6
 41
0.6
  0
VERTEX
  8
0
 10
3.80849
 20
1.37647
 30
0.0
 40
0.00833333
 41
0.00833333
  0
VERTEX
  8
0
 10
3.80849
 20
1.38292
 30
0.0
 40
0.00833333
 41
0.00833333
  0
VERTEX
  8
0
 10
3.81912
 20
1.40229
 30
0.0
 40
0.00833333
 41
0.00833333
  0
VERTEX
  8
0
 10
3.83849
 20
1.41292
 30
0.0
 40
0.00833333
 41
0.00833333
  0
VERTEX
  8
0
 10
3.84494
 20
1.41292
 30
0.0
 40
0.00833333
 41
0.00833333
  0
VERTEX
  8
0
 10
3.85135
 20
1.41292
 30
0.0
 40
0.00833333
 41
0.00833333
  0
VERTEX
  8
0
 10
3.87071
 20
1.40229
 30
0.0
 40
0.00833333
 41
0.00833333
  0
VERTEX
  8
0
 10
3.8814
 20
1.38292
 30
0.0
 40
0.00833333
 41
0.00833333
  0
VERTEX
  8
0
 10
3.8814
 20
1.37647
 30
0.0
 40
0.00833333
 41
0.00833333
  0
VERTEX
  8
0
 10
3.8814
 20
1.37006
 30
0.0
 40
0.00833333
 41
0.00833333
  0
VERTEX
  8
0
 10
3.87071
 20
1.35069
 30
0.0
 40
0.00833333
 41
0.00833333
  0
VERTEX
  8
0
 10
3.85135
 20
1.34001
 30
0.0
 40
0.00833333
 41
0.00833333
  0
VERTEX
  8
0
 10
3.84494
 20
1.34001
 30
0.0
 40
0.00833333
 41
0.00833333
  0
VERTEX
  8
0
 10
3.83849
 20
1.34001
 30
0.0
 40
0.00833333
 41
0.00833333
  0
VERTEX
  8
0
 10
3.81912
 20
1.35069
 30
0.0
 40
0.00833333
 41
0.00833333
  0
VERTEX
  8
0
 10
3.80849
 20
1.37006
 30
0.0
 40
0.00833333
 41
0.00833333
  0
VERTEX
  8
0
 10
3.80849
 20
1.37647
 30
0.0
 40
0.00833333
 41
0.00833333
  0
SEQEND
 8
0
  0
POLYLINE
  8
0
 62
     7
 66
     1
 10
0
 20
0
 30
0.0
 70
     1
 40
0
 41
0
  0
VERTEX
  8
0
 10
4.14182
 20
1.37647
 30
0.0
 40
0
 41
0
  0
VERTEX
  8
0
 10
4.14182
 20
1.38015
 30
0.0
 40
0
 41
0
  0
VERTEX
  8
0
 10
4.14789
 20
1.39122
 30
0.0
 40
0
 41
0
  0
VERTEX
  8
0
 10
4.15896
 20
1.39729
 30
0.0
 40
0
 41
0
  0
VERTEX
  8
0
 10
4.16265
 20
1.39729
 30
0.0
 40
0
 41
0
  0
VERTEX
  8
0
 10
4.16629
 20
1.39729
 30
0.0
 40
0
 41
0
  0
VERTEX
  8
0
 10
4.17736
 20
1.39122
 30
0.0
 40
0
 41
0
  0
VERTEX
  8
0
 10
4.18349
 20
1.38015
 30
0.0
 40
0
 41
0
  0
VERTEX
  8
0
 10
4.18349
 20
1.37647
 30
0.0
 40
0
 41
0
  0
VERTEX
  8
0
 10
4.18349
 20
1.37283
 30
0.0
 40
0
 41
0
  0
VERTEX
  8
0
 10
4.17736
 20
1.36176
 30
0.0
 40
0
 41
0
  0
VERTEX
  8
0
 10
4.16629
 20
1.35563
 30
0.0
 40
0
 41
0
  0
VERTEX
  8
0
 10
4.16265
 20
1.35563
 30
0.0
 40
0
 41
0
  0
VERTEX
  8
0
 10
4.15896
 20
1.35563
 30
0.0
 40
0
 41
0
  0
VERTEX
  8
0
 10
4.14789
 20
1.36176
 30
0.0
 40
0
 41
0
  0
VERTEX
  8
0
 10
4.14182
 20
1.37283
 30
0.0
 40
0
 41
0
  0
VERTEX
  8
0
 10
4.14182
 20
1.37647
 30
0.0
 40
0
 41
0
  0
SEQEND
 8
0
  0
POLYLINE
  8
0
 62
     0
 66
     1
 10
0
 20
0
 30
0.0
 70
     1
 40
0.6
 41
0.6
  0
VERTEX
  8
0
 10
4.14182
 20
1.37647
 30
0.0
 40
0.00833333
 41
0.00833333
  0
VERTEX
  8
0
 10
4.14182
 20
1.38015
 30
0.0
 40
0.00833333
 41
0.00833333
  0
VERTEX
  8
0
 10
4.14789
 20
1.39122
 30
0.0
 40
0.00833333
 41
0.00833333
  0
VERTEX
  8
0
 10
4.15896
 20
1.39729
 30
0.0
 40
0.00833333
 41
0.00833333
  0
VERTEX
  8
0
 10
4.16265
 20
1.39729
 30
0.0
 40
0.00833333
 41
0.00833333
  0
VERTEX
  8
0
 10
4.16629
 20
1.39729
 30
0.0
 40
0.00833333
 41
0.00833333
  0
VERTEX
  8
0
 10
4.17736
 20
1.39122
 30
0.0
 40
0.00833333
 41
0.00833333
  0
VERTEX
  8
0
 10
4.18349
 20
1.38015
 30
0.0
 40
0.00833333
 41
0.00833333
  0
VERTEX
  8
0
 10
4.18349
 20
1.37647
 30
0.0
 40
0.00833333
 41
0.00833333
  0
VERTEX
  8
0
 10
4.18349
 20
1.37283
 30
0.0
 40
0.00833333
 41
0.00833333
  0
VERTEX
  8
0
 10
4.17736
 20
1.36176
 30
0.0
 40
0.00833333
 41
0.00833333
  0
VERTEX
  8
0
 10
4.16629
 20
1.35563
 30
0.0
 40
0.00833333
 41
0.00833333
  0
VERTEX
  8
0
 10
4.16265
 20
1.35563
 30
0.0
 40
0.00833333
 41
0.00833333
  0
VERTEX
  8
0
 10
4.15896
 20
1.35563
 30
0.0
 40
0.00833333
 41
0.00833333
  0
VERTEX
  8
0
 10
4.14789
 20
1.36176
 30
0.0
 40
0.00833333
 41
0.00833333
  0
VERTEX
  8
0
 10
4.14182
 20
1.37283
 30
0.0
 40
0.00833333
 41
0.00833333
  0
VERTEX
  8
0
 10
4.14182
 20
1.37647
 30
0.0
 40
0.00833333
 41
0.00833333
  0
SEQEND
 8
0
  0
POLYLINE
  8
0
 62
     7
 66
     1
 10
0
 20
0
 30
0.0
 70
     1
 40
0
 41
0
  0
VERTEX
  8
0
 10
3.82411
 20
1.37647
 30
0.0
 40
0
 41
0
  0
VERTEX
  8
0
 10
3.82411
 20
1.38015
 30
0.0
 40
0
 41
0
  0
VERTEX
  8
0
 10
3.83018
 20
1.39122
 30
0.0
 40
0
 41
0
  0
VERTEX
  8
0
 10
3.84125
 20
1.39729
 30
0.0
 40
0
 41
0
  0
VERTEX
  8
0
 10
3.84494
 20
1.39729
 30
0.0
 40
0
 41
0
  0
VERTEX
  8
0
 10
3.84858
 20
1.39729
 30
0.0
 40
0
 41
0
  0
VERTEX
  8
0
 10
3.85965
 20
1.39122
 30
0.0
 40
0
 41
0
  0
VERTEX
  8
0
 10
3.86578
 20
1.38015
 30
0.0
 40
0
 41
0
  0
VERTEX
  8
0
 10
3.86578
 20
1.37647
 30
0.0
 40
0
 41
0
  0
VERTEX
  8
0
 10
3.86578
 20
1.37283
 30
0.0
 40
0
 41
0
  0
VERTEX
  8
0
 10
3.85965
 20
1.36176
 30
0.0
 40
0
 41
0
  0
VERTEX
  8
0
 10
3.84858
 20
1.35563
 30
0.0
 40
0
 41
0
  0
VERTEX
  8
0
 10
3.84494
 20
1.35563
 30
0.0
 40
0
 41
0
  0
VERTEX
  8
0
 10
3.84125
 20
1.35563
 30
0.0
 40
0
 41
0
  0
VERTEX
  8
0
 10
3.83018
 20
1.36176
 30
0.0
 40
0
 41
0
  0
VERTEX
  8
0
 10
3.82411
 20
1.37283
 30
0.0
 40
0
 41
0
  0
VERTEX
  8
0
 10
3.82411
 20
1.37647
 30
0.0
 40
0
 41
0
  0
SEQEND
 8
0
  0
POLYLINE
  8
0
 62
     0
 66
     1
 10
0
 20
0
 30
0.0
 70
     1
 40
0.6
 41
0.6
  0
VERTEX
  8
0
 10
3.82411
 20
1.37647
 30
0.0
 40
0.00833333
 41
0.00833333
  0
VERTEX
  8
0
 10
3.82411
 20
1.38015
 30
0.0
 40
0.00833333
 41
0.00833333
  0
VERTEX
  8
0
 10
3.83018
 20
1.39122
 30
0.0
 40
0.00833333
 41
0.00833333
  0
VERTEX
  8
0
 10
3.84125
 20
1.39729
 30
0.0
 40
0.00833333
 41
0.00833333
  0
VERTEX
  8
0
 10
3.84494
 20
1.39729
 30
0.0
 40
0.00833333
 41
0.00833333
  0
VERTEX
  8
0
 10
3.84858
 20
1.39729
 30
0.0
 40
0.00833333
 41
0.00833333
  0
VERTEX
  8
0
 10
3.85965
 20
1.39122
 30
0.0
 40
0.00833333
 41
0.00833333
  0
VERTEX
  8
0
 10
3.86578
 20
1.38015
 30
0.0
 40
0.00833333
 41
0.00833333
  0
VERTEX
  8
0
 10
3.86578
 20
1.37647
 30
0.0
 40
0.00833333
 41
0.00833333
  0
VERTEX
  8
0
 10
3.86578
 20
1.37283
 30
0.0
 40
0.00833333
 41
0.00833333
  0
VERTEX
  8
0
 10
3.85965
 20
1.36176
 30
0.0
 40
0.00833333
 41
0.00833333
  0
VERTEX
  8
0
 10
3.84858
 20
1.35563
 30
0.0
 40
0.00833333
 41
0.00833333
  0
VERTEX
  8
0
 10
3.84494
 20
1.35563
 30
0.0
 40
0.00833333
 41
0.00833333
  0
VERTEX
  8
0
 10
3.84125
 20
1.35563
 30
0.0
 40
0.00833333
 41
0.00833333
  0
VERTEX
  8
0
 10
3.83018
 20
1.36176
 30
0.0
 40
0.00833333
 41
0.00833333
  0
VERTEX
  8
0
 10
3.82411
 20
1.37283
 30
0.0
 40
0.00833333
 41
0.00833333
  0
VERTEX
  8
0
 10
3.82411
 20
1.37647
 30
0.0
 40
0.00833333
 41
0.00833333
  0
SEQEND
 8
0
  0
POLYLINE
  8
0
 62
     7
 66
     1
 10
0
 20
0
 30
0.0
 70
     1
 40
0
 41
0
  0
VERTEX
  8
0
 10
3.97206
 20
1.23475
 30
0.0
 40
0
 41
0
  0
VERTEX
  8
0
 10
4.03456
 20
1.23475
 30
0.0
 40
0
 41
0
  0
VERTEX
  8
0
 10
4.03456
 20
1.08892
 30
0.0
 40
0
 41
0
  0
VERTEX
  8
0
 10
3.97206
 20
1.08892
 30
0.0
 40
0
 41
0
  0
VERTEX
  8
0
 10
3.97206
 20
1.23475
 30
0.0
 40
0
 41
0
  0
SEQEND
 8
0
  0
POLYLINE
  8
0
 62
     0
 66
     1
 10
0
 20
0
 30
0.0
 70
     1
 40
0.75
 41
0.75
  0
VERTEX
  8
0
 10
3.97206
 20
1.23475
 30
0.0
 40
0.0104167
 41
0.0104167
  0
VERTEX
  8
0
 10
4.03456
 20
1.23475
 30
0.0
 40
0.0104167
 41
0.0104167
  0
VERTEX
  8
0
 10
4.03456
 20
1.08892
 30
0.0
 40
0.0104167
 41
0.0104167
  0
VERTEX
  8
0
 10
3.97206
 20
1.08892
 30
0.0
 40
0.0104167
 41
0.0104167
  0
VERTEX
  8
0
 10
3.97206
 20
1.23475
 30
0.0
 40
0.0104167
 41
0.0104167
  0
SEQEND
 8
0
  0
POLYLINE
  8
0
 62
     7
 66
     1
 10
0
 20
0
 30
0.0
 70
     1
 40
0
 41
0
  0
VERTEX
  8
0
 10
2.6875
 20
1.63949
 30
0.0
 40
0
 41
0
  0
VERTEX
  8
0
 10
3.18707
 20
1.63949
 30
0.0
 40
0
 41
0
  0
VERTEX
  8
0
 10
3.18707
 20
1.05615
 30
0.0
 40
0
 41
0
  0
VERTEX
  8
0
 10
2.6875
 20
1.05615
 30
0.0
 40
0
 41
0
  0
VERTEX
  8
0
 10
2.6875
 20
1.63949
 30
0.0
 40
0
 41
0
  0
SEQEND
 8
0
  0
POLYLINE
  8
0
 62
     0
 66
     1
 10
0
 20
0
 30
0.0
 70
     1
 40
0.75
 41
0.75
  0
VERTEX
  8
0
 10
2.6875
 20
1.63949
 30
0.0
 40
0.0104167
 41
0.0104167
  0
VERTEX
  8
0
 10
3.18707
 20
1.63949
 30
0.0
 40
0.0104167
 41
0.0104167
  0
VERTEX
  8
0
 10
3.18707
 20
1.05615
 30
0.0
 40
0.0104167
 41
0.0104167
  0
VERTEX
  8
0
 10
2.6875
 20
1.05615
 30
0.0
 40
0.0104167
 41
0.0104167
  0
VERTEX
  8
0
 10
2.6875
 20
1.63949
 30
0.0
 40
0.0104167
 41
0.0104167
  0
SEQEND
 8
0
  0
POLYLINE
  8
0
 62
     7
 66
     1
 10
0
 20
0
 30
0.0
 70
     1
 40
0
 41
0
  0
VERTEX
  8
0
 10
2.98101
 20
1.20199
 30
0.0
 40
0
 41
0
  0
VERTEX
  8
0
 10
2.98101
 20
1.21012
 30
0.0
 40
0
 41
0
  0
VERTEX
  8
0
 10
2.98753
 20
1.23443
 30
0.0
 40
0
 41
0
  0
VERTEX
  8
0
 10
3.00543
 20
1.26091
 30
0.0
 40
0
 41
0
  0
VERTEX
  8
0
 10
3.0319
 20
1.27881
 30
0.0
 40
0
 41
0
  0
VERTEX
  8
0
 10
3.05621
 20
1.28532
 30
0.0
 40
0
 41
0
  0
VERTEX
  8
0
 10
3.06435
 20
1.28532
 30
0.0
 40
0
 41
0
  0
VERTEX
  8
0
 10
3.07243
 20
1.28532
 30
0.0
 40
0
 41
0
  0
VERTEX
  8
0
 10
3.09679
 20
1.27881
 30
0.0
 40
0
 41
0
  0
VERTEX
  8
0
 10
3.12326
 20
1.26091
 30
0.0
 40
0
 41
0
  0
VERTEX
  8
0
 10
3.14111
 20
1.23443
 30
0.0
 40
0
 41
0
  0
VERTEX
  8
0
 10
3.14768
 20
1.21012
 30
0.0
 40
0
 41
0
  0
VERTEX
  8
0
 10
3.14768
 20
1.20199
 30
0.0
 40
0
 41
0
  0
VERTEX
  8
0
 10
3.14768
 20
1.1939
 30
0.0
 40
0
 41
0
  0
VERTEX
  8
0
 10
3.14111
 20
1.16954
 30
0.0
 40
0
 41
0
  0
VERTEX
  8
0
 10
3.12326
 20
1.14307
 30
0.0
 40
0
 41
0
  0
VERTEX
  8
0
 10
3.09679
 20
1.12522
 30
0.0
 40
0
 41
0
  0
VERTEX
  8
0
 10
3.07243
 20
1.11865
 30
0.0
 40
0
 41
0
  0
VERTEX
  8
0
 10
3.06435
 20
1.11865
 30
0.0
 40
0
 41
0
  0
VERTEX
  8
0
 10
3.05621
 20
1.11865
 30
0.0
 40
0
 41
0
  0
VERTEX
  8
0
 10
3.0319
 20
1.12522
 30
0.0
 40
0
 41
0
  0
VERTEX
  8
0
 10
3.00543
 20
1.14307
 30
0.0
 40
0
 41
0
  0
VERTEX
  8
0
 10
2.98753
 20
1.16954
 30
0.0
 40
0
 41
0
  0
VERTEX
  8
0
 10
2.98101
 20
1.1939
 30
0.0
 40
0
 41
0
  0
VERTEX
  8
0
 10
2.98101
 20
1.20199
 30
0.0
 40
0
 41
0
  0
SEQEND
 8
0
  0
POLYLINE
  8
0
 62
     0
 66
     1
 10
0
 20
0
 30
0.0
 70
     1
 40
0.75
 41
0.75
  0
VERTEX
  8
0
 10
2.98101
 20
1.20199
 30
0.0
 40
0.0104167
 41
0.0104167
  0
VERTEX
  8
0
 10
2.98101
 20
1.21012
 30
0.0
 40
0.0104167
 41
0.0104167
  0
VERTEX
  8
0
 10
2.98753
 20
1.23443
 30
0.0
 40
0.0104167
 41
0.0104167
  0
VERTEX
  8
0
 10
3.00543
 20
1.26091
 30
0.0
 40
0.0104167
 41
0.0104167
  0
VERTEX
  8
0
 10
3.0319
 20
1.27881
 30
0.0
 40
0.0104167
 41
0.0104167
  0
VERTEX
  8
0
 10
3.05621
 20
1.28532
 30
0.0
 40
0.0104167
 41
0.0104167
  0
VERTEX
  8
0
 10
3.06435
 20
1.28532
 30
0.0
 40
0.0104167
 41
0.0104167
  0
VERTEX
  8
0
 10
3.07243
 20
1.28532
 30
0.0
 40
0.0104167
 41
0.0104167
  0
VERTEX
  8
0
 10
3.09679
 20
1.27881
 30
0.0
 40
0.0104167
 41
0.0104167
  0
VERTEX
  8
0
 10
3.12326
 20
1.26091
 30
0.0
 40
0.0104167
 41
0.0104167
  0
VERTEX
  8
0
 10
3.14111
 20
1.23443
 30
0.0
 40
0.0104167
 41
0.0104167
  0
VERTEX
  8
0
 10
3.14768
 20
1.21012
 30
0.0
 40
0.0104167
 41
0.0104167
  0
VERTEX
  8
0
 10
3.14768
 20
1.20199
 30
0.0
 40
0.0104167
 41
0.0104167
  0
VERTEX
  8
0
 10
3.14768
 20
1.1939
 30
0.0
 40
0.0104167
 41
0.0104167
  0
VERTEX
  8
0
 10
3.14111
 20
1.16954
 30
0.0
 40
0.0104167
 41
0.0104167
  0
VERTEX
  8
0
 10
3.12326
 20
1.14307
 30
0.0
 40
0.0104167
 41
0.0104167
  0
VERTEX
  8
0
 10
3.09679
 20
1.12522
 30
0.0
 40
0.0104167
 41
0.0104167
  0
VERTEX
  8
0
 10
3.07243
 20
1.11865
 30
0.0
 40
0.0104167
 41
0.0104167
  0
VERTEX
  8
0
 10
3.06435
 20
1.11865
 30
0.0
 40
0.0104167
 41
0.0104167
  0
VERTEX
  8
0
 10
3.05621
 20
1.11865
 30
0.0
 40
0.0104167
 41
0.0104167
  0
VERTEX
  8
0
 10
3.0319
 20
1.12522
 30
0.0
 40
0.0104167
 41
0.0104167
  0
VERTEX
  8
0
 10
3.00543
 20
1.14307
 30
0.0
 40
0.0104167
 41
0.0104167
  0
VERTEX
  8
0
 10
2.98753
 20
1.16954
 30
0.0
 40
0.0104167
 41
0.0104167
  0
VERTEX
  8
0
 10
2.98101
 20
1.1939
 30
0.0
 40
0.0104167
 41
0.0104167
  0
VERTEX
  8
0
 10
2.98101
 20
1.20199
 30
0.0
 40
0.0104167
 41
0.0104167
  0
SEQEND
 8
0
  0
POLYLINE
  8
0
 62
     7
 66
     1
 10
0
 20
0
 30
0.0
 70
     1
 40
0
 41
0
  0
VERTEX
  8
0
 10
2.72976
 20
1.20199
 30
0.0
 40
0
 41
0
  0
VERTEX
  8
0
 10
2.72976
 20
1.21012
 30
0.0
 40
0
 41
0
  0
VERTEX
  8
0
 10
2.73628
 20
1.23443
 30
0.0
 40
0
 41
0
  0
VERTEX
  8
0
 10
2.75418
 20
1.26091
 30
0.0
 40
0
 41
0
  0
VERTEX
  8
0
 10
2.78065
 20
1.27881
 30
0.0
 40
0
 41
0
  0
VERTEX
  8
0
 10
2.80496
 20
1.28532
 30
0.0
 40
0
 41
0
  0
VERTEX
  8
0
 10
2.8131
 20
1.28532
 30
0.0
 40
0
 41
0
  0
VERTEX
  8
0
 10
2.82118
 20
1.28532
 30
0.0
 40
0
 41
0
  0
VERTEX
  8
0
 10
2.84554
 20
1.27881
 30
0.0
 40
0
 41
0
  0
VERTEX
  8
0
 10
2.87201
 20
1.26091
 30
0.0
 40
0
 41
0
  0
VERTEX
  8
0
 10
2.88986
 20
1.23443
 30
0.0
 40
0
 41
0
  0
VERTEX
  8
0
 10
2.89643
 20
1.21012
 30
0.0
 40
0
 41
0
  0
VERTEX
  8
0
 10
2.89643
 20
1.20199
 30
0.0
 40
0
 41
0
  0
VERTEX
  8
0
 10
2.89643
 20
1.1939
 30
0.0
 40
0
 41
0
  0
VERTEX
  8
0
 10
2.88986
 20
1.16954
 30
0.0
 40
0
 41
0
  0
VERTEX
  8
0
 10
2.87201
 20
1.14307
 30
0.0
 40
0
 41
0
  0
VERTEX
  8
0
 10
2.84554
 20
1.12522
 30
0.0
 40
0
 41
0
  0
VERTEX
  8
0
 10
2.82118
 20
1.11865
 30
0.0
 40
0
 41
0
  0
VERTEX
  8
0
 10
2.8131
 20
1.11865
 30
0.0
 40
0
 41
0
  0
VERTEX
  8
0
 10
2.80496
 20
1.11865
 30
0.0
 40
0
 41
0
  0
VERTEX
  8
0
 10
2.78065
 20
1.12522
 30
0.0
 40
0
 41
0
  0
VERTEX
  8
0
 10
2.75418
 20
1.14307
 30
0.0
 40
0
 41
0
  0
VERTEX
  8
0
 10
2.73628
 20
1.16954
 30
0.0
 40
0
 41
0
  0
VERTEX
  8
0
 10
2.72976
 20
1.1939
 30
0.0
 40
0
 41
0
  0
VERTEX
  8
0
 10
2.72976
 20
1.20199
 30
0.0
 40
0
 41
0
  0
SEQEND
 8
0
  0
POLYLINE
  8
0
 62
     0
 66
     1
 10
0
 20
0
 30
0.0
 70
     1
 40
0.75
 41
0.75
  0
VERTEX
  8
0
 10
2.72976
 20
1.20199
 30
0.0
 40
0.0104167
 41
0.0104167
  0
VERTEX
  8
0
 10
2.72976
 20
1.21012
 30
0.0
 40
0.0104167
 41
0.0104167
  0
VERTEX
  8
0
 10
2.73628
 20
1.23443
 30
0.0
 40
0.0104167
 41
0.0104167
  0
VERTEX
  8
0
 10
2.75418
 20
1.26091
 30
0.0
 40
0.0104167
 41
0.0104167
  0
VERTEX
  8
0
 10
2.78065
 20
1.27881
 30
0.0
 40
0.0104167
 41
0.0104167
  0
VERTEX
  8
0
 10
2.80496
 20
1.28532
 30
0.0
 40
0.0104167
 41
0.0104167
  0
VERTEX
  8
0
 10
2.8131
 20
1.28532
 30
0.0
 40
0.0104167
 41
0.0104167
  0
VERTEX
  8
0
 10
2.82118
 20
1.28532
 30
0.0
 40
0.0104167
 41
0.0104167
  0
VERTEX
  8
0
 10
2.84554
 20
1.27881
 30
0.0
 40
0.0104167
 41
0.0104167
  0
VERTEX
  8
0
 10
2.87201
 20
1.26091
 30
0.0
 40
0.0104167
 41
0.0104167
  0
VERTEX
  8
0
 10
2.88986
 20
1.23443
 30
0.0
 40
0.0104167
 41
0.0104167
  0
VERTEX
  8
0
 10
2.89643
 20
1.21012
 30
0.0
 40
0.0104167
 41
0.0104167
  0
VERTEX
  8
0
 10
2.89643
 20
1.20199
 30
0.0
 40
0.0104167
 41
0.0104167
  0
VERTEX
  8
0
 10
2.89643
 20
1.1939
 30
0.0
 40
0.0104167
 41
0.0104167
  0
VERTEX
  8
0
 10
2.88986
 20
1.16954
 30
0.0
 40
0.0104167
 41
0.0104167
  0
VERTEX
  8
0
 10
2.87201
 20
1.14307
 30
0.0
 40
0.0104167
 41
0.0104167
  0
VERTEX
  8
0
 10
2.84554
 20
1.12522
 30
0.0
 40
0.0104167
 41
0.0104167
  0
VERTEX
  8
0
 10
2.82118
 20
1.11865
 30
0.0
 40
0.0104167
 41
0.0104167
  0
VERTEX
  8
0
 10
2.8131
 20
1.11865
 30
0.0
 40
0.0104167
 41
0.0104167
  0
VERTEX
  8
0
 10
2.80496
 20
1.11865
 30
0.0
 40
0.0104167
 41
0.0104167
  0
VERTEX
  8
0
 10
2.78065
 20
1.12522
 30
0.0
 40
0.0104167
 41
0.0104167
  0
VERTEX
  8
0
 10
2.75418
 20
1.14307
 30
0.0
 40
0.0104167
 41
0.0104167
  0
VERTEX
  8
0
 10
2.73628
 20
1.16954
 30
0.0
 40
0.0104167
 41
0.0104167
  0
VERTEX
  8
0
 10
2.72976
 20
1.1939
 30
0.0
 40
0.0104167
 41
0.0104167
  0
VERTEX
  8
0
 10
2.72976
 20
1.20199
 30
0.0
 40
0.0104167
 41
0.0104167
  0
SEQEND
 8
0
  0
POLYLINE
  8
0
 62
     7
 66
     1
 10
0
 20
0
 30
0.0
 70
     1
 40
0
 41
0
  0
VERTEX
  8
0
 10
2.98101
 20
1.49365
 30
0.0
 40
0
 41
0
  0
VERTEX
  8
0
 10
2.98101
 20
1.50179
 30
0.0
 40
0
 41
0
  0
VERTEX
  8
0
 10
2.98753
 20
1.5261
 30
0.0
 40
0
 41
0
  0
VERTEX
  8
0
 10
3.00543
 20
1.55257
 30
0.0
 40
0
 41
0
  0
VERTEX
  8
0
 10
3.0319
 20
1.57047
 30
0.0
 40
0
 41
0
  0
VERTEX
  8
0
 10
3.05621
 20
1.57699
 30
0.0
 40
0
 41
0
  0
VERTEX
  8
0
 10
3.06435
 20
1.57699
 30
0.0
 40
0
 41
0
  0
VERTEX
  8
0
 10
3.07243
 20
1.57699
 30
0.0
 40
0
 41
0
  0
VERTEX
  8
0
 10
3.09679
 20
1.57047
 30
0.0
 40
0
 41
0
  0
VERTEX
  8
0
 10
3.12326
 20
1.55257
 30
0.0
 40
0
 41
0
  0
VERTEX
  8
0
 10
3.14111
 20
1.5261
 30
0.0
 40
0
 41
0
  0
VERTEX
  8
0
 10
3.14768
 20
1.50179
 30
0.0
 40
0
 41
0
  0
VERTEX
  8
0
 10
3.14768
 20
1.49365
 30
0.0
 40
0
 41
0
  0
VERTEX
  8
0
 10
3.14768
 20
1.48557
 30
0.0
 40
0
 41
0
  0
VERTEX
  8
0
 10
3.14111
 20
1.46121
 30
0.0
 40
0
 41
0
  0
VERTEX
  8
0
 10
3.12326
 20
1.43474
 30
0.0
 40
0
 41
0
  0
VERTEX
  8
0
 10
3.09679
 20
1.41689
 30
0.0
 40
0
 41
0
  0
VERTEX
  8
0
 10
3.07243
 20
1.41032
 30
0.0
 40
0
 41
0
  0
VERTEX
  8
0
 10
3.06435
 20
1.41032
 30
0.0
 40
0
 41
0
  0
VERTEX
  8
0
 10
3.05621
 20
1.41032
 30
0.0
 40
0
 41
0
  0
VERTEX
  8
0
 10
3.0319
 20
1.41689
 30
0.0
 40
0
 41
0
  0
VERTEX
  8
0
 10
3.00543
 20
1.43474
 30
0.0
 40
0
 41
0
  0
VERTEX
  8
0
 10
2.98753
 20
1.46121
 30
0.0
 40
0
 41
0
  0
VERTEX
  8
0
 10
2.98101
 20
1.48557
 30
0.0
 40
0
 41
0
  0
VERTEX
  8
0
 10
2.98101
 20
1.49365
 30
0.0
 40
0
 41
0
  0
SEQEND
 8
0
  0
POLYLINE
  8
0
 62
     0
 66
     1
 10
0
 20
0
 30
0.0
 70
     1
 40
0.75
 41
0.75
  0
VERTEX
  8
0
 10
2.98101
 20
1.49365
 30
0.0
 40
0.0104167
 41
0.0104167
  0
VERTEX
  8
0
 10
2.98101
 20
1.50179
 30
0.0
 40
0.0104167
 41
0.0104167
  0
VERTEX
  8
0
 10
2.98753
 20
1.5261
 30
0.0
 40
0.0104167
 41
0.0104167
  0
VERTEX
  8
0
 10
3.00543
 20
1.55257
 30
0.0
 40
0.0104167
 41
0.0104167
  0
VERTEX
  8
0
 10
3.0319
 20
1.57047
 30
0.0
 40
0.0104167
 41
0.0104167
  0
VERTEX
  8
0
 10
3.05621
 20
1.57699
 30
0.0
 40
0.0104167
 41
0.0104167
  0
VERTEX
  8
0
 10
3.06435
 20
1.57699
 30
0.0
 40
0.0104167
 41
0.0104167
  0
VERTEX
  8
0
 10
3.07243
 20
1.57699
 30
0.0
 40
0.0104167
 41
0.0104167
  0
VERTEX
  8
0
 10
3.09679
 20
1.57047
 30
0.0
 40
0.0104167
 41
0.0104167
  0
VERTEX
  8
0
 10
3.12326
 20
1.55257
 30
0.0
 40
0.0104167
 41
0.0104167
  0
VERTEX
  8
0
 10
3.14111
 20
1.5261
 30
0.0
 40
0.0104167
 41
0.0104167
  0
VERTEX
  8
0
 10
3.14768
 20
1.50179
 30
0.0
 40
0.0104167
 41
0.0104167
  0
VERTEX
  8
0
 10
3.14768
 20
1.49365
 30
0.0
 40
0.0104167
 41
0.0104167
  0
VERTEX
  8
0
 10
3.14768
 20
1.48557
 30
0.0
 40
0.0104167
 41
0.0104167
  0
VERTEX
  8
0
 10
3.14111
 20
1.46121
 30
0.0
 40
0.0104167
 41
0.0104167
  0
VERTEX
  8
0
 10
3.12326
 20
1.43474
 30
0.0
 40
0.0104167
 41
0.0104167
  0
VERTEX
  8
0
 10
3.09679
 20
1.41689
 30
0.0
 40
0.0104167
 41
0.0104167
  0
VERTEX
  8
0
 10
3.07243
 20
1.41032
 30
0.0
 40
0.0104167
 41
0.0104167
  0
VERTEX
  8
0
 10
3.06435
 20
1.41032
 30
0.0
 40
0.0104167
 41
0.0104167
  0
VERTEX
  8
0
 10
3.05621
 20
1.41032
 30
0.0
 40
0.0104167
 41
0.0104167
  0
VERTEX
  8
0
 10
3.0319
 20
1.41689
 30
0.0
 40
0.0104167
 41
0.0104167
  0
VERTEX
  8
0
 10
3.00543
 20
1.43474
 30
0.0
 40
0.0104167
 41
0.0104167
  0
VERTEX
  8
0
 10
2.98753
 20
1.46121
 30
0.0
 40
0.0104167
 41
0.0104167
  0
VERTEX
  8
0
 10
2.98101
 20
1.48557
 30
0.0
 40
0.0104167
 41
0.0104167
  0
VERTEX
  8
0
 10
2.98101
 20
1.49365
 30
0.0
 40
0.0104167
 41
0.0104167
  0
SEQEND
 8
0
  0
POLYLINE
  8
0
 62
     7
 66
     1
 10
0
 20
0
 30
0.0
 70
     1
 40
0
 41
0
  0
VERTEX
  8
0
 10
2.72976
 20
1.49365
 30
0.0
 40
0
 41
0
  0
VERTEX
  8
0
 10
2.72976
 20
1.50179
 30
0.0
 40
0
 41
0
  0
VERTEX
  8
0
 10
2.73628
 20
1.5261
 30
0.0
 40
0
 41
0
  0
VERTEX
  8
0
 10
2.75418
 20
1.55257
 30
0.0
 40
0
 41
0
  0
VERTEX
  8
0
 10
2.78065
 20
1.57047
 30
0.0
 40
0
 41
0
  0
VERTEX
  8
0
 10
2.80496
 20
1.57699
 30
0.0
 40
0
 41
0
  0
VERTEX
  8
0
 10
2.8131
 20
1.57699
 30
0.0
 40
0
 41
0
  0
VERTEX
  8
0
 10
2.82118
 20
1.57699
 30
0.0
 40
0
 41
0
  0
VERTEX
  8
0
 10
2.84554
 20
1.57047
 30
0.0
 40
0
 41
0
  0
VERTEX
  8
0
 10
2.87201
 20
1.55257
 30
0.0
 40
0
 41
0
  0
VERTEX
  8
0
 10
2.88986
 20
1.5261
 30
0.0
 40
0
 41
0
  0
VERTEX
  8
0
 10
2.89643
 20
1.50179
 30
0.0
 40
0
 41
0
  0
VERTEX
  8
0
 10
2.89643
 20
1.49365
 30
0.0
 40
0
 41
0
  0
VERTEX
  8
0
 10
2.89643
 20
1.48557
 30
0.0
 40
0
 41
0
  0
VERTEX
  8
0
 10
2.88986
 20
1.46121
 30
0.0
 40
0
 41
0
  0
VERTEX
  8
0
 10
2.87201
 20
1.43474
 30
0.0
 40
0
 41
0
  0
VERTEX
  8
0
 10
2.84554
 20
1.41689
 30
0.0
 40
0
 41
0
  0
VERTEX
  8
0
 10
2.82118
 20
1.41032
 30
0.0
 40
0
 41
0
  0
VERTEX
  8
0
 10
2.8131
 20
1.41032
 30
0.0
 40
0
 41
0
  0
VERTEX
  8
0
 10
2.80496
 20
1.41032
 30
0.0
 40
0
 41
0
  0
VERTEX
  8
0
 10
2.78065
 20
1.41689
 30
0.0
 40
0
 41
0
  0
VERTEX
  8
0
 10
2.75418
 20
1.43474
 30
0.0
 40
0
 41
0
  0
VERTEX
  8
0
 10
2.73628
 20
1.46121
 30
0.0
 40
0
 41
0
  0
VERTEX
  8
0
 10
2.72976
 20
1.48557
 30
0.0
 40
0
 41
0
  0
VERTEX
  8
0
 10
2.72976
 20
1.49365
 30
0.0
 40
0
 41
0
  0
SEQEND
 8
0
  0
POLYLINE
  8
0
 62
     0
 66
     1
 10
0
 20
0
 30
0.0
 70
     1
 40
0.75
 41
0.75
  0
VERTEX
  8
0
 10
2.72976
 20
1.49365
 30
0.0
 40
0.0104167
 41
0.0104167
  0
VERTEX
  8
0
 10
2.72976
 20
1.50179
 30
0.0
 40
0.0104167
 41
0.0104167
  0
VERTEX
  8
0
 10
2.73628
 20
1.5261
 30
0.0
 40
0.0104167
 41
0.0104167
  0
VERTEX
  8
0
 10
2.75418
 20
1.55257
 30
0.0
 40
0.0104167
 41
0.0104167
  0
VERTEX
  8
0
 10
2.78065
 20
1.57047
 30
0.0
 40
0.0104167
 41
0.0104167
  0
VERTEX
  8
0
 10
2.80496
 20
1.57699
 30
0.0
 40
0.0104167
 41
0.0104167
  0
VERTEX
  8
0
 10
2.8131
 20
1.57699
 30
0.0
 40
0.0104167
 41
0.0104167
  0
VERTEX
  8
0
 10
2.82118
 20
1.57699
 30
0.0
 40
0.0104167
 41
0.0104167
  0
VERTEX
  8
0
 10
2.84554
 20
1.57047
 30
0.0
 40
0.0104167
 41
0.0104167
  0
VERTEX
  8
0
 10
2.87201
 20
1.55257
 30
0.0
 40
0.0104167
 41
0.0104167
  0
VERTEX
  8
0
 10
2.88986
 20
1.5261
 30
0.0
 40
0.0104167
 41
0.0104167
  0
VERTEX
  8
0
 10
2.89643
 20
1.50179
 30
0.0
 40
0.0104167
 41
0.0104167
  0
VERTEX
  8
0
 10
2.89643
 20
1.49365
 30
0.0
 40
0.0104167
 41
0.0104167
  0
VERTEX
  8
0
 10
2.89643
 20
1.48557
 30
0.0
 40
0.0104167
 41
0.0104167
  0
VERTEX
  8
0
 10
2.88986
 20
1.46121
 30
0.0
 40
0.0104167
 41
0.0104167
  0
VERTEX
  8
0
 10
2.87201
 20
1.43474
 30
0.0
 40
0.0104167
 41
0.0104167
  0
VERTEX
  8
0
 10
2.84554
 20
1.41689
 30
0.0
 40
0.0104167
 41
0.0104167
  0
VERTEX
  8
0
 10
2.82118
 20
1.41032
 30
0.0
 40
0.0104167
 41
0.0104167
  0
VERTEX
  8
0
 10
2.8131
 20
1.41032
 30
0.0
 40
0.0104167
 41
0.0104167
  0
VERTEX
  8
0
 10
2.80496
 20
1.41032
 30
0.0
 40
0.0104167
 41
0.0104167
  0
VERTEX
  8
0
 10
2.78065
 20
1.41689
 30
0.0
 40
0.0104167
 41
0.0104167
  0
VERTEX
  8
0
 10
2.75418
 20
1.43474
 30
0.0
 40
0.0104167
 41
0.0104167
  0
VERTEX
  8
0
 10
2.73628
 20
1.46121
 30
0.0
 40
0.0104167
 41
0.0104167
  0
VERTEX
  8
0
 10
2.72976
 20
1.48557
 30
0.0
 40
0.0104167
 41
0.0104167
  0
VERTEX
  8
0
 10
2.72976
 20
1.49365
 30
0.0
 40
0.0104167
 41
0.0104167
  0
SEQEND
 8
0
  0
POLYLINE
  8
0
 62
     7
 66
     1
 10
0
 20
0
 30
0.0
 70
     1
 40
0
 41
0
  0
VERTEX
  8
0
 10
3.75304
 20
3.69075
 30
0.0
 40
0
 41
0
  0
VERTEX
  8
0
 10
4.74897
 20
3.69075
 30
0.0
 40
0
 41
0
  0
VERTEX
  8
0
 10
4.74897
 20
3.12608
 30
0.0
 40
0
 41
0
  0
VERTEX
  8
0
 10
3.75304
 20
3.12608
 30
0.0
 40
0
 41
0
  0
VERTEX
  8
0
 10
3.75304
 20
3.69075
 30
0.0
 40
0
 41
0
  0
SEQEND
 8
0
  0
POLYLINE
  8
0
 62
     0
 66
     1
 10
0
 20
0
 30
0.0
 70
     1
 40
0.75
 41
0.75
  0
VERTEX
  8
0
 10
3.75304
 20
3.69075
 30
0.0
 40
0.0104167
 41
0.0104167
  0
VERTEX
  8
0
 10
4.74897
 20
3.69075
 30
0.0
 40
0.0104167
 41
0.0104167
  0
VERTEX
  8
0
 10
4.74897
 20
3.12608
 30
0.0
 40
0.0104167
 41
0.0104167
  0
VERTEX
  8
0
 10
3.75304
 20
3.12608
 30
0.0
 40
0.0104167
 41
0.0104167
  0
VERTEX
  8
0
 10
3.75304
 20
3.69075
 30
0.0
 40
0.0104167
 41
0.0104167
  0
SEQEND
 8
0
  0
POLYLINE
  8
0
 62
     253
 66
     1
 10
0
 20
0
 30
0.0
 40
0.75
 41
0.75
  0
VERTEX
  8
0
 10
4.74897
 20
3.40842
 30
0.0
 40
0.0104167
 41
0.0104167
  0
VERTEX
  8
0
 10
3.75304
 20
3.40842
 30
0.0
 40
0.0104167
 41
0.0104167
  0
SEQEND
 8
0
  0
POLYLINE
  8
0
 62
     7
 66
     1
 10
0
 20
0
 30
0.0
 70
     1
 40
0
 41
0
  0
VERTEX
  8
0
 10
4.34293
 20
3.12608
 30
0.0
 40
0
 41
0
  0
VERTEX
  8
0
 10
4.74897
 20
3.12608
 30
0.0
 40
0
 41
0
  0
VERTEX
  8
0
 10
4.74897
 20
2.54129
 30
0.0
 40
0
 41
0
  0
VERTEX
  8
0
 10
4.34293
 20
2.54129
 30
0.0
 40
0
 41
0
  0
VERTEX
  8
0
 10
4.34293
 20
3.12608
 30
0.0
 40
0
 41
0
  0
SEQEND
 8
0
  0
POLYLINE
  8
0
 62
     0
 66
     1
 10
0
 20
0
 30
0.0
 70
     1
 40
0.75
 41
0.75
  0
VERTEX
  8
0
 10
4.34293
 20
3.12608
 30
0.0
 40
0.0104167
 41
0.0104167
  0
VERTEX
  8
0
 10
4.74897
 20
3.12608
 30
0.0
 40
0.0104167
 41
0.0104167
  0
VERTEX
  8
0
 10
4.74897
 20
2.54129
 30
0.0
 40
0.0104167
 41
0.0104167
  0
VERTEX
  8
0
 10
4.34293
 20
2.54129
 30
0.0
 40
0.0104167
 41
0.0104167
  0
VERTEX
  8
0
 10
4.34293
 20
3.12608
 30
0.0
 40
0.0104167
 41
0.0104167
  0
SEQEND
 8
0
  0
POLYLINE
  8
0
 62
     7
 66
     1
 10
0
 20
0
 30
0.0
 70
     1
 40
0
 41
0
  0
VERTEX
  8
0
 10
3.75369
 20
3.12517
 30
0.0
 40
0
 41
0
  0
VERTEX
  8
0
 10
4.34293
 20
3.12517
 30
0.0
 40
0
 41
0
  0
VERTEX
  8
0
 10
4.34293
 20
2.54031
 30
0.0
 40
0
 41
0
  0
VERTEX
  8
0
 10
3.75369
 20
2.54031
 30
0.0
 40
0
 41
0
  0
VERTEX
  8
0
 10
3.75369
 20
3.12517
 30
0.0
 40
0
 41
0
  0
SEQEND
 8
0
  0
POLYLINE
  8
0
 62
     0
 66
     1
 10
0
 20
0
 30
0.0
 70
     1
 40
0.7071
 41
0.7071
  0
VERTEX
  8
0
 10
3.75369
 20
3.12517
 30
0.0
 40
0.00982083
 41
0.00982083
  0
VERTEX
  8
0
 10
4.34293
 20
3.12517
 30
0.0
 40
0.00982083
 41
0.00982083
  0
VERTEX
  8
0
 10
4.34293
 20
2.54031
 30
0.0
 40
0.00982083
 41
0.00982083
  0
VERTEX
  8
0
 10
3.75369
 20
2.54031
 30
0.0
 40
0.00982083
 41
0.00982083
  0
VERTEX
  8
0
 10
3.75369
 20
3.12517
 30
0.0
 40
0.00982083
 41
0.00982083
  0
SEQEND
 8
0
  0
POLYLINE
  8
0
 62
     0
 66
     1
 10
0
 20
0
 30
0.0
 40
0.7071
 41
0.7071
  0
VERTEX
  8
0
 10
3.75369
 20
3.12517
 30
0.0
 40
0.00982083
 41
0.00982083
  0
VERTEX
  8
0
 10
4.04833
 20
2.76351
 30
0.0
 40
0.00982083
 41
0.00982083
  0
VERTEX
  8
0
 10
4.04833
 20
2.93896
 30
0.0
 40
0.00982083
 41
0.00982083
  0
VERTEX
  8
0
 10
4.34293
 20
2.57639
 30
0.0
 40
0.00982083
 41
0.00982083
  0
SEQEND
 8
0
  0
POLYLINE
  8
0
 62
     7
 66
     1
 10
0
 20
0
 30
0.0
 70
     1
 40
0
 41
0
  0
VERTEX
  8
0
 10
3.75369
 20
2.57926
 30
0.0
 40
0
 41
0
  0
VERTEX
  8
0
 10
4.34293
 20
2.57926
 30
0.0
 40
0
 41
0
  0
VERTEX
  8
0
 10
4.34293
 20
2.54031
 30
0.0
 40
0
 41
0
  0
VERTEX
  8
0
 10
3.75369
 20
2.54031
 30
0.0
 40
0
 41
0
  0
VERTEX
  8
0
 10
3.75369
 20
2.57926
 30
0.0
 40
0
 41
0
  0
SEQEND
 8
0
  0
POLYLINE
  8
0
 62
     0
 66
     1
 10
0
 20
0
 30
0.0
 70
     1
 40
0.7071
 41
0.7071
  0
VERTEX
  8
0
 10
3.75369
 20
2.57926
 30
0.0
 40
0.00982083
 41
0.00982083
  0
VERTEX
  8
0
 10
4.34293
 20
2.57926
 30
0.0
 40
0.00982083
 41
0.00982083
  0
VERTEX
  8
0
 10
4.34293
 20
2.54031
 30
0.0
 40
0.00982083
 41
0.00982083
  0
VERTEX
  8
0
 10
3.75369
 20
2.54031
 30
0.0
 40
0.00982083
 41
0.00982083
  0
VERTEX
  8
0
 10
3.75369
 20
2.57926
 30
0.0
 40
0.00982083
 41
0.00982083
  0
SEQEND
 8
0
  0
POLYLINE
  8
0
 62
     0
 66
     1
 10
0
 20
0
 30
0.0
 70
     1
 40
0.75
 41
0.75
  0
VERTEX
  8
0
 10
3.19189
 20
1.37641
 30
0.0
 40
0.0104167
 41
0.0104167
  0
VERTEX
  8
0
 10
4.42854
 20
1.37641
 30
0.0
 40
0.0104167
 41
0.0104167
  0
VERTEX
  8
0
 10
4.42854
 20
1.03434
 30
0.0
 40
0.0104167
 41
0.0104167
  0
VERTEX
  8
0
 10
3.19189
 20
1.03434
 30
0.0
 40
0.0104167
 41
0.0104167
  0
VERTEX
  8
0
 10
3.19189
 20
1.37641
 30
0.0
 40
0.0104167
 41
0.0104167
  0
SEQEND
 8
0
  0
POLYLINE
  8
0
 62
     0
 66
     1
 10
0
 20
0
 30
0.0
 70
     1
 40
0.75
 41
0.75
  0
VERTEX
  8
0
 10
1.90901
 20
1.37489
 30
0.0
 40
0.0104167
 41
0.0104167
  0
VERTEX
  8
0
 10
2.68722
 20
1.37489
 30
0.0
 40
0.0104167
 41
0.0104167
  0
VERTEX
  8
0
 10
2.68722
 20
1.03532
 30
0.0
 40
0.0104167
 41
0.0104167
  0
VERTEX
  8
0
 10
1.90901
 20
1.03532
 30
0.0
 40
0.0104167
 41
0.0104167
  0
VERTEX
  8
0
 10
1.90901
 20
1.37489
 30
0.0
 40
0.0104167
 41
0.0104167
  0
SEQEND
 8
0
  0
POLYLINE
  8
0
 62
     7
 66
     1
 10
0
 20
0
 30
0.0
 70
     1
 40
0
 41
0
  0
VERTEX
  8
0
 10
5.92101
 20
5.27806
 30
0.0
 40
0
 41
0
  0
VERTEX
  8
0
 10
7.01893
 20
5.27806
 30
0.0
 40
0
 41
0
  0
VERTEX
  8
0
 10
7.01893
 20
4.96556
 30
0.0
 40
0
 41
0
  0
VERTEX
  8
0
 10
5.92101
 20
4.96556
 30
0.0
 40
0
 41
0
  0
VERTEX
  8
0
 10
5.92101
 20
5.27806
 30
0.0
 40
0
 41
0
  0
SEQEND
 8
0
  0
POLYLINE
  8
0
 62
     0
 66
     1
 10
0
 20
0
 30
0.0
 70
     1
 40
0.75
 41
0.75
  0
VERTEX
  8
0
 10
5.92101
 20
5.27806
 30
0.0
 40
0.0104167
 41
0.0104167
  0
VERTEX
  8
0
 10
7.01893
 20
5.27806
 30
0.0
 40
0.0104167
 41
0.0104167
  0
VERTEX
  8
0
 10
7.01893
 20
4.96556
 30
0.0
 40
0.0104167
 41
0.0104167
  0
VERTEX
  8
0
 10
5.92101
 20
4.96556
 30
0.0
 40
0.0104167
 41
0.0104167
  0
VERTEX
  8
0
 10
5.92101
 20
5.27806
 30
0.0
 40
0.0104167
 41
0.0104167
  0
SEQEND
 8
0
  0
POLYLINE
  8
0
 62
     0
 66
     1
 10
0
 20
0
 30
0.0
 40
0.4875
 41
0.4875
  0
VERTEX
  8
0
 10
5.92101
 20
5.23432
 30
0.0
 40
0.00677083
 41
0.00677083
  0
VERTEX
  8
0
 10
7.01888
 20
5.23432
 30
0.0
 40
0.00677083
 41
0.00677083
  0
SEQEND
 8
0
  0
POLYLINE
  8
0
 62
     0
 66
     1
 10
0
 20
0
 30
0.0
 40
0.4875
 41
0.4875
  0
VERTEX
  8
0
 10
5.92101
 20
5.19575
 30
0.0
 40
0.00677083
 41
0.00677083
  0
VERTEX
  8
0
 10
7.01888
 20
5.19575
 30
0.0
 40
0.00677083
 41
0.00677083
  0
SEQEND
 8
0
  0
POLYLINE
  8
0
 62
     0
 66
     1
 10
0
 20
0
 30
0.0
 40
0.4875
 41
0.4875
  0
VERTEX
  8
0
 10
5.92101
 20
5.15826
 30
0.0
 40
0.00677083
 41
0.00677083
  0
VERTEX
  8
0
 10
7.01888
 20
5.15826
 30
0.0
 40
0.00677083
 41
0.00677083
  0
SEQEND
 8
0
  0
POLYLINE
  8
0
 62
     0
 66
     1
 10
0
 20
0
 30
0.0
 40
0.4875
 41
0.4875
  0
VERTEX
  8
0
 10
5.92101
 20
5.12181
 30
0.0
 40
0.00677083
 41
0.00677083
  0
VERTEX
  8
0
 10
7.01888
 20
5.12181
 30
0.0
 40
0.00677083
 41
0.00677083
  0
SEQEND
 8
0
  0
POLYLINE
  8
0
 62
     0
 66
     1
 10
0
 20
0
 30
0.0
 40
0.4875
 41
0.4875
  0
VERTEX
  8
0
 10
5.92101
 20
5.08431
 30
0.0
 40
0.00677083
 41
0.00677083
  0
VERTEX
  8
0
 10
7.01888
 20
5.08431
 30
0.0
 40
0.00677083
 41
0.00677083
  0
SEQEND
 8
0
  0
POLYLINE
  8
0
 62
     0
 66
     1
 10
0
 20
0
 30
0.0
 40
0.4875
 41
0.4875
  0
VERTEX
  8
0
 10
5.92101
 20
5.04682
 30
0.0
 40
0.00677083
 41
0.00677083
  0
VERTEX
  8
0
 10
7.01888
 20
5.04682
 30
0.0
 40
0.00677083
 41
0.00677083
  0
SEQEND
 8
0
  0
POLYLINE
  8
0
 62
     0
 66
     1
 10
0
 20
0
 30
0.0
 40
0.4875
 41
0.4875
  0
VERTEX
  8
0
 10
5.92101
 20
5.00825
 30
0.0
 40
0.00677083
 41
0.00677083
  0
VERTEX
  8
0
 10
7.01888
 20
5.00825
 30
0.0
 40
0.00677083
 41
0.00677083
  0
SEQEND
 8
0
  0
POLYLINE
  8
0
 62
     7
 66
     1
 10
0
 20
0
 30
0.0
 70
     1
 40
0
 41
0
  0
VERTEX
  8
0
 10
5.9151
 20
7.87771
 30
0.0
 40
0
 41
0
  0
VERTEX
  8
0
 10
7.01714
 20
7.87771
 30
0.0
 40
0
 41
0
  0
VERTEX
  8
0
 10
7.01714
 20
7.57781
 30
0.0
 40
0
 41
0
  0
VERTEX
  8
0
 10
5.9151
 20
7.57781
 30
0.0
 40
0
 41
0
  0
VERTEX
  8
0
 10
5.9151
 20
7.87771
 30
0.0
 40
0
 41
0
  0
SEQEND
 8
0
  0
POLYLINE
  8
0
 62
     0
 66
     1
 10
0
 20
0
 30
0.0
 70
     1
 40
0.75
 41
0.75
  0
VERTEX
  8
0
 10
5.9151
 20
7.87771
 30
0.0
 40
0.0104167
 41
0.0104167
  0
VERTEX
  8
0
 10
7.01714
 20
7.87771
 30
0.0
 40
0.0104167
 41
0.0104167
  0
VERTEX
  8
0
 10
7.01714
 20
7.57781
 30
0.0
 40
0.0104167
 41
0.0104167
  0
VERTEX
  8
0
 10
5.9151
 20
7.57781
 30
0.0
 40
0.0104167
 41
0.0104167
  0
VERTEX
  8
0
 10
5.9151
 20
7.87771
 30
0.0
 40
0.0104167
 41
0.0104167
  0
SEQEND
 8
0
  0
POLYLINE
  8
0
 62
     7
 66
     1
 10
0
 20
0
 30
0.0
 70
     1
 40
0
 41
0
  0
VERTEX
  8
0
 10
5.9151
 20
8.88954
 30
0.0
 40
0
 41
0
  0
VERTEX
  8
0
 10
7.02029
 20
8.88954
 30
0.0
 40
0
 41
0
  0
VERTEX
  8
0
 10
7.02029
 20
8.54829
 30
0.0
 40
0
 41
0
  0
VERTEX
  8
0
 10
5.9151
 20
8.54829
 30
0.0
 40
0
 41
0
  0
VERTEX
  8
0
 10
5.9151
 20
8.88954
 30
0.0
 40
0
 41
0
  0
SEQEND
 8
0
  0
POLYLINE
  8
0
 62
     0
 66
     1
 10
0
 20
0
 30
0.0
 70
     1
 40
0.75
 41
0.75
  0
VERTEX
  8
0
 10
5.9151
 20
8.88954
 30
0.0
 40
0.0104167
 41
0.0104167
  0
VERTEX
  8
0
 10
7.02029
 20
8.88954
 30
0.0
 40
0.0104167
 41
0.0104167
  0
VERTEX
  8
0
 10
7.02029
 20
8.54829
 30
0.0
 40
0.0104167
 41
0.0104167
  0
VERTEX
  8
0
 10
5.9151
 20
8.54829
 30
0.0
 40
0.0104167
 41
0.0104167
  0
VERTEX
  8
0
 10
5.9151
 20
8.88954
 30
0.0
 40
0.0104167
 41
0.0104167
  0
SEQEND
 8
0
  0
POLYLINE
  8
0
 62
     253
 66
     1
 10
0
 20
0
 30
0.0
 40
0.75
 41
0.75
  0
VERTEX
  8
0
 10
5.9151
 20
8.71897
 30
0.0
 40
0.0104167
 41
0.0104167
  0
VERTEX
  8
0
 10
7.02024
 20
8.71897
 30
0.0
 40
0.0104167
 41
0.0104167
  0
SEQEND
 8
0
  0
POLYLINE
  8
0
 62
     7
 66
     1
 10
0
 20
0
 30
0.0
 70
     1
 40
0
 41
0
  0
VERTEX
  8
0
 10
1.36627
 20
1.65935
 30
0.0
 40
0
 41
0
  0
VERTEX
  8
0
 10
1.90901
 20
1.65935
 30
0.0
 40
0
 41
0
  0
VERTEX
  8
0
 10
1.90901
 20
1.03434
 30
0.0
 40
0
 41
0
  0
VERTEX
  8
0
 10
1.36627
 20
1.03434
 30
0.0
 40
0
 41
0
  0
VERTEX
  8
0
 10
1.36627
 20
1.65935
 30
0.0
 40
0
 41
0
  0
SEQEND
 8
0
  0
POLYLINE
  8
0
 62
     0
 66
     1
 10
0
 20
0
 30
0.0
 70
     1
 40
0.75
 41
0.75
  0
VERTEX
  8
0
 10
1.36627
 20
1.65935
 30
0.0
 40
0.0104167
 41
0.0104167
  0
VERTEX
  8
0
 10
1.90901
 20
1.65935
 30
0.0
 40
0.0104167
 41
0.0104167
  0
VERTEX
  8
0
 10
1.90901
 20
1.03434
 30
0.0
 40
0.0104167
 41
0.0104167
  0
VERTEX
  8
0
 10
1.36627
 20
1.03434
 30
0.0
 40
0.0104167
 41
0.0104167
  0
VERTEX
  8
0
 10
1.36627
 20
1.65935
 30
0.0
 40
0.0104167
 41
0.0104167
  0
SEQEND
 8
0
  0
POLYLINE
  8
0
 62
     0
 66
     1
 10
0
 20
0
 30
0.0
 70
     1
 40
0
 41
0
  0
VERTEX
  8
0
 10
10.6047
 20
9.30621
 30
0.0
 40
0
 41
0
  0
VERTEX
  8
0
 10
11.9214
 20
9.30621
 30
0.0
 40
0
 41
0
  0
VERTEX
  8
0
 10
11.7652
 20
9.14996
 30
0.0
 40
0
 41
0
  0
VERTEX
  8
0
 10
10.6047
 20
9.14996
 30
0.0
 40
0
 41
0
  0
VERTEX
  8
0
 10
10.6047
 20
9.30621
 30
0.0
 40
0
 41
0
  0
SEQEND
 8
0
  0
POLYLINE
  8
0
 62
     0
 66
     1
 10
0
 20
0
 30
0.0
 70
     1
 40
0.15
 41
0.15
  0
VERTEX
  8
0
 10
10.6047
 20
9.30621
 30
0.0
 40
0.00208333
 41
0.00208333
  0
VERTEX
  8
0
 10
11.9214
 20
9.30621
 30
0.0
 40
0.00208333
 41
0.00208333
  0
VERTEX
  8
0
 10
11.7652
 20
9.14996
 30
0.0
 40
0.00208333
 41
0.00208333
  0
VERTEX
  8
0
 10
10.6047
 20
9.14996
 30
0.0
 40
0.00208333
 41
0.00208333
  0
VERTEX
  8
0
 10
10.6047
 20
9.30621
 30
0.0
 40
0.00208333
 41
0.00208333
  0
SEQEND
 8
0
  0
POLYLINE
  8
0
 62
     0
 66
     1
 10
0
 20
0
 30
0.0
 70
     1
 40
0
 41
0
  0
VERTEX
  8
0
 10
11.9214
 20
9.30621
 30
0.0
 40
0
 41
0
  0
VERTEX
  8
0
 10
11.9214
 20
8.87864
 30
0.0
 40
0
 41
0
  0
VERTEX
  8
0
 10
11.7652
 20
8.87864
 30
0.0
 40
0
 41
0
  0
VERTEX
  8
0
 10
11.7652
 20
9.14996
 30
0.0
 40
0
 41
0
  0
VERTEX
  8
0
 10
11.9214
 20
9.30621
 30
0.0
 40
0
 41
0
  0
SEQEND
 8
0
  0
POLYLINE
  8
0
 62
     0
 66
     1
 10
0
 20
0
 30
0.0
 70
     1
 40
0.15
 41
0.15
  0
VERTEX
  8
0
 10
11.9214
 20
9.30621
 30
0.0
 40
0.00208333
 41
0.00208333
  0
VERTEX
  8
0
 10
11.9214
 20
8.87864
 30
0.0
 40
0.00208333
 41
0.00208333
  0
VERTEX
  8
0
 10
11.7652
 20
8.87864
 30
0.0
 40
0.00208333
 41
0.00208333
  0
VERTEX
  8
0
 10
11.7652
 20
9.14996
 30
0.0
 40
0.00208333
 41
0.00208333
  0
VERTEX
  8
0
 10
11.9214
 20
9.30621
 30
0.0
 40
0.00208333
 41
0.00208333
  0
SEQEND
 8
0
  0
POLYLINE
  8
0
 62
     0
 66
     1
 10
0
 20
0
 30
0.0
 70
     1
 40
0
 41
0
  0
VERTEX
  8
0
 10
10.6047
 20
3.81506
 30
0.0
 40
0
 41
0
  0
VERTEX
  8
0
 10
11.8664
 20
3.81506
 30
0.0
 40
0
 41
0
  0
VERTEX
  8
0
 10
11.8664
 20
3.52339
 30
0.0
 40
0
 41
0
  0
VERTEX
  8
0
 10
10.6047
 20
3.52339
 30
0.0
 40
0
 41
0
  0
VERTEX
  8
0
 10
10.6047
 20
3.81506
 30
0.0
 40
0
 41
0
  0
SEQEND
 8
0
  0
POLYLINE
  8
0
 62
     0
 66
     1
 10
0
 20
0
 30
0.0
 70
     1
 40
0.15
 41
0.15
  0
VERTEX
  8
0
 10
10.6047
 20
3.81506
 30
0.0
 40
0.00208333
 41
0.00208333
  0
VERTEX
  8
0
 10
11.8664
 20
3.81506
 30
0.0
 40
0.00208333
 41
0.00208333
  0
VERTEX
  8
0
 10
11.8664
 20
3.52339
 30
0.0
 40
0.00208333
 41
0.00208333
  0
VERTEX
  8
0
 10
10.6047
 20
3.52339
 30
0.0
 40
0.00208333
 41
0.00208333
  0
VERTEX
  8
0
 10
10.6047
 20
3.81506
 30
0.0
 40
0.00208333
 41
0.00208333
  0
SEQEND
 8
0
  0
POLYLINE
  8
0
 62
     7
 66
     1
 10
0
 20
0
 30
0.0
 70
     1
 40
0
 41
0
  0
VERTEX
  8
0
 10
11.8142
 20
8.87864
 30
0.0
 40
0
 41
0
  0
VERTEX
  8
0
 10
11.8663
 20
8.87864
 30
0.0
 40
0
 41
0
  0
VERTEX
  8
0
 10
11.8663
 20
3.81506
 30
0.0
 40
0
 41
0
  0
VERTEX
  8
0
 10
11.8142
 20
3.81506
 30
0.0
 40
0
 41
0
  0
VERTEX
  8
0
 10
11.8142
 20
8.87864
 30
0.0
 40
0
 41
0
  0
SEQEND
 8
0
  0
POLYLINE
  8
0
 62
     0
 66
     1
 10
0
 20
0
 30
0.0
 70
     1
 40
0.15
 41
0.15
  0
VERTEX
  8
0
 10
11.8142
 20
8.87864
 30
0.0
 40
0.00208333
 41
0.00208333
  0
VERTEX
  8
0
 10
11.8663
 20
8.87864
 30
0.0
 40
0.00208333
 41
0.00208333
  0
VERTEX
  8
0
 10
11.8663
 20
3.81506
 30
0.0
 40
0.00208333
 41
0.00208333
  0
VERTEX
  8
0
 10
11.8142
 20
3.81506
 30
0.0
 40
0.00208333
 41
0.00208333
  0
VERTEX
  8
0
 10
11.8142
 20
8.87864
 30
0.0
 40
0.00208333
 41
0.00208333
  0
SEQEND
 8
0
  0
ENDSEC
  0
EOF
