  0
SECTION
  2
HEADER
  9
$ACADVER
  1
AC1009
  9
$FILLMODE
 70
 0
  9
$SPLFRAME
 70
 1
  9
$EXTMIN
 10
0
 20
0
 30
0.0
  9
$EXTMAX
 10
41.6667
 20
41.6667
 30
0.0
  0
ENDSEC
  0
SECTION
  2
TABLES
  0
TABLE
  2
LAYER
 70
1
  0
LAYER
  2
0
 70
     0
 62
     7
  6
CONTINUOUS
  0
ENDTAB
  0
ENDSEC
  0
SECTION
  2
ENTITIES
  0
POLYLINE
  8
0
 62
     7
 66
     1
 10
0
 20
0
 30
0.0
 70
     1
 40
0
 41
0
  0
VERTEX
  8
0
 10
2.51779
 20
9.15028
 30
0.0
 40
0
 41
0
  0
VERTEX
  8
0
 10
2.51779
 20
11.4022
 30
0.0
 40
0
 41
0
  0
VERTEX
  8
0
 10
11.7021
 20
11.4022
 30
0.0
 40
0
 41
0
  0
VERTEX
  8
0
 10
11.7021
 20
9.14996
 30
0.0
 40
0
 41
0
  0
VERTEX
  8
0
 10
2.51779
 20
9.15028
 30
0.0
 40
0
 41
0
  0
SEQEND
 8
0
  0
POLYLINE
  8
0
 62
     0
 66
     1
 10
0
 20
0
 30
0.0
 70
     1
 40
0.15
 41
0.15
  0
VERTEX
  8
0
 10
2.51779
 20
9.15028
 30
0.0
 40
0.00208333
 41
0.00208333
  0
VERTEX
  8
0
 10
2.51779
 20
11.4022
 30
0.0
 40
0.00208333
 41
0.00208333
  0
VERTEX
  8
0
 10
11.7021
 20
11.4022
 30
0.0
 40
0.00208333
 41
0.00208333
  0
VERTEX
  8
0
 10
11.7021
 20
9.14996
 30
0.0
 40
0.00208333
 41
0.00208333
  0
VERTEX
  8
0
 10
2.51779
 20
9.15028
 30
0.0
 40
0.00208333
 41
0.00208333
  0
SEQEND
 8
0
  0
TEXT
  8
0
 62
     0
 10
10.4009
 20
10.2761
 30
0.0
 40
0.34375
  1
ULK
 50
0
  0
TEXT
  8
0
 62
     0
 10
11.0785
 20
10.2761
 30
0.0
 40
0.34375
  1
O
 50
0
  0
TEXT
  8
0
 62
     0
 10
11.3409
 20
10.2761
 30
0.0
 40
0.34375
  1
TILA
 50
0
  0
POLYLINE
  8
0
 62
     7
 66
     1
 10
0
 20
0
 30
0.0
 70
     1
 40
0
 41
0
  0
VERTEX
  8
0
 10
10.0139
 20
3.49496
 30
0.0
 40
0
 41
0
  0
VERTEX
  8
0
 10
8.57687
 20
3.49496
 30
0.0
 40
0
 41
0
  0
VERTEX
  8
0
 10
8.57687
 20
3.5134
 30
0.0
 40
0
 41
0
  0
VERTEX
  8
0
 10
7.7424
 20
3.5134
 30
0.0
 40
0
 41
0
  0
VERTEX
  8
0
 10
7.7424
 20
3.49496
 30
0.0
 40
0
 41
0
  0
VERTEX
  8
0
 10
5.52106
 20
3.49496
 30
0.0
 40
0
 41
0
  0
VERTEX
  8
0
 10
5.52106
 20
4.42453
 30
0.0
 40
0
 41
0
  0
VERTEX
  8
0
 10
5.528
 20
4.42453
 30
0.0
 40
0
 41
0
  0
VERTEX
  8
0
 10
5.528
 20
8.64953
 30
0.0
 40
0
 41
0
  0
VERTEX
  8
0
 10
10.0139
 20
8.64953
 30
0.0
 40
0
 41
0
  0
VERTEX
  8
0
 10
10.0139
 20
3.49496
 30
0.0
 40
0
 41
0
  0
SEQEND
 8
0
  0
POLYLINE
  8
0
 62
     7
 66
     1
 10
0
 20
0
 30
0.0
 70
     1
 40
0.15
 41
0.15
  0
VERTEX
  8
0
 10
10.0139
 20
3.49496
 30
0.0
 40
0.00208333
 41
0.00208333
  0
VERTEX
  8
0
 10
8.57687
 20
3.49496
 30
0.0
 40
0.00208333
 41
0.00208333
  0
VERTEX
  8
0
 10
8.57687
 20
3.5134
 30
0.0
 40
0.00208333
 41
0.00208333
  0
VERTEX
  8
0
 10
7.7424
 20
3.5134
 30
0.0
 40
0.00208333
 41
0.00208333
  0
VERTEX
  8
0
 10
7.7424
 20
3.49496
 30
0.0
 40
0.00208333
 41
0.00208333
  0
VERTEX
  8
0
 10
5.52106
 20
3.49496
 30
0.0
 40
0.00208333
 41
0.00208333
  0
VERTEX
  8
0
 10
5.52106
 20
4.42453
 30
0.0
 40
0.00208333
 41
0.00208333
  0
VERTEX
  8
0
 10
5.528
 20
4.42453
 30
0.0
 40
0.00208333
 41
0.00208333
  0
VERTEX
  8
0
 10
5.528
 20
8.64953
 30
0.0
 40
0.00208333
 41
0.00208333
  0
VERTEX
  8
0
 10
10.0139
 20
8.64953
 30
0.0
 40
0.00208333
 41
0.00208333
  0
VERTEX
  8
0
 10
10.0139
 20
3.49496
 30
0.0
 40
0.00208333
 41
0.00208333
  0
SEQEND
 8
0
  0
TEXT
  8
0
 62
     0
 10
7.65424
 20
5.76432
 30
0.0
 40
0.34375
  1
OH
 50
0
  0
POLYLINE
  8
0
 62
     7
 66
     1
 10
0
 20
0
 30
0.0
 70
     1
 40
0
 41
0
  0
VERTEX
  8
0
 10
7.7424
 20
3.40662
 30
0.0
 40
0
 41
0
  0
VERTEX
  8
0
 10
8.43365
 20
3.40662
 30
0.0
 40
0
 41
0
  0
VERTEX
  8
0
 10
8.43365
 20
2.70421
 30
0.0
 40
0
 41
0
  0
VERTEX
  8
0
 10
7.73394
 20
2.70421
 30
0.0
 40
0
 41
0
  0
VERTEX
  8
0
 10
7.73394
 20
1.17735
 30
0.0
 40
0
 41
0
  0
VERTEX
  8
0
 10
5.52106
 20
1.17735
 30
0.0
 40
0
 41
0
  0
VERTEX
  8
0
 10
5.52106
 20
3.49496
 30
0.0
 40
0
 41
0
  0
VERTEX
  8
0
 10
7.7424
 20
3.49496
 30
0.0
 40
0
 41
0
  0
VERTEX
  8
0
 10
7.7424
 20
3.40662
 30
0.0
 40
0
 41
0
  0
SEQEND
 8
0
  0
POLYLINE
  8
0
 62
     7
 66
     1
 10
0
 20
0
 30
0.0
 70
     1
 40
0.15
 41
0.15
  0
VERTEX
  8
0
 10
7.7424
 20
3.40662
 30
0.0
 40
0.00208333
 41
0.00208333
  0
VERTEX
  8
0
 10
8.43365
 20
3.40662
 30
0.0
 40
0.00208333
 41
0.00208333
  0
VERTEX
  8
0
 10
8.43365
 20
2.70421
 30
0.0
 40
0.00208333
 41
0.00208333
  0
VERTEX
  8
0
 10
7.73394
 20
2.70421
 30
0.0
 40
0.00208333
 41
0.00208333
  0
VERTEX
  8
0
 10
7.73394
 20
1.17735
 30
0.0
 40
0.00208333
 41
0.00208333
  0
VERTEX
  8
0
 10
5.52106
 20
1.17735
 30
0.0
 40
0.00208333
 41
0.00208333
  0
VERTEX
  8
0
 10
5.52106
 20
3.49496
 30
0.0
 40
0.00208333
 41
0.00208333
  0
VERTEX
  8
0
 10
7.7424
 20
3.49496
 30
0.0
 40
0.00208333
 41
0.00208333
  0
VERTEX
  8
0
 10
7.7424
 20
3.40662
 30
0.0
 40
0.00208333
 41
0.00208333
  0
SEQEND
 8
0
  0
TEXT
  8
0
 62
     0
 10
6.76075
 20
2.40979
 30
0.0
 40
0.34375
  1
K
 50
0
  0
POLYLINE
  8
0
 62
     7
 66
     1
 10
0
 20
0
 30
0.0
 70
     1
 40
0
 41
0
  0
VERTEX
  8
0
 10
10.0139
 20
1.17735
 30
0.0
 40
0
 41
0
  0
VERTEX
  8
0
 10
7.84978
 20
1.17735
 30
0.0
 40
0
 41
0
  0
VERTEX
  8
0
 10
7.84978
 20
2.59739
 30
0.0
 40
0
 41
0
  0
VERTEX
  8
0
 10
8.57687
 20
2.59739
 30
0.0
 40
0
 41
0
  0
VERTEX
  8
0
 10
8.57687
 20
3.49496
 30
0.0
 40
0
 41
0
  0
VERTEX
  8
0
 10
10.0139
 20
3.49496
 30
0.0
 40
0
 41
0
  0
VERTEX
  8
0
 10
10.0139
 20
1.17735
 30
0.0
 40
0
 41
0
  0
SEQEND
 8
0
  0
POLYLINE
  8
0
 62
     7
 66
     1
 10
0
 20
0
 30
0.0
 70
     1
 40
0.15
 41
0.15
  0
VERTEX
  8
0
 10
10.0139
 20
1.17735
 30
0.0
 40
0.00208333
 41
0.00208333
  0
VERTEX
  8
0
 10
7.84978
 20
1.17735
 30
0.0
 40
0.00208333
 41
0.00208333
  0
VERTEX
  8
0
 10
7.84978
 20
2.59739
 30
0.0
 40
0.00208333
 41
0.00208333
  0
VERTEX
  8
0
 10
8.57687
 20
2.59739
 30
0.0
 40
0.00208333
 41
0.00208333
  0
VERTEX
  8
0
 10
8.57687
 20
3.49496
 30
0.0
 40
0.00208333
 41
0.00208333
  0
VERTEX
  8
0
 10
10.0139
 20
3.49496
 30
0.0
 40
0.00208333
 41
0.00208333
  0
VERTEX
  8
0
 10
10.0139
 20
1.17735
 30
0.0
 40
0.00208333
 41
0.00208333
  0
SEQEND
 8
0
  0
TEXT
  8
0
 62
     0
 10
8.71356
 20
1.90156
 30
0.0
 40
0.34375
  1
ET
 50
0
  0
POLYLINE
  8
0
 62
     7
 66
     1
 10
0
 20
0
 30
0.0
 70
     1
 40
0
 41
0
  0
VERTEX
  8
0
 10
13.0004
 20
5.63807
 30
0.0
 40
0
 41
0
  0
VERTEX
  8
0
 10
12.561
 20
5.63807
 30
0.0
 40
0
 41
0
  0
VERTEX
  8
0
 10
12.561
 20
4.16737
 30
0.0
 40
0
 41
0
  0
VERTEX
  8
0
 10
12.2367
 20
4.16737
 30
0.0
 40
0
 41
0
  0
VERTEX
  8
0
 10
12.2367
 20
4.16037
 30
0.0
 40
0
 41
0
  0
VERTEX
  8
0
 10
11.5675
 20
4.16037
 30
0.0
 40
0
 41
0
  0
VERTEX
  8
0
 10
11.5675
 20
4.81569
 30
0.0
 40
0
 41
0
  0
VERTEX
  8
0
 10
10.1598
 20
4.81569
 30
0.0
 40
0
 41
0
  0
VERTEX
  8
0
 10
10.1598
 20
8.64953
 30
0.0
 40
0
 41
0
  0
VERTEX
  8
0
 10
13.0004
 20
8.64953
 30
0.0
 40
0
 41
0
  0
VERTEX
  8
0
 10
13.0004
 20
5.63807
 30
0.0
 40
0
 41
0
  0
SEQEND
 8
0
  0
POLYLINE
  8
0
 62
     7
 66
     1
 10
0
 20
0
 30
0.0
 70
     1
 40
0.15
 41
0.15
  0
VERTEX
  8
0
 10
13.0004
 20
5.63807
 30
0.0
 40
0.00208333
 41
0.00208333
  0
VERTEX
  8
0
 10
12.561
 20
5.63807
 30
0.0
 40
0.00208333
 41
0.00208333
  0
VERTEX
  8
0
 10
12.561
 20
4.16737
 30
0.0
 40
0.00208333
 41
0.00208333
  0
VERTEX
  8
0
 10
12.2367
 20
4.16737
 30
0.0
 40
0.00208333
 41
0.00208333
  0
VERTEX
  8
0
 10
12.2367
 20
4.16037
 30
0.0
 40
0.00208333
 41
0.00208333
  0
VERTEX
  8
0
 10
11.5675
 20
4.16037
 30
0.0
 40
0.00208333
 41
0.00208333
  0
VERTEX
  8
0
 10
11.5675
 20
4.81569
 30
0.0
 40
0.00208333
 41
0.00208333
  0
VERTEX
  8
0
 10
10.1598
 20
4.81569
 30
0.0
 40
0.00208333
 41
0.00208333
  0
VERTEX
  8
0
 10
10.1598
 20
8.64953
 30
0.0
 40
0.00208333
 41
0.00208333
  0
VERTEX
  8
0
 10
13.0004
 20
8.64953
 30
0.0
 40
0.00208333
 41
0.00208333
  0
VERTEX
  8
0
 10
13.0004
 20
5.63807
 30
0.0
 40
0.00208333
 41
0.00208333
  0
SEQEND
 8
0
  0
TEXT
  8
0
 62
     0
 10
11.329
 20
6.68842
 30
0.0
 40
0.34375
  1
MH
 50
0
  0
POLYLINE
  8
0
 62
     7
 66
     1
 10
0
 20
0
 30
0.0
 70
     1
 40
0
 41
0
  0
VERTEX
  8
0
 10
5.38217
 20
4.65831
 30
0.0
 40
0
 41
0
  0
VERTEX
  8
0
 10
2.51383
 20
4.65831
 30
0.0
 40
0
 41
0
  0
VERTEX
  8
0
 10
2.52458
 20
8.64953
 30
0.0
 40
0
 41
0
  0
VERTEX
  8
0
 10
5.38217
 20
8.64953
 30
0.0
 40
0
 41
0
  0
VERTEX
  8
0
 10
5.38217
 20
4.65831
 30
0.0
 40
0
 41
0
  0
SEQEND
 8
0
  0
POLYLINE
  8
0
 62
     7
 66
     1
 10
0
 20
0
 30
0.0
 70
     1
 40
0.15
 41
0.15
  0
VERTEX
  8
0
 10
5.38217
 20
4.65831
 30
0.0
 40
0.00208333
 41
0.00208333
  0
VERTEX
  8
0
 10
2.51383
 20
4.65831
 30
0.0
 40
0.00208333
 41
0.00208333
  0
VERTEX
  8
0
 10
2.52458
 20
8.64953
 30
0.0
 40
0.00208333
 41
0.00208333
  0
VERTEX
  8
0
 10
5.38217
 20
8.64953
 30
0.0
 40
0.00208333
 41
0.00208333
  0
VERTEX
  8
0
 10
5.38217
 20
4.65831
 30
0.0
 40
0.00208333
 41
0.00208333
  0
SEQEND
 8
0
  0
TEXT
  8
0
 62
     0
 10
3.69962
 20
6.78785
 30
0.0
 40
0.34375
  1
MH
 50
0
  0
POLYLINE
  8
0
 62
     7
 66
     1
 10
0
 20
0
 30
0.0
 70
     1
 40
0
 41
0
  0
VERTEX
  8
0
 10
11.4425
 20
4.05925
 30
0.0
 40
0
 41
0
  0
VERTEX
  8
0
 10
12.2367
 20
4.05925
 30
0.0
 40
0
 41
0
  0
VERTEX
  8
0
 10
12.2367
 20
1.17735
 30
0.0
 40
0
 41
0
  0
VERTEX
  8
0
 10
10.1598
 20
1.17735
 30
0.0
 40
0
 41
0
  0
VERTEX
  8
0
 10
10.1598
 20
4.71457
 30
0.0
 40
0
 41
0
  0
VERTEX
  8
0
 10
11.4425
 20
4.71457
 30
0.0
 40
0
 41
0
  0
VERTEX
  8
0
 10
11.4425
 20
4.05925
 30
0.0
 40
0
 41
0
  0
SEQEND
 8
0
  0
POLYLINE
  8
0
 62
     7
 66
     1
 10
0
 20
0
 30
0.0
 70
     1
 40
0.15
 41
0.15
  0
VERTEX
  8
0
 10
11.4425
 20
4.05925
 30
0.0
 40
0.00208333
 41
0.00208333
  0
VERTEX
  8
0
 10
12.2367
 20
4.05925
 30
0.0
 40
0.00208333
 41
0.00208333
  0
VERTEX
  8
0
 10
12.2367
 20
1.17735
 30
0.0
 40
0.00208333
 41
0.00208333
  0
VERTEX
  8
0
 10
10.1598
 20
1.17735
 30
0.0
 40
0.00208333
 41
0.00208333
  0
VERTEX
  8
0
 10
10.1598
 20
4.71457
 30
0.0
 40
0.00208333
 41
0.00208333
  0
VERTEX
  8
0
 10
11.4425
 20
4.71457
 30
0.0
 40
0.00208333
 41
0.00208333
  0
VERTEX
  8
0
 10
11.4425
 20
4.05925
 30
0.0
 40
0.00208333
 41
0.00208333
  0
SEQEND
 8
0
  0
TEXT
  8
0
 62
     0
 10
10.7803
 20
2.82264
 30
0.0
 40
0.34375
  1
KH
 50
0
  0
POLYLINE
  8
0
 62
     0
 66
     1
 10
0
 20
0
 30
0.0
 70
     1
 40
0
 41
0
  0
VERTEX
  8
0
 10
2.52458
 20
8.64953
 30
0.0
 40
0
 41
0
  0
VERTEX
  8
0
 10
12.4459
 20
8.64953
 30
0.0
 40
0
 41
0
  0
VERTEX
  8
0
 10
12.4459
 20
9.15994
 30
0.0
 40
0
 41
0
  0
VERTEX
  8
0
 10
2.30729
 20
9.15994
 30
0.0
 40
0
 41
0
  0
VERTEX
  8
0
 10
2.52458
 20
8.64953
 30
0.0
 40
0
 41
0
  0
SEQEND
 8
0
  0
POLYLINE
  8
0
 62
     0
 66
     1
 10
0
 20
0
 30
0.0
 70
     1
 40
0.15
 41
0.15
  0
VERTEX
  8
0
 10
2.52458
 20
8.64953
 30
0.0
 40
0.00208333
 41
0.00208333
  0
VERTEX
  8
0
 10
12.4459
 20
8.64953
 30
0.0
 40
0.00208333
 41
0.00208333
  0
VERTEX
  8
0
 10
12.4459
 20
9.15994
 30
0.0
 40
0.00208333
 41
0.00208333
  0
VERTEX
  8
0
 10
2.30729
 20
9.15994
 30
0.0
 40
0.00208333
 41
0.00208333
  0
VERTEX
  8
0
 10
2.52458
 20
8.64953
 30
0.0
 40
0.00208333
 41
0.00208333
  0
SEQEND
 8
0
  0
POLYLINE
  8
0
 62
     7
 66
     1
 10
0
 20
0
 30
0.0
 70
     1
 40
0
 41
0
  0
VERTEX
  8
0
 10
3.20404
 20
9.15994
 30
0.0
 40
0
 41
0
  0
VERTEX
  8
0
 10
4.96989
 20
9.15994
 30
0.0
 40
0
 41
0
  0
VERTEX
  8
0
 10
4.96989
 20
8.64953
 30
0.0
 40
0
 41
0
  0
VERTEX
  8
0
 10
3.20404
 20
8.64953
 30
0.0
 40
0
 41
0
  0
VERTEX
  8
0
 10
3.20404
 20
9.15994
 30
0.0
 40
0
 41
0
  0
SEQEND
 8
0
  0
POLYLINE
  8
0
 62
     0
 66
     1
 10
0
 20
0
 30
0.0
 70
     1
 40
0.75
 41
0.75
  0
VERTEX
  8
0
 10
3.20404
 20
9.15994
 30
0.0
 40
0.0104167
 41
0.0104167
  0
VERTEX
  8
0
 10
4.96989
 20
9.15994
 30
0.0
 40
0.0104167
 41
0.0104167
  0
VERTEX
  8
0
 10
4.96989
 20
8.64953
 30
0.0
 40
0.0104167
 41
0.0104167
  0
VERTEX
  8
0
 10
3.20404
 20
8.64953
 30
0.0
 40
0.0104167
 41
0.0104167
  0
VERTEX
  8
0
 10
3.20404
 20
9.15994
 30
0.0
 40
0.0104167
 41
0.0104167
  0
SEQEND
 8
0
  0
POLYLINE
  8
0
 62
     7
 66
     1
 10
0
 20
0
 30
0.0
 70
     1
 40
0
 41
0
  0
VERTEX
  8
0
 10
3.20404
 20
9.15994
 30
0.0
 40
0
 41
0
  0
VERTEX
  8
0
 10
4.96989
 20
9.15994
 30
0.0
 40
0
 41
0
  0
VERTEX
  8
0
 10
4.96989
 20
8.64953
 30
0.0
 40
0
 41
0
  0
VERTEX
  8
0
 10
3.20404
 20
8.64953
 30
0.0
 40
0
 41
0
  0
VERTEX
  8
0
 10
3.20404
 20
9.15994
 30
0.0
 40
0
 41
0
  0
SEQEND
 8
0
  0
POLYLINE
  8
0
 62
     0
 66
     1
 10
0
 20
0
 30
0.0
 70
     1
 40
0.75
 41
0.75
  0
VERTEX
  8
0
 10
3.20404
 20
9.15994
 30
0.0
 40
0.0104167
 41
0.0104167
  0
VERTEX
  8
0
 10
4.96989
 20
9.15994
 30
0.0
 40
0.0104167
 41
0.0104167
  0
VERTEX
  8
0
 10
4.96989
 20
8.64953
 30
0.0
 40
0.0104167
 41
0.0104167
  0
VERTEX
  8
0
 10
3.20404
 20
8.64953
 30
0.0
 40
0.0104167
 41
0.0104167
  0
VERTEX
  8
0
 10
3.20404
 20
9.15994
 30
0.0
 40
0.0104167
 41
0.0104167
  0
SEQEND
 8
0
  0
POLYLINE
  8
0
 62
     0
 66
     1
 10
0
 20
0
 30
0.0
 40
0.75
 41
0.75
  0
VERTEX
  8
0
 10
3.28217
 20
8.90474
 30
0.0
 40
0.0104167
 41
0.0104167
  0
VERTEX
  8
0
 10
4.89171
 20
8.90474
 30
0.0
 40
0.0104167
 41
0.0104167
  0
SEQEND
 8
0
  0
POLYLINE
  8
0
 62
     0
 66
     1
 10
0
 20
0
 30
0.0
 40
0.75
 41
0.75
  0
VERTEX
  8
0
 10
3.28217
 20
8.64953
 30
0.0
 40
0.0104167
 41
0.0104167
  0
VERTEX
  8
0
 10
3.28217
 20
9.15994
 30
0.0
 40
0.0104167
 41
0.0104167
  0
SEQEND
 8
0
  0
POLYLINE
  8
0
 62
     0
 66
     1
 10
0
 20
0
 30
0.0
 40
0.75
 41
0.75
  0
VERTEX
  8
0
 10
4.89171
 20
8.64953
 30
0.0
 40
0.0104167
 41
0.0104167
  0
VERTEX
  8
0
 10
4.89171
 20
9.15994
 30
0.0
 40
0.0104167
 41
0.0104167
  0
SEQEND
 8
0
  0
POLYLINE
  8
0
 62
     7
 66
     1
 10
0
 20
0
 30
0.0
 70
     1
 40
0
 41
0
  0
VERTEX
  8
0
 10
5.96311
 20
9.15994
 30
0.0
 40
0
 41
0
  0
VERTEX
  8
0
 10
7.89074
 20
9.15994
 30
0.0
 40
0
 41
0
  0
VERTEX
  8
0
 10
7.89074
 20
8.64953
 30
0.0
 40
0
 41
0
  0
VERTEX
  8
0
 10
5.96311
 20
8.64953
 30
0.0
 40
0
 41
0
  0
VERTEX
  8
0
 10
5.96311
 20
9.15994
 30
0.0
 40
0
 41
0
  0
SEQEND
 8
0
  0
POLYLINE
  8
0
 62
     0
 66
     1
 10
0
 20
0
 30
0.0
 70
     1
 40
0.75
 41
0.75
  0
VERTEX
  8
0
 10
5.96311
 20
9.15994
 30
0.0
 40
0.0104167
 41
0.0104167
  0
VERTEX
  8
0
 10
7.89074
 20
9.15994
 30
0.0
 40
0.0104167
 41
0.0104167
  0
VERTEX
  8
0
 10
7.89074
 20
8.64953
 30
0.0
 40
0.0104167
 41
0.0104167
  0
VERTEX
  8
0
 10
5.96311
 20
8.64953
 30
0.0
 40
0.0104167
 41
0.0104167
  0
VERTEX
  8
0
 10
5.96311
 20
9.15994
 30
0.0
 40
0.0104167
 41
0.0104167
  0
SEQEND
 8
0
  0
POLYLINE
  8
0
 62
     7
 66
     1
 10
0
 20
0
 30
0.0
 70
     1
 40
0
 41
0
  0
VERTEX
  8
0
 10
5.96311
 20
9.15994
 30
0.0
 40
0
 41
0
  0
VERTEX
  8
0
 10
7.89074
 20
9.15994
 30
0.0
 40
0
 41
0
  0
VERTEX
  8
0
 10
7.89074
 20
8.64953
 30
0.0
 40
0
 41
0
  0
VERTEX
  8
0
 10
5.96311
 20
8.64953
 30
0.0
 40
0
 41
0
  0
VERTEX
  8
0
 10
5.96311
 20
9.15994
 30
0.0
 40
0
 41
0
  0
SEQEND
 8
0
  0
POLYLINE
  8
0
 62
     0
 66
     1
 10
0
 20
0
 30
0.0
 70
     1
 40
0.75
 41
0.75
  0
VERTEX
  8
0
 10
5.96311
 20
9.15994
 30
0.0
 40
0.0104167
 41
0.0104167
  0
VERTEX
  8
0
 10
7.89074
 20
9.15994
 30
0.0
 40
0.0104167
 41
0.0104167
  0
VERTEX
  8
0
 10
7.89074
 20
8.64953
 30
0.0
 40
0.0104167
 41
0.0104167
  0
VERTEX
  8
0
 10
5.96311
 20
8.64953
 30
0.0
 40
0.0104167
 41
0.0104167
  0
VERTEX
  8
0
 10
5.96311
 20
9.15994
 30
0.0
 40
0.0104167
 41
0.0104167
  0
SEQEND
 8
0
  0
POLYLINE
  8
0
 62
     0
 66
     1
 10
0
 20
0
 30
0.0
 40
0.75
 41
0.75
  0
VERTEX
  8
0
 10
6.04124
 20
8.90474
 30
0.0
 40
0.0104167
 41
0.0104167
  0
VERTEX
  8
0
 10
7.81261
 20
8.90474
 30
0.0
 40
0.0104167
 41
0.0104167
  0
SEQEND
 8
0
  0
POLYLINE
  8
0
 62
     0
 66
     1
 10
0
 20
0
 30
0.0
 40
0.75
 41
0.75
  0
VERTEX
  8
0
 10
6.04124
 20
8.64953
 30
0.0
 40
0.0104167
 41
0.0104167
  0
VERTEX
  8
0
 10
6.04124
 20
9.15994
 30
0.0
 40
0.0104167
 41
0.0104167
  0
SEQEND
 8
0
  0
POLYLINE
  8
0
 62
     0
 66
     1
 10
0
 20
0
 30
0.0
 40
0.75
 41
0.75
  0
VERTEX
  8
0
 10
7.81261
 20
8.64953
 30
0.0
 40
0.0104167
 41
0.0104167
  0
VERTEX
  8
0
 10
7.81261
 20
9.15994
 30
0.0
 40
0.0104167
 41
0.0104167
  0
SEQEND
 8
0
  0
POLYLINE
  8
0
 62
     7
 66
     1
 10
0
 20
0
 30
0.0
 70
     1
 40
0
 41
0
  0
VERTEX
  8
0
 10
7.87603
 20
9.15994
 30
0.0
 40
0
 41
0
  0
VERTEX
  8
0
 10
8.39844
 20
9.15994
 30
0.0
 40
0
 41
0
  0
VERTEX
  8
0
 10
8.39844
 20
8.64953
 30
0.0
 40
0
 41
0
  0
VERTEX
  8
0
 10
7.87603
 20
8.64953
 30
0.0
 40
0
 41
0
  0
VERTEX
  8
0
 10
7.87603
 20
9.15994
 30
0.0
 40
0
 41
0
  0
SEQEND
 8
0
  0
POLYLINE
  8
0
 62
     0
 66
     1
 10
0
 20
0
 30
0.0
 70
     1
 40
0.75
 41
0.75
  0
VERTEX
  8
0
 10
7.87603
 20
9.15994
 30
0.0
 40
0.0104167
 41
0.0104167
  0
VERTEX
  8
0
 10
8.39844
 20
9.15994
 30
0.0
 40
0.0104167
 41
0.0104167
  0
VERTEX
  8
0
 10
8.39844
 20
8.64953
 30
0.0
 40
0.0104167
 41
0.0104167
  0
VERTEX
  8
0
 10
7.87603
 20
8.64953
 30
0.0
 40
0.0104167
 41
0.0104167
  0
VERTEX
  8
0
 10
7.87603
 20
9.15994
 30
0.0
 40
0.0104167
 41
0.0104167
  0
SEQEND
 8
0
  0
POLYLINE
  8
0
 62
     7
 66
     1
 10
0
 20
0
 30
0.0
 70
     1
 40
0
 41
0
  0
VERTEX
  8
0
 10
7.87603
 20
9.15994
 30
0.0
 40
0
 41
0
  0
VERTEX
  8
0
 10
8.39844
 20
9.15994
 30
0.0
 40
0
 41
0
  0
VERTEX
  8
0
 10
8.39844
 20
8.64953
 30
0.0
 40
0
 41
0
  0
VERTEX
  8
0
 10
7.87603
 20
8.64953
 30
0.0
 40
0
 41
0
  0
VERTEX
  8
0
 10
7.87603
 20
9.15994
 30
0.0
 40
0
 41
0
  0
SEQEND
 8
0
  0
POLYLINE
  8
0
 62
     0
 66
     1
 10
0
 20
0
 30
0.0
 70
     1
 40
0.75
 41
0.75
  0
VERTEX
  8
0
 10
7.87603
 20
9.15994
 30
0.0
 40
0.0104167
 41
0.0104167
  0
VERTEX
  8
0
 10
8.39844
 20
9.15994
 30
0.0
 40
0.0104167
 41
0.0104167
  0
VERTEX
  8
0
 10
8.39844
 20
8.64953
 30
0.0
 40
0.0104167
 41
0.0104167
  0
VERTEX
  8
0
 10
7.87603
 20
8.64953
 30
0.0
 40
0.0104167
 41
0.0104167
  0
VERTEX
  8
0
 10
7.87603
 20
9.15994
 30
0.0
 40
0.0104167
 41
0.0104167
  0
SEQEND
 8
0
  0
POLYLINE
  8
0
 62
     0
 66
     1
 10
0
 20
0
 30
0.0
 40
0.75
 41
0.75
  0
VERTEX
  8
0
 10
7.95415
 20
8.90474
 30
0.0
 40
0.0104167
 41
0.0104167
  0
VERTEX
  8
0
 10
8.32032
 20
8.90474
 30
0.0
 40
0.0104167
 41
0.0104167
  0
SEQEND
 8
0
  0
POLYLINE
  8
0
 62
     0
 66
     1
 10
0
 20
0
 30
0.0
 40
0.75
 41
0.75
  0
VERTEX
  8
0
 10
7.95415
 20
8.64953
 30
0.0
 40
0.0104167
 41
0.0104167
  0
VERTEX
  8
0
 10
7.95415
 20
9.15994
 30
0.0
 40
0.0104167
 41
0.0104167
  0
SEQEND
 8
0
  0
POLYLINE
  8
0
 62
     0
 66
     1
 10
0
 20
0
 30
0.0
 40
0.75
 41
0.75
  0
VERTEX
  8
0
 10
8.32032
 20
8.64953
 30
0.0
 40
0.0104167
 41
0.0104167
  0
VERTEX
  8
0
 10
8.32032
 20
9.15994
 30
0.0
 40
0.0104167
 41
0.0104167
  0
SEQEND
 8
0
  0
POLYLINE
  8
0
 62
     7
 66
     1
 10
0
 20
0
 30
0.0
 70
     1
 40
0
 41
0
  0
VERTEX
  8
0
 10
8.52354
 20
9.15994
 30
0.0
 40
0
 41
0
  0
VERTEX
  8
0
 10
9.49468
 20
9.15994
 30
0.0
 40
0
 41
0
  0
VERTEX
  8
0
 10
9.49468
 20
8.64953
 30
0.0
 40
0
 41
0
  0
VERTEX
  8
0
 10
8.52354
 20
8.64953
 30
0.0
 40
0
 41
0
  0
VERTEX
  8
0
 10
8.52354
 20
9.15994
 30
0.0
 40
0
 41
0
  0
SEQEND
 8
0
  0
POLYLINE
  8
0
 62
     0
 66
     1
 10
0
 20
0
 30
0.0
 70
     1
 40
0.75
 41
0.75
  0
VERTEX
  8
0
 10
8.52354
 20
9.15994
 30
0.0
 40
0.0104167
 41
0.0104167
  0
VERTEX
  8
0
 10
9.49468
 20
9.15994
 30
0.0
 40
0.0104167
 41
0.0104167
  0
VERTEX
  8
0
 10
9.49468
 20
8.64953
 30
0.0
 40
0.0104167
 41
0.0104167
  0
VERTEX
  8
0
 10
8.52354
 20
8.64953
 30
0.0
 40
0.0104167
 41
0.0104167
  0
VERTEX
  8
0
 10
8.52354
 20
9.15994
 30
0.0
 40
0.0104167
 41
0.0104167
  0
SEQEND
 8
0
  0
POLYLINE
  8
0
 62
     7
 66
     1
 10
0
 20
0
 30
0.0
 70
     1
 40
0
 41
0
  0
VERTEX
  8
0
 10
8.52354
 20
9.15994
 30
0.0
 40
0
 41
0
  0
VERTEX
  8
0
 10
9.49468
 20
9.15994
 30
0.0
 40
0
 41
0
  0
VERTEX
  8
0
 10
9.49468
 20
8.64953
 30
0.0
 40
0
 41
0
  0
VERTEX
  8
0
 10
8.52354
 20
8.64953
 30
0.0
 40
0
 41
0
  0
VERTEX
  8
0
 10
8.52354
 20
9.15994
 30
0.0
 40
0
 41
0
  0
SEQEND
 8
0
  0
POLYLINE
  8
0
 62
     0
 66
     1
 10
0
 20
0
 30
0.0
 70
     1
 40
0.75
 41
0.75
  0
VERTEX
  8
0
 10
8.52354
 20
9.15994
 30
0.0
 40
0.0104167
 41
0.0104167
  0
VERTEX
  8
0
 10
9.49468
 20
9.15994
 30
0.0
 40
0.0104167
 41
0.0104167
  0
VERTEX
  8
0
 10
9.49468
 20
8.64953
 30
0.0
 40
0.0104167
 41
0.0104167
  0
VERTEX
  8
0
 10
8.52354
 20
8.64953
 30
0.0
 40
0.0104167
 41
0.0104167
  0
VERTEX
  8
0
 10
8.52354
 20
9.15994
 30
0.0
 40
0.0104167
 41
0.0104167
  0
SEQEND
 8
0
  0
POLYLINE
  8
0
 62
     0
 66
     1
 10
0
 20
0
 30
0.0
 70
     1
 40
0.75
 41
0.75
  0
VERTEX
  8
0
 10
8.52354
 20
9.15994
 30
0.0
 40
0.0104167
 41
0.0104167
  0
VERTEX
  8
0
 10
8.52354
 20
9.21685
 30
0.0
 40
0.0104167
 41
0.0104167
  0
VERTEX
  8
0
 10
8.53868
 20
9.38758
 30
0.0
 40
0.0104167
 41
0.0104167
  0
VERTEX
  8
0
 10
8.58421
 20
9.58485
 30
0.0
 40
0.0104167
 41
0.0104167
  0
VERTEX
  8
0
 10
8.6601
 20
9.75179
 30
0.0
 40
0.0104167
 41
0.0104167
  0
VERTEX
  8
0
 10
8.76633
 20
9.88835
 30
0.0
 40
0.0104167
 41
0.0104167
  0
VERTEX
  8
0
 10
8.90289
 20
9.99457
 30
0.0
 40
0.0104167
 41
0.0104167
  0
VERTEX
  8
0
 10
9.06976
 20
10.0705
 30
0.0
 40
0.0104167
 41
0.0104167
  0
VERTEX
  8
0
 10
9.26704
 20
10.116
 30
0.0
 40
0.0104167
 41
0.0104167
  0
VERTEX
  8
0
 10
9.43778
 20
10.1311
 30
0.0
 40
0.0104167
 41
0.0104167
  0
VERTEX
  8
0
 10
9.49468
 20
10.1311
 30
0.0
 40
0.0104167
 41
0.0104167
  0
VERTEX
  8
0
 10
9.49468
 20
9.15994
 30
0.0
 40
0.0104167
 41
0.0104167
  0
VERTEX
  8
0
 10
8.52354
 20
9.15994
 30
0.0
 40
0.0104167
 41
0.0104167
  0
SEQEND
 8
0
  0
POLYLINE
  8
0
 62
     7
 66
     1
 10
0
 20
0
 30
0.0
 70
     1
 40
0
 41
0
  0
VERTEX
  8
0
 10
10.2967
 20
9.15994
 30
0.0
 40
0
 41
0
  0
VERTEX
  8
0
 10
11.6209
 20
9.15994
 30
0.0
 40
0
 41
0
  0
VERTEX
  8
0
 10
11.6209
 20
8.64953
 30
0.0
 40
0
 41
0
  0
VERTEX
  8
0
 10
10.2967
 20
8.64953
 30
0.0
 40
0
 41
0
  0
VERTEX
  8
0
 10
10.2967
 20
9.15994
 30
0.0
 40
0
 41
0
  0
SEQEND
 8
0
  0
POLYLINE
  8
0
 62
     0
 66
     1
 10
0
 20
0
 30
0.0
 70
     1
 40
0.75
 41
0.75
  0
VERTEX
  8
0
 10
10.2967
 20
9.15994
 30
0.0
 40
0.0104167
 41
0.0104167
  0
VERTEX
  8
0
 10
11.6209
 20
9.15994
 30
0.0
 40
0.0104167
 41
0.0104167
  0
VERTEX
  8
0
 10
11.6209
 20
8.64953
 30
0.0
 40
0.0104167
 41
0.0104167
  0
VERTEX
  8
0
 10
10.2967
 20
8.64953
 30
0.0
 40
0.0104167
 41
0.0104167
  0
VERTEX
  8
0
 10
10.2967
 20
9.15994
 30
0.0
 40
0.0104167
 41
0.0104167
  0
SEQEND
 8
0
  0
POLYLINE
  8
0
 62
     7
 66
     1
 10
0
 20
0
 30
0.0
 70
     1
 40
0
 41
0
  0
VERTEX
  8
0
 10
10.2967
 20
9.15994
 30
0.0
 40
0
 41
0
  0
VERTEX
  8
0
 10
11.6209
 20
9.15994
 30
0.0
 40
0
 41
0
  0
VERTEX
  8
0
 10
11.6209
 20
8.64953
 30
0.0
 40
0
 41
0
  0
VERTEX
  8
0
 10
10.2967
 20
8.64953
 30
0.0
 40
0
 41
0
  0
VERTEX
  8
0
 10
10.2967
 20
9.15994
 30
0.0
 40
0
 41
0
  0
SEQEND
 8
0
  0
POLYLINE
  8
0
 62
     0
 66
     1
 10
0
 20
0
 30
0.0
 70
     1
 40
0.75
 41
0.75
  0
VERTEX
  8
0
 10
10.2967
 20
9.15994
 30
0.0
 40
0.0104167
 41
0.0104167
  0
VERTEX
  8
0
 10
11.6209
 20
9.15994
 30
0.0
 40
0.0104167
 41
0.0104167
  0
VERTEX
  8
0
 10
11.6209
 20
8.64953
 30
0.0
 40
0.0104167
 41
0.0104167
  0
VERTEX
  8
0
 10
10.2967
 20
8.64953
 30
0.0
 40
0.0104167
 41
0.0104167
  0
VERTEX
  8
0
 10
10.2967
 20
9.15994
 30
0.0
 40
0.0104167
 41
0.0104167
  0
SEQEND
 8
0
  0
POLYLINE
  8
0
 62
     0
 66
     1
 10
0
 20
0
 30
0.0
 40
0.75
 41
0.75
  0
VERTEX
  8
0
 10
10.3748
 20
8.90474
 30
0.0
 40
0.0104167
 41
0.0104167
  0
VERTEX
  8
0
 10
11.5429
 20
8.90474
 30
0.0
 40
0.0104167
 41
0.0104167
  0
SEQEND
 8
0
  0
POLYLINE
  8
0
 62
     0
 66
     1
 10
0
 20
0
 30
0.0
 40
0.75
 41
0.75
  0
VERTEX
  8
0
 10
10.3748
 20
8.64953
 30
0.0
 40
0.0104167
 41
0.0104167
  0
VERTEX
  8
0
 10
10.3748
 20
9.15994
 30
0.0
 40
0.0104167
 41
0.0104167
  0
SEQEND
 8
0
  0
POLYLINE
  8
0
 62
     0
 66
     1
 10
0
 20
0
 30
0.0
 40
0.75
 41
0.75
  0
VERTEX
  8
0
 10
11.5429
 20
8.64953
 30
0.0
 40
0.0104167
 41
0.0104167
  0
VERTEX
  8
0
 10
11.5429
 20
9.15994
 30
0.0
 40
0.0104167
 41
0.0104167
  0
SEQEND
 8
0
  0
POLYLINE
  8
0
 62
     0
 66
     1
 10
0
 20
0
 30
0.0
 70
     1
 40
0
 41
0
  0
VERTEX
  8
0
 10
12.4459
 20
8.64953
 30
0.0
 40
0
 41
0
  0
VERTEX
  8
0
 10
13.0004
 20
8.64953
 30
0.0
 40
0
 41
0
  0
VERTEX
  8
0
 10
13.2921
 20
8.88683
 30
0.0
 40
0
 41
0
  0
VERTEX
  8
0
 10
12.4459
 20
8.88683
 30
0.0
 40
0
 41
0
  0
VERTEX
  8
0
 10
12.4459
 20
8.64953
 30
0.0
 40
0
 41
0
  0
SEQEND
 8
0
  0
POLYLINE
  8
0
 62
     0
 66
     1
 10
0
 20
0
 30
0.0
 70
     1
 40
0.15
 41
0.15
  0
VERTEX
  8
0
 10
12.4459
 20
8.64953
 30
0.0
 40
0.00208333
 41
0.00208333
  0
VERTEX
  8
0
 10
13.0004
 20
8.64953
 30
0.0
 40
0.00208333
 41
0.00208333
  0
VERTEX
  8
0
 10
13.2921
 20
8.88683
 30
0.0
 40
0.00208333
 41
0.00208333
  0
VERTEX
  8
0
 10
12.4459
 20
8.88683
 30
0.0
 40
0.00208333
 41
0.00208333
  0
VERTEX
  8
0
 10
12.4459
 20
8.64953
 30
0.0
 40
0.00208333
 41
0.00208333
  0
SEQEND
 8
0
  0
POLYLINE
  8
0
 62
     0
 66
     1
 10
0
 20
0
 30
0.0
 70
     1
 40
0
 41
0
  0
VERTEX
  8
0
 10
13.0004
 20
8.64953
 30
0.0
 40
0
 41
0
  0
VERTEX
  8
0
 10
13.0004
 20
4.16737
 30
0.0
 40
0
 41
0
  0
VERTEX
  8
0
 10
13.2921
 20
3.93821
 30
0.0
 40
0
 41
0
  0
VERTEX
  8
0
 10
13.2921
 20
8.88683
 30
0.0
 40
0
 41
0
  0
VERTEX
  8
0
 10
13.0004
 20
8.64953
 30
0.0
 40
0
 41
0
  0
SEQEND
 8
0
  0
POLYLINE
  8
0
 62
     0
 66
     1
 10
0
 20
0
 30
0.0
 70
     1
 40
0.15
 41
0.15
  0
VERTEX
  8
0
 10
13.0004
 20
8.64953
 30
0.0
 40
0.00208333
 41
0.00208333
  0
VERTEX
  8
0
 10
13.0004
 20
4.16737
 30
0.0
 40
0.00208333
 41
0.00208333
  0
VERTEX
  8
0
 10
13.2921
 20
3.93821
 30
0.0
 40
0.00208333
 41
0.00208333
  0
VERTEX
  8
0
 10
13.2921
 20
8.88683
 30
0.0
 40
0.00208333
 41
0.00208333
  0
VERTEX
  8
0
 10
13.0004
 20
8.64953
 30
0.0
 40
0.00208333
 41
0.00208333
  0
SEQEND
 8
0
  0
POLYLINE
  8
0
 62
     0
 66
     1
 10
0
 20
0
 30
0.0
 70
     1
 40
0
 41
0
  0
VERTEX
  8
0
 10
13.0004
 20
4.16737
 30
0.0
 40
0
 41
0
  0
VERTEX
  8
0
 10
12.2367
 20
4.16737
 30
0.0
 40
0
 41
0
  0
VERTEX
  8
0
 10
12.4658
 20
3.93821
 30
0.0
 40
0
 41
0
  0
VERTEX
  8
0
 10
13.2921
 20
3.93821
 30
0.0
 40
0
 41
0
  0
VERTEX
  8
0
 10
13.0004
 20
4.16737
 30
0.0
 40
0
 41
0
  0
SEQEND
 8
0
  0
POLYLINE
  8
0
 62
     0
 66
     1
 10
0
 20
0
 30
0.0
 70
     1
 40
0.15
 41
0.15
  0
VERTEX
  8
0
 10
13.0004
 20
4.16737
 30
0.0
 40
0.00208333
 41
0.00208333
  0
VERTEX
  8
0
 10
12.2367
 20
4.16737
 30
0.0
 40
0.00208333
 41
0.00208333
  0
VERTEX
  8
0
 10
12.4658
 20
3.93821
 30
0.0
 40
0.00208333
 41
0.00208333
  0
VERTEX
  8
0
 10
13.2921
 20
3.93821
 30
0.0
 40
0.00208333
 41
0.00208333
  0
VERTEX
  8
0
 10
13.0004
 20
4.16737
 30
0.0
 40
0.00208333
 41
0.00208333
  0
SEQEND
 8
0
  0
POLYLINE
  8
0
 62
     0
 66
     1
 10
0
 20
0
 30
0.0
 70
     1
 40
0
 41
0
  0
VERTEX
  8
0
 10
12.2367
 20
4.16737
 30
0.0
 40
0
 41
0
  0
VERTEX
  8
0
 10
12.2367
 20
1.17735
 30
0.0
 40
0
 41
0
  0
VERTEX
  8
0
 10
12.4658
 20
0.958604
 30
0.0
 40
0
 41
0
  0
VERTEX
  8
0
 10
12.4658
 20
3.93821
 30
0.0
 40
0
 41
0
  0
VERTEX
  8
0
 10
12.2367
 20
4.16737
 30
0.0
 40
0
 41
0
  0
SEQEND
 8
0
  0
POLYLINE
  8
0
 62
     0
 66
     1
 10
0
 20
0
 30
0.0
 70
     1
 40
0.15
 41
0.15
  0
VERTEX
  8
0
 10
12.2367
 20
4.16737
 30
0.0
 40
0.00208333
 41
0.00208333
  0
VERTEX
  8
0
 10
12.2367
 20
1.17735
 30
0.0
 40
0.00208333
 41
0.00208333
  0
VERTEX
  8
0
 10
12.4658
 20
0.958604
 30
0.0
 40
0.00208333
 41
0.00208333
  0
VERTEX
  8
0
 10
12.4658
 20
3.93821
 30
0.0
 40
0.00208333
 41
0.00208333
  0
VERTEX
  8
0
 10
12.2367
 20
4.16737
 30
0.0
 40
0.00208333
 41
0.00208333
  0
SEQEND
 8
0
  0
POLYLINE
  8
0
 62
     0
 66
     1
 10
0
 20
0
 30
0.0
 70
     1
 40
0
 41
0
  0
VERTEX
  8
0
 10
12.2367
 20
1.17735
 30
0.0
 40
0
 41
0
  0
VERTEX
  8
0
 10
5.52106
 20
1.17735
 30
0.0
 40
0
 41
0
  0
VERTEX
  8
0
 10
5.30231
 20
0.958604
 30
0.0
 40
0
 41
0
  0
VERTEX
  8
0
 10
12.4658
 20
0.958604
 30
0.0
 40
0
 41
0
  0
VERTEX
  8
0
 10
12.2367
 20
1.17735
 30
0.0
 40
0
 41
0
  0
SEQEND
 8
0
  0
POLYLINE
  8
0
 62
     0
 66
     1
 10
0
 20
0
 30
0.0
 70
     1
 40
0.15
 41
0.15
  0
VERTEX
  8
0
 10
12.2367
 20
1.17735
 30
0.0
 40
0.00208333
 41
0.00208333
  0
VERTEX
  8
0
 10
5.52106
 20
1.17735
 30
0.0
 40
0.00208333
 41
0.00208333
  0
VERTEX
  8
0
 10
5.30231
 20
0.958604
 30
0.0
 40
0.00208333
 41
0.00208333
  0
VERTEX
  8
0
 10
12.4658
 20
0.958604
 30
0.0
 40
0.00208333
 41
0.00208333
  0
VERTEX
  8
0
 10
12.2367
 20
1.17735
 30
0.0
 40
0.00208333
 41
0.00208333
  0
SEQEND
 8
0
  0
POLYLINE
  8
0
 62
     7
 66
     1
 10
0
 20
0
 30
0.0
 70
     1
 40
0
 41
0
  0
VERTEX
  8
0
 10
8.96821
 20
1.17735
 30
0.0
 40
0
 41
0
  0
VERTEX
  8
0
 10
9.92144
 20
1.17735
 30
0.0
 40
0
 41
0
  0
VERTEX
  8
0
 10
9.92144
 20
0.958604
 30
0.0
 40
0
 41
0
  0
VERTEX
  8
0
 10
8.96821
 20
0.958604
 30
0.0
 40
0
 41
0
  0
VERTEX
  8
0
 10
8.96821
 20
1.17735
 30
0.0
 40
0
 41
0
  0
SEQEND
 8
0
  0
POLYLINE
  8
0
 62
     0
 66
     1
 10
0
 20
0
 30
0.0
 70
     1
 40
0.75
 41
0.75
  0
VERTEX
  8
0
 10
8.96821
 20
1.17735
 30
0.0
 40
0.0104167
 41
0.0104167
  0
VERTEX
  8
0
 10
9.92144
 20
1.17735
 30
0.0
 40
0.0104167
 41
0.0104167
  0
VERTEX
  8
0
 10
9.92144
 20
0.958604
 30
0.0
 40
0.0104167
 41
0.0104167
  0
VERTEX
  8
0
 10
8.96821
 20
0.958604
 30
0.0
 40
0.0104167
 41
0.0104167
  0
VERTEX
  8
0
 10
8.96821
 20
1.17735
 30
0.0
 40
0.0104167
 41
0.0104167
  0
SEQEND
 8
0
  0
POLYLINE
  8
0
 62
     7
 66
     1
 10
0
 20
0
 30
0.0
 70
     1
 40
0
 41
0
  0
VERTEX
  8
0
 10
8.96821
 20
1.17735
 30
0.0
 40
0
 41
0
  0
VERTEX
  8
0
 10
9.92144
 20
1.17735
 30
0.0
 40
0
 41
0
  0
VERTEX
  8
0
 10
9.92144
 20
0.958604
 30
0.0
 40
0
 41
0
  0
VERTEX
  8
0
 10
8.96821
 20
0.958604
 30
0.0
 40
0
 41
0
  0
VERTEX
  8
0
 10
8.96821
 20
1.17735
 30
0.0
 40
0
 41
0
  0
SEQEND
 8
0
  0
POLYLINE
  8
0
 62
     0
 66
     1
 10
0
 20
0
 30
0.0
 70
     1
 40
0.75
 41
0.75
  0
VERTEX
  8
0
 10
8.96821
 20
1.17735
 30
0.0
 40
0.0104167
 41
0.0104167
  0
VERTEX
  8
0
 10
9.92144
 20
1.17735
 30
0.0
 40
0.0104167
 41
0.0104167
  0
VERTEX
  8
0
 10
9.92144
 20
0.958604
 30
0.0
 40
0.0104167
 41
0.0104167
  0
VERTEX
  8
0
 10
8.96821
 20
0.958604
 30
0.0
 40
0.0104167
 41
0.0104167
  0
VERTEX
  8
0
 10
8.96821
 20
1.17735
 30
0.0
 40
0.0104167
 41
0.0104167
  0
SEQEND
 8
0
  0
POLYLINE
  8
0
 62
     0
 66
     1
 10
0
 20
0
 30
0.0
 70
     1
 40
0.75
 41
0.75
  0
VERTEX
  8
0
 10
8.96821
 20
1.17735
 30
0.0
 40
0.0104167
 41
0.0104167
  0
VERTEX
  8
0
 10
8.96821
 20
1.23324
 30
0.0
 40
0.0104167
 41
0.0104167
  0
VERTEX
  8
0
 10
8.98307
 20
1.40076
 30
0.0
 40
0.0104167
 41
0.0104167
  0
VERTEX
  8
0
 10
9.02778
 20
1.5944
 30
0.0
 40
0.0104167
 41
0.0104167
  0
VERTEX
  8
0
 10
9.10221
 20
1.75825
 30
0.0
 40
0.0104167
 41
0.0104167
  0
VERTEX
  8
0
 10
9.20649
 20
1.89231
 30
0.0
 40
0.0104167
 41
0.0104167
  0
VERTEX
  8
0
 10
9.34056
 20
1.99658
 30
0.0
 40
0.0104167
 41
0.0104167
  0
VERTEX
  8
0
 10
9.50439
 20
2.07101
 30
0.0
 40
0.0104167
 41
0.0104167
  0
VERTEX
  8
0
 10
9.69803
 20
2.11572
 30
0.0
 40
0.0104167
 41
0.0104167
  0
VERTEX
  8
0
 10
9.86556
 20
2.13058
 30
0.0
 40
0.0104167
 41
0.0104167
  0
VERTEX
  8
0
 10
9.92144
 20
2.13058
 30
0.0
 40
0.0104167
 41
0.0104167
  0
VERTEX
  8
0
 10
9.92144
 20
1.17735
 30
0.0
 40
0.0104167
 41
0.0104167
  0
VERTEX
  8
0
 10
8.96821
 20
1.17735
 30
0.0
 40
0.0104167
 41
0.0104167
  0
SEQEND
 8
0
  0
POLYLINE
  8
0
 62
     0
 66
     1
 10
0
 20
0
 30
0.0
 70
     1
 40
0.75
 41
0.75
  0
VERTEX
  8
0
 10
9.92144
 20
0.958604
 30
0.0
 40
0.0104167
 41
0.0104167
  0
VERTEX
  8
0
 10
9.92144
 20
0.902778
 30
0.0
 40
0.0104167
 41
0.0104167
  0
VERTEX
  8
0
 10
9.90653
 20
0.735243
 30
0.0
 40
0.0104167
 41
0.0104167
  0
VERTEX
  8
0
 10
9.86182
 20
0.541613
 30
0.0
 40
0.0104167
 41
0.0104167
  0
VERTEX
  8
0
 10
9.78737
 20
0.377767
 30
0.0
 40
0.0104167
 41
0.0104167
  0
VERTEX
  8
0
 10
9.68311
 20
0.243707
 30
0.0
 40
0.0104167
 41
0.0104167
  0
VERTEX
  8
0
 10
9.5491
 20
0.139432
 30
0.0
 40
0.0104167
 41
0.0104167
  0
VERTEX
  8
0
 10
9.38525
 20
0.0649957
 30
0.0
 40
0.0104167
 41
0.0104167
  0
VERTEX
  8
0
 10
9.19163
 20
0.0202908
 30
0.0
 40
0.0104167
 41
0.0104167
  0
VERTEX
  8
0
 10
9.02403
 20
0.0053711
 30
0.0
 40
0.0104167
 41
0.0104167
  0
VERTEX
  8
0
 10
8.96821
 20
0.0053711
 30
0.0
 40
0.0104167
 41
0.0104167
  0
VERTEX
  8
0
 10
8.96821
 20
0.958604
 30
0.0
 40
0.0104167
 41
0.0104167
  0
VERTEX
  8
0
 10
9.92144
 20
0.958604
 30
0.0
 40
0.0104167
 41
0.0104167
  0
SEQEND
 8
0
  0
POLYLINE
  8
0
 62
     0
 66
     1
 10
0
 20
0
 30
0.0
 70
     1
 40
0
 41
0
  0
VERTEX
  8
0
 10
5.52106
 20
1.17735
 30
0.0
 40
0
 41
0
  0
VERTEX
  8
0
 10
5.52106
 20
4.65831
 30
0.0
 40
0
 41
0
  0
VERTEX
  8
0
 10
5.30231
 20
4.42453
 30
0.0
 40
0
 41
0
  0
VERTEX
  8
0
 10
5.30231
 20
0.958604
 30
0.0
 40
0
 41
0
  0
VERTEX
  8
0
 10
5.52106
 20
1.17735
 30
0.0
 40
0
 41
0
  0
SEQEND
 8
0
  0
POLYLINE
  8
0
 62
     0
 66
     1
 10
0
 20
0
 30
0.0
 70
     1
 40
0.15
 41
0.15
  0
VERTEX
  8
0
 10
5.52106
 20
1.17735
 30
0.0
 40
0.00208333
 41
0.00208333
  0
VERTEX
  8
0
 10
5.52106
 20
4.65831
 30
0.0
 40
0.00208333
 41
0.00208333
  0
VERTEX
  8
0
 10
5.30231
 20
4.42453
 30
0.0
 40
0.00208333
 41
0.00208333
  0
VERTEX
  8
0
 10
5.30231
 20
0.958604
 30
0.0
 40
0.00208333
 41
0.00208333
  0
VERTEX
  8
0
 10
5.52106
 20
1.17735
 30
0.0
 40
0.00208333
 41
0.00208333
  0
SEQEND
 8
0
  0
POLYLINE
  8
0
 62
     0
 66
     1
 10
0
 20
0
 30
0.0
 70
     1
 40
0
 41
0
  0
VERTEX
  8
0
 10
5.52106
 20
4.65831
 30
0.0
 40
0
 41
0
  0
VERTEX
  8
0
 10
2.51383
 20
4.65831
 30
0.0
 40
0
 41
0
  0
VERTEX
  8
0
 10
2.29449
 20
4.42453
 30
0.0
 40
0
 41
0
  0
VERTEX
  8
0
 10
5.30231
 20
4.42453
 30
0.0
 40
0
 41
0
  0
VERTEX
  8
0
 10
5.52106
 20
4.65831
 30
0.0
 40
0
 41
0
  0
SEQEND
 8
0
  0
POLYLINE
  8
0
 62
     0
 66
     1
 10
0
 20
0
 30
0.0
 70
     1
 40
0.15
 41
0.15
  0
VERTEX
  8
0
 10
5.52106
 20
4.65831
 30
0.0
 40
0.00208333
 41
0.00208333
  0
VERTEX
  8
0
 10
2.51383
 20
4.65831
 30
0.0
 40
0.00208333
 41
0.00208333
  0
VERTEX
  8
0
 10
2.29449
 20
4.42453
 30
0.0
 40
0.00208333
 41
0.00208333
  0
VERTEX
  8
0
 10
5.30231
 20
4.42453
 30
0.0
 40
0.00208333
 41
0.00208333
  0
VERTEX
  8
0
 10
5.52106
 20
4.65831
 30
0.0
 40
0.00208333
 41
0.00208333
  0
SEQEND
 8
0
  0
POLYLINE
  8
0
 62
     0
 66
     1
 10
0
 20
0
 30
0.0
 70
     1
 40
0
 41
0
  0
VERTEX
  8
0
 10
2.51383
 20
4.65831
 30
0.0
 40
0
 41
0
  0
VERTEX
  8
0
 10
2.52458
 20
8.64953
 30
0.0
 40
0
 41
0
  0
VERTEX
  8
0
 10
2.30729
 20
9.15994
 30
0.0
 40
0
 41
0
  0
VERTEX
  8
0
 10
2.29449
 20
4.42453
 30
0.0
 40
0
 41
0
  0
VERTEX
  8
0
 10
2.51383
 20
4.65831
 30
0.0
 40
0
 41
0
  0
SEQEND
 8
0
  0
POLYLINE
  8
0
 62
     0
 66
     1
 10
0
 20
0
 30
0.0
 70
     1
 40
0.15
 41
0.15
  0
VERTEX
  8
0
 10
2.51383
 20
4.65831
 30
0.0
 40
0.00208333
 41
0.00208333
  0
VERTEX
  8
0
 10
2.52458
 20
8.64953
 30
0.0
 40
0.00208333
 41
0.00208333
  0
VERTEX
  8
0
 10
2.30729
 20
9.15994
 30
0.0
 40
0.00208333
 41
0.00208333
  0
VERTEX
  8
0
 10
2.29449
 20
4.42453
 30
0.0
 40
0.00208333
 41
0.00208333
  0
VERTEX
  8
0
 10
2.51383
 20
4.65831
 30
0.0
 40
0.00208333
 41
0.00208333
  0
SEQEND
 8
0
  0
POLYLINE
  8
0
 62
     0
 66
     1
 10
0
 20
0
 30
0.0
 70
     1
 40
0
 41
0
  0
VERTEX
  8
0
 10
5.38217
 20
9.15994
 30
0.0
 40
0
 41
0
  0
VERTEX
  8
0
 10
5.528
 20
9.15994
 30
0.0
 40
0
 41
0
  0
VERTEX
  8
0
 10
5.528
 20
4.42453
 30
0.0
 40
0
 41
0
  0
VERTEX
  8
0
 10
5.38217
 20
4.42453
 30
0.0
 40
0
 41
0
  0
VERTEX
  8
0
 10
5.38217
 20
9.15994
 30
0.0
 40
0
 41
0
  0
SEQEND
 8
0
  0
POLYLINE
  8
0
 62
     0
 66
     1
 10
0
 20
0
 30
0.0
 70
     1
 40
0.15
 41
0.15
  0
VERTEX
  8
0
 10
5.38217
 20
9.15994
 30
0.0
 40
0.00208333
 41
0.00208333
  0
VERTEX
  8
0
 10
5.528
 20
9.15994
 30
0.0
 40
0.00208333
 41
0.00208333
  0
VERTEX
  8
0
 10
5.528
 20
4.42453
 30
0.0
 40
0.00208333
 41
0.00208333
  0
VERTEX
  8
0
 10
5.38217
 20
4.42453
 30
0.0
 40
0.00208333
 41
0.00208333
  0
VERTEX
  8
0
 10
5.38217
 20
9.15994
 30
0.0
 40
0.00208333
 41
0.00208333
  0
SEQEND
 8
0
  0
POLYLINE
  8
0
 62
     7
 66
     1
 10
0
 20
0
 30
0.0
 70
     1
 40
0
 41
0
  0
VERTEX
  8
0
 10
5.38217
 20
6.48296
 30
0.0
 40
0
 41
0
  0
VERTEX
  8
0
 10
5.528
 20
6.48296
 30
0.0
 40
0
 41
0
  0
VERTEX
  8
0
 10
5.528
 20
5.50738
 30
0.0
 40
0
 41
0
  0
VERTEX
  8
0
 10
5.38217
 20
5.50738
 30
0.0
 40
0
 41
0
  0
VERTEX
  8
0
 10
5.38217
 20
6.48296
 30
0.0
 40
0
 41
0
  0
SEQEND
 8
0
  0
POLYLINE
  8
0
 62
     0
 66
     1
 10
0
 20
0
 30
0.0
 70
     1
 40
0.75
 41
0.75
  0
VERTEX
  8
0
 10
5.38217
 20
6.48296
 30
0.0
 40
0.0104167
 41
0.0104167
  0
VERTEX
  8
0
 10
5.528
 20
6.48296
 30
0.0
 40
0.0104167
 41
0.0104167
  0
VERTEX
  8
0
 10
5.528
 20
5.50738
 30
0.0
 40
0.0104167
 41
0.0104167
  0
VERTEX
  8
0
 10
5.38217
 20
5.50738
 30
0.0
 40
0.0104167
 41
0.0104167
  0
VERTEX
  8
0
 10
5.38217
 20
6.48296
 30
0.0
 40
0.0104167
 41
0.0104167
  0
SEQEND
 8
0
  0
POLYLINE
  8
0
 62
     7
 66
     1
 10
0
 20
0
 30
0.0
 70
     1
 40
0
 41
0
  0
VERTEX
  8
0
 10
5.38217
 20
6.48296
 30
0.0
 40
0
 41
0
  0
VERTEX
  8
0
 10
5.528
 20
6.48296
 30
0.0
 40
0
 41
0
  0
VERTEX
  8
0
 10
5.528
 20
5.50738
 30
0.0
 40
0
 41
0
  0
VERTEX
  8
0
 10
5.38217
 20
5.50738
 30
0.0
 40
0
 41
0
  0
VERTEX
  8
0
 10
5.38217
 20
6.48296
 30
0.0
 40
0
 41
0
  0
SEQEND
 8
0
  0
POLYLINE
  8
0
 62
     0
 66
     1
 10
0
 20
0
 30
0.0
 70
     1
 40
0.75
 41
0.75
  0
VERTEX
  8
0
 10
5.38217
 20
6.48296
 30
0.0
 40
0.0104167
 41
0.0104167
  0
VERTEX
  8
0
 10
5.528
 20
6.48296
 30
0.0
 40
0.0104167
 41
0.0104167
  0
VERTEX
  8
0
 10
5.528
 20
5.50738
 30
0.0
 40
0.0104167
 41
0.0104167
  0
VERTEX
  8
0
 10
5.38217
 20
5.50738
 30
0.0
 40
0.0104167
 41
0.0104167
  0
VERTEX
  8
0
 10
5.38217
 20
6.48296
 30
0.0
 40
0.0104167
 41
0.0104167
  0
SEQEND
 8
0
  0
POLYLINE
  8
0
 62
     0
 66
     1
 10
0
 20
0
 30
0.0
 70
     1
 40
0.75
 41
0.75
  0
VERTEX
  8
0
 10
5.38217
 20
6.48296
 30
0.0
 40
0.0104167
 41
0.0104167
  0
VERTEX
  8
0
 10
5.32497
 20
6.48296
 30
0.0
 40
0.0104167
 41
0.0104167
  0
VERTEX
  8
0
 10
5.15349
 20
6.46778
 30
0.0
 40
0.0104167
 41
0.0104167
  0
VERTEX
  8
0
 10
4.95529
 20
6.42204
 30
0.0
 40
0.0104167
 41
0.0104167
  0
VERTEX
  8
0
 10
4.78765
 20
6.34581
 30
0.0
 40
0.0104167
 41
0.0104167
  0
VERTEX
  8
0
 10
4.65044
 20
6.2391
 30
0.0
 40
0.0104167
 41
0.0104167
  0
VERTEX
  8
0
 10
4.54372
 20
6.10189
 30
0.0
 40
0.0104167
 41
0.0104167
  0
VERTEX
  8
0
 10
4.4675
 20
5.93425
 30
0.0
 40
0.0104167
 41
0.0104167
  0
VERTEX
  8
0
 10
4.42176
 20
5.73606
 30
0.0
 40
0.0104167
 41
0.0104167
  0
VERTEX
  8
0
 10
4.40657
 20
5.56456
 30
0.0
 40
0.0104167
 41
0.0104167
  0
VERTEX
  8
0
 10
4.40657
 20
5.50738
 30
0.0
 40
0.0104167
 41
0.0104167
  0
VERTEX
  8
0
 10
5.38217
 20
5.50738
 30
0.0
 40
0.0104167
 41
0.0104167
  0
VERTEX
  8
0
 10
5.38217
 20
6.48296
 30
0.0
 40
0.0104167
 41
0.0104167
  0
SEQEND
 8
0
  0
POLYLINE
  8
0
 62
     0
 66
     1
 10
0
 20
0
 30
0.0
 70
     1
 40
0
 41
0
  0
VERTEX
  8
0
 10
10.0139
 20
9.15994
 30
0.0
 40
0
 41
0
  0
VERTEX
  8
0
 10
10.1598
 20
9.15994
 30
0.0
 40
0
 41
0
  0
VERTEX
  8
0
 10
10.1598
 20
0.958604
 30
0.0
 40
0
 41
0
  0
VERTEX
  8
0
 10
10.0139
 20
0.958604
 30
0.0
 40
0
 41
0
  0
VERTEX
  8
0
 10
10.0139
 20
9.15994
 30
0.0
 40
0
 41
0
  0
SEQEND
 8
0
  0
POLYLINE
  8
0
 62
     0
 66
     1
 10
0
 20
0
 30
0.0
 70
     1
 40
0.15
 41
0.15
  0
VERTEX
  8
0
 10
10.0139
 20
9.15994
 30
0.0
 40
0.00208333
 41
0.00208333
  0
VERTEX
  8
0
 10
10.1598
 20
9.15994
 30
0.0
 40
0.00208333
 41
0.00208333
  0
VERTEX
  8
0
 10
10.1598
 20
0.958604
 30
0.0
 40
0.00208333
 41
0.00208333
  0
VERTEX
  8
0
 10
10.0139
 20
0.958604
 30
0.0
 40
0.00208333
 41
0.00208333
  0
VERTEX
  8
0
 10
10.0139
 20
9.15994
 30
0.0
 40
0.00208333
 41
0.00208333
  0
SEQEND
 8
0
  0
POLYLINE
  8
0
 62
     7
 66
     1
 10
0
 20
0
 30
0.0
 70
     1
 40
0
 41
0
  0
VERTEX
  8
0
 10
10.0139
 20
5.86621
 30
0.0
 40
0
 41
0
  0
VERTEX
  8
0
 10
10.1598
 20
5.86621
 30
0.0
 40
0
 41
0
  0
VERTEX
  8
0
 10
10.1598
 20
4.93549
 30
0.0
 40
0
 41
0
  0
VERTEX
  8
0
 10
10.0139
 20
4.93549
 30
0.0
 40
0
 41
0
  0
VERTEX
  8
0
 10
10.0139
 20
5.86621
 30
0.0
 40
0
 41
0
  0
SEQEND
 8
0
  0
POLYLINE
  8
0
 62
     0
 66
     1
 10
0
 20
0
 30
0.0
 70
     1
 40
0.75
 41
0.75
  0
VERTEX
  8
0
 10
10.0139
 20
5.86621
 30
0.0
 40
0.0104167
 41
0.0104167
  0
VERTEX
  8
0
 10
10.1598
 20
5.86621
 30
0.0
 40
0.0104167
 41
0.0104167
  0
VERTEX
  8
0
 10
10.1598
 20
4.93549
 30
0.0
 40
0.0104167
 41
0.0104167
  0
VERTEX
  8
0
 10
10.0139
 20
4.93549
 30
0.0
 40
0.0104167
 41
0.0104167
  0
VERTEX
  8
0
 10
10.0139
 20
5.86621
 30
0.0
 40
0.0104167
 41
0.0104167
  0
SEQEND
 8
0
  0
POLYLINE
  8
0
 62
     7
 66
     1
 10
0
 20
0
 30
0.0
 70
     1
 40
0
 41
0
  0
VERTEX
  8
0
 10
10.0139
 20
5.86621
 30
0.0
 40
0
 41
0
  0
VERTEX
  8
0
 10
10.1598
 20
5.86621
 30
0.0
 40
0
 41
0
  0
VERTEX
  8
0
 10
10.1598
 20
4.93549
 30
0.0
 40
0
 41
0
  0
VERTEX
  8
0
 10
10.0139
 20
4.93549
 30
0.0
 40
0
 41
0
  0
VERTEX
  8
0
 10
10.0139
 20
5.86621
 30
0.0
 40
0
 41
0
  0
SEQEND
 8
0
  0
POLYLINE
  8
0
 62
     0
 66
     1
 10
0
 20
0
 30
0.0
 70
     1
 40
0.75
 41
0.75
  0
VERTEX
  8
0
 10
10.0139
 20
5.86621
 30
0.0
 40
0.0104167
 41
0.0104167
  0
VERTEX
  8
0
 10
10.1598
 20
5.86621
 30
0.0
 40
0.0104167
 41
0.0104167
  0
VERTEX
  8
0
 10
10.1598
 20
4.93549
 30
0.0
 40
0.0104167
 41
0.0104167
  0
VERTEX
  8
0
 10
10.0139
 20
4.93549
 30
0.0
 40
0.0104167
 41
0.0104167
  0
VERTEX
  8
0
 10
10.0139
 20
5.86621
 30
0.0
 40
0.0104167
 41
0.0104167
  0
SEQEND
 8
0
  0
POLYLINE
  8
0
 62
     0
 66
     1
 10
0
 20
0
 30
0.0
 70
     1
 40
0.75
 41
0.75
  0
VERTEX
  8
0
 10
10.1598
 20
5.86621
 30
0.0
 40
0.0104167
 41
0.0104167
  0
VERTEX
  8
0
 10
10.2143
 20
5.86621
 30
0.0
 40
0.0104167
 41
0.0104167
  0
VERTEX
  8
0
 10
10.3779
 20
5.85167
 30
0.0
 40
0.0104167
 41
0.0104167
  0
VERTEX
  8
0
 10
10.5669
 20
5.80806
 30
0.0
 40
0.0104167
 41
0.0104167
  0
VERTEX
  8
0
 10
10.7269
 20
5.73535
 30
0.0
 40
0.0104167
 41
0.0104167
  0
VERTEX
  8
0
 10
10.8578
 20
5.63357
 30
0.0
 40
0.0104167
 41
0.0104167
  0
VERTEX
  8
0
 10
10.9596
 20
5.50265
 30
0.0
 40
0.0104167
 41
0.0104167
  0
VERTEX
  8
0
 10
11.0323
 20
5.34272
 30
0.0
 40
0.0104167
 41
0.0104167
  0
VERTEX
  8
0
 10
11.0759
 20
5.15365
 30
0.0
 40
0.0104167
 41
0.0104167
  0
VERTEX
  8
0
 10
11.0905
 20
4.99007
 30
0.0
 40
0.0104167
 41
0.0104167
  0
VERTEX
  8
0
 10
11.0905
 20
4.93549
 30
0.0
 40
0.0104167
 41
0.0104167
  0
VERTEX
  8
0
 10
10.1598
 20
4.93549
 30
0.0
 40
0.0104167
 41
0.0104167
  0
VERTEX
  8
0
 10
10.1598
 20
5.86621
 30
0.0
 40
0.0104167
 41
0.0104167
  0
SEQEND
 8
0
  0
POLYLINE
  8
0
 62
     7
 66
     1
 10
0
 20
0
 30
0.0
 70
     1
 40
0
 41
0
  0
VERTEX
  8
0
 10
10.0139
 20
3.26465
 30
0.0
 40
0
 41
0
  0
VERTEX
  8
0
 10
10.1598
 20
3.26465
 30
0.0
 40
0
 41
0
  0
VERTEX
  8
0
 10
10.1598
 20
2.26654
 30
0.0
 40
0
 41
0
  0
VERTEX
  8
0
 10
10.0139
 20
2.26654
 30
0.0
 40
0
 41
0
  0
VERTEX
  8
0
 10
10.0139
 20
3.26465
 30
0.0
 40
0
 41
0
  0
SEQEND
 8
0
  0
POLYLINE
  8
0
 62
     0
 66
     1
 10
0
 20
0
 30
0.0
 70
     1
 40
0.75
 41
0.75
  0
VERTEX
  8
0
 10
10.0139
 20
3.26465
 30
0.0
 40
0.0104167
 41
0.0104167
  0
VERTEX
  8
0
 10
10.1598
 20
3.26465
 30
0.0
 40
0.0104167
 41
0.0104167
  0
VERTEX
  8
0
 10
10.1598
 20
2.26654
 30
0.0
 40
0.0104167
 41
0.0104167
  0
VERTEX
  8
0
 10
10.0139
 20
2.26654
 30
0.0
 40
0.0104167
 41
0.0104167
  0
VERTEX
  8
0
 10
10.0139
 20
3.26465
 30
0.0
 40
0.0104167
 41
0.0104167
  0
SEQEND
 8
0
  0
POLYLINE
  8
0
 62
     7
 66
     1
 10
0
 20
0
 30
0.0
 70
     1
 40
0
 41
0
  0
VERTEX
  8
0
 10
10.0139
 20
3.26465
 30
0.0
 40
0
 41
0
  0
VERTEX
  8
0
 10
10.1598
 20
3.26465
 30
0.0
 40
0
 41
0
  0
VERTEX
  8
0
 10
10.1598
 20
2.26654
 30
0.0
 40
0
 41
0
  0
VERTEX
  8
0
 10
10.0139
 20
2.26654
 30
0.0
 40
0
 41
0
  0
VERTEX
  8
0
 10
10.0139
 20
3.26465
 30
0.0
 40
0
 41
0
  0
SEQEND
 8
0
  0
POLYLINE
  8
0
 62
     0
 66
     1
 10
0
 20
0
 30
0.0
 70
     1
 40
0.75
 41
0.75
  0
VERTEX
  8
0
 10
10.0139
 20
3.26465
 30
0.0
 40
0.0104167
 41
0.0104167
  0
VERTEX
  8
0
 10
10.1598
 20
3.26465
 30
0.0
 40
0.0104167
 41
0.0104167
  0
VERTEX
  8
0
 10
10.1598
 20
2.26654
 30
0.0
 40
0.0104167
 41
0.0104167
  0
VERTEX
  8
0
 10
10.0139
 20
2.26654
 30
0.0
 40
0.0104167
 41
0.0104167
  0
VERTEX
  8
0
 10
10.0139
 20
3.26465
 30
0.0
 40
0.0104167
 41
0.0104167
  0
SEQEND
 8
0
  0
POLYLINE
  8
0
 62
     0
 66
     1
 10
0
 20
0
 30
0.0
 70
     1
 40
0.75
 41
0.75
  0
VERTEX
  8
0
 10
10.0139
 20
3.26465
 30
0.0
 40
0.0104167
 41
0.0104167
  0
VERTEX
  8
0
 10
9.95546
 20
3.26465
 30
0.0
 40
0.0104167
 41
0.0104167
  0
VERTEX
  8
0
 10
9.78
 20
3.24908
 30
0.0
 40
0.0104167
 41
0.0104167
  0
VERTEX
  8
0
 10
9.57731
 20
3.20231
 30
0.0
 40
0.0104167
 41
0.0104167
  0
VERTEX
  8
0
 10
9.40576
 20
3.12435
 30
0.0
 40
0.0104167
 41
0.0104167
  0
VERTEX
  8
0
 10
9.2654
 20
3.01519
 30
0.0
 40
0.0104167
 41
0.0104167
  0
VERTEX
  8
0
 10
9.15625
 20
2.87483
 30
0.0
 40
0.0104167
 41
0.0104167
  0
VERTEX
  8
0
 10
9.07829
 20
2.70329
 30
0.0
 40
0.0104167
 41
0.0104167
  0
VERTEX
  8
0
 10
9.03153
 20
2.5006
 30
0.0
 40
0.0104167
 41
0.0104167
  0
VERTEX
  8
0
 10
9.01594
 20
2.32514
 30
0.0
 40
0.0104167
 41
0.0104167
  0
VERTEX
  8
0
 10
9.01594
 20
2.26665
 30
0.0
 40
0.0104167
 41
0.0104167
  0
VERTEX
  8
0
 10
10.0139
 20
2.26665
 30
0.0
 40
0.0104167
 41
0.0104167
  0
VERTEX
  8
0
 10
10.0139
 20
3.26465
 30
0.0
 40
0.0104167
 41
0.0104167
  0
SEQEND
 8
0
  0
POLYLINE
  8
0
 62
     0
 66
     1
 10
0
 20
0
 30
0.0
 70
     1
 40
0
 41
0
  0
VERTEX
  8
0
 10
7.7424
 20
3.40662
 30
0.0
 40
0
 41
0
  0
VERTEX
  8
0
 10
8.43365
 20
3.40662
 30
0.0
 40
0
 41
0
  0
VERTEX
  8
0
 10
8.57687
 20
3.5134
 30
0.0
 40
0
 41
0
  0
VERTEX
  8
0
 10
7.7424
 20
3.5134
 30
0.0
 40
0
 41
0
  0
VERTEX
  8
0
 10
7.7424
 20
3.40662
 30
0.0
 40
0
 41
0
  0
SEQEND
 8
0
  0
POLYLINE
  8
0
 62
     0
 66
     1
 10
0
 20
0
 30
0.0
 70
     1
 40
0.15
 41
0.15
  0
VERTEX
  8
0
 10
7.7424
 20
3.40662
 30
0.0
 40
0.00208333
 41
0.00208333
  0
VERTEX
  8
0
 10
8.43365
 20
3.40662
 30
0.0
 40
0.00208333
 41
0.00208333
  0
VERTEX
  8
0
 10
8.57687
 20
3.5134
 30
0.0
 40
0.00208333
 41
0.00208333
  0
VERTEX
  8
0
 10
7.7424
 20
3.5134
 30
0.0
 40
0.00208333
 41
0.00208333
  0
VERTEX
  8
0
 10
7.7424
 20
3.40662
 30
0.0
 40
0.00208333
 41
0.00208333
  0
SEQEND
 8
0
  0
POLYLINE
  8
0
 62
     0
 66
     1
 10
0
 20
0
 30
0.0
 70
     1
 40
0
 41
0
  0
VERTEX
  8
0
 10
8.43365
 20
3.40662
 30
0.0
 40
0
 41
0
  0
VERTEX
  8
0
 10
8.43365
 20
2.70421
 30
0.0
 40
0
 41
0
  0
VERTEX
  8
0
 10
8.57687
 20
2.59739
 30
0.0
 40
0
 41
0
  0
VERTEX
  8
0
 10
8.57687
 20
3.5134
 30
0.0
 40
0
 41
0
  0
VERTEX
  8
0
 10
8.43365
 20
3.40662
 30
0.0
 40
0
 41
0
  0
SEQEND
 8
0
  0
POLYLINE
  8
0
 62
     0
 66
     1
 10
0
 20
0
 30
0.0
 70
     1
 40
0.15
 41
0.15
  0
VERTEX
  8
0
 10
8.43365
 20
3.40662
 30
0.0
 40
0.00208333
 41
0.00208333
  0
VERTEX
  8
0
 10
8.43365
 20
2.70421
 30
0.0
 40
0.00208333
 41
0.00208333
  0
VERTEX
  8
0
 10
8.57687
 20
2.59739
 30
0.0
 40
0.00208333
 41
0.00208333
  0
VERTEX
  8
0
 10
8.57687
 20
3.5134
 30
0.0
 40
0.00208333
 41
0.00208333
  0
VERTEX
  8
0
 10
8.43365
 20
3.40662
 30
0.0
 40
0.00208333
 41
0.00208333
  0
SEQEND
 8
0
  0
POLYLINE
  8
0
 62
     0
 66
     1
 10
0
 20
0
 30
0.0
 70
     1
 40
0
 41
0
  0
VERTEX
  8
0
 10
8.43365
 20
2.70421
 30
0.0
 40
0
 41
0
  0
VERTEX
  8
0
 10
7.73394
 20
2.70421
 30
0.0
 40
0
 41
0
  0
VERTEX
  8
0
 10
7.84978
 20
2.59739
 30
0.0
 40
0
 41
0
  0
VERTEX
  8
0
 10
8.57687
 20
2.59739
 30
0.0
 40
0
 41
0
  0
VERTEX
  8
0
 10
8.43365
 20
2.70421
 30
0.0
 40
0
 41
0
  0
SEQEND
 8
0
  0
POLYLINE
  8
0
 62
     0
 66
     1
 10
0
 20
0
 30
0.0
 70
     1
 40
0.15
 41
0.15
  0
VERTEX
  8
0
 10
8.43365
 20
2.70421
 30
0.0
 40
0.00208333
 41
0.00208333
  0
VERTEX
  8
0
 10
7.73394
 20
2.70421
 30
0.0
 40
0.00208333
 41
0.00208333
  0
VERTEX
  8
0
 10
7.84978
 20
2.59739
 30
0.0
 40
0.00208333
 41
0.00208333
  0
VERTEX
  8
0
 10
8.57687
 20
2.59739
 30
0.0
 40
0.00208333
 41
0.00208333
  0
VERTEX
  8
0
 10
8.43365
 20
2.70421
 30
0.0
 40
0.00208333
 41
0.00208333
  0
SEQEND
 8
0
  0
POLYLINE
  8
0
 62
     0
 66
     1
 10
0
 20
0
 30
0.0
 70
     1
 40
0
 41
0
  0
VERTEX
  8
0
 10
7.73394
 20
2.70421
 30
0.0
 40
0
 41
0
  0
VERTEX
  8
0
 10
7.73394
 20
0.958604
 30
0.0
 40
0
 41
0
  0
VERTEX
  8
0
 10
7.84978
 20
0.958604
 30
0.0
 40
0
 41
0
  0
VERTEX
  8
0
 10
7.84978
 20
2.59739
 30
0.0
 40
0
 41
0
  0
VERTEX
  8
0
 10
7.73394
 20
2.70421
 30
0.0
 40
0
 41
0
  0
SEQEND
 8
0
  0
POLYLINE
  8
0
 62
     0
 66
     1
 10
0
 20
0
 30
0.0
 70
     1
 40
0.15
 41
0.15
  0
VERTEX
  8
0
 10
7.73394
 20
2.70421
 30
0.0
 40
0.00208333
 41
0.00208333
  0
VERTEX
  8
0
 10
7.73394
 20
0.958604
 30
0.0
 40
0.00208333
 41
0.00208333
  0
VERTEX
  8
0
 10
7.84978
 20
0.958604
 30
0.0
 40
0.00208333
 41
0.00208333
  0
VERTEX
  8
0
 10
7.84978
 20
2.59739
 30
0.0
 40
0.00208333
 41
0.00208333
  0
VERTEX
  8
0
 10
7.73394
 20
2.70421
 30
0.0
 40
0.00208333
 41
0.00208333
  0
SEQEND
 8
0
  0
POLYLINE
  8
0
 62
     0
 66
     1
 10
0
 20
0
 30
0.0
 70
     1
 40
0
 41
0
  0
VERTEX
  8
0
 10
12.4658
 20
4.16037
 30
0.0
 40
0
 41
0
  0
VERTEX
  8
0
 10
11.5675
 20
4.16037
 30
0.0
 40
0
 41
0
  0
VERTEX
  8
0
 10
11.4425
 20
4.05925
 30
0.0
 40
0
 41
0
  0
VERTEX
  8
0
 10
12.4658
 20
4.05925
 30
0.0
 40
0
 41
0
  0
VERTEX
  8
0
 10
12.4658
 20
4.16037
 30
0.0
 40
0
 41
0
  0
SEQEND
 8
0
  0
POLYLINE
  8
0
 62
     0
 66
     1
 10
0
 20
0
 30
0.0
 70
     1
 40
0.15
 41
0.15
  0
VERTEX
  8
0
 10
12.4658
 20
4.16037
 30
0.0
 40
0.00208333
 41
0.00208333
  0
VERTEX
  8
0
 10
11.5675
 20
4.16037
 30
0.0
 40
0.00208333
 41
0.00208333
  0
VERTEX
  8
0
 10
11.4425
 20
4.05925
 30
0.0
 40
0.00208333
 41
0.00208333
  0
VERTEX
  8
0
 10
12.4658
 20
4.05925
 30
0.0
 40
0.00208333
 41
0.00208333
  0
VERTEX
  8
0
 10
12.4658
 20
4.16037
 30
0.0
 40
0.00208333
 41
0.00208333
  0
SEQEND
 8
0
  0
POLYLINE
  8
0
 62
     0
 66
     1
 10
0
 20
0
 30
0.0
 70
     1
 40
0
 41
0
  0
VERTEX
  8
0
 10
11.5675
 20
4.16037
 30
0.0
 40
0
 41
0
  0
VERTEX
  8
0
 10
11.5675
 20
4.81569
 30
0.0
 40
0
 41
0
  0
VERTEX
  8
0
 10
11.4425
 20
4.71457
 30
0.0
 40
0
 41
0
  0
VERTEX
  8
0
 10
11.4425
 20
4.05925
 30
0.0
 40
0
 41
0
  0
VERTEX
  8
0
 10
11.5675
 20
4.16037
 30
0.0
 40
0
 41
0
  0
SEQEND
 8
0
  0
POLYLINE
  8
0
 62
     0
 66
     1
 10
0
 20
0
 30
0.0
 70
     1
 40
0.15
 41
0.15
  0
VERTEX
  8
0
 10
11.5675
 20
4.16037
 30
0.0
 40
0.00208333
 41
0.00208333
  0
VERTEX
  8
0
 10
11.5675
 20
4.81569
 30
0.0
 40
0.00208333
 41
0.00208333
  0
VERTEX
  8
0
 10
11.4425
 20
4.71457
 30
0.0
 40
0.00208333
 41
0.00208333
  0
VERTEX
  8
0
 10
11.4425
 20
4.05925
 30
0.0
 40
0.00208333
 41
0.00208333
  0
VERTEX
  8
0
 10
11.5675
 20
4.16037
 30
0.0
 40
0.00208333
 41
0.00208333
  0
SEQEND
 8
0
  0
POLYLINE
  8
0
 62
     0
 66
     1
 10
0
 20
0
 30
0.0
 70
     1
 40
0
 41
0
  0
VERTEX
  8
0
 10
11.5675
 20
4.81569
 30
0.0
 40
0
 41
0
  0
VERTEX
  8
0
 10
10.0139
 20
4.81569
 30
0.0
 40
0
 41
0
  0
VERTEX
  8
0
 10
10.0139
 20
4.71457
 30
0.0
 40
0
 41
0
  0
VERTEX
  8
0
 10
11.4425
 20
4.71457
 30
0.0
 40
0
 41
0
  0
VERTEX
  8
0
 10
11.5675
 20
4.81569
 30
0.0
 40
0
 41
0
  0
SEQEND
 8
0
  0
POLYLINE
  8
0
 62
     0
 66
     1
 10
0
 20
0
 30
0.0
 70
     1
 40
0.15
 41
0.15
  0
VERTEX
  8
0
 10
11.5675
 20
4.81569
 30
0.0
 40
0.00208333
 41
0.00208333
  0
VERTEX
  8
0
 10
10.0139
 20
4.81569
 30
0.0
 40
0.00208333
 41
0.00208333
  0
VERTEX
  8
0
 10
10.0139
 20
4.71457
 30
0.0
 40
0.00208333
 41
0.00208333
  0
VERTEX
  8
0
 10
11.4425
 20
4.71457
 30
0.0
 40
0.00208333
 41
0.00208333
  0
VERTEX
  8
0
 10
11.5675
 20
4.81569
 30
0.0
 40
0.00208333
 41
0.00208333
  0
SEQEND
 8
0
  0
POLYLINE
  8
0
 62
     0
 66
     1
 10
0
 20
0
 30
0.0
 70
     1
 40
0
 41
0
  0
VERTEX
  8
0
 10
12.561
 20
5.63807
 30
0.0
 40
0
 41
0
  0
VERTEX
  8
0
 10
13.0092
 20
5.63807
 30
0.0
 40
0
 41
0
  0
VERTEX
  8
0
 10
13.0092
 20
3.93821
 30
0.0
 40
0
 41
0
  0
VERTEX
  8
0
 10
12.561
 20
3.93821
 30
0.0
 40
0
 41
0
  0
VERTEX
  8
0
 10
12.561
 20
5.63807
 30
0.0
 40
0
 41
0
  0
SEQEND
 8
0
  0
POLYLINE
  8
0
 62
     0
 66
     1
 10
0
 20
0
 30
0.0
 70
     1
 40
0.15
 41
0.15
  0
VERTEX
  8
0
 10
12.561
 20
5.63807
 30
0.0
 40
0.00208333
 41
0.00208333
  0
VERTEX
  8
0
 10
13.0092
 20
5.63807
 30
0.0
 40
0.00208333
 41
0.00208333
  0
VERTEX
  8
0
 10
13.0092
 20
3.93821
 30
0.0
 40
0.00208333
 41
0.00208333
  0
VERTEX
  8
0
 10
12.561
 20
3.93821
 30
0.0
 40
0.00208333
 41
0.00208333
  0
VERTEX
  8
0
 10
12.561
 20
5.63807
 30
0.0
 40
0.00208333
 41
0.00208333
  0
SEQEND
 8
0
  0
POLYLINE
  8
0
 62
     0
 66
     1
 10
0
 20
0
 30
0.0
 70
     1
 40
0
 41
0
  0
VERTEX
  8
0
 10
11.6834
 20
11.4057
 30
0.0
 40
0
 41
0
  0
VERTEX
  8
0
 10
12.4516
 20
11.4057
 30
0.0
 40
0
 41
0
  0
VERTEX
  8
0
 10
12.4516
 20
8.64953
 30
0.0
 40
0
 41
0
  0
VERTEX
  8
0
 10
11.6834
 20
8.64953
 30
0.0
 40
0
 41
0
  0
VERTEX
  8
0
 10
11.6834
 20
11.4057
 30
0.0
 40
0
 41
0
  0
SEQEND
 8
0
  0
POLYLINE
  8
0
 62
     0
 66
     1
 10
0
 20
0
 30
0.0
 70
     1
 40
0.15
 41
0.15
  0
VERTEX
  8
0
 10
11.6834
 20
11.4057
 30
0.0
 40
0.00208333
 41
0.00208333
  0
VERTEX
  8
0
 10
12.4516
 20
11.4057
 30
0.0
 40
0.00208333
 41
0.00208333
  0
VERTEX
  8
0
 10
12.4516
 20
8.64953
 30
0.0
 40
0.00208333
 41
0.00208333
  0
VERTEX
  8
0
 10
11.6834
 20
8.64953
 30
0.0
 40
0.00208333
 41
0.00208333
  0
VERTEX
  8
0
 10
11.6834
 20
11.4057
 30
0.0
 40
0.00208333
 41
0.00208333
  0
SEQEND
 8
0
  0
POLYLINE
  8
0
 62
     0
 66
     1
 10
0
 20
0
 30
0.0
 70
     1
 40
0
 41
0
  0
VERTEX
  8
0
 10
2.31207
 20
11.4204
 30
0.0
 40
0
 41
0
  0
VERTEX
  8
0
 10
2.53342
 20
11.4204
 30
0.0
 40
0
 41
0
  0
VERTEX
  8
0
 10
2.53342
 20
8.64953
 30
0.0
 40
0
 41
0
  0
VERTEX
  8
0
 10
2.31207
 20
8.64953
 30
0.0
 40
0
 41
0
  0
VERTEX
  8
0
 10
2.31207
 20
11.4204
 30
0.0
 40
0
 41
0
  0
SEQEND
 8
0
  0
POLYLINE
  8
0
 62
     0
 66
     1
 10
0
 20
0
 30
0.0
 70
     1
 40
0.15
 41
0.15
  0
VERTEX
  8
0
 10
2.31207
 20
11.4204
 30
0.0
 40
0.00208333
 41
0.00208333
  0
VERTEX
  8
0
 10
2.53342
 20
11.4204
 30
0.0
 40
0.00208333
 41
0.00208333
  0
VERTEX
  8
0
 10
2.53342
 20
8.64953
 30
0.0
 40
0.00208333
 41
0.00208333
  0
VERTEX
  8
0
 10
2.31207
 20
8.64953
 30
0.0
 40
0.00208333
 41
0.00208333
  0
VERTEX
  8
0
 10
2.31207
 20
11.4204
 30
0.0
 40
0.00208333
 41
0.00208333
  0
SEQEND
 8
0
  0
POLYLINE
  8
0
 62
     7
 66
     1
 10
0
 20
0
 30
0.0
 70
     1
 40
0
 41
0
  0
VERTEX
  8
0
 10
2.51129
 20
5.28331
 30
0.0
 40
0
 41
0
  0
VERTEX
  8
0
 10
3.12597
 20
5.28331
 30
0.0
 40
0
 41
0
  0
VERTEX
  8
0
 10
3.12597
 20
4.65831
 30
0.0
 40
0
 41
0
  0
VERTEX
  8
0
 10
2.51129
 20
4.65831
 30
0.0
 40
0
 41
0
  0
VERTEX
  8
0
 10
2.51129
 20
5.28331
 30
0.0
 40
0
 41
0
  0
SEQEND
 8
0
  0
POLYLINE
  8
0
 62
     0
 66
     1
 10
0
 20
0
 30
0.0
 70
     1
 40
0.75
 41
0.75
  0
VERTEX
  8
0
 10
2.51129
 20
5.28331
 30
0.0
 40
0.0104167
 41
0.0104167
  0
VERTEX
  8
0
 10
3.12597
 20
5.28331
 30
0.0
 40
0.0104167
 41
0.0104167
  0
VERTEX
  8
0
 10
3.12597
 20
4.65831
 30
0.0
 40
0.0104167
 41
0.0104167
  0
VERTEX
  8
0
 10
2.51129
 20
4.65831
 30
0.0
 40
0.0104167
 41
0.0104167
  0
VERTEX
  8
0
 10
2.51129
 20
5.28331
 30
0.0
 40
0.0104167
 41
0.0104167
  0
SEQEND
 8
0
  0
POLYLINE
  8
0
 62
     7
 66
     1
 10
0
 20
0
 30
0.0
 70
     1
 40
0
 41
0
  0
VERTEX
  8
0
 10
3.12592
 20
5.28331
 30
0.0
 40
0
 41
0
  0
VERTEX
  8
0
 10
4.24278
 20
5.28331
 30
0.0
 40
0
 41
0
  0
VERTEX
  8
0
 10
4.24278
 20
4.65831
 30
0.0
 40
0
 41
0
  0
VERTEX
  8
0
 10
3.12592
 20
4.65831
 30
0.0
 40
0
 41
0
  0
VERTEX
  8
0
 10
3.12592
 20
5.28331
 30
0.0
 40
0
 41
0
  0
SEQEND
 8
0
  0
POLYLINE
  8
0
 62
     0
 66
     1
 10
0
 20
0
 30
0.0
 70
     1
 40
0.75
 41
0.75
  0
VERTEX
  8
0
 10
3.12592
 20
5.28331
 30
0.0
 40
0.0104167
 41
0.0104167
  0
VERTEX
  8
0
 10
4.24278
 20
5.28331
 30
0.0
 40
0.0104167
 41
0.0104167
  0
VERTEX
  8
0
 10
4.24278
 20
4.65831
 30
0.0
 40
0.0104167
 41
0.0104167
  0
VERTEX
  8
0
 10
3.12592
 20
4.65831
 30
0.0
 40
0.0104167
 41
0.0104167
  0
VERTEX
  8
0
 10
3.12592
 20
5.28331
 30
0.0
 40
0.0104167
 41
0.0104167
  0
SEQEND
 8
0
  0
POLYLINE
  8
0
 62
     253
 66
     1
 10
0
 20
0
 30
0.0
 40
0.75
 41
0.75
  0
VERTEX
  8
0
 10
4.24278
 20
4.97081
 30
0.0
 40
0.0104167
 41
0.0104167
  0
VERTEX
  8
0
 10
3.12597
 20
4.97081
 30
0.0
 40
0.0104167
 41
0.0104167
  0
SEQEND
 8
0
  0
POLYLINE
  8
0
 62
     7
 66
     1
 10
0
 20
0
 30
0.0
 70
     1
 40
0
 41
0
  0
VERTEX
  8
0
 10
4.78515
 20
5.28331
 30
0.0
 40
0
 41
0
  0
VERTEX
  8
0
 10
5.32742
 20
5.28331
 30
0.0
 40
0
 41
0
  0
VERTEX
  8
0
 10
5.32742
 20
4.65831
 30
0.0
 40
0
 41
0
  0
VERTEX
  8
0
 10
4.78515
 20
4.65831
 30
0.0
 40
0
 41
0
  0
VERTEX
  8
0
 10
4.78515
 20
5.28331
 30
0.0
 40
0
 41
0
  0
SEQEND
 8
0
  0
POLYLINE
  8
0
 62
     0
 66
     1
 10
0
 20
0
 30
0.0
 70
     1
 40
0.75
 41
0.75
  0
VERTEX
  8
0
 10
4.78515
 20
5.28331
 30
0.0
 40
0.0104167
 41
0.0104167
  0
VERTEX
  8
0
 10
5.32742
 20
5.28331
 30
0.0
 40
0.0104167
 41
0.0104167
  0
VERTEX
  8
0
 10
5.32742
 20
4.65831
 30
0.0
 40
0.0104167
 41
0.0104167
  0
VERTEX
  8
0
 10
4.78515
 20
4.65831
 30
0.0
 40
0.0104167
 41
0.0104167
  0
VERTEX
  8
0
 10
4.78515
 20
5.28331
 30
0.0
 40
0.0104167
 41
0.0104167
  0
SEQEND
 8
0
  0
POLYLINE
  8
0
 62
     7
 66
     1
 10
0
 20
0
 30
0.0
 70
     1
 40
0
 41
0
  0
VERTEX
  8
0
 10
4.24278
 20
5.28331
 30
0.0
 40
0
 41
0
  0
VERTEX
  8
0
 10
4.7851
 20
5.28331
 30
0.0
 40
0
 41
0
  0
VERTEX
  8
0
 10
4.7851
 20
4.65831
 30
0.0
 40
0
 41
0
  0
VERTEX
  8
0
 10
4.24278
 20
4.65831
 30
0.0
 40
0
 41
0
  0
VERTEX
  8
0
 10
4.24278
 20
5.28331
 30
0.0
 40
0
 41
0
  0
SEQEND
 8
0
  0
POLYLINE
  8
0
 62
     0
 66
     1
 10
0
 20
0
 30
0.0
 70
     1
 40
0.75
 41
0.75
  0
VERTEX
  8
0
 10
4.24278
 20
5.28331
 30
0.0
 40
0.0104167
 41
0.0104167
  0
VERTEX
  8
0
 10
4.7851
 20
5.28331
 30
0.0
 40
0.0104167
 41
0.0104167
  0
VERTEX
  8
0
 10
4.7851
 20
4.65831
 30
0.0
 40
0.0104167
 41
0.0104167
  0
VERTEX
  8
0
 10
4.24278
 20
4.65831
 30
0.0
 40
0.0104167
 41
0.0104167
  0
VERTEX
  8
0
 10
4.24278
 20
5.28331
 30
0.0
 40
0.0104167
 41
0.0104167
  0
SEQEND
 8
0
  0
POLYLINE
  8
0
 62
     7
 66
     1
 10
0
 20
0
 30
0.0
 70
     1
 40
0
 41
0
  0
VERTEX
  8
0
 10
5.32633
 20
5.28331
 30
0.0
 40
0
 41
0
  0
VERTEX
  8
0
 10
5.38222
 20
5.28331
 30
0.0
 40
0
 41
0
  0
VERTEX
  8
0
 10
5.38222
 20
4.65831
 30
0.0
 40
0
 41
0
  0
VERTEX
  8
0
 10
5.32633
 20
4.65831
 30
0.0
 40
0
 41
0
  0
VERTEX
  8
0
 10
5.32633
 20
5.28331
 30
0.0
 40
0
 41
0
  0
SEQEND
 8
0
  0
POLYLINE
  8
0
 62
     0
 66
     1
 10
0
 20
0
 30
0.0
 70
     1
 40
0.40245
 41
0.40245
  0
VERTEX
  8
0
 10
5.32633
 20
5.28331
 30
0.0
 40
0.00558958
 41
0.00558958
  0
VERTEX
  8
0
 10
5.38222
 20
5.28331
 30
0.0
 40
0.00558958
 41
0.00558958
  0
VERTEX
  8
0
 10
5.38222
 20
4.65831
 30
0.0
 40
0.00558958
 41
0.00558958
  0
VERTEX
  8
0
 10
5.32633
 20
4.65831
 30
0.0
 40
0.00558958
 41
0.00558958
  0
VERTEX
  8
0
 10
5.32633
 20
5.28331
 30
0.0
 40
0.00558958
 41
0.00558958
  0
SEQEND
 8
0
  0
POLYLINE
  8
0
 62
     7
 66
     1
 10
0
 20
0
 30
0.0
 70
     1
 40
0
 41
0
  0
VERTEX
  8
0
 10
7.84999
 20
2.59733
 30
0.0
 40
0
 41
0
  0
VERTEX
  8
0
 10
8.51856
 20
2.59733
 30
0.0
 40
0
 41
0
  0
VERTEX
  8
0
 10
8.51856
 20
1.72874
 30
0.0
 40
0
 41
0
  0
VERTEX
  8
0
 10
7.84999
 20
1.72874
 30
0.0
 40
0
 41
0
  0
VERTEX
  8
0
 10
7.84999
 20
2.59733
 30
0.0
 40
0
 41
0
  0
SEQEND
 8
0
  0
POLYLINE
  8
0
 62
     0
 66
     1
 10
0
 20
0
 30
0.0
 70
     1
 40
0.75
 41
0.75
  0
VERTEX
  8
0
 10
7.84999
 20
2.59733
 30
0.0
 40
0.0104167
 41
0.0104167
  0
VERTEX
  8
0
 10
7.84999
 20
1.72874
 30
0.0
 40
0.0104167
 41
0.0104167
  0
VERTEX
  8
0
 10
8.51856
 20
1.72874
 30
0.0
 40
0.0104167
 41
0.0104167
  0
VERTEX
  8
0
 10
8.51856
 20
2.59733
 30
0.0
 40
0.0104167
 41
0.0104167
  0
VERTEX
  8
0
 10
7.84999
 20
2.59733
 30
0.0
 40
0.0104167
 41
0.0104167
  0
SEQEND
 8
0
  0
POLYLINE
  8
0
 62
     253
 66
     1
 10
0
 20
0
 30
0.0
 40
0.75
 41
0.75
  0
VERTEX
  8
0
 10
8.18431
 20
1.72874
 30
0.0
 40
0.0104167
 41
0.0104167
  0
VERTEX
  8
0
 10
8.18431
 20
2.59739
 30
0.0
 40
0.0104167
 41
0.0104167
  0
SEQEND
 8
0
  0
POLYLINE
  8
0
 62
     7
 66
     1
 10
0
 20
0
 30
0.0
 70
     1
 40
0
 41
0
  0
VERTEX
  8
0
 10
7.85129
 20
1.72874
 30
0.0
 40
0
 41
0
  0
VERTEX
  8
0
 10
8.52089
 20
1.72874
 30
0.0
 40
0
 41
0
  0
VERTEX
  8
0
 10
8.52089
 20
1.28819
 30
0.0
 40
0
 41
0
  0
VERTEX
  8
0
 10
7.85129
 20
1.28819
 30
0.0
 40
0
 41
0
  0
VERTEX
  8
0
 10
7.85129
 20
1.72874
 30
0.0
 40
0
 41
0
  0
SEQEND
 8
0
  0
POLYLINE
  8
0
 62
     0
 66
     1
 10
0
 20
0
 30
0.0
 70
     1
 40
0.75
 41
0.75
  0
VERTEX
  8
0
 10
7.85129
 20
1.72874
 30
0.0
 40
0.0104167
 41
0.0104167
  0
VERTEX
  8
0
 10
7.85129
 20
1.28819
 30
0.0
 40
0.0104167
 41
0.0104167
  0
VERTEX
  8
0
 10
8.52089
 20
1.28819
 30
0.0
 40
0.0104167
 41
0.0104167
  0
VERTEX
  8
0
 10
8.52089
 20
1.72874
 30
0.0
 40
0.0104167
 41
0.0104167
  0
VERTEX
  8
0
 10
7.85129
 20
1.72874
 30
0.0
 40
0.0104167
 41
0.0104167
  0
SEQEND
 8
0
  0
POLYLINE
  8
0
 62
     7
 66
     1
 10
0
 20
0
 30
0.0
 70
     1
 40
0
 41
0
  0
VERTEX
  8
0
 10
7.85129
 20
1.28152
 30
0.0
 40
0
 41
0
  0
VERTEX
  8
0
 10
8.52083
 20
1.28152
 30
0.0
 40
0
 41
0
  0
VERTEX
  8
0
 10
8.52083
 20
1.17735
 30
0.0
 40
0
 41
0
  0
VERTEX
  8
0
 10
7.85129
 20
1.17735
 30
0.0
 40
0
 41
0
  0
VERTEX
  8
0
 10
7.85129
 20
1.28152
 30
0.0
 40
0
 41
0
  0
SEQEND
 8
0
  0
POLYLINE
  8
0
 62
     0
 66
     1
 10
0
 20
0
 30
0.0
 70
     1
 40
0.75
 41
0.75
  0
VERTEX
  8
0
 10
7.85129
 20
1.28152
 30
0.0
 40
0.0104167
 41
0.0104167
  0
VERTEX
  8
0
 10
7.85129
 20
1.17735
 30
0.0
 40
0.0104167
 41
0.0104167
  0
VERTEX
  8
0
 10
8.52083
 20
1.17735
 30
0.0
 40
0.0104167
 41
0.0104167
  0
VERTEX
  8
0
 10
8.52083
 20
1.28152
 30
0.0
 40
0.0104167
 41
0.0104167
  0
VERTEX
  8
0
 10
7.85129
 20
1.28152
 30
0.0
 40
0.0104167
 41
0.0104167
  0
SEQEND
 8
0
  0
POLYLINE
  8
0
 62
     7
 66
     1
 10
0
 20
0
 30
0.0
 70
     1
 40
0
 41
0
  0
VERTEX
  8
0
 10
10.1587
 20
2.10411
 30
0.0
 40
0
 41
0
  0
VERTEX
  8
0
 10
12.2367
 20
2.10411
 30
0.0
 40
0
 41
0
  0
VERTEX
  8
0
 10
12.2367
 20
1.17735
 30
0.0
 40
0
 41
0
  0
VERTEX
  8
0
 10
10.1587
 20
1.17735
 30
0.0
 40
0
 41
0
  0
VERTEX
  8
0
 10
10.1587
 20
2.10411
 30
0.0
 40
0
 41
0
  0
SEQEND
 8
0
  0
POLYLINE
  8
0
 62
     0
 66
     1
 10
0
 20
0
 30
0.0
 70
     1
 40
0.854925
 41
0.854925
  0
VERTEX
  8
0
 10
10.1587
 20
2.10411
 30
0.0
 40
0.011874
 41
0.011874
  0
VERTEX
  8
0
 10
12.2367
 20
2.10411
 30
0.0
 40
0.011874
 41
0.011874
  0
VERTEX
  8
0
 10
12.2367
 20
1.17735
 30
0.0
 40
0.011874
 41
0.011874
  0
VERTEX
  8
0
 10
10.1587
 20
1.17735
 30
0.0
 40
0.011874
 41
0.011874
  0
VERTEX
  8
0
 10
10.1587
 20
2.10411
 30
0.0
 40
0.011874
 41
0.011874
  0
SEQEND
 8
0
  0
POLYLINE
  8
0
 62
     7
 66
     1
 10
0
 20
0
 30
0.0
 70
     1
 40
0
 41
0
  0
VERTEX
  8
0
 10
10.2585
 20
1.64301
 30
0.0
 40
0
 41
0
  0
VERTEX
  8
0
 10
10.2585
 20
1.66336
 30
0.0
 40
0
 41
0
  0
VERTEX
  8
0
 10
10.2603
 20
1.72428
 30
0.0
 40
0
 41
0
  0
VERTEX
  8
0
 10
10.2732
 20
1.80003
 30
0.0
 40
0
 41
0
  0
VERTEX
  8
0
 10
10.3082
 20
1.86854
 30
0.0
 40
0
 41
0
  0
VERTEX
  8
0
 10
10.3762
 20
1.92828
 30
0.0
 40
0
 41
0
  0
VERTEX
  8
0
 10
10.4884
 20
1.97754
 30
0.0
 40
0
 41
0
  0
VERTEX
  8
0
 10
10.6557
 20
2.01481
 30
0.0
 40
0
 41
0
  0
VERTEX
  8
0
 10
10.8893
 20
2.03831
 30
0.0
 40
0
 41
0
  0
VERTEX
  8
0
 10
11.1223
 20
2.0465
 30
0.0
 40
0
 41
0
  0
VERTEX
  8
0
 10
11.2001
 20
2.0465
 30
0.0
 40
0
 41
0
  0
VERTEX
  8
0
 10
11.2778
 20
2.0465
 30
0.0
 40
0
 41
0
  0
VERTEX
  8
0
 10
11.5108
 20
2.03831
 30
0.0
 40
0
 41
0
  0
VERTEX
  8
0
 10
11.7444
 20
2.01481
 30
0.0
 40
0
 41
0
  0
VERTEX
  8
0
 10
11.9118
 20
1.97754
 30
0.0
 40
0
 41
0
  0
VERTEX
  8
0
 10
12.024
 20
1.92828
 30
0.0
 40
0
 41
0
  0
VERTEX
  8
0
 10
12.092
 20
1.86854
 30
0.0
 40
0
 41
0
  0
VERTEX
  8
0
 10
12.127
 20
1.80003
 30
0.0
 40
0
 41
0
  0
VERTEX
  8
0
 10
12.1399
 20
1.72428
 30
0.0
 40
0
 41
0
  0
VERTEX
  8
0
 10
12.1417
 20
1.66336
 30
0.0
 40
0
 41
0
  0
VERTEX
  8
0
 10
12.1417
 20
1.64301
 30
0.0
 40
0
 41
0
  0
VERTEX
  8
0
 10
12.1417
 20
1.62272
 30
0.0
 40
0
 41
0
  0
VERTEX
  8
0
 10
12.1399
 20
1.56179
 30
0.0
 40
0
 41
0
  0
VERTEX
  8
0
 10
12.127
 20
1.48606
 30
0.0
 40
0
 41
0
  0
VERTEX
  8
0
 10
12.092
 20
1.41754
 30
0.0
 40
0
 41
0
  0
VERTEX
  8
0
 10
12.024
 20
1.3578
 30
0.0
 40
0
 41
0
  0
VERTEX
  8
0
 10
11.9118
 20
1.30854
 30
0.0
 40
0
 41
0
  0
VERTEX
  8
0
 10
11.7444
 20
1.27127
 30
0.0
 40
0
 41
0
  0
VERTEX
  8
0
 10
11.5108
 20
1.24777
 30
0.0
 40
0
 41
0
  0
VERTEX
  8
0
 10
11.2778
 20
1.23953
 30
0.0
 40
0
 41
0
  0
VERTEX
  8
0
 10
11.2001
 20
1.23953
 30
0.0
 40
0
 41
0
  0
VERTEX
  8
0
 10
11.1223
 20
1.23953
 30
0.0
 40
0
 41
0
  0
VERTEX
  8
0
 10
10.8893
 20
1.24777
 30
0.0
 40
0
 41
0
  0
VERTEX
  8
0
 10
10.6557
 20
1.27127
 30
0.0
 40
0
 41
0
  0
VERTEX
  8
0
 10
10.4884
 20
1.30854
 30
0.0
 40
0
 41
0
  0
VERTEX
  8
0
 10
10.3762
 20
1.3578
 30
0.0
 40
0
 41
0
  0
VERTEX
  8
0
 10
10.3082
 20
1.41754
 30
0.0
 40
0
 41
0
  0
VERTEX
  8
0
 10
10.2732
 20
1.48606
 30
0.0
 40
0
 41
0
  0
VERTEX
  8
0
 10
10.2603
 20
1.56179
 30
0.0
 40
0
 41
0
  0
VERTEX
  8
0
 10
10.2585
 20
1.62272
 30
0.0
 40
0
 41
0
  0
VERTEX
  8
0
 10
10.2585
 20
1.64301
 30
0.0
 40
0
 41
0
  0
SEQEND
 8
0
  0
POLYLINE
  8
0
 62
     0
 66
     1
 10
0
 20
0
 30
0.0
 70
     1
 40
0.854925
 41
0.854925
  0
VERTEX
  8
0
 10
10.2585
 20
1.64301
 30
0.0
 40
0.011874
 41
0.011874
  0
VERTEX
  8
0
 10
10.2585
 20
1.66336
 30
0.0
 40
0.011874
 41
0.011874
  0
VERTEX
  8
0
 10
10.2603
 20
1.72428
 30
0.0
 40
0.011874
 41
0.011874
  0
VERTEX
  8
0
 10
10.2732
 20
1.80003
 30
0.0
 40
0.011874
 41
0.011874
  0
VERTEX
  8
0
 10
10.3082
 20
1.86854
 30
0.0
 40
0.011874
 41
0.011874
  0
VERTEX
  8
0
 10
10.3762
 20
1.92828
 30
0.0
 40
0.011874
 41
0.011874
  0
VERTEX
  8
0
 10
10.4884
 20
1.97754
 30
0.0
 40
0.011874
 41
0.011874
  0
VERTEX
  8
0
 10
10.6557
 20
2.01481
 30
0.0
 40
0.011874
 41
0.011874
  0
VERTEX
  8
0
 10
10.8893
 20
2.03831
 30
0.0
 40
0.011874
 41
0.011874
  0
VERTEX
  8
0
 10
11.1223
 20
2.0465
 30
0.0
 40
0.011874
 41
0.011874
  0
VERTEX
  8
0
 10
11.2001
 20
2.0465
 30
0.0
 40
0.011874
 41
0.011874
  0
VERTEX
  8
0
 10
11.2778
 20
2.0465
 30
0.0
 40
0.011874
 41
0.011874
  0
VERTEX
  8
0
 10
11.5108
 20
2.03831
 30
0.0
 40
0.011874
 41
0.011874
  0
VERTEX
  8
0
 10
11.7444
 20
2.01481
 30
0.0
 40
0.011874
 41
0.011874
  0
VERTEX
  8
0
 10
11.9118
 20
1.97754
 30
0.0
 40
0.011874
 41
0.011874
  0
VERTEX
  8
0
 10
12.024
 20
1.92828
 30
0.0
 40
0.011874
 41
0.011874
  0
VERTEX
  8
0
 10
12.092
 20
1.86854
 30
0.0
 40
0.011874
 41
0.011874
  0
VERTEX
  8
0
 10
12.127
 20
1.80003
 30
0.0
 40
0.011874
 41
0.011874
  0
VERTEX
  8
0
 10
12.1399
 20
1.72428
 30
0.0
 40
0.011874
 41
0.011874
  0
VERTEX
  8
0
 10
12.1417
 20
1.66336
 30
0.0
 40
0.011874
 41
0.011874
  0
VERTEX
  8
0
 10
12.1417
 20
1.64301
 30
0.0
 40
0.011874
 41
0.011874
  0
VERTEX
  8
0
 10
12.1417
 20
1.62272
 30
0.0
 40
0.011874
 41
0.011874
  0
VERTEX
  8
0
 10
12.1399
 20
1.56179
 30
0.0
 40
0.011874
 41
0.011874
  0
VERTEX
  8
0
 10
12.127
 20
1.48606
 30
0.0
 40
0.011874
 41
0.011874
  0
VERTEX
  8
0
 10
12.092
 20
1.41754
 30
0.0
 40
0.011874
 41
0.011874
  0
VERTEX
  8
0
 10
12.024
 20
1.3578
 30
0.0
 40
0.011874
 41
0.011874
  0
VERTEX
  8
0
 10
11.9118
 20
1.30854
 30
0.0
 40
0.011874
 41
0.011874
  0
VERTEX
  8
0
 10
11.7444
 20
1.27127
 30
0.0
 40
0.011874
 41
0.011874
  0
VERTEX
  8
0
 10
11.5108
 20
1.24777
 30
0.0
 40
0.011874
 41
0.011874
  0
VERTEX
  8
0
 10
11.2778
 20
1.23953
 30
0.0
 40
0.011874
 41
0.011874
  0
VERTEX
  8
0
 10
11.2001
 20
1.23953
 30
0.0
 40
0.011874
 41
0.011874
  0
VERTEX
  8
0
 10
11.1223
 20
1.23953
 30
0.0
 40
0.011874
 41
0.011874
  0
VERTEX
  8
0
 10
10.8893
 20
1.24777
 30
0.0
 40
0.011874
 41
0.011874
  0
VERTEX
  8
0
 10
10.6557
 20
1.27127
 30
0.0
 40
0.011874
 41
0.011874
  0
VERTEX
  8
0
 10
10.4884
 20
1.30854
 30
0.0
 40
0.011874
 41
0.011874
  0
VERTEX
  8
0
 10
10.3762
 20
1.3578
 30
0.0
 40
0.011874
 41
0.011874
  0
VERTEX
  8
0
 10
10.3082
 20
1.41754
 30
0.0
 40
0.011874
 41
0.011874
  0
VERTEX
  8
0
 10
10.2732
 20
1.48606
 30
0.0
 40
0.011874
 41
0.011874
  0
VERTEX
  8
0
 10
10.2603
 20
1.56179
 30
0.0
 40
0.011874
 41
0.011874
  0
VERTEX
  8
0
 10
10.2585
 20
1.62272
 30
0.0
 40
0.011874
 41
0.011874
  0
VERTEX
  8
0
 10
10.2585
 20
1.64301
 30
0.0
 40
0.011874
 41
0.011874
  0
SEQEND
 8
0
  0
POLYLINE
  8
0
 62
     7
 66
     1
 10
0
 20
0
 30
0.0
 70
     1
 40
0
 41
0
  0
VERTEX
  8
0
 10
12.168
 20
1.7786
 30
0.0
 40
0
 41
0
  0
VERTEX
  8
0
 10
12.2315
 20
1.7786
 30
0.0
 40
0
 41
0
  0
VERTEX
  8
0
 10
12.2315
 20
1.66189
 30
0.0
 40
0
 41
0
  0
VERTEX
  8
0
 10
12.168
 20
1.66189
 30
0.0
 40
0
 41
0
  0
VERTEX
  8
0
 10
12.168
 20
1.7786
 30
0.0
 40
0
 41
0
  0
SEQEND
 8
0
  0
POLYLINE
  8
0
 62
     0
 66
     1
 10
0
 20
0
 30
0.0
 70
     1
 40
0.75
 41
0.75
  0
VERTEX
  8
0
 10
12.168
 20
1.7786
 30
0.0
 40
0.0104167
 41
0.0104167
  0
VERTEX
  8
0
 10
12.168
 20
1.66189
 30
0.0
 40
0.0104167
 41
0.0104167
  0
VERTEX
  8
0
 10
12.2315
 20
1.66189
 30
0.0
 40
0.0104167
 41
0.0104167
  0
VERTEX
  8
0
 10
12.2315
 20
1.7786
 30
0.0
 40
0.0104167
 41
0.0104167
  0
VERTEX
  8
0
 10
12.168
 20
1.7786
 30
0.0
 40
0.0104167
 41
0.0104167
  0
SEQEND
 8
0
  0
POLYLINE
  8
0
 62
     7
 66
     1
 10
0
 20
0
 30
0.0
 70
     1
 40
0
 41
0
  0
VERTEX
  8
0
 10
12.168
 20
1.63379
 30
0.0
 40
0
 41
0
  0
VERTEX
  8
0
 10
12.2315
 20
1.63379
 30
0.0
 40
0
 41
0
  0
VERTEX
  8
0
 10
12.2315
 20
1.51714
 30
0.0
 40
0
 41
0
  0
VERTEX
  8
0
 10
12.168
 20
1.51714
 30
0.0
 40
0
 41
0
  0
VERTEX
  8
0
 10
12.168
 20
1.63379
 30
0.0
 40
0
 41
0
  0
SEQEND
 8
0
  0
POLYLINE
  8
0
 62
     0
 66
     1
 10
0
 20
0
 30
0.0
 70
     1
 40
0.75
 41
0.75
  0
VERTEX
  8
0
 10
12.168
 20
1.63379
 30
0.0
 40
0.0104167
 41
0.0104167
  0
VERTEX
  8
0
 10
12.168
 20
1.51714
 30
0.0
 40
0.0104167
 41
0.0104167
  0
VERTEX
  8
0
 10
12.2315
 20
1.51714
 30
0.0
 40
0.0104167
 41
0.0104167
  0
VERTEX
  8
0
 10
12.2315
 20
1.63379
 30
0.0
 40
0.0104167
 41
0.0104167
  0
VERTEX
  8
0
 10
12.168
 20
1.63379
 30
0.0
 40
0.0104167
 41
0.0104167
  0
SEQEND
 8
0
  0
POLYLINE
  8
0
 62
     7
 66
     1
 10
0
 20
0
 30
0.0
 70
     1
 40
0
 41
0
  0
VERTEX
  8
0
 10
12.168
 20
1.51818
 30
0.0
 40
0
 41
0
  0
VERTEX
  8
0
 10
12.2315
 20
1.51818
 30
0.0
 40
0
 41
0
  0
VERTEX
  8
0
 10
12.2315
 20
1.48275
 30
0.0
 40
0
 41
0
  0
VERTEX
  8
0
 10
12.168
 20
1.48275
 30
0.0
 40
0
 41
0
  0
VERTEX
  8
0
 10
12.168
 20
1.51818
 30
0.0
 40
0
 41
0
  0
SEQEND
 8
0
  0
POLYLINE
  8
0
 62
     0
 66
     1
 10
0
 20
0
 30
0.0
 70
     1
 40
0.75
 41
0.75
  0
VERTEX
  8
0
 10
12.168
 20
1.51818
 30
0.0
 40
0.0104167
 41
0.0104167
  0
VERTEX
  8
0
 10
12.168
 20
1.48275
 30
0.0
 40
0.0104167
 41
0.0104167
  0
VERTEX
  8
0
 10
12.2315
 20
1.48275
 30
0.0
 40
0.0104167
 41
0.0104167
  0
VERTEX
  8
0
 10
12.2315
 20
1.51818
 30
0.0
 40
0.0104167
 41
0.0104167
  0
VERTEX
  8
0
 10
12.168
 20
1.51818
 30
0.0
 40
0.0104167
 41
0.0104167
  0
SEQEND
 8
0
  0
POLYLINE
  8
0
 62
     7
 66
     1
 10
0
 20
0
 30
0.0
 70
     1
 40
0
 41
0
  0
VERTEX
  8
0
 10
12.168
 20
1.8119
 30
0.0
 40
0
 41
0
  0
VERTEX
  8
0
 10
12.2315
 20
1.8119
 30
0.0
 40
0
 41
0
  0
VERTEX
  8
0
 10
12.2315
 20
1.7786
 30
0.0
 40
0
 41
0
  0
VERTEX
  8
0
 10
12.168
 20
1.7786
 30
0.0
 40
0
 41
0
  0
VERTEX
  8
0
 10
12.168
 20
1.8119
 30
0.0
 40
0
 41
0
  0
SEQEND
 8
0
  0
POLYLINE
  8
0
 62
     0
 66
     1
 10
0
 20
0
 30
0.0
 70
     1
 40
0.75
 41
0.75
  0
VERTEX
  8
0
 10
12.168
 20
1.8119
 30
0.0
 40
0.0104167
 41
0.0104167
  0
VERTEX
  8
0
 10
12.168
 20
1.7786
 30
0.0
 40
0.0104167
 41
0.0104167
  0
VERTEX
  8
0
 10
12.2315
 20
1.7786
 30
0.0
 40
0.0104167
 41
0.0104167
  0
VERTEX
  8
0
 10
12.2315
 20
1.8119
 30
0.0
 40
0.0104167
 41
0.0104167
  0
VERTEX
  8
0
 10
12.168
 20
1.8119
 30
0.0
 40
0.0104167
 41
0.0104167
  0
SEQEND
 8
0
  0
POLYLINE
  8
0
 62
     7
 66
     1
 10
0
 20
0
 30
0.0
 70
     1
 40
0
 41
0
  0
VERTEX
  8
0
 10
12.1482
 20
1.66189
 30
0.0
 40
0
 41
0
  0
VERTEX
  8
0
 10
12.1418
 20
1.66189
 30
0.0
 40
0
 41
0
  0
VERTEX
  8
0
 10
12.1229
 20
1.66558
 30
0.0
 40
0
 41
0
  0
VERTEX
  8
0
 10
12.1005
 20
1.67551
 30
0.0
 40
0
 41
0
  0
VERTEX
  8
0
 10
12.0961
 20
1.6786
 30
0.0
 40
0
 41
0
  0
VERTEX
  8
0
 10
12.0945
 20
1.67964
 30
0.0
 40
0
 41
0
  0
VERTEX
  8
0
 10
12.0799
 20
1.68983
 30
0.0
 40
0
 41
0
  0
VERTEX
  8
0
 10
12.0784
 20
1.69006
 30
0.0
 40
0
 41
0
  0
VERTEX
  8
0
 10
12.0755
 20
1.6906
 30
0.0
 40
0
 41
0
  0
VERTEX
  8
0
 10
12.0589
 20
1.68642
 30
0.0
 40
0
 41
0
  0
VERTEX
  8
0
 10
12.0461
 20
1.66976
 30
0.0
 40
0
 41
0
  0
VERTEX
  8
0
 10
12.045
 20
1.66401
 30
0.0
 40
0
 41
0
  0
VERTEX
  8
0
 10
12.0448
 20
1.66271
 30
0.0
 40
0
 41
0
  0
VERTEX
  8
0
 10
12.044
 20
1.65121
 30
0.0
 40
0
 41
0
  0
VERTEX
  8
0
 10
12.044
 20
1.64735
 30
0.0
 40
0
 41
0
  0
VERTEX
  8
0
 10
12.044
 20
1.64839
 30
0.0
 40
0
 41
0
  0
VERTEX
  8
0
 10
12.044
 20
1.64426
 30
0.0
 40
0
 41
0
  0
VERTEX
  8
0
 10
12.0448
 20
1.63303
 30
0.0
 40
0
 41
0
  0
VERTEX
  8
0
 10
12.045
 20
1.63172
 30
0.0
 40
0
 41
0
  0
VERTEX
  8
0
 10
12.0461
 20
1.62603
 30
0.0
 40
0
 41
0
  0
VERTEX
  8
0
 10
12.0589
 20
1.60932
 30
0.0
 40
0
 41
0
  0
VERTEX
  8
0
 10
12.0755
 20
1.60519
 30
0.0
 40
0
 41
0
  0
VERTEX
  8
0
 10
12.0784
 20
1.60568
 30
0.0
 40
0
 41
0
  0
VERTEX
  8
0
 10
12.0799
 20
1.60596
 30
0.0
 40
0
 41
0
  0
VERTEX
  8
0
 10
12.0945
 20
1.6161
 30
0.0
 40
0
 41
0
  0
VERTEX
  8
0
 10
12.0961
 20
1.61714
 30
0.0
 40
0
 41
0
  0
VERTEX
  8
0
 10
12.1005
 20
1.62028
 30
0.0
 40
0
 41
0
  0
VERTEX
  8
0
 10
12.1229
 20
1.63015
 30
0.0
 40
0
 41
0
  0
VERTEX
  8
0
 10
12.1418
 20
1.63379
 30
0.0
 40
0
 41
0
  0
VERTEX
  8
0
 10
12.1482
 20
1.63379
 30
0.0
 40
0
 41
0
  0
SEQEND
 8
0
  0
POLYLINE
  8
0
 62
     0
 66
     1
 10
0
 20
0
 30
0.0
 40
0.75
 41
0.75
  0
VERTEX
  8
0
 10
12.1482
 20
1.66189
 30
0.0
 40
0.0104167
 41
0.0104167
  0
VERTEX
  8
0
 10
12.1418
 20
1.66189
 30
0.0
 40
0.0104167
 41
0.0104167
  0
VERTEX
  8
0
 10
12.1229
 20
1.66558
 30
0.0
 40
0.0104167
 41
0.0104167
  0
VERTEX
  8
0
 10
12.1005
 20
1.67551
 30
0.0
 40
0.0104167
 41
0.0104167
  0
VERTEX
  8
0
 10
12.0961
 20
1.6786
 30
0.0
 40
0.0104167
 41
0.0104167
  0
VERTEX
  8
0
 10
12.0945
 20
1.67964
 30
0.0
 40
0.0104167
 41
0.0104167
  0
VERTEX
  8
0
 10
12.0799
 20
1.68983
 30
0.0
 40
0.0104167
 41
0.0104167
  0
VERTEX
  8
0
 10
12.0784
 20
1.69006
 30
0.0
 40
0.0104167
 41
0.0104167
  0
VERTEX
  8
0
 10
12.0755
 20
1.6906
 30
0.0
 40
0.0104167
 41
0.0104167
  0
VERTEX
  8
0
 10
12.0589
 20
1.68642
 30
0.0
 40
0.0104167
 41
0.0104167
  0
VERTEX
  8
0
 10
12.0461
 20
1.66976
 30
0.0
 40
0.0104167
 41
0.0104167
  0
VERTEX
  8
0
 10
12.045
 20
1.66401
 30
0.0
 40
0.0104167
 41
0.0104167
  0
VERTEX
  8
0
 10
12.0448
 20
1.66271
 30
0.0
 40
0.0104167
 41
0.0104167
  0
VERTEX
  8
0
 10
12.044
 20
1.65121
 30
0.0
 40
0.0104167
 41
0.0104167
  0
VERTEX
  8
0
 10
12.044
 20
1.64735
 30
0.0
 40
0.0104167
 41
0.0104167
  0
VERTEX
  8
0
 10
12.044
 20
1.64839
 30
0.0
 40
0.0104167
 41
0.0104167
  0
VERTEX
  8
0
 10
12.044
 20
1.64426
 30
0.0
 40
0.0104167
 41
0.0104167
  0
VERTEX
  8
0
 10
12.0448
 20
1.63303
 30
0.0
 40
0.0104167
 41
0.0104167
  0
VERTEX
  8
0
 10
12.045
 20
1.63172
 30
0.0
 40
0.0104167
 41
0.0104167
  0
VERTEX
  8
0
 10
12.0461
 20
1.62603
 30
0.0
 40
0.0104167
 41
0.0104167
  0
VERTEX
  8
0
 10
12.0589
 20
1.60932
 30
0.0
 40
0.0104167
 41
0.0104167
  0
VERTEX
  8
0
 10
12.0755
 20
1.60519
 30
0.0
 40
0.0104167
 41
0.0104167
  0
VERTEX
  8
0
 10
12.0784
 20
1.60568
 30
0.0
 40
0.0104167
 41
0.0104167
  0
VERTEX
  8
0
 10
12.0799
 20
1.60596
 30
0.0
 40
0.0104167
 41
0.0104167
  0
VERTEX
  8
0
 10
12.0945
 20
1.6161
 30
0.0
 40
0.0104167
 41
0.0104167
  0
VERTEX
  8
0
 10
12.0961
 20
1.61714
 30
0.0
 40
0.0104167
 41
0.0104167
  0
VERTEX
  8
0
 10
12.1005
 20
1.62028
 30
0.0
 40
0.0104167
 41
0.0104167
  0
VERTEX
  8
0
 10
12.1229
 20
1.63015
 30
0.0
 40
0.0104167
 41
0.0104167
  0
VERTEX
  8
0
 10
12.1418
 20
1.63379
 30
0.0
 40
0.0104167
 41
0.0104167
  0
VERTEX
  8
0
 10
12.1482
 20
1.63379
 30
0.0
 40
0.0104167
 41
0.0104167
  0
SEQEND
 8
0
  0
POLYLINE
  8
0
 62
     7
 66
     1
 10
0
 20
0
 30
0.0
 70
     1
 40
0
 41
0
  0
VERTEX
  8
0
 10
12.0773
 20
1.69006
 30
0.0
 40
0
 41
0
  0
VERTEX
  8
0
 10
12.0768
 20
1.68983
 30
0.0
 40
0
 41
0
  0
VERTEX
  8
0
 10
12.0666
 20
1.67796
 30
0.0
 40
0
 41
0
  0
VERTEX
  8
0
 10
12.0576
 20
1.65419
 30
0.0
 40
0
 41
0
  0
VERTEX
  8
0
 10
12.0576
 20
1.64626
 30
0.0
 40
0
 41
0
  0
VERTEX
  8
0
 10
12.0578
 20
1.64003
 30
0.0
 40
0
 41
0
  0
VERTEX
  8
0
 10
12.067
 20
1.6174
 30
0.0
 40
0
 41
0
  0
VERTEX
  8
0
 10
12.0768
 20
1.60622
 30
0.0
 40
0
 41
0
  0
VERTEX
  8
0
 10
12.0773
 20
1.60568
 30
0.0
 40
0
 41
0
  0
SEQEND
 8
0
  0
POLYLINE
  8
0
 62
     0
 66
     1
 10
0
 20
0
 30
0.0
 40
0.75
 41
0.75
  0
VERTEX
  8
0
 10
12.0773
 20
1.69006
 30
0.0
 40
0.0104167
 41
0.0104167
  0
VERTEX
  8
0
 10
12.0768
 20
1.68983
 30
0.0
 40
0.0104167
 41
0.0104167
  0
VERTEX
  8
0
 10
12.0666
 20
1.67796
 30
0.0
 40
0.0104167
 41
0.0104167
  0
VERTEX
  8
0
 10
12.0576
 20
1.65419
 30
0.0
 40
0.0104167
 41
0.0104167
  0
VERTEX
  8
0
 10
12.0576
 20
1.64626
 30
0.0
 40
0.0104167
 41
0.0104167
  0
VERTEX
  8
0
 10
12.0578
 20
1.64003
 30
0.0
 40
0.0104167
 41
0.0104167
  0
VERTEX
  8
0
 10
12.067
 20
1.6174
 30
0.0
 40
0.0104167
 41
0.0104167
  0
VERTEX
  8
0
 10
12.0768
 20
1.60622
 30
0.0
 40
0.0104167
 41
0.0104167
  0
VERTEX
  8
0
 10
12.0773
 20
1.60568
 30
0.0
 40
0.0104167
 41
0.0104167
  0
SEQEND
 8
0
  0
POLYLINE
  8
0
 62
     7
 66
     1
 10
0
 20
0
 30
0.0
 70
     1
 40
0
 41
0
  0
VERTEX
  8
0
 10
12.2315
 20
1.66189
 30
0.0
 40
0
 41
0
  0
VERTEX
  8
0
 10
12.2315
 20
1.63379
 30
0.0
 40
0
 41
0
  0
VERTEX
  8
0
 10
12.1482
 20
1.63379
 30
0.0
 40
0
 41
0
  0
VERTEX
  8
0
 10
12.1482
 20
1.64085
 30
0.0
 40
0
 41
0
  0
VERTEX
  8
0
 10
12.1482
 20
1.65663
 30
0.0
 40
0
 41
0
  0
VERTEX
  8
0
 10
12.1482
 20
1.66189
 30
0.0
 40
0
 41
0
  0
VERTEX
  8
0
 10
12.169
 20
1.66189
 30
0.0
 40
0
 41
0
  0
VERTEX
  8
0
 10
12.2159
 20
1.66189
 30
0.0
 40
0
 41
0
  0
VERTEX
  8
0
 10
12.2315
 20
1.66189
 30
0.0
 40
0
 41
0
  0
SEQEND
 8
0
  0
POLYLINE
  8
0
 62
     0
 66
     1
 10
0
 20
0
 30
0.0
 70
     1
 40
0.75
 41
0.75
  0
VERTEX
  8
0
 10
12.2315
 20
1.66189
 30
0.0
 40
0.0104167
 41
0.0104167
  0
VERTEX
  8
0
 10
12.2315
 20
1.63379
 30
0.0
 40
0.0104167
 41
0.0104167
  0
VERTEX
  8
0
 10
12.1482
 20
1.63379
 30
0.0
 40
0.0104167
 41
0.0104167
  0
VERTEX
  8
0
 10
12.1482
 20
1.64085
 30
0.0
 40
0.0104167
 41
0.0104167
  0
VERTEX
  8
0
 10
12.1482
 20
1.65663
 30
0.0
 40
0.0104167
 41
0.0104167
  0
VERTEX
  8
0
 10
12.1482
 20
1.66189
 30
0.0
 40
0.0104167
 41
0.0104167
  0
VERTEX
  8
0
 10
12.169
 20
1.66189
 30
0.0
 40
0.0104167
 41
0.0104167
  0
VERTEX
  8
0
 10
12.2159
 20
1.66189
 30
0.0
 40
0.0104167
 41
0.0104167
  0
VERTEX
  8
0
 10
12.2315
 20
1.66189
 30
0.0
 40
0.0104167
 41
0.0104167
  0
SEQEND
 8
0
  0
POLYLINE
  8
0
 62
     7
 66
     1
 10
0
 20
0
 30
0.0
 70
     1
 40
0
 41
0
  0
VERTEX
  8
0
 10
12.1992
 20
1.7786
 30
0.0
 40
0
 41
0
  0
VERTEX
  8
0
 10
12.2004
 20
1.77539
 30
0.0
 40
0
 41
0
  0
VERTEX
  8
0
 10
12.2043
 20
1.76574
 30
0.0
 40
0
 41
0
  0
VERTEX
  8
0
 10
12.2055
 20
1.76297
 30
0.0
 40
0
 41
0
  0
VERTEX
  8
0
 10
12.2055
 20
1.76297
 30
0.0
 40
0
 41
0
  0
VERTEX
  8
0
 10
12.204
 20
1.76297
 30
0.0
 40
0
 41
0
  0
VERTEX
  8
0
 10
12.1997
 20
1.76297
 30
0.0
 40
0
 41
0
  0
VERTEX
  8
0
 10
12.1954
 20
1.76297
 30
0.0
 40
0
 41
0
  0
VERTEX
  8
0
 10
12.194
 20
1.76297
 30
0.0
 40
0
 41
0
  0
VERTEX
  8
0
 10
12.194
 20
1.76297
 30
0.0
 40
0
 41
0
  0
VERTEX
  8
0
 10
12.1947
 20
1.76535
 30
0.0
 40
0
 41
0
  0
VERTEX
  8
0
 10
12.198
 20
1.77533
 30
0.0
 40
0
 41
0
  0
VERTEX
  8
0
 10
12.1992
 20
1.7786
 30
0.0
 40
0
 41
0
  0
SEQEND
 8
0
  0
POLYLINE
  8
0
 62
     0
 66
     1
 10
0
 20
0
 30
0.0
 70
     1
 40
0.75
 41
0.75
  0
VERTEX
  8
0
 10
12.1992
 20
1.7786
 30
0.0
 40
0.0104167
 41
0.0104167
  0
VERTEX
  8
0
 10
12.2004
 20
1.77539
 30
0.0
 40
0.0104167
 41
0.0104167
  0
VERTEX
  8
0
 10
12.2043
 20
1.76574
 30
0.0
 40
0.0104167
 41
0.0104167
  0
VERTEX
  8
0
 10
12.2055
 20
1.76297
 30
0.0
 40
0.0104167
 41
0.0104167
  0
VERTEX
  8
0
 10
12.2055
 20
1.76297
 30
0.0
 40
0.0104167
 41
0.0104167
  0
VERTEX
  8
0
 10
12.204
 20
1.76297
 30
0.0
 40
0.0104167
 41
0.0104167
  0
VERTEX
  8
0
 10
12.1997
 20
1.76297
 30
0.0
 40
0.0104167
 41
0.0104167
  0
VERTEX
  8
0
 10
12.1954
 20
1.76297
 30
0.0
 40
0.0104167
 41
0.0104167
  0
VERTEX
  8
0
 10
12.194
 20
1.76297
 30
0.0
 40
0.0104167
 41
0.0104167
  0
VERTEX
  8
0
 10
12.194
 20
1.76297
 30
0.0
 40
0.0104167
 41
0.0104167
  0
VERTEX
  8
0
 10
12.1947
 20
1.76535
 30
0.0
 40
0.0104167
 41
0.0104167
  0
VERTEX
  8
0
 10
12.198
 20
1.77533
 30
0.0
 40
0.0104167
 41
0.0104167
  0
VERTEX
  8
0
 10
12.1992
 20
1.7786
 30
0.0
 40
0.0104167
 41
0.0104167
  0
SEQEND
 8
0
  0
POLYLINE
  8
0
 62
     7
 66
     1
 10
0
 20
0
 30
0.0
 70
     1
 40
0
 41
0
  0
VERTEX
  8
0
 10
12.1992
 20
1.51818
 30
0.0
 40
0
 41
0
  0
VERTEX
  8
0
 10
12.2004
 20
1.52143
 30
0.0
 40
0
 41
0
  0
VERTEX
  8
0
 10
12.2043
 20
1.53108
 30
0.0
 40
0
 41
0
  0
VERTEX
  8
0
 10
12.2055
 20
1.53381
 30
0.0
 40
0
 41
0
  0
VERTEX
  8
0
 10
12.2055
 20
1.53381
 30
0.0
 40
0
 41
0
  0
VERTEX
  8
0
 10
12.204
 20
1.53381
 30
0.0
 40
0
 41
0
  0
VERTEX
  8
0
 10
12.1997
 20
1.53381
 30
0.0
 40
0
 41
0
  0
VERTEX
  8
0
 10
12.1954
 20
1.53381
 30
0.0
 40
0
 41
0
  0
VERTEX
  8
0
 10
12.194
 20
1.53381
 30
0.0
 40
0
 41
0
  0
VERTEX
  8
0
 10
12.194
 20
1.53381
 30
0.0
 40
0
 41
0
  0
VERTEX
  8
0
 10
12.1947
 20
1.53147
 30
0.0
 40
0
 41
0
  0
VERTEX
  8
0
 10
12.198
 20
1.52149
 30
0.0
 40
0
 41
0
  0
VERTEX
  8
0
 10
12.1992
 20
1.51818
 30
0.0
 40
0
 41
0
  0
SEQEND
 8
0
  0
POLYLINE
  8
0
 62
     0
 66
     1
 10
0
 20
0
 30
0.0
 70
     1
 40
0.75
 41
0.75
  0
VERTEX
  8
0
 10
12.1992
 20
1.51818
 30
0.0
 40
0.0104167
 41
0.0104167
  0
VERTEX
  8
0
 10
12.2004
 20
1.52143
 30
0.0
 40
0.0104167
 41
0.0104167
  0
VERTEX
  8
0
 10
12.2043
 20
1.53108
 30
0.0
 40
0.0104167
 41
0.0104167
  0
VERTEX
  8
0
 10
12.2055
 20
1.53381
 30
0.0
 40
0.0104167
 41
0.0104167
  0
VERTEX
  8
0
 10
12.2055
 20
1.53381
 30
0.0
 40
0.0104167
 41
0.0104167
  0
VERTEX
  8
0
 10
12.204
 20
1.53381
 30
0.0
 40
0.0104167
 41
0.0104167
  0
VERTEX
  8
0
 10
12.1997
 20
1.53381
 30
0.0
 40
0.0104167
 41
0.0104167
  0
VERTEX
  8
0
 10
12.1954
 20
1.53381
 30
0.0
 40
0.0104167
 41
0.0104167
  0
VERTEX
  8
0
 10
12.194
 20
1.53381
 30
0.0
 40
0.0104167
 41
0.0104167
  0
VERTEX
  8
0
 10
12.194
 20
1.53381
 30
0.0
 40
0.0104167
 41
0.0104167
  0
VERTEX
  8
0
 10
12.1947
 20
1.53147
 30
0.0
 40
0.0104167
 41
0.0104167
  0
VERTEX
  8
0
 10
12.198
 20
1.52149
 30
0.0
 40
0.0104167
 41
0.0104167
  0
VERTEX
  8
0
 10
12.1992
 20
1.51818
 30
0.0
 40
0.0104167
 41
0.0104167
  0
SEQEND
 8
0
  0
POLYLINE
  8
0
 62
     7
 66
     1
 10
0
 20
0
 30
0.0
 70
     1
 40
0
 41
0
  0
VERTEX
  8
0
 10
11.9888
 20
2.77214
 30
0.0
 40
0
 41
0
  0
VERTEX
  8
0
 10
12.1761
 20
2.77214
 30
0.0
 40
0
 41
0
  0
VERTEX
  8
0
 10
12.1761
 20
2.35558
 30
0.0
 40
0
 41
0
  0
VERTEX
  8
0
 10
11.9888
 20
2.35558
 30
0.0
 40
0
 41
0
  0
VERTEX
  8
0
 10
11.9888
 20
2.77214
 30
0.0
 40
0
 41
0
  0
SEQEND
 8
0
  0
POLYLINE
  8
0
 62
     0
 66
     1
 10
0
 20
0
 30
0.0
 70
     1
 40
0.75
 41
0.75
  0
VERTEX
  8
0
 10
11.9888
 20
2.77214
 30
0.0
 40
0.0104167
 41
0.0104167
  0
VERTEX
  8
0
 10
11.9888
 20
2.35558
 30
0.0
 40
0.0104167
 41
0.0104167
  0
VERTEX
  8
0
 10
12.1761
 20
2.35558
 30
0.0
 40
0.0104167
 41
0.0104167
  0
VERTEX
  8
0
 10
12.1761
 20
2.77214
 30
0.0
 40
0.0104167
 41
0.0104167
  0
VERTEX
  8
0
 10
11.9888
 20
2.77214
 30
0.0
 40
0.0104167
 41
0.0104167
  0
SEQEND
 8
0
  0
POLYLINE
  8
0
 62
     7
 66
     1
 10
0
 20
0
 30
0.0
 70
     1
 40
0
 41
0
  0
VERTEX
  8
0
 10
11.7205
 20
2.35558
 30
0.0
 40
0
 41
0
  0
VERTEX
  8
0
 10
11.7205
 20
2.35558
 30
0.0
 40
0
 41
0
  0
VERTEX
  8
0
 10
11.7088
 20
2.35553
 30
0.0
 40
0
 41
0
  0
VERTEX
  8
0
 10
11.6778
 20
2.35715
 30
0.0
 40
0
 41
0
  0
VERTEX
  8
0
 10
11.634
 20
2.36328
 30
0.0
 40
0
 41
0
  0
VERTEX
  8
0
 10
11.5837
 20
2.37668
 30
0.0
 40
0
 41
0
  0
VERTEX
  8
0
 10
11.5335
 20
2.40022
 30
0.0
 40
0
 41
0
  0
VERTEX
  8
0
 10
11.4896
 20
2.43668
 30
0.0
 40
0
 41
0
  0
VERTEX
  8
0
 10
11.4587
 20
2.48888
 30
0.0
 40
0
 41
0
  0
VERTEX
  8
0
 10
11.4469
 20
2.54194
 30
0.0
 40
0
 41
0
  0
VERTEX
  8
0
 10
11.4469
 20
2.55957
 30
0.0
 40
0
 41
0
  0
VERTEX
  8
0
 10
11.4469
 20
2.5779
 30
0.0
 40
0
 41
0
  0
VERTEX
  8
0
 10
11.4587
 20
2.63276
 30
0.0
 40
0
 41
0
  0
VERTEX
  8
0
 10
11.4896
 20
2.68685
 30
0.0
 40
0
 41
0
  0
VERTEX
  8
0
 10
11.5335
 20
2.72467
 30
0.0
 40
0
 41
0
  0
VERTEX
  8
0
 10
11.5837
 20
2.74908
 30
0.0
 40
0
 41
0
  0
VERTEX
  8
0
 10
11.634
 20
2.76307
 30
0.0
 40
0
 41
0
  0
VERTEX
  8
0
 10
11.6778
 20
2.76947
 30
0.0
 40
0
 41
0
  0
VERTEX
  8
0
 10
11.7088
 20
2.77121
 30
0.0
 40
0
 41
0
  0
VERTEX
  8
0
 10
11.7205
 20
2.77111
 30
0.0
 40
0
 41
0
  0
VERTEX
  8
0
 10
11.7205
 20
2.77111
 30
0.0
 40
0
 41
0
  0
VERTEX
  8
0
 10
11.9888
 20
2.77214
 30
0.0
 40
0
 41
0
  0
VERTEX
  8
0
 10
11.9888
 20
2.35558
 30
0.0
 40
0
 41
0
  0
VERTEX
  8
0
 10
11.7205
 20
2.35558
 30
0.0
 40
0
 41
0
  0
SEQEND
 8
0
  0
POLYLINE
  8
0
 62
     0
 66
     1
 10
0
 20
0
 30
0.0
 70
     1
 40
0.75
 41
0.75
  0
VERTEX
  8
0
 10
11.7205
 20
2.35558
 30
0.0
 40
0.0104167
 41
0.0104167
  0
VERTEX
  8
0
 10
11.7205
 20
2.35558
 30
0.0
 40
0.0104167
 41
0.0104167
  0
VERTEX
  8
0
 10
11.7088
 20
2.35553
 30
0.0
 40
0.0104167
 41
0.0104167
  0
VERTEX
  8
0
 10
11.6778
 20
2.35715
 30
0.0
 40
0.0104167
 41
0.0104167
  0
VERTEX
  8
0
 10
11.634
 20
2.36328
 30
0.0
 40
0.0104167
 41
0.0104167
  0
VERTEX
  8
0
 10
11.5837
 20
2.37668
 30
0.0
 40
0.0104167
 41
0.0104167
  0
VERTEX
  8
0
 10
11.5335
 20
2.40022
 30
0.0
 40
0.0104167
 41
0.0104167
  0
VERTEX
  8
0
 10
11.4896
 20
2.43668
 30
0.0
 40
0.0104167
 41
0.0104167
  0
VERTEX
  8
0
 10
11.4587
 20
2.48888
 30
0.0
 40
0.0104167
 41
0.0104167
  0
VERTEX
  8
0
 10
11.4469
 20
2.54194
 30
0.0
 40
0.0104167
 41
0.0104167
  0
VERTEX
  8
0
 10
11.4469
 20
2.55957
 30
0.0
 40
0.0104167
 41
0.0104167
  0
VERTEX
  8
0
 10
11.4469
 20
2.5779
 30
0.0
 40
0.0104167
 41
0.0104167
  0
VERTEX
  8
0
 10
11.4587
 20
2.63276
 30
0.0
 40
0.0104167
 41
0.0104167
  0
VERTEX
  8
0
 10
11.4896
 20
2.68685
 30
0.0
 40
0.0104167
 41
0.0104167
  0
VERTEX
  8
0
 10
11.5335
 20
2.72467
 30
0.0
 40
0.0104167
 41
0.0104167
  0
VERTEX
  8
0
 10
11.5837
 20
2.74908
 30
0.0
 40
0.0104167
 41
0.0104167
  0
VERTEX
  8
0
 10
11.634
 20
2.76307
 30
0.0
 40
0.0104167
 41
0.0104167
  0
VERTEX
  8
0
 10
11.6778
 20
2.76947
 30
0.0
 40
0.0104167
 41
0.0104167
  0
VERTEX
  8
0
 10
11.7088
 20
2.77121
 30
0.0
 40
0.0104167
 41
0.0104167
  0
VERTEX
  8
0
 10
11.7205
 20
2.77111
 30
0.0
 40
0.0104167
 41
0.0104167
  0
VERTEX
  8
0
 10
11.7205
 20
2.77111
 30
0.0
 40
0.0104167
 41
0.0104167
  0
VERTEX
  8
0
 10
11.9888
 20
2.77214
 30
0.0
 40
0.0104167
 41
0.0104167
  0
VERTEX
  8
0
 10
11.9888
 20
2.35558
 30
0.0
 40
0.0104167
 41
0.0104167
  0
VERTEX
  8
0
 10
11.7205
 20
2.35558
 30
0.0
 40
0.0104167
 41
0.0104167
  0
SEQEND
 8
0
  0
POLYLINE
  8
0
 62
     7
 66
     1
 10
0
 20
0
 30
0.0
 70
     1
 40
0
 41
0
  0
VERTEX
  8
0
 10
12.0667
 20
2.59694
 30
0.0
 40
0
 41
0
  0
VERTEX
  8
0
 10
12.0982
 20
2.59694
 30
0.0
 40
0
 41
0
  0
VERTEX
  8
0
 10
12.0982
 20
2.53076
 30
0.0
 40
0
 41
0
  0
VERTEX
  8
0
 10
12.0667
 20
2.53076
 30
0.0
 40
0
 41
0
  0
VERTEX
  8
0
 10
12.0667
 20
2.59694
 30
0.0
 40
0
 41
0
  0
SEQEND
 8
0
  0
POLYLINE
  8
0
 62
     0
 66
     1
 10
0
 20
0
 30
0.0
 70
     1
 40
0.75
 41
0.75
  0
VERTEX
  8
0
 10
12.0667
 20
2.59694
 30
0.0
 40
0.0104167
 41
0.0104167
  0
VERTEX
  8
0
 10
12.0667
 20
2.53076
 30
0.0
 40
0.0104167
 41
0.0104167
  0
VERTEX
  8
0
 10
12.0982
 20
2.53076
 30
0.0
 40
0.0104167
 41
0.0104167
  0
VERTEX
  8
0
 10
12.0982
 20
2.59694
 30
0.0
 40
0.0104167
 41
0.0104167
  0
VERTEX
  8
0
 10
12.0667
 20
2.59694
 30
0.0
 40
0.0104167
 41
0.0104167
  0
SEQEND
 8
0
  0
POLYLINE
  8
0
 62
     7
 66
     1
 10
0
 20
0
 30
0.0
 70
     1
 40
0
 41
0
  0
VERTEX
  8
0
 10
11.6764
 20
3.89529
 30
0.0
 40
0
 41
0
  0
VERTEX
  8
0
 10
12.2352
 20
3.89529
 30
0.0
 40
0
 41
0
  0
VERTEX
  8
0
 10
12.2352
 20
3.27029
 30
0.0
 40
0
 41
0
  0
VERTEX
  8
0
 10
11.6764
 20
3.27029
 30
0.0
 40
0
 41
0
  0
VERTEX
  8
0
 10
11.6764
 20
3.89529
 30
0.0
 40
0
 41
0
  0
SEQEND
 8
0
  0
POLYLINE
  8
0
 62
     0
 66
     1
 10
0
 20
0
 30
0.0
 70
     1
 40
0.75
 41
0.75
  0
VERTEX
  8
0
 10
11.6764
 20
3.89529
 30
0.0
 40
0.0104167
 41
0.0104167
  0
VERTEX
  8
0
 10
11.6764
 20
3.27029
 30
0.0
 40
0.0104167
 41
0.0104167
  0
VERTEX
  8
0
 10
12.2352
 20
3.27029
 30
0.0
 40
0.0104167
 41
0.0104167
  0
VERTEX
  8
0
 10
12.2352
 20
3.89529
 30
0.0
 40
0.0104167
 41
0.0104167
  0
VERTEX
  8
0
 10
11.6764
 20
3.89529
 30
0.0
 40
0.0104167
 41
0.0104167
  0
SEQEND
 8
0
  0
POLYLINE
  8
0
 62
     7
 66
     1
 10
0
 20
0
 30
0.0
 70
     1
 40
0
 41
0
  0
VERTEX
  8
0
 10
11.7258
 20
3.84321
 30
0.0
 40
0
 41
0
  0
VERTEX
  8
0
 10
12.1342
 20
3.84321
 30
0.0
 40
0
 41
0
  0
VERTEX
  8
0
 10
12.1342
 20
3.32238
 30
0.0
 40
0
 41
0
  0
VERTEX
  8
0
 10
11.7258
 20
3.32238
 30
0.0
 40
0
 41
0
  0
VERTEX
  8
0
 10
11.7258
 20
3.84321
 30
0.0
 40
0
 41
0
  0
SEQEND
 8
0
  0
POLYLINE
  8
0
 62
     0
 66
     1
 10
0
 20
0
 30
0.0
 70
     1
 40
0.75
 41
0.75
  0
VERTEX
  8
0
 10
11.7258
 20
3.84321
 30
0.0
 40
0.0104167
 41
0.0104167
  0
VERTEX
  8
0
 10
11.7258
 20
3.32238
 30
0.0
 40
0.0104167
 41
0.0104167
  0
VERTEX
  8
0
 10
12.1342
 20
3.32238
 30
0.0
 40
0.0104167
 41
0.0104167
  0
VERTEX
  8
0
 10
12.1342
 20
3.84321
 30
0.0
 40
0.0104167
 41
0.0104167
  0
VERTEX
  8
0
 10
11.7258
 20
3.84321
 30
0.0
 40
0.0104167
 41
0.0104167
  0
SEQEND
 8
0
  0
POLYLINE
  8
0
 62
     7
 66
     1
 10
0
 20
0
 30
0.0
 70
     1
 40
0
 41
0
  0
VERTEX
  8
0
 10
11.9353
 20
3.54633
 30
0.0
 40
0
 41
0
  0
VERTEX
  8
0
 10
11.9289
 20
3.54633
 30
0.0
 40
0
 41
0
  0
VERTEX
  8
0
 10
11.9095
 20
3.55701
 30
0.0
 40
0
 41
0
  0
VERTEX
  8
0
 10
11.8989
 20
3.57639
 30
0.0
 40
0
 41
0
  0
VERTEX
  8
0
 10
11.8989
 20
3.58279
 30
0.0
 40
0
 41
0
  0
VERTEX
  8
0
 10
11.8989
 20
3.58925
 30
0.0
 40
0
 41
0
  0
VERTEX
  8
0
 10
11.9095
 20
3.60861
 30
0.0
 40
0
 41
0
  0
VERTEX
  8
0
 10
11.9289
 20
3.61925
 30
0.0
 40
0
 41
0
  0
VERTEX
  8
0
 10
11.9353
 20
3.61925
 30
0.0
 40
0
 41
0
  0
VERTEX
  8
0
 10
11.9417
 20
3.61925
 30
0.0
 40
0
 41
0
  0
VERTEX
  8
0
 10
11.9611
 20
3.60861
 30
0.0
 40
0
 41
0
  0
VERTEX
  8
0
 10
11.9718
 20
3.58925
 30
0.0
 40
0
 41
0
  0
VERTEX
  8
0
 10
11.9718
 20
3.58279
 30
0.0
 40
0
 41
0
  0
VERTEX
  8
0
 10
11.9718
 20
3.57639
 30
0.0
 40
0
 41
0
  0
VERTEX
  8
0
 10
11.9611
 20
3.55701
 30
0.0
 40
0
 41
0
  0
VERTEX
  8
0
 10
11.9417
 20
3.54633
 30
0.0
 40
0
 41
0
  0
VERTEX
  8
0
 10
11.9353
 20
3.54633
 30
0.0
 40
0
 41
0
  0
SEQEND
 8
0
  0
POLYLINE
  8
0
 62
     0
 66
     1
 10
0
 20
0
 30
0.0
 70
     1
 40
0.6
 41
0.6
  0
VERTEX
  8
0
 10
11.9353
 20
3.54633
 30
0.0
 40
0.00833333
 41
0.00833333
  0
VERTEX
  8
0
 10
11.9289
 20
3.54633
 30
0.0
 40
0.00833333
 41
0.00833333
  0
VERTEX
  8
0
 10
11.9095
 20
3.55701
 30
0.0
 40
0.00833333
 41
0.00833333
  0
VERTEX
  8
0
 10
11.8989
 20
3.57639
 30
0.0
 40
0.00833333
 41
0.00833333
  0
VERTEX
  8
0
 10
11.8989
 20
3.58279
 30
0.0
 40
0.00833333
 41
0.00833333
  0
VERTEX
  8
0
 10
11.8989
 20
3.58925
 30
0.0
 40
0.00833333
 41
0.00833333
  0
VERTEX
  8
0
 10
11.9095
 20
3.60861
 30
0.0
 40
0.00833333
 41
0.00833333
  0
VERTEX
  8
0
 10
11.9289
 20
3.61925
 30
0.0
 40
0.00833333
 41
0.00833333
  0
VERTEX
  8
0
 10
11.9353
 20
3.61925
 30
0.0
 40
0.00833333
 41
0.00833333
  0
VERTEX
  8
0
 10
11.9417
 20
3.61925
 30
0.0
 40
0.00833333
 41
0.00833333
  0
VERTEX
  8
0
 10
11.9611
 20
3.60861
 30
0.0
 40
0.00833333
 41
0.00833333
  0
VERTEX
  8
0
 10
11.9718
 20
3.58925
 30
0.0
 40
0.00833333
 41
0.00833333
  0
VERTEX
  8
0
 10
11.9718
 20
3.58279
 30
0.0
 40
0.00833333
 41
0.00833333
  0
VERTEX
  8
0
 10
11.9718
 20
3.57639
 30
0.0
 40
0.00833333
 41
0.00833333
  0
VERTEX
  8
0
 10
11.9611
 20
3.55701
 30
0.0
 40
0.00833333
 41
0.00833333
  0
VERTEX
  8
0
 10
11.9417
 20
3.54633
 30
0.0
 40
0.00833333
 41
0.00833333
  0
VERTEX
  8
0
 10
11.9353
 20
3.54633
 30
0.0
 40
0.00833333
 41
0.00833333
  0
SEQEND
 8
0
  0
POLYLINE
  8
0
 62
     7
 66
     1
 10
0
 20
0
 30
0.0
 70
     1
 40
0
 41
0
  0
VERTEX
  8
0
 10
11.9353
 20
3.56196
 30
0.0
 40
0
 41
0
  0
VERTEX
  8
0
 10
11.9316
 20
3.56196
 30
0.0
 40
0
 41
0
  0
VERTEX
  8
0
 10
11.9206
 20
3.56808
 30
0.0
 40
0
 41
0
  0
VERTEX
  8
0
 10
11.9145
 20
3.57915
 30
0.0
 40
0
 41
0
  0
VERTEX
  8
0
 10
11.9145
 20
3.58279
 30
0.0
 40
0
 41
0
  0
VERTEX
  8
0
 10
11.9145
 20
3.58649
 30
0.0
 40
0
 41
0
  0
VERTEX
  8
0
 10
11.9206
 20
3.59754
 30
0.0
 40
0
 41
0
  0
VERTEX
  8
0
 10
11.9316
 20
3.60363
 30
0.0
 40
0
 41
0
  0
VERTEX
  8
0
 10
11.9353
 20
3.60363
 30
0.0
 40
0
 41
0
  0
VERTEX
  8
0
 10
11.939
 20
3.60363
 30
0.0
 40
0
 41
0
  0
VERTEX
  8
0
 10
11.95
 20
3.59754
 30
0.0
 40
0
 41
0
  0
VERTEX
  8
0
 10
11.9562
 20
3.58649
 30
0.0
 40
0
 41
0
  0
VERTEX
  8
0
 10
11.9562
 20
3.58279
 30
0.0
 40
0
 41
0
  0
VERTEX
  8
0
 10
11.9562
 20
3.57915
 30
0.0
 40
0
 41
0
  0
VERTEX
  8
0
 10
11.95
 20
3.56808
 30
0.0
 40
0
 41
0
  0
VERTEX
  8
0
 10
11.939
 20
3.56196
 30
0.0
 40
0
 41
0
  0
VERTEX
  8
0
 10
11.9353
 20
3.56196
 30
0.0
 40
0
 41
0
  0
SEQEND
 8
0
  0
POLYLINE
  8
0
 62
     0
 66
     1
 10
0
 20
0
 30
0.0
 70
     1
 40
0.6
 41
0.6
  0
VERTEX
  8
0
 10
11.9353
 20
3.56196
 30
0.0
 40
0.00833333
 41
0.00833333
  0
VERTEX
  8
0
 10
11.9316
 20
3.56196
 30
0.0
 40
0.00833333
 41
0.00833333
  0
VERTEX
  8
0
 10
11.9206
 20
3.56808
 30
0.0
 40
0.00833333
 41
0.00833333
  0
VERTEX
  8
0
 10
11.9145
 20
3.57915
 30
0.0
 40
0.00833333
 41
0.00833333
  0
VERTEX
  8
0
 10
11.9145
 20
3.58279
 30
0.0
 40
0.00833333
 41
0.00833333
  0
VERTEX
  8
0
 10
11.9145
 20
3.58649
 30
0.0
 40
0.00833333
 41
0.00833333
  0
VERTEX
  8
0
 10
11.9206
 20
3.59754
 30
0.0
 40
0.00833333
 41
0.00833333
  0
VERTEX
  8
0
 10
11.9316
 20
3.60363
 30
0.0
 40
0.00833333
 41
0.00833333
  0
VERTEX
  8
0
 10
11.9353
 20
3.60363
 30
0.0
 40
0.00833333
 41
0.00833333
  0
VERTEX
  8
0
 10
11.939
 20
3.60363
 30
0.0
 40
0.00833333
 41
0.00833333
  0
VERTEX
  8
0
 10
11.95
 20
3.59754
 30
0.0
 40
0.00833333
 41
0.00833333
  0
VERTEX
  8
0
 10
11.9562
 20
3.58649
 30
0.0
 40
0.00833333
 41
0.00833333
  0
VERTEX
  8
0
 10
11.9562
 20
3.58279
 30
0.0
 40
0.00833333
 41
0.00833333
  0
VERTEX
  8
0
 10
11.9562
 20
3.57915
 30
0.0
 40
0.00833333
 41
0.00833333
  0
VERTEX
  8
0
 10
11.95
 20
3.56808
 30
0.0
 40
0.00833333
 41
0.00833333
  0
VERTEX
  8
0
 10
11.939
 20
3.56196
 30
0.0
 40
0.00833333
 41
0.00833333
  0
VERTEX
  8
0
 10
11.9353
 20
3.56196
 30
0.0
 40
0.00833333
 41
0.00833333
  0
SEQEND
 8
0
  0
POLYLINE
  8
0
 62
     7
 66
     1
 10
0
 20
0
 30
0.0
 70
     1
 40
0
 41
0
  0
VERTEX
  8
0
 10
12.0429
 20
3.61404
 30
0.0
 40
0
 41
0
  0
VERTEX
  8
0
 10
12.1887
 20
3.61404
 30
0.0
 40
0
 41
0
  0
VERTEX
  8
0
 10
12.1887
 20
3.55154
 30
0.0
 40
0
 41
0
  0
VERTEX
  8
0
 10
12.0429
 20
3.55154
 30
0.0
 40
0
 41
0
  0
VERTEX
  8
0
 10
12.0429
 20
3.61404
 30
0.0
 40
0
 41
0
  0
SEQEND
 8
0
  0
POLYLINE
  8
0
 62
     0
 66
     1
 10
0
 20
0
 30
0.0
 70
     1
 40
0.75
 41
0.75
  0
VERTEX
  8
0
 10
12.0429
 20
3.61404
 30
0.0
 40
0.0104167
 41
0.0104167
  0
VERTEX
  8
0
 10
12.0429
 20
3.55154
 30
0.0
 40
0.0104167
 41
0.0104167
  0
VERTEX
  8
0
 10
12.1887
 20
3.55154
 30
0.0
 40
0.0104167
 41
0.0104167
  0
VERTEX
  8
0
 10
12.1887
 20
3.61404
 30
0.0
 40
0.0104167
 41
0.0104167
  0
VERTEX
  8
0
 10
12.0429
 20
3.61404
 30
0.0
 40
0.0104167
 41
0.0104167
  0
SEQEND
 8
0
  0
POLYLINE
  8
0
 62
     7
 66
     1
 10
0
 20
0
 30
0.0
 70
     1
 40
0
 41
0
  0
VERTEX
  8
0
 10
11.003
 20
4.71294
 30
0.0
 40
0
 41
0
  0
VERTEX
  8
0
 10
11.4425
 20
4.71294
 30
0.0
 40
0
 41
0
  0
VERTEX
  8
0
 10
11.4425
 20
4.08344
 30
0.0
 40
0
 41
0
  0
VERTEX
  8
0
 10
11.003
 20
4.08344
 30
0.0
 40
0
 41
0
  0
VERTEX
  8
0
 10
11.003
 20
4.71294
 30
0.0
 40
0
 41
0
  0
SEQEND
 8
0
  0
POLYLINE
  8
0
 62
     0
 66
     1
 10
0
 20
0
 30
0.0
 70
     1
 40
0.75
 41
0.75
  0
VERTEX
  8
0
 10
11.003
 20
4.71294
 30
0.0
 40
0.0104167
 41
0.0104167
  0
VERTEX
  8
0
 10
11.4425
 20
4.71294
 30
0.0
 40
0.0104167
 41
0.0104167
  0
VERTEX
  8
0
 10
11.4425
 20
4.08344
 30
0.0
 40
0.0104167
 41
0.0104167
  0
VERTEX
  8
0
 10
11.003
 20
4.08344
 30
0.0
 40
0.0104167
 41
0.0104167
  0
VERTEX
  8
0
 10
11.003
 20
4.71294
 30
0.0
 40
0.0104167
 41
0.0104167
  0
SEQEND
 8
0
  0
POLYLINE
  8
0
 62
     7
 66
     1
 10
0
 20
0
 30
0.0
 70
     1
 40
0
 41
0
  0
VERTEX
  8
0
 10
10.156
 20
4.71457
 30
0.0
 40
0
 41
0
  0
VERTEX
  8
0
 10
11.003
 20
4.71457
 30
0.0
 40
0
 41
0
  0
VERTEX
  8
0
 10
11.003
 20
4.08393
 30
0.0
 40
0
 41
0
  0
VERTEX
  8
0
 10
10.156
 20
4.08393
 30
0.0
 40
0
 41
0
  0
VERTEX
  8
0
 10
10.156
 20
4.71457
 30
0.0
 40
0
 41
0
  0
SEQEND
 8
0
  0
POLYLINE
  8
0
 62
     0
 66
     1
 10
0
 20
0
 30
0.0
 70
     1
 40
1.0164
 41
1.0164
  0
VERTEX
  8
0
 10
10.156
 20
4.71457
 30
0.0
 40
0.0141167
 41
0.0141167
  0
VERTEX
  8
0
 10
11.003
 20
4.71457
 30
0.0
 40
0.0141167
 41
0.0141167
  0
VERTEX
  8
0
 10
11.003
 20
4.08393
 30
0.0
 40
0.0141167
 41
0.0141167
  0
VERTEX
  8
0
 10
10.156
 20
4.08393
 30
0.0
 40
0.0141167
 41
0.0141167
  0
VERTEX
  8
0
 10
10.156
 20
4.71457
 30
0.0
 40
0.0141167
 41
0.0141167
  0
SEQEND
 8
0
  0
POLYLINE
  8
0
 62
     0
 66
     1
 10
0
 20
0
 30
0.0
 40
1.0164
 41
1.0164
  0
VERTEX
  8
0
 10
10.156
 20
4.71457
 30
0.0
 40
0.0141167
 41
0.0141167
  0
VERTEX
  8
0
 10
10.5809
 20
4.29628
 30
0.0
 40
0.0141167
 41
0.0141167
  0
VERTEX
  8
0
 10
10.5809
 20
4.51069
 30
0.0
 40
0.0141167
 41
0.0141167
  0
VERTEX
  8
0
 10
11.0016
 20
4.08393
 30
0.0
 40
0.0141167
 41
0.0141167
  0
SEQEND
 8
0
  0
POLYLINE
  8
0
 62
     7
 66
     1
 10
0
 20
0
 30
0.0
 70
     1
 40
0
 41
0
  0
VERTEX
  8
0
 10
11.5675
 20
4.81538
 30
0.0
 40
0
 41
0
  0
VERTEX
  8
0
 10
12.0298
 20
4.81538
 30
0.0
 40
0
 41
0
  0
VERTEX
  8
0
 10
12.0298
 20
4.16037
 30
0.0
 40
0
 41
0
  0
VERTEX
  8
0
 10
11.5675
 20
4.16037
 30
0.0
 40
0
 41
0
  0
VERTEX
  8
0
 10
11.5675
 20
4.81538
 30
0.0
 40
0
 41
0
  0
SEQEND
 8
0
  0
POLYLINE
  8
0
 62
     0
 66
     1
 10
0
 20
0
 30
0.0
 70
     1
 40
0.75
 41
0.75
  0
VERTEX
  8
0
 10
11.5675
 20
4.81538
 30
0.0
 40
0.0104167
 41
0.0104167
  0
VERTEX
  8
0
 10
12.0298
 20
4.81538
 30
0.0
 40
0.0104167
 41
0.0104167
  0
VERTEX
  8
0
 10
12.0298
 20
4.16037
 30
0.0
 40
0.0104167
 41
0.0104167
  0
VERTEX
  8
0
 10
11.5675
 20
4.16037
 30
0.0
 40
0.0104167
 41
0.0104167
  0
VERTEX
  8
0
 10
11.5675
 20
4.81538
 30
0.0
 40
0.0104167
 41
0.0104167
  0
SEQEND
 8
0
  0
POLYLINE
  8
0
 62
     7
 66
     1
 10
0
 20
0
 30
0.0
 70
     1
 40
0
 41
0
  0
VERTEX
  8
0
 10
12.0298
 20
4.81808
 30
0.0
 40
0
 41
0
  0
VERTEX
  8
0
 10
12.4877
 20
4.81808
 30
0.0
 40
0
 41
0
  0
VERTEX
  8
0
 10
12.4877
 20
4.16737
 30
0.0
 40
0
 41
0
  0
VERTEX
  8
0
 10
12.0298
 20
4.16737
 30
0.0
 40
0
 41
0
  0
VERTEX
  8
0
 10
12.0298
 20
4.81808
 30
0.0
 40
0
 41
0
  0
SEQEND
 8
0
  0
POLYLINE
  8
0
 62
     0
 66
     1
 10
0
 20
0
 30
0.0
 70
     1
 40
0.75
 41
0.75
  0
VERTEX
  8
0
 10
12.0298
 20
4.81808
 30
0.0
 40
0.0104167
 41
0.0104167
  0
VERTEX
  8
0
 10
12.4877
 20
4.81808
 30
0.0
 40
0.0104167
 41
0.0104167
  0
VERTEX
  8
0
 10
12.4877
 20
4.16737
 30
0.0
 40
0.0104167
 41
0.0104167
  0
VERTEX
  8
0
 10
12.0298
 20
4.16737
 30
0.0
 40
0.0104167
 41
0.0104167
  0
VERTEX
  8
0
 10
12.0298
 20
4.81808
 30
0.0
 40
0.0104167
 41
0.0104167
  0
SEQEND
 8
0
  0
POLYLINE
  8
0
 62
     253
 66
     1
 10
0
 20
0
 30
0.0
 40
0.75
 41
0.75
  0
VERTEX
  8
0
 10
12.4877
 20
4.49274
 30
0.0
 40
0.0104167
 41
0.0104167
  0
VERTEX
  8
0
 10
12.0298
 20
4.49274
 30
0.0
 40
0.0104167
 41
0.0104167
  0
SEQEND
 8
0
  0
POLYLINE
  8
0
 62
     7
 66
     1
 10
0
 20
0
 30
0.0
 70
     1
 40
0
 41
0
  0
VERTEX
  8
0
 10
12.4907
 20
4.81808
 30
0.0
 40
0
 41
0
  0
VERTEX
  8
0
 10
12.5611
 20
4.81808
 30
0.0
 40
0
 41
0
  0
VERTEX
  8
0
 10
12.5611
 20
4.16737
 30
0.0
 40
0
 41
0
  0
VERTEX
  8
0
 10
12.4907
 20
4.16737
 30
0.0
 40
0
 41
0
  0
VERTEX
  8
0
 10
12.4907
 20
4.81808
 30
0.0
 40
0
 41
0
  0
SEQEND
 8
0
  0
POLYLINE
  8
0
 62
     0
 66
     1
 10
0
 20
0
 30
0.0
 70
     1
 40
0.50685
 41
0.50685
  0
VERTEX
  8
0
 10
12.4907
 20
4.81808
 30
0.0
 40
0.00703958
 41
0.00703958
  0
VERTEX
  8
0
 10
12.5611
 20
4.81808
 30
0.0
 40
0.00703958
 41
0.00703958
  0
VERTEX
  8
0
 10
12.5611
 20
4.16737
 30
0.0
 40
0.00703958
 41
0.00703958
  0
VERTEX
  8
0
 10
12.4907
 20
4.16737
 30
0.0
 40
0.00703958
 41
0.00703958
  0
VERTEX
  8
0
 10
12.4907
 20
4.81808
 30
0.0
 40
0.00703958
 41
0.00703958
  0
SEQEND
 8
0
  0
POLYLINE
  8
0
 62
     7
 66
     1
 10
0
 20
0
 30
0.0
 70
     1
 40
0
 41
0
  0
VERTEX
  8
0
 10
7.74653
 20
3.40657
 30
0.0
 40
0
 41
0
  0
VERTEX
  8
0
 10
8.43365
 20
3.40657
 30
0.0
 40
0
 41
0
  0
VERTEX
  8
0
 10
8.43365
 20
2.70708
 30
0.0
 40
0
 41
0
  0
VERTEX
  8
0
 10
7.74653
 20
2.70708
 30
0.0
 40
0
 41
0
  0
VERTEX
  8
0
 10
7.74653
 20
3.40657
 30
0.0
 40
0
 41
0
  0
SEQEND
 8
0
  0
POLYLINE
  8
0
 62
     0
 66
     1
 10
0
 20
0
 30
0.0
 70
     1
 40
0.8394
 41
0.8394
  0
VERTEX
  8
0
 10
7.74653
 20
3.40657
 30
0.0
 40
0.0116583
 41
0.0116583
  0
VERTEX
  8
0
 10
7.74653
 20
2.70708
 30
0.0
 40
0.0116583
 41
0.0116583
  0
VERTEX
  8
0
 10
8.43365
 20
2.70708
 30
0.0
 40
0.0116583
 41
0.0116583
  0
VERTEX
  8
0
 10
8.43365
 20
3.40657
 30
0.0
 40
0.0116583
 41
0.0116583
  0
VERTEX
  8
0
 10
7.74653
 20
3.40657
 30
0.0
 40
0.0116583
 41
0.0116583
  0
SEQEND
 8
0
  0
POLYLINE
  8
0
 62
     0
 66
     1
 10
0
 20
0
 30
0.0
 40
0.8394
 41
0.8394
  0
VERTEX
  8
0
 10
8.43365
 20
3.40657
 30
0.0
 40
0.0116583
 41
0.0116583
  0
VERTEX
  8
0
 10
8.00879
 20
3.05686
 30
0.0
 40
0.0116583
 41
0.0116583
  0
VERTEX
  8
0
 10
8.21496
 20
3.05686
 30
0.0
 40
0.0116583
 41
0.0116583
  0
VERTEX
  8
0
 10
7.7889
 20
2.70708
 30
0.0
 40
0.0116583
 41
0.0116583
  0
SEQEND
 8
0
  0
POLYLINE
  8
0
 62
     7
 66
     1
 10
0
 20
0
 30
0.0
 70
     1
 40
0
 41
0
  0
VERTEX
  8
0
 10
7.74653
 20
3.40657
 30
0.0
 40
0
 41
0
  0
VERTEX
  8
0
 10
7.79238
 20
3.40657
 30
0.0
 40
0
 41
0
  0
VERTEX
  8
0
 10
7.79238
 20
2.70708
 30
0.0
 40
0
 41
0
  0
VERTEX
  8
0
 10
7.74653
 20
2.70708
 30
0.0
 40
0
 41
0
  0
VERTEX
  8
0
 10
7.74653
 20
3.40657
 30
0.0
 40
0
 41
0
  0
SEQEND
 8
0
  0
POLYLINE
  8
0
 62
     0
 66
     1
 10
0
 20
0
 30
0.0
 70
     1
 40
0.8394
 41
0.8394
  0
VERTEX
  8
0
 10
7.74653
 20
3.40657
 30
0.0
 40
0.0116583
 41
0.0116583
  0
VERTEX
  8
0
 10
7.74653
 20
2.70708
 30
0.0
 40
0.0116583
 41
0.0116583
  0
VERTEX
  8
0
 10
7.79238
 20
2.70708
 30
0.0
 40
0.0116583
 41
0.0116583
  0
VERTEX
  8
0
 10
7.79238
 20
3.40657
 30
0.0
 40
0.0116583
 41
0.0116583
  0
VERTEX
  8
0
 10
7.74653
 20
3.40657
 30
0.0
 40
0.0116583
 41
0.0116583
  0
SEQEND
 8
0
  0
POLYLINE
  8
0
 62
     7
 66
     1
 10
0
 20
0
 30
0.0
 70
     1
 40
0
 41
0
  0
VERTEX
  8
0
 10
5.50993
 20
3.51801
 30
0.0
 40
0
 41
0
  0
VERTEX
  8
0
 10
6.17719
 20
3.51801
 30
0.0
 40
0
 41
0
  0
VERTEX
  8
0
 10
6.17719
 20
1.82237
 30
0.0
 40
0
 41
0
  0
VERTEX
  8
0
 10
7.7315
 20
1.82237
 30
0.0
 40
0
 41
0
  0
VERTEX
  8
0
 10
7.7315
 20
1.1748
 30
0.0
 40
0
 41
0
  0
VERTEX
  8
0
 10
5.52106
 20
1.17741
 30
0.0
 40
0
 41
0
  0
VERTEX
  8
0
 10
5.52106
 20
3.52414
 30
0.0
 40
0
 41
0
  0
VERTEX
  8
0
 10
5.50993
 20
3.51801
 30
0.0
 40
0
 41
0
  0
SEQEND
 8
0
  0
POLYLINE
  8
0
 62
     0
 66
     1
 10
0
 20
0
 30
0.0
 70
     1
 40
0.75
 41
0.75
  0
VERTEX
  8
0
 10
5.50993
 20
3.51801
 30
0.0
 40
0.0104167
 41
0.0104167
  0
VERTEX
  8
0
 10
6.17719
 20
3.51801
 30
0.0
 40
0.0104167
 41
0.0104167
  0
VERTEX
  8
0
 10
6.17719
 20
1.82237
 30
0.0
 40
0.0104167
 41
0.0104167
  0
VERTEX
  8
0
 10
7.7315
 20
1.82237
 30
0.0
 40
0.0104167
 41
0.0104167
  0
VERTEX
  8
0
 10
7.7315
 20
1.1748
 30
0.0
 40
0.0104167
 41
0.0104167
  0
VERTEX
  8
0
 10
5.52106
 20
1.17741
 30
0.0
 40
0.0104167
 41
0.0104167
  0
VERTEX
  8
0
 10
5.52106
 20
3.52414
 30
0.0
 40
0.0104167
 41
0.0104167
  0
VERTEX
  8
0
 10
5.50993
 20
3.51801
 30
0.0
 40
0.0104167
 41
0.0104167
  0
SEQEND
 8
0
  0
POLYLINE
  8
0
 62
     7
 66
     1
 10
0
 20
0
 30
0.0
 70
     1
 40
0
 41
0
  0
VERTEX
  8
0
 10
6.62256
 20
1.81939
 30
0.0
 40
0
 41
0
  0
VERTEX
  8
0
 10
7.25672
 20
1.81939
 30
0.0
 40
0
 41
0
  0
VERTEX
  8
0
 10
7.25672
 20
1.17551
 30
0.0
 40
0
 41
0
  0
VERTEX
  8
0
 10
6.62256
 20
1.17551
 30
0.0
 40
0
 41
0
  0
VERTEX
  8
0
 10
6.62256
 20
1.81939
 30
0.0
 40
0
 41
0
  0
SEQEND
 8
0
  0
POLYLINE
  8
0
 62
     0
 66
     1
 10
0
 20
0
 30
0.0
 70
     1
 40
0.75
 41
0.75
  0
VERTEX
  8
0
 10
6.62256
 20
1.81939
 30
0.0
 40
0.0104167
 41
0.0104167
  0
VERTEX
  8
0
 10
7.25672
 20
1.81939
 30
0.0
 40
0.0104167
 41
0.0104167
  0
VERTEX
  8
0
 10
7.25672
 20
1.17551
 30
0.0
 40
0.0104167
 41
0.0104167
  0
VERTEX
  8
0
 10
6.62256
 20
1.17551
 30
0.0
 40
0.0104167
 41
0.0104167
  0
VERTEX
  8
0
 10
6.62256
 20
1.81939
 30
0.0
 40
0.0104167
 41
0.0104167
  0
SEQEND
 8
0
  0
POLYLINE
  8
0
 62
     7
 66
     1
 10
0
 20
0
 30
0.0
 70
     1
 40
0
 41
0
  0
VERTEX
  8
0
 10
7.01357
 20
1.33805
 30
0.0
 40
0
 41
0
  0
VERTEX
  8
0
 10
7.01357
 20
1.34619
 30
0.0
 40
0
 41
0
  0
VERTEX
  8
0
 10
7.02007
 20
1.3705
 30
0.0
 40
0
 41
0
  0
VERTEX
  8
0
 10
7.03792
 20
1.39697
 30
0.0
 40
0
 41
0
  0
VERTEX
  8
0
 10
7.0644
 20
1.41488
 30
0.0
 40
0
 41
0
  0
VERTEX
  8
0
 10
7.08876
 20
1.42139
 30
0.0
 40
0
 41
0
  0
VERTEX
  8
0
 10
7.0969
 20
1.42139
 30
0.0
 40
0
 41
0
  0
VERTEX
  8
0
 10
7.10499
 20
1.42139
 30
0.0
 40
0
 41
0
  0
VERTEX
  8
0
 10
7.12929
 20
1.41488
 30
0.0
 40
0
 41
0
  0
VERTEX
  8
0
 10
7.15582
 20
1.39697
 30
0.0
 40
0
 41
0
  0
VERTEX
  8
0
 10
7.17367
 20
1.3705
 30
0.0
 40
0
 41
0
  0
VERTEX
  8
0
 10
7.18024
 20
1.34619
 30
0.0
 40
0
 41
0
  0
VERTEX
  8
0
 10
7.18024
 20
1.33805
 30
0.0
 40
0
 41
0
  0
VERTEX
  8
0
 10
7.18024
 20
1.32997
 30
0.0
 40
0
 41
0
  0
VERTEX
  8
0
 10
7.17367
 20
1.30566
 30
0.0
 40
0
 41
0
  0
VERTEX
  8
0
 10
7.15582
 20
1.27913
 30
0.0
 40
0
 41
0
  0
VERTEX
  8
0
 10
7.12929
 20
1.26128
 30
0.0
 40
0
 41
0
  0
VERTEX
  8
0
 10
7.10499
 20
1.25472
 30
0.0
 40
0
 41
0
  0
VERTEX
  8
0
 10
7.0969
 20
1.25472
 30
0.0
 40
0
 41
0
  0
VERTEX
  8
0
 10
7.08876
 20
1.25472
 30
0.0
 40
0
 41
0
  0
VERTEX
  8
0
 10
7.0644
 20
1.26128
 30
0.0
 40
0
 41
0
  0
VERTEX
  8
0
 10
7.03792
 20
1.27913
 30
0.0
 40
0
 41
0
  0
VERTEX
  8
0
 10
7.02007
 20
1.30566
 30
0.0
 40
0
 41
0
  0
VERTEX
  8
0
 10
7.01357
 20
1.32997
 30
0.0
 40
0
 41
0
  0
VERTEX
  8
0
 10
7.01357
 20
1.33805
 30
0.0
 40
0
 41
0
  0
SEQEND
 8
0
  0
POLYLINE
  8
0
 62
     0
 66
     1
 10
0
 20
0
 30
0.0
 70
     1
 40
0.75
 41
0.75
  0
VERTEX
  8
0
 10
7.01357
 20
1.33805
 30
0.0
 40
0.0104167
 41
0.0104167
  0
VERTEX
  8
0
 10
7.01357
 20
1.34619
 30
0.0
 40
0.0104167
 41
0.0104167
  0
VERTEX
  8
0
 10
7.02007
 20
1.3705
 30
0.0
 40
0.0104167
 41
0.0104167
  0
VERTEX
  8
0
 10
7.03792
 20
1.39697
 30
0.0
 40
0.0104167
 41
0.0104167
  0
VERTEX
  8
0
 10
7.0644
 20
1.41488
 30
0.0
 40
0.0104167
 41
0.0104167
  0
VERTEX
  8
0
 10
7.08876
 20
1.42139
 30
0.0
 40
0.0104167
 41
0.0104167
  0
VERTEX
  8
0
 10
7.0969
 20
1.42139
 30
0.0
 40
0.0104167
 41
0.0104167
  0
VERTEX
  8
0
 10
7.10499
 20
1.42139
 30
0.0
 40
0.0104167
 41
0.0104167
  0
VERTEX
  8
0
 10
7.12929
 20
1.41488
 30
0.0
 40
0.0104167
 41
0.0104167
  0
VERTEX
  8
0
 10
7.15582
 20
1.39697
 30
0.0
 40
0.0104167
 41
0.0104167
  0
VERTEX
  8
0
 10
7.17367
 20
1.3705
 30
0.0
 40
0.0104167
 41
0.0104167
  0
VERTEX
  8
0
 10
7.18024
 20
1.34619
 30
0.0
 40
0.0104167
 41
0.0104167
  0
VERTEX
  8
0
 10
7.18024
 20
1.33805
 30
0.0
 40
0.0104167
 41
0.0104167
  0
VERTEX
  8
0
 10
7.18024
 20
1.32997
 30
0.0
 40
0.0104167
 41
0.0104167
  0
VERTEX
  8
0
 10
7.17367
 20
1.30566
 30
0.0
 40
0.0104167
 41
0.0104167
  0
VERTEX
  8
0
 10
7.15582
 20
1.27913
 30
0.0
 40
0.0104167
 41
0.0104167
  0
VERTEX
  8
0
 10
7.12929
 20
1.26128
 30
0.0
 40
0.0104167
 41
0.0104167
  0
VERTEX
  8
0
 10
7.10499
 20
1.25472
 30
0.0
 40
0.0104167
 41
0.0104167
  0
VERTEX
  8
0
 10
7.0969
 20
1.25472
 30
0.0
 40
0.0104167
 41
0.0104167
  0
VERTEX
  8
0
 10
7.08876
 20
1.25472
 30
0.0
 40
0.0104167
 41
0.0104167
  0
VERTEX
  8
0
 10
7.0644
 20
1.26128
 30
0.0
 40
0.0104167
 41
0.0104167
  0
VERTEX
  8
0
 10
7.03792
 20
1.27913
 30
0.0
 40
0.0104167
 41
0.0104167
  0
VERTEX
  8
0
 10
7.02007
 20
1.30566
 30
0.0
 40
0.0104167
 41
0.0104167
  0
VERTEX
  8
0
 10
7.01357
 20
1.32997
 30
0.0
 40
0.0104167
 41
0.0104167
  0
VERTEX
  8
0
 10
7.01357
 20
1.33805
 30
0.0
 40
0.0104167
 41
0.0104167
  0
SEQEND
 8
0
  0
POLYLINE
  8
0
 62
     7
 66
     1
 10
0
 20
0
 30
0.0
 70
     1
 40
0
 41
0
  0
VERTEX
  8
0
 10
6.69738
 20
1.33805
 30
0.0
 40
0
 41
0
  0
VERTEX
  8
0
 10
6.69738
 20
1.34619
 30
0.0
 40
0
 41
0
  0
VERTEX
  8
0
 10
6.70389
 20
1.3705
 30
0.0
 40
0
 41
0
  0
VERTEX
  8
0
 10
6.72174
 20
1.39697
 30
0.0
 40
0
 41
0
  0
VERTEX
  8
0
 10
6.74821
 20
1.41488
 30
0.0
 40
0
 41
0
  0
VERTEX
  8
0
 10
6.77257
 20
1.42139
 30
0.0
 40
0
 41
0
  0
VERTEX
  8
0
 10
6.78071
 20
1.42139
 30
0.0
 40
0
 41
0
  0
VERTEX
  8
0
 10
6.78879
 20
1.42139
 30
0.0
 40
0
 41
0
  0
VERTEX
  8
0
 10
6.8131
 20
1.41488
 30
0.0
 40
0
 41
0
  0
VERTEX
  8
0
 10
6.83963
 20
1.39697
 30
0.0
 40
0
 41
0
  0
VERTEX
  8
0
 10
6.85747
 20
1.3705
 30
0.0
 40
0
 41
0
  0
VERTEX
  8
0
 10
6.86404
 20
1.34619
 30
0.0
 40
0
 41
0
  0
VERTEX
  8
0
 10
6.86404
 20
1.33805
 30
0.0
 40
0
 41
0
  0
VERTEX
  8
0
 10
6.86404
 20
1.32997
 30
0.0
 40
0
 41
0
  0
VERTEX
  8
0
 10
6.85747
 20
1.30566
 30
0.0
 40
0
 41
0
  0
VERTEX
  8
0
 10
6.83963
 20
1.27913
 30
0.0
 40
0
 41
0
  0
VERTEX
  8
0
 10
6.8131
 20
1.26128
 30
0.0
 40
0
 41
0
  0
VERTEX
  8
0
 10
6.78879
 20
1.25472
 30
0.0
 40
0
 41
0
  0
VERTEX
  8
0
 10
6.78071
 20
1.25472
 30
0.0
 40
0
 41
0
  0
VERTEX
  8
0
 10
6.77257
 20
1.25472
 30
0.0
 40
0
 41
0
  0
VERTEX
  8
0
 10
6.74821
 20
1.26128
 30
0.0
 40
0
 41
0
  0
VERTEX
  8
0
 10
6.72174
 20
1.27913
 30
0.0
 40
0
 41
0
  0
VERTEX
  8
0
 10
6.70389
 20
1.30566
 30
0.0
 40
0
 41
0
  0
VERTEX
  8
0
 10
6.69738
 20
1.32997
 30
0.0
 40
0
 41
0
  0
VERTEX
  8
0
 10
6.69738
 20
1.33805
 30
0.0
 40
0
 41
0
  0
SEQEND
 8
0
  0
POLYLINE
  8
0
 62
     0
 66
     1
 10
0
 20
0
 30
0.0
 70
     1
 40
0.75
 41
0.75
  0
VERTEX
  8
0
 10
6.69738
 20
1.33805
 30
0.0
 40
0.0104167
 41
0.0104167
  0
VERTEX
  8
0
 10
6.69738
 20
1.34619
 30
0.0
 40
0.0104167
 41
0.0104167
  0
VERTEX
  8
0
 10
6.70389
 20
1.3705
 30
0.0
 40
0.0104167
 41
0.0104167
  0
VERTEX
  8
0
 10
6.72174
 20
1.39697
 30
0.0
 40
0.0104167
 41
0.0104167
  0
VERTEX
  8
0
 10
6.74821
 20
1.41488
 30
0.0
 40
0.0104167
 41
0.0104167
  0
VERTEX
  8
0
 10
6.77257
 20
1.42139
 30
0.0
 40
0.0104167
 41
0.0104167
  0
VERTEX
  8
0
 10
6.78071
 20
1.42139
 30
0.0
 40
0.0104167
 41
0.0104167
  0
VERTEX
  8
0
 10
6.78879
 20
1.42139
 30
0.0
 40
0.0104167
 41
0.0104167
  0
VERTEX
  8
0
 10
6.8131
 20
1.41488
 30
0.0
 40
0.0104167
 41
0.0104167
  0
VERTEX
  8
0
 10
6.83963
 20
1.39697
 30
0.0
 40
0.0104167
 41
0.0104167
  0
VERTEX
  8
0
 10
6.85747
 20
1.3705
 30
0.0
 40
0.0104167
 41
0.0104167
  0
VERTEX
  8
0
 10
6.86404
 20
1.34619
 30
0.0
 40
0.0104167
 41
0.0104167
  0
VERTEX
  8
0
 10
6.86404
 20
1.33805
 30
0.0
 40
0.0104167
 41
0.0104167
  0
VERTEX
  8
0
 10
6.86404
 20
1.32997
 30
0.0
 40
0.0104167
 41
0.0104167
  0
VERTEX
  8
0
 10
6.85747
 20
1.30566
 30
0.0
 40
0.0104167
 41
0.0104167
  0
VERTEX
  8
0
 10
6.83963
 20
1.27913
 30
0.0
 40
0.0104167
 41
0.0104167
  0
VERTEX
  8
0
 10
6.8131
 20
1.26128
 30
0.0
 40
0.0104167
 41
0.0104167
  0
VERTEX
  8
0
 10
6.78879
 20
1.25472
 30
0.0
 40
0.0104167
 41
0.0104167
  0
VERTEX
  8
0
 10
6.78071
 20
1.25472
 30
0.0
 40
0.0104167
 41
0.0104167
  0
VERTEX
  8
0
 10
6.77257
 20
1.25472
 30
0.0
 40
0.0104167
 41
0.0104167
  0
VERTEX
  8
0
 10
6.74821
 20
1.26128
 30
0.0
 40
0.0104167
 41
0.0104167
  0
VERTEX
  8
0
 10
6.72174
 20
1.27913
 30
0.0
 40
0.0104167
 41
0.0104167
  0
VERTEX
  8
0
 10
6.70389
 20
1.30566
 30
0.0
 40
0.0104167
 41
0.0104167
  0
VERTEX
  8
0
 10
6.69738
 20
1.32997
 30
0.0
 40
0.0104167
 41
0.0104167
  0
VERTEX
  8
0
 10
6.69738
 20
1.33805
 30
0.0
 40
0.0104167
 41
0.0104167
  0
SEQEND
 8
0
  0
POLYLINE
  8
0
 62
     7
 66
     1
 10
0
 20
0
 30
0.0
 70
     1
 40
0
 41
0
  0
VERTEX
  8
0
 10
7.01357
 20
1.65896
 30
0.0
 40
0
 41
0
  0
VERTEX
  8
0
 10
7.01357
 20
1.6671
 30
0.0
 40
0
 41
0
  0
VERTEX
  8
0
 10
7.02007
 20
1.6914
 30
0.0
 40
0
 41
0
  0
VERTEX
  8
0
 10
7.03792
 20
1.71789
 30
0.0
 40
0
 41
0
  0
VERTEX
  8
0
 10
7.0644
 20
1.73579
 30
0.0
 40
0
 41
0
  0
VERTEX
  8
0
 10
7.08876
 20
1.74229
 30
0.0
 40
0
 41
0
  0
VERTEX
  8
0
 10
7.0969
 20
1.74229
 30
0.0
 40
0
 41
0
  0
VERTEX
  8
0
 10
7.10499
 20
1.74229
 30
0.0
 40
0
 41
0
  0
VERTEX
  8
0
 10
7.12929
 20
1.73579
 30
0.0
 40
0
 41
0
  0
VERTEX
  8
0
 10
7.15582
 20
1.71789
 30
0.0
 40
0
 41
0
  0
VERTEX
  8
0
 10
7.17367
 20
1.6914
 30
0.0
 40
0
 41
0
  0
VERTEX
  8
0
 10
7.18024
 20
1.6671
 30
0.0
 40
0
 41
0
  0
VERTEX
  8
0
 10
7.18024
 20
1.65896
 30
0.0
 40
0
 41
0
  0
VERTEX
  8
0
 10
7.18024
 20
1.65087
 30
0.0
 40
0
 41
0
  0
VERTEX
  8
0
 10
7.17367
 20
1.62657
 30
0.0
 40
0
 41
0
  0
VERTEX
  8
0
 10
7.15582
 20
1.60004
 30
0.0
 40
0
 41
0
  0
VERTEX
  8
0
 10
7.12929
 20
1.58219
 30
0.0
 40
0
 41
0
  0
VERTEX
  8
0
 10
7.10499
 20
1.57563
 30
0.0
 40
0
 41
0
  0
VERTEX
  8
0
 10
7.0969
 20
1.57563
 30
0.0
 40
0
 41
0
  0
VERTEX
  8
0
 10
7.08876
 20
1.57563
 30
0.0
 40
0
 41
0
  0
VERTEX
  8
0
 10
7.0644
 20
1.58219
 30
0.0
 40
0
 41
0
  0
VERTEX
  8
0
 10
7.03792
 20
1.60004
 30
0.0
 40
0
 41
0
  0
VERTEX
  8
0
 10
7.02007
 20
1.62657
 30
0.0
 40
0
 41
0
  0
VERTEX
  8
0
 10
7.01357
 20
1.65087
 30
0.0
 40
0
 41
0
  0
VERTEX
  8
0
 10
7.01357
 20
1.65896
 30
0.0
 40
0
 41
0
  0
SEQEND
 8
0
  0
POLYLINE
  8
0
 62
     0
 66
     1
 10
0
 20
0
 30
0.0
 70
     1
 40
0.75
 41
0.75
  0
VERTEX
  8
0
 10
7.01357
 20
1.65896
 30
0.0
 40
0.0104167
 41
0.0104167
  0
VERTEX
  8
0
 10
7.01357
 20
1.6671
 30
0.0
 40
0.0104167
 41
0.0104167
  0
VERTEX
  8
0
 10
7.02007
 20
1.6914
 30
0.0
 40
0.0104167
 41
0.0104167
  0
VERTEX
  8
0
 10
7.03792
 20
1.71789
 30
0.0
 40
0.0104167
 41
0.0104167
  0
VERTEX
  8
0
 10
7.0644
 20
1.73579
 30
0.0
 40
0.0104167
 41
0.0104167
  0
VERTEX
  8
0
 10
7.08876
 20
1.74229
 30
0.0
 40
0.0104167
 41
0.0104167
  0
VERTEX
  8
0
 10
7.0969
 20
1.74229
 30
0.0
 40
0.0104167
 41
0.0104167
  0
VERTEX
  8
0
 10
7.10499
 20
1.74229
 30
0.0
 40
0.0104167
 41
0.0104167
  0
VERTEX
  8
0
 10
7.12929
 20
1.73579
 30
0.0
 40
0.0104167
 41
0.0104167
  0
VERTEX
  8
0
 10
7.15582
 20
1.71789
 30
0.0
 40
0.0104167
 41
0.0104167
  0
VERTEX
  8
0
 10
7.17367
 20
1.6914
 30
0.0
 40
0.0104167
 41
0.0104167
  0
VERTEX
  8
0
 10
7.18024
 20
1.6671
 30
0.0
 40
0.0104167
 41
0.0104167
  0
VERTEX
  8
0
 10
7.18024
 20
1.65896
 30
0.0
 40
0.0104167
 41
0.0104167
  0
VERTEX
  8
0
 10
7.18024
 20
1.65087
 30
0.0
 40
0.0104167
 41
0.0104167
  0
VERTEX
  8
0
 10
7.17367
 20
1.62657
 30
0.0
 40
0.0104167
 41
0.0104167
  0
VERTEX
  8
0
 10
7.15582
 20
1.60004
 30
0.0
 40
0.0104167
 41
0.0104167
  0
VERTEX
  8
0
 10
7.12929
 20
1.58219
 30
0.0
 40
0.0104167
 41
0.0104167
  0
VERTEX
  8
0
 10
7.10499
 20
1.57563
 30
0.0
 40
0.0104167
 41
0.0104167
  0
VERTEX
  8
0
 10
7.0969
 20
1.57563
 30
0.0
 40
0.0104167
 41
0.0104167
  0
VERTEX
  8
0
 10
7.08876
 20
1.57563
 30
0.0
 40
0.0104167
 41
0.0104167
  0
VERTEX
  8
0
 10
7.0644
 20
1.58219
 30
0.0
 40
0.0104167
 41
0.0104167
  0
VERTEX
  8
0
 10
7.03792
 20
1.60004
 30
0.0
 40
0.0104167
 41
0.0104167
  0
VERTEX
  8
0
 10
7.02007
 20
1.62657
 30
0.0
 40
0.0104167
 41
0.0104167
  0
VERTEX
  8
0
 10
7.01357
 20
1.65087
 30
0.0
 40
0.0104167
 41
0.0104167
  0
VERTEX
  8
0
 10
7.01357
 20
1.65896
 30
0.0
 40
0.0104167
 41
0.0104167
  0
SEQEND
 8
0
  0
POLYLINE
  8
0
 62
     7
 66
     1
 10
0
 20
0
 30
0.0
 70
     1
 40
0
 41
0
  0
VERTEX
  8
0
 10
6.69738
 20
1.65896
 30
0.0
 40
0
 41
0
  0
VERTEX
  8
0
 10
6.69738
 20
1.6671
 30
0.0
 40
0
 41
0
  0
VERTEX
  8
0
 10
6.70389
 20
1.6914
 30
0.0
 40
0
 41
0
  0
VERTEX
  8
0
 10
6.72174
 20
1.71789
 30
0.0
 40
0
 41
0
  0
VERTEX
  8
0
 10
6.74821
 20
1.73579
 30
0.0
 40
0
 41
0
  0
VERTEX
  8
0
 10
6.77257
 20
1.74229
 30
0.0
 40
0
 41
0
  0
VERTEX
  8
0
 10
6.78071
 20
1.74229
 30
0.0
 40
0
 41
0
  0
VERTEX
  8
0
 10
6.78879
 20
1.74229
 30
0.0
 40
0
 41
0
  0
VERTEX
  8
0
 10
6.8131
 20
1.73579
 30
0.0
 40
0
 41
0
  0
VERTEX
  8
0
 10
6.83963
 20
1.71789
 30
0.0
 40
0
 41
0
  0
VERTEX
  8
0
 10
6.85747
 20
1.6914
 30
0.0
 40
0
 41
0
  0
VERTEX
  8
0
 10
6.86404
 20
1.6671
 30
0.0
 40
0
 41
0
  0
VERTEX
  8
0
 10
6.86404
 20
1.65896
 30
0.0
 40
0
 41
0
  0
VERTEX
  8
0
 10
6.86404
 20
1.65087
 30
0.0
 40
0
 41
0
  0
VERTEX
  8
0
 10
6.85747
 20
1.62657
 30
0.0
 40
0
 41
0
  0
VERTEX
  8
0
 10
6.83963
 20
1.60004
 30
0.0
 40
0
 41
0
  0
VERTEX
  8
0
 10
6.8131
 20
1.58219
 30
0.0
 40
0
 41
0
  0
VERTEX
  8
0
 10
6.78879
 20
1.57563
 30
0.0
 40
0
 41
0
  0
VERTEX
  8
0
 10
6.78071
 20
1.57563
 30
0.0
 40
0
 41
0
  0
VERTEX
  8
0
 10
6.77257
 20
1.57563
 30
0.0
 40
0
 41
0
  0
VERTEX
  8
0
 10
6.74821
 20
1.58219
 30
0.0
 40
0
 41
0
  0
VERTEX
  8
0
 10
6.72174
 20
1.60004
 30
0.0
 40
0
 41
0
  0
VERTEX
  8
0
 10
6.70389
 20
1.62657
 30
0.0
 40
0
 41
0
  0
VERTEX
  8
0
 10
6.69738
 20
1.65087
 30
0.0
 40
0
 41
0
  0
VERTEX
  8
0
 10
6.69738
 20
1.65896
 30
0.0
 40
0
 41
0
  0
SEQEND
 8
0
  0
POLYLINE
  8
0
 62
     0
 66
     1
 10
0
 20
0
 30
0.0
 70
     1
 40
0.75
 41
0.75
  0
VERTEX
  8
0
 10
6.69738
 20
1.65896
 30
0.0
 40
0.0104167
 41
0.0104167
  0
VERTEX
  8
0
 10
6.69738
 20
1.6671
 30
0.0
 40
0.0104167
 41
0.0104167
  0
VERTEX
  8
0
 10
6.70389
 20
1.6914
 30
0.0
 40
0.0104167
 41
0.0104167
  0
VERTEX
  8
0
 10
6.72174
 20
1.71789
 30
0.0
 40
0.0104167
 41
0.0104167
  0
VERTEX
  8
0
 10
6.74821
 20
1.73579
 30
0.0
 40
0.0104167
 41
0.0104167
  0
VERTEX
  8
0
 10
6.77257
 20
1.74229
 30
0.0
 40
0.0104167
 41
0.0104167
  0
VERTEX
  8
0
 10
6.78071
 20
1.74229
 30
0.0
 40
0.0104167
 41
0.0104167
  0
VERTEX
  8
0
 10
6.78879
 20
1.74229
 30
0.0
 40
0.0104167
 41
0.0104167
  0
VERTEX
  8
0
 10
6.8131
 20
1.73579
 30
0.0
 40
0.0104167
 41
0.0104167
  0
VERTEX
  8
0
 10
6.83963
 20
1.71789
 30
0.0
 40
0.0104167
 41
0.0104167
  0
VERTEX
  8
0
 10
6.85747
 20
1.6914
 30
0.0
 40
0.0104167
 41
0.0104167
  0
VERTEX
  8
0
 10
6.86404
 20
1.6671
 30
0.0
 40
0.0104167
 41
0.0104167
  0
VERTEX
  8
0
 10
6.86404
 20
1.65896
 30
0.0
 40
0.0104167
 41
0.0104167
  0
VERTEX
  8
0
 10
6.86404
 20
1.65087
 30
0.0
 40
0.0104167
 41
0.0104167
  0
VERTEX
  8
0
 10
6.85747
 20
1.62657
 30
0.0
 40
0.0104167
 41
0.0104167
  0
VERTEX
  8
0
 10
6.83963
 20
1.60004
 30
0.0
 40
0.0104167
 41
0.0104167
  0
VERTEX
  8
0
 10
6.8131
 20
1.58219
 30
0.0
 40
0.0104167
 41
0.0104167
  0
VERTEX
  8
0
 10
6.78879
 20
1.57563
 30
0.0
 40
0.0104167
 41
0.0104167
  0
VERTEX
  8
0
 10
6.78071
 20
1.57563
 30
0.0
 40
0.0104167
 41
0.0104167
  0
VERTEX
  8
0
 10
6.77257
 20
1.57563
 30
0.0
 40
0.0104167
 41
0.0104167
  0
VERTEX
  8
0
 10
6.74821
 20
1.58219
 30
0.0
 40
0.0104167
 41
0.0104167
  0
VERTEX
  8
0
 10
6.72174
 20
1.60004
 30
0.0
 40
0.0104167
 41
0.0104167
  0
VERTEX
  8
0
 10
6.70389
 20
1.62657
 30
0.0
 40
0.0104167
 41
0.0104167
  0
VERTEX
  8
0
 10
6.69738
 20
1.65087
 30
0.0
 40
0.0104167
 41
0.0104167
  0
VERTEX
  8
0
 10
6.69738
 20
1.65896
 30
0.0
 40
0.0104167
 41
0.0104167
  0
SEQEND
 8
0
  0
POLYLINE
  8
0
 62
     7
 66
     1
 10
0
 20
0
 30
0.0
 70
     1
 40
0
 41
0
  0
VERTEX
  8
0
 10
5.52626
 20
2.52111
 30
0.0
 40
0
 41
0
  0
VERTEX
  8
0
 10
6.17632
 20
2.52111
 30
0.0
 40
0
 41
0
  0
VERTEX
  8
0
 10
6.17632
 20
1.89611
 30
0.0
 40
0
 41
0
  0
VERTEX
  8
0
 10
5.52626
 20
1.89611
 30
0.0
 40
0
 41
0
  0
VERTEX
  8
0
 10
5.52626
 20
2.52111
 30
0.0
 40
0
 41
0
  0
SEQEND
 8
0
  0
POLYLINE
  8
0
 62
     0
 66
     1
 10
0
 20
0
 30
0.0
 70
     1
 40
0.75
 41
0.75
  0
VERTEX
  8
0
 10
5.52626
 20
2.52111
 30
0.0
 40
0.0104167
 41
0.0104167
  0
VERTEX
  8
0
 10
5.52626
 20
1.89611
 30
0.0
 40
0.0104167
 41
0.0104167
  0
VERTEX
  8
0
 10
6.17632
 20
1.89611
 30
0.0
 40
0.0104167
 41
0.0104167
  0
VERTEX
  8
0
 10
6.17632
 20
2.52111
 30
0.0
 40
0.0104167
 41
0.0104167
  0
VERTEX
  8
0
 10
5.52626
 20
2.52111
 30
0.0
 40
0.0104167
 41
0.0104167
  0
SEQEND
 8
0
  0
POLYLINE
  8
0
 62
     0
 66
     1
 10
0
 20
0
 30
0.0
 40
0.75
 41
0.75
  0
VERTEX
  8
0
 10
5.52626
 20
1.89611
 30
0.0
 40
0.0104167
 41
0.0104167
  0
VERTEX
  8
0
 10
5.95747
 20
2.20964
 30
0.0
 40
0.0104167
 41
0.0104167
  0
VERTEX
  8
0
 10
5.73643
 20
2.20964
 30
0.0
 40
0.0104167
 41
0.0104167
  0
VERTEX
  8
0
 10
6.17632
 20
2.52007
 30
0.0
 40
0.0104167
 41
0.0104167
  0
SEQEND
 8
0
  0
POLYLINE
  8
0
 62
     7
 66
     1
 10
0
 20
0
 30
0.0
 70
     1
 40
0
 41
0
  0
VERTEX
  8
0
 10
5.60997
 20
3.12185
 30
0.0
 40
0
 41
0
  0
VERTEX
  8
0
 10
6.02539
 20
3.12185
 30
0.0
 40
0
 41
0
  0
VERTEX
  8
0
 10
6.02539
 20
2.58708
 30
0.0
 40
0
 41
0
  0
VERTEX
  8
0
 10
5.60997
 20
2.58708
 30
0.0
 40
0
 41
0
  0
VERTEX
  8
0
 10
5.60997
 20
3.12185
 30
0.0
 40
0
 41
0
  0
SEQEND
 8
0
  0
POLYLINE
  8
0
 62
     0
 66
     1
 10
0
 20
0
 30
0.0
 70
     1
 40
0.75
 41
0.75
  0
VERTEX
  8
0
 10
5.60997
 20
3.12185
 30
0.0
 40
0.0104167
 41
0.0104167
  0
VERTEX
  8
0
 10
5.60997
 20
2.58708
 30
0.0
 40
0.0104167
 41
0.0104167
  0
VERTEX
  8
0
 10
6.02539
 20
2.58708
 30
0.0
 40
0.0104167
 41
0.0104167
  0
VERTEX
  8
0
 10
6.02539
 20
3.12185
 30
0.0
 40
0.0104167
 41
0.0104167
  0
VERTEX
  8
0
 10
5.60997
 20
3.12185
 30
0.0
 40
0.0104167
 41
0.0104167
  0
SEQEND
 8
0
  0
POLYLINE
  8
0
 62
     7
 66
     1
 10
0
 20
0
 30
0.0
 70
     1
 40
0
 41
0
  0
VERTEX
  8
0
 10
5.81293
 20
2.89094
 30
0.0
 40
0
 41
0
  0
VERTEX
  8
0
 10
5.81933
 20
2.89094
 30
0.0
 40
0
 41
0
  0
VERTEX
  8
0
 10
5.83871
 20
2.88032
 30
0.0
 40
0
 41
0
  0
VERTEX
  8
0
 10
5.84939
 20
2.86094
 30
0.0
 40
0
 41
0
  0
VERTEX
  8
0
 10
5.84939
 20
2.85449
 30
0.0
 40
0
 41
0
  0
VERTEX
  8
0
 10
5.84939
 20
2.8481
 30
0.0
 40
0
 41
0
  0
VERTEX
  8
0
 10
5.83871
 20
2.82872
 30
0.0
 40
0
 41
0
  0
VERTEX
  8
0
 10
5.81933
 20
2.81803
 30
0.0
 40
0
 41
0
  0
VERTEX
  8
0
 10
5.81293
 20
2.81803
 30
0.0
 40
0
 41
0
  0
VERTEX
  8
0
 10
5.80647
 20
2.81803
 30
0.0
 40
0
 41
0
  0
VERTEX
  8
0
 10
5.78711
 20
2.82872
 30
0.0
 40
0
 41
0
  0
VERTEX
  8
0
 10
5.77647
 20
2.8481
 30
0.0
 40
0
 41
0
  0
VERTEX
  8
0
 10
5.77647
 20
2.85449
 30
0.0
 40
0
 41
0
  0
VERTEX
  8
0
 10
5.77647
 20
2.86094
 30
0.0
 40
0
 41
0
  0
VERTEX
  8
0
 10
5.78711
 20
2.88032
 30
0.0
 40
0
 41
0
  0
VERTEX
  8
0
 10
5.80647
 20
2.89094
 30
0.0
 40
0
 41
0
  0
VERTEX
  8
0
 10
5.81293
 20
2.89094
 30
0.0
 40
0
 41
0
  0
SEQEND
 8
0
  0
POLYLINE
  8
0
 62
     0
 66
     1
 10
0
 20
0
 30
0.0
 70
     1
 40
0.6
 41
0.6
  0
VERTEX
  8
0
 10
5.81293
 20
2.89094
 30
0.0
 40
0.00833333
 41
0.00833333
  0
VERTEX
  8
0
 10
5.81933
 20
2.89094
 30
0.0
 40
0.00833333
 41
0.00833333
  0
VERTEX
  8
0
 10
5.83871
 20
2.88032
 30
0.0
 40
0.00833333
 41
0.00833333
  0
VERTEX
  8
0
 10
5.84939
 20
2.86094
 30
0.0
 40
0.00833333
 41
0.00833333
  0
VERTEX
  8
0
 10
5.84939
 20
2.85449
 30
0.0
 40
0.00833333
 41
0.00833333
  0
VERTEX
  8
0
 10
5.84939
 20
2.8481
 30
0.0
 40
0.00833333
 41
0.00833333
  0
VERTEX
  8
0
 10
5.83871
 20
2.82872
 30
0.0
 40
0.00833333
 41
0.00833333
  0
VERTEX
  8
0
 10
5.81933
 20
2.81803
 30
0.0
 40
0.00833333
 41
0.00833333
  0
VERTEX
  8
0
 10
5.81293
 20
2.81803
 30
0.0
 40
0.00833333
 41
0.00833333
  0
VERTEX
  8
0
 10
5.80647
 20
2.81803
 30
0.0
 40
0.00833333
 41
0.00833333
  0
VERTEX
  8
0
 10
5.78711
 20
2.82872
 30
0.0
 40
0.00833333
 41
0.00833333
  0
VERTEX
  8
0
 10
5.77647
 20
2.8481
 30
0.0
 40
0.00833333
 41
0.00833333
  0
VERTEX
  8
0
 10
5.77647
 20
2.85449
 30
0.0
 40
0.00833333
 41
0.00833333
  0
VERTEX
  8
0
 10
5.77647
 20
2.86094
 30
0.0
 40
0.00833333
 41
0.00833333
  0
VERTEX
  8
0
 10
5.78711
 20
2.88032
 30
0.0
 40
0.00833333
 41
0.00833333
  0
VERTEX
  8
0
 10
5.80647
 20
2.89094
 30
0.0
 40
0.00833333
 41
0.00833333
  0
VERTEX
  8
0
 10
5.81293
 20
2.89094
 30
0.0
 40
0.00833333
 41
0.00833333
  0
SEQEND
 8
0
  0
POLYLINE
  8
0
 62
     7
 66
     1
 10
0
 20
0
 30
0.0
 70
     1
 40
0
 41
0
  0
VERTEX
  8
0
 10
5.81293
 20
2.87532
 30
0.0
 40
0
 41
0
  0
VERTEX
  8
0
 10
5.81657
 20
2.87532
 30
0.0
 40
0
 41
0
  0
VERTEX
  8
0
 10
5.82764
 20
2.86925
 30
0.0
 40
0
 41
0
  0
VERTEX
  8
0
 10
5.83376
 20
2.85818
 30
0.0
 40
0
 41
0
  0
VERTEX
  8
0
 10
5.83376
 20
2.85449
 30
0.0
 40
0
 41
0
  0
VERTEX
  8
0
 10
5.83376
 20
2.85086
 30
0.0
 40
0
 41
0
  0
VERTEX
  8
0
 10
5.82764
 20
2.83979
 30
0.0
 40
0
 41
0
  0
VERTEX
  8
0
 10
5.81657
 20
2.83365
 30
0.0
 40
0
 41
0
  0
VERTEX
  8
0
 10
5.81293
 20
2.83365
 30
0.0
 40
0
 41
0
  0
VERTEX
  8
0
 10
5.80925
 20
2.83365
 30
0.0
 40
0
 41
0
  0
VERTEX
  8
0
 10
5.79818
 20
2.83979
 30
0.0
 40
0
 41
0
  0
VERTEX
  8
0
 10
5.7921
 20
2.85086
 30
0.0
 40
0
 41
0
  0
VERTEX
  8
0
 10
5.7921
 20
2.85449
 30
0.0
 40
0
 41
0
  0
VERTEX
  8
0
 10
5.7921
 20
2.85818
 30
0.0
 40
0
 41
0
  0
VERTEX
  8
0
 10
5.79818
 20
2.86925
 30
0.0
 40
0
 41
0
  0
VERTEX
  8
0
 10
5.80925
 20
2.87532
 30
0.0
 40
0
 41
0
  0
VERTEX
  8
0
 10
5.81293
 20
2.87532
 30
0.0
 40
0
 41
0
  0
SEQEND
 8
0
  0
POLYLINE
  8
0
 62
     0
 66
     1
 10
0
 20
0
 30
0.0
 70
     1
 40
0.6
 41
0.6
  0
VERTEX
  8
0
 10
5.81293
 20
2.87532
 30
0.0
 40
0.00833333
 41
0.00833333
  0
VERTEX
  8
0
 10
5.81657
 20
2.87532
 30
0.0
 40
0.00833333
 41
0.00833333
  0
VERTEX
  8
0
 10
5.82764
 20
2.86925
 30
0.0
 40
0.00833333
 41
0.00833333
  0
VERTEX
  8
0
 10
5.83376
 20
2.85818
 30
0.0
 40
0.00833333
 41
0.00833333
  0
VERTEX
  8
0
 10
5.83376
 20
2.85449
 30
0.0
 40
0.00833333
 41
0.00833333
  0
VERTEX
  8
0
 10
5.83376
 20
2.85086
 30
0.0
 40
0.00833333
 41
0.00833333
  0
VERTEX
  8
0
 10
5.82764
 20
2.83979
 30
0.0
 40
0.00833333
 41
0.00833333
  0
VERTEX
  8
0
 10
5.81657
 20
2.83365
 30
0.0
 40
0.00833333
 41
0.00833333
  0
VERTEX
  8
0
 10
5.81293
 20
2.83365
 30
0.0
 40
0.00833333
 41
0.00833333
  0
VERTEX
  8
0
 10
5.80925
 20
2.83365
 30
0.0
 40
0.00833333
 41
0.00833333
  0
VERTEX
  8
0
 10
5.79818
 20
2.83979
 30
0.0
 40
0.00833333
 41
0.00833333
  0
VERTEX
  8
0
 10
5.7921
 20
2.85086
 30
0.0
 40
0.00833333
 41
0.00833333
  0
VERTEX
  8
0
 10
5.7921
 20
2.85449
 30
0.0
 40
0.00833333
 41
0.00833333
  0
VERTEX
  8
0
 10
5.7921
 20
2.85818
 30
0.0
 40
0.00833333
 41
0.00833333
  0
VERTEX
  8
0
 10
5.79818
 20
2.86925
 30
0.0
 40
0.00833333
 41
0.00833333
  0
VERTEX
  8
0
 10
5.80925
 20
2.87532
 30
0.0
 40
0.00833333
 41
0.00833333
  0
VERTEX
  8
0
 10
5.81293
 20
2.87532
 30
0.0
 40
0.00833333
 41
0.00833333
  0
SEQEND
 8
0
  0
POLYLINE
  8
0
 62
     7
 66
     1
 10
0
 20
0
 30
0.0
 70
     1
 40
0
 41
0
  0
VERTEX
  8
0
 10
5.5561
 20
2.88488
 30
0.0
 40
0
 41
0
  0
VERTEX
  8
0
 10
5.70193
 20
2.88488
 30
0.0
 40
0
 41
0
  0
VERTEX
  8
0
 10
5.70193
 20
2.82238
 30
0.0
 40
0
 41
0
  0
VERTEX
  8
0
 10
5.5561
 20
2.82238
 30
0.0
 40
0
 41
0
  0
VERTEX
  8
0
 10
5.5561
 20
2.88488
 30
0.0
 40
0
 41
0
  0
SEQEND
 8
0
  0
POLYLINE
  8
0
 62
     0
 66
     1
 10
0
 20
0
 30
0.0
 70
     1
 40
0.75
 41
0.75
  0
VERTEX
  8
0
 10
5.5561
 20
2.88488
 30
0.0
 40
0.0104167
 41
0.0104167
  0
VERTEX
  8
0
 10
5.5561
 20
2.82238
 30
0.0
 40
0.0104167
 41
0.0104167
  0
VERTEX
  8
0
 10
5.70193
 20
2.82238
 30
0.0
 40
0.0104167
 41
0.0104167
  0
VERTEX
  8
0
 10
5.70193
 20
2.88488
 30
0.0
 40
0.0104167
 41
0.0104167
  0
VERTEX
  8
0
 10
5.5561
 20
2.88488
 30
0.0
 40
0.0104167
 41
0.0104167
  0
SEQEND
 8
0
  0
POLYLINE
  8
0
 62
     0
 66
     1
 10
0
 20
0
 30
0.0
 70
     1
 40
0.75
 41
0.75
  0
VERTEX
  8
0
 10
5.52229
 20
3.52556
 30
0.0
 40
0.0104167
 41
0.0104167
  0
VERTEX
  8
0
 10
5.85281
 20
3.52556
 30
0.0
 40
0.0104167
 41
0.0104167
  0
VERTEX
  8
0
 10
5.85281
 20
1.50489
 30
0.0
 40
0.0104167
 41
0.0104167
  0
VERTEX
  8
0
 10
7.73438
 20
1.50489
 30
0.0
 40
0.0104167
 41
0.0104167
  0
VERTEX
  8
0
 10
7.7315
 20
1.16867
 30
0.0
 40
0.0104167
 41
0.0104167
  0
VERTEX
  8
0
 10
5.52106
 20
1.17741
 30
0.0
 40
0.0104167
 41
0.0104167
  0
VERTEX
  8
0
 10
5.52229
 20
3.52556
 30
0.0
 40
0.0104167
 41
0.0104167
  0
SEQEND
 8
0
  0
ENDSEC
  0
EOF
