<?xml version="1.0"?>
<svg xmlns="http://www.w3.org/2000/svg" xmlns:xlink="http://www.w3.org/1999/xlink" height="1234.3600845336914" version="1.1" width="1292.9495735168457" id="temp" viewBox="0 0 1292.9495735168457 1234.3600845336914"><defs/><g id="Model" class="Model v1-1"><g class="Floor"><g id="Floor-1" class="Floorplan Floor-1"><g id="c91314a1-ade6-4c3e-af09-56efba1b5b29" fill="#ffffff" stroke="#ffffff" style="fill-opacity: 1; stroke-opacity: 1; stroke-width: 0.2;" class="Space Undefined"><polygon points="812.19,789.98 713.60,789.98 713.60,771.98 248.15,771.98 248.15,394.93 812.19,394.93 "/><g transform="matrix(1,0,0,1,248.1482,394.9257)" class="Dimension"><g transform="matrix(1,0,0,1,0,0)" style="display: none;" class="Visual"><g id="mark1" fill="#000000" stroke="none" transform="matrix(1,0,0,1,282.0217,0)" style="fill-opacity: 1; pointer-events: visible;" class="DimensionMark"><polygon points="-5,5,0,0,5,5"/></g><g id="mark2" fill="#000000" stroke="none" transform="matrix(1,0,0,1,564.0434,197.5256)" style="fill-opacity: 1; pointer-events: visible;" class="DimensionMark"><polygon points="-5,-5,0,0,-5,5"/></g><g id="mark3" fill="#000000" stroke="none" transform="matrix(1,0,0,1,282.0217,377.0513)" style="fill-opacity: 1; pointer-events: visible;" class="DimensionMark"><polygon points="-5,-5,0,0,5,-5"/></g><g id="mark4" fill="#000000" stroke="none" transform="matrix(1,0,0,1,0,197.5256)" style="fill-opacity: 1; pointer-events: visible;" class="DimensionMark"><polygon points="5,5,0,0,5,-5"/></g></g><g transform="matrix(1,0,0,1,188.2666,188.2666)" class="SpaceDimensionsLabel"><g id="NameLabel" style="display: block;" class="TextLabel NameLabel"><text x="0" y="0em" fill="#000000" stroke="none" style="font-family: Verdana; font-size: 33px; fill-opacity: 1; cursor: default;">UNDEFINED</text></g><g id="DimensionMeasureLabel" transform="matrix(1,0,0,1,-40.5235,79.8906)" style="display: none;" class="TextLabel DimensionMeasureLabel"><text x="31.6953125" y="-1.2em" fill="#000000" stroke="none" style="font-family: Verdana; font-size: 33px; fill-opacity: 1; cursor: default;">18'6" x 12'4"</text><text x="0" y="0em" fill="#000000" stroke="none" style="font-family: Verdana; font-size: 33px; fill-opacity: 1; cursor: default;">5.64 m x 3.77 m</text></g></g></g></g><g id="7c2efde4-05b1-408c-b180-3ef57f55ceff" fill="#ffffff" stroke="#ffffff" style="fill-opacity: 1; stroke-opacity: 1; stroke-width: 0.2;" class="Space Undefined"><polygon points="1151.23,833.30 900.13,833.30 900.13,789.98 812.19,789.98 812.19,394.93 1151.23,394.93 "/><g transform="matrix(1,0,0,1,812.1916,394.9257)" class="Dimension"><g transform="matrix(1,0,0,1,0,0)" style="display: none;" class="Visual"><g id="mark1" fill="#000000" stroke="none" transform="matrix(1,0,0,1,169.5196,0)" style="fill-opacity: 1; pointer-events: visible;" class="DimensionMark"><polygon points="-5,5,0,0,5,5"/></g><g id="mark2" fill="#000000" stroke="none" transform="matrix(1,0,0,1,339.0393,219.188)" style="fill-opacity: 1; pointer-events: visible;" class="DimensionMark"><polygon points="-5,-5,0,0,-5,5"/></g><g id="mark3" fill="#000000" stroke="none" transform="matrix(1,0,0,1,169.5196,438.376)" style="fill-opacity: 1; pointer-events: visible;" class="DimensionMark"><polygon points="-5,-5,0,0,5,-5"/></g><g id="mark4" fill="#000000" stroke="none" transform="matrix(1,0,0,1,0,219.188)" style="fill-opacity: 1; pointer-events: visible;" class="DimensionMark"><polygon points="5,5,0,0,5,-5"/></g></g><g transform="matrix(1,0,0,1,169.5197,169.5196)" class="SpaceDimensionsLabel"><g id="NameLabel" style="display: block;" class="TextLabel NameLabel"><text x="0" y="0em" fill="#000000" stroke="none" style="font-family: Verdana; font-size: 33px; fill-opacity: 1; cursor: default;">UNDEFINED</text></g><g id="DimensionMeasureLabel" transform="matrix(1,0,0,1,-40.5235,79.8906)" style="display: none;" class="TextLabel DimensionMeasureLabel"><text x="31.6953125" y="-1.2em" fill="#000000" stroke="none" style="font-family: Verdana; font-size: 33px; fill-opacity: 1; cursor: default;">11'1" x 14'5"</text><text x="0" y="0em" fill="#000000" stroke="none" style="font-family: Verdana; font-size: 33px; fill-opacity: 1; cursor: default;">3.39 m x 4.38 m</text></g></g></g></g><g id="c94d92e8-0844-4718-bcd7-f569373001ee" fill="#ffffff" stroke="#ffffff" style="fill-opacity: 1; stroke-opacity: 1; stroke-width: 0.2;" class="Space Undefined"><polygon points="900.13,833.30 1151.23,833.30 1151.23,833.35 900.21,833.35 900.21,1128.56 663.93,1128.56 663.93,789.98 900.13,789.98 "/><g transform="matrix(1,0,0,1,663.9313,789.977)" class="Dimension"><g transform="matrix(1,0,0,1,0,0)" style="display: none;" class="Visual"><g id="mark1" fill="#000000" stroke="none" transform="matrix(1,0,0,1,236.1961,0)" style="fill-opacity: 1; pointer-events: visible;" class="DimensionMark"><polygon points="-5,5,0,0,5,5"/></g><g id="mark2" fill="#000000" stroke="none" transform="matrix(1,0,0,1,487.2995,43.3716)" style="fill-opacity: 1; pointer-events: visible;" class="DimensionMark"><polygon points="-5,-5,0,0,-5,5"/></g><g id="mark3" fill="#000000" stroke="none" transform="matrix(1,0,0,1,236.1961,338.5864)" style="fill-opacity: 1; pointer-events: visible;" class="DimensionMark"><polygon points="-5,-5,0,0,5,-5"/></g><g id="mark4" fill="#000000" stroke="none" transform="matrix(1,0,0,1,0,43.3716)" style="fill-opacity: 1; pointer-events: visible;" class="DimensionMark"><polygon points="5,5,0,0,5,-5"/></g></g><g transform="matrix(1,0,0,1,118.1682,169.281)" class="SpaceDimensionsLabel"><g id="NameLabel" style="display: block;" class="TextLabel NameLabel"><text x="0" y="0em" fill="#000000" stroke="none" style="font-family: Verdana; font-size: 33px; fill-opacity: 1; cursor: default;">UNDEFINED</text></g><g id="DimensionMeasureLabel" transform="matrix(1,0,0,1,-40.5235,79.3906)" style="display: none;" class="TextLabel DimensionMeasureLabel"><text x="31.6953125" y="-1.2em" fill="#000000" stroke="none" style="font-family: Verdana; font-size: 33px; fill-opacity: 1; cursor: default;">16'0" x 11'1"</text><text x="0" y="0em" fill="#000000" stroke="none" style="font-family: Verdana; font-size: 33px; fill-opacity: 1; cursor: default;">4.87 m x 3.39 m</text></g></g></g></g><g id="92ecf924-25f8-4c2f-b0a0-2613726e500a" fill="#ffffff" stroke="#000000" style="fill-opacity: 1; stroke-opacity: 1; stroke-width: 0.2;" class="Space Outdoor"><polygon points="230.15,772.81 56.76,772.81 56.76,418.80 230.15,418.80 230.15,772.81 230.15,772.81 "/><g transform="matrix(1,0,0,1,56.7607,418.8003)" class="Dimension"><g transform="matrix(1,0,0,1,0,0)" style="display: none;" class="Visual"><g id="mark1" fill="#000000" stroke="none" transform="matrix(1,0,0,1,86.6937,0)" style="fill-opacity: 1; pointer-events: visible;" class="DimensionMark"><polygon points="-5,5,0,0,5,5"/></g><g id="mark2" fill="#000000" stroke="none" transform="matrix(1,0,0,1,173.3875,177.0048)" style="fill-opacity: 1; pointer-events: visible;" class="DimensionMark"><polygon points="-5,-5,0,0,-5,5"/></g><g id="mark3" fill="#000000" stroke="none" transform="matrix(1,0,0,1,86.6937,354.0095)" style="fill-opacity: 1; pointer-events: visible;" class="DimensionMark"><polygon points="-5,-5,0,0,5,-5"/></g><g id="mark4" fill="#000000" stroke="none" transform="matrix(1,0,0,1,0,177.0048)" style="fill-opacity: 1; pointer-events: visible;" class="DimensionMark"><polygon points="5,5,0,0,5,-5"/></g></g><g transform="matrix(1,0,0,1,86.6938,177.0047)" class="SpaceDimensionsLabel"><g id="NameLabel" style="display: block;" class="TextLabel NameLabel"><text x="0" y="0em" fill="#000000" stroke="none" style="font-family: Verdana; font-size: 33px; fill-opacity: 1; cursor: default;">ULKOTILA</text></g><g id="DimensionMeasureLabel" transform="matrix(1,0,0,1,-56.7422,79.875)" style="display: none;" class="TextLabel DimensionMeasureLabel"><text x="42.1796875" y="-1.2em" fill="#000000" stroke="none" style="font-family: Verdana; font-size: 33px; fill-opacity: 1; cursor: default;">5'8" x 11'7"</text><text x="0" y="0em" fill="#000000" stroke="none" style="font-family: Verdana; font-size: 33px; fill-opacity: 1; cursor: default;">1.73 m x 3.54 m</text></g></g></g></g><g id="c0ef3632-b339-433a-a535-60e80382af52" fill="#ffffff" stroke="#ffffff" style="fill-opacity: 1; stroke-opacity: 1; stroke-width: 0.2;" class="Space Undefined"><polygon points="1151.23,377.93 657.79,377.93 657.79,73.65 1151.23,73.65 "/><g transform="matrix(1,0,0,1,657.7886,73.6522)" class="Dimension"><g transform="matrix(1,0,0,1,0,0)" style="display: none;" class="Visual"><g id="mark1" fill="#000000" stroke="none" transform="matrix(1,0,0,1,246.7211,0)" style="fill-opacity: 1; pointer-events: visible;" class="DimensionMark"><polygon points="-5,5,0,0,5,5"/></g><g id="mark2" fill="#000000" stroke="none" transform="matrix(1,0,0,1,493.4423,152.1368)" style="fill-opacity: 1; pointer-events: visible;" class="DimensionMark"><polygon points="-5,-5,0,0,-5,5"/></g><g id="mark3" fill="#000000" stroke="none" transform="matrix(1,0,0,1,246.7211,304.2735)" style="fill-opacity: 1; pointer-events: visible;" class="DimensionMark"><polygon points="-5,-5,0,0,5,-5"/></g><g id="mark4" fill="#000000" stroke="none" transform="matrix(1,0,0,1,0,152.1368)" style="fill-opacity: 1; pointer-events: visible;" class="DimensionMark"><polygon points="5,5,0,0,5,-5"/></g></g><g transform="matrix(1,0,0,1,246.7212,152.1367)" class="SpaceDimensionsLabel"><g id="NameLabel" style="display: block;" class="TextLabel NameLabel"><text x="0" y="0em" fill="#000000" stroke="none" style="font-family: Verdana; font-size: 33px; fill-opacity: 1; cursor: default;">UNDEFINED</text></g><g id="DimensionMeasureLabel" transform="matrix(1,0,0,1,-40.5235,79.6562)" style="display: none;" class="TextLabel DimensionMeasureLabel"><text x="31.6875" y="-1.2em" fill="#000000" stroke="none" style="font-family: Verdana; font-size: 33px; fill-opacity: 1; cursor: default;">16'2" x 10'0"</text><text x="0" y="0em" fill="#000000" stroke="none" style="font-family: Verdana; font-size: 33px; fill-opacity: 1; cursor: default;">4.93 m x 3.04 m</text></g></g></g></g><g id="d9cb3543-7edd-4560-9380-7335ab2aa1e9" fill="#ffffff" stroke="#ffffff" style="fill-opacity: 1; stroke-opacity: 1; stroke-width: 0.2;" class="Space Undefined"><polygon points="1109.24,962.19 1068.87,962.19 1025.68,1046.14 1025.68,1128.56 910.21,1128.56 910.21,972.19 992.80,972.19 992.80,962.19 910.21,962.19 910.21,850.35 1109.24,850.35 "/><g transform="matrix(1,0,0,1,910.2061,850.3486)" class="Dimension"><g transform="matrix(1,0,0,1,0,0)" style="display: none;" class="Visual"><g id="mark1" fill="#000000" stroke="none" transform="matrix(1,0,0,1,99.5154,0)" style="fill-opacity: 1; pointer-events: visible;" class="DimensionMark"><polygon points="-5,5,0,0,5,5"/></g><g id="mark2" fill="#000000" stroke="none" transform="matrix(1,0,0,1,199.0308,111.8453)" style="fill-opacity: 1; pointer-events: visible;" class="DimensionMark"><polygon points="-5,-5,0,0,-5,5"/></g><g id="mark3" fill="#000000" stroke="none" transform="matrix(1,0,0,1,99.5154,278.2149)" style="fill-opacity: 1; pointer-events: visible;" class="DimensionMark"><polygon points="-5,-5,0,0,5,-5"/></g><g id="mark4" fill="#000000" stroke="none" transform="matrix(1,0,0,1,0,111.8453)" style="fill-opacity: 1; pointer-events: visible;" class="DimensionMark"><polygon points="5,5,0,0,5,-5"/></g></g><g transform="matrix(1,0,0,1,120.8956,62.5859)" class="SpaceDimensionsLabel"><g id="NameLabel" style="display: block;" class="TextLabel NameLabel"><text x="0" y="0em" fill="#000000" stroke="none" style="font-family: Verdana; font-size: 33px; fill-opacity: 1; cursor: default;">UNDEFINED</text></g><g id="DimensionMeasureLabel" transform="matrix(1,0,0,1,-40.5235,79.6562)" style="display: none;" class="TextLabel DimensionMeasureLabel"><text x="52.671875" y="-1.2em" fill="#000000" stroke="none" style="font-family: Verdana; font-size: 33px; fill-opacity: 1; cursor: default;">6'6" x 9'2"</text><text x="0" y="0em" fill="#000000" stroke="none" style="font-family: Verdana; font-size: 33px; fill-opacity: 1; cursor: default;">1.99 m x 2.78 m</text></g></g></g></g><g id="f0da669e-9dff-4c71-8617-a48a1e8112db" fill="#ffffff" stroke="#ffffff" style="fill-opacity: 1; stroke-opacity: 1; stroke-width: 0.2;" class="Space Undefined"><polygon points="1151.23,1128.56 1037.68,1128.56 1037.68,1049.04 1077.22,972.19 1151.23,972.19 "/><g transform="matrix(1,0,0,1,1037.6806,972.1939)" class="Dimension"><g transform="matrix(1,0,0,1,0,0)" style="display: none;" class="Visual"><g id="mark1" fill="#000000" stroke="none" transform="matrix(1,0,0,1,56.7751,0)" style="fill-opacity: 1; pointer-events: visible;" class="DimensionMark"><polygon points="-5,5,0,0,5,5"/></g><g id="mark2" fill="#000000" stroke="none" transform="matrix(1,0,0,1,113.5503,78.1848)" style="fill-opacity: 1; pointer-events: visible;" class="DimensionMark"><polygon points="-5,-5,0,0,-5,5"/></g><g id="mark3" fill="#000000" stroke="none" transform="matrix(1,0,0,1,56.7751,156.3695)" style="fill-opacity: 1; pointer-events: visible;" class="DimensionMark"><polygon points="-5,-5,0,0,5,-5"/></g><g id="mark4" fill="#000000" stroke="none" transform="matrix(1,0,0,1,0,78.1848)" style="fill-opacity: 1; pointer-events: visible;" class="DimensionMark"><polygon points="5,5,0,0,5,-5"/></g></g><g transform="matrix(1,0,0,1,56.3316,92.7031)" class="SpaceDimensionsLabel"><g id="NameLabel" style="display: block;" class="TextLabel NameLabel"><text x="0" y="0em" fill="#000000" stroke="none" style="font-family: Verdana; font-size: 33px; fill-opacity: 1; cursor: default;">UNDEFINED</text></g><g id="DimensionMeasureLabel" transform="matrix(1,0,0,1,-40.5235,79.6562)" style="display: none;" class="TextLabel DimensionMeasureLabel"><text x="52.671875" y="-1.2em" fill="#000000" stroke="none" style="font-family: Verdana; font-size: 33px; fill-opacity: 1; cursor: default;">3'9" x 5'2"</text><text x="0" y="0em" fill="#000000" stroke="none" style="font-family: Verdana; font-size: 33px; fill-opacity: 1; cursor: default;">1.14 m x 1.56 m</text></g></g></g></g><g id="Wall" fill="#000000" stroke="#000000" style="fill-opacity: 1; stroke-opacity: 1; stroke-width: 0.2;" class="Wall External"><polygon points="248.15,394.93 657.79,394.93 640.79,377.93 230.15,377.93 "/></g><g id="Wall" fill="#000000" stroke="#000000" style="fill-opacity: 1; stroke-opacity: 1; stroke-width: 0.2;" class="Wall External"><polygon points="657.79,394.93 657.79,73.65 640.79,56.65 640.79,377.93 "/></g><g id="Wall" fill="#000000" stroke="#000000" style="fill-opacity: 1; stroke-opacity: 1; stroke-width: 0.2;" class="Wall External"><polygon points="657.79,73.65 1151.23,73.65 1181.23,56.65 640.79,56.65 "/></g><g id="Wall" fill="#000000" stroke="#000000" style="fill-opacity: 1; stroke-opacity: 1; stroke-width: 0.2;" class="Wall External"><polygon points="1151.23,73.65 1151.23,1128.56 1181.23,1146.56 1181.23,56.65 "/><g id="Window" fill="#f0f0ff" stroke="#000000" style="fill-opacity: 1; stroke-width: 1; stroke-opacity: 1;" class="Window Regular"><polygon points="1151.23,75.79 1151.23,139.61 1181.23,139.61 1181.23,75.79 "/><g id="Glass" class="Glass"><polygon points="1151.23,75.79 1151.23,139.61 1181.23,139.61 1181.23,75.79 "/></g><g id="Panel" class="Panel"><line x1="1166.23085429098" x2="1166.23085429098" y1="83.28794792639533" y2="132.11326794940123"/><line x1="1151.23085429098" x2="1181.23085429098" y1="83.28794792639533" y2="83.28794792639533"/><line x1="1151.23085429098" x2="1181.23085429098" y1="132.11326794940123" y2="132.11326794940123"/></g></g><g id="Window" fill="#f0f0ff" stroke="#000000" style="fill-opacity: 1; stroke-width: 1; stroke-opacity: 1;" class="Window Regular"><polygon points="1151.23,139.61 1151.23,311.77 1181.23,311.77 1181.23,139.61 "/><g id="Glass" class="Glass"><polygon points="1151.23,139.61 1151.23,311.77 1181.23,311.77 1181.23,139.61 "/></g><g id="Panel" class="Panel"><line x1="1166.23085429098" x2="1166.23085429098" y1="147.11326794940123" y2="304.27367842054707"/><line x1="1151.23085429098" x2="1181.23085429098" y1="147.11326794940123" y2="147.11326794940123"/><line x1="1151.23085429098" x2="1181.23085429098" y1="304.27367842054707" y2="304.27367842054707"/></g></g><g id="Window" fill="#f0f0ff" stroke="#000000" style="fill-opacity: 1; stroke-width: 1; stroke-opacity: 1;" class="Window Regular"><polygon points="1151.23,311.77 1151.23,378.12 1181.23,378.12 1181.23,311.77 "/><g id="Glass" class="Glass"><polygon points="1151.23,311.77 1151.23,378.12 1181.23,378.12 1181.23,311.77 "/></g><g id="Panel" class="Panel"><line x1="1166.23085429098" x2="1166.23085429098" y1="319.27367842054707" y2="370.6184199844188"/><line x1="1151.23085429098" x2="1181.23085429098" y1="319.27367842054707" y2="319.27367842054707"/><line x1="1151.23085429098" x2="1181.23085429098" y1="370.6184199844188" y2="370.6184199844188"/></g></g><g id="Window" fill="#f0f0ff" stroke="#000000" style="fill-opacity: 1; stroke-width: 1; stroke-opacity: 1;" class="Window Regular"><polygon points="1151.23,395.75 1151.23,531.38 1181.23,531.38 1181.23,395.75 "/><g id="Glass" class="Glass"><polygon points="1151.23,395.75 1151.23,531.38 1181.23,531.38 1181.23,395.75 "/></g><g id="Panel" class="Panel"><line x1="1166.23085429098" x2="1166.23085429098" y1="403.2543654207028" y2="523.8831704695904"/><line x1="1151.23085429098" x2="1181.23085429098" y1="403.2543654207028" y2="403.2543654207028"/><line x1="1151.23085429098" x2="1181.23085429098" y1="523.8831704695904" y2="523.8831704695904"/></g></g><g id="Window" fill="#f0f0ff" stroke="#000000" style="fill-opacity: 1; stroke-width: 1; stroke-opacity: 1;" class="Window Regular"><polygon points="1151.23,531.38 1151.23,598.15 1181.23,598.15 1181.23,531.38 "/><g id="Glass" class="Glass"><polygon points="1151.23,531.38 1151.23,598.15 1181.23,598.15 1181.23,531.38 "/></g><g id="Panel" class="Panel"><line x1="1166.23085429098" x2="1166.23085429098" y1="538.8831704695904" y2="590.6478179512284"/><line x1="1151.23085429098" x2="1181.23085429098" y1="538.8831704695904" y2="538.8831704695904"/><line x1="1151.23085429098" x2="1181.23085429098" y1="590.6478179512284" y2="590.6478179512284"/></g></g><g id="Window" fill="#f0f0ff" stroke="#000000" style="fill-opacity: 1; stroke-width: 1; stroke-opacity: 1;" class="Window Regular"><polygon points="1151.23,665.33 1151.23,773.25 1181.23,773.25 1181.23,665.33 "/><g id="Glass" class="Glass"><polygon points="1151.23,665.33 1151.23,773.25 1181.23,773.25 1181.23,665.33 "/></g><g id="Panel" class="Panel"><line x1="1166.23085429098" x2="1166.23085429098" y1="672.8323667829875" y2="765.747546032412"/><line x1="1151.23085429098" x2="1181.23085429098" y1="672.8323667829875" y2="672.8323667829875"/><line x1="1151.23085429098" x2="1181.23085429098" y1="765.747546032412" y2="765.747546032412"/></g></g><g id="Window" fill="#f0f0ff" stroke="#000000" style="fill-opacity: 1; stroke-width: 1; stroke-opacity: 1;" class="Window Regular"><polygon points="1151.23,973.12 1151.23,1104.55 1181.23,1104.55 1181.23,973.12 "/><g id="Glass" class="Glass"><polygon points="1151.23,973.12 1151.23,1104.55 1181.23,1104.55 1181.23,973.12 "/></g><g id="Panel" class="Panel"><line x1="1166.23085429098" x2="1166.23085429098" y1="980.6215783923653" y2="1097.051349229213"/><line x1="1151.23085429098" x2="1181.23085429098" y1="980.6215783923653" y2="980.6215783923653"/><line x1="1151.23085429098" x2="1181.23085429098" y1="1097.051349229213" y2="1097.051349229213"/></g></g></g><g id="Wall" fill="#000000" stroke="#000000" style="fill-opacity: 1; stroke-opacity: 1; stroke-width: 0.2;" class="Wall External"><polygon points="1181.23,1146.56 645.93,1146.56 663.93,1128.56 1151.23,1128.56 "/><g id="Door" fill="#ffffff" stroke="#000000" style="fill-opacity: 1; stroke-width: 1; stroke-opacity: 1;" class="Door Swing Beside"><polygon points="869.93,1146.56 782.13,1146.56 782.13,1128.56 869.93,1128.56 "/><g id="Threshold" class="Threshold"><polygon points="869.93,1146.56 782.13,1146.56 782.13,1128.56 869.93,1128.56 "/></g><g id="Panel" fill="none" style="" class="Panel Left Negative"><g id="PanelArea" fill="none" stroke="none" style="" class="PanelArea"><polygon points="869.93,1146.56 782.13,1146.56 782.13,1128.56 869.93,1128.56 "/></g><path d="M869.93,1146.56 q0.00,87.80 -87.80,87.80 l0.00,-87.80Z"/></g></g></g><g id="Wall" fill="#000000" stroke="#000000" style="fill-opacity: 1; stroke-opacity: 1; stroke-width: 0.2;" class="Wall External"><polygon points="645.93,1146.56 645.93,789.98 663.93,771.98 663.93,1128.56 "/></g><g id="Wall" fill="#000000" stroke="#000000" style="fill-opacity: 1; stroke-opacity: 1; stroke-width: 0.2;" class="Wall External"><polygon points="663.93,771.98 248.15,771.98 230.15,789.98 645.93,789.98 "/></g><g id="Wall" fill="#000000" stroke="#000000" style="fill-opacity: 1; stroke-opacity: 1; stroke-width: 0.2;" class="Wall External"><polygon points="230.15,789.98 230.15,377.93 248.15,394.93 248.15,771.98 "/><g id="Window" fill="#f0f0ff" stroke="#000000" style="fill-opacity: 1; stroke-width: 1; stroke-opacity: 1;" class="Window Regular"><polygon points="230.15,771.25 230.15,706.46 248.15,706.46 248.15,771.25 "/><g id="Glass" class="Glass"><polygon points="230.15,771.25 230.15,706.46 248.15,706.46 248.15,771.25 "/></g><g id="Panel" class="Panel"><line x1="239.14818941351606" x2="239.14818941351606" y1="763.7451830133616" y2="713.9609248766461"/><line x1="230.14818941351606" x2="248.14818941351606" y1="763.7451830133616" y2="763.7451830133616"/><line x1="230.14818941351606" x2="248.14818941351606" y1="713.9609248766461" y2="713.9609248766461"/></g></g><g id="Window" fill="#f0f0ff" stroke="#000000" style="fill-opacity: 1; stroke-width: 1; stroke-opacity: 1;" class="Window Regular"><polygon points="230.15,706.46 230.15,509.36 248.15,509.36 248.15,706.46 "/><g id="Glass" class="Glass"><polygon points="230.15,706.46 230.15,509.36 248.15,509.36 248.15,706.46 "/></g><g id="Panel" class="Panel"><line x1="239.14818941351606" x2="239.14818941351604" y1="698.9609248766461" y2="516.8578722012855"/><line x1="230.14818941351606" x2="248.14818941351606" y1="698.9609248766461" y2="698.9609248766461"/><line x1="230.14818941351604" x2="248.14818941351604" y1="516.8578722012855" y2="516.8578722012855"/></g></g><g id="Door" fill="#ffffff" stroke="#000000" style="fill-opacity: 1; stroke-width: 1; stroke-opacity: 1;" class="Door Swing Beside"><polygon points="230.15,503.25 230.15,423.18 248.15,423.18 248.15,503.25 "/><g id="Threshold" class="Threshold"><polygon points="230.15,503.25 230.15,423.18 248.15,423.18 248.15,503.25 "/></g><g id="Panel" fill="none" style="" class="Panel Left Negative"><g id="PanelArea" fill="none" stroke="none" style="" class="PanelArea"><polygon points="230.15,503.25 230.15,423.18 248.15,423.18 248.15,503.25 "/></g><path d="M230.15,503.25 q-80.06,0.00 -80.06,-80.06 l80.06,0.00Z"/></g></g></g><g id="Wall" fill="#000000" stroke="#000000" style="fill-opacity: 1; stroke-opacity: 1; stroke-width: 0.2;" class="Wall"><polygon points="663.93,771.98 713.60,771.98 713.60,789.98 663.93,789.98 "/></g><g id="Wall" fill="#000000" stroke="#000000" style="fill-opacity: 1; stroke-opacity: 1; stroke-width: 0.2;" class="Wall"><polygon points="657.79,394.93 1181.23,394.93 1181.23,377.93 657.79,377.93 "/><g id="Door" fill="#ffffff" stroke="#000000" style="fill-opacity: 1; stroke-width: 1; stroke-opacity: 1;" class="Door Swing Beside"><polygon points="724.92,394.93 796.35,394.93 796.35,377.93 724.92,377.93 "/><g id="Threshold" class="Threshold"><polygon points="724.92,394.93 796.35,394.93 796.35,377.93 724.92,377.93 "/></g><g id="Panel" fill="none" style="" class="Panel Left Positive"><g id="PanelArea" fill="none" stroke="none" style="" class="PanelArea"><polygon points="724.92,394.93 796.35,394.93 796.35,377.93 724.92,377.93 "/></g><path d="M796.35,377.93 q0.00,-71.43 -71.43,-71.43 l0.00,71.43Z"/></g></g></g><g id="Wall" fill="#000000" stroke="#000000" style="fill-opacity: 1; stroke-opacity: 1; stroke-width: 0.2;" class="Wall"><polygon points="801.15,789.98 801.15,600.02 812.19,600.02 812.19,789.98 "/></g><g id="Wall" fill="#000000" stroke="#000000" style="fill-opacity: 1; stroke-opacity: 1; stroke-width: 0.2;" class="Wall"><polygon points="1109.24,833.35 900.21,833.35 910.21,850.35 1109.24,850.35 "/></g><g id="Wall" fill="#000000" stroke="#000000" style="fill-opacity: 1; stroke-opacity: 1; stroke-width: 0.2;" class="Wall"><polygon points="900.21,833.35 900.21,1146.56 910.21,1146.56 910.21,850.35 "/><g id="Door" fill="#ffffff" stroke="#000000" style="fill-opacity: 1; stroke-width: 1; stroke-opacity: 1;" class="Door Swing Beside"><polygon points="900.21,895.05 900.21,957.76 910.21,957.76 910.21,895.05 "/><g id="Threshold" class="Threshold"><polygon points="900.21,895.05 900.21,957.76 910.21,957.76 910.21,895.05 "/></g><g id="Panel" fill="none" style="" class="Panel Left Negative"><g id="PanelArea" fill="none" stroke="none" style="" class="PanelArea"><polygon points="900.21,895.05 900.21,957.76 910.21,957.76 910.21,895.05 "/></g><path d="M900.21,895.05 q-62.72,0.00 -62.72,62.72 l62.72,0.00Z"/></g></g></g><g id="Wall" fill="#000000" stroke="#000000" style="fill-opacity: 1; stroke-opacity: 1; stroke-width: 0.2;" class="Wall"><polygon points="1181.23,962.19 1068.87,962.19 1077.22,972.19 1181.23,972.19 "/></g><g id="Wall" fill="#000000" stroke="#000000" style="fill-opacity: 1; stroke-opacity: 1; stroke-width: 0.2;" class="Wall"><polygon points="992.80,962.19 900.21,962.19 900.21,972.19 992.80,972.19 "/></g><g id="Wall" fill="#000000" stroke="#000000" style="fill-opacity: 1; stroke-opacity: 1; stroke-width: 0.2;" class="Wall"><polygon points="1109.24,833.35 1181.23,833.35 1181.23,972.17 1109.24,972.17 "/></g><g id="Wall" fill="#000000" stroke="#000000" style="fill-opacity: 1; stroke-opacity: 1; stroke-width: 0.2;" class="Wall"><polygon points="1025.68,1046.14 1025.68,1146.56 1037.68,1146.56 1037.68,1049.04 "/></g><g id="Wall" fill="#000000" stroke="#000000" style="fill-opacity: 1; stroke-opacity: 1; stroke-width: 0.2;" class="Wall"><polygon points="1025.68,1046.14 1068.87,962.19 1077.22,972.19 1037.68,1049.04 "/><g id="Door" fill="#ffffff" stroke="#000000" style="fill-opacity: 1; stroke-width: 1; stroke-opacity: 1;" class="Door Swing Beside"><polygon points="1032.48,1032.92 1061.14,977.22 1071.81,982.71 1043.15,1038.41 "/><g id="Threshold" class="Threshold"><polygon points="1032.48,1032.92 1061.14,977.22 1071.81,982.71 1043.15,1038.41 "/></g><g id="Panel" fill="none" style="" class="Panel Left Negative"><g id="PanelArea" fill="none" stroke="none" style="" class="PanelArea"><polygon points="1032.48,1032.92 1061.14,977.22 1071.81,982.71 1043.15,1038.41 "/></g><path d="M1032.48,1032.92 q-55.70,-28.66 -27.04,-84.36 l55.70,28.66Z"/></g></g></g><g id="Railing" fill="#ffffff" stroke="#000000" style="fill-opacity: 1; stroke-opacity: 1; stroke-width: 0.2;" class="Railing"><polygon points="230.15,782.06 46.76,782.06 56.76,772.81 230.15,772.81 " style="stroke-dasharray: 183.387, 13.6245, 182.641;"/></g><g id="Railing" fill="#ffffff" stroke="#000000" style="fill-opacity: 1; stroke-opacity: 1; stroke-width: 0.2;" class="Railing"><polygon points="46.76,782.06 46.76,410.36 56.76,418.80 56.76,772.81 " style="stroke-dasharray: 371.703, 13.0854, 354.01, 13.6245;"/></g><g id="Railing" fill="#ffffff" stroke="#000000" style="fill-opacity: 1; stroke-opacity: 1; stroke-width: 0.2;" class="Railing"><polygon points="56.76,418.80 230.15,418.80 230.15,410.36 46.76,410.36 " style="stroke-dasharray: 365.215, 13.0854;"/></g><g class="FixedFurniture BaseCabinet" fill="#ffffff" stroke="#000000" transform="matrix(-1,0,0,-1,1151.2308,833.3018)" style="fill-opacity: 1; stroke-opacity: 1;">
        <g class="BoundaryPolygon">
            <polygon points="0.00,0.00 251.10,0.00 251.10,60.00 0.00,60.00 "/>
        </g>
        <g class="Direction" fill-opacity="0.9" style="display: none;">
            <polygon points="133.96,55.20 133.96,44.58 130.95,44.58 130.95,55.20 127.15,55.20 132.45,60.00 137.75,55.20 133.96,55.20 " fill="#444444"/>
        </g> 
        <g class="Name" fill-opacity="0.9" style="display: none;">
            <text transform="translate(3 12)" font-size="12" font-family="Verdana, Sans-Serif">CB</text>
        </g>
        <desc>Width:60 Height:90 Depth:60 Elevation:0</desc>
    </g><g class="FixedFurniture ElectricalAppliance Refrigerator" fill="#ffffff" stroke="#000000" transform="matrix(0.9806,0,0,1.0851,1092.3949,598.4213)" style="fill-opacity: 1; stroke-opacity: 1;">
        <g class="BoundaryPolygon">
            <polygon points="0,0 60,0 60,60 0,60"/>
        </g>
        <g class="electricitySign" fill="none">
            <path d="M0,0,30,37.1v-18L60,56.3"/>
        </g>
        <g class="Doors">
            <rect y="56" width="60" height="4"/>
        </g>
        <g class="Direction" fill-opacity="0.9" style="display: none;">
            <polygon points="32.009 55.197 32.009 44.581 29 44.581 29 55.197 25.197 55.197 30.5 60 35.803 55.197 32.009 55.197" fill="#444444"/>
        </g> 
        <g class="Name" fill-opacity="0.9" style="display: none;">
            <text transform="translate(3 12)" font-size="12" font-family="Verdana, Sans-Serif">REF</text>
        </g>
        <desc>Width:60 Height:170 Depth:60 Elevation:0</desc>
    </g><g class="FixedFurniture Shower" fill="#ffffff" stroke="#000000" transform="matrix(0,-1,1,0,910.2062,1108.8596)" style="fill-opacity: 1; stroke-opacity: 1;"> 
	    <g class="BoundaryPolygon" fill="none" stroke="none">
            <polygon points="0,0 32,0 32,19 0,19"/>
        </g>
        <g class="InnerPolygon"> 
			<rect x="3.7" y="0.5" width="11.2" height="6.1"/>
			<rect x="17.6" y="0.5" width="11.2" height="6.1"/>
			<rect x="28.7" y="0.5" width="3.4" height="6.1"/>
			<rect x="0.5" y="0.5" width="3.2" height="6.1"/>
			<path d="M14.9,8.5c0,1.5-0.4,3.3-1.6,5    c-0.4,0.6-1,1.1-1.1,1.7c-0.2,1.1,0.3,2.8,2.5,3.2c0.5,0.1,1.3,0.1,1.6,0.1h-0.1c0.3,0,1.1,0,1.6-0.1c2.2-0.4,2.7-2.1,2.5-3.2    c-0.1-0.6-0.7-1.1-1.1-1.7c-1.2-1.7-1.6-3.5-1.6-5"/>
			<path d="M12.2,15.3c0.1,0.2,1.6,1.9,4.2,1.9 c2.4-0.1,3.7-1.7,3.9-1.9"/>
			<path d="M14.9,0.5h2.7v8c-0.9,0-1.8,0-2.7,0l0,0 C14.9,5.9,14.9,3.2,14.9,0.5z"/>
		</g>
	    <g class="Indicator"> 
			<path d="M3.7,3.6C5,3.1,5.2,3,5.2,3 c0,1.1,0,0,0,1.1C5.2,4.1,5.1,4.1,3.7,3.6"/>
			<path d="M28.7,3.6 C27.4,3.1,27.2,3,27.2,3c0,1.1,0,0,0,1.1C27.2,4.1,27.3,4.1,28.7,3.6"/>	
		</g>
        <desc>Width:32 Height:97 Depth:19 Elevation:135</desc>
	</g><g class="FixedFurniture ShowerScreen" fill="#ffffff" stroke="#000000" transform="matrix(0,-1,1.1859,0,910.2062,1056.0142)" style="fill-opacity: 1; stroke-opacity: 1;">
        <g class="BoundaryPolygon">
            <polygon points="0,0 2.5,0 2.5,60 0,60"/>
        </g>
	    <g class="InnerPolygon" stroke-linejoin="round"> 
			<rect width="2.5" height="60"/>
	    </g> 
        <desc>Width:2.5 Height:180 Depth:60 Elevation:135</desc>
    </g><g class="FixedFurniture Toilet" fill="#ffffff" stroke="#000000" transform="matrix(0,-1,1,0,910.2061,1037.9021)" style="fill-opacity: 1; stroke-opacity: 1;">
	   <g class="BoundaryPolygon" fill="none" stroke="none"> 
            <polygon points="0,0 41,0 41,71 0,71"/>
		</g>
        <g class="InnerPolygon">
            <rect x="0.502" y="0.5" width="39.989" height="17.98"/>
            <path d="M40.491,44.237S41.619,70.5,20.907,70.5C-.523,70.5.6,44.237.6,44.237L.5,18.48H40.491Z"/>
            <rect x="17.318" y="7.975" width="6.357" height="3.03"/>
        </g>
        <desc>Width:41 Height:85 Depth:71 Elevation:0</desc>
    </g><g class="FixedFurniture ElectricalAppliance WashingMachine" fill="#ffffff" stroke="#000000" transform="matrix(0.9303,0,0,1.0418,1053.4188,850.3485)" style="fill-opacity: 1; stroke-opacity: 1;">
	   <g class="BoundaryPolygon">
		    <polygon points="0,0 60,0 60,60 0,60"/>
		</g>	
	    <g class="electricitySign" fill="none">
            <path d="M0,0,30,41V20.8L60,60"/>
		</g>
	    <g class="Handle">
		    <path d="M2.7,59.4H57.3"/>
		</g>
        <g class="Direction" fill-opacity="0.9" style="display: none;">
            <polygon points="32.009 55.197 32.009 44.581 29 44.581 29 55.197 25.197 55.197 30.5 60 35.803 55.197 32.009 55.197" fill="#444444"/>
        </g> 
        <g class="Name" fill-opacity="0.9" style="display: none;">
            <text transform="translate(3 12)" font-size="12" font-family="Verdana, Sans-Serif">WM</text>
        </g>
        <desc>Width:60 Height:90 Depth:60 Elevation:0</desc>
    </g><g id="FixedFurnitureSet" transform="matrix(1,0,0,1,948.5251,850.3798)" class="FixedFurnitureSet" fill="#ffffff" stroke="#000000" style="fill-opacity: 0.4; stroke-opacity: 0.4;"><g class="FixedFurniture BaseCabinet" fill="#ffffff" stroke="#000000" transform="matrix(1,0,0,1,0,0)" style="fill-opacity: 1; stroke-opacity: 1;">
        <g class="BoundaryPolygon">
            <polygon points="0.00,0.00 54.42,0.00 54.42,40.22 0.00,40.22 "/>
        </g>
        <g class="Direction" fill-opacity="0.9" style="display: none;">
            <polygon points="29.03,37.00 29.03,26.38 26.03,26.38 26.03,37.00 22.22,37.00 27.53,41.80 32.83,37.00 29.03,37.00 " fill="#444444"/>
        </g> 
        <g class="Name" fill-opacity="0.9" style="display: none;">
            <text transform="translate(3 12)" font-size="12" font-family="Verdana, Sans-Serif">CB</text>
        </g>
        <desc>Width:60 Height:5 Depth:60 Elevation:105</desc>
    </g><g class="FixedFurniture Sink" fill="#ffffff" stroke="#000000" transform="matrix(1,0,0,1,0,0)" style="fill-opacity: 1; stroke-opacity: 1;">
        <g class="BoundaryPolygon" fill="none" stroke="none">
        <polygon points="0.00,0.00 54.42,0.00 54.42,40.22 0.00,40.22 "/>
        </g>
        <g class="InnerPolygon">
            <polygon points="4.54,9.70 49.89,9.70 49.89,36.66 4.54,36.66 "/>
        </g>
        <g class="OuterDrain" stroke-width="0.8">
            <circle cx="27.21205163863546" cy="21.582797450572173" r="3.5"/>
        </g>
        <g class="InnerDrain" stroke-width="0.8">
            <circle cx="27.21205163863546" cy="21.582797450572173" r="2"/>
        </g>
        <g class="Faucet">
            <polygon points="24.49,3.35 30.49,3.35 30.49,17.35 24.49,17.35 "/>
        </g>
        <g class="Direction" fill-opacity="0.9" style="display: none;">
            <polygon points="29.03,37.00 29.03,26.38 26.03,26.38 26.03,37.00 22.22,37.00 27.53,41.80 32.83,37.00 29.03,37.00 " fill="#444444"/>
        </g> 
        <g class="Name" fill-opacity="0.9" style="display: none;">
            <text transform="translate(3 12)" font-size="12" font-family="Verdana, Sans-Serif">SINK</text>
        </g>
        <desc>Width:60 Height:90 Depth:60 Elevation:0</desc>
    </g></g><g class="FixedFurniture Closet" fill="#ffffff" stroke="#000000" transform="matrix(0,-1,1,0,664.0407,1128.5635)" style="fill-opacity: 1; stroke-opacity: 1;">
        <g class="BoundaryPolygon">
            <polygon points="0.00,0.00 104.65,0.00 104.65,60.00 0.00,60.00 "/>
        </g>
        <g class="Direction" fill-opacity="0.9" style="display: none;">
            <polygon points="54.96,54.70 54.96,44.08 51.95,44.08 51.95,54.70 48.15,54.70 53.45,60.00 58.75,54.70 54.96,54.70 " fill="#444444"/>
        </g> 
        <g class="Name" fill-opacity="0.9" style="display: none;">
            <text transform="translate(3 12)" font-size="12" font-family="Verdana, Sans-Serif">CL</text>
        </g>
        <desc>Width:60 Height:200 Depth:60 Elevation:0</desc>
     </g><g class="FixedFurniture Closet" fill="#ffffff" stroke="#000000" transform="matrix(0,-1,1,0,664.0407,1023.9091)" style="fill-opacity: 1; stroke-opacity: 1;">
        <g class="BoundaryPolygon">
            <polygon points="0.00,0.00 102.71,0.00 102.71,60.00 0.00,60.00 "/>
        </g>
        <g class="Direction" fill-opacity="0.9" style="display: none;">
            <polygon points="53.94,54.70 53.94,44.08 50.93,44.08 50.93,54.70 47.13,54.70 52.43,60.00 57.73,54.70 53.94,54.70 " fill="#444444"/>
        </g> 
        <g class="Name" fill-opacity="0.9" style="display: none;">
            <text transform="translate(3 12)" font-size="12" font-family="Verdana, Sans-Serif">CL</text>
        </g>
        <desc>Width:60 Height:200 Depth:60 Elevation:0</desc>
     </g><g class="FixedFurniture ElectricalAppliance SaunaStove" fill="#ffffff" stroke="#000000" transform="matrix(0.9195,0,0,1,1096.0609,972.2133)" style="fill-opacity: 1; stroke-opacity: 1;"> 
	   <g class="BoundaryPolygon"> 
		    <polygon points="0,0 60,0 60,35 0,35"/>
		</g>
	    <g class="electricitySign" fill="none">
		    <polyline points="0 35 39.7 17.5 21.4 17.5 60 0"/>
		</g>
        <g class="Direction" fill-opacity="0.9" style="display: none;">
            <polygon points="31.509 29.697 31.509 19.081 28.5 19.081 28.5 29.697 24.697 29.697 30 35 35.303 29.697 31.509 29.697" fill="#444444"/>
        </g> 
        <g class="Name" fill-opacity="0.9" style="display: none;">
            <text transform="translate(3 12)" font-size="12" font-family="Verdana, Sans-Serif">SS</text>
        </g>
        <desc>Width:60 Height:60 Depth:35 Elevation:20</desc>
	</g><g class="FixedFurniture Closet" fill="#ffffff" stroke="#000000" transform="matrix(1,0,0,1,999.9449,598.4526)" style="fill-opacity: 1; stroke-opacity: 1;">
        <g class="BoundaryPolygon">
            <polygon points="0.00,0.00 92.45,0.00 92.45,65.01 0.00,65.01 "/>
        </g>
        <g class="Direction" fill-opacity="0.9" style="display: none;">
            <polygon points="48.55,59.27 48.55,48.65 45.54,48.65 45.54,59.27 41.74,59.27 47.04,64.57 52.34,59.27 48.55,59.27 " fill="#444444"/>
        </g> 
        <g class="Name" fill-opacity="0.9" style="display: none;">
            <text transform="translate(3 12)" font-size="12" font-family="Verdana, Sans-Serif">CL</text>
        </g>
        <desc>Width:60 Height:200 Depth:60 Elevation:0</desc>
     </g><g class="FixedFurniture BaseCabinet" fill="#ffffff" stroke="#000000" transform="matrix(1,0,0,1,902.3149,598.4839)" style="fill-opacity: 1; stroke-opacity: 1;">
        <g class="BoundaryPolygon">
            <polygon points="0.00,0.00 97.63,0.00 97.63,65.02 0.00,65.02 "/>
        </g>
        <g class="Direction" fill-opacity="0.9" style="display: none;">
            <polygon points="52.09,59.81 52.09,49.19 49.08,49.19 49.08,59.81 45.27,59.81 50.58,64.61 55.88,59.81 52.09,59.81 " fill="#444444"/>
        </g> 
        <g class="Name" fill-opacity="0.9" style="display: none;">
            <text transform="translate(3 12)" font-size="12" font-family="Verdana, Sans-Serif">CB</text>
        </g>
        <desc>Width:60 Height:90 Depth:60 Elevation:0</desc>
    </g><g class="FixedFurniture ElectricalAppliance Dishwasher" fill="#ffffff" stroke="#000000" transform="matrix(-0.9953,0,0,-1,959.8454,833.3017)" style="fill-opacity: 1; stroke-opacity: 1;"> 
        <g class="BoundaryPolygon"> 
		    <polygon points="0,0 60,0 60,60 0,60"/>
		</g>
	    <g class="electricitySign" fill="none">
            <path d="M0,0,30,38.9v-20L60,60"/>
	    </g>
	    <g class="Handle"> 
		    <path d="M10,59.6H49.8"/>
		</g>
        <g class="Direction" fill-opacity="0.9" style="display: none;">
            <polygon points="32.009 55.197 32.009 44.581 29 44.581 29 55.197 25.197 55.197 30.5 60 35.803 55.197 32.009 55.197" fill="#444444"/>
        </g> 
        <g class="Name" fill-opacity="0.9" style="display: none;">
            <text transform="translate(3 12)" font-size="12" font-family="Verdana, Sans-Serif">DW</text>
        </g>
        <desc>Width:60 Height:90 Depth:60 Elevation:0</desc>
	</g><g class="FixedFurniture Closet" fill="#ffffff" stroke="#000000" transform="matrix(0,-1,1,0,657.8512,377.9265)" style="fill-opacity: 1; stroke-opacity: 1;">
        <g class="BoundaryPolygon">
            <polygon points="0.00,0.00 98.96,0.00 98.96,63.13 0.00,63.13 "/>
        </g>
        <g class="Direction" fill-opacity="0.9" style="display: none;">
            <polygon points="51.97,57.55 51.97,46.93 48.96,46.93 48.96,57.55 45.16,57.55 50.46,62.85 55.76,57.55 51.97,57.55 " fill="#444444"/>
        </g> 
        <g class="Name" fill-opacity="0.9" style="display: none;">
            <text transform="translate(3 12)" font-size="12" font-family="Verdana, Sans-Serif">CL</text>
        </g>
        <desc>Width:60 Height:200 Depth:60 Elevation:0</desc>
     </g><g class="FixedFurniture Closet" fill="#ffffff" stroke="#000000" transform="matrix(0,-1,1,0,657.7886,278.9665)" style="fill-opacity: 1; stroke-opacity: 1;">
        <g class="BoundaryPolygon">
            <polygon points="0.00,0.00 115.07,0.00 115.07,63.13 0.00,63.13 "/>
        </g>
        <g class="Direction" fill-opacity="0.9" style="display: none;">
            <polygon points="60.43,57.55 60.43,46.93 57.42,46.93 57.42,57.55 53.62,57.55 58.92,62.85 64.22,57.55 60.43,57.55 " fill="#444444"/>
        </g> 
        <g class="Name" fill-opacity="0.9" style="display: none;">
            <text transform="translate(3 12)" font-size="12" font-family="Verdana, Sans-Serif">CL</text>
        </g>
        <desc>Width:60 Height:200 Depth:60 Elevation:0</desc>
     </g><g class="FixedFurniture Closet" fill="#ffffff" stroke="#000000" transform="matrix(0,-1,1,0,657.8824,163.8984)" style="fill-opacity: 1; stroke-opacity: 1;">
        <g class="BoundaryPolygon">
            <polygon points="0.00,0.00 90.15,0.00 90.15,63.13 0.00,63.13 "/>
        </g>
        <g class="Direction" fill-opacity="0.9" style="display: none;">
            <polygon points="47.34,57.55 47.34,46.93 44.33,46.93 44.33,57.55 40.53,57.55 45.83,62.85 51.13,57.55 47.34,57.55 " fill="#444444"/>
        </g> 
        <g class="Name" fill-opacity="0.9" style="display: none;">
            <text transform="translate(3 12)" font-size="12" font-family="Verdana, Sans-Serif">CL</text>
        </g>
        <desc>Width:60 Height:200 Depth:60 Elevation:0</desc>
     </g><g class="FixedFurniture Sink" fill="#ffffff" stroke="#000000" transform="matrix(-1,0,0,-1,1022.8454,833.2236)" style="fill-opacity: 1; stroke-opacity: 1;">
        <g class="BoundaryPolygon" fill="none" stroke="none">
            <polygon points="0,0 60,0 60,60 0,60"/>
        </g>
        <g class="InnerPolygon">
            <polygon points="5 9.7 55 9.7 55 54.7 5 54.7"/>
        </g>
        <g class="OuterDrain" stroke-width="0.8">
            <circle cx="30" cy="32.2" r="3.5"/>
        </g>
        <g class="InnerDrain" stroke-width="0.8">
            <circle cx="30" cy="32.2" r="2"/>
        </g>
        <g class="Faucet">
            <polygon points="27 5 33 5 33 19 27 19"/>
        </g>
        <g class="Direction" fill-opacity="0.9" style="display: none;">
            <polygon points="32.009 55.197 32.009 44.581 29 44.581 29 55.197 25.197 55.197 30.5 60 35.803 55.197 32.009 55.197" fill="#444444"/>
        </g> 
        <g class="Name" fill-opacity="0.9" style="display: none;">
            <text transform="translate(3 12)" font-size="12" font-family="Verdana, Sans-Serif">SINK</text>
        </g>
        <desc>Width:60 Height:90 Depth:60 Elevation:0</desc>
    </g><g class="FixedFurniture ElectricalAppliance IntegratedStove" fill="#ffffff" stroke="#000000" transform="matrix(-1,0,0,-1,1092.3415,835.1634)" style="fill-opacity: 1; stroke-opacity: 1;">
        <g class="BoundaryPolygon" fill="none" stroke="none">
            <polygon points="0.00,0.00 67.93,0.00 67.93,63.89 0.00,63.89 "/>
        </g>
        <g class="InnerPolygon">
            <polygon points="2.00,2.00 65.66,2.00 65.66,61.76 2.00,61.76 "/>
        </g>
        <g class="OuterCircle">
            <circle cx="18.114324682454157" cy="17.037031130934956" r="8"/>
            <circle cx="49.81439287674888" cy="17.037031130934956" r="8"/>
            <circle cx="18.114324682454157" cy="46.851835610071106" r="8"/>
            <circle cx="49.81439287674888" cy="46.851835610071106" r="8"/>
        </g>
        <g class="Direction" fill-opacity="0.9" style="display: none;">
            <polygon points="36.24,58.77 36.24,48.16 33.23,48.16 33.23,58.77 29.43,58.77 34.73,63.58 40.03,58.77 36.24,58.77 " fill="#444444"/>
        </g> 
        <g class="Name" fill-opacity="0.9" style="display: none;">
            <text transform="translate(3 12)" font-size="12" font-family="Verdana, Sans-Serif">INT_STOVE</text>
        </g>
        <desc>Width:60 Height:90 Depth:30 Elevation:0</desc>
    </g><g id="Wall" fill="#000000" stroke="#000000" style="fill-opacity: 1; stroke-opacity: 1; stroke-width: 0.2;" class="Wall External"><polygon points="759.33,1128.56 759.33,1228.65 776.33,1228.65 776.33,1128.56 "/></g></g></g></g></svg>
