  0
SECTION
  2
HEADER
  9
$ACADVER
  1
AC1009
  9
$FILLMODE
 70
 0
  9
$SPLFRAME
 70
 1
  9
$EXTMIN
 10
0
 20
0
 30
0.0
  9
$EXTMAX
 10
41.6667
 20
41.6667
 30
0.0
  0
ENDSEC
  0
SECTION
  2
TABLES
  0
TABLE
  2
LAYER
 70
1
  0
LAYER
  2
0
 70
     0
 62
     7
  6
CONTINUOUS
  0
ENDTAB
  0
ENDSEC
  0
SECTION
  2
ENTITIES
  0
POLYLINE
  8
0
 62
     7
 66
     1
 10
0
 20
0
 30
0.0
 70
     1
 40
0
 41
0
  0
VERTEX
  8
0
 10
8.46029
 20
4.63217
 30
0.0
 40
0
 41
0
  0
VERTEX
  8
0
 10
7.43332
 20
4.63217
 30
0.0
 40
0
 41
0
  0
VERTEX
  8
0
 10
7.43332
 20
4.81967
 30
0.0
 40
0
 41
0
  0
VERTEX
  8
0
 10
2.5849
 20
4.81967
 30
0.0
 40
0
 41
0
  0
VERTEX
  8
0
 10
2.5849
 20
8.74724
 30
0.0
 40
0
 41
0
  0
VERTEX
  8
0
 10
8.46029
 20
8.74724
 30
0.0
 40
0
 41
0
  0
VERTEX
  8
0
 10
8.46029
 20
4.63217
 30
0.0
 40
0
 41
0
  0
SEQEND
 8
0
  0
POLYLINE
  8
0
 62
     7
 66
     1
 10
0
 20
0
 30
0.0
 70
     1
 40
0.15
 41
0.15
  0
VERTEX
  8
0
 10
8.46029
 20
4.63217
 30
0.0
 40
0.00208333
 41
0.00208333
  0
VERTEX
  8
0
 10
7.43332
 20
4.63217
 30
0.0
 40
0.00208333
 41
0.00208333
  0
VERTEX
  8
0
 10
7.43332
 20
4.81967
 30
0.0
 40
0.00208333
 41
0.00208333
  0
VERTEX
  8
0
 10
2.5849
 20
4.81967
 30
0.0
 40
0.00208333
 41
0.00208333
  0
VERTEX
  8
0
 10
2.5849
 20
8.74724
 30
0.0
 40
0.00208333
 41
0.00208333
  0
VERTEX
  8
0
 10
8.46029
 20
8.74724
 30
0.0
 40
0.00208333
 41
0.00208333
  0
VERTEX
  8
0
 10
8.46029
 20
4.63217
 30
0.0
 40
0.00208333
 41
0.00208333
  0
SEQEND
 8
0
  0
TEXT
  8
0
 62
     0
 10
4.54599
 20
6.78619
 30
0.0
 40
0.34375
  1
UNDEFINED
 50
0
  0
POLYLINE
  8
0
 62
     7
 66
     1
 10
0
 20
0
 30
0.0
 70
     1
 40
0
 41
0
  0
VERTEX
  8
0
 10
11.992
 20
4.18088
 30
0.0
 40
0
 41
0
  0
VERTEX
  8
0
 10
9.37636
 20
4.18088
 30
0.0
 40
0
 41
0
  0
VERTEX
  8
0
 10
9.37636
 20
4.63217
 30
0.0
 40
0
 41
0
  0
VERTEX
  8
0
 10
8.46029
 20
4.63217
 30
0.0
 40
0
 41
0
  0
VERTEX
  8
0
 10
8.46029
 20
8.74724
 30
0.0
 40
0
 41
0
  0
VERTEX
  8
0
 10
11.992
 20
8.74724
 30
0.0
 40
0
 41
0
  0
VERTEX
  8
0
 10
11.992
 20
4.18088
 30
0.0
 40
0
 41
0
  0
SEQEND
 8
0
  0
POLYLINE
  8
0
 62
     7
 66
     1
 10
0
 20
0
 30
0.0
 70
     1
 40
0.15
 41
0.15
  0
VERTEX
  8
0
 10
11.992
 20
4.18088
 30
0.0
 40
0.00208333
 41
0.00208333
  0
VERTEX
  8
0
 10
9.37636
 20
4.18088
 30
0.0
 40
0.00208333
 41
0.00208333
  0
VERTEX
  8
0
 10
9.37636
 20
4.63217
 30
0.0
 40
0.00208333
 41
0.00208333
  0
VERTEX
  8
0
 10
8.46029
 20
4.63217
 30
0.0
 40
0.00208333
 41
0.00208333
  0
VERTEX
  8
0
 10
8.46029
 20
8.74724
 30
0.0
 40
0.00208333
 41
0.00208333
  0
VERTEX
  8
0
 10
11.992
 20
8.74724
 30
0.0
 40
0.00208333
 41
0.00208333
  0
VERTEX
  8
0
 10
11.992
 20
4.18088
 30
0.0
 40
0.00208333
 41
0.00208333
  0
SEQEND
 8
0
  0
TEXT
  8
0
 62
     0
 10
10.2262
 20
6.98147
 30
0.0
 40
0.34375
  1
UNDEFINED
 50
0
  0
POLYLINE
  8
0
 62
     7
 66
     1
 10
0
 20
0
 30
0.0
 70
     1
 40
0
 41
0
  0
VERTEX
  8
0
 10
9.37636
 20
4.18088
 30
0.0
 40
0
 41
0
  0
VERTEX
  8
0
 10
11.992
 20
4.18088
 30
0.0
 40
0
 41
0
  0
VERTEX
  8
0
 10
11.992
 20
4.18039
 30
0.0
 40
0
 41
0
  0
VERTEX
  8
0
 10
9.37717
 20
4.18039
 30
0.0
 40
0
 41
0
  0
VERTEX
  8
0
 10
9.37717
 20
1.10525
 30
0.0
 40
0
 41
0
  0
VERTEX
  8
0
 10
6.91596
 20
1.10525
 30
0.0
 40
0
 41
0
  0
VERTEX
  8
0
 10
6.91596
 20
4.63217
 30
0.0
 40
0
 41
0
  0
VERTEX
  8
0
 10
9.37636
 20
4.63217
 30
0.0
 40
0
 41
0
  0
VERTEX
  8
0
 10
9.37636
 20
4.18088
 30
0.0
 40
0
 41
0
  0
SEQEND
 8
0
  0
POLYLINE
  8
0
 62
     7
 66
     1
 10
0
 20
0
 30
0.0
 70
     1
 40
0.15
 41
0.15
  0
VERTEX
  8
0
 10
9.37636
 20
4.18088
 30
0.0
 40
0.00208333
 41
0.00208333
  0
VERTEX
  8
0
 10
11.992
 20
4.18088
 30
0.0
 40
0.00208333
 41
0.00208333
  0
VERTEX
  8
0
 10
11.992
 20
4.18039
 30
0.0
 40
0.00208333
 41
0.00208333
  0
VERTEX
  8
0
 10
9.37717
 20
4.18039
 30
0.0
 40
0.00208333
 41
0.00208333
  0
VERTEX
  8
0
 10
9.37717
 20
1.10525
 30
0.0
 40
0.00208333
 41
0.00208333
  0
VERTEX
  8
0
 10
6.91596
 20
1.10525
 30
0.0
 40
0.00208333
 41
0.00208333
  0
VERTEX
  8
0
 10
6.91596
 20
4.63217
 30
0.0
 40
0.00208333
 41
0.00208333
  0
VERTEX
  8
0
 10
9.37636
 20
4.63217
 30
0.0
 40
0.00208333
 41
0.00208333
  0
VERTEX
  8
0
 10
9.37636
 20
4.18088
 30
0.0
 40
0.00208333
 41
0.00208333
  0
SEQEND
 8
0
  0
TEXT
  8
0
 62
     0
 10
8.14688
 20
2.86885
 30
0.0
 40
0.34375
  1
UNDEFINED
 50
0
  0
POLYLINE
  8
0
 62
     7
 66
     1
 10
0
 20
0
 30
0.0
 70
     1
 40
0
 41
0
  0
VERTEX
  8
0
 10
0.591254
 20
8.49858
 30
0.0
 40
0
 41
0
  0
VERTEX
  8
0
 10
2.3974
 20
8.49858
 30
0.0
 40
0
 41
0
  0
VERTEX
  8
0
 10
2.3974
 20
4.81099
 30
0.0
 40
0
 41
0
  0
VERTEX
  8
0
 10
0.591254
 20
4.81099
 30
0.0
 40
0
 41
0
  0
VERTEX
  8
0
 10
0.591254
 20
8.49858
 30
0.0
 40
0
 41
0
  0
SEQEND
 8
0
  0
POLYLINE
  8
0
 62
     0
 66
     1
 10
0
 20
0
 30
0.0
 70
     1
 40
0.15
 41
0.15
  0
VERTEX
  8
0
 10
0.591254
 20
8.49858
 30
0.0
 40
0.00208333
 41
0.00208333
  0
VERTEX
  8
0
 10
2.3974
 20
8.49858
 30
0.0
 40
0.00208333
 41
0.00208333
  0
VERTEX
  8
0
 10
2.3974
 20
4.81099
 30
0.0
 40
0.00208333
 41
0.00208333
  0
VERTEX
  8
0
 10
0.591254
 20
4.81099
 30
0.0
 40
0.00208333
 41
0.00208333
  0
VERTEX
  8
0
 10
0.591254
 20
8.49858
 30
0.0
 40
0.00208333
 41
0.00208333
  0
SEQEND
 8
0
  0
TEXT
  8
0
 62
     0
 10
1.49432
 20
6.65481
 30
0.0
 40
0.34375
  1
ULK
 50
0
  0
TEXT
  8
0
 62
     0
 10
2.17193
 20
6.65481
 30
0.0
 40
0.34375
  1
O
 50
0
  0
TEXT
  8
0
 62
     0
 10
2.43424
 20
6.65481
 30
0.0
 40
0.34375
  1
TILA
 50
0
  0
POLYLINE
  8
0
 62
     7
 66
     1
 10
0
 20
0
 30
0.0
 70
     1
 40
0
 41
0
  0
VERTEX
  8
0
 10
6.852
 20
12.0939
 30
0.0
 40
0
 41
0
  0
VERTEX
  8
0
 10
11.992
 20
12.0939
 30
0.0
 40
0
 41
0
  0
VERTEX
  8
0
 10
11.992
 20
8.92432
 30
0.0
 40
0
 41
0
  0
VERTEX
  8
0
 10
6.852
 20
8.92432
 30
0.0
 40
0
 41
0
  0
VERTEX
  8
0
 10
6.852
 20
12.0939
 30
0.0
 40
0
 41
0
  0
SEQEND
 8
0
  0
POLYLINE
  8
0
 62
     7
 66
     1
 10
0
 20
0
 30
0.0
 70
     1
 40
0.15
 41
0.15
  0
VERTEX
  8
0
 10
6.852
 20
12.0939
 30
0.0
 40
0.00208333
 41
0.00208333
  0
VERTEX
  8
0
 10
11.992
 20
12.0939
 30
0.0
 40
0.00208333
 41
0.00208333
  0
VERTEX
  8
0
 10
11.992
 20
8.92432
 30
0.0
 40
0.00208333
 41
0.00208333
  0
VERTEX
  8
0
 10
6.852
 20
8.92432
 30
0.0
 40
0.00208333
 41
0.00208333
  0
VERTEX
  8
0
 10
6.852
 20
12.0939
 30
0.0
 40
0.00208333
 41
0.00208333
  0
SEQEND
 8
0
  0
TEXT
  8
0
 62
     0
 10
9.42197
 20
10.5091
 30
0.0
 40
0.34375
  1
UNDEFINED
 50
0
  0
POLYLINE
  8
0
 62
     7
 66
     1
 10
0
 20
0
 30
0.0
 70
     1
 40
0
 41
0
  0
VERTEX
  8
0
 10
11.5546
 20
2.83832
 30
0.0
 40
0
 41
0
  0
VERTEX
  8
0
 10
11.1341
 20
2.83832
 30
0.0
 40
0
 41
0
  0
VERTEX
  8
0
 10
10.6842
 20
1.96382
 30
0.0
 40
0
 41
0
  0
VERTEX
  8
0
 10
10.6842
 20
1.10525
 30
0.0
 40
0
 41
0
  0
VERTEX
  8
0
 10
9.48133
 20
1.10525
 30
0.0
 40
0
 41
0
  0
VERTEX
  8
0
 10
9.48133
 20
2.73415
 30
0.0
 40
0
 41
0
  0
VERTEX
  8
0
 10
10.3417
 20
2.73415
 30
0.0
 40
0
 41
0
  0
VERTEX
  8
0
 10
10.3417
 20
2.83832
 30
0.0
 40
0
 41
0
  0
VERTEX
  8
0
 10
9.48133
 20
2.83832
 30
0.0
 40
0
 41
0
  0
VERTEX
  8
0
 10
9.48133
 20
4.00331
 30
0.0
 40
0
 41
0
  0
VERTEX
  8
0
 10
11.5546
 20
4.00331
 30
0.0
 40
0
 41
0
  0
VERTEX
  8
0
 10
11.5546
 20
2.83832
 30
0.0
 40
0
 41
0
  0
SEQEND
 8
0
  0
POLYLINE
  8
0
 62
     7
 66
     1
 10
0
 20
0
 30
0.0
 70
     1
 40
0.15
 41
0.15
  0
VERTEX
  8
0
 10
11.5546
 20
2.83832
 30
0.0
 40
0.00208333
 41
0.00208333
  0
VERTEX
  8
0
 10
11.1341
 20
2.83832
 30
0.0
 40
0.00208333
 41
0.00208333
  0
VERTEX
  8
0
 10
10.6842
 20
1.96382
 30
0.0
 40
0.00208333
 41
0.00208333
  0
VERTEX
  8
0
 10
10.6842
 20
1.10525
 30
0.0
 40
0.00208333
 41
0.00208333
  0
VERTEX
  8
0
 10
9.48133
 20
1.10525
 30
0.0
 40
0.00208333
 41
0.00208333
  0
VERTEX
  8
0
 10
9.48133
 20
2.73415
 30
0.0
 40
0.00208333
 41
0.00208333
  0
VERTEX
  8
0
 10
10.3417
 20
2.73415
 30
0.0
 40
0.00208333
 41
0.00208333
  0
VERTEX
  8
0
 10
10.3417
 20
2.83832
 30
0.0
 40
0.00208333
 41
0.00208333
  0
VERTEX
  8
0
 10
9.48133
 20
2.83832
 30
0.0
 40
0.00208333
 41
0.00208333
  0
VERTEX
  8
0
 10
9.48133
 20
4.00331
 30
0.0
 40
0.00208333
 41
0.00208333
  0
VERTEX
  8
0
 10
11.5546
 20
4.00331
 30
0.0
 40
0.00208333
 41
0.00208333
  0
VERTEX
  8
0
 10
11.5546
 20
2.83832
 30
0.0
 40
0.00208333
 41
0.00208333
  0
SEQEND
 8
0
  0
TEXT
  8
0
 62
     0
 10
10.7406
 20
3.35137
 30
0.0
 40
0.34375
  1
UNDEFINED
 50
0
  0
POLYLINE
  8
0
 62
     7
 66
     1
 10
0
 20
0
 30
0.0
 70
     1
 40
0
 41
0
  0
VERTEX
  8
0
 10
11.992
 20
1.10525
 30
0.0
 40
0
 41
0
  0
VERTEX
  8
0
 10
10.8092
 20
1.10525
 30
0.0
 40
0
 41
0
  0
VERTEX
  8
0
 10
10.8092
 20
1.9336
 30
0.0
 40
0
 41
0
  0
VERTEX
  8
0
 10
11.221
 20
2.73415
 30
0.0
 40
0
 41
0
  0
VERTEX
  8
0
 10
11.992
 20
2.73415
 30
0.0
 40
0
 41
0
  0
VERTEX
  8
0
 10
11.992
 20
1.10525
 30
0.0
 40
0
 41
0
  0
SEQEND
 8
0
  0
POLYLINE
  8
0
 62
     7
 66
     1
 10
0
 20
0
 30
0.0
 70
     1
 40
0.15
 41
0.15
  0
VERTEX
  8
0
 10
11.992
 20
1.10525
 30
0.0
 40
0.00208333
 41
0.00208333
  0
VERTEX
  8
0
 10
10.8092
 20
1.10525
 30
0.0
 40
0.00208333
 41
0.00208333
  0
VERTEX
  8
0
 10
10.8092
 20
1.9336
 30
0.0
 40
0.00208333
 41
0.00208333
  0
VERTEX
  8
0
 10
11.221
 20
2.73415
 30
0.0
 40
0.00208333
 41
0.00208333
  0
VERTEX
  8
0
 10
11.992
 20
2.73415
 30
0.0
 40
0.00208333
 41
0.00208333
  0
VERTEX
  8
0
 10
11.992
 20
1.10525
 30
0.0
 40
0.00208333
 41
0.00208333
  0
SEQEND
 8
0
  0
TEXT
  8
0
 62
     0
 10
11.396
 20
1.76843
 30
0.0
 40
0.34375
  1
UNDEFINED
 50
0
  0
POLYLINE
  8
0
 62
     0
 66
     1
 10
0
 20
0
 30
0.0
 70
     1
 40
0
 41
0
  0
VERTEX
  8
0
 10
2.5849
 20
8.74724
 30
0.0
 40
0
 41
0
  0
VERTEX
  8
0
 10
6.852
 20
8.74724
 30
0.0
 40
0
 41
0
  0
VERTEX
  8
0
 10
6.67492
 20
8.92432
 30
0.0
 40
0
 41
0
  0
VERTEX
  8
0
 10
2.3974
 20
8.92432
 30
0.0
 40
0
 41
0
  0
VERTEX
  8
0
 10
2.5849
 20
8.74724
 30
0.0
 40
0
 41
0
  0
SEQEND
 8
0
  0
POLYLINE
  8
0
 62
     0
 66
     1
 10
0
 20
0
 30
0.0
 70
     1
 40
0.15
 41
0.15
  0
VERTEX
  8
0
 10
2.5849
 20
8.74724
 30
0.0
 40
0.00208333
 41
0.00208333
  0
VERTEX
  8
0
 10
6.852
 20
8.74724
 30
0.0
 40
0.00208333
 41
0.00208333
  0
VERTEX
  8
0
 10
6.67492
 20
8.92432
 30
0.0
 40
0.00208333
 41
0.00208333
  0
VERTEX
  8
0
 10
2.3974
 20
8.92432
 30
0.0
 40
0.00208333
 41
0.00208333
  0
VERTEX
  8
0
 10
2.5849
 20
8.74724
 30
0.0
 40
0.00208333
 41
0.00208333
  0
SEQEND
 8
0
  0
POLYLINE
  8
0
 62
     0
 66
     1
 10
0
 20
0
 30
0.0
 70
     1
 40
0
 41
0
  0
VERTEX
  8
0
 10
6.852
 20
8.74724
 30
0.0
 40
0
 41
0
  0
VERTEX
  8
0
 10
6.852
 20
12.0939
 30
0.0
 40
0
 41
0
  0
VERTEX
  8
0
 10
6.67492
 20
12.271
 30
0.0
 40
0
 41
0
  0
VERTEX
  8
0
 10
6.67492
 20
8.92432
 30
0.0
 40
0
 41
0
  0
VERTEX
  8
0
 10
6.852
 20
8.74724
 30
0.0
 40
0
 41
0
  0
SEQEND
 8
0
  0
POLYLINE
  8
0
 62
     0
 66
     1
 10
0
 20
0
 30
0.0
 70
     1
 40
0.15
 41
0.15
  0
VERTEX
  8
0
 10
6.852
 20
8.74724
 30
0.0
 40
0.00208333
 41
0.00208333
  0
VERTEX
  8
0
 10
6.852
 20
12.0939
 30
0.0
 40
0.00208333
 41
0.00208333
  0
VERTEX
  8
0
 10
6.67492
 20
12.271
 30
0.0
 40
0.00208333
 41
0.00208333
  0
VERTEX
  8
0
 10
6.67492
 20
8.92432
 30
0.0
 40
0.00208333
 41
0.00208333
  0
VERTEX
  8
0
 10
6.852
 20
8.74724
 30
0.0
 40
0.00208333
 41
0.00208333
  0
SEQEND
 8
0
  0
POLYLINE
  8
0
 62
     0
 66
     1
 10
0
 20
0
 30
0.0
 70
     1
 40
0
 41
0
  0
VERTEX
  8
0
 10
6.852
 20
12.0939
 30
0.0
 40
0
 41
0
  0
VERTEX
  8
0
 10
11.992
 20
12.0939
 30
0.0
 40
0
 41
0
  0
VERTEX
  8
0
 10
12.3045
 20
12.271
 30
0.0
 40
0
 41
0
  0
VERTEX
  8
0
 10
6.67492
 20
12.271
 30
0.0
 40
0
 41
0
  0
VERTEX
  8
0
 10
6.852
 20
12.0939
 30
0.0
 40
0
 41
0
  0
SEQEND
 8
0
  0
POLYLINE
  8
0
 62
     0
 66
     1
 10
0
 20
0
 30
0.0
 70
     1
 40
0.15
 41
0.15
  0
VERTEX
  8
0
 10
6.852
 20
12.0939
 30
0.0
 40
0.00208333
 41
0.00208333
  0
VERTEX
  8
0
 10
11.992
 20
12.0939
 30
0.0
 40
0.00208333
 41
0.00208333
  0
VERTEX
  8
0
 10
12.3045
 20
12.271
 30
0.0
 40
0.00208333
 41
0.00208333
  0
VERTEX
  8
0
 10
6.67492
 20
12.271
 30
0.0
 40
0.00208333
 41
0.00208333
  0
VERTEX
  8
0
 10
6.852
 20
12.0939
 30
0.0
 40
0.00208333
 41
0.00208333
  0
SEQEND
 8
0
  0
POLYLINE
  8
0
 62
     0
 66
     1
 10
0
 20
0
 30
0.0
 70
     1
 40
0
 41
0
  0
VERTEX
  8
0
 10
11.992
 20
12.0939
 30
0.0
 40
0
 41
0
  0
VERTEX
  8
0
 10
11.992
 20
1.10525
 30
0.0
 40
0
 41
0
  0
VERTEX
  8
0
 10
12.3045
 20
0.917751
 30
0.0
 40
0
 41
0
  0
VERTEX
  8
0
 10
12.3045
 20
12.271
 30
0.0
 40
0
 41
0
  0
VERTEX
  8
0
 10
11.992
 20
12.0939
 30
0.0
 40
0
 41
0
  0
SEQEND
 8
0
  0
POLYLINE
  8
0
 62
     0
 66
     1
 10
0
 20
0
 30
0.0
 70
     1
 40
0.15
 41
0.15
  0
VERTEX
  8
0
 10
11.992
 20
12.0939
 30
0.0
 40
0.00208333
 41
0.00208333
  0
VERTEX
  8
0
 10
11.992
 20
1.10525
 30
0.0
 40
0.00208333
 41
0.00208333
  0
VERTEX
  8
0
 10
12.3045
 20
0.917751
 30
0.0
 40
0.00208333
 41
0.00208333
  0
VERTEX
  8
0
 10
12.3045
 20
12.271
 30
0.0
 40
0.00208333
 41
0.00208333
  0
VERTEX
  8
0
 10
11.992
 20
12.0939
 30
0.0
 40
0.00208333
 41
0.00208333
  0
SEQEND
 8
0
  0
POLYLINE
  8
0
 62
     7
 66
     1
 10
0
 20
0
 30
0.0
 70
     1
 40
0
 41
0
  0
VERTEX
  8
0
 10
11.992
 20
12.0716
 30
0.0
 40
0
 41
0
  0
VERTEX
  8
0
 10
12.3045
 20
12.0716
 30
0.0
 40
0
 41
0
  0
VERTEX
  8
0
 10
12.3045
 20
11.4068
 30
0.0
 40
0
 41
0
  0
VERTEX
  8
0
 10
11.992
 20
11.4068
 30
0.0
 40
0
 41
0
  0
VERTEX
  8
0
 10
11.992
 20
12.0716
 30
0.0
 40
0
 41
0
  0
SEQEND
 8
0
  0
POLYLINE
  8
0
 62
     0
 66
     1
 10
0
 20
0
 30
0.0
 70
     1
 40
0.75
 41
0.75
  0
VERTEX
  8
0
 10
11.992
 20
12.0716
 30
0.0
 40
0.0104167
 41
0.0104167
  0
VERTEX
  8
0
 10
12.3045
 20
12.0716
 30
0.0
 40
0.0104167
 41
0.0104167
  0
VERTEX
  8
0
 10
12.3045
 20
11.4068
 30
0.0
 40
0.0104167
 41
0.0104167
  0
VERTEX
  8
0
 10
11.992
 20
11.4068
 30
0.0
 40
0.0104167
 41
0.0104167
  0
VERTEX
  8
0
 10
11.992
 20
12.0716
 30
0.0
 40
0.0104167
 41
0.0104167
  0
SEQEND
 8
0
  0
POLYLINE
  8
0
 62
     7
 66
     1
 10
0
 20
0
 30
0.0
 70
     1
 40
0
 41
0
  0
VERTEX
  8
0
 10
11.992
 20
12.0716
 30
0.0
 40
0
 41
0
  0
VERTEX
  8
0
 10
12.3045
 20
12.0716
 30
0.0
 40
0
 41
0
  0
VERTEX
  8
0
 10
12.3045
 20
11.4068
 30
0.0
 40
0
 41
0
  0
VERTEX
  8
0
 10
11.992
 20
11.4068
 30
0.0
 40
0
 41
0
  0
VERTEX
  8
0
 10
11.992
 20
12.0716
 30
0.0
 40
0
 41
0
  0
SEQEND
 8
0
  0
POLYLINE
  8
0
 62
     0
 66
     1
 10
0
 20
0
 30
0.0
 70
     1
 40
0.75
 41
0.75
  0
VERTEX
  8
0
 10
11.992
 20
12.0716
 30
0.0
 40
0.0104167
 41
0.0104167
  0
VERTEX
  8
0
 10
12.3045
 20
12.0716
 30
0.0
 40
0.0104167
 41
0.0104167
  0
VERTEX
  8
0
 10
12.3045
 20
11.4068
 30
0.0
 40
0.0104167
 41
0.0104167
  0
VERTEX
  8
0
 10
11.992
 20
11.4068
 30
0.0
 40
0.0104167
 41
0.0104167
  0
VERTEX
  8
0
 10
11.992
 20
12.0716
 30
0.0
 40
0.0104167
 41
0.0104167
  0
SEQEND
 8
0
  0
POLYLINE
  8
0
 62
     0
 66
     1
 10
0
 20
0
 30
0.0
 40
0.75
 41
0.75
  0
VERTEX
  8
0
 10
12.1482
 20
11.9935
 30
0.0
 40
0.0104167
 41
0.0104167
  0
VERTEX
  8
0
 10
12.1482
 20
11.4849
 30
0.0
 40
0.0104167
 41
0.0104167
  0
SEQEND
 8
0
  0
POLYLINE
  8
0
 62
     0
 66
     1
 10
0
 20
0
 30
0.0
 40
0.75
 41
0.75
  0
VERTEX
  8
0
 10
11.992
 20
11.9935
 30
0.0
 40
0.0104167
 41
0.0104167
  0
VERTEX
  8
0
 10
12.3045
 20
11.9935
 30
0.0
 40
0.0104167
 41
0.0104167
  0
SEQEND
 8
0
  0
POLYLINE
  8
0
 62
     0
 66
     1
 10
0
 20
0
 30
0.0
 40
0.75
 41
0.75
  0
VERTEX
  8
0
 10
11.992
 20
11.4849
 30
0.0
 40
0.0104167
 41
0.0104167
  0
VERTEX
  8
0
 10
12.3045
 20
11.4849
 30
0.0
 40
0.0104167
 41
0.0104167
  0
SEQEND
 8
0
  0
POLYLINE
  8
0
 62
     7
 66
     1
 10
0
 20
0
 30
0.0
 70
     1
 40
0
 41
0
  0
VERTEX
  8
0
 10
11.992
 20
11.4068
 30
0.0
 40
0
 41
0
  0
VERTEX
  8
0
 10
12.3045
 20
11.4068
 30
0.0
 40
0
 41
0
  0
VERTEX
  8
0
 10
12.3045
 20
9.6135
 30
0.0
 40
0
 41
0
  0
VERTEX
  8
0
 10
11.992
 20
9.6135
 30
0.0
 40
0
 41
0
  0
VERTEX
  8
0
 10
11.992
 20
11.4068
 30
0.0
 40
0
 41
0
  0
SEQEND
 8
0
  0
POLYLINE
  8
0
 62
     0
 66
     1
 10
0
 20
0
 30
0.0
 70
     1
 40
0.75
 41
0.75
  0
VERTEX
  8
0
 10
11.992
 20
11.4068
 30
0.0
 40
0.0104167
 41
0.0104167
  0
VERTEX
  8
0
 10
12.3045
 20
11.4068
 30
0.0
 40
0.0104167
 41
0.0104167
  0
VERTEX
  8
0
 10
12.3045
 20
9.6135
 30
0.0
 40
0.0104167
 41
0.0104167
  0
VERTEX
  8
0
 10
11.992
 20
9.6135
 30
0.0
 40
0.0104167
 41
0.0104167
  0
VERTEX
  8
0
 10
11.992
 20
11.4068
 30
0.0
 40
0.0104167
 41
0.0104167
  0
SEQEND
 8
0
  0
POLYLINE
  8
0
 62
     7
 66
     1
 10
0
 20
0
 30
0.0
 70
     1
 40
0
 41
0
  0
VERTEX
  8
0
 10
11.992
 20
11.4068
 30
0.0
 40
0
 41
0
  0
VERTEX
  8
0
 10
12.3045
 20
11.4068
 30
0.0
 40
0
 41
0
  0
VERTEX
  8
0
 10
12.3045
 20
9.6135
 30
0.0
 40
0
 41
0
  0
VERTEX
  8
0
 10
11.992
 20
9.6135
 30
0.0
 40
0
 41
0
  0
VERTEX
  8
0
 10
11.992
 20
11.4068
 30
0.0
 40
0
 41
0
  0
SEQEND
 8
0
  0
POLYLINE
  8
0
 62
     0
 66
     1
 10
0
 20
0
 30
0.0
 70
     1
 40
0.75
 41
0.75
  0
VERTEX
  8
0
 10
11.992
 20
11.4068
 30
0.0
 40
0.0104167
 41
0.0104167
  0
VERTEX
  8
0
 10
12.3045
 20
11.4068
 30
0.0
 40
0.0104167
 41
0.0104167
  0
VERTEX
  8
0
 10
12.3045
 20
9.6135
 30
0.0
 40
0.0104167
 41
0.0104167
  0
VERTEX
  8
0
 10
11.992
 20
9.6135
 30
0.0
 40
0.0104167
 41
0.0104167
  0
VERTEX
  8
0
 10
11.992
 20
11.4068
 30
0.0
 40
0.0104167
 41
0.0104167
  0
SEQEND
 8
0
  0
POLYLINE
  8
0
 62
     0
 66
     1
 10
0
 20
0
 30
0.0
 40
0.75
 41
0.75
  0
VERTEX
  8
0
 10
12.1482
 20
11.3287
 30
0.0
 40
0.0104167
 41
0.0104167
  0
VERTEX
  8
0
 10
12.1482
 20
9.69157
 30
0.0
 40
0.0104167
 41
0.0104167
  0
SEQEND
 8
0
  0
POLYLINE
  8
0
 62
     0
 66
     1
 10
0
 20
0
 30
0.0
 40
0.75
 41
0.75
  0
VERTEX
  8
0
 10
11.992
 20
11.3287
 30
0.0
 40
0.0104167
 41
0.0104167
  0
VERTEX
  8
0
 10
12.3045
 20
11.3287
 30
0.0
 40
0.0104167
 41
0.0104167
  0
SEQEND
 8
0
  0
POLYLINE
  8
0
 62
     0
 66
     1
 10
0
 20
0
 30
0.0
 40
0.75
 41
0.75
  0
VERTEX
  8
0
 10
11.992
 20
9.69157
 30
0.0
 40
0.0104167
 41
0.0104167
  0
VERTEX
  8
0
 10
12.3045
 20
9.69157
 30
0.0
 40
0.0104167
 41
0.0104167
  0
SEQEND
 8
0
  0
POLYLINE
  8
0
 62
     7
 66
     1
 10
0
 20
0
 30
0.0
 70
     1
 40
0
 41
0
  0
VERTEX
  8
0
 10
11.992
 20
9.6135
 30
0.0
 40
0
 41
0
  0
VERTEX
  8
0
 10
12.3045
 20
9.6135
 30
0.0
 40
0
 41
0
  0
VERTEX
  8
0
 10
12.3045
 20
8.92236
 30
0.0
 40
0
 41
0
  0
VERTEX
  8
0
 10
11.992
 20
8.92236
 30
0.0
 40
0
 41
0
  0
VERTEX
  8
0
 10
11.992
 20
9.6135
 30
0.0
 40
0
 41
0
  0
SEQEND
 8
0
  0
POLYLINE
  8
0
 62
     0
 66
     1
 10
0
 20
0
 30
0.0
 70
     1
 40
0.75
 41
0.75
  0
VERTEX
  8
0
 10
11.992
 20
9.6135
 30
0.0
 40
0.0104167
 41
0.0104167
  0
VERTEX
  8
0
 10
12.3045
 20
9.6135
 30
0.0
 40
0.0104167
 41
0.0104167
  0
VERTEX
  8
0
 10
12.3045
 20
8.92236
 30
0.0
 40
0.0104167
 41
0.0104167
  0
VERTEX
  8
0
 10
11.992
 20
8.92236
 30
0.0
 40
0.0104167
 41
0.0104167
  0
VERTEX
  8
0
 10
11.992
 20
9.6135
 30
0.0
 40
0.0104167
 41
0.0104167
  0
SEQEND
 8
0
  0
POLYLINE
  8
0
 62
     7
 66
     1
 10
0
 20
0
 30
0.0
 70
     1
 40
0
 41
0
  0
VERTEX
  8
0
 10
11.992
 20
9.6135
 30
0.0
 40
0
 41
0
  0
VERTEX
  8
0
 10
12.3045
 20
9.6135
 30
0.0
 40
0
 41
0
  0
VERTEX
  8
0
 10
12.3045
 20
8.92236
 30
0.0
 40
0
 41
0
  0
VERTEX
  8
0
 10
11.992
 20
8.92236
 30
0.0
 40
0
 41
0
  0
VERTEX
  8
0
 10
11.992
 20
9.6135
 30
0.0
 40
0
 41
0
  0
SEQEND
 8
0
  0
POLYLINE
  8
0
 62
     0
 66
     1
 10
0
 20
0
 30
0.0
 70
     1
 40
0.75
 41
0.75
  0
VERTEX
  8
0
 10
11.992
 20
9.6135
 30
0.0
 40
0.0104167
 41
0.0104167
  0
VERTEX
  8
0
 10
12.3045
 20
9.6135
 30
0.0
 40
0.0104167
 41
0.0104167
  0
VERTEX
  8
0
 10
12.3045
 20
8.92236
 30
0.0
 40
0.0104167
 41
0.0104167
  0
VERTEX
  8
0
 10
11.992
 20
8.92236
 30
0.0
 40
0.0104167
 41
0.0104167
  0
VERTEX
  8
0
 10
11.992
 20
9.6135
 30
0.0
 40
0.0104167
 41
0.0104167
  0
SEQEND
 8
0
  0
POLYLINE
  8
0
 62
     0
 66
     1
 10
0
 20
0
 30
0.0
 40
0.75
 41
0.75
  0
VERTEX
  8
0
 10
12.1482
 20
9.53532
 30
0.0
 40
0.0104167
 41
0.0104167
  0
VERTEX
  8
0
 10
12.1482
 20
9.00049
 30
0.0
 40
0.0104167
 41
0.0104167
  0
SEQEND
 8
0
  0
POLYLINE
  8
0
 62
     0
 66
     1
 10
0
 20
0
 30
0.0
 40
0.75
 41
0.75
  0
VERTEX
  8
0
 10
11.992
 20
9.53532
 30
0.0
 40
0.0104167
 41
0.0104167
  0
VERTEX
  8
0
 10
12.3045
 20
9.53532
 30
0.0
 40
0.0104167
 41
0.0104167
  0
SEQEND
 8
0
  0
POLYLINE
  8
0
 62
     0
 66
     1
 10
0
 20
0
 30
0.0
 40
0.75
 41
0.75
  0
VERTEX
  8
0
 10
11.992
 20
9.00049
 30
0.0
 40
0.0104167
 41
0.0104167
  0
VERTEX
  8
0
 10
12.3045
 20
9.00049
 30
0.0
 40
0.0104167
 41
0.0104167
  0
SEQEND
 8
0
  0
POLYLINE
  8
0
 62
     7
 66
     1
 10
0
 20
0
 30
0.0
 70
     1
 40
0
 41
0
  0
VERTEX
  8
0
 10
11.992
 20
8.73872
 30
0.0
 40
0
 41
0
  0
VERTEX
  8
0
 10
12.3045
 20
8.73872
 30
0.0
 40
0
 41
0
  0
VERTEX
  8
0
 10
12.3045
 20
7.3259
 30
0.0
 40
0
 41
0
  0
VERTEX
  8
0
 10
11.992
 20
7.3259
 30
0.0
 40
0
 41
0
  0
VERTEX
  8
0
 10
11.992
 20
8.73872
 30
0.0
 40
0
 41
0
  0
SEQEND
 8
0
  0
POLYLINE
  8
0
 62
     0
 66
     1
 10
0
 20
0
 30
0.0
 70
     1
 40
0.75
 41
0.75
  0
VERTEX
  8
0
 10
11.992
 20
8.73872
 30
0.0
 40
0.0104167
 41
0.0104167
  0
VERTEX
  8
0
 10
12.3045
 20
8.73872
 30
0.0
 40
0.0104167
 41
0.0104167
  0
VERTEX
  8
0
 10
12.3045
 20
7.3259
 30
0.0
 40
0.0104167
 41
0.0104167
  0
VERTEX
  8
0
 10
11.992
 20
7.3259
 30
0.0
 40
0.0104167
 41
0.0104167
  0
VERTEX
  8
0
 10
11.992
 20
8.73872
 30
0.0
 40
0.0104167
 41
0.0104167
  0
SEQEND
 8
0
  0
POLYLINE
  8
0
 62
     7
 66
     1
 10
0
 20
0
 30
0.0
 70
     1
 40
0
 41
0
  0
VERTEX
  8
0
 10
11.992
 20
8.73872
 30
0.0
 40
0
 41
0
  0
VERTEX
  8
0
 10
12.3045
 20
8.73872
 30
0.0
 40
0
 41
0
  0
VERTEX
  8
0
 10
12.3045
 20
7.3259
 30
0.0
 40
0
 41
0
  0
VERTEX
  8
0
 10
11.992
 20
7.3259
 30
0.0
 40
0
 41
0
  0
VERTEX
  8
0
 10
11.992
 20
8.73872
 30
0.0
 40
0
 41
0
  0
SEQEND
 8
0
  0
POLYLINE
  8
0
 62
     0
 66
     1
 10
0
 20
0
 30
0.0
 70
     1
 40
0.75
 41
0.75
  0
VERTEX
  8
0
 10
11.992
 20
8.73872
 30
0.0
 40
0.0104167
 41
0.0104167
  0
VERTEX
  8
0
 10
12.3045
 20
8.73872
 30
0.0
 40
0.0104167
 41
0.0104167
  0
VERTEX
  8
0
 10
12.3045
 20
7.3259
 30
0.0
 40
0.0104167
 41
0.0104167
  0
VERTEX
  8
0
 10
11.992
 20
7.3259
 30
0.0
 40
0.0104167
 41
0.0104167
  0
VERTEX
  8
0
 10
11.992
 20
8.73872
 30
0.0
 40
0.0104167
 41
0.0104167
  0
SEQEND
 8
0
  0
POLYLINE
  8
0
 62
     0
 66
     1
 10
0
 20
0
 30
0.0
 40
0.75
 41
0.75
  0
VERTEX
  8
0
 10
12.1482
 20
8.66054
 30
0.0
 40
0.0104167
 41
0.0104167
  0
VERTEX
  8
0
 10
12.1482
 20
7.40397
 30
0.0
 40
0.0104167
 41
0.0104167
  0
SEQEND
 8
0
  0
POLYLINE
  8
0
 62
     0
 66
     1
 10
0
 20
0
 30
0.0
 40
0.75
 41
0.75
  0
VERTEX
  8
0
 10
11.992
 20
8.66054
 30
0.0
 40
0.0104167
 41
0.0104167
  0
VERTEX
  8
0
 10
12.3045
 20
8.66054
 30
0.0
 40
0.0104167
 41
0.0104167
  0
SEQEND
 8
0
  0
POLYLINE
  8
0
 62
     0
 66
     1
 10
0
 20
0
 30
0.0
 40
0.75
 41
0.75
  0
VERTEX
  8
0
 10
11.992
 20
7.40397
 30
0.0
 40
0.0104167
 41
0.0104167
  0
VERTEX
  8
0
 10
12.3045
 20
7.40397
 30
0.0
 40
0.0104167
 41
0.0104167
  0
SEQEND
 8
0
  0
POLYLINE
  8
0
 62
     7
 66
     1
 10
0
 20
0
 30
0.0
 70
     1
 40
0
 41
0
  0
VERTEX
  8
0
 10
11.992
 20
7.3259
 30
0.0
 40
0
 41
0
  0
VERTEX
  8
0
 10
12.3045
 20
7.3259
 30
0.0
 40
0
 41
0
  0
VERTEX
  8
0
 10
12.3045
 20
6.63037
 30
0.0
 40
0
 41
0
  0
VERTEX
  8
0
 10
11.992
 20
6.63037
 30
0.0
 40
0
 41
0
  0
VERTEX
  8
0
 10
11.992
 20
7.3259
 30
0.0
 40
0
 41
0
  0
SEQEND
 8
0
  0
POLYLINE
  8
0
 62
     0
 66
     1
 10
0
 20
0
 30
0.0
 70
     1
 40
0.75
 41
0.75
  0
VERTEX
  8
0
 10
11.992
 20
7.3259
 30
0.0
 40
0.0104167
 41
0.0104167
  0
VERTEX
  8
0
 10
12.3045
 20
7.3259
 30
0.0
 40
0.0104167
 41
0.0104167
  0
VERTEX
  8
0
 10
12.3045
 20
6.63037
 30
0.0
 40
0.0104167
 41
0.0104167
  0
VERTEX
  8
0
 10
11.992
 20
6.63037
 30
0.0
 40
0.0104167
 41
0.0104167
  0
VERTEX
  8
0
 10
11.992
 20
7.3259
 30
0.0
 40
0.0104167
 41
0.0104167
  0
SEQEND
 8
0
  0
POLYLINE
  8
0
 62
     7
 66
     1
 10
0
 20
0
 30
0.0
 70
     1
 40
0
 41
0
  0
VERTEX
  8
0
 10
11.992
 20
7.3259
 30
0.0
 40
0
 41
0
  0
VERTEX
  8
0
 10
12.3045
 20
7.3259
 30
0.0
 40
0
 41
0
  0
VERTEX
  8
0
 10
12.3045
 20
6.63037
 30
0.0
 40
0
 41
0
  0
VERTEX
  8
0
 10
11.992
 20
6.63037
 30
0.0
 40
0
 41
0
  0
VERTEX
  8
0
 10
11.992
 20
7.3259
 30
0.0
 40
0
 41
0
  0
SEQEND
 8
0
  0
POLYLINE
  8
0
 62
     0
 66
     1
 10
0
 20
0
 30
0.0
 70
     1
 40
0.75
 41
0.75
  0
VERTEX
  8
0
 10
11.992
 20
7.3259
 30
0.0
 40
0.0104167
 41
0.0104167
  0
VERTEX
  8
0
 10
12.3045
 20
7.3259
 30
0.0
 40
0.0104167
 41
0.0104167
  0
VERTEX
  8
0
 10
12.3045
 20
6.63037
 30
0.0
 40
0.0104167
 41
0.0104167
  0
VERTEX
  8
0
 10
11.992
 20
6.63037
 30
0.0
 40
0.0104167
 41
0.0104167
  0
VERTEX
  8
0
 10
11.992
 20
7.3259
 30
0.0
 40
0.0104167
 41
0.0104167
  0
SEQEND
 8
0
  0
POLYLINE
  8
0
 62
     0
 66
     1
 10
0
 20
0
 30
0.0
 40
0.75
 41
0.75
  0
VERTEX
  8
0
 10
12.1482
 20
7.24772
 30
0.0
 40
0.0104167
 41
0.0104167
  0
VERTEX
  8
0
 10
12.1482
 20
6.70856
 30
0.0
 40
0.0104167
 41
0.0104167
  0
SEQEND
 8
0
  0
POLYLINE
  8
0
 62
     0
 66
     1
 10
0
 20
0
 30
0.0
 40
0.75
 41
0.75
  0
VERTEX
  8
0
 10
11.992
 20
7.24772
 30
0.0
 40
0.0104167
 41
0.0104167
  0
VERTEX
  8
0
 10
12.3045
 20
7.24772
 30
0.0
 40
0.0104167
 41
0.0104167
  0
SEQEND
 8
0
  0
POLYLINE
  8
0
 62
     0
 66
     1
 10
0
 20
0
 30
0.0
 40
0.75
 41
0.75
  0
VERTEX
  8
0
 10
11.992
 20
6.70856
 30
0.0
 40
0.0104167
 41
0.0104167
  0
VERTEX
  8
0
 10
12.3045
 20
6.70856
 30
0.0
 40
0.0104167
 41
0.0104167
  0
SEQEND
 8
0
  0
POLYLINE
  8
0
 62
     7
 66
     1
 10
0
 20
0
 30
0.0
 70
     1
 40
0
 41
0
  0
VERTEX
  8
0
 10
11.992
 20
5.93061
 30
0.0
 40
0
 41
0
  0
VERTEX
  8
0
 10
12.3045
 20
5.93061
 30
0.0
 40
0
 41
0
  0
VERTEX
  8
0
 10
12.3045
 20
4.80643
 30
0.0
 40
0
 41
0
  0
VERTEX
  8
0
 10
11.992
 20
4.80643
 30
0.0
 40
0
 41
0
  0
VERTEX
  8
0
 10
11.992
 20
5.93061
 30
0.0
 40
0
 41
0
  0
SEQEND
 8
0
  0
POLYLINE
  8
0
 62
     0
 66
     1
 10
0
 20
0
 30
0.0
 70
     1
 40
0.75
 41
0.75
  0
VERTEX
  8
0
 10
11.992
 20
5.93061
 30
0.0
 40
0.0104167
 41
0.0104167
  0
VERTEX
  8
0
 10
12.3045
 20
5.93061
 30
0.0
 40
0.0104167
 41
0.0104167
  0
VERTEX
  8
0
 10
12.3045
 20
4.80643
 30
0.0
 40
0.0104167
 41
0.0104167
  0
VERTEX
  8
0
 10
11.992
 20
4.80643
 30
0.0
 40
0.0104167
 41
0.0104167
  0
VERTEX
  8
0
 10
11.992
 20
5.93061
 30
0.0
 40
0.0104167
 41
0.0104167
  0
SEQEND
 8
0
  0
POLYLINE
  8
0
 62
     7
 66
     1
 10
0
 20
0
 30
0.0
 70
     1
 40
0
 41
0
  0
VERTEX
  8
0
 10
11.992
 20
5.93061
 30
0.0
 40
0
 41
0
  0
VERTEX
  8
0
 10
12.3045
 20
5.93061
 30
0.0
 40
0
 41
0
  0
VERTEX
  8
0
 10
12.3045
 20
4.80643
 30
0.0
 40
0
 41
0
  0
VERTEX
  8
0
 10
11.992
 20
4.80643
 30
0.0
 40
0
 41
0
  0
VERTEX
  8
0
 10
11.992
 20
5.93061
 30
0.0
 40
0
 41
0
  0
SEQEND
 8
0
  0
POLYLINE
  8
0
 62
     0
 66
     1
 10
0
 20
0
 30
0.0
 70
     1
 40
0.75
 41
0.75
  0
VERTEX
  8
0
 10
11.992
 20
5.93061
 30
0.0
 40
0.0104167
 41
0.0104167
  0
VERTEX
  8
0
 10
12.3045
 20
5.93061
 30
0.0
 40
0.0104167
 41
0.0104167
  0
VERTEX
  8
0
 10
12.3045
 20
4.80643
 30
0.0
 40
0.0104167
 41
0.0104167
  0
VERTEX
  8
0
 10
11.992
 20
4.80643
 30
0.0
 40
0.0104167
 41
0.0104167
  0
VERTEX
  8
0
 10
11.992
 20
5.93061
 30
0.0
 40
0.0104167
 41
0.0104167
  0
SEQEND
 8
0
  0
POLYLINE
  8
0
 62
     0
 66
     1
 10
0
 20
0
 30
0.0
 40
0.75
 41
0.75
  0
VERTEX
  8
0
 10
12.1482
 20
5.85243
 30
0.0
 40
0.0104167
 41
0.0104167
  0
VERTEX
  8
0
 10
12.1482
 20
4.88456
 30
0.0
 40
0.0104167
 41
0.0104167
  0
SEQEND
 8
0
  0
POLYLINE
  8
0
 62
     0
 66
     1
 10
0
 20
0
 30
0.0
 40
0.75
 41
0.75
  0
VERTEX
  8
0
 10
11.992
 20
5.85243
 30
0.0
 40
0.0104167
 41
0.0104167
  0
VERTEX
  8
0
 10
12.3045
 20
5.85243
 30
0.0
 40
0.0104167
 41
0.0104167
  0
SEQEND
 8
0
  0
POLYLINE
  8
0
 62
     0
 66
     1
 10
0
 20
0
 30
0.0
 40
0.75
 41
0.75
  0
VERTEX
  8
0
 10
11.992
 20
4.88456
 30
0.0
 40
0.0104167
 41
0.0104167
  0
VERTEX
  8
0
 10
12.3045
 20
4.88456
 30
0.0
 40
0.0104167
 41
0.0104167
  0
SEQEND
 8
0
  0
POLYLINE
  8
0
 62
     7
 66
     1
 10
0
 20
0
 30
0.0
 70
     1
 40
0
 41
0
  0
VERTEX
  8
0
 10
11.992
 20
2.72444
 30
0.0
 40
0
 41
0
  0
VERTEX
  8
0
 10
12.3045
 20
2.72444
 30
0.0
 40
0
 41
0
  0
VERTEX
  8
0
 10
12.3045
 20
1.35536
 30
0.0
 40
0
 41
0
  0
VERTEX
  8
0
 10
11.992
 20
1.35536
 30
0.0
 40
0
 41
0
  0
VERTEX
  8
0
 10
11.992
 20
2.72444
 30
0.0
 40
0
 41
0
  0
SEQEND
 8
0
  0
POLYLINE
  8
0
 62
     0
 66
     1
 10
0
 20
0
 30
0.0
 70
     1
 40
0.75
 41
0.75
  0
VERTEX
  8
0
 10
11.992
 20
2.72444
 30
0.0
 40
0.0104167
 41
0.0104167
  0
VERTEX
  8
0
 10
12.3045
 20
2.72444
 30
0.0
 40
0.0104167
 41
0.0104167
  0
VERTEX
  8
0
 10
12.3045
 20
1.35536
 30
0.0
 40
0.0104167
 41
0.0104167
  0
VERTEX
  8
0
 10
11.992
 20
1.35536
 30
0.0
 40
0.0104167
 41
0.0104167
  0
VERTEX
  8
0
 10
11.992
 20
2.72444
 30
0.0
 40
0.0104167
 41
0.0104167
  0
SEQEND
 8
0
  0
POLYLINE
  8
0
 62
     7
 66
     1
 10
0
 20
0
 30
0.0
 70
     1
 40
0
 41
0
  0
VERTEX
  8
0
 10
11.992
 20
2.72444
 30
0.0
 40
0
 41
0
  0
VERTEX
  8
0
 10
12.3045
 20
2.72444
 30
0.0
 40
0
 41
0
  0
VERTEX
  8
0
 10
12.3045
 20
1.35536
 30
0.0
 40
0
 41
0
  0
VERTEX
  8
0
 10
11.992
 20
1.35536
 30
0.0
 40
0
 41
0
  0
VERTEX
  8
0
 10
11.992
 20
2.72444
 30
0.0
 40
0
 41
0
  0
SEQEND
 8
0
  0
POLYLINE
  8
0
 62
     0
 66
     1
 10
0
 20
0
 30
0.0
 70
     1
 40
0.75
 41
0.75
  0
VERTEX
  8
0
 10
11.992
 20
2.72444
 30
0.0
 40
0.0104167
 41
0.0104167
  0
VERTEX
  8
0
 10
12.3045
 20
2.72444
 30
0.0
 40
0.0104167
 41
0.0104167
  0
VERTEX
  8
0
 10
12.3045
 20
1.35536
 30
0.0
 40
0.0104167
 41
0.0104167
  0
VERTEX
  8
0
 10
11.992
 20
1.35536
 30
0.0
 40
0.0104167
 41
0.0104167
  0
VERTEX
  8
0
 10
11.992
 20
2.72444
 30
0.0
 40
0.0104167
 41
0.0104167
  0
SEQEND
 8
0
  0
POLYLINE
  8
0
 62
     0
 66
     1
 10
0
 20
0
 30
0.0
 40
0.75
 41
0.75
  0
VERTEX
  8
0
 10
12.1482
 20
2.64632
 30
0.0
 40
0.0104167
 41
0.0104167
  0
VERTEX
  8
0
 10
12.1482
 20
1.43349
 30
0.0
 40
0.0104167
 41
0.0104167
  0
SEQEND
 8
0
  0
POLYLINE
  8
0
 62
     0
 66
     1
 10
0
 20
0
 30
0.0
 40
0.75
 41
0.75
  0
VERTEX
  8
0
 10
11.992
 20
2.64632
 30
0.0
 40
0.0104167
 41
0.0104167
  0
VERTEX
  8
0
 10
12.3045
 20
2.64632
 30
0.0
 40
0.0104167
 41
0.0104167
  0
SEQEND
 8
0
  0
POLYLINE
  8
0
 62
     0
 66
     1
 10
0
 20
0
 30
0.0
 40
0.75
 41
0.75
  0
VERTEX
  8
0
 10
11.992
 20
1.43349
 30
0.0
 40
0.0104167
 41
0.0104167
  0
VERTEX
  8
0
 10
12.3045
 20
1.43349
 30
0.0
 40
0.0104167
 41
0.0104167
  0
SEQEND
 8
0
  0
POLYLINE
  8
0
 62
     0
 66
     1
 10
0
 20
0
 30
0.0
 70
     1
 40
0
 41
0
  0
VERTEX
  8
0
 10
12.3045
 20
0.917751
 30
0.0
 40
0
 41
0
  0
VERTEX
  8
0
 10
6.72846
 20
0.917751
 30
0.0
 40
0
 41
0
  0
VERTEX
  8
0
 10
6.91596
 20
1.10525
 30
0.0
 40
0
 41
0
  0
VERTEX
  8
0
 10
11.992
 20
1.10525
 30
0.0
 40
0
 41
0
  0
VERTEX
  8
0
 10
12.3045
 20
0.917751
 30
0.0
 40
0
 41
0
  0
SEQEND
 8
0
  0
POLYLINE
  8
0
 62
     0
 66
     1
 10
0
 20
0
 30
0.0
 70
     1
 40
0.15
 41
0.15
  0
VERTEX
  8
0
 10
12.3045
 20
0.917751
 30
0.0
 40
0.00208333
 41
0.00208333
  0
VERTEX
  8
0
 10
6.72846
 20
0.917751
 30
0.0
 40
0.00208333
 41
0.00208333
  0
VERTEX
  8
0
 10
6.91596
 20
1.10525
 30
0.0
 40
0.00208333
 41
0.00208333
  0
VERTEX
  8
0
 10
11.992
 20
1.10525
 30
0.0
 40
0.00208333
 41
0.00208333
  0
VERTEX
  8
0
 10
12.3045
 20
0.917751
 30
0.0
 40
0.00208333
 41
0.00208333
  0
SEQEND
 8
0
  0
POLYLINE
  8
0
 62
     7
 66
     1
 10
0
 20
0
 30
0.0
 70
     1
 40
0
 41
0
  0
VERTEX
  8
0
 10
8.14719
 20
1.10525
 30
0.0
 40
0
 41
0
  0
VERTEX
  8
0
 10
9.06179
 20
1.10525
 30
0.0
 40
0
 41
0
  0
VERTEX
  8
0
 10
9.06179
 20
0.917751
 30
0.0
 40
0
 41
0
  0
VERTEX
  8
0
 10
8.14719
 20
0.917751
 30
0.0
 40
0
 41
0
  0
VERTEX
  8
0
 10
8.14719
 20
1.10525
 30
0.0
 40
0
 41
0
  0
SEQEND
 8
0
  0
POLYLINE
  8
0
 62
     0
 66
     1
 10
0
 20
0
 30
0.0
 70
     1
 40
0.75
 41
0.75
  0
VERTEX
  8
0
 10
8.14719
 20
1.10525
 30
0.0
 40
0.0104167
 41
0.0104167
  0
VERTEX
  8
0
 10
9.06179
 20
1.10525
 30
0.0
 40
0.0104167
 41
0.0104167
  0
VERTEX
  8
0
 10
9.06179
 20
0.917751
 30
0.0
 40
0.0104167
 41
0.0104167
  0
VERTEX
  8
0
 10
8.14719
 20
0.917751
 30
0.0
 40
0.0104167
 41
0.0104167
  0
VERTEX
  8
0
 10
8.14719
 20
1.10525
 30
0.0
 40
0.0104167
 41
0.0104167
  0
SEQEND
 8
0
  0
POLYLINE
  8
0
 62
     7
 66
     1
 10
0
 20
0
 30
0.0
 70
     1
 40
0
 41
0
  0
VERTEX
  8
0
 10
8.14719
 20
1.10525
 30
0.0
 40
0
 41
0
  0
VERTEX
  8
0
 10
9.06179
 20
1.10525
 30
0.0
 40
0
 41
0
  0
VERTEX
  8
0
 10
9.06179
 20
0.917751
 30
0.0
 40
0
 41
0
  0
VERTEX
  8
0
 10
8.14719
 20
0.917751
 30
0.0
 40
0
 41
0
  0
VERTEX
  8
0
 10
8.14719
 20
1.10525
 30
0.0
 40
0
 41
0
  0
SEQEND
 8
0
  0
POLYLINE
  8
0
 62
     0
 66
     1
 10
0
 20
0
 30
0.0
 70
     1
 40
0.75
 41
0.75
  0
VERTEX
  8
0
 10
8.14719
 20
1.10525
 30
0.0
 40
0.0104167
 41
0.0104167
  0
VERTEX
  8
0
 10
9.06179
 20
1.10525
 30
0.0
 40
0.0104167
 41
0.0104167
  0
VERTEX
  8
0
 10
9.06179
 20
0.917751
 30
0.0
 40
0.0104167
 41
0.0104167
  0
VERTEX
  8
0
 10
8.14719
 20
0.917751
 30
0.0
 40
0.0104167
 41
0.0104167
  0
VERTEX
  8
0
 10
8.14719
 20
1.10525
 30
0.0
 40
0.0104167
 41
0.0104167
  0
SEQEND
 8
0
  0
POLYLINE
  8
0
 62
     0
 66
     1
 10
0
 20
0
 30
0.0
 70
     1
 40
0.75
 41
0.75
  0
VERTEX
  8
0
 10
9.06179
 20
0.917751
 30
0.0
 40
0.0104167
 41
0.0104167
  0
VERTEX
  8
0
 10
9.06179
 20
0.864204
 30
0.0
 40
0.0104167
 41
0.0104167
  0
VERTEX
  8
0
 10
9.04747
 20
0.70345
 30
0.0
 40
0.0104167
 41
0.0104167
  0
VERTEX
  8
0
 10
9.00461
 20
0.517686
 30
0.0
 40
0.0104167
 41
0.0104167
  0
VERTEX
  8
0
 10
8.93317
 20
0.36046
 30
0.0
 40
0.0104167
 41
0.0104167
  0
VERTEX
  8
0
 10
8.83311
 20
0.231879
 30
0.0
 40
0.0104167
 41
0.0104167
  0
VERTEX
  8
0
 10
8.70449
 20
0.131836
 30
0.0
 40
0.0104167
 41
0.0104167
  0
VERTEX
  8
0
 10
8.54731
 20
0.0603842
 30
0.0
 40
0.0104167
 41
0.0104167
  0
VERTEX
  8
0
 10
8.36149
 20
0.0175239
 30
0.0
 40
0.0104167
 41
0.0104167
  0
VERTEX
  8
0
 10
8.20074
 20
0.00320096
 30
0.0
 40
0.0104167
 41
0.0104167
  0
VERTEX
  8
0
 10
8.14719
 20
0.00320096
 30
0.0
 40
0.0104167
 41
0.0104167
  0
VERTEX
  8
0
 10
8.14719
 20
0.917751
 30
0.0
 40
0.0104167
 41
0.0104167
  0
VERTEX
  8
0
 10
9.06179
 20
0.917751
 30
0.0
 40
0.0104167
 41
0.0104167
  0
SEQEND
 8
0
  0
POLYLINE
  8
0
 62
     0
 66
     1
 10
0
 20
0
 30
0.0
 70
     1
 40
0
 41
0
  0
VERTEX
  8
0
 10
6.72846
 20
0.917751
 30
0.0
 40
0
 41
0
  0
VERTEX
  8
0
 10
6.72846
 20
4.63217
 30
0.0
 40
0
 41
0
  0
VERTEX
  8
0
 10
6.91596
 20
4.81967
 30
0.0
 40
0
 41
0
  0
VERTEX
  8
0
 10
6.91596
 20
1.10525
 30
0.0
 40
0
 41
0
  0
VERTEX
  8
0
 10
6.72846
 20
0.917751
 30
0.0
 40
0
 41
0
  0
SEQEND
 8
0
  0
POLYLINE
  8
0
 62
     0
 66
     1
 10
0
 20
0
 30
0.0
 70
     1
 40
0.15
 41
0.15
  0
VERTEX
  8
0
 10
6.72846
 20
0.917751
 30
0.0
 40
0.00208333
 41
0.00208333
  0
VERTEX
  8
0
 10
6.72846
 20
4.63217
 30
0.0
 40
0.00208333
 41
0.00208333
  0
VERTEX
  8
0
 10
6.91596
 20
4.81967
 30
0.0
 40
0.00208333
 41
0.00208333
  0
VERTEX
  8
0
 10
6.91596
 20
1.10525
 30
0.0
 40
0.00208333
 41
0.00208333
  0
VERTEX
  8
0
 10
6.72846
 20
0.917751
 30
0.0
 40
0.00208333
 41
0.00208333
  0
SEQEND
 8
0
  0
POLYLINE
  8
0
 62
     0
 66
     1
 10
0
 20
0
 30
0.0
 70
     1
 40
0
 41
0
  0
VERTEX
  8
0
 10
6.91596
 20
4.81967
 30
0.0
 40
0
 41
0
  0
VERTEX
  8
0
 10
2.5849
 20
4.81967
 30
0.0
 40
0
 41
0
  0
VERTEX
  8
0
 10
2.3974
 20
4.63217
 30
0.0
 40
0
 41
0
  0
VERTEX
  8
0
 10
6.72846
 20
4.63217
 30
0.0
 40
0
 41
0
  0
VERTEX
  8
0
 10
6.91596
 20
4.81967
 30
0.0
 40
0
 41
0
  0
SEQEND
 8
0
  0
POLYLINE
  8
0
 62
     0
 66
     1
 10
0
 20
0
 30
0.0
 70
     1
 40
0.15
 41
0.15
  0
VERTEX
  8
0
 10
6.91596
 20
4.81967
 30
0.0
 40
0.00208333
 41
0.00208333
  0
VERTEX
  8
0
 10
2.5849
 20
4.81967
 30
0.0
 40
0.00208333
 41
0.00208333
  0
VERTEX
  8
0
 10
2.3974
 20
4.63217
 30
0.0
 40
0.00208333
 41
0.00208333
  0
VERTEX
  8
0
 10
6.72846
 20
4.63217
 30
0.0
 40
0.00208333
 41
0.00208333
  0
VERTEX
  8
0
 10
6.91596
 20
4.81967
 30
0.0
 40
0.00208333
 41
0.00208333
  0
SEQEND
 8
0
  0
POLYLINE
  8
0
 62
     0
 66
     1
 10
0
 20
0
 30
0.0
 70
     1
 40
0
 41
0
  0
VERTEX
  8
0
 10
2.3974
 20
4.63217
 30
0.0
 40
0
 41
0
  0
VERTEX
  8
0
 10
2.3974
 20
8.92432
 30
0.0
 40
0
 41
0
  0
VERTEX
  8
0
 10
2.5849
 20
8.74724
 30
0.0
 40
0
 41
0
  0
VERTEX
  8
0
 10
2.5849
 20
4.81967
 30
0.0
 40
0
 41
0
  0
VERTEX
  8
0
 10
2.3974
 20
4.63217
 30
0.0
 40
0
 41
0
  0
SEQEND
 8
0
  0
POLYLINE
  8
0
 62
     0
 66
     1
 10
0
 20
0
 30
0.0
 70
     1
 40
0.15
 41
0.15
  0
VERTEX
  8
0
 10
2.3974
 20
4.63217
 30
0.0
 40
0.00208333
 41
0.00208333
  0
VERTEX
  8
0
 10
2.3974
 20
8.92432
 30
0.0
 40
0.00208333
 41
0.00208333
  0
VERTEX
  8
0
 10
2.5849
 20
8.74724
 30
0.0
 40
0.00208333
 41
0.00208333
  0
VERTEX
  8
0
 10
2.5849
 20
4.81967
 30
0.0
 40
0.00208333
 41
0.00208333
  0
VERTEX
  8
0
 10
2.3974
 20
4.63217
 30
0.0
 40
0.00208333
 41
0.00208333
  0
SEQEND
 8
0
  0
POLYLINE
  8
0
 62
     7
 66
     1
 10
0
 20
0
 30
0.0
 70
     1
 40
0
 41
0
  0
VERTEX
  8
0
 10
2.3974
 20
5.50217
 30
0.0
 40
0
 41
0
  0
VERTEX
  8
0
 10
2.5849
 20
5.50217
 30
0.0
 40
0
 41
0
  0
VERTEX
  8
0
 10
2.5849
 20
4.82726
 30
0.0
 40
0
 41
0
  0
VERTEX
  8
0
 10
2.3974
 20
4.82726
 30
0.0
 40
0
 41
0
  0
VERTEX
  8
0
 10
2.3974
 20
5.50217
 30
0.0
 40
0
 41
0
  0
SEQEND
 8
0
  0
POLYLINE
  8
0
 62
     0
 66
     1
 10
0
 20
0
 30
0.0
 70
     1
 40
0.75
 41
0.75
  0
VERTEX
  8
0
 10
2.3974
 20
5.50217
 30
0.0
 40
0.0104167
 41
0.0104167
  0
VERTEX
  8
0
 10
2.5849
 20
5.50217
 30
0.0
 40
0.0104167
 41
0.0104167
  0
VERTEX
  8
0
 10
2.5849
 20
4.82726
 30
0.0
 40
0.0104167
 41
0.0104167
  0
VERTEX
  8
0
 10
2.3974
 20
4.82726
 30
0.0
 40
0.0104167
 41
0.0104167
  0
VERTEX
  8
0
 10
2.3974
 20
5.50217
 30
0.0
 40
0.0104167
 41
0.0104167
  0
SEQEND
 8
0
  0
POLYLINE
  8
0
 62
     7
 66
     1
 10
0
 20
0
 30
0.0
 70
     1
 40
0
 41
0
  0
VERTEX
  8
0
 10
2.3974
 20
5.50217
 30
0.0
 40
0
 41
0
  0
VERTEX
  8
0
 10
2.5849
 20
5.50217
 30
0.0
 40
0
 41
0
  0
VERTEX
  8
0
 10
2.5849
 20
4.82726
 30
0.0
 40
0
 41
0
  0
VERTEX
  8
0
 10
2.3974
 20
4.82726
 30
0.0
 40
0
 41
0
  0
VERTEX
  8
0
 10
2.3974
 20
5.50217
 30
0.0
 40
0
 41
0
  0
SEQEND
 8
0
  0
POLYLINE
  8
0
 62
     0
 66
     1
 10
0
 20
0
 30
0.0
 70
     1
 40
0.75
 41
0.75
  0
VERTEX
  8
0
 10
2.3974
 20
5.50217
 30
0.0
 40
0.0104167
 41
0.0104167
  0
VERTEX
  8
0
 10
2.5849
 20
5.50217
 30
0.0
 40
0.0104167
 41
0.0104167
  0
VERTEX
  8
0
 10
2.5849
 20
4.82726
 30
0.0
 40
0.0104167
 41
0.0104167
  0
VERTEX
  8
0
 10
2.3974
 20
4.82726
 30
0.0
 40
0.0104167
 41
0.0104167
  0
VERTEX
  8
0
 10
2.3974
 20
5.50217
 30
0.0
 40
0.0104167
 41
0.0104167
  0
SEQEND
 8
0
  0
POLYLINE
  8
0
 62
     0
 66
     1
 10
0
 20
0
 30
0.0
 40
0.75
 41
0.75
  0
VERTEX
  8
0
 10
2.4911
 20
4.90543
 30
0.0
 40
0.0104167
 41
0.0104167
  0
VERTEX
  8
0
 10
2.4911
 20
5.42399
 30
0.0
 40
0.0104167
 41
0.0104167
  0
SEQEND
 8
0
  0
POLYLINE
  8
0
 62
     0
 66
     1
 10
0
 20
0
 30
0.0
 40
0.75
 41
0.75
  0
VERTEX
  8
0
 10
2.39735
 20
4.90543
 30
0.0
 40
0.0104167
 41
0.0104167
  0
VERTEX
  8
0
 10
2.58485
 20
4.90543
 30
0.0
 40
0.0104167
 41
0.0104167
  0
SEQEND
 8
0
  0
POLYLINE
  8
0
 62
     0
 66
     1
 10
0
 20
0
 30
0.0
 40
0.75
 41
0.75
  0
VERTEX
  8
0
 10
2.39735
 20
5.42399
 30
0.0
 40
0.0104167
 41
0.0104167
  0
VERTEX
  8
0
 10
2.58485
 20
5.42399
 30
0.0
 40
0.0104167
 41
0.0104167
  0
SEQEND
 8
0
  0
POLYLINE
  8
0
 62
     7
 66
     1
 10
0
 20
0
 30
0.0
 70
     1
 40
0
 41
0
  0
VERTEX
  8
0
 10
2.3974
 20
7.55528
 30
0.0
 40
0
 41
0
  0
VERTEX
  8
0
 10
2.5849
 20
7.55528
 30
0.0
 40
0
 41
0
  0
VERTEX
  8
0
 10
2.5849
 20
5.50217
 30
0.0
 40
0
 41
0
  0
VERTEX
  8
0
 10
2.3974
 20
5.50217
 30
0.0
 40
0
 41
0
  0
VERTEX
  8
0
 10
2.3974
 20
7.55528
 30
0.0
 40
0
 41
0
  0
SEQEND
 8
0
  0
POLYLINE
  8
0
 62
     0
 66
     1
 10
0
 20
0
 30
0.0
 70
     1
 40
0.75
 41
0.75
  0
VERTEX
  8
0
 10
2.3974
 20
7.55528
 30
0.0
 40
0.0104167
 41
0.0104167
  0
VERTEX
  8
0
 10
2.5849
 20
7.55528
 30
0.0
 40
0.0104167
 41
0.0104167
  0
VERTEX
  8
0
 10
2.5849
 20
5.50217
 30
0.0
 40
0.0104167
 41
0.0104167
  0
VERTEX
  8
0
 10
2.3974
 20
5.50217
 30
0.0
 40
0.0104167
 41
0.0104167
  0
VERTEX
  8
0
 10
2.3974
 20
7.55528
 30
0.0
 40
0.0104167
 41
0.0104167
  0
SEQEND
 8
0
  0
POLYLINE
  8
0
 62
     7
 66
     1
 10
0
 20
0
 30
0.0
 70
     1
 40
0
 41
0
  0
VERTEX
  8
0
 10
2.3974
 20
7.55528
 30
0.0
 40
0
 41
0
  0
VERTEX
  8
0
 10
2.5849
 20
7.55528
 30
0.0
 40
0
 41
0
  0
VERTEX
  8
0
 10
2.5849
 20
5.50217
 30
0.0
 40
0
 41
0
  0
VERTEX
  8
0
 10
2.3974
 20
5.50217
 30
0.0
 40
0
 41
0
  0
VERTEX
  8
0
 10
2.3974
 20
7.55528
 30
0.0
 40
0
 41
0
  0
SEQEND
 8
0
  0
POLYLINE
  8
0
 62
     0
 66
     1
 10
0
 20
0
 30
0.0
 70
     1
 40
0.75
 41
0.75
  0
VERTEX
  8
0
 10
2.3974
 20
7.55528
 30
0.0
 40
0.0104167
 41
0.0104167
  0
VERTEX
  8
0
 10
2.5849
 20
7.55528
 30
0.0
 40
0.0104167
 41
0.0104167
  0
VERTEX
  8
0
 10
2.5849
 20
5.50217
 30
0.0
 40
0.0104167
 41
0.0104167
  0
VERTEX
  8
0
 10
2.3974
 20
5.50217
 30
0.0
 40
0.0104167
 41
0.0104167
  0
VERTEX
  8
0
 10
2.3974
 20
7.55528
 30
0.0
 40
0.0104167
 41
0.0104167
  0
SEQEND
 8
0
  0
POLYLINE
  8
0
 62
     0
 66
     1
 10
0
 20
0
 30
0.0
 40
0.75
 41
0.75
  0
VERTEX
  8
0
 10
2.4911
 20
5.58024
 30
0.0
 40
0.0104167
 41
0.0104167
  0
VERTEX
  8
0
 10
2.4911
 20
7.47715
 30
0.0
 40
0.0104167
 41
0.0104167
  0
SEQEND
 8
0
  0
POLYLINE
  8
0
 62
     0
 66
     1
 10
0
 20
0
 30
0.0
 40
0.75
 41
0.75
  0
VERTEX
  8
0
 10
2.39735
 20
5.58024
 30
0.0
 40
0.0104167
 41
0.0104167
  0
VERTEX
  8
0
 10
2.58485
 20
5.58024
 30
0.0
 40
0.0104167
 41
0.0104167
  0
SEQEND
 8
0
  0
POLYLINE
  8
0
 62
     0
 66
     1
 10
0
 20
0
 30
0.0
 40
0.75
 41
0.75
  0
VERTEX
  8
0
 10
2.39735
 20
7.47715
 30
0.0
 40
0.0104167
 41
0.0104167
  0
VERTEX
  8
0
 10
2.58485
 20
7.47715
 30
0.0
 40
0.0104167
 41
0.0104167
  0
SEQEND
 8
0
  0
POLYLINE
  8
0
 62
     7
 66
     1
 10
0
 20
0
 30
0.0
 70
     1
 40
0
 41
0
  0
VERTEX
  8
0
 10
2.3974
 20
8.45296
 30
0.0
 40
0
 41
0
  0
VERTEX
  8
0
 10
2.5849
 20
8.45296
 30
0.0
 40
0
 41
0
  0
VERTEX
  8
0
 10
2.5849
 20
7.61893
 30
0.0
 40
0
 41
0
  0
VERTEX
  8
0
 10
2.3974
 20
7.61893
 30
0.0
 40
0
 41
0
  0
VERTEX
  8
0
 10
2.3974
 20
8.45296
 30
0.0
 40
0
 41
0
  0
SEQEND
 8
0
  0
POLYLINE
  8
0
 62
     0
 66
     1
 10
0
 20
0
 30
0.0
 70
     1
 40
0.75
 41
0.75
  0
VERTEX
  8
0
 10
2.3974
 20
8.45296
 30
0.0
 40
0.0104167
 41
0.0104167
  0
VERTEX
  8
0
 10
2.5849
 20
8.45296
 30
0.0
 40
0.0104167
 41
0.0104167
  0
VERTEX
  8
0
 10
2.5849
 20
7.61893
 30
0.0
 40
0.0104167
 41
0.0104167
  0
VERTEX
  8
0
 10
2.3974
 20
7.61893
 30
0.0
 40
0.0104167
 41
0.0104167
  0
VERTEX
  8
0
 10
2.3974
 20
8.45296
 30
0.0
 40
0.0104167
 41
0.0104167
  0
SEQEND
 8
0
  0
POLYLINE
  8
0
 62
     7
 66
     1
 10
0
 20
0
 30
0.0
 70
     1
 40
0
 41
0
  0
VERTEX
  8
0
 10
2.3974
 20
8.45296
 30
0.0
 40
0
 41
0
  0
VERTEX
  8
0
 10
2.5849
 20
8.45296
 30
0.0
 40
0
 41
0
  0
VERTEX
  8
0
 10
2.5849
 20
7.61893
 30
0.0
 40
0
 41
0
  0
VERTEX
  8
0
 10
2.3974
 20
7.61893
 30
0.0
 40
0
 41
0
  0
VERTEX
  8
0
 10
2.3974
 20
8.45296
 30
0.0
 40
0
 41
0
  0
SEQEND
 8
0
  0
POLYLINE
  8
0
 62
     0
 66
     1
 10
0
 20
0
 30
0.0
 70
     1
 40
0.75
 41
0.75
  0
VERTEX
  8
0
 10
2.3974
 20
8.45296
 30
0.0
 40
0.0104167
 41
0.0104167
  0
VERTEX
  8
0
 10
2.5849
 20
8.45296
 30
0.0
 40
0.0104167
 41
0.0104167
  0
VERTEX
  8
0
 10
2.5849
 20
7.61893
 30
0.0
 40
0.0104167
 41
0.0104167
  0
VERTEX
  8
0
 10
2.3974
 20
7.61893
 30
0.0
 40
0.0104167
 41
0.0104167
  0
VERTEX
  8
0
 10
2.3974
 20
8.45296
 30
0.0
 40
0.0104167
 41
0.0104167
  0
SEQEND
 8
0
  0
POLYLINE
  8
0
 62
     0
 66
     1
 10
0
 20
0
 30
0.0
 70
     1
 40
0.75
 41
0.75
  0
VERTEX
  8
0
 10
2.3974
 20
7.61893
 30
0.0
 40
0.0104167
 41
0.0104167
  0
VERTEX
  8
0
 10
2.34853
 20
7.61893
 30
0.0
 40
0.0104167
 41
0.0104167
  0
VERTEX
  8
0
 10
2.20193
 20
7.632
 30
0.0
 40
0.0104167
 41
0.0104167
  0
VERTEX
  8
0
 10
2.0325
 20
7.67106
 30
0.0
 40
0.0104167
 41
0.0104167
  0
VERTEX
  8
0
 10
1.88917
 20
7.73622
 30
0.0
 40
0.0104167
 41
0.0104167
  0
VERTEX
  8
0
 10
1.77192
 20
7.82742
 30
0.0
 40
0.0104167
 41
0.0104167
  0
VERTEX
  8
0
 10
1.68067
 20
7.94472
 30
0.0
 40
0.0104167
 41
0.0104167
  0
VERTEX
  8
0
 10
1.6155
 20
8.08806
 30
0.0
 40
0.0104167
 41
0.0104167
  0
VERTEX
  8
0
 10
1.57644
 20
8.25749
 30
0.0
 40
0.0104167
 41
0.0104167
  0
VERTEX
  8
0
 10
1.56342
 20
8.40408
 30
0.0
 40
0.0104167
 41
0.0104167
  0
VERTEX
  8
0
 10
1.56342
 20
8.4529
 30
0.0
 40
0.0104167
 41
0.0104167
  0
VERTEX
  8
0
 10
2.3974
 20
8.4529
 30
0.0
 40
0.0104167
 41
0.0104167
  0
VERTEX
  8
0
 10
2.3974
 20
7.61893
 30
0.0
 40
0.0104167
 41
0.0104167
  0
SEQEND
 8
0
  0
POLYLINE
  8
0
 62
     0
 66
     1
 10
0
 20
0
 30
0.0
 70
     1
 40
0
 41
0
  0
VERTEX
  8
0
 10
6.91596
 20
4.81967
 30
0.0
 40
0
 41
0
  0
VERTEX
  8
0
 10
7.43332
 20
4.81967
 30
0.0
 40
0
 41
0
  0
VERTEX
  8
0
 10
7.43332
 20
4.63217
 30
0.0
 40
0
 41
0
  0
VERTEX
  8
0
 10
6.91596
 20
4.63217
 30
0.0
 40
0
 41
0
  0
VERTEX
  8
0
 10
6.91596
 20
4.81967
 30
0.0
 40
0
 41
0
  0
SEQEND
 8
0
  0
POLYLINE
  8
0
 62
     0
 66
     1
 10
0
 20
0
 30
0.0
 70
     1
 40
0.15
 41
0.15
  0
VERTEX
  8
0
 10
6.91596
 20
4.81967
 30
0.0
 40
0.00208333
 41
0.00208333
  0
VERTEX
  8
0
 10
7.43332
 20
4.81967
 30
0.0
 40
0.00208333
 41
0.00208333
  0
VERTEX
  8
0
 10
7.43332
 20
4.63217
 30
0.0
 40
0.00208333
 41
0.00208333
  0
VERTEX
  8
0
 10
6.91596
 20
4.63217
 30
0.0
 40
0.00208333
 41
0.00208333
  0
VERTEX
  8
0
 10
6.91596
 20
4.81967
 30
0.0
 40
0.00208333
 41
0.00208333
  0
SEQEND
 8
0
  0
POLYLINE
  8
0
 62
     0
 66
     1
 10
0
 20
0
 30
0.0
 70
     1
 40
0
 41
0
  0
VERTEX
  8
0
 10
6.852
 20
8.92432
 30
0.0
 40
0
 41
0
  0
VERTEX
  8
0
 10
12.3045
 20
8.92432
 30
0.0
 40
0
 41
0
  0
VERTEX
  8
0
 10
12.3045
 20
8.74724
 30
0.0
 40
0
 41
0
  0
VERTEX
  8
0
 10
6.852
 20
8.74724
 30
0.0
 40
0
 41
0
  0
VERTEX
  8
0
 10
6.852
 20
8.92432
 30
0.0
 40
0
 41
0
  0
SEQEND
 8
0
  0
POLYLINE
  8
0
 62
     0
 66
     1
 10
0
 20
0
 30
0.0
 70
     1
 40
0.15
 41
0.15
  0
VERTEX
  8
0
 10
6.852
 20
8.92432
 30
0.0
 40
0.00208333
 41
0.00208333
  0
VERTEX
  8
0
 10
12.3045
 20
8.92432
 30
0.0
 40
0.00208333
 41
0.00208333
  0
VERTEX
  8
0
 10
12.3045
 20
8.74724
 30
0.0
 40
0.00208333
 41
0.00208333
  0
VERTEX
  8
0
 10
6.852
 20
8.74724
 30
0.0
 40
0.00208333
 41
0.00208333
  0
VERTEX
  8
0
 10
6.852
 20
8.92432
 30
0.0
 40
0.00208333
 41
0.00208333
  0
SEQEND
 8
0
  0
POLYLINE
  8
0
 62
     7
 66
     1
 10
0
 20
0
 30
0.0
 70
     1
 40
0
 41
0
  0
VERTEX
  8
0
 10
7.55126
 20
8.92432
 30
0.0
 40
0
 41
0
  0
VERTEX
  8
0
 10
8.29531
 20
8.92432
 30
0.0
 40
0
 41
0
  0
VERTEX
  8
0
 10
8.29531
 20
8.74724
 30
0.0
 40
0
 41
0
  0
VERTEX
  8
0
 10
7.55126
 20
8.74724
 30
0.0
 40
0
 41
0
  0
VERTEX
  8
0
 10
7.55126
 20
8.92432
 30
0.0
 40
0
 41
0
  0
SEQEND
 8
0
  0
POLYLINE
  8
0
 62
     0
 66
     1
 10
0
 20
0
 30
0.0
 70
     1
 40
0.75
 41
0.75
  0
VERTEX
  8
0
 10
7.55126
 20
8.92432
 30
0.0
 40
0.0104167
 41
0.0104167
  0
VERTEX
  8
0
 10
8.29531
 20
8.92432
 30
0.0
 40
0.0104167
 41
0.0104167
  0
VERTEX
  8
0
 10
8.29531
 20
8.74724
 30
0.0
 40
0.0104167
 41
0.0104167
  0
VERTEX
  8
0
 10
7.55126
 20
8.74724
 30
0.0
 40
0.0104167
 41
0.0104167
  0
VERTEX
  8
0
 10
7.55126
 20
8.92432
 30
0.0
 40
0.0104167
 41
0.0104167
  0
SEQEND
 8
0
  0
POLYLINE
  8
0
 62
     7
 66
     1
 10
0
 20
0
 30
0.0
 70
     1
 40
0
 41
0
  0
VERTEX
  8
0
 10
7.55126
 20
8.92432
 30
0.0
 40
0
 41
0
  0
VERTEX
  8
0
 10
8.29531
 20
8.92432
 30
0.0
 40
0
 41
0
  0
VERTEX
  8
0
 10
8.29531
 20
8.74724
 30
0.0
 40
0
 41
0
  0
VERTEX
  8
0
 10
7.55126
 20
8.74724
 30
0.0
 40
0
 41
0
  0
VERTEX
  8
0
 10
7.55126
 20
8.92432
 30
0.0
 40
0
 41
0
  0
SEQEND
 8
0
  0
POLYLINE
  8
0
 62
     0
 66
     1
 10
0
 20
0
 30
0.0
 70
     1
 40
0.75
 41
0.75
  0
VERTEX
  8
0
 10
7.55126
 20
8.92432
 30
0.0
 40
0.0104167
 41
0.0104167
  0
VERTEX
  8
0
 10
8.29531
 20
8.92432
 30
0.0
 40
0.0104167
 41
0.0104167
  0
VERTEX
  8
0
 10
8.29531
 20
8.74724
 30
0.0
 40
0.0104167
 41
0.0104167
  0
VERTEX
  8
0
 10
7.55126
 20
8.74724
 30
0.0
 40
0.0104167
 41
0.0104167
  0
VERTEX
  8
0
 10
7.55126
 20
8.92432
 30
0.0
 40
0.0104167
 41
0.0104167
  0
SEQEND
 8
0
  0
POLYLINE
  8
0
 62
     0
 66
     1
 10
0
 20
0
 30
0.0
 70
     1
 40
0.75
 41
0.75
  0
VERTEX
  8
0
 10
8.29531
 20
8.92432
 30
0.0
 40
0.0104167
 41
0.0104167
  0
VERTEX
  8
0
 10
8.29531
 20
8.96793
 30
0.0
 40
0.0104167
 41
0.0104167
  0
VERTEX
  8
0
 10
8.28364
 20
9.09874
 30
0.0
 40
0.0104167
 41
0.0104167
  0
VERTEX
  8
0
 10
8.24875
 20
9.24989
 30
0.0
 40
0.0104167
 41
0.0104167
  0
VERTEX
  8
0
 10
8.19065
 20
9.37776
 30
0.0
 40
0.0104167
 41
0.0104167
  0
VERTEX
  8
0
 10
8.10926
 20
9.48242
 30
0.0
 40
0.0104167
 41
0.0104167
  0
VERTEX
  8
0
 10
8.00467
 20
9.56381
 30
0.0
 40
0.0104167
 41
0.0104167
  0
VERTEX
  8
0
 10
7.87679
 20
9.6219
 30
0.0
 40
0.0104167
 41
0.0104167
  0
VERTEX
  8
0
 10
7.72564
 20
9.65679
 30
0.0
 40
0.0104167
 41
0.0104167
  0
VERTEX
  8
0
 10
7.59483
 20
9.6684
 30
0.0
 40
0.0104167
 41
0.0104167
  0
VERTEX
  8
0
 10
7.55126
 20
9.6684
 30
0.0
 40
0.0104167
 41
0.0104167
  0
VERTEX
  8
0
 10
7.55126
 20
8.92432
 30
0.0
 40
0.0104167
 41
0.0104167
  0
VERTEX
  8
0
 10
8.29531
 20
8.92432
 30
0.0
 40
0.0104167
 41
0.0104167
  0
SEQEND
 8
0
  0
POLYLINE
  8
0
 62
     0
 66
     1
 10
0
 20
0
 30
0.0
 70
     1
 40
0
 41
0
  0
VERTEX
  8
0
 10
8.34532
 20
6.61089
 30
0.0
 40
0
 41
0
  0
VERTEX
  8
0
 10
8.46029
 20
6.61089
 30
0.0
 40
0
 41
0
  0
VERTEX
  8
0
 10
8.46029
 20
4.63217
 30
0.0
 40
0
 41
0
  0
VERTEX
  8
0
 10
8.34532
 20
4.63217
 30
0.0
 40
0
 41
0
  0
VERTEX
  8
0
 10
8.34532
 20
6.61089
 30
0.0
 40
0
 41
0
  0
SEQEND
 8
0
  0
POLYLINE
  8
0
 62
     0
 66
     1
 10
0
 20
0
 30
0.0
 70
     1
 40
0.15
 41
0.15
  0
VERTEX
  8
0
 10
8.34532
 20
6.61089
 30
0.0
 40
0.00208333
 41
0.00208333
  0
VERTEX
  8
0
 10
8.46029
 20
6.61089
 30
0.0
 40
0.00208333
 41
0.00208333
  0
VERTEX
  8
0
 10
8.46029
 20
4.63217
 30
0.0
 40
0.00208333
 41
0.00208333
  0
VERTEX
  8
0
 10
8.34532
 20
4.63217
 30
0.0
 40
0.00208333
 41
0.00208333
  0
VERTEX
  8
0
 10
8.34532
 20
6.61089
 30
0.0
 40
0.00208333
 41
0.00208333
  0
SEQEND
 8
0
  0
POLYLINE
  8
0
 62
     0
 66
     1
 10
0
 20
0
 30
0.0
 70
     1
 40
0
 41
0
  0
VERTEX
  8
0
 10
11.5546
 20
4.18039
 30
0.0
 40
0
 41
0
  0
VERTEX
  8
0
 10
9.37717
 20
4.18039
 30
0.0
 40
0
 41
0
  0
VERTEX
  8
0
 10
9.48133
 20
4.00331
 30
0.0
 40
0
 41
0
  0
VERTEX
  8
0
 10
11.5546
 20
4.00331
 30
0.0
 40
0
 41
0
  0
VERTEX
  8
0
 10
11.5546
 20
4.18039
 30
0.0
 40
0
 41
0
  0
SEQEND
 8
0
  0
POLYLINE
  8
0
 62
     0
 66
     1
 10
0
 20
0
 30
0.0
 70
     1
 40
0.15
 41
0.15
  0
VERTEX
  8
0
 10
11.5546
 20
4.18039
 30
0.0
 40
0.00208333
 41
0.00208333
  0
VERTEX
  8
0
 10
9.37717
 20
4.18039
 30
0.0
 40
0.00208333
 41
0.00208333
  0
VERTEX
  8
0
 10
9.48133
 20
4.00331
 30
0.0
 40
0.00208333
 41
0.00208333
  0
VERTEX
  8
0
 10
11.5546
 20
4.00331
 30
0.0
 40
0.00208333
 41
0.00208333
  0
VERTEX
  8
0
 10
11.5546
 20
4.18039
 30
0.0
 40
0.00208333
 41
0.00208333
  0
SEQEND
 8
0
  0
POLYLINE
  8
0
 62
     0
 66
     1
 10
0
 20
0
 30
0.0
 70
     1
 40
0
 41
0
  0
VERTEX
  8
0
 10
9.37717
 20
4.18039
 30
0.0
 40
0
 41
0
  0
VERTEX
  8
0
 10
9.37717
 20
0.917751
 30
0.0
 40
0
 41
0
  0
VERTEX
  8
0
 10
9.48133
 20
0.917751
 30
0.0
 40
0
 41
0
  0
VERTEX
  8
0
 10
9.48133
 20
4.00331
 30
0.0
 40
0
 41
0
  0
VERTEX
  8
0
 10
9.37717
 20
4.18039
 30
0.0
 40
0
 41
0
  0
SEQEND
 8
0
  0
POLYLINE
  8
0
 62
     0
 66
     1
 10
0
 20
0
 30
0.0
 70
     1
 40
0.15
 41
0.15
  0
VERTEX
  8
0
 10
9.37717
 20
4.18039
 30
0.0
 40
0.00208333
 41
0.00208333
  0
VERTEX
  8
0
 10
9.37717
 20
0.917751
 30
0.0
 40
0.00208333
 41
0.00208333
  0
VERTEX
  8
0
 10
9.48133
 20
0.917751
 30
0.0
 40
0.00208333
 41
0.00208333
  0
VERTEX
  8
0
 10
9.48133
 20
4.00331
 30
0.0
 40
0.00208333
 41
0.00208333
  0
VERTEX
  8
0
 10
9.37717
 20
4.18039
 30
0.0
 40
0.00208333
 41
0.00208333
  0
SEQEND
 8
0
  0
POLYLINE
  8
0
 62
     7
 66
     1
 10
0
 20
0
 30
0.0
 70
     1
 40
0
 41
0
  0
VERTEX
  8
0
 10
9.37717
 20
3.53765
 30
0.0
 40
0
 41
0
  0
VERTEX
  8
0
 10
9.48133
 20
3.53765
 30
0.0
 40
0
 41
0
  0
VERTEX
  8
0
 10
9.48133
 20
2.88444
 30
0.0
 40
0
 41
0
  0
VERTEX
  8
0
 10
9.37717
 20
2.88444
 30
0.0
 40
0
 41
0
  0
VERTEX
  8
0
 10
9.37717
 20
3.53765
 30
0.0
 40
0
 41
0
  0
SEQEND
 8
0
  0
POLYLINE
  8
0
 62
     0
 66
     1
 10
0
 20
0
 30
0.0
 70
     1
 40
0.75
 41
0.75
  0
VERTEX
  8
0
 10
9.37717
 20
3.53765
 30
0.0
 40
0.0104167
 41
0.0104167
  0
VERTEX
  8
0
 10
9.48133
 20
3.53765
 30
0.0
 40
0.0104167
 41
0.0104167
  0
VERTEX
  8
0
 10
9.48133
 20
2.88444
 30
0.0
 40
0.0104167
 41
0.0104167
  0
VERTEX
  8
0
 10
9.37717
 20
2.88444
 30
0.0
 40
0.0104167
 41
0.0104167
  0
VERTEX
  8
0
 10
9.37717
 20
3.53765
 30
0.0
 40
0.0104167
 41
0.0104167
  0
SEQEND
 8
0
  0
POLYLINE
  8
0
 62
     7
 66
     1
 10
0
 20
0
 30
0.0
 70
     1
 40
0
 41
0
  0
VERTEX
  8
0
 10
9.37717
 20
3.53765
 30
0.0
 40
0
 41
0
  0
VERTEX
  8
0
 10
9.48133
 20
3.53765
 30
0.0
 40
0
 41
0
  0
VERTEX
  8
0
 10
9.48133
 20
2.88444
 30
0.0
 40
0
 41
0
  0
VERTEX
  8
0
 10
9.37717
 20
2.88444
 30
0.0
 40
0
 41
0
  0
VERTEX
  8
0
 10
9.37717
 20
3.53765
 30
0.0
 40
0
 41
0
  0
SEQEND
 8
0
  0
POLYLINE
  8
0
 62
     0
 66
     1
 10
0
 20
0
 30
0.0
 70
     1
 40
0.75
 41
0.75
  0
VERTEX
  8
0
 10
9.37717
 20
3.53765
 30
0.0
 40
0.0104167
 41
0.0104167
  0
VERTEX
  8
0
 10
9.48133
 20
3.53765
 30
0.0
 40
0.0104167
 41
0.0104167
  0
VERTEX
  8
0
 10
9.48133
 20
2.88444
 30
0.0
 40
0.0104167
 41
0.0104167
  0
VERTEX
  8
0
 10
9.37717
 20
2.88444
 30
0.0
 40
0.0104167
 41
0.0104167
  0
VERTEX
  8
0
 10
9.37717
 20
3.53765
 30
0.0
 40
0.0104167
 41
0.0104167
  0
SEQEND
 8
0
  0
POLYLINE
  8
0
 62
     0
 66
     1
 10
0
 20
0
 30
0.0
 70
     1
 40
0.75
 41
0.75
  0
VERTEX
  8
0
 10
9.37717
 20
3.53765
 30
0.0
 40
0.0104167
 41
0.0104167
  0
VERTEX
  8
0
 10
9.33886
 20
3.53765
 30
0.0
 40
0.0104167
 41
0.0104167
  0
VERTEX
  8
0
 10
9.22401
 20
3.52746
 30
0.0
 40
0.0104167
 41
0.0104167
  0
VERTEX
  8
0
 10
9.09131
 20
3.49685
 30
0.0
 40
0.0104167
 41
0.0104167
  0
VERTEX
  8
0
 10
8.979
 20
3.44581
 30
0.0
 40
0.0104167
 41
0.0104167
  0
VERTEX
  8
0
 10
8.88715
 20
3.37435
 30
0.0
 40
0.0104167
 41
0.0104167
  0
VERTEX
  8
0
 10
8.81569
 20
3.2825
 30
0.0
 40
0.0104167
 41
0.0104167
  0
VERTEX
  8
0
 10
8.76465
 20
3.17019
 30
0.0
 40
0.0104167
 41
0.0104167
  0
VERTEX
  8
0
 10
8.73406
 20
3.03749
 30
0.0
 40
0.0104167
 41
0.0104167
  0
VERTEX
  8
0
 10
8.72385
 20
2.92264
 30
0.0
 40
0.0104167
 41
0.0104167
  0
VERTEX
  8
0
 10
8.72385
 20
2.88433
 30
0.0
 40
0.0104167
 41
0.0104167
  0
VERTEX
  8
0
 10
9.37717
 20
2.88433
 30
0.0
 40
0.0104167
 41
0.0104167
  0
VERTEX
  8
0
 10
9.37717
 20
3.53765
 30
0.0
 40
0.0104167
 41
0.0104167
  0
SEQEND
 8
0
  0
POLYLINE
  8
0
 62
     0
 66
     1
 10
0
 20
0
 30
0.0
 70
     1
 40
0
 41
0
  0
VERTEX
  8
0
 10
12.3045
 20
2.83832
 30
0.0
 40
0
 41
0
  0
VERTEX
  8
0
 10
11.1341
 20
2.83832
 30
0.0
 40
0
 41
0
  0
VERTEX
  8
0
 10
11.221
 20
2.73415
 30
0.0
 40
0
 41
0
  0
VERTEX
  8
0
 10
12.3045
 20
2.73415
 30
0.0
 40
0
 41
0
  0
VERTEX
  8
0
 10
12.3045
 20
2.83832
 30
0.0
 40
0
 41
0
  0
SEQEND
 8
0
  0
POLYLINE
  8
0
 62
     0
 66
     1
 10
0
 20
0
 30
0.0
 70
     1
 40
0.15
 41
0.15
  0
VERTEX
  8
0
 10
12.3045
 20
2.83832
 30
0.0
 40
0.00208333
 41
0.00208333
  0
VERTEX
  8
0
 10
11.1341
 20
2.83832
 30
0.0
 40
0.00208333
 41
0.00208333
  0
VERTEX
  8
0
 10
11.221
 20
2.73415
 30
0.0
 40
0.00208333
 41
0.00208333
  0
VERTEX
  8
0
 10
12.3045
 20
2.73415
 30
0.0
 40
0.00208333
 41
0.00208333
  0
VERTEX
  8
0
 10
12.3045
 20
2.83832
 30
0.0
 40
0.00208333
 41
0.00208333
  0
SEQEND
 8
0
  0
POLYLINE
  8
0
 62
     0
 66
     1
 10
0
 20
0
 30
0.0
 70
     1
 40
0
 41
0
  0
VERTEX
  8
0
 10
9.37717
 20
2.83832
 30
0.0
 40
0
 41
0
  0
VERTEX
  8
0
 10
10.3417
 20
2.83832
 30
0.0
 40
0
 41
0
  0
VERTEX
  8
0
 10
10.3417
 20
2.73415
 30
0.0
 40
0
 41
0
  0
VERTEX
  8
0
 10
9.37717
 20
2.73415
 30
0.0
 40
0
 41
0
  0
VERTEX
  8
0
 10
9.37717
 20
2.83832
 30
0.0
 40
0
 41
0
  0
SEQEND
 8
0
  0
POLYLINE
  8
0
 62
     0
 66
     1
 10
0
 20
0
 30
0.0
 70
     1
 40
0.15
 41
0.15
  0
VERTEX
  8
0
 10
9.37717
 20
2.83832
 30
0.0
 40
0.00208333
 41
0.00208333
  0
VERTEX
  8
0
 10
10.3417
 20
2.83832
 30
0.0
 40
0.00208333
 41
0.00208333
  0
VERTEX
  8
0
 10
10.3417
 20
2.73415
 30
0.0
 40
0.00208333
 41
0.00208333
  0
VERTEX
  8
0
 10
9.37717
 20
2.73415
 30
0.0
 40
0.00208333
 41
0.00208333
  0
VERTEX
  8
0
 10
9.37717
 20
2.83832
 30
0.0
 40
0.00208333
 41
0.00208333
  0
SEQEND
 8
0
  0
POLYLINE
  8
0
 62
     0
 66
     1
 10
0
 20
0
 30
0.0
 70
     1
 40
0
 41
0
  0
VERTEX
  8
0
 10
11.5546
 20
4.18039
 30
0.0
 40
0
 41
0
  0
VERTEX
  8
0
 10
12.3045
 20
4.18039
 30
0.0
 40
0
 41
0
  0
VERTEX
  8
0
 10
12.3045
 20
2.73432
 30
0.0
 40
0
 41
0
  0
VERTEX
  8
0
 10
11.5546
 20
2.73432
 30
0.0
 40
0
 41
0
  0
VERTEX
  8
0
 10
11.5546
 20
4.18039
 30
0.0
 40
0
 41
0
  0
SEQEND
 8
0
  0
POLYLINE
  8
0
 62
     0
 66
     1
 10
0
 20
0
 30
0.0
 70
     1
 40
0.15
 41
0.15
  0
VERTEX
  8
0
 10
11.5546
 20
4.18039
 30
0.0
 40
0.00208333
 41
0.00208333
  0
VERTEX
  8
0
 10
12.3045
 20
4.18039
 30
0.0
 40
0.00208333
 41
0.00208333
  0
VERTEX
  8
0
 10
12.3045
 20
2.73432
 30
0.0
 40
0.00208333
 41
0.00208333
  0
VERTEX
  8
0
 10
11.5546
 20
2.73432
 30
0.0
 40
0.00208333
 41
0.00208333
  0
VERTEX
  8
0
 10
11.5546
 20
4.18039
 30
0.0
 40
0.00208333
 41
0.00208333
  0
SEQEND
 8
0
  0
POLYLINE
  8
0
 62
     0
 66
     1
 10
0
 20
0
 30
0.0
 70
     1
 40
0
 41
0
  0
VERTEX
  8
0
 10
10.6842
 20
1.96382
 30
0.0
 40
0
 41
0
  0
VERTEX
  8
0
 10
10.6842
 20
0.917751
 30
0.0
 40
0
 41
0
  0
VERTEX
  8
0
 10
10.8092
 20
0.917751
 30
0.0
 40
0
 41
0
  0
VERTEX
  8
0
 10
10.8092
 20
1.9336
 30
0.0
 40
0
 41
0
  0
VERTEX
  8
0
 10
10.6842
 20
1.96382
 30
0.0
 40
0
 41
0
  0
SEQEND
 8
0
  0
POLYLINE
  8
0
 62
     0
 66
     1
 10
0
 20
0
 30
0.0
 70
     1
 40
0.15
 41
0.15
  0
VERTEX
  8
0
 10
10.6842
 20
1.96382
 30
0.0
 40
0.00208333
 41
0.00208333
  0
VERTEX
  8
0
 10
10.6842
 20
0.917751
 30
0.0
 40
0.00208333
 41
0.00208333
  0
VERTEX
  8
0
 10
10.8092
 20
0.917751
 30
0.0
 40
0.00208333
 41
0.00208333
  0
VERTEX
  8
0
 10
10.8092
 20
1.9336
 30
0.0
 40
0.00208333
 41
0.00208333
  0
VERTEX
  8
0
 10
10.6842
 20
1.96382
 30
0.0
 40
0.00208333
 41
0.00208333
  0
SEQEND
 8
0
  0
POLYLINE
  8
0
 62
     0
 66
     1
 10
0
 20
0
 30
0.0
 70
     1
 40
0
 41
0
  0
VERTEX
  8
0
 10
10.6842
 20
1.96382
 30
0.0
 40
0
 41
0
  0
VERTEX
  8
0
 10
11.1341
 20
2.83832
 30
0.0
 40
0
 41
0
  0
VERTEX
  8
0
 10
11.221
 20
2.73415
 30
0.0
 40
0
 41
0
  0
VERTEX
  8
0
 10
10.8092
 20
1.9336
 30
0.0
 40
0
 41
0
  0
VERTEX
  8
0
 10
10.6842
 20
1.96382
 30
0.0
 40
0
 41
0
  0
SEQEND
 8
0
  0
POLYLINE
  8
0
 62
     0
 66
     1
 10
0
 20
0
 30
0.0
 70
     1
 40
0.15
 41
0.15
  0
VERTEX
  8
0
 10
10.6842
 20
1.96382
 30
0.0
 40
0.00208333
 41
0.00208333
  0
VERTEX
  8
0
 10
11.1341
 20
2.83832
 30
0.0
 40
0.00208333
 41
0.00208333
  0
VERTEX
  8
0
 10
11.221
 20
2.73415
 30
0.0
 40
0.00208333
 41
0.00208333
  0
VERTEX
  8
0
 10
10.8092
 20
1.9336
 30
0.0
 40
0.00208333
 41
0.00208333
  0
VERTEX
  8
0
 10
10.6842
 20
1.96382
 30
0.0
 40
0.00208333
 41
0.00208333
  0
SEQEND
 8
0
  0
POLYLINE
  8
0
 62
     7
 66
     1
 10
0
 20
0
 30
0.0
 70
     1
 40
0
 41
0
  0
VERTEX
  8
0
 10
10.755
 20
2.10151
 30
0.0
 40
0
 41
0
  0
VERTEX
  8
0
 10
11.0535
 20
2.68175
 30
0.0
 40
0
 41
0
  0
VERTEX
  8
0
 10
11.1647
 20
2.62457
 30
0.0
 40
0
 41
0
  0
VERTEX
  8
0
 10
10.8662
 20
2.04432
 30
0.0
 40
0
 41
0
  0
VERTEX
  8
0
 10
10.755
 20
2.10151
 30
0.0
 40
0
 41
0
  0
SEQEND
 8
0
  0
POLYLINE
  8
0
 62
     0
 66
     1
 10
0
 20
0
 30
0.0
 70
     1
 40
0.75
 41
0.75
  0
VERTEX
  8
0
 10
10.755
 20
2.10151
 30
0.0
 40
0.0104167
 41
0.0104167
  0
VERTEX
  8
0
 10
11.0535
 20
2.68175
 30
0.0
 40
0.0104167
 41
0.0104167
  0
VERTEX
  8
0
 10
11.1647
 20
2.62457
 30
0.0
 40
0.0104167
 41
0.0104167
  0
VERTEX
  8
0
 10
10.8662
 20
2.04432
 30
0.0
 40
0.0104167
 41
0.0104167
  0
VERTEX
  8
0
 10
10.755
 20
2.10151
 30
0.0
 40
0.0104167
 41
0.0104167
  0
SEQEND
 8
0
  0
POLYLINE
  8
0
 62
     7
 66
     1
 10
0
 20
0
 30
0.0
 70
     1
 40
0
 41
0
  0
VERTEX
  8
0
 10
10.755
 20
2.10151
 30
0.0
 40
0
 41
0
  0
VERTEX
  8
0
 10
11.0535
 20
2.68175
 30
0.0
 40
0
 41
0
  0
VERTEX
  8
0
 10
11.1647
 20
2.62457
 30
0.0
 40
0
 41
0
  0
VERTEX
  8
0
 10
10.8662
 20
2.04432
 30
0.0
 40
0
 41
0
  0
VERTEX
  8
0
 10
10.755
 20
2.10151
 30
0.0
 40
0
 41
0
  0
SEQEND
 8
0
  0
POLYLINE
  8
0
 62
     0
 66
     1
 10
0
 20
0
 30
0.0
 70
     1
 40
0.75
 41
0.75
  0
VERTEX
  8
0
 10
10.755
 20
2.10151
 30
0.0
 40
0.0104167
 41
0.0104167
  0
VERTEX
  8
0
 10
11.0535
 20
2.68175
 30
0.0
 40
0.0104167
 41
0.0104167
  0
VERTEX
  8
0
 10
11.1647
 20
2.62457
 30
0.0
 40
0.0104167
 41
0.0104167
  0
VERTEX
  8
0
 10
10.8662
 20
2.04432
 30
0.0
 40
0.0104167
 41
0.0104167
  0
VERTEX
  8
0
 10
10.755
 20
2.10151
 30
0.0
 40
0.0104167
 41
0.0104167
  0
SEQEND
 8
0
  0
POLYLINE
  8
0
 62
     0
 66
     1
 10
0
 20
0
 30
0.0
 70
     1
 40
0.75
 41
0.75
  0
VERTEX
  8
0
 10
10.755
 20
2.10151
 30
0.0
 40
0.0104167
 41
0.0104167
  0
VERTEX
  8
0
 10
10.721
 20
2.11903
 30
0.0
 40
0.0104167
 41
0.0104167
  0
VERTEX
  8
0
 10
10.6236
 20
2.18056
 30
0.0
 40
0.0104167
 41
0.0104167
  0
VERTEX
  8
0
 10
10.5198
 20
2.26844
 30
0.0
 40
0.0104167
 41
0.0104167
  0
VERTEX
  8
0
 10
10.4434
 20
2.36507
 30
0.0
 40
0.0104167
 41
0.0104167
  0
VERTEX
  8
0
 10
10.3945
 20
2.47049
 30
0.0
 40
0.0104167
 41
0.0104167
  0
VERTEX
  8
0
 10
10.373
 20
2.58475
 30
0.0
 40
0.0104167
 41
0.0104167
  0
VERTEX
  8
0
 10
10.379
 20
2.70779
 30
0.0
 40
0.0104167
 41
0.0104167
  0
VERTEX
  8
0
 10
10.4124
 20
2.83963
 30
0.0
 40
0.0104167
 41
0.0104167
  0
VERTEX
  8
0
 10
10.4558
 20
2.94629
 30
0.0
 40
0.0104167
 41
0.0104167
  0
VERTEX
  8
0
 10
10.4733
 20
2.98025
 30
0.0
 40
0.0104167
 41
0.0104167
  0
VERTEX
  8
0
 10
11.0535
 20
2.68175
 30
0.0
 40
0.0104167
 41
0.0104167
  0
VERTEX
  8
0
 10
10.755
 20
2.10151
 30
0.0
 40
0.0104167
 41
0.0104167
  0
SEQEND
 8
0
  0
POLYLINE
  8
0
 62
     7
 66
     1
 10
0
 20
0
 30
0.0
 70
     1
 40
0
 41
0
  0
VERTEX
  8
0
 10
2.3974
 20
4.71463
 30
0.0
 40
0
 41
0
  0
VERTEX
  8
0
 10
0.487088
 20
4.71463
 30
0.0
 40
0
 41
0
  0
VERTEX
  8
0
 10
0.591254
 20
4.81099
 30
0.0
 40
0
 41
0
  0
VERTEX
  8
0
 10
2.3974
 20
4.81099
 30
0.0
 40
0
 41
0
  0
VERTEX
  8
0
 10
2.3974
 20
4.71463
 30
0.0
 40
0
 41
0
  0
SEQEND
 8
0
  0
POLYLINE
  8
0
 62
     0
 66
     1
 10
0
 20
0
 30
0.0
 70
     1
 40
0.15
 41
0.15
  0
VERTEX
  8
0
 10
2.3974
 20
4.71463
 30
0.0
 40
0.00208333
 41
0.00208333
  0
VERTEX
  8
0
 10
0.487088
 20
4.71463
 30
0.0
 40
0.00208333
 41
0.00208333
  0
VERTEX
  8
0
 10
0.591254
 20
4.81099
 30
0.0
 40
0.00208333
 41
0.00208333
  0
VERTEX
  8
0
 10
2.3974
 20
4.81099
 30
0.0
 40
0.00208333
 41
0.00208333
  0
VERTEX
  8
0
 10
2.3974
 20
4.71463
 30
0.0
 40
0.00208333
 41
0.00208333
  0
SEQEND
 8
0
  0
POLYLINE
  8
0
 62
     7
 66
     1
 10
0
 20
0
 30
0.0
 70
     1
 40
0
 41
0
  0
VERTEX
  8
0
 10
0.487088
 20
4.71463
 30
0.0
 40
0
 41
0
  0
VERTEX
  8
0
 10
0.487088
 20
8.58653
 30
0.0
 40
0
 41
0
  0
VERTEX
  8
0
 10
0.591254
 20
8.49858
 30
0.0
 40
0
 41
0
  0
VERTEX
  8
0
 10
0.591254
 20
4.81099
 30
0.0
 40
0
 41
0
  0
VERTEX
  8
0
 10
0.487088
 20
4.71463
 30
0.0
 40
0
 41
0
  0
SEQEND
 8
0
  0
POLYLINE
  8
0
 62
     0
 66
     1
 10
0
 20
0
 30
0.0
 70
     1
 40
0.15
 41
0.15
  0
VERTEX
  8
0
 10
0.487088
 20
4.71463
 30
0.0
 40
0.00208333
 41
0.00208333
  0
VERTEX
  8
0
 10
0.487088
 20
8.58653
 30
0.0
 40
0.00208333
 41
0.00208333
  0
VERTEX
  8
0
 10
0.591254
 20
8.49858
 30
0.0
 40
0.00208333
 41
0.00208333
  0
VERTEX
  8
0
 10
0.591254
 20
4.81099
 30
0.0
 40
0.00208333
 41
0.00208333
  0
VERTEX
  8
0
 10
0.487088
 20
4.71463
 30
0.0
 40
0.00208333
 41
0.00208333
  0
SEQEND
 8
0
  0
POLYLINE
  8
0
 62
     7
 66
     1
 10
0
 20
0
 30
0.0
 70
     1
 40
0
 41
0
  0
VERTEX
  8
0
 10
0.591254
 20
8.49858
 30
0.0
 40
0
 41
0
  0
VERTEX
  8
0
 10
2.3974
 20
8.49858
 30
0.0
 40
0
 41
0
  0
VERTEX
  8
0
 10
2.3974
 20
8.58653
 30
0.0
 40
0
 41
0
  0
VERTEX
  8
0
 10
0.487088
 20
8.58653
 30
0.0
 40
0
 41
0
  0
VERTEX
  8
0
 10
0.591254
 20
8.49858
 30
0.0
 40
0
 41
0
  0
SEQEND
 8
0
  0
POLYLINE
  8
0
 62
     0
 66
     1
 10
0
 20
0
 30
0.0
 70
     1
 40
0.15
 41
0.15
  0
VERTEX
  8
0
 10
0.591254
 20
8.49858
 30
0.0
 40
0.00208333
 41
0.00208333
  0
VERTEX
  8
0
 10
2.3974
 20
8.49858
 30
0.0
 40
0.00208333
 41
0.00208333
  0
VERTEX
  8
0
 10
2.3974
 20
8.58653
 30
0.0
 40
0.00208333
 41
0.00208333
  0
VERTEX
  8
0
 10
0.487088
 20
8.58653
 30
0.0
 40
0.00208333
 41
0.00208333
  0
VERTEX
  8
0
 10
0.591254
 20
8.49858
 30
0.0
 40
0.00208333
 41
0.00208333
  0
SEQEND
 8
0
  0
POLYLINE
  8
0
 62
     7
 66
     1
 10
0
 20
0
 30
0.0
 70
     1
 40
0
 41
0
  0
VERTEX
  8
0
 10
9.37636
 20
4.80588
 30
0.0
 40
0
 41
0
  0
VERTEX
  8
0
 10
11.992
 20
4.80588
 30
0.0
 40
0
 41
0
  0
VERTEX
  8
0
 10
11.992
 20
4.18088
 30
0.0
 40
0
 41
0
  0
VERTEX
  8
0
 10
9.37636
 20
4.18088
 30
0.0
 40
0
 41
0
  0
VERTEX
  8
0
 10
9.37636
 20
4.80588
 30
0.0
 40
0
 41
0
  0
SEQEND
 8
0
  0
POLYLINE
  8
0
 62
     0
 66
     1
 10
0
 20
0
 30
0.0
 70
     1
 40
0.75
 41
0.75
  0
VERTEX
  8
0
 10
9.37636
 20
4.80588
 30
0.0
 40
0.0104167
 41
0.0104167
  0
VERTEX
  8
0
 10
11.992
 20
4.80588
 30
0.0
 40
0.0104167
 41
0.0104167
  0
VERTEX
  8
0
 10
11.992
 20
4.18088
 30
0.0
 40
0.0104167
 41
0.0104167
  0
VERTEX
  8
0
 10
9.37636
 20
4.18088
 30
0.0
 40
0.0104167
 41
0.0104167
  0
VERTEX
  8
0
 10
9.37636
 20
4.80588
 30
0.0
 40
0.0104167
 41
0.0104167
  0
SEQEND
 8
0
  0
POLYLINE
  8
0
 62
     7
 66
     1
 10
0
 20
0
 30
0.0
 70
     1
 40
0
 41
0
  0
VERTEX
  8
0
 10
11.3791
 20
6.62756
 30
0.0
 40
0
 41
0
  0
VERTEX
  8
0
 10
11.992
 20
6.62756
 30
0.0
 40
0
 41
0
  0
VERTEX
  8
0
 10
11.992
 20
5.94938
 30
0.0
 40
0
 41
0
  0
VERTEX
  8
0
 10
11.3791
 20
5.94938
 30
0.0
 40
0
 41
0
  0
VERTEX
  8
0
 10
11.3791
 20
6.62756
 30
0.0
 40
0
 41
0
  0
SEQEND
 8
0
  0
POLYLINE
  8
0
 62
     0
 66
     1
 10
0
 20
0
 30
0.0
 70
     1
 40
0.73545
 41
0.73545
  0
VERTEX
  8
0
 10
11.3791
 20
6.62756
 30
0.0
 40
0.0102146
 41
0.0102146
  0
VERTEX
  8
0
 10
11.992
 20
6.62756
 30
0.0
 40
0.0102146
 41
0.0102146
  0
VERTEX
  8
0
 10
11.992
 20
5.94938
 30
0.0
 40
0.0102146
 41
0.0102146
  0
VERTEX
  8
0
 10
11.3791
 20
5.94938
 30
0.0
 40
0.0102146
 41
0.0102146
  0
VERTEX
  8
0
 10
11.3791
 20
6.62756
 30
0.0
 40
0.0102146
 41
0.0102146
  0
SEQEND
 8
0
  0
POLYLINE
  8
0
 62
     0
 66
     1
 10
0
 20
0
 30
0.0
 40
0.73545
 41
0.73545
  0
VERTEX
  8
0
 10
11.3791
 20
6.62756
 30
0.0
 40
0.0102146
 41
0.0102146
  0
VERTEX
  8
0
 10
11.6855
 20
6.20822
 30
0.0
 40
0.0102146
 41
0.0102146
  0
VERTEX
  8
0
 10
11.6855
 20
6.41168
 30
0.0
 40
0.0102146
 41
0.0102146
  0
VERTEX
  8
0
 10
11.992
 20
5.99121
 30
0.0
 40
0.0102146
 41
0.0102146
  0
SEQEND
 8
0
  0
POLYLINE
  8
0
 62
     7
 66
     1
 10
0
 20
0
 30
0.0
 70
     1
 40
0
 41
0
  0
VERTEX
  8
0
 10
11.3791
 20
5.99457
 30
0.0
 40
0
 41
0
  0
VERTEX
  8
0
 10
11.992
 20
5.99457
 30
0.0
 40
0
 41
0
  0
VERTEX
  8
0
 10
11.992
 20
5.94938
 30
0.0
 40
0
 41
0
  0
VERTEX
  8
0
 10
11.3791
 20
5.94938
 30
0.0
 40
0
 41
0
  0
VERTEX
  8
0
 10
11.3791
 20
5.99457
 30
0.0
 40
0
 41
0
  0
SEQEND
 8
0
  0
POLYLINE
  8
0
 62
     0
 66
     1
 10
0
 20
0
 30
0.0
 70
     1
 40
0.73545
 41
0.73545
  0
VERTEX
  8
0
 10
11.3791
 20
5.99457
 30
0.0
 40
0.0102146
 41
0.0102146
  0
VERTEX
  8
0
 10
11.992
 20
5.99457
 30
0.0
 40
0.0102146
 41
0.0102146
  0
VERTEX
  8
0
 10
11.992
 20
5.94938
 30
0.0
 40
0.0102146
 41
0.0102146
  0
VERTEX
  8
0
 10
11.3791
 20
5.94938
 30
0.0
 40
0.0102146
 41
0.0102146
  0
VERTEX
  8
0
 10
11.3791
 20
5.99457
 30
0.0
 40
0.0102146
 41
0.0102146
  0
SEQEND
 8
0
  0
POLYLINE
  8
0
 62
     7
 66
     1
 10
0
 20
0
 30
0.0
 70
     1
 40
0
 41
0
  0
VERTEX
  8
0
 10
9.48654
 20
1.46571
 30
0.0
 40
0
 41
0
  0
VERTEX
  8
0
 10
9.55007
 20
1.46571
 30
0.0
 40
0
 41
0
  0
VERTEX
  8
0
 10
9.55007
 20
1.34901
 30
0.0
 40
0
 41
0
  0
VERTEX
  8
0
 10
9.48654
 20
1.34901
 30
0.0
 40
0
 41
0
  0
VERTEX
  8
0
 10
9.48654
 20
1.46571
 30
0.0
 40
0
 41
0
  0
SEQEND
 8
0
  0
POLYLINE
  8
0
 62
     0
 66
     1
 10
0
 20
0
 30
0.0
 70
     1
 40
0.75
 41
0.75
  0
VERTEX
  8
0
 10
9.48654
 20
1.46571
 30
0.0
 40
0.0104167
 41
0.0104167
  0
VERTEX
  8
0
 10
9.48654
 20
1.34901
 30
0.0
 40
0.0104167
 41
0.0104167
  0
VERTEX
  8
0
 10
9.55007
 20
1.34901
 30
0.0
 40
0.0104167
 41
0.0104167
  0
VERTEX
  8
0
 10
9.55007
 20
1.46571
 30
0.0
 40
0.0104167
 41
0.0104167
  0
VERTEX
  8
0
 10
9.48654
 20
1.46571
 30
0.0
 40
0.0104167
 41
0.0104167
  0
SEQEND
 8
0
  0
POLYLINE
  8
0
 62
     7
 66
     1
 10
0
 20
0
 30
0.0
 70
     1
 40
0
 41
0
  0
VERTEX
  8
0
 10
9.48654
 20
1.61051
 30
0.0
 40
0
 41
0
  0
VERTEX
  8
0
 10
9.55007
 20
1.61051
 30
0.0
 40
0
 41
0
  0
VERTEX
  8
0
 10
9.55007
 20
1.49382
 30
0.0
 40
0
 41
0
  0
VERTEX
  8
0
 10
9.48654
 20
1.49382
 30
0.0
 40
0
 41
0
  0
VERTEX
  8
0
 10
9.48654
 20
1.61051
 30
0.0
 40
0
 41
0
  0
SEQEND
 8
0
  0
POLYLINE
  8
0
 62
     0
 66
     1
 10
0
 20
0
 30
0.0
 70
     1
 40
0.75
 41
0.75
  0
VERTEX
  8
0
 10
9.48654
 20
1.61051
 30
0.0
 40
0.0104167
 41
0.0104167
  0
VERTEX
  8
0
 10
9.48654
 20
1.49382
 30
0.0
 40
0.0104167
 41
0.0104167
  0
VERTEX
  8
0
 10
9.55007
 20
1.49382
 30
0.0
 40
0.0104167
 41
0.0104167
  0
VERTEX
  8
0
 10
9.55007
 20
1.61051
 30
0.0
 40
0.0104167
 41
0.0104167
  0
VERTEX
  8
0
 10
9.48654
 20
1.61051
 30
0.0
 40
0.0104167
 41
0.0104167
  0
SEQEND
 8
0
  0
POLYLINE
  8
0
 62
     7
 66
     1
 10
0
 20
0
 30
0.0
 70
     1
 40
0
 41
0
  0
VERTEX
  8
0
 10
9.48654
 20
1.64486
 30
0.0
 40
0
 41
0
  0
VERTEX
  8
0
 10
9.55007
 20
1.64486
 30
0.0
 40
0
 41
0
  0
VERTEX
  8
0
 10
9.55007
 20
1.60943
 30
0.0
 40
0
 41
0
  0
VERTEX
  8
0
 10
9.48654
 20
1.60943
 30
0.0
 40
0
 41
0
  0
VERTEX
  8
0
 10
9.48654
 20
1.64486
 30
0.0
 40
0
 41
0
  0
SEQEND
 8
0
  0
POLYLINE
  8
0
 62
     0
 66
     1
 10
0
 20
0
 30
0.0
 70
     1
 40
0.75
 41
0.75
  0
VERTEX
  8
0
 10
9.48654
 20
1.64486
 30
0.0
 40
0.0104167
 41
0.0104167
  0
VERTEX
  8
0
 10
9.48654
 20
1.60943
 30
0.0
 40
0.0104167
 41
0.0104167
  0
VERTEX
  8
0
 10
9.55007
 20
1.60943
 30
0.0
 40
0.0104167
 41
0.0104167
  0
VERTEX
  8
0
 10
9.55007
 20
1.64486
 30
0.0
 40
0.0104167
 41
0.0104167
  0
VERTEX
  8
0
 10
9.48654
 20
1.64486
 30
0.0
 40
0.0104167
 41
0.0104167
  0
SEQEND
 8
0
  0
POLYLINE
  8
0
 62
     7
 66
     1
 10
0
 20
0
 30
0.0
 70
     1
 40
0
 41
0
  0
VERTEX
  8
0
 10
9.48654
 20
1.34901
 30
0.0
 40
0
 41
0
  0
VERTEX
  8
0
 10
9.55007
 20
1.34901
 30
0.0
 40
0
 41
0
  0
VERTEX
  8
0
 10
9.55007
 20
1.3157
 30
0.0
 40
0
 41
0
  0
VERTEX
  8
0
 10
9.48654
 20
1.3157
 30
0.0
 40
0
 41
0
  0
VERTEX
  8
0
 10
9.48654
 20
1.34901
 30
0.0
 40
0
 41
0
  0
SEQEND
 8
0
  0
POLYLINE
  8
0
 62
     0
 66
     1
 10
0
 20
0
 30
0.0
 70
     1
 40
0.75
 41
0.75
  0
VERTEX
  8
0
 10
9.48654
 20
1.34901
 30
0.0
 40
0.0104167
 41
0.0104167
  0
VERTEX
  8
0
 10
9.48654
 20
1.3157
 30
0.0
 40
0.0104167
 41
0.0104167
  0
VERTEX
  8
0
 10
9.55007
 20
1.3157
 30
0.0
 40
0.0104167
 41
0.0104167
  0
VERTEX
  8
0
 10
9.55007
 20
1.34901
 30
0.0
 40
0.0104167
 41
0.0104167
  0
VERTEX
  8
0
 10
9.48654
 20
1.34901
 30
0.0
 40
0.0104167
 41
0.0104167
  0
SEQEND
 8
0
  0
POLYLINE
  8
0
 62
     7
 66
     1
 10
0
 20
0
 30
0.0
 70
     1
 40
0
 41
0
  0
VERTEX
  8
0
 10
9.56988
 20
1.46571
 30
0.0
 40
0
 41
0
  0
VERTEX
  8
0
 10
9.57617
 20
1.46571
 30
0.0
 40
0
 41
0
  0
VERTEX
  8
0
 10
9.59511
 20
1.46208
 30
0.0
 40
0
 41
0
  0
VERTEX
  8
0
 10
9.61751
 20
1.45221
 30
0.0
 40
0
 41
0
  0
VERTEX
  8
0
 10
9.62196
 20
1.44906
 30
0.0
 40
0
 41
0
  0
VERTEX
  8
0
 10
9.62349
 20
1.44803
 30
0.0
 40
0
 41
0
  0
VERTEX
  8
0
 10
9.63807
 20
1.43782
 30
0.0
 40
0
 41
0
  0
VERTEX
  8
0
 10
9.63965
 20
1.43756
 30
0.0
 40
0
 41
0
  0
VERTEX
  8
0
 10
9.64247
 20
1.43707
 30
0.0
 40
0
 41
0
  0
VERTEX
  8
0
 10
9.65901
 20
1.44125
 30
0.0
 40
0
 41
0
  0
VERTEX
  8
0
 10
9.67193
 20
1.4579
 30
0.0
 40
0
 41
0
  0
VERTEX
  8
0
 10
9.67296
 20
1.4636
 30
0.0
 40
0
 41
0
  0
VERTEX
  8
0
 10
9.67324
 20
1.4649
 30
0.0
 40
0
 41
0
  0
VERTEX
  8
0
 10
9.67404
 20
1.47646
 30
0.0
 40
0
 41
0
  0
VERTEX
  8
0
 10
9.67404
 20
1.48031
 30
0.0
 40
0
 41
0
  0
VERTEX
  8
0
 10
9.67404
 20
1.47922
 30
0.0
 40
0
 41
0
  0
VERTEX
  8
0
 10
9.67404
 20
1.4834
 30
0.0
 40
0
 41
0
  0
VERTEX
  8
0
 10
9.67324
 20
1.49462
 30
0.0
 40
0
 41
0
  0
VERTEX
  8
0
 10
9.67296
 20
1.49593
 30
0.0
 40
0
 41
0
  0
VERTEX
  8
0
 10
9.67193
 20
1.50168
 30
0.0
 40
0
 41
0
  0
VERTEX
  8
0
 10
9.65901
 20
1.51833
 30
0.0
 40
0
 41
0
  0
VERTEX
  8
0
 10
9.64247
 20
1.52251
 30
0.0
 40
0
 41
0
  0
VERTEX
  8
0
 10
9.63965
 20
1.52197
 30
0.0
 40
0
 41
0
  0
VERTEX
  8
0
 10
9.63807
 20
1.52171
 30
0.0
 40
0
 41
0
  0
VERTEX
  8
0
 10
9.62349
 20
1.51156
 30
0.0
 40
0
 41
0
  0
VERTEX
  8
0
 10
9.62196
 20
1.51047
 30
0.0
 40
0
 41
0
  0
VERTEX
  8
0
 10
9.61751
 20
1.50737
 30
0.0
 40
0
 41
0
  0
VERTEX
  8
0
 10
9.59511
 20
1.4975
 30
0.0
 40
0
 41
0
  0
VERTEX
  8
0
 10
9.57617
 20
1.49382
 30
0.0
 40
0
 41
0
  0
VERTEX
  8
0
 10
9.56988
 20
1.49382
 30
0.0
 40
0
 41
0
  0
SEQEND
 8
0
  0
POLYLINE
  8
0
 62
     0
 66
     1
 10
0
 20
0
 30
0.0
 40
0.75
 41
0.75
  0
VERTEX
  8
0
 10
9.56988
 20
1.46571
 30
0.0
 40
0.0104167
 41
0.0104167
  0
VERTEX
  8
0
 10
9.57617
 20
1.46571
 30
0.0
 40
0.0104167
 41
0.0104167
  0
VERTEX
  8
0
 10
9.59511
 20
1.46208
 30
0.0
 40
0.0104167
 41
0.0104167
  0
VERTEX
  8
0
 10
9.61751
 20
1.45221
 30
0.0
 40
0.0104167
 41
0.0104167
  0
VERTEX
  8
0
 10
9.62196
 20
1.44906
 30
0.0
 40
0.0104167
 41
0.0104167
  0
VERTEX
  8
0
 10
9.62349
 20
1.44803
 30
0.0
 40
0.0104167
 41
0.0104167
  0
VERTEX
  8
0
 10
9.63807
 20
1.43782
 30
0.0
 40
0.0104167
 41
0.0104167
  0
VERTEX
  8
0
 10
9.63965
 20
1.43756
 30
0.0
 40
0.0104167
 41
0.0104167
  0
VERTEX
  8
0
 10
9.64247
 20
1.43707
 30
0.0
 40
0.0104167
 41
0.0104167
  0
VERTEX
  8
0
 10
9.65901
 20
1.44125
 30
0.0
 40
0.0104167
 41
0.0104167
  0
VERTEX
  8
0
 10
9.67193
 20
1.4579
 30
0.0
 40
0.0104167
 41
0.0104167
  0
VERTEX
  8
0
 10
9.67296
 20
1.4636
 30
0.0
 40
0.0104167
 41
0.0104167
  0
VERTEX
  8
0
 10
9.67324
 20
1.4649
 30
0.0
 40
0.0104167
 41
0.0104167
  0
VERTEX
  8
0
 10
9.67404
 20
1.47646
 30
0.0
 40
0.0104167
 41
0.0104167
  0
VERTEX
  8
0
 10
9.67404
 20
1.48031
 30
0.0
 40
0.0104167
 41
0.0104167
  0
VERTEX
  8
0
 10
9.67404
 20
1.47922
 30
0.0
 40
0.0104167
 41
0.0104167
  0
VERTEX
  8
0
 10
9.67404
 20
1.4834
 30
0.0
 40
0.0104167
 41
0.0104167
  0
VERTEX
  8
0
 10
9.67324
 20
1.49462
 30
0.0
 40
0.0104167
 41
0.0104167
  0
VERTEX
  8
0
 10
9.67296
 20
1.49593
 30
0.0
 40
0.0104167
 41
0.0104167
  0
VERTEX
  8
0
 10
9.67193
 20
1.50168
 30
0.0
 40
0.0104167
 41
0.0104167
  0
VERTEX
  8
0
 10
9.65901
 20
1.51833
 30
0.0
 40
0.0104167
 41
0.0104167
  0
VERTEX
  8
0
 10
9.64247
 20
1.52251
 30
0.0
 40
0.0104167
 41
0.0104167
  0
VERTEX
  8
0
 10
9.63965
 20
1.52197
 30
0.0
 40
0.0104167
 41
0.0104167
  0
VERTEX
  8
0
 10
9.63807
 20
1.52171
 30
0.0
 40
0.0104167
 41
0.0104167
  0
VERTEX
  8
0
 10
9.62349
 20
1.51156
 30
0.0
 40
0.0104167
 41
0.0104167
  0
VERTEX
  8
0
 10
9.62196
 20
1.51047
 30
0.0
 40
0.0104167
 41
0.0104167
  0
VERTEX
  8
0
 10
9.61751
 20
1.50737
 30
0.0
 40
0.0104167
 41
0.0104167
  0
VERTEX
  8
0
 10
9.59511
 20
1.4975
 30
0.0
 40
0.0104167
 41
0.0104167
  0
VERTEX
  8
0
 10
9.57617
 20
1.49382
 30
0.0
 40
0.0104167
 41
0.0104167
  0
VERTEX
  8
0
 10
9.56988
 20
1.49382
 30
0.0
 40
0.0104167
 41
0.0104167
  0
SEQEND
 8
0
  0
POLYLINE
  8
0
 62
     7
 66
     1
 10
0
 20
0
 30
0.0
 70
     1
 40
0
 41
0
  0
VERTEX
  8
0
 10
9.64068
 20
1.43756
 30
0.0
 40
0
 41
0
  0
VERTEX
  8
0
 10
9.64117
 20
1.43782
 30
0.0
 40
0
 41
0
  0
VERTEX
  8
0
 10
9.65136
 20
1.44971
 30
0.0
 40
0
 41
0
  0
VERTEX
  8
0
 10
9.66049
 20
1.47347
 30
0.0
 40
0
 41
0
  0
VERTEX
  8
0
 10
9.66049
 20
1.48133
 30
0.0
 40
0
 41
0
  0
VERTEX
  8
0
 10
9.66021
 20
1.48763
 30
0.0
 40
0
 41
0
  0
VERTEX
  8
0
 10
9.65099
 20
1.51025
 30
0.0
 40
0
 41
0
  0
VERTEX
  8
0
 10
9.64117
 20
1.52149
 30
0.0
 40
0
 41
0
  0
VERTEX
  8
0
 10
9.64068
 20
1.52197
 30
0.0
 40
0
 41
0
  0
SEQEND
 8
0
  0
POLYLINE
  8
0
 62
     0
 66
     1
 10
0
 20
0
 30
0.0
 40
0.75
 41
0.75
  0
VERTEX
  8
0
 10
9.64068
 20
1.43756
 30
0.0
 40
0.0104167
 41
0.0104167
  0
VERTEX
  8
0
 10
9.64117
 20
1.43782
 30
0.0
 40
0.0104167
 41
0.0104167
  0
VERTEX
  8
0
 10
9.65136
 20
1.44971
 30
0.0
 40
0.0104167
 41
0.0104167
  0
VERTEX
  8
0
 10
9.66049
 20
1.47347
 30
0.0
 40
0.0104167
 41
0.0104167
  0
VERTEX
  8
0
 10
9.66049
 20
1.48133
 30
0.0
 40
0.0104167
 41
0.0104167
  0
VERTEX
  8
0
 10
9.66021
 20
1.48763
 30
0.0
 40
0.0104167
 41
0.0104167
  0
VERTEX
  8
0
 10
9.65099
 20
1.51025
 30
0.0
 40
0.0104167
 41
0.0104167
  0
VERTEX
  8
0
 10
9.64117
 20
1.52149
 30
0.0
 40
0.0104167
 41
0.0104167
  0
VERTEX
  8
0
 10
9.64068
 20
1.52197
 30
0.0
 40
0.0104167
 41
0.0104167
  0
SEQEND
 8
0
  0
POLYLINE
  8
0
 62
     7
 66
     1
 10
0
 20
0
 30
0.0
 70
     1
 40
0
 41
0
  0
VERTEX
  8
0
 10
9.48654
 20
1.46571
 30
0.0
 40
0
 41
0
  0
VERTEX
  8
0
 10
9.48654
 20
1.49382
 30
0.0
 40
0
 41
0
  0
VERTEX
  8
0
 10
9.56988
 20
1.49382
 30
0.0
 40
0
 41
0
  0
VERTEX
  8
0
 10
9.56988
 20
1.48682
 30
0.0
 40
0
 41
0
  0
VERTEX
  8
0
 10
9.56988
 20
1.47103
 30
0.0
 40
0
 41
0
  0
VERTEX
  8
0
 10
9.56988
 20
1.46571
 30
0.0
 40
0
 41
0
  0
VERTEX
  8
0
 10
9.54904
 20
1.46571
 30
0.0
 40
0
 41
0
  0
VERTEX
  8
0
 10
9.50217
 20
1.46571
 30
0.0
 40
0
 41
0
  0
VERTEX
  8
0
 10
9.48654
 20
1.46571
 30
0.0
 40
0
 41
0
  0
SEQEND
 8
0
  0
POLYLINE
  8
0
 62
     0
 66
     1
 10
0
 20
0
 30
0.0
 70
     1
 40
0.75
 41
0.75
  0
VERTEX
  8
0
 10
9.48654
 20
1.46571
 30
0.0
 40
0.0104167
 41
0.0104167
  0
VERTEX
  8
0
 10
9.48654
 20
1.49382
 30
0.0
 40
0.0104167
 41
0.0104167
  0
VERTEX
  8
0
 10
9.56988
 20
1.49382
 30
0.0
 40
0.0104167
 41
0.0104167
  0
VERTEX
  8
0
 10
9.56988
 20
1.48682
 30
0.0
 40
0.0104167
 41
0.0104167
  0
VERTEX
  8
0
 10
9.56988
 20
1.47103
 30
0.0
 40
0.0104167
 41
0.0104167
  0
VERTEX
  8
0
 10
9.56988
 20
1.46571
 30
0.0
 40
0.0104167
 41
0.0104167
  0
VERTEX
  8
0
 10
9.54904
 20
1.46571
 30
0.0
 40
0.0104167
 41
0.0104167
  0
VERTEX
  8
0
 10
9.50217
 20
1.46571
 30
0.0
 40
0.0104167
 41
0.0104167
  0
VERTEX
  8
0
 10
9.48654
 20
1.46571
 30
0.0
 40
0.0104167
 41
0.0104167
  0
SEQEND
 8
0
  0
POLYLINE
  8
0
 62
     7
 66
     1
 10
0
 20
0
 30
0.0
 70
     1
 40
0
 41
0
  0
VERTEX
  8
0
 10
9.51882
 20
1.34901
 30
0.0
 40
0
 41
0
  0
VERTEX
  8
0
 10
9.51758
 20
1.35227
 30
0.0
 40
0
 41
0
  0
VERTEX
  8
0
 10
9.51372
 20
1.36193
 30
0.0
 40
0
 41
0
  0
VERTEX
  8
0
 10
9.51258
 20
1.36464
 30
0.0
 40
0
 41
0
  0
VERTEX
  8
0
 10
9.51258
 20
1.36464
 30
0.0
 40
0
 41
0
  0
VERTEX
  8
0
 10
9.514
 20
1.36464
 30
0.0
 40
0
 41
0
  0
VERTEX
  8
0
 10
9.51828
 20
1.36464
 30
0.0
 40
0
 41
0
  0
VERTEX
  8
0
 10
9.52257
 20
1.36464
 30
0.0
 40
0
 41
0
  0
VERTEX
  8
0
 10
9.52403
 20
1.36464
 30
0.0
 40
0
 41
0
  0
VERTEX
  8
0
 10
9.52403
 20
1.36464
 30
0.0
 40
0
 41
0
  0
VERTEX
  8
0
 10
9.52339
 20
1.3623
 30
0.0
 40
0
 41
0
  0
VERTEX
  8
0
 10
9.51997
 20
1.35232
 30
0.0
 40
0
 41
0
  0
VERTEX
  8
0
 10
9.51882
 20
1.34901
 30
0.0
 40
0
 41
0
  0
SEQEND
 8
0
  0
POLYLINE
  8
0
 62
     0
 66
     1
 10
0
 20
0
 30
0.0
 70
     1
 40
0.75
 41
0.75
  0
VERTEX
  8
0
 10
9.51882
 20
1.34901
 30
0.0
 40
0.0104167
 41
0.0104167
  0
VERTEX
  8
0
 10
9.51758
 20
1.35227
 30
0.0
 40
0.0104167
 41
0.0104167
  0
VERTEX
  8
0
 10
9.51372
 20
1.36193
 30
0.0
 40
0.0104167
 41
0.0104167
  0
VERTEX
  8
0
 10
9.51258
 20
1.36464
 30
0.0
 40
0.0104167
 41
0.0104167
  0
VERTEX
  8
0
 10
9.51258
 20
1.36464
 30
0.0
 40
0.0104167
 41
0.0104167
  0
VERTEX
  8
0
 10
9.514
 20
1.36464
 30
0.0
 40
0.0104167
 41
0.0104167
  0
VERTEX
  8
0
 10
9.51828
 20
1.36464
 30
0.0
 40
0.0104167
 41
0.0104167
  0
VERTEX
  8
0
 10
9.52257
 20
1.36464
 30
0.0
 40
0.0104167
 41
0.0104167
  0
VERTEX
  8
0
 10
9.52403
 20
1.36464
 30
0.0
 40
0.0104167
 41
0.0104167
  0
VERTEX
  8
0
 10
9.52403
 20
1.36464
 30
0.0
 40
0.0104167
 41
0.0104167
  0
VERTEX
  8
0
 10
9.52339
 20
1.3623
 30
0.0
 40
0.0104167
 41
0.0104167
  0
VERTEX
  8
0
 10
9.51997
 20
1.35232
 30
0.0
 40
0.0104167
 41
0.0104167
  0
VERTEX
  8
0
 10
9.51882
 20
1.34901
 30
0.0
 40
0.0104167
 41
0.0104167
  0
SEQEND
 8
0
  0
POLYLINE
  8
0
 62
     7
 66
     1
 10
0
 20
0
 30
0.0
 70
     1
 40
0
 41
0
  0
VERTEX
  8
0
 10
9.51882
 20
1.60943
 30
0.0
 40
0
 41
0
  0
VERTEX
  8
0
 10
9.51758
 20
1.60622
 30
0.0
 40
0
 41
0
  0
VERTEX
  8
0
 10
9.51372
 20
1.59657
 30
0.0
 40
0
 41
0
  0
VERTEX
  8
0
 10
9.51258
 20
1.59381
 30
0.0
 40
0
 41
0
  0
VERTEX
  8
0
 10
9.51258
 20
1.59381
 30
0.0
 40
0
 41
0
  0
VERTEX
  8
0
 10
9.514
 20
1.59381
 30
0.0
 40
0
 41
0
  0
VERTEX
  8
0
 10
9.51828
 20
1.59381
 30
0.0
 40
0
 41
0
  0
VERTEX
  8
0
 10
9.52257
 20
1.59381
 30
0.0
 40
0
 41
0
  0
VERTEX
  8
0
 10
9.52403
 20
1.59381
 30
0.0
 40
0
 41
0
  0
VERTEX
  8
0
 10
9.52403
 20
1.59381
 30
0.0
 40
0
 41
0
  0
VERTEX
  8
0
 10
9.52339
 20
1.59619
 30
0.0
 40
0
 41
0
  0
VERTEX
  8
0
 10
9.51997
 20
1.60618
 30
0.0
 40
0
 41
0
  0
VERTEX
  8
0
 10
9.51882
 20
1.60943
 30
0.0
 40
0
 41
0
  0
SEQEND
 8
0
  0
POLYLINE
  8
0
 62
     0
 66
     1
 10
0
 20
0
 30
0.0
 70
     1
 40
0.75
 41
0.75
  0
VERTEX
  8
0
 10
9.51882
 20
1.60943
 30
0.0
 40
0.0104167
 41
0.0104167
  0
VERTEX
  8
0
 10
9.51758
 20
1.60622
 30
0.0
 40
0.0104167
 41
0.0104167
  0
VERTEX
  8
0
 10
9.51372
 20
1.59657
 30
0.0
 40
0.0104167
 41
0.0104167
  0
VERTEX
  8
0
 10
9.51258
 20
1.59381
 30
0.0
 40
0.0104167
 41
0.0104167
  0
VERTEX
  8
0
 10
9.51258
 20
1.59381
 30
0.0
 40
0.0104167
 41
0.0104167
  0
VERTEX
  8
0
 10
9.514
 20
1.59381
 30
0.0
 40
0.0104167
 41
0.0104167
  0
VERTEX
  8
0
 10
9.51828
 20
1.59381
 30
0.0
 40
0.0104167
 41
0.0104167
  0
VERTEX
  8
0
 10
9.52257
 20
1.59381
 30
0.0
 40
0.0104167
 41
0.0104167
  0
VERTEX
  8
0
 10
9.52403
 20
1.59381
 30
0.0
 40
0.0104167
 41
0.0104167
  0
VERTEX
  8
0
 10
9.52403
 20
1.59381
 30
0.0
 40
0.0104167
 41
0.0104167
  0
VERTEX
  8
0
 10
9.52339
 20
1.59619
 30
0.0
 40
0.0104167
 41
0.0104167
  0
VERTEX
  8
0
 10
9.51997
 20
1.60618
 30
0.0
 40
0.0104167
 41
0.0104167
  0
VERTEX
  8
0
 10
9.51882
 20
1.60943
 30
0.0
 40
0.0104167
 41
0.0104167
  0
SEQEND
 8
0
  0
POLYLINE
  8
0
 62
     7
 66
     1
 10
0
 20
0
 30
0.0
 70
     1
 40
0
 41
0
  0
VERTEX
  8
0
 10
9.48133
 20
1.88699
 30
0.0
 40
0
 41
0
  0
VERTEX
  8
0
 10
10.2225
 20
1.88699
 30
0.0
 40
0
 41
0
  0
VERTEX
  8
0
 10
10.2225
 20
1.86094
 30
0.0
 40
0
 41
0
  0
VERTEX
  8
0
 10
9.48133
 20
1.86094
 30
0.0
 40
0
 41
0
  0
VERTEX
  8
0
 10
9.48133
 20
1.88699
 30
0.0
 40
0
 41
0
  0
SEQEND
 8
0
  0
POLYLINE
  8
0
 62
     0
 66
     1
 10
0
 20
0
 30
0.0
 70
     1
 40
0.75
 41
0.75
  0
VERTEX
  8
0
 10
9.48133
 20
1.88699
 30
0.0
 40
0.0104167
 41
0.0104167
  0
VERTEX
  8
0
 10
9.48133
 20
1.86094
 30
0.0
 40
0.0104167
 41
0.0104167
  0
VERTEX
  8
0
 10
10.2225
 20
1.86094
 30
0.0
 40
0.0104167
 41
0.0104167
  0
VERTEX
  8
0
 10
10.2225
 20
1.88699
 30
0.0
 40
0.0104167
 41
0.0104167
  0
VERTEX
  8
0
 10
9.48133
 20
1.88699
 30
0.0
 40
0.0104167
 41
0.0104167
  0
SEQEND
 8
0
  0
POLYLINE
  8
0
 62
     7
 66
     1
 10
0
 20
0
 30
0.0
 70
     1
 40
0
 41
0
  0
VERTEX
  8
0
 10
9.48133
 20
1.88699
 30
0.0
 40
0
 41
0
  0
VERTEX
  8
0
 10
10.2225
 20
1.88699
 30
0.0
 40
0
 41
0
  0
VERTEX
  8
0
 10
10.2225
 20
1.86094
 30
0.0
 40
0
 41
0
  0
VERTEX
  8
0
 10
9.48133
 20
1.86094
 30
0.0
 40
0
 41
0
  0
VERTEX
  8
0
 10
9.48133
 20
1.88699
 30
0.0
 40
0
 41
0
  0
SEQEND
 8
0
  0
POLYLINE
  8
0
 62
     0
 66
     1
 10
0
 20
0
 30
0.0
 70
     1
 40
0.75
 41
0.75
  0
VERTEX
  8
0
 10
9.48133
 20
1.88699
 30
0.0
 40
0.0104167
 41
0.0104167
  0
VERTEX
  8
0
 10
9.48133
 20
1.86094
 30
0.0
 40
0.0104167
 41
0.0104167
  0
VERTEX
  8
0
 10
10.2225
 20
1.86094
 30
0.0
 40
0.0104167
 41
0.0104167
  0
VERTEX
  8
0
 10
10.2225
 20
1.88699
 30
0.0
 40
0.0104167
 41
0.0104167
  0
VERTEX
  8
0
 10
9.48133
 20
1.88699
 30
0.0
 40
0.0104167
 41
0.0104167
  0
SEQEND
 8
0
  0
POLYLINE
  8
0
 62
     7
 66
     1
 10
0
 20
0
 30
0.0
 70
     1
 40
0
 41
0
  0
VERTEX
  8
0
 10
9.48654
 20
2.4714
 30
0.0
 40
0
 41
0
  0
VERTEX
  8
0
 10
9.67383
 20
2.4714
 30
0.0
 40
0
 41
0
  0
VERTEX
  8
0
 10
9.67383
 20
2.05485
 30
0.0
 40
0
 41
0
  0
VERTEX
  8
0
 10
9.48654
 20
2.05485
 30
0.0
 40
0
 41
0
  0
VERTEX
  8
0
 10
9.48654
 20
2.4714
 30
0.0
 40
0
 41
0
  0
SEQEND
 8
0
  0
POLYLINE
  8
0
 62
     0
 66
     1
 10
0
 20
0
 30
0.0
 70
     1
 40
0.75
 41
0.75
  0
VERTEX
  8
0
 10
9.48654
 20
2.4714
 30
0.0
 40
0.0104167
 41
0.0104167
  0
VERTEX
  8
0
 10
9.48654
 20
2.05485
 30
0.0
 40
0.0104167
 41
0.0104167
  0
VERTEX
  8
0
 10
9.67383
 20
2.05485
 30
0.0
 40
0.0104167
 41
0.0104167
  0
VERTEX
  8
0
 10
9.67383
 20
2.4714
 30
0.0
 40
0.0104167
 41
0.0104167
  0
VERTEX
  8
0
 10
9.48654
 20
2.4714
 30
0.0
 40
0.0104167
 41
0.0104167
  0
SEQEND
 8
0
  0
POLYLINE
  8
0
 62
     7
 66
     1
 10
0
 20
0
 30
0.0
 70
     1
 40
0
 41
0
  0
VERTEX
  8
0
 10
9.94211
 20
2.4714
 30
0.0
 40
0
 41
0
  0
VERTEX
  8
0
 10
9.94211
 20
2.4714
 30
0.0
 40
0
 41
0
  0
VERTEX
  8
0
 10
9.95383
 20
2.47151
 30
0.0
 40
0
 41
0
  0
VERTEX
  8
0
 10
9.98481
 20
2.46989
 30
0.0
 40
0
 41
0
  0
VERTEX
  8
0
 10
10.0287
 20
2.46376
 30
0.0
 40
0
 41
0
  0
VERTEX
  8
0
 10
10.0789
 20
2.45036
 30
0.0
 40
0
 41
0
  0
VERTEX
  8
0
 10
10.1291
 20
2.42681
 30
0.0
 40
0
 41
0
  0
VERTEX
  8
0
 10
10.173
 20
2.39035
 30
0.0
 40
0
 41
0
  0
VERTEX
  8
0
 10
10.2039
 20
2.33817
 30
0.0
 40
0
 41
0
  0
VERTEX
  8
0
 10
10.2157
 20
2.2851
 30
0.0
 40
0
 41
0
  0
VERTEX
  8
0
 10
10.2157
 20
2.26742
 30
0.0
 40
0
 41
0
  0
VERTEX
  8
0
 10
10.2157
 20
2.24914
 30
0.0
 40
0
 41
0
  0
VERTEX
  8
0
 10
10.2039
 20
2.19428
 30
0.0
 40
0
 41
0
  0
VERTEX
  8
0
 10
10.173
 20
2.14019
 30
0.0
 40
0
 41
0
  0
VERTEX
  8
0
 10
10.1291
 20
2.10238
 30
0.0
 40
0
 41
0
  0
VERTEX
  8
0
 10
10.0789
 20
2.07796
 30
0.0
 40
0
 41
0
  0
VERTEX
  8
0
 10
10.0287
 20
2.06396
 30
0.0
 40
0
 41
0
  0
VERTEX
  8
0
 10
9.98481
 20
2.05757
 30
0.0
 40
0
 41
0
  0
VERTEX
  8
0
 10
9.95383
 20
2.05583
 30
0.0
 40
0
 41
0
  0
VERTEX
  8
0
 10
9.94211
 20
2.05587
 30
0.0
 40
0
 41
0
  0
VERTEX
  8
0
 10
9.94211
 20
2.05587
 30
0.0
 40
0
 41
0
  0
VERTEX
  8
0
 10
9.67383
 20
2.05485
 30
0.0
 40
0
 41
0
  0
VERTEX
  8
0
 10
9.67383
 20
2.4714
 30
0.0
 40
0
 41
0
  0
VERTEX
  8
0
 10
9.94211
 20
2.4714
 30
0.0
 40
0
 41
0
  0
SEQEND
 8
0
  0
POLYLINE
  8
0
 62
     0
 66
     1
 10
0
 20
0
 30
0.0
 70
     1
 40
0.75
 41
0.75
  0
VERTEX
  8
0
 10
9.94211
 20
2.4714
 30
0.0
 40
0.0104167
 41
0.0104167
  0
VERTEX
  8
0
 10
9.94211
 20
2.4714
 30
0.0
 40
0.0104167
 41
0.0104167
  0
VERTEX
  8
0
 10
9.95383
 20
2.47151
 30
0.0
 40
0.0104167
 41
0.0104167
  0
VERTEX
  8
0
 10
9.98481
 20
2.46989
 30
0.0
 40
0.0104167
 41
0.0104167
  0
VERTEX
  8
0
 10
10.0287
 20
2.46376
 30
0.0
 40
0.0104167
 41
0.0104167
  0
VERTEX
  8
0
 10
10.0789
 20
2.45036
 30
0.0
 40
0.0104167
 41
0.0104167
  0
VERTEX
  8
0
 10
10.1291
 20
2.42681
 30
0.0
 40
0.0104167
 41
0.0104167
  0
VERTEX
  8
0
 10
10.173
 20
2.39035
 30
0.0
 40
0.0104167
 41
0.0104167
  0
VERTEX
  8
0
 10
10.2039
 20
2.33817
 30
0.0
 40
0.0104167
 41
0.0104167
  0
VERTEX
  8
0
 10
10.2157
 20
2.2851
 30
0.0
 40
0.0104167
 41
0.0104167
  0
VERTEX
  8
0
 10
10.2157
 20
2.26742
 30
0.0
 40
0.0104167
 41
0.0104167
  0
VERTEX
  8
0
 10
10.2157
 20
2.24914
 30
0.0
 40
0.0104167
 41
0.0104167
  0
VERTEX
  8
0
 10
10.2039
 20
2.19428
 30
0.0
 40
0.0104167
 41
0.0104167
  0
VERTEX
  8
0
 10
10.173
 20
2.14019
 30
0.0
 40
0.0104167
 41
0.0104167
  0
VERTEX
  8
0
 10
10.1291
 20
2.10238
 30
0.0
 40
0.0104167
 41
0.0104167
  0
VERTEX
  8
0
 10
10.0789
 20
2.07796
 30
0.0
 40
0.0104167
 41
0.0104167
  0
VERTEX
  8
0
 10
10.0287
 20
2.06396
 30
0.0
 40
0.0104167
 41
0.0104167
  0
VERTEX
  8
0
 10
9.98481
 20
2.05757
 30
0.0
 40
0.0104167
 41
0.0104167
  0
VERTEX
  8
0
 10
9.95383
 20
2.05583
 30
0.0
 40
0.0104167
 41
0.0104167
  0
VERTEX
  8
0
 10
9.94211
 20
2.05587
 30
0.0
 40
0.0104167
 41
0.0104167
  0
VERTEX
  8
0
 10
9.94211
 20
2.05587
 30
0.0
 40
0.0104167
 41
0.0104167
  0
VERTEX
  8
0
 10
9.67383
 20
2.05485
 30
0.0
 40
0.0104167
 41
0.0104167
  0
VERTEX
  8
0
 10
9.67383
 20
2.4714
 30
0.0
 40
0.0104167
 41
0.0104167
  0
VERTEX
  8
0
 10
9.94211
 20
2.4714
 30
0.0
 40
0.0104167
 41
0.0104167
  0
SEQEND
 8
0
  0
POLYLINE
  8
0
 62
     7
 66
     1
 10
0
 20
0
 30
0.0
 70
     1
 40
0
 41
0
  0
VERTEX
  8
0
 10
9.5644
 20
2.29622
 30
0.0
 40
0
 41
0
  0
VERTEX
  8
0
 10
9.59597
 20
2.29622
 30
0.0
 40
0
 41
0
  0
VERTEX
  8
0
 10
9.59597
 20
2.23004
 30
0.0
 40
0
 41
0
  0
VERTEX
  8
0
 10
9.5644
 20
2.23004
 30
0.0
 40
0
 41
0
  0
VERTEX
  8
0
 10
9.5644
 20
2.29622
 30
0.0
 40
0
 41
0
  0
SEQEND
 8
0
  0
POLYLINE
  8
0
 62
     0
 66
     1
 10
0
 20
0
 30
0.0
 70
     1
 40
0.75
 41
0.75
  0
VERTEX
  8
0
 10
9.5644
 20
2.29622
 30
0.0
 40
0.0104167
 41
0.0104167
  0
VERTEX
  8
0
 10
9.5644
 20
2.23004
 30
0.0
 40
0.0104167
 41
0.0104167
  0
VERTEX
  8
0
 10
9.59597
 20
2.23004
 30
0.0
 40
0.0104167
 41
0.0104167
  0
VERTEX
  8
0
 10
9.59597
 20
2.29622
 30
0.0
 40
0.0104167
 41
0.0104167
  0
VERTEX
  8
0
 10
9.5644
 20
2.29622
 30
0.0
 40
0.0104167
 41
0.0104167
  0
SEQEND
 8
0
  0
POLYLINE
  8
0
 62
     7
 66
     1
 10
0
 20
0
 30
0.0
 70
     1
 40
0
 41
0
  0
VERTEX
  8
0
 10
10.9731
 20
4.00331
 30
0.0
 40
0
 41
0
  0
VERTEX
  8
0
 10
11.5545
 20
4.00331
 30
0.0
 40
0
 41
0
  0
VERTEX
  8
0
 10
11.5545
 20
3.35221
 30
0.0
 40
0
 41
0
  0
VERTEX
  8
0
 10
10.9731
 20
3.35221
 30
0.0
 40
0
 41
0
  0
VERTEX
  8
0
 10
10.9731
 20
4.00331
 30
0.0
 40
0
 41
0
  0
SEQEND
 8
0
  0
POLYLINE
  8
0
 62
     0
 66
     1
 10
0
 20
0
 30
0.0
 70
     1
 40
0.697725
 41
0.697725
  0
VERTEX
  8
0
 10
10.9731
 20
4.00331
 30
0.0
 40
0.00969063
 41
0.00969063
  0
VERTEX
  8
0
 10
11.5545
 20
4.00331
 30
0.0
 40
0.00969063
 41
0.00969063
  0
VERTEX
  8
0
 10
11.5545
 20
3.35221
 30
0.0
 40
0.00969063
 41
0.00969063
  0
VERTEX
  8
0
 10
10.9731
 20
3.35221
 30
0.0
 40
0.00969063
 41
0.00969063
  0
VERTEX
  8
0
 10
10.9731
 20
4.00331
 30
0.0
 40
0.00969063
 41
0.00969063
  0
SEQEND
 8
0
  0
POLYLINE
  8
0
 62
     0
 66
     1
 10
0
 20
0
 30
0.0
 40
0.697725
 41
0.697725
  0
VERTEX
  8
0
 10
10.9731
 20
4.00331
 30
0.0
 40
0.00969063
 41
0.00969063
  0
VERTEX
  8
0
 10
11.2638
 20
3.55838
 30
0.0
 40
0.00969063
 41
0.00969063
  0
VERTEX
  8
0
 10
11.2638
 20
3.77761
 30
0.0
 40
0.00969063
 41
0.00969063
  0
VERTEX
  8
0
 10
11.5545
 20
3.35221
 30
0.0
 40
0.00969063
 41
0.00969063
  0
SEQEND
 8
0
  0
POLYLINE
  8
0
 62
     0
 66
     1
 10
0
 20
0
 30
0.0
 40
0.697725
 41
0.697725
  0
VERTEX
  8
0
 10
10.9993
 20
3.35872
 30
0.0
 40
0.00969063
 41
0.00969063
  0
VERTEX
  8
0
 10
11.5284
 20
3.35872
 30
0.0
 40
0.00969063
 41
0.00969063
  0
SEQEND
 8
0
  0
POLYLINE
  8
0
 62
     7
 66
     1
 10
0
 20
0
 30
0.0
 70
     1
 40
0
 41
0
  0
VERTEX
  8
0
 10
9.88049
 20
4.00299
 30
0.0
 40
0
 41
0
  0
VERTEX
  8
0
 10
10.4473
 20
4.00299
 30
0.0
 40
0
 41
0
  0
VERTEX
  8
0
 10
10.4473
 20
3.58404
 30
0.0
 40
0
 41
0
  0
VERTEX
  8
0
 10
9.88049
 20
3.58404
 30
0.0
 40
0
 41
0
  0
VERTEX
  8
0
 10
9.88049
 20
4.00299
 30
0.0
 40
0
 41
0
  0
SEQEND
 8
0
  0
POLYLINE
  8
0
 62
     0
 66
     1
 10
0
 20
0
 30
0.0
 70
     1
 40
0.75
 41
0.75
  0
VERTEX
  8
0
 10
9.88049
 20
4.00299
 30
0.0
 40
0.0104167
 41
0.0104167
  0
VERTEX
  8
0
 10
10.4473
 20
4.00299
 30
0.0
 40
0.0104167
 41
0.0104167
  0
VERTEX
  8
0
 10
10.4473
 20
3.58404
 30
0.0
 40
0.0104167
 41
0.0104167
  0
VERTEX
  8
0
 10
9.88049
 20
3.58404
 30
0.0
 40
0.0104167
 41
0.0104167
  0
VERTEX
  8
0
 10
9.88049
 20
4.00299
 30
0.0
 40
0.0104167
 41
0.0104167
  0
SEQEND
 8
0
  0
POLYLINE
  8
0
 62
     7
 66
     1
 10
0
 20
0
 30
0.0
 70
     1
 40
0
 41
0
  0
VERTEX
  8
0
 10
9.92774
 20
3.90196
 30
0.0
 40
0
 41
0
  0
VERTEX
  8
0
 10
10.4002
 20
3.90196
 30
0.0
 40
0
 41
0
  0
VERTEX
  8
0
 10
10.4002
 20
3.6211
 30
0.0
 40
0
 41
0
  0
VERTEX
  8
0
 10
9.92774
 20
3.6211
 30
0.0
 40
0
 41
0
  0
VERTEX
  8
0
 10
9.92774
 20
3.90196
 30
0.0
 40
0
 41
0
  0
SEQEND
 8
0
  0
POLYLINE
  8
0
 62
     0
 66
     1
 10
0
 20
0
 30
0.0
 70
     1
 40
0.75
 41
0.75
  0
VERTEX
  8
0
 10
9.92774
 20
3.90196
 30
0.0
 40
0.0104167
 41
0.0104167
  0
VERTEX
  8
0
 10
10.4002
 20
3.90196
 30
0.0
 40
0.0104167
 41
0.0104167
  0
VERTEX
  8
0
 10
10.4002
 20
3.6211
 30
0.0
 40
0.0104167
 41
0.0104167
  0
VERTEX
  8
0
 10
9.92774
 20
3.6211
 30
0.0
 40
0.0104167
 41
0.0104167
  0
VERTEX
  8
0
 10
9.92774
 20
3.90196
 30
0.0
 40
0.0104167
 41
0.0104167
  0
SEQEND
 8
0
  0
POLYLINE
  8
0
 62
     7
 66
     1
 10
0
 20
0
 30
0.0
 70
     1
 40
0
 41
0
  0
VERTEX
  8
0
 10
10.2004
 20
3.77815
 30
0.0
 40
0
 41
0
  0
VERTEX
  8
0
 10
10.2004
 20
3.77175
 30
0.0
 40
0
 41
0
  0
VERTEX
  8
0
 10
10.1897
 20
3.75239
 30
0.0
 40
0
 41
0
  0
VERTEX
  8
0
 10
10.1704
 20
3.74169
 30
0.0
 40
0
 41
0
  0
VERTEX
  8
0
 10
10.164
 20
3.74169
 30
0.0
 40
0
 41
0
  0
VERTEX
  8
0
 10
10.1575
 20
3.74169
 30
0.0
 40
0
 41
0
  0
VERTEX
  8
0
 10
10.1381
 20
3.75239
 30
0.0
 40
0
 41
0
  0
VERTEX
  8
0
 10
10.1275
 20
3.77175
 30
0.0
 40
0
 41
0
  0
VERTEX
  8
0
 10
10.1275
 20
3.77815
 30
0.0
 40
0
 41
0
  0
VERTEX
  8
0
 10
10.1275
 20
3.78461
 30
0.0
 40
0
 41
0
  0
VERTEX
  8
0
 10
10.1381
 20
3.80399
 30
0.0
 40
0
 41
0
  0
VERTEX
  8
0
 10
10.1575
 20
3.81461
 30
0.0
 40
0
 41
0
  0
VERTEX
  8
0
 10
10.164
 20
3.81461
 30
0.0
 40
0
 41
0
  0
VERTEX
  8
0
 10
10.1704
 20
3.81461
 30
0.0
 40
0
 41
0
  0
VERTEX
  8
0
 10
10.1897
 20
3.80399
 30
0.0
 40
0
 41
0
  0
VERTEX
  8
0
 10
10.2004
 20
3.78461
 30
0.0
 40
0
 41
0
  0
VERTEX
  8
0
 10
10.2004
 20
3.77815
 30
0.0
 40
0
 41
0
  0
SEQEND
 8
0
  0
POLYLINE
  8
0
 62
     0
 66
     1
 10
0
 20
0
 30
0.0
 70
     1
 40
0.6
 41
0.6
  0
VERTEX
  8
0
 10
10.2004
 20
3.77815
 30
0.0
 40
0.00833333
 41
0.00833333
  0
VERTEX
  8
0
 10
10.2004
 20
3.77175
 30
0.0
 40
0.00833333
 41
0.00833333
  0
VERTEX
  8
0
 10
10.1897
 20
3.75239
 30
0.0
 40
0.00833333
 41
0.00833333
  0
VERTEX
  8
0
 10
10.1704
 20
3.74169
 30
0.0
 40
0.00833333
 41
0.00833333
  0
VERTEX
  8
0
 10
10.164
 20
3.74169
 30
0.0
 40
0.00833333
 41
0.00833333
  0
VERTEX
  8
0
 10
10.1575
 20
3.74169
 30
0.0
 40
0.00833333
 41
0.00833333
  0
VERTEX
  8
0
 10
10.1381
 20
3.75239
 30
0.0
 40
0.00833333
 41
0.00833333
  0
VERTEX
  8
0
 10
10.1275
 20
3.77175
 30
0.0
 40
0.00833333
 41
0.00833333
  0
VERTEX
  8
0
 10
10.1275
 20
3.77815
 30
0.0
 40
0.00833333
 41
0.00833333
  0
VERTEX
  8
0
 10
10.1275
 20
3.78461
 30
0.0
 40
0.00833333
 41
0.00833333
  0
VERTEX
  8
0
 10
10.1381
 20
3.80399
 30
0.0
 40
0.00833333
 41
0.00833333
  0
VERTEX
  8
0
 10
10.1575
 20
3.81461
 30
0.0
 40
0.00833333
 41
0.00833333
  0
VERTEX
  8
0
 10
10.164
 20
3.81461
 30
0.0
 40
0.00833333
 41
0.00833333
  0
VERTEX
  8
0
 10
10.1704
 20
3.81461
 30
0.0
 40
0.00833333
 41
0.00833333
  0
VERTEX
  8
0
 10
10.1897
 20
3.80399
 30
0.0
 40
0.00833333
 41
0.00833333
  0
VERTEX
  8
0
 10
10.2004
 20
3.78461
 30
0.0
 40
0.00833333
 41
0.00833333
  0
VERTEX
  8
0
 10
10.2004
 20
3.77815
 30
0.0
 40
0.00833333
 41
0.00833333
  0
SEQEND
 8
0
  0
POLYLINE
  8
0
 62
     7
 66
     1
 10
0
 20
0
 30
0.0
 70
     1
 40
0
 41
0
  0
VERTEX
  8
0
 10
10.1848
 20
3.77815
 30
0.0
 40
0
 41
0
  0
VERTEX
  8
0
 10
10.1848
 20
3.77453
 30
0.0
 40
0
 41
0
  0
VERTEX
  8
0
 10
10.1787
 20
3.76346
 30
0.0
 40
0
 41
0
  0
VERTEX
  8
0
 10
10.1676
 20
3.75732
 30
0.0
 40
0
 41
0
  0
VERTEX
  8
0
 10
10.164
 20
3.75732
 30
0.0
 40
0
 41
0
  0
VERTEX
  8
0
 10
10.1603
 20
3.75732
 30
0.0
 40
0
 41
0
  0
VERTEX
  8
0
 10
10.1492
 20
3.76346
 30
0.0
 40
0
 41
0
  0
VERTEX
  8
0
 10
10.1431
 20
3.77453
 30
0.0
 40
0
 41
0
  0
VERTEX
  8
0
 10
10.1431
 20
3.77815
 30
0.0
 40
0
 41
0
  0
VERTEX
  8
0
 10
10.1431
 20
3.78185
 30
0.0
 40
0
 41
0
  0
VERTEX
  8
0
 10
10.1492
 20
3.79292
 30
0.0
 40
0
 41
0
  0
VERTEX
  8
0
 10
10.1603
 20
3.79899
 30
0.0
 40
0
 41
0
  0
VERTEX
  8
0
 10
10.164
 20
3.79899
 30
0.0
 40
0
 41
0
  0
VERTEX
  8
0
 10
10.1676
 20
3.79899
 30
0.0
 40
0
 41
0
  0
VERTEX
  8
0
 10
10.1787
 20
3.79292
 30
0.0
 40
0
 41
0
  0
VERTEX
  8
0
 10
10.1848
 20
3.78185
 30
0.0
 40
0
 41
0
  0
VERTEX
  8
0
 10
10.1848
 20
3.77815
 30
0.0
 40
0
 41
0
  0
SEQEND
 8
0
  0
POLYLINE
  8
0
 62
     0
 66
     1
 10
0
 20
0
 30
0.0
 70
     1
 40
0.6
 41
0.6
  0
VERTEX
  8
0
 10
10.1848
 20
3.77815
 30
0.0
 40
0.00833333
 41
0.00833333
  0
VERTEX
  8
0
 10
10.1848
 20
3.77453
 30
0.0
 40
0.00833333
 41
0.00833333
  0
VERTEX
  8
0
 10
10.1787
 20
3.76346
 30
0.0
 40
0.00833333
 41
0.00833333
  0
VERTEX
  8
0
 10
10.1676
 20
3.75732
 30
0.0
 40
0.00833333
 41
0.00833333
  0
VERTEX
  8
0
 10
10.164
 20
3.75732
 30
0.0
 40
0.00833333
 41
0.00833333
  0
VERTEX
  8
0
 10
10.1603
 20
3.75732
 30
0.0
 40
0.00833333
 41
0.00833333
  0
VERTEX
  8
0
 10
10.1492
 20
3.76346
 30
0.0
 40
0.00833333
 41
0.00833333
  0
VERTEX
  8
0
 10
10.1431
 20
3.77453
 30
0.0
 40
0.00833333
 41
0.00833333
  0
VERTEX
  8
0
 10
10.1431
 20
3.77815
 30
0.0
 40
0.00833333
 41
0.00833333
  0
VERTEX
  8
0
 10
10.1431
 20
3.78185
 30
0.0
 40
0.00833333
 41
0.00833333
  0
VERTEX
  8
0
 10
10.1492
 20
3.79292
 30
0.0
 40
0.00833333
 41
0.00833333
  0
VERTEX
  8
0
 10
10.1603
 20
3.79899
 30
0.0
 40
0.00833333
 41
0.00833333
  0
VERTEX
  8
0
 10
10.164
 20
3.79899
 30
0.0
 40
0.00833333
 41
0.00833333
  0
VERTEX
  8
0
 10
10.1676
 20
3.79899
 30
0.0
 40
0.00833333
 41
0.00833333
  0
VERTEX
  8
0
 10
10.1787
 20
3.79292
 30
0.0
 40
0.00833333
 41
0.00833333
  0
VERTEX
  8
0
 10
10.1848
 20
3.78185
 30
0.0
 40
0.00833333
 41
0.00833333
  0
VERTEX
  8
0
 10
10.1848
 20
3.77815
 30
0.0
 40
0.00833333
 41
0.00833333
  0
SEQEND
 8
0
  0
POLYLINE
  8
0
 62
     7
 66
     1
 10
0
 20
0
 30
0.0
 70
     1
 40
0
 41
0
  0
VERTEX
  8
0
 10
10.1356
 20
3.9681
 30
0.0
 40
0
 41
0
  0
VERTEX
  8
0
 10
10.1981
 20
3.9681
 30
0.0
 40
0
 41
0
  0
VERTEX
  8
0
 10
10.1981
 20
3.82226
 30
0.0
 40
0
 41
0
  0
VERTEX
  8
0
 10
10.1356
 20
3.82226
 30
0.0
 40
0
 41
0
  0
VERTEX
  8
0
 10
10.1356
 20
3.9681
 30
0.0
 40
0
 41
0
  0
SEQEND
 8
0
  0
POLYLINE
  8
0
 62
     0
 66
     1
 10
0
 20
0
 30
0.0
 70
     1
 40
0.75
 41
0.75
  0
VERTEX
  8
0
 10
10.1356
 20
3.9681
 30
0.0
 40
0.0104167
 41
0.0104167
  0
VERTEX
  8
0
 10
10.1981
 20
3.9681
 30
0.0
 40
0.0104167
 41
0.0104167
  0
VERTEX
  8
0
 10
10.1981
 20
3.82226
 30
0.0
 40
0.0104167
 41
0.0104167
  0
VERTEX
  8
0
 10
10.1356
 20
3.82226
 30
0.0
 40
0.0104167
 41
0.0104167
  0
VERTEX
  8
0
 10
10.1356
 20
3.9681
 30
0.0
 40
0.0104167
 41
0.0104167
  0
SEQEND
 8
0
  0
POLYLINE
  8
0
 62
     7
 66
     1
 10
0
 20
0
 30
0.0
 70
     1
 40
0
 41
0
  0
VERTEX
  8
0
 10
6.9171
 20
2.19536
 30
0.0
 40
0
 41
0
  0
VERTEX
  8
0
 10
7.5421
 20
2.19536
 30
0.0
 40
0
 41
0
  0
VERTEX
  8
0
 10
7.5421
 20
1.10525
 30
0.0
 40
0
 41
0
  0
VERTEX
  8
0
 10
6.9171
 20
1.10525
 30
0.0
 40
0
 41
0
  0
VERTEX
  8
0
 10
6.9171
 20
2.19536
 30
0.0
 40
0
 41
0
  0
SEQEND
 8
0
  0
POLYLINE
  8
0
 62
     0
 66
     1
 10
0
 20
0
 30
0.0
 70
     1
 40
0.75
 41
0.75
  0
VERTEX
  8
0
 10
6.9171
 20
2.19536
 30
0.0
 40
0.0104167
 41
0.0104167
  0
VERTEX
  8
0
 10
6.9171
 20
1.10525
 30
0.0
 40
0.0104167
 41
0.0104167
  0
VERTEX
  8
0
 10
7.5421
 20
1.10525
 30
0.0
 40
0.0104167
 41
0.0104167
  0
VERTEX
  8
0
 10
7.5421
 20
2.19536
 30
0.0
 40
0.0104167
 41
0.0104167
  0
VERTEX
  8
0
 10
6.9171
 20
2.19536
 30
0.0
 40
0.0104167
 41
0.0104167
  0
SEQEND
 8
0
  0
POLYLINE
  8
0
 62
     7
 66
     1
 10
0
 20
0
 30
0.0
 70
     1
 40
0
 41
0
  0
VERTEX
  8
0
 10
6.9171
 20
3.26531
 30
0.0
 40
0
 41
0
  0
VERTEX
  8
0
 10
7.5421
 20
3.26531
 30
0.0
 40
0
 41
0
  0
VERTEX
  8
0
 10
7.5421
 20
2.19536
 30
0.0
 40
0
 41
0
  0
VERTEX
  8
0
 10
6.9171
 20
2.19536
 30
0.0
 40
0
 41
0
  0
VERTEX
  8
0
 10
6.9171
 20
3.26531
 30
0.0
 40
0
 41
0
  0
SEQEND
 8
0
  0
POLYLINE
  8
0
 62
     0
 66
     1
 10
0
 20
0
 30
0.0
 70
     1
 40
0.75
 41
0.75
  0
VERTEX
  8
0
 10
6.9171
 20
3.26531
 30
0.0
 40
0.0104167
 41
0.0104167
  0
VERTEX
  8
0
 10
6.9171
 20
2.19536
 30
0.0
 40
0.0104167
 41
0.0104167
  0
VERTEX
  8
0
 10
7.5421
 20
2.19536
 30
0.0
 40
0.0104167
 41
0.0104167
  0
VERTEX
  8
0
 10
7.5421
 20
3.26531
 30
0.0
 40
0.0104167
 41
0.0104167
  0
VERTEX
  8
0
 10
6.9171
 20
3.26531
 30
0.0
 40
0.0104167
 41
0.0104167
  0
SEQEND
 8
0
  0
POLYLINE
  8
0
 62
     7
 66
     1
 10
0
 20
0
 30
0.0
 70
     1
 40
0
 41
0
  0
VERTEX
  8
0
 10
11.4173
 20
2.73389
 30
0.0
 40
0
 41
0
  0
VERTEX
  8
0
 10
11.992
 20
2.73389
 30
0.0
 40
0
 41
0
  0
VERTEX
  8
0
 10
11.992
 20
2.36931
 30
0.0
 40
0
 41
0
  0
VERTEX
  8
0
 10
11.4173
 20
2.36931
 30
0.0
 40
0
 41
0
  0
VERTEX
  8
0
 10
11.4173
 20
2.73389
 30
0.0
 40
0
 41
0
  0
SEQEND
 8
0
  0
POLYLINE
  8
0
 62
     0
 66
     1
 10
0
 20
0
 30
0.0
 70
     1
 40
0.689625
 41
0.689625
  0
VERTEX
  8
0
 10
11.4173
 20
2.73389
 30
0.0
 40
0.00957813
 41
0.00957813
  0
VERTEX
  8
0
 10
11.992
 20
2.73389
 30
0.0
 40
0.00957813
 41
0.00957813
  0
VERTEX
  8
0
 10
11.992
 20
2.36931
 30
0.0
 40
0.00957813
 41
0.00957813
  0
VERTEX
  8
0
 10
11.4173
 20
2.36931
 30
0.0
 40
0.00957813
 41
0.00957813
  0
VERTEX
  8
0
 10
11.4173
 20
2.73389
 30
0.0
 40
0.00957813
 41
0.00957813
  0
SEQEND
 8
0
  0
POLYLINE
  8
0
 62
     0
 66
     1
 10
0
 20
0
 30
0.0
 40
0.689625
 41
0.689625
  0
VERTEX
  8
0
 10
11.4173
 20
2.36931
 30
0.0
 40
0.00957813
 41
0.00957813
  0
VERTEX
  8
0
 10
11.7975
 20
2.5516
 30
0.0
 40
0.00957813
 41
0.00957813
  0
VERTEX
  8
0
 10
11.6223
 20
2.5516
 30
0.0
 40
0.00957813
 41
0.00957813
  0
VERTEX
  8
0
 10
11.992
 20
2.73389
 30
0.0
 40
0.00957813
 41
0.00957813
  0
SEQEND
 8
0
  0
POLYLINE
  8
0
 62
     7
 66
     1
 10
0
 20
0
 30
0.0
 70
     1
 40
0
 41
0
  0
VERTEX
  8
0
 10
10.4161
 20
6.62722
 30
0.0
 40
0
 41
0
  0
VERTEX
  8
0
 10
11.3791
 20
6.62722
 30
0.0
 40
0
 41
0
  0
VERTEX
  8
0
 10
11.3791
 20
5.95003
 30
0.0
 40
0
 41
0
  0
VERTEX
  8
0
 10
10.4161
 20
5.95003
 30
0.0
 40
0
 41
0
  0
VERTEX
  8
0
 10
10.4161
 20
6.62722
 30
0.0
 40
0
 41
0
  0
SEQEND
 8
0
  0
POLYLINE
  8
0
 62
     0
 66
     1
 10
0
 20
0
 30
0.0
 70
     1
 40
0.75
 41
0.75
  0
VERTEX
  8
0
 10
10.4161
 20
6.62722
 30
0.0
 40
0.0104167
 41
0.0104167
  0
VERTEX
  8
0
 10
11.3791
 20
6.62722
 30
0.0
 40
0.0104167
 41
0.0104167
  0
VERTEX
  8
0
 10
11.3791
 20
5.95003
 30
0.0
 40
0.0104167
 41
0.0104167
  0
VERTEX
  8
0
 10
10.4161
 20
5.95003
 30
0.0
 40
0.0104167
 41
0.0104167
  0
VERTEX
  8
0
 10
10.4161
 20
6.62722
 30
0.0
 40
0.0104167
 41
0.0104167
  0
SEQEND
 8
0
  0
POLYLINE
  8
0
 62
     7
 66
     1
 10
0
 20
0
 30
0.0
 70
     1
 40
0
 41
0
  0
VERTEX
  8
0
 10
9.39908
 20
6.6269
 30
0.0
 40
0
 41
0
  0
VERTEX
  8
0
 10
10.4161
 20
6.6269
 30
0.0
 40
0
 41
0
  0
VERTEX
  8
0
 10
10.4161
 20
5.9496
 30
0.0
 40
0
 41
0
  0
VERTEX
  8
0
 10
9.39908
 20
5.9496
 30
0.0
 40
0
 41
0
  0
VERTEX
  8
0
 10
9.39908
 20
6.6269
 30
0.0
 40
0
 41
0
  0
SEQEND
 8
0
  0
POLYLINE
  8
0
 62
     0
 66
     1
 10
0
 20
0
 30
0.0
 70
     1
 40
0.75
 41
0.75
  0
VERTEX
  8
0
 10
9.39908
 20
6.6269
 30
0.0
 40
0.0104167
 41
0.0104167
  0
VERTEX
  8
0
 10
10.4161
 20
6.6269
 30
0.0
 40
0.0104167
 41
0.0104167
  0
VERTEX
  8
0
 10
10.4161
 20
5.9496
 30
0.0
 40
0.0104167
 41
0.0104167
  0
VERTEX
  8
0
 10
9.39908
 20
5.9496
 30
0.0
 40
0.0104167
 41
0.0104167
  0
VERTEX
  8
0
 10
9.39908
 20
6.6269
 30
0.0
 40
0.0104167
 41
0.0104167
  0
SEQEND
 8
0
  0
POLYLINE
  8
0
 62
     7
 66
     1
 10
0
 20
0
 30
0.0
 70
     1
 40
0
 41
0
  0
VERTEX
  8
0
 10
9.37631
 20
4.80588
 30
0.0
 40
0
 41
0
  0
VERTEX
  8
0
 10
9.99838
 20
4.80588
 30
0.0
 40
0
 41
0
  0
VERTEX
  8
0
 10
9.99838
 20
4.18088
 30
0.0
 40
0
 41
0
  0
VERTEX
  8
0
 10
9.37631
 20
4.18088
 30
0.0
 40
0
 41
0
  0
VERTEX
  8
0
 10
9.37631
 20
4.80588
 30
0.0
 40
0
 41
0
  0
SEQEND
 8
0
  0
POLYLINE
  8
0
 62
     0
 66
     1
 10
0
 20
0
 30
0.0
 70
     1
 40
0.746475
 41
0.746475
  0
VERTEX
  8
0
 10
9.37631
 20
4.80588
 30
0.0
 40
0.0103677
 41
0.0103677
  0
VERTEX
  8
0
 10
9.99838
 20
4.80588
 30
0.0
 40
0.0103677
 41
0.0103677
  0
VERTEX
  8
0
 10
9.99838
 20
4.18088
 30
0.0
 40
0.0103677
 41
0.0103677
  0
VERTEX
  8
0
 10
9.37631
 20
4.18088
 30
0.0
 40
0.0103677
 41
0.0103677
  0
VERTEX
  8
0
 10
9.37631
 20
4.80588
 30
0.0
 40
0.0103677
 41
0.0103677
  0
SEQEND
 8
0
  0
POLYLINE
  8
0
 62
     0
 66
     1
 10
0
 20
0
 30
0.0
 40
0.746475
 41
0.746475
  0
VERTEX
  8
0
 10
9.99838
 20
4.18088
 30
0.0
 40
0.0103677
 41
0.0103677
  0
VERTEX
  8
0
 10
9.68733
 20
4.5861
 30
0.0
 40
0.0103677
 41
0.0103677
  0
VERTEX
  8
0
 10
9.68733
 20
4.37776
 30
0.0
 40
0.0103677
 41
0.0103677
  0
VERTEX
  8
0
 10
9.37631
 20
4.80588
 30
0.0
 40
0.0103677
 41
0.0103677
  0
SEQEND
 8
0
  0
POLYLINE
  8
0
 62
     0
 66
     1
 10
0
 20
0
 30
0.0
 40
0.746475
 41
0.746475
  0
VERTEX
  8
0
 10
9.89469
 20
4.80171
 30
0.0
 40
0.0103677
 41
0.0103677
  0
VERTEX
  8
0
 10
9.4821
 20
4.80171
 30
0.0
 40
0.0103677
 41
0.0103677
  0
SEQEND
 8
0
  0
POLYLINE
  8
0
 62
     7
 66
     1
 10
0
 20
0
 30
0.0
 70
     1
 40
0
 41
0
  0
VERTEX
  8
0
 10
6.8526
 20
9.95518
 30
0.0
 40
0
 41
0
  0
VERTEX
  8
0
 10
7.51019
 20
9.95518
 30
0.0
 40
0
 41
0
  0
VERTEX
  8
0
 10
7.51019
 20
8.92437
 30
0.0
 40
0
 41
0
  0
VERTEX
  8
0
 10
6.8526
 20
8.92437
 30
0.0
 40
0
 41
0
  0
VERTEX
  8
0
 10
6.8526
 20
9.95518
 30
0.0
 40
0
 41
0
  0
SEQEND
 8
0
  0
POLYLINE
  8
0
 62
     0
 66
     1
 10
0
 20
0
 30
0.0
 70
     1
 40
0.75
 41
0.75
  0
VERTEX
  8
0
 10
6.8526
 20
9.95518
 30
0.0
 40
0.0104167
 41
0.0104167
  0
VERTEX
  8
0
 10
6.8526
 20
8.92437
 30
0.0
 40
0.0104167
 41
0.0104167
  0
VERTEX
  8
0
 10
7.51019
 20
8.92437
 30
0.0
 40
0.0104167
 41
0.0104167
  0
VERTEX
  8
0
 10
7.51019
 20
9.95518
 30
0.0
 40
0.0104167
 41
0.0104167
  0
VERTEX
  8
0
 10
6.8526
 20
9.95518
 30
0.0
 40
0.0104167
 41
0.0104167
  0
SEQEND
 8
0
  0
POLYLINE
  8
0
 62
     7
 66
     1
 10
0
 20
0
 30
0.0
 70
     1
 40
0
 41
0
  0
VERTEX
  8
0
 10
6.85194
 20
11.1539
 30
0.0
 40
0
 41
0
  0
VERTEX
  8
0
 10
7.50956
 20
11.1539
 30
0.0
 40
0
 41
0
  0
VERTEX
  8
0
 10
7.50956
 20
9.95518
 30
0.0
 40
0
 41
0
  0
VERTEX
  8
0
 10
6.85194
 20
9.95518
 30
0.0
 40
0
 41
0
  0
VERTEX
  8
0
 10
6.85194
 20
11.1539
 30
0.0
 40
0
 41
0
  0
SEQEND
 8
0
  0
POLYLINE
  8
0
 62
     0
 66
     1
 10
0
 20
0
 30
0.0
 70
     1
 40
0.75
 41
0.75
  0
VERTEX
  8
0
 10
6.85194
 20
11.1539
 30
0.0
 40
0.0104167
 41
0.0104167
  0
VERTEX
  8
0
 10
6.85194
 20
9.95518
 30
0.0
 40
0.0104167
 41
0.0104167
  0
VERTEX
  8
0
 10
7.50956
 20
9.95518
 30
0.0
 40
0.0104167
 41
0.0104167
  0
VERTEX
  8
0
 10
7.50956
 20
11.1539
 30
0.0
 40
0.0104167
 41
0.0104167
  0
VERTEX
  8
0
 10
6.85194
 20
11.1539
 30
0.0
 40
0.0104167
 41
0.0104167
  0
SEQEND
 8
0
  0
POLYLINE
  8
0
 62
     7
 66
     1
 10
0
 20
0
 30
0.0
 70
     1
 40
0
 41
0
  0
VERTEX
  8
0
 10
6.85292
 20
12.0929
 30
0.0
 40
0
 41
0
  0
VERTEX
  8
0
 10
7.51053
 20
12.0929
 30
0.0
 40
0
 41
0
  0
VERTEX
  8
0
 10
7.51053
 20
11.1539
 30
0.0
 40
0
 41
0
  0
VERTEX
  8
0
 10
6.85292
 20
11.1539
 30
0.0
 40
0
 41
0
  0
VERTEX
  8
0
 10
6.85292
 20
12.0929
 30
0.0
 40
0
 41
0
  0
SEQEND
 8
0
  0
POLYLINE
  8
0
 62
     0
 66
     1
 10
0
 20
0
 30
0.0
 70
     1
 40
0.75
 41
0.75
  0
VERTEX
  8
0
 10
6.85292
 20
12.0929
 30
0.0
 40
0.0104167
 41
0.0104167
  0
VERTEX
  8
0
 10
6.85292
 20
11.1539
 30
0.0
 40
0.0104167
 41
0.0104167
  0
VERTEX
  8
0
 10
7.51053
 20
11.1539
 30
0.0
 40
0.0104167
 41
0.0104167
  0
VERTEX
  8
0
 10
7.51053
 20
12.0929
 30
0.0
 40
0.0104167
 41
0.0104167
  0
VERTEX
  8
0
 10
6.85292
 20
12.0929
 30
0.0
 40
0.0104167
 41
0.0104167
  0
SEQEND
 8
0
  0
POLYLINE
  8
0
 62
     7
 66
     1
 10
0
 20
0
 30
0.0
 70
     1
 40
0
 41
0
  0
VERTEX
  8
0
 10
10.0817
 20
4.75146
 30
0.0
 40
0
 41
0
  0
VERTEX
  8
0
 10
10.6025
 20
4.75146
 30
0.0
 40
0
 41
0
  0
VERTEX
  8
0
 10
10.6025
 20
4.28271
 30
0.0
 40
0
 41
0
  0
VERTEX
  8
0
 10
10.0817
 20
4.28271
 30
0.0
 40
0
 41
0
  0
VERTEX
  8
0
 10
10.0817
 20
4.75146
 30
0.0
 40
0
 41
0
  0
SEQEND
 8
0
  0
POLYLINE
  8
0
 62
     0
 66
     1
 10
0
 20
0
 30
0.0
 70
     1
 40
0.75
 41
0.75
  0
VERTEX
  8
0
 10
10.0817
 20
4.75146
 30
0.0
 40
0.0104167
 41
0.0104167
  0
VERTEX
  8
0
 10
10.6025
 20
4.75146
 30
0.0
 40
0.0104167
 41
0.0104167
  0
VERTEX
  8
0
 10
10.6025
 20
4.28271
 30
0.0
 40
0.0104167
 41
0.0104167
  0
VERTEX
  8
0
 10
10.0817
 20
4.28271
 30
0.0
 40
0.0104167
 41
0.0104167
  0
VERTEX
  8
0
 10
10.0817
 20
4.75146
 30
0.0
 40
0.0104167
 41
0.0104167
  0
SEQEND
 8
0
  0
POLYLINE
  8
0
 62
     7
 66
     1
 10
0
 20
0
 30
0.0
 70
     1
 40
0
 41
0
  0
VERTEX
  8
0
 10
10.3057
 20
4.51708
 30
0.0
 40
0
 41
0
  0
VERTEX
  8
0
 10
10.3057
 20
4.52354
 30
0.0
 40
0
 41
0
  0
VERTEX
  8
0
 10
10.3163
 20
4.54292
 30
0.0
 40
0
 41
0
  0
VERTEX
  8
0
 10
10.3357
 20
4.55354
 30
0.0
 40
0
 41
0
  0
VERTEX
  8
0
 10
10.3421
 20
4.55354
 30
0.0
 40
0
 41
0
  0
VERTEX
  8
0
 10
10.3485
 20
4.55354
 30
0.0
 40
0
 41
0
  0
VERTEX
  8
0
 10
10.3679
 20
4.54292
 30
0.0
 40
0
 41
0
  0
VERTEX
  8
0
 10
10.3786
 20
4.52354
 30
0.0
 40
0
 41
0
  0
VERTEX
  8
0
 10
10.3786
 20
4.51708
 30
0.0
 40
0
 41
0
  0
VERTEX
  8
0
 10
10.3786
 20
4.51069
 30
0.0
 40
0
 41
0
  0
VERTEX
  8
0
 10
10.3679
 20
4.49132
 30
0.0
 40
0
 41
0
  0
VERTEX
  8
0
 10
10.3485
 20
4.48063
 30
0.0
 40
0
 41
0
  0
VERTEX
  8
0
 10
10.3421
 20
4.48063
 30
0.0
 40
0
 41
0
  0
VERTEX
  8
0
 10
10.3357
 20
4.48063
 30
0.0
 40
0
 41
0
  0
VERTEX
  8
0
 10
10.3163
 20
4.49132
 30
0.0
 40
0
 41
0
  0
VERTEX
  8
0
 10
10.3057
 20
4.51069
 30
0.0
 40
0
 41
0
  0
VERTEX
  8
0
 10
10.3057
 20
4.51708
 30
0.0
 40
0
 41
0
  0
SEQEND
 8
0
  0
POLYLINE
  8
0
 62
     0
 66
     1
 10
0
 20
0
 30
0.0
 70
     1
 40
0.6
 41
0.6
  0
VERTEX
  8
0
 10
10.3057
 20
4.51708
 30
0.0
 40
0.00833333
 41
0.00833333
  0
VERTEX
  8
0
 10
10.3057
 20
4.52354
 30
0.0
 40
0.00833333
 41
0.00833333
  0
VERTEX
  8
0
 10
10.3163
 20
4.54292
 30
0.0
 40
0.00833333
 41
0.00833333
  0
VERTEX
  8
0
 10
10.3357
 20
4.55354
 30
0.0
 40
0.00833333
 41
0.00833333
  0
VERTEX
  8
0
 10
10.3421
 20
4.55354
 30
0.0
 40
0.00833333
 41
0.00833333
  0
VERTEX
  8
0
 10
10.3485
 20
4.55354
 30
0.0
 40
0.00833333
 41
0.00833333
  0
VERTEX
  8
0
 10
10.3679
 20
4.54292
 30
0.0
 40
0.00833333
 41
0.00833333
  0
VERTEX
  8
0
 10
10.3786
 20
4.52354
 30
0.0
 40
0.00833333
 41
0.00833333
  0
VERTEX
  8
0
 10
10.3786
 20
4.51708
 30
0.0
 40
0.00833333
 41
0.00833333
  0
VERTEX
  8
0
 10
10.3786
 20
4.51069
 30
0.0
 40
0.00833333
 41
0.00833333
  0
VERTEX
  8
0
 10
10.3679
 20
4.49132
 30
0.0
 40
0.00833333
 41
0.00833333
  0
VERTEX
  8
0
 10
10.3485
 20
4.48063
 30
0.0
 40
0.00833333
 41
0.00833333
  0
VERTEX
  8
0
 10
10.3421
 20
4.48063
 30
0.0
 40
0.00833333
 41
0.00833333
  0
VERTEX
  8
0
 10
10.3357
 20
4.48063
 30
0.0
 40
0.00833333
 41
0.00833333
  0
VERTEX
  8
0
 10
10.3163
 20
4.49132
 30
0.0
 40
0.00833333
 41
0.00833333
  0
VERTEX
  8
0
 10
10.3057
 20
4.51069
 30
0.0
 40
0.00833333
 41
0.00833333
  0
VERTEX
  8
0
 10
10.3057
 20
4.51708
 30
0.0
 40
0.00833333
 41
0.00833333
  0
SEQEND
 8
0
  0
POLYLINE
  8
0
 62
     7
 66
     1
 10
0
 20
0
 30
0.0
 70
     1
 40
0
 41
0
  0
VERTEX
  8
0
 10
10.3213
 20
4.51708
 30
0.0
 40
0
 41
0
  0
VERTEX
  8
0
 10
10.3213
 20
4.52078
 30
0.0
 40
0
 41
0
  0
VERTEX
  8
0
 10
10.3274
 20
4.53185
 30
0.0
 40
0
 41
0
  0
VERTEX
  8
0
 10
10.3384
 20
4.53792
 30
0.0
 40
0
 41
0
  0
VERTEX
  8
0
 10
10.3421
 20
4.53792
 30
0.0
 40
0
 41
0
  0
VERTEX
  8
0
 10
10.3458
 20
4.53792
 30
0.0
 40
0
 41
0
  0
VERTEX
  8
0
 10
10.3568
 20
4.53185
 30
0.0
 40
0
 41
0
  0
VERTEX
  8
0
 10
10.363
 20
4.52078
 30
0.0
 40
0
 41
0
  0
VERTEX
  8
0
 10
10.363
 20
4.51708
 30
0.0
 40
0
 41
0
  0
VERTEX
  8
0
 10
10.363
 20
4.51346
 30
0.0
 40
0
 41
0
  0
VERTEX
  8
0
 10
10.3568
 20
4.50239
 30
0.0
 40
0
 41
0
  0
VERTEX
  8
0
 10
10.3458
 20
4.49625
 30
0.0
 40
0
 41
0
  0
VERTEX
  8
0
 10
10.3421
 20
4.49625
 30
0.0
 40
0
 41
0
  0
VERTEX
  8
0
 10
10.3384
 20
4.49625
 30
0.0
 40
0
 41
0
  0
VERTEX
  8
0
 10
10.3274
 20
4.50239
 30
0.0
 40
0
 41
0
  0
VERTEX
  8
0
 10
10.3213
 20
4.51346
 30
0.0
 40
0
 41
0
  0
VERTEX
  8
0
 10
10.3213
 20
4.51708
 30
0.0
 40
0
 41
0
  0
SEQEND
 8
0
  0
POLYLINE
  8
0
 62
     0
 66
     1
 10
0
 20
0
 30
0.0
 70
     1
 40
0.6
 41
0.6
  0
VERTEX
  8
0
 10
10.3213
 20
4.51708
 30
0.0
 40
0.00833333
 41
0.00833333
  0
VERTEX
  8
0
 10
10.3213
 20
4.52078
 30
0.0
 40
0.00833333
 41
0.00833333
  0
VERTEX
  8
0
 10
10.3274
 20
4.53185
 30
0.0
 40
0.00833333
 41
0.00833333
  0
VERTEX
  8
0
 10
10.3384
 20
4.53792
 30
0.0
 40
0.00833333
 41
0.00833333
  0
VERTEX
  8
0
 10
10.3421
 20
4.53792
 30
0.0
 40
0.00833333
 41
0.00833333
  0
VERTEX
  8
0
 10
10.3458
 20
4.53792
 30
0.0
 40
0.00833333
 41
0.00833333
  0
VERTEX
  8
0
 10
10.3568
 20
4.53185
 30
0.0
 40
0.00833333
 41
0.00833333
  0
VERTEX
  8
0
 10
10.363
 20
4.52078
 30
0.0
 40
0.00833333
 41
0.00833333
  0
VERTEX
  8
0
 10
10.363
 20
4.51708
 30
0.0
 40
0.00833333
 41
0.00833333
  0
VERTEX
  8
0
 10
10.363
 20
4.51346
 30
0.0
 40
0.00833333
 41
0.00833333
  0
VERTEX
  8
0
 10
10.3568
 20
4.50239
 30
0.0
 40
0.00833333
 41
0.00833333
  0
VERTEX
  8
0
 10
10.3458
 20
4.49625
 30
0.0
 40
0.00833333
 41
0.00833333
  0
VERTEX
  8
0
 10
10.3421
 20
4.49625
 30
0.0
 40
0.00833333
 41
0.00833333
  0
VERTEX
  8
0
 10
10.3384
 20
4.49625
 30
0.0
 40
0.00833333
 41
0.00833333
  0
VERTEX
  8
0
 10
10.3274
 20
4.50239
 30
0.0
 40
0.00833333
 41
0.00833333
  0
VERTEX
  8
0
 10
10.3213
 20
4.51346
 30
0.0
 40
0.00833333
 41
0.00833333
  0
VERTEX
  8
0
 10
10.3213
 20
4.51708
 30
0.0
 40
0.00833333
 41
0.00833333
  0
SEQEND
 8
0
  0
POLYLINE
  8
0
 62
     7
 66
     1
 10
0
 20
0
 30
0.0
 70
     1
 40
0
 41
0
  0
VERTEX
  8
0
 10
10.3109
 20
4.37961
 30
0.0
 40
0
 41
0
  0
VERTEX
  8
0
 10
10.3734
 20
4.37961
 30
0.0
 40
0
 41
0
  0
VERTEX
  8
0
 10
10.3734
 20
4.23378
 30
0.0
 40
0
 41
0
  0
VERTEX
  8
0
 10
10.3109
 20
4.23378
 30
0.0
 40
0
 41
0
  0
VERTEX
  8
0
 10
10.3109
 20
4.37961
 30
0.0
 40
0
 41
0
  0
SEQEND
 8
0
  0
POLYLINE
  8
0
 62
     0
 66
     1
 10
0
 20
0
 30
0.0
 70
     1
 40
0.75
 41
0.75
  0
VERTEX
  8
0
 10
10.3109
 20
4.37961
 30
0.0
 40
0.0104167
 41
0.0104167
  0
VERTEX
  8
0
 10
10.3734
 20
4.37961
 30
0.0
 40
0.0104167
 41
0.0104167
  0
VERTEX
  8
0
 10
10.3734
 20
4.23378
 30
0.0
 40
0.0104167
 41
0.0104167
  0
VERTEX
  8
0
 10
10.3109
 20
4.23378
 30
0.0
 40
0.0104167
 41
0.0104167
  0
VERTEX
  8
0
 10
10.3109
 20
4.37961
 30
0.0
 40
0.0104167
 41
0.0104167
  0
SEQEND
 8
0
  0
POLYLINE
  8
0
 62
     7
 66
     1
 10
0
 20
0
 30
0.0
 70
     1
 40
0
 41
0
  0
VERTEX
  8
0
 10
10.6946
 20
4.80485
 30
0.0
 40
0
 41
0
  0
VERTEX
  8
0
 10
11.3578
 20
4.80485
 30
0.0
 40
0
 41
0
  0
VERTEX
  8
0
 10
11.3578
 20
4.18235
 30
0.0
 40
0
 41
0
  0
VERTEX
  8
0
 10
10.6946
 20
4.18235
 30
0.0
 40
0
 41
0
  0
VERTEX
  8
0
 10
10.6946
 20
4.80485
 30
0.0
 40
0
 41
0
  0
SEQEND
 8
0
  0
POLYLINE
  8
0
 62
     0
 66
     1
 10
0
 20
0
 30
0.0
 70
     1
 40
0.75
 41
0.75
  0
VERTEX
  8
0
 10
10.6946
 20
4.80485
 30
0.0
 40
0.0104167
 41
0.0104167
  0
VERTEX
  8
0
 10
11.3578
 20
4.80485
 30
0.0
 40
0.0104167
 41
0.0104167
  0
VERTEX
  8
0
 10
11.3578
 20
4.18235
 30
0.0
 40
0.0104167
 41
0.0104167
  0
VERTEX
  8
0
 10
10.6946
 20
4.18235
 30
0.0
 40
0.0104167
 41
0.0104167
  0
VERTEX
  8
0
 10
10.6946
 20
4.80485
 30
0.0
 40
0.0104167
 41
0.0104167
  0
SEQEND
 8
0
  0
POLYLINE
  8
0
 62
     7
 66
     1
 10
0
 20
0
 30
0.0
 70
     1
 40
0
 41
0
  0
VERTEX
  8
0
 10
11.1066
 20
4.33897
 30
0.0
 40
0
 41
0
  0
VERTEX
  8
0
 10
11.1066
 20
4.34711
 30
0.0
 40
0
 41
0
  0
VERTEX
  8
0
 10
11.1131
 20
4.37142
 30
0.0
 40
0
 41
0
  0
VERTEX
  8
0
 10
11.1309
 20
4.39789
 30
0.0
 40
0
 41
0
  0
VERTEX
  8
0
 10
11.1574
 20
4.41581
 30
0.0
 40
0
 41
0
  0
VERTEX
  8
0
 10
11.1818
 20
4.42231
 30
0.0
 40
0
 41
0
  0
VERTEX
  8
0
 10
11.1899
 20
4.42231
 30
0.0
 40
0
 41
0
  0
VERTEX
  8
0
 10
11.198
 20
4.42231
 30
0.0
 40
0
 41
0
  0
VERTEX
  8
0
 10
11.2223
 20
4.41581
 30
0.0
 40
0
 41
0
  0
VERTEX
  8
0
 10
11.2488
 20
4.39789
 30
0.0
 40
0
 41
0
  0
VERTEX
  8
0
 10
11.2667
 20
4.37142
 30
0.0
 40
0
 41
0
  0
VERTEX
  8
0
 10
11.2732
 20
4.34711
 30
0.0
 40
0
 41
0
  0
VERTEX
  8
0
 10
11.2732
 20
4.33897
 30
0.0
 40
0
 41
0
  0
VERTEX
  8
0
 10
11.2732
 20
4.33089
 30
0.0
 40
0
 41
0
  0
VERTEX
  8
0
 10
11.2667
 20
4.30653
 30
0.0
 40
0
 41
0
  0
VERTEX
  8
0
 10
11.2488
 20
4.28006
 30
0.0
 40
0
 41
0
  0
VERTEX
  8
0
 10
11.2223
 20
4.26221
 30
0.0
 40
0
 41
0
  0
VERTEX
  8
0
 10
11.198
 20
4.25564
 30
0.0
 40
0
 41
0
  0
VERTEX
  8
0
 10
11.1899
 20
4.25564
 30
0.0
 40
0
 41
0
  0
VERTEX
  8
0
 10
11.1818
 20
4.25564
 30
0.0
 40
0
 41
0
  0
VERTEX
  8
0
 10
11.1574
 20
4.26221
 30
0.0
 40
0
 41
0
  0
VERTEX
  8
0
 10
11.1309
 20
4.28006
 30
0.0
 40
0
 41
0
  0
VERTEX
  8
0
 10
11.1131
 20
4.30653
 30
0.0
 40
0
 41
0
  0
VERTEX
  8
0
 10
11.1066
 20
4.33089
 30
0.0
 40
0
 41
0
  0
VERTEX
  8
0
 10
11.1066
 20
4.33897
 30
0.0
 40
0
 41
0
  0
SEQEND
 8
0
  0
POLYLINE
  8
0
 62
     0
 66
     1
 10
0
 20
0
 30
0.0
 70
     1
 40
0.75
 41
0.75
  0
VERTEX
  8
0
 10
11.1066
 20
4.33897
 30
0.0
 40
0.0104167
 41
0.0104167
  0
VERTEX
  8
0
 10
11.1066
 20
4.34711
 30
0.0
 40
0.0104167
 41
0.0104167
  0
VERTEX
  8
0
 10
11.1131
 20
4.37142
 30
0.0
 40
0.0104167
 41
0.0104167
  0
VERTEX
  8
0
 10
11.1309
 20
4.39789
 30
0.0
 40
0.0104167
 41
0.0104167
  0
VERTEX
  8
0
 10
11.1574
 20
4.41581
 30
0.0
 40
0.0104167
 41
0.0104167
  0
VERTEX
  8
0
 10
11.1818
 20
4.42231
 30
0.0
 40
0.0104167
 41
0.0104167
  0
VERTEX
  8
0
 10
11.1899
 20
4.42231
 30
0.0
 40
0.0104167
 41
0.0104167
  0
VERTEX
  8
0
 10
11.198
 20
4.42231
 30
0.0
 40
0.0104167
 41
0.0104167
  0
VERTEX
  8
0
 10
11.2223
 20
4.41581
 30
0.0
 40
0.0104167
 41
0.0104167
  0
VERTEX
  8
0
 10
11.2488
 20
4.39789
 30
0.0
 40
0.0104167
 41
0.0104167
  0
VERTEX
  8
0
 10
11.2667
 20
4.37142
 30
0.0
 40
0.0104167
 41
0.0104167
  0
VERTEX
  8
0
 10
11.2732
 20
4.34711
 30
0.0
 40
0.0104167
 41
0.0104167
  0
VERTEX
  8
0
 10
11.2732
 20
4.33897
 30
0.0
 40
0.0104167
 41
0.0104167
  0
VERTEX
  8
0
 10
11.2732
 20
4.33089
 30
0.0
 40
0.0104167
 41
0.0104167
  0
VERTEX
  8
0
 10
11.2667
 20
4.30653
 30
0.0
 40
0.0104167
 41
0.0104167
  0
VERTEX
  8
0
 10
11.2488
 20
4.28006
 30
0.0
 40
0.0104167
 41
0.0104167
  0
VERTEX
  8
0
 10
11.2223
 20
4.26221
 30
0.0
 40
0.0104167
 41
0.0104167
  0
VERTEX
  8
0
 10
11.198
 20
4.25564
 30
0.0
 40
0.0104167
 41
0.0104167
  0
VERTEX
  8
0
 10
11.1899
 20
4.25564
 30
0.0
 40
0.0104167
 41
0.0104167
  0
VERTEX
  8
0
 10
11.1818
 20
4.25564
 30
0.0
 40
0.0104167
 41
0.0104167
  0
VERTEX
  8
0
 10
11.1574
 20
4.26221
 30
0.0
 40
0.0104167
 41
0.0104167
  0
VERTEX
  8
0
 10
11.1309
 20
4.28006
 30
0.0
 40
0.0104167
 41
0.0104167
  0
VERTEX
  8
0
 10
11.1131
 20
4.30653
 30
0.0
 40
0.0104167
 41
0.0104167
  0
VERTEX
  8
0
 10
11.1066
 20
4.33089
 30
0.0
 40
0.0104167
 41
0.0104167
  0
VERTEX
  8
0
 10
11.1066
 20
4.33897
 30
0.0
 40
0.0104167
 41
0.0104167
  0
SEQEND
 8
0
  0
POLYLINE
  8
0
 62
     7
 66
     1
 10
0
 20
0
 30
0.0
 70
     1
 40
0
 41
0
  0
VERTEX
  8
0
 10
10.7763
 20
4.33897
 30
0.0
 40
0
 41
0
  0
VERTEX
  8
0
 10
10.7763
 20
4.34711
 30
0.0
 40
0
 41
0
  0
VERTEX
  8
0
 10
10.7828
 20
4.37142
 30
0.0
 40
0
 41
0
  0
VERTEX
  8
0
 10
10.8007
 20
4.39789
 30
0.0
 40
0
 41
0
  0
VERTEX
  8
0
 10
10.8272
 20
4.41581
 30
0.0
 40
0
 41
0
  0
VERTEX
  8
0
 10
10.8515
 20
4.42231
 30
0.0
 40
0
 41
0
  0
VERTEX
  8
0
 10
10.8597
 20
4.42231
 30
0.0
 40
0
 41
0
  0
VERTEX
  8
0
 10
10.8677
 20
4.42231
 30
0.0
 40
0
 41
0
  0
VERTEX
  8
0
 10
10.8921
 20
4.41581
 30
0.0
 40
0
 41
0
  0
VERTEX
  8
0
 10
10.9186
 20
4.39789
 30
0.0
 40
0
 41
0
  0
VERTEX
  8
0
 10
10.9364
 20
4.37142
 30
0.0
 40
0
 41
0
  0
VERTEX
  8
0
 10
10.943
 20
4.34711
 30
0.0
 40
0
 41
0
  0
VERTEX
  8
0
 10
10.943
 20
4.33897
 30
0.0
 40
0
 41
0
  0
VERTEX
  8
0
 10
10.943
 20
4.33089
 30
0.0
 40
0
 41
0
  0
VERTEX
  8
0
 10
10.9364
 20
4.30653
 30
0.0
 40
0
 41
0
  0
VERTEX
  8
0
 10
10.9186
 20
4.28006
 30
0.0
 40
0
 41
0
  0
VERTEX
  8
0
 10
10.8921
 20
4.26221
 30
0.0
 40
0
 41
0
  0
VERTEX
  8
0
 10
10.8677
 20
4.25564
 30
0.0
 40
0
 41
0
  0
VERTEX
  8
0
 10
10.8597
 20
4.25564
 30
0.0
 40
0
 41
0
  0
VERTEX
  8
0
 10
10.8515
 20
4.25564
 30
0.0
 40
0
 41
0
  0
VERTEX
  8
0
 10
10.8272
 20
4.26221
 30
0.0
 40
0
 41
0
  0
VERTEX
  8
0
 10
10.8007
 20
4.28006
 30
0.0
 40
0
 41
0
  0
VERTEX
  8
0
 10
10.7828
 20
4.30653
 30
0.0
 40
0
 41
0
  0
VERTEX
  8
0
 10
10.7763
 20
4.33089
 30
0.0
 40
0
 41
0
  0
VERTEX
  8
0
 10
10.7763
 20
4.33897
 30
0.0
 40
0
 41
0
  0
SEQEND
 8
0
  0
POLYLINE
  8
0
 62
     0
 66
     1
 10
0
 20
0
 30
0.0
 70
     1
 40
0.75
 41
0.75
  0
VERTEX
  8
0
 10
10.7763
 20
4.33897
 30
0.0
 40
0.0104167
 41
0.0104167
  0
VERTEX
  8
0
 10
10.7763
 20
4.34711
 30
0.0
 40
0.0104167
 41
0.0104167
  0
VERTEX
  8
0
 10
10.7828
 20
4.37142
 30
0.0
 40
0.0104167
 41
0.0104167
  0
VERTEX
  8
0
 10
10.8007
 20
4.39789
 30
0.0
 40
0.0104167
 41
0.0104167
  0
VERTEX
  8
0
 10
10.8272
 20
4.41581
 30
0.0
 40
0.0104167
 41
0.0104167
  0
VERTEX
  8
0
 10
10.8515
 20
4.42231
 30
0.0
 40
0.0104167
 41
0.0104167
  0
VERTEX
  8
0
 10
10.8597
 20
4.42231
 30
0.0
 40
0.0104167
 41
0.0104167
  0
VERTEX
  8
0
 10
10.8677
 20
4.42231
 30
0.0
 40
0.0104167
 41
0.0104167
  0
VERTEX
  8
0
 10
10.8921
 20
4.41581
 30
0.0
 40
0.0104167
 41
0.0104167
  0
VERTEX
  8
0
 10
10.9186
 20
4.39789
 30
0.0
 40
0.0104167
 41
0.0104167
  0
VERTEX
  8
0
 10
10.9364
 20
4.37142
 30
0.0
 40
0.0104167
 41
0.0104167
  0
VERTEX
  8
0
 10
10.943
 20
4.34711
 30
0.0
 40
0.0104167
 41
0.0104167
  0
VERTEX
  8
0
 10
10.943
 20
4.33897
 30
0.0
 40
0.0104167
 41
0.0104167
  0
VERTEX
  8
0
 10
10.943
 20
4.33089
 30
0.0
 40
0.0104167
 41
0.0104167
  0
VERTEX
  8
0
 10
10.9364
 20
4.30653
 30
0.0
 40
0.0104167
 41
0.0104167
  0
VERTEX
  8
0
 10
10.9186
 20
4.28006
 30
0.0
 40
0.0104167
 41
0.0104167
  0
VERTEX
  8
0
 10
10.8921
 20
4.26221
 30
0.0
 40
0.0104167
 41
0.0104167
  0
VERTEX
  8
0
 10
10.8677
 20
4.25564
 30
0.0
 40
0.0104167
 41
0.0104167
  0
VERTEX
  8
0
 10
10.8597
 20
4.25564
 30
0.0
 40
0.0104167
 41
0.0104167
  0
VERTEX
  8
0
 10
10.8515
 20
4.25564
 30
0.0
 40
0.0104167
 41
0.0104167
  0
VERTEX
  8
0
 10
10.8272
 20
4.26221
 30
0.0
 40
0.0104167
 41
0.0104167
  0
VERTEX
  8
0
 10
10.8007
 20
4.28006
 30
0.0
 40
0.0104167
 41
0.0104167
  0
VERTEX
  8
0
 10
10.7828
 20
4.30653
 30
0.0
 40
0.0104167
 41
0.0104167
  0
VERTEX
  8
0
 10
10.7763
 20
4.33089
 30
0.0
 40
0.0104167
 41
0.0104167
  0
VERTEX
  8
0
 10
10.7763
 20
4.33897
 30
0.0
 40
0.0104167
 41
0.0104167
  0
SEQEND
 8
0
  0
POLYLINE
  8
0
 62
     7
 66
     1
 10
0
 20
0
 30
0.0
 70
     1
 40
0
 41
0
  0
VERTEX
  8
0
 10
11.1066
 20
4.64953
 30
0.0
 40
0
 41
0
  0
VERTEX
  8
0
 10
11.1066
 20
4.65767
 30
0.0
 40
0
 41
0
  0
VERTEX
  8
0
 10
11.1131
 20
4.68197
 30
0.0
 40
0
 41
0
  0
VERTEX
  8
0
 10
11.1309
 20
4.70844
 30
0.0
 40
0
 41
0
  0
VERTEX
  8
0
 10
11.1574
 20
4.72635
 30
0.0
 40
0
 41
0
  0
VERTEX
  8
0
 10
11.1818
 20
4.73286
 30
0.0
 40
0
 41
0
  0
VERTEX
  8
0
 10
11.1899
 20
4.73286
 30
0.0
 40
0
 41
0
  0
VERTEX
  8
0
 10
11.198
 20
4.73286
 30
0.0
 40
0
 41
0
  0
VERTEX
  8
0
 10
11.2223
 20
4.72635
 30
0.0
 40
0
 41
0
  0
VERTEX
  8
0
 10
11.2488
 20
4.70844
 30
0.0
 40
0
 41
0
  0
VERTEX
  8
0
 10
11.2667
 20
4.68197
 30
0.0
 40
0
 41
0
  0
VERTEX
  8
0
 10
11.2732
 20
4.65767
 30
0.0
 40
0
 41
0
  0
VERTEX
  8
0
 10
11.2732
 20
4.64953
 30
0.0
 40
0
 41
0
  0
VERTEX
  8
0
 10
11.2732
 20
4.64144
 30
0.0
 40
0
 41
0
  0
VERTEX
  8
0
 10
11.2667
 20
4.61714
 30
0.0
 40
0
 41
0
  0
VERTEX
  8
0
 10
11.2488
 20
4.5906
 30
0.0
 40
0
 41
0
  0
VERTEX
  8
0
 10
11.2223
 20
4.57275
 30
0.0
 40
0
 41
0
  0
VERTEX
  8
0
 10
11.198
 20
4.56619
 30
0.0
 40
0
 41
0
  0
VERTEX
  8
0
 10
11.1899
 20
4.56619
 30
0.0
 40
0
 41
0
  0
VERTEX
  8
0
 10
11.1818
 20
4.56619
 30
0.0
 40
0
 41
0
  0
VERTEX
  8
0
 10
11.1574
 20
4.57275
 30
0.0
 40
0
 41
0
  0
VERTEX
  8
0
 10
11.1309
 20
4.5906
 30
0.0
 40
0
 41
0
  0
VERTEX
  8
0
 10
11.1131
 20
4.61714
 30
0.0
 40
0
 41
0
  0
VERTEX
  8
0
 10
11.1066
 20
4.64144
 30
0.0
 40
0
 41
0
  0
VERTEX
  8
0
 10
11.1066
 20
4.64953
 30
0.0
 40
0
 41
0
  0
SEQEND
 8
0
  0
POLYLINE
  8
0
 62
     0
 66
     1
 10
0
 20
0
 30
0.0
 70
     1
 40
0.75
 41
0.75
  0
VERTEX
  8
0
 10
11.1066
 20
4.64953
 30
0.0
 40
0.0104167
 41
0.0104167
  0
VERTEX
  8
0
 10
11.1066
 20
4.65767
 30
0.0
 40
0.0104167
 41
0.0104167
  0
VERTEX
  8
0
 10
11.1131
 20
4.68197
 30
0.0
 40
0.0104167
 41
0.0104167
  0
VERTEX
  8
0
 10
11.1309
 20
4.70844
 30
0.0
 40
0.0104167
 41
0.0104167
  0
VERTEX
  8
0
 10
11.1574
 20
4.72635
 30
0.0
 40
0.0104167
 41
0.0104167
  0
VERTEX
  8
0
 10
11.1818
 20
4.73286
 30
0.0
 40
0.0104167
 41
0.0104167
  0
VERTEX
  8
0
 10
11.1899
 20
4.73286
 30
0.0
 40
0.0104167
 41
0.0104167
  0
VERTEX
  8
0
 10
11.198
 20
4.73286
 30
0.0
 40
0.0104167
 41
0.0104167
  0
VERTEX
  8
0
 10
11.2223
 20
4.72635
 30
0.0
 40
0.0104167
 41
0.0104167
  0
VERTEX
  8
0
 10
11.2488
 20
4.70844
 30
0.0
 40
0.0104167
 41
0.0104167
  0
VERTEX
  8
0
 10
11.2667
 20
4.68197
 30
0.0
 40
0.0104167
 41
0.0104167
  0
VERTEX
  8
0
 10
11.2732
 20
4.65767
 30
0.0
 40
0.0104167
 41
0.0104167
  0
VERTEX
  8
0
 10
11.2732
 20
4.64953
 30
0.0
 40
0.0104167
 41
0.0104167
  0
VERTEX
  8
0
 10
11.2732
 20
4.64144
 30
0.0
 40
0.0104167
 41
0.0104167
  0
VERTEX
  8
0
 10
11.2667
 20
4.61714
 30
0.0
 40
0.0104167
 41
0.0104167
  0
VERTEX
  8
0
 10
11.2488
 20
4.5906
 30
0.0
 40
0.0104167
 41
0.0104167
  0
VERTEX
  8
0
 10
11.2223
 20
4.57275
 30
0.0
 40
0.0104167
 41
0.0104167
  0
VERTEX
  8
0
 10
11.198
 20
4.56619
 30
0.0
 40
0.0104167
 41
0.0104167
  0
VERTEX
  8
0
 10
11.1899
 20
4.56619
 30
0.0
 40
0.0104167
 41
0.0104167
  0
VERTEX
  8
0
 10
11.1818
 20
4.56619
 30
0.0
 40
0.0104167
 41
0.0104167
  0
VERTEX
  8
0
 10
11.1574
 20
4.57275
 30
0.0
 40
0.0104167
 41
0.0104167
  0
VERTEX
  8
0
 10
11.1309
 20
4.5906
 30
0.0
 40
0.0104167
 41
0.0104167
  0
VERTEX
  8
0
 10
11.1131
 20
4.61714
 30
0.0
 40
0.0104167
 41
0.0104167
  0
VERTEX
  8
0
 10
11.1066
 20
4.64144
 30
0.0
 40
0.0104167
 41
0.0104167
  0
VERTEX
  8
0
 10
11.1066
 20
4.64953
 30
0.0
 40
0.0104167
 41
0.0104167
  0
SEQEND
 8
0
  0
POLYLINE
  8
0
 62
     7
 66
     1
 10
0
 20
0
 30
0.0
 70
     1
 40
0
 41
0
  0
VERTEX
  8
0
 10
10.7763
 20
4.64953
 30
0.0
 40
0
 41
0
  0
VERTEX
  8
0
 10
10.7763
 20
4.65767
 30
0.0
 40
0
 41
0
  0
VERTEX
  8
0
 10
10.7828
 20
4.68197
 30
0.0
 40
0
 41
0
  0
VERTEX
  8
0
 10
10.8007
 20
4.70844
 30
0.0
 40
0
 41
0
  0
VERTEX
  8
0
 10
10.8272
 20
4.72635
 30
0.0
 40
0
 41
0
  0
VERTEX
  8
0
 10
10.8515
 20
4.73286
 30
0.0
 40
0
 41
0
  0
VERTEX
  8
0
 10
10.8597
 20
4.73286
 30
0.0
 40
0
 41
0
  0
VERTEX
  8
0
 10
10.8677
 20
4.73286
 30
0.0
 40
0
 41
0
  0
VERTEX
  8
0
 10
10.8921
 20
4.72635
 30
0.0
 40
0
 41
0
  0
VERTEX
  8
0
 10
10.9186
 20
4.70844
 30
0.0
 40
0
 41
0
  0
VERTEX
  8
0
 10
10.9364
 20
4.68197
 30
0.0
 40
0
 41
0
  0
VERTEX
  8
0
 10
10.943
 20
4.65767
 30
0.0
 40
0
 41
0
  0
VERTEX
  8
0
 10
10.943
 20
4.64953
 30
0.0
 40
0
 41
0
  0
VERTEX
  8
0
 10
10.943
 20
4.64144
 30
0.0
 40
0
 41
0
  0
VERTEX
  8
0
 10
10.9364
 20
4.61714
 30
0.0
 40
0
 41
0
  0
VERTEX
  8
0
 10
10.9186
 20
4.5906
 30
0.0
 40
0
 41
0
  0
VERTEX
  8
0
 10
10.8921
 20
4.57275
 30
0.0
 40
0
 41
0
  0
VERTEX
  8
0
 10
10.8677
 20
4.56619
 30
0.0
 40
0
 41
0
  0
VERTEX
  8
0
 10
10.8597
 20
4.56619
 30
0.0
 40
0
 41
0
  0
VERTEX
  8
0
 10
10.8515
 20
4.56619
 30
0.0
 40
0
 41
0
  0
VERTEX
  8
0
 10
10.8272
 20
4.57275
 30
0.0
 40
0
 41
0
  0
VERTEX
  8
0
 10
10.8007
 20
4.5906
 30
0.0
 40
0
 41
0
  0
VERTEX
  8
0
 10
10.7828
 20
4.61714
 30
0.0
 40
0
 41
0
  0
VERTEX
  8
0
 10
10.7763
 20
4.64144
 30
0.0
 40
0
 41
0
  0
VERTEX
  8
0
 10
10.7763
 20
4.64953
 30
0.0
 40
0
 41
0
  0
SEQEND
 8
0
  0
POLYLINE
  8
0
 62
     0
 66
     1
 10
0
 20
0
 30
0.0
 70
     1
 40
0.75
 41
0.75
  0
VERTEX
  8
0
 10
10.7763
 20
4.64953
 30
0.0
 40
0.0104167
 41
0.0104167
  0
VERTEX
  8
0
 10
10.7763
 20
4.65767
 30
0.0
 40
0.0104167
 41
0.0104167
  0
VERTEX
  8
0
 10
10.7828
 20
4.68197
 30
0.0
 40
0.0104167
 41
0.0104167
  0
VERTEX
  8
0
 10
10.8007
 20
4.70844
 30
0.0
 40
0.0104167
 41
0.0104167
  0
VERTEX
  8
0
 10
10.8272
 20
4.72635
 30
0.0
 40
0.0104167
 41
0.0104167
  0
VERTEX
  8
0
 10
10.8515
 20
4.73286
 30
0.0
 40
0.0104167
 41
0.0104167
  0
VERTEX
  8
0
 10
10.8597
 20
4.73286
 30
0.0
 40
0.0104167
 41
0.0104167
  0
VERTEX
  8
0
 10
10.8677
 20
4.73286
 30
0.0
 40
0.0104167
 41
0.0104167
  0
VERTEX
  8
0
 10
10.8921
 20
4.72635
 30
0.0
 40
0.0104167
 41
0.0104167
  0
VERTEX
  8
0
 10
10.9186
 20
4.70844
 30
0.0
 40
0.0104167
 41
0.0104167
  0
VERTEX
  8
0
 10
10.9364
 20
4.68197
 30
0.0
 40
0.0104167
 41
0.0104167
  0
VERTEX
  8
0
 10
10.943
 20
4.65767
 30
0.0
 40
0.0104167
 41
0.0104167
  0
VERTEX
  8
0
 10
10.943
 20
4.64953
 30
0.0
 40
0.0104167
 41
0.0104167
  0
VERTEX
  8
0
 10
10.943
 20
4.64144
 30
0.0
 40
0.0104167
 41
0.0104167
  0
VERTEX
  8
0
 10
10.9364
 20
4.61714
 30
0.0
 40
0.0104167
 41
0.0104167
  0
VERTEX
  8
0
 10
10.9186
 20
4.5906
 30
0.0
 40
0.0104167
 41
0.0104167
  0
VERTEX
  8
0
 10
10.8921
 20
4.57275
 30
0.0
 40
0.0104167
 41
0.0104167
  0
VERTEX
  8
0
 10
10.8677
 20
4.56619
 30
0.0
 40
0.0104167
 41
0.0104167
  0
VERTEX
  8
0
 10
10.8597
 20
4.56619
 30
0.0
 40
0.0104167
 41
0.0104167
  0
VERTEX
  8
0
 10
10.8515
 20
4.56619
 30
0.0
 40
0.0104167
 41
0.0104167
  0
VERTEX
  8
0
 10
10.8272
 20
4.57275
 30
0.0
 40
0.0104167
 41
0.0104167
  0
VERTEX
  8
0
 10
10.8007
 20
4.5906
 30
0.0
 40
0.0104167
 41
0.0104167
  0
VERTEX
  8
0
 10
10.7828
 20
4.61714
 30
0.0
 40
0.0104167
 41
0.0104167
  0
VERTEX
  8
0
 10
10.7763
 20
4.64144
 30
0.0
 40
0.0104167
 41
0.0104167
  0
VERTEX
  8
0
 10
10.7763
 20
4.64953
 30
0.0
 40
0.0104167
 41
0.0104167
  0
SEQEND
 8
0
  0
POLYLINE
  8
0
 62
     0
 66
     1
 10
0
 20
0
 30
0.0
 70
     1
 40
0
 41
0
  0
VERTEX
  8
0
 10
7.90967
 20
1.10525
 30
0.0
 40
0
 41
0
  0
VERTEX
  8
0
 10
8.08675
 20
1.10525
 30
0.0
 40
0
 41
0
  0
VERTEX
  8
0
 10
8.08675
 20
0.0626628
 30
0.0
 40
0
 41
0
  0
VERTEX
  8
0
 10
7.90967
 20
0.0626628
 30
0.0
 40
0
 41
0
  0
VERTEX
  8
0
 10
7.90967
 20
1.10525
 30
0.0
 40
0
 41
0
  0
SEQEND
 8
0
  0
POLYLINE
  8
0
 62
     0
 66
     1
 10
0
 20
0
 30
0.0
 70
     1
 40
0.15
 41
0.15
  0
VERTEX
  8
0
 10
7.90967
 20
1.10525
 30
0.0
 40
0.00208333
 41
0.00208333
  0
VERTEX
  8
0
 10
8.08675
 20
1.10525
 30
0.0
 40
0.00208333
 41
0.00208333
  0
VERTEX
  8
0
 10
8.08675
 20
0.0626628
 30
0.0
 40
0.00208333
 41
0.00208333
  0
VERTEX
  8
0
 10
7.90967
 20
0.0626628
 30
0.0
 40
0.00208333
 41
0.00208333
  0
VERTEX
  8
0
 10
7.90967
 20
1.10525
 30
0.0
 40
0.00208333
 41
0.00208333
  0
SEQEND
 8
0
  0
ENDSEC
  0
EOF
