  0
SECTION
  2
HEADER
  9
$ACADVER
  1
AC1009
  9
$FILLMODE
 70
 0
  9
$SPLFRAME
 70
 1
  9
$EXTMIN
 10
0
 20
0
 30
0.0
  9
$EXTMAX
 10
41.6667
 20
41.6667
 30
0.0
  0
ENDSEC
  0
SECTION
  2
TABLES
  0
TABLE
  2
LAYER
 70
1
  0
LAYER
  2
0
 70
     0
 62
     7
  6
CONTINUOUS
  0
ENDTAB
  0
ENDSEC
  0
SECTION
  2
ENTITIES
  0
POLYLINE
  8
0
 62
     7
 66
     1
 10
0
 20
0
 30
0.0
 70
     1
 40
0
 41
0
  0
VERTEX
  8
0
 10
6.87354
 20
5.70324
 30
0.0
 40
0
 41
0
  0
VERTEX
  8
0
 10
6.2895
 20
5.70324
 30
0.0
 40
0
 41
0
  0
VERTEX
  8
0
 10
6.2895
 20
5.07314
 30
0.0
 40
0
 41
0
  0
VERTEX
  8
0
 10
4.97575
 20
5.07314
 30
0.0
 40
0
 41
0
  0
VERTEX
  8
0
 10
4.97575
 20
6.40218
 30
0.0
 40
0
 41
0
  0
VERTEX
  8
0
 10
6.87354
 20
6.40218
 30
0.0
 40
0
 41
0
  0
VERTEX
  8
0
 10
6.87354
 20
5.70324
 30
0.0
 40
0
 41
0
  0
SEQEND
 8
0
  0
POLYLINE
  8
0
 62
     7
 66
     1
 10
0
 20
0
 30
0.0
 70
     1
 40
0.15
 41
0.15
  0
VERTEX
  8
0
 10
6.87354
 20
5.70324
 30
0.0
 40
0.00208333
 41
0.00208333
  0
VERTEX
  8
0
 10
6.2895
 20
5.70324
 30
0.0
 40
0.00208333
 41
0.00208333
  0
VERTEX
  8
0
 10
6.2895
 20
5.07314
 30
0.0
 40
0.00208333
 41
0.00208333
  0
VERTEX
  8
0
 10
4.97575
 20
5.07314
 30
0.0
 40
0.00208333
 41
0.00208333
  0
VERTEX
  8
0
 10
4.97575
 20
6.40218
 30
0.0
 40
0.00208333
 41
0.00208333
  0
VERTEX
  8
0
 10
6.87354
 20
6.40218
 30
0.0
 40
0.00208333
 41
0.00208333
  0
VERTEX
  8
0
 10
6.87354
 20
5.70324
 30
0.0
 40
0.00208333
 41
0.00208333
  0
SEQEND
 8
0
  0
TEXT
  8
0
 62
     0
 10
5.41854
 20
5.62472
 30
0.0
 40
0.34375
  1
TK
 50
0
  0
POLYLINE
  8
0
 62
     7
 66
     1
 10
0
 20
0
 30
0.0
 70
     1
 40
0
 41
0
  0
VERTEX
  8
0
 10
4.90696
 20
18.2282
 30
0.0
 40
0
 41
0
  0
VERTEX
  8
0
 10
6.18164
 20
18.2282
 30
0.0
 40
0
 41
0
  0
VERTEX
  8
0
 10
6.18164
 20
17.3124
 30
0.0
 40
0
 41
0
  0
VERTEX
  8
0
 10
4.90696
 20
17.3124
 30
0.0
 40
0
 41
0
  0
VERTEX
  8
0
 10
4.90696
 20
18.2282
 30
0.0
 40
0
 41
0
  0
SEQEND
 8
0
  0
POLYLINE
  8
0
 62
     0
 66
     1
 10
0
 20
0
 30
0.0
 70
     1
 40
0.15
 41
0.15
  0
VERTEX
  8
0
 10
4.90696
 20
18.2282
 30
0.0
 40
0.00208333
 41
0.00208333
  0
VERTEX
  8
0
 10
6.18164
 20
18.2282
 30
0.0
 40
0.00208333
 41
0.00208333
  0
VERTEX
  8
0
 10
6.18164
 20
17.3124
 30
0.0
 40
0.00208333
 41
0.00208333
  0
VERTEX
  8
0
 10
4.90696
 20
17.3124
 30
0.0
 40
0.00208333
 41
0.00208333
  0
VERTEX
  8
0
 10
4.90696
 20
18.2282
 30
0.0
 40
0.00208333
 41
0.00208333
  0
SEQEND
 8
0
  0
TEXT
  8
0
 62
     0
 10
5.36494
 20
17.7703
 30
0.0
 40
0.34375
  1
ULK
 50
0
  0
TEXT
  8
0
 62
     0
 10
6.04254
 20
17.7703
 30
0.0
 40
0.34375
  1
O
 50
0
  0
TEXT
  8
0
 62
     0
 10
6.30486
 20
17.7703
 30
0.0
 40
0.34375
  1
TILA
 50
0
  0
POLYLINE
  8
0
 62
     7
 66
     1
 10
0
 20
0
 30
0.0
 70
     1
 40
0
 41
0
  0
VERTEX
  8
0
 10
6.18468
 20
4.70856
 30
0.0
 40
0
 41
0
  0
VERTEX
  8
0
 10
4.80664
 20
4.70856
 30
0.0
 40
0
 41
0
  0
VERTEX
  8
0
 10
4.80664
 20
2.92165
 30
0.0
 40
0
 41
0
  0
VERTEX
  8
0
 10
3.60607
 20
2.92165
 30
0.0
 40
0
 41
0
  0
VERTEX
  8
0
 10
3.60607
 20
1.75304
 30
0.0
 40
0
 41
0
  0
VERTEX
  8
0
 10
4.80664
 20
1.75304
 30
0.0
 40
0
 41
0
  0
VERTEX
  8
0
 10
4.80664
 20
0.0128038
 30
0.0
 40
0
 41
0
  0
VERTEX
  8
0
 10
6.18468
 20
0.0128038
 30
0.0
 40
0
 41
0
  0
VERTEX
  8
0
 10
6.18468
 20
4.70856
 30
0.0
 40
0
 41
0
  0
SEQEND
 8
0
  0
POLYLINE
  8
0
 62
     0
 66
     1
 10
0
 20
0
 30
0.0
 70
     1
 40
0.15
 41
0.15
  0
VERTEX
  8
0
 10
6.18468
 20
4.70856
 30
0.0
 40
0.00208333
 41
0.00208333
  0
VERTEX
  8
0
 10
4.80664
 20
4.70856
 30
0.0
 40
0.00208333
 41
0.00208333
  0
VERTEX
  8
0
 10
4.80664
 20
2.92165
 30
0.0
 40
0.00208333
 41
0.00208333
  0
VERTEX
  8
0
 10
3.60607
 20
2.92165
 30
0.0
 40
0.00208333
 41
0.00208333
  0
VERTEX
  8
0
 10
3.60607
 20
1.75304
 30
0.0
 40
0.00208333
 41
0.00208333
  0
VERTEX
  8
0
 10
4.80664
 20
1.75304
 30
0.0
 40
0.00208333
 41
0.00208333
  0
VERTEX
  8
0
 10
4.80664
 20
0.0128038
 30
0.0
 40
0.00208333
 41
0.00208333
  0
VERTEX
  8
0
 10
6.18468
 20
0.0128038
 30
0.0
 40
0.00208333
 41
0.00208333
  0
VERTEX
  8
0
 10
6.18468
 20
4.70856
 30
0.0
 40
0.00208333
 41
0.00208333
  0
SEQEND
 8
0
  0
TEXT
  8
0
 62
     0
 10
5.37388
 20
2.33636
 30
0.0
 40
0.34375
  1
ULK
 50
0
  0
TEXT
  8
0
 62
     0
 10
6.05147
 20
2.33636
 30
0.0
 40
0.34375
  1
O
 50
0
  0
TEXT
  8
0
 62
     0
 10
6.31379
 20
2.33636
 30
0.0
 40
0.34375
  1
TILA
 50
0
  0
POLYLINE
  8
0
 62
     7
 66
     1
 10
0
 20
0
 30
0.0
 70
     1
 40
0
 41
0
  0
VERTEX
  8
0
 10
8.34022
 20
9.8725
 30
0.0
 40
0
 41
0
  0
VERTEX
  8
0
 10
10.0215
 20
9.8725
 30
0.0
 40
0
 41
0
  0
VERTEX
  8
0
 10
10.0215
 20
8.89979
 30
0.0
 40
0
 41
0
  0
VERTEX
  8
0
 10
8.34022
 20
8.89979
 30
0.0
 40
0
 41
0
  0
VERTEX
  8
0
 10
8.34022
 20
9.8725
 30
0.0
 40
0
 41
0
  0
SEQEND
 8
0
  0
POLYLINE
  8
0
 62
     7
 66
     1
 10
0
 20
0
 30
0.0
 70
     1
 40
0.15
 41
0.15
  0
VERTEX
  8
0
 10
8.34022
 20
9.8725
 30
0.0
 40
0.00208333
 41
0.00208333
  0
VERTEX
  8
0
 10
10.0215
 20
9.8725
 30
0.0
 40
0.00208333
 41
0.00208333
  0
VERTEX
  8
0
 10
10.0215
 20
8.89979
 30
0.0
 40
0.00208333
 41
0.00208333
  0
VERTEX
  8
0
 10
8.34022
 20
8.89979
 30
0.0
 40
0.00208333
 41
0.00208333
  0
VERTEX
  8
0
 10
8.34022
 20
9.8725
 30
0.0
 40
0.00208333
 41
0.00208333
  0
SEQEND
 8
0
  0
TEXT
  8
0
 62
     0
 10
8.54207
 20
9.04476
 30
0.0
 40
0.34375
  1
VH
 50
0
  0
POLYLINE
  8
0
 62
     7
 66
     1
 10
0
 20
0
 30
0.0
 70
     1
 40
0
 41
0
  0
VERTEX
  8
0
 10
3.86019
 20
10.8431
 30
0.0
 40
0
 41
0
  0
VERTEX
  8
0
 10
4.86117
 20
10.8431
 30
0.0
 40
0
 41
0
  0
VERTEX
  8
0
 10
4.86117
 20
8.89979
 30
0.0
 40
0
 41
0
  0
VERTEX
  8
0
 10
3.86019
 20
8.89979
 30
0.0
 40
0
 41
0
  0
VERTEX
  8
0
 10
3.86019
 20
10.8431
 30
0.0
 40
0
 41
0
  0
SEQEND
 8
0
  0
POLYLINE
  8
0
 62
     7
 66
     1
 10
0
 20
0
 30
0.0
 70
     1
 40
0.15
 41
0.15
  0
VERTEX
  8
0
 10
3.86019
 20
10.8431
 30
0.0
 40
0.00208333
 41
0.00208333
  0
VERTEX
  8
0
 10
4.86117
 20
10.8431
 30
0.0
 40
0.00208333
 41
0.00208333
  0
VERTEX
  8
0
 10
4.86117
 20
8.89979
 30
0.0
 40
0.00208333
 41
0.00208333
  0
VERTEX
  8
0
 10
3.86019
 20
8.89979
 30
0.0
 40
0.00208333
 41
0.00208333
  0
VERTEX
  8
0
 10
3.86019
 20
10.8431
 30
0.0
 40
0.00208333
 41
0.00208333
  0
SEQEND
 8
0
  0
TEXT
  8
0
 62
     0
 10
4.03349
 20
9.87331
 30
0.0
 40
0.34375
  1
WC
 50
0
  0
POLYLINE
  8
0
 62
     7
 66
     1
 10
0
 20
0
 30
0.0
 70
     1
 40
0
 41
0
  0
VERTEX
  8
0
 10
2.21457
 20
10.8431
 30
0.0
 40
0
 41
0
  0
VERTEX
  8
0
 10
3.74561
 20
10.8431
 30
0.0
 40
0
 41
0
  0
VERTEX
  8
0
 10
3.74561
 20
8.89979
 30
0.0
 40
0
 41
0
  0
VERTEX
  8
0
 10
2.21457
 20
8.89979
 30
0.0
 40
0
 41
0
  0
VERTEX
  8
0
 10
2.21457
 20
10.8431
 30
0.0
 40
0
 41
0
  0
SEQEND
 8
0
  0
POLYLINE
  8
0
 62
     7
 66
     1
 10
0
 20
0
 30
0.0
 70
     1
 40
0.15
 41
0.15
  0
VERTEX
  8
0
 10
2.21457
 20
10.8431
 30
0.0
 40
0.00208333
 41
0.00208333
  0
VERTEX
  8
0
 10
3.74561
 20
10.8431
 30
0.0
 40
0.00208333
 41
0.00208333
  0
VERTEX
  8
0
 10
3.74561
 20
8.89979
 30
0.0
 40
0.00208333
 41
0.00208333
  0
VERTEX
  8
0
 10
2.21457
 20
8.89979
 30
0.0
 40
0.00208333
 41
0.00208333
  0
VERTEX
  8
0
 10
2.21457
 20
10.8431
 30
0.0
 40
0.00208333
 41
0.00208333
  0
SEQEND
 8
0
  0
TEXT
  8
0
 62
     0
 10
2.99429
 20
9.39492
 30
0.0
 40
0.34375
  1
VH
 50
0
  0
POLYLINE
  8
0
 62
     7
 66
     1
 10
0
 20
0
 30
0.0
 70
     1
 40
0
 41
0
  0
VERTEX
  8
0
 10
8.34022
 20
12.0217
 30
0.0
 40
0
 41
0
  0
VERTEX
  8
0
 10
10.0215
 20
12.0217
 30
0.0
 40
0
 41
0
  0
VERTEX
  8
0
 10
10.0215
 20
9.98708
 30
0.0
 40
0
 41
0
  0
VERTEX
  8
0
 10
8.34022
 20
9.98708
 30
0.0
 40
0
 41
0
  0
VERTEX
  8
0
 10
8.34022
 20
12.0217
 30
0.0
 40
0
 41
0
  0
SEQEND
 8
0
  0
POLYLINE
  8
0
 62
     7
 66
     1
 10
0
 20
0
 30
0.0
 70
     1
 40
0.15
 41
0.15
  0
VERTEX
  8
0
 10
8.34022
 20
12.0217
 30
0.0
 40
0.00208333
 41
0.00208333
  0
VERTEX
  8
0
 10
10.0215
 20
12.0217
 30
0.0
 40
0.00208333
 41
0.00208333
  0
VERTEX
  8
0
 10
10.0215
 20
9.98708
 30
0.0
 40
0.00208333
 41
0.00208333
  0
VERTEX
  8
0
 10
8.34022
 20
9.98708
 30
0.0
 40
0.00208333
 41
0.00208333
  0
VERTEX
  8
0
 10
8.34022
 20
12.0217
 30
0.0
 40
0.00208333
 41
0.00208333
  0
SEQEND
 8
0
  0
TEXT
  8
0
 62
     0
 10
9.18085
 20
11.1811
 30
0.0
 40
0.34375
  1
UNDEFINED
 50
0
  0
POLYLINE
  8
0
 62
     7
 66
     1
 10
0
 20
0
 30
0.0
 70
     1
 40
0
 41
0
  0
VERTEX
  8
0
 10
6.43229
 20
12.0217
 30
0.0
 40
0
 41
0
  0
VERTEX
  8
0
 10
8.22564
 20
12.0217
 30
0.0
 40
0
 41
0
  0
VERTEX
  8
0
 10
8.22564
 20
8.89979
 30
0.0
 40
0
 41
0
  0
VERTEX
  8
0
 10
6.43229
 20
8.89979
 30
0.0
 40
0
 41
0
  0
VERTEX
  8
0
 10
6.43229
 20
12.0217
 30
0.0
 40
0
 41
0
  0
SEQEND
 8
0
  0
POLYLINE
  8
0
 62
     7
 66
     1
 10
0
 20
0
 30
0.0
 70
     1
 40
0.15
 41
0.15
  0
VERTEX
  8
0
 10
6.43229
 20
12.0217
 30
0.0
 40
0.00208333
 41
0.00208333
  0
VERTEX
  8
0
 10
8.22564
 20
12.0217
 30
0.0
 40
0.00208333
 41
0.00208333
  0
VERTEX
  8
0
 10
8.22564
 20
8.89979
 30
0.0
 40
0.00208333
 41
0.00208333
  0
VERTEX
  8
0
 10
6.43229
 20
8.89979
 30
0.0
 40
0.00208333
 41
0.00208333
  0
VERTEX
  8
0
 10
6.43229
 20
12.0217
 30
0.0
 40
0.00208333
 41
0.00208333
  0
SEQEND
 8
0
  0
TEXT
  8
0
 62
     0
 10
6.8169
 20
10.485
 30
0.0
 40
0.34375
  1
PH
 50
0
  0
POLYLINE
  8
0
 62
     7
 66
     1
 10
0
 20
0
 30
0.0
 70
     1
 40
0
 41
0
  0
VERTEX
  8
0
 10
2.16471
 20
4.84397
 30
0.0
 40
0
 41
0
  0
VERTEX
  8
0
 10
3.44982
 20
4.84397
 30
0.0
 40
0
 41
0
  0
VERTEX
  8
0
 10
3.44982
 20
1.02062
 30
0.0
 40
0
 41
0
  0
VERTEX
  8
0
 10
2.16471
 20
1.02062
 30
0.0
 40
0
 41
0
  0
VERTEX
  8
0
 10
2.16471
 20
4.84397
 30
0.0
 40
0
 41
0
  0
SEQEND
 8
0
  0
POLYLINE
  8
0
 62
     7
 66
     1
 10
0
 20
0
 30
0.0
 70
     1
 40
0.15
 41
0.15
  0
VERTEX
  8
0
 10
2.16471
 20
4.84397
 30
0.0
 40
0.00208333
 41
0.00208333
  0
VERTEX
  8
0
 10
3.44982
 20
4.84397
 30
0.0
 40
0.00208333
 41
0.00208333
  0
VERTEX
  8
0
 10
3.44982
 20
1.02062
 30
0.0
 40
0.00208333
 41
0.00208333
  0
VERTEX
  8
0
 10
2.16471
 20
1.02062
 30
0.0
 40
0.00208333
 41
0.00208333
  0
VERTEX
  8
0
 10
2.16471
 20
4.84397
 30
0.0
 40
0.00208333
 41
0.00208333
  0
SEQEND
 8
0
  0
TEXT
  8
0
 62
     0
 10
2.44831
 20
2.91732
 30
0.0
 40
0.34375
  1
V
 50
0
  0
TEXT
  8
0
 62
     0
 10
2.67331
 20
2.91732
 30
0.0
 40
0.34375
  1
AR
 50
0
  0
POLYLINE
  8
0
 62
     7
 66
     1
 10
0
 20
0
 30
0.0
 70
     1
 40
0
 41
0
  0
VERTEX
  8
0
 10
2.21457
 20
8.78521
 30
0.0
 40
0
 41
0
  0
VERTEX
  8
0
 10
4.86117
 20
8.78521
 30
0.0
 40
0
 41
0
  0
VERTEX
  8
0
 10
4.86117
 20
5.07314
 30
0.0
 40
0
 41
0
  0
VERTEX
  8
0
 10
2.21457
 20
5.07314
 30
0.0
 40
0
 41
0
  0
VERTEX
  8
0
 10
2.21457
 20
8.78521
 30
0.0
 40
0
 41
0
  0
SEQEND
 8
0
  0
POLYLINE
  8
0
 62
     7
 66
     1
 10
0
 20
0
 30
0.0
 70
     1
 40
0.15
 41
0.15
  0
VERTEX
  8
0
 10
2.21457
 20
8.78521
 30
0.0
 40
0.00208333
 41
0.00208333
  0
VERTEX
  8
0
 10
4.86117
 20
8.78521
 30
0.0
 40
0.00208333
 41
0.00208333
  0
VERTEX
  8
0
 10
4.86117
 20
5.07314
 30
0.0
 40
0.00208333
 41
0.00208333
  0
VERTEX
  8
0
 10
2.21457
 20
5.07314
 30
0.0
 40
0.00208333
 41
0.00208333
  0
VERTEX
  8
0
 10
2.21457
 20
8.78521
 30
0.0
 40
0.00208333
 41
0.00208333
  0
SEQEND
 8
0
  0
TEXT
  8
0
 62
     0
 10
3.23914
 20
6.83607
 30
0.0
 40
0.34375
  1
MH
 50
0
  0
POLYLINE
  8
0
 62
     7
 66
     1
 10
0
 20
0
 30
0.0
 70
     1
 40
0
 41
0
  0
VERTEX
  8
0
 10
10.0215
 20
5.07314
 30
0.0
 40
0
 41
0
  0
VERTEX
  8
0
 10
6.40929
 20
5.07314
 30
0.0
 40
0
 41
0
  0
VERTEX
  8
0
 10
6.40929
 20
5.7021
 30
0.0
 40
0
 41
0
  0
VERTEX
  8
0
 10
6.29471
 20
5.7021
 30
0.0
 40
0
 41
0
  0
VERTEX
  8
0
 10
6.29471
 20
5.07314
 30
0.0
 40
0
 41
0
  0
VERTEX
  8
0
 10
4.97575
 20
5.07314
 30
0.0
 40
0
 41
0
  0
VERTEX
  8
0
 10
4.97575
 20
6.40218
 30
0.0
 40
0
 41
0
  0
VERTEX
  8
0
 10
6.88249
 20
6.40218
 30
0.0
 40
0
 41
0
  0
VERTEX
  8
0
 10
6.88249
 20
8.78521
 30
0.0
 40
0
 41
0
  0
VERTEX
  8
0
 10
10.0215
 20
8.78521
 30
0.0
 40
0
 41
0
  0
VERTEX
  8
0
 10
10.0215
 20
5.07314
 30
0.0
 40
0
 41
0
  0
SEQEND
 8
0
  0
POLYLINE
  8
0
 62
     7
 66
     1
 10
0
 20
0
 30
0.0
 70
     1
 40
0.15
 41
0.15
  0
VERTEX
  8
0
 10
10.0215
 20
5.07314
 30
0.0
 40
0.00208333
 41
0.00208333
  0
VERTEX
  8
0
 10
6.40929
 20
5.07314
 30
0.0
 40
0.00208333
 41
0.00208333
  0
VERTEX
  8
0
 10
6.40929
 20
5.7021
 30
0.0
 40
0.00208333
 41
0.00208333
  0
VERTEX
  8
0
 10
6.29471
 20
5.7021
 30
0.0
 40
0.00208333
 41
0.00208333
  0
VERTEX
  8
0
 10
6.29471
 20
5.07314
 30
0.0
 40
0.00208333
 41
0.00208333
  0
VERTEX
  8
0
 10
4.97575
 20
5.07314
 30
0.0
 40
0.00208333
 41
0.00208333
  0
VERTEX
  8
0
 10
4.97575
 20
6.40218
 30
0.0
 40
0.00208333
 41
0.00208333
  0
VERTEX
  8
0
 10
6.88249
 20
6.40218
 30
0.0
 40
0.00208333
 41
0.00208333
  0
VERTEX
  8
0
 10
6.88249
 20
8.78521
 30
0.0
 40
0.00208333
 41
0.00208333
  0
VERTEX
  8
0
 10
10.0215
 20
8.78521
 30
0.0
 40
0.00208333
 41
0.00208333
  0
VERTEX
  8
0
 10
10.0215
 20
5.07314
 30
0.0
 40
0.00208333
 41
0.00208333
  0
SEQEND
 8
0
  0
TEXT
  8
0
 62
     0
 10
8.30632
 20
6.91072
 30
0.0
 40
0.34375
  1
MH
 50
0
  0
POLYLINE
  8
0
 62
     7
 66
     1
 10
0
 20
0
 30
0.0
 70
     1
 40
0
 41
0
  0
VERTEX
  8
0
 10
4.97575
 20
11.5894
 30
0.0
 40
0
 41
0
  0
VERTEX
  8
0
 10
4.86117
 20
11.5894
 30
0.0
 40
0
 41
0
  0
VERTEX
  8
0
 10
4.86117
 20
10.9577
 30
0.0
 40
0
 41
0
  0
VERTEX
  8
0
 10
2.21457
 20
10.9577
 30
0.0
 40
0
 41
0
  0
VERTEX
  8
0
 10
2.21457
 20
14.2232
 30
0.0
 40
0
 41
0
  0
VERTEX
  8
0
 10
4.97575
 20
14.2232
 30
0.0
 40
0
 41
0
  0
VERTEX
  8
0
 10
4.97575
 20
11.5894
 30
0.0
 40
0
 41
0
  0
SEQEND
 8
0
  0
POLYLINE
  8
0
 62
     7
 66
     1
 10
0
 20
0
 30
0.0
 70
     1
 40
0.15
 41
0.15
  0
VERTEX
  8
0
 10
4.97575
 20
11.5894
 30
0.0
 40
0.00208333
 41
0.00208333
  0
VERTEX
  8
0
 10
4.86117
 20
11.5894
 30
0.0
 40
0.00208333
 41
0.00208333
  0
VERTEX
  8
0
 10
4.86117
 20
10.9577
 30
0.0
 40
0.00208333
 41
0.00208333
  0
VERTEX
  8
0
 10
2.21457
 20
10.9577
 30
0.0
 40
0.00208333
 41
0.00208333
  0
VERTEX
  8
0
 10
2.21457
 20
14.2232
 30
0.0
 40
0.00208333
 41
0.00208333
  0
VERTEX
  8
0
 10
4.97575
 20
14.2232
 30
0.0
 40
0.00208333
 41
0.00208333
  0
VERTEX
  8
0
 10
4.97575
 20
11.5894
 30
0.0
 40
0.00208333
 41
0.00208333
  0
SEQEND
 8
0
  0
TEXT
  8
0
 62
     0
 10
3.55675
 20
12.5532
 30
0.0
 40
0.34375
  1
K
 50
0
  0
POLYLINE
  8
0
 62
     7
 66
     1
 10
0
 20
0
 30
0.0
 70
     1
 40
0
 41
0
  0
VERTEX
  8
0
 10
2.21457
 20
16.9582
 30
0.0
 40
0
 41
0
  0
VERTEX
  8
0
 10
4.97575
 20
16.9582
 30
0.0
 40
0
 41
0
  0
VERTEX
  8
0
 10
4.97575
 20
14.2232
 30
0.0
 40
0
 41
0
  0
VERTEX
  8
0
 10
2.21457
 20
14.2232
 30
0.0
 40
0
 41
0
  0
VERTEX
  8
0
 10
2.21457
 20
16.9582
 30
0.0
 40
0
 41
0
  0
SEQEND
 8
0
  0
POLYLINE
  8
0
 62
     7
 66
     1
 10
0
 20
0
 30
0.0
 70
     1
 40
0.15
 41
0.15
  0
VERTEX
  8
0
 10
2.21457
 20
16.9582
 30
0.0
 40
0.00208333
 41
0.00208333
  0
VERTEX
  8
0
 10
4.97575
 20
16.9582
 30
0.0
 40
0.00208333
 41
0.00208333
  0
VERTEX
  8
0
 10
4.97575
 20
14.2232
 30
0.0
 40
0.00208333
 41
0.00208333
  0
VERTEX
  8
0
 10
2.21457
 20
14.2232
 30
0.0
 40
0.00208333
 41
0.00208333
  0
VERTEX
  8
0
 10
2.21457
 20
16.9582
 30
0.0
 40
0.00208333
 41
0.00208333
  0
SEQEND
 8
0
  0
TEXT
  8
0
 62
     0
 10
3.06446
 20
15.4886
 30
0.0
 40
0.34375
  1
RUOK
 50
0
  0
POLYLINE
  8
0
 62
     7
 66
     1
 10
0
 20
0
 30
0.0
 70
     1
 40
0
 41
0
  0
VERTEX
  8
0
 10
6.31771
 20
8.78521
 30
0.0
 40
0
 41
0
  0
VERTEX
  8
0
 10
6.7679
 20
8.78521
 30
0.0
 40
0
 41
0
  0
VERTEX
  8
0
 10
6.7679
 20
6.51676
 30
0.0
 40
0
 41
0
  0
VERTEX
  8
0
 10
4.97575
 20
6.51676
 30
0.0
 40
0
 41
0
  0
VERTEX
  8
0
 10
4.97575
 20
12.1363
 30
0.0
 40
0
 41
0
  0
VERTEX
  8
0
 10
6.31771
 20
12.1363
 30
0.0
 40
0
 41
0
  0
VERTEX
  8
0
 10
6.31771
 20
8.78521
 30
0.0
 40
0
 41
0
  0
SEQEND
 8
0
  0
POLYLINE
  8
0
 62
     7
 66
     1
 10
0
 20
0
 30
0.0
 70
     1
 40
0.15
 41
0.15
  0
VERTEX
  8
0
 10
6.31771
 20
8.78521
 30
0.0
 40
0.00208333
 41
0.00208333
  0
VERTEX
  8
0
 10
6.7679
 20
8.78521
 30
0.0
 40
0.00208333
 41
0.00208333
  0
VERTEX
  8
0
 10
6.7679
 20
6.51676
 30
0.0
 40
0.00208333
 41
0.00208333
  0
VERTEX
  8
0
 10
4.97575
 20
6.51676
 30
0.0
 40
0.00208333
 41
0.00208333
  0
VERTEX
  8
0
 10
4.97575
 20
12.1363
 30
0.0
 40
0.00208333
 41
0.00208333
  0
VERTEX
  8
0
 10
6.31771
 20
12.1363
 30
0.0
 40
0.00208333
 41
0.00208333
  0
VERTEX
  8
0
 10
6.31771
 20
8.78521
 30
0.0
 40
0.00208333
 41
0.00208333
  0
SEQEND
 8
0
  0
TEXT
  8
0
 62
     0
 10
5.54464
 20
8.19642
 30
0.0
 40
0.34375
  1
ET
 50
0
  0
POLYLINE
  8
0
 62
     7
 66
     1
 10
0
 20
0
 30
0.0
 70
     1
 40
0
 41
0
  0
VERTEX
  8
0
 10
4.97575
 20
16.9582
 30
0.0
 40
0
 41
0
  0
VERTEX
  8
0
 10
10.0215
 20
16.9582
 30
0.0
 40
0
 41
0
  0
VERTEX
  8
0
 10
10.0215
 20
12.1363
 30
0.0
 40
0
 41
0
  0
VERTEX
  8
0
 10
4.97575
 20
12.1363
 30
0.0
 40
0
 41
0
  0
VERTEX
  8
0
 10
4.97575
 20
16.9582
 30
0.0
 40
0
 41
0
  0
SEQEND
 8
0
  0
POLYLINE
  8
0
 62
     7
 66
     1
 10
0
 20
0
 30
0.0
 70
     1
 40
0.15
 41
0.15
  0
VERTEX
  8
0
 10
4.97575
 20
16.9582
 30
0.0
 40
0.00208333
 41
0.00208333
  0
VERTEX
  8
0
 10
10.0215
 20
16.9582
 30
0.0
 40
0.00208333
 41
0.00208333
  0
VERTEX
  8
0
 10
10.0215
 20
12.1363
 30
0.0
 40
0.00208333
 41
0.00208333
  0
VERTEX
  8
0
 10
4.97575
 20
12.1363
 30
0.0
 40
0.00208333
 41
0.00208333
  0
VERTEX
  8
0
 10
4.97575
 20
16.9582
 30
0.0
 40
0.00208333
 41
0.00208333
  0
SEQEND
 8
0
  0
TEXT
  8
0
 62
     0
 10
7.28907
 20
14.6169
 30
0.0
 40
0.34375
  1
OH
 50
0
  0
POLYLINE
  8
0
 62
     0
 66
     1
 10
0
 20
0
 30
0.0
 70
     1
 40
0
 41
0
  0
VERTEX
  8
0
 10
2.21457
 20
16.9582
 30
0.0
 40
0
 41
0
  0
VERTEX
  8
0
 10
10.0215
 20
16.9582
 30
0.0
 40
0
 41
0
  0
VERTEX
  8
0
 10
10.3132
 20
17.3124
 30
0.0
 40
0
 41
0
  0
VERTEX
  8
0
 10
1.96457
 20
17.3124
 30
0.0
 40
0
 41
0
  0
VERTEX
  8
0
 10
2.21457
 20
16.9582
 30
0.0
 40
0
 41
0
  0
SEQEND
 8
0
  0
POLYLINE
  8
0
 62
     0
 66
     1
 10
0
 20
0
 30
0.0
 70
     1
 40
0.15
 41
0.15
  0
VERTEX
  8
0
 10
2.21457
 20
16.9582
 30
0.0
 40
0.00208333
 41
0.00208333
  0
VERTEX
  8
0
 10
10.0215
 20
16.9582
 30
0.0
 40
0.00208333
 41
0.00208333
  0
VERTEX
  8
0
 10
10.3132
 20
17.3124
 30
0.0
 40
0.00208333
 41
0.00208333
  0
VERTEX
  8
0
 10
1.96457
 20
17.3124
 30
0.0
 40
0.00208333
 41
0.00208333
  0
VERTEX
  8
0
 10
2.21457
 20
16.9582
 30
0.0
 40
0.00208333
 41
0.00208333
  0
SEQEND
 8
0
  0
POLYLINE
  8
0
 62
     7
 66
     1
 10
0
 20
0
 30
0.0
 70
     1
 40
0
 41
0
  0
VERTEX
  8
0
 10
5.0925
 20
17.3124
 30
0.0
 40
0
 41
0
  0
VERTEX
  8
0
 10
5.98699
 20
17.3124
 30
0.0
 40
0
 41
0
  0
VERTEX
  8
0
 10
5.98699
 20
16.9582
 30
0.0
 40
0
 41
0
  0
VERTEX
  8
0
 10
5.0925
 20
16.9582
 30
0.0
 40
0
 41
0
  0
VERTEX
  8
0
 10
5.0925
 20
17.3124
 30
0.0
 40
0
 41
0
  0
SEQEND
 8
0
  0
POLYLINE
  8
0
 62
     0
 66
     1
 10
0
 20
0
 30
0.0
 70
     1
 40
0.75
 41
0.75
  0
VERTEX
  8
0
 10
5.0925
 20
17.3124
 30
0.0
 40
0.0104167
 41
0.0104167
  0
VERTEX
  8
0
 10
5.98699
 20
17.3124
 30
0.0
 40
0.0104167
 41
0.0104167
  0
VERTEX
  8
0
 10
5.98699
 20
16.9582
 30
0.0
 40
0.0104167
 41
0.0104167
  0
VERTEX
  8
0
 10
5.0925
 20
16.9582
 30
0.0
 40
0.0104167
 41
0.0104167
  0
VERTEX
  8
0
 10
5.0925
 20
17.3124
 30
0.0
 40
0.0104167
 41
0.0104167
  0
SEQEND
 8
0
  0
POLYLINE
  8
0
 62
     7
 66
     1
 10
0
 20
0
 30
0.0
 70
     1
 40
0
 41
0
  0
VERTEX
  8
0
 10
5.0925
 20
17.3124
 30
0.0
 40
0
 41
0
  0
VERTEX
  8
0
 10
5.98699
 20
17.3124
 30
0.0
 40
0
 41
0
  0
VERTEX
  8
0
 10
5.98699
 20
16.9582
 30
0.0
 40
0
 41
0
  0
VERTEX
  8
0
 10
5.0925
 20
16.9582
 30
0.0
 40
0
 41
0
  0
VERTEX
  8
0
 10
5.0925
 20
17.3124
 30
0.0
 40
0
 41
0
  0
SEQEND
 8
0
  0
POLYLINE
  8
0
 62
     0
 66
     1
 10
0
 20
0
 30
0.0
 70
     1
 40
0.75
 41
0.75
  0
VERTEX
  8
0
 10
5.0925
 20
17.3124
 30
0.0
 40
0.0104167
 41
0.0104167
  0
VERTEX
  8
0
 10
5.98699
 20
17.3124
 30
0.0
 40
0.0104167
 41
0.0104167
  0
VERTEX
  8
0
 10
5.98699
 20
16.9582
 30
0.0
 40
0.0104167
 41
0.0104167
  0
VERTEX
  8
0
 10
5.0925
 20
16.9582
 30
0.0
 40
0.0104167
 41
0.0104167
  0
VERTEX
  8
0
 10
5.0925
 20
17.3124
 30
0.0
 40
0.0104167
 41
0.0104167
  0
SEQEND
 8
0
  0
POLYLINE
  8
0
 62
     0
 66
     1
 10
0
 20
0
 30
0.0
 70
     1
 40
0.75
 41
0.75
  0
VERTEX
  8
0
 10
5.98699
 20
16.9582
 30
0.0
 40
0.0104167
 41
0.0104167
  0
VERTEX
  8
0
 10
5.98699
 20
16.9058
 30
0.0
 40
0.0104167
 41
0.0104167
  0
VERTEX
  8
0
 10
5.97299
 20
16.7486
 30
0.0
 40
0.0104167
 41
0.0104167
  0
VERTEX
  8
0
 10
5.93104
 20
16.5669
 30
0.0
 40
0.0104167
 41
0.0104167
  0
VERTEX
  8
0
 10
5.86117
 20
16.4132
 30
0.0
 40
0.0104167
 41
0.0104167
  0
VERTEX
  8
0
 10
5.76335
 20
16.2874
 30
0.0
 40
0.0104167
 41
0.0104167
  0
VERTEX
  8
0
 10
5.63753
 20
16.1896
 30
0.0
 40
0.0104167
 41
0.0104167
  0
VERTEX
  8
0
 10
5.48378
 20
16.1197
 30
0.0
 40
0.0104167
 41
0.0104167
  0
VERTEX
  8
0
 10
5.30214
 20
16.0778
 30
0.0
 40
0.0104167
 41
0.0104167
  0
VERTEX
  8
0
 10
5.14492
 20
16.0637
 30
0.0
 40
0.0104167
 41
0.0104167
  0
VERTEX
  8
0
 10
5.0925
 20
16.0637
 30
0.0
 40
0.0104167
 41
0.0104167
  0
VERTEX
  8
0
 10
5.0925
 20
16.9582
 30
0.0
 40
0.0104167
 41
0.0104167
  0
VERTEX
  8
0
 10
5.98699
 20
16.9582
 30
0.0
 40
0.0104167
 41
0.0104167
  0
SEQEND
 8
0
  0
POLYLINE
  8
0
 62
     0
 66
     1
 10
0
 20
0
 30
0.0
 70
     1
 40
0.75
 41
0.75
  0
VERTEX
  8
0
 10
5.98699
 20
17.3124
 30
0.0
 40
0.0104167
 41
0.0104167
  0
VERTEX
  8
0
 10
5.98699
 20
17.3649
 30
0.0
 40
0.0104167
 41
0.0104167
  0
VERTEX
  8
0
 10
5.97299
 20
17.5221
 30
0.0
 40
0.0104167
 41
0.0104167
  0
VERTEX
  8
0
 10
5.93104
 20
17.7038
 30
0.0
 40
0.0104167
 41
0.0104167
  0
VERTEX
  8
0
 10
5.86117
 20
17.8575
 30
0.0
 40
0.0104167
 41
0.0104167
  0
VERTEX
  8
0
 10
5.76335
 20
17.9833
 30
0.0
 40
0.0104167
 41
0.0104167
  0
VERTEX
  8
0
 10
5.63753
 20
18.0811
 30
0.0
 40
0.0104167
 41
0.0104167
  0
VERTEX
  8
0
 10
5.48378
 20
18.151
 30
0.0
 40
0.0104167
 41
0.0104167
  0
VERTEX
  8
0
 10
5.30214
 20
18.1929
 30
0.0
 40
0.0104167
 41
0.0104167
  0
VERTEX
  8
0
 10
5.14492
 20
18.2068
 30
0.0
 40
0.0104167
 41
0.0104167
  0
VERTEX
  8
0
 10
5.0925
 20
18.2068
 30
0.0
 40
0.0104167
 41
0.0104167
  0
VERTEX
  8
0
 10
5.0925
 20
17.3124
 30
0.0
 40
0.0104167
 41
0.0104167
  0
VERTEX
  8
0
 10
5.98699
 20
17.3124
 30
0.0
 40
0.0104167
 41
0.0104167
  0
SEQEND
 8
0
  0
POLYLINE
  8
0
 62
     7
 66
     1
 10
0
 20
0
 30
0.0
 70
     1
 40
0
 41
0
  0
VERTEX
  8
0
 10
2.9579
 20
17.3124
 30
0.0
 40
0
 41
0
  0
VERTEX
  8
0
 10
5.04167
 20
17.3124
 30
0.0
 40
0
 41
0
  0
VERTEX
  8
0
 10
5.04167
 20
16.9582
 30
0.0
 40
0
 41
0
  0
VERTEX
  8
0
 10
2.9579
 20
16.9582
 30
0.0
 40
0
 41
0
  0
VERTEX
  8
0
 10
2.9579
 20
17.3124
 30
0.0
 40
0
 41
0
  0
SEQEND
 8
0
  0
POLYLINE
  8
0
 62
     0
 66
     1
 10
0
 20
0
 30
0.0
 70
     1
 40
0.75
 41
0.75
  0
VERTEX
  8
0
 10
2.9579
 20
17.3124
 30
0.0
 40
0.0104167
 41
0.0104167
  0
VERTEX
  8
0
 10
5.04167
 20
17.3124
 30
0.0
 40
0.0104167
 41
0.0104167
  0
VERTEX
  8
0
 10
5.04167
 20
16.9582
 30
0.0
 40
0.0104167
 41
0.0104167
  0
VERTEX
  8
0
 10
2.9579
 20
16.9582
 30
0.0
 40
0.0104167
 41
0.0104167
  0
VERTEX
  8
0
 10
2.9579
 20
17.3124
 30
0.0
 40
0.0104167
 41
0.0104167
  0
SEQEND
 8
0
  0
POLYLINE
  8
0
 62
     7
 66
     1
 10
0
 20
0
 30
0.0
 70
     1
 40
0
 41
0
  0
VERTEX
  8
0
 10
2.9579
 20
17.3124
 30
0.0
 40
0
 41
0
  0
VERTEX
  8
0
 10
5.04167
 20
17.3124
 30
0.0
 40
0
 41
0
  0
VERTEX
  8
0
 10
5.04167
 20
16.9582
 30
0.0
 40
0
 41
0
  0
VERTEX
  8
0
 10
2.9579
 20
16.9582
 30
0.0
 40
0
 41
0
  0
VERTEX
  8
0
 10
2.9579
 20
17.3124
 30
0.0
 40
0
 41
0
  0
SEQEND
 8
0
  0
POLYLINE
  8
0
 62
     0
 66
     1
 10
0
 20
0
 30
0.0
 70
     1
 40
0.75
 41
0.75
  0
VERTEX
  8
0
 10
2.9579
 20
17.3124
 30
0.0
 40
0.0104167
 41
0.0104167
  0
VERTEX
  8
0
 10
5.04167
 20
17.3124
 30
0.0
 40
0.0104167
 41
0.0104167
  0
VERTEX
  8
0
 10
5.04167
 20
16.9582
 30
0.0
 40
0.0104167
 41
0.0104167
  0
VERTEX
  8
0
 10
2.9579
 20
16.9582
 30
0.0
 40
0.0104167
 41
0.0104167
  0
VERTEX
  8
0
 10
2.9579
 20
17.3124
 30
0.0
 40
0.0104167
 41
0.0104167
  0
SEQEND
 8
0
  0
POLYLINE
  8
0
 62
     0
 66
     1
 10
0
 20
0
 30
0.0
 40
0.75
 41
0.75
  0
VERTEX
  8
0
 10
3.03603
 20
17.1353
 30
0.0
 40
0.0104167
 41
0.0104167
  0
VERTEX
  8
0
 10
4.96354
 20
17.1353
 30
0.0
 40
0.0104167
 41
0.0104167
  0
SEQEND
 8
0
  0
POLYLINE
  8
0
 62
     0
 66
     1
 10
0
 20
0
 30
0.0
 40
0.75
 41
0.75
  0
VERTEX
  8
0
 10
3.03603
 20
16.9582
 30
0.0
 40
0.0104167
 41
0.0104167
  0
VERTEX
  8
0
 10
3.03603
 20
17.3124
 30
0.0
 40
0.0104167
 41
0.0104167
  0
SEQEND
 8
0
  0
POLYLINE
  8
0
 62
     0
 66
     1
 10
0
 20
0
 30
0.0
 40
0.75
 41
0.75
  0
VERTEX
  8
0
 10
4.96354
 20
16.9582
 30
0.0
 40
0.0104167
 41
0.0104167
  0
VERTEX
  8
0
 10
4.96354
 20
17.3124
 30
0.0
 40
0.0104167
 41
0.0104167
  0
SEQEND
 8
0
  0
POLYLINE
  8
0
 62
     7
 66
     1
 10
0
 20
0
 30
0.0
 70
     1
 40
0
 41
0
  0
VERTEX
  8
0
 10
6.053
 20
17.3124
 30
0.0
 40
0
 41
0
  0
VERTEX
  8
0
 10
8.50782
 20
17.3124
 30
0.0
 40
0
 41
0
  0
VERTEX
  8
0
 10
8.50782
 20
16.9582
 30
0.0
 40
0
 41
0
  0
VERTEX
  8
0
 10
6.053
 20
16.9582
 30
0.0
 40
0
 41
0
  0
VERTEX
  8
0
 10
6.053
 20
17.3124
 30
0.0
 40
0
 41
0
  0
SEQEND
 8
0
  0
POLYLINE
  8
0
 62
     0
 66
     1
 10
0
 20
0
 30
0.0
 70
     1
 40
0.75
 41
0.75
  0
VERTEX
  8
0
 10
6.053
 20
17.3124
 30
0.0
 40
0.0104167
 41
0.0104167
  0
VERTEX
  8
0
 10
8.50782
 20
17.3124
 30
0.0
 40
0.0104167
 41
0.0104167
  0
VERTEX
  8
0
 10
8.50782
 20
16.9582
 30
0.0
 40
0.0104167
 41
0.0104167
  0
VERTEX
  8
0
 10
6.053
 20
16.9582
 30
0.0
 40
0.0104167
 41
0.0104167
  0
VERTEX
  8
0
 10
6.053
 20
17.3124
 30
0.0
 40
0.0104167
 41
0.0104167
  0
SEQEND
 8
0
  0
POLYLINE
  8
0
 62
     7
 66
     1
 10
0
 20
0
 30
0.0
 70
     1
 40
0
 41
0
  0
VERTEX
  8
0
 10
6.053
 20
17.3124
 30
0.0
 40
0
 41
0
  0
VERTEX
  8
0
 10
8.50782
 20
17.3124
 30
0.0
 40
0
 41
0
  0
VERTEX
  8
0
 10
8.50782
 20
16.9582
 30
0.0
 40
0
 41
0
  0
VERTEX
  8
0
 10
6.053
 20
16.9582
 30
0.0
 40
0
 41
0
  0
VERTEX
  8
0
 10
6.053
 20
17.3124
 30
0.0
 40
0
 41
0
  0
SEQEND
 8
0
  0
POLYLINE
  8
0
 62
     0
 66
     1
 10
0
 20
0
 30
0.0
 70
     1
 40
0.75
 41
0.75
  0
VERTEX
  8
0
 10
6.053
 20
17.3124
 30
0.0
 40
0.0104167
 41
0.0104167
  0
VERTEX
  8
0
 10
8.50782
 20
17.3124
 30
0.0
 40
0.0104167
 41
0.0104167
  0
VERTEX
  8
0
 10
8.50782
 20
16.9582
 30
0.0
 40
0.0104167
 41
0.0104167
  0
VERTEX
  8
0
 10
6.053
 20
16.9582
 30
0.0
 40
0.0104167
 41
0.0104167
  0
VERTEX
  8
0
 10
6.053
 20
17.3124
 30
0.0
 40
0.0104167
 41
0.0104167
  0
SEQEND
 8
0
  0
POLYLINE
  8
0
 62
     0
 66
     1
 10
0
 20
0
 30
0.0
 40
0.75
 41
0.75
  0
VERTEX
  8
0
 10
6.13113
 20
17.1353
 30
0.0
 40
0.0104167
 41
0.0104167
  0
VERTEX
  8
0
 10
8.42969
 20
17.1353
 30
0.0
 40
0.0104167
 41
0.0104167
  0
SEQEND
 8
0
  0
POLYLINE
  8
0
 62
     0
 66
     1
 10
0
 20
0
 30
0.0
 40
0.75
 41
0.75
  0
VERTEX
  8
0
 10
6.13113
 20
16.9582
 30
0.0
 40
0.0104167
 41
0.0104167
  0
VERTEX
  8
0
 10
6.13113
 20
17.3124
 30
0.0
 40
0.0104167
 41
0.0104167
  0
SEQEND
 8
0
  0
POLYLINE
  8
0
 62
     0
 66
     1
 10
0
 20
0
 30
0.0
 40
0.75
 41
0.75
  0
VERTEX
  8
0
 10
8.42969
 20
16.9582
 30
0.0
 40
0.0104167
 41
0.0104167
  0
VERTEX
  8
0
 10
8.42969
 20
17.3124
 30
0.0
 40
0.0104167
 41
0.0104167
  0
SEQEND
 8
0
  0
POLYLINE
  8
0
 62
     0
 66
     1
 10
0
 20
0
 30
0.0
 70
     1
 40
0
 41
0
  0
VERTEX
  8
0
 10
10.3132
 20
17.3124
 30
0.0
 40
0
 41
0
  0
VERTEX
  8
0
 10
10.3132
 20
4.70856
 30
0.0
 40
0
 41
0
  0
VERTEX
  8
0
 10
10.0215
 20
5.07314
 30
0.0
 40
0
 41
0
  0
VERTEX
  8
0
 10
10.0215
 20
16.9582
 30
0.0
 40
0
 41
0
  0
VERTEX
  8
0
 10
10.3132
 20
17.3124
 30
0.0
 40
0
 41
0
  0
SEQEND
 8
0
  0
POLYLINE
  8
0
 62
     0
 66
     1
 10
0
 20
0
 30
0.0
 70
     1
 40
0.15
 41
0.15
  0
VERTEX
  8
0
 10
10.3132
 20
17.3124
 30
0.0
 40
0.00208333
 41
0.00208333
  0
VERTEX
  8
0
 10
10.3132
 20
4.70856
 30
0.0
 40
0.00208333
 41
0.00208333
  0
VERTEX
  8
0
 10
10.0215
 20
5.07314
 30
0.0
 40
0.00208333
 41
0.00208333
  0
VERTEX
  8
0
 10
10.0215
 20
16.9582
 30
0.0
 40
0.00208333
 41
0.00208333
  0
VERTEX
  8
0
 10
10.3132
 20
17.3124
 30
0.0
 40
0.00208333
 41
0.00208333
  0
SEQEND
 8
0
  0
POLYLINE
  8
0
 62
     0
 66
     1
 10
0
 20
0
 30
0.0
 70
     1
 40
0
 41
0
  0
VERTEX
  8
0
 10
10.0215
 20
5.07314
 30
0.0
 40
0
 41
0
  0
VERTEX
  8
0
 10
3.60607
 20
5.07314
 30
0.0
 40
0
 41
0
  0
VERTEX
  8
0
 10
3.60607
 20
4.70856
 30
0.0
 40
0
 41
0
  0
VERTEX
  8
0
 10
10.3132
 20
4.70856
 30
0.0
 40
0
 41
0
  0
VERTEX
  8
0
 10
10.0215
 20
5.07314
 30
0.0
 40
0
 41
0
  0
SEQEND
 8
0
  0
POLYLINE
  8
0
 62
     0
 66
     1
 10
0
 20
0
 30
0.0
 70
     1
 40
0.15
 41
0.15
  0
VERTEX
  8
0
 10
10.0215
 20
5.07314
 30
0.0
 40
0.00208333
 41
0.00208333
  0
VERTEX
  8
0
 10
3.60607
 20
5.07314
 30
0.0
 40
0.00208333
 41
0.00208333
  0
VERTEX
  8
0
 10
3.60607
 20
4.70856
 30
0.0
 40
0.00208333
 41
0.00208333
  0
VERTEX
  8
0
 10
10.3132
 20
4.70856
 30
0.0
 40
0.00208333
 41
0.00208333
  0
VERTEX
  8
0
 10
10.0215
 20
5.07314
 30
0.0
 40
0.00208333
 41
0.00208333
  0
SEQEND
 8
0
  0
POLYLINE
  8
0
 62
     7
 66
     1
 10
0
 20
0
 30
0.0
 70
     1
 40
0
 41
0
  0
VERTEX
  8
0
 10
5.06033
 20
5.07314
 30
0.0
 40
0
 41
0
  0
VERTEX
  8
0
 10
6.007
 20
5.07314
 30
0.0
 40
0
 41
0
  0
VERTEX
  8
0
 10
6.007
 20
4.70856
 30
0.0
 40
0
 41
0
  0
VERTEX
  8
0
 10
5.06033
 20
4.70856
 30
0.0
 40
0
 41
0
  0
VERTEX
  8
0
 10
5.06033
 20
5.07314
 30
0.0
 40
0
 41
0
  0
SEQEND
 8
0
  0
POLYLINE
  8
0
 62
     0
 66
     1
 10
0
 20
0
 30
0.0
 70
     1
 40
0.75
 41
0.75
  0
VERTEX
  8
0
 10
5.06033
 20
5.07314
 30
0.0
 40
0.0104167
 41
0.0104167
  0
VERTEX
  8
0
 10
6.007
 20
5.07314
 30
0.0
 40
0.0104167
 41
0.0104167
  0
VERTEX
  8
0
 10
6.007
 20
4.70856
 30
0.0
 40
0.0104167
 41
0.0104167
  0
VERTEX
  8
0
 10
5.06033
 20
4.70856
 30
0.0
 40
0.0104167
 41
0.0104167
  0
VERTEX
  8
0
 10
5.06033
 20
5.07314
 30
0.0
 40
0.0104167
 41
0.0104167
  0
SEQEND
 8
0
  0
POLYLINE
  8
0
 62
     7
 66
     1
 10
0
 20
0
 30
0.0
 70
     1
 40
0
 41
0
  0
VERTEX
  8
0
 10
5.06033
 20
5.07314
 30
0.0
 40
0
 41
0
  0
VERTEX
  8
0
 10
6.007
 20
5.07314
 30
0.0
 40
0
 41
0
  0
VERTEX
  8
0
 10
6.007
 20
4.70856
 30
0.0
 40
0
 41
0
  0
VERTEX
  8
0
 10
5.06033
 20
4.70856
 30
0.0
 40
0
 41
0
  0
VERTEX
  8
0
 10
5.06033
 20
5.07314
 30
0.0
 40
0
 41
0
  0
SEQEND
 8
0
  0
POLYLINE
  8
0
 62
     0
 66
     1
 10
0
 20
0
 30
0.0
 70
     1
 40
0.75
 41
0.75
  0
VERTEX
  8
0
 10
5.06033
 20
5.07314
 30
0.0
 40
0.0104167
 41
0.0104167
  0
VERTEX
  8
0
 10
6.007
 20
5.07314
 30
0.0
 40
0.0104167
 41
0.0104167
  0
VERTEX
  8
0
 10
6.007
 20
4.70856
 30
0.0
 40
0.0104167
 41
0.0104167
  0
VERTEX
  8
0
 10
5.06033
 20
4.70856
 30
0.0
 40
0.0104167
 41
0.0104167
  0
VERTEX
  8
0
 10
5.06033
 20
5.07314
 30
0.0
 40
0.0104167
 41
0.0104167
  0
SEQEND
 8
0
  0
POLYLINE
  8
0
 62
     0
 66
     1
 10
0
 20
0
 30
0.0
 70
     1
 40
0.75
 41
0.75
  0
VERTEX
  8
0
 10
5.06033
 20
4.70856
 30
0.0
 40
0.0104167
 41
0.0104167
  0
VERTEX
  8
0
 10
5.06033
 20
4.6531
 30
0.0
 40
0.0104167
 41
0.0104167
  0
VERTEX
  8
0
 10
5.07508
 20
4.48671
 30
0.0
 40
0.0104167
 41
0.0104167
  0
VERTEX
  8
0
 10
5.11947
 20
4.29438
 30
0.0
 40
0.0104167
 41
0.0104167
  0
VERTEX
  8
0
 10
5.19342
 20
4.13167
 30
0.0
 40
0.0104167
 41
0.0104167
  0
VERTEX
  8
0
 10
5.29699
 20
3.99858
 30
0.0
 40
0.0104167
 41
0.0104167
  0
VERTEX
  8
0
 10
5.43007
 20
3.89501
 30
0.0
 40
0.0104167
 41
0.0104167
  0
VERTEX
  8
0
 10
5.59278
 20
3.82107
 30
0.0
 40
0.0104167
 41
0.0104167
  0
VERTEX
  8
0
 10
5.7851
 20
3.77669
 30
0.0
 40
0.0104167
 41
0.0104167
  0
VERTEX
  8
0
 10
5.9515
 20
3.76188
 30
0.0
 40
0.0104167
 41
0.0104167
  0
VERTEX
  8
0
 10
6.007
 20
3.76188
 30
0.0
 40
0.0104167
 41
0.0104167
  0
VERTEX
  8
0
 10
6.007
 20
4.70856
 30
0.0
 40
0.0104167
 41
0.0104167
  0
VERTEX
  8
0
 10
5.06033
 20
4.70856
 30
0.0
 40
0.0104167
 41
0.0104167
  0
SEQEND
 8
0
  0
POLYLINE
  8
0
 62
     7
 66
     1
 10
0
 20
0
 30
0.0
 70
     1
 40
0
 41
0
  0
VERTEX
  8
0
 10
6.86908
 20
5.07314
 30
0.0
 40
0
 41
0
  0
VERTEX
  8
0
 10
8.8406
 20
5.07314
 30
0.0
 40
0
 41
0
  0
VERTEX
  8
0
 10
8.8406
 20
4.70856
 30
0.0
 40
0
 41
0
  0
VERTEX
  8
0
 10
6.86908
 20
4.70856
 30
0.0
 40
0
 41
0
  0
VERTEX
  8
0
 10
6.86908
 20
5.07314
 30
0.0
 40
0
 41
0
  0
SEQEND
 8
0
  0
POLYLINE
  8
0
 62
     0
 66
     1
 10
0
 20
0
 30
0.0
 70
     1
 40
0.75
 41
0.75
  0
VERTEX
  8
0
 10
6.86908
 20
5.07314
 30
0.0
 40
0.0104167
 41
0.0104167
  0
VERTEX
  8
0
 10
8.8406
 20
5.07314
 30
0.0
 40
0.0104167
 41
0.0104167
  0
VERTEX
  8
0
 10
8.8406
 20
4.70856
 30
0.0
 40
0.0104167
 41
0.0104167
  0
VERTEX
  8
0
 10
6.86908
 20
4.70856
 30
0.0
 40
0.0104167
 41
0.0104167
  0
VERTEX
  8
0
 10
6.86908
 20
5.07314
 30
0.0
 40
0.0104167
 41
0.0104167
  0
SEQEND
 8
0
  0
POLYLINE
  8
0
 62
     7
 66
     1
 10
0
 20
0
 30
0.0
 70
     1
 40
0
 41
0
  0
VERTEX
  8
0
 10
6.86908
 20
5.07314
 30
0.0
 40
0
 41
0
  0
VERTEX
  8
0
 10
8.8406
 20
5.07314
 30
0.0
 40
0
 41
0
  0
VERTEX
  8
0
 10
8.8406
 20
4.70856
 30
0.0
 40
0
 41
0
  0
VERTEX
  8
0
 10
6.86908
 20
4.70856
 30
0.0
 40
0
 41
0
  0
VERTEX
  8
0
 10
6.86908
 20
5.07314
 30
0.0
 40
0
 41
0
  0
SEQEND
 8
0
  0
POLYLINE
  8
0
 62
     0
 66
     1
 10
0
 20
0
 30
0.0
 70
     1
 40
0.75
 41
0.75
  0
VERTEX
  8
0
 10
6.86908
 20
5.07314
 30
0.0
 40
0.0104167
 41
0.0104167
  0
VERTEX
  8
0
 10
8.8406
 20
5.07314
 30
0.0
 40
0.0104167
 41
0.0104167
  0
VERTEX
  8
0
 10
8.8406
 20
4.70856
 30
0.0
 40
0.0104167
 41
0.0104167
  0
VERTEX
  8
0
 10
6.86908
 20
4.70856
 30
0.0
 40
0.0104167
 41
0.0104167
  0
VERTEX
  8
0
 10
6.86908
 20
5.07314
 30
0.0
 40
0.0104167
 41
0.0104167
  0
SEQEND
 8
0
  0
POLYLINE
  8
0
 62
     0
 66
     1
 10
0
 20
0
 30
0.0
 40
0.75
 41
0.75
  0
VERTEX
  8
0
 10
8.76247
 20
4.89085
 30
0.0
 40
0.0104167
 41
0.0104167
  0
VERTEX
  8
0
 10
6.94721
 20
4.89085
 30
0.0
 40
0.0104167
 41
0.0104167
  0
SEQEND
 8
0
  0
POLYLINE
  8
0
 62
     0
 66
     1
 10
0
 20
0
 30
0.0
 40
0.75
 41
0.75
  0
VERTEX
  8
0
 10
8.76247
 20
5.07314
 30
0.0
 40
0.0104167
 41
0.0104167
  0
VERTEX
  8
0
 10
8.76247
 20
4.70856
 30
0.0
 40
0.0104167
 41
0.0104167
  0
SEQEND
 8
0
  0
POLYLINE
  8
0
 62
     0
 66
     1
 10
0
 20
0
 30
0.0
 40
0.75
 41
0.75
  0
VERTEX
  8
0
 10
6.94721
 20
5.07314
 30
0.0
 40
0.0104167
 41
0.0104167
  0
VERTEX
  8
0
 10
6.94721
 20
4.70856
 30
0.0
 40
0.0104167
 41
0.0104167
  0
SEQEND
 8
0
  0
POLYLINE
  8
0
 62
     7
 66
     1
 10
0
 20
0
 30
0.0
 70
     1
 40
0
 41
0
  0
VERTEX
  8
0
 10
3.63747
 20
5.07314
 30
0.0
 40
0
 41
0
  0
VERTEX
  8
0
 10
4.83128
 20
5.07314
 30
0.0
 40
0
 41
0
  0
VERTEX
  8
0
 10
4.83128
 20
4.70856
 30
0.0
 40
0
 41
0
  0
VERTEX
  8
0
 10
3.63747
 20
4.70856
 30
0.0
 40
0
 41
0
  0
VERTEX
  8
0
 10
3.63747
 20
5.07314
 30
0.0
 40
0
 41
0
  0
SEQEND
 8
0
  0
POLYLINE
  8
0
 62
     0
 66
     1
 10
0
 20
0
 30
0.0
 70
     1
 40
0.75
 41
0.75
  0
VERTEX
  8
0
 10
3.63747
 20
5.07314
 30
0.0
 40
0.0104167
 41
0.0104167
  0
VERTEX
  8
0
 10
4.83128
 20
5.07314
 30
0.0
 40
0.0104167
 41
0.0104167
  0
VERTEX
  8
0
 10
4.83128
 20
4.70856
 30
0.0
 40
0.0104167
 41
0.0104167
  0
VERTEX
  8
0
 10
3.63747
 20
4.70856
 30
0.0
 40
0.0104167
 41
0.0104167
  0
VERTEX
  8
0
 10
3.63747
 20
5.07314
 30
0.0
 40
0.0104167
 41
0.0104167
  0
SEQEND
 8
0
  0
POLYLINE
  8
0
 62
     7
 66
     1
 10
0
 20
0
 30
0.0
 70
     1
 40
0
 41
0
  0
VERTEX
  8
0
 10
3.63747
 20
5.07314
 30
0.0
 40
0
 41
0
  0
VERTEX
  8
0
 10
4.83128
 20
5.07314
 30
0.0
 40
0
 41
0
  0
VERTEX
  8
0
 10
4.83128
 20
4.70856
 30
0.0
 40
0
 41
0
  0
VERTEX
  8
0
 10
3.63747
 20
4.70856
 30
0.0
 40
0
 41
0
  0
VERTEX
  8
0
 10
3.63747
 20
5.07314
 30
0.0
 40
0
 41
0
  0
SEQEND
 8
0
  0
POLYLINE
  8
0
 62
     0
 66
     1
 10
0
 20
0
 30
0.0
 70
     1
 40
0.75
 41
0.75
  0
VERTEX
  8
0
 10
3.63747
 20
5.07314
 30
0.0
 40
0.0104167
 41
0.0104167
  0
VERTEX
  8
0
 10
4.83128
 20
5.07314
 30
0.0
 40
0.0104167
 41
0.0104167
  0
VERTEX
  8
0
 10
4.83128
 20
4.70856
 30
0.0
 40
0.0104167
 41
0.0104167
  0
VERTEX
  8
0
 10
3.63747
 20
4.70856
 30
0.0
 40
0.0104167
 41
0.0104167
  0
VERTEX
  8
0
 10
3.63747
 20
5.07314
 30
0.0
 40
0.0104167
 41
0.0104167
  0
SEQEND
 8
0
  0
POLYLINE
  8
0
 62
     0
 66
     1
 10
0
 20
0
 30
0.0
 40
0.75
 41
0.75
  0
VERTEX
  8
0
 10
4.75315
 20
4.89085
 30
0.0
 40
0.0104167
 41
0.0104167
  0
VERTEX
  8
0
 10
3.7156
 20
4.89085
 30
0.0
 40
0.0104167
 41
0.0104167
  0
SEQEND
 8
0
  0
POLYLINE
  8
0
 62
     0
 66
     1
 10
0
 20
0
 30
0.0
 40
0.75
 41
0.75
  0
VERTEX
  8
0
 10
4.75315
 20
5.07314
 30
0.0
 40
0.0104167
 41
0.0104167
  0
VERTEX
  8
0
 10
4.75315
 20
4.70856
 30
0.0
 40
0.0104167
 41
0.0104167
  0
SEQEND
 8
0
  0
POLYLINE
  8
0
 62
     0
 66
     1
 10
0
 20
0
 30
0.0
 40
0.75
 41
0.75
  0
VERTEX
  8
0
 10
3.7156
 20
5.07314
 30
0.0
 40
0.0104167
 41
0.0104167
  0
VERTEX
  8
0
 10
3.7156
 20
4.70856
 30
0.0
 40
0.0104167
 41
0.0104167
  0
SEQEND
 8
0
  0
POLYLINE
  8
0
 62
     0
 66
     1
 10
0
 20
0
 30
0.0
 70
     1
 40
0
 41
0
  0
VERTEX
  8
0
 10
3.60607
 20
5.07314
 30
0.0
 40
0
 41
0
  0
VERTEX
  8
0
 10
2.21457
 20
5.07314
 30
0.0
 40
0
 41
0
  0
VERTEX
  8
0
 10
1.96457
 20
4.84397
 30
0.0
 40
0
 41
0
  0
VERTEX
  8
0
 10
3.44982
 20
4.84397
 30
0.0
 40
0
 41
0
  0
VERTEX
  8
0
 10
3.60607
 20
5.07314
 30
0.0
 40
0
 41
0
  0
SEQEND
 8
0
  0
POLYLINE
  8
0
 62
     0
 66
     1
 10
0
 20
0
 30
0.0
 70
     1
 40
0.15
 41
0.15
  0
VERTEX
  8
0
 10
3.60607
 20
5.07314
 30
0.0
 40
0.00208333
 41
0.00208333
  0
VERTEX
  8
0
 10
2.21457
 20
5.07314
 30
0.0
 40
0.00208333
 41
0.00208333
  0
VERTEX
  8
0
 10
1.96457
 20
4.84397
 30
0.0
 40
0.00208333
 41
0.00208333
  0
VERTEX
  8
0
 10
3.44982
 20
4.84397
 30
0.0
 40
0.00208333
 41
0.00208333
  0
VERTEX
  8
0
 10
3.60607
 20
5.07314
 30
0.0
 40
0.00208333
 41
0.00208333
  0
SEQEND
 8
0
  0
POLYLINE
  8
0
 62
     0
 66
     1
 10
0
 20
0
 30
0.0
 70
     1
 40
0
 41
0
  0
VERTEX
  8
0
 10
2.21457
 20
5.07314
 30
0.0
 40
0
 41
0
  0
VERTEX
  8
0
 10
2.21457
 20
16.9582
 30
0.0
 40
0
 41
0
  0
VERTEX
  8
0
 10
1.96457
 20
17.3124
 30
0.0
 40
0
 41
0
  0
VERTEX
  8
0
 10
1.96457
 20
4.84397
 30
0.0
 40
0
 41
0
  0
VERTEX
  8
0
 10
2.21457
 20
5.07314
 30
0.0
 40
0
 41
0
  0
SEQEND
 8
0
  0
POLYLINE
  8
0
 62
     0
 66
     1
 10
0
 20
0
 30
0.0
 70
     1
 40
0.15
 41
0.15
  0
VERTEX
  8
0
 10
2.21457
 20
5.07314
 30
0.0
 40
0.00208333
 41
0.00208333
  0
VERTEX
  8
0
 10
2.21457
 20
16.9582
 30
0.0
 40
0.00208333
 41
0.00208333
  0
VERTEX
  8
0
 10
1.96457
 20
17.3124
 30
0.0
 40
0.00208333
 41
0.00208333
  0
VERTEX
  8
0
 10
1.96457
 20
4.84397
 30
0.0
 40
0.00208333
 41
0.00208333
  0
VERTEX
  8
0
 10
2.21457
 20
5.07314
 30
0.0
 40
0.00208333
 41
0.00208333
  0
SEQEND
 8
0
  0
POLYLINE
  8
0
 62
     0
 66
     1
 10
0
 20
0
 30
0.0
 70
     1
 40
0
 41
0
  0
VERTEX
  8
0
 10
3.60607
 20
5.07314
 30
0.0
 40
0
 41
0
  0
VERTEX
  8
0
 10
3.60607
 20
0.864367
 30
0.0
 40
0
 41
0
  0
VERTEX
  8
0
 10
3.44982
 20
1.02062
 30
0.0
 40
0
 41
0
  0
VERTEX
  8
0
 10
3.44982
 20
4.84397
 30
0.0
 40
0
 41
0
  0
VERTEX
  8
0
 10
3.60607
 20
5.07314
 30
0.0
 40
0
 41
0
  0
SEQEND
 8
0
  0
POLYLINE
  8
0
 62
     0
 66
     1
 10
0
 20
0
 30
0.0
 70
     1
 40
0.15
 41
0.15
  0
VERTEX
  8
0
 10
3.60607
 20
5.07314
 30
0.0
 40
0.00208333
 41
0.00208333
  0
VERTEX
  8
0
 10
3.60607
 20
0.864367
 30
0.0
 40
0.00208333
 41
0.00208333
  0
VERTEX
  8
0
 10
3.44982
 20
1.02062
 30
0.0
 40
0.00208333
 41
0.00208333
  0
VERTEX
  8
0
 10
3.44982
 20
4.84397
 30
0.0
 40
0.00208333
 41
0.00208333
  0
VERTEX
  8
0
 10
3.60607
 20
5.07314
 30
0.0
 40
0.00208333
 41
0.00208333
  0
SEQEND
 8
0
  0
POLYLINE
  8
0
 62
     7
 66
     1
 10
0
 20
0
 30
0.0
 70
     1
 40
0
 41
0
  0
VERTEX
  8
0
 10
3.44982
 20
2.85688
 30
0.0
 40
0
 41
0
  0
VERTEX
  8
0
 10
3.60607
 20
2.85688
 30
0.0
 40
0
 41
0
  0
VERTEX
  8
0
 10
3.60607
 20
1.83188
 30
0.0
 40
0
 41
0
  0
VERTEX
  8
0
 10
3.44982
 20
1.83188
 30
0.0
 40
0
 41
0
  0
VERTEX
  8
0
 10
3.44982
 20
2.85688
 30
0.0
 40
0
 41
0
  0
SEQEND
 8
0
  0
POLYLINE
  8
0
 62
     0
 66
     1
 10
0
 20
0
 30
0.0
 70
     1
 40
0.75
 41
0.75
  0
VERTEX
  8
0
 10
3.44982
 20
2.85688
 30
0.0
 40
0.0104167
 41
0.0104167
  0
VERTEX
  8
0
 10
3.60607
 20
2.85688
 30
0.0
 40
0.0104167
 41
0.0104167
  0
VERTEX
  8
0
 10
3.60607
 20
1.83188
 30
0.0
 40
0.0104167
 41
0.0104167
  0
VERTEX
  8
0
 10
3.44982
 20
1.83188
 30
0.0
 40
0.0104167
 41
0.0104167
  0
VERTEX
  8
0
 10
3.44982
 20
2.85688
 30
0.0
 40
0.0104167
 41
0.0104167
  0
SEQEND
 8
0
  0
POLYLINE
  8
0
 62
     7
 66
     1
 10
0
 20
0
 30
0.0
 70
     1
 40
0
 41
0
  0
VERTEX
  8
0
 10
3.44982
 20
2.85688
 30
0.0
 40
0
 41
0
  0
VERTEX
  8
0
 10
3.60607
 20
2.85688
 30
0.0
 40
0
 41
0
  0
VERTEX
  8
0
 10
3.60607
 20
1.83188
 30
0.0
 40
0
 41
0
  0
VERTEX
  8
0
 10
3.44982
 20
1.83188
 30
0.0
 40
0
 41
0
  0
VERTEX
  8
0
 10
3.44982
 20
2.85688
 30
0.0
 40
0
 41
0
  0
SEQEND
 8
0
  0
POLYLINE
  8
0
 62
     0
 66
     1
 10
0
 20
0
 30
0.0
 70
     1
 40
0.75
 41
0.75
  0
VERTEX
  8
0
 10
3.44982
 20
2.85688
 30
0.0
 40
0.0104167
 41
0.0104167
  0
VERTEX
  8
0
 10
3.60607
 20
2.85688
 30
0.0
 40
0.0104167
 41
0.0104167
  0
VERTEX
  8
0
 10
3.60607
 20
1.83188
 30
0.0
 40
0.0104167
 41
0.0104167
  0
VERTEX
  8
0
 10
3.44982
 20
1.83188
 30
0.0
 40
0.0104167
 41
0.0104167
  0
VERTEX
  8
0
 10
3.44982
 20
2.85688
 30
0.0
 40
0.0104167
 41
0.0104167
  0
SEQEND
 8
0
  0
POLYLINE
  8
0
 62
     0
 66
     1
 10
0
 20
0
 30
0.0
 70
     1
 40
0.75
 41
0.75
  0
VERTEX
  8
0
 10
3.60607
 20
1.83188
 30
0.0
 40
0.0104167
 41
0.0104167
  0
VERTEX
  8
0
 10
3.66607
 20
1.83188
 30
0.0
 40
0.0104167
 41
0.0104167
  0
VERTEX
  8
0
 10
3.84625
 20
1.84793
 30
0.0
 40
0.0104167
 41
0.0104167
  0
VERTEX
  8
0
 10
4.05447
 20
1.89594
 30
0.0
 40
0.0104167
 41
0.0104167
  0
VERTEX
  8
0
 10
4.23063
 20
1.97601
 30
0.0
 40
0.0104167
 41
0.0104167
  0
VERTEX
  8
0
 10
4.37478
 20
2.08817
 30
0.0
 40
0.0104167
 41
0.0104167
  0
VERTEX
  8
0
 10
4.48687
 20
2.23232
 30
0.0
 40
0.0104167
 41
0.0104167
  0
VERTEX
  8
0
 10
4.56694
 20
2.40847
 30
0.0
 40
0.0104167
 41
0.0104167
  0
VERTEX
  8
0
 10
4.61496
 20
2.61669
 30
0.0
 40
0.0104167
 41
0.0104167
  0
VERTEX
  8
0
 10
4.63103
 20
2.79688
 30
0.0
 40
0.0104167
 41
0.0104167
  0
VERTEX
  8
0
 10
4.63103
 20
2.85688
 30
0.0
 40
0.0104167
 41
0.0104167
  0
VERTEX
  8
0
 10
3.60607
 20
2.85688
 30
0.0
 40
0.0104167
 41
0.0104167
  0
VERTEX
  8
0
 10
3.60607
 20
1.83188
 30
0.0
 40
0.0104167
 41
0.0104167
  0
SEQEND
 8
0
  0
POLYLINE
  8
0
 62
     0
 66
     1
 10
0
 20
0
 30
0.0
 70
     1
 40
0
 41
0
  0
VERTEX
  8
0
 10
3.60607
 20
0.864367
 30
0.0
 40
0
 41
0
  0
VERTEX
  8
0
 10
2.00846
 20
0.864367
 30
0.0
 40
0
 41
0
  0
VERTEX
  8
0
 10
2.16471
 20
1.02062
 30
0.0
 40
0
 41
0
  0
VERTEX
  8
0
 10
3.44982
 20
1.02062
 30
0.0
 40
0
 41
0
  0
VERTEX
  8
0
 10
3.60607
 20
0.864367
 30
0.0
 40
0
 41
0
  0
SEQEND
 8
0
  0
POLYLINE
  8
0
 62
     0
 66
     1
 10
0
 20
0
 30
0.0
 70
     1
 40
0.15
 41
0.15
  0
VERTEX
  8
0
 10
3.60607
 20
0.864367
 30
0.0
 40
0.00208333
 41
0.00208333
  0
VERTEX
  8
0
 10
2.00846
 20
0.864367
 30
0.0
 40
0.00208333
 41
0.00208333
  0
VERTEX
  8
0
 10
2.16471
 20
1.02062
 30
0.0
 40
0.00208333
 41
0.00208333
  0
VERTEX
  8
0
 10
3.44982
 20
1.02062
 30
0.0
 40
0.00208333
 41
0.00208333
  0
VERTEX
  8
0
 10
3.60607
 20
0.864367
 30
0.0
 40
0.00208333
 41
0.00208333
  0
SEQEND
 8
0
  0
POLYLINE
  8
0
 62
     0
 66
     1
 10
0
 20
0
 30
0.0
 70
     1
 40
0
 41
0
  0
VERTEX
  8
0
 10
2.00846
 20
0.864367
 30
0.0
 40
0
 41
0
  0
VERTEX
  8
0
 10
2.00846
 20
4.84397
 30
0.0
 40
0
 41
0
  0
VERTEX
  8
0
 10
2.16471
 20
4.84397
 30
0.0
 40
0
 41
0
  0
VERTEX
  8
0
 10
2.16471
 20
1.02062
 30
0.0
 40
0
 41
0
  0
VERTEX
  8
0
 10
2.00846
 20
0.864367
 30
0.0
 40
0
 41
0
  0
SEQEND
 8
0
  0
POLYLINE
  8
0
 62
     0
 66
     1
 10
0
 20
0
 30
0.0
 70
     1
 40
0.15
 41
0.15
  0
VERTEX
  8
0
 10
2.00846
 20
0.864367
 30
0.0
 40
0.00208333
 41
0.00208333
  0
VERTEX
  8
0
 10
2.00846
 20
4.84397
 30
0.0
 40
0.00208333
 41
0.00208333
  0
VERTEX
  8
0
 10
2.16471
 20
4.84397
 30
0.0
 40
0.00208333
 41
0.00208333
  0
VERTEX
  8
0
 10
2.16471
 20
1.02062
 30
0.0
 40
0.00208333
 41
0.00208333
  0
VERTEX
  8
0
 10
2.00846
 20
0.864367
 30
0.0
 40
0.00208333
 41
0.00208333
  0
SEQEND
 8
0
  0
POLYLINE
  8
0
 62
     0
 66
     1
 10
0
 20
0
 30
0.0
 70
     1
 40
0
 41
0
  0
VERTEX
  8
0
 10
4.86117
 20
11.5894
 30
0.0
 40
0
 41
0
  0
VERTEX
  8
0
 10
4.97575
 20
11.5894
 30
0.0
 40
0
 41
0
  0
VERTEX
  8
0
 10
4.97575
 20
4.70856
 30
0.0
 40
0
 41
0
  0
VERTEX
  8
0
 10
4.86117
 20
4.70856
 30
0.0
 40
0
 41
0
  0
VERTEX
  8
0
 10
4.86117
 20
11.5894
 30
0.0
 40
0
 41
0
  0
SEQEND
 8
0
  0
POLYLINE
  8
0
 62
     0
 66
     1
 10
0
 20
0
 30
0.0
 70
     1
 40
0.15
 41
0.15
  0
VERTEX
  8
0
 10
4.86117
 20
11.5894
 30
0.0
 40
0.00208333
 41
0.00208333
  0
VERTEX
  8
0
 10
4.97575
 20
11.5894
 30
0.0
 40
0.00208333
 41
0.00208333
  0
VERTEX
  8
0
 10
4.97575
 20
4.70856
 30
0.0
 40
0.00208333
 41
0.00208333
  0
VERTEX
  8
0
 10
4.86117
 20
4.70856
 30
0.0
 40
0.00208333
 41
0.00208333
  0
VERTEX
  8
0
 10
4.86117
 20
11.5894
 30
0.0
 40
0.00208333
 41
0.00208333
  0
SEQEND
 8
0
  0
POLYLINE
  8
0
 62
     7
 66
     1
 10
0
 20
0
 30
0.0
 70
     1
 40
0
 41
0
  0
VERTEX
  8
0
 10
4.86117
 20
8.08344
 30
0.0
 40
0
 41
0
  0
VERTEX
  8
0
 10
4.97575
 20
8.08344
 30
0.0
 40
0
 41
0
  0
VERTEX
  8
0
 10
4.97575
 20
7.09668
 30
0.0
 40
0
 41
0
  0
VERTEX
  8
0
 10
4.86117
 20
7.09668
 30
0.0
 40
0
 41
0
  0
VERTEX
  8
0
 10
4.86117
 20
8.08344
 30
0.0
 40
0
 41
0
  0
SEQEND
 8
0
  0
POLYLINE
  8
0
 62
     0
 66
     1
 10
0
 20
0
 30
0.0
 70
     1
 40
0.75
 41
0.75
  0
VERTEX
  8
0
 10
4.86117
 20
8.08344
 30
0.0
 40
0.0104167
 41
0.0104167
  0
VERTEX
  8
0
 10
4.97575
 20
8.08344
 30
0.0
 40
0.0104167
 41
0.0104167
  0
VERTEX
  8
0
 10
4.97575
 20
7.09668
 30
0.0
 40
0.0104167
 41
0.0104167
  0
VERTEX
  8
0
 10
4.86117
 20
7.09668
 30
0.0
 40
0.0104167
 41
0.0104167
  0
VERTEX
  8
0
 10
4.86117
 20
8.08344
 30
0.0
 40
0.0104167
 41
0.0104167
  0
SEQEND
 8
0
  0
POLYLINE
  8
0
 62
     7
 66
     1
 10
0
 20
0
 30
0.0
 70
     1
 40
0
 41
0
  0
VERTEX
  8
0
 10
4.86117
 20
8.08344
 30
0.0
 40
0
 41
0
  0
VERTEX
  8
0
 10
4.97575
 20
8.08344
 30
0.0
 40
0
 41
0
  0
VERTEX
  8
0
 10
4.97575
 20
7.09668
 30
0.0
 40
0
 41
0
  0
VERTEX
  8
0
 10
4.86117
 20
7.09668
 30
0.0
 40
0
 41
0
  0
VERTEX
  8
0
 10
4.86117
 20
8.08344
 30
0.0
 40
0
 41
0
  0
SEQEND
 8
0
  0
POLYLINE
  8
0
 62
     0
 66
     1
 10
0
 20
0
 30
0.0
 70
     1
 40
0.75
 41
0.75
  0
VERTEX
  8
0
 10
4.86117
 20
8.08344
 30
0.0
 40
0.0104167
 41
0.0104167
  0
VERTEX
  8
0
 10
4.97575
 20
8.08344
 30
0.0
 40
0.0104167
 41
0.0104167
  0
VERTEX
  8
0
 10
4.97575
 20
7.09668
 30
0.0
 40
0.0104167
 41
0.0104167
  0
VERTEX
  8
0
 10
4.86117
 20
7.09668
 30
0.0
 40
0.0104167
 41
0.0104167
  0
VERTEX
  8
0
 10
4.86117
 20
8.08344
 30
0.0
 40
0.0104167
 41
0.0104167
  0
SEQEND
 8
0
  0
POLYLINE
  8
0
 62
     0
 66
     1
 10
0
 20
0
 30
0.0
 70
     1
 40
0.75
 41
0.75
  0
VERTEX
  8
0
 10
4.86117
 20
7.09668
 30
0.0
 40
0.0104167
 41
0.0104167
  0
VERTEX
  8
0
 10
4.80333
 20
7.09668
 30
0.0
 40
0.0104167
 41
0.0104167
  0
VERTEX
  8
0
 10
4.62983
 20
7.11214
 30
0.0
 40
0.0104167
 41
0.0104167
  0
VERTEX
  8
0
 10
4.42942
 20
7.15836
 30
0.0
 40
0.0104167
 41
0.0104167
  0
VERTEX
  8
0
 10
4.25982
 20
7.23546
 30
0.0
 40
0.0104167
 41
0.0104167
  0
VERTEX
  8
0
 10
4.12104
 20
7.34338
 30
0.0
 40
0.0104167
 41
0.0104167
  0
VERTEX
  8
0
 10
4.01307
 20
7.48215
 30
0.0
 40
0.0104167
 41
0.0104167
  0
VERTEX
  8
0
 10
3.93599
 20
7.65175
 30
0.0
 40
0.0104167
 41
0.0104167
  0
VERTEX
  8
0
 10
3.88976
 20
7.85215
 30
0.0
 40
0.0104167
 41
0.0104167
  0
VERTEX
  8
0
 10
3.87435
 20
8.02567
 30
0.0
 40
0.0104167
 41
0.0104167
  0
VERTEX
  8
0
 10
3.87435
 20
8.08344
 30
0.0
 40
0.0104167
 41
0.0104167
  0
VERTEX
  8
0
 10
4.86117
 20
8.08344
 30
0.0
 40
0.0104167
 41
0.0104167
  0
VERTEX
  8
0
 10
4.86117
 20
7.09668
 30
0.0
 40
0.0104167
 41
0.0104167
  0
SEQEND
 8
0
  0
POLYLINE
  8
0
 62
     7
 66
     1
 10
0
 20
0
 30
0.0
 70
     1
 40
0
 41
0
  0
VERTEX
  8
0
 10
4.86117
 20
10.1909
 30
0.0
 40
0
 41
0
  0
VERTEX
  8
0
 10
4.97575
 20
10.1909
 30
0.0
 40
0
 41
0
  0
VERTEX
  8
0
 10
4.97575
 20
9.45697
 30
0.0
 40
0
 41
0
  0
VERTEX
  8
0
 10
4.86117
 20
9.45697
 30
0.0
 40
0
 41
0
  0
VERTEX
  8
0
 10
4.86117
 20
10.1909
 30
0.0
 40
0
 41
0
  0
SEQEND
 8
0
  0
POLYLINE
  8
0
 62
     0
 66
     1
 10
0
 20
0
 30
0.0
 70
     1
 40
0.75
 41
0.75
  0
VERTEX
  8
0
 10
4.86117
 20
10.1909
 30
0.0
 40
0.0104167
 41
0.0104167
  0
VERTEX
  8
0
 10
4.97575
 20
10.1909
 30
0.0
 40
0.0104167
 41
0.0104167
  0
VERTEX
  8
0
 10
4.97575
 20
9.45697
 30
0.0
 40
0.0104167
 41
0.0104167
  0
VERTEX
  8
0
 10
4.86117
 20
9.45697
 30
0.0
 40
0.0104167
 41
0.0104167
  0
VERTEX
  8
0
 10
4.86117
 20
10.1909
 30
0.0
 40
0.0104167
 41
0.0104167
  0
SEQEND
 8
0
  0
POLYLINE
  8
0
 62
     7
 66
     1
 10
0
 20
0
 30
0.0
 70
     1
 40
0
 41
0
  0
VERTEX
  8
0
 10
4.86117
 20
10.1909
 30
0.0
 40
0
 41
0
  0
VERTEX
  8
0
 10
4.97575
 20
10.1909
 30
0.0
 40
0
 41
0
  0
VERTEX
  8
0
 10
4.97575
 20
9.45697
 30
0.0
 40
0
 41
0
  0
VERTEX
  8
0
 10
4.86117
 20
9.45697
 30
0.0
 40
0
 41
0
  0
VERTEX
  8
0
 10
4.86117
 20
10.1909
 30
0.0
 40
0
 41
0
  0
SEQEND
 8
0
  0
POLYLINE
  8
0
 62
     0
 66
     1
 10
0
 20
0
 30
0.0
 70
     1
 40
0.75
 41
0.75
  0
VERTEX
  8
0
 10
4.86117
 20
10.1909
 30
0.0
 40
0.0104167
 41
0.0104167
  0
VERTEX
  8
0
 10
4.97575
 20
10.1909
 30
0.0
 40
0.0104167
 41
0.0104167
  0
VERTEX
  8
0
 10
4.97575
 20
9.45697
 30
0.0
 40
0.0104167
 41
0.0104167
  0
VERTEX
  8
0
 10
4.86117
 20
9.45697
 30
0.0
 40
0.0104167
 41
0.0104167
  0
VERTEX
  8
0
 10
4.86117
 20
10.1909
 30
0.0
 40
0.0104167
 41
0.0104167
  0
SEQEND
 8
0
  0
POLYLINE
  8
0
 62
     0
 66
     1
 10
0
 20
0
 30
0.0
 70
     1
 40
0.75
 41
0.75
  0
VERTEX
  8
0
 10
4.97575
 20
9.45697
 30
0.0
 40
0.0104167
 41
0.0104167
  0
VERTEX
  8
0
 10
5.01872
 20
9.45697
 30
0.0
 40
0.0104167
 41
0.0104167
  0
VERTEX
  8
0
 10
5.14774
 20
9.46847
 30
0.0
 40
0.0104167
 41
0.0104167
  0
VERTEX
  8
0
 10
5.29682
 20
9.50287
 30
0.0
 40
0.0104167
 41
0.0104167
  0
VERTEX
  8
0
 10
5.42296
 20
9.56022
 30
0.0
 40
0.0104167
 41
0.0104167
  0
VERTEX
  8
0
 10
5.52621
 20
9.64046
 30
0.0
 40
0.0104167
 41
0.0104167
  0
VERTEX
  8
0
 10
5.60644
 20
9.74371
 30
0.0
 40
0.0104167
 41
0.0104167
  0
VERTEX
  8
0
 10
5.66379
 20
9.86985
 30
0.0
 40
0.0104167
 41
0.0104167
  0
VERTEX
  8
0
 10
5.69819
 20
10.0189
 30
0.0
 40
0.0104167
 41
0.0104167
  0
VERTEX
  8
0
 10
5.70969
 20
10.1479
 30
0.0
 40
0.0104167
 41
0.0104167
  0
VERTEX
  8
0
 10
5.70969
 20
10.1909
 30
0.0
 40
0.0104167
 41
0.0104167
  0
VERTEX
  8
0
 10
4.97575
 20
10.1909
 30
0.0
 40
0.0104167
 41
0.0104167
  0
VERTEX
  8
0
 10
4.97575
 20
9.45697
 30
0.0
 40
0.0104167
 41
0.0104167
  0
SEQEND
 8
0
  0
POLYLINE
  8
0
 62
     0
 66
     1
 10
0
 20
0
 30
0.0
 70
     1
 40
0
 41
0
  0
VERTEX
  8
0
 10
1.96457
 20
10.9577
 30
0.0
 40
0
 41
0
  0
VERTEX
  8
0
 10
4.97575
 20
10.9577
 30
0.0
 40
0
 41
0
  0
VERTEX
  8
0
 10
4.97575
 20
10.8431
 30
0.0
 40
0
 41
0
  0
VERTEX
  8
0
 10
1.96457
 20
10.8431
 30
0.0
 40
0
 41
0
  0
VERTEX
  8
0
 10
1.96457
 20
10.9577
 30
0.0
 40
0
 41
0
  0
SEQEND
 8
0
  0
POLYLINE
  8
0
 62
     0
 66
     1
 10
0
 20
0
 30
0.0
 70
     1
 40
0.15
 41
0.15
  0
VERTEX
  8
0
 10
1.96457
 20
10.9577
 30
0.0
 40
0.00208333
 41
0.00208333
  0
VERTEX
  8
0
 10
4.97575
 20
10.9577
 30
0.0
 40
0.00208333
 41
0.00208333
  0
VERTEX
  8
0
 10
4.97575
 20
10.8431
 30
0.0
 40
0.00208333
 41
0.00208333
  0
VERTEX
  8
0
 10
1.96457
 20
10.8431
 30
0.0
 40
0.00208333
 41
0.00208333
  0
VERTEX
  8
0
 10
1.96457
 20
10.9577
 30
0.0
 40
0.00208333
 41
0.00208333
  0
SEQEND
 8
0
  0
POLYLINE
  8
0
 62
     0
 66
     1
 10
0
 20
0
 30
0.0
 70
     1
 40
0
 41
0
  0
VERTEX
  8
0
 10
3.86019
 20
10.9577
 30
0.0
 40
0
 41
0
  0
VERTEX
  8
0
 10
3.86019
 20
8.78521
 30
0.0
 40
0
 41
0
  0
VERTEX
  8
0
 10
3.74561
 20
8.89979
 30
0.0
 40
0
 41
0
  0
VERTEX
  8
0
 10
3.74561
 20
10.9577
 30
0.0
 40
0
 41
0
  0
VERTEX
  8
0
 10
3.86019
 20
10.9577
 30
0.0
 40
0
 41
0
  0
SEQEND
 8
0
  0
POLYLINE
  8
0
 62
     0
 66
     1
 10
0
 20
0
 30
0.0
 70
     1
 40
0.15
 41
0.15
  0
VERTEX
  8
0
 10
3.86019
 20
10.9577
 30
0.0
 40
0.00208333
 41
0.00208333
  0
VERTEX
  8
0
 10
3.86019
 20
8.78521
 30
0.0
 40
0.00208333
 41
0.00208333
  0
VERTEX
  8
0
 10
3.74561
 20
8.89979
 30
0.0
 40
0.00208333
 41
0.00208333
  0
VERTEX
  8
0
 10
3.74561
 20
10.9577
 30
0.0
 40
0.00208333
 41
0.00208333
  0
VERTEX
  8
0
 10
3.86019
 20
10.9577
 30
0.0
 40
0.00208333
 41
0.00208333
  0
SEQEND
 8
0
  0
POLYLINE
  8
0
 62
     0
 66
     1
 10
0
 20
0
 30
0.0
 70
     1
 40
0
 41
0
  0
VERTEX
  8
0
 10
3.74561
 20
8.89979
 30
0.0
 40
0
 41
0
  0
VERTEX
  8
0
 10
4.97575
 20
8.89979
 30
0.0
 40
0
 41
0
  0
VERTEX
  8
0
 10
4.97575
 20
8.78521
 30
0.0
 40
0
 41
0
  0
VERTEX
  8
0
 10
3.74561
 20
8.78521
 30
0.0
 40
0
 41
0
  0
VERTEX
  8
0
 10
3.74561
 20
8.89979
 30
0.0
 40
0
 41
0
  0
SEQEND
 8
0
  0
POLYLINE
  8
0
 62
     0
 66
     1
 10
0
 20
0
 30
0.0
 70
     1
 40
0.15
 41
0.15
  0
VERTEX
  8
0
 10
3.74561
 20
8.89979
 30
0.0
 40
0.00208333
 41
0.00208333
  0
VERTEX
  8
0
 10
4.97575
 20
8.89979
 30
0.0
 40
0.00208333
 41
0.00208333
  0
VERTEX
  8
0
 10
4.97575
 20
8.78521
 30
0.0
 40
0.00208333
 41
0.00208333
  0
VERTEX
  8
0
 10
3.74561
 20
8.78521
 30
0.0
 40
0.00208333
 41
0.00208333
  0
VERTEX
  8
0
 10
3.74561
 20
8.89979
 30
0.0
 40
0.00208333
 41
0.00208333
  0
SEQEND
 8
0
  0
POLYLINE
  8
0
 62
     0
 66
     1
 10
0
 20
0
 30
0.0
 70
     1
 40
0
 41
0
  0
VERTEX
  8
0
 10
3.74561
 20
8.89979
 30
0.0
 40
0
 41
0
  0
VERTEX
  8
0
 10
1.96457
 20
8.89979
 30
0.0
 40
0
 41
0
  0
VERTEX
  8
0
 10
1.96457
 20
8.78521
 30
0.0
 40
0
 41
0
  0
VERTEX
  8
0
 10
3.86019
 20
8.78521
 30
0.0
 40
0
 41
0
  0
VERTEX
  8
0
 10
3.74561
 20
8.89979
 30
0.0
 40
0
 41
0
  0
SEQEND
 8
0
  0
POLYLINE
  8
0
 62
     0
 66
     1
 10
0
 20
0
 30
0.0
 70
     1
 40
0.15
 41
0.15
  0
VERTEX
  8
0
 10
3.74561
 20
8.89979
 30
0.0
 40
0.00208333
 41
0.00208333
  0
VERTEX
  8
0
 10
1.96457
 20
8.89979
 30
0.0
 40
0.00208333
 41
0.00208333
  0
VERTEX
  8
0
 10
1.96457
 20
8.78521
 30
0.0
 40
0.00208333
 41
0.00208333
  0
VERTEX
  8
0
 10
3.86019
 20
8.78521
 30
0.0
 40
0.00208333
 41
0.00208333
  0
VERTEX
  8
0
 10
3.74561
 20
8.89979
 30
0.0
 40
0.00208333
 41
0.00208333
  0
SEQEND
 8
0
  0
POLYLINE
  8
0
 62
     7
 66
     1
 10
0
 20
0
 30
0.0
 70
     1
 40
0
 41
0
  0
VERTEX
  8
0
 10
3.02094
 20
8.89979
 30
0.0
 40
0
 41
0
  0
VERTEX
  8
0
 10
3.72011
 20
8.89979
 30
0.0
 40
0
 41
0
  0
VERTEX
  8
0
 10
3.72011
 20
8.78521
 30
0.0
 40
0
 41
0
  0
VERTEX
  8
0
 10
3.02094
 20
8.78521
 30
0.0
 40
0
 41
0
  0
VERTEX
  8
0
 10
3.02094
 20
8.89979
 30
0.0
 40
0
 41
0
  0
SEQEND
 8
0
  0
POLYLINE
  8
0
 62
     0
 66
     1
 10
0
 20
0
 30
0.0
 70
     1
 40
0.75
 41
0.75
  0
VERTEX
  8
0
 10
3.02094
 20
8.89979
 30
0.0
 40
0.0104167
 41
0.0104167
  0
VERTEX
  8
0
 10
3.72011
 20
8.89979
 30
0.0
 40
0.0104167
 41
0.0104167
  0
VERTEX
  8
0
 10
3.72011
 20
8.78521
 30
0.0
 40
0.0104167
 41
0.0104167
  0
VERTEX
  8
0
 10
3.02094
 20
8.78521
 30
0.0
 40
0.0104167
 41
0.0104167
  0
VERTEX
  8
0
 10
3.02094
 20
8.89979
 30
0.0
 40
0.0104167
 41
0.0104167
  0
SEQEND
 8
0
  0
POLYLINE
  8
0
 62
     7
 66
     1
 10
0
 20
0
 30
0.0
 70
     1
 40
0
 41
0
  0
VERTEX
  8
0
 10
3.02094
 20
8.89979
 30
0.0
 40
0
 41
0
  0
VERTEX
  8
0
 10
3.72011
 20
8.89979
 30
0.0
 40
0
 41
0
  0
VERTEX
  8
0
 10
3.72011
 20
8.78521
 30
0.0
 40
0
 41
0
  0
VERTEX
  8
0
 10
3.02094
 20
8.78521
 30
0.0
 40
0
 41
0
  0
VERTEX
  8
0
 10
3.02094
 20
8.89979
 30
0.0
 40
0
 41
0
  0
SEQEND
 8
0
  0
POLYLINE
  8
0
 62
     0
 66
     1
 10
0
 20
0
 30
0.0
 70
     1
 40
0.75
 41
0.75
  0
VERTEX
  8
0
 10
3.02094
 20
8.89979
 30
0.0
 40
0.0104167
 41
0.0104167
  0
VERTEX
  8
0
 10
3.72011
 20
8.89979
 30
0.0
 40
0.0104167
 41
0.0104167
  0
VERTEX
  8
0
 10
3.72011
 20
8.78521
 30
0.0
 40
0.0104167
 41
0.0104167
  0
VERTEX
  8
0
 10
3.02094
 20
8.78521
 30
0.0
 40
0.0104167
 41
0.0104167
  0
VERTEX
  8
0
 10
3.02094
 20
8.89979
 30
0.0
 40
0.0104167
 41
0.0104167
  0
SEQEND
 8
0
  0
POLYLINE
  8
0
 62
     0
 66
     1
 10
0
 20
0
 30
0.0
 70
     1
 40
0.75
 41
0.75
  0
VERTEX
  8
0
 10
3.72011
 20
8.78521
 30
0.0
 40
0.0104167
 41
0.0104167
  0
VERTEX
  8
0
 10
3.72011
 20
8.74425
 30
0.0
 40
0.0104167
 41
0.0104167
  0
VERTEX
  8
0
 10
3.70915
 20
8.62136
 30
0.0
 40
0.0104167
 41
0.0104167
  0
VERTEX
  8
0
 10
3.67638
 20
8.47939
 30
0.0
 40
0.0104167
 41
0.0104167
  0
VERTEX
  8
0
 10
3.62175
 20
8.35921
 30
0.0
 40
0.0104167
 41
0.0104167
  0
VERTEX
  8
0
 10
3.54531
 20
8.26085
 30
0.0
 40
0.0104167
 41
0.0104167
  0
VERTEX
  8
0
 10
3.44694
 20
8.1844
 30
0.0
 40
0.0104167
 41
0.0104167
  0
VERTEX
  8
0
 10
3.32676
 20
8.12978
 30
0.0
 40
0.0104167
 41
0.0104167
  0
VERTEX
  8
0
 10
3.18479
 20
8.097
 30
0.0
 40
0.0104167
 41
0.0104167
  0
VERTEX
  8
0
 10
3.0619
 20
8.08604
 30
0.0
 40
0.0104167
 41
0.0104167
  0
VERTEX
  8
0
 10
3.02094
 20
8.08604
 30
0.0
 40
0.0104167
 41
0.0104167
  0
VERTEX
  8
0
 10
3.02094
 20
8.78521
 30
0.0
 40
0.0104167
 41
0.0104167
  0
VERTEX
  8
0
 10
3.72011
 20
8.78521
 30
0.0
 40
0.0104167
 41
0.0104167
  0
SEQEND
 8
0
  0
POLYLINE
  8
0
 62
     0
 66
     1
 10
0
 20
0
 30
0.0
 70
     1
 40
0
 41
0
  0
VERTEX
  8
0
 10
10.3132
 20
12.1363
 30
0.0
 40
0
 41
0
  0
VERTEX
  8
0
 10
6.31771
 20
12.1363
 30
0.0
 40
0
 41
0
  0
VERTEX
  8
0
 10
6.43229
 20
12.0217
 30
0.0
 40
0
 41
0
  0
VERTEX
  8
0
 10
10.3132
 20
12.0217
 30
0.0
 40
0
 41
0
  0
VERTEX
  8
0
 10
10.3132
 20
12.1363
 30
0.0
 40
0
 41
0
  0
SEQEND
 8
0
  0
POLYLINE
  8
0
 62
     0
 66
     1
 10
0
 20
0
 30
0.0
 70
     1
 40
0.15
 41
0.15
  0
VERTEX
  8
0
 10
10.3132
 20
12.1363
 30
0.0
 40
0.00208333
 41
0.00208333
  0
VERTEX
  8
0
 10
6.31771
 20
12.1363
 30
0.0
 40
0.00208333
 41
0.00208333
  0
VERTEX
  8
0
 10
6.43229
 20
12.0217
 30
0.0
 40
0.00208333
 41
0.00208333
  0
VERTEX
  8
0
 10
10.3132
 20
12.0217
 30
0.0
 40
0.00208333
 41
0.00208333
  0
VERTEX
  8
0
 10
10.3132
 20
12.1363
 30
0.0
 40
0.00208333
 41
0.00208333
  0
SEQEND
 8
0
  0
POLYLINE
  8
0
 62
     0
 66
     1
 10
0
 20
0
 30
0.0
 70
     1
 40
0
 41
0
  0
VERTEX
  8
0
 10
6.31771
 20
12.1363
 30
0.0
 40
0
 41
0
  0
VERTEX
  8
0
 10
6.31771
 20
8.78521
 30
0.0
 40
0
 41
0
  0
VERTEX
  8
0
 10
6.43229
 20
8.89979
 30
0.0
 40
0
 41
0
  0
VERTEX
  8
0
 10
6.43229
 20
12.0217
 30
0.0
 40
0
 41
0
  0
VERTEX
  8
0
 10
6.31771
 20
12.1363
 30
0.0
 40
0
 41
0
  0
SEQEND
 8
0
  0
POLYLINE
  8
0
 62
     0
 66
     1
 10
0
 20
0
 30
0.0
 70
     1
 40
0.15
 41
0.15
  0
VERTEX
  8
0
 10
6.31771
 20
12.1363
 30
0.0
 40
0.00208333
 41
0.00208333
  0
VERTEX
  8
0
 10
6.31771
 20
8.78521
 30
0.0
 40
0.00208333
 41
0.00208333
  0
VERTEX
  8
0
 10
6.43229
 20
8.89979
 30
0.0
 40
0.00208333
 41
0.00208333
  0
VERTEX
  8
0
 10
6.43229
 20
12.0217
 30
0.0
 40
0.00208333
 41
0.00208333
  0
VERTEX
  8
0
 10
6.31771
 20
12.1363
 30
0.0
 40
0.00208333
 41
0.00208333
  0
SEQEND
 8
0
  0
POLYLINE
  8
0
 62
     7
 66
     1
 10
0
 20
0
 30
0.0
 70
     1
 40
0
 41
0
  0
VERTEX
  8
0
 10
6.31771
 20
10.3317
 30
0.0
 40
0
 41
0
  0
VERTEX
  8
0
 10
6.43229
 20
10.3317
 30
0.0
 40
0
 41
0
  0
VERTEX
  8
0
 10
6.43229
 20
9.62261
 30
0.0
 40
0
 41
0
  0
VERTEX
  8
0
 10
6.31771
 20
9.62261
 30
0.0
 40
0
 41
0
  0
VERTEX
  8
0
 10
6.31771
 20
10.3317
 30
0.0
 40
0
 41
0
  0
SEQEND
 8
0
  0
POLYLINE
  8
0
 62
     0
 66
     1
 10
0
 20
0
 30
0.0
 70
     1
 40
0.75
 41
0.75
  0
VERTEX
  8
0
 10
6.31771
 20
10.3317
 30
0.0
 40
0.0104167
 41
0.0104167
  0
VERTEX
  8
0
 10
6.43229
 20
10.3317
 30
0.0
 40
0.0104167
 41
0.0104167
  0
VERTEX
  8
0
 10
6.43229
 20
9.62261
 30
0.0
 40
0.0104167
 41
0.0104167
  0
VERTEX
  8
0
 10
6.31771
 20
9.62261
 30
0.0
 40
0.0104167
 41
0.0104167
  0
VERTEX
  8
0
 10
6.31771
 20
10.3317
 30
0.0
 40
0.0104167
 41
0.0104167
  0
SEQEND
 8
0
  0
POLYLINE
  8
0
 62
     7
 66
     1
 10
0
 20
0
 30
0.0
 70
     1
 40
0
 41
0
  0
VERTEX
  8
0
 10
6.31771
 20
10.3317
 30
0.0
 40
0
 41
0
  0
VERTEX
  8
0
 10
6.43229
 20
10.3317
 30
0.0
 40
0
 41
0
  0
VERTEX
  8
0
 10
6.43229
 20
9.62261
 30
0.0
 40
0
 41
0
  0
VERTEX
  8
0
 10
6.31771
 20
9.62261
 30
0.0
 40
0
 41
0
  0
VERTEX
  8
0
 10
6.31771
 20
10.3317
 30
0.0
 40
0
 41
0
  0
SEQEND
 8
0
  0
POLYLINE
  8
0
 62
     0
 66
     1
 10
0
 20
0
 30
0.0
 70
     1
 40
0.75
 41
0.75
  0
VERTEX
  8
0
 10
6.31771
 20
10.3317
 30
0.0
 40
0.0104167
 41
0.0104167
  0
VERTEX
  8
0
 10
6.43229
 20
10.3317
 30
0.0
 40
0.0104167
 41
0.0104167
  0
VERTEX
  8
0
 10
6.43229
 20
9.62261
 30
0.0
 40
0.0104167
 41
0.0104167
  0
VERTEX
  8
0
 10
6.31771
 20
9.62261
 30
0.0
 40
0.0104167
 41
0.0104167
  0
VERTEX
  8
0
 10
6.31771
 20
10.3317
 30
0.0
 40
0.0104167
 41
0.0104167
  0
SEQEND
 8
0
  0
POLYLINE
  8
0
 62
     0
 66
     1
 10
0
 20
0
 30
0.0
 70
     1
 40
0.75
 41
0.75
  0
VERTEX
  8
0
 10
6.31771
 20
9.62261
 30
0.0
 40
0.0104167
 41
0.0104167
  0
VERTEX
  8
0
 10
6.27615
 20
9.62261
 30
0.0
 40
0.0104167
 41
0.0104167
  0
VERTEX
  8
0
 10
6.15147
 20
9.63374
 30
0.0
 40
0.0104167
 41
0.0104167
  0
VERTEX
  8
0
 10
6.00749
 20
9.66694
 30
0.0
 40
0.0104167
 41
0.0104167
  0
VERTEX
  8
0
 10
5.88558
 20
9.72233
 30
0.0
 40
0.0104167
 41
0.0104167
  0
VERTEX
  8
0
 10
5.78592
 20
9.79992
 30
0.0
 40
0.0104167
 41
0.0104167
  0
VERTEX
  8
0
 10
5.70833
 20
9.89958
 30
0.0
 40
0.0104167
 41
0.0104167
  0
VERTEX
  8
0
 10
5.65294
 20
10.0215
 30
0.0
 40
0.0104167
 41
0.0104167
  0
VERTEX
  8
0
 10
5.61974
 20
10.1655
 30
0.0
 40
0.0104167
 41
0.0104167
  0
VERTEX
  8
0
 10
5.60867
 20
10.2902
 30
0.0
 40
0.0104167
 41
0.0104167
  0
VERTEX
  8
0
 10
5.60867
 20
10.3317
 30
0.0
 40
0.0104167
 41
0.0104167
  0
VERTEX
  8
0
 10
6.31771
 20
10.3317
 30
0.0
 40
0.0104167
 41
0.0104167
  0
VERTEX
  8
0
 10
6.31771
 20
9.62261
 30
0.0
 40
0.0104167
 41
0.0104167
  0
SEQEND
 8
0
  0
POLYLINE
  8
0
 62
     0
 66
     1
 10
0
 20
0
 30
0.0
 70
     1
 40
0
 41
0
  0
VERTEX
  8
0
 10
6.31771
 20
8.78521
 30
0.0
 40
0
 41
0
  0
VERTEX
  8
0
 10
10.3132
 20
8.78521
 30
0.0
 40
0
 41
0
  0
VERTEX
  8
0
 10
10.3132
 20
8.89979
 30
0.0
 40
0
 41
0
  0
VERTEX
  8
0
 10
6.43229
 20
8.89979
 30
0.0
 40
0
 41
0
  0
VERTEX
  8
0
 10
6.31771
 20
8.78521
 30
0.0
 40
0
 41
0
  0
SEQEND
 8
0
  0
POLYLINE
  8
0
 62
     0
 66
     1
 10
0
 20
0
 30
0.0
 70
     1
 40
0.15
 41
0.15
  0
VERTEX
  8
0
 10
6.31771
 20
8.78521
 30
0.0
 40
0.00208333
 41
0.00208333
  0
VERTEX
  8
0
 10
10.3132
 20
8.78521
 30
0.0
 40
0.00208333
 41
0.00208333
  0
VERTEX
  8
0
 10
10.3132
 20
8.89979
 30
0.0
 40
0.00208333
 41
0.00208333
  0
VERTEX
  8
0
 10
6.43229
 20
8.89979
 30
0.0
 40
0.00208333
 41
0.00208333
  0
VERTEX
  8
0
 10
6.31771
 20
8.78521
 30
0.0
 40
0.00208333
 41
0.00208333
  0
SEQEND
 8
0
  0
POLYLINE
  8
0
 62
     7
 66
     1
 10
0
 20
0
 30
0.0
 70
     1
 40
0
 41
0
  0
VERTEX
  8
0
 10
8.38124
 20
8.89979
 30
0.0
 40
0
 41
0
  0
VERTEX
  8
0
 10
9.09532
 20
8.89979
 30
0.0
 40
0
 41
0
  0
VERTEX
  8
0
 10
9.09532
 20
8.78521
 30
0.0
 40
0
 41
0
  0
VERTEX
  8
0
 10
8.38124
 20
8.78521
 30
0.0
 40
0
 41
0
  0
VERTEX
  8
0
 10
8.38124
 20
8.89979
 30
0.0
 40
0
 41
0
  0
SEQEND
 8
0
  0
POLYLINE
  8
0
 62
     0
 66
     1
 10
0
 20
0
 30
0.0
 70
     1
 40
0.75
 41
0.75
  0
VERTEX
  8
0
 10
8.38124
 20
8.89979
 30
0.0
 40
0.0104167
 41
0.0104167
  0
VERTEX
  8
0
 10
9.09532
 20
8.89979
 30
0.0
 40
0.0104167
 41
0.0104167
  0
VERTEX
  8
0
 10
9.09532
 20
8.78521
 30
0.0
 40
0.0104167
 41
0.0104167
  0
VERTEX
  8
0
 10
8.38124
 20
8.78521
 30
0.0
 40
0.0104167
 41
0.0104167
  0
VERTEX
  8
0
 10
8.38124
 20
8.89979
 30
0.0
 40
0.0104167
 41
0.0104167
  0
SEQEND
 8
0
  0
POLYLINE
  8
0
 62
     7
 66
     1
 10
0
 20
0
 30
0.0
 70
     1
 40
0
 41
0
  0
VERTEX
  8
0
 10
8.38124
 20
8.89979
 30
0.0
 40
0
 41
0
  0
VERTEX
  8
0
 10
9.09532
 20
8.89979
 30
0.0
 40
0
 41
0
  0
VERTEX
  8
0
 10
9.09532
 20
8.78521
 30
0.0
 40
0
 41
0
  0
VERTEX
  8
0
 10
8.38124
 20
8.78521
 30
0.0
 40
0
 41
0
  0
VERTEX
  8
0
 10
8.38124
 20
8.89979
 30
0.0
 40
0
 41
0
  0
SEQEND
 8
0
  0
POLYLINE
  8
0
 62
     0
 66
     1
 10
0
 20
0
 30
0.0
 70
     1
 40
0.75
 41
0.75
  0
VERTEX
  8
0
 10
8.38124
 20
8.89979
 30
0.0
 40
0.0104167
 41
0.0104167
  0
VERTEX
  8
0
 10
9.09532
 20
8.89979
 30
0.0
 40
0.0104167
 41
0.0104167
  0
VERTEX
  8
0
 10
9.09532
 20
8.78521
 30
0.0
 40
0.0104167
 41
0.0104167
  0
VERTEX
  8
0
 10
8.38124
 20
8.78521
 30
0.0
 40
0.0104167
 41
0.0104167
  0
VERTEX
  8
0
 10
8.38124
 20
8.89979
 30
0.0
 40
0.0104167
 41
0.0104167
  0
SEQEND
 8
0
  0
POLYLINE
  8
0
 62
     0
 66
     1
 10
0
 20
0
 30
0.0
 70
     1
 40
0.75
 41
0.75
  0
VERTEX
  8
0
 10
8.38124
 20
8.78521
 30
0.0
 40
0.0104167
 41
0.0104167
  0
VERTEX
  8
0
 10
8.38124
 20
8.74338
 30
0.0
 40
0.0104167
 41
0.0104167
  0
VERTEX
  8
0
 10
8.39236
 20
8.61789
 30
0.0
 40
0.0104167
 41
0.0104167
  0
VERTEX
  8
0
 10
8.42583
 20
8.47282
 30
0.0
 40
0.0104167
 41
0.0104167
  0
VERTEX
  8
0
 10
8.48161
 20
8.3501
 30
0.0
 40
0.0104167
 41
0.0104167
  0
VERTEX
  8
0
 10
8.55974
 20
8.24968
 30
0.0
 40
0.0104167
 41
0.0104167
  0
VERTEX
  8
0
 10
8.66015
 20
8.1716
 30
0.0
 40
0.0104167
 41
0.0104167
  0
VERTEX
  8
0
 10
8.78288
 20
8.11578
 30
0.0
 40
0.0104167
 41
0.0104167
  0
VERTEX
  8
0
 10
8.92796
 20
8.08231
 30
0.0
 40
0.0104167
 41
0.0104167
  0
VERTEX
  8
0
 10
9.05344
 20
8.07112
 30
0.0
 40
0.0104167
 41
0.0104167
  0
VERTEX
  8
0
 10
9.09532
 20
8.07112
 30
0.0
 40
0.0104167
 41
0.0104167
  0
VERTEX
  8
0
 10
9.09532
 20
8.78521
 30
0.0
 40
0.0104167
 41
0.0104167
  0
VERTEX
  8
0
 10
8.38124
 20
8.78521
 30
0.0
 40
0.0104167
 41
0.0104167
  0
SEQEND
 8
0
  0
POLYLINE
  8
0
 62
     0
 66
     1
 10
0
 20
0
 30
0.0
 70
     1
 40
0
 41
0
  0
VERTEX
  8
0
 10
8.22564
 20
12.1363
 30
0.0
 40
0
 41
0
  0
VERTEX
  8
0
 10
8.34022
 20
12.1363
 30
0.0
 40
0
 41
0
  0
VERTEX
  8
0
 10
8.34022
 20
8.78521
 30
0.0
 40
0
 41
0
  0
VERTEX
  8
0
 10
8.22564
 20
8.78521
 30
0.0
 40
0
 41
0
  0
VERTEX
  8
0
 10
8.22564
 20
12.1363
 30
0.0
 40
0
 41
0
  0
SEQEND
 8
0
  0
POLYLINE
  8
0
 62
     0
 66
     1
 10
0
 20
0
 30
0.0
 70
     1
 40
0.15
 41
0.15
  0
VERTEX
  8
0
 10
8.22564
 20
12.1363
 30
0.0
 40
0.00208333
 41
0.00208333
  0
VERTEX
  8
0
 10
8.34022
 20
12.1363
 30
0.0
 40
0.00208333
 41
0.00208333
  0
VERTEX
  8
0
 10
8.34022
 20
8.78521
 30
0.0
 40
0.00208333
 41
0.00208333
  0
VERTEX
  8
0
 10
8.22564
 20
8.78521
 30
0.0
 40
0.00208333
 41
0.00208333
  0
VERTEX
  8
0
 10
8.22564
 20
12.1363
 30
0.0
 40
0.00208333
 41
0.00208333
  0
SEQEND
 8
0
  0
POLYLINE
  8
0
 62
     7
 66
     1
 10
0
 20
0
 30
0.0
 70
     1
 40
0
 41
0
  0
VERTEX
  8
0
 10
8.22564
 20
10.7386
 30
0.0
 40
0
 41
0
  0
VERTEX
  8
0
 10
8.34022
 20
10.7386
 30
0.0
 40
0
 41
0
  0
VERTEX
  8
0
 10
8.34022
 20
10.0602
 30
0.0
 40
0
 41
0
  0
VERTEX
  8
0
 10
8.22564
 20
10.0602
 30
0.0
 40
0
 41
0
  0
VERTEX
  8
0
 10
8.22564
 20
10.7386
 30
0.0
 40
0
 41
0
  0
SEQEND
 8
0
  0
POLYLINE
  8
0
 62
     0
 66
     1
 10
0
 20
0
 30
0.0
 70
     1
 40
0.75
 41
0.75
  0
VERTEX
  8
0
 10
8.22564
 20
10.7386
 30
0.0
 40
0.0104167
 41
0.0104167
  0
VERTEX
  8
0
 10
8.34022
 20
10.7386
 30
0.0
 40
0.0104167
 41
0.0104167
  0
VERTEX
  8
0
 10
8.34022
 20
10.0602
 30
0.0
 40
0.0104167
 41
0.0104167
  0
VERTEX
  8
0
 10
8.22564
 20
10.0602
 30
0.0
 40
0.0104167
 41
0.0104167
  0
VERTEX
  8
0
 10
8.22564
 20
10.7386
 30
0.0
 40
0.0104167
 41
0.0104167
  0
SEQEND
 8
0
  0
POLYLINE
  8
0
 62
     7
 66
     1
 10
0
 20
0
 30
0.0
 70
     1
 40
0
 41
0
  0
VERTEX
  8
0
 10
8.22564
 20
10.7386
 30
0.0
 40
0
 41
0
  0
VERTEX
  8
0
 10
8.34022
 20
10.7386
 30
0.0
 40
0
 41
0
  0
VERTEX
  8
0
 10
8.34022
 20
10.0602
 30
0.0
 40
0
 41
0
  0
VERTEX
  8
0
 10
8.22564
 20
10.0602
 30
0.0
 40
0
 41
0
  0
VERTEX
  8
0
 10
8.22564
 20
10.7386
 30
0.0
 40
0
 41
0
  0
SEQEND
 8
0
  0
POLYLINE
  8
0
 62
     0
 66
     1
 10
0
 20
0
 30
0.0
 70
     1
 40
0.75
 41
0.75
  0
VERTEX
  8
0
 10
8.22564
 20
10.7386
 30
0.0
 40
0.0104167
 41
0.0104167
  0
VERTEX
  8
0
 10
8.34022
 20
10.7386
 30
0.0
 40
0.0104167
 41
0.0104167
  0
VERTEX
  8
0
 10
8.34022
 20
10.0602
 30
0.0
 40
0.0104167
 41
0.0104167
  0
VERTEX
  8
0
 10
8.22564
 20
10.0602
 30
0.0
 40
0.0104167
 41
0.0104167
  0
VERTEX
  8
0
 10
8.22564
 20
10.7386
 30
0.0
 40
0.0104167
 41
0.0104167
  0
SEQEND
 8
0
  0
POLYLINE
  8
0
 62
     0
 66
     1
 10
0
 20
0
 30
0.0
 70
     1
 40
0.75
 41
0.75
  0
VERTEX
  8
0
 10
8.22564
 20
10.0602
 30
0.0
 40
0.0104167
 41
0.0104167
  0
VERTEX
  8
0
 10
8.18587
 20
10.0602
 30
0.0
 40
0.0104167
 41
0.0104167
  0
VERTEX
  8
0
 10
8.06663
 20
10.0709
 30
0.0
 40
0.0104167
 41
0.0104167
  0
VERTEX
  8
0
 10
7.92882
 20
10.1027
 30
0.0
 40
0.0104167
 41
0.0104167
  0
VERTEX
  8
0
 10
7.81222
 20
10.1557
 30
0.0
 40
0.0104167
 41
0.0104167
  0
VERTEX
  8
0
 10
7.71685
 20
10.2298
 30
0.0
 40
0.0104167
 41
0.0104167
  0
VERTEX
  8
0
 10
7.64268
 20
10.3252
 30
0.0
 40
0.0104167
 41
0.0104167
  0
VERTEX
  8
0
 10
7.58968
 20
10.4418
 30
0.0
 40
0.0104167
 41
0.0104167
  0
VERTEX
  8
0
 10
7.55789
 20
10.5796
 30
0.0
 40
0.0104167
 41
0.0104167
  0
VERTEX
  8
0
 10
7.54731
 20
10.6988
 30
0.0
 40
0.0104167
 41
0.0104167
  0
VERTEX
  8
0
 10
7.54731
 20
10.7386
 30
0.0
 40
0.0104167
 41
0.0104167
  0
VERTEX
  8
0
 10
8.22564
 20
10.7386
 30
0.0
 40
0.0104167
 41
0.0104167
  0
VERTEX
  8
0
 10
8.22564
 20
10.0602
 30
0.0
 40
0.0104167
 41
0.0104167
  0
SEQEND
 8
0
  0
POLYLINE
  8
0
 62
     0
 66
     1
 10
0
 20
0
 30
0.0
 70
     1
 40
0
 41
0
  0
VERTEX
  8
0
 10
8.22564
 20
9.98708
 30
0.0
 40
0
 41
0
  0
VERTEX
  8
0
 10
10.3132
 20
9.98708
 30
0.0
 40
0
 41
0
  0
VERTEX
  8
0
 10
10.3132
 20
9.8725
 30
0.0
 40
0
 41
0
  0
VERTEX
  8
0
 10
8.22564
 20
9.8725
 30
0.0
 40
0
 41
0
  0
VERTEX
  8
0
 10
8.22564
 20
9.98708
 30
0.0
 40
0
 41
0
  0
SEQEND
 8
0
  0
POLYLINE
  8
0
 62
     0
 66
     1
 10
0
 20
0
 30
0.0
 70
     1
 40
0.15
 41
0.15
  0
VERTEX
  8
0
 10
8.22564
 20
9.98708
 30
0.0
 40
0.00208333
 41
0.00208333
  0
VERTEX
  8
0
 10
10.3132
 20
9.98708
 30
0.0
 40
0.00208333
 41
0.00208333
  0
VERTEX
  8
0
 10
10.3132
 20
9.8725
 30
0.0
 40
0.00208333
 41
0.00208333
  0
VERTEX
  8
0
 10
8.22564
 20
9.8725
 30
0.0
 40
0.00208333
 41
0.00208333
  0
VERTEX
  8
0
 10
8.22564
 20
9.98708
 30
0.0
 40
0.00208333
 41
0.00208333
  0
SEQEND
 8
0
  0
POLYLINE
  8
0
 62
     0
 66
     1
 10
0
 20
0
 30
0.0
 70
     1
 40
0
 41
0
  0
VERTEX
  8
0
 10
6.88249
 20
8.89979
 30
0.0
 40
0
 41
0
  0
VERTEX
  8
0
 10
6.88249
 20
6.40218
 30
0.0
 40
0
 41
0
  0
VERTEX
  8
0
 10
6.7679
 20
6.51676
 30
0.0
 40
0
 41
0
  0
VERTEX
  8
0
 10
6.7679
 20
8.89979
 30
0.0
 40
0
 41
0
  0
VERTEX
  8
0
 10
6.88249
 20
8.89979
 30
0.0
 40
0
 41
0
  0
SEQEND
 8
0
  0
POLYLINE
  8
0
 62
     0
 66
     1
 10
0
 20
0
 30
0.0
 70
     1
 40
0.15
 41
0.15
  0
VERTEX
  8
0
 10
6.88249
 20
8.89979
 30
0.0
 40
0.00208333
 41
0.00208333
  0
VERTEX
  8
0
 10
6.88249
 20
6.40218
 30
0.0
 40
0.00208333
 41
0.00208333
  0
VERTEX
  8
0
 10
6.7679
 20
6.51676
 30
0.0
 40
0.00208333
 41
0.00208333
  0
VERTEX
  8
0
 10
6.7679
 20
8.89979
 30
0.0
 40
0.00208333
 41
0.00208333
  0
VERTEX
  8
0
 10
6.88249
 20
8.89979
 30
0.0
 40
0.00208333
 41
0.00208333
  0
SEQEND
 8
0
  0
POLYLINE
  8
0
 62
     7
 66
     1
 10
0
 20
0
 30
0.0
 70
     1
 40
0
 41
0
  0
VERTEX
  8
0
 10
6.7679
 20
8.69835
 30
0.0
 40
0
 41
0
  0
VERTEX
  8
0
 10
6.88249
 20
8.69835
 30
0.0
 40
0
 41
0
  0
VERTEX
  8
0
 10
6.88249
 20
7.79585
 30
0.0
 40
0
 41
0
  0
VERTEX
  8
0
 10
6.7679
 20
7.79585
 30
0.0
 40
0
 41
0
  0
VERTEX
  8
0
 10
6.7679
 20
8.69835
 30
0.0
 40
0
 41
0
  0
SEQEND
 8
0
  0
POLYLINE
  8
0
 62
     0
 66
     1
 10
0
 20
0
 30
0.0
 70
     1
 40
0.75
 41
0.75
  0
VERTEX
  8
0
 10
6.7679
 20
8.69835
 30
0.0
 40
0.0104167
 41
0.0104167
  0
VERTEX
  8
0
 10
6.88249
 20
8.69835
 30
0.0
 40
0.0104167
 41
0.0104167
  0
VERTEX
  8
0
 10
6.88249
 20
7.79585
 30
0.0
 40
0.0104167
 41
0.0104167
  0
VERTEX
  8
0
 10
6.7679
 20
7.79585
 30
0.0
 40
0.0104167
 41
0.0104167
  0
VERTEX
  8
0
 10
6.7679
 20
8.69835
 30
0.0
 40
0.0104167
 41
0.0104167
  0
SEQEND
 8
0
  0
POLYLINE
  8
0
 62
     7
 66
     1
 10
0
 20
0
 30
0.0
 70
     1
 40
0
 41
0
  0
VERTEX
  8
0
 10
6.7679
 20
8.69835
 30
0.0
 40
0
 41
0
  0
VERTEX
  8
0
 10
6.88249
 20
8.69835
 30
0.0
 40
0
 41
0
  0
VERTEX
  8
0
 10
6.88249
 20
7.79585
 30
0.0
 40
0
 41
0
  0
VERTEX
  8
0
 10
6.7679
 20
7.79585
 30
0.0
 40
0
 41
0
  0
VERTEX
  8
0
 10
6.7679
 20
8.69835
 30
0.0
 40
0
 41
0
  0
SEQEND
 8
0
  0
POLYLINE
  8
0
 62
     0
 66
     1
 10
0
 20
0
 30
0.0
 70
     1
 40
0.75
 41
0.75
  0
VERTEX
  8
0
 10
6.7679
 20
8.69835
 30
0.0
 40
0.0104167
 41
0.0104167
  0
VERTEX
  8
0
 10
6.88249
 20
8.69835
 30
0.0
 40
0.0104167
 41
0.0104167
  0
VERTEX
  8
0
 10
6.88249
 20
7.79585
 30
0.0
 40
0.0104167
 41
0.0104167
  0
VERTEX
  8
0
 10
6.7679
 20
7.79585
 30
0.0
 40
0.0104167
 41
0.0104167
  0
VERTEX
  8
0
 10
6.7679
 20
8.69835
 30
0.0
 40
0.0104167
 41
0.0104167
  0
SEQEND
 8
0
  0
POLYLINE
  8
0
 62
     0
 66
     1
 10
0
 20
0
 30
0.0
 70
     1
 40
0.75
 41
0.75
  0
VERTEX
  8
0
 10
6.88249
 20
7.79585
 30
0.0
 40
0.0104167
 41
0.0104167
  0
VERTEX
  8
0
 10
6.93533
 20
7.79585
 30
0.0
 40
0.0104167
 41
0.0104167
  0
VERTEX
  8
0
 10
7.09397
 20
7.80994
 30
0.0
 40
0.0104167
 41
0.0104167
  0
VERTEX
  8
0
 10
7.27729
 20
7.85226
 30
0.0
 40
0.0104167
 41
0.0104167
  0
VERTEX
  8
0
 10
7.4324
 20
7.92279
 30
0.0
 40
0.0104167
 41
0.0104167
  0
VERTEX
  8
0
 10
7.55935
 20
8.02149
 30
0.0
 40
0.0104167
 41
0.0104167
  0
VERTEX
  8
0
 10
7.65804
 20
8.14844
 30
0.0
 40
0.0104167
 41
0.0104167
  0
VERTEX
  8
0
 10
7.72857
 20
8.30354
 30
0.0
 40
0.0104167
 41
0.0104167
  0
VERTEX
  8
0
 10
7.77089
 20
8.48687
 30
0.0
 40
0.0104167
 41
0.0104167
  0
VERTEX
  8
0
 10
7.785
 20
8.64551
 30
0.0
 40
0.0104167
 41
0.0104167
  0
VERTEX
  8
0
 10
7.785
 20
8.69835
 30
0.0
 40
0.0104167
 41
0.0104167
  0
VERTEX
  8
0
 10
6.88249
 20
8.69835
 30
0.0
 40
0.0104167
 41
0.0104167
  0
VERTEX
  8
0
 10
6.88249
 20
7.79585
 30
0.0
 40
0.0104167
 41
0.0104167
  0
SEQEND
 8
0
  0
POLYLINE
  8
0
 62
     0
 66
     1
 10
0
 20
0
 30
0.0
 70
     1
 40
0
 41
0
  0
VERTEX
  8
0
 10
6.88249
 20
6.40218
 30
0.0
 40
0
 41
0
  0
VERTEX
  8
0
 10
4.86117
 20
6.40218
 30
0.0
 40
0
 41
0
  0
VERTEX
  8
0
 10
4.86117
 20
6.51676
 30
0.0
 40
0
 41
0
  0
VERTEX
  8
0
 10
6.7679
 20
6.51676
 30
0.0
 40
0
 41
0
  0
VERTEX
  8
0
 10
6.88249
 20
6.40218
 30
0.0
 40
0
 41
0
  0
SEQEND
 8
0
  0
POLYLINE
  8
0
 62
     0
 66
     1
 10
0
 20
0
 30
0.0
 70
     1
 40
0.15
 41
0.15
  0
VERTEX
  8
0
 10
6.88249
 20
6.40218
 30
0.0
 40
0.00208333
 41
0.00208333
  0
VERTEX
  8
0
 10
4.86117
 20
6.40218
 30
0.0
 40
0.00208333
 41
0.00208333
  0
VERTEX
  8
0
 10
4.86117
 20
6.51676
 30
0.0
 40
0.00208333
 41
0.00208333
  0
VERTEX
  8
0
 10
6.7679
 20
6.51676
 30
0.0
 40
0.00208333
 41
0.00208333
  0
VERTEX
  8
0
 10
6.88249
 20
6.40218
 30
0.0
 40
0.00208333
 41
0.00208333
  0
SEQEND
 8
0
  0
POLYLINE
  8
0
 62
     7
 66
     1
 10
0
 20
0
 30
0.0
 70
     1
 40
0
 41
0
  0
VERTEX
  8
0
 10
5.04406
 20
6.51676
 30
0.0
 40
0
 41
0
  0
VERTEX
  8
0
 10
6.00114
 20
6.51676
 30
0.0
 40
0
 41
0
  0
VERTEX
  8
0
 10
6.00114
 20
6.40218
 30
0.0
 40
0
 41
0
  0
VERTEX
  8
0
 10
5.04406
 20
6.40218
 30
0.0
 40
0
 41
0
  0
VERTEX
  8
0
 10
5.04406
 20
6.51676
 30
0.0
 40
0
 41
0
  0
SEQEND
 8
0
  0
POLYLINE
  8
0
 62
     0
 66
     1
 10
0
 20
0
 30
0.0
 70
     1
 40
0.75
 41
0.75
  0
VERTEX
  8
0
 10
5.04406
 20
6.51676
 30
0.0
 40
0.0104167
 41
0.0104167
  0
VERTEX
  8
0
 10
6.00114
 20
6.51676
 30
0.0
 40
0.0104167
 41
0.0104167
  0
VERTEX
  8
0
 10
6.00114
 20
6.40218
 30
0.0
 40
0.0104167
 41
0.0104167
  0
VERTEX
  8
0
 10
5.04406
 20
6.40218
 30
0.0
 40
0.0104167
 41
0.0104167
  0
VERTEX
  8
0
 10
5.04406
 20
6.51676
 30
0.0
 40
0.0104167
 41
0.0104167
  0
SEQEND
 8
0
  0
POLYLINE
  8
0
 62
     7
 66
     1
 10
0
 20
0
 30
0.0
 70
     1
 40
0
 41
0
  0
VERTEX
  8
0
 10
5.04406
 20
6.51676
 30
0.0
 40
0
 41
0
  0
VERTEX
  8
0
 10
6.00114
 20
6.51676
 30
0.0
 40
0
 41
0
  0
VERTEX
  8
0
 10
6.00114
 20
6.40218
 30
0.0
 40
0
 41
0
  0
VERTEX
  8
0
 10
5.04406
 20
6.40218
 30
0.0
 40
0
 41
0
  0
VERTEX
  8
0
 10
5.04406
 20
6.51676
 30
0.0
 40
0
 41
0
  0
SEQEND
 8
0
  0
POLYLINE
  8
0
 62
     0
 66
     1
 10
0
 20
0
 30
0.0
 70
     1
 40
0.75
 41
0.75
  0
VERTEX
  8
0
 10
5.04406
 20
6.51676
 30
0.0
 40
0.0104167
 41
0.0104167
  0
VERTEX
  8
0
 10
6.00114
 20
6.51676
 30
0.0
 40
0.0104167
 41
0.0104167
  0
VERTEX
  8
0
 10
6.00114
 20
6.40218
 30
0.0
 40
0.0104167
 41
0.0104167
  0
VERTEX
  8
0
 10
5.04406
 20
6.40218
 30
0.0
 40
0.0104167
 41
0.0104167
  0
VERTEX
  8
0
 10
5.04406
 20
6.51676
 30
0.0
 40
0.0104167
 41
0.0104167
  0
SEQEND
 8
0
  0
POLYLINE
  8
0
 62
     0
 66
     1
 10
0
 20
0
 30
0.0
 70
     1
 40
0.75
 41
0.75
  0
VERTEX
  8
0
 10
6.00114
 20
6.51676
 30
0.0
 40
0.0104167
 41
0.0104167
  0
VERTEX
  8
0
 10
6.00114
 20
6.57286
 30
0.0
 40
0.0104167
 41
0.0104167
  0
VERTEX
  8
0
 10
5.98617
 20
6.7411
 30
0.0
 40
0.0104167
 41
0.0104167
  0
VERTEX
  8
0
 10
5.94129
 20
6.93554
 30
0.0
 40
0.0104167
 41
0.0104167
  0
VERTEX
  8
0
 10
5.86654
 20
7.10004
 30
0.0
 40
0.0104167
 41
0.0104167
  0
VERTEX
  8
0
 10
5.76183
 20
7.2346
 30
0.0
 40
0.0104167
 41
0.0104167
  0
VERTEX
  8
0
 10
5.62728
 20
7.33931
 30
0.0
 40
0.0104167
 41
0.0104167
  0
VERTEX
  8
0
 10
5.46278
 20
7.41407
 30
0.0
 40
0.0104167
 41
0.0104167
  0
VERTEX
  8
0
 10
5.26833
 20
7.45893
 30
0.0
 40
0.0104167
 41
0.0104167
  0
VERTEX
  8
0
 10
5.1001
 20
7.47385
 30
0.0
 40
0.0104167
 41
0.0104167
  0
VERTEX
  8
0
 10
5.04406
 20
7.47385
 30
0.0
 40
0.0104167
 41
0.0104167
  0
VERTEX
  8
0
 10
5.04406
 20
6.51676
 30
0.0
 40
0.0104167
 41
0.0104167
  0
VERTEX
  8
0
 10
6.00114
 20
6.51676
 30
0.0
 40
0.0104167
 41
0.0104167
  0
SEQEND
 8
0
  0
POLYLINE
  8
0
 62
     0
 66
     1
 10
0
 20
0
 30
0.0
 70
     1
 40
0
 41
0
  0
VERTEX
  8
0
 10
6.29471
 20
5.7021
 30
0.0
 40
0
 41
0
  0
VERTEX
  8
0
 10
6.40929
 20
5.7021
 30
0.0
 40
0
 41
0
  0
VERTEX
  8
0
 10
6.40929
 20
4.70856
 30
0.0
 40
0
 41
0
  0
VERTEX
  8
0
 10
6.29471
 20
4.70856
 30
0.0
 40
0
 41
0
  0
VERTEX
  8
0
 10
6.29471
 20
5.7021
 30
0.0
 40
0
 41
0
  0
SEQEND
 8
0
  0
POLYLINE
  8
0
 62
     0
 66
     1
 10
0
 20
0
 30
0.0
 70
     1
 40
0.15
 41
0.15
  0
VERTEX
  8
0
 10
6.29471
 20
5.7021
 30
0.0
 40
0.00208333
 41
0.00208333
  0
VERTEX
  8
0
 10
6.40929
 20
5.7021
 30
0.0
 40
0.00208333
 41
0.00208333
  0
VERTEX
  8
0
 10
6.40929
 20
4.70856
 30
0.0
 40
0.00208333
 41
0.00208333
  0
VERTEX
  8
0
 10
6.29471
 20
4.70856
 30
0.0
 40
0.00208333
 41
0.00208333
  0
VERTEX
  8
0
 10
6.29471
 20
5.7021
 30
0.0
 40
0.00208333
 41
0.00208333
  0
SEQEND
 8
0
  0
POLYLINE
  8
0
 62
     7
 66
     1
 10
0
 20
0
 30
0.0
 70
     1
 40
0
 41
0
  0
VERTEX
  8
0
 10
4.00711
 20
10.8432
 30
0.0
 40
0
 41
0
  0
VERTEX
  8
0
 10
4.63211
 20
10.8432
 30
0.0
 40
0
 41
0
  0
VERTEX
  8
0
 10
4.63211
 20
10.3625
 30
0.0
 40
0
 41
0
  0
VERTEX
  8
0
 10
4.00711
 20
10.3625
 30
0.0
 40
0
 41
0
  0
VERTEX
  8
0
 10
4.00711
 20
10.8432
 30
0.0
 40
0
 41
0
  0
SEQEND
 8
0
  0
POLYLINE
  8
0
 62
     0
 66
     1
 10
0
 20
0
 30
0.0
 70
     1
 40
0.75
 41
0.75
  0
VERTEX
  8
0
 10
4.00711
 20
10.8432
 30
0.0
 40
0.0104167
 41
0.0104167
  0
VERTEX
  8
0
 10
4.63211
 20
10.8432
 30
0.0
 40
0.0104167
 41
0.0104167
  0
VERTEX
  8
0
 10
4.63211
 20
10.3625
 30
0.0
 40
0.0104167
 41
0.0104167
  0
VERTEX
  8
0
 10
4.00711
 20
10.3625
 30
0.0
 40
0.0104167
 41
0.0104167
  0
VERTEX
  8
0
 10
4.00711
 20
10.8432
 30
0.0
 40
0.0104167
 41
0.0104167
  0
SEQEND
 8
0
  0
POLYLINE
  8
0
 62
     7
 66
     1
 10
0
 20
0
 30
0.0
 70
     1
 40
0
 41
0
  0
VERTEX
  8
0
 10
4.05919
 20
10.7421
 30
0.0
 40
0
 41
0
  0
VERTEX
  8
0
 10
4.58003
 20
10.7421
 30
0.0
 40
0
 41
0
  0
VERTEX
  8
0
 10
4.58003
 20
10.4049
 30
0.0
 40
0
 41
0
  0
VERTEX
  8
0
 10
4.05919
 20
10.4049
 30
0.0
 40
0
 41
0
  0
VERTEX
  8
0
 10
4.05919
 20
10.7421
 30
0.0
 40
0
 41
0
  0
SEQEND
 8
0
  0
POLYLINE
  8
0
 62
     0
 66
     1
 10
0
 20
0
 30
0.0
 70
     1
 40
0.75
 41
0.75
  0
VERTEX
  8
0
 10
4.05919
 20
10.7421
 30
0.0
 40
0.0104167
 41
0.0104167
  0
VERTEX
  8
0
 10
4.58003
 20
10.7421
 30
0.0
 40
0.0104167
 41
0.0104167
  0
VERTEX
  8
0
 10
4.58003
 20
10.4049
 30
0.0
 40
0.0104167
 41
0.0104167
  0
VERTEX
  8
0
 10
4.05919
 20
10.4049
 30
0.0
 40
0.0104167
 41
0.0104167
  0
VERTEX
  8
0
 10
4.05919
 20
10.7421
 30
0.0
 40
0.0104167
 41
0.0104167
  0
SEQEND
 8
0
  0
POLYLINE
  8
0
 62
     7
 66
     1
 10
0
 20
0
 30
0.0
 70
     1
 40
0
 41
0
  0
VERTEX
  8
0
 10
4.35607
 20
10.5852
 30
0.0
 40
0
 41
0
  0
VERTEX
  8
0
 10
4.35607
 20
10.5788
 30
0.0
 40
0
 41
0
  0
VERTEX
  8
0
 10
4.34538
 20
10.5595
 30
0.0
 40
0
 41
0
  0
VERTEX
  8
0
 10
4.32601
 20
10.5488
 30
0.0
 40
0
 41
0
  0
VERTEX
  8
0
 10
4.31961
 20
10.5488
 30
0.0
 40
0
 41
0
  0
VERTEX
  8
0
 10
4.31315
 20
10.5488
 30
0.0
 40
0
 41
0
  0
VERTEX
  8
0
 10
4.29378
 20
10.5595
 30
0.0
 40
0
 41
0
  0
VERTEX
  8
0
 10
4.28315
 20
10.5788
 30
0.0
 40
0
 41
0
  0
VERTEX
  8
0
 10
4.28315
 20
10.5852
 30
0.0
 40
0
 41
0
  0
VERTEX
  8
0
 10
4.28315
 20
10.5917
 30
0.0
 40
0
 41
0
  0
VERTEX
  8
0
 10
4.29378
 20
10.6111
 30
0.0
 40
0
 41
0
  0
VERTEX
  8
0
 10
4.31315
 20
10.6217
 30
0.0
 40
0
 41
0
  0
VERTEX
  8
0
 10
4.31961
 20
10.6217
 30
0.0
 40
0
 41
0
  0
VERTEX
  8
0
 10
4.32601
 20
10.6217
 30
0.0
 40
0
 41
0
  0
VERTEX
  8
0
 10
4.34538
 20
10.6111
 30
0.0
 40
0
 41
0
  0
VERTEX
  8
0
 10
4.35607
 20
10.5917
 30
0.0
 40
0
 41
0
  0
VERTEX
  8
0
 10
4.35607
 20
10.5852
 30
0.0
 40
0
 41
0
  0
SEQEND
 8
0
  0
POLYLINE
  8
0
 62
     0
 66
     1
 10
0
 20
0
 30
0.0
 70
     1
 40
0.6
 41
0.6
  0
VERTEX
  8
0
 10
4.35607
 20
10.5852
 30
0.0
 40
0.00833333
 41
0.00833333
  0
VERTEX
  8
0
 10
4.35607
 20
10.5788
 30
0.0
 40
0.00833333
 41
0.00833333
  0
VERTEX
  8
0
 10
4.34538
 20
10.5595
 30
0.0
 40
0.00833333
 41
0.00833333
  0
VERTEX
  8
0
 10
4.32601
 20
10.5488
 30
0.0
 40
0.00833333
 41
0.00833333
  0
VERTEX
  8
0
 10
4.31961
 20
10.5488
 30
0.0
 40
0.00833333
 41
0.00833333
  0
VERTEX
  8
0
 10
4.31315
 20
10.5488
 30
0.0
 40
0.00833333
 41
0.00833333
  0
VERTEX
  8
0
 10
4.29378
 20
10.5595
 30
0.0
 40
0.00833333
 41
0.00833333
  0
VERTEX
  8
0
 10
4.28315
 20
10.5788
 30
0.0
 40
0.00833333
 41
0.00833333
  0
VERTEX
  8
0
 10
4.28315
 20
10.5852
 30
0.0
 40
0.00833333
 41
0.00833333
  0
VERTEX
  8
0
 10
4.28315
 20
10.5917
 30
0.0
 40
0.00833333
 41
0.00833333
  0
VERTEX
  8
0
 10
4.29378
 20
10.6111
 30
0.0
 40
0.00833333
 41
0.00833333
  0
VERTEX
  8
0
 10
4.31315
 20
10.6217
 30
0.0
 40
0.00833333
 41
0.00833333
  0
VERTEX
  8
0
 10
4.31961
 20
10.6217
 30
0.0
 40
0.00833333
 41
0.00833333
  0
VERTEX
  8
0
 10
4.32601
 20
10.6217
 30
0.0
 40
0.00833333
 41
0.00833333
  0
VERTEX
  8
0
 10
4.34538
 20
10.6111
 30
0.0
 40
0.00833333
 41
0.00833333
  0
VERTEX
  8
0
 10
4.35607
 20
10.5917
 30
0.0
 40
0.00833333
 41
0.00833333
  0
VERTEX
  8
0
 10
4.35607
 20
10.5852
 30
0.0
 40
0.00833333
 41
0.00833333
  0
SEQEND
 8
0
  0
POLYLINE
  8
0
 62
     7
 66
     1
 10
0
 20
0
 30
0.0
 70
     1
 40
0
 41
0
  0
VERTEX
  8
0
 10
4.34044
 20
10.5852
 30
0.0
 40
0
 41
0
  0
VERTEX
  8
0
 10
4.34044
 20
10.5816
 30
0.0
 40
0
 41
0
  0
VERTEX
  8
0
 10
4.33431
 20
10.5705
 30
0.0
 40
0
 41
0
  0
VERTEX
  8
0
 10
4.32324
 20
10.5644
 30
0.0
 40
0
 41
0
  0
VERTEX
  8
0
 10
4.31961
 20
10.5644
 30
0.0
 40
0
 41
0
  0
VERTEX
  8
0
 10
4.31592
 20
10.5644
 30
0.0
 40
0
 41
0
  0
VERTEX
  8
0
 10
4.30485
 20
10.5705
 30
0.0
 40
0
 41
0
  0
VERTEX
  8
0
 10
4.29878
 20
10.5816
 30
0.0
 40
0
 41
0
  0
VERTEX
  8
0
 10
4.29878
 20
10.5852
 30
0.0
 40
0
 41
0
  0
VERTEX
  8
0
 10
4.29878
 20
10.5889
 30
0.0
 40
0
 41
0
  0
VERTEX
  8
0
 10
4.30485
 20
10.6
 30
0.0
 40
0
 41
0
  0
VERTEX
  8
0
 10
4.31592
 20
10.6061
 30
0.0
 40
0
 41
0
  0
VERTEX
  8
0
 10
4.31961
 20
10.6061
 30
0.0
 40
0
 41
0
  0
VERTEX
  8
0
 10
4.32324
 20
10.6061
 30
0.0
 40
0
 41
0
  0
VERTEX
  8
0
 10
4.33431
 20
10.6
 30
0.0
 40
0
 41
0
  0
VERTEX
  8
0
 10
4.34044
 20
10.5889
 30
0.0
 40
0
 41
0
  0
VERTEX
  8
0
 10
4.34044
 20
10.5852
 30
0.0
 40
0
 41
0
  0
SEQEND
 8
0
  0
POLYLINE
  8
0
 62
     0
 66
     1
 10
0
 20
0
 30
0.0
 70
     1
 40
0.6
 41
0.6
  0
VERTEX
  8
0
 10
4.34044
 20
10.5852
 30
0.0
 40
0.00833333
 41
0.00833333
  0
VERTEX
  8
0
 10
4.34044
 20
10.5816
 30
0.0
 40
0.00833333
 41
0.00833333
  0
VERTEX
  8
0
 10
4.33431
 20
10.5705
 30
0.0
 40
0.00833333
 41
0.00833333
  0
VERTEX
  8
0
 10
4.32324
 20
10.5644
 30
0.0
 40
0.00833333
 41
0.00833333
  0
VERTEX
  8
0
 10
4.31961
 20
10.5644
 30
0.0
 40
0.00833333
 41
0.00833333
  0
VERTEX
  8
0
 10
4.31592
 20
10.5644
 30
0.0
 40
0.00833333
 41
0.00833333
  0
VERTEX
  8
0
 10
4.30485
 20
10.5705
 30
0.0
 40
0.00833333
 41
0.00833333
  0
VERTEX
  8
0
 10
4.29878
 20
10.5816
 30
0.0
 40
0.00833333
 41
0.00833333
  0
VERTEX
  8
0
 10
4.29878
 20
10.5852
 30
0.0
 40
0.00833333
 41
0.00833333
  0
VERTEX
  8
0
 10
4.29878
 20
10.5889
 30
0.0
 40
0.00833333
 41
0.00833333
  0
VERTEX
  8
0
 10
4.30485
 20
10.6
 30
0.0
 40
0.00833333
 41
0.00833333
  0
VERTEX
  8
0
 10
4.31592
 20
10.6061
 30
0.0
 40
0.00833333
 41
0.00833333
  0
VERTEX
  8
0
 10
4.31961
 20
10.6061
 30
0.0
 40
0.00833333
 41
0.00833333
  0
VERTEX
  8
0
 10
4.32324
 20
10.6061
 30
0.0
 40
0.00833333
 41
0.00833333
  0
VERTEX
  8
0
 10
4.33431
 20
10.6
 30
0.0
 40
0.00833333
 41
0.00833333
  0
VERTEX
  8
0
 10
4.34044
 20
10.5889
 30
0.0
 40
0.00833333
 41
0.00833333
  0
VERTEX
  8
0
 10
4.34044
 20
10.5852
 30
0.0
 40
0.00833333
 41
0.00833333
  0
SEQEND
 8
0
  0
POLYLINE
  8
0
 62
     7
 66
     1
 10
0
 20
0
 30
0.0
 70
     1
 40
0
 41
0
  0
VERTEX
  8
0
 10
4.28836
 20
10.8031
 30
0.0
 40
0
 41
0
  0
VERTEX
  8
0
 10
4.35086
 20
10.8031
 30
0.0
 40
0
 41
0
  0
VERTEX
  8
0
 10
4.35086
 20
10.6572
 30
0.0
 40
0
 41
0
  0
VERTEX
  8
0
 10
4.28836
 20
10.6572
 30
0.0
 40
0
 41
0
  0
VERTEX
  8
0
 10
4.28836
 20
10.8031
 30
0.0
 40
0
 41
0
  0
SEQEND
 8
0
  0
POLYLINE
  8
0
 62
     0
 66
     1
 10
0
 20
0
 30
0.0
 70
     1
 40
0.75
 41
0.75
  0
VERTEX
  8
0
 10
4.28836
 20
10.8031
 30
0.0
 40
0.0104167
 41
0.0104167
  0
VERTEX
  8
0
 10
4.35086
 20
10.8031
 30
0.0
 40
0.0104167
 41
0.0104167
  0
VERTEX
  8
0
 10
4.35086
 20
10.6572
 30
0.0
 40
0.0104167
 41
0.0104167
  0
VERTEX
  8
0
 10
4.28836
 20
10.6572
 30
0.0
 40
0.0104167
 41
0.0104167
  0
VERTEX
  8
0
 10
4.28836
 20
10.8031
 30
0.0
 40
0.0104167
 41
0.0104167
  0
SEQEND
 8
0
  0
POLYLINE
  8
0
 62
     7
 66
     1
 10
0
 20
0
 30
0.0
 70
     1
 40
0
 41
0
  0
VERTEX
  8
0
 10
6.41569
 20
7.77664
 30
0.0
 40
0
 41
0
  0
VERTEX
  8
0
 10
6.7679
 20
7.77664
 30
0.0
 40
0
 41
0
  0
VERTEX
  8
0
 10
6.7679
 20
6.51676
 30
0.0
 40
0
 41
0
  0
VERTEX
  8
0
 10
6.41569
 20
6.51676
 30
0.0
 40
0
 41
0
  0
VERTEX
  8
0
 10
6.41569
 20
7.77664
 30
0.0
 40
0
 41
0
  0
SEQEND
 8
0
  0
POLYLINE
  8
0
 62
     0
 66
     1
 10
0
 20
0
 30
0.0
 70
     1
 40
0.75
 41
0.75
  0
VERTEX
  8
0
 10
6.41569
 20
7.77664
 30
0.0
 40
0.0104167
 41
0.0104167
  0
VERTEX
  8
0
 10
6.41569
 20
6.51676
 30
0.0
 40
0.0104167
 41
0.0104167
  0
VERTEX
  8
0
 10
6.7679
 20
6.51676
 30
0.0
 40
0.0104167
 41
0.0104167
  0
VERTEX
  8
0
 10
6.7679
 20
7.77664
 30
0.0
 40
0.0104167
 41
0.0104167
  0
VERTEX
  8
0
 10
6.41569
 20
7.77664
 30
0.0
 40
0.0104167
 41
0.0104167
  0
SEQEND
 8
0
  0
POLYLINE
  8
0
 62
     7
 66
     1
 10
0
 20
0
 30
0.0
 70
     1
 40
0
 41
0
  0
VERTEX
  8
0
 10
6.41043
 20
5.70122
 30
0.0
 40
0
 41
0
  0
VERTEX
  8
0
 10
6.87175
 20
5.70122
 30
0.0
 40
0
 41
0
  0
VERTEX
  8
0
 10
6.87175
 20
5.07308
 30
0.0
 40
0
 41
0
  0
VERTEX
  8
0
 10
6.41043
 20
5.07308
 30
0.0
 40
0
 41
0
  0
VERTEX
  8
0
 10
6.41043
 20
5.70122
 30
0.0
 40
0
 41
0
  0
SEQEND
 8
0
  0
POLYLINE
  8
0
 62
     0
 66
     1
 10
0
 20
0
 30
0.0
 70
     1
 40
0.75
 41
0.75
  0
VERTEX
  8
0
 10
6.41043
 20
5.70122
 30
0.0
 40
0.0104167
 41
0.0104167
  0
VERTEX
  8
0
 10
6.41043
 20
5.07308
 30
0.0
 40
0.0104167
 41
0.0104167
  0
VERTEX
  8
0
 10
6.87175
 20
5.07308
 30
0.0
 40
0.0104167
 41
0.0104167
  0
VERTEX
  8
0
 10
6.87175
 20
5.70122
 30
0.0
 40
0.0104167
 41
0.0104167
  0
VERTEX
  8
0
 10
6.41043
 20
5.70122
 30
0.0
 40
0.0104167
 41
0.0104167
  0
SEQEND
 8
0
  0
POLYLINE
  8
0
 62
     7
 66
     1
 10
0
 20
0
 30
0.0
 70
     1
 40
0
 41
0
  0
VERTEX
  8
0
 10
6.29465
 20
6.40218
 30
0.0
 40
0
 41
0
  0
VERTEX
  8
0
 10
6.87354
 20
6.40218
 30
0.0
 40
0
 41
0
  0
VERTEX
  8
0
 10
6.87354
 20
5.70318
 30
0.0
 40
0
 41
0
  0
VERTEX
  8
0
 10
6.29465
 20
5.70318
 30
0.0
 40
0
 41
0
  0
VERTEX
  8
0
 10
6.29465
 20
6.40218
 30
0.0
 40
0
 41
0
  0
SEQEND
 8
0
  0
POLYLINE
  8
0
 62
     0
 66
     1
 10
0
 20
0
 30
0.0
 70
     1
 40
0.75
 41
0.75
  0
VERTEX
  8
0
 10
6.29465
 20
6.40218
 30
0.0
 40
0.0104167
 41
0.0104167
  0
VERTEX
  8
0
 10
6.29465
 20
5.70318
 30
0.0
 40
0.0104167
 41
0.0104167
  0
VERTEX
  8
0
 10
6.87354
 20
5.70318
 30
0.0
 40
0.0104167
 41
0.0104167
  0
VERTEX
  8
0
 10
6.87354
 20
6.40218
 30
0.0
 40
0.0104167
 41
0.0104167
  0
VERTEX
  8
0
 10
6.29465
 20
6.40218
 30
0.0
 40
0.0104167
 41
0.0104167
  0
SEQEND
 8
0
  0
POLYLINE
  8
0
 62
     7
 66
     1
 10
0
 20
0
 30
0.0
 70
     1
 40
0
 41
0
  0
VERTEX
  8
0
 10
9.31321
 20
9.87244
 30
0.0
 40
0
 41
0
  0
VERTEX
  8
0
 10
10.0202
 20
9.87244
 30
0.0
 40
0
 41
0
  0
VERTEX
  8
0
 10
10.0202
 20
8.9005
 30
0.0
 40
0
 41
0
  0
VERTEX
  8
0
 10
9.31321
 20
8.9005
 30
0.0
 40
0
 41
0
  0
VERTEX
  8
0
 10
9.31321
 20
9.87244
 30
0.0
 40
0
 41
0
  0
SEQEND
 8
0
  0
POLYLINE
  8
0
 62
     0
 66
     1
 10
0
 20
0
 30
0.0
 70
     1
 40
0.75
 41
0.75
  0
VERTEX
  8
0
 10
9.31321
 20
9.87244
 30
0.0
 40
0.0104167
 41
0.0104167
  0
VERTEX
  8
0
 10
9.31321
 20
8.9005
 30
0.0
 40
0.0104167
 41
0.0104167
  0
VERTEX
  8
0
 10
10.0202
 20
8.9005
 30
0.0
 40
0.0104167
 41
0.0104167
  0
VERTEX
  8
0
 10
10.0202
 20
9.87244
 30
0.0
 40
0.0104167
 41
0.0104167
  0
VERTEX
  8
0
 10
9.31321
 20
9.87244
 30
0.0
 40
0.0104167
 41
0.0104167
  0
SEQEND
 8
0
  0
POLYLINE
  8
0
 62
     253
 66
     1
 10
0
 20
0
 30
0.0
 40
0.75
 41
0.75
  0
VERTEX
  8
0
 10
9.66672
 20
9.87244
 30
0.0
 40
0.0104167
 41
0.0104167
  0
VERTEX
  8
0
 10
9.66672
 20
8.90044
 30
0.0
 40
0.0104167
 41
0.0104167
  0
SEQEND
 8
0
  0
POLYLINE
  8
0
 62
     7
 66
     1
 10
0
 20
0
 30
0.0
 70
     1
 40
0
 41
0
  0
VERTEX
  8
0
 10
8.34017
 20
9.87115
 30
0.0
 40
0
 41
0
  0
VERTEX
  8
0
 10
9.31164
 20
9.87115
 30
0.0
 40
0
 41
0
  0
VERTEX
  8
0
 10
9.31164
 20
9.37418
 30
0.0
 40
0
 41
0
  0
VERTEX
  8
0
 10
8.34017
 20
9.37418
 30
0.0
 40
0
 41
0
  0
VERTEX
  8
0
 10
8.34017
 20
9.87115
 30
0.0
 40
0
 41
0
  0
SEQEND
 8
0
  0
POLYLINE
  8
0
 62
     0
 66
     1
 10
0
 20
0
 30
0.0
 70
     1
 40
0.75
 41
0.75
  0
VERTEX
  8
0
 10
8.34017
 20
9.87115
 30
0.0
 40
0.0104167
 41
0.0104167
  0
VERTEX
  8
0
 10
9.31164
 20
9.87115
 30
0.0
 40
0.0104167
 41
0.0104167
  0
VERTEX
  8
0
 10
9.31164
 20
9.37418
 30
0.0
 40
0.0104167
 41
0.0104167
  0
VERTEX
  8
0
 10
8.34017
 20
9.37418
 30
0.0
 40
0.0104167
 41
0.0104167
  0
VERTEX
  8
0
 10
8.34017
 20
9.87115
 30
0.0
 40
0.0104167
 41
0.0104167
  0
SEQEND
 8
0
  0
POLYLINE
  8
0
 62
     7
 66
     1
 10
0
 20
0
 30
0.0
 70
     1
 40
0
 41
0
  0
VERTEX
  8
0
 10
8.49701
 20
11.8398
 30
0.0
 40
0
 41
0
  0
VERTEX
  8
0
 10
8.82611
 20
11.8398
 30
0.0
 40
0
 41
0
  0
VERTEX
  8
0
 10
8.82611
 20
11.3155
 30
0.0
 40
0
 41
0
  0
VERTEX
  8
0
 10
8.49701
 20
11.3155
 30
0.0
 40
0
 41
0
  0
VERTEX
  8
0
 10
8.49701
 20
11.8398
 30
0.0
 40
0
 41
0
  0
SEQEND
 8
0
  0
POLYLINE
  8
0
 62
     0
 66
     1
 10
0
 20
0
 30
0.0
 70
     1
 40
0.62925
 41
0.62925
  0
VERTEX
  8
0
 10
8.49701
 20
11.8398
 30
0.0
 40
0.00873958
 41
0.00873958
  0
VERTEX
  8
0
 10
8.49701
 20
11.3155
 30
0.0
 40
0.00873958
 41
0.00873958
  0
VERTEX
  8
0
 10
8.82611
 20
11.3155
 30
0.0
 40
0.00873958
 41
0.00873958
  0
VERTEX
  8
0
 10
8.82611
 20
11.8398
 30
0.0
 40
0.00873958
 41
0.00873958
  0
VERTEX
  8
0
 10
8.49701
 20
11.8398
 30
0.0
 40
0.00873958
 41
0.00873958
  0
SEQEND
 8
0
  0
POLYLINE
  8
0
 62
     0
 66
     1
 10
0
 20
0
 30
0.0
 40
0.62925
 41
0.62925
  0
VERTEX
  8
0
 10
8.82611
 20
11.3155
 30
0.0
 40
0.00873958
 41
0.00873958
  0
VERTEX
  8
0
 10
8.66157
 20
11.6624
 30
0.0
 40
0.00873958
 41
0.00873958
  0
VERTEX
  8
0
 10
8.66157
 20
11.5025
 30
0.0
 40
0.00873958
 41
0.00873958
  0
VERTEX
  8
0
 10
8.49701
 20
11.8398
 30
0.0
 40
0.00873958
 41
0.00873958
  0
SEQEND
 8
0
  0
POLYLINE
  8
0
 62
     7
 66
     1
 10
0
 20
0
 30
0.0
 70
     1
 40
0
 41
0
  0
VERTEX
  8
0
 10
9.40864
 20
12.0217
 30
0.0
 40
0
 41
0
  0
VERTEX
  8
0
 10
10.0217
 20
12.0217
 30
0.0
 40
0
 41
0
  0
VERTEX
  8
0
 10
10.0217
 20
9.9879
 30
0.0
 40
0
 41
0
  0
VERTEX
  8
0
 10
9.40864
 20
9.9879
 30
0.0
 40
0
 41
0
  0
VERTEX
  8
0
 10
9.40864
 20
12.0217
 30
0.0
 40
0
 41
0
  0
SEQEND
 8
0
  0
POLYLINE
  8
0
 62
     0
 66
     1
 10
0
 20
0
 30
0.0
 70
     1
 40
0.75
 41
0.75
  0
VERTEX
  8
0
 10
9.40864
 20
12.0217
 30
0.0
 40
0.0104167
 41
0.0104167
  0
VERTEX
  8
0
 10
9.40864
 20
9.9879
 30
0.0
 40
0.0104167
 41
0.0104167
  0
VERTEX
  8
0
 10
10.0217
 20
9.9879
 30
0.0
 40
0.0104167
 41
0.0104167
  0
VERTEX
  8
0
 10
10.0217
 20
12.0217
 30
0.0
 40
0.0104167
 41
0.0104167
  0
VERTEX
  8
0
 10
9.40864
 20
12.0217
 30
0.0
 40
0.0104167
 41
0.0104167
  0
SEQEND
 8
0
  0
POLYLINE
  8
0
 62
     253
 66
     1
 10
0
 20
0
 30
0.0
 40
0.375
 41
0.375
  0
VERTEX
  8
0
 10
9.98085
 20
12.0217
 30
0.0
 40
0.00520833
 41
0.00520833
  0
VERTEX
  8
0
 10
9.98085
 20
9.98796
 30
0.0
 40
0.00520833
 41
0.00520833
  0
SEQEND
 8
0
  0
POLYLINE
  8
0
 62
     253
 66
     1
 10
0
 20
0
 30
0.0
 40
0.375
 41
0.375
  0
VERTEX
  8
0
 10
9.94
 20
12.0217
 30
0.0
 40
0.00520833
 41
0.00520833
  0
VERTEX
  8
0
 10
9.94
 20
9.98796
 30
0.0
 40
0.00520833
 41
0.00520833
  0
SEQEND
 8
0
  0
POLYLINE
  8
0
 62
     253
 66
     1
 10
0
 20
0
 30
0.0
 40
0.375
 41
0.375
  0
VERTEX
  8
0
 10
9.89914
 20
12.0217
 30
0.0
 40
0.00520833
 41
0.00520833
  0
VERTEX
  8
0
 10
9.89914
 20
9.98796
 30
0.0
 40
0.00520833
 41
0.00520833
  0
SEQEND
 8
0
  0
POLYLINE
  8
0
 62
     253
 66
     1
 10
0
 20
0
 30
0.0
 40
0.375
 41
0.375
  0
VERTEX
  8
0
 10
9.85824
 20
12.0217
 30
0.0
 40
0.00520833
 41
0.00520833
  0
VERTEX
  8
0
 10
9.85824
 20
9.98796
 30
0.0
 40
0.00520833
 41
0.00520833
  0
SEQEND
 8
0
  0
POLYLINE
  8
0
 62
     253
 66
     1
 10
0
 20
0
 30
0.0
 40
0.375
 41
0.375
  0
VERTEX
  8
0
 10
9.81739
 20
12.0217
 30
0.0
 40
0.00520833
 41
0.00520833
  0
VERTEX
  8
0
 10
9.81739
 20
9.98796
 30
0.0
 40
0.00520833
 41
0.00520833
  0
SEQEND
 8
0
  0
POLYLINE
  8
0
 62
     253
 66
     1
 10
0
 20
0
 30
0.0
 40
0.375
 41
0.375
  0
VERTEX
  8
0
 10
9.77647
 20
12.0217
 30
0.0
 40
0.00520833
 41
0.00520833
  0
VERTEX
  8
0
 10
9.77647
 20
9.98796
 30
0.0
 40
0.00520833
 41
0.00520833
  0
SEQEND
 8
0
  0
POLYLINE
  8
0
 62
     253
 66
     1
 10
0
 20
0
 30
0.0
 40
0.375
 41
0.375
  0
VERTEX
  8
0
 10
9.73563
 20
12.0217
 30
0.0
 40
0.00520833
 41
0.00520833
  0
VERTEX
  8
0
 10
9.73563
 20
9.98796
 30
0.0
 40
0.00520833
 41
0.00520833
  0
SEQEND
 8
0
  0
POLYLINE
  8
0
 62
     253
 66
     1
 10
0
 20
0
 30
0.0
 40
0.375
 41
0.375
  0
VERTEX
  8
0
 10
9.69472
 20
12.0217
 30
0.0
 40
0.00520833
 41
0.00520833
  0
VERTEX
  8
0
 10
9.69472
 20
9.98796
 30
0.0
 40
0.00520833
 41
0.00520833
  0
SEQEND
 8
0
  0
POLYLINE
  8
0
 62
     253
 66
     1
 10
0
 20
0
 30
0.0
 40
0.375
 41
0.375
  0
VERTEX
  8
0
 10
9.65386
 20
12.0217
 30
0.0
 40
0.00520833
 41
0.00520833
  0
VERTEX
  8
0
 10
9.65386
 20
9.98796
 30
0.0
 40
0.00520833
 41
0.00520833
  0
SEQEND
 8
0
  0
POLYLINE
  8
0
 62
     253
 66
     1
 10
0
 20
0
 30
0.0
 40
0.375
 41
0.375
  0
VERTEX
  8
0
 10
9.61296
 20
12.0217
 30
0.0
 40
0.00520833
 41
0.00520833
  0
VERTEX
  8
0
 10
9.61296
 20
9.98796
 30
0.0
 40
0.00520833
 41
0.00520833
  0
SEQEND
 8
0
  0
POLYLINE
  8
0
 62
     253
 66
     1
 10
0
 20
0
 30
0.0
 40
0.375
 41
0.375
  0
VERTEX
  8
0
 10
9.5721
 20
12.0217
 30
0.0
 40
0.00520833
 41
0.00520833
  0
VERTEX
  8
0
 10
9.5721
 20
9.98796
 30
0.0
 40
0.00520833
 41
0.00520833
  0
SEQEND
 8
0
  0
POLYLINE
  8
0
 62
     253
 66
     1
 10
0
 20
0
 30
0.0
 40
0.375
 41
0.375
  0
VERTEX
  8
0
 10
9.53119
 20
12.0217
 30
0.0
 40
0.00520833
 41
0.00520833
  0
VERTEX
  8
0
 10
9.53119
 20
9.98796
 30
0.0
 40
0.00520833
 41
0.00520833
  0
SEQEND
 8
0
  0
POLYLINE
  8
0
 62
     253
 66
     1
 10
0
 20
0
 30
0.0
 40
0.375
 41
0.375
  0
VERTEX
  8
0
 10
9.49035
 20
12.0217
 30
0.0
 40
0.00520833
 41
0.00520833
  0
VERTEX
  8
0
 10
9.49035
 20
9.98796
 30
0.0
 40
0.00520833
 41
0.00520833
  0
SEQEND
 8
0
  0
POLYLINE
  8
0
 62
     253
 66
     1
 10
0
 20
0
 30
0.0
 40
0.375
 41
0.375
  0
VERTEX
  8
0
 10
9.44949
 20
12.0217
 30
0.0
 40
0.00520833
 41
0.00520833
  0
VERTEX
  8
0
 10
9.44949
 20
9.98796
 30
0.0
 40
0.00520833
 41
0.00520833
  0
SEQEND
 8
0
  0
POLYLINE
  8
0
 62
     7
 66
     1
 10
0
 20
0
 30
0.0
 70
     1
 40
0
 41
0
  0
VERTEX
  8
0
 10
9.05051
 20
12.0233
 30
0.0
 40
0
 41
0
  0
VERTEX
  8
0
 10
9.40799
 20
12.0233
 30
0.0
 40
0
 41
0
  0
VERTEX
  8
0
 10
9.40799
 20
9.98703
 30
0.0
 40
0
 41
0
  0
VERTEX
  8
0
 10
9.05051
 20
9.98703
 30
0.0
 40
0
 41
0
  0
VERTEX
  8
0
 10
9.05051
 20
12.0233
 30
0.0
 40
0
 41
0
  0
SEQEND
 8
0
  0
POLYLINE
  8
0
 62
     0
 66
     1
 10
0
 20
0
 30
0.0
 70
     1
 40
0.75
 41
0.75
  0
VERTEX
  8
0
 10
9.05051
 20
12.0233
 30
0.0
 40
0.0104167
 41
0.0104167
  0
VERTEX
  8
0
 10
9.05051
 20
9.98703
 30
0.0
 40
0.0104167
 41
0.0104167
  0
VERTEX
  8
0
 10
9.40799
 20
9.98703
 30
0.0
 40
0.0104167
 41
0.0104167
  0
VERTEX
  8
0
 10
9.40799
 20
12.0233
 30
0.0
 40
0.0104167
 41
0.0104167
  0
VERTEX
  8
0
 10
9.05051
 20
12.0233
 30
0.0
 40
0.0104167
 41
0.0104167
  0
SEQEND
 8
0
  0
POLYLINE
  8
0
 62
     253
 66
     1
 10
0
 20
0
 30
0.0
 40
0.375
 41
0.375
  0
VERTEX
  8
0
 10
9.37224
 20
12.0233
 30
0.0
 40
0.00520833
 41
0.00520833
  0
VERTEX
  8
0
 10
9.37224
 20
9.98708
 30
0.0
 40
0.00520833
 41
0.00520833
  0
SEQEND
 8
0
  0
POLYLINE
  8
0
 62
     253
 66
     1
 10
0
 20
0
 30
0.0
 40
0.375
 41
0.375
  0
VERTEX
  8
0
 10
9.33649
 20
12.0233
 30
0.0
 40
0.00520833
 41
0.00520833
  0
VERTEX
  8
0
 10
9.33649
 20
9.98708
 30
0.0
 40
0.00520833
 41
0.00520833
  0
SEQEND
 8
0
  0
POLYLINE
  8
0
 62
     253
 66
     1
 10
0
 20
0
 30
0.0
 40
0.375
 41
0.375
  0
VERTEX
  8
0
 10
9.30078
 20
12.0233
 30
0.0
 40
0.00520833
 41
0.00520833
  0
VERTEX
  8
0
 10
9.30078
 20
9.98708
 30
0.0
 40
0.00520833
 41
0.00520833
  0
SEQEND
 8
0
  0
POLYLINE
  8
0
 62
     253
 66
     1
 10
0
 20
0
 30
0.0
 40
0.375
 41
0.375
  0
VERTEX
  8
0
 10
9.26503
 20
12.0233
 30
0.0
 40
0.00520833
 41
0.00520833
  0
VERTEX
  8
0
 10
9.26503
 20
9.98708
 30
0.0
 40
0.00520833
 41
0.00520833
  0
SEQEND
 8
0
  0
POLYLINE
  8
0
 62
     253
 66
     1
 10
0
 20
0
 30
0.0
 40
0.375
 41
0.375
  0
VERTEX
  8
0
 10
9.22928
 20
12.0233
 30
0.0
 40
0.00520833
 41
0.00520833
  0
VERTEX
  8
0
 10
9.22928
 20
9.98708
 30
0.0
 40
0.00520833
 41
0.00520833
  0
SEQEND
 8
0
  0
POLYLINE
  8
0
 62
     253
 66
     1
 10
0
 20
0
 30
0.0
 40
0.375
 41
0.375
  0
VERTEX
  8
0
 10
9.19353
 20
12.0233
 30
0.0
 40
0.00520833
 41
0.00520833
  0
VERTEX
  8
0
 10
9.19353
 20
9.98708
 30
0.0
 40
0.00520833
 41
0.00520833
  0
SEQEND
 8
0
  0
POLYLINE
  8
0
 62
     253
 66
     1
 10
0
 20
0
 30
0.0
 40
0.375
 41
0.375
  0
VERTEX
  8
0
 10
9.15776
 20
12.0233
 30
0.0
 40
0.00520833
 41
0.00520833
  0
VERTEX
  8
0
 10
9.15776
 20
9.98708
 30
0.0
 40
0.00520833
 41
0.00520833
  0
SEQEND
 8
0
  0
POLYLINE
  8
0
 62
     253
 66
     1
 10
0
 20
0
 30
0.0
 40
0.375
 41
0.375
  0
VERTEX
  8
0
 10
9.12201
 20
12.0233
 30
0.0
 40
0.00520833
 41
0.00520833
  0
VERTEX
  8
0
 10
9.12201
 20
9.98708
 30
0.0
 40
0.00520833
 41
0.00520833
  0
SEQEND
 8
0
  0
POLYLINE
  8
0
 62
     253
 66
     1
 10
0
 20
0
 30
0.0
 40
0.375
 41
0.375
  0
VERTEX
  8
0
 10
9.08626
 20
12.0233
 30
0.0
 40
0.00520833
 41
0.00520833
  0
VERTEX
  8
0
 10
9.08626
 20
9.98708
 30
0.0
 40
0.00520833
 41
0.00520833
  0
SEQEND
 8
0
  0
POLYLINE
  8
0
 62
     7
 66
     1
 10
0
 20
0
 30
0.0
 70
     1
 40
0
 41
0
  0
VERTEX
  8
0
 10
8.76947
 20
10.7904
 30
0.0
 40
0
 41
0
  0
VERTEX
  8
0
 10
9.05018
 20
10.7904
 30
0.0
 40
0
 41
0
  0
VERTEX
  8
0
 10
9.05018
 20
9.98708
 30
0.0
 40
0
 41
0
  0
VERTEX
  8
0
 10
8.76947
 20
9.98708
 30
0.0
 40
0
 41
0
  0
VERTEX
  8
0
 10
8.76947
 20
10.7904
 30
0.0
 40
0
 41
0
  0
SEQEND
 8
0
  0
POLYLINE
  8
0
 62
     0
 66
     1
 10
0
 20
0
 30
0.0
 70
     1
 40
0.75
 41
0.75
  0
VERTEX
  8
0
 10
8.76947
 20
10.7904
 30
0.0
 40
0.0104167
 41
0.0104167
  0
VERTEX
  8
0
 10
8.76947
 20
9.98708
 30
0.0
 40
0.0104167
 41
0.0104167
  0
VERTEX
  8
0
 10
9.05018
 20
9.98708
 30
0.0
 40
0.0104167
 41
0.0104167
  0
VERTEX
  8
0
 10
9.05018
 20
10.7904
 30
0.0
 40
0.0104167
 41
0.0104167
  0
VERTEX
  8
0
 10
8.76947
 20
10.7904
 30
0.0
 40
0.0104167
 41
0.0104167
  0
SEQEND
 8
0
  0
POLYLINE
  8
0
 62
     253
 66
     1
 10
0
 20
0
 30
0.0
 40
0.375
 41
0.375
  0
VERTEX
  8
0
 10
9.02214
 20
10.7904
 30
0.0
 40
0.00520833
 41
0.00520833
  0
VERTEX
  8
0
 10
9.02214
 20
9.98703
 30
0.0
 40
0.00520833
 41
0.00520833
  0
SEQEND
 8
0
  0
POLYLINE
  8
0
 62
     253
 66
     1
 10
0
 20
0
 30
0.0
 40
0.375
 41
0.375
  0
VERTEX
  8
0
 10
8.99403
 20
10.7904
 30
0.0
 40
0.00520833
 41
0.00520833
  0
VERTEX
  8
0
 10
8.99403
 20
9.98703
 30
0.0
 40
0.00520833
 41
0.00520833
  0
SEQEND
 8
0
  0
POLYLINE
  8
0
 62
     253
 66
     1
 10
0
 20
0
 30
0.0
 40
0.375
 41
0.375
  0
VERTEX
  8
0
 10
8.96599
 20
10.7904
 30
0.0
 40
0.00520833
 41
0.00520833
  0
VERTEX
  8
0
 10
8.96599
 20
9.98703
 30
0.0
 40
0.00520833
 41
0.00520833
  0
SEQEND
 8
0
  0
POLYLINE
  8
0
 62
     253
 66
     1
 10
0
 20
0
 30
0.0
 40
0.375
 41
0.375
  0
VERTEX
  8
0
 10
8.93793
 20
10.7904
 30
0.0
 40
0.00520833
 41
0.00520833
  0
VERTEX
  8
0
 10
8.93793
 20
9.98703
 30
0.0
 40
0.00520833
 41
0.00520833
  0
SEQEND
 8
0
  0
POLYLINE
  8
0
 62
     253
 66
     1
 10
0
 20
0
 30
0.0
 40
0.375
 41
0.375
  0
VERTEX
  8
0
 10
8.90983
 20
10.7904
 30
0.0
 40
0.00520833
 41
0.00520833
  0
VERTEX
  8
0
 10
8.90983
 20
9.98703
 30
0.0
 40
0.00520833
 41
0.00520833
  0
SEQEND
 8
0
  0
POLYLINE
  8
0
 62
     253
 66
     1
 10
0
 20
0
 30
0.0
 40
0.375
 41
0.375
  0
VERTEX
  8
0
 10
8.88178
 20
10.7904
 30
0.0
 40
0.00520833
 41
0.00520833
  0
VERTEX
  8
0
 10
8.88178
 20
9.98703
 30
0.0
 40
0.00520833
 41
0.00520833
  0
SEQEND
 8
0
  0
POLYLINE
  8
0
 62
     253
 66
     1
 10
0
 20
0
 30
0.0
 40
0.375
 41
0.375
  0
VERTEX
  8
0
 10
8.85368
 20
10.7904
 30
0.0
 40
0.00520833
 41
0.00520833
  0
VERTEX
  8
0
 10
8.85368
 20
9.98703
 30
0.0
 40
0.00520833
 41
0.00520833
  0
SEQEND
 8
0
  0
POLYLINE
  8
0
 62
     253
 66
     1
 10
0
 20
0
 30
0.0
 40
0.375
 41
0.375
  0
VERTEX
  8
0
 10
8.82563
 20
10.7904
 30
0.0
 40
0.00520833
 41
0.00520833
  0
VERTEX
  8
0
 10
8.82563
 20
9.98703
 30
0.0
 40
0.00520833
 41
0.00520833
  0
SEQEND
 8
0
  0
POLYLINE
  8
0
 62
     253
 66
     1
 10
0
 20
0
 30
0.0
 40
0.375
 41
0.375
  0
VERTEX
  8
0
 10
8.79753
 20
10.7904
 30
0.0
 40
0.00520833
 41
0.00520833
  0
VERTEX
  8
0
 10
8.79753
 20
9.98703
 30
0.0
 40
0.00520833
 41
0.00520833
  0
SEQEND
 8
0
  0
POLYLINE
  8
0
 62
     7
 66
     1
 10
0
 20
0
 30
0.0
 70
     1
 40
0
 41
0
  0
VERTEX
  8
0
 10
4.15804
 20
9.09229
 30
0.0
 40
0
 41
0
  0
VERTEX
  8
0
 10
4.5746
 20
9.09229
 30
0.0
 40
0
 41
0
  0
VERTEX
  8
0
 10
4.5746
 20
8.905
 30
0.0
 40
0
 41
0
  0
VERTEX
  8
0
 10
4.15804
 20
8.905
 30
0.0
 40
0
 41
0
  0
VERTEX
  8
0
 10
4.15804
 20
9.09229
 30
0.0
 40
0
 41
0
  0
SEQEND
 8
0
  0
POLYLINE
  8
0
 62
     0
 66
     1
 10
0
 20
0
 30
0.0
 70
     1
 40
0.75
 41
0.75
  0
VERTEX
  8
0
 10
4.15804
 20
9.09229
 30
0.0
 40
0.0104167
 41
0.0104167
  0
VERTEX
  8
0
 10
4.5746
 20
9.09229
 30
0.0
 40
0.0104167
 41
0.0104167
  0
VERTEX
  8
0
 10
4.5746
 20
8.905
 30
0.0
 40
0.0104167
 41
0.0104167
  0
VERTEX
  8
0
 10
4.15804
 20
8.905
 30
0.0
 40
0.0104167
 41
0.0104167
  0
VERTEX
  8
0
 10
4.15804
 20
9.09229
 30
0.0
 40
0.0104167
 41
0.0104167
  0
SEQEND
 8
0
  0
POLYLINE
  8
0
 62
     7
 66
     1
 10
0
 20
0
 30
0.0
 70
     1
 40
0
 41
0
  0
VERTEX
  8
0
 10
4.15804
 20
9.36057
 30
0.0
 40
0
 41
0
  0
VERTEX
  8
0
 10
4.15804
 20
9.36057
 30
0.0
 40
0
 41
0
  0
VERTEX
  8
0
 10
4.15793
 20
9.37235
 30
0.0
 40
0
 41
0
  0
VERTEX
  8
0
 10
4.15956
 20
9.40332
 30
0.0
 40
0
 41
0
  0
VERTEX
  8
0
 10
4.16569
 20
9.44715
 30
0.0
 40
0
 41
0
  0
VERTEX
  8
0
 10
4.17914
 20
9.4974
 30
0.0
 40
0
 41
0
  0
VERTEX
  8
0
 10
4.20269
 20
9.54764
 30
0.0
 40
0
 41
0
  0
VERTEX
  8
0
 10
4.23915
 20
9.59147
 30
0.0
 40
0
 41
0
  0
VERTEX
  8
0
 10
4.29129
 20
9.62244
 30
0.0
 40
0
 41
0
  0
VERTEX
  8
0
 10
4.34435
 20
9.63417
 30
0.0
 40
0
 41
0
  0
VERTEX
  8
0
 10
4.36203
 20
9.63417
 30
0.0
 40
0
 41
0
  0
VERTEX
  8
0
 10
4.38032
 20
9.63417
 30
0.0
 40
0
 41
0
  0
VERTEX
  8
0
 10
4.43517
 20
9.62244
 30
0.0
 40
0
 41
0
  0
VERTEX
  8
0
 10
4.48926
 20
9.59147
 30
0.0
 40
0
 41
0
  0
VERTEX
  8
0
 10
4.52707
 20
9.54764
 30
0.0
 40
0
 41
0
  0
VERTEX
  8
0
 10
4.55149
 20
9.4974
 30
0.0
 40
0
 41
0
  0
VERTEX
  8
0
 10
4.56549
 20
9.44715
 30
0.0
 40
0
 41
0
  0
VERTEX
  8
0
 10
4.57189
 20
9.40332
 30
0.0
 40
0
 41
0
  0
VERTEX
  8
0
 10
4.57362
 20
9.37235
 30
0.0
 40
0
 41
0
  0
VERTEX
  8
0
 10
4.57357
 20
9.36057
 30
0.0
 40
0
 41
0
  0
VERTEX
  8
0
 10
4.57357
 20
9.36057
 30
0.0
 40
0
 41
0
  0
VERTEX
  8
0
 10
4.5746
 20
9.09229
 30
0.0
 40
0
 41
0
  0
VERTEX
  8
0
 10
4.15804
 20
9.09229
 30
0.0
 40
0
 41
0
  0
VERTEX
  8
0
 10
4.15804
 20
9.36057
 30
0.0
 40
0
 41
0
  0
SEQEND
 8
0
  0
POLYLINE
  8
0
 62
     0
 66
     1
 10
0
 20
0
 30
0.0
 70
     1
 40
0.75
 41
0.75
  0
VERTEX
  8
0
 10
4.15804
 20
9.36057
 30
0.0
 40
0.0104167
 41
0.0104167
  0
VERTEX
  8
0
 10
4.15804
 20
9.36057
 30
0.0
 40
0.0104167
 41
0.0104167
  0
VERTEX
  8
0
 10
4.15793
 20
9.37235
 30
0.0
 40
0.0104167
 41
0.0104167
  0
VERTEX
  8
0
 10
4.15956
 20
9.40332
 30
0.0
 40
0.0104167
 41
0.0104167
  0
VERTEX
  8
0
 10
4.16569
 20
9.44715
 30
0.0
 40
0.0104167
 41
0.0104167
  0
VERTEX
  8
0
 10
4.17914
 20
9.4974
 30
0.0
 40
0.0104167
 41
0.0104167
  0
VERTEX
  8
0
 10
4.20269
 20
9.54764
 30
0.0
 40
0.0104167
 41
0.0104167
  0
VERTEX
  8
0
 10
4.23915
 20
9.59147
 30
0.0
 40
0.0104167
 41
0.0104167
  0
VERTEX
  8
0
 10
4.29129
 20
9.62244
 30
0.0
 40
0.0104167
 41
0.0104167
  0
VERTEX
  8
0
 10
4.34435
 20
9.63417
 30
0.0
 40
0.0104167
 41
0.0104167
  0
VERTEX
  8
0
 10
4.36203
 20
9.63417
 30
0.0
 40
0.0104167
 41
0.0104167
  0
VERTEX
  8
0
 10
4.38032
 20
9.63417
 30
0.0
 40
0.0104167
 41
0.0104167
  0
VERTEX
  8
0
 10
4.43517
 20
9.62244
 30
0.0
 40
0.0104167
 41
0.0104167
  0
VERTEX
  8
0
 10
4.48926
 20
9.59147
 30
0.0
 40
0.0104167
 41
0.0104167
  0
VERTEX
  8
0
 10
4.52707
 20
9.54764
 30
0.0
 40
0.0104167
 41
0.0104167
  0
VERTEX
  8
0
 10
4.55149
 20
9.4974
 30
0.0
 40
0.0104167
 41
0.0104167
  0
VERTEX
  8
0
 10
4.56549
 20
9.44715
 30
0.0
 40
0.0104167
 41
0.0104167
  0
VERTEX
  8
0
 10
4.57189
 20
9.40332
 30
0.0
 40
0.0104167
 41
0.0104167
  0
VERTEX
  8
0
 10
4.57362
 20
9.37235
 30
0.0
 40
0.0104167
 41
0.0104167
  0
VERTEX
  8
0
 10
4.57357
 20
9.36057
 30
0.0
 40
0.0104167
 41
0.0104167
  0
VERTEX
  8
0
 10
4.57357
 20
9.36057
 30
0.0
 40
0.0104167
 41
0.0104167
  0
VERTEX
  8
0
 10
4.5746
 20
9.09229
 30
0.0
 40
0.0104167
 41
0.0104167
  0
VERTEX
  8
0
 10
4.15804
 20
9.09229
 30
0.0
 40
0.0104167
 41
0.0104167
  0
VERTEX
  8
0
 10
4.15804
 20
9.36057
 30
0.0
 40
0.0104167
 41
0.0104167
  0
SEQEND
 8
0
  0
POLYLINE
  8
0
 62
     7
 66
     1
 10
0
 20
0
 30
0.0
 70
     1
 40
0
 41
0
  0
VERTEX
  8
0
 10
4.33322
 20
9.01443
 30
0.0
 40
0
 41
0
  0
VERTEX
  8
0
 10
4.39942
 20
9.01443
 30
0.0
 40
0
 41
0
  0
VERTEX
  8
0
 10
4.39942
 20
8.98286
 30
0.0
 40
0
 41
0
  0
VERTEX
  8
0
 10
4.33322
 20
8.98286
 30
0.0
 40
0
 41
0
  0
VERTEX
  8
0
 10
4.33322
 20
9.01443
 30
0.0
 40
0
 41
0
  0
SEQEND
 8
0
  0
POLYLINE
  8
0
 62
     0
 66
     1
 10
0
 20
0
 30
0.0
 70
     1
 40
0.75
 41
0.75
  0
VERTEX
  8
0
 10
4.33322
 20
9.01443
 30
0.0
 40
0.0104167
 41
0.0104167
  0
VERTEX
  8
0
 10
4.39942
 20
9.01443
 30
0.0
 40
0.0104167
 41
0.0104167
  0
VERTEX
  8
0
 10
4.39942
 20
8.98286
 30
0.0
 40
0.0104167
 41
0.0104167
  0
VERTEX
  8
0
 10
4.33322
 20
8.98286
 30
0.0
 40
0.0104167
 41
0.0104167
  0
VERTEX
  8
0
 10
4.33322
 20
9.01443
 30
0.0
 40
0.0104167
 41
0.0104167
  0
SEQEND
 8
0
  0
POLYLINE
  8
0
 62
     7
 66
     1
 10
0
 20
0
 30
0.0
 70
     1
 40
0
 41
0
  0
VERTEX
  8
0
 10
2.21457
 20
10.8422
 30
0.0
 40
0
 41
0
  0
VERTEX
  8
0
 10
3.74881
 20
10.8422
 30
0.0
 40
0
 41
0
  0
VERTEX
  8
0
 10
3.74881
 20
10.1351
 30
0.0
 40
0
 41
0
  0
VERTEX
  8
0
 10
2.21457
 20
10.1351
 30
0.0
 40
0
 41
0
  0
VERTEX
  8
0
 10
2.21457
 20
10.8422
 30
0.0
 40
0
 41
0
  0
SEQEND
 8
0
  0
POLYLINE
  8
0
 62
     0
 66
     1
 10
0
 20
0
 30
0.0
 70
     1
 40
0.75
 41
0.75
  0
VERTEX
  8
0
 10
2.21457
 20
10.8422
 30
0.0
 40
0.0104167
 41
0.0104167
  0
VERTEX
  8
0
 10
3.74881
 20
10.8422
 30
0.0
 40
0.0104167
 41
0.0104167
  0
VERTEX
  8
0
 10
3.74881
 20
10.1351
 30
0.0
 40
0.0104167
 41
0.0104167
  0
VERTEX
  8
0
 10
2.21457
 20
10.1351
 30
0.0
 40
0.0104167
 41
0.0104167
  0
VERTEX
  8
0
 10
2.21457
 20
10.8422
 30
0.0
 40
0.0104167
 41
0.0104167
  0
SEQEND
 8
0
  0
POLYLINE
  8
0
 62
     253
 66
     1
 10
0
 20
0
 30
0.0
 40
0.75
 41
0.75
  0
VERTEX
  8
0
 10
2.21457
 20
10.4887
 30
0.0
 40
0.0104167
 41
0.0104167
  0
VERTEX
  8
0
 10
3.74886
 20
10.4887
 30
0.0
 40
0.0104167
 41
0.0104167
  0
SEQEND
 8
0
  0
POLYLINE
  8
0
 62
     7
 66
     1
 10
0
 20
0
 30
0.0
 70
     1
 40
0
 41
0
  0
VERTEX
  8
0
 10
2.21457
 20
10.1351
 30
0.0
 40
0
 41
0
  0
VERTEX
  8
0
 10
2.82135
 20
10.1351
 30
0.0
 40
0
 41
0
  0
VERTEX
  8
0
 10
2.82135
 20
8.90272
 30
0.0
 40
0
 41
0
  0
VERTEX
  8
0
 10
2.21457
 20
8.90272
 30
0.0
 40
0
 41
0
  0
VERTEX
  8
0
 10
2.21457
 20
10.1351
 30
0.0
 40
0
 41
0
  0
SEQEND
 8
0
  0
POLYLINE
  8
0
 62
     0
 66
     1
 10
0
 20
0
 30
0.0
 70
     1
 40
0.75
 41
0.75
  0
VERTEX
  8
0
 10
2.21457
 20
10.1351
 30
0.0
 40
0.0104167
 41
0.0104167
  0
VERTEX
  8
0
 10
2.21457
 20
8.90272
 30
0.0
 40
0.0104167
 41
0.0104167
  0
VERTEX
  8
0
 10
2.82135
 20
8.90272
 30
0.0
 40
0.0104167
 41
0.0104167
  0
VERTEX
  8
0
 10
2.82135
 20
10.1351
 30
0.0
 40
0.0104167
 41
0.0104167
  0
VERTEX
  8
0
 10
2.21457
 20
10.1351
 30
0.0
 40
0.0104167
 41
0.0104167
  0
SEQEND
 8
0
  0
POLYLINE
  8
0
 62
     7
 66
     1
 10
0
 20
0
 30
0.0
 70
     1
 40
0
 41
0
  0
VERTEX
  8
0
 10
7.60237
 20
12.0165
 30
0.0
 40
0
 41
0
  0
VERTEX
  8
0
 10
7.71907
 20
12.0165
 30
0.0
 40
0
 41
0
  0
VERTEX
  8
0
 10
7.71907
 20
11.953
 30
0.0
 40
0
 41
0
  0
VERTEX
  8
0
 10
7.60237
 20
11.953
 30
0.0
 40
0
 41
0
  0
VERTEX
  8
0
 10
7.60237
 20
12.0165
 30
0.0
 40
0
 41
0
  0
SEQEND
 8
0
  0
POLYLINE
  8
0
 62
     0
 66
     1
 10
0
 20
0
 30
0.0
 70
     1
 40
0.75
 41
0.75
  0
VERTEX
  8
0
 10
7.60237
 20
12.0165
 30
0.0
 40
0.0104167
 41
0.0104167
  0
VERTEX
  8
0
 10
7.71907
 20
12.0165
 30
0.0
 40
0.0104167
 41
0.0104167
  0
VERTEX
  8
0
 10
7.71907
 20
11.953
 30
0.0
 40
0.0104167
 41
0.0104167
  0
VERTEX
  8
0
 10
7.60237
 20
11.953
 30
0.0
 40
0.0104167
 41
0.0104167
  0
VERTEX
  8
0
 10
7.60237
 20
12.0165
 30
0.0
 40
0.0104167
 41
0.0104167
  0
SEQEND
 8
0
  0
POLYLINE
  8
0
 62
     7
 66
     1
 10
0
 20
0
 30
0.0
 70
     1
 40
0
 41
0
  0
VERTEX
  8
0
 10
7.74718
 20
12.0165
 30
0.0
 40
0
 41
0
  0
VERTEX
  8
0
 10
7.86387
 20
12.0165
 30
0.0
 40
0
 41
0
  0
VERTEX
  8
0
 10
7.86387
 20
11.953
 30
0.0
 40
0
 41
0
  0
VERTEX
  8
0
 10
7.74718
 20
11.953
 30
0.0
 40
0
 41
0
  0
VERTEX
  8
0
 10
7.74718
 20
12.0165
 30
0.0
 40
0
 41
0
  0
SEQEND
 8
0
  0
POLYLINE
  8
0
 62
     0
 66
     1
 10
0
 20
0
 30
0.0
 70
     1
 40
0.75
 41
0.75
  0
VERTEX
  8
0
 10
7.74718
 20
12.0165
 30
0.0
 40
0.0104167
 41
0.0104167
  0
VERTEX
  8
0
 10
7.86387
 20
12.0165
 30
0.0
 40
0.0104167
 41
0.0104167
  0
VERTEX
  8
0
 10
7.86387
 20
11.953
 30
0.0
 40
0.0104167
 41
0.0104167
  0
VERTEX
  8
0
 10
7.74718
 20
11.953
 30
0.0
 40
0.0104167
 41
0.0104167
  0
VERTEX
  8
0
 10
7.74718
 20
12.0165
 30
0.0
 40
0.0104167
 41
0.0104167
  0
SEQEND
 8
0
  0
POLYLINE
  8
0
 62
     7
 66
     1
 10
0
 20
0
 30
0.0
 70
     1
 40
0
 41
0
  0
VERTEX
  8
0
 10
7.86279
 20
12.0165
 30
0.0
 40
0
 41
0
  0
VERTEX
  8
0
 10
7.89822
 20
12.0165
 30
0.0
 40
0
 41
0
  0
VERTEX
  8
0
 10
7.89822
 20
11.953
 30
0.0
 40
0
 41
0
  0
VERTEX
  8
0
 10
7.86279
 20
11.953
 30
0.0
 40
0
 41
0
  0
VERTEX
  8
0
 10
7.86279
 20
12.0165
 30
0.0
 40
0
 41
0
  0
SEQEND
 8
0
  0
POLYLINE
  8
0
 62
     0
 66
     1
 10
0
 20
0
 30
0.0
 70
     1
 40
0.75
 41
0.75
  0
VERTEX
  8
0
 10
7.86279
 20
12.0165
 30
0.0
 40
0.0104167
 41
0.0104167
  0
VERTEX
  8
0
 10
7.89822
 20
12.0165
 30
0.0
 40
0.0104167
 41
0.0104167
  0
VERTEX
  8
0
 10
7.89822
 20
11.953
 30
0.0
 40
0.0104167
 41
0.0104167
  0
VERTEX
  8
0
 10
7.86279
 20
11.953
 30
0.0
 40
0.0104167
 41
0.0104167
  0
VERTEX
  8
0
 10
7.86279
 20
12.0165
 30
0.0
 40
0.0104167
 41
0.0104167
  0
SEQEND
 8
0
  0
POLYLINE
  8
0
 62
     7
 66
     1
 10
0
 20
0
 30
0.0
 70
     1
 40
0
 41
0
  0
VERTEX
  8
0
 10
7.56907
 20
12.0165
 30
0.0
 40
0
 41
0
  0
VERTEX
  8
0
 10
7.60237
 20
12.0165
 30
0.0
 40
0
 41
0
  0
VERTEX
  8
0
 10
7.60237
 20
11.953
 30
0.0
 40
0
 41
0
  0
VERTEX
  8
0
 10
7.56907
 20
11.953
 30
0.0
 40
0
 41
0
  0
VERTEX
  8
0
 10
7.56907
 20
12.0165
 30
0.0
 40
0
 41
0
  0
SEQEND
 8
0
  0
POLYLINE
  8
0
 62
     0
 66
     1
 10
0
 20
0
 30
0.0
 70
     1
 40
0.75
 41
0.75
  0
VERTEX
  8
0
 10
7.56907
 20
12.0165
 30
0.0
 40
0.0104167
 41
0.0104167
  0
VERTEX
  8
0
 10
7.60237
 20
12.0165
 30
0.0
 40
0.0104167
 41
0.0104167
  0
VERTEX
  8
0
 10
7.60237
 20
11.953
 30
0.0
 40
0.0104167
 41
0.0104167
  0
VERTEX
  8
0
 10
7.56907
 20
11.953
 30
0.0
 40
0.0104167
 41
0.0104167
  0
VERTEX
  8
0
 10
7.56907
 20
12.0165
 30
0.0
 40
0.0104167
 41
0.0104167
  0
SEQEND
 8
0
  0
POLYLINE
  8
0
 62
     7
 66
     1
 10
0
 20
0
 30
0.0
 70
     1
 40
0
 41
0
  0
VERTEX
  8
0
 10
7.71907
 20
11.9332
 30
0.0
 40
0
 41
0
  0
VERTEX
  8
0
 10
7.71907
 20
11.9269
 30
0.0
 40
0
 41
0
  0
VERTEX
  8
0
 10
7.71539
 20
11.908
 30
0.0
 40
0
 41
0
  0
VERTEX
  8
0
 10
7.70551
 20
11.8856
 30
0.0
 40
0
 41
0
  0
VERTEX
  8
0
 10
7.70242
 20
11.8811
 30
0.0
 40
0
 41
0
  0
VERTEX
  8
0
 10
7.70133
 20
11.8796
 30
0.0
 40
0
 41
0
  0
VERTEX
  8
0
 10
7.69119
 20
11.865
 30
0.0
 40
0
 41
0
  0
VERTEX
  8
0
 10
7.69092
 20
11.8634
 30
0.0
 40
0
 41
0
  0
VERTEX
  8
0
 10
7.69037
 20
11.8606
 30
0.0
 40
0
 41
0
  0
VERTEX
  8
0
 10
7.69456
 20
11.8441
 30
0.0
 40
0
 41
0
  0
VERTEX
  8
0
 10
7.71121
 20
11.8312
 30
0.0
 40
0
 41
0
  0
VERTEX
  8
0
 10
7.71696
 20
11.8301
 30
0.0
 40
0
 41
0
  0
VERTEX
  8
0
 10
7.71826
 20
11.8299
 30
0.0
 40
0
 41
0
  0
VERTEX
  8
0
 10
7.72982
 20
11.829
 30
0.0
 40
0
 41
0
  0
VERTEX
  8
0
 10
7.73367
 20
11.829
 30
0.0
 40
0
 41
0
  0
VERTEX
  8
0
 10
7.73258
 20
11.829
 30
0.0
 40
0
 41
0
  0
VERTEX
  8
0
 10
7.73676
 20
11.829
 30
0.0
 40
0
 41
0
  0
VERTEX
  8
0
 10
7.74799
 20
11.8299
 30
0.0
 40
0
 41
0
  0
VERTEX
  8
0
 10
7.74929
 20
11.8301
 30
0.0
 40
0
 41
0
  0
VERTEX
  8
0
 10
7.75499
 20
11.8312
 30
0.0
 40
0
 41
0
  0
VERTEX
  8
0
 10
7.77165
 20
11.8441
 30
0.0
 40
0
 41
0
  0
VERTEX
  8
0
 10
7.77582
 20
11.8606
 30
0.0
 40
0
 41
0
  0
VERTEX
  8
0
 10
7.77533
 20
11.8634
 30
0.0
 40
0
 41
0
  0
VERTEX
  8
0
 10
7.77507
 20
11.865
 30
0.0
 40
0
 41
0
  0
VERTEX
  8
0
 10
7.76486
 20
11.8796
 30
0.0
 40
0
 41
0
  0
VERTEX
  8
0
 10
7.76383
 20
11.8811
 30
0.0
 40
0
 41
0
  0
VERTEX
  8
0
 10
7.76069
 20
11.8856
 30
0.0
 40
0
 41
0
  0
VERTEX
  8
0
 10
7.75082
 20
11.908
 30
0.0
 40
0
 41
0
  0
VERTEX
  8
0
 10
7.74718
 20
11.9269
 30
0.0
 40
0
 41
0
  0
VERTEX
  8
0
 10
7.74718
 20
11.9332
 30
0.0
 40
0
 41
0
  0
SEQEND
 8
0
  0
POLYLINE
  8
0
 62
     0
 66
     1
 10
0
 20
0
 30
0.0
 40
0.75
 41
0.75
  0
VERTEX
  8
0
 10
7.71907
 20
11.9332
 30
0.0
 40
0.0104167
 41
0.0104167
  0
VERTEX
  8
0
 10
7.71907
 20
11.9269
 30
0.0
 40
0.0104167
 41
0.0104167
  0
VERTEX
  8
0
 10
7.71539
 20
11.908
 30
0.0
 40
0.0104167
 41
0.0104167
  0
VERTEX
  8
0
 10
7.70551
 20
11.8856
 30
0.0
 40
0.0104167
 41
0.0104167
  0
VERTEX
  8
0
 10
7.70242
 20
11.8811
 30
0.0
 40
0.0104167
 41
0.0104167
  0
VERTEX
  8
0
 10
7.70133
 20
11.8796
 30
0.0
 40
0.0104167
 41
0.0104167
  0
VERTEX
  8
0
 10
7.69119
 20
11.865
 30
0.0
 40
0.0104167
 41
0.0104167
  0
VERTEX
  8
0
 10
7.69092
 20
11.8634
 30
0.0
 40
0.0104167
 41
0.0104167
  0
VERTEX
  8
0
 10
7.69037
 20
11.8606
 30
0.0
 40
0.0104167
 41
0.0104167
  0
VERTEX
  8
0
 10
7.69456
 20
11.8441
 30
0.0
 40
0.0104167
 41
0.0104167
  0
VERTEX
  8
0
 10
7.71121
 20
11.8312
 30
0.0
 40
0.0104167
 41
0.0104167
  0
VERTEX
  8
0
 10
7.71696
 20
11.8301
 30
0.0
 40
0.0104167
 41
0.0104167
  0
VERTEX
  8
0
 10
7.71826
 20
11.8299
 30
0.0
 40
0.0104167
 41
0.0104167
  0
VERTEX
  8
0
 10
7.72982
 20
11.829
 30
0.0
 40
0.0104167
 41
0.0104167
  0
VERTEX
  8
0
 10
7.73367
 20
11.829
 30
0.0
 40
0.0104167
 41
0.0104167
  0
VERTEX
  8
0
 10
7.73258
 20
11.829
 30
0.0
 40
0.0104167
 41
0.0104167
  0
VERTEX
  8
0
 10
7.73676
 20
11.829
 30
0.0
 40
0.0104167
 41
0.0104167
  0
VERTEX
  8
0
 10
7.74799
 20
11.8299
 30
0.0
 40
0.0104167
 41
0.0104167
  0
VERTEX
  8
0
 10
7.74929
 20
11.8301
 30
0.0
 40
0.0104167
 41
0.0104167
  0
VERTEX
  8
0
 10
7.75499
 20
11.8312
 30
0.0
 40
0.0104167
 41
0.0104167
  0
VERTEX
  8
0
 10
7.77165
 20
11.8441
 30
0.0
 40
0.0104167
 41
0.0104167
  0
VERTEX
  8
0
 10
7.77582
 20
11.8606
 30
0.0
 40
0.0104167
 41
0.0104167
  0
VERTEX
  8
0
 10
7.77533
 20
11.8634
 30
0.0
 40
0.0104167
 41
0.0104167
  0
VERTEX
  8
0
 10
7.77507
 20
11.865
 30
0.0
 40
0.0104167
 41
0.0104167
  0
VERTEX
  8
0
 10
7.76486
 20
11.8796
 30
0.0
 40
0.0104167
 41
0.0104167
  0
VERTEX
  8
0
 10
7.76383
 20
11.8811
 30
0.0
 40
0.0104167
 41
0.0104167
  0
VERTEX
  8
0
 10
7.76069
 20
11.8856
 30
0.0
 40
0.0104167
 41
0.0104167
  0
VERTEX
  8
0
 10
7.75082
 20
11.908
 30
0.0
 40
0.0104167
 41
0.0104167
  0
VERTEX
  8
0
 10
7.74718
 20
11.9269
 30
0.0
 40
0.0104167
 41
0.0104167
  0
VERTEX
  8
0
 10
7.74718
 20
11.9332
 30
0.0
 40
0.0104167
 41
0.0104167
  0
SEQEND
 8
0
  0
POLYLINE
  8
0
 62
     7
 66
     1
 10
0
 20
0
 30
0.0
 70
     1
 40
0
 41
0
  0
VERTEX
  8
0
 10
7.69092
 20
11.8624
 30
0.0
 40
0
 41
0
  0
VERTEX
  8
0
 10
7.69119
 20
11.8619
 30
0.0
 40
0
 41
0
  0
VERTEX
  8
0
 10
7.70301
 20
11.8517
 30
0.0
 40
0
 41
0
  0
VERTEX
  8
0
 10
7.72678
 20
11.8426
 30
0.0
 40
0
 41
0
  0
VERTEX
  8
0
 10
7.73469
 20
11.8426
 30
0.0
 40
0
 41
0
  0
VERTEX
  8
0
 10
7.74094
 20
11.8429
 30
0.0
 40
0
 41
0
  0
VERTEX
  8
0
 10
7.76357
 20
11.8521
 30
0.0
 40
0
 41
0
  0
VERTEX
  8
0
 10
7.77479
 20
11.8619
 30
0.0
 40
0
 41
0
  0
VERTEX
  8
0
 10
7.77533
 20
11.8624
 30
0.0
 40
0
 41
0
  0
SEQEND
 8
0
  0
POLYLINE
  8
0
 62
     0
 66
     1
 10
0
 20
0
 30
0.0
 40
0.75
 41
0.75
  0
VERTEX
  8
0
 10
7.69092
 20
11.8624
 30
0.0
 40
0.0104167
 41
0.0104167
  0
VERTEX
  8
0
 10
7.69119
 20
11.8619
 30
0.0
 40
0.0104167
 41
0.0104167
  0
VERTEX
  8
0
 10
7.70301
 20
11.8517
 30
0.0
 40
0.0104167
 41
0.0104167
  0
VERTEX
  8
0
 10
7.72678
 20
11.8426
 30
0.0
 40
0.0104167
 41
0.0104167
  0
VERTEX
  8
0
 10
7.73469
 20
11.8426
 30
0.0
 40
0.0104167
 41
0.0104167
  0
VERTEX
  8
0
 10
7.74094
 20
11.8429
 30
0.0
 40
0.0104167
 41
0.0104167
  0
VERTEX
  8
0
 10
7.76357
 20
11.8521
 30
0.0
 40
0.0104167
 41
0.0104167
  0
VERTEX
  8
0
 10
7.77479
 20
11.8619
 30
0.0
 40
0.0104167
 41
0.0104167
  0
VERTEX
  8
0
 10
7.77533
 20
11.8624
 30
0.0
 40
0.0104167
 41
0.0104167
  0
SEQEND
 8
0
  0
POLYLINE
  8
0
 62
     7
 66
     1
 10
0
 20
0
 30
0.0
 70
     1
 40
0
 41
0
  0
VERTEX
  8
0
 10
7.71907
 20
12.0165
 30
0.0
 40
0
 41
0
  0
VERTEX
  8
0
 10
7.74718
 20
12.0165
 30
0.0
 40
0
 41
0
  0
VERTEX
  8
0
 10
7.74718
 20
11.9332
 30
0.0
 40
0
 41
0
  0
VERTEX
  8
0
 10
7.74013
 20
11.9332
 30
0.0
 40
0
 41
0
  0
VERTEX
  8
0
 10
7.72433
 20
11.9332
 30
0.0
 40
0
 41
0
  0
VERTEX
  8
0
 10
7.71907
 20
11.9332
 30
0.0
 40
0
 41
0
  0
VERTEX
  8
0
 10
7.71907
 20
11.954
 30
0.0
 40
0
 41
0
  0
VERTEX
  8
0
 10
7.71907
 20
12.0009
 30
0.0
 40
0
 41
0
  0
VERTEX
  8
0
 10
7.71907
 20
12.0165
 30
0.0
 40
0
 41
0
  0
SEQEND
 8
0
  0
POLYLINE
  8
0
 62
     0
 66
     1
 10
0
 20
0
 30
0.0
 70
     1
 40
0.75
 41
0.75
  0
VERTEX
  8
0
 10
7.71907
 20
12.0165
 30
0.0
 40
0.0104167
 41
0.0104167
  0
VERTEX
  8
0
 10
7.74718
 20
12.0165
 30
0.0
 40
0.0104167
 41
0.0104167
  0
VERTEX
  8
0
 10
7.74718
 20
11.9332
 30
0.0
 40
0.0104167
 41
0.0104167
  0
VERTEX
  8
0
 10
7.74013
 20
11.9332
 30
0.0
 40
0.0104167
 41
0.0104167
  0
VERTEX
  8
0
 10
7.72433
 20
11.9332
 30
0.0
 40
0.0104167
 41
0.0104167
  0
VERTEX
  8
0
 10
7.71907
 20
11.9332
 30
0.0
 40
0.0104167
 41
0.0104167
  0
VERTEX
  8
0
 10
7.71907
 20
11.954
 30
0.0
 40
0.0104167
 41
0.0104167
  0
VERTEX
  8
0
 10
7.71907
 20
12.0009
 30
0.0
 40
0.0104167
 41
0.0104167
  0
VERTEX
  8
0
 10
7.71907
 20
12.0165
 30
0.0
 40
0.0104167
 41
0.0104167
  0
SEQEND
 8
0
  0
POLYLINE
  8
0
 62
     7
 66
     1
 10
0
 20
0
 30
0.0
 70
     1
 40
0
 41
0
  0
VERTEX
  8
0
 10
7.60237
 20
11.9843
 30
0.0
 40
0
 41
0
  0
VERTEX
  8
0
 10
7.60558
 20
11.9855
 30
0.0
 40
0
 41
0
  0
VERTEX
  8
0
 10
7.61524
 20
11.9894
 30
0.0
 40
0
 41
0
  0
VERTEX
  8
0
 10
7.618
 20
11.9905
 30
0.0
 40
0
 41
0
  0
VERTEX
  8
0
 10
7.618
 20
11.9905
 30
0.0
 40
0
 41
0
  0
VERTEX
  8
0
 10
7.618
 20
11.9891
 30
0.0
 40
0
 41
0
  0
VERTEX
  8
0
 10
7.618
 20
11.9848
 30
0.0
 40
0
 41
0
  0
VERTEX
  8
0
 10
7.618
 20
11.9805
 30
0.0
 40
0
 41
0
  0
VERTEX
  8
0
 10
7.618
 20
11.9791
 30
0.0
 40
0
 41
0
  0
VERTEX
  8
0
 10
7.618
 20
11.9791
 30
0.0
 40
0
 41
0
  0
VERTEX
  8
0
 10
7.61561
 20
11.9797
 30
0.0
 40
0
 41
0
  0
VERTEX
  8
0
 10
7.60562
 20
11.9831
 30
0.0
 40
0
 41
0
  0
VERTEX
  8
0
 10
7.60237
 20
11.9843
 30
0.0
 40
0
 41
0
  0
SEQEND
 8
0
  0
POLYLINE
  8
0
 62
     0
 66
     1
 10
0
 20
0
 30
0.0
 70
     1
 40
0.75
 41
0.75
  0
VERTEX
  8
0
 10
7.60237
 20
11.9843
 30
0.0
 40
0.0104167
 41
0.0104167
  0
VERTEX
  8
0
 10
7.60558
 20
11.9855
 30
0.0
 40
0.0104167
 41
0.0104167
  0
VERTEX
  8
0
 10
7.61524
 20
11.9894
 30
0.0
 40
0.0104167
 41
0.0104167
  0
VERTEX
  8
0
 10
7.618
 20
11.9905
 30
0.0
 40
0.0104167
 41
0.0104167
  0
VERTEX
  8
0
 10
7.618
 20
11.9905
 30
0.0
 40
0.0104167
 41
0.0104167
  0
VERTEX
  8
0
 10
7.618
 20
11.9891
 30
0.0
 40
0.0104167
 41
0.0104167
  0
VERTEX
  8
0
 10
7.618
 20
11.9848
 30
0.0
 40
0.0104167
 41
0.0104167
  0
VERTEX
  8
0
 10
7.618
 20
11.9805
 30
0.0
 40
0.0104167
 41
0.0104167
  0
VERTEX
  8
0
 10
7.618
 20
11.9791
 30
0.0
 40
0.0104167
 41
0.0104167
  0
VERTEX
  8
0
 10
7.618
 20
11.9791
 30
0.0
 40
0.0104167
 41
0.0104167
  0
VERTEX
  8
0
 10
7.61561
 20
11.9797
 30
0.0
 40
0.0104167
 41
0.0104167
  0
VERTEX
  8
0
 10
7.60562
 20
11.9831
 30
0.0
 40
0.0104167
 41
0.0104167
  0
VERTEX
  8
0
 10
7.60237
 20
11.9843
 30
0.0
 40
0.0104167
 41
0.0104167
  0
SEQEND
 8
0
  0
POLYLINE
  8
0
 62
     7
 66
     1
 10
0
 20
0
 30
0.0
 70
     1
 40
0
 41
0
  0
VERTEX
  8
0
 10
7.86279
 20
11.9843
 30
0.0
 40
0
 41
0
  0
VERTEX
  8
0
 10
7.85954
 20
11.9855
 30
0.0
 40
0
 41
0
  0
VERTEX
  8
0
 10
7.84987
 20
11.9894
 30
0.0
 40
0
 41
0
  0
VERTEX
  8
0
 10
7.84717
 20
11.9905
 30
0.0
 40
0
 41
0
  0
VERTEX
  8
0
 10
7.84717
 20
11.9905
 30
0.0
 40
0
 41
0
  0
VERTEX
  8
0
 10
7.84717
 20
11.9891
 30
0.0
 40
0
 41
0
  0
VERTEX
  8
0
 10
7.84717
 20
11.9848
 30
0.0
 40
0
 41
0
  0
VERTEX
  8
0
 10
7.84717
 20
11.9805
 30
0.0
 40
0
 41
0
  0
VERTEX
  8
0
 10
7.84717
 20
11.9791
 30
0.0
 40
0
 41
0
  0
VERTEX
  8
0
 10
7.84717
 20
11.9791
 30
0.0
 40
0
 41
0
  0
VERTEX
  8
0
 10
7.8495
 20
11.9797
 30
0.0
 40
0
 41
0
  0
VERTEX
  8
0
 10
7.85949
 20
11.9831
 30
0.0
 40
0
 41
0
  0
VERTEX
  8
0
 10
7.86279
 20
11.9843
 30
0.0
 40
0
 41
0
  0
SEQEND
 8
0
  0
POLYLINE
  8
0
 62
     0
 66
     1
 10
0
 20
0
 30
0.0
 70
     1
 40
0.75
 41
0.75
  0
VERTEX
  8
0
 10
7.86279
 20
11.9843
 30
0.0
 40
0.0104167
 41
0.0104167
  0
VERTEX
  8
0
 10
7.85954
 20
11.9855
 30
0.0
 40
0.0104167
 41
0.0104167
  0
VERTEX
  8
0
 10
7.84987
 20
11.9894
 30
0.0
 40
0.0104167
 41
0.0104167
  0
VERTEX
  8
0
 10
7.84717
 20
11.9905
 30
0.0
 40
0.0104167
 41
0.0104167
  0
VERTEX
  8
0
 10
7.84717
 20
11.9905
 30
0.0
 40
0.0104167
 41
0.0104167
  0
VERTEX
  8
0
 10
7.84717
 20
11.9891
 30
0.0
 40
0.0104167
 41
0.0104167
  0
VERTEX
  8
0
 10
7.84717
 20
11.9848
 30
0.0
 40
0.0104167
 41
0.0104167
  0
VERTEX
  8
0
 10
7.84717
 20
11.9805
 30
0.0
 40
0.0104167
 41
0.0104167
  0
VERTEX
  8
0
 10
7.84717
 20
11.9791
 30
0.0
 40
0.0104167
 41
0.0104167
  0
VERTEX
  8
0
 10
7.84717
 20
11.9791
 30
0.0
 40
0.0104167
 41
0.0104167
  0
VERTEX
  8
0
 10
7.8495
 20
11.9797
 30
0.0
 40
0.0104167
 41
0.0104167
  0
VERTEX
  8
0
 10
7.85949
 20
11.9831
 30
0.0
 40
0.0104167
 41
0.0104167
  0
VERTEX
  8
0
 10
7.86279
 20
11.9843
 30
0.0
 40
0.0104167
 41
0.0104167
  0
SEQEND
 8
0
  0
POLYLINE
  8
0
 62
     7
 66
     1
 10
0
 20
0
 30
0.0
 70
     1
 40
0
 41
0
  0
VERTEX
  8
0
 10
6.80414
 20
12.0165
 30
0.0
 40
0
 41
0
  0
VERTEX
  8
0
 10
6.92079
 20
12.0165
 30
0.0
 40
0
 41
0
  0
VERTEX
  8
0
 10
6.92079
 20
11.953
 30
0.0
 40
0
 41
0
  0
VERTEX
  8
0
 10
6.80414
 20
11.953
 30
0.0
 40
0
 41
0
  0
VERTEX
  8
0
 10
6.80414
 20
12.0165
 30
0.0
 40
0
 41
0
  0
SEQEND
 8
0
  0
POLYLINE
  8
0
 62
     0
 66
     1
 10
0
 20
0
 30
0.0
 70
     1
 40
0.75
 41
0.75
  0
VERTEX
  8
0
 10
6.80414
 20
12.0165
 30
0.0
 40
0.0104167
 41
0.0104167
  0
VERTEX
  8
0
 10
6.92079
 20
12.0165
 30
0.0
 40
0.0104167
 41
0.0104167
  0
VERTEX
  8
0
 10
6.92079
 20
11.953
 30
0.0
 40
0.0104167
 41
0.0104167
  0
VERTEX
  8
0
 10
6.80414
 20
11.953
 30
0.0
 40
0.0104167
 41
0.0104167
  0
VERTEX
  8
0
 10
6.80414
 20
12.0165
 30
0.0
 40
0.0104167
 41
0.0104167
  0
SEQEND
 8
0
  0
POLYLINE
  8
0
 62
     7
 66
     1
 10
0
 20
0
 30
0.0
 70
     1
 40
0
 41
0
  0
VERTEX
  8
0
 10
6.94894
 20
12.0165
 30
0.0
 40
0
 41
0
  0
VERTEX
  8
0
 10
7.0656
 20
12.0165
 30
0.0
 40
0
 41
0
  0
VERTEX
  8
0
 10
7.0656
 20
11.953
 30
0.0
 40
0
 41
0
  0
VERTEX
  8
0
 10
6.94894
 20
11.953
 30
0.0
 40
0
 41
0
  0
VERTEX
  8
0
 10
6.94894
 20
12.0165
 30
0.0
 40
0
 41
0
  0
SEQEND
 8
0
  0
POLYLINE
  8
0
 62
     0
 66
     1
 10
0
 20
0
 30
0.0
 70
     1
 40
0.75
 41
0.75
  0
VERTEX
  8
0
 10
6.94894
 20
12.0165
 30
0.0
 40
0.0104167
 41
0.0104167
  0
VERTEX
  8
0
 10
7.0656
 20
12.0165
 30
0.0
 40
0.0104167
 41
0.0104167
  0
VERTEX
  8
0
 10
7.0656
 20
11.953
 30
0.0
 40
0.0104167
 41
0.0104167
  0
VERTEX
  8
0
 10
6.94894
 20
11.953
 30
0.0
 40
0.0104167
 41
0.0104167
  0
VERTEX
  8
0
 10
6.94894
 20
12.0165
 30
0.0
 40
0.0104167
 41
0.0104167
  0
SEQEND
 8
0
  0
POLYLINE
  8
0
 62
     7
 66
     1
 10
0
 20
0
 30
0.0
 70
     1
 40
0
 41
0
  0
VERTEX
  8
0
 10
7.06456
 20
12.0165
 30
0.0
 40
0
 41
0
  0
VERTEX
  8
0
 10
7.09999
 20
12.0165
 30
0.0
 40
0
 41
0
  0
VERTEX
  8
0
 10
7.09999
 20
11.953
 30
0.0
 40
0
 41
0
  0
VERTEX
  8
0
 10
7.06456
 20
11.953
 30
0.0
 40
0
 41
0
  0
VERTEX
  8
0
 10
7.06456
 20
12.0165
 30
0.0
 40
0
 41
0
  0
SEQEND
 8
0
  0
POLYLINE
  8
0
 62
     0
 66
     1
 10
0
 20
0
 30
0.0
 70
     1
 40
0.75
 41
0.75
  0
VERTEX
  8
0
 10
7.06456
 20
12.0165
 30
0.0
 40
0.0104167
 41
0.0104167
  0
VERTEX
  8
0
 10
7.09999
 20
12.0165
 30
0.0
 40
0.0104167
 41
0.0104167
  0
VERTEX
  8
0
 10
7.09999
 20
11.953
 30
0.0
 40
0.0104167
 41
0.0104167
  0
VERTEX
  8
0
 10
7.06456
 20
11.953
 30
0.0
 40
0.0104167
 41
0.0104167
  0
VERTEX
  8
0
 10
7.06456
 20
12.0165
 30
0.0
 40
0.0104167
 41
0.0104167
  0
SEQEND
 8
0
  0
POLYLINE
  8
0
 62
     7
 66
     1
 10
0
 20
0
 30
0.0
 70
     1
 40
0
 41
0
  0
VERTEX
  8
0
 10
6.77078
 20
12.0165
 30
0.0
 40
0
 41
0
  0
VERTEX
  8
0
 10
6.80414
 20
12.0165
 30
0.0
 40
0
 41
0
  0
VERTEX
  8
0
 10
6.80414
 20
11.953
 30
0.0
 40
0
 41
0
  0
VERTEX
  8
0
 10
6.77078
 20
11.953
 30
0.0
 40
0
 41
0
  0
VERTEX
  8
0
 10
6.77078
 20
12.0165
 30
0.0
 40
0
 41
0
  0
SEQEND
 8
0
  0
POLYLINE
  8
0
 62
     0
 66
     1
 10
0
 20
0
 30
0.0
 70
     1
 40
0.75
 41
0.75
  0
VERTEX
  8
0
 10
6.77078
 20
12.0165
 30
0.0
 40
0.0104167
 41
0.0104167
  0
VERTEX
  8
0
 10
6.80414
 20
12.0165
 30
0.0
 40
0.0104167
 41
0.0104167
  0
VERTEX
  8
0
 10
6.80414
 20
11.953
 30
0.0
 40
0.0104167
 41
0.0104167
  0
VERTEX
  8
0
 10
6.77078
 20
11.953
 30
0.0
 40
0.0104167
 41
0.0104167
  0
VERTEX
  8
0
 10
6.77078
 20
12.0165
 30
0.0
 40
0.0104167
 41
0.0104167
  0
SEQEND
 8
0
  0
POLYLINE
  8
0
 62
     7
 66
     1
 10
0
 20
0
 30
0.0
 70
     1
 40
0
 41
0
  0
VERTEX
  8
0
 10
6.92079
 20
11.9332
 30
0.0
 40
0
 41
0
  0
VERTEX
  8
0
 10
6.92079
 20
11.9269
 30
0.0
 40
0
 41
0
  0
VERTEX
  8
0
 10
6.9171
 20
11.908
 30
0.0
 40
0
 41
0
  0
VERTEX
  8
0
 10
6.90722
 20
11.8856
 30
0.0
 40
0
 41
0
  0
VERTEX
  8
0
 10
6.90414
 20
11.8811
 30
0.0
 40
0
 41
0
  0
VERTEX
  8
0
 10
6.90306
 20
11.8796
 30
0.0
 40
0
 41
0
  0
VERTEX
  8
0
 10
6.8929
 20
11.865
 30
0.0
 40
0
 41
0
  0
VERTEX
  8
0
 10
6.89268
 20
11.8634
 30
0.0
 40
0
 41
0
  0
VERTEX
  8
0
 10
6.89214
 20
11.8606
 30
0.0
 40
0
 41
0
  0
VERTEX
  8
0
 10
6.89626
 20
11.8441
 30
0.0
 40
0
 41
0
  0
VERTEX
  8
0
 10
6.91297
 20
11.8312
 30
0.0
 40
0
 41
0
  0
VERTEX
  8
0
 10
6.91872
 20
11.8301
 30
0.0
 40
0
 41
0
  0
VERTEX
  8
0
 10
6.92003
 20
11.8299
 30
0.0
 40
0
 41
0
  0
VERTEX
  8
0
 10
6.93153
 20
11.829
 30
0.0
 40
0
 41
0
  0
VERTEX
  8
0
 10
6.93539
 20
11.829
 30
0.0
 40
0
 41
0
  0
VERTEX
  8
0
 10
6.93435
 20
11.829
 30
0.0
 40
0
 41
0
  0
VERTEX
  8
0
 10
6.93847
 20
11.829
 30
0.0
 40
0
 41
0
  0
VERTEX
  8
0
 10
6.94971
 20
11.8299
 30
0.0
 40
0
 41
0
  0
VERTEX
  8
0
 10
6.95101
 20
11.8301
 30
0.0
 40
0
 41
0
  0
VERTEX
  8
0
 10
6.95671
 20
11.8312
 30
0.0
 40
0
 41
0
  0
VERTEX
  8
0
 10
6.97336
 20
11.8441
 30
0.0
 40
0
 41
0
  0
VERTEX
  8
0
 10
6.97754
 20
11.8606
 30
0.0
 40
0
 41
0
  0
VERTEX
  8
0
 10
6.97706
 20
11.8634
 30
0.0
 40
0
 41
0
  0
VERTEX
  8
0
 10
6.97678
 20
11.865
 30
0.0
 40
0
 41
0
  0
VERTEX
  8
0
 10
6.96664
 20
11.8796
 30
0.0
 40
0
 41
0
  0
VERTEX
  8
0
 10
6.9656
 20
11.8811
 30
0.0
 40
0
 41
0
  0
VERTEX
  8
0
 10
6.96246
 20
11.8856
 30
0.0
 40
0
 41
0
  0
VERTEX
  8
0
 10
6.95253
 20
11.908
 30
0.0
 40
0
 41
0
  0
VERTEX
  8
0
 10
6.94894
 20
11.9269
 30
0.0
 40
0
 41
0
  0
VERTEX
  8
0
 10
6.94894
 20
11.9332
 30
0.0
 40
0
 41
0
  0
SEQEND
 8
0
  0
POLYLINE
  8
0
 62
     0
 66
     1
 10
0
 20
0
 30
0.0
 40
0.75
 41
0.75
  0
VERTEX
  8
0
 10
6.92079
 20
11.9332
 30
0.0
 40
0.0104167
 41
0.0104167
  0
VERTEX
  8
0
 10
6.92079
 20
11.9269
 30
0.0
 40
0.0104167
 41
0.0104167
  0
VERTEX
  8
0
 10
6.9171
 20
11.908
 30
0.0
 40
0.0104167
 41
0.0104167
  0
VERTEX
  8
0
 10
6.90722
 20
11.8856
 30
0.0
 40
0.0104167
 41
0.0104167
  0
VERTEX
  8
0
 10
6.90414
 20
11.8811
 30
0.0
 40
0.0104167
 41
0.0104167
  0
VERTEX
  8
0
 10
6.90306
 20
11.8796
 30
0.0
 40
0.0104167
 41
0.0104167
  0
VERTEX
  8
0
 10
6.8929
 20
11.865
 30
0.0
 40
0.0104167
 41
0.0104167
  0
VERTEX
  8
0
 10
6.89268
 20
11.8634
 30
0.0
 40
0.0104167
 41
0.0104167
  0
VERTEX
  8
0
 10
6.89214
 20
11.8606
 30
0.0
 40
0.0104167
 41
0.0104167
  0
VERTEX
  8
0
 10
6.89626
 20
11.8441
 30
0.0
 40
0.0104167
 41
0.0104167
  0
VERTEX
  8
0
 10
6.91297
 20
11.8312
 30
0.0
 40
0.0104167
 41
0.0104167
  0
VERTEX
  8
0
 10
6.91872
 20
11.8301
 30
0.0
 40
0.0104167
 41
0.0104167
  0
VERTEX
  8
0
 10
6.92003
 20
11.8299
 30
0.0
 40
0.0104167
 41
0.0104167
  0
VERTEX
  8
0
 10
6.93153
 20
11.829
 30
0.0
 40
0.0104167
 41
0.0104167
  0
VERTEX
  8
0
 10
6.93539
 20
11.829
 30
0.0
 40
0.0104167
 41
0.0104167
  0
VERTEX
  8
0
 10
6.93435
 20
11.829
 30
0.0
 40
0.0104167
 41
0.0104167
  0
VERTEX
  8
0
 10
6.93847
 20
11.829
 30
0.0
 40
0.0104167
 41
0.0104167
  0
VERTEX
  8
0
 10
6.94971
 20
11.8299
 30
0.0
 40
0.0104167
 41
0.0104167
  0
VERTEX
  8
0
 10
6.95101
 20
11.8301
 30
0.0
 40
0.0104167
 41
0.0104167
  0
VERTEX
  8
0
 10
6.95671
 20
11.8312
 30
0.0
 40
0.0104167
 41
0.0104167
  0
VERTEX
  8
0
 10
6.97336
 20
11.8441
 30
0.0
 40
0.0104167
 41
0.0104167
  0
VERTEX
  8
0
 10
6.97754
 20
11.8606
 30
0.0
 40
0.0104167
 41
0.0104167
  0
VERTEX
  8
0
 10
6.97706
 20
11.8634
 30
0.0
 40
0.0104167
 41
0.0104167
  0
VERTEX
  8
0
 10
6.97678
 20
11.865
 30
0.0
 40
0.0104167
 41
0.0104167
  0
VERTEX
  8
0
 10
6.96664
 20
11.8796
 30
0.0
 40
0.0104167
 41
0.0104167
  0
VERTEX
  8
0
 10
6.9656
 20
11.8811
 30
0.0
 40
0.0104167
 41
0.0104167
  0
VERTEX
  8
0
 10
6.96246
 20
11.8856
 30
0.0
 40
0.0104167
 41
0.0104167
  0
VERTEX
  8
0
 10
6.95253
 20
11.908
 30
0.0
 40
0.0104167
 41
0.0104167
  0
VERTEX
  8
0
 10
6.94894
 20
11.9269
 30
0.0
 40
0.0104167
 41
0.0104167
  0
VERTEX
  8
0
 10
6.94894
 20
11.9332
 30
0.0
 40
0.0104167
 41
0.0104167
  0
SEQEND
 8
0
  0
POLYLINE
  8
0
 62
     7
 66
     1
 10
0
 20
0
 30
0.0
 70
     1
 40
0
 41
0
  0
VERTEX
  8
0
 10
6.89268
 20
11.8624
 30
0.0
 40
0
 41
0
  0
VERTEX
  8
0
 10
6.8929
 20
11.8619
 30
0.0
 40
0
 41
0
  0
VERTEX
  8
0
 10
6.90479
 20
11.8517
 30
0.0
 40
0
 41
0
  0
VERTEX
  8
0
 10
6.9285
 20
11.8426
 30
0.0
 40
0
 41
0
  0
VERTEX
  8
0
 10
6.93642
 20
11.8426
 30
0.0
 40
0
 41
0
  0
VERTEX
  8
0
 10
6.94265
 20
11.8429
 30
0.0
 40
0
 41
0
  0
VERTEX
  8
0
 10
6.96533
 20
11.8521
 30
0.0
 40
0
 41
0
  0
VERTEX
  8
0
 10
6.97651
 20
11.8619
 30
0.0
 40
0
 41
0
  0
VERTEX
  8
0
 10
6.97706
 20
11.8624
 30
0.0
 40
0
 41
0
  0
SEQEND
 8
0
  0
POLYLINE
  8
0
 62
     0
 66
     1
 10
0
 20
0
 30
0.0
 40
0.75
 41
0.75
  0
VERTEX
  8
0
 10
6.89268
 20
11.8624
 30
0.0
 40
0.0104167
 41
0.0104167
  0
VERTEX
  8
0
 10
6.8929
 20
11.8619
 30
0.0
 40
0.0104167
 41
0.0104167
  0
VERTEX
  8
0
 10
6.90479
 20
11.8517
 30
0.0
 40
0.0104167
 41
0.0104167
  0
VERTEX
  8
0
 10
6.9285
 20
11.8426
 30
0.0
 40
0.0104167
 41
0.0104167
  0
VERTEX
  8
0
 10
6.93642
 20
11.8426
 30
0.0
 40
0.0104167
 41
0.0104167
  0
VERTEX
  8
0
 10
6.94265
 20
11.8429
 30
0.0
 40
0.0104167
 41
0.0104167
  0
VERTEX
  8
0
 10
6.96533
 20
11.8521
 30
0.0
 40
0.0104167
 41
0.0104167
  0
VERTEX
  8
0
 10
6.97651
 20
11.8619
 30
0.0
 40
0.0104167
 41
0.0104167
  0
VERTEX
  8
0
 10
6.97706
 20
11.8624
 30
0.0
 40
0.0104167
 41
0.0104167
  0
SEQEND
 8
0
  0
POLYLINE
  8
0
 62
     7
 66
     1
 10
0
 20
0
 30
0.0
 70
     1
 40
0
 41
0
  0
VERTEX
  8
0
 10
6.92079
 20
12.0165
 30
0.0
 40
0
 41
0
  0
VERTEX
  8
0
 10
6.94894
 20
12.0165
 30
0.0
 40
0
 41
0
  0
VERTEX
  8
0
 10
6.94894
 20
11.9332
 30
0.0
 40
0
 41
0
  0
VERTEX
  8
0
 10
6.94189
 20
11.9332
 30
0.0
 40
0
 41
0
  0
VERTEX
  8
0
 10
6.92606
 20
11.9332
 30
0.0
 40
0
 41
0
  0
VERTEX
  8
0
 10
6.92079
 20
11.9332
 30
0.0
 40
0
 41
0
  0
VERTEX
  8
0
 10
6.92079
 20
11.954
 30
0.0
 40
0
 41
0
  0
VERTEX
  8
0
 10
6.92079
 20
12.0009
 30
0.0
 40
0
 41
0
  0
VERTEX
  8
0
 10
6.92079
 20
12.0165
 30
0.0
 40
0
 41
0
  0
SEQEND
 8
0
  0
POLYLINE
  8
0
 62
     0
 66
     1
 10
0
 20
0
 30
0.0
 70
     1
 40
0.75
 41
0.75
  0
VERTEX
  8
0
 10
6.92079
 20
12.0165
 30
0.0
 40
0.0104167
 41
0.0104167
  0
VERTEX
  8
0
 10
6.94894
 20
12.0165
 30
0.0
 40
0.0104167
 41
0.0104167
  0
VERTEX
  8
0
 10
6.94894
 20
11.9332
 30
0.0
 40
0.0104167
 41
0.0104167
  0
VERTEX
  8
0
 10
6.94189
 20
11.9332
 30
0.0
 40
0.0104167
 41
0.0104167
  0
VERTEX
  8
0
 10
6.92606
 20
11.9332
 30
0.0
 40
0.0104167
 41
0.0104167
  0
VERTEX
  8
0
 10
6.92079
 20
11.9332
 30
0.0
 40
0.0104167
 41
0.0104167
  0
VERTEX
  8
0
 10
6.92079
 20
11.954
 30
0.0
 40
0.0104167
 41
0.0104167
  0
VERTEX
  8
0
 10
6.92079
 20
12.0009
 30
0.0
 40
0.0104167
 41
0.0104167
  0
VERTEX
  8
0
 10
6.92079
 20
12.0165
 30
0.0
 40
0.0104167
 41
0.0104167
  0
SEQEND
 8
0
  0
POLYLINE
  8
0
 62
     7
 66
     1
 10
0
 20
0
 30
0.0
 70
     1
 40
0
 41
0
  0
VERTEX
  8
0
 10
6.80414
 20
11.9843
 30
0.0
 40
0
 41
0
  0
VERTEX
  8
0
 10
6.80735
 20
11.9855
 30
0.0
 40
0
 41
0
  0
VERTEX
  8
0
 10
6.817
 20
11.9894
 30
0.0
 40
0
 41
0
  0
VERTEX
  8
0
 10
6.81976
 20
11.9905
 30
0.0
 40
0
 41
0
  0
VERTEX
  8
0
 10
6.81976
 20
11.9905
 30
0.0
 40
0
 41
0
  0
VERTEX
  8
0
 10
6.81976
 20
11.9891
 30
0.0
 40
0
 41
0
  0
VERTEX
  8
0
 10
6.81976
 20
11.9848
 30
0.0
 40
0
 41
0
  0
VERTEX
  8
0
 10
6.81976
 20
11.9805
 30
0.0
 40
0
 41
0
  0
VERTEX
  8
0
 10
6.81976
 20
11.9791
 30
0.0
 40
0
 41
0
  0
VERTEX
  8
0
 10
6.81976
 20
11.9791
 30
0.0
 40
0
 41
0
  0
VERTEX
  8
0
 10
6.81739
 20
11.9797
 30
0.0
 40
0
 41
0
  0
VERTEX
  8
0
 10
6.8074
 20
11.9831
 30
0.0
 40
0
 41
0
  0
VERTEX
  8
0
 10
6.80414
 20
11.9843
 30
0.0
 40
0
 41
0
  0
SEQEND
 8
0
  0
POLYLINE
  8
0
 62
     0
 66
     1
 10
0
 20
0
 30
0.0
 70
     1
 40
0.75
 41
0.75
  0
VERTEX
  8
0
 10
6.80414
 20
11.9843
 30
0.0
 40
0.0104167
 41
0.0104167
  0
VERTEX
  8
0
 10
6.80735
 20
11.9855
 30
0.0
 40
0.0104167
 41
0.0104167
  0
VERTEX
  8
0
 10
6.817
 20
11.9894
 30
0.0
 40
0.0104167
 41
0.0104167
  0
VERTEX
  8
0
 10
6.81976
 20
11.9905
 30
0.0
 40
0.0104167
 41
0.0104167
  0
VERTEX
  8
0
 10
6.81976
 20
11.9905
 30
0.0
 40
0.0104167
 41
0.0104167
  0
VERTEX
  8
0
 10
6.81976
 20
11.9891
 30
0.0
 40
0.0104167
 41
0.0104167
  0
VERTEX
  8
0
 10
6.81976
 20
11.9848
 30
0.0
 40
0.0104167
 41
0.0104167
  0
VERTEX
  8
0
 10
6.81976
 20
11.9805
 30
0.0
 40
0.0104167
 41
0.0104167
  0
VERTEX
  8
0
 10
6.81976
 20
11.9791
 30
0.0
 40
0.0104167
 41
0.0104167
  0
VERTEX
  8
0
 10
6.81976
 20
11.9791
 30
0.0
 40
0.0104167
 41
0.0104167
  0
VERTEX
  8
0
 10
6.81739
 20
11.9797
 30
0.0
 40
0.0104167
 41
0.0104167
  0
VERTEX
  8
0
 10
6.8074
 20
11.9831
 30
0.0
 40
0.0104167
 41
0.0104167
  0
VERTEX
  8
0
 10
6.80414
 20
11.9843
 30
0.0
 40
0.0104167
 41
0.0104167
  0
SEQEND
 8
0
  0
POLYLINE
  8
0
 62
     7
 66
     1
 10
0
 20
0
 30
0.0
 70
     1
 40
0
 41
0
  0
VERTEX
  8
0
 10
7.06456
 20
11.9843
 30
0.0
 40
0
 41
0
  0
VERTEX
  8
0
 10
7.06131
 20
11.9855
 30
0.0
 40
0
 41
0
  0
VERTEX
  8
0
 10
7.05165
 20
11.9894
 30
0.0
 40
0
 41
0
  0
VERTEX
  8
0
 10
7.04893
 20
11.9905
 30
0.0
 40
0
 41
0
  0
VERTEX
  8
0
 10
7.04893
 20
11.9905
 30
0.0
 40
0
 41
0
  0
VERTEX
  8
0
 10
7.04893
 20
11.9891
 30
0.0
 40
0
 41
0
  0
VERTEX
  8
0
 10
7.04893
 20
11.9848
 30
0.0
 40
0
 41
0
  0
VERTEX
  8
0
 10
7.04893
 20
11.9805
 30
0.0
 40
0
 41
0
  0
VERTEX
  8
0
 10
7.04893
 20
11.9791
 30
0.0
 40
0
 41
0
  0
VERTEX
  8
0
 10
7.04893
 20
11.9791
 30
0.0
 40
0
 41
0
  0
VERTEX
  8
0
 10
7.05126
 20
11.9797
 30
0.0
 40
0
 41
0
  0
VERTEX
  8
0
 10
7.06125
 20
11.9831
 30
0.0
 40
0
 41
0
  0
VERTEX
  8
0
 10
7.06456
 20
11.9843
 30
0.0
 40
0
 41
0
  0
SEQEND
 8
0
  0
POLYLINE
  8
0
 62
     0
 66
     1
 10
0
 20
0
 30
0.0
 70
     1
 40
0.75
 41
0.75
  0
VERTEX
  8
0
 10
7.06456
 20
11.9843
 30
0.0
 40
0.0104167
 41
0.0104167
  0
VERTEX
  8
0
 10
7.06131
 20
11.9855
 30
0.0
 40
0.0104167
 41
0.0104167
  0
VERTEX
  8
0
 10
7.05165
 20
11.9894
 30
0.0
 40
0.0104167
 41
0.0104167
  0
VERTEX
  8
0
 10
7.04893
 20
11.9905
 30
0.0
 40
0.0104167
 41
0.0104167
  0
VERTEX
  8
0
 10
7.04893
 20
11.9905
 30
0.0
 40
0.0104167
 41
0.0104167
  0
VERTEX
  8
0
 10
7.04893
 20
11.9891
 30
0.0
 40
0.0104167
 41
0.0104167
  0
VERTEX
  8
0
 10
7.04893
 20
11.9848
 30
0.0
 40
0.0104167
 41
0.0104167
  0
VERTEX
  8
0
 10
7.04893
 20
11.9805
 30
0.0
 40
0.0104167
 41
0.0104167
  0
VERTEX
  8
0
 10
7.04893
 20
11.9791
 30
0.0
 40
0.0104167
 41
0.0104167
  0
VERTEX
  8
0
 10
7.04893
 20
11.9791
 30
0.0
 40
0.0104167
 41
0.0104167
  0
VERTEX
  8
0
 10
7.05126
 20
11.9797
 30
0.0
 40
0.0104167
 41
0.0104167
  0
VERTEX
  8
0
 10
7.06125
 20
11.9831
 30
0.0
 40
0.0104167
 41
0.0104167
  0
VERTEX
  8
0
 10
7.06456
 20
11.9843
 30
0.0
 40
0.0104167
 41
0.0104167
  0
SEQEND
 8
0
  0
POLYLINE
  8
0
 62
     7
 66
     1
 10
0
 20
0
 30
0.0
 70
     1
 40
0
 41
0
  0
VERTEX
  8
0
 10
6.43625
 20
9.52626
 30
0.0
 40
0
 41
0
  0
VERTEX
  8
0
 10
8.22558
 20
9.52626
 30
0.0
 40
0
 41
0
  0
VERTEX
  8
0
 10
8.22558
 20
8.90126
 30
0.0
 40
0
 41
0
  0
VERTEX
  8
0
 10
6.43625
 20
8.90126
 30
0.0
 40
0
 41
0
  0
VERTEX
  8
0
 10
6.43625
 20
9.52626
 30
0.0
 40
0
 41
0
  0
SEQEND
 8
0
  0
POLYLINE
  8
0
 62
     0
 66
     1
 10
0
 20
0
 30
0.0
 70
     1
 40
0.75
 41
0.75
  0
VERTEX
  8
0
 10
6.43625
 20
9.52626
 30
0.0
 40
0.0104167
 41
0.0104167
  0
VERTEX
  8
0
 10
8.22558
 20
9.52626
 30
0.0
 40
0.0104167
 41
0.0104167
  0
VERTEX
  8
0
 10
8.22558
 20
8.90126
 30
0.0
 40
0.0104167
 41
0.0104167
  0
VERTEX
  8
0
 10
6.43625
 20
8.90126
 30
0.0
 40
0.0104167
 41
0.0104167
  0
VERTEX
  8
0
 10
6.43625
 20
9.52626
 30
0.0
 40
0.0104167
 41
0.0104167
  0
SEQEND
 8
0
  0
POLYLINE
  8
0
 62
     7
 66
     1
 10
0
 20
0
 30
0.0
 70
     1
 40
0
 41
0
  0
VERTEX
  8
0
 10
6.43229
 20
9.52626
 30
0.0
 40
0
 41
0
  0
VERTEX
  8
0
 10
7.05729
 20
9.52626
 30
0.0
 40
0
 41
0
  0
VERTEX
  8
0
 10
7.05729
 20
8.90126
 30
0.0
 40
0
 41
0
  0
VERTEX
  8
0
 10
6.43229
 20
8.90126
 30
0.0
 40
0
 41
0
  0
VERTEX
  8
0
 10
6.43229
 20
9.52626
 30
0.0
 40
0
 41
0
  0
SEQEND
 8
0
  0
POLYLINE
  8
0
 62
     0
 66
     1
 10
0
 20
0
 30
0.0
 70
     1
 40
0.75
 41
0.75
  0
VERTEX
  8
0
 10
6.43229
 20
9.52626
 30
0.0
 40
0.0104167
 41
0.0104167
  0
VERTEX
  8
0
 10
7.05729
 20
9.52626
 30
0.0
 40
0.0104167
 41
0.0104167
  0
VERTEX
  8
0
 10
7.05729
 20
8.90126
 30
0.0
 40
0.0104167
 41
0.0104167
  0
VERTEX
  8
0
 10
6.43229
 20
8.90126
 30
0.0
 40
0.0104167
 41
0.0104167
  0
VERTEX
  8
0
 10
6.43229
 20
9.52626
 30
0.0
 40
0.0104167
 41
0.0104167
  0
SEQEND
 8
0
  0
POLYLINE
  8
0
 62
     0
 66
     1
 10
0
 20
0
 30
0.0
 40
0.75
 41
0.75
  0
VERTEX
  8
0
 10
7.05729
 20
8.90126
 30
0.0
 40
0.0104167
 41
0.0104167
  0
VERTEX
  8
0
 10
6.74479
 20
9.32835
 30
0.0
 40
0.0104167
 41
0.0104167
  0
VERTEX
  8
0
 10
6.74479
 20
9.11789
 30
0.0
 40
0.0104167
 41
0.0104167
  0
VERTEX
  8
0
 10
6.43229
 20
9.52626
 30
0.0
 40
0.0104167
 41
0.0104167
  0
SEQEND
 8
0
  0
POLYLINE
  8
0
 62
     0
 66
     1
 10
0
 20
0
 30
0.0
 40
0.75
 41
0.75
  0
VERTEX
  8
0
 10
7.02919
 20
9.52001
 30
0.0
 40
0.0104167
 41
0.0104167
  0
VERTEX
  8
0
 10
6.46044
 20
9.52001
 30
0.0
 40
0.0104167
 41
0.0104167
  0
SEQEND
 8
0
  0
POLYLINE
  8
0
 62
     7
 66
     1
 10
0
 20
0
 30
0.0
 70
     1
 40
0
 41
0
  0
VERTEX
  8
0
 10
2.21539
 20
14.2228
 30
0.0
 40
0
 41
0
  0
VERTEX
  8
0
 10
2.84039
 20
14.2228
 30
0.0
 40
0
 41
0
  0
VERTEX
  8
0
 10
2.84039
 20
13.5651
 30
0.0
 40
0
 41
0
  0
VERTEX
  8
0
 10
2.21539
 20
13.5651
 30
0.0
 40
0
 41
0
  0
VERTEX
  8
0
 10
2.21539
 20
14.2228
 30
0.0
 40
0
 41
0
  0
SEQEND
 8
0
  0
POLYLINE
  8
0
 62
     0
 66
     1
 10
0
 20
0
 30
0.0
 70
     1
 40
0.75
 41
0.75
  0
VERTEX
  8
0
 10
2.21539
 20
14.2228
 30
0.0
 40
0.0104167
 41
0.0104167
  0
VERTEX
  8
0
 10
2.21539
 20
13.5651
 30
0.0
 40
0.0104167
 41
0.0104167
  0
VERTEX
  8
0
 10
2.84039
 20
13.5651
 30
0.0
 40
0.0104167
 41
0.0104167
  0
VERTEX
  8
0
 10
2.84039
 20
14.2228
 30
0.0
 40
0.0104167
 41
0.0104167
  0
VERTEX
  8
0
 10
2.21539
 20
14.2228
 30
0.0
 40
0.0104167
 41
0.0104167
  0
SEQEND
 8
0
  0
POLYLINE
  8
0
 62
     0
 66
     1
 10
0
 20
0
 30
0.0
 70
     1
 40
0
 41
0
  0
VERTEX
  8
0
 10
4.86117
 20
14.2232
 30
0.0
 40
0
 41
0
  0
VERTEX
  8
0
 10
4.97575
 20
14.2232
 30
0.0
 40
0
 41
0
  0
VERTEX
  8
0
 10
4.97575
 20
12.865
 30
0.0
 40
0
 41
0
  0
VERTEX
  8
0
 10
4.86117
 20
12.865
 30
0.0
 40
0
 41
0
  0
VERTEX
  8
0
 10
4.86117
 20
14.2232
 30
0.0
 40
0
 41
0
  0
SEQEND
 8
0
  0
POLYLINE
  8
0
 62
     0
 66
     1
 10
0
 20
0
 30
0.0
 70
     1
 40
0.15
 41
0.15
  0
VERTEX
  8
0
 10
4.86117
 20
14.2232
 30
0.0
 40
0.00208333
 41
0.00208333
  0
VERTEX
  8
0
 10
4.97575
 20
14.2232
 30
0.0
 40
0.00208333
 41
0.00208333
  0
VERTEX
  8
0
 10
4.97575
 20
12.865
 30
0.0
 40
0.00208333
 41
0.00208333
  0
VERTEX
  8
0
 10
4.86117
 20
12.865
 30
0.0
 40
0.00208333
 41
0.00208333
  0
VERTEX
  8
0
 10
4.86117
 20
14.2232
 30
0.0
 40
0.00208333
 41
0.00208333
  0
SEQEND
 8
0
  0
POLYLINE
  8
0
 62
     7
 66
     1
 10
0
 20
0
 30
0.0
 70
     1
 40
0
 41
0
  0
VERTEX
  8
0
 10
4.23389
 20
13.5635
 30
0.0
 40
0
 41
0
  0
VERTEX
  8
0
 10
4.85889
 20
13.5635
 30
0.0
 40
0
 41
0
  0
VERTEX
  8
0
 10
4.85889
 20
12.8983
 30
0.0
 40
0
 41
0
  0
VERTEX
  8
0
 10
4.23389
 20
12.8983
 30
0.0
 40
0
 41
0
  0
VERTEX
  8
0
 10
4.23389
 20
13.5635
 30
0.0
 40
0
 41
0
  0
SEQEND
 8
0
  0
POLYLINE
  8
0
 62
     0
 66
     1
 10
0
 20
0
 30
0.0
 70
     1
 40
0.7983
 41
0.7983
  0
VERTEX
  8
0
 10
4.23389
 20
13.5635
 30
0.0
 40
0.0110875
 41
0.0110875
  0
VERTEX
  8
0
 10
4.23389
 20
12.8983
 30
0.0
 40
0.0110875
 41
0.0110875
  0
VERTEX
  8
0
 10
4.85889
 20
12.8983
 30
0.0
 40
0.0110875
 41
0.0110875
  0
VERTEX
  8
0
 10
4.85889
 20
13.5635
 30
0.0
 40
0.0110875
 41
0.0110875
  0
VERTEX
  8
0
 10
4.23389
 20
13.5635
 30
0.0
 40
0.0110875
 41
0.0110875
  0
SEQEND
 8
0
  0
POLYLINE
  8
0
 62
     0
 66
     1
 10
0
 20
0
 30
0.0
 40
0.7983
 41
0.7983
  0
VERTEX
  8
0
 10
4.85889
 20
13.5635
 30
0.0
 40
0.0110875
 41
0.0110875
  0
VERTEX
  8
0
 10
4.47239
 20
13.2309
 30
0.0
 40
0.0110875
 41
0.0110875
  0
VERTEX
  8
0
 10
4.65989
 20
13.2309
 30
0.0
 40
0.0110875
 41
0.0110875
  0
VERTEX
  8
0
 10
4.2724
 20
12.8983
 30
0.0
 40
0.0110875
 41
0.0110875
  0
SEQEND
 8
0
  0
POLYLINE
  8
0
 62
     7
 66
     1
 10
0
 20
0
 30
0.0
 70
     1
 40
0
 41
0
  0
VERTEX
  8
0
 10
4.23389
 20
13.5635
 30
0.0
 40
0
 41
0
  0
VERTEX
  8
0
 10
4.27556
 20
13.5635
 30
0.0
 40
0
 41
0
  0
VERTEX
  8
0
 10
4.27556
 20
12.8983
 30
0.0
 40
0
 41
0
  0
VERTEX
  8
0
 10
4.23389
 20
12.8983
 30
0.0
 40
0
 41
0
  0
VERTEX
  8
0
 10
4.23389
 20
13.5635
 30
0.0
 40
0
 41
0
  0
SEQEND
 8
0
  0
POLYLINE
  8
0
 62
     0
 66
     1
 10
0
 20
0
 30
0.0
 70
     1
 40
0.7983
 41
0.7983
  0
VERTEX
  8
0
 10
4.23389
 20
13.5635
 30
0.0
 40
0.0110875
 41
0.0110875
  0
VERTEX
  8
0
 10
4.23389
 20
12.8983
 30
0.0
 40
0.0110875
 41
0.0110875
  0
VERTEX
  8
0
 10
4.27556
 20
12.8983
 30
0.0
 40
0.0110875
 41
0.0110875
  0
VERTEX
  8
0
 10
4.27556
 20
13.5635
 30
0.0
 40
0.0110875
 41
0.0110875
  0
VERTEX
  8
0
 10
4.23389
 20
13.5635
 30
0.0
 40
0.0110875
 41
0.0110875
  0
SEQEND
 8
0
  0
POLYLINE
  8
0
 62
     7
 66
     1
 10
0
 20
0
 30
0.0
 70
     1
 40
0
 41
0
  0
VERTEX
  8
0
 10
4.86117
 20
10.9601
 30
0.0
 40
0
 41
0
  0
VERTEX
  8
0
 10
4.86117
 20
11.5875
 30
0.0
 40
0
 41
0
  0
VERTEX
  8
0
 10
3.21804
 20
11.5875
 30
0.0
 40
0
 41
0
  0
VERTEX
  8
0
 10
2.84218
 20
11.9502
 30
0.0
 40
0
 41
0
  0
VERTEX
  8
0
 10
2.84044
 20
13.565
 30
0.0
 40
0
 41
0
  0
VERTEX
  8
0
 10
2.21544
 20
13.565
 30
0.0
 40
0
 41
0
  0
VERTEX
  8
0
 10
2.21457
 20
10.9577
 30
0.0
 40
0
 41
0
  0
VERTEX
  8
0
 10
4.86117
 20
10.9601
 30
0.0
 40
0
 41
0
  0
SEQEND
 8
0
  0
POLYLINE
  8
0
 62
     0
 66
     1
 10
0
 20
0
 30
0.0
 70
     1
 40
0.75
 41
0.75
  0
VERTEX
  8
0
 10
4.86117
 20
10.9601
 30
0.0
 40
0.0104167
 41
0.0104167
  0
VERTEX
  8
0
 10
4.86117
 20
11.5875
 30
0.0
 40
0.0104167
 41
0.0104167
  0
VERTEX
  8
0
 10
3.21804
 20
11.5875
 30
0.0
 40
0.0104167
 41
0.0104167
  0
VERTEX
  8
0
 10
2.84218
 20
11.9502
 30
0.0
 40
0.0104167
 41
0.0104167
  0
VERTEX
  8
0
 10
2.84044
 20
13.565
 30
0.0
 40
0.0104167
 41
0.0104167
  0
VERTEX
  8
0
 10
2.21544
 20
13.565
 30
0.0
 40
0.0104167
 41
0.0104167
  0
VERTEX
  8
0
 10
2.21457
 20
10.9577
 30
0.0
 40
0.0104167
 41
0.0104167
  0
VERTEX
  8
0
 10
4.86117
 20
10.9601
 30
0.0
 40
0.0104167
 41
0.0104167
  0
SEQEND
 8
0
  0
POLYLINE
  8
0
 62
     7
 66
     1
 10
0
 20
0
 30
0.0
 70
     1
 40
0
 41
0
  0
VERTEX
  8
0
 10
4.43451
 20
11.5528
 30
0.0
 40
0
 41
0
  0
VERTEX
  8
0
 10
4.76617
 20
11.5528
 30
0.0
 40
0
 41
0
  0
VERTEX
  8
0
 10
4.76617
 20
11.1024
 30
0.0
 40
0
 41
0
  0
VERTEX
  8
0
 10
4.43451
 20
11.1024
 30
0.0
 40
0
 41
0
  0
VERTEX
  8
0
 10
4.43451
 20
11.5528
 30
0.0
 40
0
 41
0
  0
SEQEND
 8
0
  0
POLYLINE
  8
0
 62
     0
 66
     1
 10
0
 20
0
 30
0.0
 70
     1
 40
0.75
 41
0.75
  0
VERTEX
  8
0
 10
4.43451
 20
11.5528
 30
0.0
 40
0.0104167
 41
0.0104167
  0
VERTEX
  8
0
 10
4.76617
 20
11.5528
 30
0.0
 40
0.0104167
 41
0.0104167
  0
VERTEX
  8
0
 10
4.76617
 20
11.1024
 30
0.0
 40
0.0104167
 41
0.0104167
  0
VERTEX
  8
0
 10
4.43451
 20
11.1024
 30
0.0
 40
0.0104167
 41
0.0104167
  0
VERTEX
  8
0
 10
4.43451
 20
11.5528
 30
0.0
 40
0.0104167
 41
0.0104167
  0
SEQEND
 8
0
  0
POLYLINE
  8
0
 62
     7
 66
     1
 10
0
 20
0
 30
0.0
 70
     1
 40
0
 41
0
  0
VERTEX
  8
0
 10
4.06803
 20
11.5539
 30
0.0
 40
0
 41
0
  0
VERTEX
  8
0
 10
4.39963
 20
11.5539
 30
0.0
 40
0
 41
0
  0
VERTEX
  8
0
 10
4.39963
 20
11.1035
 30
0.0
 40
0
 41
0
  0
VERTEX
  8
0
 10
4.06803
 20
11.1035
 30
0.0
 40
0
 41
0
  0
VERTEX
  8
0
 10
4.06803
 20
11.5539
 30
0.0
 40
0
 41
0
  0
SEQEND
 8
0
  0
POLYLINE
  8
0
 62
     0
 66
     1
 10
0
 20
0
 30
0.0
 70
     1
 40
0.75
 41
0.75
  0
VERTEX
  8
0
 10
4.06803
 20
11.5539
 30
0.0
 40
0.0104167
 41
0.0104167
  0
VERTEX
  8
0
 10
4.39963
 20
11.5539
 30
0.0
 40
0.0104167
 41
0.0104167
  0
VERTEX
  8
0
 10
4.39963
 20
11.1035
 30
0.0
 40
0.0104167
 41
0.0104167
  0
VERTEX
  8
0
 10
4.06803
 20
11.1035
 30
0.0
 40
0.0104167
 41
0.0104167
  0
VERTEX
  8
0
 10
4.06803
 20
11.5539
 30
0.0
 40
0.0104167
 41
0.0104167
  0
SEQEND
 8
0
  0
POLYLINE
  8
0
 62
     7
 66
     1
 10
0
 20
0
 30
0.0
 70
     1
 40
0
 41
0
  0
VERTEX
  8
0
 10
4.55865
 20
11.327
 30
0.0
 40
0
 41
0
  0
VERTEX
  8
0
 10
4.55865
 20
11.3334
 30
0.0
 40
0
 41
0
  0
VERTEX
  8
0
 10
4.56928
 20
11.3528
 30
0.0
 40
0
 41
0
  0
VERTEX
  8
0
 10
4.58865
 20
11.3634
 30
0.0
 40
0
 41
0
  0
VERTEX
  8
0
 10
4.59511
 20
11.3634
 30
0.0
 40
0
 41
0
  0
VERTEX
  8
0
 10
4.60151
 20
11.3634
 30
0.0
 40
0
 41
0
  0
VERTEX
  8
0
 10
4.62088
 20
11.3528
 30
0.0
 40
0
 41
0
  0
VERTEX
  8
0
 10
4.63157
 20
11.3334
 30
0.0
 40
0
 41
0
  0
VERTEX
  8
0
 10
4.63157
 20
11.327
 30
0.0
 40
0
 41
0
  0
VERTEX
  8
0
 10
4.63157
 20
11.3206
 30
0.0
 40
0
 41
0
  0
VERTEX
  8
0
 10
4.62088
 20
11.3012
 30
0.0
 40
0
 41
0
  0
VERTEX
  8
0
 10
4.60151
 20
11.2905
 30
0.0
 40
0
 41
0
  0
VERTEX
  8
0
 10
4.59511
 20
11.2905
 30
0.0
 40
0
 41
0
  0
VERTEX
  8
0
 10
4.58865
 20
11.2905
 30
0.0
 40
0
 41
0
  0
VERTEX
  8
0
 10
4.56928
 20
11.3012
 30
0.0
 40
0
 41
0
  0
VERTEX
  8
0
 10
4.55865
 20
11.3206
 30
0.0
 40
0
 41
0
  0
VERTEX
  8
0
 10
4.55865
 20
11.327
 30
0.0
 40
0
 41
0
  0
SEQEND
 8
0
  0
POLYLINE
  8
0
 62
     0
 66
     1
 10
0
 20
0
 30
0.0
 70
     1
 40
0.6
 41
0.6
  0
VERTEX
  8
0
 10
4.55865
 20
11.327
 30
0.0
 40
0.00833333
 41
0.00833333
  0
VERTEX
  8
0
 10
4.55865
 20
11.3334
 30
0.0
 40
0.00833333
 41
0.00833333
  0
VERTEX
  8
0
 10
4.56928
 20
11.3528
 30
0.0
 40
0.00833333
 41
0.00833333
  0
VERTEX
  8
0
 10
4.58865
 20
11.3634
 30
0.0
 40
0.00833333
 41
0.00833333
  0
VERTEX
  8
0
 10
4.59511
 20
11.3634
 30
0.0
 40
0.00833333
 41
0.00833333
  0
VERTEX
  8
0
 10
4.60151
 20
11.3634
 30
0.0
 40
0.00833333
 41
0.00833333
  0
VERTEX
  8
0
 10
4.62088
 20
11.3528
 30
0.0
 40
0.00833333
 41
0.00833333
  0
VERTEX
  8
0
 10
4.63157
 20
11.3334
 30
0.0
 40
0.00833333
 41
0.00833333
  0
VERTEX
  8
0
 10
4.63157
 20
11.327
 30
0.0
 40
0.00833333
 41
0.00833333
  0
VERTEX
  8
0
 10
4.63157
 20
11.3206
 30
0.0
 40
0.00833333
 41
0.00833333
  0
VERTEX
  8
0
 10
4.62088
 20
11.3012
 30
0.0
 40
0.00833333
 41
0.00833333
  0
VERTEX
  8
0
 10
4.60151
 20
11.2905
 30
0.0
 40
0.00833333
 41
0.00833333
  0
VERTEX
  8
0
 10
4.59511
 20
11.2905
 30
0.0
 40
0.00833333
 41
0.00833333
  0
VERTEX
  8
0
 10
4.58865
 20
11.2905
 30
0.0
 40
0.00833333
 41
0.00833333
  0
VERTEX
  8
0
 10
4.56928
 20
11.3012
 30
0.0
 40
0.00833333
 41
0.00833333
  0
VERTEX
  8
0
 10
4.55865
 20
11.3206
 30
0.0
 40
0.00833333
 41
0.00833333
  0
VERTEX
  8
0
 10
4.55865
 20
11.327
 30
0.0
 40
0.00833333
 41
0.00833333
  0
SEQEND
 8
0
  0
POLYLINE
  8
0
 62
     7
 66
     1
 10
0
 20
0
 30
0.0
 70
     1
 40
0
 41
0
  0
VERTEX
  8
0
 10
4.20383
 20
11.327
 30
0.0
 40
0
 41
0
  0
VERTEX
  8
0
 10
4.20383
 20
11.3334
 30
0.0
 40
0
 41
0
  0
VERTEX
  8
0
 10
4.21446
 20
11.3528
 30
0.0
 40
0
 41
0
  0
VERTEX
  8
0
 10
4.23383
 20
11.3634
 30
0.0
 40
0
 41
0
  0
VERTEX
  8
0
 10
4.24029
 20
11.3634
 30
0.0
 40
0
 41
0
  0
VERTEX
  8
0
 10
4.24669
 20
11.3634
 30
0.0
 40
0
 41
0
  0
VERTEX
  8
0
 10
4.26606
 20
11.3528
 30
0.0
 40
0
 41
0
  0
VERTEX
  8
0
 10
4.27675
 20
11.3334
 30
0.0
 40
0
 41
0
  0
VERTEX
  8
0
 10
4.27675
 20
11.327
 30
0.0
 40
0
 41
0
  0
VERTEX
  8
0
 10
4.27675
 20
11.3206
 30
0.0
 40
0
 41
0
  0
VERTEX
  8
0
 10
4.26606
 20
11.3012
 30
0.0
 40
0
 41
0
  0
VERTEX
  8
0
 10
4.24669
 20
11.2905
 30
0.0
 40
0
 41
0
  0
VERTEX
  8
0
 10
4.24029
 20
11.2905
 30
0.0
 40
0
 41
0
  0
VERTEX
  8
0
 10
4.23383
 20
11.2905
 30
0.0
 40
0
 41
0
  0
VERTEX
  8
0
 10
4.21446
 20
11.3012
 30
0.0
 40
0
 41
0
  0
VERTEX
  8
0
 10
4.20383
 20
11.3206
 30
0.0
 40
0
 41
0
  0
VERTEX
  8
0
 10
4.20383
 20
11.327
 30
0.0
 40
0
 41
0
  0
SEQEND
 8
0
  0
POLYLINE
  8
0
 62
     0
 66
     1
 10
0
 20
0
 30
0.0
 70
     1
 40
0.6
 41
0.6
  0
VERTEX
  8
0
 10
4.20383
 20
11.327
 30
0.0
 40
0.00833333
 41
0.00833333
  0
VERTEX
  8
0
 10
4.20383
 20
11.3334
 30
0.0
 40
0.00833333
 41
0.00833333
  0
VERTEX
  8
0
 10
4.21446
 20
11.3528
 30
0.0
 40
0.00833333
 41
0.00833333
  0
VERTEX
  8
0
 10
4.23383
 20
11.3634
 30
0.0
 40
0.00833333
 41
0.00833333
  0
VERTEX
  8
0
 10
4.24029
 20
11.3634
 30
0.0
 40
0.00833333
 41
0.00833333
  0
VERTEX
  8
0
 10
4.24669
 20
11.3634
 30
0.0
 40
0.00833333
 41
0.00833333
  0
VERTEX
  8
0
 10
4.26606
 20
11.3528
 30
0.0
 40
0.00833333
 41
0.00833333
  0
VERTEX
  8
0
 10
4.27675
 20
11.3334
 30
0.0
 40
0.00833333
 41
0.00833333
  0
VERTEX
  8
0
 10
4.27675
 20
11.327
 30
0.0
 40
0.00833333
 41
0.00833333
  0
VERTEX
  8
0
 10
4.27675
 20
11.3206
 30
0.0
 40
0.00833333
 41
0.00833333
  0
VERTEX
  8
0
 10
4.26606
 20
11.3012
 30
0.0
 40
0.00833333
 41
0.00833333
  0
VERTEX
  8
0
 10
4.24669
 20
11.2905
 30
0.0
 40
0.00833333
 41
0.00833333
  0
VERTEX
  8
0
 10
4.24029
 20
11.2905
 30
0.0
 40
0.00833333
 41
0.00833333
  0
VERTEX
  8
0
 10
4.23383
 20
11.2905
 30
0.0
 40
0.00833333
 41
0.00833333
  0
VERTEX
  8
0
 10
4.21446
 20
11.3012
 30
0.0
 40
0.00833333
 41
0.00833333
  0
VERTEX
  8
0
 10
4.20383
 20
11.3206
 30
0.0
 40
0.00833333
 41
0.00833333
  0
VERTEX
  8
0
 10
4.20383
 20
11.327
 30
0.0
 40
0.00833333
 41
0.00833333
  0
SEQEND
 8
0
  0
POLYLINE
  8
0
 62
     7
 66
     1
 10
0
 20
0
 30
0.0
 70
     1
 40
0
 41
0
  0
VERTEX
  8
0
 10
4.57428
 20
11.327
 30
0.0
 40
0
 41
0
  0
VERTEX
  8
0
 10
4.57428
 20
11.3307
 30
0.0
 40
0
 41
0
  0
VERTEX
  8
0
 10
4.58035
 20
11.3417
 30
0.0
 40
0
 41
0
  0
VERTEX
  8
0
 10
4.59142
 20
11.3478
 30
0.0
 40
0
 41
0
  0
VERTEX
  8
0
 10
4.59511
 20
11.3478
 30
0.0
 40
0
 41
0
  0
VERTEX
  8
0
 10
4.59874
 20
11.3478
 30
0.0
 40
0
 41
0
  0
VERTEX
  8
0
 10
4.60981
 20
11.3417
 30
0.0
 40
0
 41
0
  0
VERTEX
  8
0
 10
4.61594
 20
11.3307
 30
0.0
 40
0
 41
0
  0
VERTEX
  8
0
 10
4.61594
 20
11.327
 30
0.0
 40
0
 41
0
  0
VERTEX
  8
0
 10
4.61594
 20
11.3233
 30
0.0
 40
0
 41
0
  0
VERTEX
  8
0
 10
4.60981
 20
11.3123
 30
0.0
 40
0
 41
0
  0
VERTEX
  8
0
 10
4.59874
 20
11.3062
 30
0.0
 40
0
 41
0
  0
VERTEX
  8
0
 10
4.59511
 20
11.3062
 30
0.0
 40
0
 41
0
  0
VERTEX
  8
0
 10
4.59142
 20
11.3062
 30
0.0
 40
0
 41
0
  0
VERTEX
  8
0
 10
4.58035
 20
11.3123
 30
0.0
 40
0
 41
0
  0
VERTEX
  8
0
 10
4.57428
 20
11.3233
 30
0.0
 40
0
 41
0
  0
VERTEX
  8
0
 10
4.57428
 20
11.327
 30
0.0
 40
0
 41
0
  0
SEQEND
 8
0
  0
POLYLINE
  8
0
 62
     0
 66
     1
 10
0
 20
0
 30
0.0
 70
     1
 40
0.6
 41
0.6
  0
VERTEX
  8
0
 10
4.57428
 20
11.327
 30
0.0
 40
0.00833333
 41
0.00833333
  0
VERTEX
  8
0
 10
4.57428
 20
11.3307
 30
0.0
 40
0.00833333
 41
0.00833333
  0
VERTEX
  8
0
 10
4.58035
 20
11.3417
 30
0.0
 40
0.00833333
 41
0.00833333
  0
VERTEX
  8
0
 10
4.59142
 20
11.3478
 30
0.0
 40
0.00833333
 41
0.00833333
  0
VERTEX
  8
0
 10
4.59511
 20
11.3478
 30
0.0
 40
0.00833333
 41
0.00833333
  0
VERTEX
  8
0
 10
4.59874
 20
11.3478
 30
0.0
 40
0.00833333
 41
0.00833333
  0
VERTEX
  8
0
 10
4.60981
 20
11.3417
 30
0.0
 40
0.00833333
 41
0.00833333
  0
VERTEX
  8
0
 10
4.61594
 20
11.3307
 30
0.0
 40
0.00833333
 41
0.00833333
  0
VERTEX
  8
0
 10
4.61594
 20
11.327
 30
0.0
 40
0.00833333
 41
0.00833333
  0
VERTEX
  8
0
 10
4.61594
 20
11.3233
 30
0.0
 40
0.00833333
 41
0.00833333
  0
VERTEX
  8
0
 10
4.60981
 20
11.3123
 30
0.0
 40
0.00833333
 41
0.00833333
  0
VERTEX
  8
0
 10
4.59874
 20
11.3062
 30
0.0
 40
0.00833333
 41
0.00833333
  0
VERTEX
  8
0
 10
4.59511
 20
11.3062
 30
0.0
 40
0.00833333
 41
0.00833333
  0
VERTEX
  8
0
 10
4.59142
 20
11.3062
 30
0.0
 40
0.00833333
 41
0.00833333
  0
VERTEX
  8
0
 10
4.58035
 20
11.3123
 30
0.0
 40
0.00833333
 41
0.00833333
  0
VERTEX
  8
0
 10
4.57428
 20
11.3233
 30
0.0
 40
0.00833333
 41
0.00833333
  0
VERTEX
  8
0
 10
4.57428
 20
11.327
 30
0.0
 40
0.00833333
 41
0.00833333
  0
SEQEND
 8
0
  0
POLYLINE
  8
0
 62
     7
 66
     1
 10
0
 20
0
 30
0.0
 70
     1
 40
0
 41
0
  0
VERTEX
  8
0
 10
4.21946
 20
11.327
 30
0.0
 40
0
 41
0
  0
VERTEX
  8
0
 10
4.21946
 20
11.3307
 30
0.0
 40
0
 41
0
  0
VERTEX
  8
0
 10
4.22553
 20
11.3417
 30
0.0
 40
0
 41
0
  0
VERTEX
  8
0
 10
4.2366
 20
11.3478
 30
0.0
 40
0
 41
0
  0
VERTEX
  8
0
 10
4.24029
 20
11.3478
 30
0.0
 40
0
 41
0
  0
VERTEX
  8
0
 10
4.24393
 20
11.3478
 30
0.0
 40
0
 41
0
  0
VERTEX
  8
0
 10
4.25499
 20
11.3417
 30
0.0
 40
0
 41
0
  0
VERTEX
  8
0
 10
4.26112
 20
11.3307
 30
0.0
 40
0
 41
0
  0
VERTEX
  8
0
 10
4.26112
 20
11.327
 30
0.0
 40
0
 41
0
  0
VERTEX
  8
0
 10
4.26112
 20
11.3233
 30
0.0
 40
0
 41
0
  0
VERTEX
  8
0
 10
4.25499
 20
11.3123
 30
0.0
 40
0
 41
0
  0
VERTEX
  8
0
 10
4.24393
 20
11.3062
 30
0.0
 40
0
 41
0
  0
VERTEX
  8
0
 10
4.24029
 20
11.3062
 30
0.0
 40
0
 41
0
  0
VERTEX
  8
0
 10
4.2366
 20
11.3062
 30
0.0
 40
0
 41
0
  0
VERTEX
  8
0
 10
4.22553
 20
11.3123
 30
0.0
 40
0
 41
0
  0
VERTEX
  8
0
 10
4.21946
 20
11.3233
 30
0.0
 40
0
 41
0
  0
VERTEX
  8
0
 10
4.21946
 20
11.327
 30
0.0
 40
0
 41
0
  0
SEQEND
 8
0
  0
POLYLINE
  8
0
 62
     0
 66
     1
 10
0
 20
0
 30
0.0
 70
     1
 40
0.6
 41
0.6
  0
VERTEX
  8
0
 10
4.21946
 20
11.327
 30
0.0
 40
0.00833333
 41
0.00833333
  0
VERTEX
  8
0
 10
4.21946
 20
11.3307
 30
0.0
 40
0.00833333
 41
0.00833333
  0
VERTEX
  8
0
 10
4.22553
 20
11.3417
 30
0.0
 40
0.00833333
 41
0.00833333
  0
VERTEX
  8
0
 10
4.2366
 20
11.3478
 30
0.0
 40
0.00833333
 41
0.00833333
  0
VERTEX
  8
0
 10
4.24029
 20
11.3478
 30
0.0
 40
0.00833333
 41
0.00833333
  0
VERTEX
  8
0
 10
4.24393
 20
11.3478
 30
0.0
 40
0.00833333
 41
0.00833333
  0
VERTEX
  8
0
 10
4.25499
 20
11.3417
 30
0.0
 40
0.00833333
 41
0.00833333
  0
VERTEX
  8
0
 10
4.26112
 20
11.3307
 30
0.0
 40
0.00833333
 41
0.00833333
  0
VERTEX
  8
0
 10
4.26112
 20
11.327
 30
0.0
 40
0.00833333
 41
0.00833333
  0
VERTEX
  8
0
 10
4.26112
 20
11.3233
 30
0.0
 40
0.00833333
 41
0.00833333
  0
VERTEX
  8
0
 10
4.25499
 20
11.3123
 30
0.0
 40
0.00833333
 41
0.00833333
  0
VERTEX
  8
0
 10
4.24393
 20
11.3062
 30
0.0
 40
0.00833333
 41
0.00833333
  0
VERTEX
  8
0
 10
4.24029
 20
11.3062
 30
0.0
 40
0.00833333
 41
0.00833333
  0
VERTEX
  8
0
 10
4.2366
 20
11.3062
 30
0.0
 40
0.00833333
 41
0.00833333
  0
VERTEX
  8
0
 10
4.22553
 20
11.3123
 30
0.0
 40
0.00833333
 41
0.00833333
  0
VERTEX
  8
0
 10
4.21946
 20
11.3233
 30
0.0
 40
0.00833333
 41
0.00833333
  0
VERTEX
  8
0
 10
4.21946
 20
11.327
 30
0.0
 40
0.00833333
 41
0.00833333
  0
SEQEND
 8
0
  0
POLYLINE
  8
0
 62
     7
 66
     1
 10
0
 20
0
 30
0.0
 70
     1
 40
0
 41
0
  0
VERTEX
  8
0
 10
4.38949
 20
11.1945
 30
0.0
 40
0
 41
0
  0
VERTEX
  8
0
 10
4.45199
 20
11.1945
 30
0.0
 40
0
 41
0
  0
VERTEX
  8
0
 10
4.45199
 20
11.0487
 30
0.0
 40
0
 41
0
  0
VERTEX
  8
0
 10
4.38949
 20
11.0487
 30
0.0
 40
0
 41
0
  0
VERTEX
  8
0
 10
4.38949
 20
11.1945
 30
0.0
 40
0
 41
0
  0
SEQEND
 8
0
  0
POLYLINE
  8
0
 62
     0
 66
     1
 10
0
 20
0
 30
0.0
 70
     1
 40
0.75
 41
0.75
  0
VERTEX
  8
0
 10
4.38949
 20
11.1945
 30
0.0
 40
0.0104167
 41
0.0104167
  0
VERTEX
  8
0
 10
4.45199
 20
11.1945
 30
0.0
 40
0.0104167
 41
0.0104167
  0
VERTEX
  8
0
 10
4.45199
 20
11.0487
 30
0.0
 40
0.0104167
 41
0.0104167
  0
VERTEX
  8
0
 10
4.38949
 20
11.0487
 30
0.0
 40
0.0104167
 41
0.0104167
  0
VERTEX
  8
0
 10
4.38949
 20
11.1945
 30
0.0
 40
0.0104167
 41
0.0104167
  0
SEQEND
 8
0
  0
POLYLINE
  8
0
 62
     7
 66
     1
 10
0
 20
0
 30
0.0
 70
     1
 40
0
 41
0
  0
VERTEX
  8
0
 10
2.79025
 20
11.1422
 30
0.0
 40
0
 41
0
  0
VERTEX
  8
0
 10
2.37776
 20
11.5546
 30
0.0
 40
0
 41
0
  0
VERTEX
  8
0
 10
2.79025
 20
11.9671
 30
0.0
 40
0
 41
0
  0
VERTEX
  8
0
 10
3.20275
 20
11.5546
 30
0.0
 40
0
 41
0
  0
VERTEX
  8
0
 10
2.79025
 20
11.1422
 30
0.0
 40
0
 41
0
  0
SEQEND
 8
0
  0
POLYLINE
  8
0
 62
     0
 66
     1
 10
0
 20
0
 30
0.0
 70
     1
 40
0.749993
 41
0.749993
  0
VERTEX
  8
0
 10
2.79025
 20
11.1422
 30
0.0
 40
0.0104166
 41
0.0104166
  0
VERTEX
  8
0
 10
2.37776
 20
11.5546
 30
0.0
 40
0.0104166
 41
0.0104166
  0
VERTEX
  8
0
 10
2.79025
 20
11.9671
 30
0.0
 40
0.0104166
 41
0.0104166
  0
VERTEX
  8
0
 10
3.20275
 20
11.5546
 30
0.0
 40
0.0104166
 41
0.0104166
  0
VERTEX
  8
0
 10
2.79025
 20
11.1422
 30
0.0
 40
0.0104166
 41
0.0104166
  0
SEQEND
 8
0
  0
POLYLINE
  8
0
 62
     7
 66
     1
 10
0
 20
0
 30
0.0
 70
     1
 40
0
 41
0
  0
VERTEX
  8
0
 10
2.73133
 20
11.4073
 30
0.0
 40
0
 41
0
  0
VERTEX
  8
0
 10
2.73703
 20
11.4131
 30
0.0
 40
0
 41
0
  0
VERTEX
  8
0
 10
2.7589
 20
11.4257
 30
0.0
 40
0
 41
0
  0
VERTEX
  8
0
 10
2.79025
 20
11.4318
 30
0.0
 40
0
 41
0
  0
VERTEX
  8
0
 10
2.82156
 20
11.4257
 30
0.0
 40
0
 41
0
  0
VERTEX
  8
0
 10
2.84343
 20
11.4131
 30
0.0
 40
0
 41
0
  0
VERTEX
  8
0
 10
2.84918
 20
11.4073
 30
0.0
 40
0
 41
0
  0
VERTEX
  8
0
 10
2.85487
 20
11.4016
 30
0.0
 40
0
 41
0
  0
VERTEX
  8
0
 10
2.86746
 20
11.3798
 30
0.0
 40
0
 41
0
  0
VERTEX
  8
0
 10
2.87358
 20
11.3484
 30
0.0
 40
0
 41
0
  0
VERTEX
  8
0
 10
2.86746
 20
11.3171
 30
0.0
 40
0
 41
0
  0
VERTEX
  8
0
 10
2.85487
 20
11.2953
 30
0.0
 40
0
 41
0
  0
VERTEX
  8
0
 10
2.84918
 20
11.2895
 30
0.0
 40
0
 41
0
  0
VERTEX
  8
0
 10
2.84343
 20
11.2838
 30
0.0
 40
0
 41
0
  0
VERTEX
  8
0
 10
2.82156
 20
11.2712
 30
0.0
 40
0
 41
0
  0
VERTEX
  8
0
 10
2.79025
 20
11.2651
 30
0.0
 40
0
 41
0
  0
VERTEX
  8
0
 10
2.7589
 20
11.2712
 30
0.0
 40
0
 41
0
  0
VERTEX
  8
0
 10
2.73703
 20
11.2838
 30
0.0
 40
0
 41
0
  0
VERTEX
  8
0
 10
2.73133
 20
11.2895
 30
0.0
 40
0
 41
0
  0
VERTEX
  8
0
 10
2.72558
 20
11.2953
 30
0.0
 40
0
 41
0
  0
VERTEX
  8
0
 10
2.713
 20
11.3171
 30
0.0
 40
0
 41
0
  0
VERTEX
  8
0
 10
2.70692
 20
11.3484
 30
0.0
 40
0
 41
0
  0
VERTEX
  8
0
 10
2.713
 20
11.3798
 30
0.0
 40
0
 41
0
  0
VERTEX
  8
0
 10
2.72558
 20
11.4016
 30
0.0
 40
0
 41
0
  0
VERTEX
  8
0
 10
2.73133
 20
11.4073
 30
0.0
 40
0
 41
0
  0
SEQEND
 8
0
  0
POLYLINE
  8
0
 62
     0
 66
     1
 10
0
 20
0
 30
0.0
 70
     1
 40
0.749993
 41
0.749993
  0
VERTEX
  8
0
 10
2.73133
 20
11.4073
 30
0.0
 40
0.0104166
 41
0.0104166
  0
VERTEX
  8
0
 10
2.73703
 20
11.4131
 30
0.0
 40
0.0104166
 41
0.0104166
  0
VERTEX
  8
0
 10
2.7589
 20
11.4257
 30
0.0
 40
0.0104166
 41
0.0104166
  0
VERTEX
  8
0
 10
2.79025
 20
11.4318
 30
0.0
 40
0.0104166
 41
0.0104166
  0
VERTEX
  8
0
 10
2.82156
 20
11.4257
 30
0.0
 40
0.0104166
 41
0.0104166
  0
VERTEX
  8
0
 10
2.84343
 20
11.4131
 30
0.0
 40
0.0104166
 41
0.0104166
  0
VERTEX
  8
0
 10
2.84918
 20
11.4073
 30
0.0
 40
0.0104166
 41
0.0104166
  0
VERTEX
  8
0
 10
2.85487
 20
11.4016
 30
0.0
 40
0.0104166
 41
0.0104166
  0
VERTEX
  8
0
 10
2.86746
 20
11.3798
 30
0.0
 40
0.0104166
 41
0.0104166
  0
VERTEX
  8
0
 10
2.87358
 20
11.3484
 30
0.0
 40
0.0104166
 41
0.0104166
  0
VERTEX
  8
0
 10
2.86746
 20
11.3171
 30
0.0
 40
0.0104166
 41
0.0104166
  0
VERTEX
  8
0
 10
2.85487
 20
11.2953
 30
0.0
 40
0.0104166
 41
0.0104166
  0
VERTEX
  8
0
 10
2.84918
 20
11.2895
 30
0.0
 40
0.0104166
 41
0.0104166
  0
VERTEX
  8
0
 10
2.84343
 20
11.2838
 30
0.0
 40
0.0104166
 41
0.0104166
  0
VERTEX
  8
0
 10
2.82156
 20
11.2712
 30
0.0
 40
0.0104166
 41
0.0104166
  0
VERTEX
  8
0
 10
2.79025
 20
11.2651
 30
0.0
 40
0.0104166
 41
0.0104166
  0
VERTEX
  8
0
 10
2.7589
 20
11.2712
 30
0.0
 40
0.0104166
 41
0.0104166
  0
VERTEX
  8
0
 10
2.73703
 20
11.2838
 30
0.0
 40
0.0104166
 41
0.0104166
  0
VERTEX
  8
0
 10
2.73133
 20
11.2895
 30
0.0
 40
0.0104166
 41
0.0104166
  0
VERTEX
  8
0
 10
2.72558
 20
11.2953
 30
0.0
 40
0.0104166
 41
0.0104166
  0
VERTEX
  8
0
 10
2.713
 20
11.3171
 30
0.0
 40
0.0104166
 41
0.0104166
  0
VERTEX
  8
0
 10
2.70692
 20
11.3484
 30
0.0
 40
0.0104166
 41
0.0104166
  0
VERTEX
  8
0
 10
2.713
 20
11.3798
 30
0.0
 40
0.0104166
 41
0.0104166
  0
VERTEX
  8
0
 10
2.72558
 20
11.4016
 30
0.0
 40
0.0104166
 41
0.0104166
  0
VERTEX
  8
0
 10
2.73133
 20
11.4073
 30
0.0
 40
0.0104166
 41
0.0104166
  0
SEQEND
 8
0
  0
POLYLINE
  8
0
 62
     7
 66
     1
 10
0
 20
0
 30
0.0
 70
     1
 40
0
 41
0
  0
VERTEX
  8
0
 10
2.52513
 20
11.6136
 30
0.0
 40
0
 41
0
  0
VERTEX
  8
0
 10
2.53082
 20
11.6193
 30
0.0
 40
0
 41
0
  0
VERTEX
  8
0
 10
2.55268
 20
11.6319
 30
0.0
 40
0
 41
0
  0
VERTEX
  8
0
 10
2.58404
 20
11.638
 30
0.0
 40
0
 41
0
  0
VERTEX
  8
0
 10
2.61535
 20
11.6319
 30
0.0
 40
0
 41
0
  0
VERTEX
  8
0
 10
2.63721
 20
11.6193
 30
0.0
 40
0
 41
0
  0
VERTEX
  8
0
 10
2.64296
 20
11.6136
 30
0.0
 40
0
 41
0
  0
VERTEX
  8
0
 10
2.64865
 20
11.6079
 30
0.0
 40
0
 41
0
  0
VERTEX
  8
0
 10
2.66124
 20
11.586
 30
0.0
 40
0
 41
0
  0
VERTEX
  8
0
 10
2.66737
 20
11.5547
 30
0.0
 40
0
 41
0
  0
VERTEX
  8
0
 10
2.66124
 20
11.5233
 30
0.0
 40
0
 41
0
  0
VERTEX
  8
0
 10
2.64865
 20
11.5015
 30
0.0
 40
0
 41
0
  0
VERTEX
  8
0
 10
2.64296
 20
11.4957
 30
0.0
 40
0
 41
0
  0
VERTEX
  8
0
 10
2.63721
 20
11.49
 30
0.0
 40
0
 41
0
  0
VERTEX
  8
0
 10
2.61535
 20
11.4774
 30
0.0
 40
0
 41
0
  0
VERTEX
  8
0
 10
2.58404
 20
11.4713
 30
0.0
 40
0
 41
0
  0
VERTEX
  8
0
 10
2.55268
 20
11.4774
 30
0.0
 40
0
 41
0
  0
VERTEX
  8
0
 10
2.53082
 20
11.49
 30
0.0
 40
0
 41
0
  0
VERTEX
  8
0
 10
2.52513
 20
11.4957
 30
0.0
 40
0
 41
0
  0
VERTEX
  8
0
 10
2.51938
 20
11.5015
 30
0.0
 40
0
 41
0
  0
VERTEX
  8
0
 10
2.50678
 20
11.5233
 30
0.0
 40
0
 41
0
  0
VERTEX
  8
0
 10
2.50071
 20
11.5547
 30
0.0
 40
0
 41
0
  0
VERTEX
  8
0
 10
2.50678
 20
11.586
 30
0.0
 40
0
 41
0
  0
VERTEX
  8
0
 10
2.51938
 20
11.6079
 30
0.0
 40
0
 41
0
  0
VERTEX
  8
0
 10
2.52513
 20
11.6136
 30
0.0
 40
0
 41
0
  0
SEQEND
 8
0
  0
POLYLINE
  8
0
 62
     0
 66
     1
 10
0
 20
0
 30
0.0
 70
     1
 40
0.749993
 41
0.749993
  0
VERTEX
  8
0
 10
2.52513
 20
11.6136
 30
0.0
 40
0.0104166
 41
0.0104166
  0
VERTEX
  8
0
 10
2.53082
 20
11.6193
 30
0.0
 40
0.0104166
 41
0.0104166
  0
VERTEX
  8
0
 10
2.55268
 20
11.6319
 30
0.0
 40
0.0104166
 41
0.0104166
  0
VERTEX
  8
0
 10
2.58404
 20
11.638
 30
0.0
 40
0.0104166
 41
0.0104166
  0
VERTEX
  8
0
 10
2.61535
 20
11.6319
 30
0.0
 40
0.0104166
 41
0.0104166
  0
VERTEX
  8
0
 10
2.63721
 20
11.6193
 30
0.0
 40
0.0104166
 41
0.0104166
  0
VERTEX
  8
0
 10
2.64296
 20
11.6136
 30
0.0
 40
0.0104166
 41
0.0104166
  0
VERTEX
  8
0
 10
2.64865
 20
11.6079
 30
0.0
 40
0.0104166
 41
0.0104166
  0
VERTEX
  8
0
 10
2.66124
 20
11.586
 30
0.0
 40
0.0104166
 41
0.0104166
  0
VERTEX
  8
0
 10
2.66737
 20
11.5547
 30
0.0
 40
0.0104166
 41
0.0104166
  0
VERTEX
  8
0
 10
2.66124
 20
11.5233
 30
0.0
 40
0.0104166
 41
0.0104166
  0
VERTEX
  8
0
 10
2.64865
 20
11.5015
 30
0.0
 40
0.0104166
 41
0.0104166
  0
VERTEX
  8
0
 10
2.64296
 20
11.4957
 30
0.0
 40
0.0104166
 41
0.0104166
  0
VERTEX
  8
0
 10
2.63721
 20
11.49
 30
0.0
 40
0.0104166
 41
0.0104166
  0
VERTEX
  8
0
 10
2.61535
 20
11.4774
 30
0.0
 40
0.0104166
 41
0.0104166
  0
VERTEX
  8
0
 10
2.58404
 20
11.4713
 30
0.0
 40
0.0104166
 41
0.0104166
  0
VERTEX
  8
0
 10
2.55268
 20
11.4774
 30
0.0
 40
0.0104166
 41
0.0104166
  0
VERTEX
  8
0
 10
2.53082
 20
11.49
 30
0.0
 40
0.0104166
 41
0.0104166
  0
VERTEX
  8
0
 10
2.52513
 20
11.4957
 30
0.0
 40
0.0104166
 41
0.0104166
  0
VERTEX
  8
0
 10
2.51938
 20
11.5015
 30
0.0
 40
0.0104166
 41
0.0104166
  0
VERTEX
  8
0
 10
2.50678
 20
11.5233
 30
0.0
 40
0.0104166
 41
0.0104166
  0
VERTEX
  8
0
 10
2.50071
 20
11.5547
 30
0.0
 40
0.0104166
 41
0.0104166
  0
VERTEX
  8
0
 10
2.50678
 20
11.586
 30
0.0
 40
0.0104166
 41
0.0104166
  0
VERTEX
  8
0
 10
2.51938
 20
11.6079
 30
0.0
 40
0.0104166
 41
0.0104166
  0
VERTEX
  8
0
 10
2.52513
 20
11.6136
 30
0.0
 40
0.0104166
 41
0.0104166
  0
SEQEND
 8
0
  0
POLYLINE
  8
0
 62
     7
 66
     1
 10
0
 20
0
 30
0.0
 70
     1
 40
0
 41
0
  0
VERTEX
  8
0
 10
2.93756
 20
11.6136
 30
0.0
 40
0
 41
0
  0
VERTEX
  8
0
 10
2.94325
 20
11.6193
 30
0.0
 40
0
 41
0
  0
VERTEX
  8
0
 10
2.96511
 20
11.6319
 30
0.0
 40
0
 41
0
  0
VERTEX
  8
0
 10
2.99647
 20
11.638
 30
0.0
 40
0
 41
0
  0
VERTEX
  8
0
 10
3.02783
 20
11.6319
 30
0.0
 40
0
 41
0
  0
VERTEX
  8
0
 10
3.04969
 20
11.6193
 30
0.0
 40
0
 41
0
  0
VERTEX
  8
0
 10
3.05544
 20
11.6136
 30
0.0
 40
0
 41
0
  0
VERTEX
  8
0
 10
3.06114
 20
11.6079
 30
0.0
 40
0
 41
0
  0
VERTEX
  8
0
 10
3.07368
 20
11.586
 30
0.0
 40
0
 41
0
  0
VERTEX
  8
0
 10
3.07981
 20
11.5547
 30
0.0
 40
0
 41
0
  0
VERTEX
  8
0
 10
3.07368
 20
11.5233
 30
0.0
 40
0
 41
0
  0
VERTEX
  8
0
 10
3.06114
 20
11.5015
 30
0.0
 40
0
 41
0
  0
VERTEX
  8
0
 10
3.05544
 20
11.4957
 30
0.0
 40
0
 41
0
  0
VERTEX
  8
0
 10
3.04969
 20
11.49
 30
0.0
 40
0
 41
0
  0
VERTEX
  8
0
 10
3.02783
 20
11.4774
 30
0.0
 40
0
 41
0
  0
VERTEX
  8
0
 10
2.99647
 20
11.4713
 30
0.0
 40
0
 41
0
  0
VERTEX
  8
0
 10
2.96511
 20
11.4774
 30
0.0
 40
0
 41
0
  0
VERTEX
  8
0
 10
2.94325
 20
11.49
 30
0.0
 40
0
 41
0
  0
VERTEX
  8
0
 10
2.93756
 20
11.4957
 30
0.0
 40
0
 41
0
  0
VERTEX
  8
0
 10
2.93181
 20
11.5015
 30
0.0
 40
0
 41
0
  0
VERTEX
  8
0
 10
2.91928
 20
11.5233
 30
0.0
 40
0
 41
0
  0
VERTEX
  8
0
 10
2.91314
 20
11.5547
 30
0.0
 40
0
 41
0
  0
VERTEX
  8
0
 10
2.91928
 20
11.586
 30
0.0
 40
0
 41
0
  0
VERTEX
  8
0
 10
2.93181
 20
11.6079
 30
0.0
 40
0
 41
0
  0
VERTEX
  8
0
 10
2.93756
 20
11.6136
 30
0.0
 40
0
 41
0
  0
SEQEND
 8
0
  0
POLYLINE
  8
0
 62
     0
 66
     1
 10
0
 20
0
 30
0.0
 70
     1
 40
0.749993
 41
0.749993
  0
VERTEX
  8
0
 10
2.93756
 20
11.6136
 30
0.0
 40
0.0104166
 41
0.0104166
  0
VERTEX
  8
0
 10
2.94325
 20
11.6193
 30
0.0
 40
0.0104166
 41
0.0104166
  0
VERTEX
  8
0
 10
2.96511
 20
11.6319
 30
0.0
 40
0.0104166
 41
0.0104166
  0
VERTEX
  8
0
 10
2.99647
 20
11.638
 30
0.0
 40
0.0104166
 41
0.0104166
  0
VERTEX
  8
0
 10
3.02783
 20
11.6319
 30
0.0
 40
0.0104166
 41
0.0104166
  0
VERTEX
  8
0
 10
3.04969
 20
11.6193
 30
0.0
 40
0.0104166
 41
0.0104166
  0
VERTEX
  8
0
 10
3.05544
 20
11.6136
 30
0.0
 40
0.0104166
 41
0.0104166
  0
VERTEX
  8
0
 10
3.06114
 20
11.6079
 30
0.0
 40
0.0104166
 41
0.0104166
  0
VERTEX
  8
0
 10
3.07368
 20
11.586
 30
0.0
 40
0.0104166
 41
0.0104166
  0
VERTEX
  8
0
 10
3.07981
 20
11.5547
 30
0.0
 40
0.0104166
 41
0.0104166
  0
VERTEX
  8
0
 10
3.07368
 20
11.5233
 30
0.0
 40
0.0104166
 41
0.0104166
  0
VERTEX
  8
0
 10
3.06114
 20
11.5015
 30
0.0
 40
0.0104166
 41
0.0104166
  0
VERTEX
  8
0
 10
3.05544
 20
11.4957
 30
0.0
 40
0.0104166
 41
0.0104166
  0
VERTEX
  8
0
 10
3.04969
 20
11.49
 30
0.0
 40
0.0104166
 41
0.0104166
  0
VERTEX
  8
0
 10
3.02783
 20
11.4774
 30
0.0
 40
0.0104166
 41
0.0104166
  0
VERTEX
  8
0
 10
2.99647
 20
11.4713
 30
0.0
 40
0.0104166
 41
0.0104166
  0
VERTEX
  8
0
 10
2.96511
 20
11.4774
 30
0.0
 40
0.0104166
 41
0.0104166
  0
VERTEX
  8
0
 10
2.94325
 20
11.49
 30
0.0
 40
0.0104166
 41
0.0104166
  0
VERTEX
  8
0
 10
2.93756
 20
11.4957
 30
0.0
 40
0.0104166
 41
0.0104166
  0
VERTEX
  8
0
 10
2.93181
 20
11.5015
 30
0.0
 40
0.0104166
 41
0.0104166
  0
VERTEX
  8
0
 10
2.91928
 20
11.5233
 30
0.0
 40
0.0104166
 41
0.0104166
  0
VERTEX
  8
0
 10
2.91314
 20
11.5547
 30
0.0
 40
0.0104166
 41
0.0104166
  0
VERTEX
  8
0
 10
2.91928
 20
11.586
 30
0.0
 40
0.0104166
 41
0.0104166
  0
VERTEX
  8
0
 10
2.93181
 20
11.6079
 30
0.0
 40
0.0104166
 41
0.0104166
  0
VERTEX
  8
0
 10
2.93756
 20
11.6136
 30
0.0
 40
0.0104166
 41
0.0104166
  0
SEQEND
 8
0
  0
POLYLINE
  8
0
 62
     7
 66
     1
 10
0
 20
0
 30
0.0
 70
     1
 40
0
 41
0
  0
VERTEX
  8
0
 10
2.73133
 20
11.8198
 30
0.0
 40
0
 41
0
  0
VERTEX
  8
0
 10
2.73703
 20
11.8256
 30
0.0
 40
0
 41
0
  0
VERTEX
  8
0
 10
2.7589
 20
11.8382
 30
0.0
 40
0
 41
0
  0
VERTEX
  8
0
 10
2.79025
 20
11.8442
 30
0.0
 40
0
 41
0
  0
VERTEX
  8
0
 10
2.82156
 20
11.8382
 30
0.0
 40
0
 41
0
  0
VERTEX
  8
0
 10
2.84343
 20
11.8256
 30
0.0
 40
0
 41
0
  0
VERTEX
  8
0
 10
2.84918
 20
11.8198
 30
0.0
 40
0
 41
0
  0
VERTEX
  8
0
 10
2.85487
 20
11.8141
 30
0.0
 40
0
 41
0
  0
VERTEX
  8
0
 10
2.86746
 20
11.7923
 30
0.0
 40
0
 41
0
  0
VERTEX
  8
0
 10
2.87358
 20
11.7609
 30
0.0
 40
0
 41
0
  0
VERTEX
  8
0
 10
2.86746
 20
11.7295
 30
0.0
 40
0
 41
0
  0
VERTEX
  8
0
 10
2.85487
 20
11.7077
 30
0.0
 40
0
 41
0
  0
VERTEX
  8
0
 10
2.84918
 20
11.702
 30
0.0
 40
0
 41
0
  0
VERTEX
  8
0
 10
2.84343
 20
11.6963
 30
0.0
 40
0
 41
0
  0
VERTEX
  8
0
 10
2.82156
 20
11.6837
 30
0.0
 40
0
 41
0
  0
VERTEX
  8
0
 10
2.79025
 20
11.6776
 30
0.0
 40
0
 41
0
  0
VERTEX
  8
0
 10
2.7589
 20
11.6837
 30
0.0
 40
0
 41
0
  0
VERTEX
  8
0
 10
2.73703
 20
11.6963
 30
0.0
 40
0
 41
0
  0
VERTEX
  8
0
 10
2.73133
 20
11.702
 30
0.0
 40
0
 41
0
  0
VERTEX
  8
0
 10
2.72558
 20
11.7077
 30
0.0
 40
0
 41
0
  0
VERTEX
  8
0
 10
2.713
 20
11.7295
 30
0.0
 40
0
 41
0
  0
VERTEX
  8
0
 10
2.70692
 20
11.7609
 30
0.0
 40
0
 41
0
  0
VERTEX
  8
0
 10
2.713
 20
11.7923
 30
0.0
 40
0
 41
0
  0
VERTEX
  8
0
 10
2.72558
 20
11.8141
 30
0.0
 40
0
 41
0
  0
VERTEX
  8
0
 10
2.73133
 20
11.8198
 30
0.0
 40
0
 41
0
  0
SEQEND
 8
0
  0
POLYLINE
  8
0
 62
     0
 66
     1
 10
0
 20
0
 30
0.0
 70
     1
 40
0.749993
 41
0.749993
  0
VERTEX
  8
0
 10
2.73133
 20
11.8198
 30
0.0
 40
0.0104166
 41
0.0104166
  0
VERTEX
  8
0
 10
2.73703
 20
11.8256
 30
0.0
 40
0.0104166
 41
0.0104166
  0
VERTEX
  8
0
 10
2.7589
 20
11.8382
 30
0.0
 40
0.0104166
 41
0.0104166
  0
VERTEX
  8
0
 10
2.79025
 20
11.8442
 30
0.0
 40
0.0104166
 41
0.0104166
  0
VERTEX
  8
0
 10
2.82156
 20
11.8382
 30
0.0
 40
0.0104166
 41
0.0104166
  0
VERTEX
  8
0
 10
2.84343
 20
11.8256
 30
0.0
 40
0.0104166
 41
0.0104166
  0
VERTEX
  8
0
 10
2.84918
 20
11.8198
 30
0.0
 40
0.0104166
 41
0.0104166
  0
VERTEX
  8
0
 10
2.85487
 20
11.8141
 30
0.0
 40
0.0104166
 41
0.0104166
  0
VERTEX
  8
0
 10
2.86746
 20
11.7923
 30
0.0
 40
0.0104166
 41
0.0104166
  0
VERTEX
  8
0
 10
2.87358
 20
11.7609
 30
0.0
 40
0.0104166
 41
0.0104166
  0
VERTEX
  8
0
 10
2.86746
 20
11.7295
 30
0.0
 40
0.0104166
 41
0.0104166
  0
VERTEX
  8
0
 10
2.85487
 20
11.7077
 30
0.0
 40
0.0104166
 41
0.0104166
  0
VERTEX
  8
0
 10
2.84918
 20
11.702
 30
0.0
 40
0.0104166
 41
0.0104166
  0
VERTEX
  8
0
 10
2.84343
 20
11.6963
 30
0.0
 40
0.0104166
 41
0.0104166
  0
VERTEX
  8
0
 10
2.82156
 20
11.6837
 30
0.0
 40
0.0104166
 41
0.0104166
  0
VERTEX
  8
0
 10
2.79025
 20
11.6776
 30
0.0
 40
0.0104166
 41
0.0104166
  0
VERTEX
  8
0
 10
2.7589
 20
11.6837
 30
0.0
 40
0.0104166
 41
0.0104166
  0
VERTEX
  8
0
 10
2.73703
 20
11.6963
 30
0.0
 40
0.0104166
 41
0.0104166
  0
VERTEX
  8
0
 10
2.73133
 20
11.702
 30
0.0
 40
0.0104166
 41
0.0104166
  0
VERTEX
  8
0
 10
2.72558
 20
11.7077
 30
0.0
 40
0.0104166
 41
0.0104166
  0
VERTEX
  8
0
 10
2.713
 20
11.7295
 30
0.0
 40
0.0104166
 41
0.0104166
  0
VERTEX
  8
0
 10
2.70692
 20
11.7609
 30
0.0
 40
0.0104166
 41
0.0104166
  0
VERTEX
  8
0
 10
2.713
 20
11.7923
 30
0.0
 40
0.0104166
 41
0.0104166
  0
VERTEX
  8
0
 10
2.72558
 20
11.8141
 30
0.0
 40
0.0104166
 41
0.0104166
  0
VERTEX
  8
0
 10
2.73133
 20
11.8198
 30
0.0
 40
0.0104166
 41
0.0104166
  0
SEQEND
 8
0
  0
POLYLINE
  8
0
 62
     7
 66
     1
 10
0
 20
0
 30
0.0
 70
     1
 40
0
 41
0
  0
VERTEX
  8
0
 10
3.43158
 20
11.5875
 30
0.0
 40
0
 41
0
  0
VERTEX
  8
0
 10
3.99914
 20
11.5875
 30
0.0
 40
0
 41
0
  0
VERTEX
  8
0
 10
3.99914
 20
10.9625
 30
0.0
 40
0
 41
0
  0
VERTEX
  8
0
 10
3.43158
 20
10.9625
 30
0.0
 40
0
 41
0
  0
VERTEX
  8
0
 10
3.43158
 20
11.5875
 30
0.0
 40
0
 41
0
  0
SEQEND
 8
0
  0
POLYLINE
  8
0
 62
     0
 66
     1
 10
0
 20
0
 30
0.0
 70
     1
 40
0.681
 41
0.681
  0
VERTEX
  8
0
 10
3.43158
 20
11.5875
 30
0.0
 40
0.00945833
 41
0.00945833
  0
VERTEX
  8
0
 10
3.99914
 20
11.5875
 30
0.0
 40
0.00945833
 41
0.00945833
  0
VERTEX
  8
0
 10
3.99914
 20
10.9625
 30
0.0
 40
0.00945833
 41
0.00945833
  0
VERTEX
  8
0
 10
3.43158
 20
10.9625
 30
0.0
 40
0.00945833
 41
0.00945833
  0
VERTEX
  8
0
 10
3.43158
 20
11.5875
 30
0.0
 40
0.00945833
 41
0.00945833
  0
SEQEND
 8
0
  0
POLYLINE
  8
0
 62
     0
 66
     1
 10
0
 20
0
 30
0.0
 40
0.681
 41
0.681
  0
VERTEX
  8
0
 10
3.99914
 20
10.9625
 30
0.0
 40
0.00945833
 41
0.00945833
  0
VERTEX
  8
0
 10
3.71533
 20
11.3677
 30
0.0
 40
0.00945833
 41
0.00945833
  0
VERTEX
  8
0
 10
3.71533
 20
11.1594
 30
0.0
 40
0.00945833
 41
0.00945833
  0
VERTEX
  8
0
 10
3.43158
 20
11.5875
 30
0.0
 40
0.00945833
 41
0.00945833
  0
SEQEND
 8
0
  0
POLYLINE
  8
0
 62
     0
 66
     1
 10
0
 20
0
 30
0.0
 40
0.681
 41
0.681
  0
VERTEX
  8
0
 10
3.90451
 20
11.5833
 30
0.0
 40
0.00945833
 41
0.00945833
  0
VERTEX
  8
0
 10
3.5281
 20
11.5833
 30
0.0
 40
0.00945833
 41
0.00945833
  0
SEQEND
 8
0
  0
POLYLINE
  8
0
 62
     0
 66
     1
 10
0
 20
0
 30
0.0
 70
     1
 40
0.75
 41
0.75
  0
VERTEX
  8
0
 10
4.85981
 20
10.9577
 30
0.0
 40
0.0104167
 41
0.0104167
  0
VERTEX
  8
0
 10
4.85981
 20
11.2715
 30
0.0
 40
0.0104167
 41
0.0104167
  0
VERTEX
  8
0
 10
2.52707
 20
11.2715
 30
0.0
 40
0.0104167
 41
0.0104167
  0
VERTEX
  8
0
 10
2.52707
 20
13.5616
 30
0.0
 40
0.0104167
 41
0.0104167
  0
VERTEX
  8
0
 10
2.21457
 20
13.5616
 30
0.0
 40
0.0104167
 41
0.0104167
  0
VERTEX
  8
0
 10
2.21457
 20
10.9577
 30
0.0
 40
0.0104167
 41
0.0104167
  0
VERTEX
  8
0
 10
4.85981
 20
10.9577
 30
0.0
 40
0.0104167
 41
0.0104167
  0
SEQEND
 8
0
  0
ENDSEC
  0
EOF
