  0
SECTION
  2
HEADER
  9
$ACADVER
  1
AC1009
  9
$FILLMODE
 70
 0
  9
$SPLFRAME
 70
 1
  9
$EXTMIN
 10
0
 20
0
 30
0.0
  9
$EXTMAX
 10
41.6667
 20
41.6667
 30
0.0
  0
ENDSEC
  0
SECTION
  2
TABLES
  0
TABLE
  2
LAYER
 70
1
  0
LAYER
  2
0
 70
     0
 62
     7
  6
CONTINUOUS
  0
ENDTAB
  0
ENDSEC
  0
SECTION
  2
ENTITIES
  0
POLYLINE
  8
0
 62
     7
 66
     1
 10
0
 20
0
 30
0.0
 70
     1
 40
0
 41
0
  0
VERTEX
  8
0
 10
0.95779
 20
10.3083
 30
0.0
 40
0
 41
0
  0
VERTEX
  8
0
 10
4.95019
 20
10.3083
 30
0.0
 40
0
 41
0
  0
VERTEX
  8
0
 10
4.95019
 20
4.48682
 30
0.0
 40
0
 41
0
  0
VERTEX
  8
0
 10
0.95779
 20
4.48682
 30
0.0
 40
0
 41
0
  0
VERTEX
  8
0
 10
0.95779
 20
10.3083
 30
0.0
 40
0
 41
0
  0
SEQEND
 8
0
  0
POLYLINE
  8
0
 62
     7
 66
     1
 10
0
 20
0
 30
0.0
 70
     1
 40
0.15
 41
0.15
  0
VERTEX
  8
0
 10
0.95779
 20
10.3083
 30
0.0
 40
0.00208333
 41
0.00208333
  0
VERTEX
  8
0
 10
4.95019
 20
10.3083
 30
0.0
 40
0.00208333
 41
0.00208333
  0
VERTEX
  8
0
 10
4.95019
 20
4.48682
 30
0.0
 40
0.00208333
 41
0.00208333
  0
VERTEX
  8
0
 10
0.95779
 20
4.48682
 30
0.0
 40
0.00208333
 41
0.00208333
  0
VERTEX
  8
0
 10
0.95779
 20
10.3083
 30
0.0
 40
0.00208333
 41
0.00208333
  0
SEQEND
 8
0
  0
TEXT
  8
0
 62
     0
 10
2.67015
 20
7.48106
 30
0.0
 40
0.34375
  1
OH
 50
0
  0
POLYLINE
  8
0
 62
     7
 66
     1
 10
0
 20
0
 30
0.0
 70
     1
 40
0
 41
0
  0
VERTEX
  8
0
 10
4.95019
 20
1.91276
 30
0.0
 40
0
 41
0
  0
VERTEX
  8
0
 10
2.64675
 20
1.91276
 30
0.0
 40
0
 41
0
  0
VERTEX
  8
0
 10
2.64675
 20
1.9114
 30
0.0
 40
0
 41
0
  0
VERTEX
  8
0
 10
0.95779
 20
1.9114
 30
0.0
 40
0
 41
0
  0
VERTEX
  8
0
 10
0.95779
 20
4.48682
 30
0.0
 40
0
 41
0
  0
VERTEX
  8
0
 10
4.95019
 20
4.48682
 30
0.0
 40
0
 41
0
  0
VERTEX
  8
0
 10
4.95019
 20
1.91276
 30
0.0
 40
0
 41
0
  0
SEQEND
 8
0
  0
POLYLINE
  8
0
 62
     7
 66
     1
 10
0
 20
0
 30
0.0
 70
     1
 40
0.15
 41
0.15
  0
VERTEX
  8
0
 10
4.95019
 20
1.91276
 30
0.0
 40
0.00208333
 41
0.00208333
  0
VERTEX
  8
0
 10
2.64675
 20
1.91276
 30
0.0
 40
0.00208333
 41
0.00208333
  0
VERTEX
  8
0
 10
2.64675
 20
1.9114
 30
0.0
 40
0.00208333
 41
0.00208333
  0
VERTEX
  8
0
 10
0.95779
 20
1.9114
 30
0.0
 40
0.00208333
 41
0.00208333
  0
VERTEX
  8
0
 10
0.95779
 20
4.48682
 30
0.0
 40
0.00208333
 41
0.00208333
  0
VERTEX
  8
0
 10
4.95019
 20
4.48682
 30
0.0
 40
0.00208333
 41
0.00208333
  0
VERTEX
  8
0
 10
4.95019
 20
1.91276
 30
0.0
 40
0.00208333
 41
0.00208333
  0
SEQEND
 8
0
  0
TEXT
  8
0
 62
     0
 10
2.61901
 20
2.82558
 30
0.0
 40
0.34375
  1
ET
 50
0
  0
POLYLINE
  8
0
 62
     7
 66
     1
 10
0
 20
0
 30
0.0
 70
     1
 40
0
 41
0
  0
VERTEX
  8
0
 10
0.876031
 20
10.5534
 30
0.0
 40
0
 41
0
  0
VERTEX
  8
0
 10
0.876031
 20
12.1328
 30
0.0
 40
0
 41
0
  0
VERTEX
  8
0
 10
5.02051
 20
12.1328
 30
0.0
 40
0
 41
0
  0
VERTEX
  8
0
 10
5.02051
 20
10.5683
 30
0.0
 40
0
 41
0
  0
VERTEX
  8
0
 10
0.88086
 20
10.5683
 30
0.0
 40
0
 41
0
  0
VERTEX
  8
0
 10
0.876031
 20
10.5534
 30
0.0
 40
0
 41
0
  0
SEQEND
 8
0
  0
POLYLINE
  8
0
 62
     0
 66
     1
 10
0
 20
0
 30
0.0
 70
     1
 40
0.15
 41
0.15
  0
VERTEX
  8
0
 10
0.876031
 20
10.5534
 30
0.0
 40
0.00208333
 41
0.00208333
  0
VERTEX
  8
0
 10
0.876031
 20
12.1328
 30
0.0
 40
0.00208333
 41
0.00208333
  0
VERTEX
  8
0
 10
5.02051
 20
12.1328
 30
0.0
 40
0.00208333
 41
0.00208333
  0
VERTEX
  8
0
 10
5.02051
 20
10.5683
 30
0.0
 40
0.00208333
 41
0.00208333
  0
VERTEX
  8
0
 10
0.88086
 20
10.5683
 30
0.0
 40
0.00208333
 41
0.00208333
  0
VERTEX
  8
0
 10
0.876031
 20
10.5534
 30
0.0
 40
0.00208333
 41
0.00208333
  0
SEQEND
 8
0
  0
TEXT
  8
0
 62
     0
 10
2.17215
 20
11.2999
 30
0.0
 40
0.34375
  1
ULK
 50
0
  0
TEXT
  8
0
 62
     0
 10
2.84976
 20
11.2999
 30
0.0
 40
0.34375
  1
O
 50
0
  0
TEXT
  8
0
 62
     0
 10
3.11208
 20
11.2999
 30
0.0
 40
0.34375
  1
TILA
 50
0
  0
POLYLINE
  8
0
 62
     7
 66
     1
 10
0
 20
0
 30
0.0
 70
     1
 40
0
 41
0
  0
VERTEX
  8
0
 10
7.77626
 20
10.3081
 30
0.0
 40
0
 41
0
  0
VERTEX
  8
0
 10
7.77626
 20
4.62674
 30
0.0
 40
0
 41
0
  0
VERTEX
  8
0
 10
5.09603
 20
4.62674
 30
0.0
 40
0
 41
0
  0
VERTEX
  8
0
 10
5.09603
 20
10.3083
 30
0.0
 40
0
 41
0
  0
VERTEX
  8
0
 10
7.77626
 20
10.3081
 30
0.0
 40
0
 41
0
  0
SEQEND
 8
0
  0
POLYLINE
  8
0
 62
     7
 66
     1
 10
0
 20
0
 30
0.0
 70
     1
 40
0.15
 41
0.15
  0
VERTEX
  8
0
 10
7.77626
 20
10.3081
 30
0.0
 40
0.00208333
 41
0.00208333
  0
VERTEX
  8
0
 10
7.77626
 20
4.62674
 30
0.0
 40
0.00208333
 41
0.00208333
  0
VERTEX
  8
0
 10
5.09603
 20
4.62674
 30
0.0
 40
0.00208333
 41
0.00208333
  0
VERTEX
  8
0
 10
5.09603
 20
10.3083
 30
0.0
 40
0.00208333
 41
0.00208333
  0
VERTEX
  8
0
 10
7.77626
 20
10.3081
 30
0.0
 40
0.00208333
 41
0.00208333
  0
SEQEND
 8
0
  0
TEXT
  8
0
 62
     0
 10
6.20011
 20
7.65375
 30
0.0
 40
0.34375
  1
MH
 50
0
  0
POLYLINE
  8
0
 62
     7
 66
     1
 10
0
 20
0
 30
0.0
 70
     1
 40
0
 41
0
  0
VERTEX
  8
0
 10
7.77626
 20
0.156847
 30
0.0
 40
0
 41
0
  0
VERTEX
  8
0
 10
5.7474
 20
0.156847
 30
0.0
 40
0
 41
0
  0
VERTEX
  8
0
 10
5.7474
 20
0.830404
 30
0.0
 40
0
 41
0
  0
VERTEX
  8
0
 10
5.09603
 20
0.830404
 30
0.0
 40
0
 41
0
  0
VERTEX
  8
0
 10
5.09603
 20
4.53537
 30
0.0
 40
0
 41
0
  0
VERTEX
  8
0
 10
7.77626
 20
4.53537
 30
0.0
 40
0
 41
0
  0
VERTEX
  8
0
 10
7.77626
 20
0.156847
 30
0.0
 40
0
 41
0
  0
SEQEND
 8
0
  0
POLYLINE
  8
0
 62
     7
 66
     1
 10
0
 20
0
 30
0.0
 70
     1
 40
0.15
 41
0.15
  0
VERTEX
  8
0
 10
7.77626
 20
0.156847
 30
0.0
 40
0.00208333
 41
0.00208333
  0
VERTEX
  8
0
 10
5.7474
 20
0.156847
 30
0.0
 40
0.00208333
 41
0.00208333
  0
VERTEX
  8
0
 10
5.7474
 20
0.830404
 30
0.0
 40
0.00208333
 41
0.00208333
  0
VERTEX
  8
0
 10
5.09603
 20
0.830404
 30
0.0
 40
0.00208333
 41
0.00208333
  0
VERTEX
  8
0
 10
5.09603
 20
4.53537
 30
0.0
 40
0.00208333
 41
0.00208333
  0
VERTEX
  8
0
 10
7.77626
 20
4.53537
 30
0.0
 40
0.00208333
 41
0.00208333
  0
VERTEX
  8
0
 10
7.77626
 20
0.156847
 30
0.0
 40
0.00208333
 41
0.00208333
  0
SEQEND
 8
0
  0
TEXT
  8
0
 62
     0
 10
6.43615
 20
2.25112
 30
0.0
 40
0.34375
  1
K
 50
0
  0
POLYLINE
  8
0
 62
     7
 66
     1
 10
0
 20
0
 30
0.0
 70
     1
 40
0
 41
0
  0
VERTEX
  8
0
 10
2.803
 20
1.81082
 30
0.0
 40
0
 41
0
  0
VERTEX
  8
0
 10
4.95019
 20
1.81082
 30
0.0
 40
0
 41
0
  0
VERTEX
  8
0
 10
4.95019
 20
0.156847
 30
0.0
 40
0
 41
0
  0
VERTEX
  8
0
 10
2.803
 20
0.156847
 30
0.0
 40
0
 41
0
  0
VERTEX
  8
0
 10
2.803
 20
1.81082
 30
0.0
 40
0
 41
0
  0
SEQEND
 8
0
  0
POLYLINE
  8
0
 62
     7
 66
     1
 10
0
 20
0
 30
0.0
 70
     1
 40
0.15
 41
0.15
  0
VERTEX
  8
0
 10
2.803
 20
1.81082
 30
0.0
 40
0.00208333
 41
0.00208333
  0
VERTEX
  8
0
 10
4.95019
 20
1.81082
 30
0.0
 40
0.00208333
 41
0.00208333
  0
VERTEX
  8
0
 10
4.95019
 20
0.156847
 30
0.0
 40
0.00208333
 41
0.00208333
  0
VERTEX
  8
0
 10
2.803
 20
0.156847
 30
0.0
 40
0.00208333
 41
0.00208333
  0
VERTEX
  8
0
 10
2.803
 20
1.81082
 30
0.0
 40
0.00208333
 41
0.00208333
  0
SEQEND
 8
0
  0
TEXT
  8
0
 62
     0
 10
3.41011
 20
1.15128
 30
0.0
 40
0.34375
  1
KH
 50
0
  0
POLYLINE
  8
0
 62
     0
 66
     1
 10
0
 20
0
 30
0.0
 70
     1
 40
0
 41
0
  0
VERTEX
  8
0
 10
0.822374
 20
10.6312
 30
0.0
 40
0
 41
0
  0
VERTEX
  8
0
 10
0.822374
 20
1.75515
 30
0.0
 40
0
 41
0
  0
VERTEX
  8
0
 10
0.95779
 20
1.9114
 30
0.0
 40
0
 41
0
  0
VERTEX
  8
0
 10
0.95779
 20
10.3083
 30
0.0
 40
0
 41
0
  0
VERTEX
  8
0
 10
0.822374
 20
10.6312
 30
0.0
 40
0
 41
0
  0
SEQEND
 8
0
  0
POLYLINE
  8
0
 62
     0
 66
     1
 10
0
 20
0
 30
0.0
 70
     1
 40
0.15
 41
0.15
  0
VERTEX
  8
0
 10
0.822374
 20
10.6312
 30
0.0
 40
0.00208333
 41
0.00208333
  0
VERTEX
  8
0
 10
0.822374
 20
1.75515
 30
0.0
 40
0.00208333
 41
0.00208333
  0
VERTEX
  8
0
 10
0.95779
 20
1.9114
 30
0.0
 40
0.00208333
 41
0.00208333
  0
VERTEX
  8
0
 10
0.95779
 20
10.3083
 30
0.0
 40
0.00208333
 41
0.00208333
  0
VERTEX
  8
0
 10
0.822374
 20
10.6312
 30
0.0
 40
0.00208333
 41
0.00208333
  0
SEQEND
 8
0
  0
POLYLINE
  8
0
 62
     0
 66
     1
 10
0
 20
0
 30
0.0
 70
     1
 40
0
 41
0
  0
VERTEX
  8
0
 10
0.822374
 20
1.75515
 30
0.0
 40
0
 41
0
  0
VERTEX
  8
0
 10
2.64675
 20
1.75515
 30
0.0
 40
0
 41
0
  0
VERTEX
  8
0
 10
2.803
 20
1.9114
 30
0.0
 40
0
 41
0
  0
VERTEX
  8
0
 10
0.95779
 20
1.9114
 30
0.0
 40
0
 41
0
  0
VERTEX
  8
0
 10
0.822374
 20
1.75515
 30
0.0
 40
0
 41
0
  0
SEQEND
 8
0
  0
POLYLINE
  8
0
 62
     0
 66
     1
 10
0
 20
0
 30
0.0
 70
     1
 40
0.15
 41
0.15
  0
VERTEX
  8
0
 10
0.822374
 20
1.75515
 30
0.0
 40
0.00208333
 41
0.00208333
  0
VERTEX
  8
0
 10
2.64675
 20
1.75515
 30
0.0
 40
0.00208333
 41
0.00208333
  0
VERTEX
  8
0
 10
2.803
 20
1.9114
 30
0.0
 40
0.00208333
 41
0.00208333
  0
VERTEX
  8
0
 10
0.95779
 20
1.9114
 30
0.0
 40
0.00208333
 41
0.00208333
  0
VERTEX
  8
0
 10
0.822374
 20
1.75515
 30
0.0
 40
0.00208333
 41
0.00208333
  0
SEQEND
 8
0
  0
POLYLINE
  8
0
 62
     7
 66
     1
 10
0
 20
0
 30
0.0
 70
     1
 40
0
 41
0
  0
VERTEX
  8
0
 10
1.40294
 20
1.9114
 30
0.0
 40
0
 41
0
  0
VERTEX
  8
0
 10
2.3654
 20
1.9114
 30
0.0
 40
0
 41
0
  0
VERTEX
  8
0
 10
2.3654
 20
1.75515
 30
0.0
 40
0
 41
0
  0
VERTEX
  8
0
 10
1.40294
 20
1.75515
 30
0.0
 40
0
 41
0
  0
VERTEX
  8
0
 10
1.40294
 20
1.9114
 30
0.0
 40
0
 41
0
  0
SEQEND
 8
0
  0
POLYLINE
  8
0
 62
     0
 66
     1
 10
0
 20
0
 30
0.0
 70
     1
 40
0.75
 41
0.75
  0
VERTEX
  8
0
 10
1.40294
 20
1.9114
 30
0.0
 40
0.0104167
 41
0.0104167
  0
VERTEX
  8
0
 10
2.3654
 20
1.9114
 30
0.0
 40
0.0104167
 41
0.0104167
  0
VERTEX
  8
0
 10
2.3654
 20
1.75515
 30
0.0
 40
0.0104167
 41
0.0104167
  0
VERTEX
  8
0
 10
1.40294
 20
1.75515
 30
0.0
 40
0.0104167
 41
0.0104167
  0
VERTEX
  8
0
 10
1.40294
 20
1.9114
 30
0.0
 40
0.0104167
 41
0.0104167
  0
SEQEND
 8
0
  0
POLYLINE
  8
0
 62
     7
 66
     1
 10
0
 20
0
 30
0.0
 70
     1
 40
0
 41
0
  0
VERTEX
  8
0
 10
1.40294
 20
1.9114
 30
0.0
 40
0
 41
0
  0
VERTEX
  8
0
 10
2.3654
 20
1.9114
 30
0.0
 40
0
 41
0
  0
VERTEX
  8
0
 10
2.3654
 20
1.75515
 30
0.0
 40
0
 41
0
  0
VERTEX
  8
0
 10
1.40294
 20
1.75515
 30
0.0
 40
0
 41
0
  0
VERTEX
  8
0
 10
1.40294
 20
1.9114
 30
0.0
 40
0
 41
0
  0
SEQEND
 8
0
  0
POLYLINE
  8
0
 62
     0
 66
     1
 10
0
 20
0
 30
0.0
 70
     1
 40
0.75
 41
0.75
  0
VERTEX
  8
0
 10
1.40294
 20
1.9114
 30
0.0
 40
0.0104167
 41
0.0104167
  0
VERTEX
  8
0
 10
2.3654
 20
1.9114
 30
0.0
 40
0.0104167
 41
0.0104167
  0
VERTEX
  8
0
 10
2.3654
 20
1.75515
 30
0.0
 40
0.0104167
 41
0.0104167
  0
VERTEX
  8
0
 10
1.40294
 20
1.75515
 30
0.0
 40
0.0104167
 41
0.0104167
  0
VERTEX
  8
0
 10
1.40294
 20
1.9114
 30
0.0
 40
0.0104167
 41
0.0104167
  0
SEQEND
 8
0
  0
POLYLINE
  8
0
 62
     0
 66
     1
 10
0
 20
0
 30
0.0
 70
     1
 40
0.75
 41
0.75
  0
VERTEX
  8
0
 10
2.3654
 20
1.75515
 30
0.0
 40
0.0104167
 41
0.0104167
  0
VERTEX
  8
0
 10
2.3654
 20
1.69879
 30
0.0
 40
0.0104167
 41
0.0104167
  0
VERTEX
  8
0
 10
2.35032
 20
1.52963
 30
0.0
 40
0.0104167
 41
0.0104167
  0
VERTEX
  8
0
 10
2.30524
 20
1.33409
 30
0.0
 40
0.0104167
 41
0.0104167
  0
VERTEX
  8
0
 10
2.23004
 20
1.16867
 30
0.0
 40
0.0104167
 41
0.0104167
  0
VERTEX
  8
0
 10
2.12478
 20
1.03331
 30
0.0
 40
0.0104167
 41
0.0104167
  0
VERTEX
  8
0
 10
1.98942
 20
0.92806
 30
0.0
 40
0.0104167
 41
0.0104167
  0
VERTEX
  8
0
 10
1.824
 20
0.852865
 30
0.0
 40
0.0104167
 41
0.0104167
  0
VERTEX
  8
0
 10
1.62847
 20
0.807781
 30
0.0
 40
0.0104167
 41
0.0104167
  0
VERTEX
  8
0
 10
1.45931
 20
0.792697
 30
0.0
 40
0.0104167
 41
0.0104167
  0
VERTEX
  8
0
 10
1.40294
 20
0.792697
 30
0.0
 40
0.0104167
 41
0.0104167
  0
VERTEX
  8
0
 10
1.40294
 20
1.75515
 30
0.0
 40
0.0104167
 41
0.0104167
  0
VERTEX
  8
0
 10
2.3654
 20
1.75515
 30
0.0
 40
0.0104167
 41
0.0104167
  0
SEQEND
 8
0
  0
POLYLINE
  8
0
 62
     0
 66
     1
 10
0
 20
0
 30
0.0
 70
     1
 40
0
 41
0
  0
VERTEX
  8
0
 10
2.64675
 20
1.75515
 30
0.0
 40
0
 41
0
  0
VERTEX
  8
0
 10
2.64675
 20
0.000596789
 30
0.0
 40
0
 41
0
  0
VERTEX
  8
0
 10
2.803
 20
0.156847
 30
0.0
 40
0
 41
0
  0
VERTEX
  8
0
 10
2.803
 20
1.9114
 30
0.0
 40
0
 41
0
  0
VERTEX
  8
0
 10
2.64675
 20
1.75515
 30
0.0
 40
0
 41
0
  0
SEQEND
 8
0
  0
POLYLINE
  8
0
 62
     0
 66
     1
 10
0
 20
0
 30
0.0
 70
     1
 40
0.15
 41
0.15
  0
VERTEX
  8
0
 10
2.64675
 20
1.75515
 30
0.0
 40
0.00208333
 41
0.00208333
  0
VERTEX
  8
0
 10
2.64675
 20
0.000596789
 30
0.0
 40
0.00208333
 41
0.00208333
  0
VERTEX
  8
0
 10
2.803
 20
0.156847
 30
0.0
 40
0.00208333
 41
0.00208333
  0
VERTEX
  8
0
 10
2.803
 20
1.9114
 30
0.0
 40
0.00208333
 41
0.00208333
  0
VERTEX
  8
0
 10
2.64675
 20
1.75515
 30
0.0
 40
0.00208333
 41
0.00208333
  0
SEQEND
 8
0
  0
POLYLINE
  8
0
 62
     0
 66
     1
 10
0
 20
0
 30
0.0
 70
     1
 40
0
 41
0
  0
VERTEX
  8
0
 10
2.64675
 20
0.000596789
 30
0.0
 40
0
 41
0
  0
VERTEX
  8
0
 10
8.09918
 20
0.000596789
 30
0.0
 40
0
 41
0
  0
VERTEX
  8
0
 10
7.77626
 20
0.156847
 30
0.0
 40
0
 41
0
  0
VERTEX
  8
0
 10
2.803
 20
0.156847
 30
0.0
 40
0
 41
0
  0
VERTEX
  8
0
 10
2.64675
 20
0.000596789
 30
0.0
 40
0
 41
0
  0
SEQEND
 8
0
  0
POLYLINE
  8
0
 62
     0
 66
     1
 10
0
 20
0
 30
0.0
 70
     1
 40
0.15
 41
0.15
  0
VERTEX
  8
0
 10
2.64675
 20
0.000596789
 30
0.0
 40
0.00208333
 41
0.00208333
  0
VERTEX
  8
0
 10
8.09918
 20
0.000596789
 30
0.0
 40
0.00208333
 41
0.00208333
  0
VERTEX
  8
0
 10
7.77626
 20
0.156847
 30
0.0
 40
0.00208333
 41
0.00208333
  0
VERTEX
  8
0
 10
2.803
 20
0.156847
 30
0.0
 40
0.00208333
 41
0.00208333
  0
VERTEX
  8
0
 10
2.64675
 20
0.000596789
 30
0.0
 40
0.00208333
 41
0.00208333
  0
SEQEND
 8
0
  0
POLYLINE
  8
0
 62
     0
 66
     1
 10
0
 20
0
 30
0.0
 70
     1
 40
0
 41
0
  0
VERTEX
  8
0
 10
8.09918
 20
0.000596789
 30
0.0
 40
0
 41
0
  0
VERTEX
  8
0
 10
8.09918
 20
10.6309
 30
0.0
 40
0
 41
0
  0
VERTEX
  8
0
 10
7.77626
 20
10.3081
 30
0.0
 40
0
 41
0
  0
VERTEX
  8
0
 10
7.77626
 20
0.156847
 30
0.0
 40
0
 41
0
  0
VERTEX
  8
0
 10
8.09918
 20
0.000596789
 30
0.0
 40
0
 41
0
  0
SEQEND
 8
0
  0
POLYLINE
  8
0
 62
     0
 66
     1
 10
0
 20
0
 30
0.0
 70
     1
 40
0.15
 41
0.15
  0
VERTEX
  8
0
 10
8.09918
 20
0.000596789
 30
0.0
 40
0.00208333
 41
0.00208333
  0
VERTEX
  8
0
 10
8.09918
 20
10.6309
 30
0.0
 40
0.00208333
 41
0.00208333
  0
VERTEX
  8
0
 10
7.77626
 20
10.3081
 30
0.0
 40
0.00208333
 41
0.00208333
  0
VERTEX
  8
0
 10
7.77626
 20
0.156847
 30
0.0
 40
0.00208333
 41
0.00208333
  0
VERTEX
  8
0
 10
8.09918
 20
0.000596789
 30
0.0
 40
0.00208333
 41
0.00208333
  0
SEQEND
 8
0
  0
POLYLINE
  8
0
 62
     7
 66
     1
 10
0
 20
0
 30
0.0
 70
     1
 40
0
 41
0
  0
VERTEX
  8
0
 10
7.77626
 20
3.95703
 30
0.0
 40
0
 41
0
  0
VERTEX
  8
0
 10
8.09918
 20
3.95703
 30
0.0
 40
0
 41
0
  0
VERTEX
  8
0
 10
8.09918
 20
2.26443
 30
0.0
 40
0
 41
0
  0
VERTEX
  8
0
 10
7.77626
 20
2.26443
 30
0.0
 40
0
 41
0
  0
VERTEX
  8
0
 10
7.77626
 20
3.95703
 30
0.0
 40
0
 41
0
  0
SEQEND
 8
0
  0
POLYLINE
  8
0
 62
     0
 66
     1
 10
0
 20
0
 30
0.0
 70
     1
 40
0.75
 41
0.75
  0
VERTEX
  8
0
 10
7.77626
 20
3.95703
 30
0.0
 40
0.0104167
 41
0.0104167
  0
VERTEX
  8
0
 10
8.09918
 20
3.95703
 30
0.0
 40
0.0104167
 41
0.0104167
  0
VERTEX
  8
0
 10
8.09918
 20
2.26443
 30
0.0
 40
0.0104167
 41
0.0104167
  0
VERTEX
  8
0
 10
7.77626
 20
2.26443
 30
0.0
 40
0.0104167
 41
0.0104167
  0
VERTEX
  8
0
 10
7.77626
 20
3.95703
 30
0.0
 40
0.0104167
 41
0.0104167
  0
SEQEND
 8
0
  0
POLYLINE
  8
0
 62
     7
 66
     1
 10
0
 20
0
 30
0.0
 70
     1
 40
0
 41
0
  0
VERTEX
  8
0
 10
7.77626
 20
3.95703
 30
0.0
 40
0
 41
0
  0
VERTEX
  8
0
 10
8.09918
 20
3.95703
 30
0.0
 40
0
 41
0
  0
VERTEX
  8
0
 10
8.09918
 20
2.26443
 30
0.0
 40
0
 41
0
  0
VERTEX
  8
0
 10
7.77626
 20
2.26443
 30
0.0
 40
0
 41
0
  0
VERTEX
  8
0
 10
7.77626
 20
3.95703
 30
0.0
 40
0
 41
0
  0
SEQEND
 8
0
  0
POLYLINE
  8
0
 62
     0
 66
     1
 10
0
 20
0
 30
0.0
 70
     1
 40
0.75
 41
0.75
  0
VERTEX
  8
0
 10
7.77626
 20
3.95703
 30
0.0
 40
0.0104167
 41
0.0104167
  0
VERTEX
  8
0
 10
8.09918
 20
3.95703
 30
0.0
 40
0.0104167
 41
0.0104167
  0
VERTEX
  8
0
 10
8.09918
 20
2.26443
 30
0.0
 40
0.0104167
 41
0.0104167
  0
VERTEX
  8
0
 10
7.77626
 20
2.26443
 30
0.0
 40
0.0104167
 41
0.0104167
  0
VERTEX
  8
0
 10
7.77626
 20
3.95703
 30
0.0
 40
0.0104167
 41
0.0104167
  0
SEQEND
 8
0
  0
POLYLINE
  8
0
 62
     0
 66
     1
 10
0
 20
0
 30
0.0
 40
0.75
 41
0.75
  0
VERTEX
  8
0
 10
7.93772
 20
2.34261
 30
0.0
 40
0.0104167
 41
0.0104167
  0
VERTEX
  8
0
 10
7.93772
 20
3.87896
 30
0.0
 40
0.0104167
 41
0.0104167
  0
SEQEND
 8
0
  0
POLYLINE
  8
0
 62
     0
 66
     1
 10
0
 20
0
 30
0.0
 40
0.75
 41
0.75
  0
VERTEX
  8
0
 10
8.09918
 20
2.34261
 30
0.0
 40
0.0104167
 41
0.0104167
  0
VERTEX
  8
0
 10
7.77626
 20
2.34261
 30
0.0
 40
0.0104167
 41
0.0104167
  0
SEQEND
 8
0
  0
POLYLINE
  8
0
 62
     0
 66
     1
 10
0
 20
0
 30
0.0
 40
0.75
 41
0.75
  0
VERTEX
  8
0
 10
8.09918
 20
3.87896
 30
0.0
 40
0.0104167
 41
0.0104167
  0
VERTEX
  8
0
 10
7.77626
 20
3.87896
 30
0.0
 40
0.0104167
 41
0.0104167
  0
SEQEND
 8
0
  0
POLYLINE
  8
0
 62
     7
 66
     1
 10
0
 20
0
 30
0.0
 70
     1
 40
0
 41
0
  0
VERTEX
  8
0
 10
7.77626
 20
2.26443
 30
0.0
 40
0
 41
0
  0
VERTEX
  8
0
 10
8.09918
 20
2.26443
 30
0.0
 40
0
 41
0
  0
VERTEX
  8
0
 10
8.09918
 20
1.97862
 30
0.0
 40
0
 41
0
  0
VERTEX
  8
0
 10
7.77626
 20
1.97862
 30
0.0
 40
0
 41
0
  0
VERTEX
  8
0
 10
7.77626
 20
2.26443
 30
0.0
 40
0
 41
0
  0
SEQEND
 8
0
  0
POLYLINE
  8
0
 62
     0
 66
     1
 10
0
 20
0
 30
0.0
 70
     1
 40
0.75
 41
0.75
  0
VERTEX
  8
0
 10
7.77626
 20
2.26443
 30
0.0
 40
0.0104167
 41
0.0104167
  0
VERTEX
  8
0
 10
8.09918
 20
2.26443
 30
0.0
 40
0.0104167
 41
0.0104167
  0
VERTEX
  8
0
 10
8.09918
 20
1.97862
 30
0.0
 40
0.0104167
 41
0.0104167
  0
VERTEX
  8
0
 10
7.77626
 20
1.97862
 30
0.0
 40
0.0104167
 41
0.0104167
  0
VERTEX
  8
0
 10
7.77626
 20
2.26443
 30
0.0
 40
0.0104167
 41
0.0104167
  0
SEQEND
 8
0
  0
POLYLINE
  8
0
 62
     7
 66
     1
 10
0
 20
0
 30
0.0
 70
     1
 40
0
 41
0
  0
VERTEX
  8
0
 10
7.77626
 20
2.26443
 30
0.0
 40
0
 41
0
  0
VERTEX
  8
0
 10
8.09918
 20
2.26443
 30
0.0
 40
0
 41
0
  0
VERTEX
  8
0
 10
8.09918
 20
1.97862
 30
0.0
 40
0
 41
0
  0
VERTEX
  8
0
 10
7.77626
 20
1.97862
 30
0.0
 40
0
 41
0
  0
VERTEX
  8
0
 10
7.77626
 20
2.26443
 30
0.0
 40
0
 41
0
  0
SEQEND
 8
0
  0
POLYLINE
  8
0
 62
     0
 66
     1
 10
0
 20
0
 30
0.0
 70
     1
 40
0.75
 41
0.75
  0
VERTEX
  8
0
 10
7.77626
 20
2.26443
 30
0.0
 40
0.0104167
 41
0.0104167
  0
VERTEX
  8
0
 10
8.09918
 20
2.26443
 30
0.0
 40
0.0104167
 41
0.0104167
  0
VERTEX
  8
0
 10
8.09918
 20
1.97862
 30
0.0
 40
0.0104167
 41
0.0104167
  0
VERTEX
  8
0
 10
7.77626
 20
1.97862
 30
0.0
 40
0.0104167
 41
0.0104167
  0
VERTEX
  8
0
 10
7.77626
 20
2.26443
 30
0.0
 40
0.0104167
 41
0.0104167
  0
SEQEND
 8
0
  0
POLYLINE
  8
0
 62
     0
 66
     1
 10
0
 20
0
 30
0.0
 40
0.75
 41
0.75
  0
VERTEX
  8
0
 10
7.93772
 20
2.05675
 30
0.0
 40
0.0104167
 41
0.0104167
  0
VERTEX
  8
0
 10
7.93772
 20
2.18636
 30
0.0
 40
0.0104167
 41
0.0104167
  0
SEQEND
 8
0
  0
POLYLINE
  8
0
 62
     0
 66
     1
 10
0
 20
0
 30
0.0
 40
0.75
 41
0.75
  0
VERTEX
  8
0
 10
8.09918
 20
2.05675
 30
0.0
 40
0.0104167
 41
0.0104167
  0
VERTEX
  8
0
 10
7.77626
 20
2.05675
 30
0.0
 40
0.0104167
 41
0.0104167
  0
SEQEND
 8
0
  0
POLYLINE
  8
0
 62
     0
 66
     1
 10
0
 20
0
 30
0.0
 40
0.75
 41
0.75
  0
VERTEX
  8
0
 10
8.09918
 20
2.18636
 30
0.0
 40
0.0104167
 41
0.0104167
  0
VERTEX
  8
0
 10
7.77626
 20
2.18636
 30
0.0
 40
0.0104167
 41
0.0104167
  0
SEQEND
 8
0
  0
POLYLINE
  8
0
 62
     0
 66
     1
 10
0
 20
0
 30
0.0
 70
     1
 40
0
 41
0
  0
VERTEX
  8
0
 10
8.09918
 20
10.6309
 30
0.0
 40
0
 41
0
  0
VERTEX
  8
0
 10
0.822374
 20
10.6312
 30
0.0
 40
0
 41
0
  0
VERTEX
  8
0
 10
0.95779
 20
10.3083
 30
0.0
 40
0
 41
0
  0
VERTEX
  8
0
 10
7.77626
 20
10.3081
 30
0.0
 40
0
 41
0
  0
VERTEX
  8
0
 10
8.09918
 20
10.6309
 30
0.0
 40
0
 41
0
  0
SEQEND
 8
0
  0
POLYLINE
  8
0
 62
     0
 66
     1
 10
0
 20
0
 30
0.0
 70
     1
 40
0.15
 41
0.15
  0
VERTEX
  8
0
 10
8.09918
 20
10.6309
 30
0.0
 40
0.00208333
 41
0.00208333
  0
VERTEX
  8
0
 10
0.822374
 20
10.6312
 30
0.0
 40
0.00208333
 41
0.00208333
  0
VERTEX
  8
0
 10
0.95779
 20
10.3083
 30
0.0
 40
0.00208333
 41
0.00208333
  0
VERTEX
  8
0
 10
7.77626
 20
10.3081
 30
0.0
 40
0.00208333
 41
0.00208333
  0
VERTEX
  8
0
 10
8.09918
 20
10.6309
 30
0.0
 40
0.00208333
 41
0.00208333
  0
SEQEND
 8
0
  0
POLYLINE
  8
0
 62
     7
 66
     1
 10
0
 20
0
 30
0.0
 70
     1
 40
0
 41
0
  0
VERTEX
  8
0
 10
3.53293
 20
10.6311
 30
0.0
 40
0
 41
0
  0
VERTEX
  8
0
 10
1.38666
 20
10.6312
 30
0.0
 40
0
 41
0
  0
VERTEX
  8
0
 10
1.38656
 20
10.3083
 30
0.0
 40
0
 41
0
  0
VERTEX
  8
0
 10
3.53293
 20
10.3082
 30
0.0
 40
0
 41
0
  0
VERTEX
  8
0
 10
3.53293
 20
10.6311
 30
0.0
 40
0
 41
0
  0
SEQEND
 8
0
  0
POLYLINE
  8
0
 62
     0
 66
     1
 10
0
 20
0
 30
0.0
 70
     1
 40
0.75
 41
0.75
  0
VERTEX
  8
0
 10
3.53293
 20
10.6311
 30
0.0
 40
0.0104167
 41
0.0104167
  0
VERTEX
  8
0
 10
1.38666
 20
10.6312
 30
0.0
 40
0.0104167
 41
0.0104167
  0
VERTEX
  8
0
 10
1.38656
 20
10.3083
 30
0.0
 40
0.0104167
 41
0.0104167
  0
VERTEX
  8
0
 10
3.53293
 20
10.3082
 30
0.0
 40
0.0104167
 41
0.0104167
  0
VERTEX
  8
0
 10
3.53293
 20
10.6311
 30
0.0
 40
0.0104167
 41
0.0104167
  0
SEQEND
 8
0
  0
POLYLINE
  8
0
 62
     7
 66
     1
 10
0
 20
0
 30
0.0
 70
     1
 40
0
 41
0
  0
VERTEX
  8
0
 10
3.53293
 20
10.6311
 30
0.0
 40
0
 41
0
  0
VERTEX
  8
0
 10
1.38666
 20
10.6312
 30
0.0
 40
0
 41
0
  0
VERTEX
  8
0
 10
1.38656
 20
10.3083
 30
0.0
 40
0
 41
0
  0
VERTEX
  8
0
 10
3.53293
 20
10.3082
 30
0.0
 40
0
 41
0
  0
VERTEX
  8
0
 10
3.53293
 20
10.6311
 30
0.0
 40
0
 41
0
  0
SEQEND
 8
0
  0
POLYLINE
  8
0
 62
     0
 66
     1
 10
0
 20
0
 30
0.0
 70
     1
 40
0.75
 41
0.75
  0
VERTEX
  8
0
 10
3.53293
 20
10.6311
 30
0.0
 40
0.0104167
 41
0.0104167
  0
VERTEX
  8
0
 10
1.38666
 20
10.6312
 30
0.0
 40
0.0104167
 41
0.0104167
  0
VERTEX
  8
0
 10
1.38656
 20
10.3083
 30
0.0
 40
0.0104167
 41
0.0104167
  0
VERTEX
  8
0
 10
3.53293
 20
10.3082
 30
0.0
 40
0.0104167
 41
0.0104167
  0
VERTEX
  8
0
 10
3.53293
 20
10.6311
 30
0.0
 40
0.0104167
 41
0.0104167
  0
SEQEND
 8
0
  0
POLYLINE
  8
0
 62
     7
 66
     1
 10
0
 20
0
 30
0.0
 70
     1
 40
0
 41
0
  0
VERTEX
  8
0
 10
3.45481
 20
10.4697
 30
0.0
 40
0
 41
0
  0
VERTEX
  8
0
 10
1.46474
 20
10.4698
 30
0.0
 40
0
 41
0
  0
SEQEND
 8
0
  0
POLYLINE
  8
0
 62
     0
 66
     1
 10
0
 20
0
 30
0.0
 40
0.75
 41
0.75
  0
VERTEX
  8
0
 10
3.45481
 20
10.4697
 30
0.0
 40
0.0104167
 41
0.0104167
  0
VERTEX
  8
0
 10
1.46474
 20
10.4698
 30
0.0
 40
0.0104167
 41
0.0104167
  0
SEQEND
 8
0
  0
POLYLINE
  8
0
 62
     7
 66
     1
 10
0
 20
0
 30
0.0
 70
     1
 40
0
 41
0
  0
VERTEX
  8
0
 10
3.45481
 20
10.6311
 30
0.0
 40
0
 41
0
  0
VERTEX
  8
0
 10
3.45475
 20
10.3082
 30
0.0
 40
0
 41
0
  0
SEQEND
 8
0
  0
POLYLINE
  8
0
 62
     0
 66
     1
 10
0
 20
0
 30
0.0
 40
0.75
 41
0.75
  0
VERTEX
  8
0
 10
3.45481
 20
10.6311
 30
0.0
 40
0.0104167
 41
0.0104167
  0
VERTEX
  8
0
 10
3.45475
 20
10.3082
 30
0.0
 40
0.0104167
 41
0.0104167
  0
SEQEND
 8
0
  0
POLYLINE
  8
0
 62
     0
 66
     1
 10
0
 20
0
 30
0.0
 40
0.75
 41
0.75
  0
VERTEX
  8
0
 10
1.46474
 20
10.6312
 30
0.0
 40
0.0104167
 41
0.0104167
  0
VERTEX
  8
0
 10
1.46474
 20
10.3083
 30
0.0
 40
0.0104167
 41
0.0104167
  0
SEQEND
 8
0
  0
POLYLINE
  8
0
 62
     7
 66
     1
 10
0
 20
0
 30
0.0
 70
     1
 40
0
 41
0
  0
VERTEX
  8
0
 10
3.56158
 20
10.6311
 30
0.0
 40
0
 41
0
  0
VERTEX
  8
0
 10
4.5345
 20
10.6311
 30
0.0
 40
0
 41
0
  0
VERTEX
  8
0
 10
4.5345
 20
10.3082
 30
0.0
 40
0
 41
0
  0
VERTEX
  8
0
 10
3.56158
 20
10.3082
 30
0.0
 40
0
 41
0
  0
VERTEX
  8
0
 10
3.56158
 20
10.6311
 30
0.0
 40
0
 41
0
  0
SEQEND
 8
0
  0
POLYLINE
  8
0
 62
     0
 66
     1
 10
0
 20
0
 30
0.0
 70
     1
 40
0.75
 41
0.75
  0
VERTEX
  8
0
 10
3.56158
 20
10.6311
 30
0.0
 40
0.0104167
 41
0.0104167
  0
VERTEX
  8
0
 10
4.5345
 20
10.6311
 30
0.0
 40
0.0104167
 41
0.0104167
  0
VERTEX
  8
0
 10
4.5345
 20
10.3082
 30
0.0
 40
0.0104167
 41
0.0104167
  0
VERTEX
  8
0
 10
3.56158
 20
10.3082
 30
0.0
 40
0.0104167
 41
0.0104167
  0
VERTEX
  8
0
 10
3.56158
 20
10.6311
 30
0.0
 40
0.0104167
 41
0.0104167
  0
SEQEND
 8
0
  0
POLYLINE
  8
0
 62
     7
 66
     1
 10
0
 20
0
 30
0.0
 70
     1
 40
0
 41
0
  0
VERTEX
  8
0
 10
3.56158
 20
10.6311
 30
0.0
 40
0
 41
0
  0
VERTEX
  8
0
 10
4.5345
 20
10.6311
 30
0.0
 40
0
 41
0
  0
VERTEX
  8
0
 10
4.5345
 20
10.3082
 30
0.0
 40
0
 41
0
  0
VERTEX
  8
0
 10
3.56158
 20
10.3082
 30
0.0
 40
0
 41
0
  0
VERTEX
  8
0
 10
3.56158
 20
10.6311
 30
0.0
 40
0
 41
0
  0
SEQEND
 8
0
  0
POLYLINE
  8
0
 62
     0
 66
     1
 10
0
 20
0
 30
0.0
 70
     1
 40
0.75
 41
0.75
  0
VERTEX
  8
0
 10
3.56158
 20
10.6311
 30
0.0
 40
0.0104167
 41
0.0104167
  0
VERTEX
  8
0
 10
4.5345
 20
10.6311
 30
0.0
 40
0.0104167
 41
0.0104167
  0
VERTEX
  8
0
 10
4.5345
 20
10.3082
 30
0.0
 40
0.0104167
 41
0.0104167
  0
VERTEX
  8
0
 10
3.56158
 20
10.3082
 30
0.0
 40
0.0104167
 41
0.0104167
  0
VERTEX
  8
0
 10
3.56158
 20
10.6311
 30
0.0
 40
0.0104167
 41
0.0104167
  0
SEQEND
 8
0
  0
POLYLINE
  8
0
 62
     0
 66
     1
 10
0
 20
0
 30
0.0
 70
     1
 40
0.75
 41
0.75
  0
VERTEX
  8
0
 10
3.56158
 20
10.3082
 30
0.0
 40
0.0104167
 41
0.0104167
  0
VERTEX
  8
0
 10
3.56158
 20
10.2513
 30
0.0
 40
0.0104167
 41
0.0104167
  0
VERTEX
  8
0
 10
3.57676
 20
10.0802
 30
0.0
 40
0.0104167
 41
0.0104167
  0
VERTEX
  8
0
 10
3.62235
 20
9.88254
 30
0.0
 40
0.0104167
 41
0.0104167
  0
VERTEX
  8
0
 10
3.69835
 20
9.71528
 30
0.0
 40
0.0104167
 41
0.0104167
  0
VERTEX
  8
0
 10
3.80479
 20
9.57844
 30
0.0
 40
0.0104167
 41
0.0104167
  0
VERTEX
  8
0
 10
3.94157
 20
9.47206
 30
0.0
 40
0.0104167
 41
0.0104167
  0
VERTEX
  8
0
 10
4.10883
 20
9.396
 30
0.0
 40
0.0104167
 41
0.0104167
  0
VERTEX
  8
0
 10
4.30643
 20
9.35042
 30
0.0
 40
0.0104167
 41
0.0104167
  0
VERTEX
  8
0
 10
4.47749
 20
9.33518
 30
0.0
 40
0.0104167
 41
0.0104167
  0
VERTEX
  8
0
 10
4.5345
 20
9.33518
 30
0.0
 40
0.0104167
 41
0.0104167
  0
VERTEX
  8
0
 10
4.5345
 20
10.3082
 30
0.0
 40
0.0104167
 41
0.0104167
  0
VERTEX
  8
0
 10
3.56158
 20
10.3082
 30
0.0
 40
0.0104167
 41
0.0104167
  0
SEQEND
 8
0
  0
POLYLINE
  8
0
 62
     7
 66
     1
 10
0
 20
0
 30
0.0
 70
     1
 40
0
 41
0
  0
VERTEX
  8
0
 10
5.64344
 20
10.631
 30
0.0
 40
0
 41
0
  0
VERTEX
  8
0
 10
7.00271
 20
10.631
 30
0.0
 40
0
 41
0
  0
VERTEX
  8
0
 10
7.00271
 20
10.3081
 30
0.0
 40
0
 41
0
  0
VERTEX
  8
0
 10
5.64344
 20
10.3081
 30
0.0
 40
0
 41
0
  0
VERTEX
  8
0
 10
5.64344
 20
10.631
 30
0.0
 40
0
 41
0
  0
SEQEND
 8
0
  0
POLYLINE
  8
0
 62
     0
 66
     1
 10
0
 20
0
 30
0.0
 70
     1
 40
0.75
 41
0.75
  0
VERTEX
  8
0
 10
5.64344
 20
10.631
 30
0.0
 40
0.0104167
 41
0.0104167
  0
VERTEX
  8
0
 10
7.00271
 20
10.631
 30
0.0
 40
0.0104167
 41
0.0104167
  0
VERTEX
  8
0
 10
7.00271
 20
10.3081
 30
0.0
 40
0.0104167
 41
0.0104167
  0
VERTEX
  8
0
 10
5.64344
 20
10.3081
 30
0.0
 40
0.0104167
 41
0.0104167
  0
VERTEX
  8
0
 10
5.64344
 20
10.631
 30
0.0
 40
0.0104167
 41
0.0104167
  0
SEQEND
 8
0
  0
POLYLINE
  8
0
 62
     7
 66
     1
 10
0
 20
0
 30
0.0
 70
     1
 40
0
 41
0
  0
VERTEX
  8
0
 10
5.64344
 20
10.631
 30
0.0
 40
0
 41
0
  0
VERTEX
  8
0
 10
7.00271
 20
10.631
 30
0.0
 40
0
 41
0
  0
VERTEX
  8
0
 10
7.00271
 20
10.3081
 30
0.0
 40
0
 41
0
  0
VERTEX
  8
0
 10
5.64344
 20
10.3081
 30
0.0
 40
0
 41
0
  0
VERTEX
  8
0
 10
5.64344
 20
10.631
 30
0.0
 40
0
 41
0
  0
SEQEND
 8
0
  0
POLYLINE
  8
0
 62
     0
 66
     1
 10
0
 20
0
 30
0.0
 70
     1
 40
0.75
 41
0.75
  0
VERTEX
  8
0
 10
5.64344
 20
10.631
 30
0.0
 40
0.0104167
 41
0.0104167
  0
VERTEX
  8
0
 10
7.00271
 20
10.631
 30
0.0
 40
0.0104167
 41
0.0104167
  0
VERTEX
  8
0
 10
7.00271
 20
10.3081
 30
0.0
 40
0.0104167
 41
0.0104167
  0
VERTEX
  8
0
 10
5.64344
 20
10.3081
 30
0.0
 40
0.0104167
 41
0.0104167
  0
VERTEX
  8
0
 10
5.64344
 20
10.631
 30
0.0
 40
0.0104167
 41
0.0104167
  0
SEQEND
 8
0
  0
POLYLINE
  8
0
 62
     0
 66
     1
 10
0
 20
0
 30
0.0
 40
0.75
 41
0.75
  0
VERTEX
  8
0
 10
6.92464
 20
10.4696
 30
0.0
 40
0.0104167
 41
0.0104167
  0
VERTEX
  8
0
 10
5.72157
 20
10.4696
 30
0.0
 40
0.0104167
 41
0.0104167
  0
SEQEND
 8
0
  0
POLYLINE
  8
0
 62
     7
 66
     1
 10
0
 20
0
 30
0.0
 70
     1
 40
0
 41
0
  0
VERTEX
  8
0
 10
6.92464
 20
10.631
 30
0.0
 40
0
 41
0
  0
VERTEX
  8
0
 10
6.92458
 20
10.3081
 30
0.0
 40
0
 41
0
  0
SEQEND
 8
0
  0
POLYLINE
  8
0
 62
     0
 66
     1
 10
0
 20
0
 30
0.0
 40
0.75
 41
0.75
  0
VERTEX
  8
0
 10
6.92464
 20
10.631
 30
0.0
 40
0.0104167
 41
0.0104167
  0
VERTEX
  8
0
 10
6.92458
 20
10.3081
 30
0.0
 40
0.0104167
 41
0.0104167
  0
SEQEND
 8
0
  0
POLYLINE
  8
0
 62
     7
 66
     1
 10
0
 20
0
 30
0.0
 70
     1
 40
0
 41
0
  0
VERTEX
  8
0
 10
5.72157
 20
10.631
 30
0.0
 40
0
 41
0
  0
VERTEX
  8
0
 10
5.72151
 20
10.3081
 30
0.0
 40
0
 41
0
  0
SEQEND
 8
0
  0
POLYLINE
  8
0
 62
     0
 66
     1
 10
0
 20
0
 30
0.0
 40
0.75
 41
0.75
  0
VERTEX
  8
0
 10
5.72157
 20
10.631
 30
0.0
 40
0.0104167
 41
0.0104167
  0
VERTEX
  8
0
 10
5.72151
 20
10.3081
 30
0.0
 40
0.0104167
 41
0.0104167
  0
SEQEND
 8
0
  0
POLYLINE
  8
0
 62
     7
 66
     1
 10
0
 20
0
 30
0.0
 70
     1
 40
0
 41
0
  0
VERTEX
  8
0
 10
7.00271
 20
10.631
 30
0.0
 40
0
 41
0
  0
VERTEX
  8
0
 10
7.34614
 20
10.631
 30
0.0
 40
0
 41
0
  0
VERTEX
  8
0
 10
7.34614
 20
10.3081
 30
0.0
 40
0
 41
0
  0
VERTEX
  8
0
 10
7.00271
 20
10.3081
 30
0.0
 40
0
 41
0
  0
VERTEX
  8
0
 10
7.00271
 20
10.631
 30
0.0
 40
0
 41
0
  0
SEQEND
 8
0
  0
POLYLINE
  8
0
 62
     0
 66
     1
 10
0
 20
0
 30
0.0
 70
     1
 40
0.75
 41
0.75
  0
VERTEX
  8
0
 10
7.00271
 20
10.631
 30
0.0
 40
0.0104167
 41
0.0104167
  0
VERTEX
  8
0
 10
7.34614
 20
10.631
 30
0.0
 40
0.0104167
 41
0.0104167
  0
VERTEX
  8
0
 10
7.34614
 20
10.3081
 30
0.0
 40
0.0104167
 41
0.0104167
  0
VERTEX
  8
0
 10
7.00271
 20
10.3081
 30
0.0
 40
0.0104167
 41
0.0104167
  0
VERTEX
  8
0
 10
7.00271
 20
10.631
 30
0.0
 40
0.0104167
 41
0.0104167
  0
SEQEND
 8
0
  0
POLYLINE
  8
0
 62
     7
 66
     1
 10
0
 20
0
 30
0.0
 70
     1
 40
0
 41
0
  0
VERTEX
  8
0
 10
7.00271
 20
10.631
 30
0.0
 40
0
 41
0
  0
VERTEX
  8
0
 10
7.34614
 20
10.631
 30
0.0
 40
0
 41
0
  0
VERTEX
  8
0
 10
7.34614
 20
10.3081
 30
0.0
 40
0
 41
0
  0
VERTEX
  8
0
 10
7.00271
 20
10.3081
 30
0.0
 40
0
 41
0
  0
VERTEX
  8
0
 10
7.00271
 20
10.631
 30
0.0
 40
0
 41
0
  0
SEQEND
 8
0
  0
POLYLINE
  8
0
 62
     0
 66
     1
 10
0
 20
0
 30
0.0
 70
     1
 40
0.75
 41
0.75
  0
VERTEX
  8
0
 10
7.00271
 20
10.631
 30
0.0
 40
0.0104167
 41
0.0104167
  0
VERTEX
  8
0
 10
7.34614
 20
10.631
 30
0.0
 40
0.0104167
 41
0.0104167
  0
VERTEX
  8
0
 10
7.34614
 20
10.3081
 30
0.0
 40
0.0104167
 41
0.0104167
  0
VERTEX
  8
0
 10
7.00271
 20
10.3081
 30
0.0
 40
0.0104167
 41
0.0104167
  0
VERTEX
  8
0
 10
7.00271
 20
10.631
 30
0.0
 40
0.0104167
 41
0.0104167
  0
SEQEND
 8
0
  0
POLYLINE
  8
0
 62
     0
 66
     1
 10
0
 20
0
 30
0.0
 40
0.75
 41
0.75
  0
VERTEX
  8
0
 10
7.26801
 20
10.4695
 30
0.0
 40
0.0104167
 41
0.0104167
  0
VERTEX
  8
0
 10
7.08089
 20
10.4695
 30
0.0
 40
0.0104167
 41
0.0104167
  0
SEQEND
 8
0
  0
POLYLINE
  8
0
 62
     0
 66
     1
 10
0
 20
0
 30
0.0
 40
0.75
 41
0.75
  0
VERTEX
  8
0
 10
7.26801
 20
10.631
 30
0.0
 40
0.0104167
 41
0.0104167
  0
VERTEX
  8
0
 10
7.26801
 20
10.3081
 30
0.0
 40
0.0104167
 41
0.0104167
  0
SEQEND
 8
0
  0
POLYLINE
  8
0
 62
     7
 66
     1
 10
0
 20
0
 30
0.0
 70
     1
 40
0
 41
0
  0
VERTEX
  8
0
 10
7.08089
 20
10.631
 30
0.0
 40
0
 41
0
  0
VERTEX
  8
0
 10
7.08083
 20
10.3081
 30
0.0
 40
0
 41
0
  0
SEQEND
 8
0
  0
POLYLINE
  8
0
 62
     0
 66
     1
 10
0
 20
0
 30
0.0
 40
0.75
 41
0.75
  0
VERTEX
  8
0
 10
7.08089
 20
10.631
 30
0.0
 40
0.0104167
 41
0.0104167
  0
VERTEX
  8
0
 10
7.08083
 20
10.3081
 30
0.0
 40
0.0104167
 41
0.0104167
  0
SEQEND
 8
0
  0
POLYLINE
  8
0
 62
     0
 66
     1
 10
0
 20
0
 30
0.0
 70
     1
 40
0
 41
0
  0
VERTEX
  8
0
 10
0.822374
 20
12.1847
 30
0.0
 40
0
 41
0
  0
VERTEX
  8
0
 10
0.947374
 20
12.1847
 30
0.0
 40
0
 41
0
  0
VERTEX
  8
0
 10
0.947374
 20
10.6312
 30
0.0
 40
0
 41
0
  0
VERTEX
  8
0
 10
0.822374
 20
10.6312
 30
0.0
 40
0
 41
0
  0
VERTEX
  8
0
 10
0.822374
 20
12.1847
 30
0.0
 40
0
 41
0
  0
SEQEND
 8
0
  0
POLYLINE
  8
0
 62
     0
 66
     1
 10
0
 20
0
 30
0.0
 70
     1
 40
0.15
 41
0.15
  0
VERTEX
  8
0
 10
0.822374
 20
12.1847
 30
0.0
 40
0.00208333
 41
0.00208333
  0
VERTEX
  8
0
 10
0.947374
 20
12.1847
 30
0.0
 40
0.00208333
 41
0.00208333
  0
VERTEX
  8
0
 10
0.947374
 20
10.6312
 30
0.0
 40
0.00208333
 41
0.00208333
  0
VERTEX
  8
0
 10
0.822374
 20
10.6312
 30
0.0
 40
0.00208333
 41
0.00208333
  0
VERTEX
  8
0
 10
0.822374
 20
12.1847
 30
0.0
 40
0.00208333
 41
0.00208333
  0
SEQEND
 8
0
  0
POLYLINE
  8
0
 62
     7
 66
     1
 10
0
 20
0
 30
0.0
 70
     1
 40
0
 41
0
  0
VERTEX
  8
0
 10
0.947374
 20
12.1847
 30
0.0
 40
0
 41
0
  0
VERTEX
  8
0
 10
5.09896
 20
12.1847
 30
0.0
 40
0
 41
0
  0
VERTEX
  8
0
 10
5.09896
 20
12.0597
 30
0.0
 40
0
 41
0
  0
VERTEX
  8
0
 10
0.947374
 20
12.0597
 30
0.0
 40
0
 41
0
  0
VERTEX
  8
0
 10
0.947374
 20
12.1847
 30
0.0
 40
0
 41
0
  0
SEQEND
 8
0
  0
POLYLINE
  8
0
 62
     0
 66
     1
 10
0
 20
0
 30
0.0
 70
     1
 40
0.15
 41
0.15
  0
VERTEX
  8
0
 10
0.947374
 20
12.1847
 30
0.0
 40
0.00208333
 41
0.00208333
  0
VERTEX
  8
0
 10
5.09896
 20
12.1847
 30
0.0
 40
0.00208333
 41
0.00208333
  0
VERTEX
  8
0
 10
5.09896
 20
12.0597
 30
0.0
 40
0.00208333
 41
0.00208333
  0
VERTEX
  8
0
 10
0.947374
 20
12.0597
 30
0.0
 40
0.00208333
 41
0.00208333
  0
VERTEX
  8
0
 10
0.947374
 20
12.1847
 30
0.0
 40
0.00208333
 41
0.00208333
  0
SEQEND
 8
0
  0
POLYLINE
  8
0
 62
     0
 66
     1
 10
0
 20
0
 30
0.0
 70
     1
 40
0
 41
0
  0
VERTEX
  8
0
 10
4.97396
 20
12.1847
 30
0.0
 40
0
 41
0
  0
VERTEX
  8
0
 10
5.09896
 20
12.1847
 30
0.0
 40
0
 41
0
  0
VERTEX
  8
0
 10
5.09896
 20
10.6311
 30
0.0
 40
0
 41
0
  0
VERTEX
  8
0
 10
4.97396
 20
10.6311
 30
0.0
 40
0
 41
0
  0
VERTEX
  8
0
 10
4.97396
 20
12.1847
 30
0.0
 40
0
 41
0
  0
SEQEND
 8
0
  0
POLYLINE
  8
0
 62
     0
 66
     1
 10
0
 20
0
 30
0.0
 70
     1
 40
0.15
 41
0.15
  0
VERTEX
  8
0
 10
4.97396
 20
12.1847
 30
0.0
 40
0.00208333
 41
0.00208333
  0
VERTEX
  8
0
 10
5.09896
 20
12.1847
 30
0.0
 40
0.00208333
 41
0.00208333
  0
VERTEX
  8
0
 10
5.09896
 20
10.6311
 30
0.0
 40
0.00208333
 41
0.00208333
  0
VERTEX
  8
0
 10
4.97396
 20
10.6311
 30
0.0
 40
0.00208333
 41
0.00208333
  0
VERTEX
  8
0
 10
4.97396
 20
12.1847
 30
0.0
 40
0.00208333
 41
0.00208333
  0
SEQEND
 8
0
  0
POLYLINE
  8
0
 62
     0
 66
     1
 10
0
 20
0
 30
0.0
 70
     1
 40
0
 41
0
  0
VERTEX
  8
0
 10
4.95019
 20
2.96089
 30
0.0
 40
0
 41
0
  0
VERTEX
  8
0
 10
5.09603
 20
2.96089
 30
0.0
 40
0
 41
0
  0
VERTEX
  8
0
 10
5.09603
 20
0.000596789
 30
0.0
 40
0
 41
0
  0
VERTEX
  8
0
 10
4.95019
 20
0.000596789
 30
0.0
 40
0
 41
0
  0
VERTEX
  8
0
 10
4.95019
 20
2.96089
 30
0.0
 40
0
 41
0
  0
SEQEND
 8
0
  0
POLYLINE
  8
0
 62
     0
 66
     1
 10
0
 20
0
 30
0.0
 70
     1
 40
0.15
 41
0.15
  0
VERTEX
  8
0
 10
4.95019
 20
2.96089
 30
0.0
 40
0.00208333
 41
0.00208333
  0
VERTEX
  8
0
 10
5.09603
 20
2.96089
 30
0.0
 40
0.00208333
 41
0.00208333
  0
VERTEX
  8
0
 10
5.09603
 20
0.000596789
 30
0.0
 40
0.00208333
 41
0.00208333
  0
VERTEX
  8
0
 10
4.95019
 20
0.000596789
 30
0.0
 40
0.00208333
 41
0.00208333
  0
VERTEX
  8
0
 10
4.95019
 20
2.96089
 30
0.0
 40
0.00208333
 41
0.00208333
  0
SEQEND
 8
0
  0
POLYLINE
  8
0
 62
     0
 66
     1
 10
0
 20
0
 30
0.0
 70
     1
 40
0
 41
0
  0
VERTEX
  8
0
 10
4.95019
 20
3.90457
 30
0.0
 40
0
 41
0
  0
VERTEX
  8
0
 10
5.09603
 20
3.90457
 30
0.0
 40
0
 41
0
  0
VERTEX
  8
0
 10
5.09603
 20
2.96089
 30
0.0
 40
0
 41
0
  0
VERTEX
  8
0
 10
4.95019
 20
2.96089
 30
0.0
 40
0
 41
0
  0
VERTEX
  8
0
 10
4.95019
 20
3.90457
 30
0.0
 40
0
 41
0
  0
SEQEND
 8
0
  0
POLYLINE
  8
0
 62
     0
 66
     1
 10
0
 20
0
 30
0.0
 70
     1
 40
0.15
 41
0.15
  0
VERTEX
  8
0
 10
4.95019
 20
3.90457
 30
0.0
 40
0.00208333
 41
0.00208333
  0
VERTEX
  8
0
 10
5.09603
 20
3.90457
 30
0.0
 40
0.00208333
 41
0.00208333
  0
VERTEX
  8
0
 10
5.09603
 20
2.96089
 30
0.0
 40
0.00208333
 41
0.00208333
  0
VERTEX
  8
0
 10
4.95019
 20
2.96089
 30
0.0
 40
0.00208333
 41
0.00208333
  0
VERTEX
  8
0
 10
4.95019
 20
3.90457
 30
0.0
 40
0.00208333
 41
0.00208333
  0
SEQEND
 8
0
  0
POLYLINE
  8
0
 62
     7
 66
     1
 10
0
 20
0
 30
0.0
 70
     1
 40
0
 41
0
  0
VERTEX
  8
0
 10
4.95019
 20
3.90018
 30
0.0
 40
0
 41
0
  0
VERTEX
  8
0
 10
5.09603
 20
3.90018
 30
0.0
 40
0
 41
0
  0
VERTEX
  8
0
 10
5.09603
 20
2.96869
 30
0.0
 40
0
 41
0
  0
VERTEX
  8
0
 10
4.95019
 20
2.96869
 30
0.0
 40
0
 41
0
  0
VERTEX
  8
0
 10
4.95019
 20
3.90018
 30
0.0
 40
0
 41
0
  0
SEQEND
 8
0
  0
POLYLINE
  8
0
 62
     0
 66
     1
 10
0
 20
0
 30
0.0
 70
     1
 40
0.75
 41
0.75
  0
VERTEX
  8
0
 10
4.95019
 20
3.90018
 30
0.0
 40
0.0104167
 41
0.0104167
  0
VERTEX
  8
0
 10
5.09603
 20
3.90018
 30
0.0
 40
0.0104167
 41
0.0104167
  0
VERTEX
  8
0
 10
5.09603
 20
2.96869
 30
0.0
 40
0.0104167
 41
0.0104167
  0
VERTEX
  8
0
 10
4.95019
 20
2.96869
 30
0.0
 40
0.0104167
 41
0.0104167
  0
VERTEX
  8
0
 10
4.95019
 20
3.90018
 30
0.0
 40
0.0104167
 41
0.0104167
  0
SEQEND
 8
0
  0
POLYLINE
  8
0
 62
     7
 66
     1
 10
0
 20
0
 30
0.0
 70
     1
 40
0
 41
0
  0
VERTEX
  8
0
 10
4.95019
 20
3.90018
 30
0.0
 40
0
 41
0
  0
VERTEX
  8
0
 10
5.09603
 20
3.90018
 30
0.0
 40
0
 41
0
  0
VERTEX
  8
0
 10
5.09603
 20
2.96869
 30
0.0
 40
0
 41
0
  0
VERTEX
  8
0
 10
4.95019
 20
2.96869
 30
0.0
 40
0
 41
0
  0
VERTEX
  8
0
 10
4.95019
 20
3.90018
 30
0.0
 40
0
 41
0
  0
SEQEND
 8
0
  0
POLYLINE
  8
0
 62
     7
 66
     1
 10
0
 20
0
 30
0.0
 70
     1
 40
0.75
 41
0.75
  0
VERTEX
  8
0
 10
4.95019
 20
3.90018
 30
0.0
 40
0.0104167
 41
0.0104167
  0
VERTEX
  8
0
 10
5.09603
 20
3.90018
 30
0.0
 40
0.0104167
 41
0.0104167
  0
VERTEX
  8
0
 10
5.09603
 20
2.96869
 30
0.0
 40
0.0104167
 41
0.0104167
  0
VERTEX
  8
0
 10
4.95019
 20
2.96869
 30
0.0
 40
0.0104167
 41
0.0104167
  0
VERTEX
  8
0
 10
4.95019
 20
3.90018
 30
0.0
 40
0.0104167
 41
0.0104167
  0
SEQEND
 8
0
  0
POLYLINE
  8
0
 62
     0
 66
     1
 10
0
 20
0
 30
0.0
 70
     1
 40
0
 41
0
  0
VERTEX
  8
0
 10
4.95019
 20
10.6311
 30
0.0
 40
0
 41
0
  0
VERTEX
  8
0
 10
5.09603
 20
10.6311
 30
0.0
 40
0
 41
0
  0
VERTEX
  8
0
 10
5.09603
 20
3.90457
 30
0.0
 40
0
 41
0
  0
VERTEX
  8
0
 10
4.95019
 20
3.90457
 30
0.0
 40
0
 41
0
  0
VERTEX
  8
0
 10
4.95019
 20
10.6311
 30
0.0
 40
0
 41
0
  0
SEQEND
 8
0
  0
POLYLINE
  8
0
 62
     0
 66
     1
 10
0
 20
0
 30
0.0
 70
     1
 40
0.15
 41
0.15
  0
VERTEX
  8
0
 10
4.95019
 20
10.6311
 30
0.0
 40
0.00208333
 41
0.00208333
  0
VERTEX
  8
0
 10
5.09603
 20
10.6311
 30
0.0
 40
0.00208333
 41
0.00208333
  0
VERTEX
  8
0
 10
5.09603
 20
3.90457
 30
0.0
 40
0.00208333
 41
0.00208333
  0
VERTEX
  8
0
 10
4.95019
 20
3.90457
 30
0.0
 40
0.00208333
 41
0.00208333
  0
VERTEX
  8
0
 10
4.95019
 20
10.6311
 30
0.0
 40
0.00208333
 41
0.00208333
  0
SEQEND
 8
0
  0
POLYLINE
  8
0
 62
     7
 66
     1
 10
0
 20
0
 30
0.0
 70
     1
 40
0
 41
0
  0
VERTEX
  8
0
 10
4.95019
 20
6.50256
 30
0.0
 40
0
 41
0
  0
VERTEX
  8
0
 10
5.09603
 20
6.50256
 30
0.0
 40
0
 41
0
  0
VERTEX
  8
0
 10
5.09603
 20
5.58192
 30
0.0
 40
0
 41
0
  0
VERTEX
  8
0
 10
4.95019
 20
5.58192
 30
0.0
 40
0
 41
0
  0
VERTEX
  8
0
 10
4.95019
 20
6.50256
 30
0.0
 40
0
 41
0
  0
SEQEND
 8
0
  0
POLYLINE
  8
0
 62
     0
 66
     1
 10
0
 20
0
 30
0.0
 70
     1
 40
0.75
 41
0.75
  0
VERTEX
  8
0
 10
4.95019
 20
6.50256
 30
0.0
 40
0.0104167
 41
0.0104167
  0
VERTEX
  8
0
 10
5.09603
 20
6.50256
 30
0.0
 40
0.0104167
 41
0.0104167
  0
VERTEX
  8
0
 10
5.09603
 20
5.58192
 30
0.0
 40
0.0104167
 41
0.0104167
  0
VERTEX
  8
0
 10
4.95019
 20
5.58192
 30
0.0
 40
0.0104167
 41
0.0104167
  0
VERTEX
  8
0
 10
4.95019
 20
6.50256
 30
0.0
 40
0.0104167
 41
0.0104167
  0
SEQEND
 8
0
  0
POLYLINE
  8
0
 62
     7
 66
     1
 10
0
 20
0
 30
0.0
 70
     1
 40
0
 41
0
  0
VERTEX
  8
0
 10
4.95019
 20
6.50256
 30
0.0
 40
0
 41
0
  0
VERTEX
  8
0
 10
5.09603
 20
6.50256
 30
0.0
 40
0
 41
0
  0
VERTEX
  8
0
 10
5.09603
 20
5.58192
 30
0.0
 40
0
 41
0
  0
VERTEX
  8
0
 10
4.95019
 20
5.58192
 30
0.0
 40
0
 41
0
  0
VERTEX
  8
0
 10
4.95019
 20
6.50256
 30
0.0
 40
0
 41
0
  0
SEQEND
 8
0
  0
POLYLINE
  8
0
 62
     0
 66
     1
 10
0
 20
0
 30
0.0
 70
     1
 40
0.75
 41
0.75
  0
VERTEX
  8
0
 10
4.95019
 20
6.50256
 30
0.0
 40
0.0104167
 41
0.0104167
  0
VERTEX
  8
0
 10
5.09603
 20
6.50256
 30
0.0
 40
0.0104167
 41
0.0104167
  0
VERTEX
  8
0
 10
5.09603
 20
5.58192
 30
0.0
 40
0.0104167
 41
0.0104167
  0
VERTEX
  8
0
 10
4.95019
 20
5.58192
 30
0.0
 40
0.0104167
 41
0.0104167
  0
VERTEX
  8
0
 10
4.95019
 20
6.50256
 30
0.0
 40
0.0104167
 41
0.0104167
  0
SEQEND
 8
0
  0
POLYLINE
  8
0
 62
     0
 66
     1
 10
0
 20
0
 30
0.0
 70
     1
 40
0.75
 41
0.75
  0
VERTEX
  8
0
 10
5.09603
 20
6.50256
 30
0.0
 40
0.0104167
 41
0.0104167
  0
VERTEX
  8
0
 10
5.14996
 20
6.50256
 30
0.0
 40
0.0104167
 41
0.0104167
  0
VERTEX
  8
0
 10
5.31179
 20
6.48817
 30
0.0
 40
0.0104167
 41
0.0104167
  0
VERTEX
  8
0
 10
5.49881
 20
6.44504
 30
0.0
 40
0.0104167
 41
0.0104167
  0
VERTEX
  8
0
 10
5.65701
 20
6.3731
 30
0.0
 40
0.0104167
 41
0.0104167
  0
VERTEX
  8
0
 10
5.78646
 20
6.2724
 30
0.0
 40
0.0104167
 41
0.0104167
  0
VERTEX
  8
0
 10
5.88715
 20
6.14296
 30
0.0
 40
0.0104167
 41
0.0104167
  0
VERTEX
  8
0
 10
5.9591
 20
5.98475
 30
0.0
 40
0.0104167
 41
0.0104167
  0
VERTEX
  8
0
 10
6.00222
 20
5.79775
 30
0.0
 40
0.0104167
 41
0.0104167
  0
VERTEX
  8
0
 10
6.01665
 20
5.6359
 30
0.0
 40
0.0104167
 41
0.0104167
  0
VERTEX
  8
0
 10
6.01665
 20
5.58192
 30
0.0
 40
0.0104167
 41
0.0104167
  0
VERTEX
  8
0
 10
5.09603
 20
5.58192
 30
0.0
 40
0.0104167
 41
0.0104167
  0
VERTEX
  8
0
 10
5.09603
 20
6.50256
 30
0.0
 40
0.0104167
 41
0.0104167
  0
SEQEND
 8
0
  0
POLYLINE
  8
0
 62
     0
 66
     1
 10
0
 20
0
 30
0.0
 70
     1
 40
0
 41
0
  0
VERTEX
  8
0
 10
2.64675
 20
1.91276
 30
0.0
 40
0
 41
0
  0
VERTEX
  8
0
 10
5.09603
 20
1.91276
 30
0.0
 40
0
 41
0
  0
VERTEX
  8
0
 10
5.09603
 20
1.81082
 30
0.0
 40
0
 41
0
  0
VERTEX
  8
0
 10
2.64675
 20
1.81082
 30
0.0
 40
0
 41
0
  0
VERTEX
  8
0
 10
2.64675
 20
1.91276
 30
0.0
 40
0
 41
0
  0
SEQEND
 8
0
  0
POLYLINE
  8
0
 62
     0
 66
     1
 10
0
 20
0
 30
0.0
 70
     1
 40
0.15
 41
0.15
  0
VERTEX
  8
0
 10
2.64675
 20
1.91276
 30
0.0
 40
0.00208333
 41
0.00208333
  0
VERTEX
  8
0
 10
5.09603
 20
1.91276
 30
0.0
 40
0.00208333
 41
0.00208333
  0
VERTEX
  8
0
 10
5.09603
 20
1.81082
 30
0.0
 40
0.00208333
 41
0.00208333
  0
VERTEX
  8
0
 10
2.64675
 20
1.81082
 30
0.0
 40
0.00208333
 41
0.00208333
  0
VERTEX
  8
0
 10
2.64675
 20
1.91276
 30
0.0
 40
0.00208333
 41
0.00208333
  0
SEQEND
 8
0
  0
POLYLINE
  8
0
 62
     7
 66
     1
 10
0
 20
0
 30
0.0
 70
     1
 40
0
 41
0
  0
VERTEX
  8
0
 10
3.61822
 20
1.91276
 30
0.0
 40
0
 41
0
  0
VERTEX
  8
0
 10
4.40272
 20
1.91276
 30
0.0
 40
0
 41
0
  0
VERTEX
  8
0
 10
4.40272
 20
1.81082
 30
0.0
 40
0
 41
0
  0
VERTEX
  8
0
 10
3.61822
 20
1.81082
 30
0.0
 40
0
 41
0
  0
VERTEX
  8
0
 10
3.61822
 20
1.91276
 30
0.0
 40
0
 41
0
  0
SEQEND
 8
0
  0
POLYLINE
  8
0
 62
     0
 66
     1
 10
0
 20
0
 30
0.0
 70
     1
 40
0.75
 41
0.75
  0
VERTEX
  8
0
 10
3.61822
 20
1.91276
 30
0.0
 40
0.0104167
 41
0.0104167
  0
VERTEX
  8
0
 10
4.40272
 20
1.91276
 30
0.0
 40
0.0104167
 41
0.0104167
  0
VERTEX
  8
0
 10
4.40272
 20
1.81082
 30
0.0
 40
0.0104167
 41
0.0104167
  0
VERTEX
  8
0
 10
3.61822
 20
1.81082
 30
0.0
 40
0.0104167
 41
0.0104167
  0
VERTEX
  8
0
 10
3.61822
 20
1.91276
 30
0.0
 40
0.0104167
 41
0.0104167
  0
SEQEND
 8
0
  0
POLYLINE
  8
0
 62
     7
 66
     1
 10
0
 20
0
 30
0.0
 70
     1
 40
0
 41
0
  0
VERTEX
  8
0
 10
3.61822
 20
1.91276
 30
0.0
 40
0
 41
0
  0
VERTEX
  8
0
 10
4.40272
 20
1.91276
 30
0.0
 40
0
 41
0
  0
VERTEX
  8
0
 10
4.40272
 20
1.81082
 30
0.0
 40
0
 41
0
  0
VERTEX
  8
0
 10
3.61822
 20
1.81082
 30
0.0
 40
0
 41
0
  0
VERTEX
  8
0
 10
3.61822
 20
1.91276
 30
0.0
 40
0
 41
0
  0
SEQEND
 8
0
  0
POLYLINE
  8
0
 62
     0
 66
     1
 10
0
 20
0
 30
0.0
 70
     1
 40
0.75
 41
0.75
  0
VERTEX
  8
0
 10
3.61822
 20
1.91276
 30
0.0
 40
0.0104167
 41
0.0104167
  0
VERTEX
  8
0
 10
4.40272
 20
1.91276
 30
0.0
 40
0.0104167
 41
0.0104167
  0
VERTEX
  8
0
 10
4.40272
 20
1.81082
 30
0.0
 40
0.0104167
 41
0.0104167
  0
VERTEX
  8
0
 10
3.61822
 20
1.81082
 30
0.0
 40
0.0104167
 41
0.0104167
  0
VERTEX
  8
0
 10
3.61822
 20
1.91276
 30
0.0
 40
0.0104167
 41
0.0104167
  0
SEQEND
 8
0
  0
POLYLINE
  8
0
 62
     0
 66
     1
 10
0
 20
0
 30
0.0
 70
     1
 40
0.75
 41
0.75
  0
VERTEX
  8
0
 10
3.61822
 20
1.91276
 30
0.0
 40
0.0104167
 41
0.0104167
  0
VERTEX
  8
0
 10
3.61822
 20
1.95876
 30
0.0
 40
0.0104167
 41
0.0104167
  0
VERTEX
  8
0
 10
3.63043
 20
2.09668
 30
0.0
 40
0.0104167
 41
0.0104167
  0
VERTEX
  8
0
 10
3.66721
 20
2.25603
 30
0.0
 40
0.0104167
 41
0.0104167
  0
VERTEX
  8
0
 10
3.72851
 20
2.39085
 30
0.0
 40
0.0104167
 41
0.0104167
  0
VERTEX
  8
0
 10
3.81435
 20
2.50114
 30
0.0
 40
0.0104167
 41
0.0104167
  0
VERTEX
  8
0
 10
3.92464
 20
2.58697
 30
0.0
 40
0.0104167
 41
0.0104167
  0
VERTEX
  8
0
 10
4.05946
 20
2.64828
 30
0.0
 40
0.0104167
 41
0.0104167
  0
VERTEX
  8
0
 10
4.21881
 20
2.68506
 30
0.0
 40
0.0104167
 41
0.0104167
  0
VERTEX
  8
0
 10
4.35672
 20
2.69726
 30
0.0
 40
0.0104167
 41
0.0104167
  0
VERTEX
  8
0
 10
4.40272
 20
2.69726
 30
0.0
 40
0.0104167
 41
0.0104167
  0
VERTEX
  8
0
 10
4.40272
 20
1.91276
 30
0.0
 40
0.0104167
 41
0.0104167
  0
VERTEX
  8
0
 10
3.61822
 20
1.91276
 30
0.0
 40
0.0104167
 41
0.0104167
  0
SEQEND
 8
0
  0
POLYLINE
  8
0
 62
     0
 66
     1
 10
0
 20
0
 30
0.0
 70
     1
 40
0
 41
0
  0
VERTEX
  8
0
 10
4.95019
 20
4.62674
 30
0.0
 40
0
 41
0
  0
VERTEX
  8
0
 10
8.09918
 20
4.62674
 30
0.0
 40
0
 41
0
  0
VERTEX
  8
0
 10
8.09918
 20
4.53537
 30
0.0
 40
0
 41
0
  0
VERTEX
  8
0
 10
4.95019
 20
4.53537
 30
0.0
 40
0
 41
0
  0
VERTEX
  8
0
 10
4.95019
 20
4.62674
 30
0.0
 40
0
 41
0
  0
SEQEND
 8
0
  0
POLYLINE
  8
0
 62
     0
 66
     1
 10
0
 20
0
 30
0.0
 70
     1
 40
0.15
 41
0.15
  0
VERTEX
  8
0
 10
4.95019
 20
4.62674
 30
0.0
 40
0.00208333
 41
0.00208333
  0
VERTEX
  8
0
 10
8.09918
 20
4.62674
 30
0.0
 40
0.00208333
 41
0.00208333
  0
VERTEX
  8
0
 10
8.09918
 20
4.53537
 30
0.0
 40
0.00208333
 41
0.00208333
  0
VERTEX
  8
0
 10
4.95019
 20
4.53537
 30
0.0
 40
0.00208333
 41
0.00208333
  0
VERTEX
  8
0
 10
4.95019
 20
4.62674
 30
0.0
 40
0.00208333
 41
0.00208333
  0
SEQEND
 8
0
  0
POLYLINE
  8
0
 62
     0
 66
     1
 10
0
 20
0
 30
0.0
 70
     1
 40
0
 41
0
  0
VERTEX
  8
0
 10
4.95019
 20
0.830404
 30
0.0
 40
0
 41
0
  0
VERTEX
  8
0
 10
5.7474
 20
0.830404
 30
0.0
 40
0
 41
0
  0
VERTEX
  8
0
 10
5.7474
 20
0.00195313
 30
0.0
 40
0
 41
0
  0
VERTEX
  8
0
 10
4.95019
 20
0.00195313
 30
0.0
 40
0
 41
0
  0
VERTEX
  8
0
 10
4.95019
 20
0.830404
 30
0.0
 40
0
 41
0
  0
SEQEND
 8
0
  0
POLYLINE
  8
0
 62
     0
 66
     1
 10
0
 20
0
 30
0.0
 70
     1
 40
0.15
 41
0.15
  0
VERTEX
  8
0
 10
4.95019
 20
0.830404
 30
0.0
 40
0.00208333
 41
0.00208333
  0
VERTEX
  8
0
 10
5.7474
 20
0.830404
 30
0.0
 40
0.00208333
 41
0.00208333
  0
VERTEX
  8
0
 10
5.7474
 20
0.00195313
 30
0.0
 40
0.00208333
 41
0.00208333
  0
VERTEX
  8
0
 10
4.95019
 20
0.00195313
 30
0.0
 40
0.00208333
 41
0.00208333
  0
VERTEX
  8
0
 10
4.95019
 20
0.830404
 30
0.0
 40
0.00208333
 41
0.00208333
  0
SEQEND
 8
0
  0
POLYLINE
  8
0
 62
     7
 66
     1
 10
0
 20
0
 30
0.0
 70
     1
 40
0
 41
0
  0
VERTEX
  8
0
 10
5.09603
 20
2.79486
 30
0.0
 40
0
 41
0
  0
VERTEX
  8
0
 10
5.7474
 20
2.79486
 30
0.0
 40
0
 41
0
  0
VERTEX
  8
0
 10
5.7474
 20
0.830404
 30
0.0
 40
0
 41
0
  0
VERTEX
  8
0
 10
5.09603
 20
0.830404
 30
0.0
 40
0
 41
0
  0
VERTEX
  8
0
 10
5.09603
 20
2.79486
 30
0.0
 40
0
 41
0
  0
SEQEND
 8
0
  0
POLYLINE
  8
0
 62
     0
 66
     1
 10
0
 20
0
 30
0.0
 70
     1
 40
0.75
 41
0.75
  0
VERTEX
  8
0
 10
5.09603
 20
2.79486
 30
0.0
 40
0.0104167
 41
0.0104167
  0
VERTEX
  8
0
 10
5.09603
 20
0.830404
 30
0.0
 40
0.0104167
 41
0.0104167
  0
VERTEX
  8
0
 10
5.7474
 20
0.830404
 30
0.0
 40
0.0104167
 41
0.0104167
  0
VERTEX
  8
0
 10
5.7474
 20
2.79486
 30
0.0
 40
0.0104167
 41
0.0104167
  0
VERTEX
  8
0
 10
5.09603
 20
2.79486
 30
0.0
 40
0.0104167
 41
0.0104167
  0
SEQEND
 8
0
  0
POLYLINE
  8
0
 62
     7
 66
     1
 10
0
 20
0
 30
0.0
 70
     1
 40
0
 41
0
  0
VERTEX
  8
0
 10
7.07585
 20
0.826226
 30
0.0
 40
0
 41
0
  0
VERTEX
  8
0
 10
7.70969
 20
0.826226
 30
0.0
 40
0
 41
0
  0
VERTEX
  8
0
 10
7.70969
 20
0.156793
 30
0.0
 40
0
 41
0
  0
VERTEX
  8
0
 10
7.07585
 20
0.156793
 30
0.0
 40
0
 41
0
  0
VERTEX
  8
0
 10
7.07585
 20
0.826226
 30
0.0
 40
0
 41
0
  0
SEQEND
 8
0
  0
POLYLINE
  8
0
 62
     0
 66
     1
 10
0
 20
0
 30
0.0
 70
     1
 40
0.76065
 41
0.76065
  0
VERTEX
  8
0
 10
7.07585
 20
0.826226
 30
0.0
 40
0.0105646
 41
0.0105646
  0
VERTEX
  8
0
 10
7.70969
 20
0.826226
 30
0.0
 40
0.0105646
 41
0.0105646
  0
VERTEX
  8
0
 10
7.70969
 20
0.156793
 30
0.0
 40
0.0105646
 41
0.0105646
  0
VERTEX
  8
0
 10
7.07585
 20
0.156793
 30
0.0
 40
0.0105646
 41
0.0105646
  0
VERTEX
  8
0
 10
7.07585
 20
0.826226
 30
0.0
 40
0.0105646
 41
0.0105646
  0
SEQEND
 8
0
  0
POLYLINE
  8
0
 62
     0
 66
     1
 10
0
 20
0
 30
0.0
 40
0.76065
 41
0.76065
  0
VERTEX
  8
0
 10
7.70969
 20
0.156793
 30
0.0
 40
0.0105646
 41
0.0105646
  0
VERTEX
  8
0
 10
7.39274
 20
0.570747
 30
0.0
 40
0.0105646
 41
0.0105646
  0
VERTEX
  8
0
 10
7.39274
 20
0.3699
 30
0.0
 40
0.0105646
 41
0.0105646
  0
VERTEX
  8
0
 10
7.07585
 20
0.784939
 30
0.0
 40
0.0105646
 41
0.0105646
  0
SEQEND
 8
0
  0
POLYLINE
  8
0
 62
     7
 66
     1
 10
0
 20
0
 30
0.0
 70
     1
 40
0
 41
0
  0
VERTEX
  8
0
 10
7.07585
 20
0.826226
 30
0.0
 40
0
 41
0
  0
VERTEX
  8
0
 10
7.70969
 20
0.826226
 30
0.0
 40
0
 41
0
  0
VERTEX
  8
0
 10
7.70969
 20
0.781629
 30
0.0
 40
0
 41
0
  0
VERTEX
  8
0
 10
7.07585
 20
0.781629
 30
0.0
 40
0
 41
0
  0
VERTEX
  8
0
 10
7.07585
 20
0.826226
 30
0.0
 40
0
 41
0
  0
SEQEND
 8
0
  0
POLYLINE
  8
0
 62
     0
 66
     1
 10
0
 20
0
 30
0.0
 70
     1
 40
0.76065
 41
0.76065
  0
VERTEX
  8
0
 10
7.07585
 20
0.826226
 30
0.0
 40
0.0105646
 41
0.0105646
  0
VERTEX
  8
0
 10
7.70969
 20
0.826226
 30
0.0
 40
0.0105646
 41
0.0105646
  0
VERTEX
  8
0
 10
7.70969
 20
0.781629
 30
0.0
 40
0.0105646
 41
0.0105646
  0
VERTEX
  8
0
 10
7.07585
 20
0.781629
 30
0.0
 40
0.0105646
 41
0.0105646
  0
VERTEX
  8
0
 10
7.07585
 20
0.826226
 30
0.0
 40
0.0105646
 41
0.0105646
  0
SEQEND
 8
0
  0
POLYLINE
  8
0
 62
     7
 66
     1
 10
0
 20
0
 30
0.0
 70
     1
 40
0
 41
0
  0
VERTEX
  8
0
 10
5.7474
 20
0.827311
 30
0.0
 40
0
 41
0
  0
VERTEX
  8
0
 10
7.07585
 20
0.827311
 30
0.0
 40
0
 41
0
  0
VERTEX
  8
0
 10
7.07585
 20
0.156793
 30
0.0
 40
0
 41
0
  0
VERTEX
  8
0
 10
5.7474
 20
0.156793
 30
0.0
 40
0
 41
0
  0
VERTEX
  8
0
 10
5.7474
 20
0.827311
 30
0.0
 40
0
 41
0
  0
SEQEND
 8
0
  0
POLYLINE
  8
0
 62
     0
 66
     1
 10
0
 20
0
 30
0.0
 70
     1
 40
0.75
 41
0.75
  0
VERTEX
  8
0
 10
5.7474
 20
0.827311
 30
0.0
 40
0.0104167
 41
0.0104167
  0
VERTEX
  8
0
 10
7.07585
 20
0.827311
 30
0.0
 40
0.0104167
 41
0.0104167
  0
VERTEX
  8
0
 10
7.07585
 20
0.156793
 30
0.0
 40
0.0104167
 41
0.0104167
  0
VERTEX
  8
0
 10
5.7474
 20
0.156793
 30
0.0
 40
0.0104167
 41
0.0104167
  0
VERTEX
  8
0
 10
5.7474
 20
0.827311
 30
0.0
 40
0.0104167
 41
0.0104167
  0
SEQEND
 8
0
  0
POLYLINE
  8
0
 62
     7
 66
     1
 10
0
 20
0
 30
0.0
 70
     1
 40
0
 41
0
  0
VERTEX
  8
0
 10
5.74789
 20
0.8259
 30
0.0
 40
0
 41
0
  0
VERTEX
  8
0
 10
6.33122
 20
0.8259
 30
0.0
 40
0
 41
0
  0
VERTEX
  8
0
 10
6.33122
 20
0.160753
 30
0.0
 40
0
 41
0
  0
VERTEX
  8
0
 10
5.74789
 20
0.160753
 30
0.0
 40
0
 41
0
  0
VERTEX
  8
0
 10
5.74789
 20
0.8259
 30
0.0
 40
0
 41
0
  0
SEQEND
 8
0
  0
POLYLINE
  8
0
 62
     0
 66
     1
 10
0
 20
0
 30
0.0
 70
     1
 40
0.75
 41
0.75
  0
VERTEX
  8
0
 10
5.74789
 20
0.8259
 30
0.0
 40
0.0104167
 41
0.0104167
  0
VERTEX
  8
0
 10
6.33122
 20
0.8259
 30
0.0
 40
0.0104167
 41
0.0104167
  0
VERTEX
  8
0
 10
6.33122
 20
0.160753
 30
0.0
 40
0.0104167
 41
0.0104167
  0
VERTEX
  8
0
 10
5.74789
 20
0.160753
 30
0.0
 40
0.0104167
 41
0.0104167
  0
VERTEX
  8
0
 10
5.74789
 20
0.8259
 30
0.0
 40
0.0104167
 41
0.0104167
  0
SEQEND
 8
0
  0
POLYLINE
  8
0
 62
     7
 66
     1
 10
0
 20
0
 30
0.0
 70
     1
 40
0
 41
0
  0
VERTEX
  8
0
 10
6.10206
 20
0.329156
 30
0.0
 40
0
 41
0
  0
VERTEX
  8
0
 10
6.10206
 20
0.337294
 30
0.0
 40
0
 41
0
  0
VERTEX
  8
0
 10
6.10856
 20
0.3616
 30
0.0
 40
0
 41
0
  0
VERTEX
  8
0
 10
6.12646
 20
0.388075
 30
0.0
 40
0
 41
0
  0
VERTEX
  8
0
 10
6.15294
 20
0.405979
 30
0.0
 40
0
 41
0
  0
VERTEX
  8
0
 10
6.17725
 20
0.412489
 30
0.0
 40
0
 41
0
  0
VERTEX
  8
0
 10
6.18539
 20
0.412489
 30
0.0
 40
0
 41
0
  0
VERTEX
  8
0
 10
6.19347
 20
0.412489
 30
0.0
 40
0
 41
0
  0
VERTEX
  8
0
 10
6.21778
 20
0.405979
 30
0.0
 40
0
 41
0
  0
VERTEX
  8
0
 10
6.24431
 20
0.388075
 30
0.0
 40
0
 41
0
  0
VERTEX
  8
0
 10
6.26215
 20
0.3616
 30
0.0
 40
0
 41
0
  0
VERTEX
  8
0
 10
6.26872
 20
0.337294
 30
0.0
 40
0
 41
0
  0
VERTEX
  8
0
 10
6.26872
 20
0.329156
 30
0.0
 40
0
 41
0
  0
VERTEX
  8
0
 10
6.26872
 20
0.321072
 30
0.0
 40
0
 41
0
  0
VERTEX
  8
0
 10
6.26215
 20
0.296767
 30
0.0
 40
0
 41
0
  0
VERTEX
  8
0
 10
6.24431
 20
0.270236
 30
0.0
 40
0
 41
0
  0
VERTEX
  8
0
 10
6.21778
 20
0.252387
 30
0.0
 40
0
 41
0
  0
VERTEX
  8
0
 10
6.19347
 20
0.245822
 30
0.0
 40
0
 41
0
  0
VERTEX
  8
0
 10
6.18539
 20
0.245822
 30
0.0
 40
0
 41
0
  0
VERTEX
  8
0
 10
6.17725
 20
0.245822
 30
0.0
 40
0
 41
0
  0
VERTEX
  8
0
 10
6.15294
 20
0.252387
 30
0.0
 40
0
 41
0
  0
VERTEX
  8
0
 10
6.12646
 20
0.270236
 30
0.0
 40
0
 41
0
  0
VERTEX
  8
0
 10
6.10856
 20
0.296767
 30
0.0
 40
0
 41
0
  0
VERTEX
  8
0
 10
6.10206
 20
0.321072
 30
0.0
 40
0
 41
0
  0
VERTEX
  8
0
 10
6.10206
 20
0.329156
 30
0.0
 40
0
 41
0
  0
SEQEND
 8
0
  0
POLYLINE
  8
0
 62
     0
 66
     1
 10
0
 20
0
 30
0.0
 70
     1
 40
0.75
 41
0.75
  0
VERTEX
  8
0
 10
6.10206
 20
0.329156
 30
0.0
 40
0.0104167
 41
0.0104167
  0
VERTEX
  8
0
 10
6.10206
 20
0.337294
 30
0.0
 40
0.0104167
 41
0.0104167
  0
VERTEX
  8
0
 10
6.10856
 20
0.3616
 30
0.0
 40
0.0104167
 41
0.0104167
  0
VERTEX
  8
0
 10
6.12646
 20
0.388075
 30
0.0
 40
0.0104167
 41
0.0104167
  0
VERTEX
  8
0
 10
6.15294
 20
0.405979
 30
0.0
 40
0.0104167
 41
0.0104167
  0
VERTEX
  8
0
 10
6.17725
 20
0.412489
 30
0.0
 40
0.0104167
 41
0.0104167
  0
VERTEX
  8
0
 10
6.18539
 20
0.412489
 30
0.0
 40
0.0104167
 41
0.0104167
  0
VERTEX
  8
0
 10
6.19347
 20
0.412489
 30
0.0
 40
0.0104167
 41
0.0104167
  0
VERTEX
  8
0
 10
6.21778
 20
0.405979
 30
0.0
 40
0.0104167
 41
0.0104167
  0
VERTEX
  8
0
 10
6.24431
 20
0.388075
 30
0.0
 40
0.0104167
 41
0.0104167
  0
VERTEX
  8
0
 10
6.26215
 20
0.3616
 30
0.0
 40
0.0104167
 41
0.0104167
  0
VERTEX
  8
0
 10
6.26872
 20
0.337294
 30
0.0
 40
0.0104167
 41
0.0104167
  0
VERTEX
  8
0
 10
6.26872
 20
0.329156
 30
0.0
 40
0.0104167
 41
0.0104167
  0
VERTEX
  8
0
 10
6.26872
 20
0.321072
 30
0.0
 40
0.0104167
 41
0.0104167
  0
VERTEX
  8
0
 10
6.26215
 20
0.296767
 30
0.0
 40
0.0104167
 41
0.0104167
  0
VERTEX
  8
0
 10
6.24431
 20
0.270236
 30
0.0
 40
0.0104167
 41
0.0104167
  0
VERTEX
  8
0
 10
6.21778
 20
0.252387
 30
0.0
 40
0.0104167
 41
0.0104167
  0
VERTEX
  8
0
 10
6.19347
 20
0.245822
 30
0.0
 40
0.0104167
 41
0.0104167
  0
VERTEX
  8
0
 10
6.18539
 20
0.245822
 30
0.0
 40
0.0104167
 41
0.0104167
  0
VERTEX
  8
0
 10
6.17725
 20
0.245822
 30
0.0
 40
0.0104167
 41
0.0104167
  0
VERTEX
  8
0
 10
6.15294
 20
0.252387
 30
0.0
 40
0.0104167
 41
0.0104167
  0
VERTEX
  8
0
 10
6.12646
 20
0.270236
 30
0.0
 40
0.0104167
 41
0.0104167
  0
VERTEX
  8
0
 10
6.10856
 20
0.296767
 30
0.0
 40
0.0104167
 41
0.0104167
  0
VERTEX
  8
0
 10
6.10206
 20
0.321072
 30
0.0
 40
0.0104167
 41
0.0104167
  0
VERTEX
  8
0
 10
6.10206
 20
0.329156
 30
0.0
 40
0.0104167
 41
0.0104167
  0
SEQEND
 8
0
  0
POLYLINE
  8
0
 62
     7
 66
     1
 10
0
 20
0
 30
0.0
 70
     1
 40
0
 41
0
  0
VERTEX
  8
0
 10
5.81039
 20
0.329156
 30
0.0
 40
0
 41
0
  0
VERTEX
  8
0
 10
5.81039
 20
0.337294
 30
0.0
 40
0
 41
0
  0
VERTEX
  8
0
 10
5.81689
 20
0.3616
 30
0.0
 40
0
 41
0
  0
VERTEX
  8
0
 10
5.83479
 20
0.388075
 30
0.0
 40
0
 41
0
  0
VERTEX
  8
0
 10
5.86128
 20
0.405979
 30
0.0
 40
0
 41
0
  0
VERTEX
  8
0
 10
5.88558
 20
0.412489
 30
0.0
 40
0
 41
0
  0
VERTEX
  8
0
 10
5.89372
 20
0.412489
 30
0.0
 40
0
 41
0
  0
VERTEX
  8
0
 10
5.90181
 20
0.412489
 30
0.0
 40
0
 41
0
  0
VERTEX
  8
0
 10
5.92611
 20
0.405979
 30
0.0
 40
0
 41
0
  0
VERTEX
  8
0
 10
5.95264
 20
0.388075
 30
0.0
 40
0
 41
0
  0
VERTEX
  8
0
 10
5.97049
 20
0.3616
 30
0.0
 40
0
 41
0
  0
VERTEX
  8
0
 10
5.97706
 20
0.337294
 30
0.0
 40
0
 41
0
  0
VERTEX
  8
0
 10
5.97706
 20
0.329156
 30
0.0
 40
0
 41
0
  0
VERTEX
  8
0
 10
5.97706
 20
0.321072
 30
0.0
 40
0
 41
0
  0
VERTEX
  8
0
 10
5.97049
 20
0.296767
 30
0.0
 40
0
 41
0
  0
VERTEX
  8
0
 10
5.95264
 20
0.270236
 30
0.0
 40
0
 41
0
  0
VERTEX
  8
0
 10
5.92611
 20
0.252387
 30
0.0
 40
0
 41
0
  0
VERTEX
  8
0
 10
5.90181
 20
0.245822
 30
0.0
 40
0
 41
0
  0
VERTEX
  8
0
 10
5.89372
 20
0.245822
 30
0.0
 40
0
 41
0
  0
VERTEX
  8
0
 10
5.88558
 20
0.245822
 30
0.0
 40
0
 41
0
  0
VERTEX
  8
0
 10
5.86128
 20
0.252387
 30
0.0
 40
0
 41
0
  0
VERTEX
  8
0
 10
5.83479
 20
0.270236
 30
0.0
 40
0
 41
0
  0
VERTEX
  8
0
 10
5.81689
 20
0.296767
 30
0.0
 40
0
 41
0
  0
VERTEX
  8
0
 10
5.81039
 20
0.321072
 30
0.0
 40
0
 41
0
  0
VERTEX
  8
0
 10
5.81039
 20
0.329156
 30
0.0
 40
0
 41
0
  0
SEQEND
 8
0
  0
POLYLINE
  8
0
 62
     0
 66
     1
 10
0
 20
0
 30
0.0
 70
     1
 40
0.75
 41
0.75
  0
VERTEX
  8
0
 10
5.81039
 20
0.329156
 30
0.0
 40
0.0104167
 41
0.0104167
  0
VERTEX
  8
0
 10
5.81039
 20
0.337294
 30
0.0
 40
0.0104167
 41
0.0104167
  0
VERTEX
  8
0
 10
5.81689
 20
0.3616
 30
0.0
 40
0.0104167
 41
0.0104167
  0
VERTEX
  8
0
 10
5.83479
 20
0.388075
 30
0.0
 40
0.0104167
 41
0.0104167
  0
VERTEX
  8
0
 10
5.86128
 20
0.405979
 30
0.0
 40
0.0104167
 41
0.0104167
  0
VERTEX
  8
0
 10
5.88558
 20
0.412489
 30
0.0
 40
0.0104167
 41
0.0104167
  0
VERTEX
  8
0
 10
5.89372
 20
0.412489
 30
0.0
 40
0.0104167
 41
0.0104167
  0
VERTEX
  8
0
 10
5.90181
 20
0.412489
 30
0.0
 40
0.0104167
 41
0.0104167
  0
VERTEX
  8
0
 10
5.92611
 20
0.405979
 30
0.0
 40
0.0104167
 41
0.0104167
  0
VERTEX
  8
0
 10
5.95264
 20
0.388075
 30
0.0
 40
0.0104167
 41
0.0104167
  0
VERTEX
  8
0
 10
5.97049
 20
0.3616
 30
0.0
 40
0.0104167
 41
0.0104167
  0
VERTEX
  8
0
 10
5.97706
 20
0.337294
 30
0.0
 40
0.0104167
 41
0.0104167
  0
VERTEX
  8
0
 10
5.97706
 20
0.329156
 30
0.0
 40
0.0104167
 41
0.0104167
  0
VERTEX
  8
0
 10
5.97706
 20
0.321072
 30
0.0
 40
0.0104167
 41
0.0104167
  0
VERTEX
  8
0
 10
5.97049
 20
0.296767
 30
0.0
 40
0.0104167
 41
0.0104167
  0
VERTEX
  8
0
 10
5.95264
 20
0.270236
 30
0.0
 40
0.0104167
 41
0.0104167
  0
VERTEX
  8
0
 10
5.92611
 20
0.252387
 30
0.0
 40
0.0104167
 41
0.0104167
  0
VERTEX
  8
0
 10
5.90181
 20
0.245822
 30
0.0
 40
0.0104167
 41
0.0104167
  0
VERTEX
  8
0
 10
5.89372
 20
0.245822
 30
0.0
 40
0.0104167
 41
0.0104167
  0
VERTEX
  8
0
 10
5.88558
 20
0.245822
 30
0.0
 40
0.0104167
 41
0.0104167
  0
VERTEX
  8
0
 10
5.86128
 20
0.252387
 30
0.0
 40
0.0104167
 41
0.0104167
  0
VERTEX
  8
0
 10
5.83479
 20
0.270236
 30
0.0
 40
0.0104167
 41
0.0104167
  0
VERTEX
  8
0
 10
5.81689
 20
0.296767
 30
0.0
 40
0.0104167
 41
0.0104167
  0
VERTEX
  8
0
 10
5.81039
 20
0.321072
 30
0.0
 40
0.0104167
 41
0.0104167
  0
VERTEX
  8
0
 10
5.81039
 20
0.329156
 30
0.0
 40
0.0104167
 41
0.0104167
  0
SEQEND
 8
0
  0
POLYLINE
  8
0
 62
     7
 66
     1
 10
0
 20
0
 30
0.0
 70
     1
 40
0
 41
0
  0
VERTEX
  8
0
 10
6.10206
 20
0.660319
 30
0.0
 40
0
 41
0
  0
VERTEX
  8
0
 10
6.10206
 20
0.668457
 30
0.0
 40
0
 41
0
  0
VERTEX
  8
0
 10
6.10856
 20
0.692762
 30
0.0
 40
0
 41
0
  0
VERTEX
  8
0
 10
6.12646
 20
0.719239
 30
0.0
 40
0
 41
0
  0
VERTEX
  8
0
 10
6.15294
 20
0.737142
 30
0.0
 40
0
 41
0
  0
VERTEX
  8
0
 10
6.17725
 20
0.743653
 30
0.0
 40
0
 41
0
  0
VERTEX
  8
0
 10
6.18539
 20
0.743653
 30
0.0
 40
0
 41
0
  0
VERTEX
  8
0
 10
6.19347
 20
0.743653
 30
0.0
 40
0
 41
0
  0
VERTEX
  8
0
 10
6.21778
 20
0.737142
 30
0.0
 40
0
 41
0
  0
VERTEX
  8
0
 10
6.24431
 20
0.719239
 30
0.0
 40
0
 41
0
  0
VERTEX
  8
0
 10
6.26215
 20
0.692762
 30
0.0
 40
0
 41
0
  0
VERTEX
  8
0
 10
6.26872
 20
0.668457
 30
0.0
 40
0
 41
0
  0
VERTEX
  8
0
 10
6.26872
 20
0.660319
 30
0.0
 40
0
 41
0
  0
VERTEX
  8
0
 10
6.26872
 20
0.652235
 30
0.0
 40
0
 41
0
  0
VERTEX
  8
0
 10
6.26215
 20
0.627929
 30
0.0
 40
0
 41
0
  0
VERTEX
  8
0
 10
6.24431
 20
0.6014
 30
0.0
 40
0
 41
0
  0
VERTEX
  8
0
 10
6.21778
 20
0.58355
 30
0.0
 40
0
 41
0
  0
VERTEX
  8
0
 10
6.19347
 20
0.576986
 30
0.0
 40
0
 41
0
  0
VERTEX
  8
0
 10
6.18539
 20
0.576986
 30
0.0
 40
0
 41
0
  0
VERTEX
  8
0
 10
6.17725
 20
0.576986
 30
0.0
 40
0
 41
0
  0
VERTEX
  8
0
 10
6.15294
 20
0.58355
 30
0.0
 40
0
 41
0
  0
VERTEX
  8
0
 10
6.12646
 20
0.6014
 30
0.0
 40
0
 41
0
  0
VERTEX
  8
0
 10
6.10856
 20
0.627929
 30
0.0
 40
0
 41
0
  0
VERTEX
  8
0
 10
6.10206
 20
0.652235
 30
0.0
 40
0
 41
0
  0
VERTEX
  8
0
 10
6.10206
 20
0.660319
 30
0.0
 40
0
 41
0
  0
SEQEND
 8
0
  0
POLYLINE
  8
0
 62
     0
 66
     1
 10
0
 20
0
 30
0.0
 70
     1
 40
0.75
 41
0.75
  0
VERTEX
  8
0
 10
6.10206
 20
0.660319
 30
0.0
 40
0.0104167
 41
0.0104167
  0
VERTEX
  8
0
 10
6.10206
 20
0.668457
 30
0.0
 40
0.0104167
 41
0.0104167
  0
VERTEX
  8
0
 10
6.10856
 20
0.692762
 30
0.0
 40
0.0104167
 41
0.0104167
  0
VERTEX
  8
0
 10
6.12646
 20
0.719239
 30
0.0
 40
0.0104167
 41
0.0104167
  0
VERTEX
  8
0
 10
6.15294
 20
0.737142
 30
0.0
 40
0.0104167
 41
0.0104167
  0
VERTEX
  8
0
 10
6.17725
 20
0.743653
 30
0.0
 40
0.0104167
 41
0.0104167
  0
VERTEX
  8
0
 10
6.18539
 20
0.743653
 30
0.0
 40
0.0104167
 41
0.0104167
  0
VERTEX
  8
0
 10
6.19347
 20
0.743653
 30
0.0
 40
0.0104167
 41
0.0104167
  0
VERTEX
  8
0
 10
6.21778
 20
0.737142
 30
0.0
 40
0.0104167
 41
0.0104167
  0
VERTEX
  8
0
 10
6.24431
 20
0.719239
 30
0.0
 40
0.0104167
 41
0.0104167
  0
VERTEX
  8
0
 10
6.26215
 20
0.692762
 30
0.0
 40
0.0104167
 41
0.0104167
  0
VERTEX
  8
0
 10
6.26872
 20
0.668457
 30
0.0
 40
0.0104167
 41
0.0104167
  0
VERTEX
  8
0
 10
6.26872
 20
0.660319
 30
0.0
 40
0.0104167
 41
0.0104167
  0
VERTEX
  8
0
 10
6.26872
 20
0.652235
 30
0.0
 40
0.0104167
 41
0.0104167
  0
VERTEX
  8
0
 10
6.26215
 20
0.627929
 30
0.0
 40
0.0104167
 41
0.0104167
  0
VERTEX
  8
0
 10
6.24431
 20
0.6014
 30
0.0
 40
0.0104167
 41
0.0104167
  0
VERTEX
  8
0
 10
6.21778
 20
0.58355
 30
0.0
 40
0.0104167
 41
0.0104167
  0
VERTEX
  8
0
 10
6.19347
 20
0.576986
 30
0.0
 40
0.0104167
 41
0.0104167
  0
VERTEX
  8
0
 10
6.18539
 20
0.576986
 30
0.0
 40
0.0104167
 41
0.0104167
  0
VERTEX
  8
0
 10
6.17725
 20
0.576986
 30
0.0
 40
0.0104167
 41
0.0104167
  0
VERTEX
  8
0
 10
6.15294
 20
0.58355
 30
0.0
 40
0.0104167
 41
0.0104167
  0
VERTEX
  8
0
 10
6.12646
 20
0.6014
 30
0.0
 40
0.0104167
 41
0.0104167
  0
VERTEX
  8
0
 10
6.10856
 20
0.627929
 30
0.0
 40
0.0104167
 41
0.0104167
  0
VERTEX
  8
0
 10
6.10206
 20
0.652235
 30
0.0
 40
0.0104167
 41
0.0104167
  0
VERTEX
  8
0
 10
6.10206
 20
0.660319
 30
0.0
 40
0.0104167
 41
0.0104167
  0
SEQEND
 8
0
  0
POLYLINE
  8
0
 62
     7
 66
     1
 10
0
 20
0
 30
0.0
 70
     1
 40
0
 41
0
  0
VERTEX
  8
0
 10
5.81039
 20
0.660319
 30
0.0
 40
0
 41
0
  0
VERTEX
  8
0
 10
5.81039
 20
0.668457
 30
0.0
 40
0
 41
0
  0
VERTEX
  8
0
 10
5.81689
 20
0.692762
 30
0.0
 40
0
 41
0
  0
VERTEX
  8
0
 10
5.83479
 20
0.719239
 30
0.0
 40
0
 41
0
  0
VERTEX
  8
0
 10
5.86128
 20
0.737142
 30
0.0
 40
0
 41
0
  0
VERTEX
  8
0
 10
5.88558
 20
0.743653
 30
0.0
 40
0
 41
0
  0
VERTEX
  8
0
 10
5.89372
 20
0.743653
 30
0.0
 40
0
 41
0
  0
VERTEX
  8
0
 10
5.90181
 20
0.743653
 30
0.0
 40
0
 41
0
  0
VERTEX
  8
0
 10
5.92611
 20
0.737142
 30
0.0
 40
0
 41
0
  0
VERTEX
  8
0
 10
5.95264
 20
0.719239
 30
0.0
 40
0
 41
0
  0
VERTEX
  8
0
 10
5.97049
 20
0.692762
 30
0.0
 40
0
 41
0
  0
VERTEX
  8
0
 10
5.97706
 20
0.668457
 30
0.0
 40
0
 41
0
  0
VERTEX
  8
0
 10
5.97706
 20
0.660319
 30
0.0
 40
0
 41
0
  0
VERTEX
  8
0
 10
5.97706
 20
0.652235
 30
0.0
 40
0
 41
0
  0
VERTEX
  8
0
 10
5.97049
 20
0.627929
 30
0.0
 40
0
 41
0
  0
VERTEX
  8
0
 10
5.95264
 20
0.6014
 30
0.0
 40
0
 41
0
  0
VERTEX
  8
0
 10
5.92611
 20
0.58355
 30
0.0
 40
0
 41
0
  0
VERTEX
  8
0
 10
5.90181
 20
0.576986
 30
0.0
 40
0
 41
0
  0
VERTEX
  8
0
 10
5.89372
 20
0.576986
 30
0.0
 40
0
 41
0
  0
VERTEX
  8
0
 10
5.88558
 20
0.576986
 30
0.0
 40
0
 41
0
  0
VERTEX
  8
0
 10
5.86128
 20
0.58355
 30
0.0
 40
0
 41
0
  0
VERTEX
  8
0
 10
5.83479
 20
0.6014
 30
0.0
 40
0
 41
0
  0
VERTEX
  8
0
 10
5.81689
 20
0.627929
 30
0.0
 40
0
 41
0
  0
VERTEX
  8
0
 10
5.81039
 20
0.652235
 30
0.0
 40
0
 41
0
  0
VERTEX
  8
0
 10
5.81039
 20
0.660319
 30
0.0
 40
0
 41
0
  0
SEQEND
 8
0
  0
POLYLINE
  8
0
 62
     0
 66
     1
 10
0
 20
0
 30
0.0
 70
     1
 40
0.75
 41
0.75
  0
VERTEX
  8
0
 10
5.81039
 20
0.660319
 30
0.0
 40
0.0104167
 41
0.0104167
  0
VERTEX
  8
0
 10
5.81039
 20
0.668457
 30
0.0
 40
0.0104167
 41
0.0104167
  0
VERTEX
  8
0
 10
5.81689
 20
0.692762
 30
0.0
 40
0.0104167
 41
0.0104167
  0
VERTEX
  8
0
 10
5.83479
 20
0.719239
 30
0.0
 40
0.0104167
 41
0.0104167
  0
VERTEX
  8
0
 10
5.86128
 20
0.737142
 30
0.0
 40
0.0104167
 41
0.0104167
  0
VERTEX
  8
0
 10
5.88558
 20
0.743653
 30
0.0
 40
0.0104167
 41
0.0104167
  0
VERTEX
  8
0
 10
5.89372
 20
0.743653
 30
0.0
 40
0.0104167
 41
0.0104167
  0
VERTEX
  8
0
 10
5.90181
 20
0.743653
 30
0.0
 40
0.0104167
 41
0.0104167
  0
VERTEX
  8
0
 10
5.92611
 20
0.737142
 30
0.0
 40
0.0104167
 41
0.0104167
  0
VERTEX
  8
0
 10
5.95264
 20
0.719239
 30
0.0
 40
0.0104167
 41
0.0104167
  0
VERTEX
  8
0
 10
5.97049
 20
0.692762
 30
0.0
 40
0.0104167
 41
0.0104167
  0
VERTEX
  8
0
 10
5.97706
 20
0.668457
 30
0.0
 40
0.0104167
 41
0.0104167
  0
VERTEX
  8
0
 10
5.97706
 20
0.660319
 30
0.0
 40
0.0104167
 41
0.0104167
  0
VERTEX
  8
0
 10
5.97706
 20
0.652235
 30
0.0
 40
0.0104167
 41
0.0104167
  0
VERTEX
  8
0
 10
5.97049
 20
0.627929
 30
0.0
 40
0.0104167
 41
0.0104167
  0
VERTEX
  8
0
 10
5.95264
 20
0.6014
 30
0.0
 40
0.0104167
 41
0.0104167
  0
VERTEX
  8
0
 10
5.92611
 20
0.58355
 30
0.0
 40
0.0104167
 41
0.0104167
  0
VERTEX
  8
0
 10
5.90181
 20
0.576986
 30
0.0
 40
0.0104167
 41
0.0104167
  0
VERTEX
  8
0
 10
5.89372
 20
0.576986
 30
0.0
 40
0.0104167
 41
0.0104167
  0
VERTEX
  8
0
 10
5.88558
 20
0.576986
 30
0.0
 40
0.0104167
 41
0.0104167
  0
VERTEX
  8
0
 10
5.86128
 20
0.58355
 30
0.0
 40
0.0104167
 41
0.0104167
  0
VERTEX
  8
0
 10
5.83479
 20
0.6014
 30
0.0
 40
0.0104167
 41
0.0104167
  0
VERTEX
  8
0
 10
5.81689
 20
0.627929
 30
0.0
 40
0.0104167
 41
0.0104167
  0
VERTEX
  8
0
 10
5.81039
 20
0.652235
 30
0.0
 40
0.0104167
 41
0.0104167
  0
VERTEX
  8
0
 10
5.81039
 20
0.660319
 30
0.0
 40
0.0104167
 41
0.0104167
  0
SEQEND
 8
0
  0
POLYLINE
  8
0
 62
     0
 66
     1
 10
0
 20
0
 30
0.0
 70
     1
 40
0.75
 41
0.75
  0
VERTEX
  8
0
 10
5.7474
 20
0.524849
 30
0.0
 40
0.0104167
 41
0.0104167
  0
VERTEX
  8
0
 10
7.0746
 20
0.524849
 30
0.0
 40
0.0104167
 41
0.0104167
  0
VERTEX
  8
0
 10
7.0746
 20
0.157118
 30
0.0
 40
0.0104167
 41
0.0104167
  0
VERTEX
  8
0
 10
5.7474
 20
0.157118
 30
0.0
 40
0.0104167
 41
0.0104167
  0
VERTEX
  8
0
 10
5.7474
 20
0.524849
 30
0.0
 40
0.0104167
 41
0.0104167
  0
SEQEND
 8
0
  0
POLYLINE
  8
0
 62
     7
 66
     1
 10
0
 20
0
 30
0.0
 70
     1
 40
0
 41
0
  0
VERTEX
  8
0
 10
5.09597
 20
2.79486
 30
0.0
 40
0
 41
0
  0
VERTEX
  8
0
 10
5.7474
 20
2.79486
 30
0.0
 40
0
 41
0
  0
VERTEX
  8
0
 10
5.7474
 20
2.10433
 30
0.0
 40
0
 41
0
  0
VERTEX
  8
0
 10
5.09597
 20
2.10433
 30
0.0
 40
0
 41
0
  0
VERTEX
  8
0
 10
5.09597
 20
2.79486
 30
0.0
 40
0
 41
0
  0
SEQEND
 8
0
  0
POLYLINE
  8
0
 62
     0
 66
     1
 10
0
 20
0
 30
0.0
 70
     1
 40
0.828675
 41
0.828675
  0
VERTEX
  8
0
 10
5.09597
 20
2.79486
 30
0.0
 40
0.0115094
 41
0.0115094
  0
VERTEX
  8
0
 10
5.09597
 20
2.10433
 30
0.0
 40
0.0115094
 41
0.0115094
  0
VERTEX
  8
0
 10
5.7474
 20
2.10433
 30
0.0
 40
0.0115094
 41
0.0115094
  0
VERTEX
  8
0
 10
5.7474
 20
2.79486
 30
0.0
 40
0.0115094
 41
0.0115094
  0
VERTEX
  8
0
 10
5.09597
 20
2.79486
 30
0.0
 40
0.0115094
 41
0.0115094
  0
SEQEND
 8
0
  0
POLYLINE
  8
0
 62
     0
 66
     1
 10
0
 20
0
 30
0.0
 40
0.828675
 41
0.828675
  0
VERTEX
  8
0
 10
5.09597
 20
2.10433
 30
0.0
 40
0.0115094
 41
0.0115094
  0
VERTEX
  8
0
 10
5.51833
 20
2.4496
 30
0.0
 40
0.0115094
 41
0.0115094
  0
VERTEX
  8
0
 10
5.30117
 20
2.4496
 30
0.0
 40
0.0115094
 41
0.0115094
  0
VERTEX
  8
0
 10
5.7474
 20
2.79486
 30
0.0
 40
0.0115094
 41
0.0115094
  0
SEQEND
 8
0
  0
POLYLINE
  8
0
 62
     0
 66
     1
 10
0
 20
0
 30
0.0
 40
0.828675
 41
0.828675
  0
VERTEX
  8
0
 10
5.74306
 20
2.2194
 30
0.0
 40
0.0115094
 41
0.0115094
  0
VERTEX
  8
0
 10
5.74306
 20
2.67751
 30
0.0
 40
0.0115094
 41
0.0115094
  0
SEQEND
 8
0
  0
POLYLINE
  8
0
 62
     7
 66
     1
 10
0
 20
0
 30
0.0
 70
     1
 40
0
 41
0
  0
VERTEX
  8
0
 10
5.21631
 20
1.70182
 30
0.0
 40
0
 41
0
  0
VERTEX
  8
0
 10
5.62153
 20
1.70182
 30
0.0
 40
0
 41
0
  0
VERTEX
  8
0
 10
5.62153
 20
1.26704
 30
0.0
 40
0
 41
0
  0
VERTEX
  8
0
 10
5.21631
 20
1.26704
 30
0.0
 40
0
 41
0
  0
VERTEX
  8
0
 10
5.21631
 20
1.70182
 30
0.0
 40
0
 41
0
  0
SEQEND
 8
0
  0
POLYLINE
  8
0
 62
     0
 66
     1
 10
0
 20
0
 30
0.0
 70
     1
 40
0.75
 41
0.75
  0
VERTEX
  8
0
 10
5.21631
 20
1.70182
 30
0.0
 40
0.0104167
 41
0.0104167
  0
VERTEX
  8
0
 10
5.21631
 20
1.26704
 30
0.0
 40
0.0104167
 41
0.0104167
  0
VERTEX
  8
0
 10
5.62153
 20
1.26704
 30
0.0
 40
0.0104167
 41
0.0104167
  0
VERTEX
  8
0
 10
5.62153
 20
1.70182
 30
0.0
 40
0.0104167
 41
0.0104167
  0
VERTEX
  8
0
 10
5.21631
 20
1.70182
 30
0.0
 40
0.0104167
 41
0.0104167
  0
SEQEND
 8
0
  0
POLYLINE
  8
0
 62
     7
 66
     1
 10
0
 20
0
 30
0.0
 70
     1
 40
0
 41
0
  0
VERTEX
  8
0
 10
5.41331
 20
1.52089
 30
0.0
 40
0
 41
0
  0
VERTEX
  8
0
 10
5.41971
 20
1.52089
 30
0.0
 40
0
 41
0
  0
VERTEX
  8
0
 10
5.43907
 20
1.51025
 30
0.0
 40
0
 41
0
  0
VERTEX
  8
0
 10
5.44976
 20
1.49089
 30
0.0
 40
0
 41
0
  0
VERTEX
  8
0
 10
5.44976
 20
1.48443
 30
0.0
 40
0
 41
0
  0
VERTEX
  8
0
 10
5.44976
 20
1.47803
 30
0.0
 40
0
 41
0
  0
VERTEX
  8
0
 10
5.43907
 20
1.45865
 30
0.0
 40
0
 41
0
  0
VERTEX
  8
0
 10
5.41971
 20
1.44797
 30
0.0
 40
0
 41
0
  0
VERTEX
  8
0
 10
5.41331
 20
1.44797
 30
0.0
 40
0
 41
0
  0
VERTEX
  8
0
 10
5.40685
 20
1.44797
 30
0.0
 40
0
 41
0
  0
VERTEX
  8
0
 10
5.38747
 20
1.45865
 30
0.0
 40
0
 41
0
  0
VERTEX
  8
0
 10
5.37685
 20
1.47803
 30
0.0
 40
0
 41
0
  0
VERTEX
  8
0
 10
5.37685
 20
1.48443
 30
0.0
 40
0
 41
0
  0
VERTEX
  8
0
 10
5.37685
 20
1.49089
 30
0.0
 40
0
 41
0
  0
VERTEX
  8
0
 10
5.38747
 20
1.51025
 30
0.0
 40
0
 41
0
  0
VERTEX
  8
0
 10
5.40685
 20
1.52089
 30
0.0
 40
0
 41
0
  0
VERTEX
  8
0
 10
5.41331
 20
1.52089
 30
0.0
 40
0
 41
0
  0
SEQEND
 8
0
  0
POLYLINE
  8
0
 62
     0
 66
     1
 10
0
 20
0
 30
0.0
 70
     1
 40
0.6
 41
0.6
  0
VERTEX
  8
0
 10
5.41331
 20
1.52089
 30
0.0
 40
0.00833333
 41
0.00833333
  0
VERTEX
  8
0
 10
5.41971
 20
1.52089
 30
0.0
 40
0.00833333
 41
0.00833333
  0
VERTEX
  8
0
 10
5.43907
 20
1.51025
 30
0.0
 40
0.00833333
 41
0.00833333
  0
VERTEX
  8
0
 10
5.44976
 20
1.49089
 30
0.0
 40
0.00833333
 41
0.00833333
  0
VERTEX
  8
0
 10
5.44976
 20
1.48443
 30
0.0
 40
0.00833333
 41
0.00833333
  0
VERTEX
  8
0
 10
5.44976
 20
1.47803
 30
0.0
 40
0.00833333
 41
0.00833333
  0
VERTEX
  8
0
 10
5.43907
 20
1.45865
 30
0.0
 40
0.00833333
 41
0.00833333
  0
VERTEX
  8
0
 10
5.41971
 20
1.44797
 30
0.0
 40
0.00833333
 41
0.00833333
  0
VERTEX
  8
0
 10
5.41331
 20
1.44797
 30
0.0
 40
0.00833333
 41
0.00833333
  0
VERTEX
  8
0
 10
5.40685
 20
1.44797
 30
0.0
 40
0.00833333
 41
0.00833333
  0
VERTEX
  8
0
 10
5.38747
 20
1.45865
 30
0.0
 40
0.00833333
 41
0.00833333
  0
VERTEX
  8
0
 10
5.37685
 20
1.47803
 30
0.0
 40
0.00833333
 41
0.00833333
  0
VERTEX
  8
0
 10
5.37685
 20
1.48443
 30
0.0
 40
0.00833333
 41
0.00833333
  0
VERTEX
  8
0
 10
5.37685
 20
1.49089
 30
0.0
 40
0.00833333
 41
0.00833333
  0
VERTEX
  8
0
 10
5.38747
 20
1.51025
 30
0.0
 40
0.00833333
 41
0.00833333
  0
VERTEX
  8
0
 10
5.40685
 20
1.52089
 30
0.0
 40
0.00833333
 41
0.00833333
  0
VERTEX
  8
0
 10
5.41331
 20
1.52089
 30
0.0
 40
0.00833333
 41
0.00833333
  0
SEQEND
 8
0
  0
POLYLINE
  8
0
 62
     7
 66
     1
 10
0
 20
0
 30
0.0
 70
     1
 40
0
 41
0
  0
VERTEX
  8
0
 10
5.41331
 20
1.50526
 30
0.0
 40
0
 41
0
  0
VERTEX
  8
0
 10
5.41694
 20
1.50526
 30
0.0
 40
0
 41
0
  0
VERTEX
  8
0
 10
5.428
 20
1.49918
 30
0.0
 40
0
 41
0
  0
VERTEX
  8
0
 10
5.43414
 20
1.48812
 30
0.0
 40
0
 41
0
  0
VERTEX
  8
0
 10
5.43414
 20
1.48443
 30
0.0
 40
0
 41
0
  0
VERTEX
  8
0
 10
5.43414
 20
1.48079
 30
0.0
 40
0
 41
0
  0
VERTEX
  8
0
 10
5.428
 20
1.46972
 30
0.0
 40
0
 41
0
  0
VERTEX
  8
0
 10
5.41694
 20
1.4636
 30
0.0
 40
0
 41
0
  0
VERTEX
  8
0
 10
5.41331
 20
1.4636
 30
0.0
 40
0
 41
0
  0
VERTEX
  8
0
 10
5.40961
 20
1.4636
 30
0.0
 40
0
 41
0
  0
VERTEX
  8
0
 10
5.39854
 20
1.46972
 30
0.0
 40
0
 41
0
  0
VERTEX
  8
0
 10
5.39247
 20
1.48079
 30
0.0
 40
0
 41
0
  0
VERTEX
  8
0
 10
5.39247
 20
1.48443
 30
0.0
 40
0
 41
0
  0
VERTEX
  8
0
 10
5.39247
 20
1.48812
 30
0.0
 40
0
 41
0
  0
VERTEX
  8
0
 10
5.39854
 20
1.49918
 30
0.0
 40
0
 41
0
  0
VERTEX
  8
0
 10
5.40961
 20
1.50526
 30
0.0
 40
0
 41
0
  0
VERTEX
  8
0
 10
5.41331
 20
1.50526
 30
0.0
 40
0
 41
0
  0
SEQEND
 8
0
  0
POLYLINE
  8
0
 62
     0
 66
     1
 10
0
 20
0
 30
0.0
 70
     1
 40
0.6
 41
0.6
  0
VERTEX
  8
0
 10
5.41331
 20
1.50526
 30
0.0
 40
0.00833333
 41
0.00833333
  0
VERTEX
  8
0
 10
5.41694
 20
1.50526
 30
0.0
 40
0.00833333
 41
0.00833333
  0
VERTEX
  8
0
 10
5.428
 20
1.49918
 30
0.0
 40
0.00833333
 41
0.00833333
  0
VERTEX
  8
0
 10
5.43414
 20
1.48812
 30
0.0
 40
0.00833333
 41
0.00833333
  0
VERTEX
  8
0
 10
5.43414
 20
1.48443
 30
0.0
 40
0.00833333
 41
0.00833333
  0
VERTEX
  8
0
 10
5.43414
 20
1.48079
 30
0.0
 40
0.00833333
 41
0.00833333
  0
VERTEX
  8
0
 10
5.428
 20
1.46972
 30
0.0
 40
0.00833333
 41
0.00833333
  0
VERTEX
  8
0
 10
5.41694
 20
1.4636
 30
0.0
 40
0.00833333
 41
0.00833333
  0
VERTEX
  8
0
 10
5.41331
 20
1.4636
 30
0.0
 40
0.00833333
 41
0.00833333
  0
VERTEX
  8
0
 10
5.40961
 20
1.4636
 30
0.0
 40
0.00833333
 41
0.00833333
  0
VERTEX
  8
0
 10
5.39854
 20
1.46972
 30
0.0
 40
0.00833333
 41
0.00833333
  0
VERTEX
  8
0
 10
5.39247
 20
1.48079
 30
0.0
 40
0.00833333
 41
0.00833333
  0
VERTEX
  8
0
 10
5.39247
 20
1.48443
 30
0.0
 40
0.00833333
 41
0.00833333
  0
VERTEX
  8
0
 10
5.39247
 20
1.48812
 30
0.0
 40
0.00833333
 41
0.00833333
  0
VERTEX
  8
0
 10
5.39854
 20
1.49918
 30
0.0
 40
0.00833333
 41
0.00833333
  0
VERTEX
  8
0
 10
5.40961
 20
1.50526
 30
0.0
 40
0.00833333
 41
0.00833333
  0
VERTEX
  8
0
 10
5.41331
 20
1.50526
 30
0.0
 40
0.00833333
 41
0.00833333
  0
SEQEND
 8
0
  0
POLYLINE
  8
0
 62
     7
 66
     1
 10
0
 20
0
 30
0.0
 70
     1
 40
0
 41
0
  0
VERTEX
  8
0
 10
5.16151
 20
1.52089
 30
0.0
 40
0
 41
0
  0
VERTEX
  8
0
 10
5.30735
 20
1.52089
 30
0.0
 40
0
 41
0
  0
VERTEX
  8
0
 10
5.30735
 20
1.45839
 30
0.0
 40
0
 41
0
  0
VERTEX
  8
0
 10
5.16151
 20
1.45839
 30
0.0
 40
0
 41
0
  0
VERTEX
  8
0
 10
5.16151
 20
1.52089
 30
0.0
 40
0
 41
0
  0
SEQEND
 8
0
  0
POLYLINE
  8
0
 62
     0
 66
     1
 10
0
 20
0
 30
0.0
 70
     1
 40
0.75
 41
0.75
  0
VERTEX
  8
0
 10
5.16151
 20
1.52089
 30
0.0
 40
0.0104167
 41
0.0104167
  0
VERTEX
  8
0
 10
5.16151
 20
1.45839
 30
0.0
 40
0.0104167
 41
0.0104167
  0
VERTEX
  8
0
 10
5.30735
 20
1.45839
 30
0.0
 40
0.0104167
 41
0.0104167
  0
VERTEX
  8
0
 10
5.30735
 20
1.52089
 30
0.0
 40
0.0104167
 41
0.0104167
  0
VERTEX
  8
0
 10
5.16151
 20
1.52089
 30
0.0
 40
0.0104167
 41
0.0104167
  0
SEQEND
 8
0
  0
POLYLINE
  8
0
 62
     7
 66
     1
 10
0
 20
0
 30
0.0
 70
     1
 40
0
 41
0
  0
VERTEX
  8
0
 10
4.32292
 20
1.81076
 30
0.0
 40
0
 41
0
  0
VERTEX
  8
0
 10
4.94792
 20
1.81076
 30
0.0
 40
0
 41
0
  0
VERTEX
  8
0
 10
4.94792
 20
1.22146
 30
0.0
 40
0
 41
0
  0
VERTEX
  8
0
 10
4.32292
 20
1.22146
 30
0.0
 40
0
 41
0
  0
VERTEX
  8
0
 10
4.32292
 20
1.81076
 30
0.0
 40
0
 41
0
  0
SEQEND
 8
0
  0
POLYLINE
  8
0
 62
     0
 66
     1
 10
0
 20
0
 30
0.0
 70
     1
 40
0.707175
 41
0.707175
  0
VERTEX
  8
0
 10
4.32292
 20
1.81076
 30
0.0
 40
0.00982188
 41
0.00982188
  0
VERTEX
  8
0
 10
4.32292
 20
1.22146
 30
0.0
 40
0.00982188
 41
0.00982188
  0
VERTEX
  8
0
 10
4.94792
 20
1.22146
 30
0.0
 40
0.00982188
 41
0.00982188
  0
VERTEX
  8
0
 10
4.94792
 20
1.81076
 30
0.0
 40
0.00982188
 41
0.00982188
  0
VERTEX
  8
0
 10
4.32292
 20
1.81076
 30
0.0
 40
0.00982188
 41
0.00982188
  0
SEQEND
 8
0
  0
POLYLINE
  8
0
 62
     0
 66
     1
 10
0
 20
0
 30
0.0
 40
0.707175
 41
0.707175
  0
VERTEX
  8
0
 10
4.94792
 20
1.81076
 30
0.0
 40
0.00982188
 41
0.00982188
  0
VERTEX
  8
0
 10
4.52083
 20
1.51611
 30
0.0
 40
0.00982188
 41
0.00982188
  0
VERTEX
  8
0
 10
4.73128
 20
1.51611
 30
0.0
 40
0.00982188
 41
0.00982188
  0
VERTEX
  8
0
 10
4.32292
 20
1.22146
 30
0.0
 40
0.00982188
 41
0.00982188
  0
SEQEND
 8
0
  0
POLYLINE
  8
0
 62
     0
 66
     1
 10
0
 20
0
 30
0.0
 40
0.707175
 41
0.707175
  0
VERTEX
  8
0
 10
4.32921
 20
1.78424
 30
0.0
 40
0.00982188
 41
0.00982188
  0
VERTEX
  8
0
 10
4.32921
 20
1.24794
 30
0.0
 40
0.00982188
 41
0.00982188
  0
SEQEND
 8
0
  0
POLYLINE
  8
0
 62
     7
 66
     1
 10
0
 20
0
 30
0.0
 70
     1
 40
0
 41
0
  0
VERTEX
  8
0
 10
2.80544
 20
0.913738
 30
0.0
 40
0
 41
0
  0
VERTEX
  8
0
 10
2.80453
 20
0.156793
 30
0.0
 40
0
 41
0
  0
VERTEX
  8
0
 10
3.57611
 20
0.157661
 30
0.0
 40
0
 41
0
  0
VERTEX
  8
0
 10
3.57519
 20
0.537924
 30
0.0
 40
0
 41
0
  0
VERTEX
  8
0
 10
3.57465
 20
0.563911
 30
0.0
 40
0
 41
0
  0
VERTEX
  8
0
 10
3.5664
 20
0.64171
 30
0.0
 40
0
 41
0
  0
VERTEX
  8
0
 10
3.54525
 20
0.724718
 30
0.0
 40
0
 41
0
  0
VERTEX
  8
0
 10
3.51243
 20
0.789171
 30
0.0
 40
0
 41
0
  0
VERTEX
  8
0
 10
3.46864
 20
0.837294
 30
0.0
 40
0
 41
0
  0
VERTEX
  8
0
 10
3.41444
 20
0.871257
 30
0.0
 40
0
 41
0
  0
VERTEX
  8
0
 10
3.35064
 20
0.893229
 30
0.0
 40
0
 41
0
  0
VERTEX
  8
0
 10
3.27778
 20
0.90549
 30
0.0
 40
0
 41
0
  0
VERTEX
  8
0
 10
3.21696
 20
0.909776
 30
0.0
 40
0
 41
0
  0
VERTEX
  8
0
 10
3.19667
 20
0.910157
 30
0.0
 40
0
 41
0
  0
VERTEX
  8
0
 10
2.80544
 20
0.913738
 30
0.0
 40
0
 41
0
  0
SEQEND
 8
0
  0
POLYLINE
  8
0
 62
     0
 66
     1
 10
0
 20
0
 30
0.0
 70
     1
 40
0.641175
 41
0.641175
  0
VERTEX
  8
0
 10
2.80544
 20
0.913738
 30
0.0
 40
0.00890521
 41
0.00890521
  0
VERTEX
  8
0
 10
2.80453
 20
0.156793
 30
0.0
 40
0.00890521
 41
0.00890521
  0
VERTEX
  8
0
 10
3.57611
 20
0.157661
 30
0.0
 40
0.00890521
 41
0.00890521
  0
VERTEX
  8
0
 10
3.57519
 20
0.537924
 30
0.0
 40
0.00890521
 41
0.00890521
  0
VERTEX
  8
0
 10
3.57465
 20
0.563911
 30
0.0
 40
0.00890521
 41
0.00890521
  0
VERTEX
  8
0
 10
3.5664
 20
0.64171
 30
0.0
 40
0.00890521
 41
0.00890521
  0
VERTEX
  8
0
 10
3.54525
 20
0.724718
 30
0.0
 40
0.00890521
 41
0.00890521
  0
VERTEX
  8
0
 10
3.51243
 20
0.789171
 30
0.0
 40
0.00890521
 41
0.00890521
  0
VERTEX
  8
0
 10
3.46864
 20
0.837294
 30
0.0
 40
0.00890521
 41
0.00890521
  0
VERTEX
  8
0
 10
3.41444
 20
0.871257
 30
0.0
 40
0.00890521
 41
0.00890521
  0
VERTEX
  8
0
 10
3.35064
 20
0.893229
 30
0.0
 40
0.00890521
 41
0.00890521
  0
VERTEX
  8
0
 10
3.27778
 20
0.90549
 30
0.0
 40
0.00890521
 41
0.00890521
  0
VERTEX
  8
0
 10
3.21696
 20
0.909776
 30
0.0
 40
0.00890521
 41
0.00890521
  0
VERTEX
  8
0
 10
3.19667
 20
0.910157
 30
0.0
 40
0.00890521
 41
0.00890521
  0
VERTEX
  8
0
 10
2.80544
 20
0.913738
 30
0.0
 40
0.00890521
 41
0.00890521
  0
SEQEND
 8
0
  0
POLYLINE
  8
0
 62
     7
 66
     1
 10
0
 20
0
 30
0.0
 70
     1
 40
0
 41
0
  0
VERTEX
  8
0
 10
3.57428
 20
0.537056
 30
0.0
 40
0
 41
0
  0
VERTEX
  8
0
 10
3.56065
 20
0.537056
 30
0.0
 40
0
 41
0
  0
VERTEX
  8
0
 10
3.56158
 20
0.171061
 30
0.0
 40
0
 41
0
  0
VERTEX
  8
0
 10
2.81728
 20
0.170139
 30
0.0
 40
0
 41
0
  0
VERTEX
  8
0
 10
2.81814
 20
0.899468
 30
0.0
 40
0
 41
0
  0
VERTEX
  8
0
 10
3.19575
 20
0.895942
 30
0.0
 40
0
 41
0
  0
VERTEX
  8
0
 10
3.19575
 20
0.910157
 30
0.0
 40
0
 41
0
  0
SEQEND
 8
0
  0
POLYLINE
  8
0
 62
     0
 66
     1
 10
0
 20
0
 30
0.0
 40
0.641175
 41
0.641175
  0
VERTEX
  8
0
 10
3.57428
 20
0.537056
 30
0.0
 40
0.00890521
 41
0.00890521
  0
VERTEX
  8
0
 10
3.56065
 20
0.537056
 30
0.0
 40
0.00890521
 41
0.00890521
  0
VERTEX
  8
0
 10
3.56158
 20
0.171061
 30
0.0
 40
0.00890521
 41
0.00890521
  0
VERTEX
  8
0
 10
2.81728
 20
0.170139
 30
0.0
 40
0.00890521
 41
0.00890521
  0
VERTEX
  8
0
 10
2.81814
 20
0.899468
 30
0.0
 40
0.00890521
 41
0.00890521
  0
VERTEX
  8
0
 10
3.19575
 20
0.895942
 30
0.0
 40
0.00890521
 41
0.00890521
  0
VERTEX
  8
0
 10
3.19575
 20
0.910157
 30
0.0
 40
0.00890521
 41
0.00890521
  0
SEQEND
 8
0
  0
POLYLINE
  8
0
 62
     7
 66
     1
 10
0
 20
0
 30
0.0
 70
     1
 40
0
 41
0
  0
VERTEX
  8
0
 10
3.16314
 20
0.225532
 30
0.0
 40
0
 41
0
  0
VERTEX
  8
0
 10
3.27979
 20
0.225532
 30
0.0
 40
0
 41
0
  0
VERTEX
  8
0
 10
3.27979
 20
0.162001
 30
0.0
 40
0
 41
0
  0
VERTEX
  8
0
 10
3.16314
 20
0.162001
 30
0.0
 40
0
 41
0
  0
VERTEX
  8
0
 10
3.16314
 20
0.225532
 30
0.0
 40
0
 41
0
  0
SEQEND
 8
0
  0
POLYLINE
  8
0
 62
     0
 66
     1
 10
0
 20
0
 30
0.0
 70
     1
 40
0.75
 41
0.75
  0
VERTEX
  8
0
 10
3.16314
 20
0.225532
 30
0.0
 40
0.0104167
 41
0.0104167
  0
VERTEX
  8
0
 10
3.27979
 20
0.225532
 30
0.0
 40
0.0104167
 41
0.0104167
  0
VERTEX
  8
0
 10
3.27979
 20
0.162001
 30
0.0
 40
0.0104167
 41
0.0104167
  0
VERTEX
  8
0
 10
3.16314
 20
0.162001
 30
0.0
 40
0.0104167
 41
0.0104167
  0
VERTEX
  8
0
 10
3.16314
 20
0.225532
 30
0.0
 40
0.0104167
 41
0.0104167
  0
SEQEND
 8
0
  0
POLYLINE
  8
0
 62
     7
 66
     1
 10
0
 20
0
 30
0.0
 70
     1
 40
0
 41
0
  0
VERTEX
  8
0
 10
3.01833
 20
0.225532
 30
0.0
 40
0
 41
0
  0
VERTEX
  8
0
 10
3.13504
 20
0.225532
 30
0.0
 40
0
 41
0
  0
VERTEX
  8
0
 10
3.13504
 20
0.162001
 30
0.0
 40
0
 41
0
  0
VERTEX
  8
0
 10
3.01833
 20
0.162001
 30
0.0
 40
0
 41
0
  0
VERTEX
  8
0
 10
3.01833
 20
0.225532
 30
0.0
 40
0
 41
0
  0
SEQEND
 8
0
  0
POLYLINE
  8
0
 62
     0
 66
     1
 10
0
 20
0
 30
0.0
 70
     1
 40
0.75
 41
0.75
  0
VERTEX
  8
0
 10
3.01833
 20
0.225532
 30
0.0
 40
0.0104167
 41
0.0104167
  0
VERTEX
  8
0
 10
3.13504
 20
0.225532
 30
0.0
 40
0.0104167
 41
0.0104167
  0
VERTEX
  8
0
 10
3.13504
 20
0.162001
 30
0.0
 40
0.0104167
 41
0.0104167
  0
VERTEX
  8
0
 10
3.01833
 20
0.162001
 30
0.0
 40
0.0104167
 41
0.0104167
  0
VERTEX
  8
0
 10
3.01833
 20
0.225532
 30
0.0
 40
0.0104167
 41
0.0104167
  0
SEQEND
 8
0
  0
POLYLINE
  8
0
 62
     7
 66
     1
 10
0
 20
0
 30
0.0
 70
     1
 40
0
 41
0
  0
VERTEX
  8
0
 10
2.984
 20
0.225532
 30
0.0
 40
0
 41
0
  0
VERTEX
  8
0
 10
3.01938
 20
0.225532
 30
0.0
 40
0
 41
0
  0
VERTEX
  8
0
 10
3.01938
 20
0.162001
 30
0.0
 40
0
 41
0
  0
VERTEX
  8
0
 10
2.984
 20
0.162001
 30
0.0
 40
0
 41
0
  0
VERTEX
  8
0
 10
2.984
 20
0.225532
 30
0.0
 40
0
 41
0
  0
SEQEND
 8
0
  0
POLYLINE
  8
0
 62
     0
 66
     1
 10
0
 20
0
 30
0.0
 70
     1
 40
0.75
 41
0.75
  0
VERTEX
  8
0
 10
2.984
 20
0.225532
 30
0.0
 40
0.0104167
 41
0.0104167
  0
VERTEX
  8
0
 10
3.01938
 20
0.225532
 30
0.0
 40
0.0104167
 41
0.0104167
  0
VERTEX
  8
0
 10
3.01938
 20
0.162001
 30
0.0
 40
0.0104167
 41
0.0104167
  0
VERTEX
  8
0
 10
2.984
 20
0.162001
 30
0.0
 40
0.0104167
 41
0.0104167
  0
VERTEX
  8
0
 10
2.984
 20
0.225532
 30
0.0
 40
0.0104167
 41
0.0104167
  0
SEQEND
 8
0
  0
POLYLINE
  8
0
 62
     7
 66
     1
 10
0
 20
0
 30
0.0
 70
     1
 40
0
 41
0
  0
VERTEX
  8
0
 10
3.27979
 20
0.225532
 30
0.0
 40
0
 41
0
  0
VERTEX
  8
0
 10
3.31315
 20
0.225532
 30
0.0
 40
0
 41
0
  0
VERTEX
  8
0
 10
3.31315
 20
0.162001
 30
0.0
 40
0
 41
0
  0
VERTEX
  8
0
 10
3.27979
 20
0.162001
 30
0.0
 40
0
 41
0
  0
VERTEX
  8
0
 10
3.27979
 20
0.225532
 30
0.0
 40
0
 41
0
  0
SEQEND
 8
0
  0
POLYLINE
  8
0
 62
     0
 66
     1
 10
0
 20
0
 30
0.0
 70
     1
 40
0.75
 41
0.75
  0
VERTEX
  8
0
 10
3.27979
 20
0.225532
 30
0.0
 40
0.0104167
 41
0.0104167
  0
VERTEX
  8
0
 10
3.31315
 20
0.225532
 30
0.0
 40
0.0104167
 41
0.0104167
  0
VERTEX
  8
0
 10
3.31315
 20
0.162001
 30
0.0
 40
0.0104167
 41
0.0104167
  0
VERTEX
  8
0
 10
3.27979
 20
0.162001
 30
0.0
 40
0.0104167
 41
0.0104167
  0
VERTEX
  8
0
 10
3.27979
 20
0.225532
 30
0.0
 40
0.0104167
 41
0.0104167
  0
SEQEND
 8
0
  0
POLYLINE
  8
0
 62
     7
 66
     1
 10
0
 20
0
 30
0.0
 70
     1
 40
0
 41
0
  0
VERTEX
  8
0
 10
3.16314
 20
0.245335
 30
0.0
 40
0
 41
0
  0
VERTEX
  8
0
 10
3.16314
 20
0.251682
 30
0.0
 40
0
 41
0
  0
VERTEX
  8
0
 10
3.16678
 20
0.270617
 30
0.0
 40
0
 41
0
  0
VERTEX
  8
0
 10
3.17665
 20
0.293024
 30
0.0
 40
0
 41
0
  0
VERTEX
  8
0
 10
3.17979
 20
0.297418
 30
0.0
 40
0
 41
0
  0
VERTEX
  8
0
 10
3.18083
 20
0.29899
 30
0.0
 40
0
 41
0
  0
VERTEX
  8
0
 10
3.19097
 20
0.313585
 30
0.0
 40
0
 41
0
  0
VERTEX
  8
0
 10
3.19125
 20
0.315104
 30
0.0
 40
0
 41
0
  0
VERTEX
  8
0
 10
3.19174
 20
0.317979
 30
0.0
 40
0
 41
0
  0
VERTEX
  8
0
 10
3.18761
 20
0.334581
 30
0.0
 40
0
 41
0
  0
VERTEX
  8
0
 10
3.1709
 20
0.347439
 30
0.0
 40
0
 41
0
  0
VERTEX
  8
0
 10
3.16521
 20
0.348469
 30
0.0
 40
0
 41
0
  0
VERTEX
  8
0
 10
3.1639
 20
0.348742
 30
0.0
 40
0
 41
0
  0
VERTEX
  8
0
 10
3.15235
 20
0.349501
 30
0.0
 40
0
 41
0
  0
VERTEX
  8
0
 10
3.14854
 20
0.349501
 30
0.0
 40
0
 41
0
  0
VERTEX
  8
0
 10
3.14958
 20
0.349501
 30
0.0
 40
0
 41
0
  0
VERTEX
  8
0
 10
3.1454
 20
0.349501
 30
0.0
 40
0
 41
0
  0
VERTEX
  8
0
 10
3.13422
 20
0.348742
 30
0.0
 40
0
 41
0
  0
VERTEX
  8
0
 10
3.13292
 20
0.348469
 30
0.0
 40
0
 41
0
  0
VERTEX
  8
0
 10
3.12717
 20
0.347439
 30
0.0
 40
0
 41
0
  0
VERTEX
  8
0
 10
3.11051
 20
0.334581
 30
0.0
 40
0
 41
0
  0
VERTEX
  8
0
 10
3.10633
 20
0.317979
 30
0.0
 40
0
 41
0
  0
VERTEX
  8
0
 10
3.10688
 20
0.315104
 30
0.0
 40
0
 41
0
  0
VERTEX
  8
0
 10
3.1071
 20
0.313585
 30
0.0
 40
0
 41
0
  0
VERTEX
  8
0
 10
3.11729
 20
0.29899
 30
0.0
 40
0
 41
0
  0
VERTEX
  8
0
 10
3.11833
 20
0.297418
 30
0.0
 40
0
 41
0
  0
VERTEX
  8
0
 10
3.12142
 20
0.293024
 30
0.0
 40
0
 41
0
  0
VERTEX
  8
0
 10
3.13135
 20
0.270617
 30
0.0
 40
0
 41
0
  0
VERTEX
  8
0
 10
3.13504
 20
0.251682
 30
0.0
 40
0
 41
0
  0
VERTEX
  8
0
 10
3.13504
 20
0.245335
 30
0.0
 40
0
 41
0
  0
SEQEND
 8
0
  0
POLYLINE
  8
0
 62
     0
 66
     1
 10
0
 20
0
 30
0.0
 40
0.75
 41
0.75
  0
VERTEX
  8
0
 10
3.16314
 20
0.245335
 30
0.0
 40
0.0104167
 41
0.0104167
  0
VERTEX
  8
0
 10
3.16314
 20
0.251682
 30
0.0
 40
0.0104167
 41
0.0104167
  0
VERTEX
  8
0
 10
3.16678
 20
0.270617
 30
0.0
 40
0.0104167
 41
0.0104167
  0
VERTEX
  8
0
 10
3.17665
 20
0.293024
 30
0.0
 40
0.0104167
 41
0.0104167
  0
VERTEX
  8
0
 10
3.17979
 20
0.297418
 30
0.0
 40
0.0104167
 41
0.0104167
  0
VERTEX
  8
0
 10
3.18083
 20
0.29899
 30
0.0
 40
0.0104167
 41
0.0104167
  0
VERTEX
  8
0
 10
3.19097
 20
0.313585
 30
0.0
 40
0.0104167
 41
0.0104167
  0
VERTEX
  8
0
 10
3.19125
 20
0.315104
 30
0.0
 40
0.0104167
 41
0.0104167
  0
VERTEX
  8
0
 10
3.19174
 20
0.317979
 30
0.0
 40
0.0104167
 41
0.0104167
  0
VERTEX
  8
0
 10
3.18761
 20
0.334581
 30
0.0
 40
0.0104167
 41
0.0104167
  0
VERTEX
  8
0
 10
3.1709
 20
0.347439
 30
0.0
 40
0.0104167
 41
0.0104167
  0
VERTEX
  8
0
 10
3.16521
 20
0.348469
 30
0.0
 40
0.0104167
 41
0.0104167
  0
VERTEX
  8
0
 10
3.1639
 20
0.348742
 30
0.0
 40
0.0104167
 41
0.0104167
  0
VERTEX
  8
0
 10
3.15235
 20
0.349501
 30
0.0
 40
0.0104167
 41
0.0104167
  0
VERTEX
  8
0
 10
3.14854
 20
0.349501
 30
0.0
 40
0.0104167
 41
0.0104167
  0
VERTEX
  8
0
 10
3.14958
 20
0.349501
 30
0.0
 40
0.0104167
 41
0.0104167
  0
VERTEX
  8
0
 10
3.1454
 20
0.349501
 30
0.0
 40
0.0104167
 41
0.0104167
  0
VERTEX
  8
0
 10
3.13422
 20
0.348742
 30
0.0
 40
0.0104167
 41
0.0104167
  0
VERTEX
  8
0
 10
3.13292
 20
0.348469
 30
0.0
 40
0.0104167
 41
0.0104167
  0
VERTEX
  8
0
 10
3.12717
 20
0.347439
 30
0.0
 40
0.0104167
 41
0.0104167
  0
VERTEX
  8
0
 10
3.11051
 20
0.334581
 30
0.0
 40
0.0104167
 41
0.0104167
  0
VERTEX
  8
0
 10
3.10633
 20
0.317979
 30
0.0
 40
0.0104167
 41
0.0104167
  0
VERTEX
  8
0
 10
3.10688
 20
0.315104
 30
0.0
 40
0.0104167
 41
0.0104167
  0
VERTEX
  8
0
 10
3.1071
 20
0.313585
 30
0.0
 40
0.0104167
 41
0.0104167
  0
VERTEX
  8
0
 10
3.11729
 20
0.29899
 30
0.0
 40
0.0104167
 41
0.0104167
  0
VERTEX
  8
0
 10
3.11833
 20
0.297418
 30
0.0
 40
0.0104167
 41
0.0104167
  0
VERTEX
  8
0
 10
3.12142
 20
0.293024
 30
0.0
 40
0.0104167
 41
0.0104167
  0
VERTEX
  8
0
 10
3.13135
 20
0.270617
 30
0.0
 40
0.0104167
 41
0.0104167
  0
VERTEX
  8
0
 10
3.13504
 20
0.251682
 30
0.0
 40
0.0104167
 41
0.0104167
  0
VERTEX
  8
0
 10
3.13504
 20
0.245335
 30
0.0
 40
0.0104167
 41
0.0104167
  0
SEQEND
 8
0
  0
POLYLINE
  8
0
 62
     7
 66
     1
 10
0
 20
0
 30
0.0
 70
     1
 40
0
 41
0
  0
VERTEX
  8
0
 10
3.19125
 20
0.316189
 30
0.0
 40
0
 41
0
  0
VERTEX
  8
0
 10
3.19097
 20
0.316732
 30
0.0
 40
0
 41
0
  0
VERTEX
  8
0
 10
3.17914
 20
0.326878
 30
0.0
 40
0
 41
0
  0
VERTEX
  8
0
 10
3.15539
 20
0.335938
 30
0.0
 40
0
 41
0
  0
VERTEX
  8
0
 10
3.14751
 20
0.335938
 30
0.0
 40
0
 41
0
  0
VERTEX
  8
0
 10
3.14122
 20
0.335721
 30
0.0
 40
0
 41
0
  0
VERTEX
  8
0
 10
3.1186
 20
0.326497
 30
0.0
 40
0
 41
0
  0
VERTEX
  8
0
 10
3.10736
 20
0.316732
 30
0.0
 40
0
 41
0
  0
VERTEX
  8
0
 10
3.10688
 20
0.316189
 30
0.0
 40
0
 41
0
  0
SEQEND
 8
0
  0
POLYLINE
  8
0
 62
     0
 66
     1
 10
0
 20
0
 30
0.0
 40
0.75
 41
0.75
  0
VERTEX
  8
0
 10
3.19125
 20
0.316189
 30
0.0
 40
0.0104167
 41
0.0104167
  0
VERTEX
  8
0
 10
3.19097
 20
0.316732
 30
0.0
 40
0.0104167
 41
0.0104167
  0
VERTEX
  8
0
 10
3.17914
 20
0.326878
 30
0.0
 40
0.0104167
 41
0.0104167
  0
VERTEX
  8
0
 10
3.15539
 20
0.335938
 30
0.0
 40
0.0104167
 41
0.0104167
  0
VERTEX
  8
0
 10
3.14751
 20
0.335938
 30
0.0
 40
0.0104167
 41
0.0104167
  0
VERTEX
  8
0
 10
3.14122
 20
0.335721
 30
0.0
 40
0.0104167
 41
0.0104167
  0
VERTEX
  8
0
 10
3.1186
 20
0.326497
 30
0.0
 40
0.0104167
 41
0.0104167
  0
VERTEX
  8
0
 10
3.10736
 20
0.316732
 30
0.0
 40
0.0104167
 41
0.0104167
  0
VERTEX
  8
0
 10
3.10688
 20
0.316189
 30
0.0
 40
0.0104167
 41
0.0104167
  0
SEQEND
 8
0
  0
POLYLINE
  8
0
 62
     7
 66
     1
 10
0
 20
0
 30
0.0
 70
     1
 40
0
 41
0
  0
VERTEX
  8
0
 10
3.16314
 20
0.162001
 30
0.0
 40
0
 41
0
  0
VERTEX
  8
0
 10
3.13504
 20
0.162001
 30
0.0
 40
0
 41
0
  0
VERTEX
  8
0
 10
3.13504
 20
0.245335
 30
0.0
 40
0
 41
0
  0
VERTEX
  8
0
 10
3.14204
 20
0.245335
 30
0.0
 40
0
 41
0
  0
VERTEX
  8
0
 10
3.15782
 20
0.245335
 30
0.0
 40
0
 41
0
  0
VERTEX
  8
0
 10
3.16314
 20
0.245335
 30
0.0
 40
0
 41
0
  0
VERTEX
  8
0
 10
3.16314
 20
0.224501
 30
0.0
 40
0
 41
0
  0
VERTEX
  8
0
 10
3.16314
 20
0.177626
 30
0.0
 40
0
 41
0
  0
VERTEX
  8
0
 10
3.16314
 20
0.162001
 30
0.0
 40
0
 41
0
  0
SEQEND
 8
0
  0
POLYLINE
  8
0
 62
     0
 66
     1
 10
0
 20
0
 30
0.0
 70
     1
 40
0.75
 41
0.75
  0
VERTEX
  8
0
 10
3.16314
 20
0.162001
 30
0.0
 40
0.0104167
 41
0.0104167
  0
VERTEX
  8
0
 10
3.13504
 20
0.162001
 30
0.0
 40
0.0104167
 41
0.0104167
  0
VERTEX
  8
0
 10
3.13504
 20
0.245335
 30
0.0
 40
0.0104167
 41
0.0104167
  0
VERTEX
  8
0
 10
3.14204
 20
0.245335
 30
0.0
 40
0.0104167
 41
0.0104167
  0
VERTEX
  8
0
 10
3.15782
 20
0.245335
 30
0.0
 40
0.0104167
 41
0.0104167
  0
VERTEX
  8
0
 10
3.16314
 20
0.245335
 30
0.0
 40
0.0104167
 41
0.0104167
  0
VERTEX
  8
0
 10
3.16314
 20
0.224501
 30
0.0
 40
0.0104167
 41
0.0104167
  0
VERTEX
  8
0
 10
3.16314
 20
0.177626
 30
0.0
 40
0.0104167
 41
0.0104167
  0
VERTEX
  8
0
 10
3.16314
 20
0.162001
 30
0.0
 40
0.0104167
 41
0.0104167
  0
SEQEND
 8
0
  0
POLYLINE
  8
0
 62
     7
 66
     1
 10
0
 20
0
 30
0.0
 70
     1
 40
0
 41
0
  0
VERTEX
  8
0
 10
3.27979
 20
0.194282
 30
0.0
 40
0
 41
0
  0
VERTEX
  8
0
 10
3.27653
 20
0.193087
 30
0.0
 40
0
 41
0
  0
VERTEX
  8
0
 10
3.26687
 20
0.189236
 30
0.0
 40
0
 41
0
  0
VERTEX
  8
0
 10
3.26417
 20
0.188043
 30
0.0
 40
0
 41
0
  0
VERTEX
  8
0
 10
3.26417
 20
0.188043
 30
0.0
 40
0
 41
0
  0
VERTEX
  8
0
 10
3.26417
 20
0.189507
 30
0.0
 40
0
 41
0
  0
VERTEX
  8
0
 10
3.26417
 20
0.193793
 30
0.0
 40
0
 41
0
  0
VERTEX
  8
0
 10
3.26417
 20
0.198079
 30
0.0
 40
0
 41
0
  0
VERTEX
  8
0
 10
3.26417
 20
0.19949
 30
0.0
 40
0
 41
0
  0
VERTEX
  8
0
 10
3.26417
 20
0.19949
 30
0.0
 40
0
 41
0
  0
VERTEX
  8
0
 10
3.2665
 20
0.198839
 30
0.0
 40
0
 41
0
  0
VERTEX
  8
0
 10
3.27647
 20
0.195475
 30
0.0
 40
0
 41
0
  0
VERTEX
  8
0
 10
3.27979
 20
0.194282
 30
0.0
 40
0
 41
0
  0
SEQEND
 8
0
  0
POLYLINE
  8
0
 62
     0
 66
     1
 10
0
 20
0
 30
0.0
 70
     1
 40
0.75
 41
0.75
  0
VERTEX
  8
0
 10
3.27979
 20
0.194282
 30
0.0
 40
0.0104167
 41
0.0104167
  0
VERTEX
  8
0
 10
3.27653
 20
0.193087
 30
0.0
 40
0.0104167
 41
0.0104167
  0
VERTEX
  8
0
 10
3.26687
 20
0.189236
 30
0.0
 40
0.0104167
 41
0.0104167
  0
VERTEX
  8
0
 10
3.26417
 20
0.188043
 30
0.0
 40
0.0104167
 41
0.0104167
  0
VERTEX
  8
0
 10
3.26417
 20
0.188043
 30
0.0
 40
0.0104167
 41
0.0104167
  0
VERTEX
  8
0
 10
3.26417
 20
0.189507
 30
0.0
 40
0.0104167
 41
0.0104167
  0
VERTEX
  8
0
 10
3.26417
 20
0.193793
 30
0.0
 40
0.0104167
 41
0.0104167
  0
VERTEX
  8
0
 10
3.26417
 20
0.198079
 30
0.0
 40
0.0104167
 41
0.0104167
  0
VERTEX
  8
0
 10
3.26417
 20
0.19949
 30
0.0
 40
0.0104167
 41
0.0104167
  0
VERTEX
  8
0
 10
3.26417
 20
0.19949
 30
0.0
 40
0.0104167
 41
0.0104167
  0
VERTEX
  8
0
 10
3.2665
 20
0.198839
 30
0.0
 40
0.0104167
 41
0.0104167
  0
VERTEX
  8
0
 10
3.27647
 20
0.195475
 30
0.0
 40
0.0104167
 41
0.0104167
  0
VERTEX
  8
0
 10
3.27979
 20
0.194282
 30
0.0
 40
0.0104167
 41
0.0104167
  0
SEQEND
 8
0
  0
POLYLINE
  8
0
 62
     7
 66
     1
 10
0
 20
0
 30
0.0
 70
     1
 40
0
 41
0
  0
VERTEX
  8
0
 10
3.01938
 20
0.194282
 30
0.0
 40
0
 41
0
  0
VERTEX
  8
0
 10
3.02257
 20
0.193087
 30
0.0
 40
0
 41
0
  0
VERTEX
  8
0
 10
3.03222
 20
0.189236
 30
0.0
 40
0
 41
0
  0
VERTEX
  8
0
 10
3.035
 20
0.188043
 30
0.0
 40
0
 41
0
  0
VERTEX
  8
0
 10
3.035
 20
0.188043
 30
0.0
 40
0
 41
0
  0
VERTEX
  8
0
 10
3.035
 20
0.189507
 30
0.0
 40
0
 41
0
  0
VERTEX
  8
0
 10
3.035
 20
0.193793
 30
0.0
 40
0
 41
0
  0
VERTEX
  8
0
 10
3.035
 20
0.198079
 30
0.0
 40
0
 41
0
  0
VERTEX
  8
0
 10
3.035
 20
0.19949
 30
0.0
 40
0
 41
0
  0
VERTEX
  8
0
 10
3.035
 20
0.19949
 30
0.0
 40
0
 41
0
  0
VERTEX
  8
0
 10
3.03261
 20
0.198839
 30
0.0
 40
0
 41
0
  0
VERTEX
  8
0
 10
3.02262
 20
0.195475
 30
0.0
 40
0
 41
0
  0
VERTEX
  8
0
 10
3.01938
 20
0.194282
 30
0.0
 40
0
 41
0
  0
SEQEND
 8
0
  0
POLYLINE
  8
0
 62
     0
 66
     1
 10
0
 20
0
 30
0.0
 70
     1
 40
0.75
 41
0.75
  0
VERTEX
  8
0
 10
3.01938
 20
0.194282
 30
0.0
 40
0.0104167
 41
0.0104167
  0
VERTEX
  8
0
 10
3.02257
 20
0.193087
 30
0.0
 40
0.0104167
 41
0.0104167
  0
VERTEX
  8
0
 10
3.03222
 20
0.189236
 30
0.0
 40
0.0104167
 41
0.0104167
  0
VERTEX
  8
0
 10
3.035
 20
0.188043
 30
0.0
 40
0.0104167
 41
0.0104167
  0
VERTEX
  8
0
 10
3.035
 20
0.188043
 30
0.0
 40
0.0104167
 41
0.0104167
  0
VERTEX
  8
0
 10
3.035
 20
0.189507
 30
0.0
 40
0.0104167
 41
0.0104167
  0
VERTEX
  8
0
 10
3.035
 20
0.193793
 30
0.0
 40
0.0104167
 41
0.0104167
  0
VERTEX
  8
0
 10
3.035
 20
0.198079
 30
0.0
 40
0.0104167
 41
0.0104167
  0
VERTEX
  8
0
 10
3.035
 20
0.19949
 30
0.0
 40
0.0104167
 41
0.0104167
  0
VERTEX
  8
0
 10
3.035
 20
0.19949
 30
0.0
 40
0.0104167
 41
0.0104167
  0
VERTEX
  8
0
 10
3.03261
 20
0.198839
 30
0.0
 40
0.0104167
 41
0.0104167
  0
VERTEX
  8
0
 10
3.02262
 20
0.195475
 30
0.0
 40
0.0104167
 41
0.0104167
  0
VERTEX
  8
0
 10
3.01938
 20
0.194282
 30
0.0
 40
0.0104167
 41
0.0104167
  0
SEQEND
 8
0
  0
POLYLINE
  8
0
 62
     7
 66
     1
 10
0
 20
0
 30
0.0
 70
     1
 40
0
 41
0
  0
VERTEX
  8
0
 10
3.57611
 20
0.617622
 30
0.0
 40
0
 41
0
  0
VERTEX
  8
0
 10
4.20111
 20
0.617622
 30
0.0
 40
0
 41
0
  0
VERTEX
  8
0
 10
4.20111
 20
0.156793
 30
0.0
 40
0
 41
0
  0
VERTEX
  8
0
 10
3.57611
 20
0.156793
 30
0.0
 40
0
 41
0
  0
VERTEX
  8
0
 10
3.57611
 20
0.617622
 30
0.0
 40
0
 41
0
  0
SEQEND
 8
0
  0
POLYLINE
  8
0
 62
     0
 66
     1
 10
0
 20
0
 30
0.0
 70
     1
 40
0.75
 41
0.75
  0
VERTEX
  8
0
 10
3.57611
 20
0.617622
 30
0.0
 40
0.0104167
 41
0.0104167
  0
VERTEX
  8
0
 10
4.20111
 20
0.617622
 30
0.0
 40
0.0104167
 41
0.0104167
  0
VERTEX
  8
0
 10
4.20111
 20
0.156793
 30
0.0
 40
0.0104167
 41
0.0104167
  0
VERTEX
  8
0
 10
3.57611
 20
0.156793
 30
0.0
 40
0.0104167
 41
0.0104167
  0
VERTEX
  8
0
 10
3.57611
 20
0.617622
 30
0.0
 40
0.0104167
 41
0.0104167
  0
SEQEND
 8
0
  0
POLYLINE
  8
0
 62
     7
 66
     1
 10
0
 20
0
 30
0.0
 70
     1
 40
0
 41
0
  0
VERTEX
  8
0
 10
3.62819
 20
0.576878
 30
0.0
 40
0
 41
0
  0
VERTEX
  8
0
 10
4.14903
 20
0.576878
 30
0.0
 40
0
 41
0
  0
VERTEX
  8
0
 10
4.14903
 20
0.257813
 30
0.0
 40
0
 41
0
  0
VERTEX
  8
0
 10
3.62819
 20
0.257813
 30
0.0
 40
0
 41
0
  0
VERTEX
  8
0
 10
3.62819
 20
0.576878
 30
0.0
 40
0
 41
0
  0
SEQEND
 8
0
  0
POLYLINE
  8
0
 62
     0
 66
     1
 10
0
 20
0
 30
0.0
 70
     1
 40
0.75
 41
0.75
  0
VERTEX
  8
0
 10
3.62819
 20
0.576878
 30
0.0
 40
0.0104167
 41
0.0104167
  0
VERTEX
  8
0
 10
4.14903
 20
0.576878
 30
0.0
 40
0.0104167
 41
0.0104167
  0
VERTEX
  8
0
 10
4.14903
 20
0.257813
 30
0.0
 40
0.0104167
 41
0.0104167
  0
VERTEX
  8
0
 10
3.62819
 20
0.257813
 30
0.0
 40
0.0104167
 41
0.0104167
  0
VERTEX
  8
0
 10
3.62819
 20
0.576878
 30
0.0
 40
0.0104167
 41
0.0104167
  0
SEQEND
 8
0
  0
POLYLINE
  8
0
 62
     7
 66
     1
 10
0
 20
0
 30
0.0
 70
     1
 40
0
 41
0
  0
VERTEX
  8
0
 10
3.85215
 20
0.404081
 30
0.0
 40
0
 41
0
  0
VERTEX
  8
0
 10
3.85215
 20
0.410536
 30
0.0
 40
0
 41
0
  0
VERTEX
  8
0
 10
3.86279
 20
0.429904
 30
0.0
 40
0
 41
0
  0
VERTEX
  8
0
 10
3.88217
 20
0.440539
 30
0.0
 40
0
 41
0
  0
VERTEX
  8
0
 10
3.88861
 20
0.440539
 30
0.0
 40
0
 41
0
  0
VERTEX
  8
0
 10
3.89501
 20
0.440539
 30
0.0
 40
0
 41
0
  0
VERTEX
  8
0
 10
3.91439
 20
0.429904
 30
0.0
 40
0
 41
0
  0
VERTEX
  8
0
 10
3.92507
 20
0.410536
 30
0.0
 40
0
 41
0
  0
VERTEX
  8
0
 10
3.92507
 20
0.404081
 30
0.0
 40
0
 41
0
  0
VERTEX
  8
0
 10
3.92507
 20
0.397678
 30
0.0
 40
0
 41
0
  0
VERTEX
  8
0
 10
3.91439
 20
0.37831
 30
0.0
 40
0
 41
0
  0
VERTEX
  8
0
 10
3.89501
 20
0.367622
 30
0.0
 40
0
 41
0
  0
VERTEX
  8
0
 10
3.88861
 20
0.367622
 30
0.0
 40
0
 41
0
  0
VERTEX
  8
0
 10
3.88217
 20
0.367622
 30
0.0
 40
0
 41
0
  0
VERTEX
  8
0
 10
3.86279
 20
0.37831
 30
0.0
 40
0
 41
0
  0
VERTEX
  8
0
 10
3.85215
 20
0.397678
 30
0.0
 40
0
 41
0
  0
VERTEX
  8
0
 10
3.85215
 20
0.404081
 30
0.0
 40
0
 41
0
  0
SEQEND
 8
0
  0
POLYLINE
  8
0
 62
     0
 66
     1
 10
0
 20
0
 30
0.0
 70
     1
 40
0.6
 41
0.6
  0
VERTEX
  8
0
 10
3.85215
 20
0.404081
 30
0.0
 40
0.00833333
 41
0.00833333
  0
VERTEX
  8
0
 10
3.85215
 20
0.410536
 30
0.0
 40
0.00833333
 41
0.00833333
  0
VERTEX
  8
0
 10
3.86279
 20
0.429904
 30
0.0
 40
0.00833333
 41
0.00833333
  0
VERTEX
  8
0
 10
3.88217
 20
0.440539
 30
0.0
 40
0.00833333
 41
0.00833333
  0
VERTEX
  8
0
 10
3.88861
 20
0.440539
 30
0.0
 40
0.00833333
 41
0.00833333
  0
VERTEX
  8
0
 10
3.89501
 20
0.440539
 30
0.0
 40
0.00833333
 41
0.00833333
  0
VERTEX
  8
0
 10
3.91439
 20
0.429904
 30
0.0
 40
0.00833333
 41
0.00833333
  0
VERTEX
  8
0
 10
3.92507
 20
0.410536
 30
0.0
 40
0.00833333
 41
0.00833333
  0
VERTEX
  8
0
 10
3.92507
 20
0.404081
 30
0.0
 40
0.00833333
 41
0.00833333
  0
VERTEX
  8
0
 10
3.92507
 20
0.397678
 30
0.0
 40
0.00833333
 41
0.00833333
  0
VERTEX
  8
0
 10
3.91439
 20
0.37831
 30
0.0
 40
0.00833333
 41
0.00833333
  0
VERTEX
  8
0
 10
3.89501
 20
0.367622
 30
0.0
 40
0.00833333
 41
0.00833333
  0
VERTEX
  8
0
 10
3.88861
 20
0.367622
 30
0.0
 40
0.00833333
 41
0.00833333
  0
VERTEX
  8
0
 10
3.88217
 20
0.367622
 30
0.0
 40
0.00833333
 41
0.00833333
  0
VERTEX
  8
0
 10
3.86279
 20
0.37831
 30
0.0
 40
0.00833333
 41
0.00833333
  0
VERTEX
  8
0
 10
3.85215
 20
0.397678
 30
0.0
 40
0.00833333
 41
0.00833333
  0
VERTEX
  8
0
 10
3.85215
 20
0.404081
 30
0.0
 40
0.00833333
 41
0.00833333
  0
SEQEND
 8
0
  0
POLYLINE
  8
0
 62
     7
 66
     1
 10
0
 20
0
 30
0.0
 70
     1
 40
0
 41
0
  0
VERTEX
  8
0
 10
3.86778
 20
0.404081
 30
0.0
 40
0
 41
0
  0
VERTEX
  8
0
 10
3.86778
 20
0.407769
 30
0.0
 40
0
 41
0
  0
VERTEX
  8
0
 10
3.87386
 20
0.418837
 30
0.0
 40
0
 41
0
  0
VERTEX
  8
0
 10
3.88493
 20
0.424914
 30
0.0
 40
0
 41
0
  0
VERTEX
  8
0
 10
3.88861
 20
0.424914
 30
0.0
 40
0
 41
0
  0
VERTEX
  8
0
 10
3.89225
 20
0.424914
 30
0.0
 40
0
 41
0
  0
VERTEX
  8
0
 10
3.90332
 20
0.418837
 30
0.0
 40
0
 41
0
  0
VERTEX
  8
0
 10
3.90944
 20
0.407769
 30
0.0
 40
0
 41
0
  0
VERTEX
  8
0
 10
3.90944
 20
0.404081
 30
0.0
 40
0
 41
0
  0
VERTEX
  8
0
 10
3.90944
 20
0.400444
 30
0.0
 40
0
 41
0
  0
VERTEX
  8
0
 10
3.90332
 20
0.389378
 30
0.0
 40
0
 41
0
  0
VERTEX
  8
0
 10
3.89225
 20
0.383247
 30
0.0
 40
0
 41
0
  0
VERTEX
  8
0
 10
3.88861
 20
0.383247
 30
0.0
 40
0
 41
0
  0
VERTEX
  8
0
 10
3.88493
 20
0.383247
 30
0.0
 40
0
 41
0
  0
VERTEX
  8
0
 10
3.87386
 20
0.389378
 30
0.0
 40
0
 41
0
  0
VERTEX
  8
0
 10
3.86778
 20
0.400444
 30
0.0
 40
0
 41
0
  0
VERTEX
  8
0
 10
3.86778
 20
0.404081
 30
0.0
 40
0
 41
0
  0
SEQEND
 8
0
  0
POLYLINE
  8
0
 62
     0
 66
     1
 10
0
 20
0
 30
0.0
 70
     1
 40
0.6
 41
0.6
  0
VERTEX
  8
0
 10
3.86778
 20
0.404081
 30
0.0
 40
0.00833333
 41
0.00833333
  0
VERTEX
  8
0
 10
3.86778
 20
0.407769
 30
0.0
 40
0.00833333
 41
0.00833333
  0
VERTEX
  8
0
 10
3.87386
 20
0.418837
 30
0.0
 40
0.00833333
 41
0.00833333
  0
VERTEX
  8
0
 10
3.88493
 20
0.424914
 30
0.0
 40
0.00833333
 41
0.00833333
  0
VERTEX
  8
0
 10
3.88861
 20
0.424914
 30
0.0
 40
0.00833333
 41
0.00833333
  0
VERTEX
  8
0
 10
3.89225
 20
0.424914
 30
0.0
 40
0.00833333
 41
0.00833333
  0
VERTEX
  8
0
 10
3.90332
 20
0.418837
 30
0.0
 40
0.00833333
 41
0.00833333
  0
VERTEX
  8
0
 10
3.90944
 20
0.407769
 30
0.0
 40
0.00833333
 41
0.00833333
  0
VERTEX
  8
0
 10
3.90944
 20
0.404081
 30
0.0
 40
0.00833333
 41
0.00833333
  0
VERTEX
  8
0
 10
3.90944
 20
0.400444
 30
0.0
 40
0.00833333
 41
0.00833333
  0
VERTEX
  8
0
 10
3.90332
 20
0.389378
 30
0.0
 40
0.00833333
 41
0.00833333
  0
VERTEX
  8
0
 10
3.89225
 20
0.383247
 30
0.0
 40
0.00833333
 41
0.00833333
  0
VERTEX
  8
0
 10
3.88861
 20
0.383247
 30
0.0
 40
0.00833333
 41
0.00833333
  0
VERTEX
  8
0
 10
3.88493
 20
0.383247
 30
0.0
 40
0.00833333
 41
0.00833333
  0
VERTEX
  8
0
 10
3.87386
 20
0.389378
 30
0.0
 40
0.00833333
 41
0.00833333
  0
VERTEX
  8
0
 10
3.86778
 20
0.400444
 30
0.0
 40
0.00833333
 41
0.00833333
  0
VERTEX
  8
0
 10
3.86778
 20
0.404081
 30
0.0
 40
0.00833333
 41
0.00833333
  0
SEQEND
 8
0
  0
POLYLINE
  8
0
 62
     7
 66
     1
 10
0
 20
0
 30
0.0
 70
     1
 40
0
 41
0
  0
VERTEX
  8
0
 10
3.85736
 20
0.341092
 30
0.0
 40
0
 41
0
  0
VERTEX
  8
0
 10
3.91986
 20
0.341092
 30
0.0
 40
0
 41
0
  0
VERTEX
  8
0
 10
3.91986
 20
0.195258
 30
0.0
 40
0
 41
0
  0
VERTEX
  8
0
 10
3.85736
 20
0.195258
 30
0.0
 40
0
 41
0
  0
VERTEX
  8
0
 10
3.85736
 20
0.341092
 30
0.0
 40
0
 41
0
  0
SEQEND
 8
0
  0
POLYLINE
  8
0
 62
     0
 66
     1
 10
0
 20
0
 30
0.0
 70
     1
 40
0.75
 41
0.75
  0
VERTEX
  8
0
 10
3.85736
 20
0.341092
 30
0.0
 40
0.0104167
 41
0.0104167
  0
VERTEX
  8
0
 10
3.91986
 20
0.341092
 30
0.0
 40
0.0104167
 41
0.0104167
  0
VERTEX
  8
0
 10
3.91986
 20
0.195258
 30
0.0
 40
0.0104167
 41
0.0104167
  0
VERTEX
  8
0
 10
3.85736
 20
0.195258
 30
0.0
 40
0.0104167
 41
0.0104167
  0
VERTEX
  8
0
 10
3.85736
 20
0.341092
 30
0.0
 40
0.0104167
 41
0.0104167
  0
SEQEND
 8
0
  0
POLYLINE
  8
0
 62
     7
 66
     1
 10
0
 20
0
 30
0.0
 70
     1
 40
0
 41
0
  0
VERTEX
  8
0
 10
4.32937
 20
0.349283
 30
0.0
 40
0
 41
0
  0
VERTEX
  8
0
 10
4.74593
 20
0.349283
 30
0.0
 40
0
 41
0
  0
VERTEX
  8
0
 10
4.74593
 20
0.162001
 30
0.0
 40
0
 41
0
  0
VERTEX
  8
0
 10
4.32937
 20
0.162001
 30
0.0
 40
0
 41
0
  0
VERTEX
  8
0
 10
4.32937
 20
0.349283
 30
0.0
 40
0
 41
0
  0
SEQEND
 8
0
  0
POLYLINE
  8
0
 62
     0
 66
     1
 10
0
 20
0
 30
0.0
 70
     1
 40
0.75
 41
0.75
  0
VERTEX
  8
0
 10
4.32937
 20
0.349283
 30
0.0
 40
0.0104167
 41
0.0104167
  0
VERTEX
  8
0
 10
4.74593
 20
0.349283
 30
0.0
 40
0.0104167
 41
0.0104167
  0
VERTEX
  8
0
 10
4.74593
 20
0.162001
 30
0.0
 40
0.0104167
 41
0.0104167
  0
VERTEX
  8
0
 10
4.32937
 20
0.162001
 30
0.0
 40
0.0104167
 41
0.0104167
  0
VERTEX
  8
0
 10
4.32937
 20
0.349283
 30
0.0
 40
0.0104167
 41
0.0104167
  0
SEQEND
 8
0
  0
POLYLINE
  8
0
 62
     7
 66
     1
 10
0
 20
0
 30
0.0
 70
     1
 40
0
 41
0
  0
VERTEX
  8
0
 10
4.32937
 20
0.617622
 30
0.0
 40
0
 41
0
  0
VERTEX
  8
0
 10
4.32937
 20
0.617622
 30
0.0
 40
0
 41
0
  0
VERTEX
  8
0
 10
4.32926
 20
0.629394
 30
0.0
 40
0
 41
0
  0
VERTEX
  8
0
 10
4.33089
 20
0.660374
 30
0.0
 40
0
 41
0
  0
VERTEX
  8
0
 10
4.33703
 20
0.70421
 30
0.0
 40
0
 41
0
  0
VERTEX
  8
0
 10
4.35047
 20
0.754394
 30
0.0
 40
0
 41
0
  0
VERTEX
  8
0
 10
4.37403
 20
0.804633
 30
0.0
 40
0
 41
0
  0
VERTEX
  8
0
 10
4.41049
 20
0.848469
 30
0.0
 40
0
 41
0
  0
VERTEX
  8
0
 10
4.46262
 20
0.879449
 30
0.0
 40
0
 41
0
  0
VERTEX
  8
0
 10
4.51568
 20
0.891168
 30
0.0
 40
0
 41
0
  0
VERTEX
  8
0
 10
4.53336
 20
0.891168
 30
0.0
 40
0
 41
0
  0
VERTEX
  8
0
 10
4.55165
 20
0.891168
 30
0.0
 40
0
 41
0
  0
VERTEX
  8
0
 10
4.6065
 20
0.879449
 30
0.0
 40
0
 41
0
  0
VERTEX
  8
0
 10
4.6606
 20
0.848469
 30
0.0
 40
0
 41
0
  0
VERTEX
  8
0
 10
4.6984
 20
0.804633
 30
0.0
 40
0
 41
0
  0
VERTEX
  8
0
 10
4.72282
 20
0.754394
 30
0.0
 40
0
 41
0
  0
VERTEX
  8
0
 10
4.73682
 20
0.70421
 30
0.0
 40
0
 41
0
  0
VERTEX
  8
0
 10
4.74322
 20
0.660374
 30
0.0
 40
0
 41
0
  0
VERTEX
  8
0
 10
4.74496
 20
0.629394
 30
0.0
 40
0
 41
0
  0
VERTEX
  8
0
 10
4.7449
 20
0.617622
 30
0.0
 40
0
 41
0
  0
VERTEX
  8
0
 10
4.7449
 20
0.617622
 30
0.0
 40
0
 41
0
  0
VERTEX
  8
0
 10
4.74599
 20
0.349283
 30
0.0
 40
0
 41
0
  0
VERTEX
  8
0
 10
4.32937
 20
0.349283
 30
0.0
 40
0
 41
0
  0
VERTEX
  8
0
 10
4.32937
 20
0.617622
 30
0.0
 40
0
 41
0
  0
SEQEND
 8
0
  0
POLYLINE
  8
0
 62
     0
 66
     1
 10
0
 20
0
 30
0.0
 70
     1
 40
0.75
 41
0.75
  0
VERTEX
  8
0
 10
4.32937
 20
0.617622
 30
0.0
 40
0.0104167
 41
0.0104167
  0
VERTEX
  8
0
 10
4.32937
 20
0.617622
 30
0.0
 40
0.0104167
 41
0.0104167
  0
VERTEX
  8
0
 10
4.32926
 20
0.629394
 30
0.0
 40
0.0104167
 41
0.0104167
  0
VERTEX
  8
0
 10
4.33089
 20
0.660374
 30
0.0
 40
0.0104167
 41
0.0104167
  0
VERTEX
  8
0
 10
4.33703
 20
0.70421
 30
0.0
 40
0.0104167
 41
0.0104167
  0
VERTEX
  8
0
 10
4.35047
 20
0.754394
 30
0.0
 40
0.0104167
 41
0.0104167
  0
VERTEX
  8
0
 10
4.37403
 20
0.804633
 30
0.0
 40
0.0104167
 41
0.0104167
  0
VERTEX
  8
0
 10
4.41049
 20
0.848469
 30
0.0
 40
0.0104167
 41
0.0104167
  0
VERTEX
  8
0
 10
4.46262
 20
0.879449
 30
0.0
 40
0.0104167
 41
0.0104167
  0
VERTEX
  8
0
 10
4.51568
 20
0.891168
 30
0.0
 40
0.0104167
 41
0.0104167
  0
VERTEX
  8
0
 10
4.53336
 20
0.891168
 30
0.0
 40
0.0104167
 41
0.0104167
  0
VERTEX
  8
0
 10
4.55165
 20
0.891168
 30
0.0
 40
0.0104167
 41
0.0104167
  0
VERTEX
  8
0
 10
4.6065
 20
0.879449
 30
0.0
 40
0.0104167
 41
0.0104167
  0
VERTEX
  8
0
 10
4.6606
 20
0.848469
 30
0.0
 40
0.0104167
 41
0.0104167
  0
VERTEX
  8
0
 10
4.6984
 20
0.804633
 30
0.0
 40
0.0104167
 41
0.0104167
  0
VERTEX
  8
0
 10
4.72282
 20
0.754394
 30
0.0
 40
0.0104167
 41
0.0104167
  0
VERTEX
  8
0
 10
4.73682
 20
0.70421
 30
0.0
 40
0.0104167
 41
0.0104167
  0
VERTEX
  8
0
 10
4.74322
 20
0.660374
 30
0.0
 40
0.0104167
 41
0.0104167
  0
VERTEX
  8
0
 10
4.74496
 20
0.629394
 30
0.0
 40
0.0104167
 41
0.0104167
  0
VERTEX
  8
0
 10
4.7449
 20
0.617622
 30
0.0
 40
0.0104167
 41
0.0104167
  0
VERTEX
  8
0
 10
4.7449
 20
0.617622
 30
0.0
 40
0.0104167
 41
0.0104167
  0
VERTEX
  8
0
 10
4.74599
 20
0.349283
 30
0.0
 40
0.0104167
 41
0.0104167
  0
VERTEX
  8
0
 10
4.32937
 20
0.349283
 30
0.0
 40
0.0104167
 41
0.0104167
  0
VERTEX
  8
0
 10
4.32937
 20
0.617622
 30
0.0
 40
0.0104167
 41
0.0104167
  0
SEQEND
 8
0
  0
POLYLINE
  8
0
 62
     7
 66
     1
 10
0
 20
0
 30
0.0
 70
     1
 40
0
 41
0
  0
VERTEX
  8
0
 10
4.50456
 20
0.271431
 30
0.0
 40
0
 41
0
  0
VERTEX
  8
0
 10
4.57081
 20
0.271431
 30
0.0
 40
0
 41
0
  0
VERTEX
  8
0
 10
4.57081
 20
0.239854
 30
0.0
 40
0
 41
0
  0
VERTEX
  8
0
 10
4.50456
 20
0.239854
 30
0.0
 40
0
 41
0
  0
VERTEX
  8
0
 10
4.50456
 20
0.271431
 30
0.0
 40
0
 41
0
  0
SEQEND
 8
0
  0
POLYLINE
  8
0
 62
     0
 66
     1
 10
0
 20
0
 30
0.0
 70
     1
 40
0.75
 41
0.75
  0
VERTEX
  8
0
 10
4.50456
 20
0.271431
 30
0.0
 40
0.0104167
 41
0.0104167
  0
VERTEX
  8
0
 10
4.57081
 20
0.271431
 30
0.0
 40
0.0104167
 41
0.0104167
  0
VERTEX
  8
0
 10
4.57081
 20
0.239854
 30
0.0
 40
0.0104167
 41
0.0104167
  0
VERTEX
  8
0
 10
4.50456
 20
0.239854
 30
0.0
 40
0.0104167
 41
0.0104167
  0
VERTEX
  8
0
 10
4.50456
 20
0.271431
 30
0.0
 40
0.0104167
 41
0.0104167
  0
SEQEND
 8
0
  0
POLYLINE
  8
0
 62
     7
 66
     1
 10
0
 20
0
 30
0.0
 70
     1
 40
0
 41
0
  0
VERTEX
  8
0
 10
5.09603
 20
4.53429
 30
0.0
 40
0
 41
0
  0
VERTEX
  8
0
 10
5.68158
 20
4.53429
 30
0.0
 40
0
 41
0
  0
VERTEX
  8
0
 10
5.68158
 20
3.90929
 30
0.0
 40
0
 41
0
  0
VERTEX
  8
0
 10
5.09603
 20
3.90929
 30
0.0
 40
0
 41
0
  0
VERTEX
  8
0
 10
5.09603
 20
4.53429
 30
0.0
 40
0
 41
0
  0
SEQEND
 8
0
  0
POLYLINE
  8
0
 62
     0
 66
     1
 10
0
 20
0
 30
0.0
 70
     1
 40
0.75
 41
0.75
  0
VERTEX
  8
0
 10
5.09603
 20
4.53429
 30
0.0
 40
0.0104167
 41
0.0104167
  0
VERTEX
  8
0
 10
5.68158
 20
4.53429
 30
0.0
 40
0.0104167
 41
0.0104167
  0
VERTEX
  8
0
 10
5.68158
 20
3.90929
 30
0.0
 40
0.0104167
 41
0.0104167
  0
VERTEX
  8
0
 10
5.09603
 20
3.90929
 30
0.0
 40
0.0104167
 41
0.0104167
  0
VERTEX
  8
0
 10
5.09603
 20
4.53429
 30
0.0
 40
0.0104167
 41
0.0104167
  0
SEQEND
 8
0
  0
POLYLINE
  8
0
 62
     7
 66
     1
 10
0
 20
0
 30
0.0
 70
     1
 40
0
 41
0
  0
VERTEX
  8
0
 10
5.68158
 20
4.53429
 30
0.0
 40
0
 41
0
  0
VERTEX
  8
0
 10
6.26708
 20
4.53429
 30
0.0
 40
0
 41
0
  0
VERTEX
  8
0
 10
6.26708
 20
3.90929
 30
0.0
 40
0
 41
0
  0
VERTEX
  8
0
 10
5.68158
 20
3.90929
 30
0.0
 40
0
 41
0
  0
VERTEX
  8
0
 10
5.68158
 20
4.53429
 30
0.0
 40
0
 41
0
  0
SEQEND
 8
0
  0
POLYLINE
  8
0
 62
     0
 66
     1
 10
0
 20
0
 30
0.0
 70
     1
 40
0.75
 41
0.75
  0
VERTEX
  8
0
 10
5.68158
 20
4.53429
 30
0.0
 40
0.0104167
 41
0.0104167
  0
VERTEX
  8
0
 10
6.26708
 20
4.53429
 30
0.0
 40
0.0104167
 41
0.0104167
  0
VERTEX
  8
0
 10
6.26708
 20
3.90929
 30
0.0
 40
0.0104167
 41
0.0104167
  0
VERTEX
  8
0
 10
5.68158
 20
3.90929
 30
0.0
 40
0.0104167
 41
0.0104167
  0
VERTEX
  8
0
 10
5.68158
 20
4.53429
 30
0.0
 40
0.0104167
 41
0.0104167
  0
SEQEND
 8
0
  0
POLYLINE
  8
0
 62
     7
 66
     1
 10
0
 20
0
 30
0.0
 70
     1
 40
0
 41
0
  0
VERTEX
  8
0
 10
7.10129
 20
5.25331
 30
0.0
 40
0
 41
0
  0
VERTEX
  8
0
 10
7.76969
 20
5.25331
 30
0.0
 40
0
 41
0
  0
VERTEX
  8
0
 10
7.76969
 20
4.62831
 30
0.0
 40
0
 41
0
  0
VERTEX
  8
0
 10
7.10129
 20
4.62831
 30
0.0
 40
0
 41
0
  0
VERTEX
  8
0
 10
7.10129
 20
5.25331
 30
0.0
 40
0
 41
0
  0
SEQEND
 8
0
  0
POLYLINE
  8
0
 62
     0
 66
     1
 10
0
 20
0
 30
0.0
 70
     1
 40
0.75
 41
0.75
  0
VERTEX
  8
0
 10
7.10129
 20
5.25331
 30
0.0
 40
0.0104167
 41
0.0104167
  0
VERTEX
  8
0
 10
7.76969
 20
5.25331
 30
0.0
 40
0.0104167
 41
0.0104167
  0
VERTEX
  8
0
 10
7.76969
 20
4.62831
 30
0.0
 40
0.0104167
 41
0.0104167
  0
VERTEX
  8
0
 10
7.10129
 20
4.62831
 30
0.0
 40
0.0104167
 41
0.0104167
  0
VERTEX
  8
0
 10
7.10129
 20
5.25331
 30
0.0
 40
0.0104167
 41
0.0104167
  0
SEQEND
 8
0
  0
POLYLINE
  8
0
 62
     7
 66
     1
 10
0
 20
0
 30
0.0
 70
     1
 40
0
 41
0
  0
VERTEX
  8
0
 10
6.43289
 20
5.25331
 30
0.0
 40
0
 41
0
  0
VERTEX
  8
0
 10
7.10129
 20
5.25331
 30
0.0
 40
0
 41
0
  0
VERTEX
  8
0
 10
7.10129
 20
4.62831
 30
0.0
 40
0
 41
0
  0
VERTEX
  8
0
 10
6.43289
 20
4.62831
 30
0.0
 40
0
 41
0
  0
VERTEX
  8
0
 10
6.43289
 20
5.25331
 30
0.0
 40
0
 41
0
  0
SEQEND
 8
0
  0
POLYLINE
  8
0
 62
     0
 66
     1
 10
0
 20
0
 30
0.0
 70
     1
 40
0.75
 41
0.75
  0
VERTEX
  8
0
 10
6.43289
 20
5.25331
 30
0.0
 40
0.0104167
 41
0.0104167
  0
VERTEX
  8
0
 10
7.10129
 20
5.25331
 30
0.0
 40
0.0104167
 41
0.0104167
  0
VERTEX
  8
0
 10
7.10129
 20
4.62831
 30
0.0
 40
0.0104167
 41
0.0104167
  0
VERTEX
  8
0
 10
6.43289
 20
4.62831
 30
0.0
 40
0.0104167
 41
0.0104167
  0
VERTEX
  8
0
 10
6.43289
 20
5.25331
 30
0.0
 40
0.0104167
 41
0.0104167
  0
SEQEND
 8
0
  0
POLYLINE
  8
0
 62
     7
 66
     1
 10
0
 20
0
 30
0.0
 70
     1
 40
0
 41
0
  0
VERTEX
  8
0
 10
5.76449
 20
5.25331
 30
0.0
 40
0
 41
0
  0
VERTEX
  8
0
 10
6.43289
 20
5.25331
 30
0.0
 40
0
 41
0
  0
VERTEX
  8
0
 10
6.43289
 20
4.62831
 30
0.0
 40
0
 41
0
  0
VERTEX
  8
0
 10
5.76449
 20
4.62831
 30
0.0
 40
0
 41
0
  0
VERTEX
  8
0
 10
5.76449
 20
5.25331
 30
0.0
 40
0
 41
0
  0
SEQEND
 8
0
  0
POLYLINE
  8
0
 62
     0
 66
     1
 10
0
 20
0
 30
0.0
 70
     1
 40
0.75
 41
0.75
  0
VERTEX
  8
0
 10
5.76449
 20
5.25331
 30
0.0
 40
0.0104167
 41
0.0104167
  0
VERTEX
  8
0
 10
6.43289
 20
5.25331
 30
0.0
 40
0.0104167
 41
0.0104167
  0
VERTEX
  8
0
 10
6.43289
 20
4.62831
 30
0.0
 40
0.0104167
 41
0.0104167
  0
VERTEX
  8
0
 10
5.76449
 20
4.62831
 30
0.0
 40
0.0104167
 41
0.0104167
  0
VERTEX
  8
0
 10
5.76449
 20
5.25331
 30
0.0
 40
0.0104167
 41
0.0104167
  0
SEQEND
 8
0
  0
POLYLINE
  8
0
 62
     7
 66
     1
 10
0
 20
0
 30
0.0
 70
     1
 40
0
 41
0
  0
VERTEX
  8
0
 10
5.09603
 20
5.25331
 30
0.0
 40
0
 41
0
  0
VERTEX
  8
0
 10
5.76449
 20
5.25331
 30
0.0
 40
0
 41
0
  0
VERTEX
  8
0
 10
5.76449
 20
4.62831
 30
0.0
 40
0
 41
0
  0
VERTEX
  8
0
 10
5.09603
 20
4.62831
 30
0.0
 40
0
 41
0
  0
VERTEX
  8
0
 10
5.09603
 20
5.25331
 30
0.0
 40
0
 41
0
  0
SEQEND
 8
0
  0
POLYLINE
  8
0
 62
     0
 66
     1
 10
0
 20
0
 30
0.0
 70
     1
 40
0.75
 41
0.75
  0
VERTEX
  8
0
 10
5.09603
 20
5.25331
 30
0.0
 40
0.0104167
 41
0.0104167
  0
VERTEX
  8
0
 10
5.76449
 20
5.25331
 30
0.0
 40
0.0104167
 41
0.0104167
  0
VERTEX
  8
0
 10
5.76449
 20
4.62831
 30
0.0
 40
0.0104167
 41
0.0104167
  0
VERTEX
  8
0
 10
5.09603
 20
4.62831
 30
0.0
 40
0.0104167
 41
0.0104167
  0
VERTEX
  8
0
 10
5.09603
 20
5.25331
 30
0.0
 40
0.0104167
 41
0.0104167
  0
SEQEND
 8
0
  0
POLYLINE
  8
0
 62
     7
 66
     1
 10
0
 20
0
 30
0.0
 70
     1
 40
0
 41
0
  0
VERTEX
  8
0
 10
0.95779
 20
4.48574
 30
0.0
 40
0
 41
0
  0
VERTEX
  8
0
 10
1.59478
 20
4.48574
 30
0.0
 40
0
 41
0
  0
VERTEX
  8
0
 10
1.59478
 20
3.81267
 30
0.0
 40
0
 41
0
  0
VERTEX
  8
0
 10
0.95779
 20
3.81267
 30
0.0
 40
0
 41
0
  0
VERTEX
  8
0
 10
0.95779
 20
4.48574
 30
0.0
 40
0
 41
0
  0
SEQEND
 8
0
  0
POLYLINE
  8
0
 62
     0
 66
     1
 10
0
 20
0
 30
0.0
 70
     1
 40
0.75
 41
0.75
  0
VERTEX
  8
0
 10
0.95779
 20
4.48574
 30
0.0
 40
0.0104167
 41
0.0104167
  0
VERTEX
  8
0
 10
1.59478
 20
4.48574
 30
0.0
 40
0.0104167
 41
0.0104167
  0
VERTEX
  8
0
 10
1.59478
 20
3.81267
 30
0.0
 40
0.0104167
 41
0.0104167
  0
VERTEX
  8
0
 10
0.95779
 20
3.81267
 30
0.0
 40
0.0104167
 41
0.0104167
  0
VERTEX
  8
0
 10
0.95779
 20
4.48574
 30
0.0
 40
0.0104167
 41
0.0104167
  0
SEQEND
 8
0
  0
POLYLINE
  8
0
 62
     7
 66
     1
 10
0
 20
0
 30
0.0
 70
     1
 40
0
 41
0
  0
VERTEX
  8
0
 10
1.59483
 20
4.48574
 30
0.0
 40
0
 41
0
  0
VERTEX
  8
0
 10
2.23178
 20
4.48574
 30
0.0
 40
0
 41
0
  0
VERTEX
  8
0
 10
2.23178
 20
3.81267
 30
0.0
 40
0
 41
0
  0
VERTEX
  8
0
 10
1.59483
 20
3.81267
 30
0.0
 40
0
 41
0
  0
VERTEX
  8
0
 10
1.59483
 20
4.48574
 30
0.0
 40
0
 41
0
  0
SEQEND
 8
0
  0
POLYLINE
  8
0
 62
     0
 66
     1
 10
0
 20
0
 30
0.0
 70
     1
 40
0.75
 41
0.75
  0
VERTEX
  8
0
 10
1.59483
 20
4.48574
 30
0.0
 40
0.0104167
 41
0.0104167
  0
VERTEX
  8
0
 10
2.23178
 20
4.48574
 30
0.0
 40
0.0104167
 41
0.0104167
  0
VERTEX
  8
0
 10
2.23178
 20
3.81267
 30
0.0
 40
0.0104167
 41
0.0104167
  0
VERTEX
  8
0
 10
1.59483
 20
3.81267
 30
0.0
 40
0.0104167
 41
0.0104167
  0
VERTEX
  8
0
 10
1.59483
 20
4.48574
 30
0.0
 40
0.0104167
 41
0.0104167
  0
SEQEND
 8
0
  0
POLYLINE
  8
0
 62
     7
 66
     1
 10
0
 20
0
 30
0.0
 70
     1
 40
0
 41
0
  0
VERTEX
  8
0
 10
2.23182
 20
4.48574
 30
0.0
 40
0
 41
0
  0
VERTEX
  8
0
 10
2.86882
 20
4.48574
 30
0.0
 40
0
 41
0
  0
VERTEX
  8
0
 10
2.86882
 20
3.81267
 30
0.0
 40
0
 41
0
  0
VERTEX
  8
0
 10
2.23182
 20
3.81267
 30
0.0
 40
0
 41
0
  0
VERTEX
  8
0
 10
2.23182
 20
4.48574
 30
0.0
 40
0
 41
0
  0
SEQEND
 8
0
  0
POLYLINE
  8
0
 62
     0
 66
     1
 10
0
 20
0
 30
0.0
 70
     1
 40
0.75
 41
0.75
  0
VERTEX
  8
0
 10
2.23182
 20
4.48574
 30
0.0
 40
0.0104167
 41
0.0104167
  0
VERTEX
  8
0
 10
2.86882
 20
4.48574
 30
0.0
 40
0.0104167
 41
0.0104167
  0
VERTEX
  8
0
 10
2.86882
 20
3.81267
 30
0.0
 40
0.0104167
 41
0.0104167
  0
VERTEX
  8
0
 10
2.23182
 20
3.81267
 30
0.0
 40
0.0104167
 41
0.0104167
  0
VERTEX
  8
0
 10
2.23182
 20
4.48574
 30
0.0
 40
0.0104167
 41
0.0104167
  0
SEQEND
 8
0
  0
POLYLINE
  8
0
 62
     7
 66
     1
 10
0
 20
0
 30
0.0
 70
     1
 40
0
 41
0
  0
VERTEX
  8
0
 10
2.86888
 20
4.48574
 30
0.0
 40
0
 41
0
  0
VERTEX
  8
0
 10
3.50581
 20
4.48574
 30
0.0
 40
0
 41
0
  0
VERTEX
  8
0
 10
3.50581
 20
3.81267
 30
0.0
 40
0
 41
0
  0
VERTEX
  8
0
 10
2.86888
 20
3.81267
 30
0.0
 40
0
 41
0
  0
VERTEX
  8
0
 10
2.86888
 20
4.48574
 30
0.0
 40
0
 41
0
  0
SEQEND
 8
0
  0
POLYLINE
  8
0
 62
     0
 66
     1
 10
0
 20
0
 30
0.0
 70
     1
 40
0.75
 41
0.75
  0
VERTEX
  8
0
 10
2.86888
 20
4.48574
 30
0.0
 40
0.0104167
 41
0.0104167
  0
VERTEX
  8
0
 10
3.50581
 20
4.48574
 30
0.0
 40
0.0104167
 41
0.0104167
  0
VERTEX
  8
0
 10
3.50581
 20
3.81267
 30
0.0
 40
0.0104167
 41
0.0104167
  0
VERTEX
  8
0
 10
2.86888
 20
3.81267
 30
0.0
 40
0.0104167
 41
0.0104167
  0
VERTEX
  8
0
 10
2.86888
 20
4.48574
 30
0.0
 40
0.0104167
 41
0.0104167
  0
SEQEND
 8
0
  0
POLYLINE
  8
0
 62
     7
 66
     1
 10
0
 20
0
 30
0.0
 70
     1
 40
0
 41
0
  0
VERTEX
  8
0
 10
2.86888
 20
5.05881
 30
0.0
 40
0
 41
0
  0
VERTEX
  8
0
 10
3.50581
 20
5.05881
 30
0.0
 40
0
 41
0
  0
VERTEX
  8
0
 10
3.50581
 20
4.48687
 30
0.0
 40
0
 41
0
  0
VERTEX
  8
0
 10
2.86888
 20
4.48687
 30
0.0
 40
0
 41
0
  0
VERTEX
  8
0
 10
2.86888
 20
5.05881
 30
0.0
 40
0
 41
0
  0
SEQEND
 8
0
  0
POLYLINE
  8
0
 62
     0
 66
     1
 10
0
 20
0
 30
0.0
 70
     1
 40
0.75
 41
0.75
  0
VERTEX
  8
0
 10
2.86888
 20
5.05881
 30
0.0
 40
0.0104167
 41
0.0104167
  0
VERTEX
  8
0
 10
3.50581
 20
5.05881
 30
0.0
 40
0.0104167
 41
0.0104167
  0
VERTEX
  8
0
 10
3.50581
 20
4.48687
 30
0.0
 40
0.0104167
 41
0.0104167
  0
VERTEX
  8
0
 10
2.86888
 20
4.48687
 30
0.0
 40
0.0104167
 41
0.0104167
  0
VERTEX
  8
0
 10
2.86888
 20
5.05881
 30
0.0
 40
0.0104167
 41
0.0104167
  0
SEQEND
 8
0
  0
POLYLINE
  8
0
 62
     7
 66
     1
 10
0
 20
0
 30
0.0
 70
     1
 40
0
 41
0
  0
VERTEX
  8
0
 10
2.23182
 20
5.05881
 30
0.0
 40
0
 41
0
  0
VERTEX
  8
0
 10
2.86882
 20
5.05881
 30
0.0
 40
0
 41
0
  0
VERTEX
  8
0
 10
2.86882
 20
4.48687
 30
0.0
 40
0
 41
0
  0
VERTEX
  8
0
 10
2.23182
 20
4.48687
 30
0.0
 40
0
 41
0
  0
VERTEX
  8
0
 10
2.23182
 20
5.05881
 30
0.0
 40
0
 41
0
  0
SEQEND
 8
0
  0
POLYLINE
  8
0
 62
     0
 66
     1
 10
0
 20
0
 30
0.0
 70
     1
 40
0.75
 41
0.75
  0
VERTEX
  8
0
 10
2.23182
 20
5.05881
 30
0.0
 40
0.0104167
 41
0.0104167
  0
VERTEX
  8
0
 10
2.86882
 20
5.05881
 30
0.0
 40
0.0104167
 41
0.0104167
  0
VERTEX
  8
0
 10
2.86882
 20
4.48687
 30
0.0
 40
0.0104167
 41
0.0104167
  0
VERTEX
  8
0
 10
2.23182
 20
4.48687
 30
0.0
 40
0.0104167
 41
0.0104167
  0
VERTEX
  8
0
 10
2.23182
 20
5.05881
 30
0.0
 40
0.0104167
 41
0.0104167
  0
SEQEND
 8
0
  0
POLYLINE
  8
0
 62
     7
 66
     1
 10
0
 20
0
 30
0.0
 70
     1
 40
0
 41
0
  0
VERTEX
  8
0
 10
1.59483
 20
5.05881
 30
0.0
 40
0
 41
0
  0
VERTEX
  8
0
 10
2.23178
 20
5.05881
 30
0.0
 40
0
 41
0
  0
VERTEX
  8
0
 10
2.23178
 20
4.48687
 30
0.0
 40
0
 41
0
  0
VERTEX
  8
0
 10
1.59483
 20
4.48687
 30
0.0
 40
0
 41
0
  0
VERTEX
  8
0
 10
1.59483
 20
5.05881
 30
0.0
 40
0
 41
0
  0
SEQEND
 8
0
  0
POLYLINE
  8
0
 62
     0
 66
     1
 10
0
 20
0
 30
0.0
 70
     1
 40
0.75
 41
0.75
  0
VERTEX
  8
0
 10
1.59483
 20
5.05881
 30
0.0
 40
0.0104167
 41
0.0104167
  0
VERTEX
  8
0
 10
2.23178
 20
5.05881
 30
0.0
 40
0.0104167
 41
0.0104167
  0
VERTEX
  8
0
 10
2.23178
 20
4.48687
 30
0.0
 40
0.0104167
 41
0.0104167
  0
VERTEX
  8
0
 10
1.59483
 20
4.48687
 30
0.0
 40
0.0104167
 41
0.0104167
  0
VERTEX
  8
0
 10
1.59483
 20
5.05881
 30
0.0
 40
0.0104167
 41
0.0104167
  0
SEQEND
 8
0
  0
POLYLINE
  8
0
 62
     7
 66
     1
 10
0
 20
0
 30
0.0
 70
     1
 40
0
 41
0
  0
VERTEX
  8
0
 10
0.95779
 20
5.05881
 30
0.0
 40
0
 41
0
  0
VERTEX
  8
0
 10
1.59478
 20
5.05881
 30
0.0
 40
0
 41
0
  0
VERTEX
  8
0
 10
1.59478
 20
4.48687
 30
0.0
 40
0
 41
0
  0
VERTEX
  8
0
 10
0.95779
 20
4.48687
 30
0.0
 40
0
 41
0
  0
VERTEX
  8
0
 10
0.95779
 20
5.05881
 30
0.0
 40
0
 41
0
  0
SEQEND
 8
0
  0
POLYLINE
  8
0
 62
     0
 66
     1
 10
0
 20
0
 30
0.0
 70
     1
 40
0.75
 41
0.75
  0
VERTEX
  8
0
 10
0.95779
 20
5.05881
 30
0.0
 40
0.0104167
 41
0.0104167
  0
VERTEX
  8
0
 10
1.59478
 20
5.05881
 30
0.0
 40
0.0104167
 41
0.0104167
  0
VERTEX
  8
0
 10
1.59478
 20
4.48687
 30
0.0
 40
0.0104167
 41
0.0104167
  0
VERTEX
  8
0
 10
0.95779
 20
4.48687
 30
0.0
 40
0.0104167
 41
0.0104167
  0
VERTEX
  8
0
 10
0.95779
 20
5.05881
 30
0.0
 40
0.0104167
 41
0.0104167
  0
SEQEND
 8
0
  0
POLYLINE
  8
0
 62
     7
 66
     1
 10
0
 20
0
 30
0.0
 70
     1
 40
0
 41
0
  0
VERTEX
  8
0
 10
0.95779
 20
5.08843
 30
0.0
 40
0
 41
0
  0
VERTEX
  8
0
 10
1.77225
 20
5.08843
 30
0.0
 40
0
 41
0
  0
VERTEX
  8
0
 10
1.77225
 20
5.06239
 30
0.0
 40
0
 41
0
  0
VERTEX
  8
0
 10
0.95779
 20
5.06239
 30
0.0
 40
0
 41
0
  0
VERTEX
  8
0
 10
0.95779
 20
5.08843
 30
0.0
 40
0
 41
0
  0
SEQEND
 8
0
  0
POLYLINE
  8
0
 62
     0
 66
     1
 10
0
 20
0
 30
0.0
 70
     1
 40
0.75
 41
0.75
  0
VERTEX
  8
0
 10
0.95779
 20
5.08843
 30
0.0
 40
0.0104167
 41
0.0104167
  0
VERTEX
  8
0
 10
0.95779
 20
5.06239
 30
0.0
 40
0.0104167
 41
0.0104167
  0
VERTEX
  8
0
 10
1.77225
 20
5.06239
 30
0.0
 40
0.0104167
 41
0.0104167
  0
VERTEX
  8
0
 10
1.77225
 20
5.08843
 30
0.0
 40
0.0104167
 41
0.0104167
  0
VERTEX
  8
0
 10
0.95779
 20
5.08843
 30
0.0
 40
0.0104167
 41
0.0104167
  0
SEQEND
 8
0
  0
POLYLINE
  8
0
 62
     7
 66
     1
 10
0
 20
0
 30
0.0
 70
     1
 40
0
 41
0
  0
VERTEX
  8
0
 10
0.95779
 20
5.08843
 30
0.0
 40
0
 41
0
  0
VERTEX
  8
0
 10
1.77225
 20
5.08843
 30
0.0
 40
0
 41
0
  0
VERTEX
  8
0
 10
1.77225
 20
5.06239
 30
0.0
 40
0
 41
0
  0
VERTEX
  8
0
 10
0.95779
 20
5.06239
 30
0.0
 40
0
 41
0
  0
VERTEX
  8
0
 10
0.95779
 20
5.08843
 30
0.0
 40
0
 41
0
  0
SEQEND
 8
0
  0
POLYLINE
  8
0
 62
     0
 66
     1
 10
0
 20
0
 30
0.0
 70
     1
 40
0.75
 41
0.75
  0
VERTEX
  8
0
 10
0.95779
 20
5.08843
 30
0.0
 40
0.0104167
 41
0.0104167
  0
VERTEX
  8
0
 10
0.95779
 20
5.06239
 30
0.0
 40
0.0104167
 41
0.0104167
  0
VERTEX
  8
0
 10
1.77225
 20
5.06239
 30
0.0
 40
0.0104167
 41
0.0104167
  0
VERTEX
  8
0
 10
1.77225
 20
5.08843
 30
0.0
 40
0.0104167
 41
0.0104167
  0
VERTEX
  8
0
 10
0.95779
 20
5.08843
 30
0.0
 40
0.0104167
 41
0.0104167
  0
SEQEND
 8
0
  0
POLYLINE
  8
0
 62
     7
 66
     1
 10
0
 20
0
 30
0.0
 70
     1
 40
0
 41
0
  0
VERTEX
  8
0
 10
2.54297
 20
5.08328
 30
0.0
 40
0
 41
0
  0
VERTEX
  8
0
 10
3.50375
 20
5.08328
 30
0.0
 40
0
 41
0
  0
VERTEX
  8
0
 10
3.50375
 20
5.05724
 30
0.0
 40
0
 41
0
  0
VERTEX
  8
0
 10
2.54297
 20
5.05724
 30
0.0
 40
0
 41
0
  0
VERTEX
  8
0
 10
2.54297
 20
5.08328
 30
0.0
 40
0
 41
0
  0
SEQEND
 8
0
  0
POLYLINE
  8
0
 62
     0
 66
     1
 10
0
 20
0
 30
0.0
 70
     1
 40
0.75
 41
0.75
  0
VERTEX
  8
0
 10
2.54297
 20
5.08328
 30
0.0
 40
0.0104167
 41
0.0104167
  0
VERTEX
  8
0
 10
2.54297
 20
5.05724
 30
0.0
 40
0.0104167
 41
0.0104167
  0
VERTEX
  8
0
 10
3.50375
 20
5.05724
 30
0.0
 40
0.0104167
 41
0.0104167
  0
VERTEX
  8
0
 10
3.50375
 20
5.08328
 30
0.0
 40
0.0104167
 41
0.0104167
  0
VERTEX
  8
0
 10
2.54297
 20
5.08328
 30
0.0
 40
0.0104167
 41
0.0104167
  0
SEQEND
 8
0
  0
POLYLINE
  8
0
 62
     7
 66
     1
 10
0
 20
0
 30
0.0
 70
     1
 40
0
 41
0
  0
VERTEX
  8
0
 10
2.54297
 20
5.08328
 30
0.0
 40
0
 41
0
  0
VERTEX
  8
0
 10
3.50375
 20
5.08328
 30
0.0
 40
0
 41
0
  0
VERTEX
  8
0
 10
3.50375
 20
5.05724
 30
0.0
 40
0
 41
0
  0
VERTEX
  8
0
 10
2.54297
 20
5.05724
 30
0.0
 40
0
 41
0
  0
VERTEX
  8
0
 10
2.54297
 20
5.08328
 30
0.0
 40
0
 41
0
  0
SEQEND
 8
0
  0
POLYLINE
  8
0
 62
     0
 66
     1
 10
0
 20
0
 30
0.0
 70
     1
 40
0.75
 41
0.75
  0
VERTEX
  8
0
 10
2.54297
 20
5.08328
 30
0.0
 40
0.0104167
 41
0.0104167
  0
VERTEX
  8
0
 10
2.54297
 20
5.05724
 30
0.0
 40
0.0104167
 41
0.0104167
  0
VERTEX
  8
0
 10
3.50375
 20
5.05724
 30
0.0
 40
0.0104167
 41
0.0104167
  0
VERTEX
  8
0
 10
3.50375
 20
5.08328
 30
0.0
 40
0.0104167
 41
0.0104167
  0
VERTEX
  8
0
 10
2.54297
 20
5.08328
 30
0.0
 40
0.0104167
 41
0.0104167
  0
SEQEND
 8
0
  0
POLYLINE
  8
0
 62
     7
 66
     1
 10
0
 20
0
 30
0.0
 70
     1
 40
0
 41
0
  0
VERTEX
  8
0
 10
1.68278
 20
5.11968
 30
0.0
 40
0
 41
0
  0
VERTEX
  8
0
 10
2.67372
 20
5.11968
 30
0.0
 40
0
 41
0
  0
VERTEX
  8
0
 10
2.67372
 20
5.09364
 30
0.0
 40
0
 41
0
  0
VERTEX
  8
0
 10
1.68278
 20
5.09364
 30
0.0
 40
0
 41
0
  0
VERTEX
  8
0
 10
1.68278
 20
5.11968
 30
0.0
 40
0
 41
0
  0
SEQEND
 8
0
  0
POLYLINE
  8
0
 62
     0
 66
     1
 10
0
 20
0
 30
0.0
 70
     1
 40
0.75
 41
0.75
  0
VERTEX
  8
0
 10
1.68278
 20
5.11968
 30
0.0
 40
0.0104167
 41
0.0104167
  0
VERTEX
  8
0
 10
1.68278
 20
5.09364
 30
0.0
 40
0.0104167
 41
0.0104167
  0
VERTEX
  8
0
 10
2.67372
 20
5.09364
 30
0.0
 40
0.0104167
 41
0.0104167
  0
VERTEX
  8
0
 10
2.67372
 20
5.11968
 30
0.0
 40
0.0104167
 41
0.0104167
  0
VERTEX
  8
0
 10
1.68278
 20
5.11968
 30
0.0
 40
0.0104167
 41
0.0104167
  0
SEQEND
 8
0
  0
POLYLINE
  8
0
 62
     7
 66
     1
 10
0
 20
0
 30
0.0
 70
     1
 40
0
 41
0
  0
VERTEX
  8
0
 10
1.68278
 20
5.11968
 30
0.0
 40
0
 41
0
  0
VERTEX
  8
0
 10
2.67372
 20
5.11968
 30
0.0
 40
0
 41
0
  0
VERTEX
  8
0
 10
2.67372
 20
5.09364
 30
0.0
 40
0
 41
0
  0
VERTEX
  8
0
 10
1.68278
 20
5.09364
 30
0.0
 40
0
 41
0
  0
VERTEX
  8
0
 10
1.68278
 20
5.11968
 30
0.0
 40
0
 41
0
  0
SEQEND
 8
0
  0
POLYLINE
  8
0
 62
     0
 66
     1
 10
0
 20
0
 30
0.0
 70
     1
 40
0.75
 41
0.75
  0
VERTEX
  8
0
 10
1.68278
 20
5.11968
 30
0.0
 40
0.0104167
 41
0.0104167
  0
VERTEX
  8
0
 10
1.68278
 20
5.09364
 30
0.0
 40
0.0104167
 41
0.0104167
  0
VERTEX
  8
0
 10
2.67372
 20
5.09364
 30
0.0
 40
0.0104167
 41
0.0104167
  0
VERTEX
  8
0
 10
2.67372
 20
5.11968
 30
0.0
 40
0.0104167
 41
0.0104167
  0
VERTEX
  8
0
 10
1.68278
 20
5.11968
 30
0.0
 40
0.0104167
 41
0.0104167
  0
SEQEND
 8
0
  0
POLYLINE
  8
0
 62
     7
 66
     1
 10
0
 20
0
 30
0.0
 70
     1
 40
0
 41
0
  0
VERTEX
  8
0
 10
0.95779
 20
3.11214
 30
0.0
 40
0
 41
0
  0
VERTEX
  8
0
 10
1.33643
 20
3.11214
 30
0.0
 40
0
 41
0
  0
VERTEX
  8
0
 10
1.33643
 20
1.9114
 30
0.0
 40
0
 41
0
  0
VERTEX
  8
0
 10
0.95779
 20
1.9114
 30
0.0
 40
0
 41
0
  0
VERTEX
  8
0
 10
0.95779
 20
3.11214
 30
0.0
 40
0
 41
0
  0
SEQEND
 8
0
  0
POLYLINE
  8
0
 62
     0
 66
     1
 10
0
 20
0
 30
0.0
 70
     1
 40
0.75
 41
0.75
  0
VERTEX
  8
0
 10
0.95779
 20
3.11214
 30
0.0
 40
0.0104167
 41
0.0104167
  0
VERTEX
  8
0
 10
0.95779
 20
1.9114
 30
0.0
 40
0.0104167
 41
0.0104167
  0
VERTEX
  8
0
 10
1.33643
 20
1.9114
 30
0.0
 40
0.0104167
 41
0.0104167
  0
VERTEX
  8
0
 10
1.33643
 20
3.11214
 30
0.0
 40
0.0104167
 41
0.0104167
  0
VERTEX
  8
0
 10
0.95779
 20
3.11214
 30
0.0
 40
0.0104167
 41
0.0104167
  0
SEQEND
 8
0
  0
ENDSEC
  0
EOF
