  0
SECTION
  2
HEADER
  9
$ACADVER
  1
AC1009
  9
$FILLMODE
 70
 0
  9
$SPLFRAME
 70
 1
  9
$EXTMIN
 10
0
 20
0
 30
0.0
  9
$EXTMAX
 10
41.6667
 20
41.6667
 30
0.0
  0
ENDSEC
  0
SECTION
  2
TABLES
  0
TABLE
  2
LAYER
 70
1
  0
LAYER
  2
0
 70
     0
 62
     7
  6
CONTINUOUS
  0
ENDTAB
  0
ENDSEC
  0
SECTION
  2
ENTITIES
  0
POLYLINE
  8
0
 62
     7
 66
     1
 10
0
 20
0
 30
0.0
 70
     1
 40
0
 41
0
  0
VERTEX
  8
0
 10
3.22114
 20
7.66613
 30
0.0
 40
0
 41
0
  0
VERTEX
  8
0
 10
4.41835
 20
7.66613
 30
0.0
 40
0
 41
0
  0
VERTEX
  8
0
 10
4.41835
 20
7.46186
 30
0.0
 40
0
 41
0
  0
VERTEX
  8
0
 10
3.22114
 20
7.46186
 30
0.0
 40
0
 41
0
  0
VERTEX
  8
0
 10
3.22114
 20
7.66613
 30
0.0
 40
0
 41
0
  0
SEQEND
 8
0
  0
POLYLINE
  8
0
 62
     0
 66
     1
 10
0
 20
0
 30
0.0
 70
     1
 40
0.15
 41
0.15
  0
VERTEX
  8
0
 10
3.22114
 20
7.66613
 30
0.0
 40
0.00208333
 41
0.00208333
  0
VERTEX
  8
0
 10
4.41835
 20
7.66613
 30
0.0
 40
0.00208333
 41
0.00208333
  0
VERTEX
  8
0
 10
4.41835
 20
7.46186
 30
0.0
 40
0.00208333
 41
0.00208333
  0
VERTEX
  8
0
 10
3.22114
 20
7.46186
 30
0.0
 40
0.00208333
 41
0.00208333
  0
VERTEX
  8
0
 10
3.22114
 20
7.66613
 30
0.0
 40
0.00208333
 41
0.00208333
  0
SEQEND
 8
0
  0
TEXT
  8
0
 62
     0
 10
3.32332
 20
7.56401
 30
0.0
 40
0.34375
  1
ULK
 50
0
  0
TEXT
  8
0
 62
     0
 10
4.00093
 20
7.56401
 30
0.0
 40
0.34375
  1
O
 50
0
  0
TEXT
  8
0
 62
     0
 10
4.26324
 20
7.56401
 30
0.0
 40
0.34375
  1
TILA
 50
0
  0
POLYLINE
  8
0
 62
     7
 66
     1
 10
0
 20
0
 30
0.0
 70
     1
 40
0
 41
0
  0
VERTEX
  8
0
 10
2.90989
 20
1.26042
 30
0.0
 40
0
 41
0
  0
VERTEX
  8
0
 10
1.47846
 20
1.26042
 30
0.0
 40
0
 41
0
  0
VERTEX
  8
0
 10
1.47846
 20
3.96989
 30
0.0
 40
0
 41
0
  0
VERTEX
  8
0
 10
1.91585
 20
3.96989
 30
0.0
 40
0
 41
0
  0
VERTEX
  8
0
 10
1.91585
 20
4.35678
 30
0.0
 40
0
 41
0
  0
VERTEX
  8
0
 10
2.90625
 20
4.35678
 30
0.0
 40
0
 41
0
  0
VERTEX
  8
0
 10
2.90625
 20
4.48178
 30
0.0
 40
0
 41
0
  0
VERTEX
  8
0
 10
2.90989
 20
6.16667
 30
0.0
 40
0
 41
0
  0
VERTEX
  8
0
 10
2.90989
 20
1.26042
 30
0.0
 40
0
 41
0
  0
SEQEND
 8
0
  0
POLYLINE
  8
0
 62
     7
 66
     1
 10
0
 20
0
 30
0.0
 70
     1
 40
0.15
 41
0.15
  0
VERTEX
  8
0
 10
2.90989
 20
1.26042
 30
0.0
 40
0.00208333
 41
0.00208333
  0
VERTEX
  8
0
 10
1.47846
 20
1.26042
 30
0.0
 40
0.00208333
 41
0.00208333
  0
VERTEX
  8
0
 10
1.47846
 20
3.96989
 30
0.0
 40
0.00208333
 41
0.00208333
  0
VERTEX
  8
0
 10
1.91585
 20
3.96989
 30
0.0
 40
0.00208333
 41
0.00208333
  0
VERTEX
  8
0
 10
1.91585
 20
4.35678
 30
0.0
 40
0.00208333
 41
0.00208333
  0
VERTEX
  8
0
 10
2.90625
 20
4.35678
 30
0.0
 40
0.00208333
 41
0.00208333
  0
VERTEX
  8
0
 10
2.90625
 20
4.48178
 30
0.0
 40
0.00208333
 41
0.00208333
  0
VERTEX
  8
0
 10
2.90989
 20
6.16667
 30
0.0
 40
0.00208333
 41
0.00208333
  0
VERTEX
  8
0
 10
2.90989
 20
1.26042
 30
0.0
 40
0.00208333
 41
0.00208333
  0
SEQEND
 8
0
  0
TEXT
  8
0
 62
     0
 10
2.41904
 20
2.38376
 30
0.0
 40
0.34375
  1
K
 50
0
  0
POLYLINE
  8
0
 62
     7
 66
     1
 10
0
 20
0
 30
0.0
 70
     1
 40
0
 41
0
  0
VERTEX
  8
0
 10
6.81239
 20
3.41758
 30
0.0
 40
0
 41
0
  0
VERTEX
  8
0
 10
5.68636
 20
3.41758
 30
0.0
 40
0
 41
0
  0
VERTEX
  8
0
 10
5.68397
 20
3.54258
 30
0.0
 40
0
 41
0
  0
VERTEX
  8
0
 10
4.99397
 20
3.52946
 30
0.0
 40
0
 41
0
  0
VERTEX
  8
0
 10
4.99636
 20
3.41758
 30
0.0
 40
0
 41
0
  0
VERTEX
  8
0
 10
4.99104
 20
3.41758
 30
0.0
 40
0
 41
0
  0
VERTEX
  8
0
 10
4.15001
 20
2.60656
 30
0.0
 40
0
 41
0
  0
VERTEX
  8
0
 10
4.15001
 20
1.26042
 30
0.0
 40
0
 41
0
  0
VERTEX
  8
0
 10
2.90989
 20
1.26042
 30
0.0
 40
0
 41
0
  0
VERTEX
  8
0
 10
2.90989
 20
6.16667
 30
0.0
 40
0
 41
0
  0
VERTEX
  8
0
 10
2.91168
 20
6.98269
 30
0.0
 40
0
 41
0
  0
VERTEX
  8
0
 10
6.81239
 20
6.98269
 30
0.0
 40
0
 41
0
  0
VERTEX
  8
0
 10
6.81239
 20
3.41758
 30
0.0
 40
0
 41
0
  0
SEQEND
 8
0
  0
POLYLINE
  8
0
 62
     7
 66
     1
 10
0
 20
0
 30
0.0
 70
     1
 40
0.15
 41
0.15
  0
VERTEX
  8
0
 10
6.81239
 20
3.41758
 30
0.0
 40
0.00208333
 41
0.00208333
  0
VERTEX
  8
0
 10
5.68636
 20
3.41758
 30
0.0
 40
0.00208333
 41
0.00208333
  0
VERTEX
  8
0
 10
5.68397
 20
3.54258
 30
0.0
 40
0.00208333
 41
0.00208333
  0
VERTEX
  8
0
 10
4.99397
 20
3.52946
 30
0.0
 40
0.00208333
 41
0.00208333
  0
VERTEX
  8
0
 10
4.99636
 20
3.41758
 30
0.0
 40
0.00208333
 41
0.00208333
  0
VERTEX
  8
0
 10
4.99104
 20
3.41758
 30
0.0
 40
0.00208333
 41
0.00208333
  0
VERTEX
  8
0
 10
4.15001
 20
2.60656
 30
0.0
 40
0.00208333
 41
0.00208333
  0
VERTEX
  8
0
 10
4.15001
 20
1.26042
 30
0.0
 40
0.00208333
 41
0.00208333
  0
VERTEX
  8
0
 10
2.90989
 20
1.26042
 30
0.0
 40
0.00208333
 41
0.00208333
  0
VERTEX
  8
0
 10
2.90989
 20
6.16667
 30
0.0
 40
0.00208333
 41
0.00208333
  0
VERTEX
  8
0
 10
2.91168
 20
6.98269
 30
0.0
 40
0.00208333
 41
0.00208333
  0
VERTEX
  8
0
 10
6.81239
 20
6.98269
 30
0.0
 40
0.00208333
 41
0.00208333
  0
VERTEX
  8
0
 10
6.81239
 20
3.41758
 30
0.0
 40
0.00208333
 41
0.00208333
  0
SEQEND
 8
0
  0
TEXT
  8
0
 62
     0
 10
4.65153
 20
5.24106
 30
0.0
 40
0.34375
  1
UNDEFINED
 50
0
  0
POLYLINE
  8
0
 62
     7
 66
     1
 10
0
 20
0
 30
0.0
 70
     1
 40
0
 41
0
  0
VERTEX
  8
0
 10
1.47846
 20
4.48178
 30
0.0
 40
0
 41
0
  0
VERTEX
  8
0
 10
1.47846
 20
6.98269
 30
0.0
 40
0
 41
0
  0
VERTEX
  8
0
 10
2.91168
 20
6.98269
 30
0.0
 40
0
 41
0
  0
VERTEX
  8
0
 10
2.90625
 20
4.48178
 30
0.0
 40
0
 41
0
  0
VERTEX
  8
0
 10
1.47846
 20
4.48178
 30
0.0
 40
0
 41
0
  0
SEQEND
 8
0
  0
POLYLINE
  8
0
 62
     7
 66
     1
 10
0
 20
0
 30
0.0
 70
     1
 40
0.15
 41
0.15
  0
VERTEX
  8
0
 10
1.47846
 20
4.48178
 30
0.0
 40
0.00208333
 41
0.00208333
  0
VERTEX
  8
0
 10
1.47846
 20
6.98269
 30
0.0
 40
0.00208333
 41
0.00208333
  0
VERTEX
  8
0
 10
2.91168
 20
6.98269
 30
0.0
 40
0.00208333
 41
0.00208333
  0
VERTEX
  8
0
 10
2.90625
 20
4.48178
 30
0.0
 40
0.00208333
 41
0.00208333
  0
VERTEX
  8
0
 10
1.47846
 20
4.48178
 30
0.0
 40
0.00208333
 41
0.00208333
  0
SEQEND
 8
0
  0
TEXT
  8
0
 62
     0
 10
2.19371
 20
5.73304
 30
0.0
 40
0.34375
  1
UNDEFINED
 50
0
  0
POLYLINE
  8
0
 62
     7
 66
     1
 10
0
 20
0
 30
0.0
 70
     1
 40
0
 41
0
  0
VERTEX
  8
0
 10
6.01107
 20
2.90967
 30
0.0
 40
0
 41
0
  0
VERTEX
  8
0
 10
6.81239
 20
2.90967
 30
0.0
 40
0
 41
0
  0
VERTEX
  8
0
 10
6.81239
 20
1.26042
 30
0.0
 40
0
 41
0
  0
VERTEX
  8
0
 10
4.24376
 20
1.26042
 30
0.0
 40
0
 41
0
  0
VERTEX
  8
0
 10
4.24376
 20
2.56668
 30
0.0
 40
0
 41
0
  0
VERTEX
  8
0
 10
5.02886
 20
3.32383
 30
0.0
 40
0
 41
0
  0
VERTEX
  8
0
 10
6.01107
 20
3.32383
 30
0.0
 40
0
 41
0
  0
VERTEX
  8
0
 10
6.01107
 20
2.90967
 30
0.0
 40
0
 41
0
  0
SEQEND
 8
0
  0
POLYLINE
  8
0
 62
     7
 66
     1
 10
0
 20
0
 30
0.0
 70
     1
 40
0.15
 41
0.15
  0
VERTEX
  8
0
 10
6.01107
 20
2.90967
 30
0.0
 40
0.00208333
 41
0.00208333
  0
VERTEX
  8
0
 10
6.81239
 20
2.90967
 30
0.0
 40
0.00208333
 41
0.00208333
  0
VERTEX
  8
0
 10
6.81239
 20
1.26042
 30
0.0
 40
0.00208333
 41
0.00208333
  0
VERTEX
  8
0
 10
4.24376
 20
1.26042
 30
0.0
 40
0.00208333
 41
0.00208333
  0
VERTEX
  8
0
 10
4.24376
 20
2.56668
 30
0.0
 40
0.00208333
 41
0.00208333
  0
VERTEX
  8
0
 10
5.02886
 20
3.32383
 30
0.0
 40
0.00208333
 41
0.00208333
  0
VERTEX
  8
0
 10
6.01107
 20
3.32383
 30
0.0
 40
0.00208333
 41
0.00208333
  0
VERTEX
  8
0
 10
6.01107
 20
2.90967
 30
0.0
 40
0.00208333
 41
0.00208333
  0
SEQEND
 8
0
  0
TEXT
  8
0
 62
     0
 10
5.05029
 20
2.29303
 30
0.0
 40
0.34375
  1
PH
 50
0
  0
POLYLINE
  8
0
 62
     0
 66
     1
 10
0
 20
0
 30
0.0
 70
     1
 40
0
 41
0
  0
VERTEX
  8
0
 10
1.27013
 20
7.46186
 30
0.0
 40
0
 41
0
  0
VERTEX
  8
0
 10
7.02072
 20
7.46186
 30
0.0
 40
0
 41
0
  0
VERTEX
  8
0
 10
6.81239
 20
6.98269
 30
0.0
 40
0
 41
0
  0
VERTEX
  8
0
 10
1.47846
 20
6.98269
 30
0.0
 40
0
 41
0
  0
VERTEX
  8
0
 10
1.27013
 20
7.46186
 30
0.0
 40
0
 41
0
  0
SEQEND
 8
0
  0
POLYLINE
  8
0
 62
     0
 66
     1
 10
0
 20
0
 30
0.0
 70
     1
 40
0.15
 41
0.15
  0
VERTEX
  8
0
 10
1.27013
 20
7.46186
 30
0.0
 40
0.00208333
 41
0.00208333
  0
VERTEX
  8
0
 10
7.02072
 20
7.46186
 30
0.0
 40
0.00208333
 41
0.00208333
  0
VERTEX
  8
0
 10
6.81239
 20
6.98269
 30
0.0
 40
0.00208333
 41
0.00208333
  0
VERTEX
  8
0
 10
1.47846
 20
6.98269
 30
0.0
 40
0.00208333
 41
0.00208333
  0
VERTEX
  8
0
 10
1.27013
 20
7.46186
 30
0.0
 40
0.00208333
 41
0.00208333
  0
SEQEND
 8
0
  0
POLYLINE
  8
0
 62
     7
 66
     1
 10
0
 20
0
 30
0.0
 70
     1
 40
0
 41
0
  0
VERTEX
  8
0
 10
1.86344
 20
7.46186
 30
0.0
 40
0
 41
0
  0
VERTEX
  8
0
 10
3.04878
 20
7.46186
 30
0.0
 40
0
 41
0
  0
VERTEX
  8
0
 10
3.04878
 20
6.98269
 30
0.0
 40
0
 41
0
  0
VERTEX
  8
0
 10
1.86344
 20
6.98269
 30
0.0
 40
0
 41
0
  0
VERTEX
  8
0
 10
1.86344
 20
7.46186
 30
0.0
 40
0
 41
0
  0
SEQEND
 8
0
  0
POLYLINE
  8
0
 62
     0
 66
     1
 10
0
 20
0
 30
0.0
 70
     1
 40
0.75
 41
0.75
  0
VERTEX
  8
0
 10
1.86344
 20
7.46186
 30
0.0
 40
0.0104167
 41
0.0104167
  0
VERTEX
  8
0
 10
3.04878
 20
7.46186
 30
0.0
 40
0.0104167
 41
0.0104167
  0
VERTEX
  8
0
 10
3.04878
 20
6.98269
 30
0.0
 40
0.0104167
 41
0.0104167
  0
VERTEX
  8
0
 10
1.86344
 20
6.98269
 30
0.0
 40
0.0104167
 41
0.0104167
  0
VERTEX
  8
0
 10
1.86344
 20
7.46186
 30
0.0
 40
0.0104167
 41
0.0104167
  0
SEQEND
 8
0
  0
POLYLINE
  8
0
 62
     7
 66
     1
 10
0
 20
0
 30
0.0
 70
     1
 40
0
 41
0
  0
VERTEX
  8
0
 10
1.86344
 20
7.46186
 30
0.0
 40
0
 41
0
  0
VERTEX
  8
0
 10
3.04878
 20
7.46186
 30
0.0
 40
0
 41
0
  0
VERTEX
  8
0
 10
3.04878
 20
6.98269
 30
0.0
 40
0
 41
0
  0
VERTEX
  8
0
 10
1.86344
 20
6.98269
 30
0.0
 40
0
 41
0
  0
VERTEX
  8
0
 10
1.86344
 20
7.46186
 30
0.0
 40
0
 41
0
  0
SEQEND
 8
0
  0
POLYLINE
  8
0
 62
     0
 66
     1
 10
0
 20
0
 30
0.0
 70
     1
 40
0.75
 41
0.75
  0
VERTEX
  8
0
 10
1.86344
 20
7.46186
 30
0.0
 40
0.0104167
 41
0.0104167
  0
VERTEX
  8
0
 10
3.04878
 20
7.46186
 30
0.0
 40
0.0104167
 41
0.0104167
  0
VERTEX
  8
0
 10
3.04878
 20
6.98269
 30
0.0
 40
0.0104167
 41
0.0104167
  0
VERTEX
  8
0
 10
1.86344
 20
6.98269
 30
0.0
 40
0.0104167
 41
0.0104167
  0
VERTEX
  8
0
 10
1.86344
 20
7.46186
 30
0.0
 40
0.0104167
 41
0.0104167
  0
SEQEND
 8
0
  0
POLYLINE
  8
0
 62
     0
 66
     1
 10
0
 20
0
 30
0.0
 40
0.75
 41
0.75
  0
VERTEX
  8
0
 10
1.94157
 20
7.22228
 30
0.0
 40
0.0104167
 41
0.0104167
  0
VERTEX
  8
0
 10
2.9706
 20
7.22228
 30
0.0
 40
0.0104167
 41
0.0104167
  0
SEQEND
 8
0
  0
POLYLINE
  8
0
 62
     0
 66
     1
 10
0
 20
0
 30
0.0
 40
0.75
 41
0.75
  0
VERTEX
  8
0
 10
1.94157
 20
7.46186
 30
0.0
 40
0.0104167
 41
0.0104167
  0
VERTEX
  8
0
 10
1.94157
 20
6.98269
 30
0.0
 40
0.0104167
 41
0.0104167
  0
SEQEND
 8
0
  0
POLYLINE
  8
0
 62
     0
 66
     1
 10
0
 20
0
 30
0.0
 40
0.75
 41
0.75
  0
VERTEX
  8
0
 10
2.9706
 20
7.46186
 30
0.0
 40
0.0104167
 41
0.0104167
  0
VERTEX
  8
0
 10
2.9706
 20
6.98269
 30
0.0
 40
0.0104167
 41
0.0104167
  0
SEQEND
 8
0
  0
POLYLINE
  8
0
 62
     7
 66
     1
 10
0
 20
0
 30
0.0
 70
     1
 40
0
 41
0
  0
VERTEX
  8
0
 10
4.54135
 20
7.46186
 30
0.0
 40
0
 41
0
  0
VERTEX
  8
0
 10
6.44363
 20
7.46186
 30
0.0
 40
0
 41
0
  0
VERTEX
  8
0
 10
6.44363
 20
6.98269
 30
0.0
 40
0
 41
0
  0
VERTEX
  8
0
 10
4.54135
 20
6.98269
 30
0.0
 40
0
 41
0
  0
VERTEX
  8
0
 10
4.54135
 20
7.46186
 30
0.0
 40
0
 41
0
  0
SEQEND
 8
0
  0
POLYLINE
  8
0
 62
     0
 66
     1
 10
0
 20
0
 30
0.0
 70
     1
 40
0.75
 41
0.75
  0
VERTEX
  8
0
 10
4.54135
 20
7.46186
 30
0.0
 40
0.0104167
 41
0.0104167
  0
VERTEX
  8
0
 10
6.44363
 20
7.46186
 30
0.0
 40
0.0104167
 41
0.0104167
  0
VERTEX
  8
0
 10
6.44363
 20
6.98269
 30
0.0
 40
0.0104167
 41
0.0104167
  0
VERTEX
  8
0
 10
4.54135
 20
6.98269
 30
0.0
 40
0.0104167
 41
0.0104167
  0
VERTEX
  8
0
 10
4.54135
 20
7.46186
 30
0.0
 40
0.0104167
 41
0.0104167
  0
SEQEND
 8
0
  0
POLYLINE
  8
0
 62
     7
 66
     1
 10
0
 20
0
 30
0.0
 70
     1
 40
0
 41
0
  0
VERTEX
  8
0
 10
4.54135
 20
7.46186
 30
0.0
 40
0
 41
0
  0
VERTEX
  8
0
 10
6.44363
 20
7.46186
 30
0.0
 40
0
 41
0
  0
VERTEX
  8
0
 10
6.44363
 20
6.98269
 30
0.0
 40
0
 41
0
  0
VERTEX
  8
0
 10
4.54135
 20
6.98269
 30
0.0
 40
0
 41
0
  0
VERTEX
  8
0
 10
4.54135
 20
7.46186
 30
0.0
 40
0
 41
0
  0
SEQEND
 8
0
  0
POLYLINE
  8
0
 62
     0
 66
     1
 10
0
 20
0
 30
0.0
 70
     1
 40
0.75
 41
0.75
  0
VERTEX
  8
0
 10
4.54135
 20
7.46186
 30
0.0
 40
0.0104167
 41
0.0104167
  0
VERTEX
  8
0
 10
6.44363
 20
7.46186
 30
0.0
 40
0.0104167
 41
0.0104167
  0
VERTEX
  8
0
 10
6.44363
 20
6.98269
 30
0.0
 40
0.0104167
 41
0.0104167
  0
VERTEX
  8
0
 10
4.54135
 20
6.98269
 30
0.0
 40
0.0104167
 41
0.0104167
  0
VERTEX
  8
0
 10
4.54135
 20
7.46186
 30
0.0
 40
0.0104167
 41
0.0104167
  0
SEQEND
 8
0
  0
POLYLINE
  8
0
 62
     0
 66
     1
 10
0
 20
0
 30
0.0
 40
0.75
 41
0.75
  0
VERTEX
  8
0
 10
4.61947
 20
7.22228
 30
0.0
 40
0.0104167
 41
0.0104167
  0
VERTEX
  8
0
 10
6.3655
 20
7.22228
 30
0.0
 40
0.0104167
 41
0.0104167
  0
SEQEND
 8
0
  0
POLYLINE
  8
0
 62
     0
 66
     1
 10
0
 20
0
 30
0.0
 40
0.75
 41
0.75
  0
VERTEX
  8
0
 10
4.61947
 20
7.46186
 30
0.0
 40
0.0104167
 41
0.0104167
  0
VERTEX
  8
0
 10
4.61947
 20
6.98269
 30
0.0
 40
0.0104167
 41
0.0104167
  0
SEQEND
 8
0
  0
POLYLINE
  8
0
 62
     0
 66
     1
 10
0
 20
0
 30
0.0
 40
0.75
 41
0.75
  0
VERTEX
  8
0
 10
6.3655
 20
7.46186
 30
0.0
 40
0.0104167
 41
0.0104167
  0
VERTEX
  8
0
 10
6.3655
 20
6.98269
 30
0.0
 40
0.0104167
 41
0.0104167
  0
SEQEND
 8
0
  0
POLYLINE
  8
0
 62
     7
 66
     1
 10
0
 20
0
 30
0.0
 70
     1
 40
0
 41
0
  0
VERTEX
  8
0
 10
3.39133
 20
7.46186
 30
0.0
 40
0
 41
0
  0
VERTEX
  8
0
 10
4.26335
 20
7.46186
 30
0.0
 40
0
 41
0
  0
VERTEX
  8
0
 10
4.26335
 20
6.98269
 30
0.0
 40
0
 41
0
  0
VERTEX
  8
0
 10
3.39133
 20
6.98269
 30
0.0
 40
0
 41
0
  0
VERTEX
  8
0
 10
3.39133
 20
7.46186
 30
0.0
 40
0
 41
0
  0
SEQEND
 8
0
  0
POLYLINE
  8
0
 62
     0
 66
     1
 10
0
 20
0
 30
0.0
 70
     1
 40
0.75
 41
0.75
  0
VERTEX
  8
0
 10
3.39133
 20
7.46186
 30
0.0
 40
0.0104167
 41
0.0104167
  0
VERTEX
  8
0
 10
4.26335
 20
7.46186
 30
0.0
 40
0.0104167
 41
0.0104167
  0
VERTEX
  8
0
 10
4.26335
 20
6.98269
 30
0.0
 40
0.0104167
 41
0.0104167
  0
VERTEX
  8
0
 10
3.39133
 20
6.98269
 30
0.0
 40
0.0104167
 41
0.0104167
  0
VERTEX
  8
0
 10
3.39133
 20
7.46186
 30
0.0
 40
0.0104167
 41
0.0104167
  0
SEQEND
 8
0
  0
POLYLINE
  8
0
 62
     7
 66
     1
 10
0
 20
0
 30
0.0
 70
     1
 40
0
 41
0
  0
VERTEX
  8
0
 10
3.39133
 20
7.46186
 30
0.0
 40
0
 41
0
  0
VERTEX
  8
0
 10
4.26335
 20
7.46186
 30
0.0
 40
0
 41
0
  0
VERTEX
  8
0
 10
4.26335
 20
6.98269
 30
0.0
 40
0
 41
0
  0
VERTEX
  8
0
 10
3.39133
 20
6.98269
 30
0.0
 40
0
 41
0
  0
VERTEX
  8
0
 10
3.39133
 20
7.46186
 30
0.0
 40
0
 41
0
  0
SEQEND
 8
0
  0
POLYLINE
  8
0
 62
     0
 66
     1
 10
0
 20
0
 30
0.0
 70
     1
 40
0.75
 41
0.75
  0
VERTEX
  8
0
 10
3.39133
 20
7.46186
 30
0.0
 40
0.0104167
 41
0.0104167
  0
VERTEX
  8
0
 10
4.26335
 20
7.46186
 30
0.0
 40
0.0104167
 41
0.0104167
  0
VERTEX
  8
0
 10
4.26335
 20
6.98269
 30
0.0
 40
0.0104167
 41
0.0104167
  0
VERTEX
  8
0
 10
3.39133
 20
6.98269
 30
0.0
 40
0.0104167
 41
0.0104167
  0
VERTEX
  8
0
 10
3.39133
 20
7.46186
 30
0.0
 40
0.0104167
 41
0.0104167
  0
SEQEND
 8
0
  0
POLYLINE
  8
0
 62
     0
 66
     1
 10
0
 20
0
 30
0.0
 70
     1
 40
0.75
 41
0.75
  0
VERTEX
  8
0
 10
3.39133
 20
6.98269
 30
0.0
 40
0.0104167
 41
0.0104167
  0
VERTEX
  8
0
 10
3.39133
 20
6.93164
 30
0.0
 40
0.0104167
 41
0.0104167
  0
VERTEX
  8
0
 10
3.40494
 20
6.77838
 30
0.0
 40
0.0104167
 41
0.0104167
  0
VERTEX
  8
0
 10
3.44581
 20
6.60124
 30
0.0
 40
0.0104167
 41
0.0104167
  0
VERTEX
  8
0
 10
3.51394
 20
6.45133
 30
0.0
 40
0.0104167
 41
0.0104167
  0
VERTEX
  8
0
 10
3.60932
 20
6.32872
 30
0.0
 40
0.0104167
 41
0.0104167
  0
VERTEX
  8
0
 10
3.73193
 20
6.2334
 30
0.0
 40
0.0104167
 41
0.0104167
  0
VERTEX
  8
0
 10
3.88183
 20
6.16525
 30
0.0
 40
0.0104167
 41
0.0104167
  0
VERTEX
  8
0
 10
4.05892
 20
6.1244
 30
0.0
 40
0.0104167
 41
0.0104167
  0
VERTEX
  8
0
 10
4.21224
 20
6.11074
 30
0.0
 40
0.0104167
 41
0.0104167
  0
VERTEX
  8
0
 10
4.26335
 20
6.11074
 30
0.0
 40
0.0104167
 41
0.0104167
  0
VERTEX
  8
0
 10
4.26335
 20
6.98269
 30
0.0
 40
0.0104167
 41
0.0104167
  0
VERTEX
  8
0
 10
3.39133
 20
6.98269
 30
0.0
 40
0.0104167
 41
0.0104167
  0
SEQEND
 8
0
  0
POLYLINE
  8
0
 62
     0
 66
     1
 10
0
 20
0
 30
0.0
 70
     1
 40
0
 41
0
  0
VERTEX
  8
0
 10
7.02072
 20
7.46186
 30
0.0
 40
0
 41
0
  0
VERTEX
  8
0
 10
7.02072
 20
1.05208
 30
0.0
 40
0
 41
0
  0
VERTEX
  8
0
 10
6.81239
 20
1.26042
 30
0.0
 40
0
 41
0
  0
VERTEX
  8
0
 10
6.81239
 20
6.98269
 30
0.0
 40
0
 41
0
  0
VERTEX
  8
0
 10
7.02072
 20
7.46186
 30
0.0
 40
0
 41
0
  0
SEQEND
 8
0
  0
POLYLINE
  8
0
 62
     0
 66
     1
 10
0
 20
0
 30
0.0
 70
     1
 40
0.15
 41
0.15
  0
VERTEX
  8
0
 10
7.02072
 20
7.46186
 30
0.0
 40
0.00208333
 41
0.00208333
  0
VERTEX
  8
0
 10
7.02072
 20
1.05208
 30
0.0
 40
0.00208333
 41
0.00208333
  0
VERTEX
  8
0
 10
6.81239
 20
1.26042
 30
0.0
 40
0.00208333
 41
0.00208333
  0
VERTEX
  8
0
 10
6.81239
 20
6.98269
 30
0.0
 40
0.00208333
 41
0.00208333
  0
VERTEX
  8
0
 10
7.02072
 20
7.46186
 30
0.0
 40
0.00208333
 41
0.00208333
  0
SEQEND
 8
0
  0
POLYLINE
  8
0
 62
     0
 66
     1
 10
0
 20
0
 30
0.0
 70
     1
 40
0
 41
0
  0
VERTEX
  8
0
 10
7.02072
 20
1.05208
 30
0.0
 40
0
 41
0
  0
VERTEX
  8
0
 10
1.27013
 20
1.05208
 30
0.0
 40
0
 41
0
  0
VERTEX
  8
0
 10
1.47846
 20
1.26042
 30
0.0
 40
0
 41
0
  0
VERTEX
  8
0
 10
6.81239
 20
1.26042
 30
0.0
 40
0
 41
0
  0
VERTEX
  8
0
 10
7.02072
 20
1.05208
 30
0.0
 40
0
 41
0
  0
SEQEND
 8
0
  0
POLYLINE
  8
0
 62
     0
 66
     1
 10
0
 20
0
 30
0.0
 70
     1
 40
0.15
 41
0.15
  0
VERTEX
  8
0
 10
7.02072
 20
1.05208
 30
0.0
 40
0.00208333
 41
0.00208333
  0
VERTEX
  8
0
 10
1.27013
 20
1.05208
 30
0.0
 40
0.00208333
 41
0.00208333
  0
VERTEX
  8
0
 10
1.47846
 20
1.26042
 30
0.0
 40
0.00208333
 41
0.00208333
  0
VERTEX
  8
0
 10
6.81239
 20
1.26042
 30
0.0
 40
0.00208333
 41
0.00208333
  0
VERTEX
  8
0
 10
7.02072
 20
1.05208
 30
0.0
 40
0.00208333
 41
0.00208333
  0
SEQEND
 8
0
  0
POLYLINE
  8
0
 62
     7
 66
     1
 10
0
 20
0
 30
0.0
 70
     1
 40
0
 41
0
  0
VERTEX
  8
0
 10
2.25896
 20
1.26042
 30
0.0
 40
0
 41
0
  0
VERTEX
  8
0
 10
3.29958
 20
1.26042
 30
0.0
 40
0
 41
0
  0
VERTEX
  8
0
 10
3.29958
 20
1.05208
 30
0.0
 40
0
 41
0
  0
VERTEX
  8
0
 10
2.25896
 20
1.05208
 30
0.0
 40
0
 41
0
  0
VERTEX
  8
0
 10
2.25896
 20
1.26042
 30
0.0
 40
0
 41
0
  0
SEQEND
 8
0
  0
POLYLINE
  8
0
 62
     0
 66
     1
 10
0
 20
0
 30
0.0
 70
     1
 40
0.75
 41
0.75
  0
VERTEX
  8
0
 10
2.25896
 20
1.26042
 30
0.0
 40
0.0104167
 41
0.0104167
  0
VERTEX
  8
0
 10
3.29958
 20
1.26042
 30
0.0
 40
0.0104167
 41
0.0104167
  0
VERTEX
  8
0
 10
3.29958
 20
1.05208
 30
0.0
 40
0.0104167
 41
0.0104167
  0
VERTEX
  8
0
 10
2.25896
 20
1.05208
 30
0.0
 40
0.0104167
 41
0.0104167
  0
VERTEX
  8
0
 10
2.25896
 20
1.26042
 30
0.0
 40
0.0104167
 41
0.0104167
  0
SEQEND
 8
0
  0
POLYLINE
  8
0
 62
     7
 66
     1
 10
0
 20
0
 30
0.0
 70
     1
 40
0
 41
0
  0
VERTEX
  8
0
 10
2.25896
 20
1.26042
 30
0.0
 40
0
 41
0
  0
VERTEX
  8
0
 10
3.29958
 20
1.26042
 30
0.0
 40
0
 41
0
  0
VERTEX
  8
0
 10
3.29958
 20
1.05208
 30
0.0
 40
0
 41
0
  0
VERTEX
  8
0
 10
2.25896
 20
1.05208
 30
0.0
 40
0
 41
0
  0
VERTEX
  8
0
 10
2.25896
 20
1.26042
 30
0.0
 40
0
 41
0
  0
SEQEND
 8
0
  0
POLYLINE
  8
0
 62
     0
 66
     1
 10
0
 20
0
 30
0.0
 70
     1
 40
0.75
 41
0.75
  0
VERTEX
  8
0
 10
2.25896
 20
1.26042
 30
0.0
 40
0.0104167
 41
0.0104167
  0
VERTEX
  8
0
 10
3.29958
 20
1.26042
 30
0.0
 40
0.0104167
 41
0.0104167
  0
VERTEX
  8
0
 10
3.29958
 20
1.05208
 30
0.0
 40
0.0104167
 41
0.0104167
  0
VERTEX
  8
0
 10
2.25896
 20
1.05208
 30
0.0
 40
0.0104167
 41
0.0104167
  0
VERTEX
  8
0
 10
2.25896
 20
1.26042
 30
0.0
 40
0.0104167
 41
0.0104167
  0
SEQEND
 8
0
  0
POLYLINE
  8
0
 62
     0
 66
     1
 10
0
 20
0
 30
0.0
 70
     1
 40
0.75
 41
0.75
  0
VERTEX
  8
0
 10
3.29958
 20
1.05208
 30
0.0
 40
0.0104167
 41
0.0104167
  0
VERTEX
  8
0
 10
3.29958
 20
0.991157
 30
0.0
 40
0.0104167
 41
0.0104167
  0
VERTEX
  8
0
 10
3.28331
 20
0.808214
 30
0.0
 40
0.0104167
 41
0.0104167
  0
VERTEX
  8
0
 10
3.23454
 20
0.596843
 30
0.0
 40
0.0104167
 41
0.0104167
  0
VERTEX
  8
0
 10
3.15321
 20
0.417969
 30
0.0
 40
0.0104167
 41
0.0104167
  0
VERTEX
  8
0
 10
3.03939
 20
0.271647
 30
0.0
 40
0.0104167
 41
0.0104167
  0
VERTEX
  8
0
 10
2.89307
 20
0.157824
 30
0.0
 40
0.0104167
 41
0.0104167
  0
VERTEX
  8
0
 10
2.71419
 20
0.0764974
 30
0.0
 40
0.0104167
 41
0.0104167
  0
VERTEX
  8
0
 10
2.50282
 20
0.0277235
 30
0.0
 40
0.0104167
 41
0.0104167
  0
VERTEX
  8
0
 10
2.31988
 20
0.0114475
 30
0.0
 40
0.0104167
 41
0.0104167
  0
VERTEX
  8
0
 10
2.25896
 20
0.0114475
 30
0.0
 40
0.0104167
 41
0.0104167
  0
VERTEX
  8
0
 10
2.25896
 20
1.05208
 30
0.0
 40
0.0104167
 41
0.0104167
  0
VERTEX
  8
0
 10
3.29958
 20
1.05208
 30
0.0
 40
0.0104167
 41
0.0104167
  0
SEQEND
 8
0
  0
POLYLINE
  8
0
 62
     0
 66
     1
 10
0
 20
0
 30
0.0
 70
     1
 40
0
 41
0
  0
VERTEX
  8
0
 10
1.27013
 20
1.05208
 30
0.0
 40
0
 41
0
  0
VERTEX
  8
0
 10
1.27013
 20
7.46186
 30
0.0
 40
0
 41
0
  0
VERTEX
  8
0
 10
1.47846
 20
6.98269
 30
0.0
 40
0
 41
0
  0
VERTEX
  8
0
 10
1.47846
 20
1.26042
 30
0.0
 40
0
 41
0
  0
VERTEX
  8
0
 10
1.27013
 20
1.05208
 30
0.0
 40
0
 41
0
  0
SEQEND
 8
0
  0
POLYLINE
  8
0
 62
     0
 66
     1
 10
0
 20
0
 30
0.0
 70
     1
 40
0.15
 41
0.15
  0
VERTEX
  8
0
 10
1.27013
 20
1.05208
 30
0.0
 40
0.00208333
 41
0.00208333
  0
VERTEX
  8
0
 10
1.27013
 20
7.46186
 30
0.0
 40
0.00208333
 41
0.00208333
  0
VERTEX
  8
0
 10
1.47846
 20
6.98269
 30
0.0
 40
0.00208333
 41
0.00208333
  0
VERTEX
  8
0
 10
1.47846
 20
1.26042
 30
0.0
 40
0.00208333
 41
0.00208333
  0
VERTEX
  8
0
 10
1.27013
 20
1.05208
 30
0.0
 40
0.00208333
 41
0.00208333
  0
SEQEND
 8
0
  0
POLYLINE
  8
0
 62
     0
 66
     1
 10
0
 20
0
 30
0.0
 70
     1
 40
0
 41
0
  0
VERTEX
  8
0
 10
4.15001
 20
1.26042
 30
0.0
 40
0
 41
0
  0
VERTEX
  8
0
 10
4.15001
 20
2.60656
 30
0.0
 40
0
 41
0
  0
VERTEX
  8
0
 10
4.24376
 20
2.56668
 30
0.0
 40
0
 41
0
  0
VERTEX
  8
0
 10
4.24376
 20
1.26042
 30
0.0
 40
0
 41
0
  0
VERTEX
  8
0
 10
4.15001
 20
1.26042
 30
0.0
 40
0
 41
0
  0
SEQEND
 8
0
  0
POLYLINE
  8
0
 62
     0
 66
     1
 10
0
 20
0
 30
0.0
 70
     1
 40
0.15
 41
0.15
  0
VERTEX
  8
0
 10
4.15001
 20
1.26042
 30
0.0
 40
0.00208333
 41
0.00208333
  0
VERTEX
  8
0
 10
4.15001
 20
2.60656
 30
0.0
 40
0.00208333
 41
0.00208333
  0
VERTEX
  8
0
 10
4.24376
 20
2.56668
 30
0.0
 40
0.00208333
 41
0.00208333
  0
VERTEX
  8
0
 10
4.24376
 20
1.26042
 30
0.0
 40
0.00208333
 41
0.00208333
  0
VERTEX
  8
0
 10
4.15001
 20
1.26042
 30
0.0
 40
0.00208333
 41
0.00208333
  0
SEQEND
 8
0
  0
POLYLINE
  8
0
 62
     0
 66
     1
 10
0
 20
0
 30
0.0
 70
     1
 40
0
 41
0
  0
VERTEX
  8
0
 10
4.15001
 20
2.60656
 30
0.0
 40
0
 41
0
  0
VERTEX
  8
0
 10
4.99104
 20
3.41758
 30
0.0
 40
0
 41
0
  0
VERTEX
  8
0
 10
5.02886
 20
3.32383
 30
0.0
 40
0
 41
0
  0
VERTEX
  8
0
 10
4.24376
 20
2.56668
 30
0.0
 40
0
 41
0
  0
VERTEX
  8
0
 10
4.15001
 20
2.60656
 30
0.0
 40
0
 41
0
  0
SEQEND
 8
0
  0
POLYLINE
  8
0
 62
     0
 66
     1
 10
0
 20
0
 30
0.0
 70
     1
 40
0.15
 41
0.15
  0
VERTEX
  8
0
 10
4.15001
 20
2.60656
 30
0.0
 40
0.00208333
 41
0.00208333
  0
VERTEX
  8
0
 10
4.99104
 20
3.41758
 30
0.0
 40
0.00208333
 41
0.00208333
  0
VERTEX
  8
0
 10
5.02886
 20
3.32383
 30
0.0
 40
0.00208333
 41
0.00208333
  0
VERTEX
  8
0
 10
4.24376
 20
2.56668
 30
0.0
 40
0.00208333
 41
0.00208333
  0
VERTEX
  8
0
 10
4.15001
 20
2.60656
 30
0.0
 40
0.00208333
 41
0.00208333
  0
SEQEND
 8
0
  0
POLYLINE
  8
0
 62
     7
 66
     1
 10
0
 20
0
 30
0.0
 70
     1
 40
0
 41
0
  0
VERTEX
  8
0
 10
4.25157
 20
2.70458
 30
0.0
 40
0
 41
0
  0
VERTEX
  8
0
 10
4.8999
 20
3.32981
 30
0.0
 40
0
 41
0
  0
VERTEX
  8
0
 10
4.965
 20
3.26232
 30
0.0
 40
0
 41
0
  0
VERTEX
  8
0
 10
4.31668
 20
2.6371
 30
0.0
 40
0
 41
0
  0
VERTEX
  8
0
 10
4.25157
 20
2.70458
 30
0.0
 40
0
 41
0
  0
SEQEND
 8
0
  0
POLYLINE
  8
0
 62
     0
 66
     1
 10
0
 20
0
 30
0.0
 70
     1
 40
0.75
 41
0.75
  0
VERTEX
  8
0
 10
4.25157
 20
2.70458
 30
0.0
 40
0.0104167
 41
0.0104167
  0
VERTEX
  8
0
 10
4.8999
 20
3.32981
 30
0.0
 40
0.0104167
 41
0.0104167
  0
VERTEX
  8
0
 10
4.965
 20
3.26232
 30
0.0
 40
0.0104167
 41
0.0104167
  0
VERTEX
  8
0
 10
4.31668
 20
2.6371
 30
0.0
 40
0.0104167
 41
0.0104167
  0
VERTEX
  8
0
 10
4.25157
 20
2.70458
 30
0.0
 40
0.0104167
 41
0.0104167
  0
SEQEND
 8
0
  0
POLYLINE
  8
0
 62
     7
 66
     1
 10
0
 20
0
 30
0.0
 70
     1
 40
0
 41
0
  0
VERTEX
  8
0
 10
4.25157
 20
2.70458
 30
0.0
 40
0
 41
0
  0
VERTEX
  8
0
 10
4.8999
 20
3.32981
 30
0.0
 40
0
 41
0
  0
VERTEX
  8
0
 10
4.965
 20
3.26232
 30
0.0
 40
0
 41
0
  0
VERTEX
  8
0
 10
4.31668
 20
2.6371
 30
0.0
 40
0
 41
0
  0
VERTEX
  8
0
 10
4.25157
 20
2.70458
 30
0.0
 40
0
 41
0
  0
SEQEND
 8
0
  0
POLYLINE
  8
0
 62
     0
 66
     1
 10
0
 20
0
 30
0.0
 70
     1
 40
0.75
 41
0.75
  0
VERTEX
  8
0
 10
4.25157
 20
2.70458
 30
0.0
 40
0.0104167
 41
0.0104167
  0
VERTEX
  8
0
 10
4.8999
 20
3.32981
 30
0.0
 40
0.0104167
 41
0.0104167
  0
VERTEX
  8
0
 10
4.965
 20
3.26232
 30
0.0
 40
0.0104167
 41
0.0104167
  0
VERTEX
  8
0
 10
4.31668
 20
2.6371
 30
0.0
 40
0.0104167
 41
0.0104167
  0
VERTEX
  8
0
 10
4.25157
 20
2.70458
 30
0.0
 40
0.0104167
 41
0.0104167
  0
SEQEND
 8
0
  0
POLYLINE
  8
0
 62
     0
 66
     1
 10
0
 20
0
 30
0.0
 70
     1
 40
0.75
 41
0.75
  0
VERTEX
  8
0
 10
4.25157
 20
2.70458
 30
0.0
 40
0.0104167
 41
0.0104167
  0
VERTEX
  8
0
 10
4.2149
 20
2.74262
 30
0.0
 40
0.0104167
 41
0.0104167
  0
VERTEX
  8
0
 10
4.11513
 20
2.86632
 30
0.0
 40
0.0104167
 41
0.0104167
  0
VERTEX
  8
0
 10
4.0185
 20
3.02735
 30
0.0
 40
0.0104167
 41
0.0104167
  0
VERTEX
  8
0
 10
3.96169
 20
3.18761
 30
0.0
 40
0.0104167
 41
0.0104167
  0
VERTEX
  8
0
 10
3.94472
 20
3.34717
 30
0.0
 40
0.0104167
 41
0.0104167
  0
VERTEX
  8
0
 10
3.96744
 20
3.50603
 30
0.0
 40
0.0104167
 41
0.0104167
  0
VERTEX
  8
0
 10
4.03006
 20
3.66411
 30
0.0
 40
0.0104167
 41
0.0104167
  0
VERTEX
  8
0
 10
4.13238
 20
3.8215
 30
0.0
 40
0.0104167
 41
0.0104167
  0
VERTEX
  8
0
 10
4.2366
 20
3.94151
 30
0.0
 40
0.0104167
 41
0.0104167
  0
VERTEX
  8
0
 10
4.27458
 20
3.97814
 30
0.0
 40
0.0104167
 41
0.0104167
  0
VERTEX
  8
0
 10
4.89979
 20
3.32981
 30
0.0
 40
0.0104167
 41
0.0104167
  0
VERTEX
  8
0
 10
4.25157
 20
2.70458
 30
0.0
 40
0.0104167
 41
0.0104167
  0
SEQEND
 8
0
  0
POLYLINE
  8
0
 62
     0
 66
     1
 10
0
 20
0
 30
0.0
 70
     1
 40
0
 41
0
  0
VERTEX
  8
0
 10
4.99104
 20
3.41758
 30
0.0
 40
0
 41
0
  0
VERTEX
  8
0
 10
6.81239
 20
3.41758
 30
0.0
 40
0
 41
0
  0
VERTEX
  8
0
 10
6.81239
 20
3.32383
 30
0.0
 40
0
 41
0
  0
VERTEX
  8
0
 10
5.02886
 20
3.32383
 30
0.0
 40
0
 41
0
  0
VERTEX
  8
0
 10
4.99104
 20
3.41758
 30
0.0
 40
0
 41
0
  0
SEQEND
 8
0
  0
POLYLINE
  8
0
 62
     0
 66
     1
 10
0
 20
0
 30
0.0
 70
     1
 40
0.15
 41
0.15
  0
VERTEX
  8
0
 10
4.99104
 20
3.41758
 30
0.0
 40
0.00208333
 41
0.00208333
  0
VERTEX
  8
0
 10
6.81239
 20
3.41758
 30
0.0
 40
0.00208333
 41
0.00208333
  0
VERTEX
  8
0
 10
6.81239
 20
3.32383
 30
0.0
 40
0.00208333
 41
0.00208333
  0
VERTEX
  8
0
 10
5.02886
 20
3.32383
 30
0.0
 40
0.00208333
 41
0.00208333
  0
VERTEX
  8
0
 10
4.99104
 20
3.41758
 30
0.0
 40
0.00208333
 41
0.00208333
  0
SEQEND
 8
0
  0
POLYLINE
  8
0
 62
     0
 66
     1
 10
0
 20
0
 30
0.0
 70
     1
 40
0
 41
0
  0
VERTEX
  8
0
 10
1.47846
 20
4.48178
 30
0.0
 40
0
 41
0
  0
VERTEX
  8
0
 10
2.90989
 20
4.48178
 30
0.0
 40
0
 41
0
  0
VERTEX
  8
0
 10
2.90989
 20
4.35678
 30
0.0
 40
0
 41
0
  0
VERTEX
  8
0
 10
1.47846
 20
4.35678
 30
0.0
 40
0
 41
0
  0
VERTEX
  8
0
 10
1.47846
 20
4.48178
 30
0.0
 40
0
 41
0
  0
SEQEND
 8
0
  0
POLYLINE
  8
0
 62
     0
 66
     1
 10
0
 20
0
 30
0.0
 70
     1
 40
0.15
 41
0.15
  0
VERTEX
  8
0
 10
1.47846
 20
4.48178
 30
0.0
 40
0.00208333
 41
0.00208333
  0
VERTEX
  8
0
 10
2.90989
 20
4.48178
 30
0.0
 40
0.00208333
 41
0.00208333
  0
VERTEX
  8
0
 10
2.90989
 20
4.35678
 30
0.0
 40
0.00208333
 41
0.00208333
  0
VERTEX
  8
0
 10
1.47846
 20
4.35678
 30
0.0
 40
0.00208333
 41
0.00208333
  0
VERTEX
  8
0
 10
1.47846
 20
4.48178
 30
0.0
 40
0.00208333
 41
0.00208333
  0
SEQEND
 8
0
  0
POLYLINE
  8
0
 62
     0
 66
     1
 10
0
 20
0
 30
0.0
 70
     1
 40
0
 41
0
  0
VERTEX
  8
0
 10
1.91585
 20
4.35678
 30
0.0
 40
0
 41
0
  0
VERTEX
  8
0
 10
1.91585
 20
3.96989
 30
0.0
 40
0
 41
0
  0
VERTEX
  8
0
 10
1.79085
 20
4.36783
 30
0.0
 40
0
 41
0
  0
VERTEX
  8
0
 10
1.79085
 20
4.35678
 30
0.0
 40
0
 41
0
  0
VERTEX
  8
0
 10
1.91585
 20
4.35678
 30
0.0
 40
0
 41
0
  0
SEQEND
 8
0
  0
POLYLINE
  8
0
 62
     0
 66
     1
 10
0
 20
0
 30
0.0
 70
     1
 40
0.15
 41
0.15
  0
VERTEX
  8
0
 10
1.91585
 20
4.35678
 30
0.0
 40
0.00208333
 41
0.00208333
  0
VERTEX
  8
0
 10
1.91585
 20
3.96989
 30
0.0
 40
0.00208333
 41
0.00208333
  0
VERTEX
  8
0
 10
1.79085
 20
4.36783
 30
0.0
 40
0.00208333
 41
0.00208333
  0
VERTEX
  8
0
 10
1.79085
 20
4.35678
 30
0.0
 40
0.00208333
 41
0.00208333
  0
VERTEX
  8
0
 10
1.91585
 20
4.35678
 30
0.0
 40
0.00208333
 41
0.00208333
  0
SEQEND
 8
0
  0
POLYLINE
  8
0
 62
     0
 66
     1
 10
0
 20
0
 30
0.0
 70
     1
 40
0
 41
0
  0
VERTEX
  8
0
 10
1.91585
 20
3.96989
 30
0.0
 40
0
 41
0
  0
VERTEX
  8
0
 10
1.47846
 20
3.96989
 30
0.0
 40
0
 41
0
  0
VERTEX
  8
0
 10
1.47846
 20
4.36783
 30
0.0
 40
0
 41
0
  0
VERTEX
  8
0
 10
1.79085
 20
4.36783
 30
0.0
 40
0
 41
0
  0
VERTEX
  8
0
 10
1.91585
 20
3.96989
 30
0.0
 40
0
 41
0
  0
SEQEND
 8
0
  0
POLYLINE
  8
0
 62
     0
 66
     1
 10
0
 20
0
 30
0.0
 70
     1
 40
0.15
 41
0.15
  0
VERTEX
  8
0
 10
1.91585
 20
3.96989
 30
0.0
 40
0.00208333
 41
0.00208333
  0
VERTEX
  8
0
 10
1.47846
 20
3.96989
 30
0.0
 40
0.00208333
 41
0.00208333
  0
VERTEX
  8
0
 10
1.47846
 20
4.36783
 30
0.0
 40
0.00208333
 41
0.00208333
  0
VERTEX
  8
0
 10
1.79085
 20
4.36783
 30
0.0
 40
0.00208333
 41
0.00208333
  0
VERTEX
  8
0
 10
1.91585
 20
3.96989
 30
0.0
 40
0.00208333
 41
0.00208333
  0
SEQEND
 8
0
  0
POLYLINE
  8
0
 62
     7
 66
     1
 10
0
 20
0
 30
0.0
 70
     1
 40
0
 41
0
  0
VERTEX
  8
0
 10
1.47846
 20
2.04243
 30
0.0
 40
0
 41
0
  0
VERTEX
  8
0
 10
2.10346
 20
2.04243
 30
0.0
 40
0
 41
0
  0
VERTEX
  8
0
 10
2.10346
 20
1.40192
 30
0.0
 40
0
 41
0
  0
VERTEX
  8
0
 10
1.47846
 20
1.40192
 30
0.0
 40
0
 41
0
  0
VERTEX
  8
0
 10
1.47846
 20
2.04243
 30
0.0
 40
0
 41
0
  0
SEQEND
 8
0
  0
POLYLINE
  8
0
 62
     0
 66
     1
 10
0
 20
0
 30
0.0
 70
     1
 40
0.7686
 41
0.7686
  0
VERTEX
  8
0
 10
1.47846
 20
2.04243
 30
0.0
 40
0.010675
 41
0.010675
  0
VERTEX
  8
0
 10
1.47846
 20
1.40192
 30
0.0
 40
0.010675
 41
0.010675
  0
VERTEX
  8
0
 10
2.10346
 20
1.40192
 30
0.0
 40
0.010675
 41
0.010675
  0
VERTEX
  8
0
 10
2.10346
 20
2.04243
 30
0.0
 40
0.010675
 41
0.010675
  0
VERTEX
  8
0
 10
1.47846
 20
2.04243
 30
0.0
 40
0.010675
 41
0.010675
  0
SEQEND
 8
0
  0
POLYLINE
  8
0
 62
     0
 66
     1
 10
0
 20
0
 30
0.0
 40
0.7686
 41
0.7686
  0
VERTEX
  8
0
 10
1.47846
 20
1.40192
 30
0.0
 40
0.010675
 41
0.010675
  0
VERTEX
  8
0
 10
1.8649
 20
1.72217
 30
0.0
 40
0.010675
 41
0.010675
  0
VERTEX
  8
0
 10
1.6774
 20
1.72217
 30
0.0
 40
0.010675
 41
0.010675
  0
VERTEX
  8
0
 10
2.06494
 20
2.04243
 30
0.0
 40
0.010675
 41
0.010675
  0
SEQEND
 8
0
  0
POLYLINE
  8
0
 62
     7
 66
     1
 10
0
 20
0
 30
0.0
 70
     1
 40
0
 41
0
  0
VERTEX
  8
0
 10
2.06179
 20
2.04243
 30
0.0
 40
0
 41
0
  0
VERTEX
  8
0
 10
2.10346
 20
2.04243
 30
0.0
 40
0
 41
0
  0
VERTEX
  8
0
 10
2.10346
 20
1.40192
 30
0.0
 40
0
 41
0
  0
VERTEX
  8
0
 10
2.06179
 20
1.40192
 30
0.0
 40
0
 41
0
  0
VERTEX
  8
0
 10
2.06179
 20
2.04243
 30
0.0
 40
0
 41
0
  0
SEQEND
 8
0
  0
POLYLINE
  8
0
 62
     0
 66
     1
 10
0
 20
0
 30
0.0
 70
     1
 40
0.7686
 41
0.7686
  0
VERTEX
  8
0
 10
2.06179
 20
2.04243
 30
0.0
 40
0.010675
 41
0.010675
  0
VERTEX
  8
0
 10
2.06179
 20
1.40192
 30
0.0
 40
0.010675
 41
0.010675
  0
VERTEX
  8
0
 10
2.10346
 20
1.40192
 30
0.0
 40
0.010675
 41
0.010675
  0
VERTEX
  8
0
 10
2.10346
 20
2.04243
 30
0.0
 40
0.010675
 41
0.010675
  0
VERTEX
  8
0
 10
2.06179
 20
2.04243
 30
0.0
 40
0.010675
 41
0.010675
  0
SEQEND
 8
0
  0
POLYLINE
  8
0
 62
     7
 66
     1
 10
0
 20
0
 30
0.0
 70
     1
 40
0
 41
0
  0
VERTEX
  8
0
 10
1.47846
 20
1.40196
 30
0.0
 40
0
 41
0
  0
VERTEX
  8
0
 10
2.10346
 20
1.40196
 30
0.0
 40
0
 41
0
  0
VERTEX
  8
0
 10
2.10346
 20
1.26042
 30
0.0
 40
0
 41
0
  0
VERTEX
  8
0
 10
1.47846
 20
1.26042
 30
0.0
 40
0
 41
0
  0
VERTEX
  8
0
 10
1.47846
 20
1.40196
 30
0.0
 40
0
 41
0
  0
SEQEND
 8
0
  0
POLYLINE
  8
0
 62
     0
 66
     1
 10
0
 20
0
 30
0.0
 70
     1
 40
1.01902
 41
1.01902
  0
VERTEX
  8
0
 10
1.47846
 20
1.40196
 30
0.0
 40
0.0141531
 41
0.0141531
  0
VERTEX
  8
0
 10
1.47846
 20
1.26042
 30
0.0
 40
0.0141531
 41
0.0141531
  0
VERTEX
  8
0
 10
2.10346
 20
1.26042
 30
0.0
 40
0.0141531
 41
0.0141531
  0
VERTEX
  8
0
 10
2.10346
 20
1.40196
 30
0.0
 40
0.0141531
 41
0.0141531
  0
VERTEX
  8
0
 10
1.47846
 20
1.40196
 30
0.0
 40
0.0141531
 41
0.0141531
  0
SEQEND
 8
0
  0
POLYLINE
  8
0
 62
     7
 66
     1
 10
0
 20
0
 30
0.0
 70
     1
 40
0
 41
0
  0
VERTEX
  8
0
 10
2.90989
 20
4.35682
 30
0.0
 40
0
 41
0
  0
VERTEX
  8
0
 10
1.9159
 20
4.35682
 30
0.0
 40
0
 41
0
  0
VERTEX
  8
0
 10
1.9159
 20
3.96994
 30
0.0
 40
0
 41
0
  0
VERTEX
  8
0
 10
1.47851
 20
3.96994
 30
0.0
 40
0
 41
0
  0
VERTEX
  8
0
 10
1.47851
 20
2.04243
 30
0.0
 40
0
 41
0
  0
VERTEX
  8
0
 10
2.10351
 20
2.04243
 30
0.0
 40
0
 41
0
  0
VERTEX
  8
0
 10
2.10351
 20
3.68001
 30
0.0
 40
0
 41
0
  0
VERTEX
  8
0
 10
2.90989
 20
3.68001
 30
0.0
 40
0
 41
0
  0
VERTEX
  8
0
 10
2.90989
 20
4.35682
 30
0.0
 40
0
 41
0
  0
SEQEND
 8
0
  0
POLYLINE
  8
0
 62
     0
 66
     1
 10
0
 20
0
 30
0.0
 70
     1
 40
0.75
 41
0.75
  0
VERTEX
  8
0
 10
2.90989
 20
4.35682
 30
0.0
 40
0.0104167
 41
0.0104167
  0
VERTEX
  8
0
 10
1.9159
 20
4.35682
 30
0.0
 40
0.0104167
 41
0.0104167
  0
VERTEX
  8
0
 10
1.9159
 20
3.96994
 30
0.0
 40
0.0104167
 41
0.0104167
  0
VERTEX
  8
0
 10
1.47851
 20
3.96994
 30
0.0
 40
0.0104167
 41
0.0104167
  0
VERTEX
  8
0
 10
1.47851
 20
2.04243
 30
0.0
 40
0.0104167
 41
0.0104167
  0
VERTEX
  8
0
 10
2.10351
 20
2.04243
 30
0.0
 40
0.0104167
 41
0.0104167
  0
VERTEX
  8
0
 10
2.10351
 20
3.68001
 30
0.0
 40
0.0104167
 41
0.0104167
  0
VERTEX
  8
0
 10
2.90989
 20
3.68001
 30
0.0
 40
0.0104167
 41
0.0104167
  0
VERTEX
  8
0
 10
2.90989
 20
4.35682
 30
0.0
 40
0.0104167
 41
0.0104167
  0
SEQEND
 8
0
  0
POLYLINE
  8
0
 62
     7
 66
     1
 10
0
 20
0
 30
0.0
 70
     1
 40
0
 41
0
  0
VERTEX
  8
0
 10
1.57954
 20
2.75956
 30
0.0
 40
0
 41
0
  0
VERTEX
  8
0
 10
2.04829
 20
2.75956
 30
0.0
 40
0
 41
0
  0
VERTEX
  8
0
 10
2.04829
 20
2.20497
 30
0.0
 40
0
 41
0
  0
VERTEX
  8
0
 10
1.57954
 20
2.20497
 30
0.0
 40
0
 41
0
  0
VERTEX
  8
0
 10
1.57954
 20
2.75956
 30
0.0
 40
0
 41
0
  0
SEQEND
 8
0
  0
POLYLINE
  8
0
 62
     0
 66
     1
 10
0
 20
0
 30
0.0
 70
     1
 40
0.75
 41
0.75
  0
VERTEX
  8
0
 10
1.57954
 20
2.75956
 30
0.0
 40
0.0104167
 41
0.0104167
  0
VERTEX
  8
0
 10
1.57954
 20
2.20497
 30
0.0
 40
0.0104167
 41
0.0104167
  0
VERTEX
  8
0
 10
2.04829
 20
2.20497
 30
0.0
 40
0.0104167
 41
0.0104167
  0
VERTEX
  8
0
 10
2.04829
 20
2.75956
 30
0.0
 40
0.0104167
 41
0.0104167
  0
VERTEX
  8
0
 10
1.57954
 20
2.75956
 30
0.0
 40
0.0104167
 41
0.0104167
  0
SEQEND
 8
0
  0
POLYLINE
  8
0
 62
     7
 66
     1
 10
0
 20
0
 30
0.0
 70
     1
 40
0
 41
0
  0
VERTEX
  8
0
 10
1.81392
 20
2.51878
 30
0.0
 40
0
 41
0
  0
VERTEX
  8
0
 10
1.82032
 20
2.51878
 30
0.0
 40
0
 41
0
  0
VERTEX
  8
0
 10
1.83968
 20
2.50814
 30
0.0
 40
0
 41
0
  0
VERTEX
  8
0
 10
1.85038
 20
2.48876
 30
0.0
 40
0
 41
0
  0
VERTEX
  8
0
 10
1.85038
 20
2.48232
 30
0.0
 40
0
 41
0
  0
VERTEX
  8
0
 10
1.85038
 20
2.47592
 30
0.0
 40
0
 41
0
  0
VERTEX
  8
0
 10
1.83968
 20
2.45654
 30
0.0
 40
0
 41
0
  0
VERTEX
  8
0
 10
1.82032
 20
2.44586
 30
0.0
 40
0
 41
0
  0
VERTEX
  8
0
 10
1.81392
 20
2.44586
 30
0.0
 40
0
 41
0
  0
VERTEX
  8
0
 10
1.80746
 20
2.44586
 30
0.0
 40
0
 41
0
  0
VERTEX
  8
0
 10
1.78808
 20
2.45654
 30
0.0
 40
0
 41
0
  0
VERTEX
  8
0
 10
1.77746
 20
2.47592
 30
0.0
 40
0
 41
0
  0
VERTEX
  8
0
 10
1.77746
 20
2.48232
 30
0.0
 40
0
 41
0
  0
VERTEX
  8
0
 10
1.77746
 20
2.48876
 30
0.0
 40
0
 41
0
  0
VERTEX
  8
0
 10
1.78808
 20
2.50814
 30
0.0
 40
0
 41
0
  0
VERTEX
  8
0
 10
1.80746
 20
2.51878
 30
0.0
 40
0
 41
0
  0
VERTEX
  8
0
 10
1.81392
 20
2.51878
 30
0.0
 40
0
 41
0
  0
SEQEND
 8
0
  0
POLYLINE
  8
0
 62
     0
 66
     1
 10
0
 20
0
 30
0.0
 70
     1
 40
0.6
 41
0.6
  0
VERTEX
  8
0
 10
1.81392
 20
2.51878
 30
0.0
 40
0.00833333
 41
0.00833333
  0
VERTEX
  8
0
 10
1.82032
 20
2.51878
 30
0.0
 40
0.00833333
 41
0.00833333
  0
VERTEX
  8
0
 10
1.83968
 20
2.50814
 30
0.0
 40
0.00833333
 41
0.00833333
  0
VERTEX
  8
0
 10
1.85038
 20
2.48876
 30
0.0
 40
0.00833333
 41
0.00833333
  0
VERTEX
  8
0
 10
1.85038
 20
2.48232
 30
0.0
 40
0.00833333
 41
0.00833333
  0
VERTEX
  8
0
 10
1.85038
 20
2.47592
 30
0.0
 40
0.00833333
 41
0.00833333
  0
VERTEX
  8
0
 10
1.83968
 20
2.45654
 30
0.0
 40
0.00833333
 41
0.00833333
  0
VERTEX
  8
0
 10
1.82032
 20
2.44586
 30
0.0
 40
0.00833333
 41
0.00833333
  0
VERTEX
  8
0
 10
1.81392
 20
2.44586
 30
0.0
 40
0.00833333
 41
0.00833333
  0
VERTEX
  8
0
 10
1.80746
 20
2.44586
 30
0.0
 40
0.00833333
 41
0.00833333
  0
VERTEX
  8
0
 10
1.78808
 20
2.45654
 30
0.0
 40
0.00833333
 41
0.00833333
  0
VERTEX
  8
0
 10
1.77746
 20
2.47592
 30
0.0
 40
0.00833333
 41
0.00833333
  0
VERTEX
  8
0
 10
1.77746
 20
2.48232
 30
0.0
 40
0.00833333
 41
0.00833333
  0
VERTEX
  8
0
 10
1.77746
 20
2.48876
 30
0.0
 40
0.00833333
 41
0.00833333
  0
VERTEX
  8
0
 10
1.78808
 20
2.50814
 30
0.0
 40
0.00833333
 41
0.00833333
  0
VERTEX
  8
0
 10
1.80746
 20
2.51878
 30
0.0
 40
0.00833333
 41
0.00833333
  0
VERTEX
  8
0
 10
1.81392
 20
2.51878
 30
0.0
 40
0.00833333
 41
0.00833333
  0
SEQEND
 8
0
  0
POLYLINE
  8
0
 62
     7
 66
     1
 10
0
 20
0
 30
0.0
 70
     1
 40
0
 41
0
  0
VERTEX
  8
0
 10
1.81392
 20
2.50315
 30
0.0
 40
0
 41
0
  0
VERTEX
  8
0
 10
1.81754
 20
2.50315
 30
0.0
 40
0
 41
0
  0
VERTEX
  8
0
 10
1.82861
 20
2.49707
 30
0.0
 40
0
 41
0
  0
VERTEX
  8
0
 10
1.83475
 20
2.486
 30
0.0
 40
0
 41
0
  0
VERTEX
  8
0
 10
1.83475
 20
2.48232
 30
0.0
 40
0
 41
0
  0
VERTEX
  8
0
 10
1.83475
 20
2.47868
 30
0.0
 40
0
 41
0
  0
VERTEX
  8
0
 10
1.82861
 20
2.46761
 30
0.0
 40
0
 41
0
  0
VERTEX
  8
0
 10
1.81754
 20
2.46149
 30
0.0
 40
0
 41
0
  0
VERTEX
  8
0
 10
1.81392
 20
2.46149
 30
0.0
 40
0
 41
0
  0
VERTEX
  8
0
 10
1.81022
 20
2.46149
 30
0.0
 40
0
 41
0
  0
VERTEX
  8
0
 10
1.79915
 20
2.46761
 30
0.0
 40
0
 41
0
  0
VERTEX
  8
0
 10
1.79308
 20
2.47868
 30
0.0
 40
0
 41
0
  0
VERTEX
  8
0
 10
1.79308
 20
2.48232
 30
0.0
 40
0
 41
0
  0
VERTEX
  8
0
 10
1.79308
 20
2.486
 30
0.0
 40
0
 41
0
  0
VERTEX
  8
0
 10
1.79915
 20
2.49707
 30
0.0
 40
0
 41
0
  0
VERTEX
  8
0
 10
1.81022
 20
2.50315
 30
0.0
 40
0
 41
0
  0
VERTEX
  8
0
 10
1.81392
 20
2.50315
 30
0.0
 40
0
 41
0
  0
SEQEND
 8
0
  0
POLYLINE
  8
0
 62
     0
 66
     1
 10
0
 20
0
 30
0.0
 70
     1
 40
0.6
 41
0.6
  0
VERTEX
  8
0
 10
1.81392
 20
2.50315
 30
0.0
 40
0.00833333
 41
0.00833333
  0
VERTEX
  8
0
 10
1.81754
 20
2.50315
 30
0.0
 40
0.00833333
 41
0.00833333
  0
VERTEX
  8
0
 10
1.82861
 20
2.49707
 30
0.0
 40
0.00833333
 41
0.00833333
  0
VERTEX
  8
0
 10
1.83475
 20
2.486
 30
0.0
 40
0.00833333
 41
0.00833333
  0
VERTEX
  8
0
 10
1.83475
 20
2.48232
 30
0.0
 40
0.00833333
 41
0.00833333
  0
VERTEX
  8
0
 10
1.83475
 20
2.47868
 30
0.0
 40
0.00833333
 41
0.00833333
  0
VERTEX
  8
0
 10
1.82861
 20
2.46761
 30
0.0
 40
0.00833333
 41
0.00833333
  0
VERTEX
  8
0
 10
1.81754
 20
2.46149
 30
0.0
 40
0.00833333
 41
0.00833333
  0
VERTEX
  8
0
 10
1.81392
 20
2.46149
 30
0.0
 40
0.00833333
 41
0.00833333
  0
VERTEX
  8
0
 10
1.81022
 20
2.46149
 30
0.0
 40
0.00833333
 41
0.00833333
  0
VERTEX
  8
0
 10
1.79915
 20
2.46761
 30
0.0
 40
0.00833333
 41
0.00833333
  0
VERTEX
  8
0
 10
1.79308
 20
2.47868
 30
0.0
 40
0.00833333
 41
0.00833333
  0
VERTEX
  8
0
 10
1.79308
 20
2.48232
 30
0.0
 40
0.00833333
 41
0.00833333
  0
VERTEX
  8
0
 10
1.79308
 20
2.486
 30
0.0
 40
0.00833333
 41
0.00833333
  0
VERTEX
  8
0
 10
1.79915
 20
2.49707
 30
0.0
 40
0.00833333
 41
0.00833333
  0
VERTEX
  8
0
 10
1.81022
 20
2.50315
 30
0.0
 40
0.00833333
 41
0.00833333
  0
VERTEX
  8
0
 10
1.81392
 20
2.50315
 30
0.0
 40
0.00833333
 41
0.00833333
  0
SEQEND
 8
0
  0
POLYLINE
  8
0
 62
     7
 66
     1
 10
0
 20
0
 30
0.0
 70
     1
 40
0
 41
0
  0
VERTEX
  8
0
 10
1.5306
 20
2.51156
 30
0.0
 40
0
 41
0
  0
VERTEX
  8
0
 10
1.67643
 20
2.51156
 30
0.0
 40
0
 41
0
  0
VERTEX
  8
0
 10
1.67643
 20
2.44906
 30
0.0
 40
0
 41
0
  0
VERTEX
  8
0
 10
1.5306
 20
2.44906
 30
0.0
 40
0
 41
0
  0
VERTEX
  8
0
 10
1.5306
 20
2.51156
 30
0.0
 40
0
 41
0
  0
SEQEND
 8
0
  0
POLYLINE
  8
0
 62
     0
 66
     1
 10
0
 20
0
 30
0.0
 70
     1
 40
0.75
 41
0.75
  0
VERTEX
  8
0
 10
1.5306
 20
2.51156
 30
0.0
 40
0.0104167
 41
0.0104167
  0
VERTEX
  8
0
 10
1.5306
 20
2.44906
 30
0.0
 40
0.0104167
 41
0.0104167
  0
VERTEX
  8
0
 10
1.67643
 20
2.44906
 30
0.0
 40
0.0104167
 41
0.0104167
  0
VERTEX
  8
0
 10
1.67643
 20
2.51156
 30
0.0
 40
0.0104167
 41
0.0104167
  0
VERTEX
  8
0
 10
1.5306
 20
2.51156
 30
0.0
 40
0.0104167
 41
0.0104167
  0
SEQEND
 8
0
  0
POLYLINE
  8
0
 62
     7
 66
     1
 10
0
 20
0
 30
0.0
 70
     1
 40
0
 41
0
  0
VERTEX
  8
0
 10
1.50162
 20
3.65597
 30
0.0
 40
0
 41
0
  0
VERTEX
  8
0
 10
2.08496
 20
3.65597
 30
0.0
 40
0
 41
0
  0
VERTEX
  8
0
 10
2.08496
 20
2.98058
 30
0.0
 40
0
 41
0
  0
VERTEX
  8
0
 10
1.50162
 20
2.98058
 30
0.0
 40
0
 41
0
  0
VERTEX
  8
0
 10
1.50162
 20
3.65597
 30
0.0
 40
0
 41
0
  0
SEQEND
 8
0
  0
POLYLINE
  8
0
 62
     0
 66
     1
 10
0
 20
0
 30
0.0
 70
     1
 40
0.75
 41
0.75
  0
VERTEX
  8
0
 10
1.50162
 20
3.65597
 30
0.0
 40
0.0104167
 41
0.0104167
  0
VERTEX
  8
0
 10
1.50162
 20
2.98058
 30
0.0
 40
0.0104167
 41
0.0104167
  0
VERTEX
  8
0
 10
2.08496
 20
2.98058
 30
0.0
 40
0.0104167
 41
0.0104167
  0
VERTEX
  8
0
 10
2.08496
 20
3.65597
 30
0.0
 40
0.0104167
 41
0.0104167
  0
VERTEX
  8
0
 10
1.50162
 20
3.65597
 30
0.0
 40
0.0104167
 41
0.0104167
  0
SEQEND
 8
0
  0
POLYLINE
  8
0
 62
     7
 66
     1
 10
0
 20
0
 30
0.0
 70
     1
 40
0
 41
0
  0
VERTEX
  8
0
 10
1.64746
 20
3.23514
 30
0.0
 40
0
 41
0
  0
VERTEX
  8
0
 10
1.65554
 20
3.23514
 30
0.0
 40
0
 41
0
  0
VERTEX
  8
0
 10
1.67985
 20
3.22863
 30
0.0
 40
0
 41
0
  0
VERTEX
  8
0
 10
1.70638
 20
3.21072
 30
0.0
 40
0
 41
0
  0
VERTEX
  8
0
 10
1.72424
 20
3.18425
 30
0.0
 40
0
 41
0
  0
VERTEX
  8
0
 10
1.73079
 20
3.15994
 30
0.0
 40
0
 41
0
  0
VERTEX
  8
0
 10
1.73079
 20
3.15181
 30
0.0
 40
0
 41
0
  0
VERTEX
  8
0
 10
1.73079
 20
3.14372
 30
0.0
 40
0
 41
0
  0
VERTEX
  8
0
 10
1.72424
 20
3.11942
 30
0.0
 40
0
 41
0
  0
VERTEX
  8
0
 10
1.70638
 20
3.09289
 30
0.0
 40
0
 41
0
  0
VERTEX
  8
0
 10
1.67985
 20
3.07503
 30
0.0
 40
0
 41
0
  0
VERTEX
  8
0
 10
1.65554
 20
3.06847
 30
0.0
 40
0
 41
0
  0
VERTEX
  8
0
 10
1.64746
 20
3.06847
 30
0.0
 40
0
 41
0
  0
VERTEX
  8
0
 10
1.63932
 20
3.06847
 30
0.0
 40
0
 41
0
  0
VERTEX
  8
0
 10
1.61501
 20
3.07503
 30
0.0
 40
0
 41
0
  0
VERTEX
  8
0
 10
1.58854
 20
3.09289
 30
0.0
 40
0
 41
0
  0
VERTEX
  8
0
 10
1.57064
 20
3.11942
 30
0.0
 40
0
 41
0
  0
VERTEX
  8
0
 10
1.56412
 20
3.14372
 30
0.0
 40
0
 41
0
  0
VERTEX
  8
0
 10
1.56412
 20
3.15181
 30
0.0
 40
0
 41
0
  0
VERTEX
  8
0
 10
1.56412
 20
3.15994
 30
0.0
 40
0
 41
0
  0
VERTEX
  8
0
 10
1.57064
 20
3.18425
 30
0.0
 40
0
 41
0
  0
VERTEX
  8
0
 10
1.58854
 20
3.21072
 30
0.0
 40
0
 41
0
  0
VERTEX
  8
0
 10
1.61501
 20
3.22863
 30
0.0
 40
0
 41
0
  0
VERTEX
  8
0
 10
1.63932
 20
3.23514
 30
0.0
 40
0
 41
0
  0
VERTEX
  8
0
 10
1.64746
 20
3.23514
 30
0.0
 40
0
 41
0
  0
SEQEND
 8
0
  0
POLYLINE
  8
0
 62
     0
 66
     1
 10
0
 20
0
 30
0.0
 70
     1
 40
0.75
 41
0.75
  0
VERTEX
  8
0
 10
1.64746
 20
3.23514
 30
0.0
 40
0.0104167
 41
0.0104167
  0
VERTEX
  8
0
 10
1.65554
 20
3.23514
 30
0.0
 40
0.0104167
 41
0.0104167
  0
VERTEX
  8
0
 10
1.67985
 20
3.22863
 30
0.0
 40
0.0104167
 41
0.0104167
  0
VERTEX
  8
0
 10
1.70638
 20
3.21072
 30
0.0
 40
0.0104167
 41
0.0104167
  0
VERTEX
  8
0
 10
1.72424
 20
3.18425
 30
0.0
 40
0.0104167
 41
0.0104167
  0
VERTEX
  8
0
 10
1.73079
 20
3.15994
 30
0.0
 40
0.0104167
 41
0.0104167
  0
VERTEX
  8
0
 10
1.73079
 20
3.15181
 30
0.0
 40
0.0104167
 41
0.0104167
  0
VERTEX
  8
0
 10
1.73079
 20
3.14372
 30
0.0
 40
0.0104167
 41
0.0104167
  0
VERTEX
  8
0
 10
1.72424
 20
3.11942
 30
0.0
 40
0.0104167
 41
0.0104167
  0
VERTEX
  8
0
 10
1.70638
 20
3.09289
 30
0.0
 40
0.0104167
 41
0.0104167
  0
VERTEX
  8
0
 10
1.67985
 20
3.07503
 30
0.0
 40
0.0104167
 41
0.0104167
  0
VERTEX
  8
0
 10
1.65554
 20
3.06847
 30
0.0
 40
0.0104167
 41
0.0104167
  0
VERTEX
  8
0
 10
1.64746
 20
3.06847
 30
0.0
 40
0.0104167
 41
0.0104167
  0
VERTEX
  8
0
 10
1.63932
 20
3.06847
 30
0.0
 40
0.0104167
 41
0.0104167
  0
VERTEX
  8
0
 10
1.61501
 20
3.07503
 30
0.0
 40
0.0104167
 41
0.0104167
  0
VERTEX
  8
0
 10
1.58854
 20
3.09289
 30
0.0
 40
0.0104167
 41
0.0104167
  0
VERTEX
  8
0
 10
1.57064
 20
3.11942
 30
0.0
 40
0.0104167
 41
0.0104167
  0
VERTEX
  8
0
 10
1.56412
 20
3.14372
 30
0.0
 40
0.0104167
 41
0.0104167
  0
VERTEX
  8
0
 10
1.56412
 20
3.15181
 30
0.0
 40
0.0104167
 41
0.0104167
  0
VERTEX
  8
0
 10
1.56412
 20
3.15994
 30
0.0
 40
0.0104167
 41
0.0104167
  0
VERTEX
  8
0
 10
1.57064
 20
3.18425
 30
0.0
 40
0.0104167
 41
0.0104167
  0
VERTEX
  8
0
 10
1.58854
 20
3.21072
 30
0.0
 40
0.0104167
 41
0.0104167
  0
VERTEX
  8
0
 10
1.61501
 20
3.22863
 30
0.0
 40
0.0104167
 41
0.0104167
  0
VERTEX
  8
0
 10
1.63932
 20
3.23514
 30
0.0
 40
0.0104167
 41
0.0104167
  0
VERTEX
  8
0
 10
1.64746
 20
3.23514
 30
0.0
 40
0.0104167
 41
0.0104167
  0
SEQEND
 8
0
  0
POLYLINE
  8
0
 62
     7
 66
     1
 10
0
 20
0
 30
0.0
 70
     1
 40
0
 41
0
  0
VERTEX
  8
0
 10
1.64746
 20
3.57129
 30
0.0
 40
0
 41
0
  0
VERTEX
  8
0
 10
1.65554
 20
3.57129
 30
0.0
 40
0
 41
0
  0
VERTEX
  8
0
 10
1.67985
 20
3.56478
 30
0.0
 40
0
 41
0
  0
VERTEX
  8
0
 10
1.70638
 20
3.54688
 30
0.0
 40
0
 41
0
  0
VERTEX
  8
0
 10
1.72424
 20
3.5204
 30
0.0
 40
0
 41
0
  0
VERTEX
  8
0
 10
1.73079
 20
3.4961
 30
0.0
 40
0
 41
0
  0
VERTEX
  8
0
 10
1.73079
 20
3.48796
 30
0.0
 40
0
 41
0
  0
VERTEX
  8
0
 10
1.73079
 20
3.47987
 30
0.0
 40
0
 41
0
  0
VERTEX
  8
0
 10
1.72424
 20
3.45551
 30
0.0
 40
0
 41
0
  0
VERTEX
  8
0
 10
1.70638
 20
3.42904
 30
0.0
 40
0
 41
0
  0
VERTEX
  8
0
 10
1.67985
 20
3.41118
 30
0.0
 40
0
 41
0
  0
VERTEX
  8
0
 10
1.65554
 20
3.40462
 30
0.0
 40
0
 41
0
  0
VERTEX
  8
0
 10
1.64746
 20
3.40462
 30
0.0
 40
0
 41
0
  0
VERTEX
  8
0
 10
1.63932
 20
3.40462
 30
0.0
 40
0
 41
0
  0
VERTEX
  8
0
 10
1.61501
 20
3.41118
 30
0.0
 40
0
 41
0
  0
VERTEX
  8
0
 10
1.58854
 20
3.42904
 30
0.0
 40
0
 41
0
  0
VERTEX
  8
0
 10
1.57064
 20
3.45551
 30
0.0
 40
0
 41
0
  0
VERTEX
  8
0
 10
1.56412
 20
3.47987
 30
0.0
 40
0
 41
0
  0
VERTEX
  8
0
 10
1.56412
 20
3.48796
 30
0.0
 40
0
 41
0
  0
VERTEX
  8
0
 10
1.56412
 20
3.4961
 30
0.0
 40
0
 41
0
  0
VERTEX
  8
0
 10
1.57064
 20
3.5204
 30
0.0
 40
0
 41
0
  0
VERTEX
  8
0
 10
1.58854
 20
3.54688
 30
0.0
 40
0
 41
0
  0
VERTEX
  8
0
 10
1.61501
 20
3.56478
 30
0.0
 40
0
 41
0
  0
VERTEX
  8
0
 10
1.63932
 20
3.57129
 30
0.0
 40
0
 41
0
  0
VERTEX
  8
0
 10
1.64746
 20
3.57129
 30
0.0
 40
0
 41
0
  0
SEQEND
 8
0
  0
POLYLINE
  8
0
 62
     0
 66
     1
 10
0
 20
0
 30
0.0
 70
     1
 40
0.75
 41
0.75
  0
VERTEX
  8
0
 10
1.64746
 20
3.57129
 30
0.0
 40
0.0104167
 41
0.0104167
  0
VERTEX
  8
0
 10
1.65554
 20
3.57129
 30
0.0
 40
0.0104167
 41
0.0104167
  0
VERTEX
  8
0
 10
1.67985
 20
3.56478
 30
0.0
 40
0.0104167
 41
0.0104167
  0
VERTEX
  8
0
 10
1.70638
 20
3.54688
 30
0.0
 40
0.0104167
 41
0.0104167
  0
VERTEX
  8
0
 10
1.72424
 20
3.5204
 30
0.0
 40
0.0104167
 41
0.0104167
  0
VERTEX
  8
0
 10
1.73079
 20
3.4961
 30
0.0
 40
0.0104167
 41
0.0104167
  0
VERTEX
  8
0
 10
1.73079
 20
3.48796
 30
0.0
 40
0.0104167
 41
0.0104167
  0
VERTEX
  8
0
 10
1.73079
 20
3.47987
 30
0.0
 40
0.0104167
 41
0.0104167
  0
VERTEX
  8
0
 10
1.72424
 20
3.45551
 30
0.0
 40
0.0104167
 41
0.0104167
  0
VERTEX
  8
0
 10
1.70638
 20
3.42904
 30
0.0
 40
0.0104167
 41
0.0104167
  0
VERTEX
  8
0
 10
1.67985
 20
3.41118
 30
0.0
 40
0.0104167
 41
0.0104167
  0
VERTEX
  8
0
 10
1.65554
 20
3.40462
 30
0.0
 40
0.0104167
 41
0.0104167
  0
VERTEX
  8
0
 10
1.64746
 20
3.40462
 30
0.0
 40
0.0104167
 41
0.0104167
  0
VERTEX
  8
0
 10
1.63932
 20
3.40462
 30
0.0
 40
0.0104167
 41
0.0104167
  0
VERTEX
  8
0
 10
1.61501
 20
3.41118
 30
0.0
 40
0.0104167
 41
0.0104167
  0
VERTEX
  8
0
 10
1.58854
 20
3.42904
 30
0.0
 40
0.0104167
 41
0.0104167
  0
VERTEX
  8
0
 10
1.57064
 20
3.45551
 30
0.0
 40
0.0104167
 41
0.0104167
  0
VERTEX
  8
0
 10
1.56412
 20
3.47987
 30
0.0
 40
0.0104167
 41
0.0104167
  0
VERTEX
  8
0
 10
1.56412
 20
3.48796
 30
0.0
 40
0.0104167
 41
0.0104167
  0
VERTEX
  8
0
 10
1.56412
 20
3.4961
 30
0.0
 40
0.0104167
 41
0.0104167
  0
VERTEX
  8
0
 10
1.57064
 20
3.5204
 30
0.0
 40
0.0104167
 41
0.0104167
  0
VERTEX
  8
0
 10
1.58854
 20
3.54688
 30
0.0
 40
0.0104167
 41
0.0104167
  0
VERTEX
  8
0
 10
1.61501
 20
3.56478
 30
0.0
 40
0.0104167
 41
0.0104167
  0
VERTEX
  8
0
 10
1.63932
 20
3.57129
 30
0.0
 40
0.0104167
 41
0.0104167
  0
VERTEX
  8
0
 10
1.64746
 20
3.57129
 30
0.0
 40
0.0104167
 41
0.0104167
  0
SEQEND
 8
0
  0
POLYLINE
  8
0
 62
     7
 66
     1
 10
0
 20
0
 30
0.0
 70
     1
 40
0
 41
0
  0
VERTEX
  8
0
 10
1.93913
 20
3.23514
 30
0.0
 40
0
 41
0
  0
VERTEX
  8
0
 10
1.94721
 20
3.23514
 30
0.0
 40
0
 41
0
  0
VERTEX
  8
0
 10
1.97151
 20
3.22863
 30
0.0
 40
0
 41
0
  0
VERTEX
  8
0
 10
1.99804
 20
3.21072
 30
0.0
 40
0
 41
0
  0
VERTEX
  8
0
 10
2.0159
 20
3.18425
 30
0.0
 40
0
 41
0
  0
VERTEX
  8
0
 10
2.02246
 20
3.15994
 30
0.0
 40
0
 41
0
  0
VERTEX
  8
0
 10
2.02246
 20
3.15181
 30
0.0
 40
0
 41
0
  0
VERTEX
  8
0
 10
2.02246
 20
3.14372
 30
0.0
 40
0
 41
0
  0
VERTEX
  8
0
 10
2.0159
 20
3.11942
 30
0.0
 40
0
 41
0
  0
VERTEX
  8
0
 10
1.99804
 20
3.09289
 30
0.0
 40
0
 41
0
  0
VERTEX
  8
0
 10
1.97151
 20
3.07503
 30
0.0
 40
0
 41
0
  0
VERTEX
  8
0
 10
1.94721
 20
3.06847
 30
0.0
 40
0
 41
0
  0
VERTEX
  8
0
 10
1.93913
 20
3.06847
 30
0.0
 40
0
 41
0
  0
VERTEX
  8
0
 10
1.93099
 20
3.06847
 30
0.0
 40
0
 41
0
  0
VERTEX
  8
0
 10
1.90668
 20
3.07503
 30
0.0
 40
0
 41
0
  0
VERTEX
  8
0
 10
1.88021
 20
3.09289
 30
0.0
 40
0
 41
0
  0
VERTEX
  8
0
 10
1.86231
 20
3.11942
 30
0.0
 40
0
 41
0
  0
VERTEX
  8
0
 10
1.85579
 20
3.14372
 30
0.0
 40
0
 41
0
  0
VERTEX
  8
0
 10
1.85579
 20
3.15181
 30
0.0
 40
0
 41
0
  0
VERTEX
  8
0
 10
1.85579
 20
3.15994
 30
0.0
 40
0
 41
0
  0
VERTEX
  8
0
 10
1.86231
 20
3.18425
 30
0.0
 40
0
 41
0
  0
VERTEX
  8
0
 10
1.88021
 20
3.21072
 30
0.0
 40
0
 41
0
  0
VERTEX
  8
0
 10
1.90668
 20
3.22863
 30
0.0
 40
0
 41
0
  0
VERTEX
  8
0
 10
1.93099
 20
3.23514
 30
0.0
 40
0
 41
0
  0
VERTEX
  8
0
 10
1.93913
 20
3.23514
 30
0.0
 40
0
 41
0
  0
SEQEND
 8
0
  0
POLYLINE
  8
0
 62
     0
 66
     1
 10
0
 20
0
 30
0.0
 70
     1
 40
0.75
 41
0.75
  0
VERTEX
  8
0
 10
1.93913
 20
3.23514
 30
0.0
 40
0.0104167
 41
0.0104167
  0
VERTEX
  8
0
 10
1.94721
 20
3.23514
 30
0.0
 40
0.0104167
 41
0.0104167
  0
VERTEX
  8
0
 10
1.97151
 20
3.22863
 30
0.0
 40
0.0104167
 41
0.0104167
  0
VERTEX
  8
0
 10
1.99804
 20
3.21072
 30
0.0
 40
0.0104167
 41
0.0104167
  0
VERTEX
  8
0
 10
2.0159
 20
3.18425
 30
0.0
 40
0.0104167
 41
0.0104167
  0
VERTEX
  8
0
 10
2.02246
 20
3.15994
 30
0.0
 40
0.0104167
 41
0.0104167
  0
VERTEX
  8
0
 10
2.02246
 20
3.15181
 30
0.0
 40
0.0104167
 41
0.0104167
  0
VERTEX
  8
0
 10
2.02246
 20
3.14372
 30
0.0
 40
0.0104167
 41
0.0104167
  0
VERTEX
  8
0
 10
2.0159
 20
3.11942
 30
0.0
 40
0.0104167
 41
0.0104167
  0
VERTEX
  8
0
 10
1.99804
 20
3.09289
 30
0.0
 40
0.0104167
 41
0.0104167
  0
VERTEX
  8
0
 10
1.97151
 20
3.07503
 30
0.0
 40
0.0104167
 41
0.0104167
  0
VERTEX
  8
0
 10
1.94721
 20
3.06847
 30
0.0
 40
0.0104167
 41
0.0104167
  0
VERTEX
  8
0
 10
1.93913
 20
3.06847
 30
0.0
 40
0.0104167
 41
0.0104167
  0
VERTEX
  8
0
 10
1.93099
 20
3.06847
 30
0.0
 40
0.0104167
 41
0.0104167
  0
VERTEX
  8
0
 10
1.90668
 20
3.07503
 30
0.0
 40
0.0104167
 41
0.0104167
  0
VERTEX
  8
0
 10
1.88021
 20
3.09289
 30
0.0
 40
0.0104167
 41
0.0104167
  0
VERTEX
  8
0
 10
1.86231
 20
3.11942
 30
0.0
 40
0.0104167
 41
0.0104167
  0
VERTEX
  8
0
 10
1.85579
 20
3.14372
 30
0.0
 40
0.0104167
 41
0.0104167
  0
VERTEX
  8
0
 10
1.85579
 20
3.15181
 30
0.0
 40
0.0104167
 41
0.0104167
  0
VERTEX
  8
0
 10
1.85579
 20
3.15994
 30
0.0
 40
0.0104167
 41
0.0104167
  0
VERTEX
  8
0
 10
1.86231
 20
3.18425
 30
0.0
 40
0.0104167
 41
0.0104167
  0
VERTEX
  8
0
 10
1.88021
 20
3.21072
 30
0.0
 40
0.0104167
 41
0.0104167
  0
VERTEX
  8
0
 10
1.90668
 20
3.22863
 30
0.0
 40
0.0104167
 41
0.0104167
  0
VERTEX
  8
0
 10
1.93099
 20
3.23514
 30
0.0
 40
0.0104167
 41
0.0104167
  0
VERTEX
  8
0
 10
1.93913
 20
3.23514
 30
0.0
 40
0.0104167
 41
0.0104167
  0
SEQEND
 8
0
  0
POLYLINE
  8
0
 62
     7
 66
     1
 10
0
 20
0
 30
0.0
 70
     1
 40
0
 41
0
  0
VERTEX
  8
0
 10
1.93913
 20
3.57129
 30
0.0
 40
0
 41
0
  0
VERTEX
  8
0
 10
1.94721
 20
3.57129
 30
0.0
 40
0
 41
0
  0
VERTEX
  8
0
 10
1.97151
 20
3.56478
 30
0.0
 40
0
 41
0
  0
VERTEX
  8
0
 10
1.99804
 20
3.54688
 30
0.0
 40
0
 41
0
  0
VERTEX
  8
0
 10
2.0159
 20
3.5204
 30
0.0
 40
0
 41
0
  0
VERTEX
  8
0
 10
2.02246
 20
3.4961
 30
0.0
 40
0
 41
0
  0
VERTEX
  8
0
 10
2.02246
 20
3.48796
 30
0.0
 40
0
 41
0
  0
VERTEX
  8
0
 10
2.02246
 20
3.47987
 30
0.0
 40
0
 41
0
  0
VERTEX
  8
0
 10
2.0159
 20
3.45551
 30
0.0
 40
0
 41
0
  0
VERTEX
  8
0
 10
1.99804
 20
3.42904
 30
0.0
 40
0
 41
0
  0
VERTEX
  8
0
 10
1.97151
 20
3.41118
 30
0.0
 40
0
 41
0
  0
VERTEX
  8
0
 10
1.94721
 20
3.40462
 30
0.0
 40
0
 41
0
  0
VERTEX
  8
0
 10
1.93913
 20
3.40462
 30
0.0
 40
0
 41
0
  0
VERTEX
  8
0
 10
1.93099
 20
3.40462
 30
0.0
 40
0
 41
0
  0
VERTEX
  8
0
 10
1.90668
 20
3.41118
 30
0.0
 40
0
 41
0
  0
VERTEX
  8
0
 10
1.88021
 20
3.42904
 30
0.0
 40
0
 41
0
  0
VERTEX
  8
0
 10
1.86231
 20
3.45551
 30
0.0
 40
0
 41
0
  0
VERTEX
  8
0
 10
1.85579
 20
3.47987
 30
0.0
 40
0
 41
0
  0
VERTEX
  8
0
 10
1.85579
 20
3.48796
 30
0.0
 40
0
 41
0
  0
VERTEX
  8
0
 10
1.85579
 20
3.4961
 30
0.0
 40
0
 41
0
  0
VERTEX
  8
0
 10
1.86231
 20
3.5204
 30
0.0
 40
0
 41
0
  0
VERTEX
  8
0
 10
1.88021
 20
3.54688
 30
0.0
 40
0
 41
0
  0
VERTEX
  8
0
 10
1.90668
 20
3.56478
 30
0.0
 40
0
 41
0
  0
VERTEX
  8
0
 10
1.93099
 20
3.57129
 30
0.0
 40
0
 41
0
  0
VERTEX
  8
0
 10
1.93913
 20
3.57129
 30
0.0
 40
0
 41
0
  0
SEQEND
 8
0
  0
POLYLINE
  8
0
 62
     0
 66
     1
 10
0
 20
0
 30
0.0
 70
     1
 40
0.75
 41
0.75
  0
VERTEX
  8
0
 10
1.93913
 20
3.57129
 30
0.0
 40
0.0104167
 41
0.0104167
  0
VERTEX
  8
0
 10
1.94721
 20
3.57129
 30
0.0
 40
0.0104167
 41
0.0104167
  0
VERTEX
  8
0
 10
1.97151
 20
3.56478
 30
0.0
 40
0.0104167
 41
0.0104167
  0
VERTEX
  8
0
 10
1.99804
 20
3.54688
 30
0.0
 40
0.0104167
 41
0.0104167
  0
VERTEX
  8
0
 10
2.0159
 20
3.5204
 30
0.0
 40
0.0104167
 41
0.0104167
  0
VERTEX
  8
0
 10
2.02246
 20
3.4961
 30
0.0
 40
0.0104167
 41
0.0104167
  0
VERTEX
  8
0
 10
2.02246
 20
3.48796
 30
0.0
 40
0.0104167
 41
0.0104167
  0
VERTEX
  8
0
 10
2.02246
 20
3.47987
 30
0.0
 40
0.0104167
 41
0.0104167
  0
VERTEX
  8
0
 10
2.0159
 20
3.45551
 30
0.0
 40
0.0104167
 41
0.0104167
  0
VERTEX
  8
0
 10
1.99804
 20
3.42904
 30
0.0
 40
0.0104167
 41
0.0104167
  0
VERTEX
  8
0
 10
1.97151
 20
3.41118
 30
0.0
 40
0.0104167
 41
0.0104167
  0
VERTEX
  8
0
 10
1.94721
 20
3.40462
 30
0.0
 40
0.0104167
 41
0.0104167
  0
VERTEX
  8
0
 10
1.93913
 20
3.40462
 30
0.0
 40
0.0104167
 41
0.0104167
  0
VERTEX
  8
0
 10
1.93099
 20
3.40462
 30
0.0
 40
0.0104167
 41
0.0104167
  0
VERTEX
  8
0
 10
1.90668
 20
3.41118
 30
0.0
 40
0.0104167
 41
0.0104167
  0
VERTEX
  8
0
 10
1.88021
 20
3.42904
 30
0.0
 40
0.0104167
 41
0.0104167
  0
VERTEX
  8
0
 10
1.86231
 20
3.45551
 30
0.0
 40
0.0104167
 41
0.0104167
  0
VERTEX
  8
0
 10
1.85579
 20
3.47987
 30
0.0
 40
0.0104167
 41
0.0104167
  0
VERTEX
  8
0
 10
1.85579
 20
3.48796
 30
0.0
 40
0.0104167
 41
0.0104167
  0
VERTEX
  8
0
 10
1.85579
 20
3.4961
 30
0.0
 40
0.0104167
 41
0.0104167
  0
VERTEX
  8
0
 10
1.86231
 20
3.5204
 30
0.0
 40
0.0104167
 41
0.0104167
  0
VERTEX
  8
0
 10
1.88021
 20
3.54688
 30
0.0
 40
0.0104167
 41
0.0104167
  0
VERTEX
  8
0
 10
1.90668
 20
3.56478
 30
0.0
 40
0.0104167
 41
0.0104167
  0
VERTEX
  8
0
 10
1.93099
 20
3.57129
 30
0.0
 40
0.0104167
 41
0.0104167
  0
VERTEX
  8
0
 10
1.93913
 20
3.57129
 30
0.0
 40
0.0104167
 41
0.0104167
  0
SEQEND
 8
0
  0
POLYLINE
  8
0
 62
     0
 66
     1
 10
0
 20
0
 30
0.0
 70
     1
 40
0.75
 41
0.75
  0
VERTEX
  8
0
 10
1.48079
 20
3.96994
 30
0.0
 40
0.0104167
 41
0.0104167
  0
VERTEX
  8
0
 10
1.48079
 20
2.044
 30
0.0
 40
0.0104167
 41
0.0104167
  0
VERTEX
  8
0
 10
1.83925
 20
2.044
 30
0.0
 40
0.0104167
 41
0.0104167
  0
VERTEX
  8
0
 10
1.83925
 20
3.96994
 30
0.0
 40
0.0104167
 41
0.0104167
  0
VERTEX
  8
0
 10
1.48079
 20
3.96994
 30
0.0
 40
0.0104167
 41
0.0104167
  0
SEQEND
 8
0
  0
POLYLINE
  8
0
 62
     7
 66
     1
 10
0
 20
0
 30
0.0
 70
     1
 40
0
 41
0
  0
VERTEX
  8
0
 10
3.5
 20
2.26557
 30
0.0
 40
0
 41
0
  0
VERTEX
  8
0
 10
4.14865
 20
2.26557
 30
0.0
 40
0
 41
0
  0
VERTEX
  8
0
 10
4.14865
 20
1.26047
 30
0.0
 40
0
 41
0
  0
VERTEX
  8
0
 10
3.5
 20
1.26047
 30
0.0
 40
0
 41
0
  0
VERTEX
  8
0
 10
3.5
 20
2.26557
 30
0.0
 40
0
 41
0
  0
SEQEND
 8
0
  0
POLYLINE
  8
0
 62
     0
 66
     1
 10
0
 20
0
 30
0.0
 70
     1
 40
0.75
 41
0.75
  0
VERTEX
  8
0
 10
3.5
 20
2.26557
 30
0.0
 40
0.0104167
 41
0.0104167
  0
VERTEX
  8
0
 10
3.5
 20
1.26047
 30
0.0
 40
0.0104167
 41
0.0104167
  0
VERTEX
  8
0
 10
4.14865
 20
1.26047
 30
0.0
 40
0.0104167
 41
0.0104167
  0
VERTEX
  8
0
 10
4.14865
 20
2.26557
 30
0.0
 40
0.0104167
 41
0.0104167
  0
VERTEX
  8
0
 10
3.5
 20
2.26557
 30
0.0
 40
0.0104167
 41
0.0104167
  0
SEQEND
 8
0
  0
POLYLINE
  8
0
 62
     253
 66
     1
 10
0
 20
0
 30
0.0
 40
0.75
 41
0.75
  0
VERTEX
  8
0
 10
3.82433
 20
2.26557
 30
0.0
 40
0.0104167
 41
0.0104167
  0
VERTEX
  8
0
 10
3.82433
 20
1.26042
 30
0.0
 40
0.0104167
 41
0.0104167
  0
SEQEND
 8
0
  0
POLYLINE
  8
0
 62
     0
 66
     1
 10
0
 20
0
 30
0.0
 70
     1
 40
0
 41
0
  0
VERTEX
  8
0
 10
6.01107
 20
3.32383
 30
0.0
 40
0
 41
0
  0
VERTEX
  8
0
 10
6.01107
 20
2.90967
 30
0.0
 40
0
 41
0
  0
VERTEX
  8
0
 10
6.13607
 20
3.37592
 30
0.0
 40
0
 41
0
  0
VERTEX
  8
0
 10
6.13607
 20
3.32383
 30
0.0
 40
0
 41
0
  0
VERTEX
  8
0
 10
6.01107
 20
3.32383
 30
0.0
 40
0
 41
0
  0
SEQEND
 8
0
  0
POLYLINE
  8
0
 62
     0
 66
     1
 10
0
 20
0
 30
0.0
 70
     1
 40
0.15
 41
0.15
  0
VERTEX
  8
0
 10
6.01107
 20
3.32383
 30
0.0
 40
0.00208333
 41
0.00208333
  0
VERTEX
  8
0
 10
6.01107
 20
2.90967
 30
0.0
 40
0.00208333
 41
0.00208333
  0
VERTEX
  8
0
 10
6.13607
 20
3.37592
 30
0.0
 40
0.00208333
 41
0.00208333
  0
VERTEX
  8
0
 10
6.13607
 20
3.32383
 30
0.0
 40
0.00208333
 41
0.00208333
  0
VERTEX
  8
0
 10
6.01107
 20
3.32383
 30
0.0
 40
0.00208333
 41
0.00208333
  0
SEQEND
 8
0
  0
POLYLINE
  8
0
 62
     0
 66
     1
 10
0
 20
0
 30
0.0
 70
     1
 40
0
 41
0
  0
VERTEX
  8
0
 10
6.01107
 20
2.90967
 30
0.0
 40
0
 41
0
  0
VERTEX
  8
0
 10
6.81239
 20
2.90967
 30
0.0
 40
0
 41
0
  0
VERTEX
  8
0
 10
6.81239
 20
3.37592
 30
0.0
 40
0
 41
0
  0
VERTEX
  8
0
 10
6.13607
 20
3.37592
 30
0.0
 40
0
 41
0
  0
VERTEX
  8
0
 10
6.01107
 20
2.90967
 30
0.0
 40
0
 41
0
  0
SEQEND
 8
0
  0
POLYLINE
  8
0
 62
     0
 66
     1
 10
0
 20
0
 30
0.0
 70
     1
 40
0.15
 41
0.15
  0
VERTEX
  8
0
 10
6.01107
 20
2.90967
 30
0.0
 40
0.00208333
 41
0.00208333
  0
VERTEX
  8
0
 10
6.81239
 20
2.90967
 30
0.0
 40
0.00208333
 41
0.00208333
  0
VERTEX
  8
0
 10
6.81239
 20
3.37592
 30
0.0
 40
0.00208333
 41
0.00208333
  0
VERTEX
  8
0
 10
6.13607
 20
3.37592
 30
0.0
 40
0.00208333
 41
0.00208333
  0
VERTEX
  8
0
 10
6.01107
 20
2.90967
 30
0.0
 40
0.00208333
 41
0.00208333
  0
SEQEND
 8
0
  0
POLYLINE
  8
0
 62
     7
 66
     1
 10
0
 20
0
 30
0.0
 70
     1
 40
0
 41
0
  0
VERTEX
  8
0
 10
6.6199
 20
2.73172
 30
0.0
 40
0
 41
0
  0
VERTEX
  8
0
 10
6.80718
 20
2.73172
 30
0.0
 40
0
 41
0
  0
VERTEX
  8
0
 10
6.80718
 20
2.31515
 30
0.0
 40
0
 41
0
  0
VERTEX
  8
0
 10
6.6199
 20
2.31515
 30
0.0
 40
0
 41
0
  0
VERTEX
  8
0
 10
6.6199
 20
2.73172
 30
0.0
 40
0
 41
0
  0
SEQEND
 8
0
  0
POLYLINE
  8
0
 62
     0
 66
     1
 10
0
 20
0
 30
0.0
 70
     1
 40
0.75
 41
0.75
  0
VERTEX
  8
0
 10
6.6199
 20
2.73172
 30
0.0
 40
0.0104167
 41
0.0104167
  0
VERTEX
  8
0
 10
6.6199
 20
2.31515
 30
0.0
 40
0.0104167
 41
0.0104167
  0
VERTEX
  8
0
 10
6.80718
 20
2.31515
 30
0.0
 40
0.0104167
 41
0.0104167
  0
VERTEX
  8
0
 10
6.80718
 20
2.73172
 30
0.0
 40
0.0104167
 41
0.0104167
  0
VERTEX
  8
0
 10
6.6199
 20
2.73172
 30
0.0
 40
0.0104167
 41
0.0104167
  0
SEQEND
 8
0
  0
POLYLINE
  8
0
 62
     7
 66
     1
 10
0
 20
0
 30
0.0
 70
     1
 40
0
 41
0
  0
VERTEX
  8
0
 10
6.35161
 20
2.31515
 30
0.0
 40
0
 41
0
  0
VERTEX
  8
0
 10
6.35161
 20
2.31515
 30
0.0
 40
0
 41
0
  0
VERTEX
  8
0
 10
6.33985
 20
2.31511
 30
0.0
 40
0
 41
0
  0
VERTEX
  8
0
 10
6.30886
 20
2.31674
 30
0.0
 40
0
 41
0
  0
VERTEX
  8
0
 10
6.26503
 20
2.32286
 30
0.0
 40
0
 41
0
  0
VERTEX
  8
0
 10
6.21479
 20
2.33626
 30
0.0
 40
0
 41
0
  0
VERTEX
  8
0
 10
6.16456
 20
2.35986
 30
0.0
 40
0
 41
0
  0
VERTEX
  8
0
 10
6.12071
 20
2.39632
 30
0.0
 40
0
 41
0
  0
VERTEX
  8
0
 10
6.08974
 20
2.44846
 30
0.0
 40
0
 41
0
  0
VERTEX
  8
0
 10
6.07801
 20
2.50151
 30
0.0
 40
0
 41
0
  0
VERTEX
  8
0
 10
6.07801
 20
2.51915
 30
0.0
 40
0
 41
0
  0
VERTEX
  8
0
 10
6.07801
 20
2.53749
 30
0.0
 40
0
 41
0
  0
VERTEX
  8
0
 10
6.08974
 20
2.59233
 30
0.0
 40
0
 41
0
  0
VERTEX
  8
0
 10
6.12071
 20
2.64643
 30
0.0
 40
0
 41
0
  0
VERTEX
  8
0
 10
6.16456
 20
2.68425
 30
0.0
 40
0
 41
0
  0
VERTEX
  8
0
 10
6.21479
 20
2.70865
 30
0.0
 40
0
 41
0
  0
VERTEX
  8
0
 10
6.26503
 20
2.72265
 30
0.0
 40
0
 41
0
  0
VERTEX
  8
0
 10
6.30886
 20
2.72906
 30
0.0
 40
0
 41
0
  0
VERTEX
  8
0
 10
6.33985
 20
2.73079
 30
0.0
 40
0
 41
0
  0
VERTEX
  8
0
 10
6.35161
 20
2.73068
 30
0.0
 40
0
 41
0
  0
VERTEX
  8
0
 10
6.35161
 20
2.73068
 30
0.0
 40
0
 41
0
  0
VERTEX
  8
0
 10
6.6199
 20
2.73178
 30
0.0
 40
0
 41
0
  0
VERTEX
  8
0
 10
6.6199
 20
2.31515
 30
0.0
 40
0
 41
0
  0
VERTEX
  8
0
 10
6.35161
 20
2.31515
 30
0.0
 40
0
 41
0
  0
SEQEND
 8
0
  0
POLYLINE
  8
0
 62
     0
 66
     1
 10
0
 20
0
 30
0.0
 70
     1
 40
0.75
 41
0.75
  0
VERTEX
  8
0
 10
6.35161
 20
2.31515
 30
0.0
 40
0.0104167
 41
0.0104167
  0
VERTEX
  8
0
 10
6.35161
 20
2.31515
 30
0.0
 40
0.0104167
 41
0.0104167
  0
VERTEX
  8
0
 10
6.33985
 20
2.31511
 30
0.0
 40
0.0104167
 41
0.0104167
  0
VERTEX
  8
0
 10
6.30886
 20
2.31674
 30
0.0
 40
0.0104167
 41
0.0104167
  0
VERTEX
  8
0
 10
6.26503
 20
2.32286
 30
0.0
 40
0.0104167
 41
0.0104167
  0
VERTEX
  8
0
 10
6.21479
 20
2.33626
 30
0.0
 40
0.0104167
 41
0.0104167
  0
VERTEX
  8
0
 10
6.16456
 20
2.35986
 30
0.0
 40
0.0104167
 41
0.0104167
  0
VERTEX
  8
0
 10
6.12071
 20
2.39632
 30
0.0
 40
0.0104167
 41
0.0104167
  0
VERTEX
  8
0
 10
6.08974
 20
2.44846
 30
0.0
 40
0.0104167
 41
0.0104167
  0
VERTEX
  8
0
 10
6.07801
 20
2.50151
 30
0.0
 40
0.0104167
 41
0.0104167
  0
VERTEX
  8
0
 10
6.07801
 20
2.51915
 30
0.0
 40
0.0104167
 41
0.0104167
  0
VERTEX
  8
0
 10
6.07801
 20
2.53749
 30
0.0
 40
0.0104167
 41
0.0104167
  0
VERTEX
  8
0
 10
6.08974
 20
2.59233
 30
0.0
 40
0.0104167
 41
0.0104167
  0
VERTEX
  8
0
 10
6.12071
 20
2.64643
 30
0.0
 40
0.0104167
 41
0.0104167
  0
VERTEX
  8
0
 10
6.16456
 20
2.68425
 30
0.0
 40
0.0104167
 41
0.0104167
  0
VERTEX
  8
0
 10
6.21479
 20
2.70865
 30
0.0
 40
0.0104167
 41
0.0104167
  0
VERTEX
  8
0
 10
6.26503
 20
2.72265
 30
0.0
 40
0.0104167
 41
0.0104167
  0
VERTEX
  8
0
 10
6.30886
 20
2.72906
 30
0.0
 40
0.0104167
 41
0.0104167
  0
VERTEX
  8
0
 10
6.33985
 20
2.73079
 30
0.0
 40
0.0104167
 41
0.0104167
  0
VERTEX
  8
0
 10
6.35161
 20
2.73068
 30
0.0
 40
0.0104167
 41
0.0104167
  0
VERTEX
  8
0
 10
6.35161
 20
2.73068
 30
0.0
 40
0.0104167
 41
0.0104167
  0
VERTEX
  8
0
 10
6.6199
 20
2.73178
 30
0.0
 40
0.0104167
 41
0.0104167
  0
VERTEX
  8
0
 10
6.6199
 20
2.31515
 30
0.0
 40
0.0104167
 41
0.0104167
  0
VERTEX
  8
0
 10
6.35161
 20
2.31515
 30
0.0
 40
0.0104167
 41
0.0104167
  0
SEQEND
 8
0
  0
POLYLINE
  8
0
 62
     7
 66
     1
 10
0
 20
0
 30
0.0
 70
     1
 40
0
 41
0
  0
VERTEX
  8
0
 10
6.69775
 20
2.55658
 30
0.0
 40
0
 41
0
  0
VERTEX
  8
0
 10
6.72933
 20
2.55658
 30
0.0
 40
0
 41
0
  0
VERTEX
  8
0
 10
6.72933
 20
2.49035
 30
0.0
 40
0
 41
0
  0
VERTEX
  8
0
 10
6.69775
 20
2.49035
 30
0.0
 40
0
 41
0
  0
VERTEX
  8
0
 10
6.69775
 20
2.55658
 30
0.0
 40
0
 41
0
  0
SEQEND
 8
0
  0
POLYLINE
  8
0
 62
     0
 66
     1
 10
0
 20
0
 30
0.0
 70
     1
 40
0.75
 41
0.75
  0
VERTEX
  8
0
 10
6.69775
 20
2.55658
 30
0.0
 40
0.0104167
 41
0.0104167
  0
VERTEX
  8
0
 10
6.69775
 20
2.49035
 30
0.0
 40
0.0104167
 41
0.0104167
  0
VERTEX
  8
0
 10
6.72933
 20
2.49035
 30
0.0
 40
0.0104167
 41
0.0104167
  0
VERTEX
  8
0
 10
6.72933
 20
2.55658
 30
0.0
 40
0.0104167
 41
0.0104167
  0
VERTEX
  8
0
 10
6.69775
 20
2.55658
 30
0.0
 40
0.0104167
 41
0.0104167
  0
SEQEND
 8
0
  0
POLYLINE
  8
0
 62
     7
 66
     1
 10
0
 20
0
 30
0.0
 70
     1
 40
0
 41
0
  0
VERTEX
  8
0
 10
6.74365
 20
1.82497
 30
0.0
 40
0
 41
0
  0
VERTEX
  8
0
 10
6.80718
 20
1.82497
 30
0.0
 40
0
 41
0
  0
VERTEX
  8
0
 10
6.80718
 20
1.70833
 30
0.0
 40
0
 41
0
  0
VERTEX
  8
0
 10
6.74365
 20
1.70833
 30
0.0
 40
0
 41
0
  0
VERTEX
  8
0
 10
6.74365
 20
1.82497
 30
0.0
 40
0
 41
0
  0
SEQEND
 8
0
  0
POLYLINE
  8
0
 62
     0
 66
     1
 10
0
 20
0
 30
0.0
 70
     1
 40
0.75
 41
0.75
  0
VERTEX
  8
0
 10
6.74365
 20
1.82497
 30
0.0
 40
0.0104167
 41
0.0104167
  0
VERTEX
  8
0
 10
6.74365
 20
1.70833
 30
0.0
 40
0.0104167
 41
0.0104167
  0
VERTEX
  8
0
 10
6.80718
 20
1.70833
 30
0.0
 40
0.0104167
 41
0.0104167
  0
VERTEX
  8
0
 10
6.80718
 20
1.82497
 30
0.0
 40
0.0104167
 41
0.0104167
  0
VERTEX
  8
0
 10
6.74365
 20
1.82497
 30
0.0
 40
0.0104167
 41
0.0104167
  0
SEQEND
 8
0
  0
POLYLINE
  8
0
 62
     7
 66
     1
 10
0
 20
0
 30
0.0
 70
     1
 40
0
 41
0
  0
VERTEX
  8
0
 10
6.74365
 20
1.68024
 30
0.0
 40
0
 41
0
  0
VERTEX
  8
0
 10
6.80718
 20
1.68024
 30
0.0
 40
0
 41
0
  0
VERTEX
  8
0
 10
6.80718
 20
1.56353
 30
0.0
 40
0
 41
0
  0
VERTEX
  8
0
 10
6.74365
 20
1.56353
 30
0.0
 40
0
 41
0
  0
VERTEX
  8
0
 10
6.74365
 20
1.68024
 30
0.0
 40
0
 41
0
  0
SEQEND
 8
0
  0
POLYLINE
  8
0
 62
     0
 66
     1
 10
0
 20
0
 30
0.0
 70
     1
 40
0.75
 41
0.75
  0
VERTEX
  8
0
 10
6.74365
 20
1.68024
 30
0.0
 40
0.0104167
 41
0.0104167
  0
VERTEX
  8
0
 10
6.74365
 20
1.56353
 30
0.0
 40
0.0104167
 41
0.0104167
  0
VERTEX
  8
0
 10
6.80718
 20
1.56353
 30
0.0
 40
0.0104167
 41
0.0104167
  0
VERTEX
  8
0
 10
6.80718
 20
1.68024
 30
0.0
 40
0.0104167
 41
0.0104167
  0
VERTEX
  8
0
 10
6.74365
 20
1.68024
 30
0.0
 40
0.0104167
 41
0.0104167
  0
SEQEND
 8
0
  0
POLYLINE
  8
0
 62
     7
 66
     1
 10
0
 20
0
 30
0.0
 70
     1
 40
0
 41
0
  0
VERTEX
  8
0
 10
6.74365
 20
1.56456
 30
0.0
 40
0
 41
0
  0
VERTEX
  8
0
 10
6.80718
 20
1.56456
 30
0.0
 40
0
 41
0
  0
VERTEX
  8
0
 10
6.80718
 20
1.52919
 30
0.0
 40
0
 41
0
  0
VERTEX
  8
0
 10
6.74365
 20
1.52919
 30
0.0
 40
0
 41
0
  0
VERTEX
  8
0
 10
6.74365
 20
1.56456
 30
0.0
 40
0
 41
0
  0
SEQEND
 8
0
  0
POLYLINE
  8
0
 62
     0
 66
     1
 10
0
 20
0
 30
0.0
 70
     1
 40
0.75
 41
0.75
  0
VERTEX
  8
0
 10
6.74365
 20
1.56456
 30
0.0
 40
0.0104167
 41
0.0104167
  0
VERTEX
  8
0
 10
6.74365
 20
1.52919
 30
0.0
 40
0.0104167
 41
0.0104167
  0
VERTEX
  8
0
 10
6.80718
 20
1.52919
 30
0.0
 40
0.0104167
 41
0.0104167
  0
VERTEX
  8
0
 10
6.80718
 20
1.56456
 30
0.0
 40
0.0104167
 41
0.0104167
  0
VERTEX
  8
0
 10
6.74365
 20
1.56456
 30
0.0
 40
0.0104167
 41
0.0104167
  0
SEQEND
 8
0
  0
POLYLINE
  8
0
 62
     7
 66
     1
 10
0
 20
0
 30
0.0
 70
     1
 40
0
 41
0
  0
VERTEX
  8
0
 10
6.74365
 20
1.85835
 30
0.0
 40
0
 41
0
  0
VERTEX
  8
0
 10
6.80718
 20
1.85835
 30
0.0
 40
0
 41
0
  0
VERTEX
  8
0
 10
6.80718
 20
1.82497
 30
0.0
 40
0
 41
0
  0
VERTEX
  8
0
 10
6.74365
 20
1.82497
 30
0.0
 40
0
 41
0
  0
VERTEX
  8
0
 10
6.74365
 20
1.85835
 30
0.0
 40
0
 41
0
  0
SEQEND
 8
0
  0
POLYLINE
  8
0
 62
     0
 66
     1
 10
0
 20
0
 30
0.0
 70
     1
 40
0.75
 41
0.75
  0
VERTEX
  8
0
 10
6.74365
 20
1.85835
 30
0.0
 40
0.0104167
 41
0.0104167
  0
VERTEX
  8
0
 10
6.74365
 20
1.82497
 30
0.0
 40
0.0104167
 41
0.0104167
  0
VERTEX
  8
0
 10
6.80718
 20
1.82497
 30
0.0
 40
0.0104167
 41
0.0104167
  0
VERTEX
  8
0
 10
6.80718
 20
1.85835
 30
0.0
 40
0.0104167
 41
0.0104167
  0
VERTEX
  8
0
 10
6.74365
 20
1.85835
 30
0.0
 40
0.0104167
 41
0.0104167
  0
SEQEND
 8
0
  0
POLYLINE
  8
0
 62
     7
 66
     1
 10
0
 20
0
 30
0.0
 70
     1
 40
0
 41
0
  0
VERTEX
  8
0
 10
6.72385
 20
1.70833
 30
0.0
 40
0
 41
0
  0
VERTEX
  8
0
 10
6.7175
 20
1.70833
 30
0.0
 40
0
 41
0
  0
VERTEX
  8
0
 10
6.69857
 20
1.71203
 30
0.0
 40
0
 41
0
  0
VERTEX
  8
0
 10
6.67617
 20
1.7219
 30
0.0
 40
0
 41
0
  0
VERTEX
  8
0
 10
6.67176
 20
1.72499
 30
0.0
 40
0
 41
0
  0
VERTEX
  8
0
 10
6.67019
 20
1.72607
 30
0.0
 40
0
 41
0
  0
VERTEX
  8
0
 10
6.6556
 20
1.73622
 30
0.0
 40
0
 41
0
  0
VERTEX
  8
0
 10
6.65408
 20
1.73643
 30
0.0
 40
0
 41
0
  0
VERTEX
  8
0
 10
6.65121
 20
1.73699
 30
0.0
 40
0
 41
0
  0
VERTEX
  8
0
 10
6.63465
 20
1.73286
 30
0.0
 40
0
 41
0
  0
VERTEX
  8
0
 10
6.62175
 20
1.71615
 30
0.0
 40
0
 41
0
  0
VERTEX
  8
0
 10
6.62071
 20
1.71039
 30
0.0
 40
0
 41
0
  0
VERTEX
  8
0
 10
6.62044
 20
1.7091
 30
0.0
 40
0
 41
0
  0
VERTEX
  8
0
 10
6.61968
 20
1.6976
 30
0.0
 40
0
 41
0
  0
VERTEX
  8
0
 10
6.61968
 20
1.69374
 30
0.0
 40
0
 41
0
  0
VERTEX
  8
0
 10
6.61968
 20
1.69476
 30
0.0
 40
0
 41
0
  0
VERTEX
  8
0
 10
6.61968
 20
1.69065
 30
0.0
 40
0
 41
0
  0
VERTEX
  8
0
 10
6.62044
 20
1.67942
 30
0.0
 40
0
 41
0
  0
VERTEX
  8
0
 10
6.62071
 20
1.67811
 30
0.0
 40
0
 41
0
  0
VERTEX
  8
0
 10
6.62175
 20
1.67242
 30
0.0
 40
0
 41
0
  0
VERTEX
  8
0
 10
6.63465
 20
1.65576
 30
0.0
 40
0
 41
0
  0
VERTEX
  8
0
 10
6.65121
 20
1.65158
 30
0.0
 40
0
 41
0
  0
VERTEX
  8
0
 10
6.65408
 20
1.65207
 30
0.0
 40
0
 41
0
  0
VERTEX
  8
0
 10
6.6556
 20
1.65235
 30
0.0
 40
0
 41
0
  0
VERTEX
  8
0
 10
6.67019
 20
1.66249
 30
0.0
 40
0
 41
0
  0
VERTEX
  8
0
 10
6.67176
 20
1.66351
 30
0.0
 40
0
 41
0
  0
VERTEX
  8
0
 10
6.67617
 20
1.66667
 30
0.0
 40
0
 41
0
  0
VERTEX
  8
0
 10
6.69857
 20
1.6766
 30
0.0
 40
0
 41
0
  0
VERTEX
  8
0
 10
6.7175
 20
1.68024
 30
0.0
 40
0
 41
0
  0
VERTEX
  8
0
 10
6.72385
 20
1.68024
 30
0.0
 40
0
 41
0
  0
SEQEND
 8
0
  0
POLYLINE
  8
0
 62
     0
 66
     1
 10
0
 20
0
 30
0.0
 40
0.75
 41
0.75
  0
VERTEX
  8
0
 10
6.72385
 20
1.70833
 30
0.0
 40
0.0104167
 41
0.0104167
  0
VERTEX
  8
0
 10
6.7175
 20
1.70833
 30
0.0
 40
0.0104167
 41
0.0104167
  0
VERTEX
  8
0
 10
6.69857
 20
1.71203
 30
0.0
 40
0.0104167
 41
0.0104167
  0
VERTEX
  8
0
 10
6.67617
 20
1.7219
 30
0.0
 40
0.0104167
 41
0.0104167
  0
VERTEX
  8
0
 10
6.67176
 20
1.72499
 30
0.0
 40
0.0104167
 41
0.0104167
  0
VERTEX
  8
0
 10
6.67019
 20
1.72607
 30
0.0
 40
0.0104167
 41
0.0104167
  0
VERTEX
  8
0
 10
6.6556
 20
1.73622
 30
0.0
 40
0.0104167
 41
0.0104167
  0
VERTEX
  8
0
 10
6.65408
 20
1.73643
 30
0.0
 40
0.0104167
 41
0.0104167
  0
VERTEX
  8
0
 10
6.65121
 20
1.73699
 30
0.0
 40
0.0104167
 41
0.0104167
  0
VERTEX
  8
0
 10
6.63465
 20
1.73286
 30
0.0
 40
0.0104167
 41
0.0104167
  0
VERTEX
  8
0
 10
6.62175
 20
1.71615
 30
0.0
 40
0.0104167
 41
0.0104167
  0
VERTEX
  8
0
 10
6.62071
 20
1.71039
 30
0.0
 40
0.0104167
 41
0.0104167
  0
VERTEX
  8
0
 10
6.62044
 20
1.7091
 30
0.0
 40
0.0104167
 41
0.0104167
  0
VERTEX
  8
0
 10
6.61968
 20
1.6976
 30
0.0
 40
0.0104167
 41
0.0104167
  0
VERTEX
  8
0
 10
6.61968
 20
1.69374
 30
0.0
 40
0.0104167
 41
0.0104167
  0
VERTEX
  8
0
 10
6.61968
 20
1.69476
 30
0.0
 40
0.0104167
 41
0.0104167
  0
VERTEX
  8
0
 10
6.61968
 20
1.69065
 30
0.0
 40
0.0104167
 41
0.0104167
  0
VERTEX
  8
0
 10
6.62044
 20
1.67942
 30
0.0
 40
0.0104167
 41
0.0104167
  0
VERTEX
  8
0
 10
6.62071
 20
1.67811
 30
0.0
 40
0.0104167
 41
0.0104167
  0
VERTEX
  8
0
 10
6.62175
 20
1.67242
 30
0.0
 40
0.0104167
 41
0.0104167
  0
VERTEX
  8
0
 10
6.63465
 20
1.65576
 30
0.0
 40
0.0104167
 41
0.0104167
  0
VERTEX
  8
0
 10
6.65121
 20
1.65158
 30
0.0
 40
0.0104167
 41
0.0104167
  0
VERTEX
  8
0
 10
6.65408
 20
1.65207
 30
0.0
 40
0.0104167
 41
0.0104167
  0
VERTEX
  8
0
 10
6.6556
 20
1.65235
 30
0.0
 40
0.0104167
 41
0.0104167
  0
VERTEX
  8
0
 10
6.67019
 20
1.66249
 30
0.0
 40
0.0104167
 41
0.0104167
  0
VERTEX
  8
0
 10
6.67176
 20
1.66351
 30
0.0
 40
0.0104167
 41
0.0104167
  0
VERTEX
  8
0
 10
6.67617
 20
1.66667
 30
0.0
 40
0.0104167
 41
0.0104167
  0
VERTEX
  8
0
 10
6.69857
 20
1.6766
 30
0.0
 40
0.0104167
 41
0.0104167
  0
VERTEX
  8
0
 10
6.7175
 20
1.68024
 30
0.0
 40
0.0104167
 41
0.0104167
  0
VERTEX
  8
0
 10
6.72385
 20
1.68024
 30
0.0
 40
0.0104167
 41
0.0104167
  0
SEQEND
 8
0
  0
POLYLINE
  8
0
 62
     7
 66
     1
 10
0
 20
0
 30
0.0
 70
     1
 40
0
 41
0
  0
VERTEX
  8
0
 10
6.65306
 20
1.73643
 30
0.0
 40
0
 41
0
  0
VERTEX
  8
0
 10
6.6525
 20
1.73622
 30
0.0
 40
0
 41
0
  0
VERTEX
  8
0
 10
6.64231
 20
1.72433
 30
0.0
 40
0
 41
0
  0
VERTEX
  8
0
 10
6.63325
 20
1.70063
 30
0.0
 40
0
 41
0
  0
VERTEX
  8
0
 10
6.63325
 20
1.69271
 30
0.0
 40
0
 41
0
  0
VERTEX
  8
0
 10
6.63346
 20
1.68647
 30
0.0
 40
0
 41
0
  0
VERTEX
  8
0
 10
6.64274
 20
1.66385
 30
0.0
 40
0
 41
0
  0
VERTEX
  8
0
 10
6.6525
 20
1.65261
 30
0.0
 40
0
 41
0
  0
VERTEX
  8
0
 10
6.65306
 20
1.65207
 30
0.0
 40
0
 41
0
  0
SEQEND
 8
0
  0
POLYLINE
  8
0
 62
     0
 66
     1
 10
0
 20
0
 30
0.0
 40
0.75
 41
0.75
  0
VERTEX
  8
0
 10
6.65306
 20
1.73643
 30
0.0
 40
0.0104167
 41
0.0104167
  0
VERTEX
  8
0
 10
6.6525
 20
1.73622
 30
0.0
 40
0.0104167
 41
0.0104167
  0
VERTEX
  8
0
 10
6.64231
 20
1.72433
 30
0.0
 40
0.0104167
 41
0.0104167
  0
VERTEX
  8
0
 10
6.63325
 20
1.70063
 30
0.0
 40
0.0104167
 41
0.0104167
  0
VERTEX
  8
0
 10
6.63325
 20
1.69271
 30
0.0
 40
0.0104167
 41
0.0104167
  0
VERTEX
  8
0
 10
6.63346
 20
1.68647
 30
0.0
 40
0.0104167
 41
0.0104167
  0
VERTEX
  8
0
 10
6.64274
 20
1.66385
 30
0.0
 40
0.0104167
 41
0.0104167
  0
VERTEX
  8
0
 10
6.6525
 20
1.65261
 30
0.0
 40
0.0104167
 41
0.0104167
  0
VERTEX
  8
0
 10
6.65306
 20
1.65207
 30
0.0
 40
0.0104167
 41
0.0104167
  0
SEQEND
 8
0
  0
POLYLINE
  8
0
 62
     7
 66
     1
 10
0
 20
0
 30
0.0
 70
     1
 40
0
 41
0
  0
VERTEX
  8
0
 10
6.80718
 20
1.70833
 30
0.0
 40
0
 41
0
  0
VERTEX
  8
0
 10
6.80718
 20
1.68024
 30
0.0
 40
0
 41
0
  0
VERTEX
  8
0
 10
6.72385
 20
1.68024
 30
0.0
 40
0
 41
0
  0
VERTEX
  8
0
 10
6.72385
 20
1.68728
 30
0.0
 40
0
 41
0
  0
VERTEX
  8
0
 10
6.72385
 20
1.70307
 30
0.0
 40
0
 41
0
  0
VERTEX
  8
0
 10
6.72385
 20
1.70833
 30
0.0
 40
0
 41
0
  0
VERTEX
  8
0
 10
6.74468
 20
1.70833
 30
0.0
 40
0
 41
0
  0
VERTEX
  8
0
 10
6.79156
 20
1.70833
 30
0.0
 40
0
 41
0
  0
VERTEX
  8
0
 10
6.80718
 20
1.70833
 30
0.0
 40
0
 41
0
  0
SEQEND
 8
0
  0
POLYLINE
  8
0
 62
     0
 66
     1
 10
0
 20
0
 30
0.0
 70
     1
 40
0.75
 41
0.75
  0
VERTEX
  8
0
 10
6.80718
 20
1.70833
 30
0.0
 40
0.0104167
 41
0.0104167
  0
VERTEX
  8
0
 10
6.80718
 20
1.68024
 30
0.0
 40
0.0104167
 41
0.0104167
  0
VERTEX
  8
0
 10
6.72385
 20
1.68024
 30
0.0
 40
0.0104167
 41
0.0104167
  0
VERTEX
  8
0
 10
6.72385
 20
1.68728
 30
0.0
 40
0.0104167
 41
0.0104167
  0
VERTEX
  8
0
 10
6.72385
 20
1.70307
 30
0.0
 40
0.0104167
 41
0.0104167
  0
VERTEX
  8
0
 10
6.72385
 20
1.70833
 30
0.0
 40
0.0104167
 41
0.0104167
  0
VERTEX
  8
0
 10
6.74468
 20
1.70833
 30
0.0
 40
0.0104167
 41
0.0104167
  0
VERTEX
  8
0
 10
6.79156
 20
1.70833
 30
0.0
 40
0.0104167
 41
0.0104167
  0
VERTEX
  8
0
 10
6.80718
 20
1.70833
 30
0.0
 40
0.0104167
 41
0.0104167
  0
SEQEND
 8
0
  0
POLYLINE
  8
0
 62
     7
 66
     1
 10
0
 20
0
 30
0.0
 70
     1
 40
0
 41
0
  0
VERTEX
  8
0
 10
6.7749
 20
1.82497
 30
0.0
 40
0
 41
0
  0
VERTEX
  8
0
 10
6.7761
 20
1.82178
 30
0.0
 40
0
 41
0
  0
VERTEX
  8
0
 10
6.77994
 20
1.81213
 30
0.0
 40
0
 41
0
  0
VERTEX
  8
0
 10
6.78114
 20
1.80935
 30
0.0
 40
0
 41
0
  0
VERTEX
  8
0
 10
6.78114
 20
1.80935
 30
0.0
 40
0
 41
0
  0
VERTEX
  8
0
 10
6.77968
 20
1.80935
 30
0.0
 40
0
 41
0
  0
VERTEX
  8
0
 10
6.77539
 20
1.80935
 30
0.0
 40
0
 41
0
  0
VERTEX
  8
0
 10
6.77111
 20
1.80935
 30
0.0
 40
0
 41
0
  0
VERTEX
  8
0
 10
6.76969
 20
1.80935
 30
0.0
 40
0
 41
0
  0
VERTEX
  8
0
 10
6.76969
 20
1.80935
 30
0.0
 40
0
 41
0
  0
VERTEX
  8
0
 10
6.77035
 20
1.81174
 30
0.0
 40
0
 41
0
  0
VERTEX
  8
0
 10
6.77371
 20
1.82172
 30
0.0
 40
0
 41
0
  0
VERTEX
  8
0
 10
6.7749
 20
1.82497
 30
0.0
 40
0
 41
0
  0
SEQEND
 8
0
  0
POLYLINE
  8
0
 62
     0
 66
     1
 10
0
 20
0
 30
0.0
 70
     1
 40
0.75
 41
0.75
  0
VERTEX
  8
0
 10
6.7749
 20
1.82497
 30
0.0
 40
0.0104167
 41
0.0104167
  0
VERTEX
  8
0
 10
6.7761
 20
1.82178
 30
0.0
 40
0.0104167
 41
0.0104167
  0
VERTEX
  8
0
 10
6.77994
 20
1.81213
 30
0.0
 40
0.0104167
 41
0.0104167
  0
VERTEX
  8
0
 10
6.78114
 20
1.80935
 30
0.0
 40
0.0104167
 41
0.0104167
  0
VERTEX
  8
0
 10
6.78114
 20
1.80935
 30
0.0
 40
0.0104167
 41
0.0104167
  0
VERTEX
  8
0
 10
6.77968
 20
1.80935
 30
0.0
 40
0.0104167
 41
0.0104167
  0
VERTEX
  8
0
 10
6.77539
 20
1.80935
 30
0.0
 40
0.0104167
 41
0.0104167
  0
VERTEX
  8
0
 10
6.77111
 20
1.80935
 30
0.0
 40
0.0104167
 41
0.0104167
  0
VERTEX
  8
0
 10
6.76969
 20
1.80935
 30
0.0
 40
0.0104167
 41
0.0104167
  0
VERTEX
  8
0
 10
6.76969
 20
1.80935
 30
0.0
 40
0.0104167
 41
0.0104167
  0
VERTEX
  8
0
 10
6.77035
 20
1.81174
 30
0.0
 40
0.0104167
 41
0.0104167
  0
VERTEX
  8
0
 10
6.77371
 20
1.82172
 30
0.0
 40
0.0104167
 41
0.0104167
  0
VERTEX
  8
0
 10
6.7749
 20
1.82497
 30
0.0
 40
0.0104167
 41
0.0104167
  0
SEQEND
 8
0
  0
POLYLINE
  8
0
 62
     7
 66
     1
 10
0
 20
0
 30
0.0
 70
     1
 40
0
 41
0
  0
VERTEX
  8
0
 10
6.7749
 20
1.56456
 30
0.0
 40
0
 41
0
  0
VERTEX
  8
0
 10
6.7761
 20
1.56782
 30
0.0
 40
0
 41
0
  0
VERTEX
  8
0
 10
6.77994
 20
1.57747
 30
0.0
 40
0
 41
0
  0
VERTEX
  8
0
 10
6.78114
 20
1.58018
 30
0.0
 40
0
 41
0
  0
VERTEX
  8
0
 10
6.78114
 20
1.58018
 30
0.0
 40
0
 41
0
  0
VERTEX
  8
0
 10
6.77968
 20
1.58018
 30
0.0
 40
0
 41
0
  0
VERTEX
  8
0
 10
6.77539
 20
1.58018
 30
0.0
 40
0
 41
0
  0
VERTEX
  8
0
 10
6.77111
 20
1.58018
 30
0.0
 40
0
 41
0
  0
VERTEX
  8
0
 10
6.76969
 20
1.58018
 30
0.0
 40
0
 41
0
  0
VERTEX
  8
0
 10
6.76969
 20
1.58018
 30
0.0
 40
0
 41
0
  0
VERTEX
  8
0
 10
6.77035
 20
1.57785
 30
0.0
 40
0
 41
0
  0
VERTEX
  8
0
 10
6.77371
 20
1.56788
 30
0.0
 40
0
 41
0
  0
VERTEX
  8
0
 10
6.7749
 20
1.56456
 30
0.0
 40
0
 41
0
  0
SEQEND
 8
0
  0
POLYLINE
  8
0
 62
     0
 66
     1
 10
0
 20
0
 30
0.0
 70
     1
 40
0.75
 41
0.75
  0
VERTEX
  8
0
 10
6.7749
 20
1.56456
 30
0.0
 40
0.0104167
 41
0.0104167
  0
VERTEX
  8
0
 10
6.7761
 20
1.56782
 30
0.0
 40
0.0104167
 41
0.0104167
  0
VERTEX
  8
0
 10
6.77994
 20
1.57747
 30
0.0
 40
0.0104167
 41
0.0104167
  0
VERTEX
  8
0
 10
6.78114
 20
1.58018
 30
0.0
 40
0.0104167
 41
0.0104167
  0
VERTEX
  8
0
 10
6.78114
 20
1.58018
 30
0.0
 40
0.0104167
 41
0.0104167
  0
VERTEX
  8
0
 10
6.77968
 20
1.58018
 30
0.0
 40
0.0104167
 41
0.0104167
  0
VERTEX
  8
0
 10
6.77539
 20
1.58018
 30
0.0
 40
0.0104167
 41
0.0104167
  0
VERTEX
  8
0
 10
6.77111
 20
1.58018
 30
0.0
 40
0.0104167
 41
0.0104167
  0
VERTEX
  8
0
 10
6.76969
 20
1.58018
 30
0.0
 40
0.0104167
 41
0.0104167
  0
VERTEX
  8
0
 10
6.76969
 20
1.58018
 30
0.0
 40
0.0104167
 41
0.0104167
  0
VERTEX
  8
0
 10
6.77035
 20
1.57785
 30
0.0
 40
0.0104167
 41
0.0104167
  0
VERTEX
  8
0
 10
6.77371
 20
1.56788
 30
0.0
 40
0.0104167
 41
0.0104167
  0
VERTEX
  8
0
 10
6.7749
 20
1.56456
 30
0.0
 40
0.0104167
 41
0.0104167
  0
SEQEND
 8
0
  0
POLYLINE
  8
0
 62
     0
 66
     1
 10
0
 20
0
 30
0.0
 40
1.35
 41
1.35
  0
VERTEX
  8
0
 10
6.81239
 20
2.16683
 30
0.0
 40
0.01875
 41
0.01875
  0
VERTEX
  8
0
 10
5.90565
 20
2.16683
 30
0.0
 40
0.01875
 41
0.01875
  0
VERTEX
  8
0
 10
5.90565
 20
1.25993
 30
0.0
 40
0.01875
 41
0.01875
  0
SEQEND
 8
0
  0
POLYLINE
  8
0
 62
     7
 66
     1
 10
0
 20
0
 30
0.0
 70
     1
 40
0
 41
0
  0
VERTEX
  8
0
 10
4.24371
 20
1.95432
 30
0.0
 40
0
 41
0
  0
VERTEX
  8
0
 10
4.93565
 20
1.95432
 30
0.0
 40
0
 41
0
  0
VERTEX
  8
0
 10
4.93565
 20
1.26259
 30
0.0
 40
0
 41
0
  0
VERTEX
  8
0
 10
4.24371
 20
1.26259
 30
0.0
 40
0
 41
0
  0
VERTEX
  8
0
 10
4.24371
 20
1.95432
 30
0.0
 40
0
 41
0
  0
SEQEND
 8
0
  0
POLYLINE
  8
0
 62
     0
 66
     1
 10
0
 20
0
 30
0.0
 70
     1
 40
0.830325
 41
0.830325
  0
VERTEX
  8
0
 10
4.24371
 20
1.95432
 30
0.0
 40
0.0115323
 41
0.0115323
  0
VERTEX
  8
0
 10
4.93565
 20
1.95432
 30
0.0
 40
0.0115323
 41
0.0115323
  0
VERTEX
  8
0
 10
4.93565
 20
1.26259
 30
0.0
 40
0.0115323
 41
0.0115323
  0
VERTEX
  8
0
 10
4.24371
 20
1.26259
 30
0.0
 40
0.0115323
 41
0.0115323
  0
VERTEX
  8
0
 10
4.24371
 20
1.95432
 30
0.0
 40
0.0115323
 41
0.0115323
  0
SEQEND
 8
0
  0
POLYLINE
  8
0
 62
     0
 66
     1
 10
0
 20
0
 30
0.0
 40
0.830325
 41
0.830325
  0
VERTEX
  8
0
 10
4.93565
 20
1.26259
 30
0.0
 40
0.0115323
 41
0.0115323
  0
VERTEX
  8
0
 10
4.58854
 20
1.7214
 30
0.0
 40
0.0115323
 41
0.0115323
  0
VERTEX
  8
0
 10
4.58854
 20
1.48622
 30
0.0
 40
0.0115323
 41
0.0115323
  0
VERTEX
  8
0
 10
4.24485
 20
1.95432
 30
0.0
 40
0.0115323
 41
0.0115323
  0
SEQEND
 8
0
  0
POLYLINE
  8
0
 62
     7
 66
     1
 10
0
 20
0
 30
0.0
 70
     1
 40
0
 41
0
  0
VERTEX
  8
0
 10
6.2494
 20
4.08914
 30
0.0
 40
0
 41
0
  0
VERTEX
  8
0
 10
6.81239
 20
4.08914
 30
0.0
 40
0
 41
0
  0
VERTEX
  8
0
 10
6.81239
 20
3.41764
 30
0.0
 40
0
 41
0
  0
VERTEX
  8
0
 10
6.2494
 20
3.41764
 30
0.0
 40
0
 41
0
  0
VERTEX
  8
0
 10
6.2494
 20
4.08914
 30
0.0
 40
0
 41
0
  0
SEQEND
 8
0
  0
POLYLINE
  8
0
 62
     0
 66
     1
 10
0
 20
0
 30
0.0
 70
     1
 40
0.75
 41
0.75
  0
VERTEX
  8
0
 10
6.2494
 20
4.08914
 30
0.0
 40
0.0104167
 41
0.0104167
  0
VERTEX
  8
0
 10
6.81239
 20
4.08914
 30
0.0
 40
0.0104167
 41
0.0104167
  0
VERTEX
  8
0
 10
6.81239
 20
3.41764
 30
0.0
 40
0.0104167
 41
0.0104167
  0
VERTEX
  8
0
 10
6.2494
 20
3.41764
 30
0.0
 40
0.0104167
 41
0.0104167
  0
VERTEX
  8
0
 10
6.2494
 20
4.08914
 30
0.0
 40
0.0104167
 41
0.0104167
  0
SEQEND
 8
0
  0
POLYLINE
  8
0
 62
     7
 66
     1
 10
0
 20
0
 30
0.0
 70
     1
 40
0
 41
0
  0
VERTEX
  8
0
 10
5.68636
 20
4.08914
 30
0.0
 40
0
 41
0
  0
VERTEX
  8
0
 10
6.24935
 20
4.08914
 30
0.0
 40
0
 41
0
  0
VERTEX
  8
0
 10
6.24935
 20
3.41764
 30
0.0
 40
0
 41
0
  0
VERTEX
  8
0
 10
5.68636
 20
3.41764
 30
0.0
 40
0
 41
0
  0
VERTEX
  8
0
 10
5.68636
 20
4.08914
 30
0.0
 40
0
 41
0
  0
SEQEND
 8
0
  0
POLYLINE
  8
0
 62
     0
 66
     1
 10
0
 20
0
 30
0.0
 70
     1
 40
0.75
 41
0.75
  0
VERTEX
  8
0
 10
5.68636
 20
4.08914
 30
0.0
 40
0.0104167
 41
0.0104167
  0
VERTEX
  8
0
 10
6.24935
 20
4.08914
 30
0.0
 40
0.0104167
 41
0.0104167
  0
VERTEX
  8
0
 10
6.24935
 20
3.41764
 30
0.0
 40
0.0104167
 41
0.0104167
  0
VERTEX
  8
0
 10
5.68636
 20
3.41764
 30
0.0
 40
0.0104167
 41
0.0104167
  0
VERTEX
  8
0
 10
5.68636
 20
4.08914
 30
0.0
 40
0.0104167
 41
0.0104167
  0
SEQEND
 8
0
  0
POLYLINE
  8
0
 62
     0
 66
     1
 10
0
 20
0
 30
0.0
 70
     1
 40
0
 41
0
  0
VERTEX
  8
0
 10
5.68636
 20
3.41758
 30
0.0
 40
0
 41
0
  0
VERTEX
  8
0
 10
4.99636
 20
3.40446
 30
0.0
 40
0
 41
0
  0
VERTEX
  8
0
 10
4.99397
 20
3.52946
 30
0.0
 40
0
 41
0
  0
VERTEX
  8
0
 10
5.68397
 20
3.54258
 30
0.0
 40
0
 41
0
  0
VERTEX
  8
0
 10
5.68636
 20
3.41758
 30
0.0
 40
0
 41
0
  0
SEQEND
 8
0
  0
POLYLINE
  8
0
 62
     0
 66
     1
 10
0
 20
0
 30
0.0
 70
     1
 40
0.15
 41
0.15
  0
VERTEX
  8
0
 10
5.68636
 20
3.41758
 30
0.0
 40
0.00208333
 41
0.00208333
  0
VERTEX
  8
0
 10
4.99636
 20
3.40446
 30
0.0
 40
0.00208333
 41
0.00208333
  0
VERTEX
  8
0
 10
4.99397
 20
3.52946
 30
0.0
 40
0.00208333
 41
0.00208333
  0
VERTEX
  8
0
 10
5.68397
 20
3.54258
 30
0.0
 40
0.00208333
 41
0.00208333
  0
VERTEX
  8
0
 10
5.68636
 20
3.41758
 30
0.0
 40
0.00208333
 41
0.00208333
  0
SEQEND
 8
0
  0
POLYLINE
  8
0
 62
     7
 66
     1
 10
0
 20
0
 30
0.0
 70
     1
 40
0
 41
0
  0
VERTEX
  8
0
 10
3.22114
 20
7.46186
 30
0.0
 40
0
 41
0
  0
VERTEX
  8
0
 10
3.22114
 20
7.66613
 30
0.0
 40
0
 41
0
  0
VERTEX
  8
0
 10
3.16906
 20
7.71821
 30
0.0
 40
0
 41
0
  0
VERTEX
  8
0
 10
3.16906
 20
7.46186
 30
0.0
 40
0
 41
0
  0
VERTEX
  8
0
 10
3.22114
 20
7.46186
 30
0.0
 40
0
 41
0
  0
SEQEND
 8
0
  0
POLYLINE
  8
0
 62
     0
 66
     1
 10
0
 20
0
 30
0.0
 70
     1
 40
0.15
 41
0.15
  0
VERTEX
  8
0
 10
3.22114
 20
7.46186
 30
0.0
 40
0.00208333
 41
0.00208333
  0
VERTEX
  8
0
 10
3.22114
 20
7.66613
 30
0.0
 40
0.00208333
 41
0.00208333
  0
VERTEX
  8
0
 10
3.16906
 20
7.71821
 30
0.0
 40
0.00208333
 41
0.00208333
  0
VERTEX
  8
0
 10
3.16906
 20
7.46186
 30
0.0
 40
0.00208333
 41
0.00208333
  0
VERTEX
  8
0
 10
3.22114
 20
7.46186
 30
0.0
 40
0.00208333
 41
0.00208333
  0
SEQEND
 8
0
  0
POLYLINE
  8
0
 62
     7
 66
     1
 10
0
 20
0
 30
0.0
 70
     1
 40
0
 41
0
  0
VERTEX
  8
0
 10
3.22114
 20
7.66613
 30
0.0
 40
0
 41
0
  0
VERTEX
  8
0
 10
4.41835
 20
7.66613
 30
0.0
 40
0
 41
0
  0
VERTEX
  8
0
 10
4.47043
 20
7.71821
 30
0.0
 40
0
 41
0
  0
VERTEX
  8
0
 10
3.16906
 20
7.71821
 30
0.0
 40
0
 41
0
  0
VERTEX
  8
0
 10
3.22114
 20
7.66613
 30
0.0
 40
0
 41
0
  0
SEQEND
 8
0
  0
POLYLINE
  8
0
 62
     0
 66
     1
 10
0
 20
0
 30
0.0
 70
     1
 40
0.15
 41
0.15
  0
VERTEX
  8
0
 10
3.22114
 20
7.66613
 30
0.0
 40
0.00208333
 41
0.00208333
  0
VERTEX
  8
0
 10
4.41835
 20
7.66613
 30
0.0
 40
0.00208333
 41
0.00208333
  0
VERTEX
  8
0
 10
4.47043
 20
7.71821
 30
0.0
 40
0.00208333
 41
0.00208333
  0
VERTEX
  8
0
 10
3.16906
 20
7.71821
 30
0.0
 40
0.00208333
 41
0.00208333
  0
VERTEX
  8
0
 10
3.22114
 20
7.66613
 30
0.0
 40
0.00208333
 41
0.00208333
  0
SEQEND
 8
0
  0
POLYLINE
  8
0
 62
     7
 66
     1
 10
0
 20
0
 30
0.0
 70
     1
 40
0
 41
0
  0
VERTEX
  8
0
 10
4.41835
 20
7.66613
 30
0.0
 40
0
 41
0
  0
VERTEX
  8
0
 10
4.41835
 20
7.46186
 30
0.0
 40
0
 41
0
  0
VERTEX
  8
0
 10
4.47043
 20
7.46186
 30
0.0
 40
0
 41
0
  0
VERTEX
  8
0
 10
4.47043
 20
7.71821
 30
0.0
 40
0
 41
0
  0
VERTEX
  8
0
 10
4.41835
 20
7.66613
 30
0.0
 40
0
 41
0
  0
SEQEND
 8
0
  0
POLYLINE
  8
0
 62
     0
 66
     1
 10
0
 20
0
 30
0.0
 70
     1
 40
0.15
 41
0.15
  0
VERTEX
  8
0
 10
4.41835
 20
7.66613
 30
0.0
 40
0.00208333
 41
0.00208333
  0
VERTEX
  8
0
 10
4.41835
 20
7.46186
 30
0.0
 40
0.00208333
 41
0.00208333
  0
VERTEX
  8
0
 10
4.47043
 20
7.46186
 30
0.0
 40
0.00208333
 41
0.00208333
  0
VERTEX
  8
0
 10
4.47043
 20
7.71821
 30
0.0
 40
0.00208333
 41
0.00208333
  0
VERTEX
  8
0
 10
4.41835
 20
7.66613
 30
0.0
 40
0.00208333
 41
0.00208333
  0
SEQEND
 8
0
  0
POLYLINE
  8
0
 62
     7
 66
     1
 10
0
 20
0
 30
0.0
 70
     1
 40
0
 41
0
  0
VERTEX
  8
0
 10
5.21881
 20
3.32389
 30
0.0
 40
0
 41
0
  0
VERTEX
  8
0
 10
5.90349
 20
3.32389
 30
0.0
 40
0
 41
0
  0
VERTEX
  8
0
 10
5.90349
 20
2.83306
 30
0.0
 40
0
 41
0
  0
VERTEX
  8
0
 10
5.21881
 20
2.83306
 30
0.0
 40
0
 41
0
  0
VERTEX
  8
0
 10
5.21881
 20
3.32389
 30
0.0
 40
0
 41
0
  0
SEQEND
 8
0
  0
POLYLINE
  8
0
 62
     0
 66
     1
 10
0
 20
0
 30
0.0
 70
     1
 40
0.75
 41
0.75
  0
VERTEX
  8
0
 10
5.21881
 20
3.32389
 30
0.0
 40
0.0104167
 41
0.0104167
  0
VERTEX
  8
0
 10
5.90349
 20
3.32389
 30
0.0
 40
0.0104167
 41
0.0104167
  0
VERTEX
  8
0
 10
5.90349
 20
2.83306
 30
0.0
 40
0.0104167
 41
0.0104167
  0
VERTEX
  8
0
 10
5.21881
 20
2.83306
 30
0.0
 40
0.0104167
 41
0.0104167
  0
VERTEX
  8
0
 10
5.21881
 20
3.32389
 30
0.0
 40
0.0104167
 41
0.0104167
  0
SEQEND
 8
0
  0
POLYLINE
  8
0
 62
     7
 66
     1
 10
0
 20
0
 30
0.0
 70
     1
 40
0
 41
0
  0
VERTEX
  8
0
 10
5.80122
 20
3.11513
 30
0.0
 40
0
 41
0
  0
VERTEX
  8
0
 10
5.80122
 20
3.10618
 30
0.0
 40
0
 41
0
  0
VERTEX
  8
0
 10
5.79688
 20
3.07932
 30
0.0
 40
0
 41
0
  0
VERTEX
  8
0
 10
5.7845
 20
3.04596
 30
0.0
 40
0
 41
0
  0
VERTEX
  8
0
 10
5.76492
 20
3.01574
 30
0.0
 40
0
 41
0
  0
VERTEX
  8
0
 10
5.73904
 20
2.98942
 30
0.0
 40
0
 41
0
  0
VERTEX
  8
0
 10
5.70763
 20
2.96767
 30
0.0
 40
0
 41
0
  0
VERTEX
  8
0
 10
5.67156
 20
2.95128
 30
0.0
 40
0
 41
0
  0
VERTEX
  8
0
 10
5.63172
 20
2.94092
 30
0.0
 40
0
 41
0
  0
VERTEX
  8
0
 10
5.59967
 20
2.93728
 30
0.0
 40
0
 41
0
  0
VERTEX
  8
0
 10
5.58897
 20
2.93728
 30
0.0
 40
0
 41
0
  0
VERTEX
  8
0
 10
5.57824
 20
2.93728
 30
0.0
 40
0
 41
0
  0
VERTEX
  8
0
 10
5.54617
 20
2.94092
 30
0.0
 40
0
 41
0
  0
VERTEX
  8
0
 10
5.50635
 20
2.95128
 30
0.0
 40
0
 41
0
  0
VERTEX
  8
0
 10
5.47026
 20
2.96767
 30
0.0
 40
0
 41
0
  0
VERTEX
  8
0
 10
5.43886
 20
2.98942
 30
0.0
 40
0
 41
0
  0
VERTEX
  8
0
 10
5.41292
 20
3.01574
 30
0.0
 40
0
 41
0
  0
VERTEX
  8
0
 10
5.39339
 20
3.04596
 30
0.0
 40
0
 41
0
  0
VERTEX
  8
0
 10
5.38103
 20
3.07932
 30
0.0
 40
0
 41
0
  0
VERTEX
  8
0
 10
5.37674
 20
3.10618
 30
0.0
 40
0
 41
0
  0
VERTEX
  8
0
 10
5.37674
 20
3.11513
 30
0.0
 40
0
 41
0
  0
VERTEX
  8
0
 10
5.37674
 20
3.12414
 30
0.0
 40
0
 41
0
  0
VERTEX
  8
0
 10
5.38103
 20
3.15099
 30
0.0
 40
0
 41
0
  0
VERTEX
  8
0
 10
5.39339
 20
3.18435
 30
0.0
 40
0
 41
0
  0
VERTEX
  8
0
 10
5.41292
 20
3.21457
 30
0.0
 40
0
 41
0
  0
VERTEX
  8
0
 10
5.43886
 20
3.24089
 30
0.0
 40
0
 41
0
  0
VERTEX
  8
0
 10
5.47026
 20
3.26264
 30
0.0
 40
0
 41
0
  0
VERTEX
  8
0
 10
5.50635
 20
3.27903
 30
0.0
 40
0
 41
0
  0
VERTEX
  8
0
 10
5.54617
 20
3.28939
 30
0.0
 40
0
 41
0
  0
VERTEX
  8
0
 10
5.57824
 20
3.29297
 30
0.0
 40
0
 41
0
  0
VERTEX
  8
0
 10
5.58897
 20
3.29297
 30
0.0
 40
0
 41
0
  0
VERTEX
  8
0
 10
5.59967
 20
3.29297
 30
0.0
 40
0
 41
0
  0
VERTEX
  8
0
 10
5.63172
 20
3.28939
 30
0.0
 40
0
 41
0
  0
VERTEX
  8
0
 10
5.67156
 20
3.27903
 30
0.0
 40
0
 41
0
  0
VERTEX
  8
0
 10
5.70763
 20
3.26264
 30
0.0
 40
0
 41
0
  0
VERTEX
  8
0
 10
5.73904
 20
3.24089
 30
0.0
 40
0
 41
0
  0
VERTEX
  8
0
 10
5.76492
 20
3.21457
 30
0.0
 40
0
 41
0
  0
VERTEX
  8
0
 10
5.7845
 20
3.18435
 30
0.0
 40
0
 41
0
  0
VERTEX
  8
0
 10
5.79688
 20
3.15099
 30
0.0
 40
0
 41
0
  0
VERTEX
  8
0
 10
5.80122
 20
3.12414
 30
0.0
 40
0
 41
0
  0
VERTEX
  8
0
 10
5.80122
 20
3.11513
 30
0.0
 40
0
 41
0
  0
SEQEND
 8
0
  0
POLYLINE
  8
0
 62
     0
 66
     1
 10
0
 20
0
 30
0.0
 70
     1
 40
0.664425
 41
0.664425
  0
VERTEX
  8
0
 10
5.80122
 20
3.11513
 30
0.0
 40
0.00922813
 41
0.00922813
  0
VERTEX
  8
0
 10
5.80122
 20
3.10618
 30
0.0
 40
0.00922813
 41
0.00922813
  0
VERTEX
  8
0
 10
5.79688
 20
3.07932
 30
0.0
 40
0.00922813
 41
0.00922813
  0
VERTEX
  8
0
 10
5.7845
 20
3.04596
 30
0.0
 40
0.00922813
 41
0.00922813
  0
VERTEX
  8
0
 10
5.76492
 20
3.01574
 30
0.0
 40
0.00922813
 41
0.00922813
  0
VERTEX
  8
0
 10
5.73904
 20
2.98942
 30
0.0
 40
0.00922813
 41
0.00922813
  0
VERTEX
  8
0
 10
5.70763
 20
2.96767
 30
0.0
 40
0.00922813
 41
0.00922813
  0
VERTEX
  8
0
 10
5.67156
 20
2.95128
 30
0.0
 40
0.00922813
 41
0.00922813
  0
VERTEX
  8
0
 10
5.63172
 20
2.94092
 30
0.0
 40
0.00922813
 41
0.00922813
  0
VERTEX
  8
0
 10
5.59967
 20
2.93728
 30
0.0
 40
0.00922813
 41
0.00922813
  0
VERTEX
  8
0
 10
5.58897
 20
2.93728
 30
0.0
 40
0.00922813
 41
0.00922813
  0
VERTEX
  8
0
 10
5.57824
 20
2.93728
 30
0.0
 40
0.00922813
 41
0.00922813
  0
VERTEX
  8
0
 10
5.54617
 20
2.94092
 30
0.0
 40
0.00922813
 41
0.00922813
  0
VERTEX
  8
0
 10
5.50635
 20
2.95128
 30
0.0
 40
0.00922813
 41
0.00922813
  0
VERTEX
  8
0
 10
5.47026
 20
2.96767
 30
0.0
 40
0.00922813
 41
0.00922813
  0
VERTEX
  8
0
 10
5.43886
 20
2.98942
 30
0.0
 40
0.00922813
 41
0.00922813
  0
VERTEX
  8
0
 10
5.41292
 20
3.01574
 30
0.0
 40
0.00922813
 41
0.00922813
  0
VERTEX
  8
0
 10
5.39339
 20
3.04596
 30
0.0
 40
0.00922813
 41
0.00922813
  0
VERTEX
  8
0
 10
5.38103
 20
3.07932
 30
0.0
 40
0.00922813
 41
0.00922813
  0
VERTEX
  8
0
 10
5.37674
 20
3.10618
 30
0.0
 40
0.00922813
 41
0.00922813
  0
VERTEX
  8
0
 10
5.37674
 20
3.11513
 30
0.0
 40
0.00922813
 41
0.00922813
  0
VERTEX
  8
0
 10
5.37674
 20
3.12414
 30
0.0
 40
0.00922813
 41
0.00922813
  0
VERTEX
  8
0
 10
5.38103
 20
3.15099
 30
0.0
 40
0.00922813
 41
0.00922813
  0
VERTEX
  8
0
 10
5.39339
 20
3.18435
 30
0.0
 40
0.00922813
 41
0.00922813
  0
VERTEX
  8
0
 10
5.41292
 20
3.21457
 30
0.0
 40
0.00922813
 41
0.00922813
  0
VERTEX
  8
0
 10
5.43886
 20
3.24089
 30
0.0
 40
0.00922813
 41
0.00922813
  0
VERTEX
  8
0
 10
5.47026
 20
3.26264
 30
0.0
 40
0.00922813
 41
0.00922813
  0
VERTEX
  8
0
 10
5.50635
 20
3.27903
 30
0.0
 40
0.00922813
 41
0.00922813
  0
VERTEX
  8
0
 10
5.54617
 20
3.28939
 30
0.0
 40
0.00922813
 41
0.00922813
  0
VERTEX
  8
0
 10
5.57824
 20
3.29297
 30
0.0
 40
0.00922813
 41
0.00922813
  0
VERTEX
  8
0
 10
5.58897
 20
3.29297
 30
0.0
 40
0.00922813
 41
0.00922813
  0
VERTEX
  8
0
 10
5.59967
 20
3.29297
 30
0.0
 40
0.00922813
 41
0.00922813
  0
VERTEX
  8
0
 10
5.63172
 20
3.28939
 30
0.0
 40
0.00922813
 41
0.00922813
  0
VERTEX
  8
0
 10
5.67156
 20
3.27903
 30
0.0
 40
0.00922813
 41
0.00922813
  0
VERTEX
  8
0
 10
5.70763
 20
3.26264
 30
0.0
 40
0.00922813
 41
0.00922813
  0
VERTEX
  8
0
 10
5.73904
 20
3.24089
 30
0.0
 40
0.00922813
 41
0.00922813
  0
VERTEX
  8
0
 10
5.76492
 20
3.21457
 30
0.0
 40
0.00922813
 41
0.00922813
  0
VERTEX
  8
0
 10
5.7845
 20
3.18435
 30
0.0
 40
0.00922813
 41
0.00922813
  0
VERTEX
  8
0
 10
5.79688
 20
3.15099
 30
0.0
 40
0.00922813
 41
0.00922813
  0
VERTEX
  8
0
 10
5.80122
 20
3.12414
 30
0.0
 40
0.00922813
 41
0.00922813
  0
VERTEX
  8
0
 10
5.80122
 20
3.11513
 30
0.0
 40
0.00922813
 41
0.00922813
  0
SEQEND
 8
0
  0
POLYLINE
  8
0
 62
     7
 66
     1
 10
0
 20
0
 30
0.0
 70
     1
 40
0
 41
0
  0
VERTEX
  8
0
 10
5.62125
 20
3.11513
 30
0.0
 40
0
 41
0
  0
VERTEX
  8
0
 10
5.62125
 20
3.11035
 30
0.0
 40
0
 41
0
  0
VERTEX
  8
0
 10
5.61176
 20
3.09603
 30
0.0
 40
0
 41
0
  0
VERTEX
  8
0
 10
5.59467
 20
3.08806
 30
0.0
 40
0
 41
0
  0
VERTEX
  8
0
 10
5.58897
 20
3.08806
 30
0.0
 40
0
 41
0
  0
VERTEX
  8
0
 10
5.58322
 20
3.08806
 30
0.0
 40
0
 41
0
  0
VERTEX
  8
0
 10
5.56608
 20
3.09603
 30
0.0
 40
0
 41
0
  0
VERTEX
  8
0
 10
5.55664
 20
3.11035
 30
0.0
 40
0
 41
0
  0
VERTEX
  8
0
 10
5.55664
 20
3.11513
 30
0.0
 40
0
 41
0
  0
VERTEX
  8
0
 10
5.55664
 20
3.11996
 30
0.0
 40
0
 41
0
  0
VERTEX
  8
0
 10
5.56608
 20
3.13428
 30
0.0
 40
0
 41
0
  0
VERTEX
  8
0
 10
5.58322
 20
3.14219
 30
0.0
 40
0
 41
0
  0
VERTEX
  8
0
 10
5.58897
 20
3.14219
 30
0.0
 40
0
 41
0
  0
VERTEX
  8
0
 10
5.59467
 20
3.14219
 30
0.0
 40
0
 41
0
  0
VERTEX
  8
0
 10
5.61176
 20
3.13428
 30
0.0
 40
0
 41
0
  0
VERTEX
  8
0
 10
5.62125
 20
3.11996
 30
0.0
 40
0
 41
0
  0
VERTEX
  8
0
 10
5.62125
 20
3.11513
 30
0.0
 40
0
 41
0
  0
SEQEND
 8
0
  0
POLYLINE
  8
0
 62
     0
 66
     1
 10
0
 20
0
 30
0.0
 70
     1
 40
0.664425
 41
0.664425
  0
VERTEX
  8
0
 10
5.62125
 20
3.11513
 30
0.0
 40
0.00922813
 41
0.00922813
  0
VERTEX
  8
0
 10
5.62125
 20
3.11035
 30
0.0
 40
0.00922813
 41
0.00922813
  0
VERTEX
  8
0
 10
5.61176
 20
3.09603
 30
0.0
 40
0.00922813
 41
0.00922813
  0
VERTEX
  8
0
 10
5.59467
 20
3.08806
 30
0.0
 40
0.00922813
 41
0.00922813
  0
VERTEX
  8
0
 10
5.58897
 20
3.08806
 30
0.0
 40
0.00922813
 41
0.00922813
  0
VERTEX
  8
0
 10
5.58322
 20
3.08806
 30
0.0
 40
0.00922813
 41
0.00922813
  0
VERTEX
  8
0
 10
5.56608
 20
3.09603
 30
0.0
 40
0.00922813
 41
0.00922813
  0
VERTEX
  8
0
 10
5.55664
 20
3.11035
 30
0.0
 40
0.00922813
 41
0.00922813
  0
VERTEX
  8
0
 10
5.55664
 20
3.11513
 30
0.0
 40
0.00922813
 41
0.00922813
  0
VERTEX
  8
0
 10
5.55664
 20
3.11996
 30
0.0
 40
0.00922813
 41
0.00922813
  0
VERTEX
  8
0
 10
5.56608
 20
3.13428
 30
0.0
 40
0.00922813
 41
0.00922813
  0
VERTEX
  8
0
 10
5.58322
 20
3.14219
 30
0.0
 40
0.00922813
 41
0.00922813
  0
VERTEX
  8
0
 10
5.58897
 20
3.14219
 30
0.0
 40
0.00922813
 41
0.00922813
  0
VERTEX
  8
0
 10
5.59467
 20
3.14219
 30
0.0
 40
0.00922813
 41
0.00922813
  0
VERTEX
  8
0
 10
5.61176
 20
3.13428
 30
0.0
 40
0.00922813
 41
0.00922813
  0
VERTEX
  8
0
 10
5.62125
 20
3.11996
 30
0.0
 40
0.00922813
 41
0.00922813
  0
VERTEX
  8
0
 10
5.62125
 20
3.11513
 30
0.0
 40
0.00922813
 41
0.00922813
  0
SEQEND
 8
0
  0
POLYLINE
  8
0
 62
     7
 66
     1
 10
0
 20
0
 30
0.0
 70
     1
 40
0
 41
0
  0
VERTEX
  8
0
 10
5.60742
 20
3.11513
 30
0.0
 40
0
 41
0
  0
VERTEX
  8
0
 10
5.60742
 20
3.11242
 30
0.0
 40
0
 41
0
  0
VERTEX
  8
0
 10
5.602
 20
3.10422
 30
0.0
 40
0
 41
0
  0
VERTEX
  8
0
 10
5.59224
 20
3.09967
 30
0.0
 40
0
 41
0
  0
VERTEX
  8
0
 10
5.58897
 20
3.09967
 30
0.0
 40
0
 41
0
  0
VERTEX
  8
0
 10
5.58567
 20
3.09967
 30
0.0
 40
0
 41
0
  0
VERTEX
  8
0
 10
5.5759
 20
3.10422
 30
0.0
 40
0
 41
0
  0
VERTEX
  8
0
 10
5.57053
 20
3.11242
 30
0.0
 40
0
 41
0
  0
VERTEX
  8
0
 10
5.57053
 20
3.11513
 30
0.0
 40
0
 41
0
  0
VERTEX
  8
0
 10
5.57053
 20
3.11789
 30
0.0
 40
0
 41
0
  0
VERTEX
  8
0
 10
5.5759
 20
3.12608
 30
0.0
 40
0
 41
0
  0
VERTEX
  8
0
 10
5.58567
 20
3.13058
 30
0.0
 40
0
 41
0
  0
VERTEX
  8
0
 10
5.58897
 20
3.13058
 30
0.0
 40
0
 41
0
  0
VERTEX
  8
0
 10
5.59224
 20
3.13058
 30
0.0
 40
0
 41
0
  0
VERTEX
  8
0
 10
5.602
 20
3.12608
 30
0.0
 40
0
 41
0
  0
VERTEX
  8
0
 10
5.60742
 20
3.11789
 30
0.0
 40
0
 41
0
  0
VERTEX
  8
0
 10
5.60742
 20
3.11513
 30
0.0
 40
0
 41
0
  0
SEQEND
 8
0
  0
POLYLINE
  8
0
 62
     0
 66
     1
 10
0
 20
0
 30
0.0
 70
     1
 40
0.664425
 41
0.664425
  0
VERTEX
  8
0
 10
5.60742
 20
3.11513
 30
0.0
 40
0.00922813
 41
0.00922813
  0
VERTEX
  8
0
 10
5.60742
 20
3.11242
 30
0.0
 40
0.00922813
 41
0.00922813
  0
VERTEX
  8
0
 10
5.602
 20
3.10422
 30
0.0
 40
0.00922813
 41
0.00922813
  0
VERTEX
  8
0
 10
5.59224
 20
3.09967
 30
0.0
 40
0.00922813
 41
0.00922813
  0
VERTEX
  8
0
 10
5.58897
 20
3.09967
 30
0.0
 40
0.00922813
 41
0.00922813
  0
VERTEX
  8
0
 10
5.58567
 20
3.09967
 30
0.0
 40
0.00922813
 41
0.00922813
  0
VERTEX
  8
0
 10
5.5759
 20
3.10422
 30
0.0
 40
0.00922813
 41
0.00922813
  0
VERTEX
  8
0
 10
5.57053
 20
3.11242
 30
0.0
 40
0.00922813
 41
0.00922813
  0
VERTEX
  8
0
 10
5.57053
 20
3.11513
 30
0.0
 40
0.00922813
 41
0.00922813
  0
VERTEX
  8
0
 10
5.57053
 20
3.11789
 30
0.0
 40
0.00922813
 41
0.00922813
  0
VERTEX
  8
0
 10
5.5759
 20
3.12608
 30
0.0
 40
0.00922813
 41
0.00922813
  0
VERTEX
  8
0
 10
5.58567
 20
3.13058
 30
0.0
 40
0.00922813
 41
0.00922813
  0
VERTEX
  8
0
 10
5.58897
 20
3.13058
 30
0.0
 40
0.00922813
 41
0.00922813
  0
VERTEX
  8
0
 10
5.59224
 20
3.13058
 30
0.0
 40
0.00922813
 41
0.00922813
  0
VERTEX
  8
0
 10
5.602
 20
3.12608
 30
0.0
 40
0.00922813
 41
0.00922813
  0
VERTEX
  8
0
 10
5.60742
 20
3.11789
 30
0.0
 40
0.00922813
 41
0.00922813
  0
VERTEX
  8
0
 10
5.60742
 20
3.11513
 30
0.0
 40
0.00922813
 41
0.00922813
  0
SEQEND
 8
0
  0
POLYLINE
  8
0
 62
     7
 66
     1
 10
0
 20
0
 30
0.0
 70
     1
 40
0
 41
0
  0
VERTEX
  8
0
 10
5.56125
 20
3.32389
 30
0.0
 40
0
 41
0
  0
VERTEX
  8
0
 10
5.61664
 20
3.32389
 30
0.0
 40
0
 41
0
  0
VERTEX
  8
0
 10
5.61664
 20
3.21565
 30
0.0
 40
0
 41
0
  0
VERTEX
  8
0
 10
5.56125
 20
3.21565
 30
0.0
 40
0
 41
0
  0
VERTEX
  8
0
 10
5.56125
 20
3.32389
 30
0.0
 40
0
 41
0
  0
SEQEND
 8
0
  0
POLYLINE
  8
0
 62
     0
 66
     1
 10
0
 20
0
 30
0.0
 70
     1
 40
0.664425
 41
0.664425
  0
VERTEX
  8
0
 10
5.56125
 20
3.32389
 30
0.0
 40
0.00922813
 41
0.00922813
  0
VERTEX
  8
0
 10
5.61664
 20
3.32389
 30
0.0
 40
0.00922813
 41
0.00922813
  0
VERTEX
  8
0
 10
5.61664
 20
3.21565
 30
0.0
 40
0.00922813
 41
0.00922813
  0
VERTEX
  8
0
 10
5.56125
 20
3.21565
 30
0.0
 40
0.00922813
 41
0.00922813
  0
VERTEX
  8
0
 10
5.56125
 20
3.32389
 30
0.0
 40
0.00922813
 41
0.00922813
  0
SEQEND
 8
0
  0
POLYLINE
  8
0
 62
     0
 66
     1
 10
0
 20
0
 30
0.0
 70
     1
 40
0.75
 41
0.75
  0
VERTEX
  8
0
 10
5.21881
 20
3.32389
 30
0.0
 40
0.0104167
 41
0.0104167
  0
VERTEX
  8
0
 10
5.90842
 20
3.32389
 30
0.0
 40
0.0104167
 41
0.0104167
  0
VERTEX
  8
0
 10
5.90842
 20
3.17215
 30
0.0
 40
0.0104167
 41
0.0104167
  0
VERTEX
  8
0
 10
5.21881
 20
3.17215
 30
0.0
 40
0.0104167
 41
0.0104167
  0
VERTEX
  8
0
 10
5.21881
 20
3.32389
 30
0.0
 40
0.0104167
 41
0.0104167
  0
SEQEND
 8
0
  0
POLYLINE
  8
0
 62
     7
 66
     1
 10
0
 20
0
 30
0.0
 70
     1
 40
0
 41
0
  0
VERTEX
  8
0
 10
5.92003
 20
2.19287
 30
0.0
 40
0
 41
0
  0
VERTEX
  8
0
 10
6.81879
 20
2.19287
 30
0.0
 40
0
 41
0
  0
VERTEX
  8
0
 10
6.81879
 20
2.16683
 30
0.0
 40
0
 41
0
  0
VERTEX
  8
0
 10
5.92003
 20
2.16683
 30
0.0
 40
0
 41
0
  0
VERTEX
  8
0
 10
5.92003
 20
2.19287
 30
0.0
 40
0
 41
0
  0
SEQEND
 8
0
  0
POLYLINE
  8
0
 62
     0
 66
     1
 10
0
 20
0
 30
0.0
 70
     1
 40
0.75
 41
0.75
  0
VERTEX
  8
0
 10
5.92003
 20
2.19287
 30
0.0
 40
0.0104167
 41
0.0104167
  0
VERTEX
  8
0
 10
5.92003
 20
2.16683
 30
0.0
 40
0.0104167
 41
0.0104167
  0
VERTEX
  8
0
 10
6.81879
 20
2.16683
 30
0.0
 40
0.0104167
 41
0.0104167
  0
VERTEX
  8
0
 10
6.81879
 20
2.19287
 30
0.0
 40
0.0104167
 41
0.0104167
  0
VERTEX
  8
0
 10
5.92003
 20
2.19287
 30
0.0
 40
0.0104167
 41
0.0104167
  0
SEQEND
 8
0
  0
POLYLINE
  8
0
 62
     7
 66
     1
 10
0
 20
0
 30
0.0
 70
     1
 40
0
 41
0
  0
VERTEX
  8
0
 10
5.92003
 20
2.19287
 30
0.0
 40
0
 41
0
  0
VERTEX
  8
0
 10
6.81879
 20
2.19287
 30
0.0
 40
0
 41
0
  0
VERTEX
  8
0
 10
6.81879
 20
2.16683
 30
0.0
 40
0
 41
0
  0
VERTEX
  8
0
 10
5.92003
 20
2.16683
 30
0.0
 40
0
 41
0
  0
VERTEX
  8
0
 10
5.92003
 20
2.19287
 30
0.0
 40
0
 41
0
  0
SEQEND
 8
0
  0
POLYLINE
  8
0
 62
     0
 66
     1
 10
0
 20
0
 30
0.0
 70
     1
 40
0.75
 41
0.75
  0
VERTEX
  8
0
 10
5.92003
 20
2.19287
 30
0.0
 40
0.0104167
 41
0.0104167
  0
VERTEX
  8
0
 10
5.92003
 20
2.16683
 30
0.0
 40
0.0104167
 41
0.0104167
  0
VERTEX
  8
0
 10
6.81879
 20
2.16683
 30
0.0
 40
0.0104167
 41
0.0104167
  0
VERTEX
  8
0
 10
6.81879
 20
2.19287
 30
0.0
 40
0.0104167
 41
0.0104167
  0
VERTEX
  8
0
 10
5.92003
 20
2.19287
 30
0.0
 40
0.0104167
 41
0.0104167
  0
SEQEND
 8
0
  0
POLYLINE
  8
0
 62
     7
 66
     1
 10
0
 20
0
 30
0.0
 70
     1
 40
0
 41
0
  0
VERTEX
  8
0
 10
2.90989
 20
4.35715
 30
0.0
 40
0
 41
0
  0
VERTEX
  8
0
 10
3.59517
 20
4.35715
 30
0.0
 40
0
 41
0
  0
VERTEX
  8
0
 10
3.59517
 20
3.67974
 30
0.0
 40
0
 41
0
  0
VERTEX
  8
0
 10
2.90989
 20
3.67974
 30
0.0
 40
0
 41
0
  0
VERTEX
  8
0
 10
2.90989
 20
4.35715
 30
0.0
 40
0
 41
0
  0
SEQEND
 8
0
  0
POLYLINE
  8
0
 62
     0
 66
     1
 10
0
 20
0
 30
0.0
 70
     1
 40
0.75
 41
0.75
  0
VERTEX
  8
0
 10
2.90989
 20
4.35715
 30
0.0
 40
0.0104167
 41
0.0104167
  0
VERTEX
  8
0
 10
3.59517
 20
4.35715
 30
0.0
 40
0.0104167
 41
0.0104167
  0
VERTEX
  8
0
 10
3.59517
 20
3.67974
 30
0.0
 40
0.0104167
 41
0.0104167
  0
VERTEX
  8
0
 10
2.90989
 20
3.67974
 30
0.0
 40
0.0104167
 41
0.0104167
  0
VERTEX
  8
0
 10
2.90989
 20
4.35715
 30
0.0
 40
0.0104167
 41
0.0104167
  0
SEQEND
 8
0
  0
ENDSEC
  0
EOF
