  0
SECTION
  2
HEADER
  9
$ACADVER
  1
AC1009
  9
$FILLMODE
 70
 0
  9
$SPLFRAME
 70
 1
  9
$EXTMIN
 10
0
 20
0
 30
0.0
  9
$EXTMAX
 10
41.6667
 20
41.6667
 30
0.0
  0
ENDSEC
  0
SECTION
  2
TABLES
  0
TABLE
  2
LAYER
 70
1
  0
LAYER
  2
0
 70
     0
 62
     7
  6
CONTINUOUS
  0
ENDTAB
  0
ENDSEC
  0
SECTION
  2
ENTITIES
  0
POLYLINE
  8
0
 62
     7
 66
     1
 10
0
 20
0
 30
0.0
 70
     1
 40
0
 41
0
  0
VERTEX
  8
0
 10
4.16385
 20
5.01275
 30
0.0
 40
0
 41
0
  0
VERTEX
  8
0
 10
5.36008
 20
5.01275
 30
0.0
 40
0
 41
0
  0
VERTEX
  8
0
 10
5.36008
 20
3.23981
 30
0.0
 40
0
 41
0
  0
VERTEX
  8
0
 10
4.16385
 20
3.23981
 30
0.0
 40
0
 41
0
  0
VERTEX
  8
0
 10
4.16385
 20
5.01275
 30
0.0
 40
0
 41
0
  0
SEQEND
 8
0
  0
POLYLINE
  8
0
 62
     7
 66
     1
 10
0
 20
0
 30
0.0
 70
     1
 40
0.15
 41
0.15
  0
VERTEX
  8
0
 10
4.16385
 20
5.01275
 30
0.0
 40
0.00208333
 41
0.00208333
  0
VERTEX
  8
0
 10
5.36008
 20
5.01275
 30
0.0
 40
0.00208333
 41
0.00208333
  0
VERTEX
  8
0
 10
5.36008
 20
3.23981
 30
0.0
 40
0.00208333
 41
0.00208333
  0
VERTEX
  8
0
 10
4.16385
 20
3.23981
 30
0.0
 40
0.00208333
 41
0.00208333
  0
VERTEX
  8
0
 10
4.16385
 20
5.01275
 30
0.0
 40
0.00208333
 41
0.00208333
  0
SEQEND
 8
0
  0
TEXT
  8
0
 62
     0
 10
4.37729
 20
3.93396
 30
0.0
 40
0.34375
  1
K
 50
0
  0
TEXT
  8
0
 62
     0
 10
4.61203
 20
3.93396
 30
0.0
 40
0.34375
  1
OM
 50
0
  0
POLYLINE
  8
0
 62
     7
 66
     1
 10
0
 20
0
 30
0.0
 70
     1
 40
0
 41
0
  0
VERTEX
  8
0
 10
0.435547
 20
3.12522
 30
0.0
 40
0
 41
0
  0
VERTEX
  8
0
 10
2.80561
 20
3.12522
 30
0.0
 40
0
 41
0
  0
VERTEX
  8
0
 10
2.80561
 20
1.10162
 30
0.0
 40
0
 41
0
  0
VERTEX
  8
0
 10
0.435547
 20
1.10162
 30
0.0
 40
0
 41
0
  0
VERTEX
  8
0
 10
0.435547
 20
3.12522
 30
0.0
 40
0
 41
0
  0
SEQEND
 8
0
  0
POLYLINE
  8
0
 62
     7
 66
     1
 10
0
 20
0
 30
0.0
 70
     1
 40
0.15
 41
0.15
  0
VERTEX
  8
0
 10
0.435547
 20
3.12522
 30
0.0
 40
0.00208333
 41
0.00208333
  0
VERTEX
  8
0
 10
2.80561
 20
3.12522
 30
0.0
 40
0.00208333
 41
0.00208333
  0
VERTEX
  8
0
 10
2.80561
 20
1.10162
 30
0.0
 40
0.00208333
 41
0.00208333
  0
VERTEX
  8
0
 10
0.435547
 20
1.10162
 30
0.0
 40
0.00208333
 41
0.00208333
  0
VERTEX
  8
0
 10
0.435547
 20
3.12522
 30
0.0
 40
0.00208333
 41
0.00208333
  0
SEQEND
 8
0
  0
TEXT
  8
0
 62
     0
 10
1.39242
 20
1.94861
 30
0.0
 40
0.34375
  1
VH
 50
0
  0
POLYLINE
  8
0
 62
     7
 66
     1
 10
0
 20
0
 30
0.0
 70
     1
 40
0
 41
0
  0
VERTEX
  8
0
 10
0.435547
 20
7.50032
 30
0.0
 40
0
 41
0
  0
VERTEX
  8
0
 10
4.04926
 20
7.50032
 30
0.0
 40
0
 41
0
  0
VERTEX
  8
0
 10
4.04926
 20
3.23981
 30
0.0
 40
0
 41
0
  0
VERTEX
  8
0
 10
0.435547
 20
3.23981
 30
0.0
 40
0
 41
0
  0
VERTEX
  8
0
 10
0.435547
 20
7.50032
 30
0.0
 40
0
 41
0
  0
SEQEND
 8
0
  0
POLYLINE
  8
0
 62
     7
 66
     1
 10
0
 20
0
 30
0.0
 70
     1
 40
0.15
 41
0.15
  0
VERTEX
  8
0
 10
0.435547
 20
7.50032
 30
0.0
 40
0.00208333
 41
0.00208333
  0
VERTEX
  8
0
 10
4.04926
 20
7.50032
 30
0.0
 40
0.00208333
 41
0.00208333
  0
VERTEX
  8
0
 10
4.04926
 20
3.23981
 30
0.0
 40
0.00208333
 41
0.00208333
  0
VERTEX
  8
0
 10
0.435547
 20
3.23981
 30
0.0
 40
0.00208333
 41
0.00208333
  0
VERTEX
  8
0
 10
0.435547
 20
7.50032
 30
0.0
 40
0.00208333
 41
0.00208333
  0
SEQEND
 8
0
  0
TEXT
  8
0
 62
     0
 10
1.89894
 20
5.34267
 30
0.0
 40
0.34375
  1
MH
 50
0
  0
POLYLINE
  8
0
 62
     7
 66
     1
 10
0
 20
0
 30
0.0
 70
     1
 40
0
 41
0
  0
VERTEX
  8
0
 10
5.47467
 20
5.01275
 30
0.0
 40
0
 41
0
  0
VERTEX
  8
0
 10
8.38471
 20
5.01275
 30
0.0
 40
0
 41
0
  0
VERTEX
  8
0
 10
8.38471
 20
3.12522
 30
0.0
 40
0
 41
0
  0
VERTEX
  8
0
 10
5.47467
 20
3.12522
 30
0.0
 40
0
 41
0
  0
VERTEX
  8
0
 10
5.47467
 20
5.01275
 30
0.0
 40
0
 41
0
  0
SEQEND
 8
0
  0
POLYLINE
  8
0
 62
     7
 66
     1
 10
0
 20
0
 30
0.0
 70
     1
 40
0.15
 41
0.15
  0
VERTEX
  8
0
 10
5.47467
 20
5.01275
 30
0.0
 40
0.00208333
 41
0.00208333
  0
VERTEX
  8
0
 10
8.38471
 20
5.01275
 30
0.0
 40
0.00208333
 41
0.00208333
  0
VERTEX
  8
0
 10
8.38471
 20
3.12522
 30
0.0
 40
0.00208333
 41
0.00208333
  0
VERTEX
  8
0
 10
5.47467
 20
3.12522
 30
0.0
 40
0.00208333
 41
0.00208333
  0
VERTEX
  8
0
 10
5.47467
 20
5.01275
 30
0.0
 40
0.00208333
 41
0.00208333
  0
SEQEND
 8
0
  0
TEXT
  8
0
 62
     0
 10
6.26725
 20
3.71182
 30
0.0
 40
0.34375
  1
KPH
 50
0
  0
POLYLINE
  8
0
 62
     7
 66
     1
 10
0
 20
0
 30
0.0
 70
     1
 40
0
 41
0
  0
VERTEX
  8
0
 10
8.50971
 20
6.71283
 30
0.0
 40
0
 41
0
  0
VERTEX
  8
0
 10
16.529
 20
6.71283
 30
0.0
 40
0
 41
0
  0
VERTEX
  8
0
 10
16.529
 20
1.10162
 30
0.0
 40
0
 41
0
  0
VERTEX
  8
0
 10
8.50971
 20
1.10162
 30
0.0
 40
0
 41
0
  0
VERTEX
  8
0
 10
8.50971
 20
6.71283
 30
0.0
 40
0
 41
0
  0
SEQEND
 8
0
  0
POLYLINE
  8
0
 62
     7
 66
     1
 10
0
 20
0
 30
0.0
 70
     1
 40
0.15
 41
0.15
  0
VERTEX
  8
0
 10
8.50971
 20
6.71283
 30
0.0
 40
0.00208333
 41
0.00208333
  0
VERTEX
  8
0
 10
16.529
 20
6.71283
 30
0.0
 40
0.00208333
 41
0.00208333
  0
VERTEX
  8
0
 10
16.529
 20
1.10162
 30
0.0
 40
0.00208333
 41
0.00208333
  0
VERTEX
  8
0
 10
8.50971
 20
1.10162
 30
0.0
 40
0.00208333
 41
0.00208333
  0
VERTEX
  8
0
 10
8.50971
 20
6.71283
 30
0.0
 40
0.00208333
 41
0.00208333
  0
SEQEND
 8
0
  0
TEXT
  8
0
 62
     0
 10
12.3457
 20
3.67368
 30
0.0
 40
0.34375
  1
OH
 50
0
  0
POLYLINE
  8
0
 62
     7
 66
     1
 10
0
 20
0
 30
0.0
 70
     1
 40
0
 41
0
  0
VERTEX
  8
0
 10
5.36008
 20
3.01753
 30
0.0
 40
0
 41
0
  0
VERTEX
  8
0
 10
8.50971
 20
3.01753
 30
0.0
 40
0
 41
0
  0
VERTEX
  8
0
 10
8.50971
 20
1.10162
 30
0.0
 40
0
 41
0
  0
VERTEX
  8
0
 10
2.92019
 20
1.10162
 30
0.0
 40
0
 41
0
  0
VERTEX
  8
0
 10
2.92019
 20
3.12522
 30
0.0
 40
0
 41
0
  0
VERTEX
  8
0
 10
5.36008
 20
3.12522
 30
0.0
 40
0
 41
0
  0
VERTEX
  8
0
 10
5.36008
 20
3.01753
 30
0.0
 40
0
 41
0
  0
SEQEND
 8
0
  0
POLYLINE
  8
0
 62
     7
 66
     1
 10
0
 20
0
 30
0.0
 70
     1
 40
0.15
 41
0.15
  0
VERTEX
  8
0
 10
5.36008
 20
3.01753
 30
0.0
 40
0.00208333
 41
0.00208333
  0
VERTEX
  8
0
 10
8.50971
 20
3.01753
 30
0.0
 40
0.00208333
 41
0.00208333
  0
VERTEX
  8
0
 10
8.50971
 20
1.10162
 30
0.0
 40
0.00208333
 41
0.00208333
  0
VERTEX
  8
0
 10
2.92019
 20
1.10162
 30
0.0
 40
0.00208333
 41
0.00208333
  0
VERTEX
  8
0
 10
2.92019
 20
3.12522
 30
0.0
 40
0.00208333
 41
0.00208333
  0
VERTEX
  8
0
 10
5.36008
 20
3.12522
 30
0.0
 40
0.00208333
 41
0.00208333
  0
VERTEX
  8
0
 10
5.36008
 20
3.01753
 30
0.0
 40
0.00208333
 41
0.00208333
  0
SEQEND
 8
0
  0
TEXT
  8
0
 62
     0
 10
5.60806
 20
1.90739
 30
0.0
 40
0.34375
  1
ET
 50
0
  0
POLYLINE
  8
0
 62
     7
 66
     1
 10
0
 20
0
 30
0.0
 70
     1
 40
0
 41
0
  0
VERTEX
  8
0
 10
8.38471
 20
6.71283
 30
0.0
 40
0
 41
0
  0
VERTEX
  8
0
 10
8.50971
 20
6.71283
 30
0.0
 40
0
 41
0
  0
VERTEX
  8
0
 10
8.50971
 20
5.84392
 30
0.0
 40
0
 41
0
  0
VERTEX
  8
0
 10
8.38471
 20
5.84392
 30
0.0
 40
0
 41
0
  0
VERTEX
  8
0
 10
8.38471
 20
5.13775
 30
0.0
 40
0
 41
0
  0
VERTEX
  8
0
 10
4.16385
 20
5.13775
 30
0.0
 40
0
 41
0
  0
VERTEX
  8
0
 10
4.16385
 20
7.50032
 30
0.0
 40
0
 41
0
  0
VERTEX
  8
0
 10
8.38471
 20
7.50032
 30
0.0
 40
0
 41
0
  0
VERTEX
  8
0
 10
8.38471
 20
6.71283
 30
0.0
 40
0
 41
0
  0
SEQEND
 8
0
  0
POLYLINE
  8
0
 62
     7
 66
     1
 10
0
 20
0
 30
0.0
 70
     1
 40
0.15
 41
0.15
  0
VERTEX
  8
0
 10
8.38471
 20
6.71283
 30
0.0
 40
0.00208333
 41
0.00208333
  0
VERTEX
  8
0
 10
8.50971
 20
6.71283
 30
0.0
 40
0.00208333
 41
0.00208333
  0
VERTEX
  8
0
 10
8.50971
 20
5.84392
 30
0.0
 40
0.00208333
 41
0.00208333
  0
VERTEX
  8
0
 10
8.38471
 20
5.84392
 30
0.0
 40
0.00208333
 41
0.00208333
  0
VERTEX
  8
0
 10
8.38471
 20
5.13775
 30
0.0
 40
0.00208333
 41
0.00208333
  0
VERTEX
  8
0
 10
4.16385
 20
5.13775
 30
0.0
 40
0.00208333
 41
0.00208333
  0
VERTEX
  8
0
 10
4.16385
 20
7.50032
 30
0.0
 40
0.00208333
 41
0.00208333
  0
VERTEX
  8
0
 10
8.38471
 20
7.50032
 30
0.0
 40
0.00208333
 41
0.00208333
  0
VERTEX
  8
0
 10
8.38471
 20
6.71283
 30
0.0
 40
0.00208333
 41
0.00208333
  0
SEQEND
 8
0
  0
TEXT
  8
0
 62
     0
 10
6.2656
 20
6.47017
 30
0.0
 40
0.34375
  1
K
 50
0
  0
POLYLINE
  8
0
 62
     7
 66
     1
 10
0
 20
0
 30
0.0
 70
     1
 40
0
 41
0
  0
VERTEX
  8
0
 10
8.60346
 20
8.92492
 30
0.0
 40
0
 41
0
  0
VERTEX
  8
0
 10
16.529
 20
8.92492
 30
0.0
 40
0
 41
0
  0
VERTEX
  8
0
 10
16.529
 20
6.95242
 30
0.0
 40
0
 41
0
  0
VERTEX
  8
0
 10
8.60346
 20
6.95242
 30
0.0
 40
0
 41
0
  0
VERTEX
  8
0
 10
8.60346
 20
8.92492
 30
0.0
 40
0
 41
0
  0
SEQEND
 8
0
  0
POLYLINE
  8
0
 62
     0
 66
     1
 10
0
 20
0
 30
0.0
 70
     1
 40
0.15
 41
0.15
  0
VERTEX
  8
0
 10
8.60346
 20
8.92492
 30
0.0
 40
0.00208333
 41
0.00208333
  0
VERTEX
  8
0
 10
16.529
 20
8.92492
 30
0.0
 40
0.00208333
 41
0.00208333
  0
VERTEX
  8
0
 10
16.529
 20
6.95242
 30
0.0
 40
0.00208333
 41
0.00208333
  0
VERTEX
  8
0
 10
8.60346
 20
6.95242
 30
0.0
 40
0.00208333
 41
0.00208333
  0
VERTEX
  8
0
 10
8.60346
 20
8.92492
 30
0.0
 40
0.00208333
 41
0.00208333
  0
SEQEND
 8
0
  0
TEXT
  8
0
 62
     0
 10
11.774
 20
7.97988
 30
0.0
 40
0.34375
  1
P
 50
0
  0
TEXT
  8
0
 62
     0
 10
11.973
 20
7.97988
 30
0.0
 40
0.34375
  1
ARVEKE
 50
0
  0
POLYLINE
  8
0
 62
     0
 66
     1
 10
0
 20
0
 30
0.0
 70
     1
 40
0
 41
0
  0
VERTEX
  8
0
 10
0.435547
 20
7.50032
 30
0.0
 40
0
 41
0
  0
VERTEX
  8
0
 10
8.38471
 20
7.50032
 30
0.0
 40
0
 41
0
  0
VERTEX
  8
0
 10
8.60346
 20
7.72949
 30
0.0
 40
0
 41
0
  0
VERTEX
  8
0
 10
0.227214
 20
7.72949
 30
0.0
 40
0
 41
0
  0
VERTEX
  8
0
 10
0.435547
 20
7.50032
 30
0.0
 40
0
 41
0
  0
SEQEND
 8
0
  0
POLYLINE
  8
0
 62
     0
 66
     1
 10
0
 20
0
 30
0.0
 70
     1
 40
0.15
 41
0.15
  0
VERTEX
  8
0
 10
0.435547
 20
7.50032
 30
0.0
 40
0.00208333
 41
0.00208333
  0
VERTEX
  8
0
 10
8.38471
 20
7.50032
 30
0.0
 40
0.00208333
 41
0.00208333
  0
VERTEX
  8
0
 10
8.60346
 20
7.72949
 30
0.0
 40
0.00208333
 41
0.00208333
  0
VERTEX
  8
0
 10
0.227214
 20
7.72949
 30
0.0
 40
0.00208333
 41
0.00208333
  0
VERTEX
  8
0
 10
0.435547
 20
7.50032
 30
0.0
 40
0.00208333
 41
0.00208333
  0
SEQEND
 8
0
  0
POLYLINE
  8
0
 62
     7
 66
     1
 10
0
 20
0
 30
0.0
 70
     1
 40
0
 41
0
  0
VERTEX
  8
0
 10
0.710286
 20
7.72949
 30
0.0
 40
0
 41
0
  0
VERTEX
  8
0
 10
3.78103
 20
7.72949
 30
0.0
 40
0
 41
0
  0
VERTEX
  8
0
 10
3.78103
 20
7.50032
 30
0.0
 40
0
 41
0
  0
VERTEX
  8
0
 10
0.710286
 20
7.50032
 30
0.0
 40
0
 41
0
  0
VERTEX
  8
0
 10
0.710286
 20
7.72949
 30
0.0
 40
0
 41
0
  0
SEQEND
 8
0
  0
POLYLINE
  8
0
 62
     0
 66
     1
 10
0
 20
0
 30
0.0
 70
     1
 40
0.75
 41
0.75
  0
VERTEX
  8
0
 10
0.710286
 20
7.72949
 30
0.0
 40
0.0104167
 41
0.0104167
  0
VERTEX
  8
0
 10
3.78103
 20
7.72949
 30
0.0
 40
0.0104167
 41
0.0104167
  0
VERTEX
  8
0
 10
3.78103
 20
7.50032
 30
0.0
 40
0.0104167
 41
0.0104167
  0
VERTEX
  8
0
 10
0.710286
 20
7.50032
 30
0.0
 40
0.0104167
 41
0.0104167
  0
VERTEX
  8
0
 10
0.710286
 20
7.72949
 30
0.0
 40
0.0104167
 41
0.0104167
  0
SEQEND
 8
0
  0
POLYLINE
  8
0
 62
     7
 66
     1
 10
0
 20
0
 30
0.0
 70
     1
 40
0
 41
0
  0
VERTEX
  8
0
 10
0.710286
 20
7.72949
 30
0.0
 40
0
 41
0
  0
VERTEX
  8
0
 10
3.78103
 20
7.72949
 30
0.0
 40
0
 41
0
  0
VERTEX
  8
0
 10
3.78103
 20
7.50032
 30
0.0
 40
0
 41
0
  0
VERTEX
  8
0
 10
0.710286
 20
7.50032
 30
0.0
 40
0
 41
0
  0
VERTEX
  8
0
 10
0.710286
 20
7.72949
 30
0.0
 40
0
 41
0
  0
SEQEND
 8
0
  0
POLYLINE
  8
0
 62
     0
 66
     1
 10
0
 20
0
 30
0.0
 70
     1
 40
0.75
 41
0.75
  0
VERTEX
  8
0
 10
0.710286
 20
7.72949
 30
0.0
 40
0.0104167
 41
0.0104167
  0
VERTEX
  8
0
 10
3.78103
 20
7.72949
 30
0.0
 40
0.0104167
 41
0.0104167
  0
VERTEX
  8
0
 10
3.78103
 20
7.50032
 30
0.0
 40
0.0104167
 41
0.0104167
  0
VERTEX
  8
0
 10
0.710286
 20
7.50032
 30
0.0
 40
0.0104167
 41
0.0104167
  0
VERTEX
  8
0
 10
0.710286
 20
7.72949
 30
0.0
 40
0.0104167
 41
0.0104167
  0
SEQEND
 8
0
  0
POLYLINE
  8
0
 62
     0
 66
     1
 10
0
 20
0
 30
0.0
 40
0.75
 41
0.75
  0
VERTEX
  8
0
 10
0.788411
 20
7.6149
 30
0.0
 40
0.0104167
 41
0.0104167
  0
VERTEX
  8
0
 10
3.7029
 20
7.6149
 30
0.0
 40
0.0104167
 41
0.0104167
  0
SEQEND
 8
0
  0
POLYLINE
  8
0
 62
     0
 66
     1
 10
0
 20
0
 30
0.0
 40
0.75
 41
0.75
  0
VERTEX
  8
0
 10
0.788411
 20
7.50032
 30
0.0
 40
0.0104167
 41
0.0104167
  0
VERTEX
  8
0
 10
0.788411
 20
7.72949
 30
0.0
 40
0.0104167
 41
0.0104167
  0
SEQEND
 8
0
  0
POLYLINE
  8
0
 62
     0
 66
     1
 10
0
 20
0
 30
0.0
 40
0.75
 41
0.75
  0
VERTEX
  8
0
 10
3.7029
 20
7.50032
 30
0.0
 40
0.0104167
 41
0.0104167
  0
VERTEX
  8
0
 10
3.7029
 20
7.72949
 30
0.0
 40
0.0104167
 41
0.0104167
  0
SEQEND
 8
0
  0
POLYLINE
  8
0
 62
     7
 66
     1
 10
0
 20
0
 30
0.0
 70
     1
 40
0
 41
0
  0
VERTEX
  8
0
 10
4.81
 20
7.72949
 30
0.0
 40
0
 41
0
  0
VERTEX
  8
0
 10
8.23969
 20
7.72949
 30
0.0
 40
0
 41
0
  0
VERTEX
  8
0
 10
8.23969
 20
7.50032
 30
0.0
 40
0
 41
0
  0
VERTEX
  8
0
 10
4.81
 20
7.50032
 30
0.0
 40
0
 41
0
  0
VERTEX
  8
0
 10
4.81
 20
7.72949
 30
0.0
 40
0
 41
0
  0
SEQEND
 8
0
  0
POLYLINE
  8
0
 62
     0
 66
     1
 10
0
 20
0
 30
0.0
 70
     1
 40
0.75
 41
0.75
  0
VERTEX
  8
0
 10
4.81
 20
7.72949
 30
0.0
 40
0.0104167
 41
0.0104167
  0
VERTEX
  8
0
 10
8.23969
 20
7.72949
 30
0.0
 40
0.0104167
 41
0.0104167
  0
VERTEX
  8
0
 10
8.23969
 20
7.50032
 30
0.0
 40
0.0104167
 41
0.0104167
  0
VERTEX
  8
0
 10
4.81
 20
7.50032
 30
0.0
 40
0.0104167
 41
0.0104167
  0
VERTEX
  8
0
 10
4.81
 20
7.72949
 30
0.0
 40
0.0104167
 41
0.0104167
  0
SEQEND
 8
0
  0
POLYLINE
  8
0
 62
     7
 66
     1
 10
0
 20
0
 30
0.0
 70
     1
 40
0
 41
0
  0
VERTEX
  8
0
 10
4.81
 20
7.72949
 30
0.0
 40
0
 41
0
  0
VERTEX
  8
0
 10
8.23969
 20
7.72949
 30
0.0
 40
0
 41
0
  0
VERTEX
  8
0
 10
8.23969
 20
7.50032
 30
0.0
 40
0
 41
0
  0
VERTEX
  8
0
 10
4.81
 20
7.50032
 30
0.0
 40
0
 41
0
  0
VERTEX
  8
0
 10
4.81
 20
7.72949
 30
0.0
 40
0
 41
0
  0
SEQEND
 8
0
  0
POLYLINE
  8
0
 62
     0
 66
     1
 10
0
 20
0
 30
0.0
 70
     1
 40
0.75
 41
0.75
  0
VERTEX
  8
0
 10
4.81
 20
7.72949
 30
0.0
 40
0.0104167
 41
0.0104167
  0
VERTEX
  8
0
 10
8.23969
 20
7.72949
 30
0.0
 40
0.0104167
 41
0.0104167
  0
VERTEX
  8
0
 10
8.23969
 20
7.50032
 30
0.0
 40
0.0104167
 41
0.0104167
  0
VERTEX
  8
0
 10
4.81
 20
7.50032
 30
0.0
 40
0.0104167
 41
0.0104167
  0
VERTEX
  8
0
 10
4.81
 20
7.72949
 30
0.0
 40
0.0104167
 41
0.0104167
  0
SEQEND
 8
0
  0
POLYLINE
  8
0
 62
     0
 66
     1
 10
0
 20
0
 30
0.0
 40
0.75
 41
0.75
  0
VERTEX
  8
0
 10
4.88813
 20
7.6149
 30
0.0
 40
0.0104167
 41
0.0104167
  0
VERTEX
  8
0
 10
8.16157
 20
7.6149
 30
0.0
 40
0.0104167
 41
0.0104167
  0
SEQEND
 8
0
  0
POLYLINE
  8
0
 62
     0
 66
     1
 10
0
 20
0
 30
0.0
 40
0.75
 41
0.75
  0
VERTEX
  8
0
 10
4.88813
 20
7.50032
 30
0.0
 40
0.0104167
 41
0.0104167
  0
VERTEX
  8
0
 10
4.88813
 20
7.72949
 30
0.0
 40
0.0104167
 41
0.0104167
  0
SEQEND
 8
0
  0
POLYLINE
  8
0
 62
     0
 66
     1
 10
0
 20
0
 30
0.0
 40
0.75
 41
0.75
  0
VERTEX
  8
0
 10
8.16157
 20
7.50032
 30
0.0
 40
0.0104167
 41
0.0104167
  0
VERTEX
  8
0
 10
8.16157
 20
7.72949
 30
0.0
 40
0.0104167
 41
0.0104167
  0
SEQEND
 8
0
  0
POLYLINE
  8
0
 62
     0
 66
     1
 10
0
 20
0
 30
0.0
 70
     1
 40
0
 41
0
  0
VERTEX
  8
0
 10
8.38471
 20
7.50032
 30
0.0
 40
0
 41
0
  0
VERTEX
  8
0
 10
8.38471
 20
6.71283
 30
0.0
 40
0
 41
0
  0
VERTEX
  8
0
 10
8.60346
 20
6.95242
 30
0.0
 40
0
 41
0
  0
VERTEX
  8
0
 10
8.60346
 20
7.72949
 30
0.0
 40
0
 41
0
  0
VERTEX
  8
0
 10
8.38471
 20
7.50032
 30
0.0
 40
0
 41
0
  0
SEQEND
 8
0
  0
POLYLINE
  8
0
 62
     0
 66
     1
 10
0
 20
0
 30
0.0
 70
     1
 40
0.15
 41
0.15
  0
VERTEX
  8
0
 10
8.38471
 20
7.50032
 30
0.0
 40
0.00208333
 41
0.00208333
  0
VERTEX
  8
0
 10
8.38471
 20
6.71283
 30
0.0
 40
0.00208333
 41
0.00208333
  0
VERTEX
  8
0
 10
8.60346
 20
6.95242
 30
0.0
 40
0.00208333
 41
0.00208333
  0
VERTEX
  8
0
 10
8.60346
 20
7.72949
 30
0.0
 40
0.00208333
 41
0.00208333
  0
VERTEX
  8
0
 10
8.38471
 20
7.50032
 30
0.0
 40
0.00208333
 41
0.00208333
  0
SEQEND
 8
0
  0
POLYLINE
  8
0
 62
     0
 66
     1
 10
0
 20
0
 30
0.0
 70
     1
 40
0
 41
0
  0
VERTEX
  8
0
 10
8.38471
 20
6.71283
 30
0.0
 40
0
 41
0
  0
VERTEX
  8
0
 10
16.529
 20
6.71283
 30
0.0
 40
0
 41
0
  0
VERTEX
  8
0
 10
16.7582
 20
6.95242
 30
0.0
 40
0
 41
0
  0
VERTEX
  8
0
 10
8.60346
 20
6.95242
 30
0.0
 40
0
 41
0
  0
VERTEX
  8
0
 10
8.38471
 20
6.71283
 30
0.0
 40
0
 41
0
  0
SEQEND
 8
0
  0
POLYLINE
  8
0
 62
     0
 66
     1
 10
0
 20
0
 30
0.0
 70
     1
 40
0.15
 41
0.15
  0
VERTEX
  8
0
 10
8.38471
 20
6.71283
 30
0.0
 40
0.00208333
 41
0.00208333
  0
VERTEX
  8
0
 10
16.529
 20
6.71283
 30
0.0
 40
0.00208333
 41
0.00208333
  0
VERTEX
  8
0
 10
16.7582
 20
6.95242
 30
0.0
 40
0.00208333
 41
0.00208333
  0
VERTEX
  8
0
 10
8.60346
 20
6.95242
 30
0.0
 40
0.00208333
 41
0.00208333
  0
VERTEX
  8
0
 10
8.38471
 20
6.71283
 30
0.0
 40
0.00208333
 41
0.00208333
  0
SEQEND
 8
0
  0
POLYLINE
  8
0
 62
     7
 66
     1
 10
0
 20
0
 30
0.0
 70
     1
 40
0
 41
0
  0
VERTEX
  8
0
 10
12.0683
 20
6.95242
 30
0.0
 40
0
 41
0
  0
VERTEX
  8
0
 10
12.8594
 20
6.95242
 30
0.0
 40
0
 41
0
  0
VERTEX
  8
0
 10
12.8594
 20
6.71283
 30
0.0
 40
0
 41
0
  0
VERTEX
  8
0
 10
12.0683
 20
6.71283
 30
0.0
 40
0
 41
0
  0
VERTEX
  8
0
 10
12.0683
 20
6.95242
 30
0.0
 40
0
 41
0
  0
SEQEND
 8
0
  0
POLYLINE
  8
0
 62
     0
 66
     1
 10
0
 20
0
 30
0.0
 70
     1
 40
0.75
 41
0.75
  0
VERTEX
  8
0
 10
12.0683
 20
6.95242
 30
0.0
 40
0.0104167
 41
0.0104167
  0
VERTEX
  8
0
 10
12.8594
 20
6.95242
 30
0.0
 40
0.0104167
 41
0.0104167
  0
VERTEX
  8
0
 10
12.8594
 20
6.71283
 30
0.0
 40
0.0104167
 41
0.0104167
  0
VERTEX
  8
0
 10
12.0683
 20
6.71283
 30
0.0
 40
0.0104167
 41
0.0104167
  0
VERTEX
  8
0
 10
12.0683
 20
6.95242
 30
0.0
 40
0.0104167
 41
0.0104167
  0
SEQEND
 8
0
  0
POLYLINE
  8
0
 62
     7
 66
     1
 10
0
 20
0
 30
0.0
 70
     1
 40
0
 41
0
  0
VERTEX
  8
0
 10
12.0683
 20
6.95242
 30
0.0
 40
0
 41
0
  0
VERTEX
  8
0
 10
12.8594
 20
6.95242
 30
0.0
 40
0
 41
0
  0
VERTEX
  8
0
 10
12.8594
 20
6.71283
 30
0.0
 40
0
 41
0
  0
VERTEX
  8
0
 10
12.0683
 20
6.71283
 30
0.0
 40
0
 41
0
  0
VERTEX
  8
0
 10
12.0683
 20
6.95242
 30
0.0
 40
0
 41
0
  0
SEQEND
 8
0
  0
POLYLINE
  8
0
 62
     0
 66
     1
 10
0
 20
0
 30
0.0
 70
     1
 40
0.75
 41
0.75
  0
VERTEX
  8
0
 10
12.0683
 20
6.95242
 30
0.0
 40
0.0104167
 41
0.0104167
  0
VERTEX
  8
0
 10
12.8594
 20
6.95242
 30
0.0
 40
0.0104167
 41
0.0104167
  0
VERTEX
  8
0
 10
12.8594
 20
6.71283
 30
0.0
 40
0.0104167
 41
0.0104167
  0
VERTEX
  8
0
 10
12.0683
 20
6.71283
 30
0.0
 40
0.0104167
 41
0.0104167
  0
VERTEX
  8
0
 10
12.0683
 20
6.95242
 30
0.0
 40
0.0104167
 41
0.0104167
  0
SEQEND
 8
0
  0
POLYLINE
  8
0
 62
     0
 66
     1
 10
0
 20
0
 30
0.0
 70
     1
 40
0.75
 41
0.75
  0
VERTEX
  8
0
 10
12.8594
 20
6.71283
 30
0.0
 40
0.0104167
 41
0.0104167
  0
VERTEX
  8
0
 10
12.8594
 20
6.6665
 30
0.0
 40
0.0104167
 41
0.0104167
  0
VERTEX
  8
0
 10
12.847
 20
6.52746
 30
0.0
 40
0.0104167
 41
0.0104167
  0
VERTEX
  8
0
 10
12.8099
 20
6.36675
 30
0.0
 40
0.0104167
 41
0.0104167
  0
VERTEX
  8
0
 10
12.7481
 20
6.23079
 30
0.0
 40
0.0104167
 41
0.0104167
  0
VERTEX
  8
0
 10
12.6616
 20
6.11951
 30
0.0
 40
0.0104167
 41
0.0104167
  0
VERTEX
  8
0
 10
12.5503
 20
6.03299
 30
0.0
 40
0.0104167
 41
0.0104167
  0
VERTEX
  8
0
 10
12.4143
 20
5.97119
 30
0.0
 40
0.0104167
 41
0.0104167
  0
VERTEX
  8
0
 10
12.2536
 20
5.93408
 30
0.0
 40
0.0104167
 41
0.0104167
  0
VERTEX
  8
0
 10
12.1146
 20
5.92171
 30
0.0
 40
0.0104167
 41
0.0104167
  0
VERTEX
  8
0
 10
12.0683
 20
5.92171
 30
0.0
 40
0.0104167
 41
0.0104167
  0
VERTEX
  8
0
 10
12.0683
 20
6.71283
 30
0.0
 40
0.0104167
 41
0.0104167
  0
VERTEX
  8
0
 10
12.8594
 20
6.71283
 30
0.0
 40
0.0104167
 41
0.0104167
  0
SEQEND
 8
0
  0
POLYLINE
  8
0
 62
     0
 66
     1
 10
0
 20
0
 30
0.0
 70
     1
 40
0.75
 41
0.75
  0
VERTEX
  8
0
 10
12.8594
 20
6.95242
 30
0.0
 40
0.0104167
 41
0.0104167
  0
VERTEX
  8
0
 10
12.8594
 20
6.99881
 30
0.0
 40
0.0104167
 41
0.0104167
  0
VERTEX
  8
0
 10
12.847
 20
7.13786
 30
0.0
 40
0.0104167
 41
0.0104167
  0
VERTEX
  8
0
 10
12.8099
 20
7.29861
 30
0.0
 40
0.0104167
 41
0.0104167
  0
VERTEX
  8
0
 10
12.7481
 20
7.43457
 30
0.0
 40
0.0104167
 41
0.0104167
  0
VERTEX
  8
0
 10
12.6616
 20
7.54585
 30
0.0
 40
0.0104167
 41
0.0104167
  0
VERTEX
  8
0
 10
12.5503
 20
7.63238
 30
0.0
 40
0.0104167
 41
0.0104167
  0
VERTEX
  8
0
 10
12.4143
 20
7.69417
 30
0.0
 40
0.0104167
 41
0.0104167
  0
VERTEX
  8
0
 10
12.2536
 20
7.73128
 30
0.0
 40
0.0104167
 41
0.0104167
  0
VERTEX
  8
0
 10
12.1146
 20
7.7436
 30
0.0
 40
0.0104167
 41
0.0104167
  0
VERTEX
  8
0
 10
12.0683
 20
7.7436
 30
0.0
 40
0.0104167
 41
0.0104167
  0
VERTEX
  8
0
 10
12.0683
 20
6.95242
 30
0.0
 40
0.0104167
 41
0.0104167
  0
VERTEX
  8
0
 10
12.8594
 20
6.95242
 30
0.0
 40
0.0104167
 41
0.0104167
  0
SEQEND
 8
0
  0
POLYLINE
  8
0
 62
     7
 66
     1
 10
0
 20
0
 30
0.0
 70
     1
 40
0
 41
0
  0
VERTEX
  8
0
 10
8.88574
 20
6.95242
 30
0.0
 40
0
 41
0
  0
VERTEX
  8
0
 10
11.8209
 20
6.95242
 30
0.0
 40
0
 41
0
  0
VERTEX
  8
0
 10
11.8209
 20
6.71283
 30
0.0
 40
0
 41
0
  0
VERTEX
  8
0
 10
8.88574
 20
6.71283
 30
0.0
 40
0
 41
0
  0
VERTEX
  8
0
 10
8.88574
 20
6.95242
 30
0.0
 40
0
 41
0
  0
SEQEND
 8
0
  0
POLYLINE
  8
0
 62
     0
 66
     1
 10
0
 20
0
 30
0.0
 70
     1
 40
0.75
 41
0.75
  0
VERTEX
  8
0
 10
8.88574
 20
6.95242
 30
0.0
 40
0.0104167
 41
0.0104167
  0
VERTEX
  8
0
 10
11.8209
 20
6.95242
 30
0.0
 40
0.0104167
 41
0.0104167
  0
VERTEX
  8
0
 10
11.8209
 20
6.71283
 30
0.0
 40
0.0104167
 41
0.0104167
  0
VERTEX
  8
0
 10
8.88574
 20
6.71283
 30
0.0
 40
0.0104167
 41
0.0104167
  0
VERTEX
  8
0
 10
8.88574
 20
6.95242
 30
0.0
 40
0.0104167
 41
0.0104167
  0
SEQEND
 8
0
  0
POLYLINE
  8
0
 62
     7
 66
     1
 10
0
 20
0
 30
0.0
 70
     1
 40
0
 41
0
  0
VERTEX
  8
0
 10
8.88574
 20
6.95242
 30
0.0
 40
0
 41
0
  0
VERTEX
  8
0
 10
11.8209
 20
6.95242
 30
0.0
 40
0
 41
0
  0
VERTEX
  8
0
 10
11.8209
 20
6.71283
 30
0.0
 40
0
 41
0
  0
VERTEX
  8
0
 10
8.88574
 20
6.71283
 30
0.0
 40
0
 41
0
  0
VERTEX
  8
0
 10
8.88574
 20
6.95242
 30
0.0
 40
0
 41
0
  0
SEQEND
 8
0
  0
POLYLINE
  8
0
 62
     0
 66
     1
 10
0
 20
0
 30
0.0
 70
     1
 40
0.75
 41
0.75
  0
VERTEX
  8
0
 10
8.88574
 20
6.95242
 30
0.0
 40
0.0104167
 41
0.0104167
  0
VERTEX
  8
0
 10
11.8209
 20
6.95242
 30
0.0
 40
0.0104167
 41
0.0104167
  0
VERTEX
  8
0
 10
11.8209
 20
6.71283
 30
0.0
 40
0.0104167
 41
0.0104167
  0
VERTEX
  8
0
 10
8.88574
 20
6.71283
 30
0.0
 40
0.0104167
 41
0.0104167
  0
VERTEX
  8
0
 10
8.88574
 20
6.95242
 30
0.0
 40
0.0104167
 41
0.0104167
  0
SEQEND
 8
0
  0
POLYLINE
  8
0
 62
     0
 66
     1
 10
0
 20
0
 30
0.0
 40
0.75
 41
0.75
  0
VERTEX
  8
0
 10
8.96386
 20
6.83263
 30
0.0
 40
0.0104167
 41
0.0104167
  0
VERTEX
  8
0
 10
11.7427
 20
6.83263
 30
0.0
 40
0.0104167
 41
0.0104167
  0
SEQEND
 8
0
  0
POLYLINE
  8
0
 62
     0
 66
     1
 10
0
 20
0
 30
0.0
 40
0.75
 41
0.75
  0
VERTEX
  8
0
 10
8.96386
 20
6.71283
 30
0.0
 40
0.0104167
 41
0.0104167
  0
VERTEX
  8
0
 10
8.96386
 20
6.95242
 30
0.0
 40
0.0104167
 41
0.0104167
  0
SEQEND
 8
0
  0
POLYLINE
  8
0
 62
     0
 66
     1
 10
0
 20
0
 30
0.0
 40
0.75
 41
0.75
  0
VERTEX
  8
0
 10
11.7427
 20
6.71283
 30
0.0
 40
0.0104167
 41
0.0104167
  0
VERTEX
  8
0
 10
11.7427
 20
6.95242
 30
0.0
 40
0.0104167
 41
0.0104167
  0
SEQEND
 8
0
  0
POLYLINE
  8
0
 62
     7
 66
     1
 10
0
 20
0
 30
0.0
 70
     1
 40
0
 41
0
  0
VERTEX
  8
0
 10
13.0412
 20
6.95242
 30
0.0
 40
0
 41
0
  0
VERTEX
  8
0
 10
16.3513
 20
6.95242
 30
0.0
 40
0
 41
0
  0
VERTEX
  8
0
 10
16.3513
 20
6.71283
 30
0.0
 40
0
 41
0
  0
VERTEX
  8
0
 10
13.0412
 20
6.71283
 30
0.0
 40
0
 41
0
  0
VERTEX
  8
0
 10
13.0412
 20
6.95242
 30
0.0
 40
0
 41
0
  0
SEQEND
 8
0
  0
POLYLINE
  8
0
 62
     0
 66
     1
 10
0
 20
0
 30
0.0
 70
     1
 40
0.75
 41
0.75
  0
VERTEX
  8
0
 10
13.0412
 20
6.95242
 30
0.0
 40
0.0104167
 41
0.0104167
  0
VERTEX
  8
0
 10
16.3513
 20
6.95242
 30
0.0
 40
0.0104167
 41
0.0104167
  0
VERTEX
  8
0
 10
16.3513
 20
6.71283
 30
0.0
 40
0.0104167
 41
0.0104167
  0
VERTEX
  8
0
 10
13.0412
 20
6.71283
 30
0.0
 40
0.0104167
 41
0.0104167
  0
VERTEX
  8
0
 10
13.0412
 20
6.95242
 30
0.0
 40
0.0104167
 41
0.0104167
  0
SEQEND
 8
0
  0
POLYLINE
  8
0
 62
     7
 66
     1
 10
0
 20
0
 30
0.0
 70
     1
 40
0
 41
0
  0
VERTEX
  8
0
 10
13.0412
 20
6.95242
 30
0.0
 40
0
 41
0
  0
VERTEX
  8
0
 10
16.3513
 20
6.95242
 30
0.0
 40
0
 41
0
  0
VERTEX
  8
0
 10
16.3513
 20
6.71283
 30
0.0
 40
0
 41
0
  0
VERTEX
  8
0
 10
13.0412
 20
6.71283
 30
0.0
 40
0
 41
0
  0
VERTEX
  8
0
 10
13.0412
 20
6.95242
 30
0.0
 40
0
 41
0
  0
SEQEND
 8
0
  0
POLYLINE
  8
0
 62
     0
 66
     1
 10
0
 20
0
 30
0.0
 70
     1
 40
0.75
 41
0.75
  0
VERTEX
  8
0
 10
13.0412
 20
6.95242
 30
0.0
 40
0.0104167
 41
0.0104167
  0
VERTEX
  8
0
 10
16.3513
 20
6.95242
 30
0.0
 40
0.0104167
 41
0.0104167
  0
VERTEX
  8
0
 10
16.3513
 20
6.71283
 30
0.0
 40
0.0104167
 41
0.0104167
  0
VERTEX
  8
0
 10
13.0412
 20
6.71283
 30
0.0
 40
0.0104167
 41
0.0104167
  0
VERTEX
  8
0
 10
13.0412
 20
6.95242
 30
0.0
 40
0.0104167
 41
0.0104167
  0
SEQEND
 8
0
  0
POLYLINE
  8
0
 62
     0
 66
     1
 10
0
 20
0
 30
0.0
 40
0.75
 41
0.75
  0
VERTEX
  8
0
 10
13.1194
 20
6.83263
 30
0.0
 40
0.0104167
 41
0.0104167
  0
VERTEX
  8
0
 10
16.2731
 20
6.83263
 30
0.0
 40
0.0104167
 41
0.0104167
  0
SEQEND
 8
0
  0
POLYLINE
  8
0
 62
     0
 66
     1
 10
0
 20
0
 30
0.0
 40
0.75
 41
0.75
  0
VERTEX
  8
0
 10
13.1194
 20
6.71283
 30
0.0
 40
0.0104167
 41
0.0104167
  0
VERTEX
  8
0
 10
13.1194
 20
6.95242
 30
0.0
 40
0.0104167
 41
0.0104167
  0
SEQEND
 8
0
  0
POLYLINE
  8
0
 62
     0
 66
     1
 10
0
 20
0
 30
0.0
 40
0.75
 41
0.75
  0
VERTEX
  8
0
 10
16.2731
 20
6.71283
 30
0.0
 40
0.0104167
 41
0.0104167
  0
VERTEX
  8
0
 10
16.2731
 20
6.95242
 30
0.0
 40
0.0104167
 41
0.0104167
  0
SEQEND
 8
0
  0
POLYLINE
  8
0
 62
     0
 66
     1
 10
0
 20
0
 30
0.0
 70
     1
 40
0
 41
0
  0
VERTEX
  8
0
 10
16.7582
 20
6.95242
 30
0.0
 40
0
 41
0
  0
VERTEX
  8
0
 10
16.7582
 20
0.87245
 30
0.0
 40
0
 41
0
  0
VERTEX
  8
0
 10
16.529
 20
1.10162
 30
0.0
 40
0
 41
0
  0
VERTEX
  8
0
 10
16.529
 20
6.71283
 30
0.0
 40
0
 41
0
  0
VERTEX
  8
0
 10
16.7582
 20
6.95242
 30
0.0
 40
0
 41
0
  0
SEQEND
 8
0
  0
POLYLINE
  8
0
 62
     0
 66
     1
 10
0
 20
0
 30
0.0
 70
     1
 40
0.15
 41
0.15
  0
VERTEX
  8
0
 10
16.7582
 20
6.95242
 30
0.0
 40
0.00208333
 41
0.00208333
  0
VERTEX
  8
0
 10
16.7582
 20
0.87245
 30
0.0
 40
0.00208333
 41
0.00208333
  0
VERTEX
  8
0
 10
16.529
 20
1.10162
 30
0.0
 40
0.00208333
 41
0.00208333
  0
VERTEX
  8
0
 10
16.529
 20
6.71283
 30
0.0
 40
0.00208333
 41
0.00208333
  0
VERTEX
  8
0
 10
16.7582
 20
6.95242
 30
0.0
 40
0.00208333
 41
0.00208333
  0
SEQEND
 8
0
  0
POLYLINE
  8
0
 62
     0
 66
     1
 10
0
 20
0
 30
0.0
 70
     1
 40
0
 41
0
  0
VERTEX
  8
0
 10
16.7582
 20
0.87245
 30
0.0
 40
0
 41
0
  0
VERTEX
  8
0
 10
0.227214
 20
0.87245
 30
0.0
 40
0
 41
0
  0
VERTEX
  8
0
 10
0.435547
 20
1.10162
 30
0.0
 40
0
 41
0
  0
VERTEX
  8
0
 10
16.529
 20
1.10162
 30
0.0
 40
0
 41
0
  0
VERTEX
  8
0
 10
16.7582
 20
0.87245
 30
0.0
 40
0
 41
0
  0
SEQEND
 8
0
  0
POLYLINE
  8
0
 62
     0
 66
     1
 10
0
 20
0
 30
0.0
 70
     1
 40
0.15
 41
0.15
  0
VERTEX
  8
0
 10
16.7582
 20
0.87245
 30
0.0
 40
0.00208333
 41
0.00208333
  0
VERTEX
  8
0
 10
0.227214
 20
0.87245
 30
0.0
 40
0.00208333
 41
0.00208333
  0
VERTEX
  8
0
 10
0.435547
 20
1.10162
 30
0.0
 40
0.00208333
 41
0.00208333
  0
VERTEX
  8
0
 10
16.529
 20
1.10162
 30
0.0
 40
0.00208333
 41
0.00208333
  0
VERTEX
  8
0
 10
16.7582
 20
0.87245
 30
0.0
 40
0.00208333
 41
0.00208333
  0
SEQEND
 8
0
  0
POLYLINE
  8
0
 62
     7
 66
     1
 10
0
 20
0
 30
0.0
 70
     1
 40
0
 41
0
  0
VERTEX
  8
0
 10
4.28521
 20
1.10162
 30
0.0
 40
0
 41
0
  0
VERTEX
  8
0
 10
5.15115
 20
1.10162
 30
0.0
 40
0
 41
0
  0
VERTEX
  8
0
 10
5.15115
 20
0.87245
 30
0.0
 40
0
 41
0
  0
VERTEX
  8
0
 10
4.28521
 20
0.87245
 30
0.0
 40
0
 41
0
  0
VERTEX
  8
0
 10
4.28521
 20
1.10162
 30
0.0
 40
0
 41
0
  0
SEQEND
 8
0
  0
POLYLINE
  8
0
 62
     0
 66
     1
 10
0
 20
0
 30
0.0
 70
     1
 40
0.75
 41
0.75
  0
VERTEX
  8
0
 10
4.28521
 20
1.10162
 30
0.0
 40
0.0104167
 41
0.0104167
  0
VERTEX
  8
0
 10
5.15115
 20
1.10162
 30
0.0
 40
0.0104167
 41
0.0104167
  0
VERTEX
  8
0
 10
5.15115
 20
0.87245
 30
0.0
 40
0.0104167
 41
0.0104167
  0
VERTEX
  8
0
 10
4.28521
 20
0.87245
 30
0.0
 40
0.0104167
 41
0.0104167
  0
VERTEX
  8
0
 10
4.28521
 20
1.10162
 30
0.0
 40
0.0104167
 41
0.0104167
  0
SEQEND
 8
0
  0
POLYLINE
  8
0
 62
     7
 66
     1
 10
0
 20
0
 30
0.0
 70
     1
 40
0
 41
0
  0
VERTEX
  8
0
 10
4.28521
 20
1.10162
 30
0.0
 40
0
 41
0
  0
VERTEX
  8
0
 10
5.15115
 20
1.10162
 30
0.0
 40
0
 41
0
  0
VERTEX
  8
0
 10
5.15115
 20
0.87245
 30
0.0
 40
0
 41
0
  0
VERTEX
  8
0
 10
4.28521
 20
0.87245
 30
0.0
 40
0
 41
0
  0
VERTEX
  8
0
 10
4.28521
 20
1.10162
 30
0.0
 40
0
 41
0
  0
SEQEND
 8
0
  0
POLYLINE
  8
0
 62
     0
 66
     1
 10
0
 20
0
 30
0.0
 70
     1
 40
0.75
 41
0.75
  0
VERTEX
  8
0
 10
4.28521
 20
1.10162
 30
0.0
 40
0.0104167
 41
0.0104167
  0
VERTEX
  8
0
 10
5.15115
 20
1.10162
 30
0.0
 40
0.0104167
 41
0.0104167
  0
VERTEX
  8
0
 10
5.15115
 20
0.87245
 30
0.0
 40
0.0104167
 41
0.0104167
  0
VERTEX
  8
0
 10
4.28521
 20
0.87245
 30
0.0
 40
0.0104167
 41
0.0104167
  0
VERTEX
  8
0
 10
4.28521
 20
1.10162
 30
0.0
 40
0.0104167
 41
0.0104167
  0
SEQEND
 8
0
  0
POLYLINE
  8
0
 62
     0
 66
     1
 10
0
 20
0
 30
0.0
 70
     1
 40
0.75
 41
0.75
  0
VERTEX
  8
0
 10
5.15115
 20
0.87245
 30
0.0
 40
0.0104167
 41
0.0104167
  0
VERTEX
  8
0
 10
5.15115
 20
0.821724
 30
0.0
 40
0.0104167
 41
0.0104167
  0
VERTEX
  8
0
 10
5.13758
 20
0.669542
 30
0.0
 40
0.0104167
 41
0.0104167
  0
VERTEX
  8
0
 10
5.097
 20
0.493599
 30
0.0
 40
0.0104167
 41
0.0104167
  0
VERTEX
  8
0
 10
5.02935
 20
0.344781
 30
0.0
 40
0.0104167
 41
0.0104167
  0
VERTEX
  8
0
 10
4.93463
 20
0.223036
 30
0.0
 40
0.0104167
 41
0.0104167
  0
VERTEX
  8
0
 10
4.81288
 20
0.128309
 30
0.0
 40
0.0104167
 41
0.0104167
  0
VERTEX
  8
0
 10
4.66407
 20
0.0606554
 30
0.0
 40
0.0104167
 41
0.0104167
  0
VERTEX
  8
0
 10
4.48812
 20
0.0200738
 30
0.0
 40
0.0104167
 41
0.0104167
  0
VERTEX
  8
0
 10
4.33594
 20
0.00651042
 30
0.0
 40
0.0104167
 41
0.0104167
  0
VERTEX
  8
0
 10
4.28521
 20
0.00651042
 30
0.0
 40
0.0104167
 41
0.0104167
  0
VERTEX
  8
0
 10
4.28521
 20
0.87245
 30
0.0
 40
0.0104167
 41
0.0104167
  0
VERTEX
  8
0
 10
5.15115
 20
0.87245
 30
0.0
 40
0.0104167
 41
0.0104167
  0
SEQEND
 8
0
  0
POLYLINE
  8
0
 62
     0
 66
     1
 10
0
 20
0
 30
0.0
 70
     1
 40
0.75
 41
0.75
  0
VERTEX
  8
0
 10
5.15115
 20
1.10162
 30
0.0
 40
0.0104167
 41
0.0104167
  0
VERTEX
  8
0
 10
5.15115
 20
1.1524
 30
0.0
 40
0.0104167
 41
0.0104167
  0
VERTEX
  8
0
 10
5.13758
 20
1.30458
 30
0.0
 40
0.0104167
 41
0.0104167
  0
VERTEX
  8
0
 10
5.097
 20
1.48047
 30
0.0
 40
0.0104167
 41
0.0104167
  0
VERTEX
  8
0
 10
5.02935
 20
1.62929
 30
0.0
 40
0.0104167
 41
0.0104167
  0
VERTEX
  8
0
 10
4.93463
 20
1.75108
 30
0.0
 40
0.0104167
 41
0.0104167
  0
VERTEX
  8
0
 10
4.81288
 20
1.84581
 30
0.0
 40
0.0104167
 41
0.0104167
  0
VERTEX
  8
0
 10
4.66407
 20
1.91347
 30
0.0
 40
0.0104167
 41
0.0104167
  0
VERTEX
  8
0
 10
4.48812
 20
1.95404
 30
0.0
 40
0.0104167
 41
0.0104167
  0
VERTEX
  8
0
 10
4.33594
 20
1.96756
 30
0.0
 40
0.0104167
 41
0.0104167
  0
VERTEX
  8
0
 10
4.28521
 20
1.96756
 30
0.0
 40
0.0104167
 41
0.0104167
  0
VERTEX
  8
0
 10
4.28521
 20
1.10162
 30
0.0
 40
0.0104167
 41
0.0104167
  0
VERTEX
  8
0
 10
5.15115
 20
1.10162
 30
0.0
 40
0.0104167
 41
0.0104167
  0
SEQEND
 8
0
  0
POLYLINE
  8
0
 62
     0
 66
     1
 10
0
 20
0
 30
0.0
 70
     1
 40
0
 41
0
  0
VERTEX
  8
0
 10
0.435547
 20
1.10162
 30
0.0
 40
0
 41
0
  0
VERTEX
  8
0
 10
0.435547
 20
7.50032
 30
0.0
 40
0
 41
0
  0
VERTEX
  8
0
 10
0.227214
 20
7.72949
 30
0.0
 40
0
 41
0
  0
VERTEX
  8
0
 10
0.227214
 20
0.87245
 30
0.0
 40
0
 41
0
  0
VERTEX
  8
0
 10
0.435547
 20
1.10162
 30
0.0
 40
0
 41
0
  0
SEQEND
 8
0
  0
POLYLINE
  8
0
 62
     0
 66
     1
 10
0
 20
0
 30
0.0
 70
     1
 40
0.15
 41
0.15
  0
VERTEX
  8
0
 10
0.435547
 20
1.10162
 30
0.0
 40
0.00208333
 41
0.00208333
  0
VERTEX
  8
0
 10
0.435547
 20
7.50032
 30
0.0
 40
0.00208333
 41
0.00208333
  0
VERTEX
  8
0
 10
0.227214
 20
7.72949
 30
0.0
 40
0.00208333
 41
0.00208333
  0
VERTEX
  8
0
 10
0.227214
 20
0.87245
 30
0.0
 40
0.00208333
 41
0.00208333
  0
VERTEX
  8
0
 10
0.435547
 20
1.10162
 30
0.0
 40
0.00208333
 41
0.00208333
  0
SEQEND
 8
0
  0
POLYLINE
  8
0
 62
     0
 66
     1
 10
0
 20
0
 30
0.0
 70
     1
 40
0
 41
0
  0
VERTEX
  8
0
 10
4.04926
 20
7.72949
 30
0.0
 40
0
 41
0
  0
VERTEX
  8
0
 10
4.16385
 20
7.72949
 30
0.0
 40
0
 41
0
  0
VERTEX
  8
0
 10
4.16385
 20
3.12522
 30
0.0
 40
0
 41
0
  0
VERTEX
  8
0
 10
4.04926
 20
3.12522
 30
0.0
 40
0
 41
0
  0
VERTEX
  8
0
 10
4.04926
 20
7.72949
 30
0.0
 40
0
 41
0
  0
SEQEND
 8
0
  0
POLYLINE
  8
0
 62
     0
 66
     1
 10
0
 20
0
 30
0.0
 70
     1
 40
0.15
 41
0.15
  0
VERTEX
  8
0
 10
4.04926
 20
7.72949
 30
0.0
 40
0.00208333
 41
0.00208333
  0
VERTEX
  8
0
 10
4.16385
 20
7.72949
 30
0.0
 40
0.00208333
 41
0.00208333
  0
VERTEX
  8
0
 10
4.16385
 20
3.12522
 30
0.0
 40
0.00208333
 41
0.00208333
  0
VERTEX
  8
0
 10
4.04926
 20
3.12522
 30
0.0
 40
0.00208333
 41
0.00208333
  0
VERTEX
  8
0
 10
4.04926
 20
7.72949
 30
0.0
 40
0.00208333
 41
0.00208333
  0
SEQEND
 8
0
  0
POLYLINE
  8
0
 62
     0
 66
     1
 10
0
 20
0
 30
0.0
 70
     1
 40
0
 41
0
  0
VERTEX
  8
0
 10
4.04926
 20
5.13775
 30
0.0
 40
0
 41
0
  0
VERTEX
  8
0
 10
8.50971
 20
5.13775
 30
0.0
 40
0
 41
0
  0
VERTEX
  8
0
 10
8.50971
 20
5.01275
 30
0.0
 40
0
 41
0
  0
VERTEX
  8
0
 10
4.04926
 20
5.01275
 30
0.0
 40
0
 41
0
  0
VERTEX
  8
0
 10
4.04926
 20
5.13775
 30
0.0
 40
0
 41
0
  0
SEQEND
 8
0
  0
POLYLINE
  8
0
 62
     0
 66
     1
 10
0
 20
0
 30
0.0
 70
     1
 40
0.15
 41
0.15
  0
VERTEX
  8
0
 10
4.04926
 20
5.13775
 30
0.0
 40
0.00208333
 41
0.00208333
  0
VERTEX
  8
0
 10
8.50971
 20
5.13775
 30
0.0
 40
0.00208333
 41
0.00208333
  0
VERTEX
  8
0
 10
8.50971
 20
5.01275
 30
0.0
 40
0.00208333
 41
0.00208333
  0
VERTEX
  8
0
 10
4.04926
 20
5.01275
 30
0.0
 40
0.00208333
 41
0.00208333
  0
VERTEX
  8
0
 10
4.04926
 20
5.13775
 30
0.0
 40
0.00208333
 41
0.00208333
  0
SEQEND
 8
0
  0
POLYLINE
  8
0
 62
     0
 66
     1
 10
0
 20
0
 30
0.0
 70
     1
 40
0
 41
0
  0
VERTEX
  8
0
 10
8.38471
 20
5.84392
 30
0.0
 40
0
 41
0
  0
VERTEX
  8
0
 10
8.38471
 20
3.12522
 30
0.0
 40
0
 41
0
  0
VERTEX
  8
0
 10
8.50971
 20
3.01753
 30
0.0
 40
0
 41
0
  0
VERTEX
  8
0
 10
8.50971
 20
5.84392
 30
0.0
 40
0
 41
0
  0
VERTEX
  8
0
 10
8.38471
 20
5.84392
 30
0.0
 40
0
 41
0
  0
SEQEND
 8
0
  0
POLYLINE
  8
0
 62
     0
 66
     1
 10
0
 20
0
 30
0.0
 70
     1
 40
0.15
 41
0.15
  0
VERTEX
  8
0
 10
8.38471
 20
5.84392
 30
0.0
 40
0.00208333
 41
0.00208333
  0
VERTEX
  8
0
 10
8.38471
 20
3.12522
 30
0.0
 40
0.00208333
 41
0.00208333
  0
VERTEX
  8
0
 10
8.50971
 20
3.01753
 30
0.0
 40
0.00208333
 41
0.00208333
  0
VERTEX
  8
0
 10
8.50971
 20
5.84392
 30
0.0
 40
0.00208333
 41
0.00208333
  0
VERTEX
  8
0
 10
8.38471
 20
5.84392
 30
0.0
 40
0.00208333
 41
0.00208333
  0
SEQEND
 8
0
  0
POLYLINE
  8
0
 62
     0
 66
     1
 10
0
 20
0
 30
0.0
 70
     1
 40
0
 41
0
  0
VERTEX
  8
0
 10
8.38471
 20
3.12522
 30
0.0
 40
0
 41
0
  0
VERTEX
  8
0
 10
5.36008
 20
3.12522
 30
0.0
 40
0
 41
0
  0
VERTEX
  8
0
 10
5.36008
 20
3.01753
 30
0.0
 40
0
 41
0
  0
VERTEX
  8
0
 10
8.50971
 20
3.01753
 30
0.0
 40
0
 41
0
  0
VERTEX
  8
0
 10
8.38471
 20
3.12522
 30
0.0
 40
0
 41
0
  0
SEQEND
 8
0
  0
POLYLINE
  8
0
 62
     0
 66
     1
 10
0
 20
0
 30
0.0
 70
     1
 40
0.15
 41
0.15
  0
VERTEX
  8
0
 10
8.38471
 20
3.12522
 30
0.0
 40
0.00208333
 41
0.00208333
  0
VERTEX
  8
0
 10
5.36008
 20
3.12522
 30
0.0
 40
0.00208333
 41
0.00208333
  0
VERTEX
  8
0
 10
5.36008
 20
3.01753
 30
0.0
 40
0.00208333
 41
0.00208333
  0
VERTEX
  8
0
 10
8.50971
 20
3.01753
 30
0.0
 40
0.00208333
 41
0.00208333
  0
VERTEX
  8
0
 10
8.38471
 20
3.12522
 30
0.0
 40
0.00208333
 41
0.00208333
  0
SEQEND
 8
0
  0
POLYLINE
  8
0
 62
     7
 66
     1
 10
0
 20
0
 30
0.0
 70
     1
 40
0
 41
0
  0
VERTEX
  8
0
 10
5.79042
 20
3.12522
 30
0.0
 40
0
 41
0
  0
VERTEX
  8
0
 10
6.47396
 20
3.12522
 30
0.0
 40
0
 41
0
  0
VERTEX
  8
0
 10
6.47396
 20
3.01753
 30
0.0
 40
0
 41
0
  0
VERTEX
  8
0
 10
5.79042
 20
3.01753
 30
0.0
 40
0
 41
0
  0
VERTEX
  8
0
 10
5.79042
 20
3.12522
 30
0.0
 40
0
 41
0
  0
SEQEND
 8
0
  0
POLYLINE
  8
0
 62
     0
 66
     1
 10
0
 20
0
 30
0.0
 70
     1
 40
0.75
 41
0.75
  0
VERTEX
  8
0
 10
5.79042
 20
3.12522
 30
0.0
 40
0.0104167
 41
0.0104167
  0
VERTEX
  8
0
 10
6.47396
 20
3.12522
 30
0.0
 40
0.0104167
 41
0.0104167
  0
VERTEX
  8
0
 10
6.47396
 20
3.01753
 30
0.0
 40
0.0104167
 41
0.0104167
  0
VERTEX
  8
0
 10
5.79042
 20
3.01753
 30
0.0
 40
0.0104167
 41
0.0104167
  0
VERTEX
  8
0
 10
5.79042
 20
3.12522
 30
0.0
 40
0.0104167
 41
0.0104167
  0
SEQEND
 8
0
  0
POLYLINE
  8
0
 62
     7
 66
     1
 10
0
 20
0
 30
0.0
 70
     1
 40
0
 41
0
  0
VERTEX
  8
0
 10
5.79042
 20
3.12522
 30
0.0
 40
0
 41
0
  0
VERTEX
  8
0
 10
6.47396
 20
3.12522
 30
0.0
 40
0
 41
0
  0
VERTEX
  8
0
 10
6.47396
 20
3.01753
 30
0.0
 40
0
 41
0
  0
VERTEX
  8
0
 10
5.79042
 20
3.01753
 30
0.0
 40
0
 41
0
  0
VERTEX
  8
0
 10
5.79042
 20
3.12522
 30
0.0
 40
0
 41
0
  0
SEQEND
 8
0
  0
POLYLINE
  8
0
 62
     0
 66
     1
 10
0
 20
0
 30
0.0
 70
     1
 40
0.75
 41
0.75
  0
VERTEX
  8
0
 10
5.79042
 20
3.12522
 30
0.0
 40
0.0104167
 41
0.0104167
  0
VERTEX
  8
0
 10
6.47396
 20
3.12522
 30
0.0
 40
0.0104167
 41
0.0104167
  0
VERTEX
  8
0
 10
6.47396
 20
3.01753
 30
0.0
 40
0.0104167
 41
0.0104167
  0
VERTEX
  8
0
 10
5.79042
 20
3.01753
 30
0.0
 40
0.0104167
 41
0.0104167
  0
VERTEX
  8
0
 10
5.79042
 20
3.12522
 30
0.0
 40
0.0104167
 41
0.0104167
  0
SEQEND
 8
0
  0
POLYLINE
  8
0
 62
     0
 66
     1
 10
0
 20
0
 30
0.0
 70
     1
 40
0.75
 41
0.75
  0
VERTEX
  8
0
 10
6.47396
 20
3.01753
 30
0.0
 40
0.0104167
 41
0.0104167
  0
VERTEX
  8
0
 10
6.47396
 20
2.97749
 30
0.0
 40
0.0104167
 41
0.0104167
  0
VERTEX
  8
0
 10
6.46326
 20
2.85736
 30
0.0
 40
0.0104167
 41
0.0104167
  0
VERTEX
  8
0
 10
6.43121
 20
2.71853
 30
0.0
 40
0.0104167
 41
0.0104167
  0
VERTEX
  8
0
 10
6.37782
 20
2.60101
 30
0.0
 40
0.0104167
 41
0.0104167
  0
VERTEX
  8
0
 10
6.30306
 20
2.50489
 30
0.0
 40
0.0104167
 41
0.0104167
  0
VERTEX
  8
0
 10
6.20692
 20
2.43012
 30
0.0
 40
0.0104167
 41
0.0104167
  0
VERTEX
  8
0
 10
6.08942
 20
2.37674
 30
0.0
 40
0.0104167
 41
0.0104167
  0
VERTEX
  8
0
 10
5.95057
 20
2.34467
 30
0.0
 40
0.0104167
 41
0.0104167
  0
VERTEX
  8
0
 10
5.83046
 20
2.33399
 30
0.0
 40
0.0104167
 41
0.0104167
  0
VERTEX
  8
0
 10
5.79042
 20
2.33399
 30
0.0
 40
0.0104167
 41
0.0104167
  0
VERTEX
  8
0
 10
5.79042
 20
3.01753
 30
0.0
 40
0.0104167
 41
0.0104167
  0
VERTEX
  8
0
 10
6.47396
 20
3.01753
 30
0.0
 40
0.0104167
 41
0.0104167
  0
SEQEND
 8
0
  0
POLYLINE
  8
0
 62
     0
 66
     1
 10
0
 20
0
 30
0.0
 70
     1
 40
0
 41
0
  0
VERTEX
  8
0
 10
5.47467
 20
3.12522
 30
0.0
 40
0
 41
0
  0
VERTEX
  8
0
 10
5.47467
 20
5.13775
 30
0.0
 40
0
 41
0
  0
VERTEX
  8
0
 10
5.36008
 20
5.13775
 30
0.0
 40
0
 41
0
  0
VERTEX
  8
0
 10
5.36008
 20
3.23981
 30
0.0
 40
0
 41
0
  0
VERTEX
  8
0
 10
5.47467
 20
3.12522
 30
0.0
 40
0
 41
0
  0
SEQEND
 8
0
  0
POLYLINE
  8
0
 62
     0
 66
     1
 10
0
 20
0
 30
0.0
 70
     1
 40
0.15
 41
0.15
  0
VERTEX
  8
0
 10
5.47467
 20
3.12522
 30
0.0
 40
0.00208333
 41
0.00208333
  0
VERTEX
  8
0
 10
5.47467
 20
5.13775
 30
0.0
 40
0.00208333
 41
0.00208333
  0
VERTEX
  8
0
 10
5.36008
 20
5.13775
 30
0.0
 40
0.00208333
 41
0.00208333
  0
VERTEX
  8
0
 10
5.36008
 20
3.23981
 30
0.0
 40
0.00208333
 41
0.00208333
  0
VERTEX
  8
0
 10
5.47467
 20
3.12522
 30
0.0
 40
0.00208333
 41
0.00208333
  0
SEQEND
 8
0
  0
POLYLINE
  8
0
 62
     0
 66
     1
 10
0
 20
0
 30
0.0
 70
     1
 40
0
 41
0
  0
VERTEX
  8
0
 10
0.227214
 20
3.12522
 30
0.0
 40
0
 41
0
  0
VERTEX
  8
0
 10
5.47467
 20
3.12522
 30
0.0
 40
0
 41
0
  0
VERTEX
  8
0
 10
5.36008
 20
3.23981
 30
0.0
 40
0
 41
0
  0
VERTEX
  8
0
 10
0.227214
 20
3.23981
 30
0.0
 40
0
 41
0
  0
VERTEX
  8
0
 10
0.227214
 20
3.12522
 30
0.0
 40
0
 41
0
  0
SEQEND
 8
0
  0
POLYLINE
  8
0
 62
     0
 66
     1
 10
0
 20
0
 30
0.0
 70
     1
 40
0.15
 41
0.15
  0
VERTEX
  8
0
 10
0.227214
 20
3.12522
 30
0.0
 40
0.00208333
 41
0.00208333
  0
VERTEX
  8
0
 10
5.47467
 20
3.12522
 30
0.0
 40
0.00208333
 41
0.00208333
  0
VERTEX
  8
0
 10
5.36008
 20
3.23981
 30
0.0
 40
0.00208333
 41
0.00208333
  0
VERTEX
  8
0
 10
0.227214
 20
3.23981
 30
0.0
 40
0.00208333
 41
0.00208333
  0
VERTEX
  8
0
 10
0.227214
 20
3.12522
 30
0.0
 40
0.00208333
 41
0.00208333
  0
SEQEND
 8
0
  0
POLYLINE
  8
0
 62
     7
 66
     1
 10
0
 20
0
 30
0.0
 70
     1
 40
0
 41
0
  0
VERTEX
  8
0
 10
3.17606
 20
3.23981
 30
0.0
 40
0
 41
0
  0
VERTEX
  8
0
 10
3.87978
 20
3.23981
 30
0.0
 40
0
 41
0
  0
VERTEX
  8
0
 10
3.87978
 20
3.12522
 30
0.0
 40
0
 41
0
  0
VERTEX
  8
0
 10
3.17606
 20
3.12522
 30
0.0
 40
0
 41
0
  0
VERTEX
  8
0
 10
3.17606
 20
3.23981
 30
0.0
 40
0
 41
0
  0
SEQEND
 8
0
  0
POLYLINE
  8
0
 62
     0
 66
     1
 10
0
 20
0
 30
0.0
 70
     1
 40
0.75
 41
0.75
  0
VERTEX
  8
0
 10
3.17606
 20
3.23981
 30
0.0
 40
0.0104167
 41
0.0104167
  0
VERTEX
  8
0
 10
3.87978
 20
3.23981
 30
0.0
 40
0.0104167
 41
0.0104167
  0
VERTEX
  8
0
 10
3.87978
 20
3.12522
 30
0.0
 40
0.0104167
 41
0.0104167
  0
VERTEX
  8
0
 10
3.17606
 20
3.12522
 30
0.0
 40
0.0104167
 41
0.0104167
  0
VERTEX
  8
0
 10
3.17606
 20
3.23981
 30
0.0
 40
0.0104167
 41
0.0104167
  0
SEQEND
 8
0
  0
POLYLINE
  8
0
 62
     7
 66
     1
 10
0
 20
0
 30
0.0
 70
     1
 40
0
 41
0
  0
VERTEX
  8
0
 10
3.17606
 20
3.23981
 30
0.0
 40
0
 41
0
  0
VERTEX
  8
0
 10
3.87978
 20
3.23981
 30
0.0
 40
0
 41
0
  0
VERTEX
  8
0
 10
3.87978
 20
3.12522
 30
0.0
 40
0
 41
0
  0
VERTEX
  8
0
 10
3.17606
 20
3.12522
 30
0.0
 40
0
 41
0
  0
VERTEX
  8
0
 10
3.17606
 20
3.23981
 30
0.0
 40
0
 41
0
  0
SEQEND
 8
0
  0
POLYLINE
  8
0
 62
     0
 66
     1
 10
0
 20
0
 30
0.0
 70
     1
 40
0.75
 41
0.75
  0
VERTEX
  8
0
 10
3.17606
 20
3.23981
 30
0.0
 40
0.0104167
 41
0.0104167
  0
VERTEX
  8
0
 10
3.87978
 20
3.23981
 30
0.0
 40
0.0104167
 41
0.0104167
  0
VERTEX
  8
0
 10
3.87978
 20
3.12522
 30
0.0
 40
0.0104167
 41
0.0104167
  0
VERTEX
  8
0
 10
3.17606
 20
3.12522
 30
0.0
 40
0.0104167
 41
0.0104167
  0
VERTEX
  8
0
 10
3.17606
 20
3.23981
 30
0.0
 40
0.0104167
 41
0.0104167
  0
SEQEND
 8
0
  0
POLYLINE
  8
0
 62
     0
 66
     1
 10
0
 20
0
 30
0.0
 70
     1
 40
0.75
 41
0.75
  0
VERTEX
  8
0
 10
3.17606
 20
3.23981
 30
0.0
 40
0.0104167
 41
0.0104167
  0
VERTEX
  8
0
 10
3.17606
 20
3.28108
 30
0.0
 40
0.0104167
 41
0.0104167
  0
VERTEX
  8
0
 10
3.18701
 20
3.40479
 30
0.0
 40
0.0104167
 41
0.0104167
  0
VERTEX
  8
0
 10
3.22
 20
3.54775
 30
0.0
 40
0.0104167
 41
0.0104167
  0
VERTEX
  8
0
 10
3.27501
 20
3.66868
 30
0.0
 40
0.0104167
 41
0.0104167
  0
VERTEX
  8
0
 10
3.35194
 20
3.76764
 30
0.0
 40
0.0104167
 41
0.0104167
  0
VERTEX
  8
0
 10
3.4509
 20
3.84462
 30
0.0
 40
0.0104167
 41
0.0104167
  0
VERTEX
  8
0
 10
3.57189
 20
3.89963
 30
0.0
 40
0.0104167
 41
0.0104167
  0
VERTEX
  8
0
 10
3.71485
 20
3.93261
 30
0.0
 40
0.0104167
 41
0.0104167
  0
VERTEX
  8
0
 10
3.83854
 20
3.94358
 30
0.0
 40
0.0104167
 41
0.0104167
  0
VERTEX
  8
0
 10
3.87978
 20
3.94358
 30
0.0
 40
0.0104167
 41
0.0104167
  0
VERTEX
  8
0
 10
3.87978
 20
3.23981
 30
0.0
 40
0.0104167
 41
0.0104167
  0
VERTEX
  8
0
 10
3.17606
 20
3.23981
 30
0.0
 40
0.0104167
 41
0.0104167
  0
SEQEND
 8
0
  0
POLYLINE
  8
0
 62
     7
 66
     1
 10
0
 20
0
 30
0.0
 70
     1
 40
0
 41
0
  0
VERTEX
  8
0
 10
4.52582
 20
3.23981
 30
0.0
 40
0
 41
0
  0
VERTEX
  8
0
 10
5.06961
 20
3.23981
 30
0.0
 40
0
 41
0
  0
VERTEX
  8
0
 10
5.06961
 20
3.12522
 30
0.0
 40
0
 41
0
  0
VERTEX
  8
0
 10
4.52582
 20
3.12522
 30
0.0
 40
0
 41
0
  0
VERTEX
  8
0
 10
4.52582
 20
3.23981
 30
0.0
 40
0
 41
0
  0
SEQEND
 8
0
  0
POLYLINE
  8
0
 62
     0
 66
     1
 10
0
 20
0
 30
0.0
 70
     1
 40
0.75
 41
0.75
  0
VERTEX
  8
0
 10
4.52582
 20
3.23981
 30
0.0
 40
0.0104167
 41
0.0104167
  0
VERTEX
  8
0
 10
5.06961
 20
3.23981
 30
0.0
 40
0.0104167
 41
0.0104167
  0
VERTEX
  8
0
 10
5.06961
 20
3.12522
 30
0.0
 40
0.0104167
 41
0.0104167
  0
VERTEX
  8
0
 10
4.52582
 20
3.12522
 30
0.0
 40
0.0104167
 41
0.0104167
  0
VERTEX
  8
0
 10
4.52582
 20
3.23981
 30
0.0
 40
0.0104167
 41
0.0104167
  0
SEQEND
 8
0
  0
POLYLINE
  8
0
 62
     7
 66
     1
 10
0
 20
0
 30
0.0
 70
     1
 40
0
 41
0
  0
VERTEX
  8
0
 10
4.52582
 20
3.23981
 30
0.0
 40
0
 41
0
  0
VERTEX
  8
0
 10
5.06961
 20
3.23981
 30
0.0
 40
0
 41
0
  0
VERTEX
  8
0
 10
5.06961
 20
3.12522
 30
0.0
 40
0
 41
0
  0
VERTEX
  8
0
 10
4.52582
 20
3.12522
 30
0.0
 40
0
 41
0
  0
VERTEX
  8
0
 10
4.52582
 20
3.23981
 30
0.0
 40
0
 41
0
  0
SEQEND
 8
0
  0
POLYLINE
  8
0
 62
     7
 66
     1
 10
0
 20
0
 30
0.0
 70
     1
 40
0.75
 41
0.75
  0
VERTEX
  8
0
 10
4.52582
 20
3.23981
 30
0.0
 40
0.0104167
 41
0.0104167
  0
VERTEX
  8
0
 10
5.06961
 20
3.23981
 30
0.0
 40
0.0104167
 41
0.0104167
  0
VERTEX
  8
0
 10
5.06961
 20
3.12522
 30
0.0
 40
0.0104167
 41
0.0104167
  0
VERTEX
  8
0
 10
4.52582
 20
3.12522
 30
0.0
 40
0.0104167
 41
0.0104167
  0
VERTEX
  8
0
 10
4.52582
 20
3.23981
 30
0.0
 40
0.0104167
 41
0.0104167
  0
SEQEND
 8
0
  0
POLYLINE
  8
0
 62
     0
 66
     1
 10
0
 20
0
 30
0.0
 70
     1
 40
0
 41
0
  0
VERTEX
  8
0
 10
2.80561
 20
3.23981
 30
0.0
 40
0
 41
0
  0
VERTEX
  8
0
 10
2.92019
 20
3.23981
 30
0.0
 40
0
 41
0
  0
VERTEX
  8
0
 10
2.92019
 20
0.87245
 30
0.0
 40
0
 41
0
  0
VERTEX
  8
0
 10
2.80561
 20
0.87245
 30
0.0
 40
0
 41
0
  0
VERTEX
  8
0
 10
2.80561
 20
3.23981
 30
0.0
 40
0
 41
0
  0
SEQEND
 8
0
  0
POLYLINE
  8
0
 62
     0
 66
     1
 10
0
 20
0
 30
0.0
 70
     1
 40
0.15
 41
0.15
  0
VERTEX
  8
0
 10
2.80561
 20
3.23981
 30
0.0
 40
0.00208333
 41
0.00208333
  0
VERTEX
  8
0
 10
2.92019
 20
3.23981
 30
0.0
 40
0.00208333
 41
0.00208333
  0
VERTEX
  8
0
 10
2.92019
 20
0.87245
 30
0.0
 40
0.00208333
 41
0.00208333
  0
VERTEX
  8
0
 10
2.80561
 20
0.87245
 30
0.0
 40
0.00208333
 41
0.00208333
  0
VERTEX
  8
0
 10
2.80561
 20
3.23981
 30
0.0
 40
0.00208333
 41
0.00208333
  0
SEQEND
 8
0
  0
POLYLINE
  8
0
 62
     7
 66
     1
 10
0
 20
0
 30
0.0
 70
     1
 40
0
 41
0
  0
VERTEX
  8
0
 10
2.80561
 20
2.69179
 30
0.0
 40
0
 41
0
  0
VERTEX
  8
0
 10
2.92019
 20
2.69179
 30
0.0
 40
0
 41
0
  0
VERTEX
  8
0
 10
2.92019
 20
1.96485
 30
0.0
 40
0
 41
0
  0
VERTEX
  8
0
 10
2.80561
 20
1.96485
 30
0.0
 40
0
 41
0
  0
VERTEX
  8
0
 10
2.80561
 20
2.69179
 30
0.0
 40
0
 41
0
  0
SEQEND
 8
0
  0
POLYLINE
  8
0
 62
     0
 66
     1
 10
0
 20
0
 30
0.0
 70
     1
 40
0.75
 41
0.75
  0
VERTEX
  8
0
 10
2.80561
 20
2.69179
 30
0.0
 40
0.0104167
 41
0.0104167
  0
VERTEX
  8
0
 10
2.92019
 20
2.69179
 30
0.0
 40
0.0104167
 41
0.0104167
  0
VERTEX
  8
0
 10
2.92019
 20
1.96485
 30
0.0
 40
0.0104167
 41
0.0104167
  0
VERTEX
  8
0
 10
2.80561
 20
1.96485
 30
0.0
 40
0.0104167
 41
0.0104167
  0
VERTEX
  8
0
 10
2.80561
 20
2.69179
 30
0.0
 40
0.0104167
 41
0.0104167
  0
SEQEND
 8
0
  0
POLYLINE
  8
0
 62
     7
 66
     1
 10
0
 20
0
 30
0.0
 70
     1
 40
0
 41
0
  0
VERTEX
  8
0
 10
2.80561
 20
2.69179
 30
0.0
 40
0
 41
0
  0
VERTEX
  8
0
 10
2.92019
 20
2.69179
 30
0.0
 40
0
 41
0
  0
VERTEX
  8
0
 10
2.92019
 20
1.96485
 30
0.0
 40
0
 41
0
  0
VERTEX
  8
0
 10
2.80561
 20
1.96485
 30
0.0
 40
0
 41
0
  0
VERTEX
  8
0
 10
2.80561
 20
2.69179
 30
0.0
 40
0
 41
0
  0
SEQEND
 8
0
  0
POLYLINE
  8
0
 62
     0
 66
     1
 10
0
 20
0
 30
0.0
 70
     1
 40
0.75
 41
0.75
  0
VERTEX
  8
0
 10
2.80561
 20
2.69179
 30
0.0
 40
0.0104167
 41
0.0104167
  0
VERTEX
  8
0
 10
2.92019
 20
2.69179
 30
0.0
 40
0.0104167
 41
0.0104167
  0
VERTEX
  8
0
 10
2.92019
 20
1.96485
 30
0.0
 40
0.0104167
 41
0.0104167
  0
VERTEX
  8
0
 10
2.80561
 20
1.96485
 30
0.0
 40
0.0104167
 41
0.0104167
  0
VERTEX
  8
0
 10
2.80561
 20
2.69179
 30
0.0
 40
0.0104167
 41
0.0104167
  0
SEQEND
 8
0
  0
POLYLINE
  8
0
 62
     0
 66
     1
 10
0
 20
0
 30
0.0
 70
     1
 40
0.75
 41
0.75
  0
VERTEX
  8
0
 10
2.92019
 20
2.69179
 30
0.0
 40
0.0104167
 41
0.0104167
  0
VERTEX
  8
0
 10
2.96278
 20
2.69179
 30
0.0
 40
0.0104167
 41
0.0104167
  0
VERTEX
  8
0
 10
3.09056
 20
2.68044
 30
0.0
 40
0.0104167
 41
0.0104167
  0
VERTEX
  8
0
 10
3.23822
 20
2.64638
 30
0.0
 40
0.0104167
 41
0.0104167
  0
VERTEX
  8
0
 10
3.36317
 20
2.58957
 30
0.0
 40
0.0104167
 41
0.0104167
  0
VERTEX
  8
0
 10
3.46539
 20
2.5101
 30
0.0
 40
0.0104167
 41
0.0104167
  0
VERTEX
  8
0
 10
3.54492
 20
2.40788
 30
0.0
 40
0.0104167
 41
0.0104167
  0
VERTEX
  8
0
 10
3.60172
 20
2.28293
 30
0.0
 40
0.0104167
 41
0.0104167
  0
VERTEX
  8
0
 10
3.63579
 20
2.13525
 30
0.0
 40
0.0104167
 41
0.0104167
  0
VERTEX
  8
0
 10
3.64719
 20
2.00749
 30
0.0
 40
0.0104167
 41
0.0104167
  0
VERTEX
  8
0
 10
3.64719
 20
1.96485
 30
0.0
 40
0.0104167
 41
0.0104167
  0
VERTEX
  8
0
 10
2.92019
 20
1.96485
 30
0.0
 40
0.0104167
 41
0.0104167
  0
VERTEX
  8
0
 10
2.92019
 20
2.69179
 30
0.0
 40
0.0104167
 41
0.0104167
  0
SEQEND
 8
0
  0
POLYLINE
  8
0
 62
     0
 66
     1
 10
0
 20
0
 30
0.0
 70
     1
 40
0
 41
0
  0
VERTEX
  8
0
 10
16.7582
 20
6.95242
 30
0.0
 40
0
 41
0
  0
VERTEX
  8
0
 10
16.7582
 20
9.04992
 30
0.0
 40
0
 41
0
  0
VERTEX
  8
0
 10
16.529
 20
8.92492
 30
0.0
 40
0
 41
0
  0
VERTEX
  8
0
 10
16.529
 20
6.95242
 30
0.0
 40
0
 41
0
  0
VERTEX
  8
0
 10
16.7582
 20
6.95242
 30
0.0
 40
0
 41
0
  0
SEQEND
 8
0
  0
POLYLINE
  8
0
 62
     0
 66
     1
 10
0
 20
0
 30
0.0
 70
     1
 40
0.15
 41
0.15
  0
VERTEX
  8
0
 10
16.7582
 20
6.95242
 30
0.0
 40
0.00208333
 41
0.00208333
  0
VERTEX
  8
0
 10
16.7582
 20
9.04992
 30
0.0
 40
0.00208333
 41
0.00208333
  0
VERTEX
  8
0
 10
16.529
 20
8.92492
 30
0.0
 40
0.00208333
 41
0.00208333
  0
VERTEX
  8
0
 10
16.529
 20
6.95242
 30
0.0
 40
0.00208333
 41
0.00208333
  0
VERTEX
  8
0
 10
16.7582
 20
6.95242
 30
0.0
 40
0.00208333
 41
0.00208333
  0
SEQEND
 8
0
  0
POLYLINE
  8
0
 62
     0
 66
     1
 10
0
 20
0
 30
0.0
 70
     1
 40
0
 41
0
  0
VERTEX
  8
0
 10
16.7582
 20
9.04992
 30
0.0
 40
0
 41
0
  0
VERTEX
  8
0
 10
16.3958
 20
9.04992
 30
0.0
 40
0
 41
0
  0
VERTEX
  8
0
 10
16.3958
 20
8.92492
 30
0.0
 40
0
 41
0
  0
VERTEX
  8
0
 10
16.529
 20
8.92492
 30
0.0
 40
0
 41
0
  0
VERTEX
  8
0
 10
16.7582
 20
9.04992
 30
0.0
 40
0
 41
0
  0
SEQEND
 8
0
  0
POLYLINE
  8
0
 62
     0
 66
     1
 10
0
 20
0
 30
0.0
 70
     1
 40
0.15
 41
0.15
  0
VERTEX
  8
0
 10
16.7582
 20
9.04992
 30
0.0
 40
0.00208333
 41
0.00208333
  0
VERTEX
  8
0
 10
16.3958
 20
9.04992
 30
0.0
 40
0.00208333
 41
0.00208333
  0
VERTEX
  8
0
 10
16.3958
 20
8.92492
 30
0.0
 40
0.00208333
 41
0.00208333
  0
VERTEX
  8
0
 10
16.529
 20
8.92492
 30
0.0
 40
0.00208333
 41
0.00208333
  0
VERTEX
  8
0
 10
16.7582
 20
9.04992
 30
0.0
 40
0.00208333
 41
0.00208333
  0
SEQEND
 8
0
  0
POLYLINE
  8
0
 62
     0
 66
     1
 10
0
 20
0
 30
0.0
 70
     1
 40
0
 41
0
  0
VERTEX
  8
0
 10
8.68039
 20
8.92492
 30
0.0
 40
0
 41
0
  0
VERTEX
  8
0
 10
8.60346
 20
8.92492
 30
0.0
 40
0
 41
0
  0
VERTEX
  8
0
 10
8.38471
 20
9.0395
 30
0.0
 40
0
 41
0
  0
VERTEX
  8
0
 10
8.68039
 20
9.0395
 30
0.0
 40
0
 41
0
  0
VERTEX
  8
0
 10
8.68039
 20
8.92492
 30
0.0
 40
0
 41
0
  0
SEQEND
 8
0
  0
POLYLINE
  8
0
 62
     0
 66
     1
 10
0
 20
0
 30
0.0
 70
     1
 40
0.15
 41
0.15
  0
VERTEX
  8
0
 10
8.68039
 20
8.92492
 30
0.0
 40
0.00208333
 41
0.00208333
  0
VERTEX
  8
0
 10
8.60346
 20
8.92492
 30
0.0
 40
0.00208333
 41
0.00208333
  0
VERTEX
  8
0
 10
8.38471
 20
9.0395
 30
0.0
 40
0.00208333
 41
0.00208333
  0
VERTEX
  8
0
 10
8.68039
 20
9.0395
 30
0.0
 40
0.00208333
 41
0.00208333
  0
VERTEX
  8
0
 10
8.68039
 20
8.92492
 30
0.0
 40
0.00208333
 41
0.00208333
  0
SEQEND
 8
0
  0
POLYLINE
  8
0
 62
     0
 66
     1
 10
0
 20
0
 30
0.0
 70
     1
 40
0
 41
0
  0
VERTEX
  8
0
 10
8.60346
 20
7.72949
 30
0.0
 40
0
 41
0
  0
VERTEX
  8
0
 10
8.60346
 20
8.92492
 30
0.0
 40
0
 41
0
  0
VERTEX
  8
0
 10
8.38471
 20
9.0395
 30
0.0
 40
0
 41
0
  0
VERTEX
  8
0
 10
8.38471
 20
7.72949
 30
0.0
 40
0
 41
0
  0
VERTEX
  8
0
 10
8.60346
 20
7.72949
 30
0.0
 40
0
 41
0
  0
SEQEND
 8
0
  0
POLYLINE
  8
0
 62
     0
 66
     1
 10
0
 20
0
 30
0.0
 70
     1
 40
0.15
 41
0.15
  0
VERTEX
  8
0
 10
8.60346
 20
7.72949
 30
0.0
 40
0.00208333
 41
0.00208333
  0
VERTEX
  8
0
 10
8.60346
 20
8.92492
 30
0.0
 40
0.00208333
 41
0.00208333
  0
VERTEX
  8
0
 10
8.38471
 20
9.0395
 30
0.0
 40
0.00208333
 41
0.00208333
  0
VERTEX
  8
0
 10
8.38471
 20
7.72949
 30
0.0
 40
0.00208333
 41
0.00208333
  0
VERTEX
  8
0
 10
8.60346
 20
7.72949
 30
0.0
 40
0.00208333
 41
0.00208333
  0
SEQEND
 8
0
  0
POLYLINE
  8
0
 62
     7
 66
     1
 10
0
 20
0
 30
0.0
 70
     1
 40
0
 41
0
  0
VERTEX
  8
0
 10
8.68039
 20
9.04992
 30
0.0
 40
0
 41
0
  0
VERTEX
  8
0
 10
16.3958
 20
9.04992
 30
0.0
 40
0
 41
0
  0
VERTEX
  8
0
 10
16.3958
 20
8.92492
 30
0.0
 40
0
 41
0
  0
VERTEX
  8
0
 10
8.68039
 20
8.92492
 30
0.0
 40
0
 41
0
  0
VERTEX
  8
0
 10
8.68039
 20
9.04992
 30
0.0
 40
0
 41
0
  0
SEQEND
 8
0
  0
POLYLINE
  8
0
 62
     0
 66
     1
 10
0
 20
0
 30
0.0
 70
     1
 40
0.15
 41
0.15
  0
VERTEX
  8
0
 10
8.68039
 20
9.04992
 30
0.0
 40
0.00208333
 41
0.00208333
  0
VERTEX
  8
0
 10
16.3958
 20
9.04992
 30
0.0
 40
0.00208333
 41
0.00208333
  0
VERTEX
  8
0
 10
16.3958
 20
8.92492
 30
0.0
 40
0.00208333
 41
0.00208333
  0
VERTEX
  8
0
 10
8.68039
 20
8.92492
 30
0.0
 40
0.00208333
 41
0.00208333
  0
VERTEX
  8
0
 10
8.68039
 20
9.04992
 30
0.0
 40
0.00208333
 41
0.00208333
  0
SEQEND
 8
0
  0
POLYLINE
  8
0
 62
     7
 66
     1
 10
0
 20
0
 30
0.0
 70
     1
 40
0
 41
0
  0
VERTEX
  8
0
 10
6.48779
 20
5.01156
 30
0.0
 40
0
 41
0
  0
VERTEX
  8
0
 10
7.04981
 20
5.01156
 30
0.0
 40
0
 41
0
  0
VERTEX
  8
0
 10
7.04981
 20
4.57992
 30
0.0
 40
0
 41
0
  0
VERTEX
  8
0
 10
6.48779
 20
4.57992
 30
0.0
 40
0
 41
0
  0
VERTEX
  8
0
 10
6.48779
 20
5.01156
 30
0.0
 40
0
 41
0
  0
SEQEND
 8
0
  0
POLYLINE
  8
0
 62
     0
 66
     1
 10
0
 20
0
 30
0.0
 70
     1
 40
0.75
 41
0.75
  0
VERTEX
  8
0
 10
6.48779
 20
5.01156
 30
0.0
 40
0.0104167
 41
0.0104167
  0
VERTEX
  8
0
 10
7.04981
 20
5.01156
 30
0.0
 40
0.0104167
 41
0.0104167
  0
VERTEX
  8
0
 10
7.04981
 20
4.57992
 30
0.0
 40
0.0104167
 41
0.0104167
  0
VERTEX
  8
0
 10
6.48779
 20
4.57992
 30
0.0
 40
0.0104167
 41
0.0104167
  0
VERTEX
  8
0
 10
6.48779
 20
5.01156
 30
0.0
 40
0.0104167
 41
0.0104167
  0
SEQEND
 8
0
  0
POLYLINE
  8
0
 62
     7
 66
     1
 10
0
 20
0
 30
0.0
 70
     1
 40
0
 41
0
  0
VERTEX
  8
0
 10
6.53467
 20
4.91054
 30
0.0
 40
0
 41
0
  0
VERTEX
  8
0
 10
7.00293
 20
4.91054
 30
0.0
 40
0
 41
0
  0
VERTEX
  8
0
 10
7.00293
 20
4.618
 30
0.0
 40
0
 41
0
  0
VERTEX
  8
0
 10
6.53467
 20
4.618
 30
0.0
 40
0
 41
0
  0
VERTEX
  8
0
 10
6.53467
 20
4.91054
 30
0.0
 40
0
 41
0
  0
SEQEND
 8
0
  0
POLYLINE
  8
0
 62
     0
 66
     1
 10
0
 20
0
 30
0.0
 70
     1
 40
0.75
 41
0.75
  0
VERTEX
  8
0
 10
6.53467
 20
4.91054
 30
0.0
 40
0.0104167
 41
0.0104167
  0
VERTEX
  8
0
 10
7.00293
 20
4.91054
 30
0.0
 40
0.0104167
 41
0.0104167
  0
VERTEX
  8
0
 10
7.00293
 20
4.618
 30
0.0
 40
0.0104167
 41
0.0104167
  0
VERTEX
  8
0
 10
6.53467
 20
4.618
 30
0.0
 40
0.0104167
 41
0.0104167
  0
VERTEX
  8
0
 10
6.53467
 20
4.91054
 30
0.0
 40
0.0104167
 41
0.0104167
  0
SEQEND
 8
0
  0
POLYLINE
  8
0
 62
     7
 66
     1
 10
0
 20
0
 30
0.0
 70
     1
 40
0
 41
0
  0
VERTEX
  8
0
 10
6.80524
 20
4.77994
 30
0.0
 40
0
 41
0
  0
VERTEX
  8
0
 10
6.80524
 20
4.77354
 30
0.0
 40
0
 41
0
  0
VERTEX
  8
0
 10
6.79454
 20
4.75418
 30
0.0
 40
0
 41
0
  0
VERTEX
  8
0
 10
6.77518
 20
4.74349
 30
0.0
 40
0
 41
0
  0
VERTEX
  8
0
 10
6.76878
 20
4.74349
 30
0.0
 40
0
 41
0
  0
VERTEX
  8
0
 10
6.76232
 20
4.74349
 30
0.0
 40
0
 41
0
  0
VERTEX
  8
0
 10
6.74294
 20
4.75418
 30
0.0
 40
0
 41
0
  0
VERTEX
  8
0
 10
6.73232
 20
4.77354
 30
0.0
 40
0
 41
0
  0
VERTEX
  8
0
 10
6.73232
 20
4.77994
 30
0.0
 40
0
 41
0
  0
VERTEX
  8
0
 10
6.73232
 20
4.7864
 30
0.0
 40
0
 41
0
  0
VERTEX
  8
0
 10
6.74294
 20
4.80578
 30
0.0
 40
0
 41
0
  0
VERTEX
  8
0
 10
6.76232
 20
4.8164
 30
0.0
 40
0
 41
0
  0
VERTEX
  8
0
 10
6.76878
 20
4.8164
 30
0.0
 40
0
 41
0
  0
VERTEX
  8
0
 10
6.77518
 20
4.8164
 30
0.0
 40
0
 41
0
  0
VERTEX
  8
0
 10
6.79454
 20
4.80578
 30
0.0
 40
0
 41
0
  0
VERTEX
  8
0
 10
6.80524
 20
4.7864
 30
0.0
 40
0
 41
0
  0
VERTEX
  8
0
 10
6.80524
 20
4.77994
 30
0.0
 40
0
 41
0
  0
SEQEND
 8
0
  0
POLYLINE
  8
0
 62
     0
 66
     1
 10
0
 20
0
 30
0.0
 70
     1
 40
0.6
 41
0.6
  0
VERTEX
  8
0
 10
6.80524
 20
4.77994
 30
0.0
 40
0.00833333
 41
0.00833333
  0
VERTEX
  8
0
 10
6.80524
 20
4.77354
 30
0.0
 40
0.00833333
 41
0.00833333
  0
VERTEX
  8
0
 10
6.79454
 20
4.75418
 30
0.0
 40
0.00833333
 41
0.00833333
  0
VERTEX
  8
0
 10
6.77518
 20
4.74349
 30
0.0
 40
0.00833333
 41
0.00833333
  0
VERTEX
  8
0
 10
6.76878
 20
4.74349
 30
0.0
 40
0.00833333
 41
0.00833333
  0
VERTEX
  8
0
 10
6.76232
 20
4.74349
 30
0.0
 40
0.00833333
 41
0.00833333
  0
VERTEX
  8
0
 10
6.74294
 20
4.75418
 30
0.0
 40
0.00833333
 41
0.00833333
  0
VERTEX
  8
0
 10
6.73232
 20
4.77354
 30
0.0
 40
0.00833333
 41
0.00833333
  0
VERTEX
  8
0
 10
6.73232
 20
4.77994
 30
0.0
 40
0.00833333
 41
0.00833333
  0
VERTEX
  8
0
 10
6.73232
 20
4.7864
 30
0.0
 40
0.00833333
 41
0.00833333
  0
VERTEX
  8
0
 10
6.74294
 20
4.80578
 30
0.0
 40
0.00833333
 41
0.00833333
  0
VERTEX
  8
0
 10
6.76232
 20
4.8164
 30
0.0
 40
0.00833333
 41
0.00833333
  0
VERTEX
  8
0
 10
6.76878
 20
4.8164
 30
0.0
 40
0.00833333
 41
0.00833333
  0
VERTEX
  8
0
 10
6.77518
 20
4.8164
 30
0.0
 40
0.00833333
 41
0.00833333
  0
VERTEX
  8
0
 10
6.79454
 20
4.80578
 30
0.0
 40
0.00833333
 41
0.00833333
  0
VERTEX
  8
0
 10
6.80524
 20
4.7864
 30
0.0
 40
0.00833333
 41
0.00833333
  0
VERTEX
  8
0
 10
6.80524
 20
4.77994
 30
0.0
 40
0.00833333
 41
0.00833333
  0
SEQEND
 8
0
  0
POLYLINE
  8
0
 62
     7
 66
     1
 10
0
 20
0
 30
0.0
 70
     1
 40
0
 41
0
  0
VERTEX
  8
0
 10
6.78961
 20
4.77994
 30
0.0
 40
0
 41
0
  0
VERTEX
  8
0
 10
6.78961
 20
4.77632
 30
0.0
 40
0
 41
0
  0
VERTEX
  8
0
 10
6.78347
 20
4.76525
 30
0.0
 40
0
 41
0
  0
VERTEX
  8
0
 10
6.7724
 20
4.75911
 30
0.0
 40
0
 41
0
  0
VERTEX
  8
0
 10
6.76878
 20
4.75911
 30
0.0
 40
0
 41
0
  0
VERTEX
  8
0
 10
6.76508
 20
4.75911
 30
0.0
 40
0
 41
0
  0
VERTEX
  8
0
 10
6.75401
 20
4.76525
 30
0.0
 40
0
 41
0
  0
VERTEX
  8
0
 10
6.74794
 20
4.77632
 30
0.0
 40
0
 41
0
  0
VERTEX
  8
0
 10
6.74794
 20
4.77994
 30
0.0
 40
0
 41
0
  0
VERTEX
  8
0
 10
6.74794
 20
4.78364
 30
0.0
 40
0
 41
0
  0
VERTEX
  8
0
 10
6.75401
 20
4.79471
 30
0.0
 40
0
 41
0
  0
VERTEX
  8
0
 10
6.76508
 20
4.80078
 30
0.0
 40
0
 41
0
  0
VERTEX
  8
0
 10
6.76878
 20
4.80078
 30
0.0
 40
0
 41
0
  0
VERTEX
  8
0
 10
6.7724
 20
4.80078
 30
0.0
 40
0
 41
0
  0
VERTEX
  8
0
 10
6.78347
 20
4.79471
 30
0.0
 40
0
 41
0
  0
VERTEX
  8
0
 10
6.78961
 20
4.78364
 30
0.0
 40
0
 41
0
  0
VERTEX
  8
0
 10
6.78961
 20
4.77994
 30
0.0
 40
0
 41
0
  0
SEQEND
 8
0
  0
POLYLINE
  8
0
 62
     0
 66
     1
 10
0
 20
0
 30
0.0
 70
     1
 40
0.6
 41
0.6
  0
VERTEX
  8
0
 10
6.78961
 20
4.77994
 30
0.0
 40
0.00833333
 41
0.00833333
  0
VERTEX
  8
0
 10
6.78961
 20
4.77632
 30
0.0
 40
0.00833333
 41
0.00833333
  0
VERTEX
  8
0
 10
6.78347
 20
4.76525
 30
0.0
 40
0.00833333
 41
0.00833333
  0
VERTEX
  8
0
 10
6.7724
 20
4.75911
 30
0.0
 40
0.00833333
 41
0.00833333
  0
VERTEX
  8
0
 10
6.76878
 20
4.75911
 30
0.0
 40
0.00833333
 41
0.00833333
  0
VERTEX
  8
0
 10
6.76508
 20
4.75911
 30
0.0
 40
0.00833333
 41
0.00833333
  0
VERTEX
  8
0
 10
6.75401
 20
4.76525
 30
0.0
 40
0.00833333
 41
0.00833333
  0
VERTEX
  8
0
 10
6.74794
 20
4.77632
 30
0.0
 40
0.00833333
 41
0.00833333
  0
VERTEX
  8
0
 10
6.74794
 20
4.77994
 30
0.0
 40
0.00833333
 41
0.00833333
  0
VERTEX
  8
0
 10
6.74794
 20
4.78364
 30
0.0
 40
0.00833333
 41
0.00833333
  0
VERTEX
  8
0
 10
6.75401
 20
4.79471
 30
0.0
 40
0.00833333
 41
0.00833333
  0
VERTEX
  8
0
 10
6.76508
 20
4.80078
 30
0.0
 40
0.00833333
 41
0.00833333
  0
VERTEX
  8
0
 10
6.76878
 20
4.80078
 30
0.0
 40
0.00833333
 41
0.00833333
  0
VERTEX
  8
0
 10
6.7724
 20
4.80078
 30
0.0
 40
0.00833333
 41
0.00833333
  0
VERTEX
  8
0
 10
6.78347
 20
4.79471
 30
0.0
 40
0.00833333
 41
0.00833333
  0
VERTEX
  8
0
 10
6.78961
 20
4.78364
 30
0.0
 40
0.00833333
 41
0.00833333
  0
VERTEX
  8
0
 10
6.78961
 20
4.77994
 30
0.0
 40
0.00833333
 41
0.00833333
  0
SEQEND
 8
0
  0
POLYLINE
  8
0
 62
     7
 66
     1
 10
0
 20
0
 30
0.0
 70
     1
 40
0
 41
0
  0
VERTEX
  8
0
 10
6.74072
 20
4.97564
 30
0.0
 40
0
 41
0
  0
VERTEX
  8
0
 10
6.80322
 20
4.97564
 30
0.0
 40
0
 41
0
  0
VERTEX
  8
0
 10
6.80322
 20
4.82981
 30
0.0
 40
0
 41
0
  0
VERTEX
  8
0
 10
6.74072
 20
4.82981
 30
0.0
 40
0
 41
0
  0
VERTEX
  8
0
 10
6.74072
 20
4.97564
 30
0.0
 40
0
 41
0
  0
SEQEND
 8
0
  0
POLYLINE
  8
0
 62
     0
 66
     1
 10
0
 20
0
 30
0.0
 70
     1
 40
0.75
 41
0.75
  0
VERTEX
  8
0
 10
6.74072
 20
4.97564
 30
0.0
 40
0.0104167
 41
0.0104167
  0
VERTEX
  8
0
 10
6.80322
 20
4.97564
 30
0.0
 40
0.0104167
 41
0.0104167
  0
VERTEX
  8
0
 10
6.80322
 20
4.82981
 30
0.0
 40
0.0104167
 41
0.0104167
  0
VERTEX
  8
0
 10
6.74072
 20
4.82981
 30
0.0
 40
0.0104167
 41
0.0104167
  0
VERTEX
  8
0
 10
6.74072
 20
4.97564
 30
0.0
 40
0.0104167
 41
0.0104167
  0
SEQEND
 8
0
  0
POLYLINE
  8
0
 62
     7
 66
     1
 10
0
 20
0
 30
0.0
 70
     1
 40
0
 41
0
  0
VERTEX
  8
0
 10
5.70785
 20
5.00749
 30
0.0
 40
0
 41
0
  0
VERTEX
  8
0
 10
6.1244
 20
5.00749
 30
0.0
 40
0
 41
0
  0
VERTEX
  8
0
 10
6.1244
 20
4.82021
 30
0.0
 40
0
 41
0
  0
VERTEX
  8
0
 10
5.70785
 20
4.82021
 30
0.0
 40
0
 41
0
  0
VERTEX
  8
0
 10
5.70785
 20
5.00749
 30
0.0
 40
0
 41
0
  0
SEQEND
 8
0
  0
POLYLINE
  8
0
 62
     0
 66
     1
 10
0
 20
0
 30
0.0
 70
     1
 40
0.75
 41
0.75
  0
VERTEX
  8
0
 10
5.70785
 20
5.00749
 30
0.0
 40
0.0104167
 41
0.0104167
  0
VERTEX
  8
0
 10
6.1244
 20
5.00749
 30
0.0
 40
0.0104167
 41
0.0104167
  0
VERTEX
  8
0
 10
6.1244
 20
4.82021
 30
0.0
 40
0.0104167
 41
0.0104167
  0
VERTEX
  8
0
 10
5.70785
 20
4.82021
 30
0.0
 40
0.0104167
 41
0.0104167
  0
VERTEX
  8
0
 10
5.70785
 20
5.00749
 30
0.0
 40
0.0104167
 41
0.0104167
  0
SEQEND
 8
0
  0
POLYLINE
  8
0
 62
     7
 66
     1
 10
0
 20
0
 30
0.0
 70
     1
 40
0
 41
0
  0
VERTEX
  8
0
 10
6.1244
 20
4.55192
 30
0.0
 40
0
 41
0
  0
VERTEX
  8
0
 10
6.1244
 20
4.55192
 30
0.0
 40
0
 41
0
  0
VERTEX
  8
0
 10
6.12446
 20
4.54021
 30
0.0
 40
0
 41
0
  0
VERTEX
  8
0
 10
6.12283
 20
4.50922
 30
0.0
 40
0
 41
0
  0
VERTEX
  8
0
 10
6.11669
 20
4.46539
 30
0.0
 40
0
 41
0
  0
VERTEX
  8
0
 10
6.10331
 20
4.41515
 30
0.0
 40
0
 41
0
  0
VERTEX
  8
0
 10
6.07975
 20
4.3649
 30
0.0
 40
0
 41
0
  0
VERTEX
  8
0
 10
6.04329
 20
4.32107
 30
0.0
 40
0
 41
0
  0
VERTEX
  8
0
 10
5.9911
 20
4.2901
 30
0.0
 40
0
 41
0
  0
VERTEX
  8
0
 10
5.93804
 20
4.27832
 30
0.0
 40
0
 41
0
  0
VERTEX
  8
0
 10
5.92042
 20
4.27832
 30
0.0
 40
0
 41
0
  0
VERTEX
  8
0
 10
5.90207
 20
4.27832
 30
0.0
 40
0
 41
0
  0
VERTEX
  8
0
 10
5.84722
 20
4.2901
 30
0.0
 40
0
 41
0
  0
VERTEX
  8
0
 10
5.79313
 20
4.32107
 30
0.0
 40
0
 41
0
  0
VERTEX
  8
0
 10
5.75532
 20
4.3649
 30
0.0
 40
0
 41
0
  0
VERTEX
  8
0
 10
5.7309
 20
4.41515
 30
0.0
 40
0
 41
0
  0
VERTEX
  8
0
 10
5.7169
 20
4.46539
 30
0.0
 40
0
 41
0
  0
VERTEX
  8
0
 10
5.7105
 20
4.50922
 30
0.0
 40
0
 41
0
  0
VERTEX
  8
0
 10
5.70876
 20
4.54021
 30
0.0
 40
0
 41
0
  0
VERTEX
  8
0
 10
5.70888
 20
4.55192
 30
0.0
 40
0
 41
0
  0
VERTEX
  8
0
 10
5.70888
 20
4.55192
 30
0.0
 40
0
 41
0
  0
VERTEX
  8
0
 10
5.70785
 20
4.82021
 30
0.0
 40
0
 41
0
  0
VERTEX
  8
0
 10
6.1244
 20
4.82021
 30
0.0
 40
0
 41
0
  0
VERTEX
  8
0
 10
6.1244
 20
4.55192
 30
0.0
 40
0
 41
0
  0
SEQEND
 8
0
  0
POLYLINE
  8
0
 62
     0
 66
     1
 10
0
 20
0
 30
0.0
 70
     1
 40
0.75
 41
0.75
  0
VERTEX
  8
0
 10
6.1244
 20
4.55192
 30
0.0
 40
0.0104167
 41
0.0104167
  0
VERTEX
  8
0
 10
6.1244
 20
4.55192
 30
0.0
 40
0.0104167
 41
0.0104167
  0
VERTEX
  8
0
 10
6.12446
 20
4.54021
 30
0.0
 40
0.0104167
 41
0.0104167
  0
VERTEX
  8
0
 10
6.12283
 20
4.50922
 30
0.0
 40
0.0104167
 41
0.0104167
  0
VERTEX
  8
0
 10
6.11669
 20
4.46539
 30
0.0
 40
0.0104167
 41
0.0104167
  0
VERTEX
  8
0
 10
6.10331
 20
4.41515
 30
0.0
 40
0.0104167
 41
0.0104167
  0
VERTEX
  8
0
 10
6.07975
 20
4.3649
 30
0.0
 40
0.0104167
 41
0.0104167
  0
VERTEX
  8
0
 10
6.04329
 20
4.32107
 30
0.0
 40
0.0104167
 41
0.0104167
  0
VERTEX
  8
0
 10
5.9911
 20
4.2901
 30
0.0
 40
0.0104167
 41
0.0104167
  0
VERTEX
  8
0
 10
5.93804
 20
4.27832
 30
0.0
 40
0.0104167
 41
0.0104167
  0
VERTEX
  8
0
 10
5.92042
 20
4.27832
 30
0.0
 40
0.0104167
 41
0.0104167
  0
VERTEX
  8
0
 10
5.90207
 20
4.27832
 30
0.0
 40
0.0104167
 41
0.0104167
  0
VERTEX
  8
0
 10
5.84722
 20
4.2901
 30
0.0
 40
0.0104167
 41
0.0104167
  0
VERTEX
  8
0
 10
5.79313
 20
4.32107
 30
0.0
 40
0.0104167
 41
0.0104167
  0
VERTEX
  8
0
 10
5.75532
 20
4.3649
 30
0.0
 40
0.0104167
 41
0.0104167
  0
VERTEX
  8
0
 10
5.7309
 20
4.41515
 30
0.0
 40
0.0104167
 41
0.0104167
  0
VERTEX
  8
0
 10
5.7169
 20
4.46539
 30
0.0
 40
0.0104167
 41
0.0104167
  0
VERTEX
  8
0
 10
5.7105
 20
4.50922
 30
0.0
 40
0.0104167
 41
0.0104167
  0
VERTEX
  8
0
 10
5.70876
 20
4.54021
 30
0.0
 40
0.0104167
 41
0.0104167
  0
VERTEX
  8
0
 10
5.70888
 20
4.55192
 30
0.0
 40
0.0104167
 41
0.0104167
  0
VERTEX
  8
0
 10
5.70888
 20
4.55192
 30
0.0
 40
0.0104167
 41
0.0104167
  0
VERTEX
  8
0
 10
5.70785
 20
4.82021
 30
0.0
 40
0.0104167
 41
0.0104167
  0
VERTEX
  8
0
 10
6.1244
 20
4.82021
 30
0.0
 40
0.0104167
 41
0.0104167
  0
VERTEX
  8
0
 10
6.1244
 20
4.55192
 30
0.0
 40
0.0104167
 41
0.0104167
  0
SEQEND
 8
0
  0
POLYLINE
  8
0
 62
     7
 66
     1
 10
0
 20
0
 30
0.0
 70
     1
 40
0
 41
0
  0
VERTEX
  8
0
 10
5.88303
 20
4.92964
 30
0.0
 40
0
 41
0
  0
VERTEX
  8
0
 10
5.94922
 20
4.92964
 30
0.0
 40
0
 41
0
  0
VERTEX
  8
0
 10
5.94922
 20
4.89806
 30
0.0
 40
0
 41
0
  0
VERTEX
  8
0
 10
5.88303
 20
4.89806
 30
0.0
 40
0
 41
0
  0
VERTEX
  8
0
 10
5.88303
 20
4.92964
 30
0.0
 40
0
 41
0
  0
SEQEND
 8
0
  0
POLYLINE
  8
0
 62
     0
 66
     1
 10
0
 20
0
 30
0.0
 70
     1
 40
0.75
 41
0.75
  0
VERTEX
  8
0
 10
5.88303
 20
4.92964
 30
0.0
 40
0.0104167
 41
0.0104167
  0
VERTEX
  8
0
 10
5.94922
 20
4.92964
 30
0.0
 40
0.0104167
 41
0.0104167
  0
VERTEX
  8
0
 10
5.94922
 20
4.89806
 30
0.0
 40
0.0104167
 41
0.0104167
  0
VERTEX
  8
0
 10
5.88303
 20
4.89806
 30
0.0
 40
0.0104167
 41
0.0104167
  0
VERTEX
  8
0
 10
5.88303
 20
4.92964
 30
0.0
 40
0.0104167
 41
0.0104167
  0
SEQEND
 8
0
  0
POLYLINE
  8
0
 62
     7
 66
     1
 10
0
 20
0
 30
0.0
 70
     1
 40
0
 41
0
  0
VERTEX
  8
0
 10
8.31597
 20
4.68972
 30
0.0
 40
0
 41
0
  0
VERTEX
  8
0
 10
8.3795
 20
4.68972
 30
0.0
 40
0
 41
0
  0
VERTEX
  8
0
 10
8.3795
 20
4.57303
 30
0.0
 40
0
 41
0
  0
VERTEX
  8
0
 10
8.31597
 20
4.57303
 30
0.0
 40
0
 41
0
  0
VERTEX
  8
0
 10
8.31597
 20
4.68972
 30
0.0
 40
0
 41
0
  0
SEQEND
 8
0
  0
POLYLINE
  8
0
 62
     0
 66
     1
 10
0
 20
0
 30
0.0
 70
     1
 40
0.75
 41
0.75
  0
VERTEX
  8
0
 10
8.31597
 20
4.68972
 30
0.0
 40
0.0104167
 41
0.0104167
  0
VERTEX
  8
0
 10
8.31597
 20
4.57303
 30
0.0
 40
0.0104167
 41
0.0104167
  0
VERTEX
  8
0
 10
8.3795
 20
4.57303
 30
0.0
 40
0.0104167
 41
0.0104167
  0
VERTEX
  8
0
 10
8.3795
 20
4.68972
 30
0.0
 40
0.0104167
 41
0.0104167
  0
VERTEX
  8
0
 10
8.31597
 20
4.68972
 30
0.0
 40
0.0104167
 41
0.0104167
  0
SEQEND
 8
0
  0
POLYLINE
  8
0
 62
     7
 66
     1
 10
0
 20
0
 30
0.0
 70
     1
 40
0
 41
0
  0
VERTEX
  8
0
 10
8.31597
 20
4.54492
 30
0.0
 40
0
 41
0
  0
VERTEX
  8
0
 10
8.3795
 20
4.54492
 30
0.0
 40
0
 41
0
  0
VERTEX
  8
0
 10
8.3795
 20
4.42822
 30
0.0
 40
0
 41
0
  0
VERTEX
  8
0
 10
8.31597
 20
4.42822
 30
0.0
 40
0
 41
0
  0
VERTEX
  8
0
 10
8.31597
 20
4.54492
 30
0.0
 40
0
 41
0
  0
SEQEND
 8
0
  0
POLYLINE
  8
0
 62
     0
 66
     1
 10
0
 20
0
 30
0.0
 70
     1
 40
0.75
 41
0.75
  0
VERTEX
  8
0
 10
8.31597
 20
4.54492
 30
0.0
 40
0.0104167
 41
0.0104167
  0
VERTEX
  8
0
 10
8.31597
 20
4.42822
 30
0.0
 40
0.0104167
 41
0.0104167
  0
VERTEX
  8
0
 10
8.3795
 20
4.42822
 30
0.0
 40
0.0104167
 41
0.0104167
  0
VERTEX
  8
0
 10
8.3795
 20
4.54492
 30
0.0
 40
0.0104167
 41
0.0104167
  0
VERTEX
  8
0
 10
8.31597
 20
4.54492
 30
0.0
 40
0.0104167
 41
0.0104167
  0
SEQEND
 8
0
  0
POLYLINE
  8
0
 62
     7
 66
     1
 10
0
 20
0
 30
0.0
 70
     1
 40
0
 41
0
  0
VERTEX
  8
0
 10
8.31597
 20
4.42931
 30
0.0
 40
0
 41
0
  0
VERTEX
  8
0
 10
8.3795
 20
4.42931
 30
0.0
 40
0
 41
0
  0
VERTEX
  8
0
 10
8.3795
 20
4.39388
 30
0.0
 40
0
 41
0
  0
VERTEX
  8
0
 10
8.31597
 20
4.39388
 30
0.0
 40
0
 41
0
  0
VERTEX
  8
0
 10
8.31597
 20
4.42931
 30
0.0
 40
0
 41
0
  0
SEQEND
 8
0
  0
POLYLINE
  8
0
 62
     0
 66
     1
 10
0
 20
0
 30
0.0
 70
     1
 40
0.75
 41
0.75
  0
VERTEX
  8
0
 10
8.31597
 20
4.42931
 30
0.0
 40
0.0104167
 41
0.0104167
  0
VERTEX
  8
0
 10
8.31597
 20
4.39388
 30
0.0
 40
0.0104167
 41
0.0104167
  0
VERTEX
  8
0
 10
8.3795
 20
4.39388
 30
0.0
 40
0.0104167
 41
0.0104167
  0
VERTEX
  8
0
 10
8.3795
 20
4.42931
 30
0.0
 40
0.0104167
 41
0.0104167
  0
VERTEX
  8
0
 10
8.31597
 20
4.42931
 30
0.0
 40
0.0104167
 41
0.0104167
  0
SEQEND
 8
0
  0
POLYLINE
  8
0
 62
     7
 66
     1
 10
0
 20
0
 30
0.0
 70
     1
 40
0
 41
0
  0
VERTEX
  8
0
 10
8.31597
 20
4.72304
 30
0.0
 40
0
 41
0
  0
VERTEX
  8
0
 10
8.3795
 20
4.72304
 30
0.0
 40
0
 41
0
  0
VERTEX
  8
0
 10
8.3795
 20
4.68972
 30
0.0
 40
0
 41
0
  0
VERTEX
  8
0
 10
8.31597
 20
4.68972
 30
0.0
 40
0
 41
0
  0
VERTEX
  8
0
 10
8.31597
 20
4.72304
 30
0.0
 40
0
 41
0
  0
SEQEND
 8
0
  0
POLYLINE
  8
0
 62
     0
 66
     1
 10
0
 20
0
 30
0.0
 70
     1
 40
0.75
 41
0.75
  0
VERTEX
  8
0
 10
8.31597
 20
4.72304
 30
0.0
 40
0.0104167
 41
0.0104167
  0
VERTEX
  8
0
 10
8.31597
 20
4.68972
 30
0.0
 40
0.0104167
 41
0.0104167
  0
VERTEX
  8
0
 10
8.3795
 20
4.68972
 30
0.0
 40
0.0104167
 41
0.0104167
  0
VERTEX
  8
0
 10
8.3795
 20
4.72304
 30
0.0
 40
0.0104167
 41
0.0104167
  0
VERTEX
  8
0
 10
8.31597
 20
4.72304
 30
0.0
 40
0.0104167
 41
0.0104167
  0
SEQEND
 8
0
  0
POLYLINE
  8
0
 62
     7
 66
     1
 10
0
 20
0
 30
0.0
 70
     1
 40
0
 41
0
  0
VERTEX
  8
0
 10
8.29617
 20
4.57303
 30
0.0
 40
0
 41
0
  0
VERTEX
  8
0
 10
8.28982
 20
4.57303
 30
0.0
 40
0
 41
0
  0
VERTEX
  8
0
 10
8.27089
 20
4.57671
 30
0.0
 40
0
 41
0
  0
VERTEX
  8
0
 10
8.24849
 20
4.58658
 30
0.0
 40
0
 41
0
  0
VERTEX
  8
0
 10
8.24408
 20
4.58968
 30
0.0
 40
0
 41
0
  0
VERTEX
  8
0
 10
8.24251
 20
4.59076
 30
0.0
 40
0
 41
0
  0
VERTEX
  8
0
 10
8.22792
 20
4.60092
 30
0.0
 40
0
 41
0
  0
VERTEX
  8
0
 10
8.2264
 20
4.60118
 30
0.0
 40
0
 41
0
  0
VERTEX
  8
0
 10
8.22353
 20
4.60172
 30
0.0
 40
0
 41
0
  0
VERTEX
  8
0
 10
8.20697
 20
4.59754
 30
0.0
 40
0
 41
0
  0
VERTEX
  8
0
 10
8.19412
 20
4.58089
 30
0.0
 40
0
 41
0
  0
VERTEX
  8
0
 10
8.19308
 20
4.57514
 30
0.0
 40
0
 41
0
  0
VERTEX
  8
0
 10
8.19282
 20
4.57383
 30
0.0
 40
0
 41
0
  0
VERTEX
  8
0
 10
8.192
 20
4.56228
 30
0.0
 40
0
 41
0
  0
VERTEX
  8
0
 10
8.192
 20
4.55843
 30
0.0
 40
0
 41
0
  0
VERTEX
  8
0
 10
8.192
 20
4.55951
 30
0.0
 40
0
 41
0
  0
VERTEX
  8
0
 10
8.192
 20
4.55533
 30
0.0
 40
0
 41
0
  0
VERTEX
  8
0
 10
8.19282
 20
4.54411
 30
0.0
 40
0
 41
0
  0
VERTEX
  8
0
 10
8.19308
 20
4.54281
 30
0.0
 40
0
 41
0
  0
VERTEX
  8
0
 10
8.19412
 20
4.53711
 30
0.0
 40
0
 41
0
  0
VERTEX
  8
0
 10
8.20697
 20
4.52046
 30
0.0
 40
0
 41
0
  0
VERTEX
  8
0
 10
8.22353
 20
4.51628
 30
0.0
 40
0
 41
0
  0
VERTEX
  8
0
 10
8.2264
 20
4.51676
 30
0.0
 40
0
 41
0
  0
VERTEX
  8
0
 10
8.22792
 20
4.51704
 30
0.0
 40
0
 41
0
  0
VERTEX
  8
0
 10
8.24251
 20
4.52724
 30
0.0
 40
0
 41
0
  0
VERTEX
  8
0
 10
8.24408
 20
4.52826
 30
0.0
 40
0
 41
0
  0
VERTEX
  8
0
 10
8.24849
 20
4.53142
 30
0.0
 40
0
 41
0
  0
VERTEX
  8
0
 10
8.27089
 20
4.54129
 30
0.0
 40
0
 41
0
  0
VERTEX
  8
0
 10
8.28982
 20
4.54492
 30
0.0
 40
0
 41
0
  0
VERTEX
  8
0
 10
8.29617
 20
4.54492
 30
0.0
 40
0
 41
0
  0
SEQEND
 8
0
  0
POLYLINE
  8
0
 62
     0
 66
     1
 10
0
 20
0
 30
0.0
 40
0.75
 41
0.75
  0
VERTEX
  8
0
 10
8.29617
 20
4.57303
 30
0.0
 40
0.0104167
 41
0.0104167
  0
VERTEX
  8
0
 10
8.28982
 20
4.57303
 30
0.0
 40
0.0104167
 41
0.0104167
  0
VERTEX
  8
0
 10
8.27089
 20
4.57671
 30
0.0
 40
0.0104167
 41
0.0104167
  0
VERTEX
  8
0
 10
8.24849
 20
4.58658
 30
0.0
 40
0.0104167
 41
0.0104167
  0
VERTEX
  8
0
 10
8.24408
 20
4.58968
 30
0.0
 40
0.0104167
 41
0.0104167
  0
VERTEX
  8
0
 10
8.24251
 20
4.59076
 30
0.0
 40
0.0104167
 41
0.0104167
  0
VERTEX
  8
0
 10
8.22792
 20
4.60092
 30
0.0
 40
0.0104167
 41
0.0104167
  0
VERTEX
  8
0
 10
8.2264
 20
4.60118
 30
0.0
 40
0.0104167
 41
0.0104167
  0
VERTEX
  8
0
 10
8.22353
 20
4.60172
 30
0.0
 40
0.0104167
 41
0.0104167
  0
VERTEX
  8
0
 10
8.20697
 20
4.59754
 30
0.0
 40
0.0104167
 41
0.0104167
  0
VERTEX
  8
0
 10
8.19412
 20
4.58089
 30
0.0
 40
0.0104167
 41
0.0104167
  0
VERTEX
  8
0
 10
8.19308
 20
4.57514
 30
0.0
 40
0.0104167
 41
0.0104167
  0
VERTEX
  8
0
 10
8.19282
 20
4.57383
 30
0.0
 40
0.0104167
 41
0.0104167
  0
VERTEX
  8
0
 10
8.192
 20
4.56228
 30
0.0
 40
0.0104167
 41
0.0104167
  0
VERTEX
  8
0
 10
8.192
 20
4.55843
 30
0.0
 40
0.0104167
 41
0.0104167
  0
VERTEX
  8
0
 10
8.192
 20
4.55951
 30
0.0
 40
0.0104167
 41
0.0104167
  0
VERTEX
  8
0
 10
8.192
 20
4.55533
 30
0.0
 40
0.0104167
 41
0.0104167
  0
VERTEX
  8
0
 10
8.19282
 20
4.54411
 30
0.0
 40
0.0104167
 41
0.0104167
  0
VERTEX
  8
0
 10
8.19308
 20
4.54281
 30
0.0
 40
0.0104167
 41
0.0104167
  0
VERTEX
  8
0
 10
8.19412
 20
4.53711
 30
0.0
 40
0.0104167
 41
0.0104167
  0
VERTEX
  8
0
 10
8.20697
 20
4.52046
 30
0.0
 40
0.0104167
 41
0.0104167
  0
VERTEX
  8
0
 10
8.22353
 20
4.51628
 30
0.0
 40
0.0104167
 41
0.0104167
  0
VERTEX
  8
0
 10
8.2264
 20
4.51676
 30
0.0
 40
0.0104167
 41
0.0104167
  0
VERTEX
  8
0
 10
8.22792
 20
4.51704
 30
0.0
 40
0.0104167
 41
0.0104167
  0
VERTEX
  8
0
 10
8.24251
 20
4.52724
 30
0.0
 40
0.0104167
 41
0.0104167
  0
VERTEX
  8
0
 10
8.24408
 20
4.52826
 30
0.0
 40
0.0104167
 41
0.0104167
  0
VERTEX
  8
0
 10
8.24849
 20
4.53142
 30
0.0
 40
0.0104167
 41
0.0104167
  0
VERTEX
  8
0
 10
8.27089
 20
4.54129
 30
0.0
 40
0.0104167
 41
0.0104167
  0
VERTEX
  8
0
 10
8.28982
 20
4.54492
 30
0.0
 40
0.0104167
 41
0.0104167
  0
VERTEX
  8
0
 10
8.29617
 20
4.54492
 30
0.0
 40
0.0104167
 41
0.0104167
  0
SEQEND
 8
0
  0
POLYLINE
  8
0
 62
     7
 66
     1
 10
0
 20
0
 30
0.0
 70
     1
 40
0
 41
0
  0
VERTEX
  8
0
 10
8.22537
 20
4.60118
 30
0.0
 40
0
 41
0
  0
VERTEX
  8
0
 10
8.22483
 20
4.60092
 30
0.0
 40
0
 41
0
  0
VERTEX
  8
0
 10
8.21463
 20
4.58908
 30
0.0
 40
0
 41
0
  0
VERTEX
  8
0
 10
8.20557
 20
4.56532
 30
0.0
 40
0
 41
0
  0
VERTEX
  8
0
 10
8.20557
 20
4.5574
 30
0.0
 40
0
 41
0
  0
VERTEX
  8
0
 10
8.20578
 20
4.55117
 30
0.0
 40
0
 41
0
  0
VERTEX
  8
0
 10
8.21506
 20
4.52854
 30
0.0
 40
0
 41
0
  0
VERTEX
  8
0
 10
8.22483
 20
4.51731
 30
0.0
 40
0
 41
0
  0
VERTEX
  8
0
 10
8.22537
 20
4.51676
 30
0.0
 40
0
 41
0
  0
SEQEND
 8
0
  0
POLYLINE
  8
0
 62
     0
 66
     1
 10
0
 20
0
 30
0.0
 40
0.75
 41
0.75
  0
VERTEX
  8
0
 10
8.22537
 20
4.60118
 30
0.0
 40
0.0104167
 41
0.0104167
  0
VERTEX
  8
0
 10
8.22483
 20
4.60092
 30
0.0
 40
0.0104167
 41
0.0104167
  0
VERTEX
  8
0
 10
8.21463
 20
4.58908
 30
0.0
 40
0.0104167
 41
0.0104167
  0
VERTEX
  8
0
 10
8.20557
 20
4.56532
 30
0.0
 40
0.0104167
 41
0.0104167
  0
VERTEX
  8
0
 10
8.20557
 20
4.5574
 30
0.0
 40
0.0104167
 41
0.0104167
  0
VERTEX
  8
0
 10
8.20578
 20
4.55117
 30
0.0
 40
0.0104167
 41
0.0104167
  0
VERTEX
  8
0
 10
8.21506
 20
4.52854
 30
0.0
 40
0.0104167
 41
0.0104167
  0
VERTEX
  8
0
 10
8.22483
 20
4.51731
 30
0.0
 40
0.0104167
 41
0.0104167
  0
VERTEX
  8
0
 10
8.22537
 20
4.51676
 30
0.0
 40
0.0104167
 41
0.0104167
  0
SEQEND
 8
0
  0
POLYLINE
  8
0
 62
     7
 66
     1
 10
0
 20
0
 30
0.0
 70
     1
 40
0
 41
0
  0
VERTEX
  8
0
 10
8.3795
 20
4.57303
 30
0.0
 40
0
 41
0
  0
VERTEX
  8
0
 10
8.3795
 20
4.54492
 30
0.0
 40
0
 41
0
  0
VERTEX
  8
0
 10
8.29617
 20
4.54492
 30
0.0
 40
0
 41
0
  0
VERTEX
  8
0
 10
8.29617
 20
4.55197
 30
0.0
 40
0
 41
0
  0
VERTEX
  8
0
 10
8.29617
 20
4.56776
 30
0.0
 40
0
 41
0
  0
VERTEX
  8
0
 10
8.29617
 20
4.57303
 30
0.0
 40
0
 41
0
  0
VERTEX
  8
0
 10
8.317
 20
4.57303
 30
0.0
 40
0
 41
0
  0
VERTEX
  8
0
 10
8.36387
 20
4.57303
 30
0.0
 40
0
 41
0
  0
VERTEX
  8
0
 10
8.3795
 20
4.57303
 30
0.0
 40
0
 41
0
  0
SEQEND
 8
0
  0
POLYLINE
  8
0
 62
     0
 66
     1
 10
0
 20
0
 30
0.0
 70
     1
 40
0.75
 41
0.75
  0
VERTEX
  8
0
 10
8.3795
 20
4.57303
 30
0.0
 40
0.0104167
 41
0.0104167
  0
VERTEX
  8
0
 10
8.3795
 20
4.54492
 30
0.0
 40
0.0104167
 41
0.0104167
  0
VERTEX
  8
0
 10
8.29617
 20
4.54492
 30
0.0
 40
0.0104167
 41
0.0104167
  0
VERTEX
  8
0
 10
8.29617
 20
4.55197
 30
0.0
 40
0.0104167
 41
0.0104167
  0
VERTEX
  8
0
 10
8.29617
 20
4.56776
 30
0.0
 40
0.0104167
 41
0.0104167
  0
VERTEX
  8
0
 10
8.29617
 20
4.57303
 30
0.0
 40
0.0104167
 41
0.0104167
  0
VERTEX
  8
0
 10
8.317
 20
4.57303
 30
0.0
 40
0.0104167
 41
0.0104167
  0
VERTEX
  8
0
 10
8.36387
 20
4.57303
 30
0.0
 40
0.0104167
 41
0.0104167
  0
VERTEX
  8
0
 10
8.3795
 20
4.57303
 30
0.0
 40
0.0104167
 41
0.0104167
  0
SEQEND
 8
0
  0
POLYLINE
  8
0
 62
     7
 66
     1
 10
0
 20
0
 30
0.0
 70
     1
 40
0
 41
0
  0
VERTEX
  8
0
 10
8.34722
 20
4.68972
 30
0.0
 40
0
 41
0
  0
VERTEX
  8
0
 10
8.34842
 20
4.68653
 30
0.0
 40
0
 41
0
  0
VERTEX
  8
0
 10
8.35226
 20
4.67686
 30
0.0
 40
0
 41
0
  0
VERTEX
  8
0
 10
8.35346
 20
4.6741
 30
0.0
 40
0
 41
0
  0
VERTEX
  8
0
 10
8.35346
 20
4.6741
 30
0.0
 40
0
 41
0
  0
VERTEX
  8
0
 10
8.352
 20
4.6741
 30
0.0
 40
0
 41
0
  0
VERTEX
  8
0
 10
8.34771
 20
4.6741
 30
0.0
 40
0
 41
0
  0
VERTEX
  8
0
 10
8.34343
 20
4.6741
 30
0.0
 40
0
 41
0
  0
VERTEX
  8
0
 10
8.34201
 20
4.6741
 30
0.0
 40
0
 41
0
  0
VERTEX
  8
0
 10
8.34201
 20
4.6741
 30
0.0
 40
0
 41
0
  0
VERTEX
  8
0
 10
8.34267
 20
4.67649
 30
0.0
 40
0
 41
0
  0
VERTEX
  8
0
 10
8.34603
 20
4.68647
 30
0.0
 40
0
 41
0
  0
VERTEX
  8
0
 10
8.34722
 20
4.68972
 30
0.0
 40
0
 41
0
  0
SEQEND
 8
0
  0
POLYLINE
  8
0
 62
     0
 66
     1
 10
0
 20
0
 30
0.0
 70
     1
 40
0.75
 41
0.75
  0
VERTEX
  8
0
 10
8.34722
 20
4.68972
 30
0.0
 40
0.0104167
 41
0.0104167
  0
VERTEX
  8
0
 10
8.34842
 20
4.68653
 30
0.0
 40
0.0104167
 41
0.0104167
  0
VERTEX
  8
0
 10
8.35226
 20
4.67686
 30
0.0
 40
0.0104167
 41
0.0104167
  0
VERTEX
  8
0
 10
8.35346
 20
4.6741
 30
0.0
 40
0.0104167
 41
0.0104167
  0
VERTEX
  8
0
 10
8.35346
 20
4.6741
 30
0.0
 40
0.0104167
 41
0.0104167
  0
VERTEX
  8
0
 10
8.352
 20
4.6741
 30
0.0
 40
0.0104167
 41
0.0104167
  0
VERTEX
  8
0
 10
8.34771
 20
4.6741
 30
0.0
 40
0.0104167
 41
0.0104167
  0
VERTEX
  8
0
 10
8.34343
 20
4.6741
 30
0.0
 40
0.0104167
 41
0.0104167
  0
VERTEX
  8
0
 10
8.34201
 20
4.6741
 30
0.0
 40
0.0104167
 41
0.0104167
  0
VERTEX
  8
0
 10
8.34201
 20
4.6741
 30
0.0
 40
0.0104167
 41
0.0104167
  0
VERTEX
  8
0
 10
8.34267
 20
4.67649
 30
0.0
 40
0.0104167
 41
0.0104167
  0
VERTEX
  8
0
 10
8.34603
 20
4.68647
 30
0.0
 40
0.0104167
 41
0.0104167
  0
VERTEX
  8
0
 10
8.34722
 20
4.68972
 30
0.0
 40
0.0104167
 41
0.0104167
  0
SEQEND
 8
0
  0
POLYLINE
  8
0
 62
     7
 66
     1
 10
0
 20
0
 30
0.0
 70
     1
 40
0
 41
0
  0
VERTEX
  8
0
 10
8.34722
 20
4.42931
 30
0.0
 40
0
 41
0
  0
VERTEX
  8
0
 10
8.34842
 20
4.43257
 30
0.0
 40
0
 41
0
  0
VERTEX
  8
0
 10
8.35226
 20
4.44222
 30
0.0
 40
0
 41
0
  0
VERTEX
  8
0
 10
8.35346
 20
4.44493
 30
0.0
 40
0
 41
0
  0
VERTEX
  8
0
 10
8.35346
 20
4.44493
 30
0.0
 40
0
 41
0
  0
VERTEX
  8
0
 10
8.352
 20
4.44493
 30
0.0
 40
0
 41
0
  0
VERTEX
  8
0
 10
8.34771
 20
4.44493
 30
0.0
 40
0
 41
0
  0
VERTEX
  8
0
 10
8.34343
 20
4.44493
 30
0.0
 40
0
 41
0
  0
VERTEX
  8
0
 10
8.34201
 20
4.44493
 30
0.0
 40
0
 41
0
  0
VERTEX
  8
0
 10
8.34201
 20
4.44493
 30
0.0
 40
0
 41
0
  0
VERTEX
  8
0
 10
8.34267
 20
4.4426
 30
0.0
 40
0
 41
0
  0
VERTEX
  8
0
 10
8.34603
 20
4.43261
 30
0.0
 40
0
 41
0
  0
VERTEX
  8
0
 10
8.34722
 20
4.42931
 30
0.0
 40
0
 41
0
  0
SEQEND
 8
0
  0
POLYLINE
  8
0
 62
     0
 66
     1
 10
0
 20
0
 30
0.0
 70
     1
 40
0.75
 41
0.75
  0
VERTEX
  8
0
 10
8.34722
 20
4.42931
 30
0.0
 40
0.0104167
 41
0.0104167
  0
VERTEX
  8
0
 10
8.34842
 20
4.43257
 30
0.0
 40
0.0104167
 41
0.0104167
  0
VERTEX
  8
0
 10
8.35226
 20
4.44222
 30
0.0
 40
0.0104167
 41
0.0104167
  0
VERTEX
  8
0
 10
8.35346
 20
4.44493
 30
0.0
 40
0.0104167
 41
0.0104167
  0
VERTEX
  8
0
 10
8.35346
 20
4.44493
 30
0.0
 40
0.0104167
 41
0.0104167
  0
VERTEX
  8
0
 10
8.352
 20
4.44493
 30
0.0
 40
0.0104167
 41
0.0104167
  0
VERTEX
  8
0
 10
8.34771
 20
4.44493
 30
0.0
 40
0.0104167
 41
0.0104167
  0
VERTEX
  8
0
 10
8.34343
 20
4.44493
 30
0.0
 40
0.0104167
 41
0.0104167
  0
VERTEX
  8
0
 10
8.34201
 20
4.44493
 30
0.0
 40
0.0104167
 41
0.0104167
  0
VERTEX
  8
0
 10
8.34201
 20
4.44493
 30
0.0
 40
0.0104167
 41
0.0104167
  0
VERTEX
  8
0
 10
8.34267
 20
4.4426
 30
0.0
 40
0.0104167
 41
0.0104167
  0
VERTEX
  8
0
 10
8.34603
 20
4.43261
 30
0.0
 40
0.0104167
 41
0.0104167
  0
VERTEX
  8
0
 10
8.34722
 20
4.42931
 30
0.0
 40
0.0104167
 41
0.0104167
  0
SEQEND
 8
0
  0
POLYLINE
  8
0
 62
     0
 66
     1
 10
0
 20
0
 30
0.0
 40
1.35
 41
1.35
  0
VERTEX
  8
0
 10
7.60254
 20
5.01937
 30
0.0
 40
0.01875
 41
0.01875
  0
VERTEX
  8
0
 10
7.60254
 20
4.16786
 30
0.0
 40
0.01875
 41
0.01875
  0
VERTEX
  8
0
 10
8.391
 20
4.16786
 30
0.0
 40
0.01875
 41
0.01875
  0
SEQEND
 8
0
  0
POLYLINE
  8
0
 62
     7
 66
     1
 10
0
 20
0
 30
0.0
 70
     1
 40
0
 41
0
  0
VERTEX
  8
0
 10
7.75971
 20
3.81337
 30
0.0
 40
0
 41
0
  0
VERTEX
  8
0
 10
8.38471
 20
3.81337
 30
0.0
 40
0
 41
0
  0
VERTEX
  8
0
 10
8.38471
 20
3.12528
 30
0.0
 40
0
 41
0
  0
VERTEX
  8
0
 10
7.75971
 20
3.12528
 30
0.0
 40
0
 41
0
  0
VERTEX
  8
0
 10
7.75971
 20
3.81337
 30
0.0
 40
0
 41
0
  0
SEQEND
 8
0
  0
POLYLINE
  8
0
 62
     0
 66
     1
 10
0
 20
0
 30
0.0
 70
     1
 40
0.825675
 41
0.825675
  0
VERTEX
  8
0
 10
7.75971
 20
3.81337
 30
0.0
 40
0.0114677
 41
0.0114677
  0
VERTEX
  8
0
 10
7.75971
 20
3.12528
 30
0.0
 40
0.0114677
 41
0.0114677
  0
VERTEX
  8
0
 10
8.38471
 20
3.12528
 30
0.0
 40
0.0114677
 41
0.0114677
  0
VERTEX
  8
0
 10
8.38471
 20
3.81337
 30
0.0
 40
0.0114677
 41
0.0114677
  0
VERTEX
  8
0
 10
7.75971
 20
3.81337
 30
0.0
 40
0.0114677
 41
0.0114677
  0
SEQEND
 8
0
  0
POLYLINE
  8
0
 62
     0
 66
     1
 10
0
 20
0
 30
0.0
 40
0.825675
 41
0.825675
  0
VERTEX
  8
0
 10
8.38471
 20
3.81337
 30
0.0
 40
0.0114677
 41
0.0114677
  0
VERTEX
  8
0
 10
7.95762
 20
3.46935
 30
0.0
 40
0.0114677
 41
0.0114677
  0
VERTEX
  8
0
 10
8.16808
 20
3.46935
 30
0.0
 40
0.0114677
 41
0.0114677
  0
VERTEX
  8
0
 10
7.75971
 20
3.12528
 30
0.0
 40
0.0114677
 41
0.0114677
  0
SEQEND
 8
0
  0
POLYLINE
  8
0
 62
     0
 66
     1
 10
0
 20
0
 30
0.0
 40
0.825675
 41
0.825675
  0
VERTEX
  8
0
 10
7.766
 20
3.78239
 30
0.0
 40
0.0114677
 41
0.0114677
  0
VERTEX
  8
0
 10
7.766
 20
3.15625
 30
0.0
 40
0.0114677
 41
0.0114677
  0
SEQEND
 8
0
  0
POLYLINE
  8
0
 62
     7
 66
     1
 10
0
 20
0
 30
0.0
 70
     1
 40
0
 41
0
  0
VERTEX
  8
0
 10
7.82194
 20
5.76269
 30
0.0
 40
0
 41
0
  0
VERTEX
  8
0
 10
8.38471
 20
5.76269
 30
0.0
 40
0
 41
0
  0
VERTEX
  8
0
 10
8.38471
 20
5.13769
 30
0.0
 40
0
 41
0
  0
VERTEX
  8
0
 10
7.82194
 20
5.13769
 30
0.0
 40
0
 41
0
  0
VERTEX
  8
0
 10
7.82194
 20
5.76269
 30
0.0
 40
0
 41
0
  0
SEQEND
 8
0
  0
POLYLINE
  8
0
 62
     0
 66
     1
 10
0
 20
0
 30
0.0
 70
     1
 40
0.75
 41
0.75
  0
VERTEX
  8
0
 10
7.82194
 20
5.76269
 30
0.0
 40
0.0104167
 41
0.0104167
  0
VERTEX
  8
0
 10
8.38471
 20
5.76269
 30
0.0
 40
0.0104167
 41
0.0104167
  0
VERTEX
  8
0
 10
8.38471
 20
5.13769
 30
0.0
 40
0.0104167
 41
0.0104167
  0
VERTEX
  8
0
 10
7.82194
 20
5.13769
 30
0.0
 40
0.0104167
 41
0.0104167
  0
VERTEX
  8
0
 10
7.82194
 20
5.76269
 30
0.0
 40
0.0104167
 41
0.0104167
  0
SEQEND
 8
0
  0
POLYLINE
  8
0
 62
     7
 66
     1
 10
0
 20
0
 30
0.0
 70
     1
 40
0
 41
0
  0
VERTEX
  8
0
 10
7.19689
 20
5.76269
 30
0.0
 40
0
 41
0
  0
VERTEX
  8
0
 10
7.82189
 20
5.76269
 30
0.0
 40
0
 41
0
  0
VERTEX
  8
0
 10
7.82189
 20
5.13769
 30
0.0
 40
0
 41
0
  0
VERTEX
  8
0
 10
7.19689
 20
5.13769
 30
0.0
 40
0
 41
0
  0
VERTEX
  8
0
 10
7.19689
 20
5.76269
 30
0.0
 40
0
 41
0
  0
SEQEND
 8
0
  0
POLYLINE
  8
0
 62
     0
 66
     1
 10
0
 20
0
 30
0.0
 70
     1
 40
0.75
 41
0.75
  0
VERTEX
  8
0
 10
7.19689
 20
5.76269
 30
0.0
 40
0.0104167
 41
0.0104167
  0
VERTEX
  8
0
 10
7.82189
 20
5.76269
 30
0.0
 40
0.0104167
 41
0.0104167
  0
VERTEX
  8
0
 10
7.82189
 20
5.13769
 30
0.0
 40
0.0104167
 41
0.0104167
  0
VERTEX
  8
0
 10
7.19689
 20
5.13769
 30
0.0
 40
0.0104167
 41
0.0104167
  0
VERTEX
  8
0
 10
7.19689
 20
5.76269
 30
0.0
 40
0.0104167
 41
0.0104167
  0
SEQEND
 8
0
  0
POLYLINE
  8
0
 62
     0
 66
     1
 10
0
 20
0
 30
0.0
 40
0.75
 41
0.75
  0
VERTEX
  8
0
 10
7.82189
 20
5.13769
 30
0.0
 40
0.0104167
 41
0.0104167
  0
VERTEX
  8
0
 10
7.50939
 20
5.52414
 30
0.0
 40
0.0104167
 41
0.0104167
  0
VERTEX
  8
0
 10
7.50939
 20
5.33664
 30
0.0
 40
0.0104167
 41
0.0104167
  0
VERTEX
  8
0
 10
7.19689
 20
5.72418
 30
0.0
 40
0.0104167
 41
0.0104167
  0
SEQEND
 8
0
  0
POLYLINE
  8
0
 62
     7
 66
     1
 10
0
 20
0
 30
0.0
 70
     1
 40
0
 41
0
  0
VERTEX
  8
0
 10
7.19689
 20
5.76269
 30
0.0
 40
0
 41
0
  0
VERTEX
  8
0
 10
7.82189
 20
5.76269
 30
0.0
 40
0
 41
0
  0
VERTEX
  8
0
 10
7.82189
 20
5.72103
 30
0.0
 40
0
 41
0
  0
VERTEX
  8
0
 10
7.19689
 20
5.72103
 30
0.0
 40
0
 41
0
  0
VERTEX
  8
0
 10
7.19689
 20
5.76269
 30
0.0
 40
0
 41
0
  0
SEQEND
 8
0
  0
POLYLINE
  8
0
 62
     0
 66
     1
 10
0
 20
0
 30
0.0
 70
     1
 40
0.75
 41
0.75
  0
VERTEX
  8
0
 10
7.19689
 20
5.76269
 30
0.0
 40
0.0104167
 41
0.0104167
  0
VERTEX
  8
0
 10
7.82189
 20
5.76269
 30
0.0
 40
0.0104167
 41
0.0104167
  0
VERTEX
  8
0
 10
7.82189
 20
5.72103
 30
0.0
 40
0.0104167
 41
0.0104167
  0
VERTEX
  8
0
 10
7.19689
 20
5.72103
 30
0.0
 40
0.0104167
 41
0.0104167
  0
VERTEX
  8
0
 10
7.19689
 20
5.76269
 30
0.0
 40
0.0104167
 41
0.0104167
  0
SEQEND
 8
0
  0
POLYLINE
  8
0
 62
     7
 66
     1
 10
0
 20
0
 30
0.0
 70
     1
 40
0
 41
0
  0
VERTEX
  8
0
 10
4.79172
 20
7.50037
 30
0.0
 40
0
 41
0
  0
VERTEX
  8
0
 10
4.79172
 20
5.76269
 30
0.0
 40
0
 41
0
  0
VERTEX
  8
0
 10
7.19396
 20
5.76269
 30
0.0
 40
0
 41
0
  0
VERTEX
  8
0
 10
7.19396
 20
5.13769
 30
0.0
 40
0
 41
0
  0
VERTEX
  8
0
 10
4.16385
 20
5.13769
 30
0.0
 40
0
 41
0
  0
VERTEX
  8
0
 10
4.16385
 20
7.50037
 30
0.0
 40
0
 41
0
  0
VERTEX
  8
0
 10
4.79172
 20
7.50037
 30
0.0
 40
0
 41
0
  0
SEQEND
 8
0
  0
POLYLINE
  8
0
 62
     0
 66
     1
 10
0
 20
0
 30
0.0
 70
     1
 40
0.75
 41
0.75
  0
VERTEX
  8
0
 10
4.79172
 20
7.50037
 30
0.0
 40
0.0104167
 41
0.0104167
  0
VERTEX
  8
0
 10
4.79172
 20
5.76269
 30
0.0
 40
0.0104167
 41
0.0104167
  0
VERTEX
  8
0
 10
7.19396
 20
5.76269
 30
0.0
 40
0.0104167
 41
0.0104167
  0
VERTEX
  8
0
 10
7.19396
 20
5.13769
 30
0.0
 40
0.0104167
 41
0.0104167
  0
VERTEX
  8
0
 10
4.16385
 20
5.13769
 30
0.0
 40
0.0104167
 41
0.0104167
  0
VERTEX
  8
0
 10
4.16385
 20
7.50037
 30
0.0
 40
0.0104167
 41
0.0104167
  0
VERTEX
  8
0
 10
4.79172
 20
7.50037
 30
0.0
 40
0.0104167
 41
0.0104167
  0
SEQEND
 8
0
  0
POLYLINE
  8
0
 62
     7
 66
     1
 10
0
 20
0
 30
0.0
 70
     1
 40
0
 41
0
  0
VERTEX
  8
0
 10
5.60949
 20
5.68354
 30
0.0
 40
0
 41
0
  0
VERTEX
  8
0
 10
6.04606
 20
5.68354
 30
0.0
 40
0
 41
0
  0
VERTEX
  8
0
 10
6.04606
 20
5.28386
 30
0.0
 40
0
 41
0
  0
VERTEX
  8
0
 10
5.60949
 20
5.28386
 30
0.0
 40
0
 41
0
  0
VERTEX
  8
0
 10
5.60949
 20
5.68354
 30
0.0
 40
0
 41
0
  0
SEQEND
 8
0
  0
POLYLINE
  8
0
 62
     0
 66
     1
 10
0
 20
0
 30
0.0
 70
     1
 40
0.75
 41
0.75
  0
VERTEX
  8
0
 10
5.60949
 20
5.68354
 30
0.0
 40
0.0104167
 41
0.0104167
  0
VERTEX
  8
0
 10
6.04606
 20
5.68354
 30
0.0
 40
0.0104167
 41
0.0104167
  0
VERTEX
  8
0
 10
6.04606
 20
5.28386
 30
0.0
 40
0.0104167
 41
0.0104167
  0
VERTEX
  8
0
 10
5.60949
 20
5.28386
 30
0.0
 40
0.0104167
 41
0.0104167
  0
VERTEX
  8
0
 10
5.60949
 20
5.68354
 30
0.0
 40
0.0104167
 41
0.0104167
  0
SEQEND
 8
0
  0
POLYLINE
  8
0
 62
     7
 66
     1
 10
0
 20
0
 30
0.0
 70
     1
 40
0
 41
0
  0
VERTEX
  8
0
 10
5.79135
 20
5.4776
 30
0.0
 40
0
 41
0
  0
VERTEX
  8
0
 10
5.79135
 20
5.48406
 30
0.0
 40
0
 41
0
  0
VERTEX
  8
0
 10
5.80197
 20
5.50342
 30
0.0
 40
0
 41
0
  0
VERTEX
  8
0
 10
5.82135
 20
5.51406
 30
0.0
 40
0
 41
0
  0
VERTEX
  8
0
 10
5.82781
 20
5.51406
 30
0.0
 40
0
 41
0
  0
VERTEX
  8
0
 10
5.83421
 20
5.51406
 30
0.0
 40
0
 41
0
  0
VERTEX
  8
0
 10
5.85357
 20
5.50342
 30
0.0
 40
0
 41
0
  0
VERTEX
  8
0
 10
5.86426
 20
5.48406
 30
0.0
 40
0
 41
0
  0
VERTEX
  8
0
 10
5.86426
 20
5.4776
 30
0.0
 40
0
 41
0
  0
VERTEX
  8
0
 10
5.86426
 20
5.47119
 30
0.0
 40
0
 41
0
  0
VERTEX
  8
0
 10
5.85357
 20
5.45182
 30
0.0
 40
0
 41
0
  0
VERTEX
  8
0
 10
5.83421
 20
5.44114
 30
0.0
 40
0
 41
0
  0
VERTEX
  8
0
 10
5.82781
 20
5.44114
 30
0.0
 40
0
 41
0
  0
VERTEX
  8
0
 10
5.82135
 20
5.44114
 30
0.0
 40
0
 41
0
  0
VERTEX
  8
0
 10
5.80197
 20
5.45182
 30
0.0
 40
0
 41
0
  0
VERTEX
  8
0
 10
5.79135
 20
5.47119
 30
0.0
 40
0
 41
0
  0
VERTEX
  8
0
 10
5.79135
 20
5.4776
 30
0.0
 40
0
 41
0
  0
SEQEND
 8
0
  0
POLYLINE
  8
0
 62
     0
 66
     1
 10
0
 20
0
 30
0.0
 70
     1
 40
0.6
 41
0.6
  0
VERTEX
  8
0
 10
5.79135
 20
5.4776
 30
0.0
 40
0.00833333
 41
0.00833333
  0
VERTEX
  8
0
 10
5.79135
 20
5.48406
 30
0.0
 40
0.00833333
 41
0.00833333
  0
VERTEX
  8
0
 10
5.80197
 20
5.50342
 30
0.0
 40
0.00833333
 41
0.00833333
  0
VERTEX
  8
0
 10
5.82135
 20
5.51406
 30
0.0
 40
0.00833333
 41
0.00833333
  0
VERTEX
  8
0
 10
5.82781
 20
5.51406
 30
0.0
 40
0.00833333
 41
0.00833333
  0
VERTEX
  8
0
 10
5.83421
 20
5.51406
 30
0.0
 40
0.00833333
 41
0.00833333
  0
VERTEX
  8
0
 10
5.85357
 20
5.50342
 30
0.0
 40
0.00833333
 41
0.00833333
  0
VERTEX
  8
0
 10
5.86426
 20
5.48406
 30
0.0
 40
0.00833333
 41
0.00833333
  0
VERTEX
  8
0
 10
5.86426
 20
5.4776
 30
0.0
 40
0.00833333
 41
0.00833333
  0
VERTEX
  8
0
 10
5.86426
 20
5.47119
 30
0.0
 40
0.00833333
 41
0.00833333
  0
VERTEX
  8
0
 10
5.85357
 20
5.45182
 30
0.0
 40
0.00833333
 41
0.00833333
  0
VERTEX
  8
0
 10
5.83421
 20
5.44114
 30
0.0
 40
0.00833333
 41
0.00833333
  0
VERTEX
  8
0
 10
5.82781
 20
5.44114
 30
0.0
 40
0.00833333
 41
0.00833333
  0
VERTEX
  8
0
 10
5.82135
 20
5.44114
 30
0.0
 40
0.00833333
 41
0.00833333
  0
VERTEX
  8
0
 10
5.80197
 20
5.45182
 30
0.0
 40
0.00833333
 41
0.00833333
  0
VERTEX
  8
0
 10
5.79135
 20
5.47119
 30
0.0
 40
0.00833333
 41
0.00833333
  0
VERTEX
  8
0
 10
5.79135
 20
5.4776
 30
0.0
 40
0.00833333
 41
0.00833333
  0
SEQEND
 8
0
  0
POLYLINE
  8
0
 62
     7
 66
     1
 10
0
 20
0
 30
0.0
 70
     1
 40
0
 41
0
  0
VERTEX
  8
0
 10
5.80697
 20
5.4776
 30
0.0
 40
0
 41
0
  0
VERTEX
  8
0
 10
5.80697
 20
5.48128
 30
0.0
 40
0
 41
0
  0
VERTEX
  8
0
 10
5.81304
 20
5.49235
 30
0.0
 40
0
 41
0
  0
VERTEX
  8
0
 10
5.82411
 20
5.49843
 30
0.0
 40
0
 41
0
  0
VERTEX
  8
0
 10
5.82781
 20
5.49843
 30
0.0
 40
0
 41
0
  0
VERTEX
  8
0
 10
5.83143
 20
5.49843
 30
0.0
 40
0
 41
0
  0
VERTEX
  8
0
 10
5.8425
 20
5.49235
 30
0.0
 40
0
 41
0
  0
VERTEX
  8
0
 10
5.84864
 20
5.48128
 30
0.0
 40
0
 41
0
  0
VERTEX
  8
0
 10
5.84864
 20
5.4776
 30
0.0
 40
0
 41
0
  0
VERTEX
  8
0
 10
5.84864
 20
5.47396
 30
0.0
 40
0
 41
0
  0
VERTEX
  8
0
 10
5.8425
 20
5.46289
 30
0.0
 40
0
 41
0
  0
VERTEX
  8
0
 10
5.83143
 20
5.45676
 30
0.0
 40
0
 41
0
  0
VERTEX
  8
0
 10
5.82781
 20
5.45676
 30
0.0
 40
0
 41
0
  0
VERTEX
  8
0
 10
5.82411
 20
5.45676
 30
0.0
 40
0
 41
0
  0
VERTEX
  8
0
 10
5.81304
 20
5.46289
 30
0.0
 40
0
 41
0
  0
VERTEX
  8
0
 10
5.80697
 20
5.47396
 30
0.0
 40
0
 41
0
  0
VERTEX
  8
0
 10
5.80697
 20
5.4776
 30
0.0
 40
0
 41
0
  0
SEQEND
 8
0
  0
POLYLINE
  8
0
 62
     0
 66
     1
 10
0
 20
0
 30
0.0
 70
     1
 40
0.6
 41
0.6
  0
VERTEX
  8
0
 10
5.80697
 20
5.4776
 30
0.0
 40
0.00833333
 41
0.00833333
  0
VERTEX
  8
0
 10
5.80697
 20
5.48128
 30
0.0
 40
0.00833333
 41
0.00833333
  0
VERTEX
  8
0
 10
5.81304
 20
5.49235
 30
0.0
 40
0.00833333
 41
0.00833333
  0
VERTEX
  8
0
 10
5.82411
 20
5.49843
 30
0.0
 40
0.00833333
 41
0.00833333
  0
VERTEX
  8
0
 10
5.82781
 20
5.49843
 30
0.0
 40
0.00833333
 41
0.00833333
  0
VERTEX
  8
0
 10
5.83143
 20
5.49843
 30
0.0
 40
0.00833333
 41
0.00833333
  0
VERTEX
  8
0
 10
5.8425
 20
5.49235
 30
0.0
 40
0.00833333
 41
0.00833333
  0
VERTEX
  8
0
 10
5.84864
 20
5.48128
 30
0.0
 40
0.00833333
 41
0.00833333
  0
VERTEX
  8
0
 10
5.84864
 20
5.4776
 30
0.0
 40
0.00833333
 41
0.00833333
  0
VERTEX
  8
0
 10
5.84864
 20
5.47396
 30
0.0
 40
0.00833333
 41
0.00833333
  0
VERTEX
  8
0
 10
5.8425
 20
5.46289
 30
0.0
 40
0.00833333
 41
0.00833333
  0
VERTEX
  8
0
 10
5.83143
 20
5.45676
 30
0.0
 40
0.00833333
 41
0.00833333
  0
VERTEX
  8
0
 10
5.82781
 20
5.45676
 30
0.0
 40
0.00833333
 41
0.00833333
  0
VERTEX
  8
0
 10
5.82411
 20
5.45676
 30
0.0
 40
0.00833333
 41
0.00833333
  0
VERTEX
  8
0
 10
5.81304
 20
5.46289
 30
0.0
 40
0.00833333
 41
0.00833333
  0
VERTEX
  8
0
 10
5.80697
 20
5.47396
 30
0.0
 40
0.00833333
 41
0.00833333
  0
VERTEX
  8
0
 10
5.80697
 20
5.4776
 30
0.0
 40
0.00833333
 41
0.00833333
  0
SEQEND
 8
0
  0
POLYLINE
  8
0
 62
     7
 66
     1
 10
0
 20
0
 30
0.0
 70
     1
 40
0
 41
0
  0
VERTEX
  8
0
 10
5.7915
 20
5.3744
 30
0.0
 40
0
 41
0
  0
VERTEX
  8
0
 10
5.854
 20
5.3744
 30
0.0
 40
0
 41
0
  0
VERTEX
  8
0
 10
5.854
 20
5.22857
 30
0.0
 40
0
 41
0
  0
VERTEX
  8
0
 10
5.7915
 20
5.22857
 30
0.0
 40
0
 41
0
  0
VERTEX
  8
0
 10
5.7915
 20
5.3744
 30
0.0
 40
0
 41
0
  0
SEQEND
 8
0
  0
POLYLINE
  8
0
 62
     0
 66
     1
 10
0
 20
0
 30
0.0
 70
     1
 40
0.75
 41
0.75
  0
VERTEX
  8
0
 10
5.7915
 20
5.3744
 30
0.0
 40
0.0104167
 41
0.0104167
  0
VERTEX
  8
0
 10
5.854
 20
5.3744
 30
0.0
 40
0.0104167
 41
0.0104167
  0
VERTEX
  8
0
 10
5.854
 20
5.22857
 30
0.0
 40
0.0104167
 41
0.0104167
  0
VERTEX
  8
0
 10
5.7915
 20
5.22857
 30
0.0
 40
0.0104167
 41
0.0104167
  0
VERTEX
  8
0
 10
5.7915
 20
5.3744
 30
0.0
 40
0.0104167
 41
0.0104167
  0
SEQEND
 8
0
  0
POLYLINE
  8
0
 62
     7
 66
     1
 10
0
 20
0
 30
0.0
 70
     1
 40
0
 41
0
  0
VERTEX
  8
0
 10
4.18517
 20
6.80089
 30
0.0
 40
0
 41
0
  0
VERTEX
  8
0
 10
4.7685
 20
6.80089
 30
0.0
 40
0
 41
0
  0
VERTEX
  8
0
 10
4.7685
 20
6.14849
 30
0.0
 40
0
 41
0
  0
VERTEX
  8
0
 10
4.18517
 20
6.14849
 30
0.0
 40
0
 41
0
  0
VERTEX
  8
0
 10
4.18517
 20
6.80089
 30
0.0
 40
0
 41
0
  0
SEQEND
 8
0
  0
POLYLINE
  8
0
 62
     0
 66
     1
 10
0
 20
0
 30
0.0
 70
     1
 40
0.75
 41
0.75
  0
VERTEX
  8
0
 10
4.18517
 20
6.80089
 30
0.0
 40
0.0104167
 41
0.0104167
  0
VERTEX
  8
0
 10
4.18517
 20
6.14849
 30
0.0
 40
0.0104167
 41
0.0104167
  0
VERTEX
  8
0
 10
4.7685
 20
6.14849
 30
0.0
 40
0.0104167
 41
0.0104167
  0
VERTEX
  8
0
 10
4.7685
 20
6.80089
 30
0.0
 40
0.0104167
 41
0.0104167
  0
VERTEX
  8
0
 10
4.18517
 20
6.80089
 30
0.0
 40
0.0104167
 41
0.0104167
  0
SEQEND
 8
0
  0
POLYLINE
  8
0
 62
     7
 66
     1
 10
0
 20
0
 30
0.0
 70
     1
 40
0
 41
0
  0
VERTEX
  8
0
 10
4.331
 20
6.39671
 30
0.0
 40
0
 41
0
  0
VERTEX
  8
0
 10
4.33908
 20
6.39671
 30
0.0
 40
0
 41
0
  0
VERTEX
  8
0
 10
4.36339
 20
6.39019
 30
0.0
 40
0
 41
0
  0
VERTEX
  8
0
 10
4.38992
 20
6.37229
 30
0.0
 40
0
 41
0
  0
VERTEX
  8
0
 10
4.40776
 20
6.34581
 30
0.0
 40
0
 41
0
  0
VERTEX
  8
0
 10
4.41433
 20
6.3215
 30
0.0
 40
0
 41
0
  0
VERTEX
  8
0
 10
4.41433
 20
6.31337
 30
0.0
 40
0
 41
0
  0
VERTEX
  8
0
 10
4.41433
 20
6.30528
 30
0.0
 40
0
 41
0
  0
VERTEX
  8
0
 10
4.40776
 20
6.28097
 30
0.0
 40
0
 41
0
  0
VERTEX
  8
0
 10
4.38992
 20
6.25444
 30
0.0
 40
0
 41
0
  0
VERTEX
  8
0
 10
4.36339
 20
6.2366
 30
0.0
 40
0
 41
0
  0
VERTEX
  8
0
 10
4.33908
 20
6.23004
 30
0.0
 40
0
 41
0
  0
VERTEX
  8
0
 10
4.331
 20
6.23004
 30
0.0
 40
0
 41
0
  0
VERTEX
  8
0
 10
4.32286
 20
6.23004
 30
0.0
 40
0
 41
0
  0
VERTEX
  8
0
 10
4.2985
 20
6.2366
 30
0.0
 40
0
 41
0
  0
VERTEX
  8
0
 10
4.27203
 20
6.25444
 30
0.0
 40
0
 41
0
  0
VERTEX
  8
0
 10
4.25418
 20
6.28097
 30
0.0
 40
0
 41
0
  0
VERTEX
  8
0
 10
4.24767
 20
6.30528
 30
0.0
 40
0
 41
0
  0
VERTEX
  8
0
 10
4.24767
 20
6.31337
 30
0.0
 40
0
 41
0
  0
VERTEX
  8
0
 10
4.24767
 20
6.3215
 30
0.0
 40
0
 41
0
  0
VERTEX
  8
0
 10
4.25418
 20
6.34581
 30
0.0
 40
0
 41
0
  0
VERTEX
  8
0
 10
4.27203
 20
6.37229
 30
0.0
 40
0
 41
0
  0
VERTEX
  8
0
 10
4.2985
 20
6.39019
 30
0.0
 40
0
 41
0
  0
VERTEX
  8
0
 10
4.32286
 20
6.39671
 30
0.0
 40
0
 41
0
  0
VERTEX
  8
0
 10
4.331
 20
6.39671
 30
0.0
 40
0
 41
0
  0
SEQEND
 8
0
  0
POLYLINE
  8
0
 62
     0
 66
     1
 10
0
 20
0
 30
0.0
 70
     1
 40
0.75
 41
0.75
  0
VERTEX
  8
0
 10
4.331
 20
6.39671
 30
0.0
 40
0.0104167
 41
0.0104167
  0
VERTEX
  8
0
 10
4.33908
 20
6.39671
 30
0.0
 40
0.0104167
 41
0.0104167
  0
VERTEX
  8
0
 10
4.36339
 20
6.39019
 30
0.0
 40
0.0104167
 41
0.0104167
  0
VERTEX
  8
0
 10
4.38992
 20
6.37229
 30
0.0
 40
0.0104167
 41
0.0104167
  0
VERTEX
  8
0
 10
4.40776
 20
6.34581
 30
0.0
 40
0.0104167
 41
0.0104167
  0
VERTEX
  8
0
 10
4.41433
 20
6.3215
 30
0.0
 40
0.0104167
 41
0.0104167
  0
VERTEX
  8
0
 10
4.41433
 20
6.31337
 30
0.0
 40
0.0104167
 41
0.0104167
  0
VERTEX
  8
0
 10
4.41433
 20
6.30528
 30
0.0
 40
0.0104167
 41
0.0104167
  0
VERTEX
  8
0
 10
4.40776
 20
6.28097
 30
0.0
 40
0.0104167
 41
0.0104167
  0
VERTEX
  8
0
 10
4.38992
 20
6.25444
 30
0.0
 40
0.0104167
 41
0.0104167
  0
VERTEX
  8
0
 10
4.36339
 20
6.2366
 30
0.0
 40
0.0104167
 41
0.0104167
  0
VERTEX
  8
0
 10
4.33908
 20
6.23004
 30
0.0
 40
0.0104167
 41
0.0104167
  0
VERTEX
  8
0
 10
4.331
 20
6.23004
 30
0.0
 40
0.0104167
 41
0.0104167
  0
VERTEX
  8
0
 10
4.32286
 20
6.23004
 30
0.0
 40
0.0104167
 41
0.0104167
  0
VERTEX
  8
0
 10
4.2985
 20
6.2366
 30
0.0
 40
0.0104167
 41
0.0104167
  0
VERTEX
  8
0
 10
4.27203
 20
6.25444
 30
0.0
 40
0.0104167
 41
0.0104167
  0
VERTEX
  8
0
 10
4.25418
 20
6.28097
 30
0.0
 40
0.0104167
 41
0.0104167
  0
VERTEX
  8
0
 10
4.24767
 20
6.30528
 30
0.0
 40
0.0104167
 41
0.0104167
  0
VERTEX
  8
0
 10
4.24767
 20
6.31337
 30
0.0
 40
0.0104167
 41
0.0104167
  0
VERTEX
  8
0
 10
4.24767
 20
6.3215
 30
0.0
 40
0.0104167
 41
0.0104167
  0
VERTEX
  8
0
 10
4.25418
 20
6.34581
 30
0.0
 40
0.0104167
 41
0.0104167
  0
VERTEX
  8
0
 10
4.27203
 20
6.37229
 30
0.0
 40
0.0104167
 41
0.0104167
  0
VERTEX
  8
0
 10
4.2985
 20
6.39019
 30
0.0
 40
0.0104167
 41
0.0104167
  0
VERTEX
  8
0
 10
4.32286
 20
6.39671
 30
0.0
 40
0.0104167
 41
0.0104167
  0
VERTEX
  8
0
 10
4.331
 20
6.39671
 30
0.0
 40
0.0104167
 41
0.0104167
  0
SEQEND
 8
0
  0
POLYLINE
  8
0
 62
     7
 66
     1
 10
0
 20
0
 30
0.0
 70
     1
 40
0
 41
0
  0
VERTEX
  8
0
 10
4.331
 20
6.72168
 30
0.0
 40
0
 41
0
  0
VERTEX
  8
0
 10
4.33908
 20
6.72168
 30
0.0
 40
0
 41
0
  0
VERTEX
  8
0
 10
4.36339
 20
6.71517
 30
0.0
 40
0
 41
0
  0
VERTEX
  8
0
 10
4.38992
 20
6.69732
 30
0.0
 40
0
 41
0
  0
VERTEX
  8
0
 10
4.40776
 20
6.67085
 30
0.0
 40
0
 41
0
  0
VERTEX
  8
0
 10
4.41433
 20
6.64649
 30
0.0
 40
0
 41
0
  0
VERTEX
  8
0
 10
4.41433
 20
6.63835
 30
0.0
 40
0
 41
0
  0
VERTEX
  8
0
 10
4.41433
 20
6.63026
 30
0.0
 40
0
 41
0
  0
VERTEX
  8
0
 10
4.40776
 20
6.60596
 30
0.0
 40
0
 41
0
  0
VERTEX
  8
0
 10
4.38992
 20
6.57943
 30
0.0
 40
0
 41
0
  0
VERTEX
  8
0
 10
4.36339
 20
6.56158
 30
0.0
 40
0
 41
0
  0
VERTEX
  8
0
 10
4.33908
 20
6.55501
 30
0.0
 40
0
 41
0
  0
VERTEX
  8
0
 10
4.331
 20
6.55501
 30
0.0
 40
0
 41
0
  0
VERTEX
  8
0
 10
4.32286
 20
6.55501
 30
0.0
 40
0
 41
0
  0
VERTEX
  8
0
 10
4.2985
 20
6.56158
 30
0.0
 40
0
 41
0
  0
VERTEX
  8
0
 10
4.27203
 20
6.57943
 30
0.0
 40
0
 41
0
  0
VERTEX
  8
0
 10
4.25418
 20
6.60596
 30
0.0
 40
0
 41
0
  0
VERTEX
  8
0
 10
4.24767
 20
6.63026
 30
0.0
 40
0
 41
0
  0
VERTEX
  8
0
 10
4.24767
 20
6.63835
 30
0.0
 40
0
 41
0
  0
VERTEX
  8
0
 10
4.24767
 20
6.64649
 30
0.0
 40
0
 41
0
  0
VERTEX
  8
0
 10
4.25418
 20
6.67085
 30
0.0
 40
0
 41
0
  0
VERTEX
  8
0
 10
4.27203
 20
6.69732
 30
0.0
 40
0
 41
0
  0
VERTEX
  8
0
 10
4.2985
 20
6.71517
 30
0.0
 40
0
 41
0
  0
VERTEX
  8
0
 10
4.32286
 20
6.72168
 30
0.0
 40
0
 41
0
  0
VERTEX
  8
0
 10
4.331
 20
6.72168
 30
0.0
 40
0
 41
0
  0
SEQEND
 8
0
  0
POLYLINE
  8
0
 62
     0
 66
     1
 10
0
 20
0
 30
0.0
 70
     1
 40
0.75
 41
0.75
  0
VERTEX
  8
0
 10
4.331
 20
6.72168
 30
0.0
 40
0.0104167
 41
0.0104167
  0
VERTEX
  8
0
 10
4.33908
 20
6.72168
 30
0.0
 40
0.0104167
 41
0.0104167
  0
VERTEX
  8
0
 10
4.36339
 20
6.71517
 30
0.0
 40
0.0104167
 41
0.0104167
  0
VERTEX
  8
0
 10
4.38992
 20
6.69732
 30
0.0
 40
0.0104167
 41
0.0104167
  0
VERTEX
  8
0
 10
4.40776
 20
6.67085
 30
0.0
 40
0.0104167
 41
0.0104167
  0
VERTEX
  8
0
 10
4.41433
 20
6.64649
 30
0.0
 40
0.0104167
 41
0.0104167
  0
VERTEX
  8
0
 10
4.41433
 20
6.63835
 30
0.0
 40
0.0104167
 41
0.0104167
  0
VERTEX
  8
0
 10
4.41433
 20
6.63026
 30
0.0
 40
0.0104167
 41
0.0104167
  0
VERTEX
  8
0
 10
4.40776
 20
6.60596
 30
0.0
 40
0.0104167
 41
0.0104167
  0
VERTEX
  8
0
 10
4.38992
 20
6.57943
 30
0.0
 40
0.0104167
 41
0.0104167
  0
VERTEX
  8
0
 10
4.36339
 20
6.56158
 30
0.0
 40
0.0104167
 41
0.0104167
  0
VERTEX
  8
0
 10
4.33908
 20
6.55501
 30
0.0
 40
0.0104167
 41
0.0104167
  0
VERTEX
  8
0
 10
4.331
 20
6.55501
 30
0.0
 40
0.0104167
 41
0.0104167
  0
VERTEX
  8
0
 10
4.32286
 20
6.55501
 30
0.0
 40
0.0104167
 41
0.0104167
  0
VERTEX
  8
0
 10
4.2985
 20
6.56158
 30
0.0
 40
0.0104167
 41
0.0104167
  0
VERTEX
  8
0
 10
4.27203
 20
6.57943
 30
0.0
 40
0.0104167
 41
0.0104167
  0
VERTEX
  8
0
 10
4.25418
 20
6.60596
 30
0.0
 40
0.0104167
 41
0.0104167
  0
VERTEX
  8
0
 10
4.24767
 20
6.63026
 30
0.0
 40
0.0104167
 41
0.0104167
  0
VERTEX
  8
0
 10
4.24767
 20
6.63835
 30
0.0
 40
0.0104167
 41
0.0104167
  0
VERTEX
  8
0
 10
4.24767
 20
6.64649
 30
0.0
 40
0.0104167
 41
0.0104167
  0
VERTEX
  8
0
 10
4.25418
 20
6.67085
 30
0.0
 40
0.0104167
 41
0.0104167
  0
VERTEX
  8
0
 10
4.27203
 20
6.69732
 30
0.0
 40
0.0104167
 41
0.0104167
  0
VERTEX
  8
0
 10
4.2985
 20
6.71517
 30
0.0
 40
0.0104167
 41
0.0104167
  0
VERTEX
  8
0
 10
4.32286
 20
6.72168
 30
0.0
 40
0.0104167
 41
0.0104167
  0
VERTEX
  8
0
 10
4.331
 20
6.72168
 30
0.0
 40
0.0104167
 41
0.0104167
  0
SEQEND
 8
0
  0
POLYLINE
  8
0
 62
     7
 66
     1
 10
0
 20
0
 30
0.0
 70
     1
 40
0
 41
0
  0
VERTEX
  8
0
 10
4.62267
 20
6.39671
 30
0.0
 40
0
 41
0
  0
VERTEX
  8
0
 10
4.63075
 20
6.39671
 30
0.0
 40
0
 41
0
  0
VERTEX
  8
0
 10
4.65506
 20
6.39019
 30
0.0
 40
0
 41
0
  0
VERTEX
  8
0
 10
4.68158
 20
6.37229
 30
0.0
 40
0
 41
0
  0
VERTEX
  8
0
 10
4.69943
 20
6.34581
 30
0.0
 40
0
 41
0
  0
VERTEX
  8
0
 10
4.706
 20
6.3215
 30
0.0
 40
0
 41
0
  0
VERTEX
  8
0
 10
4.706
 20
6.31337
 30
0.0
 40
0
 41
0
  0
VERTEX
  8
0
 10
4.706
 20
6.30528
 30
0.0
 40
0
 41
0
  0
VERTEX
  8
0
 10
4.69943
 20
6.28097
 30
0.0
 40
0
 41
0
  0
VERTEX
  8
0
 10
4.68158
 20
6.25444
 30
0.0
 40
0
 41
0
  0
VERTEX
  8
0
 10
4.65506
 20
6.2366
 30
0.0
 40
0
 41
0
  0
VERTEX
  8
0
 10
4.63075
 20
6.23004
 30
0.0
 40
0
 41
0
  0
VERTEX
  8
0
 10
4.62267
 20
6.23004
 30
0.0
 40
0
 41
0
  0
VERTEX
  8
0
 10
4.61453
 20
6.23004
 30
0.0
 40
0
 41
0
  0
VERTEX
  8
0
 10
4.59017
 20
6.2366
 30
0.0
 40
0
 41
0
  0
VERTEX
  8
0
 10
4.56369
 20
6.25444
 30
0.0
 40
0
 41
0
  0
VERTEX
  8
0
 10
4.54585
 20
6.28097
 30
0.0
 40
0
 41
0
  0
VERTEX
  8
0
 10
4.53933
 20
6.30528
 30
0.0
 40
0
 41
0
  0
VERTEX
  8
0
 10
4.53933
 20
6.31337
 30
0.0
 40
0
 41
0
  0
VERTEX
  8
0
 10
4.53933
 20
6.3215
 30
0.0
 40
0
 41
0
  0
VERTEX
  8
0
 10
4.54585
 20
6.34581
 30
0.0
 40
0
 41
0
  0
VERTEX
  8
0
 10
4.56369
 20
6.37229
 30
0.0
 40
0
 41
0
  0
VERTEX
  8
0
 10
4.59017
 20
6.39019
 30
0.0
 40
0
 41
0
  0
VERTEX
  8
0
 10
4.61453
 20
6.39671
 30
0.0
 40
0
 41
0
  0
VERTEX
  8
0
 10
4.62267
 20
6.39671
 30
0.0
 40
0
 41
0
  0
SEQEND
 8
0
  0
POLYLINE
  8
0
 62
     0
 66
     1
 10
0
 20
0
 30
0.0
 70
     1
 40
0.75
 41
0.75
  0
VERTEX
  8
0
 10
4.62267
 20
6.39671
 30
0.0
 40
0.0104167
 41
0.0104167
  0
VERTEX
  8
0
 10
4.63075
 20
6.39671
 30
0.0
 40
0.0104167
 41
0.0104167
  0
VERTEX
  8
0
 10
4.65506
 20
6.39019
 30
0.0
 40
0.0104167
 41
0.0104167
  0
VERTEX
  8
0
 10
4.68158
 20
6.37229
 30
0.0
 40
0.0104167
 41
0.0104167
  0
VERTEX
  8
0
 10
4.69943
 20
6.34581
 30
0.0
 40
0.0104167
 41
0.0104167
  0
VERTEX
  8
0
 10
4.706
 20
6.3215
 30
0.0
 40
0.0104167
 41
0.0104167
  0
VERTEX
  8
0
 10
4.706
 20
6.31337
 30
0.0
 40
0.0104167
 41
0.0104167
  0
VERTEX
  8
0
 10
4.706
 20
6.30528
 30
0.0
 40
0.0104167
 41
0.0104167
  0
VERTEX
  8
0
 10
4.69943
 20
6.28097
 30
0.0
 40
0.0104167
 41
0.0104167
  0
VERTEX
  8
0
 10
4.68158
 20
6.25444
 30
0.0
 40
0.0104167
 41
0.0104167
  0
VERTEX
  8
0
 10
4.65506
 20
6.2366
 30
0.0
 40
0.0104167
 41
0.0104167
  0
VERTEX
  8
0
 10
4.63075
 20
6.23004
 30
0.0
 40
0.0104167
 41
0.0104167
  0
VERTEX
  8
0
 10
4.62267
 20
6.23004
 30
0.0
 40
0.0104167
 41
0.0104167
  0
VERTEX
  8
0
 10
4.61453
 20
6.23004
 30
0.0
 40
0.0104167
 41
0.0104167
  0
VERTEX
  8
0
 10
4.59017
 20
6.2366
 30
0.0
 40
0.0104167
 41
0.0104167
  0
VERTEX
  8
0
 10
4.56369
 20
6.25444
 30
0.0
 40
0.0104167
 41
0.0104167
  0
VERTEX
  8
0
 10
4.54585
 20
6.28097
 30
0.0
 40
0.0104167
 41
0.0104167
  0
VERTEX
  8
0
 10
4.53933
 20
6.30528
 30
0.0
 40
0.0104167
 41
0.0104167
  0
VERTEX
  8
0
 10
4.53933
 20
6.31337
 30
0.0
 40
0.0104167
 41
0.0104167
  0
VERTEX
  8
0
 10
4.53933
 20
6.3215
 30
0.0
 40
0.0104167
 41
0.0104167
  0
VERTEX
  8
0
 10
4.54585
 20
6.34581
 30
0.0
 40
0.0104167
 41
0.0104167
  0
VERTEX
  8
0
 10
4.56369
 20
6.37229
 30
0.0
 40
0.0104167
 41
0.0104167
  0
VERTEX
  8
0
 10
4.59017
 20
6.39019
 30
0.0
 40
0.0104167
 41
0.0104167
  0
VERTEX
  8
0
 10
4.61453
 20
6.39671
 30
0.0
 40
0.0104167
 41
0.0104167
  0
VERTEX
  8
0
 10
4.62267
 20
6.39671
 30
0.0
 40
0.0104167
 41
0.0104167
  0
SEQEND
 8
0
  0
POLYLINE
  8
0
 62
     7
 66
     1
 10
0
 20
0
 30
0.0
 70
     1
 40
0
 41
0
  0
VERTEX
  8
0
 10
4.62267
 20
6.72168
 30
0.0
 40
0
 41
0
  0
VERTEX
  8
0
 10
4.63075
 20
6.72168
 30
0.0
 40
0
 41
0
  0
VERTEX
  8
0
 10
4.65506
 20
6.71517
 30
0.0
 40
0
 41
0
  0
VERTEX
  8
0
 10
4.68158
 20
6.69732
 30
0.0
 40
0
 41
0
  0
VERTEX
  8
0
 10
4.69943
 20
6.67085
 30
0.0
 40
0
 41
0
  0
VERTEX
  8
0
 10
4.706
 20
6.64649
 30
0.0
 40
0
 41
0
  0
VERTEX
  8
0
 10
4.706
 20
6.63835
 30
0.0
 40
0
 41
0
  0
VERTEX
  8
0
 10
4.706
 20
6.63026
 30
0.0
 40
0
 41
0
  0
VERTEX
  8
0
 10
4.69943
 20
6.60596
 30
0.0
 40
0
 41
0
  0
VERTEX
  8
0
 10
4.68158
 20
6.57943
 30
0.0
 40
0
 41
0
  0
VERTEX
  8
0
 10
4.65506
 20
6.56158
 30
0.0
 40
0
 41
0
  0
VERTEX
  8
0
 10
4.63075
 20
6.55501
 30
0.0
 40
0
 41
0
  0
VERTEX
  8
0
 10
4.62267
 20
6.55501
 30
0.0
 40
0
 41
0
  0
VERTEX
  8
0
 10
4.61453
 20
6.55501
 30
0.0
 40
0
 41
0
  0
VERTEX
  8
0
 10
4.59017
 20
6.56158
 30
0.0
 40
0
 41
0
  0
VERTEX
  8
0
 10
4.56369
 20
6.57943
 30
0.0
 40
0
 41
0
  0
VERTEX
  8
0
 10
4.54585
 20
6.60596
 30
0.0
 40
0
 41
0
  0
VERTEX
  8
0
 10
4.53933
 20
6.63026
 30
0.0
 40
0
 41
0
  0
VERTEX
  8
0
 10
4.53933
 20
6.63835
 30
0.0
 40
0
 41
0
  0
VERTEX
  8
0
 10
4.53933
 20
6.64649
 30
0.0
 40
0
 41
0
  0
VERTEX
  8
0
 10
4.54585
 20
6.67085
 30
0.0
 40
0
 41
0
  0
VERTEX
  8
0
 10
4.56369
 20
6.69732
 30
0.0
 40
0
 41
0
  0
VERTEX
  8
0
 10
4.59017
 20
6.71517
 30
0.0
 40
0
 41
0
  0
VERTEX
  8
0
 10
4.61453
 20
6.72168
 30
0.0
 40
0
 41
0
  0
VERTEX
  8
0
 10
4.62267
 20
6.72168
 30
0.0
 40
0
 41
0
  0
SEQEND
 8
0
  0
POLYLINE
  8
0
 62
     0
 66
     1
 10
0
 20
0
 30
0.0
 70
     1
 40
0.75
 41
0.75
  0
VERTEX
  8
0
 10
4.62267
 20
6.72168
 30
0.0
 40
0.0104167
 41
0.0104167
  0
VERTEX
  8
0
 10
4.63075
 20
6.72168
 30
0.0
 40
0.0104167
 41
0.0104167
  0
VERTEX
  8
0
 10
4.65506
 20
6.71517
 30
0.0
 40
0.0104167
 41
0.0104167
  0
VERTEX
  8
0
 10
4.68158
 20
6.69732
 30
0.0
 40
0.0104167
 41
0.0104167
  0
VERTEX
  8
0
 10
4.69943
 20
6.67085
 30
0.0
 40
0.0104167
 41
0.0104167
  0
VERTEX
  8
0
 10
4.706
 20
6.64649
 30
0.0
 40
0.0104167
 41
0.0104167
  0
VERTEX
  8
0
 10
4.706
 20
6.63835
 30
0.0
 40
0.0104167
 41
0.0104167
  0
VERTEX
  8
0
 10
4.706
 20
6.63026
 30
0.0
 40
0.0104167
 41
0.0104167
  0
VERTEX
  8
0
 10
4.69943
 20
6.60596
 30
0.0
 40
0.0104167
 41
0.0104167
  0
VERTEX
  8
0
 10
4.68158
 20
6.57943
 30
0.0
 40
0.0104167
 41
0.0104167
  0
VERTEX
  8
0
 10
4.65506
 20
6.56158
 30
0.0
 40
0.0104167
 41
0.0104167
  0
VERTEX
  8
0
 10
4.63075
 20
6.55501
 30
0.0
 40
0.0104167
 41
0.0104167
  0
VERTEX
  8
0
 10
4.62267
 20
6.55501
 30
0.0
 40
0.0104167
 41
0.0104167
  0
VERTEX
  8
0
 10
4.61453
 20
6.55501
 30
0.0
 40
0.0104167
 41
0.0104167
  0
VERTEX
  8
0
 10
4.59017
 20
6.56158
 30
0.0
 40
0.0104167
 41
0.0104167
  0
VERTEX
  8
0
 10
4.56369
 20
6.57943
 30
0.0
 40
0.0104167
 41
0.0104167
  0
VERTEX
  8
0
 10
4.54585
 20
6.60596
 30
0.0
 40
0.0104167
 41
0.0104167
  0
VERTEX
  8
0
 10
4.53933
 20
6.63026
 30
0.0
 40
0.0104167
 41
0.0104167
  0
VERTEX
  8
0
 10
4.53933
 20
6.63835
 30
0.0
 40
0.0104167
 41
0.0104167
  0
VERTEX
  8
0
 10
4.53933
 20
6.64649
 30
0.0
 40
0.0104167
 41
0.0104167
  0
VERTEX
  8
0
 10
4.54585
 20
6.67085
 30
0.0
 40
0.0104167
 41
0.0104167
  0
VERTEX
  8
0
 10
4.56369
 20
6.69732
 30
0.0
 40
0.0104167
 41
0.0104167
  0
VERTEX
  8
0
 10
4.59017
 20
6.71517
 30
0.0
 40
0.0104167
 41
0.0104167
  0
VERTEX
  8
0
 10
4.61453
 20
6.72168
 30
0.0
 40
0.0104167
 41
0.0104167
  0
VERTEX
  8
0
 10
4.62267
 20
6.72168
 30
0.0
 40
0.0104167
 41
0.0104167
  0
SEQEND
 8
0
  0
ENDSEC
  0
EOF
